<svg width="322" height="307" viewBox="0 0 322 307" fill="none" xmlns="http://www.w3.org/2000/svg">
    <path d="M259.424 54.5893H131.215C97.1589 54.5893 69.4469 82.3012 69.4469 116.357V244.567C69.4469 278.622 97.1589 306.334 131.215 306.334H259.424C293.48 306.334 321.192 278.622 321.192 244.567V116.357C321.192 82.3012 293.647 54.5893 259.424 54.5893ZM35.3912 0C15.8593 0 0 15.8593 0 35.3912C0 54.9232 15.8593 70.7825 35.3912 70.7825C54.9232 70.7825 70.7824 54.9232 70.7824 35.3912C70.7824 15.8593 54.9232 0 35.3912 0Z" fill="#50BFD7"/>
    <path d="M250.409 131.045C242.229 109.176 221.361 94.6522 197.99 94.6522H163.266L231.879 268.603H305.499L250.409 131.045ZM110.179 218.688L90.1467 268.603H163.266L197.322 182.295H162.599C139.227 182.295 118.36 196.819 110.179 218.688ZM121.531 137.889C133.551 137.889 143.4 128.04 143.4 116.02C143.4 104.001 133.551 94.1514 121.531 94.1514C109.512 94.1514 99.6623 104.001 99.6623 116.02C99.6623 128.04 109.512 137.889 121.531 137.889Z" fill="white"/>
</svg>
