<svg width="475" height="517" viewBox="0 0 475 517" fill="none" xmlns="http://www.w3.org/2000/svg">
<path d="M363.416 100.478C382.141 125.459 396.216 163.783 385.733 201.779C369.908 259.185 399.467 282.619 346.236 372.313C338.508 385.438 329.675 397.861 319.891 409.364C315.09 414.977 310.029 420.309 304.74 425.328C258.109 469.57 204.718 477.349 163.58 458.697C109.477 434.149 109.589 375.337 111.237 337.971C112.885 300.604 75.8846 234.986 127.682 146.459C135.544 132.919 144.622 120.138 154.736 108.371C177.899 81.6064 209.269 58.5078 240.262 51.8013C242.586 51.3037 244.902 50.874 247.252 50.5261C292.884 43.7028 337.883 66.4094 363.416 100.478Z" fill="#50BFD7"/>
<path opacity="0.7" d="M363.416 100.478C382.141 125.459 396.216 163.783 385.733 201.779C369.908 259.185 399.467 282.619 346.236 372.313C338.508 385.438 329.675 397.861 319.891 409.364C315.09 414.977 310.029 420.309 304.74 425.328C258.109 469.57 204.718 477.349 163.58 458.697C109.477 434.149 109.589 375.337 111.237 337.971C112.885 300.604 75.8846 234.986 127.682 146.459C135.544 132.919 144.622 120.138 154.736 108.371C177.899 81.6064 209.269 58.5078 240.262 51.8013C242.586 51.3037 244.902 50.874 247.252 50.5261C292.884 43.7028 337.883 66.4094 363.416 100.478Z" fill="white"/>
<path d="M400.696 465.387H117.304C117.224 465.387 117.146 465.351 117.089 465.285C117.032 465.22 117 465.131 117 465.039C117.002 464.947 117.034 464.859 117.091 464.794C117.148 464.729 117.224 464.692 117.304 464.69H400.696C400.776 464.692 400.852 464.729 400.909 464.794C400.966 464.859 400.998 464.947 401 465.039C401 465.131 400.968 465.22 400.911 465.285C400.854 465.351 400.776 465.387 400.696 465.387Z" fill="#263238"/>
<path d="M362.902 66.3941C362.902 70.1756 361.781 73.8722 359.68 77.0164C357.579 80.1605 354.592 82.611 351.099 84.0578C347.605 85.5047 343.76 85.883 340.052 85.1448C336.343 84.4066 332.936 82.5852 330.263 79.9109C327.589 77.2365 325.769 73.8294 325.032 70.1204C324.295 66.4114 324.674 62.5671 326.122 59.0737C327.57 55.5804 330.021 52.5949 333.166 50.4948C336.311 48.3948 340.008 47.2744 343.789 47.2756C346.303 47.2641 348.794 47.7508 351.118 48.7076C353.443 49.6644 355.555 51.0723 357.332 52.85C359.109 54.6277 360.516 56.7399 361.472 59.0646C362.428 61.3893 362.914 63.8805 362.902 66.3941Z" fill="#263238"/>
<path d="M343.778 85.7959C338.632 85.7929 333.699 83.7479 330.06 80.1102C326.421 76.4725 324.375 71.5393 324.37 66.3941C324.37 62.557 325.508 58.8061 327.64 55.6156C329.771 52.4251 332.801 49.9383 336.346 48.4696C339.891 47.001 343.792 46.6164 347.555 47.3646C351.318 48.1127 354.775 49.96 357.489 52.6728C360.203 55.3856 362.051 58.8422 362.8 62.6054C363.55 66.3686 363.166 70.2695 361.699 73.8148C360.231 77.3601 357.745 80.3907 354.555 82.5233C351.365 84.6559 347.615 85.7948 343.778 85.7959ZM343.778 47.5647C339.862 47.5639 336.044 48.7841 332.855 51.0553C329.666 53.3265 327.264 56.5357 325.984 60.236C324.704 63.9364 324.61 67.9437 325.715 71.7C326.82 75.4562 329.069 78.7745 332.148 81.1927C335.452 83.8243 339.554 85.252 343.778 85.2408C348.714 85.1542 353.418 83.1327 356.878 79.6115C360.338 76.0902 362.277 71.351 362.277 66.4143C362.277 61.4776 360.338 56.7383 356.878 53.2171C353.418 49.6959 348.714 47.6744 343.778 47.5878V47.5647Z" fill="#263238"/>
<path d="M351.758 63.3985C351.757 61.8204 351.288 60.278 350.41 58.9664C349.532 57.6548 348.286 56.6328 346.827 56.0297C345.369 55.4265 343.765 55.2693 342.217 55.5779C340.669 55.8865 339.248 56.647 338.132 57.7633C337.017 58.8796 336.257 60.3016 335.95 61.8495C335.642 63.3974 335.801 65.0018 336.405 66.4597C337.009 67.9176 338.032 69.1636 339.344 70.0403C340.656 70.9169 342.199 71.3848 343.777 71.3848C344.826 71.3848 345.864 71.1782 346.833 70.7768C347.801 70.3754 348.681 69.787 349.422 69.0453C350.164 68.3037 350.751 67.4232 351.152 66.4543C351.553 65.4854 351.759 64.447 351.758 63.3985Z" fill="white"/>
<path d="M343.778 71.6739C342.141 71.6751 340.54 71.1907 339.179 70.2821C337.817 69.3734 336.755 68.0814 336.128 66.5694C335.501 65.0573 335.336 63.3932 335.655 61.7876C335.974 60.1819 336.761 58.7068 337.918 57.5489C339.075 56.391 340.55 55.6023 342.155 55.2825C343.761 54.9627 345.425 55.1262 346.938 55.7524C348.45 56.3786 349.743 57.4393 350.652 58.8003C351.562 60.1613 352.047 61.7615 352.047 63.3985C352.046 65.5918 351.174 67.6949 349.624 69.2464C348.074 70.7978 345.971 71.6708 343.778 71.6739ZM343.778 55.7071C342.255 55.706 340.766 56.1566 339.499 57.0019C338.233 57.8473 337.245 59.0493 336.662 60.456C336.079 61.8627 335.926 63.4108 336.222 64.9045C336.519 66.3981 337.253 67.7701 338.329 68.847C339.406 69.9238 340.778 70.657 342.272 70.9538C343.765 71.2506 345.314 71.0977 346.72 70.5144C348.127 69.9311 349.329 68.9436 350.174 67.677C351.02 66.4103 351.47 64.9213 351.469 63.3985C351.468 61.3591 350.657 59.4036 349.215 57.9616C347.773 56.5195 345.817 55.7087 343.778 55.7071Z" fill="#263238"/>
<path d="M355.581 81.4186C352.216 84.0681 348.058 85.5087 343.775 85.5087C339.492 85.5087 335.334 84.0681 331.969 81.4186C332.559 78.7268 334.052 76.3175 336.199 74.5901C338.346 72.8627 341.019 71.9209 343.775 71.9209C346.531 71.9209 349.204 72.8627 351.351 74.5901C353.498 76.3175 354.991 78.7268 355.581 81.4186Z" fill="white"/>
<path d="M343.778 85.7956C339.426 85.8155 335.197 84.3508 331.79 81.6434C331.747 81.6108 331.715 81.5669 331.697 81.5168C331.678 81.4666 331.674 81.4123 331.685 81.3601C332.289 78.6029 333.817 76.1348 336.016 74.3652C338.215 72.5957 340.952 71.6309 343.775 71.6309C346.597 71.6309 349.335 72.5957 351.534 74.3652C353.733 76.1348 355.26 78.6029 355.864 81.3601C355.875 81.4123 355.871 81.4666 355.853 81.5168C355.834 81.5669 355.802 81.6108 355.76 81.6434C352.345 84.3322 348.124 85.7945 343.778 85.7956ZM332.293 81.3022C335.574 83.8573 339.619 85.2361 343.778 85.2173C347.931 85.2162 351.968 83.8395 355.257 81.3022C354.647 78.7154 353.181 76.4104 351.097 74.7608C349.013 73.1112 346.433 72.2137 343.775 72.2137C341.117 72.2137 338.537 73.1112 336.453 74.7608C334.369 76.4104 332.903 78.7154 332.293 81.3022Z" fill="#263238"/>
<path d="M383.743 119.891C383.743 124.59 382.35 129.183 379.739 133.089C377.129 136.996 373.418 140.041 369.077 141.839C364.736 143.636 359.959 144.106 355.351 143.189C350.743 142.272 346.51 140.009 343.188 136.686C339.866 133.363 337.604 129.13 336.688 124.521C335.773 119.913 336.244 115.136 338.043 110.795C339.842 106.455 342.888 102.745 346.796 100.136C350.703 97.5266 355.297 96.1346 359.995 96.136C363.118 96.1217 366.214 96.7265 369.102 97.9153C371.99 99.1041 374.614 100.853 376.822 103.062C379.03 105.271 380.779 107.896 381.967 110.784C383.155 113.673 383.758 116.768 383.743 119.891Z" fill="#50BFD7"/>
<path d="M359.981 143.998C353.588 143.994 347.458 141.453 342.936 136.933C338.415 132.413 335.872 126.284 335.867 119.89C335.867 115.123 337.28 110.462 339.929 106.498C342.578 102.534 346.342 99.4438 350.747 97.619C355.151 95.7941 359.998 95.3163 364.674 96.2459C369.35 97.1755 373.646 99.4708 377.018 102.842C380.389 106.212 382.686 110.507 383.617 115.183C384.548 119.859 384.072 124.706 382.248 129.111C380.425 133.516 377.336 137.282 373.372 139.931C369.409 142.581 364.749 143.996 359.981 143.998ZM359.981 96.4946C355.116 96.4936 350.372 98.0096 346.409 100.832C342.446 103.654 339.462 107.641 337.872 112.239C336.282 116.837 336.165 121.816 337.538 126.483C338.911 131.15 341.705 135.273 345.531 138.278C349.636 141.548 354.733 143.322 359.981 143.308C366.114 143.2 371.96 140.689 376.259 136.313C380.558 131.938 382.967 126.05 382.967 119.916C382.967 113.782 380.558 107.893 376.259 103.518C371.96 99.1426 366.114 96.6308 359.981 96.5233V96.4946Z" fill="#50BFD7"/>
<path d="M369.897 116.169C369.895 114.208 369.313 112.291 368.222 110.661C367.132 109.032 365.583 107.762 363.771 107.013C361.959 106.263 359.965 106.068 358.042 106.451C356.119 106.835 354.353 107.78 352.967 109.167C351.581 110.554 350.637 112.321 350.255 114.244C349.873 116.167 350.07 118.161 350.82 119.972C351.571 121.783 352.842 123.332 354.473 124.421C356.103 125.51 358.02 126.092 359.981 126.092C361.284 126.092 362.574 125.835 363.777 125.336C364.981 124.837 366.074 124.106 366.995 123.185C367.916 122.263 368.646 121.169 369.144 119.965C369.642 118.761 369.898 117.471 369.897 116.169Z" fill="white"/>
<path d="M359.981 126.451C357.947 126.452 355.959 125.85 354.267 124.721C352.575 123.592 351.256 121.987 350.477 120.108C349.697 118.229 349.493 116.162 349.889 114.167C350.285 112.171 351.263 110.339 352.701 108.9C354.139 107.461 355.971 106.481 357.966 106.084C359.96 105.687 362.028 105.89 363.908 106.668C365.787 107.446 367.393 108.764 368.523 110.455C369.653 112.146 370.257 114.134 370.257 116.168C370.255 118.893 369.172 121.507 367.245 123.434C365.319 125.362 362.707 126.447 359.981 126.451ZM359.981 106.611C358.089 106.61 356.239 107.17 354.665 108.22C353.092 109.271 351.865 110.764 351.14 112.512C350.415 114.26 350.225 116.183 350.594 118.039C350.963 119.895 351.874 121.6 353.212 122.938C354.55 124.276 356.254 125.187 358.11 125.556C359.966 125.925 361.89 125.735 363.638 125.01C365.385 124.285 366.879 123.058 367.929 121.484C368.98 119.91 369.54 118.06 369.538 116.168C369.536 113.634 368.529 111.204 366.737 109.413C364.945 107.621 362.515 106.613 359.981 106.611Z" fill="#50BFD7"/>
<path d="M374.647 138.558C370.466 141.85 365.299 143.64 359.978 143.64C354.656 143.64 349.49 141.85 345.309 138.558C346.042 135.213 347.896 132.22 350.564 130.073C353.232 127.927 356.554 126.757 359.978 126.757C363.402 126.757 366.723 127.927 369.391 130.073C372.059 132.22 373.913 135.213 374.647 138.558Z" fill="white"/>
<path d="M359.981 143.997C354.574 144.022 349.32 142.202 345.086 138.838C345.033 138.798 344.993 138.743 344.97 138.681C344.947 138.619 344.943 138.551 344.956 138.486C345.706 135.06 347.605 131.994 350.337 129.795C353.069 127.596 356.471 126.397 359.978 126.397C363.485 126.397 366.886 127.596 369.618 129.795C372.35 131.994 374.249 135.06 374.999 138.486C375.013 138.551 375.008 138.619 374.985 138.681C374.962 138.743 374.922 138.798 374.869 138.838C370.626 142.179 365.382 143.996 359.981 143.997ZM345.711 138.414C349.788 141.589 354.814 143.302 359.981 143.279C365.142 143.278 370.158 141.567 374.244 138.414C373.486 135.2 371.665 132.336 369.075 130.286C366.486 128.237 363.28 127.122 359.978 127.122C356.675 127.122 353.469 128.237 350.88 130.286C348.291 132.336 346.469 135.2 345.711 138.414Z" fill="#50BFD7"/>
<path d="M127.47 211.047C142.397 211.047 154.498 198.947 154.498 184.02C154.498 169.093 142.397 156.992 127.47 156.992C112.543 156.992 100.442 169.093 100.442 184.02C100.442 198.947 112.543 211.047 127.47 211.047Z" fill="#50BFD7"/>
<path fill-rule="evenodd" clip-rule="evenodd" d="M125.243 186.247V199.21H129.697V186.247H142.66V181.793H129.697V168.801H125.243V181.793H112.251V186.247H125.243Z" fill="white"/>
<path opacity="0.3" fill-rule="evenodd" clip-rule="evenodd" d="M102.971 284.807C102.971 284.357 103.336 283.992 103.786 283.992H157.184C157.634 283.992 157.999 284.357 157.999 284.807V337.227C157.999 337.678 157.634 338.043 157.184 338.043H103.786C103.336 338.043 102.971 337.678 102.971 337.227V284.807ZM104.601 285.623V336.412H156.369V285.623H104.601Z" fill="#454545"/>
<path opacity="0.3" fill-rule="evenodd" clip-rule="evenodd" d="M133.39 288.766C132.137 288.869 131.207 289.111 130.706 289.417L130.602 289.48L130.484 289.51L130.478 289.512L130.456 289.517L130.366 289.542C130.286 289.564 130.166 289.597 130.013 289.641C129.706 289.73 129.265 289.864 128.733 290.042C127.667 290.399 126.247 290.931 124.816 291.63C123.38 292.332 121.968 293.186 120.894 294.176C119.817 295.17 119.151 296.234 119.043 297.358L119.042 297.371L119.041 297.384C118.697 300.065 118.697 302.779 119.041 305.46L119.145 306.278L118.339 306.372C118.334 306.373 118.327 306.374 118.317 306.376C118.288 306.383 118.24 306.397 118.181 306.421C118.061 306.469 117.913 306.554 117.784 306.703C117.563 306.958 117.202 307.639 117.695 309.349L117.699 309.362L117.702 309.376C118.191 311.324 119.312 313.055 120.889 314.298L121.085 314.453L122.861 319.996L121.855 324.102H119.163L119.651 329.085L118.957 329.249L118.919 329.258L118.807 329.285C118.708 329.308 118.562 329.344 118.376 329.389C118.003 329.481 117.468 329.614 116.822 329.78C115.53 330.113 113.794 330.578 112.019 331.109C110.24 331.642 108.439 332.234 107.007 332.821C106.29 333.115 105.685 333.399 105.228 333.665C104.916 333.846 104.718 333.994 104.601 334.101V336.412H156.369V335.815L155.711 335.228L155.695 335.211C155.512 335.028 155.136 334.767 154.547 334.443C153.975 334.129 153.258 333.785 152.441 333.426C150.808 332.708 148.82 331.944 146.887 331.244C144.956 330.544 143.091 329.91 141.707 329.452C141.016 329.223 140.445 329.037 140.048 328.909C139.849 328.845 139.694 328.796 139.588 328.762L139.468 328.724L139.428 328.711L138.912 328.549L138.642 325.689L135.749 325.159L134.726 318.899L135.527 318.765L135.535 318.764L135.568 318.758C135.598 318.752 135.645 318.743 135.707 318.731C135.83 318.705 136.011 318.665 136.235 318.608C136.684 318.494 137.297 318.313 137.956 318.045C139.307 317.497 140.695 316.65 141.372 315.425C141.497 315.198 141.605 314.815 141.658 314.248C141.711 313.694 141.706 313.026 141.655 312.276C141.551 310.777 141.264 309.026 140.92 307.343C140.578 305.663 140.184 304.072 139.876 302.9C139.722 302.314 139.589 301.834 139.496 301.501C139.449 301.334 139.411 301.205 139.386 301.117L139.357 301.017L139.35 300.993L139.348 300.987L139.348 300.985L139.246 300.643L139.428 300.337L139.433 300.329L139.452 300.297C139.469 300.267 139.494 300.222 139.527 300.162C139.593 300.042 139.686 299.865 139.794 299.644C140.011 299.199 140.281 298.584 140.503 297.895C140.966 296.453 141.124 294.963 140.509 293.955L137.573 289.139L139.888 290.104L139.892 290.106L139.906 290.111L139.961 290.134C140.01 290.154 140.082 290.183 140.173 290.219C140.356 290.291 140.616 290.392 140.922 290.504C141.538 290.729 142.319 290.992 143.022 291.165C143.31 291.236 143.57 291.288 143.793 291.318C143.389 290.781 142.583 290.257 141.428 289.817C140.281 289.381 138.893 289.065 137.467 288.885C136.044 288.706 134.613 288.666 133.39 288.766ZM141.483 292.42C141.86 292.54 142.253 292.655 142.633 292.749C143.026 292.845 143.426 292.924 143.789 292.958C144.126 292.989 144.541 292.995 144.903 292.856C145.098 292.78 145.32 292.647 145.484 292.412C145.652 292.169 145.704 291.896 145.688 291.645C145.658 291.2 145.41 290.765 145.124 290.374C144.447 289.451 143.281 288.778 142.008 288.293C140.711 287.8 139.189 287.459 137.671 287.268C136.152 287.076 134.607 287.031 133.256 287.141C131.991 287.245 130.798 287.493 129.965 287.961L129.938 287.969C129.849 287.993 129.721 288.028 129.558 288.075C129.233 288.17 128.771 288.31 128.215 288.496C127.106 288.868 125.615 289.425 124.1 290.165C122.592 290.902 121.025 291.837 119.789 292.978C118.56 294.111 117.587 295.515 117.422 297.189C117.09 299.786 117.065 302.411 117.346 305.012C117.094 305.142 116.809 305.338 116.552 305.635C115.845 306.45 115.546 307.77 116.124 309.787C116.682 311.997 117.929 313.969 119.682 315.42L121.168 320.055L120.576 322.472H117.366L117.89 327.83C117.519 327.921 117.014 328.047 116.416 328.201C115.111 328.537 113.354 329.008 111.552 329.547C109.754 330.085 107.894 330.696 106.389 331.312C105.638 331.62 104.956 331.937 104.408 332.256C103.891 332.556 103.379 332.922 103.097 333.367L102.971 333.567V338.043H157.999V335.085L156.83 334.041C156.474 333.692 155.935 333.346 155.333 333.015C154.703 332.668 153.938 332.303 153.098 331.934C151.417 331.194 149.39 330.416 147.443 329.711C145.493 329.004 143.612 328.366 142.22 327.904C141.524 327.673 140.949 327.487 140.548 327.357C140.508 327.345 140.47 327.332 140.434 327.321L140.149 324.308L137.173 323.762L136.591 320.2C136.606 320.196 136.622 320.192 136.638 320.188C137.138 320.061 137.825 319.858 138.569 319.556C140.022 318.967 141.846 317.939 142.799 316.213C143.082 315.702 143.219 315.061 143.282 314.401C143.345 313.728 143.337 312.965 143.281 312.164C143.171 310.562 142.867 308.731 142.518 307.017C142.167 305.298 141.766 303.676 141.453 302.485C141.296 301.889 141.161 301.4 141.065 301.059C141.044 300.983 141.024 300.914 141.007 300.853C141.077 300.723 141.163 300.556 141.26 300.358C141.499 299.866 141.803 299.177 142.055 298.394C142.537 296.893 142.917 294.772 141.901 293.106L141.483 292.42Z" fill="#454545"/>
<path d="M333.412 321.015L344.735 429.492" stroke="#263238" stroke-width="2" stroke-miterlimit="10"/>
<path d="M342.909 408.736L337.778 403.315" stroke="#263238" stroke-width="2" stroke-miterlimit="10"/>
<path d="M339.335 404.936C339.325 404.106 339.138 403.289 338.785 402.538C338.432 401.787 337.922 401.121 337.29 400.584C335.973 399.409 329.038 396.493 328.38 398.935C327.665 401.589 334.763 406.832 339.335 404.936Z" fill="#50BFD7" stroke="#263238" stroke-miterlimit="10"/>
<path d="M339.335 404.936L332.732 400.824" stroke="#263238" stroke-width="0.5" stroke-miterlimit="10"/>
<path d="M344.197 421.07L339.059 415.649" stroke="#263238" stroke-width="2" stroke-miterlimit="10"/>
<path d="M340.623 417.27C340.613 416.44 340.426 415.623 340.073 414.872C339.72 414.121 339.21 413.455 338.578 412.918C337.262 411.743 330.327 408.827 329.669 411.269C328.954 413.908 336.052 419.138 340.623 417.27Z" fill="#50BFD7" stroke="#263238" stroke-miterlimit="10"/>
<path d="M340.623 417.271L334.021 413.159" stroke="#263238" stroke-width="0.5" stroke-miterlimit="10"/>
<path d="M339.767 378.632L334.636 373.211" stroke="#263238" stroke-width="2" stroke-miterlimit="10"/>
<path d="M336.193 374.832C336.183 374.003 335.996 373.185 335.643 372.434C335.29 371.683 334.78 371.017 334.148 370.48C332.831 369.306 325.896 366.39 325.238 368.831C324.538 371.485 331.614 376.701 336.193 374.832Z" fill="#50BFD7" stroke="#263238" stroke-miterlimit="10"/>
<path d="M336.193 374.832L329.59 370.721" stroke="#263238" stroke-width="0.5" stroke-miterlimit="10"/>
<path d="M341.055 390.967L335.924 385.546" stroke="#263238" stroke-width="2" stroke-miterlimit="10"/>
<path d="M337.481 387.166C337.471 386.337 337.283 385.519 336.931 384.768C336.578 384.018 336.068 383.351 335.436 382.814C334.12 381.64 327.185 378.724 326.527 381.165C325.812 383.819 332.91 389.035 337.481 387.166Z" fill="#50BFD7" stroke="#263238" stroke-miterlimit="10"/>
<path d="M337.481 387.166L330.878 383.055" stroke="#263238" stroke-width="0.5" stroke-miterlimit="10"/>
<path d="M337.672 358.592L332.542 353.171" stroke="#263238" stroke-width="2" stroke-miterlimit="10"/>
<path d="M334.099 354.791C334.089 353.962 333.903 353.145 333.551 352.394C333.2 351.643 332.691 350.977 332.06 350.439C330.744 349.264 323.83 346.349 323.123 348.804C322.415 351.444 329.534 356.659 334.099 354.791Z" fill="#50BFD7" stroke="#263238" stroke-miterlimit="10"/>
<path d="M334.098 354.791L327.503 350.68" stroke="#263238" stroke-width="0.5" stroke-miterlimit="10"/>
<path d="M335.57 338.466L330.44 333.045" stroke="#263238" stroke-width="2" stroke-miterlimit="10"/>
<path d="M332.004 334.652C331.992 333.822 331.804 333.005 331.451 332.255C331.099 331.504 330.59 330.837 329.959 330.299C328.642 329.125 321.707 326.202 321.049 328.644C320.334 331.318 327.432 336.534 332.004 334.652Z" fill="#50BFD7" stroke="#263238" stroke-miterlimit="10"/>
<path d="M332.004 334.665L325.401 330.554" stroke="#263238" stroke-width="0.5" stroke-miterlimit="10"/>
<path d="M342.045 401.433L345.945 395.071" stroke="#263238" stroke-width="2" stroke-miterlimit="10"/>
<path d="M344.756 396.981C344.595 396.168 344.61 395.33 344.801 394.523C344.991 393.716 345.352 392.959 345.86 392.304C346.9 390.888 353.085 386.593 354.231 388.843C355.477 391.299 349.61 397.866 344.756 396.981Z" fill="#50BFD7" stroke="#263238" stroke-miterlimit="10"/>
<path d="M344.756 396.981L350.7 391.299" stroke="#263238" stroke-width="0.5" stroke-miterlimit="10"/>
<path d="M338.656 368.972L342.562 362.604" stroke="#263238" stroke-width="2" stroke-miterlimit="10"/>
<path d="M341.366 364.514C341.205 363.701 341.221 362.862 341.411 362.055C341.601 361.249 341.963 360.492 342.47 359.836C343.517 358.421 349.695 354.125 350.842 356.383C352.094 358.831 346.228 365.398 341.366 364.514Z" fill="#50BFD7" stroke="#263238" stroke-miterlimit="10"/>
<path d="M341.366 364.514L347.311 358.839" stroke="#263238" stroke-width="0.5" stroke-miterlimit="10"/>
<path d="M337.169 354.706L341.069 348.337" stroke="#263238" stroke-width="2" stroke-miterlimit="10"/>
<path d="M339.88 350.22C339.719 349.407 339.734 348.569 339.923 347.763C340.112 346.956 340.472 346.199 340.977 345.542C342.024 344.127 348.209 339.831 349.356 342.089C350.601 344.559 344.735 351.133 339.88 350.22Z" fill="#50BFD7" stroke="#263238" stroke-miterlimit="10"/>
<path d="M339.88 350.248L345.824 344.572" stroke="#263238" stroke-width="0.5" stroke-miterlimit="10"/>
<path d="M334.983 333.788L338.889 327.426" stroke="#263238" stroke-width="2" stroke-miterlimit="10"/>
<path d="M337.693 329.337C337.533 328.522 337.548 327.683 337.739 326.875C337.929 326.067 338.29 325.309 338.797 324.652C339.845 323.237 346.023 318.948 347.169 321.198C348.421 323.647 342.555 330.221 337.693 329.337Z" fill="#50BFD7" stroke="#263238" stroke-miterlimit="10"/>
<path d="M337.693 329.337L343.638 323.654" stroke="#263238" stroke-width="0.5" stroke-miterlimit="10"/>
<path d="M333.313 320.413C333.152 319.6 333.167 318.762 333.358 317.955C333.548 317.148 333.909 316.391 334.417 315.736C335.464 314.32 341.642 310.025 342.788 312.282C344.041 314.731 338.174 321.298 333.313 320.413Z" fill="#50BFD7" stroke="#263238" stroke-miterlimit="10"/>
<path d="M333.313 320.413L339.257 314.737" stroke="#263238" stroke-width="0.5" stroke-miterlimit="10"/>
<path d="M333.659 320.661C332.834 320.735 332.002 320.632 331.22 320.359C330.438 320.085 329.723 319.648 329.123 319.076C327.814 317.887 324.17 311.291 326.562 310.386C329.13 309.402 335.046 315.92 333.659 320.661Z" fill="#50BFD7" stroke="#263238" stroke-miterlimit="10"/>
<path d="M333.66 320.661L328.635 314.157" stroke="#263238" stroke-width="0.5" stroke-miterlimit="10"/>
<path d="M363.268 335.953L352.009 444.438" stroke="#263238" stroke-width="2" stroke-miterlimit="10"/>
<path d="M354.5 423.745L350.594 417.391" stroke="#263238" stroke-width="2" stroke-miterlimit="10"/>
<path d="M351.79 419.295C351.956 418.484 351.946 417.647 351.762 416.84C351.577 416.033 351.223 415.275 350.721 414.617C349.674 413.202 343.489 408.913 342.343 411.171C341.062 413.619 346.928 420.186 351.79 419.295Z" fill="#50BFD7" stroke="#263238" stroke-miterlimit="10"/>
<path d="M351.79 419.294L346.178 413.916" stroke="#263238" stroke-width="0.5" stroke-miterlimit="10"/>
<path d="M357.628 393.642L353.722 387.28" stroke="#263238" stroke-width="2" stroke-miterlimit="10"/>
<path d="M354.91 389.191C355.071 388.378 355.056 387.539 354.865 386.732C354.675 385.926 354.314 385.169 353.806 384.513C352.759 383.098 346.574 378.809 345.428 381.06C344.182 383.515 350.056 390.075 354.91 389.191Z" fill="#50BFD7" stroke="#263238" stroke-miterlimit="10"/>
<path d="M354.911 389.19L349.299 383.805" stroke="#263238" stroke-width="0.5" stroke-miterlimit="10"/>
<path d="M356.347 405.983L352.441 399.621" stroke="#263238" stroke-width="2" stroke-miterlimit="10"/>
<path d="M353.63 401.532C353.791 400.718 353.776 399.878 353.585 399.07C353.395 398.262 353.034 397.504 352.526 396.848C351.479 395.432 345.301 391.144 344.154 393.401C342.937 395.85 348.775 402.417 353.63 401.532Z" fill="#50BFD7" stroke="#263238" stroke-miterlimit="10"/>
<path d="M353.63 401.532L348.018 396.146" stroke="#263238" stroke-width="0.5" stroke-miterlimit="10"/>
<path d="M359.709 373.6L355.802 367.238" stroke="#263238" stroke-width="2" stroke-miterlimit="10"/>
<path d="M356.991 369.15C357.152 368.337 357.137 367.498 356.946 366.691C356.756 365.884 356.395 365.128 355.887 364.472C354.84 363.057 348.655 358.768 347.509 361.019C346.263 363.474 352.137 370.034 356.991 369.15Z" fill="#50BFD7" stroke="#263238" stroke-miterlimit="10"/>
<path d="M356.991 369.15L351.379 363.765" stroke="#263238" stroke-width="0.5" stroke-miterlimit="10"/>
<path d="M361.796 353.475L357.89 347.113" stroke="#263238" stroke-width="2" stroke-miterlimit="10"/>
<path d="M359.079 349.023C359.24 348.209 359.225 347.37 359.034 346.562C358.844 345.753 358.483 344.996 357.975 344.339C356.928 342.923 350.743 338.635 349.596 340.892C348.351 343.341 354.26 349.908 359.079 349.023Z" fill="#50BFD7" stroke="#263238" stroke-miterlimit="10"/>
<path d="M359.079 349.023L353.467 343.638" stroke="#263238" stroke-width="0.5" stroke-miterlimit="10"/>
<path d="M355.158 416.428L360.289 411.008" stroke="#263238" stroke-width="2" stroke-miterlimit="10"/>
<path d="M358.732 412.628C358.737 411.795 358.922 410.972 359.273 410.216C359.625 409.46 360.136 408.789 360.77 408.248C362.086 407.066 369.021 404.151 369.679 406.592C370.394 409.274 363.303 414.497 358.732 412.628Z" fill="#50BFD7" stroke="#263238" stroke-miterlimit="10"/>
<path d="M358.732 412.628L365.717 408.297" stroke="#263238" stroke-width="0.5" stroke-miterlimit="10"/>
<path d="M358.527 383.961L363.657 378.54" stroke="#263238" stroke-width="2" stroke-miterlimit="10"/>
<path d="M362.101 380.16C362.11 379.331 362.296 378.514 362.648 377.763C362.999 377.013 363.508 376.346 364.139 375.808C365.455 374.634 372.39 371.711 373.048 374.152C373.763 376.806 366.672 382.064 362.101 380.16Z" fill="#50BFD7" stroke="#263238" stroke-miterlimit="10"/>
<path d="M362.101 380.161L369.085 375.83" stroke="#263238" stroke-width="0.5" stroke-miterlimit="10"/>
<path d="M360.013 369.694L365.137 364.267" stroke="#263238" stroke-width="2" stroke-miterlimit="10"/>
<path d="M363.58 365.894C363.589 365.065 363.775 364.248 364.127 363.497C364.478 362.746 364.987 362.08 365.618 361.542C366.934 360.36 373.869 357.445 374.527 359.886C375.242 362.54 368.151 367.762 363.58 365.894Z" fill="#50BFD7" stroke="#263238" stroke-miterlimit="10"/>
<path d="M363.58 365.894L370.564 361.563" stroke="#263238" stroke-width="0.5" stroke-miterlimit="10"/>
<path d="M362.178 348.776L367.309 343.355" stroke="#263238" stroke-width="2" stroke-miterlimit="10"/>
<path d="M365.752 344.976C365.762 344.147 365.948 343.33 366.3 342.579C366.651 341.828 367.16 341.162 367.79 340.624C369.106 339.449 376.041 336.526 376.699 338.968C377.414 341.621 370.323 346.844 365.752 344.976Z" fill="#50BFD7" stroke="#263238" stroke-miterlimit="10"/>
<path d="M365.752 344.975L372.737 340.645" stroke="#263238" stroke-width="0.5" stroke-miterlimit="10"/>
<path d="M363.304 335.359C363.313 334.53 363.5 333.713 363.852 332.962C364.203 332.211 364.711 331.545 365.342 331.006C366.658 329.832 373.586 326.909 374.251 329.351C374.966 331.99 367.875 337.213 363.304 335.359Z" fill="#50BFD7" stroke="#263238" stroke-miterlimit="10"/>
<path d="M363.304 335.345L370.288 331.014" stroke="#263238" stroke-width="0.5" stroke-miterlimit="10"/>
<path d="M363.587 335.656C362.763 335.561 361.968 335.29 361.258 334.861C360.547 334.433 359.937 333.857 359.468 333.172C358.435 331.757 356.263 324.538 358.761 324.142C361.471 323.703 365.922 331.311 363.587 335.656Z" fill="#50BFD7" stroke="#263238" stroke-miterlimit="10"/>
<path d="M363.587 335.656L360.006 328.254" stroke="#263238" stroke-width="0.5" stroke-miterlimit="10"/>
<path d="M350.368 291.781V428.968" stroke="#263238" stroke-width="2" stroke-miterlimit="10"/>
<path d="M350.481 408.339L345.938 402.416" stroke="#263238" stroke-width="2" stroke-miterlimit="10"/>
<path d="M347.317 404.193C347.394 403.367 347.293 402.534 347.021 401.75C346.748 400.967 346.311 400.251 345.739 399.65C344.55 398.341 337.955 394.696 337.049 397.081C336.066 399.65 342.583 405.573 347.317 404.193Z" fill="#50BFD7" stroke="#263238" stroke-miterlimit="10"/>
<path d="M347.317 404.193L341.182 399.416" stroke="#263238" stroke-width="0.5" stroke-miterlimit="10"/>
<path d="M350.481 382.56L345.938 376.637" stroke="#263238" stroke-width="2" stroke-miterlimit="10"/>
<path d="M347.317 378.413C347.394 377.587 347.293 376.754 347.021 375.97C346.748 375.187 346.311 374.47 345.739 373.87C344.55 372.56 337.955 368.916 337.049 371.301C336.066 373.87 342.583 379.793 347.317 378.413Z" fill="#50BFD7" stroke="#263238" stroke-miterlimit="10"/>
<path d="M347.317 378.412L341.182 373.636" stroke="#263238" stroke-width="0.5" stroke-miterlimit="10"/>
<path d="M350.481 352.293L345.938 346.37" stroke="#263238" stroke-width="2" stroke-miterlimit="10"/>
<path d="M347.317 348.146C347.394 347.32 347.293 346.487 347.021 345.704C346.748 344.92 346.311 344.204 345.739 343.603C344.55 342.294 337.955 338.649 337.049 341.034C336.066 343.603 342.583 349.512 347.317 348.146Z" fill="#50BFD7" stroke="#263238" stroke-miterlimit="10"/>
<path d="M347.317 348.146L341.182 343.369" stroke="#263238" stroke-width="0.5" stroke-miterlimit="10"/>
<path d="M350.481 332.139L345.938 326.216" stroke="#263238" stroke-width="2" stroke-miterlimit="10"/>
<path d="M347.317 327.992C347.394 327.167 347.293 326.335 347.02 325.552C346.748 324.77 346.311 324.055 345.739 323.455C344.55 322.146 337.955 318.502 337.049 320.887C336.066 323.455 342.583 329.379 347.317 327.992Z" fill="#50BFD7" stroke="#263238" stroke-miterlimit="10"/>
<path d="M347.317 327.992L341.182 323.223" stroke="#263238" stroke-width="0.5" stroke-miterlimit="10"/>
<path d="M350.481 311.907L345.938 305.983" stroke="#263238" stroke-width="2" stroke-miterlimit="10"/>
<path d="M347.317 307.759C347.394 306.933 347.293 306.101 347.021 305.317C346.748 304.533 346.311 303.817 345.739 303.216C344.55 301.907 337.955 298.263 337.049 300.647C336.066 303.216 342.583 309.175 347.317 307.759Z" fill="#50BFD7" stroke="#263238" stroke-miterlimit="10"/>
<path d="M347.317 307.76L341.182 302.983" stroke="#263238" stroke-width="0.5" stroke-miterlimit="10"/>
<path d="M350.381 416.209L354.917 410.286" stroke="#263238" stroke-width="2" stroke-miterlimit="10"/>
<path d="M353.552 412.062C353.476 411.236 353.577 410.403 353.849 409.619C354.121 408.836 354.558 408.12 355.13 407.519C356.319 406.217 362.914 402.565 363.82 404.957C364.797 407.54 358.279 413.449 353.552 412.062Z" fill="#50BFD7" stroke="#263238" stroke-miterlimit="10"/>
<path d="M353.538 412.062L360.041 407.03" stroke="#263238" stroke-width="0.5" stroke-miterlimit="10"/>
<path d="M350.381 375.207L354.917 369.284" stroke="#263238" stroke-width="2" stroke-miterlimit="10"/>
<path d="M353.552 371.06C353.476 370.234 353.577 369.401 353.849 368.617C354.121 367.834 354.558 367.118 355.13 366.517C356.319 365.215 362.914 361.563 363.82 363.955C364.797 366.496 358.279 372.447 353.552 371.06Z" fill="#50BFD7" stroke="#263238" stroke-miterlimit="10"/>
<path d="M353.538 371.06L360.041 366.028" stroke="#263238" stroke-width="0.5" stroke-miterlimit="10"/>
<path d="M350.381 354.975L354.917 349.045" stroke="#263238" stroke-width="2" stroke-miterlimit="10"/>
<path d="M353.552 350.829C353.476 350.003 353.577 349.17 353.849 348.386C354.121 347.603 354.558 346.886 355.13 346.286C356.319 344.976 362.914 341.332 363.82 343.717C364.797 346.286 358.279 352.209 353.552 350.829Z" fill="#50BFD7" stroke="#263238" stroke-miterlimit="10"/>
<path d="M353.538 350.828L360.041 345.789" stroke="#263238" stroke-width="0.5" stroke-miterlimit="10"/>
<path d="M350.381 328.226L354.917 322.303" stroke="#263238" stroke-width="2" stroke-miterlimit="10"/>
<path d="M353.552 324.079C353.476 323.253 353.577 322.42 353.849 321.636C354.121 320.853 354.558 320.136 355.13 319.536C356.319 318.226 362.914 314.582 363.82 316.967C364.797 319.536 358.279 325.452 353.552 324.079Z" fill="#50BFD7" stroke="#263238" stroke-miterlimit="10"/>
<path d="M353.538 324.078L360.041 319.047" stroke="#263238" stroke-width="0.5" stroke-miterlimit="10"/>
<path d="M350.381 307.194L354.917 301.271" stroke="#263238" stroke-width="2" stroke-miterlimit="10"/>
<path d="M353.552 303.046C353.476 302.22 353.577 301.387 353.849 300.604C354.121 299.82 354.558 299.104 355.13 298.503C356.319 297.201 362.914 293.55 363.82 295.941C364.797 298.503 358.279 304.426 353.552 303.046Z" fill="#50BFD7" stroke="#263238" stroke-miterlimit="10"/>
<path d="M353.538 303.047L360.041 298.016" stroke="#263238" stroke-width="0.5" stroke-miterlimit="10"/>
<path d="M350.106 293.72C350.029 292.894 350.131 292.061 350.403 291.278C350.675 290.494 351.112 289.778 351.684 289.177C352.873 287.875 359.468 284.223 360.374 286.615C361.336 289.177 354.847 295.107 350.106 293.72Z" fill="#50BFD7" stroke="#263238" stroke-miterlimit="10"/>
<path d="M350.105 293.72L356.609 288.688" stroke="#263238" stroke-width="0.5" stroke-miterlimit="10"/>
<path d="M350.424 294.003C349.594 293.991 348.776 293.802 348.026 293.448C347.275 293.094 346.609 292.583 346.072 291.951C344.897 290.635 341.989 283.699 344.43 283.041C347.084 282.334 352.292 289.431 350.424 294.003Z" fill="#50BFD7" stroke="#263238" stroke-miterlimit="10"/>
<path d="M350.424 294.002L346.1 287.011" stroke="#263238" stroke-width="0.5" stroke-miterlimit="10"/>
<path d="M356.014 464.542H341.486L339.667 427.85H357.826L356.014 464.542Z" fill="#263238" stroke="#263238" stroke-miterlimit="10"/>
<path d="M192.027 89.458C189.753 98.8365 194.869 132.94 203.252 145.842C203.252 145.842 227.551 161.615 303.445 152.663C303.445 152.663 291.168 148.741 302.664 103.767C302.905 102.801 303.161 101.835 303.431 100.826C304.994 94.9998 293.555 85.0104 291.495 81.5006C276.646 56.3066 192.027 89.458 192.027 89.458Z" fill="#2C2C2C"/>
<path d="M148.901 223.044C148.901 223.044 144.723 222.135 143.117 220.074C141.497 218.014 140.545 217.104 134.89 214.646C129.277 212.188 127.046 209.005 127.046 209.005C127.046 209.005 123.124 212.6 131.735 216.721C137.007 219.25 119.686 218.881 114.471 218.298C114.471 218.298 111.458 219.946 116.446 222.362C121.433 224.778 116.63 224.962 126.506 229.126C136.368 233.304 148.091 235.492 150.478 229.538C152.851 223.584 148.901 223.044 148.901 223.044Z" fill="#E0E0E0"/>
<path fill-rule="evenodd" clip-rule="evenodd" d="M127.046 209.004L126.662 208.585L127.139 208.147L127.511 208.677L127.511 208.677L127.511 208.678L127.514 208.681C127.517 208.685 127.522 208.692 127.529 208.702C127.544 208.722 127.567 208.753 127.6 208.795C127.666 208.879 127.768 209.004 127.909 209.164C128.19 209.484 128.627 209.941 129.237 210.475C130.457 211.544 132.369 212.921 135.117 214.125C137.948 215.355 139.643 216.215 140.84 217.041C142.056 217.881 142.741 218.675 143.564 219.722L143.565 219.723L143.565 219.724C144.268 220.625 145.587 221.322 146.817 221.802C147.419 222.036 147.973 222.208 148.377 222.322C148.578 222.379 148.742 222.421 148.854 222.449C148.91 222.462 148.953 222.472 148.981 222.479C148.992 222.481 149 222.483 149.006 222.485C149.013 222.486 149.02 222.487 149.028 222.488C149.035 222.49 149.043 222.491 149.051 222.493C149.09 222.5 149.142 222.511 149.206 222.528C149.334 222.56 149.507 222.614 149.706 222.699C150.101 222.869 150.607 223.173 151.026 223.707C151.892 224.809 152.231 226.673 151.006 229.748L151.005 229.749C150.335 231.42 149.01 232.499 147.303 233.108C145.611 233.711 143.526 233.863 141.253 233.698C136.706 233.366 131.246 231.751 126.284 229.649C121.339 227.564 119.945 226.429 119.189 225.431C119.056 225.255 118.941 225.08 118.84 224.927C118.807 224.876 118.775 224.828 118.745 224.782C118.618 224.593 118.493 224.423 118.323 224.246C117.982 223.891 117.414 223.462 116.198 222.873C114.918 222.253 114.091 221.655 113.599 221.075C113.093 220.478 112.927 219.879 113.028 219.322C113.124 218.796 113.44 218.412 113.688 218.179C113.816 218.058 113.938 217.967 114.029 217.904C114.075 217.873 114.114 217.848 114.143 217.831C114.157 217.822 114.169 217.815 114.178 217.81C114.183 217.807 114.187 217.805 114.19 217.803L114.194 217.801L114.196 217.8L114.197 217.799C114.197 217.799 114.197 217.799 114.47 218.297L114.197 217.799L114.355 217.713L114.533 217.733C117.11 218.02 122.716 218.258 127.015 218.108C129.187 218.032 130.943 217.859 131.82 217.575C131.886 217.553 131.943 217.533 131.991 217.513C131.877 217.435 131.714 217.341 131.489 217.233C127.13 215.147 125.712 213.086 125.594 211.355C125.537 210.505 125.803 209.814 126.076 209.345C126.213 209.11 126.353 208.926 126.461 208.799C126.515 208.735 126.562 208.685 126.597 208.649C126.614 208.631 126.629 208.617 126.64 208.606C126.645 208.601 126.65 208.597 126.653 208.593L126.658 208.588L126.66 208.587L126.661 208.586C126.661 208.586 126.662 208.585 127.046 209.004ZM114.612 218.885C114.568 218.918 114.518 218.959 114.467 219.007C114.306 219.159 114.181 219.337 114.147 219.525C114.118 219.683 114.134 219.948 114.466 220.34C114.812 220.748 115.479 221.262 116.693 221.85C117.971 222.469 118.672 222.968 119.143 223.458C119.378 223.703 119.544 223.934 119.688 224.148C119.731 224.212 119.77 224.271 119.807 224.328C119.902 224.472 119.987 224.602 120.096 224.745C120.655 225.484 121.796 226.523 126.727 228.602L126.728 228.602C131.627 230.678 136.959 232.245 141.336 232.564C143.526 232.723 145.435 232.567 146.921 232.037C148.391 231.512 149.426 230.632 149.95 229.326C151.097 226.448 150.648 225.065 150.132 224.409C149.86 224.063 149.527 223.86 149.256 223.743C149.121 223.685 149.004 223.649 148.925 223.629C148.885 223.619 148.856 223.613 148.838 223.609C148.829 223.608 148.823 223.607 148.821 223.606C148.819 223.606 148.819 223.606 148.819 223.606L148.801 223.604L148.78 223.599L148.9 223.044C148.78 223.599 148.779 223.599 148.779 223.599L148.779 223.599L148.775 223.598L148.764 223.595C148.755 223.593 148.742 223.59 148.725 223.587C148.692 223.579 148.643 223.567 148.582 223.552C148.459 223.522 148.284 223.477 148.068 223.416C147.639 223.295 147.048 223.112 146.405 222.861C145.145 222.37 143.573 221.583 142.67 220.424C141.873 219.411 141.272 218.721 140.194 217.977C139.095 217.218 137.487 216.394 134.663 215.167L134.662 215.166C131.797 213.912 129.788 212.468 128.488 211.331C127.841 210.763 127.37 210.272 127.058 209.918C126.865 210.251 126.69 210.716 126.728 211.278C126.803 212.375 127.729 214.173 131.98 216.207L131.981 216.208C132.33 216.375 132.62 216.546 132.834 216.727C133.033 216.895 133.256 217.146 133.287 217.487C133.321 217.872 133.099 218.146 132.895 218.304C132.694 218.459 132.435 218.571 132.17 218.656C131.119 218.997 129.207 219.169 127.055 219.244C122.817 219.392 117.33 219.169 114.612 218.885ZM114.745 218.795C114.746 218.794 114.746 218.794 114.746 218.794L114.745 218.795Z" fill="#2C2C2C"/>
<path d="M266.059 255.91C266.059 255.91 253.384 257.402 250.727 257.402C250.699 257.402 250.67 257.402 250.642 257.402C250.628 257.402 250.613 257.402 250.599 257.402C250.585 257.402 250.571 257.402 250.557 257.402C250.528 257.402 250.5 257.402 250.471 257.402C247.8 257.402 235.139 255.91 235.139 255.91C218.244 261.239 219.451 285.893 219.466 286.589C219.579 291.676 219.65 296.777 219.778 301.865C220.077 313.843 223.132 349.723 223.913 361.133C223.984 362.071 224.027 362.853 224.055 363.435C225.334 389.041 226.599 414.647 227.878 440.253C227.991 442.499 228.105 444.758 228.219 447.003C228.219 447.003 234.158 450.698 245.81 447.003L245.91 363.833L249.15 302.035C249.15 302.035 249.747 301.95 250.457 301.879C250.5 301.879 250.542 301.893 250.599 301.893V301.907C250.613 301.907 250.628 301.907 250.642 301.907C250.656 301.907 250.67 301.907 250.684 301.907V301.893C250.727 301.893 250.77 301.879 250.827 301.879C251.537 301.95 252.134 302.035 252.134 302.035L255.374 363.833L255.473 447.003C267.125 450.698 273.065 447.003 273.065 447.003C273.178 444.758 273.292 442.499 273.406 440.253C274.685 414.647 275.935 389.041 277.228 363.435C277.257 362.853 277.299 362.071 277.37 361.133C278.138 349.737 281.207 313.843 281.505 301.865C281.633 296.777 281.704 291.676 281.818 286.589C281.747 285.893 282.941 261.239 266.059 255.91Z" fill="#2C2C2C"/>
<path d="M217.931 189.097C217.931 189.097 206.109 246.391 200.723 249.545C196.389 252.089 163.167 241.275 150.549 237.026C147.55 236.032 145.717 235.378 145.717 235.378L147.891 220.685L155.01 221.652L190.464 226.469C190.464 226.469 202.414 168.251 210.997 167.541C219.594 166.816 217.931 189.097 217.931 189.097Z" fill="#2C2C2C"/>
<path d="M287.403 167.185C287.403 167.185 329.336 209.515 332.093 230.674C332.093 230.674 325.713 242.638 287.304 265.459L283.879 255.669C283.879 255.669 305.322 231.057 312.768 224.834C312.768 224.834 279.19 197.068 279.971 189.196C280.753 181.295 282.7 167.597 287.403 167.185Z" fill="#2C2C2C"/>
<path d="M304.554 184.961C304.554 194.026 298.614 199.639 289.549 199.639C280.483 199.639 273.136 192.293 273.136 183.227C273.136 174.161 279.985 164.157 288.625 166.872C298.145 169.841 304.554 175.895 304.554 184.961Z" fill="white"/>
<path fill-rule="evenodd" clip-rule="evenodd" d="M278.074 170.999C275.373 174.187 273.704 178.822 273.704 183.227C273.704 191.979 280.796 199.071 289.548 199.071C293.963 199.071 297.563 197.706 300.055 195.291C302.545 192.879 303.985 189.366 303.985 184.961C303.985 176.241 297.847 170.344 288.455 167.414L288.454 167.414C284.416 166.145 280.767 167.822 278.074 170.999ZM288.794 166.329C284.193 164.884 280.098 166.852 277.207 170.264C274.323 173.667 272.567 178.566 272.567 183.227C272.567 192.607 280.168 200.208 289.548 200.208C294.199 200.208 298.102 198.766 300.846 196.108C303.592 193.447 305.122 189.621 305.122 184.961C305.122 175.549 298.443 169.339 288.794 166.329Z" fill="#2C2C2C"/>
<path d="M297.18 182.319C297.18 189.026 292.789 193.175 286.082 193.175C279.375 193.175 273.947 187.747 273.947 181.04C273.947 174.333 279.006 166.929 285.415 168.933C292.434 171.15 297.18 175.626 297.18 182.319Z" fill="#2C2C2C"/>
<path d="M194.429 184.96C194.429 194.026 200.368 199.639 209.434 199.639C218.5 199.639 225.832 192.278 225.832 183.227C225.832 174.175 218.983 164.157 210.344 166.871C200.837 169.841 194.429 175.894 194.429 184.96Z" fill="white"/>
<path fill-rule="evenodd" clip-rule="evenodd" d="M221.762 170.27C224.645 173.674 226.401 178.573 226.401 183.228C226.401 192.592 218.815 200.208 209.434 200.208C204.784 200.208 200.88 198.767 198.136 196.108C195.39 193.448 193.86 189.622 193.86 184.961C193.86 175.549 200.539 169.34 210.174 166.33C214.775 164.884 218.87 166.857 221.762 170.27ZM220.894 171.005C218.201 167.826 214.552 166.146 210.514 167.414L210.513 167.415C201.136 170.344 194.997 176.241 194.997 184.961C194.997 189.366 196.437 192.879 198.927 195.292C201.42 197.706 205.019 199.071 209.434 199.071C218.185 199.071 225.264 191.966 225.264 183.228C225.264 178.83 223.596 174.194 220.894 171.005Z" fill="#2C2C2C"/>
<path d="M201.818 182.319C201.818 189.026 206.209 193.175 212.916 193.175C219.623 193.175 225.051 187.747 225.051 181.04C225.051 174.333 219.992 166.929 213.598 168.933C206.55 171.15 201.818 175.626 201.818 182.319Z" fill="#2C2C2C"/>
<path d="M270.153 257.7C259.893 256.763 249.762 256.379 249.762 256.379C246.039 256.493 238.11 256.819 229.925 257.7C232.312 265.857 240.412 271.868 250.032 271.868C259.666 271.882 267.765 265.843 270.153 257.7Z" fill="#50BFD7"/>
<path d="M269.314 258.554C270.195 255.087 287.829 166.73 287.829 166.73C287.829 166.73 240.767 152.833 210.67 166.73L229.967 259.321L269.314 258.554Z" fill="white"/>
<path fill-rule="evenodd" clip-rule="evenodd" d="M287.99 166.185C287.99 166.185 287.991 166.185 287.83 166.73C288.387 166.842 288.387 166.842 288.387 166.843L288.386 166.846L288.189 167.835C288.059 168.483 287.87 169.434 287.628 170.645C287.144 173.068 286.451 176.533 285.618 180.702C283.951 189.039 281.719 200.192 279.46 211.454C274.944 233.96 270.31 256.942 269.865 258.694L269.759 259.114L229.507 259.899L210.022 166.404L210.432 166.214C225.626 159.198 245.046 159.214 260.599 160.954C268.388 161.825 275.232 163.132 280.129 164.221C282.578 164.766 284.541 165.256 285.893 165.611C286.569 165.788 287.092 165.931 287.447 166.03C287.624 166.08 287.76 166.118 287.851 166.145C287.896 166.158 287.931 166.168 287.954 166.175L287.981 166.182L287.988 166.184L287.99 166.185ZM287.83 166.73L288.387 166.842L288.489 166.332L287.991 166.185L287.83 166.73ZM287.17 167.133C287.16 167.13 287.151 167.128 287.141 167.125C286.792 167.027 286.274 166.886 285.604 166.71C284.265 166.359 282.316 165.872 279.882 165.331C275.015 164.248 268.212 162.95 260.473 162.084C245.114 160.365 226.162 160.365 211.32 167.059L230.428 258.744L268.861 257.994C269.666 254.383 274.052 232.63 278.345 211.23C280.604 199.969 282.836 188.816 284.503 180.479C285.337 176.31 286.029 172.845 286.513 170.422C286.755 169.211 286.945 168.26 287.074 167.612L287.17 167.133Z" fill="black"/>
<path d="M269.314 258.554C270.195 255.087 287.829 166.73 287.829 166.73C287.829 166.73 240.767 152.833 210.67 166.73L229.967 259.321L269.314 258.554Z" fill="white"/>
<path fill-rule="evenodd" clip-rule="evenodd" d="M287.99 166.185C287.99 166.185 287.991 166.185 287.83 166.73C288.387 166.842 288.387 166.842 288.387 166.843L288.386 166.846L288.189 167.835C288.059 168.483 287.87 169.434 287.628 170.645C287.144 173.068 286.451 176.533 285.618 180.702C283.951 189.039 281.719 200.192 279.46 211.454C274.944 233.96 270.31 256.942 269.865 258.694L269.759 259.114L229.507 259.899L210.022 166.404L210.432 166.214C225.626 159.198 245.046 159.214 260.599 160.954C268.388 161.825 275.232 163.132 280.129 164.221C282.578 164.766 284.541 165.256 285.893 165.611C286.569 165.788 287.092 165.931 287.447 166.03C287.624 166.08 287.76 166.118 287.851 166.145C287.896 166.158 287.931 166.168 287.954 166.175L287.981 166.182L287.988 166.184L287.99 166.185ZM287.83 166.73L288.387 166.842L288.489 166.332L287.991 166.185L287.83 166.73ZM287.17 167.133C287.16 167.13 287.151 167.128 287.141 167.125C286.792 167.027 286.274 166.886 285.604 166.71C284.265 166.359 282.316 165.872 279.882 165.331C275.015 164.248 268.212 162.95 260.473 162.084C245.114 160.365 226.162 160.365 211.32 167.059L230.428 258.744L268.861 257.994C269.666 254.383 274.052 232.63 278.345 211.23C280.604 199.969 282.836 188.816 284.503 180.479C285.337 176.31 286.029 172.845 286.513 170.422C286.755 169.211 286.945 168.26 287.074 167.612L287.17 167.133Z" fill="#2C2C2C"/>
<path d="M276.405 164.015C263.261 161.372 241.037 158.36 221.939 162.907C224.198 177.159 226.458 191.426 228.717 205.678C230.536 215.341 239.701 221.778 249.264 221.835C258.828 221.778 267.993 215.355 269.812 205.678C272 191.781 274.202 177.898 276.405 164.015Z" fill="#50BFD7"/>
<path fill-rule="evenodd" clip-rule="evenodd" d="M221.807 162.354C241.03 157.777 263.355 160.811 276.517 163.458L277.052 163.566L276.965 164.113C274.763 177.993 272.561 191.873 270.373 205.767L270.372 205.775L270.37 205.783C268.493 215.77 259.057 222.345 249.267 222.403L249.264 222.403L249.261 222.403C239.471 222.345 230.035 215.756 228.158 205.783L228.157 205.775L228.155 205.767C227.026 198.642 225.896 191.513 224.767 184.384L224.766 184.382C223.637 177.252 222.507 170.122 221.377 162.996L221.295 162.476L221.807 162.354ZM222.583 163.34C223.685 170.292 224.787 177.247 225.889 184.201L225.889 184.204C227.018 191.331 228.148 198.458 229.277 205.581C231.041 214.928 239.931 221.209 249.264 221.266C258.597 221.209 267.487 214.942 269.251 205.582C271.411 191.867 273.584 178.166 275.758 164.466C262.691 161.878 241.184 159.055 222.583 163.34Z" fill="#2C2C2C"/>
<path d="M247.63 169.06C252.12 169.06 259.097 167.695 259.097 163.219L257.946 148.271L256.938 135.198C256.938 130.707 253.3 127.084 248.824 127.084C246.579 127.084 244.561 127.993 243.083 129.457C241.619 130.921 240.696 132.953 240.696 135.198L239.701 148.285L238.749 160.832C237.47 168.406 247.63 169.06 247.63 169.06Z" fill="#2C2C2C"/>
<path d="M273.889 50.9061C267.168 42.6361 257.775 37.6484 245.726 37.6484C218.429 37.6484 191.743 62.8139 191.743 94.2033C191.743 125.593 213.867 151.042 241.164 151.042C243.793 151.042 246.337 150.815 248.781 150.36C249.036 151.739 249.179 153.16 249.179 154.609C249.179 154.879 249.164 155.135 249.164 155.391C324.419 137.174 312.099 46.2596 273.889 50.9061Z" fill="#2C2C2C"/>
<path d="M215.203 125.906C220.265 125.906 224.369 121.802 224.369 116.74C224.369 111.679 220.265 107.575 215.203 107.575C210.142 107.575 206.038 111.679 206.038 116.74C206.038 121.802 210.142 125.906 215.203 125.906Z" fill="#E0E0E0"/>
<path fill-rule="evenodd" clip-rule="evenodd" d="M215.203 108.144C210.455 108.144 206.607 111.993 206.607 116.741C206.607 121.488 210.455 125.337 215.203 125.337C219.951 125.337 223.8 121.488 223.8 116.741C223.8 111.993 219.951 108.144 215.203 108.144ZM205.47 116.741C205.47 111.365 209.828 107.007 215.203 107.007C220.579 107.007 224.937 111.365 224.937 116.741C224.937 122.116 220.579 126.474 215.203 126.474C209.828 126.474 205.47 122.116 205.47 116.741Z" fill="#2C2C2C"/>
<path d="M279.744 125.906C284.806 125.906 288.91 121.802 288.91 116.74C288.91 111.679 284.806 107.575 279.744 107.575C274.683 107.575 270.579 111.679 270.579 116.74C270.579 121.802 274.683 125.906 279.744 125.906Z" fill="#E0E0E0"/>
<path fill-rule="evenodd" clip-rule="evenodd" d="M279.744 108.144C274.996 108.144 271.147 111.993 271.147 116.741C271.147 121.488 274.996 125.337 279.744 125.337C284.492 125.337 288.341 121.488 288.341 116.741C288.341 111.993 284.492 108.144 279.744 108.144ZM270.01 116.741C270.01 111.365 274.368 107.007 279.744 107.007C285.12 107.007 289.478 111.365 289.478 116.741C289.478 122.116 285.12 126.474 279.744 126.474C274.368 126.474 270.01 122.116 270.01 116.741Z" fill="#2C2C2C"/>
<path d="M248.34 154.978C268.015 154.978 283.964 132.4 283.964 104.548C283.964 76.6957 268.015 54.1172 248.34 54.1172C228.666 54.1172 212.716 76.6957 212.716 104.548C212.716 132.4 228.666 154.978 248.34 154.978Z" fill="#E0E0E0"/>
<path fill-rule="evenodd" clip-rule="evenodd" d="M223.615 69.2159C217.244 78.2352 213.285 90.7251 213.285 104.548C213.285 118.37 217.244 130.86 223.615 139.879C229.987 148.9 238.737 154.41 248.341 154.41C257.944 154.41 266.694 148.9 273.066 139.879C279.438 130.86 283.396 118.37 283.396 104.548C283.396 90.7251 279.438 78.2352 273.066 69.2159C266.694 60.1951 257.944 54.6856 248.341 54.6856C238.737 54.6856 229.987 60.1951 223.615 69.2159ZM222.687 68.56C229.208 59.3286 238.269 53.5488 248.341 53.5488C258.412 53.5488 267.474 59.3286 273.995 68.56C280.517 77.7929 284.533 90.5183 284.533 104.548C284.533 118.577 280.517 131.302 273.995 140.535C267.474 149.767 258.412 155.547 248.341 155.547C238.269 155.547 229.208 149.767 222.687 140.535C216.164 131.302 212.148 118.577 212.148 104.548C212.148 90.5183 216.164 77.7929 222.687 68.56Z" fill="#2C2C2C"/>
<path d="M207.516 93.3657C207.516 93.3657 237.84 94.8435 247.943 76.5981C247.943 76.5981 269.883 95.5824 290.828 94.1046L288.853 85.7208L280.725 69.6922L275.794 63.7809L265.691 53.1804L252.135 47.5107L235.865 49.7275L214.166 64.5198L211.452 74.3814L207.516 93.3657Z" fill="#2C2C2C"/>
<path d="M249.221 124.257C249.235 124.343 249.051 124.499 248.639 124.499C248.241 124.513 247.63 124.328 247.09 123.817C246.82 123.561 246.578 123.249 246.393 122.851C246.365 122.794 246.351 122.737 246.322 122.68L246.294 122.595L246.266 122.524L246.223 122.396C246.209 122.339 246.195 122.268 246.166 122.211C246.109 121.998 246.067 121.771 246.052 121.529C245.967 120.591 246.152 119.639 246.379 118.73C247.26 115.092 248.298 112.236 248.681 112.321C249.065 112.421 248.667 115.433 247.786 119.071C247.559 119.966 247.388 120.776 247.388 121.458C247.388 121.629 247.402 121.799 247.417 121.955L247.431 122.012V122.041V122.055V122.069C247.431 122.069 247.417 122.026 247.431 122.041L247.459 122.183L247.473 122.254L247.488 122.296L247.516 122.382C247.601 122.652 247.729 122.907 247.871 123.106C248.155 123.518 248.497 123.774 248.767 123.916C249.008 124.101 249.207 124.158 249.221 124.257Z" fill="#2C2C2C"/>
<path d="M209.832 110.332C209.434 108.755 209.136 107.149 208.894 105.53C208.667 103.91 208.511 102.29 208.425 100.656C208.283 97.3874 208.411 94.0907 208.852 90.8367C209.292 87.5684 210.045 84.3428 211.111 81.2167C211.168 81.0177 211.239 80.8188 211.31 80.6341L211.523 80.0515L211.949 78.8863L212.433 77.7353L212.674 77.1669C212.759 76.9822 212.83 76.7832 212.93 76.5985C213.626 75.0923 214.379 73.6002 215.232 72.1793C216.923 69.3089 218.898 66.609 221.172 64.1507C223.459 61.7067 226.031 59.5183 228.845 57.6853C229.186 57.4437 229.555 57.2306 229.911 57.0174C230.266 56.8043 230.635 56.5769 230.991 56.378L232.113 55.7812L232.667 55.4828C232.852 55.3833 233.051 55.298 233.236 55.2128L234.387 54.687C234.486 54.6444 234.571 54.6018 234.671 54.5591L234.969 54.4455L235.552 54.2181L236.134 53.9908C236.333 53.9197 236.518 53.8344 236.731 53.7634L237.939 53.3655C241.151 52.3282 244.532 51.8024 247.914 51.7314C249.605 51.6746 251.296 51.8024 252.973 51.9872C253.399 52.044 253.811 52.1151 254.224 52.1719L254.849 52.2714C254.948 52.2856 255.062 52.2998 255.161 52.3282L255.474 52.3993L256.71 52.6692C257.122 52.7545 257.534 52.8682 257.932 52.9819C261.186 53.8913 264.327 55.2128 267.197 56.9748L268.263 57.6427C268.447 57.7563 268.618 57.87 268.789 57.9979L269.3 58.3531L269.812 58.7084C269.982 58.8221 270.153 58.95 270.323 59.0778L271.318 59.8452L271.815 60.2288L272.298 60.6409L273.25 61.4651C273.563 61.7351 273.861 62.0335 274.16 62.3319L274.615 62.7724C274.771 62.9145 274.913 63.0566 275.055 63.2129L275.922 64.1223L276.348 64.577L276.76 65.0459L277.584 65.998C277.726 66.1543 277.854 66.3248 277.982 66.4811L278.366 66.9785C278.622 67.3053 278.877 67.6321 279.133 67.9732L279.858 68.9963C280.355 69.6641 280.782 70.3888 281.236 71.0851C282.998 73.9128 284.433 76.9253 285.57 80.023C286.707 83.135 287.517 86.3464 288.029 89.6004L288.128 90.2114L288.171 90.5098L288.199 90.8225L288.341 92.0445C288.455 92.8545 288.483 93.6786 288.554 94.5028C288.654 96.1369 288.682 97.7852 288.64 99.4194L288.625 100.03L288.597 100.641C288.569 101.053 288.554 101.451 288.512 101.863C288.455 102.673 288.37 103.498 288.27 104.308C288.057 105.927 287.787 107.533 287.432 109.125C287.631 107.505 287.787 105.899 287.844 104.279C287.915 102.659 287.929 101.039 287.858 99.4336C287.787 97.8279 287.673 96.208 287.474 94.6165C287.361 93.8207 287.275 93.025 287.119 92.2292L286.906 91.0498L286.849 90.7514L286.778 90.453L286.65 89.8704C285.982 86.73 285.03 83.6607 283.822 80.7193L283.595 80.1651L283.354 79.6252L282.856 78.531C282.7 78.1616 282.515 77.8205 282.33 77.4653L281.79 76.3996C281.606 76.0443 281.407 75.7033 281.208 75.3622C281.009 75.0212 280.824 74.666 280.611 74.3249L279.986 73.316C279.773 72.975 279.574 72.634 279.346 72.3213C278.892 71.6677 278.465 70.9998 277.982 70.3746L277.272 69.4226C277.03 69.1099 276.774 68.8115 276.519 68.4989L276.135 68.0442C276.007 67.8879 275.879 67.7316 275.751 67.5895L274.956 66.7085L274.558 66.268L274.146 65.8417L273.307 65.0033C271.048 62.815 268.533 60.8967 265.819 59.3052C263.119 57.7137 260.206 56.5059 257.193 55.6959C256.44 55.4686 255.673 55.3407 254.92 55.1702L254.636 55.1133C254.536 55.0991 254.437 55.0849 254.351 55.0707L253.769 54.9854C253.385 54.9286 253.001 54.8575 252.618 54.8149C251.069 54.6586 249.506 54.5449 247.957 54.5876C244.845 54.6444 241.733 55.1133 238.763 56.0654L237.655 56.4206C237.47 56.4775 237.285 56.5485 237.101 56.6196L236.561 56.8327L236.021 57.0458L235.751 57.1453C235.666 57.1737 235.566 57.2306 235.481 57.259L234.415 57.7421C234.245 57.8274 234.06 57.8984 233.875 57.9837L233.349 58.2537L232.312 58.7937C231.971 58.9926 231.63 59.1915 231.289 59.3763C230.948 59.5752 230.607 59.7599 230.28 59.9873C227.623 61.664 225.179 63.6676 222.962 65.9127L222.152 66.7795L221.754 67.22C221.683 67.2911 221.612 67.3621 221.555 67.4332L221.371 67.6605L220.603 68.57C220.475 68.7263 220.347 68.8684 220.22 69.0247L219.85 69.4936L219.125 70.4314C218.998 70.5878 218.898 70.7441 218.77 70.9146L218.429 71.3977C218.202 71.7245 217.974 72.0372 217.747 72.3782L217.108 73.3871C215.417 76.0727 213.967 78.9289 212.83 81.8987C211.679 84.8686 210.798 87.9663 210.202 91.1209L209.974 92.3003C209.903 92.6982 209.861 93.096 209.79 93.4939L209.619 94.6875C209.576 95.0854 209.534 95.4833 209.491 95.8811L209.363 97.089L209.292 98.2968L209.221 99.5046C209.207 99.9025 209.193 100.315 209.179 100.712C209.15 102.332 209.179 103.938 209.292 105.558C209.42 107.107 209.605 108.713 209.832 110.332Z" fill="#50BFD7"/>
<path d="M239.075 107.22C239.075 111.27 235.565 114.552 231.246 114.552C226.912 114.552 223.416 111.27 223.416 107.22C223.416 103.17 226.926 99.8877 231.246 99.8877C235.565 99.8877 239.075 103.17 239.075 107.22Z" fill="white"/>
<path fill-rule="evenodd" clip-rule="evenodd" d="M231.247 100.456C227.205 100.456 223.985 103.519 223.985 107.22C223.985 110.922 227.191 113.984 231.247 113.984C235.288 113.984 238.508 110.921 238.508 107.22C238.508 103.519 235.288 100.456 231.247 100.456ZM222.849 107.22C222.849 102.821 226.649 99.3193 231.247 99.3193C235.844 99.3193 239.645 102.821 239.645 107.22C239.645 111.618 235.844 115.121 231.247 115.121C226.634 115.121 222.849 111.618 222.849 107.22Z" fill="#2C2C2C"/>
<path d="M227.41 106.764C227.41 110.104 229.584 112.818 232.255 112.818C234.927 112.818 237.101 110.104 237.101 106.764C237.101 103.425 234.927 100.711 232.255 100.711C229.57 100.697 227.41 103.411 227.41 106.764Z" fill="#50BFD7"/>
<path d="M228.802 106.764C228.802 109.137 230.337 111.055 232.241 111.055C234.145 111.055 235.68 109.137 235.68 106.764C235.68 104.391 234.145 102.458 232.241 102.458C230.351 102.458 228.802 104.376 228.802 106.764Z" fill="#2C2C2C"/>
<path d="M228.589 102.686C228.589 103.34 229.385 103.851 230.366 103.851C231.346 103.851 232.142 103.325 232.142 102.686C232.142 102.032 231.346 101.521 230.366 101.521C229.385 101.507 228.589 102.032 228.589 102.686Z" fill="white"/>
<path d="M231.758 98.8208C226.912 98.3377 223.189 102.714 223.189 107.233C223.189 107.702 223.772 107.787 224.014 107.46C225.989 104.746 226.628 102.075 230.237 101.038C235.566 99.5029 238.493 104.974 238.792 109.265C238.834 109.677 239.19 109.308 239.232 108.881C239.715 103.752 237.158 99.3608 231.758 98.8208Z" fill="#2C2C2C"/>
<path d="M241.321 96.0069C241.321 96.0069 230.749 85.4632 219.381 97.982C219.367 97.982 229.2 91.6871 241.321 96.0069Z" fill="#2C2C2C"/>
<path d="M273.137 107.22C273.137 111.27 269.627 114.552 265.307 114.552C260.973 114.552 257.478 111.27 257.478 107.22C257.478 103.17 260.987 99.8877 265.307 99.8877C269.627 99.8877 273.137 103.17 273.137 107.22Z" fill="white"/>
<path fill-rule="evenodd" clip-rule="evenodd" d="M265.307 100.456C261.265 100.456 258.045 103.519 258.045 107.22C258.045 110.922 261.251 113.984 265.307 113.984C269.348 113.984 272.568 110.921 272.568 107.22C272.568 103.519 269.348 100.456 265.307 100.456ZM256.909 107.22C256.909 102.821 260.709 99.3193 265.307 99.3193C269.904 99.3193 273.705 102.821 273.705 107.22C273.705 111.618 269.904 115.121 265.307 115.121C260.694 115.121 256.909 111.618 256.909 107.22Z" fill="#2C2C2C"/>
<path d="M261.471 106.764C261.471 110.104 263.645 112.818 266.316 112.818C268.988 112.818 271.162 110.104 271.162 106.764C271.162 103.425 268.988 100.711 266.316 100.711C263.645 100.697 261.471 103.411 261.471 106.764Z" fill="#50BFD7"/>
<path d="M262.876 106.764C262.876 109.137 264.411 111.055 266.315 111.055C268.219 111.055 269.754 109.137 269.754 106.764C269.754 104.391 268.219 102.458 266.315 102.458C264.411 102.458 262.876 104.376 262.876 106.764Z" fill="#2C2C2C"/>
<path d="M262.649 102.686C262.649 103.34 263.445 103.851 264.426 103.851C265.406 103.851 266.202 103.325 266.202 102.686C266.202 102.032 265.406 101.521 264.426 101.521C263.459 101.507 262.649 102.032 262.649 102.686Z" fill="white"/>
<path d="M265.818 98.8208C260.973 98.3377 257.25 102.714 257.25 107.233C257.25 107.702 257.833 107.787 258.074 107.46C260.049 104.746 260.689 102.075 264.298 101.038C269.627 99.5029 272.554 104.974 272.852 109.265C272.895 109.677 273.25 109.308 273.293 108.881C273.776 103.752 271.232 99.3608 265.818 98.8208Z" fill="#2C2C2C"/>
<path d="M275.382 94.8575C275.382 94.8575 264.81 84.3138 253.442 96.8326C253.442 96.8326 263.275 90.5377 275.382 94.8575Z" fill="#2C2C2C"/>
<path d="M236.774 132.314C237.129 135.071 238.465 137.615 240.554 139.462C242.643 141.309 245.328 142.318 248.113 142.318C250.898 142.318 253.584 141.309 255.673 139.462C257.762 137.615 259.112 135.085 259.453 132.314H236.774Z" fill="white"/>
<path fill-rule="evenodd" clip-rule="evenodd" d="M236.127 131.746H260.095L260.017 132.384C259.658 135.295 258.24 137.95 256.049 139.888C253.856 141.828 251.036 142.887 248.113 142.887C245.19 142.887 242.371 141.828 240.177 139.888C237.984 137.948 236.583 135.279 236.21 132.387L236.127 131.746ZM237.439 132.883C237.889 135.256 239.108 137.425 240.93 139.036C242.914 140.791 245.466 141.75 248.113 141.75C250.761 141.75 253.312 140.791 255.296 139.036C257.121 137.422 258.351 135.263 258.79 132.883H237.439Z" fill="#2C2C2C"/>
<path d="M259.012 263.854C259.012 264.209 259.325 264.621 259.694 264.579C263.886 264.138 267.097 260.898 271.232 261.58C267.083 263.641 263.488 267.222 264 272.493C264.056 273.147 264.682 273.403 265.165 273.005C268.135 270.476 271.545 268.216 275.524 269.055C277.229 269.41 279.232 270.078 280.994 269.85C283.623 269.524 285.84 268.33 287.147 265.786C289.449 261.381 288.597 256.095 283.439 255.001C283.311 254.973 283.211 254.987 283.098 255.03C281.193 254.277 279.46 253.324 277.925 251.662C276.447 250.042 275.069 248.252 273.463 246.76C271.318 244.756 268.987 243.179 266.145 244.529C265.719 244.728 265.747 245.339 266.017 245.665C267.268 247.214 268.731 248.692 270.266 250.113C268.731 249.758 267.183 249.573 265.591 249.701C262.749 249.943 259.396 251.832 259.467 255.214C259.481 255.641 259.779 255.896 260.149 255.939C262.763 256.209 265.392 256.166 267.993 256.436C263.943 257.63 258.969 258.994 259.012 263.854Z" fill="#E0E0E0"/>
<path fill-rule="evenodd" clip-rule="evenodd" d="M270.274 243.858C271.583 244.375 272.767 245.332 273.85 246.344C274.936 247.353 275.939 248.517 276.912 249.647C277.394 250.206 277.869 250.758 278.344 251.278C279.755 252.806 281.347 253.71 283.135 254.433C283.264 254.411 283.404 254.412 283.558 254.446C286.342 255.037 288.009 256.786 288.637 258.997C289.255 261.176 288.853 263.748 287.651 266.048C286.24 268.793 283.836 270.07 281.066 270.414C280.095 270.539 279.083 270.416 278.128 270.229C277.648 270.135 277.172 270.023 276.717 269.914C276.669 269.902 276.621 269.891 276.573 269.879C276.167 269.782 275.78 269.689 275.407 269.611L275.406 269.611C271.718 268.834 268.5 270.91 265.533 273.438L265.529 273.441L265.526 273.444C265.139 273.762 264.639 273.855 264.198 273.666C263.757 273.477 263.478 273.051 263.433 272.546C262.97 267.765 265.692 264.334 269.126 262.121C267.984 262.276 266.871 262.689 265.705 263.182C265.446 263.292 265.184 263.406 264.918 263.521C263.341 264.206 261.64 264.945 259.755 265.144C259.331 265.191 258.991 264.973 258.786 264.74C258.583 264.507 258.444 264.187 258.443 263.857C258.42 261.18 259.802 259.461 261.664 258.289C262.646 257.671 263.778 257.195 264.926 256.795C264.635 256.781 264.343 256.768 264.051 256.756L264.039 256.755C262.737 256.699 261.413 256.641 260.09 256.504L260.087 256.504L260.083 256.504C259.476 256.434 258.923 255.981 258.898 255.233L258.898 255.23L258.898 255.226C258.858 253.32 259.792 251.843 261.086 250.832C262.37 249.83 264.027 249.263 265.543 249.135L265.544 249.135L265.545 249.134C266.549 249.054 267.533 249.092 268.501 249.216C267.457 248.188 266.466 247.126 265.576 246.025C265.348 245.746 265.232 245.371 265.252 245.017C265.273 244.65 265.452 244.226 265.902 244.015C267.478 243.267 268.935 243.33 270.274 243.858ZM266.394 245.039C266.392 245.047 266.388 245.061 266.387 245.081C266.385 245.117 266.39 245.16 266.405 245.205C266.419 245.25 266.439 245.283 266.455 245.303L266.457 245.306L266.459 245.308C267.686 246.828 269.128 248.285 270.652 249.696L272.221 251.149L270.137 250.667C268.643 250.321 267.155 250.146 265.637 250.267C264.311 250.38 262.872 250.88 261.786 251.728C260.712 252.567 260.005 253.725 260.034 255.198C260.037 255.273 260.061 255.304 260.076 255.319C260.096 255.339 260.138 255.365 260.211 255.374C261.497 255.507 262.79 255.563 264.1 255.62L264.105 255.62C265.41 255.677 266.732 255.734 268.051 255.871L270.913 256.168L268.153 256.982C268.082 257.003 268.011 257.023 267.94 257.044C265.954 257.629 263.876 258.241 262.27 259.251C260.644 260.275 259.561 261.667 259.58 263.849L259.58 263.851V263.854C259.58 263.861 259.582 263.882 259.594 263.912C259.606 263.942 259.623 263.97 259.642 263.991C259.649 264 259.656 264.006 259.661 264.01C261.347 263.828 262.862 263.172 264.439 262.489C264.711 262.371 264.985 262.252 265.263 262.135C267.116 261.351 269.084 260.65 271.324 261.02L273.062 261.306L271.485 262.089C267.425 264.106 264.087 267.513 264.565 272.439L264.565 272.441L264.565 272.444C264.572 272.521 264.593 272.565 264.608 272.587C264.623 272.609 264.637 272.617 264.646 272.621C264.655 272.625 264.669 272.628 264.691 272.625C264.712 272.621 264.751 272.608 264.8 272.569C267.771 270.039 271.373 267.6 275.64 268.498C276.03 268.58 276.434 268.677 276.838 268.774C276.886 268.785 276.934 268.797 276.982 268.808C277.437 268.917 277.892 269.024 278.347 269.113C279.26 269.292 280.131 269.389 280.921 269.287L280.923 269.287L280.924 269.286C283.41 268.977 285.438 267.867 286.641 265.527L286.642 265.525L286.643 265.523C287.743 263.419 288.065 261.146 287.543 259.307C287.031 257.502 285.694 256.061 283.32 255.557L283.318 255.557L283.315 255.556C283.315 255.556 283.314 255.556 283.314 255.556C283.31 255.557 283.304 255.559 283.297 255.562L283.092 255.639L282.888 255.558C280.938 254.787 279.12 253.795 277.507 252.048L277.506 252.046L277.505 252.045C276.982 251.472 276.484 250.894 275.991 250.321C275.045 249.222 274.119 248.145 273.076 247.176L273.075 247.175C272.013 246.183 270.958 245.35 269.856 244.915C268.785 244.492 267.658 244.441 266.394 245.039Z" fill="#2C2C2C"/>
<path d="M221.2 463.046C221.2 463.046 222.038 465.704 222.28 466.116C222.535 466.528 229.058 468.773 237.015 468.602C245.285 468.432 249.065 466.03 249.179 463.032H221.2V463.046Z" fill="#50BFD7"/>
<path fill-rule="evenodd" clip-rule="evenodd" d="M220.631 462.464H249.769L249.747 463.054C249.679 464.828 248.518 466.332 246.41 467.386C244.311 468.436 241.203 469.085 237.027 469.171M220.631 462.464V463.032V462.464ZM221.2 463.046L220.658 463.217L220.631 463.134V463.032M221.2 463.046C220.658 463.217 220.658 463.217 220.658 463.217L220.667 463.248C220.674 463.268 220.683 463.297 220.695 463.334C220.718 463.408 220.752 463.514 220.794 463.642C220.876 463.899 220.989 464.247 221.11 464.607C221.231 464.967 221.36 465.344 221.475 465.658C221.582 465.95 221.698 466.247 221.789 466.403L221.793 466.409L221.797 466.416C221.854 466.507 221.924 466.569 221.963 466.601C222.009 466.638 222.058 466.671 222.103 466.698C222.193 466.753 222.303 466.809 222.422 466.864C222.664 466.975 222.99 467.103 223.386 467.24C224.181 467.513 225.289 467.833 226.636 468.132C229.328 468.732 232.994 469.257 237.027 469.171M221.975 463.601H248.529C248.282 464.614 247.476 465.582 245.901 466.369C244.015 467.313 241.097 467.95 237.003 468.034L237.003 468.034C233.079 468.118 229.505 467.606 226.883 467.023C225.572 466.731 224.505 466.423 223.756 466.165C223.38 466.035 223.093 465.921 222.898 465.832C222.825 465.798 222.771 465.771 222.732 465.749C222.72 465.721 222.705 465.688 222.69 465.65C222.647 465.547 222.598 465.417 222.543 465.267C222.433 464.967 222.307 464.602 222.188 464.246C222.112 464.019 222.039 463.798 221.975 463.601Z" fill="#2C2C2C"/>
<path d="M221.214 463.616C222.465 464.739 224.099 465.591 225.293 465.975C228.262 466.955 231.517 467.325 234.628 467.495C237.939 467.666 241.577 467.609 244.675 466.302C246.352 465.591 247.773 464.554 249.094 463.374C249.691 461.911 249.847 460.248 249.805 458.543C249.705 455.474 249.009 452.504 248.469 449.491C248.384 449.051 248.312 448.625 248.241 448.198C248.085 446.237 247.943 444.262 247.815 442.316C247.773 441.591 247.687 440.951 247.701 440.227C247.716 439.744 247.886 438.962 247.758 438.507C247.744 438.45 247.716 438.408 247.701 438.365C247.701 438.294 247.716 438.223 247.701 438.152C247.147 437.697 246.565 437.271 245.897 437.086C245.414 437.172 244.931 437.328 244.618 437.456C244.121 437.655 243.68 437.911 243.282 438.209C242.302 436.873 239.886 436.248 238.522 436.191C236.39 436.106 233.549 436.475 231.858 438.038C231.573 437.768 231.133 437.626 230.749 437.555C230.664 437.541 230.564 437.527 230.479 437.513C229.485 437.896 229.74 440.34 229.641 441.037C229.499 441.96 229.357 442.884 229.129 443.779C228.675 445.499 228.021 447.076 227.026 448.554C225.961 450.145 224.568 451.523 223.346 452.987C223.175 453.285 222.991 453.584 222.82 453.868C221.513 455.971 220.447 459.026 220.731 461.527C220.802 462.323 220.973 463.005 221.214 463.616Z" fill="#50BFD7"/>
<path fill-rule="evenodd" clip-rule="evenodd" d="M234.895 435.942C236.144 435.651 237.44 435.578 238.544 435.622L238.545 435.622C239.288 435.653 240.291 435.836 241.242 436.186C242.007 436.468 242.793 436.878 243.376 437.453C243.693 437.253 244.034 437.076 244.404 436.928C244.748 436.787 245.27 436.619 245.798 436.526L245.924 436.503L246.048 436.538C246.841 436.757 247.503 437.253 248.062 437.712L248.219 437.841L248.258 438.04C248.276 438.129 248.277 438.208 248.275 438.261C248.286 438.289 248.297 438.322 248.307 438.359C248.4 438.698 248.377 439.101 248.349 439.407C248.336 439.551 248.322 439.676 248.309 439.79C248.289 439.962 248.273 440.106 248.269 440.24C248.26 440.705 248.293 441.113 248.33 441.565C248.348 441.789 248.367 442.023 248.382 442.279C248.509 444.215 248.65 446.179 248.806 448.128C248.875 448.547 248.944 448.959 249.026 449.383L249.027 449.386L249.028 449.39C249.139 450.011 249.258 450.635 249.378 451.261C249.831 453.635 250.292 456.052 250.372 458.524L250.372 458.526L250.372 458.528C250.416 460.27 250.259 462.021 249.62 463.588L249.57 463.71L249.472 463.798C248.124 465.001 246.65 466.081 244.896 466.824L244.895 466.824C241.67 468.186 237.919 468.233 234.599 468.062L234.597 468.062C231.469 467.89 228.157 467.518 225.116 466.514C223.853 466.108 222.149 465.218 220.834 464.038L220.735 463.949L220.685 463.824C220.424 463.163 220.242 462.43 220.165 461.584C219.864 458.912 220.992 455.732 222.335 453.571C222.385 453.488 222.435 453.405 222.485 453.322C222.61 453.116 222.733 452.912 222.852 452.704L222.877 452.66L222.909 452.622C223.329 452.119 223.755 451.64 224.175 451.169C225.026 450.211 225.853 449.282 226.554 448.236L226.554 448.235C227.506 446.821 228.137 445.305 228.579 443.636C228.797 442.773 228.936 441.879 229.078 440.953C229.095 440.829 229.099 440.611 229.104 440.283C229.105 440.267 229.105 440.252 229.105 440.236C229.111 439.903 229.119 439.5 229.158 439.101C229.197 438.708 229.267 438.283 229.414 437.915C229.56 437.552 229.815 437.158 230.274 436.981L230.419 436.926L230.572 436.951C230.611 436.957 230.653 436.964 230.7 436.971L230.702 436.972C230.747 436.978 230.796 436.986 230.842 436.994L230.847 436.995L230.852 436.995C231.135 437.048 231.494 437.143 231.823 437.321C232.711 436.628 233.8 436.198 234.895 435.942ZM235.153 437.049C234.021 437.313 232.991 437.763 232.243 438.455L231.852 438.816L231.466 438.45C231.305 438.297 231.002 438.18 230.65 438.114C230.634 438.111 230.618 438.109 230.6 438.106C230.562 438.15 230.516 438.221 230.47 438.337C230.382 438.558 230.324 438.859 230.29 439.212C230.256 439.559 230.247 439.921 230.242 440.255C230.241 440.285 230.241 440.315 230.24 440.345C230.236 440.627 230.231 440.918 230.203 441.116L230.203 441.119L230.2 441.136C230.059 442.05 229.914 442.996 229.68 443.918L229.679 443.921L229.678 443.924C229.211 445.692 228.534 447.33 227.498 448.869C226.755 449.979 225.838 451.01 224.957 452.001C224.563 452.445 224.175 452.881 223.814 453.312C223.695 453.519 223.569 453.727 223.449 453.924C223.401 454.005 223.353 454.083 223.307 454.16L223.305 454.163L223.302 454.167C222.033 456.21 221.031 459.135 221.296 461.462L221.296 461.469L221.297 461.476C221.358 462.163 221.499 462.753 221.695 463.281C222.867 464.302 224.373 465.082 225.466 465.433L225.468 465.433L225.47 465.434C228.369 466.391 231.563 466.757 234.658 466.927C237.959 467.097 241.483 467.03 244.453 465.777C246.011 465.117 247.35 464.156 248.615 463.038C249.131 461.706 249.276 460.177 249.236 458.558C249.159 456.186 248.72 453.882 248.269 451.521C248.148 450.884 248.026 450.243 247.91 449.595C247.823 449.148 247.751 448.717 247.681 448.294L247.676 448.267L247.674 448.243C247.518 446.279 247.376 444.301 247.248 442.352L247.247 442.35L247.247 442.348C247.235 442.143 247.219 441.935 247.202 441.724C247.163 441.24 247.122 440.738 247.133 440.215L247.133 440.212L247.133 440.209C247.138 440.033 247.163 439.803 247.187 439.591C247.198 439.488 247.209 439.389 247.217 439.304C247.245 438.991 247.243 438.781 247.212 438.666C247.211 438.664 247.21 438.662 247.209 438.659L247.207 438.654C247.204 438.648 247.2 438.639 247.195 438.629C247.187 438.611 247.174 438.58 247.162 438.544L247.133 438.457V438.423C246.702 438.084 246.294 437.814 245.865 437.67C245.472 437.75 245.086 437.877 244.833 437.981L244.831 437.982L244.829 437.983C244.381 438.162 243.984 438.392 243.623 438.663L243.163 439.007L242.824 438.544C242.43 438.008 241.704 437.568 240.849 437.253C240.006 436.943 239.12 436.784 238.498 436.758C237.471 436.717 236.281 436.786 235.153 437.049Z" fill="#2C2C2C"/>
<path d="M282.813 463.046C282.813 463.046 281.989 465.704 281.733 466.116C281.477 466.528 274.955 468.773 266.998 468.602C258.727 468.432 254.948 466.03 254.834 463.032H282.813V463.046Z" fill="#50BFD7"/>
<path fill-rule="evenodd" clip-rule="evenodd" d="M254.244 462.464H283.382V463.133L283.356 463.215L282.814 463.046C283.356 463.215 283.356 463.215 283.356 463.215L283.356 463.215L283.356 463.215L283.347 463.246C283.341 463.265 283.332 463.294 283.32 463.331C283.297 463.406 283.263 463.512 283.222 463.64C283.141 463.897 283.029 464.245 282.909 464.606C282.789 464.966 282.66 465.344 282.544 465.659C282.436 465.95 282.317 466.253 282.217 466.416C282.16 466.507 282.089 466.569 282.05 466.601C282.004 466.638 281.955 466.671 281.91 466.698C281.82 466.753 281.711 466.809 281.591 466.864C281.349 466.975 281.024 467.103 280.627 467.24C279.833 467.513 278.724 467.833 277.377 468.132C274.685 468.732 271.019 469.257 266.986 469.171M282.042 463.601H255.484C255.731 464.614 256.538 465.582 258.112 466.369C259.999 467.313 262.916 467.95 267.01 468.034L267.01 468.034C270.935 468.118 274.508 467.606 277.13 467.023C278.441 466.731 279.508 466.423 280.257 466.165C280.633 466.035 280.92 465.921 281.116 465.832C281.191 465.797 281.246 465.769 281.285 465.747C281.298 465.719 281.313 465.686 281.329 465.646C281.372 465.544 281.422 465.415 281.477 465.266C281.587 464.967 281.712 464.603 281.83 464.247C281.906 464.02 281.978 463.798 282.042 463.601ZM254.244 462.464L254.267 463.054L254.244 462.464ZM254.267 463.054C254.334 464.828 255.495 466.332 257.603 467.386L254.267 463.054ZM257.603 467.386C259.702 468.436 262.81 469.085 266.986 469.171L257.603 467.386Z" fill="#2C2C2C"/>
<path d="M282.799 463.616C281.549 464.739 279.915 465.591 278.721 465.975C275.751 466.955 272.497 467.325 269.385 467.495C266.074 467.666 262.437 467.609 259.339 466.302C257.662 465.591 256.241 464.554 254.92 463.374C254.323 461.911 254.167 460.248 254.209 458.543C254.309 455.474 255.005 452.504 255.545 449.491C255.63 449.051 255.701 448.625 255.772 448.198C255.929 446.237 256.071 444.262 256.199 442.316C256.255 441.591 256.326 440.951 256.312 440.227C256.298 439.744 256.128 438.962 256.255 438.507C256.27 438.45 256.298 438.408 256.312 438.365C256.312 438.294 256.298 438.223 256.312 438.152C256.866 437.697 257.435 437.271 258.117 437.086C258.6 437.172 259.083 437.328 259.396 437.456C259.893 437.655 260.334 437.911 260.731 438.209C261.712 436.873 264.128 436.248 265.492 436.191C267.623 436.106 270.465 436.475 272.156 438.038C272.44 437.768 272.881 437.626 273.265 437.555C273.35 437.541 273.449 437.527 273.534 437.513C274.529 437.896 274.273 440.34 274.373 441.037C274.515 441.96 274.657 442.884 274.884 443.779C275.339 445.499 275.993 447.076 276.987 448.554C278.053 450.145 279.446 451.523 280.668 452.987C280.838 453.285 281.023 453.584 281.194 453.868C282.501 455.971 283.567 459.026 283.282 461.527C283.211 462.323 283.041 463.005 282.799 463.616Z" fill="#50BFD7"/>
<path fill-rule="evenodd" clip-rule="evenodd" d="M268.86 437.049C267.732 436.786 266.541 436.717 265.515 436.758C264.893 436.784 264.006 436.943 263.164 437.253C262.309 437.568 261.583 438.008 261.189 438.544L260.849 439.007L260.39 438.663C260.029 438.392 259.632 438.162 259.184 437.983L259.182 437.982L259.18 437.981C258.926 437.877 258.54 437.75 258.146 437.67C257.71 437.813 257.311 438.081 256.88 438.423V438.457L256.851 438.544C256.839 438.58 256.826 438.611 256.817 438.629C256.813 438.639 256.809 438.648 256.806 438.654C256.804 438.659 256.802 438.663 256.801 438.666C256.77 438.781 256.768 438.991 256.796 439.304C256.804 439.389 256.815 439.488 256.826 439.591C256.849 439.802 256.875 440.033 256.88 440.209L256.88 440.212L256.88 440.215C256.892 440.835 256.845 441.403 256.797 441.972C256.786 442.1 256.775 442.227 256.765 442.355C256.637 444.303 256.495 446.28 256.338 448.243L256.337 448.267L256.332 448.294C256.261 448.717 256.19 449.148 256.103 449.595C255.987 450.243 255.865 450.884 255.743 451.521C255.293 453.882 254.854 456.186 254.777 458.558C254.737 460.177 254.882 461.706 255.398 463.038C256.663 464.156 258.002 465.117 259.56 465.777C262.53 467.03 266.054 467.097 269.355 466.927C272.449 466.757 275.644 466.391 278.542 465.434L278.545 465.433L278.547 465.433C279.639 465.082 281.146 464.302 282.318 463.281C282.514 462.753 282.654 462.163 282.716 461.476L282.716 461.469L282.717 461.462C282.982 459.135 281.98 456.21 280.71 454.167L280.708 454.163L280.706 454.16C280.66 454.083 280.612 454.005 280.563 453.924C280.444 453.727 280.318 453.519 280.199 453.312C279.838 452.881 279.45 452.445 279.055 452.001C278.175 451.01 277.258 449.979 276.515 448.869C275.479 447.329 274.802 445.691 274.334 443.924L274.334 443.921L274.333 443.918C274.099 442.996 273.953 442.05 273.813 441.136L273.81 441.119L273.81 441.116C273.781 440.918 273.777 440.627 273.772 440.345C273.772 440.315 273.772 440.285 273.771 440.255C273.765 439.921 273.757 439.559 273.723 439.212C273.689 438.859 273.631 438.558 273.543 438.337C273.496 438.221 273.451 438.15 273.413 438.106C273.395 438.109 273.379 438.111 273.363 438.114C273.011 438.18 272.708 438.297 272.547 438.45L272.161 438.816L271.77 438.455C271.022 437.763 269.992 437.313 268.86 437.049ZM272.189 437.321C271.302 436.628 270.213 436.198 269.118 435.942C267.869 435.651 266.573 435.578 265.469 435.622L265.468 435.622C264.725 435.653 263.722 435.836 262.771 436.186C262.006 436.468 261.219 436.878 260.637 437.453C260.32 437.253 259.979 437.076 259.608 436.928C259.265 436.787 258.743 436.619 258.215 436.526L258.09 436.504L257.968 436.537C257.157 436.756 256.506 437.256 255.951 437.712L255.794 437.841L255.754 438.04C255.737 438.129 255.736 438.208 255.738 438.261C255.727 438.289 255.716 438.322 255.706 438.359C255.612 438.698 255.636 439.101 255.664 439.407C255.677 439.551 255.691 439.676 255.704 439.79C255.723 439.962 255.74 440.106 255.744 440.24C255.754 440.795 255.713 441.292 255.665 441.856C255.654 441.99 255.643 442.127 255.631 442.27L255.631 442.274L255.631 442.277C255.504 444.214 255.362 446.178 255.207 448.128C255.137 448.547 255.069 448.959 254.986 449.383L254.986 449.386L254.985 449.39C254.874 450.011 254.755 450.635 254.635 451.261C254.182 453.635 253.721 456.052 253.641 458.524L253.641 458.526L253.641 458.528C253.597 460.27 253.754 462.021 254.393 463.588L254.443 463.71L254.541 463.798C255.889 465.001 257.362 466.081 259.117 466.824L259.118 466.824C262.343 468.186 266.093 468.233 269.414 468.062L269.416 468.062C272.544 467.89 275.856 467.518 278.897 466.514C280.159 466.108 281.864 465.218 283.179 464.038L283.278 463.949L283.327 463.824C283.589 463.163 283.771 462.43 283.847 461.584C284.149 458.912 283.021 455.733 281.678 453.571C281.628 453.488 281.578 453.405 281.528 453.323C281.403 453.116 281.279 452.912 281.161 452.704L281.136 452.66L281.104 452.622C280.684 452.119 280.258 451.64 279.838 451.169C278.986 450.211 278.16 449.282 277.459 448.236L277.459 448.235C276.506 446.821 275.876 445.305 275.434 443.636C275.215 442.773 275.077 441.879 274.935 440.953C274.917 440.829 274.914 440.611 274.908 440.283L274.908 440.236C274.902 439.903 274.894 439.5 274.855 439.101C274.816 438.708 274.745 438.283 274.599 437.915C274.453 437.552 274.198 437.158 273.739 436.981L273.594 436.926L273.441 436.951C273.402 436.957 273.36 436.964 273.313 436.971L273.311 436.972C273.266 436.978 273.217 436.986 273.171 436.994L273.166 436.995L273.161 436.995C272.877 437.048 272.518 437.143 272.189 437.321ZM255.78 438.164C255.78 438.164 255.78 438.164 255.78 438.164V438.164Z" fill="#2C2C2C"/>
<path fill-rule="evenodd" clip-rule="evenodd" d="M212.006 101.877V102.161H210.869V101.877H212.006Z" fill="#2C2C2C"/>
<path fill-rule="evenodd" clip-rule="evenodd" d="M217.974 105.003V105.287H216.837V105.003H217.974Z" fill="#2C2C2C"/>
<path d="M250.302 103.326C252.248 103.738 251.524 105.003 251.524 105.187C251.524 105.372 252.248 115.887 261.641 118.658C271.034 121.429 276.661 115.987 278.295 113.258C279.929 110.53 281.293 104.051 281.691 103.553C282.103 103.056 284.05 102.189 284.05 102.189L284.277 99.6455L281.833 98.9208C281.833 98.9208 275.666 96.1073 266.586 95.9794C257.52 95.8373 252.39 101.067 252.39 101.067C249.833 100.257 246.664 100.143 243.765 101.067C243.765 101.067 238.635 95.8515 229.57 95.9794C220.504 96.1215 214.322 98.9208 214.322 98.9208L211.878 99.6455L212.106 102.189C212.106 102.189 214.053 103.056 214.465 103.553C214.877 104.051 216.227 110.544 217.861 113.258C219.495 115.987 225.122 121.429 234.515 118.658C243.907 115.887 244.632 105.372 244.632 105.187C244.632 105.003 243.907 103.738 245.854 103.326C247.545 102.971 248.611 102.971 250.302 103.326ZM272.838 116.484C265.677 120.79 257.094 116.441 254.508 110.772C251.922 105.102 254.096 102.104 254.096 102.104C258.43 95.0558 275.865 94.7574 278.863 102.374C279.375 103.653 280.014 112.179 272.838 116.484ZM217.278 102.374C220.276 94.7432 237.726 95.0558 242.046 102.104C242.046 102.104 244.22 105.102 241.634 110.772C239.047 116.441 230.479 120.79 223.303 116.484C216.141 112.179 216.781 103.653 217.278 102.374Z" fill="#2C2C2C"/>
<path d="M254.692 179.632H243.779C240.88 179.632 238.521 181.991 238.521 184.89V195.803C238.521 198.701 240.88 201.06 243.779 201.06H254.692C257.591 201.06 259.949 198.701 259.949 195.803V184.89C259.949 181.991 257.605 179.632 254.692 179.632ZM235.622 174.985C233.96 174.985 232.61 176.335 232.61 177.998C232.61 179.66 233.96 181.01 235.622 181.01C237.285 181.01 238.635 179.66 238.635 177.998C238.635 176.335 237.285 174.985 235.622 174.985Z" fill="white"/>
<path d="M253.925 186.141C253.229 184.28 251.453 183.044 249.463 183.044H246.508L252.348 197.85H258.614L253.925 186.141ZM241.989 193.601L240.284 197.85H246.508L249.406 190.504H246.451C244.461 190.504 242.685 191.74 241.989 193.601ZM242.955 186.724C243.978 186.724 244.817 185.886 244.817 184.862C244.817 183.839 243.978 183.001 242.955 183.001C241.932 183.001 241.094 183.839 241.094 184.862C241.094 185.886 241.932 186.724 242.955 186.724Z" fill="#50BFD7"/>
</svg>
