<svg width="475" height="517" viewBox="0 0 475 517" fill="none" xmlns="http://www.w3.org/2000/svg">
<path d="M363.416 100.478C382.141 125.459 396.216 163.783 385.733 201.779C369.908 259.185 399.467 282.619 346.236 372.313C338.508 385.438 329.675 397.861 319.891 409.364C315.09 414.977 310.029 420.309 304.74 425.328C258.109 469.57 204.718 477.349 163.58 458.697C109.477 434.149 109.589 375.337 111.237 337.971C112.885 300.604 75.8846 234.986 127.682 146.459C135.544 132.919 144.622 120.138 154.736 108.371C177.899 81.6064 209.269 58.5078 240.262 51.8013C242.586 51.3037 244.902 50.874 247.252 50.5261C292.884 43.7028 337.883 66.4094 363.416 100.478Z" fill="#50BFD7"/>
<path opacity="0.7" d="M363.416 100.478C382.141 125.459 396.216 163.783 385.733 201.779C369.908 259.185 399.467 282.619 346.236 372.313C338.508 385.438 329.675 397.861 319.891 409.364C315.09 414.977 310.029 420.309 304.74 425.328C258.109 469.57 204.718 477.349 163.58 458.697C109.477 434.149 109.589 375.337 111.237 337.971C112.885 300.604 75.8846 234.986 127.682 146.459C135.544 132.919 144.622 120.138 154.736 108.371C177.899 81.6064 209.269 58.5078 240.262 51.8013C242.586 51.3037 244.902 50.874 247.252 50.5261C292.884 43.7028 337.883 66.4094 363.416 100.478Z" fill="white"/>
<path d="M400.696 465.387H117.304C117.224 465.387 117.146 465.351 117.089 465.285C117.032 465.22 117 465.131 117 465.039C117.002 464.947 117.034 464.859 117.091 464.794C117.148 464.729 117.224 464.692 117.304 464.69H400.696C400.776 464.692 400.852 464.729 400.909 464.794C400.966 464.859 400.998 464.947 401 465.039C401 465.131 400.968 465.22 400.911 465.285C400.854 465.351 400.776 465.387 400.696 465.387Z" fill="#263238"/>
<path d="M362.902 66.3941C362.902 70.1756 361.781 73.8722 359.68 77.0164C357.579 80.1605 354.592 82.611 351.099 84.0578C347.605 85.5047 343.76 85.883 340.052 85.1448C336.343 84.4066 332.936 82.5852 330.263 79.9109C327.589 77.2365 325.769 73.8294 325.032 70.1204C324.295 66.4114 324.674 62.5671 326.122 59.0737C327.57 55.5804 330.021 52.5949 333.166 50.4948C336.311 48.3948 340.008 47.2744 343.789 47.2756C346.303 47.2641 348.794 47.7508 351.118 48.7076C353.443 49.6644 355.555 51.0723 357.332 52.85C359.109 54.6277 360.516 56.7399 361.472 59.0646C362.428 61.3893 362.914 63.8805 362.902 66.3941Z" fill="#263238"/>
<path d="M343.778 85.7959C338.632 85.7929 333.699 83.7479 330.06 80.1102C326.421 76.4725 324.375 71.5393 324.37 66.3941C324.37 62.557 325.508 58.8061 327.64 55.6156C329.771 52.4251 332.801 49.9383 336.346 48.4696C339.891 47.001 343.792 46.6164 347.555 47.3646C351.318 48.1127 354.775 49.96 357.489 52.6728C360.203 55.3856 362.051 58.8422 362.8 62.6054C363.55 66.3686 363.166 70.2695 361.699 73.8148C360.231 77.3601 357.745 80.3907 354.555 82.5233C351.365 84.6559 347.615 85.7948 343.778 85.7959ZM343.778 47.5647C339.862 47.5639 336.044 48.7841 332.855 51.0553C329.666 53.3265 327.264 56.5357 325.984 60.236C324.704 63.9364 324.61 67.9437 325.715 71.7C326.82 75.4562 329.069 78.7745 332.148 81.1927C335.452 83.8243 339.554 85.252 343.778 85.2408C348.714 85.1542 353.418 83.1327 356.878 79.6115C360.338 76.0902 362.277 71.351 362.277 66.4143C362.277 61.4776 360.338 56.7383 356.878 53.2171C353.418 49.6959 348.714 47.6744 343.778 47.5878V47.5647Z" fill="#263238"/>
<path d="M351.758 63.3985C351.757 61.8204 351.288 60.278 350.41 58.9664C349.532 57.6548 348.286 56.6328 346.827 56.0297C345.369 55.4265 343.765 55.2693 342.217 55.5779C340.669 55.8865 339.248 56.647 338.132 57.7633C337.017 58.8796 336.257 60.3016 335.95 61.8495C335.642 63.3974 335.801 65.0018 336.405 66.4597C337.009 67.9176 338.032 69.1636 339.344 70.0403C340.656 70.9169 342.199 71.3848 343.777 71.3848C344.826 71.3848 345.864 71.1782 346.833 70.7768C347.801 70.3754 348.681 69.787 349.422 69.0453C350.164 68.3037 350.751 67.4232 351.152 66.4543C351.553 65.4854 351.759 64.447 351.758 63.3985Z" fill="white"/>
<path d="M343.778 71.6739C342.141 71.6751 340.54 71.1907 339.179 70.2821C337.817 69.3734 336.755 68.0814 336.128 66.5694C335.501 65.0573 335.336 63.3932 335.655 61.7876C335.974 60.1819 336.761 58.7068 337.918 57.5489C339.075 56.391 340.55 55.6023 342.155 55.2825C343.761 54.9627 345.425 55.1262 346.938 55.7524C348.45 56.3786 349.743 57.4393 350.652 58.8003C351.562 60.1613 352.047 61.7615 352.047 63.3985C352.046 65.5918 351.174 67.6949 349.624 69.2464C348.074 70.7978 345.971 71.6708 343.778 71.6739ZM343.778 55.7071C342.255 55.706 340.766 56.1566 339.499 57.0019C338.233 57.8473 337.245 59.0493 336.662 60.456C336.079 61.8627 335.926 63.4108 336.222 64.9045C336.519 66.3981 337.253 67.7701 338.329 68.847C339.406 69.9238 340.778 70.657 342.272 70.9538C343.765 71.2506 345.314 71.0977 346.72 70.5144C348.127 69.9311 349.329 68.9436 350.174 67.677C351.02 66.4103 351.47 64.9213 351.469 63.3985C351.468 61.3591 350.657 59.4036 349.215 57.9616C347.773 56.5195 345.817 55.7087 343.778 55.7071Z" fill="#263238"/>
<path d="M355.581 81.4186C352.216 84.0681 348.058 85.5087 343.775 85.5087C339.492 85.5087 335.334 84.0681 331.969 81.4186C332.559 78.7268 334.052 76.3175 336.199 74.5901C338.346 72.8627 341.019 71.9209 343.775 71.9209C346.531 71.9209 349.204 72.8627 351.351 74.5901C353.498 76.3175 354.991 78.7268 355.581 81.4186Z" fill="white"/>
<path d="M343.778 85.7956C339.426 85.8155 335.197 84.3508 331.79 81.6434C331.747 81.6108 331.715 81.5669 331.697 81.5168C331.678 81.4666 331.674 81.4123 331.685 81.3601C332.289 78.6029 333.817 76.1348 336.016 74.3652C338.215 72.5957 340.952 71.6309 343.775 71.6309C346.597 71.6309 349.335 72.5957 351.534 74.3652C353.733 76.1348 355.26 78.6029 355.864 81.3601C355.875 81.4123 355.871 81.4666 355.853 81.5168C355.834 81.5669 355.802 81.6108 355.76 81.6434C352.345 84.3322 348.124 85.7945 343.778 85.7956ZM332.293 81.3022C335.574 83.8573 339.619 85.2361 343.778 85.2173C347.931 85.2162 351.968 83.8395 355.257 81.3022C354.647 78.7154 353.181 76.4104 351.097 74.7608C349.013 73.1112 346.433 72.2137 343.775 72.2137C341.117 72.2137 338.537 73.1112 336.453 74.7608C334.369 76.4104 332.903 78.7154 332.293 81.3022Z" fill="#263238"/>
<path d="M383.743 119.891C383.743 124.59 382.35 129.183 379.739 133.089C377.129 136.996 373.418 140.041 369.077 141.839C364.736 143.636 359.959 144.106 355.351 143.189C350.743 142.272 346.51 140.009 343.188 136.686C339.866 133.363 337.604 129.13 336.688 124.521C335.773 119.913 336.244 115.136 338.043 110.795C339.842 106.455 342.888 102.745 346.796 100.136C350.703 97.5266 355.297 96.1346 359.995 96.136C363.118 96.1217 366.214 96.7265 369.102 97.9153C371.99 99.1041 374.614 100.853 376.822 103.062C379.03 105.271 380.779 107.896 381.967 110.784C383.155 113.673 383.758 116.768 383.743 119.891Z" fill="#50BFD7"/>
<path d="M359.981 143.998C353.588 143.994 347.458 141.453 342.936 136.933C338.415 132.413 335.872 126.284 335.867 119.89C335.867 115.123 337.28 110.462 339.929 106.498C342.578 102.534 346.342 99.4438 350.747 97.619C355.151 95.7941 359.998 95.3163 364.674 96.2459C369.35 97.1755 373.646 99.4708 377.018 102.842C380.389 106.212 382.686 110.507 383.617 115.183C384.548 119.859 384.072 124.706 382.248 129.111C380.425 133.516 377.336 137.282 373.372 139.931C369.409 142.581 364.749 143.996 359.981 143.998ZM359.981 96.4946C355.116 96.4936 350.372 98.0096 346.409 100.832C342.446 103.654 339.462 107.641 337.872 112.239C336.282 116.837 336.165 121.816 337.538 126.483C338.911 131.15 341.705 135.273 345.531 138.278C349.636 141.548 354.733 143.322 359.981 143.308C366.114 143.2 371.96 140.689 376.259 136.313C380.558 131.938 382.967 126.05 382.967 119.916C382.967 113.782 380.558 107.893 376.259 103.518C371.96 99.1426 366.114 96.6308 359.981 96.5233V96.4946Z" fill="#50BFD7"/>
<path d="M369.897 116.169C369.895 114.208 369.313 112.291 368.222 110.661C367.132 109.032 365.583 107.762 363.771 107.013C361.959 106.263 359.965 106.068 358.042 106.451C356.119 106.835 354.353 107.78 352.967 109.167C351.581 110.554 350.637 112.321 350.255 114.244C349.873 116.167 350.07 118.161 350.82 119.972C351.571 121.783 352.842 123.332 354.473 124.421C356.103 125.51 358.02 126.092 359.981 126.092C361.284 126.092 362.574 125.835 363.777 125.336C364.981 124.837 366.074 124.106 366.995 123.185C367.916 122.263 368.646 121.169 369.144 119.965C369.642 118.761 369.898 117.471 369.897 116.169Z" fill="white"/>
<path d="M359.981 126.451C357.947 126.452 355.959 125.85 354.267 124.721C352.575 123.592 351.256 121.987 350.477 120.108C349.697 118.229 349.493 116.162 349.889 114.167C350.285 112.171 351.263 110.339 352.701 108.9C354.139 107.461 355.971 106.481 357.966 106.084C359.96 105.687 362.028 105.89 363.908 106.668C365.787 107.446 367.393 108.764 368.523 110.455C369.653 112.146 370.257 114.134 370.257 116.168C370.255 118.893 369.172 121.507 367.245 123.434C365.319 125.362 362.707 126.447 359.981 126.451ZM359.981 106.611C358.089 106.61 356.239 107.17 354.665 108.22C353.092 109.271 351.865 110.764 351.14 112.512C350.415 114.26 350.225 116.183 350.594 118.039C350.963 119.895 351.874 121.6 353.212 122.938C354.55 124.276 356.254 125.187 358.11 125.556C359.966 125.925 361.89 125.735 363.638 125.01C365.385 124.285 366.879 123.058 367.929 121.484C368.98 119.91 369.54 118.06 369.538 116.168C369.536 113.634 368.529 111.204 366.737 109.413C364.945 107.621 362.515 106.613 359.981 106.611Z" fill="#50BFD7"/>
<path d="M374.647 138.558C370.466 141.85 365.299 143.64 359.978 143.64C354.656 143.64 349.49 141.85 345.309 138.558C346.042 135.213 347.896 132.22 350.564 130.073C353.232 127.927 356.554 126.757 359.978 126.757C363.402 126.757 366.723 127.927 369.391 130.073C372.059 132.22 373.913 135.213 374.647 138.558Z" fill="white"/>
<path d="M359.981 143.997C354.574 144.022 349.32 142.202 345.086 138.838C345.033 138.798 344.993 138.743 344.97 138.681C344.947 138.619 344.943 138.551 344.956 138.486C345.706 135.06 347.605 131.994 350.337 129.795C353.069 127.596 356.471 126.397 359.978 126.397C363.485 126.397 366.886 127.596 369.618 129.795C372.35 131.994 374.249 135.06 374.999 138.486C375.013 138.551 375.008 138.619 374.985 138.681C374.962 138.743 374.922 138.798 374.869 138.838C370.626 142.179 365.382 143.996 359.981 143.997ZM345.711 138.414C349.788 141.589 354.814 143.302 359.981 143.279C365.142 143.278 370.158 141.567 374.244 138.414C373.486 135.2 371.665 132.336 369.075 130.286C366.486 128.237 363.28 127.122 359.978 127.122C356.675 127.122 353.469 128.237 350.88 130.286C348.291 132.336 346.469 135.2 345.711 138.414Z" fill="#50BFD7"/>
<path d="M127.47 211.047C142.397 211.047 154.498 198.947 154.498 184.02C154.498 169.093 142.397 156.992 127.47 156.992C112.543 156.992 100.442 169.093 100.442 184.02C100.442 198.947 112.543 211.047 127.47 211.047Z" fill="#50BFD7"/>
<path fill-rule="evenodd" clip-rule="evenodd" d="M125.243 186.247V199.21H129.697V186.247H142.66V181.793H129.697V168.801H125.243V181.793H112.251V186.247H125.243Z" fill="white"/>
<path opacity="0.3" fill-rule="evenodd" clip-rule="evenodd" d="M102.971 284.807C102.971 284.357 103.336 283.992 103.786 283.992H157.185C157.635 283.992 158 284.357 158 284.807V337.227C158 337.678 157.635 338.043 157.185 338.043H103.786C103.336 338.043 102.971 337.678 102.971 337.227V284.807ZM104.602 285.623V336.412H156.369V285.623H104.602Z" fill="#454545"/>
<path opacity="0.3" fill-rule="evenodd" clip-rule="evenodd" d="M133.39 288.766C132.137 288.869 131.208 289.111 130.706 289.417L130.602 289.48L130.484 289.51L130.479 289.512L130.457 289.517L130.366 289.542C130.286 289.564 130.167 289.597 130.013 289.641C129.707 289.73 129.266 289.864 128.734 290.042C127.668 290.399 126.247 290.931 124.817 291.63C123.38 292.332 121.968 293.186 120.895 294.176C119.817 295.17 119.152 296.234 119.044 297.358L119.043 297.371L119.041 297.384C118.698 300.065 118.698 302.779 119.041 305.46L119.146 306.278L118.339 306.372C118.335 306.373 118.328 306.374 118.318 306.376C118.289 306.383 118.24 306.397 118.181 306.421C118.062 306.469 117.913 306.554 117.785 306.703C117.564 306.958 117.202 307.639 117.695 309.349L117.699 309.362L117.703 309.376C118.191 311.324 119.312 313.055 120.889 314.298L121.085 314.453L122.862 319.996L121.856 324.102H119.164L119.651 329.085L118.958 329.249L118.92 329.258L118.807 329.285C118.708 329.308 118.563 329.344 118.376 329.389C118.004 329.481 117.469 329.614 116.823 329.78C115.53 330.113 113.795 330.578 112.02 331.109C110.241 331.642 108.439 332.234 107.008 332.821C106.291 333.115 105.685 333.399 105.229 333.665C104.917 333.846 104.719 333.994 104.602 334.101V336.412H156.369V335.815L155.711 335.228L155.695 335.211C155.512 335.028 155.137 334.767 154.548 334.443C153.976 334.129 153.259 333.785 152.442 333.426C150.809 332.708 148.821 331.944 146.888 331.244C144.957 330.544 143.091 329.91 141.708 329.452C141.016 329.223 140.446 329.037 140.048 328.909C139.85 328.845 139.694 328.796 139.589 328.762L139.469 328.724L139.429 328.711L138.912 328.549L138.642 325.689L135.749 325.159L134.727 318.899L135.527 318.765L135.535 318.764L135.568 318.758C135.599 318.752 135.646 318.743 135.707 318.731C135.83 318.705 136.012 318.665 136.235 318.608C136.684 318.494 137.298 318.313 137.957 318.045C139.308 317.497 140.696 316.65 141.373 315.425C141.498 315.198 141.605 314.815 141.659 314.248C141.711 313.694 141.707 313.026 141.655 312.276C141.552 310.777 141.264 309.026 140.921 307.343C140.578 305.663 140.185 304.072 139.876 302.9C139.722 302.314 139.59 301.834 139.496 301.501C139.449 301.334 139.412 301.205 139.387 301.117L139.358 301.017L139.35 300.993L139.349 300.987L139.348 300.985L139.247 300.643L139.429 300.337L139.433 300.329L139.452 300.297C139.469 300.267 139.495 300.222 139.527 300.162C139.593 300.042 139.686 299.865 139.794 299.644C140.011 299.199 140.282 298.584 140.503 297.895C140.967 296.453 141.125 294.963 140.51 293.955L137.573 289.139L139.889 290.104L139.893 290.106L139.906 290.111L139.961 290.134C140.01 290.154 140.082 290.183 140.174 290.219C140.357 290.291 140.617 290.392 140.922 290.504C141.538 290.729 142.319 290.992 143.023 291.165C143.31 291.236 143.571 291.288 143.794 291.318C143.39 290.781 142.584 290.257 141.428 289.817C140.282 289.381 138.893 289.065 137.468 288.885C136.044 288.706 134.614 288.666 133.39 288.766ZM141.484 292.42C141.86 292.54 142.254 292.655 142.634 292.749C143.027 292.845 143.426 292.924 143.789 292.958C144.126 292.989 144.542 292.995 144.903 292.856C145.099 292.78 145.321 292.647 145.484 292.412C145.653 292.169 145.705 291.896 145.688 291.645C145.658 291.2 145.411 290.765 145.124 290.374C144.447 289.451 143.282 288.778 142.009 288.293C140.711 287.8 139.19 287.459 137.672 287.268C136.152 287.076 134.608 287.031 133.257 287.141C131.992 287.245 130.798 287.493 129.966 287.961L129.938 287.969C129.85 287.993 129.721 288.028 129.559 288.075C129.234 288.17 128.771 288.31 128.216 288.496C127.107 288.868 125.615 289.425 124.101 290.165C122.593 290.902 121.025 291.837 119.789 292.978C118.56 294.111 117.587 295.515 117.422 297.189C117.091 299.786 117.066 302.411 117.346 305.012C117.094 305.142 116.81 305.338 116.553 305.635C115.846 306.45 115.546 307.77 116.125 309.787C116.682 311.997 117.93 313.969 119.683 315.42L121.169 320.055L120.577 322.472H117.366L117.89 327.83C117.519 327.921 117.015 328.047 116.416 328.201C115.111 328.537 113.354 329.008 111.552 329.547C109.754 330.085 107.894 330.696 106.39 331.312C105.638 331.62 104.957 331.937 104.409 332.256C103.892 332.556 103.38 332.922 103.098 333.367L102.971 333.567V338.043H158V335.085L156.83 334.041C156.475 333.692 155.936 333.346 155.333 333.015C154.703 332.668 153.938 332.303 153.098 331.934C151.417 331.194 149.39 330.416 147.443 329.711C145.494 329.004 143.613 328.366 142.221 327.904C141.524 327.673 140.949 327.487 140.548 327.357C140.508 327.345 140.47 327.332 140.434 327.321L140.15 324.308L137.173 323.762L136.591 320.2C136.607 320.196 136.622 320.192 136.638 320.188C137.139 320.061 137.826 319.858 138.569 319.556C140.022 318.967 141.846 317.939 142.8 316.213C143.082 315.702 143.22 315.061 143.282 314.401C143.346 313.728 143.337 312.965 143.282 312.164C143.171 310.562 142.868 308.731 142.518 307.017C142.168 305.298 141.766 303.676 141.453 302.485C141.296 301.889 141.161 301.4 141.065 301.059C141.044 300.983 141.025 300.914 141.007 300.853C141.077 300.723 141.164 300.556 141.26 300.358C141.5 299.866 141.804 299.177 142.055 298.394C142.538 296.893 142.918 294.772 141.902 293.106L141.484 292.42Z" fill="#454545"/>
<path d="M333.412 321.015L344.735 429.492" stroke="#263238" stroke-width="2" stroke-miterlimit="10"/>
<path d="M342.909 408.736L337.778 403.315" stroke="#263238" stroke-width="2" stroke-miterlimit="10"/>
<path d="M339.335 404.936C339.325 404.106 339.138 403.289 338.785 402.538C338.432 401.787 337.922 401.121 337.29 400.584C335.973 399.409 329.038 396.493 328.38 398.935C327.665 401.589 334.763 406.832 339.335 404.936Z" fill="#50BFD7" stroke="#263238" stroke-miterlimit="10"/>
<path d="M339.335 404.936L332.732 400.824" stroke="#263238" stroke-width="0.5" stroke-miterlimit="10"/>
<path d="M344.197 421.07L339.059 415.649" stroke="#263238" stroke-width="2" stroke-miterlimit="10"/>
<path d="M340.623 417.27C340.613 416.44 340.426 415.623 340.073 414.872C339.72 414.121 339.21 413.455 338.578 412.918C337.262 411.743 330.327 408.827 329.669 411.269C328.954 413.908 336.052 419.138 340.623 417.27Z" fill="#50BFD7" stroke="#263238" stroke-miterlimit="10"/>
<path d="M340.623 417.271L334.021 413.159" stroke="#263238" stroke-width="0.5" stroke-miterlimit="10"/>
<path d="M339.767 378.632L334.636 373.211" stroke="#263238" stroke-width="2" stroke-miterlimit="10"/>
<path d="M336.193 374.832C336.183 374.003 335.996 373.185 335.643 372.434C335.29 371.683 334.78 371.017 334.148 370.48C332.831 369.306 325.896 366.39 325.238 368.831C324.538 371.485 331.614 376.701 336.193 374.832Z" fill="#50BFD7" stroke="#263238" stroke-miterlimit="10"/>
<path d="M336.193 374.832L329.59 370.721" stroke="#263238" stroke-width="0.5" stroke-miterlimit="10"/>
<path d="M341.055 390.967L335.924 385.546" stroke="#263238" stroke-width="2" stroke-miterlimit="10"/>
<path d="M337.481 387.166C337.471 386.337 337.283 385.519 336.931 384.768C336.578 384.018 336.068 383.351 335.436 382.814C334.12 381.64 327.185 378.724 326.527 381.165C325.812 383.819 332.91 389.035 337.481 387.166Z" fill="#50BFD7" stroke="#263238" stroke-miterlimit="10"/>
<path d="M337.481 387.166L330.878 383.055" stroke="#263238" stroke-width="0.5" stroke-miterlimit="10"/>
<path d="M337.672 358.592L332.542 353.171" stroke="#263238" stroke-width="2" stroke-miterlimit="10"/>
<path d="M334.099 354.791C334.089 353.962 333.903 353.145 333.551 352.394C333.2 351.643 332.691 350.977 332.06 350.439C330.744 349.264 323.83 346.349 323.123 348.804C322.415 351.444 329.534 356.659 334.099 354.791Z" fill="#50BFD7" stroke="#263238" stroke-miterlimit="10"/>
<path d="M334.098 354.791L327.503 350.68" stroke="#263238" stroke-width="0.5" stroke-miterlimit="10"/>
<path d="M335.57 338.466L330.44 333.045" stroke="#263238" stroke-width="2" stroke-miterlimit="10"/>
<path d="M332.004 334.652C331.992 333.822 331.804 333.005 331.451 332.255C331.099 331.504 330.59 330.837 329.959 330.299C328.642 329.125 321.707 326.202 321.049 328.644C320.334 331.318 327.432 336.534 332.004 334.652Z" fill="#50BFD7" stroke="#263238" stroke-miterlimit="10"/>
<path d="M332.004 334.665L325.401 330.554" stroke="#263238" stroke-width="0.5" stroke-miterlimit="10"/>
<path d="M342.045 401.433L345.945 395.071" stroke="#263238" stroke-width="2" stroke-miterlimit="10"/>
<path d="M344.756 396.981C344.595 396.168 344.61 395.33 344.801 394.523C344.991 393.716 345.352 392.959 345.86 392.304C346.9 390.888 353.085 386.593 354.231 388.843C355.477 391.299 349.61 397.866 344.756 396.981Z" fill="#50BFD7" stroke="#263238" stroke-miterlimit="10"/>
<path d="M344.756 396.981L350.7 391.299" stroke="#263238" stroke-width="0.5" stroke-miterlimit="10"/>
<path d="M338.656 368.972L342.562 362.604" stroke="#263238" stroke-width="2" stroke-miterlimit="10"/>
<path d="M341.366 364.514C341.205 363.701 341.221 362.862 341.411 362.055C341.601 361.249 341.963 360.492 342.47 359.836C343.517 358.421 349.695 354.125 350.842 356.383C352.094 358.831 346.228 365.398 341.366 364.514Z" fill="#50BFD7" stroke="#263238" stroke-miterlimit="10"/>
<path d="M341.366 364.514L347.311 358.839" stroke="#263238" stroke-width="0.5" stroke-miterlimit="10"/>
<path d="M337.169 354.706L341.069 348.337" stroke="#263238" stroke-width="2" stroke-miterlimit="10"/>
<path d="M339.88 350.22C339.719 349.407 339.734 348.569 339.923 347.763C340.112 346.956 340.472 346.199 340.977 345.542C342.024 344.127 348.209 339.831 349.356 342.089C350.601 344.559 344.735 351.133 339.88 350.22Z" fill="#50BFD7" stroke="#263238" stroke-miterlimit="10"/>
<path d="M339.88 350.248L345.824 344.572" stroke="#263238" stroke-width="0.5" stroke-miterlimit="10"/>
<path d="M334.983 333.788L338.889 327.426" stroke="#263238" stroke-width="2" stroke-miterlimit="10"/>
<path d="M337.693 329.337C337.533 328.522 337.548 327.683 337.739 326.875C337.929 326.067 338.29 325.309 338.797 324.652C339.845 323.237 346.023 318.948 347.169 321.198C348.421 323.647 342.555 330.221 337.693 329.337Z" fill="#50BFD7" stroke="#263238" stroke-miterlimit="10"/>
<path d="M337.693 329.337L343.638 323.654" stroke="#263238" stroke-width="0.5" stroke-miterlimit="10"/>
<path d="M333.313 320.413C333.152 319.6 333.167 318.762 333.358 317.955C333.548 317.148 333.909 316.391 334.417 315.736C335.464 314.32 341.642 310.025 342.788 312.282C344.041 314.731 338.174 321.298 333.313 320.413Z" fill="#50BFD7" stroke="#263238" stroke-miterlimit="10"/>
<path d="M333.313 320.413L339.257 314.737" stroke="#263238" stroke-width="0.5" stroke-miterlimit="10"/>
<path d="M333.659 320.661C332.834 320.735 332.002 320.632 331.22 320.359C330.438 320.085 329.723 319.648 329.123 319.076C327.814 317.887 324.17 311.291 326.562 310.386C329.13 309.402 335.046 315.92 333.659 320.661Z" fill="#50BFD7" stroke="#263238" stroke-miterlimit="10"/>
<path d="M333.66 320.661L328.635 314.157" stroke="#263238" stroke-width="0.5" stroke-miterlimit="10"/>
<path d="M363.268 335.953L352.009 444.438" stroke="#263238" stroke-width="2" stroke-miterlimit="10"/>
<path d="M354.5 423.745L350.594 417.391" stroke="#263238" stroke-width="2" stroke-miterlimit="10"/>
<path d="M351.79 419.295C351.956 418.484 351.946 417.647 351.762 416.84C351.577 416.033 351.223 415.275 350.721 414.617C349.674 413.202 343.489 408.913 342.343 411.171C341.062 413.619 346.928 420.186 351.79 419.295Z" fill="#50BFD7" stroke="#263238" stroke-miterlimit="10"/>
<path d="M351.79 419.294L346.178 413.916" stroke="#263238" stroke-width="0.5" stroke-miterlimit="10"/>
<path d="M357.628 393.642L353.722 387.28" stroke="#263238" stroke-width="2" stroke-miterlimit="10"/>
<path d="M354.91 389.191C355.071 388.378 355.056 387.539 354.865 386.732C354.675 385.926 354.314 385.169 353.806 384.513C352.759 383.098 346.574 378.809 345.428 381.06C344.182 383.515 350.056 390.075 354.91 389.191Z" fill="#50BFD7" stroke="#263238" stroke-miterlimit="10"/>
<path d="M354.911 389.19L349.299 383.805" stroke="#263238" stroke-width="0.5" stroke-miterlimit="10"/>
<path d="M356.347 405.983L352.441 399.621" stroke="#263238" stroke-width="2" stroke-miterlimit="10"/>
<path d="M353.63 401.532C353.791 400.718 353.776 399.878 353.585 399.07C353.395 398.262 353.034 397.504 352.526 396.848C351.479 395.432 345.301 391.144 344.154 393.401C342.937 395.85 348.775 402.417 353.63 401.532Z" fill="#50BFD7" stroke="#263238" stroke-miterlimit="10"/>
<path d="M353.63 401.532L348.018 396.146" stroke="#263238" stroke-width="0.5" stroke-miterlimit="10"/>
<path d="M359.709 373.6L355.802 367.238" stroke="#263238" stroke-width="2" stroke-miterlimit="10"/>
<path d="M356.991 369.15C357.152 368.337 357.137 367.498 356.946 366.691C356.756 365.884 356.395 365.128 355.887 364.472C354.84 363.057 348.655 358.768 347.509 361.019C346.263 363.474 352.137 370.034 356.991 369.15Z" fill="#50BFD7" stroke="#263238" stroke-miterlimit="10"/>
<path d="M356.991 369.15L351.379 363.765" stroke="#263238" stroke-width="0.5" stroke-miterlimit="10"/>
<path d="M361.796 353.475L357.89 347.113" stroke="#263238" stroke-width="2" stroke-miterlimit="10"/>
<path d="M359.079 349.023C359.24 348.209 359.225 347.37 359.034 346.562C358.844 345.753 358.483 344.996 357.975 344.339C356.928 342.923 350.743 338.635 349.596 340.892C348.351 343.341 354.26 349.908 359.079 349.023Z" fill="#50BFD7" stroke="#263238" stroke-miterlimit="10"/>
<path d="M359.079 349.023L353.467 343.638" stroke="#263238" stroke-width="0.5" stroke-miterlimit="10"/>
<path d="M355.158 416.428L360.289 411.008" stroke="#263238" stroke-width="2" stroke-miterlimit="10"/>
<path d="M358.732 412.628C358.737 411.795 358.922 410.972 359.273 410.216C359.625 409.46 360.136 408.789 360.77 408.248C362.086 407.066 369.021 404.151 369.679 406.592C370.394 409.274 363.303 414.497 358.732 412.628Z" fill="#50BFD7" stroke="#263238" stroke-miterlimit="10"/>
<path d="M358.732 412.628L365.717 408.297" stroke="#263238" stroke-width="0.5" stroke-miterlimit="10"/>
<path d="M358.527 383.961L363.657 378.54" stroke="#263238" stroke-width="2" stroke-miterlimit="10"/>
<path d="M362.101 380.16C362.11 379.331 362.296 378.514 362.648 377.763C362.999 377.013 363.508 376.346 364.139 375.808C365.455 374.634 372.39 371.711 373.048 374.152C373.763 376.806 366.672 382.064 362.101 380.16Z" fill="#50BFD7" stroke="#263238" stroke-miterlimit="10"/>
<path d="M362.101 380.161L369.085 375.83" stroke="#263238" stroke-width="0.5" stroke-miterlimit="10"/>
<path d="M360.013 369.694L365.137 364.267" stroke="#263238" stroke-width="2" stroke-miterlimit="10"/>
<path d="M363.58 365.894C363.589 365.065 363.775 364.248 364.127 363.497C364.478 362.746 364.987 362.08 365.618 361.542C366.934 360.36 373.869 357.445 374.527 359.886C375.242 362.54 368.151 367.762 363.58 365.894Z" fill="#50BFD7" stroke="#263238" stroke-miterlimit="10"/>
<path d="M363.58 365.894L370.564 361.563" stroke="#263238" stroke-width="0.5" stroke-miterlimit="10"/>
<path d="M362.178 348.776L367.309 343.355" stroke="#263238" stroke-width="2" stroke-miterlimit="10"/>
<path d="M365.752 344.976C365.762 344.147 365.948 343.33 366.3 342.579C366.651 341.828 367.16 341.162 367.79 340.624C369.106 339.449 376.041 336.526 376.699 338.968C377.414 341.621 370.323 346.844 365.752 344.976Z" fill="#50BFD7" stroke="#263238" stroke-miterlimit="10"/>
<path d="M365.752 344.975L372.737 340.645" stroke="#263238" stroke-width="0.5" stroke-miterlimit="10"/>
<path d="M363.304 335.359C363.313 334.53 363.5 333.713 363.852 332.962C364.203 332.211 364.711 331.545 365.342 331.006C366.658 329.832 373.586 326.909 374.251 329.351C374.966 331.99 367.875 337.213 363.304 335.359Z" fill="#50BFD7" stroke="#263238" stroke-miterlimit="10"/>
<path d="M363.304 335.345L370.288 331.014" stroke="#263238" stroke-width="0.5" stroke-miterlimit="10"/>
<path d="M363.587 335.656C362.763 335.561 361.968 335.29 361.258 334.861C360.547 334.433 359.937 333.857 359.468 333.172C358.435 331.757 356.263 324.538 358.761 324.142C361.471 323.703 365.922 331.311 363.587 335.656Z" fill="#50BFD7" stroke="#263238" stroke-miterlimit="10"/>
<path d="M363.587 335.656L360.006 328.254" stroke="#263238" stroke-width="0.5" stroke-miterlimit="10"/>
<path d="M350.368 291.781V428.968" stroke="#263238" stroke-width="2" stroke-miterlimit="10"/>
<path d="M350.481 408.339L345.938 402.416" stroke="#263238" stroke-width="2" stroke-miterlimit="10"/>
<path d="M347.317 404.193C347.394 403.367 347.293 402.534 347.021 401.75C346.748 400.967 346.311 400.251 345.739 399.65C344.55 398.341 337.955 394.696 337.049 397.081C336.066 399.65 342.583 405.573 347.317 404.193Z" fill="#50BFD7" stroke="#263238" stroke-miterlimit="10"/>
<path d="M347.317 404.193L341.182 399.416" stroke="#263238" stroke-width="0.5" stroke-miterlimit="10"/>
<path d="M350.481 382.56L345.938 376.637" stroke="#263238" stroke-width="2" stroke-miterlimit="10"/>
<path d="M347.317 378.413C347.394 377.587 347.293 376.754 347.021 375.97C346.748 375.187 346.311 374.47 345.739 373.87C344.55 372.56 337.955 368.916 337.049 371.301C336.066 373.87 342.583 379.793 347.317 378.413Z" fill="#50BFD7" stroke="#263238" stroke-miterlimit="10"/>
<path d="M347.317 378.412L341.182 373.636" stroke="#263238" stroke-width="0.5" stroke-miterlimit="10"/>
<path d="M350.481 352.293L345.938 346.37" stroke="#263238" stroke-width="2" stroke-miterlimit="10"/>
<path d="M347.317 348.146C347.394 347.32 347.293 346.487 347.021 345.704C346.748 344.92 346.311 344.204 345.739 343.603C344.55 342.294 337.955 338.649 337.049 341.034C336.066 343.603 342.583 349.512 347.317 348.146Z" fill="#50BFD7" stroke="#263238" stroke-miterlimit="10"/>
<path d="M347.317 348.146L341.182 343.369" stroke="#263238" stroke-width="0.5" stroke-miterlimit="10"/>
<path d="M350.481 332.139L345.938 326.216" stroke="#263238" stroke-width="2" stroke-miterlimit="10"/>
<path d="M347.317 327.992C347.394 327.167 347.293 326.335 347.02 325.552C346.748 324.77 346.311 324.055 345.739 323.455C344.55 322.146 337.955 318.502 337.049 320.887C336.066 323.455 342.583 329.379 347.317 327.992Z" fill="#50BFD7" stroke="#263238" stroke-miterlimit="10"/>
<path d="M347.317 327.992L341.182 323.223" stroke="#263238" stroke-width="0.5" stroke-miterlimit="10"/>
<path d="M350.481 311.907L345.938 305.983" stroke="#263238" stroke-width="2" stroke-miterlimit="10"/>
<path d="M347.317 307.759C347.394 306.933 347.293 306.101 347.021 305.317C346.748 304.533 346.311 303.817 345.739 303.216C344.55 301.907 337.955 298.263 337.049 300.647C336.066 303.216 342.583 309.175 347.317 307.759Z" fill="#50BFD7" stroke="#263238" stroke-miterlimit="10"/>
<path d="M347.317 307.76L341.182 302.983" stroke="#263238" stroke-width="0.5" stroke-miterlimit="10"/>
<path d="M350.381 416.209L354.917 410.286" stroke="#263238" stroke-width="2" stroke-miterlimit="10"/>
<path d="M353.552 412.062C353.476 411.236 353.577 410.403 353.849 409.619C354.121 408.836 354.558 408.12 355.13 407.519C356.319 406.217 362.914 402.565 363.82 404.957C364.797 407.54 358.279 413.449 353.552 412.062Z" fill="#50BFD7" stroke="#263238" stroke-miterlimit="10"/>
<path d="M353.538 412.062L360.041 407.03" stroke="#263238" stroke-width="0.5" stroke-miterlimit="10"/>
<path d="M350.381 375.207L354.917 369.284" stroke="#263238" stroke-width="2" stroke-miterlimit="10"/>
<path d="M353.552 371.06C353.476 370.234 353.577 369.401 353.849 368.617C354.121 367.834 354.558 367.118 355.13 366.517C356.319 365.215 362.914 361.563 363.82 363.955C364.797 366.496 358.279 372.447 353.552 371.06Z" fill="#50BFD7" stroke="#263238" stroke-miterlimit="10"/>
<path d="M353.538 371.06L360.041 366.028" stroke="#263238" stroke-width="0.5" stroke-miterlimit="10"/>
<path d="M350.381 354.975L354.917 349.045" stroke="#263238" stroke-width="2" stroke-miterlimit="10"/>
<path d="M353.552 350.829C353.476 350.003 353.577 349.17 353.849 348.386C354.121 347.603 354.558 346.886 355.13 346.286C356.319 344.976 362.914 341.332 363.82 343.717C364.797 346.286 358.279 352.209 353.552 350.829Z" fill="#50BFD7" stroke="#263238" stroke-miterlimit="10"/>
<path d="M353.538 350.828L360.041 345.789" stroke="#263238" stroke-width="0.5" stroke-miterlimit="10"/>
<path d="M350.381 328.226L354.917 322.303" stroke="#263238" stroke-width="2" stroke-miterlimit="10"/>
<path d="M353.552 324.079C353.476 323.253 353.577 322.42 353.849 321.636C354.121 320.853 354.558 320.136 355.13 319.536C356.319 318.226 362.914 314.582 363.82 316.967C364.797 319.536 358.279 325.452 353.552 324.079Z" fill="#50BFD7" stroke="#263238" stroke-miterlimit="10"/>
<path d="M353.538 324.078L360.041 319.047" stroke="#263238" stroke-width="0.5" stroke-miterlimit="10"/>
<path d="M350.381 307.194L354.917 301.271" stroke="#263238" stroke-width="2" stroke-miterlimit="10"/>
<path d="M353.552 303.046C353.476 302.22 353.577 301.387 353.849 300.604C354.121 299.82 354.558 299.104 355.13 298.503C356.319 297.201 362.914 293.55 363.82 295.941C364.797 298.503 358.279 304.426 353.552 303.046Z" fill="#50BFD7" stroke="#263238" stroke-miterlimit="10"/>
<path d="M353.538 303.047L360.041 298.016" stroke="#263238" stroke-width="0.5" stroke-miterlimit="10"/>
<path d="M350.106 293.72C350.029 292.894 350.131 292.061 350.403 291.278C350.675 290.494 351.112 289.778 351.684 289.177C352.873 287.875 359.468 284.223 360.374 286.615C361.336 289.177 354.847 295.107 350.106 293.72Z" fill="#50BFD7" stroke="#263238" stroke-miterlimit="10"/>
<path d="M350.105 293.72L356.609 288.688" stroke="#263238" stroke-width="0.5" stroke-miterlimit="10"/>
<path d="M350.424 294.003C349.594 293.991 348.776 293.802 348.026 293.448C347.275 293.094 346.609 292.583 346.072 291.951C344.897 290.635 341.989 283.699 344.43 283.041C347.084 282.334 352.292 289.431 350.424 294.003Z" fill="#50BFD7" stroke="#263238" stroke-miterlimit="10"/>
<path d="M350.424 294.002L346.1 287.011" stroke="#263238" stroke-width="0.5" stroke-miterlimit="10"/>
<path d="M356.014 464.542H341.486L339.667 427.85H357.826L356.014 464.542Z" fill="#263238" stroke="#263238" stroke-miterlimit="10"/>
<path d="M145.603 232.841C145.603 232.841 141.308 231.906 139.658 229.788C137.992 227.67 137.014 226.735 131.199 224.208C125.429 221.68 123.136 218.408 123.136 218.408C123.136 218.408 119.104 222.104 127.957 226.34C133.376 228.941 115.569 228.561 110.208 227.962C110.208 227.962 107.111 229.656 112.238 232.14C117.366 234.623 112.428 234.813 122.581 239.093C132.719 243.388 144.77 245.638 147.225 239.517C149.679 233.396 145.603 232.841 145.603 232.841Z" fill="white"/>
<path fill-rule="evenodd" clip-rule="evenodd" d="M123.136 218.409L122.741 217.978L123.232 217.528L123.614 218.073L123.614 218.073L123.614 218.073L123.614 218.073L123.614 218.074L123.617 218.077C123.62 218.081 123.625 218.089 123.633 218.099C123.648 218.119 123.672 218.151 123.706 218.194C123.773 218.28 123.878 218.409 124.023 218.574C124.312 218.902 124.762 219.372 125.389 219.922C126.643 221.02 128.608 222.436 131.433 223.673C134.344 224.938 136.087 225.822 137.316 226.671C138.567 227.535 139.271 228.351 140.117 229.428L140.118 229.429L140.118 229.43C140.84 230.356 142.196 231.073 143.461 231.565C144.08 231.806 144.649 231.983 145.065 232.1C145.272 232.159 145.44 232.202 145.555 232.23C145.612 232.244 145.657 232.255 145.686 232.262C145.697 232.264 145.705 232.266 145.712 232.268C145.724 232.27 145.739 232.272 145.757 232.276C145.797 232.283 145.852 232.295 145.917 232.311C146.049 232.345 146.228 232.4 146.432 232.487C146.839 232.662 147.361 232.975 147.793 233.523C148.687 234.657 149.035 236.574 147.767 239.735C147.078 241.453 145.716 242.562 143.961 243.188C142.221 243.809 140.077 243.965 137.742 243.795C133.067 243.454 127.454 241.793 122.353 239.632C117.269 237.489 115.836 236.323 115.059 235.296C114.922 235.116 114.804 234.936 114.7 234.778C114.666 234.726 114.633 234.676 114.602 234.63C114.471 234.435 114.343 234.26 114.168 234.078C113.818 233.713 113.234 233.272 111.984 232.667C110.668 232.029 109.818 231.415 109.312 230.818C108.792 230.205 108.621 229.588 108.725 229.016C108.824 228.475 109.149 228.08 109.404 227.841C109.535 227.717 109.661 227.623 109.754 227.559C109.801 227.526 109.841 227.501 109.871 227.483C109.886 227.474 109.898 227.467 109.908 227.461C109.912 227.459 109.916 227.456 109.92 227.454L109.924 227.452L109.926 227.451L109.927 227.451C109.927 227.45 109.927 227.45 110.208 227.963L109.927 227.45L110.089 227.362L110.273 227.382C112.922 227.678 118.685 227.922 123.105 227.768C125.337 227.69 127.142 227.512 128.044 227.22C128.112 227.198 128.17 227.176 128.22 227.156C128.103 227.076 127.935 226.979 127.704 226.868C123.223 224.724 121.764 222.606 121.644 220.826C121.584 219.952 121.859 219.242 122.139 218.759C122.279 218.518 122.424 218.328 122.535 218.198C122.59 218.132 122.638 218.081 122.674 218.044C122.692 218.026 122.707 218.011 122.718 218C122.724 217.995 122.729 217.99 122.732 217.986L122.737 217.982L122.739 217.98L122.74 217.979C122.741 217.979 122.741 217.978 123.136 218.409ZM128.412 227.321C128.412 227.321 128.411 227.32 128.411 227.319C128.411 227.32 128.412 227.321 128.412 227.321ZM110.354 228.566C110.309 228.6 110.257 228.642 110.204 228.692C110.038 228.848 109.91 229.032 109.875 229.225C109.846 229.387 109.862 229.66 110.204 230.062C110.559 230.482 111.245 231.011 112.493 231.615C113.807 232.251 114.527 232.765 115.011 233.268C115.253 233.52 115.424 233.757 115.572 233.978C115.616 234.043 115.656 234.104 115.694 234.162C115.792 234.31 115.88 234.444 115.991 234.591C116.566 235.35 117.739 236.419 122.808 238.556L122.809 238.556C127.846 240.69 133.327 242.301 137.827 242.629C140.078 242.793 142.041 242.632 143.568 242.087C145.08 241.548 146.144 240.643 146.682 239.3C147.869 236.341 147.406 234.92 146.875 234.246C146.595 233.89 146.251 233.682 145.971 233.561C145.831 233.501 145.711 233.465 145.629 233.444C145.588 233.434 145.558 233.427 145.539 233.424C145.534 233.423 145.531 233.422 145.528 233.422C145.525 233.421 145.523 233.421 145.521 233.421C145.52 233.42 145.52 233.42 145.52 233.42L145.501 233.418L145.479 233.413L145.603 232.842C145.479 233.413 145.479 233.413 145.479 233.413L145.478 233.413L145.477 233.413L145.474 233.412L145.463 233.409C145.453 233.407 145.44 233.404 145.423 233.4C145.388 233.392 145.339 233.381 145.276 233.365C145.149 233.334 144.969 233.287 144.748 233.225C144.306 233.101 143.699 232.912 143.037 232.654C141.743 232.15 140.127 231.34 139.198 230.149C138.379 229.108 137.761 228.398 136.652 227.633C135.523 226.853 133.87 226.006 130.967 224.744L130.965 224.744C128.02 223.454 125.954 221.97 124.619 220.801C123.953 220.217 123.469 219.712 123.148 219.349C122.95 219.691 122.77 220.169 122.809 220.747C122.886 221.875 123.838 223.722 128.209 225.814L128.209 225.815C128.568 225.987 128.866 226.162 129.086 226.348C129.291 226.521 129.52 226.779 129.552 227.13C129.587 227.525 129.359 227.807 129.149 227.97C128.943 228.129 128.676 228.244 128.403 228.332C127.323 228.681 125.357 228.858 123.145 228.936C118.789 229.088 113.148 228.859 110.354 228.566ZM110.491 228.474C110.491 228.474 110.492 228.474 110.491 228.474L110.491 228.474Z" fill="#2C2C2C"/>
<path d="M266.047 266.63C266.047 266.63 253.016 268.164 250.285 268.164C250.255 268.164 250.226 268.164 250.197 268.164C250.182 268.164 250.168 268.164 250.153 268.164C250.139 268.164 250.124 268.164 250.109 268.164C250.08 268.164 250.051 268.164 250.022 268.164C247.275 268.164 234.26 266.63 234.26 266.63C216.891 272.108 218.132 297.453 218.147 298.169C218.264 303.398 218.337 308.643 218.468 313.872C218.775 326.187 221.916 363.072 222.719 374.803C222.778 375.767 222.836 376.57 222.865 377.169C224.18 403.493 225.48 429.817 226.795 456.14C226.912 458.448 227.029 460.771 227.145 463.079C227.145 463.079 233.252 466.877 245.23 463.079L245.332 377.578L248.663 314.048C248.663 314.048 249.277 313.96 250.007 313.887C250.051 313.887 250.095 313.902 250.153 313.902V313.916C250.168 313.916 250.182 313.916 250.197 313.916C250.212 313.916 250.226 313.916 250.241 313.916V313.902C250.285 313.902 250.328 313.887 250.387 313.887C251.117 313.96 251.731 314.048 251.731 314.048L255.061 377.578L255.164 463.079C267.142 466.877 273.249 463.079 273.249 463.079C273.365 460.771 273.482 458.448 273.599 456.14C274.914 429.817 276.199 403.493 277.529 377.169C277.558 376.57 277.602 375.767 277.675 374.803C278.464 363.087 281.619 326.187 281.926 313.872C282.057 308.643 282.13 303.398 282.247 298.169C282.189 297.453 283.416 272.108 266.047 266.63Z" fill="#2C2C2C"/>
<path d="M216.583 197.943C216.583 197.943 204.43 256.843 198.893 260.086C194.438 262.7 160.284 251.584 147.312 247.216C144.23 246.193 142.345 245.521 142.345 245.521L144.58 230.417L151.899 231.41L188.346 236.362C188.346 236.362 200.631 176.513 209.455 175.782C218.293 175.037 216.583 197.943 216.583 197.943Z" fill="#2C2C2C"/>
<path d="M288.002 175.416C288.002 175.416 331.111 218.933 333.945 240.685C333.945 240.685 327.386 252.985 287.9 276.445L284.38 266.38C284.38 266.38 306.423 241.079 314.078 234.681C314.078 234.681 279.559 206.137 280.362 198.044C281.151 189.922 283.167 175.84 288.002 175.416Z" fill="#2C2C2C"/>
<path d="M305.634 193.691C305.634 203.011 299.528 208.781 290.208 208.781C280.888 208.781 273.336 201.229 273.336 191.909C273.336 182.589 280.377 172.305 289.259 175.095C299.046 178.148 305.634 184.371 305.634 193.691Z" fill="white"/>
<path fill-rule="evenodd" clip-rule="evenodd" d="M278.412 179.338C275.635 182.615 273.92 187.38 273.92 191.908C273.92 200.906 281.211 208.196 290.208 208.196C294.747 208.196 298.447 206.793 301.01 204.311C303.57 201.831 305.05 198.219 305.05 193.691C305.05 184.727 298.739 178.664 289.085 175.652L289.083 175.652C284.932 174.348 281.181 176.071 278.412 179.338ZM289.433 174.537C284.703 173.051 280.493 175.075 277.521 178.582C274.557 182.08 272.751 187.117 272.751 191.908C272.751 201.551 280.565 209.365 290.208 209.365C294.989 209.365 299.002 207.883 301.823 205.15C304.646 202.415 306.219 198.482 306.219 193.691C306.219 184.015 299.353 177.631 289.433 174.537Z" fill="#2C2C2C"/>
<path d="M298.053 190.975C298.053 197.87 293.539 202.135 286.644 202.135C279.749 202.135 274.168 196.555 274.168 189.66C274.168 182.765 279.369 175.154 285.957 177.214C293.174 179.493 298.053 184.094 298.053 190.975Z" fill="#2C2C2C"/>
<path d="M192.422 193.691C192.422 203.011 198.528 208.781 207.848 208.781C217.168 208.781 224.72 201.229 224.72 191.909C224.72 182.589 217.679 172.305 208.798 175.095C199.01 178.148 192.422 184.371 192.422 193.691Z" fill="white"/>
<path fill-rule="evenodd" clip-rule="evenodd" d="M220.536 178.582C223.5 182.08 225.305 187.117 225.305 191.908C225.305 201.551 217.491 209.365 207.848 209.365C203.067 209.365 199.055 207.883 196.234 205.15C193.411 202.415 191.838 198.482 191.838 193.691C191.838 184.015 198.704 177.631 208.623 174.537C213.353 173.051 217.563 175.075 220.536 178.582ZM219.644 179.338C216.876 176.071 213.124 174.348 208.973 175.652L208.972 175.652C199.317 178.664 193.007 184.727 193.007 193.691C193.007 198.219 194.487 201.831 197.047 204.311C199.609 206.793 203.309 208.196 207.848 208.196C216.846 208.196 224.136 200.906 224.136 191.908C224.136 187.38 222.421 182.615 219.644 179.338Z" fill="#2C2C2C"/>
<path d="M200.004 190.975C200.004 197.87 204.518 202.135 211.413 202.135C218.308 202.135 223.888 196.555 223.888 189.66C223.888 182.765 218.688 175.154 212.114 177.214C204.883 179.493 200.004 184.094 200.004 190.975Z" fill="#2C2C2C"/>
<path d="M270.269 268.471C259.722 267.507 249.306 267.112 249.306 267.112C245.479 267.229 237.327 267.565 228.913 268.471C231.367 276.856 239.694 283.035 249.584 283.035C259.488 283.05 267.814 276.841 270.269 268.471Z" fill="#50BFD7"/>
<path d="M269.407 269.346C270.312 265.781 288.441 174.948 288.441 174.948C288.441 174.948 240.059 160.662 209.119 174.948L228.957 270.134L269.407 269.346Z" fill="white"/>
<path fill-rule="evenodd" clip-rule="evenodd" d="M288.605 174.388C288.606 174.388 288.606 174.388 288.441 174.949C289.014 175.063 289.014 175.063 289.014 175.064L289.013 175.067L288.81 176.084C288.677 176.75 288.482 177.728 288.233 178.973C287.736 181.464 287.024 185.026 286.167 189.312C284.453 197.883 282.159 209.349 279.836 220.926C275.194 244.063 270.431 267.689 269.973 269.49L269.863 269.922L228.484 270.729L208.452 174.613L208.874 174.418C224.494 167.206 244.457 167.222 260.447 169.01C268.454 169.906 275.49 171.25 280.525 172.369C283.042 172.929 285.06 173.433 286.45 173.797C287.145 173.98 287.682 174.127 288.047 174.229C288.23 174.28 288.369 174.32 288.463 174.347C288.509 174.36 288.545 174.37 288.569 174.377L288.596 174.385L288.604 174.387L288.605 174.388ZM288.441 174.949L289.014 175.063L289.118 174.539L288.606 174.388L288.441 174.949ZM287.762 175.363C287.753 175.36 287.743 175.357 287.733 175.354C287.374 175.254 286.842 175.108 286.153 174.928C284.776 174.567 282.773 174.066 280.271 173.51C275.267 172.397 268.273 171.062 260.317 170.172C244.527 168.405 225.045 168.405 209.786 175.286L229.43 269.541L268.94 268.771C269.768 265.058 274.277 242.695 278.69 220.696C281.013 209.119 283.307 197.654 285.021 189.082C285.878 184.797 286.59 181.235 287.087 178.744C287.336 177.499 287.531 176.521 287.664 175.855L287.762 175.363Z" fill="black"/>
<path d="M269.407 269.346C270.312 265.781 288.441 174.948 288.441 174.948C288.441 174.948 240.059 160.662 209.119 174.948L228.957 270.134L269.407 269.346Z" fill="white"/>
<path fill-rule="evenodd" clip-rule="evenodd" d="M288.605 174.388C288.606 174.388 288.606 174.388 288.441 174.949C289.014 175.063 289.014 175.063 289.014 175.064L289.013 175.067L288.81 176.084C288.677 176.75 288.482 177.728 288.233 178.973C287.736 181.464 287.024 185.026 286.167 189.312C284.453 197.883 282.159 209.349 279.836 220.926C275.194 244.063 270.431 267.689 269.973 269.49L269.863 269.922L228.484 270.729L208.452 174.613L208.874 174.418C224.494 167.206 244.457 167.222 260.447 169.01C268.454 169.906 275.49 171.25 280.525 172.369C283.042 172.929 285.06 173.433 286.45 173.797C287.145 173.98 287.682 174.127 288.047 174.229C288.23 174.28 288.369 174.32 288.463 174.347C288.509 174.36 288.545 174.37 288.569 174.377L288.596 174.385L288.604 174.387L288.605 174.388ZM288.441 174.949L289.014 175.063L289.118 174.539L288.606 174.388L288.441 174.949ZM287.762 175.363C287.753 175.36 287.743 175.357 287.733 175.354C287.374 175.254 286.842 175.108 286.153 174.928C284.776 174.567 282.773 174.066 280.271 173.51C275.267 172.397 268.273 171.062 260.317 170.172C244.527 168.405 225.045 168.405 209.786 175.286L229.43 269.541L268.94 268.771C269.768 265.058 274.277 242.695 278.69 220.696C281.013 209.119 283.307 197.654 285.021 189.082C285.878 184.797 286.59 181.235 287.087 178.744C287.336 177.499 287.531 176.521 287.664 175.855L287.762 175.363Z" fill="#2C2C2C"/>
<path d="M276.681 172.16C263.169 169.443 240.322 166.346 220.688 171.021C223.011 185.672 225.334 200.339 227.657 214.991C229.526 224.924 238.949 231.542 248.78 231.6C258.611 231.542 268.033 224.939 269.903 214.991C272.153 200.704 274.417 186.432 276.681 172.16Z" fill="#50BFD7"/>
<path fill-rule="evenodd" clip-rule="evenodd" d="M220.554 170.451C240.316 165.746 263.267 168.866 276.797 171.586L277.347 171.697L277.259 172.251C274.995 186.523 272.731 200.795 270.481 215.081L270.48 215.09L270.478 215.098C268.548 225.365 258.848 232.124 248.784 232.184L248.781 232.184L248.777 232.184C238.713 232.124 229.013 225.35 227.083 215.098L227.081 215.09L227.08 215.082C225.919 207.756 224.758 200.427 223.596 193.099L223.596 193.096C222.435 185.767 221.273 178.437 220.112 171.111L220.027 170.577L220.554 170.451ZM221.351 171.465C222.484 178.611 223.617 185.761 224.75 192.911L224.75 192.913C225.911 200.24 227.072 207.567 228.233 214.89C230.046 224.499 239.186 230.957 248.781 231.015C258.375 230.957 267.514 224.514 269.328 214.891C271.548 200.792 273.782 186.707 276.017 172.622C262.584 169.962 240.474 167.06 221.351 171.465Z" fill="#2C2C2C"/>
<path d="M247.114 177.346C251.73 177.346 258.903 175.943 258.903 171.342L257.719 155.974L256.682 142.535C256.682 137.918 252.943 134.193 248.341 134.193C246.033 134.193 243.959 135.128 242.439 136.633C240.935 138.138 239.985 140.226 239.985 142.535L238.963 155.989L237.984 168.888C236.655 176.674 247.114 177.346 247.114 177.346Z" fill="#2C2C2C"/>
<path d="M271.305 59.4579C265.199 51.9494 256.668 47.4209 245.712 47.4209C220.908 47.4209 196.673 70.2971 196.673 98.8121C196.673 127.327 216.774 150.452 241.578 150.452C243.959 150.452 246.267 150.233 248.502 149.838C248.736 151.094 248.867 152.38 248.867 153.709C248.867 153.943 248.853 154.191 248.853 154.425C317.204 137.83 306.014 55.2362 271.305 59.4579Z" fill="#2C2C2C"/>
<path d="M213.779 132.98C218.982 132.98 223.201 128.762 223.201 123.558C223.201 118.354 218.982 114.136 213.779 114.136C208.575 114.136 204.356 118.354 204.356 123.558C204.356 128.762 208.575 132.98 213.779 132.98Z" fill="white"/>
<path fill-rule="evenodd" clip-rule="evenodd" d="M213.778 114.719C208.897 114.719 204.941 118.676 204.941 123.557C204.941 128.438 208.897 132.395 213.778 132.395C218.66 132.395 222.616 128.438 222.616 123.557C222.616 118.676 218.66 114.719 213.778 114.719ZM203.772 123.557C203.772 118.031 208.252 113.551 213.778 113.551C219.305 113.551 223.785 118.031 223.785 123.557C223.785 129.084 219.305 133.564 213.778 133.564C208.252 133.564 203.772 129.084 203.772 123.557Z" fill="#2C2C2C"/>
<path d="M280.129 132.98C285.332 132.98 289.551 128.762 289.551 123.558C289.551 118.354 285.332 114.136 280.129 114.136C274.925 114.136 270.707 118.354 270.707 123.558C270.707 128.762 274.925 132.98 280.129 132.98Z" fill="white"/>
<path fill-rule="evenodd" clip-rule="evenodd" d="M280.129 114.719C275.248 114.719 271.291 118.676 271.291 123.557C271.291 128.438 275.248 132.395 280.129 132.395C285.01 132.395 288.966 128.438 288.966 123.557C288.966 118.676 285.01 114.719 280.129 114.719ZM270.122 123.557C270.122 118.031 274.602 113.551 280.129 113.551C285.655 113.551 290.135 118.031 290.135 123.557C290.135 129.084 285.655 133.564 280.129 133.564C274.602 133.564 270.122 129.084 270.122 123.557Z" fill="#2C2C2C"/>
<path d="M247.845 162.868C268.071 162.868 284.467 139.656 284.467 111.024C284.467 82.3911 268.071 59.1797 247.845 59.1797C227.619 59.1797 211.222 82.3911 211.222 111.024C211.222 139.656 227.619 162.868 247.845 162.868Z" fill="white"/>
<path fill-rule="evenodd" clip-rule="evenodd" d="M222.427 74.7019C215.877 83.9741 211.807 96.8141 211.807 111.024C211.807 125.234 215.877 138.074 222.427 147.346C228.978 156.62 237.973 162.284 247.845 162.284C257.718 162.284 266.713 156.62 273.264 147.346C279.814 138.074 283.884 125.234 283.884 111.024C283.884 96.8141 279.814 83.9741 273.264 74.7019C266.713 65.4283 257.718 59.7643 247.845 59.7643C237.973 59.7643 228.978 65.4283 222.427 74.7019ZM221.472 74.0277C228.176 64.5375 237.492 58.5957 247.845 58.5957C258.199 58.5957 267.515 64.5375 274.219 74.0277C280.924 83.5194 285.052 96.6014 285.052 111.024C285.052 125.447 280.924 138.529 274.219 148.02C267.515 157.511 258.199 163.452 247.845 163.452C237.492 163.452 228.176 157.511 221.472 148.02C214.767 138.529 210.639 125.447 210.639 111.024C210.639 96.6014 214.767 83.5194 221.472 74.0277Z" fill="#2C2C2C"/>
<path d="M205.876 99.5289C205.876 99.5289 237.05 101.048 247.436 82.2914C247.436 82.2914 269.991 101.808 291.523 100.289L289.493 91.6698L281.137 75.1919L276.068 69.1149L265.681 58.2173L251.745 52.3887L235.019 54.6675L212.713 69.8745L209.922 80.0125L205.876 99.5289Z" fill="#2C2C2C"/>
<path d="M248.735 131.287C248.75 131.375 248.56 131.536 248.137 131.536C247.728 131.55 247.099 131.36 246.544 130.834C246.267 130.572 246.018 130.25 245.828 129.841C245.799 129.783 245.785 129.724 245.755 129.666L245.726 129.578L245.697 129.505L245.653 129.374C245.639 129.315 245.624 129.242 245.595 129.184C245.536 128.965 245.492 128.731 245.478 128.483C245.39 127.518 245.58 126.54 245.814 125.605C246.72 121.865 247.786 118.929 248.18 119.017C248.575 119.119 248.166 122.216 247.26 125.955C247.026 126.876 246.851 127.708 246.851 128.41C246.851 128.585 246.866 128.76 246.88 128.921L246.895 128.979V129.008V129.023V129.038C246.895 129.038 246.88 128.994 246.895 129.008L246.924 129.155L246.939 129.228L246.953 129.271L246.982 129.359C247.07 129.637 247.202 129.9 247.348 130.104C247.64 130.528 247.99 130.791 248.268 130.937C248.531 131.127 248.721 131.185 248.735 131.287Z" fill="#2C2C2C"/>
<path d="M238.32 113.77C238.32 117.933 234.712 121.308 230.271 121.308C225.816 121.308 222.222 117.933 222.222 113.77C222.222 109.607 225.83 106.232 230.271 106.232C234.697 106.232 238.32 109.607 238.32 113.77Z" fill="white"/>
<path fill-rule="evenodd" clip-rule="evenodd" d="M230.272 106.817C226.116 106.817 222.807 109.966 222.807 113.771C222.807 117.576 226.103 120.724 230.272 120.724C234.427 120.724 237.736 117.575 237.736 113.771C237.736 109.966 234.413 106.817 230.272 106.817ZM221.638 113.771C221.638 109.249 225.545 105.648 230.272 105.648C234.983 105.648 238.905 109.248 238.905 113.771C238.905 118.292 234.998 121.893 230.272 121.893C225.53 121.893 221.638 118.292 221.638 113.771Z" fill="#2C2C2C"/>
<path d="M226.313 113.303C226.313 116.736 228.548 119.526 231.294 119.526C234.041 119.526 236.276 116.736 236.276 113.303C236.276 109.87 234.041 107.08 231.294 107.08C228.548 107.066 226.313 109.856 226.313 113.303Z" fill="#50BFD7"/>
<path d="M227.759 113.303C227.759 115.743 229.337 117.715 231.294 117.715C233.252 117.715 234.83 115.743 234.83 113.303C234.83 110.864 233.252 108.877 231.294 108.877C229.337 108.877 227.759 110.849 227.759 113.303Z" fill="#2C2C2C"/>
<path d="M227.54 109.111C227.54 109.783 228.358 110.309 229.366 110.309C230.374 110.309 231.192 109.769 231.192 109.111C231.192 108.439 230.374 107.913 229.366 107.913C228.358 107.899 227.54 108.439 227.54 109.111Z" fill="white"/>
<path d="M240.614 102.244C240.614 102.244 229.746 91.4052 218.059 104.275C218.059 104.275 228.168 97.8035 240.614 102.244Z" fill="#2C2C2C"/>
<path d="M273.336 113.77C273.336 117.933 269.728 121.308 265.287 121.308C260.832 121.308 257.238 117.933 257.238 113.77C257.238 109.607 260.846 106.232 265.287 106.232C269.728 106.232 273.336 109.607 273.336 113.77Z" fill="white"/>
<path fill-rule="evenodd" clip-rule="evenodd" d="M265.287 106.817C261.132 106.817 257.822 109.966 257.822 113.771C257.822 117.576 261.118 120.724 265.287 120.724C269.442 120.724 272.752 117.575 272.752 113.771C272.752 109.966 269.442 106.817 265.287 106.817ZM256.654 113.771C256.654 109.249 260.561 105.648 265.287 105.648C270.014 105.648 273.921 109.249 273.921 113.771C273.921 118.292 270.014 121.893 265.287 121.893C260.545 121.893 256.654 118.292 256.654 113.771Z" fill="#2C2C2C"/>
<path d="M261.343 113.303C261.343 116.736 263.578 119.526 266.325 119.526C269.071 119.526 271.306 116.736 271.306 113.303C271.306 109.87 269.071 107.08 266.325 107.08C263.564 107.066 261.343 109.856 261.343 113.303Z" fill="#50BFD7"/>
<path d="M262.774 113.303C262.774 115.743 264.352 117.715 266.31 117.715C268.267 117.715 269.845 115.743 269.845 113.303C269.845 110.864 268.267 108.877 266.31 108.877C264.367 108.877 262.774 110.849 262.774 113.303Z" fill="#2C2C2C"/>
<path d="M262.555 109.111C262.555 109.783 263.373 110.309 264.381 110.309C265.389 110.309 266.207 109.769 266.207 109.111C266.207 108.439 265.389 107.913 264.381 107.913C263.373 107.899 262.555 108.439 262.555 109.111Z" fill="white"/>
<path d="M275.644 101.062C275.644 101.062 264.775 90.2225 253.089 103.092C253.074 103.092 263.183 96.6209 275.644 101.062Z" fill="#2C2C2C"/>
<path d="M235.954 139.568C236.319 142.402 237.692 145.017 239.84 146.916C241.987 148.815 244.748 149.852 247.611 149.852C250.475 149.852 253.235 148.815 255.383 146.916C257.53 145.017 258.918 142.417 259.269 139.568H235.954Z" fill="white"/>
<path fill-rule="evenodd" clip-rule="evenodd" d="M235.29 138.984H259.929L259.848 139.64C259.48 142.633 258.022 145.362 255.77 147.354C253.515 149.349 250.616 150.437 247.611 150.437C244.607 150.437 241.708 149.349 239.453 147.354C237.198 145.361 235.758 142.616 235.374 139.643L235.29 138.984ZM236.638 140.153C237.1 142.592 238.354 144.823 240.227 146.479C242.267 148.283 244.89 149.268 247.611 149.268C250.333 149.268 252.956 148.283 254.996 146.479C256.872 144.82 258.136 142.6 258.588 140.153H236.638Z" fill="#2C2C2C"/>
<path d="M258.816 274.795C258.816 275.16 259.137 275.583 259.517 275.54C263.826 275.087 267.128 271.756 271.379 272.457C267.113 274.575 263.417 278.257 263.943 283.676C264.002 284.348 264.644 284.611 265.141 284.202C268.194 281.602 271.7 279.279 275.79 280.141C277.543 280.506 279.603 281.193 281.414 280.959C284.117 280.623 286.396 279.396 287.74 276.781C290.106 272.253 289.23 266.818 283.927 265.694C283.796 265.664 283.693 265.679 283.576 265.723C281.619 264.949 279.837 263.97 278.259 262.261C276.74 260.595 275.323 258.755 273.672 257.221C271.466 255.161 269.071 253.54 266.149 254.928C265.711 255.132 265.74 255.76 266.017 256.096C267.303 257.688 268.808 259.208 270.385 260.668C268.808 260.303 267.215 260.113 265.579 260.245C262.658 260.493 259.21 262.436 259.283 265.913C259.298 266.351 259.605 266.614 259.984 266.658C262.672 266.935 265.375 266.892 268.048 267.169C263.885 268.396 258.772 269.799 258.816 274.795Z" fill="white"/>
<path fill-rule="evenodd" clip-rule="evenodd" d="M270.393 254.238C271.74 254.77 272.956 255.754 274.07 256.794C275.187 257.831 276.218 259.028 277.218 260.189C277.714 260.765 278.202 261.332 278.689 261.866C280.14 263.437 281.777 264.366 283.615 265.109C283.748 265.087 283.891 265.088 284.051 265.123C286.912 265.731 288.626 267.528 289.271 269.802C289.907 272.041 289.493 274.686 288.258 277.051C286.807 279.872 284.336 281.185 281.488 281.539C280.49 281.668 279.449 281.541 278.468 281.348C277.975 281.252 277.486 281.136 277.018 281.024C276.968 281.013 276.919 281.001 276.87 280.989C276.452 280.889 276.054 280.793 275.671 280.713L275.67 280.713C271.878 279.914 268.57 282.049 265.52 284.647L265.516 284.65L265.512 284.653C265.115 284.981 264.601 285.076 264.147 284.882C263.694 284.688 263.407 284.25 263.361 283.73C262.885 278.816 265.684 275.288 269.214 273.013C268.039 273.173 266.895 273.598 265.697 274.104C265.431 274.217 265.161 274.334 264.888 274.453C263.266 275.157 261.518 275.917 259.58 276.121C259.144 276.17 258.794 275.946 258.584 275.706C258.375 275.467 258.232 275.137 258.231 274.798C258.208 272.046 259.629 270.279 261.543 269.074C262.552 268.439 263.716 267.949 264.895 267.538C264.597 267.524 264.297 267.511 263.996 267.498L263.984 267.497C262.645 267.439 261.284 267.38 259.924 267.239L259.921 267.239L259.917 267.239C259.293 267.167 258.725 266.701 258.699 265.933L258.699 265.929L258.699 265.925C258.658 263.965 259.618 262.448 260.948 261.408C262.268 260.377 263.972 259.795 265.53 259.663L265.531 259.663L265.532 259.663C266.564 259.58 267.576 259.62 268.571 259.746C267.498 258.69 266.479 257.598 265.564 256.466C265.329 256.18 265.211 255.794 265.231 255.43C265.253 255.053 265.437 254.616 265.9 254.399C267.519 253.631 269.017 253.695 270.393 254.238ZM266.405 255.453C266.403 255.461 266.399 255.475 266.398 255.496C266.396 255.532 266.401 255.577 266.416 255.623C266.431 255.669 266.451 255.704 266.468 255.724L266.47 255.727L266.472 255.729C267.733 257.291 269.215 258.789 270.782 260.24L272.396 261.734L270.253 261.238C268.717 260.882 267.187 260.702 265.627 260.828C264.264 260.944 262.784 261.457 261.668 262.329C260.564 263.191 259.837 264.382 259.867 265.897C259.87 265.973 259.894 266.005 259.91 266.02C259.93 266.041 259.973 266.068 260.048 266.077C261.371 266.214 262.7 266.271 264.047 266.33L264.052 266.33C265.393 266.388 266.753 266.447 268.108 266.588L271.05 266.894L268.213 267.73C268.14 267.751 268.067 267.773 267.994 267.794C265.953 268.395 263.816 269.024 262.165 270.063C260.494 271.115 259.38 272.547 259.4 274.79L259.4 274.792V274.795C259.4 274.802 259.402 274.824 259.414 274.855C259.427 274.885 259.444 274.914 259.463 274.936C259.471 274.945 259.478 274.951 259.483 274.956C261.217 274.768 262.774 274.094 264.395 273.392C264.675 273.27 264.957 273.148 265.242 273.028C267.147 272.222 269.171 271.501 271.474 271.881L273.26 272.176L271.638 272.981C267.465 275.053 264.033 278.556 264.525 283.62L264.525 283.623L264.525 283.626C264.532 283.704 264.554 283.75 264.569 283.772C264.584 283.795 264.599 283.804 264.608 283.808C264.617 283.812 264.631 283.815 264.654 283.811C264.676 283.808 264.716 283.795 264.766 283.754C267.821 281.153 271.524 278.646 275.91 279.569C276.311 279.653 276.727 279.753 277.141 279.852C277.191 279.864 277.24 279.876 277.29 279.888C277.758 280 278.226 280.11 278.693 280.202C279.632 280.385 280.527 280.485 281.339 280.38L281.341 280.38L281.342 280.38C283.898 280.062 285.983 278.921 287.22 276.514L287.221 276.513L287.222 276.511C288.352 274.347 288.684 272.011 288.147 270.121C287.62 268.265 286.245 266.783 283.806 266.266L283.803 266.265L283.8 266.264C283.8 266.264 283.799 266.264 283.799 266.264C283.795 266.265 283.789 266.267 283.781 266.27L283.571 266.349L283.361 266.267C281.356 265.474 279.487 264.453 277.83 262.657L277.828 262.656L277.827 262.655C277.29 262.066 276.778 261.471 276.271 260.882C275.299 259.753 274.346 258.645 273.274 257.649L273.273 257.648C272.181 256.629 271.097 255.772 269.964 255.325C268.863 254.89 267.704 254.838 266.405 255.453Z" fill="#2C2C2C"/>
<path d="M219.943 479.572C219.943 479.572 220.805 482.304 221.054 482.728C221.316 483.151 228.022 485.459 236.202 485.284C244.704 485.109 248.59 482.64 248.707 479.558H219.943V479.572Z" fill="#50BFD7"/>
<path fill-rule="evenodd" clip-rule="evenodd" d="M219.359 478.974H249.314L249.291 479.58C249.222 481.404 248.028 482.95 245.86 484.034C243.703 485.113 240.508 485.78 236.215 485.869M219.359 478.974V479.558V478.974ZM219.944 479.573L219.386 479.748L219.359 479.663V479.558M219.944 479.573C219.386 479.748 219.386 479.748 219.386 479.748L219.396 479.78C219.403 479.8 219.412 479.83 219.424 479.868C219.449 479.944 219.484 480.053 219.526 480.185C219.611 480.449 219.727 480.806 219.852 481.177C219.976 481.547 220.109 481.934 220.227 482.257C220.337 482.558 220.456 482.863 220.55 483.023L220.554 483.03L220.557 483.036C220.616 483.13 220.688 483.193 220.729 483.226C220.776 483.265 220.826 483.298 220.872 483.327C220.965 483.383 221.077 483.441 221.2 483.497C221.449 483.612 221.784 483.743 222.191 483.883C223.008 484.165 224.148 484.493 225.532 484.801C228.3 485.417 232.069 485.957 236.215 485.869M220.741 480.142H248.039C247.785 481.184 246.956 482.18 245.338 482.989C243.398 483.958 240.399 484.613 236.19 484.7L236.19 484.7C232.155 484.787 228.482 484.26 225.786 483.66C224.438 483.36 223.341 483.043 222.572 482.778C222.186 482.645 221.89 482.528 221.689 482.436C221.614 482.401 221.559 482.373 221.519 482.351C221.506 482.322 221.492 482.288 221.475 482.249C221.432 482.143 221.381 482.009 221.324 481.855C221.211 481.547 221.082 481.172 220.96 480.806C220.882 480.573 220.807 480.345 220.741 480.142Z" fill="#2C2C2C"/>
<path d="M219.944 480.156C221.229 481.31 222.909 482.186 224.136 482.58C227.189 483.588 230.535 483.968 233.734 484.144C237.137 484.319 240.877 484.26 244.062 482.916C245.785 482.186 247.246 481.12 248.605 479.907C249.218 478.403 249.379 476.693 249.335 474.94C249.233 471.785 248.517 468.732 247.962 465.635C247.874 465.182 247.801 464.744 247.728 464.306C247.568 462.29 247.421 460.259 247.29 458.258C247.246 457.513 247.158 456.856 247.173 456.111C247.188 455.614 247.363 454.811 247.232 454.343C247.217 454.285 247.188 454.241 247.173 454.197C247.173 454.124 247.188 454.051 247.173 453.978C246.603 453.51 246.004 453.072 245.318 452.882C244.821 452.97 244.325 453.131 244.003 453.262C243.492 453.467 243.039 453.73 242.63 454.036C241.622 452.663 239.139 452.02 237.736 451.962C235.545 451.874 232.623 452.254 230.885 453.861C230.593 453.583 230.14 453.437 229.746 453.364C229.658 453.35 229.556 453.335 229.468 453.321C228.446 453.715 228.708 456.228 228.606 456.943C228.46 457.893 228.314 458.842 228.08 459.763C227.613 461.53 226.941 463.152 225.918 464.671C224.823 466.307 223.391 467.724 222.135 469.229C221.96 469.535 221.77 469.842 221.594 470.134C220.25 472.296 219.155 475.437 219.447 478.008C219.535 478.826 219.71 479.527 219.944 480.156Z" fill="#50BFD7"/>
<path fill-rule="evenodd" clip-rule="evenodd" d="M234.008 451.708C235.292 451.409 236.624 451.334 237.759 451.379L237.76 451.379C238.524 451.411 239.555 451.599 240.533 451.959C241.319 452.249 242.128 452.671 242.727 453.261C243.053 453.056 243.403 452.874 243.784 452.722C244.137 452.577 244.673 452.404 245.216 452.308L245.346 452.285L245.473 452.32C246.288 452.546 246.969 453.056 247.544 453.527L247.705 453.66L247.746 453.865C247.764 453.956 247.765 454.038 247.763 454.092C247.774 454.121 247.786 454.155 247.796 454.193C247.892 454.542 247.867 454.956 247.839 455.27C247.825 455.418 247.811 455.547 247.798 455.664C247.778 455.841 247.761 455.989 247.757 456.126C247.748 456.604 247.782 457.025 247.819 457.489C247.838 457.719 247.857 457.959 247.873 458.223C248.004 460.213 248.149 462.232 248.309 464.236C248.38 464.666 248.451 465.09 248.535 465.525L248.536 465.529L248.537 465.533C248.651 466.172 248.774 466.813 248.897 467.457C249.362 469.897 249.837 472.382 249.919 474.923L249.919 474.925L249.919 474.927C249.964 476.718 249.802 478.518 249.146 480.129L249.095 480.254L248.994 480.344C247.608 481.581 246.093 482.692 244.289 483.456L244.289 483.456C240.973 484.855 237.117 484.904 233.703 484.728L233.702 484.728C230.486 484.552 227.081 484.169 223.955 483.137C222.657 482.72 220.904 481.805 219.553 480.592L219.446 480.496L219.396 480.361C219.145 479.688 218.959 478.939 218.866 478.074C218.554 475.326 219.714 472.055 221.095 469.831C221.147 469.745 221.199 469.66 221.25 469.575C221.378 469.363 221.506 469.153 221.627 468.94L221.653 468.895L221.686 468.855C222.118 468.339 222.555 467.847 222.987 467.362C223.863 466.378 224.713 465.422 225.433 464.347L225.433 464.346C226.412 462.892 227.06 461.334 227.515 459.617C227.74 458.731 227.882 457.811 228.028 456.859C228.046 456.732 228.049 456.508 228.055 456.171L228.056 456.122C228.062 455.78 228.07 455.365 228.11 454.956C228.15 454.552 228.223 454.115 228.374 453.737C228.523 453.363 228.786 452.959 229.258 452.777L229.407 452.719L229.564 452.745C229.604 452.752 229.647 452.759 229.696 452.766L229.698 452.767C229.744 452.774 229.794 452.781 229.842 452.789L229.847 452.79L229.852 452.791C230.143 452.845 230.512 452.942 230.85 453.126C231.763 452.413 232.882 451.971 234.008 451.708ZM234.273 452.846C233.11 453.118 232.051 453.58 231.282 454.291L230.879 454.663L230.482 454.286C230.317 454.129 230.006 454.009 229.644 453.941C229.628 453.938 229.611 453.936 229.593 453.933C229.553 453.978 229.507 454.051 229.459 454.17C229.368 454.397 229.309 454.707 229.273 455.069C229.239 455.427 229.23 455.799 229.224 456.142C229.224 456.173 229.223 456.203 229.223 456.235C229.218 456.525 229.214 456.823 229.185 457.027L229.184 457.03L229.181 457.048C229.037 457.988 228.887 458.96 228.647 459.908L228.646 459.911L228.645 459.913C228.164 461.731 227.469 463.415 226.403 464.998C225.639 466.139 224.697 467.199 223.792 468.217C223.386 468.674 222.987 469.122 222.616 469.565C222.494 469.777 222.364 469.991 222.242 470.194C222.191 470.277 222.142 470.358 222.095 470.436L222.093 470.44L222.09 470.444C220.785 472.544 219.756 475.551 220.027 477.943L220.028 477.945L220.028 477.947C220.104 478.658 220.25 479.269 220.442 479.818C221.647 480.865 223.193 481.665 224.315 482.026L224.317 482.026L224.319 482.027C227.299 483.011 230.583 483.387 233.764 483.561C237.158 483.736 240.781 483.668 243.834 482.38C245.435 481.701 246.812 480.713 248.113 479.564C248.643 478.195 248.792 476.623 248.751 474.958C248.672 472.519 248.22 470.151 247.757 467.724C247.632 467.069 247.507 466.41 247.387 465.743C247.299 465.285 247.225 464.843 247.153 464.409L247.148 464.378L247.146 464.354C246.985 462.335 246.838 460.301 246.707 458.298L246.707 458.296L246.706 458.294C246.694 458.083 246.677 457.87 246.66 457.652C246.62 457.155 246.578 456.639 246.589 456.101L246.589 456.098L246.589 456.095C246.594 455.914 246.62 455.677 246.644 455.459C246.656 455.353 246.667 455.252 246.675 455.164C246.704 454.843 246.702 454.627 246.67 454.508C246.669 454.505 246.667 454.502 246.665 454.496C246.662 454.49 246.658 454.481 246.653 454.471C246.644 454.451 246.631 454.42 246.619 454.383L246.589 454.293V454.259C246.146 453.91 245.727 453.632 245.285 453.485C244.881 453.567 244.485 453.698 244.224 453.804L244.222 453.805L244.22 453.806C243.76 453.99 243.351 454.227 242.98 454.505L242.508 454.859L242.159 454.383C241.754 453.832 241.008 453.379 240.129 453.056C239.263 452.737 238.351 452.574 237.712 452.547C236.657 452.505 235.433 452.576 234.273 452.846Z" fill="#2C2C2C"/>
<path d="M283.269 479.572C283.269 479.572 282.422 482.304 282.159 482.728C281.896 483.151 275.191 485.459 267.01 485.284C258.508 485.109 254.623 482.64 254.506 479.558H283.269V479.572Z" fill="#50BFD7"/>
<path fill-rule="evenodd" clip-rule="evenodd" d="M253.9 478.974H283.854V479.661L283.828 479.746L283.27 479.573C283.828 479.746 283.828 479.746 283.828 479.746L283.828 479.746L283.828 479.746L283.818 479.777C283.812 479.798 283.803 479.827 283.791 479.866C283.767 479.942 283.732 480.051 283.69 480.183C283.606 480.447 283.491 480.805 283.368 481.176C283.245 481.546 283.112 481.934 282.993 482.258C282.882 482.557 282.76 482.869 282.656 483.036C282.598 483.13 282.526 483.193 282.485 483.226C282.438 483.265 282.388 483.298 282.341 483.327C282.249 483.383 282.136 483.441 282.013 483.497C281.765 483.612 281.43 483.743 281.023 483.883C280.206 484.165 279.066 484.493 277.682 484.801C274.914 485.417 271.145 485.957 266.999 485.869M282.476 480.142H255.175C255.429 481.184 256.258 482.18 257.876 482.989C259.816 483.958 262.815 484.613 267.023 484.7L267.024 484.7C271.058 484.787 274.732 484.26 277.428 483.66C278.775 483.36 279.872 483.043 280.642 482.778C281.028 482.645 281.324 482.528 281.525 482.436C281.602 482.4 281.659 482.371 281.699 482.349C281.712 482.32 281.727 482.286 281.744 482.245C281.788 482.14 281.839 482.008 281.896 481.854C282.009 481.547 282.138 481.173 282.259 480.807C282.337 480.573 282.411 480.345 282.476 480.142ZM253.9 478.974L253.923 479.58L253.9 478.974ZM253.923 479.58C253.992 481.404 255.186 482.95 257.353 484.034L253.923 479.58ZM257.353 484.034C259.511 485.113 262.706 485.78 266.999 485.869L257.353 484.034Z" fill="#2C2C2C"/>
<path d="M283.269 480.156C281.984 481.31 280.304 482.186 279.077 482.58C276.024 483.588 272.678 483.968 269.479 484.144C266.076 484.319 262.336 484.26 259.151 482.916C257.428 482.186 255.967 481.12 254.608 479.907C253.995 478.403 253.834 476.693 253.878 474.94C253.98 471.785 254.696 468.732 255.251 465.635C255.339 465.182 255.412 464.744 255.485 464.306C255.645 462.29 255.792 460.259 255.923 458.258C255.981 457.513 256.054 456.856 256.04 456.111C256.025 455.614 255.85 454.811 255.981 454.343C255.996 454.285 256.025 454.241 256.04 454.197C256.04 454.124 256.025 454.051 256.04 453.978C256.61 453.51 257.194 453.072 257.895 452.882C258.392 452.97 258.888 453.131 259.21 453.262C259.721 453.467 260.174 453.73 260.583 454.036C261.591 452.663 264.074 452.02 265.477 451.962C267.668 451.874 270.589 452.254 272.328 453.861C272.62 453.583 273.073 453.437 273.467 453.364C273.555 453.35 273.657 453.335 273.745 453.321C274.767 453.715 274.504 456.228 274.607 456.943C274.753 457.893 274.899 458.842 275.133 459.763C275.6 461.53 276.272 463.152 277.295 464.671C278.39 466.307 279.822 467.724 281.078 469.229C281.253 469.535 281.443 469.842 281.619 470.134C282.963 472.296 284.058 475.437 283.766 478.008C283.678 478.826 283.518 479.527 283.269 480.156Z" fill="#50BFD7"/>
<path fill-rule="evenodd" clip-rule="evenodd" d="M268.939 452.846C267.78 452.576 266.556 452.505 265.5 452.547C264.861 452.574 263.95 452.737 263.084 453.056C262.205 453.379 261.458 453.832 261.054 454.383L260.705 454.859L260.232 454.505C259.861 454.227 259.453 453.99 258.993 453.806L258.991 453.805L258.988 453.804C258.728 453.697 258.331 453.567 257.925 453.484C257.477 453.631 257.067 453.907 256.624 454.258V454.293L256.594 454.383C256.582 454.42 256.568 454.451 256.56 454.471C256.555 454.481 256.551 454.49 256.548 454.496C256.547 454.498 256.546 454.5 256.545 454.501C256.544 454.504 256.543 454.506 256.542 454.508C256.511 454.627 256.508 454.843 256.538 455.164C256.546 455.252 256.557 455.353 256.568 455.459C256.592 455.677 256.618 455.914 256.624 456.095L256.624 456.098L256.624 456.101C256.636 456.739 256.587 457.322 256.538 457.907C256.527 458.038 256.516 458.17 256.506 458.301C256.374 460.304 256.228 462.336 256.067 464.354L256.065 464.378L256.06 464.409C255.988 464.843 255.914 465.285 255.825 465.743C255.706 466.41 255.58 467.069 255.455 467.724C254.993 470.151 254.541 472.519 254.462 474.959C254.42 476.623 254.57 478.195 255.1 479.564C256.401 480.713 257.777 481.701 259.379 482.38C262.432 483.668 266.055 483.736 269.448 483.561C272.63 483.387 275.914 483.011 278.893 482.027L278.896 482.026L278.898 482.026C280.021 481.664 281.569 480.863 282.775 479.814C282.973 479.276 283.108 478.668 283.185 477.947L283.185 477.945L283.185 477.943C283.457 475.551 282.428 472.544 281.122 470.444L281.12 470.44L281.117 470.436C281.07 470.358 281.021 470.277 280.971 470.194C280.849 469.992 280.719 469.778 280.597 469.565C280.225 469.122 279.827 468.674 279.421 468.217C278.516 467.199 277.573 466.138 276.809 464.998C275.744 463.415 275.048 461.731 274.568 459.913L274.567 459.911L274.566 459.908C274.326 458.96 274.176 457.988 274.031 457.048L274.029 457.03L274.028 457.027C273.999 456.823 273.994 456.525 273.99 456.235C273.989 456.203 273.989 456.173 273.988 456.142C273.983 455.799 273.974 455.427 273.939 455.069C273.904 454.707 273.844 454.397 273.754 454.17C273.706 454.051 273.659 453.978 273.62 453.933C273.602 453.936 273.585 453.938 273.568 453.941C273.207 454.009 272.896 454.129 272.73 454.286L272.333 454.663L271.931 454.291C271.162 453.58 270.103 453.118 268.939 452.846ZM272.362 453.126C271.45 452.413 270.33 451.971 269.205 451.708C267.921 451.409 266.589 451.334 265.453 451.379L265.452 451.379C264.689 451.411 263.658 451.599 262.68 451.959C261.894 452.249 261.085 452.671 260.486 453.261C260.16 453.056 259.809 452.874 259.429 452.722C259.075 452.577 258.539 452.404 257.996 452.308L257.868 452.285L257.742 452.32C256.909 452.545 256.24 453.059 255.669 453.527L255.508 453.66L255.467 453.865C255.448 453.956 255.448 454.038 255.45 454.092C255.439 454.121 255.427 454.155 255.417 454.193C255.321 454.542 255.345 454.956 255.374 455.27C255.387 455.418 255.402 455.547 255.415 455.664C255.435 455.841 255.451 455.989 255.456 456.126C255.467 456.697 255.424 457.208 255.375 457.788C255.364 457.925 255.352 458.067 255.34 458.214L255.34 458.217L255.34 458.221C255.209 460.212 255.064 462.231 254.904 464.236C254.832 464.666 254.762 465.09 254.677 465.525L254.676 465.529L254.676 465.533C254.561 466.172 254.439 466.813 254.316 467.457C253.85 469.897 253.376 472.382 253.294 474.923L253.294 474.925L253.294 474.927C253.249 476.718 253.41 478.518 254.067 480.129L254.118 480.254L254.219 480.344C255.605 481.581 257.12 482.692 258.923 483.456L258.924 483.456C262.24 484.855 266.095 484.904 269.509 484.728L269.511 484.728C272.727 484.552 276.132 484.169 279.258 483.137C280.556 482.72 282.308 481.805 283.66 480.592L283.762 480.5L283.813 480.372C284.084 479.685 284.255 478.931 284.347 478.074C284.658 475.326 283.498 472.055 282.117 469.831C282.066 469.746 282.014 469.661 281.963 469.576C281.835 469.364 281.707 469.153 281.585 468.94L281.56 468.895L281.527 468.855C281.095 468.339 280.657 467.847 280.226 467.362C279.35 466.377 278.5 465.422 277.78 464.347L277.779 464.346C276.8 462.892 276.152 461.334 275.698 459.617C275.473 458.731 275.331 457.811 275.185 456.859C275.167 456.732 275.163 456.508 275.158 456.171L275.157 456.122C275.151 455.78 275.142 455.365 275.102 454.956C275.063 454.552 274.99 454.115 274.839 453.737C274.69 453.363 274.427 452.959 273.955 452.777L273.806 452.719L273.649 452.745C273.609 452.752 273.565 452.759 273.517 452.766L273.515 452.766C273.469 452.774 273.419 452.781 273.371 452.789L273.366 452.79L273.361 452.791C273.07 452.845 272.701 452.942 272.362 453.126ZM255.493 453.992C255.493 453.992 255.493 453.992 255.493 453.992V453.992Z" fill="#2C2C2C"/>
<path fill-rule="evenodd" clip-rule="evenodd" d="M210.491 108.278V108.57H209.323V108.278H210.491Z" fill="#2C2C2C"/>
<path fill-rule="evenodd" clip-rule="evenodd" d="M216.627 111.492V111.784H215.458V111.492H216.627Z" fill="#2C2C2C"/>
<path d="M249.846 109.768C251.847 110.192 251.102 111.492 251.102 111.682C251.102 111.872 251.847 122.682 261.503 125.53C271.159 128.379 276.944 122.784 278.624 119.979C280.304 117.174 281.706 110.513 282.115 110.002C282.539 109.491 284.54 108.6 284.54 108.6L284.774 105.985L282.261 105.24C282.261 105.24 275.921 102.347 266.587 102.216C257.267 102.07 251.993 107.446 251.993 107.446C249.364 106.613 246.106 106.496 243.126 107.446C243.126 107.446 237.853 102.084 228.533 102.216C219.213 102.362 212.858 105.24 212.858 105.24L210.346 105.985L210.579 108.6C210.579 108.6 212.581 109.491 213.004 110.002C213.428 110.513 214.816 117.189 216.496 119.979C218.176 122.784 223.96 128.379 233.616 125.53C243.272 122.682 244.017 111.872 244.017 111.682C244.017 111.492 243.272 110.192 245.274 109.768C247.027 109.403 248.108 109.403 249.846 109.768ZM273.029 123.295C265.666 127.722 256.843 123.251 254.185 117.423C251.526 111.594 253.761 108.512 253.761 108.512C258.202 101.266 276.14 100.96 279.223 108.789C279.749 110.104 280.391 118.869 273.029 123.295ZM215.897 108.789C218.979 100.945 236.918 101.266 241.359 108.512C241.359 108.512 243.594 111.594 240.935 117.423C238.276 123.251 229.468 127.722 222.091 123.295C214.743 118.869 215.385 110.104 215.897 108.789Z" fill="#2C2C2C"/>
<path d="M254.375 188.214H243.156C240.176 188.214 237.751 190.639 237.751 193.619V204.838C237.751 207.818 240.176 210.243 243.156 210.243H254.375C257.355 210.243 259.78 207.818 259.78 204.838V193.619C259.78 190.639 257.355 188.214 254.375 188.214ZM234.756 183.438C233.047 183.438 231.659 184.825 231.659 186.534C231.659 188.244 233.047 189.631 234.756 189.631C236.465 189.631 237.853 188.244 237.853 186.534C237.853 184.825 236.465 183.438 234.756 183.438Z" fill="white"/>
<path d="M253.572 194.903C252.856 192.99 251.03 191.719 248.985 191.719H245.946L251.95 206.94H258.392L253.572 194.903ZM241.315 202.572L239.562 206.94H245.961L248.941 199.388H245.902C243.857 199.388 242.017 200.659 241.315 202.572ZM242.309 195.502C243.361 195.502 244.222 194.64 244.222 193.588C244.222 192.537 243.361 191.675 242.309 191.675C241.257 191.675 240.395 192.537 240.395 193.588C240.395 194.64 241.242 195.502 242.309 195.502Z" fill="#50BFD7"/>
</svg>
