<svg width="475" height="524" viewBox="0 0 475 524" fill="none" xmlns="http://www.w3.org/2000/svg">
<path d="M363.416 107.478C382.141 132.459 396.216 170.783 385.733 208.779C369.908 266.185 399.467 289.619 346.236 379.313C338.508 392.438 329.675 404.861 319.891 416.364C315.09 421.977 310.029 427.309 304.74 432.328C258.109 476.57 204.718 484.349 163.58 465.697C109.477 441.149 109.589 382.337 111.237 344.971C112.885 307.604 75.8846 241.986 127.682 153.459C135.544 139.919 144.622 127.138 154.736 115.371C177.899 88.6064 209.269 65.5078 240.262 58.8013C242.586 58.3037 244.902 57.874 247.252 57.5261C292.884 50.7028 337.883 73.4094 363.416 107.478Z" fill="#50BFD7"/>
<path opacity="0.7" d="M363.416 107.478C382.141 132.459 396.216 170.783 385.733 208.779C369.908 266.185 399.467 289.619 346.236 379.313C338.508 392.438 329.675 404.861 319.891 416.364C315.09 421.977 310.029 427.309 304.74 432.328C258.109 476.57 204.718 484.349 163.58 465.697C109.477 441.149 109.589 382.337 111.237 344.971C112.885 307.604 75.8846 241.986 127.682 153.459C135.544 139.919 144.622 127.138 154.736 115.371C177.899 88.6064 209.269 65.5078 240.262 58.8013C242.586 58.3037 244.902 57.874 247.252 57.5261C292.884 50.7028 337.883 73.4094 363.416 107.478Z" fill="white"/>
<path d="M400.696 472.387H117.304C117.224 472.387 117.146 472.351 117.089 472.285C117.032 472.22 117 472.131 117 472.039C117.002 471.947 117.034 471.859 117.091 471.794C117.148 471.729 117.224 471.692 117.304 471.69H400.696C400.776 471.692 400.852 471.729 400.909 471.794C400.966 471.859 400.998 471.947 401 472.039C401 472.131 400.968 472.22 400.911 472.285C400.854 472.351 400.776 472.387 400.696 472.387Z" fill="#263238"/>
<path d="M362.902 73.3941C362.902 77.1756 361.781 80.8722 359.68 84.0164C357.579 87.1605 354.592 89.611 351.099 91.0578C347.605 92.5047 343.76 92.883 340.052 92.1448C336.343 91.4066 332.936 89.5852 330.263 86.9109C327.589 84.2365 325.769 80.8294 325.032 77.1204C324.295 73.4114 324.674 69.5671 326.122 66.0737C327.57 62.5804 330.021 59.5949 333.166 57.4948C336.311 55.3948 340.008 54.2744 343.789 54.2756C346.303 54.2641 348.794 54.7508 351.118 55.7076C353.443 56.6644 355.555 58.0723 357.332 59.85C359.109 61.6277 360.516 63.7399 361.472 66.0646C362.428 68.3893 362.914 70.8805 362.902 73.3941Z" fill="#263238"/>
<path d="M343.778 92.7959C338.632 92.7929 333.699 90.7479 330.06 87.1102C326.421 83.4725 324.375 78.5393 324.37 73.3941C324.37 69.557 325.508 65.8061 327.64 62.6156C329.771 59.4251 332.801 56.9383 336.346 55.4696C339.891 54.001 343.792 53.6164 347.555 54.3646C351.318 55.1127 354.775 56.96 357.489 59.6728C360.203 62.3856 362.051 65.8422 362.8 69.6054C363.55 73.3686 363.166 77.2695 361.699 80.8148C360.231 84.3601 357.745 87.3907 354.555 89.5233C351.365 91.6559 347.615 92.7948 343.778 92.7959ZM343.778 54.5647C339.862 54.5639 336.044 55.7841 332.855 58.0553C329.666 60.3265 327.264 63.5357 325.984 67.236C324.704 70.9364 324.61 74.9437 325.715 78.7C326.82 82.4562 329.069 85.7745 332.148 88.1927C335.452 90.8243 339.554 92.252 343.778 92.2408C348.714 92.1542 353.418 90.1327 356.878 86.6115C360.338 83.0902 362.277 78.351 362.277 73.4143C362.277 68.4776 360.338 63.7383 356.878 60.2171C353.418 56.6959 348.714 54.6744 343.778 54.5878V54.5647Z" fill="#263238"/>
<path d="M351.758 70.3985C351.757 68.8204 351.288 67.278 350.41 65.9664C349.532 64.6548 348.286 63.6328 346.827 63.0297C345.369 62.4265 343.765 62.2693 342.217 62.5779C340.669 62.8865 339.248 63.647 338.132 64.7633C337.017 65.8796 336.257 67.3016 335.95 68.8495C335.642 70.3974 335.801 72.0018 336.405 73.4597C337.009 74.9176 338.032 76.1636 339.344 77.0403C340.656 77.9169 342.199 78.3848 343.777 78.3848C344.826 78.3848 345.864 78.1782 346.833 77.7768C347.801 77.3754 348.681 76.787 349.422 76.0453C350.164 75.3037 350.751 74.4232 351.152 73.4543C351.553 72.4854 351.759 71.447 351.758 70.3985Z" fill="white"/>
<path d="M343.778 78.6739C342.141 78.6751 340.54 78.1907 339.179 77.2821C337.817 76.3734 336.755 75.0814 336.128 73.5694C335.501 72.0573 335.336 70.3932 335.655 68.7876C335.974 67.1819 336.761 65.7068 337.918 64.5489C339.075 63.391 340.55 62.6023 342.155 62.2825C343.761 61.9627 345.425 62.1262 346.938 62.7524C348.45 63.3786 349.743 64.4393 350.652 65.8003C351.562 67.1613 352.047 68.7615 352.047 70.3985C352.046 72.5918 351.174 74.6949 349.624 76.2464C348.074 77.7978 345.971 78.6708 343.778 78.6739ZM343.778 62.7071C342.255 62.706 340.766 63.1566 339.499 64.0019C338.233 64.8473 337.245 66.0493 336.662 67.456C336.079 68.8627 335.926 70.4108 336.222 71.9045C336.519 73.3981 337.253 74.7701 338.329 75.847C339.406 76.9238 340.778 77.657 342.272 77.9538C343.765 78.2506 345.314 78.0977 346.72 77.5144C348.127 76.9311 349.329 75.9436 350.174 74.677C351.02 73.4103 351.47 71.9213 351.469 70.3985C351.468 68.3591 350.657 66.4036 349.215 64.9616C347.773 63.5195 345.817 62.7087 343.778 62.7071Z" fill="#263238"/>
<path d="M355.581 88.4186C352.216 91.0681 348.058 92.5087 343.775 92.5087C339.492 92.5087 335.334 91.0681 331.969 88.4186C332.559 85.7268 334.052 83.3175 336.199 81.5901C338.346 79.8627 341.019 78.9209 343.775 78.9209C346.531 78.9209 349.204 79.8627 351.351 81.5901C353.498 83.3175 354.991 85.7268 355.581 88.4186Z" fill="white"/>
<path d="M343.778 92.7956C339.426 92.8155 335.197 91.3508 331.79 88.6434C331.747 88.6108 331.715 88.5669 331.697 88.5168C331.678 88.4666 331.674 88.4123 331.685 88.3601C332.289 85.6029 333.817 83.1348 336.016 81.3652C338.215 79.5957 340.952 78.6309 343.775 78.6309C346.597 78.6309 349.335 79.5957 351.534 81.3652C353.733 83.1348 355.26 85.6029 355.864 88.3601C355.875 88.4123 355.871 88.4666 355.853 88.5168C355.834 88.5669 355.802 88.6108 355.76 88.6434C352.345 91.3322 348.124 92.7945 343.778 92.7956ZM332.293 88.3022C335.574 90.8573 339.619 92.2361 343.778 92.2173C347.931 92.2162 351.968 90.8395 355.257 88.3022C354.647 85.7154 353.181 83.4104 351.097 81.7608C349.013 80.1112 346.433 79.2137 343.775 79.2137C341.117 79.2137 338.537 80.1112 336.453 81.7608C334.369 83.4104 332.903 85.7154 332.293 88.3022Z" fill="#263238"/>
<path d="M383.743 126.891C383.743 131.59 382.35 136.183 379.739 140.089C377.129 143.996 373.418 147.041 369.077 148.839C364.736 150.636 359.959 151.106 355.351 150.189C350.743 149.272 346.51 147.009 343.188 143.686C339.866 140.363 337.604 136.13 336.688 131.521C335.773 126.913 336.244 122.136 338.043 117.795C339.842 113.455 342.888 109.745 346.796 107.136C350.703 104.527 355.297 103.135 359.995 103.136C363.118 103.122 366.214 103.726 369.102 104.915C371.99 106.104 374.614 107.853 376.822 110.062C379.03 112.271 380.779 114.896 381.967 117.784C383.155 120.673 383.758 123.768 383.743 126.891Z" fill="#50BFD7"/>
<path d="M359.981 150.998C353.588 150.994 347.458 148.453 342.936 143.933C338.415 139.413 335.872 133.284 335.867 126.89C335.867 122.123 337.28 117.462 339.929 113.498C342.578 109.534 346.342 106.444 350.747 104.619C355.151 102.794 359.998 102.316 364.674 103.246C369.35 104.176 373.646 106.471 377.018 109.842C380.389 113.212 382.686 117.507 383.617 122.183C384.548 126.859 384.072 131.706 382.248 136.111C380.425 140.516 377.336 144.282 373.372 146.931C369.409 149.581 364.749 150.996 359.981 150.998ZM359.981 103.495C355.116 103.494 350.372 105.01 346.409 107.832C342.446 110.654 339.462 114.641 337.872 119.239C336.282 123.837 336.165 128.816 337.538 133.483C338.911 138.15 341.705 142.273 345.531 145.278C349.636 148.548 354.733 150.322 359.981 150.308C366.114 150.2 371.96 147.689 376.259 143.313C380.558 138.938 382.967 133.05 382.967 126.916C382.967 120.782 380.558 114.893 376.259 110.518C371.96 106.143 366.114 103.631 359.981 103.523V103.495Z" fill="#50BFD7"/>
<path d="M369.897 123.169C369.895 121.208 369.313 119.291 368.222 117.661C367.132 116.032 365.583 114.762 363.771 114.013C361.959 113.263 359.965 113.068 358.042 113.451C356.119 113.835 354.353 114.78 352.967 116.167C351.581 117.554 350.637 119.321 350.255 121.244C349.873 123.167 350.07 125.161 350.82 126.972C351.571 128.783 352.842 130.332 354.473 131.421C356.103 132.51 358.02 133.092 359.981 133.092C361.284 133.092 362.574 132.835 363.777 132.336C364.981 131.837 366.074 131.106 366.995 130.185C367.916 129.263 368.646 128.169 369.144 126.965C369.642 125.761 369.898 124.471 369.897 123.169Z" fill="white"/>
<path d="M359.981 133.451C357.947 133.452 355.959 132.85 354.267 131.721C352.575 130.592 351.256 128.987 350.477 127.108C349.697 125.229 349.493 123.162 349.889 121.167C350.285 119.171 351.263 117.339 352.701 115.9C354.139 114.461 355.971 113.481 357.966 113.084C359.96 112.687 362.028 112.89 363.908 113.668C365.787 114.446 367.393 115.764 368.523 117.455C369.653 119.146 370.257 121.134 370.257 123.168C370.255 125.893 369.172 128.507 367.245 130.434C365.319 132.362 362.707 133.447 359.981 133.451ZM359.981 113.611C358.089 113.61 356.239 114.17 354.665 115.22C353.092 116.271 351.865 117.764 351.14 119.512C350.415 121.26 350.225 123.183 350.594 125.039C350.963 126.895 351.874 128.6 353.212 129.938C354.55 131.276 356.254 132.187 358.11 132.556C359.966 132.925 361.89 132.735 363.638 132.01C365.385 131.285 366.879 130.058 367.929 128.484C368.98 126.91 369.54 125.06 369.538 123.168C369.536 120.634 368.529 118.204 366.737 116.413C364.945 114.621 362.515 113.613 359.981 113.611Z" fill="#50BFD7"/>
<path d="M374.647 145.558C370.466 148.85 365.299 150.64 359.978 150.64C354.656 150.64 349.49 148.85 345.309 145.558C346.042 142.213 347.896 139.22 350.564 137.073C353.232 134.927 356.554 133.757 359.978 133.757C363.402 133.757 366.723 134.927 369.391 137.073C372.059 139.22 373.913 142.213 374.647 145.558Z" fill="white"/>
<path d="M359.981 150.997C354.574 151.022 349.32 149.202 345.086 145.838C345.033 145.798 344.993 145.743 344.97 145.681C344.947 145.619 344.943 145.551 344.956 145.486C345.706 142.06 347.605 138.994 350.337 136.795C353.069 134.596 356.471 133.397 359.978 133.397C363.485 133.397 366.886 134.596 369.618 136.795C372.35 138.994 374.249 142.06 374.999 145.486C375.013 145.551 375.008 145.619 374.985 145.681C374.962 145.743 374.922 145.798 374.869 145.838C370.626 149.179 365.382 150.996 359.981 150.997ZM345.711 145.414C349.788 148.589 354.814 150.302 359.981 150.279C365.142 150.278 370.158 148.567 374.244 145.414C373.486 142.2 371.665 139.336 369.075 137.286C366.486 135.237 363.28 134.122 359.978 134.122C356.675 134.122 353.469 135.237 350.88 137.286C348.291 139.336 346.469 142.2 345.711 145.414Z" fill="#50BFD7"/>
<path opacity="0.3" d="M380.135 196.547C386.837 196.547 392.27 191.114 392.27 184.412C392.27 177.71 386.837 172.277 380.135 172.277C373.433 172.277 368 177.71 368 184.412C368 191.114 373.433 196.547 380.135 196.547Z" fill="black"/>
<path fill-rule="evenodd" clip-rule="evenodd" d="M379.135 185.412V191.232H381.135V185.412H386.955V183.412H381.135V177.579H379.135V183.412H373.302V185.412H379.135Z" fill="white"/>
<path d="M134.028 148.055C148.955 148.055 161.055 135.955 161.055 121.028C161.055 106.101 148.955 94 134.028 94C119.101 94 107 106.101 107 121.028C107 135.955 119.101 148.055 134.028 148.055Z" fill="#50BFD7"/>
<path fill-rule="evenodd" clip-rule="evenodd" d="M131.8 123.255V136.218H136.255V123.255H149.218V118.8H136.255V105.809H131.8V118.8H118.809V123.255H131.8Z" fill="white"/>
<path opacity="0.3" fill-rule="evenodd" clip-rule="evenodd" d="M102.971 291.807C102.971 291.357 103.336 290.992 103.786 290.992H157.185C157.635 290.992 158 291.357 158 291.807V344.227C158 344.678 157.635 345.043 157.185 345.043H103.786C103.336 345.043 102.971 344.678 102.971 344.227V291.807ZM104.602 292.623V343.412H156.369V292.623H104.602Z" fill="#454545"/>
<path opacity="0.3" fill-rule="evenodd" clip-rule="evenodd" d="M133.39 295.766C132.137 295.869 131.208 296.111 130.706 296.417L130.602 296.48L130.484 296.51L130.479 296.512L130.457 296.517L130.366 296.542C130.286 296.564 130.167 296.597 130.013 296.641C129.707 296.73 129.266 296.864 128.734 297.042C127.668 297.399 126.247 297.931 124.817 298.63C123.38 299.332 121.968 300.186 120.895 301.176C119.817 302.17 119.152 303.234 119.044 304.358L119.043 304.371L119.041 304.384C118.698 307.065 118.698 309.779 119.041 312.46L119.146 313.278L118.339 313.372C118.335 313.373 118.328 313.374 118.318 313.376C118.289 313.383 118.24 313.397 118.181 313.421C118.062 313.469 117.913 313.554 117.785 313.703C117.564 313.958 117.202 314.639 117.695 316.349L117.699 316.362L117.703 316.376C118.191 318.324 119.312 320.055 120.889 321.298L121.085 321.453L122.862 326.996L121.856 331.102H119.164L119.651 336.085L118.958 336.249L118.92 336.258L118.807 336.285C118.708 336.308 118.563 336.344 118.376 336.389C118.004 336.481 117.469 336.614 116.823 336.78C115.53 337.113 113.795 337.578 112.02 338.109C110.241 338.642 108.439 339.234 107.008 339.821C106.291 340.115 105.685 340.399 105.229 340.665C104.917 340.846 104.719 340.994 104.602 341.101V343.412H156.369V342.815L155.711 342.228L155.695 342.211C155.512 342.028 155.137 341.767 154.548 341.443C153.976 341.129 153.259 340.785 152.442 340.426C150.809 339.708 148.821 338.944 146.888 338.244C144.957 337.544 143.091 336.91 141.708 336.452C141.016 336.223 140.446 336.037 140.048 335.909C139.85 335.845 139.694 335.796 139.589 335.762L139.469 335.724L139.429 335.711L138.912 335.549L138.642 332.689L135.749 332.159L134.727 325.899L135.527 325.765L135.535 325.764L135.568 325.758C135.599 325.752 135.646 325.743 135.707 325.731C135.83 325.705 136.012 325.665 136.235 325.608C136.684 325.494 137.298 325.313 137.957 325.045C139.308 324.497 140.696 323.65 141.373 322.425C141.498 322.198 141.605 321.815 141.659 321.248C141.711 320.694 141.707 320.026 141.655 319.276C141.552 317.777 141.264 316.026 140.921 314.343C140.578 312.663 140.185 311.072 139.876 309.9C139.722 309.314 139.59 308.834 139.496 308.501C139.449 308.334 139.412 308.205 139.387 308.117L139.358 308.017L139.35 307.993L139.349 307.987L139.348 307.985L139.247 307.643L139.429 307.337L139.433 307.329L139.452 307.297C139.469 307.267 139.495 307.222 139.527 307.162C139.593 307.042 139.686 306.865 139.794 306.644C140.011 306.199 140.282 305.584 140.503 304.895C140.967 303.453 141.125 301.963 140.51 300.955L137.573 296.139L139.889 297.104L139.893 297.106L139.906 297.111L139.961 297.134C140.01 297.154 140.082 297.183 140.174 297.219C140.357 297.291 140.617 297.392 140.922 297.504C141.538 297.729 142.319 297.992 143.023 298.165C143.31 298.236 143.571 298.288 143.794 298.318C143.39 297.781 142.584 297.257 141.428 296.817C140.282 296.381 138.893 296.065 137.468 295.885C136.044 295.706 134.614 295.666 133.39 295.766ZM141.484 299.42C141.86 299.54 142.254 299.655 142.634 299.749C143.027 299.845 143.426 299.924 143.789 299.958C144.126 299.989 144.542 299.995 144.903 299.856C145.099 299.78 145.321 299.647 145.484 299.412C145.653 299.169 145.705 298.896 145.688 298.645C145.658 298.2 145.411 297.765 145.124 297.374C144.447 296.451 143.282 295.778 142.009 295.293C140.711 294.8 139.19 294.459 137.672 294.268C136.152 294.076 134.608 294.031 133.257 294.141C131.992 294.245 130.798 294.493 129.966 294.961L129.938 294.969C129.85 294.993 129.721 295.028 129.559 295.075C129.234 295.17 128.771 295.31 128.216 295.496C127.107 295.868 125.615 296.425 124.101 297.165C122.593 297.902 121.025 298.837 119.789 299.978C118.56 301.111 117.587 302.515 117.422 304.189C117.091 306.786 117.066 309.411 117.346 312.012C117.094 312.142 116.81 312.338 116.553 312.635C115.846 313.45 115.546 314.77 116.125 316.787C116.682 318.997 117.93 320.969 119.683 322.42L121.169 327.055L120.577 329.472H117.366L117.89 334.83C117.519 334.921 117.015 335.047 116.416 335.201C115.111 335.537 113.354 336.008 111.552 336.547C109.754 337.085 107.894 337.696 106.39 338.312C105.638 338.62 104.957 338.937 104.409 339.256C103.892 339.556 103.38 339.922 103.098 340.367L102.971 340.567V345.043H158V342.085L156.83 341.041C156.475 340.692 155.936 340.346 155.333 340.015C154.703 339.668 153.938 339.303 153.098 338.934C151.417 338.194 149.39 337.416 147.443 336.711C145.494 336.004 143.613 335.366 142.221 334.904C141.524 334.673 140.949 334.487 140.548 334.357C140.508 334.345 140.47 334.332 140.434 334.321L140.15 331.308L137.173 330.762L136.591 327.2C136.607 327.196 136.622 327.192 136.638 327.188C137.139 327.061 137.826 326.858 138.569 326.556C140.022 325.967 141.846 324.939 142.8 323.213C143.082 322.702 143.22 322.061 143.282 321.401C143.346 320.728 143.337 319.965 143.282 319.164C143.171 317.562 142.868 315.731 142.518 314.017C142.168 312.298 141.766 310.676 141.453 309.485C141.296 308.889 141.161 308.4 141.065 308.059C141.044 307.983 141.025 307.914 141.007 307.853C141.077 307.723 141.164 307.556 141.26 307.358C141.5 306.866 141.804 306.177 142.055 305.394C142.538 303.893 142.918 301.772 141.902 300.106L141.484 299.42Z" fill="#454545"/>
<path d="M365.412 328.015L376.735 436.492" stroke="#263238" stroke-width="2" stroke-miterlimit="10"/>
<path d="M374.909 415.736L369.778 410.315" stroke="#263238" stroke-width="2" stroke-miterlimit="10"/>
<path d="M371.335 411.936C371.325 411.106 371.138 410.289 370.785 409.538C370.432 408.787 369.922 408.121 369.29 407.584C367.973 406.409 361.038 403.493 360.38 405.935C359.665 408.589 366.763 413.832 371.335 411.936Z" fill="#50BFD7" stroke="#263238" stroke-miterlimit="10"/>
<path d="M371.335 411.936L364.732 407.824" stroke="#263238" stroke-width="0.5" stroke-miterlimit="10"/>
<path d="M376.197 428.07L371.059 422.649" stroke="#263238" stroke-width="2" stroke-miterlimit="10"/>
<path d="M372.623 424.27C372.613 423.44 372.426 422.623 372.073 421.872C371.72 421.121 371.21 420.455 370.578 419.918C369.262 418.743 362.327 415.827 361.669 418.269C360.954 420.908 368.052 426.138 372.623 424.27Z" fill="#50BFD7" stroke="#263238" stroke-miterlimit="10"/>
<path d="M372.623 424.271L366.021 420.159" stroke="#263238" stroke-width="0.5" stroke-miterlimit="10"/>
<path d="M371.767 385.632L366.636 380.211" stroke="#263238" stroke-width="2" stroke-miterlimit="10"/>
<path d="M368.193 381.832C368.183 381.003 367.996 380.185 367.643 379.434C367.29 378.683 366.78 378.017 366.148 377.48C364.831 376.306 357.896 373.39 357.238 375.831C356.538 378.485 363.614 383.701 368.193 381.832Z" fill="#50BFD7" stroke="#263238" stroke-miterlimit="10"/>
<path d="M368.193 381.832L361.59 377.721" stroke="#263238" stroke-width="0.5" stroke-miterlimit="10"/>
<path d="M373.055 397.967L367.924 392.546" stroke="#263238" stroke-width="2" stroke-miterlimit="10"/>
<path d="M369.481 394.166C369.471 393.337 369.283 392.519 368.931 391.768C368.578 391.018 368.068 390.351 367.436 389.814C366.12 388.64 359.185 385.724 358.527 388.165C357.812 390.819 364.91 396.035 369.481 394.166Z" fill="#50BFD7" stroke="#263238" stroke-miterlimit="10"/>
<path d="M369.481 394.166L362.878 390.055" stroke="#263238" stroke-width="0.5" stroke-miterlimit="10"/>
<path d="M369.672 365.592L364.542 360.171" stroke="#263238" stroke-width="2" stroke-miterlimit="10"/>
<path d="M366.099 361.791C366.089 360.962 365.903 360.145 365.551 359.394C365.2 358.643 364.691 357.977 364.06 357.439C362.744 356.264 355.83 353.349 355.123 355.804C354.415 358.444 361.534 363.659 366.099 361.791Z" fill="#50BFD7" stroke="#263238" stroke-miterlimit="10"/>
<path d="M366.098 361.791L359.503 357.68" stroke="#263238" stroke-width="0.5" stroke-miterlimit="10"/>
<path d="M367.57 345.466L362.44 340.045" stroke="#263238" stroke-width="2" stroke-miterlimit="10"/>
<path d="M364.004 341.652C363.992 340.822 363.804 340.005 363.451 339.255C363.099 338.504 362.59 337.837 361.959 337.299C360.642 336.125 353.707 333.202 353.049 335.644C352.334 338.318 359.432 343.534 364.004 341.652Z" fill="#50BFD7" stroke="#263238" stroke-miterlimit="10"/>
<path d="M364.004 341.665L357.401 337.554" stroke="#263238" stroke-width="0.5" stroke-miterlimit="10"/>
<path d="M374.045 408.433L377.945 402.071" stroke="#263238" stroke-width="2" stroke-miterlimit="10"/>
<path d="M376.756 403.981C376.595 403.168 376.61 402.33 376.801 401.523C376.991 400.716 377.352 399.959 377.86 399.304C378.9 397.888 385.085 393.593 386.231 395.843C387.477 398.299 381.61 404.866 376.756 403.981Z" fill="#50BFD7" stroke="#263238" stroke-miterlimit="10"/>
<path d="M376.756 403.981L382.7 398.299" stroke="#263238" stroke-width="0.5" stroke-miterlimit="10"/>
<path d="M370.656 375.972L374.562 369.604" stroke="#263238" stroke-width="2" stroke-miterlimit="10"/>
<path d="M373.366 371.514C373.205 370.701 373.221 369.862 373.411 369.055C373.601 368.249 373.963 367.492 374.47 366.836C375.517 365.421 381.695 361.125 382.842 363.383C384.094 365.831 378.228 372.398 373.366 371.514Z" fill="#50BFD7" stroke="#263238" stroke-miterlimit="10"/>
<path d="M373.366 371.514L379.311 365.839" stroke="#263238" stroke-width="0.5" stroke-miterlimit="10"/>
<path d="M369.169 361.706L373.069 355.337" stroke="#263238" stroke-width="2" stroke-miterlimit="10"/>
<path d="M371.88 357.22C371.719 356.407 371.734 355.569 371.923 354.763C372.112 353.956 372.472 353.199 372.977 352.542C374.024 351.127 380.209 346.831 381.356 349.089C382.601 351.559 376.735 358.133 371.88 357.22Z" fill="#50BFD7" stroke="#263238" stroke-miterlimit="10"/>
<path d="M371.88 357.248L377.824 351.572" stroke="#263238" stroke-width="0.5" stroke-miterlimit="10"/>
<path d="M366.983 340.788L370.889 334.426" stroke="#263238" stroke-width="2" stroke-miterlimit="10"/>
<path d="M369.693 336.337C369.533 335.522 369.548 334.683 369.739 333.875C369.929 333.067 370.29 332.309 370.797 331.652C371.845 330.237 378.023 325.948 379.169 328.198C380.421 330.647 374.555 337.221 369.693 336.337Z" fill="#50BFD7" stroke="#263238" stroke-miterlimit="10"/>
<path d="M369.693 336.337L375.638 330.654" stroke="#263238" stroke-width="0.5" stroke-miterlimit="10"/>
<path d="M365.313 327.413C365.152 326.6 365.167 325.762 365.358 324.955C365.548 324.148 365.909 323.391 366.417 322.736C367.464 321.32 373.642 317.025 374.788 319.282C376.041 321.731 370.174 328.298 365.313 327.413Z" fill="#50BFD7" stroke="#263238" stroke-miterlimit="10"/>
<path d="M365.313 327.413L371.257 321.737" stroke="#263238" stroke-width="0.5" stroke-miterlimit="10"/>
<path d="M365.659 327.661C364.834 327.735 364.002 327.632 363.22 327.359C362.438 327.085 361.723 326.648 361.123 326.076C359.814 324.887 356.17 318.291 358.562 317.386C361.13 316.402 367.046 322.92 365.659 327.661Z" fill="#50BFD7" stroke="#263238" stroke-miterlimit="10"/>
<path d="M365.66 327.661L360.635 321.157" stroke="#263238" stroke-width="0.5" stroke-miterlimit="10"/>
<path d="M395.268 342.953L384.009 451.438" stroke="#263238" stroke-width="2" stroke-miterlimit="10"/>
<path d="M386.5 430.745L382.594 424.391" stroke="#263238" stroke-width="2" stroke-miterlimit="10"/>
<path d="M383.79 426.295C383.956 425.484 383.946 424.647 383.762 423.84C383.577 423.033 383.223 422.275 382.721 421.617C381.674 420.202 375.489 415.913 374.343 418.171C373.062 420.619 378.928 427.186 383.79 426.295Z" fill="#50BFD7" stroke="#263238" stroke-miterlimit="10"/>
<path d="M383.79 426.294L378.178 420.916" stroke="#263238" stroke-width="0.5" stroke-miterlimit="10"/>
<path d="M389.628 400.642L385.722 394.28" stroke="#263238" stroke-width="2" stroke-miterlimit="10"/>
<path d="M386.91 396.191C387.071 395.378 387.056 394.539 386.865 393.732C386.675 392.926 386.314 392.169 385.806 391.513C384.759 390.098 378.574 385.809 377.428 388.06C376.182 390.515 382.056 397.075 386.91 396.191Z" fill="#50BFD7" stroke="#263238" stroke-miterlimit="10"/>
<path d="M386.911 396.19L381.299 390.805" stroke="#263238" stroke-width="0.5" stroke-miterlimit="10"/>
<path d="M388.347 412.983L384.441 406.621" stroke="#263238" stroke-width="2" stroke-miterlimit="10"/>
<path d="M385.63 408.532C385.791 407.718 385.776 406.878 385.585 406.07C385.395 405.262 385.034 404.504 384.526 403.848C383.479 402.432 377.301 398.144 376.154 400.401C374.937 402.85 380.775 409.417 385.63 408.532Z" fill="#50BFD7" stroke="#263238" stroke-miterlimit="10"/>
<path d="M385.63 408.532L380.018 403.146" stroke="#263238" stroke-width="0.5" stroke-miterlimit="10"/>
<path d="M391.709 380.6L387.802 374.238" stroke="#263238" stroke-width="2" stroke-miterlimit="10"/>
<path d="M388.991 376.15C389.152 375.337 389.137 374.498 388.946 373.691C388.756 372.884 388.395 372.128 387.887 371.472C386.84 370.057 380.655 365.768 379.509 368.019C378.263 370.474 384.137 377.034 388.991 376.15Z" fill="#50BFD7" stroke="#263238" stroke-miterlimit="10"/>
<path d="M388.991 376.15L383.379 370.765" stroke="#263238" stroke-width="0.5" stroke-miterlimit="10"/>
<path d="M393.796 360.475L389.89 354.113" stroke="#263238" stroke-width="2" stroke-miterlimit="10"/>
<path d="M391.079 356.023C391.24 355.209 391.225 354.37 391.034 353.562C390.844 352.753 390.483 351.996 389.975 351.339C388.928 349.923 382.743 345.635 381.596 347.892C380.351 350.341 386.26 356.908 391.079 356.023Z" fill="#50BFD7" stroke="#263238" stroke-miterlimit="10"/>
<path d="M391.079 356.023L385.467 350.638" stroke="#263238" stroke-width="0.5" stroke-miterlimit="10"/>
<path d="M387.158 423.428L392.289 418.008" stroke="#263238" stroke-width="2" stroke-miterlimit="10"/>
<path d="M390.732 419.628C390.737 418.795 390.922 417.972 391.273 417.216C391.625 416.46 392.136 415.789 392.77 415.248C394.086 414.066 401.021 411.151 401.679 413.592C402.394 416.274 395.303 421.497 390.732 419.628Z" fill="#50BFD7" stroke="#263238" stroke-miterlimit="10"/>
<path d="M390.732 419.628L397.717 415.297" stroke="#263238" stroke-width="0.5" stroke-miterlimit="10"/>
<path d="M390.527 390.961L395.657 385.54" stroke="#263238" stroke-width="2" stroke-miterlimit="10"/>
<path d="M394.101 387.16C394.11 386.331 394.296 385.514 394.648 384.763C394.999 384.013 395.508 383.346 396.139 382.808C397.455 381.634 404.39 378.711 405.048 381.152C405.763 383.806 398.672 389.064 394.101 387.16Z" fill="#50BFD7" stroke="#263238" stroke-miterlimit="10"/>
<path d="M394.101 387.161L401.085 382.83" stroke="#263238" stroke-width="0.5" stroke-miterlimit="10"/>
<path d="M392.013 376.694L397.137 371.267" stroke="#263238" stroke-width="2" stroke-miterlimit="10"/>
<path d="M395.58 372.894C395.589 372.065 395.775 371.248 396.127 370.497C396.478 369.746 396.987 369.08 397.618 368.542C398.934 367.36 405.869 364.445 406.527 366.886C407.242 369.54 400.151 374.762 395.58 372.894Z" fill="#50BFD7" stroke="#263238" stroke-miterlimit="10"/>
<path d="M395.58 372.894L402.564 368.563" stroke="#263238" stroke-width="0.5" stroke-miterlimit="10"/>
<path d="M394.178 355.776L399.309 350.355" stroke="#263238" stroke-width="2" stroke-miterlimit="10"/>
<path d="M397.752 351.976C397.762 351.147 397.948 350.33 398.3 349.579C398.651 348.828 399.16 348.162 399.79 347.624C401.106 346.449 408.041 343.526 408.699 345.968C409.414 348.621 402.323 353.844 397.752 351.976Z" fill="#50BFD7" stroke="#263238" stroke-miterlimit="10"/>
<path d="M397.752 351.975L404.737 347.645" stroke="#263238" stroke-width="0.5" stroke-miterlimit="10"/>
<path d="M395.304 342.359C395.313 341.53 395.5 340.713 395.852 339.962C396.203 339.211 396.711 338.545 397.342 338.006C398.658 336.832 405.586 333.909 406.251 336.351C406.966 338.99 399.875 344.213 395.304 342.359Z" fill="#50BFD7" stroke="#263238" stroke-miterlimit="10"/>
<path d="M395.304 342.345L402.288 338.014" stroke="#263238" stroke-width="0.5" stroke-miterlimit="10"/>
<path d="M395.587 342.656C394.763 342.561 393.968 342.29 393.258 341.861C392.547 341.433 391.937 340.857 391.468 340.172C390.435 338.757 388.263 331.538 390.761 331.142C393.471 330.703 397.922 338.311 395.587 342.656Z" fill="#50BFD7" stroke="#263238" stroke-miterlimit="10"/>
<path d="M395.587 342.656L392.006 335.254" stroke="#263238" stroke-width="0.5" stroke-miterlimit="10"/>
<path d="M382.368 298.781V435.968" stroke="#263238" stroke-width="2" stroke-miterlimit="10"/>
<path d="M382.481 415.339L377.938 409.416" stroke="#263238" stroke-width="2" stroke-miterlimit="10"/>
<path d="M379.317 411.193C379.394 410.367 379.293 409.534 379.021 408.75C378.748 407.967 378.311 407.251 377.739 406.65C376.55 405.341 369.955 401.696 369.049 404.081C368.066 406.65 374.583 412.573 379.317 411.193Z" fill="#50BFD7" stroke="#263238" stroke-miterlimit="10"/>
<path d="M379.317 411.193L373.182 406.416" stroke="#263238" stroke-width="0.5" stroke-miterlimit="10"/>
<path d="M382.481 389.56L377.938 383.637" stroke="#263238" stroke-width="2" stroke-miterlimit="10"/>
<path d="M379.317 385.413C379.394 384.587 379.293 383.754 379.021 382.97C378.748 382.187 378.311 381.47 377.739 380.87C376.55 379.56 369.955 375.916 369.049 378.301C368.066 380.87 374.583 386.793 379.317 385.413Z" fill="#50BFD7" stroke="#263238" stroke-miterlimit="10"/>
<path d="M425.317 385.412L419.182 380.636" stroke="#263238" stroke-width="0.5" stroke-miterlimit="10"/>
<path d="M382.481 359.293L377.938 353.37" stroke="#263238" stroke-width="2" stroke-miterlimit="10"/>
<path d="M379.317 355.146C379.394 354.32 379.293 353.487 379.021 352.704C378.748 351.92 378.311 351.204 377.739 350.603C376.55 349.294 369.955 345.649 369.049 348.034C368.066 350.603 374.583 356.512 379.317 355.146Z" fill="#50BFD7" stroke="#263238" stroke-miterlimit="10"/>
<path d="M379.317 355.146L373.182 350.369" stroke="#263238" stroke-width="0.5" stroke-miterlimit="10"/>
<path d="M382.481 339.139L377.938 333.216" stroke="#263238" stroke-width="2" stroke-miterlimit="10"/>
<path d="M379.317 334.992C379.394 334.167 379.293 333.335 379.02 332.552C378.748 331.77 378.311 331.055 377.739 330.455C376.55 329.146 369.955 325.502 369.049 327.887C368.066 330.455 374.583 336.379 379.317 334.992Z" fill="#50BFD7" stroke="#263238" stroke-miterlimit="10"/>
<path d="M379.317 334.992L373.182 330.223" stroke="#263238" stroke-width="0.5" stroke-miterlimit="10"/>
<path d="M382.481 318.907L377.938 312.983" stroke="#263238" stroke-width="2" stroke-miterlimit="10"/>
<path d="M379.317 314.759C379.394 313.933 379.293 313.101 379.021 312.317C378.748 311.533 378.311 310.817 377.739 310.216C376.55 308.907 369.955 305.263 369.049 307.647C368.066 310.216 374.583 316.175 379.317 314.759Z" fill="#50BFD7" stroke="#263238" stroke-miterlimit="10"/>
<path d="M379.317 314.76L373.182 309.983" stroke="#263238" stroke-width="0.5" stroke-miterlimit="10"/>
<path d="M382.381 423.209L386.917 417.286" stroke="#263238" stroke-width="2" stroke-miterlimit="10"/>
<path d="M385.552 419.062C385.476 418.236 385.577 417.403 385.849 416.619C386.121 415.836 386.558 415.12 387.13 414.519C388.319 413.217 394.914 409.565 395.82 411.957C396.797 414.54 390.279 420.449 385.552 419.062Z" fill="#50BFD7" stroke="#263238" stroke-miterlimit="10"/>
<path d="M385.538 419.062L392.041 414.03" stroke="#263238" stroke-width="0.5" stroke-miterlimit="10"/>
<path d="M382.381 382.207L386.917 376.284" stroke="#263238" stroke-width="2" stroke-miterlimit="10"/>
<path d="M385.552 378.06C385.476 377.234 385.577 376.401 385.849 375.617C386.121 374.834 386.558 374.118 387.13 373.517C388.319 372.215 394.914 368.563 395.82 370.955C396.797 373.496 390.279 379.447 385.552 378.06Z" fill="#50BFD7" stroke="#263238" stroke-miterlimit="10"/>
<path d="M385.538 378.06L392.041 373.028" stroke="#263238" stroke-width="0.5" stroke-miterlimit="10"/>
<path d="M382.381 361.975L386.917 356.045" stroke="#263238" stroke-width="2" stroke-miterlimit="10"/>
<path d="M385.552 357.829C385.476 357.003 385.577 356.17 385.849 355.386C386.121 354.603 386.558 353.886 387.13 353.286C388.319 351.976 394.914 348.332 395.82 350.717C396.797 353.286 390.279 359.209 385.552 357.829Z" fill="#50BFD7" stroke="#263238" stroke-miterlimit="10"/>
<path d="M385.538 357.828L392.041 352.789" stroke="#263238" stroke-width="0.5" stroke-miterlimit="10"/>
<path d="M382.381 335.226L386.917 329.303" stroke="#263238" stroke-width="2" stroke-miterlimit="10"/>
<path d="M385.552 331.079C385.476 330.253 385.577 329.42 385.849 328.636C386.121 327.853 386.558 327.136 387.13 326.536C388.319 325.226 394.914 321.582 395.82 323.967C396.797 326.536 390.279 332.452 385.552 331.079Z" fill="#50BFD7" stroke="#263238" stroke-miterlimit="10"/>
<path d="M385.538 331.078L392.041 326.047" stroke="#263238" stroke-width="0.5" stroke-miterlimit="10"/>
<path d="M382.381 314.194L386.917 308.271" stroke="#263238" stroke-width="2" stroke-miterlimit="10"/>
<path d="M385.552 310.046C385.476 309.22 385.577 308.387 385.849 307.604C386.121 306.82 386.558 306.104 387.13 305.503C388.319 304.201 394.914 300.55 395.82 302.941C396.797 305.503 390.279 311.426 385.552 310.046Z" fill="#50BFD7" stroke="#263238" stroke-miterlimit="10"/>
<path d="M385.538 310.047L392.041 305.016" stroke="#263238" stroke-width="0.5" stroke-miterlimit="10"/>
<path d="M382.106 300.72C382.029 299.894 382.131 299.061 382.403 298.278C382.675 297.494 383.112 296.778 383.684 296.177C384.873 294.875 391.468 291.223 392.374 293.615C393.336 296.177 386.847 302.107 382.106 300.72Z" fill="#50BFD7" stroke="#263238" stroke-miterlimit="10"/>
<path d="M382.105 300.72L388.609 295.688" stroke="#263238" stroke-width="0.5" stroke-miterlimit="10"/>
<path d="M382.424 301.003C381.594 300.991 380.776 300.802 380.026 300.448C379.275 300.094 378.609 299.583 378.072 298.951C376.897 297.635 373.989 290.699 376.43 290.041C379.084 289.334 384.292 296.431 382.424 301.003Z" fill="#50BFD7" stroke="#263238" stroke-miterlimit="10"/>
<path d="M382.424 301.002L378.1 294.011" stroke="#263238" stroke-width="0.5" stroke-miterlimit="10"/>
<path d="M388.014 471.542H373.486L371.667 434.85H389.826L388.014 471.542Z" fill="#263238" stroke="#263238" stroke-miterlimit="10"/>
<path d="M191.883 163.633L154.699 195.995L145.618 202.275L154.251 211.985H156.919L212.248 178.132L191.883 163.633Z" fill="#2C2C2C"/>
<path d="M287.958 183.071L313.808 225.044L318.514 235.036L329.501 228.11L329.948 225.492L305.606 165.357L287.958 183.071Z" fill="#2C2C2C"/>
<path d="M311.505 221.712L299.541 269.534L299.358 282.062L306.384 286.254L310.494 281.382L328.357 227.959L311.505 221.712Z" fill="#2C2C2C"/>
<path d="M242.639 155.58C248.008 155.58 256.376 154.47 256.376 150.825L255 138.662L253.791 128.024C253.791 124.378 249.433 121.412 244.064 121.412C241.379 121.412 238.943 122.158 237.187 123.351C235.431 124.544 234.337 126.201 234.337 128.024L233.16 138.679L232.017 148.886C230.459 155.05 242.639 155.58 242.639 155.58Z" fill="#2C2C2C"/>
<path d="M242.638 281.251C248.007 281.251 256.375 280.141 256.375 276.496L255 264.333L253.79 253.695C253.79 250.049 249.432 247.083 244.063 247.083C241.379 247.083 238.943 247.829 237.187 249.022C235.43 250.215 234.336 251.872 234.336 253.695L233.16 264.349L232.017 274.557C230.459 280.721 242.638 281.251 242.638 281.251Z" fill="#2C2C2C"/>
<path d="M308.373 171.421C308.373 181.993 301.446 188.538 290.874 188.538C280.302 188.538 271.735 179.971 271.735 169.399C271.735 158.827 279.722 147.162 289.797 150.327C300.899 153.79 308.373 160.849 308.373 171.421Z" fill="white"/>
<path d="M290.874 189.201C279.955 189.201 271.073 180.319 271.073 169.399C271.073 162.373 274.403 155.215 279.341 151.586C282.622 149.183 286.301 148.52 289.996 149.68C302.258 153.525 309.019 161.247 309.019 171.404C309.036 182.208 301.894 189.201 290.874 189.201ZM286.467 150.459C284.263 150.459 282.109 151.205 280.12 152.663C275.563 156.01 272.398 162.887 272.398 169.399C272.398 179.59 280.684 187.875 290.874 187.875C295.912 187.875 300.154 186.351 303.12 183.468C306.119 180.568 307.71 176.392 307.71 171.421C307.71 161.893 301.281 154.618 289.615 150.956C288.555 150.625 287.511 150.459 286.467 150.459Z" fill="#2C2C2C"/>
<path d="M299.757 168.339C299.757 176.16 294.637 180.999 286.815 180.999C278.994 180.999 272.664 174.669 272.664 166.848C272.664 159.026 278.563 150.393 286.02 152.73C294.222 155.315 299.757 160.534 299.757 168.339Z" fill="#2C2C2C"/>
<path d="M179.936 171.422C179.936 181.994 186.862 188.539 197.434 188.539C208.006 188.539 216.573 179.972 216.573 169.4C216.573 158.828 208.586 147.163 198.511 150.328C187.409 153.791 179.936 160.85 179.936 171.422Z" fill="white"/>
<path d="M197.434 189.202C186.398 189.202 179.273 182.226 179.273 171.422C179.273 161.264 186.034 153.542 198.296 149.698C201.991 148.538 205.686 149.201 208.951 151.604C213.905 155.232 217.219 162.391 217.219 169.417C217.236 180.32 208.354 189.202 197.434 189.202ZM201.842 150.46C200.798 150.46 199.754 150.626 198.71 150.957C187.044 154.619 180.615 161.894 180.615 171.422C180.615 176.393 182.206 180.569 185.205 183.469C188.188 186.352 192.413 187.876 197.451 187.876C207.642 187.876 215.927 179.591 215.927 169.4C215.927 162.888 212.745 155.995 208.205 152.664C206.183 151.189 204.046 150.46 201.842 150.46Z" fill="#2C2C2C"/>
<path d="M188.553 168.339C188.553 176.16 193.673 180.999 201.494 180.999C209.316 180.999 215.645 174.669 215.645 166.848C215.645 159.026 209.746 150.393 202.29 152.73C194.071 155.315 188.553 160.534 188.553 168.339Z" fill="#2C2C2C"/>
<path d="M256.723 142.522H231.52C220.517 143.517 209.995 145.787 200.168 149.151L219.026 245.823C220.384 252.815 226.515 257.869 233.641 257.869H254.95C262.092 257.869 268.24 252.799 269.582 245.773L288.091 149.151C278.265 145.787 267.743 143.517 256.723 142.522Z" fill="white"/>
<path d="M254.95 258.532H233.64C226.217 258.532 219.787 253.246 218.379 245.955L199.406 148.703L199.953 148.521C209.994 145.091 220.583 142.837 231.453 141.859H231.519H256.756H256.789C267.66 142.837 278.265 145.074 288.306 148.521L288.853 148.703L270.228 245.905C268.836 253.213 262.407 258.532 254.95 258.532ZM200.93 149.581L219.671 245.69C220.964 252.351 226.846 257.19 233.64 257.19H254.95C261.76 257.19 267.643 252.335 268.919 245.64L287.312 149.581C277.536 146.284 267.229 144.13 256.673 143.168H231.552C220.997 144.13 210.69 146.284 200.93 149.581Z" fill="#2C2C2C"/>
<path d="M213.159 145.439C215.529 160.419 217.898 175.398 220.268 190.361C222.389 201.629 233.077 209.136 244.229 209.202C255.381 209.136 266.069 201.646 268.19 190.361C270.559 175.398 272.929 160.435 275.298 145.489C269.3 144.097 263.086 143.086 256.723 142.522H231.519C225.222 143.086 219.091 144.08 213.159 145.439Z" fill="#50BFD7"/>
<path d="M244.245 209.865C238.562 209.831 232.961 207.942 228.47 204.512C223.797 200.966 220.666 195.979 219.622 190.477V190.461L212.414 144.925L213.01 144.792C219.025 143.4 225.239 142.423 231.453 141.859H231.519H256.756H256.789C263.086 142.423 269.366 143.434 275.464 144.842L276.061 144.975L268.853 190.477C267.825 195.979 264.677 200.95 260.004 204.512C255.513 207.942 249.913 209.831 244.245 209.865ZM220.931 190.262C221.908 195.432 224.858 200.121 229.266 203.468C233.541 206.716 238.86 208.522 244.245 208.539C249.631 208.506 254.95 206.7 259.209 203.468C263.616 200.121 266.566 195.432 267.544 190.262L274.553 146.002C268.72 144.676 262.722 143.732 256.69 143.185H231.552C225.604 143.715 219.671 144.643 213.905 145.952L220.931 190.262Z" fill="#2C2C2C"/>
<path d="M250.21 165.208H237.484C234.104 165.208 231.353 167.958 231.353 171.339V184.065C231.353 187.445 234.104 190.196 237.484 190.196H250.21C253.591 190.196 256.342 187.445 256.342 184.065V171.339C256.342 167.958 253.607 165.208 250.21 165.208ZM227.973 159.789C226.034 159.789 224.46 161.363 224.46 163.302C224.46 165.241 226.034 166.815 227.973 166.815C229.912 166.815 231.486 165.241 231.486 163.302C231.486 161.363 229.912 159.789 227.973 159.789Z" fill="white"/>
<path d="M249.315 172.797C248.503 170.626 246.432 169.184 244.112 169.184H240.666L247.476 186.451H254.784L249.315 172.797ZM235.396 181.496L233.408 186.451H240.666L244.046 177.884H240.599C238.279 177.884 236.208 179.326 235.396 181.496ZM236.523 173.476C237.716 173.476 238.694 172.499 238.694 171.306C238.694 170.112 237.716 169.135 236.523 169.135C235.33 169.135 234.352 170.112 234.352 171.306C234.352 172.499 235.33 173.476 236.523 173.476Z" fill="#50BFD7"/>
<path d="M256.458 135.994H231.818C228.272 135.994 225.355 133.094 225.355 129.532C225.355 125.986 228.255 123.069 231.818 123.069H256.458C260.004 123.069 262.921 125.969 262.921 129.532C262.904 133.094 260.004 135.994 256.458 135.994Z" fill="#50BFD7"/>
<path d="M256.458 136.657H231.818C227.89 136.657 224.692 133.459 224.692 129.532C224.692 125.604 227.89 122.406 231.818 122.406H256.458C260.385 122.406 263.583 125.604 263.583 129.532C263.583 133.459 260.369 136.657 256.458 136.657ZM231.818 123.748C228.62 123.748 226.018 126.35 226.018 129.548C226.018 132.746 228.62 135.348 231.818 135.348H256.458C259.656 135.348 262.258 132.746 262.258 129.548C262.258 126.35 259.656 123.748 256.458 123.748H231.818Z" fill="#2C2C2C"/>
<path d="M245.505 4.72168H242.754V22.7503H245.505V4.72168Z" fill="#2C2C2C"/>
<path d="M255.397 26.5462H232.861C232.447 26.5462 232.116 26.2147 232.116 25.8005V15.4605C232.116 15.0463 232.447 14.7148 232.861 14.7148H255.397C255.811 14.7148 256.143 15.0463 256.143 15.4605V25.8171C256.143 26.2147 255.811 26.5462 255.397 26.5462Z" fill="#50BFD7"/>
<path d="M255.397 27.2087H232.862C232.083 27.2087 231.453 26.579 231.453 25.8002V15.4602C231.453 14.6814 232.083 14.0518 232.862 14.0518H255.397C256.176 14.0518 256.806 14.6814 256.806 15.4602V25.8168C256.806 26.579 256.176 27.2087 255.397 27.2087ZM232.862 15.3608C232.812 15.3608 232.779 15.394 232.779 15.4437V25.8002C232.779 25.8499 232.812 25.8831 232.862 25.8831H255.397C255.447 25.8831 255.48 25.8499 255.48 25.8002V15.4602C255.48 15.4105 255.447 15.3774 255.397 15.3774H232.862V15.3608Z" fill="#2C2C2C"/>
<path d="M247.659 3.51294C247.659 5.45168 246.085 7.02588 244.146 7.02588C242.208 7.02588 240.633 5.45168 240.633 3.51294C240.633 1.57419 242.208 0 244.146 0C246.068 0 247.659 1.57419 247.659 3.51294Z" fill="#2C2C2C"/>
<path d="M246.582 2.15325C246.582 2.74979 246.101 3.23033 245.505 3.23033C244.908 3.23033 244.428 2.74979 244.428 2.15325C244.428 1.55672 244.908 1.07617 245.505 1.07617C246.101 1.07617 246.582 1.55672 246.582 2.15325Z" fill="#2C2C2C"/>
<path d="M264.743 100.417C274.078 100.417 281.645 92.8498 281.645 83.5152C281.645 74.1805 274.078 66.6133 264.743 66.6133C255.409 66.6133 247.841 74.1805 247.841 83.5152C247.841 92.8498 255.409 100.417 264.743 100.417Z" fill="#002731"/>
<path d="M244.129 114.519C285.201 114.519 318.497 99.5702 318.497 81.1297C318.497 62.6892 285.201 47.7402 244.129 47.7402C203.057 47.7402 169.761 62.6892 169.761 81.1297C169.761 99.5702 203.057 114.519 244.129 114.519Z" fill="#2C2C2C"/>
<path d="M178.444 96.8047C179.77 97.9149 181.211 98.992 182.802 100.019C178.958 88.9337 177.284 76.6385 177.682 66.1162C176.472 67.1933 175.379 68.3201 174.434 69.4634C174.467 78.1464 175.776 87.7241 178.444 96.8047Z" fill="#50BFD7"/>
<path d="M313.808 69.4478C312.847 68.3045 311.753 67.1777 310.543 66.1006C311.173 76.7223 309.035 89.233 304.793 100.468C306.434 99.4238 307.958 98.3467 309.334 97.2199C312.3 87.9405 313.857 78.2136 313.808 69.4478Z" fill="#50BFD7"/>
<path d="M259.307 129.648H228.967C204.426 129.648 184.542 109.763 184.542 85.2222V78.478C184.542 46.9941 210.06 21.4922 241.527 21.4922H246.714C278.198 21.4922 303.7 47.0107 303.7 78.478V85.2222C303.716 109.763 283.832 129.648 259.307 129.648Z" fill="white"/>
<path d="M259.307 130.31H228.967C216.92 130.31 205.602 125.621 197.085 117.104C188.568 108.586 183.878 97.2687 183.878 85.2219V78.4778C183.878 63.0838 189.877 48.6012 200.764 37.7144C211.651 26.8276 226.133 20.8291 241.527 20.8291H246.714C262.108 20.8291 276.59 26.8276 287.477 37.7144C298.364 48.6012 304.362 63.0838 304.362 78.4778V85.2219C304.362 97.2687 299.673 108.586 291.156 117.104C282.655 125.621 271.337 130.31 259.307 130.31ZM241.544 22.1547C226.498 22.1547 212.346 28.0207 201.708 38.6589C191.07 49.2972 185.204 63.4483 185.204 78.4943V85.2385C185.204 96.9207 189.761 107.907 198.013 116.176C206.282 124.444 217.268 128.985 228.95 128.985H259.291C270.973 128.985 281.959 124.428 290.228 116.176C298.496 107.907 303.037 96.9207 303.037 85.2385V78.4943C303.037 63.4483 297.171 49.2972 286.532 38.6589C275.894 28.0207 261.743 22.1547 246.697 22.1547H241.544Z" fill="#2C2C2C"/>
<path d="M231.851 104.428C232.232 107.41 233.69 110.161 235.943 112.15C238.197 114.138 241.113 115.248 244.129 115.248C247.145 115.248 250.045 114.155 252.315 112.15C254.569 110.161 256.027 107.41 256.408 104.428H231.851Z" fill="white"/>
<path d="M244.129 115.911C240.948 115.911 237.899 114.751 235.513 112.646C233.127 110.542 231.602 107.659 231.204 104.51L231.105 103.765H257.154L257.054 104.51C256.657 107.659 255.116 110.559 252.746 112.646C250.376 114.751 247.311 115.911 244.129 115.911ZM232.629 105.09C233.127 107.626 234.436 109.945 236.391 111.652C238.529 113.541 241.279 114.585 244.129 114.585C246.979 114.585 249.73 113.541 251.868 111.652C253.823 109.929 255.132 107.626 255.629 105.09H232.629Z" fill="#2C2C2C"/>
<path d="M244.129 57.068C262.373 57.068 278.91 51.5666 291.04 42.6517C280.584 29.7433 264.626 21.4912 246.714 21.4912H241.527C223.631 21.4912 207.657 29.7433 197.201 42.6517C209.347 51.5666 225.885 57.068 244.129 57.068Z" fill="#2C2C2C"/>
<path d="M244.129 29.9424C225.885 29.9424 209.348 35.4438 197.218 44.3587C207.674 57.2671 223.632 65.5192 241.544 65.5192H246.731C264.627 65.5192 280.601 57.2671 291.057 44.3587C278.911 35.4438 262.373 29.9424 244.129 29.9424Z" fill="#50BFD7"/>
<path d="M246.731 66.1983H241.544C224.063 66.1983 207.724 58.3936 196.705 44.7893L196.274 44.2424L196.837 43.8282C209.58 34.4493 226.382 29.2793 244.146 29.2793C261.893 29.2793 278.695 34.4493 291.455 43.8282L292.018 44.2424L291.587 44.7893C280.551 58.3936 264.213 66.1983 246.731 66.1983ZM198.18 44.491C208.934 57.4491 224.692 64.8727 241.544 64.8727H246.731C263.583 64.8727 279.342 57.4491 290.096 44.491C277.635 35.5264 261.346 30.6049 244.146 30.6049C226.913 30.6049 210.624 35.5264 198.18 44.491Z" fill="#2C2C2C"/>
<path d="M285.572 93.3412C283.998 94.2858 282.225 94.7829 280.419 94.7829H207.857C206.05 94.7829 204.277 94.2858 202.703 93.3412C198.826 91.0214 196.622 86.3154 197.169 81.4934L197.202 81.1454C199.058 64.8235 211.27 52.2796 226.233 51.3351C232.563 50.9374 239.208 50.722 246.134 50.7717C251.569 50.8048 256.806 51.0037 261.86 51.3185C276.889 52.2631 289.184 64.7572 291.04 81.1454C291.057 81.2614 291.073 81.3774 291.073 81.4934C291.653 86.3154 289.45 91.0214 285.572 93.3412Z" fill="white"/>
<path d="M280.402 95.4461H207.857C205.935 95.4461 204.046 94.9158 202.355 93.905C198.213 91.436 195.926 86.5311 196.506 81.4109L196.539 81.0629C198.428 64.4096 210.906 51.6172 226.184 50.6561C232.795 50.2418 239.506 50.0595 246.135 50.0927C251.371 50.1258 256.673 50.3081 261.893 50.6395C277.271 51.6006 289.798 64.393 291.687 81.0463L291.72 81.3943C292.3 86.498 290.013 91.4029 285.871 93.8884C284.23 94.9158 282.325 95.4461 280.402 95.4461ZM244.163 51.4349C238.214 51.4349 232.215 51.6172 226.283 51.9983C211.651 52.9262 199.688 65.2215 197.865 81.2286L197.832 81.5766C197.301 86.1666 199.356 90.5743 203.051 92.7782C204.526 93.6564 206.2 94.1204 207.873 94.1204H280.435C282.109 94.1204 283.783 93.6564 285.257 92.7782C288.953 90.5743 290.991 86.1666 290.477 81.5766L290.444 81.2286C288.621 65.205 276.608 52.9097 261.877 51.9983C256.673 51.6669 251.387 51.4846 246.184 51.4515C245.472 51.4349 244.826 51.4349 244.163 51.4349Z" fill="#2C2C2C"/>
<path d="M232.447 73.7726C232.447 80.0363 226.995 85.14 220.301 85.14C213.59 85.14 208.155 80.0528 208.155 73.7726C208.155 67.4924 213.59 62.4053 220.301 62.4053C227.012 62.4053 232.447 67.4924 232.447 73.7726Z" fill="white"/>
<path d="M220.301 85.8025C213.242 85.8025 207.492 80.4005 207.492 73.7723C207.492 67.1442 213.242 61.7422 220.301 61.7422C227.36 61.7422 233.11 67.1442 233.11 73.7723C233.11 80.4005 227.377 85.8025 220.301 85.8025ZM220.301 63.0678C213.971 63.0678 208.818 67.8733 208.818 73.7723C208.818 79.6714 213.971 84.4769 220.301 84.4769C226.631 84.4769 231.784 79.6714 231.784 73.7723C231.784 67.8733 226.631 63.0678 220.301 63.0678Z" fill="#2C2C2C"/>
<path d="M214.353 73.0595C214.353 78.2461 217.716 82.4384 221.859 82.4384C226.018 82.4384 229.382 78.2295 229.382 73.0595C229.382 67.873 226.018 63.6641 221.859 63.6641C217.716 63.6641 214.353 67.873 214.353 73.0595Z" fill="#50BFD7"/>
<path d="M216.523 73.0597C216.523 76.7384 218.91 79.7211 221.859 79.7211C224.809 79.7211 227.195 76.7384 227.195 73.0597C227.195 69.3645 224.809 66.3818 221.859 66.3818C218.91 66.3818 216.523 69.3645 216.523 73.0597Z" fill="#2C2C2C"/>
<path d="M216.192 66.7466C216.192 67.7574 217.435 68.5693 218.943 68.5693C220.467 68.5693 221.693 67.7574 221.693 66.7466C221.693 65.7358 220.467 64.9238 218.943 64.9238C217.418 64.9238 216.192 65.7358 216.192 66.7466Z" fill="white"/>
<path d="M278.845 73.7726C278.845 80.0363 273.393 85.14 266.698 85.14C259.987 85.14 254.552 80.0528 254.552 73.7726C254.552 67.4924 259.987 62.4053 266.698 62.4053C273.393 62.4053 278.845 67.4924 278.845 73.7726Z" fill="white"/>
<path d="M266.699 85.8025C259.64 85.8025 253.89 80.4005 253.89 73.7723C253.89 67.1442 259.64 61.7422 266.699 61.7422C273.758 61.7422 279.508 67.1442 279.508 73.7723C279.508 80.4005 273.758 85.8025 266.699 85.8025ZM266.699 63.0678C260.369 63.0678 255.215 67.8733 255.215 73.7723C255.215 79.6714 260.369 84.4769 266.699 84.4769C273.029 84.4769 278.182 79.6714 278.182 73.7723C278.182 67.8733 273.029 63.0678 266.699 63.0678Z" fill="#2C2C2C"/>
<path d="M260.75 73.0595C260.75 78.2461 264.114 82.4384 268.256 82.4384C272.416 82.4384 275.779 78.2295 275.779 73.0595C275.779 67.873 272.416 63.6641 268.256 63.6641C264.114 63.6641 260.75 67.873 260.75 73.0595Z" fill="#50BFD7"/>
<path d="M262.921 73.0597C262.921 76.7384 265.307 79.7211 268.257 79.7211C271.206 79.7211 273.592 76.7384 273.592 73.0597C273.592 69.3645 271.206 66.3818 268.257 66.3818C265.307 66.3818 262.921 69.3645 262.921 73.0597Z" fill="#2C2C2C"/>
<path d="M262.573 66.7466C262.573 67.7574 263.816 68.5693 265.323 68.5693C266.848 68.5693 268.074 67.7574 268.074 66.7466C268.074 65.7358 266.848 64.9238 265.323 64.9238C263.816 64.9238 262.573 65.7358 262.573 66.7466Z" fill="white"/>
<path d="M220.45 397.045H237.236L243.533 280.505H214.153L220.45 397.045Z" fill="#2C2C2C"/>
<path d="M251.851 397.045H268.637L274.934 280.505H245.555L251.851 397.045Z" fill="#2C2C2C"/>
<path d="M224.692 445.794H234.17L237.733 398.701H221.129L224.692 445.794Z" fill="#2C2C2C"/>
<path d="M255.497 445.794H264.976L268.538 398.701H251.935L255.497 445.794Z" fill="#2C2C2C"/>
<path d="M334.774 220.484C335.256 217.586 329.616 214.234 322.177 212.998C314.738 211.761 308.317 213.108 307.835 216.006C307.353 218.904 312.993 222.255 320.432 223.492C327.871 224.729 334.292 223.382 334.774 220.484Z" fill="white"/>
<path d="M325.788 224.646C324.048 224.646 322.209 224.497 320.32 224.182C316.641 223.569 313.261 222.425 310.825 220.967C308.19 219.41 306.898 217.603 307.18 215.913C307.461 214.223 309.267 212.947 312.267 212.317C315.051 211.737 318.613 211.754 322.292 212.351C325.97 212.964 329.351 214.107 331.787 215.565C334.421 217.123 335.714 218.929 335.432 220.619L334.786 220.503L335.432 220.619C335.151 222.309 333.344 223.585 330.345 224.215C328.986 224.497 327.429 224.646 325.788 224.646ZM316.824 213.212C315.266 213.212 313.808 213.345 312.532 213.61C310.146 214.107 308.671 215.035 308.489 216.129C308.306 217.222 309.4 218.581 311.504 219.824C313.808 221.199 317.022 222.276 320.552 222.856C324.065 223.436 327.462 223.453 330.097 222.906C332.483 222.409 333.957 221.481 334.14 220.387C334.322 219.294 333.228 217.935 331.124 216.692C328.821 215.317 325.606 214.24 322.076 213.66C320.254 213.361 318.481 213.212 316.824 213.212Z" fill="#2C2C2C"/>
<path d="M229.464 401.37C235.761 401.37 240.865 398.781 240.865 395.587C240.865 392.393 235.761 389.804 229.464 389.804C223.168 389.804 218.064 392.393 218.064 395.587C218.064 398.781 223.168 401.37 229.464 401.37Z" fill="white"/>
<path d="M229.464 402.016C222.703 402.016 217.401 399.182 217.401 395.57C217.401 391.958 222.703 389.124 229.464 389.124C236.225 389.124 241.527 391.958 241.527 395.57C241.527 399.182 236.225 402.016 229.464 402.016ZM229.464 390.466C223.648 390.466 218.727 392.803 218.727 395.587C218.727 398.37 223.648 400.707 229.464 400.707C235.28 400.707 240.202 398.37 240.202 395.587C240.202 392.803 235.28 390.466 229.464 390.466Z" fill="#2C2C2C"/>
<path d="M260.601 401.37C266.897 401.37 272.001 398.781 272.001 395.587C272.001 392.393 266.897 389.804 260.601 389.804C254.304 389.804 249.2 392.393 249.2 395.587C249.2 398.781 254.304 401.37 260.601 401.37Z" fill="white"/>
<path d="M260.6 402.016C253.84 402.016 248.537 399.182 248.537 395.57C248.537 391.958 253.84 389.124 260.6 389.124C267.361 389.124 272.664 391.958 272.664 395.57C272.664 399.182 267.378 402.016 260.6 402.016ZM260.6 390.466C254.784 390.466 249.863 392.803 249.863 395.587C249.863 398.37 254.784 400.707 260.6 400.707C266.417 400.707 271.338 398.37 271.338 395.587C271.338 392.803 266.433 390.466 260.6 390.466Z" fill="#2C2C2C"/>
<path d="M332.471 229.948C333.604 227.228 328.892 222.678 321.947 219.786C315.003 216.895 308.454 216.756 307.322 219.476C306.189 222.197 310.9 226.747 317.845 229.638C324.79 232.53 331.338 232.669 332.471 229.948Z" fill="white"/>
<path d="M327.644 232.582C327.478 232.582 327.329 232.582 327.164 232.582C324.297 232.5 320.817 231.638 317.403 230.196C312.051 227.926 307.875 224.629 306.782 221.795C306.401 220.817 306.401 219.923 306.749 219.144C307.461 217.586 309.549 216.791 312.631 216.89C315.498 216.973 318.978 217.835 322.391 219.276C327.743 221.546 331.919 224.844 333.013 227.678C333.394 228.655 333.394 229.55 333.046 230.329C332.367 231.787 330.461 232.582 327.644 232.582ZM312.118 218.199C309.897 218.199 308.373 218.729 307.942 219.691C307.743 220.138 307.759 220.668 308.008 221.314C308.969 223.783 312.946 226.866 317.917 228.97C321.198 230.362 324.496 231.174 327.213 231.257C329.682 231.34 331.372 230.793 331.853 229.765C332.052 229.318 332.035 228.788 331.787 228.141C330.826 225.672 326.849 222.59 321.878 220.486C318.597 219.094 315.299 218.282 312.581 218.199C312.416 218.199 312.267 218.199 312.118 218.199Z" fill="#2C2C2C"/>
<path d="M249.962 261.963H244.129H238.297C220.931 261.963 206.332 271.889 212.032 280.373C217.269 288.161 231.668 300.058 244.146 300.241C256.624 300.075 271.023 288.177 276.26 280.373C281.927 271.889 267.345 261.963 249.962 261.963Z" fill="#50BFD7"/>
<path d="M244.129 300.903C236.855 300.804 229.696 296.943 224.99 293.712C219.505 289.967 214.335 284.996 211.485 280.737C209.795 278.218 209.663 275.434 211.137 272.7C212.794 269.602 216.407 266.735 221.295 264.63C226.316 262.476 232.348 261.3 238.313 261.3H249.979C255.927 261.3 261.976 262.476 266.996 264.63C271.901 266.735 275.514 269.602 277.154 272.7C278.612 275.434 278.496 278.218 276.806 280.737C273.956 284.996 268.769 289.967 263.301 293.712C258.562 296.926 251.404 300.804 244.129 300.903ZM238.296 262.625C232.513 262.625 226.664 263.769 221.809 265.857C217.186 267.845 213.805 270.496 212.297 273.33C211.071 275.633 211.154 277.887 212.579 280.008C217.882 287.895 232.165 299.412 244.129 299.578C256.11 299.412 270.393 287.895 275.679 280.008C277.104 277.887 277.204 275.633 275.961 273.33C274.453 270.496 271.073 267.845 266.45 265.857C261.594 263.769 255.745 262.625 249.962 262.625H238.296Z" fill="#2C2C2C"/>
<path d="M301.48 297.324L293.957 294.739C293.195 294.474 292.797 293.645 293.046 292.883L299.541 263.934C300.85 260.14 304.976 258.101 308.787 259.41L311.72 260.421C315.515 261.73 317.553 265.856 316.244 269.668L303.336 296.412C303.054 297.191 302.242 297.589 301.48 297.324Z" fill="white"/>
<path d="M301.944 298.069C301.712 298.069 301.48 298.036 301.265 297.953L293.742 295.368C293.212 295.186 292.781 294.805 292.532 294.291C292.284 293.794 292.251 293.231 292.416 292.717L298.912 263.768L298.929 263.735C300.354 259.593 304.877 257.389 309.003 258.797L311.936 259.808C313.941 260.487 315.565 261.929 316.493 263.835C317.421 265.74 317.554 267.894 316.874 269.899L316.841 269.966L303.949 296.677C303.618 297.539 302.806 298.069 301.944 298.069ZM301.696 296.694C302.11 296.843 302.557 296.611 302.707 296.197L302.74 296.131L315.632 269.419C316.195 267.762 316.079 265.972 315.3 264.398C314.521 262.807 313.179 261.631 311.506 261.051L308.573 260.04C305.142 258.864 301.381 260.686 300.188 264.116L293.692 293.065L293.676 293.098C293.609 293.297 293.626 293.512 293.709 293.711C293.792 293.91 293.957 294.043 294.156 294.109L301.696 296.694Z" fill="#2C2C2C"/>
<path d="M302.374 282.891C299.955 282.063 297.436 282.195 295.249 283.107L293.045 292.916C292.78 293.678 293.194 294.507 293.956 294.772L301.479 297.357C302.242 297.622 303.07 297.208 303.335 296.446L307.776 287.249C306.567 285.261 304.711 283.686 302.374 282.891Z" fill="#50BFD7"/>
<path d="M301.944 298.07C301.712 298.07 301.48 298.037 301.264 297.954L293.741 295.369C292.648 294.988 292.051 293.811 292.416 292.718L294.686 282.61L295.001 282.477C297.42 281.483 300.121 281.4 302.607 282.262C304.993 283.074 307.031 284.714 308.34 286.885L308.522 287.2L303.949 296.695C303.617 297.54 302.805 298.07 301.944 298.07ZM295.813 283.587L293.675 293.082L293.658 293.115C293.509 293.53 293.741 293.977 294.156 294.126L301.679 296.711C302.093 296.86 302.54 296.628 302.689 296.214L302.723 296.148L306.998 287.283C305.838 285.543 304.131 284.217 302.143 283.521C300.088 282.809 297.851 282.825 295.813 283.587Z" fill="#2C2C2C"/>
<path d="M304.413 295.997C304.413 295.997 303.916 290.363 296.923 289.336C289.931 288.292 289.384 295.5 286.418 297.704C283.435 299.908 279.906 303.222 280.9 304.564C281.894 305.907 288.506 303.305 290.13 302.095C291.77 300.886 291.505 310.646 291.107 313.363C290.71 316.081 283.617 321.914 284.827 323.554C286.037 325.195 296.807 317.324 298.216 316.28C299.641 315.219 304.032 298.582 304.413 295.997Z" fill="white"/>
<path d="M285.374 324.433C284.827 324.433 284.512 324.218 284.313 323.936C283.352 322.627 285.075 320.555 287.279 317.937C288.704 316.231 290.312 314.308 290.477 313.248C290.643 312.171 290.792 309.702 290.775 307.283C290.742 304.333 290.477 303.19 290.312 302.775C289.284 303.438 287.312 304.316 285.49 304.896C281.33 306.222 280.618 305.261 280.386 304.946C279.392 303.604 281.115 301.649 281.695 301.002C282.739 299.842 284.313 298.434 286.036 297.158C286.881 296.528 287.561 295.352 288.273 294.126C289.864 291.358 291.853 287.895 297.039 288.674C300.9 289.237 302.872 291.176 303.866 292.684C304.943 294.341 305.076 295.865 305.092 295.932V296.015L305.076 296.097C304.86 297.523 303.601 302.56 302.358 306.901C299.757 315.982 298.945 316.579 298.646 316.811C298.05 317.241 294.968 319.528 291.836 321.483C288.207 323.737 286.368 324.433 285.374 324.433ZM285.357 323.107C285.639 323.14 286.898 323.024 291.538 320.075C294.487 318.202 297.304 316.131 297.835 315.733C297.901 315.667 298.729 314.723 301.115 306.388C302.425 301.814 303.535 297.307 303.75 295.998C303.667 295.352 302.855 290.894 296.84 290C292.549 289.37 290.958 292.137 289.417 294.805C288.638 296.164 287.892 297.456 286.832 298.252C285.175 299.478 283.667 300.82 282.689 301.914C281.43 303.322 281.33 304.018 281.463 304.184C281.595 304.316 282.573 304.499 285.224 303.637C287.213 302.991 289.102 302.079 289.781 301.582C290.146 301.301 290.593 301.267 290.941 301.483C291.289 301.698 292.035 302.129 292.101 307.034C292.134 309.619 291.969 312.27 291.803 313.463C291.587 314.905 289.997 316.794 288.323 318.816C287.412 319.909 286.533 320.953 285.97 321.815C285.39 322.643 285.357 322.991 285.357 323.107Z" fill="#2C2C2C"/>
<path d="M156.588 193.113L117.746 162.756L106.362 157.503L99.7012 162.226L102.468 167.959L144.044 205.988L156.588 193.113Z" fill="#2C2C2C"/>
<path d="M160.212 206.399C164.364 200.104 165.742 193.69 163.289 192.072C160.837 190.455 155.483 194.247 151.331 200.542C147.179 206.837 145.801 213.252 148.253 214.869C150.706 216.487 156.06 212.695 160.212 206.399Z" fill="white"/>
<path d="M149.578 215.897C148.932 215.897 148.369 215.731 147.872 215.416C146.447 214.471 145.999 212.301 146.645 209.318C147.242 206.534 148.7 203.286 150.755 200.171C152.81 197.056 155.212 194.438 157.549 192.797C160.051 191.024 162.205 190.577 163.647 191.521C165.072 192.466 165.519 194.637 164.873 197.619C164.276 200.403 162.818 203.651 160.763 206.766C158.709 209.881 156.306 212.5 153.97 214.14C152.329 215.3 150.821 215.897 149.578 215.897ZM148.617 214.306C149.545 214.919 151.219 214.455 153.224 213.046C155.411 211.489 157.714 209.003 159.67 206.021C161.642 203.038 163.034 199.956 163.597 197.321C164.111 194.935 163.862 193.212 162.934 192.598C162.006 191.985 160.333 192.449 158.328 193.858C156.14 195.415 153.837 197.901 151.882 200.884C149.926 203.866 148.518 206.949 147.954 209.583C147.441 211.986 147.673 213.693 148.617 214.306Z" fill="#2C2C2C"/>
<path d="M154.1 203.422C159.564 198.251 162.351 192.324 160.325 190.183C158.299 188.043 152.228 190.5 146.764 195.671C141.301 200.842 138.514 206.769 140.539 208.909C142.565 211.05 148.636 208.593 154.1 203.422Z" fill="white"/>
<path d="M142.685 210.345C142.602 210.345 142.503 210.345 142.42 210.345C141.376 210.295 140.547 209.947 139.984 209.301C138.857 208.008 138.973 205.788 140.315 203.004C141.558 200.419 143.746 197.586 146.463 195.05C150.705 191.073 155.411 188.604 158.46 188.753C159.504 188.803 160.333 189.151 160.896 189.797C162.023 191.09 161.907 193.31 160.565 196.094C159.322 198.679 157.135 201.513 154.417 204.048C150.274 207.909 145.717 210.345 142.685 210.345ZM158.178 190.063C155.511 190.063 151.202 192.416 147.375 196.011C144.773 198.447 142.702 201.132 141.509 203.567C140.431 205.804 140.249 207.561 140.995 208.406C141.31 208.771 141.823 208.969 142.503 209.003C142.569 209.003 142.635 209.003 142.718 209.003C145.386 209.003 149.694 206.65 153.522 203.054C156.124 200.618 158.195 197.934 159.388 195.498C160.465 193.261 160.647 191.504 159.902 190.659C159.587 190.295 159.073 190.096 158.394 190.063C158.311 190.079 158.245 190.063 158.178 190.063Z" fill="#2C2C2C"/>
<path d="M91.5652 153.227L96.9837 147.394C97.5306 146.798 98.4585 146.764 99.0385 147.311L122.85 165.009C125.8 167.743 125.965 172.349 123.231 175.282L121.127 177.552C118.393 180.502 113.786 180.668 110.853 177.934L91.648 155.282C91.0515 154.735 91.0184 153.823 91.5652 153.227Z" fill="white"/>
<path d="M115.791 180.552C113.853 180.552 111.914 179.856 110.389 178.431L110.34 178.381L91.1677 155.746C90.77 155.365 90.538 154.851 90.5215 154.304C90.5049 153.741 90.7037 153.194 91.0849 152.78L96.5034 146.947C97.2822 146.102 98.6079 146.036 99.4695 146.814L123.281 164.512L123.314 164.528C126.529 167.511 126.711 172.532 123.729 175.747L121.624 178.017C120.05 179.69 117.929 180.552 115.791 180.552ZM111.334 177.486C114.002 179.939 118.178 179.773 120.647 177.122L122.751 174.852C125.22 172.184 125.071 168.008 122.436 165.539L98.6244 147.825L98.5913 147.809C98.2764 147.51 97.7628 147.527 97.4645 147.858L92.0625 153.675L91.582 153.227L92.0625 153.675C91.9134 153.824 91.8471 154.039 91.8471 154.238C91.8471 154.453 91.9465 154.652 92.0957 154.785L92.1454 154.835L111.334 177.486Z" fill="#2C2C2C"/>
<path d="M104.407 159.921C106.147 158.049 107.042 155.696 107.108 153.326L99.0385 147.328C98.4419 146.781 97.5306 146.814 96.9837 147.411L91.5652 153.227C91.0184 153.824 91.0515 154.735 91.648 155.282L98.2597 163.07C100.53 162.788 102.717 161.728 104.407 159.921Z" fill="#50BFD7"/>
<path d="M97.9782 163.783L91.1677 155.746C90.77 155.365 90.538 154.851 90.5215 154.304C90.5049 153.741 90.7037 153.194 91.0849 152.78L96.5034 146.947C96.8845 146.533 97.4148 146.301 97.9782 146.268C98.525 146.251 99.0553 146.433 99.4695 146.798L107.788 152.979L107.771 153.327C107.688 155.945 106.661 158.447 104.888 160.353C103.165 162.225 100.845 163.418 98.3427 163.733L97.9782 163.783ZM98.061 147.593C98.0445 147.593 98.0445 147.593 98.0279 147.593C97.8125 147.593 97.6136 147.693 97.4811 147.842L92.0625 153.675C91.9134 153.824 91.8471 154.039 91.8471 154.238C91.8471 154.453 91.9465 154.652 92.0957 154.785L92.1454 154.835L98.5084 162.341C100.58 161.993 102.485 160.982 103.91 159.441C105.402 157.834 106.28 155.779 106.429 153.608L98.6079 147.809L98.5747 147.792C98.4422 147.676 98.2599 147.593 98.061 147.593Z" fill="#2C2C2C"/>
<path d="M91.5983 156.458C91.5983 156.458 96.9505 158.297 100.729 152.332C104.523 146.367 98.1602 142.936 97.3482 139.324C96.5363 135.712 94.9455 131.138 93.3216 131.503C91.6977 131.867 91.3829 138.96 91.8303 140.948C92.2777 142.936 83.4622 138.744 81.1423 137.269C78.8225 135.795 76.37 126.946 74.3816 127.393C72.3931 127.841 75.2101 140.865 75.5912 142.588C75.9723 144.295 89.3778 155.049 91.5983 156.458Z" fill="white"/>
<path d="M93.537 157.386C92.2777 157.386 91.416 157.104 91.3663 157.088L91.3 157.055L91.2337 157.005C90.0241 156.243 85.9312 153.028 82.4679 150.128C75.2267 144.063 75.0112 143.086 74.9284 142.705C74.7627 141.992 73.9507 138.231 73.4205 134.585C72.4925 128.04 73.2548 126.946 74.2159 126.731C75.8066 126.383 76.9831 128.802 78.491 131.867C79.4687 133.856 80.5623 136.11 81.4737 136.689C82.4017 137.269 84.589 138.413 86.8094 139.374C89.527 140.55 90.6703 140.766 91.1012 140.782C90.9023 139.573 90.9023 137.402 91.1177 135.513C91.5983 131.172 92.7748 130.906 93.1559 130.824C94.7964 130.459 95.8735 132.845 96.2214 133.624C96.8677 135.049 97.4974 137.054 97.9779 139.158C98.2099 140.186 99.0053 141.28 99.8504 142.423C101.739 145.008 104.092 148.223 101.275 152.647C99.1876 155.944 96.6191 156.972 94.8295 157.253C94.3821 157.353 93.9347 157.386 93.537 157.386ZM91.88 155.845C92.5097 156.027 96.9008 157.104 100.165 151.967C102.485 148.305 100.613 145.72 98.7899 143.235C97.8619 141.959 96.9837 140.766 96.702 139.473C96.2546 137.468 95.6415 135.53 95.0449 134.204C94.2661 132.481 93.6696 132.116 93.4707 132.149C93.305 132.215 92.7416 133.044 92.4434 135.811C92.228 137.883 92.2942 139.987 92.4765 140.799C92.5759 141.246 92.4268 141.661 92.0954 141.909C91.764 142.141 91.0515 142.638 86.5443 140.716C84.1581 139.689 81.7886 138.463 80.7778 137.816C79.5515 137.037 78.4579 134.817 77.3145 132.464C76.6849 131.188 76.0883 129.962 75.5249 129.1C74.9781 128.272 74.6798 128.089 74.5638 128.056C74.4147 128.288 74.017 129.498 74.829 134.933C75.3426 138.38 76.1049 141.81 76.2375 142.456C76.2706 142.555 76.8008 143.682 83.4456 149.25C87.1077 152.282 90.7532 155.116 91.88 155.845Z" fill="#2C2C2C"/>
<path d="M264.18 473.187H256.275C255.48 473.187 254.834 472.54 254.834 471.745L251.619 442.432C251.619 438.438 254.85 435.207 258.844 435.207H261.926C265.919 435.207 269.151 438.438 269.151 442.432L265.638 471.745C265.638 472.54 264.991 473.187 264.18 473.187Z" fill="white"/>
<path d="M264.179 473.849H256.275C255.132 473.849 254.187 472.921 254.171 471.778L250.956 442.465V442.432C250.956 438.073 254.502 434.544 258.844 434.544H261.926C266.284 434.544 269.813 438.09 269.813 442.432V442.514L266.3 471.794C266.267 472.921 265.339 473.849 264.179 473.849ZM252.265 442.398L255.48 471.712V471.745C255.48 472.175 255.828 472.523 256.259 472.523H264.179C264.61 472.523 264.958 472.175 264.958 471.745V471.662L268.471 442.382C268.454 438.769 265.505 435.853 261.909 435.853H258.827C255.231 435.853 252.282 438.786 252.265 442.398Z" fill="#2C2C2C"/>
<path d="M255.413 483.361C254.535 482.714 253.806 481.886 253.243 480.958C252.679 480.013 252.315 478.986 252.166 477.892C252.016 476.815 252.066 475.705 252.331 474.645C252.596 473.584 253.077 472.59 253.723 471.712L254.237 471.082C255.264 469.955 256.573 469.143 258.032 468.712C259.49 468.282 261.031 468.265 262.506 468.646C263.98 469.027 265.306 469.823 266.366 470.916C267.427 472.01 268.156 473.369 268.487 474.86C268.819 476.335 268.736 477.892 268.255 479.318C267.775 480.759 266.897 482.035 265.737 483.013C264.577 483.99 263.168 484.637 261.66 484.869C260.153 485.101 258.628 484.918 257.22 484.355C256.573 484.106 255.977 483.758 255.413 483.361Z" fill="white"/>
<path d="M260.368 485.648C259.208 485.648 258.048 485.416 256.971 484.985C256.275 484.703 255.629 484.339 255.016 483.891C254.071 483.179 253.276 482.3 252.663 481.29C252.05 480.279 251.669 479.152 251.486 477.992C251.321 476.816 251.37 475.639 251.669 474.496C251.967 473.352 252.464 472.275 253.177 471.331L253.193 471.314L253.74 470.651C254.85 469.442 256.259 468.564 257.833 468.1C259.407 467.636 261.081 467.619 262.671 468.033C264.262 468.448 265.704 469.293 266.831 470.486C267.974 471.662 268.769 473.137 269.117 474.744C269.482 476.352 269.399 478.009 268.869 479.566C268.339 481.124 267.411 482.499 266.151 483.56C264.892 484.62 263.384 485.316 261.76 485.565C261.313 485.615 260.849 485.648 260.368 485.648ZM255.795 482.831C256.308 483.212 256.872 483.527 257.468 483.759C258.761 484.289 260.186 484.455 261.561 484.239C262.937 484.024 264.246 483.427 265.306 482.532C266.367 481.638 267.179 480.461 267.626 479.135C268.073 477.81 268.14 476.385 267.841 475.026C267.527 473.667 266.864 472.408 265.886 471.397C264.908 470.386 263.682 469.674 262.34 469.309C260.981 468.945 259.556 468.978 258.214 469.359C256.872 469.757 255.679 470.502 254.734 471.53L254.237 472.126C253.641 472.938 253.21 473.833 252.961 474.811C252.713 475.788 252.663 476.799 252.812 477.793C252.961 478.787 253.293 479.732 253.806 480.61C254.32 481.472 254.999 482.218 255.795 482.831Z" fill="#2C2C2C"/>
<path d="M246.697 483.958C245.786 486.244 247.427 488.597 249.597 488.597H271.139C273.326 488.597 274.95 486.244 274.039 483.958C271.421 477.346 266.284 472.872 260.368 472.872C254.469 472.872 249.332 477.346 246.697 483.958Z" fill="#50BFD7"/>
<path d="M271.139 489.26H249.597C248.371 489.26 247.194 488.63 246.482 487.57C245.72 486.443 245.571 485.001 246.084 483.709C248.901 476.617 254.386 472.209 260.368 472.209C266.366 472.209 271.835 476.617 274.652 483.709C275.165 485.001 275.016 486.443 274.254 487.57C273.542 488.63 272.382 489.26 271.139 489.26ZM247.327 484.206C246.979 485.101 247.062 486.062 247.592 486.824C248.073 487.52 248.818 487.934 249.614 487.934H271.155C271.951 487.934 272.713 487.52 273.177 486.824C273.707 486.045 273.79 485.101 273.442 484.206C270.824 477.628 265.82 473.535 260.385 473.535C254.933 473.535 249.929 477.611 247.327 484.206Z" fill="#2C2C2C"/>
<path d="M233.276 473.187H225.355C224.56 473.187 223.913 472.54 223.913 471.745L220.699 442.432C220.699 438.438 223.93 435.207 227.923 435.207H231.006C234.999 435.207 238.23 438.438 238.23 442.432L234.717 471.745C234.717 472.54 234.071 473.187 233.276 473.187Z" fill="white"/>
<path d="M233.276 473.849H225.355C224.212 473.849 223.267 472.921 223.251 471.778L220.036 442.465V442.432C220.036 438.073 223.582 434.544 227.924 434.544H231.006C235.364 434.544 238.893 438.09 238.893 442.432V442.514L235.38 471.794C235.364 472.921 234.419 473.849 233.276 473.849ZM221.362 442.398L224.576 471.712V471.745C224.576 472.175 224.924 472.523 225.355 472.523H233.276C233.707 472.523 234.055 472.175 234.055 471.745V471.662L237.568 442.382C237.551 438.769 234.602 435.853 231.006 435.853H227.924C224.311 435.853 221.378 438.786 221.362 442.398Z" fill="#2C2C2C"/>
<path d="M224.493 483.361C223.615 482.714 222.886 481.886 222.323 480.958C221.759 480.013 221.395 478.986 221.246 477.892C221.096 476.815 221.146 475.705 221.411 474.645C221.676 473.584 222.157 472.59 222.803 471.712L223.317 471.082C224.344 469.955 225.653 469.143 227.112 468.712C228.57 468.282 230.111 468.265 231.586 468.646C233.06 469.027 234.386 469.823 235.447 470.916C236.507 472.01 237.236 473.369 237.568 474.86C237.899 476.335 237.816 477.892 237.336 479.318C236.855 480.759 235.977 482.035 234.817 483.013C233.657 483.99 232.248 484.637 230.741 484.869C229.233 485.101 227.708 484.918 226.3 484.355C225.67 484.106 225.057 483.758 224.493 483.361Z" fill="white"/>
<path d="M229.465 485.648C228.305 485.648 227.145 485.416 226.068 484.985C225.372 484.703 224.726 484.339 224.113 483.891C223.168 483.179 222.373 482.3 221.76 481.29C221.146 480.279 220.765 479.152 220.583 477.992C220.417 476.816 220.467 475.639 220.765 474.496C221.064 473.352 221.561 472.275 222.273 471.331L222.29 471.314L222.837 470.651C223.947 469.442 225.355 468.564 226.93 468.1C228.504 467.636 230.177 467.619 231.768 468.033C233.359 468.448 234.801 469.293 235.927 470.486C237.071 471.662 237.866 473.137 238.214 474.744C238.579 476.352 238.496 478.009 237.965 479.566C237.435 481.124 236.507 482.499 235.248 483.56C233.989 484.62 232.481 485.316 230.857 485.565C230.393 485.615 229.929 485.648 229.465 485.648ZM224.891 482.831C225.405 483.212 225.968 483.527 226.565 483.759C227.857 484.289 229.283 484.455 230.658 484.239C232.033 484.024 233.342 483.427 234.403 482.532C235.463 481.638 236.275 480.461 236.723 479.135C237.17 477.81 237.236 476.385 236.938 475.026C236.623 473.667 235.96 472.408 234.983 471.397C234.005 470.386 232.779 469.674 231.437 469.309C230.078 468.945 228.653 468.978 227.311 469.359C225.968 469.757 224.775 470.502 223.831 471.53L223.334 472.126C222.737 472.938 222.306 473.833 222.058 474.811C221.809 475.788 221.76 476.799 221.909 477.793C222.058 478.787 222.389 479.732 222.903 480.61C223.417 481.472 224.079 482.218 224.891 482.831Z" fill="#2C2C2C"/>
<path d="M215.794 483.958C214.883 486.244 216.523 488.597 218.694 488.597H240.236C242.423 488.597 244.047 486.244 243.135 483.958C240.517 477.346 235.38 472.872 229.465 472.872C223.549 472.872 218.412 477.346 215.794 483.958Z" fill="#50BFD7"/>
<path d="M240.235 489.26H218.694C217.468 489.26 216.291 488.63 215.579 487.57C214.816 486.443 214.667 485.001 215.181 483.709C217.998 476.617 223.483 472.209 229.465 472.209C235.463 472.209 240.931 476.617 243.748 483.709C244.262 485.001 244.113 486.443 243.351 487.57C242.638 488.63 241.462 489.26 240.235 489.26ZM216.407 484.206C216.059 485.101 216.142 486.062 216.672 486.824C217.153 487.52 217.898 487.934 218.694 487.934H240.235C241.031 487.934 241.793 487.52 242.257 486.824C242.787 486.045 242.87 485.101 242.522 484.206C239.904 477.628 234.9 473.535 229.465 473.535C224.03 473.535 219.025 477.611 216.407 484.206Z" fill="#2C2C2C"/>
</svg>
