<svg width="469" height="350" viewBox="0 0 469 350" fill="none" xmlns="http://www.w3.org/2000/svg">
<path d="M359.424 99.0007C359.424 99.0007 346.03 47.1277 264.944 14.4138C183.859 -18.3001 111.316 11.9988 94.7786 50.3324C78.2407 88.666 95.5725 109.366 84.5367 142.103C73.5009 174.84 16.8054 216.302 39.6868 266.58C62.5683 316.858 169.639 331.218 256.283 320.845C342.926 310.472 410.617 195.555 359.424 99.0007Z" fill="#50BFD7"/>
<path opacity="0.7" d="M359.424 99.0007C359.424 99.0007 346.03 47.1277 264.944 14.4138C183.859 -18.3001 111.316 11.9988 94.7786 50.3324C78.2407 88.666 95.5725 109.366 84.5367 142.103C73.5009 174.84 16.8054 216.302 39.6868 266.58C62.5683 316.858 169.639 331.218 256.283 320.845C342.926 310.472 410.617 195.555 359.424 99.0007Z" fill="white"/>
<path d="M468.201 234.309C468.201 232.834 468.128 151.631 468.023 26.3442L468.201 26.4974H220.836L221.045 26.2878C221.045 101.652 221.045 172.734 221.045 234.253L220.852 234.068L468.241 234.253L220.852 234.438H220.642V234.253C220.642 172.734 220.642 101.652 220.642 26.2878V26.0781H220.876H468.241H468.418V26.2555C468.305 151.631 468.201 232.834 468.201 234.309Z" fill="#FAFAFA"/>
<path d="M468.232 26.3438H220.843V234.309H468.232V26.3438Z" fill="#FAFAFA"/>
<path d="M310.159 40.7051H221.329V61.0662H310.159V40.7051Z" fill="#EBEBEB"/>
<path d="M243.73 57.1406C243.73 57.1406 243.73 56.8745 243.73 56.3906C243.73 55.9068 243.73 55.1891 243.73 54.3424C243.73 52.5362 243.681 50.0364 243.641 47.0205L243.81 47.1899H229.078L229.287 46.9802V52.2297C229.287 53.9231 229.287 55.544 229.287 57.068L229.094 56.8745L239.665 56.9712L242.714 57.0277H243.52H243.818C243.473 57.0661 243.125 57.0822 242.778 57.0761L239.77 57.1245L229.078 57.2212H228.892V57.1406C228.892 55.6004 228.892 53.9796 228.892 52.3023V49.7058C228.892 49.2703 228.892 48.8268 228.892 48.3833V47.0044C228.707 47.1899 229.15 46.7463 229.11 46.7947H243.842H244.012V46.9641C244.012 50.0283 243.947 52.5603 243.923 54.3908C243.923 55.1972 243.923 55.8907 243.923 56.4068C243.882 56.657 243.818 56.9028 243.73 57.1406Z" fill="#263238"/>
<path d="M243.729 46.9871C243.729 46.9871 243.56 47.2209 243.205 47.5838C242.85 47.9467 242.326 48.4547 241.673 49.0837C240.367 50.3416 238.536 52.0592 236.504 53.9219C235.932 53.9219 236.343 53.9219 236.214 53.9219H236.166L236.069 53.8332L235.883 53.6558L235.504 53.3091L234.779 52.6317L233.4 51.3496L231.053 49.0756C230.4 48.4466 229.876 47.9386 229.513 47.5757C229.312 47.4011 229.136 47.2004 228.989 46.979C228.989 46.979 229.239 47.1241 229.626 47.4548C230.013 47.7854 230.569 48.2611 231.239 48.8579L233.609 50.9867L234.996 52.2527L235.73 52.922L236.109 53.2688L236.295 53.4462L236.391 53.5268L236.44 53.5752H236.182C238.214 51.7044 240.068 50.0191 241.431 48.8175C242.109 48.2208 242.665 47.737 243.044 47.4144C243.251 47.2398 243.482 47.0958 243.729 46.9871Z" fill="#263238"/>
<path d="M233.899 51.4951C233.243 52.5647 232.469 53.5573 231.592 54.4545C230.823 55.4458 229.944 56.3466 228.972 57.1398C229.629 56.0737 230.402 55.0839 231.278 54.1884C232.049 53.1959 232.928 52.2926 233.899 51.4951Z" fill="#263238"/>
<path d="M243.825 57.2284C242.874 56.3816 242.019 55.4324 241.276 54.398C240.424 53.4472 239.678 52.4062 239.051 51.2935C240.003 52.142 240.858 53.094 241.599 54.1319C242.452 55.0791 243.199 56.1176 243.825 57.2284Z" fill="#263238"/>
<path d="M299.957 50.528C299.957 50.649 289.555 50.7377 276.733 50.7377C263.912 50.7377 253.518 50.649 253.518 50.528C253.518 50.4071 263.912 50.3184 276.733 50.3184C289.555 50.3184 299.957 50.4151 299.957 50.528Z" fill="#263238"/>
<path d="M468.235 131.15H309.031V166.034H468.235V131.15Z" fill="#50BFD7"/>
<g opacity="0.8">
<path opacity="0.8" d="M468.232 131.15H309.029V166.034H468.232V131.15Z" fill="white"/>
</g>
<path d="M330.529 142.051H321.086C320.084 142.051 319.271 142.864 319.271 143.866V153.308C319.271 154.31 320.084 155.123 321.086 155.123H330.529C331.531 155.123 332.343 154.31 332.343 153.308V143.866C332.343 142.864 331.531 142.051 330.529 142.051Z" fill="#50BFD7"/>
<path d="M324.818 151.485C324.643 151.485 324.473 151.429 324.334 151.324L321.697 149.34C321.602 149.281 321.52 149.203 321.457 149.11C321.394 149.018 321.351 148.913 321.33 148.803C321.31 148.693 321.313 148.58 321.338 148.471C321.364 148.362 321.412 148.26 321.48 148.17C321.547 148.081 321.632 148.007 321.73 147.952C321.828 147.897 321.936 147.864 322.047 147.853C322.159 147.843 322.271 147.855 322.378 147.891C322.484 147.926 322.582 147.983 322.665 148.058L324.721 149.599L328.85 145.115C328.995 144.958 329.197 144.865 329.411 144.857C329.625 144.848 329.833 144.925 329.991 145.071C330.148 145.216 330.241 145.418 330.249 145.632C330.257 145.846 330.18 146.055 330.035 146.212L325.414 151.227C325.338 151.309 325.246 151.375 325.143 151.419C325.04 151.464 324.93 151.486 324.818 151.485Z" fill="white"/>
<path d="M468.235 96.0874H309.031V130.971H468.235V96.0874Z" fill="#50BFD7"/>
<path d="M467.273 131.1C467.273 131.221 432.099 131.31 388.716 131.31C345.332 131.31 310.158 131.221 310.158 131.1C310.158 130.979 345.324 130.891 388.716 130.891C432.107 130.891 467.273 130.987 467.273 131.1Z" fill="#263238"/>
<path d="M468.322 200.885H309.118V234.31H468.322V200.885Z" fill="#50BFD7"/>
<g opacity="0.8">
<path opacity="0.8" d="M468.321 200.886H309.118V234.31H468.321V200.886Z" fill="white"/>
</g>
<path d="M330.608 211.795H321.165C320.163 211.795 319.351 212.607 319.351 213.609V223.052C319.351 224.054 320.163 224.866 321.165 224.866H330.608C331.61 224.866 332.422 224.054 332.422 223.052V213.609C332.422 212.607 331.61 211.795 330.608 211.795Z" fill="#50BFD7"/>
<path d="M324.898 221.238C324.723 221.238 324.554 221.181 324.414 221.076L321.777 219.093C321.606 218.964 321.493 218.773 321.463 218.562C321.432 218.35 321.488 218.135 321.616 217.964C321.744 217.793 321.935 217.68 322.147 217.649C322.359 217.619 322.574 217.674 322.745 217.802L324.801 219.351L328.93 214.867C328.999 214.781 329.085 214.711 329.183 214.659C329.28 214.608 329.387 214.577 329.497 214.569C329.607 214.561 329.718 214.575 329.822 214.611C329.926 214.648 330.022 214.705 330.103 214.779C330.184 214.854 330.249 214.944 330.294 215.045C330.339 215.146 330.363 215.255 330.364 215.365C330.365 215.475 330.344 215.585 330.301 215.686C330.258 215.788 330.195 215.88 330.115 215.956L325.47 220.98C325.397 221.059 325.309 221.122 325.21 221.167C325.112 221.211 325.006 221.235 324.898 221.238Z" fill="white"/>
<g opacity="0.8">
<path opacity="0.8" d="M468.232 96.0874H309.029V130.971H468.232V96.0874Z" fill="white"/>
</g>
<path d="M330.529 106.99H321.086C320.084 106.99 319.271 107.803 319.271 108.805V118.247C319.271 119.249 320.084 120.062 321.086 120.062H330.529C331.531 120.062 332.343 119.249 332.343 118.247V108.805C332.343 107.803 331.531 106.99 330.529 106.99Z" fill="#50BFD7"/>
<path d="M324.818 116.433C324.643 116.433 324.473 116.377 324.334 116.272L321.697 114.288C321.602 114.229 321.52 114.151 321.457 114.058C321.394 113.966 321.351 113.861 321.33 113.751C321.31 113.641 321.313 113.528 321.338 113.419C321.364 113.31 321.412 113.208 321.48 113.118C321.547 113.029 321.632 112.954 321.73 112.9C321.828 112.845 321.936 112.812 322.047 112.801C322.159 112.791 322.271 112.803 322.378 112.839C322.484 112.874 322.582 112.931 322.665 113.006L324.721 114.546L328.85 110.063C328.994 109.906 329.195 109.813 329.408 109.804C329.621 109.795 329.829 109.871 329.987 110.015C330.065 110.086 330.129 110.173 330.174 110.269C330.219 110.366 330.245 110.471 330.25 110.577C330.254 110.683 330.237 110.79 330.201 110.89C330.164 110.99 330.107 111.081 330.035 111.16L325.414 116.175C325.338 116.257 325.246 116.323 325.143 116.367C325.04 116.412 324.93 116.434 324.818 116.433Z" fill="white"/>
<path d="M468.201 234.309C468.201 232.834 468.128 151.631 468.023 26.3442L468.201 26.4974H220.836L221.045 26.2878C221.045 101.652 221.045 172.734 221.045 234.253L220.852 234.068L468.241 234.253L220.852 234.438H220.642V234.253C220.642 172.734 220.642 101.652 220.642 26.2878V26.0781H220.876H468.241H468.418V26.2555C468.305 151.631 468.201 232.834 468.201 234.309Z" fill="#50BFD7"/>
<path d="M221.329 40.7058C221.329 40.5848 276.493 40.4961 344.535 40.4961C412.578 40.4961 467.758 40.5848 467.758 40.7058C467.758 40.8267 412.602 40.9154 344.535 40.9154C276.469 40.9154 221.329 40.8186 221.329 40.7058Z" fill="#50BFD7"/>
<path d="M228.858 35.9002C230.319 35.9002 231.503 34.716 231.503 33.2553C231.503 31.7945 230.319 30.6104 228.858 30.6104C227.398 30.6104 226.213 31.7945 226.213 33.2553C226.213 34.716 227.398 35.9002 228.858 35.9002Z" fill="#50BFD7"/>
<path d="M236.213 35.9002C237.674 35.9002 238.858 34.716 238.858 33.2553C238.858 31.7945 237.674 30.6104 236.213 30.6104C234.753 30.6104 233.568 31.7945 233.568 33.2553C233.568 34.716 234.753 35.9002 236.213 35.9002Z" fill="#50BFD7"/>
<path d="M246.245 31.3846C246.614 31.7546 246.866 32.2259 246.968 32.7389C247.07 33.2519 247.018 33.7836 246.817 34.2668C246.617 34.75 246.278 35.163 245.843 35.4536C245.408 35.7441 244.897 35.8992 244.374 35.8992C243.851 35.8992 243.34 35.7441 242.905 35.4536C242.47 35.163 242.131 34.75 241.93 34.2668C241.73 33.7836 241.678 33.2519 241.78 32.7389C241.882 32.2259 242.133 31.7546 242.503 31.3846C242.749 31.1388 243.04 30.9439 243.361 30.8109C243.682 30.6778 244.026 30.6094 244.374 30.6094C244.721 30.6094 245.065 30.6778 245.386 30.8109C245.707 30.9439 245.999 31.1388 246.245 31.3846Z" fill="#50BFD7"/>
<path d="M253.704 69.2355C253.894 69.212 254.086 69.212 254.277 69.2355L255.954 69.1871L262.098 69.1064H262.179L262.227 69.171L264.937 72.7352L264.977 72.7916V72.8561C264.977 74.4689 264.977 76.259 264.977 78.1137V78.3234H262.3H251.236H251.059V78.1056C251.059 76.2832 251.059 74.6624 251.107 73.2674L252.994 70.308C253.206 69.9344 253.443 69.5761 253.704 69.2355C253.669 69.3434 253.62 69.4464 253.559 69.5419L253.099 70.3483L251.357 73.3238V73.2512C251.357 74.6221 251.357 76.2429 251.398 78.0895L251.22 77.9121H262.284H264.759L264.55 78.1218C264.55 76.2671 264.55 74.4931 264.55 72.8642L264.59 72.9771L261.929 69.3887L262.066 69.4532L255.986 69.3726H254.293C254.093 69.3445 253.896 69.2987 253.704 69.2355Z" fill="#263238"/>
<path d="M264.791 73.0894C264.409 73.1921 264.016 73.2463 263.621 73.2507C262.879 73.3152 261.815 73.3878 260.549 73.4684L260.718 73.291C260.688 73.9649 260.467 74.6163 260.081 75.1699C259.871 75.4739 259.595 75.7274 259.275 75.9117C258.92 76.0757 258.536 76.1662 258.146 76.1779C257.73 76.195 257.316 76.1201 256.933 75.9584C256.549 75.7967 256.206 75.5522 255.928 75.2424C255.466 74.6888 255.155 74.0248 255.025 73.3152L255.203 73.4604C254.025 73.4604 253.042 73.42 252.356 73.3878C251.995 73.3948 251.634 73.3542 251.284 73.2668C251.636 73.1907 251.996 73.1582 252.356 73.1701C253.042 73.1701 254.025 73.1136 255.203 73.0894H255.316V73.2426C255.453 73.8735 255.744 74.4608 256.162 74.9522C256.4 75.2188 256.694 75.4294 257.023 75.5688C257.352 75.7082 257.708 75.773 258.065 75.7585C258.395 75.7573 258.72 75.6829 259.017 75.5408C259.297 75.3962 259.539 75.1893 259.726 74.936C260.069 74.4478 260.275 73.8772 260.323 73.283V73.1136H260.476C261.75 73.0733 262.815 73.0491 263.565 73.041C263.974 73.0051 264.386 73.0214 264.791 73.0894Z" fill="#263238"/>
<path d="M295.104 69.6784C295.329 69.6277 295.559 69.606 295.79 69.6139V69.7429C294.177 69.8236 289.185 69.8881 283.331 69.8881C279.702 69.8881 276.412 69.8881 274.033 69.8236L271.219 69.759C270.873 69.7706 270.527 69.7436 270.187 69.6784C270.527 69.6132 270.873 69.5862 271.219 69.5978L274.033 69.5333C276.412 69.4929 279.678 69.4688 283.331 69.4688C289.185 69.4688 294.145 69.5333 295.79 69.6139V69.7429C295.559 69.7562 295.328 69.7345 295.104 69.6784Z" fill="#263238"/>
<path d="M295.104 74.9616C295.328 74.9056 295.559 74.8838 295.79 74.8971V75.0261C294.177 75.1068 289.185 75.1713 283.331 75.1713C279.702 75.1713 276.412 75.1713 274.033 75.1068L271.219 75.0423C270.873 75.0487 270.528 75.0217 270.187 74.9616C270.527 74.8956 270.873 74.8659 271.219 74.8729L274.033 74.8084C276.412 74.8084 279.678 74.752 283.331 74.752C289.185 74.752 294.145 74.8084 295.79 74.8971V75.0261C295.559 75.0287 295.33 75.0071 295.104 74.9616Z" fill="#263238"/>
<path d="M295.104 80.2341C295.329 80.1833 295.559 80.1617 295.79 80.1696V80.2986C294.177 80.3873 289.185 80.4437 283.331 80.4437C279.702 80.4437 276.412 80.4437 274.033 80.3873L271.219 80.3147C270.873 80.3263 270.527 80.2993 270.187 80.2341C270.528 80.174 270.873 80.147 271.219 80.1534L274.033 80.0889C276.412 80.0486 279.678 80.0244 283.331 80.0244C289.185 80.0244 294.145 80.0889 295.79 80.1696V80.2986C295.559 80.3119 295.328 80.2901 295.104 80.2341Z" fill="#263238"/>
<path d="M253.704 107.03C253.892 106.992 254.084 106.976 254.277 106.982L255.954 106.941L262.098 106.861H262.179L262.227 106.925L264.937 110.49L264.977 110.546V110.61C264.977 112.223 264.977 114.013 264.977 115.868V116.078H262.3H251.236H251.059V115.9C251.059 114.078 251.059 112.457 251.107 111.062V111.022L252.994 108.062C253.201 107.714 253.43 107.38 253.68 107.062C253.645 107.17 253.596 107.273 253.535 107.369L253.075 108.175L251.366 111.167V111.094C251.366 112.465 251.366 114.086 251.406 115.933L251.228 115.755H262.292H264.768L264.558 115.965C264.558 114.11 264.558 112.336 264.558 110.707L264.598 110.82L261.937 107.232L262.074 107.296L255.994 107.216H254.301C254.097 107.172 253.897 107.11 253.704 107.03Z" fill="#263238"/>
<path d="M264.791 110.86C264.409 110.963 264.016 111.017 263.621 111.022C262.879 111.086 261.815 111.159 260.549 111.239L260.718 111.062C260.688 111.736 260.467 112.387 260.081 112.941C259.871 113.245 259.595 113.498 259.275 113.683C258.92 113.847 258.536 113.937 258.146 113.949C257.73 113.966 257.316 113.891 256.933 113.729C256.549 113.568 256.206 113.323 255.928 113.014C255.466 112.46 255.155 111.796 255.025 111.086L255.203 111.231C254.025 111.231 253.042 111.191 252.356 111.159C251.996 111.171 251.635 111.136 251.284 111.054C251.636 110.977 251.996 110.942 252.356 110.949L255.203 110.877H255.316V111.03C255.453 111.661 255.744 112.248 256.162 112.739C256.4 113.006 256.694 113.217 257.023 113.356C257.352 113.495 257.708 113.56 258.065 113.546C258.395 113.544 258.72 113.47 259.017 113.328C259.297 113.183 259.539 112.976 259.726 112.723C260.069 112.235 260.275 111.664 260.323 111.07V110.901H260.476C261.75 110.901 262.815 110.836 263.565 110.828C263.973 110.787 264.385 110.798 264.791 110.86Z" fill="#263238"/>
<path d="M295.104 107.449C295.329 107.399 295.559 107.377 295.79 107.385V107.514C294.177 107.595 289.185 107.659 283.331 107.659C279.702 107.659 276.412 107.659 274.033 107.595L271.219 107.53C270.873 107.542 270.527 107.515 270.187 107.449C270.527 107.384 270.873 107.357 271.219 107.369L274.033 107.304C276.412 107.264 279.678 107.24 283.331 107.24C289.185 107.24 294.145 107.304 295.79 107.385V107.514C295.559 107.522 295.329 107.5 295.104 107.449Z" fill="#263238"/>
<path d="M295.104 112.731C295.328 112.675 295.559 112.653 295.79 112.667V112.78C294.177 112.86 289.185 112.925 283.331 112.925C279.702 112.925 276.412 112.925 274.033 112.86L271.219 112.796C270.873 112.802 270.528 112.775 270.187 112.715C270.527 112.649 270.873 112.619 271.219 112.626L274.033 112.562C276.412 112.521 279.678 112.505 283.331 112.505C289.185 112.505 294.145 112.562 295.79 112.651V112.78C295.56 112.787 295.33 112.771 295.104 112.731Z" fill="#263238"/>
<path d="M295.104 118.006C295.329 117.955 295.559 117.933 295.79 117.941V118.07C294.177 118.159 289.185 118.215 283.331 118.215C279.702 118.215 276.412 118.215 274.033 118.159L271.219 118.086C270.873 118.098 270.527 118.071 270.187 118.006C270.528 117.945 270.873 117.918 271.219 117.925L274.033 117.86C276.412 117.82 279.678 117.796 283.331 117.796C289.185 117.796 294.145 117.86 295.79 117.941V118.07C295.559 118.083 295.328 118.062 295.104 118.006Z" fill="#263238"/>
<path d="M253.704 144.801C253.892 144.763 254.084 144.747 254.277 144.753L255.954 144.712L262.098 144.632H262.179L262.227 144.696L264.937 148.261L264.977 148.317V148.381C264.977 149.994 264.977 151.784 264.977 153.639V153.849H262.3H251.236H251.059V153.671C251.059 151.849 251.059 150.228 251.107 148.833L252.994 145.874C253.201 145.526 253.43 145.192 253.68 144.874C253.645 144.982 253.596 145.085 253.535 145.18L253.075 145.987L251.333 148.962V148.89C251.333 150.26 251.333 151.881 251.374 153.728L251.196 153.55H262.26H264.735L264.526 153.76C264.526 151.905 264.526 150.131 264.526 148.502L264.566 148.615L261.905 145.027L262.042 145.091L255.962 145.011H254.268C254.074 144.958 253.886 144.888 253.704 144.801Z" fill="#263238"/>
<path d="M264.791 148.632C264.409 148.735 264.016 148.789 263.621 148.793C262.879 148.858 261.815 148.93 260.549 149.011L260.718 148.834C260.688 149.507 260.467 150.159 260.081 150.712C259.871 151.016 259.595 151.27 259.275 151.454C258.921 151.619 258.536 151.707 258.146 151.712C257.731 151.733 257.316 151.66 256.932 151.5C256.549 151.339 256.206 151.095 255.928 150.785C255.466 150.231 255.155 149.567 255.025 148.858L255.203 149.003C254.025 149.003 253.042 149.003 252.356 148.93C251.996 148.943 251.635 148.907 251.284 148.826C251.636 148.749 251.996 148.713 252.356 148.721L255.203 148.648H255.316V148.801C255.453 149.432 255.744 150.019 256.162 150.511C256.4 150.777 256.694 150.988 257.023 151.128C257.352 151.267 257.708 151.332 258.065 151.317C258.395 151.316 258.72 151.242 259.017 151.1C259.297 150.955 259.539 150.748 259.726 150.495C260.069 150.007 260.275 149.436 260.323 148.842V148.672H260.476C261.75 148.624 262.815 148.608 263.565 148.6C263.973 148.558 264.385 148.569 264.791 148.632Z" fill="#263238"/>
<path d="M295.104 145.22C295.329 145.169 295.559 145.147 295.79 145.155V145.284C294.177 145.365 289.185 145.43 283.331 145.43C279.702 145.43 276.412 145.43 274.033 145.365L271.219 145.301C270.873 145.312 270.527 145.285 270.187 145.22C270.527 145.155 270.873 145.128 271.219 145.139L274.033 145.075C276.412 145.034 279.678 145.01 283.331 145.01C289.185 145.01 294.145 145.075 295.79 145.155V145.284C295.559 145.292 295.329 145.271 295.104 145.22Z" fill="#263238"/>
<path d="M295.104 150.503C295.328 150.447 295.559 150.425 295.79 150.439V150.568C294.177 150.648 289.185 150.713 283.331 150.713C279.702 150.713 276.412 150.713 274.033 150.648L271.219 150.584C270.873 150.59 270.528 150.563 270.187 150.503C270.527 150.437 270.873 150.407 271.219 150.414L274.033 150.35C276.412 150.31 279.678 150.293 283.331 150.293C289.185 150.293 294.145 150.35 295.79 150.439V150.568C295.559 150.57 295.33 150.549 295.104 150.503Z" fill="#263238"/>
<path d="M295.104 155.777C295.329 155.726 295.559 155.704 295.79 155.712V155.841C294.177 155.93 289.185 155.986 283.331 155.986C279.702 155.986 276.412 155.986 274.033 155.93L271.219 155.857C270.873 155.869 270.527 155.842 270.187 155.777C270.528 155.717 270.873 155.689 271.219 155.696L274.033 155.631C276.412 155.631 279.678 155.567 283.331 155.567C289.185 155.567 294.145 155.631 295.79 155.712V155.841C295.559 155.854 295.328 155.833 295.104 155.777Z" fill="#263238"/>
<path d="M455.394 120.48H449.249C448.928 120.486 448.61 120.427 448.311 120.308C448.013 120.189 447.742 120.011 447.513 119.786C447.284 119.561 447.102 119.293 446.978 118.996C446.854 118.7 446.79 118.382 446.79 118.061V107.82H447.596V118.029C447.596 118.244 447.639 118.457 447.723 118.656C447.806 118.854 447.929 119.034 448.083 119.184C448.237 119.334 448.42 119.452 448.62 119.531C448.82 119.609 449.034 119.647 449.249 119.642H455.394C455.822 119.642 456.232 119.472 456.534 119.169C456.837 118.867 457.007 118.457 457.007 118.029V108.175H457.813V118.029C457.818 118.349 457.758 118.668 457.638 118.965C457.519 119.262 457.341 119.532 457.116 119.761C456.891 119.989 456.623 120.17 456.327 120.293C456.032 120.417 455.715 120.48 455.394 120.48Z" fill="#50BFD7"/>
<path d="M458.863 107.877H445.784V108.684H458.863V107.877Z" fill="#50BFD7"/>
<path d="M449.945 108.279H449.138V107.384C449.138 106.957 449.308 106.546 449.611 106.244C449.913 105.941 450.323 105.771 450.751 105.771H453.976C454.404 105.771 454.814 105.941 455.117 106.244C455.419 106.546 455.589 106.957 455.589 107.384V108.102H454.783V107.384C454.783 107.17 454.698 106.965 454.547 106.814C454.395 106.663 454.19 106.578 453.976 106.578H450.751C450.537 106.578 450.332 106.663 450.181 106.814C450.03 106.965 449.945 107.17 449.945 107.384V108.279Z" fill="#50BFD7"/>
<path d="M450.459 117.466C450.252 116.322 450.182 115.158 450.249 113.998C450.182 112.841 450.252 111.68 450.459 110.539C450.671 111.679 450.741 112.841 450.669 113.998C450.741 115.158 450.671 116.323 450.459 117.466Z" fill="#50BFD7"/>
<path d="M452.356 117.466C452.149 116.322 452.078 115.158 452.146 113.998C452.079 112.841 452.149 111.68 452.356 110.539C452.567 111.679 452.638 112.841 452.565 113.998C452.638 115.158 452.567 116.323 452.356 117.466Z" fill="#50BFD7"/>
<path d="M454.265 117.466C454.058 116.322 453.988 115.158 454.056 113.998C453.988 112.841 454.059 111.68 454.265 110.539C454.477 111.679 454.547 112.841 454.475 113.998C454.547 115.158 454.477 116.323 454.265 117.466Z" fill="#50BFD7"/>
<path d="M455.394 153.542H449.249C448.598 153.54 447.974 153.28 447.513 152.82C447.052 152.359 446.792 151.734 446.79 151.083V140.874H447.596V151.083C447.596 151.521 447.771 151.942 448.081 152.252C448.391 152.562 448.811 152.736 449.249 152.736H455.394C455.825 152.725 456.236 152.547 456.537 152.238C456.838 151.929 457.007 151.514 457.007 151.083V141.229H457.813V151.083C457.819 151.404 457.76 151.723 457.641 152.021C457.522 152.319 457.344 152.591 457.119 152.82C456.894 153.048 456.625 153.23 456.329 153.354C456.033 153.478 455.715 153.542 455.394 153.542Z" fill="#50BFD7"/>
<path d="M458.863 140.93H445.784V141.737H458.863V140.93Z" fill="#50BFD7"/>
<path d="M449.945 141.334H449.138V140.438C449.138 140.011 449.308 139.6 449.611 139.298C449.913 138.996 450.323 138.826 450.751 138.826H453.976C454.404 138.826 454.814 138.996 455.117 139.298C455.419 139.6 455.589 140.011 455.589 140.438V141.156H454.783V140.438C454.783 140.225 454.698 140.019 454.547 139.868C454.395 139.717 454.19 139.632 453.976 139.632H450.751C450.537 139.632 450.332 139.717 450.181 139.868C450.03 140.019 449.945 140.225 449.945 140.438V141.334Z" fill="#50BFD7"/>
<path d="M450.462 150.52C450.182 148.219 450.182 145.893 450.462 143.593C450.741 145.893 450.741 148.219 450.462 150.52Z" fill="#50BFD7"/>
<path d="M452.355 150.52C452.076 148.219 452.076 145.893 452.355 143.593C452.635 145.893 452.635 148.219 452.355 150.52Z" fill="#50BFD7"/>
<path d="M454.268 150.52C453.988 148.219 453.988 145.893 454.268 143.593C454.547 145.893 454.547 148.219 454.268 150.52Z" fill="#50BFD7"/>
<path d="M455.394 226.206H449.249C448.928 226.211 448.61 226.152 448.311 226.033C448.013 225.914 447.742 225.737 447.513 225.511C447.284 225.286 447.102 225.018 446.978 224.722C446.854 224.425 446.79 224.108 446.79 223.786V213.578H447.596V223.786C447.596 224.002 447.639 224.215 447.723 224.413C447.806 224.611 447.929 224.791 448.083 224.941C448.237 225.092 448.42 225.21 448.62 225.288C448.82 225.367 449.034 225.405 449.249 225.399H455.394C455.822 225.399 456.232 225.229 456.534 224.927C456.837 224.624 457.007 224.214 457.007 223.786V213.9H457.813V223.754C457.818 224.075 457.758 224.393 457.638 224.69C457.519 224.987 457.341 225.258 457.116 225.486C456.891 225.714 456.623 225.895 456.327 226.018C456.032 226.142 455.715 226.206 455.394 226.206Z" fill="#50BFD7"/>
<path d="M458.863 213.602H445.784V214.408H458.863V213.602Z" fill="#50BFD7"/>
<path d="M449.945 214.005H449.138V213.102C449.138 212.674 449.308 212.264 449.611 211.961C449.913 211.659 450.323 211.489 450.751 211.489H453.976C454.404 211.489 454.814 211.659 455.117 211.961C455.419 212.264 455.589 212.674 455.589 213.102V213.827H454.783V213.102C454.783 212.888 454.698 212.683 454.547 212.531C454.395 212.38 454.19 212.295 453.976 212.295H450.751C450.537 212.295 450.332 212.38 450.181 212.531C450.03 212.683 449.945 212.888 449.945 213.102V214.005Z" fill="#50BFD7"/>
<path d="M450.462 223.189C450.182 220.889 450.182 218.563 450.462 216.262C450.741 218.563 450.741 220.889 450.462 223.189Z" fill="#50BFD7"/>
<path d="M452.355 223.189C452.076 220.889 452.076 218.563 452.355 216.262C452.635 218.563 452.635 220.889 452.355 223.189Z" fill="#50BFD7"/>
<path d="M454.268 223.189C453.988 220.889 453.988 218.563 454.268 216.262C454.547 218.563 454.547 220.889 454.268 223.189Z" fill="#50BFD7"/>
<path d="M467.274 61.0671C467.274 61.18 432.1 61.2767 388.717 61.2767C345.334 61.2767 310.151 61.1719 310.151 61.0671C310.151 60.9623 345.318 60.8574 388.709 60.8574C432.1 60.8574 467.274 60.9542 467.274 61.0671Z" fill="#263238"/>
<path d="M467.274 96.0876C467.274 96.2005 432.1 96.2973 388.717 96.2973C345.334 96.2973 310.151 96.2005 310.151 96.0876C310.151 95.9747 345.318 95.8779 388.709 95.8779C432.1 95.8779 467.274 95.9666 467.274 96.0876Z" fill="#263238"/>
<path d="M467.274 165.404C467.274 165.517 432.1 165.614 388.717 165.614C345.334 165.614 310.151 165.517 310.151 165.404C310.151 165.291 345.318 165.194 388.709 165.194C432.1 165.194 467.274 165.283 467.274 165.404Z" fill="#263238"/>
<path d="M467.273 200.886C467.273 201.007 432.099 201.096 388.716 201.096C345.332 201.096 310.158 201.007 310.158 200.886C310.158 200.765 345.324 200.676 388.716 200.676C432.107 200.676 467.273 200.773 467.273 200.886Z" fill="#263238"/>
<path d="M330.536 85.3633C330.536 85.3633 330.713 85.3633 331.02 85.2504C331.464 85.1095 331.835 84.7996 332.052 84.3876C332.367 83.8635 332.205 83.0813 332.229 82.1943C332.254 81.3072 332.229 80.2993 332.229 79.1945C332.229 78.0898 332.229 76.856 332.229 75.5577C332.229 75.2271 332.229 74.8965 332.229 74.5578C332.257 74.2357 332.23 73.9112 332.149 73.5983C332.047 73.2903 331.855 73.0202 331.598 72.8232C331.34 72.6261 331.029 72.5112 330.705 72.4935H321.085C320.711 72.4964 320.35 72.6291 320.063 72.8688C319.777 73.1086 319.582 73.4405 319.513 73.8079C319.456 74.5498 319.513 75.4207 319.513 76.227C319.513 77.8398 319.513 79.3719 319.513 80.8476C319.513 81.5814 319.513 82.2991 319.513 83.0006C319.491 83.3267 319.507 83.6541 319.561 83.9764C319.63 84.2815 319.784 84.5611 320.005 84.7827C320.217 84.985 320.478 85.1293 320.763 85.2021C321.053 85.2514 321.348 85.2676 321.642 85.2504H323.392L328.657 85.3149L330.093 85.3553C330.26 85.3513 330.428 85.3648 330.592 85.3956C330.427 85.4182 330.258 85.4182 330.093 85.3956L328.657 85.4359L323.392 85.5085H321.642C321.321 85.5313 320.999 85.515 320.682 85.4601C320.33 85.3806 320.006 85.2052 319.747 84.9533C319.488 84.7015 319.304 84.3829 319.214 84.0328C319.146 83.6824 319.124 83.3245 319.15 82.9684C319.15 82.2668 319.15 81.5492 319.15 80.8153C319.15 79.3397 319.15 77.7995 319.15 76.1948V74.9852C319.123 74.5637 319.123 74.1408 319.15 73.7192C319.245 73.2632 319.494 72.8538 319.855 72.56C320.216 72.2662 320.668 72.106 321.134 72.1064H330.713C331.111 72.1342 331.49 72.2793 331.805 72.5234C332.119 72.7675 332.354 73.0995 332.479 73.4773C332.572 73.8294 332.605 74.1948 332.576 74.5578C332.576 74.8965 332.576 75.2271 332.576 75.5577C332.576 76.856 332.576 78.0737 332.576 79.1945C332.576 80.3154 332.576 81.3072 332.576 82.1943C332.576 82.6378 332.576 83.049 332.576 83.428C332.586 83.7908 332.5 84.1498 332.326 84.4682C332.072 84.8995 331.657 85.2125 331.173 85.3391C330.967 85.406 330.747 85.4144 330.536 85.3633Z" fill="#263238"/>
<path d="M330.536 190.007C330.536 190.007 330.713 190.007 331.02 189.894C331.464 189.753 331.835 189.443 332.052 189.031C332.367 188.507 332.205 187.725 332.229 186.838C332.254 185.951 332.229 184.943 332.229 183.838C332.229 182.733 332.229 181.5 332.229 180.201C332.229 179.871 332.229 179.54 332.229 179.201C332.257 178.879 332.23 178.555 332.149 178.242C332.047 177.934 331.855 177.664 331.598 177.467C331.34 177.27 331.029 177.155 330.705 177.137H321.085C320.713 177.14 320.352 177.271 320.066 177.509C319.779 177.747 319.584 178.078 319.513 178.443C319.456 179.193 319.513 180.056 319.513 180.863C319.513 182.475 319.513 184.007 319.513 185.483C319.513 186.217 319.513 186.935 319.513 187.628C319.491 187.957 319.507 188.287 319.561 188.612C319.628 188.918 319.782 189.198 320.005 189.418C320.214 189.625 320.477 189.77 320.763 189.838C321.052 189.894 321.347 189.913 321.642 189.894H323.392L328.657 189.959L330.093 189.999C330.259 189.982 330.426 189.982 330.592 189.999C330.428 190.035 330.26 190.049 330.093 190.039L328.657 190.079L323.392 190.144H321.642C321.321 190.167 320.999 190.151 320.682 190.096C320.33 190.016 320.006 189.841 319.747 189.589C319.488 189.337 319.304 189.018 319.214 188.668C319.145 188.315 319.124 187.955 319.15 187.596C319.15 186.902 319.15 186.185 319.15 185.451C319.15 183.975 319.15 182.435 319.15 180.83V179.621C319.123 179.199 319.123 178.776 319.15 178.355C319.236 177.891 319.482 177.473 319.844 177.171C320.206 176.869 320.662 176.703 321.134 176.702H330.713C331.111 176.729 331.49 176.874 331.805 177.119C332.119 177.363 332.354 177.695 332.479 178.073C332.572 178.425 332.605 178.79 332.576 179.153C332.576 179.492 332.576 179.822 332.576 180.153C332.576 181.451 332.576 182.669 332.576 183.79C332.576 184.911 332.576 185.902 332.576 186.789C332.576 187.233 332.576 187.644 332.576 188.023C332.586 188.386 332.5 188.745 332.326 189.063C332.202 189.277 332.035 189.464 331.837 189.612C331.639 189.76 331.413 189.867 331.173 189.926C330.971 190.007 330.752 190.035 330.536 190.007Z" fill="#263238"/>
<path d="M308.989 231.318C308.989 231.318 308.989 231.149 308.989 230.826C308.989 230.504 308.989 230.02 308.989 229.383C308.989 228.092 308.989 226.222 308.989 223.827C308.989 218.988 308.989 212.013 308.989 203.401C308.989 186.161 309.199 162.34 309.441 136.028C309.683 109.716 309.868 85.9036 310.021 68.6471C310.078 60.0349 310.118 53.0598 310.15 48.2215C310.15 45.8023 310.15 43.9557 310.199 42.6736C310.199 42.0446 310.199 41.5688 310.199 41.2302C310.199 40.8915 310.199 40.7383 310.199 40.7383C310.199 40.7383 310.199 40.8996 310.199 41.2302C310.199 41.5608 310.199 42.0365 310.199 42.6736C310.199 43.9557 310.199 45.8265 310.199 48.2215C310.199 53.0598 310.199 60.0349 310.199 68.6471C310.159 85.8875 309.989 109.716 309.739 136.028C309.489 162.34 309.312 186.145 309.167 203.401C309.11 212.013 309.07 218.988 309.038 223.827C309.038 226.246 309.038 228.092 308.989 229.383C308.989 230.004 308.989 230.479 308.989 230.826C308.989 231.173 308.989 231.318 308.989 231.318Z" fill="#263238"/>
<path d="M398.779 110.135C398.779 110.248 386.683 110.345 371.717 110.345C356.75 110.345 344.655 110.248 344.655 110.135C344.655 110.022 356.75 109.925 371.717 109.925C386.683 109.925 398.779 110.014 398.779 110.135Z" fill="#263238"/>
<path d="M432.607 116.101C432.607 116.222 412.915 116.311 388.635 116.311C364.355 116.311 344.655 116.222 344.655 116.101C344.655 115.98 364.347 115.892 388.635 115.892C412.923 115.892 432.607 116.004 432.607 116.101Z" fill="#263238"/>
<path d="M398.779 180.38C398.779 180.492 386.683 180.589 371.717 180.589C356.75 180.589 344.655 180.492 344.655 180.38C344.655 180.267 356.75 180.17 371.717 180.17C386.683 180.17 398.779 180.259 398.779 180.38Z" fill="#263238"/>
<path d="M432.607 186.345C432.607 186.458 412.915 186.555 388.635 186.555C364.355 186.555 344.655 186.458 344.655 186.345C344.655 186.233 364.347 186.136 388.635 186.136C412.923 186.136 432.607 186.233 432.607 186.345Z" fill="#263238"/>
<path d="M398.779 76.3796C398.779 76.5005 386.683 76.5973 371.717 76.5973C356.75 76.5973 344.655 76.5005 344.655 76.3796C344.655 76.2586 356.75 76.1699 371.717 76.1699C386.683 76.1699 398.779 76.2667 398.779 76.3796Z" fill="#263238"/>
<path d="M432.607 82.3557C432.607 82.4686 412.915 82.5653 388.635 82.5653C364.355 82.5653 344.655 82.4686 344.655 82.3557C344.655 82.2428 364.347 82.146 388.635 82.146C412.923 82.146 432.607 82.2428 432.607 82.3557Z" fill="#263238"/>
<path d="M398.779 144.55C398.779 144.663 386.683 144.76 371.717 144.76C356.75 144.76 344.655 144.663 344.655 144.55C344.655 144.438 356.75 144.341 371.717 144.341C386.683 144.341 398.779 144.438 398.779 144.55Z" fill="#263238"/>
<path d="M432.607 150.518C432.607 150.639 412.915 150.727 388.635 150.727C364.355 150.727 344.655 150.639 344.655 150.518C344.655 150.397 364.347 150.308 388.635 150.308C412.923 150.308 432.607 150.405 432.607 150.518Z" fill="#263238"/>
<path d="M398.779 213.706C398.779 213.819 386.683 213.916 371.717 213.916C356.75 213.916 344.655 213.819 344.655 213.706C344.655 213.593 356.75 213.497 371.717 213.497C386.683 213.497 398.779 213.577 398.779 213.706Z" fill="#263238"/>
<path d="M432.607 219.674C432.607 219.787 412.915 219.884 388.635 219.884C364.355 219.884 344.655 219.787 344.655 219.674C344.655 219.561 364.347 219.464 388.635 219.464C412.923 219.464 432.607 219.561 432.607 219.674Z" fill="#263238"/>
<path d="M460.194 45.1011H449.542V55.7533H460.194V45.1011Z" fill="#E0E0E0"/>
<path d="M442.848 45.1011H432.196V55.7533H442.848V45.1011Z" fill="#E0E0E0"/>
<path d="M425.502 45.1011H414.85V55.7533H425.502V45.1011Z" fill="#E0E0E0"/>
<path d="M232.165 72.9932L236.689 78.8959L240.559 72.9932H232.165Z" fill="#263238"/>
<path d="M82.2219 259.25C82.2219 259.25 77.0432 258.123 75.0527 255.569C73.0446 253.015 71.8644 251.887 64.8537 248.84C57.8958 245.792 55.1303 241.847 55.1303 241.847C55.1303 241.847 50.2685 246.303 60.9432 251.412C67.4783 254.547 46.0057 254.089 39.5411 253.367C39.5411 253.367 35.8067 255.41 41.9896 258.405C48.1724 261.399 42.2185 261.628 54.4609 266.789C66.6856 271.968 81.2179 274.681 84.1772 267.3C87.1189 259.92 82.2219 259.25 82.2219 259.25Z" fill="white"/>
<path fill-rule="evenodd" clip-rule="evenodd" d="M55.13 241.846L54.6539 241.326L55.2459 240.784L55.7062 241.44L55.7064 241.441L55.707 241.441L55.7098 241.445C55.7135 241.45 55.7198 241.459 55.7289 241.472C55.7472 241.496 55.7764 241.535 55.817 241.587C55.8982 241.69 56.0247 241.846 56.1994 242.044C56.5488 242.441 57.0905 243.007 57.8467 243.67C59.3584 244.994 61.7286 246.701 65.135 248.193C68.6445 249.719 70.7464 250.785 72.2292 251.809C73.7373 252.85 74.5857 253.834 75.6063 255.132L75.6072 255.134L75.6082 255.135C76.4786 256.252 78.1138 257.116 79.6391 257.71C80.3846 258 81.0717 258.214 81.5725 258.355C81.8225 258.426 82.0249 258.478 82.1637 258.512C82.233 258.529 82.2864 258.541 82.3217 258.55C82.3346 258.553 82.3451 258.555 82.3531 258.557C82.3608 258.558 82.3697 258.56 82.3795 258.561C82.3882 258.563 82.3977 258.565 82.408 258.567C82.4561 258.576 82.5215 258.59 82.6006 258.61C82.7585 258.65 82.974 258.716 83.2197 258.822C83.7095 259.033 84.3371 259.41 84.8564 260.071C85.9304 261.438 86.3507 263.748 84.8314 267.56L84.8309 267.562C84.0003 269.633 82.3575 270.97 80.2411 271.725C78.1437 272.473 75.5587 272.662 72.7421 272.456C67.1053 272.046 60.3367 270.043 54.186 267.437C48.056 264.853 46.3273 263.447 45.3907 262.209C45.226 261.991 45.0832 261.774 44.9583 261.584C44.9168 261.521 44.8772 261.461 44.8396 261.405C44.6821 261.17 44.5278 260.959 44.3166 260.74C43.8946 260.3 43.1895 259.768 41.6821 259.038C40.0953 258.269 39.0706 257.528 38.4609 256.809C37.834 256.069 37.6279 255.326 37.7532 254.636C37.8717 253.984 38.2642 253.507 38.5713 253.219C38.7299 253.069 38.8814 252.956 38.994 252.878C39.0508 252.84 39.0988 252.809 39.1346 252.787C39.1525 252.777 39.1674 252.768 39.1788 252.761C39.1846 252.758 39.1895 252.755 39.1934 252.753L39.1987 252.75L39.2008 252.749L39.2018 252.748C39.2022 252.748 39.2026 252.748 39.5408 253.366L39.2026 252.748L39.3978 252.641L39.619 252.666C42.8133 253.023 49.763 253.317 55.0922 253.131C57.7844 253.037 59.9609 252.822 61.048 252.47C61.1304 252.444 61.2008 252.418 61.2605 252.394C61.1189 252.296 60.9168 252.18 60.6384 252.046C55.2348 249.46 53.476 246.906 53.3305 244.76C53.259 243.706 53.5899 242.85 53.9278 242.268C54.0971 241.977 54.2711 241.749 54.4051 241.591C54.4723 241.512 54.5301 241.45 54.5732 241.406C54.5948 241.383 54.6127 241.366 54.6263 241.352C54.6331 241.346 54.6389 241.34 54.6435 241.336L54.6496 241.33L54.6519 241.328L54.653 241.327C54.6534 241.327 54.6539 241.326 55.13 241.846ZM39.7171 254.094C39.6626 254.135 39.6002 254.186 39.5366 254.245C39.3366 254.433 39.182 254.655 39.1397 254.888C39.1043 255.083 39.1239 255.412 39.5358 255.898C39.9648 256.404 40.7919 257.041 42.2964 257.77C43.8804 258.537 44.7497 259.156 45.3329 259.763C45.6242 260.067 45.8302 260.353 46.0092 260.619C46.0619 260.697 46.1103 260.771 46.1569 260.842C46.2742 261.02 46.38 261.181 46.5145 261.359C47.2073 262.274 48.6227 263.563 54.7343 266.139L54.7354 266.14C60.8093 268.713 67.4192 270.656 72.8445 271.051C75.5589 271.249 77.9259 271.055 79.7676 270.398C81.5903 269.748 82.8736 268.656 83.5228 267.037C84.9447 263.469 84.3874 261.755 83.7484 260.942C83.4112 260.513 82.9984 260.261 82.6619 260.116C82.4945 260.044 82.3505 260 82.252 259.975C82.203 259.963 82.166 259.955 82.1439 259.951C82.1329 259.949 82.1256 259.947 82.1225 259.947C82.121 259.947 82.1205 259.947 82.1211 259.947L82.0988 259.944L82.0718 259.938L82.2217 259.249C82.0718 259.938 82.0716 259.938 82.0715 259.938L82.071 259.938L82.0659 259.937L82.0526 259.934C82.0412 259.931 82.0251 259.927 82.0043 259.923C81.9628 259.913 81.903 259.899 81.8268 259.88C81.6746 259.843 81.4569 259.787 81.1902 259.711C80.6578 259.561 79.9258 259.334 79.1278 259.023C77.5665 258.415 75.6178 257.439 74.4977 256.002C73.5105 254.747 72.7649 253.891 71.4286 252.968C70.0667 252.028 68.0733 251.007 64.5725 249.485L64.5707 249.484C61.0199 247.929 58.5286 246.14 56.9182 244.73C56.115 244.026 55.5314 243.417 55.1447 242.979C54.9054 243.392 54.6891 243.968 54.7364 244.665C54.8287 246.025 55.9763 248.253 61.247 250.775L61.2477 250.775C61.6804 250.983 62.0394 251.195 62.3046 251.419C62.5517 251.627 62.8285 251.938 62.8665 252.362C62.9093 252.838 62.6335 253.178 62.3804 253.374C62.132 253.567 61.8106 253.705 61.4818 253.811C60.1788 254.233 57.8085 254.446 55.1413 254.539C49.8878 254.723 43.086 254.446 39.7171 254.094ZM39.8817 253.983C39.8829 253.982 39.8832 253.982 39.8828 253.982L39.8817 253.983Z" fill="#2C2C2C"/>
<path d="M167.795 217.169C167.795 217.169 153.14 288.192 146.464 292.102C141.091 295.255 99.9074 281.85 84.2654 276.584C80.5487 275.35 78.2764 274.54 78.2764 274.54L80.9714 256.326L89.7965 257.524L133.746 263.496C133.746 263.496 148.56 191.327 159.199 190.447C169.856 189.548 167.795 217.169 167.795 217.169Z" fill="#2C2C2C"/>
<path d="M253.915 190.006C253.915 190.006 305.896 242.481 309.314 268.709C309.314 268.709 301.404 283.541 253.791 311.83L249.546 299.694C249.546 299.694 276.127 269.185 285.357 261.469C285.357 261.469 243.733 227.05 244.702 217.291C245.671 207.497 248.084 190.517 253.915 190.006Z" fill="#2C2C2C"/>
<path d="M275.176 212.042C275.176 223.281 267.813 230.239 256.575 230.239C245.336 230.239 236.229 221.132 236.229 209.893C236.229 198.655 244.72 186.254 255.43 189.619C267.232 193.3 275.176 200.804 275.176 212.042Z" fill="white"/>
<path fill-rule="evenodd" clip-rule="evenodd" d="M242.35 194.735C239.002 198.686 236.934 204.433 236.934 209.893C236.934 220.742 245.725 229.533 256.574 229.533C262.047 229.533 266.509 227.841 269.599 224.848C272.686 221.857 274.471 217.502 274.471 212.042C274.471 201.232 266.861 193.922 255.219 190.291L255.218 190.29C250.212 188.718 245.688 190.796 242.35 194.735ZM255.64 188.945C249.936 187.154 244.86 189.594 241.275 193.824C237.701 198.041 235.524 204.114 235.524 209.893C235.524 221.52 244.947 230.942 256.574 230.942C262.339 230.942 267.178 229.155 270.579 225.86C273.984 222.562 275.88 217.819 275.88 212.042C275.88 200.374 267.601 192.677 255.64 188.945Z" fill="#2C2C2C"/>
<path d="M266.032 208.766C266.032 217.08 260.589 222.224 252.275 222.224C243.961 222.224 237.232 215.495 237.232 207.18C237.232 198.866 243.503 189.689 251.447 192.173C260.149 194.921 266.032 200.469 266.032 208.766Z" fill="#2C2C2C"/>
<path d="M138.661 212.042C138.661 223.28 146.024 230.238 157.262 230.238C168.501 230.238 177.59 221.113 177.59 209.893C177.59 198.672 169.1 186.254 158.39 189.618C146.605 193.3 138.661 200.804 138.661 212.042Z" fill="white"/>
<path fill-rule="evenodd" clip-rule="evenodd" d="M172.543 193.831C176.117 198.051 178.294 204.124 178.294 209.894C178.294 221.502 168.89 230.943 157.261 230.943C151.496 230.943 146.658 229.156 143.256 225.861C139.852 222.563 137.956 217.82 137.956 212.043C137.956 200.376 146.234 192.678 158.178 188.946C163.882 187.155 168.959 189.6 172.543 193.831ZM171.467 194.742C168.129 190.801 163.605 188.719 158.6 190.291L158.599 190.291C146.975 193.923 139.365 201.233 139.365 212.043C139.365 217.503 141.15 221.858 144.237 224.849C147.326 227.842 151.788 229.534 157.261 229.534C168.109 229.534 176.884 220.726 176.884 209.894C176.884 204.442 174.816 198.696 171.467 194.742Z" fill="#2C2C2C"/>
<path d="M147.819 208.766C147.819 217.08 153.262 222.224 161.577 222.224C169.891 222.224 176.62 215.495 176.62 207.18C176.62 198.866 170.349 189.689 162.422 192.173C153.685 194.921 147.819 200.469 147.819 208.766Z" fill="#2C2C2C"/>
<path d="M232.529 302.213C219.811 301.05 207.252 300.575 207.252 300.575C202.636 300.716 192.807 301.121 182.661 302.213C185.62 312.324 195.661 319.775 207.586 319.775C219.529 319.793 229.57 312.306 232.529 302.213Z" fill="#50BFD7"/>
<path d="M231.491 303.27C232.583 298.972 254.443 189.442 254.443 189.442C254.443 189.442 196.103 172.215 158.794 189.442L182.715 304.221L231.491 303.27Z" fill="white"/>
<path fill-rule="evenodd" clip-rule="evenodd" d="M254.641 188.766C254.642 188.766 254.642 188.767 254.443 189.442C255.134 189.58 255.134 189.581 255.133 189.581L255.133 189.585L254.888 190.811C254.727 191.615 254.492 192.793 254.192 194.295C253.592 197.298 252.734 201.594 251.701 206.762C249.634 217.097 246.868 230.923 244.067 244.883C238.469 272.782 232.725 301.271 232.173 303.443L232.041 303.964L182.144 304.937L157.99 189.038L158.498 188.803C177.333 180.106 201.406 180.125 220.687 182.282C230.342 183.362 238.826 184.982 244.897 186.332C247.933 187.007 250.366 187.615 252.042 188.054C252.88 188.274 253.528 188.452 253.968 188.574C254.188 188.636 254.356 188.684 254.469 188.716C254.525 188.733 254.568 188.745 254.597 188.753L254.63 188.763L254.639 188.766L254.641 188.766ZM254.443 189.442L255.134 189.58L255.26 188.949L254.642 188.767L254.443 189.442ZM253.624 189.942C253.613 189.938 253.601 189.935 253.589 189.932C253.156 189.811 252.514 189.635 251.684 189.417C250.024 188.982 247.608 188.378 244.591 187.708C238.557 186.366 230.124 184.756 220.531 183.682C201.49 181.552 177.998 181.552 159.598 189.85L183.285 303.505L230.929 302.576C231.927 298.099 237.363 271.133 242.685 244.606C245.486 230.646 248.253 216.821 250.319 206.485C251.352 201.318 252.21 197.022 252.81 194.019C253.11 192.517 253.346 191.339 253.506 190.536L253.624 189.942Z" fill="black"/>
<path d="M231.491 303.27C232.583 298.972 254.443 189.442 254.443 189.442C254.443 189.442 196.103 172.215 158.794 189.442L182.715 304.221L231.491 303.27Z" fill="white"/>
<path fill-rule="evenodd" clip-rule="evenodd" d="M254.641 188.766C254.642 188.766 254.642 188.767 254.443 189.442C255.134 189.58 255.134 189.581 255.133 189.581L255.133 189.585L254.888 190.811C254.727 191.615 254.492 192.793 254.192 194.295C253.592 197.298 252.734 201.594 251.701 206.762C249.634 217.097 246.868 230.923 244.067 244.883C238.469 272.782 232.725 301.271 232.173 303.443L232.041 303.964L182.144 304.937L157.99 189.038L158.498 188.803C177.333 180.106 201.406 180.125 220.687 182.282C230.342 183.362 238.826 184.982 244.897 186.332C247.933 187.007 250.366 187.615 252.042 188.054C252.88 188.274 253.528 188.452 253.968 188.574C254.188 188.636 254.356 188.684 254.469 188.716C254.525 188.733 254.568 188.745 254.597 188.753L254.63 188.763L254.639 188.766L254.641 188.766ZM254.443 189.442L255.134 189.58L255.26 188.949L254.642 188.767L254.443 189.442ZM253.624 189.942C253.613 189.938 253.601 189.935 253.589 189.932C253.156 189.811 252.514 189.635 251.684 189.417C250.024 188.982 247.608 188.378 244.591 187.708C238.557 186.366 230.124 184.756 220.531 183.682C201.49 181.552 177.998 181.552 159.598 189.85L183.285 303.505L230.929 302.576C231.927 298.099 237.363 271.133 242.685 244.606C245.486 230.646 248.253 216.821 250.319 206.485C251.352 201.318 252.21 197.022 252.81 194.019C253.11 192.517 253.346 191.339 253.506 190.536L253.624 189.942Z" fill="#2C2C2C"/>
<path d="M240.281 186.078C223.987 182.801 196.438 179.067 172.763 184.704C175.564 202.371 178.365 220.057 181.165 237.724C183.42 249.703 194.782 257.682 206.637 257.753C218.491 257.682 229.853 249.72 232.108 237.724C234.82 220.497 237.551 203.287 240.281 186.078Z" fill="#50BFD7"/>
<path fill-rule="evenodd" clip-rule="evenodd" d="M172.599 184.019C196.429 178.345 224.104 182.106 240.419 185.387L241.082 185.521L240.974 186.199C238.245 203.406 235.515 220.611 232.803 237.834L232.801 237.845L232.799 237.855C230.472 250.235 218.775 258.385 206.64 258.457L206.636 258.458L206.632 258.457C194.496 258.385 182.799 250.217 180.472 237.855L180.47 237.845L180.469 237.835C179.069 229.002 177.668 220.165 176.268 211.327L176.268 211.325C174.867 202.486 173.467 193.648 172.067 184.814L171.964 184.17L172.599 184.019ZM173.561 185.241C174.927 193.858 176.293 202.48 177.659 211.101L177.66 211.104C179.059 219.939 180.459 228.774 181.859 237.604C184.046 249.192 195.067 256.978 206.636 257.048C218.205 256.978 229.226 249.209 231.413 237.605C234.09 220.604 236.784 203.62 239.478 186.636C223.281 183.428 196.62 179.929 173.561 185.241Z" fill="#2C2C2C"/>
<path d="M204.612 192.33C210.178 192.33 218.827 190.639 218.827 185.091L217.4 166.56L216.149 150.354C216.149 144.788 211.64 140.296 206.091 140.296C203.308 140.296 200.807 141.423 198.975 143.238C197.161 145.052 196.016 147.571 196.016 150.354L194.783 166.577L193.602 182.131C192.017 191.52 204.612 192.33 204.612 192.33Z" fill="#2C2C2C"/>
<path d="M223.229 110.051C223.229 110.862 224.215 111.496 225.431 111.496C226.646 111.496 227.633 110.844 227.633 110.051C227.633 109.241 226.646 108.607 225.431 108.607C224.233 108.589 223.229 109.241 223.229 110.051Z" fill="white"/>
<path d="M218.72 309.84C218.72 310.281 219.108 310.792 219.566 310.739C224.762 310.193 228.743 306.176 233.869 307.022C228.725 309.576 224.269 314.015 224.903 320.55C224.973 321.36 225.748 321.678 226.347 321.184C230.029 318.049 234.256 315.248 239.189 316.287C241.302 316.728 243.786 317.556 245.97 317.274C249.229 316.869 251.977 315.389 253.598 312.236C256.451 306.775 255.394 300.223 249 298.866C248.842 298.831 248.718 298.849 248.577 298.902C246.217 297.968 244.068 296.788 242.165 294.727C240.334 292.719 238.625 290.499 236.634 288.65C233.975 286.166 231.086 284.211 227.563 285.884C227.034 286.131 227.07 286.888 227.404 287.293C228.954 289.213 230.769 291.045 232.671 292.807C230.769 292.366 228.849 292.137 226.876 292.296C223.353 292.595 219.196 294.938 219.284 299.13C219.301 299.659 219.671 299.976 220.129 300.029C223.37 300.364 226.629 300.311 229.853 300.645C224.832 302.125 218.667 303.816 218.72 309.84Z" fill="white"/>
<path fill-rule="evenodd" clip-rule="evenodd" d="M232.68 285.052C234.304 285.692 235.77 286.879 237.114 288.133C238.46 289.384 239.703 290.827 240.909 292.227C241.507 292.922 242.096 293.605 242.684 294.249C244.433 296.144 246.407 297.264 248.623 298.16C248.784 298.134 248.956 298.134 249.148 298.177C252.599 298.91 254.665 301.077 255.444 303.819C256.21 306.519 255.712 309.708 254.222 312.559C252.472 315.962 249.493 317.544 246.058 317.972C244.854 318.127 243.6 317.974 242.417 317.742C241.822 317.625 241.232 317.486 240.668 317.351C240.608 317.337 240.548 317.323 240.489 317.308C239.985 317.188 239.505 317.072 239.044 316.976L239.042 316.976C234.47 316.012 230.482 318.587 226.803 321.72L226.799 321.724L226.794 321.727C226.315 322.122 225.695 322.237 225.148 322.003C224.602 321.769 224.256 321.241 224.2 320.614C223.627 314.688 227.001 310.434 231.258 307.691C229.841 307.884 228.461 308.396 227.017 309.006C226.696 309.142 226.371 309.284 226.041 309.427C224.086 310.276 221.977 311.192 219.641 311.438C219.115 311.497 218.693 311.227 218.44 310.937C218.188 310.649 218.015 310.252 218.015 309.843C217.986 306.524 219.699 304.394 222.008 302.941C223.225 302.175 224.628 301.584 226.05 301.088C225.69 301.072 225.329 301.056 224.966 301.04L224.951 301.039C223.337 300.969 221.696 300.898 220.056 300.729L220.052 300.728L220.048 300.728C219.294 300.641 218.609 300.08 218.579 299.153L218.578 299.149L218.578 299.144C218.529 296.781 219.686 294.951 221.291 293.697C222.882 292.454 224.937 291.753 226.815 291.593L226.817 291.593L226.818 291.593C228.063 291.493 229.282 291.54 230.482 291.693C229.189 290.419 227.959 289.103 226.857 287.738C226.574 287.393 226.43 286.927 226.455 286.488C226.481 286.033 226.703 285.507 227.261 285.246C229.214 284.319 231.021 284.397 232.68 285.052ZM227.871 286.516C227.868 286.526 227.864 286.542 227.862 286.568C227.86 286.612 227.866 286.666 227.884 286.722C227.901 286.777 227.926 286.819 227.946 286.844L227.949 286.847L227.951 286.85C229.472 288.733 231.259 290.539 233.149 292.289L235.094 294.09L232.511 293.492C230.658 293.063 228.814 292.846 226.933 292.997C225.289 293.137 223.504 293.756 222.158 294.808C220.827 295.848 219.95 297.283 219.987 299.11C219.991 299.202 220.02 299.24 220.039 299.259C220.063 299.283 220.115 299.316 220.206 299.328C221.8 299.492 223.403 299.562 225.027 299.632L225.033 299.632C226.65 299.703 228.29 299.774 229.924 299.944L233.472 300.312L230.051 301.32C229.963 301.346 229.875 301.372 229.787 301.398C227.325 302.123 224.749 302.881 222.758 304.134C220.743 305.402 219.4 307.129 219.424 309.833L219.424 309.836V309.839C219.424 309.848 219.426 309.874 219.441 309.912C219.456 309.949 219.477 309.983 219.5 310.01C219.51 310.02 219.518 310.028 219.524 310.033C221.615 309.807 223.493 308.994 225.447 308.148C225.784 308.001 226.124 307.854 226.468 307.709C228.766 306.737 231.206 305.868 233.983 306.326L236.137 306.681L234.181 307.652C229.148 310.151 225.011 314.375 225.603 320.481L225.604 320.485L225.604 320.488C225.612 320.583 225.638 320.637 225.657 320.665C225.675 320.692 225.693 320.703 225.704 320.707C225.715 320.712 225.732 320.716 225.759 320.712C225.786 320.707 225.834 320.692 225.895 320.642C229.578 317.506 234.043 314.483 239.332 315.597C239.815 315.698 240.317 315.818 240.817 315.938C240.877 315.952 240.936 315.966 240.996 315.981C241.56 316.116 242.124 316.249 242.687 316.359C243.82 316.581 244.899 316.7 245.879 316.574L245.881 316.574L245.882 316.574C248.964 316.191 251.478 314.815 252.97 311.913L252.971 311.911L252.972 311.909C254.335 309.3 254.735 306.483 254.088 304.203C253.453 301.965 251.795 300.179 248.853 299.555L248.85 299.554L248.846 299.553C248.846 299.553 248.845 299.553 248.845 299.553C248.84 299.554 248.833 299.557 248.824 299.56L248.57 299.656L248.317 299.556C245.899 298.599 243.646 297.369 241.647 295.204L241.645 295.202L241.644 295.201C240.996 294.491 240.379 293.773 239.768 293.063C238.595 291.701 237.446 290.366 236.154 289.165L236.153 289.164C234.836 287.934 233.529 286.902 232.163 286.362C230.834 285.838 229.438 285.774 227.871 286.516Z" fill="#2C2C2C"/>
<path fill-rule="evenodd" clip-rule="evenodd" d="M160.449 109.047V109.399H159.04V109.047H160.449Z" fill="#2C2C2C"/>
<path d="M213.365 205.437H199.837C196.243 205.437 193.319 208.361 193.319 211.954V225.483C193.319 229.076 196.243 232 199.837 232H213.365C216.958 232 219.882 229.076 219.882 225.483V211.954C219.882 208.361 216.976 205.437 213.365 205.437ZM189.726 199.677C187.665 199.677 185.991 201.35 185.991 203.411C185.991 205.472 187.665 207.145 189.726 207.145C191.787 207.145 193.46 205.472 193.46 203.411C193.46 201.35 191.787 199.677 189.726 199.677Z" fill="white"/>
<path d="M212.413 213.504C211.55 211.197 209.348 209.664 206.882 209.664H203.218L210.457 228.019H218.226L212.413 213.504ZM197.616 222.752L195.502 228.019H203.218L206.811 218.912H203.147C200.681 218.912 198.479 220.444 197.616 222.752ZM198.814 214.226C200.082 214.226 201.122 213.187 201.122 211.919C201.122 210.651 200.082 209.611 198.814 209.611C197.546 209.611 196.506 210.651 196.506 211.919C196.506 213.187 197.546 214.226 198.814 214.226Z" fill="#50BFD7"/>
<path d="M229.59 281.986C217.413 280.873 205.388 280.417 205.388 280.417C200.969 280.552 191.558 280.94 181.844 281.986C184.677 291.667 194.291 298.801 205.709 298.801C217.143 298.818 226.757 291.65 229.59 281.986Z" fill="#50BFD7"/>
<path d="M215.696 299.577C215.696 299.999 216.067 300.488 216.505 300.437C221.481 299.914 225.292 296.069 230.2 296.878C225.275 299.324 221.008 303.574 221.615 309.831C221.683 310.607 222.425 310.911 222.998 310.438C226.523 307.436 230.571 304.755 235.293 305.75C237.317 306.171 239.695 306.964 241.787 306.694C244.907 306.306 247.538 304.89 249.089 301.871C251.822 296.642 250.81 290.368 244.688 289.07C244.536 289.036 244.418 289.053 244.283 289.103C242.023 288.21 239.965 287.08 238.144 285.106C236.39 283.184 234.754 281.059 232.848 279.288C230.301 276.91 227.535 275.038 224.162 276.64C223.656 276.876 223.69 277.601 224.01 277.989C225.495 279.827 227.232 281.581 229.053 283.268C227.232 282.846 225.393 282.627 223.504 282.779C220.131 283.066 216.151 285.309 216.235 289.323C216.252 289.829 216.606 290.132 217.045 290.183C220.148 290.503 223.268 290.453 226.355 290.773C221.548 292.19 215.645 293.809 215.696 299.577Z" fill="#C4C4C4"/>
<path fill-rule="evenodd" clip-rule="evenodd" d="M229.061 275.844C230.616 276.458 232.02 277.593 233.306 278.794C234.595 279.992 235.785 281.374 236.94 282.715C237.513 283.379 238.076 284.034 238.639 284.651C240.314 286.465 242.204 287.537 244.326 288.395C244.48 288.37 244.645 288.37 244.829 288.411C248.132 289.112 250.111 291.188 250.856 293.813C251.59 296.398 251.113 299.452 249.687 302.182C248.012 305.439 245.158 306.954 241.87 307.364C240.718 307.512 239.517 307.366 238.383 307.144C237.814 307.032 237.249 306.899 236.709 306.77C236.652 306.756 236.595 306.742 236.538 306.729C236.056 306.613 235.596 306.503 235.154 306.41L235.153 306.41C230.775 305.488 226.956 307.953 223.434 310.952L223.43 310.956L223.426 310.959C222.967 311.337 222.373 311.447 221.85 311.223C221.327 310.999 220.995 310.494 220.942 309.894C220.393 304.219 223.623 300.147 227.699 297.52C226.343 297.705 225.022 298.195 223.639 298.78C223.331 298.91 223.02 299.045 222.704 299.182C220.832 299.995 218.814 300.872 216.577 301.108C216.073 301.165 215.669 300.906 215.427 300.629C215.185 300.353 215.02 299.973 215.019 299.581C214.992 296.403 216.633 294.363 218.843 292.973C220.008 292.239 221.351 291.673 222.713 291.198C222.369 291.182 222.022 291.167 221.675 291.152L221.661 291.152C220.115 291.085 218.544 291.016 216.974 290.854L216.97 290.854L216.966 290.853C216.245 290.77 215.589 290.233 215.559 289.345L215.559 289.341L215.559 289.337C215.512 287.074 216.62 285.322 218.156 284.122C219.68 282.932 221.647 282.26 223.446 282.107L223.447 282.107L223.449 282.107C224.64 282.011 225.808 282.057 226.957 282.203C225.718 280.983 224.541 279.723 223.486 278.416C223.215 278.085 223.077 277.64 223.101 277.219C223.126 276.784 223.339 276.28 223.873 276.03C225.743 275.142 227.472 275.217 229.061 275.844ZM224.457 277.246C224.454 277.255 224.45 277.271 224.448 277.296C224.446 277.338 224.452 277.39 224.469 277.443C224.486 277.496 224.509 277.536 224.529 277.56L224.531 277.563L224.534 277.566C225.989 279.369 227.701 281.098 229.51 282.773L231.373 284.498L228.899 283.925C227.125 283.515 225.359 283.307 223.558 283.452C221.984 283.586 220.276 284.178 218.987 285.185C217.712 286.181 216.873 287.555 216.908 289.304C216.912 289.393 216.94 289.429 216.957 289.447C216.981 289.47 217.03 289.502 217.117 289.513C218.644 289.67 220.178 289.737 221.734 289.804L221.739 289.805C223.288 289.872 224.858 289.94 226.423 290.102L229.819 290.455L226.544 291.421C226.46 291.445 226.376 291.47 226.291 291.495C223.934 292.189 221.468 292.915 219.561 294.115C217.632 295.329 216.346 296.982 216.369 299.571L216.369 299.574V299.577C216.369 299.586 216.371 299.611 216.385 299.647C216.399 299.682 216.42 299.715 216.442 299.74C216.451 299.751 216.459 299.758 216.465 299.763C218.466 299.547 220.265 298.768 222.135 297.957C222.459 297.817 222.784 297.676 223.113 297.537C225.313 296.607 227.649 295.775 230.308 296.213L232.371 296.553L230.498 297.483C225.68 299.876 221.718 303.92 222.285 309.766L222.286 309.77L222.286 309.773C222.294 309.864 222.319 309.916 222.337 309.942C222.354 309.968 222.371 309.979 222.381 309.983C222.392 309.988 222.409 309.992 222.435 309.987C222.46 309.983 222.506 309.968 222.565 309.921C226.091 306.918 230.366 304.023 235.43 305.09C235.893 305.186 236.373 305.301 236.852 305.416C236.909 305.43 236.966 305.444 237.023 305.457C237.563 305.587 238.103 305.714 238.643 305.82C239.727 306.032 240.76 306.147 241.699 306.025L241.7 306.025L241.702 306.025C244.652 305.658 247.06 304.341 248.488 301.563L248.489 301.561L248.49 301.559C249.795 299.061 250.178 296.364 249.558 294.181C248.95 292.038 247.363 290.327 244.546 289.73L244.543 289.729L244.54 289.729C244.539 289.728 244.539 289.728 244.539 289.728C244.534 289.73 244.527 289.732 244.518 289.735L244.275 289.827L244.033 289.731C241.718 288.816 239.56 287.638 237.646 285.564L237.645 285.563L237.644 285.561C237.024 284.882 236.432 284.195 235.847 283.515C234.725 282.21 233.625 280.932 232.387 279.782L232.386 279.781C231.125 278.604 229.874 277.615 228.566 277.099C227.294 276.597 225.956 276.536 224.457 277.246Z" fill="#2C2C2C"/>
<path fill-rule="evenodd" clip-rule="evenodd" d="M408.113 316.41C408.113 316.072 408.386 315.799 408.724 315.799H428.848C429.185 315.799 429.458 316.072 429.458 316.41C429.458 316.747 429.185 317.02 428.848 317.02H408.724C408.386 317.02 408.113 316.747 408.113 316.41Z" fill="#2C2C2C"/>
<path fill-rule="evenodd" clip-rule="evenodd" d="M28.6318 316.41C28.6318 316.072 28.9053 315.799 29.2425 315.799H402.016C402.353 315.799 402.627 316.072 402.627 316.41C402.627 316.747 402.353 317.02 402.016 317.02H29.2425C28.9053 317.02 28.6318 316.747 28.6318 316.41Z" fill="#2C2C2C"/>
<path fill-rule="evenodd" clip-rule="evenodd" d="M2.42236 316.41C2.42236 316.072 2.69579 315.799 3.03307 315.799H16.7845C17.1218 315.799 17.3952 316.072 17.3952 316.41C17.3952 316.747 17.1218 317.02 16.7845 317.02H3.03307C2.69579 317.02 2.42236 316.747 2.42236 316.41Z" fill="#2C2C2C"/>
<path d="M123.123 250.441H269.014C270.76 250.441 272.434 251.134 273.668 252.369C274.902 253.603 275.595 255.277 275.595 257.022V338.984H116.542V257.022C116.542 255.277 117.235 253.603 118.47 252.369C119.704 251.134 121.378 250.441 123.123 250.441Z" fill="white"/>
<path fill-rule="evenodd" clip-rule="evenodd" d="M123.123 251.28C121.6 251.28 120.14 251.885 119.063 252.962C117.986 254.039 117.381 255.5 117.381 257.023V338.145H274.756V257.023C274.756 255.5 274.151 254.039 273.075 252.962C271.998 251.885 270.537 251.28 269.014 251.28H123.123ZM117.876 251.776C119.268 250.384 121.155 249.603 123.123 249.603H269.014C270.982 249.603 272.869 250.384 274.261 251.776C275.652 253.167 276.434 255.055 276.434 257.023V338.984C276.434 339.447 276.059 339.823 275.595 339.823H116.542C116.079 339.823 115.703 339.447 115.703 338.984V257.023C115.703 255.055 116.485 253.167 117.876 251.776Z" fill="#2C2C2C"/>
<path d="M275.595 279.898C255.615 284.965 235.108 297.865 196.898 316.028C160.043 333.561 129.875 333.258 116.542 331.902V338.984H275.595V279.898Z" fill="#2C2C2C"/>
<path fill-rule="evenodd" clip-rule="evenodd" d="M276.11 279.236C276.315 279.395 276.434 279.64 276.434 279.898V338.984C276.434 339.447 276.059 339.823 275.595 339.823H116.542C116.079 339.823 115.703 339.447 115.703 338.984V331.903C115.703 331.665 115.804 331.439 115.98 331.28C116.156 331.121 116.391 331.044 116.627 331.068C129.846 332.412 159.853 332.723 196.538 315.271L196.538 315.271C209.123 309.289 219.771 303.885 229.127 299.138C233.972 296.679 238.47 294.397 242.711 292.3C255.118 286.168 265.307 281.642 275.389 279.085C275.64 279.022 275.906 279.077 276.11 279.236ZM197.258 316.787C161.059 334.007 131.259 334.109 117.381 332.827V338.145H274.756V280.984C265.193 283.538 255.412 287.895 243.454 293.804C239.242 295.886 234.757 298.162 229.919 300.617C220.551 305.371 209.859 310.796 197.258 316.787Z" fill="#2C2C2C"/>
<path d="M275.595 334.074H116.542V338.997H275.595V334.074Z" fill="white"/>
<path fill-rule="evenodd" clip-rule="evenodd" d="M115.703 334.075C115.703 333.611 116.079 333.236 116.542 333.236H275.595C276.059 333.236 276.434 333.611 276.434 334.075V338.997C276.434 339.461 276.059 339.836 275.595 339.836H116.542C116.079 339.836 115.703 339.461 115.703 338.997V334.075ZM117.381 334.913V338.159H274.756V334.913H117.381Z" fill="#2C2C2C"/>
<path d="M73.4632 340.429C73.4641 342.04 72.8933 343.6 71.8523 344.83C70.8113 346.06 69.3676 346.881 67.7782 347.146C48.2139 350.447 28.2348 350.447 8.67056 347.146C7.08782 346.874 5.65264 346.05 4.61942 344.82C3.5862 343.591 3.02168 342.035 3.0259 340.429V275.112H73.4954L73.4632 340.429Z" fill="#50BFD7"/>
<path opacity="0.3" d="M2.98779 276.289V285.457C7.22935 287.03 21.1555 288.183 38.2266 288.183C55.2976 288.183 69.248 287.03 73.4654 285.457V276.289H2.98779Z" fill="black"/>
<path d="M74.7864 283.28C74.7864 285.353 58.7878 287.03 38.2252 287.03C17.6625 287.03 1.66394 285.353 1.66394 283.28L0.994629 275.136H75.496L74.7864 283.28Z" fill="#50BFD7"/>
<path d="M38.2252 278.878C58.787 278.878 75.4557 277.203 75.4557 275.136C75.4557 273.07 58.787 271.395 38.2252 271.395C17.6633 271.395 0.994629 273.07 0.994629 275.136C0.994629 277.203 17.6633 278.878 38.2252 278.878Z" fill="#50BFD7"/>
<path opacity="0.3" d="M38.2252 278.878C58.787 278.878 75.4557 277.203 75.4557 275.136C75.4557 273.07 58.787 271.395 38.2252 271.395C17.6633 271.395 0.994629 273.07 0.994629 275.136C0.994629 277.203 17.6633 278.878 38.2252 278.878Z" fill="black"/>
<path opacity="0.2" d="M12.4377 335.832C11.7134 335.83 11.0193 335.541 10.5071 335.029C9.99492 334.517 9.70623 333.823 9.7041 333.098V295.65C9.70623 294.926 9.99492 294.232 10.5071 293.72C11.0193 293.207 11.7134 292.919 12.4377 292.917C13.1614 292.921 13.8543 293.21 14.366 293.722C14.8777 294.234 15.1671 294.926 15.1714 295.65V333.098C15.1671 333.822 14.8777 334.515 14.366 335.027C13.8543 335.538 13.1614 335.828 12.4377 335.832Z" fill="black"/>
<path opacity="0.2" d="M64.0207 335.832C63.2964 335.83 62.6023 335.541 62.0901 335.029C61.5779 334.517 61.2892 333.823 61.2871 333.098V295.65C61.2892 294.926 61.5779 294.232 62.0901 293.72C62.6023 293.207 63.2964 292.919 64.0207 292.917C64.7444 292.921 65.4373 293.21 65.949 293.722C66.4608 294.234 66.7501 294.926 66.7544 295.65V333.098C66.7501 333.822 66.4608 334.515 65.949 335.027C65.4373 335.538 64.7444 335.828 64.0207 335.832Z" fill="black"/>
<path opacity="0.2" d="M46.8225 335.832C46.0988 335.828 45.406 335.538 44.8942 335.027C44.3825 334.515 44.0931 333.822 44.0889 333.098V295.65C44.0931 294.926 44.3825 294.234 44.8942 293.722C45.406 293.21 46.0988 292.921 46.8225 292.917C47.5469 292.919 48.2409 293.207 48.7531 293.72C49.2653 294.232 49.554 294.926 49.5561 295.65V333.098C49.554 333.823 49.2653 334.517 48.7531 335.029C48.2409 335.541 47.5469 335.83 46.8225 335.832Z" fill="black"/>
<path opacity="0.2" d="M29.6291 335.832C28.9054 335.828 28.2126 335.538 27.7008 335.027C27.1891 334.515 26.8997 333.822 26.8955 333.098V295.65C26.8997 294.926 27.1891 294.234 27.7008 293.722C28.2126 293.21 28.9054 292.921 29.6291 292.917C30.3535 292.919 31.0476 293.207 31.5598 293.72C32.0719 294.232 32.3606 294.926 32.3628 295.65V333.098C32.3606 333.823 32.0719 334.517 31.5598 335.029C31.0476 335.541 30.3535 335.83 29.6291 335.832Z" fill="black"/>
<path d="M236.922 39.0898C228.923 29.2527 217.746 23.3198 203.392 23.3198C170.895 23.3198 139.145 53.2903 139.145 90.6482C139.145 128.006 165.479 158.302 197.976 158.302C201.096 158.302 204.119 158.015 207.048 157.498C207.354 159.144 207.526 160.828 207.526 162.57C207.526 162.876 207.507 163.201 207.507 163.508C297.055 141.767 282.395 33.5588 236.922 39.0898Z" fill="#2C2C2C"/>
<path d="M161.556 135.412C168.374 135.412 173.9 129.886 173.9 123.068C173.9 116.251 168.374 110.724 161.556 110.724C154.739 110.724 149.212 116.251 149.212 123.068C149.212 129.886 154.739 135.412 161.556 135.412Z" fill="white"/>
<path fill-rule="evenodd" clip-rule="evenodd" d="M161.556 111.49C155.161 111.49 149.977 116.673 149.977 123.068C149.977 129.463 155.161 134.647 161.556 134.647C167.95 134.647 173.134 129.463 173.134 123.068C173.134 116.673 167.95 111.49 161.556 111.49ZM148.446 123.068C148.446 115.828 154.315 109.958 161.556 109.958C168.796 109.958 174.665 115.828 174.665 123.068C174.665 130.308 168.796 136.178 161.556 136.178C154.315 136.178 148.446 130.308 148.446 123.068Z" fill="#2C2C2C"/>
<path d="M248.482 135.412C255.299 135.412 260.826 129.886 260.826 123.068C260.826 116.251 255.299 110.724 248.482 110.724C241.664 110.724 236.138 116.251 236.138 123.068C236.138 129.886 241.664 135.412 248.482 135.412Z" fill="white"/>
<path fill-rule="evenodd" clip-rule="evenodd" d="M248.482 111.49C242.087 111.49 236.903 116.673 236.903 123.068C236.903 129.463 242.087 134.647 248.482 134.647C254.876 134.647 260.06 129.463 260.06 123.068C260.06 116.673 254.876 111.49 248.482 111.49ZM235.372 123.068C235.372 115.828 241.241 109.958 248.482 109.958C255.722 109.958 261.591 115.828 261.591 123.068C261.591 130.308 255.722 136.178 248.482 136.178C241.241 136.178 235.372 130.308 235.372 123.068Z" fill="#2C2C2C"/>
<path d="M206.186 174.569C232.685 174.569 254.166 144.16 254.166 106.648C254.166 69.1356 232.685 38.7261 206.186 38.7261C179.688 38.7261 158.207 69.1356 158.207 106.648C158.207 144.16 179.688 174.569 206.186 174.569Z" fill="white"/>
<path fill-rule="evenodd" clip-rule="evenodd" d="M172.884 59.0615C164.303 71.2091 158.971 88.0309 158.971 106.648C158.971 125.264 164.303 142.086 172.884 154.234C181.467 166.383 193.252 173.804 206.186 173.804C219.12 173.804 230.905 166.383 239.487 154.234C248.068 142.086 253.4 125.264 253.4 106.648C253.4 88.0309 248.068 71.2091 239.487 59.0615C230.905 46.9119 219.12 39.4915 206.186 39.4915C193.252 39.4915 181.467 46.9119 172.884 59.0615ZM171.634 58.1781C180.416 45.7449 192.621 37.9604 206.186 37.9604C219.75 37.9604 231.955 45.7449 240.738 58.1781C249.522 70.6133 254.931 87.7523 254.931 106.648C254.931 125.543 249.522 142.682 240.738 155.117C231.955 167.55 219.75 175.335 206.186 175.335C192.621 175.335 180.416 167.55 171.634 155.117C162.849 142.682 157.44 125.543 157.44 106.648C157.44 87.7523 162.849 70.6133 171.634 58.1781Z" fill="#2C2C2C"/>
<path d="M151.203 91.5858C151.203 91.5858 192.044 93.5762 205.651 69.0027C205.651 69.0027 235.2 94.5714 263.41 92.581L260.75 81.2894L249.803 59.7015L243.162 51.74L229.555 37.4628L211.297 29.8267L189.383 32.8122L160.159 52.7352L156.504 66.0171L151.203 91.5858Z" fill="#2C2C2C"/>
<path d="M207.354 133.193C207.373 133.308 207.124 133.518 206.569 133.518C206.033 133.537 205.21 133.289 204.483 132.6C204.119 132.255 203.794 131.834 203.545 131.298C203.507 131.222 203.488 131.145 203.449 131.069L203.411 130.954L203.373 130.858L203.315 130.686C203.296 130.609 203.277 130.514 203.239 130.437C203.162 130.15 203.105 129.844 203.086 129.518C202.971 128.255 203.22 126.973 203.526 125.748C204.712 120.849 206.11 117.002 206.626 117.117C207.143 117.251 206.607 121.308 205.421 126.207C205.114 127.413 204.885 128.504 204.885 129.423C204.885 129.652 204.904 129.882 204.923 130.093L204.942 130.169V130.207V130.226V130.246C204.942 130.246 204.923 130.188 204.942 130.207L204.98 130.399L204.999 130.494L205.019 130.552L205.057 130.667C205.172 131.03 205.344 131.375 205.535 131.643C205.918 132.198 206.377 132.542 206.741 132.734C207.086 132.982 207.334 133.059 207.354 133.193Z" fill="#2C2C2C"/>
<path d="M193.708 110.246C193.708 115.7 188.981 120.121 183.163 120.121C177.326 120.121 172.618 115.7 172.618 110.246C172.618 104.792 177.345 100.371 183.163 100.371C188.962 100.371 193.708 104.792 193.708 110.246Z" fill="white"/>
<path fill-rule="evenodd" clip-rule="evenodd" d="M183.163 101.136C177.72 101.136 173.384 105.261 173.384 110.246C173.384 115.232 177.701 119.356 183.163 119.356C188.607 119.356 192.943 115.231 192.943 110.246C192.943 105.262 188.589 101.136 183.163 101.136ZM171.853 110.246C171.853 104.322 176.971 99.605 183.163 99.605C189.336 99.605 194.474 104.321 194.474 110.246C194.474 116.17 189.356 120.887 183.163 120.887C176.951 120.887 171.853 116.169 171.853 110.246Z" fill="#2C2C2C"/>
<path d="M177.977 109.634C177.977 114.131 180.905 117.787 184.503 117.787C188.101 117.787 191.029 114.131 191.029 109.634C191.029 105.136 188.101 101.481 184.503 101.481C180.905 101.462 177.977 105.117 177.977 109.634Z" fill="#50BFD7"/>
<path d="M179.872 109.634C179.872 112.83 181.939 115.414 184.503 115.414C187.068 115.414 189.134 112.83 189.134 109.634C189.134 106.438 187.068 103.835 184.503 103.835C181.939 103.835 179.872 106.419 179.872 109.634Z" fill="#2C2C2C"/>
<path d="M179.583 104.141C179.583 105.021 180.655 105.71 181.976 105.71C183.296 105.71 184.368 105.002 184.368 104.141C184.368 103.26 183.296 102.571 181.976 102.571C180.655 102.552 179.583 103.26 179.583 104.141Z" fill="white"/>
<path d="M196.713 95.146C196.713 95.146 182.474 80.9454 167.163 97.8062C167.163 97.8062 180.407 89.3279 196.713 95.146Z" fill="#2C2C2C"/>
<path d="M239.583 110.246C239.583 115.7 234.856 120.121 229.038 120.121C223.201 120.121 218.493 115.7 218.493 110.246C218.493 104.792 223.22 100.371 229.038 100.371C234.856 100.371 239.583 104.792 239.583 110.246Z" fill="white"/>
<path fill-rule="evenodd" clip-rule="evenodd" d="M229.037 101.136C223.594 101.136 219.258 105.261 219.258 110.246C219.258 115.232 223.575 119.356 229.037 119.356C234.481 119.356 238.817 115.231 238.817 110.246C238.817 105.261 234.481 101.136 229.037 101.136ZM217.727 110.246C217.727 104.322 222.845 99.605 229.037 99.605C235.23 99.605 240.348 104.322 240.348 110.246C240.348 116.17 235.23 120.887 229.037 120.887C222.825 120.887 217.727 116.169 217.727 110.246Z" fill="#2C2C2C"/>
<path d="M223.87 109.634C223.87 114.131 226.798 117.787 230.396 117.787C233.994 117.787 236.922 114.131 236.922 109.634C236.922 105.136 233.994 101.481 230.396 101.481C226.779 101.462 223.87 105.117 223.87 109.634Z" fill="#50BFD7"/>
<path d="M225.745 109.634C225.745 112.83 227.812 115.414 230.377 115.414C232.941 115.414 235.008 112.83 235.008 109.634C235.008 106.438 232.941 103.835 230.377 103.835C227.831 103.835 225.745 106.419 225.745 109.634Z" fill="#2C2C2C"/>
<path d="M225.458 104.141C225.458 105.021 226.53 105.71 227.85 105.71C229.171 105.71 230.243 105.002 230.243 104.141C230.243 103.26 229.171 102.571 227.85 102.571C226.53 102.552 225.458 103.26 225.458 104.141Z" fill="white"/>
<path d="M242.607 93.5952C242.607 93.5952 228.368 79.3946 213.057 96.2554C213.038 96.2554 226.282 87.7772 242.607 93.5952Z" fill="#2C2C2C"/>
<path fill-rule="evenodd" clip-rule="evenodd" d="M157.25 103.05V103.433H155.719V103.05H157.25Z" fill="#2C2C2C"/>
<path fill-rule="evenodd" clip-rule="evenodd" d="M165.288 107.26V107.643H163.757V107.26H165.288Z" fill="#2C2C2C"/>
<path d="M208.808 105.002C211.43 105.557 210.454 107.26 210.454 107.509C210.454 107.758 211.43 121.92 224.081 125.652C236.731 129.384 244.31 122.054 246.511 118.379C248.712 114.705 250.549 105.978 251.085 105.308C251.64 104.638 254.262 103.471 254.262 103.471L254.568 100.045L251.276 99.069C251.276 99.069 242.97 95.2796 230.741 95.1073C218.531 94.916 211.622 101.959 211.622 101.959C208.177 100.868 203.909 100.715 200.005 101.959C200.005 101.959 193.096 94.9351 180.886 95.1073C168.676 95.2987 160.35 99.069 160.35 99.069L157.059 100.045L157.365 103.471C157.365 103.471 159.987 104.638 160.542 105.308C161.097 105.978 162.915 114.724 165.116 118.379C167.317 122.054 174.895 129.384 187.546 125.652C200.196 121.92 201.172 107.758 201.172 107.509C201.172 107.26 200.196 105.557 202.818 105.002C205.115 104.523 206.531 104.523 208.808 105.002ZM239.181 122.724C229.535 128.523 217.976 122.666 214.493 115.03C211.009 107.394 213.938 103.356 213.938 103.356C219.756 93.8634 243.257 93.4615 247.295 103.72C247.984 105.442 248.827 116.925 239.181 122.724ZM164.331 103.72C168.369 93.4423 191.871 93.8634 197.689 103.356C197.689 103.356 200.617 107.394 197.134 115.03C193.651 122.666 182.111 128.523 172.446 122.724C162.819 116.925 163.661 105.442 164.331 103.72Z" fill="#2C2C2C"/>
<ellipse cx="206.5" cy="149.25" rx="7.5" ry="5.25" fill="white"/>
<path fill-rule="evenodd" clip-rule="evenodd" d="M206.525 154.227C210.594 154.227 213.178 151.712 213.178 149.389C213.178 147.066 210.594 144.551 206.525 144.551C202.456 144.551 199.873 147.066 199.873 149.389C199.873 151.712 202.456 154.227 206.525 154.227ZM206.525 155.84C211.09 155.84 214.791 152.952 214.791 149.389C214.791 145.826 211.09 142.938 206.525 142.938C201.96 142.938 198.26 145.826 198.26 149.389C198.26 152.952 201.96 155.84 206.525 155.84Z" fill="#454545"/>
</svg>
