<svg width="468" height="350" viewBox="0 0 468 350" fill="none" xmlns="http://www.w3.org/2000/svg">
<path d="M358.429 99.0007C358.429 99.0007 345.035 47.1277 263.95 14.4138C182.864 -18.3001 110.322 11.9988 93.7839 50.3324C77.2461 88.666 94.5779 109.366 83.5421 142.103C72.5063 174.84 15.8107 216.302 38.6922 266.58C61.5737 316.858 168.645 331.218 255.288 320.845C341.931 310.472 409.623 195.555 358.429 99.0007Z" fill="#50BFD7"/>
<path opacity="0.7" d="M358.429 99.0007C358.429 99.0007 345.035 47.1277 263.95 14.4138C182.864 -18.3001 110.322 11.9988 93.7839 50.3324C77.2461 88.666 94.5779 109.366 83.5421 142.103C72.5063 174.84 15.8107 216.302 38.6922 266.58C61.5737 316.858 168.645 331.218 255.288 320.845C341.931 310.472 409.623 195.555 358.429 99.0007Z" fill="white"/>
<path d="M467.206 234.309C467.206 232.834 467.133 151.631 467.029 26.3442L467.206 26.4974H219.841L220.051 26.2878C220.051 101.652 220.051 172.734 220.051 234.253L219.857 234.068L467.246 234.253L219.857 234.438H219.647V234.253C219.647 172.734 219.647 101.652 219.647 26.2878V26.0781H219.881H467.246H467.424V26.2555C467.311 151.631 467.206 232.834 467.206 234.309Z" fill="#FAFAFA"/>
<path d="M467.237 26.3438H219.848V234.309H467.237V26.3438Z" fill="#FAFAFA"/>
<path d="M309.165 40.7051H220.334V61.0662H309.165V40.7051Z" fill="#EBEBEB"/>
<path d="M242.735 57.1406C242.735 57.1406 242.735 56.8745 242.735 56.3906C242.735 55.9068 242.735 55.1891 242.735 54.3424C242.735 52.5362 242.687 50.0364 242.646 47.0205L242.816 47.1899H228.083L228.293 46.9802V52.2297C228.293 53.9231 228.293 55.544 228.293 57.068L228.099 56.8745L238.671 56.9712L241.719 57.0277H242.525H242.824C242.478 57.0661 242.131 57.0822 241.783 57.0761L238.776 57.1245L228.083 57.2212H227.898V57.1406C227.898 55.6004 227.898 53.9796 227.898 52.3023V49.7058C227.898 49.2703 227.898 48.8268 227.898 48.3833V47.0044C227.712 47.1899 228.156 46.7463 228.115 46.7947H242.848H243.017V46.9641C243.017 50.0283 242.953 52.5603 242.929 54.3908C242.929 55.1972 242.929 55.8907 242.929 56.4068C242.888 56.657 242.823 56.9028 242.735 57.1406Z" fill="#263238"/>
<path d="M242.735 46.9871C242.735 46.9871 242.565 47.2209 242.211 47.5838C241.856 47.9467 241.332 48.4547 240.678 49.0837C239.372 50.3416 237.542 52.0592 235.51 53.9219C234.937 53.9219 235.348 53.9219 235.219 53.9219H235.171L235.074 53.8332L234.889 53.6558L234.51 53.3091L233.784 52.6317L232.405 51.3496L230.058 49.0756C229.405 48.4466 228.881 47.9386 228.518 47.5757C228.318 47.4011 228.141 47.2004 227.994 46.979C227.994 46.979 228.244 47.1241 228.631 47.4548C229.018 47.7854 229.575 48.2611 230.244 48.8579L232.615 50.9867L234.002 52.2527L234.735 52.922L235.114 53.2688L235.3 53.4462L235.397 53.5268L235.445 53.5752H235.187C237.219 51.7044 239.074 50.0191 240.437 48.8175C241.114 48.2208 241.67 47.737 242.049 47.4144C242.256 47.2398 242.487 47.0958 242.735 46.9871Z" fill="#263238"/>
<path d="M232.904 51.4951C232.248 52.5647 231.475 53.5573 230.598 54.4545C229.828 55.4458 228.949 56.3466 227.977 57.1398C228.634 56.0737 229.408 55.0839 230.283 54.1884C231.054 53.1959 231.933 52.2926 232.904 51.4951Z" fill="#263238"/>
<path d="M242.83 57.2284C241.879 56.3816 241.024 55.4324 240.282 54.398C239.429 53.4472 238.683 52.4062 238.056 51.2935C239.008 52.142 239.863 53.094 240.604 54.1319C241.458 55.0791 242.204 56.1176 242.83 57.2284Z" fill="#263238"/>
<path d="M298.962 50.528C298.962 50.649 288.56 50.7377 275.739 50.7377C262.917 50.7377 252.523 50.649 252.523 50.528C252.523 50.4071 262.917 50.3184 275.739 50.3184C288.56 50.3184 298.962 50.4151 298.962 50.528Z" fill="#263238"/>
<path d="M467.24 131.15H308.036V166.034H467.24V131.15Z" fill="#50BFD7"/>
<g opacity="0.8">
<path opacity="0.8" d="M467.238 131.15H308.034V166.034H467.238V131.15Z" fill="white"/>
</g>
<path d="M329.534 142.051H320.091C319.089 142.051 318.277 142.864 318.277 143.866V153.308C318.277 154.31 319.089 155.123 320.091 155.123H329.534C330.536 155.123 331.348 154.31 331.348 153.308V143.866C331.348 142.864 330.536 142.051 329.534 142.051Z" fill="#50BFD7"/>
<path d="M323.823 151.485C323.649 151.485 323.479 151.429 323.339 151.324L320.702 149.34C320.607 149.281 320.526 149.203 320.463 149.11C320.399 149.018 320.356 148.913 320.336 148.803C320.315 148.693 320.318 148.58 320.344 148.471C320.369 148.362 320.418 148.26 320.485 148.17C320.552 148.081 320.638 148.007 320.736 147.952C320.833 147.897 320.941 147.864 321.053 147.853C321.164 147.843 321.277 147.855 321.383 147.891C321.489 147.926 321.587 147.983 321.67 148.058L323.726 149.599L327.855 145.115C328 144.958 328.202 144.865 328.416 144.857C328.63 144.848 328.839 144.925 328.996 145.071C329.153 145.216 329.246 145.418 329.254 145.632C329.263 145.846 329.186 146.055 329.04 146.212L324.42 151.227C324.344 151.309 324.251 151.375 324.149 151.419C324.046 151.464 323.935 151.486 323.823 151.485Z" fill="white"/>
<path d="M467.24 96.0874H308.036V130.971H467.24V96.0874Z" fill="#50BFD7"/>
<path d="M466.279 131.1C466.279 131.221 431.104 131.31 387.721 131.31C344.338 131.31 309.164 131.221 309.164 131.1C309.164 130.979 344.33 130.891 387.721 130.891C431.112 130.891 466.279 130.987 466.279 131.1Z" fill="#263238"/>
<path d="M467.327 200.885H308.124V234.31H467.327V200.885Z" fill="#50BFD7"/>
<g opacity="0.8">
<path opacity="0.8" d="M467.327 200.886H308.123V234.31H467.327V200.886Z" fill="white"/>
</g>
<path d="M329.613 211.795H320.171C319.169 211.795 318.356 212.607 318.356 213.609V223.052C318.356 224.054 319.169 224.866 320.171 224.866H329.613C330.616 224.866 331.428 224.054 331.428 223.052V213.609C331.428 212.607 330.616 211.795 329.613 211.795Z" fill="#50BFD7"/>
<path d="M323.903 221.238C323.729 221.238 323.559 221.181 323.419 221.076L320.783 219.093C320.611 218.964 320.498 218.773 320.468 218.562C320.438 218.35 320.493 218.135 320.621 217.964C320.75 217.793 320.941 217.68 321.152 217.649C321.364 217.619 321.579 217.674 321.75 217.802L323.806 219.351L327.935 214.867C328.004 214.781 328.09 214.711 328.188 214.659C328.286 214.608 328.393 214.577 328.503 214.569C328.613 214.561 328.723 214.575 328.827 214.611C328.932 214.648 329.027 214.705 329.108 214.779C329.19 214.854 329.255 214.944 329.3 215.045C329.344 215.146 329.368 215.255 329.369 215.365C329.37 215.475 329.349 215.585 329.306 215.686C329.263 215.788 329.2 215.88 329.12 215.956L324.476 220.98C324.402 221.059 324.314 221.122 324.216 221.167C324.117 221.211 324.011 221.235 323.903 221.238Z" fill="white"/>
<g opacity="0.8">
<path opacity="0.8" d="M467.238 96.0874H308.034V130.971H467.238V96.0874Z" fill="white"/>
</g>
<path d="M329.534 106.99H320.091C319.089 106.99 318.277 107.803 318.277 108.805V118.247C318.277 119.249 319.089 120.062 320.091 120.062H329.534C330.536 120.062 331.348 119.249 331.348 118.247V108.805C331.348 107.803 330.536 106.99 329.534 106.99Z" fill="#50BFD7"/>
<path d="M323.823 116.433C323.649 116.433 323.479 116.377 323.339 116.272L320.702 114.288C320.607 114.229 320.526 114.151 320.463 114.058C320.399 113.966 320.356 113.861 320.336 113.751C320.315 113.641 320.318 113.528 320.344 113.419C320.369 113.31 320.418 113.208 320.485 113.118C320.552 113.029 320.638 112.954 320.736 112.9C320.833 112.845 320.941 112.812 321.053 112.801C321.164 112.791 321.277 112.803 321.383 112.839C321.489 112.874 321.587 112.931 321.67 113.006L323.726 114.546L327.855 110.063C327.999 109.906 328.2 109.813 328.413 109.804C328.626 109.795 328.834 109.871 328.992 110.015C329.071 110.086 329.135 110.173 329.18 110.269C329.225 110.366 329.25 110.471 329.255 110.577C329.259 110.683 329.243 110.79 329.206 110.89C329.169 110.99 329.113 111.081 329.04 111.16L324.42 116.175C324.344 116.257 324.251 116.323 324.149 116.367C324.046 116.412 323.935 116.434 323.823 116.433Z" fill="white"/>
<path d="M467.206 234.309C467.206 232.834 467.133 151.631 467.029 26.3442L467.206 26.4974H219.841L220.051 26.2878C220.051 101.652 220.051 172.734 220.051 234.253L219.857 234.068L467.246 234.253L219.857 234.438H219.647V234.253C219.647 172.734 219.647 101.652 219.647 26.2878V26.0781H219.881H467.246H467.424V26.2555C467.311 151.631 467.206 232.834 467.206 234.309Z" fill="#50BFD7"/>
<path d="M220.334 40.7058C220.334 40.5848 275.498 40.4961 343.541 40.4961C411.583 40.4961 466.764 40.5848 466.764 40.7058C466.764 40.8267 411.607 40.9154 343.541 40.9154C275.474 40.9154 220.334 40.8186 220.334 40.7058Z" fill="#50BFD7"/>
<path d="M227.864 35.9002C229.325 35.9002 230.509 34.716 230.509 33.2553C230.509 31.7945 229.325 30.6104 227.864 30.6104C226.403 30.6104 225.219 31.7945 225.219 33.2553C225.219 34.716 226.403 35.9002 227.864 35.9002Z" fill="#50BFD7"/>
<path d="M235.219 35.9002C236.679 35.9002 237.864 34.716 237.864 33.2553C237.864 31.7945 236.679 30.6104 235.219 30.6104C233.758 30.6104 232.574 31.7945 232.574 33.2553C232.574 34.716 233.758 35.9002 235.219 35.9002Z" fill="#50BFD7"/>
<path d="M245.25 31.3846C245.62 31.7546 245.872 32.2259 245.974 32.7389C246.075 33.2519 246.023 33.7836 245.823 34.2668C245.623 34.75 245.283 35.163 244.849 35.4536C244.414 35.7441 243.902 35.8992 243.379 35.8992C242.856 35.8992 242.345 35.7441 241.91 35.4536C241.475 35.163 241.136 34.75 240.936 34.2668C240.736 33.7836 240.683 33.2519 240.785 32.7389C240.887 32.2259 241.139 31.7546 241.508 31.3846C241.754 31.1388 242.046 30.9439 242.367 30.8109C242.688 30.6778 243.032 30.6094 243.379 30.6094C243.727 30.6094 244.071 30.6778 244.392 30.8109C244.713 30.9439 245.004 31.1388 245.25 31.3846Z" fill="#50BFD7"/>
<path d="M252.71 69.2355C252.9 69.212 253.092 69.212 253.282 69.2355L254.96 69.1871L261.104 69.1064H261.185L261.233 69.171L263.943 72.7352L263.983 72.7916V72.8561C263.983 74.4689 263.983 76.259 263.983 78.1137V78.3234H261.306H250.242H250.065V78.1056C250.065 76.2832 250.065 74.6624 250.113 73.2674L252 70.308C252.212 69.9344 252.449 69.5761 252.71 69.2355C252.675 69.3434 252.626 69.4464 252.565 69.5419L252.105 70.3483L250.363 73.3238V73.2512C250.363 74.6221 250.363 76.2429 250.404 78.0895L250.226 77.9121H261.29H263.765L263.556 78.1218C263.556 76.2671 263.556 74.4931 263.556 72.8642L263.596 72.9771L260.935 69.3887L261.072 69.4532L254.992 69.3726H253.299C253.099 69.3445 252.902 69.2987 252.71 69.2355Z" fill="#263238"/>
<path d="M263.796 73.0894C263.414 73.1921 263.022 73.2463 262.627 73.2507C261.885 73.3152 260.82 73.3878 259.554 73.4684L259.724 73.291C259.693 73.9649 259.472 74.6163 259.087 75.1699C258.876 75.4739 258.601 75.7274 258.28 75.9117C257.926 76.0757 257.542 76.1662 257.151 76.1779C256.736 76.195 256.321 76.1201 255.938 75.9584C255.555 75.7967 255.212 75.5522 254.934 75.2424C254.471 74.6888 254.16 74.0248 254.031 73.3152L254.208 73.4604C253.031 73.4604 252.047 73.42 251.362 73.3878C251 73.3948 250.64 73.3542 250.289 73.2668C250.641 73.1907 251.001 73.1582 251.362 73.1701C252.047 73.1701 253.031 73.1136 254.208 73.0894H254.321V73.2426C254.458 73.8735 254.749 74.4608 255.168 74.9522C255.406 75.2188 255.7 75.4294 256.029 75.5688C256.358 75.7082 256.714 75.773 257.071 75.7585C257.4 75.7573 257.725 75.6829 258.022 75.5408C258.302 75.3962 258.545 75.1893 258.732 74.936C259.074 74.4478 259.28 73.8772 259.329 73.283V73.1136H259.482C260.756 73.0733 261.82 73.0491 262.57 73.041C262.979 73.0051 263.391 73.0214 263.796 73.0894Z" fill="#263238"/>
<path d="M294.109 69.6784C294.334 69.6277 294.565 69.606 294.795 69.6139V69.7429C293.182 69.8236 288.191 69.8881 282.336 69.8881C278.708 69.8881 275.418 69.8881 273.039 69.8236L270.225 69.759C269.879 69.7706 269.532 69.7436 269.192 69.6784C269.532 69.6132 269.879 69.5862 270.225 69.5978L273.039 69.5333C275.418 69.4929 278.683 69.4688 282.336 69.4688C288.191 69.4688 293.15 69.5333 294.795 69.6139V69.7429C294.565 69.7562 294.333 69.7345 294.109 69.6784Z" fill="#263238"/>
<path d="M294.109 74.9616C294.333 74.9056 294.565 74.8838 294.795 74.8971V75.0261C293.182 75.1068 288.191 75.1713 282.336 75.1713C278.708 75.1713 275.418 75.1713 273.039 75.1068L270.225 75.0423C269.879 75.0487 269.533 75.0217 269.192 74.9616C269.532 74.8956 269.878 74.8659 270.225 74.8729L273.039 74.8084C275.418 74.8084 278.683 74.752 282.336 74.752C288.191 74.752 293.15 74.8084 294.795 74.8971V75.0261C294.565 75.0287 294.335 75.0071 294.109 74.9616Z" fill="#263238"/>
<path d="M294.109 80.2341C294.334 80.1833 294.565 80.1617 294.795 80.1696V80.2986C293.182 80.3873 288.191 80.4437 282.336 80.4437C278.708 80.4437 275.418 80.4437 273.039 80.3873L270.225 80.3147C269.879 80.3263 269.532 80.2993 269.192 80.2341C269.533 80.174 269.879 80.147 270.225 80.1534L273.039 80.0889C275.418 80.0486 278.683 80.0244 282.336 80.0244C288.191 80.0244 293.15 80.0889 294.795 80.1696V80.2986C294.565 80.3119 294.333 80.2901 294.109 80.2341Z" fill="#263238"/>
<path d="M252.71 107.03C252.898 106.992 253.09 106.976 253.282 106.982L254.96 106.941L261.104 106.861H261.185L261.233 106.925L263.943 110.49L263.983 110.546V110.61C263.983 112.223 263.983 114.013 263.983 115.868V116.078H261.306H250.242H250.065V115.9C250.065 114.078 250.065 112.457 250.113 111.062V111.022L252 108.062C252.207 107.714 252.436 107.38 252.686 107.062C252.651 107.17 252.602 107.273 252.541 107.369L252.081 108.175L250.371 111.167V111.094C250.371 112.465 250.371 114.086 250.412 115.933L250.234 115.755H261.298H263.773L263.564 115.965C263.564 114.11 263.564 112.336 263.564 110.707L263.604 110.82L260.943 107.232L261.08 107.296L255 107.216H253.307C253.102 107.172 252.903 107.11 252.71 107.03Z" fill="#263238"/>
<path d="M263.796 110.86C263.414 110.963 263.022 111.017 262.627 111.022C261.885 111.086 260.82 111.159 259.554 111.239L259.724 111.062C259.693 111.736 259.472 112.387 259.087 112.941C258.876 113.245 258.601 113.498 258.28 113.683C257.926 113.847 257.542 113.937 257.151 113.949C256.736 113.966 256.321 113.891 255.938 113.729C255.555 113.568 255.212 113.323 254.934 113.014C254.471 112.46 254.16 111.796 254.031 111.086L254.208 111.231C253.031 111.231 252.047 111.191 251.362 111.159C251.001 111.171 250.64 111.136 250.289 111.054C250.641 110.977 251.001 110.942 251.362 110.949L254.208 110.877H254.321V111.03C254.458 111.661 254.749 112.248 255.168 112.739C255.406 113.006 255.7 113.217 256.029 113.356C256.358 113.495 256.714 113.56 257.071 113.546C257.4 113.544 257.725 113.47 258.022 113.328C258.302 113.183 258.545 112.976 258.732 112.723C259.074 112.235 259.28 111.664 259.329 111.07V110.901H259.482C260.756 110.901 261.82 110.836 262.57 110.828C262.978 110.787 263.39 110.798 263.796 110.86Z" fill="#263238"/>
<path d="M294.109 107.449C294.334 107.399 294.565 107.377 294.795 107.385V107.514C293.182 107.595 288.191 107.659 282.336 107.659C278.708 107.659 275.418 107.659 273.039 107.595L270.225 107.53C269.879 107.542 269.532 107.515 269.192 107.449C269.532 107.384 269.879 107.357 270.225 107.369L273.039 107.304C275.418 107.264 278.683 107.24 282.336 107.24C288.191 107.24 293.15 107.304 294.795 107.385V107.514C294.565 107.522 294.334 107.5 294.109 107.449Z" fill="#263238"/>
<path d="M294.109 112.731C294.333 112.675 294.565 112.653 294.795 112.667V112.78C293.182 112.86 288.191 112.925 282.336 112.925C278.708 112.925 275.418 112.925 273.039 112.86L270.225 112.796C269.879 112.802 269.533 112.775 269.192 112.715C269.532 112.649 269.878 112.619 270.225 112.626L273.039 112.562C275.418 112.521 278.683 112.505 282.336 112.505C288.191 112.505 293.15 112.562 294.795 112.651V112.78C294.565 112.787 294.336 112.771 294.109 112.731Z" fill="#263238"/>
<path d="M294.109 118.006C294.334 117.955 294.565 117.933 294.795 117.941V118.07C293.182 118.159 288.191 118.215 282.336 118.215C278.708 118.215 275.418 118.215 273.039 118.159L270.225 118.086C269.879 118.098 269.532 118.071 269.192 118.006C269.533 117.945 269.879 117.918 270.225 117.925L273.039 117.86C275.418 117.82 278.683 117.796 282.336 117.796C288.191 117.796 293.15 117.86 294.795 117.941V118.07C294.565 118.083 294.333 118.062 294.109 118.006Z" fill="#263238"/>
<path d="M252.71 144.801C252.898 144.763 253.09 144.747 253.282 144.753L254.96 144.712L261.104 144.632H261.185L261.233 144.696L263.943 148.261L263.983 148.317V148.381C263.983 149.994 263.983 151.784 263.983 153.639V153.849H261.306H250.242H250.065V153.671C250.065 151.849 250.065 150.228 250.113 148.833L252 145.874C252.207 145.526 252.436 145.192 252.686 144.874C252.651 144.982 252.602 145.085 252.541 145.18L252.081 145.987L250.339 148.962V148.89C250.339 150.26 250.339 151.881 250.379 153.728L250.202 153.55H261.266H263.741L263.531 153.76C263.531 151.905 263.531 150.131 263.531 148.502L263.572 148.615L260.911 145.027L261.048 145.091L254.968 145.011H253.274C253.08 144.958 252.891 144.888 252.71 144.801Z" fill="#263238"/>
<path d="M263.796 148.632C263.414 148.735 263.022 148.789 262.627 148.793C261.885 148.858 260.82 148.93 259.554 149.011L259.724 148.834C259.693 149.507 259.472 150.159 259.087 150.712C258.876 151.016 258.601 151.27 258.28 151.454C257.927 151.619 257.542 151.707 257.151 151.712C256.736 151.733 256.321 151.66 255.938 151.5C255.554 151.339 255.211 151.095 254.934 150.785C254.471 150.231 254.16 149.567 254.031 148.858L254.208 149.003C253.031 149.003 252.047 149.003 251.362 148.93C251.001 148.943 250.64 148.907 250.289 148.826C250.641 148.749 251.001 148.713 251.362 148.721L254.208 148.648H254.321V148.801C254.458 149.432 254.749 150.019 255.168 150.511C255.406 150.777 255.7 150.988 256.029 151.128C256.358 151.267 256.714 151.332 257.071 151.317C257.4 151.316 257.725 151.242 258.022 151.1C258.302 150.955 258.545 150.748 258.732 150.495C259.074 150.007 259.28 149.436 259.329 148.842V148.672H259.482C260.756 148.624 261.82 148.608 262.57 148.6C262.978 148.558 263.39 148.569 263.796 148.632Z" fill="#263238"/>
<path d="M294.109 145.22C294.334 145.169 294.565 145.147 294.795 145.155V145.284C293.182 145.365 288.191 145.43 282.336 145.43C278.708 145.43 275.418 145.43 273.039 145.365L270.225 145.301C269.879 145.312 269.532 145.285 269.192 145.22C269.532 145.155 269.879 145.128 270.225 145.139L273.039 145.075C275.418 145.034 278.683 145.01 282.336 145.01C288.191 145.01 293.15 145.075 294.795 145.155V145.284C294.565 145.292 294.334 145.271 294.109 145.22Z" fill="#263238"/>
<path d="M294.109 150.503C294.333 150.447 294.565 150.425 294.795 150.439V150.568C293.182 150.648 288.191 150.713 282.336 150.713C278.708 150.713 275.418 150.713 273.039 150.648L270.225 150.584C269.879 150.59 269.533 150.563 269.192 150.503C269.532 150.437 269.878 150.407 270.225 150.414L273.039 150.35C275.418 150.31 278.683 150.293 282.336 150.293C288.191 150.293 293.15 150.35 294.795 150.439V150.568C294.565 150.57 294.335 150.549 294.109 150.503Z" fill="#263238"/>
<path d="M294.109 155.777C294.334 155.726 294.565 155.704 294.795 155.712V155.841C293.182 155.93 288.191 155.986 282.336 155.986C278.708 155.986 275.418 155.986 273.039 155.93L270.225 155.857C269.879 155.869 269.532 155.842 269.192 155.777C269.533 155.717 269.879 155.689 270.225 155.696L273.039 155.631C275.418 155.631 278.683 155.567 282.336 155.567C288.191 155.567 293.15 155.631 294.795 155.712V155.841C294.565 155.854 294.333 155.833 294.109 155.777Z" fill="#263238"/>
<path d="M454.4 120.48H448.255C447.934 120.486 447.615 120.427 447.317 120.308C447.019 120.189 446.748 120.011 446.519 119.786C446.29 119.561 446.108 119.293 445.984 118.996C445.86 118.7 445.796 118.382 445.796 118.061V107.82H446.602V118.029C446.602 118.244 446.645 118.457 446.729 118.656C446.812 118.854 446.935 119.034 447.089 119.184C447.243 119.334 447.425 119.452 447.626 119.531C447.826 119.609 448.04 119.647 448.255 119.642H454.4C454.828 119.642 455.238 119.472 455.54 119.169C455.843 118.867 456.013 118.457 456.013 118.029V108.175H456.819V118.029C456.823 118.349 456.764 118.668 456.644 118.965C456.525 119.262 456.347 119.532 456.122 119.761C455.897 119.989 455.629 120.17 455.333 120.293C455.038 120.417 454.72 120.48 454.4 120.48Z" fill="#50BFD7"/>
<path d="M457.869 107.877H444.789V108.684H457.869V107.877Z" fill="#50BFD7"/>
<path d="M448.95 108.279H448.144V107.384C448.144 106.957 448.313 106.546 448.616 106.244C448.918 105.941 449.329 105.771 449.756 105.771H452.982C453.41 105.771 453.82 105.941 454.122 106.244C454.425 106.546 454.595 106.957 454.595 107.384V108.102H453.788V107.384C453.788 107.17 453.703 106.965 453.552 106.814C453.401 106.663 453.196 106.578 452.982 106.578H449.756C449.542 106.578 449.337 106.663 449.186 106.814C449.035 106.965 448.95 107.17 448.95 107.384V108.279Z" fill="#50BFD7"/>
<path d="M449.465 117.466C449.258 116.322 449.187 115.158 449.255 113.998C449.187 112.841 449.258 111.68 449.465 110.539C449.676 111.679 449.746 112.841 449.674 113.998C449.747 115.158 449.676 116.323 449.465 117.466Z" fill="#50BFD7"/>
<path d="M451.361 117.466C451.154 116.322 451.083 115.158 451.151 113.998C451.083 112.841 451.154 111.68 451.361 110.539C451.572 111.679 451.642 112.841 451.57 113.998C451.643 115.158 451.572 116.323 451.361 117.466Z" fill="#50BFD7"/>
<path d="M453.271 117.466C453.064 116.322 452.993 115.158 453.061 113.998C452.994 112.841 453.064 111.68 453.271 110.539C453.482 111.679 453.553 112.841 453.48 113.998C453.553 115.158 453.482 116.323 453.271 117.466Z" fill="#50BFD7"/>
<path d="M454.4 153.542H448.255C447.604 153.54 446.979 153.28 446.519 152.82C446.058 152.359 445.798 151.734 445.796 151.083V140.874H446.602V151.083C446.602 151.521 446.776 151.942 447.086 152.252C447.396 152.562 447.817 152.736 448.255 152.736H454.4C454.831 152.725 455.242 152.547 455.543 152.238C455.844 151.929 456.013 151.514 456.013 151.083V141.229H456.819V151.083C456.824 151.404 456.766 151.723 456.647 152.021C456.527 152.319 456.35 152.591 456.125 152.82C455.9 153.048 455.631 153.23 455.335 153.354C455.039 153.478 454.721 153.542 454.4 153.542Z" fill="#50BFD7"/>
<path d="M457.869 140.93H444.789V141.737H457.869V140.93Z" fill="#50BFD7"/>
<path d="M448.95 141.334H448.144V140.438C448.144 140.011 448.313 139.6 448.616 139.298C448.918 138.996 449.329 138.826 449.756 138.826H452.982C453.41 138.826 453.82 138.996 454.122 139.298C454.425 139.6 454.595 140.011 454.595 140.438V141.156H453.788V140.438C453.788 140.225 453.703 140.019 453.552 139.868C453.401 139.717 453.196 139.632 452.982 139.632H449.756C449.542 139.632 449.337 139.717 449.186 139.868C449.035 140.019 448.95 140.225 448.95 140.438V141.334Z" fill="#50BFD7"/>
<path d="M449.467 150.52C449.187 148.219 449.187 145.893 449.467 143.593C449.746 145.893 449.746 148.219 449.467 150.52Z" fill="#50BFD7"/>
<path d="M451.36 150.52C451.081 148.219 451.081 145.893 451.36 143.593C451.64 145.893 451.64 148.219 451.36 150.52Z" fill="#50BFD7"/>
<path d="M453.274 150.52C452.994 148.219 452.994 145.893 453.274 143.593C453.553 145.893 453.553 148.219 453.274 150.52Z" fill="#50BFD7"/>
<path d="M454.4 226.206H448.255C447.934 226.211 447.615 226.152 447.317 226.033C447.019 225.914 446.748 225.737 446.519 225.511C446.29 225.286 446.108 225.018 445.984 224.722C445.86 224.425 445.796 224.108 445.796 223.786V213.578H446.602V223.786C446.602 224.002 446.645 224.215 446.729 224.413C446.812 224.611 446.935 224.791 447.089 224.941C447.243 225.092 447.425 225.21 447.626 225.288C447.826 225.367 448.04 225.405 448.255 225.399H454.4C454.828 225.399 455.238 225.229 455.54 224.927C455.843 224.624 456.013 224.214 456.013 223.786V213.9H456.819V223.754C456.823 224.075 456.764 224.393 456.644 224.69C456.525 224.987 456.347 225.258 456.122 225.486C455.897 225.714 455.629 225.895 455.333 226.018C455.038 226.142 454.72 226.206 454.4 226.206Z" fill="#50BFD7"/>
<path d="M457.869 213.602H444.789V214.408H457.869V213.602Z" fill="#50BFD7"/>
<path d="M448.95 214.005H448.144V213.102C448.144 212.674 448.313 212.264 448.616 211.961C448.918 211.659 449.329 211.489 449.756 211.489H452.982C453.41 211.489 453.82 211.659 454.122 211.961C454.425 212.264 454.595 212.674 454.595 213.102V213.827H453.788V213.102C453.788 212.888 453.703 212.683 453.552 212.531C453.401 212.38 453.196 212.295 452.982 212.295H449.756C449.542 212.295 449.337 212.38 449.186 212.531C449.035 212.683 448.95 212.888 448.95 213.102V214.005Z" fill="#50BFD7"/>
<path d="M449.467 223.189C449.187 220.889 449.187 218.563 449.467 216.262C449.746 218.563 449.746 220.889 449.467 223.189Z" fill="#50BFD7"/>
<path d="M451.36 223.189C451.081 220.889 451.081 218.563 451.36 216.262C451.64 218.563 451.64 220.889 451.36 223.189Z" fill="#50BFD7"/>
<path d="M453.274 223.189C452.994 220.889 452.994 218.563 453.274 216.262C453.553 218.563 453.553 220.889 453.274 223.189Z" fill="#50BFD7"/>
<path d="M466.28 61.0671C466.28 61.18 431.105 61.2767 387.722 61.2767C344.339 61.2767 309.157 61.1719 309.157 61.0671C309.157 60.9623 344.323 60.8574 387.714 60.8574C431.106 60.8574 466.28 60.9542 466.28 61.0671Z" fill="#263238"/>
<path d="M466.28 96.0876C466.28 96.2005 431.105 96.2973 387.722 96.2973C344.339 96.2973 309.157 96.2005 309.157 96.0876C309.157 95.9747 344.323 95.8779 387.714 95.8779C431.106 95.8779 466.28 95.9666 466.28 96.0876Z" fill="#263238"/>
<path d="M466.28 165.404C466.28 165.517 431.105 165.614 387.722 165.614C344.339 165.614 309.157 165.517 309.157 165.404C309.157 165.291 344.323 165.194 387.714 165.194C431.106 165.194 466.28 165.283 466.28 165.404Z" fill="#263238"/>
<path d="M466.279 200.886C466.279 201.007 431.104 201.096 387.721 201.096C344.338 201.096 309.164 201.007 309.164 200.886C309.164 200.765 344.33 200.676 387.721 200.676C431.112 200.676 466.279 200.773 466.279 200.886Z" fill="#263238"/>
<path d="M329.541 85.3633C329.541 85.3633 329.718 85.3633 330.025 85.2504C330.469 85.1095 330.839 84.7996 331.057 84.3876C331.371 83.8635 331.21 83.0813 331.234 82.1943C331.258 81.3072 331.234 80.2993 331.234 79.1945C331.234 78.0898 331.234 76.856 331.234 75.5577C331.234 75.2271 331.234 74.8965 331.234 74.5578C331.262 74.2357 331.235 73.9112 331.154 73.5983C331.052 73.2903 330.86 73.0202 330.602 72.8232C330.345 72.6261 330.034 72.5112 329.71 72.4935H320.09C319.716 72.4964 319.355 72.6291 319.068 72.8688C318.781 73.1086 318.587 73.4405 318.518 73.8079C318.461 74.5498 318.518 75.4207 318.518 76.227C318.518 77.8398 318.518 79.3719 318.518 80.8476C318.518 81.5814 318.518 82.2991 318.518 83.0006C318.496 83.3267 318.512 83.6541 318.566 83.9764C318.635 84.2815 318.789 84.5611 319.01 84.7827C319.222 84.985 319.483 85.1293 319.768 85.2021C320.058 85.2514 320.353 85.2676 320.647 85.2504H322.396L327.662 85.3149L329.097 85.3553C329.265 85.3513 329.433 85.3648 329.597 85.3956C329.431 85.4182 329.263 85.4182 329.097 85.3956L327.662 85.4359L322.396 85.5085H320.647C320.326 85.5313 320.004 85.515 319.687 85.4601C319.335 85.3806 319.011 85.2052 318.752 84.9533C318.493 84.7015 318.309 84.3829 318.219 84.0328C318.151 83.6824 318.129 83.3245 318.155 82.9684C318.155 82.2668 318.155 81.5492 318.155 80.8153C318.155 79.3397 318.155 77.7995 318.155 76.1948V74.9852C318.127 74.5637 318.127 74.1408 318.155 73.7192C318.249 73.2632 318.498 72.8538 318.86 72.56C319.221 72.2662 319.673 72.106 320.139 72.1064H329.718C330.115 72.1342 330.495 72.2793 330.81 72.5234C331.124 72.7675 331.359 73.0995 331.484 73.4773C331.577 73.8294 331.61 74.1948 331.581 74.5578C331.581 74.8965 331.581 75.2271 331.581 75.5577C331.581 76.856 331.581 78.0737 331.581 79.1945C331.581 80.3154 331.581 81.3072 331.581 82.1943C331.581 82.6378 331.581 83.049 331.581 83.428C331.591 83.7908 331.505 84.1498 331.331 84.4682C331.077 84.8995 330.662 85.2125 330.178 85.3391C329.972 85.406 329.751 85.4144 329.541 85.3633Z" fill="#263238"/>
<path d="M329.541 190.007C329.541 190.007 329.718 190.007 330.025 189.894C330.469 189.753 330.839 189.443 331.057 189.031C331.371 188.507 331.21 187.725 331.234 186.838C331.258 185.951 331.234 184.943 331.234 183.838C331.234 182.733 331.234 181.5 331.234 180.201C331.234 179.871 331.234 179.54 331.234 179.201C331.262 178.879 331.235 178.555 331.154 178.242C331.052 177.934 330.86 177.664 330.602 177.467C330.345 177.27 330.034 177.155 329.71 177.137H320.09C319.717 177.14 319.357 177.271 319.07 177.509C318.784 177.747 318.589 178.078 318.518 178.443C318.461 179.193 318.518 180.056 318.518 180.863C318.518 182.475 318.518 184.007 318.518 185.483C318.518 186.217 318.518 186.935 318.518 187.628C318.496 187.957 318.512 188.287 318.566 188.612C318.632 188.918 318.787 189.198 319.01 189.418C319.219 189.625 319.481 189.77 319.768 189.838C320.057 189.894 320.352 189.913 320.647 189.894H322.396L327.662 189.959L329.097 189.999C329.264 189.982 329.431 189.982 329.597 189.999C329.433 190.035 329.265 190.049 329.097 190.039L327.662 190.079L322.396 190.144H320.647C320.326 190.167 320.004 190.151 319.687 190.096C319.335 190.016 319.011 189.841 318.752 189.589C318.493 189.337 318.309 189.018 318.219 188.668C318.15 188.315 318.128 187.955 318.155 187.596C318.155 186.902 318.155 186.185 318.155 185.451C318.155 183.975 318.155 182.435 318.155 180.83V179.621C318.127 179.199 318.127 178.776 318.155 178.355C318.241 177.891 318.487 177.473 318.849 177.171C319.211 176.869 319.667 176.703 320.139 176.702H329.718C330.115 176.729 330.495 176.874 330.81 177.119C331.124 177.363 331.359 177.695 331.484 178.073C331.577 178.425 331.61 178.79 331.581 179.153C331.581 179.492 331.581 179.822 331.581 180.153C331.581 181.451 331.581 182.669 331.581 183.79C331.581 184.911 331.581 185.902 331.581 186.789C331.581 187.233 331.581 187.644 331.581 188.023C331.591 188.386 331.505 188.745 331.331 189.063C331.206 189.277 331.04 189.464 330.842 189.612C330.644 189.76 330.418 189.867 330.178 189.926C329.976 190.007 329.757 190.035 329.541 190.007Z" fill="#263238"/>
<path d="M307.995 231.318C307.995 231.318 307.995 231.149 307.995 230.826C307.995 230.504 307.995 230.02 307.995 229.383C307.995 228.092 307.995 226.222 307.995 223.827C307.995 218.988 307.995 212.013 307.995 203.401C307.995 186.161 308.204 162.34 308.446 136.028C308.688 109.716 308.874 85.9036 309.027 68.6471C309.083 60.0349 309.124 53.0598 309.156 48.2215C309.156 45.8023 309.156 43.9557 309.204 42.6736C309.204 42.0446 309.204 41.5688 309.204 41.2302C309.204 40.8915 309.204 40.7383 309.204 40.7383C309.204 40.7383 309.204 40.8996 309.204 41.2302C309.204 41.5608 309.204 42.0365 309.204 42.6736C309.204 43.9557 309.204 45.8265 309.204 48.2215C309.204 53.0598 309.204 60.0349 309.204 68.6471C309.164 85.8875 308.995 109.716 308.745 136.028C308.495 162.34 308.317 186.145 308.172 203.401C308.116 212.013 308.075 218.988 308.043 223.827C308.043 226.246 308.043 228.092 307.995 229.383C307.995 230.004 307.995 230.479 307.995 230.826C307.995 231.173 307.995 231.318 307.995 231.318Z" fill="#263238"/>
<path d="M397.784 110.135C397.784 110.248 385.689 110.345 370.722 110.345C355.756 110.345 343.66 110.248 343.66 110.135C343.66 110.022 355.756 109.925 370.722 109.925C385.689 109.925 397.784 110.014 397.784 110.135Z" fill="#263238"/>
<path d="M431.612 116.101C431.612 116.222 411.92 116.311 387.64 116.311C363.36 116.311 343.66 116.222 343.66 116.101C343.66 115.98 363.352 115.892 387.64 115.892C411.928 115.892 431.612 116.004 431.612 116.101Z" fill="#263238"/>
<path d="M397.784 180.38C397.784 180.492 385.689 180.589 370.722 180.589C355.756 180.589 343.66 180.492 343.66 180.38C343.66 180.267 355.756 180.17 370.722 180.17C385.689 180.17 397.784 180.259 397.784 180.38Z" fill="#263238"/>
<path d="M431.612 186.345C431.612 186.458 411.92 186.555 387.64 186.555C363.36 186.555 343.66 186.458 343.66 186.345C343.66 186.233 363.352 186.136 387.64 186.136C411.928 186.136 431.612 186.233 431.612 186.345Z" fill="#263238"/>
<path d="M397.784 76.3796C397.784 76.5005 385.689 76.5973 370.722 76.5973C355.756 76.5973 343.66 76.5005 343.66 76.3796C343.66 76.2586 355.756 76.1699 370.722 76.1699C385.689 76.1699 397.784 76.2667 397.784 76.3796Z" fill="#263238"/>
<path d="M431.612 82.3557C431.612 82.4686 411.92 82.5653 387.64 82.5653C363.36 82.5653 343.66 82.4686 343.66 82.3557C343.66 82.2428 363.352 82.146 387.64 82.146C411.928 82.146 431.612 82.2428 431.612 82.3557Z" fill="#263238"/>
<path d="M397.784 144.55C397.784 144.663 385.689 144.76 370.722 144.76C355.756 144.76 343.66 144.663 343.66 144.55C343.66 144.438 355.756 144.341 370.722 144.341C385.689 144.341 397.784 144.438 397.784 144.55Z" fill="#263238"/>
<path d="M431.612 150.518C431.612 150.639 411.92 150.727 387.64 150.727C363.36 150.727 343.66 150.639 343.66 150.518C343.66 150.397 363.352 150.308 387.64 150.308C411.928 150.308 431.612 150.405 431.612 150.518Z" fill="#263238"/>
<path d="M397.784 213.706C397.784 213.819 385.689 213.916 370.722 213.916C355.756 213.916 343.66 213.819 343.66 213.706C343.66 213.593 355.756 213.497 370.722 213.497C385.689 213.497 397.784 213.577 397.784 213.706Z" fill="#263238"/>
<path d="M431.612 219.674C431.612 219.787 411.92 219.884 387.64 219.884C363.36 219.884 343.66 219.787 343.66 219.674C343.66 219.561 363.352 219.464 387.64 219.464C411.928 219.464 431.612 219.561 431.612 219.674Z" fill="#263238"/>
<path d="M459.199 45.1011H448.547V55.7533H459.199V45.1011Z" fill="#E0E0E0"/>
<path d="M441.853 45.1011H431.201V55.7533H441.853V45.1011Z" fill="#E0E0E0"/>
<path d="M424.508 45.1011H413.855V55.7533H424.508V45.1011Z" fill="#E0E0E0"/>
<path d="M231.17 72.9932L235.694 78.8959L239.565 72.9932H231.17Z" fill="#263238"/>
<path d="M134.687 93.6535C131.869 105.279 138.21 147.555 148.603 163.549C148.603 163.549 178.725 183.102 272.806 172.004C272.806 172.004 257.586 167.143 271.837 111.392C272.136 110.194 272.453 108.996 272.788 107.745C274.726 100.523 260.546 88.1401 257.992 83.7892C239.584 52.558 134.687 93.6535 134.687 93.6535Z" fill="#2C2C2C"/>
<path d="M81.2278 259.25C81.2278 259.25 76.049 258.123 74.0585 255.569C72.0504 253.015 70.8703 251.887 63.8595 248.84C56.9017 245.792 54.1361 241.847 54.1361 241.847C54.1361 241.847 49.2744 246.303 59.949 251.412C66.4841 254.547 45.0116 254.089 38.5469 253.367C38.5469 253.367 34.8126 255.41 40.9954 258.405C47.1782 261.399 41.2244 261.628 53.4667 266.789C65.6915 271.968 80.2238 274.681 83.1831 267.3C86.1247 259.92 81.2278 259.25 81.2278 259.25Z" fill="white"/>
<path fill-rule="evenodd" clip-rule="evenodd" d="M54.1353 241.846L53.6592 241.327L54.2513 240.784L54.7115 241.441L54.7117 241.441L54.7123 241.442L54.7152 241.446C54.7188 241.451 54.7252 241.46 54.7343 241.472C54.7525 241.497 54.7818 241.535 54.8224 241.587C54.9035 241.691 55.0301 241.846 55.2048 242.045C55.5541 242.441 56.0959 243.008 56.8521 243.67C58.3638 244.994 60.7339 246.701 64.1404 248.194C67.6499 249.719 69.7518 250.785 71.2346 251.809C72.7427 252.85 73.5911 253.835 74.6117 255.133L74.6126 255.134L74.6135 255.135C75.484 256.252 77.1192 257.116 78.6445 257.71C79.39 258.001 80.0771 258.214 80.5779 258.356C80.8278 258.426 81.0303 258.478 81.169 258.512C81.2384 258.529 81.2917 258.542 81.3271 258.55C81.34 258.553 81.3504 258.555 81.3584 258.557C81.3662 258.558 81.375 258.56 81.3849 258.562C81.3936 258.563 81.4031 258.565 81.4133 258.567C81.4615 258.576 81.5268 258.59 81.606 258.61C81.7639 258.651 81.9794 258.717 82.2251 258.823C82.7149 259.034 83.3425 259.411 83.8618 260.072C84.9358 261.438 85.3561 263.749 83.8368 267.561L83.8363 267.562C83.0057 269.634 81.3628 270.971 79.2465 271.726C77.1491 272.474 74.5641 272.662 71.7475 272.457C66.1107 272.046 59.3421 270.043 53.1913 267.438C47.0614 264.854 45.3326 263.447 44.3961 262.209C44.2314 261.992 44.0885 261.774 43.9637 261.585C43.9222 261.522 43.8826 261.461 43.8449 261.405C43.6874 261.171 43.5332 260.96 43.3219 260.74C42.9 260.301 42.1949 259.769 40.6875 259.038C39.1006 258.27 38.076 257.529 37.4662 256.809C36.8393 256.07 36.6333 255.327 36.7586 254.637C36.877 253.984 37.2696 253.508 37.5766 253.219C37.7353 253.07 37.8867 252.956 37.9994 252.879C38.0562 252.84 38.1042 252.81 38.14 252.788C38.1579 252.777 38.1728 252.768 38.1842 252.762C38.1899 252.758 38.1948 252.756 38.1988 252.753L38.2041 252.75L38.2062 252.749L38.2071 252.749C38.2075 252.749 38.208 252.748 38.5462 253.366L38.208 252.748L38.4032 252.642L38.6244 252.666C41.8187 253.023 48.7683 253.317 54.0975 253.131C56.7898 253.037 58.9662 252.822 60.0534 252.471C60.1357 252.444 60.2062 252.418 60.2659 252.394C60.1243 252.297 59.9221 252.18 59.6438 252.047C54.2402 249.461 52.4814 246.906 52.3358 244.761C52.2643 243.707 52.5953 242.851 52.9332 242.269C53.1025 241.977 53.2765 241.749 53.4105 241.591C53.4777 241.512 53.5355 241.45 53.5786 241.406C53.6001 241.384 53.618 241.366 53.6317 241.353C53.6385 241.346 53.6443 241.341 53.6489 241.337L53.6549 241.331L53.6573 241.329L53.6583 241.328C53.6588 241.327 53.6592 241.327 54.1353 241.846ZM38.7225 254.094C38.6679 254.135 38.6056 254.186 38.5419 254.246C38.342 254.434 38.1874 254.655 38.1451 254.888C38.1097 255.083 38.1293 255.412 38.5412 255.898C38.9701 256.404 39.7972 257.041 41.3018 257.77C42.8858 258.537 43.755 259.157 44.3382 259.764C44.6296 260.067 44.8356 260.353 45.0146 260.619C45.0673 260.698 45.1157 260.771 45.1623 260.842C45.2796 261.02 45.3854 261.181 45.5199 261.359C46.2127 262.275 47.628 263.563 53.7397 266.14L53.7408 266.14C59.8147 268.713 66.4246 270.656 71.8499 271.051C74.5643 271.249 76.9313 271.055 78.773 270.398C80.5957 269.748 81.879 268.657 82.5281 267.038C83.95 263.47 83.3927 261.756 82.7538 260.942C82.4166 260.513 82.0037 260.262 81.6673 260.117C81.4999 260.045 81.3559 260.001 81.2574 259.976C81.2084 259.963 81.1714 259.955 81.1493 259.951C81.1382 259.949 81.131 259.948 81.1279 259.947C81.1264 259.947 81.1259 259.947 81.1265 259.947L81.1042 259.944L81.0772 259.938L81.227 259.25C81.0772 259.938 81.077 259.938 81.0768 259.938L81.0764 259.938L81.0713 259.937L81.0579 259.934C81.0466 259.931 81.0304 259.928 81.0097 259.923C80.9682 259.913 80.9083 259.899 80.8322 259.881C80.68 259.843 80.4623 259.787 80.1956 259.712C79.6632 259.562 78.9312 259.334 78.1331 259.023C76.5719 258.415 74.6232 257.439 73.503 256.003C72.5159 254.747 71.7702 253.891 70.4339 252.969C69.072 252.028 67.0786 251.007 63.5779 249.486L63.5761 249.485C60.0252 247.93 57.534 246.141 55.9236 244.73C55.1204 244.027 54.5367 243.418 54.1501 242.979C53.9107 243.392 53.6945 243.968 53.7418 244.665C53.834 246.025 54.9816 248.253 60.2524 250.776L60.253 250.776C60.6858 250.984 61.0448 251.196 61.31 251.419C61.5571 251.627 61.8339 251.939 61.8719 252.362C61.9146 252.839 61.6389 253.178 61.3858 253.375C61.1374 253.567 60.8159 253.705 60.4872 253.811C59.1842 254.233 56.8138 254.446 54.1467 254.54C48.8932 254.723 42.0914 254.447 38.7225 254.094ZM38.8871 253.983C38.8882 253.982 38.8886 253.982 38.8882 253.982L38.8871 253.983Z" fill="#2C2C2C"/>
<path d="M166.801 217.169C166.801 217.169 152.145 288.192 145.469 292.102C140.096 295.255 98.9128 281.85 83.2708 276.584C79.5541 275.35 77.2817 274.54 77.2817 274.54L79.9768 256.326L88.8019 257.524L132.751 263.496C132.751 263.496 147.565 191.327 158.204 190.447C168.861 189.548 166.801 217.169 166.801 217.169Z" fill="#2C2C2C"/>
<path d="M252.921 190.006C252.921 190.006 304.902 242.481 308.319 268.709C308.319 268.709 300.41 283.541 252.797 311.83L248.552 299.694C248.552 299.694 275.133 269.185 284.363 261.469C284.363 261.469 242.739 227.05 243.708 217.291C244.677 207.497 247.09 190.517 252.921 190.006Z" fill="#2C2C2C"/>
<path d="M274.181 212.042C274.181 223.281 266.818 230.239 255.58 230.239C244.342 230.239 235.235 221.132 235.235 209.893C235.235 198.655 243.725 186.254 254.435 189.619C266.237 193.3 274.181 200.804 274.181 212.042Z" fill="white"/>
<path fill-rule="evenodd" clip-rule="evenodd" d="M241.356 194.735C238.007 198.686 235.939 204.433 235.939 209.893C235.939 220.742 244.73 229.533 255.58 229.533C261.053 229.533 265.515 227.841 268.604 224.848C271.691 221.857 273.476 217.502 273.476 212.042C273.476 201.232 265.867 193.922 254.225 190.291L254.223 190.29C249.218 188.718 244.694 190.796 241.356 194.735ZM254.645 188.945C248.941 187.154 243.865 189.594 240.281 193.824C236.707 198.041 234.53 204.114 234.53 209.893C234.53 221.52 243.952 230.942 255.58 230.942C261.345 230.942 266.183 229.155 269.585 225.86C272.989 222.562 274.885 217.819 274.885 212.042C274.885 200.374 266.607 192.677 254.645 188.945Z" fill="#2C2C2C"/>
<path d="M265.038 208.766C265.038 217.08 259.595 222.224 251.28 222.224C242.966 222.224 236.237 215.495 236.237 207.18C236.237 198.866 242.508 189.689 250.453 192.173C259.154 194.921 265.038 200.469 265.038 208.766Z" fill="#2C2C2C"/>
<path d="M137.667 212.042C137.667 223.28 145.03 230.238 156.268 230.238C167.507 230.238 176.596 221.113 176.596 209.893C176.596 198.672 168.106 186.254 157.396 189.618C145.611 193.3 137.667 200.804 137.667 212.042Z" fill="white"/>
<path fill-rule="evenodd" clip-rule="evenodd" d="M171.549 193.831C175.123 198.051 177.299 204.124 177.299 209.894C177.299 221.502 167.896 230.943 156.267 230.943C150.502 230.943 145.663 229.156 142.262 225.861C138.858 222.563 136.961 217.82 136.961 212.043C136.961 200.376 145.24 192.678 157.184 188.946C162.888 187.155 167.964 189.6 171.549 193.831ZM170.473 194.742C167.135 190.801 162.611 188.719 157.606 190.291L157.605 190.291C145.98 193.923 138.371 201.233 138.371 212.043C138.371 217.503 140.156 221.858 143.243 224.849C146.332 227.842 150.794 229.534 156.267 229.534C167.115 229.534 175.89 220.726 175.89 209.894C175.89 204.442 173.822 198.696 170.473 194.742Z" fill="#2C2C2C"/>
<path d="M146.825 208.766C146.825 217.08 152.268 222.224 160.582 222.224C168.896 222.224 175.625 215.495 175.625 207.18C175.625 198.866 169.354 189.689 161.427 192.173C152.69 194.921 146.825 200.469 146.825 208.766Z" fill="#2C2C2C"/>
<path d="M231.534 302.213C218.816 301.051 206.256 300.575 206.256 300.575C201.641 300.716 191.812 301.121 181.666 302.213C184.625 312.324 194.666 319.775 206.591 319.775C218.534 319.793 228.574 312.307 231.534 302.213Z" fill="#50BFD7"/>
<path d="M230.496 303.27C231.589 298.972 253.449 189.442 253.449 189.442C253.449 189.442 195.108 172.215 157.8 189.442L181.721 304.221L230.496 303.27Z" fill="white"/>
<path fill-rule="evenodd" clip-rule="evenodd" d="M253.647 188.766C253.647 188.766 253.648 188.767 253.448 189.442C254.139 189.58 254.139 189.581 254.139 189.581L254.138 189.585L253.893 190.811C253.733 191.615 253.497 192.793 253.198 194.295C252.598 197.298 251.739 201.594 250.706 206.762C248.64 217.097 245.873 230.923 243.072 244.883C237.475 272.782 231.731 301.271 231.179 303.443L231.046 303.964L181.15 304.937L156.995 189.038L157.504 188.803C176.339 180.106 200.411 180.125 219.693 182.282C229.348 183.362 237.832 184.982 243.902 186.332C246.938 187.007 249.371 187.615 251.047 188.054C251.885 188.274 252.534 188.452 252.973 188.574C253.193 188.636 253.361 188.684 253.474 188.716C253.531 188.733 253.574 188.745 253.603 188.753L253.636 188.763L253.644 188.766L253.647 188.766ZM253.448 189.442L254.139 189.58L254.265 188.949L253.648 188.767L253.448 189.442ZM252.63 189.942C252.618 189.938 252.606 189.935 252.594 189.932C252.161 189.811 251.52 189.635 250.69 189.417C249.029 188.982 246.613 188.378 243.596 187.708C237.562 186.366 229.129 184.756 219.536 183.682C200.496 181.552 177.003 181.552 158.604 189.85L182.291 303.505L229.934 302.576C230.932 298.099 236.368 271.133 241.691 244.606C244.491 230.646 247.258 216.821 249.324 206.485C250.358 201.318 251.216 197.022 251.816 194.019C252.116 192.517 252.351 191.339 252.511 190.536L252.63 189.942Z" fill="black"/>
<path d="M230.496 303.27C231.589 298.972 253.449 189.442 253.449 189.442C253.449 189.442 195.108 172.215 157.8 189.442L181.721 304.221L230.496 303.27Z" fill="white"/>
<path fill-rule="evenodd" clip-rule="evenodd" d="M253.647 188.766C253.647 188.766 253.648 188.767 253.448 189.442C254.139 189.58 254.139 189.581 254.139 189.581L254.138 189.585L253.893 190.811C253.733 191.615 253.497 192.793 253.198 194.295C252.598 197.298 251.739 201.594 250.706 206.762C248.64 217.097 245.873 230.923 243.072 244.883C237.475 272.782 231.731 301.271 231.179 303.443L231.046 303.964L181.15 304.937L156.995 189.038L157.504 188.803C176.339 180.106 200.411 180.125 219.693 182.282C229.348 183.362 237.832 184.982 243.902 186.332C246.938 187.007 249.371 187.615 251.047 188.054C251.885 188.274 252.534 188.452 252.973 188.574C253.193 188.636 253.361 188.684 253.474 188.716C253.531 188.733 253.574 188.745 253.603 188.753L253.636 188.763L253.644 188.766L253.647 188.766ZM253.448 189.442L254.139 189.58L254.265 188.949L253.648 188.767L253.448 189.442ZM252.63 189.942C252.618 189.938 252.606 189.935 252.594 189.932C252.161 189.811 251.52 189.635 250.69 189.417C249.029 188.982 246.613 188.378 243.596 187.708C237.562 186.366 229.129 184.756 219.536 183.682C200.496 181.552 177.003 181.552 158.604 189.85L182.291 303.505L229.934 302.576C230.932 298.099 236.368 271.133 241.691 244.606C244.491 230.646 247.258 216.821 249.324 206.485C250.358 201.318 251.216 197.022 251.816 194.019C252.116 192.517 252.351 191.339 252.511 190.536L252.63 189.942Z" fill="#2C2C2C"/>
<path d="M239.286 186.078C222.993 182.801 195.443 179.067 171.769 184.704C174.569 202.371 177.37 220.057 180.171 237.724C182.426 249.703 193.787 257.682 205.642 257.753C217.497 257.682 228.858 249.72 231.113 237.724C233.826 220.497 236.556 203.287 239.286 186.078Z" fill="#50BFD7"/>
<path fill-rule="evenodd" clip-rule="evenodd" d="M171.605 184.019C195.434 178.345 223.109 182.106 239.425 185.387L240.088 185.521L239.98 186.199C237.25 203.406 234.52 220.611 231.808 237.834L231.807 237.845L231.805 237.855C229.478 250.235 217.78 258.385 205.645 258.457L205.641 258.458L205.637 258.457C193.501 258.385 181.805 250.217 179.478 237.855L179.476 237.845L179.474 237.835C178.074 229.002 176.674 220.165 175.273 211.327L175.273 211.325C173.873 202.486 172.472 193.648 171.072 184.814L170.97 184.17L171.605 184.019ZM172.566 185.241C173.932 193.858 175.298 202.48 176.664 211.101L176.665 211.104C178.065 219.939 179.465 228.774 180.864 237.604C183.051 249.192 194.072 256.978 205.641 257.048C217.211 256.978 228.231 249.209 230.418 237.605C233.095 220.604 235.789 203.62 238.484 186.636C222.286 183.428 195.625 179.929 172.566 185.241Z" fill="#2C2C2C"/>
<path d="M203.618 192.331C209.184 192.331 217.833 190.64 217.833 185.091L216.406 166.56L215.155 150.354C215.155 144.788 210.646 140.296 205.097 140.296C202.314 140.296 199.813 141.424 197.981 143.238C196.166 145.052 195.021 147.571 195.021 150.354L193.788 166.578L192.608 182.132C191.023 191.52 203.618 192.331 203.618 192.331Z" fill="#2C2C2C"/>
<path d="M236.168 45.8634C227.836 35.6115 216.192 29.4287 201.255 29.4287C167.417 29.4287 134.336 60.6247 134.336 99.5359C134.336 138.447 161.762 169.995 195.6 169.995C198.859 169.995 202.012 169.714 205.042 169.15C205.359 170.859 205.535 172.62 205.535 174.417C205.535 174.751 205.518 175.069 205.518 175.386C298.806 152.803 283.534 40.1033 236.168 45.8634Z" fill="#2C2C2C"/>
<path d="M163.418 138.834C169.693 138.834 174.779 133.747 174.779 127.472C174.779 121.198 169.693 116.111 163.418 116.111C157.143 116.111 152.056 121.198 152.056 127.472C152.056 133.747 157.143 138.834 163.418 138.834Z" fill="white"/>
<path fill-rule="evenodd" clip-rule="evenodd" d="M163.416 116.816C157.531 116.816 152.759 121.587 152.759 127.473C152.759 133.359 157.531 138.13 163.416 138.13C169.302 138.13 174.073 133.359 174.073 127.473C174.073 121.587 169.302 116.816 163.416 116.816ZM151.35 127.473C151.35 120.809 156.752 115.407 163.416 115.407C170.08 115.407 175.482 120.809 175.482 127.473C175.482 134.137 170.08 139.539 163.416 139.539C156.752 139.539 151.35 134.137 151.35 127.473Z" fill="#2C2C2C"/>
<path d="M243.426 138.834C249.701 138.834 254.788 133.747 254.788 127.472C254.788 121.198 249.701 116.111 243.426 116.111C237.151 116.111 232.064 121.198 232.064 127.472C232.064 133.747 237.151 138.834 243.426 138.834Z" fill="white"/>
<path fill-rule="evenodd" clip-rule="evenodd" d="M243.425 116.816C237.539 116.816 232.768 121.587 232.768 127.473C232.768 133.359 237.539 138.13 243.425 138.13C249.311 138.13 254.082 133.359 254.082 127.473C254.082 121.587 249.311 116.816 243.425 116.816ZM231.359 127.473C231.359 120.809 236.761 115.407 243.425 115.407C250.089 115.407 255.491 120.809 255.491 127.473C255.491 134.137 250.089 139.539 243.425 139.539C236.761 139.539 231.359 134.137 231.359 127.473Z" fill="#2C2C2C"/>
<path d="M204.495 174.875C228.885 174.875 248.656 146.886 248.656 112.36C248.656 77.8337 228.885 49.8447 204.495 49.8447C180.106 49.8447 160.335 77.8337 160.335 112.36C160.335 146.886 180.106 174.875 204.495 174.875Z" fill="white"/>
<path fill-rule="evenodd" clip-rule="evenodd" d="M173.845 68.561C165.947 79.7417 161.04 95.2246 161.04 112.359C161.04 129.494 165.947 144.977 173.845 156.158C181.744 167.34 192.591 174.17 204.495 174.17C216.4 174.17 227.247 167.34 235.146 156.158C243.044 144.977 247.951 129.494 247.951 112.359C247.951 95.2246 243.044 79.7417 235.146 68.561C227.247 57.3786 216.4 50.5488 204.495 50.5488C192.591 50.5488 181.744 57.3786 173.845 68.561ZM172.694 67.748C180.777 56.3044 192.011 49.1396 204.495 49.1396C216.98 49.1396 228.213 56.3044 236.297 67.748C244.382 79.1934 249.361 94.9681 249.361 112.359C249.361 129.751 244.382 145.526 236.297 156.971C228.213 168.414 216.98 175.579 204.495 175.579C192.011 175.579 180.777 168.414 172.694 156.971C164.609 145.526 159.63 129.751 159.63 112.359C159.63 94.9681 164.609 79.1934 172.694 67.748Z" fill="#2C2C2C"/>
<path d="M153.889 98.4965C153.889 98.4965 191.479 100.328 204.003 77.711C204.003 77.711 231.2 101.244 257.165 99.4125L254.716 89.0197L244.641 69.1502L238.528 61.8224L226.004 48.6817L209.199 41.6533L189.03 44.4012L162.132 62.7383L158.768 74.9631L153.889 98.4965Z" fill="#2C2C2C"/>
<path d="M205.587 136.791C205.605 136.897 205.376 137.091 204.865 137.091C204.372 137.109 203.614 136.88 202.945 136.245C202.61 135.928 202.311 135.541 202.082 135.048C202.047 134.977 202.029 134.907 201.994 134.836L201.959 134.731L201.923 134.642L201.87 134.484C201.853 134.413 201.835 134.325 201.8 134.255C201.73 133.991 201.677 133.709 201.659 133.409C201.553 132.247 201.782 131.067 202.064 129.939C203.156 125.43 204.442 121.889 204.918 121.995C205.393 122.118 204.9 125.853 203.808 130.362C203.526 131.472 203.315 132.476 203.315 133.321C203.315 133.533 203.333 133.744 203.35 133.938L203.368 134.008V134.044V134.061V134.079C203.368 134.079 203.35 134.026 203.368 134.044L203.403 134.22L203.421 134.308L203.438 134.361L203.473 134.466C203.579 134.801 203.738 135.118 203.914 135.365C204.266 135.876 204.689 136.193 205.024 136.369C205.323 136.598 205.57 136.668 205.587 136.791Z" fill="#2C2C2C"/>
<path d="M156.76 119.528C156.267 117.573 155.897 115.583 155.597 113.575C155.315 111.566 155.122 109.558 155.016 107.533C154.84 103.481 154.998 99.3945 155.544 95.3607C156.09 91.3093 157.024 87.3107 158.345 83.4354C158.416 83.1888 158.504 82.9422 158.592 82.7132L158.856 81.991L159.384 80.5466L159.983 79.1198L160.283 78.4152C160.388 78.1862 160.476 77.9396 160.6 77.7106C161.463 75.8434 162.397 73.9939 163.453 72.2324C165.55 68.6742 167.998 65.3273 170.816 62.28C173.652 59.2502 176.841 56.5375 180.328 54.2652C180.751 53.9657 181.209 53.7015 181.65 53.4373C182.09 53.1731 182.548 52.8912 182.988 52.6446L184.38 51.9048L185.067 51.5349C185.296 51.4116 185.542 51.3059 185.771 51.2002L187.198 50.5485C187.322 50.4956 187.427 50.4428 187.551 50.3899L187.92 50.249L188.643 49.9672L189.365 49.6853C189.611 49.5973 189.84 49.4916 190.105 49.4035L191.602 48.9103C195.583 47.6244 199.775 46.9726 203.968 46.8846C206.064 46.8141 208.16 46.9726 210.238 47.2016C210.767 47.2721 211.278 47.3602 211.789 47.4306L212.564 47.5539C212.687 47.5715 212.828 47.5892 212.951 47.6244L213.339 47.7125L214.871 48.0471C215.382 48.1528 215.893 48.2938 216.386 48.4347C220.42 49.562 224.313 51.2002 227.871 53.3845L229.192 54.2124C229.421 54.3533 229.632 54.4942 229.844 54.6527L230.478 55.0931L231.112 55.5335C231.324 55.6744 231.535 55.8329 231.746 55.9915L232.979 56.9427L233.596 57.4183L234.195 57.9291L235.375 58.9508C235.762 59.2854 236.132 59.6554 236.502 60.0253L237.066 60.5713C237.26 60.7475 237.436 60.9236 237.612 61.1174L238.687 62.2447L239.215 62.8084L239.726 63.3897L240.747 64.5699C240.924 64.7637 241.082 64.975 241.241 65.1688L241.716 65.7853C242.033 66.1905 242.35 66.5956 242.667 67.0184L243.566 68.2866C244.182 69.1145 244.711 70.0129 245.274 70.876C247.459 74.3814 249.238 78.1157 250.647 81.9558C252.056 85.8135 253.06 89.7944 253.694 93.8282L253.818 94.5857L253.871 94.9556L253.906 95.3431L254.082 96.858C254.223 97.862 254.258 98.8837 254.346 99.9054C254.469 101.931 254.505 103.974 254.452 106L254.434 106.758L254.399 107.515C254.364 108.026 254.346 108.519 254.293 109.03C254.223 110.034 254.117 111.056 253.994 112.06C253.73 114.068 253.395 116.058 252.955 118.031C253.201 116.023 253.395 114.032 253.465 112.024C253.553 110.016 253.571 108.008 253.483 106.018C253.395 104.027 253.254 102.019 253.007 100.046C252.866 99.0598 252.761 98.0734 252.567 97.087L252.303 95.6249L252.232 95.255L252.144 94.8851L251.986 94.1629C251.158 90.27 249.978 86.4652 248.48 82.8189L248.199 82.1319L247.899 81.4626L247.283 80.1062C247.089 79.6482 246.86 79.2255 246.631 78.7851L245.961 77.464C245.732 77.0236 245.486 76.6009 245.239 76.1781C244.993 75.7554 244.764 75.315 244.499 74.8922L243.724 73.6416C243.46 73.2188 243.214 72.7961 242.932 72.4085C242.368 71.5982 241.84 70.7703 241.241 69.9953L240.36 68.8151C240.06 68.4276 239.743 68.0577 239.426 67.6701L238.951 67.1064C238.792 66.9127 238.634 66.7189 238.475 66.5428L237.489 65.4506L236.995 64.9046L236.485 64.3761L235.445 63.3369C232.645 60.6242 229.527 58.2462 226.162 56.2733C222.816 54.3004 219.204 52.8032 215.47 51.7991C214.537 51.5173 213.585 51.3587 212.652 51.1474L212.299 51.0769C212.176 51.0593 212.053 51.0417 211.947 51.0241L211.225 50.9184C210.749 50.8479 210.274 50.7598 209.798 50.707C207.878 50.5132 205.94 50.3723 204.02 50.4252C200.163 50.4956 196.305 51.0769 192.624 52.2571L191.25 52.6975C191.021 52.7679 190.792 52.856 190.563 52.9441L189.893 53.2083L189.224 53.4725L188.889 53.5958C188.784 53.6311 188.66 53.7015 188.555 53.7368L187.233 54.3357C187.022 54.4413 186.793 54.5294 186.564 54.6351L185.912 54.9698L184.626 55.6392C184.204 55.8858 183.781 56.1324 183.358 56.3614C182.935 56.608 182.513 56.837 182.108 57.1188C178.814 59.1974 175.784 61.6811 173.036 64.4642L172.032 65.5387L171.539 66.0848C171.451 66.1729 171.362 66.2609 171.292 66.349L171.063 66.6308L170.112 67.7582C169.953 67.952 169.795 68.1281 169.636 68.3219L169.178 68.9032L168.28 70.0657C168.121 70.2595 167.998 70.4533 167.839 70.6647L167.417 71.2636C167.135 71.6687 166.853 72.0562 166.571 72.479L165.779 73.7296C163.682 77.0589 161.886 80.5994 160.476 84.281C159.05 87.9625 157.958 91.8025 157.218 95.713L156.936 97.175C156.848 97.6683 156.795 98.1615 156.707 98.6547L156.496 100.134C156.443 100.628 156.39 101.121 156.337 101.614L156.178 103.111L156.09 104.609L156.002 106.106C155.985 106.599 155.967 107.11 155.949 107.603C155.914 109.611 155.949 111.602 156.09 113.61C156.249 115.53 156.478 117.52 156.76 119.528Z" fill="#50BFD7"/>
<path d="M193.011 115.671C193.011 120.692 188.66 124.761 183.305 124.761C177.932 124.761 173.599 120.692 173.599 115.671C173.599 110.651 177.95 106.582 183.305 106.582C188.66 106.582 193.011 110.651 193.011 115.671Z" fill="white"/>
<path fill-rule="evenodd" clip-rule="evenodd" d="M183.305 107.287C178.295 107.287 174.304 111.084 174.304 115.672C174.304 120.261 178.278 124.056 183.305 124.056C188.315 124.056 192.306 120.26 192.306 115.672C192.306 111.084 188.315 107.287 183.305 107.287ZM172.895 115.672C172.895 110.219 177.605 105.878 183.305 105.878C189.004 105.878 193.715 110.219 193.715 115.672C193.715 121.124 189.004 125.466 183.305 125.466C177.587 125.466 172.895 121.123 172.895 115.672Z" fill="#2C2C2C"/>
<path d="M178.551 115.108C178.551 119.247 181.246 122.611 184.557 122.611C187.869 122.611 190.564 119.247 190.564 115.108C190.564 110.968 187.869 107.604 184.557 107.604C181.228 107.586 178.551 110.95 178.551 115.108Z" fill="#50BFD7"/>
<path d="M180.275 115.107C180.275 118.049 182.178 120.427 184.538 120.427C186.899 120.427 188.801 118.049 188.801 115.107C188.801 112.165 186.899 109.77 184.538 109.77C182.195 109.77 180.275 112.148 180.275 115.107Z" fill="#2C2C2C"/>
<path d="M180.012 110.051C180.012 110.862 180.998 111.496 182.214 111.496C183.429 111.496 184.415 110.844 184.415 110.051C184.415 109.241 183.429 108.607 182.214 108.607C180.998 108.589 180.012 109.241 180.012 110.051Z" fill="white"/>
<path d="M183.939 105.26C177.932 104.661 173.317 110.087 173.317 115.688C173.317 116.27 174.04 116.375 174.339 115.97C176.788 112.606 177.58 109.294 182.054 108.008C188.66 106.106 192.289 112.887 192.659 118.207C192.711 118.718 193.152 118.26 193.205 117.732C193.803 111.373 190.633 105.93 183.939 105.26Z" fill="#2C2C2C"/>
<path d="M195.796 101.772C195.796 101.772 182.69 88.702 168.598 104.221C168.581 104.221 180.77 96.4173 195.796 101.772Z" fill="#2C2C2C"/>
<path d="M235.234 115.671C235.234 120.692 230.883 124.761 225.528 124.761C220.156 124.761 215.822 120.692 215.822 115.671C215.822 110.651 220.173 106.582 225.528 106.582C230.883 106.582 235.234 110.651 235.234 115.671Z" fill="white"/>
<path fill-rule="evenodd" clip-rule="evenodd" d="M225.527 107.287C220.517 107.287 216.526 111.084 216.526 115.672C216.526 120.261 220.5 124.056 225.527 124.056C230.537 124.056 234.528 120.26 234.528 115.672C234.528 111.084 230.537 107.287 225.527 107.287ZM215.117 115.672C215.117 110.219 219.828 105.878 225.527 105.878C231.227 105.878 235.937 110.219 235.937 115.672C235.937 121.124 231.227 125.466 225.527 125.466C219.809 125.466 215.117 121.123 215.117 115.672Z" fill="#2C2C2C"/>
<path d="M220.773 115.108C220.773 119.247 223.468 122.611 226.78 122.611C230.091 122.611 232.786 119.247 232.786 115.108C232.786 110.968 230.091 107.604 226.78 107.604C223.468 107.586 220.773 110.95 220.773 115.108Z" fill="#50BFD7"/>
<path d="M222.517 115.107C222.517 118.049 224.419 120.427 226.779 120.427C229.14 120.427 231.042 118.049 231.042 115.107C231.042 112.165 229.14 109.77 226.779 109.77C224.419 109.77 222.517 112.148 222.517 115.107Z" fill="#2C2C2C"/>
<path d="M222.235 110.051C222.235 110.862 223.221 111.496 224.437 111.496C225.652 111.496 226.639 110.844 226.639 110.051C226.639 109.241 225.652 108.607 224.437 108.607C223.239 108.589 222.235 109.241 222.235 110.051Z" fill="white"/>
<path d="M226.163 105.26C220.157 104.661 215.542 110.087 215.542 115.688C215.542 116.27 216.264 116.375 216.563 115.97C219.012 112.606 219.804 109.294 224.278 108.008C230.884 106.106 234.513 112.887 234.883 118.207C234.935 118.718 235.376 118.26 235.429 117.732C236.028 111.373 232.875 105.93 226.163 105.26Z" fill="#2C2C2C"/>
<path d="M238.017 100.346C238.017 100.346 224.912 87.2762 210.82 102.795C210.82 102.795 223.009 94.9915 238.017 100.346Z" fill="#2C2C2C"/>
<path d="M190.158 146.778C190.599 150.196 192.254 153.349 194.844 155.639C197.433 157.929 200.762 159.179 204.215 159.179C207.667 159.179 210.997 157.929 213.586 155.639C216.175 153.349 217.849 150.213 218.272 146.778H190.158Z" fill="white"/>
<path d="M217.725 309.84C217.725 310.281 218.112 310.792 218.57 310.739C223.767 310.193 227.748 306.176 232.874 307.022C227.73 309.576 223.274 314.015 223.908 320.55C223.978 321.36 224.753 321.678 225.352 321.184C229.034 318.049 233.261 315.248 238.193 316.287C240.307 316.728 242.791 317.556 244.975 317.274C248.234 316.869 250.982 315.389 252.602 312.236C255.456 306.775 254.399 300.223 248.005 298.866C247.846 298.831 247.723 298.849 247.582 298.902C245.222 297.968 243.073 296.788 241.17 294.727C239.338 292.719 237.63 290.499 235.639 288.65C232.979 286.166 230.091 284.211 226.568 285.884C226.039 286.131 226.074 286.888 226.409 287.293C227.959 289.213 229.774 291.045 231.676 292.807C229.774 292.366 227.854 292.137 225.881 292.296C222.358 292.595 218.201 294.938 218.289 299.13C218.306 299.659 218.676 299.976 219.134 300.029C222.375 300.364 225.634 300.311 228.858 300.645C223.837 302.125 217.672 303.816 217.725 309.84Z" fill="white"/>
<path fill-rule="evenodd" clip-rule="evenodd" d="M231.685 285.052C233.308 285.692 234.775 286.879 236.119 288.133C237.465 289.384 238.708 290.827 239.914 292.227C240.512 292.922 241.101 293.605 241.689 294.249C243.438 296.144 245.412 297.264 247.628 298.16C247.789 298.134 247.961 298.134 248.153 298.177C251.603 298.91 253.67 301.077 254.448 303.819C255.215 306.519 254.716 309.708 253.227 312.559C251.477 315.962 248.497 317.544 245.063 317.972C243.859 318.127 242.605 317.974 241.421 317.742C240.827 317.625 240.237 317.486 239.673 317.351C239.613 317.337 239.553 317.323 239.494 317.308C238.99 317.188 238.51 317.072 238.049 316.976L238.047 316.976C233.475 316.012 229.487 318.587 225.808 321.72L225.804 321.724L225.799 321.727C225.32 322.122 224.7 322.237 224.153 322.003C223.607 321.769 223.261 321.241 223.205 320.614C222.631 314.688 226.006 310.434 230.263 307.691C228.846 307.884 227.466 308.396 226.022 309.006C225.701 309.142 225.376 309.284 225.046 309.427C223.091 310.276 220.982 311.192 218.646 311.438C218.12 311.497 217.698 311.227 217.445 310.937C217.193 310.649 217.02 310.252 217.019 309.843C216.991 306.524 218.704 304.394 221.013 302.941C222.23 302.175 223.633 301.584 225.055 301.088C224.695 301.072 224.334 301.056 223.971 301.04L223.956 301.039C222.342 300.969 220.701 300.898 219.061 300.729L219.057 300.728L219.052 300.728C218.299 300.641 217.614 300.08 217.583 299.153L217.583 299.149L217.583 299.144C217.534 296.781 218.691 294.951 220.296 293.697C221.887 292.454 223.942 291.753 225.82 291.593L225.822 291.593L225.823 291.593C227.068 291.493 228.287 291.54 229.487 291.693C228.194 290.419 226.964 289.103 225.862 287.738C225.579 287.393 225.435 286.927 225.46 286.488C225.486 286.033 225.708 285.507 226.266 285.246C228.219 284.319 230.026 284.397 231.685 285.052ZM226.876 286.516C226.873 286.526 226.869 286.542 226.867 286.568C226.865 286.612 226.871 286.666 226.889 286.722C226.906 286.777 226.931 286.819 226.951 286.844L226.954 286.847L226.956 286.85C228.477 288.733 230.264 290.539 232.154 292.289L234.099 294.09L231.516 293.492C229.663 293.063 227.818 292.846 225.938 292.997C224.293 293.137 222.509 293.756 221.163 294.808C219.832 295.848 218.955 297.283 218.992 299.11C218.996 299.202 219.025 299.24 219.043 299.259C219.068 299.283 219.12 299.316 219.211 299.328C220.805 299.492 222.407 299.562 224.032 299.632L224.038 299.632C225.655 299.703 227.295 299.774 228.929 299.944L232.477 300.312L229.056 301.32C228.968 301.346 228.88 301.372 228.792 301.398C226.33 302.123 223.754 302.881 221.763 304.134C219.748 305.402 218.405 307.129 218.429 309.833L218.429 309.836V309.839C218.429 309.848 218.431 309.874 218.446 309.912C218.461 309.949 218.482 309.983 218.505 310.01C218.515 310.02 218.523 310.028 218.529 310.033C220.62 309.807 222.498 308.994 224.452 308.148C224.789 308.001 225.129 307.854 225.473 307.709C227.771 306.737 230.211 305.868 232.987 306.326L235.141 306.681L233.186 307.652C228.153 310.151 224.016 314.375 224.608 320.481L224.608 320.485L224.609 320.488C224.617 320.583 224.643 320.637 224.662 320.665C224.68 320.692 224.697 320.703 224.708 320.707C224.719 320.712 224.737 320.716 224.764 320.712C224.791 320.707 224.839 320.692 224.9 320.642C228.583 317.506 233.048 314.483 238.337 315.597C238.82 315.698 239.322 315.818 239.822 315.938C239.882 315.952 239.941 315.966 240.001 315.981C240.565 316.116 241.129 316.249 241.692 316.359C242.825 316.581 243.904 316.7 244.884 316.574L244.886 316.574L244.887 316.574C247.969 316.191 250.483 314.815 251.975 311.913L251.976 311.911L251.977 311.909C253.34 309.3 253.74 306.483 253.093 304.203C252.458 301.965 250.8 300.179 247.858 299.555L247.854 299.554L247.851 299.553C247.851 299.553 247.85 299.553 247.85 299.553C247.845 299.554 247.838 299.557 247.829 299.56L247.574 299.656L247.322 299.556C244.904 298.599 242.651 297.369 240.652 295.204L240.65 295.202L240.649 295.201C240.001 294.491 239.384 293.773 238.773 293.063C237.6 291.701 236.451 290.366 235.159 289.165L235.157 289.164C233.841 287.934 232.534 286.902 231.167 286.362C229.839 285.838 228.442 285.774 226.876 286.516Z" fill="#2C2C2C"/>
<path fill-rule="evenodd" clip-rule="evenodd" d="M159.455 109.047V109.399H158.046V109.047H159.455Z" fill="#2C2C2C"/>
<path fill-rule="evenodd" clip-rule="evenodd" d="M166.852 112.924V113.276H165.443V112.924H166.852Z" fill="#2C2C2C"/>
<path d="M206.927 110.844C209.34 111.355 208.442 112.923 208.442 113.152C208.442 113.381 209.34 126.416 220.984 129.851C232.627 133.286 239.603 126.539 241.628 123.157C243.654 119.775 245.345 111.743 245.838 111.126C246.349 110.51 248.762 109.435 248.762 109.435L249.044 106.282L246.014 105.384C246.014 105.384 238.37 101.896 227.114 101.737C215.875 101.561 209.516 108.044 209.516 108.044C206.346 107.039 202.418 106.899 198.824 108.044C198.824 108.044 192.465 101.579 181.227 101.737C169.989 101.914 162.326 105.384 162.326 105.384L159.296 106.282L159.578 109.435C159.578 109.435 161.991 110.51 162.502 111.126C163.013 111.743 164.687 119.793 166.712 123.157C168.738 126.539 175.713 133.286 187.357 129.851C199 126.416 199.899 113.381 199.899 113.152C199.899 112.923 199 111.355 201.414 110.844C203.51 110.404 204.831 110.404 206.927 110.844ZM234.864 127.156C225.986 132.493 215.347 127.103 212.141 120.074C208.935 113.046 211.63 109.329 211.63 109.329C217.003 100.592 238.616 100.223 242.333 109.664C242.967 111.249 243.76 121.818 234.864 127.156ZM165.99 109.664C169.707 100.205 191.338 100.592 196.693 109.329C196.693 109.329 199.388 113.046 196.182 120.074C192.976 127.103 182.354 132.493 173.459 127.156C164.581 121.818 165.374 111.249 165.99 109.664Z" fill="#2C2C2C"/>
<path d="M212.37 205.437H198.842C195.248 205.437 192.324 208.361 192.324 211.954V225.483C192.324 229.076 195.248 232 198.842 232H212.37C215.964 232 218.888 229.076 218.888 225.483V211.954C218.888 208.361 215.981 205.437 212.37 205.437ZM188.731 199.677C186.67 199.677 184.997 201.35 184.997 203.411C184.997 205.472 186.67 207.145 188.731 207.145C190.792 207.145 192.465 205.472 192.465 203.411C192.465 201.35 190.792 199.677 188.731 199.677Z" fill="white"/>
<path d="M211.418 213.504C210.555 211.197 208.353 209.664 205.887 209.664H202.223L209.463 228.019H217.231L211.418 213.504ZM196.622 222.752L194.508 228.019H202.223L205.817 218.912H202.153C199.687 218.912 197.485 220.444 196.622 222.752ZM197.819 214.226C199.088 214.226 200.127 213.187 200.127 211.919C200.127 210.651 199.088 209.611 197.819 209.611C196.551 209.611 195.512 210.651 195.512 211.919C195.512 213.187 196.551 214.226 197.819 214.226Z" fill="#50BFD7"/>
<path d="M228.596 281.986C216.419 280.873 204.393 280.417 204.393 280.417C199.975 280.552 190.564 280.94 180.849 281.986C183.683 291.667 193.296 298.801 204.714 298.801C216.149 298.818 225.762 291.65 228.596 281.986Z" fill="#50BFD7"/>
<path d="M214.701 299.577C214.701 299.999 215.072 300.488 215.511 300.437C220.486 299.914 224.298 296.069 229.205 296.878C224.281 299.324 220.014 303.574 220.621 309.831C220.688 310.607 221.43 310.911 222.004 310.438C225.529 307.436 229.576 304.755 234.299 305.75C236.323 306.171 238.701 306.964 240.792 306.694C243.912 306.306 246.543 304.89 248.095 301.871C250.827 296.642 249.815 290.368 243.693 289.07C243.541 289.036 243.423 289.053 243.288 289.103C241.028 288.21 238.971 287.08 237.149 285.106C235.395 283.184 233.759 281.059 231.853 279.288C229.307 276.91 226.541 275.038 223.168 276.64C222.662 276.876 222.695 277.601 223.016 277.989C224.5 279.827 226.237 281.581 228.059 283.268C226.237 282.846 224.399 282.627 222.51 282.779C219.137 283.066 215.156 285.309 215.241 289.323C215.258 289.829 215.612 290.132 216.05 290.183C219.154 290.503 222.274 290.453 225.36 290.773C220.553 292.19 214.65 293.809 214.701 299.577Z" fill="#C4C4C4"/>
<path fill-rule="evenodd" clip-rule="evenodd" d="M228.066 275.844C229.621 276.458 231.025 277.593 232.311 278.794C233.601 279.992 234.791 281.374 235.946 282.715C236.518 283.379 237.082 284.034 237.645 284.651C239.32 286.465 241.21 287.537 243.331 288.395C243.485 288.37 243.65 288.37 243.834 288.411C247.138 289.112 249.117 291.188 249.862 293.813C250.595 296.398 250.118 299.452 248.692 302.182C247.017 305.439 244.164 306.954 240.876 307.364C239.723 307.512 238.522 307.366 237.389 307.144C236.819 307.032 236.255 306.899 235.714 306.77C235.657 306.756 235.6 306.742 235.543 306.729C235.061 306.613 234.601 306.503 234.16 306.41L234.158 306.41C229.78 305.488 225.962 307.953 222.44 310.952L222.435 310.956L222.431 310.959C221.972 311.337 221.378 311.447 220.855 311.223C220.332 310.999 220.001 310.494 219.947 309.894C219.398 304.219 222.629 300.147 226.705 297.52C225.348 297.705 224.027 298.195 222.644 298.78C222.337 298.91 222.025 299.045 221.71 299.182C219.838 299.995 217.819 300.872 215.582 301.108C215.078 301.165 214.674 300.906 214.432 300.629C214.191 300.353 214.026 299.973 214.025 299.581C213.998 296.403 215.638 294.363 217.848 292.973C219.014 292.239 220.357 291.673 221.719 291.198C221.374 291.182 221.028 291.167 220.681 291.152L220.666 291.152C219.121 291.085 217.549 291.016 215.979 290.854L215.975 290.854L215.971 290.853C215.25 290.77 214.594 290.233 214.565 289.345L214.565 289.341L214.565 289.337C214.517 287.074 215.625 285.322 217.162 284.122C218.685 282.932 220.653 282.26 222.451 282.107L222.453 282.107L222.454 282.107C223.646 282.011 224.813 282.057 225.962 282.203C224.724 280.983 223.547 279.723 222.491 278.416C222.22 278.085 222.083 277.64 222.107 277.219C222.131 276.784 222.344 276.28 222.878 276.03C224.748 275.142 226.478 275.217 228.066 275.844ZM223.462 277.246C223.459 277.255 223.455 277.271 223.454 277.296C223.451 277.338 223.457 277.39 223.474 277.443C223.491 277.496 223.515 277.536 223.534 277.56L223.537 277.563L223.539 277.566C224.995 279.369 226.706 281.098 228.515 282.773L230.378 284.498L227.905 283.925C226.13 283.515 224.364 283.307 222.564 283.452C220.989 283.586 219.281 284.178 217.992 285.185C216.718 286.181 215.878 287.555 215.913 289.304C215.917 289.393 215.945 289.429 215.963 289.447C215.986 289.47 216.036 289.502 216.123 289.513C217.649 289.67 219.184 289.737 220.739 289.804L220.745 289.805C222.293 289.872 223.863 289.94 225.428 290.102L228.825 290.455L225.549 291.421C225.465 291.445 225.381 291.47 225.297 291.495C222.939 292.189 220.473 292.915 218.567 294.115C216.637 295.329 215.351 296.982 215.374 299.571L215.374 299.574V299.577C215.374 299.586 215.376 299.611 215.391 299.647C215.405 299.682 215.425 299.715 215.447 299.74C215.456 299.751 215.464 299.758 215.47 299.763C217.472 299.547 219.27 298.768 221.141 297.957C221.464 297.817 221.79 297.676 222.119 297.537C224.319 296.607 226.655 295.775 229.314 296.213L231.376 296.553L229.504 297.483C224.685 299.876 220.723 303.92 221.291 309.766L221.291 309.77L221.291 309.773C221.299 309.864 221.324 309.916 221.342 309.942C221.36 309.968 221.376 309.979 221.387 309.983C221.397 309.988 221.414 309.992 221.44 309.987C221.466 309.983 221.511 309.968 221.57 309.921C225.096 306.918 229.371 304.023 234.435 305.09C234.898 305.186 235.378 305.301 235.857 305.416C235.914 305.43 235.971 305.444 236.029 305.457C236.569 305.587 237.109 305.714 237.648 305.82C238.732 306.032 239.766 306.147 240.704 306.025L240.706 306.025L240.707 306.025C243.658 305.658 246.065 304.341 247.493 301.563L247.494 301.561L247.495 301.559C248.801 299.061 249.183 296.364 248.564 294.181C247.955 292.038 246.368 290.327 243.551 289.73L243.548 289.729L243.545 289.729C243.545 289.728 243.544 289.728 243.544 289.728C243.539 289.73 243.533 289.732 243.523 289.735L243.28 289.827L243.038 289.731C240.724 288.816 238.566 287.638 236.652 285.564L236.65 285.563L236.649 285.561C236.029 284.882 235.438 284.195 234.853 283.515C233.73 282.21 232.63 280.932 231.392 279.782L231.391 279.781C230.131 278.604 228.879 277.615 227.571 277.099C226.299 276.597 224.962 276.536 223.462 277.246Z" fill="#2C2C2C"/>
<path fill-rule="evenodd" clip-rule="evenodd" d="M407.119 316.41C407.119 316.072 407.393 315.799 407.73 315.799H427.854C428.191 315.799 428.465 316.072 428.465 316.41C428.465 316.747 428.191 317.02 427.854 317.02H407.73C407.393 317.02 407.119 316.747 407.119 316.41Z" fill="#2C2C2C"/>
<path fill-rule="evenodd" clip-rule="evenodd" d="M27.6377 316.41C27.6377 316.072 27.9111 315.799 28.2484 315.799H401.022C401.359 315.799 401.632 316.072 401.632 316.41C401.632 316.747 401.359 317.02 401.022 317.02H28.2484C27.9111 317.02 27.6377 316.747 27.6377 316.41Z" fill="#2C2C2C"/>
<path fill-rule="evenodd" clip-rule="evenodd" d="M1.42822 316.41C1.42822 316.072 1.70165 315.799 2.03893 315.799H15.7903C16.1276 315.799 16.401 316.072 16.401 316.41C16.401 316.747 16.1276 317.02 15.7903 317.02H2.03893C1.70165 317.02 1.42822 316.747 1.42822 316.41Z" fill="#2C2C2C"/>
<path d="M122.129 250.441H268.02C269.765 250.441 271.439 251.134 272.673 252.369C273.907 253.603 274.601 255.277 274.601 257.022V338.984H115.547V257.022C115.547 255.277 116.241 253.603 117.475 252.369C118.709 251.134 120.383 250.441 122.129 250.441Z" fill="white"/>
<path fill-rule="evenodd" clip-rule="evenodd" d="M122.129 251.28C120.606 251.28 119.145 251.885 118.069 252.962C116.992 254.039 116.387 255.5 116.387 257.023V338.145H273.762V257.023C273.762 255.5 273.157 254.039 272.08 252.962C271.004 251.885 269.543 251.28 268.02 251.28H122.129ZM116.882 251.776C118.274 250.384 120.161 249.603 122.129 249.603H268.02C269.988 249.603 271.875 250.384 273.267 251.776C274.658 253.167 275.44 255.055 275.44 257.023V338.984C275.44 339.447 275.064 339.823 274.601 339.823H115.548C115.085 339.823 114.709 339.447 114.709 338.984V257.023C114.709 255.055 115.491 253.167 116.882 251.776Z" fill="#2C2C2C"/>
<path d="M274.601 279.898C254.62 284.965 234.113 297.865 195.903 316.028C159.049 333.561 128.881 333.258 115.547 331.902V338.984H274.601V279.898Z" fill="#2C2C2C"/>
<path fill-rule="evenodd" clip-rule="evenodd" d="M275.116 279.236C275.321 279.395 275.44 279.64 275.44 279.898V338.984C275.44 339.447 275.064 339.823 274.601 339.823H115.548C115.085 339.823 114.709 339.447 114.709 338.984V331.903C114.709 331.665 114.809 331.439 114.985 331.28C115.162 331.121 115.397 331.044 115.633 331.068C128.852 332.412 158.859 332.723 195.543 315.271L195.544 315.271C208.129 309.289 218.777 303.885 228.132 299.138C232.978 296.679 237.476 294.397 241.717 292.3C254.124 286.168 264.313 281.642 274.395 279.085C274.646 279.022 274.912 279.077 275.116 279.236ZM196.264 316.787C160.065 334.007 130.265 334.109 116.387 332.827V338.145H273.762V280.984C264.199 283.538 254.418 287.895 242.46 293.804C238.248 295.886 233.763 298.162 228.925 300.617C219.557 305.371 208.865 310.796 196.264 316.787Z" fill="#2C2C2C"/>
<path d="M274.601 334.074H115.547V338.997H274.601V334.074Z" fill="white"/>
<path fill-rule="evenodd" clip-rule="evenodd" d="M114.709 334.075C114.709 333.611 115.085 333.236 115.548 333.236H274.601C275.064 333.236 275.44 333.611 275.44 334.075V338.997C275.44 339.461 275.064 339.836 274.601 339.836H115.548C115.085 339.836 114.709 339.461 114.709 338.997V334.075ZM116.387 334.913V338.159H273.762V334.913H116.387Z" fill="#2C2C2C"/>
<path d="M72.4685 340.429C72.4695 342.04 71.8987 343.6 70.8577 344.83C69.8167 346.06 68.373 346.881 66.7835 347.146C47.2192 350.447 27.2402 350.447 7.67593 347.146C6.09319 346.874 4.65801 346.05 3.62479 344.82C2.59157 343.591 2.02705 342.035 2.03127 340.429V275.112H72.5008L72.4685 340.429Z" fill="#50BFD7"/>
<path opacity="0.3" d="M1.99268 276.289V285.457C6.23423 287.03 20.1604 288.183 37.2315 288.183C54.3025 288.183 68.2529 287.03 72.4703 285.457V276.289H1.99268Z" fill="black"/>
<path d="M73.7918 283.28C73.7918 285.352 57.7932 287.029 37.2305 287.029C16.6679 287.029 0.669309 285.352 0.669309 283.28L0 275.135H74.5014L73.7918 283.28Z" fill="#50BFD7"/>
<path d="M37.2305 278.878C57.7924 278.878 74.4611 277.203 74.4611 275.136C74.4611 273.07 57.7924 271.395 37.2305 271.395C16.6687 271.395 0 273.07 0 275.136C0 277.203 16.6687 278.878 37.2305 278.878Z" fill="#50BFD7"/>
<path opacity="0.3" d="M37.2305 278.878C57.7924 278.878 74.4611 277.203 74.4611 275.136C74.4611 273.07 57.7924 271.395 37.2305 271.395C16.6687 271.395 0 273.07 0 275.136C0 277.203 16.6687 278.878 37.2305 278.878Z" fill="black"/>
<path opacity="0.2" d="M11.4431 335.832C10.7187 335.83 10.0247 335.541 9.51248 335.029C9.00029 334.517 8.7116 333.823 8.70947 333.098V295.65C8.7116 294.926 9.00029 294.232 9.51248 293.72C10.0247 293.207 10.7187 292.919 11.4431 292.917C12.1668 292.921 12.8596 293.21 13.3714 293.722C13.8831 294.234 14.1725 294.926 14.1767 295.65V333.098C14.1725 333.822 13.8831 334.515 13.3714 335.027C12.8596 335.538 12.1668 335.828 11.4431 335.832Z" fill="black"/>
<path opacity="0.2" d="M63.0261 335.832C62.3017 335.83 61.6077 335.541 61.0955 335.029C60.5833 334.517 60.2946 333.823 60.2925 333.098V295.65C60.2946 294.926 60.5833 294.232 61.0955 293.72C61.6077 293.207 62.3017 292.919 63.0261 292.917C63.7498 292.921 64.4426 293.21 64.9544 293.722C65.4661 294.234 65.7555 294.926 65.7597 295.65V333.098C65.7555 333.822 65.4661 334.515 64.9544 335.027C64.4426 335.538 63.7498 335.828 63.0261 335.832Z" fill="black"/>
<path opacity="0.2" d="M45.8279 335.832C45.1042 335.828 44.4113 335.538 43.8996 335.027C43.3878 334.515 43.0985 333.822 43.0942 333.098V295.65C43.0985 294.926 43.3878 294.234 43.8996 293.722C44.4113 293.21 45.1042 292.921 45.8279 292.917C46.5522 292.919 47.2463 293.207 47.7585 293.72C48.2707 294.232 48.5594 294.926 48.5615 295.65V333.098C48.5594 333.823 48.2707 334.517 47.7585 335.029C47.2463 335.541 46.5522 335.83 45.8279 335.832Z" fill="black"/>
<path opacity="0.2" d="M28.6345 335.832C27.9108 335.828 27.2179 335.538 26.7062 335.027C26.1945 334.515 25.9051 333.822 25.9009 333.098V295.65C25.9051 294.926 26.1945 294.234 26.7062 293.722C27.2179 293.21 27.9108 292.921 28.6345 292.917C29.3588 292.919 30.0529 293.207 30.5651 293.72C31.0773 294.232 31.366 294.926 31.3681 295.65V333.098C31.366 333.823 31.0773 334.517 30.5651 335.029C30.0529 335.541 29.3588 335.83 28.6345 335.832Z" fill="black"/>
<path d="M212.796 151.889C212.796 155.452 209.095 158.34 204.531 158.34C199.966 158.34 196.265 155.452 196.265 151.889C196.265 148.326 199.966 145.438 204.531 145.438C209.095 145.438 212.796 148.326 212.796 151.889Z" fill="white"/>
<path fill-rule="evenodd" clip-rule="evenodd" d="M204.531 156.727C208.6 156.727 211.183 154.212 211.183 151.889C211.183 149.566 208.6 147.051 204.531 147.051C200.461 147.051 197.878 149.566 197.878 151.889C197.878 154.212 200.461 156.727 204.531 156.727ZM204.531 158.34C209.095 158.34 212.796 155.452 212.796 151.889C212.796 148.326 209.095 145.438 204.531 145.438C199.966 145.438 196.265 148.326 196.265 151.889C196.265 155.452 199.966 158.34 204.531 158.34Z" fill="#454545"/>
</svg>
