<svg width="468" height="350" viewBox="0 0 468 350" fill="none" xmlns="http://www.w3.org/2000/svg">
<path d="M358.429 98.6047C358.429 98.6047 345.035 46.7317 263.95 14.0178C182.864 -18.6961 110.322 11.6028 93.7839 49.9364C77.2461 88.27 94.5779 108.97 83.5421 141.707C72.5063 174.444 15.8107 215.906 38.6922 266.184C61.5737 316.462 168.645 330.822 255.288 320.449C341.931 310.076 409.623 195.159 358.429 98.6047Z" fill="#50BFD7"/>
<path opacity="0.7" d="M358.429 98.6047C358.429 98.6047 345.035 46.7317 263.95 14.0178C182.864 -18.6961 110.322 11.6028 93.7839 49.9364C77.2461 88.27 94.5779 108.97 83.5421 141.707C72.5063 174.444 15.8107 215.906 38.6922 266.184C61.5737 316.462 168.645 330.822 255.288 320.449C341.931 310.076 409.623 195.159 358.429 98.6047Z" fill="white"/>
<path d="M467.206 233.913C467.206 232.438 467.134 151.235 467.029 25.9482L467.206 26.1014H219.841L220.051 25.8918C220.051 101.256 220.051 172.338 220.051 233.857L219.858 233.672L467.247 233.857L219.858 234.042H219.648V233.857C219.648 172.338 219.648 101.256 219.648 25.8918V25.6821H219.882H467.247H467.424V25.8595C467.311 151.235 467.206 232.438 467.206 233.913Z" fill="#FAFAFA"/>
<path d="M467.238 25.9478H219.849V233.913H467.238V25.9478Z" fill="#FAFAFA"/>
<path d="M309.165 40.3091H220.334V60.6702H309.165V40.3091Z" fill="#EBEBEB"/>
<path d="M242.735 56.7446C242.735 56.7446 242.735 56.4785 242.735 55.9947C242.735 55.5108 242.735 54.7931 242.735 53.9464C242.735 52.1402 242.687 49.6404 242.647 46.6245L242.816 46.7939H228.084L228.293 46.5842V51.8337C228.293 53.5271 228.293 55.148 228.293 56.672L228.1 56.4785L238.671 56.5752L241.719 56.6317H242.526H242.824C242.479 56.6701 242.131 56.6862 241.784 56.6801L238.776 56.7285L228.084 56.8252H227.898V56.7446C227.898 55.2044 227.898 53.5836 227.898 51.9063V49.3098C227.898 48.8743 227.898 48.4308 227.898 47.9873V46.6084C227.713 46.7939 228.156 46.3504 228.116 46.3987H242.848H243.018V46.5681C243.018 49.6323 242.953 52.1643 242.929 53.9948C242.929 54.8012 242.929 55.4947 242.929 56.0108C242.888 56.261 242.823 56.5068 242.735 56.7446Z" fill="#263238"/>
<path d="M242.735 46.5911C242.735 46.5911 242.566 46.8249 242.211 47.1878C241.856 47.5507 241.332 48.0587 240.679 48.6877C239.373 49.9456 237.542 51.6632 235.51 53.5259C234.938 53.5259 235.349 53.5259 235.22 53.5259H235.171L235.075 53.4372L234.889 53.2598L234.51 52.9131L233.784 52.2357L232.406 50.9536L230.059 48.6796C229.406 48.0506 228.882 47.5426 228.519 47.1797C228.318 47.0051 228.142 46.8044 227.995 46.583C227.995 46.583 228.245 46.7282 228.632 47.0588C229.019 47.3894 229.575 47.8652 230.244 48.4619L232.615 50.5907L234.002 51.8567L234.736 52.526L235.115 52.8728L235.3 53.0502L235.397 53.1308L235.446 53.1792H235.188C237.22 51.3084 239.074 49.6231 240.437 48.4216C241.114 47.8248 241.671 47.341 242.05 47.0185C242.257 46.8438 242.487 46.6998 242.735 46.5911Z" fill="#263238"/>
<path d="M232.905 51.0991C232.249 52.1687 231.475 53.1613 230.598 54.0585C229.829 55.0498 228.95 55.9506 227.978 56.7438C228.635 55.6777 229.408 54.6879 230.284 53.7924C231.054 52.7999 231.933 51.8966 232.905 51.0991Z" fill="#263238"/>
<path d="M242.83 56.8324C241.879 55.9856 241.025 55.0364 240.282 54.002C239.43 53.0512 238.683 52.0102 238.057 50.8975C239.009 51.746 239.864 52.698 240.605 53.7359C241.458 54.6831 242.205 55.7216 242.83 56.8324Z" fill="#263238"/>
<path d="M298.963 50.132C298.963 50.253 288.561 50.3417 275.739 50.3417C262.918 50.3417 252.523 50.253 252.523 50.132C252.523 50.0111 262.918 49.9224 275.739 49.9224C288.561 49.9224 298.963 50.0191 298.963 50.132Z" fill="#263238"/>
<path d="M467.24 130.754H308.037V165.638H467.24V130.754Z" fill="#50BFD7"/>
<g opacity="0.8">
<path opacity="0.8" d="M467.238 130.754H308.035V165.638H467.238V130.754Z" fill="white"/>
</g>
<path d="M329.534 141.655H320.091C319.089 141.655 318.277 142.468 318.277 143.47V152.912C318.277 153.914 319.089 154.727 320.091 154.727H329.534C330.536 154.727 331.348 153.914 331.348 152.912V143.47C331.348 142.468 330.536 141.655 329.534 141.655Z" fill="#50BFD7"/>
<path d="M323.823 151.089C323.649 151.089 323.479 151.033 323.34 150.928L320.703 148.944C320.608 148.885 320.526 148.807 320.463 148.714C320.4 148.622 320.357 148.517 320.336 148.407C320.316 148.297 320.319 148.184 320.344 148.075C320.37 147.966 320.418 147.864 320.485 147.774C320.553 147.685 320.638 147.611 320.736 147.556C320.834 147.501 320.942 147.468 321.053 147.457C321.165 147.447 321.277 147.46 321.383 147.495C321.49 147.53 321.587 147.587 321.67 147.662L323.727 149.203L327.855 144.719C328.001 144.562 328.203 144.469 328.417 144.461C328.631 144.452 328.839 144.529 328.996 144.675C329.154 144.82 329.247 145.022 329.255 145.236C329.263 145.45 329.186 145.659 329.041 145.816L324.42 150.831C324.344 150.913 324.252 150.979 324.149 151.023C324.046 151.068 323.935 151.09 323.823 151.089Z" fill="white"/>
<path d="M467.24 95.6914H308.037V130.575H467.24V95.6914Z" fill="#50BFD7"/>
<path d="M466.279 130.704C466.279 130.825 431.105 130.914 387.722 130.914C344.338 130.914 309.164 130.825 309.164 130.704C309.164 130.583 344.33 130.495 387.722 130.495C431.113 130.495 466.279 130.591 466.279 130.704Z" fill="#263238"/>
<path d="M467.327 200.489H308.124V233.914H467.327V200.489Z" fill="#50BFD7"/>
<g opacity="0.8">
<path opacity="0.8" d="M467.327 200.49H308.124V233.914H467.327V200.49Z" fill="white"/>
</g>
<path d="M329.614 211.399H320.171C319.169 211.399 318.357 212.211 318.357 213.213V222.656C318.357 223.658 319.169 224.47 320.171 224.47H329.614C330.616 224.47 331.428 223.658 331.428 222.656V213.213C331.428 212.211 330.616 211.399 329.614 211.399Z" fill="#50BFD7"/>
<path d="M323.904 220.842C323.729 220.842 323.559 220.785 323.42 220.68L320.783 218.697C320.612 218.568 320.499 218.377 320.469 218.166C320.438 217.954 320.493 217.739 320.622 217.568C320.75 217.397 320.941 217.284 321.153 217.253C321.365 217.223 321.58 217.278 321.751 217.406L323.807 218.955L327.936 214.471C328.005 214.385 328.091 214.315 328.188 214.263C328.286 214.212 328.393 214.181 328.503 214.173C328.613 214.165 328.724 214.179 328.828 214.215C328.932 214.252 329.028 214.309 329.109 214.383C329.19 214.458 329.255 214.548 329.3 214.649C329.345 214.75 329.369 214.859 329.37 214.969C329.371 215.079 329.349 215.189 329.307 215.29C329.264 215.392 329.201 215.484 329.121 215.56L324.476 220.584C324.403 220.663 324.314 220.726 324.216 220.771C324.118 220.815 324.012 220.839 323.904 220.842Z" fill="white"/>
<g opacity="0.8">
<path opacity="0.8" d="M467.238 95.6914H308.035V130.575H467.238V95.6914Z" fill="white"/>
</g>
<path d="M329.534 106.595H320.091C319.089 106.595 318.277 107.407 318.277 108.409V117.852C318.277 118.854 319.089 119.666 320.091 119.666H329.534C330.536 119.666 331.348 118.854 331.348 117.852V108.409C331.348 107.407 330.536 106.595 329.534 106.595Z" fill="#50BFD7"/>
<path d="M323.823 116.037C323.649 116.037 323.479 115.981 323.34 115.876L320.703 113.892C320.608 113.833 320.526 113.755 320.463 113.662C320.4 113.57 320.357 113.465 320.336 113.355C320.316 113.245 320.319 113.132 320.344 113.023C320.37 112.914 320.418 112.812 320.485 112.722C320.553 112.633 320.638 112.558 320.736 112.504C320.834 112.449 320.942 112.416 321.053 112.405C321.165 112.395 321.277 112.407 321.383 112.443C321.49 112.478 321.587 112.535 321.67 112.61L323.727 114.15L327.855 109.667C328 109.51 328.201 109.417 328.414 109.408C328.627 109.399 328.835 109.475 328.992 109.619C329.071 109.69 329.135 109.777 329.18 109.873C329.225 109.97 329.251 110.075 329.255 110.181C329.26 110.287 329.243 110.394 329.206 110.494C329.17 110.594 329.113 110.686 329.041 110.764L324.42 115.779C324.344 115.861 324.252 115.927 324.149 115.971C324.046 116.016 323.935 116.038 323.823 116.037Z" fill="white"/>
<path d="M467.206 233.913C467.206 232.438 467.134 151.235 467.029 25.9482L467.206 26.1014H219.841L220.051 25.8918C220.051 101.256 220.051 172.338 220.051 233.857L219.858 233.672L467.247 233.857L219.858 234.042H219.648V233.857C219.648 172.338 219.648 101.256 219.648 25.8918V25.6821H219.882H467.247H467.424V25.8595C467.311 151.235 467.206 232.438 467.206 233.913Z" fill="#50BFD7"/>
<path d="M220.334 40.3098C220.334 40.1888 275.499 40.1001 343.541 40.1001C411.583 40.1001 466.764 40.1888 466.764 40.3098C466.764 40.4307 411.608 40.5194 343.541 40.5194C275.475 40.5194 220.334 40.4227 220.334 40.3098Z" fill="#50BFD7"/>
<path d="M227.865 35.5042C229.325 35.5042 230.51 34.32 230.51 32.8593C230.51 31.3985 229.325 30.2144 227.865 30.2144C226.404 30.2144 225.22 31.3985 225.22 32.8593C225.22 34.32 226.404 35.5042 227.865 35.5042Z" fill="#50BFD7"/>
<path d="M235.219 35.5042C236.68 35.5042 237.864 34.32 237.864 32.8593C237.864 31.3985 236.68 30.2144 235.219 30.2144C233.758 30.2144 232.574 31.3985 232.574 32.8593C232.574 34.32 233.758 35.5042 235.219 35.5042Z" fill="#50BFD7"/>
<path d="M245.251 30.9886C245.62 31.3586 245.872 31.8299 245.974 32.3429C246.076 32.8559 246.023 33.3876 245.823 33.8708C245.623 34.354 245.284 34.767 244.849 35.0576C244.414 35.3482 243.903 35.5032 243.38 35.5032C242.857 35.5032 242.345 35.3482 241.911 35.0576C241.476 34.767 241.137 34.354 240.936 33.8708C240.736 33.3876 240.684 32.8559 240.786 32.3429C240.887 31.8299 241.139 31.3586 241.509 30.9886C241.755 30.7428 242.046 30.5479 242.367 30.4149C242.688 30.2818 243.032 30.2134 243.38 30.2134C243.727 30.2134 244.071 30.2818 244.392 30.4149C244.713 30.5479 245.005 30.7428 245.251 30.9886Z" fill="#50BFD7"/>
<path d="M252.71 68.8395C252.9 68.816 253.092 68.816 253.282 68.8395L254.96 68.7911L261.104 68.7104H261.185L261.233 68.775L263.943 72.3392L263.983 72.3956V72.4601C263.983 74.0729 263.983 75.863 263.983 77.7177V77.9274H261.306H250.242H250.065V77.7096C250.065 75.8872 250.065 74.2664 250.113 72.8714L252 69.912C252.212 69.5384 252.449 69.1801 252.71 68.8395C252.675 68.9475 252.626 69.0504 252.565 69.1459L252.105 69.9523L250.363 72.9278V72.8552C250.363 74.2261 250.363 75.8469 250.404 77.6935L250.226 77.5161H261.29H263.765L263.556 77.7258C263.556 75.8711 263.556 74.0971 263.556 72.4682L263.596 72.5811L260.935 68.9927L261.072 69.0572L254.992 68.9766H253.299C253.099 68.9485 252.902 68.9027 252.71 68.8395Z" fill="#263238"/>
<path d="M263.796 72.6934C263.415 72.7961 263.022 72.8503 262.627 72.8547C261.885 72.9192 260.821 72.9918 259.555 73.0724L259.724 72.895C259.693 73.5689 259.473 74.2203 259.087 74.7739C258.877 75.0779 258.601 75.3314 258.281 75.5157C257.926 75.6797 257.542 75.7702 257.152 75.7819C256.736 75.799 256.322 75.7241 255.938 75.5624C255.555 75.4007 255.212 75.1562 254.934 74.8465C254.472 74.2928 254.161 73.6288 254.031 72.9192L254.209 73.0644C253.031 73.0644 252.047 73.024 251.362 72.9918C251.001 72.9988 250.64 72.9582 250.29 72.8708C250.642 72.7947 251.002 72.7622 251.362 72.7741C252.047 72.7741 253.031 72.7176 254.209 72.6934H254.321V72.8466C254.459 73.4775 254.749 74.0648 255.168 74.5562C255.406 74.8228 255.7 75.0334 256.029 75.1728C256.358 75.3122 256.714 75.377 257.071 75.3625C257.401 75.3613 257.726 75.2869 258.023 75.1448C258.302 75.0002 258.545 74.7933 258.732 74.54C259.075 74.0518 259.281 73.4812 259.329 72.887V72.7176H259.482C260.756 72.6773 261.821 72.6531 262.571 72.645C262.98 72.6091 263.392 72.6254 263.796 72.6934Z" fill="#263238"/>
<path d="M294.11 69.2824C294.335 69.2317 294.565 69.21 294.795 69.2179V69.3469C293.183 69.4276 288.191 69.4921 282.337 69.4921C278.708 69.4921 275.418 69.4921 273.039 69.4276L270.225 69.3631C269.879 69.3747 269.533 69.3476 269.193 69.2824C269.533 69.2172 269.879 69.1902 270.225 69.2018L273.039 69.1373C275.418 69.0969 278.684 69.0728 282.337 69.0728C288.191 69.0728 293.15 69.1373 294.795 69.2179V69.3469C294.565 69.3602 294.334 69.3385 294.11 69.2824Z" fill="#263238"/>
<path d="M294.11 74.5656C294.334 74.5096 294.565 74.4878 294.795 74.5011V74.6301C293.183 74.7108 288.191 74.7753 282.337 74.7753C278.708 74.7753 275.418 74.7753 273.039 74.7108L270.225 74.6463C269.879 74.6527 269.534 74.6257 269.193 74.5656C269.533 74.4996 269.879 74.4699 270.225 74.4769L273.039 74.4124C275.418 74.4124 278.684 74.356 282.337 74.356C288.191 74.356 293.15 74.4124 294.795 74.5011V74.6301C294.565 74.6327 294.336 74.6111 294.11 74.5656Z" fill="#263238"/>
<path d="M294.11 79.8381C294.335 79.7873 294.565 79.7657 294.795 79.7736V79.9026C293.183 79.9913 288.191 80.0477 282.337 80.0477C278.708 80.0477 275.418 80.0477 273.039 79.9913L270.225 79.9187C269.879 79.9303 269.533 79.9033 269.193 79.8381C269.534 79.778 269.879 79.751 270.225 79.7574L273.039 79.6929C275.418 79.6526 278.684 79.6284 282.337 79.6284C288.191 79.6284 293.15 79.6929 294.795 79.7736V79.9026C294.565 79.9159 294.334 79.8941 294.11 79.8381Z" fill="#263238"/>
<path d="M252.71 106.634C252.898 106.596 253.09 106.58 253.282 106.586L254.96 106.545L261.104 106.465H261.185L261.233 106.529L263.943 110.094L263.983 110.15V110.215C263.983 111.827 263.983 113.617 263.983 115.472V115.682H261.306H250.242H250.065V115.504C250.065 113.682 250.065 112.061 250.113 110.666V110.626L252 107.666C252.207 107.318 252.436 106.984 252.686 106.666C252.651 106.774 252.602 106.877 252.541 106.973L252.081 107.779L250.371 110.771V110.698C250.371 112.069 250.371 113.69 250.412 115.537L250.234 115.359H261.298H263.773L263.564 115.569C263.564 113.714 263.564 111.94 263.564 110.311L263.604 110.424L260.943 106.836L261.08 106.9L255 106.82H253.307C253.102 106.776 252.903 106.714 252.71 106.634Z" fill="#263238"/>
<path d="M263.796 110.464C263.415 110.567 263.022 110.621 262.627 110.626C261.885 110.69 260.821 110.763 259.555 110.843L259.724 110.666C259.693 111.34 259.473 111.991 259.087 112.545C258.877 112.849 258.601 113.102 258.281 113.287C257.926 113.451 257.542 113.541 257.152 113.553C256.736 113.57 256.322 113.495 255.938 113.333C255.555 113.172 255.212 112.927 254.934 112.618C254.472 112.064 254.161 111.4 254.031 110.69L254.209 110.835C253.031 110.835 252.047 110.795 251.362 110.763C251.001 110.775 250.641 110.74 250.29 110.658C250.642 110.581 251.002 110.546 251.362 110.553L254.209 110.481H254.321V110.634C254.459 111.265 254.749 111.852 255.168 112.343C255.406 112.61 255.7 112.821 256.029 112.96C256.358 113.099 256.714 113.164 257.071 113.15C257.401 113.148 257.726 113.074 258.023 112.932C258.302 112.787 258.545 112.581 258.732 112.327C259.075 111.839 259.281 111.268 259.329 110.674V110.505H259.482C260.756 110.505 261.821 110.44 262.571 110.432C262.979 110.391 263.391 110.402 263.796 110.464Z" fill="#263238"/>
<path d="M294.11 107.053C294.335 107.003 294.565 106.981 294.795 106.989V107.118C293.183 107.199 288.191 107.263 282.337 107.263C278.708 107.263 275.418 107.263 273.039 107.199L270.225 107.134C269.879 107.146 269.533 107.119 269.193 107.053C269.533 106.988 269.879 106.961 270.225 106.973L273.039 106.908C275.418 106.868 278.684 106.844 282.337 106.844C288.191 106.844 293.15 106.908 294.795 106.989V107.118C294.565 107.126 294.335 107.104 294.11 107.053Z" fill="#263238"/>
<path d="M294.11 112.335C294.334 112.279 294.565 112.257 294.795 112.271V112.384C293.183 112.464 288.191 112.529 282.337 112.529C278.708 112.529 275.418 112.529 273.039 112.464L270.225 112.4C269.879 112.406 269.534 112.379 269.193 112.319C269.533 112.253 269.879 112.223 270.225 112.23L273.039 112.166C275.418 112.125 278.684 112.109 282.337 112.109C288.191 112.109 293.15 112.166 294.795 112.255V112.384C294.566 112.391 294.336 112.375 294.11 112.335Z" fill="#263238"/>
<path d="M294.11 117.61C294.335 117.559 294.565 117.537 294.795 117.545V117.674C293.183 117.763 288.191 117.819 282.337 117.819C278.708 117.819 275.418 117.819 273.039 117.763L270.225 117.69C269.879 117.702 269.533 117.675 269.193 117.61C269.534 117.549 269.879 117.523 270.225 117.529L273.039 117.464C275.418 117.424 278.684 117.4 282.337 117.4C288.191 117.4 293.15 117.464 294.795 117.545V117.674C294.565 117.687 294.334 117.666 294.11 117.61Z" fill="#263238"/>
<path d="M252.71 144.405C252.898 144.367 253.09 144.351 253.282 144.357L254.96 144.316L261.104 144.236H261.185L261.233 144.3L263.943 147.865L263.983 147.921V147.985C263.983 149.598 263.983 151.388 263.983 153.243V153.453H261.306H250.242H250.065V153.275C250.065 151.453 250.065 149.832 250.113 148.437L252 145.478C252.207 145.13 252.436 144.796 252.686 144.478C252.651 144.586 252.602 144.689 252.541 144.784L252.081 145.591L250.339 148.566V148.494C250.339 149.864 250.339 151.485 250.379 153.332L250.202 153.154H261.266H263.741L263.531 153.364C263.531 151.509 263.531 149.735 263.531 148.106L263.572 148.219L260.911 144.631L261.048 144.695L254.968 144.615H253.274C253.08 144.562 252.891 144.492 252.71 144.405Z" fill="#263238"/>
<path d="M263.796 148.236C263.415 148.339 263.022 148.393 262.627 148.397C261.885 148.462 260.821 148.534 259.555 148.615L259.724 148.438C259.693 149.111 259.473 149.763 259.087 150.316C258.877 150.62 258.601 150.874 258.281 151.058C257.927 151.223 257.542 151.311 257.152 151.316C256.736 151.337 256.322 151.264 255.938 151.104C255.554 150.943 255.211 150.699 254.934 150.389C254.472 149.835 254.161 149.171 254.031 148.462L254.209 148.607C253.031 148.607 252.047 148.607 251.362 148.534C251.001 148.547 250.641 148.511 250.29 148.43C250.642 148.353 251.002 148.317 251.362 148.325L254.209 148.252H254.321V148.405C254.459 149.036 254.749 149.623 255.168 150.115C255.406 150.381 255.7 150.592 256.029 150.732C256.358 150.871 256.714 150.936 257.071 150.921C257.401 150.92 257.726 150.846 258.023 150.704C258.302 150.559 258.545 150.352 258.732 150.099C259.075 149.611 259.281 149.04 259.329 148.446V148.276H259.482C260.756 148.228 261.821 148.212 262.571 148.204C262.979 148.162 263.391 148.173 263.796 148.236Z" fill="#263238"/>
<path d="M294.11 144.824C294.335 144.773 294.565 144.751 294.795 144.759V144.888C293.183 144.969 288.191 145.034 282.337 145.034C278.708 145.034 275.418 145.034 273.039 144.969L270.225 144.905C269.879 144.916 269.533 144.889 269.193 144.824C269.533 144.759 269.879 144.732 270.225 144.743L273.039 144.679C275.418 144.638 278.684 144.614 282.337 144.614C288.191 144.614 293.15 144.679 294.795 144.759V144.888C294.565 144.896 294.335 144.875 294.11 144.824Z" fill="#263238"/>
<path d="M294.11 150.107C294.334 150.051 294.565 150.029 294.795 150.043V150.172C293.183 150.252 288.191 150.317 282.337 150.317C278.708 150.317 275.418 150.317 273.039 150.252L270.225 150.188C269.879 150.194 269.534 150.167 269.193 150.107C269.533 150.041 269.879 150.011 270.225 150.018L273.039 149.954C275.418 149.914 278.684 149.897 282.337 149.897C288.191 149.897 293.15 149.954 294.795 150.043V150.172C294.565 150.174 294.336 150.153 294.11 150.107Z" fill="#263238"/>
<path d="M294.11 155.381C294.335 155.33 294.565 155.308 294.795 155.316V155.445C293.183 155.534 288.191 155.59 282.337 155.59C278.708 155.59 275.418 155.59 273.039 155.534L270.225 155.461C269.879 155.473 269.533 155.446 269.193 155.381C269.534 155.321 269.879 155.293 270.225 155.3L273.039 155.235C275.418 155.235 278.684 155.171 282.337 155.171C288.191 155.171 293.15 155.235 294.795 155.316V155.445C294.565 155.458 294.334 155.437 294.11 155.381Z" fill="#263238"/>
<path d="M454.4 120.084H448.255C447.934 120.09 447.615 120.031 447.317 119.912C447.019 119.793 446.748 119.616 446.519 119.39C446.29 119.165 446.108 118.897 445.984 118.601C445.86 118.304 445.796 117.986 445.796 117.665V107.424H446.602V117.633C446.602 117.848 446.645 118.061 446.729 118.26C446.812 118.458 446.935 118.638 447.089 118.788C447.243 118.938 447.425 119.056 447.626 119.135C447.826 119.213 448.04 119.251 448.255 119.246H454.4C454.828 119.246 455.238 119.076 455.54 118.773C455.843 118.471 456.013 118.061 456.013 117.633V107.779H456.819V117.633C456.823 117.953 456.764 118.272 456.644 118.569C456.525 118.866 456.347 119.136 456.122 119.365C455.897 119.593 455.629 119.774 455.333 119.897C455.038 120.021 454.72 120.084 454.4 120.084Z" fill="#50BFD7"/>
<path d="M457.869 107.481H444.79V108.288H457.869V107.481Z" fill="#50BFD7"/>
<path d="M448.95 107.883H448.144V106.988C448.144 106.561 448.313 106.15 448.616 105.848C448.918 105.545 449.329 105.375 449.756 105.375H452.982C453.41 105.375 453.82 105.545 454.122 105.848C454.425 106.15 454.595 106.561 454.595 106.988V107.706H453.788V106.988C453.788 106.774 453.703 106.569 453.552 106.418C453.401 106.267 453.196 106.182 452.982 106.182H449.756C449.542 106.182 449.337 106.267 449.186 106.418C449.035 106.569 448.95 106.774 448.95 106.988V107.883Z" fill="#50BFD7"/>
<path d="M449.465 117.07C449.258 115.926 449.188 114.762 449.255 113.602C449.188 112.445 449.258 111.284 449.465 110.143C449.677 111.283 449.747 112.445 449.675 113.602C449.747 114.762 449.677 115.927 449.465 117.07Z" fill="#50BFD7"/>
<path d="M451.361 117.07C451.154 115.926 451.084 114.762 451.151 113.602C451.084 112.445 451.154 111.284 451.361 110.143C451.573 111.283 451.643 112.445 451.571 113.602C451.643 114.762 451.573 115.927 451.361 117.07Z" fill="#50BFD7"/>
<path d="M453.271 117.07C453.064 115.926 452.994 114.762 453.061 113.602C452.994 112.445 453.064 111.284 453.271 110.143C453.483 111.283 453.553 112.445 453.481 113.602C453.553 114.762 453.483 115.927 453.271 117.07Z" fill="#50BFD7"/>
<path d="M454.4 153.146H448.255C447.604 153.144 446.979 152.884 446.519 152.424C446.058 151.963 445.798 151.338 445.796 150.687V140.478H446.602V150.687C446.602 151.125 446.776 151.546 447.086 151.856C447.396 152.166 447.817 152.34 448.255 152.34H454.4C454.831 152.329 455.242 152.151 455.543 151.842C455.844 151.533 456.013 151.118 456.013 150.687V140.833H456.819V150.687C456.824 151.008 456.766 151.327 456.647 151.625C456.527 151.923 456.35 152.195 456.125 152.424C455.9 152.652 455.631 152.834 455.335 152.958C455.039 153.082 454.721 153.146 454.4 153.146Z" fill="#50BFD7"/>
<path d="M457.869 140.534H444.79V141.341H457.869V140.534Z" fill="#50BFD7"/>
<path d="M448.95 140.938H448.144V140.042C448.144 139.615 448.313 139.205 448.616 138.902C448.918 138.6 449.329 138.43 449.756 138.43H452.982C453.41 138.43 453.82 138.6 454.122 138.902C454.425 139.205 454.595 139.615 454.595 140.042V140.76H453.788V140.042C453.788 139.829 453.703 139.623 453.552 139.472C453.401 139.321 453.196 139.236 452.982 139.236H449.756C449.542 139.236 449.337 139.321 449.186 139.472C449.035 139.623 448.95 139.829 448.95 140.042V140.938Z" fill="#50BFD7"/>
<path d="M449.467 150.124C449.188 147.823 449.188 145.497 449.467 143.197C449.747 145.497 449.747 147.823 449.467 150.124Z" fill="#50BFD7"/>
<path d="M451.361 150.124C451.081 147.823 451.081 145.497 451.361 143.197C451.641 145.497 451.641 147.823 451.361 150.124Z" fill="#50BFD7"/>
<path d="M453.274 150.124C452.994 147.823 452.994 145.497 453.274 143.197C453.553 145.497 453.553 147.823 453.274 150.124Z" fill="#50BFD7"/>
<path d="M454.4 225.81H448.255C447.934 225.815 447.615 225.756 447.317 225.637C447.019 225.518 446.748 225.341 446.519 225.115C446.29 224.89 446.108 224.622 445.984 224.326C445.86 224.029 445.796 223.712 445.796 223.39V213.182H446.602V223.39C446.602 223.606 446.645 223.819 446.729 224.017C446.812 224.215 446.935 224.395 447.089 224.545C447.243 224.696 447.425 224.814 447.626 224.892C447.826 224.971 448.04 225.009 448.255 225.003H454.4C454.828 225.003 455.238 224.833 455.54 224.531C455.843 224.228 456.013 223.818 456.013 223.39V213.504H456.819V223.358C456.823 223.679 456.764 223.997 456.644 224.294C456.525 224.591 456.347 224.862 456.122 225.09C455.897 225.318 455.629 225.499 455.333 225.622C455.038 225.746 454.72 225.81 454.4 225.81Z" fill="#50BFD7"/>
<path d="M457.869 213.206H444.79V214.012H457.869V213.206Z" fill="#50BFD7"/>
<path d="M448.95 213.609H448.144V212.706C448.144 212.278 448.313 211.868 448.616 211.565C448.918 211.263 449.329 211.093 449.756 211.093H452.982C453.41 211.093 453.82 211.263 454.122 211.565C454.425 211.868 454.595 212.278 454.595 212.706V213.431H453.788V212.706C453.788 212.492 453.703 212.287 453.552 212.135C453.401 211.984 453.196 211.899 452.982 211.899H449.756C449.542 211.899 449.337 211.984 449.186 212.135C449.035 212.287 448.95 212.492 448.95 212.706V213.609Z" fill="#50BFD7"/>
<path d="M449.467 222.793C449.188 220.493 449.188 218.167 449.467 215.866C449.747 218.167 449.747 220.493 449.467 222.793Z" fill="#50BFD7"/>
<path d="M451.361 222.793C451.081 220.493 451.081 218.167 451.361 215.866C451.641 218.167 451.641 220.493 451.361 222.793Z" fill="#50BFD7"/>
<path d="M453.274 222.793C452.994 220.493 452.994 218.167 453.274 215.866C453.553 218.167 453.553 220.493 453.274 222.793Z" fill="#50BFD7"/>
<path d="M466.28 60.6711C466.28 60.784 431.106 60.8807 387.723 60.8807C344.34 60.8807 309.157 60.7759 309.157 60.6711C309.157 60.5663 344.323 60.4614 387.715 60.4614C431.106 60.4614 466.28 60.5582 466.28 60.6711Z" fill="#263238"/>
<path d="M466.28 95.6916C466.28 95.8045 431.106 95.9013 387.723 95.9013C344.34 95.9013 309.157 95.8045 309.157 95.6916C309.157 95.5787 344.323 95.4819 387.715 95.4819C431.106 95.4819 466.28 95.5706 466.28 95.6916Z" fill="#263238"/>
<path d="M466.28 165.008C466.28 165.121 431.106 165.218 387.723 165.218C344.34 165.218 309.157 165.121 309.157 165.008C309.157 164.895 344.323 164.798 387.715 164.798C431.106 164.798 466.28 164.887 466.28 165.008Z" fill="#263238"/>
<path d="M466.279 200.49C466.279 200.611 431.105 200.7 387.722 200.7C344.338 200.7 309.164 200.611 309.164 200.49C309.164 200.369 344.33 200.28 387.722 200.28C431.113 200.28 466.279 200.377 466.279 200.49Z" fill="#263238"/>
<path d="M329.541 84.9673C329.541 84.9673 329.719 84.9673 330.025 84.8544C330.469 84.7135 330.84 84.4036 331.057 83.9916C331.372 83.4675 331.211 82.6853 331.235 81.7983C331.259 80.9112 331.235 79.9033 331.235 78.7985C331.235 77.6938 331.235 76.46 331.235 75.1618C331.235 74.8311 331.235 74.5005 331.235 74.1619C331.263 73.8397 331.235 73.5152 331.154 73.2023C331.052 72.8944 330.86 72.6242 330.603 72.4272C330.345 72.2301 330.035 72.1152 329.711 72.0975H320.091C319.717 72.1004 319.356 72.2331 319.069 72.4728C318.782 72.7126 318.587 73.0445 318.518 73.4119C318.462 74.1538 318.518 75.0247 318.518 75.831C318.518 77.4438 318.518 78.9759 318.518 80.4516C318.518 81.1854 318.518 81.9031 318.518 82.6046C318.496 82.9307 318.513 83.2581 318.567 83.5804C318.636 83.8856 318.789 84.1651 319.01 84.3867C319.223 84.589 319.484 84.7333 319.768 84.8061C320.058 84.8554 320.353 84.8716 320.647 84.8544H322.397L327.663 84.9189L329.098 84.9593C329.265 84.9553 329.433 84.9689 329.598 84.9996C329.432 85.0222 329.264 85.0222 329.098 84.9996L327.663 85.0399L322.397 85.1125H320.647C320.326 85.1353 320.004 85.119 319.687 85.0641C319.335 84.9846 319.011 84.8092 318.752 84.5573C318.493 84.3055 318.309 83.9869 318.22 83.6368C318.151 83.2864 318.13 82.9285 318.155 82.5724C318.155 81.8708 318.155 81.1532 318.155 80.4193C318.155 78.9437 318.155 77.4035 318.155 75.7988V74.5892C318.128 74.1677 318.128 73.7448 318.155 73.3232C318.25 72.8672 318.499 72.4578 318.86 72.164C319.222 71.8702 319.673 71.71 320.139 71.7105H329.719C330.116 71.7382 330.496 71.8833 330.81 72.1274C331.125 72.3715 331.359 72.7035 331.485 73.0813C331.578 73.4334 331.611 73.7988 331.582 74.1619C331.582 74.5005 331.582 74.8311 331.582 75.1618C331.582 76.46 331.582 77.6777 331.582 78.7985C331.582 79.9194 331.582 80.9112 331.582 81.7983C331.582 82.2418 331.582 82.653 331.582 83.032C331.592 83.3948 331.506 83.7538 331.332 84.0722C331.077 84.5035 330.663 84.8165 330.178 84.9431C329.972 85.0101 329.752 85.0184 329.541 84.9673Z" fill="#263238"/>
<path d="M329.541 189.611C329.541 189.611 329.719 189.611 330.025 189.498C330.469 189.357 330.84 189.047 331.057 188.635C331.372 188.111 331.211 187.329 331.235 186.442C331.259 185.555 331.235 184.547 331.235 183.442C331.235 182.337 331.235 181.104 331.235 179.805C331.235 179.475 331.235 179.144 331.235 178.805C331.263 178.483 331.235 178.159 331.154 177.846C331.052 177.538 330.86 177.268 330.603 177.071C330.345 176.874 330.035 176.759 329.711 176.741H320.091C319.718 176.744 319.358 176.875 319.071 177.113C318.784 177.351 318.589 177.682 318.518 178.047C318.462 178.797 318.518 179.66 318.518 180.467C318.518 182.079 318.518 183.611 318.518 185.087C318.518 185.821 318.518 186.539 318.518 187.232C318.496 187.561 318.512 187.891 318.567 188.216C318.633 188.522 318.787 188.802 319.01 189.022C319.22 189.229 319.482 189.374 319.768 189.442C320.057 189.498 320.353 189.517 320.647 189.498H322.397L327.663 189.563L329.098 189.603C329.264 189.586 329.432 189.586 329.598 189.603C329.434 189.639 329.266 189.653 329.098 189.643L327.663 189.683L322.397 189.748H320.647C320.326 189.771 320.004 189.755 319.687 189.7C319.335 189.62 319.011 189.445 318.752 189.193C318.493 188.941 318.309 188.622 318.22 188.272C318.151 187.919 318.129 187.559 318.155 187.2C318.155 186.506 318.155 185.789 318.155 185.055C318.155 183.579 318.155 182.039 318.155 180.434V179.225C318.128 178.803 318.128 178.38 318.155 177.959C318.242 177.495 318.487 177.077 318.849 176.775C319.211 176.473 319.668 176.307 320.139 176.306H329.719C330.116 176.333 330.496 176.479 330.81 176.723C331.125 176.967 331.359 177.299 331.485 177.677C331.578 178.029 331.611 178.394 331.582 178.757C331.582 179.096 331.582 179.426 331.582 179.757C331.582 181.055 331.582 182.273 331.582 183.394C331.582 184.515 331.582 185.506 331.582 186.393C331.582 186.837 331.582 187.248 331.582 187.627C331.592 187.99 331.506 188.349 331.332 188.667C331.207 188.881 331.041 189.068 330.843 189.216C330.644 189.364 330.419 189.471 330.178 189.53C329.976 189.611 329.757 189.639 329.541 189.611Z" fill="#263238"/>
<path d="M307.995 230.922C307.995 230.922 307.995 230.753 307.995 230.43C307.995 230.108 307.995 229.624 307.995 228.987C307.995 227.696 307.995 225.826 307.995 223.431C307.995 218.592 307.995 211.617 307.995 203.005C307.995 185.765 308.205 161.944 308.447 135.632C308.689 109.32 308.874 85.5076 309.027 68.2511C309.084 59.6389 309.124 52.6638 309.156 47.8255C309.156 45.4063 309.156 43.5597 309.205 42.2776C309.205 41.6486 309.205 41.1729 309.205 40.8342C309.205 40.4955 309.205 40.3423 309.205 40.3423C309.205 40.3423 309.205 40.5036 309.205 40.8342C309.205 41.1648 309.205 41.6406 309.205 42.2776C309.205 43.5597 309.205 45.4305 309.205 47.8255C309.205 52.6638 309.205 59.6389 309.205 68.2511C309.164 85.4915 308.995 109.32 308.745 135.632C308.495 161.944 308.318 185.749 308.173 203.005C308.116 211.617 308.076 218.592 308.043 223.431C308.043 225.85 308.043 227.696 307.995 228.987C307.995 229.608 307.995 230.083 307.995 230.43C307.995 230.777 307.995 230.922 307.995 230.922Z" fill="#263238"/>
<path d="M397.784 109.739C397.784 109.852 385.689 109.949 370.722 109.949C355.756 109.949 343.66 109.852 343.66 109.739C343.66 109.626 355.756 109.529 370.722 109.529C385.689 109.529 397.784 109.618 397.784 109.739Z" fill="#263238"/>
<path d="M431.612 115.705C431.612 115.826 411.92 115.915 387.64 115.915C363.36 115.915 343.66 115.826 343.66 115.705C343.66 115.584 363.352 115.496 387.64 115.496C411.928 115.496 431.612 115.608 431.612 115.705Z" fill="#263238"/>
<path d="M397.784 179.984C397.784 180.096 385.689 180.193 370.722 180.193C355.756 180.193 343.66 180.096 343.66 179.984C343.66 179.871 355.756 179.774 370.722 179.774C385.689 179.774 397.784 179.863 397.784 179.984Z" fill="#263238"/>
<path d="M431.612 185.949C431.612 186.062 411.92 186.159 387.64 186.159C363.36 186.159 343.66 186.062 343.66 185.949C343.66 185.837 363.352 185.74 387.64 185.74C411.928 185.74 431.612 185.837 431.612 185.949Z" fill="#263238"/>
<path d="M397.784 75.9836C397.784 76.1045 385.689 76.2013 370.722 76.2013C355.756 76.2013 343.66 76.1045 343.66 75.9836C343.66 75.8626 355.756 75.7739 370.722 75.7739C385.689 75.7739 397.784 75.8707 397.784 75.9836Z" fill="#263238"/>
<path d="M431.612 81.9597C431.612 82.0726 411.92 82.1693 387.64 82.1693C363.36 82.1693 343.66 82.0726 343.66 81.9597C343.66 81.8468 363.352 81.75 387.64 81.75C411.928 81.75 431.612 81.8468 431.612 81.9597Z" fill="#263238"/>
<path d="M397.784 144.154C397.784 144.267 385.689 144.364 370.722 144.364C355.756 144.364 343.66 144.267 343.66 144.154C343.66 144.042 355.756 143.945 370.722 143.945C385.689 143.945 397.784 144.042 397.784 144.154Z" fill="#263238"/>
<path d="M431.612 150.122C431.612 150.243 411.92 150.331 387.64 150.331C363.36 150.331 343.66 150.243 343.66 150.122C343.66 150.001 363.352 149.912 387.64 149.912C411.928 149.912 431.612 150.009 431.612 150.122Z" fill="#263238"/>
<path d="M397.784 213.31C397.784 213.423 385.689 213.52 370.722 213.52C355.756 213.52 343.66 213.423 343.66 213.31C343.66 213.197 355.756 213.101 370.722 213.101C385.689 213.101 397.784 213.181 397.784 213.31Z" fill="#263238"/>
<path d="M431.612 219.278C431.612 219.391 411.92 219.488 387.64 219.488C363.36 219.488 343.66 219.391 343.66 219.278C343.66 219.165 363.352 219.068 387.64 219.068C411.928 219.068 431.612 219.165 431.612 219.278Z" fill="#263238"/>
<path d="M459.2 44.7051H448.547V55.3573H459.2V44.7051Z" fill="#E0E0E0"/>
<path d="M441.854 44.7051H431.202V55.3573H441.854V44.7051Z" fill="#E0E0E0"/>
<path d="M424.508 44.7051H413.856V55.3573H424.508V44.7051Z" fill="#E0E0E0"/>
<path d="M231.171 72.5972L235.695 78.4999L239.565 72.5972H231.171Z" fill="#263238"/>
<path d="M134.687 93.2585C131.869 104.884 138.21 147.16 148.603 163.154C148.603 163.154 178.725 182.707 272.806 171.609C272.806 171.609 257.586 166.748 271.837 110.997C272.136 109.799 272.453 108.601 272.788 107.35C274.726 100.128 260.546 87.745 257.992 83.3942C239.584 52.163 134.687 93.2585 134.687 93.2585Z" fill="#2C2C2C"/>
<path d="M81.2273 258.855C81.2273 258.855 76.0485 257.728 74.0581 255.174C72.05 252.619 70.8698 251.492 63.859 248.445C56.9012 245.397 54.1356 241.452 54.1356 241.452C54.1356 241.452 49.2739 245.908 59.9485 251.017C66.4837 254.152 45.0111 253.694 38.5465 252.972C38.5465 252.972 34.8121 255.015 40.9949 258.01C47.1777 261.004 41.2239 261.233 53.4663 266.394C65.691 271.573 80.2233 274.286 83.1826 266.905C86.1243 259.525 81.2273 258.855 81.2273 258.855Z" fill="#E0E0E0"/>
<path fill-rule="evenodd" clip-rule="evenodd" d="M54.1353 241.451L53.6592 240.932L54.2513 240.389L54.7115 241.046L54.7117 241.046L54.7123 241.047L54.7152 241.051C54.7188 241.056 54.7252 241.065 54.7343 241.077C54.7525 241.102 54.7818 241.14 54.8224 241.192C54.9035 241.296 55.0301 241.451 55.2048 241.65C55.5541 242.046 56.0959 242.613 56.8521 243.275C58.3638 244.599 60.7339 246.306 64.1404 247.799C67.6499 249.324 69.7518 250.39 71.2346 251.414C72.7427 252.455 73.5911 253.44 74.6117 254.738L74.6126 254.739L74.6135 254.74C75.484 255.857 77.1192 256.721 78.6445 257.315C79.39 257.606 80.0771 257.819 80.5779 257.961C80.8278 258.031 81.0303 258.083 81.169 258.117C81.2384 258.134 81.2917 258.147 81.3271 258.155C81.34 258.158 81.3504 258.16 81.3584 258.162C81.3662 258.163 81.375 258.165 81.3849 258.167C81.3936 258.168 81.4031 258.17 81.4133 258.172C81.4615 258.181 81.5268 258.195 81.606 258.215C81.7639 258.256 81.9794 258.322 82.2251 258.428C82.7149 258.639 83.3425 259.016 83.8618 259.677C84.9358 261.043 85.3561 263.354 83.8368 267.166L83.8363 267.167C83.0057 269.238 81.3628 270.576 79.2465 271.331C77.1491 272.079 74.5641 272.267 71.7475 272.062C66.1107 271.651 59.3421 269.648 53.1913 267.043C47.0614 264.458 45.3326 263.052 44.3961 261.814C44.2314 261.597 44.0885 261.379 43.9637 261.19C43.9222 261.127 43.8826 261.066 43.8449 261.01C43.6874 260.776 43.5332 260.565 43.3219 260.345C42.9 259.906 42.1949 259.373 40.6875 258.643C39.1006 257.875 38.076 257.134 37.4662 256.414C36.8393 255.675 36.6333 254.932 36.7586 254.242C36.877 253.589 37.2696 253.113 37.5766 252.824C37.7353 252.675 37.8867 252.561 37.9994 252.484C38.0562 252.445 38.1042 252.415 38.14 252.393C38.1579 252.382 38.1728 252.373 38.1842 252.367C38.1899 252.363 38.1948 252.361 38.1988 252.358L38.2041 252.355L38.2062 252.354L38.2071 252.354C38.2075 252.354 38.208 252.353 38.5462 252.971L38.208 252.353L38.4032 252.246L38.6244 252.271C41.8187 252.628 48.7683 252.922 54.0975 252.736C56.7898 252.642 58.9662 252.427 60.0534 252.076C60.1357 252.049 60.2062 252.023 60.2659 251.999C60.1243 251.902 59.9221 251.785 59.6438 251.652C54.2402 249.066 52.4814 246.511 52.3358 244.366C52.2643 243.312 52.5953 242.456 52.9332 241.874C53.1025 241.582 53.2765 241.354 53.4105 241.196C53.4777 241.117 53.5355 241.055 53.5786 241.011C53.6001 240.989 53.618 240.971 53.6317 240.958C53.6385 240.951 53.6443 240.946 53.6489 240.942L53.6549 240.936L53.6573 240.934L53.6583 240.933C53.6588 240.932 53.6592 240.932 54.1353 241.451ZM38.7225 253.699C38.6679 253.74 38.6056 253.791 38.5419 253.851C38.342 254.039 38.1874 254.26 38.1451 254.493C38.1097 254.688 38.1293 255.017 38.5412 255.503C38.9701 256.009 39.7972 256.646 41.3018 257.375C42.8858 258.142 43.755 258.762 44.3382 259.369C44.6296 259.672 44.8356 259.958 45.0146 260.224C45.0673 260.303 45.1157 260.376 45.1623 260.447C45.2796 260.625 45.3854 260.786 45.5199 260.964C46.2127 261.88 47.628 263.168 53.7397 265.745L53.7408 265.745C59.8147 268.318 66.4246 270.261 71.8499 270.656C74.5643 270.854 76.9313 270.66 78.773 270.003C80.5957 269.353 81.879 268.262 82.5281 266.643C83.95 263.075 83.3927 261.361 82.7538 260.547C82.4166 260.118 82.0037 259.867 81.6673 259.722C81.4999 259.65 81.3559 259.606 81.2574 259.581C81.2084 259.568 81.1714 259.56 81.1493 259.556C81.1382 259.554 81.131 259.553 81.1279 259.552C81.1264 259.552 81.1259 259.552 81.1265 259.552L81.1042 259.549L81.0772 259.543L81.227 258.855C81.0772 259.543 81.077 259.543 81.0768 259.543L81.0764 259.543L81.0713 259.542L81.0579 259.539C81.0466 259.536 81.0304 259.533 81.0097 259.528C80.9682 259.518 80.9083 259.504 80.8322 259.486C80.68 259.448 80.4623 259.392 80.1956 259.317C79.6632 259.167 78.9312 258.939 78.1331 258.628C76.5719 258.02 74.6232 257.044 73.503 255.608C72.5159 254.352 71.7702 253.496 70.4339 252.574C69.072 251.633 67.0786 250.612 63.5779 249.091L63.5761 249.09C60.0252 247.535 57.534 245.746 55.9236 244.335C55.1204 243.632 54.5367 243.023 54.1501 242.584C53.9107 242.997 53.6945 243.573 53.7418 244.27C53.834 245.63 54.9816 247.858 60.2524 250.381L60.253 250.381C60.6858 250.589 61.0448 250.801 61.31 251.024C61.5571 251.232 61.8339 251.544 61.8719 251.967C61.9146 252.444 61.6389 252.783 61.3858 252.98C61.1374 253.172 60.8159 253.31 60.4872 253.416C59.1842 253.838 56.8138 254.051 54.1467 254.145C48.8932 254.328 42.0914 254.052 38.7225 253.699ZM38.8871 253.588C38.8882 253.587 38.8886 253.587 38.8882 253.587L38.8871 253.588Z" fill="#2C2C2C"/>
<path d="M166.801 216.774C166.801 216.774 152.145 287.797 145.469 291.707C140.096 294.86 98.9128 281.455 83.2708 276.188C79.5541 274.955 77.2817 274.145 77.2817 274.145L79.9768 255.931L88.8019 257.129L132.751 263.101C132.751 263.101 147.565 190.932 158.204 190.052C168.861 189.153 166.801 216.774 166.801 216.774Z" fill="#2C2C2C"/>
<path d="M252.92 189.611C252.92 189.611 304.902 242.086 308.319 268.314C308.319 268.314 300.41 283.146 252.797 311.435L248.552 299.299C248.552 299.299 275.133 268.79 284.363 261.074C284.363 261.074 242.739 226.655 243.708 216.896C244.676 207.102 247.09 190.122 252.92 189.611Z" fill="#2C2C2C"/>
<path d="M274.181 211.648C274.181 222.886 266.818 229.844 255.58 229.844C244.342 229.844 235.235 220.737 235.235 209.499C235.235 198.261 243.725 185.86 254.435 189.224C266.237 192.906 274.181 200.41 274.181 211.648Z" fill="white"/>
<path fill-rule="evenodd" clip-rule="evenodd" d="M241.356 194.34C238.007 198.291 235.939 204.038 235.939 209.498C235.939 220.347 244.73 229.138 255.58 229.138C261.053 229.138 265.515 227.446 268.604 224.453C271.691 221.462 273.476 217.107 273.476 211.647C273.476 200.837 265.867 193.527 254.225 189.896L254.223 189.895C249.218 188.323 244.694 190.401 241.356 194.34ZM254.645 188.55C248.941 186.759 243.865 189.199 240.281 193.429C236.707 197.646 234.53 203.719 234.53 209.498C234.53 221.125 243.952 230.547 255.58 230.547C261.345 230.547 266.183 228.76 269.585 225.465C272.989 222.167 274.885 217.424 274.885 211.647C274.885 199.979 266.607 192.282 254.645 188.55Z" fill="#2C2C2C"/>
<path d="M265.037 208.371C265.037 216.686 259.594 221.829 251.28 221.829C242.966 221.829 236.237 215.1 236.237 206.786C236.237 198.472 242.508 189.294 250.452 191.778C259.154 194.526 265.037 200.075 265.037 208.371Z" fill="#2C2C2C"/>
<path d="M137.667 211.647C137.667 222.886 145.03 229.843 156.268 229.843C167.506 229.843 176.595 220.719 176.595 209.498C176.595 198.278 168.105 185.859 157.395 189.224C145.611 192.905 137.667 200.409 137.667 211.647Z" fill="white"/>
<path fill-rule="evenodd" clip-rule="evenodd" d="M171.548 193.436C175.122 197.656 177.299 203.729 177.299 209.499C177.299 221.107 167.895 230.548 156.267 230.548C150.502 230.548 145.663 228.761 142.262 225.466C138.857 222.168 136.961 217.425 136.961 211.648C136.961 199.981 145.24 192.283 157.184 188.551C162.888 186.76 167.964 189.205 171.548 193.436ZM170.473 194.347C167.135 190.406 162.611 188.324 157.605 189.896L157.604 189.896C145.98 193.528 138.37 200.838 138.37 211.648C138.37 217.108 140.155 221.463 143.242 224.454C146.332 227.447 150.794 229.139 156.267 229.139C167.115 229.139 175.89 220.331 175.89 209.499C175.89 204.047 173.822 198.301 170.473 194.347Z" fill="#2C2C2C"/>
<path d="M146.825 208.371C146.825 216.686 152.268 221.829 160.582 221.829C168.896 221.829 175.625 215.1 175.625 206.786C175.625 198.472 169.354 189.294 161.427 191.778C152.69 194.526 146.825 200.075 146.825 208.371Z" fill="#2C2C2C"/>
<path d="M231.534 301.818C218.816 300.656 206.256 300.18 206.256 300.18C201.641 300.321 191.812 300.726 181.666 301.818C184.625 311.929 194.666 319.38 206.591 319.38C218.534 319.398 228.574 311.912 231.534 301.818Z" fill="#50BFD7"/>
<path d="M230.496 302.875C231.589 298.577 253.449 189.047 253.449 189.047C253.449 189.047 195.108 171.82 157.8 189.047L181.721 303.826L230.496 302.875Z" fill="white"/>
<path fill-rule="evenodd" clip-rule="evenodd" d="M253.647 188.371C253.647 188.371 253.648 188.372 253.448 189.047C254.139 189.185 254.139 189.186 254.139 189.186L254.138 189.19L253.893 190.416C253.733 191.22 253.497 192.398 253.198 193.9C252.598 196.903 251.739 201.199 250.706 206.367C248.64 216.702 245.873 230.528 243.072 244.488C237.475 272.387 231.731 300.876 231.179 303.048L231.046 303.569L181.15 304.542L156.995 188.643L157.504 188.408C176.339 179.711 200.411 179.73 219.693 181.887C229.348 182.967 237.832 184.587 243.902 185.937C246.938 186.612 249.371 187.22 251.047 187.659C251.885 187.879 252.534 188.057 252.973 188.179C253.193 188.241 253.361 188.289 253.474 188.321C253.531 188.338 253.574 188.35 253.603 188.358L253.636 188.368L253.644 188.371L253.647 188.371ZM253.448 189.047L254.139 189.185L254.265 188.554L253.648 188.372L253.448 189.047ZM252.63 189.547C252.618 189.543 252.606 189.54 252.594 189.537C252.161 189.416 251.52 189.24 250.69 189.022C249.029 188.587 246.613 187.983 243.596 187.313C237.562 185.971 229.129 184.361 219.536 183.287C200.496 181.157 177.003 181.157 158.604 189.455L182.291 303.11L229.934 302.181C230.932 297.704 236.368 270.738 241.691 244.211C244.491 230.251 247.258 216.426 249.324 206.09C250.358 200.923 251.216 196.627 251.816 193.624C252.116 192.122 252.351 190.944 252.511 190.14L252.63 189.547Z" fill="black"/>
<path d="M230.496 302.875C231.589 298.577 253.449 189.047 253.449 189.047C253.449 189.047 195.108 171.82 157.8 189.047L181.721 303.826L230.496 302.875Z" fill="white"/>
<path fill-rule="evenodd" clip-rule="evenodd" d="M253.647 188.371C253.647 188.371 253.648 188.372 253.448 189.047C254.139 189.185 254.139 189.186 254.139 189.186L254.138 189.19L253.893 190.416C253.733 191.22 253.497 192.398 253.198 193.9C252.598 196.903 251.739 201.199 250.706 206.367C248.64 216.702 245.873 230.528 243.072 244.488C237.475 272.387 231.731 300.876 231.179 303.048L231.046 303.569L181.15 304.542L156.995 188.643L157.504 188.408C176.339 179.711 200.411 179.73 219.693 181.887C229.348 182.967 237.832 184.587 243.902 185.937C246.938 186.612 249.371 187.22 251.047 187.659C251.885 187.879 252.534 188.057 252.973 188.179C253.193 188.241 253.361 188.289 253.474 188.321C253.531 188.338 253.574 188.35 253.603 188.358L253.636 188.368L253.644 188.371L253.647 188.371ZM253.448 189.047L254.139 189.185L254.265 188.554L253.648 188.372L253.448 189.047ZM252.63 189.547C252.618 189.543 252.606 189.54 252.594 189.537C252.161 189.416 251.52 189.24 250.69 189.022C249.029 188.587 246.613 187.983 243.596 187.313C237.562 185.971 229.129 184.361 219.536 183.287C200.496 181.157 177.003 181.157 158.604 189.455L182.291 303.11L229.934 302.181C230.932 297.704 236.368 270.738 241.691 244.211C244.491 230.251 247.258 216.426 249.324 206.09C250.358 200.923 251.216 196.627 251.816 193.624C252.116 192.122 252.351 190.944 252.511 190.14L252.63 189.547Z" fill="#2C2C2C"/>
<path d="M239.286 185.683C222.993 182.406 195.443 178.672 171.769 184.309C174.569 201.976 177.37 219.662 180.171 237.329C182.426 249.308 193.787 257.287 205.642 257.357C217.497 257.287 228.858 249.325 231.113 237.329C233.826 220.102 236.556 202.892 239.286 185.683Z" fill="#50BFD7"/>
<path fill-rule="evenodd" clip-rule="evenodd" d="M171.605 183.624C195.434 177.95 223.109 181.712 239.425 184.993L240.088 185.126L239.98 185.805C237.25 203.011 234.52 220.217 231.808 237.44L231.807 237.45L231.805 237.46C229.478 249.841 217.78 257.991 205.645 258.063L205.641 258.063L205.637 258.063C193.501 257.991 181.805 249.823 179.478 237.461L179.476 237.451L179.474 237.441C178.074 228.608 176.674 219.77 175.273 210.933L175.273 210.93C173.873 202.092 172.472 193.254 171.072 184.42L170.97 183.775L171.605 183.624ZM172.566 184.846C173.932 193.464 175.298 202.085 176.664 210.707L176.665 210.71C178.065 219.545 179.465 228.379 180.864 237.21C183.051 248.797 194.072 256.583 205.641 256.654C217.211 256.583 228.231 248.814 230.418 237.21C233.095 220.209 235.789 203.225 238.484 186.242C222.286 183.034 195.625 179.535 172.566 184.846Z" fill="#2C2C2C"/>
<path d="M203.617 191.936C209.183 191.936 217.832 190.245 217.832 184.696L216.405 166.165L215.155 149.959C215.155 144.393 210.645 139.901 205.097 139.901C202.314 139.901 199.812 141.029 197.98 142.843C196.166 144.657 195.021 147.176 195.021 149.959L193.788 166.183L192.608 181.737C191.022 191.125 203.617 191.936 203.617 191.936Z" fill="#2C2C2C"/>
<path d="M236.168 45.4684C227.836 35.2165 216.192 29.0337 201.255 29.0337C167.417 29.0337 134.336 60.2296 134.336 99.1409C134.336 138.052 161.762 169.6 195.6 169.6C198.859 169.6 202.012 169.319 205.042 168.755C205.359 170.464 205.535 172.225 205.535 174.022C205.535 174.356 205.518 174.674 205.518 174.991C298.806 152.408 283.534 39.7083 236.168 45.4684Z" fill="#2C2C2C"/>
<path d="M163.418 138.439C169.693 138.439 174.779 133.352 174.779 127.077C174.779 120.803 169.693 115.716 163.418 115.716C157.143 115.716 152.056 120.803 152.056 127.077C152.056 133.352 157.143 138.439 163.418 138.439Z" fill="#E0E0E0"/>
<path fill-rule="evenodd" clip-rule="evenodd" d="M163.416 116.421C157.531 116.421 152.759 121.192 152.759 127.078C152.759 132.964 157.531 137.735 163.416 137.735C169.302 137.735 174.073 132.964 174.073 127.078C174.073 121.192 169.302 116.421 163.416 116.421ZM151.35 127.078C151.35 120.414 156.752 115.012 163.416 115.012C170.08 115.012 175.482 120.414 175.482 127.078C175.482 133.742 170.08 139.144 163.416 139.144C156.752 139.144 151.35 133.742 151.35 127.078Z" fill="#2C2C2C"/>
<path d="M243.426 138.439C249.701 138.439 254.788 133.352 254.788 127.077C254.788 120.803 249.701 115.716 243.426 115.716C237.151 115.716 232.064 120.803 232.064 127.077C232.064 133.352 237.151 138.439 243.426 138.439Z" fill="#E0E0E0"/>
<path fill-rule="evenodd" clip-rule="evenodd" d="M243.425 116.421C237.539 116.421 232.768 121.192 232.768 127.078C232.768 132.964 237.539 137.735 243.425 137.735C249.311 137.735 254.082 132.964 254.082 127.078C254.082 121.192 249.311 116.421 243.425 116.421ZM231.359 127.078C231.359 120.414 236.761 115.012 243.425 115.012C250.089 115.012 255.491 120.414 255.491 127.078C255.491 133.742 250.089 139.144 243.425 139.144C236.761 139.144 231.359 133.742 231.359 127.078Z" fill="#2C2C2C"/>
<path d="M204.495 174.48C228.885 174.48 248.656 146.491 248.656 111.965C248.656 77.4387 228.885 49.4497 204.495 49.4497C180.106 49.4497 160.335 77.4387 160.335 111.965C160.335 146.491 180.106 174.48 204.495 174.48Z" fill="#E0E0E0"/>
<path fill-rule="evenodd" clip-rule="evenodd" d="M173.845 68.166C165.947 79.3467 161.04 94.8295 161.04 111.964C161.04 129.099 165.947 144.582 173.845 155.763C181.744 166.945 192.591 173.775 204.495 173.775C216.4 173.775 227.247 166.945 235.146 155.763C243.044 144.582 247.951 129.099 247.951 111.964C247.951 94.8295 243.044 79.3467 235.146 68.166C227.247 56.9835 216.4 50.1538 204.495 50.1538C192.591 50.1538 181.744 56.9835 173.845 68.166ZM172.694 67.353C180.777 55.9094 192.011 48.7446 204.495 48.7446C216.98 48.7446 228.213 55.9094 236.297 67.353C244.382 78.7984 249.361 94.5731 249.361 111.964C249.361 129.356 244.382 145.13 236.297 156.576C228.213 168.019 216.98 175.184 204.495 175.184C192.011 175.184 180.777 168.019 172.694 156.576C164.609 145.13 159.63 129.356 159.63 111.964C159.63 94.5731 164.609 78.7984 172.694 67.353Z" fill="#2C2C2C"/>
<path d="M153.889 98.1015C153.889 98.1015 191.479 99.9335 204.003 77.316C204.003 77.316 231.2 100.849 257.165 99.0175L254.716 88.6247L244.641 68.7551L238.528 61.4273L226.004 48.2866L209.199 41.2583L189.03 44.0062L162.132 62.3433L158.768 74.568L153.889 98.1015Z" fill="#2C2C2C"/>
<path d="M205.587 136.396C205.604 136.502 205.375 136.696 204.865 136.696C204.371 136.714 203.614 136.485 202.944 135.85C202.61 135.533 202.31 135.146 202.081 134.653C202.046 134.582 202.029 134.512 201.993 134.441L201.958 134.336L201.923 134.247L201.87 134.089C201.852 134.018 201.835 133.93 201.8 133.86C201.729 133.596 201.676 133.314 201.659 133.014C201.553 131.852 201.782 130.672 202.064 129.544C203.156 125.035 204.442 121.494 204.917 121.6C205.393 121.723 204.9 125.458 203.808 129.967C203.526 131.077 203.314 132.081 203.314 132.926C203.314 133.138 203.332 133.349 203.35 133.543L203.367 133.613V133.649V133.666V133.684C203.367 133.684 203.35 133.631 203.367 133.649L203.402 133.825L203.42 133.913L203.438 133.966L203.473 134.071C203.579 134.406 203.737 134.723 203.913 134.97C204.266 135.48 204.688 135.798 205.023 135.974C205.322 136.203 205.569 136.273 205.587 136.396Z" fill="#2C2C2C"/>
<path d="M156.76 119.133C156.267 117.178 155.897 115.188 155.597 113.179C155.315 111.171 155.122 109.163 155.016 107.138C154.84 103.086 154.998 98.9995 155.544 94.9657C156.09 90.9143 157.024 86.9157 158.345 83.0404C158.416 82.7938 158.504 82.5472 158.592 82.3182L158.856 81.596L159.384 80.1516L159.983 78.7248L160.283 78.0202C160.388 77.7912 160.476 77.5446 160.6 77.3156C161.463 75.4484 162.397 73.5988 163.453 71.8374C165.55 68.2792 167.998 64.9323 170.816 61.885C173.652 58.8552 176.841 56.1425 180.328 53.8702C180.751 53.5707 181.209 53.3065 181.65 53.0423C182.09 52.7781 182.548 52.4962 182.988 52.2496L184.38 51.5098L185.067 51.1399C185.296 51.0166 185.542 50.9109 185.771 50.8052L187.198 50.1534C187.322 50.1006 187.427 50.0478 187.551 49.9949L187.92 49.854L188.643 49.5721L189.365 49.2903C189.611 49.2022 189.84 49.0965 190.105 49.0085L191.602 48.5153C195.583 47.2294 199.775 46.5776 203.968 46.4895C206.064 46.4191 208.16 46.5776 210.238 46.8066C210.767 46.8771 211.278 46.9651 211.789 47.0356L212.564 47.1589C212.687 47.1765 212.828 47.1941 212.951 47.2294L213.339 47.3174L214.871 47.6521C215.382 47.7578 215.893 47.8987 216.386 48.0397C220.42 49.167 224.313 50.8052 227.871 52.9894L229.192 53.8173C229.421 53.9583 229.632 54.0992 229.844 54.2577L230.478 54.6981L231.112 55.1385C231.324 55.2794 231.535 55.4379 231.746 55.5964L232.979 56.5476L233.596 57.0232L234.195 57.5341L235.375 58.5557C235.762 58.8904 236.132 59.2603 236.502 59.6302L237.066 60.1763C237.26 60.3525 237.436 60.5286 237.612 60.7224L238.687 61.8497L239.215 62.4134L239.726 62.9947L240.747 64.1749C240.924 64.3686 241.082 64.58 241.241 64.7738L241.716 65.3903C242.033 65.7955 242.35 66.2006 242.667 66.6234L243.566 67.8916C244.182 68.7195 244.711 69.6179 245.274 70.481C247.459 73.9864 249.238 77.7207 250.647 81.5608C252.056 85.4184 253.06 89.3994 253.694 93.4332L253.818 94.1906L253.871 94.5606L253.906 94.9481L254.082 96.463C254.223 97.467 254.258 98.4887 254.346 99.5103C254.469 101.536 254.505 103.579 254.452 105.605L254.434 106.363L254.399 107.12C254.364 107.631 254.346 108.124 254.293 108.635C254.223 109.639 254.117 110.661 253.994 111.665C253.73 113.673 253.395 115.663 252.955 117.636C253.201 115.628 253.395 113.637 253.465 111.629C253.553 109.621 253.571 107.613 253.483 105.623C253.395 103.632 253.254 101.624 253.007 99.6513C252.866 98.6648 252.761 97.6784 252.567 96.692L252.303 95.2299L252.232 94.86L252.144 94.4901L251.986 93.7679C251.158 89.875 249.978 86.0702 248.48 82.4239L248.199 81.7369L247.899 81.0676L247.283 79.7112C247.089 79.2532 246.86 78.8305 246.631 78.3901L245.961 77.069C245.732 76.6286 245.486 76.2058 245.239 75.7831C244.993 75.3603 244.764 74.92 244.499 74.4972L243.724 73.2465C243.46 72.8238 243.214 72.401 242.932 72.0135C242.368 71.2032 241.84 70.3753 241.241 69.6003L240.36 68.4201C240.06 68.0325 239.743 67.6626 239.426 67.2751L238.951 66.7114C238.792 66.5177 238.634 66.3239 238.475 66.1478L237.489 65.0556L236.995 64.5096L236.485 63.9811L235.445 62.9418C232.645 60.2292 229.527 57.8511 226.162 55.8783C222.816 53.9054 219.204 52.4081 215.47 51.4041C214.537 51.1223 213.585 50.9637 212.652 50.7523L212.299 50.6819C212.176 50.6643 212.053 50.6467 211.947 50.629L211.225 50.5234C210.749 50.4529 210.274 50.3648 209.798 50.312C207.878 50.1182 205.94 49.9773 204.02 50.0301C200.163 50.1006 196.305 50.6819 192.624 51.8621L191.25 52.3025C191.021 52.3729 190.792 52.461 190.563 52.5491L189.893 52.8133L189.224 53.0775L188.889 53.2008C188.784 53.236 188.66 53.3065 188.555 53.3417L187.233 53.9406C187.022 54.0463 186.793 54.1344 186.564 54.2401L185.912 54.5748L184.626 55.2441C184.204 55.4907 183.781 55.7374 183.358 55.9663C182.935 56.213 182.513 56.442 182.108 56.7238C178.814 58.8023 175.784 61.286 173.036 64.0692L172.032 65.1437L171.539 65.6898C171.451 65.7778 171.362 65.8659 171.292 65.954L171.063 66.2358L170.112 67.3632C169.953 67.5569 169.795 67.7331 169.636 67.9269L169.178 68.5081L168.28 69.6707C168.121 69.8645 167.998 70.0583 167.839 70.2696L167.417 70.8685C167.135 71.2737 166.853 71.6612 166.571 72.084L165.779 73.3346C163.682 76.6638 161.886 80.2044 160.476 83.8859C159.05 87.5674 157.958 91.4075 157.218 95.318L156.936 96.78C156.848 97.2732 156.795 97.7665 156.707 98.2597L156.496 99.7393C156.443 100.233 156.39 100.726 156.337 101.219L156.178 102.716L156.09 104.214L156.002 105.711C155.985 106.204 155.967 106.715 155.949 107.208C155.914 109.216 155.949 111.207 156.09 113.215C156.249 115.135 156.478 117.125 156.76 119.133Z" fill="#50BFD7"/>
<path d="M193.011 115.276C193.011 120.297 188.66 124.366 183.305 124.366C177.932 124.366 173.599 120.297 173.599 115.276C173.599 110.256 177.95 106.187 183.305 106.187C188.66 106.187 193.011 110.256 193.011 115.276Z" fill="white"/>
<path fill-rule="evenodd" clip-rule="evenodd" d="M183.305 106.892C178.295 106.892 174.304 110.689 174.304 115.277C174.304 119.866 178.278 123.661 183.305 123.661C188.315 123.661 192.306 119.865 192.306 115.277C192.306 110.689 188.315 106.892 183.305 106.892ZM172.895 115.277C172.895 109.824 177.605 105.483 183.305 105.483C189.004 105.483 193.715 109.824 193.715 115.277C193.715 120.729 189.004 125.071 183.305 125.071C177.587 125.071 172.895 120.728 172.895 115.277Z" fill="#2C2C2C"/>
<path d="M178.551 114.713C178.551 118.852 181.246 122.216 184.557 122.216C187.869 122.216 190.564 118.852 190.564 114.713C190.564 110.573 187.869 107.209 184.557 107.209C181.228 107.191 178.551 110.555 178.551 114.713Z" fill="#50BFD7"/>
<path d="M180.275 114.712C180.275 117.654 182.178 120.032 184.538 120.032C186.899 120.032 188.801 117.654 188.801 114.712C188.801 111.771 186.899 109.375 184.538 109.375C182.195 109.375 180.275 111.753 180.275 114.712Z" fill="#2C2C2C"/>
<path d="M180.012 109.656C180.012 110.466 180.998 111.101 182.214 111.101C183.429 111.101 184.415 110.449 184.415 109.656C184.415 108.846 183.429 108.212 182.214 108.212C180.998 108.194 180.012 108.846 180.012 109.656Z" fill="white"/>
<path d="M183.939 104.866C177.932 104.267 173.317 109.692 173.317 115.294C173.317 115.875 174.04 115.981 174.339 115.576C176.788 112.211 177.58 108.9 182.054 107.614C188.66 105.711 192.289 112.493 192.659 117.813C192.711 118.323 193.152 117.865 193.205 117.337C193.803 110.978 190.633 105.535 183.939 104.866Z" fill="#2C2C2C"/>
<path d="M195.796 101.377C195.796 101.377 182.69 88.3069 168.598 103.826C168.581 103.826 180.77 96.0223 195.796 101.377Z" fill="#2C2C2C"/>
<path d="M235.234 115.276C235.234 120.297 230.883 124.366 225.528 124.366C220.156 124.366 215.822 120.297 215.822 115.276C215.822 110.256 220.173 106.187 225.528 106.187C230.883 106.187 235.234 110.256 235.234 115.276Z" fill="white"/>
<path fill-rule="evenodd" clip-rule="evenodd" d="M225.527 106.892C220.516 106.892 216.525 110.689 216.525 115.277C216.525 119.866 220.5 123.661 225.527 123.661C230.537 123.661 234.528 119.865 234.528 115.277C234.528 110.689 230.537 106.892 225.527 106.892ZM215.116 115.277C215.116 109.824 219.827 105.483 225.527 105.483C231.226 105.483 235.937 109.824 235.937 115.277C235.937 120.729 231.226 125.071 225.527 125.071C219.809 125.071 215.116 120.728 215.116 115.277Z" fill="#2C2C2C"/>
<path d="M220.772 114.713C220.772 118.852 223.468 122.216 226.779 122.216C230.091 122.216 232.786 118.852 232.786 114.713C232.786 110.573 230.091 107.209 226.779 107.209C223.468 107.191 220.772 110.555 220.772 114.713Z" fill="#50BFD7"/>
<path d="M222.516 114.712C222.516 117.654 224.419 120.032 226.779 120.032C229.139 120.032 231.042 117.654 231.042 114.712C231.042 111.771 229.139 109.375 226.779 109.375C224.419 109.375 222.516 111.753 222.516 114.712Z" fill="#2C2C2C"/>
<path d="M222.234 109.656C222.234 110.466 223.221 111.101 224.436 111.101C225.652 111.101 226.638 110.449 226.638 109.656C226.638 108.846 225.652 108.212 224.436 108.212C223.238 108.194 222.234 108.846 222.234 109.656Z" fill="white"/>
<path d="M226.163 104.866C220.157 104.267 215.542 109.692 215.542 115.294C215.542 115.875 216.264 115.981 216.563 115.576C219.012 112.211 219.804 108.9 224.278 107.614C230.884 105.711 234.513 112.493 234.883 117.813C234.935 118.323 235.376 117.865 235.429 117.337C236.028 110.978 232.875 105.535 226.163 104.866Z" fill="#2C2C2C"/>
<path d="M238.017 99.9514C238.017 99.9514 224.912 86.8812 210.82 102.4C210.82 102.4 223.009 94.5965 238.017 99.9514Z" fill="#2C2C2C"/>
<path d="M217.725 309.445C217.725 309.886 218.112 310.397 218.57 310.344C223.767 309.798 227.748 305.781 232.874 306.627C227.73 309.181 223.274 313.62 223.908 320.155C223.978 320.965 224.753 321.283 225.352 320.789C229.034 317.654 233.261 314.853 238.193 315.892C240.307 316.333 242.791 317.161 244.975 316.879C248.234 316.474 250.982 314.994 252.602 311.841C255.456 306.38 254.399 299.828 248.005 298.471C247.846 298.436 247.723 298.454 247.582 298.506C245.222 297.573 243.073 296.393 241.17 294.332C239.338 292.324 237.63 290.104 235.639 288.255C232.979 285.771 230.091 283.816 226.568 285.489C226.039 285.736 226.074 286.493 226.409 286.898C227.959 288.818 229.774 290.65 231.676 292.412C229.774 291.971 227.854 291.742 225.881 291.901C222.358 292.2 218.201 294.543 218.289 298.735C218.306 299.264 218.676 299.581 219.134 299.634C222.375 299.969 225.634 299.916 228.858 300.25C223.837 301.73 217.672 303.421 217.725 309.445Z" fill="white"/>
<path fill-rule="evenodd" clip-rule="evenodd" d="M231.685 284.657C233.308 285.297 234.775 286.484 236.119 287.738C237.465 288.989 238.708 290.432 239.914 291.832C240.512 292.526 241.101 293.21 241.689 293.854C243.438 295.749 245.412 296.869 247.628 297.765C247.789 297.739 247.961 297.739 248.153 297.782C251.603 298.515 253.67 300.682 254.448 303.424C255.215 306.124 254.716 309.313 253.227 312.164C251.477 315.566 248.497 317.149 245.063 317.577C243.859 317.732 242.605 317.579 241.421 317.347C240.827 317.23 240.237 317.091 239.673 316.956C239.613 316.942 239.553 316.928 239.494 316.913C238.99 316.793 238.51 316.677 238.049 316.581L238.047 316.581C233.475 315.617 229.487 318.192 225.808 321.325L225.804 321.329L225.799 321.332C225.32 321.727 224.7 321.842 224.153 321.608C223.607 321.374 223.261 320.846 223.205 320.219C222.631 314.293 226.006 310.039 230.263 307.296C228.846 307.489 227.466 308.001 226.022 308.611C225.701 308.747 225.376 308.889 225.046 309.032C223.091 309.881 220.982 310.797 218.646 311.043C218.12 311.102 217.698 310.832 217.445 310.542C217.193 310.254 217.02 309.857 217.019 309.448C216.991 306.129 218.704 303.999 221.013 302.546C222.23 301.78 223.633 301.189 225.055 300.693C224.695 300.676 224.334 300.661 223.971 300.645L223.956 300.644C222.342 300.574 220.701 300.503 219.061 300.334L219.057 300.333L219.052 300.333C218.299 300.246 217.614 299.685 217.583 298.758L217.583 298.754L217.583 298.749C217.534 296.386 218.691 294.556 220.296 293.302C221.887 292.059 223.942 291.358 225.82 291.198L225.822 291.198L225.823 291.198C227.068 291.098 228.287 291.145 229.487 291.298C228.194 290.024 226.964 288.708 225.862 287.343C225.579 286.998 225.435 286.532 225.46 286.093C225.486 285.638 225.708 285.112 226.266 284.851C228.219 283.924 230.026 284.002 231.685 284.657ZM226.876 286.121C226.873 286.131 226.869 286.147 226.867 286.173C226.865 286.217 226.871 286.271 226.889 286.326C226.906 286.382 226.931 286.424 226.951 286.449L226.954 286.452L226.956 286.455C228.477 288.338 230.264 290.144 232.154 291.894L234.099 293.695L231.516 293.097C229.663 292.668 227.818 292.451 225.938 292.602C224.293 292.742 222.509 293.361 221.163 294.413C219.832 295.453 218.955 296.888 218.992 298.715C218.996 298.807 219.025 298.845 219.043 298.864C219.068 298.888 219.12 298.921 219.211 298.933C220.805 299.097 222.407 299.167 224.032 299.237L224.038 299.237C225.655 299.308 227.295 299.379 228.929 299.549L232.477 299.917L229.056 300.925C228.968 300.951 228.88 300.977 228.792 301.003C226.33 301.728 223.754 302.486 221.763 303.739C219.748 305.007 218.405 306.734 218.429 309.438L218.429 309.441V309.444C218.429 309.453 218.431 309.479 218.446 309.517C218.461 309.554 218.482 309.588 218.505 309.614C218.515 309.625 218.523 309.633 218.529 309.638C220.62 309.412 222.498 308.599 224.452 307.752C224.789 307.606 225.129 307.459 225.473 307.314C227.771 306.342 230.211 305.473 232.987 305.931L235.141 306.286L233.186 307.257C228.153 309.756 224.016 313.98 224.608 320.086L224.608 320.09L224.609 320.093C224.617 320.188 224.643 320.242 224.662 320.27C224.68 320.297 224.697 320.308 224.708 320.312C224.719 320.317 224.737 320.321 224.764 320.317C224.791 320.312 224.839 320.297 224.9 320.247C228.583 317.111 233.048 314.088 238.337 315.202C238.82 315.302 239.322 315.423 239.822 315.543C239.882 315.557 239.941 315.571 240.001 315.586C240.565 315.721 241.129 315.854 241.692 315.964C242.825 316.186 243.904 316.305 244.884 316.179L244.886 316.179L244.887 316.179C247.969 315.795 250.483 314.42 251.975 311.518L251.976 311.516L251.977 311.514C253.34 308.905 253.74 306.088 253.093 303.808C252.458 301.57 250.8 299.784 247.858 299.16L247.854 299.159L247.851 299.158C247.851 299.158 247.85 299.158 247.85 299.158C247.845 299.159 247.838 299.162 247.829 299.165L247.574 299.261L247.322 299.161C244.904 298.204 242.651 296.974 240.652 294.809L240.65 294.807L240.649 294.806C240.001 294.096 239.384 293.378 238.773 292.668C237.6 291.306 236.451 289.971 235.159 288.77L235.157 288.769C233.841 287.539 232.534 286.507 231.167 285.967C229.839 285.443 228.442 285.379 226.876 286.121Z" fill="#2C2C2C"/>
<path fill-rule="evenodd" clip-rule="evenodd" d="M159.455 108.652V109.004H158.045V108.652H159.455Z" fill="#2C2C2C"/>
<path fill-rule="evenodd" clip-rule="evenodd" d="M166.852 112.529V112.881H165.443V112.529H166.852Z" fill="#2C2C2C"/>
<path d="M206.927 110.449C209.34 110.96 208.442 112.528 208.442 112.757C208.442 112.986 209.34 126.021 220.984 129.456C232.627 132.891 239.603 126.144 241.628 122.762C243.654 119.38 245.345 111.348 245.838 110.731C246.349 110.115 248.762 109.04 248.762 109.04L249.044 105.887L246.014 104.989C246.014 104.989 238.37 101.501 227.114 101.342C215.875 101.166 209.516 107.649 209.516 107.649C206.346 106.644 202.418 106.504 198.824 107.649C198.824 107.649 192.465 101.184 181.227 101.342C169.989 101.519 162.326 104.989 162.326 104.989L159.296 105.887L159.578 109.04C159.578 109.04 161.991 110.115 162.502 110.731C163.013 111.348 164.687 119.398 166.712 122.762C168.738 126.144 175.713 132.891 187.357 129.456C199 126.021 199.899 112.986 199.899 112.757C199.899 112.528 199 110.96 201.414 110.449C203.51 110.009 204.831 110.009 206.927 110.449ZM234.864 126.761C225.986 132.098 215.347 126.708 212.141 119.679C208.935 112.651 211.63 108.934 211.63 108.934C217.003 100.197 238.616 99.8275 242.333 109.269C242.967 110.854 243.76 121.423 234.864 126.761ZM165.99 109.269C169.707 99.8099 191.338 100.197 196.693 108.934C196.693 108.934 199.388 112.651 196.182 119.679C192.976 126.708 182.354 132.098 173.459 126.761C164.581 121.423 165.374 110.854 165.99 109.269Z" fill="#2C2C2C"/>
<path d="M212.37 205.042H198.842C195.248 205.042 192.324 207.966 192.324 211.56V225.088C192.324 228.681 195.248 231.606 198.842 231.606H212.37C215.964 231.606 218.888 228.681 218.888 225.088V211.56C218.888 207.966 215.981 205.042 212.37 205.042ZM188.731 199.282C186.67 199.282 184.997 200.956 184.997 203.017C184.997 205.078 186.67 206.751 188.731 206.751C190.792 206.751 192.465 205.078 192.465 203.017C192.465 200.956 190.792 199.282 188.731 199.282Z" fill="white"/>
<path d="M211.418 213.11C210.555 210.802 208.353 209.27 205.887 209.27H202.223L209.463 227.624H217.231L211.418 213.11ZM196.622 222.357L194.508 227.624H202.223L205.817 218.517H202.153C199.687 218.517 197.485 220.05 196.622 222.357ZM197.819 213.832C199.088 213.832 200.127 212.793 200.127 211.524C200.127 210.256 199.088 209.217 197.819 209.217C196.551 209.217 195.512 210.256 195.512 211.524C195.512 212.793 196.551 213.832 197.819 213.832Z" fill="#50BFD7"/>
<path d="M228.596 281.59C216.419 280.477 204.393 280.022 204.393 280.022C199.975 280.157 190.564 280.545 180.849 281.59C183.683 291.271 193.296 298.405 204.714 298.405C216.149 298.422 225.762 291.254 228.596 281.59Z" fill="#50BFD7"/>
<path d="M214.701 299.181C214.701 299.603 215.072 300.092 215.511 300.041C220.486 299.518 224.298 295.673 229.205 296.482C224.281 298.928 220.014 303.178 220.621 309.435C220.688 310.211 221.43 310.515 222.004 310.042C225.529 307.04 229.576 304.359 234.299 305.354C236.323 305.775 238.701 306.568 240.792 306.298C243.912 305.91 246.543 304.494 248.095 301.475C250.827 296.246 249.815 289.972 243.693 288.674C243.541 288.64 243.423 288.657 243.288 288.707C241.028 287.814 238.971 286.684 237.149 284.71C235.395 282.788 233.759 280.663 231.853 278.892C229.307 276.514 226.541 274.642 223.168 276.244C222.662 276.48 222.695 277.205 223.016 277.593C224.5 279.431 226.237 281.185 228.059 282.872C226.237 282.45 224.399 282.231 222.51 282.383C219.137 282.67 215.156 284.913 215.241 288.927C215.258 289.433 215.612 289.736 216.05 289.787C219.154 290.107 222.274 290.057 225.36 290.377C220.553 291.794 214.65 293.413 214.701 299.181Z" fill="#C4C4C4"/>
<path fill-rule="evenodd" clip-rule="evenodd" d="M228.066 275.448C229.621 276.062 231.025 277.197 232.311 278.398C233.601 279.596 234.791 280.978 235.946 282.319C236.518 282.983 237.082 283.638 237.645 284.255C239.32 286.069 241.21 287.141 243.331 287.999C243.485 287.974 243.65 287.974 243.834 288.015C247.138 288.716 249.117 290.792 249.862 293.417C250.595 296.002 250.118 299.056 248.692 301.786C247.017 305.043 244.164 306.559 240.876 306.968C239.723 307.116 238.522 306.97 237.389 306.748C236.819 306.636 236.255 306.503 235.714 306.374C235.657 306.36 235.6 306.346 235.543 306.333C235.061 306.217 234.601 306.107 234.16 306.015L234.158 306.014C229.78 305.092 225.962 307.557 222.44 310.556L222.435 310.56L222.431 310.563C221.972 310.941 221.378 311.051 220.855 310.827C220.332 310.603 220.001 310.098 219.947 309.498C219.398 303.823 222.629 299.751 226.705 297.124C225.348 297.309 224.027 297.799 222.644 298.384C222.337 298.514 222.025 298.649 221.71 298.786C219.838 299.599 217.819 300.476 215.582 300.712C215.078 300.769 214.674 300.51 214.432 300.233C214.191 299.957 214.026 299.577 214.025 299.185C213.998 296.007 215.638 293.968 217.848 292.577C219.014 291.843 220.357 291.277 221.719 290.802C221.374 290.786 221.028 290.771 220.681 290.756L220.666 290.756C219.121 290.689 217.549 290.62 215.979 290.458L215.975 290.458L215.971 290.457C215.25 290.374 214.594 289.837 214.565 288.949L214.565 288.945L214.565 288.941C214.517 286.678 215.625 284.926 217.162 283.726C218.685 282.536 220.653 281.864 222.451 281.711L222.453 281.711L222.454 281.711C223.646 281.615 224.813 281.661 225.962 281.807C224.724 280.587 223.547 279.327 222.491 278.02C222.22 277.689 222.083 277.244 222.107 276.823C222.131 276.388 222.344 275.884 222.878 275.634C224.748 274.746 226.478 274.821 228.066 275.448ZM223.462 276.85C223.459 276.859 223.455 276.875 223.454 276.9C223.451 276.942 223.457 276.994 223.474 277.047C223.491 277.1 223.515 277.14 223.534 277.164L223.537 277.167L223.539 277.17C224.995 278.973 226.706 280.702 228.515 282.377L230.378 284.102L227.905 283.53C226.13 283.119 224.364 282.911 222.564 283.056C220.989 283.19 219.281 283.782 217.992 284.789C216.718 285.785 215.878 287.159 215.913 288.908C215.917 288.997 215.945 289.033 215.963 289.051C215.986 289.074 216.036 289.106 216.123 289.117C217.649 289.274 219.184 289.341 220.739 289.408L220.745 289.409C222.293 289.476 223.863 289.544 225.428 289.706L228.825 290.059L225.549 291.025C225.465 291.049 225.381 291.074 225.297 291.099C222.939 291.793 220.473 292.519 218.567 293.719C216.637 294.933 215.351 296.586 215.374 299.175L215.374 299.178V299.181C215.374 299.19 215.376 299.215 215.391 299.251C215.405 299.286 215.425 299.319 215.447 299.344C215.456 299.355 215.464 299.362 215.47 299.367C217.472 299.151 219.27 298.372 221.141 297.561C221.464 297.421 221.79 297.28 222.119 297.141C224.319 296.211 226.655 295.379 229.314 295.817L231.376 296.157L229.504 297.087C224.685 299.48 220.723 303.524 221.291 309.37L221.291 309.374L221.291 309.377C221.299 309.468 221.324 309.52 221.342 309.546C221.36 309.572 221.376 309.583 221.387 309.587C221.397 309.592 221.414 309.596 221.44 309.591C221.466 309.587 221.511 309.572 221.57 309.525C225.096 306.522 229.371 303.627 234.435 304.694C234.898 304.79 235.378 304.905 235.857 305.02C235.914 305.034 235.971 305.048 236.029 305.061C236.569 305.191 237.109 305.318 237.648 305.424C238.732 305.636 239.766 305.751 240.704 305.629L240.706 305.629L240.707 305.629C243.658 305.262 246.065 303.945 247.493 301.167L247.494 301.165L247.495 301.163C248.801 298.665 249.183 295.968 248.564 293.785C247.955 291.642 246.368 289.931 243.551 289.334L243.548 289.333L243.545 289.333C243.545 289.332 243.544 289.332 243.544 289.332C243.539 289.334 243.533 289.336 243.523 289.339L243.28 289.431L243.038 289.335C240.724 288.42 238.566 287.242 236.652 285.168L236.65 285.167L236.649 285.165C236.029 284.486 235.438 283.799 234.853 283.119C233.73 281.814 232.63 280.536 231.392 279.386L231.391 279.385C230.131 278.208 228.879 277.219 227.571 276.703C226.299 276.201 224.962 276.14 223.462 276.85Z" fill="#2C2C2C"/>
<path fill-rule="evenodd" clip-rule="evenodd" d="M407.119 316.014C407.119 315.677 407.393 315.403 407.73 315.403H427.854C428.191 315.403 428.465 315.677 428.465 316.014C428.465 316.351 428.191 316.625 427.854 316.625H407.73C407.393 316.625 407.119 316.351 407.119 316.014Z" fill="#2C2C2C"/>
<path fill-rule="evenodd" clip-rule="evenodd" d="M27.6377 316.014C27.6377 315.677 27.9111 315.403 28.2484 315.403H401.022C401.359 315.403 401.632 315.677 401.632 316.014C401.632 316.351 401.359 316.625 401.022 316.625H28.2484C27.9111 316.625 27.6377 316.351 27.6377 316.014Z" fill="#2C2C2C"/>
<path fill-rule="evenodd" clip-rule="evenodd" d="M1.42822 316.014C1.42822 315.677 1.70165 315.403 2.03893 315.403H15.7903C16.1276 315.403 16.401 315.677 16.401 316.014C16.401 316.351 16.1276 316.625 15.7903 316.625H2.03893C1.70165 316.625 1.42822 316.351 1.42822 316.014Z" fill="#2C2C2C"/>
<path d="M122.129 250.045H268.02C269.765 250.045 271.439 250.739 272.673 251.973C273.907 253.207 274.601 254.881 274.601 256.627V338.588H115.547V256.627C115.547 254.881 116.241 253.207 117.475 251.973C118.709 250.739 120.383 250.045 122.129 250.045Z" fill="white"/>
<path fill-rule="evenodd" clip-rule="evenodd" d="M122.129 250.885C120.606 250.885 119.145 251.49 118.069 252.567C116.992 253.643 116.387 255.104 116.387 256.627V337.75H273.762V256.627C273.762 255.104 273.157 253.643 272.08 252.567C271.004 251.49 269.543 250.885 268.02 250.885H122.129ZM116.882 251.38C118.274 249.989 120.161 249.207 122.129 249.207H268.02C269.988 249.207 271.875 249.989 273.267 251.38C274.658 252.772 275.44 254.659 275.44 256.627V338.589C275.44 339.052 275.064 339.428 274.601 339.428H115.548C115.085 339.428 114.709 339.052 114.709 338.589V256.627C114.709 254.659 115.491 252.772 116.882 251.38Z" fill="#2C2C2C"/>
<path d="M274.601 279.502C254.62 284.57 234.113 297.469 195.903 315.633C159.049 333.165 128.881 332.862 115.547 331.507V338.588H274.601V279.502Z" fill="#2C2C2C"/>
<path fill-rule="evenodd" clip-rule="evenodd" d="M275.116 278.841C275.321 279 275.44 279.244 275.44 279.503V338.588C275.44 339.052 275.064 339.427 274.601 339.427H115.548C115.085 339.427 114.709 339.052 114.709 338.588V331.507C114.709 331.27 114.809 331.044 114.985 330.885C115.162 330.726 115.397 330.649 115.633 330.673C128.852 332.017 158.859 332.327 195.543 314.876L195.544 314.876C208.129 308.893 218.777 303.49 228.132 298.742C232.978 296.284 237.476 294.001 241.717 291.905C254.124 285.773 264.313 281.247 274.395 278.69C274.646 278.626 274.912 278.682 275.116 278.841ZM196.264 316.391C160.065 333.611 130.265 333.713 116.387 332.431V337.75H273.762V280.588C264.199 283.142 254.418 287.499 242.46 293.409C238.248 295.491 233.763 297.767 228.925 300.222C219.557 304.976 208.865 310.401 196.264 316.391Z" fill="#2C2C2C"/>
<path d="M274.601 333.679H115.547V338.601H274.601V333.679Z" fill="white"/>
<path fill-rule="evenodd" clip-rule="evenodd" d="M114.709 333.679C114.709 333.216 115.085 332.84 115.548 332.84H274.601C275.064 332.84 275.44 333.216 275.44 333.679V338.602C275.44 339.065 275.064 339.441 274.601 339.441H115.548C115.085 339.441 114.709 339.065 114.709 338.602V333.679ZM116.387 334.518V337.763H273.762V334.518H116.387Z" fill="#2C2C2C"/>
<path d="M72.4685 340.033C72.4695 341.644 71.8987 343.204 70.8577 344.434C69.8167 345.664 68.373 346.485 66.7835 346.75C47.2192 350.051 27.2402 350.051 7.67593 346.75C6.09319 346.478 4.65801 345.654 3.62479 344.424C2.59157 343.195 2.02705 341.639 2.03127 340.033V274.716H72.5008L72.4685 340.033Z" fill="#50BFD7"/>
<path opacity="0.3" d="M1.99268 275.893V285.062C6.23423 286.634 20.1604 287.787 37.2315 287.787C54.3025 287.787 68.2529 286.634 72.4703 285.062V275.893H1.99268Z" fill="black"/>
<path d="M73.7918 282.885C73.7918 284.957 57.7932 286.634 37.2305 286.634C16.6679 286.634 0.669309 284.957 0.669309 282.885L0 274.74H74.5014L73.7918 282.885Z" fill="#50BFD7"/>
<path d="M37.2305 278.482C57.7924 278.482 74.4611 276.807 74.4611 274.741C74.4611 272.674 57.7924 270.999 37.2305 270.999C16.6687 270.999 0 272.674 0 274.741C0 276.807 16.6687 278.482 37.2305 278.482Z" fill="#50BFD7"/>
<path opacity="0.3" d="M37.2305 278.482C57.7924 278.482 74.4611 276.807 74.4611 274.741C74.4611 272.674 57.7924 270.999 37.2305 270.999C16.6687 270.999 0 272.674 0 274.741C0 276.807 16.6687 278.482 37.2305 278.482Z" fill="black"/>
<path opacity="0.2" d="M11.4431 335.436C10.7187 335.434 10.0247 335.146 9.51248 334.633C9.00029 334.121 8.7116 333.427 8.70947 332.703V295.255C8.7116 294.53 9.00029 293.836 9.51248 293.324C10.0247 292.812 10.7187 292.523 11.4431 292.521C12.1668 292.525 12.8596 292.815 13.3714 293.326C13.8831 293.838 14.1725 294.531 14.1767 295.255V332.703C14.1725 333.427 13.8831 334.119 13.3714 334.631C12.8596 335.143 12.1668 335.432 11.4431 335.436Z" fill="black"/>
<path opacity="0.2" d="M63.0261 335.436C62.3017 335.434 61.6077 335.146 61.0955 334.633C60.5833 334.121 60.2946 333.427 60.2925 332.703V295.255C60.2946 294.53 60.5833 293.836 61.0955 293.324C61.6077 292.812 62.3017 292.523 63.0261 292.521C63.7498 292.525 64.4426 292.815 64.9544 293.326C65.4661 293.838 65.7555 294.531 65.7597 295.255V332.703C65.7555 333.427 65.4661 334.119 64.9544 334.631C64.4426 335.143 63.7498 335.432 63.0261 335.436Z" fill="black"/>
<path opacity="0.2" d="M45.8279 335.436C45.1042 335.432 44.4113 335.143 43.8996 334.631C43.3878 334.119 43.0985 333.427 43.0942 332.703V295.255C43.0985 294.531 43.3878 293.838 43.8996 293.326C44.4113 292.815 45.1042 292.525 45.8279 292.521C46.5522 292.523 47.2463 292.812 47.7585 293.324C48.2707 293.836 48.5594 294.53 48.5615 295.255V332.703C48.5594 333.427 48.2707 334.121 47.7585 334.633C47.2463 335.146 46.5522 335.434 45.8279 335.436Z" fill="black"/>
<path opacity="0.2" d="M28.6345 335.436C27.9108 335.432 27.2179 335.143 26.7062 334.631C26.1945 334.119 25.9051 333.427 25.9009 332.703V295.255C25.9051 294.531 26.1945 293.838 26.7062 293.326C27.2179 292.815 27.9108 292.525 28.6345 292.521C29.3588 292.523 30.0529 292.812 30.5651 293.324C31.0773 293.836 31.366 294.53 31.3681 295.255V332.703C31.366 333.427 31.0773 334.121 30.5651 334.633C30.0529 335.146 29.3588 335.434 28.6345 335.436Z" fill="black"/>
<path d="M212.796 151.494C212.796 155.056 209.095 157.945 204.531 157.945C199.966 157.945 196.265 155.056 196.265 151.494C196.265 147.931 199.966 145.042 204.531 145.042C209.095 145.042 212.796 147.931 212.796 151.494Z" fill="white"/>
<path fill-rule="evenodd" clip-rule="evenodd" d="M204.531 156.332C208.6 156.332 211.183 153.816 211.183 151.494C211.183 149.171 208.6 146.655 204.531 146.655C200.461 146.655 197.878 149.171 197.878 151.494C197.878 153.816 200.461 156.332 204.531 156.332ZM204.531 157.945C209.095 157.945 212.796 155.056 212.796 151.494C212.796 147.931 209.095 145.042 204.531 145.042C199.966 145.042 196.265 147.931 196.265 151.494C196.265 155.056 199.966 157.945 204.531 157.945Z" fill="#454545"/>
</svg>
