<svg width="468" height="350" viewBox="0 0 468 350" fill="none" xmlns="http://www.w3.org/2000/svg">
<path d="M358.429 98.532C358.429 98.532 345.035 46.6589 263.95 13.9451C182.864 -18.7688 110.322 11.53 93.7839 49.8636C77.2461 88.1972 94.5779 108.897 83.5421 141.634C72.5063 174.371 15.8107 215.833 38.6922 266.111C61.5737 316.389 168.645 330.749 255.288 320.376C341.931 310.003 409.623 195.087 358.429 98.532Z" fill="#50BFD7"/>
<path opacity="0.7" d="M358.429 98.532C358.429 98.532 345.035 46.6589 263.95 13.9451C182.864 -18.7688 110.322 11.53 93.7839 49.8636C77.2461 88.1972 94.5779 108.897 83.5421 141.634C72.5063 174.371 15.8107 215.833 38.6922 266.111C61.5737 316.389 168.645 330.749 255.288 320.376C341.931 310.003 409.623 195.087 358.429 98.532Z" fill="white"/>
<path d="M467.206 233.841C467.206 232.365 467.133 151.163 467.029 25.8755L467.206 26.0287H219.841L220.051 25.819C220.051 101.183 220.051 172.266 220.051 233.784L219.857 233.599L467.246 233.784L219.857 233.97H219.647V233.784C219.647 172.266 219.647 101.183 219.647 25.819V25.6094H219.881H467.246H467.424V25.7868C467.311 151.163 467.206 232.365 467.206 233.841Z" fill="#FAFAFA"/>
<path d="M467.237 25.875H219.848V233.84H467.237V25.875Z" fill="#FAFAFA"/>
<path d="M309.165 40.2363H220.334V60.5974H309.165V40.2363Z" fill="#EBEBEB"/>
<path d="M242.735 56.6718C242.735 56.6718 242.735 56.4057 242.735 55.9219C242.735 55.4381 242.735 54.7204 242.735 53.8737C242.735 52.0674 242.687 49.5676 242.646 46.5518L242.816 46.7211H228.083L228.293 46.5115V51.761C228.293 53.4544 228.293 55.0752 228.293 56.5993L228.099 56.4057L238.671 56.5025L241.719 56.5589H242.525H242.824C242.478 56.5973 242.131 56.6135 241.783 56.6073L238.776 56.6557L228.083 56.7525H227.898V56.6718C227.898 55.1316 227.898 53.5108 227.898 51.8336V49.237C227.898 48.8016 227.898 48.3581 227.898 47.9145V46.5356C227.712 46.7211 228.156 46.2776 228.115 46.326H242.848H243.017V46.4953C243.017 49.5596 242.953 52.0916 242.929 53.9221C242.929 54.7285 242.929 55.4219 242.929 55.938C242.888 56.1883 242.823 56.434 242.735 56.6718Z" fill="#263238"/>
<path d="M242.735 46.5183C242.735 46.5183 242.565 46.7522 242.211 47.115C241.856 47.4779 241.332 47.9859 240.678 48.6149C239.372 49.8729 237.542 51.5904 235.51 53.4532C234.937 53.4532 235.348 53.4532 235.219 53.4532H235.171L235.074 53.3645L234.889 53.1871L234.51 52.8403L233.784 52.163L232.405 50.8808L230.058 48.6068C229.405 47.9779 228.881 47.4698 228.518 47.107C228.318 46.9323 228.141 46.7316 227.994 46.5103C227.994 46.5103 228.244 46.6554 228.631 46.986C229.018 47.3166 229.575 47.7924 230.244 48.3891L232.615 50.518L234.002 51.784L234.735 52.4533L235.114 52.8L235.3 52.9774L235.397 53.0581L235.445 53.1064H235.187C237.219 51.2356 239.074 49.5503 240.437 48.3488C241.114 47.7521 241.67 47.2683 242.049 46.9457C242.256 46.771 242.487 46.6271 242.735 46.5183Z" fill="#263238"/>
<path d="M232.904 51.0264C232.248 52.0959 231.475 53.0886 230.598 53.9858C229.828 54.977 228.949 55.8778 227.977 56.671C228.634 55.605 229.408 54.6151 230.283 53.7197C231.054 52.7272 231.933 51.8238 232.904 51.0264Z" fill="#263238"/>
<path d="M242.83 56.7597C241.879 55.9128 241.024 54.9636 240.282 53.9293C239.429 52.9784 238.683 51.9374 238.056 50.8247C239.008 51.6732 239.863 52.6252 240.604 53.6632C241.458 54.6104 242.204 55.6488 242.83 56.7597Z" fill="#263238"/>
<path d="M298.962 50.0593C298.962 50.1802 288.56 50.2689 275.739 50.2689C262.917 50.2689 252.523 50.1802 252.523 50.0593C252.523 49.9383 262.917 49.8496 275.739 49.8496C288.56 49.8496 298.962 49.9464 298.962 50.0593Z" fill="#263238"/>
<path d="M467.24 130.681H308.037V165.565H467.24V130.681Z" fill="#50BFD7"/>
<g opacity="0.8">
<path opacity="0.8" d="M467.238 130.682H308.034V165.566H467.238V130.682Z" fill="white"/>
</g>
<path d="M329.534 141.583H320.091C319.089 141.583 318.277 142.395 318.277 143.397V152.84C318.277 153.842 319.089 154.654 320.091 154.654H329.534C330.536 154.654 331.348 153.842 331.348 152.84V143.397C331.348 142.395 330.536 141.583 329.534 141.583Z" fill="#50BFD7"/>
<path d="M323.823 151.017C323.649 151.017 323.479 150.96 323.339 150.855L320.702 148.872C320.607 148.813 320.526 148.734 320.463 148.642C320.399 148.549 320.356 148.445 320.336 148.334C320.315 148.224 320.318 148.111 320.344 148.002C320.369 147.893 320.418 147.791 320.485 147.702C320.552 147.612 320.638 147.538 320.736 147.483C320.833 147.429 320.941 147.395 321.053 147.384C321.164 147.374 321.277 147.387 321.383 147.422C321.489 147.457 321.587 147.514 321.67 147.59L323.726 149.13L327.855 144.646C328 144.489 328.202 144.396 328.416 144.388C328.63 144.379 328.839 144.457 328.996 144.602C329.153 144.747 329.246 144.949 329.254 145.163C329.263 145.377 329.186 145.586 329.04 145.743L324.42 150.759C324.344 150.841 324.251 150.906 324.149 150.95C324.046 150.995 323.935 151.017 323.823 151.017Z" fill="white"/>
<path d="M467.24 95.6187H308.037V130.503H467.24V95.6187Z" fill="#50BFD7"/>
<path d="M466.279 130.632C466.279 130.752 431.104 130.841 387.721 130.841C344.338 130.841 309.164 130.752 309.164 130.632C309.164 130.511 344.33 130.422 387.721 130.422C431.112 130.422 466.279 130.519 466.279 130.632Z" fill="#263238"/>
<path d="M467.327 200.417H308.124V233.841H467.327V200.417Z" fill="#50BFD7"/>
<g opacity="0.8">
<path opacity="0.8" d="M467.327 200.417H308.124V233.841H467.327V200.417Z" fill="white"/>
</g>
<path d="M329.613 211.326H320.171C319.169 211.326 318.356 212.138 318.356 213.141V222.583C318.356 223.585 319.169 224.398 320.171 224.398H329.613C330.616 224.398 331.428 223.585 331.428 222.583V213.141C331.428 212.138 330.616 211.326 329.613 211.326Z" fill="#50BFD7"/>
<path d="M323.903 220.769C323.729 220.769 323.559 220.712 323.419 220.608L320.783 218.624C320.611 218.496 320.498 218.305 320.468 218.093C320.438 217.881 320.493 217.666 320.621 217.495C320.75 217.324 320.941 217.211 321.152 217.181C321.364 217.15 321.579 217.205 321.75 217.334L323.806 218.882L327.935 214.398C328.004 214.313 328.09 214.242 328.188 214.191C328.286 214.139 328.393 214.109 328.503 214.1C328.613 214.092 328.723 214.107 328.827 214.143C328.932 214.179 329.027 214.236 329.108 214.311C329.19 214.385 329.255 214.476 329.3 214.576C329.344 214.677 329.368 214.786 329.369 214.896C329.37 215.006 329.349 215.116 329.306 215.217C329.263 215.319 329.2 215.411 329.12 215.487L324.476 220.511C324.402 220.59 324.314 220.654 324.216 220.698C324.117 220.742 324.011 220.766 323.903 220.769Z" fill="white"/>
<g opacity="0.8">
<path opacity="0.8" d="M467.238 95.6187H308.034V130.503H467.238V95.6187Z" fill="white"/>
</g>
<path d="M329.534 106.522H320.091C319.089 106.522 318.277 107.334 318.277 108.336V117.779C318.277 118.781 319.089 119.593 320.091 119.593H329.534C330.536 119.593 331.348 118.781 331.348 117.779V108.336C331.348 107.334 330.536 106.522 329.534 106.522Z" fill="#50BFD7"/>
<path d="M323.823 115.965C323.649 115.965 323.479 115.908 323.339 115.803L320.702 113.82C320.607 113.76 320.526 113.682 320.463 113.59C320.399 113.497 320.356 113.392 320.336 113.282C320.315 113.172 320.318 113.059 320.344 112.95C320.369 112.841 320.418 112.739 320.485 112.649C320.552 112.56 320.638 112.486 320.736 112.431C320.833 112.377 320.941 112.343 321.053 112.332C321.164 112.322 321.277 112.335 321.383 112.37C321.489 112.405 321.587 112.462 321.67 112.537L323.726 114.078L327.855 109.594C327.999 109.437 328.2 109.344 328.413 109.335C328.626 109.326 328.834 109.402 328.992 109.546C329.071 109.618 329.135 109.704 329.18 109.801C329.225 109.897 329.25 110.002 329.255 110.108C329.259 110.215 329.243 110.321 329.206 110.421C329.169 110.521 329.113 110.613 329.04 110.691L324.42 115.707C324.344 115.789 324.251 115.854 324.149 115.898C324.046 115.943 323.935 115.965 323.823 115.965Z" fill="white"/>
<path d="M467.206 233.841C467.206 232.365 467.133 151.163 467.029 25.8755L467.206 26.0287H219.841L220.051 25.819C220.051 101.183 220.051 172.266 220.051 233.784L219.857 233.599L467.246 233.784L219.857 233.97H219.647V233.784C219.647 172.266 219.647 101.183 219.647 25.819V25.6094H219.881H467.246H467.424V25.7868C467.311 151.163 467.206 232.365 467.206 233.841Z" fill="#50BFD7"/>
<path d="M220.334 40.237C220.334 40.116 275.498 40.0273 343.541 40.0273C411.583 40.0273 466.764 40.116 466.764 40.237C466.764 40.358 411.607 40.4467 343.541 40.4467C275.474 40.4467 220.334 40.3499 220.334 40.237Z" fill="#50BFD7"/>
<path d="M227.864 35.4315C229.324 35.4315 230.509 34.2473 230.509 32.7865C230.509 31.3258 229.324 30.1416 227.864 30.1416C226.403 30.1416 225.219 31.3258 225.219 32.7865C225.219 34.2473 226.403 35.4315 227.864 35.4315Z" fill="#50BFD7"/>
<path d="M235.219 35.4315C236.679 35.4315 237.864 34.2473 237.864 32.7865C237.864 31.3258 236.679 30.1416 235.219 30.1416C233.758 30.1416 232.574 31.3258 232.574 32.7865C232.574 34.2473 233.758 35.4315 235.219 35.4315Z" fill="#50BFD7"/>
<path d="M245.25 30.9159C245.62 31.2858 245.872 31.7571 245.974 32.2701C246.075 32.7832 246.023 33.3149 245.823 33.7981C245.623 34.2813 245.283 34.6943 244.849 34.9848C244.414 35.2754 243.902 35.4305 243.379 35.4305C242.856 35.4305 242.345 35.2754 241.91 34.9848C241.475 34.6943 241.136 34.2813 240.936 33.7981C240.736 33.3149 240.683 32.7832 240.785 32.2701C240.887 31.7571 241.139 31.2858 241.508 30.9159C241.754 30.6701 242.046 30.4751 242.367 30.3421C242.688 30.2091 243.032 30.1406 243.379 30.1406C243.727 30.1406 244.071 30.2091 244.392 30.3421C244.713 30.4751 245.004 30.6701 245.25 30.9159Z" fill="#50BFD7"/>
<path d="M252.709 68.7667C252.899 68.7433 253.092 68.7433 253.282 68.7667L254.959 68.7183L261.104 68.6377H261.184L261.233 68.7022L263.942 72.2664L263.983 72.3229V72.3874C263.983 74.0001 263.983 75.7903 263.983 77.645V77.8546H261.305H250.242H250.064V77.6369C250.064 75.8145 250.064 74.1937 250.113 72.7986L252 69.8392C252.211 69.4657 252.448 69.1073 252.709 68.7667C252.674 68.8747 252.626 68.9777 252.564 69.0731L252.105 69.8795L250.363 72.8551V72.7825C250.363 74.1533 250.363 75.7742 250.403 77.6208L250.226 77.4434H261.289H263.765L263.555 77.653C263.555 75.7983 263.555 74.0243 263.555 72.3954L263.595 72.5083L260.934 68.9199L261.072 68.9844L254.991 68.9038H253.298C253.098 68.8758 252.901 68.8299 252.709 68.7667Z" fill="#263238"/>
<path d="M263.796 72.6207C263.414 72.7233 263.022 72.7775 262.627 72.7819C261.885 72.8465 260.82 72.919 259.554 72.9997L259.724 72.8223C259.693 73.4961 259.472 74.1475 259.087 74.7011C258.876 75.0052 258.601 75.2586 258.28 75.443C257.926 75.6069 257.542 75.6975 257.151 75.7091C256.736 75.7263 256.321 75.6513 255.938 75.4896C255.555 75.3279 255.212 75.0834 254.934 74.7737C254.471 74.22 254.16 73.5561 254.031 72.8465L254.208 72.9916C253.031 72.9916 252.047 72.9513 251.362 72.919C251 72.9261 250.64 72.8854 250.289 72.7981C250.641 72.722 251.001 72.6895 251.362 72.7013C252.047 72.7013 253.031 72.6449 254.208 72.6207H254.321V72.7739C254.458 73.4048 254.749 73.992 255.168 74.4834C255.406 74.75 255.7 74.9606 256.029 75.1001C256.358 75.2395 256.714 75.3043 257.071 75.2898C257.4 75.2885 257.725 75.2142 258.022 75.0721C258.302 74.9275 258.545 74.7206 258.732 74.4673C259.074 73.9791 259.28 73.4085 259.329 72.8142V72.6449H259.482C260.756 72.6045 261.82 72.5804 262.57 72.5723C262.979 72.5363 263.391 72.5526 263.796 72.6207Z" fill="#263238"/>
<path d="M294.109 69.2097C294.334 69.1589 294.565 69.1372 294.795 69.1451V69.2742C293.182 69.3548 288.191 69.4193 282.336 69.4193C278.708 69.4193 275.418 69.4193 273.039 69.3548L270.225 69.2903C269.879 69.3019 269.532 69.2749 269.192 69.2097C269.532 69.1445 269.879 69.1174 270.225 69.129L273.039 69.0645C275.418 69.0242 278.683 69 282.336 69C288.191 69 293.15 69.0645 294.795 69.1451V69.2742C294.565 69.2874 294.333 69.2657 294.109 69.2097Z" fill="#263238"/>
<path d="M294.109 74.4929C294.333 74.4368 294.565 74.4151 294.795 74.4284V74.5574C293.182 74.638 288.191 74.7025 282.336 74.7025C278.708 74.7025 275.418 74.7025 273.039 74.638L270.225 74.5735C269.879 74.5799 269.533 74.5529 269.192 74.4929C269.532 74.4269 269.878 74.3971 270.225 74.4042L273.039 74.3397C275.418 74.3397 278.683 74.2832 282.336 74.2832C288.191 74.2832 293.15 74.3397 294.795 74.4284V74.5574C294.565 74.56 294.335 74.5383 294.109 74.4929Z" fill="#263238"/>
<path d="M294.109 79.7653C294.334 79.7146 294.565 79.6929 294.795 79.7008V79.8298C293.182 79.9185 288.191 79.975 282.336 79.975C278.708 79.975 275.418 79.975 273.039 79.9185L270.225 79.846C269.879 79.8576 269.532 79.8305 269.192 79.7653C269.533 79.7053 269.879 79.6783 270.225 79.6847L273.039 79.6202C275.418 79.5799 278.683 79.5557 282.336 79.5557C288.191 79.5557 293.15 79.6202 294.795 79.7008V79.8298C294.565 79.8431 294.333 79.8214 294.109 79.7653Z" fill="#263238"/>
<path d="M252.709 106.561C252.898 106.524 253.09 106.507 253.282 106.513L254.959 106.473L261.104 106.392H261.184L261.233 106.457L263.942 110.021L263.983 110.077V110.142C263.983 111.755 263.983 113.545 263.983 115.399V115.609H261.305H250.242H250.064V115.432C250.064 113.609 250.064 111.988 250.113 110.593V110.553L252 107.594C252.206 107.246 252.435 106.912 252.685 106.594C252.65 106.702 252.601 106.805 252.54 106.9L252.08 107.706L250.371 110.698V110.626C250.371 111.996 250.371 113.617 250.411 115.464L250.234 115.286H261.297H263.773L263.563 115.496C263.563 113.641 263.563 111.867 263.563 110.239L263.604 110.351L260.943 106.763L261.08 106.828L254.999 106.747H253.306C253.102 106.704 252.902 106.642 252.709 106.561Z" fill="#263238"/>
<path d="M263.796 110.392C263.414 110.494 263.022 110.549 262.627 110.553C261.885 110.618 260.82 110.69 259.554 110.771L259.724 110.593C259.693 111.267 259.472 111.919 259.087 112.472C258.876 112.776 258.601 113.03 258.28 113.214C257.926 113.378 257.542 113.469 257.151 113.48C256.736 113.497 256.321 113.422 255.938 113.261C255.555 113.099 255.212 112.855 254.934 112.545C254.471 111.991 254.16 111.327 254.031 110.618L254.208 110.763C253.031 110.763 252.047 110.722 251.362 110.69C251.001 110.702 250.64 110.667 250.289 110.585C250.641 110.508 251.001 110.473 251.362 110.48L254.208 110.408H254.321V110.561C254.458 111.192 254.749 111.779 255.168 112.271C255.406 112.537 255.7 112.748 256.029 112.887C256.358 113.027 256.714 113.091 257.071 113.077C257.4 113.076 257.725 113.001 258.022 112.859C258.302 112.715 258.545 112.508 258.732 112.254C259.074 111.766 259.28 111.196 259.329 110.601V110.432H259.482C260.756 110.432 261.82 110.368 262.57 110.359C262.978 110.318 263.39 110.329 263.796 110.392Z" fill="#263238"/>
<path d="M294.109 106.981C294.334 106.93 294.565 106.908 294.795 106.916V107.045C293.182 107.126 288.191 107.19 282.336 107.19C278.708 107.19 275.418 107.19 273.039 107.126L270.225 107.061C269.879 107.073 269.532 107.046 269.192 106.981C269.532 106.915 269.879 106.888 270.225 106.9L273.039 106.836C275.418 106.795 278.683 106.771 282.336 106.771C288.191 106.771 293.15 106.836 294.795 106.916V107.045C294.565 107.053 294.334 107.031 294.109 106.981Z" fill="#263238"/>
<path d="M294.109 112.262C294.333 112.206 294.565 112.185 294.795 112.198V112.311C293.182 112.391 288.191 112.456 282.336 112.456C278.708 112.456 275.418 112.456 273.039 112.391L270.225 112.327C269.879 112.333 269.533 112.306 269.192 112.246C269.532 112.18 269.878 112.151 270.225 112.158L273.039 112.093C275.418 112.053 278.683 112.037 282.336 112.037C288.191 112.037 293.15 112.093 294.795 112.182V112.311C294.565 112.319 294.336 112.302 294.109 112.262Z" fill="#263238"/>
<path d="M294.109 117.537C294.334 117.486 294.565 117.464 294.795 117.472V117.601C293.182 117.69 288.191 117.746 282.336 117.746C278.708 117.746 275.418 117.746 273.039 117.69L270.225 117.617C269.879 117.629 269.532 117.602 269.192 117.537C269.533 117.477 269.879 117.45 270.225 117.456L273.039 117.392C275.418 117.351 278.683 117.327 282.336 117.327C288.191 117.327 293.15 117.392 294.795 117.472V117.601C294.565 117.615 294.333 117.593 294.109 117.537Z" fill="#263238"/>
<path d="M252.709 144.332C252.898 144.295 253.09 144.278 253.282 144.284L254.959 144.244L261.104 144.163H261.184L261.233 144.228L263.942 147.792L263.983 147.848V147.913C263.983 149.526 263.983 151.316 263.983 153.17V153.38H261.305H250.242H250.064V153.203C250.064 151.38 250.064 149.759 250.113 148.364L252 145.405C252.206 145.057 252.435 144.723 252.685 144.405C252.65 144.513 252.601 144.616 252.54 144.711L252.08 145.518L250.339 148.493V148.421C250.339 149.792 250.339 151.412 250.379 153.259L250.202 153.082H261.265H263.741L263.531 153.291C263.531 151.437 263.531 149.663 263.531 148.034L263.571 148.147L260.91 144.558L261.047 144.623L254.967 144.542H253.274C253.08 144.489 252.891 144.419 252.709 144.332Z" fill="#263238"/>
<path d="M263.796 148.163C263.414 148.266 263.022 148.32 262.627 148.325C261.885 148.389 260.82 148.462 259.554 148.542L259.724 148.365C259.693 149.039 259.472 149.69 259.087 150.244C258.876 150.548 258.601 150.801 258.28 150.986C257.927 151.151 257.542 151.239 257.151 151.244C256.736 151.264 256.321 151.191 255.938 151.031C255.554 150.871 255.211 150.626 254.934 150.316C254.471 149.763 254.16 149.099 254.031 148.389L254.208 148.534C253.031 148.534 252.047 148.534 251.362 148.462C251.001 148.474 250.64 148.439 250.289 148.357C250.641 148.28 251.001 148.245 251.362 148.252L254.208 148.179H254.321V148.333C254.458 148.963 254.749 149.551 255.168 150.042C255.406 150.309 255.7 150.519 256.029 150.659C256.358 150.798 256.714 150.863 257.071 150.848C257.4 150.847 257.725 150.773 258.022 150.631C258.302 150.486 258.545 150.279 258.732 150.026C259.074 149.538 259.28 148.967 259.329 148.373V148.204H259.482C260.756 148.155 261.82 148.139 262.57 148.131C262.978 148.09 263.39 148.101 263.796 148.163Z" fill="#263238"/>
<path d="M294.109 144.751C294.334 144.7 294.565 144.679 294.795 144.687V144.816C293.182 144.896 288.191 144.961 282.336 144.961C278.708 144.961 275.418 144.961 273.039 144.896L270.225 144.832C269.879 144.843 269.532 144.816 269.192 144.751C269.532 144.686 269.879 144.659 270.225 144.671L273.039 144.606C275.418 144.566 278.683 144.542 282.336 144.542C288.191 144.542 293.15 144.606 294.795 144.687V144.816C294.565 144.824 294.334 144.802 294.109 144.751Z" fill="#263238"/>
<path d="M294.109 150.034C294.333 149.978 294.565 149.957 294.795 149.97V150.099C293.182 150.18 288.191 150.244 282.336 150.244C278.708 150.244 275.418 150.244 273.039 150.18L270.225 150.115C269.879 150.121 269.533 150.094 269.192 150.034C269.532 149.968 269.878 149.939 270.225 149.946L273.039 149.881C275.418 149.841 278.683 149.825 282.336 149.825C288.191 149.825 293.15 149.881 294.795 149.97V150.099C294.565 150.101 294.335 150.08 294.109 150.034Z" fill="#263238"/>
<path d="M294.109 155.307C294.334 155.257 294.565 155.235 294.795 155.243V155.372C293.182 155.461 288.191 155.517 282.336 155.517C278.708 155.517 275.418 155.517 273.039 155.461L270.225 155.388C269.879 155.4 269.532 155.373 269.192 155.307C269.533 155.247 269.879 155.22 270.225 155.227L273.039 155.162C275.418 155.162 278.683 155.098 282.336 155.098C288.191 155.098 293.15 155.162 294.795 155.243V155.372C294.565 155.385 294.333 155.363 294.109 155.307Z" fill="#263238"/>
<path d="M454.399 120.012H448.255C447.934 120.017 447.615 119.958 447.317 119.839C447.019 119.72 446.747 119.543 446.518 119.318C446.289 119.092 446.107 118.824 445.983 118.528C445.859 118.232 445.795 117.914 445.795 117.593V107.352H446.602V117.56C446.602 117.776 446.645 117.989 446.728 118.187C446.812 118.385 446.934 118.565 447.088 118.715C447.242 118.866 447.425 118.983 447.625 119.062C447.826 119.141 448.04 119.178 448.255 119.173H454.399C454.827 119.173 455.237 119.003 455.54 118.701C455.842 118.398 456.012 117.988 456.012 117.56V107.706H456.819V117.56C456.823 117.881 456.763 118.199 456.644 118.496C456.524 118.793 456.347 119.064 456.122 119.292C455.896 119.52 455.628 119.701 455.333 119.825C455.037 119.948 454.72 120.012 454.399 120.012Z" fill="#50BFD7"/>
<path d="M457.869 107.409H444.789V108.215H457.869V107.409Z" fill="#50BFD7"/>
<path d="M448.95 107.811H448.144V106.915C448.144 106.488 448.313 106.078 448.616 105.775C448.918 105.473 449.329 105.303 449.756 105.303H452.982C453.41 105.303 453.82 105.473 454.122 105.775C454.425 106.078 454.595 106.488 454.595 106.915V107.633H453.788V106.915C453.788 106.702 453.703 106.497 453.552 106.345C453.401 106.194 453.196 106.109 452.982 106.109H449.756C449.542 106.109 449.337 106.194 449.186 106.345C449.035 106.497 448.95 106.702 448.95 106.915V107.811Z" fill="#50BFD7"/>
<path d="M449.465 116.997C449.258 115.854 449.187 114.69 449.255 113.53C449.187 112.372 449.258 111.211 449.465 110.07C449.676 111.21 449.746 112.372 449.674 113.53C449.747 114.69 449.676 115.854 449.465 116.997Z" fill="#50BFD7"/>
<path d="M451.361 116.997C451.154 115.854 451.083 114.69 451.151 113.53C451.083 112.372 451.154 111.211 451.361 110.07C451.572 111.21 451.642 112.372 451.57 113.53C451.643 114.69 451.572 115.854 451.361 116.997Z" fill="#50BFD7"/>
<path d="M453.271 116.997C453.064 115.854 452.993 114.69 453.061 113.53C452.994 112.372 453.064 111.211 453.271 110.07C453.482 111.21 453.553 112.372 453.48 113.53C453.553 114.69 453.482 115.854 453.271 116.997Z" fill="#50BFD7"/>
<path d="M454.399 153.073H448.255C447.603 153.071 446.979 152.812 446.518 152.351C446.057 151.89 445.798 151.266 445.795 150.614V140.405H446.602V150.614C446.602 151.052 446.776 151.473 447.086 151.783C447.396 152.093 447.816 152.267 448.255 152.267H454.399C454.831 152.257 455.241 152.078 455.542 151.769C455.844 151.46 456.012 151.046 456.012 150.614V140.76H456.819V150.614C456.824 150.935 456.765 151.254 456.646 151.552C456.527 151.85 456.35 152.122 456.124 152.351C455.899 152.58 455.631 152.761 455.335 152.886C455.038 153.01 454.721 153.074 454.399 153.073Z" fill="#50BFD7"/>
<path d="M457.869 140.461H444.789V141.268H457.869V140.461Z" fill="#50BFD7"/>
<path d="M448.95 140.865H448.144V139.97C448.144 139.542 448.313 139.132 448.616 138.829C448.918 138.527 449.329 138.357 449.756 138.357H452.982C453.41 138.357 453.82 138.527 454.122 138.829C454.425 139.132 454.595 139.542 454.595 139.97V140.687H453.788V139.97C453.788 139.756 453.703 139.551 453.552 139.399C453.401 139.248 453.196 139.163 452.982 139.163H449.756C449.542 139.163 449.337 139.248 449.186 139.399C449.035 139.551 448.95 139.756 448.95 139.97V140.865Z" fill="#50BFD7"/>
<path d="M449.467 150.051C449.187 147.75 449.187 145.424 449.467 143.124C449.746 145.424 449.746 147.75 449.467 150.051Z" fill="#50BFD7"/>
<path d="M451.361 150.051C451.081 147.75 451.081 145.424 451.361 143.124C451.64 145.424 451.64 147.75 451.361 150.051Z" fill="#50BFD7"/>
<path d="M453.273 150.051C452.994 147.75 452.994 145.424 453.273 143.124C453.553 145.424 453.553 147.75 453.273 150.051Z" fill="#50BFD7"/>
<path d="M454.399 225.737H448.255C447.934 225.742 447.615 225.684 447.317 225.564C447.019 225.445 446.747 225.268 446.518 225.043C446.289 224.817 446.107 224.549 445.983 224.253C445.859 223.957 445.795 223.639 445.795 223.318V213.109H446.602V223.318C446.602 223.533 446.645 223.746 446.728 223.944C446.812 224.143 446.934 224.322 447.088 224.473C447.242 224.623 447.425 224.741 447.625 224.819C447.826 224.898 448.04 224.936 448.255 224.93H454.399C454.827 224.93 455.237 224.76 455.54 224.458C455.842 224.156 456.012 223.745 456.012 223.318V213.431H456.819V223.285C456.823 223.606 456.763 223.924 456.644 224.221C456.524 224.518 456.347 224.789 456.122 225.017C455.896 225.245 455.628 225.426 455.333 225.55C455.037 225.673 454.72 225.737 454.399 225.737Z" fill="#50BFD7"/>
<path d="M457.869 213.133H444.789V213.94H457.869V213.133Z" fill="#50BFD7"/>
<path d="M448.95 213.536H448.144V212.633C448.144 212.205 448.313 211.795 448.616 211.492C448.918 211.19 449.329 211.02 449.756 211.02H452.982C453.41 211.02 453.82 211.19 454.122 211.492C454.425 211.795 454.595 212.205 454.595 212.633V213.359H453.788V212.633C453.788 212.419 453.703 212.214 453.552 212.063C453.401 211.911 453.196 211.826 452.982 211.826H449.756C449.542 211.826 449.337 211.911 449.186 212.063C449.035 212.214 448.95 212.419 448.95 212.633V213.536Z" fill="#50BFD7"/>
<path d="M449.467 222.72C449.187 220.42 449.187 218.094 449.467 215.793C449.746 218.094 449.746 220.42 449.467 222.72Z" fill="#50BFD7"/>
<path d="M451.361 222.72C451.081 220.42 451.081 218.094 451.361 215.793C451.64 218.094 451.64 220.42 451.361 222.72Z" fill="#50BFD7"/>
<path d="M453.273 222.72C452.994 220.42 452.994 218.094 453.273 215.793C453.553 218.094 453.553 220.42 453.273 222.72Z" fill="#50BFD7"/>
<path d="M466.28 60.5983C466.28 60.7112 431.105 60.808 387.722 60.808C344.339 60.808 309.157 60.7032 309.157 60.5983C309.157 60.4935 344.323 60.3887 387.714 60.3887C431.106 60.3887 466.28 60.4854 466.28 60.5983Z" fill="#263238"/>
<path d="M466.28 95.6188C466.28 95.7317 431.105 95.8285 387.722 95.8285C344.339 95.8285 309.157 95.7317 309.157 95.6188C309.157 95.506 344.323 95.4092 387.714 95.4092C431.106 95.4092 466.28 95.4979 466.28 95.6188Z" fill="#263238"/>
<path d="M466.28 164.935C466.28 165.048 431.105 165.145 387.722 165.145C344.339 165.145 309.157 165.048 309.157 164.935C309.157 164.822 344.323 164.726 387.714 164.726C431.106 164.726 466.28 164.814 466.28 164.935Z" fill="#263238"/>
<path d="M466.279 200.417C466.279 200.538 431.104 200.627 387.721 200.627C344.338 200.627 309.164 200.538 309.164 200.417C309.164 200.296 344.33 200.208 387.721 200.208C431.112 200.208 466.279 200.304 466.279 200.417Z" fill="#263238"/>
<path d="M329.541 84.8946C329.541 84.8946 329.719 84.8946 330.025 84.7817C330.469 84.6407 330.84 84.3308 331.057 83.9188C331.372 83.3947 331.211 82.6125 331.235 81.7255C331.259 80.8385 331.235 79.8305 331.235 78.7258C331.235 77.621 331.235 76.3873 331.235 75.089C331.235 74.7584 331.235 74.4278 331.235 74.0891C331.263 73.767 331.235 73.4425 331.154 73.1295C331.052 72.8216 330.86 72.5515 330.603 72.3544C330.345 72.1573 330.035 72.0425 329.711 72.0248H320.091C319.717 72.0276 319.356 72.1603 319.069 72.4001C318.782 72.6398 318.587 72.9718 318.518 73.3392C318.462 74.081 318.518 74.9519 318.518 75.7583C318.518 77.3711 318.518 78.9032 318.518 80.3788C318.518 81.1126 318.518 81.8303 318.518 82.5319C318.496 82.8579 318.513 83.1853 318.567 83.5076C318.636 83.8128 318.789 84.0923 319.01 84.314C319.223 84.5162 319.484 84.6606 319.768 84.7333C320.058 84.7827 320.353 84.7989 320.647 84.7817H322.397L327.663 84.8462L329.098 84.8865C329.265 84.8826 329.433 84.8961 329.598 84.9268C329.432 84.9495 329.264 84.9495 329.098 84.9268L327.663 84.9671L322.397 85.0397H320.647C320.326 85.0625 320.004 85.0463 319.687 84.9913C319.335 84.9118 319.011 84.7365 318.752 84.4846C318.493 84.2327 318.309 83.9141 318.22 83.5641C318.151 83.2137 318.13 82.8557 318.155 82.4996C318.155 81.7981 318.155 81.0804 318.155 80.3466C318.155 78.8709 318.155 77.3307 318.155 75.726V74.5165C318.128 74.0949 318.128 73.672 318.155 73.2505C318.25 72.7944 318.499 72.385 318.86 72.0912C319.222 71.7974 319.673 71.6373 320.139 71.6377H329.719C330.116 71.6654 330.496 71.8105 330.81 72.0546C331.125 72.2987 331.359 72.6307 331.485 73.0085C331.578 73.3607 331.611 73.726 331.582 74.0891C331.582 74.4278 331.582 74.7584 331.582 75.089C331.582 76.3873 331.582 77.6049 331.582 78.7258C331.582 79.8466 331.582 80.8385 331.582 81.7255C331.582 82.169 331.582 82.5803 331.582 82.9593C331.592 83.322 331.506 83.681 331.332 83.9995C331.077 84.4307 330.663 84.7438 330.178 84.8704C329.972 84.9373 329.752 84.9457 329.541 84.8946Z" fill="#263238"/>
<path d="M329.541 189.538C329.541 189.538 329.719 189.538 330.025 189.425C330.469 189.284 330.84 188.974 331.057 188.562C331.372 188.038 331.211 187.256 331.235 186.369C331.259 185.482 331.235 184.474 331.235 183.369C331.235 182.265 331.235 181.031 331.235 179.733C331.235 179.402 331.235 179.071 331.235 178.733C331.263 178.411 331.235 178.086 331.154 177.773C331.052 177.465 330.86 177.195 330.603 176.998C330.345 176.801 330.035 176.686 329.711 176.668H320.091C319.718 176.671 319.358 176.802 319.071 177.041C318.784 177.279 318.589 177.609 318.518 177.975C318.462 178.725 318.518 179.587 318.518 180.394C318.518 182.007 318.518 183.539 318.518 185.014C318.518 185.748 318.518 186.466 318.518 187.159C318.496 187.488 318.512 187.818 318.567 188.143C318.633 188.449 318.787 188.73 319.01 188.95C319.22 189.156 319.482 189.301 319.768 189.369C320.057 189.425 320.353 189.444 320.647 189.425H322.397L327.663 189.49L329.098 189.53C329.264 189.513 329.432 189.513 329.598 189.53C329.434 189.566 329.266 189.58 329.098 189.57L327.663 189.611L322.397 189.675H320.647C320.326 189.698 320.004 189.682 319.687 189.627C319.335 189.547 319.011 189.372 318.752 189.12C318.493 188.868 318.309 188.55 318.22 188.2C318.151 187.847 318.129 187.486 318.155 187.127C318.155 186.434 318.155 185.716 318.155 184.982C318.155 183.506 318.155 181.966 318.155 180.362V179.152C318.128 178.73 318.128 178.308 318.155 177.886C318.242 177.423 318.487 177.004 318.849 176.702C319.211 176.4 319.668 176.234 320.139 176.233H329.719C330.116 176.261 330.496 176.406 330.81 176.65C331.125 176.894 331.359 177.226 331.485 177.604C331.578 177.956 331.611 178.321 331.582 178.684C331.582 179.023 331.582 179.354 331.582 179.684C331.582 180.982 331.582 182.2 331.582 183.321C331.582 184.442 331.582 185.434 331.582 186.321C331.582 186.764 331.582 187.175 331.582 187.554C331.592 187.917 331.506 188.276 331.332 188.595C331.207 188.808 331.041 188.995 330.843 189.143C330.644 189.291 330.419 189.398 330.178 189.458C329.976 189.538 329.757 189.566 329.541 189.538Z" fill="#263238"/>
<path d="M307.995 230.849C307.995 230.849 307.995 230.68 307.995 230.357C307.995 230.035 307.995 229.551 307.995 228.914C307.995 227.624 307.995 225.753 307.995 223.358C307.995 218.52 307.995 211.544 307.995 202.932C307.995 185.692 308.204 161.872 308.446 135.559C308.688 109.247 308.874 85.4348 309.027 68.1783C309.083 59.5662 309.124 52.591 309.156 47.7527C309.156 45.3336 309.156 43.487 309.204 42.2048C309.204 41.5759 309.204 41.1001 309.204 40.7614C309.204 40.4227 309.204 40.2695 309.204 40.2695C309.204 40.2695 309.204 40.4308 309.204 40.7614C309.204 41.092 309.204 41.5678 309.204 42.2048C309.204 43.487 309.204 45.3578 309.204 47.7527C309.204 52.591 309.204 59.5662 309.204 68.1783C309.164 85.4187 308.995 109.247 308.745 135.559C308.495 161.872 308.317 185.676 308.172 202.932C308.116 211.544 308.075 218.52 308.043 223.358C308.043 225.777 308.043 227.624 307.995 228.914C307.995 229.535 307.995 230.011 307.995 230.357C307.995 230.704 307.995 230.849 307.995 230.849Z" fill="#263238"/>
<path d="M397.784 109.666C397.784 109.779 385.689 109.876 370.722 109.876C355.756 109.876 343.66 109.779 343.66 109.666C343.66 109.553 355.756 109.457 370.722 109.457C385.689 109.457 397.784 109.545 397.784 109.666Z" fill="#263238"/>
<path d="M431.612 115.633C431.612 115.753 411.92 115.842 387.64 115.842C363.36 115.842 343.66 115.753 343.66 115.633C343.66 115.512 363.352 115.423 387.64 115.423C411.928 115.423 431.612 115.536 431.612 115.633Z" fill="#263238"/>
<path d="M397.784 179.911C397.784 180.024 385.689 180.12 370.722 180.12C355.756 180.12 343.66 180.024 343.66 179.911C343.66 179.798 355.756 179.701 370.722 179.701C385.689 179.701 397.784 179.79 397.784 179.911Z" fill="#263238"/>
<path d="M431.612 185.877C431.612 185.99 411.92 186.086 387.64 186.086C363.36 186.086 343.66 185.99 343.66 185.877C343.66 185.764 363.352 185.667 387.64 185.667C411.928 185.667 431.612 185.764 431.612 185.877Z" fill="#263238"/>
<path d="M397.784 75.9108C397.784 76.0318 385.689 76.1286 370.722 76.1286C355.756 76.1286 343.66 76.0318 343.66 75.9108C343.66 75.7899 355.756 75.7012 370.722 75.7012C385.689 75.7012 397.784 75.7979 397.784 75.9108Z" fill="#263238"/>
<path d="M431.612 81.8869C431.612 81.9998 411.92 82.0966 387.64 82.0966C363.36 82.0966 343.66 81.9998 343.66 81.8869C343.66 81.774 363.352 81.6772 387.64 81.6772C411.928 81.6772 431.612 81.774 431.612 81.8869Z" fill="#263238"/>
<path d="M397.784 144.082C397.784 144.195 385.689 144.291 370.722 144.291C355.756 144.291 343.66 144.195 343.66 144.082C343.66 143.969 355.756 143.872 370.722 143.872C385.689 143.872 397.784 143.969 397.784 144.082Z" fill="#263238"/>
<path d="M431.612 150.049C431.612 150.17 411.92 150.259 387.64 150.259C363.36 150.259 343.66 150.17 343.66 150.049C343.66 149.928 363.352 149.839 387.64 149.839C411.928 149.839 431.612 149.936 431.612 150.049Z" fill="#263238"/>
<path d="M397.784 213.237C397.784 213.35 385.689 213.447 370.722 213.447C355.756 213.447 343.66 213.35 343.66 213.237C343.66 213.125 355.756 213.028 370.722 213.028C385.689 213.028 397.784 213.108 397.784 213.237Z" fill="#263238"/>
<path d="M431.612 219.205C431.612 219.318 411.92 219.415 387.64 219.415C363.36 219.415 343.66 219.318 343.66 219.205C343.66 219.092 363.352 218.996 387.64 218.996C411.928 218.996 431.612 219.092 431.612 219.205Z" fill="#263238"/>
<path d="M459.199 44.6323H448.547V55.2846H459.199V44.6323Z" fill="#E0E0E0"/>
<path d="M441.853 44.6323H431.201V55.2846H441.853V44.6323Z" fill="#E0E0E0"/>
<path d="M424.508 44.6323H413.855V55.2846H424.508V44.6323Z" fill="#E0E0E0"/>
<path d="M231.17 72.5244L235.694 78.4271L239.565 72.5244H231.17Z" fill="#263238"/>
<path d="M228.596 281.517C216.419 280.404 204.393 279.949 204.393 279.949C199.975 280.084 190.564 280.472 180.849 281.517C183.683 291.198 193.296 298.332 204.714 298.332C216.149 298.349 225.762 291.181 228.596 281.517Z" fill="#50BFD7"/>
<path d="M214.701 299.108C214.701 299.53 215.072 300.019 215.511 299.968C220.486 299.446 224.298 295.6 229.205 296.41C224.281 298.855 220.014 303.105 220.621 309.362C220.688 310.138 221.43 310.442 222.004 309.97C225.529 306.968 229.576 304.286 234.299 305.281C236.323 305.703 238.701 306.495 240.792 306.225C243.912 305.838 246.543 304.421 248.095 301.402C250.827 296.174 249.815 289.9 243.693 288.601C243.541 288.567 243.423 288.584 243.288 288.635C241.028 287.741 238.971 286.611 237.149 284.638C235.395 282.715 233.759 280.59 231.853 278.819C229.307 276.441 226.541 274.569 223.168 276.171C222.662 276.407 222.695 277.132 223.016 277.52C224.5 279.359 226.237 281.113 228.059 282.799C226.237 282.378 224.399 282.158 222.51 282.31C219.137 282.597 215.156 284.84 215.241 288.854C215.258 289.36 215.612 289.663 216.05 289.714C219.154 290.035 222.274 289.984 225.36 290.304C220.553 291.721 214.65 293.34 214.701 299.108Z" fill="#C4C4C4"/>
<path fill-rule="evenodd" clip-rule="evenodd" d="M228.066 275.375C229.621 275.989 231.025 277.125 232.311 278.326C233.601 279.524 234.791 280.905 235.946 282.246C236.518 282.91 237.082 283.565 237.645 284.182C239.32 285.996 241.21 287.068 243.331 287.926C243.485 287.901 243.65 287.902 243.834 287.942C247.138 288.644 249.117 290.719 249.862 293.344C250.595 295.93 250.118 298.983 248.692 301.713C247.017 304.97 244.164 306.486 240.876 306.895C239.723 307.044 238.522 306.897 237.389 306.675C236.819 306.563 236.255 306.43 235.714 306.301C235.657 306.287 235.6 306.273 235.543 306.26C235.061 306.144 234.601 306.034 234.16 305.942L234.158 305.941C229.78 305.019 225.962 307.484 222.44 310.484L222.435 310.487L222.431 310.491C221.972 310.869 221.378 310.979 220.855 310.754C220.332 310.53 220.001 310.025 219.947 309.425C219.398 303.751 222.629 299.678 226.705 297.052C225.348 297.236 224.027 297.726 222.644 298.311C222.337 298.441 222.025 298.576 221.71 298.713C219.838 299.527 217.819 300.404 215.582 300.639C215.078 300.696 214.674 300.437 214.432 300.16C214.191 299.884 214.026 299.504 214.025 299.112C213.998 295.935 215.638 293.895 217.848 292.504C219.014 291.77 220.357 291.205 221.719 290.73C221.374 290.714 221.028 290.699 220.681 290.684L220.666 290.683C219.121 290.616 217.549 290.548 215.979 290.385L215.975 290.385L215.971 290.385C215.25 290.301 214.594 289.764 214.565 288.877L214.565 288.873L214.565 288.868C214.517 286.606 215.625 284.853 217.162 283.653C218.685 282.463 220.653 281.791 222.451 281.638L222.453 281.638L222.454 281.638C223.646 281.542 224.813 281.588 225.962 281.734C224.724 280.515 223.547 279.254 222.491 277.947C222.22 277.617 222.083 277.171 222.107 276.751C222.131 276.315 222.344 275.812 222.878 275.561C224.748 274.674 226.478 274.748 228.066 275.375ZM223.462 276.778C223.459 276.787 223.455 276.803 223.454 276.827C223.451 276.869 223.457 276.921 223.474 276.974C223.491 277.027 223.515 277.067 223.534 277.091L223.537 277.094L223.539 277.097C224.995 278.9 226.706 280.629 228.515 282.304L230.378 284.029L227.905 283.457C226.13 283.046 224.364 282.838 222.564 282.983C220.989 283.117 219.281 283.71 217.992 284.716C216.718 285.712 215.878 287.086 215.913 288.835C215.917 288.924 215.945 288.96 215.963 288.978C215.986 289.002 216.036 289.033 216.123 289.044C217.649 289.201 219.184 289.268 220.739 289.336L220.745 289.336C222.293 289.403 223.863 289.471 225.428 289.634L228.825 289.986L225.549 290.952C225.465 290.977 225.381 291.001 225.297 291.026C222.939 291.72 220.473 292.446 218.567 293.646C216.637 294.86 215.351 296.513 215.374 299.103L215.374 299.106V299.109C215.374 299.117 215.376 299.142 215.391 299.178C215.405 299.213 215.425 299.246 215.447 299.271C215.456 299.282 215.464 299.289 215.47 299.294C217.472 299.078 219.27 298.299 221.141 297.489C221.464 297.349 221.79 297.208 222.119 297.068C224.319 296.138 226.655 295.306 229.314 295.744L231.376 296.085L229.504 297.014C224.685 299.407 220.723 303.451 221.291 309.298L221.291 309.301L221.291 309.304C221.299 309.395 221.324 309.447 221.342 309.473C221.36 309.5 221.376 309.51 221.387 309.514C221.397 309.519 221.414 309.523 221.44 309.518C221.466 309.514 221.511 309.499 221.57 309.452C225.096 306.449 229.371 303.554 234.435 304.621C234.898 304.717 235.378 304.833 235.857 304.948C235.914 304.961 235.971 304.975 236.029 304.989C236.569 305.118 237.109 305.245 237.648 305.351C238.732 305.563 239.766 305.678 240.704 305.557L240.706 305.556L240.707 305.556C243.658 305.189 246.065 303.872 247.493 301.094L247.494 301.092L247.495 301.09C248.801 298.592 249.183 295.895 248.564 293.712C247.955 291.569 246.368 289.859 243.551 289.261L243.548 289.261L243.545 289.26C243.545 289.26 243.544 289.26 243.544 289.26C243.539 289.261 243.533 289.263 243.523 289.267L243.28 289.358L243.038 289.262C240.724 288.347 238.566 287.169 236.652 285.095L236.65 285.094L236.649 285.093C236.029 284.413 235.438 283.726 234.853 283.046C233.73 281.742 232.63 280.463 231.392 279.313L231.391 279.312C230.131 278.135 228.879 277.147 227.571 276.63C226.299 276.128 224.962 276.067 223.462 276.778Z" fill="#2C2C2C"/>
<path fill-rule="evenodd" clip-rule="evenodd" d="M407.119 315.941C407.119 315.604 407.392 315.33 407.729 315.33H427.853C428.191 315.33 428.464 315.604 428.464 315.941C428.464 316.278 428.191 316.552 427.853 316.552H407.729C407.392 316.552 407.119 316.278 407.119 315.941Z" fill="#2C2C2C"/>
<path fill-rule="evenodd" clip-rule="evenodd" d="M27.6377 315.941C27.6377 315.604 27.9111 315.33 28.2484 315.33H401.022C401.359 315.33 401.632 315.604 401.632 315.941C401.632 316.278 401.359 316.552 401.022 316.552H28.2484C27.9111 316.552 27.6377 316.278 27.6377 315.941Z" fill="#2C2C2C"/>
<path fill-rule="evenodd" clip-rule="evenodd" d="M1.42822 315.941C1.42822 315.604 1.70165 315.33 2.03893 315.33H15.7903C16.1276 315.33 16.401 315.604 16.401 315.941C16.401 316.278 16.1276 316.552 15.7903 316.552H2.03893C1.70165 316.552 1.42822 316.278 1.42822 315.941Z" fill="#2C2C2C"/>
<path d="M72.4685 339.96C72.4695 341.572 71.8987 343.131 70.8577 344.361C69.8167 345.591 68.373 346.412 66.7835 346.677C47.2192 349.978 27.2402 349.978 7.67593 346.677C6.09319 346.405 4.65801 345.581 3.62479 344.351C2.59157 343.122 2.02705 341.566 2.03127 339.96V274.644H72.5008L72.4685 339.96Z" fill="#50BFD7"/>
<path opacity="0.3" d="M1.99316 275.82V284.988C6.23472 286.561 20.1609 287.714 37.232 287.714C54.303 287.714 68.2534 286.561 72.4707 284.988V275.82H1.99316Z" fill="black"/>
<path d="M73.7918 282.811C73.7918 284.883 57.7932 286.561 37.2305 286.561C16.6679 286.561 0.669309 284.883 0.669309 282.811L0 274.667H74.5014L73.7918 282.811Z" fill="#50BFD7"/>
<path d="M37.2305 278.409C57.7924 278.409 74.4611 276.734 74.4611 274.667C74.4611 272.601 57.7924 270.926 37.2305 270.926C16.6687 270.926 0 272.601 0 274.667C0 276.734 16.6687 278.409 37.2305 278.409Z" fill="#50BFD7"/>
<path opacity="0.3" d="M37.2305 278.409C57.7924 278.409 74.4611 276.734 74.4611 274.667C74.4611 272.601 57.7924 270.926 37.2305 270.926C16.6687 270.926 0 272.601 0 274.667C0 276.734 16.6687 278.409 37.2305 278.409Z" fill="black"/>
<path opacity="0.2" d="M11.4431 335.363C10.7187 335.361 10.0247 335.072 9.51248 334.56C9.00029 334.048 8.7116 333.354 8.70947 332.63V295.181C8.7116 294.457 9.00029 293.763 9.51248 293.251C10.0247 292.739 10.7187 292.45 11.4431 292.448C12.1668 292.452 12.8596 292.741 13.3714 293.253C13.8831 293.765 14.1725 294.458 14.1767 295.181V332.63C14.1725 333.353 13.8831 334.046 13.3714 334.558C12.8596 335.07 12.1668 335.359 11.4431 335.363Z" fill="black"/>
<path opacity="0.2" d="M63.0261 335.363C62.3017 335.361 61.6077 335.072 61.0955 334.56C60.5833 334.048 60.2946 333.354 60.2925 332.63V295.181C60.2946 294.457 60.5833 293.763 61.0955 293.251C61.6077 292.739 62.3017 292.45 63.0261 292.448C63.7498 292.452 64.4426 292.741 64.9544 293.253C65.4661 293.765 65.7555 294.458 65.7597 295.181V332.63C65.7555 333.353 65.4661 334.046 64.9544 334.558C64.4426 335.07 63.7498 335.359 63.0261 335.363Z" fill="black"/>
<path opacity="0.2" d="M45.8279 335.363C45.1042 335.359 44.4113 335.07 43.8996 334.558C43.3878 334.046 43.0985 333.353 43.0942 332.63V295.181C43.0985 294.458 43.3878 293.765 43.8996 293.253C44.4113 292.741 45.1042 292.452 45.8279 292.448C46.5522 292.45 47.2463 292.739 47.7585 293.251C48.2707 293.763 48.5594 294.457 48.5615 295.181V332.63C48.5594 333.354 48.2707 334.048 47.7585 334.56C47.2463 335.072 46.5522 335.361 45.8279 335.363Z" fill="black"/>
<path opacity="0.2" d="M28.6345 335.363C27.9108 335.359 27.2179 335.07 26.7062 334.558C26.1945 334.046 25.9051 333.353 25.9009 332.63V295.181C25.9051 294.458 26.1945 293.765 26.7062 293.253C27.2179 292.741 27.9108 292.452 28.6345 292.448C29.3588 292.45 30.0529 292.739 30.5651 293.251C31.0773 293.763 31.366 294.457 31.3681 295.181V332.63C31.366 333.354 31.0773 334.048 30.5651 334.56C30.0529 335.072 29.3588 335.361 28.6345 335.363Z" fill="black"/>
<path d="M127.093 238.433L135.797 294.963L136.331 307.763L151.207 305.311L152.86 302.694L153.936 227.44L127.093 238.433Z" fill="#2C2C2C"/>
<path d="M239.757 244.415L247.839 301.038L248.223 313.848L263.118 311.561L264.806 308.983L266.731 233.733L239.757 244.415Z" fill="#2C2C2C"/>
<path d="M194.257 220.521C200.487 220.521 210.196 219.233 210.196 215.003L208.6 200.89L207.197 188.547C207.197 184.317 202.14 180.875 195.911 180.875C192.796 180.875 189.969 181.74 187.931 183.125C185.893 184.509 184.624 186.432 184.624 188.547L183.259 200.909L181.933 212.753C180.125 219.906 194.257 220.521 194.257 220.521Z" fill="#2C2C2C"/>
<path d="M270.53 238.902C270.53 251.168 262.493 258.763 250.226 258.763C237.959 258.763 228.019 248.823 228.019 236.556C228.019 224.289 237.286 210.754 248.976 214.426C261.858 218.444 270.53 226.635 270.53 238.902Z" fill="white"/>
<path d="M250.226 259.532C237.555 259.532 227.25 249.227 227.25 236.556C227.25 228.404 231.114 220.098 236.844 215.887C240.651 213.099 244.919 212.33 249.207 213.676C263.434 218.137 271.279 227.097 271.279 238.883C271.298 251.419 263.011 259.532 250.226 259.532ZM245.111 214.58C242.554 214.58 240.055 215.445 237.747 217.137C232.46 221.021 228.788 229 228.788 236.556C228.788 248.381 238.401 257.994 250.226 257.994C256.071 257.994 260.993 256.225 264.434 252.88C267.914 249.515 269.76 244.67 269.76 238.902C269.76 227.846 262.3 219.406 248.764 215.157C247.534 214.772 246.323 214.58 245.111 214.58Z" fill="#2C2C2C"/>
<path d="M260.532 235.326C260.532 244.401 254.591 250.015 245.515 250.015C236.44 250.015 229.096 242.67 229.096 233.595C229.096 224.52 235.94 214.503 244.593 217.214C254.11 220.213 260.532 226.27 260.532 235.326Z" fill="#2C2C2C"/>
<path d="M121.502 238.902C121.502 251.169 129.539 258.764 141.806 258.764C154.073 258.764 164.013 248.823 164.013 236.556C164.013 224.29 154.746 210.754 143.056 214.426C130.174 218.445 121.502 226.635 121.502 238.902Z" fill="white"/>
<path d="M141.806 259.532C129.001 259.532 120.733 251.438 120.733 238.902C120.733 227.116 128.578 218.156 142.806 213.695C147.093 212.349 151.381 213.118 155.169 215.906C160.918 220.117 164.763 228.423 164.763 236.575C164.782 249.227 154.477 259.532 141.806 259.532ZM146.92 214.58C145.709 214.58 144.498 214.772 143.286 215.157C129.751 219.406 122.291 227.846 122.291 238.902C122.291 244.67 124.137 249.515 127.617 252.88C131.077 256.225 135.98 257.994 141.825 257.994C153.65 257.994 163.263 248.381 163.263 236.556C163.263 229 159.572 221.001 154.303 217.137C151.958 215.426 149.478 214.58 146.92 214.58Z" fill="#2C2C2C"/>
<path d="M131.501 235.326C131.501 244.401 137.442 250.015 146.517 250.015C155.592 250.015 162.937 242.671 162.937 233.596C162.937 224.521 156.092 214.503 147.44 217.214C137.904 220.214 131.501 226.27 131.501 235.326Z" fill="#2C2C2C"/>
<path d="M210.6 205.37H181.356C168.589 206.524 156.38 209.158 144.979 213.061L166.859 325.23C168.435 333.344 175.549 339.208 183.817 339.208H208.542C216.829 339.208 223.962 333.325 225.52 325.173L246.996 213.061C235.595 209.158 223.386 206.524 210.6 205.37Z" fill="white"/>
<path d="M208.543 339.977H183.817C175.203 339.977 167.743 333.844 166.109 325.384L144.094 212.542L144.729 212.33C156.38 208.35 168.666 205.735 181.279 204.601H181.356H210.638H210.677C223.29 205.735 235.595 208.331 247.246 212.33L247.881 212.542L226.27 325.327C224.655 333.806 217.195 339.977 208.543 339.977ZM145.863 213.561L167.609 325.077C169.108 332.806 175.934 338.42 183.817 338.42H208.543C216.445 338.42 223.27 332.787 224.751 325.019L246.093 213.561C234.749 209.735 222.79 207.235 210.542 206.12H181.394C169.147 207.235 157.188 209.735 145.863 213.561Z" fill="#2C2C2C"/>
<path d="M160.052 208.754C162.802 226.135 165.551 243.516 168.301 260.878C170.762 273.952 183.163 282.662 196.103 282.739C209.042 282.662 221.444 273.972 223.905 260.878C226.654 243.516 229.404 226.154 232.153 208.812C225.193 207.197 217.983 206.024 210.6 205.37H181.356C174.049 206.024 166.935 207.177 160.052 208.754Z" fill="#50BFD7"/>
<path d="M196.122 283.508C189.527 283.47 183.028 281.278 177.818 277.298C172.396 273.183 168.762 267.396 167.551 261.013V260.993L159.187 208.158L159.879 208.004C166.859 206.389 174.069 205.255 181.279 204.601H181.356H210.638H210.677C217.983 205.255 225.27 206.428 232.345 208.062L233.037 208.216L224.674 261.013C223.482 267.396 219.829 273.164 214.407 277.298C209.196 281.278 202.697 283.47 196.122 283.508ZM169.07 260.763C170.204 266.761 173.626 272.203 178.741 276.087C183.701 279.855 189.873 281.951 196.122 281.97C202.371 281.931 208.542 279.836 213.484 276.087C218.598 272.203 222.02 266.761 223.155 260.763L231.288 209.408C224.52 207.87 217.56 206.774 210.561 206.139H181.394C174.492 206.754 167.608 207.831 160.917 209.35L169.07 260.763Z" fill="#2C2C2C"/>
<path d="M203.043 231.691H188.277C184.355 231.691 181.163 234.883 181.163 238.805V253.572C181.163 257.494 184.355 260.686 188.277 260.686H203.043C206.965 260.686 210.157 257.494 210.157 253.572V238.805C210.157 234.883 206.985 231.691 203.043 231.691ZM177.241 225.404C174.991 225.404 173.165 227.231 173.165 229.48C173.165 231.73 174.991 233.556 177.241 233.556C179.49 233.556 181.317 231.73 181.317 229.48C181.317 227.231 179.49 225.404 177.241 225.404Z" fill="white"/>
<path d="M202.004 240.497C201.062 237.978 198.659 236.306 195.967 236.306H191.968L199.87 256.34H208.349L202.004 240.497ZM185.854 250.591L183.546 256.34H191.968L195.89 246.4H191.891C189.199 246.4 186.796 248.073 185.854 250.591ZM187.161 241.285C188.545 241.285 189.68 240.151 189.68 238.767C189.68 237.382 188.545 236.248 187.161 236.248C185.777 236.248 184.642 237.382 184.642 238.767C184.642 240.151 185.777 241.285 187.161 241.285Z" fill="#50BFD7"/>
<path d="M210.292 197.795H181.702C177.587 197.795 174.203 194.43 174.203 190.296C174.203 186.182 177.568 182.798 181.702 182.798H210.292C214.406 182.798 217.79 186.163 217.79 190.296C217.771 194.43 214.406 197.795 210.292 197.795Z" fill="#50BFD7"/>
<path d="M210.292 198.564H181.702C177.145 198.564 173.434 194.853 173.434 190.296C173.434 185.74 177.145 182.029 181.702 182.029H210.292C214.849 182.029 218.56 185.74 218.56 190.296C218.56 194.853 214.829 198.564 210.292 198.564ZM181.702 183.586C177.991 183.586 174.972 186.605 174.972 190.316C174.972 194.026 177.991 197.045 181.702 197.045H210.292C214.003 197.045 217.021 194.026 217.021 190.316C217.021 186.605 214.003 183.586 210.292 183.586H181.702Z" fill="#2C2C2C"/>
<path d="M197.582 45.48H194.391V66.3988H197.582V45.48Z" fill="#2C2C2C"/>
<path d="M209.061 70.8012H182.913C182.432 70.8012 182.047 70.4167 182.047 69.936V57.9385C182.047 57.4578 182.432 57.0732 182.913 57.0732H209.061C209.542 57.0732 209.926 57.4578 209.926 57.9385V69.9552C209.926 70.4167 209.542 70.8012 209.061 70.8012Z" fill="#50BFD7"/>
<path d="M209.061 71.5703H182.913C182.009 71.5703 181.278 70.8397 181.278 69.936V57.9385C181.278 57.0348 182.009 56.3042 182.913 56.3042H209.061C209.965 56.3042 210.695 57.0348 210.695 57.9385V69.9553C210.695 70.8397 209.965 71.5703 209.061 71.5703ZM182.913 57.8231C182.855 57.8231 182.816 57.8616 182.816 57.9193V69.936C182.816 69.9937 182.855 70.0322 182.913 70.0322H209.061C209.119 70.0322 209.157 69.9937 209.157 69.936V57.9385C209.157 57.8808 209.119 57.8423 209.061 57.8423H182.913V57.8231Z" fill="#2C2C2C"/>
<path d="M200.082 44.0761C200.082 46.3256 198.255 48.1522 196.006 48.1522C193.756 48.1522 191.93 46.3256 191.93 44.0761C191.93 41.8266 193.756 40 196.006 40C198.236 40 200.082 41.8266 200.082 44.0761Z" fill="#2C2C2C"/>
<path d="M198.832 42.4997C198.832 43.1919 198.274 43.7495 197.582 43.7495C196.89 43.7495 196.333 43.1919 196.333 42.4997C196.333 41.8076 196.89 41.25 197.582 41.25C198.274 41.25 198.832 41.8076 198.832 42.4997Z" fill="#2C2C2C"/>
<path d="M219.905 156.515C230.736 156.515 239.517 147.734 239.517 136.903C239.517 126.072 230.736 117.292 219.905 117.292C209.074 117.292 200.294 126.072 200.294 136.903C200.294 147.734 209.074 156.515 219.905 156.515Z" fill="#002731"/>
<path d="M195.986 172.877C243.643 172.877 282.277 155.531 282.277 134.135C282.277 112.738 243.643 95.3926 195.986 95.3926C148.33 95.3926 109.696 112.738 109.696 134.135C109.696 155.531 148.33 172.877 195.986 172.877Z" fill="#2C2C2C"/>
<path d="M119.772 152.323C121.31 153.612 122.983 154.861 124.829 156.053C120.368 143.191 118.426 128.924 118.888 116.715C117.484 117.965 116.215 119.273 115.119 120.599C115.158 130.674 116.677 141.787 119.772 152.323Z" fill="#50BFD7"/>
<path d="M276.836 120.58C275.721 119.253 274.452 117.946 273.048 116.696C273.779 129.021 271.299 143.537 266.376 156.573C268.28 155.361 270.049 154.112 271.645 152.804C275.086 142.037 276.894 130.751 276.836 120.58Z" fill="#50BFD7"/>
<path d="M213.598 190.431H178.394C149.919 190.431 126.847 167.359 126.847 138.884V131.059C126.847 94.5276 156.456 64.9375 192.968 64.9375H198.986C235.517 64.9375 265.107 94.5469 265.107 131.059V138.884C265.126 167.359 242.054 190.431 213.598 190.431Z" fill="white"/>
<path d="M213.598 191.2H178.394C164.416 191.2 151.284 185.759 141.401 175.876C131.519 165.994 126.078 152.862 126.078 138.884V131.059C126.078 113.197 133.038 96.3927 145.67 83.7606C158.302 71.1286 175.106 64.1685 192.968 64.1685H198.986C216.848 64.1685 233.652 71.1286 246.284 83.7606C258.916 96.3927 265.876 113.197 265.876 131.059V138.884C265.876 152.862 260.435 165.994 250.552 175.876C240.689 185.759 227.557 191.2 213.598 191.2ZM192.987 65.7066C175.529 65.7066 159.109 72.5129 146.766 84.8566C134.422 97.2002 127.616 113.62 127.616 131.078V138.903C127.616 152.458 132.903 165.206 142.478 174.8C152.072 184.394 164.82 189.662 178.375 189.662H213.579C227.134 189.662 239.881 184.375 249.476 174.8C259.07 165.206 264.338 152.458 264.338 138.903V131.078C264.338 113.62 257.532 97.2002 245.188 84.8566C232.844 72.5129 216.425 65.7066 198.967 65.7066H192.987Z" fill="#2C2C2C"/>
<path d="M195.987 106.217C217.155 106.217 236.344 99.8338 250.418 89.4897C238.286 74.512 219.77 64.937 198.986 64.937H192.968C172.203 64.937 153.668 74.512 141.536 89.4897C155.629 99.8338 174.818 106.217 195.987 106.217Z" fill="#2C2C2C"/>
<path d="M195.987 74.7427C174.818 74.7427 155.63 81.126 141.556 91.47C153.688 106.448 172.203 116.023 192.988 116.023H199.006C219.771 116.023 238.305 106.448 250.437 91.47C236.344 81.126 217.156 74.7427 195.987 74.7427Z" fill="#50BFD7"/>
<path d="M199.006 116.811H192.988C172.703 116.811 153.746 107.755 140.96 91.97L140.46 91.3355L141.114 90.8548C155.899 79.9724 175.395 73.9736 196.006 73.9736C216.598 73.9736 236.094 79.9724 250.899 90.8548L251.553 91.3355L251.053 91.97C238.248 107.755 219.29 116.811 199.006 116.811ZM142.671 91.6239C155.149 106.659 173.434 115.273 192.988 115.273H199.006C218.559 115.273 236.844 106.659 249.322 91.6239C234.864 81.2222 215.964 75.5118 196.006 75.5118C176.01 75.5118 157.11 81.2222 142.671 91.6239Z" fill="#2C2C2C"/>
<path d="M244.073 148.305C242.246 149.401 240.189 149.978 238.093 149.978H153.899C151.803 149.978 149.746 149.401 147.919 148.305C143.42 145.614 140.863 140.153 141.498 134.558L141.536 134.154C143.69 115.216 157.86 100.661 175.222 99.5652C182.566 99.1038 190.276 98.8538 198.313 98.9115C204.62 98.95 210.695 99.1807 216.559 99.546C233.998 100.642 248.264 115.139 250.418 134.154C250.437 134.289 250.456 134.424 250.456 134.558C251.129 140.153 248.572 145.614 244.073 148.305Z" fill="white"/>
<path d="M238.074 150.747H153.899C151.669 150.747 149.477 150.132 147.516 148.959C142.709 146.094 140.056 140.403 140.729 134.462L140.767 134.058C142.959 114.735 157.437 99.892 175.164 98.7768C182.836 98.2961 190.623 98.0846 198.313 98.1231C204.389 98.1615 210.542 98.373 216.598 98.7576C234.441 99.8727 248.976 114.716 251.168 134.039L251.206 134.443C251.879 140.364 249.226 146.056 244.419 148.94C242.516 150.132 240.305 150.747 238.074 150.747ZM196.025 99.6805C189.123 99.6805 182.163 99.892 175.28 100.334C158.302 101.411 144.42 115.677 142.305 134.25L142.267 134.654C141.652 139.98 144.036 145.094 148.323 147.651C150.035 148.67 151.977 149.209 153.918 149.209H238.113C240.055 149.209 241.997 148.67 243.708 147.651C247.995 145.094 250.36 139.98 249.764 134.654L249.726 134.25C247.611 115.658 233.671 101.392 216.579 100.334C210.542 99.9496 204.408 99.7381 198.371 99.6997C197.544 99.6805 196.794 99.6805 196.025 99.6805Z" fill="#2C2C2C"/>
<path d="M182.432 125.598C182.432 132.866 176.107 138.787 168.339 138.787C160.552 138.787 154.246 132.885 154.246 125.598C154.246 118.311 160.552 112.408 168.339 112.408C176.126 112.408 182.432 118.311 182.432 125.598Z" fill="white"/>
<path d="M168.339 139.557C160.148 139.557 153.477 133.289 153.477 125.598C153.477 117.907 160.148 111.639 168.339 111.639C176.53 111.639 183.201 117.907 183.201 125.598C183.201 133.289 176.549 139.557 168.339 139.557ZM168.339 113.177C160.994 113.177 155.015 118.753 155.015 125.598C155.015 132.443 160.994 138.018 168.339 138.018C175.684 138.018 181.663 132.443 181.663 125.598C181.663 118.753 175.684 113.177 168.339 113.177Z" fill="#2C2C2C"/>
<path d="M161.437 124.771C161.437 130.789 165.34 135.653 170.146 135.653C174.972 135.653 178.875 130.77 178.875 124.771C178.875 118.753 174.972 113.869 170.146 113.869C165.34 113.869 161.437 118.753 161.437 124.771Z" fill="#50BFD7"/>
<path d="M163.956 124.771C163.956 129.039 166.724 132.5 170.147 132.5C173.569 132.5 176.338 129.039 176.338 124.771C176.338 120.483 173.569 117.022 170.147 117.022C166.724 117.022 163.956 120.483 163.956 124.771Z" fill="#2C2C2C"/>
<path d="M163.571 117.446C163.571 118.618 165.013 119.56 166.762 119.56C168.531 119.56 169.954 118.618 169.954 117.446C169.954 116.273 168.531 115.331 166.762 115.331C164.994 115.331 163.571 116.273 163.571 117.446Z" fill="white"/>
<path d="M236.268 125.598C236.268 132.866 229.942 138.787 222.174 138.787C214.387 138.787 208.081 132.885 208.081 125.598C208.081 118.311 214.387 112.408 222.174 112.408C229.942 112.408 236.268 118.311 236.268 125.598Z" fill="white"/>
<path d="M222.174 139.557C213.984 139.557 207.312 133.289 207.312 125.598C207.312 117.907 213.984 111.639 222.174 111.639C230.365 111.639 237.037 117.907 237.037 125.598C237.037 133.289 230.365 139.557 222.174 139.557ZM222.174 113.177C214.83 113.177 208.85 118.753 208.85 125.598C208.85 132.443 214.83 138.018 222.174 138.018C229.519 138.018 235.499 132.443 235.499 125.598C235.499 118.753 229.519 113.177 222.174 113.177Z" fill="#2C2C2C"/>
<path d="M215.272 124.77C215.272 130.788 219.175 135.653 223.982 135.653C228.808 135.653 232.711 130.769 232.711 124.77C232.711 118.752 228.808 113.869 223.982 113.869C219.175 113.869 215.272 118.752 215.272 124.77Z" fill="#50BFD7"/>
<path d="M217.791 124.771C217.791 129.039 220.56 132.5 223.982 132.5C227.404 132.5 230.173 129.039 230.173 124.771C230.173 120.483 227.404 117.022 223.982 117.022C220.56 117.022 217.791 120.483 217.791 124.771Z" fill="#2C2C2C"/>
<path d="M217.387 117.446C217.387 118.618 218.829 119.56 220.579 119.56C222.348 119.56 223.771 118.618 223.771 117.446C223.771 116.273 222.348 115.331 220.579 115.331C218.829 115.331 217.387 116.273 217.387 117.446Z" fill="white"/>
<ellipse cx="196.664" cy="168.767" rx="7.5" ry="5.25" fill="white"/>
<path fill-rule="evenodd" clip-rule="evenodd" d="M196.689 173.744C200.758 173.744 203.342 171.229 203.342 168.906C203.342 166.583 200.758 164.068 196.689 164.068C192.62 164.068 190.037 166.583 190.037 168.906C190.037 171.229 192.62 173.744 196.689 173.744ZM196.689 175.357C201.254 175.357 204.955 172.469 204.955 168.906C204.955 165.343 201.254 162.455 196.689 162.455C192.124 162.455 188.424 165.343 188.424 168.906C188.424 172.469 192.124 175.357 196.689 175.357Z" fill="#454545"/>
<path d="M122.129 249.972H268.02C269.765 249.972 271.439 250.665 272.674 251.899C273.908 253.133 274.601 254.807 274.601 256.553V338.515H115.548V256.553C115.548 254.807 116.241 253.133 117.475 251.899C118.71 250.665 120.384 249.972 122.129 249.972Z" fill="white"/>
<path fill-rule="evenodd" clip-rule="evenodd" d="M122.129 250.811C120.606 250.811 119.145 251.416 118.069 252.493C116.992 253.57 116.387 255.03 116.387 256.553V337.676H273.762V256.553C273.762 255.03 273.157 253.57 272.08 252.493C271.004 251.416 269.543 250.811 268.02 250.811H122.129ZM116.882 251.307C118.274 249.915 120.161 249.133 122.129 249.133H268.02C269.988 249.133 271.875 249.915 273.267 251.307C274.658 252.698 275.44 254.585 275.44 256.553V338.515C275.44 338.978 275.064 339.354 274.601 339.354H115.548C115.085 339.354 114.709 338.978 114.709 338.515V256.553C114.709 254.585 115.491 252.698 116.882 251.307Z" fill="#2C2C2C"/>
<path d="M274.601 279.429C254.621 284.496 234.114 297.395 195.904 315.559C159.049 333.091 128.881 332.789 115.548 331.433V338.514H274.601V279.429Z" fill="#2C2C2C"/>
<path fill-rule="evenodd" clip-rule="evenodd" d="M275.116 278.767C275.321 278.926 275.44 279.17 275.44 279.429V338.515C275.44 338.978 275.064 339.354 274.601 339.354H115.548C115.085 339.354 114.709 338.978 114.709 338.515V331.433C114.709 331.196 114.809 330.97 114.985 330.811C115.162 330.652 115.397 330.575 115.633 330.599C128.852 331.943 158.859 332.254 195.543 314.802L195.544 314.802C208.129 308.82 218.777 303.416 228.132 298.669C232.978 296.21 237.476 293.927 241.717 291.831C254.124 285.699 264.313 281.173 274.395 278.616C274.646 278.552 274.912 278.608 275.116 278.767ZM196.264 316.317C160.065 333.538 130.265 333.64 116.387 332.358V337.676H273.762V280.514C264.199 283.068 254.418 287.425 242.46 293.335C238.248 295.417 233.763 297.693 228.925 300.148C219.557 304.902 208.865 310.327 196.264 316.317Z" fill="#2C2C2C"/>
<path d="M274.601 333.605H115.548V338.528H274.601V333.605Z" fill="white"/>
<path fill-rule="evenodd" clip-rule="evenodd" d="M114.709 333.605C114.709 333.142 115.085 332.767 115.548 332.767H274.601C275.064 332.767 275.44 333.142 275.44 333.605V338.528C275.44 338.991 275.064 339.367 274.601 339.367H115.548C115.085 339.367 114.709 338.991 114.709 338.528V333.605ZM116.387 334.444V337.689H273.762V334.444H116.387Z" fill="#2C2C2C"/>
</svg>
