<svg width="249" height="205" viewBox="0 0 249 205" fill="none" xmlns="http://www.w3.org/2000/svg">
<path d="M67.2616 158.023C68.9389 159.677 70.7086 161.247 72.5632 162.727H152.519C161.336 154.871 169.682 143.595 176.995 128.009C176.995 128.009 189.946 97.2762 186.931 70.3366C183.916 43.3971 165.036 22.109 138.292 17.5749C111.548 13.0408 87.776 37.9052 57.9266 46.5251C28.0772 55.1449 6.21469 78.2467 14.0711 109.235C21.9276 140.223 43.8662 134.89 67.2616 158.023Z" fill="#50BFD7" fill-opacity="0.4"/>
<path d="M33.4878 64.3652H169.381C170.386 64.3652 171.351 64.7646 172.061 65.4755C172.772 66.1863 173.172 67.1504 173.172 68.1557V157.483H29.7009V68.1521C29.7019 67.1481 30.1012 66.1854 30.8111 65.4755C31.5211 64.7655 32.4838 64.3662 33.4878 64.3652Z" fill="white" stroke="#263238" stroke-linecap="round" stroke-linejoin="round"/>
<path d="M167.341 71.6382H35.5208V146.133H167.341V71.6382Z" stroke="#263238" stroke-linecap="round" stroke-linejoin="round"/>
<path d="M151.055 153H52.4622V157.856H151.055V153Z" fill="#263238" stroke="#263238" stroke-linecap="round" stroke-linejoin="round"/>
<path d="M151.055 155.337H52.4622V157.856H151.055V155.337Z" fill="white" stroke="#263238" stroke-linecap="round" stroke-linejoin="round"/>
<path d="M18.0974 160.733C18.0974 160.733 19.7173 162.716 24.5768 164.332H178.952C178.952 164.332 182.55 163.433 184.17 160.915L18.0974 160.733Z" fill="#263238" stroke="#263238" stroke-linecap="round" stroke-linejoin="round"/>
<path d="M183.822 157.189H18.4563C18.078 157.189 17.7714 157.496 17.7714 157.874V160.288C17.7714 160.666 18.078 160.973 18.4563 160.973H183.822C184.2 160.973 184.507 160.666 184.507 160.288V157.874C184.507 157.496 184.2 157.189 183.822 157.189Z" fill="white" stroke="#263238" stroke-linecap="round" stroke-linejoin="round"/>
<path d="M102.659 67.1807C102.66 66.9312 102.587 66.687 102.449 66.4791C102.31 66.2713 102.114 66.1091 101.883 66.0131C101.653 65.917 101.399 65.8916 101.154 65.9398C100.91 65.9881 100.685 66.1079 100.508 66.2841C100.331 66.4603 100.211 66.685 100.162 66.9297C100.113 67.1745 100.138 67.4282 100.233 67.6589C100.328 67.8895 100.49 68.0867 100.697 68.2254C100.905 68.3641 101.149 68.4382 101.398 68.4382C101.732 68.4382 102.052 68.3058 102.289 68.0701C102.525 67.8344 102.658 67.5146 102.659 67.1807Z" fill="white" stroke="#263238" stroke-linecap="round" stroke-linejoin="round"/>
<path d="M13.1002 164.332H189.58" stroke="#263238" stroke-linecap="round" stroke-linejoin="round"/>
<path d="M103.726 44.9426C104.967 43.7014 104.967 41.6892 103.726 40.4481C102.485 39.2069 100.473 39.2069 99.2314 40.4481C97.9903 41.6892 97.9903 43.7014 99.2314 44.9426C100.473 46.1837 102.485 46.1837 103.726 44.9426Z" fill="white" stroke="#263238" stroke-linecap="round" stroke-linejoin="round"/>
<path d="M101.568 17.0275V2.18066" stroke="#263238" stroke-width="2" stroke-linecap="round" stroke-linejoin="round"/>
<path d="M101.568 26.8334V17.0273" stroke="#808080" stroke-width="2" stroke-miterlimit="10"/>
<path d="M96.6437 26.8335L86.834 43.8292H116.1L106.287 26.8335H96.6437Z" fill="#50BFD7" stroke="#263238" stroke-width="0.972732" stroke-miterlimit="10"/>
<path d="M97.6293 26.8335L89.8199 43.8292H113.114L105.305 26.8335H97.6293Z" fill="#263238" stroke="#263238" stroke-linecap="round" stroke-linejoin="round"/>
<path d="M74.5926 64.3652H33.4876C32.4832 64.3652 31.52 64.7642 30.8098 65.4744C30.0997 66.1846 29.7007 67.1478 29.7007 68.1521V139.933L74.5926 64.3652Z" fill="#C0E2E9" stroke="#263238" stroke-miterlimit="10"/>
<path d="M128.265 64.3652H169.37C170.374 64.3652 171.338 64.7642 172.048 65.4744C172.758 66.1846 173.157 67.1478 173.157 68.1521V140.154L128.265 64.3652Z" fill="#C0E2E9" stroke="#263238" stroke-miterlimit="10"/>
<path d="M74.5926 64.3652L29.7007 139.944" stroke="#263238" stroke-linecap="round" stroke-linejoin="round"/>
<path d="M128.265 64.3652L173.157 140.154" stroke="#263238" stroke-linecap="round" stroke-linejoin="round"/>
<path d="M35.5205 130.261V71.6387H70.1063" stroke="#263238" stroke-linecap="round" stroke-linejoin="round"/>
<path d="M132.653 71.6387H167.337V130.558" stroke="#263238" stroke-linecap="round" stroke-linejoin="round"/>
<path d="M128.265 64.3653L116.1 43.8291H86.8338L74.5925 64.3653" fill="white" fill-opacity="0.5"/>
<path d="M128.265 64.3653L116.1 43.8291H86.8338L74.5925 64.3653" stroke="#263238" stroke-miterlimit="10"/>
<path d="M9.43762 178.569H5.57373L10.7247 142.664H14.5886L9.43762 178.569Z" fill="#263238" stroke="#263238" stroke-width="1.16634" stroke-miterlimit="10"/>
<path d="M17.1655 178.569H21.0267L15.8757 142.664H12.0145L17.1655 178.569Z" fill="white" stroke="#263238" stroke-width="1.16634" stroke-miterlimit="10"/>
<path d="M64.2556 178.569H60.3944L65.5427 142.664H69.4065L64.2556 178.569Z" fill="#263238" stroke="#263238" stroke-width="1.16634" stroke-miterlimit="10"/>
<path d="M71.9835 178.569H75.8447L70.6937 142.664H66.8325L71.9835 178.569Z" fill="white" stroke="#263238" stroke-width="1.16634" stroke-miterlimit="10"/>
<path d="M74.6822 137.034H1V144.176H74.6822V137.034Z" fill="#50BFD7" stroke="#263238" stroke-width="1.16634" stroke-miterlimit="10"/>
<path d="M76.4786 137.034H2.79639V144.176H76.4786V137.034Z" fill="#50BFD7" stroke="#263238" stroke-width="1.16634" stroke-miterlimit="10"/>
<path d="M4.00208 144.176H10.2558L13.4884 137.034H7.23463L4.00208 144.176Z" fill="#263238"/>
<path d="M28.7569 137.034H22.5032L19.2706 144.176H25.5244L28.7569 137.034Z" fill="#263238"/>
<path d="M74.5604 137.034H68.3066L65.0768 144.176H71.3305L74.5604 137.034Z" fill="#263238"/>
<path d="M59.2943 137.034H53.0378L49.808 144.176H56.0617L59.2943 137.034Z" fill="#263238"/>
<path d="M44.0257 137.034H37.772L34.5394 144.176H40.7932L44.0257 137.034Z" fill="#263238"/>
<path d="M76.0749 140.201H63.8817" stroke="#263238" stroke-width="1.16634" stroke-miterlimit="10"/>
<path d="M75.861 141.396H73.9371" stroke="#263238" stroke-width="1.16634" stroke-miterlimit="10"/>
<path d="M2.48511 141.098H14.6783" stroke="#263238" stroke-width="1.16634" stroke-miterlimit="10"/>
<path d="M2.69861 139.754H18.1" stroke="#263238" stroke-width="1.16634" stroke-miterlimit="10"/>
<path d="M84.6886 140.837L74.7883 178.659H96.8683L86.968 140.837C86.9078 140.58 86.7625 140.351 86.5556 140.186C86.3487 140.022 86.0924 139.933 85.8283 139.933C85.5642 139.933 85.3079 140.022 85.101 140.186C84.8941 140.351 84.7488 140.58 84.6886 140.837Z" fill="#50BFD7" stroke="#263238" stroke-linecap="round" stroke-linejoin="round"/>
<path d="M74.7883 178.659H92.777L83.7827 144.294L74.7883 178.659Z" fill="#263238" stroke="#263238" stroke-linecap="round" stroke-linejoin="round"/>
<path d="M99.0969 177.829H71.5559C70.7553 177.829 70.1063 178.478 70.1063 179.278V179.463C70.1063 180.264 70.7553 180.912 71.5559 180.912H99.0969C99.8974 180.912 100.546 180.264 100.546 179.463V179.278C100.546 178.478 99.8974 177.829 99.0969 177.829Z" fill="#50BFD7" stroke="#263238" stroke-linecap="round" stroke-linejoin="round"/>
<path d="M89.6713 177.829H71.5559C70.7553 177.829 70.1063 178.478 70.1063 179.278V179.463C70.1063 180.264 70.7553 180.912 71.5559 180.912H89.6713C90.4719 180.912 91.1209 180.264 91.1209 179.463V179.278C91.1209 178.478 90.4719 177.829 89.6713 177.829Z" fill="#263238" stroke="#263238" stroke-linecap="round" stroke-linejoin="round"/>
<path d="M78.7383 163.573H92.9183L91.2042 157.021H80.4524L78.7383 163.573Z" fill="white" stroke="#263238" stroke-linecap="round" stroke-linejoin="round"/>
<path d="M78.7383 163.573H88.8306L87.1166 157.021H80.4524L78.7383 163.573Z" fill="#BABABA" stroke="#263238" stroke-linecap="round" stroke-linejoin="round"/>
<path d="M162.078 24.6121C160.988 29.0673 163.441 45.2683 167.46 51.3976C167.46 51.3976 179.11 58.8905 215.496 54.6378C215.496 54.6378 209.61 52.7747 215.122 31.4097C215.238 30.9507 215.36 30.4917 215.49 30.0124C216.239 27.2447 210.755 22.4992 209.767 20.8319C202.648 8.86346 162.078 24.6121 162.078 24.6121Z" fill="#2C2C2C"/>
<path d="M197.572 103.686C197.572 103.686 191.495 104.395 190.221 104.395C190.208 104.395 190.194 104.395 190.18 104.395C190.174 104.395 190.167 104.395 190.16 104.395C190.153 104.395 190.146 104.395 190.14 104.395C190.126 104.395 190.112 104.395 190.099 104.395C188.818 104.395 182.748 103.686 182.748 103.686C174.647 106.217 175.227 117.929 175.233 118.26C175.288 120.677 175.322 123.1 175.383 125.517C175.526 131.207 176.991 148.252 177.366 153.673C177.4 154.118 177.42 154.489 177.434 154.766C178.047 166.93 178.653 179.095 179.267 191.259C179.321 192.325 179.376 193.399 179.43 194.465C179.43 194.465 182.278 196.22 187.864 194.465L187.912 154.955L189.465 125.598C189.465 125.598 189.751 125.557 190.092 125.524C190.112 125.524 190.133 125.53 190.16 125.53V125.537C190.167 125.537 190.174 125.537 190.18 125.537C190.187 125.537 190.194 125.537 190.201 125.537V125.53C190.221 125.53 190.242 125.524 190.269 125.524C190.61 125.557 190.896 125.598 190.896 125.598L192.449 154.955L192.497 194.465C198.083 196.22 200.931 194.465 200.931 194.465C200.985 193.399 201.04 192.325 201.094 191.259C201.708 179.095 202.307 166.93 202.927 154.766C202.941 154.489 202.961 154.118 202.995 153.673C203.363 148.259 204.835 131.207 204.978 125.517C205.039 123.1 205.073 120.677 205.127 118.26C205.093 117.929 205.666 106.217 197.572 103.686Z" fill="#2C2C2C"/>
<path d="M149.982 79.9457C149.982 79.9457 148.337 78.7338 148.043 77.5276C147.743 76.3185 147.507 75.7385 145.522 73.5668C143.557 71.4035 143.211 69.589 143.211 69.589C143.211 69.589 140.788 70.3767 143.734 73.8468C145.537 75.9741 138.044 72.4215 135.882 71.1479C135.882 71.1479 134.24 71.2712 135.941 73.2936C137.642 75.316 135.508 74.4552 138.998 78.1915C142.48 81.9311 147.168 85.1743 149.387 83.0651C151.601 80.9531 149.982 79.9457 149.982 79.9457Z" fill="white"/>
<path fill-rule="evenodd" clip-rule="evenodd" d="M143.211 69.5887L143.127 69.3322L143.422 69.2362L143.479 69.5382L143.479 69.5383L143.479 69.5387L143.48 69.5406C143.48 69.5429 143.481 69.547 143.482 69.5527C143.485 69.5642 143.489 69.5823 143.495 69.6068C143.507 69.6558 143.527 69.7301 143.557 69.8269C143.617 70.0205 143.717 70.304 143.878 70.6547C144.199 71.3559 144.762 72.3264 145.725 73.3856C146.718 74.4727 147.289 75.1771 147.648 75.7688C148.013 76.3706 148.155 76.8484 148.308 77.4628L148.308 77.4634L148.308 77.4639C148.437 77.9914 148.875 78.5515 149.318 78.9999C149.534 79.219 149.742 79.4023 149.896 79.5306C149.973 79.5947 150.036 79.6449 150.079 79.6787C150.101 79.6957 150.118 79.7085 150.129 79.7169C150.133 79.72 150.136 79.7225 150.139 79.7244C150.141 79.726 150.144 79.728 150.147 79.7301C150.15 79.7321 150.153 79.7342 150.157 79.7365C150.172 79.7473 150.193 79.7625 150.218 79.782C150.267 79.821 150.332 79.8782 150.402 79.954C150.541 80.1051 150.702 80.3359 150.779 80.6487C150.94 81.2955 150.72 82.1686 149.576 83.2594L149.576 83.2597C148.953 83.8517 148.161 84.059 147.295 83.9882C146.436 83.918 145.496 83.5753 144.536 83.0586C142.615 82.0246 140.55 80.2559 138.798 78.3744C137.05 76.5036 136.665 75.7394 136.533 75.1593C136.509 75.0572 136.494 74.9588 136.48 74.8729C136.475 74.8443 136.471 74.817 136.467 74.7915C136.449 74.6848 136.428 74.5867 136.388 74.4766C136.31 74.2565 136.146 73.9593 135.732 73.4662C135.295 72.9472 135.052 72.5265 134.952 72.179C134.849 71.8218 134.895 71.5297 135.049 71.3086C135.195 71.0996 135.409 70.9953 135.563 70.943C135.643 70.916 135.715 70.9002 135.767 70.891C135.793 70.8864 135.815 70.8834 135.831 70.8815C135.839 70.8805 135.845 70.8798 135.85 70.8793C135.853 70.8791 135.855 70.8789 135.857 70.8787L135.859 70.8785L135.86 70.8784L135.861 70.8784C135.861 70.8784 135.861 70.8784 135.882 71.1476L135.861 70.8784L135.947 70.8719L136.021 70.9155C137.089 71.5448 139.491 72.7456 141.399 73.5227C142.362 73.9152 143.163 74.1841 143.603 74.2331C143.636 74.2368 143.665 74.2389 143.69 74.2399C143.655 74.1836 143.603 74.1109 143.526 74.0203C142.034 72.2637 141.822 71.0941 142.113 70.322C142.256 69.9426 142.509 69.696 142.721 69.5462C142.827 69.4712 142.924 69.4191 142.997 69.3852C143.033 69.3682 143.063 69.3557 143.085 69.347C143.097 69.3427 143.106 69.3394 143.113 69.3369C143.116 69.3357 143.119 69.3347 143.121 69.3339L143.124 69.3329L143.126 69.3325L143.126 69.3323C143.126 69.3322 143.127 69.3322 143.211 69.5887ZM135.828 71.4296C135.802 71.4352 135.772 71.4431 135.74 71.454C135.639 71.488 135.55 71.541 135.498 71.6156C135.454 71.6781 135.408 71.7961 135.476 72.0308C135.546 72.2752 135.736 72.6284 136.15 73.1205C136.586 73.6386 136.794 73.9922 136.902 74.2963C136.957 74.4483 136.984 74.5806 137.004 74.7019C137.01 74.7376 137.015 74.7709 137.021 74.803C137.034 74.8838 137.045 74.9567 137.064 75.04C137.162 75.4691 137.456 76.1426 139.198 78.0078L139.198 78.0082C140.928 79.8662 142.948 81.5889 144.796 82.5841C145.721 83.0821 146.586 83.3884 147.34 83.45C148.086 83.5109 148.712 83.3326 149.199 82.8701C150.269 81.849 150.346 81.1624 150.25 80.7776C150.2 80.5745 150.094 80.4215 149.999 80.3177C149.952 80.266 149.908 80.228 149.877 80.2036C149.862 80.1915 149.85 80.183 149.843 80.178C149.839 80.1756 149.837 80.174 149.836 80.1733C149.835 80.173 149.835 80.1729 149.835 80.173L149.828 80.1684L149.82 80.1621L149.982 79.9454C149.82 80.1621 149.819 80.1621 149.819 80.162L149.819 80.1619L149.818 80.1607L149.813 80.1576C149.81 80.1549 149.805 80.1511 149.798 80.1461C149.785 80.1362 149.766 80.1218 149.742 80.1032C149.695 80.0661 149.627 80.0122 149.545 79.9438C149.381 79.8073 149.16 79.6121 148.928 79.3775C148.475 78.9186 147.944 78.2699 147.778 77.5913C147.631 76.997 147.504 76.5804 147.181 76.0471C146.851 75.5037 146.311 74.8322 145.32 73.7478L145.32 73.7472C144.317 72.6432 143.724 71.625 143.382 70.8781C143.211 70.5056 143.102 70.2008 143.036 69.9866C142.886 70.093 142.718 70.26 142.623 70.5108C142.439 71.0001 142.488 71.9593 143.943 73.6728L143.943 73.673C144.062 73.8138 144.155 73.9446 144.213 74.0645C144.267 74.1763 144.315 74.3288 144.261 74.4825C144.2 74.6558 144.048 74.7306 143.928 74.7592C143.81 74.7872 143.674 74.7845 143.542 74.7697C143.015 74.7111 142.146 74.4111 141.191 74.0222C139.311 73.2561 136.958 72.0849 135.828 71.4296ZM135.903 71.4168C135.904 71.4167 135.904 71.4167 135.904 71.4167L135.903 71.4168Z" fill="#2C2C2C"/>
<path d="M175.212 69.8076C175.212 69.8076 169.997 97.1139 167.44 98.6544C165.382 99.8965 158.724 94.2055 149.946 86.5275C148.98 85.6314 147.816 84.2624 147.816 84.2624L149.78 76.9131L151.964 79.1897L162.34 87.7735C162.34 87.7735 166.686 65.5012 170.795 65.0966C174.91 64.6851 175.212 69.8076 175.212 69.8076Z" fill="#2C2C2C"/>
<path d="M230.426 79.9452C230.426 79.9452 232.071 78.7333 232.365 77.5271C232.666 76.3181 232.902 75.738 234.886 73.5663C236.852 71.403 237.197 69.5885 237.197 69.5885C237.197 69.5885 239.621 70.3762 236.674 73.8463C234.871 75.9736 242.364 72.421 244.527 71.1474C244.527 71.1474 246.169 71.2707 244.468 73.2931C242.767 75.3155 244.901 74.4547 241.41 78.191C237.929 81.9306 233.241 85.1738 231.021 83.0646C228.808 80.9526 230.426 79.9452 230.426 79.9452Z" fill="white"/>
<path fill-rule="evenodd" clip-rule="evenodd" d="M237.197 69.5887L237.282 69.3322L236.987 69.2362L236.929 69.5382L236.929 69.5383L236.929 69.5387L236.929 69.5406C236.928 69.5429 236.928 69.547 236.926 69.5527C236.924 69.5642 236.92 69.5823 236.914 69.6068C236.902 69.6558 236.882 69.7301 236.852 69.8269C236.792 70.0205 236.691 70.304 236.531 70.6547C236.209 71.3559 235.646 72.3264 234.684 73.3856C233.69 74.4727 233.12 75.1771 232.761 75.7688C232.395 76.3706 232.253 76.8484 232.101 77.4628L232.101 77.4634L232.1 77.4639C231.972 77.9914 231.534 78.5515 231.091 78.9999C230.874 79.219 230.666 79.4023 230.512 79.5306C230.436 79.5947 230.373 79.6449 230.329 79.6787C230.307 79.6957 230.291 79.7085 230.279 79.7169C230.275 79.72 230.272 79.7225 230.27 79.7244C230.267 79.726 230.264 79.728 230.261 79.7301C230.258 79.7321 230.255 79.7342 230.252 79.7365C230.236 79.7473 230.215 79.7625 230.191 79.782C230.142 79.821 230.076 79.8782 230.007 79.954C229.868 80.1051 229.707 80.3359 229.629 80.6487C229.469 81.2955 229.689 82.1686 230.832 83.2594L230.832 83.2597C231.455 83.8517 232.247 84.059 233.114 83.9882C233.972 83.918 234.913 83.5753 235.873 83.0586C237.793 82.0246 239.859 80.2559 241.611 78.3744C243.358 76.5036 243.743 75.7394 243.876 75.1593C243.899 75.0572 243.915 74.9588 243.929 74.8729C243.933 74.8443 243.937 74.817 243.942 74.7915C243.96 74.6848 243.981 74.5867 244.02 74.4766C244.099 74.2565 244.262 73.9593 244.677 73.4662C245.113 72.9472 245.356 72.5265 245.456 72.179C245.559 71.8218 245.514 71.5297 245.359 71.3086C245.214 71.0996 244.999 70.9953 244.845 70.943C244.765 70.916 244.694 70.9002 244.642 70.891C244.616 70.8864 244.594 70.8834 244.578 70.8815C244.57 70.8805 244.563 70.8798 244.558 70.8793C244.555 70.8791 244.553 70.8789 244.552 70.8787L244.549 70.8785L244.548 70.8784L244.548 70.8784C244.548 70.8784 244.548 70.8784 244.527 71.1476L244.548 70.8784L244.462 70.8719L244.388 70.9155C243.319 71.5448 240.917 72.7456 239.01 73.5227C238.046 73.9152 237.245 74.1841 236.806 74.2331C236.773 74.2368 236.744 74.2389 236.719 74.2399C236.753 74.1836 236.806 74.1109 236.883 74.0203C238.374 72.2637 238.587 71.0941 238.296 70.322C238.153 69.9426 237.9 69.696 237.688 69.5462C237.582 69.4712 237.484 69.4191 237.412 69.3852C237.375 69.3682 237.345 69.3557 237.323 69.347C237.312 69.3427 237.303 69.3394 237.296 69.3369C237.292 69.3357 237.289 69.3347 237.287 69.3339L237.284 69.3329L237.283 69.3325L237.282 69.3323C237.282 69.3322 237.282 69.3322 237.197 69.5887ZM244.581 71.4296C244.607 71.4352 244.637 71.4431 244.669 71.454C244.769 71.488 244.859 71.541 244.911 71.6156C244.955 71.6781 245 71.7961 244.932 72.0308C244.862 72.2752 244.672 72.6284 244.258 73.1205C243.822 73.6386 243.615 73.9922 243.506 74.2963C243.452 74.4483 243.425 74.5806 243.404 74.7019C243.398 74.7376 243.393 74.7709 243.388 74.803C243.375 74.8838 243.363 74.9567 243.344 75.04C243.246 75.4691 242.953 76.1426 241.21 78.0078L241.21 78.0082C239.48 79.8662 237.461 81.5889 235.612 82.5841C234.687 83.0821 233.822 83.3884 233.069 83.45C232.323 83.5109 231.697 83.3326 231.21 82.8701C230.14 81.849 230.063 81.1624 230.158 80.7776C230.209 80.5745 230.314 80.4215 230.409 80.3177C230.457 80.266 230.501 80.228 230.531 80.2036C230.547 80.1915 230.558 80.183 230.566 80.178C230.569 80.1756 230.571 80.174 230.572 80.1733C230.573 80.173 230.573 80.1729 230.573 80.173L230.58 80.1684L230.589 80.1621L230.426 79.9454C230.589 80.1621 230.589 80.1621 230.589 80.162L230.589 80.1619L230.591 80.1607L230.595 80.1576C230.599 80.1549 230.604 80.1511 230.61 80.1461C230.623 80.1362 230.642 80.1218 230.666 80.1032C230.714 80.0661 230.781 80.0122 230.863 79.9438C231.027 79.8073 231.249 79.6121 231.48 79.3775C231.934 78.9186 232.464 78.2699 232.63 77.5913C232.778 76.997 232.904 76.5804 233.228 76.0471C233.558 75.5037 234.097 74.8322 235.088 73.7478L235.089 73.7472C236.092 72.6432 236.684 71.625 237.027 70.8781C237.198 70.5056 237.306 70.2008 237.372 69.9866C237.523 70.093 237.691 70.26 237.785 70.5108C237.97 71.0001 237.92 71.9593 236.466 73.6728L236.465 73.673C236.346 73.8138 236.253 73.9446 236.195 74.0645C236.142 74.1763 236.094 74.3288 236.148 74.4825C236.209 74.6558 236.36 74.7306 236.481 74.7592C236.599 74.7872 236.734 74.7845 236.867 74.7697C237.393 74.7111 238.262 74.4111 239.217 74.0222C241.097 73.2561 243.45 72.0849 244.581 71.4296ZM244.505 71.4168C244.505 71.4167 244.504 71.4167 244.505 71.4167L244.505 71.4168Z" fill="#2C2C2C"/>
<path d="M205.197 69.8076C205.197 69.8076 210.412 97.1139 212.969 98.6544C215.026 99.8965 221.685 94.2055 230.462 86.5275C231.429 85.6314 232.592 84.2624 232.592 84.2624L230.629 76.9131L228.445 79.1897L218.069 87.7735C218.069 87.7735 213.722 65.5012 209.614 65.0966C205.498 64.6851 205.197 69.8076 205.197 69.8076Z" fill="#2C2C2C"/>
<path d="M216.028 69.9811C216.028 74.2878 213.18 76.9542 208.834 76.9542C204.487 76.9542 200.965 73.4643 200.965 69.1575C200.965 64.8508 204.249 60.0985 208.391 61.3879C212.955 62.7987 216.028 65.6743 216.028 69.9811Z" fill="white"/>
<path fill-rule="evenodd" clip-rule="evenodd" d="M203.332 63.3492C202.037 64.8635 201.237 67.0656 201.237 69.158C201.237 73.3156 204.638 76.6847 208.834 76.6847C210.95 76.6847 212.676 76.0363 213.871 74.8892C215.065 73.7432 215.755 72.0742 215.755 69.9815C215.755 65.8392 212.812 63.0378 208.31 61.6461L208.309 61.6459C206.373 61.0433 204.623 61.8397 203.332 63.3492ZM208.472 61.1306C206.266 60.4441 204.303 61.3791 202.917 63.0001C201.534 64.6163 200.692 66.9437 200.692 69.158C200.692 73.6139 204.337 77.2247 208.834 77.2247C211.063 77.2247 212.935 76.5399 214.25 75.2771C215.567 74.0132 216.3 72.1956 216.3 69.9815C216.3 65.5104 213.098 62.5606 208.472 61.1306Z" fill="#2C2C2C"/>
<path d="M212.492 68.7258C212.492 71.9119 210.387 73.883 207.171 73.883C203.956 73.883 201.353 71.3044 201.353 68.1182C201.353 64.932 203.779 61.4151 206.851 62.3669C210.217 63.42 212.492 65.5463 212.492 68.7258Z" fill="#2C2C2C"/>
<path d="M163.229 69.9813C163.229 74.2881 166.077 76.9545 170.424 76.9545C174.77 76.9545 178.285 73.4578 178.285 69.1578C178.285 64.8578 175.002 60.0988 170.86 61.3881C166.302 62.7989 163.229 65.6746 163.229 69.9813Z" fill="white"/>
<path fill-rule="evenodd" clip-rule="evenodd" d="M176.334 63.0024C177.716 64.6194 178.558 66.9468 178.558 69.1578C178.558 73.6064 174.921 77.2245 170.424 77.2245C168.194 77.2245 166.323 76.5397 165.007 75.2768C163.69 74.013 162.957 72.1954 162.957 69.9813C162.957 65.5103 166.159 62.5604 170.778 61.1304C172.984 60.4438 174.948 61.3807 176.334 63.0024ZM175.918 63.3515C174.627 61.841 172.877 61.0431 170.941 61.6457L170.941 61.6458C166.445 63.0375 163.502 65.8389 163.502 69.9813C163.502 72.074 164.192 73.7429 165.386 74.889C166.581 76.036 168.307 76.6844 170.424 76.6844C174.619 76.6844 178.013 73.3091 178.013 69.1578C178.013 67.0688 177.213 64.8666 175.918 63.3515Z" fill="#2C2C2C"/>
<path d="M166.772 68.7258C166.772 71.9119 168.877 73.883 172.093 73.883C175.308 73.883 177.911 71.3044 177.911 68.1182C177.911 64.932 175.485 61.4151 172.42 62.3669C169.041 63.42 166.772 65.5463 166.772 68.7258Z" fill="#2C2C2C"/>
<path d="M199.534 104.536C194.616 104.091 189.758 103.909 189.758 103.909C187.973 103.963 184.172 104.118 180.248 104.536C181.392 108.411 185.275 111.267 189.888 111.267C194.507 111.273 198.39 108.404 199.534 104.536Z" fill="#50BFD7"/>
<path d="M199.132 104.941C199.555 103.294 208.009 61.3204 208.009 61.3204C208.009 61.3204 185.446 54.7185 171.016 61.3204L180.268 105.306L199.132 104.941Z" fill="white"/>
<path fill-rule="evenodd" clip-rule="evenodd" d="M208.086 61.0614C208.086 61.0614 208.086 61.0615 208.009 61.3204C208.276 61.3733 208.276 61.3734 208.276 61.3738L208.276 61.3752L208.181 61.8451C208.119 62.1529 208.028 62.6046 207.912 63.1801C207.68 64.331 207.348 65.9771 206.949 67.9575C206.15 71.9183 205.08 77.2166 203.996 82.5664C201.831 93.258 199.61 104.175 199.396 105.008L199.345 105.207L180.047 105.58L170.705 61.1653L170.902 61.0753C178.187 57.7424 187.497 57.7498 194.954 58.5764C198.688 58.9903 201.97 59.6111 204.317 60.1285C205.491 60.3872 206.433 60.6201 207.081 60.7885C207.405 60.8727 207.656 60.9407 207.826 60.9878C207.911 61.0114 207.976 61.0297 208.019 61.0422C208.041 61.0484 208.058 61.0532 208.069 61.0564L208.082 61.0601L208.085 61.0611L208.086 61.0614ZM208.009 61.3204L208.276 61.3733L208.325 61.1313L208.086 61.0615L208.009 61.3204ZM207.693 61.5118C207.688 61.5105 207.684 61.5092 207.679 61.5079C207.512 61.4616 207.264 61.3943 206.942 61.3108C206.3 61.144 205.366 60.9127 204.199 60.6556C201.865 60.1414 198.604 59.5244 194.893 59.1131C187.53 58.2968 178.444 58.2965 171.328 61.4765L180.489 105.032L198.915 104.675C199.301 102.96 201.404 92.6261 203.462 82.4601C204.545 77.1105 205.615 71.8124 206.414 67.8516C206.814 65.8713 207.146 64.2252 207.378 63.0743C207.494 62.4989 207.585 62.0472 207.647 61.7393L207.693 61.5118Z" fill="black"/>
<path d="M199.132 104.941C199.555 103.294 208.009 61.3204 208.009 61.3204C208.009 61.3204 185.446 54.7185 171.016 61.3204L180.268 105.306L199.132 104.941Z" fill="white"/>
<path fill-rule="evenodd" clip-rule="evenodd" d="M208.086 61.0614C208.086 61.0614 208.086 61.0615 208.009 61.3204C208.276 61.3733 208.276 61.3734 208.276 61.3738L208.276 61.3752L208.181 61.8451C208.119 62.1529 208.028 62.6046 207.912 63.1801C207.68 64.331 207.348 65.9771 206.949 67.9575C206.15 71.9183 205.08 77.2166 203.996 82.5664C201.831 93.258 199.61 104.175 199.396 105.008L199.345 105.207L180.047 105.58L170.705 61.1653L170.902 61.0753C178.187 57.7424 187.497 57.7498 194.954 58.5764C198.688 58.9903 201.97 59.6111 204.317 60.1285C205.491 60.3872 206.433 60.6201 207.081 60.7885C207.405 60.8727 207.656 60.9407 207.826 60.9878C207.911 61.0114 207.976 61.0297 208.019 61.0422C208.041 61.0484 208.058 61.0532 208.069 61.0564L208.082 61.0601L208.085 61.0611L208.086 61.0614ZM208.009 61.3204L208.276 61.3733L208.325 61.1313L208.086 61.0615L208.009 61.3204ZM207.693 61.5118C207.688 61.5105 207.684 61.5092 207.679 61.5079C207.512 61.4616 207.264 61.3943 206.942 61.3108C206.3 61.144 205.366 60.9127 204.199 60.6556C201.865 60.1414 198.604 59.5244 194.893 59.1131C187.53 58.2968 178.444 58.2965 171.328 61.4765L180.489 105.032L198.915 104.675C199.301 102.96 201.404 92.6261 203.462 82.4601C204.545 77.1105 205.615 71.8124 206.414 67.8516C206.814 65.8713 207.146 64.2252 207.378 63.0743C207.494 62.4989 207.585 62.0472 207.647 61.7393L207.693 61.5118Z" fill="#2C2C2C"/>
<path d="M202.532 60.0314C196.23 58.7758 185.575 57.3447 176.419 59.5049C177.502 66.2755 178.585 73.0529 179.668 79.8235C180.54 84.4137 184.935 87.4717 189.52 87.4987C194.104 87.4717 198.499 84.4205 199.371 79.8235C200.42 73.2216 201.476 66.6265 202.532 60.0314Z" fill="#50BFD7"/>
<path fill-rule="evenodd" clip-rule="evenodd" d="M176.356 59.2421C185.572 57.0679 196.275 58.5094 202.586 59.7666L202.842 59.8177L202.8 60.0779C201.745 66.6716 200.689 73.2652 199.64 79.8654L199.639 79.8694L199.639 79.8733C198.739 84.6177 194.215 87.741 189.521 87.7686L189.52 87.7686L189.518 87.7686C184.824 87.741 180.301 84.6108 179.401 79.8734L179.4 79.8696L179.399 79.8657C178.858 76.4807 178.316 73.0941 177.775 69.7074L177.774 69.7064C177.233 66.3194 176.691 62.9324 176.15 59.5471L176.11 59.3001L176.356 59.2421ZM176.728 59.7105C177.256 63.0129 177.784 66.3169 178.313 69.6208L178.313 69.6219C178.854 73.0076 179.396 76.3933 179.937 79.7773C180.783 84.2177 185.045 87.2015 189.52 87.2286C193.994 87.2015 198.256 84.2244 199.102 79.7775C200.138 73.2623 201.18 66.7537 202.222 60.2453C195.957 59.0159 185.646 57.6751 176.728 59.7105Z" fill="#2C2C2C"/>
<path d="M188.736 62.4274C190.889 62.4274 194.234 61.7794 194.234 59.653L193.682 52.5516L193.198 46.3413C193.198 44.2082 191.454 42.4868 189.308 42.4868C188.232 42.4868 187.265 42.9188 186.556 43.6141C185.854 44.3094 185.412 45.2747 185.412 46.3413L184.935 52.5584L184.478 58.519C183.865 62.1169 188.736 62.4274 188.736 62.4274Z" fill="#2C2C2C"/>
<path d="M201.326 6.2981C198.104 2.36938 193.6 0 187.823 0C174.736 0 161.942 11.9549 161.942 26.8665C161.942 41.7781 172.549 53.868 185.636 53.868C186.897 53.868 188.116 53.76 189.288 53.544C189.411 54.1988 189.479 54.8738 189.479 55.5624C189.479 55.6906 189.472 55.8121 189.472 55.9336C225.552 47.2796 219.645 4.09073 201.326 6.2981Z" fill="#2C2C2C"/>
<path d="M173.19 41.9267C175.616 41.9267 177.584 39.9774 177.584 37.5727C177.584 35.1681 175.616 33.2188 173.19 33.2188C170.763 33.2188 168.795 35.1681 168.795 37.5727C168.795 39.9774 170.763 41.9267 173.19 41.9267Z" fill="white"/>
<path fill-rule="evenodd" clip-rule="evenodd" d="M173.19 33.4888C170.913 33.4888 169.068 35.3172 169.068 37.5727C169.068 39.8283 170.913 41.6567 173.19 41.6567C175.466 41.6567 177.311 39.8283 177.311 37.5727C177.311 35.3172 175.466 33.4888 173.19 33.4888ZM168.523 37.5727C168.523 35.019 170.612 32.9487 173.19 32.9487C175.767 32.9487 177.856 35.019 177.856 37.5727C177.856 40.1265 175.767 42.1967 173.19 42.1967C170.612 42.1967 168.523 40.1265 168.523 37.5727Z" fill="#2C2C2C"/>
<path d="M204.133 41.9267C206.56 41.9267 208.527 39.9774 208.527 37.5727C208.527 35.1681 206.56 33.2188 204.133 33.2188C201.706 33.2188 199.739 35.1681 199.739 37.5727C199.739 39.9774 201.706 41.9267 204.133 41.9267Z" fill="white"/>
<path fill-rule="evenodd" clip-rule="evenodd" d="M204.133 33.4888C201.856 33.4888 200.011 35.3172 200.011 37.5727C200.011 39.8283 201.856 41.6567 204.133 41.6567C206.409 41.6567 208.254 39.8283 208.254 37.5727C208.254 35.3172 206.409 33.4888 204.133 33.4888ZM199.466 37.5727C199.466 35.019 201.555 32.9487 204.133 32.9487C206.71 32.9487 208.799 35.019 208.799 37.5727C208.799 40.1265 206.71 42.1967 204.133 42.1967C201.555 42.1967 199.466 40.1265 199.466 37.5727Z" fill="#2C2C2C"/>
<path d="M189.077 55.7379C198.509 55.7379 206.156 45.012 206.156 31.7808C206.156 18.5497 198.509 7.82373 189.077 7.82373C179.644 7.82373 171.997 18.5497 171.997 31.7808C171.997 45.012 179.644 55.7379 189.077 55.7379Z" fill="white"/>
<path fill-rule="evenodd" clip-rule="evenodd" d="M177.222 14.9964C174.168 19.281 172.27 25.2144 172.27 31.7808C172.27 38.3473 174.168 44.2806 177.222 48.5653C180.277 52.8506 184.473 55.4679 189.077 55.4679C193.681 55.4679 197.876 52.8506 200.931 48.5653C203.986 44.2806 205.884 38.3473 205.884 31.7808C205.884 25.2144 203.986 19.281 200.931 14.9964C197.876 10.711 193.681 8.09374 189.077 8.09374C184.473 8.09374 180.277 10.711 177.222 14.9964ZM176.777 14.6848C179.904 10.2994 184.248 7.55371 189.077 7.55371C193.905 7.55371 198.25 10.2994 201.376 14.6848C204.503 19.0709 206.429 25.1161 206.429 31.7808C206.429 38.4455 204.503 44.4907 201.376 48.8768C198.25 53.2622 193.905 56.0079 189.077 56.0079C184.248 56.0079 179.904 53.2622 176.777 48.8768C173.65 44.4907 171.725 38.4455 171.725 31.7808C171.725 25.1161 173.65 19.0709 176.777 14.6848Z" fill="#2C2C2C"/>
<path d="M169.504 26.468C169.504 26.468 184.042 27.1701 188.886 18.5026C188.886 18.5026 199.405 27.5211 209.447 26.8191L208.5 22.8363L204.603 15.2219L202.239 12.4138L197.395 7.37797L190.896 4.68457L183.095 5.73763L172.692 12.7648L171.391 17.4495L169.504 26.468Z" fill="#2C2C2C"/>
<path d="M189.499 41.1434C189.506 41.1839 189.417 41.2581 189.22 41.2581C189.029 41.2649 188.736 41.1771 188.477 40.9341C188.348 40.8126 188.232 40.6641 188.143 40.4751C188.13 40.4481 188.123 40.4211 188.109 40.3941L188.096 40.3536L188.082 40.3198L188.062 40.2591C188.055 40.2321 188.048 40.1983 188.034 40.1713C188.007 40.0701 187.987 39.9621 187.98 39.8473C187.939 39.4018 188.028 38.9495 188.137 38.5175C188.559 36.7894 189.056 35.4325 189.24 35.4731C189.424 35.5203 189.233 36.9514 188.811 38.6795C188.702 39.1048 188.62 39.4895 188.62 39.8135C188.62 39.8945 188.627 39.9756 188.634 40.0498L188.641 40.0768V40.0903V40.0971V40.1038C188.641 40.1038 188.634 40.0836 188.641 40.0903L188.654 40.1578L188.661 40.1916L188.668 40.2118L188.682 40.2523C188.722 40.3806 188.784 40.5021 188.852 40.5966C188.988 40.7924 189.152 40.9139 189.281 40.9814C189.397 41.0691 189.492 41.0961 189.499 41.1434Z" fill="#2C2C2C"/>
<path d="M170.614 34.5281C170.424 33.7788 170.28 33.0161 170.165 32.2465C170.056 31.477 169.981 30.7074 169.94 29.9311C169.872 28.3785 169.933 26.8125 170.144 25.2666C170.355 23.714 170.717 22.1817 171.227 20.6966C171.255 20.6021 171.289 20.5076 171.323 20.4198L171.425 20.1431L171.629 19.5896L171.861 19.0428L171.977 18.7728C172.018 18.685 172.052 18.5905 172.099 18.5027C172.433 17.7872 172.794 17.0784 173.203 16.4034C174.014 15.0398 174.961 13.7572 176.051 12.5894C177.148 11.4283 178.381 10.3888 179.73 9.51799C179.893 9.40323 180.07 9.30197 180.241 9.20072C180.411 9.09946 180.588 8.99146 180.758 8.89695L181.297 8.61344L181.562 8.47168C181.651 8.42442 181.746 8.38392 181.835 8.34342L182.387 8.09366C182.434 8.07341 182.475 8.05315 182.523 8.0329L182.666 7.9789L182.945 7.87089L183.225 7.76289C183.32 7.72914 183.409 7.68863 183.511 7.65488L184.09 7.46587C185.629 6.97309 187.251 6.72333 188.872 6.68958C189.683 6.66258 190.494 6.72333 191.298 6.81108C191.502 6.83809 191.7 6.87184 191.897 6.89884L192.197 6.94609C192.245 6.95284 192.299 6.95959 192.347 6.97309L192.497 7.00685L193.089 7.1351C193.287 7.1756 193.485 7.22961 193.675 7.28361C195.235 7.71564 196.741 8.34342 198.117 9.18047L198.628 9.49773C198.717 9.55174 198.798 9.60574 198.88 9.66649L199.125 9.83525L199.371 10.004C199.452 10.058 199.534 10.1188 199.616 10.1795L200.093 10.544L200.331 10.7263L200.563 10.9221L201.019 11.3136C201.169 11.4418 201.312 11.5836 201.455 11.7254L201.673 11.9346C201.748 12.0021 201.816 12.0696 201.885 12.1439L202.3 12.5759L202.505 12.7919L202.702 13.0147L203.097 13.467C203.165 13.5412 203.227 13.6222 203.288 13.6965L203.472 13.9327C203.595 14.088 203.717 14.2433 203.84 14.4053L204.187 14.8913C204.426 15.2086 204.63 15.5528 204.848 15.8836C205.693 17.2269 206.381 18.658 206.926 20.1296C207.471 21.6079 207.859 23.1335 208.105 24.6793L208.152 24.9696L208.173 25.1114L208.186 25.2599L208.254 25.8404C208.309 26.2252 208.323 26.6167 208.357 27.0082C208.404 27.7845 208.418 28.5676 208.398 29.3438L208.391 29.6341L208.377 29.9244C208.363 30.1201 208.357 30.3092 208.336 30.5049C208.309 30.8897 208.268 31.2812 208.22 31.666C208.118 32.4355 207.989 33.1983 207.818 33.9544C207.914 33.1848 207.989 32.422 208.016 31.6525C208.05 30.8829 208.057 30.1134 208.023 29.3506C207.989 28.5878 207.934 27.8183 207.839 27.0622C207.784 26.6842 207.743 26.3062 207.669 25.9282L207.566 25.3679L207.539 25.2261L207.505 25.0844L207.444 24.8076C207.124 23.3158 206.667 21.8577 206.088 20.4603L205.979 20.1971L205.863 19.9406L205.625 19.4208C205.55 19.2453 205.461 19.0833 205.373 18.9145L205.114 18.4082C205.025 18.2395 204.93 18.0775 204.834 17.9155C204.739 17.7534 204.651 17.5847 204.548 17.4227L204.249 16.9434C204.146 16.7814 204.051 16.6194 203.942 16.4709C203.724 16.1604 203.52 15.8431 203.288 15.5461L202.947 15.0938C202.832 14.9453 202.709 14.8035 202.586 14.655L202.402 14.439C202.341 14.3648 202.28 14.2905 202.218 14.223L201.837 13.8045L201.646 13.5952L201.449 13.3927L201.047 12.9944C199.963 11.9549 198.758 11.0436 197.456 10.2875C196.162 9.53149 194.765 8.9577 193.321 8.57293C192.96 8.46493 192.592 8.40417 192.231 8.32317L192.095 8.29617C192.047 8.28942 191.999 8.28267 191.958 8.27592L191.679 8.23541C191.495 8.20841 191.311 8.17466 191.127 8.15441C190.385 8.08016 189.635 8.02615 188.893 8.0464C187.401 8.07341 185.909 8.29617 184.485 8.74844L183.954 8.9172C183.865 8.9442 183.776 8.97796 183.688 9.01171L183.429 9.11296L183.17 9.21422L183.041 9.26147C183 9.27497 182.952 9.30197 182.911 9.31547L182.4 9.54499C182.319 9.58549 182.23 9.61924 182.141 9.65974L181.889 9.788L181.392 10.0445C181.228 10.139 181.065 10.2335 180.901 10.3213C180.738 10.4158 180.574 10.5035 180.418 10.6115C179.144 11.4081 177.972 12.3599 176.909 13.4265L176.521 13.8382L176.33 14.0475C176.296 14.0812 176.262 14.115 176.235 14.1487L176.146 14.2568L175.778 14.6888C175.717 14.763 175.656 14.8305 175.594 14.9048L175.417 15.1276L175.07 15.5731C175.009 15.6473 174.961 15.7216 174.9 15.8026L174.736 16.0321C174.627 16.1874 174.518 16.3359 174.409 16.4979L174.102 16.9772C173.292 18.253 172.597 19.6098 172.052 21.0206C171.5 22.4315 171.078 23.903 170.791 25.4016L170.682 25.9619C170.648 26.1509 170.628 26.3399 170.594 26.5289L170.512 27.096C170.492 27.285 170.471 27.474 170.451 27.663L170.389 28.2368L170.355 28.8106L170.321 29.3843C170.315 29.5734 170.308 29.7691 170.301 29.9581C170.287 30.7277 170.301 31.4905 170.355 32.26C170.417 32.9958 170.505 33.7586 170.614 34.5281Z" fill="#50BFD7"/>
<path d="M184.635 33.0501C184.635 34.9739 182.952 36.5333 180.881 36.5333C178.803 36.5333 177.127 34.9739 177.127 33.0501C177.127 31.1262 178.81 29.5669 180.881 29.5669C182.952 29.5669 184.635 31.1262 184.635 33.0501Z" fill="white"/>
<path fill-rule="evenodd" clip-rule="evenodd" d="M180.881 29.8369C178.943 29.8369 177.4 31.2919 177.4 33.0501C177.4 34.8086 178.937 36.2633 180.881 36.2633C182.819 36.2633 184.362 34.8083 184.362 33.0501C184.362 31.2919 182.819 29.8369 180.881 29.8369ZM176.855 33.0501C176.855 30.9606 178.677 29.2969 180.881 29.2969C183.085 29.2969 184.907 30.9606 184.907 33.0501C184.907 35.1396 183.085 36.8033 180.881 36.8033C178.67 36.8033 176.855 35.1393 176.855 33.0501Z" fill="#2C2C2C"/>
<path d="M179.042 32.8342C179.042 34.4205 180.084 35.7098 181.365 35.7098C182.646 35.7098 183.688 34.4205 183.688 32.8342C183.688 31.2478 182.646 29.9585 181.365 29.9585C180.077 29.9518 179.042 31.2411 179.042 32.8342Z" fill="#50BFD7"/>
<path d="M179.709 32.8339C179.709 33.9613 180.445 34.8726 181.358 34.8726C182.271 34.8726 183.007 33.9613 183.007 32.8339C183.007 31.7066 182.271 30.7886 181.358 30.7886C180.452 30.7886 179.709 31.6999 179.709 32.8339Z" fill="#2C2C2C"/>
<path d="M179.607 30.8964C179.607 31.207 179.989 31.45 180.459 31.45C180.929 31.45 181.31 31.2002 181.31 30.8964C181.31 30.5859 180.929 30.3429 180.459 30.3429C179.989 30.3362 179.607 30.5859 179.607 30.8964Z" fill="white"/>
<path d="M181.126 29.0604C178.803 28.8309 177.018 30.91 177.018 33.0566C177.018 33.2794 177.298 33.3199 177.413 33.1646C178.36 31.8753 178.667 30.6062 180.397 30.1134C182.952 29.3844 184.356 31.9833 184.499 34.0219C184.519 34.2177 184.689 34.0421 184.71 33.8396C184.941 31.4027 183.715 29.3169 181.126 29.0604Z" fill="#2C2C2C"/>
<path d="M185.711 27.7236C185.711 27.7236 180.643 22.7148 175.193 28.6619C175.186 28.6619 179.9 25.6715 185.711 27.7236Z" fill="#2C2C2C"/>
<path d="M200.965 33.0501C200.965 34.9739 199.282 36.5333 197.211 36.5333C195.133 36.5333 193.457 34.9739 193.457 33.0501C193.457 31.1262 195.14 29.5669 197.211 29.5669C199.282 29.5669 200.965 31.1262 200.965 33.0501Z" fill="white"/>
<path fill-rule="evenodd" clip-rule="evenodd" d="M197.211 29.8369C195.273 29.8369 193.73 31.2919 193.73 33.0501C193.73 34.8086 195.267 36.2633 197.211 36.2633C199.149 36.2633 200.692 34.8083 200.692 33.0501C200.692 31.2919 199.149 29.8369 197.211 29.8369ZM193.185 33.0501C193.185 30.9606 195.007 29.2969 197.211 29.2969C199.415 29.2969 201.237 30.9606 201.237 33.0501C201.237 35.1396 199.415 36.8033 197.211 36.8033C195 36.8033 193.185 35.1393 193.185 33.0501Z" fill="#2C2C2C"/>
<path d="M195.372 32.8337C195.372 34.42 196.414 35.7094 197.695 35.7094C198.976 35.7094 200.018 34.42 200.018 32.8337C200.018 31.2474 198.976 29.958 197.695 29.958C196.414 29.9513 195.372 31.2406 195.372 32.8337Z" fill="#50BFD7"/>
<path d="M196.046 32.8339C196.046 33.9613 196.782 34.8726 197.695 34.8726C198.608 34.8726 199.343 33.9613 199.343 32.8339C199.343 31.7066 198.608 30.7886 197.695 30.7886C196.782 30.7886 196.046 31.6999 196.046 32.8339Z" fill="#2C2C2C"/>
<path d="M195.937 30.8964C195.937 31.207 196.319 31.45 196.789 31.45C197.259 31.45 197.64 31.2002 197.64 30.8964C197.64 30.5859 197.259 30.3429 196.789 30.3429C196.325 30.3362 195.937 30.5859 195.937 30.8964Z" fill="white"/>
<path d="M197.456 29.0604C195.133 28.8309 193.348 30.91 193.348 33.0566C193.348 33.2794 193.628 33.3199 193.744 33.1646C194.69 31.8753 194.997 30.6062 196.727 30.1134C199.282 29.3844 200.686 31.9833 200.829 34.0219C200.849 34.2177 201.019 34.0421 201.04 33.8396C201.272 31.4027 200.052 29.3169 197.456 29.0604Z" fill="#2C2C2C"/>
<path d="M202.041 27.1772C202.041 27.1772 196.973 22.1684 191.523 28.1155C191.523 28.1155 196.237 25.1251 202.041 27.1772Z" fill="#2C2C2C"/>
<path d="M176.065 202.086C176.065 202.086 176.467 203.348 176.582 203.544C176.705 203.74 179.832 204.806 183.647 204.725C187.612 204.644 189.424 203.503 189.479 202.079H176.065V202.086Z" fill="#50BFD7"/>
<path fill-rule="evenodd" clip-rule="evenodd" d="M175.792 201.81H189.762L189.751 202.09C189.719 202.933 189.162 203.647 188.151 204.148C187.145 204.646 185.655 204.955 183.653 204.996M175.792 201.81V202.08V201.81ZM176.064 202.086L175.805 202.168L175.792 202.128V202.08M176.064 202.086C175.805 202.168 175.805 202.168 175.805 202.168L175.809 202.182C175.812 202.192 175.817 202.205 175.822 202.223C175.834 202.258 175.85 202.308 175.87 202.369C175.909 202.491 175.964 202.656 176.022 202.828C176.079 202.999 176.141 203.178 176.197 203.327C176.248 203.466 176.303 203.607 176.347 203.681L176.349 203.684L176.351 203.687C176.378 203.73 176.412 203.76 176.431 203.775C176.453 203.793 176.476 203.808 176.498 203.821C176.541 203.847 176.593 203.874 176.651 203.9C176.766 203.953 176.923 204.013 177.113 204.078C177.494 204.208 178.025 204.36 178.671 204.502C179.962 204.787 181.719 205.037 183.653 204.996M176.436 202.35H189.167C189.049 202.831 188.662 203.291 187.907 203.665C187.003 204.113 185.604 204.416 183.641 204.456L183.641 204.456C181.76 204.496 180.046 204.253 178.789 203.975C178.161 203.837 177.649 203.69 177.29 203.568C177.11 203.506 176.972 203.452 176.878 203.409C176.844 203.394 176.818 203.38 176.799 203.37C176.793 203.357 176.786 203.341 176.779 203.323C176.759 203.274 176.735 203.212 176.708 203.141C176.656 202.999 176.596 202.825 176.538 202.656C176.502 202.548 176.467 202.443 176.436 202.35Z" fill="#2C2C2C"/>
<path d="M176.071 202.356C176.671 202.89 177.454 203.295 178.027 203.477C179.45 203.943 181.011 204.118 182.503 204.199C184.09 204.28 185.834 204.253 187.319 203.632C188.123 203.295 188.804 202.802 189.438 202.242C189.724 201.546 189.799 200.757 189.778 199.947C189.731 198.488 189.397 197.078 189.138 195.647C189.097 195.437 189.063 195.235 189.029 195.032C188.954 194.101 188.886 193.162 188.825 192.238C188.804 191.893 188.763 191.59 188.77 191.245C188.777 191.016 188.859 190.645 188.797 190.429C188.791 190.402 188.777 190.381 188.77 190.361C188.77 190.327 188.777 190.293 188.77 190.26C188.504 190.044 188.225 189.841 187.905 189.753C187.673 189.794 187.442 189.868 187.292 189.929C187.053 190.023 186.842 190.145 186.651 190.287C186.181 189.652 185.023 189.355 184.369 189.328C183.347 189.288 181.985 189.463 181.174 190.206C181.038 190.077 180.827 190.01 180.643 189.976C180.602 189.969 180.554 189.963 180.513 189.956C180.036 190.138 180.159 191.299 180.111 191.63C180.043 192.069 179.975 192.508 179.866 192.933C179.648 193.75 179.335 194.499 178.858 195.201C178.347 195.957 177.679 196.612 177.093 197.307C177.011 197.449 176.923 197.591 176.841 197.726C176.214 198.725 175.703 200.176 175.84 201.364C175.874 201.742 175.955 202.066 176.071 202.356Z" fill="#50BFD7"/>
<path fill-rule="evenodd" clip-rule="evenodd" d="M182.631 189.21C183.229 189.072 183.851 189.037 184.38 189.058L184.381 189.058C184.737 189.073 185.217 189.159 185.674 189.326C186.04 189.46 186.417 189.655 186.697 189.928C186.849 189.833 187.012 189.749 187.19 189.678C187.355 189.611 187.604 189.531 187.858 189.487L187.918 189.476L187.978 189.493C188.358 189.597 188.675 189.833 188.943 190.051L189.018 190.112L189.037 190.206C189.046 190.249 189.046 190.286 189.045 190.312C189.051 190.325 189.056 190.341 189.061 190.358C189.106 190.519 189.094 190.711 189.081 190.856C189.075 190.924 189.068 190.984 189.062 191.038C189.052 191.12 189.045 191.188 189.043 191.251C189.038 191.472 189.054 191.667 189.072 191.881C189.08 191.987 189.089 192.098 189.097 192.22C189.158 193.14 189.225 194.073 189.3 194.999C189.333 195.198 189.366 195.393 189.406 195.595L189.406 195.597L189.406 195.598C189.46 195.893 189.517 196.19 189.574 196.487C189.791 197.615 190.012 198.763 190.051 199.937L190.051 199.938L190.051 199.939C190.072 200.767 189.997 201.599 189.69 202.343L189.666 202.401L189.619 202.443C188.973 203.014 188.267 203.527 187.425 203.88L187.425 203.881C185.879 204.527 184.081 204.55 182.489 204.468L182.488 204.468C180.988 204.387 179.4 204.21 177.942 203.733C177.337 203.54 176.519 203.117 175.889 202.557L175.842 202.514L175.818 202.455C175.693 202.141 175.605 201.793 175.569 201.391C175.424 200.122 175.965 198.611 176.609 197.584C176.633 197.545 176.657 197.506 176.681 197.466C176.74 197.368 176.8 197.271 176.857 197.173L176.869 197.152L176.884 197.134C177.085 196.895 177.29 196.667 177.491 196.443C177.899 195.989 178.296 195.547 178.631 195.05L178.632 195.05C179.088 194.378 179.39 193.658 179.602 192.865C179.707 192.455 179.773 192.03 179.842 191.59C179.85 191.531 179.852 191.428 179.854 191.272C179.854 191.265 179.855 191.257 179.855 191.25C179.857 191.092 179.861 190.9 179.88 190.711C179.898 190.524 179.932 190.322 180.003 190.147C180.073 189.975 180.195 189.788 180.415 189.704L180.485 189.677L180.558 189.689C180.576 189.692 180.597 189.695 180.619 189.699L180.62 189.699C180.642 189.702 180.665 189.706 180.687 189.709L180.69 189.71L180.692 189.71C180.828 189.735 181 189.78 181.158 189.865C181.584 189.536 182.106 189.331 182.631 189.21ZM182.754 189.736C182.212 189.861 181.718 190.075 181.359 190.404L181.172 190.575L180.986 190.401C180.909 190.328 180.764 190.273 180.595 190.242C180.588 190.24 180.58 190.239 180.571 190.238C180.553 190.259 180.531 190.292 180.509 190.348C180.467 190.452 180.439 190.595 180.423 190.763C180.406 190.928 180.402 191.1 180.4 191.259C180.399 191.273 180.399 191.287 180.399 191.301C180.397 191.435 180.395 191.574 180.381 191.668L180.381 191.669L180.38 191.677C180.312 192.112 180.242 192.561 180.13 192.999L180.13 193L180.129 193.001C179.905 193.841 179.581 194.619 179.084 195.351C178.728 195.878 178.288 196.368 177.866 196.839C177.677 197.05 177.491 197.257 177.318 197.462C177.261 197.56 177.2 197.659 177.143 197.752C177.12 197.79 177.097 197.828 177.075 197.864L177.074 197.866L177.073 197.868C176.464 198.838 175.984 200.228 176.11 201.333L176.111 201.336L176.111 201.34C176.141 201.666 176.208 201.947 176.302 202.197C176.864 202.682 177.586 203.053 178.11 203.219L178.111 203.22L178.112 203.22C179.502 203.675 181.033 203.849 182.517 203.929C184.099 204.01 185.789 203.978 187.213 203.383C187.96 203.069 188.602 202.613 189.209 202.082C189.456 201.449 189.525 200.723 189.506 199.954C189.469 198.827 189.259 197.732 189.043 196.611C188.985 196.308 188.926 196.003 188.87 195.696C188.829 195.484 188.794 195.279 188.761 195.078L188.758 195.065L188.757 195.053C188.682 194.12 188.614 193.181 188.553 192.255L188.553 192.254L188.553 192.253C188.547 192.156 188.539 192.057 188.531 191.956C188.512 191.727 188.493 191.488 188.498 191.24L188.498 191.238L188.498 191.237C188.5 191.153 188.512 191.044 188.524 190.943C188.529 190.894 188.534 190.847 188.538 190.807C188.552 190.658 188.551 190.559 188.536 190.504C188.535 190.503 188.535 190.502 188.534 190.501L188.533 190.498C188.532 190.495 188.53 190.491 188.528 190.486C188.524 190.477 188.518 190.463 188.512 190.446L188.498 190.404V190.388C188.291 190.227 188.096 190.099 187.89 190.031C187.701 190.069 187.517 190.129 187.395 190.178L187.394 190.179L187.393 190.179C187.178 190.264 186.988 190.374 186.815 190.502L186.595 190.666L186.432 190.446C186.243 190.191 185.895 189.982 185.485 189.833C185.081 189.685 184.656 189.61 184.358 189.597C183.866 189.578 183.295 189.611 182.754 189.736Z" fill="#2C2C2C"/>
<path d="M205.604 202.086C205.604 202.086 205.209 203.348 205.087 203.544C204.964 203.74 201.837 204.806 198.022 204.725C194.057 204.644 192.245 203.503 192.19 202.079H205.604V202.086Z" fill="#50BFD7"/>
<path fill-rule="evenodd" clip-rule="evenodd" d="M191.907 201.81H205.877V202.127L205.865 202.166L205.604 202.086C205.865 202.166 205.865 202.166 205.865 202.166L205.865 202.166L205.865 202.167L205.86 202.181C205.857 202.19 205.853 202.204 205.847 202.222C205.836 202.257 205.82 202.307 205.8 202.368C205.761 202.491 205.708 202.656 205.65 202.827C205.593 202.998 205.531 203.178 205.475 203.327C205.424 203.465 205.366 203.61 205.318 203.687C205.291 203.73 205.257 203.76 205.238 203.775C205.216 203.793 205.193 203.808 205.171 203.821C205.128 203.847 205.076 203.874 205.018 203.9C204.903 203.953 204.746 204.013 204.556 204.078C204.175 204.208 203.644 204.36 202.998 204.502C201.707 204.787 199.95 205.037 198.016 204.996M205.234 202.35H192.502C192.62 202.831 193.007 203.291 193.762 203.665C194.666 204.113 196.065 204.416 198.028 204.456L198.028 204.456C199.909 204.496 201.623 204.253 202.88 203.975C203.508 203.837 204.02 203.69 204.379 203.568C204.559 203.506 204.697 203.452 204.79 203.409C204.826 203.393 204.853 203.38 204.872 203.369C204.878 203.356 204.885 203.34 204.893 203.321C204.913 203.273 204.937 203.212 204.964 203.141C205.016 202.999 205.076 202.826 205.133 202.657C205.169 202.549 205.204 202.443 205.234 202.35ZM191.907 201.81L191.918 202.09L191.907 201.81ZM191.918 202.09C191.95 202.933 192.507 203.647 193.518 204.148L191.918 202.09ZM193.518 204.148C194.524 204.646 196.014 204.955 198.016 204.996L193.518 204.148Z" fill="#2C2C2C"/>
<path d="M205.598 202.356C204.998 202.89 204.215 203.295 203.642 203.477C202.219 203.943 200.658 204.118 199.166 204.199C197.579 204.28 195.835 204.253 194.35 203.632C193.546 203.295 192.865 202.802 192.231 202.242C191.945 201.546 191.87 200.757 191.89 199.947C191.938 198.488 192.272 197.078 192.531 195.647C192.572 195.437 192.606 195.235 192.64 195.032C192.715 194.101 192.783 193.162 192.844 192.238C192.872 191.893 192.906 191.59 192.899 191.245C192.892 191.016 192.81 190.645 192.872 190.429C192.878 190.402 192.892 190.381 192.899 190.361C192.899 190.327 192.892 190.293 192.899 190.26C193.164 190.044 193.437 189.841 193.764 189.753C193.996 189.794 194.227 189.868 194.377 189.929C194.616 190.023 194.827 190.145 195.018 190.287C195.488 189.652 196.646 189.355 197.3 189.328C198.322 189.288 199.684 189.463 200.495 190.206C200.631 190.077 200.842 190.01 201.026 189.976C201.067 189.969 201.115 189.963 201.156 189.956C201.633 190.138 201.51 191.299 201.558 191.63C201.626 192.069 201.694 192.508 201.803 192.933C202.021 193.75 202.334 194.499 202.811 195.201C203.322 195.957 203.99 196.612 204.576 197.307C204.657 197.449 204.746 197.591 204.828 197.726C205.455 198.725 205.966 200.176 205.829 201.364C205.795 201.742 205.713 202.066 205.598 202.356Z" fill="#50BFD7"/>
<path fill-rule="evenodd" clip-rule="evenodd" d="M198.915 189.736C198.374 189.611 197.803 189.578 197.311 189.597C197.013 189.61 196.588 189.685 196.184 189.833C195.774 189.982 195.426 190.191 195.237 190.446L195.074 190.666L194.854 190.502C194.681 190.374 194.491 190.264 194.276 190.179L194.275 190.179L194.274 190.178C194.152 190.129 193.967 190.069 193.778 190.031C193.569 190.098 193.378 190.226 193.171 190.388V190.404L193.157 190.446C193.151 190.463 193.145 190.477 193.141 190.486C193.139 190.491 193.137 190.495 193.136 190.498C193.134 190.501 193.134 190.502 193.133 190.504C193.118 190.559 193.117 190.658 193.131 190.807C193.135 190.847 193.14 190.894 193.145 190.943C193.156 191.044 193.169 191.153 193.171 191.237L193.171 191.238L193.171 191.24C193.177 191.534 193.154 191.804 193.131 192.075C193.126 192.135 193.121 192.196 193.116 192.257C193.055 193.182 192.986 194.121 192.911 195.053L192.911 195.065L192.908 195.078C192.875 195.279 192.84 195.483 192.799 195.696C192.743 196.003 192.684 196.308 192.626 196.61C192.41 197.732 192.2 198.827 192.163 199.954C192.143 200.723 192.213 201.449 192.46 202.082C193.067 202.613 193.709 203.069 194.456 203.383C195.88 203.978 197.57 204.01 199.152 203.929C200.636 203.849 202.167 203.675 203.557 203.22L203.558 203.22L203.559 203.219C204.083 203.053 204.805 202.682 205.367 202.197C205.461 201.947 205.528 201.666 205.558 201.34L205.558 201.336L205.558 201.333C205.685 200.228 205.205 198.838 204.596 197.868L204.595 197.866L204.594 197.864C204.572 197.828 204.549 197.79 204.526 197.752C204.469 197.659 204.408 197.56 204.351 197.462C204.178 197.257 203.992 197.05 203.803 196.839C203.381 196.368 202.941 195.878 202.585 195.351C202.088 194.619 201.764 193.841 201.539 193.001L201.539 193L201.539 192.999C201.427 192.561 201.357 192.112 201.289 191.677L201.288 191.669L201.288 191.668C201.274 191.574 201.272 191.435 201.27 191.301C201.27 191.287 201.27 191.273 201.269 191.259C201.267 191.1 201.263 190.928 201.246 190.763C201.23 190.595 201.202 190.452 201.16 190.348C201.138 190.292 201.116 190.259 201.097 190.238C201.089 190.239 201.081 190.24 201.073 190.242C200.905 190.273 200.76 190.328 200.683 190.401L200.497 190.575L200.31 190.404C199.951 190.075 199.457 189.861 198.915 189.736ZM200.511 189.865C200.085 189.536 199.563 189.331 199.038 189.21C198.44 189.072 197.818 189.037 197.289 189.058L197.288 189.058C196.932 189.073 196.451 189.159 195.995 189.326C195.629 189.46 195.252 189.655 194.972 189.928C194.82 189.833 194.657 189.749 194.479 189.678C194.314 189.611 194.064 189.531 193.811 189.487L193.751 189.477L193.693 189.492C193.304 189.597 192.992 189.834 192.726 190.051L192.651 190.112L192.631 190.206C192.623 190.249 192.623 190.286 192.623 190.311C192.618 190.325 192.613 190.341 192.608 190.358C192.563 190.519 192.575 190.711 192.588 190.856C192.594 190.924 192.601 190.984 192.607 191.038C192.617 191.12 192.624 191.188 192.626 191.251C192.631 191.515 192.611 191.751 192.589 192.019C192.583 192.083 192.578 192.148 192.573 192.216L192.572 192.218L192.572 192.219C192.511 193.139 192.444 194.072 192.369 194.999C192.336 195.198 192.303 195.393 192.263 195.595L192.263 195.597L192.263 195.598C192.209 195.893 192.152 196.19 192.095 196.487C191.878 197.615 191.656 198.763 191.618 199.937L191.618 199.938L191.618 199.939C191.597 200.767 191.672 201.599 191.979 202.343L192.003 202.401L192.05 202.443C192.696 203.014 193.402 203.527 194.243 203.88L194.244 203.881C195.79 204.527 197.588 204.55 199.18 204.468L199.181 204.468C200.681 204.387 202.269 204.21 203.727 203.733C204.332 203.54 205.149 203.117 205.78 202.557L205.827 202.514L205.851 202.455C205.976 202.141 206.064 201.793 206.1 201.391C206.245 200.122 205.704 198.611 205.06 197.584C205.036 197.545 205.012 197.506 204.988 197.467C204.928 197.368 204.869 197.271 204.812 197.173L204.8 197.152L204.785 197.134C204.584 196.895 204.379 196.667 204.178 196.443C203.77 195.989 203.373 195.547 203.038 195.05L203.037 195.05C202.581 194.378 202.278 193.658 202.067 192.865C201.962 192.455 201.896 192.03 201.827 191.59C201.819 191.531 201.817 191.428 201.815 191.272L201.814 191.25C201.812 191.092 201.807 190.9 201.789 190.711C201.77 190.524 201.736 190.322 201.666 190.147C201.596 189.975 201.474 189.788 201.254 189.704L201.184 189.677L201.111 189.689C201.092 189.692 201.072 189.695 201.05 189.699L201.049 189.699C201.027 189.702 201.004 189.706 200.981 189.709L200.979 189.71L200.977 189.71C200.841 189.735 200.669 189.78 200.511 189.865ZM192.644 190.265C192.644 190.265 192.644 190.265 192.644 190.265V190.265Z" fill="#2C2C2C"/>
<path fill-rule="evenodd" clip-rule="evenodd" d="M171.657 30.5117V30.6467H171.112V30.5117H171.657Z" fill="#2C2C2C"/>
<path fill-rule="evenodd" clip-rule="evenodd" d="M174.518 31.9971V32.1321H173.973V31.9971H174.518Z" fill="#2C2C2C"/>
<path d="M190.017 31.2003C190.95 31.396 190.603 31.9968 190.603 32.0846C190.603 32.1723 190.95 37.1676 195.454 38.4839C199.957 39.8003 202.655 37.2149 203.438 35.9188C204.221 34.6227 204.875 31.5445 205.066 31.3083C205.264 31.072 206.197 30.6603 206.197 30.6603L206.306 29.4519L205.134 29.1077C205.134 29.1077 202.178 27.7711 197.824 27.7103C193.478 27.6428 191.018 30.127 191.018 30.127C189.792 29.7422 188.273 29.6882 186.883 30.127C186.883 30.127 184.424 27.6496 180.077 27.7103C175.731 27.7778 172.767 29.1077 172.767 29.1077L171.595 29.4519L171.704 30.6603C171.704 30.6603 172.638 31.072 172.835 31.3083C173.033 31.5445 173.68 34.6295 174.464 35.9188C175.247 37.2149 177.945 39.8003 182.448 38.4839C186.951 37.1676 187.299 32.1723 187.299 32.0846C187.299 31.9968 186.951 31.396 187.885 31.2003C188.695 31.0315 189.206 31.0315 190.017 31.2003ZM200.822 37.4511C197.388 39.4965 193.273 37.4309 192.034 34.7375C190.794 32.0441 191.836 30.6197 191.836 30.6197C193.914 27.2716 202.273 27.1298 203.71 30.748C203.956 31.3555 204.262 35.4058 200.822 37.4511ZM174.184 30.748C175.622 27.1231 183.988 27.2716 186.059 30.6197C186.059 30.6197 187.101 32.0441 185.861 34.7375C184.621 37.4309 180.513 39.4965 177.073 37.4511C173.639 35.4058 173.946 31.3555 174.184 30.748Z" fill="#2C2C2C"/>
<path d="M192.122 67.45H186.89C185.5 67.45 184.369 68.5706 184.369 69.9477V75.132C184.369 76.5091 185.5 77.6296 186.89 77.6296H192.122C193.512 77.6296 194.643 76.5091 194.643 75.132V69.9477C194.643 68.5706 193.519 67.45 192.122 67.45ZM182.979 65.2427C182.182 65.2427 181.535 65.884 181.535 66.6738C181.535 67.4636 182.182 68.1048 182.979 68.1048C183.777 68.1048 184.424 67.4636 184.424 66.6738C184.424 65.884 183.777 65.2427 182.979 65.2427Z" fill="white"/>
<path d="M191.754 70.5416C191.42 69.6573 190.569 69.0701 189.615 69.0701H188.198L190.998 76.1039H194.002L191.754 70.5416ZM186.032 74.0856L185.214 76.1039H188.198L189.588 72.614H188.171C187.217 72.614 186.365 73.2013 186.032 74.0856ZM186.495 70.8184C186.985 70.8184 187.387 70.4201 187.387 69.9341C187.387 69.4481 186.985 69.0498 186.495 69.0498C186.004 69.0498 185.602 69.4481 185.602 69.9341C185.602 70.4201 186.004 70.8184 186.495 70.8184Z" fill="#50BFD7"/>
<path fill-rule="evenodd" clip-rule="evenodd" d="M191.949 48.1745C188.974 46.4026 186.569 47.4548 185.784 48.1304C185.602 48.2869 185.326 48.2677 185.168 48.0874C185.01 47.9071 185.03 47.6341 185.212 47.4775C186.247 46.5867 189.061 45.4459 192.398 47.4334C192.605 47.5565 192.672 47.8221 192.547 48.0267C192.423 48.2313 192.155 48.2975 191.949 48.1745Z" fill="#2C2C2C"/>
<g clip-path="url(#clip0_167_16545)">
<path d="M95.7273 100.833L92.6452 103.915L98.8094 110.079L92.6452 116.243L95.7273 119.325L101.892 113.161L108.056 119.325L111.138 116.243L104.974 110.079L111.138 103.915L108.056 100.833L101.892 106.997L95.7273 100.833ZM86.481 94.6685C77.9744 103.175 77.9744 116.983 86.481 125.49C94.9876 133.996 108.795 133.996 117.302 125.49C125.809 116.983 125.809 103.175 117.302 94.6685C108.795 86.1619 94.9876 86.1619 86.481 94.6685ZM114.22 122.408C107.424 129.204 96.3592 129.204 89.5631 122.408C82.7671 115.611 82.7671 104.547 89.5631 97.7507C96.3592 90.9546 107.424 90.9546 114.22 97.7507C121.016 104.547 121.016 115.611 114.22 122.408Z" fill="#50BFD7"/>
</g>
<defs>
<clipPath id="clip0_167_16545">
<rect width="52.3052" height="52.3052" fill="white" transform="translate(66 108.985) rotate(-45)"/>
</clipPath>
</defs>
</svg>
