<svg width="257" height="205" viewBox="0 0 257 205" fill="none" xmlns="http://www.w3.org/2000/svg">
<path d="M67.2616 158.023C68.9389 159.677 70.7086 161.247 72.5632 162.727H152.519C161.336 154.871 169.682 143.595 176.995 128.009C176.995 128.009 189.946 97.2762 186.931 70.3366C183.916 43.3971 165.036 22.109 138.292 17.5749C111.548 13.0408 87.776 37.9052 57.9266 46.5251C28.0772 55.1449 6.21469 78.2467 14.0711 109.235C21.9276 140.223 43.8662 134.89 67.2616 158.023Z" fill="#50BFD7" fill-opacity="0.4"/>
<path d="M33.4878 64.3652H169.381C170.386 64.3652 171.351 64.7646 172.061 65.4755C172.772 66.1863 173.172 67.1504 173.172 68.1557V157.483H29.7009V68.1521C29.7019 67.1481 30.1012 66.1854 30.8111 65.4755C31.5211 64.7655 32.4838 64.3662 33.4878 64.3652Z" fill="white" stroke="#263238" stroke-linecap="round" stroke-linejoin="round"/>
<path d="M167.341 71.6382H35.5208V146.133H167.341V71.6382Z" stroke="#263238" stroke-linecap="round" stroke-linejoin="round"/>
<path d="M151.055 153H52.4622V157.856H151.055V153Z" fill="#263238" stroke="#263238" stroke-linecap="round" stroke-linejoin="round"/>
<path d="M151.055 155.337H52.4622V157.856H151.055V155.337Z" fill="white" stroke="#263238" stroke-linecap="round" stroke-linejoin="round"/>
<path d="M18.0974 160.733C18.0974 160.733 19.7173 162.716 24.5768 164.332H178.952C178.952 164.332 182.55 163.433 184.17 160.915L18.0974 160.733Z" fill="#263238" stroke="#263238" stroke-linecap="round" stroke-linejoin="round"/>
<path d="M183.822 157.189H18.4563C18.078 157.189 17.7714 157.496 17.7714 157.874V160.288C17.7714 160.666 18.078 160.973 18.4563 160.973H183.822C184.2 160.973 184.507 160.666 184.507 160.288V157.874C184.507 157.496 184.2 157.189 183.822 157.189Z" fill="white" stroke="#263238" stroke-linecap="round" stroke-linejoin="round"/>
<path d="M102.659 67.1807C102.66 66.9312 102.587 66.687 102.449 66.4791C102.31 66.2713 102.114 66.1091 101.883 66.0131C101.653 65.917 101.399 65.8916 101.154 65.9398C100.91 65.9881 100.685 66.1079 100.508 66.2841C100.331 66.4603 100.211 66.685 100.162 66.9297C100.113 67.1745 100.138 67.4282 100.233 67.6589C100.328 67.8895 100.49 68.0867 100.697 68.2254C100.905 68.3641 101.149 68.4382 101.398 68.4382C101.732 68.4382 102.052 68.3058 102.289 68.0701C102.525 67.8344 102.658 67.5146 102.659 67.1807Z" fill="white" stroke="#263238" stroke-linecap="round" stroke-linejoin="round"/>
<path d="M13.1002 164.332H189.58" stroke="#263238" stroke-linecap="round" stroke-linejoin="round"/>
<path d="M103.726 44.9426C104.967 43.7014 104.967 41.6892 103.726 40.4481C102.485 39.2069 100.473 39.2069 99.2314 40.4481C97.9903 41.6892 97.9903 43.7014 99.2314 44.9426C100.473 46.1837 102.485 46.1837 103.726 44.9426Z" fill="white" stroke="#263238" stroke-linecap="round" stroke-linejoin="round"/>
<path d="M101.568 17.0275V2.18066" stroke="#263238" stroke-width="2" stroke-linecap="round" stroke-linejoin="round"/>
<path d="M101.568 26.8334V17.0273" stroke="#808080" stroke-width="2" stroke-miterlimit="10"/>
<path d="M96.6437 26.8335L86.834 43.8292H116.1L106.287 26.8335H96.6437Z" fill="#50BFD7" stroke="#263238" stroke-width="0.972732" stroke-miterlimit="10"/>
<path d="M97.6293 26.8335L89.8199 43.8292H113.114L105.305 26.8335H97.6293Z" fill="#263238" stroke="#263238" stroke-linecap="round" stroke-linejoin="round"/>
<path d="M74.5926 64.3652H33.4876C32.4832 64.3652 31.52 64.7642 30.8098 65.4744C30.0997 66.1846 29.7007 67.1478 29.7007 68.1521V139.933L74.5926 64.3652Z" fill="#C0E2E9" stroke="#263238" stroke-miterlimit="10"/>
<path d="M128.265 64.3652H169.37C170.374 64.3652 171.338 64.7642 172.048 65.4744C172.758 66.1846 173.157 67.1478 173.157 68.1521V140.154L128.265 64.3652Z" fill="#C0E2E9" stroke="#263238" stroke-miterlimit="10"/>
<path d="M74.5926 64.3652L29.7007 139.944" stroke="#263238" stroke-linecap="round" stroke-linejoin="round"/>
<path d="M128.265 64.3652L173.157 140.154" stroke="#263238" stroke-linecap="round" stroke-linejoin="round"/>
<path d="M35.5205 130.261V71.6387H70.1063" stroke="#263238" stroke-linecap="round" stroke-linejoin="round"/>
<path d="M132.653 71.6387H167.337V130.558" stroke="#263238" stroke-linecap="round" stroke-linejoin="round"/>
<path d="M128.265 64.3653L116.1 43.8291H86.8338L74.5925 64.3653" fill="white" fill-opacity="0.5"/>
<path d="M128.265 64.3653L116.1 43.8291H86.8338L74.5925 64.3653" stroke="#263238" stroke-miterlimit="10"/>
<path d="M9.43762 178.569H5.57373L10.7247 142.664H14.5886L9.43762 178.569Z" fill="#263238" stroke="#263238" stroke-width="1.16634" stroke-miterlimit="10"/>
<path d="M17.1655 178.569H21.0267L15.8757 142.664H12.0145L17.1655 178.569Z" fill="white" stroke="#263238" stroke-width="1.16634" stroke-miterlimit="10"/>
<path d="M64.2556 178.569H60.3944L65.5427 142.664H69.4065L64.2556 178.569Z" fill="#263238" stroke="#263238" stroke-width="1.16634" stroke-miterlimit="10"/>
<path d="M71.9835 178.569H75.8447L70.6937 142.664H66.8325L71.9835 178.569Z" fill="white" stroke="#263238" stroke-width="1.16634" stroke-miterlimit="10"/>
<path d="M74.6822 137.034H1V144.176H74.6822V137.034Z" fill="#50BFD7" stroke="#263238" stroke-width="1.16634" stroke-miterlimit="10"/>
<path d="M76.4786 137.034H2.79639V144.176H76.4786V137.034Z" fill="#50BFD7" stroke="#263238" stroke-width="1.16634" stroke-miterlimit="10"/>
<path d="M4.00208 144.176H10.2558L13.4884 137.034H7.23463L4.00208 144.176Z" fill="#263238"/>
<path d="M28.7569 137.034H22.5032L19.2706 144.176H25.5244L28.7569 137.034Z" fill="#263238"/>
<path d="M74.5604 137.034H68.3066L65.0768 144.176H71.3305L74.5604 137.034Z" fill="#263238"/>
<path d="M59.2943 137.034H53.0378L49.808 144.176H56.0617L59.2943 137.034Z" fill="#263238"/>
<path d="M44.0257 137.034H37.772L34.5394 144.176H40.7932L44.0257 137.034Z" fill="#263238"/>
<path d="M76.0749 140.201H63.8817" stroke="#263238" stroke-width="1.16634" stroke-miterlimit="10"/>
<path d="M75.861 141.396H73.9371" stroke="#263238" stroke-width="1.16634" stroke-miterlimit="10"/>
<path d="M2.48511 141.098H14.6783" stroke="#263238" stroke-width="1.16634" stroke-miterlimit="10"/>
<path d="M2.69861 139.754H18.1" stroke="#263238" stroke-width="1.16634" stroke-miterlimit="10"/>
<path d="M84.6886 140.837L74.7883 178.659H96.8683L86.968 140.837C86.9078 140.58 86.7625 140.351 86.5556 140.186C86.3487 140.022 86.0924 139.933 85.8283 139.933C85.5642 139.933 85.3079 140.022 85.101 140.186C84.8941 140.351 84.7488 140.58 84.6886 140.837Z" fill="#50BFD7" stroke="#263238" stroke-linecap="round" stroke-linejoin="round"/>
<path d="M74.7883 178.659H92.777L83.7827 144.294L74.7883 178.659Z" fill="#263238" stroke="#263238" stroke-linecap="round" stroke-linejoin="round"/>
<path d="M99.0969 177.829H71.5559C70.7553 177.829 70.1063 178.478 70.1063 179.278V179.463C70.1063 180.264 70.7553 180.912 71.5559 180.912H99.0969C99.8974 180.912 100.546 180.264 100.546 179.463V179.278C100.546 178.478 99.8974 177.829 99.0969 177.829Z" fill="#50BFD7" stroke="#263238" stroke-linecap="round" stroke-linejoin="round"/>
<path d="M89.6713 177.829H71.5559C70.7553 177.829 70.1063 178.478 70.1063 179.278V179.463C70.1063 180.264 70.7553 180.912 71.5559 180.912H89.6713C90.4719 180.912 91.1209 180.264 91.1209 179.463V179.278C91.1209 178.478 90.4719 177.829 89.6713 177.829Z" fill="#263238" stroke="#263238" stroke-linecap="round" stroke-linejoin="round"/>
<path d="M78.7383 163.573H92.9183L91.2042 157.021H80.4524L78.7383 163.573Z" fill="white" stroke="#263238" stroke-linecap="round" stroke-linejoin="round"/>
<path d="M78.7383 163.573H88.8306L87.1166 157.021H80.4524L78.7383 163.573Z" fill="#BABABA" stroke="#263238" stroke-linecap="round" stroke-linejoin="round"/>
<path d="M205.388 103.037C205.388 103.037 199.328 103.75 198.058 103.75C198.044 103.75 198.031 103.75 198.017 103.75C198.01 103.75 198.004 103.75 197.997 103.75C197.99 103.75 197.983 103.75 197.977 103.75C197.963 103.75 197.949 103.75 197.936 103.75C196.659 103.75 190.605 103.037 190.605 103.037C182.528 105.585 183.105 117.372 183.112 117.704C183.166 120.137 183.2 122.575 183.262 125.008C183.404 130.735 184.865 147.888 185.239 153.344C185.273 153.792 185.293 154.166 185.306 154.444C185.918 166.686 186.523 178.928 187.134 191.17C187.188 192.244 187.243 193.324 187.297 194.397C187.297 194.397 190.137 196.164 195.707 194.397L195.755 154.634L197.304 125.089C197.304 125.089 197.589 125.048 197.929 125.014C197.949 125.014 197.97 125.021 197.997 125.021V125.028C198.004 125.028 198.01 125.028 198.017 125.028C198.024 125.028 198.031 125.028 198.038 125.028V125.021C198.058 125.021 198.078 125.014 198.106 125.014C198.445 125.048 198.731 125.089 198.731 125.089L200.28 154.634L200.327 194.397C205.898 196.164 208.738 194.397 208.738 194.397C208.792 193.324 208.846 192.244 208.901 191.17C209.512 178.928 210.11 166.686 210.728 154.444C210.742 154.166 210.762 153.792 210.796 153.344C211.163 147.895 212.63 130.735 212.773 125.008C212.834 122.575 212.868 120.137 212.922 117.704C212.888 117.372 213.459 105.585 205.388 103.037Z" fill="#2C2C2C"/>
<path d="M157.932 79.1446C157.932 79.1446 156.291 77.925 155.998 76.711C155.699 75.4942 155.463 74.9104 153.484 72.7249C151.524 70.5477 151.18 68.7216 151.18 68.7216C151.18 68.7216 148.763 69.5144 151.701 73.0067C153.499 75.1476 146.027 71.5722 143.871 70.2905C143.871 70.2905 142.234 70.4146 143.93 72.4499C145.626 74.4853 143.498 73.619 146.978 77.3792C150.45 81.1427 155.125 84.4067 157.339 82.284C159.546 80.1584 157.932 79.1446 157.932 79.1446Z" fill="white"/>
<path fill-rule="evenodd" clip-rule="evenodd" d="M151.18 68.7215L151.095 68.4633L151.39 68.3668L151.447 68.6706L151.447 68.6708L151.447 68.6712L151.447 68.673C151.448 68.6754 151.449 68.6795 151.45 68.6852C151.452 68.6968 151.457 68.7151 151.463 68.7397C151.475 68.789 151.494 68.8638 151.524 68.9612C151.584 69.1561 151.684 69.4414 151.845 69.7943C152.165 70.4999 152.726 71.4767 153.686 72.5427C154.677 73.6367 155.246 74.3456 155.604 74.9411C155.968 75.5467 156.11 76.0276 156.262 76.646L156.262 76.6465L156.262 76.6471C156.39 77.178 156.828 77.7416 157.269 78.1929C157.485 78.4135 157.692 78.5978 157.846 78.7271C157.922 78.7916 157.985 78.842 158.029 78.8761C158.05 78.8931 158.067 78.906 158.078 78.9145C158.082 78.9176 158.085 78.9201 158.088 78.922C158.09 78.9237 158.093 78.9256 158.097 78.9278C158.099 78.9298 158.102 78.9319 158.106 78.9342C158.121 78.9451 158.142 78.9604 158.166 78.98C158.216 79.0193 158.281 79.0768 158.35 79.1531C158.489 79.3052 158.649 79.5375 158.727 79.8522C158.887 80.5032 158.667 81.3819 157.527 82.4796L157.527 82.48C156.905 83.0758 156.116 83.2844 155.252 83.2131C154.396 83.1425 153.458 82.7976 152.501 82.2776C150.585 81.237 148.526 79.457 146.779 77.5634C145.036 75.6806 144.652 74.9115 144.52 74.3277C144.497 74.225 144.481 74.126 144.467 74.0395C144.463 74.0107 144.458 73.9833 144.454 73.9576C144.436 73.8502 144.415 73.7515 144.376 73.6406C144.298 73.4192 144.135 73.1201 143.721 72.6238C143.286 72.1014 143.043 71.6781 142.944 71.3284C142.841 70.9689 142.887 70.6749 143.041 70.4524C143.186 70.2421 143.4 70.1371 143.553 70.0845C143.633 70.0573 143.704 70.0414 143.756 70.0321C143.782 70.0275 143.804 70.0245 143.82 70.0225C143.828 70.0215 143.834 70.0208 143.84 70.0203C143.842 70.0201 143.844 70.0199 143.846 70.0197L143.848 70.0196L143.849 70.0195L143.85 70.0194C143.85 70.0194 143.85 70.0194 143.871 70.2904L143.85 70.0194L143.936 70.0129L144.009 70.0568C145.075 70.6901 147.47 71.8986 149.372 72.6807C150.333 73.0757 151.132 73.3463 151.57 73.3956C151.603 73.3993 151.632 73.4015 151.657 73.4025C151.622 73.3458 151.57 73.2727 151.493 73.1815C150.006 71.4136 149.794 70.2365 150.084 69.4594C150.227 69.0777 150.479 68.8295 150.69 68.6787C150.796 68.6032 150.894 68.5507 150.966 68.5167C151.002 68.4996 151.032 68.487 151.054 68.4783C151.065 68.4739 151.075 68.4705 151.081 68.4681C151.085 68.4668 151.088 68.4658 151.09 68.465L151.093 68.464L151.094 68.4636L151.095 68.4635C151.095 68.4634 151.095 68.4633 151.18 68.7215ZM143.817 70.5741C143.791 70.5798 143.761 70.5878 143.729 70.5987C143.629 70.633 143.54 70.6862 143.488 70.7613C143.444 70.8242 143.399 70.943 143.466 71.1792C143.536 71.4252 143.726 71.7806 144.139 72.2759C144.573 72.7973 144.78 73.1532 144.888 73.4592C144.943 73.6121 144.969 73.7454 144.99 73.8674C144.996 73.9033 145.001 73.9369 145.006 73.9692C145.019 74.0505 145.031 74.1238 145.05 74.2076C145.148 74.6395 145.44 75.3173 147.178 77.1945L147.178 77.1948C148.903 79.0648 150.917 80.7985 152.76 81.8001C153.682 82.3012 154.545 82.6095 155.297 82.6715C156.04 82.7328 156.665 82.5534 157.15 82.0879C158.217 81.0603 158.294 80.3693 158.199 79.982C158.149 79.7776 158.044 79.6236 157.948 79.5191C157.901 79.4671 157.857 79.4289 157.827 79.4044C157.812 79.3922 157.8 79.3836 157.793 79.3786C157.789 79.3761 157.787 79.3745 157.786 79.3738C157.785 79.3735 157.785 79.3734 157.785 79.3735L157.778 79.3689L157.769 79.3626L157.932 79.1445C157.769 79.3626 157.769 79.3625 157.769 79.3625L157.769 79.3624L157.768 79.3612L157.763 79.358C157.76 79.3553 157.755 79.3515 157.748 79.3465C157.735 79.3365 157.716 79.322 157.693 79.3033C157.645 79.266 157.577 79.2117 157.496 79.1429C157.333 79.0055 157.112 78.8091 156.881 78.573C156.429 78.1111 155.899 77.4582 155.734 76.7753C155.587 76.1772 155.461 75.7579 155.138 75.2212C154.809 74.6743 154.271 73.9985 153.283 72.9072L153.282 72.9066C152.282 71.7956 151.691 70.7708 151.35 70.0191C151.179 69.6442 151.071 69.3374 151.005 69.1219C150.855 69.229 150.688 69.3971 150.593 69.6495C150.41 70.1419 150.458 71.1073 151.909 72.8317L151.91 72.8319C152.029 72.9736 152.121 73.1052 152.179 73.2259C152.232 73.3384 152.28 73.4919 152.226 73.6466C152.165 73.821 152.015 73.8963 151.894 73.9251C151.776 73.9533 151.642 73.9506 151.509 73.9357C150.984 73.8766 150.117 73.5747 149.166 73.1833C147.29 72.4124 144.944 71.2337 143.817 70.5741ZM143.892 70.5613C143.893 70.5612 143.893 70.5612 143.893 70.5612L143.892 70.5613Z" fill="#2C2C2C"/>
<path d="M183.091 68.9424C183.091 68.9424 177.89 96.4235 175.341 97.9738C173.289 99.2238 166.649 93.4964 157.896 85.7693C156.932 84.8674 155.772 83.4897 155.772 83.4897L157.73 76.0933L159.908 78.3845L170.255 87.0233C170.255 87.0233 174.589 64.6084 178.686 64.2012C182.79 63.7871 183.091 68.9424 183.091 68.9424Z" fill="#2C2C2C"/>
<path d="M238.15 79.1441C238.15 79.1441 239.791 77.9245 240.084 76.7105C240.383 75.4937 240.619 74.91 242.598 72.7244C244.558 70.5473 244.902 68.7211 244.902 68.7211C244.902 68.7211 247.319 69.5139 244.38 73.0062C242.583 75.1471 250.055 71.5717 252.211 70.29C252.211 70.29 253.848 70.4141 252.152 72.4494C250.456 74.4848 252.584 73.6185 249.103 77.3787C245.632 81.1422 240.957 84.4062 238.743 82.2835C236.536 80.158 238.15 79.1441 238.15 79.1441Z" fill="white"/>
<path fill-rule="evenodd" clip-rule="evenodd" d="M244.902 68.721L244.987 68.4628L244.692 68.3663L244.635 68.6702L244.635 68.6703L244.635 68.6707L244.635 68.6725C244.634 68.6749 244.633 68.679 244.632 68.6848C244.629 68.6963 244.625 68.7146 244.619 68.7392C244.607 68.7885 244.588 68.8633 244.558 68.9607C244.498 69.1556 244.398 69.4409 244.237 69.7938C243.917 70.4995 243.355 71.4762 242.396 72.5422C241.405 73.6363 240.836 74.3451 240.478 74.9406C240.114 75.5463 239.972 76.0271 239.82 76.6455L239.82 76.6461L239.82 76.6466C239.692 77.1775 239.254 77.7411 238.813 78.1924C238.597 78.413 238.39 78.5974 238.236 78.7266C238.16 78.7911 238.097 78.8415 238.053 78.8756C238.032 78.8926 238.015 78.9055 238.004 78.914C238 78.9171 237.996 78.9196 237.994 78.9215C237.991 78.9232 237.989 78.9252 237.985 78.9273C237.983 78.9293 237.98 78.9314 237.976 78.9337C237.961 78.9446 237.94 78.9599 237.915 78.9796C237.866 79.0188 237.801 79.0763 237.732 79.1526C237.593 79.3047 237.433 79.537 237.355 79.8518C237.195 80.5028 237.415 81.3814 238.555 82.4792L238.555 82.4795C239.176 83.0753 239.966 83.2839 240.83 83.2126C241.686 83.142 242.624 82.7971 243.581 82.2771C245.496 81.2365 247.556 79.4565 249.303 77.5629C251.046 75.6801 251.43 74.911 251.562 74.3272C251.585 74.2245 251.601 74.1255 251.615 74.039C251.619 74.0102 251.624 73.9828 251.628 73.9571C251.646 73.8497 251.667 73.751 251.706 73.6401C251.784 73.4187 251.947 73.1196 252.361 72.6233C252.796 72.101 253.038 71.6776 253.138 71.3279C253.241 70.9684 253.195 70.6745 253.041 70.4519C252.896 70.2416 252.682 70.1366 252.529 70.084C252.449 70.0568 252.378 70.0409 252.326 70.0317C252.3 70.027 252.278 70.024 252.262 70.022C252.254 70.0211 252.247 70.0204 252.242 70.0199C252.24 70.0196 252.238 70.0194 252.236 70.0193L252.234 70.0191L252.233 70.019L252.232 70.019C252.232 70.0189 252.232 70.0189 252.211 70.2899L252.232 70.0189L252.146 70.0124L252.073 70.0563C251.007 70.6896 248.612 71.8981 246.71 72.6802C245.749 73.0752 244.95 73.3458 244.512 73.3951C244.479 73.3988 244.45 73.401 244.425 73.402C244.459 73.3453 244.512 73.2722 244.588 73.181C246.076 71.4131 246.288 70.236 245.998 69.4589C245.855 69.0772 245.603 68.829 245.392 68.6782C245.286 68.6027 245.188 68.5503 245.116 68.5162C245.08 68.4991 245.05 68.4865 245.028 68.4778C245.016 68.4734 245.007 68.4701 245 68.4676C244.997 68.4664 244.994 68.4653 244.992 68.4646L244.989 68.4635L244.988 68.4631L244.987 68.463C244.987 68.4629 244.987 68.4628 244.902 68.721ZM252.265 70.5736C252.291 70.5794 252.321 70.5873 252.353 70.5982C252.453 70.6325 252.542 70.6857 252.594 70.7609C252.638 70.8238 252.683 70.9425 252.616 71.1787C252.545 71.4247 252.356 71.7801 251.943 72.2754C251.509 72.7968 251.302 73.1527 251.193 73.4587C251.139 73.6116 251.112 73.7449 251.092 73.8669C251.086 73.9029 251.081 73.9364 251.075 73.9687C251.063 74.05 251.051 74.1233 251.032 74.2071C250.934 74.639 250.642 75.3168 248.904 77.194L248.904 77.1943C247.179 79.0643 245.165 80.798 243.322 81.7996C242.399 82.3007 241.537 82.609 240.785 82.671C240.042 82.7323 239.417 82.5529 238.932 82.0874C237.865 81.0598 237.788 80.3688 237.883 79.9815C237.933 79.7771 238.038 79.6231 238.133 79.5186C238.181 79.4667 238.224 79.4284 238.255 79.4039C238.27 79.3917 238.282 79.3831 238.289 79.3781C238.293 79.3756 238.295 79.374 238.296 79.3734C238.297 79.373 238.297 79.3729 238.297 79.373L238.304 79.3684L238.312 79.3621L238.15 79.144C238.312 79.3621 238.312 79.362 238.313 79.362L238.313 79.3619L238.314 79.3607L238.318 79.3575C238.322 79.3548 238.327 79.351 238.334 79.346C238.347 79.336 238.366 79.3215 238.389 79.3028C238.437 79.2655 238.504 79.2112 238.586 79.1424C238.749 79.005 238.97 78.8086 239.201 78.5725C239.653 78.1106 240.183 77.4577 240.348 76.7749C240.495 76.1767 240.621 75.7574 240.944 75.2208C241.273 74.6738 241.811 73.9981 242.799 72.9067L242.799 72.9062C243.8 71.7951 244.391 70.7703 244.732 70.0187C244.903 69.6438 245.011 69.337 245.077 69.1214C245.227 69.2285 245.394 69.3966 245.489 69.649C245.672 70.1414 245.623 71.1068 244.173 72.8312L244.172 72.8314C244.053 72.9732 243.961 73.1047 243.903 73.2254C243.85 73.3379 243.802 73.4914 243.856 73.6461C243.917 73.8205 244.067 73.8958 244.188 73.9246C244.305 73.9528 244.44 73.9501 244.573 73.9352C245.098 73.8761 245.964 73.5742 246.916 73.1828C248.791 72.4119 251.137 71.2332 252.265 70.5736ZM252.19 70.5608C252.189 70.5607 252.189 70.5607 252.189 70.5607L252.19 70.5608Z" fill="#2C2C2C"/>
<path d="M212.991 68.9424C212.991 68.9424 218.192 96.4235 220.741 97.9738C222.793 99.2238 229.433 93.4964 238.186 85.7693C239.15 84.8674 240.31 83.4897 240.31 83.4897L238.352 76.0933L236.174 78.3845L225.827 87.0233C225.827 87.0233 221.493 64.6084 217.396 64.2012C213.292 63.7871 212.991 68.9424 212.991 68.9424Z" fill="#2C2C2C"/>
<path d="M223.792 69.1171C223.792 73.4514 220.952 76.1348 216.618 76.1348C212.284 76.1348 208.771 72.6226 208.771 68.2882C208.771 63.9539 212.046 59.1713 216.176 60.4688C220.728 61.8887 223.792 64.7828 223.792 69.1171Z" fill="white"/>
<path fill-rule="evenodd" clip-rule="evenodd" d="M211.132 62.442C209.841 63.966 209.043 66.1822 209.043 68.288C209.043 72.4722 212.434 75.8628 216.618 75.8628C218.729 75.8628 220.45 75.2103 221.641 74.0559C222.832 72.9025 223.52 71.2229 223.52 69.1168C223.52 64.948 220.586 62.1286 216.096 60.728L216.095 60.7278C214.164 60.1213 212.42 60.9229 211.132 62.442ZM216.258 60.2092C214.058 59.5183 212.1 60.4593 210.718 62.0906C209.339 63.7172 208.5 66.0595 208.5 68.288C208.5 72.7724 212.134 76.4063 216.618 76.4063C218.841 76.4063 220.708 75.7171 222.02 74.4462C223.332 73.1743 224.064 71.345 224.064 69.1168C224.064 64.6171 220.871 61.6484 216.258 60.2092Z" fill="#2C2C2C"/>
<path d="M220.266 67.8534C220.266 71.06 218.167 73.0437 214.96 73.0437C211.754 73.0437 209.159 70.4486 209.159 67.242C209.159 64.0354 211.577 60.496 214.641 61.4539C217.997 62.5137 220.266 64.6536 220.266 67.8534Z" fill="#2C2C2C"/>
<path d="M171.142 69.1173C171.142 73.4516 173.982 76.1351 178.316 76.1351C182.65 76.1351 186.156 72.616 186.156 68.2885C186.156 63.961 182.881 59.1715 178.751 60.4691C174.206 61.8889 171.142 64.783 171.142 69.1173Z" fill="white"/>
<path fill-rule="evenodd" clip-rule="evenodd" d="M184.209 62.0935C185.588 63.7209 186.427 66.0631 186.427 68.2882C186.427 72.7654 182.801 76.4066 178.316 76.4066C176.092 76.4066 174.226 75.7174 172.914 74.4465C171.601 73.1746 170.87 71.3453 170.87 69.1171C170.87 64.6174 174.063 61.6487 178.669 60.2095C180.869 59.5185 182.827 60.4614 184.209 62.0935ZM183.795 62.4448C182.507 60.9247 180.762 60.1216 178.832 60.7281L178.832 60.7282C174.348 62.1288 171.413 64.9482 171.413 69.1171C171.413 71.2232 172.102 72.9028 173.292 74.0561C174.484 75.2105 176.205 75.8631 178.316 75.8631C182.5 75.8631 185.884 72.4661 185.884 68.2882C185.884 66.1859 185.086 63.9696 183.795 62.4448Z" fill="#2C2C2C"/>
<path d="M174.674 67.8534C174.674 71.06 176.774 73.0437 179.98 73.0437C183.187 73.0437 185.782 70.4486 185.782 67.242C185.782 64.0354 183.363 60.496 180.306 61.4539C176.937 62.5137 174.674 64.6536 174.674 67.8534Z" fill="#2C2C2C"/>
<path d="M207.345 103.894C202.44 103.445 197.596 103.262 197.596 103.262C195.816 103.316 192.025 103.472 188.112 103.894C189.254 107.793 193.126 110.667 197.725 110.667C202.331 110.674 206.204 107.786 207.345 103.894Z" fill="#50BFD7"/>
<path d="M206.944 104.301C207.365 102.643 215.796 60.4007 215.796 60.4007C215.796 60.4007 193.296 53.7566 178.907 60.4007L188.133 104.668L206.944 104.301Z" fill="white"/>
<path fill-rule="evenodd" clip-rule="evenodd" d="M215.873 60.1403C215.873 60.1403 215.873 60.1404 215.796 60.401C216.063 60.4542 216.063 60.4543 216.062 60.4547L216.062 60.4561L215.968 60.929C215.906 61.2388 215.815 61.6934 215.699 62.2726C215.468 63.4309 215.137 65.0875 214.739 67.0806C213.942 71.0667 212.875 76.3989 211.794 81.7829C209.636 92.543 207.42 103.53 207.207 104.368L207.156 104.569L187.913 104.944L178.597 60.2449L178.793 60.1543C186.057 56.8 195.341 56.8075 202.778 57.6394C206.501 58.056 209.773 58.6808 212.115 59.2014C213.285 59.4618 214.224 59.6962 214.87 59.8656C215.193 59.9504 215.443 60.0189 215.613 60.0663C215.698 60.09 215.763 60.1084 215.806 60.121C215.828 60.1273 215.845 60.1321 215.856 60.1353L215.868 60.139L215.872 60.14L215.873 60.1403ZM215.796 60.401L216.063 60.4542L216.111 60.2107L215.873 60.1404L215.796 60.401ZM215.481 60.5936C215.476 60.5923 215.471 60.591 215.467 60.5897C215.3 60.543 215.052 60.4753 214.732 60.3913C214.092 60.2234 213.16 59.9906 211.997 59.7319C209.669 59.2144 206.417 58.5934 202.717 58.1795C195.374 57.358 186.313 57.3577 179.217 60.5581L188.353 104.392L206.727 104.034C207.112 102.307 209.209 91.9071 211.262 81.676C212.342 76.2922 213.409 70.9601 214.206 66.974C214.604 64.981 214.935 63.3244 215.167 62.1661C215.282 61.587 215.373 61.1324 215.435 60.8226L215.481 60.5936Z" fill="black"/>
<path d="M206.944 104.301C207.365 102.643 215.796 60.4007 215.796 60.4007C215.796 60.4007 193.296 53.7566 178.907 60.4007L188.133 104.668L206.944 104.301Z" fill="white"/>
<path fill-rule="evenodd" clip-rule="evenodd" d="M215.873 60.1403C215.873 60.1403 215.873 60.1404 215.796 60.401C216.063 60.4542 216.063 60.4543 216.062 60.4547L216.062 60.4561L215.968 60.929C215.906 61.2388 215.815 61.6934 215.699 62.2726C215.468 63.4309 215.137 65.0875 214.739 67.0806C213.942 71.0667 212.875 76.3989 211.794 81.7829C209.636 92.543 207.42 103.53 207.207 104.368L207.156 104.569L187.913 104.944L178.597 60.2449L178.793 60.1543C186.057 56.8 195.341 56.8075 202.778 57.6394C206.501 58.056 209.773 58.6808 212.115 59.2014C213.285 59.4618 214.224 59.6962 214.87 59.8656C215.193 59.9504 215.443 60.0189 215.613 60.0663C215.698 60.09 215.763 60.1084 215.806 60.121C215.828 60.1273 215.845 60.1321 215.856 60.1353L215.868 60.139L215.872 60.14L215.873 60.1403ZM215.796 60.401L216.063 60.4542L216.111 60.2107L215.873 60.1404L215.796 60.401ZM215.481 60.5936C215.476 60.5923 215.471 60.591 215.467 60.5897C215.3 60.543 215.052 60.4753 214.732 60.3913C214.092 60.2234 213.16 59.9906 211.997 59.7319C209.669 59.2144 206.417 58.5934 202.717 58.1795C195.374 57.358 186.313 57.3577 179.217 60.5581L188.353 104.392L206.727 104.034C207.112 102.307 209.209 91.9071 211.262 81.676C212.342 76.2922 213.409 70.9601 214.206 66.974C214.604 64.981 214.935 63.3244 215.167 62.1661C215.282 61.587 215.373 61.1324 215.435 60.8226L215.481 60.5936Z" fill="#2C2C2C"/>
<path d="M210.334 59.1034C204.05 57.8398 193.425 56.3996 184.294 58.5735C185.374 65.3875 186.455 72.2082 187.535 79.0222C188.404 83.6418 192.786 86.7193 197.358 86.7465C201.93 86.7193 206.312 83.6486 207.182 79.0222C208.228 72.3781 209.281 65.7407 210.334 59.1034Z" fill="#50BFD7"/>
<path fill-rule="evenodd" clip-rule="evenodd" d="M184.231 58.3089C193.422 56.1207 204.095 57.5714 210.388 58.8367L210.643 58.8881L210.602 59.15C209.549 65.7859 208.496 72.4217 207.45 79.0642L207.45 79.0682L207.449 79.0721C206.551 83.8469 202.04 86.9902 197.36 87.018L197.358 87.018L197.357 87.018C192.676 86.9902 188.165 83.84 187.268 79.0722L187.267 79.0683L187.266 79.0645C186.726 75.6578 186.186 72.2495 185.646 68.8411L185.646 68.8401C185.106 65.4314 184.566 62.0228 184.026 58.6158L183.986 58.3672L184.231 58.3089ZM184.602 58.7802C185.129 62.1038 185.656 65.4289 186.183 68.754L186.183 68.7551C186.723 72.1624 187.263 75.5698 187.802 78.9755C188.646 83.4443 192.896 86.4472 197.358 86.4745C201.82 86.4472 206.071 83.451 206.914 78.9757C207.946 72.4188 208.985 65.8685 210.025 59.3185C203.778 58.0812 193.495 56.7318 184.602 58.7802Z" fill="#2C2C2C"/>
<path d="M196.577 61.515C198.724 61.515 202.059 60.8628 202.059 58.7229L201.509 51.576L201.027 45.3259C201.027 43.1791 199.288 41.4468 197.148 41.4468C196.074 41.4468 195.11 41.8816 194.403 42.5813C193.703 43.281 193.262 44.2525 193.262 45.3259L192.786 51.5828L192.331 57.5815C191.72 61.2025 196.577 61.515 196.577 61.515Z" fill="#2C2C2C"/>
<path d="M183.941 202.068C183.941 202.068 184.342 203.338 184.457 203.535C184.58 203.732 187.698 204.806 191.502 204.724C195.456 204.643 197.263 203.494 197.317 202.061H183.941V202.068Z" fill="#50BFD7"/>
<path fill-rule="evenodd" clip-rule="evenodd" d="M183.669 201.789H197.6L197.589 202.071C197.557 202.919 197.002 203.638 195.994 204.142C194.99 204.644 193.505 204.954 191.508 204.996M183.669 201.789V202.061V201.789ZM183.941 202.068L183.682 202.149L183.669 202.109V202.061M183.941 202.068C183.682 202.149 183.682 202.149 183.682 202.149L183.686 202.164C183.689 202.173 183.694 202.187 183.699 202.205C183.711 202.24 183.727 202.291 183.747 202.353C183.786 202.475 183.84 202.641 183.898 202.814C183.956 202.986 184.018 203.166 184.073 203.316C184.124 203.456 184.179 203.598 184.223 203.672L184.225 203.675L184.226 203.678C184.254 203.722 184.287 203.752 184.306 203.767C184.328 203.785 184.351 203.8 184.373 203.813C184.416 203.84 184.468 203.867 184.525 203.893C184.641 203.946 184.797 204.007 184.986 204.072C185.366 204.203 185.896 204.356 186.54 204.499C187.827 204.786 189.58 205.037 191.508 204.996M184.312 202.333H197.007C196.889 202.817 196.503 203.28 195.751 203.656C194.849 204.107 193.454 204.412 191.497 204.452L191.496 204.452C189.62 204.492 187.912 204.248 186.658 203.969C186.031 203.829 185.521 203.682 185.163 203.558C184.984 203.497 184.846 203.442 184.753 203.399C184.718 203.383 184.692 203.37 184.674 203.36C184.668 203.346 184.661 203.331 184.653 203.312C184.633 203.263 184.609 203.201 184.583 203.129C184.53 202.986 184.47 202.811 184.413 202.641C184.377 202.533 184.342 202.427 184.312 202.333Z" fill="#2C2C2C"/>
<path d="M183.948 202.339C184.546 202.876 185.327 203.284 185.898 203.467C187.317 203.936 188.873 204.112 190.361 204.194C191.944 204.275 193.683 204.248 195.164 203.623C195.966 203.284 196.645 202.788 197.277 202.224C197.562 201.524 197.637 200.729 197.616 199.914C197.569 198.447 197.236 197.027 196.978 195.586C196.937 195.376 196.903 195.172 196.869 194.968C196.794 194.031 196.727 193.086 196.665 192.156C196.645 191.809 196.604 191.503 196.611 191.157C196.618 190.926 196.699 190.552 196.638 190.335C196.631 190.308 196.618 190.287 196.611 190.267C196.611 190.233 196.618 190.199 196.611 190.165C196.346 189.948 196.068 189.744 195.748 189.656C195.517 189.696 195.286 189.771 195.137 189.832C194.899 189.927 194.688 190.05 194.498 190.192C194.029 189.554 192.875 189.255 192.222 189.228C191.203 189.187 189.845 189.364 189.036 190.111C188.9 189.982 188.69 189.914 188.506 189.88C188.466 189.873 188.418 189.866 188.377 189.859C187.902 190.043 188.024 191.211 187.976 191.544C187.908 191.986 187.841 192.427 187.732 192.855C187.514 193.677 187.202 194.432 186.726 195.138C186.217 195.899 185.551 196.558 184.967 197.258C184.885 197.4 184.797 197.543 184.715 197.679C184.09 198.684 183.581 200.145 183.717 201.341C183.751 201.721 183.832 202.047 183.948 202.339Z" fill="#50BFD7"/>
<path fill-rule="evenodd" clip-rule="evenodd" d="M190.488 189.109C191.086 188.97 191.705 188.935 192.233 188.956L192.234 188.956C192.589 188.971 193.068 189.058 193.523 189.225C193.889 189.36 194.265 189.556 194.543 189.831C194.695 189.736 194.858 189.651 195.035 189.58C195.199 189.513 195.448 189.432 195.701 189.388L195.761 189.377L195.821 189.393C196.2 189.498 196.516 189.736 196.783 189.955L196.858 190.016L196.877 190.112C196.886 190.154 196.886 190.192 196.885 190.218C196.891 190.231 196.896 190.247 196.901 190.264C196.945 190.426 196.934 190.619 196.921 190.765C196.914 190.834 196.908 190.894 196.902 190.948C196.892 191.031 196.885 191.1 196.883 191.164C196.878 191.386 196.894 191.581 196.912 191.797C196.92 191.904 196.929 192.016 196.937 192.139C196.997 193.064 197.065 194.003 197.139 194.935C197.172 195.135 197.205 195.332 197.245 195.535L197.245 195.536L197.245 195.538C197.298 195.835 197.355 196.133 197.413 196.433C197.629 197.568 197.85 198.723 197.888 199.905L197.888 199.906L197.888 199.907C197.909 200.74 197.834 201.577 197.528 202.326L197.505 202.384L197.458 202.426C196.813 203.001 196.109 203.518 195.27 203.873L195.27 203.873C193.728 204.524 191.934 204.547 190.347 204.465L190.346 204.465C188.85 204.383 187.267 204.205 185.813 203.725C185.21 203.531 184.395 203.105 183.766 202.541L183.719 202.498L183.695 202.439C183.57 202.123 183.483 201.772 183.446 201.368C183.302 200.09 183.842 198.57 184.483 197.537C184.507 197.497 184.531 197.458 184.555 197.418C184.615 197.32 184.674 197.222 184.731 197.123L184.743 197.102L184.758 197.083C184.959 196.843 185.162 196.614 185.363 196.389C185.77 195.931 186.166 195.487 186.5 194.987L186.501 194.986C186.956 194.31 187.257 193.585 187.469 192.787C187.573 192.375 187.639 191.947 187.707 191.504C187.716 191.445 187.717 191.341 187.72 191.184C187.72 191.177 187.72 191.169 187.72 191.162C187.723 191.003 187.727 190.81 187.746 190.619C187.764 190.431 187.798 190.228 187.868 190.052C187.938 189.878 188.06 189.69 188.279 189.606L188.349 189.579L188.422 189.591C188.44 189.594 188.461 189.597 188.483 189.601L188.484 189.601C188.505 189.604 188.529 189.608 188.551 189.612L188.553 189.612L188.556 189.612C188.691 189.637 188.863 189.683 189.02 189.768C189.444 189.437 189.965 189.231 190.488 189.109ZM190.612 189.638C190.071 189.764 189.578 189.979 189.221 190.31L189.034 190.483L188.849 190.308C188.772 190.235 188.627 190.179 188.459 190.147C188.451 190.146 188.443 190.145 188.435 190.143C188.417 190.164 188.395 190.198 188.373 190.254C188.331 190.359 188.303 190.503 188.287 190.672C188.27 190.838 188.266 191.011 188.264 191.171C188.264 191.185 188.263 191.199 188.263 191.214C188.261 191.349 188.259 191.488 188.245 191.582L188.245 191.584L188.244 191.592C188.177 192.029 188.107 192.481 187.995 192.922L187.995 192.923L187.994 192.925C187.771 193.77 187.447 194.553 186.952 195.289C186.597 195.82 186.158 196.313 185.737 196.786C185.549 196.999 185.363 197.207 185.191 197.413C185.134 197.512 185.073 197.612 185.016 197.706C184.993 197.744 184.97 197.782 184.948 197.818L184.947 197.82L184.946 197.822C184.339 198.799 183.86 200.197 183.987 201.31L183.987 201.313L183.987 201.316C184.017 201.645 184.084 201.927 184.178 202.18C184.738 202.668 185.458 203.04 185.981 203.208L185.982 203.208L185.983 203.209C187.368 203.666 188.896 203.841 190.375 203.922C191.953 204.004 193.638 203.972 195.058 203.373C195.803 203.057 196.443 202.598 197.048 202.063C197.294 201.426 197.364 200.695 197.345 199.921C197.308 198.787 197.098 197.686 196.883 196.557C196.825 196.252 196.766 195.946 196.711 195.636C196.669 195.423 196.635 195.217 196.601 195.014L196.599 195.001L196.598 194.99C196.523 194.051 196.455 193.105 196.394 192.173L196.394 192.172L196.394 192.171C196.388 192.074 196.38 191.974 196.372 191.873C196.354 191.642 196.334 191.402 196.339 191.151L196.339 191.15L196.339 191.149C196.342 191.065 196.354 190.954 196.365 190.853C196.37 190.804 196.376 190.757 196.379 190.716C196.393 190.567 196.392 190.466 196.377 190.411C196.377 190.41 196.376 190.409 196.376 190.408L196.375 190.405C196.373 190.402 196.371 190.398 196.369 190.394C196.365 190.385 196.359 190.37 196.353 190.353L196.339 190.311V190.295C196.133 190.133 195.938 190.004 195.733 189.935C195.545 189.973 195.361 190.034 195.24 190.084L195.239 190.084L195.238 190.084C195.024 190.17 194.834 190.28 194.661 190.409L194.442 190.574L194.279 190.353C194.091 190.097 193.744 189.886 193.335 189.735C192.932 189.587 192.508 189.511 192.211 189.499C191.72 189.479 191.151 189.512 190.612 189.638Z" fill="#2C2C2C"/>
<path d="M213.398 202.068C213.398 202.068 213.004 203.338 212.882 203.535C212.759 203.732 209.641 204.806 205.837 204.724C201.883 204.643 200.076 203.494 200.021 202.061H213.398V202.068Z" fill="#50BFD7"/>
<path fill-rule="evenodd" clip-rule="evenodd" d="M199.739 201.789H213.67V202.109L213.657 202.148L213.398 202.068C213.657 202.148 213.657 202.148 213.657 202.148L213.657 202.148L213.657 202.148L213.653 202.163C213.65 202.172 213.646 202.186 213.64 202.204C213.629 202.239 213.613 202.29 213.593 202.352C213.554 202.474 213.501 202.641 213.444 202.813C213.386 202.985 213.324 203.166 213.269 203.317C213.218 203.456 213.161 203.601 213.113 203.678C213.085 203.722 213.052 203.752 213.033 203.767C213.011 203.785 212.988 203.8 212.966 203.813C212.923 203.84 212.871 203.867 212.813 203.893C212.698 203.946 212.542 204.007 212.353 204.072C211.973 204.203 211.443 204.356 210.799 204.499C209.512 204.786 207.759 205.037 205.831 204.996M213.029 202.333H200.332C200.45 202.817 200.836 203.28 201.588 203.656C202.49 204.107 203.885 204.412 205.842 204.452L205.843 204.452C207.719 204.492 209.427 204.248 210.681 203.969C211.308 203.829 211.818 203.682 212.176 203.558C212.355 203.497 212.493 203.442 212.586 203.399C212.622 203.383 212.649 203.369 212.667 203.359C212.673 203.345 212.68 203.329 212.688 203.31C212.709 203.262 212.733 203.2 212.759 203.129C212.812 202.986 212.871 202.812 212.928 202.642C212.964 202.533 212.999 202.427 213.029 202.333ZM199.739 201.789L199.75 202.071L199.739 201.789ZM199.75 202.071C199.782 202.919 200.337 203.638 201.345 204.142L199.75 202.071ZM201.345 204.142C202.349 204.644 203.834 204.954 205.831 204.996L201.345 204.142Z" fill="#2C2C2C"/>
<path d="M213.391 202.339C212.793 202.876 212.012 203.284 211.441 203.467C210.022 203.936 208.466 204.112 206.978 204.194C205.395 204.275 203.656 204.248 202.175 203.623C201.373 203.284 200.694 202.788 200.062 202.224C199.777 201.524 199.702 200.729 199.723 199.914C199.77 198.447 200.103 197.027 200.361 195.586C200.402 195.376 200.436 195.172 200.47 194.968C200.545 194.031 200.612 193.086 200.674 192.156C200.701 191.809 200.735 191.503 200.728 191.157C200.721 190.926 200.64 190.552 200.701 190.335C200.708 190.308 200.721 190.287 200.728 190.267C200.728 190.233 200.721 190.199 200.728 190.165C200.993 189.948 201.265 189.744 201.591 189.656C201.822 189.696 202.053 189.771 202.202 189.832C202.44 189.927 202.651 190.05 202.841 190.192C203.31 189.554 204.464 189.255 205.117 189.228C206.136 189.187 207.494 189.364 208.303 190.111C208.439 189.982 208.649 189.914 208.833 189.88C208.873 189.873 208.921 189.866 208.962 189.859C209.437 190.043 209.315 191.211 209.363 191.544C209.431 191.986 209.498 192.427 209.607 192.855C209.825 193.677 210.137 194.432 210.613 195.138C211.122 195.899 211.788 196.558 212.372 197.258C212.454 197.4 212.542 197.543 212.624 197.679C213.249 198.684 213.758 200.145 213.622 201.341C213.588 201.721 213.507 202.047 213.391 202.339Z" fill="#50BFD7"/>
<path fill-rule="evenodd" clip-rule="evenodd" d="M206.727 189.638C206.188 189.512 205.619 189.479 205.128 189.499C204.83 189.511 204.407 189.587 204.004 189.735C203.595 189.886 203.248 190.097 203.06 190.353L202.897 190.574L202.678 190.409C202.505 190.28 202.315 190.17 202.101 190.084L202.1 190.084L202.099 190.084C201.978 190.034 201.793 189.973 201.605 189.935C201.396 190.003 201.206 190.131 201 190.295V190.311L200.986 190.353C200.98 190.37 200.974 190.385 200.97 190.394C200.968 190.398 200.966 190.402 200.964 190.405C200.963 190.408 200.962 190.409 200.962 190.411C200.947 190.466 200.946 190.567 200.959 190.716C200.963 190.757 200.968 190.804 200.974 190.853C200.985 190.954 200.997 191.065 200.999 191.149L201 191.15L201 191.151C201.005 191.448 200.983 191.719 200.96 191.992C200.954 192.053 200.949 192.114 200.945 192.175C200.883 193.106 200.815 194.051 200.741 194.99L200.74 195.001L200.738 195.014C200.704 195.216 200.669 195.423 200.628 195.636C200.573 195.946 200.514 196.252 200.456 196.557C200.241 197.686 200.031 198.787 199.994 199.922C199.975 200.695 200.044 201.426 200.291 202.063C200.896 202.598 201.536 203.057 202.281 203.373C203.701 203.972 205.386 204.004 206.964 203.922C208.443 203.841 209.97 203.666 211.356 203.209L211.357 203.208L211.358 203.208C211.881 203.04 212.601 202.668 213.161 202.18C213.255 201.927 213.322 201.645 213.351 201.316L213.352 201.313L213.352 201.31C213.478 200.197 213 198.799 212.393 197.822L212.392 197.82L212.39 197.818C212.369 197.782 212.346 197.744 212.322 197.706C212.265 197.612 212.205 197.512 212.148 197.413C211.975 197.207 211.79 196.999 211.601 196.786C211.18 196.313 210.742 195.82 210.387 195.289C209.891 194.553 209.568 193.77 209.344 192.925L209.344 192.923L209.344 192.922C209.232 192.481 209.162 192.029 209.095 191.592L209.094 191.584L209.093 191.582C209.08 191.488 209.078 191.349 209.076 191.214C209.075 191.199 209.075 191.185 209.075 191.171C209.072 191.011 209.068 190.838 209.052 190.672C209.036 190.503 209.008 190.359 208.966 190.254C208.944 190.198 208.922 190.164 208.904 190.143C208.895 190.145 208.887 190.146 208.88 190.147C208.712 190.179 208.567 190.235 208.49 190.308L208.305 190.483L208.118 190.31C207.761 189.979 207.268 189.764 206.727 189.638ZM208.319 189.768C207.894 189.437 207.374 189.231 206.85 189.109C206.253 188.97 205.634 188.935 205.106 188.956L205.105 188.956C204.75 188.971 204.271 189.058 203.816 189.225C203.45 189.36 203.074 189.556 202.796 189.831C202.644 189.736 202.481 189.651 202.304 189.58C202.14 189.513 201.89 189.432 201.638 189.388L201.578 189.377L201.52 189.393C201.132 189.498 200.821 189.737 200.555 189.955L200.48 190.016L200.461 190.112C200.453 190.154 200.453 190.192 200.453 190.218C200.448 190.231 200.443 190.247 200.438 190.264C200.393 190.426 200.405 190.619 200.418 190.765C200.424 190.834 200.431 190.894 200.437 190.948C200.447 191.031 200.454 191.1 200.456 191.164C200.461 191.429 200.441 191.667 200.419 191.936C200.413 192 200.408 192.066 200.403 192.134L200.402 192.136L200.402 192.138C200.342 193.063 200.274 194.002 200.2 194.935C200.166 195.135 200.133 195.332 200.094 195.535L200.094 195.536L200.094 195.538C200.04 195.835 199.983 196.133 199.926 196.433C199.71 197.568 199.489 198.723 199.451 199.905L199.451 199.906L199.451 199.907C199.43 200.74 199.505 201.577 199.81 202.326L199.834 202.384L199.881 202.426C200.526 203.001 201.23 203.518 202.069 203.873L202.069 203.873C203.611 204.524 205.404 204.547 206.992 204.465L206.993 204.465C208.488 204.383 210.072 204.205 211.526 203.725C212.129 203.531 212.944 203.105 213.573 202.541L213.62 202.498L213.644 202.439C213.769 202.123 213.856 201.772 213.892 201.368C214.036 200.09 213.497 198.57 212.855 197.537C212.831 197.497 212.808 197.458 212.784 197.418C212.724 197.32 212.665 197.222 212.608 197.123L212.596 197.102L212.581 197.083C212.38 196.843 212.176 196.614 211.976 196.389C211.568 195.931 211.173 195.487 210.838 194.987L210.838 194.986C210.383 194.31 210.081 193.585 209.87 192.787C209.766 192.375 209.699 191.947 209.631 191.504C209.623 191.445 209.621 191.341 209.619 191.184L209.618 191.162C209.616 191.003 209.612 190.81 209.593 190.619C209.575 190.431 209.541 190.228 209.471 190.052C209.401 189.878 209.279 189.69 209.059 189.606L208.99 189.579L208.917 189.591C208.899 189.594 208.878 189.597 208.856 189.601L208.855 189.601C208.833 189.604 208.81 189.608 208.788 189.612L208.786 189.612L208.783 189.612C208.648 189.637 208.476 189.683 208.319 189.768ZM200.474 190.171C200.474 190.171 200.474 190.171 200.474 190.171V190.171Z" fill="#2C2C2C"/>
<path d="M199.953 66.5696H194.736C193.35 66.5696 192.222 67.6974 192.222 69.0833V74.3007C192.222 75.6866 193.35 76.8144 194.736 76.8144H199.953C201.339 76.8144 202.467 75.6866 202.467 74.3007V69.0833C202.467 67.6974 201.346 66.5696 199.953 66.5696ZM190.836 64.3481C190.042 64.3481 189.396 64.9935 189.396 65.7884C189.396 66.5832 190.042 67.2286 190.836 67.2286C191.631 67.2286 192.277 66.5832 192.277 65.7884C192.277 64.9935 191.631 64.3481 190.836 64.3481Z" fill="white"/>
<path d="M199.587 69.6811C199.254 68.7911 198.404 68.2001 197.453 68.2001H196.04L198.832 75.279H201.828L199.587 69.6811ZM193.88 73.2477L193.065 75.279H196.04L197.426 71.7667H196.013C195.062 71.7667 194.213 72.3577 193.88 73.2477ZM194.342 69.9596C194.831 69.9596 195.232 69.5588 195.232 69.0696C195.232 68.5805 194.831 68.1797 194.342 68.1797C193.853 68.1797 193.452 68.5805 193.452 69.0696C193.452 69.5588 193.853 69.9596 194.342 69.9596Z" fill="#50BFD7"/>
<path fill-rule="evenodd" clip-rule="evenodd" d="M199.78 47.1706C196.814 45.3874 194.416 46.4463 193.633 47.1263C193.451 47.2838 193.176 47.2644 193.019 47.083C192.861 46.9016 192.881 46.6268 193.062 46.4692C194.095 45.5727 196.901 44.4246 200.229 46.4249C200.435 46.5487 200.501 46.816 200.378 47.0219C200.254 47.2278 199.986 47.2944 199.78 47.1706Z" fill="#2C2C2C"/>
<path d="M208.379 5.75483C205.46 2.16504 201.381 0 196.143 0C184.284 0 172.698 10.937 172.698 24.5698C172.698 38.2025 182.308 49.2582 194.166 49.2582C195.305 49.2582 196.408 49.1535 197.477 48.9649C197.589 49.5655 197.652 50.1801 197.652 50.8157C197.652 50.9274 197.645 51.0461 197.645 51.1579C230.323 43.2241 224.973 3.73645 208.379 5.75483Z" fill="#2C2C2C"/>
<path d="M180.876 40.9054C183.364 40.9054 185.381 38.8886 185.381 36.4007C185.381 33.9128 183.364 31.896 180.876 31.896C178.388 31.896 176.371 33.9128 176.371 36.4007C176.371 38.8886 178.388 40.9054 180.876 40.9054Z" fill="white"/>
<path fill-rule="evenodd" clip-rule="evenodd" d="M180.876 32.1754C178.542 32.1754 176.651 34.0672 176.651 36.4007C176.651 38.7343 178.542 40.6261 180.876 40.6261C183.209 40.6261 185.101 38.7343 185.101 36.4007C185.101 34.0672 183.209 32.1754 180.876 32.1754ZM176.092 36.4007C176.092 33.7586 178.234 31.6167 180.876 31.6167C183.518 31.6167 185.66 33.7586 185.66 36.4007C185.66 39.0429 183.518 41.1848 180.876 41.1848C178.234 41.1848 176.092 39.0429 176.092 36.4007Z" fill="#2C2C2C"/>
<path d="M212.597 40.9054C215.085 40.9054 217.102 38.8886 217.102 36.4007C217.102 33.9128 215.085 31.896 212.597 31.896C210.109 31.896 208.093 33.9128 208.093 36.4007C208.093 38.8886 210.109 40.9054 212.597 40.9054Z" fill="white"/>
<path fill-rule="evenodd" clip-rule="evenodd" d="M212.597 32.1754C210.264 32.1754 208.372 34.0672 208.372 36.4007C208.372 38.7343 210.264 40.6261 212.597 40.6261C214.931 40.6261 216.823 38.7343 216.823 36.4007C216.823 34.0672 214.931 32.1754 212.597 32.1754ZM207.813 36.4007C207.813 33.7586 209.955 31.6167 212.597 31.6167C215.239 31.6167 217.381 33.7586 217.381 36.4007C217.381 39.0429 215.239 41.1848 212.597 41.1848C209.955 41.1848 207.813 39.0429 207.813 36.4007Z" fill="#2C2C2C"/>
<path d="M197.163 55.1946C206.833 55.1946 214.672 44.0974 214.672 30.4083C214.672 16.7193 206.833 5.62207 197.163 5.62207C187.493 5.62207 179.654 16.7193 179.654 30.4083C179.654 44.0974 187.493 55.1946 197.163 55.1946Z" fill="white"/>
<path fill-rule="evenodd" clip-rule="evenodd" d="M185.01 13.043C181.879 17.476 179.933 23.6147 179.933 30.4084C179.933 37.2021 181.879 43.3408 185.01 47.7737C188.142 52.2074 192.443 54.9153 197.163 54.9153C201.883 54.9153 206.183 52.2074 209.315 47.7737C212.447 43.3408 214.392 37.2021 214.392 30.4084C214.392 23.6147 212.447 17.476 209.315 13.043C206.183 8.60937 201.883 5.90149 197.163 5.90149C192.443 5.90149 188.142 8.60937 185.01 13.043ZM184.554 12.7207C187.759 8.18349 192.213 5.34277 197.163 5.34277C202.113 5.34277 206.566 8.18349 209.772 12.7207C212.977 17.2586 214.951 23.513 214.951 30.4084C214.951 37.3038 212.977 43.5582 209.772 48.0961C206.566 52.6333 202.113 55.474 197.163 55.474C192.213 55.474 187.759 52.6333 184.554 48.0961C181.348 43.5582 179.374 37.3038 179.374 30.4084C179.374 23.513 181.348 17.2586 184.554 12.7207Z" fill="#2C2C2C"/>
<path d="M177.098 24.9119C177.098 24.9119 192.002 25.6383 196.967 16.6708C196.967 16.6708 207.75 26.0014 218.045 25.2751L217.074 21.1545L213.079 13.2766L210.656 10.3712L205.69 5.16113L199.027 2.37451L191.031 3.46402L180.366 10.7344L179.032 15.5813L177.098 24.9119Z" fill="#2C2C2C"/>
<path d="M197.589 40.095C197.596 40.1369 197.505 40.2138 197.302 40.2138C197.107 40.2207 196.806 40.1299 196.541 39.8785C196.408 39.7528 196.29 39.5992 196.199 39.4036C196.185 39.3757 196.178 39.3477 196.164 39.3198L196.15 39.2779L196.136 39.243L196.115 39.1801C196.108 39.1522 196.101 39.1173 196.087 39.0893C196.059 38.9846 196.038 38.8728 196.031 38.7541C195.989 38.2931 196.08 37.8252 196.192 37.3782C196.625 35.5903 197.135 34.1865 197.323 34.2285C197.512 34.2773 197.316 35.758 196.883 37.5459C196.771 37.9859 196.688 38.3839 196.688 38.7192C196.688 38.803 196.695 38.8868 196.702 38.9636L196.709 38.9916V39.0055V39.0125V39.0195C196.709 39.0195 196.702 38.9985 196.709 39.0055L196.723 39.0754L196.73 39.1103L196.737 39.1312L196.751 39.1731C196.792 39.3058 196.855 39.4315 196.925 39.5293C197.065 39.7319 197.232 39.8576 197.365 39.9274C197.491 40.0182 197.582 40.0461 197.589 40.095Z" fill="#2C2C2C"/>
<path d="M192.609 31.7214C192.609 33.7119 190.884 35.3252 188.761 35.3252C186.631 35.3252 184.913 33.7119 184.913 31.7214C184.913 29.731 186.638 28.1177 188.761 28.1177C190.877 28.1177 192.609 29.731 192.609 31.7214Z" fill="white"/>
<path fill-rule="evenodd" clip-rule="evenodd" d="M188.761 28.3971C186.774 28.3971 185.192 29.9024 185.192 31.7215C185.192 33.5409 186.768 35.0459 188.761 35.0459C190.747 35.0459 192.33 33.5406 192.33 31.7215C192.33 29.9027 190.741 28.3971 188.761 28.3971ZM184.633 31.7215C184.633 29.5597 186.501 27.8384 188.761 27.8384C191.013 27.8384 192.889 29.5594 192.889 31.7215C192.889 33.8833 191.021 35.6046 188.761 35.6046C186.494 35.6046 184.633 33.883 184.633 31.7215Z" fill="#2C2C2C"/>
<path d="M186.868 31.4977C186.868 33.1389 187.937 34.4729 189.25 34.4729C190.563 34.4729 191.631 33.1389 191.631 31.4977C191.631 29.8564 190.563 28.5225 189.25 28.5225C187.937 28.5155 186.868 29.8495 186.868 31.4977Z" fill="#50BFD7"/>
<path d="M187.56 31.498C187.56 32.6643 188.314 33.6072 189.25 33.6072C190.186 33.6072 190.94 32.6643 190.94 31.498C190.94 30.3317 190.186 29.3818 189.25 29.3818C188.314 29.3818 187.56 30.3247 187.56 31.498Z" fill="#2C2C2C"/>
<path d="M187.455 29.4932C187.455 29.8145 187.846 30.0659 188.328 30.0659C188.81 30.0659 189.201 29.8075 189.201 29.4932C189.201 29.172 188.81 28.9205 188.328 28.9205C187.846 28.9136 187.455 29.172 187.455 29.4932Z" fill="white"/>
<path d="M193.706 26.2108C193.706 26.2108 188.509 21.0287 182.922 27.1816C182.922 27.1816 187.755 24.0877 193.706 26.2108Z" fill="#2C2C2C"/>
<path d="M209.35 31.7214C209.35 33.7119 207.625 35.3252 205.502 35.3252C203.371 35.3252 201.653 33.7119 201.653 31.7214C201.653 29.731 203.378 28.1177 205.502 28.1177C207.625 28.1177 209.35 29.731 209.35 31.7214Z" fill="white"/>
<path fill-rule="evenodd" clip-rule="evenodd" d="M205.502 28.3971C203.515 28.3971 201.933 29.9024 201.933 31.7215C201.933 33.5409 203.508 35.0459 205.502 35.0459C207.488 35.0459 209.07 33.5406 209.07 31.7215C209.07 29.9024 207.488 28.3971 205.502 28.3971ZM201.374 31.7215C201.374 29.5597 203.242 27.8384 205.502 27.8384C207.761 27.8384 209.629 29.5597 209.629 31.7215C209.629 33.8833 207.761 35.6046 205.502 35.6046C203.234 35.6046 201.374 33.883 201.374 31.7215Z" fill="#2C2C2C"/>
<path d="M203.616 31.4977C203.616 33.1389 204.685 34.4729 205.998 34.4729C207.311 34.4729 208.379 33.1389 208.379 31.4977C208.379 29.8564 207.311 28.5225 205.998 28.5225C204.678 28.5155 203.616 29.8495 203.616 31.4977Z" fill="#50BFD7"/>
<path d="M204.3 31.498C204.3 32.6643 205.055 33.6072 205.99 33.6072C206.926 33.6072 207.681 32.6643 207.681 31.498C207.681 30.3317 206.926 29.3818 205.99 29.3818C205.062 29.3818 204.3 30.3247 204.3 31.498Z" fill="#2C2C2C"/>
<path d="M204.196 29.4932C204.196 29.8145 204.587 30.0659 205.069 30.0659C205.55 30.0659 205.942 29.8075 205.942 29.4932C205.942 29.172 205.55 28.9205 205.069 28.9205C204.587 28.9136 204.196 29.172 204.196 29.4932Z" fill="white"/>
<path d="M210.453 25.6454C210.453 25.6454 205.257 20.4632 199.67 26.6162C199.663 26.6162 204.496 23.5222 210.453 25.6454Z" fill="#2C2C2C"/>
<path fill-rule="evenodd" clip-rule="evenodd" d="M179.305 29.0952V29.2349H178.746V29.0952H179.305Z" fill="#2C2C2C"/>
<path fill-rule="evenodd" clip-rule="evenodd" d="M182.238 30.6318V30.7715H181.679V30.6318H182.238Z" fill="#2C2C2C"/>
<path d="M198.119 29.8079C199.076 30.0105 198.72 30.632 198.72 30.7228C198.72 30.8136 199.076 35.9818 203.693 37.3437C208.309 38.7056 211.075 36.0307 211.878 34.6898C212.681 33.3488 213.352 30.1641 213.547 29.9197C213.75 29.6752 214.706 29.2492 214.706 29.2492L214.818 27.9991L213.617 27.6429C213.617 27.6429 210.586 26.2601 206.123 26.1972C201.667 26.1274 199.146 28.6975 199.146 28.6975C197.889 28.2994 196.331 28.2435 194.907 28.6975C194.907 28.6975 192.386 26.1343 187.93 26.1972C183.474 26.267 180.436 27.6429 180.436 27.6429L179.235 27.9991L179.346 29.2492C179.346 29.2492 180.303 29.6752 180.506 29.9197C180.708 30.1641 181.372 33.3558 182.175 34.6898C182.978 36.0307 185.744 38.7056 190.36 37.3437C194.977 35.9818 195.333 30.8136 195.333 30.7228C195.333 30.632 194.977 30.0105 195.933 29.8079C196.771 29.6333 197.288 29.6333 198.119 29.8079ZM209.203 36.2751C205.683 38.3913 201.465 36.2542 200.194 33.4676C198.923 30.6809 199.991 29.2073 199.991 29.2073C202.114 25.7432 210.691 25.5966 212.164 29.34C212.416 29.9686 212.723 34.159 209.203 36.2751ZM181.889 29.34C183.362 25.5896 191.939 25.7432 194.062 29.2073C194.062 29.2073 195.13 30.6809 193.859 33.4676C192.588 36.2542 188.377 38.3913 184.85 36.2751C181.337 34.159 181.644 29.9686 181.889 29.34Z" fill="#2C2C2C"/>
<path fill-rule="evenodd" clip-rule="evenodd" d="M199.78 47.1706C196.814 45.3874 194.416 46.4463 193.633 47.1263C193.451 47.2838 193.176 47.2644 193.019 47.083C192.861 46.9016 192.881 46.6268 193.062 46.4692C194.095 45.5727 196.901 44.4246 200.229 46.4249C200.435 46.5487 200.501 46.816 200.378 47.0219C200.254 47.2278 199.986 47.2944 199.78 47.1706Z" fill="#2C2C2C"/>
<g clip-path="url(#clip0_167_16295)">
<path d="M95.7273 100.833L92.6452 103.915L98.8094 110.079L92.6452 116.243L95.7273 119.325L101.892 113.161L108.056 119.325L111.138 116.243L104.974 110.079L111.138 103.915L108.056 100.833L101.892 106.997L95.7273 100.833ZM86.481 94.6685C77.9744 103.175 77.9744 116.983 86.481 125.49C94.9876 133.996 108.795 133.996 117.302 125.49C125.809 116.983 125.809 103.175 117.302 94.6685C108.795 86.1619 94.9876 86.1619 86.481 94.6685ZM114.22 122.408C107.424 129.204 96.3592 129.204 89.5631 122.408C82.7671 115.611 82.7671 104.547 89.5631 97.7507C96.3592 90.9546 107.424 90.9546 114.22 97.7507C121.016 104.547 121.016 115.611 114.22 122.408Z" fill="#50BFD7"/>
</g>
<defs>
<clipPath id="clip0_167_16295">
<rect width="52.3052" height="52.3052" fill="white" transform="translate(66 108.985) rotate(-45)"/>
</clipPath>
</defs>
</svg>
