<svg width="274" height="205" viewBox="0 0 274 205" fill="none" xmlns="http://www.w3.org/2000/svg">
<path d="M67.2616 158.023C68.9389 159.677 70.7086 161.247 72.5632 162.727H152.519C161.336 154.871 169.682 143.595 176.995 128.009C176.995 128.009 189.946 97.2762 186.931 70.3366C183.916 43.3971 165.036 22.109 138.292 17.5749C111.548 13.0408 87.776 37.9052 57.9266 46.5251C28.0772 55.1449 6.21469 78.2467 14.0711 109.235C21.9276 140.223 43.8662 134.89 67.2616 158.023Z" fill="#50BFD7" fill-opacity="0.4"/>
<path d="M33.4878 64.3652H169.381C170.386 64.3652 171.351 64.7646 172.061 65.4755C172.772 66.1863 173.172 67.1504 173.172 68.1557V157.483H29.7009V68.1521C29.7019 67.1481 30.1012 66.1854 30.8111 65.4755C31.5211 64.7655 32.4838 64.3662 33.4878 64.3652Z" fill="white" stroke="#263238" stroke-linecap="round" stroke-linejoin="round"/>
<path d="M167.341 71.6382H35.5208V146.133H167.341V71.6382Z" stroke="#263238" stroke-linecap="round" stroke-linejoin="round"/>
<path d="M151.055 153H52.4622V157.856H151.055V153Z" fill="#263238" stroke="#263238" stroke-linecap="round" stroke-linejoin="round"/>
<path d="M151.055 155.337H52.4622V157.856H151.055V155.337Z" fill="white" stroke="#263238" stroke-linecap="round" stroke-linejoin="round"/>
<path d="M18.0974 160.733C18.0974 160.733 19.7173 162.716 24.5768 164.332H178.952C178.952 164.332 182.55 163.433 184.17 160.915L18.0974 160.733Z" fill="#263238" stroke="#263238" stroke-linecap="round" stroke-linejoin="round"/>
<path d="M183.822 157.189H18.4563C18.078 157.189 17.7714 157.496 17.7714 157.874V160.288C17.7714 160.666 18.078 160.973 18.4563 160.973H183.822C184.2 160.973 184.507 160.666 184.507 160.288V157.874C184.507 157.496 184.2 157.189 183.822 157.189Z" fill="white" stroke="#263238" stroke-linecap="round" stroke-linejoin="round"/>
<path d="M102.659 67.1807C102.66 66.9312 102.587 66.687 102.449 66.4791C102.31 66.2713 102.114 66.1091 101.883 66.0131C101.653 65.917 101.399 65.8916 101.154 65.9398C100.91 65.9881 100.685 66.1079 100.508 66.2841C100.331 66.4603 100.211 66.685 100.162 66.9297C100.113 67.1745 100.137 67.4282 100.233 67.6589C100.328 67.8895 100.49 68.0867 100.697 68.2254C100.905 68.3641 101.149 68.4382 101.398 68.4382C101.732 68.4382 102.052 68.3058 102.289 68.0701C102.525 67.8344 102.658 67.5146 102.659 67.1807Z" fill="white" stroke="#263238" stroke-linecap="round" stroke-linejoin="round"/>
<path d="M13.1002 164.332H189.58" stroke="#263238" stroke-linecap="round" stroke-linejoin="round"/>
<path d="M103.726 44.9426C104.967 43.7014 104.967 41.6892 103.726 40.4481C102.485 39.2069 100.473 39.2069 99.2314 40.4481C97.9903 41.6892 97.9903 43.7014 99.2314 44.9426C100.473 46.1837 102.485 46.1837 103.726 44.9426Z" fill="white" stroke="#263238" stroke-linecap="round" stroke-linejoin="round"/>
<path d="M101.568 17.0275V2.18066" stroke="#263238" stroke-width="2" stroke-linecap="round" stroke-linejoin="round"/>
<path d="M101.568 26.8334V17.0273" stroke="#808080" stroke-width="2" stroke-miterlimit="10"/>
<path d="M96.6437 26.8335L86.834 43.8292H116.1L106.287 26.8335H96.6437Z" fill="#50BFD7" stroke="#263238" stroke-width="0.972732" stroke-miterlimit="10"/>
<path d="M97.6293 26.8335L89.82 43.8292H113.114L105.305 26.8335H97.6293Z" fill="#263238" stroke="#263238" stroke-linecap="round" stroke-linejoin="round"/>
<path d="M74.5926 64.3652H33.4876C32.4832 64.3652 31.52 64.7642 30.8098 65.4744C30.0997 66.1846 29.7007 67.1478 29.7007 68.1521V139.933L74.5926 64.3652Z" fill="#C0E2E9" stroke="#263238" stroke-miterlimit="10"/>
<path d="M128.265 64.3652H169.37C170.374 64.3652 171.338 64.7642 172.048 65.4744C172.758 66.1846 173.157 67.1478 173.157 68.1521V140.154L128.265 64.3652Z" fill="#C0E2E9" stroke="#263238" stroke-miterlimit="10"/>
<path d="M74.5926 64.3652L29.7007 139.944" stroke="#263238" stroke-linecap="round" stroke-linejoin="round"/>
<path d="M128.265 64.3652L173.157 140.154" stroke="#263238" stroke-linecap="round" stroke-linejoin="round"/>
<path d="M35.5205 130.261V71.6387H70.1063" stroke="#263238" stroke-linecap="round" stroke-linejoin="round"/>
<path d="M132.653 71.6387H167.337V130.558" stroke="#263238" stroke-linecap="round" stroke-linejoin="round"/>
<path d="M128.265 64.3653L116.1 43.8291H86.8339L74.5926 64.3653" fill="white" fill-opacity="0.5"/>
<path d="M128.265 64.3653L116.1 43.8291H86.8339L74.5926 64.3653" stroke="#263238" stroke-miterlimit="10"/>
<path d="M9.43762 178.569H5.57373L10.7247 142.664H14.5886L9.43762 178.569Z" fill="#263238" stroke="#263238" stroke-width="1.16634" stroke-miterlimit="10"/>
<path d="M17.1655 178.569H21.0267L15.8757 142.664H12.0145L17.1655 178.569Z" fill="white" stroke="#263238" stroke-width="1.16634" stroke-miterlimit="10"/>
<path d="M64.2556 178.569H60.3944L65.5427 142.664H69.4065L64.2556 178.569Z" fill="#263238" stroke="#263238" stroke-width="1.16634" stroke-miterlimit="10"/>
<path d="M71.9835 178.569H75.8447L70.6937 142.664H66.8325L71.9835 178.569Z" fill="white" stroke="#263238" stroke-width="1.16634" stroke-miterlimit="10"/>
<path d="M74.6822 137.034H1V144.176H74.6822V137.034Z" fill="#50BFD7" stroke="#263238" stroke-width="1.16634" stroke-miterlimit="10"/>
<path d="M76.4786 137.034H2.79639V144.176H76.4786V137.034Z" fill="#50BFD7" stroke="#263238" stroke-width="1.16634" stroke-miterlimit="10"/>
<path d="M4.00208 144.176H10.2558L13.4884 137.034H7.23463L4.00208 144.176Z" fill="#263238"/>
<path d="M28.7569 137.034H22.5032L19.2706 144.176H25.5244L28.7569 137.034Z" fill="#263238"/>
<path d="M74.5604 137.034H68.3067L65.0768 144.176H71.3306L74.5604 137.034Z" fill="#263238"/>
<path d="M59.2943 137.034H53.0378L49.808 144.176H56.0617L59.2943 137.034Z" fill="#263238"/>
<path d="M44.0257 137.034H37.772L34.5394 144.176H40.7932L44.0257 137.034Z" fill="#263238"/>
<path d="M76.0749 140.201H63.8817" stroke="#263238" stroke-width="1.16634" stroke-miterlimit="10"/>
<path d="M75.861 141.396H73.9371" stroke="#263238" stroke-width="1.16634" stroke-miterlimit="10"/>
<path d="M2.48511 141.098H14.6783" stroke="#263238" stroke-width="1.16634" stroke-miterlimit="10"/>
<path d="M2.69861 139.754H18.1" stroke="#263238" stroke-width="1.16634" stroke-miterlimit="10"/>
<path d="M84.6886 140.837L74.7883 178.659H96.8683L86.968 140.837C86.9078 140.58 86.7625 140.351 86.5556 140.186C86.3487 140.022 86.0924 139.933 85.8283 139.933C85.5642 139.933 85.3079 140.022 85.101 140.186C84.8941 140.351 84.7488 140.58 84.6886 140.837Z" fill="#50BFD7" stroke="#263238" stroke-linecap="round" stroke-linejoin="round"/>
<path d="M74.7883 178.659H92.777L83.7827 144.294L74.7883 178.659Z" fill="#263238" stroke="#263238" stroke-linecap="round" stroke-linejoin="round"/>
<path d="M99.0969 177.829H71.5559C70.7553 177.829 70.1063 178.478 70.1063 179.278V179.463C70.1063 180.264 70.7553 180.912 71.5559 180.912H99.0969C99.8974 180.912 100.546 180.264 100.546 179.463V179.278C100.546 178.478 99.8974 177.829 99.0969 177.829Z" fill="#50BFD7" stroke="#263238" stroke-linecap="round" stroke-linejoin="round"/>
<path d="M89.6713 177.829H71.5559C70.7553 177.829 70.1063 178.478 70.1063 179.278V179.463C70.1063 180.264 70.7553 180.912 71.5559 180.912H89.6713C90.4719 180.912 91.1209 180.264 91.1209 179.463V179.278C91.1209 178.478 90.4719 177.829 89.6713 177.829Z" fill="#263238" stroke="#263238" stroke-linecap="round" stroke-linejoin="round"/>
<path d="M78.7383 163.573H92.9183L91.2042 157.021H80.4524L78.7383 163.573Z" fill="white" stroke="#263238" stroke-linecap="round" stroke-linejoin="round"/>
<path d="M78.7383 163.573H88.8306L87.1166 157.021H80.4524L78.7383 163.573Z" fill="#BABABA" stroke="#263238" stroke-linecap="round" stroke-linejoin="round"/>
<path d="M165.78 72.7913L157.284 91.6175L154.926 95.5972L159.911 97.7839L160.927 97.3172L176.07 74.7489L165.78 72.7913Z" fill="#2C2C2C"/>
<path d="M159.734 93.8091L146.437 78.0029L142.225 74.8644L139.085 76.2242L139.723 78.8141L153.478 98.0022L159.734 93.8091Z" fill="#2C2C2C"/>
<path d="M161.295 96.307C161.866 93.1992 161.347 90.4997 160.136 90.2774C158.925 90.0552 157.481 92.3944 156.911 95.5022C156.34 98.61 156.859 101.31 158.07 101.532C159.281 101.754 160.725 99.4148 161.295 96.307Z" fill="white"/>
<path d="M158.749 101.711C158.5 101.817 158.256 101.845 158.012 101.805C157.308 101.674 156.78 100.91 156.541 99.6541C156.315 98.4828 156.346 96.9914 156.628 95.4534C156.91 93.9155 157.408 92.5123 158.041 91.497C158.715 90.4034 159.473 89.8781 160.184 90.0063C160.888 90.1373 161.416 90.9012 161.655 92.1574C161.881 93.3287 161.85 94.8201 161.568 96.358C161.286 97.896 160.788 99.2992 160.155 100.314C159.712 101.03 159.229 101.507 158.749 101.711ZM158.118 101.255C158.576 101.339 159.146 100.886 159.688 100.015C160.277 99.0559 160.758 97.7201 161.024 96.2495C161.296 94.7763 161.328 93.3597 161.114 92.2513C160.921 91.2469 160.543 90.6229 160.085 90.5384C159.627 90.4539 159.057 90.9069 158.515 91.7785C157.926 92.7374 157.445 94.0732 157.179 95.5437C156.913 97.0143 156.875 98.4336 157.089 99.542C157.284 100.553 157.653 101.173 158.118 101.255Z" fill="#2C2C2C"/>
<path d="M158.958 96.159C160.218 93.2699 160.323 90.5276 159.191 90.0339C158.059 89.5401 156.12 91.4819 154.859 94.371C153.599 97.26 153.495 100.002 154.626 100.496C155.758 100.99 157.697 99.048 158.958 96.159Z" fill="white"/>
<path d="M155.689 100.698C155.657 100.712 155.619 100.728 155.587 100.742C155.176 100.893 154.799 100.895 154.476 100.738C153.83 100.424 153.511 99.5486 153.573 98.2551C153.629 97.0546 154.009 95.6036 154.642 94.1808C155.626 91.9524 157.037 90.2295 158.237 89.7877C158.648 89.636 159.025 89.6345 159.348 89.7915C159.994 90.1054 160.313 90.9808 160.251 92.2743C160.195 93.4747 159.816 94.9258 159.183 96.3486C158.217 98.516 156.859 100.202 155.689 100.698ZM158.343 90.3387C157.314 90.7756 156.038 92.3886 155.15 94.4022C154.546 95.7677 154.187 97.1422 154.125 98.277C154.076 99.3162 154.294 100.023 154.72 100.227C154.901 100.316 155.131 100.309 155.399 100.21C155.425 100.2 155.45 100.189 155.482 100.175C156.511 99.7383 157.787 98.1253 158.675 96.1116C159.279 94.7462 159.638 93.3717 159.7 92.2369C159.749 91.1977 159.531 90.4904 159.106 90.2866C158.924 90.1976 158.694 90.205 158.426 90.3035C158.397 90.3234 158.369 90.3279 158.343 90.3387Z" fill="#2C2C2C"/>
<path d="M136.528 71.831L139.254 69.9085C139.53 69.7113 139.913 69.778 140.104 70.0524L148.334 79.368C149.307 80.7441 148.976 82.647 147.602 83.6128L146.543 84.3614C145.166 85.3341 143.264 85.0035 142.298 83.6288L136.384 72.6805C136.187 72.4047 136.252 72.0282 136.528 71.831Z" fill="white"/>
<path d="M144.096 85.1295C143.301 84.9617 142.566 84.5086 142.064 83.7925L142.048 83.7678L136.147 72.8292C136.017 72.6386 135.966 72.4079 136.007 72.1823C136.049 71.9499 136.177 71.7429 136.37 71.6061L139.096 69.6836C139.488 69.4045 140.037 69.4921 140.323 69.8859L148.554 79.2015L148.566 79.2112C149.626 80.7121 149.266 82.7863 147.765 83.8461L146.706 84.5947C145.916 85.1447 144.972 85.3144 144.096 85.1295ZM142.533 83.487C143.415 84.7233 145.141 85.0166 146.383 84.1433L147.442 83.3947C148.685 82.5146 148.985 80.7897 148.119 79.5496L139.889 70.2272L139.877 70.2175C139.774 70.068 139.562 70.0303 139.411 70.1404L136.693 72.0575L136.535 71.8325L136.693 72.0575C136.619 72.1057 136.573 72.1883 136.556 72.2698C136.537 72.3581 136.561 72.4483 136.61 72.5155L136.627 72.5402L142.533 83.487Z" fill="#2C2C2C"/>
<path d="M141.214 75.6872C142.089 75.0701 142.659 74.1828 142.892 73.2171L140.102 70.0597C139.905 69.7839 139.528 69.7186 139.253 69.9159L136.528 71.8315C136.252 72.0288 136.187 72.4053 136.384 72.6811L138.421 76.446C139.376 76.5269 140.364 76.2814 141.214 75.6872Z" fill="#50BFD7"/>
<path d="M138.244 76.7135L136.147 72.8294C136.017 72.6388 135.966 72.4081 136.007 72.1825C136.049 71.9501 136.178 71.7431 136.37 71.6063L139.096 69.6838C139.288 69.547 139.525 69.4977 139.759 69.5329C139.985 69.5734 140.186 69.694 140.325 69.8793L143.2 73.133L143.163 73.2742C142.903 74.3404 142.265 75.2773 141.373 75.9051C140.505 76.5237 139.45 76.8121 138.397 76.7247L138.244 76.7135ZM139.678 70.0835C139.672 70.0821 139.672 70.0821 139.665 70.0807C139.576 70.062 139.486 70.0856 139.419 70.1353L136.693 72.0577C136.619 72.1059 136.573 72.1885 136.556 72.27C136.537 72.3583 136.561 72.4485 136.611 72.5157L136.627 72.5404L138.586 76.1684C139.465 76.2049 140.334 75.9554 141.051 75.4469C141.802 74.917 142.34 74.1506 142.589 73.2736L139.884 70.2192L139.872 70.2095C139.827 70.1505 139.76 70.1007 139.678 70.0835Z" fill="#2C2C2C"/>
<path d="M136.262 73.1589C136.262 73.1589 138.297 74.3761 140.362 72.2573C142.434 70.14 140.122 68.1832 140.102 66.632C140.081 65.0808 139.825 63.0682 139.128 63.0772C138.43 63.0861 137.688 65.9664 137.699 66.8204C137.71 67.6743 134.459 65.1928 133.636 64.3875C132.812 63.5821 132.572 59.7423 131.718 59.7537C130.864 59.765 130.892 65.3484 130.9 66.0879C130.908 66.8205 135.474 72.3893 136.262 73.1589Z" fill="white"/>
<path d="M136.976 73.707C136.46 73.598 136.131 73.408 136.112 73.3969L136.088 73.3776L136.065 73.3515C135.635 72.9343 134.235 71.2623 133.066 69.7738C130.623 66.6609 130.619 66.2414 130.618 66.078C130.612 65.7715 130.604 64.1592 130.702 62.6188C130.888 59.8551 131.295 59.4727 131.708 59.4675C132.39 59.4625 132.663 60.5561 133.016 61.9434C133.245 62.8432 133.498 63.8617 133.822 64.1783C134.152 64.4964 134.95 65.1544 135.777 65.7405C136.789 66.458 137.239 66.6452 137.414 66.6893C137.438 66.1761 137.625 65.2862 137.877 64.5304C138.45 62.7921 138.955 62.7852 139.119 62.7842C139.823 62.7767 140.058 63.8482 140.133 64.1976C140.275 64.8377 140.359 65.7142 140.374 66.6185C140.38 67.0598 140.612 67.577 140.859 68.1188C141.41 69.342 142.097 70.8635 140.559 72.4336C139.418 73.6049 138.276 73.8038 137.518 73.7645C137.326 73.7665 137.14 73.7414 136.976 73.707ZM136.43 72.9318C136.673 73.0611 138.38 73.8826 140.163 72.0591C141.431 70.7584 140.887 69.5367 140.354 68.3599C140.084 67.7566 139.828 67.1915 139.824 66.6372C139.814 65.7765 139.73 64.9286 139.6 64.3335C139.43 63.5596 139.217 63.3586 139.133 63.3549C139.059 63.3678 138.757 63.6587 138.395 64.7674C138.127 65.5979 137.972 66.4664 137.977 66.8151C137.979 67.0071 137.882 67.164 137.725 67.2372C137.569 67.3037 137.233 67.4458 135.552 66.2678C134.663 65.6402 133.797 64.9324 133.439 64.58C133.003 64.1547 132.747 63.1497 132.482 62.0861C132.334 61.5086 132.196 60.9542 132.039 60.5522C131.887 60.1652 131.78 60.0647 131.736 60.0411C131.655 60.1233 131.387 60.5848 131.249 62.8833C131.162 64.3408 131.178 65.8129 131.176 66.0894C131.181 66.133 131.301 66.6408 133.543 69.4983C134.782 71.0584 136.032 72.5354 136.43 72.9318Z" fill="#2C2C2C"/>
<path d="M214.933 72.7913L223.429 91.6175L225.788 95.5972L220.802 97.7839L219.786 97.3172L204.643 74.7489L214.933 72.7913Z" fill="#2C2C2C"/>
<path d="M220.979 93.8091L234.276 78.0029L238.489 74.8644L241.628 76.2242L240.99 78.8141L227.236 98.0022L220.979 93.8091Z" fill="#2C2C2C"/>
<path d="M219.418 96.307C218.848 93.1992 219.367 90.4997 220.578 90.2774C221.788 90.0552 223.232 92.3944 223.803 95.5022C224.373 98.61 223.854 101.31 222.643 101.532C221.433 101.754 219.989 99.4148 219.418 96.307Z" fill="white"/>
<path d="M221.964 101.711C222.213 101.817 222.458 101.845 222.701 101.805C223.405 101.674 223.933 100.91 224.173 99.6541C224.398 98.4828 224.368 96.9914 224.086 95.4534C223.803 93.9155 223.305 92.5123 222.673 91.497C221.998 90.4034 221.241 89.8781 220.53 90.0063C219.826 90.1373 219.298 90.9012 219.058 92.1574C218.833 93.3287 218.863 94.8201 219.146 96.358C219.428 97.896 219.926 99.2992 220.558 100.314C221.001 101.03 221.485 101.507 221.964 101.711ZM222.595 101.255C222.137 101.339 221.568 100.886 221.025 100.015C220.436 99.0559 219.955 97.7201 219.689 96.2495C219.417 94.7763 219.385 93.3597 219.599 92.2513C219.792 91.2469 220.17 90.6229 220.628 90.5384C221.087 90.4539 221.656 90.9069 222.199 91.7785C222.787 92.7374 223.269 94.0732 223.534 95.5437C223.8 97.0143 223.839 98.4336 223.624 99.542C223.429 100.553 223.06 101.173 222.595 101.255Z" fill="#2C2C2C"/>
<path d="M221.756 96.159C220.495 93.2699 220.391 90.5276 221.523 90.0339C222.654 89.5401 224.594 91.4819 225.854 94.371C227.114 97.26 227.219 100.002 226.087 100.496C224.955 100.99 223.016 99.048 221.756 96.159Z" fill="white"/>
<path d="M225.024 100.698C225.056 100.712 225.095 100.728 225.127 100.742C225.537 100.893 225.914 100.895 226.237 100.738C226.883 100.424 227.202 99.5486 227.14 98.2551C227.084 97.0546 226.705 95.6036 226.072 94.1808C225.087 91.9524 223.676 90.2295 222.476 89.7877C222.065 89.636 221.689 89.6345 221.366 89.7915C220.719 90.1054 220.4 90.9808 220.462 92.2743C220.518 93.4747 220.898 94.9258 221.531 96.3486C222.496 98.516 223.855 100.202 225.024 100.698ZM222.37 90.3387C223.399 90.7756 224.675 92.3886 225.563 94.4022C226.167 95.7677 226.527 97.1422 226.588 98.277C226.637 99.3162 226.42 100.023 225.994 100.227C225.813 100.316 225.582 100.309 225.314 100.21C225.289 100.2 225.263 100.189 225.231 100.175C224.202 99.7383 222.926 98.1253 222.039 96.1116C221.434 94.7462 221.075 93.3717 221.014 92.2369C220.965 91.1977 221.182 90.4904 221.608 90.2866C221.789 90.1976 222.02 90.205 222.287 90.3035C222.316 90.3234 222.345 90.3279 222.37 90.3387Z" fill="#2C2C2C"/>
<path d="M244.186 71.831L241.459 69.9085C241.184 69.7113 240.8 69.778 240.61 70.0524L232.379 79.368C231.406 80.7441 231.737 82.647 233.112 83.6128L234.171 84.3614C235.547 85.3341 237.45 85.0035 238.416 83.6288L244.329 72.6805C244.527 72.4047 244.461 72.0282 244.186 71.831Z" fill="white"/>
<path d="M236.618 85.1295C237.413 84.9617 238.147 84.5086 238.649 83.7925L238.665 83.7678L244.566 72.8292C244.697 72.6386 244.747 72.4079 244.707 72.1823C244.665 71.9499 244.536 71.7429 244.344 71.6061L241.618 69.6836C241.225 69.4045 240.676 69.4921 240.39 69.8859L232.159 79.2015L232.147 79.2112C231.087 80.7121 231.447 82.7863 232.948 83.8461L234.007 84.5947C234.797 85.1447 235.741 85.3144 236.618 85.1295ZM238.18 83.487C237.298 84.7233 235.572 85.0166 234.331 84.1433L233.271 83.3947C232.028 82.5146 231.728 80.7897 232.595 79.5496L240.824 70.2272L240.836 70.2175C240.94 70.068 241.152 70.0303 241.303 70.1404L244.02 72.0575L244.179 71.8325L244.02 72.0575C244.094 72.1057 244.14 72.1883 244.157 72.2698C244.176 72.3581 244.153 72.4483 244.103 72.5155L244.087 72.5402L238.18 83.487Z" fill="#2C2C2C"/>
<path d="M239.5 75.6872C238.625 75.0701 238.054 74.1828 237.822 73.2171L240.611 70.0597C240.809 69.7839 241.185 69.7186 241.461 69.9159L244.185 71.8315C244.461 72.0288 244.527 72.4053 244.329 72.6811L242.293 76.446C241.338 76.5269 240.349 76.2814 239.5 75.6872Z" fill="#50BFD7"/>
<path d="M242.47 76.7135L244.567 72.8294C244.697 72.6388 244.747 72.4081 244.707 72.1825C244.665 71.9501 244.536 71.7431 244.344 71.6063L241.618 69.6838C241.426 69.547 241.188 69.4977 240.954 69.5329C240.729 69.5734 240.527 69.694 240.389 69.8793L237.513 73.133L237.55 73.2742C237.811 74.3404 238.448 75.2773 239.34 75.9051C240.209 76.5237 241.263 76.8121 242.316 76.7247L242.47 76.7135ZM241.035 70.0835C241.042 70.0821 241.042 70.0821 241.049 70.0807C241.137 70.062 241.227 70.0856 241.294 70.1353L244.021 72.0577C244.095 72.1059 244.14 72.1885 244.158 72.27C244.176 72.3583 244.153 72.4485 244.103 72.5157L244.087 72.5404L242.128 76.1684C241.248 76.2049 240.38 75.9554 239.662 75.4469C238.912 74.917 238.374 74.1506 238.125 73.2736L240.83 70.2192L240.842 70.2095C240.886 70.1505 240.954 70.1007 241.035 70.0835Z" fill="#2C2C2C"/>
<path d="M244.451 73.1589C244.451 73.1589 242.416 74.3761 240.351 72.2573C238.279 70.14 240.591 68.1832 240.612 66.632C240.632 65.0808 240.888 63.0682 241.586 63.0772C242.283 63.0861 243.026 65.9664 243.014 66.8204C243.003 67.6743 246.254 65.1928 247.078 64.3875C247.901 63.5821 248.141 59.7423 248.995 59.7537C249.849 59.765 249.821 65.3484 249.814 66.0879C249.805 66.8205 245.24 72.3893 244.451 73.1589Z" fill="white"/>
<path d="M243.737 73.707C244.253 73.598 244.582 73.408 244.601 73.3969L244.625 73.3776L244.648 73.3515C245.078 72.9343 246.478 71.2623 247.647 69.7738C250.091 66.6609 250.095 66.2414 250.096 66.078C250.102 65.7715 250.109 64.1592 250.011 62.6188C249.825 59.8551 249.418 59.4727 249.006 59.4675C248.323 59.4625 248.05 60.5561 247.697 61.9434C247.469 62.8432 247.215 63.8617 246.892 64.1783C246.562 64.4964 245.764 65.1544 244.937 65.7405C243.924 66.458 243.474 66.6452 243.299 66.6893C243.276 66.1761 243.088 65.2862 242.836 64.5304C242.264 62.7921 241.758 62.7852 241.595 62.7842C240.891 62.7767 240.656 63.8482 240.58 64.1976C240.439 64.8377 240.354 65.7142 240.339 66.6185C240.333 67.0598 240.102 67.577 239.854 68.1188C239.303 69.342 238.617 70.8635 240.154 72.4336C241.296 73.6049 242.438 73.8038 243.196 73.7645C243.388 73.7665 243.574 73.7414 243.737 73.707ZM244.283 72.9318C244.041 73.0611 242.334 73.8826 240.551 72.0591C239.283 70.7584 239.827 69.5367 240.359 68.3599C240.629 67.7566 240.886 67.1915 240.89 66.6372C240.899 65.7765 240.983 64.9286 241.113 64.3335C241.283 63.5596 241.496 63.3586 241.581 63.3549C241.654 63.3678 241.957 63.6587 242.319 64.7674C242.586 65.5979 242.741 66.4664 242.737 66.8151C242.735 67.0071 242.832 67.164 242.989 67.2372C243.145 67.3037 243.48 67.4458 245.161 66.2678C246.051 65.6402 246.916 64.9324 247.275 64.58C247.71 64.1547 247.966 63.1497 248.231 62.0861C248.379 61.5086 248.518 60.9542 248.674 60.5522C248.826 60.1652 248.933 60.0647 248.978 60.0411C249.059 60.1233 249.327 60.5848 249.464 62.8833C249.552 64.3408 249.536 65.8129 249.537 66.0894C249.532 66.133 249.413 66.6408 247.17 69.4983C245.931 71.0584 244.682 72.5354 244.283 72.9318Z" fill="#2C2C2C"/>
<path d="M190.28 65.1881C192.53 65.1881 196.036 64.7229 196.036 63.1955L195.46 58.0993L194.953 53.6418C194.953 52.1144 193.127 50.8716 190.877 50.8716C189.753 50.8716 188.732 51.184 187.996 51.6839C187.26 52.1838 186.802 52.8781 186.802 53.6418L186.309 58.1062L185.83 62.3831C185.177 64.9659 190.28 65.1881 190.28 65.1881Z" fill="#2C2C2C"/>
<path d="M190.28 117.844C192.53 117.844 196.036 117.379 196.036 115.851L195.46 110.755L194.953 106.298C194.953 104.77 193.127 103.527 190.877 103.527C189.753 103.527 188.732 103.84 187.996 104.34C187.26 104.84 186.802 105.534 186.802 106.298L186.309 110.762L185.83 115.039C185.177 117.622 190.28 117.844 190.28 117.844Z" fill="#2C2C2C"/>
<path d="M217.823 71.8253C217.823 76.2549 214.921 78.9974 210.491 78.9974C206.061 78.9974 202.472 75.4079 202.472 70.9782C202.472 66.5485 205.818 61.6607 210.04 62.9868C214.692 64.4379 217.823 67.3956 217.823 71.8253Z" fill="white"/>
<path d="M210.491 79.2756C205.916 79.2756 202.194 75.5542 202.194 70.9787C202.194 68.0349 203.59 65.0355 205.659 63.5149C207.034 62.5082 208.575 62.2305 210.123 62.7165C215.261 64.3273 218.094 67.5627 218.094 71.8188C218.101 76.3457 215.108 79.2756 210.491 79.2756ZM208.644 63.0428C207.721 63.0428 206.818 63.3552 205.985 63.9662C204.076 65.3687 202.75 68.2501 202.75 70.9787C202.75 75.2487 206.221 78.7202 210.491 78.7202C212.602 78.7202 214.379 78.0814 215.622 76.8733C216.879 75.6583 217.545 73.9087 217.545 71.8257C217.545 67.8335 214.851 64.7855 209.964 63.2511C209.519 63.1122 209.082 63.0428 208.644 63.0428Z" fill="#2C2C2C"/>
<path d="M214.213 70.5343C214.213 73.8114 212.067 75.8388 208.79 75.8388C205.513 75.8388 202.861 73.1866 202.861 69.9094C202.861 66.6323 205.333 63.015 208.457 63.994C211.894 65.0771 214.213 67.2641 214.213 70.5343Z" fill="#2C2C2C"/>
<path d="M164.008 71.8253C164.008 76.2549 166.91 78.9974 171.34 78.9974C175.769 78.9974 179.359 75.4079 179.359 70.9782C179.359 66.5485 176.012 61.6607 171.791 62.9868C167.139 64.4379 164.008 67.3956 164.008 71.8253Z" fill="white"/>
<path d="M171.34 79.2755C166.715 79.2755 163.73 76.3525 163.73 71.8256C163.73 67.5696 166.563 64.3341 171.701 62.7233C173.249 62.2373 174.797 62.515 176.165 63.5218C178.241 65.0423 179.63 68.0417 179.63 70.9855C179.636 75.554 175.915 79.2755 171.34 79.2755ZM173.186 63.0427C172.749 63.0427 172.312 63.1121 171.874 63.251C166.986 64.7854 164.292 67.8334 164.292 71.8256C164.292 73.9085 164.959 75.6582 166.216 76.8732C167.465 78.0813 169.236 78.7201 171.346 78.7201C175.616 78.7201 179.088 75.2486 179.088 70.9786C179.088 68.25 177.755 65.3617 175.853 63.9661C175.005 63.3482 174.11 63.0427 173.186 63.0427Z" fill="#2C2C2C"/>
<path d="M167.618 70.5343C167.618 73.8114 169.764 75.8388 173.041 75.8388C176.318 75.8388 178.97 73.1866 178.97 69.9094C178.97 66.6323 176.498 63.015 173.374 63.994C169.93 65.0771 167.618 67.2641 167.618 70.5343Z" fill="#2C2C2C"/>
<path d="M196.182 59.7173H185.621C181.011 60.1339 176.602 61.0851 172.485 62.4945L180.386 103C180.956 105.93 183.525 108.048 186.51 108.048H195.439C198.431 108.048 201.007 105.923 201.57 102.979L209.325 62.4945C205.208 61.0851 200.799 60.1339 196.182 59.7173Z" fill="white"/>
<path d="M195.439 108.325H186.51C183.4 108.325 180.706 106.111 180.116 103.056L172.166 62.3069L172.395 62.2306C176.602 60.7933 181.039 59.8491 185.594 59.4395H185.621H196.196H196.21C200.764 59.8491 205.208 60.7864 209.415 62.2306L209.644 62.3069L201.84 103.035C201.257 106.097 198.563 108.325 195.439 108.325ZM172.805 62.6749L180.657 102.944C181.199 105.736 183.664 107.763 186.51 107.763H195.439C198.293 107.763 200.757 105.729 201.292 102.924L208.999 62.6749C204.902 61.2932 200.584 60.3907 196.161 59.988H185.635C181.213 60.3907 176.894 61.2932 172.805 62.6749Z" fill="#2C2C2C"/>
<path d="M177.929 60.9393C178.921 67.2158 179.914 73.4923 180.907 79.7618C181.796 84.4831 186.274 87.6283 190.947 87.656C195.619 87.6283 200.098 84.49 200.986 79.7618C201.979 73.4923 202.972 67.2227 203.965 60.9601C201.452 60.3769 198.848 59.9533 196.182 59.7173H185.621C182.983 59.9533 180.414 60.3699 177.929 60.9393Z" fill="#50BFD7"/>
<path d="M190.954 87.9336C188.572 87.9198 186.226 87.1283 184.344 85.691C182.386 84.2052 181.074 82.1154 180.636 79.8103V79.8034L177.616 60.7239L177.866 60.6684C180.386 60.0852 182.99 59.6755 185.594 59.4395H185.621H196.196H196.21C198.848 59.6755 201.479 60.099 204.034 60.6892L204.284 60.7447L201.264 79.8103C200.834 82.1154 199.514 84.1983 197.557 85.691C195.675 87.1283 193.328 87.9198 190.954 87.9336ZM181.185 79.72C181.595 81.8863 182.83 83.8512 184.677 85.2536C186.469 86.6145 188.697 87.3713 190.954 87.3782C193.21 87.3643 195.439 86.6075 197.223 85.2536C199.07 83.8512 200.306 81.8863 200.716 79.72L203.653 61.1752C201.209 60.6198 198.695 60.224 196.168 59.9949H185.635C183.143 60.2171 180.657 60.6059 178.241 61.1544L181.185 79.72Z" fill="#2C2C2C"/>
<path d="M193.453 69.222H188.121C186.704 69.222 185.552 70.3746 185.552 71.791V77.1232C185.552 78.5396 186.704 79.6921 188.121 79.6921H193.453C194.869 79.6921 196.022 78.5396 196.022 77.1232V71.791C196.022 70.3746 194.876 69.222 193.453 69.222ZM184.135 66.9517C183.323 66.9517 182.663 67.6112 182.663 68.4236C182.663 69.2359 183.323 69.8955 184.135 69.8955C184.948 69.8955 185.607 69.2359 185.607 68.4236C185.607 67.6112 184.948 66.9517 184.135 66.9517Z" fill="white"/>
<path d="M193.078 72.4016C192.738 71.4921 191.87 70.888 190.898 70.888H189.454L192.307 78.1227H195.369L193.078 72.4016ZM187.246 76.0467L186.413 78.1227H189.454L190.87 74.5331H189.426C188.454 74.5331 187.586 75.1372 187.246 76.0467ZM187.718 72.6863C188.218 72.6863 188.628 72.2766 188.628 71.7767C188.628 71.2768 188.218 70.8672 187.718 70.8672C187.218 70.8672 186.808 71.2768 186.808 71.7767C186.808 72.2766 187.218 72.6863 187.718 72.6863Z" fill="#50BFD7"/>
<path d="M196.071 56.9815H185.746C184.261 56.9815 183.039 55.7665 183.039 54.2737C183.039 52.7879 184.254 51.5659 185.746 51.5659H196.071C197.556 51.5659 198.778 52.7809 198.778 54.2737C198.771 55.7665 197.556 56.9815 196.071 56.9815Z" fill="#50BFD7"/>
<path d="M196.071 57.2591H185.746C184.101 57.2591 182.761 55.9191 182.761 54.2736C182.761 52.6281 184.101 51.2881 185.746 51.2881H196.071C197.716 51.2881 199.056 52.6281 199.056 54.2736C199.056 55.9191 197.709 57.2591 196.071 57.2591ZM185.746 51.8505C184.406 51.8505 183.316 52.9405 183.316 54.2805C183.316 55.6205 184.406 56.7106 185.746 56.7106H196.071C197.411 56.7106 198.501 55.6205 198.501 54.2805C198.501 52.9405 197.411 51.8505 196.071 51.8505H185.746Z" fill="#2C2C2C"/>
<path d="M191.481 1.97852H190.329V9.53253H191.481V1.97852Z" fill="#2C2C2C"/>
<path d="M195.626 11.1229H186.184C186.01 11.1229 185.871 10.984 185.871 10.8104V6.47796C185.871 6.30439 186.01 6.16553 186.184 6.16553H195.626C195.8 6.16553 195.939 6.30439 195.939 6.47796V10.8174C195.939 10.984 195.8 11.1229 195.626 11.1229Z" fill="#50BFD7"/>
<path d="M195.626 11.4005H186.184C185.857 11.4005 185.594 11.1366 185.594 10.8103V6.47785C185.594 6.15153 185.857 5.8877 186.184 5.8877H195.626C195.953 5.8877 196.216 6.15153 196.216 6.47785V10.8172C196.216 11.1366 195.953 11.4005 195.626 11.4005ZM186.184 6.43619C186.163 6.43619 186.149 6.45008 186.149 6.47091V10.8103C186.149 10.8311 186.163 10.845 186.184 10.845H195.626C195.647 10.845 195.661 10.8311 195.661 10.8103V6.47785C195.661 6.45702 195.647 6.44314 195.626 6.44314H186.184V6.43619Z" fill="#2C2C2C"/>
<path d="M192.384 1.47192C192.384 2.28426 191.724 2.94384 190.912 2.94384C190.1 2.94384 189.44 2.28426 189.44 1.47192C189.44 0.659588 190.1 0 190.912 0C191.717 0 192.384 0.659588 192.384 1.47192Z" fill="#2C2C2C"/>
<path d="M191.932 0.902469C191.932 1.15242 191.731 1.35377 191.481 1.35377C191.231 1.35377 191.03 1.15242 191.03 0.902469C191.03 0.65252 191.231 0.451172 191.481 0.451172C191.731 0.451172 191.932 0.65252 191.932 0.902469Z" fill="#2C2C2C"/>
<path d="M199.542 42.0749C203.453 42.0749 206.624 38.9042 206.624 34.993C206.624 31.0818 203.453 27.9111 199.542 27.9111C195.631 27.9111 192.46 31.0818 192.46 34.993C192.46 38.9042 195.631 42.0749 199.542 42.0749Z" fill="#002731"/>
<path d="M190.905 47.9833C208.114 47.9833 222.065 41.7197 222.065 33.9931C222.065 26.2666 208.114 20.0029 190.905 20.0029C173.695 20.0029 159.744 26.2666 159.744 33.9931C159.744 41.7197 173.695 47.9833 190.905 47.9833Z" fill="#2C2C2C"/>
<path d="M163.383 40.5611C163.938 41.0263 164.542 41.4776 165.209 41.9081C163.598 37.2632 162.897 32.1115 163.064 27.7026C162.557 28.1539 162.098 28.6261 161.703 29.1051C161.717 32.7433 162.265 36.7563 163.383 40.5611Z" fill="#50BFD7"/>
<path d="M220.1 29.0983C219.698 28.6192 219.239 28.1471 218.733 27.6958C218.996 32.1463 218.101 37.3883 216.323 42.0956C217.011 41.6582 217.65 41.2069 218.226 40.7348C219.469 36.8467 220.121 32.7712 220.1 29.0983Z" fill="#50BFD7"/>
<path d="M197.265 54.3225H184.552C174.269 54.3225 165.938 45.9909 165.938 35.7083V32.8825C165.938 19.6907 176.63 9.00537 189.815 9.00537H191.988C205.18 9.00537 215.865 19.6976 215.865 32.8825V35.7083C215.872 45.9909 207.54 54.3225 197.265 54.3225Z" fill="white"/>
<path d="M197.265 54.6001H184.552C179.504 54.6001 174.762 52.6353 171.194 49.0666C167.625 45.4978 165.66 40.7557 165.66 35.7082V32.8823C165.66 26.4323 168.173 20.3641 172.735 15.8025C177.296 11.2409 183.365 8.72754 189.815 8.72754H191.988C198.438 8.72754 204.506 11.2409 209.068 15.8025C213.629 20.3641 216.143 26.4323 216.143 32.8823V35.7082C216.143 40.7557 214.178 45.4978 210.609 49.0666C207.047 52.6353 202.305 54.6001 197.265 54.6001ZM189.822 9.28298C183.517 9.28298 177.588 11.7408 173.131 16.1982C168.673 20.6557 166.215 26.585 166.215 32.8893V35.7151C166.215 40.6099 168.125 45.2132 171.582 48.6777C175.047 52.1423 179.65 54.0447 184.545 54.0447H197.258C202.152 54.0447 206.756 52.1354 210.22 48.6777C213.685 45.2132 215.587 40.6099 215.587 35.7151V32.8893C215.587 26.585 213.129 20.6557 208.672 16.1982C204.215 11.7408 198.285 9.28298 191.981 9.28298H189.822Z" fill="#2C2C2C"/>
<path d="M185.76 43.7549C185.92 45.0046 186.531 46.1572 187.475 46.9903C188.419 47.8235 189.641 48.2887 190.905 48.2887C192.169 48.2887 193.384 47.8304 194.335 46.9903C195.279 46.1572 195.89 45.0046 196.05 43.7549H185.76Z" fill="white"/>
<path d="M190.905 23.9121C198.549 23.9121 205.478 21.607 210.561 17.8716C206.18 12.463 199.493 9.00537 191.988 9.00537H189.815C182.316 9.00537 175.623 12.463 171.242 17.8716C176.331 21.607 183.261 23.9121 190.905 23.9121Z" fill="#2C2C2C"/>
<path d="M190.905 12.5454C183.261 12.5454 176.331 14.8505 171.249 18.5858C175.63 23.9945 182.316 27.4521 189.822 27.4521H191.995C199.493 27.4521 206.186 23.9945 210.567 18.5858C205.478 14.8505 198.549 12.5454 190.905 12.5454Z" fill="#50BFD7"/>
<path d="M191.995 27.7371H189.822C182.497 27.7371 175.651 24.467 171.034 18.7667L170.853 18.5376L171.09 18.364C176.429 14.4343 183.469 12.2681 190.912 12.2681C198.348 12.2681 205.388 14.4343 210.734 18.364L210.97 18.5376L210.79 18.7667C206.166 24.467 199.32 27.7371 191.995 27.7371ZM171.652 18.6418C176.158 24.0712 182.761 27.1817 189.822 27.1817H191.995C199.056 27.1817 205.659 24.0712 210.165 18.6418C204.944 14.8856 198.119 12.8235 190.912 12.8235C183.691 12.8235 176.866 14.8856 171.652 18.6418Z" fill="#2C2C2C"/>
<path d="M208.269 39.1101C207.61 39.5059 206.867 39.7142 206.11 39.7142H175.707C174.95 39.7142 174.207 39.5059 173.547 39.1101C171.923 38.1381 170.999 36.1663 171.228 34.1458L171.242 34C172.02 27.1612 177.137 21.9053 183.406 21.5095C186.059 21.3429 188.843 21.2526 191.745 21.2735C194.022 21.2874 196.216 21.3707 198.334 21.5026C204.631 21.8983 209.783 27.1334 210.561 34C210.567 34.0486 210.574 34.0972 210.574 34.1458C210.817 36.1663 209.894 38.1381 208.269 39.1101Z" fill="white"/>
<path d="M206.103 39.992H175.707C174.901 39.992 174.11 39.7698 173.402 39.3463C171.666 38.3118 170.708 36.2566 170.951 34.1112L170.965 33.9654C171.756 26.9877 176.984 21.6277 183.386 21.225C186.156 21.0514 188.968 20.975 191.745 20.9889C193.939 21.0028 196.161 21.0792 198.348 21.218C204.791 21.6207 210.04 26.9807 210.831 33.9585L210.845 34.1043C211.088 36.2427 210.13 38.2979 208.394 39.3393C207.707 39.7698 206.909 39.992 206.103 39.992ZM190.919 21.5513C188.426 21.5513 185.913 21.6277 183.427 21.7874C177.297 22.1762 172.284 27.3279 171.52 34.0349L171.506 34.1807C171.284 36.1039 172.145 37.9507 173.693 38.8742C174.311 39.2421 175.012 39.4365 175.714 39.4365H206.117C206.818 39.4365 207.52 39.2421 208.138 38.8742C209.686 37.9507 210.54 36.1039 210.325 34.1807L210.311 34.0349C209.547 27.321 204.513 22.1692 198.341 21.7874C196.161 21.6485 193.946 21.5721 191.766 21.5582C191.467 21.5513 191.197 21.5513 190.919 21.5513Z" fill="#2C2C2C"/>
<path d="M186.01 30.9104C186.01 33.5348 183.726 35.6733 180.921 35.6733C178.109 35.6733 175.832 33.5418 175.832 30.9104C175.832 28.279 178.109 26.1475 180.921 26.1475C183.733 26.1475 186.01 28.279 186.01 30.9104Z" fill="white"/>
<path d="M180.921 35.9509C177.963 35.9509 175.554 33.6875 175.554 30.9103C175.554 28.1331 177.963 25.8696 180.921 25.8696C183.879 25.8696 186.288 28.1331 186.288 30.9103C186.288 33.6875 183.886 35.9509 180.921 35.9509ZM180.921 26.4251C178.269 26.4251 176.109 28.4386 176.109 30.9103C176.109 33.382 178.269 35.3955 180.921 35.3955C183.573 35.3955 185.732 33.382 185.732 30.9103C185.732 28.4386 183.573 26.4251 180.921 26.4251Z" fill="#2C2C2C"/>
<path d="M178.428 30.612C178.428 32.7852 179.838 34.5417 181.574 34.5417C183.316 34.5417 184.726 32.7782 184.726 30.612C184.726 28.4388 183.316 26.6753 181.574 26.6753C179.838 26.6753 178.428 28.4388 178.428 30.612Z" fill="#50BFD7"/>
<path d="M179.338 30.612C179.338 32.1534 180.338 33.4031 181.574 33.4031C182.809 33.4031 183.809 32.1534 183.809 30.612C183.809 29.0637 182.809 27.814 181.574 27.814C180.338 27.814 179.338 29.0637 179.338 30.612Z" fill="#2C2C2C"/>
<path d="M179.199 27.9664C179.199 28.3899 179.72 28.7301 180.352 28.7301C180.99 28.7301 181.504 28.3899 181.504 27.9664C181.504 27.5428 180.99 27.2026 180.352 27.2026C179.713 27.2026 179.199 27.5428 179.199 27.9664Z" fill="white"/>
<path d="M205.451 30.9104C205.451 33.5348 203.166 35.6733 200.361 35.6733C197.55 35.6733 195.272 33.5418 195.272 30.9104C195.272 28.279 197.55 26.1475 200.361 26.1475C203.166 26.1475 205.451 28.279 205.451 30.9104Z" fill="white"/>
<path d="M200.361 35.9509C197.404 35.9509 194.994 33.6875 194.994 30.9103C194.994 28.1331 197.404 25.8696 200.361 25.8696C203.319 25.8696 205.728 28.1331 205.728 30.9103C205.728 33.6875 203.319 35.9509 200.361 35.9509ZM200.361 26.4251C197.709 26.4251 195.55 28.4386 195.55 30.9103C195.55 33.382 197.709 35.3955 200.361 35.3955C203.014 35.3955 205.173 33.382 205.173 30.9103C205.173 28.4386 203.014 26.4251 200.361 26.4251Z" fill="#2C2C2C"/>
<path d="M197.869 30.612C197.869 32.7852 199.278 34.5417 201.014 34.5417C202.757 34.5417 204.166 32.7782 204.166 30.612C204.166 28.4388 202.757 26.6753 201.014 26.6753C199.278 26.6753 197.869 28.4388 197.869 30.612Z" fill="#50BFD7"/>
<path d="M198.778 30.612C198.778 32.1534 199.778 33.4031 201.014 33.4031C202.25 33.4031 203.25 32.1534 203.25 30.612C203.25 29.0637 202.25 27.814 201.014 27.814C199.778 27.814 198.778 29.0637 198.778 30.612Z" fill="#2C2C2C"/>
<path d="M198.633 27.9664C198.633 28.3899 199.153 28.7301 199.785 28.7301C200.424 28.7301 200.938 28.3899 200.938 27.9664C200.938 27.5428 200.424 27.2026 199.785 27.2026C199.153 27.2026 198.633 27.5428 198.633 27.9664Z" fill="white"/>
<path d="M180.983 166.362H188.017L190.655 117.532H178.345L180.983 166.362Z" fill="#2C2C2C"/>
<path d="M194.14 166.362H201.174L203.812 117.532H191.502L194.14 166.362Z" fill="#2C2C2C"/>
<path d="M182.761 186.788H186.732L188.225 167.056H181.268L182.761 186.788Z" fill="#2C2C2C"/>
<path d="M195.668 186.788H199.639L201.132 167.056H194.175L195.668 186.788Z" fill="#2C2C2C"/>
<path d="M184.76 168.174C187.398 168.174 189.537 167.09 189.537 165.751C189.537 164.413 187.398 163.328 184.76 163.328C182.122 163.328 179.983 164.413 179.983 165.751C179.983 167.09 182.122 168.174 184.76 168.174Z" fill="white"/>
<path d="M184.76 168.445C181.927 168.445 179.706 167.258 179.706 165.744C179.706 164.231 181.927 163.043 184.76 163.043C187.593 163.043 189.815 164.231 189.815 165.744C189.815 167.258 187.593 168.445 184.76 168.445ZM184.76 163.606C182.323 163.606 180.261 164.585 180.261 165.751C180.261 166.918 182.323 167.897 184.76 167.897C187.197 167.897 189.259 166.918 189.259 165.751C189.259 164.585 187.197 163.606 184.76 163.606Z" fill="#2C2C2C"/>
<path d="M197.806 168.174C200.444 168.174 202.583 167.09 202.583 165.751C202.583 164.413 200.444 163.328 197.806 163.328C195.168 163.328 193.03 164.413 193.03 165.751C193.03 167.09 195.168 168.174 197.806 168.174Z" fill="white"/>
<path d="M197.806 168.445C194.974 168.445 192.752 167.258 192.752 165.744C192.752 164.231 194.974 163.043 197.806 163.043C200.639 163.043 202.861 164.231 202.861 165.744C202.861 167.258 200.646 168.445 197.806 168.445ZM197.806 163.606C195.369 163.606 193.307 164.585 193.307 165.751C193.307 166.918 195.369 167.897 197.806 167.897C200.243 167.897 202.305 166.918 202.305 165.751C202.305 164.585 200.25 163.606 197.806 163.606Z" fill="#2C2C2C"/>
<path d="M193.349 109.763H190.905H188.461C181.185 109.763 175.068 113.922 177.456 117.476C179.65 120.74 185.684 125.725 190.912 125.801C196.14 125.732 202.174 120.747 204.368 117.476C206.742 113.922 200.632 109.763 193.349 109.763Z" fill="#50BFD7"/>
<path d="M190.905 126.079C187.857 126.037 184.858 124.419 182.886 123.065C180.588 121.496 178.421 119.413 177.227 117.629C176.519 116.574 176.463 115.407 177.081 114.262C177.776 112.963 179.289 111.762 181.337 110.88C183.441 109.978 185.968 109.485 188.468 109.485H193.356C195.848 109.485 198.383 109.978 200.486 110.88C202.541 111.762 204.055 112.963 204.742 114.262C205.353 115.407 205.305 116.574 204.597 117.629C203.402 119.413 201.229 121.496 198.938 123.065C196.952 124.412 193.953 126.037 190.905 126.079ZM188.461 110.04C186.038 110.04 183.587 110.519 181.553 111.394C179.616 112.227 178.199 113.338 177.567 114.526C177.054 115.491 177.088 116.435 177.685 117.324C179.907 120.628 185.892 125.454 190.905 125.523C195.925 125.454 201.91 120.628 204.124 117.324C204.722 116.435 204.763 115.491 204.242 114.526C203.611 113.338 202.194 112.227 200.257 111.394C198.223 110.519 195.772 110.04 193.349 110.04H188.461Z" fill="#2C2C2C"/>
<path d="M199.306 198.265H195.994C195.661 198.265 195.39 197.995 195.39 197.661L194.043 185.379C194.043 183.706 195.397 182.352 197.07 182.352H198.362C200.035 182.352 201.389 183.706 201.389 185.379L199.917 197.661C199.917 197.995 199.646 198.265 199.306 198.265Z" fill="white"/>
<path d="M199.306 198.543H195.994C195.515 198.543 195.119 198.154 195.112 197.675L193.765 185.393V185.379C193.765 183.553 195.251 182.074 197.07 182.074H198.362C200.188 182.074 201.667 183.56 201.667 185.379V185.414L200.195 197.682C200.181 198.154 199.792 198.543 199.306 198.543ZM194.314 185.365L195.661 197.647V197.661C195.661 197.842 195.807 197.988 195.987 197.988H199.306C199.486 197.988 199.632 197.842 199.632 197.661V197.627L201.104 185.358C201.097 183.845 199.861 182.623 198.355 182.623H197.063C195.557 182.623 194.321 183.852 194.314 185.365Z" fill="#2C2C2C"/>
<path d="M195.633 202.529C195.265 202.258 194.96 201.911 194.724 201.522C194.488 201.126 194.335 200.696 194.272 200.238C194.21 199.786 194.231 199.321 194.342 198.877C194.453 198.433 194.654 198.016 194.925 197.648L195.14 197.384C195.571 196.912 196.119 196.572 196.73 196.391C197.341 196.211 197.987 196.204 198.605 196.364C199.223 196.523 199.778 196.856 200.222 197.315C200.667 197.773 200.972 198.342 201.111 198.967C201.25 199.585 201.215 200.238 201.014 200.835C200.813 201.439 200.445 201.973 199.959 202.383C199.473 202.793 198.882 203.064 198.251 203.161C197.619 203.258 196.98 203.182 196.39 202.946C196.119 202.841 195.869 202.696 195.633 202.529Z" fill="white"/>
<path d="M197.709 203.487C197.223 203.487 196.737 203.39 196.286 203.209C195.994 203.091 195.723 202.938 195.467 202.751C195.071 202.452 194.738 202.084 194.481 201.661C194.224 201.237 194.064 200.765 193.988 200.279C193.918 199.786 193.939 199.293 194.064 198.814C194.189 198.335 194.397 197.884 194.696 197.488L194.703 197.481L194.932 197.203C195.397 196.697 195.987 196.329 196.647 196.134C197.306 195.94 198.008 195.933 198.674 196.106C199.341 196.28 199.945 196.634 200.417 197.134C200.896 197.627 201.229 198.245 201.375 198.918C201.528 199.592 201.493 200.286 201.271 200.939C201.049 201.591 200.66 202.168 200.132 202.612C199.605 203.056 198.973 203.348 198.292 203.452C198.105 203.473 197.91 203.487 197.709 203.487ZM195.793 202.306C196.008 202.466 196.244 202.598 196.494 202.695C197.036 202.917 197.633 202.987 198.209 202.897C198.785 202.806 199.334 202.556 199.778 202.182C200.223 201.807 200.563 201.314 200.75 200.758C200.938 200.203 200.965 199.606 200.84 199.036C200.709 198.467 200.431 197.939 200.021 197.516C199.612 197.092 199.098 196.794 198.535 196.641C197.966 196.488 197.369 196.502 196.807 196.662C196.244 196.828 195.744 197.141 195.348 197.571L195.14 197.821C194.89 198.161 194.71 198.536 194.606 198.946C194.501 199.356 194.481 199.779 194.543 200.196C194.606 200.612 194.744 201.008 194.96 201.376C195.175 201.737 195.46 202.05 195.793 202.306Z" fill="#2C2C2C"/>
<path d="M191.981 202.779C191.599 203.737 192.287 204.723 193.196 204.723H202.222C203.139 204.723 203.819 203.737 203.437 202.779C202.34 200.008 200.188 198.134 197.709 198.134C195.237 198.134 193.085 200.008 191.981 202.779Z" fill="#50BFD7"/>
<path d="M202.222 205H193.196C192.682 205 192.189 204.736 191.891 204.292C191.571 203.82 191.509 203.216 191.724 202.674C192.904 199.703 195.203 197.856 197.709 197.856C200.222 197.856 202.514 199.703 203.694 202.674C203.909 203.216 203.847 203.82 203.527 204.292C203.229 204.736 202.743 205 202.222 205ZM192.245 202.883C192.099 203.258 192.134 203.66 192.356 203.98C192.557 204.271 192.87 204.445 193.203 204.445H202.229C202.562 204.445 202.882 204.271 203.076 203.98C203.298 203.653 203.333 203.258 203.187 202.883C202.09 200.126 199.993 198.411 197.716 198.411C195.432 198.411 193.335 200.119 192.245 202.883Z" fill="#2C2C2C"/>
<path d="M186.357 198.265H183.039C182.705 198.265 182.435 197.995 182.435 197.661L181.088 185.379C181.088 183.706 182.442 182.352 184.115 182.352H185.406C187.079 182.352 188.433 183.706 188.433 185.379L186.961 197.661C186.961 197.995 186.691 198.265 186.357 198.265Z" fill="white"/>
<path d="M186.357 198.543H183.039C182.56 198.543 182.164 198.154 182.157 197.675L180.81 185.393V185.379C180.81 183.553 182.296 182.074 184.115 182.074H185.406C187.232 182.074 188.711 183.56 188.711 185.379V185.414L187.239 197.682C187.232 198.154 186.836 198.543 186.357 198.543ZM181.365 185.365L182.712 197.647V197.661C182.712 197.842 182.858 197.988 183.039 197.988H186.357C186.538 197.988 186.684 197.842 186.684 197.661V197.627L188.156 185.358C188.149 183.845 186.913 182.623 185.406 182.623H184.115C182.601 182.623 181.372 183.852 181.365 185.365Z" fill="#2C2C2C"/>
<path d="M182.678 202.529C182.31 202.258 182.004 201.911 181.768 201.522C181.532 201.126 181.379 200.696 181.317 200.238C181.254 199.786 181.275 199.321 181.386 198.877C181.497 198.433 181.699 198.016 181.969 197.648L182.185 197.384C182.615 196.912 183.164 196.572 183.775 196.391C184.386 196.211 185.031 196.204 185.649 196.364C186.267 196.523 186.823 196.856 187.267 197.315C187.711 197.773 188.017 198.342 188.156 198.967C188.294 199.585 188.26 200.238 188.058 200.835C187.857 201.439 187.489 201.973 187.003 202.383C186.517 202.793 185.927 203.064 185.295 203.161C184.663 203.258 184.024 203.182 183.434 202.946C183.171 202.841 182.914 202.696 182.678 202.529Z" fill="white"/>
<path d="M184.761 203.487C184.275 203.487 183.789 203.39 183.337 203.209C183.046 203.091 182.775 202.938 182.518 202.751C182.122 202.452 181.789 202.084 181.532 201.661C181.275 201.237 181.115 200.765 181.039 200.279C180.97 199.786 180.991 199.293 181.115 198.814C181.24 198.335 181.449 197.884 181.747 197.488L181.754 197.481L181.983 197.203C182.449 196.697 183.039 196.329 183.698 196.134C184.358 195.94 185.059 195.933 185.726 196.106C186.392 196.28 186.996 196.634 187.468 197.134C187.947 197.627 188.281 198.245 188.427 198.918C188.579 199.592 188.545 200.286 188.322 200.939C188.1 201.591 187.711 202.168 187.184 202.612C186.656 203.056 186.024 203.348 185.344 203.452C185.149 203.473 184.955 203.487 184.761 203.487ZM182.844 202.306C183.06 202.466 183.296 202.598 183.546 202.695C184.087 202.917 184.684 202.987 185.26 202.897C185.837 202.806 186.385 202.556 186.83 202.182C187.274 201.807 187.614 201.314 187.802 200.758C187.989 200.203 188.017 199.606 187.892 199.036C187.76 198.467 187.482 197.939 187.073 197.516C186.663 197.092 186.149 196.794 185.587 196.641C185.017 196.488 184.42 196.502 183.858 196.662C183.296 196.828 182.796 197.141 182.4 197.571L182.192 197.821C181.942 198.161 181.761 198.536 181.657 198.946C181.553 199.356 181.532 199.779 181.595 200.196C181.657 200.612 181.796 201.008 182.011 201.376C182.226 201.737 182.504 202.05 182.844 202.306Z" fill="#2C2C2C"/>
<path d="M179.033 202.779C178.651 203.737 179.338 204.723 180.248 204.723H189.273C190.19 204.723 190.87 203.737 190.489 202.779C189.392 200.008 187.239 198.134 184.761 198.134C182.282 198.134 180.13 200.008 179.033 202.779Z" fill="#50BFD7"/>
<path d="M189.273 205H180.247C179.734 205 179.241 204.736 178.942 204.292C178.623 203.82 178.56 203.216 178.776 202.674C179.956 199.703 182.254 197.856 184.76 197.856C187.274 197.856 189.565 199.703 190.745 202.674C190.961 203.216 190.898 203.82 190.579 204.292C190.28 204.736 189.787 205 189.273 205ZM179.289 202.883C179.144 203.258 179.178 203.66 179.4 203.98C179.602 204.271 179.914 204.445 180.247 204.445H189.273C189.607 204.445 189.926 204.271 190.12 203.98C190.343 203.653 190.377 203.258 190.232 202.883C189.135 200.126 187.038 198.411 184.76 198.411C182.483 198.411 180.386 200.119 179.289 202.883Z" fill="#2C2C2C"/>
<path fill-rule="evenodd" clip-rule="evenodd" d="M193.872 46.6251C191.117 44.9694 188.89 45.9526 188.163 46.5839C187.995 46.7302 187.74 46.7122 187.594 46.5437C187.447 46.3753 187.465 46.1201 187.634 45.9738C188.592 45.1414 191.198 44.0753 194.288 45.9326C194.479 46.0476 194.541 46.2958 194.426 46.487C194.311 46.6782 194.063 46.7401 193.872 46.6251Z" fill="#2C2C2C"/>
<g clip-path="url(#clip0_167_15955)">
<path d="M95.7274 100.833L92.6453 103.915L98.8095 110.079L92.6453 116.243L95.7274 119.325L101.892 113.161L108.056 119.325L111.138 116.243L104.974 110.079L111.138 103.915L108.056 100.833L101.892 106.997L95.7274 100.833ZM86.4811 94.6685C77.9744 103.175 77.9744 116.983 86.4811 125.49C94.9877 133.996 108.796 133.996 117.302 125.49C125.809 116.983 125.809 103.175 117.302 94.6685C108.796 86.1619 94.9877 86.1619 86.4811 94.6685ZM114.22 122.408C107.424 129.204 96.3592 129.204 89.5632 122.408C82.7671 115.611 82.7671 104.547 89.5632 97.7507C96.3592 90.9546 107.424 90.9546 114.22 97.7507C121.016 104.547 121.016 115.611 114.22 122.408Z" fill="#50BFD7"/>
</g>
<defs>
<clipPath id="clip0_167_15955">
<rect width="52.3052" height="52.3052" fill="white" transform="translate(66 108.985) rotate(-45)"/>
</clipPath>
</defs>
</svg>
