<svg width="249" height="205" viewBox="0 0 249 205" fill="none" xmlns="http://www.w3.org/2000/svg">
<path d="M67.2617 158.023C68.939 159.678 70.7087 161.248 72.5633 162.727H152.519C161.336 154.871 169.682 143.595 176.995 128.01C176.995 128.01 189.946 97.2765 186.931 70.3369C183.916 43.3973 165.036 22.1092 138.292 17.5751C111.548 13.041 87.7761 37.9055 57.9267 46.5253C28.0773 55.1452 6.21475 78.2469 14.0712 109.235C21.9276 140.223 43.8663 134.891 67.2617 158.023Z" fill="#50BFD7" fill-opacity="0.4"/>
<path d="M33.4878 64.3657H169.381C170.386 64.3657 171.351 64.7651 172.061 65.4759C172.772 66.1868 173.172 67.1509 173.172 68.1562V157.483H29.7009V68.1526C29.7019 67.1486 30.1012 66.1859 30.8111 65.4759C31.5211 64.766 32.4838 64.3667 33.4878 64.3657V64.3657Z" fill="white" stroke="#263238" stroke-linecap="round" stroke-linejoin="round"/>
<path d="M167.341 71.6387H35.5208V146.134H167.341V71.6387Z" stroke="#263238" stroke-linecap="round" stroke-linejoin="round"/>
<path d="M151.055 153.001H52.4622V157.857H151.055V153.001Z" fill="#263238" stroke="#263238" stroke-linecap="round" stroke-linejoin="round"/>
<path d="M151.055 155.338H52.4622V157.857H151.055V155.338Z" fill="white" stroke="#263238" stroke-linecap="round" stroke-linejoin="round"/>
<path d="M18.0974 160.734C18.0974 160.734 19.7173 162.716 24.5768 164.332H178.952C178.952 164.332 182.55 163.434 184.17 160.915L18.0974 160.734Z" fill="#263238" stroke="#263238" stroke-linecap="round" stroke-linejoin="round"/>
<path d="M183.822 157.19H18.4562C18.0779 157.19 17.7713 157.497 17.7713 157.875V160.288C17.7713 160.667 18.0779 160.973 18.4562 160.973H183.822C184.2 160.973 184.507 160.667 184.507 160.288V157.875C184.507 157.497 184.2 157.19 183.822 157.19Z" fill="white" stroke="#263238" stroke-linecap="round" stroke-linejoin="round"/>
<path d="M102.659 67.1812C102.66 66.9316 102.587 66.6875 102.449 66.4796C102.31 66.2717 102.114 66.1095 101.883 66.0135C101.653 65.9175 101.399 65.892 101.154 65.9403C100.91 65.9885 100.685 66.1084 100.508 66.2846C100.331 66.4608 100.211 66.6855 100.162 66.9302C100.113 67.175 100.137 67.4287 100.233 67.6594C100.328 67.89 100.49 68.0872 100.697 68.2259C100.905 68.3646 101.149 68.4387 101.398 68.4387C101.732 68.4387 102.052 68.3063 102.289 68.0706C102.525 67.8349 102.658 67.5151 102.659 67.1812V67.1812Z" fill="white" stroke="#263238" stroke-linecap="round" stroke-linejoin="round"/>
<path d="M13.1002 164.332H189.58" stroke="#263238" stroke-linecap="round" stroke-linejoin="round"/>
<path d="M103.726 44.9431C104.967 43.7019 104.967 41.6897 103.726 40.4486C102.485 39.2074 100.473 39.2074 99.2314 40.4485C97.9903 41.6897 97.9903 43.7019 99.2314 44.9431C100.473 46.1842 102.485 46.1842 103.726 44.9431Z" fill="white" stroke="#263238" stroke-linecap="round" stroke-linejoin="round"/>
<path d="M101.568 17.0277V2.18091" stroke="#263238" stroke-width="2" stroke-linecap="round" stroke-linejoin="round"/>
<path d="M101.568 26.8337V17.0276" stroke="#808080" stroke-width="2" stroke-miterlimit="10"/>
<path d="M96.6437 26.8337L86.834 43.8295H116.1L106.287 26.8337H96.6437Z" fill="#50BFD7" stroke="#263238" stroke-width="0.972732" stroke-miterlimit="10"/>
<path d="M97.6293 26.8337L89.82 43.8295H113.114L105.305 26.8337H97.6293Z" fill="#263238" stroke="#263238" stroke-linecap="round" stroke-linejoin="round"/>
<path d="M74.5926 64.3657H33.4876C32.4833 64.3657 31.5201 64.7647 30.8099 65.4749C30.0997 66.1851 29.7007 67.1483 29.7007 68.1526V139.933L74.5926 64.3657Z" fill="#C0E2E9" stroke="#263238" stroke-miterlimit="10"/>
<path d="M128.265 64.3657H169.37C170.374 64.3657 171.338 64.7647 172.048 65.4749C172.758 66.1851 173.157 67.1483 173.157 68.1526V140.154L128.265 64.3657Z" fill="#C0E2E9" stroke="#263238" stroke-miterlimit="10"/>
<path d="M74.5926 64.3657L29.7007 139.944" stroke="#263238" stroke-linecap="round" stroke-linejoin="round"/>
<path d="M128.265 64.3657L173.157 140.154" stroke="#263238" stroke-linecap="round" stroke-linejoin="round"/>
<path d="M35.5206 130.261V71.6387H70.1064" stroke="#263238" stroke-linecap="round" stroke-linejoin="round"/>
<path d="M132.654 71.6387H167.337V130.558" stroke="#263238" stroke-linecap="round" stroke-linejoin="round"/>
<path d="M128.265 64.3655L116.1 43.8293H86.8339L74.5927 64.3655" fill="white" fill-opacity="0.5"/>
<path d="M128.265 64.3655L116.1 43.8293H86.8339L74.5927 64.3655" stroke="#263238" stroke-miterlimit="10"/>
<path d="M88.6204 106.936V99.4846C88.6204 94.2105 93.0039 89.9196 98.3907 89.9196C103.777 89.9196 108.161 94.2105 108.161 99.4846V106.936H112.056V99.4846C112.056 92.1084 105.926 86.1057 98.3907 86.1057C90.8555 86.1057 84.7256 92.1084 84.7256 99.4846V106.936H88.6204Z" fill="#50BFD7" stroke="#263238" stroke-width="1.16634" stroke-linecap="round" stroke-linejoin="round"/>
<path d="M113.114 106.988H83.2798V131.667H113.114V106.988Z" fill="#50BFD7" stroke="#263238" stroke-width="1.16634" stroke-linecap="round" stroke-linejoin="round"/>
<path d="M101.299 117.238C101.274 116.393 100.921 115.591 100.314 115.003C99.708 114.414 98.896 114.085 98.0509 114.085C97.2057 114.085 96.3938 114.414 95.7873 115.003C95.1808 115.591 94.8275 116.393 94.8023 117.238C94.8058 117.816 94.9664 118.381 95.267 118.874C95.5675 119.367 95.9966 119.769 96.5083 120.037L95.9618 125.641H100.14L99.5935 120.037C100.105 119.769 100.534 119.367 100.835 118.874C101.135 118.381 101.296 117.816 101.299 117.238V117.238Z" fill="white" stroke="#263238" stroke-width="1.16634" stroke-linecap="round" stroke-linejoin="round"/>
<path d="M9.43762 178.569H5.57373L10.7247 142.665H14.5886L9.43762 178.569Z" fill="#263238" stroke="#263238" stroke-width="1.16634" stroke-miterlimit="10"/>
<path d="M17.1655 178.569H21.0267L15.8758 142.665H12.0146L17.1655 178.569Z" fill="white" stroke="#263238" stroke-width="1.16634" stroke-miterlimit="10"/>
<path d="M64.2556 178.569H60.3944L65.5427 142.665H69.4065L64.2556 178.569Z" fill="#263238" stroke="#263238" stroke-width="1.16634" stroke-miterlimit="10"/>
<path d="M71.9835 178.569H75.8447L70.6937 142.665H66.8325L71.9835 178.569Z" fill="white" stroke="#263238" stroke-width="1.16634" stroke-miterlimit="10"/>
<path d="M74.6822 137.034H1V144.176H74.6822V137.034Z" fill="#50BFD7" stroke="#263238" stroke-width="1.16634" stroke-miterlimit="10"/>
<path d="M76.4787 137.034H2.79645V144.176H76.4787V137.034Z" fill="#50BFD7" stroke="#263238" stroke-width="1.16634" stroke-miterlimit="10"/>
<path d="M4.00208 144.176H10.2558L13.4884 137.034H7.23463L4.00208 144.176Z" fill="#263238"/>
<path d="M28.7569 137.034H22.5032L19.2706 144.176H25.5244L28.7569 137.034Z" fill="#263238"/>
<path d="M74.5604 137.034H68.3067L65.0768 144.176H71.3306L74.5604 137.034Z" fill="#263238"/>
<path d="M59.2943 137.034H53.0378L49.808 144.176H56.0617L59.2943 137.034Z" fill="#263238"/>
<path d="M44.0257 137.034H37.772L34.5394 144.176H40.7932L44.0257 137.034Z" fill="#263238"/>
<path d="M76.0749 140.201H63.8817" stroke="#263238" stroke-width="1.16634" stroke-miterlimit="10"/>
<path d="M75.861 141.396H73.9371" stroke="#263238" stroke-width="1.16634" stroke-miterlimit="10"/>
<path d="M2.48505 141.098H14.6783" stroke="#263238" stroke-width="1.16634" stroke-miterlimit="10"/>
<path d="M2.69867 139.754H18.1" stroke="#263238" stroke-width="1.16634" stroke-miterlimit="10"/>
<path d="M84.6886 140.837L74.7883 178.659H96.8683L86.968 140.837C86.9078 140.58 86.7625 140.351 86.5556 140.186C86.3487 140.022 86.0924 139.933 85.8283 139.933C85.5642 139.933 85.3079 140.022 85.101 140.186C84.8941 140.351 84.7488 140.58 84.6886 140.837V140.837Z" fill="#50BFD7" stroke="#263238" stroke-linecap="round" stroke-linejoin="round"/>
<path d="M74.7883 178.659H92.777L83.7827 144.294L74.7883 178.659Z" fill="#263238" stroke="#263238" stroke-linecap="round" stroke-linejoin="round"/>
<path d="M99.0969 177.829H71.5559C70.7553 177.829 70.1063 178.478 70.1063 179.278V179.463C70.1063 180.264 70.7553 180.913 71.5559 180.913H99.0969C99.8974 180.913 100.546 180.264 100.546 179.463V179.278C100.546 178.478 99.8974 177.829 99.0969 177.829Z" fill="#50BFD7" stroke="#263238" stroke-linecap="round" stroke-linejoin="round"/>
<path d="M89.6713 177.829H71.5559C70.7553 177.829 70.1063 178.478 70.1063 179.278V179.463C70.1063 180.264 70.7553 180.913 71.5559 180.913H89.6713C90.4719 180.913 91.1209 180.264 91.1209 179.463V179.278C91.1209 178.478 90.4719 177.829 89.6713 177.829Z" fill="#263238" stroke="#263238" stroke-linecap="round" stroke-linejoin="round"/>
<path d="M78.7383 163.573H92.9183L91.2042 157.021H80.4524L78.7383 163.573Z" fill="white" stroke="#263238" stroke-linecap="round" stroke-linejoin="round"/>
<path d="M78.7383 163.573H88.8306L87.1166 157.021H80.4524L78.7383 163.573Z" fill="#BABABA" stroke="#263238" stroke-linecap="round" stroke-linejoin="round"/>
<path d="M162.443 24.6118C161.361 29.0671 163.796 45.268 167.787 51.3974C167.787 51.3974 179.355 58.8903 215.484 54.6375C215.484 54.6375 209.639 52.7744 215.112 31.4095C215.227 30.9505 215.349 30.4914 215.477 30.0122C216.221 27.2445 210.776 22.499 209.795 20.8316C202.726 8.86322 162.443 24.6118 162.443 24.6118Z" fill="#2C2C2C"/>
<path d="M197.686 103.686C197.686 103.686 191.653 104.395 190.388 104.395C190.374 104.395 190.361 104.395 190.347 104.395C190.34 104.395 190.333 104.395 190.327 104.395C190.32 104.395 190.313 104.395 190.306 104.395C190.293 104.395 190.279 104.395 190.266 104.395C188.994 104.395 182.967 103.686 182.967 103.686C174.924 106.217 175.499 117.929 175.506 118.26C175.56 120.676 175.594 123.1 175.654 125.517C175.797 131.207 177.251 148.252 177.623 153.672C177.657 154.118 177.677 154.489 177.691 154.766C178.299 166.93 178.901 179.094 179.51 191.258C179.564 192.325 179.618 193.398 179.673 194.465C179.673 194.465 182.5 196.22 188.047 194.465L188.094 154.955L189.637 125.598C189.637 125.598 189.921 125.557 190.259 125.523C190.279 125.523 190.3 125.53 190.327 125.53V125.537C190.333 125.537 190.34 125.537 190.347 125.537C190.354 125.537 190.361 125.537 190.367 125.537V125.53C190.388 125.53 190.408 125.523 190.435 125.523C190.773 125.557 191.057 125.598 191.057 125.598L192.6 154.955L192.647 194.465C198.194 196.22 201.021 194.465 201.021 194.465C201.076 193.398 201.13 192.325 201.184 191.258C201.793 179.094 202.388 166.93 203.003 154.766C203.017 154.489 203.037 154.118 203.071 153.672C203.436 148.259 204.897 131.207 205.04 125.517C205.1 123.1 205.134 120.676 205.188 118.26C205.155 117.929 205.723 106.217 197.686 103.686Z" fill="#2C2C2C"/>
<path d="M150.43 79.9431C150.43 79.9431 148.798 78.7316 148.506 77.5251C148.209 76.3159 147.975 75.7357 146.006 73.5644C144.055 71.4013 143.713 69.5864 143.713 69.5864C143.713 69.5864 141.307 70.3756 144.23 73.8454C146.019 75.9724 138.582 72.4224 136.435 71.1495C136.435 71.1495 134.805 71.2737 136.493 73.2959C138.181 75.3181 136.062 74.4581 139.526 78.1939C142.981 81.933 147.633 85.1749 149.838 83.0638C152.037 80.95 150.43 79.9431 150.43 79.9431Z" fill="white"/>
<path fill-rule="evenodd" clip-rule="evenodd" d="M143.713 69.5865L143.629 69.3299L143.922 69.2337L143.979 69.5358L143.979 69.5359L143.979 69.5363L143.98 69.5381C143.98 69.5405 143.981 69.5445 143.982 69.5503C143.985 69.5618 143.989 69.5799 143.995 69.6044C144.007 69.6534 144.026 69.7277 144.056 69.8246C144.115 70.0182 144.215 70.3017 144.374 70.6525C144.693 71.3537 145.252 72.3243 146.207 73.3833C147.192 74.4702 147.758 75.1745 148.115 75.7662C148.477 76.368 148.618 76.8459 148.769 77.4605L148.769 77.4611L148.769 77.4616C148.897 77.9892 149.332 78.5492 149.771 78.9976C149.986 79.2167 150.192 79.3998 150.345 79.5282C150.421 79.5923 150.484 79.6424 150.527 79.6762C150.548 79.6931 150.565 79.706 150.576 79.7144C150.58 79.7175 150.584 79.72 150.586 79.7219C150.589 79.7235 150.591 79.7255 150.595 79.7276C150.597 79.7295 150.6 79.7316 150.604 79.7339C150.619 79.7448 150.64 79.7599 150.664 79.7795C150.713 79.8185 150.778 79.8756 150.847 79.9514C150.985 80.1025 151.145 80.3333 151.222 80.6461C151.381 81.2931 151.161 82.1665 150.026 83.2583L150.025 83.2587C149.407 83.8512 148.62 84.0589 147.76 83.9885C146.908 83.9187 145.974 83.5764 145.021 83.06C143.115 82.0267 141.065 80.2585 139.327 78.3772C137.593 76.5067 137.211 75.7424 137.079 75.1622C137.056 75.0601 137.041 74.9617 137.027 74.8757C137.023 74.8471 137.018 74.8199 137.014 74.7943C136.996 74.6876 136.976 74.5895 136.937 74.4793C136.859 74.2593 136.696 73.962 136.285 73.469C135.852 72.95 135.611 72.5293 135.512 72.1818C135.41 71.8245 135.455 71.5323 135.609 71.3111C135.753 71.1019 135.966 70.9975 136.119 70.9451C136.198 70.918 136.269 70.9022 136.321 70.893C136.347 70.8883 136.369 70.8853 136.385 70.8834C136.393 70.8824 136.399 70.8817 136.404 70.8812C136.407 70.8809 136.409 70.8808 136.411 70.8806L136.413 70.8804L136.414 70.8803L136.414 70.8803C136.415 70.8803 136.415 70.8803 136.435 71.1496L136.415 70.8803L136.5 70.8738L136.573 70.9173C137.634 71.5463 140.018 72.7463 141.911 73.5226C142.868 73.9148 143.663 74.1834 144.099 74.2321C144.132 74.2358 144.161 74.2379 144.186 74.2389C144.152 74.1826 144.099 74.1099 144.023 74.0193C142.543 72.2629 142.333 71.093 142.622 70.3205C142.764 69.941 143.016 69.6941 143.226 69.5442C143.331 69.4691 143.428 69.4169 143.5 69.383C143.536 69.366 143.566 69.3534 143.588 69.3448C143.599 69.3404 143.609 69.3371 143.615 69.3346C143.619 69.3334 143.622 69.3324 143.624 69.3316L143.627 69.3306L143.628 69.3302L143.629 69.33C143.629 69.3299 143.629 69.3299 143.713 69.5865ZM136.381 71.4316C136.356 71.4373 136.326 71.4453 136.294 71.4561C136.194 71.4902 136.105 71.5432 136.054 71.6179C136.01 71.6804 135.965 71.7985 136.032 72.0332C136.102 72.2777 136.29 72.6309 136.701 73.123C137.133 73.641 137.339 73.9946 137.447 74.2988C137.501 74.4507 137.527 74.5831 137.548 74.7044C137.554 74.7402 137.559 74.7735 137.564 74.8056C137.577 74.8864 137.588 74.9593 137.607 75.0426C137.704 75.4718 137.995 76.1454 139.724 78.0103L139.725 78.0106C141.441 79.8684 143.445 81.5907 145.28 82.5852C146.198 83.0829 147.057 83.3889 147.805 83.4501C148.545 83.5107 149.167 83.332 149.651 82.8691C150.714 81.8471 150.791 81.1603 150.696 80.7754C150.646 80.5722 150.542 80.4192 150.447 80.3154C150.4 80.2638 150.356 80.2257 150.326 80.2014C150.311 80.1893 150.299 80.1808 150.292 80.1758C150.288 80.1733 150.286 80.1718 150.285 80.1711C150.285 80.1708 150.284 80.1707 150.285 80.1708L150.277 80.1662L150.269 80.1599L150.43 79.9431C150.269 80.1599 150.269 80.1599 150.269 80.1598L150.268 80.1597L150.267 80.1585L150.263 80.1554C150.259 80.1527 150.254 80.1489 150.248 80.1439C150.235 80.134 150.216 80.1196 150.192 80.1011C150.145 80.0639 150.078 80.01 149.996 79.9417C149.834 79.8052 149.614 79.6101 149.384 79.3755C148.934 78.9167 148.408 78.268 148.243 77.5893C148.097 76.9949 147.972 76.5782 147.651 76.0449C147.324 75.5015 146.788 74.8301 145.805 73.7458L145.805 73.7453C144.809 72.6414 144.221 71.6231 143.882 70.8762C143.712 70.5036 143.605 70.1987 143.539 69.9845C143.39 70.0911 143.223 70.2582 143.129 70.5091C142.946 70.9987 142.994 71.9582 144.438 73.6714L144.438 73.6716C144.556 73.8125 144.648 73.9432 144.705 74.0632C144.759 74.1749 144.806 74.3275 144.752 74.4813C144.692 74.6546 144.542 74.7296 144.422 74.7582C144.305 74.7863 144.17 74.7837 144.038 74.769C143.516 74.7105 142.653 74.4109 141.705 74.0223C139.839 73.257 137.504 72.0866 136.381 71.4316ZM136.457 71.4188C136.457 71.4188 136.457 71.4188 136.457 71.4188L136.457 71.4188Z" fill="#2C2C2C"/>
<path d="M175.484 69.8076C175.484 69.8076 170.306 97.1139 167.767 98.6544C165.724 99.8965 159.113 94.2055 150.397 86.5275C149.438 85.6314 148.282 84.2624 148.282 84.2624L150.232 76.9131L152.401 79.1897L162.703 87.7735C162.703 87.7735 167.019 65.5012 171.098 65.0966C175.185 64.6851 175.484 69.8076 175.484 69.8076Z" fill="#2C2C2C"/>
<path d="M230.311 79.943C230.311 79.943 231.943 78.7316 232.235 77.5251C232.532 76.3159 232.766 75.7357 234.735 73.5644C236.686 71.4013 237.028 69.5864 237.028 69.5864C237.028 69.5864 239.434 70.3756 236.511 73.8454C234.722 75.9724 242.159 72.4224 244.306 71.1495C244.306 71.1495 245.936 71.2737 244.248 73.2959C242.56 75.3181 244.679 74.4581 241.215 78.1939C237.76 81.933 233.108 85.1749 230.903 83.0638C228.704 80.95 230.311 79.943 230.311 79.943Z" fill="white"/>
<path fill-rule="evenodd" clip-rule="evenodd" d="M237.028 69.5865L237.112 69.3299L236.819 69.2337L236.762 69.5358L236.762 69.5359L236.762 69.5363L236.761 69.5381C236.761 69.5405 236.76 69.5445 236.759 69.5503C236.756 69.5618 236.752 69.5799 236.746 69.6044C236.734 69.6534 236.715 69.7277 236.685 69.8246C236.626 70.0182 236.526 70.3017 236.367 70.6525C236.048 71.3537 235.489 72.3243 234.534 73.3833C233.549 74.4702 232.983 75.1745 232.626 75.7662C232.264 76.368 232.123 76.8459 231.972 77.4605L231.972 77.4611L231.972 77.4616C231.844 77.9892 231.409 78.5492 230.97 78.9976C230.755 79.2167 230.549 79.3998 230.396 79.5282C230.32 79.5923 230.257 79.6424 230.214 79.6762C230.193 79.6931 230.176 79.706 230.165 79.7144C230.161 79.7175 230.158 79.72 230.155 79.7219C230.153 79.7235 230.15 79.7255 230.146 79.7276C230.144 79.7295 230.141 79.7316 230.137 79.734C230.122 79.7448 230.101 79.7599 230.077 79.7795C230.028 79.8185 229.963 79.8756 229.894 79.9514C229.756 80.1025 229.596 80.3333 229.52 80.6461C229.36 81.2931 229.58 82.1665 230.715 83.2583L230.716 83.2587C231.334 83.8512 232.121 84.0589 232.981 83.9885C233.833 83.9188 234.767 83.5764 235.72 83.06C237.626 82.0267 239.676 80.2585 241.414 78.3772C243.148 76.5067 243.53 75.7424 243.662 75.1622C243.685 75.0601 243.7 74.9617 243.714 74.8757C243.718 74.8471 243.723 74.8199 243.727 74.7943C243.745 74.6876 243.765 74.5895 243.804 74.4793C243.882 74.2593 244.045 73.962 244.456 73.469C244.889 72.95 245.13 72.5293 245.229 72.1818C245.331 71.8245 245.286 71.5323 245.132 71.3111C244.988 71.1019 244.775 70.9975 244.622 70.9451C244.543 70.918 244.472 70.9022 244.42 70.893C244.394 70.8883 244.372 70.8853 244.356 70.8834C244.348 70.8824 244.342 70.8817 244.337 70.8812C244.334 70.881 244.332 70.8808 244.33 70.8806L244.328 70.8804L244.327 70.8803L244.327 70.8803C244.326 70.8803 244.326 70.8803 244.306 71.1496L244.326 70.8803L244.241 70.8738L244.168 70.9173C243.107 71.5463 240.723 72.7463 238.83 73.5226C237.873 73.9148 237.078 74.1834 236.642 74.2321C236.609 74.2358 236.58 74.2379 236.555 74.2389C236.589 74.1826 236.642 74.1099 236.718 74.0193C238.198 72.2629 238.408 71.093 238.119 70.3205C237.977 69.941 237.725 69.6941 237.515 69.5442C237.41 69.4691 237.313 69.4169 237.241 69.383C237.205 69.366 237.175 69.3534 237.153 69.3448C237.142 69.3404 237.132 69.3371 237.126 69.3346C237.122 69.3334 237.119 69.3324 237.117 69.3316L237.114 69.3306L237.113 69.3302L237.112 69.33C237.112 69.3299 237.112 69.3299 237.028 69.5865ZM244.36 71.4316C244.385 71.4373 244.415 71.4453 244.447 71.4561C244.547 71.4902 244.636 71.5432 244.687 71.6179C244.731 71.6804 244.776 71.7985 244.709 72.0332C244.639 72.2777 244.451 72.6309 244.04 73.123C243.608 73.641 243.402 73.9946 243.294 74.2988C243.24 74.4507 243.214 74.5831 243.193 74.7044C243.187 74.7402 243.182 74.7735 243.177 74.8056C243.164 74.8864 243.153 74.9593 243.134 75.0426C243.037 75.4718 242.746 76.1454 241.017 78.0103L241.016 78.0106C239.3 79.8684 237.296 81.5907 235.461 82.5852C234.543 83.0829 233.684 83.3889 232.936 83.4501C232.196 83.5107 231.574 83.332 231.09 82.8691C230.027 81.8471 229.95 81.1603 230.045 80.7754C230.095 80.5722 230.199 80.4192 230.294 80.3154C230.341 80.2638 230.385 80.2257 230.415 80.2014C230.43 80.1893 230.442 80.1808 230.449 80.1758C230.453 80.1733 230.455 80.1718 230.456 80.1711C230.456 80.1708 230.457 80.1707 230.456 80.1708L230.464 80.1662L230.472 80.1599L230.311 79.9431C230.472 80.1599 230.472 80.1599 230.472 80.1598L230.473 80.1597L230.474 80.1585L230.478 80.1554C230.482 80.1527 230.487 80.1489 230.493 80.1439C230.506 80.134 230.525 80.1196 230.549 80.1011C230.596 80.0639 230.663 80.01 230.745 79.9417C230.907 79.8052 231.127 79.6101 231.357 79.3755C231.807 78.9167 232.333 78.268 232.498 77.5893C232.644 76.9949 232.769 76.5782 233.09 76.0449C233.417 75.5015 233.953 74.8301 234.936 73.7458L234.936 73.7453C235.932 72.6414 236.52 71.6231 236.859 70.8762C237.029 70.5036 237.136 70.1987 237.202 69.9845C237.351 70.0911 237.518 70.2582 237.612 70.5091C237.795 70.9987 237.747 71.9582 236.304 73.6714L236.303 73.6716C236.185 73.8125 236.093 73.9432 236.036 74.0632C235.982 74.1749 235.935 74.3275 235.989 74.4813C236.049 74.6546 236.199 74.7296 236.319 74.7582C236.436 74.7863 236.571 74.7837 236.703 74.769C237.225 74.7105 238.088 74.4109 239.036 74.0223C240.902 73.257 243.237 72.0866 244.36 71.4316ZM244.284 71.4188C244.284 71.4188 244.284 71.4188 244.284 71.4188L244.284 71.4188Z" fill="#2C2C2C"/>
<path d="M205.257 69.8074C205.257 69.8074 210.435 97.1137 212.974 98.6542C215.017 99.8962 221.628 94.2052 230.344 86.5273C231.303 85.6312 232.459 84.2622 232.459 84.2622L230.509 76.9128L228.341 79.1895L218.038 87.7733C218.038 87.7733 213.722 65.5009 209.643 65.0964C205.556 64.6849 205.257 69.8074 205.257 69.8074Z" fill="#2C2C2C"/>
<path d="M216.012 69.9811C216.012 74.2878 213.184 76.9542 208.868 76.9542C204.552 76.9542 201.055 73.4643 201.055 69.1575C201.055 64.8508 204.316 60.0985 208.428 61.3879C212.961 62.7987 216.012 65.6743 216.012 69.9811Z" fill="white"/>
<path fill-rule="evenodd" clip-rule="evenodd" d="M203.406 63.3487C202.12 64.863 201.326 67.0651 201.326 69.1575C201.326 73.3151 204.702 76.6842 208.868 76.6842C210.97 76.6842 212.683 76.0358 213.87 74.8887C215.055 73.7427 215.741 72.0737 215.741 69.9811C215.741 65.8388 212.819 63.0373 208.348 61.6456L208.347 61.6454C206.425 61.0428 204.688 61.8392 203.406 63.3487ZM208.509 61.1301C206.319 60.4436 204.37 61.3786 202.993 62.9996C201.621 64.6158 200.785 66.9432 200.785 69.1575C200.785 73.6134 204.403 77.2242 208.868 77.2242C211.082 77.2242 212.94 76.5394 214.246 75.2766C215.554 74.0127 216.282 72.1951 216.282 69.9811C216.282 65.5099 213.103 62.5601 208.509 61.1301Z" fill="#2C2C2C"/>
<path d="M212.501 68.7257C212.501 71.9119 210.411 73.883 207.218 73.883C204.025 73.883 201.441 71.3044 201.441 68.1182C201.441 64.932 203.849 61.4151 206.9 62.3669C210.241 63.42 212.501 65.5463 212.501 68.7257Z" fill="#2C2C2C"/>
<path d="M163.587 69.9811C163.587 74.2878 166.414 76.9542 170.73 76.9542C175.046 76.9542 178.536 73.4575 178.536 69.1576C178.536 64.8576 175.276 60.0986 171.163 61.3879C166.637 62.7987 163.587 65.6744 163.587 69.9811Z" fill="white"/>
<path fill-rule="evenodd" clip-rule="evenodd" d="M176.598 63.0024C177.971 64.6194 178.807 66.9468 178.807 69.1578C178.807 73.6064 175.195 77.2245 170.73 77.2245C168.516 77.2245 166.658 76.5397 165.351 75.2769C164.044 74.013 163.316 72.1954 163.316 69.9813C163.316 65.5103 166.495 62.5604 171.082 61.1304C173.272 60.4438 175.222 61.3807 176.598 63.0024ZM176.185 63.3515C174.903 61.841 173.166 61.0431 171.244 61.6457L171.243 61.6458C166.779 63.0375 163.857 65.8389 163.857 69.9813C163.857 72.074 164.543 73.7429 165.728 74.889C166.915 76.0361 168.628 76.6844 170.73 76.6844C174.896 76.6844 178.265 73.3091 178.265 69.1578C178.265 67.0688 177.471 64.8666 176.185 63.3515Z" fill="#2C2C2C"/>
<path d="M167.104 68.7257C167.104 71.9119 169.194 73.883 172.387 73.883C175.58 73.883 178.164 71.3044 178.164 68.1182C178.164 64.932 175.756 61.4151 172.712 62.3669C169.357 63.42 167.104 65.5463 167.104 68.7257Z" fill="#2C2C2C"/>
<path d="M199.635 104.536C194.751 104.091 189.928 103.908 189.928 103.908C188.155 103.962 184.381 104.118 180.484 104.536C181.621 108.411 185.476 111.266 190.056 111.266C194.642 111.273 198.498 108.404 199.635 104.536Z" fill="#50BFD7"/>
<path d="M199.236 104.941C199.655 103.294 208.05 61.3204 208.05 61.3204C208.05 61.3204 185.646 54.7185 171.318 61.3204L180.505 105.306L199.236 104.941Z" fill="white"/>
<path fill-rule="evenodd" clip-rule="evenodd" d="M208.126 61.0614C208.126 61.0614 208.126 61.0615 208.05 61.3204C208.315 61.3733 208.315 61.3734 208.315 61.3738L208.315 61.3752L208.221 61.8451C208.159 62.1529 208.069 62.6046 207.954 63.1801C207.723 64.331 207.394 65.9771 206.997 67.9575C206.203 71.9183 205.141 77.2166 204.065 82.5664C201.916 93.2581 199.71 104.175 199.498 105.008L199.447 105.207L180.286 105.58L171.01 61.1653L171.205 61.0753C178.438 57.7424 187.682 57.7498 195.087 58.5764C198.795 58.9903 202.053 59.6111 204.384 60.1285C205.55 60.3872 206.484 60.6201 207.128 60.7885C207.449 60.8727 207.699 60.9407 207.867 60.9878C207.952 61.0114 208.016 61.0297 208.06 61.0422C208.082 61.0484 208.098 61.0532 208.109 61.0564L208.122 61.0601L208.125 61.0611L208.126 61.0614ZM208.05 61.3204L208.315 61.3733L208.363 61.1313L208.126 61.0615L208.05 61.3204ZM207.736 61.5118C207.731 61.5105 207.726 61.5092 207.722 61.5079C207.556 61.4616 207.309 61.3943 206.99 61.3108C206.353 61.144 205.425 60.9127 204.267 60.6556C201.949 60.1414 198.711 59.5244 195.027 59.1131C187.715 58.2968 178.693 58.2965 171.627 61.4765L180.724 105.032L199.02 104.676C199.403 102.96 201.491 92.6261 203.535 82.4601C204.61 77.1105 205.673 71.8124 206.466 67.8516C206.863 65.8713 207.193 64.2252 207.423 63.0743C207.538 62.4989 207.628 62.0472 207.69 61.7393L207.736 61.5118Z" fill="black"/>
<path d="M199.236 104.941C199.655 103.294 208.05 61.3204 208.05 61.3204C208.05 61.3204 185.646 54.7185 171.318 61.3204L180.505 105.306L199.236 104.941Z" fill="white"/>
<path fill-rule="evenodd" clip-rule="evenodd" d="M208.126 61.0614C208.126 61.0614 208.126 61.0615 208.05 61.3204C208.315 61.3733 208.315 61.3734 208.315 61.3738L208.315 61.3752L208.221 61.8451C208.159 62.1529 208.069 62.6046 207.954 63.1801C207.723 64.331 207.394 65.9771 206.997 67.9575C206.203 71.9183 205.141 77.2166 204.065 82.5664C201.916 93.2581 199.71 104.175 199.498 105.008L199.447 105.207L180.286 105.58L171.01 61.1653L171.205 61.0753C178.438 57.7424 187.682 57.7498 195.087 58.5764C198.795 58.9903 202.053 59.6111 204.384 60.1285C205.55 60.3872 206.484 60.6201 207.128 60.7885C207.449 60.8727 207.699 60.9407 207.867 60.9878C207.952 61.0114 208.016 61.0297 208.06 61.0422C208.082 61.0484 208.098 61.0532 208.109 61.0564L208.122 61.0601L208.125 61.0611L208.126 61.0614ZM208.05 61.3204L208.315 61.3733L208.363 61.1313L208.126 61.0615L208.05 61.3204ZM207.736 61.5118C207.731 61.5105 207.726 61.5092 207.722 61.5079C207.556 61.4616 207.309 61.3943 206.99 61.3108C206.353 61.144 205.425 60.9127 204.267 60.6556C201.949 60.1414 198.711 59.5244 195.027 59.1131C187.715 58.2968 178.693 58.2965 171.627 61.4765L180.724 105.032L199.02 104.676C199.403 102.96 201.491 92.6261 203.535 82.4601C204.61 77.1105 205.673 71.8124 206.466 67.8516C206.863 65.8713 207.193 64.2252 207.423 63.0743C207.538 62.4989 207.628 62.0472 207.69 61.7393L207.736 61.5118Z" fill="#2C2C2C"/>
<path d="M202.611 60.0311C196.354 58.7756 185.774 57.3445 176.683 59.5046C177.758 66.2752 178.834 73.0526 179.909 79.8232C180.775 84.4135 185.138 87.4714 189.691 87.4984C194.243 87.4714 198.606 84.4202 199.472 79.8232C200.514 73.2214 201.562 66.6263 202.611 60.0311Z" fill="#50BFD7"/>
<path fill-rule="evenodd" clip-rule="evenodd" d="M176.62 59.2419C185.771 57.0676 196.399 58.5091 202.664 59.7664L202.919 59.8175L202.878 60.0776C201.829 66.6714 200.781 73.2649 199.74 79.8652L199.739 79.8691L199.738 79.8731C198.845 84.6175 194.353 87.7407 189.692 87.7684L189.691 87.7684L189.689 87.7684C185.029 87.7407 180.537 84.6106 179.643 79.8731L179.643 79.8693L179.642 79.8655C179.104 76.4805 178.567 73.0938 178.029 69.7072L178.029 69.7061C177.491 66.3191 176.953 62.9321 176.415 59.5468L176.376 59.2998L176.62 59.2419ZM176.989 59.7102C177.514 63.0126 178.039 66.3166 178.563 69.6206L178.563 69.6216C179.101 73.0073 179.638 76.393 180.176 79.777C181.016 84.2175 185.248 87.2013 189.691 87.2283C194.134 87.2013 198.366 84.2241 199.206 79.7773C200.234 73.2621 201.268 66.7534 202.303 60.2451C196.083 59.0156 185.844 57.6748 176.989 59.7102Z" fill="#2C2C2C"/>
<path d="M188.913 62.4274C191.05 62.4274 194.372 61.7794 194.372 59.653L193.824 52.5516L193.344 46.3413C193.344 44.2082 191.612 42.4868 189.481 42.4868C188.412 42.4868 187.452 42.9188 186.748 43.6141C186.052 44.3094 185.612 45.2747 185.612 46.3413L185.138 52.5584L184.685 58.519C184.076 62.1169 188.913 62.4274 188.913 62.4274Z" fill="#2C2C2C"/>
<path d="M201.414 6.2981C198.214 2.36938 193.743 0 188.006 0C175.012 0 162.308 11.9549 162.308 26.8665C162.308 41.7781 172.84 53.868 185.835 53.868C187.087 53.868 188.297 53.76 189.461 53.544C189.583 54.1988 189.65 54.8738 189.65 55.5624C189.65 55.6906 189.643 55.8121 189.643 55.9336C225.468 47.2796 219.604 4.09073 201.414 6.2981Z" fill="#2C2C2C"/>
<path d="M173.476 41.9265C175.886 41.9265 177.839 39.9771 177.839 37.5725C177.839 35.1679 175.886 33.2185 173.476 33.2185C171.067 33.2185 169.113 35.1679 169.113 37.5725C169.113 39.9771 171.067 41.9265 173.476 41.9265Z" fill="white"/>
<path fill-rule="evenodd" clip-rule="evenodd" d="M173.476 33.4888C171.216 33.4888 169.384 35.3172 169.384 37.5727C169.384 39.8283 171.216 41.6567 173.476 41.6567C175.736 41.6567 177.569 39.8283 177.569 37.5727C177.569 35.3172 175.736 33.4888 173.476 33.4888ZM168.843 37.5727C168.843 35.019 170.917 32.9487 173.476 32.9487C176.035 32.9487 178.11 35.019 178.11 37.5727C178.11 40.1265 176.035 42.1967 173.476 42.1967C170.917 42.1967 168.843 40.1265 168.843 37.5727Z" fill="#2C2C2C"/>
<path d="M204.201 41.9265C206.61 41.9265 208.564 39.9771 208.564 37.5725C208.564 35.1679 206.61 33.2185 204.201 33.2185C201.791 33.2185 199.838 35.1679 199.838 37.5725C199.838 39.9771 201.791 41.9265 204.201 41.9265Z" fill="white"/>
<path fill-rule="evenodd" clip-rule="evenodd" d="M204.201 33.4888C201.94 33.4888 200.108 35.3172 200.108 37.5727C200.108 39.8283 201.94 41.6567 204.201 41.6567C206.461 41.6567 208.293 39.8283 208.293 37.5727C208.293 35.3172 206.461 33.4888 204.201 33.4888ZM199.567 37.5727C199.567 35.019 201.642 32.9487 204.201 32.9487C206.76 32.9487 208.834 35.019 208.834 37.5727C208.834 40.1265 206.76 42.1967 204.201 42.1967C201.642 42.1967 199.567 40.1265 199.567 37.5727Z" fill="#2C2C2C"/>
<path d="M189.251 55.7379C198.617 55.7379 206.21 45.012 206.21 31.7808C206.21 18.5497 198.617 7.82373 189.251 7.82373C179.885 7.82373 172.292 18.5497 172.292 31.7808C172.292 45.012 179.885 55.7379 189.251 55.7379Z" fill="white"/>
<path fill-rule="evenodd" clip-rule="evenodd" d="M177.48 14.9964C174.447 19.281 172.563 25.2144 172.563 31.7808C172.563 38.3473 174.447 44.2806 177.48 48.5653C180.514 52.8506 184.679 55.4679 189.251 55.4679C193.823 55.4679 197.988 52.8506 201.022 48.5653C204.055 44.2806 205.939 38.3473 205.939 31.7808C205.939 25.2144 204.055 19.281 201.022 14.9964C197.988 10.711 193.823 8.09374 189.251 8.09374C184.679 8.09374 180.514 10.711 177.48 14.9964ZM177.038 14.6848C180.143 10.2994 184.457 7.55371 189.251 7.55371C194.045 7.55371 198.359 10.2994 201.464 14.6848C204.568 19.0709 206.48 25.1161 206.48 31.7808C206.48 38.4455 204.568 44.4907 201.464 48.8768C198.359 53.2622 194.045 56.0079 189.251 56.0079C184.457 56.0079 180.143 53.2622 177.038 48.8768C173.934 44.4907 172.022 38.4455 172.022 31.7808C172.022 25.1161 173.934 19.0709 177.038 14.6848Z" fill="#2C2C2C"/>
<path d="M169.817 26.4683C169.817 26.4683 184.252 27.1703 189.062 18.5028C189.062 18.5028 199.506 27.5213 209.477 26.8193L208.537 22.8366L204.667 15.2222L202.32 12.414L197.511 7.37822L191.057 4.68481L183.312 5.73787L172.982 12.765L171.69 17.4498L169.817 26.4683Z" fill="#2C2C2C"/>
<path d="M189.67 41.1434C189.677 41.1839 189.589 41.2581 189.393 41.2581C189.204 41.2649 188.913 41.1771 188.656 40.9341C188.527 40.8126 188.412 40.6641 188.324 40.4751C188.311 40.4481 188.304 40.4211 188.29 40.3941L188.277 40.3536L188.263 40.3198L188.243 40.2591C188.236 40.2321 188.23 40.1983 188.216 40.1713C188.189 40.0701 188.169 39.9621 188.162 39.8473C188.121 39.4018 188.209 38.9495 188.318 38.5175C188.737 36.7894 189.231 35.4325 189.413 35.4731C189.596 35.5203 189.407 36.9514 188.987 38.6795C188.879 39.1048 188.798 39.4895 188.798 39.8135C188.798 39.8945 188.805 39.9756 188.811 40.0498L188.818 40.0768V40.0903V40.0971V40.1038C188.818 40.1038 188.811 40.0836 188.818 40.0903L188.832 40.1578L188.838 40.1916L188.845 40.2118L188.859 40.2523C188.899 40.3806 188.96 40.5021 189.028 40.5966C189.163 40.7924 189.325 40.9139 189.454 40.9814C189.569 41.0691 189.664 41.0961 189.67 41.1434Z" fill="#2C2C2C"/>
<path d="M170.919 34.5281C170.73 33.7788 170.588 33.0161 170.473 32.2465C170.365 31.477 170.29 30.7074 170.25 29.9311C170.182 28.3785 170.243 26.8125 170.453 25.2666C170.662 23.714 171.021 22.1817 171.528 20.6966C171.555 20.6021 171.589 20.5076 171.623 20.4198L171.724 20.1431L171.927 19.5896L172.157 19.0428L172.272 18.7728C172.313 18.685 172.347 18.5905 172.394 18.5027C172.725 17.7872 173.084 17.0784 173.49 16.4034C174.295 15.0398 175.235 13.7572 176.317 12.5894C177.406 11.4283 178.631 10.3888 179.97 9.51799C180.133 9.40323 180.308 9.30197 180.478 9.20072C180.647 9.09946 180.823 8.99146 180.992 8.89695L181.526 8.61344L181.79 8.47168C181.878 8.42442 181.973 8.38392 182.06 8.34342L182.608 8.09366C182.656 8.07341 182.696 8.05315 182.744 8.0329L182.886 7.9789L183.163 7.87089L183.44 7.76289C183.535 7.72914 183.623 7.68863 183.725 7.65488L184.3 7.46587C185.828 6.97309 187.438 6.72333 189.048 6.68958C189.853 6.66258 190.658 6.72333 191.456 6.81108C191.659 6.83809 191.855 6.87184 192.052 6.89884L192.349 6.94609C192.397 6.95284 192.451 6.95959 192.498 6.97309L192.647 7.00685L193.235 7.1351C193.432 7.1756 193.628 7.22961 193.817 7.28361C195.366 7.71564 196.861 8.34342 198.228 9.18047L198.735 9.49773C198.823 9.55174 198.904 9.60574 198.985 9.66649L199.229 9.83525L199.472 10.004C199.553 10.058 199.635 10.1188 199.716 10.1795L200.189 10.544L200.426 10.7263L200.656 10.9221L201.109 11.3136C201.258 11.4418 201.4 11.5836 201.542 11.7254L201.759 11.9346C201.833 12.0021 201.901 12.0696 201.968 12.1439L202.381 12.5759L202.584 12.7919L202.78 13.0147L203.172 13.467C203.24 13.5412 203.301 13.6222 203.362 13.6965L203.545 13.9327C203.666 14.088 203.788 14.2433 203.91 14.4053L204.255 14.8913C204.492 15.2086 204.695 15.5528 204.911 15.8836C205.75 17.2269 206.433 18.658 206.974 20.1296C207.515 21.6079 207.901 23.1335 208.144 24.6793L208.192 24.9696L208.212 25.1114L208.226 25.2599L208.293 25.8404C208.347 26.2252 208.361 26.6167 208.395 27.0082C208.442 27.7845 208.456 28.5676 208.435 29.3438L208.429 29.6341L208.415 29.9244C208.401 30.1201 208.395 30.3091 208.374 30.5049C208.347 30.8897 208.307 31.2812 208.259 31.666C208.158 32.4355 208.029 33.1983 207.86 33.9544C207.955 33.1848 208.029 32.422 208.056 31.6525C208.09 30.8829 208.097 30.1134 208.063 29.3506C208.029 28.5878 207.975 27.8183 207.881 27.0622C207.826 26.6842 207.786 26.3062 207.711 25.9282L207.61 25.3679L207.583 25.2261L207.549 25.0844L207.488 24.8076C207.17 23.3158 206.717 21.8577 206.142 20.4603L206.034 20.1971L205.919 19.9406L205.682 19.4208C205.608 19.2453 205.52 19.0833 205.432 18.9145L205.175 18.4082C205.087 18.2395 204.992 18.0775 204.897 17.9155C204.803 17.7534 204.715 17.5847 204.613 17.4227L204.316 16.9434C204.214 16.7814 204.12 16.6194 204.011 16.4709C203.795 16.1604 203.592 15.8431 203.362 15.5461L203.024 15.0938C202.909 14.9453 202.787 14.8035 202.665 14.655L202.483 14.439C202.422 14.3648 202.361 14.2905 202.3 14.223L201.921 13.8045L201.732 13.5952L201.535 13.3927L201.136 12.9944C200.061 11.9549 198.863 11.0436 197.571 10.2875C196.286 9.53149 194.899 8.9577 193.465 8.57293C193.107 8.46493 192.742 8.40417 192.383 8.32317L192.248 8.29617C192.2 8.28942 192.153 8.28267 192.113 8.27592L191.835 8.23541C191.653 8.20841 191.47 8.17466 191.287 8.15441C190.55 8.08016 189.806 8.02615 189.068 8.0464C187.587 8.07341 186.106 8.29617 184.692 8.74844L184.164 8.9172C184.076 8.9442 183.988 8.97796 183.9 9.01171L183.643 9.11296L183.386 9.21422L183.258 9.26147C183.217 9.27497 183.17 9.30197 183.129 9.31547L182.622 9.54499C182.541 9.58549 182.453 9.61924 182.365 9.65974L182.115 9.788L181.621 10.0445C181.458 10.139 181.296 10.2335 181.134 10.3213C180.971 10.4158 180.809 10.5035 180.653 10.6115C179.388 11.4081 178.225 12.3599 177.17 13.4265L176.784 13.8382L176.595 14.0475C176.561 14.0812 176.527 14.115 176.5 14.1487L176.412 14.2568L176.047 14.6888C175.986 14.763 175.925 14.8305 175.864 14.9048L175.688 15.1276L175.343 15.5731C175.282 15.6473 175.235 15.7216 175.174 15.8026L175.012 16.0321C174.904 16.1874 174.795 16.3359 174.687 16.4979L174.383 16.9772C173.578 18.253 172.888 19.6098 172.347 21.0206C171.799 22.4315 171.379 23.903 171.095 25.4016L170.987 25.9619C170.953 26.1509 170.933 26.3399 170.899 26.5289L170.818 27.096C170.798 27.285 170.777 27.474 170.757 27.663L170.696 28.2368L170.662 28.8106L170.628 29.3843C170.622 29.5734 170.615 29.7691 170.608 29.9581C170.595 30.7277 170.608 31.4905 170.662 32.26C170.723 32.9958 170.811 33.7586 170.919 34.5281Z" fill="#50BFD7"/>
<path d="M184.841 33.0498C184.841 34.9737 183.17 36.533 181.113 36.533C179.05 36.533 177.386 34.9737 177.386 33.0498C177.386 31.126 179.057 29.5667 181.113 29.5667C183.17 29.5667 184.841 31.126 184.841 33.0498Z" fill="white"/>
<path fill-rule="evenodd" clip-rule="evenodd" d="M181.113 29.8367C179.189 29.8367 177.657 31.2916 177.657 33.0498C177.657 34.8084 179.183 36.263 181.113 36.263C183.038 36.263 184.57 34.8081 184.57 33.0498C184.57 31.2916 183.038 29.8367 181.113 29.8367ZM177.116 33.0498C177.116 30.9603 178.925 29.2966 181.113 29.2966C183.302 29.2966 185.111 30.9603 185.111 33.0498C185.111 35.1393 183.302 36.803 181.113 36.803C178.918 36.803 177.116 35.139 177.116 33.0498Z" fill="#2C2C2C"/>
<path d="M179.287 32.8339C179.287 34.4203 180.322 35.7096 181.594 35.7096C182.865 35.7096 183.9 34.4203 183.9 32.8339C183.9 31.2476 182.865 29.9583 181.594 29.9583C180.315 29.9515 179.287 31.2409 179.287 32.8339Z" fill="#50BFD7"/>
<path d="M179.95 32.8339C179.95 33.9613 180.68 34.8726 181.587 34.8726C182.493 34.8726 183.224 33.9613 183.224 32.8339C183.224 31.7066 182.493 30.7886 181.587 30.7886C180.687 30.7886 179.95 31.6999 179.95 32.8339Z" fill="#2C2C2C"/>
<path d="M179.848 30.8964C179.848 31.207 180.227 31.45 180.694 31.45C181.161 31.45 181.54 31.2002 181.54 30.8964C181.54 30.5859 181.161 30.3429 180.694 30.3429C180.227 30.3362 179.848 30.5859 179.848 30.8964Z" fill="white"/>
<path d="M181.357 29.0604C179.05 28.8309 177.278 30.91 177.278 33.0566C177.278 33.2794 177.555 33.3199 177.67 33.1646C178.61 31.8753 178.915 30.6062 180.633 30.1134C183.17 29.3844 184.563 31.9833 184.705 34.0219C184.726 34.2177 184.895 34.0421 184.915 33.8396C185.145 31.4027 183.927 29.3169 181.357 29.0604Z" fill="#2C2C2C"/>
<path d="M185.91 27.7238C185.91 27.7238 180.877 22.7151 175.465 28.6622C175.458 28.6622 180.139 25.6717 185.91 27.7238Z" fill="#2C2C2C"/>
<path d="M201.055 33.0498C201.055 34.9737 199.384 36.533 197.328 36.533C195.265 36.533 193.601 34.9737 193.601 33.0498C193.601 31.126 195.272 29.5667 197.328 29.5667C199.384 29.5667 201.055 31.126 201.055 33.0498Z" fill="white"/>
<path fill-rule="evenodd" clip-rule="evenodd" d="M197.328 29.8367C195.404 29.8367 193.871 31.2916 193.871 33.0498C193.871 34.8084 195.397 36.263 197.328 36.263C199.252 36.263 200.785 34.8081 200.785 33.0498C200.785 31.2916 199.252 29.8367 197.328 29.8367ZM193.33 33.0498C193.33 30.9603 195.139 29.2966 197.328 29.2966C199.517 29.2966 201.326 30.9603 201.326 33.0498C201.326 35.1393 199.517 36.8031 197.328 36.8031C195.132 36.8031 193.33 35.139 193.33 33.0498Z" fill="#2C2C2C"/>
<path d="M195.501 32.8337C195.501 34.42 196.536 35.7094 197.808 35.7094C199.08 35.7094 200.115 34.42 200.115 32.8337C200.115 31.2474 199.08 29.958 197.808 29.958C196.536 29.9513 195.501 31.2406 195.501 32.8337Z" fill="#50BFD7"/>
<path d="M196.171 32.8337C196.171 33.961 196.902 34.8723 197.808 34.8723C198.715 34.8723 199.445 33.961 199.445 32.8337C199.445 31.7064 198.715 30.7883 197.808 30.7883C196.902 30.7883 196.171 31.6996 196.171 32.8337Z" fill="#2C2C2C"/>
<path d="M196.063 30.8964C196.063 31.207 196.442 31.45 196.909 31.45C197.375 31.45 197.754 31.2002 197.754 30.8964C197.754 30.5859 197.375 30.3429 196.909 30.3429C196.449 30.3362 196.063 30.5859 196.063 30.8964Z" fill="white"/>
<path d="M197.571 29.0604C195.265 28.8309 193.492 30.91 193.492 33.0566C193.492 33.2794 193.77 33.3199 193.885 33.1646C194.825 31.8753 195.129 30.6062 196.848 30.1134C199.384 29.3844 200.778 31.9833 200.92 34.0219C200.94 34.2177 201.109 34.0421 201.13 33.8396C201.36 31.4027 200.149 29.3169 197.571 29.0604Z" fill="#2C2C2C"/>
<path d="M202.124 27.177C202.124 27.177 197.091 22.1682 191.68 28.1153C191.68 28.1153 196.361 25.1249 202.124 27.177Z" fill="#2C2C2C"/>
<path d="M176.331 202.086C176.331 202.086 176.73 203.348 176.845 203.544C176.967 203.74 180.072 204.806 183.86 204.725C187.797 204.644 189.596 203.504 189.65 202.079H176.331V202.086Z" fill="#50BFD7"/>
<path fill-rule="evenodd" clip-rule="evenodd" d="M176.06 201.81H189.931L189.921 202.09C189.889 202.933 189.336 203.647 188.332 204.148C187.333 204.646 185.854 204.955 183.865 204.996M176.06 201.81V202.08ZM176.331 202.086L176.073 202.168L176.06 202.128V202.08M176.331 202.086C176.073 202.168 176.073 202.168 176.073 202.168L176.077 202.182C176.08 202.192 176.085 202.205 176.09 202.223C176.102 202.258 176.118 202.308 176.138 202.369C176.177 202.491 176.231 202.656 176.288 202.828C176.346 202.999 176.407 203.178 176.462 203.327C176.513 203.466 176.568 203.607 176.612 203.681L176.613 203.684L176.615 203.687C176.642 203.73 176.676 203.76 176.694 203.775C176.716 203.793 176.74 203.808 176.761 203.821C176.804 203.847 176.856 203.874 176.913 203.9C177.028 203.953 177.183 204.013 177.372 204.078C177.75 204.208 178.278 204.36 178.919 204.502C180.2 204.787 181.946 205.037 183.865 204.996M176.7 202.35H189.341C189.223 202.831 188.839 203.291 188.09 203.665C187.192 204.113 185.803 204.416 183.854 204.456L183.854 204.456C181.986 204.496 180.285 204.253 179.036 203.975C178.412 203.837 177.904 203.69 177.548 203.568C177.369 203.506 177.232 203.452 177.139 203.409C177.105 203.394 177.079 203.38 177.06 203.37C177.054 203.357 177.048 203.341 177.04 203.323C177.02 203.274 176.996 203.212 176.97 203.141C176.918 202.999 176.858 202.825 176.801 202.656C176.765 202.548 176.73 202.443 176.7 202.35Z" fill="#2C2C2C"/>
<path d="M176.338 202.356C176.933 202.889 177.711 203.294 178.279 203.477C179.693 203.943 181.242 204.118 182.723 204.199C184.3 204.28 186.031 204.253 187.506 203.632C188.304 203.294 188.981 202.802 189.61 202.241C189.894 201.546 189.968 200.756 189.948 199.946C189.901 198.488 189.569 197.077 189.312 195.646C189.271 195.437 189.238 195.235 189.204 195.032C189.129 194.1 189.062 193.162 189.001 192.237C188.981 191.893 188.94 191.589 188.947 191.245C188.954 191.016 189.035 190.644 188.974 190.428C188.967 190.401 188.954 190.381 188.947 190.361C188.947 190.327 188.954 190.293 188.947 190.259C188.683 190.043 188.406 189.841 188.088 189.753C187.858 189.794 187.628 189.868 187.479 189.929C187.242 190.023 187.032 190.145 186.843 190.286C186.376 189.652 185.226 189.355 184.577 189.328C183.562 189.287 182.209 189.463 181.404 190.205C181.269 190.077 181.059 190.01 180.877 189.976C180.836 189.969 180.789 189.962 180.748 189.956C180.275 190.138 180.396 191.299 180.349 191.63C180.281 192.069 180.214 192.507 180.106 192.933C179.889 193.749 179.578 194.499 179.104 195.201C178.597 195.957 177.934 196.612 177.352 197.307C177.271 197.449 177.183 197.59 177.102 197.725C176.48 198.724 175.972 200.176 176.108 201.364C176.142 201.742 176.223 202.066 176.338 202.356Z" fill="#50BFD7"/>
<path fill-rule="evenodd" clip-rule="evenodd" d="M182.85 189.21C183.445 189.072 184.062 189.037 184.588 189.058L184.588 189.058C184.942 189.073 185.419 189.159 185.872 189.326C186.236 189.46 186.611 189.655 186.888 189.928C187.039 189.833 187.201 189.749 187.377 189.678C187.541 189.611 187.789 189.531 188.041 189.487L188.101 189.476L188.16 189.493C188.537 189.597 188.852 189.833 189.118 190.051L189.193 190.112L189.212 190.206C189.221 190.249 189.221 190.286 189.22 190.312C189.225 190.325 189.231 190.341 189.235 190.358C189.28 190.519 189.268 190.711 189.255 190.856C189.249 190.924 189.242 190.984 189.236 191.038C189.227 191.12 189.219 191.188 189.217 191.251C189.213 191.472 189.229 191.667 189.246 191.881C189.255 191.987 189.264 192.098 189.271 192.22C189.331 193.14 189.399 194.073 189.473 194.999C189.506 195.198 189.539 195.393 189.578 195.595L189.578 195.597L189.578 195.598C189.631 195.893 189.688 196.19 189.745 196.487C189.961 197.615 190.18 198.763 190.218 199.937L190.218 199.938L190.218 199.939C190.239 200.767 190.164 201.599 189.86 202.343L189.837 202.401L189.79 202.443C189.148 203.014 188.447 203.527 187.611 203.88L187.611 203.881C186.076 204.527 184.29 204.55 182.709 204.468L182.709 204.468C181.219 204.387 179.643 204.21 178.195 203.733C177.594 203.54 176.783 203.117 176.157 202.557L176.109 202.514L176.086 202.455C175.962 202.141 175.875 201.793 175.838 201.391C175.695 200.122 176.232 198.611 176.871 197.584C176.895 197.545 176.919 197.506 176.943 197.466C177.002 197.368 177.061 197.271 177.117 197.173L177.129 197.152L177.145 197.134C177.344 196.895 177.547 196.667 177.747 196.443C178.153 195.988 178.546 195.547 178.88 195.05L178.88 195.05C179.333 194.378 179.633 193.658 179.844 192.865C179.948 192.455 180.013 192.03 180.081 191.59C180.09 191.531 180.091 191.428 180.094 191.272C180.094 191.265 180.094 191.257 180.094 191.25C180.097 191.092 180.101 190.9 180.119 190.711C180.138 190.524 180.171 190.322 180.241 190.147C180.311 189.975 180.432 189.788 180.651 189.704L180.72 189.677L180.793 189.689C180.811 189.692 180.831 189.695 180.854 189.699L180.854 189.699C180.876 189.702 180.899 189.706 180.921 189.709L180.924 189.71L180.926 189.71C181.061 189.735 181.232 189.78 181.388 189.865C181.811 189.536 182.329 189.331 182.85 189.21ZM182.973 189.736C182.435 189.861 181.944 190.075 181.588 190.404L181.402 190.575L181.218 190.401C181.141 190.328 180.997 190.273 180.83 190.242C180.822 190.24 180.814 190.239 180.806 190.238C180.788 190.259 180.766 190.292 180.744 190.348C180.702 190.452 180.674 190.595 180.658 190.763C180.642 190.928 180.638 191.1 180.635 191.259C180.635 191.273 180.635 191.287 180.635 191.301C180.633 191.435 180.63 191.574 180.617 191.668L180.617 191.669L180.615 191.677C180.548 192.112 180.479 192.561 180.368 192.999L180.367 193L180.367 193.001C180.144 193.841 179.822 194.619 179.329 195.351C178.975 195.878 178.539 196.368 178.12 196.839C177.932 197.05 177.747 197.257 177.575 197.462C177.519 197.56 177.459 197.659 177.402 197.752C177.379 197.79 177.356 197.828 177.334 197.864L177.333 197.866L177.332 197.868C176.727 198.838 176.251 200.228 176.377 201.333L176.377 201.336L176.377 201.34C176.406 201.666 176.473 201.947 176.567 202.197C177.125 202.682 177.842 203.053 178.362 203.219L178.363 203.22L178.364 203.22C179.744 203.675 181.264 203.849 182.738 203.929C184.309 204.01 185.987 203.978 187.4 203.383C188.142 203.069 188.78 202.613 189.382 202.082C189.627 201.449 189.697 200.723 189.677 199.954C189.641 198.827 189.432 197.732 189.217 196.611C189.159 196.308 189.101 196.003 189.046 195.696C189.005 195.484 188.971 195.279 188.937 195.078L188.935 195.065L188.934 195.053C188.86 194.12 188.792 193.181 188.731 192.255L188.731 192.254L188.731 192.253C188.725 192.156 188.717 192.057 188.709 191.956C188.69 191.727 188.671 191.488 188.676 191.24L188.676 191.238L188.676 191.237C188.679 191.153 188.691 191.044 188.702 190.943C188.707 190.894 188.712 190.847 188.716 190.807C188.73 190.658 188.729 190.559 188.714 190.504C188.714 190.503 188.713 190.502 188.713 190.501L188.711 190.498C188.71 190.495 188.708 190.491 188.706 190.486C188.702 190.477 188.696 190.463 188.69 190.446L188.676 190.404V190.388C188.471 190.227 188.277 190.099 188.073 190.031C187.885 190.069 187.702 190.129 187.581 190.178L187.58 190.179L187.579 190.179C187.366 190.264 187.177 190.374 187.005 190.502L186.787 190.666L186.625 190.446C186.437 190.191 186.092 189.982 185.685 189.833C185.284 189.685 184.862 189.61 184.566 189.597C184.077 189.578 183.51 189.611 182.973 189.736Z" fill="#2C2C2C"/>
<path d="M205.662 202.086C205.662 202.086 205.27 203.348 205.148 203.544C205.026 203.74 201.921 204.806 198.133 204.725C194.196 204.644 192.397 203.504 192.343 202.079H205.662V202.086Z" fill="#50BFD7"/>
<path fill-rule="evenodd" clip-rule="evenodd" d="M192.062 201.81H205.932V202.127L205.92 202.166L205.662 202.086C205.92 202.166 205.92 202.166 205.92 202.166L205.92 202.166L205.92 202.167L205.916 202.181C205.913 202.19 205.908 202.204 205.903 202.222C205.892 202.257 205.876 202.307 205.857 202.368C205.818 202.491 205.764 202.656 205.707 202.827C205.65 202.998 205.589 203.178 205.533 203.327C205.482 203.465 205.426 203.61 205.378 203.687C205.351 203.73 205.317 203.76 205.298 203.775C205.276 203.793 205.253 203.808 205.232 203.821C205.189 203.847 205.137 203.874 205.08 203.9C204.965 203.953 204.81 204.013 204.621 204.078C204.243 204.208 203.715 204.36 203.074 204.502C201.792 204.787 200.047 205.037 198.127 204.996M205.294 202.35H192.652C192.769 202.831 193.153 203.291 193.903 203.665C194.801 204.113 196.19 204.416 198.139 204.456L198.139 204.456C200.007 204.496 201.708 204.253 202.956 203.975C203.581 203.837 204.088 203.69 204.445 203.568C204.624 203.506 204.761 203.452 204.854 203.409C204.889 203.393 204.916 203.38 204.934 203.369C204.94 203.356 204.947 203.34 204.955 203.321C204.976 203.273 204.999 203.212 205.026 203.141C205.078 202.999 205.137 202.826 205.194 202.657C205.23 202.549 205.264 202.443 205.294 202.35ZM192.062 201.81L192.072 202.09ZM192.072 202.09C192.104 202.933 192.657 203.647 193.661 204.148ZM193.661 204.148C194.66 204.646 196.139 204.955 198.127 204.996Z" fill="#2C2C2C"/>
<path d="M205.655 202.356C205.06 202.889 204.282 203.294 203.714 203.477C202.3 203.943 200.751 204.118 199.269 204.199C197.693 204.28 195.962 204.253 194.487 203.632C193.689 203.294 193.012 202.802 192.383 202.241C192.099 201.546 192.025 200.756 192.045 199.946C192.092 198.488 192.424 197.077 192.681 195.646C192.721 195.437 192.755 195.235 192.789 195.032C192.863 194.1 192.931 193.162 192.992 192.237C193.019 191.893 193.053 191.589 193.046 191.245C193.039 191.016 192.958 190.644 193.019 190.428C193.026 190.401 193.039 190.381 193.046 190.361C193.046 190.327 193.039 190.293 193.046 190.259C193.31 190.043 193.58 189.841 193.905 189.753C194.135 189.794 194.365 189.868 194.514 189.929C194.751 190.023 194.96 190.145 195.15 190.286C195.617 189.652 196.767 189.355 197.416 189.328C198.431 189.287 199.783 189.463 200.588 190.205C200.724 190.077 200.933 190.01 201.116 189.976C201.157 189.969 201.204 189.962 201.245 189.956C201.718 190.138 201.596 191.299 201.644 191.63C201.711 192.069 201.779 192.507 201.887 192.933C202.104 193.749 202.415 194.499 202.888 195.201C203.396 195.957 204.059 196.612 204.64 197.307C204.722 197.449 204.81 197.59 204.891 197.725C205.513 198.724 206.02 200.176 205.885 201.364C205.851 201.742 205.77 202.066 205.655 202.356Z" fill="#50BFD7"/>
<path fill-rule="evenodd" clip-rule="evenodd" d="M199.019 189.736C198.483 189.611 197.916 189.578 197.427 189.597C197.131 189.61 196.709 189.685 196.308 189.833C195.901 189.982 195.555 190.191 195.368 190.446L195.206 190.666L194.987 190.502C194.816 190.374 194.627 190.264 194.413 190.179L194.412 190.179L194.411 190.178C194.291 190.129 194.107 190.069 193.919 190.031C193.712 190.098 193.522 190.226 193.317 190.388V190.404L193.303 190.446C193.297 190.463 193.291 190.477 193.287 190.486C193.285 190.491 193.283 190.495 193.281 190.498C193.28 190.501 193.279 190.502 193.279 190.504C193.264 190.559 193.263 190.658 193.277 190.807C193.28 190.847 193.285 190.894 193.291 190.943C193.302 191.044 193.314 191.153 193.316 191.237L193.316 191.238L193.317 191.24C193.322 191.534 193.3 191.804 193.277 192.075C193.272 192.135 193.267 192.196 193.262 192.257C193.201 193.182 193.133 194.121 193.059 195.053L193.058 195.065L193.056 195.078C193.022 195.279 192.988 195.483 192.947 195.696C192.891 196.003 192.833 196.308 192.775 196.61C192.561 197.732 192.352 198.827 192.315 199.954C192.296 200.723 192.365 201.449 192.611 202.082C193.213 202.613 193.851 203.069 194.592 203.383C196.006 203.978 197.684 204.01 199.255 203.929C200.728 203.849 202.249 203.675 203.629 203.22L203.63 203.22L203.631 203.219C204.151 203.053 204.868 202.682 205.426 202.197C205.52 201.947 205.586 201.666 205.616 201.34L205.616 201.336L205.616 201.333C205.742 200.228 205.265 198.838 204.661 197.868L204.66 197.866L204.659 197.864C204.637 197.828 204.614 197.79 204.591 197.752C204.534 197.659 204.474 197.56 204.418 197.462C204.245 197.257 204.061 197.05 203.873 196.839C203.454 196.368 203.017 195.878 202.664 195.351C202.17 194.619 201.848 193.841 201.626 193.001L201.625 193L201.625 192.999C201.514 192.561 201.444 192.112 201.377 191.677L201.376 191.669L201.376 191.668C201.362 191.574 201.36 191.435 201.358 191.301C201.358 191.287 201.358 191.273 201.357 191.259C201.355 191.1 201.351 190.928 201.335 190.763C201.318 190.595 201.291 190.452 201.249 190.348C201.227 190.292 201.205 190.259 201.187 190.238C201.179 190.239 201.171 190.24 201.163 190.242C200.996 190.273 200.851 190.328 200.775 190.401L200.591 190.575L200.405 190.404C200.049 190.075 199.558 189.861 199.019 189.736ZM200.604 189.865C200.182 189.536 199.664 189.331 199.142 189.21C198.548 189.072 197.931 189.037 197.405 189.058L197.405 189.058C197.051 189.073 196.574 189.159 196.121 189.326C195.757 189.46 195.382 189.655 195.105 189.928C194.954 189.833 194.792 189.749 194.615 189.678C194.452 189.611 194.203 189.531 193.952 189.487L193.893 189.477L193.834 189.492C193.448 189.597 193.139 189.834 192.874 190.051L192.8 190.112L192.781 190.206C192.772 190.249 192.772 190.286 192.773 190.311C192.768 190.325 192.762 190.341 192.758 190.358C192.713 190.519 192.724 190.711 192.738 190.856C192.744 190.924 192.751 190.984 192.757 191.038C192.766 191.12 192.774 191.188 192.775 191.251C192.781 191.515 192.761 191.751 192.738 192.019C192.733 192.083 192.727 192.148 192.722 192.216L192.722 192.218L192.722 192.219C192.661 193.139 192.594 194.072 192.52 194.999C192.487 195.198 192.454 195.393 192.415 195.595L192.415 195.597L192.414 195.598C192.361 195.893 192.305 196.19 192.248 196.487C192.032 197.615 191.813 198.763 191.774 199.937L191.774 199.938L191.774 199.939C191.754 200.767 191.828 201.599 192.133 202.343L192.156 202.401L192.203 202.443C192.845 203.014 193.546 203.527 194.381 203.88L194.382 203.881C195.917 204.527 197.702 204.55 199.283 204.468L199.284 204.468C200.773 204.387 202.35 204.21 203.797 203.733C204.399 203.54 205.21 203.117 205.836 202.557L205.883 202.514L205.907 202.455C206.031 202.141 206.118 201.793 206.154 201.391C206.298 200.122 205.761 198.611 205.122 197.584C205.098 197.545 205.074 197.506 205.05 197.467C204.991 197.368 204.932 197.271 204.875 197.173L204.863 197.152L204.848 197.134C204.648 196.895 204.445 196.667 204.246 196.443C203.84 195.988 203.447 195.547 203.113 195.05L203.113 195.05C202.66 194.378 202.359 193.658 202.149 192.865C202.045 192.455 201.979 192.03 201.911 191.59C201.903 191.531 201.901 191.428 201.899 191.272L201.898 191.25C201.896 191.092 201.892 190.9 201.873 190.711C201.855 190.524 201.821 190.322 201.751 190.147C201.682 189.975 201.56 189.788 201.342 189.704L201.273 189.677L201.2 189.689C201.182 189.692 201.162 189.695 201.139 189.699L201.138 189.699C201.117 189.702 201.094 189.706 201.072 189.709L201.069 189.71L201.067 189.71C200.932 189.735 200.761 189.78 200.604 189.865ZM192.793 190.265C192.793 190.265 192.793 190.265 192.793 190.265Z" fill="#2C2C2C"/>
<path fill-rule="evenodd" clip-rule="evenodd" d="M171.954 30.5117V30.6467H171.413V30.5117H171.954Z" fill="#2C2C2C"/>
<path fill-rule="evenodd" clip-rule="evenodd" d="M174.795 31.9968V32.1318H174.254V31.9968H174.795Z" fill="#2C2C2C"/>
<path d="M190.185 31.2003C191.111 31.396 190.766 31.9968 190.766 32.0846C190.766 32.1723 191.111 37.1676 195.583 38.4839C200.054 39.8003 202.733 37.2149 203.511 35.9188C204.289 34.6227 204.938 31.5445 205.127 31.3083C205.324 31.072 206.25 30.6603 206.25 30.6603L206.358 29.4519L205.195 29.1077C205.195 29.1077 202.259 27.7711 197.937 27.7103C193.621 27.6428 191.179 30.127 191.179 30.127C189.961 29.7422 188.453 29.6882 187.073 30.127C187.073 30.127 184.631 27.6496 180.315 27.7103C175.999 27.7778 173.057 29.1077 173.057 29.1077L171.893 29.4519L172.002 30.6603C172.002 30.6603 172.928 31.072 173.124 31.3083C173.321 31.5445 173.963 34.6295 174.741 35.9188C175.519 37.2149 178.198 39.8003 182.669 38.4839C187.141 37.1676 187.486 32.1723 187.486 32.0846C187.486 31.9968 187.141 31.396 188.067 31.2003C188.872 31.0315 189.38 31.0315 190.185 31.2003ZM200.913 37.4511C197.504 39.4965 193.418 37.4309 192.187 34.7375C190.956 32.0441 191.991 30.6197 191.991 30.6197C194.054 27.2716 202.354 27.1298 203.781 30.748C204.025 31.3555 204.329 35.4058 200.913 37.4511ZM174.464 30.748C175.891 27.1231 184.198 27.2716 186.254 30.6197C186.254 30.6197 187.289 32.0441 186.058 34.7375C184.827 37.4309 180.748 39.4965 177.332 37.4511C173.923 35.4058 174.227 31.3555 174.464 30.748Z" fill="#2C2C2C"/>
<path d="M192.275 67.4498H187.08C185.7 67.4498 184.577 68.5704 184.577 69.9474V75.1317C184.577 76.5088 185.7 77.6294 187.08 77.6294H192.275C193.655 77.6294 194.778 76.5088 194.778 75.1317V69.9474C194.778 68.5704 193.662 67.4498 192.275 67.4498ZM183.197 65.2424C182.405 65.2424 181.763 65.8837 181.763 66.6735C181.763 67.4633 182.405 68.1046 183.197 68.1046C183.988 68.1046 184.631 67.4633 184.631 66.6735C184.631 65.8837 183.988 65.2424 183.197 65.2424Z" fill="white"/>
<path d="M191.91 70.5414C191.578 69.6571 190.733 69.0698 189.786 69.0698H188.379L191.159 76.1037H194.142L191.91 70.5414ZM186.227 74.0853L185.416 76.1037H188.379L189.758 72.6137H188.351C187.404 72.6137 186.559 73.201 186.227 74.0853ZM186.687 70.8182C187.174 70.8182 187.574 70.4199 187.574 69.9339C187.574 69.4478 187.174 69.0496 186.687 69.0496C186.2 69.0496 185.801 69.4478 185.801 69.9339C185.801 70.4199 186.2 70.8182 186.687 70.8182Z" fill="#50BFD7"/>
<path fill-rule="evenodd" clip-rule="evenodd" d="M192.103 48.1745C189.149 46.4026 186.761 47.4548 185.981 48.1304C185.801 48.2869 185.527 48.2677 185.37 48.0874C185.213 47.9071 185.232 47.6341 185.413 47.4775C186.441 46.5867 189.236 45.4459 192.549 47.4334C192.754 47.5565 192.82 47.8221 192.697 48.0267C192.574 48.2313 192.308 48.2975 192.103 48.1745Z" fill="#2C2C2C"/>
</svg>
