<svg width="531" height="422" viewBox="0 0 531 422" fill="none" xmlns="http://www.w3.org/2000/svg">
<path d="M443.563 122.913C443.563 122.913 426.953 58.5843 326.398 18.0154C225.843 -22.5535 135.882 15.0205 115.373 62.5584C94.8643 110.096 116.358 135.767 102.672 176.364C88.9863 216.962 18.6776 268.379 47.0532 330.729C75.4287 393.08 208.209 410.888 315.656 398.024C423.103 385.16 507.048 242.651 443.563 122.913Z" fill="#50BFD7"/>
<path opacity="0.7" d="M443.563 122.913C443.563 122.913 426.953 58.5843 326.398 18.0154C225.843 -22.5535 135.882 15.0205 115.373 62.5584C94.8643 110.096 116.358 135.767 102.672 176.364C88.9863 216.962 18.6776 268.379 47.0532 330.729C75.4287 393.08 208.209 410.888 315.656 398.024C423.103 385.16 507.048 242.651 443.563 122.913Z" fill="white"/>
<path d="M81.342 328.155C81.342 328.155 74.3201 326.627 71.6212 323.164C68.8984 319.7 67.2982 318.172 57.7924 314.04C48.3582 309.908 44.6084 304.558 44.6084 304.558C44.6084 304.558 38.0165 310.601 52.4901 317.527C61.3511 321.778 32.2365 321.157 23.4711 320.178C23.4711 320.178 18.4077 322.949 26.791 327.009C35.1743 331.069 27.1015 331.38 43.7008 338.378C60.2763 345.4 79.9806 349.078 83.9931 339.07C88.0056 329.063 81.342 328.155 81.342 328.155Z" fill="#E0E0E0"/>
<path fill-rule="evenodd" clip-rule="evenodd" d="M44.6085 304.558L43.9629 303.854L44.7657 303.118L45.3897 304.008L45.39 304.008L45.3901 304.009L45.3904 304.009L45.3908 304.01L45.3947 304.015C45.3997 304.022 45.4083 304.034 45.4206 304.05C45.4454 304.084 45.485 304.136 45.54 304.207C45.6501 304.347 45.8217 304.558 46.0585 304.827C46.5322 305.364 47.2668 306.133 48.2921 307.031C50.3418 308.826 53.5555 311.141 58.1743 313.164C62.9328 315.233 65.7828 316.678 67.7933 318.066C69.8381 319.478 70.9885 320.813 72.3723 322.573L72.3736 322.575L72.3748 322.576C73.555 324.091 75.7723 325.262 77.8404 326.068C78.8512 326.462 79.7829 326.751 80.4618 326.943C80.8008 327.038 81.0752 327.109 81.2634 327.155C81.3574 327.178 81.4298 327.195 81.4777 327.206C81.495 327.21 81.5092 327.214 81.52 327.216C81.5398 327.219 81.5647 327.224 81.5943 327.229C81.6597 327.242 81.7485 327.261 81.8561 327.288C82.0706 327.343 82.3636 327.432 82.6976 327.576C83.3634 327.862 84.2167 328.373 84.9227 329.269C86.3835 331.123 86.9524 334.257 84.8799 339.426C83.7537 342.235 81.5262 344.047 78.6567 345.071C75.8127 346.086 72.3078 346.341 68.4887 346.063C60.8458 345.506 51.6683 342.79 43.3285 339.257C35.017 335.753 32.6729 333.846 31.4031 332.168C31.1797 331.873 30.986 331.578 30.8168 331.321C30.7604 331.236 30.7068 331.154 30.6557 331.078C30.4422 330.76 30.233 330.474 29.9466 330.176C29.3745 329.58 28.4185 328.859 26.3746 327.869C24.223 326.827 22.8336 325.822 22.0069 324.846C21.1569 323.844 20.8775 322.836 21.0474 321.9C21.208 321.016 21.7403 320.37 22.1566 319.978C22.3717 319.776 22.577 319.622 22.7298 319.517C22.8068 319.464 22.8719 319.423 22.9204 319.394C22.9447 319.379 22.9649 319.367 22.9804 319.358C22.9882 319.354 22.9948 319.35 23.0002 319.347L23.0073 319.343L23.0102 319.341L23.0115 319.341C23.012 319.34 23.0126 319.34 23.4712 320.178L23.0126 319.34L23.2773 319.195L23.5772 319.229C27.9084 319.712 37.3314 320.112 44.5572 319.859C48.2076 319.732 51.1587 319.44 52.6327 318.963C52.7444 318.927 52.8399 318.892 52.9209 318.86C52.7289 318.728 52.4548 318.57 52.0774 318.388C44.7506 314.882 42.3659 311.419 42.1685 308.51C42.0716 307.081 42.5203 305.92 42.9785 305.131C43.208 304.735 43.444 304.426 43.6257 304.212C43.7168 304.105 43.7952 304.021 43.8536 303.961C43.8828 303.931 43.9071 303.907 43.9256 303.889C43.9348 303.88 43.9427 303.873 43.9489 303.867L43.9571 303.859L43.9603 303.856L43.9617 303.855C43.9623 303.854 43.9629 303.854 44.6085 304.558ZM53.2344 319.128C53.2343 319.128 53.2337 319.127 53.2326 319.125C53.2339 319.127 53.2344 319.128 53.2344 319.128ZM23.7102 321.165C23.6363 321.22 23.5517 321.289 23.4654 321.37C23.1943 321.625 22.9847 321.926 22.9274 322.242C22.8793 322.506 22.906 322.952 23.4644 323.611C24.046 324.297 25.1675 325.161 27.2075 326.149C29.3553 327.189 30.5339 328.029 31.3246 328.852C31.7197 329.264 31.999 329.651 32.2417 330.012C32.3131 330.119 32.3788 330.218 32.4419 330.314C32.601 330.556 32.7445 330.774 32.9268 331.015C33.8662 332.257 35.7852 334.004 44.072 337.497L44.0735 337.498C52.3091 340.987 61.2714 343.621 68.6276 344.157C72.3081 344.425 75.5175 344.162 78.0146 343.272C80.4862 342.39 82.2263 340.91 83.1064 338.715C85.0465 333.876 84.2898 331.553 83.4219 330.451C82.9635 329.87 82.4017 329.528 81.9434 329.331C81.7154 329.233 81.5192 329.174 81.385 329.14C81.3182 329.123 81.2677 329.112 81.2375 329.106C81.2299 329.105 81.2236 329.104 81.2187 329.103C81.2139 329.102 81.2104 329.102 81.2082 329.101C81.2061 329.101 81.2054 329.101 81.2062 329.101L81.1757 329.097L81.1388 329.089L81.342 328.155C81.1388 329.089 81.1386 329.089 81.1384 329.089L81.1378 329.089L81.1361 329.088L81.1308 329.087L81.1127 329.083C81.0974 329.08 81.0755 329.075 81.0473 329.068C80.9911 329.055 80.9099 329.036 80.8067 329.011C80.6003 328.96 80.3051 328.884 79.9435 328.782C79.2216 328.578 78.2291 328.27 77.147 327.848C75.0302 327.024 72.3879 325.7 70.8691 323.753C69.5306 322.05 68.5196 320.89 66.7077 319.639C64.8611 318.364 62.1583 316.979 57.4116 314.916L57.4092 314.915C52.5946 312.806 49.2167 310.381 47.0332 308.468C45.9441 307.514 45.1527 306.689 44.6285 306.094C44.3039 306.654 44.0108 307.435 44.0749 308.38C44.1999 310.224 45.756 313.245 52.9026 316.665L52.9035 316.666C53.4902 316.947 53.977 317.235 54.3366 317.538C54.6716 317.82 55.0469 318.243 55.0984 318.816C55.1564 319.463 54.7826 319.923 54.4393 320.189C54.1026 320.45 53.6667 320.637 53.221 320.781C51.4542 321.353 48.2402 321.642 44.6239 321.769C37.5007 322.018 28.2781 321.643 23.7102 321.165ZM23.9342 321.014C23.9351 321.013 23.9354 321.013 23.9349 321.013L23.9342 321.014Z" fill="#2C2C2C"/>
<path d="M197.394 271.097C197.394 271.097 177.522 367.397 168.47 372.699C161.186 376.974 105.345 358.798 84.1362 351.657C79.0967 349.985 76.0156 348.887 76.0156 348.887L79.6699 324.191L91.6357 325.815L151.226 333.911C151.226 333.911 171.313 236.059 185.739 234.865C200.188 233.646 197.394 271.097 197.394 271.097Z" fill="#2C2C2C"/>
<path d="M314.163 234.267C314.163 234.267 384.644 305.418 389.278 340.981C389.278 340.981 378.554 361.091 313.996 399.449L308.24 382.993C308.24 382.993 344.281 341.626 356.796 331.165C356.796 331.165 300.358 284.495 301.672 271.264C302.961 257.984 306.257 234.96 314.163 234.267Z" fill="#2C2C2C"/>
<path d="M342.991 264.146C342.991 279.384 333.008 288.819 317.77 288.819C302.532 288.819 290.184 276.47 290.184 261.233C290.184 245.995 301.696 229.18 316.217 233.742C332.219 238.734 342.991 248.908 342.991 264.146Z" fill="white"/>
<path fill-rule="evenodd" clip-rule="evenodd" d="M298.483 240.68C293.943 246.037 291.139 253.829 291.139 261.232C291.139 275.943 303.059 287.863 317.769 287.863C325.191 287.863 331.24 285.569 335.43 281.51C339.615 277.455 342.035 271.55 342.035 264.146C342.035 249.49 331.718 239.578 315.932 234.654L315.931 234.653C309.143 232.521 303.009 235.339 298.483 240.68ZM316.502 232.83C308.769 230.401 301.886 233.709 297.026 239.444C292.18 245.163 289.228 253.398 289.228 261.232C289.228 276.998 302.004 289.774 317.769 289.774C325.586 289.774 332.147 287.351 336.759 282.883C341.375 278.411 343.946 271.98 343.946 264.146C343.946 248.327 332.721 237.889 316.502 232.83Z" fill="#2C2C2C"/>
<path d="M330.595 259.704C330.595 270.977 323.215 277.951 311.942 277.951C300.669 277.951 291.545 268.827 291.545 257.554C291.545 246.281 300.048 233.837 310.819 237.205C322.618 240.931 330.595 248.454 330.595 259.704Z" fill="#2C2C2C"/>
<path d="M157.89 264.146C157.89 279.384 167.874 288.819 183.112 288.819C198.35 288.819 210.698 276.47 210.698 261.233C210.698 245.995 199.186 229.18 184.664 233.742C168.662 238.734 157.89 248.908 157.89 264.146Z" fill="white"/>
<path fill-rule="evenodd" clip-rule="evenodd" d="M203.855 239.444C208.701 245.163 211.653 253.398 211.653 261.232C211.653 276.998 198.877 289.774 183.111 289.774C175.295 289.774 168.734 287.351 164.122 282.883C159.506 278.411 156.935 271.98 156.935 264.146C156.935 248.327 168.16 237.889 184.379 232.83C192.112 230.401 198.995 233.709 203.855 239.444ZM202.397 240.68C197.871 235.339 191.738 232.521 184.95 234.653L184.948 234.654C169.163 239.578 158.845 249.49 158.845 264.146C158.845 271.55 161.266 277.455 165.451 281.51C169.64 285.569 175.69 287.863 183.111 287.863C197.822 287.863 209.742 275.943 209.742 261.232C209.742 253.829 206.938 246.037 202.397 240.68Z" fill="#2C2C2C"/>
<path d="M170.286 259.704C170.286 270.977 177.666 277.951 188.939 277.951C200.213 277.951 209.336 268.827 209.336 257.554C209.336 246.281 200.834 233.837 190.086 237.205C178.263 240.931 170.286 248.454 170.286 259.704Z" fill="#2C2C2C"/>
<path d="M285.168 386.408C267.924 384.832 250.894 384.187 250.894 384.187C244.637 384.378 231.309 384.928 217.552 386.408C221.565 400.118 235.179 410.221 251.348 410.221C267.541 410.245 281.155 400.094 285.168 386.408Z" fill="#50BFD7"/>
<path d="M283.759 387.841C285.239 382.014 314.879 233.503 314.879 233.503C314.879 233.503 235.776 210.145 185.189 233.503L217.624 389.131L283.759 387.841Z" fill="white"/>
<path fill-rule="evenodd" clip-rule="evenodd" d="M315.149 232.587C315.149 232.587 315.15 232.587 314.879 233.503C315.816 233.69 315.816 233.691 315.816 233.692L315.815 233.697L315.483 235.359C315.266 236.449 314.946 238.047 314.54 240.083C313.726 244.155 312.563 249.979 311.162 256.986C308.36 271 304.609 289.747 300.811 308.675C293.221 346.504 285.433 385.132 284.684 388.077L284.505 388.782L216.85 390.102L184.099 232.954L184.789 232.636C210.327 220.843 242.967 220.87 269.11 223.794C282.202 225.259 293.705 227.455 301.936 229.286C306.052 230.201 309.352 231.025 311.624 231.621C312.76 231.919 313.639 232.16 314.236 232.326C314.534 232.41 314.761 232.475 314.915 232.519C314.992 232.541 315.05 232.558 315.089 232.569L315.134 232.582L315.146 232.586L315.149 232.587ZM314.879 233.503L315.816 233.69L315.987 232.834L315.15 232.587L314.879 233.503ZM313.77 234.18C313.754 234.176 313.738 234.171 313.721 234.167C313.134 234.003 312.265 233.764 311.139 233.469C308.888 232.879 305.612 232.061 301.522 231.151C293.34 229.332 281.906 227.148 268.898 225.693C243.082 222.805 211.228 222.804 186.28 234.055L218.397 388.16L282.997 386.901C284.35 380.83 291.721 344.268 298.938 308.299C302.735 289.371 306.486 270.625 309.288 256.612C310.689 249.605 311.853 243.781 312.666 239.709C313.073 237.673 313.392 236.075 313.609 234.985L313.77 234.18Z" fill="black"/>
<path d="M283.759 387.841C285.239 382.014 314.879 233.503 314.879 233.503C314.879 233.503 235.776 210.145 185.189 233.503L217.624 389.131L283.759 387.841Z" fill="white"/>
<path fill-rule="evenodd" clip-rule="evenodd" d="M315.149 232.587C315.149 232.587 315.15 232.587 314.879 233.503C315.816 233.69 315.816 233.691 315.816 233.692L315.815 233.697L315.483 235.359C315.266 236.449 314.946 238.047 314.54 240.083C313.726 244.155 312.563 249.979 311.162 256.986C308.36 271 304.609 289.747 300.811 308.675C293.221 346.504 285.433 385.132 284.684 388.077L284.505 388.782L216.85 390.102L184.099 232.954L184.789 232.636C210.327 220.843 242.967 220.87 269.11 223.794C282.202 225.259 293.705 227.455 301.936 229.286C306.052 230.201 309.352 231.025 311.624 231.621C312.76 231.919 313.639 232.16 314.236 232.326C314.534 232.41 314.761 232.475 314.915 232.519C314.992 232.541 315.05 232.558 315.089 232.569L315.134 232.582L315.146 232.586L315.149 232.587ZM314.879 233.503L315.816 233.69L315.987 232.834L315.15 232.587L314.879 233.503ZM313.77 234.18C313.754 234.176 313.738 234.171 313.721 234.167C313.134 234.003 312.265 233.764 311.139 233.469C308.888 232.879 305.612 232.061 301.522 231.151C293.34 229.332 281.906 227.148 268.898 225.693C243.082 222.805 211.228 222.804 186.28 234.055L218.397 388.16L282.997 386.901C284.35 380.83 291.721 344.268 298.938 308.299C302.735 289.371 306.486 270.625 309.288 256.612C310.689 249.605 311.853 243.781 312.666 239.709C313.073 237.673 313.392 236.075 313.609 234.985L313.77 234.18Z" fill="#2C2C2C"/>
<path d="M295.653 228.941C273.56 224.499 236.206 219.435 204.105 227.078C207.903 251.034 211.701 275.013 215.498 298.969C218.555 315.21 233.96 326.03 250.034 326.125C266.108 326.03 281.513 315.234 284.571 298.969C288.249 275.611 291.951 252.276 295.653 228.941Z" fill="#50BFD7"/>
<path fill-rule="evenodd" clip-rule="evenodd" d="M203.884 226.149C236.194 218.456 273.719 223.556 295.841 228.005L296.74 228.185L296.596 229.091C292.894 252.426 289.192 275.76 285.514 299.118L285.512 299.132L285.51 299.145C282.354 315.932 266.494 326.983 250.04 327.08L250.034 327.08L250.029 327.08C233.574 326.983 217.715 315.908 214.559 299.146L214.557 299.132L214.555 299.119C212.656 287.142 210.757 275.159 208.859 263.177L208.858 263.173C206.96 251.189 205.061 239.206 203.162 227.228L203.023 226.354L203.884 226.149ZM205.188 227.806C207.04 239.49 208.893 251.18 210.745 262.87L210.745 262.874C212.644 274.853 214.542 286.832 216.44 298.806C219.404 314.517 234.348 325.074 250.034 325.17C265.722 325.074 280.664 314.54 283.629 298.806C287.259 275.755 290.912 252.726 294.565 229.698C272.603 225.348 236.454 220.604 205.188 227.806Z" fill="#2C2C2C"/>
<path d="M247.312 237.42C254.859 237.42 266.586 235.127 266.586 227.604L264.651 202.478L262.956 180.504C262.956 172.957 256.841 166.867 249.318 166.867C245.544 166.867 242.153 168.395 239.669 170.855C237.209 173.315 235.656 176.731 235.656 180.504L233.984 202.501L232.384 223.591C230.211 236.321 247.312 237.42 247.312 237.42Z" fill="#2C2C2C"/>
<path d="M286.864 44.6764C276.88 32.4 262.932 24.996 245.019 24.996C204.464 24.996 164.84 62.3983 164.84 109.02C164.84 155.641 197.705 193.45 238.26 193.45C242.153 193.45 245.926 193.091 249.581 192.447C249.963 194.501 250.178 196.602 250.178 198.776C250.178 199.158 250.154 199.564 250.154 199.946C361.907 172.814 343.612 37.7739 286.864 44.6764Z" fill="#2C2C2C"/>
<path d="M192.808 164.884C201.317 164.884 208.214 157.987 208.214 149.479C208.214 140.971 201.317 134.074 192.808 134.074C184.3 134.074 177.403 140.971 177.403 149.479C177.403 157.987 184.3 164.884 192.808 164.884Z" fill="#E0E0E0"/>
<path fill-rule="evenodd" clip-rule="evenodd" d="M192.808 135.029C184.828 135.029 178.358 141.499 178.358 149.479C178.358 157.459 184.828 163.929 192.808 163.929C200.789 163.929 207.258 157.459 207.258 149.479C207.258 141.499 200.789 135.029 192.808 135.029ZM176.448 149.479C176.448 140.443 183.773 133.119 192.808 133.119C201.844 133.119 209.169 140.443 209.169 149.479C209.169 158.515 201.844 165.84 192.808 165.84C183.773 165.84 176.448 158.515 176.448 149.479Z" fill="#2C2C2C"/>
<path d="M301.289 164.884C309.797 164.884 316.695 157.987 316.695 149.479C316.695 140.971 309.797 134.074 301.289 134.074C292.781 134.074 285.884 140.971 285.884 149.479C285.884 157.987 292.781 164.884 301.289 164.884Z" fill="#E0E0E0"/>
<path fill-rule="evenodd" clip-rule="evenodd" d="M301.289 135.029C293.309 135.029 286.839 141.499 286.839 149.479C286.839 157.459 293.309 163.929 301.289 163.929C309.27 163.929 315.739 157.459 315.739 149.479C315.739 141.499 309.27 135.029 301.289 135.029ZM284.929 149.479C284.929 140.443 292.254 133.119 301.289 133.119C310.325 133.119 317.65 140.443 317.65 149.479C317.65 158.515 310.325 165.84 301.289 165.84C292.254 165.84 284.929 158.515 284.929 149.479Z" fill="#2C2C2C"/>
<path d="M248.506 213.751C281.575 213.751 308.383 175.801 308.383 128.987C308.383 82.1729 281.575 44.2227 248.506 44.2227C215.437 44.2227 188.629 82.1729 188.629 128.987C188.629 175.801 215.437 213.751 248.506 213.751Z" fill="#E0E0E0"/>
<path fill-rule="evenodd" clip-rule="evenodd" d="M206.947 69.6006C196.238 84.7605 189.584 105.754 189.584 128.987C189.584 152.22 196.238 173.213 206.947 188.373C217.657 203.535 232.365 212.796 248.506 212.796C264.647 212.796 279.354 203.535 290.065 188.373C300.774 173.213 307.428 152.22 307.428 128.987C307.428 105.754 300.774 84.7605 290.065 69.6006C279.354 54.4383 264.647 45.1779 248.506 45.1779C232.365 45.1779 217.657 54.4383 206.947 69.6006ZM205.386 68.4982C216.347 52.9819 231.578 43.2672 248.506 43.2672C265.434 43.2672 280.665 52.9819 291.626 68.4982C302.588 84.017 309.338 105.406 309.338 128.987C309.338 152.568 302.588 173.957 291.626 189.475C280.665 204.992 265.434 214.706 248.506 214.706C231.578 214.706 216.347 204.992 205.386 189.475C194.424 173.957 187.673 152.568 187.673 128.987C187.673 105.406 194.424 84.017 205.386 68.4982Z" fill="#2C2C2C"/>
<path d="M179.887 110.19C179.887 110.19 230.856 112.674 247.837 82.0071C247.837 82.0071 284.714 113.916 319.919 111.432L316.599 97.3406L302.937 70.3995L294.65 60.4637L277.668 42.6463L254.883 33.1166L227.536 36.8425L191.065 61.7057L186.503 78.2812L179.887 110.19Z" fill="#2C2C2C"/>
<path d="M249.963 162.114C249.987 162.257 249.676 162.52 248.984 162.52C248.315 162.544 247.288 162.233 246.38 161.374C245.926 160.944 245.52 160.418 245.21 159.749C245.162 159.654 245.138 159.558 245.091 159.463L245.043 159.32L244.995 159.2L244.923 158.985C244.899 158.89 244.876 158.77 244.828 158.675C244.732 158.316 244.661 157.934 244.637 157.528C244.493 155.952 244.804 154.352 245.186 152.823C246.667 146.709 248.41 141.908 249.055 142.051C249.7 142.219 249.031 147.282 247.551 153.396C247.168 154.901 246.882 156.262 246.882 157.409C246.882 157.695 246.906 157.982 246.93 158.245L246.953 158.34V158.388V158.412V158.436C246.953 158.436 246.93 158.364 246.953 158.388L247.001 158.627L247.025 158.746L247.049 158.818L247.097 158.961C247.24 159.415 247.455 159.845 247.694 160.179C248.172 160.872 248.745 161.302 249.199 161.541C249.628 161.851 249.939 161.947 249.963 162.114Z" fill="#2C2C2C"/>
<path d="M232.933 133.477C232.933 140.284 227.034 145.801 219.773 145.801C212.489 145.801 206.613 140.284 206.613 133.477C206.613 126.67 212.513 121.153 219.773 121.153C227.01 121.153 232.933 126.67 232.933 133.477Z" fill="white"/>
<path fill-rule="evenodd" clip-rule="evenodd" d="M219.774 122.108C212.98 122.108 207.569 127.256 207.569 133.477C207.569 139.699 212.957 144.846 219.774 144.846C226.567 144.846 231.978 139.698 231.978 133.477C231.978 127.257 226.544 122.108 219.774 122.108ZM205.658 133.477C205.658 126.084 212.046 120.198 219.774 120.198C227.477 120.198 233.889 126.083 233.889 133.477C233.889 140.87 227.502 146.756 219.774 146.756C212.021 146.756 205.658 140.869 205.658 133.477Z" fill="#2C2C2C"/>
<path d="M213.301 132.713C213.301 138.326 216.956 142.887 221.446 142.887C225.936 142.887 229.59 138.326 229.59 132.713C229.59 127.1 225.936 122.538 221.446 122.538C216.956 122.514 213.301 127.076 213.301 132.713Z" fill="#50BFD7"/>
<path d="M215.666 132.713C215.666 136.701 218.245 139.926 221.445 139.926C224.646 139.926 227.225 136.701 227.225 132.713C227.225 128.724 224.646 125.476 221.445 125.476C218.245 125.476 215.666 128.7 215.666 132.713Z" fill="#2C2C2C"/>
<path d="M215.307 125.858C215.307 126.957 216.645 127.816 218.293 127.816C219.941 127.816 221.278 126.933 221.278 125.858C221.278 124.759 219.941 123.9 218.293 123.9C216.645 123.876 215.307 124.759 215.307 125.858Z" fill="white"/>
<path d="M236.684 114.632C236.684 114.632 218.914 96.9105 199.807 117.952C199.807 117.952 216.334 107.372 236.684 114.632Z" fill="#2C2C2C"/>
<path d="M290.183 133.477C290.183 140.284 284.284 145.801 277.023 145.801C269.739 145.801 263.863 140.284 263.863 133.477C263.863 126.67 269.763 121.153 277.023 121.153C284.284 121.153 290.183 126.67 290.183 133.477Z" fill="white"/>
<path fill-rule="evenodd" clip-rule="evenodd" d="M277.023 122.108C270.23 122.108 264.818 127.256 264.818 133.477C264.818 139.699 270.207 144.846 277.023 144.846C283.817 144.846 289.228 139.698 289.228 133.477C289.228 127.256 283.817 122.108 277.023 122.108ZM262.908 133.477C262.908 126.084 269.295 120.198 277.023 120.198C284.751 120.198 291.139 126.084 291.139 133.477C291.139 140.87 284.751 146.756 277.023 146.756C269.27 146.756 262.908 140.869 262.908 133.477Z" fill="#2C2C2C"/>
<path d="M270.575 132.713C270.575 138.326 274.229 142.887 278.719 142.887C283.209 142.887 286.864 138.326 286.864 132.713C286.864 127.1 283.209 122.538 278.719 122.538C274.205 122.514 270.575 127.076 270.575 132.713Z" fill="#50BFD7"/>
<path d="M272.915 132.713C272.915 136.701 275.494 139.926 278.695 139.926C281.895 139.926 284.475 136.701 284.475 132.713C284.475 128.724 281.895 125.476 278.695 125.476C275.518 125.476 272.915 128.7 272.915 132.713Z" fill="#2C2C2C"/>
<path d="M272.557 125.858C272.557 126.957 273.895 127.816 275.543 127.816C277.191 127.816 278.528 126.933 278.528 125.858C278.528 124.759 277.191 123.9 275.543 123.9C273.895 123.876 272.557 124.759 272.557 125.858Z" fill="white"/>
<path d="M293.957 112.698C293.957 112.698 276.187 94.9761 257.08 116.018C257.056 116.018 273.584 105.437 293.957 112.698Z" fill="#2C2C2C"/>
<path d="M229.064 175.656C229.662 180.29 231.907 184.565 235.418 187.67C238.929 190.775 243.443 192.47 248.124 192.47C252.805 192.47 257.319 190.775 260.83 187.67C264.341 184.565 266.61 180.314 267.183 175.656H229.064Z" fill="white"/>
<path fill-rule="evenodd" clip-rule="evenodd" d="M227.978 174.701H268.263L268.131 175.773C267.529 180.665 265.146 185.129 261.463 188.385C257.776 191.646 253.036 193.426 248.124 193.426C243.211 193.426 238.472 191.646 234.785 188.385C231.099 185.126 228.743 180.639 228.117 175.778L227.978 174.701ZM230.183 176.611C230.938 180.6 232.988 184.246 236.05 186.954C239.385 189.903 243.674 191.515 248.124 191.515C252.574 191.515 256.862 189.903 260.197 186.954C263.265 184.241 265.332 180.612 266.07 176.611H230.183Z" fill="#2C2C2C"/>
<path d="M266.443 396.75C266.443 397.347 266.968 398.039 267.589 397.968C274.635 397.227 280.033 391.782 286.983 392.928C280.009 396.391 273.966 402.41 274.826 411.271C274.922 412.37 275.973 412.8 276.785 412.131C281.776 407.88 287.508 404.082 294.196 405.491C297.062 406.088 300.43 407.211 303.391 406.829C307.81 406.279 311.536 404.273 313.733 399.998C317.602 392.594 316.169 383.709 307.499 381.87C307.284 381.822 307.117 381.846 306.926 381.918C303.726 380.652 300.812 379.052 298.232 376.257C295.749 373.534 293.432 370.525 290.733 368.017C287.126 364.65 283.209 361.999 278.433 364.268C277.716 364.602 277.764 365.629 278.218 366.178C280.319 368.782 282.779 371.266 285.359 373.654C282.779 373.057 280.176 372.746 277.501 372.961C272.724 373.367 267.088 376.544 267.207 382.228C267.231 382.945 267.733 383.375 268.354 383.446C272.748 383.9 277.167 383.828 281.537 384.282C274.731 386.289 266.371 388.581 266.443 396.75Z" fill="#E0E0E0"/>
<path fill-rule="evenodd" clip-rule="evenodd" d="M285.372 363.14C287.574 364.009 289.562 365.618 291.384 367.318C293.21 369.015 294.895 370.972 296.53 372.87C297.341 373.811 298.139 374.738 298.936 375.612C301.309 378.181 303.985 379.699 306.989 380.915C307.207 380.878 307.441 380.879 307.701 380.937C312.38 381.93 315.182 384.869 316.237 388.587C317.277 392.248 316.601 396.572 314.581 400.438C312.209 405.051 308.168 407.197 303.512 407.777C301.879 407.987 300.179 407.779 298.574 407.465C297.767 407.307 296.968 407.118 296.203 406.935C296.122 406.916 296.041 406.896 295.961 406.877C295.278 406.713 294.627 406.557 294.001 406.427L293.999 406.426C287.799 405.12 282.392 408.611 277.404 412.859L277.398 412.864L277.392 412.869C276.742 413.404 275.901 413.56 275.16 413.242C274.419 412.925 273.95 412.209 273.875 411.359C273.097 403.324 277.672 397.557 283.444 393.837C281.523 394.098 279.652 394.792 277.694 395.621C277.258 395.805 276.817 395.996 276.37 396.191C273.719 397.342 270.86 398.584 267.693 398.918C266.979 398.998 266.407 398.631 266.064 398.239C265.722 397.848 265.489 397.31 265.487 396.755C265.449 392.255 267.772 389.367 270.902 387.397C272.552 386.358 274.454 385.557 276.383 384.884C275.895 384.862 275.405 384.84 274.913 384.819L274.893 384.818C272.704 384.723 270.479 384.627 268.255 384.397L268.25 384.396L268.244 384.396C267.223 384.278 266.294 383.517 266.252 382.26L266.252 382.254L266.252 382.249C266.184 379.044 267.754 376.562 269.93 374.863C272.087 373.178 274.873 372.226 277.42 372.01L277.422 372.009L277.424 372.009C279.112 371.874 280.765 371.939 282.392 372.146C280.639 370.419 278.972 368.633 277.477 366.782C277.093 366.314 276.898 365.683 276.932 365.088C276.967 364.472 277.269 363.758 278.025 363.404C280.673 362.147 283.122 362.252 285.372 363.14ZM278.852 365.126C278.847 365.139 278.842 365.162 278.84 365.197C278.836 365.256 278.845 365.329 278.869 365.405C278.893 365.48 278.926 365.536 278.954 365.57L278.957 365.574L278.961 365.578C281.022 368.132 283.446 370.581 286.008 372.953L288.646 375.396L285.143 374.585C282.631 374.003 280.13 373.709 277.58 373.914C275.35 374.104 272.931 374.943 271.106 376.369C269.301 377.779 268.112 379.725 268.162 382.201C268.167 382.327 268.207 382.379 268.232 382.404C268.265 382.437 268.335 382.482 268.458 382.497C270.62 382.72 272.793 382.814 274.996 382.91L275.003 382.91C277.196 383.006 279.42 383.102 281.636 383.332L286.446 383.832L281.807 385.199C281.688 385.234 281.569 385.269 281.45 385.304C278.111 386.287 274.619 387.315 271.919 389.014C269.186 390.734 267.366 393.075 267.398 396.742L267.398 396.746V396.75C267.398 396.762 267.402 396.798 267.422 396.848C267.442 396.898 267.471 396.945 267.502 396.981C267.515 396.995 267.526 397.006 267.535 397.013C270.369 396.706 272.915 395.604 275.565 394.456C276.023 394.258 276.484 394.058 276.95 393.861C280.065 392.543 283.373 391.365 287.138 391.986L290.059 392.468L287.408 393.784C280.584 397.173 274.973 402.9 275.777 411.179L275.777 411.184L275.778 411.189C275.789 411.317 275.824 411.391 275.849 411.428C275.875 411.465 275.898 411.48 275.913 411.486C275.928 411.492 275.951 411.498 275.988 411.492C276.025 411.486 276.089 411.465 276.172 411.398C281.166 407.145 287.22 403.046 294.392 404.556C295.047 404.693 295.727 404.856 296.405 405.019C296.486 405.038 296.567 405.058 296.648 405.077C297.413 405.26 298.178 405.44 298.941 405.59C300.477 405.891 301.94 406.053 303.269 405.882L303.271 405.881L303.273 405.881C307.452 405.361 310.861 403.496 312.883 399.561L312.885 399.559L312.886 399.556C314.735 396.018 315.276 392.199 314.399 389.108C313.538 386.073 311.29 383.651 307.301 382.805L307.296 382.804L307.292 382.803C307.291 382.803 307.291 382.803 307.29 382.803C307.284 382.805 307.274 382.808 307.261 382.813L306.917 382.942L306.575 382.806C303.296 381.51 300.241 379.842 297.53 376.906L297.528 376.903L297.526 376.901C296.648 375.939 295.811 374.966 294.983 374.003C293.393 372.156 291.835 370.346 290.082 368.717L290.081 368.716C288.296 367.049 286.523 365.649 284.671 364.918C282.869 364.207 280.976 364.12 278.852 365.126Z" fill="#2C2C2C"/>
<path fill-rule="evenodd" clip-rule="evenodd" d="M187.435 124.497V124.974H185.524V124.497H187.435Z" fill="#2C2C2C"/>
<path fill-rule="evenodd" clip-rule="evenodd" d="M197.466 129.751V130.229H195.555V129.751H197.466Z" fill="#2C2C2C"/>
<path d="M251.778 126.933C255.05 127.625 253.832 129.751 253.832 130.061C253.832 130.372 255.05 148.046 270.838 152.703C286.625 157.361 296.083 148.213 298.83 143.628C301.576 139.042 303.869 128.151 304.538 127.315C305.23 126.479 308.503 125.022 308.503 125.022L308.885 120.747L304.777 119.529C304.777 119.529 294.411 114.8 279.149 114.585C263.911 114.346 255.289 123.135 255.289 123.135C250.99 121.774 245.664 121.583 240.791 123.135C240.791 123.135 232.169 114.37 216.931 114.585C201.693 114.823 191.304 119.529 191.304 119.529L187.196 120.747L187.578 125.022C187.578 125.022 190.85 126.479 191.543 127.315C192.235 128.151 194.504 139.066 197.251 143.628C199.998 148.213 209.456 157.361 225.243 152.703C241.03 148.046 242.248 130.372 242.248 130.061C242.248 129.751 241.03 127.625 244.302 126.933C247.168 126.336 248.936 126.336 251.778 126.933ZM289.682 149.049C277.644 156.286 263.219 148.978 258.872 139.448C254.525 129.918 258.179 124.879 258.179 124.879C265.44 113.032 294.769 112.531 299.809 125.332C300.669 127.482 301.719 141.812 289.682 149.049ZM196.272 125.332C201.311 112.507 230.641 113.032 237.901 124.879C237.901 124.879 241.556 129.918 237.209 139.448C232.862 148.978 218.46 156.286 206.399 149.049C194.385 141.812 195.436 127.482 196.272 125.332Z" fill="#2C2C2C"/>
<path d="M259.182 255.19H240.839C235.967 255.19 232.002 259.154 232.002 264.027V282.37C232.002 287.242 235.967 291.207 240.839 291.207H259.182C264.054 291.207 268.019 287.242 268.019 282.37V264.027C268.019 259.154 264.054 255.19 259.182 255.19ZM227.106 247.38C224.311 247.38 222.042 249.649 222.042 252.443C222.042 255.237 224.311 257.506 227.106 257.506C229.9 257.506 232.169 255.237 232.169 252.443C232.169 249.649 229.9 247.38 227.106 247.38Z" fill="white"/>
<path d="M257.869 266.129C256.698 263 253.713 260.922 250.369 260.922H245.401L255.217 285.809H265.75L257.869 266.129ZM237.83 278.668L234.964 285.809H245.425L250.297 273.461H245.33C241.986 273.461 238.976 275.539 237.83 278.668ZM239.454 267.108C241.174 267.108 242.583 265.699 242.583 263.979C242.583 262.259 241.174 260.85 239.454 260.85C237.734 260.85 236.325 262.259 236.325 263.979C236.325 265.699 237.711 267.108 239.454 267.108Z" fill="#50BFD7"/>
<path d="M282.556 349.835C267.455 348.454 252.543 347.89 252.543 347.89C247.063 348.057 235.392 348.538 223.345 349.835C226.859 361.84 238.781 370.687 252.94 370.687C267.121 370.708 279.042 361.819 282.556 349.835Z" fill="#50BFD7"/>
<path d="M265.322 371.65C265.322 372.173 265.782 372.779 266.326 372.716C272.496 372.068 277.223 367.299 283.309 368.303C277.202 371.336 271.91 376.607 272.663 384.366C272.747 385.328 273.667 385.705 274.378 385.119C278.75 381.396 283.769 378.071 289.626 379.305C292.135 379.828 295.084 380.811 297.678 380.476C301.547 379.995 304.81 378.238 306.734 374.494C310.122 368.01 308.868 360.23 301.275 358.62C301.087 358.578 300.941 358.599 300.773 358.661C297.971 357.553 295.419 356.152 293.16 353.705C290.985 351.32 288.956 348.685 286.593 346.489C283.435 343.54 280.005 341.218 275.822 343.205C275.194 343.498 275.236 344.397 275.633 344.878C277.474 347.158 279.628 349.333 281.887 351.425C279.628 350.902 277.348 350.63 275.006 350.818C270.823 351.174 265.887 353.955 265.991 358.933C266.012 359.561 266.452 359.937 266.995 360C270.844 360.397 274.713 360.335 278.541 360.732C272.58 362.489 265.259 364.497 265.322 371.65Z" fill="#C4C4C4"/>
<path fill-rule="evenodd" clip-rule="evenodd" d="M281.898 342.217C283.826 342.978 285.568 344.387 287.163 345.876C288.762 347.362 290.237 349.075 291.669 350.738C292.379 351.562 293.078 352.373 293.776 353.139C295.854 355.388 298.197 356.718 300.829 357.782C301.019 357.751 301.224 357.752 301.452 357.802C305.549 358.672 308.003 361.246 308.927 364.501C309.837 367.707 309.245 371.494 307.477 374.879C305.399 378.919 301.861 380.798 297.783 381.306C296.354 381.49 294.865 381.308 293.459 381.033C292.753 380.894 292.053 380.729 291.383 380.569C291.312 380.552 291.241 380.535 291.171 380.518C290.573 380.374 290.003 380.238 289.455 380.123L289.453 380.123C284.024 378.979 279.288 382.036 274.921 385.756L274.915 385.76L274.91 385.765C274.341 386.233 273.605 386.37 272.956 386.092C272.307 385.814 271.896 385.187 271.83 384.443C271.149 377.406 275.155 372.356 280.21 369.099C278.528 369.327 276.89 369.935 275.175 370.66C274.793 370.822 274.407 370.99 274.016 371.16C271.694 372.168 269.19 373.256 266.417 373.548C265.792 373.618 265.291 373.297 264.99 372.953C264.691 372.611 264.486 372.14 264.485 371.654C264.452 367.713 266.486 365.184 269.227 363.459C270.672 362.549 272.338 361.848 274.027 361.259C273.599 361.239 273.17 361.22 272.739 361.201L272.722 361.201C270.805 361.117 268.856 361.033 266.909 360.832L266.904 360.831L266.899 360.831C266.005 360.728 265.192 360.061 265.155 358.961L265.155 358.956L265.155 358.951C265.096 356.144 266.47 353.971 268.376 352.483C270.264 351.007 272.705 350.174 274.935 349.984L274.937 349.984L274.939 349.984C276.416 349.865 277.864 349.922 279.289 350.103C277.753 348.591 276.293 347.027 274.985 345.407C274.648 344.997 274.478 344.444 274.508 343.923C274.538 343.383 274.802 342.759 275.465 342.448C277.783 341.347 279.928 341.44 281.898 342.217ZM276.188 343.957C276.185 343.968 276.18 343.988 276.178 344.018C276.175 344.07 276.183 344.134 276.204 344.2C276.225 344.266 276.254 344.316 276.278 344.345L276.281 344.349L276.284 344.352C278.089 346.589 280.212 348.733 282.455 350.811L284.765 352.949L281.698 352.239C279.498 351.73 277.308 351.472 275.074 351.652C273.122 351.818 271.004 352.553 269.406 353.801C267.825 355.036 266.784 356.741 266.827 358.909C266.832 359.019 266.867 359.064 266.889 359.087C266.918 359.116 266.979 359.155 267.087 359.168C268.98 359.363 270.883 359.446 272.812 359.53L272.819 359.53C274.739 359.614 276.686 359.698 278.627 359.9L282.839 360.337L278.777 361.534C278.673 361.565 278.568 361.596 278.464 361.626C275.54 362.487 272.482 363.387 270.118 364.875C267.725 366.381 266.13 368.431 266.158 371.642L266.158 371.646V371.649C266.158 371.66 266.162 371.691 266.179 371.735C266.197 371.779 266.222 371.82 266.25 371.851C266.261 371.864 266.271 371.873 266.278 371.88C268.76 371.611 270.99 370.645 273.31 369.641C273.711 369.467 274.115 369.292 274.523 369.119C277.251 367.966 280.148 366.934 283.445 367.478L286.003 367.899L283.681 369.052C277.705 372.02 272.792 377.035 273.496 384.285L273.496 384.289L273.497 384.293C273.506 384.406 273.537 384.47 273.559 384.503C273.581 384.536 273.602 384.548 273.615 384.554C273.628 384.559 273.649 384.564 273.681 384.559C273.713 384.553 273.77 384.535 273.842 384.476C278.215 380.753 283.517 377.163 289.797 378.486C290.371 378.605 290.966 378.748 291.56 378.89C291.631 378.907 291.702 378.924 291.772 378.941C292.442 379.102 293.112 379.26 293.781 379.391C295.125 379.654 296.407 379.796 297.571 379.646L297.572 379.646L297.574 379.645C301.233 379.19 304.219 377.557 305.99 374.111L305.991 374.109L305.992 374.106C307.611 371.009 308.085 367.664 307.317 364.958C306.563 362.3 304.595 360.179 301.101 359.438L301.098 359.437L301.094 359.436C301.093 359.436 301.093 359.436 301.092 359.436C301.087 359.437 301.078 359.44 301.067 359.444L300.765 359.558L300.465 359.439C297.595 358.304 294.919 356.843 292.545 354.272L292.544 354.27L292.542 354.268C291.773 353.425 291.04 352.573 290.314 351.73C288.922 350.113 287.558 348.527 286.023 347.101L286.022 347.1C284.459 345.64 282.906 344.414 281.284 343.774C279.707 343.151 278.049 343.076 276.188 343.957Z" fill="#2C2C2C"/>
<path fill-rule="evenodd" clip-rule="evenodd" d="M503.941 392.524C503.941 392.106 504.28 391.767 504.699 391.767H529.655C530.073 391.767 530.412 392.106 530.412 392.524C530.412 392.942 530.073 393.281 529.655 393.281H504.699C504.28 393.281 503.941 392.942 503.941 392.524Z" fill="#2C2C2C"/>
<path fill-rule="evenodd" clip-rule="evenodd" d="M33.3423 392.524C33.3423 392.106 33.6814 391.767 34.0996 391.767H496.38C496.798 391.767 497.137 392.106 497.137 392.524C497.137 392.942 496.798 393.281 496.38 393.281H34.0996C33.6814 393.281 33.3423 392.942 33.3423 392.524Z" fill="#2C2C2C"/>
<path fill-rule="evenodd" clip-rule="evenodd" d="M0.840332 392.524C0.840332 392.106 1.17941 391.767 1.59768 391.767H18.6509C19.0692 391.767 19.4083 392.106 19.4083 392.524C19.4083 392.942 19.0692 393.281 18.6509 393.281H1.59768C1.17941 393.281 0.840332 392.942 0.840332 392.524Z" fill="#2C2C2C"/>
<path d="M150.524 310.716H331.445C333.61 310.716 335.686 311.576 337.216 313.107C338.747 314.637 339.607 316.713 339.607 318.878V420.519H142.363V318.878C142.363 316.713 143.223 314.637 144.753 313.107C146.284 311.576 148.36 310.716 150.524 310.716Z" fill="white"/>
<path fill-rule="evenodd" clip-rule="evenodd" d="M150.524 311.757C148.636 311.757 146.824 312.507 145.489 313.842C144.153 315.178 143.403 316.989 143.403 318.878V419.479H338.567V318.878C338.567 316.989 337.816 315.178 336.481 313.842C335.145 312.507 333.334 311.757 331.445 311.757H150.524ZM144.018 312.371C145.743 310.646 148.084 309.676 150.524 309.676H331.445C333.886 309.676 336.226 310.646 337.952 312.371C339.678 314.097 340.647 316.437 340.647 318.878V420.519C340.647 421.094 340.181 421.56 339.607 421.56H142.363C141.788 421.56 141.323 421.094 141.323 420.519V318.878C141.323 316.437 142.292 314.097 144.018 312.371Z" fill="#2C2C2C"/>
<path d="M339.607 347.247C314.829 353.531 289.398 369.527 242.013 392.052C196.309 413.794 158.898 413.419 142.363 411.738V420.519H339.607V347.247Z" fill="#2C2C2C"/>
<path fill-rule="evenodd" clip-rule="evenodd" d="M340.246 346.426C340.499 346.623 340.647 346.926 340.647 347.247V420.519C340.647 421.094 340.181 421.56 339.607 421.56H142.363C141.788 421.56 141.323 421.094 141.323 420.519V411.738C141.323 411.444 141.447 411.163 141.666 410.966C141.884 410.769 142.176 410.673 142.468 410.703C158.861 412.37 196.073 412.755 241.566 391.113L241.567 391.113C257.173 383.694 270.378 376.993 281.98 371.106C287.989 368.057 293.567 365.226 298.827 362.627C314.213 355.022 326.849 349.409 339.351 346.238C339.662 346.16 339.992 346.229 340.246 346.426ZM242.46 392.992C197.569 414.347 160.614 414.474 143.403 412.884V419.479H338.567V348.593C326.707 351.76 314.578 357.163 299.749 364.492C294.524 367.074 288.963 369.896 282.963 372.94C271.345 378.836 258.086 385.564 242.46 392.992Z" fill="#2C2C2C"/>
<path d="M339.607 414.432H142.363V420.536H339.607V414.432Z" fill="white"/>
<path fill-rule="evenodd" clip-rule="evenodd" d="M141.323 414.432C141.323 413.857 141.788 413.392 142.363 413.392H339.607C340.181 413.392 340.647 413.857 340.647 414.432V420.537C340.647 421.111 340.181 421.577 339.607 421.577H142.363C141.788 421.577 141.323 421.111 141.323 420.537V414.432ZM143.403 415.472V419.496H338.567V415.472H143.403Z" fill="#2C2C2C"/>
</svg>
