<svg width="553" height="429" viewBox="0 0 553 429" fill="none" xmlns="http://www.w3.org/2000/svg">
<path d="M452.193 122.152C452.193 122.152 435.583 57.8235 335.028 17.2547C234.473 -23.3142 144.512 14.2598 124.003 61.7977C103.495 109.336 124.988 135.006 111.302 175.603C97.6167 216.201 27.308 267.618 55.6835 329.969C84.0591 392.319 216.839 410.127 324.286 397.263C431.733 384.4 515.679 241.89 452.193 122.152Z" fill="#50BFD7"/>
<path opacity="0.7" d="M452.193 122.152C452.193 122.152 435.583 57.8235 335.028 17.2547C234.473 -23.3142 144.512 14.2598 124.003 61.7977C103.495 109.336 124.988 135.006 111.302 175.603C97.6167 216.201 27.308 267.618 55.6835 329.969C84.0591 392.319 216.839 410.127 324.286 397.263C431.733 384.4 515.679 241.89 452.193 122.152Z" fill="white"/>
<path d="M304.398 348.835C289.298 347.454 274.385 346.89 274.385 346.89C268.905 347.057 257.235 347.538 245.188 348.835C248.701 360.84 260.623 369.687 274.782 369.687C288.963 369.708 300.885 360.819 304.398 348.835Z" fill="#50BFD7"/>
<path d="M287.164 370.65C287.164 371.173 287.625 371.779 288.168 371.716C294.338 371.068 299.065 366.299 305.152 367.303C299.044 370.336 293.753 375.607 294.506 383.366C294.589 384.328 295.51 384.705 296.221 384.119C300.592 380.396 305.612 377.071 311.468 378.305C313.978 378.828 316.927 379.811 319.52 379.476C323.39 378.995 326.652 377.238 328.576 373.494C331.965 367.01 330.71 359.23 323.118 357.62C322.929 357.578 322.783 357.599 322.616 357.661C319.813 356.553 317.261 355.152 315.003 352.705C312.827 350.32 310.799 347.685 308.435 345.489C305.277 342.54 301.847 340.218 297.664 342.205C297.036 342.498 297.078 343.397 297.476 343.878C299.316 346.158 301.47 348.333 303.729 350.425C301.47 349.902 299.191 349.63 296.848 349.818C292.665 350.174 287.729 352.955 287.834 357.933C287.855 358.561 288.294 358.937 288.838 359C292.686 359.397 296.555 359.335 300.383 359.732C294.422 361.489 287.102 363.497 287.164 370.65Z" fill="#C4C4C4"/>
<path fill-rule="evenodd" clip-rule="evenodd" d="M303.741 341.217C305.668 341.978 307.41 343.387 309.005 344.876C310.604 346.362 312.08 348.075 313.512 349.738C314.222 350.562 314.921 351.373 315.619 352.139C317.696 354.388 320.04 355.718 322.671 356.782C322.862 356.751 323.066 356.752 323.294 356.802C327.391 357.672 329.845 360.246 330.769 363.501C331.679 366.707 331.087 370.494 329.319 373.879C327.242 377.919 323.703 379.798 319.625 380.306C318.196 380.49 316.707 380.308 315.302 380.033C314.595 379.894 313.895 379.729 313.225 379.569C313.154 379.552 313.083 379.535 313.013 379.518C312.415 379.374 311.845 379.238 311.297 379.123L311.295 379.123C305.866 377.979 301.131 381.036 296.763 384.756L296.758 384.76L296.752 384.765C296.183 385.233 295.447 385.37 294.798 385.092C294.149 384.814 293.738 384.187 293.672 383.443C292.991 376.406 296.998 371.356 302.052 368.099C300.37 368.327 298.732 368.935 297.017 369.66C296.635 369.822 296.249 369.99 295.858 370.16C293.536 371.168 291.033 372.256 288.259 372.548C287.634 372.618 287.133 372.297 286.833 371.953C286.533 371.611 286.329 371.14 286.328 370.654C286.294 366.713 288.328 364.184 291.069 362.459C292.514 361.549 294.18 360.848 295.869 360.259C295.441 360.239 295.012 360.22 294.582 360.201L294.564 360.201C292.647 360.117 290.699 360.033 288.751 359.832L288.746 359.831L288.741 359.831C287.847 359.728 287.034 359.061 286.997 357.961L286.997 357.956L286.997 357.951C286.938 355.144 288.312 352.971 290.218 351.483C292.107 350.007 294.547 349.174 296.777 348.984L296.779 348.984L296.781 348.984C298.259 348.865 299.707 348.922 301.131 349.103C299.596 347.591 298.136 346.027 296.827 344.407C296.49 343.997 296.32 343.444 296.35 342.923C296.381 342.383 296.644 341.759 297.307 341.448C299.626 340.347 301.771 340.44 303.741 341.217ZM298.031 342.957C298.027 342.968 298.022 342.988 298.02 343.018C298.017 343.07 298.025 343.134 298.046 343.2C298.067 343.266 298.096 343.316 298.12 343.345L298.123 343.349L298.126 343.352C299.932 345.589 302.054 347.733 304.297 349.811L306.607 351.949L303.54 351.239C301.34 350.73 299.15 350.472 296.917 350.652C294.964 350.818 292.846 351.553 291.248 352.801C289.667 354.036 288.626 355.741 288.67 357.909C288.674 358.019 288.709 358.064 288.731 358.087C288.76 358.116 288.821 358.155 288.929 358.168C290.823 358.363 292.725 358.446 294.654 358.53L294.661 358.53C296.581 358.614 298.528 358.698 300.469 358.9L304.681 359.337L300.619 360.534C300.515 360.565 300.411 360.596 300.306 360.626C297.383 361.487 294.324 362.387 291.96 363.875C289.567 365.381 287.973 367.431 288.001 370.642L288.001 370.646V370.649C288.001 370.66 288.004 370.691 288.022 370.735C288.039 370.779 288.064 370.82 288.092 370.851C288.103 370.864 288.113 370.873 288.12 370.88C290.602 370.611 292.832 369.645 295.152 368.641C295.553 368.467 295.957 368.292 296.365 368.119C299.093 366.966 301.99 365.934 305.287 366.478L307.845 366.899L305.523 368.052C299.548 371.02 294.635 376.035 295.338 383.285L295.338 383.289L295.339 383.293C295.349 383.406 295.38 383.47 295.402 383.503C295.424 383.536 295.444 383.548 295.457 383.554C295.47 383.559 295.491 383.564 295.523 383.559C295.555 383.553 295.612 383.535 295.684 383.476C300.058 379.753 305.359 376.163 311.639 377.486C312.213 377.605 312.809 377.748 313.402 377.89C313.473 377.907 313.544 377.924 313.615 377.941C314.285 378.102 314.954 378.26 315.623 378.391C316.968 378.654 318.249 378.796 319.413 378.646L319.415 378.646L319.417 378.645C323.076 378.19 326.061 376.557 327.832 373.111L327.833 373.109L327.835 373.106C329.454 370.009 329.928 366.664 329.16 363.958C328.405 361.3 326.437 359.179 322.944 358.438L322.94 358.437L322.936 358.436C322.935 358.436 322.935 358.436 322.935 358.436C322.929 358.437 322.921 358.44 322.909 358.444L322.607 358.558L322.308 358.439C319.437 357.304 316.761 355.843 314.388 353.272L314.386 353.27L314.384 353.268C313.615 352.425 312.882 351.573 312.156 350.73C310.764 349.113 309.4 347.527 307.865 346.101L307.864 346.1C306.301 344.64 304.749 343.414 303.126 342.774C301.549 342.151 299.891 342.076 298.031 342.957Z" fill="#2C2C2C"/>
<path d="M178.657 253.908L122.777 302.542L109.13 311.98L122.104 326.572H126.114L209.262 275.697L178.657 253.908Z" fill="#2C2C2C"/>
<path d="M313.863 272.753L324.331 346.089L324.828 362.68L344.12 359.719L346.305 356.379L348.799 258.918L313.863 272.753Z" fill="#2C2C2C"/>
<path d="M254.933 241.806C263.001 241.806 275.577 240.137 275.577 234.659L273.51 216.381L271.692 200.393C271.692 194.915 265.143 190.458 257.074 190.458C253.04 190.458 249.38 191.578 246.74 193.371C244.1 195.164 242.457 197.654 242.457 200.393L240.689 216.406L238.97 231.745C236.63 241.009 254.933 241.806 254.933 241.806Z" fill="#2C2C2C"/>
<path d="M353.718 265.612C353.718 281.5 343.309 291.336 327.422 291.336C311.534 291.336 298.66 278.462 298.66 262.574C298.66 246.687 310.662 229.156 325.803 233.912C342.487 239.116 353.718 249.725 353.718 265.612Z" fill="white"/>
<path d="M327.422 292.332C311.011 292.332 297.664 278.985 297.664 262.574C297.664 252.016 302.669 241.258 310.09 235.804C315.02 232.194 320.549 231.198 326.102 232.941C344.529 238.718 354.689 250.322 354.689 265.587C354.714 281.824 343.981 292.332 327.422 292.332ZM320.798 234.111C317.486 234.111 314.248 235.232 311.26 237.423C304.412 242.453 299.656 252.788 299.656 262.574C299.656 277.889 312.107 290.34 327.422 290.34C334.992 290.34 341.367 288.049 345.824 283.716C350.331 279.358 352.722 273.083 352.722 265.612C352.722 251.294 343.06 240.362 325.529 234.858C323.935 234.36 322.366 234.111 320.798 234.111Z" fill="#2C2C2C"/>
<path d="M340.77 260.98C340.77 272.734 333.075 280.006 321.321 280.006C309.567 280.006 300.055 270.493 300.055 258.739C300.055 246.985 308.92 234.011 320.126 237.523C332.452 241.407 340.77 249.251 340.77 260.98Z" fill="#2C2C2C"/>
<path d="M160.703 265.612C160.703 281.5 171.112 291.336 186.999 291.336C202.887 291.336 215.761 278.462 215.761 262.574C215.761 246.687 203.758 229.156 188.618 233.912C171.933 239.116 160.703 249.725 160.703 265.612Z" fill="white"/>
<path d="M186.999 292.332C170.414 292.332 159.707 281.848 159.707 265.612C159.707 250.347 169.867 238.743 188.294 232.965C193.847 231.222 199.4 232.218 204.306 235.829C211.752 241.283 216.732 252.04 216.732 262.599C216.757 278.984 203.41 292.332 186.999 292.332ZM193.623 234.111C192.054 234.111 190.486 234.36 188.917 234.858C171.386 240.361 161.724 251.293 161.724 265.612C161.724 273.083 164.114 279.358 168.621 283.716C173.104 288.049 179.454 290.34 187.024 290.34C202.339 290.34 214.79 277.889 214.79 262.574C214.79 252.787 210.009 242.428 203.186 237.423C200.148 235.207 196.935 234.111 193.623 234.111Z" fill="#2C2C2C"/>
<path d="M173.652 260.98C173.652 272.734 181.347 280.006 193.101 280.006C204.855 280.006 214.367 270.493 214.367 258.739C214.367 246.985 205.502 234.011 194.296 237.523C181.945 241.407 173.652 249.251 173.652 260.98Z" fill="#2C2C2C"/>
<path d="M276.099 222.183H238.223C221.688 223.677 205.875 227.089 191.108 232.144L219.447 377.423C221.489 387.931 230.703 395.527 241.411 395.527H273.435C284.168 395.527 293.406 387.907 295.423 377.348L323.239 232.144C308.472 227.089 292.659 223.677 276.099 222.183Z" fill="white"/>
<path d="M273.435 396.523H241.411C230.254 396.523 220.592 388.579 218.476 377.622L189.963 231.472L190.785 231.198C205.875 226.043 221.788 222.656 238.124 221.187H238.223H276.149H276.199C292.535 222.656 308.472 226.018 323.563 231.198L324.384 231.472L296.394 377.547C294.303 388.529 284.641 396.523 273.435 396.523ZM192.254 232.791L220.418 377.224C222.361 387.234 231.201 394.506 241.411 394.506H273.435C283.669 394.506 292.51 387.209 294.427 377.149L322.069 232.791C307.376 227.836 291.887 224.599 276.025 223.154H238.273C222.41 224.599 206.921 227.836 192.254 232.791Z" fill="#2C2C2C"/>
<path d="M210.631 226.566C214.192 249.077 217.753 271.589 221.314 294.075C224.502 311.009 240.564 322.29 257.323 322.389C274.082 322.29 290.144 311.034 293.331 294.075C296.892 271.589 300.453 249.102 304.014 226.641C295 224.549 285.661 223.03 276.099 222.183H238.223C228.76 223.03 219.546 224.524 210.631 226.566Z" fill="#50BFD7"/>
<path d="M257.348 323.385C248.806 323.335 240.389 320.497 233.641 315.342C226.618 310.013 221.912 302.517 220.343 294.25V294.225L209.511 225.794L210.407 225.595C219.447 223.503 228.785 222.034 238.123 221.187H238.223H276.149H276.199C285.661 222.034 295.099 223.553 304.263 225.669L305.16 225.869L294.327 294.25C292.783 302.517 288.052 309.988 281.03 315.342C274.281 320.497 265.864 323.335 257.348 323.385ZM222.31 293.926C223.78 301.695 228.212 308.743 234.836 313.773C241.261 318.654 249.254 321.368 257.348 321.393C265.441 321.343 273.434 318.629 279.834 313.773C286.458 308.743 290.891 301.695 292.36 293.926L302.894 227.413C294.128 225.42 285.114 224.001 276.049 223.179H238.273C229.333 223.976 220.418 225.371 211.752 227.338L222.31 293.926Z" fill="#2C2C2C"/>
<path d="M266.312 256.274H247.187C242.107 256.274 237.974 260.408 237.974 265.488V284.613C237.974 289.693 242.107 293.826 247.187 293.826H266.312C271.392 293.826 275.526 289.693 275.526 284.613V265.488C275.526 260.408 271.417 256.274 266.312 256.274ZM232.894 248.131C229.98 248.131 227.614 250.497 227.614 253.41C227.614 256.324 229.98 258.69 232.894 258.69C235.807 258.69 238.173 256.324 238.173 253.41C238.173 250.497 235.807 248.131 232.894 248.131Z" fill="white"/>
<path d="M264.967 267.679C263.747 264.417 260.634 262.25 257.148 262.25H251.968L262.203 288.198H273.185L264.967 267.679ZM244.049 280.753L241.061 288.198H251.968L257.048 275.324H251.869C248.382 275.324 245.269 277.491 244.049 280.753ZM245.743 268.7C247.536 268.7 249.005 267.231 249.005 265.438C249.005 263.645 247.536 262.176 245.743 262.176C243.95 262.176 242.48 263.645 242.48 265.438C242.48 267.231 243.95 268.7 245.743 268.7Z" fill="#50BFD7"/>
<path d="M275.701 212.371H238.671C233.342 212.371 228.959 208.014 228.959 202.66C228.959 197.331 233.317 192.948 238.671 192.948H275.701C281.03 192.948 285.413 197.306 285.413 202.66C285.388 208.014 281.03 212.371 275.701 212.371Z" fill="#50BFD7"/>
<path d="M275.701 213.367H238.671C232.769 213.367 227.963 208.561 227.963 202.66C227.963 196.758 232.769 191.952 238.671 191.952H275.701C281.602 191.952 286.409 196.758 286.409 202.66C286.409 208.561 281.578 213.367 275.701 213.367ZM238.671 193.969C233.865 193.969 229.956 197.878 229.956 202.684C229.956 207.491 233.865 211.4 238.671 211.4H275.701C280.507 211.4 284.416 207.491 284.416 202.684C284.416 197.878 280.507 193.969 275.701 193.969H238.671Z" fill="#2C2C2C"/>
<path d="M259.24 15.0969H255.106V42.1904H259.24V15.0969Z" fill="#2C2C2C"/>
<path d="M274.107 47.8931H240.24C239.617 47.8931 239.119 47.3951 239.119 46.7725V31.2336C239.119 30.6111 239.617 30.113 240.24 30.113H274.107C274.729 30.113 275.227 30.6111 275.227 31.2336V46.7974C275.227 47.3951 274.729 47.8931 274.107 47.8931Z" fill="#50BFD7"/>
<path d="M274.107 48.8892H240.24C239.069 48.8892 238.123 47.9429 238.123 46.7725V31.2336C238.123 30.0632 239.069 29.1169 240.24 29.1169H274.107C275.277 29.1169 276.223 30.0632 276.223 31.2336V46.7974C276.223 47.9429 275.277 48.8892 274.107 48.8892ZM240.24 31.0842C240.165 31.0842 240.115 31.134 240.115 31.2087V46.7725C240.115 46.8472 240.165 46.897 240.24 46.897H274.107C274.181 46.897 274.231 46.8472 274.231 46.7725V31.2336C274.231 31.1589 274.181 31.1091 274.107 31.1091H240.24V31.0842Z" fill="#2C2C2C"/>
<path d="M262.477 13.2792C262.477 16.1928 260.112 18.5585 257.198 18.5585C254.285 18.5585 251.919 16.1928 251.919 13.2792C251.919 10.3657 254.285 8 257.198 8C260.087 8 262.477 10.3657 262.477 13.2792Z" fill="#2C2C2C"/>
<path d="M260.858 11.2372C260.858 12.1336 260.136 12.8558 259.24 12.8558C258.343 12.8558 257.621 12.1336 257.621 11.2372C257.621 10.3407 258.343 9.61853 259.24 9.61853C260.136 9.61853 260.858 10.3407 260.858 11.2372Z" fill="#2C2C2C"/>
<path d="M288.152 158.907C302.18 158.907 313.552 147.535 313.552 133.507C313.552 119.478 302.18 108.106 288.152 108.106C274.123 108.106 262.751 119.478 262.751 133.507C262.751 147.535 274.123 158.907 288.152 158.907Z" fill="#002731"/>
<path d="M257.173 180.098C318.896 180.098 368.933 157.633 368.933 129.921C368.933 102.208 318.896 79.7428 257.173 79.7428C195.449 79.7428 145.412 102.208 145.412 129.921C145.412 157.633 195.449 180.098 257.173 180.098Z" fill="#2C2C2C"/>
<path d="M158.462 153.478C160.454 155.146 162.621 156.765 165.011 158.309C159.234 141.649 156.719 123.172 157.316 107.359C155.499 108.978 153.855 110.671 152.436 112.389C152.485 125.438 154.453 139.831 158.462 153.478Z" fill="#50BFD7"/>
<path d="M361.887 112.365C360.442 110.646 358.799 108.953 356.981 107.334C357.927 123.297 354.715 142.098 348.34 158.981C350.805 157.413 353.096 155.794 355.163 154.101C359.62 140.155 361.961 125.538 361.887 112.365Z" fill="#50BFD7"/>
<path d="M279.983 202.834H234.387C197.507 202.834 167.625 172.951 167.625 136.071V125.936C167.625 78.6223 205.974 40.298 253.263 40.298H261.057C308.371 40.298 346.695 78.6472 346.695 125.936V136.071C346.72 172.951 316.838 202.834 279.983 202.834Z" fill="white"/>
<path d="M279.983 203.83H234.387C216.283 203.83 199.275 196.783 186.475 183.983C173.676 171.184 166.628 154.175 166.628 136.072V125.936C166.628 102.802 175.643 81.0379 192.004 64.6772C208.364 48.3166 230.129 39.302 253.263 39.302H261.057C284.191 39.302 305.956 48.3166 322.316 64.6772C338.677 81.0379 347.692 102.802 347.692 125.936V136.072C347.692 154.175 340.644 171.184 327.845 183.983C315.07 196.783 298.062 203.83 279.983 203.83ZM253.288 41.2942C230.677 41.2942 209.41 50.1095 193.423 66.0967C177.436 82.0838 168.621 103.35 168.621 125.961V136.096C168.621 153.652 175.469 170.163 187.87 182.589C200.296 195.015 216.806 201.838 234.362 201.838H279.958C297.514 201.838 314.024 194.99 326.45 182.589C338.876 170.163 345.699 153.652 345.699 136.096V125.961C345.699 103.35 336.884 82.0838 320.897 66.0967C304.91 50.1095 283.643 41.2942 261.032 41.2942H253.288Z" fill="#2C2C2C"/>
<path d="M238.721 164.933C239.293 169.415 241.485 173.549 244.872 176.537C248.258 179.525 252.641 181.194 257.173 181.194C261.705 181.194 266.063 179.55 269.475 176.537C272.861 173.549 275.053 169.415 275.626 164.933H238.721Z" fill="white"/>
<path d="M257.173 182.19C252.392 182.19 247.81 180.447 244.224 177.284C240.638 174.122 238.347 169.789 237.75 165.057L237.6 163.937H276.746L276.597 165.057C275.999 169.789 273.683 174.147 270.122 177.284C266.561 180.447 261.954 182.19 257.173 182.19ZM239.891 165.929C240.638 169.739 242.605 173.225 245.544 175.79C248.756 178.629 252.89 180.198 257.173 180.198C261.456 180.198 265.59 178.629 268.802 175.79C271.741 173.2 273.708 169.739 274.455 165.929H239.891Z" fill="#2C2C2C"/>
<path d="M257.173 93.7629C284.59 93.7629 309.442 85.4954 327.67 72.0981C311.957 52.6993 287.977 40.2981 261.057 40.2981H253.263C226.369 40.2981 202.363 52.6993 186.65 72.0981C204.903 85.4954 229.755 93.7629 257.173 93.7629Z" fill="#2C2C2C"/>
<path d="M257.173 52.9982C229.755 52.9982 204.903 61.2657 186.675 74.663C202.388 94.0617 226.369 106.463 253.288 106.463H261.082C287.977 106.463 311.982 94.0617 327.695 74.663C309.442 61.2657 284.59 52.9982 257.173 52.9982Z" fill="#50BFD7"/>
<path d="M261.083 107.484H253.288C227.017 107.484 202.463 95.7551 185.903 75.3104L185.256 74.4887L186.103 73.8661C205.252 59.7715 230.503 52.0021 257.198 52.0021C283.868 52.0021 309.119 59.7715 328.294 73.8661L329.14 74.4887L328.493 75.3104C311.908 95.7551 287.354 107.484 261.083 107.484ZM188.12 74.8622C204.281 94.3356 227.963 105.492 253.288 105.492H261.083C286.408 105.492 310.09 94.3356 326.252 74.8622C307.525 61.3902 283.046 53.9942 257.198 53.9942C231.3 53.9942 206.821 61.3902 188.12 74.8622Z" fill="#2C2C2C"/>
<path d="M319.453 148.274C317.087 149.693 314.423 150.44 311.708 150.44H202.662C199.948 150.44 197.283 149.693 194.918 148.274C189.09 144.787 185.778 137.715 186.6 130.469L186.65 129.946C189.439 105.417 207.792 86.5661 230.279 85.1467C239.791 84.5491 249.777 84.2253 260.186 84.3C268.354 84.3498 276.223 84.6487 283.818 85.1218C306.404 86.5412 324.882 105.317 327.671 129.946C327.696 130.12 327.72 130.294 327.72 130.469C328.592 137.715 325.28 144.787 319.453 148.274Z" fill="white"/>
<path d="M311.684 151.436H202.663C199.774 151.436 196.935 150.639 194.395 149.12C188.169 145.41 184.733 138.039 185.605 130.344L185.654 129.821C188.493 104.795 207.244 85.5702 230.204 84.1259C240.14 83.5033 250.226 83.2294 260.186 83.2792C268.055 83.329 276.024 83.6029 283.868 84.1009C306.977 85.5453 325.803 104.77 328.642 129.796L328.692 130.319C329.564 137.989 326.127 145.36 319.902 149.095C317.436 150.639 314.573 151.436 311.684 151.436ZM257.223 85.2962C248.283 85.2962 239.269 85.5702 230.354 86.1429C208.365 87.5374 190.386 106.015 187.647 130.07L187.597 130.593C186.8 137.491 189.888 144.115 195.441 147.427C197.657 148.747 200.172 149.444 202.687 149.444H311.734C314.249 149.444 316.764 148.747 318.98 147.427C324.533 144.115 327.596 137.491 326.824 130.593L326.775 130.07C324.035 105.99 305.981 87.5125 283.843 86.1429C276.024 85.6449 268.08 85.371 260.261 85.3211C259.19 85.2962 258.219 85.2962 257.223 85.2962Z" fill="#2C2C2C"/>
<path d="M239.617 118.864C239.617 128.277 231.425 135.947 221.364 135.947C211.279 135.947 203.111 128.302 203.111 118.864C203.111 109.426 211.279 101.781 221.364 101.781C231.449 101.781 239.617 109.426 239.617 118.864Z" fill="white"/>
<path d="M221.364 136.943C210.756 136.943 202.115 128.825 202.115 118.864C202.115 108.903 210.756 100.785 221.364 100.785C231.972 100.785 240.613 108.903 240.613 118.864C240.613 128.825 231.997 136.943 221.364 136.943ZM221.364 102.777C211.851 102.777 204.107 109.999 204.107 118.864C204.107 127.729 211.851 134.951 221.364 134.951C230.877 134.951 238.621 127.729 238.621 118.864C238.621 109.999 230.877 102.777 221.364 102.777Z" fill="#2C2C2C"/>
<path d="M212.424 117.794C212.424 125.588 217.479 131.888 223.705 131.888C229.955 131.888 235.011 125.563 235.011 117.794C235.011 109.999 229.955 103.674 223.705 103.674C217.479 103.674 212.424 109.999 212.424 117.794Z" fill="#50BFD7"/>
<path d="M215.687 117.793C215.687 123.322 219.272 127.804 223.705 127.804C228.138 127.804 231.723 123.322 231.723 117.793C231.723 112.24 228.138 107.758 223.705 107.758C219.272 107.758 215.687 112.24 215.687 117.793Z" fill="#2C2C2C"/>
<path d="M215.188 108.306C215.188 109.825 217.056 111.045 219.322 111.045C221.613 111.045 223.456 109.825 223.456 108.306C223.456 106.787 221.613 105.566 219.322 105.566C217.031 105.566 215.188 106.787 215.188 108.306Z" fill="white"/>
<path d="M309.343 118.864C309.343 128.277 301.151 135.947 291.09 135.947C281.005 135.947 272.837 128.302 272.837 118.864C272.837 109.426 281.005 101.781 291.09 101.781C301.151 101.781 309.343 109.426 309.343 118.864Z" fill="white"/>
<path d="M291.09 136.943C280.482 136.943 271.841 128.825 271.841 118.864C271.841 108.903 280.482 100.785 291.09 100.785C301.698 100.785 310.339 108.903 310.339 118.864C310.339 128.825 301.698 136.943 291.09 136.943ZM291.09 102.777C281.578 102.777 273.833 109.999 273.833 118.864C273.833 127.729 281.578 134.951 291.09 134.951C300.603 134.951 308.347 127.729 308.347 118.864C308.347 109.999 300.603 102.777 291.09 102.777Z" fill="#2C2C2C"/>
<path d="M282.15 117.793C282.15 125.587 287.206 131.888 293.431 131.888C299.681 131.888 304.737 125.563 304.737 117.793C304.737 109.999 299.681 103.674 293.431 103.674C287.206 103.674 282.15 109.999 282.15 117.793Z" fill="#50BFD7"/>
<path d="M285.413 117.793C285.413 123.322 288.999 127.804 293.431 127.804C297.864 127.804 301.45 123.322 301.45 117.793C301.45 112.24 297.864 107.758 293.431 107.758C288.999 107.758 285.413 112.24 285.413 117.793Z" fill="#2C2C2C"/>
<path d="M284.89 108.306C284.89 109.825 286.757 111.045 289.023 111.045C291.314 111.045 293.157 109.825 293.157 108.306C293.157 106.787 291.314 105.566 289.023 105.566C286.757 105.566 284.89 106.787 284.89 108.306Z" fill="white"/>
<path d="M125.616 298.209L67.2453 252.589L50.1376 244.695L40.127 251.792L44.2856 260.408L106.765 317.558L125.616 298.209Z" fill="#2C2C2C"/>
<path d="M131.061 318.177C137.301 308.717 139.372 299.077 135.686 296.647C132.001 294.216 123.955 299.914 117.715 309.375C111.476 318.835 109.405 328.475 113.091 330.906C116.776 333.336 124.822 327.638 131.061 318.177Z" fill="white"/>
<path d="M115.082 332.45C114.111 332.45 113.264 332.201 112.517 331.727C110.375 330.308 109.703 327.046 110.674 322.563C111.571 318.38 113.762 313.499 116.85 308.817C119.938 304.136 123.549 300.201 127.06 297.736C130.82 295.072 134.057 294.399 136.224 295.819C138.365 297.238 139.038 300.5 138.067 304.983C137.17 309.166 134.979 314.047 131.891 318.729C128.803 323.41 125.192 327.345 121.681 329.81C119.216 331.553 116.95 332.45 115.082 332.45ZM113.638 330.059C115.032 330.98 117.547 330.283 120.56 328.166C123.847 325.826 127.309 322.09 130.247 317.608C133.211 313.126 135.302 308.494 136.149 304.534C136.921 300.948 136.548 298.359 135.153 297.437C133.759 296.516 131.243 297.213 128.23 299.33C124.943 301.671 121.482 305.406 118.543 309.888C115.605 314.371 113.488 319.002 112.642 322.962C111.87 326.573 112.218 329.138 113.638 330.059Z" fill="#2C2C2C"/>
<path d="M121.877 313.703C130.087 305.932 134.276 297.024 131.232 293.808C128.188 290.592 119.064 294.284 110.853 302.055C102.642 309.826 98.4536 318.733 101.498 321.95C104.542 325.166 113.666 321.474 121.877 313.703Z" fill="white"/>
<path d="M104.723 324.107C104.598 324.107 104.449 324.107 104.324 324.107C102.755 324.032 101.51 323.509 100.664 322.538C98.9702 320.596 99.1445 317.259 101.162 313.075C103.029 309.19 106.316 304.932 110.4 301.122C116.775 295.146 123.847 291.435 128.429 291.659C129.998 291.734 131.243 292.257 132.09 293.228C133.783 295.17 133.609 298.507 131.592 302.691C129.724 306.576 126.437 310.834 122.353 314.644C116.128 320.446 109.28 324.107 104.723 324.107ZM128.006 293.627C123.997 293.627 117.522 297.163 111.77 302.566C107.86 306.227 104.748 310.261 102.955 313.922C101.336 317.284 101.062 319.923 102.183 321.193C102.656 321.741 103.428 322.04 104.449 322.09C104.548 322.09 104.648 322.09 104.772 322.09C108.782 322.09 115.256 318.554 121.009 313.15C124.918 309.489 128.031 305.455 129.824 301.794C131.443 298.433 131.716 295.793 130.596 294.523C130.123 293.975 129.351 293.676 128.33 293.627C128.205 293.651 128.106 293.627 128.006 293.627Z" fill="#2C2C2C"/>
<path d="M27.8997 238.27L36.0426 229.504C36.8644 228.608 38.2589 228.558 39.1305 229.38L74.9148 255.975C79.3474 260.084 79.5964 267.007 75.4876 271.414L72.325 274.826C68.2162 279.259 61.2934 279.508 56.8857 275.399L28.0242 241.358C27.1277 240.536 27.0779 239.166 27.8997 238.27Z" fill="white"/>
<path d="M64.3067 279.333C61.3932 279.333 58.4796 278.287 56.1886 276.146L56.1139 276.071L27.3022 242.055C26.7046 241.482 26.3559 240.71 26.331 239.888C26.3061 239.042 26.605 238.22 27.1777 237.597L35.3207 228.832C36.4911 227.562 38.4833 227.462 39.7782 228.632L75.5625 255.228L75.6123 255.253C80.4433 259.735 80.7172 267.28 76.2348 272.111L73.0723 275.523C70.7066 278.038 67.5191 279.333 64.3067 279.333ZM57.6081 274.726C61.6173 278.412 67.8926 278.163 71.603 274.178L74.7656 270.767C78.476 266.758 78.2519 260.482 74.2925 256.772L38.5082 230.151L38.4583 230.127C37.9852 229.678 37.2132 229.703 36.765 230.201L28.6469 238.942L27.9248 238.27L28.6469 238.942C28.4228 239.166 28.3232 239.49 28.3232 239.789C28.3232 240.112 28.4726 240.411 28.6967 240.61L28.7714 240.685L57.6081 274.726Z" fill="#2C2C2C"/>
<path d="M47.1988 248.33C49.8135 245.516 51.1582 241.98 51.2578 238.419L39.1305 229.405C38.234 228.583 36.8644 228.633 36.0426 229.529L27.8997 238.27C27.0779 239.166 27.1277 240.536 28.0242 241.358L37.9601 253.062C41.3717 252.638 44.6588 251.044 47.1988 248.33Z" fill="#50BFD7"/>
<path d="M37.537 254.132L27.3022 242.055C26.7046 241.482 26.3559 240.71 26.331 239.888C26.3061 239.042 26.605 238.22 27.1777 237.597L35.3207 228.832C35.8934 228.209 36.6903 227.861 37.537 227.811C38.3587 227.786 39.1556 228.06 39.7782 228.608L52.279 237.896L52.2541 238.419C52.1296 242.354 50.5857 246.114 47.9211 248.978C45.3313 251.792 41.845 253.585 38.0848 254.058L37.537 254.132ZM37.6615 229.803C37.6366 229.803 37.6366 229.803 37.6117 229.803C37.288 229.803 36.9891 229.952 36.7899 230.177L28.6469 238.942C28.4228 239.166 28.3232 239.49 28.3232 239.789C28.3232 240.113 28.4726 240.411 28.6967 240.611L28.7714 240.685L38.3338 251.966C41.4466 251.443 44.3103 249.924 46.4519 247.608C48.6931 245.193 50.0129 242.105 50.237 238.843L38.4833 230.127L38.4334 230.102C38.2342 229.928 37.9603 229.803 37.6615 229.803Z" fill="#2C2C2C"/>
<path d="M27.9496 243.126C27.9496 243.126 35.9929 245.89 41.6706 236.925C47.3732 227.96 37.8108 222.806 36.5906 217.377C35.3704 211.948 32.9798 205.075 30.5394 205.623C28.099 206.171 27.6258 216.829 28.2982 219.817C28.9705 222.806 15.7226 216.505 12.2363 214.289C8.75004 212.073 5.06453 198.775 2.07628 199.447C-0.91197 200.12 3.32139 219.693 3.89413 222.283C4.46688 224.848 24.6127 241.009 27.9496 243.126Z" fill="white"/>
<path d="M30.863 244.52C28.9705 244.52 27.6756 244.097 27.6009 244.072L27.5012 244.022L27.4016 243.947C25.5838 242.802 19.433 237.971 14.2284 233.613C3.34621 224.499 3.02249 223.03 2.89798 222.457C2.64895 221.386 1.42875 215.733 0.631885 210.255C-0.762633 200.419 0.382864 198.775 1.82719 198.451C4.21779 197.928 5.98584 201.564 8.25193 206.171C9.72115 209.159 11.3647 212.546 12.7343 213.417C14.1288 214.289 17.4159 216.007 20.7528 217.452C24.8367 219.22 26.555 219.543 27.2024 219.568C26.9036 217.75 26.9036 214.488 27.2273 211.649C27.9495 205.125 29.7175 204.727 30.2903 204.602C32.7556 204.054 34.3742 207.64 34.8972 208.811C35.8684 210.952 36.8146 213.965 37.5368 217.128C37.8854 218.672 39.0807 220.315 40.3507 222.034C43.1896 225.918 46.7257 230.749 42.4923 237.398C39.3546 242.354 35.4948 243.898 32.8054 244.321C32.133 244.47 31.4607 244.52 30.863 244.52ZM28.3728 242.204C29.3191 242.478 35.9182 244.097 40.8239 236.377C44.3102 230.874 41.4962 226.989 38.757 223.254C37.3625 221.336 36.0427 219.543 35.6193 217.601C34.947 214.588 34.0256 211.674 33.1291 209.682C31.9587 207.092 31.0622 206.544 30.7634 206.594C30.5144 206.694 29.6677 207.939 29.2195 212.098C28.8958 215.21 28.9954 218.373 29.2693 219.593C29.4187 220.266 29.1946 220.888 28.6965 221.262C28.1985 221.61 27.1277 222.357 20.3543 219.469C16.7684 217.925 13.2074 216.082 11.6884 215.111C9.84566 213.94 8.20212 210.603 6.48388 207.067C5.5376 205.15 4.64112 203.307 3.79445 202.012C2.97268 200.767 2.52444 200.493 2.35013 200.443C2.12601 200.792 1.52836 202.61 2.74856 210.778C3.52053 215.957 4.66602 221.112 4.86524 222.083C4.91505 222.233 5.71191 223.926 15.6977 232.293C21.201 236.85 26.6795 241.109 28.3728 242.204Z" fill="#2C2C2C"/>
<path fill-rule="evenodd" clip-rule="evenodd" d="M525.784 391.524C525.784 391.106 526.123 390.767 526.542 390.767H551.498C551.916 390.767 552.255 391.106 552.255 391.524C552.255 391.942 551.916 392.281 551.498 392.281H526.542C526.123 392.281 525.784 391.942 525.784 391.524Z" fill="#2C2C2C"/>
<path fill-rule="evenodd" clip-rule="evenodd" d="M55.1846 391.524C55.1846 391.106 55.5236 390.767 55.9419 390.767H518.222C518.64 390.767 518.98 391.106 518.98 391.524C518.98 391.942 518.64 392.281 518.222 392.281H55.9419C55.5236 392.281 55.1846 391.942 55.1846 391.524Z" fill="#2C2C2C"/>
<path fill-rule="evenodd" clip-rule="evenodd" d="M22.6826 391.524C22.6826 391.106 23.0217 390.767 23.44 390.767H40.4932C40.9115 390.767 41.2506 391.106 41.2506 391.524C41.2506 391.942 40.9115 392.281 40.4932 392.281H23.44C23.0217 392.281 22.6826 391.942 22.6826 391.524Z" fill="#2C2C2C"/>
<path d="M163.894 309.795H358.434C360.761 309.795 362.993 310.719 364.639 312.365C366.285 314.011 367.209 316.243 367.209 318.57V427.863H155.118V318.57C155.118 316.243 156.043 314.011 157.689 312.365C159.334 310.719 161.566 309.795 163.894 309.795Z" fill="white"/>
<path fill-rule="evenodd" clip-rule="evenodd" d="M163.894 310.913C161.863 310.913 159.916 311.72 158.48 313.156C157.044 314.592 156.237 316.54 156.237 318.571V426.745H366.091V318.571C366.091 316.54 365.284 314.592 363.848 313.156C362.412 311.72 360.465 310.913 358.434 310.913H163.894ZM156.898 311.574C158.753 309.719 161.27 308.676 163.894 308.676H358.434C361.058 308.676 363.575 309.719 365.43 311.574C367.286 313.43 368.328 315.946 368.328 318.571V427.863C368.328 428.481 367.827 428.982 367.21 428.982H155.119C154.501 428.982 154 428.481 154 427.863V318.571C154 315.946 155.042 313.43 156.898 311.574Z" fill="#2C2C2C"/>
<path d="M367.209 349.075C340.566 355.832 313.221 373.032 262.27 397.253C213.126 420.632 172.898 420.228 155.118 418.42V427.863H367.209V349.075Z" fill="#2C2C2C"/>
<path fill-rule="evenodd" clip-rule="evenodd" d="M367.897 348.192C368.169 348.404 368.328 348.73 368.328 349.075V427.863C368.328 428.481 367.827 428.982 367.21 428.982H155.119C154.501 428.982 154 428.481 154 427.863V418.42C154 418.104 154.134 417.803 154.369 417.59C154.603 417.378 154.917 417.276 155.232 417.308C172.859 419.1 212.872 419.514 261.789 396.243L261.79 396.243C278.571 388.266 292.77 381.061 305.246 374.73C311.706 371.451 317.705 368.408 323.36 365.613C339.904 357.436 353.491 351.4 366.935 347.991C367.269 347.906 367.624 347.98 367.897 348.192ZM262.75 398.264C214.48 421.226 174.744 421.362 156.237 419.653V426.745H366.091V350.522C353.338 353.928 340.297 359.737 324.351 367.618C318.734 370.394 312.753 373.429 306.302 376.702C293.81 383.042 279.553 390.276 262.75 398.264Z" fill="#2C2C2C"/>
<path d="M367.209 421.317H155.118V427.881H367.209V421.317Z" fill="white"/>
<path fill-rule="evenodd" clip-rule="evenodd" d="M154 421.317C154 420.7 154.501 420.199 155.119 420.199H367.21C367.827 420.199 368.328 420.7 368.328 421.317V427.881C368.328 428.499 367.827 429 367.21 429H155.119C154.501 429 154 428.499 154 427.881V421.317ZM156.237 422.436V426.763H366.091V422.436H156.237Z" fill="#2C2C2C"/>
</svg>
