<svg width="530" height="422" viewBox="0 0 530 422" fill="none" xmlns="http://www.w3.org/2000/svg">
<path d="M443.102 122.913C443.102 122.913 426.492 58.5843 325.937 18.0154C225.382 -22.5535 135.421 15.0205 114.913 62.5584C94.4038 110.096 115.897 135.767 102.212 176.364C88.5259 216.962 18.2172 268.379 46.5927 330.729C74.9683 393.08 207.748 410.888 315.195 398.024C422.643 385.16 506.588 242.651 443.102 122.913Z" fill="#50BFD7"/>
<path opacity="0.7" d="M443.102 122.913C443.102 122.913 426.492 58.5843 325.937 18.0154C225.382 -22.5535 135.421 15.0205 114.913 62.5584C94.4038 110.096 115.897 135.767 102.212 176.364C88.5259 216.962 18.2172 268.379 46.5927 330.729C74.9683 393.08 207.748 410.888 315.196 398.024C422.643 385.16 506.588 242.651 443.102 122.913Z" fill="white"/>
<path d="M165.639 116.282C162.144 130.699 170.008 183.126 182.896 202.961C182.896 202.961 220.25 227.208 336.921 213.446C336.921 213.446 318.048 207.417 335.72 138.279C336.091 136.794 336.484 135.308 336.9 133.758C339.302 124.801 321.718 109.445 318.55 104.049C295.723 65.319 165.639 116.282 165.639 116.282Z" fill="#2C2C2C"/>
<path d="M99.3415 321.641C99.3415 321.641 92.9192 320.243 90.4508 317.076C87.9606 313.908 86.497 312.51 77.8029 308.731C69.1744 304.952 65.7448 300.059 65.7448 300.059C65.7448 300.059 59.7157 305.586 72.9535 311.921C81.0577 315.809 54.4294 315.241 46.4125 314.345C46.4125 314.345 41.7815 316.879 49.4489 320.593C57.1163 324.306 49.7328 324.59 64.9147 330.991C80.0747 337.413 98.0964 340.777 101.766 331.624C105.414 322.471 99.3415 321.641 99.3415 321.641Z" fill="white"/>
<path fill-rule="evenodd" clip-rule="evenodd" d="M65.7448 300.059L65.1544 299.415L65.8886 298.742L66.4593 299.556L66.4596 299.556L66.4603 299.557L66.4639 299.562C66.4684 299.569 66.4763 299.579 66.4876 299.595C66.5102 299.625 66.5464 299.673 66.5968 299.738C66.6974 299.866 66.8544 300.059 67.071 300.305C67.5043 300.796 68.1761 301.499 69.1139 302.321C70.9886 303.963 73.9278 306.08 78.1522 307.93C82.5044 309.822 85.1109 311.144 86.9497 312.414C88.82 313.705 89.8721 314.926 91.1377 316.536L91.1389 316.537L91.14 316.539C92.2195 317.924 94.2473 318.995 96.1389 319.732C97.0634 320.092 97.9155 320.357 98.5365 320.532C98.8464 320.62 99.0975 320.684 99.2696 320.726C99.3556 320.748 99.4217 320.763 99.4656 320.773C99.4815 320.777 99.4945 320.78 99.5044 320.782C99.5141 320.784 99.525 320.786 99.5373 320.788C99.548 320.79 99.5598 320.792 99.5725 320.794C99.6323 320.806 99.7133 320.823 99.8115 320.848C100.007 320.898 100.275 320.98 100.579 321.111C101.187 321.373 101.965 321.841 102.609 322.66C103.941 324.355 104.462 327.22 102.578 331.948L102.577 331.949C101.547 334.518 99.5099 336.176 96.8854 337.113C94.2844 338.04 91.0787 338.274 87.5858 338.019C80.5955 337.51 72.2018 335.026 64.5741 331.795C56.9723 328.59 54.8285 326.846 53.6671 325.311C53.4628 325.041 53.2856 324.772 53.1308 324.537C53.0793 324.458 53.0303 324.384 52.9835 324.314C52.7882 324.024 52.5969 323.762 52.335 323.489C51.8117 322.944 50.9373 322.284 49.068 321.379C47.1001 320.426 45.8294 319.507 45.0732 318.615C44.2958 317.698 44.0403 316.776 44.1957 315.92C44.3426 315.111 44.8294 314.52 45.2102 314.163C45.4069 313.977 45.5947 313.836 45.7344 313.741C45.8048 313.692 45.8644 313.655 45.9087 313.628C45.9309 313.614 45.9494 313.603 45.9636 313.595C45.9707 313.591 45.9768 313.588 45.9817 313.585L45.9883 313.581L45.9909 313.58L45.992 313.579C45.9926 313.579 45.9931 313.579 46.4125 314.345L45.9931 313.579L46.2352 313.446L46.5095 313.477C50.4708 313.919 59.0891 314.284 65.6979 314.053C69.0366 313.937 71.7356 313.67 73.0838 313.234C73.186 313.201 73.2733 313.169 73.3473 313.139C73.1718 313.019 72.9211 312.874 72.5759 312.708C65.8748 309.501 63.6937 306.334 63.5132 303.673C63.4245 302.366 63.8349 301.304 64.254 300.583C64.4639 300.221 64.6797 299.938 64.8459 299.743C64.9293 299.645 65.0009 299.568 65.0543 299.513C65.0811 299.485 65.1033 299.463 65.1202 299.447C65.1287 299.439 65.1358 299.432 65.1415 299.427L65.1491 299.42L65.152 299.417L65.1532 299.416C65.1538 299.415 65.1544 299.415 65.7448 300.059ZM46.6311 315.248C46.5635 315.298 46.4862 315.361 46.4073 315.436C46.1593 315.669 45.9676 315.944 45.9151 316.232C45.8712 316.474 45.8955 316.882 46.4063 317.485C46.9383 318.112 47.964 318.903 49.8297 319.806C51.7941 320.758 52.8721 321.526 53.5953 322.279C53.9566 322.655 54.2121 323.009 54.434 323.34C54.4994 323.437 54.5594 323.528 54.6172 323.616C54.7627 323.837 54.8939 324.036 55.0607 324.257C55.9198 325.392 57.675 326.99 65.2541 330.185L65.2555 330.186C72.7878 333.377 80.9848 335.786 87.7128 336.276C91.079 336.522 94.0143 336.281 96.2982 335.467C98.5585 334.66 100.15 333.307 100.955 331.299C102.718 326.875 102.027 324.748 101.235 323.74C100.817 323.208 100.305 322.896 99.8875 322.716C99.6799 322.627 99.5013 322.572 99.3792 322.541C99.3184 322.526 99.2725 322.516 99.2451 322.511C99.2314 322.508 99.2224 322.507 99.2186 322.506C99.2167 322.506 99.2161 322.506 99.2168 322.506L99.1892 322.502L99.1556 322.495L99.3415 321.641C99.1556 322.495 99.1555 322.495 99.1552 322.495L99.1547 322.495L99.1483 322.493L99.1318 322.49C99.1178 322.486 99.0977 322.482 99.072 322.476C99.0205 322.464 98.9463 322.447 98.8519 322.423C98.6631 322.377 98.3931 322.307 98.0624 322.214C97.4021 322.028 96.4944 321.746 95.5047 321.36C93.5686 320.606 91.152 319.396 89.7629 317.614C88.5387 316.057 87.614 314.996 85.9569 313.852C84.268 312.686 81.7959 311.42 77.4546 309.532L77.4524 309.531C73.0489 307.603 69.9595 305.384 67.9624 303.635C66.9664 302.763 66.2426 302.007 65.7631 301.464C65.4663 301.976 65.1981 302.691 65.2568 303.555C65.3711 305.241 66.7943 308.004 73.3306 311.132L73.3314 311.133C73.8681 311.39 74.3133 311.653 74.6422 311.93C74.9486 312.188 75.2919 312.575 75.3389 313.1C75.392 313.691 75.0501 314.112 74.7361 314.355C74.4281 314.594 74.0295 314.765 73.6218 314.897C72.006 315.42 69.0664 315.684 65.7589 315.8C59.2439 316.027 50.8089 315.685 46.6311 315.248ZM46.8353 315.11C46.8367 315.109 46.8372 315.109 46.8366 315.109L46.8353 315.11Z" fill="#2C2C2C"/>
<path d="M205.462 269.455C205.462 269.455 187.287 357.531 179.008 362.381C172.345 366.291 121.273 349.668 101.875 343.136C97.2662 341.607 94.4482 340.602 94.4482 340.602L97.7904 318.015L108.734 319.5L163.236 326.906C163.236 326.906 181.607 237.409 194.801 236.317C208.017 235.203 205.462 269.455 205.462 269.455Z" fill="#2C2C2C"/>
<path d="M312.259 235.771C312.259 235.771 376.722 300.845 380.959 333.372C380.959 333.372 371.151 351.765 312.106 386.847L306.841 371.796C306.841 371.796 339.805 333.962 351.251 324.394C351.251 324.394 299.633 281.71 300.834 269.608C302.036 257.462 305.028 236.404 312.259 235.771Z" fill="#2C2C2C"/>
<path d="M338.625 263.098C338.625 277.035 329.494 285.664 315.557 285.664C301.621 285.664 290.327 274.37 290.327 260.433C290.327 246.497 300.856 231.118 314.138 235.29C328.773 239.856 338.625 249.162 338.625 263.098Z" fill="white"/>
<path fill-rule="evenodd" clip-rule="evenodd" d="M297.919 241.636C293.766 246.536 291.201 253.662 291.201 260.433C291.201 273.887 302.104 284.79 315.558 284.79C322.345 284.79 327.878 282.692 331.71 278.98C335.538 275.271 337.752 269.87 337.752 263.098C337.752 249.694 328.315 240.628 313.878 236.124L313.876 236.124C307.668 234.174 302.058 236.751 297.919 241.636ZM314.399 234.456C307.325 232.235 301.031 235.261 296.585 240.506C292.153 245.736 289.454 253.268 289.454 260.433C289.454 274.853 301.138 286.537 315.558 286.537C322.707 286.537 328.708 284.321 332.926 280.235C337.147 276.145 339.499 270.263 339.499 263.098C339.499 248.63 329.232 239.084 314.399 234.456Z" fill="#2C2C2C"/>
<path d="M327.288 259.035C327.288 269.346 320.538 275.724 310.227 275.724C299.917 275.724 291.572 267.38 291.572 257.069C291.572 246.759 299.349 235.378 309.201 238.458C319.992 241.865 327.288 248.746 327.288 259.035Z" fill="#2C2C2C"/>
<path d="M169.331 263.098C169.331 277.035 178.462 285.664 192.399 285.664C206.335 285.664 217.607 274.348 217.607 260.433C217.607 246.519 207.078 231.118 193.797 235.29C179.183 239.856 169.331 249.162 169.331 263.098Z" fill="white"/>
<path fill-rule="evenodd" clip-rule="evenodd" d="M211.349 240.514C215.781 245.747 218.481 253.278 218.481 260.433C218.481 274.829 206.819 286.537 192.398 286.537C185.249 286.537 179.249 284.321 175.03 280.235C170.809 276.145 168.457 270.263 168.457 263.098C168.457 248.63 178.723 239.084 193.535 234.456C200.609 232.235 206.904 235.266 211.349 240.514ZM210.016 241.644C205.876 236.756 200.266 234.174 194.058 236.124L194.057 236.124C179.642 240.628 170.205 249.693 170.205 263.098C170.205 269.87 172.418 275.271 176.246 278.98C180.078 282.691 185.611 284.79 192.398 284.79C205.851 284.79 216.733 273.867 216.733 260.433C216.733 253.673 214.168 246.547 210.016 241.644Z" fill="#2C2C2C"/>
<path d="M180.69 259.035C180.69 269.346 187.44 275.724 197.75 275.724C208.061 275.724 216.406 267.38 216.406 257.069C216.406 246.759 208.629 235.378 198.799 238.458C187.964 241.865 180.69 248.746 180.69 259.035Z" fill="#2C2C2C"/>
<path d="M285.74 374.92C269.968 373.478 254.393 372.888 254.393 372.888C248.67 373.063 236.481 373.565 223.898 374.92C227.568 387.458 240.02 396.699 254.808 396.699C269.619 396.721 282.07 387.437 285.74 374.92Z" fill="#50BFD7"/>
<path d="M284.451 376.23C285.806 370.9 312.914 235.072 312.914 235.072C312.914 235.072 240.566 213.708 194.299 235.072L223.964 377.41L284.451 376.23Z" fill="white"/>
<path fill-rule="evenodd" clip-rule="evenodd" d="M313.16 234.234C313.161 234.234 313.162 234.234 312.914 235.072C313.771 235.243 313.771 235.244 313.771 235.245L313.77 235.249L313.466 236.77C313.267 237.766 312.975 239.228 312.603 241.09C311.86 244.814 310.795 250.141 309.514 256.55C306.951 269.367 303.52 286.512 300.047 303.824C293.105 338.423 285.982 373.752 285.298 376.446L285.134 377.091L223.256 378.298L193.302 234.57L193.933 234.279C217.29 223.493 247.143 223.517 271.054 226.192C283.027 227.532 293.548 229.541 301.076 231.215C304.841 232.052 307.859 232.806 309.937 233.351C310.976 233.623 311.78 233.843 312.325 233.996C312.598 234.072 312.806 234.131 312.947 234.172C313.017 234.192 313.07 234.207 313.106 234.218L313.147 234.23L313.157 234.233L313.16 234.234ZM312.914 235.072L313.771 235.243L313.927 234.46L313.162 234.234L312.914 235.072ZM311.899 235.691C311.885 235.687 311.87 235.683 311.855 235.679C311.318 235.529 310.523 235.311 309.493 235.041C307.434 234.501 304.438 233.753 300.697 232.921C293.214 231.257 282.756 229.26 270.859 227.929C247.247 225.287 218.114 225.287 195.297 235.577L224.671 376.522L283.754 375.37C284.992 369.818 291.733 336.378 298.334 303.481C301.807 286.169 305.238 269.024 307.8 256.207C309.082 249.799 310.146 244.472 310.89 240.748C311.262 238.885 311.554 237.424 311.752 236.428L311.899 235.691Z" fill="black"/>
<path d="M284.451 376.23C285.806 370.9 312.914 235.072 312.914 235.072C312.914 235.072 240.566 213.708 194.299 235.072L223.964 377.41L284.451 376.23Z" fill="white"/>
<path fill-rule="evenodd" clip-rule="evenodd" d="M313.16 234.234C313.161 234.234 313.162 234.234 312.914 235.072C313.771 235.243 313.771 235.244 313.771 235.245L313.77 235.249L313.466 236.77C313.267 237.766 312.975 239.228 312.603 241.09C311.86 244.814 310.795 250.141 309.514 256.55C306.951 269.367 303.52 286.512 300.047 303.824C293.105 338.423 285.982 373.752 285.298 376.446L285.134 377.091L223.256 378.298L193.302 234.57L193.933 234.279C217.29 223.493 247.143 223.517 271.054 226.192C283.027 227.532 293.548 229.541 301.076 231.215C304.841 232.052 307.859 232.806 309.937 233.351C310.976 233.623 311.78 233.843 312.325 233.996C312.598 234.072 312.806 234.131 312.947 234.172C313.017 234.192 313.07 234.207 313.106 234.218L313.147 234.23L313.157 234.233L313.16 234.234ZM312.914 235.072L313.771 235.243L313.927 234.46L313.162 234.234L312.914 235.072ZM311.899 235.691C311.885 235.687 311.87 235.683 311.855 235.679C311.318 235.529 310.523 235.311 309.493 235.041C307.434 234.501 304.438 233.753 300.697 232.921C293.214 231.257 282.756 229.26 270.859 227.929C247.247 225.287 218.114 225.287 195.297 235.577L224.671 376.522L283.754 375.37C284.992 369.818 291.733 336.378 298.334 303.481C301.807 286.169 305.238 269.024 307.8 256.207C309.082 249.799 310.146 244.472 310.89 240.748C311.262 238.885 311.554 237.424 311.752 236.428L311.899 235.691Z" fill="#2C2C2C"/>
<path d="M295.351 230.9C275.145 226.837 240.98 222.206 211.622 229.196C215.095 251.106 218.568 273.037 222.041 294.947C224.837 309.802 238.927 319.697 253.628 319.785C268.33 319.697 282.419 309.823 285.215 294.947C288.579 273.584 291.965 252.242 295.351 230.9Z" fill="#50BFD7"/>
<path fill-rule="evenodd" clip-rule="evenodd" d="M211.419 228.346C240.97 221.31 275.29 225.975 295.523 230.043L296.346 230.208L296.212 231.05C292.827 252.388 289.442 273.725 286.079 295.083L286.076 295.096L286.074 295.109C283.188 310.462 268.682 320.569 253.634 320.658L253.628 320.658L253.623 320.658C238.574 320.569 224.068 310.44 221.183 295.109L221.18 295.097L221.178 295.084C219.442 284.13 217.705 273.171 215.969 262.212L215.968 262.208C214.232 251.248 212.495 240.288 210.759 229.333L210.632 228.533L211.419 228.346ZM212.612 229.861C214.306 240.548 216 251.24 217.694 261.932L217.694 261.935C219.43 272.891 221.166 283.847 222.902 294.798C225.614 309.168 239.281 318.823 253.628 318.911C267.976 318.823 281.642 309.189 284.354 294.799C287.674 273.715 291.015 252.653 294.357 231.592C274.27 227.614 241.207 223.275 212.612 229.861Z" fill="#2C2C2C"/>
<path d="M251.116 238.654C258.019 238.654 268.745 236.557 268.745 229.676L266.975 206.696L265.424 186.599C265.424 179.696 259.832 174.126 252.951 174.126C249.5 174.126 246.398 175.524 244.126 177.774C241.876 180.024 240.456 183.148 240.456 186.599L238.927 206.718L237.464 226.006C235.498 237.65 251.116 238.654 251.116 238.654Z" fill="#2C2C2C"/>
<path d="M291.485 57.018C281.152 44.3046 266.713 36.6372 248.189 36.6372C206.226 36.6372 165.202 75.3237 165.202 123.578C165.202 171.832 199.214 210.956 241.177 210.956C245.218 210.956 249.128 210.606 252.886 209.907C253.279 212.026 253.497 214.21 253.497 216.439C253.497 216.854 253.475 217.247 253.475 217.64C369.163 189.635 350.224 49.8749 291.485 57.018Z" fill="#2C2C2C"/>
<path d="M201.267 172.313C209.049 172.313 215.357 166.005 215.357 158.223C215.357 150.442 209.049 144.133 201.267 144.133C193.486 144.133 187.178 150.442 187.178 158.223C187.178 166.005 193.486 172.313 201.267 172.313Z" fill="white"/>
<path fill-rule="evenodd" clip-rule="evenodd" d="M201.268 145.007C193.969 145.007 188.052 150.924 188.052 158.223C188.052 165.522 193.969 171.439 201.268 171.439C208.567 171.439 214.483 165.522 214.483 158.223C214.483 150.924 208.567 145.007 201.268 145.007ZM186.304 158.223C186.304 149.959 193.004 143.26 201.268 143.26C209.532 143.26 216.231 149.959 216.231 158.223C216.231 166.487 209.532 173.187 201.268 173.187C193.004 173.187 186.304 166.487 186.304 158.223Z" fill="#2C2C2C"/>
<path d="M300.485 172.313C308.266 172.313 314.574 166.005 314.574 158.223C314.574 150.442 308.266 144.133 300.485 144.133C292.703 144.133 286.395 150.442 286.395 158.223C286.395 166.005 292.703 172.313 300.485 172.313Z" fill="white"/>
<path fill-rule="evenodd" clip-rule="evenodd" d="M300.485 145.007C293.186 145.007 287.269 150.924 287.269 158.223C287.269 165.522 293.186 171.439 300.485 171.439C307.784 171.439 313.701 165.522 313.701 158.223C313.701 150.924 307.784 145.007 300.485 145.007ZM285.521 158.223C285.521 149.959 292.221 143.26 300.485 143.26C308.749 143.26 315.448 149.959 315.448 158.223C315.448 166.487 308.749 173.187 300.485 173.187C292.221 173.187 285.521 166.487 285.521 158.223Z" fill="#2C2C2C"/>
<path d="M252.209 217.006C282.454 217.006 306.973 182.297 306.973 139.481C306.973 96.6643 282.454 61.9548 252.209 61.9548C221.963 61.9548 197.445 96.6643 197.445 139.481C197.445 182.297 221.963 217.006 252.209 217.006Z" fill="white"/>
<path fill-rule="evenodd" clip-rule="evenodd" d="M214.198 85.1658C204.404 99.0311 198.318 118.232 198.318 139.481C198.318 160.73 204.404 179.93 214.198 193.796C223.994 207.663 237.446 216.133 252.209 216.133C266.971 216.133 280.423 207.663 290.219 193.796C300.013 179.93 306.099 160.73 306.099 139.481C306.099 118.232 300.013 99.0311 290.219 85.1658C280.423 71.2983 266.971 62.8287 252.209 62.8287C237.446 62.8287 223.994 71.2983 214.198 85.1658ZM212.771 84.1575C222.796 69.9662 236.726 61.0811 252.209 61.0811C267.691 61.0811 281.621 69.9662 291.646 84.1575C301.672 98.3511 307.846 117.914 307.846 139.481C307.846 161.048 301.672 180.61 291.646 194.804C281.621 208.995 267.691 217.88 252.209 217.88C236.726 217.88 222.796 208.995 212.771 194.804C202.745 180.61 196.571 161.048 196.571 139.481C196.571 117.914 202.745 98.3511 212.771 84.1575Z" fill="#2C2C2C"/>
<path d="M189.45 122.289C189.45 122.289 236.066 124.561 251.597 96.5129C251.597 96.5129 285.325 125.697 317.523 123.425L314.487 110.537L301.992 85.8966L294.412 76.8093L278.881 60.5134L258.041 51.7974L233.029 55.2052L199.673 77.9452L195.501 93.1052L189.45 122.289Z" fill="#2C2C2C"/>
<path d="M253.563 169.779C253.585 169.91 253.301 170.15 252.667 170.15C252.056 170.172 251.116 169.888 250.286 169.101C249.871 168.708 249.5 168.228 249.216 167.616C249.172 167.529 249.15 167.441 249.107 167.354L249.063 167.223L249.019 167.114L248.954 166.917C248.932 166.83 248.91 166.72 248.867 166.633C248.779 166.305 248.714 165.956 248.692 165.585C248.561 164.143 248.845 162.679 249.194 161.281C250.549 155.689 252.143 151.298 252.733 151.429C253.323 151.582 252.711 156.213 251.357 161.805C251.007 163.182 250.745 164.427 250.745 165.475C250.745 165.737 250.767 166 250.789 166.24L250.811 166.327V166.371V166.393V166.415C250.811 166.415 250.789 166.349 250.811 166.371L250.854 166.589L250.876 166.699L250.898 166.764L250.942 166.895C251.073 167.31 251.269 167.703 251.488 168.009C251.925 168.643 252.449 169.036 252.864 169.254C253.235 169.538 253.541 169.626 253.563 169.779Z" fill="#2C2C2C"/>
<path d="M193.01 148.371C192.399 145.947 191.94 143.478 191.569 140.988C191.219 138.498 190.979 136.007 190.848 133.495C190.629 128.471 190.826 123.403 191.503 118.401C192.18 113.377 193.338 108.418 194.976 103.612C195.064 103.306 195.173 103.001 195.282 102.717L195.61 101.821L196.265 100.03L197.008 98.2603L197.379 97.3865C197.51 97.1025 197.62 96.7967 197.772 96.5127C198.843 94.1972 200.001 91.9036 201.311 89.7191C203.911 85.3066 206.947 81.1561 210.442 77.377C213.959 73.6198 217.913 70.2558 222.238 67.4378C222.762 67.0665 223.33 66.7388 223.877 66.4111C224.423 66.0835 224.991 65.734 225.537 65.4281L227.262 64.5107L228.114 64.052C228.398 63.899 228.704 63.768 228.988 63.6369L230.757 62.8287C230.91 62.7631 231.041 62.6976 231.194 62.6321L231.653 62.4573L232.549 62.1078L233.444 61.7583C233.75 61.6491 234.034 61.518 234.362 61.4088L236.219 60.7971C241.155 59.2025 246.354 58.3942 251.553 58.285C254.153 58.1977 256.752 58.3943 259.33 58.6782C259.985 58.7656 260.619 58.8748 261.252 58.9622L262.213 59.1151C262.366 59.137 262.541 59.1588 262.694 59.2025L263.175 59.3117L265.075 59.7268C265.709 59.8578 266.342 60.0326 266.954 60.2073C271.956 61.6054 276.784 63.6369 281.196 66.3456L282.835 67.3723C283.119 67.5471 283.381 67.7218 283.643 67.9184L284.429 68.4645L285.216 69.0106C285.478 69.1854 285.74 69.382 286.002 69.5786L287.531 70.7582L288.296 71.348L289.038 71.9815L290.502 73.2484C290.983 73.6635 291.441 74.1222 291.9 74.581L292.599 75.2581C292.839 75.4766 293.058 75.695 293.276 75.9353L294.609 77.3334L295.264 78.0324L295.898 78.7532L297.164 80.2168C297.383 80.4571 297.58 80.7192 297.776 80.9595L298.366 81.7241C298.759 82.2265 299.152 82.7289 299.546 83.2532L300.66 84.826C301.424 85.8527 302.079 86.9667 302.778 88.0371C305.487 92.3841 307.693 97.0152 309.441 101.777C311.189 106.561 312.434 111.498 313.22 116.5L313.373 117.44L313.439 117.898L313.482 118.379L313.701 120.258C313.875 121.503 313.919 122.77 314.028 124.037C314.181 126.549 314.225 129.083 314.159 131.595L314.138 132.534L314.094 133.473C314.05 134.107 314.028 134.719 313.963 135.352C313.875 136.597 313.744 137.864 313.591 139.109C313.264 141.6 312.849 144.068 312.303 146.515C312.608 144.024 312.849 141.556 312.936 139.066C313.045 136.575 313.067 134.085 312.958 131.617C312.849 129.148 312.674 126.658 312.368 124.211C312.193 122.988 312.062 121.765 311.822 120.542L311.494 118.728L311.407 118.27L311.298 117.811L311.101 116.915C310.075 112.088 308.611 107.369 306.754 102.848L306.405 101.996L306.033 101.166L305.269 99.4836C305.028 98.9156 304.744 98.3914 304.461 97.8452L303.63 96.2069C303.346 95.6608 303.041 95.1365 302.735 94.6123C302.429 94.088 302.145 93.5419 301.817 93.0176L300.856 91.4667C300.529 90.9424 300.223 90.4182 299.873 89.9376C299.174 88.9327 298.519 87.906 297.776 86.9449L296.684 85.4813C296.313 85.0007 295.919 84.542 295.526 84.0614L294.936 83.3624C294.74 83.1221 294.543 82.8818 294.347 82.6634L293.123 81.309L292.512 80.6319L291.878 79.9765L290.589 78.6877C287.116 75.3237 283.25 72.3747 279.077 69.9281C274.927 67.4815 270.449 65.6247 265.818 64.3796C264.66 64.0301 263.48 63.8335 262.323 63.5714L261.886 63.484C261.733 63.4622 261.58 63.4403 261.449 63.4185L260.553 63.2874C259.963 63.2 259.374 63.0908 258.784 63.0253C256.403 62.785 254 62.6102 251.619 62.6758C246.835 62.7631 242.051 63.484 237.486 64.9476L235.782 65.4937C235.498 65.5811 235.214 65.6903 234.93 65.7995L234.1 66.1272L233.27 66.4548L232.855 66.6077C232.723 66.6514 232.571 66.7388 232.44 66.7825L230.801 67.5252C230.539 67.6563 230.255 67.7655 229.971 67.8966L229.163 68.3116L227.568 69.1417C227.044 69.4475 226.52 69.7533 225.995 70.0373C225.471 70.3431 224.947 70.6271 224.444 70.9766C220.36 73.5543 216.602 76.6343 213.195 80.0857L211.949 81.4183L211.338 82.0954C211.229 82.2047 211.119 82.3139 211.032 82.4231L210.748 82.7726L209.568 84.1707C209.372 84.4109 209.175 84.6294 208.979 84.8697L208.411 85.5905L207.297 87.0323C207.1 87.2726 206.947 87.5128 206.75 87.775L206.226 88.5177C205.877 89.0201 205.527 89.5007 205.178 90.025L204.195 91.5759C201.595 95.7045 199.367 100.095 197.62 104.661C195.85 109.226 194.496 113.988 193.578 118.838L193.229 120.651C193.12 121.262 193.054 121.874 192.945 122.486L192.683 124.321C192.617 124.932 192.552 125.544 192.486 126.156L192.289 128.012L192.18 129.869L192.071 131.726C192.049 132.338 192.027 132.971 192.006 133.583C191.962 136.073 192.006 138.541 192.18 141.032C192.377 143.413 192.661 145.881 193.01 148.371Z" fill="#50BFD7"/>
<path d="M237.966 143.588C237.966 149.813 232.571 154.859 225.93 154.859C219.267 154.859 213.894 149.813 213.894 143.588C213.894 137.362 219.289 132.316 225.93 132.316C232.571 132.316 237.966 137.362 237.966 143.588Z" fill="white"/>
<path fill-rule="evenodd" clip-rule="evenodd" d="M225.93 133.19C219.716 133.19 214.767 137.898 214.767 143.588C214.767 149.278 219.695 153.985 225.93 153.985C232.143 153.985 237.092 149.277 237.092 143.588C237.092 137.898 232.143 133.19 225.93 133.19ZM213.02 143.588C213.02 136.826 218.862 131.442 225.93 131.442C232.998 131.442 238.84 136.826 238.84 143.588C238.84 150.349 232.998 155.733 225.93 155.733C218.839 155.733 213.02 150.348 213.02 143.588Z" fill="#2C2C2C"/>
<path d="M220.032 142.888C220.032 148.022 223.374 152.194 227.481 152.194C231.587 152.194 234.93 148.022 234.93 142.888C234.93 137.755 231.587 133.583 227.481 133.583C223.352 133.561 220.032 137.733 220.032 142.888Z" fill="#50BFD7"/>
<path d="M222.172 142.888C222.172 146.536 224.532 149.485 227.459 149.485C230.386 149.485 232.745 146.536 232.745 142.888C232.745 139.24 230.386 136.27 227.459 136.27C224.553 136.27 222.172 139.219 222.172 142.888Z" fill="#2C2C2C"/>
<path d="M221.845 136.619C221.845 137.624 223.068 138.41 224.575 138.41C226.083 138.41 227.306 137.602 227.306 136.619C227.306 135.614 226.083 134.828 224.575 134.828C223.068 134.806 221.845 135.614 221.845 136.619Z" fill="white"/>
<path d="M226.716 130.677C219.267 129.935 213.544 136.663 213.544 143.609C213.544 144.33 214.44 144.461 214.811 143.959C217.847 139.787 218.83 135.68 224.379 134.085C232.57 131.726 237.07 140.136 237.529 146.733C237.595 147.367 238.141 146.799 238.206 146.143C238.949 138.257 235.017 131.508 226.716 130.677Z" fill="#2C2C2C"/>
<path d="M241.418 126.352C241.418 126.352 225.165 110.143 207.69 129.388C207.668 129.388 222.784 119.711 241.418 126.352Z" fill="#2C2C2C"/>
<path d="M290.327 143.587C290.327 149.813 284.931 154.859 278.291 154.859C271.628 154.859 266.254 149.813 266.254 143.587C266.254 137.362 271.65 132.316 278.291 132.316C284.931 132.316 290.327 137.362 290.327 143.587Z" fill="white"/>
<path fill-rule="evenodd" clip-rule="evenodd" d="M278.291 133.189C272.078 133.189 267.128 137.898 267.128 143.587C267.128 149.278 272.057 153.985 278.291 153.985C284.504 153.985 289.453 149.277 289.453 143.587C289.453 137.898 284.504 133.189 278.291 133.189ZM265.381 143.587C265.381 136.826 271.223 131.442 278.291 131.442C285.359 131.442 291.201 136.826 291.201 143.587C291.201 150.349 285.359 155.733 278.291 155.733C271.2 155.733 265.381 150.348 265.381 143.587Z" fill="#2C2C2C"/>
<path d="M272.393 142.888C272.393 148.022 275.735 152.194 279.842 152.194C283.948 152.194 287.29 148.022 287.29 142.888C287.29 137.755 283.948 133.583 279.842 133.583C275.735 133.561 272.393 137.733 272.393 142.888Z" fill="#50BFD7"/>
<path d="M274.555 142.888C274.555 146.536 276.914 149.485 279.842 149.485C282.769 149.485 285.128 146.536 285.128 142.888C285.128 139.24 282.769 136.269 279.842 136.269C276.914 136.269 274.555 139.218 274.555 142.888Z" fill="#2C2C2C"/>
<path d="M274.206 136.619C274.206 137.624 275.429 138.41 276.937 138.41C278.444 138.41 279.667 137.602 279.667 136.619C279.667 135.614 278.444 134.828 276.937 134.828C275.451 134.806 274.206 135.614 274.206 136.619Z" fill="white"/>
<path d="M279.077 130.677C271.628 129.935 265.905 136.663 265.905 143.609C265.905 144.33 266.8 144.461 267.172 143.959C270.208 139.786 271.191 135.68 276.74 134.085C284.931 131.726 289.431 140.136 289.89 146.733C289.955 147.366 290.502 146.798 290.567 146.143C291.31 138.257 287.4 131.507 279.077 130.677Z" fill="#2C2C2C"/>
<path d="M293.779 124.583C293.779 124.583 277.526 108.374 260.051 127.619C260.051 127.619 275.167 117.942 293.779 124.583Z" fill="#2C2C2C"/>
<path d="M234.427 182.165C234.973 186.402 237.027 190.313 240.238 193.152C243.449 195.992 247.578 197.543 251.859 197.543C256.141 197.543 260.269 195.992 263.48 193.152C266.691 190.313 268.767 186.424 269.291 182.165H234.427Z" fill="white"/>
<path fill-rule="evenodd" clip-rule="evenodd" d="M233.434 181.291H270.279L270.158 182.271C269.607 186.746 267.427 190.828 264.059 193.807C260.687 196.789 256.352 198.417 251.859 198.417C247.366 198.417 243.031 196.789 239.659 193.807C236.288 190.825 234.133 186.722 233.561 182.276L233.434 181.291ZM235.45 183.038C236.141 186.686 238.016 190.021 240.817 192.498C243.867 195.195 247.789 196.669 251.859 196.669C255.929 196.669 259.851 195.195 262.901 192.498C265.707 190.017 267.598 186.697 268.273 183.038H235.45Z" fill="#2C2C2C"/>
<path d="M268.614 384.378C268.614 384.924 269.094 385.558 269.662 385.492C276.106 384.815 281.043 379.835 287.4 380.883C281.021 384.051 275.495 389.555 276.281 397.66C276.368 398.664 277.33 399.058 278.072 398.446C282.638 394.558 287.88 391.084 293.997 392.373C296.618 392.919 299.698 393.946 302.407 393.597C306.448 393.094 309.856 391.259 311.866 387.349C315.404 380.577 314.094 372.451 306.164 370.769C305.968 370.725 305.815 370.747 305.64 370.813C302.713 369.655 300.048 368.191 297.689 365.636C295.417 363.145 293.298 360.393 290.829 358.099C287.531 355.019 283.948 352.595 279.58 354.67C278.924 354.976 278.968 355.915 279.383 356.417C281.305 358.798 283.555 361.07 285.914 363.255C283.555 362.709 281.174 362.425 278.728 362.621C274.359 362.993 269.203 365.898 269.313 371.097C269.335 371.752 269.793 372.145 270.361 372.211C274.381 372.626 278.422 372.56 282.419 372.975C276.194 374.81 268.548 376.907 268.614 384.378Z" fill="white"/>
<path fill-rule="evenodd" clip-rule="evenodd" d="M285.927 353.639C287.94 354.434 289.759 355.905 291.425 357.46C293.095 359.012 294.637 360.801 296.132 362.538C296.874 363.398 297.604 364.246 298.333 365.045C300.502 367.395 302.95 368.784 305.698 369.895C305.897 369.862 306.111 369.863 306.349 369.915C310.628 370.824 313.191 373.512 314.156 376.912C315.107 380.261 314.489 384.216 312.642 387.751C310.472 391.971 306.776 393.933 302.518 394.464C301.025 394.656 299.469 394.466 298.002 394.178C297.264 394.034 296.532 393.862 295.833 393.694C295.758 393.676 295.685 393.658 295.611 393.641C294.987 393.491 294.391 393.348 293.819 393.229L293.817 393.228C288.147 392.034 283.201 395.226 278.639 399.111L278.634 399.116L278.628 399.121C278.034 399.61 277.265 399.753 276.587 399.462C275.91 399.172 275.48 398.517 275.411 397.74C274.7 390.391 278.884 385.116 284.163 381.714C282.407 381.953 280.696 382.588 278.904 383.346C278.506 383.514 278.103 383.689 277.694 383.867C275.269 384.92 272.654 386.056 269.758 386.361C269.104 386.434 268.582 386.099 268.268 385.74C267.955 385.383 267.741 384.89 267.74 384.383C267.705 380.267 269.83 377.626 272.692 375.824C274.202 374.874 275.941 374.141 277.706 373.526C277.259 373.505 276.811 373.486 276.361 373.466L276.342 373.466C274.34 373.379 272.305 373.29 270.272 373.08L270.267 373.08L270.261 373.079C269.327 372.971 268.478 372.275 268.44 371.126L268.439 371.121L268.439 371.115C268.378 368.184 269.813 365.915 271.803 364.36C273.776 362.819 276.325 361.949 278.654 361.751L278.656 361.751L278.658 361.75C280.201 361.626 281.714 361.686 283.201 361.875C281.598 360.296 280.073 358.663 278.706 356.97C278.355 356.542 278.177 355.965 278.208 355.42C278.24 354.856 278.515 354.204 279.207 353.88C281.629 352.73 283.869 352.827 285.927 353.639ZM279.963 355.455C279.959 355.467 279.954 355.488 279.953 355.52C279.949 355.574 279.957 355.641 279.979 355.71C280.001 355.779 280.032 355.83 280.057 355.861L280.06 355.865L280.063 355.869C281.949 358.204 284.165 360.444 286.508 362.614L288.921 364.848L285.718 364.106C283.42 363.574 281.132 363.305 278.8 363.492C276.761 363.666 274.548 364.434 272.879 365.737C271.228 367.027 270.141 368.807 270.186 371.072C270.191 371.187 270.227 371.234 270.25 371.257C270.281 371.288 270.345 371.329 270.458 371.343C272.435 371.547 274.422 371.633 276.437 371.72L276.444 371.721C278.449 371.808 280.483 371.896 282.51 372.107L286.909 372.563L282.667 373.814C282.558 373.846 282.449 373.878 282.34 373.91C279.286 374.809 276.092 375.749 273.623 377.303C271.123 378.876 269.458 381.017 269.488 384.371L269.488 384.375V384.378C269.488 384.39 269.491 384.422 269.509 384.468C269.528 384.514 269.554 384.557 269.583 384.589C269.595 384.603 269.605 384.612 269.613 384.619C272.205 384.339 274.534 383.33 276.957 382.28C277.376 382.099 277.797 381.916 278.224 381.736C281.073 380.531 284.099 379.453 287.542 380.021L290.214 380.462L287.789 381.666C281.548 384.765 276.416 390.003 277.151 397.575L277.151 397.58L277.152 397.584C277.162 397.701 277.194 397.769 277.217 397.803C277.24 397.837 277.262 397.85 277.275 397.856C277.289 397.862 277.311 397.867 277.345 397.861C277.378 397.856 277.437 397.837 277.513 397.775C282.08 393.886 287.617 390.137 294.176 391.518C294.776 391.643 295.398 391.792 296.018 391.941C296.092 391.959 296.166 391.977 296.24 391.994C296.939 392.162 297.639 392.327 298.337 392.463C299.742 392.738 301.08 392.887 302.295 392.73L302.297 392.73L302.299 392.73C306.121 392.255 309.239 390.548 311.089 386.95L311.09 386.947L311.091 386.945C312.782 383.709 313.278 380.216 312.475 377.389C311.687 374.613 309.632 372.398 305.983 371.624L305.979 371.623L305.975 371.622C305.974 371.622 305.974 371.622 305.974 371.622C305.968 371.624 305.959 371.627 305.947 371.631L305.632 371.749L305.319 371.626C302.321 370.44 299.526 368.914 297.047 366.229L297.045 366.227L297.043 366.225C296.24 365.345 295.475 364.455 294.717 363.574C293.263 361.885 291.838 360.229 290.235 358.74L290.233 358.738C288.601 357.214 286.98 355.933 285.285 355.264C283.638 354.614 281.906 354.535 279.963 355.455Z" fill="#2C2C2C"/>
<path fill-rule="evenodd" clip-rule="evenodd" d="M196.353 135.374V135.811H194.605V135.374H196.353Z" fill="#2C2C2C"/>
<path fill-rule="evenodd" clip-rule="evenodd" d="M205.527 140.18V140.617H203.779V140.18H205.527Z" fill="#2C2C2C"/>
<path d="M255.223 137.602C258.216 138.236 257.102 140.18 257.102 140.464C257.102 140.748 258.216 156.913 272.655 161.172C287.094 165.432 295.744 157.066 298.257 152.871C300.769 148.677 302.866 138.716 303.477 137.952C304.111 137.187 307.103 135.855 307.103 135.855L307.453 131.944L303.696 130.83C303.696 130.83 294.215 126.505 280.257 126.309C266.32 126.09 258.434 134.129 258.434 134.129C254.502 132.884 249.631 132.709 245.175 134.129C245.175 134.129 237.289 126.112 223.352 126.309C209.415 126.527 199.913 130.83 199.913 130.83L196.156 131.944L196.505 135.855C196.505 135.855 199.498 137.187 200.131 137.952C200.765 138.716 202.84 148.699 205.352 152.871C207.864 157.066 216.515 165.432 230.954 161.172C245.393 156.913 246.507 140.748 246.507 140.464C246.507 140.18 245.393 138.236 248.386 137.602C250.985 137.056 252.624 137.056 255.223 137.602ZM289.868 157.83C278.859 164.449 265.665 157.765 261.689 149.049C257.713 140.333 261.056 135.724 261.056 135.724C267.718 124.889 294.521 124.43 299.13 136.139C299.917 138.105 300.9 151.211 289.868 157.83ZM204.457 136.139C209.066 124.408 235.891 124.889 242.531 135.724C242.531 135.724 245.874 140.333 241.898 149.049C237.922 157.765 224.75 164.449 213.719 157.83C202.709 151.211 203.692 138.105 204.457 136.139Z" fill="#2C2C2C"/>
<path d="M261.973 254.907H245.197C240.74 254.907 237.114 258.533 237.114 262.989V279.766C237.114 284.222 240.74 287.848 245.197 287.848H261.973C266.429 287.848 270.055 284.222 270.055 279.766V262.989C270.055 258.533 266.451 254.907 261.973 254.907ZM232.658 247.763C230.102 247.763 228.027 249.839 228.027 252.395C228.027 254.95 230.102 257.026 232.658 257.026C235.214 257.026 237.289 254.95 237.289 252.395C237.289 249.839 235.214 247.763 232.658 247.763Z" fill="white"/>
<path d="M260.793 264.911C259.723 262.05 256.992 260.149 253.934 260.149H249.391L258.369 282.911H268.002L260.793 264.911ZM242.444 276.38L239.823 282.911H249.391L253.847 271.618H249.303C246.245 271.618 243.514 273.518 242.444 276.38ZM243.93 265.807C245.502 265.807 246.791 264.518 246.791 262.945C246.791 261.372 245.502 260.084 243.93 260.084C242.357 260.084 241.068 261.372 241.068 262.945C241.068 264.518 242.357 265.807 243.93 265.807Z" fill="#50BFD7"/>
<path d="M282.096 349.835C266.995 348.454 252.082 347.89 252.082 347.89C246.603 348.057 234.932 348.538 222.885 349.835C226.399 361.84 238.32 370.687 252.48 370.687C266.66 370.708 278.582 361.819 282.096 349.835Z" fill="#50BFD7"/>
<path d="M264.861 371.65C264.861 372.173 265.321 372.779 265.865 372.716C272.035 372.068 276.762 367.299 282.848 368.303C276.741 371.336 271.45 376.607 272.202 384.366C272.286 385.328 273.206 385.705 273.918 385.119C278.289 381.396 283.308 378.071 289.165 379.305C291.674 379.828 294.624 380.811 297.217 380.476C301.086 379.995 304.349 378.238 306.273 374.494C309.662 368.01 308.407 360.23 300.814 358.62C300.626 358.578 300.48 358.599 300.312 358.661C297.51 357.553 294.958 356.152 292.699 353.705C290.524 351.32 288.495 348.685 286.132 346.489C282.974 343.54 279.544 341.218 275.361 343.205C274.733 343.498 274.775 344.397 275.172 344.878C277.013 347.158 279.167 349.333 281.426 351.425C279.167 350.902 276.887 350.63 274.545 350.818C270.362 351.174 265.426 353.955 265.531 358.933C265.551 359.561 265.991 359.937 266.534 360C270.383 360.397 274.252 360.335 278.08 360.732C272.119 362.489 264.798 364.497 264.861 371.65Z" fill="#C4C4C4"/>
<path fill-rule="evenodd" clip-rule="evenodd" d="M281.438 342.217C283.366 342.978 285.107 344.387 286.702 345.876C288.301 347.362 289.777 349.075 291.209 350.738C291.919 351.562 292.618 352.373 293.316 353.139C295.393 355.388 297.737 356.718 300.368 357.782C300.559 357.751 300.764 357.752 300.992 357.802C305.089 358.672 307.543 361.246 308.467 364.501C309.377 367.707 308.785 371.494 307.016 374.879C304.939 378.919 301.401 380.798 297.323 381.306C295.893 381.49 294.404 381.308 292.999 381.033C292.292 380.894 291.592 380.729 290.922 380.569C290.851 380.552 290.781 380.535 290.71 380.518C290.112 380.374 289.542 380.238 288.994 380.123L288.992 380.123C283.563 378.979 278.828 382.036 274.46 385.756L274.455 385.76L274.45 385.765C273.88 386.233 273.144 386.37 272.495 386.092C271.847 385.814 271.436 385.187 271.37 384.443C270.688 377.406 274.695 372.356 279.749 369.099C278.067 369.327 276.429 369.935 274.714 370.66C274.333 370.822 273.947 370.99 273.555 371.16C271.234 372.168 268.73 373.256 265.956 373.548C265.331 373.618 264.831 373.297 264.53 372.953C264.231 372.611 264.026 372.14 264.025 371.654C263.991 367.713 266.025 365.184 268.766 363.459C270.212 362.549 271.877 361.848 273.566 361.259C273.139 361.239 272.709 361.22 272.279 361.201L272.261 361.201C270.344 361.117 268.396 361.033 266.449 360.832L266.444 360.831L266.439 360.831C265.544 360.728 264.731 360.061 264.695 358.961L264.694 358.956L264.694 358.951C264.635 356.144 266.01 353.971 267.915 352.483C269.804 351.007 272.244 350.174 274.474 349.984L274.476 349.984L274.478 349.984C275.956 349.865 277.404 349.922 278.828 350.103C277.293 348.591 275.833 347.027 274.524 345.407C274.188 344.997 274.017 344.444 274.047 343.923C274.078 343.383 274.342 342.759 275.004 342.448C277.323 341.347 279.468 341.44 281.438 342.217ZM275.728 343.957C275.724 343.968 275.719 343.988 275.718 344.018C275.715 344.07 275.722 344.134 275.743 344.2C275.764 344.266 275.793 344.316 275.818 344.345L275.821 344.349L275.824 344.352C277.629 346.589 279.751 348.733 281.995 350.811L284.305 352.949L281.238 352.239C279.037 351.73 276.847 351.472 274.614 351.652C272.662 351.818 270.543 352.553 268.945 353.801C267.364 355.036 266.323 356.741 266.367 358.909C266.371 359.019 266.406 359.064 266.428 359.087C266.457 359.116 266.519 359.155 266.627 359.168C268.52 359.363 270.422 359.446 272.351 359.53L272.358 359.53C274.279 359.614 276.226 359.698 278.166 359.9L282.378 360.337L278.316 361.534C278.212 361.565 278.108 361.596 278.003 361.626C275.08 362.487 272.021 363.387 269.657 364.875C267.264 366.381 265.67 368.431 265.698 371.642L265.698 371.646V371.649C265.698 371.66 265.701 371.691 265.719 371.735C265.736 371.779 265.762 371.82 265.789 371.851C265.8 371.864 265.81 371.873 265.818 371.88C268.3 371.611 270.529 370.645 272.85 369.641C273.251 369.467 273.654 369.292 274.062 369.119C276.79 367.966 279.688 366.934 282.985 367.478L285.542 367.899L283.221 369.052C277.245 372.02 272.332 377.035 273.035 384.285L273.036 384.289L273.036 384.293C273.046 384.406 273.077 384.47 273.099 384.503C273.121 384.536 273.141 384.548 273.154 384.554C273.168 384.559 273.188 384.564 273.221 384.559C273.253 384.553 273.309 384.535 273.382 384.476C277.755 380.753 283.056 377.163 289.336 378.486C289.91 378.605 290.506 378.748 291.1 378.89C291.17 378.907 291.241 378.924 291.312 378.941C291.982 379.102 292.652 379.26 293.32 379.391C294.665 379.654 295.946 379.796 297.11 379.646L297.112 379.646L297.114 379.645C300.773 379.19 303.759 377.557 305.529 374.111L305.531 374.109L305.532 374.106C307.151 371.009 307.625 367.664 306.857 364.958C306.103 362.3 304.134 360.179 300.641 359.438L300.637 359.437L300.633 359.436C300.633 359.436 300.632 359.436 300.632 359.436C300.626 359.437 300.618 359.44 300.606 359.444L300.305 359.558L300.005 359.439C297.134 358.304 294.458 356.843 292.085 354.272L292.083 354.27L292.081 354.268C291.313 353.425 290.579 352.573 289.854 351.73C288.462 350.113 287.097 348.527 285.563 347.101L285.561 347.1C283.998 345.64 282.446 344.414 280.824 343.774C279.246 343.151 277.588 343.076 275.728 343.957Z" fill="#2C2C2C"/>
<path fill-rule="evenodd" clip-rule="evenodd" d="M503.481 392.524C503.481 392.106 503.82 391.767 504.238 391.767H529.194C529.613 391.767 529.952 392.106 529.952 392.524C529.952 392.942 529.613 393.281 529.194 393.281H504.238C503.82 393.281 503.481 392.942 503.481 392.524Z" fill="#2C2C2C"/>
<path fill-rule="evenodd" clip-rule="evenodd" d="M32.8813 392.524C32.8813 392.106 33.2204 391.767 33.6387 391.767H495.919C496.337 391.767 496.676 392.106 496.676 392.524C496.676 392.942 496.337 393.281 495.919 393.281H33.6387C33.2204 393.281 32.8813 392.942 32.8813 392.524Z" fill="#2C2C2C"/>
<path fill-rule="evenodd" clip-rule="evenodd" d="M0.379395 392.524C0.379395 392.106 0.718472 391.767 1.13674 391.767H18.19C18.6083 391.767 18.9474 392.106 18.9474 392.524C18.9474 392.942 18.6083 393.281 18.19 393.281H1.13674C0.718472 393.281 0.379395 392.942 0.379395 392.524Z" fill="#2C2C2C"/>
<path d="M150.064 310.716H330.985C333.149 310.716 335.225 311.576 336.756 313.107C338.286 314.637 339.146 316.713 339.146 318.878V420.519H141.902V318.878C141.902 316.713 142.762 314.637 144.293 313.107C145.823 311.576 147.899 310.716 150.064 310.716Z" fill="white"/>
<path fill-rule="evenodd" clip-rule="evenodd" d="M150.064 311.757C148.175 311.757 146.364 312.507 145.029 313.842C143.693 315.178 142.943 316.989 142.943 318.878V419.479H338.106V318.878C338.106 316.989 337.356 315.178 336.02 313.842C334.685 312.507 332.874 311.757 330.985 311.757H150.064ZM143.557 312.371C145.283 310.646 147.623 309.676 150.064 309.676H330.985C333.425 309.676 335.766 310.646 337.492 312.371C339.217 314.097 340.187 316.437 340.187 318.878V420.519C340.187 421.094 339.721 421.56 339.146 421.56H141.903C141.328 421.56 140.862 421.094 140.862 420.519V318.878C140.862 316.437 141.832 314.097 143.557 312.371Z" fill="#2C2C2C"/>
<path d="M339.146 347.247C314.368 353.531 288.937 369.527 241.553 392.053C195.849 413.794 158.437 413.419 141.902 411.738V420.519H339.146V347.247Z" fill="#2C2C2C"/>
<path fill-rule="evenodd" clip-rule="evenodd" d="M339.785 346.426C340.038 346.623 340.187 346.926 340.187 347.247V420.519C340.187 421.094 339.721 421.56 339.146 421.56H141.903C141.328 421.56 140.862 421.094 140.862 420.519V411.738C140.862 411.444 140.987 411.163 141.205 410.966C141.423 410.769 141.715 410.673 142.008 410.703C158.401 412.37 195.613 412.755 241.106 391.113L241.106 391.113C256.713 383.694 269.918 376.993 281.52 371.106C287.528 368.057 293.107 365.226 298.366 362.627C313.753 355.022 326.388 349.409 338.891 346.238C339.202 346.16 339.532 346.229 339.785 346.426ZM241.999 392.992C197.108 414.347 160.154 414.474 142.943 412.884V419.479H338.106V348.592C326.246 351.76 314.117 357.163 299.288 364.492C294.064 367.074 288.502 369.896 282.503 372.94C270.885 378.836 257.626 385.564 241.999 392.992Z" fill="#2C2C2C"/>
<path d="M339.146 414.432H141.902V420.536H339.146V414.432Z" fill="white"/>
<path fill-rule="evenodd" clip-rule="evenodd" d="M140.862 414.432C140.862 413.857 141.328 413.392 141.903 413.392H339.146C339.721 413.392 340.187 413.857 340.187 414.432V420.537C340.187 421.111 339.721 421.577 339.146 421.577H141.903C141.328 421.577 140.862 421.111 140.862 420.537V414.432ZM142.943 415.472V419.496H338.106V415.472H142.943Z" fill="#2C2C2C"/>
</svg>
