<svg width="475" height="517" viewBox="0 0 475 517" fill="none" xmlns="http://www.w3.org/2000/svg">
<path d="M363.416 100.478C382.141 125.459 396.216 163.783 385.733 201.78C369.908 259.186 399.467 282.62 346.236 372.313C338.508 385.439 329.675 397.862 319.891 409.364C315.09 414.978 310.029 420.31 304.74 425.328C258.109 469.57 204.718 477.349 163.58 458.697C109.477 434.149 109.589 375.338 111.237 337.971C112.885 300.604 75.8846 234.986 127.682 146.459C135.544 132.919 144.622 120.138 154.736 108.372C177.899 81.6067 209.269 58.5081 240.262 51.8015C242.586 51.3039 244.902 50.8743 247.252 50.5264C292.884 43.7031 337.883 66.4097 363.416 100.478Z" fill="#50BFD7"/>
<path opacity="0.7" d="M363.416 100.478C382.141 125.459 396.216 163.783 385.733 201.78C369.908 259.186 399.467 282.62 346.236 372.313C338.508 385.439 329.675 397.862 319.891 409.364C315.09 414.978 310.029 420.31 304.74 425.328C258.109 469.57 204.718 477.349 163.58 458.697C109.477 434.149 109.589 375.338 111.237 337.971C112.885 300.604 75.8846 234.986 127.682 146.459C135.544 132.919 144.622 120.138 154.736 108.372C177.899 81.6067 209.269 58.5081 240.262 51.8015C242.586 51.3039 244.902 50.8743 247.252 50.5264C292.884 43.7031 337.883 66.4097 363.416 100.478Z" fill="white"/>
<path d="M400.695 465.388H117.304C117.223 465.388 117.146 465.351 117.089 465.286C117.032 465.22 117 465.132 117 465.039C117.001 464.947 117.034 464.86 117.091 464.795C117.147 464.73 117.224 464.693 117.304 464.691H400.695C400.776 464.693 400.852 464.73 400.909 464.795C400.966 464.86 400.998 464.947 401 465.039C401 465.132 400.968 465.22 400.911 465.286C400.853 465.351 400.776 465.388 400.695 465.388Z" fill="#263238"/>
<path opacity="0.3" fill-rule="evenodd" clip-rule="evenodd" d="M102.971 284.808C102.971 284.358 103.336 283.993 103.786 283.993H157.184C157.635 283.993 158 284.358 158 284.808V337.228C158 337.678 157.635 338.043 157.184 338.043H103.786C103.336 338.043 102.971 337.678 102.971 337.228V284.808ZM104.601 285.623V336.413H156.369V285.623H104.601Z" fill="#454545"/>
<path opacity="0.3" fill-rule="evenodd" clip-rule="evenodd" d="M133.39 288.767C132.137 288.869 131.207 289.111 130.706 289.417L130.602 289.48L130.484 289.511L130.478 289.512L130.457 289.518L130.366 289.542C130.286 289.564 130.166 289.597 130.013 289.642C129.706 289.731 129.265 289.864 128.733 290.043C127.667 290.4 126.247 290.931 124.816 291.63C123.38 292.332 121.968 293.186 120.895 294.176C119.817 295.17 119.152 296.234 119.044 297.359L119.042 297.372L119.041 297.384C118.698 300.065 118.698 302.779 119.041 305.46L119.146 306.279L118.339 306.372C118.335 306.373 118.327 306.374 118.317 306.377C118.289 306.383 118.24 306.397 118.181 306.421C118.062 306.469 117.913 306.555 117.784 306.703C117.563 306.958 117.202 307.639 117.695 309.349L117.699 309.363L117.702 309.376C118.191 311.324 119.312 313.055 120.889 314.299L121.085 314.453L122.862 319.996L121.856 324.102H119.164L119.651 329.086L118.957 329.249L118.92 329.258L118.807 329.285C118.708 329.309 118.562 329.344 118.376 329.39C118.003 329.481 117.469 329.614 116.823 329.78C115.53 330.113 113.794 330.579 112.019 331.11C110.24 331.642 108.439 332.235 107.007 332.821C106.29 333.115 105.685 333.399 105.229 333.665C104.917 333.847 104.719 333.995 104.601 334.101V336.412H156.369V335.815L155.711 335.228L155.695 335.212C155.512 335.029 155.137 334.768 154.547 334.444C153.975 334.129 153.258 333.786 152.441 333.426C150.809 332.708 148.821 331.944 146.887 331.244C144.956 330.544 143.091 329.911 141.707 329.452C141.016 329.223 140.445 329.037 140.048 328.91C139.849 328.846 139.694 328.796 139.589 328.762L139.468 328.724L139.429 328.712L138.912 328.549L138.642 325.69L135.749 325.159L134.726 318.899L135.527 318.766L135.535 318.764L135.568 318.758C135.598 318.753 135.645 318.744 135.707 318.731C135.83 318.706 136.011 318.666 136.235 318.609C136.684 318.494 137.298 318.313 137.956 318.046C139.308 317.498 140.696 316.65 141.373 315.425C141.498 315.199 141.605 314.815 141.659 314.248C141.711 313.694 141.707 313.026 141.655 312.277C141.552 310.777 141.264 309.026 140.92 307.343C140.578 305.664 140.184 304.073 139.876 302.9C139.722 302.314 139.59 301.834 139.496 301.501C139.449 301.335 139.412 301.205 139.386 301.117L139.357 301.018L139.35 300.993L139.348 300.987L139.348 300.985L139.247 300.643L139.429 300.338L139.433 300.33L139.452 300.297C139.469 300.268 139.495 300.222 139.527 300.162C139.593 300.042 139.686 299.865 139.794 299.644C140.011 299.199 140.282 298.584 140.503 297.896C140.966 296.454 141.124 294.963 140.51 293.955L137.573 289.139L139.889 290.104L139.892 290.106L139.906 290.111L139.961 290.134C140.01 290.154 140.082 290.183 140.173 290.219C140.357 290.292 140.617 290.392 140.922 290.504C141.538 290.729 142.319 290.993 143.023 291.166C143.31 291.236 143.571 291.288 143.794 291.318C143.389 290.781 142.583 290.257 141.428 289.818C140.282 289.381 138.893 289.065 137.468 288.886C136.044 288.706 134.613 288.666 133.39 288.767ZM141.483 292.42C141.86 292.541 142.253 292.656 142.633 292.749C143.027 292.846 143.426 292.924 143.789 292.958C144.126 292.99 144.542 292.995 144.903 292.856C145.098 292.781 145.321 292.647 145.484 292.412C145.653 292.169 145.705 291.896 145.688 291.645C145.658 291.2 145.41 290.765 145.124 290.375C144.447 289.452 143.282 288.779 142.008 288.294C140.711 287.8 139.19 287.459 137.672 287.268C136.152 287.076 134.607 287.031 133.257 287.142C131.992 287.245 130.798 287.493 129.965 287.961L129.938 287.969C129.849 287.993 129.721 288.029 129.559 288.076C129.234 288.17 128.771 288.31 128.215 288.497C127.106 288.868 125.615 289.425 124.101 290.165C122.592 290.902 121.025 291.838 119.789 292.978C118.56 294.112 117.587 295.516 117.422 297.19C117.091 299.786 117.065 302.411 117.346 305.012C117.094 305.142 116.809 305.339 116.552 305.635C115.845 306.45 115.546 307.77 116.124 309.787C116.682 311.997 117.929 313.97 119.683 315.42L121.168 320.056L120.576 322.472H117.366L117.89 327.83C117.519 327.921 117.015 328.047 116.416 328.201C115.111 328.537 113.354 329.009 111.552 329.548C109.754 330.085 107.894 330.696 106.389 331.312C105.638 331.62 104.956 331.937 104.409 332.256C103.892 332.557 103.379 332.923 103.098 333.367L102.971 333.567V338.043H158V335.085L156.83 334.041C156.475 333.692 155.936 333.346 155.333 333.015C154.703 332.669 153.938 332.304 153.098 331.934C151.417 331.194 149.39 330.417 147.443 329.711C145.493 329.004 143.613 328.366 142.22 327.904C141.524 327.674 140.949 327.487 140.548 327.358C140.508 327.345 140.47 327.333 140.434 327.321L140.149 324.308L137.173 323.763L136.591 320.2C136.607 320.197 136.622 320.193 136.638 320.189C137.139 320.061 137.825 319.858 138.569 319.557C140.022 318.967 141.846 317.94 142.8 316.214C143.082 315.702 143.219 315.062 143.282 314.401C143.345 313.728 143.337 312.965 143.282 312.164C143.171 310.562 142.868 308.731 142.518 307.017C142.168 305.299 141.766 303.677 141.453 302.485C141.296 301.889 141.161 301.4 141.065 301.059C141.044 300.983 141.024 300.914 141.007 300.854C141.077 300.723 141.163 300.556 141.26 300.358C141.5 299.866 141.804 299.177 142.055 298.394C142.537 296.894 142.918 294.772 141.902 293.106L141.483 292.42Z" fill="#454545"/>
<path d="M333.412 321.015L344.734 429.492" stroke="#263238" stroke-width="2" stroke-miterlimit="10"/>
<path d="M342.909 408.736L337.778 403.316" stroke="#263238" stroke-width="2" stroke-miterlimit="10"/>
<path d="M339.335 404.936C339.325 404.107 339.138 403.289 338.785 402.538C338.432 401.787 337.922 401.121 337.29 400.584C335.973 399.409 329.038 396.494 328.38 398.935C327.665 401.589 334.763 406.833 339.335 404.936Z" fill="#50BFD7" stroke="#263238" stroke-miterlimit="10"/>
<path d="M339.335 404.936L332.732 400.825" stroke="#263238" stroke-width="0.5" stroke-miterlimit="10"/>
<path d="M344.196 421.071L339.059 415.65" stroke="#263238" stroke-width="2" stroke-miterlimit="10"/>
<path d="M340.623 417.271C340.613 416.441 340.425 415.624 340.072 414.873C339.719 414.122 339.21 413.456 338.578 412.919C337.261 411.744 330.326 408.828 329.668 411.27C328.954 413.909 336.051 419.139 340.623 417.271Z" fill="#50BFD7" stroke="#263238" stroke-miterlimit="10"/>
<path d="M340.623 417.271L334.02 413.159" stroke="#263238" stroke-width="0.5" stroke-miterlimit="10"/>
<path d="M339.766 378.633L334.636 373.212" stroke="#263238" stroke-width="2" stroke-miterlimit="10"/>
<path d="M336.193 374.833C336.183 374.003 335.996 373.185 335.643 372.434C335.29 371.684 334.78 371.017 334.147 370.481C332.831 369.306 325.896 366.39 325.238 368.832C324.537 371.485 331.614 376.701 336.193 374.833Z" fill="#50BFD7" stroke="#263238" stroke-miterlimit="10"/>
<path d="M336.193 374.832L329.59 370.721" stroke="#263238" stroke-width="0.5" stroke-miterlimit="10"/>
<path d="M341.054 390.967L335.924 385.546" stroke="#263238" stroke-width="2" stroke-miterlimit="10"/>
<path d="M337.481 387.167C337.471 386.337 337.283 385.52 336.93 384.769C336.578 384.018 336.068 383.352 335.436 382.815C334.12 381.64 327.185 378.724 326.526 381.166C325.812 383.82 332.91 389.035 337.481 387.167Z" fill="#50BFD7" stroke="#263238" stroke-miterlimit="10"/>
<path d="M337.481 387.167L330.878 383.055" stroke="#263238" stroke-width="0.5" stroke-miterlimit="10"/>
<path d="M337.672 358.592L332.541 353.171" stroke="#263238" stroke-width="2" stroke-miterlimit="10"/>
<path d="M334.098 354.791C334.089 353.963 333.903 353.145 333.551 352.394C333.199 351.644 332.691 350.977 332.06 350.439C330.744 349.265 323.83 346.349 323.122 348.805C322.415 351.444 329.534 356.66 334.098 354.791Z" fill="#50BFD7" stroke="#263238" stroke-miterlimit="10"/>
<path d="M334.098 354.791L327.503 350.68" stroke="#263238" stroke-width="0.5" stroke-miterlimit="10"/>
<path d="M335.57 338.466L330.439 333.045" stroke="#263238" stroke-width="2" stroke-miterlimit="10"/>
<path d="M332.003 334.652C331.992 333.822 331.804 333.005 331.451 332.255C331.098 331.504 330.589 330.837 329.958 330.299C328.642 329.125 321.707 326.202 321.049 328.644C320.334 331.318 327.432 336.534 332.003 334.652Z" fill="#50BFD7" stroke="#263238" stroke-miterlimit="10"/>
<path d="M332.003 334.666L325.401 330.554" stroke="#263238" stroke-width="0.5" stroke-miterlimit="10"/>
<path d="M342.045 401.433L345.944 395.072" stroke="#263238" stroke-width="2" stroke-miterlimit="10"/>
<path d="M344.755 396.982C344.595 396.169 344.61 395.33 344.8 394.524C344.991 393.717 345.352 392.96 345.859 392.304C346.9 390.889 353.085 386.594 354.231 388.844C355.477 391.3 349.61 397.867 344.755 396.982Z" fill="#50BFD7" stroke="#263238" stroke-miterlimit="10"/>
<path d="M344.756 396.982L350.7 391.3" stroke="#263238" stroke-width="0.5" stroke-miterlimit="10"/>
<path d="M338.655 368.973L342.562 362.604" stroke="#263238" stroke-width="2" stroke-miterlimit="10"/>
<path d="M341.366 364.515C341.205 363.701 341.22 362.863 341.411 362.056C341.601 361.249 341.962 360.493 342.47 359.837C343.517 358.422 349.695 354.126 350.841 356.384C352.094 358.832 346.227 365.399 341.366 364.515Z" fill="#50BFD7" stroke="#263238" stroke-miterlimit="10"/>
<path d="M341.366 364.515L347.31 358.839" stroke="#263238" stroke-width="0.5" stroke-miterlimit="10"/>
<path d="M337.169 354.707L341.068 348.338" stroke="#263238" stroke-width="2" stroke-miterlimit="10"/>
<path d="M339.88 350.22C339.719 349.407 339.734 348.57 339.923 347.763C340.112 346.956 340.471 346.199 340.977 345.543C342.024 344.127 348.209 339.832 349.355 342.089C350.601 344.559 344.734 351.133 339.88 350.22Z" fill="#50BFD7" stroke="#263238" stroke-miterlimit="10"/>
<path d="M339.88 350.248L345.824 344.573" stroke="#263238" stroke-width="0.5" stroke-miterlimit="10"/>
<path d="M334.983 333.788L338.889 327.426" stroke="#263238" stroke-width="2" stroke-miterlimit="10"/>
<path d="M337.693 329.337C337.533 328.523 337.548 327.683 337.739 326.875C337.929 326.067 338.29 325.309 338.797 324.652C339.844 323.237 346.022 318.949 347.169 321.199C348.421 323.647 342.555 330.222 337.693 329.337Z" fill="#50BFD7" stroke="#263238" stroke-miterlimit="10"/>
<path d="M337.693 329.337L343.637 323.655" stroke="#263238" stroke-width="0.5" stroke-miterlimit="10"/>
<path d="M333.313 320.413C333.152 319.6 333.167 318.762 333.358 317.955C333.548 317.148 333.909 316.391 334.417 315.736C335.464 314.32 341.642 310.025 342.788 312.282C344.041 314.731 338.174 321.298 333.313 320.413Z" fill="#50BFD7" stroke="#263238" stroke-miterlimit="10"/>
<path d="M333.313 320.413L339.257 314.738" stroke="#263238" stroke-width="0.5" stroke-miterlimit="10"/>
<path d="M333.659 320.661C332.834 320.735 332.002 320.632 331.22 320.359C330.438 320.085 329.723 319.648 329.123 319.076C327.814 317.887 324.17 311.292 326.562 310.386C329.13 309.402 335.046 315.92 333.659 320.661Z" fill="#50BFD7" stroke="#263238" stroke-miterlimit="10"/>
<path d="M333.66 320.661L328.635 314.158" stroke="#263238" stroke-width="0.5" stroke-miterlimit="10"/>
<path d="M363.268 335.954L352.009 444.438" stroke="#263238" stroke-width="2" stroke-miterlimit="10"/>
<path d="M354.5 423.746L350.594 417.391" stroke="#263238" stroke-width="2" stroke-miterlimit="10"/>
<path d="M351.79 419.295C351.956 418.484 351.946 417.647 351.762 416.84C351.577 416.033 351.223 415.275 350.721 414.617C349.674 413.202 343.489 408.913 342.343 411.171C341.062 413.619 346.928 420.186 351.79 419.295Z" fill="#50BFD7" stroke="#263238" stroke-miterlimit="10"/>
<path d="M351.789 419.295L346.178 413.917" stroke="#263238" stroke-width="0.5" stroke-miterlimit="10"/>
<path d="M357.628 393.642L353.721 387.28" stroke="#263238" stroke-width="2" stroke-miterlimit="10"/>
<path d="M354.91 389.191C355.071 388.378 355.056 387.539 354.865 386.732C354.675 385.926 354.314 385.169 353.806 384.513C352.759 383.098 346.574 378.809 345.428 381.06C344.182 383.515 350.056 390.075 354.91 389.191Z" fill="#50BFD7" stroke="#263238" stroke-miterlimit="10"/>
<path d="M354.91 389.191L349.299 383.806" stroke="#263238" stroke-width="0.5" stroke-miterlimit="10"/>
<path d="M356.347 405.984L352.441 399.622" stroke="#263238" stroke-width="2" stroke-miterlimit="10"/>
<path d="M353.629 401.532C353.79 400.718 353.775 399.879 353.585 399.071C353.394 398.263 353.033 397.505 352.525 396.848C351.478 395.432 345.3 391.144 344.154 393.401C342.937 395.85 348.775 402.417 353.629 401.532Z" fill="#50BFD7" stroke="#263238" stroke-miterlimit="10"/>
<path d="M353.63 401.533L348.018 396.147" stroke="#263238" stroke-width="0.5" stroke-miterlimit="10"/>
<path d="M359.708 373.601L355.802 367.239" stroke="#263238" stroke-width="2" stroke-miterlimit="10"/>
<path d="M356.991 369.15C357.152 368.337 357.137 367.498 356.946 366.692C356.756 365.885 356.395 365.128 355.887 364.472C354.84 363.057 348.655 358.769 347.508 361.019C346.263 363.475 352.137 370.035 356.991 369.15Z" fill="#50BFD7" stroke="#263238" stroke-miterlimit="10"/>
<path d="M356.991 369.15L351.379 363.765" stroke="#263238" stroke-width="0.5" stroke-miterlimit="10"/>
<path d="M361.796 353.475L357.89 347.113" stroke="#263238" stroke-width="2" stroke-miterlimit="10"/>
<path d="M359.079 349.024C359.24 348.209 359.224 347.37 359.034 346.562C358.844 345.754 358.482 344.996 357.975 344.339C356.927 342.924 350.742 338.635 349.596 340.893C348.351 343.341 354.259 349.908 359.079 349.024Z" fill="#50BFD7" stroke="#263238" stroke-miterlimit="10"/>
<path d="M359.079 349.024L353.467 343.639" stroke="#263238" stroke-width="0.5" stroke-miterlimit="10"/>
<path d="M355.158 416.429L360.288 411.008" stroke="#263238" stroke-width="2" stroke-miterlimit="10"/>
<path d="M358.732 412.629C358.737 411.795 358.921 410.972 359.273 410.216C359.625 409.46 360.135 408.789 360.77 408.248C362.086 407.066 369.021 404.151 369.679 406.592C370.394 409.274 363.303 414.497 358.732 412.629Z" fill="#50BFD7" stroke="#263238" stroke-miterlimit="10"/>
<path d="M358.732 412.628L365.716 408.298" stroke="#263238" stroke-width="0.5" stroke-miterlimit="10"/>
<path d="M358.527 383.961L363.657 378.541" stroke="#263238" stroke-width="2" stroke-miterlimit="10"/>
<path d="M362.1 380.161C362.109 379.332 362.296 378.515 362.647 377.764C362.999 377.013 363.507 376.347 364.138 375.809C365.454 374.634 372.389 371.712 373.048 374.153C373.762 376.807 366.672 382.065 362.1 380.161Z" fill="#50BFD7" stroke="#263238" stroke-miterlimit="10"/>
<path d="M362.1 380.161L369.085 375.83" stroke="#263238" stroke-width="0.5" stroke-miterlimit="10"/>
<path d="M360.013 369.695L365.136 364.267" stroke="#263238" stroke-width="2" stroke-miterlimit="10"/>
<path d="M363.579 365.894C363.588 365.066 363.775 364.248 364.127 363.498C364.478 362.747 364.987 362.08 365.617 361.542C366.934 360.361 373.869 357.445 374.527 359.886C375.242 362.54 368.151 367.763 363.579 365.894Z" fill="#50BFD7" stroke="#263238" stroke-miterlimit="10"/>
<path d="M363.579 365.895L370.564 361.564" stroke="#263238" stroke-width="0.5" stroke-miterlimit="10"/>
<path d="M362.178 348.776L367.309 343.356" stroke="#263238" stroke-width="2" stroke-miterlimit="10"/>
<path d="M365.752 344.976C365.761 344.147 365.948 343.33 366.3 342.58C366.651 341.829 367.159 341.162 367.79 340.624C369.106 339.449 376.041 336.527 376.699 338.968C377.414 341.622 370.323 346.845 365.752 344.976Z" fill="#50BFD7" stroke="#263238" stroke-miterlimit="10"/>
<path d="M365.752 344.976L372.736 340.645" stroke="#263238" stroke-width="0.5" stroke-miterlimit="10"/>
<path d="M363.303 335.359C363.313 334.531 363.5 333.713 363.851 332.963C364.203 332.212 364.711 331.545 365.341 331.007C366.658 329.833 373.586 326.91 374.251 329.351C374.965 331.991 367.875 337.213 363.303 335.359Z" fill="#50BFD7" stroke="#263238" stroke-miterlimit="10"/>
<path d="M363.303 335.345L370.288 331.014" stroke="#263238" stroke-width="0.5" stroke-miterlimit="10"/>
<path d="M363.586 335.656C362.762 335.561 361.968 335.29 361.257 334.862C360.547 334.433 359.936 333.857 359.468 333.172C358.435 331.757 356.262 324.539 358.76 324.143C361.47 323.704 365.922 331.311 363.586 335.656Z" fill="#50BFD7" stroke="#263238" stroke-miterlimit="10"/>
<path d="M363.586 335.657L360.005 328.254" stroke="#263238" stroke-width="0.5" stroke-miterlimit="10"/>
<path d="M350.367 291.781V428.969" stroke="#263238" stroke-width="2" stroke-miterlimit="10"/>
<path d="M350.48 408.34L345.937 402.417" stroke="#263238" stroke-width="2" stroke-miterlimit="10"/>
<path d="M347.317 404.193C347.394 403.367 347.292 402.534 347.02 401.751C346.748 400.967 346.311 400.251 345.739 399.65C344.55 398.341 337.955 394.696 337.049 397.081C336.065 399.65 342.583 405.573 347.317 404.193Z" fill="#50BFD7" stroke="#263238" stroke-miterlimit="10"/>
<path d="M347.317 404.193L341.182 399.417" stroke="#263238" stroke-width="0.5" stroke-miterlimit="10"/>
<path d="M350.48 382.56L345.937 376.637" stroke="#263238" stroke-width="2" stroke-miterlimit="10"/>
<path d="M347.317 378.413C347.394 377.587 347.292 376.755 347.02 375.971C346.748 375.187 346.311 374.471 345.739 373.87C344.55 372.561 337.955 368.917 337.049 371.301C336.065 373.87 342.583 379.793 347.317 378.413Z" fill="#50BFD7" stroke="#263238" stroke-miterlimit="10"/>
<path d="M347.317 378.413L341.182 373.636" stroke="#263238" stroke-width="0.5" stroke-miterlimit="10"/>
<path d="M350.48 352.293L345.937 346.37" stroke="#263238" stroke-width="2" stroke-miterlimit="10"/>
<path d="M347.317 348.147C347.394 347.321 347.292 346.488 347.02 345.704C346.748 344.92 346.311 344.204 345.739 343.603C344.55 342.294 337.955 338.65 337.049 341.035C336.065 343.603 342.583 349.512 347.317 348.147Z" fill="#50BFD7" stroke="#263238" stroke-miterlimit="10"/>
<path d="M347.317 348.147L341.182 343.37" stroke="#263238" stroke-width="0.5" stroke-miterlimit="10"/>
<path d="M350.48 332.139L345.937 326.216" stroke="#263238" stroke-width="2" stroke-miterlimit="10"/>
<path d="M347.317 327.992C347.394 327.167 347.292 326.336 347.02 325.553C346.748 324.771 346.311 324.056 345.739 323.456C344.55 322.147 337.955 318.503 337.049 320.887C336.065 323.456 342.583 329.379 347.317 327.992Z" fill="#50BFD7" stroke="#263238" stroke-miterlimit="10"/>
<path d="M347.317 327.993L341.182 323.223" stroke="#263238" stroke-width="0.5" stroke-miterlimit="10"/>
<path d="M350.48 311.907L345.937 305.984" stroke="#263238" stroke-width="2" stroke-miterlimit="10"/>
<path d="M347.317 307.76C347.394 306.934 347.292 306.101 347.02 305.318C346.748 304.534 346.311 303.818 345.739 303.217C344.55 301.908 337.955 298.264 337.049 300.648C336.065 303.217 342.583 309.176 347.317 307.76Z" fill="#50BFD7" stroke="#263238" stroke-miterlimit="10"/>
<path d="M347.317 307.76L341.182 302.984" stroke="#263238" stroke-width="0.5" stroke-miterlimit="10"/>
<path d="M350.381 416.209L354.917 410.286" stroke="#263238" stroke-width="2" stroke-miterlimit="10"/>
<path d="M353.552 412.062C353.475 411.236 353.576 410.404 353.849 409.62C354.121 408.836 354.558 408.12 355.13 407.519C356.319 406.217 362.914 402.566 363.82 404.958C364.796 407.541 358.279 413.45 353.552 412.062Z" fill="#50BFD7" stroke="#263238" stroke-miterlimit="10"/>
<path d="M353.538 412.062L360.041 407.031" stroke="#263238" stroke-width="0.5" stroke-miterlimit="10"/>
<path d="M350.381 375.208L354.917 369.284" stroke="#263238" stroke-width="2" stroke-miterlimit="10"/>
<path d="M353.552 371.061C353.475 370.235 353.576 369.402 353.849 368.618C354.121 367.835 354.558 367.118 355.13 366.518C356.319 365.216 362.914 361.564 363.82 363.956C364.796 366.496 358.279 372.448 353.552 371.061Z" fill="#50BFD7" stroke="#263238" stroke-miterlimit="10"/>
<path d="M353.538 371.061L360.041 366.029" stroke="#263238" stroke-width="0.5" stroke-miterlimit="10"/>
<path d="M350.381 354.975L354.917 349.045" stroke="#263238" stroke-width="2" stroke-miterlimit="10"/>
<path d="M353.552 350.829C353.475 350.003 353.576 349.17 353.849 348.386C354.121 347.603 354.558 346.886 355.13 346.286C356.319 344.976 362.914 341.332 363.82 343.717C364.796 346.286 358.279 352.209 353.552 350.829Z" fill="#50BFD7" stroke="#263238" stroke-miterlimit="10"/>
<path d="M353.538 350.829L360.041 345.79" stroke="#263238" stroke-width="0.5" stroke-miterlimit="10"/>
<path d="M350.381 328.226L354.917 322.303" stroke="#263238" stroke-width="2" stroke-miterlimit="10"/>
<path d="M353.552 324.079C353.475 323.253 353.576 322.42 353.849 321.636C354.121 320.853 354.558 320.137 355.13 319.536C356.319 318.227 362.914 314.582 363.82 316.967C364.796 319.536 358.279 325.452 353.552 324.079Z" fill="#50BFD7" stroke="#263238" stroke-miterlimit="10"/>
<path d="M353.538 324.079L360.041 319.047" stroke="#263238" stroke-width="0.5" stroke-miterlimit="10"/>
<path d="M350.381 307.194L354.917 301.271" stroke="#263238" stroke-width="2" stroke-miterlimit="10"/>
<path d="M353.552 303.047C353.475 302.221 353.576 301.388 353.849 300.605C354.121 299.821 354.558 299.105 355.13 298.504C356.319 297.202 362.914 293.551 363.82 295.942C364.796 298.504 358.279 304.427 353.552 303.047Z" fill="#50BFD7" stroke="#263238" stroke-miterlimit="10"/>
<path d="M353.538 303.047L360.041 298.016" stroke="#263238" stroke-width="0.5" stroke-miterlimit="10"/>
<path d="M350.105 293.72C350.029 292.894 350.13 292.062 350.402 291.278C350.674 290.494 351.111 289.778 351.683 289.177C352.872 287.875 359.468 284.224 360.374 286.616C361.336 289.177 354.847 295.107 350.105 293.72Z" fill="#50BFD7" stroke="#263238" stroke-miterlimit="10"/>
<path d="M350.105 293.72L356.609 288.689" stroke="#263238" stroke-width="0.5" stroke-miterlimit="10"/>
<path d="M350.424 294.003C349.594 293.992 348.776 293.802 348.026 293.448C347.275 293.094 346.609 292.584 346.072 291.951C344.897 290.635 341.989 283.7 344.43 283.042C347.084 282.334 352.292 289.432 350.424 294.003Z" fill="#50BFD7" stroke="#263238" stroke-miterlimit="10"/>
<path d="M350.424 294.003L346.1 287.012" stroke="#263238" stroke-width="0.5" stroke-miterlimit="10"/>
<path d="M356.014 464.543H341.486L339.667 427.85H357.826L356.014 464.543Z" fill="#263238" stroke="#263238" stroke-miterlimit="10"/>
<path d="M145.603 232.841C145.603 232.841 141.308 231.906 139.658 229.788C137.992 227.67 137.014 226.735 131.199 224.208C125.429 221.68 123.136 218.408 123.136 218.408C123.136 218.408 119.104 222.104 127.957 226.34C133.376 228.941 115.569 228.561 110.208 227.962C110.208 227.962 107.111 229.656 112.238 232.14C117.366 234.623 112.428 234.813 122.581 239.093C132.719 243.388 144.77 245.638 147.225 239.517C149.679 233.396 145.603 232.841 145.603 232.841Z" fill="#E0E0E0"/>
<path fill-rule="evenodd" clip-rule="evenodd" d="M123.136 218.409L122.741 217.978L123.232 217.528L123.614 218.072L123.614 218.073L123.614 218.073L123.614 218.073L123.614 218.073L123.617 218.077C123.62 218.081 123.625 218.088 123.633 218.098C123.648 218.119 123.672 218.151 123.706 218.194C123.773 218.28 123.878 218.409 124.023 218.573C124.312 218.902 124.762 219.372 125.389 219.921C126.643 221.019 128.608 222.435 131.433 223.672C134.344 224.938 136.087 225.822 137.316 226.671C138.567 227.534 139.271 228.351 140.117 229.427L140.118 229.428L140.118 229.429C140.84 230.355 142.196 231.072 143.461 231.565C144.08 231.805 144.649 231.983 145.065 232.1C145.272 232.158 145.44 232.201 145.555 232.23C145.612 232.244 145.657 232.254 145.686 232.261C145.697 232.264 145.705 232.266 145.712 232.267C145.724 232.269 145.739 232.272 145.757 232.275C145.797 232.283 145.852 232.294 145.917 232.311C146.049 232.344 146.228 232.399 146.432 232.487C146.839 232.662 147.361 232.974 147.793 233.522C148.687 234.656 149.035 236.573 147.767 239.735C147.078 241.453 145.716 242.562 143.961 243.188C142.221 243.808 140.077 243.964 137.742 243.794C133.067 243.454 127.454 241.793 122.353 239.632C117.269 237.489 115.836 236.322 115.059 235.296C114.922 235.115 114.804 234.935 114.7 234.778C114.666 234.725 114.633 234.676 114.602 234.629C114.471 234.435 114.343 234.26 114.168 234.077C113.818 233.713 113.234 233.272 111.984 232.666C110.668 232.029 109.818 231.414 109.312 230.818C108.792 230.204 108.621 229.588 108.725 229.016C108.824 228.475 109.149 228.08 109.404 227.84C109.535 227.716 109.661 227.622 109.754 227.558C109.801 227.526 109.841 227.501 109.871 227.483C109.886 227.474 109.898 227.466 109.908 227.461C109.912 227.458 109.916 227.456 109.92 227.454L109.924 227.452L109.926 227.451L109.927 227.45C109.927 227.45 109.927 227.45 110.208 227.962L109.927 227.45L110.089 227.361L110.273 227.382C112.922 227.678 118.685 227.922 123.105 227.767C125.337 227.689 127.142 227.511 128.044 227.219C128.112 227.197 128.17 227.176 128.22 227.156C128.103 227.075 127.935 226.979 127.704 226.868C123.223 224.723 121.764 222.605 121.644 220.826C121.584 219.952 121.859 219.241 122.139 218.759C122.279 218.517 122.424 218.328 122.535 218.197C122.59 218.132 122.638 218.08 122.674 218.044C122.692 218.025 122.707 218.01 122.718 218C122.724 217.994 122.729 217.99 122.732 217.986L122.737 217.981L122.739 217.979L122.74 217.979C122.741 217.978 122.741 217.978 123.136 218.409ZM128.412 227.32C128.412 227.32 128.411 227.32 128.411 227.318C128.411 227.32 128.412 227.32 128.412 227.32ZM110.354 228.566C110.309 228.6 110.257 228.642 110.204 228.692C110.038 228.848 109.91 229.031 109.875 229.224C109.846 229.386 109.862 229.659 110.204 230.062C110.559 230.482 111.245 231.01 112.493 231.614C113.807 232.251 114.527 232.764 115.011 233.268C115.253 233.519 115.424 233.756 115.572 233.977C115.616 234.042 115.656 234.103 115.694 234.162C115.792 234.31 115.88 234.443 115.991 234.591C116.566 235.35 117.739 236.419 122.808 238.555L122.809 238.556C127.846 240.69 133.327 242.301 137.827 242.629C140.078 242.793 142.041 242.632 143.568 242.087C145.08 241.548 146.144 240.642 146.682 239.3C147.869 236.34 147.406 234.919 146.875 234.246C146.595 233.89 146.251 233.681 145.971 233.561C145.831 233.501 145.711 233.464 145.629 233.444C145.588 233.433 145.558 233.427 145.539 233.423C145.534 233.422 145.531 233.422 145.528 233.421C145.525 233.421 145.523 233.42 145.521 233.42C145.52 233.42 145.52 233.42 145.52 233.42L145.501 233.417L145.479 233.412L145.603 232.841C145.479 233.412 145.479 233.412 145.479 233.412L145.478 233.412L145.477 233.412L145.474 233.411L145.463 233.409C145.453 233.407 145.44 233.404 145.423 233.4C145.388 233.392 145.339 233.38 145.276 233.365C145.149 233.333 144.969 233.287 144.748 233.225C144.306 233.1 143.699 232.911 143.037 232.654C141.743 232.149 140.127 231.34 139.198 230.149C138.379 229.107 137.761 228.398 136.652 227.632C135.523 226.853 133.87 226.006 130.967 224.744L130.965 224.743C128.02 223.454 125.954 221.97 124.619 220.8C123.953 220.217 123.469 219.712 123.148 219.348C122.95 219.691 122.77 220.169 122.809 220.747C122.886 221.874 123.838 223.722 128.209 225.814L128.209 225.814C128.568 225.986 128.866 226.162 129.086 226.347C129.291 226.52 129.52 226.779 129.552 227.129C129.587 227.525 129.359 227.806 129.149 227.969C128.943 228.129 128.676 228.243 128.403 228.331C127.323 228.681 125.357 228.858 123.145 228.935C118.789 229.087 113.148 228.858 110.354 228.566ZM110.491 228.473C110.491 228.473 110.492 228.473 110.491 228.473L110.491 228.473Z" fill="#2C2C2C"/>
<path d="M266.046 266.63C266.046 266.63 253.016 268.163 250.284 268.163C250.255 268.163 250.226 268.163 250.197 268.163C250.182 268.163 250.168 268.163 250.153 268.163C250.138 268.163 250.124 268.163 250.109 268.163C250.08 268.163 250.051 268.163 250.021 268.163C247.275 268.163 234.259 266.63 234.259 266.63C216.89 272.108 218.132 297.453 218.147 298.168C218.264 303.398 218.337 308.642 218.468 313.872C218.775 326.187 221.916 363.072 222.719 374.802C222.777 375.767 222.836 376.57 222.865 377.169C224.18 403.493 225.48 429.816 226.795 456.14C226.911 458.448 227.028 460.771 227.145 463.079C227.145 463.079 233.251 466.877 245.23 463.079L245.332 377.578L248.663 314.047C248.663 314.047 249.276 313.96 250.007 313.887C250.051 313.887 250.094 313.901 250.153 313.901V313.916C250.168 313.916 250.182 313.916 250.197 313.916C250.211 313.916 250.226 313.916 250.241 313.916V313.901C250.284 313.901 250.328 313.887 250.387 313.887C251.117 313.96 251.731 314.047 251.731 314.047L255.061 377.578L255.163 463.079C267.142 466.877 273.248 463.079 273.248 463.079C273.365 460.771 273.482 458.448 273.599 456.14C274.914 429.816 276.199 403.493 277.528 377.169C277.558 376.57 277.601 375.767 277.675 374.802C278.463 363.087 281.619 326.187 281.925 313.872C282.057 308.642 282.13 303.398 282.247 298.168C282.188 297.453 283.415 272.108 266.046 266.63Z" fill="#2C2C2C"/>
<path d="M216.583 197.943C216.583 197.943 204.43 256.843 198.893 260.086C194.438 262.7 160.284 251.584 147.312 247.216C144.23 246.193 142.345 245.521 142.345 245.521L144.58 230.417L151.899 231.41L188.346 236.362C188.346 236.362 200.631 176.513 209.455 175.782C218.293 175.037 216.583 197.943 216.583 197.943Z" fill="#2C2C2C"/>
<path d="M288.003 175.416C288.003 175.416 331.111 218.933 333.945 240.685C333.945 240.685 327.386 252.985 287.9 276.445L284.38 266.38C284.38 266.38 306.423 241.079 314.078 234.681C314.078 234.681 279.559 206.137 280.363 198.044C281.152 189.922 283.167 175.84 288.003 175.416Z" fill="#2C2C2C"/>
<path d="M305.634 193.692C305.634 203.012 299.528 208.782 290.208 208.782C280.888 208.782 273.336 201.229 273.336 191.91C273.336 182.59 280.377 172.306 289.259 175.096C299.046 178.149 305.634 184.372 305.634 193.692Z" fill="white"/>
<path fill-rule="evenodd" clip-rule="evenodd" d="M278.413 179.338C275.636 182.615 273.92 187.381 273.92 191.909C273.92 200.906 281.211 208.197 290.208 208.197C294.747 208.197 298.448 206.794 301.01 204.311C303.57 201.831 305.05 198.22 305.05 193.691C305.05 184.727 298.74 178.664 289.085 175.653L289.084 175.652C284.932 174.348 281.181 176.072 278.413 179.338ZM289.433 174.537C284.703 173.052 280.494 175.075 277.521 178.583C274.557 182.08 272.752 187.117 272.752 191.909C272.752 201.551 280.566 209.365 290.208 209.365C294.989 209.365 299.002 207.883 301.823 205.151C304.646 202.416 306.219 198.482 306.219 193.691C306.219 184.015 299.353 177.632 289.433 174.537Z" fill="#2C2C2C"/>
<path d="M298.053 190.975C298.053 197.87 293.539 202.135 286.644 202.135C279.749 202.135 274.168 196.555 274.168 189.66C274.168 182.765 279.369 175.154 285.957 177.214C293.174 179.493 298.053 184.094 298.053 190.975Z" fill="#2C2C2C"/>
<path d="M192.422 193.692C192.422 203.012 198.528 208.782 207.848 208.782C217.168 208.782 224.721 201.229 224.721 191.91C224.721 182.59 217.679 172.306 208.798 175.096C199.01 178.149 192.422 184.372 192.422 193.692Z" fill="white"/>
<path fill-rule="evenodd" clip-rule="evenodd" d="M220.535 178.583C223.499 182.08 225.305 187.117 225.305 191.909C225.305 201.551 217.491 209.365 207.848 209.365C203.067 209.365 199.054 207.883 196.233 205.151C193.41 202.416 191.838 198.482 191.838 193.691C191.838 184.015 198.703 177.632 208.623 174.537C213.353 173.052 217.563 175.075 220.535 178.583ZM219.644 179.338C216.876 176.072 213.124 174.348 208.973 175.652L208.972 175.653C199.317 178.664 193.006 184.727 193.006 193.691C193.006 198.22 194.487 201.831 197.047 204.311C199.609 206.794 203.309 208.197 207.848 208.197C216.845 208.197 224.136 200.906 224.136 191.909C224.136 187.381 222.421 182.615 219.644 179.338Z" fill="#2C2C2C"/>
<path d="M200.004 190.975C200.004 197.87 204.518 202.135 211.413 202.135C218.308 202.135 223.888 196.555 223.888 189.66C223.888 182.765 218.687 175.154 212.114 177.214C204.883 179.493 200.004 184.094 200.004 190.975Z" fill="#2C2C2C"/>
<path d="M270.269 268.471C259.722 267.507 249.306 267.112 249.306 267.112C245.479 267.229 237.327 267.565 228.913 268.471C231.367 276.856 239.694 283.035 249.584 283.035C259.488 283.05 267.814 276.841 270.269 268.471Z" fill="#50BFD7"/>
<path d="M269.407 269.346C270.312 265.781 288.441 174.948 288.441 174.948C288.441 174.948 240.059 160.662 209.119 174.948L228.957 270.134L269.407 269.346Z" fill="white"/>
<path fill-rule="evenodd" clip-rule="evenodd" d="M288.605 174.388C288.606 174.388 288.606 174.389 288.441 174.949C289.014 175.063 289.014 175.064 289.014 175.064L289.013 175.067L288.81 176.084C288.677 176.75 288.482 177.728 288.233 178.973C287.736 181.464 287.024 185.026 286.167 189.312C284.453 197.883 282.159 209.349 279.836 220.926C275.194 244.063 270.431 267.689 269.973 269.49L269.863 269.922L228.484 270.729L208.452 174.613L208.874 174.418C224.494 167.206 244.457 167.222 260.447 169.011C268.454 169.907 275.49 171.25 280.525 172.369C283.042 172.929 285.06 173.433 286.45 173.798C287.145 173.98 287.682 174.127 288.047 174.229C288.23 174.28 288.369 174.32 288.463 174.347C288.509 174.36 288.545 174.371 288.569 174.378L288.596 174.386L288.604 174.388L288.605 174.388ZM288.441 174.949L289.014 175.063L289.118 174.54L288.606 174.389L288.441 174.949ZM287.762 175.363C287.753 175.36 287.743 175.358 287.733 175.355C287.374 175.254 286.842 175.109 286.153 174.928C284.776 174.567 282.773 174.067 280.271 173.51C275.267 172.397 268.273 171.062 260.317 170.172C244.527 168.406 225.045 168.405 209.786 175.287L229.43 269.541L268.94 268.771C269.768 265.058 274.277 242.696 278.69 220.696C281.013 209.119 283.307 197.654 285.021 189.083C285.878 184.797 286.59 181.235 287.087 178.744C287.336 177.499 287.531 176.522 287.664 175.855L287.762 175.363Z" fill="black"/>
<path d="M269.407 269.346C270.312 265.781 288.441 174.948 288.441 174.948C288.441 174.948 240.059 160.662 209.119 174.948L228.957 270.134L269.407 269.346Z" fill="white"/>
<path fill-rule="evenodd" clip-rule="evenodd" d="M288.605 174.388C288.606 174.388 288.606 174.389 288.441 174.949C289.014 175.063 289.014 175.064 289.014 175.064L289.013 175.067L288.81 176.084C288.677 176.75 288.482 177.728 288.233 178.973C287.736 181.464 287.024 185.026 286.167 189.312C284.453 197.883 282.159 209.349 279.836 220.926C275.194 244.063 270.431 267.689 269.973 269.49L269.863 269.922L228.484 270.729L208.452 174.613L208.874 174.418C224.494 167.206 244.457 167.222 260.447 169.011C268.454 169.907 275.49 171.25 280.525 172.369C283.042 172.929 285.06 173.433 286.45 173.798C287.145 173.98 287.682 174.127 288.047 174.229C288.23 174.28 288.369 174.32 288.463 174.347C288.509 174.36 288.545 174.371 288.569 174.378L288.596 174.386L288.604 174.388L288.605 174.388ZM288.441 174.949L289.014 175.063L289.118 174.54L288.606 174.389L288.441 174.949ZM287.762 175.363C287.753 175.36 287.743 175.358 287.733 175.355C287.374 175.254 286.842 175.109 286.153 174.928C284.776 174.567 282.773 174.067 280.271 173.51C275.267 172.397 268.273 171.062 260.317 170.172C244.527 168.406 225.045 168.405 209.786 175.287L229.43 269.541L268.94 268.771C269.768 265.058 274.277 242.696 278.69 220.696C281.013 209.119 283.307 197.654 285.021 189.083C285.878 184.797 286.59 181.235 287.087 178.744C287.336 177.499 287.531 176.522 287.664 175.855L287.762 175.363Z" fill="#2C2C2C"/>
<path d="M276.681 172.159C263.169 169.442 240.322 166.345 220.688 171.02C223.011 185.672 225.334 200.338 227.657 214.99C229.526 224.924 238.949 231.541 248.78 231.6C258.611 231.541 268.033 224.938 269.903 214.99C272.153 200.704 274.417 186.432 276.681 172.159Z" fill="#50BFD7"/>
<path fill-rule="evenodd" clip-rule="evenodd" d="M220.554 170.451C240.316 165.746 263.267 168.865 276.797 171.586L277.347 171.696L277.259 172.25C274.995 186.522 272.731 200.794 270.481 215.08L270.48 215.089L270.478 215.098C268.548 225.365 258.848 232.123 248.784 232.183L248.781 232.183L248.777 232.183C238.713 232.123 229.013 225.35 227.083 215.098L227.081 215.089L227.08 215.081C225.919 207.756 224.758 200.427 223.596 193.098L223.596 193.096C222.435 185.766 221.273 178.437 220.112 171.111L220.027 170.576L220.554 170.451ZM221.351 171.464C222.484 178.611 223.617 185.761 224.75 192.911L224.75 192.913C225.911 200.24 227.072 207.567 228.233 214.89C230.046 224.499 239.186 230.956 248.781 231.015C258.375 230.956 267.514 224.513 269.328 214.89C271.548 200.791 273.782 186.706 276.017 172.622C262.584 169.961 240.474 167.06 221.351 171.464Z" fill="#2C2C2C"/>
<path d="M247.114 177.345C251.73 177.345 258.903 175.943 258.903 171.341L257.72 155.974L256.683 142.534C256.683 137.918 252.943 134.193 248.341 134.193C246.033 134.193 243.959 135.128 242.44 136.633C240.935 138.137 239.985 140.226 239.985 142.534L238.963 155.988L237.984 168.887C236.655 176.673 247.114 177.345 247.114 177.345Z" fill="#2C2C2C"/>
<path d="M271.306 59.4579C265.2 51.9494 256.668 47.4209 245.712 47.4209C220.908 47.4209 196.673 70.2971 196.673 98.8121C196.673 127.327 216.774 150.452 241.578 150.452C243.959 150.452 246.268 150.233 248.503 149.838C248.736 151.094 248.868 152.38 248.868 153.709C248.868 153.943 248.853 154.191 248.853 154.425C317.204 137.83 306.014 55.2362 271.306 59.4579Z" fill="#2C2C2C"/>
<path d="M213.779 132.981C218.983 132.981 223.201 128.762 223.201 123.558C223.201 118.355 218.983 114.136 213.779 114.136C208.575 114.136 204.357 118.355 204.357 123.558C204.357 128.762 208.575 132.981 213.779 132.981Z" fill="#E0E0E0"/>
<path fill-rule="evenodd" clip-rule="evenodd" d="M213.779 114.72C208.898 114.72 204.941 118.677 204.941 123.558C204.941 128.439 208.898 132.395 213.779 132.395C218.66 132.395 222.617 128.439 222.617 123.558C222.617 118.677 218.66 114.72 213.779 114.72ZM203.772 123.558C203.772 118.031 208.252 113.551 213.779 113.551C219.305 113.551 223.785 118.031 223.785 123.558C223.785 129.084 219.305 133.564 213.779 133.564C208.252 133.564 203.772 129.084 203.772 123.558Z" fill="#2C2C2C"/>
<path d="M280.129 132.981C285.332 132.981 289.551 128.762 289.551 123.558C289.551 118.355 285.332 114.136 280.129 114.136C274.925 114.136 270.706 118.355 270.706 123.558C270.706 128.762 274.925 132.981 280.129 132.981Z" fill="#E0E0E0"/>
<path fill-rule="evenodd" clip-rule="evenodd" d="M280.128 114.72C275.247 114.72 271.29 118.677 271.29 123.558C271.29 128.439 275.247 132.395 280.128 132.395C285.009 132.395 288.966 128.439 288.966 123.558C288.966 118.677 285.009 114.72 280.128 114.72ZM270.122 123.558C270.122 118.031 274.602 113.551 280.128 113.551C285.655 113.551 290.135 118.031 290.135 123.558C290.135 129.084 285.655 133.564 280.128 133.564C274.602 133.564 270.122 129.084 270.122 123.558Z" fill="#2C2C2C"/>
<path d="M247.845 162.868C268.071 162.868 284.467 139.657 284.467 111.024C284.467 82.3913 268.071 59.1799 247.845 59.1799C227.619 59.1799 211.222 82.3913 211.222 111.024C211.222 139.657 227.619 162.868 247.845 162.868Z" fill="#E0E0E0"/>
<path fill-rule="evenodd" clip-rule="evenodd" d="M222.427 74.7022C215.877 83.9743 211.808 96.8143 211.808 111.024C211.808 125.234 215.877 138.074 222.427 147.346C228.978 156.62 237.973 162.284 247.846 162.284C257.718 162.284 266.714 156.62 273.264 147.346C279.814 138.074 283.884 125.234 283.884 111.024C283.884 96.8143 279.814 83.9743 273.264 74.7022C266.714 65.4285 257.718 59.7646 247.846 59.7646C237.973 59.7646 228.978 65.4285 222.427 74.7022ZM221.472 74.0279C228.176 64.5377 237.492 58.5959 247.846 58.5959C258.199 58.5959 267.515 64.5377 274.219 74.0279C280.924 83.5196 285.052 96.6016 285.052 111.024C285.052 125.447 280.924 138.529 274.219 148.021C267.515 157.511 258.199 163.453 247.846 163.453C237.492 163.453 228.176 157.511 221.472 148.021C214.768 138.529 210.639 125.447 210.639 111.024C210.639 96.6016 214.768 83.5196 221.472 74.0279Z" fill="#2C2C2C"/>
<path d="M205.876 99.5287C205.876 99.5287 237.05 101.048 247.436 82.2911C247.436 82.2911 269.991 101.808 291.523 100.288L289.493 91.6695L281.137 75.1916L276.068 69.1147L265.681 58.217L251.745 52.3884L235.019 54.6673L212.713 69.8743L209.922 80.0123L205.876 99.5287Z" fill="#2C2C2C"/>
<path d="M248.736 131.287C248.75 131.375 248.56 131.535 248.137 131.535C247.728 131.55 247.1 131.36 246.544 130.834C246.267 130.571 246.019 130.25 245.829 129.841C245.799 129.782 245.785 129.724 245.756 129.666L245.726 129.578L245.697 129.505L245.653 129.373C245.639 129.315 245.624 129.242 245.595 129.184C245.537 128.964 245.493 128.731 245.478 128.482C245.39 127.518 245.58 126.539 245.814 125.605C246.72 121.865 247.786 118.929 248.181 119.016C248.575 119.119 248.166 122.215 247.26 125.955C247.027 126.875 246.851 127.708 246.851 128.409C246.851 128.585 246.866 128.76 246.88 128.921L246.895 128.979V129.008V129.023V129.037C246.895 129.037 246.88 128.994 246.895 129.008L246.924 129.154L246.939 129.227L246.954 129.271L246.983 129.359C247.07 129.636 247.202 129.899 247.348 130.104C247.64 130.527 247.991 130.79 248.268 130.936C248.531 131.126 248.721 131.185 248.736 131.287Z" fill="#2C2C2C"/>
<path d="M238.32 113.77C238.32 117.934 234.712 121.308 230.271 121.308C225.816 121.308 222.222 117.934 222.222 113.77C222.222 109.607 225.831 106.233 230.271 106.233C234.698 106.233 238.32 109.607 238.32 113.77Z" fill="white"/>
<path fill-rule="evenodd" clip-rule="evenodd" d="M230.271 106.817C226.116 106.817 222.807 109.966 222.807 113.771C222.807 117.576 226.102 120.724 230.271 120.724C234.426 120.724 237.736 117.576 237.736 113.771C237.736 109.967 234.413 106.817 230.271 106.817ZM221.638 113.771C221.638 109.249 225.545 105.649 230.271 105.649C234.983 105.649 238.905 109.248 238.905 113.771C238.905 118.293 234.998 121.893 230.271 121.893C225.529 121.893 221.638 118.292 221.638 113.771Z" fill="#2C2C2C"/>
<path d="M226.313 113.304C226.313 116.737 228.548 119.527 231.294 119.527C234.041 119.527 236.276 116.737 236.276 113.304C236.276 109.871 234.041 107.081 231.294 107.081C228.548 107.066 226.313 109.856 226.313 113.304Z" fill="#50BFD7"/>
<path d="M227.759 113.303C227.759 115.742 229.337 117.715 231.294 117.715C233.252 117.715 234.83 115.742 234.83 113.303C234.83 110.863 233.252 108.877 231.294 108.877C229.337 108.877 227.759 110.849 227.759 113.303Z" fill="#2C2C2C"/>
<path d="M227.54 109.111C227.54 109.783 228.358 110.309 229.366 110.309C230.374 110.309 231.192 109.768 231.192 109.111C231.192 108.439 230.374 107.913 229.366 107.913C228.358 107.899 227.54 108.439 227.54 109.111Z" fill="white"/>
<path d="M240.614 102.245C240.614 102.245 229.745 91.4054 218.059 104.275C218.059 104.275 228.168 97.8037 240.614 102.245Z" fill="#2C2C2C"/>
<path d="M273.336 113.77C273.336 117.934 269.728 121.308 265.287 121.308C260.832 121.308 257.238 117.934 257.238 113.77C257.238 109.607 260.846 106.233 265.287 106.233C269.728 106.233 273.336 109.607 273.336 113.77Z" fill="white"/>
<path fill-rule="evenodd" clip-rule="evenodd" d="M265.287 106.817C261.132 106.817 257.822 109.966 257.822 113.771C257.822 117.576 261.118 120.724 265.287 120.724C269.442 120.724 272.752 117.576 272.752 113.771C272.752 109.966 269.442 106.817 265.287 106.817ZM256.654 113.771C256.654 109.249 260.56 105.649 265.287 105.649C270.014 105.649 273.92 109.249 273.92 113.771C273.92 118.293 270.014 121.893 265.287 121.893C260.545 121.893 256.654 118.292 256.654 113.771Z" fill="#2C2C2C"/>
<path d="M261.343 113.304C261.343 116.737 263.578 119.527 266.324 119.527C269.071 119.527 271.306 116.737 271.306 113.304C271.306 109.871 269.071 107.081 266.324 107.081C263.563 107.066 261.343 109.856 261.343 113.304Z" fill="#50BFD7"/>
<path d="M262.774 113.303C262.774 115.742 264.352 117.715 266.31 117.715C268.267 117.715 269.845 115.742 269.845 113.303C269.845 110.863 268.267 108.877 266.31 108.877C264.367 108.877 262.774 110.849 262.774 113.303Z" fill="#2C2C2C"/>
<path d="M262.555 109.111C262.555 109.783 263.373 110.309 264.381 110.309C265.389 110.309 266.207 109.768 266.207 109.111C266.207 108.439 265.389 107.913 264.381 107.913C263.373 107.899 262.555 108.439 262.555 109.111Z" fill="white"/>
<path d="M275.644 101.061C275.644 101.061 264.776 90.2221 253.089 103.092C253.075 103.092 263.183 96.6204 275.644 101.061Z" fill="#2C2C2C"/>
<path d="M235.954 139.568C236.319 142.402 237.692 145.017 239.84 146.916C241.987 148.815 244.748 149.852 247.611 149.852C250.475 149.852 253.235 148.815 255.383 146.916C257.53 145.017 258.918 142.417 259.269 139.568H235.954Z" fill="white"/>
<path fill-rule="evenodd" clip-rule="evenodd" d="M235.29 138.985H259.929L259.848 139.64C259.48 142.633 258.022 145.363 255.77 147.355C253.515 149.349 250.616 150.437 247.611 150.437C244.607 150.437 241.708 149.349 239.453 147.355C237.198 145.361 235.758 142.616 235.374 139.644L235.29 138.985ZM236.638 140.153C237.1 142.593 238.354 144.823 240.227 146.479C242.267 148.283 244.89 149.269 247.611 149.269C250.333 149.269 252.956 148.283 254.996 146.479C256.872 144.82 258.136 142.6 258.588 140.153H236.638Z" fill="#2C2C2C"/>
<path d="M258.816 274.795C258.816 275.16 259.137 275.584 259.517 275.54C263.826 275.087 267.128 271.757 271.379 272.458C267.113 274.576 263.417 278.257 263.943 283.677C264.002 284.349 264.644 284.612 265.141 284.203C268.194 281.602 271.7 279.28 275.79 280.142C277.543 280.507 279.603 281.193 281.414 280.96C284.117 280.624 286.396 279.397 287.74 276.782C290.106 272.253 289.23 266.819 283.927 265.694C283.796 265.665 283.693 265.68 283.576 265.723C281.619 264.949 279.837 263.97 278.259 262.261C276.74 260.596 275.323 258.755 273.672 257.221C271.466 255.162 269.071 253.54 266.149 254.928C265.711 255.133 265.74 255.761 266.017 256.097C267.303 257.689 268.808 259.208 270.385 260.669C268.808 260.304 267.215 260.114 265.579 260.245C262.658 260.494 259.21 262.437 259.283 265.913C259.298 266.352 259.605 266.614 259.984 266.658C262.672 266.936 265.375 266.892 268.048 267.17C263.885 268.397 258.772 269.799 258.816 274.795Z" fill="#E0E0E0"/>
<path fill-rule="evenodd" clip-rule="evenodd" d="M270.393 254.239C271.74 254.77 272.956 255.754 274.07 256.794C275.187 257.832 276.218 259.029 277.218 260.19C277.714 260.765 278.202 261.332 278.689 261.867C280.14 263.438 281.777 264.367 283.615 265.11C283.748 265.088 283.891 265.088 284.051 265.123C286.912 265.731 288.626 267.529 289.271 269.802C289.907 272.042 289.493 274.686 288.258 277.051C286.807 279.872 284.336 281.185 281.488 281.54C280.49 281.668 279.449 281.541 278.468 281.349C277.975 281.252 277.486 281.137 277.018 281.025C276.968 281.013 276.919 281.001 276.87 280.989C276.452 280.889 276.054 280.794 275.671 280.714L275.67 280.714C271.878 279.915 268.57 282.05 265.52 284.648L265.516 284.651L265.512 284.654C265.115 284.981 264.601 285.077 264.147 284.882C263.694 284.688 263.407 284.251 263.361 283.731C262.885 278.816 265.684 275.289 269.214 273.014C268.039 273.174 266.895 273.598 265.697 274.105C265.431 274.217 265.161 274.334 264.888 274.453C263.266 275.158 261.518 275.917 259.58 276.121C259.144 276.17 258.794 275.946 258.584 275.706C258.375 275.467 258.232 275.138 258.231 274.798C258.208 272.046 259.629 270.279 261.543 269.075C262.552 268.439 263.716 267.949 264.895 267.538C264.597 267.524 264.297 267.511 263.996 267.498L263.984 267.497C262.645 267.439 261.284 267.38 259.924 267.24L259.921 267.239L259.917 267.239C259.293 267.167 258.725 266.701 258.699 265.933L258.699 265.929L258.699 265.926C258.658 263.966 259.618 262.448 260.948 261.409C262.268 260.378 263.972 259.796 265.53 259.663L265.531 259.663L265.532 259.663C266.564 259.58 267.576 259.62 268.571 259.747C267.498 258.69 266.479 257.598 265.564 256.466C265.329 256.18 265.211 255.794 265.231 255.43C265.253 255.053 265.437 254.617 265.9 254.4C267.519 253.631 269.017 253.696 270.393 254.239ZM266.405 255.453C266.403 255.461 266.399 255.475 266.398 255.497C266.396 255.533 266.401 255.578 266.416 255.624C266.431 255.67 266.451 255.704 266.468 255.725L266.47 255.727L266.472 255.73C267.733 257.292 269.215 258.79 270.782 260.241L272.396 261.734L270.253 261.239C268.717 260.883 267.187 260.703 265.627 260.828C264.264 260.944 262.784 261.458 261.668 262.329C260.564 263.192 259.837 264.382 259.867 265.897C259.87 265.974 259.894 266.005 259.91 266.021C259.93 266.041 259.973 266.069 260.048 266.078C261.371 266.214 262.7 266.272 264.047 266.33L264.052 266.331C265.393 266.389 266.753 266.448 268.108 266.589L271.05 266.894L268.213 267.73C268.14 267.752 268.067 267.773 267.994 267.795C265.953 268.396 263.816 269.025 262.165 270.064C260.494 271.116 259.38 272.548 259.4 274.79L259.4 274.793V274.795C259.4 274.803 259.402 274.824 259.414 274.855C259.427 274.886 259.444 274.915 259.463 274.936C259.471 274.945 259.478 274.952 259.483 274.956C261.217 274.769 262.774 274.094 264.395 273.392C264.675 273.271 264.957 273.149 265.242 273.028C267.147 272.222 269.171 271.502 271.474 271.881L273.26 272.176L271.638 272.981C267.465 275.054 264.033 278.557 264.525 283.621L264.525 283.623L264.525 283.626C264.532 283.705 264.554 283.75 264.569 283.773C264.584 283.796 264.599 283.804 264.608 283.808C264.617 283.812 264.631 283.816 264.654 283.812C264.676 283.808 264.716 283.795 264.766 283.754C267.821 281.153 271.524 278.646 275.91 279.57C276.311 279.653 276.727 279.753 277.141 279.853C277.191 279.865 277.24 279.877 277.29 279.888C277.758 280 278.226 280.111 278.693 280.202C279.632 280.386 280.527 280.485 281.339 280.38L281.341 280.38L281.342 280.38C283.898 280.062 285.983 278.921 287.22 276.515L287.221 276.513L287.222 276.511C288.352 274.348 288.684 272.012 288.147 270.121C287.62 268.265 286.245 266.784 283.806 266.266L283.803 266.266L283.8 266.265C283.8 266.265 283.799 266.265 283.799 266.265C283.795 266.266 283.789 266.268 283.781 266.271L283.571 266.35L283.361 266.267C281.356 265.474 279.487 264.454 277.83 262.658L277.828 262.657L277.827 262.655C277.29 262.067 276.778 261.472 276.271 260.883C275.299 259.753 274.346 258.646 273.274 257.65L273.273 257.649C272.181 256.629 271.097 255.773 269.964 255.326C268.863 254.891 267.704 254.838 266.405 255.453Z" fill="#2C2C2C"/>
<path d="M219.943 479.572C219.943 479.572 220.805 482.304 221.053 482.727C221.316 483.151 228.021 485.459 236.202 485.284C244.704 485.108 248.59 482.64 248.706 479.557H219.943V479.572Z" fill="#50BFD7"/>
<path fill-rule="evenodd" clip-rule="evenodd" d="M219.359 478.973H249.314L249.291 479.58C249.222 481.404 248.028 482.95 245.86 484.034C243.703 485.113 240.508 485.78 236.215 485.868M219.359 478.973V479.558V478.973ZM219.944 479.572L219.386 479.748L219.359 479.662V479.558M219.944 479.572C219.386 479.748 219.386 479.748 219.386 479.748L219.396 479.78C219.403 479.8 219.412 479.83 219.424 479.868C219.449 479.944 219.484 480.053 219.526 480.185C219.611 480.449 219.727 480.806 219.852 481.177C219.976 481.547 220.109 481.934 220.227 482.257C220.337 482.557 220.456 482.863 220.55 483.023L220.554 483.03L220.557 483.036C220.616 483.13 220.688 483.193 220.729 483.226C220.776 483.265 220.826 483.298 220.872 483.326C220.965 483.383 221.077 483.44 221.2 483.497C221.449 483.611 221.784 483.743 222.191 483.883C223.008 484.164 224.148 484.493 225.532 484.801C228.3 485.417 232.069 485.957 236.215 485.868M220.741 480.142H248.039C247.785 481.184 246.956 482.179 245.338 482.988C243.398 483.958 240.399 484.613 236.19 484.7L236.19 484.7C232.155 484.786 228.482 484.26 225.786 483.66C224.438 483.36 223.341 483.043 222.572 482.778C222.186 482.645 221.89 482.528 221.689 482.436C221.614 482.401 221.559 482.373 221.519 482.351C221.506 482.322 221.492 482.288 221.475 482.248C221.432 482.143 221.381 482.009 221.324 481.855C221.211 481.547 221.082 481.171 220.96 480.806C220.882 480.572 220.807 480.344 220.741 480.142Z" fill="#2C2C2C"/>
<path d="M219.944 480.155C221.229 481.309 222.909 482.186 224.136 482.58C227.189 483.588 230.535 483.968 233.734 484.143C237.137 484.319 240.877 484.26 244.062 482.916C245.785 482.186 247.246 481.119 248.605 479.907C249.218 478.402 249.379 476.693 249.335 474.94C249.233 471.785 248.517 468.732 247.962 465.635C247.874 465.182 247.801 464.744 247.728 464.306C247.568 462.29 247.421 460.259 247.29 458.258C247.246 457.513 247.158 456.855 247.173 456.11C247.188 455.614 247.363 454.81 247.232 454.343C247.217 454.284 247.188 454.241 247.173 454.197C247.173 454.124 247.188 454.051 247.173 453.978C246.603 453.51 246.004 453.072 245.318 452.882C244.821 452.97 244.325 453.13 244.003 453.262C243.492 453.466 243.039 453.729 242.63 454.036C241.622 452.663 239.139 452.02 237.736 451.962C235.545 451.874 232.623 452.254 230.885 453.861C230.593 453.583 230.14 453.437 229.746 453.364C229.658 453.349 229.556 453.335 229.468 453.32C228.446 453.715 228.708 456.227 228.606 456.943C228.46 457.893 228.314 458.842 228.08 459.762C227.613 461.53 226.941 463.151 225.918 464.671C224.823 466.307 223.391 467.724 222.135 469.228C221.96 469.535 221.77 469.842 221.594 470.134C220.25 472.296 219.155 475.437 219.447 478.008C219.535 478.826 219.71 479.527 219.944 480.155Z" fill="#50BFD7"/>
<path fill-rule="evenodd" clip-rule="evenodd" d="M234.008 451.708C235.292 451.409 236.624 451.334 237.759 451.379L237.76 451.379C238.524 451.411 239.555 451.599 240.533 451.959C241.319 452.249 242.128 452.671 242.727 453.261C243.053 453.056 243.403 452.874 243.784 452.722C244.137 452.577 244.673 452.404 245.216 452.308L245.346 452.285L245.473 452.32C246.288 452.546 246.969 453.056 247.544 453.527L247.705 453.66L247.746 453.865C247.764 453.956 247.765 454.038 247.763 454.092C247.774 454.121 247.786 454.155 247.796 454.193C247.892 454.542 247.867 454.956 247.839 455.27C247.825 455.418 247.811 455.547 247.798 455.664C247.778 455.841 247.761 455.989 247.757 456.126C247.748 456.604 247.782 457.025 247.819 457.489C247.838 457.719 247.857 457.959 247.873 458.223C248.004 460.213 248.149 462.232 248.309 464.236C248.38 464.666 248.451 465.09 248.535 465.525L248.536 465.529L248.537 465.533C248.651 466.172 248.774 466.813 248.897 467.457C249.362 469.897 249.837 472.382 249.919 474.923L249.919 474.925L249.919 474.927C249.964 476.718 249.802 478.518 249.146 480.129L249.095 480.254L248.994 480.344C247.608 481.581 246.093 482.692 244.289 483.456L244.289 483.456C240.973 484.855 237.117 484.904 233.703 484.728L233.702 484.728C230.486 484.552 227.081 484.169 223.955 483.137C222.657 482.72 220.904 481.805 219.553 480.592L219.446 480.496L219.396 480.361C219.145 479.688 218.959 478.939 218.866 478.074C218.554 475.326 219.714 472.055 221.095 469.831C221.147 469.745 221.199 469.66 221.25 469.575C221.378 469.363 221.506 469.153 221.627 468.94L221.653 468.895L221.686 468.855C222.118 468.339 222.555 467.847 222.987 467.362C223.863 466.378 224.713 465.422 225.433 464.347L225.433 464.346C226.412 462.892 227.06 461.334 227.515 459.617C227.74 458.731 227.882 457.811 228.028 456.859C228.046 456.732 228.049 456.508 228.055 456.171L228.056 456.122C228.062 455.78 228.07 455.365 228.11 454.956C228.15 454.552 228.223 454.115 228.374 453.737C228.523 453.363 228.786 452.959 229.258 452.777L229.407 452.719L229.564 452.745C229.604 452.752 229.647 452.759 229.696 452.766L229.698 452.767C229.744 452.774 229.794 452.781 229.842 452.789L229.847 452.79L229.852 452.791C230.143 452.845 230.512 452.942 230.85 453.126C231.763 452.413 232.882 451.971 234.008 451.708ZM234.273 452.846C233.11 453.118 232.051 453.58 231.282 454.291L230.879 454.663L230.482 454.286C230.317 454.129 230.006 454.009 229.644 453.941C229.628 453.938 229.611 453.936 229.593 453.933C229.553 453.978 229.507 454.051 229.459 454.17C229.368 454.397 229.309 454.707 229.273 455.069C229.239 455.427 229.23 455.799 229.224 456.142C229.224 456.173 229.223 456.203 229.223 456.235C229.218 456.525 229.214 456.823 229.185 457.027L229.184 457.03L229.181 457.048C229.037 457.988 228.887 458.96 228.647 459.908L228.646 459.911L228.645 459.913C228.164 461.731 227.469 463.415 226.403 464.998C225.639 466.139 224.697 467.199 223.792 468.217C223.386 468.674 222.987 469.122 222.616 469.565C222.494 469.777 222.364 469.991 222.242 470.194C222.191 470.277 222.142 470.358 222.095 470.436L222.093 470.44L222.09 470.444C220.785 472.544 219.756 475.551 220.027 477.943L220.028 477.945L220.028 477.947C220.104 478.658 220.25 479.269 220.442 479.818C221.647 480.865 223.193 481.665 224.315 482.026L224.317 482.026L224.319 482.027C227.299 483.011 230.583 483.387 233.764 483.561C237.158 483.736 240.781 483.668 243.834 482.38C245.435 481.701 246.812 480.713 248.113 479.564C248.643 478.195 248.792 476.623 248.751 474.958C248.672 472.519 248.22 470.151 247.757 467.724C247.632 467.069 247.507 466.41 247.387 465.743C247.299 465.285 247.225 464.843 247.153 464.409L247.148 464.378L247.146 464.354C246.985 462.335 246.838 460.301 246.707 458.298L246.707 458.296L246.706 458.294C246.694 458.083 246.677 457.87 246.66 457.652C246.62 457.155 246.578 456.639 246.589 456.101L246.589 456.098L246.589 456.095C246.594 455.914 246.62 455.677 246.644 455.459C246.656 455.353 246.667 455.252 246.675 455.164C246.704 454.843 246.702 454.627 246.67 454.508C246.669 454.505 246.667 454.502 246.665 454.496C246.662 454.49 246.658 454.481 246.653 454.471C246.644 454.451 246.631 454.42 246.619 454.383L246.589 454.293V454.259C246.146 453.91 245.727 453.632 245.285 453.485C244.881 453.567 244.485 453.698 244.224 453.804L244.222 453.805L244.22 453.806C243.76 453.99 243.351 454.227 242.98 454.505L242.508 454.859L242.159 454.383C241.754 453.832 241.008 453.379 240.129 453.056C239.263 452.737 238.351 452.574 237.712 452.547C236.657 452.505 235.433 452.576 234.273 452.846Z" fill="#2C2C2C"/>
<path d="M283.269 479.572C283.269 479.572 282.422 482.304 282.159 482.727C281.896 483.151 275.191 485.459 267.01 485.284C258.508 485.108 254.623 482.64 254.506 479.557H283.269V479.572Z" fill="#50BFD7"/>
<path fill-rule="evenodd" clip-rule="evenodd" d="M253.9 478.973H283.854V479.661L283.828 479.745L283.27 479.572C283.828 479.745 283.828 479.745 283.828 479.745L283.828 479.746L283.828 479.746L283.818 479.777C283.812 479.797 283.802 479.827 283.79 479.865C283.767 479.941 283.732 480.051 283.69 480.183C283.606 480.447 283.491 480.804 283.368 481.175C283.245 481.546 283.112 481.934 282.992 482.258C282.882 482.557 282.76 482.869 282.656 483.036C282.598 483.13 282.525 483.193 282.485 483.226C282.437 483.265 282.387 483.298 282.341 483.326C282.248 483.383 282.136 483.44 282.013 483.497C281.765 483.611 281.43 483.743 281.022 483.883C280.205 484.164 279.065 484.493 277.681 484.801C274.914 485.417 271.145 485.957 266.999 485.868M282.476 480.142H255.175C255.428 481.184 256.258 482.179 257.876 482.988C259.815 483.958 262.815 484.613 267.023 484.7L267.024 484.7C271.058 484.786 274.732 484.26 277.427 483.66C278.775 483.36 279.872 483.043 280.642 482.778C281.028 482.645 281.324 482.528 281.524 482.436C281.602 482.4 281.659 482.371 281.698 482.349C281.712 482.32 281.727 482.285 281.744 482.244C281.788 482.14 281.839 482.008 281.896 481.854C282.009 481.547 282.137 481.172 282.259 480.807C282.337 480.573 282.411 480.345 282.476 480.142ZM253.9 478.973L253.923 479.58L253.9 478.973ZM253.923 479.58C253.992 481.404 255.185 482.95 257.353 484.034L253.923 479.58ZM257.353 484.034C259.511 485.113 262.705 485.78 266.999 485.868L257.353 484.034Z" fill="#2C2C2C"/>
<path d="M283.27 480.155C281.984 481.309 280.304 482.186 279.077 482.58C276.024 483.588 272.679 483.968 269.48 484.143C266.076 484.319 262.336 484.26 259.152 482.916C257.428 482.186 255.967 481.119 254.609 479.907C253.995 478.402 253.834 476.693 253.878 474.94C253.98 471.785 254.696 468.732 255.251 465.635C255.339 465.182 255.412 464.744 255.485 464.306C255.646 462.29 255.792 460.259 255.923 458.258C255.982 457.513 256.055 456.855 256.04 456.11C256.025 455.614 255.85 454.81 255.982 454.343C255.996 454.284 256.025 454.241 256.04 454.197C256.04 454.124 256.025 454.051 256.04 453.978C256.61 453.51 257.194 453.072 257.895 452.882C258.392 452.97 258.889 453.13 259.21 453.262C259.721 453.466 260.174 453.729 260.583 454.036C261.591 452.663 264.075 452.02 265.477 451.962C267.668 451.874 270.59 452.254 272.328 453.861C272.62 453.583 273.073 453.437 273.468 453.364C273.555 453.349 273.657 453.335 273.745 453.32C274.768 453.715 274.505 456.227 274.607 456.943C274.753 457.893 274.899 458.842 275.133 459.762C275.6 461.53 276.272 463.151 277.295 464.671C278.39 466.307 279.822 467.724 281.078 469.228C281.254 469.535 281.444 469.842 281.619 470.134C282.963 472.296 284.058 475.437 283.766 478.008C283.679 478.826 283.518 479.527 283.27 480.155Z" fill="#50BFD7"/>
<path fill-rule="evenodd" clip-rule="evenodd" d="M268.939 452.846C267.78 452.576 266.556 452.505 265.501 452.547C264.862 452.574 263.95 452.737 263.084 453.056C262.205 453.379 261.459 453.832 261.054 454.383L260.705 454.859L260.232 454.505C259.862 454.227 259.453 453.99 258.993 453.806L258.991 453.805L258.989 453.804C258.728 453.697 258.331 453.567 257.926 453.484C257.478 453.631 257.068 453.907 256.624 454.258V454.293L256.594 454.383C256.582 454.42 256.568 454.451 256.56 454.471C256.555 454.481 256.551 454.49 256.548 454.496C256.547 454.498 256.546 454.5 256.546 454.501C256.544 454.504 256.543 454.506 256.543 454.508C256.511 454.627 256.509 454.843 256.538 455.164C256.546 455.252 256.557 455.353 256.569 455.459C256.593 455.677 256.619 455.914 256.624 456.095L256.624 456.098L256.624 456.101C256.637 456.739 256.588 457.322 256.538 457.907C256.527 458.038 256.516 458.17 256.506 458.301C256.374 460.304 256.228 462.336 256.067 464.354L256.065 464.378L256.06 464.409C255.988 464.843 255.914 465.285 255.826 465.743C255.706 466.41 255.58 467.069 255.456 467.724C254.993 470.151 254.541 472.519 254.462 474.959C254.421 476.623 254.57 478.195 255.1 479.564C256.401 480.713 257.778 481.701 259.379 482.38C262.432 483.668 266.055 483.736 269.449 483.561C272.63 483.387 275.914 483.011 278.894 482.027L278.896 482.026L278.898 482.026C280.021 481.664 281.57 480.863 282.775 479.814C282.973 479.276 283.108 478.668 283.185 477.947L283.185 477.945L283.185 477.943C283.457 475.551 282.428 472.544 281.122 470.444L281.12 470.44L281.118 470.436C281.071 470.358 281.022 470.277 280.971 470.194C280.849 469.992 280.719 469.778 280.597 469.565C280.225 469.122 279.827 468.674 279.421 468.217C278.516 467.199 277.573 466.138 276.809 464.998C275.744 463.415 275.048 461.731 274.568 459.913L274.567 459.911L274.566 459.908C274.326 458.96 274.176 457.988 274.032 457.048L274.029 457.03L274.028 457.027C273.999 456.823 273.995 456.525 273.99 456.235C273.99 456.203 273.989 456.173 273.989 456.142C273.983 455.799 273.974 455.427 273.939 455.069C273.904 454.707 273.845 454.397 273.754 454.17C273.706 454.051 273.66 453.978 273.62 453.933C273.602 453.936 273.585 453.938 273.569 453.941C273.207 454.009 272.896 454.129 272.73 454.286L272.333 454.663L271.931 454.291C271.162 453.58 270.103 453.118 268.939 452.846ZM272.363 453.126C271.45 452.413 270.331 451.971 269.205 451.708C267.921 451.409 266.589 451.334 265.453 451.379L265.452 451.379C264.689 451.411 263.658 451.599 262.68 451.959C261.894 452.249 261.085 452.671 260.486 453.261C260.16 453.056 259.81 452.874 259.429 452.722C259.075 452.577 258.54 452.404 257.997 452.308L257.868 452.285L257.742 452.32C256.909 452.545 256.24 453.059 255.669 453.527L255.508 453.66L255.467 453.865C255.449 453.956 255.448 454.038 255.45 454.092C255.439 454.121 255.427 454.155 255.417 454.193C255.321 454.542 255.345 454.956 255.374 455.27C255.387 455.418 255.402 455.547 255.415 455.664C255.435 455.841 255.452 455.989 255.456 456.126C255.467 456.697 255.424 457.208 255.375 457.788C255.364 457.925 255.352 458.067 255.341 458.214L255.34 458.217L255.34 458.221C255.209 460.212 255.064 462.231 254.904 464.236C254.833 464.666 254.762 465.09 254.677 465.525L254.677 465.529L254.676 465.533C254.562 466.172 254.439 466.813 254.316 467.457C253.851 469.897 253.376 472.382 253.294 474.923L253.294 474.925L253.294 474.927C253.249 476.718 253.41 478.518 254.067 480.129L254.118 480.254L254.219 480.344C255.605 481.581 257.12 482.692 258.924 483.456L258.924 483.456C262.24 484.855 266.096 484.904 269.509 484.728L269.511 484.728C272.727 484.552 276.132 484.169 279.258 483.137C280.556 482.72 282.309 481.805 283.66 480.592L283.762 480.5L283.813 480.372C284.084 479.685 284.255 478.931 284.347 478.074C284.659 475.326 283.499 472.055 282.117 469.831C282.066 469.746 282.015 469.661 281.963 469.576C281.835 469.364 281.707 469.153 281.586 468.94L281.56 468.895L281.527 468.855C281.095 468.339 280.657 467.847 280.226 467.362C279.35 466.377 278.5 465.422 277.78 464.347L277.779 464.346C276.801 462.892 276.152 461.334 275.698 459.617C275.473 458.731 275.331 457.811 275.185 456.859C275.167 456.732 275.163 456.508 275.158 456.171L275.157 456.122C275.151 455.78 275.143 455.365 275.103 454.956C275.063 454.552 274.99 454.115 274.839 453.737C274.69 453.363 274.427 452.959 273.955 452.777L273.806 452.719L273.649 452.745C273.609 452.752 273.566 452.759 273.517 452.766L273.515 452.766C273.469 452.774 273.419 452.781 273.371 452.789L273.366 452.79L273.361 452.791C273.07 452.845 272.701 452.942 272.363 453.126ZM255.494 453.992C255.494 453.992 255.494 453.992 255.494 453.992V453.992Z" fill="#2C2C2C"/>
<path fill-rule="evenodd" clip-rule="evenodd" d="M210.492 108.278V108.57H209.323V108.278H210.492Z" fill="#2C2C2C"/>
<path fill-rule="evenodd" clip-rule="evenodd" d="M216.627 111.492V111.784H215.459V111.492H216.627Z" fill="#2C2C2C"/>
<path d="M249.846 109.769C251.847 110.192 251.102 111.492 251.102 111.682C251.102 111.872 251.848 122.682 261.503 125.531C271.159 128.379 276.944 122.784 278.624 119.98C280.304 117.175 281.706 110.514 282.115 110.002C282.539 109.491 284.54 108.6 284.54 108.6L284.774 105.985L282.261 105.24C282.261 105.24 275.922 102.348 266.587 102.216C257.267 102.07 251.994 107.446 251.994 107.446C249.364 106.613 246.107 106.496 243.126 107.446C243.126 107.446 237.853 102.085 228.533 102.216C219.213 102.362 212.859 105.24 212.859 105.24L210.346 105.985L210.58 108.6C210.58 108.6 212.581 109.491 213.005 110.002C213.428 110.514 214.816 117.19 216.496 119.98C218.176 122.784 223.961 128.379 233.617 125.531C243.273 122.682 244.018 111.872 244.018 111.682C244.018 111.492 243.273 110.192 245.274 109.769C247.027 109.403 248.108 109.403 249.846 109.769ZM273.029 123.296C265.667 127.722 256.843 123.252 254.185 117.423C251.526 111.595 253.761 108.512 253.761 108.512C258.202 101.267 276.141 100.96 279.223 108.79C279.749 110.105 280.392 118.87 273.029 123.296ZM215.897 108.79C218.979 100.945 236.918 101.267 241.359 108.512C241.359 108.512 243.594 111.595 240.935 117.423C238.277 123.252 229.468 127.722 222.091 123.296C214.743 118.87 215.386 110.105 215.897 108.79Z" fill="#2C2C2C"/>
<path d="M254.375 188.214H243.156C240.176 188.214 237.751 190.639 237.751 193.619V204.838C237.751 207.818 240.176 210.243 243.156 210.243H254.375C257.355 210.243 259.78 207.818 259.78 204.838V193.619C259.78 190.639 257.355 188.214 254.375 188.214ZM234.756 183.438C233.047 183.438 231.659 184.825 231.659 186.534C231.659 188.244 233.047 189.631 234.756 189.631C236.465 189.631 237.853 188.244 237.853 186.534C237.853 184.825 236.465 183.438 234.756 183.438Z" fill="white"/>
<path d="M253.571 194.903C252.856 192.989 251.03 191.718 248.984 191.718H245.946L251.95 206.94H258.392L253.571 194.903ZM241.315 202.572L239.562 206.94H245.961L248.941 199.387H245.902C243.857 199.387 242.016 200.658 241.315 202.572ZM242.309 195.502C243.36 195.502 244.222 194.64 244.222 193.588C244.222 192.536 243.36 191.674 242.309 191.674C241.257 191.674 240.395 192.536 240.395 193.588C240.395 194.64 241.242 195.502 242.309 195.502Z" fill="#50BFD7"/>
<path d="M148.582 172.642C148.982 173.041 149.453 173.359 149.974 173.581C151.062 174.036 152.286 174.036 153.375 173.581C154.426 173.134 155.262 172.299 155.708 171.249C156.163 170.162 156.163 168.937 155.708 167.848C155.26 166.798 154.426 165.961 153.375 165.516C152.288 165.06 151.064 165.06 149.974 165.516C148.924 165.963 148.087 166.798 147.642 167.848C147.187 168.935 147.187 170.16 147.642 171.249C147.864 171.768 148.184 172.242 148.582 172.642ZM147.302 176.699V189.869H149.497C150.251 189.865 151.002 189.796 151.743 189.656C152.487 189.525 153.205 189.275 153.87 188.914C154.497 188.573 155.039 188.093 155.455 187.515C155.892 186.873 156.112 186.108 156.081 185.33V176.699H147.302ZM140.188 171.177C140.771 171.181 141.349 171.064 141.887 170.834C142.937 170.387 143.772 169.552 144.217 168.502C144.672 167.415 144.672 166.191 144.215 165.101C143.768 164.051 142.933 163.214 141.883 162.769C141.345 162.539 140.767 162.423 140.182 162.427C139.602 162.423 139.027 162.539 138.494 162.769C138.096 162.939 137.971 163.161 137.423 163.428V170.176C137.973 170.445 138.096 170.664 138.494 170.834C139.029 171.066 139.606 171.181 140.188 171.177ZM137.423 193.352C137.973 193.471 138.17 193.564 138.56 193.617C138.986 193.678 139.417 193.709 139.848 193.711C140.512 193.707 141.177 193.637 141.827 193.498C142.49 193.365 143.126 193.116 143.704 192.766C144.272 192.417 144.75 191.941 145.103 191.377C145.493 190.719 145.683 189.96 145.655 189.195V173.954H137.423V193.352ZM107.238 197.553L135.776 202.492V154.197L107.238 159.137V197.553Z" fill="#263238"/>
<path d="M128.093 169.015L114.922 169.817V172.855L119.861 172.656V186.741L123.153 186.934V172.527L128.093 172.307V169.015Z" fill="white"/>
<path fill-rule="evenodd" clip-rule="evenodd" d="M350.165 148.143L349.384 149.327L348.868 148.987L349.649 147.803L350.165 148.143ZM347.822 151.695L346.26 154.064L345.745 153.724L347.306 151.355L347.822 151.695ZM344.698 156.432L343.136 158.801L342.621 158.461L344.183 156.092L344.698 156.432ZM341.574 161.169L340.012 163.538L339.497 163.198L341.059 160.829L341.574 161.169ZM338.45 165.906L336.888 168.274L336.373 167.934L337.935 165.566L338.45 165.906ZM335.326 170.643L333.764 173.011L333.249 172.671L334.811 170.303L335.326 170.643ZM332.202 175.38L331.421 176.564L330.906 176.224L331.687 175.04L332.202 175.38Z" fill="#263238"/>
<path d="M379.724 132.817V126.363L373.301 125.647C372.939 124.301 372.399 123.009 371.696 121.806L375.766 116.71L371.202 112.147L366.137 116.204C364.939 115.499 363.651 114.959 362.308 114.598L361.586 108.12H355.151L354.434 114.567C353.088 114.919 351.796 115.451 350.593 116.148L345.504 112.079L340.94 116.643L344.991 121.713C344.286 122.911 343.746 124.199 343.386 125.542L336.913 126.265V132.718L343.355 133.435C343.709 134.78 344.241 136.071 344.936 137.276L340.866 142.365L345.43 146.929L350.5 142.878C351.698 143.583 352.986 144.123 354.329 144.483L355.052 150.956H361.506L362.222 144.514C363.567 144.16 364.859 143.628 366.063 142.933L371.152 147.003L375.716 142.439L371.696 137.369C372.401 136.17 372.941 134.882 373.301 133.54L379.724 132.817ZM358.306 137.245C356.782 137.241 355.293 136.786 354.027 135.935C352.761 135.085 351.776 133.879 351.197 132.469C350.617 131.059 350.468 129.508 350.77 128.014C351.071 126.519 351.809 125.148 352.89 124.072C353.971 122.997 355.347 122.267 356.843 121.974C358.34 121.681 359.889 121.838 361.296 122.426C362.703 123.014 363.904 124.005 364.747 125.276C365.59 126.546 366.037 128.038 366.032 129.562C366.026 131.602 365.211 133.556 363.766 134.996C362.322 136.437 360.365 137.245 358.325 137.245H358.306Z" fill="#50BFD7"/>
<path fill-rule="evenodd" clip-rule="evenodd" d="M354.844 108.086C354.861 107.929 354.993 107.811 355.151 107.811H361.586C361.743 107.811 361.875 107.929 361.893 108.086L362.592 114.356C363.82 114.703 365.001 115.199 366.109 115.831L371.009 111.905C371.131 111.807 371.309 111.817 371.42 111.928L375.984 116.492C376.095 116.603 376.105 116.78 376.007 116.903L372.068 121.834C372.699 122.947 373.195 124.132 373.543 125.363L379.758 126.056C379.915 126.074 380.033 126.206 380.033 126.363V132.817C380.033 132.974 379.915 133.106 379.759 133.124L373.544 133.823C373.196 135.051 372.701 136.233 372.068 137.342L375.958 142.247C376.056 142.37 376.045 142.546 375.934 142.657L371.371 147.221C371.259 147.333 371.082 147.342 370.959 147.244L366.034 143.305C364.92 143.928 363.735 144.416 362.506 144.757L361.812 150.99C361.795 151.146 361.663 151.264 361.506 151.264H355.052C354.894 151.264 354.762 151.146 354.745 150.99L354.045 144.725C352.818 144.378 351.636 143.883 350.528 143.25L345.623 147.17C345.5 147.268 345.323 147.258 345.211 147.147L340.647 142.583C340.536 142.472 340.526 142.295 340.625 142.172L344.564 137.247C343.941 136.133 343.453 134.948 343.112 133.718L336.879 133.025C336.723 133.008 336.604 132.876 336.604 132.718V126.264C336.604 126.107 336.723 125.975 336.879 125.958L343.143 125.258C343.491 124.03 343.986 122.849 344.618 121.741L340.699 116.835C340.601 116.712 340.61 116.535 340.722 116.424L345.286 111.86C345.397 111.749 345.574 111.739 345.697 111.837L350.622 115.776C351.735 115.151 352.92 114.663 354.151 114.324L354.844 108.086ZM355.427 108.429L354.741 114.602C354.727 114.729 354.636 114.834 354.512 114.866C353.193 115.211 351.927 115.732 350.748 116.416C350.637 116.479 350.499 116.469 350.4 116.39L345.527 112.492L341.354 116.666L345.233 121.52C345.312 121.62 345.322 121.759 345.257 121.869C344.566 123.044 344.037 124.306 343.684 125.622C343.651 125.745 343.546 125.835 343.42 125.849L337.222 126.541V132.442L343.389 133.128C343.516 133.142 343.621 133.233 343.653 133.356C344.001 134.674 344.522 135.941 345.203 137.122C345.267 137.232 345.256 137.37 345.177 137.469L341.28 142.342L345.453 146.515L350.307 142.636C350.407 142.556 350.546 142.546 350.657 142.611C351.831 143.302 353.093 143.832 354.409 144.185C354.532 144.218 354.622 144.323 354.636 144.449L355.328 150.647H361.229L361.915 144.48C361.929 144.353 362.02 144.248 362.143 144.215C363.462 143.868 364.728 143.347 365.909 142.666C366.019 142.602 366.157 142.613 366.256 142.692L371.129 146.589L375.303 142.415L371.454 137.56C371.374 137.46 371.365 137.322 371.43 137.212C372.121 136.038 372.65 134.776 373.003 133.46C373.036 133.337 373.141 133.247 373.267 133.233L379.415 132.541V126.64L373.267 125.954C373.141 125.94 373.036 125.85 373.003 125.727C372.648 124.407 372.119 123.141 371.429 121.961C371.365 121.851 371.375 121.713 371.454 121.613L375.352 116.733L371.179 112.56L366.33 116.445C366.23 116.525 366.091 116.535 365.981 116.47C364.807 115.779 363.544 115.25 362.228 114.897C362.106 114.864 362.016 114.759 362.001 114.633L361.31 108.429H355.427ZM361.177 122.711C359.826 122.147 358.339 121.996 356.903 122.277C355.466 122.558 354.146 123.259 353.108 124.291C352.07 125.323 351.362 126.64 351.072 128.075C350.783 129.509 350.926 130.998 351.482 132.351C352.039 133.705 352.984 134.863 354.199 135.679C355.414 136.495 356.844 136.933 358.307 136.936H358.325C360.283 136.936 362.161 136.16 363.548 134.778C364.935 133.395 365.717 131.52 365.724 129.561C365.728 128.098 365.299 126.666 364.489 125.446C363.68 124.227 362.527 123.275 361.177 122.711ZM356.784 121.671C358.34 121.366 359.952 121.53 361.415 122.141C362.878 122.752 364.127 123.784 365.004 125.105C365.881 126.426 366.346 127.978 366.341 129.563C366.334 131.685 365.487 133.717 363.984 135.215C362.482 136.713 360.447 137.554 358.325 137.554H358.306C356.72 137.55 355.171 137.076 353.855 136.192C352.538 135.307 351.514 134.053 350.911 132.586C350.308 131.119 350.153 129.507 350.467 127.953C350.781 126.398 351.548 124.972 352.673 123.853C353.797 122.735 355.228 121.976 356.784 121.671Z" fill="#263238"/>
<path d="M405.113 119.86L404.428 115.586L400.105 115.827C399.725 114.975 399.23 114.18 398.635 113.462L400.722 109.639L397.196 107.119L394.287 110.368C393.416 110.038 392.504 109.83 391.576 109.75L390.378 105.538L386.104 106.255L386.345 110.578C385.492 110.959 384.694 111.453 383.973 112.048L380.157 109.917L377.637 113.443L380.885 116.352C380.555 117.223 380.348 118.136 380.268 119.063L376.019 120.299L376.735 124.572L381.058 124.331C381.439 125.185 381.934 125.982 382.528 126.703L380.397 130.52L383.924 133.039L386.833 129.791C387.704 130.121 388.616 130.329 389.544 130.408L390.742 134.62L395.047 133.885L394.806 129.562C395.658 129.183 396.454 128.688 397.171 128.093L400.994 130.18L403.514 126.654L400.265 123.745C400.595 122.874 400.803 121.961 400.883 121.034L405.113 119.86ZM391.421 125.165C390.413 125.333 389.378 125.198 388.446 124.778C387.514 124.357 386.728 123.67 386.187 122.803C385.646 121.936 385.374 120.928 385.406 119.906C385.437 118.885 385.771 117.895 386.365 117.063C386.959 116.231 387.786 115.594 388.742 115.232C389.697 114.87 390.739 114.8 391.735 115.029C392.731 115.259 393.636 115.779 394.337 116.524C395.037 117.268 395.501 118.204 395.67 119.212C395.895 120.564 395.574 121.951 394.778 123.068C393.981 124.184 392.774 124.938 391.421 125.165Z" fill="#263238"/>
<path fill-rule="evenodd" clip-rule="evenodd" d="M390.599 105.188L391.815 109.463C392.627 109.55 393.427 109.732 394.197 110.006L397.15 106.707L401.124 109.547L399.005 113.428C399.515 114.068 399.949 114.766 400.298 115.507L404.688 115.263L405.462 120.084L401.17 121.274C401.083 122.086 400.901 122.885 400.627 123.654L403.926 126.608L401.086 130.582L397.205 128.463C396.565 128.973 395.867 129.407 395.126 129.755L395.37 134.143L390.521 134.971L389.304 130.695C388.492 130.609 387.693 130.427 386.923 130.153L383.969 133.451L379.993 130.61L382.157 126.735C381.648 126.092 381.214 125.393 380.865 124.651L376.476 124.896L375.669 120.079L379.98 118.825C380.067 118.012 380.249 117.213 380.523 116.442L377.225 113.489L380.066 109.513L383.941 111.676C384.584 111.167 385.283 110.734 386.025 110.385L385.78 105.996L390.599 105.188ZM386.427 106.513L386.665 110.773L386.471 110.86C385.643 111.229 384.869 111.709 384.17 112.286L384.007 112.42L380.247 110.321L378.049 113.398L381.249 116.263L381.174 116.462C380.854 117.306 380.653 118.19 380.575 119.09L380.557 119.301L376.369 120.518L376.994 124.248L381.253 124.011L381.34 124.205C381.71 125.033 382.189 125.807 382.766 126.506L382.9 126.669L380.802 130.429L383.878 132.627L386.744 129.427L386.942 129.502C387.786 129.822 388.671 130.023 389.57 130.101L389.782 130.119L390.963 134.269L394.723 133.627L394.485 129.367L394.68 129.28C395.506 128.912 396.278 128.433 396.974 127.855L397.135 127.721L400.902 129.778L403.101 126.699L399.901 123.833L399.976 123.635C400.296 122.791 400.498 121.906 400.575 121.007L400.593 120.793L404.764 119.636L404.167 115.91L399.909 116.147L399.822 115.953C399.454 115.127 398.975 114.355 398.397 113.659L398.263 113.498L400.32 109.731L397.241 107.531L394.376 110.732L394.177 110.656C393.333 110.337 392.449 110.135 391.549 110.058L391.337 110.04L390.156 105.888L386.427 106.513ZM391.665 115.33C390.729 115.114 389.75 115.18 388.851 115.521C387.952 115.861 387.174 116.46 386.616 117.243C386.058 118.025 385.744 118.955 385.714 119.916C385.684 120.876 385.94 121.824 386.449 122.639C386.958 123.455 387.697 124.101 388.573 124.496C389.449 124.892 390.422 125.018 391.37 124.861C392.642 124.647 393.777 123.938 394.526 122.888C395.275 121.838 395.577 120.534 395.366 119.262C395.207 118.315 394.77 117.435 394.112 116.735C393.453 116.035 392.602 115.546 391.665 115.33ZM391.472 125.47C392.906 125.229 394.185 124.43 395.029 123.247C395.873 122.064 396.213 120.594 395.975 119.161C395.796 118.093 395.304 117.101 394.562 116.312C393.819 115.523 392.86 114.972 391.804 114.728C390.749 114.485 389.645 114.56 388.632 114.943C387.619 115.327 386.743 116.002 386.113 116.884C385.484 117.765 385.13 118.814 385.097 119.897C385.063 120.979 385.351 122.048 385.925 122.966C386.499 123.885 387.332 124.614 388.319 125.059C389.306 125.505 390.404 125.647 391.472 125.47Z" fill="#263238"/>
<path fill-rule="evenodd" clip-rule="evenodd" d="M391.174 240.662L392.32 240.669L392.317 241.128L391.171 241.121L391.174 240.662Z" fill="#263238"/>
<path fill-rule="evenodd" clip-rule="evenodd" d="M387.754 240.641L388.871 240.648L388.868 241.107L387.752 241.1L387.754 240.641ZM383.287 240.614L385.521 240.628L385.518 241.087L383.284 241.073L383.287 240.614ZM378.819 240.587L381.053 240.601L381.05 241.059L378.816 241.046L378.819 240.587ZM374.352 240.56L376.585 240.573L376.583 241.032L374.349 241.018L374.352 240.56ZM369.884 240.533L372.118 240.546L372.115 241.005L369.881 240.991L369.884 240.533ZM365.417 240.505L367.65 240.519L367.648 240.978L365.414 240.964L365.417 240.505ZM360.949 240.478L363.183 240.492L363.18 240.95L360.946 240.937L360.949 240.478ZM356.481 240.451L358.715 240.464L358.712 240.923L356.479 240.909L356.481 240.451ZM352.014 240.424L354.248 240.437L354.245 240.896L352.011 240.882L352.014 240.424ZM348.663 240.403L349.78 240.41L349.777 240.869L348.66 240.862L348.663 240.403Z" fill="#263238"/>
<path fill-rule="evenodd" clip-rule="evenodd" d="M346.366 240.389L347.512 240.396L347.509 240.855L346.363 240.848L346.366 240.389Z" fill="#263238"/>
<path fill-rule="evenodd" clip-rule="evenodd" d="M411.307 258.081C411.307 258.207 411.203 258.309 411.077 258.309L385.15 258.151C385.024 258.15 384.922 258.047 384.922 257.92C384.923 257.793 385.026 257.691 385.153 257.692L411.079 257.85C411.206 257.851 411.308 257.954 411.307 258.081Z" fill="#263238"/>
<path fill-rule="evenodd" clip-rule="evenodd" d="M398.111 258.23C397.985 258.229 397.883 258.125 397.883 257.999L397.961 245.226C397.962 245.099 398.065 244.997 398.192 244.998C398.319 244.999 398.421 245.102 398.42 245.229L398.342 258.002C398.341 258.128 398.238 258.23 398.111 258.23Z" fill="#263238"/>
<path fill-rule="evenodd" clip-rule="evenodd" d="M418.677 255.177C418.551 255.176 418.448 255.073 418.449 254.946L418.548 238.788C418.549 238.662 418.652 238.56 418.778 238.56C418.905 238.561 419.007 238.665 419.006 238.791L418.908 254.949C418.907 255.075 418.804 255.177 418.677 255.177Z" fill="#263238"/>
<path fill-rule="evenodd" clip-rule="evenodd" d="M394.067 236.942C394.067 237.069 393.963 237.171 393.837 237.17L370.359 237.027C370.233 237.026 370.131 236.923 370.131 236.796L370.218 222.597C370.219 222.47 370.322 222.368 370.449 222.369C370.575 222.37 370.677 222.473 370.677 222.6L370.591 236.57L393.839 236.711C393.966 236.712 394.068 236.815 394.067 236.942Z" fill="#263238"/>
<path fill-rule="evenodd" clip-rule="evenodd" d="M385.28 236.875C385.154 236.874 385.052 236.771 385.052 236.644L385.136 222.945C385.137 222.818 385.24 222.716 385.367 222.717C385.493 222.717 385.595 222.821 385.594 222.947L385.511 236.647C385.51 236.773 385.407 236.875 385.28 236.875Z" fill="#263238"/>
<path d="M406.399 263.435L423.277 263.538L423.347 252.04L406.469 251.937L406.399 263.435Z" fill="#263238"/>
<path fill-rule="evenodd" clip-rule="evenodd" d="M423.505 263.769L406.169 263.663L406.242 251.707L423.578 251.812L423.505 263.769ZM423.049 263.307L423.116 252.268L406.697 252.168L406.63 263.207L423.049 263.307Z" fill="#263238"/>
<path d="M374.479 263.241L391.356 263.344L391.427 251.846L374.549 251.743L374.479 263.241Z" fill="#50BFD7"/>
<path fill-rule="evenodd" clip-rule="evenodd" d="M391.586 263.345C391.585 263.472 391.482 263.574 391.355 263.573L374.477 263.47C374.351 263.469 374.249 263.366 374.249 263.239L374.32 251.741C374.32 251.615 374.424 251.513 374.55 251.513L391.428 251.616C391.554 251.617 391.657 251.72 391.656 251.847L391.586 263.345ZM391.128 263.113L391.196 252.074L374.777 251.973L374.709 263.013L391.128 263.113Z" fill="#263238"/>
<path d="M379.79 226.338L390.605 226.404L390.65 219.038L379.835 218.973L379.79 226.338Z" fill="#50BFD7"/>
<path fill-rule="evenodd" clip-rule="evenodd" d="M390.834 226.405C390.833 226.532 390.73 226.634 390.603 226.633L379.789 226.567C379.662 226.567 379.56 226.463 379.561 226.337L379.606 218.971C379.606 218.844 379.71 218.742 379.836 218.743L390.651 218.809C390.778 218.81 390.88 218.913 390.879 219.04L390.834 226.405ZM390.377 226.173L390.419 219.266L380.063 219.203L380.021 226.11L390.377 226.173Z" fill="#263238"/>
<path d="M412.71 242.436L423.524 242.501L423.569 235.136L412.755 235.07L412.71 242.436Z" fill="white"/>
<path fill-rule="evenodd" clip-rule="evenodd" d="M423.754 242.503C423.753 242.63 423.65 242.732 423.523 242.731L412.709 242.665C412.582 242.664 412.48 242.561 412.481 242.434L412.526 235.069C412.526 234.942 412.63 234.84 412.756 234.841L423.571 234.907C423.697 234.907 423.8 235.011 423.799 235.137L423.754 242.503ZM423.297 242.271L423.339 235.364L412.983 235.301L412.941 242.208L423.297 242.271Z" fill="#263238"/>
<path d="M365.6 226.252L376.415 226.318L376.459 218.952L365.645 218.886L365.6 226.252Z" fill="#263238"/>
<path fill-rule="evenodd" clip-rule="evenodd" d="M376.643 226.548L365.369 226.48L365.417 218.655L376.69 218.724L376.643 226.548ZM376.187 226.087L376.229 219.18L365.873 219.117L365.831 226.024L376.187 226.087Z" fill="#263238"/>
<path d="M398.194 245.229L406.753 236.775L398.298 228.217L389.74 236.671L398.194 245.229Z" fill="#50BFD7"/>
<path fill-rule="evenodd" clip-rule="evenodd" d="M406.916 236.614C407.005 236.704 407.004 236.849 406.914 236.938L398.356 245.393C398.266 245.482 398.12 245.481 398.031 245.391L389.577 236.833C389.488 236.742 389.489 236.597 389.579 236.508L398.137 228.054C398.227 227.965 398.372 227.966 398.461 228.056L406.916 236.614ZM406.429 236.773L398.296 228.541L390.064 236.673L398.197 244.905L406.429 236.773Z" fill="#263238"/>
</svg>
