<svg width="475" height="517" viewBox="0 0 475 517" fill="none" xmlns="http://www.w3.org/2000/svg">
<path d="M363.416 100.478C382.141 125.459 396.216 163.783 385.733 201.78C369.908 259.186 399.467 282.62 346.236 372.313C338.508 385.439 329.675 397.862 319.891 409.364C315.09 414.978 310.029 420.31 304.74 425.328C258.109 469.57 204.718 477.349 163.58 458.697C109.477 434.149 109.589 375.338 111.237 337.971C112.885 300.604 75.8846 234.986 127.682 146.459C135.544 132.919 144.622 120.138 154.736 108.372C177.899 81.6067 209.269 58.5081 240.262 51.8015C242.586 51.3039 244.902 50.8743 247.252 50.5264C292.884 43.7031 337.883 66.4097 363.416 100.478Z" fill="#50BFD7"/>
<path opacity="0.7" d="M363.416 100.478C382.141 125.459 396.216 163.783 385.733 201.78C369.908 259.186 399.467 282.62 346.236 372.313C338.508 385.439 329.675 397.862 319.891 409.364C315.09 414.978 310.029 420.31 304.74 425.328C258.109 469.57 204.718 477.349 163.58 458.697C109.477 434.149 109.589 375.338 111.237 337.971C112.885 300.604 75.8846 234.986 127.682 146.459C135.544 132.919 144.622 120.138 154.736 108.372C177.899 81.6067 209.269 58.5081 240.262 51.8015C242.586 51.3039 244.902 50.8743 247.252 50.5264C292.884 43.7031 337.883 66.4097 363.416 100.478Z" fill="white"/>
<path d="M400.696 465.388H117.304C117.224 465.388 117.146 465.351 117.089 465.285C117.032 465.22 117 465.132 117 465.039C117.002 464.947 117.034 464.86 117.091 464.795C117.148 464.73 117.224 464.692 117.304 464.691H400.696C400.776 464.692 400.852 464.73 400.909 464.795C400.966 464.86 400.998 464.947 401 465.039C401 465.132 400.968 465.22 400.911 465.285C400.854 465.351 400.776 465.388 400.696 465.388Z" fill="#263238"/>
<path fill-rule="evenodd" clip-rule="evenodd" d="M125.243 186.247V199.211H129.697V186.247H142.66V181.793H129.697V168.801H125.243V181.793H112.251V186.247H125.243Z" fill="white"/>
<path opacity="0.3" fill-rule="evenodd" clip-rule="evenodd" d="M102.971 284.808C102.971 284.357 103.336 283.992 103.786 283.992H157.184C157.634 283.992 157.999 284.357 157.999 284.808V337.228C157.999 337.678 157.634 338.043 157.184 338.043H103.786C103.336 338.043 102.971 337.678 102.971 337.228V284.808ZM104.601 285.623V336.412H156.369V285.623H104.601Z" fill="#454545"/>
<path opacity="0.3" fill-rule="evenodd" clip-rule="evenodd" d="M133.39 288.766C132.137 288.869 131.207 289.111 130.706 289.417L130.602 289.48L130.484 289.51L130.478 289.512L130.456 289.517L130.366 289.542C130.286 289.564 130.166 289.597 130.013 289.641C129.706 289.73 129.265 289.864 128.733 290.042C127.667 290.399 126.247 290.931 124.816 291.63C123.38 292.332 121.968 293.186 120.894 294.176C119.817 295.17 119.151 296.234 119.043 297.358L119.042 297.371L119.041 297.384C118.697 300.065 118.697 302.779 119.041 305.46L119.145 306.278L118.339 306.372C118.334 306.373 118.327 306.374 118.317 306.376C118.288 306.383 118.24 306.397 118.181 306.421C118.061 306.469 117.913 306.554 117.784 306.703C117.563 306.958 117.202 307.639 117.695 309.349L117.699 309.362L117.702 309.376C118.191 311.324 119.312 313.055 120.889 314.298L121.085 314.453L122.861 319.996L121.855 324.102H119.163L119.651 329.085L118.957 329.249L118.919 329.258L118.807 329.285C118.708 329.308 118.562 329.344 118.376 329.389C118.003 329.481 117.468 329.614 116.822 329.78C115.53 330.113 113.794 330.578 112.019 331.109C110.24 331.642 108.439 332.234 107.007 332.821C106.29 333.115 105.685 333.399 105.228 333.665C104.916 333.846 104.718 333.994 104.601 334.101V336.412H156.369V335.815L155.711 335.228L155.695 335.211C155.512 335.028 155.136 334.767 154.547 334.443C153.975 334.129 153.258 333.785 152.441 333.426C150.808 332.708 148.82 331.944 146.887 331.244C144.956 330.544 143.091 329.91 141.707 329.452C141.016 329.223 140.445 329.037 140.048 328.909C139.849 328.845 139.694 328.796 139.588 328.762L139.468 328.724L139.428 328.711L138.912 328.549L138.642 325.689L135.749 325.159L134.726 318.899L135.527 318.765L135.535 318.764L135.568 318.758C135.598 318.752 135.645 318.743 135.707 318.731C135.83 318.705 136.011 318.665 136.235 318.608C136.684 318.494 137.297 318.313 137.956 318.045C139.307 317.497 140.695 316.65 141.372 315.425C141.497 315.198 141.605 314.815 141.658 314.248C141.711 313.694 141.706 313.026 141.655 312.276C141.551 310.777 141.264 309.026 140.92 307.343C140.578 305.663 140.184 304.072 139.876 302.9C139.722 302.314 139.589 301.834 139.496 301.501C139.449 301.334 139.411 301.205 139.386 301.117L139.357 301.017L139.35 300.993L139.348 300.987L139.348 300.985L139.246 300.643L139.428 300.337L139.433 300.329L139.452 300.297C139.469 300.267 139.494 300.222 139.527 300.162C139.593 300.042 139.686 299.865 139.794 299.644C140.011 299.199 140.281 298.584 140.503 297.895C140.966 296.453 141.124 294.963 140.509 293.955L137.573 289.139L139.888 290.104L139.892 290.106L139.906 290.111L139.961 290.134C140.01 290.154 140.082 290.183 140.173 290.219C140.356 290.291 140.616 290.392 140.922 290.504C141.538 290.729 142.319 290.992 143.022 291.165C143.31 291.236 143.57 291.288 143.793 291.318C143.389 290.781 142.583 290.257 141.428 289.817C140.281 289.381 138.893 289.065 137.467 288.885C136.044 288.706 134.613 288.666 133.39 288.766ZM141.483 292.42C141.86 292.54 142.253 292.655 142.633 292.749C143.026 292.845 143.426 292.924 143.789 292.958C144.126 292.989 144.541 292.995 144.903 292.856C145.098 292.78 145.32 292.647 145.484 292.412C145.652 292.169 145.704 291.896 145.688 291.645C145.658 291.2 145.41 290.765 145.124 290.374C144.447 289.451 143.281 288.778 142.008 288.293C140.711 287.8 139.189 287.459 137.671 287.268C136.152 287.076 134.607 287.031 133.256 287.141C131.991 287.245 130.798 287.493 129.965 287.961L129.938 287.969C129.849 287.993 129.721 288.028 129.558 288.075C129.233 288.17 128.771 288.31 128.215 288.496C127.106 288.868 125.615 289.425 124.1 290.165C122.592 290.902 121.025 291.837 119.789 292.978C118.56 294.111 117.587 295.515 117.422 297.189C117.09 299.786 117.065 302.411 117.346 305.012C117.094 305.142 116.809 305.338 116.552 305.635C115.845 306.45 115.546 307.77 116.124 309.787C116.682 311.997 117.929 313.969 119.682 315.42L121.168 320.055L120.576 322.472H117.366L117.89 327.83C117.519 327.921 117.014 328.047 116.416 328.201C115.111 328.537 113.354 329.008 111.552 329.547C109.754 330.085 107.894 330.696 106.389 331.312C105.638 331.62 104.956 331.937 104.408 332.256C103.891 332.556 103.379 332.922 103.097 333.367L102.971 333.567V338.043H157.999V335.085L156.83 334.041C156.474 333.692 155.935 333.346 155.333 333.015C154.703 332.668 153.938 332.303 153.098 331.934C151.417 331.194 149.39 330.416 147.443 329.711C145.493 329.004 143.612 328.366 142.22 327.904C141.524 327.673 140.949 327.487 140.548 327.357C140.508 327.345 140.47 327.332 140.434 327.321L140.149 324.308L137.173 323.762L136.591 320.2C136.606 320.196 136.622 320.192 136.638 320.188C137.138 320.061 137.825 319.858 138.569 319.556C140.022 318.967 141.846 317.939 142.799 316.213C143.082 315.702 143.219 315.061 143.282 314.401C143.345 313.728 143.337 312.965 143.281 312.164C143.171 310.562 142.867 308.731 142.518 307.017C142.167 305.298 141.766 303.676 141.453 302.485C141.296 301.889 141.161 301.4 141.065 301.059C141.044 300.983 141.024 300.914 141.007 300.853C141.077 300.723 141.163 300.556 141.26 300.358C141.499 299.866 141.803 299.177 142.055 298.394C142.537 296.893 142.917 294.772 141.901 293.106L141.483 292.42Z" fill="#454545"/>
<path d="M333.412 321.015L344.735 429.492" stroke="#263238" stroke-width="2" stroke-miterlimit="10"/>
<path d="M342.909 408.736L337.778 403.315" stroke="#263238" stroke-width="2" stroke-miterlimit="10"/>
<path d="M339.335 404.936C339.325 404.106 339.138 403.289 338.785 402.538C338.432 401.787 337.922 401.121 337.29 400.584C335.974 399.409 329.039 396.493 328.38 398.935C327.666 401.589 334.764 406.832 339.335 404.936Z" fill="#50BFD7" stroke="#263238" stroke-miterlimit="10"/>
<path d="M339.335 404.936L332.732 400.824" stroke="#263238" stroke-width="0.5" stroke-miterlimit="10"/>
<path d="M344.196 421.071L339.059 415.65" stroke="#263238" stroke-width="2" stroke-miterlimit="10"/>
<path d="M340.623 417.271C340.613 416.441 340.425 415.623 340.073 414.873C339.72 414.122 339.21 413.456 338.578 412.919C337.262 411.744 330.327 408.828 329.668 411.27C328.954 413.909 336.052 419.139 340.623 417.271Z" fill="#50BFD7" stroke="#263238" stroke-miterlimit="10"/>
<path d="M340.623 417.271L334.021 413.159" stroke="#263238" stroke-width="0.5" stroke-miterlimit="10"/>
<path d="M339.767 378.632L334.636 373.211" stroke="#263238" stroke-width="2" stroke-miterlimit="10"/>
<path d="M336.193 374.832C336.183 374.003 335.996 373.185 335.643 372.434C335.29 371.683 334.78 371.017 334.148 370.48C332.832 369.306 325.897 366.39 325.238 368.831C324.538 371.485 331.614 376.701 336.193 374.832Z" fill="#50BFD7" stroke="#263238" stroke-miterlimit="10"/>
<path d="M336.193 374.832L329.59 370.72" stroke="#263238" stroke-width="0.5" stroke-miterlimit="10"/>
<path d="M341.055 390.967L335.924 385.546" stroke="#263238" stroke-width="2" stroke-miterlimit="10"/>
<path d="M337.481 387.167C337.471 386.337 337.283 385.519 336.931 384.769C336.578 384.018 336.068 383.352 335.436 382.814C334.12 381.64 327.185 378.724 326.527 381.166C325.812 383.819 332.91 389.035 337.481 387.167Z" fill="#50BFD7" stroke="#263238" stroke-miterlimit="10"/>
<path d="M337.481 387.167L330.879 383.055" stroke="#263238" stroke-width="0.5" stroke-miterlimit="10"/>
<path d="M337.672 358.591L332.541 353.171" stroke="#263238" stroke-width="2" stroke-miterlimit="10"/>
<path d="M334.098 354.791C334.089 353.962 333.903 353.145 333.551 352.394C333.2 351.644 332.691 350.977 332.06 350.439C330.744 349.264 323.83 346.349 323.123 348.804C322.415 351.444 329.534 356.659 334.098 354.791Z" fill="#50BFD7" stroke="#263238" stroke-miterlimit="10"/>
<path d="M334.098 354.791L327.503 350.68" stroke="#263238" stroke-width="0.5" stroke-miterlimit="10"/>
<path d="M335.57 338.466L330.44 333.045" stroke="#263238" stroke-width="2" stroke-miterlimit="10"/>
<path d="M332.004 334.651C331.992 333.822 331.804 333.005 331.451 332.254C331.099 331.504 330.59 330.837 329.959 330.299C328.642 329.125 321.707 326.202 321.049 328.643C320.334 331.318 327.432 336.534 332.004 334.651Z" fill="#50BFD7" stroke="#263238" stroke-miterlimit="10"/>
<path d="M332.004 334.665L325.401 330.554" stroke="#263238" stroke-width="0.5" stroke-miterlimit="10"/>
<path d="M342.045 401.433L345.945 395.071" stroke="#263238" stroke-width="2" stroke-miterlimit="10"/>
<path d="M344.756 396.982C344.595 396.169 344.61 395.33 344.801 394.523C344.991 393.716 345.352 392.96 345.86 392.304C346.9 390.889 353.085 386.593 354.231 388.844C355.477 391.299 349.61 397.866 344.756 396.982Z" fill="#50BFD7" stroke="#263238" stroke-miterlimit="10"/>
<path d="M344.756 396.982L350.7 391.299" stroke="#263238" stroke-width="0.5" stroke-miterlimit="10"/>
<path d="M338.656 368.973L342.562 362.604" stroke="#263238" stroke-width="2" stroke-miterlimit="10"/>
<path d="M341.366 364.514C341.205 363.701 341.221 362.863 341.411 362.056C341.601 361.249 341.963 360.492 342.47 359.837C343.517 358.421 349.695 354.126 350.842 356.383C352.094 358.832 346.228 365.399 341.366 364.514Z" fill="#50BFD7" stroke="#263238" stroke-miterlimit="10"/>
<path d="M341.366 364.514L347.31 358.839" stroke="#263238" stroke-width="0.5" stroke-miterlimit="10"/>
<path d="M337.169 354.706L341.069 348.337" stroke="#263238" stroke-width="2" stroke-miterlimit="10"/>
<path d="M339.88 350.22C339.719 349.407 339.734 348.569 339.923 347.763C340.112 346.956 340.471 346.199 340.977 345.542C342.024 344.127 348.209 339.831 349.356 342.089C350.601 344.559 344.735 351.133 339.88 350.22Z" fill="#50BFD7" stroke="#263238" stroke-miterlimit="10"/>
<path d="M339.88 350.248L345.824 344.573" stroke="#263238" stroke-width="0.5" stroke-miterlimit="10"/>
<path d="M334.983 333.788L338.889 327.426" stroke="#263238" stroke-width="2" stroke-miterlimit="10"/>
<path d="M337.693 329.337C337.533 328.522 337.548 327.683 337.739 326.875C337.929 326.067 338.29 325.309 338.797 324.652C339.845 323.237 346.023 318.948 347.169 321.199C348.421 323.647 342.555 330.221 337.693 329.337Z" fill="#50BFD7" stroke="#263238" stroke-miterlimit="10"/>
<path d="M337.693 329.337L343.638 323.654" stroke="#263238" stroke-width="0.5" stroke-miterlimit="10"/>
<path d="M333.313 320.413C333.152 319.6 333.167 318.761 333.358 317.955C333.548 317.148 333.909 316.391 334.417 315.735C335.464 314.32 341.642 310.025 342.789 312.282C344.041 314.731 338.175 321.298 333.313 320.413Z" fill="#50BFD7" stroke="#263238" stroke-miterlimit="10"/>
<path d="M333.313 320.413L339.257 314.738" stroke="#263238" stroke-width="0.5" stroke-miterlimit="10"/>
<path d="M333.659 320.661C332.834 320.735 332.002 320.632 331.22 320.359C330.438 320.085 329.723 319.648 329.123 319.076C327.814 317.887 324.17 311.291 326.562 310.386C329.13 309.402 335.047 315.92 333.659 320.661Z" fill="#50BFD7" stroke="#263238" stroke-miterlimit="10"/>
<path d="M333.66 320.661L328.635 314.157" stroke="#263238" stroke-width="0.5" stroke-miterlimit="10"/>
<path d="M363.268 335.953L352.009 444.438" stroke="#263238" stroke-width="2" stroke-miterlimit="10"/>
<path d="M354.5 423.746L350.594 417.391" stroke="#263238" stroke-width="2" stroke-miterlimit="10"/>
<path d="M351.79 419.294C351.956 418.484 351.946 417.647 351.762 416.84C351.577 416.033 351.223 415.275 350.721 414.617C349.674 413.201 343.489 408.913 342.343 411.17C341.062 413.619 346.928 420.186 351.79 419.294Z" fill="#50BFD7" stroke="#263238" stroke-miterlimit="10"/>
<path d="M351.79 419.294L346.178 413.916" stroke="#263238" stroke-width="0.5" stroke-miterlimit="10"/>
<path d="M357.628 393.642L353.722 387.28" stroke="#263238" stroke-width="2" stroke-miterlimit="10"/>
<path d="M354.911 389.191C355.071 388.377 355.056 387.539 354.866 386.732C354.675 385.925 354.314 385.169 353.807 384.513C352.759 383.098 346.574 378.809 345.428 381.06C344.182 383.515 350.056 390.075 354.911 389.191Z" fill="#50BFD7" stroke="#263238" stroke-miterlimit="10"/>
<path d="M354.911 389.191L349.299 383.805" stroke="#263238" stroke-width="0.5" stroke-miterlimit="10"/>
<path d="M356.347 405.983L352.441 399.622" stroke="#263238" stroke-width="2" stroke-miterlimit="10"/>
<path d="M353.63 401.532C353.791 400.718 353.775 399.878 353.585 399.07C353.395 398.262 353.033 397.504 352.526 396.848C351.478 395.432 345.301 391.144 344.154 393.401C342.937 395.85 348.775 402.417 353.63 401.532Z" fill="#50BFD7" stroke="#263238" stroke-miterlimit="10"/>
<path d="M353.63 401.532L348.018 396.147" stroke="#263238" stroke-width="0.5" stroke-miterlimit="10"/>
<path d="M359.709 373.601L355.802 367.239" stroke="#263238" stroke-width="2" stroke-miterlimit="10"/>
<path d="M356.991 369.15C357.152 368.337 357.137 367.498 356.946 366.691C356.756 365.884 356.395 365.128 355.887 364.472C354.84 363.057 348.655 358.768 347.509 361.019C346.263 363.474 352.137 370.034 356.991 369.15Z" fill="#50BFD7" stroke="#263238" stroke-miterlimit="10"/>
<path d="M356.991 369.15L351.379 363.765" stroke="#263238" stroke-width="0.5" stroke-miterlimit="10"/>
<path d="M361.796 353.475L357.89 347.113" stroke="#263238" stroke-width="2" stroke-miterlimit="10"/>
<path d="M359.079 349.024C359.24 348.209 359.225 347.37 359.034 346.562C358.844 345.754 358.483 344.996 357.975 344.339C356.928 342.924 350.743 338.635 349.596 340.893C348.351 343.341 354.26 349.908 359.079 349.024Z" fill="#50BFD7" stroke="#263238" stroke-miterlimit="10"/>
<path d="M359.079 349.024L353.467 343.638" stroke="#263238" stroke-width="0.5" stroke-miterlimit="10"/>
<path d="M355.158 416.428L360.289 411.008" stroke="#263238" stroke-width="2" stroke-miterlimit="10"/>
<path d="M358.732 412.628C358.737 411.795 358.922 410.972 359.274 410.216C359.625 409.46 360.136 408.789 360.77 408.248C362.086 407.066 369.021 404.151 369.68 406.592C370.394 409.274 363.304 414.497 358.732 412.628Z" fill="#50BFD7" stroke="#263238" stroke-miterlimit="10"/>
<path d="M358.732 412.628L365.717 408.297" stroke="#263238" stroke-width="0.5" stroke-miterlimit="10"/>
<path d="M358.527 383.961L363.657 378.541" stroke="#263238" stroke-width="2" stroke-miterlimit="10"/>
<path d="M362.1 380.161C362.109 379.332 362.296 378.515 362.648 377.764C362.999 377.013 363.508 376.347 364.138 375.809C365.455 374.634 372.39 371.711 373.048 374.153C373.763 376.807 366.672 382.064 362.1 380.161Z" fill="#50BFD7" stroke="#263238" stroke-miterlimit="10"/>
<path d="M362.1 380.161L369.085 375.83" stroke="#263238" stroke-width="0.5" stroke-miterlimit="10"/>
<path d="M360.013 369.695L365.136 364.267" stroke="#263238" stroke-width="2" stroke-miterlimit="10"/>
<path d="M363.58 365.894C363.589 365.066 363.775 364.248 364.127 363.498C364.478 362.747 364.987 362.08 365.618 361.542C366.934 360.361 373.869 357.445 374.527 359.886C375.242 362.54 368.151 367.763 363.58 365.894Z" fill="#50BFD7" stroke="#263238" stroke-miterlimit="10"/>
<path d="M363.58 365.894L370.564 361.563" stroke="#263238" stroke-width="0.5" stroke-miterlimit="10"/>
<path d="M362.178 348.776L367.309 343.355" stroke="#263238" stroke-width="2" stroke-miterlimit="10"/>
<path d="M365.752 344.976C365.762 344.147 365.948 343.33 366.3 342.579C366.651 341.829 367.16 341.162 367.79 340.624C369.106 339.449 376.041 336.527 376.699 338.968C377.414 341.622 370.323 346.844 365.752 344.976Z" fill="#50BFD7" stroke="#263238" stroke-miterlimit="10"/>
<path d="M365.752 344.976L372.737 340.645" stroke="#263238" stroke-width="0.5" stroke-miterlimit="10"/>
<path d="M363.303 335.359C363.313 334.53 363.5 333.713 363.851 332.962C364.203 332.212 364.711 331.545 365.342 331.007C366.658 329.832 373.586 326.91 374.251 329.351C374.966 331.991 367.875 337.213 363.303 335.359Z" fill="#50BFD7" stroke="#263238" stroke-miterlimit="10"/>
<path d="M363.303 335.345L370.288 331.014" stroke="#263238" stroke-width="0.5" stroke-miterlimit="10"/>
<path d="M363.587 335.656C362.762 335.561 361.968 335.29 361.258 334.862C360.547 334.433 359.937 333.857 359.468 333.172C358.435 331.757 356.262 324.539 358.76 324.142C361.471 323.704 365.922 331.311 363.587 335.656Z" fill="#50BFD7" stroke="#263238" stroke-miterlimit="10"/>
<path d="M363.586 335.656L360.006 328.254" stroke="#263238" stroke-width="0.5" stroke-miterlimit="10"/>
<path d="M350.368 291.781V428.968" stroke="#263238" stroke-width="2" stroke-miterlimit="10"/>
<path d="M350.481 408.34L345.938 402.417" stroke="#263238" stroke-width="2" stroke-miterlimit="10"/>
<path d="M347.317 404.193C347.394 403.367 347.293 402.534 347.021 401.75C346.748 400.967 346.311 400.251 345.739 399.65C344.55 398.341 337.955 394.696 337.049 397.081C336.066 399.65 342.583 405.573 347.317 404.193Z" fill="#50BFD7" stroke="#263238" stroke-miterlimit="10"/>
<path d="M347.317 404.193L341.182 399.417" stroke="#263238" stroke-width="0.5" stroke-miterlimit="10"/>
<path d="M350.481 382.56L345.938 376.637" stroke="#263238" stroke-width="2" stroke-miterlimit="10"/>
<path d="M347.317 378.413C347.394 377.587 347.293 376.754 347.021 375.971C346.748 375.187 346.311 374.471 345.739 373.87C344.55 372.561 337.955 368.916 337.049 371.301C336.066 373.87 342.583 379.793 347.317 378.413Z" fill="#50BFD7" stroke="#263238" stroke-miterlimit="10"/>
<path d="M347.317 378.413L341.182 373.636" stroke="#263238" stroke-width="0.5" stroke-miterlimit="10"/>
<path d="M350.481 352.293L345.938 346.37" stroke="#263238" stroke-width="2" stroke-miterlimit="10"/>
<path d="M347.317 348.146C347.394 347.32 347.293 346.487 347.021 345.704C346.748 344.92 346.311 344.204 345.739 343.603C344.55 342.294 337.955 338.65 337.049 341.034C336.066 343.603 342.583 349.512 347.317 348.146Z" fill="#50BFD7" stroke="#263238" stroke-miterlimit="10"/>
<path d="M347.317 348.146L341.182 343.37" stroke="#263238" stroke-width="0.5" stroke-miterlimit="10"/>
<path d="M350.481 332.139L345.938 326.216" stroke="#263238" stroke-width="2" stroke-miterlimit="10"/>
<path d="M347.317 327.992C347.394 327.167 347.293 326.335 347.02 325.553C346.748 324.77 346.311 324.055 345.739 323.456C344.55 322.147 337.955 318.502 337.049 320.887C336.066 323.456 342.583 329.379 347.317 327.992Z" fill="#50BFD7" stroke="#263238" stroke-miterlimit="10"/>
<path d="M347.317 327.992L341.182 323.223" stroke="#263238" stroke-width="0.5" stroke-miterlimit="10"/>
<path d="M350.481 311.907L345.938 305.984" stroke="#263238" stroke-width="2" stroke-miterlimit="10"/>
<path d="M347.317 307.76C347.394 306.934 347.293 306.101 347.021 305.318C346.748 304.534 346.311 303.818 345.739 303.217C344.55 301.908 337.955 298.263 337.049 300.648C336.066 303.217 342.583 309.175 347.317 307.76Z" fill="#50BFD7" stroke="#263238" stroke-miterlimit="10"/>
<path d="M347.317 307.76L341.182 302.983" stroke="#263238" stroke-width="0.5" stroke-miterlimit="10"/>
<path d="M350.381 416.209L354.918 410.286" stroke="#263238" stroke-width="2" stroke-miterlimit="10"/>
<path d="M353.552 412.062C353.475 411.236 353.577 410.403 353.849 409.62C354.121 408.836 354.558 408.12 355.13 407.519C356.319 406.217 362.914 402.565 363.82 404.957C364.797 407.54 358.279 413.449 353.552 412.062Z" fill="#50BFD7" stroke="#263238" stroke-miterlimit="10"/>
<path d="M353.538 412.062L360.041 407.031" stroke="#263238" stroke-width="0.5" stroke-miterlimit="10"/>
<path d="M350.381 375.207L354.918 369.284" stroke="#263238" stroke-width="2" stroke-miterlimit="10"/>
<path d="M353.552 371.061C353.475 370.235 353.577 369.402 353.849 368.618C354.121 367.834 354.558 367.118 355.13 366.517C356.319 365.215 362.914 361.564 363.82 363.956C364.797 366.496 358.279 372.448 353.552 371.061Z" fill="#50BFD7" stroke="#263238" stroke-miterlimit="10"/>
<path d="M353.538 371.06L360.041 366.029" stroke="#263238" stroke-width="0.5" stroke-miterlimit="10"/>
<path d="M350.381 354.975L354.918 349.045" stroke="#263238" stroke-width="2" stroke-miterlimit="10"/>
<path d="M353.552 350.828C353.475 350.002 353.577 349.17 353.849 348.386C354.121 347.602 354.558 346.886 355.13 346.285C356.319 344.976 362.914 341.332 363.82 343.717C364.797 346.285 358.279 352.208 353.552 350.828Z" fill="#50BFD7" stroke="#263238" stroke-miterlimit="10"/>
<path d="M353.538 350.828L360.041 345.79" stroke="#263238" stroke-width="0.5" stroke-miterlimit="10"/>
<path d="M350.381 328.226L354.918 322.302" stroke="#263238" stroke-width="2" stroke-miterlimit="10"/>
<path d="M353.552 324.079C353.475 323.253 353.577 322.42 353.849 321.636C354.121 320.853 354.558 320.136 355.13 319.536C356.319 318.226 362.914 314.582 363.82 316.967C364.797 319.536 358.279 325.452 353.552 324.079Z" fill="#50BFD7" stroke="#263238" stroke-miterlimit="10"/>
<path d="M353.538 324.079L360.041 319.047" stroke="#263238" stroke-width="0.5" stroke-miterlimit="10"/>
<path d="M350.381 307.194L354.918 301.271" stroke="#263238" stroke-width="2" stroke-miterlimit="10"/>
<path d="M353.552 303.047C353.475 302.221 353.577 301.388 353.849 300.605C354.121 299.821 354.558 299.105 355.13 298.504C356.319 297.202 362.914 293.55 363.82 295.942C364.797 298.504 358.279 304.427 353.552 303.047Z" fill="#50BFD7" stroke="#263238" stroke-miterlimit="10"/>
<path d="M353.538 303.047L360.041 298.016" stroke="#263238" stroke-width="0.5" stroke-miterlimit="10"/>
<path d="M350.106 293.72C350.029 292.894 350.13 292.061 350.402 291.278C350.675 290.494 351.112 289.778 351.684 289.177C352.873 287.875 359.468 284.223 360.374 286.615C361.336 289.177 354.847 295.107 350.106 293.72Z" fill="#50BFD7" stroke="#263238" stroke-miterlimit="10"/>
<path d="M350.106 293.72L356.609 288.689" stroke="#263238" stroke-width="0.5" stroke-miterlimit="10"/>
<path d="M350.424 294.003C349.594 293.991 348.776 293.802 348.026 293.448C347.275 293.094 346.609 292.584 346.072 291.951C344.897 290.635 341.989 283.7 344.43 283.042C347.084 282.334 352.292 289.432 350.424 294.003Z" fill="#50BFD7" stroke="#263238" stroke-miterlimit="10"/>
<path d="M350.424 294.003L346.1 287.011" stroke="#263238" stroke-width="0.5" stroke-miterlimit="10"/>
<path d="M356.015 464.542H341.486L339.668 427.85H357.826L356.015 464.542Z" fill="#263238" stroke="#263238" stroke-miterlimit="10"/>
<path d="M192.027 89.458C189.753 98.8365 194.869 132.94 203.252 145.842C203.252 145.842 227.551 161.615 303.445 152.663C303.445 152.663 291.168 148.741 302.664 103.767C302.905 102.801 303.161 101.835 303.431 100.826C304.994 94.9998 293.555 85.0104 291.495 81.5006C276.646 56.3066 192.027 89.458 192.027 89.458Z" fill="#2C2C2C"/>
<path d="M148.901 223.044C148.901 223.044 144.723 222.135 143.117 220.074C141.497 218.014 140.545 217.104 134.89 214.646C129.277 212.188 127.046 209.005 127.046 209.005C127.046 209.005 123.124 212.6 131.735 216.721C137.007 219.25 119.686 218.881 114.471 218.298C114.471 218.298 111.458 219.946 116.446 222.362C121.433 224.778 116.63 224.962 126.506 229.126C136.368 233.304 148.091 235.492 150.478 229.538C152.851 223.584 148.901 223.044 148.901 223.044Z" fill="#E0E0E0"/>
<path fill-rule="evenodd" clip-rule="evenodd" d="M127.046 209.005L126.662 208.586L127.139 208.148L127.511 208.678L127.511 208.678L127.511 208.679L127.514 208.682C127.517 208.686 127.522 208.693 127.529 208.703C127.544 208.723 127.567 208.754 127.6 208.796C127.666 208.879 127.768 209.005 127.909 209.165C128.19 209.484 128.627 209.942 129.237 210.476C130.457 211.544 132.369 212.921 135.117 214.125C137.948 215.356 139.643 216.216 140.84 217.042C142.056 217.882 142.741 218.676 143.564 219.723L143.565 219.724L143.565 219.725C144.268 220.626 145.587 221.323 146.817 221.802C147.419 222.036 147.973 222.209 148.377 222.323C148.578 222.379 148.742 222.421 148.854 222.449C148.91 222.463 148.953 222.473 148.981 222.48C148.992 222.482 149 222.484 149.006 222.485C149.013 222.486 149.02 222.488 149.028 222.489C149.035 222.49 149.043 222.492 149.051 222.493C149.09 222.501 149.142 222.512 149.206 222.528C149.334 222.561 149.507 222.614 149.706 222.699C150.101 222.87 150.607 223.174 151.026 223.707C151.892 224.81 152.231 226.673 151.006 229.748L151.005 229.749C150.335 231.42 149.01 232.499 147.303 233.108C145.611 233.712 143.526 233.864 141.253 233.698C136.706 233.367 131.246 231.751 126.284 229.649C121.339 227.564 119.945 226.43 119.189 225.431C119.056 225.256 118.941 225.081 118.84 224.928C118.807 224.877 118.775 224.828 118.745 224.783C118.618 224.594 118.493 224.424 118.323 224.246C117.982 223.892 117.414 223.462 116.198 222.873C114.918 222.253 114.091 221.656 113.599 221.075C113.093 220.479 112.927 219.879 113.028 219.323C113.124 218.796 113.44 218.412 113.688 218.179C113.816 218.059 113.938 217.967 114.029 217.905C114.075 217.873 114.114 217.849 114.143 217.831C114.157 217.822 114.169 217.815 114.178 217.81C114.183 217.807 114.187 217.805 114.19 217.803L114.194 217.801L114.196 217.8L114.197 217.8C114.197 217.8 114.197 217.799 114.47 218.298L114.197 217.799L114.355 217.713L114.533 217.733C117.11 218.021 122.716 218.258 127.015 218.108C129.187 218.032 130.943 217.859 131.82 217.575C131.886 217.554 131.943 217.533 131.991 217.514C131.877 217.435 131.714 217.341 131.489 217.233C127.13 215.147 125.712 213.087 125.594 211.356C125.537 210.506 125.803 209.815 126.076 209.345C126.213 209.11 126.353 208.926 126.461 208.799C126.515 208.735 126.562 208.685 126.597 208.65C126.614 208.632 126.629 208.617 126.64 208.607C126.645 208.601 126.65 208.597 126.653 208.594L126.658 208.589L126.66 208.587L126.661 208.586C126.661 208.586 126.662 208.586 127.046 209.005ZM114.612 218.885C114.568 218.918 114.518 218.959 114.467 219.007C114.306 219.159 114.181 219.338 114.147 219.526C114.118 219.683 114.134 219.948 114.466 220.34C114.812 220.749 115.479 221.263 116.693 221.85C117.971 222.469 118.672 222.969 119.143 223.459C119.378 223.703 119.544 223.934 119.688 224.149C119.731 224.212 119.77 224.271 119.807 224.329C119.902 224.472 119.987 224.602 120.096 224.745C120.655 225.484 121.796 226.524 126.727 228.602L126.728 228.602C131.627 230.678 136.959 232.245 141.336 232.564C143.526 232.724 145.435 232.567 146.921 232.037C148.391 231.513 149.426 230.632 149.95 229.327C151.097 226.448 150.648 225.065 150.132 224.409C149.86 224.063 149.527 223.86 149.256 223.743C149.121 223.685 149.004 223.65 148.925 223.63C148.885 223.619 148.856 223.613 148.838 223.61C148.829 223.608 148.823 223.607 148.821 223.607C148.819 223.607 148.819 223.607 148.819 223.607L148.801 223.604L148.78 223.599L148.9 223.044C148.78 223.599 148.779 223.599 148.779 223.599L148.779 223.599L148.775 223.598L148.764 223.596C148.755 223.594 148.742 223.591 148.725 223.587C148.692 223.579 148.643 223.568 148.582 223.553C148.459 223.523 148.284 223.477 148.068 223.417C147.639 223.296 147.048 223.112 146.405 222.861C145.145 222.371 143.573 221.583 142.67 220.425C141.873 219.412 141.272 218.721 140.194 217.977C139.095 217.219 137.487 216.395 134.663 215.167L134.662 215.167C131.797 213.912 129.788 212.469 128.488 211.331C127.841 210.764 127.37 210.272 127.058 209.919C126.865 210.252 126.69 210.717 126.728 211.279C126.803 212.376 127.729 214.173 131.98 216.208L131.981 216.208C132.33 216.376 132.62 216.547 132.834 216.727C133.033 216.895 133.256 217.146 133.287 217.488C133.321 217.872 133.099 218.146 132.895 218.304C132.694 218.46 132.435 218.571 132.17 218.657C131.119 218.997 129.207 219.169 127.055 219.244C122.817 219.392 117.33 219.169 114.612 218.885ZM114.745 218.795C114.746 218.795 114.746 218.795 114.746 218.795L114.745 218.795Z" fill="#2C2C2C"/>
<path d="M266.06 255.91C266.06 255.91 253.385 257.402 250.727 257.402C250.699 257.402 250.67 257.402 250.642 257.402C250.628 257.402 250.614 257.402 250.599 257.402C250.585 257.402 250.571 257.402 250.557 257.402C250.528 257.402 250.5 257.402 250.472 257.402C247.8 257.402 235.139 255.91 235.139 255.91C218.244 261.239 219.452 285.893 219.466 286.589C219.579 291.676 219.651 296.778 219.778 301.865C220.077 313.844 223.132 349.723 223.913 361.134C223.985 362.072 224.027 362.853 224.056 363.436C225.334 389.042 226.599 414.648 227.878 440.254C227.992 442.499 228.105 444.758 228.219 447.003C228.219 447.003 234.159 450.698 245.811 447.003L245.91 363.834L249.15 302.035C249.15 302.035 249.747 301.95 250.457 301.879C250.5 301.879 250.543 301.893 250.599 301.893V301.907C250.614 301.907 250.628 301.907 250.642 301.907C250.656 301.907 250.67 301.907 250.685 301.907V301.893C250.727 301.893 250.77 301.879 250.827 301.879C251.537 301.95 252.134 302.035 252.134 302.035L255.374 363.834L255.473 447.003C267.125 450.698 273.065 447.003 273.065 447.003C273.179 444.758 273.292 442.499 273.406 440.254C274.685 414.648 275.935 389.042 277.228 363.436C277.257 362.853 277.3 362.072 277.371 361.134C278.138 349.737 281.207 313.844 281.506 301.865C281.634 296.778 281.705 291.676 281.818 286.589C281.747 285.893 282.941 261.239 266.06 255.91Z" fill="#2C2C2C"/>
<path d="M217.931 189.097C217.931 189.097 206.109 246.391 200.723 249.545C196.389 252.089 163.167 241.275 150.549 237.026C147.55 236.032 145.717 235.378 145.717 235.378L147.892 220.685L155.011 221.652L190.464 226.469C190.464 226.469 202.414 168.251 210.997 167.541C219.594 166.816 217.931 189.097 217.931 189.097Z" fill="#2C2C2C"/>
<path d="M287.403 167.185C287.403 167.185 329.336 209.516 332.093 230.674C332.093 230.674 325.713 242.639 287.304 265.46L283.879 255.669C283.879 255.669 305.322 231.058 312.768 224.834C312.768 224.834 279.19 197.068 279.971 189.196C280.753 181.295 282.7 167.597 287.403 167.185Z" fill="#2C2C2C"/>
<path d="M304.554 184.961C304.554 194.027 298.614 199.64 289.549 199.64C280.483 199.64 273.136 192.293 273.136 183.227C273.136 174.161 279.985 164.158 288.625 166.872C298.146 169.842 304.554 175.895 304.554 184.961Z" fill="white"/>
<path fill-rule="evenodd" clip-rule="evenodd" d="M278.074 171C275.373 174.187 273.704 178.823 273.704 183.227C273.704 191.979 280.796 199.071 289.548 199.071C293.964 199.071 297.563 197.706 300.055 195.292C302.545 192.879 303.985 189.366 303.985 184.961C303.985 176.241 297.847 170.344 288.455 167.414L288.454 167.414C284.416 166.146 280.767 167.822 278.074 171ZM288.794 166.329C284.193 164.884 280.098 166.852 277.207 170.265C274.324 173.667 272.568 178.566 272.568 183.227C272.568 192.607 280.169 200.208 289.548 200.208C294.199 200.208 298.102 198.766 300.846 196.108C303.592 193.448 305.122 189.621 305.122 184.961C305.122 175.549 298.444 169.339 288.794 166.329Z" fill="#2C2C2C"/>
<path d="M297.18 182.319C297.18 189.026 292.789 193.175 286.082 193.175C279.375 193.175 273.947 187.747 273.947 181.04C273.947 174.333 279.006 166.93 285.414 168.933C292.434 171.15 297.18 175.626 297.18 182.319Z" fill="#2C2C2C"/>
<path d="M194.429 184.96C194.429 194.026 200.368 199.639 209.434 199.639C218.5 199.639 225.832 192.278 225.832 183.227C225.832 174.175 218.983 164.157 210.344 166.871C200.837 169.841 194.429 175.894 194.429 184.96Z" fill="white"/>
<path fill-rule="evenodd" clip-rule="evenodd" d="M221.762 170.271C224.645 173.675 226.401 178.574 226.401 183.228C226.401 192.593 218.815 200.209 209.434 200.209C204.784 200.209 200.88 198.767 198.136 196.109C195.39 193.448 193.86 189.622 193.86 184.962C193.86 175.55 200.539 169.34 210.174 166.33C214.775 164.885 218.87 166.857 221.762 170.271ZM220.894 171.006C218.201 167.826 214.552 166.146 210.514 167.415L210.513 167.415C201.136 170.345 194.997 176.242 194.997 184.962C194.997 189.367 196.437 192.88 198.927 195.292C201.42 197.707 205.019 199.072 209.434 199.072C218.185 199.072 225.264 191.967 225.264 183.228C225.264 178.831 223.596 174.195 220.894 171.006Z" fill="#2C2C2C"/>
<path d="M201.818 182.319C201.818 189.026 206.209 193.175 212.916 193.175C219.623 193.175 225.051 187.747 225.051 181.04C225.051 174.333 219.992 166.93 213.598 168.933C206.55 171.15 201.818 175.626 201.818 182.319Z" fill="#2C2C2C"/>
<path d="M270.153 257.701C259.893 256.763 249.762 256.379 249.762 256.379C246.039 256.493 238.11 256.82 229.925 257.701C232.312 265.857 240.411 271.868 250.031 271.868C259.666 271.882 267.765 265.843 270.153 257.701Z" fill="#50BFD7"/>
<path d="M269.314 258.554C270.195 255.087 287.829 166.73 287.829 166.73C287.829 166.73 240.767 152.833 210.67 166.73L229.967 259.321L269.314 258.554Z" fill="white"/>
<path fill-rule="evenodd" clip-rule="evenodd" d="M287.99 166.185C287.99 166.185 287.991 166.185 287.83 166.73C288.387 166.842 288.387 166.842 288.387 166.843L288.386 166.846L288.189 167.835C288.059 168.483 287.87 169.434 287.628 170.645C287.144 173.068 286.451 176.533 285.618 180.702C283.951 189.039 281.719 200.192 279.46 211.454C274.944 233.96 270.31 256.942 269.865 258.694L269.759 259.114L229.507 259.899L210.022 166.404L210.432 166.214C225.626 159.198 245.046 159.214 260.599 160.954C268.388 161.825 275.232 163.132 280.129 164.221C282.578 164.766 284.541 165.256 285.893 165.611C286.569 165.788 287.092 165.931 287.447 166.03C287.624 166.08 287.76 166.118 287.851 166.145C287.896 166.158 287.931 166.168 287.954 166.175L287.981 166.182L287.988 166.184L287.99 166.185ZM287.83 166.73L288.387 166.842L288.489 166.332L287.991 166.185L287.83 166.73ZM287.17 167.133C287.16 167.13 287.151 167.128 287.141 167.125C286.792 167.027 286.274 166.886 285.604 166.71C284.265 166.359 282.316 165.872 279.882 165.331C275.015 164.248 268.212 162.95 260.473 162.084C245.114 160.365 226.162 160.365 211.32 167.059L230.428 258.744L268.861 257.994C269.666 254.383 274.052 232.63 278.345 211.23C280.604 199.969 282.836 188.816 284.503 180.479C285.337 176.31 286.029 172.845 286.513 170.422C286.755 169.211 286.945 168.26 287.074 167.612L287.17 167.133Z" fill="black"/>
<path d="M269.314 258.554C270.195 255.087 287.829 166.73 287.829 166.73C287.829 166.73 240.767 152.833 210.67 166.73L229.967 259.321L269.314 258.554Z" fill="white"/>
<path fill-rule="evenodd" clip-rule="evenodd" d="M287.99 166.185C287.99 166.185 287.991 166.185 287.83 166.73C288.387 166.842 288.387 166.842 288.387 166.843L288.386 166.846L288.189 167.835C288.059 168.483 287.87 169.434 287.628 170.645C287.144 173.068 286.451 176.533 285.618 180.702C283.951 189.039 281.719 200.192 279.46 211.454C274.944 233.96 270.31 256.942 269.865 258.694L269.759 259.114L229.507 259.899L210.022 166.404L210.432 166.214C225.626 159.198 245.046 159.214 260.599 160.954C268.388 161.825 275.232 163.132 280.129 164.221C282.578 164.766 284.541 165.256 285.893 165.611C286.569 165.788 287.092 165.931 287.447 166.03C287.624 166.08 287.76 166.118 287.851 166.145C287.896 166.158 287.931 166.168 287.954 166.175L287.981 166.182L287.988 166.184L287.99 166.185ZM287.83 166.73L288.387 166.842L288.489 166.332L287.991 166.185L287.83 166.73ZM287.17 167.133C287.16 167.13 287.151 167.128 287.141 167.125C286.792 167.027 286.274 166.886 285.604 166.71C284.265 166.359 282.316 165.872 279.882 165.331C275.015 164.248 268.212 162.95 260.473 162.084C245.114 160.365 226.162 160.365 211.32 167.059L230.428 258.744L268.861 257.994C269.666 254.383 274.052 232.63 278.345 211.23C280.604 199.969 282.836 188.816 284.503 180.479C285.337 176.31 286.029 172.845 286.513 170.422C286.755 169.211 286.945 168.26 287.074 167.612L287.17 167.133Z" fill="#2C2C2C"/>
<path d="M276.405 164.015C263.261 161.372 241.037 158.36 221.939 162.907C224.199 177.159 226.458 191.426 228.717 205.678C230.536 215.341 239.701 221.778 249.265 221.835C258.828 221.778 267.993 215.355 269.812 205.678C272 191.781 274.203 177.898 276.405 164.015Z" fill="#50BFD7"/>
<path fill-rule="evenodd" clip-rule="evenodd" d="M221.807 162.354C241.03 157.777 263.355 160.812 276.517 163.458L277.052 163.566L276.965 164.113C274.763 177.993 272.561 191.873 270.373 205.767L270.372 205.775L270.37 205.784C268.493 215.771 259.057 222.345 249.268 222.403L249.264 222.403L249.261 222.403C239.471 222.345 230.036 215.756 228.158 205.784L228.157 205.776L228.156 205.768C227.026 198.642 225.897 191.513 224.767 184.384L224.767 184.382C223.637 177.252 222.507 170.122 221.378 162.996L221.295 162.476L221.807 162.354ZM222.583 163.34C223.685 170.292 224.787 177.247 225.889 184.202L225.889 184.204C227.019 191.331 228.148 198.458 229.277 205.581C231.041 214.929 239.932 221.21 249.264 221.267C258.597 221.21 267.488 214.943 269.252 205.582C271.411 191.867 273.585 178.166 275.758 164.466C262.692 161.878 241.184 159.055 222.583 163.34Z" fill="#2C2C2C"/>
<path d="M247.63 169.06C252.121 169.06 259.098 167.695 259.098 163.219L257.947 148.271L256.938 135.198C256.938 130.707 253.3 127.084 248.824 127.084C246.579 127.084 244.561 127.993 243.083 129.457C241.62 130.921 240.696 132.953 240.696 135.198L239.701 148.285L238.749 160.832C237.47 168.406 247.63 169.06 247.63 169.06Z" fill="#2C2C2C"/>
<path d="M273.889 50.9064C267.168 42.6363 257.776 37.6487 245.726 37.6487C218.429 37.6487 191.743 62.8142 191.743 94.2035C191.743 125.593 213.867 151.043 241.164 151.043C243.793 151.043 246.337 150.815 248.781 150.361C249.037 151.739 249.179 153.16 249.179 154.609C249.179 154.879 249.164 155.135 249.164 155.391C324.419 137.174 312.1 46.2598 273.889 50.9064Z" fill="#2C2C2C"/>
<path d="M215.203 125.906C220.265 125.906 224.368 121.802 224.368 116.74C224.368 111.679 220.265 107.575 215.203 107.575C210.141 107.575 206.038 111.679 206.038 116.74C206.038 121.802 210.141 125.906 215.203 125.906Z" fill="#E0E0E0"/>
<path fill-rule="evenodd" clip-rule="evenodd" d="M215.203 108.144C210.455 108.144 206.606 111.993 206.606 116.741C206.606 121.489 210.455 125.338 215.203 125.338C219.951 125.338 223.8 121.489 223.8 116.741C223.8 111.993 219.951 108.144 215.203 108.144ZM205.47 116.741C205.47 111.365 209.828 107.007 215.203 107.007C220.579 107.007 224.937 111.365 224.937 116.741C224.937 122.117 220.579 126.474 215.203 126.474C209.828 126.474 205.47 122.117 205.47 116.741Z" fill="#2C2C2C"/>
<path d="M279.744 125.906C284.806 125.906 288.91 121.802 288.91 116.74C288.91 111.679 284.806 107.575 279.744 107.575C274.683 107.575 270.579 111.679 270.579 116.74C270.579 121.802 274.683 125.906 279.744 125.906Z" fill="#E0E0E0"/>
<path fill-rule="evenodd" clip-rule="evenodd" d="M279.744 108.144C274.996 108.144 271.147 111.993 271.147 116.741C271.147 121.489 274.996 125.338 279.744 125.338C284.492 125.338 288.341 121.489 288.341 116.741C288.341 111.993 284.492 108.144 279.744 108.144ZM270.01 116.741C270.01 111.365 274.368 107.007 279.744 107.007C285.12 107.007 289.478 111.365 289.478 116.741C289.478 122.117 285.12 126.474 279.744 126.474C274.368 126.474 270.01 122.117 270.01 116.741Z" fill="#2C2C2C"/>
<path d="M248.34 154.979C268.015 154.979 283.964 132.4 283.964 104.548C283.964 76.6962 268.015 54.1177 248.34 54.1177C228.666 54.1177 212.716 76.6962 212.716 104.548C212.716 132.4 228.666 154.979 248.34 154.979Z" fill="#E0E0E0"/>
<path fill-rule="evenodd" clip-rule="evenodd" d="M223.615 69.2166C217.244 78.236 213.285 90.7258 213.285 104.548C213.285 118.371 217.244 130.861 223.615 139.88C229.987 148.901 238.738 154.41 248.341 154.41C257.944 154.41 266.694 148.901 273.066 139.88C279.438 130.861 283.396 118.371 283.396 104.548C283.396 90.7258 279.438 78.236 273.066 69.2166C266.694 60.1958 257.944 54.6863 248.341 54.6863C238.738 54.6863 229.987 60.1958 223.615 69.2166ZM222.687 68.5607C229.208 59.3293 238.27 53.5496 248.341 53.5496C258.412 53.5496 267.474 59.3293 273.995 68.5607C280.517 77.7936 284.533 90.519 284.533 104.548C284.533 118.578 280.517 131.303 273.995 140.536C267.474 149.767 258.412 155.547 248.341 155.547C238.27 155.547 229.208 149.767 222.687 140.536C216.165 131.303 212.149 118.578 212.149 104.548C212.149 90.519 216.165 77.7936 222.687 68.5607Z" fill="#2C2C2C"/>
<path d="M207.516 93.3661C207.516 93.3661 237.84 94.844 247.943 76.5986C247.943 76.5986 269.883 95.5829 290.828 94.105L288.853 85.7213L280.725 69.6927L275.794 63.7814L265.691 53.1809L252.135 47.5112L235.864 49.728L214.166 64.5203L211.452 74.3819L207.516 93.3661Z" fill="#2C2C2C"/>
<path d="M249.221 124.258C249.235 124.343 249.05 124.499 248.638 124.499C248.241 124.514 247.629 124.329 247.09 123.817C246.82 123.562 246.578 123.249 246.393 122.851C246.365 122.794 246.351 122.737 246.322 122.681L246.294 122.595L246.265 122.524L246.223 122.396C246.209 122.34 246.194 122.269 246.166 122.212C246.109 121.999 246.066 121.771 246.052 121.53C245.967 120.592 246.152 119.64 246.379 118.73C247.26 115.093 248.297 112.236 248.681 112.322C249.065 112.421 248.667 115.434 247.786 119.071C247.558 119.967 247.388 120.776 247.388 121.459C247.388 121.629 247.402 121.8 247.416 121.956L247.431 122.013V122.041V122.055V122.07C247.431 122.07 247.416 122.027 247.431 122.041L247.459 122.183L247.473 122.254L247.487 122.297L247.516 122.382C247.601 122.652 247.729 122.908 247.871 123.107C248.155 123.519 248.496 123.775 248.766 123.917C249.008 124.102 249.207 124.158 249.221 124.258Z" fill="#2C2C2C"/>
<path d="M209.832 110.332C209.434 108.755 209.136 107.149 208.894 105.529C208.667 103.909 208.511 102.289 208.425 100.655C208.283 97.3871 208.411 94.0905 208.852 90.8364C209.292 87.5682 210.045 84.3426 211.111 81.2164C211.168 81.0175 211.239 80.8185 211.31 80.6338L211.523 80.0512L211.949 78.886L212.432 77.735L212.674 77.1666C212.759 76.9819 212.83 76.783 212.93 76.5982C213.626 75.092 214.379 73.6 215.232 72.179C216.923 69.3086 218.898 66.6088 221.171 64.1505C223.459 61.7064 226.031 59.5181 228.845 57.685C229.186 57.4435 229.555 57.2303 229.91 57.0172C230.266 56.804 230.635 56.5767 230.99 56.3777L232.113 55.7809L232.667 55.4825C232.852 55.3831 233.051 55.2978 233.236 55.2125L234.387 54.6868C234.486 54.6442 234.571 54.6015 234.671 54.5589L234.969 54.4452L235.552 54.2179L236.134 53.9905C236.333 53.9195 236.518 53.8342 236.731 53.7632L237.939 53.3653C241.15 52.328 244.532 51.8022 247.914 51.7312C249.605 51.6743 251.296 51.8022 252.973 51.9869C253.399 52.0438 253.811 52.1148 254.223 52.1717L254.849 52.2711C254.948 52.2853 255.062 52.2995 255.161 52.328L255.474 52.399L256.71 52.669C257.122 52.7543 257.534 52.8679 257.932 52.9816C261.186 53.891 264.327 55.2125 267.197 56.9746L268.263 57.6424C268.447 57.7561 268.618 57.8698 268.788 57.9977L269.3 58.3529L269.812 58.7081C269.982 58.8218 270.153 58.9497 270.323 59.0776L271.318 59.8449L271.815 60.2286L272.298 60.6407L273.25 61.4648C273.563 61.7348 273.861 62.0332 274.16 62.3316L274.614 62.7721C274.771 62.9142 274.913 63.0563 275.055 63.2126L275.922 64.1221L276.348 64.5768L276.76 65.0457L277.584 65.9978C277.726 66.1541 277.854 66.3246 277.982 66.4809L278.366 66.9782C278.622 67.3051 278.877 67.6319 279.133 67.9729L279.858 68.996C280.355 69.6639 280.781 70.3886 281.236 71.0849C282.998 73.9126 284.433 76.9251 285.57 80.0228C286.707 83.1347 287.517 86.3461 288.028 89.6002L288.128 90.2112L288.171 90.5096L288.199 90.8222L288.341 92.0443C288.455 92.8542 288.483 93.6784 288.554 94.5025C288.654 96.1367 288.682 97.785 288.639 99.4191L288.625 100.03L288.597 100.641C288.568 101.053 288.554 101.451 288.512 101.863C288.455 102.673 288.369 103.497 288.27 104.307C288.057 105.927 287.787 107.533 287.432 109.124C287.631 107.504 287.787 105.899 287.844 104.279C287.915 102.659 287.929 101.039 287.858 99.4333C287.787 97.8276 287.673 96.2077 287.474 94.6162C287.361 93.8205 287.275 93.0247 287.119 92.229L286.906 91.0496L286.849 90.7512L286.778 90.4528L286.65 89.8702C285.982 86.7298 285.03 83.6605 283.822 80.7191L283.595 80.1649L283.353 79.6249L282.856 78.5308C282.7 78.1613 282.515 77.8203 282.33 77.465L281.79 76.3993C281.606 76.0441 281.407 75.703 281.208 75.362C281.009 75.021 280.824 74.6657 280.611 74.3247L279.986 73.3158C279.773 72.9748 279.574 72.6337 279.346 72.3211C278.892 71.6675 278.465 70.9996 277.982 70.3744L277.272 69.4223C277.03 69.1097 276.774 68.8113 276.519 68.4987L276.135 68.044C276.007 67.8877 275.879 67.7313 275.751 67.5893L274.955 66.7082L274.558 66.2677L274.146 65.8414L273.307 65.0031C271.048 62.8148 268.533 60.8965 265.819 59.305C263.119 57.7135 260.206 56.5056 257.193 55.6957C256.44 55.4683 255.673 55.3404 254.92 55.1699L254.635 55.1131C254.536 55.0989 254.437 55.0847 254.351 55.0704L253.769 54.9852C253.385 54.9284 253.001 54.8573 252.618 54.8147C251.069 54.6584 249.506 54.5447 247.957 54.5873C244.845 54.6442 241.733 55.1131 238.763 56.0651L237.655 56.4204C237.47 56.4772 237.285 56.5483 237.101 56.6193L236.561 56.8325L236.021 57.0456L235.751 57.1451C235.665 57.1735 235.566 57.2303 235.481 57.2588L234.415 57.7419C234.244 57.8271 234.06 57.8982 233.875 57.9835L233.349 58.2534L232.312 58.7934C231.971 58.9923 231.63 59.1913 231.289 59.376C230.948 59.5749 230.607 59.7597 230.28 59.987C227.623 61.6638 225.179 63.6674 222.962 65.9125L222.152 66.7793L221.754 67.2198C221.683 67.2908 221.612 67.3619 221.555 67.4329L221.37 67.6603L220.603 68.5697C220.475 68.726 220.347 68.8681 220.219 69.0244L219.85 69.4934L219.125 70.4312C218.997 70.5875 218.898 70.7438 218.77 70.9143L218.429 71.3975C218.202 71.7243 217.974 72.0369 217.747 72.3779L217.107 73.3868C215.417 76.0725 213.967 78.9286 212.83 81.8985C211.679 84.8683 210.798 87.9661 210.202 91.1206L209.974 92.3C209.903 92.6979 209.861 93.0958 209.789 93.4937L209.619 94.6873C209.576 95.0851 209.534 95.483 209.491 95.8809L209.363 97.0887L209.292 98.2966L209.221 99.5044C209.207 99.9023 209.193 100.314 209.178 100.712C209.15 102.332 209.178 103.938 209.292 105.558C209.42 107.107 209.605 108.712 209.832 110.332Z" fill="#50BFD7"/>
<path d="M239.075 107.22C239.075 111.27 235.565 114.552 231.246 114.552C226.912 114.552 223.416 111.27 223.416 107.22C223.416 103.17 226.926 99.8879 231.246 99.8879C235.565 99.8879 239.075 103.17 239.075 107.22Z" fill="white"/>
<path fill-rule="evenodd" clip-rule="evenodd" d="M231.246 100.456C227.205 100.456 223.985 103.519 223.985 107.22C223.985 110.922 227.191 113.984 231.246 113.984C235.288 113.984 238.508 110.921 238.508 107.22C238.508 103.519 235.288 100.456 231.246 100.456ZM222.848 107.22C222.848 102.822 226.649 99.3196 231.246 99.3196C235.844 99.3196 239.644 102.822 239.644 107.22C239.644 111.619 235.844 115.121 231.246 115.121C226.634 115.121 222.848 111.618 222.848 107.22Z" fill="#2C2C2C"/>
<path d="M227.41 106.765C227.41 110.104 229.584 112.818 232.255 112.818C234.927 112.818 237.101 110.104 237.101 106.765C237.101 103.426 234.927 100.711 232.255 100.711C229.57 100.697 227.41 103.411 227.41 106.765Z" fill="#50BFD7"/>
<path d="M228.802 106.764C228.802 109.137 230.337 111.055 232.241 111.055C234.145 111.055 235.68 109.137 235.68 106.764C235.68 104.391 234.145 102.458 232.241 102.458C230.351 102.458 228.802 104.377 228.802 106.764Z" fill="#2C2C2C"/>
<path d="M228.589 102.686C228.589 103.339 229.385 103.851 230.365 103.851C231.346 103.851 232.142 103.325 232.142 102.686C232.142 102.032 231.346 101.521 230.365 101.521C229.385 101.506 228.589 102.032 228.589 102.686Z" fill="white"/>
<path d="M231.758 98.8213C226.912 98.3382 223.189 102.715 223.189 107.233C223.189 107.702 223.772 107.788 224.014 107.461C225.989 104.747 226.628 102.075 230.237 101.038C235.566 99.5034 238.493 104.974 238.792 109.265C238.834 109.678 239.19 109.308 239.232 108.882C239.715 103.752 237.158 99.3613 231.758 98.8213Z" fill="#2C2C2C"/>
<path d="M241.321 96.0076C241.321 96.0076 230.749 85.464 219.381 97.9828C219.367 97.9828 229.2 91.6878 241.321 96.0076Z" fill="#2C2C2C"/>
<path d="M273.137 107.22C273.137 111.27 269.627 114.552 265.307 114.552C260.973 114.552 257.477 111.27 257.477 107.22C257.477 103.17 260.987 99.8879 265.307 99.8879C269.627 99.8879 273.137 103.17 273.137 107.22Z" fill="white"/>
<path fill-rule="evenodd" clip-rule="evenodd" d="M265.307 100.456C261.265 100.456 258.045 103.519 258.045 107.22C258.045 110.922 261.251 113.984 265.307 113.984C269.348 113.984 272.568 110.921 272.568 107.22C272.568 103.519 269.348 100.456 265.307 100.456ZM256.909 107.22C256.909 102.822 260.709 99.3196 265.307 99.3196C269.904 99.3196 273.705 102.822 273.705 107.22C273.705 111.619 269.904 115.121 265.307 115.121C260.694 115.121 256.909 111.618 256.909 107.22Z" fill="#2C2C2C"/>
<path d="M261.47 106.765C261.47 110.104 263.645 112.818 266.316 112.818C268.987 112.818 271.162 110.104 271.162 106.765C271.162 103.426 268.987 100.711 266.316 100.711C263.645 100.697 261.47 103.411 261.47 106.765Z" fill="#50BFD7"/>
<path d="M262.877 106.764C262.877 109.137 264.411 111.055 266.315 111.055C268.22 111.055 269.754 109.137 269.754 106.764C269.754 104.391 268.22 102.458 266.315 102.458C264.411 102.458 262.877 104.377 262.877 106.764Z" fill="#2C2C2C"/>
<path d="M262.649 102.686C262.649 103.339 263.445 103.851 264.426 103.851C265.406 103.851 266.202 103.325 266.202 102.686C266.202 102.032 265.406 101.521 264.426 101.521C263.459 101.506 262.649 102.032 262.649 102.686Z" fill="white"/>
<path d="M265.819 98.8213C260.973 98.3382 257.25 102.715 257.25 107.233C257.25 107.702 257.833 107.788 258.074 107.461C260.049 104.747 260.689 102.075 264.298 101.038C269.627 99.5034 272.554 104.974 272.852 109.265C272.895 109.678 273.25 109.308 273.293 108.882C273.776 103.752 271.233 99.3613 265.819 98.8213Z" fill="#2C2C2C"/>
<path d="M275.382 94.8577C275.382 94.8577 264.81 84.3141 253.442 96.8329C253.442 96.8329 263.275 90.5379 275.382 94.8577Z" fill="#2C2C2C"/>
<path d="M236.774 132.314C237.129 135.071 238.465 137.615 240.554 139.462C242.643 141.309 245.328 142.318 248.114 142.318C250.899 142.318 253.584 141.309 255.673 139.462C257.762 137.615 259.112 135.085 259.453 132.314H236.774Z" fill="white"/>
<path fill-rule="evenodd" clip-rule="evenodd" d="M236.127 131.746H260.095L260.017 132.384C259.658 135.295 258.24 137.95 256.049 139.888C253.856 141.828 251.036 142.887 248.113 142.887C245.19 142.887 242.37 141.828 240.177 139.888C237.984 137.948 236.583 135.279 236.21 132.387L236.127 131.746ZM237.439 132.883C237.888 135.256 239.108 137.425 240.93 139.036C242.914 140.791 245.466 141.75 248.113 141.75C250.761 141.75 253.312 140.791 255.296 139.036C257.121 137.422 258.351 135.263 258.79 132.883H237.439Z" fill="#2C2C2C"/>
<path d="M259.012 263.854C259.012 264.209 259.325 264.621 259.694 264.579C263.886 264.138 267.097 260.898 271.233 261.58C267.083 263.641 263.488 267.222 264 272.493C264.057 273.147 264.682 273.403 265.165 273.005C268.135 270.476 271.545 268.216 275.524 269.055C277.229 269.41 279.233 270.078 280.995 269.85C283.623 269.524 285.84 268.33 287.147 265.786C289.449 261.381 288.597 256.095 283.439 255.001C283.311 254.973 283.211 254.987 283.098 255.03C281.194 254.277 279.46 253.324 277.925 251.662C276.447 250.042 275.069 248.252 273.463 246.76C271.318 244.756 268.987 243.179 266.145 244.529C265.719 244.728 265.748 245.339 266.018 245.665C267.268 247.214 268.732 248.692 270.266 250.113C268.732 249.758 267.183 249.573 265.591 249.701C262.749 249.943 259.396 251.832 259.467 255.214C259.481 255.641 259.779 255.896 260.149 255.939C262.763 256.209 265.392 256.166 267.993 256.436C263.943 257.63 258.969 258.994 259.012 263.854Z" fill="#E0E0E0"/>
<path fill-rule="evenodd" clip-rule="evenodd" d="M270.274 243.858C271.584 244.375 272.767 245.332 273.85 246.344C274.937 247.353 275.939 248.517 276.912 249.647C277.395 250.206 277.869 250.758 278.344 251.278C279.755 252.806 281.347 253.71 283.135 254.433C283.264 254.411 283.404 254.412 283.559 254.446C286.342 255.037 288.009 256.786 288.637 258.997C289.255 261.176 288.853 263.748 287.652 266.048C286.24 268.793 283.836 270.07 281.066 270.414C280.095 270.539 279.083 270.416 278.128 270.229C277.648 270.135 277.173 270.023 276.717 269.914C276.669 269.902 276.621 269.891 276.573 269.879C276.167 269.782 275.78 269.689 275.407 269.611L275.406 269.611C271.718 268.834 268.501 270.91 265.533 273.438L265.529 273.441L265.526 273.444C265.139 273.762 264.639 273.855 264.198 273.666C263.757 273.477 263.478 273.051 263.433 272.546C262.97 267.765 265.692 264.334 269.126 262.121C267.984 262.276 266.871 262.689 265.706 263.182C265.446 263.292 265.184 263.406 264.918 263.521C263.341 264.206 261.64 264.945 259.756 265.144C259.331 265.191 258.991 264.973 258.786 264.74C258.583 264.507 258.444 264.187 258.443 263.857C258.421 261.18 259.802 259.461 261.665 258.289C262.647 257.671 263.778 257.195 264.926 256.795C264.635 256.781 264.344 256.768 264.051 256.756L264.039 256.755C262.737 256.699 261.413 256.641 260.09 256.504L260.087 256.504L260.083 256.504C259.476 256.434 258.923 255.981 258.898 255.233L258.898 255.23L258.898 255.226C258.858 253.32 259.792 251.843 261.086 250.832C262.37 249.83 264.027 249.263 265.543 249.135L265.544 249.135L265.545 249.134C266.549 249.054 267.533 249.092 268.501 249.216C267.458 248.188 266.466 247.126 265.577 246.025C265.348 245.746 265.232 245.371 265.252 245.017C265.273 244.65 265.453 244.226 265.903 244.015C267.478 243.267 268.935 243.33 270.274 243.858ZM266.394 245.039C266.392 245.047 266.389 245.061 266.387 245.081C266.385 245.117 266.39 245.16 266.405 245.205C266.419 245.25 266.439 245.283 266.455 245.303L266.457 245.306L266.459 245.308C267.686 246.828 269.128 248.285 270.652 249.696L272.221 251.149L270.138 250.667C268.643 250.321 267.155 250.146 265.638 250.267C264.311 250.38 262.872 250.88 261.786 251.728C260.712 252.567 260.005 253.725 260.035 255.198C260.038 255.273 260.061 255.304 260.076 255.319C260.096 255.339 260.138 255.365 260.211 255.374C261.497 255.507 262.79 255.563 264.1 255.62L264.105 255.62C265.41 255.677 266.732 255.734 268.051 255.871L270.913 256.168L268.153 256.982C268.082 257.003 268.011 257.023 267.94 257.044C265.954 257.629 263.876 258.241 262.27 259.251C260.644 260.275 259.561 261.667 259.58 263.849L259.58 263.851V263.854C259.58 263.861 259.582 263.882 259.594 263.912C259.606 263.942 259.623 263.97 259.642 263.991C259.65 264 259.656 264.006 259.661 264.01C261.348 263.828 262.862 263.172 264.439 262.489C264.711 262.371 264.985 262.252 265.263 262.135C267.116 261.351 269.085 260.65 271.325 261.02L273.062 261.306L271.485 262.089C267.425 264.106 264.087 267.513 264.565 272.439L264.565 272.441L264.566 272.444C264.572 272.521 264.593 272.565 264.608 272.587C264.623 272.609 264.637 272.617 264.646 272.621C264.655 272.625 264.669 272.628 264.691 272.625C264.713 272.621 264.751 272.608 264.8 272.569C267.771 270.039 271.373 267.6 275.64 268.498C276.03 268.58 276.434 268.677 276.838 268.774C276.886 268.785 276.934 268.797 276.982 268.808C277.437 268.917 277.892 269.024 278.347 269.113C279.26 269.292 280.131 269.389 280.921 269.287L280.923 269.287L280.924 269.286C283.41 268.977 285.438 267.867 286.641 265.527L286.642 265.525L286.643 265.523C287.743 263.419 288.065 261.146 287.543 259.307C287.031 257.502 285.694 256.061 283.32 255.557L283.318 255.557L283.315 255.556C283.315 255.556 283.314 255.556 283.314 255.556C283.31 255.557 283.305 255.559 283.297 255.562L283.092 255.639L282.888 255.558C280.938 254.787 279.12 253.795 277.507 252.048L277.506 252.046L277.505 252.045C276.983 251.472 276.484 250.894 275.991 250.321C275.046 249.222 274.119 248.145 273.076 247.176L273.075 247.175C272.013 246.183 270.959 245.35 269.856 244.915C268.785 244.492 267.658 244.441 266.394 245.039Z" fill="#2C2C2C"/>
<path d="M221.2 463.047C221.2 463.047 222.038 465.704 222.28 466.116C222.536 466.528 229.058 468.773 237.015 468.603C245.285 468.432 249.065 466.031 249.179 463.032H221.2V463.047Z" fill="#50BFD7"/>
<path fill-rule="evenodd" clip-rule="evenodd" d="M220.632 462.464H249.769L249.747 463.054C249.68 464.829 248.519 466.332 246.41 467.387C244.311 468.436 241.204 469.085 237.027 469.171M220.632 462.464V463.033V462.464ZM221.2 463.047L220.658 463.218L220.632 463.134V463.033M221.2 463.047C220.658 463.218 220.658 463.218 220.658 463.218L220.668 463.249C220.674 463.268 220.683 463.297 220.695 463.334C220.718 463.408 220.752 463.514 220.794 463.643C220.877 463.9 220.99 464.247 221.11 464.608C221.231 464.968 221.36 465.344 221.476 465.658C221.583 465.951 221.698 466.247 221.79 466.404L221.793 466.41L221.797 466.416C221.854 466.508 221.924 466.569 221.964 466.601C222.01 466.639 222.058 466.671 222.103 466.699C222.194 466.754 222.303 466.81 222.423 466.865C222.664 466.976 222.99 467.104 223.386 467.24C224.181 467.514 225.29 467.833 226.636 468.133C229.328 468.732 232.994 469.258 237.027 469.171M221.975 463.601H248.529C248.282 464.615 247.476 465.583 245.902 466.37C244.015 467.313 241.097 467.95 237.004 468.035L237.003 468.035C233.079 468.119 229.505 467.607 226.883 467.023C225.572 466.731 224.505 466.423 223.756 466.165C223.381 466.036 223.093 465.922 222.898 465.832C222.825 465.799 222.771 465.771 222.732 465.75C222.72 465.722 222.706 465.689 222.69 465.65C222.648 465.547 222.598 465.417 222.543 465.267C222.433 464.967 222.308 464.602 222.188 464.247C222.112 464.02 222.039 463.798 221.975 463.601Z" fill="#2C2C2C"/>
<path d="M221.214 463.616C222.465 464.739 224.099 465.591 225.293 465.975C228.262 466.955 231.517 467.325 234.628 467.495C237.939 467.666 241.577 467.609 244.675 466.302C246.352 465.591 247.773 464.554 249.094 463.374C249.691 461.911 249.847 460.248 249.805 458.543C249.705 455.474 249.009 452.504 248.469 449.491C248.384 449.051 248.312 448.625 248.241 448.198C248.085 446.237 247.943 444.262 247.815 442.316C247.773 441.591 247.687 440.951 247.701 440.227C247.716 439.744 247.886 438.962 247.758 438.507C247.744 438.45 247.716 438.408 247.701 438.365C247.701 438.294 247.716 438.223 247.701 438.152C247.147 437.697 246.565 437.271 245.897 437.086C245.414 437.172 244.931 437.328 244.618 437.456C244.121 437.655 243.68 437.911 243.282 438.209C242.302 436.873 239.886 436.248 238.522 436.191C236.39 436.106 233.549 436.475 231.858 438.038C231.573 437.768 231.133 437.626 230.749 437.555C230.664 437.541 230.564 437.527 230.479 437.513C229.485 437.896 229.74 440.34 229.641 441.037C229.499 441.96 229.357 442.884 229.129 443.779C228.675 445.499 228.021 447.076 227.026 448.554C225.961 450.145 224.568 451.523 223.346 452.987C223.175 453.285 222.991 453.584 222.82 453.868C221.513 455.971 220.447 459.026 220.731 461.527C220.802 462.323 220.973 463.005 221.214 463.616Z" fill="#50BFD7"/>
<path fill-rule="evenodd" clip-rule="evenodd" d="M234.895 435.942C236.144 435.651 237.44 435.578 238.544 435.622L238.545 435.622C239.288 435.653 240.291 435.836 241.242 436.186C242.007 436.468 242.793 436.878 243.376 437.453C243.693 437.253 244.034 437.076 244.404 436.928C244.748 436.787 245.27 436.619 245.798 436.525L245.924 436.503L246.048 436.537C246.841 436.757 247.503 437.253 248.062 437.711L248.219 437.84L248.258 438.039C248.276 438.129 248.277 438.208 248.275 438.261C248.286 438.289 248.297 438.322 248.307 438.359C248.4 438.698 248.377 439.101 248.349 439.407C248.336 439.55 248.322 439.676 248.309 439.789C248.289 439.962 248.273 440.106 248.269 440.24C248.26 440.705 248.293 441.113 248.33 441.565C248.348 441.789 248.367 442.023 248.382 442.279C248.509 444.215 248.65 446.178 248.806 448.128C248.875 448.547 248.944 448.958 249.026 449.382L249.027 449.386L249.028 449.39C249.139 450.011 249.258 450.634 249.378 451.261C249.831 453.635 250.292 456.052 250.372 458.523L250.372 458.526L250.372 458.528C250.416 460.269 250.259 462.021 249.62 463.588L249.57 463.71L249.472 463.797C248.124 465 246.65 466.08 244.896 466.824L244.895 466.824C241.67 468.185 237.919 468.233 234.599 468.062L234.597 468.062C231.469 467.89 228.157 467.517 225.116 466.514C223.853 466.108 222.149 465.218 220.834 464.038L220.735 463.948L220.685 463.824C220.424 463.163 220.242 462.43 220.165 461.583C219.864 458.911 220.992 455.732 222.335 453.571C222.385 453.487 222.435 453.405 222.485 453.322C222.61 453.116 222.733 452.911 222.852 452.704L222.877 452.66L222.909 452.622C223.329 452.119 223.755 451.64 224.175 451.168C225.026 450.211 225.853 449.282 226.554 448.236L226.554 448.235C227.506 446.82 228.137 445.305 228.579 443.635C228.797 442.773 228.936 441.879 229.078 440.952C229.095 440.829 229.099 440.611 229.104 440.283C229.105 440.267 229.105 440.252 229.105 440.236C229.111 439.903 229.119 439.499 229.158 439.101C229.197 438.708 229.267 438.283 229.414 437.915C229.56 437.552 229.815 437.158 230.274 436.981L230.419 436.925L230.572 436.951C230.611 436.957 230.653 436.964 230.7 436.971L230.702 436.971C230.747 436.978 230.796 436.986 230.842 436.993L230.847 436.994L230.852 436.995C231.135 437.048 231.494 437.142 231.823 437.321C232.711 436.628 233.8 436.197 234.895 435.942ZM235.153 437.049C234.021 437.313 232.991 437.763 232.243 438.455L231.852 438.816L231.466 438.449C231.305 438.296 231.002 438.18 230.65 438.114C230.634 438.111 230.618 438.109 230.6 438.106C230.562 438.149 230.516 438.22 230.47 438.337C230.382 438.557 230.324 438.858 230.29 439.211C230.256 439.559 230.247 439.921 230.242 440.255C230.241 440.284 230.241 440.315 230.24 440.345C230.236 440.627 230.231 440.918 230.203 441.116L230.203 441.119L230.2 441.135C230.059 442.05 229.914 442.996 229.68 443.918L229.679 443.921L229.678 443.923C229.211 445.691 228.534 447.329 227.498 448.869C226.755 449.979 225.838 451.01 224.957 452.001C224.563 452.445 224.175 452.881 223.814 453.312C223.695 453.519 223.569 453.727 223.449 453.924C223.401 454.004 223.353 454.083 223.307 454.159L223.305 454.163L223.302 454.167C222.033 456.21 221.031 459.135 221.296 461.462L221.296 461.469L221.297 461.475C221.358 462.163 221.499 462.753 221.695 463.281C222.867 464.302 224.373 465.081 225.466 465.432L225.468 465.433L225.47 465.434C228.369 466.391 231.563 466.757 234.658 466.926C237.959 467.096 241.483 467.03 244.453 465.777C246.011 465.117 247.35 464.156 248.615 463.038C249.131 461.706 249.276 460.177 249.236 458.558C249.159 456.185 248.72 453.882 248.269 451.521C248.148 450.884 248.026 450.242 247.91 449.594C247.823 449.148 247.751 448.717 247.681 448.294L247.676 448.267L247.674 448.242C247.518 446.279 247.376 444.301 247.248 442.352L247.247 442.35L247.247 442.348C247.235 442.143 247.219 441.935 247.202 441.724C247.163 441.24 247.122 440.738 247.133 440.214L247.133 440.212L247.133 440.209C247.138 440.033 247.163 439.802 247.187 439.591C247.198 439.488 247.209 439.389 247.217 439.304C247.245 438.991 247.243 438.781 247.212 438.665C247.211 438.663 247.21 438.662 247.209 438.659L247.207 438.654C247.204 438.647 247.2 438.639 247.195 438.629C247.187 438.61 247.174 438.58 247.162 438.544L247.133 438.456V438.423C246.702 438.083 246.294 437.814 245.865 437.67C245.472 437.75 245.086 437.877 244.833 437.981L244.831 437.982L244.829 437.982C244.381 438.162 243.984 438.392 243.623 438.662L243.163 439.007L242.824 438.544C242.43 438.008 241.704 437.567 240.849 437.253C240.006 436.942 239.12 436.784 238.498 436.758C237.471 436.717 236.281 436.786 235.153 437.049Z" fill="#2C2C2C"/>
<path d="M282.813 463.047C282.813 463.047 281.989 465.704 281.733 466.116C281.477 466.528 274.955 468.773 266.997 468.603C258.727 468.432 254.948 466.031 254.834 463.032H282.813V463.047Z" fill="#50BFD7"/>
<path fill-rule="evenodd" clip-rule="evenodd" d="M254.244 462.464H283.382V463.133L283.357 463.215L282.814 463.047C283.357 463.215 283.357 463.215 283.357 463.215L283.357 463.215L283.356 463.216L283.347 463.246C283.341 463.266 283.332 463.295 283.32 463.332C283.297 463.406 283.264 463.512 283.223 463.641C283.141 463.898 283.029 464.245 282.909 464.606C282.789 464.967 282.66 465.344 282.544 465.659C282.437 465.95 282.317 466.254 282.217 466.416C282.16 466.508 282.09 466.569 282.05 466.601C282.004 466.639 281.955 466.671 281.91 466.699C281.82 466.754 281.711 466.81 281.591 466.865C281.35 466.976 281.024 467.104 280.628 467.24C279.833 467.514 278.724 467.833 277.378 468.133C274.685 468.732 271.019 469.258 266.987 469.171M282.042 463.601H255.485C255.731 464.615 256.538 465.583 258.112 466.37C259.999 467.313 262.916 467.95 267.01 468.035L267.01 468.035C270.935 468.119 274.509 467.607 277.131 467.023C278.442 466.731 279.509 466.423 280.257 466.165C280.633 466.036 280.921 465.922 281.116 465.832C281.191 465.798 281.246 465.769 281.285 465.748C281.298 465.72 281.313 465.686 281.33 465.646C281.372 465.545 281.422 465.416 281.477 465.266C281.587 464.968 281.712 464.603 281.83 464.248C281.906 464.02 281.978 463.798 282.042 463.601ZM254.244 462.464L254.267 463.054L254.244 462.464ZM254.267 463.054C254.334 464.829 255.495 466.332 257.604 467.387L254.267 463.054ZM257.604 467.387C259.703 468.436 262.81 469.085 266.986 469.171L257.604 467.387Z" fill="#2C2C2C"/>
<path d="M282.799 463.616C281.549 464.739 279.915 465.591 278.721 465.975C275.751 466.955 272.497 467.325 269.385 467.495C266.074 467.666 262.437 467.609 259.339 466.302C257.662 465.591 256.241 464.554 254.92 463.374C254.323 461.911 254.167 460.248 254.209 458.543C254.309 455.474 255.005 452.504 255.545 449.491C255.63 449.051 255.701 448.625 255.772 448.198C255.929 446.237 256.071 444.262 256.199 442.316C256.255 441.591 256.326 440.951 256.312 440.227C256.298 439.744 256.128 438.962 256.255 438.507C256.27 438.45 256.298 438.408 256.312 438.365C256.312 438.294 256.298 438.223 256.312 438.152C256.866 437.697 257.435 437.271 258.117 437.086C258.6 437.172 259.083 437.328 259.396 437.456C259.893 437.655 260.334 437.911 260.731 438.209C261.712 436.873 264.128 436.248 265.492 436.191C267.623 436.106 270.465 436.475 272.156 438.038C272.44 437.768 272.881 437.626 273.265 437.555C273.35 437.541 273.449 437.527 273.534 437.513C274.529 437.896 274.273 440.34 274.373 441.037C274.515 441.96 274.657 442.884 274.884 443.779C275.339 445.499 275.993 447.076 276.987 448.554C278.053 450.145 279.446 451.523 280.668 452.987C280.838 453.285 281.023 453.584 281.194 453.868C282.501 455.971 283.567 459.026 283.282 461.527C283.211 462.323 283.041 463.005 282.799 463.616Z" fill="#50BFD7"/>
<path fill-rule="evenodd" clip-rule="evenodd" d="M268.86 437.049C267.732 436.786 266.541 436.717 265.515 436.758C264.893 436.784 264.006 436.942 263.164 437.253C262.309 437.567 261.583 438.008 261.189 438.544L260.849 439.007L260.39 438.662C260.029 438.392 259.632 438.162 259.184 437.982L259.182 437.982L259.18 437.981C258.926 437.877 258.54 437.75 258.146 437.669C257.71 437.812 257.311 438.081 256.88 438.422V438.456L256.851 438.544C256.839 438.58 256.826 438.61 256.817 438.629C256.813 438.639 256.809 438.647 256.806 438.654C256.804 438.659 256.802 438.662 256.801 438.665C256.77 438.781 256.768 438.991 256.796 439.304C256.804 439.389 256.815 439.488 256.826 439.591C256.849 439.802 256.875 440.033 256.88 440.209L256.88 440.212L256.88 440.214C256.892 440.835 256.845 441.402 256.797 441.972C256.786 442.099 256.775 442.227 256.765 442.355C256.637 444.303 256.495 446.28 256.338 448.242L256.337 448.267L256.332 448.294C256.261 448.717 256.19 449.148 256.103 449.594C255.987 450.242 255.865 450.884 255.743 451.52C255.293 453.882 254.854 456.185 254.777 458.558C254.737 460.177 254.882 461.706 255.398 463.038C256.663 464.156 258.002 465.117 259.56 465.777C262.53 467.03 266.054 467.096 269.355 466.926C272.449 466.757 275.644 466.391 278.542 465.434L278.545 465.433L278.547 465.432C279.639 465.081 281.146 464.302 282.318 463.281C282.514 462.753 282.654 462.163 282.716 461.475L282.716 461.469L282.717 461.462C282.982 459.135 281.98 456.21 280.71 454.167L280.708 454.163L280.706 454.159C280.66 454.083 280.612 454.004 280.563 453.924C280.444 453.727 280.318 453.519 280.199 453.312C279.838 452.881 279.45 452.445 279.055 452.001C278.175 451.01 277.258 449.979 276.515 448.869C275.479 447.329 274.802 445.691 274.334 443.923L274.334 443.921L274.333 443.918C274.099 442.996 273.953 442.05 273.813 441.135L273.81 441.119L273.81 441.116C273.781 440.918 273.777 440.627 273.772 440.345C273.772 440.314 273.772 440.284 273.771 440.255C273.765 439.921 273.757 439.559 273.723 439.211C273.689 438.858 273.631 438.557 273.543 438.337C273.496 438.22 273.451 438.149 273.413 438.106C273.395 438.109 273.379 438.111 273.363 438.114C273.011 438.18 272.708 438.296 272.547 438.449L272.161 438.816L271.77 438.455C271.022 437.763 269.992 437.313 268.86 437.049ZM272.189 437.321C271.302 436.628 270.213 436.197 269.118 435.942C267.869 435.651 266.573 435.578 265.469 435.622L265.468 435.622C264.725 435.653 263.722 435.836 262.771 436.186C262.006 436.468 261.219 436.878 260.637 437.453C260.32 437.253 259.979 437.076 259.608 436.928C259.265 436.787 258.743 436.619 258.215 436.525L258.09 436.503L257.968 436.537C257.157 436.756 256.506 437.256 255.951 437.711L255.794 437.84L255.754 438.039C255.737 438.129 255.736 438.208 255.738 438.261C255.727 438.289 255.716 438.322 255.706 438.359C255.612 438.698 255.636 439.101 255.664 439.407C255.677 439.55 255.691 439.676 255.704 439.789C255.723 439.962 255.74 440.106 255.744 440.24C255.754 440.795 255.713 441.292 255.665 441.856C255.654 441.989 255.643 442.127 255.631 442.27L255.631 442.274L255.631 442.277C255.504 444.213 255.362 446.178 255.207 448.128C255.137 448.547 255.069 448.958 254.986 449.382L254.986 449.386L254.985 449.39C254.874 450.011 254.755 450.634 254.635 451.261C254.182 453.635 253.721 456.052 253.641 458.523L253.641 458.526L253.641 458.528C253.597 460.269 253.754 462.021 254.393 463.588L254.443 463.71L254.541 463.797C255.889 465 257.362 466.08 259.117 466.824L259.118 466.824C262.343 468.185 266.093 468.233 269.414 468.062L269.416 468.062C272.544 467.89 275.856 467.517 278.897 466.514C280.159 466.108 281.864 465.218 283.179 464.038L283.278 463.948L283.327 463.824C283.589 463.163 283.771 462.43 283.847 461.583C284.149 458.911 283.021 455.732 281.678 453.571C281.628 453.487 281.578 453.405 281.528 453.322C281.403 453.116 281.279 452.911 281.161 452.704L281.136 452.66L281.104 452.622C280.684 452.119 280.258 451.64 279.838 451.168C278.986 450.211 278.16 449.282 277.459 448.236L277.459 448.235C276.506 446.82 275.876 445.305 275.434 443.635C275.215 442.773 275.077 441.879 274.935 440.952C274.917 440.829 274.914 440.611 274.908 440.283L274.908 440.236C274.902 439.903 274.894 439.499 274.855 439.101C274.816 438.708 274.745 438.283 274.599 437.915C274.453 437.552 274.198 437.158 273.739 436.981L273.594 436.925L273.441 436.951C273.402 436.957 273.36 436.964 273.313 436.971L273.311 436.971C273.266 436.978 273.217 436.986 273.171 436.993L273.166 436.994L273.161 436.995C272.877 437.048 272.518 437.142 272.189 437.321ZM255.78 438.163C255.78 438.163 255.78 438.163 255.78 438.163V438.163Z" fill="#2C2C2C"/>
<path fill-rule="evenodd" clip-rule="evenodd" d="M212.006 101.877V102.161H210.869V101.877H212.006Z" fill="#2C2C2C"/>
<path fill-rule="evenodd" clip-rule="evenodd" d="M217.974 105.003V105.288H216.837V105.003H217.974Z" fill="#2C2C2C"/>
<path d="M250.302 103.326C252.248 103.738 251.524 105.003 251.524 105.188C251.524 105.372 252.248 115.888 261.641 118.658C271.034 121.429 276.661 115.987 278.295 113.259C279.929 110.53 281.293 104.051 281.691 103.553C282.103 103.056 284.05 102.189 284.05 102.189L284.277 99.6458L281.833 98.9211C281.833 98.9211 275.666 96.1075 266.586 95.9797C257.52 95.8376 252.39 101.067 252.39 101.067C249.833 100.257 246.664 100.143 243.765 101.067C243.765 101.067 238.635 95.8518 229.569 95.9797C220.504 96.1217 214.322 98.9211 214.322 98.9211L211.878 99.6458L212.106 102.189C212.106 102.189 214.052 103.056 214.464 103.553C214.877 104.051 216.226 110.545 217.861 113.259C219.495 115.987 225.122 121.429 234.514 118.658C243.907 115.888 244.632 105.372 244.632 105.188C244.632 105.003 243.907 103.738 245.854 103.326C247.545 102.971 248.611 102.971 250.302 103.326ZM272.838 116.484C265.676 120.79 257.094 116.442 254.508 110.772C251.921 105.102 254.096 102.104 254.096 102.104C258.429 95.056 275.865 94.7576 278.863 102.374C279.375 103.653 280.014 112.179 272.838 116.484ZM217.278 102.374C220.276 94.7434 237.726 95.056 242.046 102.104C242.046 102.104 244.22 105.102 241.634 110.772C239.047 116.442 230.479 120.79 223.303 116.484C216.141 112.179 216.781 103.653 217.278 102.374Z" fill="#2C2C2C"/>
<path d="M254.692 179.632H243.779C240.88 179.632 238.521 181.991 238.521 184.89V195.803C238.521 198.702 240.88 201.061 243.779 201.061H254.692C257.591 201.061 259.95 198.702 259.95 195.803V184.89C259.95 181.991 257.605 179.632 254.692 179.632ZM235.623 174.986C233.96 174.986 232.61 176.336 232.61 177.998C232.61 179.661 233.96 181.011 235.623 181.011C237.285 181.011 238.635 179.661 238.635 177.998C238.635 176.336 237.285 174.986 235.623 174.986Z" fill="white"/>
<path d="M253.925 186.141C253.229 184.28 251.452 183.043 249.463 183.043H246.507L252.348 197.85H258.614L253.925 186.141ZM241.989 193.601L240.284 197.85H246.507L249.406 190.503H246.451C244.461 190.503 242.685 191.74 241.989 193.601ZM242.955 186.724C243.978 186.724 244.816 185.885 244.816 184.862C244.816 183.839 243.978 183.001 242.955 183.001C241.932 183.001 241.094 183.839 241.094 184.862C241.094 185.885 241.932 186.724 242.955 186.724Z" fill="#50BFD7"/>
<path d="M148.582 172.642C148.982 173.041 149.453 173.359 149.974 173.581C151.062 174.036 152.286 174.036 153.375 173.581C154.426 173.134 155.262 172.299 155.708 171.249C156.163 170.162 156.163 168.937 155.708 167.848C155.26 166.798 154.426 165.961 153.375 165.516C152.288 165.06 151.064 165.06 149.974 165.516C148.924 165.963 148.087 166.798 147.642 167.848C147.187 168.935 147.187 170.16 147.642 171.249C147.864 171.768 148.184 172.242 148.582 172.642ZM147.302 176.699V189.869H149.497C150.251 189.865 151.002 189.796 151.743 189.656C152.487 189.525 153.205 189.275 153.87 188.914C154.497 188.573 155.039 188.093 155.455 187.515C155.892 186.873 156.112 186.108 156.081 185.33V176.699H147.302ZM140.188 171.177C140.771 171.181 141.349 171.064 141.887 170.834C142.937 170.387 143.772 169.552 144.217 168.502C144.672 167.415 144.672 166.191 144.215 165.101C143.768 164.051 142.933 163.214 141.883 162.769C141.345 162.539 140.767 162.423 140.182 162.427C139.602 162.423 139.027 162.539 138.494 162.769C138.096 162.939 137.971 163.161 137.423 163.428V170.176C137.973 170.445 138.096 170.664 138.494 170.834C139.029 171.066 139.606 171.181 140.188 171.177ZM137.423 193.352C137.973 193.471 138.17 193.564 138.56 193.617C138.986 193.678 139.417 193.709 139.848 193.711C140.512 193.707 141.177 193.637 141.827 193.498C142.49 193.365 143.126 193.116 143.704 192.766C144.272 192.417 144.75 191.941 145.103 191.377C145.493 190.719 145.683 189.96 145.655 189.195V173.954H137.423V193.352ZM107.238 197.553L135.776 202.492V154.197L107.238 159.137V197.553Z" fill="#263238"/>
<path d="M128.092 169.015L114.922 169.817V172.855L119.861 172.656V186.741L123.153 186.934V172.527L128.092 172.307V169.015Z" fill="white"/>
<path fill-rule="evenodd" clip-rule="evenodd" d="M350.165 148.143L349.384 149.327L348.869 148.987L349.65 147.803L350.165 148.143ZM347.822 151.695L346.26 154.064L345.745 153.724L347.307 151.355L347.822 151.695ZM344.698 156.432L343.136 158.801L342.621 158.461L344.183 156.092L344.698 156.432ZM341.574 161.169L340.012 163.538L339.497 163.198L341.059 160.829L341.574 161.169ZM338.45 165.906L336.888 168.274L336.373 167.934L337.935 165.566L338.45 165.906ZM335.326 170.643L333.764 173.011L333.249 172.671L334.811 170.303L335.326 170.643ZM332.202 175.38L331.421 176.564L330.906 176.224L331.687 175.04L332.202 175.38Z" fill="#263238"/>
<path d="M379.724 132.817V126.363L373.302 125.647C372.939 124.301 372.399 123.009 371.696 121.806L375.766 116.71L371.202 112.147L366.138 116.204C364.939 115.499 363.651 114.959 362.309 114.598L361.586 108.12H355.151L354.434 114.567C353.088 114.919 351.796 115.451 350.593 116.148L345.504 112.079L340.94 116.643L344.991 121.713C344.286 122.911 343.746 124.199 343.386 125.542L336.913 126.265V132.718L343.355 133.435C343.709 134.78 344.241 136.071 344.936 137.276L340.866 142.365L345.43 146.929L350.5 142.878C351.699 143.583 352.987 144.123 354.329 144.483L355.052 150.956H361.506L362.222 144.514C363.567 144.16 364.859 143.628 366.063 142.933L371.152 147.003L375.716 142.439L371.696 137.369C372.401 136.17 372.941 134.882 373.302 133.54L379.724 132.817ZM358.307 137.245C356.782 137.241 355.293 136.786 354.027 135.935C352.761 135.085 351.777 133.879 351.197 132.469C350.617 131.059 350.468 129.508 350.77 128.014C351.071 126.519 351.809 125.148 352.89 124.072C353.972 122.997 355.347 122.267 356.843 121.974C358.34 121.681 359.889 121.838 361.296 122.426C362.703 123.014 363.904 124.005 364.747 125.276C365.59 126.546 366.037 128.038 366.033 129.562C366.026 131.602 365.211 133.556 363.766 134.996C362.322 136.437 360.365 137.245 358.325 137.245H358.307Z" fill="#50BFD7"/>
<path fill-rule="evenodd" clip-rule="evenodd" d="M354.844 108.086C354.861 107.929 354.993 107.811 355.151 107.811H361.586C361.743 107.811 361.875 107.929 361.893 108.086L362.592 114.356C363.82 114.703 365.001 115.199 366.109 115.831L371.009 111.905C371.131 111.807 371.309 111.817 371.42 111.928L375.984 116.492C376.095 116.603 376.105 116.78 376.007 116.903L372.068 121.834C372.7 122.947 373.195 124.132 373.544 125.363L379.759 126.056C379.915 126.074 380.033 126.206 380.033 126.363V132.817C380.033 132.974 379.915 133.106 379.759 133.124L373.544 133.823C373.196 135.051 372.701 136.233 372.068 137.342L375.958 142.247C376.056 142.37 376.046 142.546 375.935 142.657L371.371 147.221C371.259 147.333 371.082 147.342 370.959 147.244L366.034 143.305C364.92 143.928 363.736 144.416 362.506 144.757L361.813 150.99C361.795 151.146 361.663 151.264 361.506 151.264H355.052C354.895 151.264 354.762 151.146 354.745 150.99L354.046 144.725C352.818 144.378 351.637 143.883 350.528 143.25L345.623 147.17C345.5 147.268 345.323 147.258 345.212 147.147L340.648 142.583C340.536 142.472 340.527 142.295 340.625 142.172L344.564 137.247C343.941 136.133 343.453 134.948 343.112 133.718L336.879 133.025C336.723 133.008 336.605 132.876 336.605 132.718V126.264C336.605 126.107 336.723 125.975 336.879 125.958L343.144 125.258C343.491 124.03 343.986 122.849 344.618 121.741L340.699 116.835C340.601 116.712 340.611 116.535 340.722 116.424L345.286 111.86C345.397 111.749 345.574 111.739 345.697 111.837L350.622 115.776C351.735 115.151 352.92 114.663 354.151 114.324L354.844 108.086ZM355.427 108.429L354.741 114.602C354.727 114.729 354.636 114.834 354.512 114.866C353.193 115.211 351.927 115.732 350.748 116.416C350.638 116.479 350.499 116.469 350.4 116.39L345.527 112.492L341.354 116.666L345.233 121.52C345.313 121.62 345.322 121.759 345.258 121.869C344.566 123.044 344.037 124.306 343.684 125.622C343.651 125.745 343.546 125.835 343.42 125.849L337.222 126.541V132.442L343.389 133.128C343.516 133.142 343.621 133.233 343.653 133.356C344.001 134.674 344.522 135.941 345.203 137.122C345.267 137.232 345.256 137.37 345.177 137.469L341.28 142.342L345.453 146.515L350.308 142.636C350.408 142.556 350.547 142.546 350.657 142.611C351.831 143.302 353.093 143.832 354.409 144.185C354.532 144.218 354.622 144.323 354.636 144.449L355.328 150.647H361.229L361.915 144.48C361.929 144.353 362.02 144.248 362.143 144.215C363.462 143.868 364.728 143.347 365.909 142.666C366.019 142.602 366.157 142.613 366.256 142.692L371.129 146.589L375.303 142.415L371.454 137.56C371.375 137.46 371.365 137.322 371.43 137.212C372.121 136.038 372.65 134.776 373.003 133.46C373.036 133.337 373.141 133.247 373.267 133.233L379.416 132.541V126.64L373.267 125.954C373.141 125.94 373.036 125.85 373.003 125.727C372.648 124.407 372.119 123.141 371.429 121.961C371.365 121.851 371.375 121.713 371.455 121.613L375.352 116.733L371.179 112.56L366.331 116.445C366.231 116.525 366.091 116.535 365.981 116.47C364.807 115.779 363.544 115.25 362.228 114.897C362.106 114.864 362.016 114.759 362.002 114.633L361.31 108.429H355.427ZM361.177 122.711C359.826 122.147 358.339 121.996 356.903 122.277C355.467 122.558 354.146 123.259 353.108 124.291C352.07 125.323 351.362 126.64 351.073 128.075C350.783 129.509 350.926 130.998 351.482 132.351C352.039 133.705 352.984 134.863 354.199 135.679C355.414 136.495 356.844 136.933 358.307 136.936H358.325C360.283 136.936 362.162 136.16 363.548 134.778C364.935 133.395 365.717 131.52 365.724 129.561C365.728 128.098 365.299 126.666 364.49 125.446C363.68 124.227 362.527 123.275 361.177 122.711ZM356.784 121.671C358.34 121.366 359.952 121.53 361.415 122.141C362.878 122.752 364.127 123.784 365.004 125.105C365.881 126.426 366.346 127.978 366.341 129.563C366.335 131.685 365.487 133.717 363.984 135.215C362.482 136.713 360.447 137.554 358.325 137.554H358.306C356.72 137.55 355.171 137.076 353.855 136.192C352.539 135.307 351.514 134.053 350.911 132.586C350.308 131.119 350.154 129.507 350.467 127.953C350.781 126.398 351.548 124.972 352.673 123.853C353.797 122.735 355.228 121.976 356.784 121.671Z" fill="#263238"/>
<path d="M405.113 119.86L404.428 115.586L400.105 115.827C399.725 114.975 399.231 114.18 398.635 113.462L400.722 109.639L397.196 107.119L394.287 110.368C393.416 110.038 392.504 109.83 391.576 109.75L390.378 105.538L386.104 106.255L386.345 110.578C385.492 110.959 384.694 111.453 383.973 112.048L380.157 109.917L377.637 113.443L380.885 116.352C380.556 117.223 380.348 118.136 380.268 119.063L376.019 120.299L376.735 124.572L381.058 124.331C381.439 125.185 381.934 125.982 382.528 126.703L380.398 130.52L383.924 133.039L386.833 129.791C387.704 130.121 388.616 130.329 389.544 130.408L390.742 134.62L395.047 133.885L394.806 129.562C395.658 129.183 396.454 128.688 397.171 128.093L400.994 130.18L403.514 126.654L400.265 123.745C400.595 122.874 400.803 121.961 400.883 121.034L405.113 119.86ZM391.421 125.165C390.413 125.333 389.378 125.198 388.446 124.778C387.515 124.357 386.728 123.67 386.187 122.803C385.646 121.936 385.374 120.928 385.406 119.906C385.437 118.885 385.771 117.895 386.365 117.063C386.959 116.231 387.786 115.594 388.742 115.232C389.698 114.87 390.739 114.8 391.735 115.029C392.731 115.259 393.637 115.779 394.337 116.524C395.037 117.268 395.501 118.204 395.67 119.212C395.896 120.564 395.575 121.951 394.778 123.068C393.981 124.184 392.774 124.938 391.421 125.165Z" fill="#263238"/>
<path fill-rule="evenodd" clip-rule="evenodd" d="M390.599 105.188L391.815 109.463C392.628 109.55 393.427 109.732 394.197 110.006L397.15 106.707L401.124 109.547L399.005 113.428C399.516 114.068 399.949 114.766 400.298 115.507L404.689 115.263L405.462 120.084L401.17 121.274C401.083 122.086 400.901 122.885 400.627 123.654L403.926 126.608L401.086 130.582L397.205 128.463C396.565 128.973 395.867 129.407 395.126 129.755L395.37 134.143L390.521 134.971L389.305 130.695C388.492 130.609 387.693 130.427 386.923 130.153L383.97 133.451L379.993 130.61L382.157 126.735C381.648 126.092 381.215 125.393 380.865 124.651L376.476 124.896L375.669 120.079L379.981 118.825C380.067 118.012 380.249 117.213 380.523 116.442L377.225 113.489L380.066 109.513L383.942 111.676C384.584 111.167 385.283 110.734 386.025 110.385L385.78 105.996L390.599 105.188ZM386.428 106.513L386.665 110.773L386.471 110.86C385.643 111.229 384.869 111.709 384.17 112.286L384.007 112.42L380.247 110.321L378.049 113.398L381.249 116.263L381.174 116.462C380.854 117.306 380.653 118.19 380.576 119.09L380.557 119.301L376.369 120.518L376.994 124.248L381.254 124.011L381.34 124.205C381.71 125.033 382.19 125.807 382.766 126.506L382.901 126.669L380.802 130.429L383.878 132.627L386.744 129.427L386.942 129.502C387.786 129.822 388.671 130.023 389.57 130.101L389.783 130.119L390.963 134.269L394.723 133.627L394.486 129.367L394.68 129.28C395.506 128.912 396.278 128.433 396.974 127.855L397.135 127.721L400.902 129.778L403.102 126.699L399.901 123.833L399.977 123.635C400.296 122.791 400.498 121.906 400.575 121.007L400.594 120.793L404.765 119.636L404.167 115.91L399.909 116.147L399.823 115.953C399.455 115.127 398.975 114.355 398.397 113.659L398.263 113.498L400.32 109.731L397.241 107.531L394.376 110.732L394.178 110.656C393.333 110.337 392.449 110.135 391.549 110.058L391.337 110.04L390.156 105.888L386.428 106.513ZM391.666 115.33C390.729 115.114 389.75 115.18 388.851 115.521C387.952 115.861 387.175 116.46 386.616 117.243C386.058 118.025 385.744 118.955 385.714 119.916C385.685 120.876 385.94 121.824 386.449 122.639C386.958 123.455 387.697 124.101 388.573 124.496C389.449 124.892 390.422 125.018 391.37 124.861C392.642 124.647 393.777 123.938 394.526 122.888C395.276 121.838 395.578 120.534 395.366 119.262C395.207 118.315 394.771 117.435 394.112 116.735C393.453 116.035 392.602 115.546 391.666 115.33ZM391.473 125.47C392.906 125.229 394.185 124.43 395.029 123.247C395.873 122.064 396.214 120.594 395.975 119.161C395.796 118.093 395.304 117.101 394.562 116.312C393.82 115.523 392.86 114.972 391.805 114.728C390.749 114.485 389.645 114.56 388.632 114.943C387.619 115.327 386.743 116.002 386.114 116.884C385.484 117.765 385.131 118.814 385.097 119.897C385.064 120.979 385.352 122.048 385.925 122.966C386.499 123.885 387.332 124.614 388.319 125.059C389.306 125.505 390.404 125.647 391.473 125.47Z" fill="#263238"/>
<path fill-rule="evenodd" clip-rule="evenodd" d="M391.173 240.662L392.32 240.669L392.317 241.128L391.171 241.121L391.173 240.662Z" fill="#263238"/>
<path fill-rule="evenodd" clip-rule="evenodd" d="M387.754 240.641L388.871 240.648L388.868 241.107L387.751 241.1L387.754 240.641ZM383.287 240.614L385.52 240.628L385.518 241.087L383.284 241.073L383.287 240.614ZM378.819 240.587L381.053 240.601L381.05 241.059L378.816 241.046L378.819 240.587ZM374.352 240.56L376.585 240.573L376.582 241.032L374.349 241.018L374.352 240.56ZM369.884 240.533L372.118 240.546L372.115 241.005L369.881 240.991L369.884 240.533ZM365.416 240.505L367.65 240.519L367.647 240.978L365.414 240.964L365.416 240.505ZM360.949 240.478L363.183 240.492L363.18 240.95L360.946 240.937L360.949 240.478ZM356.481 240.451L358.715 240.464L358.712 240.923L356.478 240.909L356.481 240.451ZM352.014 240.424L354.248 240.437L354.245 240.896L352.011 240.882L352.014 240.424ZM348.663 240.403L349.78 240.41L349.777 240.869L348.66 240.862L348.663 240.403Z" fill="#263238"/>
<path fill-rule="evenodd" clip-rule="evenodd" d="M346.365 240.389L347.512 240.396L347.509 240.855L346.363 240.848L346.365 240.389Z" fill="#263238"/>
<path fill-rule="evenodd" clip-rule="evenodd" d="M411.307 258.081C411.307 258.207 411.203 258.309 411.077 258.309L385.15 258.151C385.024 258.15 384.922 258.047 384.922 257.92C384.923 257.793 385.026 257.691 385.153 257.692L411.079 257.85C411.206 257.851 411.308 257.954 411.307 258.081Z" fill="#263238"/>
<path fill-rule="evenodd" clip-rule="evenodd" d="M398.111 258.23C397.984 258.229 397.882 258.125 397.883 257.999L397.961 245.226C397.962 245.099 398.065 244.997 398.192 244.998C398.318 244.999 398.421 245.102 398.42 245.229L398.342 258.002C398.341 258.128 398.238 258.23 398.111 258.23Z" fill="#263238"/>
<path fill-rule="evenodd" clip-rule="evenodd" d="M418.677 255.177C418.55 255.176 418.448 255.073 418.449 254.946L418.548 238.788C418.548 238.662 418.652 238.56 418.778 238.56C418.905 238.561 419.007 238.665 419.006 238.791L418.908 254.949C418.907 255.075 418.804 255.177 418.677 255.177Z" fill="#263238"/>
<path fill-rule="evenodd" clip-rule="evenodd" d="M394.067 236.942C394.067 237.069 393.963 237.171 393.837 237.17L370.359 237.027C370.233 237.026 370.131 236.923 370.131 236.796L370.218 222.597C370.219 222.47 370.322 222.368 370.449 222.369C370.575 222.37 370.677 222.473 370.677 222.6L370.591 236.57L393.839 236.711C393.966 236.712 394.068 236.815 394.067 236.942Z" fill="#263238"/>
<path fill-rule="evenodd" clip-rule="evenodd" d="M385.28 236.875C385.153 236.874 385.051 236.771 385.052 236.644L385.136 222.945C385.136 222.818 385.24 222.716 385.366 222.717C385.493 222.717 385.595 222.821 385.594 222.947L385.511 236.647C385.51 236.773 385.407 236.875 385.28 236.875Z" fill="#263238"/>
<path d="M406.399 263.435L423.277 263.538L423.347 252.04L406.469 251.937L406.399 263.435Z" fill="#263238"/>
<path fill-rule="evenodd" clip-rule="evenodd" d="M423.505 263.769L406.169 263.663L406.241 251.707L423.578 251.812L423.505 263.769ZM423.049 263.307L423.116 252.268L406.697 252.168L406.63 263.207L423.049 263.307Z" fill="#263238"/>
<path d="M374.479 263.241L391.356 263.344L391.426 251.846L374.549 251.743L374.479 263.241Z" fill="#50BFD7"/>
<path fill-rule="evenodd" clip-rule="evenodd" d="M391.586 263.345C391.585 263.472 391.482 263.574 391.355 263.573L374.477 263.47C374.351 263.469 374.249 263.366 374.249 263.239L374.32 251.741C374.32 251.615 374.424 251.513 374.55 251.513L391.428 251.616C391.554 251.617 391.657 251.72 391.656 251.847L391.586 263.345ZM391.128 263.113L391.196 252.074L374.777 251.973L374.709 263.013L391.128 263.113Z" fill="#263238"/>
<path d="M379.79 226.338L390.604 226.404L390.649 219.038L379.835 218.973L379.79 226.338Z" fill="#50BFD7"/>
<path fill-rule="evenodd" clip-rule="evenodd" d="M390.834 226.405C390.833 226.532 390.73 226.634 390.603 226.633L379.789 226.567C379.662 226.567 379.56 226.463 379.561 226.337L379.606 218.971C379.606 218.844 379.71 218.742 379.836 218.743L390.651 218.809C390.777 218.81 390.879 218.913 390.879 219.04L390.834 226.405ZM390.377 226.173L390.419 219.266L380.063 219.203L380.021 226.11L390.377 226.173Z" fill="#263238"/>
<path d="M412.71 242.436L423.524 242.501L423.569 235.136L412.755 235.07L412.71 242.436Z" fill="white"/>
<path fill-rule="evenodd" clip-rule="evenodd" d="M423.754 242.503C423.753 242.63 423.65 242.732 423.523 242.731L412.708 242.665C412.582 242.664 412.48 242.561 412.48 242.434L412.525 235.069C412.526 234.942 412.629 234.84 412.756 234.841L423.571 234.907C423.697 234.907 423.799 235.011 423.799 235.137L423.754 242.503ZM423.296 242.271L423.338 235.364L412.983 235.301L412.941 242.208L423.296 242.271Z" fill="#263238"/>
<path d="M365.6 226.252L376.414 226.318L376.459 218.952L365.645 218.886L365.6 226.252Z" fill="#263238"/>
<path fill-rule="evenodd" clip-rule="evenodd" d="M376.642 226.548L365.369 226.48L365.417 218.655L376.69 218.724L376.642 226.548ZM376.187 226.087L376.229 219.18L365.873 219.117L365.831 226.024L376.187 226.087Z" fill="#263238"/>
<path d="M398.194 245.229L406.753 236.775L398.298 228.217L389.74 236.671L398.194 245.229Z" fill="#50BFD7"/>
<path fill-rule="evenodd" clip-rule="evenodd" d="M406.916 236.614C407.005 236.704 407.004 236.849 406.914 236.938L398.356 245.393C398.266 245.482 398.12 245.481 398.031 245.391L389.577 236.833C389.488 236.742 389.489 236.597 389.579 236.508L398.137 228.054C398.227 227.965 398.372 227.966 398.461 228.056L406.916 236.614ZM406.428 236.773L398.296 228.541L390.064 236.673L398.196 244.905L406.428 236.773Z" fill="#263238"/>
</svg>
