<svg width="475" height="524" viewBox="0 0 475 524" fill="none" xmlns="http://www.w3.org/2000/svg">
<path d="M363.416 107.478C382.141 132.459 396.216 170.783 385.733 208.78C369.908 266.186 399.467 289.62 346.236 379.313C338.508 392.439 329.675 404.862 319.891 416.364C315.09 421.978 310.029 427.31 304.74 432.328C258.109 476.57 204.718 484.349 163.58 465.697C109.477 441.149 109.589 382.338 111.237 344.971C112.885 307.604 75.8846 241.986 127.682 153.459C135.544 139.919 144.622 127.138 154.736 115.372C177.899 88.6067 209.269 65.5081 240.262 58.8015C242.586 58.3039 244.902 57.8743 247.252 57.5264C292.884 50.7031 337.883 73.4097 363.416 107.478Z" fill="#50BFD7"/>
<path opacity="0.7" d="M363.416 107.478C382.141 132.459 396.216 170.783 385.733 208.78C369.908 266.186 399.467 289.62 346.236 379.313C338.508 392.439 329.675 404.862 319.891 416.364C315.09 421.978 310.029 427.31 304.74 432.328C258.109 476.57 204.718 484.349 163.58 465.697C109.477 441.149 109.589 382.338 111.237 344.971C112.885 307.604 75.8846 241.986 127.682 153.459C135.544 139.919 144.622 127.138 154.736 115.372C177.899 88.6067 209.269 65.5081 240.262 58.8015C242.586 58.3039 244.902 57.8743 247.252 57.5264C292.884 50.7031 337.883 73.4097 363.416 107.478Z" fill="white"/>
<path d="M400.695 472.388H117.304C117.223 472.388 117.146 472.351 117.089 472.286C117.032 472.22 117 472.132 117 472.039C117.001 471.947 117.034 471.86 117.091 471.795C117.147 471.73 117.224 471.693 117.304 471.691H400.695C400.776 471.693 400.852 471.73 400.909 471.795C400.966 471.86 400.998 471.947 401 472.039C401 472.132 400.968 472.22 400.911 472.286C400.853 472.351 400.776 472.388 400.695 472.388Z" fill="#263238"/>
<path opacity="0.3" fill-rule="evenodd" clip-rule="evenodd" d="M102.971 291.808C102.971 291.358 103.336 290.993 103.786 290.993H157.184C157.635 290.993 158 291.358 158 291.808V344.228C158 344.678 157.635 345.043 157.184 345.043H103.786C103.336 345.043 102.971 344.678 102.971 344.228V291.808ZM104.601 292.623V343.413H156.369V292.623H104.601Z" fill="#454545"/>
<path opacity="0.3" fill-rule="evenodd" clip-rule="evenodd" d="M133.39 295.767C132.137 295.869 131.207 296.111 130.706 296.417L130.602 296.48L130.484 296.511L130.478 296.512L130.457 296.518L130.366 296.542C130.286 296.564 130.166 296.597 130.013 296.642C129.706 296.731 129.265 296.864 128.733 297.043C127.667 297.4 126.247 297.931 124.816 298.63C123.38 299.332 121.968 300.186 120.895 301.176C119.817 302.17 119.152 303.234 119.044 304.359L119.042 304.372L119.041 304.384C118.698 307.065 118.698 309.779 119.041 312.46L119.146 313.279L118.339 313.372C118.335 313.373 118.327 313.374 118.317 313.377C118.289 313.383 118.24 313.397 118.181 313.421C118.062 313.469 117.913 313.555 117.784 313.703C117.563 313.958 117.202 314.639 117.695 316.349L117.699 316.363L117.702 316.376C118.191 318.324 119.312 320.055 120.889 321.299L121.085 321.453L122.862 326.996L121.856 331.102H119.164L119.651 336.086L118.957 336.249L118.92 336.258L118.807 336.285C118.708 336.309 118.562 336.344 118.376 336.39C118.003 336.481 117.469 336.614 116.823 336.78C115.53 337.113 113.794 337.579 112.019 338.11C110.24 338.642 108.439 339.235 107.007 339.821C106.29 340.115 105.685 340.399 105.229 340.665C104.917 340.847 104.719 340.995 104.601 341.101V343.412H156.369V342.815L155.711 342.228L155.695 342.212C155.512 342.029 155.137 341.768 154.547 341.444C153.975 341.129 153.258 340.786 152.441 340.426C150.809 339.708 148.821 338.944 146.887 338.244C144.956 337.544 143.091 336.911 141.707 336.452C141.016 336.223 140.445 336.037 140.048 335.91C139.849 335.846 139.694 335.796 139.589 335.762L139.468 335.724L139.429 335.712L138.912 335.549L138.642 332.69L135.749 332.159L134.726 325.899L135.527 325.766L135.535 325.764L135.568 325.758C135.598 325.753 135.645 325.744 135.707 325.731C135.83 325.706 136.011 325.666 136.235 325.609C136.684 325.494 137.298 325.313 137.956 325.046C139.308 324.498 140.696 323.65 141.373 322.425C141.498 322.199 141.605 321.815 141.659 321.248C141.711 320.694 141.707 320.026 141.655 319.277C141.552 317.777 141.264 316.026 140.92 314.343C140.578 312.664 140.184 311.073 139.876 309.9C139.722 309.314 139.59 308.834 139.496 308.501C139.449 308.335 139.412 308.205 139.386 308.117L139.357 308.018L139.35 307.993L139.348 307.987L139.348 307.985L139.247 307.643L139.429 307.338L139.433 307.33L139.452 307.297C139.469 307.268 139.495 307.222 139.527 307.162C139.593 307.042 139.686 306.865 139.794 306.644C140.011 306.199 140.282 305.584 140.503 304.896C140.966 303.454 141.124 301.963 140.51 300.955L137.573 296.139L139.889 297.104L139.892 297.106L139.906 297.111L139.961 297.134C140.01 297.154 140.082 297.183 140.173 297.219C140.357 297.292 140.617 297.392 140.922 297.504C141.538 297.729 142.319 297.993 143.023 298.166C143.31 298.236 143.571 298.288 143.794 298.318C143.389 297.781 142.583 297.257 141.428 296.818C140.282 296.381 138.893 296.065 137.468 295.886C136.044 295.706 134.613 295.666 133.39 295.767ZM141.483 299.42C141.86 299.541 142.253 299.656 142.633 299.749C143.027 299.846 143.426 299.924 143.789 299.958C144.126 299.99 144.542 299.995 144.903 299.856C145.098 299.781 145.321 299.647 145.484 299.412C145.653 299.169 145.705 298.896 145.688 298.645C145.658 298.2 145.41 297.765 145.124 297.375C144.447 296.452 143.282 295.779 142.008 295.294C140.711 294.8 139.19 294.459 137.672 294.268C136.152 294.076 134.607 294.031 133.257 294.142C131.992 294.245 130.798 294.493 129.965 294.961L129.938 294.969C129.849 294.993 129.721 295.029 129.559 295.076C129.234 295.17 128.771 295.31 128.215 295.497C127.106 295.868 125.615 296.425 124.101 297.165C122.592 297.902 121.025 298.838 119.789 299.978C118.56 301.112 117.587 302.516 117.422 304.19C117.091 306.786 117.065 309.411 117.346 312.012C117.094 312.142 116.809 312.339 116.552 312.635C115.845 313.45 115.546 314.77 116.124 316.787C116.682 318.997 117.929 320.97 119.683 322.42L121.168 327.056L120.576 329.472H117.366L117.89 334.83C117.519 334.921 117.015 335.047 116.416 335.201C115.111 335.537 113.354 336.009 111.552 336.548C109.754 337.085 107.894 337.696 106.389 338.312C105.638 338.62 104.956 338.937 104.409 339.256C103.892 339.557 103.379 339.923 103.098 340.367L102.971 340.567V345.043H158V342.085L156.83 341.041C156.475 340.692 155.936 340.346 155.333 340.015C154.703 339.669 153.938 339.304 153.098 338.934C151.417 338.194 149.39 337.417 147.443 336.711C145.493 336.004 143.613 335.366 142.22 334.904C141.524 334.674 140.949 334.487 140.548 334.358C140.508 334.345 140.47 334.333 140.434 334.321L140.149 331.308L137.173 330.763L136.591 327.2C136.607 327.197 136.622 327.193 136.638 327.189C137.139 327.061 137.825 326.858 138.569 326.557C140.022 325.967 141.846 324.94 142.8 323.214C143.082 322.702 143.219 322.062 143.282 321.401C143.345 320.728 143.337 319.965 143.282 319.164C143.171 317.562 142.868 315.731 142.518 314.017C142.168 312.299 141.766 310.677 141.453 309.485C141.296 308.889 141.161 308.4 141.065 308.059C141.044 307.983 141.024 307.914 141.007 307.854C141.077 307.723 141.163 307.556 141.26 307.358C141.5 306.866 141.804 306.177 142.055 305.394C142.537 303.894 142.918 301.772 141.902 300.106L141.483 299.42Z" fill="#454545"/>
<path d="M365.412 328.014L376.735 436.492" stroke="#263238" stroke-width="2" stroke-miterlimit="10"/>
<path d="M374.909 415.736L369.778 410.315" stroke="#263238" stroke-width="2" stroke-miterlimit="10"/>
<path d="M371.335 411.936C371.325 411.106 371.138 410.288 370.785 409.537C370.432 408.787 369.922 408.12 369.29 407.584C367.974 406.409 361.039 403.493 360.38 405.935C359.666 408.588 366.764 413.832 371.335 411.936Z" fill="#50BFD7" stroke="#263238" stroke-miterlimit="10"/>
<path d="M371.335 411.936L364.732 407.824" stroke="#263238" stroke-width="0.5" stroke-miterlimit="10"/>
<path d="M376.196 428.071L371.059 422.65" stroke="#263238" stroke-width="2" stroke-miterlimit="10"/>
<path d="M372.623 424.27C372.613 423.441 372.425 422.623 372.073 421.872C371.72 421.122 371.21 420.455 370.578 419.918C369.262 418.744 362.327 415.828 361.668 418.269C360.954 420.909 368.052 426.139 372.623 424.27Z" fill="#50BFD7" stroke="#263238" stroke-miterlimit="10"/>
<path d="M372.623 424.27L366.021 420.159" stroke="#263238" stroke-width="0.5" stroke-miterlimit="10"/>
<path d="M371.767 385.632L366.636 380.211" stroke="#263238" stroke-width="2" stroke-miterlimit="10"/>
<path d="M368.193 381.832C368.183 381.003 367.996 380.185 367.643 379.434C367.29 378.683 366.78 378.017 366.148 377.48C364.831 376.305 357.896 373.39 357.238 375.831C356.538 378.485 363.614 383.7 368.193 381.832Z" fill="#50BFD7" stroke="#263238" stroke-miterlimit="10"/>
<path d="M368.193 381.832L361.591 377.72" stroke="#263238" stroke-width="0.5" stroke-miterlimit="10"/>
<path d="M373.055 397.967L367.924 392.546" stroke="#263238" stroke-width="2" stroke-miterlimit="10"/>
<path d="M369.481 394.166C369.471 393.337 369.283 392.519 368.931 391.768C368.578 391.018 368.068 390.351 367.436 389.814C366.12 388.64 359.185 385.724 358.527 388.165C357.812 390.819 364.91 396.035 369.481 394.166Z" fill="#50BFD7" stroke="#263238" stroke-miterlimit="10"/>
<path d="M369.481 394.166L362.879 390.055" stroke="#263238" stroke-width="0.5" stroke-miterlimit="10"/>
<path d="M369.672 365.591L364.541 360.17" stroke="#263238" stroke-width="2" stroke-miterlimit="10"/>
<path d="M366.099 361.791C366.089 360.962 365.903 360.145 365.551 359.394C365.2 358.643 364.691 357.977 364.06 357.439C362.744 356.264 355.83 353.349 355.123 355.804C354.415 358.444 361.534 363.659 366.099 361.791Z" fill="#50BFD7" stroke="#263238" stroke-miterlimit="10"/>
<path d="M366.099 361.791L359.503 357.679" stroke="#263238" stroke-width="0.5" stroke-miterlimit="10"/>
<path d="M367.57 345.465L362.44 340.045" stroke="#263238" stroke-width="2" stroke-miterlimit="10"/>
<path d="M364.004 341.651C363.992 340.822 363.804 340.005 363.451 339.254C363.099 338.504 362.59 337.837 361.959 337.299C360.642 336.124 353.707 333.202 353.049 335.643C352.334 338.318 359.432 343.533 364.004 341.651Z" fill="#50BFD7" stroke="#263238" stroke-miterlimit="10"/>
<path d="M364.004 341.665L357.401 337.554" stroke="#263238" stroke-width="0.5" stroke-miterlimit="10"/>
<path d="M374.045 408.433L377.945 402.071" stroke="#263238" stroke-width="2" stroke-miterlimit="10"/>
<path d="M376.756 403.982C376.595 403.168 376.61 402.33 376.801 401.523C376.991 400.716 377.352 399.96 377.86 399.304C378.9 397.889 385.085 393.593 386.231 395.844C387.477 398.299 381.61 404.866 376.756 403.982Z" fill="#50BFD7" stroke="#263238" stroke-miterlimit="10"/>
<path d="M376.756 403.982L382.7 398.299" stroke="#263238" stroke-width="0.5" stroke-miterlimit="10"/>
<path d="M370.656 375.973L374.562 369.604" stroke="#263238" stroke-width="2" stroke-miterlimit="10"/>
<path d="M373.366 371.514C373.205 370.701 373.221 369.863 373.411 369.056C373.601 368.249 373.963 367.492 374.47 366.836C375.517 365.421 381.695 361.126 382.842 363.383C384.094 365.832 378.228 372.399 373.366 371.514Z" fill="#50BFD7" stroke="#263238" stroke-miterlimit="10"/>
<path d="M373.366 371.514L379.31 365.839" stroke="#263238" stroke-width="0.5" stroke-miterlimit="10"/>
<path d="M369.169 361.706L373.069 355.337" stroke="#263238" stroke-width="2" stroke-miterlimit="10"/>
<path d="M371.88 357.22C371.719 356.407 371.734 355.569 371.923 354.762C372.112 353.956 372.471 353.199 372.977 352.542C374.024 351.127 380.209 346.831 381.356 349.089C382.601 351.558 376.735 358.133 371.88 357.22Z" fill="#50BFD7" stroke="#263238" stroke-miterlimit="10"/>
<path d="M371.88 357.248L377.824 351.573" stroke="#263238" stroke-width="0.5" stroke-miterlimit="10"/>
<path d="M366.983 340.788L370.889 334.426" stroke="#263238" stroke-width="2" stroke-miterlimit="10"/>
<path d="M369.693 336.337C369.533 335.522 369.548 334.683 369.739 333.875C369.929 333.067 370.29 332.309 370.797 331.652C371.845 330.237 378.023 325.948 379.169 328.198C380.421 330.647 374.555 337.221 369.693 336.337Z" fill="#50BFD7" stroke="#263238" stroke-miterlimit="10"/>
<path d="M369.693 336.337L375.638 330.654" stroke="#263238" stroke-width="0.5" stroke-miterlimit="10"/>
<path d="M365.313 327.413C365.152 326.6 365.167 325.761 365.358 324.954C365.548 324.147 365.909 323.391 366.417 322.735C367.464 321.32 373.642 317.024 374.788 319.282C376.041 321.73 370.174 328.297 365.313 327.413Z" fill="#50BFD7" stroke="#263238" stroke-miterlimit="10"/>
<path d="M365.313 327.413L371.257 321.737" stroke="#263238" stroke-width="0.5" stroke-miterlimit="10"/>
<path d="M365.66 327.661C364.834 327.735 364.003 327.632 363.22 327.358C362.438 327.085 361.723 326.648 361.124 326.075C359.814 324.887 356.17 318.291 358.562 317.385C361.131 316.402 367.047 322.919 365.66 327.661Z" fill="#50BFD7" stroke="#263238" stroke-miterlimit="10"/>
<path d="M365.66 327.661L360.635 321.157" stroke="#263238" stroke-width="0.5" stroke-miterlimit="10"/>
<path d="M395.268 342.953L384.009 451.438" stroke="#263238" stroke-width="2" stroke-miterlimit="10"/>
<path d="M386.5 430.745L382.594 424.391" stroke="#263238" stroke-width="2" stroke-miterlimit="10"/>
<path d="M383.79 426.294C383.956 425.483 383.946 424.647 383.762 423.84C383.578 423.033 383.223 422.275 382.722 421.617C381.674 420.201 375.489 415.913 374.343 418.17C373.062 420.619 378.928 427.186 383.79 426.294Z" fill="#50BFD7" stroke="#263238" stroke-miterlimit="10"/>
<path d="M383.79 426.294L378.178 420.916" stroke="#263238" stroke-width="0.5" stroke-miterlimit="10"/>
<path d="M389.628 400.642L385.722 394.28" stroke="#263238" stroke-width="2" stroke-miterlimit="10"/>
<path d="M386.911 396.19C387.071 395.377 387.056 394.539 386.866 393.732C386.675 392.925 386.314 392.168 385.807 391.513C384.759 390.097 378.574 385.809 377.428 388.059C376.182 390.515 382.056 397.075 386.911 396.19Z" fill="#50BFD7" stroke="#263238" stroke-miterlimit="10"/>
<path d="M386.911 396.19L381.299 390.805" stroke="#263238" stroke-width="0.5" stroke-miterlimit="10"/>
<path d="M388.347 412.983L384.441 406.621" stroke="#263238" stroke-width="2" stroke-miterlimit="10"/>
<path d="M385.63 408.532C385.791 407.718 385.775 406.878 385.585 406.07C385.394 405.262 385.033 404.504 384.526 403.847C383.478 402.432 377.3 398.144 376.154 400.401C374.937 402.849 380.775 409.417 385.63 408.532Z" fill="#50BFD7" stroke="#263238" stroke-miterlimit="10"/>
<path d="M385.63 408.532L380.018 403.147" stroke="#263238" stroke-width="0.5" stroke-miterlimit="10"/>
<path d="M391.709 380.601L387.802 374.239" stroke="#263238" stroke-width="2" stroke-miterlimit="10"/>
<path d="M388.991 376.15C389.152 375.336 389.137 374.498 388.946 373.691C388.756 372.884 388.395 372.128 387.887 371.472C386.84 370.057 380.655 365.768 379.509 368.019C378.263 370.474 384.137 377.034 388.991 376.15Z" fill="#50BFD7" stroke="#263238" stroke-miterlimit="10"/>
<path d="M388.991 376.15L383.379 370.764" stroke="#263238" stroke-width="0.5" stroke-miterlimit="10"/>
<path d="M393.796 360.475L389.89 354.113" stroke="#263238" stroke-width="2" stroke-miterlimit="10"/>
<path d="M391.079 356.023C391.24 355.209 391.225 354.37 391.034 353.562C390.844 352.753 390.483 351.996 389.975 351.339C388.928 349.923 382.743 345.635 381.596 347.892C380.351 350.341 386.26 356.908 391.079 356.023Z" fill="#50BFD7" stroke="#263238" stroke-miterlimit="10"/>
<path d="M391.079 356.023L385.467 350.638" stroke="#263238" stroke-width="0.5" stroke-miterlimit="10"/>
<path d="M387.158 423.428L392.289 418.008" stroke="#263238" stroke-width="2" stroke-miterlimit="10"/>
<path d="M390.732 419.628C390.737 418.794 390.922 417.972 391.273 417.216C391.625 416.46 392.136 415.789 392.77 415.248C394.086 414.066 401.021 411.15 401.679 413.592C402.394 416.274 395.303 421.496 390.732 419.628Z" fill="#50BFD7" stroke="#263238" stroke-miterlimit="10"/>
<path d="M390.732 419.628L397.717 415.297" stroke="#263238" stroke-width="0.5" stroke-miterlimit="10"/>
<path d="M390.527 390.961L395.657 385.54" stroke="#263238" stroke-width="2" stroke-miterlimit="10"/>
<path d="M394.1 387.161C394.109 386.332 394.296 385.514 394.648 384.764C394.999 384.013 395.508 383.346 396.138 382.808C397.455 381.634 404.39 378.711 405.048 381.153C405.763 383.806 398.672 389.064 394.1 387.161Z" fill="#50BFD7" stroke="#263238" stroke-miterlimit="10"/>
<path d="M394.1 387.161L401.085 382.83" stroke="#263238" stroke-width="0.5" stroke-miterlimit="10"/>
<path d="M392.013 376.694L397.136 371.267" stroke="#263238" stroke-width="2" stroke-miterlimit="10"/>
<path d="M395.58 372.894C395.589 372.065 395.775 371.248 396.127 370.497C396.478 369.746 396.987 369.08 397.618 368.542C398.934 367.36 405.869 364.445 406.527 366.886C407.242 369.54 400.151 374.762 395.58 372.894Z" fill="#50BFD7" stroke="#263238" stroke-miterlimit="10"/>
<path d="M395.58 372.894L402.564 368.563" stroke="#263238" stroke-width="0.5" stroke-miterlimit="10"/>
<path d="M394.178 355.776L399.309 350.355" stroke="#263238" stroke-width="2" stroke-miterlimit="10"/>
<path d="M397.752 351.976C397.762 351.147 397.948 350.33 398.3 349.579C398.651 348.828 399.16 348.162 399.79 347.624C401.106 346.449 408.041 343.526 408.699 345.968C409.414 348.621 402.323 353.844 397.752 351.976Z" fill="#50BFD7" stroke="#263238" stroke-miterlimit="10"/>
<path d="M397.752 351.976L404.737 347.645" stroke="#263238" stroke-width="0.5" stroke-miterlimit="10"/>
<path d="M395.303 342.359C395.313 341.53 395.5 340.713 395.851 339.962C396.203 339.212 396.711 338.545 397.342 338.007C398.658 336.832 405.586 333.909 406.251 336.351C406.966 338.99 399.875 344.213 395.303 342.359Z" fill="#50BFD7" stroke="#263238" stroke-miterlimit="10"/>
<path d="M395.303 342.345L402.288 338.014" stroke="#263238" stroke-width="0.5" stroke-miterlimit="10"/>
<path d="M395.587 342.656C394.762 342.561 393.968 342.29 393.258 341.861C392.547 341.433 391.937 340.857 391.468 340.172C390.435 338.757 388.262 331.538 390.76 331.142C393.471 330.703 397.922 338.311 395.587 342.656Z" fill="#50BFD7" stroke="#263238" stroke-miterlimit="10"/>
<path d="M395.586 342.656L392.006 335.254" stroke="#263238" stroke-width="0.5" stroke-miterlimit="10"/>
<path d="M382.368 298.781V435.968" stroke="#263238" stroke-width="2" stroke-miterlimit="10"/>
<path d="M382.481 415.34L377.938 409.417" stroke="#263238" stroke-width="2" stroke-miterlimit="10"/>
<path d="M379.317 411.193C379.394 410.367 379.293 409.534 379.021 408.75C378.748 407.967 378.311 407.25 377.739 406.65C376.55 405.34 369.955 401.696 369.049 404.081C368.066 406.65 374.583 412.573 379.317 411.193Z" fill="#50BFD7" stroke="#263238" stroke-miterlimit="10"/>
<path d="M379.317 411.193L373.182 406.416" stroke="#263238" stroke-width="0.5" stroke-miterlimit="10"/>
<path d="M382.481 389.56L377.938 383.637" stroke="#263238" stroke-width="2" stroke-miterlimit="10"/>
<path d="M379.317 385.413C379.394 384.587 379.293 383.754 379.021 382.97C378.748 382.187 378.311 381.471 377.739 380.87C376.55 379.561 369.955 375.916 369.049 378.301C368.066 380.87 374.583 386.793 379.317 385.413Z" fill="#50BFD7" stroke="#263238" stroke-miterlimit="10"/>
<path d="M425.317 385.412L419.182 380.636" stroke="#263238" stroke-width="0.5" stroke-miterlimit="10"/>
<path d="M382.481 359.293L377.938 353.37" stroke="#263238" stroke-width="2" stroke-miterlimit="10"/>
<path d="M379.317 355.146C379.394 354.32 379.293 353.487 379.021 352.704C378.748 351.92 378.311 351.204 377.739 350.603C376.55 349.294 369.955 345.649 369.049 348.034C368.066 350.603 374.583 356.512 379.317 355.146Z" fill="#50BFD7" stroke="#263238" stroke-miterlimit="10"/>
<path d="M379.317 355.146L373.182 350.369" stroke="#263238" stroke-width="0.5" stroke-miterlimit="10"/>
<path d="M382.481 339.139L377.938 333.216" stroke="#263238" stroke-width="2" stroke-miterlimit="10"/>
<path d="M379.317 334.992C379.394 334.167 379.293 333.335 379.02 332.553C378.748 331.77 378.311 331.055 377.739 330.456C376.55 329.147 369.955 325.502 369.049 327.887C368.066 330.456 374.583 336.379 379.317 334.992Z" fill="#50BFD7" stroke="#263238" stroke-miterlimit="10"/>
<path d="M379.317 334.992L373.182 330.222" stroke="#263238" stroke-width="0.5" stroke-miterlimit="10"/>
<path d="M382.481 318.907L377.938 312.984" stroke="#263238" stroke-width="2" stroke-miterlimit="10"/>
<path d="M379.317 314.76C379.394 313.934 379.293 313.101 379.021 312.317C378.748 311.534 378.311 310.817 377.739 310.217C376.55 308.908 369.955 305.263 369.049 307.648C368.066 310.217 374.583 316.175 379.317 314.76Z" fill="#50BFD7" stroke="#263238" stroke-miterlimit="10"/>
<path d="M379.317 314.76L373.182 309.983" stroke="#263238" stroke-width="0.5" stroke-miterlimit="10"/>
<path d="M382.381 423.209L386.917 417.286" stroke="#263238" stroke-width="2" stroke-miterlimit="10"/>
<path d="M385.552 419.062C385.476 418.236 385.577 417.403 385.849 416.619C386.121 415.836 386.558 415.12 387.13 414.519C388.319 413.217 394.914 409.565 395.82 411.957C396.797 414.54 390.279 420.449 385.552 419.062Z" fill="#50BFD7" stroke="#263238" stroke-miterlimit="10"/>
<path d="M385.538 419.062L392.041 414.031" stroke="#263238" stroke-width="0.5" stroke-miterlimit="10"/>
<path d="M382.381 382.207L386.917 376.284" stroke="#263238" stroke-width="2" stroke-miterlimit="10"/>
<path d="M385.552 378.06C385.476 377.234 385.577 376.401 385.849 375.618C386.121 374.834 386.558 374.118 387.13 373.517C388.319 372.215 394.914 368.563 395.82 370.955C396.797 373.496 390.279 379.447 385.552 378.06Z" fill="#50BFD7" stroke="#263238" stroke-miterlimit="10"/>
<path d="M385.538 378.06L392.041 373.029" stroke="#263238" stroke-width="0.5" stroke-miterlimit="10"/>
<path d="M382.381 361.975L386.917 356.045" stroke="#263238" stroke-width="2" stroke-miterlimit="10"/>
<path d="M385.552 357.828C385.476 357.002 385.577 356.169 385.849 355.386C386.121 354.602 386.558 353.886 387.13 353.285C388.319 351.976 394.914 348.331 395.82 350.716C396.797 353.285 390.279 359.208 385.552 357.828Z" fill="#50BFD7" stroke="#263238" stroke-miterlimit="10"/>
<path d="M385.538 357.828L392.041 352.79" stroke="#263238" stroke-width="0.5" stroke-miterlimit="10"/>
<path d="M382.381 335.225L386.917 329.302" stroke="#263238" stroke-width="2" stroke-miterlimit="10"/>
<path d="M385.552 331.078C385.476 330.252 385.577 329.42 385.849 328.636C386.121 327.852 386.558 327.136 387.13 326.535C388.319 325.226 394.914 321.582 395.82 323.967C396.797 326.535 390.279 332.451 385.552 331.078Z" fill="#50BFD7" stroke="#263238" stroke-miterlimit="10"/>
<path d="M385.538 331.078L392.041 326.047" stroke="#263238" stroke-width="0.5" stroke-miterlimit="10"/>
<path d="M382.381 314.194L386.917 308.271" stroke="#263238" stroke-width="2" stroke-miterlimit="10"/>
<path d="M385.552 310.047C385.476 309.221 385.577 308.388 385.849 307.604C386.121 306.821 386.558 306.104 387.13 305.504C388.319 304.202 394.914 300.55 395.82 302.942C396.797 305.504 390.279 311.427 385.552 310.047Z" fill="#50BFD7" stroke="#263238" stroke-miterlimit="10"/>
<path d="M385.538 310.047L392.041 305.015" stroke="#263238" stroke-width="0.5" stroke-miterlimit="10"/>
<path d="M382.106 300.72C382.029 299.894 382.13 299.061 382.402 298.277C382.675 297.494 383.112 296.777 383.684 296.177C384.873 294.875 391.468 291.223 392.374 293.615C393.336 296.177 386.847 302.107 382.106 300.72Z" fill="#50BFD7" stroke="#263238" stroke-miterlimit="10"/>
<path d="M382.106 300.72L388.609 295.688" stroke="#263238" stroke-width="0.5" stroke-miterlimit="10"/>
<path d="M382.424 301.003C381.594 300.991 380.777 300.802 380.026 300.448C379.275 300.094 378.609 299.583 378.072 298.951C376.897 297.635 373.989 290.699 376.43 290.041C379.084 289.334 384.292 296.431 382.424 301.003Z" fill="#50BFD7" stroke="#263238" stroke-miterlimit="10"/>
<path d="M382.424 301.003L378.1 294.011" stroke="#263238" stroke-width="0.5" stroke-miterlimit="10"/>
<path d="M388.015 471.542H373.486L371.668 434.85H389.826L388.015 471.542Z" fill="#263238" stroke="#263238" stroke-miterlimit="10"/>
<path d="M191.883 163.633L154.699 195.995L145.618 202.275L154.251 211.986H156.919L212.248 178.132L191.883 163.633Z" fill="#2C2C2C"/>
<path d="M287.958 183.071L313.808 225.044L318.514 235.036L329.501 228.109L329.948 225.491L305.606 165.357L287.958 183.071Z" fill="#2C2C2C"/>
<path d="M311.505 221.712L299.541 269.535L299.359 282.062L306.385 286.254L310.494 281.382L328.357 227.959L311.505 221.712Z" fill="#2C2C2C"/>
<path d="M242.638 155.58C248.007 155.58 256.375 154.47 256.375 150.825L255 138.662L253.79 128.024C253.79 124.378 249.432 121.412 244.064 121.412C241.379 121.412 238.943 122.158 237.187 123.351C235.43 124.544 234.337 126.201 234.337 128.024L233.16 138.679L232.017 148.886C230.459 155.05 242.638 155.58 242.638 155.58Z" fill="#2C2C2C"/>
<path d="M242.638 281.252C248.007 281.252 256.375 280.141 256.375 276.496L255 264.333L253.79 253.695C253.79 250.049 249.432 247.083 244.063 247.083C241.379 247.083 238.943 247.829 237.187 249.022C235.43 250.215 234.336 251.872 234.336 253.695L233.16 264.35L232.017 274.557C230.459 280.721 242.638 281.252 242.638 281.252Z" fill="#2C2C2C"/>
<path d="M308.373 171.421C308.373 181.993 301.446 188.538 290.874 188.538C280.302 188.538 271.735 179.971 271.735 169.399C271.735 158.827 279.722 147.162 289.797 150.327C300.899 153.79 308.373 160.849 308.373 171.421Z" fill="white"/>
<path d="M290.874 189.201C279.954 189.201 271.073 180.319 271.073 169.399C271.073 162.374 274.403 155.215 279.341 151.586C282.622 149.183 286.301 148.521 289.996 149.681C302.258 153.525 309.019 161.247 309.019 171.404C309.035 182.208 301.894 189.201 290.874 189.201ZM286.466 150.459C284.263 150.459 282.108 151.205 280.12 152.663C275.563 156.01 272.398 162.887 272.398 169.399C272.398 179.59 280.683 187.876 290.874 187.876C295.912 187.876 300.154 186.351 303.12 183.468C306.119 180.568 307.71 176.392 307.71 171.421C307.71 161.893 301.28 154.619 289.615 150.956C288.554 150.625 287.51 150.459 286.466 150.459Z" fill="#2C2C2C"/>
<path d="M299.757 168.339C299.757 176.16 294.637 180.999 286.815 180.999C278.994 180.999 272.664 174.669 272.664 166.848C272.664 159.026 278.563 150.393 286.02 152.73C294.222 155.315 299.757 160.534 299.757 168.339Z" fill="#2C2C2C"/>
<path d="M179.936 171.422C179.936 181.994 186.862 188.539 197.434 188.539C208.006 188.539 216.573 179.972 216.573 169.4C216.573 158.828 208.586 147.162 198.512 150.327C187.409 153.791 179.936 160.85 179.936 171.422Z" fill="white"/>
<path d="M197.434 189.202C186.399 189.202 179.273 182.225 179.273 171.422C179.273 161.264 186.034 153.542 198.296 149.698C201.991 148.538 205.687 149.201 208.951 151.603C213.905 155.232 217.22 162.391 217.22 169.417C217.236 180.32 208.354 189.202 197.434 189.202ZM201.842 150.46C200.798 150.46 199.754 150.626 198.71 150.957C187.045 154.619 180.615 161.894 180.615 171.422C180.615 176.393 182.206 180.568 185.205 183.468C188.188 186.352 192.414 187.876 197.451 187.876C207.642 187.876 215.927 179.591 215.927 169.4C215.927 162.888 212.746 155.994 208.205 152.664C206.184 151.189 204.046 150.46 201.842 150.46Z" fill="#2C2C2C"/>
<path d="M188.553 168.339C188.553 176.16 193.673 180.999 201.495 180.999C209.316 180.999 215.646 174.669 215.646 166.848C215.646 159.026 209.747 150.393 202.29 152.73C194.071 155.315 188.553 160.534 188.553 168.339Z" fill="#2C2C2C"/>
<path d="M256.723 142.523H231.52C220.517 143.517 209.995 145.787 200.168 149.151L219.026 245.823C220.384 252.816 226.515 257.87 233.641 257.87H254.95C262.092 257.87 268.24 252.799 269.582 245.773L288.091 149.151C278.265 145.787 267.743 143.517 256.723 142.523Z" fill="white"/>
<path d="M254.95 258.532H233.641C226.217 258.532 219.788 253.246 218.379 245.955L199.406 148.703L199.953 148.521C209.995 145.091 220.583 142.837 231.453 141.86H231.52H256.756H256.79C267.66 142.837 278.265 145.074 288.307 148.521L288.853 148.703L270.228 245.906C268.836 253.213 262.407 258.532 254.95 258.532ZM200.93 149.581L219.672 245.69C220.964 252.351 226.847 257.19 233.641 257.19H254.95C261.761 257.19 267.643 252.335 268.919 245.64L287.312 149.581C277.536 146.284 267.229 144.13 256.674 143.169H231.553C220.997 144.13 210.69 146.284 200.93 149.581Z" fill="#2C2C2C"/>
<path d="M213.159 145.439C215.529 160.419 217.898 175.399 220.268 190.362C222.389 201.63 233.077 209.136 244.229 209.202C255.381 209.136 266.069 201.646 268.19 190.362C270.559 175.399 272.929 160.435 275.298 145.489C269.3 144.097 263.086 143.086 256.723 142.523H231.519C225.222 143.086 219.091 144.08 213.159 145.439Z" fill="#50BFD7"/>
<path d="M244.245 209.865C238.562 209.832 232.961 207.943 228.47 204.513C223.797 200.966 220.666 195.979 219.622 190.477V190.461L212.414 144.925L213.01 144.793C219.025 143.401 225.239 142.423 231.453 141.86H231.519H256.756H256.789C263.086 142.423 269.366 143.434 275.464 144.842L276.061 144.975L268.853 190.477C267.825 195.979 264.677 200.95 260.004 204.513C255.513 207.943 249.913 209.832 244.245 209.865ZM220.931 190.262C221.908 195.432 224.858 200.121 229.266 203.469C233.541 206.716 238.86 208.523 244.245 208.539C249.631 208.506 254.95 206.7 259.209 203.469C263.616 200.121 266.566 195.432 267.544 190.262L274.553 146.002C268.72 144.677 262.722 143.732 256.69 143.185H231.552C225.604 143.716 219.671 144.643 213.905 145.953L220.931 190.262Z" fill="#2C2C2C"/>
<path d="M250.211 165.208H237.485C234.104 165.208 231.354 167.958 231.354 171.339V184.065C231.354 187.445 234.104 190.196 237.485 190.196H250.211C253.591 190.196 256.342 187.445 256.342 184.065V171.339C256.342 167.958 253.608 165.208 250.211 165.208ZM227.973 159.789C226.034 159.789 224.46 161.363 224.46 163.302C224.46 165.241 226.034 166.815 227.973 166.815C229.912 166.815 231.486 165.241 231.486 163.302C231.486 161.363 229.912 159.789 227.973 159.789Z" fill="white"/>
<path d="M249.316 172.797C248.504 170.626 246.433 169.184 244.113 169.184H240.666L247.477 186.451H254.784L249.316 172.797ZM235.397 181.496L233.408 186.451H240.666L244.046 177.884H240.6C238.28 177.884 236.209 179.326 235.397 181.496ZM236.523 173.476C237.717 173.476 238.694 172.499 238.694 171.306C238.694 170.112 237.717 169.135 236.523 169.135C235.33 169.135 234.353 170.112 234.353 171.306C234.353 172.499 235.33 173.476 236.523 173.476Z" fill="#50BFD7"/>
<path d="M256.458 135.994H231.818C228.272 135.994 225.355 133.094 225.355 129.532C225.355 125.985 228.255 123.069 231.818 123.069H256.458C260.004 123.069 262.92 125.969 262.92 129.532C262.904 133.094 260.004 135.994 256.458 135.994Z" fill="#50BFD7"/>
<path d="M256.458 136.657H231.818C227.89 136.657 224.692 133.459 224.692 129.532C224.692 125.604 227.89 122.406 231.818 122.406H256.458C260.385 122.406 263.583 125.604 263.583 129.532C263.583 133.459 260.369 136.657 256.458 136.657ZM231.818 123.748C228.62 123.748 226.018 126.35 226.018 129.548C226.018 132.746 228.62 135.348 231.818 135.348H256.458C259.656 135.348 262.258 132.746 262.258 129.548C262.258 126.35 259.656 123.748 256.458 123.748H231.818Z" fill="#2C2C2C"/>
<path d="M245.504 4.72192H242.753V22.7506H245.504V4.72192Z" fill="#2C2C2C"/>
<path d="M255.397 26.5464H232.861C232.447 26.5464 232.115 26.215 232.115 25.8007V15.4608C232.115 15.0465 232.447 14.7151 232.861 14.7151H255.397C255.811 14.7151 256.142 15.0465 256.142 15.4608V25.8173C256.142 26.215 255.811 26.5464 255.397 26.5464Z" fill="#50BFD7"/>
<path d="M255.397 27.209H232.861C232.082 27.209 231.453 26.5793 231.453 25.8005V15.4605C231.453 14.6817 232.082 14.052 232.861 14.052H255.397C256.176 14.052 256.805 14.6817 256.805 15.4605V25.817C256.805 26.5793 256.176 27.209 255.397 27.209ZM232.861 15.3611C232.811 15.3611 232.778 15.3942 232.778 15.4439V25.8005C232.778 25.8502 232.811 25.8833 232.861 25.8833H255.397C255.447 25.8833 255.48 25.8502 255.48 25.8005V15.4605C255.48 15.4108 255.447 15.3776 255.397 15.3776H232.861V15.3611Z" fill="#2C2C2C"/>
<path d="M247.659 3.51294C247.659 5.45168 246.085 7.02588 244.146 7.02588C242.207 7.02588 240.633 5.45168 240.633 3.51294C240.633 1.57419 242.207 0 244.146 0C246.068 0 247.659 1.57419 247.659 3.51294Z" fill="#2C2C2C"/>
<path d="M246.581 2.1535C246.581 2.75003 246.101 3.23058 245.504 3.23058C244.908 3.23058 244.427 2.75003 244.427 2.1535C244.427 1.55696 244.908 1.07642 245.504 1.07642C246.101 1.07642 246.581 1.55696 246.581 2.1535Z" fill="#2C2C2C"/>
<path d="M264.743 100.417C274.078 100.417 281.645 92.8498 281.645 83.5152C281.645 74.1805 274.078 66.6133 264.743 66.6133C255.409 66.6133 247.841 74.1805 247.841 83.5152C247.841 92.8498 255.409 100.417 264.743 100.417Z" fill="#002731"/>
<path d="M244.129 114.519C285.202 114.519 318.497 99.5705 318.497 81.13C318.497 62.6895 285.202 47.7405 244.129 47.7405C203.057 47.7405 169.761 62.6895 169.761 81.13C169.761 99.5705 203.057 114.519 244.129 114.519Z" fill="#2C2C2C"/>
<path d="M178.444 96.8055C179.77 97.9157 181.212 98.9927 182.802 100.02C178.958 88.9345 177.284 76.6392 177.682 66.1169C176.472 67.194 175.379 68.3208 174.434 69.4642C174.467 78.1471 175.777 87.7248 178.444 96.8055Z" fill="#50BFD7"/>
<path d="M313.808 69.4483C312.847 68.3049 311.754 67.1782 310.544 66.1011C311.174 76.7227 309.036 89.2334 304.794 100.468C306.434 99.4243 307.959 98.3472 309.334 97.2204C312.3 87.941 313.858 78.2141 313.808 69.4483Z" fill="#50BFD7"/>
<path d="M259.308 129.647H228.967C204.426 129.647 184.542 109.762 184.542 85.2215V78.4773C184.542 46.9934 210.06 21.4915 241.528 21.4915H246.714C278.198 21.4915 303.7 47.01 303.7 78.4773V85.2215C303.717 109.762 283.832 129.647 259.308 129.647Z" fill="white"/>
<path d="M259.307 130.31H228.967C216.92 130.31 205.603 125.62 197.085 117.103C188.568 108.586 183.879 97.2684 183.879 85.2217V78.4775C183.879 63.0836 189.877 48.601 200.764 37.7142C211.651 26.8274 226.133 20.8289 241.527 20.8289H246.714C262.108 20.8289 276.59 26.8274 287.477 37.7142C298.364 48.601 304.363 63.0836 304.363 78.4775V85.2217C304.363 97.2684 299.673 108.586 291.156 117.103C282.655 125.62 271.338 130.31 259.307 130.31ZM241.544 22.1545C226.498 22.1545 212.347 28.0204 201.708 38.6587C191.07 49.2969 185.204 63.4481 185.204 78.4941V85.2383C185.204 96.9204 189.761 107.907 198.013 116.175C206.282 124.444 217.268 128.984 228.95 128.984H259.291C270.973 128.984 281.959 124.427 290.228 116.175C298.497 107.907 303.037 96.9204 303.037 85.2383V78.4941C303.037 63.4481 297.171 49.2969 286.533 38.6587C275.894 28.0204 261.743 22.1545 246.697 22.1545H241.544Z" fill="#2C2C2C"/>
<path d="M231.851 104.427C232.232 107.41 233.69 110.161 235.943 112.149C238.197 114.138 241.113 115.248 244.129 115.248C247.145 115.248 250.045 114.154 252.315 112.149C254.569 110.161 256.027 107.41 256.408 104.427H231.851Z" fill="white"/>
<path d="M244.129 115.911C240.948 115.911 237.899 114.751 235.513 112.646C233.127 110.542 231.602 107.658 231.204 104.51L231.105 103.764H257.154L257.054 104.51C256.657 107.658 255.116 110.558 252.746 112.646C250.376 114.751 247.311 115.911 244.129 115.911ZM232.629 105.09C233.127 107.625 234.436 109.945 236.391 111.652C238.529 113.541 241.279 114.585 244.129 114.585C246.979 114.585 249.73 113.541 251.868 111.652C253.823 109.929 255.132 107.625 255.629 105.09H232.629Z" fill="#2C2C2C"/>
<path d="M244.129 57.0682C262.373 57.0682 278.91 51.5669 291.04 42.6519C280.584 29.7435 264.626 21.4915 246.714 21.4915H241.527C223.631 21.4915 207.657 29.7435 197.201 42.6519C209.347 51.5669 225.885 57.0682 244.129 57.0682Z" fill="#2C2C2C"/>
<path d="M244.129 29.9426C225.885 29.9426 209.347 35.444 197.218 44.3589C207.674 57.2673 223.631 65.5194 241.544 65.5194H246.73C264.626 65.5194 280.6 57.2673 291.056 44.3589C278.91 35.444 262.373 29.9426 244.129 29.9426Z" fill="#50BFD7"/>
<path d="M246.731 66.1988H241.544C224.062 66.1988 207.724 58.3941 196.705 44.7897L196.274 44.2429L196.837 43.8287C209.58 34.4498 226.382 29.2798 244.146 29.2798C261.893 29.2798 278.695 34.4498 291.454 43.8287L292.018 44.2429L291.587 44.7897C280.551 58.3941 264.213 66.1988 246.731 66.1988ZM198.179 44.4915C208.934 57.4496 224.692 64.8731 241.544 64.8731H246.731C263.583 64.8731 279.341 57.4496 290.096 44.4915C277.635 35.5269 261.346 30.6054 244.146 30.6054C226.912 30.6054 210.624 35.5269 198.179 44.4915Z" fill="#2C2C2C"/>
<path d="M285.572 93.3412C283.997 94.2858 282.224 94.7829 280.418 94.7829H207.856C206.05 94.7829 204.277 94.2858 202.703 93.3412C198.825 91.0214 196.621 86.3154 197.168 81.4934L197.201 81.1454C199.057 64.8235 211.27 52.2796 226.233 51.3351C232.563 50.9374 239.207 50.722 246.134 50.7717C251.569 50.8048 256.805 51.0037 261.859 51.3185C276.889 52.2631 289.184 64.7572 291.04 81.1454C291.056 81.2614 291.073 81.3774 291.073 81.4934C291.653 86.3154 289.449 91.0214 285.572 93.3412Z" fill="white"/>
<path d="M280.402 95.4461H207.857C205.934 95.4461 204.045 94.9158 202.355 93.905C198.213 91.436 195.926 86.5311 196.506 81.4109L196.539 81.0629C198.428 64.4096 210.906 51.6172 226.184 50.6561C232.795 50.2418 239.506 50.0595 246.134 50.0927C251.371 50.1258 256.673 50.3081 261.893 50.6395C277.27 51.6006 289.798 64.393 291.687 81.0463L291.72 81.3943C292.3 86.498 290.013 91.4029 285.87 93.8884C284.23 94.9158 282.324 95.4461 280.402 95.4461ZM244.162 51.4349C238.214 51.4349 232.215 51.6172 226.283 51.9983C211.651 52.9262 199.687 65.2215 197.865 81.2286L197.831 81.5766C197.301 86.1666 199.356 90.5743 203.051 92.7782C204.526 93.6564 206.2 94.1204 207.873 94.1204H280.435C282.109 94.1204 283.782 93.6564 285.257 92.7782C288.952 90.5743 290.991 86.1666 290.477 81.5766L290.444 81.2286C288.621 65.205 276.607 52.9097 261.876 51.9983C256.673 51.6669 251.387 51.4846 246.184 51.4515C245.472 51.4349 244.825 51.4349 244.162 51.4349Z" fill="#2C2C2C"/>
<path d="M232.447 73.7724C232.447 80.036 226.995 85.1397 220.301 85.1397C213.59 85.1397 208.155 80.0526 208.155 73.7724C208.155 67.4922 213.59 62.405 220.301 62.405C227.012 62.405 232.447 67.4922 232.447 73.7724Z" fill="white"/>
<path d="M220.301 85.8025C213.242 85.8025 207.492 80.4005 207.492 73.7723C207.492 67.1442 213.242 61.7422 220.301 61.7422C227.36 61.7422 233.11 67.1442 233.11 73.7723C233.11 80.4005 227.377 85.8025 220.301 85.8025ZM220.301 63.0678C213.971 63.0678 208.818 67.8733 208.818 73.7723C208.818 79.6714 213.971 84.4769 220.301 84.4769C226.631 84.4769 231.784 79.6714 231.784 73.7723C231.784 67.8733 226.631 63.0678 220.301 63.0678Z" fill="#2C2C2C"/>
<path d="M214.352 73.0593C214.352 78.2458 217.716 82.4382 221.858 82.4382C226.018 82.4382 229.381 78.2293 229.381 73.0593C229.381 67.8727 226.018 63.6638 221.858 63.6638C217.716 63.6638 214.352 67.8727 214.352 73.0593Z" fill="#50BFD7"/>
<path d="M216.523 73.06C216.523 76.7386 218.909 79.7213 221.859 79.7213C224.808 79.7213 227.195 76.7386 227.195 73.06C227.195 69.3648 224.808 66.3821 221.859 66.3821C218.909 66.3821 216.523 69.3648 216.523 73.06Z" fill="#2C2C2C"/>
<path d="M216.192 66.7461C216.192 67.7569 217.434 68.5688 218.942 68.5688C220.467 68.5688 221.693 67.7569 221.693 66.7461C221.693 65.7353 220.467 64.9233 218.942 64.9233C217.418 64.9233 216.192 65.7353 216.192 66.7461Z" fill="white"/>
<path d="M278.845 73.7724C278.845 80.036 273.393 85.1397 266.698 85.1397C259.987 85.1397 254.552 80.0526 254.552 73.7724C254.552 67.4922 259.987 62.405 266.698 62.405C273.393 62.405 278.845 67.4922 278.845 73.7724Z" fill="white"/>
<path d="M266.698 85.8025C259.639 85.8025 253.889 80.4005 253.889 73.7723C253.889 67.1442 259.639 61.7422 266.698 61.7422C273.757 61.7422 279.507 67.1442 279.507 73.7723C279.507 80.4005 273.757 85.8025 266.698 85.8025ZM266.698 63.0678C260.368 63.0678 255.215 67.8733 255.215 73.7723C255.215 79.6714 260.368 84.4769 266.698 84.4769C273.028 84.4769 278.182 79.6714 278.182 73.7723C278.182 67.8733 273.028 63.0678 266.698 63.0678Z" fill="#2C2C2C"/>
<path d="M260.75 73.0593C260.75 78.2458 264.113 82.4382 268.256 82.4382C272.415 82.4382 275.779 78.2293 275.779 73.0593C275.779 67.8727 272.415 63.6638 268.256 63.6638C264.113 63.6638 260.75 67.8727 260.75 73.0593Z" fill="#50BFD7"/>
<path d="M262.921 73.06C262.921 76.7386 265.307 79.7213 268.256 79.7213C271.206 79.7213 273.592 76.7386 273.592 73.06C273.592 69.3648 271.206 66.3821 268.256 66.3821C265.307 66.3821 262.921 69.3648 262.921 73.06Z" fill="#2C2C2C"/>
<path d="M262.573 66.7461C262.573 67.7569 263.815 68.5688 265.323 68.5688C266.848 68.5688 268.074 67.7569 268.074 66.7461C268.074 65.7353 266.848 64.9233 265.323 64.9233C263.815 64.9233 262.573 65.7353 262.573 66.7461Z" fill="white"/>
<path d="M220.45 397.045H237.236L243.533 280.505H214.153L220.45 397.045Z" fill="#2C2C2C"/>
<path d="M251.851 397.045H268.637L274.934 280.505H245.554L251.851 397.045Z" fill="#2C2C2C"/>
<path d="M224.692 445.795H234.17L237.733 398.701H221.129L224.692 445.795Z" fill="#2C2C2C"/>
<path d="M255.497 445.795H264.975L268.538 398.701H251.934L255.497 445.795Z" fill="#2C2C2C"/>
<path d="M334.774 220.485C335.256 217.587 329.616 214.235 322.177 212.999C314.738 211.762 308.317 213.109 307.835 216.007C307.353 218.905 312.993 222.256 320.432 223.493C327.871 224.73 334.292 223.383 334.774 220.485Z" fill="white"/>
<path d="M325.788 224.646C324.049 224.646 322.209 224.497 320.32 224.182C316.642 223.569 313.261 222.426 310.825 220.968C308.191 219.41 306.898 217.604 307.18 215.914C307.462 214.223 309.268 212.948 312.267 212.318C315.051 211.738 318.613 211.754 322.292 212.351C325.971 212.964 329.351 214.107 331.787 215.566C334.422 217.123 335.714 218.929 335.432 220.62L334.786 220.504L335.432 220.62C335.151 222.31 333.345 223.586 330.345 224.215C328.987 224.497 327.429 224.646 325.788 224.646ZM316.824 213.213C315.266 213.213 313.808 213.345 312.532 213.61C310.146 214.107 308.671 215.035 308.489 216.129C308.307 217.223 309.4 218.582 311.505 219.824C313.808 221.2 317.023 222.277 320.552 222.857C324.065 223.437 327.462 223.453 330.097 222.906C332.483 222.409 333.958 221.481 334.14 220.388C334.322 219.294 333.229 217.935 331.124 216.692C328.821 215.317 325.606 214.24 322.077 213.66C320.254 213.362 318.481 213.213 316.824 213.213Z" fill="#2C2C2C"/>
<path d="M229.465 401.37C235.761 401.37 240.865 398.781 240.865 395.587C240.865 392.393 235.761 389.804 229.465 389.804C223.168 389.804 218.064 392.393 218.064 395.587C218.064 398.781 223.168 401.37 229.465 401.37Z" fill="white"/>
<path d="M229.464 402.016C222.704 402.016 217.401 399.182 217.401 395.57C217.401 391.958 222.704 389.124 229.464 389.124C236.225 389.124 241.528 391.958 241.528 395.57C241.528 399.182 236.225 402.016 229.464 402.016ZM229.464 390.466C223.648 390.466 218.727 392.803 218.727 395.587C218.727 398.37 223.648 400.707 229.464 400.707C235.281 400.707 240.202 398.37 240.202 395.587C240.202 392.803 235.281 390.466 229.464 390.466Z" fill="#2C2C2C"/>
<path d="M260.601 401.37C266.897 401.37 272.001 398.781 272.001 395.587C272.001 392.393 266.897 389.804 260.601 389.804C254.305 389.804 249.2 392.393 249.2 395.587C249.2 398.781 254.305 401.37 260.601 401.37Z" fill="white"/>
<path d="M260.601 402.016C253.84 402.016 248.537 399.182 248.537 395.57C248.537 391.958 253.84 389.124 260.601 389.124C267.361 389.124 272.664 391.958 272.664 395.57C272.664 399.182 267.378 402.016 260.601 402.016ZM260.601 390.466C254.784 390.466 249.863 392.803 249.863 395.587C249.863 398.37 254.784 400.707 260.601 400.707C266.417 400.707 271.338 398.37 271.338 395.587C271.338 392.803 266.433 390.466 260.601 390.466Z" fill="#2C2C2C"/>
<path d="M332.471 229.949C333.604 227.228 328.892 222.679 321.947 219.787C315.003 216.895 308.454 216.756 307.322 219.477C306.189 222.197 310.9 226.747 317.845 229.639C324.79 232.53 331.338 232.669 332.471 229.949Z" fill="white"/>
<path d="M327.644 232.583C327.479 232.583 327.329 232.583 327.164 232.583C324.297 232.5 320.817 231.638 317.404 230.197C312.051 227.927 307.876 224.629 306.782 221.795C306.401 220.818 306.401 219.923 306.749 219.144C307.461 217.587 309.549 216.791 312.631 216.891C315.498 216.973 318.978 217.835 322.391 219.277C327.744 221.547 331.919 224.844 333.013 227.678C333.394 228.656 333.394 229.55 333.046 230.329C332.367 231.787 330.461 232.583 327.644 232.583ZM312.118 218.2C309.897 218.2 308.373 218.73 307.942 219.691C307.743 220.138 307.76 220.669 308.008 221.315C308.969 223.784 312.946 226.866 317.917 228.971C321.198 230.362 324.496 231.174 327.213 231.257C329.682 231.34 331.373 230.793 331.853 229.766C332.052 229.318 332.035 228.788 331.787 228.142C330.826 225.673 326.849 222.591 321.878 220.486C318.597 219.094 315.299 218.283 312.582 218.2C312.416 218.2 312.267 218.2 312.118 218.2Z" fill="#2C2C2C"/>
<path d="M249.962 261.963H244.129H238.297C220.931 261.963 206.332 271.889 212.032 280.373C217.269 288.161 231.668 300.059 244.146 300.241C256.624 300.075 271.023 288.178 276.26 280.373C281.927 271.889 267.345 261.963 249.962 261.963Z" fill="#50BFD7"/>
<path d="M244.129 300.903C236.855 300.804 229.696 296.943 224.99 293.712C219.505 289.967 214.335 284.996 211.485 280.737C209.795 278.218 209.663 275.435 211.137 272.701C212.794 269.602 216.407 266.735 221.295 264.631C226.316 262.477 232.348 261.3 238.313 261.3H249.979C255.927 261.3 261.976 262.477 266.996 264.631C271.901 266.735 275.514 269.602 277.154 272.701C278.612 275.435 278.496 278.218 276.806 280.737C273.956 284.996 268.769 289.967 263.301 293.712C258.562 296.927 251.404 300.804 244.129 300.903ZM238.296 262.626C232.513 262.626 226.664 263.769 221.809 265.857C217.186 267.845 213.805 270.497 212.297 273.33C211.071 275.633 211.154 277.887 212.579 280.008C217.882 287.896 232.165 299.412 244.129 299.578C256.11 299.412 270.393 287.896 275.679 280.008C277.104 277.887 277.204 275.633 275.961 273.33C274.453 270.497 271.073 267.845 266.45 265.857C261.594 263.769 255.745 262.626 249.962 262.626H238.296Z" fill="#2C2C2C"/>
<path d="M301.48 297.323L293.957 294.738C293.195 294.473 292.797 293.645 293.046 292.883L299.541 263.934C300.85 260.139 304.977 258.101 308.788 259.41L311.721 260.421C315.515 261.73 317.553 265.856 316.244 269.667L303.336 296.412C303.054 297.191 302.242 297.589 301.48 297.323Z" fill="white"/>
<path d="M301.944 298.069C301.712 298.069 301.48 298.036 301.265 297.953L293.742 295.368C293.212 295.186 292.781 294.805 292.532 294.291C292.284 293.794 292.251 293.231 292.416 292.717L298.912 263.768L298.929 263.735C300.354 259.593 304.877 257.389 309.003 258.797L311.936 259.808C313.941 260.487 315.565 261.929 316.493 263.835C317.421 265.74 317.554 267.894 316.874 269.899L316.841 269.966L303.949 296.677C303.618 297.539 302.806 298.069 301.944 298.069ZM301.696 296.694C302.11 296.843 302.557 296.611 302.707 296.197L302.74 296.131L315.632 269.419C316.195 267.762 316.079 265.972 315.3 264.398C314.521 262.807 313.179 261.631 311.506 261.051L308.573 260.04C305.142 258.864 301.381 260.686 300.188 264.116L293.692 293.065L293.676 293.098C293.609 293.297 293.626 293.512 293.709 293.711C293.792 293.91 293.957 294.043 294.156 294.109L301.696 296.694Z" fill="#2C2C2C"/>
<path d="M302.374 282.891C299.955 282.063 297.436 282.195 295.249 283.107L293.045 292.916C292.78 293.679 293.194 294.507 293.956 294.772L301.479 297.357C302.241 297.622 303.07 297.208 303.335 296.446L307.776 287.249C306.566 285.261 304.71 283.687 302.374 282.891Z" fill="#50BFD7"/>
<path d="M301.943 298.07C301.711 298.07 301.48 298.037 301.264 297.954L293.741 295.369C292.647 294.988 292.051 293.811 292.415 292.718L294.686 282.61L295 282.477C297.42 281.483 300.121 281.4 302.606 282.262C304.992 283.074 307.031 284.714 308.34 286.885L308.522 287.2L303.949 296.695C303.617 297.54 302.805 298.07 301.943 298.07ZM295.812 283.587L293.675 293.082L293.658 293.115C293.509 293.53 293.741 293.977 294.155 294.126L301.678 296.711C302.093 296.86 302.54 296.628 302.689 296.214L302.722 296.148L306.997 287.283C305.838 285.543 304.131 284.217 302.142 283.521C300.088 282.809 297.851 282.825 295.812 283.587Z" fill="#2C2C2C"/>
<path d="M304.414 295.997C304.414 295.997 303.916 290.363 296.924 289.336C289.931 288.292 289.384 295.5 286.418 297.704C283.435 299.908 279.906 303.222 280.9 304.564C281.894 305.907 288.506 303.305 290.13 302.095C291.77 300.886 291.505 310.646 291.107 313.363C290.71 316.081 283.618 321.914 284.827 323.554C286.037 325.195 296.808 317.324 298.216 316.28C299.641 315.219 304.032 298.582 304.414 295.997Z" fill="white"/>
<path d="M285.374 324.433C284.827 324.433 284.512 324.217 284.313 323.936C283.352 322.627 285.075 320.555 287.279 317.937C288.704 316.23 290.312 314.308 290.477 313.248C290.643 312.171 290.792 309.702 290.776 307.282C290.743 304.333 290.477 303.189 290.312 302.775C289.284 303.438 287.313 304.316 285.49 304.896C281.331 306.222 280.618 305.261 280.386 304.946C279.392 303.604 281.115 301.648 281.695 301.002C282.739 299.842 284.313 298.434 286.037 297.158C286.882 296.528 287.561 295.352 288.274 294.125C289.864 291.358 291.853 287.895 297.039 288.674C300.9 289.237 302.872 291.176 303.866 292.684C304.943 294.341 305.076 295.865 305.093 295.932V296.014L305.076 296.097C304.861 297.522 303.601 302.56 302.358 306.901C299.757 315.982 298.945 316.578 298.647 316.81C298.05 317.241 294.968 319.528 291.836 321.483C288.207 323.737 286.368 324.433 285.374 324.433ZM285.357 323.107C285.639 323.14 286.898 323.024 291.538 320.075C294.488 318.202 297.305 316.131 297.835 315.733C297.901 315.667 298.73 314.722 301.116 306.387C302.425 301.814 303.535 297.307 303.75 295.998C303.668 295.352 302.856 290.894 296.841 289.999C292.549 289.37 290.958 292.137 289.417 294.805C288.638 296.164 287.892 297.456 286.832 298.251C285.175 299.478 283.667 300.82 282.689 301.913C281.43 303.322 281.331 304.018 281.463 304.184C281.596 304.316 282.573 304.498 285.225 303.637C287.213 302.991 289.102 302.079 289.781 301.582C290.146 301.3 290.593 301.267 290.941 301.483C291.289 301.698 292.035 302.129 292.101 307.034C292.135 309.619 291.969 312.27 291.803 313.463C291.588 314.905 289.997 316.794 288.323 318.815C287.412 319.909 286.534 320.953 285.97 321.815C285.39 322.643 285.357 322.991 285.357 323.107Z" fill="#2C2C2C"/>
<path d="M156.588 193.112L117.746 162.755L106.362 157.502L99.7012 162.225L102.468 167.958L144.044 205.988L156.588 193.112Z" fill="#2C2C2C"/>
<path d="M160.211 206.4C164.363 200.105 165.741 193.69 163.289 192.073C160.836 190.455 155.482 194.247 151.33 200.542C147.178 206.837 145.801 213.252 148.253 214.869C150.705 216.487 156.059 212.695 160.211 206.4Z" fill="white"/>
<path d="M149.578 215.897C148.932 215.897 148.369 215.731 147.871 215.416C146.446 214.471 145.999 212.301 146.645 209.318C147.242 206.534 148.7 203.286 150.755 200.171C152.809 197.056 155.212 194.438 157.549 192.797C160.051 191.024 162.205 190.577 163.646 191.521C165.072 192.466 165.519 194.637 164.873 197.619C164.276 200.403 162.818 203.651 160.763 206.766C158.708 209.881 156.306 212.5 153.969 214.14C152.329 215.3 150.821 215.897 149.578 215.897ZM148.617 214.306C149.545 214.919 151.219 214.455 153.224 213.046C155.411 211.489 157.714 209.003 159.67 206.021C161.641 203.038 163.033 199.956 163.597 197.321C164.11 194.935 163.862 193.212 162.934 192.598C162.006 191.985 160.332 192.449 158.327 193.858C156.14 195.415 153.837 197.901 151.881 200.884C149.926 203.866 148.518 206.949 147.954 209.583C147.441 211.986 147.673 213.693 148.617 214.306Z" fill="#2C2C2C"/>
<path d="M154.099 203.422C159.563 198.251 162.35 192.324 160.325 190.184C158.299 188.044 152.228 190.501 146.764 195.672C141.3 200.843 138.513 206.77 140.539 208.91C142.564 211.05 148.636 208.593 154.099 203.422Z" fill="white"/>
<path d="M142.685 210.345C142.602 210.345 142.503 210.345 142.42 210.345C141.376 210.295 140.547 209.947 139.984 209.301C138.857 208.009 138.973 205.788 140.315 203.004C141.558 200.419 143.745 197.586 146.463 195.05C150.705 191.074 155.411 188.605 158.46 188.754C159.504 188.803 160.332 189.151 160.896 189.798C162.023 191.09 161.907 193.311 160.564 196.094C159.322 198.679 157.134 201.513 154.417 204.048C150.274 207.909 145.717 210.345 142.685 210.345ZM158.178 190.063C155.51 190.063 151.202 192.416 147.374 196.012C144.773 198.447 142.701 201.132 141.508 203.568C140.431 205.805 140.249 207.561 140.995 208.406C141.309 208.771 141.823 208.97 142.503 209.003C142.569 209.003 142.635 209.003 142.718 209.003C145.386 209.003 149.694 206.65 153.522 203.054C156.123 200.618 158.195 197.934 159.388 195.498C160.465 193.261 160.647 191.504 159.902 190.659C159.587 190.295 159.073 190.096 158.394 190.063C158.311 190.079 158.244 190.063 158.178 190.063Z" fill="#2C2C2C"/>
<path d="M91.565 153.227L96.9835 147.394C97.5303 146.798 98.4583 146.764 99.0382 147.311L122.85 165.009C125.8 167.743 125.965 172.349 123.231 175.282L121.127 177.552C118.393 180.502 113.786 180.668 110.853 177.934L91.6478 155.282C91.0513 154.735 91.0181 153.823 91.565 153.227Z" fill="white"/>
<path d="M115.791 180.552C113.852 180.552 111.914 179.856 110.389 178.431L110.34 178.381L91.1675 155.746C90.7698 155.365 90.5378 154.851 90.5212 154.304C90.5047 153.741 90.7035 153.194 91.0846 152.78L96.5032 146.947C97.282 146.102 98.6076 146.035 99.4693 146.814L123.281 164.512L123.314 164.528C126.529 167.511 126.711 172.532 123.728 175.746L121.624 178.016C120.05 179.69 117.929 180.552 115.791 180.552ZM111.334 177.486C114.002 179.939 118.177 179.773 120.646 177.122L122.751 174.851C125.22 172.184 125.071 168.008 122.436 165.539L98.6242 147.825L98.591 147.808C98.2762 147.51 97.7625 147.527 97.4642 147.858L92.0623 153.674L91.5817 153.227L92.0623 153.674C91.9131 153.824 91.8469 154.039 91.8469 154.238C91.8469 154.453 91.9463 154.652 92.0954 154.785L92.1451 154.834L111.334 177.486Z" fill="#2C2C2C"/>
<path d="M104.407 159.922C106.147 158.049 107.042 155.696 107.108 153.327L99.0382 147.328C98.4417 146.782 97.5303 146.815 96.9835 147.411L91.565 153.227C91.0181 153.824 91.0513 154.735 91.6478 155.282L98.2594 163.07C100.53 162.789 102.717 161.728 104.407 159.922Z" fill="#50BFD7"/>
<path d="M97.9779 163.783L91.1675 155.746C90.7698 155.365 90.5378 154.851 90.5212 154.304C90.5047 153.741 90.7035 153.194 91.0846 152.78L96.5032 146.947C96.8843 146.533 97.4145 146.301 97.9779 146.268C98.5248 146.251 99.055 146.433 99.4693 146.798L107.788 152.979L107.771 153.327C107.688 155.945 106.661 158.447 104.888 160.353C103.164 162.225 100.845 163.418 98.3425 163.733L97.9779 163.783ZM98.0608 147.593C98.0442 147.593 98.0442 147.593 98.0276 147.593C97.8122 147.593 97.6134 147.693 97.4808 147.842L92.0623 153.675C91.9131 153.824 91.8469 154.039 91.8469 154.238C91.8469 154.453 91.9463 154.652 92.0954 154.785L92.1451 154.835L98.5082 162.341C100.579 161.993 102.485 160.982 103.91 159.441C105.402 157.834 106.28 155.779 106.429 153.608L98.6076 147.809L98.5745 147.792C98.4419 147.676 98.2596 147.593 98.0608 147.593Z" fill="#2C2C2C"/>
<path d="M91.5983 156.458C91.5983 156.458 96.9505 158.297 100.729 152.332C104.523 146.367 98.1602 142.936 97.3482 139.324C96.5363 135.712 94.9455 131.138 93.3216 131.503C91.6977 131.867 91.3829 138.96 91.8303 140.948C92.2777 142.936 83.4622 138.744 81.1423 137.269C78.8225 135.795 76.37 126.946 74.3816 127.393C72.3931 127.841 75.2101 140.865 75.5912 142.588C75.9723 144.295 89.3778 155.049 91.5983 156.458Z" fill="white"/>
<path d="M93.537 157.386C92.2777 157.386 91.416 157.104 91.3663 157.088L91.3 157.055L91.2337 157.005C90.0241 156.243 85.9312 153.028 82.4679 150.128C75.2267 144.063 75.0112 143.086 74.9284 142.705C74.7627 141.992 73.9507 138.231 73.4205 134.585C72.4925 128.04 73.2548 126.946 74.2159 126.731C75.8066 126.383 76.9831 128.802 78.491 131.867C79.4687 133.856 80.5623 136.11 81.4737 136.689C82.4017 137.269 84.589 138.413 86.8094 139.374C89.527 140.55 90.6703 140.766 91.1012 140.782C90.9023 139.573 90.9023 137.402 91.1177 135.513C91.5983 131.172 92.7748 130.906 93.1559 130.824C94.7964 130.459 95.8735 132.845 96.2214 133.624C96.8677 135.049 97.4974 137.054 97.9779 139.158C98.2099 140.186 99.0053 141.28 99.8504 142.423C101.739 145.008 104.092 148.223 101.275 152.647C99.1876 155.944 96.6191 156.972 94.8295 157.253C94.3821 157.353 93.9347 157.386 93.537 157.386ZM91.88 155.845C92.5097 156.027 96.9008 157.104 100.165 151.967C102.485 148.305 100.613 145.72 98.7899 143.235C97.8619 141.959 96.9837 140.766 96.702 139.473C96.2546 137.468 95.6415 135.53 95.0449 134.204C94.2661 132.481 93.6696 132.116 93.4707 132.149C93.305 132.215 92.7416 133.044 92.4434 135.811C92.228 137.883 92.2942 139.987 92.4765 140.799C92.5759 141.246 92.4268 141.661 92.0954 141.909C91.764 142.141 91.0515 142.638 86.5443 140.716C84.1581 139.689 81.7886 138.463 80.7778 137.816C79.5515 137.037 78.4579 134.817 77.3145 132.464C76.6849 131.188 76.0883 129.962 75.5249 129.1C74.9781 128.272 74.6798 128.089 74.5638 128.056C74.4147 128.288 74.017 129.498 74.829 134.933C75.3426 138.38 76.1049 141.81 76.2375 142.456C76.2706 142.555 76.8008 143.682 83.4456 149.25C87.1077 152.282 90.7532 155.116 91.88 155.845Z" fill="#2C2C2C"/>
<path d="M264.18 473.186H256.275C255.48 473.186 254.834 472.539 254.834 471.744L251.619 442.431C251.619 438.437 254.85 435.206 258.844 435.206H261.926C265.919 435.206 269.151 438.437 269.151 442.431L265.638 471.744C265.638 472.539 264.991 473.186 264.18 473.186Z" fill="white"/>
<path d="M264.179 473.849H256.275C255.132 473.849 254.187 472.921 254.171 471.777L250.956 442.464V442.431C250.956 438.073 254.502 434.543 258.844 434.543H261.926C266.284 434.543 269.813 438.09 269.813 442.431V442.514L266.3 471.794C266.267 472.921 265.339 473.849 264.179 473.849ZM252.265 442.398L255.48 471.711V471.744C255.48 472.175 255.828 472.523 256.259 472.523H264.179C264.61 472.523 264.958 472.175 264.958 471.744V471.661L268.471 442.381C268.454 438.769 265.505 435.853 261.909 435.853H258.827C255.231 435.853 252.282 438.786 252.265 442.398Z" fill="#2C2C2C"/>
<path d="M255.414 483.361C254.535 482.714 253.806 481.886 253.243 480.958C252.679 480.013 252.315 478.986 252.166 477.892C252.017 476.815 252.066 475.705 252.332 474.645C252.597 473.584 253.077 472.59 253.723 471.712L254.237 471.082C255.264 469.955 256.574 469.143 258.032 468.712C259.49 468.282 261.031 468.265 262.506 468.646C263.981 469.027 265.306 469.823 266.367 470.916C267.427 472.01 268.156 473.369 268.488 474.86C268.819 476.335 268.736 477.892 268.256 479.318C267.775 480.759 266.897 482.035 265.737 483.013C264.577 483.99 263.169 484.637 261.661 484.869C260.153 485.101 258.628 484.918 257.22 484.355C256.574 484.106 255.977 483.758 255.414 483.361Z" fill="white"/>
<path d="M260.368 485.647C259.208 485.647 258.048 485.415 256.971 484.984C256.275 484.703 255.629 484.338 255.016 483.891C254.071 483.178 253.276 482.3 252.663 481.289C252.05 480.278 251.669 479.152 251.486 477.992C251.321 476.815 251.37 475.639 251.669 474.495C251.967 473.352 252.464 472.275 253.177 471.33L253.193 471.314L253.74 470.651C254.85 469.441 256.259 468.563 257.833 468.099C259.407 467.635 261.081 467.619 262.671 468.033C264.262 468.447 265.704 469.292 266.831 470.485C267.974 471.662 268.769 473.136 269.117 474.744C269.482 476.351 269.399 478.008 268.869 479.566C268.339 481.123 267.411 482.499 266.151 483.559C264.892 484.62 263.384 485.316 261.76 485.564C261.313 485.614 260.849 485.647 260.368 485.647ZM255.795 482.83C256.308 483.211 256.872 483.526 257.468 483.758C258.761 484.288 260.186 484.454 261.561 484.239C262.937 484.023 264.246 483.427 265.306 482.532C266.367 481.637 267.179 480.461 267.626 479.135C268.073 477.809 268.14 476.384 267.841 475.026C267.527 473.667 266.864 472.407 265.886 471.397C264.908 470.386 263.682 469.673 262.34 469.309C260.981 468.944 259.556 468.977 258.214 469.358C256.872 469.756 255.679 470.502 254.734 471.529L254.237 472.126C253.641 472.938 253.21 473.832 252.961 474.81C252.713 475.788 252.663 476.799 252.812 477.793C252.961 478.787 253.293 479.732 253.806 480.61C254.32 481.471 254.999 482.217 255.795 482.83Z" fill="#2C2C2C"/>
<path d="M246.697 483.957C245.786 486.244 247.426 488.597 249.597 488.597H271.139C273.326 488.597 274.95 486.244 274.039 483.957C271.42 477.346 266.284 472.872 260.368 472.872C254.469 472.872 249.332 477.346 246.697 483.957Z" fill="#50BFD7"/>
<path d="M271.139 489.26H249.597C248.371 489.26 247.194 488.63 246.482 487.57C245.719 486.443 245.57 485.001 246.084 483.709C248.901 476.617 254.386 472.209 260.368 472.209C266.366 472.209 271.835 476.617 274.652 483.709C275.165 485.001 275.016 486.443 274.254 487.57C273.541 488.63 272.381 489.26 271.139 489.26ZM247.327 484.206C246.979 485.101 247.062 486.062 247.592 486.824C248.072 487.52 248.818 487.934 249.614 487.934H271.155C271.951 487.934 272.713 487.52 273.177 486.824C273.707 486.045 273.79 485.101 273.442 484.206C270.824 477.627 265.819 473.534 260.384 473.534C254.933 473.534 249.928 477.611 247.327 484.206Z" fill="#2C2C2C"/>
<path d="M233.276 473.186H225.355C224.56 473.186 223.914 472.539 223.914 471.744L220.699 442.431C220.699 438.437 223.93 435.206 227.924 435.206H231.006C234.999 435.206 238.231 438.437 238.231 442.431L234.718 471.744C234.718 472.539 234.071 473.186 233.276 473.186Z" fill="white"/>
<path d="M233.276 473.849H225.355C224.212 473.849 223.267 472.921 223.251 471.777L220.036 442.464V442.431C220.036 438.073 223.582 434.543 227.924 434.543H231.006C235.364 434.543 238.893 438.09 238.893 442.431V442.514L235.38 471.794C235.364 472.921 234.419 473.849 233.276 473.849ZM221.362 442.398L224.576 471.711V471.744C224.576 472.175 224.924 472.523 225.355 472.523H233.276C233.707 472.523 234.055 472.175 234.055 471.744V471.661L237.568 442.381C237.551 438.769 234.602 435.853 231.006 435.853H227.924C224.311 435.853 221.378 438.786 221.362 442.398Z" fill="#2C2C2C"/>
<path d="M224.494 483.361C223.616 482.714 222.887 481.886 222.323 480.958C221.76 480.013 221.395 478.986 221.246 477.892C221.097 476.815 221.147 475.705 221.412 474.645C221.677 473.584 222.157 472.59 222.804 471.712L223.317 471.082C224.345 469.955 225.654 469.143 227.112 468.712C228.57 468.282 230.111 468.265 231.586 468.646C233.061 469.027 234.387 469.823 235.447 470.916C236.508 472.01 237.237 473.369 237.568 474.86C237.899 476.335 237.817 477.892 237.336 479.318C236.856 480.759 235.977 482.035 234.817 483.013C233.657 483.99 232.249 484.637 230.741 484.869C229.233 485.101 227.709 484.918 226.3 484.355C225.67 484.106 225.057 483.758 224.494 483.361Z" fill="white"/>
<path d="M229.465 485.647C228.305 485.647 227.145 485.415 226.068 484.984C225.372 484.703 224.726 484.338 224.113 483.891C223.168 483.178 222.373 482.3 221.76 481.289C221.147 480.278 220.766 479.152 220.583 477.992C220.418 476.815 220.467 475.639 220.766 474.495C221.064 473.352 221.561 472.275 222.273 471.33L222.29 471.314L222.837 470.651C223.947 469.441 225.356 468.563 226.93 468.099C228.504 467.635 230.178 467.619 231.768 468.033C233.359 468.447 234.801 469.292 235.928 470.485C237.071 471.662 237.866 473.136 238.214 474.744C238.579 476.351 238.496 478.008 237.966 479.566C237.435 481.123 236.508 482.499 235.248 483.559C233.989 484.62 232.481 485.316 230.857 485.564C230.393 485.614 229.929 485.647 229.465 485.647ZM224.892 482.83C225.405 483.211 225.969 483.526 226.565 483.758C227.858 484.288 229.283 484.454 230.658 484.239C232.033 484.023 233.343 483.427 234.403 482.532C235.464 481.637 236.276 480.461 236.723 479.135C237.17 477.809 237.237 476.384 236.938 475.026C236.624 473.667 235.961 472.407 234.983 471.397C234.005 470.386 232.779 469.673 231.437 469.309C230.078 468.944 228.653 468.977 227.311 469.358C225.969 469.756 224.776 470.502 223.831 471.529L223.334 472.126C222.737 472.938 222.307 473.832 222.058 474.81C221.81 475.788 221.76 476.799 221.909 477.793C222.058 478.787 222.389 479.732 222.903 480.61C223.417 481.471 224.08 482.217 224.892 482.83Z" fill="#2C2C2C"/>
<path d="M215.794 483.957C214.883 486.244 216.523 488.597 218.694 488.597H240.236C242.423 488.597 244.047 486.244 243.135 483.957C240.517 477.346 235.38 472.872 229.465 472.872C223.549 472.872 218.412 477.346 215.794 483.957Z" fill="#50BFD7"/>
<path d="M240.235 489.26H218.694C217.468 489.26 216.291 488.63 215.579 487.57C214.816 486.443 214.667 485.001 215.181 483.709C217.998 476.617 223.483 472.209 229.465 472.209C235.463 472.209 240.931 476.617 243.748 483.709C244.262 485.001 244.113 486.443 243.351 487.57C242.638 488.63 241.462 489.26 240.235 489.26ZM216.407 484.206C216.059 485.101 216.142 486.062 216.672 486.824C217.153 487.52 217.898 487.934 218.694 487.934H240.235C241.031 487.934 241.793 487.52 242.257 486.824C242.787 486.045 242.87 485.101 242.522 484.206C239.904 477.627 234.9 473.534 229.465 473.534C224.03 473.534 219.025 477.611 216.407 484.206Z" fill="#2C2C2C"/>
<path d="M129.344 94.4442C129.744 94.8442 130.215 95.1622 130.736 95.3837C131.824 95.8391 133.048 95.8391 134.137 95.3837C135.187 94.9365 136.024 94.1017 136.469 93.0515C136.925 91.9644 136.925 90.7398 136.469 89.6506C136.022 88.6004 135.187 87.7635 134.137 87.3184C133.05 86.8631 131.826 86.8631 130.736 87.3184C129.686 87.7656 128.849 88.6004 128.404 89.6506C127.949 90.7378 127.949 91.9623 128.404 93.0515C128.626 93.5704 128.946 94.0443 129.344 94.4442ZM128.064 98.5015V111.672H130.258C131.013 111.668 131.764 111.598 132.505 111.459C133.249 111.328 133.967 111.077 134.632 110.716C135.259 110.376 135.801 109.896 136.217 109.317C136.654 108.675 136.874 107.91 136.843 107.133V98.5015H128.064ZM120.95 92.9797C121.533 92.9838 122.111 92.8669 122.649 92.6372C123.699 92.19 124.534 91.3552 124.979 90.305C125.434 89.2178 125.434 87.9933 124.977 86.9041C124.53 85.8539 123.695 85.017 122.644 84.5719C122.107 84.3422 121.529 84.2252 120.944 84.2294C120.364 84.2252 119.789 84.3422 119.256 84.5719C118.858 84.7421 118.733 84.9637 118.185 85.2303V91.9787C118.735 92.2474 118.858 92.4669 119.256 92.6372C119.791 92.8689 120.368 92.9838 120.95 92.9797ZM118.185 115.155C118.735 115.274 118.932 115.366 119.322 115.42C119.748 115.481 120.179 115.512 120.61 115.514C121.274 115.51 121.939 115.44 122.589 115.301C123.252 115.167 123.888 114.919 124.466 114.568C125.034 114.22 125.512 113.744 125.865 113.18C126.255 112.521 126.445 111.762 126.417 110.997V95.757H118.185V115.155ZM88 119.356L116.538 124.295V76L88 80.9393V119.356Z" fill="#263238"/>
<path d="M108.854 90.8179L95.6838 91.6199V94.6577L100.623 94.4587V108.544L103.915 108.737V94.3295L108.854 94.11V90.8179Z" fill="white"/>
<path fill-rule="evenodd" clip-rule="evenodd" d="M350.165 147.143L349.384 148.327L348.868 147.987L349.649 146.803L350.165 147.143ZM347.822 150.695L346.26 153.064L345.745 152.724L347.306 150.355L347.822 150.695ZM344.698 155.432L343.136 157.801L342.621 157.461L344.183 155.092L344.698 155.432ZM341.574 160.169L340.012 162.538L339.497 162.198L341.059 159.829L341.574 160.169ZM338.45 164.906L336.888 167.274L336.373 166.934L337.935 164.566L338.45 164.906ZM335.326 169.643L333.764 172.011L333.249 171.671L334.811 169.303L335.326 169.643ZM332.202 174.38L331.421 175.564L330.906 175.224L331.687 174.04L332.202 174.38Z" fill="#263238"/>
<path d="M379.724 131.817V125.363L373.301 124.647C372.939 123.301 372.399 122.009 371.696 120.806L375.766 115.71L371.202 111.147L366.137 115.204C364.939 114.499 363.651 113.959 362.308 113.598L361.586 107.12H355.151L354.434 113.567C353.088 113.919 351.796 114.451 350.593 115.148L345.504 111.079L340.94 115.643L344.991 120.713C344.286 121.911 343.746 123.199 343.386 124.542L336.913 125.265V131.718L343.355 132.435C343.709 133.78 344.241 135.071 344.936 136.276L340.866 141.365L345.43 145.929L350.5 141.878C351.698 142.583 352.986 143.123 354.329 143.483L355.052 149.956H361.506L362.222 143.514C363.567 143.16 364.859 142.628 366.063 141.933L371.152 146.003L375.716 141.439L371.696 136.369C372.401 135.17 372.941 133.882 373.301 132.54L379.724 131.817ZM358.306 136.245C356.782 136.241 355.293 135.786 354.027 134.935C352.761 134.085 351.776 132.879 351.197 131.469C350.617 130.059 350.468 128.508 350.77 127.014C351.071 125.519 351.809 124.148 352.89 123.072C353.971 121.997 355.347 121.267 356.843 120.974C358.34 120.681 359.889 120.838 361.296 121.426C362.703 122.014 363.904 123.005 364.747 124.276C365.59 125.546 366.037 127.038 366.032 128.562C366.026 130.602 365.211 132.556 363.766 133.996C362.322 135.437 360.365 136.245 358.325 136.245H358.306Z" fill="#50BFD7"/>
<path fill-rule="evenodd" clip-rule="evenodd" d="M354.844 107.086C354.861 106.929 354.993 106.811 355.151 106.811H361.586C361.743 106.811 361.875 106.929 361.893 107.086L362.592 113.356C363.82 113.703 365.001 114.199 366.109 114.831L371.009 110.905C371.131 110.807 371.309 110.817 371.42 110.928L375.984 115.492C376.095 115.603 376.105 115.78 376.007 115.903L372.068 120.834C372.699 121.947 373.195 123.132 373.543 124.363L379.758 125.056C379.915 125.074 380.033 125.206 380.033 125.363V131.817C380.033 131.974 379.915 132.106 379.759 132.124L373.544 132.823C373.196 134.051 372.701 135.233 372.068 136.342L375.958 141.247C376.056 141.37 376.045 141.546 375.934 141.657L371.371 146.221C371.259 146.333 371.082 146.342 370.959 146.244L366.034 142.305C364.92 142.928 363.735 143.416 362.506 143.757L361.812 149.99C361.795 150.146 361.663 150.264 361.506 150.264H355.052C354.894 150.264 354.762 150.146 354.745 149.99L354.045 143.725C352.818 143.378 351.636 142.883 350.528 142.25L345.623 146.17C345.5 146.268 345.323 146.258 345.211 146.147L340.647 141.583C340.536 141.472 340.526 141.295 340.625 141.172L344.564 136.247C343.941 135.133 343.453 133.948 343.112 132.718L336.879 132.025C336.723 132.008 336.604 131.876 336.604 131.718V125.264C336.604 125.107 336.723 124.975 336.879 124.958L343.143 124.258C343.491 123.03 343.986 121.849 344.618 120.741L340.699 115.835C340.601 115.712 340.61 115.535 340.722 115.424L345.286 110.86C345.397 110.749 345.574 110.739 345.697 110.837L350.622 114.776C351.735 114.151 352.92 113.663 354.151 113.324L354.844 107.086ZM355.427 107.429L354.741 113.602C354.727 113.729 354.636 113.834 354.512 113.866C353.193 114.211 351.927 114.732 350.748 115.416C350.637 115.479 350.499 115.469 350.4 115.39L345.527 111.492L341.354 115.666L345.233 120.52C345.312 120.62 345.322 120.759 345.257 120.869C344.566 122.044 344.037 123.306 343.684 124.622C343.651 124.745 343.546 124.835 343.42 124.849L337.222 125.541V131.442L343.389 132.128C343.516 132.142 343.621 132.233 343.653 132.356C344.001 133.674 344.522 134.941 345.203 136.122C345.267 136.232 345.256 136.37 345.177 136.469L341.28 141.342L345.453 145.515L350.307 141.636C350.407 141.556 350.546 141.546 350.657 141.611C351.831 142.302 353.093 142.832 354.409 143.185C354.532 143.218 354.622 143.323 354.636 143.449L355.328 149.647H361.229L361.915 143.48C361.929 143.353 362.02 143.248 362.143 143.215C363.462 142.868 364.728 142.347 365.909 141.666C366.019 141.602 366.157 141.613 366.256 141.692L371.129 145.589L375.303 141.415L371.454 136.56C371.374 136.46 371.365 136.322 371.43 136.212C372.121 135.038 372.65 133.776 373.003 132.46C373.036 132.337 373.141 132.247 373.267 132.233L379.415 131.541V125.64L373.267 124.954C373.141 124.94 373.036 124.85 373.003 124.727C372.648 123.407 372.119 122.141 371.429 120.961C371.365 120.851 371.375 120.713 371.454 120.613L375.352 115.733L371.179 111.56L366.33 115.445C366.23 115.525 366.091 115.535 365.981 115.47C364.807 114.779 363.544 114.25 362.228 113.897C362.106 113.864 362.016 113.759 362.001 113.633L361.31 107.429H355.427ZM361.177 121.711C359.826 121.147 358.339 120.996 356.903 121.277C355.466 121.558 354.146 122.259 353.108 123.291C352.07 124.323 351.362 125.64 351.072 127.075C350.783 128.509 350.926 129.998 351.482 131.351C352.039 132.705 352.984 133.863 354.199 134.679C355.414 135.495 356.844 135.933 358.307 135.936H358.325C360.283 135.936 362.161 135.16 363.548 133.778C364.935 132.395 365.717 130.52 365.724 128.561C365.728 127.098 365.299 125.666 364.489 124.446C363.68 123.227 362.527 122.275 361.177 121.711ZM356.784 120.671C358.34 120.366 359.952 120.53 361.415 121.141C362.878 121.752 364.127 122.784 365.004 124.105C365.881 125.426 366.346 126.978 366.341 128.563C366.334 130.685 365.487 132.717 363.984 134.215C362.482 135.713 360.447 136.554 358.325 136.554H358.306C356.72 136.55 355.171 136.076 353.855 135.192C352.538 134.307 351.514 133.053 350.911 131.586C350.308 130.119 350.153 128.507 350.467 126.953C350.781 125.398 351.548 123.972 352.673 122.853C353.797 121.735 355.228 120.976 356.784 120.671Z" fill="#263238"/>
<path d="M405.113 118.86L404.428 114.586L400.105 114.827C399.725 113.975 399.23 113.18 398.635 112.462L400.722 108.639L397.196 106.119L394.287 109.368C393.416 109.038 392.504 108.83 391.576 108.75L390.378 104.538L386.104 105.255L386.345 109.578C385.492 109.959 384.694 110.453 383.973 111.048L380.157 108.917L377.637 112.443L380.885 115.352C380.555 116.223 380.348 117.136 380.268 118.063L376.019 119.299L376.735 123.572L381.058 123.331C381.439 124.185 381.934 124.982 382.528 125.703L380.397 129.52L383.924 132.039L386.833 128.791C387.704 129.121 388.616 129.329 389.544 129.408L390.742 133.62L395.047 132.885L394.806 128.562C395.658 128.183 396.454 127.688 397.171 127.093L400.994 129.18L403.514 125.654L400.265 122.745C400.595 121.874 400.803 120.961 400.883 120.034L405.113 118.86ZM391.421 124.165C390.413 124.333 389.378 124.198 388.446 123.778C387.514 123.357 386.728 122.67 386.187 121.803C385.646 120.936 385.374 119.928 385.406 118.906C385.437 117.885 385.771 116.895 386.365 116.063C386.959 115.231 387.786 114.594 388.742 114.232C389.697 113.87 390.739 113.8 391.735 114.029C392.731 114.259 393.636 114.779 394.337 115.524C395.037 116.268 395.501 117.204 395.67 118.212C395.895 119.564 395.574 120.951 394.778 122.068C393.981 123.184 392.774 123.938 391.421 124.165Z" fill="#263238"/>
<path fill-rule="evenodd" clip-rule="evenodd" d="M390.599 104.188L391.815 108.463C392.627 108.55 393.427 108.732 394.197 109.006L397.15 105.707L401.124 108.547L399.005 112.428C399.515 113.068 399.949 113.766 400.298 114.507L404.688 114.263L405.462 119.084L401.17 120.274C401.083 121.086 400.901 121.885 400.627 122.654L403.926 125.608L401.086 129.582L397.205 127.463C396.565 127.973 395.867 128.407 395.126 128.755L395.37 133.143L390.521 133.971L389.304 129.695C388.492 129.609 387.693 129.427 386.923 129.153L383.969 132.451L379.993 129.61L382.157 125.735C381.648 125.092 381.214 124.393 380.865 123.651L376.476 123.896L375.669 119.079L379.98 117.825C380.067 117.012 380.249 116.213 380.523 115.442L377.225 112.489L380.066 108.513L383.941 110.676C384.584 110.167 385.283 109.734 386.025 109.385L385.78 104.996L390.599 104.188ZM386.427 105.513L386.665 109.773L386.471 109.86C385.643 110.229 384.869 110.709 384.17 111.286L384.007 111.42L380.247 109.321L378.049 112.398L381.249 115.263L381.174 115.462C380.854 116.306 380.653 117.19 380.575 118.09L380.557 118.301L376.369 119.518L376.994 123.248L381.253 123.011L381.34 123.205C381.71 124.033 382.189 124.807 382.766 125.506L382.9 125.669L380.802 129.429L383.878 131.627L386.744 128.427L386.942 128.502C387.786 128.822 388.671 129.023 389.57 129.101L389.782 129.119L390.963 133.269L394.723 132.627L394.485 128.367L394.68 128.28C395.506 127.912 396.278 127.433 396.974 126.855L397.135 126.721L400.902 128.778L403.101 125.699L399.901 122.833L399.976 122.635C400.296 121.791 400.498 120.906 400.575 120.007L400.593 119.793L404.764 118.636L404.167 114.91L399.909 115.147L399.822 114.953C399.454 114.127 398.975 113.355 398.397 112.659L398.263 112.498L400.32 108.731L397.241 106.531L394.376 109.732L394.177 109.656C393.333 109.337 392.449 109.135 391.549 109.058L391.337 109.04L390.156 104.888L386.427 105.513ZM391.665 114.33C390.729 114.114 389.75 114.18 388.851 114.521C387.952 114.861 387.174 115.46 386.616 116.243C386.058 117.025 385.744 117.955 385.714 118.916C385.684 119.876 385.94 120.824 386.449 121.639C386.958 122.455 387.697 123.101 388.573 123.496C389.449 123.892 390.422 124.018 391.37 123.861C392.642 123.647 393.777 122.938 394.526 121.888C395.275 120.838 395.577 119.534 395.366 118.262C395.207 117.315 394.77 116.435 394.112 115.735C393.453 115.035 392.602 114.546 391.665 114.33ZM391.472 124.47C392.906 124.229 394.185 123.43 395.029 122.247C395.873 121.064 396.213 119.594 395.975 118.161C395.796 117.093 395.304 116.101 394.562 115.312C393.819 114.523 392.86 113.972 391.804 113.728C390.749 113.485 389.645 113.56 388.632 113.943C387.619 114.327 386.743 115.002 386.113 115.884C385.484 116.765 385.13 117.814 385.097 118.897C385.063 119.979 385.351 121.048 385.925 121.966C386.499 122.885 387.332 123.614 388.319 124.059C389.306 124.505 390.404 124.647 391.472 124.47Z" fill="#263238"/>
<path fill-rule="evenodd" clip-rule="evenodd" d="M391.174 239.662L392.32 239.669L392.317 240.128L391.171 240.121L391.174 239.662Z" fill="#263238"/>
<path fill-rule="evenodd" clip-rule="evenodd" d="M387.754 239.641L388.871 239.648L388.868 240.107L387.752 240.1L387.754 239.641ZM383.287 239.614L385.521 239.628L385.518 240.087L383.284 240.073L383.287 239.614ZM378.819 239.587L381.053 239.601L381.05 240.059L378.816 240.046L378.819 239.587ZM374.352 239.56L376.585 239.573L376.583 240.032L374.349 240.018L374.352 239.56ZM369.884 239.533L372.118 239.546L372.115 240.005L369.881 239.991L369.884 239.533ZM365.417 239.505L367.65 239.519L367.648 239.978L365.414 239.964L365.417 239.505ZM360.949 239.478L363.183 239.492L363.18 239.95L360.946 239.937L360.949 239.478ZM356.481 239.451L358.715 239.464L358.712 239.923L356.479 239.909L356.481 239.451ZM352.014 239.424L354.248 239.437L354.245 239.896L352.011 239.882L352.014 239.424ZM348.663 239.403L349.78 239.41L349.777 239.869L348.66 239.862L348.663 239.403Z" fill="#263238"/>
<path fill-rule="evenodd" clip-rule="evenodd" d="M346.366 239.389L347.512 239.396L347.509 239.855L346.363 239.848L346.366 239.389Z" fill="#263238"/>
<path fill-rule="evenodd" clip-rule="evenodd" d="M411.307 257.081C411.307 257.207 411.203 257.309 411.077 257.309L385.15 257.151C385.024 257.15 384.922 257.047 384.922 256.92C384.923 256.793 385.026 256.691 385.153 256.692L411.079 256.85C411.206 256.851 411.308 256.954 411.307 257.081Z" fill="#263238"/>
<path fill-rule="evenodd" clip-rule="evenodd" d="M398.111 257.23C397.985 257.229 397.883 257.125 397.883 256.999L397.961 244.226C397.962 244.099 398.065 243.997 398.192 243.998C398.319 243.999 398.421 244.102 398.42 244.229L398.342 257.002C398.341 257.128 398.238 257.23 398.111 257.23Z" fill="#263238"/>
<path fill-rule="evenodd" clip-rule="evenodd" d="M418.677 254.177C418.551 254.176 418.448 254.073 418.449 253.946L418.548 237.788C418.549 237.662 418.652 237.56 418.778 237.56C418.905 237.561 419.007 237.665 419.006 237.791L418.908 253.949C418.907 254.075 418.804 254.177 418.677 254.177Z" fill="#263238"/>
<path fill-rule="evenodd" clip-rule="evenodd" d="M394.067 235.942C394.067 236.069 393.963 236.171 393.837 236.17L370.359 236.027C370.233 236.026 370.131 235.923 370.131 235.796L370.218 221.597C370.219 221.47 370.322 221.368 370.449 221.369C370.575 221.37 370.677 221.473 370.677 221.6L370.591 235.57L393.839 235.711C393.966 235.712 394.068 235.815 394.067 235.942Z" fill="#263238"/>
<path fill-rule="evenodd" clip-rule="evenodd" d="M385.28 235.875C385.154 235.874 385.052 235.771 385.052 235.644L385.136 221.945C385.137 221.818 385.24 221.716 385.367 221.717C385.493 221.717 385.595 221.821 385.594 221.947L385.511 235.647C385.51 235.773 385.407 235.875 385.28 235.875Z" fill="#263238"/>
<path d="M406.399 262.435L423.277 262.538L423.347 251.04L406.469 250.937L406.399 262.435Z" fill="#263238"/>
<path fill-rule="evenodd" clip-rule="evenodd" d="M423.505 262.769L406.169 262.663L406.242 250.707L423.578 250.812L423.505 262.769ZM423.049 262.307L423.116 251.268L406.697 251.168L406.63 262.207L423.049 262.307Z" fill="#263238"/>
<path d="M374.479 262.241L391.356 262.344L391.427 250.846L374.549 250.743L374.479 262.241Z" fill="#50BFD7"/>
<path fill-rule="evenodd" clip-rule="evenodd" d="M391.586 262.345C391.585 262.472 391.482 262.574 391.355 262.573L374.477 262.47C374.351 262.469 374.249 262.366 374.249 262.239L374.32 250.741C374.32 250.615 374.424 250.513 374.55 250.513L391.428 250.616C391.554 250.617 391.657 250.72 391.656 250.847L391.586 262.345ZM391.128 262.113L391.196 251.074L374.777 250.973L374.709 262.013L391.128 262.113Z" fill="#263238"/>
<path d="M379.79 225.338L390.605 225.404L390.65 218.038L379.835 217.973L379.79 225.338Z" fill="#50BFD7"/>
<path fill-rule="evenodd" clip-rule="evenodd" d="M390.834 225.405C390.833 225.532 390.73 225.634 390.603 225.633L379.789 225.567C379.662 225.567 379.56 225.463 379.561 225.337L379.606 217.971C379.606 217.844 379.71 217.742 379.836 217.743L390.651 217.809C390.778 217.81 390.88 217.913 390.879 218.04L390.834 225.405ZM390.377 225.173L390.419 218.266L380.063 218.203L380.021 225.11L390.377 225.173Z" fill="#263238"/>
<path d="M412.71 241.436L423.524 241.501L423.569 234.136L412.755 234.07L412.71 241.436Z" fill="white"/>
<path fill-rule="evenodd" clip-rule="evenodd" d="M423.754 241.503C423.753 241.63 423.65 241.732 423.523 241.731L412.709 241.665C412.582 241.664 412.48 241.561 412.481 241.434L412.526 234.069C412.526 233.942 412.63 233.84 412.756 233.841L423.571 233.907C423.697 233.907 423.8 234.011 423.799 234.137L423.754 241.503ZM423.297 241.271L423.339 234.364L412.983 234.301L412.941 241.208L423.297 241.271Z" fill="#263238"/>
<path d="M365.6 225.252L376.415 225.318L376.459 217.952L365.645 217.886L365.6 225.252Z" fill="#263238"/>
<path fill-rule="evenodd" clip-rule="evenodd" d="M376.643 225.548L365.369 225.48L365.417 217.655L376.69 217.724L376.643 225.548ZM376.187 225.087L376.229 218.18L365.873 218.117L365.831 225.024L376.187 225.087Z" fill="#263238"/>
<path d="M398.194 244.229L406.753 235.775L398.298 227.217L389.74 235.671L398.194 244.229Z" fill="#50BFD7"/>
<path fill-rule="evenodd" clip-rule="evenodd" d="M406.916 235.614C407.005 235.704 407.004 235.849 406.914 235.938L398.356 244.393C398.266 244.482 398.12 244.481 398.031 244.391L389.577 235.833C389.488 235.742 389.489 235.597 389.579 235.508L398.137 227.054C398.227 226.965 398.372 226.966 398.461 227.056L406.916 235.614ZM406.429 235.773L398.296 227.541L390.064 235.673L398.197 243.905L406.429 235.773Z" fill="#263238"/>
</svg>
