<svg width="485" height="528" viewBox="0 0 485 528" fill="none" xmlns="http://www.w3.org/2000/svg">
<path d="M371.162 101.88C390.286 127.393 404.661 166.534 393.954 205.34C377.793 263.97 407.981 287.903 353.615 379.509C345.724 392.914 336.702 405.602 326.71 417.35C321.806 423.082 316.637 428.528 311.236 433.653C263.61 478.839 209.082 486.783 167.066 467.734C111.811 442.662 111.925 382.598 113.608 344.434C115.291 306.271 77.502 239.254 130.403 148.841C138.433 135.012 147.705 121.959 158.035 109.941C181.691 82.6058 213.73 59.0149 245.384 52.1654C247.757 51.6572 250.122 51.2184 252.522 50.8631C299.126 43.8944 345.085 67.0849 371.162 101.88Z" fill="#50BFD7"/>
<path opacity="0.7" d="M371.162 101.88C390.286 127.393 404.661 166.534 393.954 205.34C377.793 263.97 407.981 287.903 353.615 379.509C345.724 392.914 336.702 405.602 326.71 417.35C321.806 423.082 316.637 428.528 311.236 433.653C263.61 478.839 209.082 486.783 167.066 467.734C111.811 442.662 111.925 382.598 113.608 344.434C115.291 306.271 77.502 239.254 130.403 148.841C138.433 135.012 147.705 121.959 158.035 109.941C181.691 82.6058 213.73 59.0149 245.384 52.1654C247.757 51.6572 250.122 51.2184 252.522 50.8631C299.126 43.8944 345.085 67.0849 371.162 101.88Z" fill="white"/>
<path d="M409.236 474.567H119.805C119.722 474.567 119.643 474.53 119.585 474.463C119.526 474.396 119.494 474.306 119.494 474.211C119.495 474.118 119.529 474.028 119.586 473.962C119.644 473.895 119.723 473.857 119.805 473.855H409.236C409.318 473.857 409.396 473.895 409.454 473.962C409.512 474.028 409.545 474.118 409.547 474.211C409.547 474.306 409.514 474.396 409.456 474.463C409.398 474.53 409.319 474.567 409.236 474.567Z" fill="#263238"/>
<path d="M197.386 93.5355C195.086 103.023 200.261 137.522 208.742 150.574C208.742 150.574 233.322 166.53 310.097 157.474C310.097 157.474 297.677 153.506 309.306 108.011C309.551 107.033 309.81 106.056 310.083 105.035C311.664 99.1416 300.092 89.0362 298.008 85.4857C282.987 59.9995 197.386 93.5355 197.386 93.5355Z" fill="#2C2C2C"/>
<path d="M153.759 228.672C153.759 228.672 149.533 227.752 147.908 225.667C146.27 223.583 145.307 222.663 139.585 220.176C133.907 217.689 131.651 214.469 131.651 214.469C131.651 214.469 127.683 218.106 136.394 222.275C141.727 224.834 124.205 224.46 118.929 223.87C118.929 223.87 115.882 225.538 120.927 227.982C125.973 230.425 121.114 230.612 131.104 234.824C141.08 239.05 152.939 241.264 155.354 235.241C157.755 229.218 153.759 228.672 153.759 228.672Z" fill="white"/>
<path fill-rule="evenodd" clip-rule="evenodd" d="M131.65 214.469L131.262 214.045L131.745 213.603L132.121 214.138L132.121 214.139L132.121 214.139L132.124 214.143C132.127 214.147 132.132 214.154 132.139 214.164C132.154 214.184 132.178 214.216 132.211 214.258C132.277 214.342 132.381 214.469 132.523 214.631C132.808 214.955 133.25 215.417 133.867 215.958C135.101 217.038 137.035 218.431 139.815 219.649C142.679 220.894 144.394 221.764 145.604 222.599C146.835 223.449 147.527 224.252 148.36 225.312L148.361 225.313L148.362 225.314C149.072 226.225 150.406 226.93 151.651 227.415C152.26 227.652 152.82 227.827 153.229 227.942C153.433 227.999 153.598 228.042 153.711 228.07C153.768 228.083 153.811 228.094 153.84 228.1C153.851 228.103 153.859 228.105 153.866 228.106C153.872 228.107 153.879 228.109 153.887 228.11C153.895 228.111 153.902 228.113 153.911 228.114C153.95 228.122 154.003 228.133 154.068 228.15C154.197 228.182 154.373 228.236 154.573 228.323C154.973 228.495 155.485 228.803 155.909 229.342C156.785 230.457 157.128 232.343 155.888 235.454L155.888 235.455C155.21 237.145 153.869 238.236 152.142 238.852C150.431 239.463 148.321 239.617 146.023 239.449C141.423 239.114 135.899 237.48 130.88 235.353C125.878 233.244 124.467 232.097 123.703 231.087C123.568 230.909 123.452 230.732 123.35 230.577C123.316 230.525 123.284 230.476 123.253 230.43C123.124 230.239 122.999 230.067 122.826 229.888C122.482 229.529 121.906 229.095 120.676 228.499C119.381 227.872 118.545 227.267 118.048 226.68C117.536 226.076 117.368 225.47 117.47 224.907C117.567 224.374 117.887 223.986 118.138 223.75C118.267 223.628 118.391 223.536 118.483 223.472C118.529 223.441 118.568 223.416 118.597 223.398C118.612 223.389 118.624 223.382 118.634 223.377C118.638 223.374 118.642 223.372 118.645 223.37L118.65 223.368L118.651 223.367L118.652 223.366C118.653 223.366 118.653 223.366 118.929 223.87L118.653 223.366L118.812 223.279L118.993 223.299C121.599 223.59 127.271 223.83 131.62 223.678C133.817 223.602 135.593 223.426 136.48 223.139C136.547 223.118 136.605 223.097 136.653 223.077C136.538 222.997 136.373 222.902 136.146 222.793C131.736 220.683 130.301 218.599 130.182 216.848C130.124 215.988 130.394 215.289 130.669 214.814C130.808 214.576 130.95 214.39 131.059 214.261C131.114 214.197 131.161 214.146 131.196 214.11C131.214 214.092 131.228 214.077 131.239 214.067C131.245 214.061 131.25 214.057 131.254 214.053L131.258 214.049L131.26 214.047L131.261 214.046C131.262 214.046 131.262 214.045 131.65 214.469ZM119.073 224.464C119.028 224.498 118.977 224.539 118.925 224.588C118.762 224.741 118.636 224.922 118.602 225.112C118.573 225.271 118.589 225.54 118.925 225.936C119.275 226.349 119.95 226.869 121.178 227.464C122.47 228.09 123.18 228.595 123.656 229.091C123.893 229.338 124.061 229.572 124.207 229.789C124.25 229.853 124.29 229.913 124.328 229.971C124.424 230.116 124.51 230.248 124.62 230.393C125.185 231.14 126.34 232.191 131.328 234.294L131.329 234.294C136.285 236.394 141.679 237.98 146.106 238.302C148.322 238.464 150.253 238.305 151.756 237.769C153.243 237.239 154.291 236.348 154.82 235.027C155.981 232.115 155.526 230.716 155.005 230.053C154.729 229.703 154.393 229.497 154.118 229.379C153.981 229.32 153.864 229.284 153.783 229.264C153.743 229.254 153.713 229.247 153.695 229.244C153.686 229.242 153.68 229.241 153.678 229.241C153.677 229.241 153.676 229.24 153.677 229.241L153.658 229.238L153.636 229.233L153.759 228.671C153.636 229.233 153.636 229.233 153.636 229.233L153.636 229.233L153.632 229.232L153.621 229.23C153.611 229.228 153.598 229.225 153.581 229.221C153.547 229.213 153.499 229.201 153.436 229.186C153.312 229.156 153.135 229.11 152.917 229.049C152.482 228.926 151.885 228.74 151.234 228.487C149.96 227.991 148.37 227.194 147.455 226.022C146.65 224.997 146.041 224.299 144.951 223.546C143.84 222.778 142.213 221.945 139.356 220.703L139.355 220.703C136.457 219.434 134.424 217.974 133.11 216.823C132.454 216.249 131.978 215.752 131.663 215.394C131.467 215.731 131.291 216.201 131.329 216.77C131.405 217.879 132.341 219.698 136.642 221.756L136.643 221.756C136.996 221.926 137.289 222.099 137.505 222.281C137.707 222.451 137.933 222.705 137.964 223.051C137.999 223.44 137.774 223.717 137.567 223.877C137.365 224.034 137.102 224.147 136.834 224.233C135.771 224.577 133.836 224.752 131.66 224.828C127.373 224.977 121.822 224.752 119.073 224.464ZM119.207 224.374C119.208 224.373 119.208 224.373 119.208 224.373L119.207 224.374Z" fill="#2C2C2C"/>
<path d="M272.278 261.92C272.278 261.92 259.455 263.429 256.767 263.429C256.739 263.429 256.71 263.429 256.681 263.429C256.667 263.429 256.652 263.429 256.638 263.429C256.624 263.429 256.609 263.429 256.595 263.429C256.566 263.429 256.537 263.429 256.509 263.429C253.806 263.429 240.998 261.92 240.998 261.92C223.907 267.31 225.129 292.25 225.143 292.955C225.258 298.101 225.33 303.261 225.459 308.407C225.761 320.525 228.852 356.821 229.642 368.364C229.714 369.313 229.757 370.103 229.786 370.693C231.08 396.596 232.359 422.499 233.653 448.402C233.768 450.673 233.883 452.959 233.998 455.23C233.998 455.23 240.007 458.967 251.794 455.23L251.894 371.095L255.172 308.58C255.172 308.58 255.776 308.494 256.494 308.422C256.537 308.422 256.581 308.436 256.638 308.436V308.451C256.652 308.451 256.667 308.451 256.681 308.451C256.696 308.451 256.71 308.451 256.724 308.451V308.436C256.767 308.436 256.811 308.422 256.868 308.422C257.587 308.494 258.19 308.58 258.19 308.58L261.468 371.095L261.569 455.23C273.356 458.967 279.364 455.23 279.364 455.23C279.479 452.959 279.594 450.673 279.709 448.402C281.003 422.499 282.268 396.596 283.576 370.693C283.605 370.103 283.648 369.313 283.72 368.364C284.496 356.836 287.601 320.525 287.903 308.407C288.032 303.261 288.104 298.101 288.219 292.955C288.147 292.25 289.355 267.31 272.278 261.92Z" fill="#2C2C2C"/>
<path d="M223.591 194.331C223.591 194.331 211.631 252.289 206.183 255.481C201.799 258.054 168.191 247.115 155.426 242.817C152.393 241.81 150.539 241.149 150.539 241.149L152.738 226.286L159.94 227.263L195.805 232.136C195.805 232.136 207.894 173.243 216.576 172.525C225.273 171.791 223.591 194.331 223.591 194.331Z" fill="#2C2C2C"/>
<path d="M293.868 172.165C293.868 172.165 336.288 214.987 339.077 236.391C339.077 236.391 332.622 248.494 293.768 271.58L290.303 261.676C290.303 261.676 311.995 236.779 319.527 230.483C319.527 230.483 285.56 202.395 286.35 194.431C287.141 186.439 289.11 172.582 293.868 172.165Z" fill="#2C2C2C"/>
<path d="M311.218 190.147C311.218 199.318 305.21 204.996 296.039 204.996C286.868 204.996 279.436 197.565 279.436 188.394C279.436 179.223 286.365 169.103 295.104 171.848C304.735 174.853 311.218 180.976 311.218 190.147Z" fill="white"/>
<path fill-rule="evenodd" clip-rule="evenodd" d="M284.432 176.024C281.699 179.249 280.011 183.938 280.011 188.394C280.011 197.247 287.186 204.422 296.039 204.422C300.505 204.422 304.147 203.041 306.668 200.598C309.187 198.158 310.644 194.604 310.644 190.148C310.644 181.327 304.434 175.361 294.933 172.398L294.932 172.397C290.847 171.114 287.156 172.81 284.432 176.024ZM295.276 171.3C290.622 169.838 286.48 171.829 283.554 175.281C280.638 178.723 278.861 183.679 278.861 188.394C278.861 197.883 286.55 205.572 296.039 205.572C300.744 205.572 304.692 204.113 307.468 201.424C310.246 198.733 311.794 194.862 311.794 190.148C311.794 180.627 305.038 174.345 295.276 171.3Z" fill="#2C2C2C"/>
<path d="M303.758 187.474C303.758 194.258 299.316 198.456 292.531 198.456C285.746 198.456 280.255 192.965 280.255 186.18C280.255 179.395 285.373 171.906 291.856 173.933C298.957 176.175 303.758 180.703 303.758 187.474Z" fill="#2C2C2C"/>
<path d="M199.815 190.148C199.815 199.319 205.824 204.997 214.995 204.997C224.166 204.997 231.583 197.551 231.583 188.394C231.583 179.237 224.654 169.103 215.915 171.849C206.298 174.853 199.815 180.977 199.815 190.148Z" fill="white"/>
<path fill-rule="evenodd" clip-rule="evenodd" d="M227.465 175.286C230.382 178.73 232.158 183.686 232.158 188.394C232.158 197.867 224.484 205.572 214.995 205.572C210.29 205.572 206.342 204.113 203.566 201.424C200.788 198.733 199.24 194.862 199.24 190.148C199.24 180.627 205.996 174.345 215.743 171.3C220.398 169.838 224.54 171.833 227.465 175.286ZM226.588 176.03C223.863 172.813 220.172 171.114 216.087 172.397L216.086 172.398C206.6 175.361 200.39 181.327 200.39 190.148C200.39 194.604 201.847 198.158 204.366 200.598C206.887 203.041 210.528 204.422 214.995 204.422C223.847 204.422 231.008 197.234 231.008 188.394C231.008 183.946 229.32 179.256 226.588 176.03Z" fill="#2C2C2C"/>
<path d="M207.29 187.474C207.29 194.258 211.732 198.456 218.517 198.456C225.301 198.456 230.793 192.965 230.793 186.18C230.793 179.395 225.675 171.906 219.207 173.933C212.077 176.175 207.29 180.703 207.29 187.474Z" fill="#2C2C2C"/>
<path d="M276.417 263.731C266.039 262.783 255.79 262.395 255.79 262.395C252.024 262.51 244.003 262.84 235.723 263.731C238.138 271.982 246.331 278.063 256.063 278.063C265.809 278.077 274.003 271.968 276.417 263.731Z" fill="#50BFD7"/>
<path d="M275.569 264.594C276.461 261.086 294.3 171.705 294.3 171.705C294.3 171.705 246.691 157.647 216.245 171.705L235.766 265.37L275.569 264.594Z" fill="white"/>
<path fill-rule="evenodd" clip-rule="evenodd" d="M294.461 171.154C294.462 171.154 294.462 171.154 294.299 171.705C294.863 171.818 294.863 171.818 294.863 171.819L294.862 171.822L294.663 172.823C294.532 173.478 294.34 174.44 294.095 175.665C293.605 178.116 292.905 181.621 292.062 185.839C290.376 194.273 288.118 205.556 285.832 216.948C281.264 239.715 276.577 262.963 276.127 264.736L276.019 265.16L235.3 265.955L215.589 171.375L216.004 171.183C231.374 164.086 251.019 164.102 266.753 165.862C274.632 166.743 281.556 168.065 286.51 169.167C288.987 169.718 290.973 170.214 292.34 170.573C293.024 170.752 293.553 170.897 293.912 170.997C294.092 171.047 294.228 171.086 294.321 171.113C294.367 171.126 294.402 171.136 294.426 171.143L294.453 171.151L294.46 171.153L294.461 171.154ZM294.299 171.705L294.863 171.818L294.966 171.303L294.462 171.154L294.299 171.705ZM293.632 172.113C293.622 172.11 293.612 172.107 293.603 172.105C293.249 172.006 292.726 171.863 292.048 171.685C290.693 171.33 288.722 170.837 286.26 170.29C281.336 169.195 274.454 167.881 266.625 167.005C251.088 165.267 231.916 165.266 216.902 172.038L236.232 264.786L275.111 264.028C275.925 260.375 280.362 238.369 284.705 216.721C286.99 205.33 289.248 194.047 290.934 185.613C291.777 181.396 292.478 177.891 292.967 175.44C293.212 174.215 293.404 173.253 293.535 172.597L293.632 172.113Z" fill="black"/>
<path d="M275.569 264.594C276.461 261.086 294.3 171.705 294.3 171.705C294.3 171.705 246.691 157.647 216.245 171.705L235.766 265.37L275.569 264.594Z" fill="white"/>
<path fill-rule="evenodd" clip-rule="evenodd" d="M294.461 171.154C294.462 171.154 294.462 171.154 294.299 171.705C294.863 171.818 294.863 171.818 294.863 171.819L294.862 171.822L294.663 172.823C294.532 173.478 294.34 174.44 294.095 175.665C293.605 178.116 292.905 181.621 292.062 185.839C290.376 194.273 288.118 205.556 285.832 216.948C281.264 239.715 276.577 262.963 276.127 264.736L276.019 265.16L235.3 265.955L215.589 171.375L216.004 171.183C231.374 164.086 251.019 164.102 266.753 165.862C274.632 166.743 281.556 168.065 286.51 169.167C288.987 169.718 290.973 170.214 292.34 170.573C293.024 170.752 293.553 170.897 293.912 170.997C294.092 171.047 294.228 171.086 294.321 171.113C294.367 171.126 294.402 171.136 294.426 171.143L294.453 171.151L294.46 171.153L294.461 171.154ZM294.299 171.705L294.863 171.818L294.966 171.303L294.462 171.154L294.299 171.705ZM293.632 172.113C293.622 172.11 293.612 172.107 293.603 172.105C293.249 172.006 292.726 171.863 292.048 171.685C290.693 171.33 288.722 170.837 286.26 170.29C281.336 169.195 274.454 167.881 266.625 167.005C251.088 165.267 231.916 165.266 216.902 172.038L236.232 264.786L275.111 264.028C275.925 260.375 280.362 238.369 284.705 216.721C286.99 205.33 289.248 194.047 290.934 185.613C291.777 181.396 292.478 177.891 292.967 175.44C293.212 174.215 293.404 173.253 293.535 172.597L293.632 172.113Z" fill="#2C2C2C"/>
<path d="M282.742 168.959C269.446 166.286 246.964 163.238 227.644 167.838C229.93 182.256 232.215 196.688 234.501 211.106C236.341 220.88 245.612 227.392 255.287 227.45C264.961 227.392 274.232 220.895 276.072 211.106C278.286 197.047 280.514 183.003 282.742 168.959Z" fill="#50BFD7"/>
<path fill-rule="evenodd" clip-rule="evenodd" d="M227.511 167.279C246.957 162.649 269.541 165.718 282.856 168.396L283.397 168.504L283.309 169.058C281.081 183.1 278.854 197.14 276.641 211.195L276.639 211.204L276.638 211.212C274.739 221.315 265.193 227.966 255.29 228.025L255.287 228.025L255.283 228.025C245.38 227.966 235.835 221.3 233.936 211.212L233.935 211.204L233.933 211.196C232.791 203.988 231.648 196.776 230.505 189.564L230.505 189.562C229.362 182.349 228.219 175.137 227.077 167.928L226.993 167.402L227.511 167.279ZM228.296 168.276C229.411 175.308 230.526 182.344 231.64 189.38L231.641 189.382C232.783 196.592 233.925 203.801 235.068 211.007C236.852 220.463 245.846 226.817 255.287 226.875C264.728 226.817 273.721 220.477 275.506 211.008C277.691 197.134 279.889 183.274 282.088 169.415C268.87 166.797 247.113 163.942 228.296 168.276Z" fill="#2C2C2C"/>
<path d="M253.634 174.062C258.176 174.062 265.234 172.683 265.234 168.155L264.069 153.032L263.049 139.808C263.049 135.265 259.369 131.6 254.841 131.6C252.57 131.6 250.529 132.52 249.034 134C247.553 135.481 246.619 137.537 246.619 139.808L245.612 153.047L244.649 165.74C243.356 173.401 253.634 174.062 253.634 174.062Z" fill="#2C2C2C"/>
<path d="M280.198 54.5373C273.399 46.1712 263.897 41.1257 251.707 41.1257C224.094 41.1257 197.098 66.5832 197.098 98.3368C197.098 130.09 219.479 155.835 247.093 155.835C249.752 155.835 252.325 155.605 254.798 155.145C255.057 156.54 255.2 157.977 255.2 159.443C255.2 159.716 255.186 159.975 255.186 160.234C331.314 141.806 318.851 49.8368 280.198 54.5373Z" fill="#2C2C2C"/>
<path d="M220.831 130.407C225.951 130.407 230.102 126.255 230.102 121.135C230.102 116.014 225.951 111.863 220.831 111.863C215.71 111.863 211.559 116.014 211.559 121.135C211.559 126.255 215.71 130.407 220.831 130.407Z" fill="white"/>
<path fill-rule="evenodd" clip-rule="evenodd" d="M220.831 112.439C216.028 112.439 212.134 116.332 212.134 121.135C212.134 125.938 216.028 129.832 220.831 129.832C225.634 129.832 229.528 125.938 229.528 121.135C229.528 116.332 225.634 112.439 220.831 112.439ZM210.984 121.135C210.984 115.697 215.393 111.289 220.831 111.289C226.269 111.289 230.677 115.697 230.677 121.135C230.677 126.573 226.269 130.982 220.831 130.982C215.393 130.982 210.984 126.573 210.984 121.135Z" fill="#2C2C2C"/>
<path d="M286.12 130.407C291.241 130.407 295.392 126.255 295.392 121.135C295.392 116.014 291.241 111.863 286.12 111.863C280.999 111.863 276.848 116.014 276.848 121.135C276.848 126.255 280.999 130.407 286.12 130.407Z" fill="white"/>
<path fill-rule="evenodd" clip-rule="evenodd" d="M286.12 112.439C281.317 112.439 277.424 116.332 277.424 121.135C277.424 125.938 281.317 129.832 286.12 129.832C290.923 129.832 294.817 125.938 294.817 121.135C294.817 116.332 290.923 112.439 286.12 112.439ZM276.274 121.135C276.274 115.697 280.682 111.289 286.12 111.289C291.558 111.289 295.967 115.697 295.967 121.135C295.967 126.573 291.558 130.982 286.12 130.982C280.682 130.982 276.274 126.573 276.274 121.135Z" fill="#2C2C2C"/>
<path d="M254.352 159.817C274.255 159.817 290.389 136.977 290.389 108.802C290.389 80.6266 274.255 57.7861 254.352 57.7861C234.449 57.7861 218.315 80.6266 218.315 108.802C218.315 136.977 234.449 159.817 254.352 159.817Z" fill="white"/>
<path fill-rule="evenodd" clip-rule="evenodd" d="M229.34 73.0603C222.895 82.1842 218.89 94.819 218.89 108.802C218.89 122.785 222.895 135.42 229.34 144.544C235.786 153.669 244.638 159.243 254.352 159.243C264.067 159.243 272.919 153.669 279.365 144.544C285.81 135.42 289.815 122.785 289.815 108.802C289.815 94.819 285.81 82.1842 279.365 73.0603C272.919 63.9348 264.067 58.3614 254.352 58.3614C244.638 58.3614 235.786 63.9348 229.34 73.0603ZM228.401 72.3968C234.997 63.0582 244.164 57.2114 254.352 57.2114C264.541 57.2114 273.707 63.0582 280.304 72.3968C286.902 81.7368 290.965 94.6098 290.965 108.802C290.965 122.994 286.902 135.867 280.304 145.207C273.707 154.546 264.541 160.392 254.352 160.392C244.164 160.392 234.997 154.546 228.401 145.207C221.803 135.867 217.74 122.994 217.74 108.802C217.74 94.6098 221.803 81.7368 228.401 72.3968Z" fill="#2C2C2C"/>
<path d="M213.054 97.4885C213.054 97.4885 243.729 98.9834 253.95 80.5264C253.95 80.5264 276.144 99.7309 297.332 98.236L295.334 89.7549L287.112 73.5404L282.124 67.5605L271.904 56.837L258.19 51.1016L241.731 53.344L219.781 68.308L217.036 78.284L213.054 97.4885Z" fill="#2C2C2C"/>
<path d="M255.243 128.739C255.258 128.825 255.071 128.983 254.654 128.983C254.252 128.997 253.633 128.811 253.087 128.293C252.814 128.034 252.57 127.718 252.383 127.316C252.354 127.258 252.34 127.201 252.311 127.143L252.282 127.057L252.254 126.985L252.21 126.856C252.196 126.798 252.182 126.726 252.153 126.669C252.095 126.453 252.052 126.223 252.038 125.979C251.952 125.03 252.139 124.067 252.369 123.147C253.26 119.467 254.309 116.578 254.697 116.664C255.085 116.765 254.683 119.812 253.792 123.492C253.562 124.398 253.389 125.217 253.389 125.907C253.389 126.079 253.404 126.252 253.418 126.41L253.432 126.467V126.496V126.511V126.525C253.432 126.525 253.418 126.482 253.432 126.496L253.461 126.64L253.475 126.712L253.49 126.755L253.519 126.841C253.605 127.114 253.734 127.373 253.878 127.574C254.165 127.991 254.51 128.25 254.783 128.394C255.028 128.581 255.229 128.638 255.243 128.739Z" fill="#2C2C2C"/>
<path d="M215.397 114.652C214.995 113.056 214.693 111.432 214.449 109.793C214.219 108.155 214.06 106.516 213.974 104.863C213.83 101.557 213.96 98.2217 214.405 94.9299C214.851 91.6238 215.613 88.3607 216.691 85.1983C216.748 84.9971 216.82 84.7958 216.892 84.609L217.108 84.0196L217.539 82.8409L218.028 81.6765L218.272 81.1015C218.358 80.9147 218.43 80.7134 218.531 80.5266C219.235 79.0028 219.997 77.4935 220.86 76.056C222.57 73.1524 224.568 70.4212 226.868 67.9344C229.183 65.4619 231.784 63.2483 234.631 61.3939C234.976 61.1496 235.349 60.9339 235.709 60.7183C236.068 60.5027 236.442 60.2727 236.801 60.0715L237.937 59.4677L238.497 59.1659C238.684 59.0652 238.885 58.979 239.072 58.8927L240.237 58.3609C240.337 58.3178 240.424 58.2746 240.524 58.2315L240.826 58.1165L241.415 57.8865L242.005 57.6565C242.206 57.5847 242.393 57.4984 242.608 57.4265L243.83 57.024C247.079 55.9747 250.5 55.4428 253.921 55.371C255.632 55.3135 257.342 55.4428 259.039 55.6297C259.47 55.6872 259.887 55.7591 260.304 55.8166L260.936 55.9172C261.037 55.9316 261.152 55.9459 261.252 55.9747L261.569 56.0466L262.819 56.3197C263.236 56.4059 263.653 56.5209 264.055 56.6359C267.347 57.5559 270.524 58.8927 273.428 60.6752L274.506 61.3508C274.693 61.4658 274.865 61.5808 275.038 61.7102L275.555 62.0695L276.073 62.4289C276.245 62.5439 276.418 62.6733 276.59 62.8026L277.596 63.5789L278.099 63.967L278.588 64.3839L279.551 65.2176C279.867 65.4907 280.169 65.7926 280.471 66.0944L280.931 66.54C281.089 66.6838 281.233 66.8275 281.377 66.9857L282.254 67.9056L282.685 68.3656L283.102 68.84L283.936 69.8031C284.079 69.9612 284.209 70.1337 284.338 70.2918L284.726 70.7949C284.985 71.1256 285.244 71.4562 285.502 71.8012L286.235 72.8361C286.739 73.5117 287.17 74.2448 287.63 74.9492C289.412 77.8098 290.864 80.8572 292.014 83.9908C293.164 87.1389 293.983 90.3876 294.501 93.6793L294.601 94.2975L294.645 94.5993L294.673 94.9156L294.817 96.1518C294.932 96.9711 294.961 97.8049 295.033 98.6386C295.133 100.292 295.162 101.959 295.119 103.612L295.105 104.23L295.076 104.848C295.047 105.265 295.033 105.668 294.99 106.085C294.932 106.904 294.846 107.738 294.745 108.557C294.53 110.196 294.256 111.82 293.897 113.43C294.098 111.791 294.256 110.167 294.314 108.528C294.386 106.89 294.4 105.251 294.328 103.627C294.256 102.002 294.142 100.364 293.94 98.7536C293.825 97.9486 293.739 97.1436 293.581 96.3386L293.365 95.1456L293.308 94.8437L293.236 94.5418L293.107 93.9525C292.431 90.7757 291.468 87.6707 290.246 84.6952L290.016 84.1346L289.772 83.5884L289.269 82.4815C289.11 82.1078 288.924 81.7628 288.737 81.4034L288.19 80.3253C288.004 79.9659 287.802 79.621 287.601 79.276C287.4 78.931 287.213 78.5716 286.997 78.2266L286.365 77.206C286.149 76.861 285.948 76.516 285.718 76.1998C285.258 75.5386 284.827 74.863 284.338 74.2305L283.619 73.2674C283.375 72.9511 283.116 72.6493 282.857 72.333L282.469 71.873C282.34 71.7149 282.211 71.5568 282.081 71.413L281.276 70.5218L280.874 70.0762L280.457 69.645L279.609 68.7969C277.323 66.5832 274.779 64.6426 272.033 63.0326C269.302 61.4227 266.355 60.2008 263.308 59.3815C262.546 59.1515 261.77 59.0221 261.008 58.8496L260.72 58.7921C260.62 58.7777 260.519 58.7634 260.433 58.749L259.844 58.6627C259.456 58.6053 259.067 58.5334 258.679 58.4903C257.112 58.3321 255.531 58.2171 253.964 58.2603C250.816 58.3178 247.668 58.7921 244.664 59.7552L243.543 60.1146C243.356 60.1721 243.169 60.244 242.982 60.3158L242.436 60.5315L241.89 60.7471L241.617 60.8477C241.53 60.8764 241.43 60.9339 241.343 60.9627L240.265 61.4514C240.093 61.5377 239.906 61.6095 239.719 61.6958L239.187 61.9689L238.138 62.5152C237.793 62.7164 237.448 62.9176 237.103 63.1045C236.758 63.3058 236.413 63.4926 236.082 63.7226C233.394 65.4188 230.922 67.4456 228.679 69.7168L227.86 70.5937L227.458 71.0393C227.386 71.1112 227.314 71.1831 227.256 71.2549L227.069 71.4849L226.293 72.4049C226.164 72.563 226.035 72.7068 225.905 72.8649L225.531 73.3392L224.798 74.288C224.669 74.4461 224.568 74.6042 224.439 74.7767L224.094 75.2654C223.864 75.5961 223.634 75.9123 223.404 76.2573L222.757 77.2779C221.047 79.9947 219.58 82.884 218.43 85.8883C217.266 88.8926 216.375 92.0263 215.771 95.2174L215.541 96.4105C215.469 96.813 215.426 97.2155 215.354 97.618L215.182 98.8255C215.139 99.2279 215.095 99.6304 215.052 100.033L214.923 101.255L214.851 102.477L214.779 103.698C214.765 104.101 214.75 104.518 214.736 104.92C214.707 106.559 214.736 108.183 214.851 109.822C214.98 111.389 215.167 113.013 215.397 114.652Z" fill="#50BFD7"/>
<path d="M244.98 111.504C244.98 115.601 241.429 118.921 237.059 118.921C232.675 118.921 229.139 115.601 229.139 111.504C229.139 107.407 232.69 104.086 237.059 104.086C241.429 104.086 244.98 107.407 244.98 111.504Z" fill="white"/>
<path fill-rule="evenodd" clip-rule="evenodd" d="M237.06 104.662C232.971 104.662 229.714 107.76 229.714 111.504C229.714 115.249 232.957 118.346 237.06 118.346C241.148 118.346 244.405 115.248 244.405 111.504C244.405 107.76 241.148 104.662 237.06 104.662ZM228.564 111.504C228.564 107.055 232.409 103.512 237.06 103.512C241.711 103.512 245.555 107.055 245.555 111.504C245.555 115.954 241.711 119.496 237.06 119.496C232.393 119.496 228.564 115.953 228.564 111.504Z" fill="#2C2C2C"/>
<path d="M233.179 111.044C233.179 114.422 235.378 117.167 238.08 117.167C240.783 117.167 242.982 114.422 242.982 111.044C242.982 107.666 240.783 104.92 238.08 104.92C235.364 104.906 233.179 107.651 233.179 111.044Z" fill="#50BFD7"/>
<path d="M234.587 111.044C234.587 113.445 236.14 115.385 238.066 115.385C239.992 115.385 241.545 113.445 241.545 111.044C241.545 108.643 239.992 106.688 238.066 106.688C236.154 106.688 234.587 108.629 234.587 111.044Z" fill="#2C2C2C"/>
<path d="M234.372 106.919C234.372 107.58 235.177 108.097 236.169 108.097C237.16 108.097 237.965 107.565 237.965 106.919C237.965 106.257 237.16 105.74 236.169 105.74C235.177 105.725 234.372 106.257 234.372 106.919Z" fill="white"/>
<path d="M237.577 103.009C232.675 102.52 228.909 106.947 228.909 111.519C228.909 111.993 229.498 112.079 229.743 111.749C231.741 109.003 232.388 106.301 236.039 105.251C241.429 103.699 244.39 109.233 244.692 113.574C244.735 113.991 245.095 113.617 245.138 113.186C245.627 107.997 243.039 103.555 237.577 103.009Z" fill="#2C2C2C"/>
<path d="M247.251 100.162C247.251 100.162 236.557 89.4963 225.057 102.16C225.043 102.16 234.99 95.7923 247.251 100.162Z" fill="#2C2C2C"/>
<path d="M279.436 111.504C279.436 115.601 275.885 118.921 271.515 118.921C267.131 118.921 263.595 115.601 263.595 111.504C263.595 107.407 267.146 104.086 271.515 104.086C275.885 104.086 279.436 107.407 279.436 111.504Z" fill="white"/>
<path fill-rule="evenodd" clip-rule="evenodd" d="M271.516 104.662C267.427 104.662 264.17 107.76 264.17 111.504C264.17 115.249 267.413 118.346 271.516 118.346C275.604 118.346 278.861 115.248 278.861 111.504C278.861 107.76 275.604 104.662 271.516 104.662ZM263.02 111.504C263.02 107.055 266.864 103.512 271.516 103.512C276.167 103.512 280.011 107.055 280.011 111.504C280.011 115.954 276.167 119.496 271.516 119.496C266.849 119.496 263.02 115.953 263.02 111.504Z" fill="#2C2C2C"/>
<path d="M267.635 111.044C267.635 114.422 269.834 117.167 272.536 117.167C275.239 117.167 277.438 114.422 277.438 111.044C277.438 107.666 275.239 104.92 272.536 104.92C269.834 104.906 267.635 107.651 267.635 111.044Z" fill="#50BFD7"/>
<path d="M269.058 111.044C269.058 113.445 270.61 115.385 272.536 115.385C274.462 115.385 276.015 113.445 276.015 111.044C276.015 108.643 274.462 106.688 272.536 106.688C270.61 106.688 269.058 108.629 269.058 111.044Z" fill="#2C2C2C"/>
<path d="M268.828 106.919C268.828 107.58 269.633 108.097 270.624 108.097C271.616 108.097 272.421 107.565 272.421 106.919C272.421 106.257 271.616 105.74 270.624 105.74C269.647 105.725 268.828 106.257 268.828 106.919Z" fill="white"/>
<path d="M272.033 103.008C267.131 102.52 263.365 106.947 263.365 111.518C263.365 111.992 263.954 112.079 264.199 111.748C266.197 109.002 266.844 106.3 270.495 105.251C275.885 103.698 278.846 109.232 279.148 113.574C279.191 113.99 279.551 113.617 279.594 113.185C280.083 107.996 277.51 103.554 272.033 103.008Z" fill="#2C2C2C"/>
<path d="M281.707 98.9982C281.707 98.9982 271.013 88.3322 259.513 100.996C259.513 100.996 269.46 94.6283 281.707 98.9982Z" fill="#2C2C2C"/>
<path d="M242.651 136.889C243.011 139.678 244.362 142.251 246.475 144.12C248.588 145.988 251.305 147.009 254.122 147.009C256.94 147.009 259.657 145.988 261.77 144.12C263.883 142.251 265.248 139.692 265.593 136.889H242.651Z" fill="white"/>
<path fill-rule="evenodd" clip-rule="evenodd" d="M241.997 136.314H266.243L266.164 136.96C265.801 139.904 264.367 142.59 262.15 144.551C259.931 146.513 257.079 147.584 254.122 147.584C251.165 147.584 248.313 146.513 246.094 144.551C243.875 142.589 242.458 139.888 242.081 136.963L241.997 136.314ZM243.324 137.464C243.779 139.865 245.013 142.059 246.856 143.689C248.863 145.464 251.444 146.434 254.122 146.434C256.8 146.434 259.381 145.464 261.388 143.689C263.235 142.057 264.479 139.872 264.923 137.464H243.324Z" fill="#2C2C2C"/>
<path d="M265.147 269.956C265.147 270.315 265.464 270.732 265.837 270.689C270.078 270.243 273.327 266.966 277.51 267.656C273.312 269.74 269.675 273.362 270.193 278.695C270.25 279.357 270.883 279.615 271.372 279.213C274.376 276.654 277.826 274.369 281.851 275.217C283.576 275.576 285.603 276.252 287.385 276.022C290.044 275.691 292.287 274.484 293.609 271.911C295.938 267.454 295.075 262.107 289.857 261C289.728 260.971 289.627 260.986 289.512 261.029C287.586 260.267 285.833 259.304 284.28 257.622C282.785 255.983 281.391 254.172 279.766 252.663C277.596 250.636 275.238 249.04 272.364 250.406C271.932 250.607 271.961 251.225 272.234 251.556C273.499 253.123 274.98 254.618 276.532 256.055C274.98 255.696 273.413 255.509 271.803 255.638C268.928 255.883 265.536 257.795 265.607 261.216C265.622 261.647 265.924 261.906 266.297 261.949C268.942 262.222 271.602 262.179 274.232 262.452C270.135 263.659 265.104 265.039 265.147 269.956Z" fill="white"/>
<path fill-rule="evenodd" clip-rule="evenodd" d="M276.54 249.728C277.865 250.251 279.062 251.219 280.159 252.242C281.257 253.264 282.272 254.441 283.256 255.584C283.744 256.15 284.224 256.708 284.704 257.234C286.132 258.78 287.742 259.694 289.551 260.425C289.682 260.404 289.823 260.404 289.979 260.438C292.795 261.037 294.482 262.805 295.117 265.043C295.742 267.246 295.335 269.849 294.12 272.175C292.692 274.952 290.26 276.244 287.458 276.592C286.475 276.719 285.452 276.594 284.486 276.405C284 276.31 283.519 276.196 283.059 276.086C283.01 276.074 282.961 276.063 282.913 276.051C282.502 275.952 282.11 275.858 281.734 275.78L281.732 275.78C278.001 274.993 274.747 277.094 271.745 279.651L271.741 279.654L271.737 279.657C271.346 279.979 270.84 280.073 270.394 279.882C269.949 279.691 269.666 279.26 269.621 278.749C269.152 273.912 271.906 270.441 275.38 268.203C274.224 268.36 273.098 268.778 271.919 269.276C271.657 269.387 271.392 269.502 271.123 269.619C269.527 270.312 267.806 271.06 265.9 271.261C265.47 271.309 265.126 271.088 264.92 270.852C264.714 270.617 264.573 270.293 264.573 269.959C264.55 267.251 265.948 265.512 267.831 264.327C268.825 263.701 269.97 263.219 271.13 262.814C270.836 262.801 270.541 262.788 270.245 262.775L270.233 262.775C268.916 262.717 267.577 262.659 266.239 262.521L266.235 262.521L266.232 262.52C265.617 262.449 265.058 261.991 265.033 261.235L265.033 261.232L265.033 261.228C264.992 259.299 265.937 257.806 267.246 256.783C268.545 255.769 270.222 255.196 271.754 255.066L271.756 255.066L271.757 255.066C272.773 254.984 273.768 255.023 274.747 255.148C273.692 254.108 272.688 253.034 271.789 251.92C271.557 251.638 271.44 251.258 271.461 250.9C271.482 250.529 271.663 250.1 272.119 249.886C273.712 249.13 275.186 249.193 276.54 249.728ZM272.616 250.923C272.614 250.931 272.61 250.944 272.609 250.965C272.607 251.001 272.612 251.045 272.626 251.09C272.641 251.136 272.661 251.17 272.678 251.19L272.68 251.193L272.682 251.195C273.923 252.732 275.381 254.206 276.923 255.634L278.511 257.104L276.403 256.616C274.89 256.266 273.385 256.089 271.85 256.212C270.509 256.326 269.053 256.831 267.954 257.689C266.868 258.538 266.152 259.709 266.182 261.2C266.185 261.275 266.209 261.306 266.224 261.322C266.245 261.342 266.287 261.369 266.361 261.378C267.662 261.512 268.97 261.569 270.295 261.626L270.3 261.626C271.62 261.684 272.958 261.742 274.292 261.88L277.187 262.181L274.395 263.004C274.323 263.025 274.252 263.046 274.18 263.067C272.171 263.659 270.068 264.277 268.444 265.3C266.799 266.335 265.703 267.744 265.723 269.951L265.723 269.953V269.956C265.723 269.963 265.725 269.984 265.737 270.015C265.749 270.045 265.766 270.073 265.785 270.095C265.793 270.104 265.8 270.11 265.805 270.114C267.511 269.93 269.043 269.266 270.638 268.575C270.913 268.456 271.191 268.336 271.471 268.217C273.346 267.424 275.337 266.715 277.603 267.089L279.361 267.379L277.766 268.171C273.659 270.21 270.282 273.657 270.765 278.64L270.766 278.643L270.766 278.646C270.773 278.723 270.794 278.768 270.809 278.79C270.824 278.812 270.838 278.821 270.847 278.825C270.856 278.829 270.871 278.832 270.893 278.828C270.915 278.825 270.954 278.812 271.003 278.772C274.009 276.212 277.653 273.745 281.969 274.654C282.363 274.736 282.773 274.835 283.181 274.932C283.229 274.944 283.278 274.956 283.327 274.968C283.787 275.078 284.247 275.186 284.707 275.276C285.631 275.457 286.512 275.555 287.312 275.452L287.313 275.451L287.314 275.451C289.829 275.139 291.881 274.016 293.098 271.648L293.099 271.646L293.1 271.644C294.212 269.516 294.538 267.217 294.01 265.357C293.492 263.53 292.139 262.072 289.738 261.563L289.736 261.562L289.733 261.562C289.733 261.562 289.732 261.562 289.732 261.562C289.728 261.563 289.722 261.565 289.715 261.568L289.507 261.645L289.301 261.564C287.328 260.784 285.489 259.78 283.858 258.012L283.857 258.011L283.855 258.01C283.327 257.431 282.823 256.845 282.324 256.266C281.368 255.154 280.43 254.064 279.375 253.084L279.374 253.083C278.3 252.08 277.233 251.237 276.118 250.797C275.034 250.37 273.894 250.318 272.616 250.923Z" fill="#2C2C2C"/>
<path d="M226.897 471.459C226.897 471.459 227.745 474.147 227.989 474.564C228.248 474.981 234.846 477.252 242.896 477.079C251.262 476.907 255.085 474.478 255.2 471.445H226.897V471.459Z" fill="#50BFD7"/>
<path fill-rule="evenodd" clip-rule="evenodd" d="M226.322 470.87H255.798L255.775 471.467C255.707 473.262 254.532 474.783 252.399 475.85C250.276 476.911 247.133 477.568 242.908 477.655M226.322 470.87V471.445V470.87ZM226.897 471.459L226.349 471.632L226.322 471.548V471.445M226.897 471.459C226.349 471.632 226.349 471.632 226.349 471.632L226.358 471.663C226.365 471.683 226.374 471.713 226.386 471.75C226.41 471.825 226.444 471.932 226.486 472.062C226.57 472.322 226.684 472.673 226.806 473.038C226.928 473.402 227.059 473.783 227.176 474.101C227.284 474.397 227.401 474.697 227.493 474.855L227.497 474.861L227.501 474.868C227.558 474.96 227.629 475.023 227.669 475.055C227.716 475.093 227.765 475.126 227.811 475.154C227.902 475.209 228.012 475.266 228.134 475.322C228.378 475.434 228.708 475.563 229.108 475.701C229.912 475.978 231.034 476.301 232.396 476.604C235.12 477.211 238.828 477.742 242.908 477.655M227.681 472.02H254.543C254.293 473.045 253.478 474.025 251.885 474.821C249.976 475.775 247.025 476.42 242.884 476.505L242.884 476.505C238.914 476.59 235.298 476.072 232.646 475.482C231.32 475.187 230.24 474.875 229.483 474.614C229.103 474.483 228.812 474.368 228.614 474.277C228.541 474.243 228.486 474.215 228.447 474.194C228.434 474.165 228.42 474.132 228.404 474.093C228.361 473.989 228.311 473.857 228.255 473.705C228.144 473.402 228.017 473.033 227.897 472.673C227.82 472.444 227.746 472.219 227.681 472.02Z" fill="#2C2C2C"/>
<path d="M226.911 472.034C228.176 473.17 229.829 474.032 231.037 474.42C234.041 475.412 237.333 475.786 240.481 475.958C243.83 476.131 247.51 476.073 250.644 474.751C252.34 474.032 253.777 472.983 255.114 471.79C255.718 470.309 255.876 468.627 255.833 466.902C255.732 463.797 255.028 460.793 254.482 457.746C254.395 457.3 254.323 456.869 254.252 456.437C254.093 454.454 253.95 452.456 253.82 450.486C253.777 449.753 253.691 449.106 253.705 448.373C253.72 447.885 253.892 447.094 253.763 446.634C253.748 446.576 253.72 446.533 253.705 446.49C253.705 446.418 253.72 446.346 253.705 446.275C253.145 445.815 252.555 445.383 251.88 445.196C251.391 445.283 250.902 445.441 250.586 445.57C250.083 445.771 249.637 446.03 249.235 446.332C248.243 444.981 245.799 444.348 244.419 444.291C242.263 444.205 239.388 444.578 237.678 446.16C237.39 445.886 236.945 445.743 236.556 445.671C236.47 445.656 236.37 445.642 236.283 445.628C235.277 446.016 235.536 448.488 235.435 449.193C235.291 450.127 235.148 451.061 234.918 451.967C234.458 453.706 233.796 455.302 232.79 456.797C231.712 458.407 230.303 459.801 229.067 461.282C228.895 461.584 228.708 461.885 228.535 462.173C227.213 464.3 226.135 467.391 226.422 469.921C226.494 470.726 226.667 471.416 226.911 472.034Z" fill="#50BFD7"/>
<path fill-rule="evenodd" clip-rule="evenodd" d="M240.751 444.04C242.014 443.745 243.325 443.671 244.443 443.716L244.444 443.716C245.195 443.747 246.209 443.932 247.172 444.287C247.945 444.572 248.741 444.987 249.331 445.568C249.651 445.366 249.996 445.187 250.371 445.037C250.719 444.895 251.246 444.724 251.78 444.63L251.908 444.607L252.033 444.642C252.835 444.864 253.505 445.366 254.07 445.83L254.229 445.96L254.269 446.162C254.287 446.252 254.288 446.332 254.286 446.386C254.297 446.414 254.309 446.447 254.319 446.485C254.413 446.828 254.389 447.236 254.361 447.545C254.348 447.69 254.333 447.817 254.321 447.932C254.301 448.107 254.285 448.252 254.28 448.387C254.271 448.858 254.305 449.271 254.342 449.728C254.36 449.954 254.379 450.191 254.394 450.451C254.523 452.409 254.666 454.395 254.823 456.367C254.894 456.791 254.963 457.207 255.046 457.636L255.047 457.64L255.048 457.644C255.16 458.272 255.281 458.903 255.402 459.537C255.86 461.938 256.327 464.383 256.408 466.883L256.408 466.885L256.408 466.888C256.452 468.65 256.293 470.421 255.647 472.006L255.596 472.13L255.497 472.218C254.133 473.435 252.643 474.528 250.868 475.28L250.867 475.28C247.605 476.657 243.811 476.705 240.451 476.532L240.449 476.532C237.285 476.359 233.934 475.982 230.859 474.967C229.581 474.556 227.857 473.655 226.527 472.462L226.426 472.371L226.377 472.245C226.112 471.577 225.928 470.835 225.85 469.979C225.546 467.276 226.687 464.06 228.045 461.873C228.095 461.789 228.146 461.705 228.197 461.622C228.323 461.413 228.448 461.206 228.568 460.996L228.594 460.952L228.626 460.913C229.051 460.404 229.482 459.92 229.906 459.443C230.768 458.475 231.604 457.534 232.313 456.477L232.314 456.476C233.277 455.044 233.914 453.511 234.361 451.822C234.583 450.95 234.722 450.045 234.867 449.108C234.884 448.984 234.888 448.763 234.893 448.431C234.893 448.415 234.894 448.399 234.894 448.383C234.9 448.047 234.908 447.638 234.948 447.236C234.986 446.838 235.058 446.408 235.207 446.036C235.354 445.668 235.612 445.27 236.077 445.091L236.223 445.035L236.378 445.06C236.417 445.067 236.46 445.073 236.508 445.081L236.509 445.081C236.555 445.088 236.605 445.096 236.651 445.103L236.656 445.104L236.661 445.105C236.948 445.158 237.311 445.254 237.644 445.435C238.542 444.733 239.643 444.298 240.751 444.04ZM241.012 445.16C239.867 445.427 238.825 445.882 238.068 446.582L237.673 446.947L237.282 446.576C237.119 446.422 236.813 446.303 236.457 446.237C236.441 446.234 236.424 446.232 236.406 446.229C236.368 446.273 236.322 446.345 236.275 446.463C236.186 446.686 236.127 446.99 236.092 447.347C236.058 447.699 236.049 448.065 236.044 448.402C236.043 448.433 236.043 448.463 236.042 448.494C236.038 448.779 236.033 449.073 236.005 449.274L236.004 449.277L236.002 449.293C235.859 450.219 235.712 451.176 235.475 452.108L235.475 452.111L235.474 452.114C235.001 453.902 234.316 455.559 233.268 457.117C232.516 458.239 231.589 459.283 230.698 460.285C230.299 460.734 229.907 461.175 229.541 461.612C229.421 461.82 229.293 462.031 229.173 462.23C229.123 462.312 229.075 462.392 229.029 462.469L229.026 462.472L229.024 462.476C227.74 464.543 226.726 467.502 226.994 469.856L226.995 469.863L226.995 469.869C227.057 470.565 227.199 471.162 227.398 471.696C228.584 472.729 230.107 473.517 231.213 473.872L231.215 473.873L231.217 473.874C234.149 474.842 237.381 475.212 240.511 475.384C243.85 475.556 247.416 475.489 250.42 474.221C251.996 473.553 253.35 472.581 254.63 471.45C255.152 470.103 255.299 468.556 255.258 466.918C255.18 464.518 254.736 462.188 254.281 459.799C254.158 459.155 254.034 458.506 253.917 457.851C253.829 457.399 253.757 456.963 253.685 456.535L253.681 456.507L253.679 456.483C253.52 454.496 253.376 452.496 253.247 450.524L253.247 450.522L253.247 450.52C253.234 450.313 253.218 450.103 253.2 449.888C253.161 449.399 253.12 448.891 253.131 448.362L253.131 448.359L253.131 448.356C253.136 448.178 253.162 447.945 253.185 447.731C253.197 447.627 253.208 447.527 253.216 447.441C253.244 447.124 253.242 446.912 253.211 446.795C253.21 446.793 253.209 446.791 253.208 446.788L253.205 446.783C253.203 446.777 253.198 446.768 253.194 446.758C253.186 446.739 253.172 446.709 253.16 446.672L253.131 446.583V446.55C252.695 446.206 252.282 445.933 251.848 445.788C251.45 445.869 251.06 445.997 250.804 446.102L250.802 446.103L250.8 446.104C250.347 446.285 249.945 446.518 249.58 446.792L249.115 447.14L248.772 446.672C248.374 446.13 247.639 445.684 246.774 445.366C245.922 445.052 245.025 444.891 244.396 444.865C243.357 444.824 242.153 444.894 241.012 445.16Z" fill="#2C2C2C"/>
<path d="M289.225 471.459C289.225 471.459 288.391 474.147 288.133 474.564C287.874 474.981 281.276 477.252 273.226 477.079C264.86 476.907 261.037 474.478 260.922 471.445H289.225V471.459Z" fill="#50BFD7"/>
<path fill-rule="evenodd" clip-rule="evenodd" d="M260.324 470.87H289.8V471.547L289.774 471.63L289.225 471.459C289.774 471.63 289.774 471.63 289.774 471.63L289.774 471.63L289.774 471.63L289.765 471.661C289.758 471.681 289.749 471.71 289.737 471.748C289.714 471.823 289.68 471.93 289.639 472.06C289.556 472.32 289.443 472.672 289.321 473.037C289.2 473.401 289.07 473.783 288.952 474.102C288.844 474.396 288.723 474.704 288.621 474.868C288.564 474.96 288.492 475.023 288.453 475.055C288.406 475.093 288.357 475.126 288.311 475.154C288.22 475.209 288.109 475.266 287.988 475.322C287.744 475.434 287.414 475.563 287.014 475.701C286.21 475.978 285.088 476.301 283.726 476.604C281.002 477.211 277.294 477.742 273.214 477.655M288.444 472.02H261.579C261.829 473.045 262.644 474.025 264.237 474.821C266.145 475.775 269.097 476.42 273.238 476.505L273.238 476.505C277.208 476.59 280.824 476.072 283.476 475.482C284.802 475.187 285.882 474.875 286.639 474.614C287.019 474.483 287.31 474.368 287.508 474.277C287.583 474.242 287.64 474.213 287.679 474.192C287.692 474.163 287.707 474.129 287.724 474.089C287.767 473.986 287.817 473.856 287.873 473.704C287.984 473.402 288.111 473.034 288.23 472.674C288.307 472.444 288.38 472.22 288.444 472.02ZM260.324 470.87L260.347 471.467L260.324 470.87ZM260.347 471.467C260.415 473.262 261.589 474.783 263.722 475.85L260.347 471.467ZM263.722 475.85C265.846 476.911 268.989 477.568 273.214 477.655L263.722 475.85Z" fill="#2C2C2C"/>
<path d="M289.211 472.034C287.946 473.17 286.293 474.032 285.085 474.42C282.081 475.412 278.789 475.786 275.641 475.958C272.292 476.131 268.612 476.073 265.478 474.751C263.782 474.032 262.345 472.983 261.008 471.79C260.404 470.309 260.246 468.627 260.289 466.902C260.39 463.797 261.094 460.793 261.64 457.746C261.726 457.3 261.798 456.869 261.87 456.437C262.028 454.454 262.172 452.456 262.301 450.486C262.359 449.753 262.431 449.106 262.416 448.373C262.402 447.885 262.23 447.094 262.359 446.634C262.373 446.576 262.402 446.533 262.416 446.49C262.416 446.418 262.402 446.346 262.416 446.275C262.977 445.815 263.552 445.383 264.242 445.196C264.731 445.283 265.219 445.441 265.536 445.57C266.039 445.771 266.484 446.03 266.887 446.332C267.879 444.981 270.322 444.348 271.702 444.291C273.859 444.205 276.734 444.578 278.444 446.16C278.732 445.886 279.177 445.743 279.565 445.671C279.652 445.656 279.752 445.642 279.838 445.628C280.845 446.016 280.586 448.488 280.687 449.193C280.83 450.127 280.974 451.061 281.204 451.967C281.664 453.706 282.325 455.302 283.332 456.797C284.41 458.407 285.818 459.801 287.055 461.282C287.227 461.584 287.414 461.885 287.586 462.173C288.909 464.3 289.987 467.391 289.7 469.921C289.628 470.726 289.455 471.416 289.211 472.034Z" fill="#50BFD7"/>
<path fill-rule="evenodd" clip-rule="evenodd" d="M275.11 445.16C273.969 444.894 272.765 444.824 271.726 444.865C271.097 444.891 270.2 445.052 269.348 445.366C268.483 445.684 267.749 446.13 267.351 446.672L267.007 447.14L266.542 446.792C266.177 446.518 265.775 446.285 265.322 446.104L265.32 446.103L265.318 446.102C265.061 445.997 264.671 445.869 264.272 445.787C263.831 445.932 263.428 446.203 262.992 446.549V446.583L262.962 446.672C262.95 446.709 262.937 446.739 262.928 446.758C262.924 446.768 262.92 446.777 262.917 446.783C262.914 446.789 262.913 446.792 262.911 446.795C262.88 446.912 262.878 447.124 262.907 447.441C262.914 447.527 262.925 447.627 262.937 447.731C262.96 447.945 262.986 448.178 262.991 448.356L262.991 448.359L262.991 448.362C263.004 448.99 262.956 449.564 262.907 450.14C262.896 450.269 262.885 450.398 262.875 450.527C262.746 452.498 262.602 454.497 262.444 456.483L262.442 456.507L262.437 456.535C262.366 456.963 262.293 457.399 262.206 457.851C262.088 458.506 261.964 459.155 261.842 459.799C261.386 462.188 260.942 464.518 260.864 466.918C260.823 468.556 260.97 470.103 261.492 471.45C262.772 472.581 264.126 473.553 265.702 474.221C268.707 475.489 272.272 475.556 275.611 475.384C278.741 475.212 281.973 474.842 284.905 473.874L284.907 473.873L284.909 473.872C286.015 473.517 287.539 472.729 288.725 471.696C288.923 471.162 289.065 470.565 289.127 469.869L289.128 469.863L289.128 469.856C289.396 467.502 288.383 464.543 287.098 462.476L287.096 462.472L287.094 462.469C287.047 462.392 286.999 462.312 286.95 462.23C286.829 462.031 286.701 461.82 286.581 461.612C286.216 461.175 285.824 460.734 285.424 460.285C284.533 459.283 283.606 458.239 282.854 457.117C281.806 455.559 281.121 453.902 280.648 452.114L280.648 452.111L280.647 452.108C280.41 451.176 280.263 450.219 280.121 449.293L280.118 449.277L280.118 449.274C280.089 449.073 280.084 448.779 280.08 448.494C280.079 448.463 280.079 448.433 280.078 448.402C280.073 448.065 280.064 447.699 280.03 447.347C279.995 446.99 279.937 446.686 279.848 446.463C279.801 446.345 279.755 446.273 279.716 446.229C279.698 446.232 279.681 446.234 279.665 446.237C279.31 446.303 279.003 446.422 278.84 446.576L278.45 446.947L278.054 446.582C277.297 445.882 276.255 445.427 275.11 445.16ZM278.478 445.435C277.58 444.733 276.479 444.298 275.371 444.04C274.108 443.745 272.797 443.671 271.68 443.716L271.679 443.716C270.928 443.747 269.913 443.932 268.951 444.287C268.177 444.572 267.381 444.987 266.792 445.568C266.471 445.366 266.126 445.187 265.752 445.037C265.404 444.895 264.876 444.724 264.342 444.63L264.216 444.608L264.092 444.641C263.272 444.863 262.613 445.369 262.052 445.83L261.893 445.96L261.853 446.162C261.835 446.252 261.834 446.332 261.836 446.386C261.825 446.414 261.814 446.447 261.804 446.485C261.709 446.828 261.733 447.236 261.761 447.545C261.775 447.69 261.789 447.817 261.802 447.932C261.821 448.107 261.838 448.252 261.842 448.387C261.853 448.949 261.811 449.452 261.763 450.022C261.751 450.157 261.74 450.297 261.728 450.441L261.728 450.445L261.728 450.448C261.599 452.407 261.456 454.394 261.299 456.367C261.229 456.791 261.159 457.207 261.076 457.636L261.075 457.64L261.074 457.644C260.962 458.272 260.841 458.903 260.72 459.537C260.262 461.938 259.796 464.383 259.714 466.883L259.714 466.885L259.714 466.888C259.67 468.65 259.829 470.421 260.475 472.006L260.526 472.13L260.625 472.218C261.989 473.435 263.479 474.528 265.254 475.28L265.255 475.28C268.518 476.657 272.312 476.705 275.671 476.532L275.673 476.532C278.837 476.359 282.188 475.982 285.263 474.967C286.541 474.556 288.265 473.655 289.595 472.462L289.696 472.371L289.746 472.245C290.01 471.577 290.195 470.835 290.272 469.979C290.576 467.276 289.436 464.06 288.077 461.873C288.027 461.789 287.976 461.705 287.926 461.622C287.799 461.413 287.674 461.206 287.554 460.996L287.529 460.952L287.496 460.913C287.071 460.404 286.641 459.92 286.216 459.443C285.354 458.475 284.518 457.534 283.809 456.477L283.809 456.476C282.845 455.044 282.208 453.511 281.761 451.822C281.539 450.95 281.4 450.045 281.256 449.108C281.238 448.983 281.234 448.763 281.229 448.431L281.228 448.383C281.223 448.047 281.214 447.638 281.175 447.236C281.136 446.838 281.064 446.408 280.915 446.036C280.769 445.668 280.51 445.27 280.046 445.091L279.899 445.035L279.744 445.06C279.705 445.067 279.662 445.073 279.615 445.081L279.613 445.081C279.567 445.088 279.518 445.096 279.471 445.103L279.466 445.104L279.461 445.105C279.174 445.158 278.811 445.254 278.478 445.435ZM261.879 446.287C261.879 446.287 261.879 446.287 261.879 446.287V446.287Z" fill="#2C2C2C"/>
<path fill-rule="evenodd" clip-rule="evenodd" d="M217.596 106.099V106.387H216.446V106.099H217.596Z" fill="#2C2C2C"/>
<path fill-rule="evenodd" clip-rule="evenodd" d="M223.633 109.261V109.549H222.483V109.261H223.633Z" fill="#2C2C2C"/>
<path d="M256.336 107.565C258.306 107.982 257.573 109.261 257.573 109.448C257.573 109.635 258.306 120.272 267.807 123.075C277.309 125.878 283.001 120.373 284.654 117.613C286.307 114.853 287.687 108.298 288.09 107.795C288.507 107.292 290.476 106.415 290.476 106.415L290.706 103.842L288.234 103.109C288.234 103.109 281.995 100.263 272.81 100.133C263.639 99.9895 258.449 105.279 258.449 105.279C255.862 104.46 252.657 104.345 249.724 105.279C249.724 105.279 244.535 100.004 235.364 100.133C226.193 100.277 219.94 103.109 219.94 103.109L217.467 103.842L217.697 106.415C217.697 106.415 219.667 107.292 220.084 107.795C220.5 108.298 221.866 114.867 223.519 117.613C225.172 120.373 230.865 125.878 240.366 123.075C249.868 120.272 250.601 109.635 250.601 109.448C250.601 109.261 249.868 107.982 251.837 107.565C253.548 107.206 254.626 107.206 256.336 107.565ZM279.135 120.876C271.89 125.231 263.207 120.833 260.591 115.097C257.975 109.362 260.174 106.329 260.174 106.329C264.559 99.1989 282.196 98.897 285.229 106.602C285.747 107.896 286.394 116.52 279.135 120.876ZM222.93 106.602C225.963 98.8827 243.615 99.1989 247.985 106.329C247.985 106.329 250.184 109.362 247.568 115.097C244.952 120.833 236.284 125.231 229.025 120.876C221.78 116.52 222.427 107.896 222.93 106.602Z" fill="#2C2C2C"/>
<path d="M260.778 184.757H249.738C246.806 184.757 244.42 187.143 244.42 190.076V201.115C244.42 204.048 246.806 206.434 249.738 206.434H260.778C263.71 206.434 266.096 204.048 266.096 201.115V190.076C266.096 187.143 263.725 184.757 260.778 184.757ZM241.487 180.057C239.805 180.057 238.44 181.422 238.44 183.104C238.44 184.786 239.805 186.151 241.487 186.151C243.169 186.151 244.535 184.786 244.535 183.104C244.535 181.422 243.169 180.057 241.487 180.057Z" fill="white"/>
<path d="M260.002 191.341C259.297 189.458 257.501 188.207 255.488 188.207H252.498L258.406 203.185H264.745L260.002 191.341ZM247.927 198.887L246.202 203.185H252.498L255.431 195.754H252.441C250.428 195.754 248.631 197.004 247.927 198.887ZM248.905 191.93C249.94 191.93 250.788 191.082 250.788 190.047C250.788 189.012 249.94 188.164 248.905 188.164C247.87 188.164 247.022 189.012 247.022 190.047C247.022 191.082 247.87 191.93 248.905 191.93Z" fill="#50BFD7"/>
<path opacity="0.3" fill-rule="evenodd" clip-rule="evenodd" d="M105.166 290.138C105.166 289.678 105.539 289.306 105.998 289.306H160.535C160.995 289.306 161.367 289.678 161.367 290.138V343.675C161.367 344.135 160.995 344.508 160.535 344.508H105.998C105.539 344.508 105.166 344.135 105.166 343.675V290.138ZM106.831 290.971V342.843H159.702V290.971H106.831Z" fill="#454545"/>
<path opacity="0.3" fill-rule="evenodd" clip-rule="evenodd" d="M136.233 294.181C134.953 294.286 134.004 294.533 133.492 294.846L133.386 294.91L133.265 294.941L133.259 294.943L133.237 294.949L133.145 294.973C133.063 294.996 132.941 295.03 132.784 295.075C132.471 295.166 132.021 295.303 131.477 295.485C130.389 295.849 128.938 296.392 127.477 297.106C126.01 297.823 124.568 298.695 123.472 299.706C122.371 300.722 121.691 301.808 121.581 302.957L121.58 302.97L121.578 302.983C121.228 305.721 121.228 308.493 121.578 311.231L121.685 312.067L120.861 312.162C120.857 312.163 120.85 312.164 120.839 312.167C120.81 312.174 120.76 312.187 120.7 312.212C120.578 312.261 120.426 312.348 120.295 312.5C120.069 312.76 119.7 313.456 120.204 315.202L120.208 315.216L120.211 315.23C120.71 317.22 121.855 318.988 123.466 320.258L123.666 320.415L125.48 326.077L124.453 330.27H121.704L122.201 335.36L121.493 335.527L121.455 335.536L121.34 335.563C121.238 335.588 121.09 335.624 120.899 335.67C120.519 335.764 119.972 335.899 119.313 336.069C117.992 336.409 116.22 336.885 114.407 337.427C112.59 337.971 110.751 338.576 109.288 339.175C108.556 339.475 107.938 339.766 107.472 340.037C107.153 340.222 106.951 340.373 106.831 340.482V342.843H159.702V342.233L159.03 341.633L159.013 341.616C158.827 341.429 158.443 341.163 157.842 340.832C157.257 340.511 156.525 340.16 155.691 339.793C154.023 339.059 151.993 338.28 150.018 337.564C148.046 336.849 146.141 336.203 144.728 335.734C144.022 335.5 143.439 335.311 143.033 335.18C142.83 335.115 142.672 335.064 142.564 335.03L142.441 334.991L142.401 334.978L141.873 334.812L141.597 331.891L138.642 331.35L137.598 324.956L138.416 324.82L138.424 324.818L138.458 324.812C138.489 324.806 138.537 324.797 138.6 324.784C138.725 324.758 138.91 324.718 139.139 324.659C139.598 324.543 140.224 324.357 140.897 324.085C142.277 323.525 143.695 322.66 144.386 321.408C144.514 321.177 144.623 320.785 144.678 320.206C144.731 319.64 144.727 318.958 144.674 318.192C144.569 316.661 144.275 314.873 143.924 313.154C143.574 311.439 143.172 309.814 142.858 308.616C142.7 308.018 142.565 307.528 142.469 307.187C142.421 307.017 142.383 306.885 142.357 306.795L142.328 306.694L142.32 306.668L142.319 306.662L142.318 306.66L142.215 306.311L142.4 305.999L142.405 305.991L142.424 305.958C142.442 305.928 142.468 305.881 142.501 305.82C142.568 305.697 142.664 305.517 142.774 305.291C142.995 304.837 143.272 304.208 143.498 303.505C143.971 302.032 144.132 300.51 143.505 299.481L140.506 294.562L142.87 295.548L142.874 295.549L142.888 295.555L142.944 295.578C142.994 295.598 143.068 295.628 143.161 295.665C143.348 295.739 143.614 295.842 143.926 295.956C144.555 296.186 145.353 296.455 146.071 296.632C146.364 296.704 146.631 296.757 146.859 296.787C146.446 296.239 145.623 295.704 144.443 295.255C143.272 294.809 141.853 294.486 140.398 294.303C138.944 294.12 137.483 294.079 136.233 294.181ZM144.499 297.913C144.884 298.036 145.285 298.153 145.674 298.249C146.075 298.347 146.483 298.428 146.854 298.462C147.198 298.494 147.623 298.5 147.992 298.358C148.191 298.281 148.418 298.144 148.585 297.904C148.757 297.657 148.81 297.378 148.793 297.121C148.763 296.667 148.51 296.223 148.217 295.824C147.526 294.881 146.336 294.194 145.035 293.698C143.71 293.194 142.156 292.846 140.606 292.651C139.054 292.455 137.477 292.409 136.097 292.522C134.805 292.628 133.586 292.881 132.736 293.359L132.708 293.367C132.617 293.391 132.486 293.428 132.32 293.476C131.988 293.572 131.516 293.716 130.948 293.906C129.816 294.285 128.293 294.854 126.746 295.61C125.205 296.362 123.605 297.318 122.342 298.483C121.087 299.64 120.093 301.074 119.925 302.784C119.586 305.436 119.561 308.117 119.847 310.773C119.59 310.906 119.299 311.107 119.037 311.409C118.315 312.242 118.009 313.59 118.599 315.65C119.169 317.907 120.443 319.922 122.234 321.403L123.751 326.137L123.146 328.605H119.868L120.403 334.077C120.024 334.171 119.509 334.299 118.897 334.457C117.564 334.8 115.77 335.281 113.93 335.832C112.094 336.381 110.194 337.005 108.657 337.634C107.89 337.948 107.194 338.272 106.634 338.598C106.106 338.905 105.583 339.279 105.295 339.733L105.166 339.937V344.508H161.367V341.487L160.173 340.421C159.81 340.064 159.259 339.711 158.644 339.373C158 339.019 157.219 338.646 156.361 338.269C154.644 337.513 152.574 336.719 150.586 335.998C148.594 335.277 146.674 334.625 145.252 334.153C144.54 333.918 143.953 333.727 143.544 333.595C143.503 333.582 143.464 333.569 143.427 333.557L143.137 330.481L140.097 329.923L139.503 326.285C139.518 326.281 139.534 326.277 139.55 326.273C140.062 326.143 140.763 325.936 141.523 325.628C143.007 325.026 144.87 323.976 145.843 322.213C146.132 321.691 146.272 321.037 146.336 320.363C146.401 319.675 146.392 318.896 146.336 318.078C146.223 316.441 145.913 314.571 145.556 312.821C145.198 311.066 144.788 309.409 144.468 308.193C144.308 307.584 144.17 307.084 144.072 306.736C144.05 306.658 144.03 306.588 144.013 306.526C144.084 306.393 144.172 306.222 144.271 306.02C144.516 305.518 144.826 304.814 145.083 304.014C145.576 302.482 145.964 300.315 144.926 298.614L144.499 297.913Z" fill="#454545"/>
<path d="M340.518 327.117L352.082 437.906" stroke="#263238" stroke-width="2" stroke-miterlimit="10"/>
<path d="M350.218 416.708L344.978 411.172" stroke="#263238" stroke-width="2" stroke-miterlimit="10"/>
<path d="M346.567 412.827C346.558 411.98 346.366 411.145 346.006 410.378C345.646 409.611 345.125 408.931 344.479 408.382C343.134 407.183 336.052 404.205 335.379 406.698C334.649 409.409 341.899 414.764 346.567 412.827Z" fill="#50BFD7" stroke="#263238" stroke-miterlimit="10"/>
<path d="M346.567 412.827L339.824 408.628" stroke="#263238" stroke-width="0.5" stroke-miterlimit="10"/>
<path d="M351.533 429.306L346.286 423.77" stroke="#263238" stroke-width="2" stroke-miterlimit="10"/>
<path d="M347.883 425.425C347.873 424.577 347.681 423.742 347.321 422.976C346.961 422.209 346.44 421.528 345.794 420.98C344.45 419.78 337.367 416.802 336.695 419.296C335.965 421.992 343.214 427.333 347.883 425.425Z" fill="#50BFD7" stroke="#263238" stroke-miterlimit="10"/>
<path d="M347.883 425.425L341.14 421.226" stroke="#263238" stroke-width="0.5" stroke-miterlimit="10"/>
<path d="M347.008 385.962L341.768 380.426" stroke="#263238" stroke-width="2" stroke-miterlimit="10"/>
<path d="M343.359 382.082C343.349 381.235 343.157 380.399 342.797 379.633C342.437 378.866 341.916 378.185 341.27 377.637C339.925 376.437 332.843 373.459 332.17 375.953C331.455 378.663 338.682 383.99 343.359 382.082Z" fill="#50BFD7" stroke="#263238" stroke-miterlimit="10"/>
<path d="M343.358 382.082L336.615 377.883" stroke="#263238" stroke-width="0.5" stroke-miterlimit="10"/>
<path d="M348.324 398.56L343.084 393.024" stroke="#263238" stroke-width="2" stroke-miterlimit="10"/>
<path d="M344.674 394.679C344.664 393.832 344.472 392.997 344.112 392.23C343.752 391.463 343.231 390.783 342.585 390.234C341.241 389.034 334.158 386.057 333.486 388.55C332.756 391.26 340.005 396.587 344.674 394.679Z" fill="#50BFD7" stroke="#263238" stroke-miterlimit="10"/>
<path d="M344.674 394.679L337.931 390.48" stroke="#263238" stroke-width="0.5" stroke-miterlimit="10"/>
<path d="M344.869 365.495L339.629 359.958" stroke="#263238" stroke-width="2" stroke-miterlimit="10"/>
<path d="M341.219 361.613C341.21 360.767 341.019 359.932 340.66 359.165C340.301 358.399 339.782 357.718 339.138 357.169C337.793 355.969 330.732 352.991 330.01 355.499C329.287 358.195 336.558 363.522 341.219 361.613Z" fill="#50BFD7" stroke="#263238" stroke-miterlimit="10"/>
<path d="M341.219 361.613L334.483 357.414" stroke="#263238" stroke-width="0.5" stroke-miterlimit="10"/>
<path d="M342.723 344.94L337.483 339.404" stroke="#263238" stroke-width="2" stroke-miterlimit="10"/>
<path d="M339.08 341.044C339.068 340.198 338.876 339.363 338.516 338.596C338.155 337.83 337.636 337.149 336.991 336.6C335.647 335.4 328.564 332.415 327.892 334.908C327.162 337.64 334.411 342.967 339.08 341.044Z" fill="#50BFD7" stroke="#263238" stroke-miterlimit="10"/>
<path d="M339.08 341.059L332.337 336.86" stroke="#263238" stroke-width="0.5" stroke-miterlimit="10"/>
<path d="M349.336 409.249L353.318 402.752" stroke="#263238" stroke-width="2" stroke-miterlimit="10"/>
<path d="M352.104 404.704C351.94 403.873 351.955 403.017 352.15 402.193C352.344 401.369 352.713 400.596 353.231 399.926C354.294 398.481 360.61 394.094 361.781 396.392C363.053 398.9 357.062 405.607 352.104 404.704Z" fill="#50BFD7" stroke="#263238" stroke-miterlimit="10"/>
<path d="M352.104 404.704L358.175 398.9" stroke="#263238" stroke-width="0.5" stroke-miterlimit="10"/>
<path d="M345.874 376.097L349.863 369.593" stroke="#263238" stroke-width="2" stroke-miterlimit="10"/>
<path d="M348.642 371.544C348.478 370.713 348.493 369.857 348.688 369.033C348.882 368.209 349.251 367.436 349.769 366.767C350.839 365.321 357.149 360.934 358.319 363.24C359.599 365.74 353.607 372.447 348.642 371.544Z" fill="#50BFD7" stroke="#263238" stroke-miterlimit="10"/>
<path d="M348.642 371.544L354.713 365.747" stroke="#263238" stroke-width="0.5" stroke-miterlimit="10"/>
<path d="M344.356 361.527L348.338 355.022" stroke="#263238" stroke-width="2" stroke-miterlimit="10"/>
<path d="M347.124 356.945C346.96 356.115 346.975 355.259 347.168 354.435C347.361 353.611 347.728 352.838 348.244 352.167C349.314 350.722 355.631 346.335 356.802 348.64C358.074 351.163 352.082 357.877 347.124 356.945Z" fill="#50BFD7" stroke="#263238" stroke-miterlimit="10"/>
<path d="M347.124 356.974L353.195 351.177" stroke="#263238" stroke-width="0.5" stroke-miterlimit="10"/>
<path d="M342.123 340.163L346.112 333.665" stroke="#263238" stroke-width="2" stroke-miterlimit="10"/>
<path d="M344.891 335.616C344.727 334.785 344.743 333.927 344.937 333.102C345.132 332.277 345.5 331.503 346.018 330.832C347.088 329.386 353.398 325.007 354.568 327.305C355.848 329.806 349.856 336.52 344.891 335.616Z" fill="#50BFD7" stroke="#263238" stroke-miterlimit="10"/>
<path d="M344.891 335.617L350.962 329.813" stroke="#263238" stroke-width="0.5" stroke-miterlimit="10"/>
<path d="M340.417 326.503C340.253 325.672 340.269 324.816 340.463 323.992C340.658 323.168 341.026 322.395 341.545 321.725C342.614 320.28 348.924 315.893 350.095 318.198C351.374 320.699 345.382 327.406 340.417 326.503Z" fill="#50BFD7" stroke="#263238" stroke-miterlimit="10"/>
<path d="M340.417 326.503L346.488 320.706" stroke="#263238" stroke-width="0.5" stroke-miterlimit="10"/>
<path d="M340.771 326.756C339.928 326.831 339.079 326.726 338.28 326.447C337.481 326.168 336.751 325.721 336.138 325.137C334.801 323.922 331.079 317.186 333.522 316.261C336.145 315.257 342.188 321.913 340.771 326.756Z" fill="#50BFD7" stroke="#263238" stroke-miterlimit="10"/>
<path d="M340.771 326.756L335.64 320.114" stroke="#263238" stroke-width="0.5" stroke-miterlimit="10"/>
<path d="M371.011 342.374L359.512 453.171" stroke="#263238" stroke-width="2" stroke-miterlimit="10"/>
<path d="M362.056 432.038L358.066 425.548" stroke="#263238" stroke-width="2" stroke-miterlimit="10"/>
<path d="M359.288 427.492C359.457 426.663 359.447 425.809 359.259 424.985C359.071 424.161 358.709 423.387 358.197 422.714C357.127 421.269 350.81 416.889 349.639 419.194C348.331 421.695 354.323 428.402 359.288 427.492Z" fill="#50BFD7" stroke="#263238" stroke-miterlimit="10"/>
<path d="M359.288 427.491L353.556 421.999" stroke="#263238" stroke-width="0.5" stroke-miterlimit="10"/>
<path d="M365.25 401.292L361.261 394.795" stroke="#263238" stroke-width="2" stroke-miterlimit="10"/>
<path d="M362.475 396.746C362.639 395.916 362.624 395.059 362.429 394.235C362.235 393.411 361.866 392.638 361.348 391.969C360.278 390.523 353.961 386.144 352.79 388.442C351.518 390.95 357.517 397.65 362.475 396.746Z" fill="#50BFD7" stroke="#263238" stroke-miterlimit="10"/>
<path d="M362.475 396.746L356.744 391.246" stroke="#263238" stroke-width="0.5" stroke-miterlimit="10"/>
<path d="M363.942 413.897L359.953 407.399" stroke="#263238" stroke-width="2" stroke-miterlimit="10"/>
<path d="M361.167 409.351C361.331 408.519 361.316 407.662 361.121 406.836C360.927 406.011 360.558 405.237 360.039 404.566C358.97 403.121 352.66 398.741 351.489 401.047C350.246 403.547 356.209 410.254 361.167 409.351Z" fill="#50BFD7" stroke="#263238" stroke-miterlimit="10"/>
<path d="M361.167 409.351L355.436 403.851" stroke="#263238" stroke-width="0.5" stroke-miterlimit="10"/>
<path d="M367.375 380.824L363.386 374.326" stroke="#263238" stroke-width="2" stroke-miterlimit="10"/>
<path d="M364.6 376.278C364.764 375.448 364.749 374.591 364.554 373.767C364.36 372.943 363.991 372.17 363.473 371.501C362.403 370.055 356.086 365.676 354.915 367.974C353.643 370.482 359.642 377.182 364.6 376.278Z" fill="#50BFD7" stroke="#263238" stroke-miterlimit="10"/>
<path d="M364.6 376.278L358.869 370.778" stroke="#263238" stroke-width="0.5" stroke-miterlimit="10"/>
<path d="M369.508 360.269L365.518 353.772" stroke="#263238" stroke-width="2" stroke-miterlimit="10"/>
<path d="M366.732 355.723C366.897 354.891 366.881 354.034 366.687 353.209C366.492 352.384 366.123 351.609 365.605 350.939C364.535 349.493 358.218 345.113 357.048 347.419C355.776 349.92 361.81 356.627 366.732 355.723Z" fill="#50BFD7" stroke="#263238" stroke-miterlimit="10"/>
<path d="M366.732 355.723L361.001 350.223" stroke="#263238" stroke-width="0.5" stroke-miterlimit="10"/>
<path d="M362.728 424.565L367.968 419.028" stroke="#263238" stroke-width="2" stroke-miterlimit="10"/>
<path d="M366.378 420.683C366.383 419.832 366.572 418.991 366.931 418.219C367.29 417.447 367.812 416.762 368.46 416.209C369.804 415.002 376.887 412.025 377.559 414.518C378.289 417.257 371.047 422.591 366.378 420.683Z" fill="#50BFD7" stroke="#263238" stroke-miterlimit="10"/>
<path d="M366.378 420.683L373.512 416.26" stroke="#263238" stroke-width="0.5" stroke-miterlimit="10"/>
<path d="M366.168 391.405L371.408 385.869" stroke="#263238" stroke-width="2" stroke-miterlimit="10"/>
<path d="M369.818 387.524C369.827 386.677 370.018 385.843 370.377 385.076C370.736 384.309 371.255 383.628 371.9 383.079C373.244 381.879 380.327 378.894 380.999 381.388C381.729 384.098 374.487 389.468 369.818 387.524Z" fill="#50BFD7" stroke="#263238" stroke-miterlimit="10"/>
<path d="M369.818 387.524L376.952 383.101" stroke="#263238" stroke-width="0.5" stroke-miterlimit="10"/>
<path d="M367.686 376.835L372.919 371.291" stroke="#263238" stroke-width="2" stroke-miterlimit="10"/>
<path d="M371.329 372.953C371.338 372.107 371.529 371.272 371.888 370.505C372.247 369.739 372.766 369.058 373.41 368.508C374.755 367.301 381.838 364.324 382.51 366.817C383.24 369.528 375.998 374.861 371.329 372.953Z" fill="#50BFD7" stroke="#263238" stroke-miterlimit="10"/>
<path d="M371.329 372.953L378.462 368.53" stroke="#263238" stroke-width="0.5" stroke-miterlimit="10"/>
<path d="M369.898 355.47L375.138 349.934" stroke="#263238" stroke-width="2" stroke-miterlimit="10"/>
<path d="M373.548 351.589C373.557 350.743 373.748 349.908 374.107 349.141C374.466 348.375 374.985 347.694 375.629 347.144C376.973 345.944 384.056 342.96 384.728 345.453C385.458 348.163 378.217 353.497 373.548 351.589Z" fill="#50BFD7" stroke="#263238" stroke-miterlimit="10"/>
<path d="M373.548 351.589L380.681 347.166" stroke="#263238" stroke-width="0.5" stroke-miterlimit="10"/>
<path d="M371.047 341.767C371.057 340.921 371.247 340.086 371.607 339.319C371.966 338.553 372.484 337.872 373.128 337.322C374.473 336.122 381.548 333.138 382.228 335.631C382.958 338.327 375.716 343.661 371.047 341.767Z" fill="#50BFD7" stroke="#263238" stroke-miterlimit="10"/>
<path d="M371.047 341.753L378.18 337.329" stroke="#263238" stroke-width="0.5" stroke-miterlimit="10"/>
<path d="M371.336 342.07C370.494 341.973 369.683 341.697 368.957 341.259C368.232 340.821 367.609 340.233 367.13 339.534C366.075 338.088 363.856 330.716 366.407 330.311C369.175 329.863 373.721 337.633 371.336 342.07Z" fill="#50BFD7" stroke="#263238" stroke-miterlimit="10"/>
<path d="M371.336 342.071L367.679 334.511" stroke="#263238" stroke-width="0.5" stroke-miterlimit="10"/>
<path d="M357.835 297.26V437.372" stroke="#263238" stroke-width="2" stroke-miterlimit="10"/>
<path d="M357.951 416.304L353.311 410.254" stroke="#263238" stroke-width="2" stroke-miterlimit="10"/>
<path d="M354.72 412.068C354.798 411.225 354.695 410.374 354.417 409.574C354.139 408.774 353.693 408.042 353.108 407.428C351.894 406.091 345.158 402.369 344.233 404.805C343.229 407.428 349.885 413.478 354.72 412.068Z" fill="#50BFD7" stroke="#263238" stroke-miterlimit="10"/>
<path d="M354.72 412.068L348.454 407.19" stroke="#263238" stroke-width="0.5" stroke-miterlimit="10"/>
<path d="M357.951 389.974L353.311 383.925" stroke="#263238" stroke-width="2" stroke-miterlimit="10"/>
<path d="M354.72 385.739C354.798 384.895 354.695 384.045 354.417 383.244C354.139 382.444 353.693 381.712 353.108 381.099C351.894 379.762 345.158 376.04 344.233 378.475C343.229 381.099 349.885 387.148 354.72 385.739Z" fill="#50BFD7" stroke="#263238" stroke-miterlimit="10"/>
<path d="M354.72 385.739L348.454 380.86" stroke="#263238" stroke-width="0.5" stroke-miterlimit="10"/>
<path d="M357.951 359.062L353.311 353.013" stroke="#263238" stroke-width="2" stroke-miterlimit="10"/>
<path d="M354.72 354.827C354.798 353.983 354.695 353.133 354.417 352.332C354.139 351.532 353.693 350.801 353.108 350.187C351.894 348.85 345.158 345.128 344.233 347.563C343.229 350.187 349.885 356.222 354.72 354.827Z" fill="#50BFD7" stroke="#263238" stroke-miterlimit="10"/>
<path d="M354.72 354.827L348.454 349.948" stroke="#263238" stroke-width="0.5" stroke-miterlimit="10"/>
<path d="M357.951 338.479L353.311 332.429" stroke="#263238" stroke-width="2" stroke-miterlimit="10"/>
<path d="M354.72 334.243C354.798 333.401 354.695 332.551 354.417 331.752C354.139 330.953 353.693 330.223 353.108 329.61C351.894 328.273 345.158 324.551 344.233 326.987C343.229 329.61 349.885 335.66 354.72 334.243Z" fill="#50BFD7" stroke="#263238" stroke-miterlimit="10"/>
<path d="M354.72 334.243L348.454 329.372" stroke="#263238" stroke-width="0.5" stroke-miterlimit="10"/>
<path d="M357.951 317.815L353.311 311.766" stroke="#263238" stroke-width="2" stroke-miterlimit="10"/>
<path d="M354.72 313.58C354.798 312.736 354.695 311.886 354.417 311.085C354.139 310.285 353.693 309.553 353.108 308.94C351.894 307.603 345.158 303.881 344.233 306.316C343.229 308.94 349.885 315.025 354.72 313.58Z" fill="#50BFD7" stroke="#263238" stroke-miterlimit="10"/>
<path d="M354.72 313.58L348.454 308.702" stroke="#263238" stroke-width="0.5" stroke-miterlimit="10"/>
<path d="M357.849 424.34L362.482 418.291" stroke="#263238" stroke-width="2" stroke-miterlimit="10"/>
<path d="M361.088 420.105C361.009 419.262 361.113 418.411 361.391 417.611C361.669 416.81 362.115 416.079 362.699 415.465C363.914 414.135 370.649 410.406 371.575 412.849C372.572 415.487 365.916 421.522 361.088 420.105Z" fill="#50BFD7" stroke="#263238" stroke-miterlimit="10"/>
<path d="M361.073 420.105L367.715 414.967" stroke="#263238" stroke-width="0.5" stroke-miterlimit="10"/>
<path d="M357.849 382.465L362.482 376.415" stroke="#263238" stroke-width="2" stroke-miterlimit="10"/>
<path d="M361.088 378.23C361.009 377.386 361.113 376.535 361.391 375.735C361.669 374.935 362.115 374.203 362.699 373.59C363.914 372.26 370.649 368.53 371.575 370.973C372.572 373.568 365.916 379.646 361.088 378.23Z" fill="#50BFD7" stroke="#263238" stroke-miterlimit="10"/>
<path d="M361.073 378.23L367.715 373.091" stroke="#263238" stroke-width="0.5" stroke-miterlimit="10"/>
<path d="M357.849 361.801L362.482 355.745" stroke="#263238" stroke-width="2" stroke-miterlimit="10"/>
<path d="M361.088 357.566C361.009 356.723 361.113 355.872 361.391 355.072C361.669 354.271 362.115 353.54 362.699 352.926C363.914 351.589 370.649 347.867 371.575 350.303C372.572 352.926 365.916 358.976 361.088 357.566Z" fill="#50BFD7" stroke="#263238" stroke-miterlimit="10"/>
<path d="M361.073 357.566L367.715 352.42" stroke="#263238" stroke-width="0.5" stroke-miterlimit="10"/>
<path d="M357.849 334.482L362.482 328.432" stroke="#263238" stroke-width="2" stroke-miterlimit="10"/>
<path d="M361.088 330.246C361.009 329.403 361.113 328.552 361.391 327.752C361.669 326.952 362.115 326.22 362.699 325.606C363.914 324.269 370.649 320.547 371.575 322.983C372.572 325.606 365.916 331.649 361.088 330.246Z" fill="#50BFD7" stroke="#263238" stroke-miterlimit="10"/>
<path d="M361.073 330.246L367.715 325.108" stroke="#263238" stroke-width="0.5" stroke-miterlimit="10"/>
<path d="M357.849 313.002L362.482 306.953" stroke="#263238" stroke-width="2" stroke-miterlimit="10"/>
<path d="M361.088 308.766C361.009 307.923 361.113 307.072 361.391 306.272C361.669 305.472 362.115 304.74 362.699 304.126C363.914 302.797 370.649 299.067 371.575 301.51C372.572 304.126 365.916 310.176 361.088 308.766Z" fill="#50BFD7" stroke="#263238" stroke-miterlimit="10"/>
<path d="M361.073 308.767L367.715 303.628" stroke="#263238" stroke-width="0.5" stroke-miterlimit="10"/>
<path d="M357.568 299.241C357.489 298.397 357.593 297.547 357.871 296.746C358.149 295.946 358.595 295.214 359.179 294.601C360.394 293.271 367.13 289.542 368.055 291.985C369.038 294.601 362.41 300.657 357.568 299.241Z" fill="#50BFD7" stroke="#263238" stroke-miterlimit="10"/>
<path d="M357.568 299.241L364.21 294.102" stroke="#263238" stroke-width="0.5" stroke-miterlimit="10"/>
<path d="M357.893 299.53C357.045 299.518 356.21 299.325 355.444 298.963C354.677 298.602 353.996 298.08 353.448 297.434C352.248 296.09 349.278 289.007 351.771 288.335C354.481 287.612 359.801 294.861 357.893 299.53Z" fill="#50BFD7" stroke="#263238" stroke-miterlimit="10"/>
<path d="M357.893 299.53L353.477 292.389" stroke="#263238" stroke-width="0.5" stroke-miterlimit="10"/>
<path d="M363.603 473.704H348.765L346.907 436.229H365.453L363.603 473.704Z" fill="#263238" stroke="#263238" stroke-miterlimit="10"/>
<path fill-rule="evenodd" clip-rule="evenodd" d="M350.165 147.143L349.384 148.327L348.869 147.987L349.65 146.803L350.165 147.143ZM347.822 150.695L346.26 153.064L345.745 152.724L347.307 150.355L347.822 150.695ZM344.698 155.432L343.136 157.801L342.621 157.461L344.183 155.092L344.698 155.432ZM341.574 160.169L340.012 162.538L339.497 162.198L341.059 159.829L341.574 160.169ZM338.45 164.906L336.888 167.274L336.373 166.934L337.935 164.566L338.45 164.906ZM335.326 169.643L333.764 172.011L333.249 171.671L334.811 169.303L335.326 169.643ZM332.202 174.38L331.421 175.564L330.906 175.224L331.687 174.04L332.202 174.38Z" fill="#263238"/>
<path d="M379.724 131.817V125.363L373.302 124.647C372.939 123.301 372.399 122.009 371.696 120.806L375.766 115.71L371.202 111.147L366.138 115.204C364.939 114.499 363.651 113.959 362.309 113.598L361.586 107.12H355.151L354.434 113.567C353.088 113.919 351.796 114.451 350.593 115.148L345.504 111.079L340.94 115.643L344.991 120.713C344.286 121.911 343.746 123.199 343.386 124.542L336.913 125.265V131.718L343.355 132.435C343.709 133.78 344.241 135.071 344.936 136.276L340.866 141.365L345.43 145.929L350.5 141.878C351.699 142.583 352.987 143.123 354.329 143.483L355.052 149.956H361.506L362.222 143.514C363.567 143.16 364.859 142.628 366.063 141.933L371.152 146.003L375.716 141.439L371.696 136.369C372.401 135.17 372.941 133.882 373.302 132.54L379.724 131.817ZM358.307 136.245C356.782 136.241 355.293 135.786 354.027 134.935C352.761 134.085 351.777 132.879 351.197 131.469C350.617 130.059 350.468 128.508 350.77 127.014C351.071 125.519 351.809 124.148 352.89 123.072C353.972 121.997 355.347 121.267 356.843 120.974C358.34 120.681 359.889 120.838 361.296 121.426C362.703 122.014 363.904 123.005 364.747 124.276C365.59 125.546 366.037 127.038 366.033 128.562C366.026 130.602 365.211 132.556 363.766 133.996C362.322 135.437 360.365 136.245 358.325 136.245H358.307Z" fill="#50BFD7"/>
<path fill-rule="evenodd" clip-rule="evenodd" d="M354.844 107.086C354.861 106.929 354.993 106.811 355.151 106.811H361.586C361.743 106.811 361.875 106.929 361.893 107.086L362.592 113.356C363.82 113.703 365.001 114.199 366.109 114.831L371.009 110.905C371.131 110.807 371.309 110.817 371.42 110.928L375.984 115.492C376.095 115.603 376.105 115.78 376.007 115.903L372.068 120.834C372.7 121.947 373.195 123.132 373.544 124.363L379.759 125.056C379.915 125.074 380.033 125.206 380.033 125.363V131.817C380.033 131.974 379.915 132.106 379.759 132.124L373.544 132.823C373.196 134.051 372.701 135.233 372.068 136.342L375.958 141.247C376.056 141.37 376.046 141.546 375.935 141.657L371.371 146.221C371.259 146.333 371.082 146.342 370.959 146.244L366.034 142.305C364.92 142.928 363.736 143.416 362.506 143.757L361.813 149.99C361.795 150.146 361.663 150.264 361.506 150.264H355.052C354.895 150.264 354.762 150.146 354.745 149.99L354.046 143.725C352.818 143.378 351.637 142.883 350.528 142.25L345.623 146.17C345.5 146.268 345.323 146.258 345.212 146.147L340.648 141.583C340.536 141.472 340.527 141.295 340.625 141.172L344.564 136.247C343.941 135.133 343.453 133.948 343.112 132.718L336.879 132.025C336.723 132.008 336.605 131.876 336.605 131.718V125.264C336.605 125.107 336.723 124.975 336.879 124.958L343.144 124.258C343.491 123.03 343.986 121.849 344.618 120.741L340.699 115.835C340.601 115.712 340.611 115.535 340.722 115.424L345.286 110.86C345.397 110.749 345.574 110.739 345.697 110.837L350.622 114.776C351.735 114.151 352.92 113.663 354.151 113.324L354.844 107.086ZM355.427 107.429L354.741 113.602C354.727 113.729 354.636 113.834 354.512 113.866C353.193 114.211 351.927 114.732 350.748 115.416C350.638 115.479 350.499 115.469 350.4 115.39L345.527 111.492L341.354 115.666L345.233 120.52C345.313 120.62 345.322 120.759 345.258 120.869C344.566 122.044 344.037 123.306 343.684 124.622C343.651 124.745 343.546 124.835 343.42 124.849L337.222 125.541V131.442L343.389 132.128C343.516 132.142 343.621 132.233 343.653 132.356C344.001 133.674 344.522 134.941 345.203 136.122C345.267 136.232 345.256 136.37 345.177 136.469L341.28 141.342L345.453 145.515L350.308 141.636C350.408 141.556 350.547 141.546 350.657 141.611C351.831 142.302 353.093 142.832 354.409 143.185C354.532 143.218 354.622 143.323 354.636 143.449L355.328 149.647H361.229L361.915 143.48C361.929 143.353 362.02 143.248 362.143 143.215C363.462 142.868 364.728 142.347 365.909 141.666C366.019 141.602 366.157 141.613 366.256 141.692L371.129 145.589L375.303 141.415L371.454 136.56C371.375 136.46 371.365 136.322 371.43 136.212C372.121 135.038 372.65 133.776 373.003 132.46C373.036 132.337 373.141 132.247 373.267 132.233L379.416 131.541V125.64L373.267 124.954C373.141 124.94 373.036 124.85 373.003 124.727C372.648 123.407 372.119 122.141 371.429 120.961C371.365 120.851 371.375 120.713 371.455 120.613L375.352 115.733L371.179 111.56L366.331 115.445C366.231 115.525 366.091 115.535 365.981 115.47C364.807 114.779 363.544 114.25 362.228 113.897C362.106 113.864 362.016 113.759 362.002 113.633L361.31 107.429H355.427ZM361.177 121.711C359.826 121.147 358.339 120.996 356.903 121.277C355.467 121.558 354.146 122.259 353.108 123.291C352.07 124.323 351.362 125.64 351.073 127.075C350.783 128.509 350.926 129.998 351.482 131.351C352.039 132.705 352.984 133.863 354.199 134.679C355.414 135.495 356.844 135.933 358.307 135.936H358.325C360.283 135.936 362.162 135.16 363.548 133.778C364.935 132.395 365.717 130.52 365.724 128.561C365.728 127.098 365.299 125.666 364.49 124.446C363.68 123.227 362.527 122.275 361.177 121.711ZM356.784 120.671C358.34 120.366 359.952 120.53 361.415 121.141C362.878 121.752 364.127 122.784 365.004 124.105C365.881 125.426 366.346 126.978 366.341 128.563C366.335 130.685 365.487 132.717 363.984 134.215C362.482 135.713 360.447 136.554 358.325 136.554H358.306C356.72 136.55 355.171 136.076 353.855 135.192C352.539 134.307 351.514 133.053 350.911 131.586C350.308 130.119 350.154 128.507 350.467 126.953C350.781 125.398 351.548 123.972 352.673 122.853C353.797 121.735 355.228 120.976 356.784 120.671Z" fill="#263238"/>
<path d="M405.113 118.86L404.428 114.586L400.105 114.827C399.725 113.975 399.231 113.18 398.635 112.462L400.722 108.639L397.196 106.119L394.287 109.368C393.416 109.038 392.504 108.83 391.576 108.75L390.378 104.538L386.104 105.255L386.345 109.578C385.492 109.959 384.694 110.453 383.973 111.048L380.157 108.917L377.637 112.443L380.885 115.352C380.556 116.223 380.348 117.136 380.268 118.063L376.019 119.299L376.735 123.572L381.058 123.331C381.439 124.185 381.934 124.982 382.528 125.703L380.398 129.52L383.924 132.039L386.833 128.791C387.704 129.121 388.616 129.329 389.544 129.408L390.742 133.62L395.047 132.885L394.806 128.562C395.658 128.183 396.454 127.688 397.171 127.093L400.994 129.18L403.514 125.654L400.265 122.745C400.595 121.874 400.803 120.961 400.883 120.034L405.113 118.86ZM391.421 124.165C390.413 124.333 389.378 124.198 388.446 123.778C387.515 123.357 386.728 122.67 386.187 121.803C385.646 120.936 385.374 119.928 385.406 118.906C385.437 117.885 385.771 116.895 386.365 116.063C386.959 115.231 387.786 114.594 388.742 114.232C389.698 113.87 390.739 113.8 391.735 114.029C392.731 114.259 393.637 114.779 394.337 115.524C395.037 116.268 395.501 117.204 395.67 118.212C395.896 119.564 395.575 120.951 394.778 122.068C393.981 123.184 392.774 123.938 391.421 124.165Z" fill="#263238"/>
<path fill-rule="evenodd" clip-rule="evenodd" d="M390.599 104.188L391.815 108.463C392.628 108.55 393.427 108.732 394.197 109.006L397.15 105.707L401.124 108.547L399.005 112.428C399.516 113.068 399.949 113.766 400.298 114.507L404.689 114.263L405.462 119.084L401.17 120.274C401.083 121.086 400.901 121.885 400.627 122.654L403.926 125.608L401.086 129.582L397.205 127.463C396.565 127.973 395.867 128.407 395.126 128.755L395.37 133.143L390.521 133.971L389.305 129.695C388.492 129.609 387.693 129.427 386.923 129.153L383.97 132.451L379.993 129.61L382.157 125.735C381.648 125.092 381.215 124.393 380.865 123.651L376.476 123.896L375.669 119.079L379.981 117.825C380.067 117.012 380.249 116.213 380.523 115.442L377.225 112.489L380.066 108.513L383.942 110.676C384.584 110.167 385.283 109.734 386.025 109.385L385.78 104.996L390.599 104.188ZM386.428 105.513L386.665 109.773L386.471 109.86C385.643 110.229 384.869 110.709 384.17 111.286L384.007 111.42L380.247 109.321L378.049 112.398L381.249 115.263L381.174 115.462C380.854 116.306 380.653 117.19 380.576 118.09L380.557 118.301L376.369 119.518L376.994 123.248L381.254 123.011L381.34 123.205C381.71 124.033 382.19 124.807 382.766 125.506L382.901 125.669L380.802 129.429L383.878 131.627L386.744 128.427L386.942 128.502C387.786 128.822 388.671 129.023 389.57 129.101L389.783 129.119L390.963 133.269L394.723 132.627L394.486 128.367L394.68 128.28C395.506 127.912 396.278 127.433 396.974 126.855L397.135 126.721L400.902 128.778L403.102 125.699L399.901 122.833L399.977 122.635C400.296 121.791 400.498 120.906 400.575 120.007L400.594 119.793L404.765 118.636L404.167 114.91L399.909 115.147L399.823 114.953C399.455 114.127 398.975 113.355 398.397 112.659L398.263 112.498L400.32 108.731L397.241 106.531L394.376 109.732L394.178 109.656C393.333 109.337 392.449 109.135 391.549 109.058L391.337 109.04L390.156 104.888L386.428 105.513ZM391.666 114.33C390.729 114.114 389.75 114.18 388.851 114.521C387.952 114.861 387.175 115.46 386.616 116.243C386.058 117.025 385.744 117.955 385.714 118.916C385.685 119.876 385.94 120.824 386.449 121.639C386.958 122.455 387.697 123.101 388.573 123.496C389.449 123.892 390.422 124.018 391.37 123.861C392.642 123.647 393.777 122.938 394.526 121.888C395.276 120.838 395.578 119.534 395.366 118.262C395.207 117.315 394.771 116.435 394.112 115.735C393.453 115.035 392.602 114.546 391.666 114.33ZM391.473 124.47C392.906 124.229 394.185 123.43 395.029 122.247C395.873 121.064 396.214 119.594 395.975 118.161C395.796 117.093 395.304 116.101 394.562 115.312C393.82 114.523 392.86 113.972 391.805 113.728C390.749 113.485 389.645 113.56 388.632 113.943C387.619 114.327 386.743 115.002 386.114 115.884C385.484 116.765 385.131 117.814 385.097 118.897C385.064 119.979 385.352 121.048 385.925 121.966C386.499 122.885 387.332 123.614 388.319 124.059C389.306 124.505 390.404 124.647 391.473 124.47Z" fill="#263238"/>
<path fill-rule="evenodd" clip-rule="evenodd" d="M391.173 239.662L392.32 239.669L392.317 240.128L391.171 240.121L391.173 239.662Z" fill="#263238"/>
<path fill-rule="evenodd" clip-rule="evenodd" d="M387.754 239.641L388.871 239.648L388.868 240.107L387.751 240.1L387.754 239.641ZM383.287 239.614L385.52 239.628L385.518 240.087L383.284 240.073L383.287 239.614ZM378.819 239.587L381.053 239.601L381.05 240.059L378.816 240.046L378.819 239.587ZM374.352 239.56L376.585 239.573L376.582 240.032L374.349 240.018L374.352 239.56ZM369.884 239.533L372.118 239.546L372.115 240.005L369.881 239.991L369.884 239.533ZM365.416 239.505L367.65 239.519L367.647 239.978L365.414 239.964L365.416 239.505ZM360.949 239.478L363.183 239.492L363.18 239.95L360.946 239.937L360.949 239.478ZM356.481 239.451L358.715 239.464L358.712 239.923L356.478 239.909L356.481 239.451ZM352.014 239.424L354.248 239.437L354.245 239.896L352.011 239.882L352.014 239.424ZM348.663 239.403L349.78 239.41L349.777 239.869L348.66 239.862L348.663 239.403Z" fill="#263238"/>
<path fill-rule="evenodd" clip-rule="evenodd" d="M346.365 239.389L347.512 239.396L347.509 239.855L346.363 239.848L346.365 239.389Z" fill="#263238"/>
<path fill-rule="evenodd" clip-rule="evenodd" d="M411.307 257.081C411.307 257.207 411.203 257.309 411.077 257.309L385.15 257.151C385.024 257.15 384.922 257.047 384.922 256.92C384.923 256.793 385.026 256.691 385.153 256.692L411.079 256.85C411.206 256.851 411.308 256.954 411.307 257.081Z" fill="#263238"/>
<path fill-rule="evenodd" clip-rule="evenodd" d="M398.111 257.23C397.984 257.229 397.882 257.125 397.883 256.999L397.961 244.226C397.962 244.099 398.065 243.997 398.192 243.998C398.318 243.999 398.421 244.102 398.42 244.229L398.342 257.002C398.341 257.128 398.238 257.23 398.111 257.23Z" fill="#263238"/>
<path fill-rule="evenodd" clip-rule="evenodd" d="M418.677 254.177C418.55 254.176 418.448 254.073 418.449 253.946L418.548 237.788C418.548 237.662 418.652 237.56 418.778 237.56C418.905 237.561 419.007 237.665 419.006 237.791L418.908 253.949C418.907 254.075 418.804 254.177 418.677 254.177Z" fill="#263238"/>
<path fill-rule="evenodd" clip-rule="evenodd" d="M394.067 235.942C394.067 236.069 393.963 236.171 393.837 236.17L370.359 236.027C370.233 236.026 370.131 235.923 370.131 235.796L370.218 221.597C370.219 221.47 370.322 221.368 370.449 221.369C370.575 221.37 370.677 221.473 370.677 221.6L370.591 235.57L393.839 235.711C393.966 235.712 394.068 235.815 394.067 235.942Z" fill="#263238"/>
<path fill-rule="evenodd" clip-rule="evenodd" d="M385.28 235.875C385.153 235.874 385.051 235.771 385.052 235.644L385.136 221.945C385.136 221.818 385.24 221.716 385.366 221.717C385.493 221.717 385.595 221.821 385.594 221.947L385.511 235.647C385.51 235.773 385.407 235.875 385.28 235.875Z" fill="#263238"/>
<path d="M406.399 262.435L423.277 262.538L423.347 251.04L406.469 250.937L406.399 262.435Z" fill="#263238"/>
<path fill-rule="evenodd" clip-rule="evenodd" d="M423.505 262.769L406.169 262.663L406.241 250.707L423.578 250.812L423.505 262.769ZM423.049 262.307L423.116 251.268L406.697 251.168L406.63 262.207L423.049 262.307Z" fill="#263238"/>
<path d="M374.479 262.241L391.356 262.344L391.426 250.846L374.549 250.743L374.479 262.241Z" fill="#50BFD7"/>
<path fill-rule="evenodd" clip-rule="evenodd" d="M391.586 262.345C391.585 262.472 391.482 262.574 391.355 262.573L374.477 262.47C374.351 262.469 374.249 262.366 374.249 262.239L374.32 250.741C374.32 250.615 374.424 250.513 374.55 250.513L391.428 250.616C391.554 250.617 391.657 250.72 391.656 250.847L391.586 262.345ZM391.128 262.113L391.196 251.074L374.777 250.973L374.709 262.013L391.128 262.113Z" fill="#263238"/>
<path d="M379.79 225.338L390.604 225.404L390.649 218.038L379.835 217.973L379.79 225.338Z" fill="#50BFD7"/>
<path fill-rule="evenodd" clip-rule="evenodd" d="M390.834 225.405C390.833 225.532 390.73 225.634 390.603 225.633L379.789 225.567C379.662 225.567 379.56 225.463 379.561 225.337L379.606 217.971C379.606 217.844 379.71 217.742 379.836 217.743L390.651 217.809C390.777 217.81 390.879 217.913 390.879 218.04L390.834 225.405ZM390.377 225.173L390.419 218.266L380.063 218.203L380.021 225.11L390.377 225.173Z" fill="#263238"/>
<path d="M412.71 241.436L423.524 241.501L423.569 234.136L412.755 234.07L412.71 241.436Z" fill="white"/>
<path fill-rule="evenodd" clip-rule="evenodd" d="M423.754 241.503C423.753 241.63 423.65 241.732 423.523 241.731L412.708 241.665C412.582 241.664 412.48 241.561 412.48 241.434L412.525 234.069C412.526 233.942 412.629 233.84 412.756 233.841L423.571 233.907C423.697 233.907 423.799 234.011 423.799 234.137L423.754 241.503ZM423.296 241.271L423.338 234.364L412.983 234.301L412.941 241.208L423.296 241.271Z" fill="#263238"/>
<path d="M365.6 225.252L376.414 225.318L376.459 217.952L365.645 217.886L365.6 225.252Z" fill="#263238"/>
<path fill-rule="evenodd" clip-rule="evenodd" d="M376.642 225.548L365.369 225.48L365.417 217.655L376.69 217.724L376.642 225.548ZM376.187 225.087L376.229 218.18L365.873 218.117L365.831 225.024L376.187 225.087Z" fill="#263238"/>
<path d="M398.194 244.229L406.753 235.775L398.298 227.217L389.74 235.671L398.194 244.229Z" fill="#50BFD7"/>
<path fill-rule="evenodd" clip-rule="evenodd" d="M406.916 235.614C407.005 235.704 407.004 235.849 406.914 235.938L398.356 244.393C398.266 244.482 398.12 244.481 398.031 244.391L389.577 235.833C389.488 235.742 389.489 235.597 389.579 235.508L398.137 227.054C398.227 226.965 398.372 226.966 398.461 227.056L406.916 235.614ZM406.428 235.773L398.296 227.541L390.064 235.673L398.196 243.905L406.428 235.773Z" fill="#263238"/>
<path d="M148.582 171.642C148.982 172.041 149.453 172.359 149.974 172.581C151.062 173.036 152.286 173.036 153.375 172.581C154.426 172.134 155.262 171.299 155.708 170.249C156.163 169.162 156.163 167.937 155.708 166.848C155.26 165.798 154.426 164.961 153.375 164.516C152.288 164.06 151.064 164.06 149.974 164.516C148.924 164.963 148.087 165.798 147.642 166.848C147.187 167.935 147.187 169.16 147.642 170.249C147.864 170.768 148.184 171.242 148.582 171.642ZM147.302 175.699V188.869H149.497C150.251 188.865 151.002 188.796 151.743 188.656C152.487 188.525 153.205 188.275 153.87 187.914C154.497 187.573 155.039 187.093 155.455 186.515C155.892 185.873 156.112 185.108 156.081 184.33V175.699H147.302ZM140.188 170.177C140.771 170.181 141.349 170.064 141.887 169.834C142.937 169.387 143.772 168.552 144.217 167.502C144.672 166.415 144.672 165.191 144.215 164.101C143.768 163.051 142.933 162.214 141.883 161.769C141.345 161.539 140.767 161.423 140.182 161.427C139.602 161.423 139.027 161.539 138.494 161.769C138.096 161.939 137.971 162.161 137.423 162.428V169.176C137.973 169.445 138.096 169.664 138.494 169.834C139.029 170.066 139.606 170.181 140.188 170.177ZM137.423 192.352C137.973 192.471 138.17 192.564 138.56 192.617C138.986 192.678 139.417 192.709 139.848 192.711C140.512 192.707 141.177 192.637 141.827 192.498C142.49 192.365 143.126 192.116 143.704 191.766C144.272 191.417 144.75 190.941 145.103 190.377C145.493 189.719 145.683 188.96 145.655 188.195V172.954H137.423V192.352ZM107.238 196.553L135.776 201.492V153.197L107.238 158.137V196.553Z" fill="#263238"/>
<path d="M128.092 168.015L114.922 168.817V171.855L119.861 171.656V185.741L123.153 185.934V171.527L128.092 171.307V168.015Z" fill="white"/>
</svg>
