<svg width="334" height="218" viewBox="0 0 334 218" fill="none" xmlns="http://www.w3.org/2000/svg">
<path d="M195.054 217.505C195.054 217.505 246.415 219.906 278.904 161.862C311.392 103.818 273.165 50.4243 214.111 38.8867C155.058 27.3491 125.637 -15.9712 73.0019 17.1902C20.3671 50.3517 49.6167 226.958 195.054 217.505Z" fill="#70CDE0"/>
<path opacity="0.4" d="M195.054 217.505C195.054 217.505 246.415 219.906 278.904 161.862C311.392 103.818 273.165 50.4243 214.111 38.8867C155.058 27.3491 125.637 -15.9712 73.0019 17.1902C20.3671 50.3517 49.6167 226.958 195.054 217.505Z" fill="white"/>
<path d="M157.7 10.3829V41.3979C157.746 44.0594 158.839 46.5955 160.741 48.4571C162.644 50.3188 165.203 51.3562 167.865 51.3447H279.059C280.395 51.3475 281.718 51.0868 282.954 50.5777C284.189 50.0685 285.312 49.3209 286.258 48.3775C287.204 47.434 287.955 46.3134 288.467 45.0795C288.98 43.8457 289.244 42.523 289.245 41.1869V14.9694L303.089 0.422063L167.879 0C166.526 0.00447314 165.188 0.277588 163.942 0.803498C162.695 1.32941 161.566 2.09763 160.619 3.06358C159.672 4.02953 158.926 5.17395 158.425 6.43042C157.924 7.68689 157.678 9.03038 157.7 10.3829Z" fill="#F5F5F5"/>
<path d="M272.826 18.7961L171.888 18.3247L171.902 15.2225L272.833 15.6938L272.826 18.7961Z" fill="#E0E0E0"/>
<path d="M272.826 29.0032L171.888 28.5319L171.902 25.4297L272.833 25.901L272.826 29.0032Z" fill="#E0E0E0"/>
<path d="M232.892 35.6487L232.877 38.7509L272.811 38.946L272.826 35.8439L232.892 35.6487Z" fill="#E0E0E0"/>
<path d="M112.784 74.0097V98.0466C112.784 100.135 111.954 102.138 110.478 103.615C109.002 105.092 107 105.923 104.912 105.925H18.7254C16.6371 105.923 14.6349 105.092 13.1589 103.615C11.6829 102.138 10.8538 100.135 10.8538 98.0466V77.738L0.126221 66.4828L104.891 66.1241C105.927 66.1213 106.954 66.3233 107.913 66.7185C108.871 67.1137 109.742 67.6944 110.476 68.4271C111.209 69.1598 111.79 70.0301 112.186 70.9882C112.582 71.9462 112.785 72.973 112.784 74.0097Z" fill="#E0E0E0"/>
<path d="M23.5582 80.6994L101.768 80.3406L101.761 77.9348L23.5511 78.2936L23.5582 80.6994Z" fill="#FAFAFA"/>
<path d="M23.5582 88.6064L101.768 88.2476L101.761 85.8418L23.5511 86.2076L23.5582 88.6064Z" fill="#FAFAFA"/>
<path d="M54.4846 93.7692L23.5403 93.9204L23.552 96.3262L54.4964 96.175L54.4846 93.7692Z" fill="#FAFAFA"/>
<path d="M184.086 197.518V177.387H151.689V197.518C151.694 200.968 150.332 204.279 147.901 206.726L140.517 214.177H195.257L187.879 206.726C185.444 204.281 184.08 200.969 184.086 197.518Z" fill="white" stroke="#263238" stroke-width="1.10627" stroke-linecap="round" stroke-linejoin="round"/>
<path opacity="0.44" d="M151.688 177.387V197.518C151.687 199.079 151.404 200.626 150.852 202.086H184.922C184.373 200.625 184.09 199.079 184.086 197.518V177.387H151.688Z" fill="#51C0D7"/>
<path d="M184.086 178.296H151.688V193.232H184.086V178.296Z" fill="#263238" stroke="#263238" stroke-width="1.10627" stroke-miterlimit="10"/>
<path d="M89.3178 54.1655H246.462C247.461 54.1648 248.45 54.3612 249.373 54.7434C250.296 55.1256 251.134 55.6862 251.84 56.393C252.546 57.0998 253.105 57.9389 253.486 58.8623C253.867 59.7856 254.062 60.7751 254.059 61.7739V179.087C254.052 181.272 253.177 183.364 251.627 184.905C250.078 186.445 247.98 187.307 245.794 187.301H89.9911C87.8066 187.301 85.7115 186.433 84.1668 184.888C82.6221 183.344 81.7543 181.249 81.7543 179.064V61.7458C81.7573 59.7392 82.5546 57.8154 83.9719 56.395C85.3892 54.9745 87.3112 54.1729 89.3178 54.1655Z" fill="#263238" stroke="#263238" stroke-width="1.10627" stroke-miterlimit="10"/>
<path d="M81.7262 171.893H254.059V179.064C254.059 181.248 253.191 183.343 251.647 184.888C250.102 186.433 248.007 187.301 245.822 187.301H89.991C87.8065 187.301 85.7114 186.433 84.1668 184.888C82.6221 183.343 81.7543 181.248 81.7543 179.064V171.893H81.7262Z" fill="white" stroke="#263238" stroke-width="1.10627" stroke-miterlimit="10"/>
<rect x="90.8669" y="62.2751" width="154.759" height="100.593" fill="white"/>
<path d="M188.283 153.149L191.45 151.581L194.544 153.302L194.027 149.802L196.619 147.395L193.129 146.804L191.641 143.594L190.004 146.73L186.494 147.152L188.964 149.681L188.283 153.149Z" fill="#E0E0E0"/>
<path d="M175.36 153.149L178.528 151.581L181.621 153.302L181.104 149.802L183.696 147.395L180.206 146.804L178.718 143.594L177.081 146.73L173.571 147.152L176.041 149.681L175.36 153.149Z" fill="#51C0D7"/>
<path d="M162.437 153.149L165.605 151.581L168.693 153.302L168.181 149.802L170.773 147.395L167.283 146.804L165.795 143.594L164.158 146.73L160.648 147.152L163.118 149.681L162.437 153.149Z" fill="#51C0D7"/>
<path d="M149.515 153.149L152.682 151.581L155.77 153.302L155.258 149.802L157.85 147.395L154.361 146.804L152.872 143.594L151.235 146.73L147.725 147.152L150.196 149.681L149.515 153.149Z" fill="#51C0D7"/>
<path d="M136.591 153.149L139.759 151.581L142.847 153.302L142.335 149.802L144.927 147.395L141.438 146.804L139.949 143.594L138.312 146.73L134.802 147.152L137.272 149.681L136.591 153.149Z" fill="#51C0D7"/>
<path d="M196.766 75.3633C196.766 75.4425 182.587 75.5059 165.093 75.5059C147.598 75.5059 133.419 75.4425 133.419 75.3633C133.419 75.2841 147.593 75.2261 165.093 75.2261C182.592 75.2261 196.766 75.2894 196.766 75.3633Z" fill="#263238"/>
<path d="M181.193 71.5627C181.193 71.6419 174.194 71.7052 165.557 71.7052C156.921 71.7052 149.916 71.6419 149.916 71.5627C149.916 71.4835 156.916 71.4202 165.557 71.4202C174.199 71.4202 181.193 71.4835 181.193 71.5627Z" fill="#263238"/>
<path d="M228.968 81.788C228.968 81.8672 200.636 81.9305 165.689 81.9305C130.742 81.9305 102.405 81.8672 102.405 81.788C102.405 81.7088 130.737 81.6508 165.689 81.6508C200.641 81.6508 228.968 81.7141 228.968 81.788Z" fill="#E0E0E0"/>
<path d="M228.968 84.9288C228.968 85.0027 200.636 85.0661 165.689 85.0661C130.742 85.0661 102.405 85.0027 102.405 84.9288C102.405 84.8549 130.737 84.7863 165.689 84.7863C200.641 84.7863 228.968 84.8496 228.968 84.9288Z" fill="#E0E0E0"/>
<path d="M188.291 96.4577L191.407 99.4596L163.054 126.777L150.591 114.769L153.707 111.767L163.054 120.773L188.291 96.4577ZM188.291 90.3895L163.054 114.705L153.707 105.699L144.293 114.769L163.054 132.845L197.705 99.4596L188.291 90.3895Z" fill="#50BFD7"/>
<path d="M281.718 97.7961L268.357 109.424L265.095 111.681L268.197 115.17H269.155L289.036 103.006L281.718 97.7961Z" fill="#2C2C2C"/>
<path d="M316.24 104.78L325.528 119.862L327.219 123.452L331.167 120.964L331.328 120.023L322.581 98.4155L316.24 104.78Z" fill="#2C2C2C"/>
<path d="M324.701 118.665L320.402 135.848L320.336 140.35L322.861 141.856L324.337 140.106L330.756 120.91L324.701 118.665Z" fill="#2C2C2C"/>
<path d="M299.956 94.9026C301.885 94.9026 304.892 94.5037 304.892 93.1938L304.398 88.8235L303.963 85.001C303.963 83.6911 302.397 82.6254 300.468 82.6254C299.503 82.6254 298.628 82.8933 297.997 83.322C297.366 83.7507 296.973 84.3461 296.973 85.001L296.55 88.8295L296.139 92.4972C295.58 94.7121 299.956 94.9026 299.956 94.9026Z" fill="#2C2C2C"/>
<path d="M299.956 140.058C301.885 140.058 304.892 139.659 304.892 138.349L304.398 133.979L303.963 130.156C303.963 128.847 302.397 127.781 300.468 127.781C299.503 127.781 298.628 128.049 297.997 128.477C297.366 128.906 296.973 129.501 296.973 130.156L296.55 133.985L296.139 137.653C295.58 139.867 299.956 140.058 299.956 140.058Z" fill="#2C2C2C"/>
<path d="M323.575 100.595C323.575 104.393 321.086 106.745 317.288 106.745C313.489 106.745 310.411 103.667 310.411 99.8682C310.411 96.0695 313.281 91.8779 316.901 93.0151C320.89 94.2595 323.575 96.7959 323.575 100.595Z" fill="white"/>
<path d="M317.288 106.983C313.364 106.983 310.173 103.792 310.173 99.8682C310.173 97.3437 311.369 94.7715 313.144 93.4676C314.323 92.6043 315.644 92.3661 316.972 92.7829C321.378 94.1642 323.807 96.9388 323.807 100.589C323.813 104.471 321.247 106.983 317.288 106.983ZM315.704 93.0627C314.912 93.0627 314.138 93.3307 313.424 93.8546C311.786 95.0573 310.649 97.5283 310.649 99.8682C310.649 103.53 313.626 106.507 317.288 106.507C319.098 106.507 320.622 105.959 321.688 104.923C322.765 103.881 323.337 102.381 323.337 100.595C323.337 97.171 321.027 94.5572 316.835 93.2414C316.454 93.1223 316.079 93.0627 315.704 93.0627Z" fill="#2C2C2C"/>
<path d="M320.479 99.4872C320.479 102.298 318.64 104.036 315.829 104.036C313.019 104.036 310.745 101.762 310.745 98.9513C310.745 96.141 312.864 93.039 315.543 93.8785C318.491 94.8073 320.479 96.6828 320.479 99.4872Z" fill="#2C2C2C"/>
<path d="M277.426 100.595C277.426 104.393 279.914 106.745 283.713 106.745C287.512 106.745 290.59 103.667 290.59 99.8683C290.59 96.0696 287.72 91.878 284.1 93.0152C280.111 94.2596 277.426 96.796 277.426 100.595Z" fill="white"/>
<path d="M283.713 106.983C279.747 106.983 277.187 104.477 277.187 100.595C277.187 96.9448 279.617 94.1702 284.023 92.7889C285.35 92.3721 286.678 92.6103 287.851 93.4736C289.631 94.7775 290.822 97.3497 290.822 99.8742C290.828 103.792 287.637 106.983 283.713 106.983ZM285.297 93.0628C284.922 93.0628 284.546 93.1223 284.171 93.2414C279.98 94.5572 277.67 97.1711 277.67 100.595C277.67 102.381 278.241 103.881 279.319 104.923C280.391 105.959 281.909 106.507 283.719 106.507C287.381 106.507 290.358 103.53 290.358 99.8682C290.358 97.5283 289.214 95.0514 287.583 93.8547C286.857 93.3247 286.089 93.0628 285.297 93.0628Z" fill="#2C2C2C"/>
<path d="M280.522 99.4873C280.522 102.298 282.362 104.036 285.172 104.036C287.982 104.036 290.257 101.762 290.257 98.9515C290.257 96.1411 288.137 93.0391 285.458 93.8786C282.504 94.8074 280.522 96.683 280.522 99.4873Z" fill="#2C2C2C"/>
<path d="M305.017 90.2108H295.961C292.007 90.5681 288.226 91.3838 284.696 92.5924L291.471 127.328C291.959 129.841 294.162 131.657 296.723 131.657H304.38C306.946 131.657 309.155 129.835 309.637 127.31L316.288 92.5924C312.757 91.3838 308.976 90.5681 305.017 90.2108Z" fill="white"/>
<path d="M304.38 131.895H296.723C294.055 131.895 291.745 129.996 291.239 127.376L284.422 92.4316L284.618 92.3661C288.226 91.1336 292.031 90.3238 295.937 89.9725H295.961H305.029H305.041C308.946 90.3238 312.757 91.1276 316.365 92.3661L316.562 92.4316L309.869 127.358C309.369 129.984 307.059 131.895 304.38 131.895ZM284.969 92.7471L291.703 127.281C292.168 129.674 294.282 131.413 296.723 131.413H304.38C306.827 131.413 308.94 129.668 309.399 127.263L316.008 92.7471C312.495 91.5623 308.792 90.7882 304.999 90.4429H295.972C292.18 90.7882 288.476 91.5623 284.969 92.7471Z" fill="#2C2C2C"/>
<path d="M289.364 91.2587C290.215 96.6412 291.066 102.024 291.918 107.4C292.68 111.449 296.52 114.146 300.527 114.17C304.534 114.146 308.375 111.455 309.137 107.4C309.988 102.024 310.84 96.6471 311.691 91.2766C309.536 90.7765 307.303 90.4133 305.017 90.2108H295.961C293.698 90.4133 291.495 90.7705 289.364 91.2587Z" fill="#50BFD7"/>
<path d="M300.533 114.408C298.491 114.396 296.478 113.717 294.865 112.485C293.186 111.211 292.061 109.418 291.685 107.442V107.436L289.095 91.074L289.31 91.0264C291.471 90.5263 293.704 90.175 295.937 89.9725H295.96H305.028H305.04C307.303 90.175 309.56 90.5382 311.751 91.0443L311.965 91.0919L309.375 107.442C309.006 109.418 307.875 111.205 306.195 112.485C304.582 113.717 302.569 114.396 300.533 114.408ZM292.156 107.364C292.507 109.222 293.567 110.907 295.151 112.11C296.687 113.277 298.598 113.926 300.533 113.932C302.468 113.92 304.38 113.271 305.91 112.11C307.493 110.907 308.553 109.222 308.905 107.364L311.423 91.461C309.327 90.9847 307.172 90.6453 305.005 90.4489H295.972C293.835 90.6394 291.703 90.9728 289.631 91.4432L292.156 107.364Z" fill="#2C2C2C"/>
<path d="M302.677 98.3618H298.104C296.889 98.3618 295.901 99.3501 295.901 100.565V105.137C295.901 106.352 296.889 107.34 298.104 107.34H302.677C303.891 107.34 304.88 106.352 304.88 105.137V100.565C304.88 99.3501 303.897 98.3618 302.677 98.3618ZM294.686 96.4148C293.99 96.4148 293.424 96.9804 293.424 97.6771C293.424 98.3737 293.99 98.9393 294.686 98.9393C295.383 98.9393 295.948 98.3737 295.948 97.6771C295.948 96.9804 295.383 96.4148 294.686 96.4148Z" fill="white"/>
<path d="M302.355 101.089C302.063 100.309 301.319 99.7907 300.485 99.7907H299.247L301.694 105.995H304.32L302.355 101.089ZM297.354 104.215L296.639 105.995H299.247L300.462 102.917H299.223C298.39 102.917 297.645 103.435 297.354 104.215ZM297.758 101.333C298.187 101.333 298.538 100.982 298.538 100.553C298.538 100.124 298.187 99.7728 297.758 99.7728C297.33 99.7728 296.978 100.124 296.978 100.553C296.978 100.982 297.33 101.333 297.758 101.333Z" fill="#50BFD7"/>
<path d="M304.921 87.8647H296.068C294.794 87.8647 293.746 86.8228 293.746 85.5427C293.746 84.2685 294.788 83.2206 296.068 83.2206H304.921C306.196 83.2206 307.243 84.2625 307.243 85.5427C307.237 86.8228 306.196 87.8647 304.921 87.8647Z" fill="#50BFD7"/>
<path d="M304.921 88.1029H296.068C294.656 88.1029 293.507 86.9538 293.507 85.5427C293.507 84.1316 294.656 82.9824 296.068 82.9824H304.921C306.332 82.9824 307.481 84.1316 307.481 85.5427C307.481 86.9538 306.326 88.1029 304.921 88.1029ZM296.068 83.4647C294.918 83.4647 293.984 84.3995 293.984 85.5486C293.984 86.6977 294.918 87.6325 296.068 87.6325H304.921C306.07 87.6325 307.005 86.6977 307.005 85.5486C307.005 84.3995 306.07 83.4647 304.921 83.4647H296.068Z" fill="#2C2C2C"/>
<path d="M300.985 40.6969H299.997V47.1749H300.985V40.6969Z" fill="#2C2C2C"/>
<path d="M304.54 48.5384H296.443C296.294 48.5384 296.175 48.4193 296.175 48.2705V44.5552C296.175 44.4063 296.294 44.2872 296.443 44.2872H304.54C304.689 44.2872 304.808 44.4063 304.808 44.5552V48.2764C304.808 48.4193 304.689 48.5384 304.54 48.5384Z" fill="#50BFD7"/>
<path d="M304.54 48.7766H296.442C296.163 48.7766 295.936 48.5503 295.936 48.2705V44.5552C295.936 44.2753 296.163 44.0491 296.442 44.0491H304.54C304.82 44.0491 305.046 44.2753 305.046 44.5552V48.2764C305.046 48.5503 304.82 48.7766 304.54 48.7766ZM296.442 44.5194C296.425 44.5194 296.413 44.5313 296.413 44.5492V48.2705C296.413 48.2884 296.425 48.3003 296.442 48.3003H304.54C304.558 48.3003 304.57 48.2884 304.57 48.2705V44.5552C304.57 44.5373 304.558 44.5254 304.54 44.5254H296.442V44.5194Z" fill="#2C2C2C"/>
<path d="M301.76 40.2623C301.76 40.9589 301.194 41.5245 300.497 41.5245C299.801 41.5245 299.235 40.9589 299.235 40.2623C299.235 39.5656 299.801 39 300.497 39C301.188 39 301.76 39.5656 301.76 40.2623Z" fill="#2C2C2C"/>
<path d="M301.373 39.774C301.373 39.9883 301.2 40.161 300.986 40.161C300.771 40.161 300.599 39.9883 300.599 39.774C300.599 39.5596 300.771 39.387 300.986 39.387C301.2 39.387 301.373 39.5596 301.373 39.774Z" fill="#2C2C2C"/>
<path d="M307.898 75.0814C311.253 75.0814 313.972 72.3624 313.972 69.0083C313.972 65.6542 311.253 62.9352 307.898 62.9352C304.544 62.9352 301.825 65.6542 301.825 69.0083C301.825 72.3624 304.544 75.0814 307.898 75.0814Z" fill="#002731"/>
<path d="M300.491 80.1485C315.249 80.1485 327.213 74.7771 327.213 68.1511C327.213 61.5251 315.249 56.1537 300.491 56.1537C285.733 56.1537 273.769 61.5251 273.769 68.1511C273.769 74.7771 285.733 80.1485 300.491 80.1485Z" fill="#2C2C2C"/>
<path d="M276.89 73.7832C277.366 74.1822 277.884 74.5692 278.456 74.9383C277.074 70.9551 276.473 66.5372 276.616 62.7563C276.181 63.1434 275.788 63.5482 275.449 63.9591C275.461 67.079 275.931 70.5204 276.89 73.7832Z" fill="#50BFD7"/>
<path d="M325.528 63.9533C325.183 63.5425 324.79 63.1376 324.355 62.7506C324.581 66.5672 323.813 71.0625 322.289 75.0993C322.879 74.7242 323.426 74.3372 323.92 73.9323C324.986 70.598 325.546 67.103 325.528 63.9533Z" fill="#50BFD7"/>
<path d="M305.945 85.5845H295.043C286.225 85.5845 279.081 78.4396 279.081 69.6217V67.1984C279.081 55.8857 288.25 46.7224 299.557 46.7224H301.42C312.733 46.7224 321.896 55.8917 321.896 67.1984V69.6217C321.902 78.4396 314.757 85.5845 305.945 85.5845Z" fill="white"/>
<path d="M305.945 85.8227H295.043C290.715 85.8227 286.648 84.1377 283.588 81.0773C280.527 78.0169 278.842 73.9503 278.842 69.6217V67.1984C278.842 61.6671 280.998 56.4632 284.91 52.5514C288.821 48.6396 294.025 46.4843 299.557 46.4843H301.42C306.951 46.4843 312.155 48.6396 316.067 52.5514C319.979 56.4632 322.134 61.6671 322.134 67.1984V69.6217C322.134 73.9503 320.449 78.0169 317.389 81.0773C314.334 84.1377 310.268 85.8227 305.945 85.8227ZM299.562 46.9606C294.156 46.9606 289.071 49.0683 285.249 52.8908C281.426 56.7133 279.319 61.7981 279.319 67.2043V69.6276C279.319 73.8253 280.956 77.7728 283.921 80.7439C286.892 83.7149 290.84 85.3463 295.037 85.3463H305.939C310.137 85.3463 314.084 83.709 317.056 80.7439C320.027 77.7728 321.658 73.8253 321.658 69.6276V67.2043C321.658 61.7981 319.55 56.7133 315.728 52.8908C311.905 49.0683 306.82 46.9606 301.414 46.9606H299.562Z" fill="#2C2C2C"/>
<path d="M296.08 76.5223C296.217 77.5941 296.741 78.5824 297.55 79.2969C298.36 80.0114 299.408 80.4103 300.492 80.4103C301.575 80.4103 302.617 80.0174 303.433 79.2969C304.243 78.5824 304.767 77.5941 304.904 76.5223H296.08Z" fill="white"/>
<path d="M300.491 80.6487C299.348 80.6487 298.253 80.232 297.395 79.4758C296.538 78.7196 295.99 77.6836 295.847 76.5524L295.812 76.2844H305.171L305.136 76.5524C304.993 77.6836 304.439 78.7256 303.588 79.4758C302.736 80.232 301.635 80.6487 300.491 80.6487ZM296.359 76.7607C296.538 77.6717 297.008 78.5053 297.711 79.1185C298.479 79.7973 299.467 80.1724 300.491 80.1724C301.516 80.1724 302.504 79.7973 303.272 79.1185C303.975 78.4993 304.445 77.6717 304.624 76.7607H296.359Z" fill="#2C2C2C"/>
<path d="M300.491 59.5058C307.047 59.5058 312.989 57.529 317.347 54.3257C313.59 49.6875 307.857 46.7224 301.42 46.7224H299.557C293.126 46.7224 287.387 49.6875 283.63 54.3257C287.994 57.529 293.936 59.5058 300.491 59.5058Z" fill="#2C2C2C"/>
<path d="M300.491 49.7589C293.936 49.7589 287.993 51.7357 283.635 54.9389C287.392 59.5771 293.126 62.5423 299.562 62.5423H301.426C307.856 62.5423 313.596 59.5771 317.353 54.9389C312.988 51.7357 307.046 49.7589 300.491 49.7589Z" fill="#50BFD7"/>
<path d="M301.426 62.7863H299.562C293.281 62.7863 287.41 59.9819 283.451 55.0936L283.296 54.8971L283.498 54.7483C288.077 51.3783 294.115 49.5206 300.497 49.5206C306.874 49.5206 312.911 51.3783 317.496 54.7483L317.699 54.8971L317.544 55.0936C313.578 59.9819 307.708 62.7863 301.426 62.7863ZM283.981 54.9864C287.845 59.6425 293.507 62.3099 299.562 62.3099H301.426C307.481 62.3099 313.144 59.6425 317.008 54.9864C312.53 51.7653 306.678 49.997 300.497 49.997C294.305 49.997 288.452 51.7653 283.981 54.9864Z" fill="#2C2C2C"/>
<path d="M315.382 72.5392C314.817 72.8786 314.179 73.0572 313.53 73.0572H287.458C286.809 73.0572 286.172 72.8786 285.606 72.5392C284.213 71.7056 283.421 70.0147 283.617 68.2821L283.629 68.157C284.296 62.2923 288.684 57.7851 294.061 57.4457C296.335 57.3028 298.723 57.2254 301.212 57.2433C303.164 57.2552 305.046 57.3266 306.862 57.4397C312.262 57.7791 316.68 62.2685 317.347 68.157C317.353 68.1987 317.359 68.2404 317.359 68.2821C317.567 70.0147 316.775 71.7056 315.382 72.5392Z" fill="white"/>
<path d="M313.525 73.2953H287.458C286.767 73.2953 286.088 73.1048 285.481 72.7416C283.993 71.8544 283.171 70.092 283.379 68.2522L283.391 68.1272C284.07 62.1434 288.553 57.5468 294.043 57.2015C296.419 57.0526 298.83 56.9871 301.212 56.9991C303.093 57.011 304.998 57.0765 306.874 57.1955C312.399 57.5409 316.901 62.1374 317.579 68.1212L317.591 68.2463C317.8 70.0801 316.978 71.8425 315.489 72.7356C314.9 73.1048 314.215 73.2953 313.525 73.2953ZM300.503 57.4813C298.366 57.4813 296.21 57.5468 294.079 57.6838C288.821 58.0172 284.522 62.4351 283.868 68.1867L283.856 68.3117C283.665 69.961 284.403 71.5448 285.731 72.3367C286.261 72.6523 286.862 72.819 287.464 72.819H313.537C314.138 72.819 314.739 72.6523 315.269 72.3367C316.597 71.5448 317.329 69.961 317.145 68.3117L317.133 68.1867C316.478 62.4291 312.161 58.0112 306.868 57.6838C304.998 57.5647 303.099 57.4992 301.23 57.4873C300.974 57.4813 300.741 57.4813 300.503 57.4813Z" fill="#2C2C2C"/>
<path d="M296.294 65.5075C296.294 67.7581 294.335 69.5919 291.93 69.5919C289.518 69.5919 287.565 67.764 287.565 65.5075C287.565 63.2509 289.518 61.423 291.93 61.423C294.341 61.423 296.294 63.2509 296.294 65.5075Z" fill="white"/>
<path d="M291.93 69.83C289.393 69.83 287.327 67.889 287.327 65.5073C287.327 63.1257 289.393 61.1847 291.93 61.1847C294.466 61.1847 296.532 63.1257 296.532 65.5073C296.532 67.889 294.472 69.83 291.93 69.83ZM291.93 61.661C289.655 61.661 287.803 63.3877 287.803 65.5073C287.803 67.627 289.655 69.3536 291.93 69.3536C294.204 69.3536 296.056 67.627 296.056 65.5073C296.056 63.3877 294.204 61.661 291.93 61.661Z" fill="#2C2C2C"/>
<path d="M289.792 65.2516C289.792 67.1152 291.001 68.6215 292.489 68.6215C293.984 68.6215 295.192 67.1092 295.192 65.2516C295.192 63.3879 293.984 61.8756 292.489 61.8756C291.001 61.8756 289.792 63.3879 289.792 65.2516Z" fill="#50BFD7"/>
<path d="M290.572 65.2515C290.572 66.5733 291.429 67.6451 292.489 67.6451C293.549 67.6451 294.406 66.5733 294.406 65.2515C294.406 63.9238 293.549 62.8521 292.489 62.8521C291.429 62.8521 290.572 63.9238 290.572 65.2515Z" fill="#2C2C2C"/>
<path d="M290.453 62.9831C290.453 63.3463 290.899 63.638 291.441 63.638C291.989 63.638 292.43 63.3463 292.43 62.9831C292.43 62.6199 291.989 62.3281 291.441 62.3281C290.893 62.3281 290.453 62.6199 290.453 62.9831Z" fill="white"/>
<path d="M312.965 65.5075C312.965 67.7581 311.006 69.5919 308.601 69.5919C306.189 69.5919 304.236 67.764 304.236 65.5075C304.236 63.2509 306.189 61.423 308.601 61.423C311.006 61.423 312.965 63.2509 312.965 65.5075Z" fill="white"/>
<path d="M308.601 69.83C306.064 69.83 303.998 67.889 303.998 65.5073C303.998 63.1257 306.064 61.1847 308.601 61.1847C311.137 61.1847 313.203 63.1257 313.203 65.5073C313.203 67.889 311.137 69.83 308.601 69.83ZM308.601 61.661C306.326 61.661 304.475 63.3877 304.475 65.5073C304.475 67.627 306.326 69.3536 308.601 69.3536C310.875 69.3536 312.727 67.627 312.727 65.5073C312.727 63.3877 310.875 61.661 308.601 61.661Z" fill="#2C2C2C"/>
<path d="M306.463 65.2516C306.463 67.1152 307.672 68.6215 309.161 68.6215C310.655 68.6215 311.864 67.1092 311.864 65.2516C311.864 63.3879 310.655 61.8756 309.161 61.8756C307.672 61.8756 306.463 63.3879 306.463 65.2516Z" fill="#50BFD7"/>
<path d="M307.243 65.2515C307.243 66.5733 308.101 67.6451 309.16 67.6451C310.22 67.6451 311.078 66.5733 311.078 65.2515C311.078 63.9238 310.22 62.8521 309.16 62.8521C308.101 62.8521 307.243 63.9238 307.243 65.2515Z" fill="#2C2C2C"/>
<path d="M307.118 62.9831C307.118 63.3463 307.565 63.638 308.107 63.638C308.654 63.638 309.095 63.3463 309.095 62.9831C309.095 62.6199 308.654 62.3281 308.107 62.3281C307.565 62.3281 307.118 62.6199 307.118 62.9831Z" fill="white"/>
<path d="M291.983 181.665H298.014L300.277 139.79H289.72L291.983 181.665Z" fill="#2C2C2C"/>
<path d="M303.266 181.665H309.298L311.56 139.79H301.004L303.266 181.665Z" fill="#2C2C2C"/>
<path d="M293.507 199.182H296.913L298.193 182.26H292.227L293.507 199.182Z" fill="#2C2C2C"/>
<path d="M304.576 199.182H307.982L309.262 182.26H303.296L304.576 199.182Z" fill="#2C2C2C"/>
<path d="M333.062 118.224C333.235 117.183 331.208 115.978 328.535 115.534C325.862 115.09 323.555 115.573 323.382 116.615C323.209 117.656 325.235 118.86 327.908 119.305C330.581 119.749 332.889 119.265 333.062 118.224Z" fill="white"/>
<path d="M329.833 119.719C329.208 119.719 328.547 119.665 327.868 119.552C326.546 119.332 325.332 118.921 324.456 118.397C323.51 117.838 323.045 117.189 323.147 116.581C323.248 115.974 323.897 115.515 324.974 115.289C325.975 115.081 327.255 115.087 328.577 115.301C329.898 115.521 331.113 115.932 331.988 116.456C332.935 117.016 333.399 117.665 333.298 118.272L333.066 118.231L333.298 118.272C333.197 118.88 332.548 119.338 331.47 119.564C330.982 119.665 330.422 119.719 329.833 119.719ZM326.612 115.611C326.052 115.611 325.528 115.658 325.07 115.754C324.212 115.932 323.682 116.266 323.617 116.659C323.551 117.052 323.944 117.54 324.701 117.986C325.528 118.481 326.683 118.868 327.952 119.076C329.214 119.284 330.434 119.29 331.381 119.094C332.238 118.915 332.768 118.582 332.834 118.189C332.899 117.796 332.506 117.308 331.75 116.861C330.923 116.367 329.767 115.98 328.499 115.772C327.844 115.664 327.207 115.611 326.612 115.611Z" fill="#2C2C2C"/>
<path d="M295.222 183.219C297.484 183.219 299.318 182.289 299.318 181.141C299.318 179.993 297.484 179.063 295.222 179.063C292.96 179.063 291.126 179.993 291.126 181.141C291.126 182.289 292.96 183.219 295.222 183.219Z" fill="white"/>
<path d="M295.222 183.451C292.793 183.451 290.888 182.433 290.888 181.135C290.888 179.837 292.793 178.819 295.222 178.819C297.651 178.819 299.557 179.837 299.557 181.135C299.557 182.433 297.651 183.451 295.222 183.451ZM295.222 179.301C293.132 179.301 291.364 180.141 291.364 181.141C291.364 182.141 293.132 182.981 295.222 182.981C297.312 182.981 299.08 182.141 299.08 181.141C299.08 180.141 297.312 179.301 295.222 179.301Z" fill="#2C2C2C"/>
<path d="M306.41 183.219C308.672 183.219 310.506 182.289 310.506 181.141C310.506 179.993 308.672 179.063 306.41 179.063C304.147 179.063 302.313 179.993 302.313 181.141C302.313 182.289 304.147 183.219 306.41 183.219Z" fill="white"/>
<path d="M306.41 183.451C303.98 183.451 302.075 182.433 302.075 181.135C302.075 179.837 303.98 178.819 306.41 178.819C308.839 178.819 310.744 179.837 310.744 181.135C310.744 182.433 308.845 183.451 306.41 183.451ZM306.41 179.301C304.32 179.301 302.552 180.141 302.552 181.141C302.552 182.141 304.32 182.981 306.41 182.981C308.5 182.981 310.268 182.141 310.268 181.141C310.268 180.141 308.506 179.301 306.41 179.301Z" fill="#2C2C2C"/>
<path d="M332.234 121.624C332.641 120.647 330.948 119.012 328.453 117.973C325.958 116.934 323.605 116.884 323.198 117.862C322.791 118.839 324.484 120.474 326.979 121.513C329.474 122.552 331.827 122.602 332.234 121.624Z" fill="white"/>
<path d="M330.5 122.571C330.441 122.571 330.387 122.571 330.327 122.571C329.297 122.541 328.047 122.232 326.82 121.714C324.897 120.898 323.397 119.713 323.004 118.695C322.867 118.344 322.867 118.022 322.992 117.742C323.248 117.183 323.998 116.897 325.106 116.933C326.136 116.962 327.386 117.272 328.613 117.79C330.536 118.606 332.036 119.79 332.429 120.809C332.566 121.16 332.566 121.481 332.441 121.761C332.197 122.285 331.512 122.571 330.5 122.571ZM324.921 117.403C324.123 117.403 323.575 117.593 323.421 117.939C323.349 118.1 323.355 118.29 323.445 118.522C323.79 119.409 325.219 120.517 327.005 121.273C328.184 121.773 329.369 122.065 330.345 122.095C331.232 122.124 331.84 121.928 332.012 121.559C332.084 121.398 332.078 121.208 331.989 120.975C331.643 120.088 330.214 118.981 328.428 118.225C327.249 117.724 326.064 117.433 325.088 117.403C325.028 117.403 324.975 117.403 324.921 117.403Z" fill="#2C2C2C"/>
<path d="M302.587 133.128H300.492H298.396C292.156 133.128 286.91 136.694 288.959 139.743C290.84 142.541 296.014 146.816 300.498 146.882C304.981 146.822 310.155 142.547 312.036 139.743C314.073 136.694 308.833 133.128 302.587 133.128Z" fill="#50BFD7"/>
<path d="M300.491 147.12C297.877 147.084 295.305 145.697 293.614 144.536C291.644 143.19 289.786 141.404 288.762 139.874C288.155 138.968 288.107 137.968 288.637 136.986C289.232 135.872 290.53 134.842 292.287 134.086C294.091 133.312 296.258 132.889 298.401 132.889H302.593C304.731 132.889 306.904 133.312 308.708 134.086C310.47 134.842 311.768 135.872 312.358 136.986C312.882 137.968 312.84 138.968 312.233 139.874C311.209 141.404 309.345 143.19 307.38 144.536C305.677 145.691 303.105 147.084 300.491 147.12ZM298.395 133.366C296.318 133.366 294.216 133.777 292.471 134.527C290.81 135.241 289.595 136.194 289.054 137.212C288.613 138.04 288.643 138.849 289.155 139.612C291.06 142.446 296.192 146.584 300.491 146.643C304.796 146.584 309.928 142.446 311.828 139.612C312.34 138.849 312.376 138.04 311.929 137.212C311.387 136.194 310.173 135.241 308.511 134.527C306.767 133.777 304.665 133.366 302.587 133.366H298.395Z" fill="#2C2C2C"/>
<path d="M321.098 145.834L318.395 144.905C318.121 144.809 317.978 144.512 318.068 144.238L320.402 133.836C320.872 132.473 322.355 131.74 323.724 132.211L324.778 132.574C326.141 133.044 326.874 134.527 326.403 135.896L321.765 145.506C321.664 145.786 321.372 145.929 321.098 145.834Z" fill="white"/>
<path d="M321.265 146.102C321.182 146.102 321.099 146.09 321.021 146.06L318.318 145.131C318.128 145.066 317.973 144.929 317.883 144.744C317.794 144.566 317.782 144.363 317.842 144.178L320.176 133.777L320.182 133.765C320.694 132.276 322.319 131.484 323.802 131.991L324.856 132.354C325.576 132.598 326.16 133.116 326.493 133.801C326.826 134.485 326.874 135.259 326.63 135.98L326.618 136.004L321.986 145.602C321.867 145.911 321.575 146.102 321.265 146.102ZM321.176 145.607C321.325 145.661 321.486 145.578 321.539 145.429L321.551 145.405L326.183 135.807C326.386 135.212 326.344 134.569 326.064 134.003C325.784 133.431 325.302 133.009 324.701 132.8L323.647 132.437C322.414 132.014 321.063 132.669 320.634 133.902L318.3 144.304L318.294 144.315C318.27 144.387 318.276 144.464 318.306 144.536C318.336 144.607 318.395 144.655 318.467 144.679L321.176 145.607Z" fill="#2C2C2C"/>
<path d="M321.42 140.647C320.55 140.35 319.645 140.397 318.86 140.725L318.068 144.25C317.972 144.524 318.121 144.821 318.395 144.916L321.098 145.845C321.372 145.941 321.67 145.792 321.765 145.518L323.361 142.213C322.926 141.499 322.259 140.933 321.42 140.647Z" fill="#50BFD7"/>
<path d="M321.265 146.102C321.182 146.102 321.098 146.09 321.021 146.06L318.318 145.131C317.925 144.994 317.71 144.571 317.841 144.178L318.657 140.546L318.77 140.499C319.64 140.142 320.61 140.112 321.503 140.421C322.361 140.713 323.093 141.303 323.563 142.083L323.629 142.196L321.985 145.607C321.866 145.911 321.575 146.102 321.265 146.102ZM319.062 140.898L318.294 144.309L318.288 144.321C318.234 144.47 318.318 144.631 318.467 144.684L321.17 145.613C321.319 145.667 321.479 145.584 321.533 145.435L321.545 145.411L323.081 142.225C322.664 141.6 322.051 141.124 321.336 140.874C320.598 140.618 319.794 140.624 319.062 140.898Z" fill="#2C2C2C"/>
<path d="M322.153 145.357C322.153 145.357 321.974 143.333 319.461 142.964C316.949 142.589 316.752 145.179 315.686 145.971C314.615 146.763 313.347 147.953 313.704 148.436C314.061 148.918 316.437 147.983 317.02 147.549C317.61 147.114 317.514 150.621 317.371 151.597C317.229 152.574 314.68 154.67 315.115 155.259C315.55 155.848 319.42 153.02 319.926 152.645C320.438 152.264 322.016 146.286 322.153 145.357Z" fill="white"/>
<path d="M315.311 155.574C315.115 155.574 315.002 155.497 314.93 155.396C314.585 154.925 315.204 154.181 315.996 153.24C316.508 152.627 317.085 151.936 317.145 151.555C317.205 151.168 317.258 150.281 317.252 149.412C317.24 148.352 317.145 147.941 317.085 147.792C316.716 148.03 316.008 148.346 315.353 148.554C313.858 149.031 313.602 148.685 313.519 148.572C313.162 148.09 313.781 147.387 313.989 147.155C314.364 146.738 314.93 146.232 315.549 145.774C315.853 145.548 316.097 145.125 316.353 144.684C316.925 143.69 317.639 142.445 319.503 142.725C320.89 142.928 321.599 143.624 321.956 144.166C322.343 144.762 322.39 145.309 322.396 145.333V145.363L322.39 145.393C322.313 145.905 321.861 147.715 321.414 149.275C320.479 152.538 320.187 152.752 320.08 152.835C319.866 152.99 318.759 153.812 317.633 154.514C316.329 155.324 315.668 155.574 315.311 155.574ZM315.305 155.098C315.406 155.11 315.859 155.068 317.526 154.008C318.586 153.335 319.598 152.591 319.789 152.448C319.812 152.424 320.11 152.085 320.967 149.09C321.438 147.447 321.837 145.827 321.914 145.357C321.884 145.125 321.593 143.523 319.431 143.202C317.889 142.975 317.318 143.97 316.764 144.928C316.484 145.417 316.216 145.881 315.835 146.167C315.24 146.607 314.698 147.09 314.347 147.483C313.894 147.989 313.858 148.239 313.906 148.298C313.954 148.346 314.305 148.411 315.258 148.102C315.972 147.87 316.651 147.542 316.895 147.364C317.026 147.262 317.187 147.25 317.312 147.328C317.437 147.405 317.705 147.56 317.728 149.322C317.74 150.251 317.681 151.204 317.621 151.633C317.544 152.151 316.972 152.829 316.371 153.556C316.043 153.949 315.728 154.324 315.525 154.633C315.317 154.931 315.305 155.056 315.305 155.098Z" fill="#2C2C2C"/>
<path d="M269.036 108.388L255.08 97.4806L250.989 95.5931L248.596 97.29L249.59 99.3501L264.529 113.015L269.036 108.388Z" fill="#2C2C2C"/>
<path d="M270.338 113.163C271.83 110.901 272.325 108.596 271.444 108.015C270.563 107.434 268.639 108.796 267.147 111.058C265.655 113.32 265.16 115.625 266.041 116.206C266.923 116.787 268.846 115.425 270.338 113.163Z" fill="white"/>
<path d="M266.518 116.576C266.285 116.576 266.083 116.516 265.904 116.403C265.392 116.063 265.232 115.283 265.464 114.212C265.678 113.211 266.202 112.044 266.94 110.925C267.679 109.806 268.542 108.865 269.382 108.276C270.281 107.638 271.055 107.478 271.573 107.817C272.085 108.156 272.245 108.936 272.013 110.008C271.799 111.008 271.275 112.175 270.537 113.295C269.798 114.414 268.935 115.355 268.095 115.944C267.506 116.361 266.964 116.576 266.518 116.576ZM266.172 116.004C266.506 116.224 267.107 116.057 267.828 115.551C268.613 114.992 269.441 114.099 270.144 113.027C270.852 111.955 271.352 110.848 271.555 109.901C271.739 109.044 271.65 108.424 271.317 108.204C270.983 107.984 270.382 108.151 269.661 108.657C268.875 109.216 268.048 110.109 267.345 111.181C266.643 112.253 266.137 113.36 265.934 114.307C265.75 115.17 265.833 115.784 266.172 116.004Z" fill="#2C2C2C"/>
<path d="M268.142 112.093C270.105 110.235 271.107 108.105 270.379 107.336C269.651 106.567 267.47 107.45 265.506 109.308C263.543 111.166 262.542 113.296 263.27 114.065C263.998 114.834 266.179 113.951 268.142 112.093Z" fill="white"/>
<path d="M264.041 114.581C264.011 114.581 263.975 114.581 263.945 114.581C263.57 114.563 263.272 114.438 263.07 114.206C262.665 113.741 262.707 112.943 263.189 111.943C263.636 111.014 264.422 109.996 265.398 109.085C266.922 107.656 268.613 106.769 269.709 106.822C270.084 106.84 270.382 106.965 270.584 107.198C270.989 107.662 270.947 108.46 270.465 109.46C270.018 110.389 269.233 111.407 268.256 112.318C266.768 113.705 265.13 114.581 264.041 114.581ZM269.608 107.293C268.649 107.293 267.101 108.138 265.726 109.43C264.791 110.306 264.047 111.27 263.618 112.145C263.231 112.949 263.165 113.58 263.433 113.884C263.546 114.015 263.731 114.086 263.975 114.098C263.999 114.098 264.023 114.098 264.052 114.098C265.011 114.098 266.559 113.253 267.935 111.961C268.869 111.086 269.614 110.121 270.042 109.246C270.429 108.442 270.495 107.811 270.227 107.507C270.114 107.376 269.929 107.305 269.685 107.293C269.655 107.299 269.631 107.293 269.608 107.293Z" fill="#2C2C2C"/>
<path d="M245.673 94.0569L247.62 91.9611C247.816 91.7467 248.149 91.7348 248.358 91.9313L256.914 98.2902C257.974 99.2727 258.033 100.928 257.051 101.982L256.295 102.797C255.312 103.857 253.657 103.917 252.603 102.934L245.702 94.7952C245.488 94.5987 245.476 94.2713 245.673 94.0569Z" fill="white"/>
<path d="M254.377 103.875C253.681 103.875 252.984 103.625 252.436 103.113L252.419 103.095L245.53 94.9622C245.387 94.8252 245.303 94.6407 245.297 94.4442C245.292 94.2417 245.363 94.0453 245.5 93.8964L247.447 91.8006C247.727 91.4969 248.203 91.4731 248.513 91.7529L257.069 98.1119L257.081 98.1178C258.236 99.1896 258.301 100.994 257.229 102.149L256.473 102.964C255.908 103.566 255.145 103.875 254.377 103.875ZM252.776 102.774C253.734 103.655 255.235 103.596 256.122 102.643L256.878 101.827C257.765 100.869 257.712 99.3682 256.765 98.481L248.209 92.1161L248.197 92.1102C248.084 92.003 247.899 92.009 247.792 92.128L245.851 94.2179L245.679 94.0572L245.851 94.2179C245.798 94.2715 245.774 94.3489 245.774 94.4204C245.774 94.4978 245.81 94.5692 245.863 94.6168L245.881 94.6347L252.776 102.774Z" fill="#2C2C2C"/>
<path d="M250.287 96.4625C250.912 95.7897 251.234 94.9442 251.257 94.0928L248.358 91.9374C248.143 91.7409 247.816 91.7528 247.62 91.9672L245.673 94.0571C245.476 94.2714 245.488 94.5989 245.702 94.7954L248.078 97.5938C248.894 97.4926 249.68 97.1115 250.287 96.4625Z" fill="#50BFD7"/>
<path d="M247.977 97.8498L245.53 94.9621C245.387 94.8252 245.303 94.6406 245.297 94.4441C245.292 94.2417 245.363 94.0452 245.5 93.8963L247.447 91.8005C247.584 91.6517 247.774 91.5683 247.977 91.5564C248.173 91.5504 248.364 91.6159 248.513 91.7469L251.502 93.9678L251.496 94.0928C251.466 95.0336 251.097 95.9326 250.46 96.6173C249.84 97.2902 249.007 97.7188 248.108 97.832L247.977 97.8498ZM248.007 92.0327C248.001 92.0327 248.001 92.0327 247.995 92.0327C247.917 92.0327 247.846 92.0685 247.798 92.122L245.851 94.2179C245.798 94.2715 245.774 94.3489 245.774 94.4203C245.774 94.4977 245.81 94.5691 245.863 94.6168L245.881 94.6346L248.167 97.3318C248.912 97.2068 249.596 96.8436 250.108 96.2899C250.644 95.7123 250.96 94.974 251.013 94.194L248.203 92.1101L248.191 92.1042C248.143 92.0625 248.078 92.0327 248.007 92.0327Z" fill="#2C2C2C"/>
<path d="M245.684 95.2183C245.684 95.2183 247.608 95.8792 248.965 93.7358C250.329 91.5923 248.042 90.3598 247.75 89.0618C247.459 87.7639 246.887 86.1205 246.304 86.2515C245.72 86.3825 245.607 88.9309 245.768 89.6453C245.929 90.3598 242.761 88.8535 241.927 88.3235C241.094 87.7936 240.213 84.6142 239.498 84.7749C238.784 84.9357 239.796 89.6156 239.933 90.2348C240.07 90.8481 244.887 94.7122 245.684 95.2183Z" fill="white"/>
<path d="M246.381 95.5516C245.929 95.5516 245.619 95.4504 245.601 95.4445L245.577 95.4326L245.553 95.4147C245.119 95.1408 243.648 93.9857 242.404 92.9438C239.802 90.7646 239.724 90.4133 239.695 90.2764C239.635 90.0203 239.343 88.6688 239.153 87.3589C238.819 85.007 239.093 84.614 239.439 84.5366C240.01 84.4116 240.433 85.2809 240.975 86.3824C241.326 87.0969 241.719 87.9066 242.046 88.115C242.38 88.3234 243.166 88.7343 243.964 89.0796C244.94 89.5023 245.351 89.5797 245.506 89.5857C245.434 89.151 245.434 88.3711 245.512 87.6923C245.684 86.1323 246.107 86.0371 246.244 86.0073C246.834 85.8763 247.221 86.7337 247.346 87.0135C247.578 87.5256 247.804 88.246 247.977 89.0022C248.06 89.3713 248.346 89.7643 248.65 90.1751C249.328 91.104 250.174 92.2591 249.162 93.8488C248.411 95.0336 247.488 95.4028 246.845 95.504C246.685 95.5397 246.524 95.5516 246.381 95.5516ZM245.786 94.9979C246.012 95.0634 247.59 95.4504 248.763 93.6047C249.596 92.2888 248.923 91.36 248.268 90.4669C247.935 90.0084 247.619 89.5797 247.518 89.1153C247.357 88.3949 247.137 87.6982 246.923 87.2219C246.643 86.6027 246.429 86.4717 246.357 86.4836C246.298 86.5074 246.095 86.8051 245.988 87.7995C245.911 88.5437 245.934 89.2999 246 89.5916C246.036 89.7524 245.982 89.9012 245.863 89.9906C245.744 90.0739 245.488 90.2525 243.868 89.5619C243.011 89.1927 242.16 88.7521 241.796 88.5199C241.356 88.2401 240.963 87.4422 240.552 86.5968C240.326 86.1383 240.111 85.6977 239.909 85.3881C239.712 85.0904 239.605 85.0249 239.564 85.013C239.51 85.0963 239.367 85.531 239.659 87.4839C239.843 88.7223 240.117 89.9548 240.165 90.187C240.177 90.2228 240.367 90.6276 242.755 92.6282C244.071 93.7178 245.381 94.7359 245.786 94.9979Z" fill="#2C2C2C"/>
<path d="M307.696 209.024H304.856C304.57 209.024 304.338 208.792 304.338 208.506L303.182 197.973C303.182 196.538 304.344 195.377 305.778 195.377H306.886C308.321 195.377 309.482 196.538 309.482 197.973L308.22 208.506C308.22 208.792 307.987 209.024 307.696 209.024Z" fill="white"/>
<path d="M307.696 209.262H304.856C304.445 209.262 304.105 208.929 304.099 208.518L302.944 197.985V197.973C302.944 196.407 304.219 195.139 305.778 195.139H306.886C308.452 195.139 309.72 196.413 309.72 197.973V198.003L308.458 208.524C308.446 208.928 308.112 209.262 307.696 209.262ZM303.415 197.961L304.57 208.494V208.506C304.57 208.661 304.695 208.786 304.85 208.786H307.696C307.85 208.786 307.976 208.661 307.976 208.506V208.476L309.238 197.955C309.232 196.657 308.172 195.609 306.88 195.609H305.773C304.48 195.609 303.421 196.663 303.415 197.961Z" fill="#2C2C2C"/>
<path d="M304.546 212.679C304.23 212.447 303.968 212.149 303.766 211.816C303.564 211.477 303.433 211.107 303.379 210.714C303.325 210.327 303.343 209.929 303.438 209.547C303.534 209.166 303.706 208.809 303.939 208.494L304.123 208.267C304.492 207.862 304.963 207.571 305.487 207.416C306.011 207.261 306.564 207.255 307.094 207.392C307.624 207.529 308.101 207.815 308.482 208.208C308.863 208.601 309.125 209.089 309.244 209.625C309.363 210.155 309.333 210.714 309.16 211.227C308.988 211.745 308.672 212.203 308.255 212.554C307.839 212.906 307.332 213.138 306.791 213.221C306.249 213.304 305.701 213.239 305.195 213.037C304.963 212.947 304.748 212.822 304.546 212.679Z" fill="white"/>
<path d="M306.326 213.501C305.91 213.501 305.493 213.418 305.106 213.263C304.856 213.162 304.624 213.031 304.403 212.87C304.064 212.614 303.778 212.298 303.558 211.935C303.337 211.572 303.201 211.167 303.135 210.75C303.075 210.328 303.093 209.905 303.201 209.494C303.308 209.083 303.486 208.696 303.742 208.357L303.748 208.351L303.945 208.113C304.344 207.678 304.85 207.362 305.415 207.196C305.981 207.029 306.582 207.023 307.154 207.172C307.726 207.321 308.244 207.624 308.648 208.053C309.059 208.476 309.345 209.006 309.47 209.583C309.601 210.161 309.571 210.756 309.381 211.316C309.19 211.876 308.857 212.37 308.404 212.751C307.952 213.132 307.41 213.382 306.827 213.471C306.666 213.489 306.499 213.501 306.326 213.501ZM304.683 212.489C304.868 212.626 305.07 212.739 305.284 212.822C305.749 213.013 306.261 213.072 306.755 212.995C307.249 212.918 307.72 212.703 308.101 212.382C308.482 212.06 308.774 211.637 308.934 211.161C309.095 210.685 309.119 210.173 309.012 209.684C308.899 209.196 308.66 208.744 308.309 208.381C307.958 208.017 307.517 207.761 307.035 207.63C306.547 207.499 306.035 207.511 305.552 207.648C305.07 207.791 304.641 208.059 304.302 208.428L304.123 208.643C303.909 208.934 303.754 209.256 303.665 209.607C303.576 209.958 303.558 210.322 303.611 210.679C303.665 211.036 303.784 211.375 303.969 211.691C304.153 212.001 304.397 212.269 304.683 212.489Z" fill="#2C2C2C"/>
<path d="M301.414 212.894C301.087 213.716 301.676 214.561 302.456 214.561H310.196C310.982 214.561 311.566 213.716 311.238 212.894C310.298 210.518 308.452 208.911 306.326 208.911C304.207 208.911 302.361 210.518 301.414 212.894Z" fill="#50BFD7"/>
<path d="M310.197 214.799H302.456C302.016 214.799 301.593 214.573 301.337 214.192C301.063 213.787 301.009 213.269 301.194 212.805C302.206 210.256 304.177 208.672 306.326 208.672C308.482 208.672 310.447 210.256 311.459 212.805C311.643 213.269 311.59 213.787 311.316 214.192C311.06 214.573 310.643 214.799 310.197 214.799ZM301.641 212.983C301.516 213.305 301.545 213.65 301.736 213.924C301.909 214.174 302.176 214.323 302.462 214.323H310.203C310.488 214.323 310.762 214.174 310.929 213.924C311.119 213.644 311.149 213.305 311.024 212.983C310.083 210.619 308.285 209.149 306.332 209.149C304.374 209.149 302.575 210.614 301.641 212.983Z" fill="#2C2C2C"/>
<path d="M296.592 209.024H293.746C293.46 209.024 293.228 208.792 293.228 208.506L292.073 197.973C292.073 196.538 293.234 195.377 294.669 195.377H295.776C297.211 195.377 298.372 196.538 298.372 197.973L297.11 208.506C297.11 208.792 296.878 209.024 296.592 209.024Z" fill="white"/>
<path d="M296.592 209.262H293.745C293.335 209.262 292.995 208.929 292.989 208.518L291.834 197.985V197.973C291.834 196.407 293.108 195.139 294.668 195.139H295.776C297.342 195.139 298.61 196.413 298.61 197.973V198.003L297.348 208.524C297.342 208.928 297.002 209.262 296.592 209.262ZM292.311 197.961L293.466 208.494V208.506C293.466 208.661 293.591 208.786 293.745 208.786H296.592C296.746 208.786 296.871 208.661 296.871 208.506V208.476L298.134 197.955C298.128 196.657 297.068 195.609 295.776 195.609H294.668C293.37 195.609 292.317 196.663 292.311 197.961Z" fill="#2C2C2C"/>
<path d="M293.436 212.679C293.12 212.447 292.858 212.149 292.656 211.816C292.453 211.477 292.322 211.107 292.269 210.714C292.215 210.327 292.233 209.929 292.328 209.547C292.424 209.166 292.596 208.809 292.829 208.494L293.013 208.267C293.382 207.862 293.853 207.571 294.377 207.416C294.901 207.261 295.454 207.255 295.984 207.392C296.514 207.529 296.99 207.815 297.371 208.208C297.753 208.601 298.015 209.089 298.134 209.625C298.253 210.155 298.223 210.714 298.05 211.227C297.878 211.745 297.562 212.203 297.145 212.554C296.728 212.906 296.222 213.138 295.681 213.221C295.139 213.304 294.591 213.239 294.085 213.037C293.859 212.947 293.638 212.822 293.436 212.679Z" fill="white"/>
<path d="M295.222 213.501C294.805 213.501 294.389 213.418 294.002 213.263C293.751 213.162 293.519 213.031 293.299 212.87C292.96 212.614 292.674 212.298 292.454 211.935C292.233 211.572 292.096 211.167 292.031 210.75C291.971 210.328 291.989 209.905 292.096 209.494C292.203 209.083 292.382 208.696 292.638 208.357L292.644 208.351L292.841 208.113C293.239 207.678 293.746 207.362 294.311 207.196C294.877 207.029 295.478 207.023 296.05 207.172C296.621 207.321 297.139 207.624 297.544 208.053C297.955 208.476 298.241 209.006 298.366 209.583C298.497 210.161 298.467 210.756 298.277 211.316C298.086 211.876 297.753 212.37 297.3 212.751C296.848 213.132 296.306 213.382 295.722 213.471C295.556 213.489 295.389 213.501 295.222 213.501ZM293.579 212.489C293.763 212.626 293.966 212.739 294.18 212.822C294.645 213.013 295.157 213.072 295.651 212.995C296.145 212.918 296.615 212.703 296.996 212.382C297.378 212.06 297.669 211.637 297.83 211.161C297.991 210.685 298.015 210.173 297.907 209.684C297.794 209.196 297.556 208.744 297.205 208.381C296.854 208.017 296.413 207.761 295.931 207.63C295.442 207.499 294.93 207.511 294.448 207.648C293.966 207.791 293.537 208.059 293.198 208.428L293.019 208.643C292.805 208.934 292.65 209.256 292.561 209.607C292.471 209.958 292.454 210.322 292.507 210.679C292.561 211.036 292.68 211.375 292.864 211.691C293.049 212.001 293.287 212.269 293.579 212.489Z" fill="#2C2C2C"/>
<path d="M290.31 212.894C289.982 213.716 290.572 214.561 291.352 214.561H299.092C299.878 214.561 300.462 213.716 300.134 212.894C299.193 210.518 297.348 208.911 295.222 208.911C293.096 208.911 291.251 210.518 290.31 212.894Z" fill="#50BFD7"/>
<path d="M299.092 214.799H291.352C290.911 214.799 290.489 214.573 290.233 214.192C289.959 213.787 289.905 213.269 290.09 212.805C291.102 210.256 293.073 208.672 295.222 208.672C297.377 208.672 299.342 210.256 300.354 212.805C300.539 213.269 300.485 213.787 300.212 214.192C299.956 214.573 299.533 214.799 299.092 214.799ZM290.53 212.983C290.405 213.305 290.435 213.65 290.626 213.924C290.798 214.174 291.066 214.323 291.352 214.323H299.092C299.378 214.323 299.652 214.174 299.819 213.924C300.009 213.644 300.039 213.305 299.914 212.983C298.973 210.619 297.175 209.149 295.222 209.149C293.269 209.149 291.471 210.614 290.53 212.983Z" fill="#2C2C2C"/>
</svg>
