<svg width="407" height="222" viewBox="0 0 407 222" fill="none" xmlns="http://www.w3.org/2000/svg">
<path d="M231.053 217.505C231.053 217.505 282.415 219.906 314.904 161.862C347.392 103.818 309.165 50.4243 250.111 38.8867C191.058 27.3492 161.637 -15.9712 109.002 17.1903C56.367 50.3517 85.6167 226.958 231.053 217.505Z" fill="#70CDE0"/>
<path opacity="0.4" d="M231.053 217.505C231.053 217.505 282.415 219.906 314.904 161.862C347.392 103.818 309.165 50.4243 250.111 38.8867C191.058 27.3492 161.637 -15.9712 109.002 17.1903C56.367 50.3517 85.6167 226.958 231.053 217.505Z" fill="white"/>
<path d="M193.7 10.3829V41.3979C193.746 44.0594 194.839 46.5955 196.741 48.4571C198.644 50.3188 201.203 51.3562 203.865 51.3447H315.059C316.395 51.3475 317.718 51.0868 318.954 50.5777C320.189 50.0685 321.312 49.3209 322.258 48.3775C323.204 47.434 323.955 46.3134 324.467 45.0795C324.98 43.8457 325.244 42.523 325.245 41.1869V14.9694L339.089 0.422063L203.879 0C202.526 0.00447314 201.188 0.277588 199.942 0.803498C198.695 1.32941 197.566 2.09763 196.619 3.06358C195.672 4.02953 194.926 5.17395 194.425 6.43042C193.924 7.68689 193.678 9.03038 193.7 10.3829Z" fill="#F5F5F5"/>
<path d="M308.826 18.7961L207.888 18.3248L207.902 15.2226L308.833 15.6939L308.826 18.7961Z" fill="#E0E0E0"/>
<path d="M308.826 29.0032L207.888 28.5319L207.902 25.4297L308.833 25.901L308.826 29.0032Z" fill="#E0E0E0"/>
<path d="M268.892 35.6486L268.877 38.7508L308.811 38.946L308.826 35.8438L268.892 35.6486Z" fill="#E0E0E0"/>
<path d="M148.784 74.0098V98.0466C148.784 100.135 147.954 102.138 146.478 103.615C145.002 105.092 143 105.923 140.912 105.925H54.7254C52.6371 105.923 50.6349 105.092 49.1589 103.615C47.6829 102.138 46.8538 100.135 46.8538 98.0466V77.738L36.1262 66.4829L140.891 66.1241C141.927 66.1213 142.954 66.3234 143.913 66.7186C144.871 67.1138 145.742 67.6944 146.476 68.4271C147.209 69.1599 147.79 70.0302 148.186 70.9882C148.582 71.9463 148.785 72.9731 148.784 74.0098Z" fill="#E0E0E0"/>
<path d="M59.5582 80.6994L137.768 80.3407L137.761 77.9349L59.5511 78.2936L59.5582 80.6994Z" fill="#FAFAFA"/>
<path d="M59.5582 88.6064L137.768 88.2476L137.761 85.8418L59.5511 86.2076L59.5582 88.6064Z" fill="#FAFAFA"/>
<path d="M90.4846 93.7692L59.5403 93.9205L59.552 96.3262L90.4964 96.175L90.4846 93.7692Z" fill="#FAFAFA"/>
<path d="M406.267 217.239C406.267 217.345 315.522 217.422 203.589 217.422C91.6564 217.422 0.883423 217.366 0.883423 217.239C0.883423 217.112 91.6283 217.056 203.589 217.056C315.55 217.056 406.267 217.141 406.267 217.239Z" fill="#263238"/>
<path d="M220.086 197.518V177.387H187.689V197.518C187.694 200.968 186.332 204.278 183.901 206.726L176.517 214.177H231.257L223.879 206.726C221.444 204.281 220.08 200.969 220.086 197.518Z" fill="white" stroke="#263238" stroke-width="1.10627" stroke-linecap="round" stroke-linejoin="round"/>
<path opacity="0.44" d="M187.688 177.387V197.518C187.687 199.079 187.404 200.626 186.852 202.086H220.922C220.373 200.625 220.09 199.079 220.086 197.518V177.387H187.688Z" fill="#51C0D7"/>
<path d="M220.086 178.296H187.688V193.232H220.086V178.296Z" fill="#263238" stroke="#263238" stroke-width="1.10627" stroke-miterlimit="10"/>
<path d="M125.318 54.1655H282.462C283.461 54.1647 284.45 54.3611 285.373 54.7433C286.296 55.1256 287.134 55.6861 287.84 56.3929C288.546 57.0997 289.105 57.9389 289.486 58.8622C289.867 59.7856 290.062 60.775 290.059 61.7738V179.086C290.052 181.271 289.177 183.364 287.627 184.905C286.078 186.445 283.98 187.307 281.795 187.301H125.991C123.807 187.301 121.712 186.433 120.167 184.888C118.622 183.344 117.754 181.249 117.754 179.064V61.7458C117.757 59.7392 118.555 57.8154 119.972 56.3949C121.389 54.9744 123.311 54.1729 125.318 54.1655Z" fill="#263238" stroke="#263238" stroke-width="1.10627" stroke-miterlimit="10"/>
<path d="M117.726 171.893H290.059V179.064C290.059 181.248 289.192 183.343 287.647 184.888C286.102 186.433 284.007 187.301 281.823 187.301H125.991C123.807 187.301 121.712 186.433 120.167 184.888C118.622 183.343 117.754 181.248 117.754 179.064V171.893H117.726Z" fill="white" stroke="#263238" stroke-width="1.10627" stroke-miterlimit="10"/>
<rect x="126.867" y="62.2751" width="154.759" height="100.593" fill="white"/>
<path d="M224.283 153.149L227.45 151.581L230.544 153.302L230.027 149.802L232.619 147.395L229.129 146.804L227.641 143.594L226.004 146.73L222.494 147.152L224.964 149.681L224.283 153.149Z" fill="#E0E0E0"/>
<path d="M211.36 153.149L214.528 151.581L217.621 153.302L217.104 149.802L219.696 147.395L216.206 146.804L214.718 143.594L213.081 146.73L209.571 147.152L212.041 149.681L211.36 153.149Z" fill="#51C0D7"/>
<path d="M198.437 153.149L201.605 151.581L204.693 153.302L204.181 149.802L206.773 147.395L203.283 146.804L201.795 143.594L200.158 146.73L196.648 147.152L199.118 149.681L198.437 153.149Z" fill="#51C0D7"/>
<path d="M185.515 153.149L188.682 151.581L191.77 153.302L191.258 149.802L193.85 147.395L190.361 146.804L188.872 143.594L187.235 146.73L183.725 147.152L186.196 149.681L185.515 153.149Z" fill="#51C0D7"/>
<path d="M172.591 153.149L175.759 151.581L178.847 153.302L178.335 149.802L180.927 147.395L177.438 146.804L175.949 143.594L174.312 146.73L170.802 147.152L173.272 149.681L172.591 153.149Z" fill="#51C0D7"/>
<path d="M232.766 75.3633C232.766 75.4425 218.587 75.5059 201.093 75.5059C183.598 75.5059 169.419 75.4425 169.419 75.3633C169.419 75.2841 183.593 75.2261 201.093 75.2261C218.592 75.2261 232.766 75.2894 232.766 75.3633Z" fill="#263238"/>
<path d="M217.193 71.5626C217.193 71.6418 210.194 71.7052 201.557 71.7052C192.921 71.7052 185.916 71.6418 185.916 71.5626C185.916 71.4834 192.916 71.4201 201.557 71.4201C210.199 71.4201 217.193 71.4834 217.193 71.5626Z" fill="#263238"/>
<path d="M264.968 81.7879C264.968 81.8671 236.636 81.9305 201.689 81.9305C166.742 81.9305 138.405 81.8671 138.405 81.7879C138.405 81.7088 166.737 81.6507 201.689 81.6507C236.641 81.6507 264.968 81.714 264.968 81.7879Z" fill="#E0E0E0"/>
<path d="M264.968 84.9288C264.968 85.0027 236.636 85.0661 201.689 85.0661C166.742 85.0661 138.405 85.0027 138.405 84.9288C138.405 84.8549 166.737 84.7863 201.689 84.7863C236.641 84.7863 264.968 84.8496 264.968 84.9288Z" fill="#E0E0E0"/>
<path d="M224.291 96.4577L227.407 99.4596L199.054 126.777L186.591 114.769L189.707 111.767L199.054 120.773L224.291 96.4577ZM224.291 90.3895L199.054 114.705L189.707 105.699L180.293 114.769L199.054 132.845L233.705 99.4596L224.291 90.3895Z" fill="#50BFD7"/>
<path d="M315.541 43.1433C314.473 47.551 316.877 63.5792 320.817 69.6432C320.817 69.6432 332.237 77.0563 367.907 72.8489C367.907 72.8489 362.136 71.0056 367.539 49.8684C367.653 49.4143 367.773 48.9602 367.9 48.486C368.635 45.7478 363.258 41.0529 362.29 39.4033C355.311 27.5625 315.541 43.1433 315.541 43.1433Z" fill="#2C2C2C"/>
<path d="M295.272 105.927C295.272 105.927 293.309 105.499 292.554 104.531C291.793 103.563 291.345 103.135 288.687 101.98C286.049 100.824 285.001 99.3284 285.001 99.3284C285.001 99.3284 283.158 101.018 287.205 102.955C289.682 104.144 281.541 103.97 279.09 103.696C279.09 103.696 277.675 104.471 280.019 105.606C282.363 106.741 280.106 106.828 284.747 108.785C289.382 110.749 294.892 111.777 296.014 108.979C297.129 106.18 295.272 105.927 295.272 105.927Z" fill="white"/>
<path fill-rule="evenodd" clip-rule="evenodd" d="M285.001 99.3286L284.82 99.1317L285.045 98.9259L285.219 99.1748L285.219 99.175L285.22 99.1753L285.221 99.1768C285.222 99.1787 285.224 99.182 285.228 99.1867C285.235 99.196 285.246 99.2107 285.261 99.2304C285.292 99.2696 285.34 99.3286 285.406 99.4038C285.539 99.5541 285.744 99.7689 286.031 100.02C286.604 100.522 287.503 101.169 288.794 101.735C290.125 102.313 290.922 102.718 291.484 103.106C292.056 103.501 292.377 103.874 292.764 104.366L292.764 104.366L292.765 104.367C293.095 104.79 293.715 105.118 294.293 105.343C294.576 105.453 294.836 105.534 295.026 105.588C295.121 105.615 295.198 105.634 295.25 105.647C295.277 105.654 295.297 105.658 295.31 105.662C295.315 105.663 295.319 105.664 295.322 105.664C295.325 105.665 295.328 105.665 295.332 105.666C295.335 105.667 295.339 105.667 295.343 105.668C295.361 105.671 295.386 105.677 295.416 105.684C295.476 105.7 295.557 105.725 295.651 105.765C295.836 105.845 296.074 105.988 296.271 106.238C296.678 106.757 296.838 107.633 296.262 109.078L296.261 109.078C295.947 109.864 295.324 110.371 294.521 110.657C293.726 110.941 292.746 111.012 291.678 110.934C289.541 110.778 286.975 110.019 284.643 109.031C282.319 108.051 281.663 107.518 281.308 107.049C281.246 106.966 281.192 106.884 281.144 106.812C281.129 106.788 281.114 106.765 281.099 106.744C281.04 106.655 280.981 106.575 280.901 106.492C280.741 106.325 280.474 106.124 279.902 105.847C279.301 105.555 278.912 105.274 278.681 105.002C278.443 104.721 278.365 104.439 278.413 104.178C278.458 103.931 278.606 103.75 278.723 103.64C278.783 103.584 278.84 103.541 278.883 103.511C278.905 103.497 278.923 103.485 278.936 103.477C278.943 103.473 278.949 103.47 278.953 103.467C278.955 103.466 278.957 103.465 278.959 103.464L278.961 103.463L278.962 103.462L278.962 103.462C278.962 103.462 278.962 103.462 279.09 103.696L278.962 103.462L279.036 103.421L279.12 103.431C280.331 103.566 282.966 103.678 284.986 103.607C286.007 103.571 286.832 103.49 287.245 103.357C287.276 103.347 287.302 103.337 287.325 103.328C287.271 103.291 287.195 103.247 287.089 103.196C285.041 102.215 284.374 101.247 284.319 100.434C284.291 100.034 284.417 99.7093 284.545 99.4887C284.609 99.3782 284.675 99.2917 284.726 99.2319C284.751 99.202 284.773 99.1784 284.79 99.1617C284.798 99.1533 284.805 99.1466 284.81 99.1416C284.812 99.1391 284.815 99.137 284.816 99.1353L284.819 99.1332L284.82 99.1323L284.82 99.132C284.82 99.1318 284.82 99.1317 285.001 99.3286ZM279.157 103.972C279.137 103.988 279.113 104.007 279.089 104.03C279.013 104.101 278.954 104.185 278.938 104.273C278.925 104.347 278.932 104.472 279.089 104.656C279.251 104.848 279.565 105.09 280.135 105.366C280.736 105.657 281.065 105.892 281.286 106.122C281.397 106.237 281.475 106.345 281.543 106.446C281.563 106.476 281.581 106.504 281.599 106.531C281.643 106.598 281.683 106.659 281.734 106.727C281.997 107.074 282.534 107.562 284.851 108.539L284.851 108.539C287.154 109.515 289.66 110.251 291.717 110.401C292.746 110.476 293.644 110.403 294.342 110.154C295.033 109.907 295.519 109.493 295.766 108.88C296.305 107.527 296.093 106.877 295.851 106.569C295.723 106.406 295.567 106.311 295.439 106.256C295.376 106.228 295.321 106.212 295.284 106.202C295.265 106.197 295.251 106.194 295.243 106.193C295.239 106.192 295.236 106.192 295.235 106.191C295.234 106.191 295.234 106.191 295.234 106.191L295.226 106.19L295.215 106.188L295.272 105.927C295.215 106.188 295.215 106.188 295.215 106.188L295.215 106.188L295.213 106.187L295.208 106.186C295.204 106.185 295.198 106.184 295.19 106.182C295.174 106.178 295.151 106.173 295.123 106.166C295.065 106.152 294.982 106.131 294.881 106.102C294.679 106.045 294.402 105.959 294.099 105.841C293.507 105.611 292.768 105.24 292.344 104.696C291.97 104.22 291.687 103.895 291.18 103.545C290.664 103.189 289.908 102.802 288.581 102.225L288.58 102.225C287.234 101.635 286.289 100.957 285.679 100.422C285.374 100.155 285.153 99.9243 285.006 99.7581C284.916 99.9148 284.834 100.133 284.852 100.397C284.887 100.913 285.322 101.758 287.32 102.714L287.32 102.714C287.484 102.793 287.62 102.873 287.721 102.958C287.815 103.037 287.92 103.155 287.934 103.315C287.95 103.496 287.846 103.625 287.75 103.699C287.656 103.772 287.534 103.825 287.409 103.865C286.915 104.025 286.016 104.106 285.005 104.141C283.013 104.211 280.435 104.106 279.157 103.972ZM279.22 103.93C279.22 103.93 279.22 103.93 279.22 103.93L279.22 103.93Z" fill="#2C2C2C"/>
<path d="M350.336 121.374C350.336 121.374 344.379 122.075 343.13 122.075C343.116 122.075 343.103 122.075 343.09 122.075C343.083 122.075 343.076 122.075 343.07 122.075C343.063 122.075 343.056 122.075 343.05 122.075C343.036 122.075 343.023 122.075 343.01 122.075C341.754 122.075 335.804 121.374 335.804 121.374C327.863 123.878 328.431 135.465 328.437 135.793C328.491 138.184 328.524 140.581 328.584 142.972C328.724 148.602 330.16 165.465 330.528 170.828C330.561 171.268 330.581 171.636 330.594 171.91C331.195 183.944 331.79 195.979 332.391 208.013C332.444 209.068 332.498 210.13 332.551 211.185C332.551 211.185 335.343 212.922 340.819 211.185L340.866 172.097L342.388 143.052C342.388 143.052 342.669 143.012 343.003 142.979C343.023 142.979 343.043 142.985 343.07 142.985V142.992C343.076 142.992 343.083 142.992 343.09 142.992C343.096 142.992 343.103 142.992 343.11 142.992V142.985C343.13 142.985 343.15 142.979 343.177 142.979C343.51 143.012 343.791 143.052 343.791 143.052L345.314 172.097L345.36 211.185C350.837 212.922 353.628 211.185 353.628 211.185C353.682 210.13 353.735 209.068 353.789 208.013C354.39 195.979 354.977 183.944 355.585 171.91C355.598 171.636 355.618 171.268 355.652 170.828C356.012 165.472 357.455 148.602 357.595 142.972C357.655 140.581 357.689 138.184 357.742 135.793C357.709 135.465 358.27 123.878 350.336 121.374Z" fill="#2C2C2C"/>
<path d="M327.716 89.9718C327.716 89.9718 322.16 116.899 319.628 118.382C317.591 119.577 301.977 114.495 296.047 112.498C294.638 112.031 293.776 111.723 293.776 111.723L294.798 104.818L298.144 105.272L314.807 107.536C314.807 107.536 320.423 80.1746 324.457 79.8407C328.497 79.5001 327.716 89.9718 327.716 89.9718Z" fill="#2C2C2C"/>
<path d="M360.367 79.674C360.367 79.674 380.075 99.569 381.37 109.513C381.37 109.513 378.372 115.136 360.32 125.862L358.711 121.261C358.711 121.261 368.788 109.694 372.288 106.768C372.288 106.768 356.507 93.7187 356.874 90.0189C357.241 86.3057 358.156 79.8677 360.367 79.674Z" fill="#2C2C2C"/>
<path d="M368.428 88.0287C368.428 92.2896 365.636 94.9275 361.375 94.9275C357.114 94.9275 353.662 91.4748 353.662 87.214C353.662 82.9531 356.881 78.2515 360.941 79.5271C365.416 80.9229 368.428 83.7679 368.428 88.0287Z" fill="white"/>
<path fill-rule="evenodd" clip-rule="evenodd" d="M355.982 81.4669C354.713 82.965 353.929 85.1437 353.929 87.2138C353.929 91.3271 357.262 94.6602 361.375 94.6602C363.45 94.6602 365.142 94.0188 366.313 92.8839C367.484 91.7501 368.16 90.099 368.16 88.0286C368.16 83.9304 365.275 81.1588 360.861 79.782L360.861 79.7818C358.963 79.1856 357.248 79.9735 355.982 81.4669ZM361.021 79.272C358.858 78.5928 356.934 79.5179 355.575 81.1215C354.22 82.7205 353.394 85.0231 353.394 87.2138C353.394 91.6222 356.967 95.1945 361.375 95.1945C363.561 95.1945 365.395 94.517 366.685 93.2676C367.976 92.0173 368.695 90.219 368.695 88.0286C368.695 83.6051 365.556 80.6867 361.021 79.272Z" fill="#2C2C2C"/>
<path d="M364.962 86.7867C364.962 89.9389 362.898 91.889 359.746 91.889C356.594 91.889 354.042 89.3378 354.042 86.1856C354.042 83.0334 356.42 79.5539 359.432 80.4956C362.731 81.5374 364.962 83.6411 364.962 86.7867Z" fill="#2C2C2C"/>
<path d="M316.67 88.0285C316.67 92.2893 319.461 94.9273 323.722 94.9273C327.983 94.9273 331.429 91.4679 331.429 87.2137C331.429 82.9596 328.21 78.2513 324.15 79.5269C319.682 80.9227 316.67 83.7677 316.67 88.0285Z" fill="white"/>
<path fill-rule="evenodd" clip-rule="evenodd" d="M329.516 81.1243C330.871 82.7241 331.696 85.0266 331.696 87.2141C331.696 91.6153 328.131 95.1948 323.722 95.1948C321.537 95.1948 319.702 94.5173 318.412 93.2679C317.122 92.0175 316.403 90.2193 316.403 88.0288C316.403 83.6055 319.541 80.687 324.07 79.2723C326.232 78.593 328.157 79.5199 329.516 81.1243ZM329.108 81.4696C327.843 79.9753 326.127 79.1859 324.23 79.7821L324.229 79.7822C319.822 81.159 316.937 83.9306 316.937 88.0288C316.937 90.0992 317.614 91.7504 318.784 92.8842C319.956 94.019 321.647 94.6605 323.722 94.6605C327.835 94.6605 331.162 91.3211 331.162 87.2141C331.162 85.1474 330.378 82.9687 329.108 81.4696Z" fill="#2C2C2C"/>
<path d="M320.143 86.7867C320.143 89.9389 322.206 91.889 325.359 91.889C328.511 91.889 331.062 89.3378 331.062 86.1856C331.062 83.0334 328.684 79.5539 325.679 80.4956C322.367 81.5374 320.143 83.6411 320.143 86.7867Z" fill="#2C2C2C"/>
<path d="M352.259 122.215C347.437 121.774 342.676 121.594 342.676 121.594C340.926 121.648 337.199 121.801 333.353 122.215C334.475 126.049 338.281 128.874 342.803 128.874C347.33 128.88 351.137 126.042 352.259 122.215Z" fill="#50BFD7"/>
<path d="M351.865 122.616C352.279 120.987 360.567 79.4603 360.567 79.4603C360.567 79.4603 338.448 72.9288 324.303 79.4603L333.373 122.977L351.865 122.616Z" fill="white"/>
<path fill-rule="evenodd" clip-rule="evenodd" d="M360.643 79.2038C360.643 79.2039 360.643 79.2039 360.567 79.4601C360.829 79.5124 360.829 79.5125 360.829 79.5129L360.829 79.5143L360.736 79.9792C360.675 80.2837 360.586 80.7306 360.472 81.2999C360.245 82.4386 359.919 84.0671 359.528 86.0264C358.744 89.945 357.695 95.1868 356.633 100.48C354.511 111.057 352.333 121.858 352.124 122.682L352.074 122.879L333.156 123.248L323.999 79.3066L324.191 79.2176C331.332 75.9202 340.459 75.9275 347.769 76.7453C351.43 77.1548 354.647 77.769 356.948 78.2808C358.099 78.5368 359.022 78.7672 359.657 78.9338C359.975 79.0171 360.221 79.0845 360.387 79.1311C360.471 79.1544 360.534 79.1725 360.577 79.1848C360.599 79.191 360.615 79.1957 360.626 79.1989L360.638 79.2026L360.642 79.2035L360.643 79.2038ZM360.567 79.4601L360.829 79.5124L360.877 79.273L360.643 79.2039L360.567 79.4601ZM360.257 79.6494C360.253 79.6482 360.248 79.6469 360.243 79.6456C360.079 79.5997 359.836 79.5331 359.521 79.4506C358.892 79.2855 357.976 79.0567 356.832 78.8024C354.544 78.2936 351.347 77.6832 347.71 77.2763C340.491 76.4687 331.584 76.4684 324.608 79.6145L333.589 122.705L351.652 122.353C352.031 120.656 354.092 110.432 356.11 100.374C357.171 95.0819 358.22 89.8402 359.004 85.9217C359.396 83.9624 359.721 82.334 359.948 81.1953C360.062 80.626 360.151 80.1791 360.212 79.8746L360.257 79.6494Z" fill="black"/>
<path d="M351.865 122.616C352.279 120.987 360.567 79.4603 360.567 79.4603C360.567 79.4603 338.448 72.9288 324.303 79.4603L333.373 122.977L351.865 122.616Z" fill="white"/>
<path fill-rule="evenodd" clip-rule="evenodd" d="M360.643 79.2038C360.643 79.2039 360.643 79.2039 360.567 79.4601C360.829 79.5124 360.829 79.5125 360.829 79.5129L360.829 79.5143L360.736 79.9792C360.675 80.2837 360.586 80.7306 360.472 81.2999C360.245 82.4386 359.919 84.0671 359.528 86.0264C358.744 89.945 357.695 95.1868 356.633 100.48C354.511 111.057 352.333 121.858 352.124 122.682L352.074 122.879L333.156 123.248L323.999 79.3066L324.191 79.2176C331.332 75.9202 340.459 75.9275 347.769 76.7453C351.43 77.1548 354.647 77.769 356.948 78.2808C358.099 78.5368 359.022 78.7672 359.657 78.9338C359.975 79.0171 360.221 79.0845 360.387 79.1311C360.471 79.1544 360.534 79.1725 360.577 79.1848C360.599 79.191 360.615 79.1957 360.626 79.1989L360.638 79.2026L360.642 79.2035L360.643 79.2038ZM360.567 79.4601L360.829 79.5124L360.877 79.273L360.643 79.2039L360.567 79.4601ZM360.257 79.6494C360.253 79.6482 360.248 79.6469 360.243 79.6456C360.079 79.5997 359.836 79.5331 359.521 79.4506C358.892 79.2855 357.976 79.0567 356.832 78.8024C354.544 78.2936 351.347 77.6832 347.71 77.2763C340.491 76.4687 331.584 76.4684 324.608 79.6145L333.589 122.705L351.652 122.353C352.031 120.656 354.092 110.432 356.11 100.374C357.171 95.0819 358.22 89.8402 359.004 85.9217C359.396 83.9624 359.721 82.334 359.948 81.1953C360.062 80.626 360.151 80.1791 360.212 79.8746L360.257 79.6494Z" fill="#2C2C2C"/>
<path d="M355.198 78.1847C349.02 76.9425 338.575 75.5267 329.599 77.6638C330.661 84.3622 331.723 91.0673 332.785 97.7658C333.64 102.307 337.947 105.332 342.442 105.359C346.937 105.332 351.244 102.314 352.099 97.7658C353.127 91.2343 354.163 84.7095 355.198 78.1847Z" fill="#50BFD7"/>
<path fill-rule="evenodd" clip-rule="evenodd" d="M329.537 77.4037C338.572 75.2526 349.065 76.6788 355.25 77.9226L355.502 77.9731L355.461 78.2305C354.426 84.754 353.391 91.2773 352.363 97.8072L352.362 97.8111L352.361 97.815C351.479 102.509 347.044 105.599 342.444 105.626L342.442 105.626L342.44 105.626C337.839 105.599 333.405 102.502 332.522 97.815L332.522 97.8113L332.521 97.8074C331.99 94.4585 331.459 91.108 330.928 87.7574L330.928 87.7564C330.397 84.4055 329.866 81.0546 329.335 77.7054L329.297 77.461L329.537 77.4037ZM329.902 77.867C330.42 81.1343 330.938 84.403 331.456 87.6718L331.456 87.6728C331.987 91.0224 332.517 94.372 333.048 97.72C333.877 102.113 338.056 105.065 342.442 105.092C346.828 105.065 351.007 102.12 351.836 97.7202C352.851 91.2744 353.872 84.8352 354.894 78.3962C348.753 77.1799 338.644 75.8533 329.902 77.867Z" fill="#2C2C2C"/>
<path d="M341.674 80.5554C343.784 80.5554 347.063 79.9143 347.063 77.8106L346.522 70.7849L346.048 64.6408C346.048 62.5304 344.339 60.8274 342.235 60.8274C341.18 60.8274 340.231 61.2548 339.537 61.9427C338.849 62.6306 338.415 63.5856 338.415 64.6408L337.947 70.7916L337.5 76.6886C336.899 80.2482 341.674 80.5554 341.674 80.5554Z" fill="#2C2C2C"/>
<path d="M354.016 25.0244C350.857 21.1376 346.442 18.7935 340.779 18.7935C327.95 18.7935 315.408 30.6209 315.408 45.3736C315.408 60.1262 325.806 72.0872 338.635 72.0872C339.871 72.0872 341.066 71.9804 342.215 71.7667C342.335 72.4145 342.402 73.0823 342.402 73.7635C342.402 73.8904 342.395 74.0106 342.395 74.1308C377.764 65.5691 371.974 22.8406 354.016 25.0244Z" fill="#2C2C2C"/>
<path d="M326.434 60.2731C328.813 60.2731 330.741 58.3445 330.741 55.9655C330.741 53.5865 328.813 51.658 326.434 51.658C324.055 51.658 322.126 53.5865 322.126 55.9655C322.126 58.3445 324.055 60.2731 326.434 60.2731Z" fill="white"/>
<path fill-rule="evenodd" clip-rule="evenodd" d="M326.434 51.9253C324.202 51.9253 322.393 53.7343 322.393 55.9658C322.393 58.1972 324.202 60.0062 326.434 60.0062C328.665 60.0062 330.474 58.1972 330.474 55.9658C330.474 53.7343 328.665 51.9253 326.434 51.9253ZM321.859 55.9658C321.859 53.4392 323.907 51.3911 326.434 51.3911C328.96 51.3911 331.009 53.4392 331.009 55.9658C331.009 58.4923 328.96 60.5405 326.434 60.5405C323.907 60.5405 321.859 58.4923 321.859 55.9658Z" fill="#2C2C2C"/>
<path d="M356.767 60.2731C359.146 60.2731 361.075 58.3445 361.075 55.9655C361.075 53.5865 359.146 51.658 356.767 51.658C354.388 51.658 352.459 53.5865 352.459 55.9655C352.459 58.3445 354.388 60.2731 356.767 60.2731Z" fill="white"/>
<path fill-rule="evenodd" clip-rule="evenodd" d="M356.767 51.9253C354.536 51.9253 352.727 53.7343 352.727 55.9658C352.727 58.1972 354.536 60.0062 356.767 60.0062C358.999 60.0062 360.808 58.1972 360.808 55.9658C360.808 53.7343 358.999 51.9253 356.767 51.9253ZM352.192 55.9658C352.192 53.4392 354.241 51.3911 356.767 51.3911C359.294 51.3911 361.342 53.4392 361.342 55.9658C361.342 58.4923 359.294 60.5405 356.767 60.5405C354.241 60.5405 352.192 58.4923 352.192 55.9658Z" fill="#2C2C2C"/>
<path d="M342.008 73.9371C351.254 73.9371 358.75 63.3255 358.75 50.2354C358.75 37.1453 351.254 26.5337 342.008 26.5337C332.761 26.5337 325.265 37.1453 325.265 50.2354C325.265 63.3255 332.761 73.9371 342.008 73.9371Z" fill="white"/>
<path fill-rule="evenodd" clip-rule="evenodd" d="M330.387 33.6298C327.393 37.8687 325.532 43.7388 325.532 50.2353C325.532 56.7317 327.393 62.6018 330.387 66.8408C333.382 71.0805 337.494 73.6698 342.008 73.6698C346.521 73.6698 350.634 71.0805 353.628 66.8408C356.623 62.6018 358.483 56.7317 358.483 50.2353C358.483 43.7388 356.623 37.8687 353.628 33.6298C350.634 29.3901 346.521 26.8007 342.008 26.8007C337.494 26.8007 333.382 29.3901 330.387 33.6298ZM329.951 33.3215C333.015 28.9828 337.274 26.2664 342.008 26.2664C346.741 26.2664 351 28.9828 354.065 33.3215C357.13 37.6608 359.018 43.6416 359.018 50.2353C359.018 56.8289 357.13 62.8097 354.065 67.149C351 71.4877 346.741 74.2041 342.008 74.2041C337.274 74.2041 333.015 71.4877 329.951 67.149C326.885 62.8097 324.998 56.8289 324.998 50.2353C324.998 43.6416 326.885 37.6608 329.951 33.3215Z" fill="#2C2C2C"/>
<path d="M322.821 44.9797C322.821 44.9797 337.073 45.6743 341.821 37.0992C341.821 37.0992 352.132 46.0216 361.976 45.327L361.048 41.3867L357.228 33.8535L354.911 31.0753L350.162 26.0932L343.791 23.4285L336.144 24.4703L325.946 31.4225L324.671 36.0574L322.821 44.9797Z" fill="#2C2C2C"/>
<path d="M342.422 59.4984C342.429 59.5385 342.342 59.612 342.148 59.612C341.961 59.6187 341.674 59.5318 341.42 59.2914C341.293 59.1712 341.18 59.0243 341.093 58.8373C341.079 58.8106 341.073 58.7839 341.059 58.7571L341.046 58.7171L341.033 58.6837L341.013 58.6236C341.006 58.5969 340.999 58.5635 340.986 58.5367C340.959 58.4366 340.939 58.3297 340.933 58.2162C340.892 57.7754 340.979 57.328 341.086 56.9005C341.5 55.1909 341.988 53.8485 342.168 53.8886C342.348 53.9353 342.161 55.3511 341.747 57.0608C341.64 57.4816 341.56 57.8622 341.56 58.1828C341.56 58.2629 341.567 58.3431 341.574 58.4165L341.58 58.4433V58.4566V58.4633V58.47C341.58 58.47 341.574 58.4499 341.58 58.4566L341.594 58.5234L341.6 58.5568L341.607 58.5768L341.62 58.6169C341.661 58.7438 341.721 58.864 341.787 58.9575C341.921 59.1512 342.081 59.2714 342.208 59.3382C342.322 59.425 342.415 59.4517 342.422 59.4984Z" fill="#2C2C2C"/>
<path d="M323.909 52.9538C323.722 52.2125 323.582 51.4578 323.469 50.6965C323.362 49.9351 323.288 49.1738 323.248 48.4058C323.181 46.8697 323.241 45.3204 323.449 43.791C323.656 42.255 324.01 40.739 324.51 39.2697C324.537 39.1762 324.571 39.0827 324.604 38.9959L324.704 38.7221L324.904 38.1744L325.131 37.6335L325.245 37.3664C325.285 37.2795 325.318 37.186 325.365 37.0992C325.692 36.3913 326.046 35.6901 326.447 35.0222C327.242 33.6732 328.17 32.4043 329.239 31.2489C330.314 30.1002 331.523 29.0718 332.845 28.2102C333.005 28.0967 333.179 27.9965 333.346 27.8964C333.513 27.7962 333.687 27.6893 333.854 27.5958L334.381 27.3153L334.642 27.1751C334.728 27.1283 334.822 27.0883 334.909 27.0482L335.45 26.8011C335.496 26.7811 335.536 26.761 335.583 26.741L335.723 26.6876L335.997 26.5807L336.271 26.4739C336.365 26.4405 336.451 26.4004 336.552 26.367L337.119 26.18C338.629 25.6925 340.218 25.4454 341.808 25.412C342.602 25.3853 343.397 25.4454 344.185 25.5322C344.385 25.5589 344.579 25.5923 344.773 25.619L345.067 25.6658C345.113 25.6724 345.167 25.6791 345.213 25.6925L345.36 25.7259L345.941 25.8528C346.135 25.8928 346.329 25.9463 346.516 25.9997C348.045 26.4271 349.521 27.0482 350.87 27.8763L351.371 28.1902C351.458 28.2436 351.538 28.2971 351.618 28.3572L351.859 28.5241L352.099 28.6911C352.179 28.7445 352.259 28.8046 352.339 28.8647L352.807 29.2254L353.041 29.4057L353.268 29.5994L353.715 29.9867C353.862 30.1136 354.002 30.2538 354.143 30.3941L354.356 30.6011C354.43 30.6679 354.497 30.7347 354.563 30.8081L354.971 31.2356L355.171 31.4493L355.365 31.6697L355.752 32.1171C355.819 32.1906 355.879 32.2707 355.939 32.3442L356.119 32.5779C356.24 32.7315 356.36 32.8851 356.48 33.0454L356.821 33.5263C357.054 33.8401 357.255 34.1807 357.468 34.508C358.297 35.837 358.971 37.2528 359.505 38.7087C360.04 40.1713 360.42 41.6806 360.661 43.21L360.707 43.4971L360.727 43.6374L360.741 43.7843L360.808 44.3587C360.861 44.7393 360.874 45.1267 360.908 45.514C360.955 46.282 360.968 47.0567 360.948 47.8248L360.941 48.1119L360.928 48.3991C360.914 48.5928 360.908 48.7798 360.888 48.9734C360.861 49.3541 360.821 49.7415 360.774 50.1221C360.674 50.8835 360.547 51.6381 360.38 52.3861C360.474 51.6248 360.547 50.8701 360.574 50.1088C360.607 49.3474 360.614 48.5861 360.581 47.8314C360.547 47.0768 360.494 46.3154 360.4 45.5675C360.347 45.1935 360.307 44.8195 360.233 44.4455L360.133 43.8912L360.106 43.7509L360.073 43.6107L360.013 43.3369C359.699 41.8609 359.252 40.4184 358.684 39.036L358.577 38.7755L358.463 38.5217L358.23 38.0075C358.156 37.8338 358.069 37.6736 357.983 37.5066L357.729 37.0057C357.642 36.8388 357.549 36.6785 357.455 36.5182C357.362 36.3579 357.275 36.191 357.175 36.0307L356.881 35.5565C356.781 35.3962 356.687 35.2359 356.58 35.089C356.366 34.7818 356.166 34.4679 355.939 34.1741L355.605 33.7266C355.492 33.5797 355.371 33.4394 355.251 33.2925L355.071 33.0788C355.011 33.0053 354.951 32.9319 354.891 32.8651L354.517 32.451L354.33 32.244L354.136 32.0437L353.742 31.6496C352.68 30.6211 351.498 29.7196 350.222 28.9716C348.953 28.2236 347.584 27.6559 346.169 27.2753C345.815 27.1684 345.454 27.1083 345.1 27.0282L344.966 27.0014C344.92 26.9948 344.873 26.9881 344.833 26.9814L344.559 26.9413C344.379 26.9146 344.198 26.8812 344.018 26.8612C343.29 26.7877 342.555 26.7343 341.828 26.7543C340.365 26.7811 338.902 27.0014 337.507 27.4489L336.986 27.6159C336.899 27.6426 336.812 27.676 336.725 27.7094L336.471 27.8095L336.218 27.9097L336.091 27.9565C336.051 27.9698 336.004 27.9965 335.964 28.0099L335.463 28.237C335.383 28.277 335.296 28.3104 335.209 28.3505L334.962 28.4774L334.475 28.7312C334.314 28.8247 334.154 28.9182 333.994 29.005C333.833 29.0985 333.673 29.1853 333.52 29.2921C332.271 30.0802 331.122 31.0219 330.08 32.077L329.7 32.4844L329.513 32.6915C329.479 32.7249 329.446 32.7582 329.419 32.7916L329.332 32.8985L328.972 33.3259C328.911 33.3994 328.851 33.4662 328.791 33.5396L328.618 33.76L328.277 34.2008C328.217 34.2742 328.17 34.3477 328.11 34.4278L327.95 34.6549C327.843 34.8085 327.736 34.9554 327.629 35.1157L327.329 35.5899C326.534 36.8521 325.853 38.1945 325.318 39.5903C324.778 40.9861 324.363 42.442 324.083 43.9246L323.976 44.4789C323.943 44.6659 323.923 44.8529 323.889 45.0399L323.809 45.6008C323.789 45.7878 323.769 45.9748 323.749 46.1618L323.689 46.7295L323.656 47.2972L323.622 47.8648C323.615 48.0518 323.609 48.2455 323.602 48.4325C323.589 49.1938 323.602 49.9485 323.656 50.7098C323.716 51.4378 323.802 52.1924 323.909 52.9538Z" fill="#50BFD7"/>
<path d="M337.653 51.4911C337.653 53.3945 336.004 54.9372 333.974 54.9372C331.937 54.9372 330.294 53.3945 330.294 51.4911C330.294 49.5878 331.943 48.045 333.974 48.045C336.004 48.045 337.653 49.5878 337.653 51.4911Z" fill="white"/>
<path fill-rule="evenodd" clip-rule="evenodd" d="M333.974 48.312C332.074 48.312 330.561 49.7515 330.561 51.491C330.561 53.2307 332.068 54.6699 333.974 54.6699C335.873 54.6699 337.386 53.2304 337.386 51.491C337.386 49.7515 335.873 48.312 333.974 48.312ZM330.027 51.491C330.027 49.4237 331.813 47.7778 333.974 47.7778C336.135 47.7778 337.921 49.4237 337.921 51.491C337.921 53.5582 336.135 55.2042 333.974 55.2042C331.806 55.2042 330.027 53.5579 330.027 51.491Z" fill="#2C2C2C"/>
<path d="M332.171 51.2771C332.171 52.8465 333.192 54.1221 334.448 54.1221C335.703 54.1221 336.725 52.8465 336.725 51.2771C336.725 49.7077 335.703 48.4321 334.448 48.4321C333.186 48.4254 332.171 49.701 332.171 51.2771Z" fill="#50BFD7"/>
<path d="M332.825 51.2772C332.825 52.3925 333.546 53.294 334.441 53.294C335.336 53.294 336.057 52.3925 336.057 51.2772C336.057 50.1619 335.336 49.2536 334.441 49.2536C333.553 49.2536 332.825 50.1552 332.825 51.2772Z" fill="#2C2C2C"/>
<path d="M332.725 49.3604C332.725 49.6677 333.099 49.9081 333.56 49.9081C334.02 49.9081 334.394 49.661 334.394 49.3604C334.394 49.0532 334.02 48.8128 333.56 48.8128C333.099 48.8061 332.725 49.0532 332.725 49.3604Z" fill="white"/>
<path d="M334.214 47.5441C331.937 47.3171 330.187 49.374 330.187 51.4978C330.187 51.7181 330.461 51.7582 330.574 51.6046C331.503 50.329 331.803 49.0735 333.5 48.586C336.004 47.8647 337.38 50.4359 337.52 52.4528C337.54 52.6464 337.707 52.4728 337.727 52.2725C337.954 49.8615 336.752 47.7979 334.214 47.5441Z" fill="#2C2C2C"/>
<path d="M338.709 46.2216C338.709 46.2216 333.74 41.2662 328.397 47.1499C328.391 47.1499 333.012 44.1913 338.709 46.2216Z" fill="#2C2C2C"/>
<path d="M353.662 51.4911C353.662 53.3945 352.012 54.9372 349.982 54.9372C347.945 54.9372 346.302 53.3945 346.302 51.4911C346.302 49.5878 347.952 48.045 349.982 48.045C352.012 48.045 353.662 49.5878 353.662 51.4911Z" fill="white"/>
<path fill-rule="evenodd" clip-rule="evenodd" d="M349.982 48.312C348.082 48.312 346.569 49.7515 346.569 51.491C346.569 53.2307 348.076 54.6699 349.982 54.6699C351.881 54.6699 353.395 53.2304 353.395 51.491C353.395 49.7515 351.881 48.312 349.982 48.312ZM346.035 51.491C346.035 49.4237 347.821 47.7778 349.982 47.7778C352.143 47.7778 353.929 49.4237 353.929 51.491C353.929 53.5582 352.143 55.2042 349.982 55.2042C347.814 55.2042 346.035 53.5579 346.035 51.491Z" fill="#2C2C2C"/>
<path d="M348.179 51.2771C348.179 52.8465 349.2 54.1221 350.456 54.1221C351.711 54.1221 352.733 52.8465 352.733 51.2771C352.733 49.7077 351.711 48.4321 350.456 48.4321C349.2 48.4254 348.179 49.701 348.179 51.2771Z" fill="#50BFD7"/>
<path d="M348.84 51.2772C348.84 52.3925 349.561 53.294 350.456 53.294C351.351 53.294 352.072 52.3925 352.072 51.2772C352.072 50.1619 351.351 49.2536 350.456 49.2536C349.561 49.2536 348.84 50.1552 348.84 51.2772Z" fill="#2C2C2C"/>
<path d="M348.733 49.3604C348.733 49.6677 349.107 49.9081 349.568 49.9081C350.029 49.9081 350.403 49.661 350.403 49.3604C350.403 49.0532 350.029 48.8128 349.568 48.8128C349.114 48.8061 348.733 49.0532 348.733 49.3604Z" fill="white"/>
<path d="M350.222 47.5441C347.945 47.3171 346.195 49.374 346.195 51.4978C346.195 51.7181 346.469 51.7582 346.582 51.6046C347.511 50.329 347.811 49.0735 349.508 48.586C352.012 47.8647 353.388 50.4359 353.528 52.4528C353.548 52.6464 353.715 52.4728 353.735 52.2725C353.962 49.8615 352.767 47.7979 350.222 47.5441Z" fill="#2C2C2C"/>
<path d="M354.717 45.681C354.717 45.681 349.748 40.7256 344.405 46.6093C344.405 46.6093 349.027 43.6508 354.717 45.681Z" fill="#2C2C2C"/>
<path d="M336.572 63.2852C336.738 64.5808 337.366 65.7762 338.348 66.6444C339.33 67.5126 340.592 67.9868 341.901 67.9868C343.21 67.9868 344.472 67.5126 345.454 66.6444C346.436 65.7762 347.07 64.5874 347.23 63.2852H336.572Z" fill="white"/>
<path fill-rule="evenodd" clip-rule="evenodd" d="M336.268 63.0179H347.532L347.495 63.3177C347.327 64.6857 346.661 65.9337 345.631 66.8444C344.6 67.7561 343.275 68.2538 341.901 68.2538C340.527 68.2538 339.202 67.7561 338.171 66.8444C337.14 65.9329 336.482 64.6783 336.307 63.3192L336.268 63.0179ZM336.884 63.5522C337.096 64.6674 337.669 65.6869 338.525 66.4442C339.458 67.2688 340.657 67.7195 341.901 67.7195C343.145 67.7195 344.344 67.2688 345.277 66.4442C346.135 65.6857 346.713 64.6708 346.919 63.5522H336.884Z" fill="#2C2C2C"/>
<path d="M347.023 125.107C347.023 125.274 347.17 125.468 347.344 125.448C349.314 125.241 350.823 123.718 352.767 124.039C350.817 125.007 349.127 126.69 349.367 129.168C349.394 129.475 349.688 129.595 349.915 129.408C351.311 128.219 352.914 127.158 354.784 127.552C355.585 127.719 356.527 128.032 357.355 127.926C358.59 127.772 359.632 127.211 360.247 126.016C361.328 123.945 360.928 121.461 358.504 120.947C358.443 120.933 358.397 120.94 358.343 120.96C357.448 120.606 356.634 120.159 355.912 119.377C355.218 118.616 354.57 117.774 353.815 117.073C352.807 116.131 351.712 115.39 350.376 116.025C350.176 116.118 350.189 116.405 350.316 116.559C350.903 117.287 351.591 117.981 352.313 118.649C351.591 118.482 350.863 118.395 350.115 118.456C348.78 118.569 347.204 119.457 347.237 121.047C347.244 121.247 347.384 121.367 347.558 121.387C348.786 121.514 350.022 121.494 351.244 121.621C349.341 122.182 347.003 122.823 347.023 125.107Z" fill="white"/>
<path fill-rule="evenodd" clip-rule="evenodd" d="M352.316 115.709C352.932 115.952 353.488 116.402 353.997 116.878C354.508 117.352 354.979 117.899 355.436 118.43C355.663 118.693 355.886 118.952 356.109 119.196C356.772 119.915 357.521 120.339 358.361 120.679C358.422 120.669 358.487 120.669 358.56 120.685C359.868 120.963 360.652 121.785 360.947 122.824C361.237 123.848 361.048 125.057 360.484 126.138C359.82 127.428 358.691 128.028 357.388 128.19C356.932 128.249 356.457 128.191 356.008 128.103C355.782 128.059 355.559 128.006 355.345 127.955C355.322 127.95 355.299 127.944 355.277 127.939C355.086 127.893 354.904 127.849 354.729 127.813L354.728 127.813C352.995 127.448 351.483 128.424 350.088 129.611L350.087 129.613L350.085 129.614C349.903 129.764 349.668 129.807 349.461 129.719C349.254 129.63 349.122 129.43 349.101 129.192C348.884 126.945 350.163 125.333 351.777 124.293C351.24 124.366 350.717 124.56 350.169 124.791C350.048 124.843 349.924 124.896 349.799 124.951C349.058 125.273 348.259 125.62 347.373 125.713C347.173 125.736 347.013 125.633 346.917 125.523C346.822 125.414 346.756 125.264 346.756 125.108C346.745 123.85 347.395 123.043 348.27 122.492C348.732 122.201 349.263 121.977 349.803 121.789C349.666 121.783 349.529 121.777 349.392 121.771L349.386 121.771C348.774 121.744 348.152 121.717 347.53 121.653L347.528 121.653L347.527 121.653C347.241 121.62 346.982 121.407 346.97 121.056L346.97 121.054L346.97 121.052C346.951 120.156 347.39 119.462 347.998 118.987C348.601 118.516 349.381 118.25 350.093 118.189L350.093 118.189L350.094 118.189C350.566 118.151 351.028 118.169 351.483 118.227C350.993 117.744 350.527 117.245 350.109 116.728C350.001 116.597 349.947 116.42 349.956 116.254C349.966 116.081 350.05 115.882 350.262 115.783C351.002 115.431 351.687 115.461 352.316 115.709ZM350.493 116.265C350.492 116.268 350.49 116.274 350.49 116.284C350.489 116.301 350.491 116.321 350.498 116.342C350.505 116.363 350.514 116.379 350.522 116.389L350.523 116.39L350.524 116.391C351.1 117.105 351.778 117.79 352.494 118.453L353.232 119.136L352.252 118.909C351.55 118.747 350.85 118.664 350.137 118.722C349.514 118.775 348.837 119.009 348.327 119.408C347.822 119.802 347.49 120.347 347.504 121.039C347.505 121.074 347.516 121.089 347.524 121.096C347.533 121.105 347.552 121.117 347.587 121.122C348.191 121.184 348.799 121.21 349.415 121.237L349.417 121.237C350.03 121.264 350.652 121.291 351.272 121.355L352.617 121.495L351.32 121.877C351.286 121.887 351.253 121.897 351.22 121.907C350.286 122.181 349.309 122.469 348.555 122.944C347.79 123.425 347.281 124.08 347.29 125.105L347.29 125.106V125.107C347.29 125.111 347.291 125.12 347.297 125.135C347.303 125.149 347.311 125.162 347.319 125.172C347.323 125.176 347.326 125.179 347.329 125.181C348.121 125.095 348.833 124.787 349.574 124.466C349.702 124.41 349.831 124.354 349.961 124.299C350.832 123.931 351.757 123.601 352.81 123.775L353.627 123.91L352.885 124.278C350.977 125.225 349.409 126.827 349.633 129.142L349.633 129.143L349.634 129.144C349.637 129.18 349.647 129.201 349.654 129.211C349.661 129.222 349.667 129.226 349.671 129.228C349.675 129.229 349.682 129.231 349.692 129.229C349.703 129.227 349.721 129.222 349.744 129.203C351.14 128.014 352.833 126.868 354.838 127.29C355.022 127.328 355.212 127.374 355.401 127.419C355.424 127.425 355.447 127.43 355.469 127.436C355.683 127.487 355.897 127.537 356.11 127.579C356.54 127.663 356.949 127.708 357.321 127.66L357.321 127.66L357.322 127.66C358.49 127.515 359.443 126.993 360.009 125.893L360.009 125.892L360.01 125.892C360.527 124.903 360.678 123.835 360.433 122.97C360.192 122.122 359.563 121.444 358.448 121.208L358.447 121.208L358.446 121.207C358.445 121.207 358.445 121.207 358.445 121.207C358.443 121.208 358.441 121.209 358.437 121.21L358.341 121.246L358.245 121.208C357.328 120.846 356.474 120.379 355.716 119.558L355.715 119.558L355.715 119.557C355.469 119.288 355.235 119.016 355.004 118.747C354.559 118.23 354.123 117.724 353.633 117.269L353.633 117.268C353.134 116.802 352.638 116.411 352.12 116.206C351.616 116.007 351.087 115.983 350.493 116.265Z" fill="#2C2C2C"/>
<path d="M329.252 218.725C329.252 218.725 329.646 219.974 329.76 220.168C329.88 220.361 332.945 221.417 336.685 221.337C340.572 221.256 342.348 220.128 342.402 218.719H329.252V218.725Z" fill="#50BFD7"/>
<path fill-rule="evenodd" clip-rule="evenodd" d="M328.985 218.452H342.679L342.669 218.729C342.637 219.563 342.091 220.27 341.1 220.765C340.114 221.258 338.653 221.563 336.691 221.604M328.985 218.452V218.719V218.452ZM329.252 218.726L328.997 218.806L328.985 218.767V218.719M329.252 218.726C328.997 218.806 328.997 218.806 328.997 218.806L329.002 218.82C329.005 218.83 329.009 218.843 329.015 218.861C329.026 218.895 329.042 218.945 329.061 219.006C329.1 219.126 329.153 219.29 329.21 219.459C329.267 219.628 329.327 219.805 329.382 219.953C329.432 220.09 329.486 220.23 329.529 220.303L329.531 220.306L329.533 220.309C329.559 220.352 329.592 220.381 329.611 220.396C329.633 220.414 329.655 220.429 329.677 220.442C329.719 220.468 329.77 220.494 329.827 220.52C329.94 220.572 330.093 220.632 330.279 220.696C330.653 220.825 331.174 220.975 331.807 221.116C333.072 221.398 334.795 221.645 336.691 221.604M329.616 218.986H342.096C341.98 219.462 341.601 219.917 340.862 220.287C339.975 220.731 338.604 221.03 336.68 221.07L336.679 221.07C334.835 221.109 333.155 220.869 331.923 220.594C331.307 220.457 330.805 220.312 330.453 220.191C330.277 220.13 330.142 220.077 330.05 220.035C330.016 220.019 329.99 220.006 329.972 219.996C329.966 219.983 329.96 219.967 329.952 219.949C329.932 219.901 329.909 219.84 329.883 219.769C329.832 219.628 329.773 219.457 329.717 219.289C329.681 219.183 329.647 219.079 329.616 218.986Z" fill="#2C2C2C"/>
<path d="M329.259 218.993C329.847 219.52 330.615 219.921 331.176 220.101C332.571 220.562 334.101 220.736 335.563 220.816C337.119 220.896 338.829 220.869 340.285 220.255C341.073 219.921 341.741 219.433 342.362 218.879C342.642 218.191 342.716 217.41 342.696 216.608C342.649 215.166 342.322 213.77 342.068 212.354C342.028 212.147 341.995 211.947 341.961 211.747C341.888 210.825 341.821 209.897 341.761 208.982C341.741 208.641 341.701 208.341 341.707 208C341.714 207.773 341.794 207.406 341.734 207.192C341.727 207.165 341.714 207.145 341.707 207.125C341.707 207.092 341.714 207.058 341.707 207.025C341.447 206.811 341.173 206.611 340.859 206.524C340.632 206.564 340.405 206.638 340.258 206.698C340.024 206.791 339.817 206.911 339.63 207.052C339.17 206.424 338.034 206.13 337.393 206.103C336.391 206.063 335.056 206.237 334.261 206.972C334.127 206.845 333.92 206.778 333.74 206.744C333.7 206.738 333.653 206.731 333.613 206.724C333.146 206.905 333.266 208.053 333.219 208.381C333.152 208.815 333.086 209.249 332.979 209.67C332.765 210.478 332.458 211.219 331.99 211.914C331.489 212.662 330.835 213.309 330.261 213.997C330.18 214.137 330.094 214.278 330.013 214.411C329.399 215.4 328.898 216.836 329.032 218.011C329.065 218.385 329.145 218.706 329.259 218.993Z" fill="#50BFD7"/>
<path fill-rule="evenodd" clip-rule="evenodd" d="M335.689 205.987C336.276 205.85 336.885 205.816 337.404 205.836L337.404 205.836C337.753 205.851 338.225 205.937 338.672 206.101C339.031 206.234 339.401 206.427 339.675 206.697C339.824 206.603 339.984 206.52 340.158 206.45C340.32 206.384 340.565 206.305 340.813 206.261L340.872 206.25L340.93 206.266C341.303 206.37 341.614 206.603 341.877 206.818L341.951 206.879L341.969 206.972C341.978 207.014 341.978 207.052 341.977 207.077C341.982 207.09 341.988 207.105 341.992 207.123C342.036 207.282 342.025 207.471 342.012 207.615C342.006 207.683 341.999 207.742 341.993 207.795C341.984 207.876 341.976 207.944 341.974 208.006C341.97 208.225 341.986 208.417 342.003 208.629C342.011 208.734 342.02 208.844 342.027 208.965C342.087 209.875 342.154 210.798 342.226 211.714C342.259 211.911 342.292 212.104 342.33 212.303L342.331 212.305L342.331 212.307C342.383 212.599 342.439 212.892 342.495 213.186C342.708 214.302 342.925 215.438 342.963 216.6L342.963 216.601L342.963 216.602C342.983 217.42 342.909 218.243 342.609 218.98L342.586 219.037L342.54 219.078C341.906 219.644 341.214 220.151 340.389 220.501L340.389 220.501C338.873 221.141 337.11 221.163 335.549 221.083L335.549 221.083C334.078 221.002 332.522 220.827 331.093 220.355C330.499 220.164 329.698 219.746 329.08 219.191L329.033 219.149L329.01 219.091C328.888 218.78 328.802 218.436 328.766 218.038C328.624 216.782 329.154 215.288 329.785 214.272C329.809 214.233 329.832 214.194 329.856 214.155C329.915 214.058 329.973 213.962 330.029 213.865L330.04 213.844L330.055 213.826C330.253 213.59 330.453 213.365 330.65 213.143C331.051 212.693 331.439 212.256 331.768 211.765L331.769 211.764C332.216 211.099 332.512 210.387 332.72 209.602C332.823 209.197 332.888 208.777 332.955 208.342C332.963 208.284 332.965 208.181 332.967 208.027C332.967 208.019 332.967 208.012 332.967 208.005C332.97 207.848 332.974 207.659 332.992 207.471C333.01 207.287 333.044 207.087 333.113 206.914C333.181 206.743 333.301 206.558 333.517 206.475L333.585 206.449L333.657 206.461C333.675 206.464 333.695 206.467 333.717 206.47L333.718 206.47C333.739 206.474 333.762 206.477 333.784 206.481L333.786 206.481L333.789 206.482C333.922 206.506 334.09 206.551 334.245 206.635C334.662 206.309 335.174 206.107 335.689 205.987ZM335.81 206.507C335.278 206.631 334.794 206.842 334.442 207.168L334.258 207.337L334.077 207.165C334.001 207.093 333.859 207.038 333.694 207.007C333.686 207.006 333.678 207.005 333.67 207.004C333.652 207.024 333.631 207.058 333.609 207.112C333.568 207.216 333.54 207.357 333.524 207.523C333.508 207.687 333.504 207.857 333.502 208.014C333.501 208.028 333.501 208.042 333.501 208.056C333.499 208.189 333.497 208.325 333.483 208.418L333.483 208.42L333.482 208.427C333.416 208.857 333.348 209.302 333.238 209.735L333.237 209.737L333.237 209.738C333.017 210.569 332.699 211.339 332.212 212.062C331.863 212.584 331.432 213.068 331.018 213.534C330.833 213.743 330.65 213.948 330.481 214.15C330.425 214.247 330.365 214.345 330.309 214.438C330.286 214.476 330.264 214.513 330.242 214.549L330.241 214.55L330.24 214.552C329.644 215.512 329.173 216.887 329.297 217.981L329.297 217.984L329.298 217.987C329.327 218.31 329.393 218.588 329.485 218.836C330.036 219.315 330.744 219.682 331.257 219.847L331.258 219.847L331.259 219.848C332.621 220.297 334.123 220.469 335.577 220.549C337.129 220.629 338.785 220.598 340.181 220.009C340.913 219.698 341.542 219.247 342.137 218.721C342.379 218.095 342.448 217.377 342.429 216.616C342.392 215.501 342.186 214.418 341.974 213.308C341.917 213.009 341.86 212.708 341.805 212.403C341.765 212.193 341.731 211.991 341.698 211.792L341.696 211.779L341.695 211.768C341.621 210.845 341.554 209.915 341.494 208.999L341.494 208.998L341.494 208.997C341.488 208.901 341.481 208.803 341.473 208.704C341.454 208.477 341.435 208.241 341.44 207.995L341.44 207.993L341.44 207.992C341.443 207.909 341.455 207.801 341.466 207.701C341.471 207.653 341.476 207.607 341.48 207.567C341.493 207.42 341.492 207.321 341.478 207.267C341.477 207.266 341.477 207.265 341.476 207.264L341.475 207.261C341.474 207.258 341.472 207.254 341.47 207.25C341.466 207.241 341.46 207.227 341.454 207.209L341.44 207.168V207.153C341.238 206.993 341.046 206.866 340.844 206.799C340.659 206.837 340.478 206.896 340.359 206.945L340.358 206.945L340.357 206.946C340.147 207.03 339.96 207.138 339.791 207.265L339.575 207.427L339.415 207.21C339.23 206.958 338.889 206.751 338.487 206.603C338.091 206.457 337.674 206.382 337.382 206.37C336.899 206.351 336.34 206.383 335.81 206.507Z" fill="#2C2C2C"/>
<path d="M358.21 218.725C358.21 218.725 357.822 219.974 357.702 220.168C357.582 220.361 354.516 221.417 350.777 221.337C346.89 221.256 345.113 220.128 345.06 218.719H358.21V218.725Z" fill="#50BFD7"/>
<path fill-rule="evenodd" clip-rule="evenodd" d="M344.782 218.452H358.477V218.766L358.465 218.805L358.21 218.726C358.465 218.805 358.465 218.805 358.465 218.805L358.465 218.805L358.465 218.805L358.46 218.819C358.457 218.828 358.453 218.842 358.448 218.86C358.437 218.894 358.421 218.944 358.402 219.005C358.363 219.126 358.311 219.289 358.255 219.459C358.198 219.628 358.138 219.805 358.083 219.953C358.032 220.09 357.976 220.233 357.929 220.309C357.902 220.352 357.869 220.381 357.851 220.396C357.829 220.414 357.806 220.429 357.785 220.442C357.743 220.468 357.691 220.494 357.635 220.52C357.522 220.572 357.368 220.632 357.182 220.696C356.809 220.825 356.288 220.975 355.655 221.116C354.39 221.398 352.667 221.645 350.771 221.604M357.847 218.986H345.365C345.481 219.462 345.86 219.917 346.6 220.287C347.487 220.731 348.858 221.03 350.782 221.07L350.782 221.07C352.627 221.109 354.306 220.869 355.539 220.594C356.155 220.457 356.656 220.312 357.008 220.191C357.185 220.13 357.32 220.077 357.412 220.035C357.447 220.018 357.473 220.005 357.491 219.995C357.497 219.982 357.504 219.966 357.512 219.947C357.532 219.9 357.556 219.839 357.582 219.769C357.633 219.628 357.692 219.457 357.748 219.29C357.783 219.183 357.817 219.079 357.847 218.986ZM344.782 218.452L344.793 218.729L344.782 218.452ZM344.793 218.729C344.825 219.563 345.37 220.27 346.361 220.765L344.793 218.729ZM346.361 220.765C347.348 221.258 348.808 221.563 350.771 221.604L346.361 220.765Z" fill="#2C2C2C"/>
<path d="M358.203 218.993C357.615 219.52 356.847 219.921 356.286 220.101C354.891 220.562 353.361 220.736 351.899 220.816C350.343 220.896 348.633 220.869 347.177 220.255C346.389 219.921 345.721 219.433 345.1 218.879C344.819 218.191 344.746 217.41 344.766 216.608C344.813 215.166 345.14 213.77 345.394 212.354C345.434 212.147 345.467 211.947 345.501 211.747C345.574 210.825 345.641 209.897 345.701 208.982C345.728 208.641 345.761 208.341 345.754 208C345.748 207.773 345.668 207.406 345.728 207.192C345.734 207.165 345.748 207.145 345.754 207.125C345.754 207.092 345.748 207.058 345.754 207.025C346.015 206.811 346.282 206.611 346.603 206.524C346.83 206.564 347.057 206.638 347.204 206.698C347.437 206.791 347.644 206.911 347.831 207.052C348.292 206.424 349.428 206.13 350.069 206.103C351.07 206.063 352.406 206.237 353.201 206.972C353.334 206.845 353.541 206.778 353.722 206.744C353.762 206.738 353.809 206.731 353.849 206.724C354.316 206.905 354.196 208.053 354.243 208.381C354.309 208.815 354.376 209.249 354.483 209.67C354.697 210.478 355.004 211.219 355.472 211.914C355.972 212.662 356.627 213.309 357.201 213.997C357.281 214.137 357.368 214.278 357.448 214.411C358.063 215.4 358.564 216.836 358.43 218.011C358.397 218.385 358.317 218.706 358.203 218.993Z" fill="#50BFD7"/>
<path fill-rule="evenodd" clip-rule="evenodd" d="M351.652 206.507C351.122 206.383 350.562 206.351 350.08 206.37C349.787 206.382 349.371 206.457 348.975 206.603C348.573 206.751 348.232 206.958 348.047 207.21L347.887 207.427L347.671 207.265C347.502 207.138 347.315 207.03 347.104 206.946L347.103 206.945L347.102 206.945C346.983 206.896 346.802 206.836 346.616 206.799C346.412 206.866 346.224 206.992 346.022 207.152V207.168L346.008 207.209C346.002 207.227 345.996 207.241 345.992 207.25C345.99 207.254 345.988 207.258 345.987 207.261C345.985 207.264 345.985 207.265 345.984 207.267C345.97 207.321 345.969 207.42 345.982 207.567C345.986 207.607 345.991 207.653 345.996 207.701C346.007 207.801 346.019 207.909 346.021 207.992L346.021 207.993L346.021 207.995C346.027 208.286 346.005 208.553 345.982 208.821C345.977 208.881 345.972 208.941 345.967 209.001C345.907 209.916 345.84 210.845 345.767 211.768L345.766 211.779L345.764 211.792C345.731 211.991 345.697 212.193 345.656 212.403C345.602 212.708 345.544 213.009 345.487 213.308C345.276 214.418 345.069 215.501 345.033 216.616C345.014 217.377 345.082 218.095 345.325 218.721C345.919 219.247 346.549 219.698 347.281 220.009C348.677 220.598 350.333 220.629 351.884 220.549C353.339 220.469 354.84 220.297 356.202 219.848L356.203 219.847L356.204 219.847C356.718 219.682 357.426 219.315 357.977 218.836C358.069 218.588 358.135 218.31 358.164 217.987L358.164 217.984L358.165 217.981C358.289 216.887 357.818 215.512 357.221 214.552L357.22 214.55L357.219 214.549C357.198 214.513 357.175 214.476 357.152 214.438C357.096 214.345 357.037 214.247 356.981 214.15C356.811 213.948 356.629 213.743 356.444 213.534C356.03 213.068 355.599 212.584 355.25 212.062C354.763 211.339 354.445 210.569 354.225 209.738L354.224 209.737L354.224 209.735C354.114 209.302 354.046 208.857 353.98 208.427L353.978 208.42L353.978 208.418C353.965 208.325 353.963 208.188 353.961 208.056C353.96 208.042 353.96 208.028 353.96 208.014C353.957 207.857 353.953 207.687 353.938 207.523C353.921 207.357 353.894 207.216 353.853 207.112C353.831 207.058 353.81 207.024 353.792 207.004C353.783 207.005 353.776 207.006 353.768 207.007C353.603 207.038 353.46 207.093 353.385 207.165L353.203 207.337L353.019 207.168C352.668 206.842 352.184 206.631 351.652 206.507ZM353.217 206.635C352.799 206.309 352.288 206.107 351.773 205.987C351.186 205.85 350.577 205.816 350.058 205.836L350.058 205.836C349.709 205.851 349.237 205.937 348.79 206.101C348.431 206.234 348.061 206.427 347.787 206.697C347.638 206.603 347.478 206.52 347.304 206.45C347.142 206.384 346.897 206.305 346.649 206.261L346.59 206.251L346.533 206.266C346.152 206.369 345.846 206.604 345.585 206.818L345.511 206.879L345.492 206.972C345.484 207.014 345.484 207.052 345.485 207.077C345.48 207.09 345.474 207.105 345.47 207.123C345.426 207.282 345.437 207.471 345.45 207.615C345.456 207.683 345.463 207.742 345.469 207.795C345.478 207.876 345.485 207.944 345.487 208.006C345.492 208.268 345.473 208.501 345.451 208.766C345.445 208.829 345.44 208.894 345.435 208.961L345.434 208.962L345.434 208.964C345.375 209.874 345.308 210.797 345.235 211.714C345.202 211.911 345.17 212.104 345.131 212.303L345.131 212.305L345.131 212.307C345.078 212.599 345.023 212.892 344.966 213.186C344.753 214.302 344.537 215.438 344.499 216.6L344.499 216.601L344.499 216.602C344.478 217.42 344.552 218.243 344.853 218.98L344.876 219.037L344.922 219.078C345.556 219.644 346.248 220.151 347.073 220.501L347.073 220.501C348.589 221.141 350.352 221.163 351.912 221.083L351.913 221.083C353.383 221.002 354.94 220.827 356.369 220.355C356.962 220.164 357.764 219.746 358.381 219.191L358.428 219.149L358.451 219.091C358.574 218.78 358.66 218.436 358.696 218.038C358.837 216.782 358.307 215.288 357.676 214.272C357.653 214.233 357.629 214.194 357.606 214.155C357.547 214.058 357.489 213.962 357.433 213.865L357.421 213.844L357.406 213.826C357.209 213.59 357.009 213.365 356.811 213.143C356.411 212.693 356.023 212.256 355.693 211.765L355.693 211.764C355.246 211.099 354.949 210.387 354.742 209.602C354.639 209.197 354.574 208.777 354.507 208.341C354.499 208.283 354.497 208.181 354.495 208.027L354.494 208.005C354.492 207.848 354.488 207.659 354.469 207.471C354.451 207.287 354.418 207.087 354.349 206.914C354.281 206.743 354.16 206.558 353.945 206.475L353.877 206.449L353.805 206.461C353.787 206.464 353.767 206.467 353.745 206.47L353.744 206.47C353.723 206.474 353.7 206.477 353.678 206.481L353.675 206.481L353.673 206.482C353.54 206.506 353.371 206.551 353.217 206.635ZM345.505 207.031C345.505 207.031 345.505 207.031 345.505 207.031V207.031Z" fill="#2C2C2C"/>
<path fill-rule="evenodd" clip-rule="evenodd" d="M324.931 48.9799V49.1135H324.397V48.9799H324.931Z" fill="#2C2C2C"/>
<path fill-rule="evenodd" clip-rule="evenodd" d="M327.736 50.4494V50.583H327.202V50.4494H327.736Z" fill="#2C2C2C"/>
<path d="M342.929 49.6609C343.844 49.8546 343.504 50.449 343.504 50.5358C343.504 50.6226 343.844 55.5646 348.259 56.8669C352.673 58.1692 355.318 55.6114 356.086 54.3291C356.854 53.0469 357.495 50.0015 357.682 49.7678C357.876 49.534 358.791 49.1267 358.791 49.1267L358.898 47.9312L357.749 47.5906C357.749 47.5906 354.85 46.2683 350.583 46.2082C346.322 46.1414 343.911 48.5991 343.911 48.5991C342.709 48.2184 341.22 48.165 339.857 48.5991C339.857 48.5991 337.446 46.1481 333.186 46.2082C328.925 46.275 326.02 47.5906 326.02 47.5906L324.871 47.9312L324.978 49.1267C324.978 49.1267 325.893 49.534 326.086 49.7678C326.28 50.0015 326.915 53.0536 327.683 54.3291C328.451 55.6114 331.095 58.1692 335.51 56.8669C339.924 55.5646 340.265 50.6226 340.265 50.5358C340.265 50.449 339.924 49.8546 340.839 49.6609C341.634 49.494 342.135 49.494 342.929 49.6609ZM353.521 55.8451C350.155 57.8687 346.122 55.8251 344.906 53.1604C343.691 50.4957 344.713 49.0866 344.713 49.0866C346.749 45.7741 354.944 45.6338 356.353 49.2135C356.593 49.8145 356.894 53.8216 353.521 55.8451ZM327.409 49.2135C328.818 45.6272 337.019 45.7741 339.049 49.0866C339.049 49.0866 340.071 50.4957 338.856 53.1604C337.64 55.8251 333.613 57.8687 330.24 55.8451C326.874 53.8216 327.175 49.8145 327.409 49.2135Z" fill="#2C2C2C"/>
<path d="M344.993 85.5242H339.864C338.502 85.5242 337.393 86.6328 337.393 87.9952V93.1242C337.393 94.4866 338.502 95.5952 339.864 95.5952H344.993C346.356 95.5952 347.464 94.4866 347.464 93.1242V87.9952C347.464 86.6328 346.362 85.5242 344.993 85.5242ZM336.031 83.3403C335.249 83.3403 334.615 83.9748 334.615 84.7562C334.615 85.5375 335.249 86.172 336.031 86.172C336.812 86.172 337.447 85.5375 337.447 84.7562C337.447 83.9748 336.812 83.3403 336.031 83.3403Z" fill="white"/>
<path d="M344.632 88.5831C344.305 87.7082 343.47 87.1272 342.535 87.1272H341.146L343.891 94.0861H346.836L344.632 88.5831ZM339.023 92.0893L338.221 94.0861H341.146L342.509 90.6334H341.12C340.185 90.6334 339.35 91.2144 339.023 92.0893ZM339.477 88.8569C339.958 88.8569 340.352 88.4629 340.352 87.982C340.352 87.5012 339.958 87.1072 339.477 87.1072C338.996 87.1072 338.602 87.5012 338.602 87.982C338.602 88.4629 338.996 88.8569 339.477 88.8569Z" fill="#50BFD7"/>
</svg>
