<svg width="407" height="218" viewBox="0 0 407 218" fill="none" xmlns="http://www.w3.org/2000/svg">
<path d="M231.053 217.505C231.053 217.505 282.415 219.906 314.904 161.862C347.392 103.818 309.165 50.4243 250.111 38.8867C191.058 27.3491 161.637 -15.9712 109.002 17.1902C56.367 50.3517 85.6167 226.958 231.053 217.505Z" fill="#70CDE0"/>
<path opacity="0.4" d="M231.053 217.505C231.053 217.505 282.415 219.906 314.904 161.862C347.392 103.818 309.165 50.4243 250.111 38.8867C191.058 27.3491 161.637 -15.9712 109.002 17.1902C56.367 50.3517 85.6167 226.958 231.053 217.505Z" fill="white"/>
<path d="M193.7 10.3829V41.3979C193.746 44.0594 194.839 46.5955 196.741 48.4571C198.644 50.3188 201.203 51.3562 203.865 51.3447H315.059C316.395 51.3475 317.718 51.0868 318.954 50.5777C320.189 50.0685 321.312 49.3209 322.258 48.3775C323.204 47.434 323.955 46.3134 324.467 45.0795C324.98 43.8457 325.244 42.523 325.245 41.1869V14.9694L339.089 0.422063L203.879 0C202.526 0.00447314 201.188 0.277588 199.942 0.803498C198.695 1.32941 197.566 2.09763 196.619 3.06358C195.672 4.02953 194.926 5.17395 194.425 6.43042C193.924 7.68689 193.678 9.03038 193.7 10.3829Z" fill="#F5F5F5"/>
<path d="M308.826 18.7961L207.888 18.3247L207.902 15.2225L308.833 15.6938L308.826 18.7961Z" fill="#E0E0E0"/>
<path d="M308.826 29.0032L207.888 28.5319L207.902 25.4297L308.833 25.901L308.826 29.0032Z" fill="#E0E0E0"/>
<path d="M268.892 35.6487L268.877 38.7509L308.811 38.946L308.826 35.8439L268.892 35.6487Z" fill="#E0E0E0"/>
<path d="M148.784 74.0097V98.0466C148.784 100.135 147.954 102.138 146.478 103.615C145.002 105.092 143 105.923 140.912 105.925H54.7254C52.6371 105.923 50.6349 105.092 49.1589 103.615C47.6829 102.138 46.8538 100.135 46.8538 98.0466V77.738L36.1262 66.4828L140.891 66.1241C141.927 66.1213 142.954 66.3233 143.913 66.7185C144.871 67.1137 145.742 67.6944 146.476 68.4271C147.209 69.1598 147.79 70.0301 148.186 70.9882C148.582 71.9462 148.785 72.973 148.784 74.0097Z" fill="#E0E0E0"/>
<path d="M59.5582 80.6994L137.768 80.3406L137.761 77.9348L59.5511 78.2936L59.5582 80.6994Z" fill="#FAFAFA"/>
<path d="M59.5582 88.6064L137.768 88.2476L137.761 85.8418L59.5511 86.2076L59.5582 88.6064Z" fill="#FAFAFA"/>
<path d="M90.4846 93.7692L59.5403 93.9204L59.552 96.3262L90.4964 96.175L90.4846 93.7692Z" fill="#FAFAFA"/>
<path d="M406.267 217.239C406.267 217.345 315.522 217.422 203.589 217.422C91.6564 217.422 0.883423 217.366 0.883423 217.239C0.883423 217.112 91.6283 217.056 203.589 217.056C315.55 217.056 406.267 217.141 406.267 217.239Z" fill="#263238"/>
<path d="M220.086 197.518V177.387H187.689V197.518C187.694 200.968 186.332 204.279 183.901 206.726L176.517 214.177H231.257L223.879 206.726C221.444 204.281 220.08 200.969 220.086 197.518Z" fill="white" stroke="#263238" stroke-width="1.10627" stroke-linecap="round" stroke-linejoin="round"/>
<path opacity="0.44" d="M187.688 177.387V197.518C187.687 199.079 187.404 200.626 186.852 202.086H220.922C220.373 200.625 220.09 199.079 220.086 197.518V177.387H187.688Z" fill="#51C0D7"/>
<path d="M220.086 178.296H187.688V193.232H220.086V178.296Z" fill="#263238" stroke="#263238" stroke-width="1.10627" stroke-miterlimit="10"/>
<path d="M125.318 54.1655H282.462C283.461 54.1648 284.45 54.3612 285.373 54.7434C286.296 55.1256 287.134 55.6862 287.84 56.393C288.546 57.0998 289.105 57.9389 289.486 58.8623C289.867 59.7856 290.062 60.7751 290.059 61.7739V179.087C290.052 181.272 289.177 183.364 287.627 184.905C286.078 186.445 283.98 187.307 281.795 187.301H125.991C123.807 187.301 121.712 186.433 120.167 184.888C118.622 183.344 117.754 181.249 117.754 179.064V61.7458C117.757 59.7392 118.555 57.8154 119.972 56.395C121.389 54.9745 123.311 54.1729 125.318 54.1655Z" fill="#263238" stroke="#263238" stroke-width="1.10627" stroke-miterlimit="10"/>
<path d="M117.726 171.893H290.059V179.064C290.059 181.248 289.192 183.343 287.647 184.888C286.102 186.433 284.007 187.301 281.823 187.301H125.991C123.807 187.301 121.712 186.433 120.167 184.888C118.622 183.343 117.754 181.248 117.754 179.064V171.893H117.726Z" fill="white" stroke="#263238" stroke-width="1.10627" stroke-miterlimit="10"/>
<rect x="126.867" y="62.2751" width="154.759" height="100.593" fill="white"/>
<path d="M224.283 153.149L227.45 151.581L230.544 153.302L230.027 149.802L232.619 147.395L229.129 146.804L227.641 143.594L226.004 146.73L222.494 147.152L224.964 149.681L224.283 153.149Z" fill="#E0E0E0"/>
<path d="M211.36 153.149L214.528 151.581L217.621 153.302L217.104 149.802L219.696 147.395L216.206 146.804L214.718 143.594L213.081 146.73L209.571 147.152L212.041 149.681L211.36 153.149Z" fill="#51C0D7"/>
<path d="M198.437 153.149L201.605 151.581L204.693 153.302L204.181 149.802L206.773 147.395L203.283 146.804L201.795 143.594L200.158 146.73L196.648 147.152L199.118 149.681L198.437 153.149Z" fill="#51C0D7"/>
<path d="M185.515 153.149L188.682 151.581L191.77 153.302L191.258 149.802L193.85 147.395L190.361 146.804L188.872 143.594L187.235 146.73L183.725 147.152L186.196 149.681L185.515 153.149Z" fill="#51C0D7"/>
<path d="M172.591 153.149L175.759 151.581L178.847 153.302L178.335 149.802L180.927 147.395L177.438 146.804L175.949 143.594L174.312 146.73L170.802 147.152L173.272 149.681L172.591 153.149Z" fill="#51C0D7"/>
<path d="M232.766 75.3633C232.766 75.4425 218.587 75.5059 201.093 75.5059C183.598 75.5059 169.419 75.4425 169.419 75.3633C169.419 75.2841 183.593 75.2261 201.093 75.2261C218.592 75.2261 232.766 75.2894 232.766 75.3633Z" fill="#263238"/>
<path d="M217.193 71.5627C217.193 71.6419 210.194 71.7052 201.557 71.7052C192.921 71.7052 185.916 71.6419 185.916 71.5627C185.916 71.4835 192.916 71.4202 201.557 71.4202C210.199 71.4202 217.193 71.4835 217.193 71.5627Z" fill="#263238"/>
<path d="M264.968 81.788C264.968 81.8672 236.636 81.9305 201.689 81.9305C166.742 81.9305 138.405 81.8672 138.405 81.788C138.405 81.7088 166.737 81.6508 201.689 81.6508C236.641 81.6508 264.968 81.7141 264.968 81.788Z" fill="#E0E0E0"/>
<path d="M264.968 84.9288C264.968 85.0027 236.636 85.0661 201.689 85.0661C166.742 85.0661 138.405 85.0027 138.405 84.9288C138.405 84.8549 166.737 84.7863 201.689 84.7863C236.641 84.7863 264.968 84.8496 264.968 84.9288Z" fill="#E0E0E0"/>
<path d="M224.291 96.4577L227.407 99.4596L199.054 126.777L186.591 114.769L189.707 111.767L199.054 120.773L224.291 96.4577ZM224.291 90.3895L199.054 114.705L189.707 105.699L180.293 114.769L199.054 132.845L233.705 99.4596L224.291 90.3895Z" fill="#50BFD7"/>
<path d="M305.6 96.5325C305.6 96.5325 303.581 96.0931 302.805 95.0976C302.023 94.1021 301.563 93.6627 298.83 92.4749C296.118 91.2872 295.04 89.7493 295.04 89.7493C295.04 89.7493 293.146 91.4863 297.306 93.4773C299.853 94.6994 291.484 94.5209 288.964 94.2394C288.964 94.2394 287.509 95.0358 289.919 96.2029C292.328 97.3701 290.008 97.4594 294.78 99.471C299.544 101.489 305.208 102.547 306.362 99.6701C307.515 96.7934 305.6 96.5325 305.6 96.5325Z" fill="white"/>
<path fill-rule="evenodd" clip-rule="evenodd" d="M295.04 89.7493L294.855 89.5469L295.086 89.3353L295.265 89.5912L295.265 89.5914L295.265 89.5914L295.265 89.5915L295.265 89.5917L295.266 89.5932C295.268 89.5952 295.27 89.5986 295.274 89.6034C295.281 89.613 295.292 89.6281 295.308 89.6483C295.34 89.6887 295.389 89.7493 295.457 89.8266C295.593 89.9811 295.805 90.202 296.099 90.4601C296.689 90.9762 297.612 91.6417 298.94 92.2232C300.308 92.8178 301.127 93.2334 301.705 93.6324C302.293 94.0382 302.624 94.422 303.021 94.9279L303.022 94.9284L303.022 94.9288C303.361 95.3642 303.999 95.701 304.593 95.9325C304.884 96.0457 305.152 96.129 305.347 96.184C305.444 96.2115 305.523 96.2317 305.577 96.245C305.604 96.2517 305.625 96.2566 305.639 96.2598C305.644 96.2609 305.648 96.2619 305.651 96.2626C305.657 96.2635 305.664 96.2648 305.672 96.2664C305.691 96.27 305.717 96.2754 305.748 96.2832C305.809 96.2989 305.893 96.3247 305.989 96.3659C306.181 96.4481 306.426 96.595 306.629 96.8526C307.049 97.3856 307.213 98.2865 306.617 99.7723C306.293 100.58 305.653 101.101 304.828 101.395C304.01 101.687 303.003 101.76 301.905 101.68C299.708 101.52 297.07 100.74 294.673 99.7239C292.283 98.7167 291.609 98.1685 291.244 97.686C291.18 97.6012 291.125 97.5165 291.076 97.4426C291.06 97.418 291.044 97.3945 291.03 97.3727C290.968 97.2813 290.908 97.1991 290.826 97.1134C290.661 96.9422 290.387 96.7347 289.799 96.4502C289.18 96.1506 288.781 95.8617 288.543 95.5814C288.299 95.2931 288.219 95.0034 288.268 94.7345C288.314 94.4802 288.467 94.2945 288.586 94.182C288.648 94.1239 288.707 94.0795 288.751 94.0494C288.773 94.0343 288.792 94.0224 288.806 94.0139C288.813 94.0097 288.819 94.0063 288.823 94.0037C288.826 94.0024 288.827 94.0014 288.829 94.0005L288.831 93.9993L288.832 93.9989L288.832 93.9987C288.832 93.9986 288.833 93.9985 288.964 94.2394L288.833 93.9985L288.909 93.9569L288.995 93.9665C290.24 94.1056 292.949 94.2203 295.026 94.1478C296.075 94.1111 296.923 94.0274 297.347 93.8903C297.379 93.8799 297.407 93.8699 297.43 93.8604C297.375 93.8225 297.296 93.7771 297.187 93.725C295.081 92.7171 294.396 91.7216 294.339 90.8853C294.311 90.4744 294.44 90.1407 294.572 89.9139C294.638 89.8003 294.706 89.7114 294.758 89.65C294.784 89.6191 294.807 89.5949 294.823 89.5777C294.832 89.5691 294.839 89.5622 294.844 89.557C294.847 89.5544 294.849 89.5523 294.851 89.5506L294.853 89.5484L294.854 89.5476L294.855 89.5472C294.855 89.547 294.855 89.5469 295.04 89.7493ZM297.52 93.9376C297.52 93.9376 297.52 93.9373 297.52 93.9368C297.52 93.9373 297.52 93.9376 297.52 93.9376ZM289.033 94.5231C289.012 94.539 288.988 94.5589 288.963 94.5822C288.885 94.6555 288.825 94.7418 288.808 94.8326C288.794 94.9086 288.802 95.0369 288.962 95.2262C289.13 95.4235 289.452 95.6718 290.038 95.9558C290.656 96.2549 290.995 96.4962 291.222 96.7329C291.335 96.8511 291.416 96.9625 291.486 97.0663C291.506 97.0969 291.525 97.1256 291.543 97.1532C291.589 97.2227 291.63 97.2854 291.682 97.3546C291.952 97.7115 292.504 98.2137 294.886 99.218L294.887 99.2182C297.254 100.221 299.83 100.978 301.945 101.132C303.003 101.209 303.925 101.134 304.643 100.878C305.354 100.624 305.854 100.199 306.107 99.5679C306.665 98.177 306.447 97.5092 306.198 97.1925C306.066 97.0253 305.904 96.9272 305.773 96.8706C305.707 96.8424 305.651 96.8253 305.612 96.8155C305.593 96.8106 305.578 96.8076 305.57 96.806C305.568 96.8055 305.566 96.8052 305.564 96.805C305.563 96.8047 305.562 96.8046 305.561 96.8045C305.561 96.8044 305.561 96.8043 305.561 96.8044L305.552 96.8032L305.541 96.8009L305.6 96.5325C305.541 96.8009 305.541 96.8009 305.541 96.8008L305.541 96.8008L305.541 96.8007L305.539 96.8004L305.534 96.7992C305.529 96.7982 305.523 96.7968 305.515 96.7949C305.499 96.7912 305.476 96.7857 305.446 96.7784C305.387 96.7638 305.302 96.7419 305.198 96.7127C304.99 96.6542 304.705 96.5654 304.394 96.4443C303.785 96.2073 303.026 95.8268 302.589 95.2669C302.205 94.7776 301.914 94.444 301.393 94.0844C300.862 93.7179 300.085 93.3199 298.721 92.7268L298.72 92.7265C297.336 92.1204 296.365 91.4231 295.737 90.8733C295.424 90.5991 295.197 90.3618 295.046 90.1909C294.953 90.3519 294.869 90.5764 294.887 90.8481C294.923 91.378 295.37 92.2465 297.425 93.2296L297.425 93.2297C297.594 93.3107 297.734 93.3933 297.837 93.4804C297.933 93.5616 298.041 93.683 298.056 93.848C298.073 94.0338 297.965 94.166 297.866 94.2426C297.77 94.3177 297.644 94.3714 297.516 94.4128C297.008 94.5772 296.084 94.6604 295.045 94.6967C292.997 94.7682 290.346 94.6605 289.033 94.5231ZM289.097 94.4796C289.098 94.4795 289.098 94.4795 289.098 94.4795L289.097 94.4796Z" fill="#2C2C2C"/>
<path d="M362.207 112.413C362.207 112.413 356.083 113.133 354.799 113.133C354.785 113.133 354.771 113.133 354.757 113.133C354.751 113.133 354.744 113.133 354.737 113.133C354.73 113.133 354.723 113.133 354.716 113.133C354.703 113.133 354.689 113.133 354.675 113.133C353.384 113.133 347.267 112.413 347.267 112.413C339.104 114.987 339.687 126.899 339.694 127.235C339.749 129.693 339.784 132.158 339.845 134.616C339.99 140.404 341.466 157.739 341.843 163.252C341.871 163.706 341.898 164.083 341.912 164.365C342.53 176.737 343.141 189.108 343.759 201.48C343.814 202.565 343.869 203.657 343.924 204.741C343.924 204.741 346.793 206.526 352.423 204.741L352.471 164.557L354.037 134.698C354.037 134.698 354.325 134.657 354.668 134.623C354.689 134.623 354.709 134.63 354.737 134.63V134.637C354.744 134.637 354.751 134.637 354.757 134.637C354.764 134.637 354.771 134.637 354.778 134.637V134.63C354.799 134.63 354.819 134.623 354.847 134.623C355.19 134.657 355.478 134.698 355.478 134.698L357.044 164.557L357.092 204.741C362.722 206.526 365.591 204.741 365.591 204.741C365.646 203.657 365.701 202.565 365.756 201.48C366.374 189.108 366.978 176.737 367.603 164.365C367.617 164.083 367.637 163.706 367.672 163.252C368.042 157.746 369.525 140.404 369.67 134.616C369.731 132.158 369.766 129.693 369.821 127.235C369.793 126.899 370.37 114.987 362.207 112.413Z" fill="#2C2C2C"/>
<path d="M338.96 80.1304C338.96 80.1304 333.247 107.813 330.645 109.337C328.551 110.566 312.5 105.341 306.403 103.288C304.954 102.808 304.069 102.492 304.069 102.492L305.119 95.3927L308.559 95.8595L325.688 98.187C325.688 98.187 331.462 70.0586 335.609 69.7153C339.763 69.3651 338.96 80.1304 338.96 80.1304Z" fill="#2C2C2C"/>
<path d="M372.526 69.5433C372.526 69.5433 392.786 89.996 394.118 100.219C394.118 100.219 391.035 106 372.478 117.026L370.823 112.296C370.823 112.296 381.183 100.404 384.781 97.3972C384.781 97.3972 368.557 83.9817 368.935 80.1782C369.306 76.3609 370.253 69.7424 372.526 69.5433Z" fill="#2C2C2C"/>
<path d="M380.813 78.1323C380.813 82.5126 377.943 85.2245 373.562 85.2245C369.182 85.2245 365.633 81.675 365.633 77.2947C365.633 72.9144 368.942 68.0811 373.116 69.3924C377.716 70.8273 380.813 73.7521 380.813 78.1323Z" fill="white"/>
<path fill-rule="evenodd" clip-rule="evenodd" d="M368.019 71.3867C366.713 72.9268 365.907 75.1665 365.907 77.2947C365.907 81.5233 369.334 84.9498 373.562 84.9498C375.696 84.9498 377.435 84.2904 378.639 83.1237C379.842 81.9581 380.538 80.2607 380.538 78.1323C380.538 73.9192 377.572 71.07 373.034 69.6545L373.034 69.6543C371.083 69.0414 369.32 69.8515 368.019 71.3867ZM373.198 69.1302C370.975 68.432 368.997 69.383 367.6 71.0316C366.206 72.6754 365.358 75.0425 365.358 77.2947C365.358 81.8266 369.031 85.4991 373.562 85.4991C375.809 85.4991 377.695 84.8026 379.021 83.5182C380.348 82.2328 381.087 80.3841 381.087 78.1323C381.087 73.5848 377.86 70.5846 373.198 69.1302Z" fill="#2C2C2C"/>
<path d="M377.249 76.8554C377.249 80.096 375.128 82.1008 371.887 82.1008C368.647 82.1008 366.024 79.4781 366.024 76.2375C366.024 72.997 368.468 69.42 371.565 70.388C374.956 71.4591 377.249 73.6217 377.249 76.8554Z" fill="#2C2C2C"/>
<path d="M327.604 78.1323C327.604 82.5126 330.474 85.2245 334.854 85.2245C339.234 85.2245 342.784 81.675 342.784 77.2947C342.784 72.9144 339.475 68.0811 335.3 69.3924C330.7 70.8273 327.604 73.7521 327.604 78.1323Z" fill="white"/>
<path fill-rule="evenodd" clip-rule="evenodd" d="M340.817 71.0316C342.21 72.6754 343.059 75.0425 343.059 77.2947C343.059 81.8266 339.386 85.4991 334.854 85.4991C332.607 85.4991 330.721 84.8026 329.395 83.5182C328.069 82.2328 327.329 80.3841 327.329 78.1323C327.329 73.5848 330.556 70.5846 335.218 69.1302C337.442 68.432 339.42 69.383 340.817 71.0316ZM340.398 71.3867C339.097 69.8515 337.334 69.0414 335.383 69.6543L335.382 69.6545C330.845 71.07 327.879 73.9192 327.879 78.1323C327.879 80.2607 328.574 81.9581 329.778 83.1237C330.982 84.2904 332.721 84.9498 334.854 84.9498C339.083 84.9498 342.509 81.5233 342.509 77.2947C342.509 75.1665 341.703 72.9268 340.398 71.3867Z" fill="#2C2C2C"/>
<path d="M331.167 76.8554C331.167 80.096 333.289 82.1008 336.529 82.1008C339.77 82.1008 342.393 79.4781 342.393 76.2375C342.393 72.997 339.948 69.42 336.859 70.388C333.46 71.4591 331.167 73.6217 331.167 76.8554Z" fill="#2C2C2C"/>
<path d="M364.191 113.278C359.234 112.825 354.339 112.639 354.339 112.639C352.54 112.694 348.709 112.852 344.754 113.278C345.908 117.219 349.821 120.123 354.469 120.123C359.124 120.13 363.037 117.212 364.191 113.278Z" fill="#50BFD7"/>
<path d="M363.786 113.689C364.212 112.014 372.732 69.3236 372.732 69.3236C372.732 69.3236 349.993 62.609 335.452 69.3236L344.775 114.06L363.786 113.689Z" fill="white"/>
<path fill-rule="evenodd" clip-rule="evenodd" d="M372.809 69.0602C372.809 69.0603 372.81 69.0604 372.732 69.3237C373.001 69.3775 373.001 69.3776 373.001 69.378L373.001 69.3794L372.905 69.8573C372.843 70.1704 372.751 70.6298 372.634 71.2151C372.4 72.3858 372.066 74.0599 371.663 76.0741C370.858 80.1026 369.779 85.4913 368.688 90.9324C366.506 101.807 364.267 112.91 364.052 113.757L364 113.96L344.553 114.339L335.138 69.166L335.336 69.0744C342.677 65.6846 352.06 65.6921 359.575 66.5328C363.338 66.9539 366.645 67.5853 369.011 68.1114C370.194 68.3745 371.143 68.6114 371.796 68.7827C372.123 68.8683 372.375 68.9376 372.547 68.9855C372.632 69.0094 372.698 69.0281 372.742 69.0407C372.764 69.0471 372.781 69.0519 372.792 69.0552L372.805 69.059L372.808 69.06L372.809 69.0602ZM372.732 69.3237L373.001 69.3775L373.05 69.1314L372.81 69.0604L372.732 69.3237ZM372.413 69.5184C372.408 69.5171 372.404 69.5158 372.399 69.5145C372.23 69.4673 371.98 69.3988 371.657 69.314C371.009 69.1443 370.068 68.909 368.892 68.6476C366.54 68.1246 363.253 67.497 359.514 67.0787C352.093 66.2485 342.936 66.2482 335.765 69.4825L344.997 113.781L363.567 113.419C363.956 111.674 366.075 101.164 368.149 90.8243C369.241 85.3834 370.319 79.9948 371.125 75.9664C371.527 73.9523 371.862 72.2781 372.096 71.1076C372.212 70.5223 372.304 70.0629 372.367 69.7498L372.413 69.5184Z" fill="black"/>
<path d="M363.786 113.689C364.212 112.014 372.732 69.3236 372.732 69.3236C372.732 69.3236 349.993 62.609 335.452 69.3236L344.775 114.06L363.786 113.689Z" fill="white"/>
<path fill-rule="evenodd" clip-rule="evenodd" d="M372.809 69.0602C372.809 69.0603 372.81 69.0604 372.732 69.3237C373.001 69.3775 373.001 69.3776 373.001 69.378L373.001 69.3794L372.905 69.8573C372.843 70.1704 372.751 70.6298 372.634 71.2151C372.4 72.3858 372.066 74.0599 371.663 76.0741C370.858 80.1026 369.779 85.4913 368.688 90.9324C366.506 101.807 364.267 112.91 364.052 113.757L364 113.96L344.553 114.339L335.138 69.166L335.336 69.0744C342.677 65.6846 352.06 65.6921 359.575 66.5328C363.338 66.9539 366.645 67.5853 369.011 68.1114C370.194 68.3745 371.143 68.6114 371.796 68.7827C372.123 68.8683 372.375 68.9376 372.547 68.9855C372.632 69.0094 372.698 69.0281 372.742 69.0407C372.764 69.0471 372.781 69.0519 372.792 69.0552L372.805 69.059L372.808 69.06L372.809 69.0602ZM372.732 69.3237L373.001 69.3775L373.05 69.1314L372.81 69.0604L372.732 69.3237ZM372.413 69.5184C372.408 69.5171 372.404 69.5158 372.399 69.5145C372.23 69.4673 371.98 69.3988 371.657 69.314C371.009 69.1443 370.068 68.909 368.892 68.6476C366.54 68.1246 363.253 67.497 359.514 67.0787C352.093 66.2485 342.936 66.2482 335.765 69.4825L344.997 113.781L363.567 113.419C363.956 111.674 366.075 101.164 368.149 90.8243C369.241 85.3834 370.319 79.9948 371.125 75.9664C371.527 73.9523 371.862 72.2781 372.096 71.1076C372.212 70.5223 372.304 70.0629 372.367 69.7498L372.413 69.5184Z" fill="#2C2C2C"/>
<path d="M367.205 68.0126C360.854 66.7356 350.116 65.2801 340.889 67.4771C341.981 74.3633 343.072 81.2564 344.164 88.1426C345.043 92.8112 349.471 95.9214 354.092 95.9488C358.712 95.9214 363.14 92.8181 364.019 88.1426C365.076 81.428 366.141 74.7203 367.205 68.0126Z" fill="#50BFD7"/>
<path fill-rule="evenodd" clip-rule="evenodd" d="M340.825 67.21C350.113 64.9986 360.9 66.4647 367.259 67.7434L367.518 67.7954L367.476 68.0557C366.412 74.7634 365.348 81.471 364.291 88.1854L364.29 88.1894L364.289 88.1934C363.382 93.0188 358.823 96.1954 354.093 96.2235L354.092 96.2235L354.09 96.2235C349.36 96.1954 344.801 93.0118 343.894 88.1935L343.893 88.1896L343.893 88.1857C343.347 84.7429 342.801 81.2984 342.255 77.8539L342.255 77.8529C341.709 74.4081 341.164 70.9633 340.618 67.5202L340.578 67.2689L340.825 67.21ZM341.2 67.6863C341.733 71.0451 342.265 74.4055 342.798 77.7659L342.798 77.7669C343.343 81.2104 343.889 84.6539 344.435 88.0957C345.287 92.612 349.582 95.6467 354.092 95.6742C358.601 95.6467 362.896 92.6187 363.749 88.0959C364.792 81.4695 365.842 74.8498 366.892 68.2303C360.579 66.9799 350.188 65.6162 341.2 67.6863Z" fill="#2C2C2C"/>
<path d="M353.309 70.4495C355.479 70.4495 358.85 69.7904 358.85 67.6277L358.293 60.4051L357.806 54.0887C357.806 51.9192 356.048 50.1685 353.886 50.1685C352.801 50.1685 351.826 50.6079 351.112 51.315C350.405 52.0222 349.959 53.004 349.959 54.0887L349.478 60.412L349.018 66.4743C348.393 70.1337 353.309 70.4495 353.309 70.4495Z" fill="#2C2C2C"/>
<path d="M364.678 15.0442C361.809 11.5153 357.799 9.38696 352.65 9.38696C340.992 9.38696 329.602 20.1385 329.602 33.5402C329.602 46.9419 339.049 57.8102 350.707 57.8102C351.826 57.8102 352.911 57.7072 353.961 57.5218C354.071 58.1123 354.133 58.7164 354.133 59.3412C354.133 59.451 354.126 59.5678 354.126 59.6776C386.25 51.8783 380.991 13.0601 364.678 15.0442Z" fill="#2C2C2C"/>
<path d="M337.642 49.599C340.087 49.599 342.07 47.6163 342.07 45.1706C342.07 42.7249 340.087 40.7423 337.642 40.7423C335.196 40.7423 333.213 42.7249 333.213 45.1706C333.213 47.6163 335.196 49.599 337.642 49.599Z" fill="white"/>
<path fill-rule="evenodd" clip-rule="evenodd" d="M337.641 41.0169C335.347 41.0169 333.488 42.8766 333.488 45.1706C333.488 47.4646 335.347 49.3243 337.641 49.3243C339.935 49.3243 341.795 47.4646 341.795 45.1706C341.795 42.8766 339.935 41.0169 337.641 41.0169ZM332.938 45.1706C332.938 42.5732 335.044 40.4677 337.641 40.4677C340.239 40.4677 342.344 42.5732 342.344 45.1706C342.344 47.768 340.239 49.8735 337.641 49.8735C335.044 49.8735 332.938 47.768 332.938 45.1706Z" fill="#2C2C2C"/>
<path d="M368.825 49.599C371.271 49.599 373.253 47.6163 373.253 45.1706C373.253 42.7249 371.271 40.7423 368.825 40.7423C366.379 40.7423 364.397 42.7249 364.397 45.1706C364.397 47.6163 366.379 49.599 368.825 49.599Z" fill="white"/>
<path fill-rule="evenodd" clip-rule="evenodd" d="M368.825 41.0169C366.531 41.0169 364.672 42.8766 364.672 45.1706C364.672 47.4646 366.531 49.3243 368.825 49.3243C371.119 49.3243 372.979 47.4646 372.979 45.1706C372.979 42.8766 371.119 41.0169 368.825 41.0169ZM364.122 45.1706C364.122 42.5732 366.228 40.4677 368.825 40.4677C371.423 40.4677 373.528 42.5732 373.528 45.1706C373.528 47.768 371.423 49.8735 368.825 49.8735C366.228 49.8735 364.122 47.768 364.122 45.1706Z" fill="#2C2C2C"/>
<path d="M353.652 63.6461C363.158 63.6461 370.864 52.737 370.864 39.28C370.864 25.823 363.158 14.9139 353.652 14.9139C344.146 14.9139 336.44 25.823 336.44 39.28C336.44 52.737 344.146 63.6461 353.652 63.6461Z" fill="white"/>
<path fill-rule="evenodd" clip-rule="evenodd" d="M341.706 22.209C338.627 26.5668 336.715 32.6014 336.715 39.28C336.715 45.9585 338.627 51.9931 341.706 56.351C344.785 60.7095 349.012 63.3714 353.652 63.3714C358.292 63.3714 362.52 60.7095 365.599 56.351C368.677 51.9931 370.59 45.9585 370.59 39.28C370.59 32.6014 368.677 26.5668 365.599 22.209C362.52 17.8505 358.292 15.1885 353.652 15.1885C349.012 15.1885 344.785 17.8505 341.706 22.209ZM341.257 21.8921C344.408 17.4318 348.786 14.6393 353.652 14.6393C358.518 14.6393 362.897 17.4318 366.047 21.8921C369.199 26.3531 371.139 32.5015 371.139 39.28C371.139 46.0585 369.199 52.2069 366.047 56.6679C362.897 61.1281 358.518 63.9207 353.652 63.9207C348.786 63.9207 344.408 61.1281 341.257 56.6679C338.106 52.2069 336.166 46.0585 336.166 39.28C336.166 32.5015 338.106 26.3531 341.257 21.8921Z" fill="#2C2C2C"/>
<path d="M333.927 33.8768C333.927 33.8768 348.578 34.5908 353.46 25.7754C353.46 25.7754 364.06 34.9478 374.18 34.2338L373.226 30.1831L369.299 22.4387L366.917 19.5826L362.035 14.4608L355.485 11.7214L347.624 12.7925L337.14 19.9396L335.829 24.7043L333.927 33.8768Z" fill="#2C2C2C"/>
<path d="M354.071 48.8026C354.078 48.8438 353.989 48.9193 353.789 48.9193C353.597 48.9261 353.302 48.8369 353.041 48.5897C352.911 48.4662 352.794 48.3151 352.705 48.1229C352.691 48.0954 352.684 48.0679 352.67 48.0405L352.657 47.9993L352.643 47.965L352.622 47.9032C352.615 47.8757 352.609 47.8414 352.595 47.8139C352.567 47.7109 352.547 47.6011 352.54 47.4844C352.499 47.0312 352.588 46.5712 352.698 46.1318C353.123 44.3742 353.625 42.9943 353.81 43.0354C353.995 43.0835 353.803 44.539 353.378 46.2966C353.268 46.7291 353.185 47.1205 353.185 47.45C353.185 47.5324 353.192 47.6148 353.199 47.6903L353.206 47.7178V47.7315V47.7384V47.7453C353.206 47.7453 353.199 47.7247 353.206 47.7315L353.22 47.8002L353.226 47.8345L353.233 47.8551L353.247 47.8963C353.288 48.0267 353.35 48.1503 353.419 48.2465C353.556 48.4456 353.721 48.5691 353.851 48.6378C353.975 48.727 354.064 48.7545 354.071 48.8026Z" fill="#2C2C2C"/>
<path d="M349.176 40.5706C349.176 42.5273 347.48 44.1133 345.393 44.1133C343.299 44.1133 341.61 42.5273 341.61 40.5706C341.61 38.6139 343.306 37.028 345.393 37.028C347.473 37.028 349.176 38.6139 349.176 40.5706Z" fill="white"/>
<path fill-rule="evenodd" clip-rule="evenodd" d="M345.393 37.3025C343.44 37.3025 341.884 38.7824 341.884 40.5706C341.884 42.3591 343.433 43.8386 345.393 43.8386C347.346 43.8386 348.901 42.3588 348.901 40.5706C348.901 38.7827 347.339 37.3025 345.393 37.3025ZM341.335 40.5706C341.335 38.4454 343.171 36.7533 345.393 36.7533C347.607 36.7533 349.45 38.4451 349.45 40.5706C349.45 42.6958 347.614 44.3879 345.393 44.3879C343.164 44.3879 341.335 42.6954 341.335 40.5706Z" fill="#2C2C2C"/>
<path d="M343.532 40.3512C343.532 41.9646 344.583 43.2759 345.874 43.2759C347.164 43.2759 348.215 41.9646 348.215 40.3512C348.215 38.7378 347.164 37.4264 345.874 37.4264C344.583 37.4196 343.532 38.7309 343.532 40.3512Z" fill="#50BFD7"/>
<path d="M344.212 40.351C344.212 41.4976 344.954 42.4244 345.874 42.4244C346.794 42.4244 347.535 41.4976 347.535 40.351C347.535 39.2045 346.794 38.2708 345.874 38.2708C344.954 38.2708 344.212 39.1976 344.212 40.351Z" fill="#2C2C2C"/>
<path d="M344.109 38.3806C344.109 38.6964 344.493 38.9436 344.967 38.9436C345.441 38.9436 345.825 38.6896 345.825 38.3806C345.825 38.0648 345.441 37.8176 344.967 37.8176C344.493 37.8108 344.109 38.0648 344.109 38.3806Z" fill="white"/>
<path d="M350.254 35.1536C350.254 35.1536 345.146 30.0593 339.653 36.108C339.653 36.108 344.404 33.0665 350.254 35.1536Z" fill="#2C2C2C"/>
<path d="M365.633 40.5706C365.633 42.5273 363.937 44.1133 361.85 44.1133C359.756 44.1133 358.067 42.5273 358.067 40.5706C358.067 38.6139 359.763 37.028 361.85 37.028C363.937 37.028 365.633 38.6139 365.633 40.5706Z" fill="white"/>
<path fill-rule="evenodd" clip-rule="evenodd" d="M361.85 37.3025C359.897 37.3025 358.341 38.7824 358.341 40.5706C358.341 42.3591 359.89 43.8386 361.85 43.8386C363.803 43.8386 365.358 42.3588 365.358 40.5706C365.358 38.7824 363.803 37.3025 361.85 37.3025ZM357.792 40.5706C357.792 38.4454 359.628 36.7533 361.85 36.7533C364.071 36.7533 365.907 38.4454 365.907 40.5706C365.907 42.6958 364.071 44.3879 361.85 44.3879C359.621 44.3879 357.792 42.6954 357.792 40.5706Z" fill="#2C2C2C"/>
<path d="M359.996 40.3512C359.996 41.9646 361.047 43.2759 362.337 43.2759C363.628 43.2759 364.678 41.9646 364.678 40.3512C364.678 38.7378 363.628 37.4264 362.337 37.4264C361.04 37.4196 359.996 38.7309 359.996 40.3512Z" fill="#50BFD7"/>
<path d="M360.669 40.351C360.669 41.4976 361.41 42.4244 362.33 42.4244C363.25 42.4244 363.992 41.4976 363.992 40.351C363.992 39.2045 363.25 38.2708 362.33 38.2708C361.417 38.2708 360.669 39.1976 360.669 40.351Z" fill="#2C2C2C"/>
<path d="M360.566 38.3806C360.566 38.6964 360.95 38.9436 361.424 38.9436C361.898 38.9436 362.282 38.6896 362.282 38.3806C362.282 38.0648 361.898 37.8176 361.424 37.8176C360.95 37.8108 360.566 38.0648 360.566 38.3806Z" fill="white"/>
<path d="M366.717 34.5975C366.717 34.5975 361.609 29.5032 356.117 35.5518C356.11 35.5518 360.861 32.5103 366.717 34.5975Z" fill="#2C2C2C"/>
<path d="M348.063 52.6953C348.235 54.0272 348.88 55.2562 349.89 56.1487C350.899 57.0412 352.197 57.5287 353.542 57.5287C354.888 57.5287 356.186 57.0412 357.195 56.1487C358.204 55.2562 358.856 54.0341 359.021 52.6953H348.063Z" fill="white"/>
<path fill-rule="evenodd" clip-rule="evenodd" d="M347.751 52.4207H359.332L359.294 52.7288C359.121 54.1353 358.435 55.4182 357.377 56.3544C356.317 57.2917 354.954 57.8033 353.542 57.8033C352.13 57.8033 350.768 57.2917 349.708 56.3544C348.648 55.4174 347.971 54.1276 347.791 52.7304L347.751 52.4207ZM348.385 52.9699C348.602 54.1164 349.191 55.1645 350.072 55.943C351.03 56.7908 352.263 57.254 353.542 57.254C354.821 57.254 356.054 56.7908 357.013 55.943C357.895 55.1632 358.489 54.1199 358.701 52.9699H348.385Z" fill="#2C2C2C"/>
<path d="M358.808 116.25C358.808 116.422 358.959 116.621 359.138 116.6C361.163 116.388 362.715 114.822 364.713 115.152C362.708 116.147 360.971 117.877 361.218 120.425C361.246 120.74 361.548 120.864 361.781 120.672C363.216 119.45 364.864 118.358 366.786 118.763C367.61 118.935 368.578 119.257 369.429 119.148C370.7 118.99 371.771 118.413 372.402 117.184C373.515 115.056 373.103 112.502 370.61 111.973C370.549 111.959 370.501 111.966 370.446 111.987C369.526 111.623 368.688 111.163 367.947 110.36C367.232 109.577 366.567 108.712 365.791 107.991C364.754 107.023 363.628 106.261 362.255 106.913C362.049 107.009 362.063 107.304 362.193 107.462C362.797 108.211 363.504 108.925 364.246 109.611C363.504 109.44 362.756 109.35 361.987 109.412C360.614 109.529 358.994 110.442 359.028 112.076C359.035 112.282 359.179 112.406 359.358 112.426C360.621 112.557 361.891 112.536 363.147 112.666C361.191 113.243 358.788 113.902 358.808 116.25Z" fill="white"/>
<path fill-rule="evenodd" clip-rule="evenodd" d="M364.25 106.589C364.883 106.839 365.454 107.301 365.978 107.79C366.503 108.278 366.987 108.84 367.457 109.386C367.69 109.656 367.92 109.923 368.149 110.174C368.831 110.912 369.6 111.349 370.464 111.698C370.526 111.688 370.594 111.688 370.668 111.705C372.013 111.99 372.819 112.835 373.122 113.904C373.421 114.956 373.227 116.199 372.646 117.31C371.964 118.636 370.803 119.253 369.464 119.42C368.995 119.48 368.506 119.421 368.045 119.33C367.813 119.285 367.583 119.231 367.363 119.178C367.34 119.173 367.317 119.167 367.293 119.161C367.097 119.114 366.91 119.069 366.73 119.032L366.73 119.032C364.947 118.656 363.393 119.66 361.959 120.881L361.957 120.882L361.956 120.884C361.769 121.038 361.527 121.082 361.314 120.991C361.101 120.9 360.966 120.694 360.945 120.45C360.721 118.14 362.036 116.482 363.695 115.413C363.143 115.488 362.606 115.688 362.043 115.926C361.917 115.979 361.791 116.034 361.662 116.089C360.9 116.421 360.078 116.778 359.168 116.873C358.962 116.896 358.798 116.791 358.699 116.678C358.601 116.566 358.534 116.411 358.534 116.252C358.523 114.958 359.19 114.128 360.09 113.562C360.565 113.263 361.111 113.033 361.666 112.839C361.525 112.833 361.385 112.827 361.243 112.821L361.237 112.82C360.608 112.793 359.969 112.765 359.329 112.699L359.328 112.699L359.326 112.699C359.033 112.665 358.766 112.446 358.754 112.085L358.753 112.083L358.753 112.082C358.734 111.161 359.185 110.447 359.811 109.959C360.431 109.474 361.232 109.201 361.964 109.138L361.964 109.138L361.965 109.138C362.45 109.099 362.925 109.118 363.393 109.178C362.889 108.681 362.41 108.168 361.98 107.636C361.87 107.501 361.814 107.32 361.824 107.149C361.834 106.972 361.92 106.767 362.138 106.665C362.899 106.303 363.603 106.334 364.25 106.589ZM362.375 107.16C362.374 107.163 362.373 107.17 362.372 107.18C362.371 107.197 362.373 107.218 362.38 107.24C362.387 107.262 362.397 107.278 362.405 107.287L362.406 107.289L362.407 107.29C362.999 108.024 363.696 108.728 364.432 109.41L365.191 110.112L364.184 109.879C363.462 109.712 362.743 109.627 362.01 109.686C361.369 109.74 360.673 109.982 360.149 110.391C359.63 110.797 359.288 111.356 359.303 112.068C359.304 112.104 359.315 112.119 359.323 112.126C359.332 112.136 359.352 112.149 359.388 112.153C360.009 112.217 360.634 112.244 361.267 112.272L361.269 112.272C361.9 112.299 362.539 112.327 363.176 112.393L364.558 112.537L363.225 112.93C363.191 112.94 363.157 112.95 363.122 112.96C362.163 113.243 361.159 113.538 360.383 114.027C359.597 114.521 359.074 115.194 359.083 116.248L359.083 116.249V116.25C359.083 116.254 359.084 116.264 359.09 116.279C359.096 116.293 359.104 116.306 359.113 116.317C359.117 116.321 359.12 116.324 359.122 116.326C359.937 116.238 360.669 115.921 361.431 115.591C361.562 115.534 361.695 115.476 361.829 115.42C362.724 115.041 363.675 114.702 364.757 114.881L365.597 115.019L364.835 115.398C362.873 116.372 361.261 118.018 361.492 120.398L361.492 120.399L361.492 120.401C361.495 120.438 361.505 120.459 361.512 120.47C361.52 120.48 361.526 120.484 361.531 120.486C361.535 120.488 361.542 120.49 361.552 120.488C361.563 120.486 361.581 120.48 361.605 120.461C363.041 119.239 364.781 118.06 366.842 118.494C367.031 118.534 367.226 118.58 367.421 118.627C367.445 118.633 367.468 118.638 367.491 118.644C367.711 118.697 367.931 118.748 368.15 118.791C368.592 118.878 369.012 118.924 369.394 118.875L369.395 118.875L369.396 118.875C370.597 118.726 371.577 118.189 372.158 117.058L372.158 117.058L372.159 117.057C372.69 116.04 372.846 114.942 372.594 114.054C372.346 113.181 371.7 112.485 370.553 112.242L370.552 112.241L370.551 112.241C370.551 112.241 370.55 112.241 370.55 112.241C370.548 112.242 370.546 112.242 370.542 112.244L370.443 112.281L370.345 112.242C369.402 111.869 368.524 111.39 367.745 110.546L367.744 110.545L367.744 110.545C367.491 110.268 367.251 109.988 367.012 109.712C366.555 109.181 366.107 108.66 365.604 108.192L365.603 108.192C365.09 107.713 364.581 107.31 364.048 107.1C363.53 106.895 362.986 106.871 362.375 107.16Z" fill="#2C2C2C"/>
<path d="M340.539 212.493C340.539 212.493 340.944 213.777 341.061 213.976C341.184 214.175 344.335 215.26 348.18 215.177C352.176 215.095 354.002 213.935 354.057 212.486H340.539V212.493Z" fill="#50BFD7"/>
<path fill-rule="evenodd" clip-rule="evenodd" d="M340.264 212.211H354.343L354.332 212.496C354.299 213.354 353.738 214.08 352.72 214.59C351.705 215.097 350.204 215.41 348.186 215.452M340.264 212.211V212.486V212.211ZM340.539 212.493L340.277 212.575L340.264 212.535V212.486M340.539 212.493C340.277 212.575 340.277 212.575 340.277 212.575L340.282 212.59C340.285 212.6 340.289 212.614 340.295 212.632C340.306 212.667 340.323 212.719 340.343 212.781C340.383 212.905 340.437 213.073 340.496 213.247C340.554 213.421 340.617 213.603 340.672 213.755C340.724 213.896 340.78 214.039 340.824 214.115L340.826 214.118L340.827 214.121C340.855 214.165 340.889 214.195 340.908 214.21C340.93 214.228 340.954 214.244 340.975 214.257C341.019 214.284 341.072 214.311 341.13 214.337C341.246 214.391 341.404 214.453 341.595 214.519C341.979 214.651 342.515 214.805 343.166 214.95C344.466 215.24 346.238 215.494 348.186 215.452M340.914 212.761H353.743C353.624 213.25 353.234 213.718 352.474 214.098C351.562 214.554 350.153 214.862 348.175 214.903L348.175 214.903C346.278 214.943 344.552 214.696 343.285 214.414C342.651 214.273 342.136 214.124 341.774 213.999C341.593 213.937 341.454 213.882 341.359 213.838C341.324 213.822 341.298 213.809 341.279 213.799C341.273 213.785 341.267 213.769 341.259 213.751C341.239 213.701 341.214 213.638 341.188 213.566C341.135 213.421 341.074 213.244 341.017 213.072C340.98 212.963 340.945 212.856 340.914 212.761Z" fill="#2C2C2C"/>
<path d="M340.539 212.767C341.143 213.31 341.933 213.722 342.509 213.907C343.944 214.381 345.517 214.559 347.02 214.642C348.62 214.724 350.377 214.697 351.874 214.065C352.684 213.722 353.371 213.221 354.009 212.651C354.298 211.944 354.373 211.14 354.353 210.316C354.305 208.833 353.968 207.398 353.707 205.943C353.666 205.73 353.632 205.524 353.597 205.318C353.522 204.371 353.453 203.416 353.391 202.476C353.371 202.126 353.33 201.817 353.337 201.467C353.343 201.233 353.426 200.856 353.364 200.636C353.357 200.608 353.343 200.588 353.337 200.567C353.337 200.533 353.343 200.499 353.337 200.464C353.069 200.245 352.787 200.039 352.465 199.949C352.231 199.99 351.998 200.066 351.847 200.128C351.606 200.224 351.394 200.347 351.201 200.492C350.728 199.846 349.56 199.544 348.901 199.517C347.871 199.476 346.498 199.654 345.681 200.409C345.544 200.279 345.331 200.21 345.146 200.176C345.105 200.169 345.057 200.162 345.015 200.155C344.535 200.341 344.658 201.522 344.61 201.858C344.542 202.304 344.473 202.75 344.363 203.183C344.143 204.014 343.828 204.776 343.347 205.49C342.832 206.259 342.159 206.925 341.569 207.632C341.486 207.776 341.397 207.92 341.315 208.058C340.683 209.074 340.168 210.55 340.306 211.758C340.347 212.143 340.429 212.472 340.539 212.767Z" fill="#50BFD7"/>
<path fill-rule="evenodd" clip-rule="evenodd" d="M347.149 199.397C347.752 199.256 348.379 199.221 348.912 199.242L348.913 199.242C349.271 199.257 349.756 199.346 350.216 199.515C350.585 199.651 350.965 199.849 351.247 200.127C351.4 200.03 351.565 199.945 351.744 199.873C351.91 199.805 352.162 199.724 352.417 199.679L352.478 199.668L352.538 199.685C352.921 199.791 353.241 200.03 353.511 200.252L353.587 200.314L353.606 200.41C353.614 200.453 353.615 200.492 353.614 200.517C353.619 200.531 353.625 200.547 353.629 200.565C353.674 200.729 353.663 200.923 353.649 201.071C353.643 201.14 353.636 201.201 353.63 201.256C353.621 201.339 353.613 201.409 353.611 201.473C353.607 201.698 353.623 201.895 353.64 202.114C353.649 202.222 353.658 202.335 353.665 202.459C353.727 203.394 353.795 204.343 353.87 205.285C353.904 205.487 353.937 205.686 353.977 205.891L353.977 205.893L353.978 205.894C354.031 206.194 354.089 206.496 354.147 206.799C354.365 207.946 354.588 209.113 354.627 210.307L354.627 210.308L354.627 210.309C354.648 211.151 354.572 211.997 354.264 212.754L354.24 212.813L354.192 212.856C353.541 213.437 352.829 213.959 351.981 214.318L351.981 214.318C350.423 214.976 348.61 214.999 347.006 214.916L347.005 214.916C345.494 214.833 343.893 214.653 342.424 214.168C341.814 213.972 340.991 213.542 340.356 212.972L340.305 212.927L340.282 212.863C340.164 212.547 340.076 212.195 340.033 211.788C339.886 210.497 340.431 208.959 341.08 207.914C341.105 207.874 341.129 207.834 341.153 207.794C341.213 207.694 341.273 207.596 341.33 207.496L341.342 207.475L341.358 207.456C341.561 207.213 341.767 206.982 341.969 206.754C342.381 206.291 342.78 205.842 343.119 205.337L343.119 205.336C343.579 204.653 343.884 203.921 344.097 203.114C344.203 202.697 344.27 202.265 344.339 201.818C344.347 201.758 344.349 201.653 344.351 201.494L344.352 201.471C344.354 201.311 344.358 201.116 344.377 200.923C344.396 200.733 344.43 200.528 344.501 200.35C344.571 200.175 344.695 199.985 344.917 199.899L344.986 199.872L345.06 199.884C345.079 199.887 345.1 199.891 345.122 199.894L345.123 199.894C345.145 199.898 345.169 199.901 345.191 199.905L345.193 199.905L345.196 199.906C345.333 199.931 345.506 199.977 345.665 200.063C346.094 199.728 346.62 199.52 347.149 199.397ZM347.274 199.932C346.727 200.059 346.229 200.277 345.868 200.611L345.679 200.786L345.492 200.608C345.414 200.535 345.268 200.478 345.098 200.446C345.09 200.445 345.082 200.444 345.074 200.442C345.055 200.463 345.034 200.498 345.011 200.554C344.969 200.661 344.941 200.806 344.924 200.977C344.908 201.145 344.904 201.319 344.901 201.481C344.901 201.495 344.9 201.51 344.9 201.524C344.898 201.66 344.896 201.801 344.882 201.897L344.882 201.898L344.881 201.906C344.813 202.348 344.742 202.805 344.629 203.251L344.629 203.252L344.629 203.253C344.403 204.107 344.076 204.899 343.575 205.643C343.216 206.179 342.773 206.677 342.348 207.156C342.157 207.37 341.97 207.581 341.795 207.79C341.738 207.889 341.677 207.99 341.619 208.085C341.595 208.124 341.572 208.162 341.55 208.199L341.549 208.201L341.548 208.203C340.935 209.189 340.451 210.603 340.578 211.727L340.578 211.728L340.579 211.729C340.614 212.063 340.683 212.35 340.773 212.608C341.339 213.1 342.066 213.476 342.593 213.646L342.594 213.646L342.595 213.646C343.996 214.109 345.539 214.285 347.035 214.367C348.629 214.45 350.332 214.418 351.767 213.812C352.52 213.493 353.167 213.029 353.778 212.489C354.027 211.845 354.098 211.106 354.078 210.324C354.041 209.178 353.829 208.065 353.611 206.924C353.552 206.616 353.493 206.306 353.437 205.993C353.396 205.778 353.361 205.57 353.327 205.366L353.325 205.352L353.324 205.34C353.248 204.391 353.179 203.436 353.117 202.494L353.117 202.493L353.117 202.492C353.111 202.393 353.103 202.293 353.095 202.19C353.076 201.957 353.057 201.714 353.062 201.461L353.062 201.46L353.062 201.458C353.064 201.374 353.077 201.262 353.088 201.16C353.093 201.11 353.099 201.062 353.102 201.021C353.116 200.87 353.115 200.769 353.1 200.713C353.1 200.711 353.099 200.71 353.098 200.707C353.096 200.704 353.094 200.7 353.092 200.695C353.088 200.686 353.082 200.672 353.076 200.654L353.062 200.612V200.596C352.854 200.432 352.657 200.301 352.449 200.232C352.259 200.271 352.073 200.332 351.951 200.382L351.95 200.382L351.949 200.383C351.732 200.469 351.54 200.581 351.366 200.711L351.144 200.878L350.98 200.654C350.79 200.395 350.439 200.182 350.026 200.03C349.619 199.88 349.19 199.804 348.89 199.791C348.394 199.771 347.819 199.805 347.274 199.932Z" fill="#2C2C2C"/>
<path d="M370.301 212.493C370.301 212.493 369.903 213.777 369.779 213.976C369.656 214.175 366.505 215.26 362.66 215.177C358.664 215.095 356.838 213.935 356.783 212.486H370.301V212.493Z" fill="#50BFD7"/>
<path fill-rule="evenodd" clip-rule="evenodd" d="M356.498 212.211H370.576V212.534L370.564 212.574L370.301 212.493C370.564 212.574 370.564 212.574 370.564 212.574L370.564 212.574L370.564 212.574L370.559 212.589C370.556 212.599 370.552 212.613 370.546 212.631C370.535 212.666 370.519 212.718 370.499 212.78C370.46 212.904 370.405 213.072 370.347 213.246C370.29 213.42 370.227 213.603 370.171 213.755C370.119 213.895 370.062 214.042 370.013 214.121C369.986 214.165 369.952 214.195 369.933 214.21C369.91 214.228 369.887 214.244 369.865 214.257C369.821 214.284 369.769 214.311 369.711 214.337C369.594 214.391 369.437 214.453 369.245 214.519C368.861 214.651 368.325 214.805 367.675 214.95C366.374 215.24 364.603 215.494 362.654 215.452M369.928 212.761H357.097C357.216 213.25 357.606 213.718 358.367 214.098C359.278 214.554 360.688 214.862 362.666 214.903L362.666 214.903C364.562 214.943 366.289 214.696 367.556 214.414C368.189 214.273 368.705 214.124 369.066 213.999C369.248 213.937 369.387 213.882 369.481 213.838C369.517 213.822 369.544 213.808 369.563 213.798C369.569 213.784 369.576 213.768 369.584 213.749C369.605 213.7 369.629 213.637 369.656 213.565C369.709 213.421 369.769 213.245 369.826 213.073C369.863 212.963 369.898 212.856 369.928 212.761ZM356.498 212.211L356.509 212.496L356.498 212.211ZM356.509 212.496C356.541 213.354 357.102 214.08 358.121 214.59L356.509 212.496ZM358.121 214.59C359.135 215.097 360.636 215.41 362.654 215.452L358.121 214.59Z" fill="#2C2C2C"/>
<path d="M370.301 212.767C369.697 213.31 368.908 213.722 368.331 213.907C366.896 214.381 365.324 214.559 363.82 214.642C362.22 214.724 360.463 214.697 358.966 214.065C358.156 213.722 357.469 213.221 356.831 212.651C356.543 211.944 356.467 211.14 356.488 210.316C356.536 208.833 356.872 207.398 357.133 205.943C357.174 205.73 357.209 205.524 357.243 205.318C357.318 204.371 357.387 203.416 357.449 202.476C357.476 202.126 357.511 201.817 357.504 201.467C357.497 201.233 357.415 200.856 357.476 200.636C357.483 200.608 357.497 200.588 357.504 200.567C357.504 200.533 357.497 200.499 357.504 200.464C357.772 200.245 358.046 200.039 358.376 199.949C358.609 199.99 358.843 200.066 358.994 200.128C359.234 200.224 359.447 200.347 359.639 200.492C360.113 199.846 361.28 199.544 361.939 199.517C362.969 199.476 364.342 199.654 365.159 200.409C365.296 200.279 365.509 200.21 365.694 200.176C365.736 200.169 365.784 200.162 365.825 200.155C366.306 200.341 366.182 201.522 366.23 201.858C366.299 202.304 366.367 202.75 366.477 203.183C366.697 204.014 367.013 204.776 367.493 205.49C368.008 206.259 368.681 206.925 369.271 207.632C369.354 207.776 369.443 207.92 369.525 208.058C370.157 209.074 370.672 210.55 370.535 211.758C370.494 212.143 370.418 212.472 370.301 212.767Z" fill="#50BFD7"/>
<path fill-rule="evenodd" clip-rule="evenodd" d="M363.566 199.932C363.022 199.805 362.446 199.771 361.95 199.791C361.65 199.804 361.221 199.88 360.814 200.03C360.401 200.182 360.05 200.395 359.86 200.654L359.696 200.878L359.474 200.711C359.3 200.581 359.108 200.469 358.892 200.383L358.891 200.382L358.89 200.382C358.767 200.332 358.58 200.27 358.39 200.232C358.179 200.301 357.987 200.43 357.778 200.595V200.612L357.764 200.654C357.758 200.672 357.752 200.686 357.748 200.695C357.746 200.7 357.744 200.704 357.743 200.707C357.742 200.708 357.742 200.709 357.741 200.71C357.741 200.711 357.74 200.712 357.74 200.713C357.725 200.769 357.724 200.87 357.738 201.021C357.742 201.062 357.747 201.11 357.752 201.16C357.764 201.262 357.776 201.374 357.778 201.458L357.778 201.46L357.778 201.461C357.784 201.761 357.761 202.035 357.738 202.31C357.733 202.372 357.728 202.434 357.723 202.496C357.661 203.437 357.592 204.392 357.517 205.34L357.516 205.352L357.513 205.366C357.479 205.57 357.445 205.778 357.403 205.993C357.347 206.306 357.288 206.616 357.229 206.924C357.012 208.065 356.799 209.178 356.762 210.324C356.743 211.106 356.813 211.845 357.062 212.489C357.673 213.029 358.32 213.493 359.073 213.812C360.508 214.418 362.211 214.45 363.806 214.367C365.301 214.285 366.844 214.109 368.245 213.646L368.246 213.646L368.247 213.646C368.775 213.476 369.502 213.099 370.069 212.606C370.162 212.354 370.225 212.067 370.262 211.729L370.262 211.728L370.262 211.727C370.39 210.603 369.906 209.189 369.292 208.203L369.291 208.201L369.29 208.199C369.268 208.162 369.245 208.124 369.221 208.085C369.164 207.99 369.103 207.889 369.045 207.79C368.871 207.581 368.683 207.37 368.493 207.156C368.067 206.677 367.624 206.179 367.265 205.643C366.764 204.899 366.438 204.107 366.212 203.253L366.211 203.252L366.211 203.251C366.098 202.805 366.028 202.348 365.96 201.906L365.958 201.898L365.958 201.897C365.944 201.801 365.942 201.661 365.94 201.524C365.94 201.51 365.94 201.495 365.939 201.481C365.937 201.319 365.933 201.145 365.916 200.977C365.9 200.806 365.872 200.661 365.829 200.554C365.807 200.498 365.785 200.463 365.766 200.442C365.758 200.444 365.75 200.445 365.742 200.446C365.572 200.478 365.426 200.535 365.348 200.608L365.161 200.786L364.973 200.611C364.611 200.277 364.113 200.059 363.566 199.932ZM365.175 200.063C364.746 199.728 364.22 199.52 363.691 199.397C363.088 199.256 362.462 199.221 361.928 199.242L361.928 199.242C361.569 199.257 361.084 199.346 360.625 199.515C360.255 199.651 359.875 199.849 359.593 200.127C359.44 200.03 359.275 199.945 359.097 199.873C358.93 199.805 358.679 199.724 358.423 199.679L358.363 199.668L358.304 199.684C357.912 199.79 357.598 200.032 357.33 200.252L357.254 200.314L357.234 200.41C357.226 200.453 357.226 200.492 357.226 200.517C357.221 200.531 357.216 200.547 357.211 200.565C357.166 200.728 357.177 200.923 357.191 201.071C357.197 201.14 357.204 201.201 357.21 201.256C357.219 201.339 357.227 201.409 357.229 201.473C357.234 201.742 357.214 201.982 357.191 202.254C357.186 202.319 357.18 202.385 357.175 202.454L357.175 202.456L357.175 202.458C357.113 203.393 357.045 204.342 356.97 205.285C356.936 205.487 356.903 205.686 356.863 205.891L356.863 205.893L356.863 205.894C356.809 206.194 356.751 206.496 356.694 206.799C356.475 207.946 356.252 209.113 356.213 210.307L356.213 210.308L356.213 210.309C356.192 211.151 356.268 211.997 356.577 212.754L356.601 212.813L356.648 212.856C357.299 213.437 358.011 213.959 358.859 214.318L358.859 214.318C360.418 214.976 362.23 214.999 363.834 214.916L363.835 214.916C365.347 214.833 366.947 214.653 368.416 214.168C369.026 213.972 369.85 213.542 370.485 212.972L370.533 212.929L370.557 212.868C370.684 212.546 370.764 212.191 370.808 211.788C370.954 210.497 370.409 208.96 369.76 207.914C369.736 207.874 369.712 207.834 369.687 207.795C369.627 207.695 369.567 207.596 369.51 207.496L369.498 207.475L369.482 207.456C369.279 207.213 369.074 206.982 368.871 206.754C368.459 206.291 368.06 205.842 367.721 205.337L367.721 205.336C367.261 204.653 366.956 203.921 366.743 203.114C366.637 202.697 366.57 202.265 366.502 201.818C366.493 201.758 366.492 201.653 366.489 201.494L366.489 201.471C366.486 201.311 366.482 201.116 366.463 200.923C366.444 200.733 366.41 200.528 366.339 200.35C366.269 200.175 366.146 199.985 365.924 199.899L365.854 199.872L365.78 199.884C365.761 199.887 365.741 199.891 365.718 199.894L365.717 199.894C365.695 199.898 365.672 199.901 365.649 199.905L365.647 199.905L365.644 199.906C365.508 199.931 365.334 199.977 365.175 200.063ZM357.247 200.47C357.247 200.47 357.247 200.47 357.247 200.47V200.47Z" fill="#2C2C2C"/>
<path fill-rule="evenodd" clip-rule="evenodd" d="M336.097 37.9893V38.1266H335.548V37.9893H336.097Z" fill="#2C2C2C"/>
<path fill-rule="evenodd" clip-rule="evenodd" d="M338.98 39.4994V39.6367H338.431V39.4994H338.98Z" fill="#2C2C2C"/>
<path d="M354.593 38.6894C355.533 38.8886 355.183 39.4996 355.183 39.5888C355.183 39.6781 355.533 44.7587 360.071 46.0974C364.61 47.4362 367.328 44.8067 368.118 43.4885C368.908 42.1703 369.567 39.0396 369.759 38.7993C369.958 38.559 370.899 38.1402 370.899 38.1402L371.008 36.9113L369.828 36.5611C369.828 36.5611 366.848 35.2017 362.461 35.1399C358.08 35.0713 355.602 37.5978 355.602 37.5978C354.366 37.2065 352.835 37.1515 351.435 37.5978C351.435 37.5978 348.956 35.0781 344.576 35.1399C340.196 35.2086 337.209 36.5611 337.209 36.5611L336.028 36.9113L336.138 38.1402C336.138 38.1402 337.079 38.559 337.278 38.7993C337.477 39.0396 338.129 42.1772 338.919 43.4885C339.708 44.8067 342.427 47.4362 346.965 46.0974C351.503 44.7587 351.853 39.6781 351.853 39.5888C351.853 39.4996 351.503 38.8886 352.444 38.6894C353.268 38.5178 353.776 38.5178 354.593 38.6894ZM365.488 45.047C362.028 47.1273 357.881 45.0264 356.632 42.287C355.382 39.5476 356.433 38.099 356.433 38.099C358.52 34.6937 366.951 34.5495 368.399 38.2295C368.647 38.8474 368.949 42.9667 365.488 45.047ZM338.637 38.2295C340.086 34.5426 348.517 34.6937 350.604 38.099C350.604 38.099 351.654 39.5476 350.405 42.287C349.155 45.0264 345.015 47.1273 341.548 45.047C338.095 42.9667 338.397 38.8474 338.637 38.2295Z" fill="#2C2C2C"/>
<path d="M356.721 75.558H351.448C350.048 75.558 348.908 76.6977 348.908 78.0983V83.3711C348.908 84.7717 350.048 85.9114 351.448 85.9114H356.721C358.122 85.9114 359.261 84.7717 359.261 83.3711V78.0983C359.261 76.6977 358.122 75.558 356.721 75.558ZM347.501 73.313C346.697 73.313 346.045 73.9652 346.045 74.7685C346.045 75.5718 346.697 76.224 347.501 76.224C348.304 76.224 348.956 75.5718 348.956 74.7685C348.956 73.9652 348.304 73.313 347.501 73.313Z" fill="white"/>
<path d="M356.344 78.7021C356.007 77.8027 355.149 77.2054 354.188 77.2054H352.76L355.581 84.3594H358.609L356.344 78.7021ZM350.583 82.3066L349.759 84.3594H352.767L354.167 80.8099H352.739C351.778 80.8099 350.913 81.4072 350.583 82.3066ZM351.05 78.9836C351.544 78.9836 351.95 78.5785 351.95 78.0842C351.95 77.5899 351.544 77.1848 351.05 77.1848C350.556 77.1848 350.151 77.5899 350.151 78.0842C350.151 78.5785 350.549 78.9836 351.05 78.9836Z" fill="#50BFD7"/>
</svg>
