<svg width="455" height="381" viewBox="0 0 455 381" fill="none" xmlns="http://www.w3.org/2000/svg">
<path d="M434.329 189.697C439.082 157.94 434.966 125.801 415.164 98.3767C392.468 66.9887 356.518 44.8077 318.302 38.5148C311.494 37.3862 304.607 36.7926 297.706 36.7395C281.233 36.6275 264.855 39.2375 249.233 44.4641C222.859 53.3721 200.188 68.8912 179.687 87.4135C170.582 95.6343 161.693 106.184 149.635 110.002C137.119 113.998 123.656 108.856 111.458 105.713C88.5961 99.8211 55.0383 87.0954 32.2592 99.1848C2.35365 115.092 -6.55438 150.088 4.8988 177.448C16.352 204.809 51.3478 206.717 55.1655 227.715C58.9833 248.712 77.4356 279.891 117.522 276.709C157.608 273.528 172.879 239.168 198.33 249.349C207.283 252.931 214.314 259.529 221.93 265.199C232.537 273.114 244.041 278.503 257.098 280.985C275.766 284.535 296.153 282.658 315 281.755C336.634 280.711 359.909 281.507 380.913 273.948C403.463 265.822 417.703 248.019 425.345 225.698C429.42 213.993 432.428 201.944 434.329 189.697Z" fill="#CAECF3"/>
<path d="M271.005 270.738H374.995C376.982 270.738 378.888 269.948 380.293 268.543C381.698 267.138 382.487 265.233 382.487 263.246V70.8497C382.487 68.8627 381.698 66.9571 380.293 65.552C378.888 64.147 376.982 63.3577 374.995 63.3577H74.1141C72.1271 63.3577 70.2215 64.147 68.8164 65.552C67.4114 66.9571 66.6221 68.8627 66.6221 70.8497V263.246C66.6221 265.233 67.4114 267.138 68.8164 268.543C70.2215 269.948 72.1271 270.738 74.1141 270.738H178.104" stroke="black" stroke-linecap="round" stroke-linejoin="round"/>
<path d="M375.297 71.7488H73.2178V248.561H375.297V71.7488Z" stroke="black" stroke-linecap="round" stroke-linejoin="round"/>
<path d="M271.007 270.738H178.105V291.686H271.007V270.738Z" stroke="black" stroke-linecap="round" stroke-linejoin="round"/>
<path d="M271.008 291.686H287.19V299.681H161.923V291.686H178.106" stroke="black" stroke-linecap="round" stroke-linejoin="round"/>
<path d="M42.5351 299.681H29.3491" stroke="#2C2C2C" stroke-width="0.75" stroke-miterlimit="10" stroke-linecap="round"/>
<path d="M376.379 299.681H49.7256" stroke="#2C2C2C" stroke-width="0.75" stroke-miterlimit="10" stroke-linecap="round"/>
<path d="M401.553 299.681H380.576" stroke="#2C2C2C" stroke-width="0.75" stroke-miterlimit="10" stroke-linecap="round"/>
<path d="M390.409 231.245L399.684 216.964L343.496 180.476L334.222 194.757L390.409 231.245Z" fill="#C7C7C7"/>
<path d="M436.019 266.06L450.044 244.46L391.848 206.659L377.823 228.26L436.019 266.06Z" fill="#2C2C2C"/>
<path d="M344.033 142.55L344.058 142.943L344.099 143.544C344.152 144.289 344.202 145.021 344.22 145.735C344.28 145.959 344.238 146.197 344.232 146.425C344.331 150.005 344.128 153.587 343.626 157.133C343.593 157.408 343.56 157.683 343.512 157.949C342.865 162.245 341.793 166.466 340.311 170.551L340.126 171.053C336.817 179.944 331.646 188.026 324.96 194.756L324.521 195.207C320.579 199.09 316.172 202.471 311.4 205.274L309.599 206.302C303.783 209.488 297.515 211.769 291.012 213.067L290.565 213.187C287.849 213.712 285.103 214.07 282.344 214.258C281.456 214.323 280.561 214.363 279.709 214.364C278.857 214.366 278.131 214.388 277.345 214.385C270.178 214.346 263.066 213.135 256.291 210.799C255.94 210.68 255.56 210.556 255.202 210.412C253.818 209.917 252.458 209.363 251.112 208.765L250.414 208.446C245.095 206.026 240.122 202.907 235.626 199.173L234.994 198.65C234.722 198.43 234.459 198.194 234.199 197.971C229.709 194.048 225.762 189.545 222.462 184.579C222.219 184.218 221.988 183.853 221.744 183.439C220.386 181.298 219.148 179.082 218.035 176.804C217.975 176.58 217.844 176.389 217.734 176.178C214.238 168.7 212.163 160.637 211.616 152.399L211.563 151.508L211.536 150.809C211.002 139.122 213.592 127.502 219.041 117.148C221.486 112.523 224.46 108.196 227.902 104.255C229.189 102.827 230.537 101.432 231.947 100.069C239.4 92.9371 248.411 87.6381 258.266 84.5911C268.122 81.5441 278.551 80.8327 288.728 82.5133C298.906 84.1939 308.553 88.2203 316.906 94.2738C325.258 100.327 332.087 108.242 336.852 117.391C336.921 117.503 336.98 117.621 337.026 117.744C340.973 125.47 343.354 133.9 344.033 142.55Z" fill="white"/>
<path d="M311.399 205.274L309.597 206.303L279.657 214.325C278.865 214.351 278.079 214.349 277.292 214.346L290.424 210.828L311.399 205.274Z" fill="#EBEBEB"/>
<path d="M315.92 150.096C316.08 150.693 316.06 151.324 315.861 151.909C315.662 152.495 315.294 153.008 314.804 153.384C314.314 153.761 313.723 153.983 313.106 154.023C312.489 154.064 311.874 153.92 311.339 153.611C310.803 153.302 310.372 152.841 310.098 152.287C309.825 151.733 309.722 151.11 309.803 150.497C309.884 149.884 310.144 149.309 310.552 148.844C310.959 148.379 311.496 148.046 312.093 147.886C312.489 147.78 312.902 147.753 313.309 147.806C313.716 147.86 314.109 147.993 314.464 148.198C314.82 148.403 315.131 148.677 315.381 149.002C315.631 149.328 315.814 149.699 315.92 150.096Z" fill="white"/>
<path d="M320.575 167.463C320.735 168.06 320.714 168.691 320.515 169.276C320.317 169.862 319.949 170.375 319.458 170.751C318.968 171.128 318.377 171.35 317.76 171.39C317.143 171.431 316.528 171.287 315.993 170.978C315.458 170.669 315.026 170.208 314.753 169.654C314.479 169.1 314.376 168.477 314.457 167.864C314.538 167.251 314.798 166.676 315.206 166.211C315.614 165.746 316.15 165.413 316.747 165.253C317.548 165.038 318.401 165.151 319.118 165.565C319.836 165.98 320.36 166.662 320.575 167.463Z" fill="white"/>
<path d="M283.071 225.421C267.754 226.461 252.473 222.935 239.16 215.288C225.848 207.642 215.102 196.219 208.283 182.464C201.464 168.71 198.878 153.242 200.851 138.017C202.825 122.792 209.269 108.495 219.37 96.9333C229.471 85.3719 242.773 77.0661 257.595 73.0665C272.417 69.0669 288.093 69.5533 302.638 74.4641C317.184 79.375 329.946 88.4896 339.31 100.655C348.675 112.82 354.221 127.49 355.246 142.808C356.6 163.327 349.763 183.545 336.233 199.031C322.704 214.517 303.586 224.007 283.071 225.421ZM282.475 216.539C296.031 215.628 309.011 210.717 319.775 202.428C330.539 194.139 338.604 182.845 342.95 169.973C347.295 157.101 347.726 143.229 344.188 130.112C340.65 116.995 333.302 105.222 323.073 96.2807C312.844 87.3397 300.194 81.6326 286.721 79.8811C273.249 78.1295 259.56 80.4122 247.385 86.4404C235.21 92.4686 225.095 101.972 218.321 113.748C211.547 125.524 208.416 139.045 209.326 152.6C210.562 170.773 218.96 187.713 232.674 199.701C246.389 211.689 264.3 217.745 282.475 216.539Z" fill="#37474F"/>
<path d="M340.116 113.773C336.097 106.513 330.844 100.009 324.593 94.551C310.414 82.1605 291.893 75.9102 273.106 77.1749C254.318 78.4397 236.803 87.1159 224.412 101.295C212.022 115.474 205.771 133.995 207.036 152.782C208.301 171.57 216.977 189.085 231.156 201.476C241.724 210.728 254.8 216.636 268.728 218.452C282.656 220.268 296.81 217.911 309.397 211.678C321.984 205.445 332.439 195.618 339.438 183.439C346.436 171.261 349.664 157.28 348.711 143.267C348.051 132.923 345.116 122.852 340.116 113.773ZM344.099 143.544C345.148 158.889 340.842 174.124 331.916 186.65C322.99 199.176 309.996 208.219 295.148 212.237C280.301 216.255 264.52 214.999 250.495 208.684C236.47 202.369 225.069 191.385 218.236 177.605C211.403 163.825 209.56 148.102 213.023 133.115C216.485 118.129 225.038 104.807 237.223 95.4203C249.408 86.0338 264.471 81.1638 279.845 81.6405C295.219 82.1172 309.952 87.911 321.532 98.0343C334.785 109.616 342.905 125.981 344.111 143.541L344.099 143.544ZM340.116 113.773C336.097 106.513 330.844 100.009 324.593 94.551C310.414 82.1605 291.893 75.9102 273.106 77.1749C254.318 78.4397 236.803 87.1159 224.412 101.295C212.022 115.474 205.771 133.995 207.036 152.782C208.301 171.57 216.977 189.085 231.156 201.476C241.724 210.728 254.8 216.636 268.728 218.452C282.656 220.268 296.81 217.911 309.397 211.678C321.984 205.445 332.439 195.618 339.438 183.439C346.436 171.261 349.664 157.28 348.711 143.267C348.051 132.923 345.116 122.852 340.116 113.773ZM344.099 143.544C345.148 158.889 340.842 174.124 331.916 186.65C322.99 199.176 309.996 208.219 295.148 212.237C280.301 216.255 264.52 214.999 250.495 208.684C236.47 202.369 225.069 191.385 218.236 177.605C211.403 163.825 209.56 148.102 213.023 133.115C216.485 118.129 225.038 104.807 237.223 95.4203C249.408 86.0338 264.471 81.1638 279.845 81.6405C295.219 82.1172 309.952 87.911 321.532 98.0343C334.785 109.616 342.905 125.981 344.111 143.541L344.099 143.544ZM347.89 109.493C338.414 92.2455 322.904 79.1036 304.335 72.5879C285.766 66.0721 265.444 66.6412 247.269 74.186C229.093 81.7308 214.343 95.7201 205.847 113.471C197.351 131.222 195.707 151.484 201.231 170.372C206.755 189.26 219.058 205.444 235.78 215.82C252.502 226.195 272.465 230.032 291.842 226.595C311.219 223.157 328.644 212.687 340.776 197.192C352.908 181.698 358.893 162.269 357.583 142.634C356.815 131.011 353.511 119.698 347.903 109.49L347.89 109.493ZM352.98 142.948C354.23 161.465 348.6 179.791 337.169 194.411C325.739 209.032 309.313 218.918 291.042 222.172C272.771 225.426 253.942 221.821 238.166 212.046C222.39 202.271 210.778 187.016 205.558 169.207C200.338 151.398 201.877 132.288 209.88 115.544C217.883 98.7996 231.786 85.5994 248.923 78.4754C266.059 71.3515 285.223 70.8053 302.738 76.9417C320.253 83.0781 334.885 95.465 343.828 111.726C349.134 121.335 352.263 131.993 352.992 142.945L352.98 142.948ZM324.593 94.551C310.414 82.1605 291.893 75.9102 273.106 77.1749C254.318 78.4397 236.803 87.1159 224.412 101.295C212.022 115.474 205.771 133.995 207.036 152.782C208.301 171.57 216.977 189.085 231.156 201.476C241.724 210.728 254.8 216.636 268.728 218.452C282.656 220.268 296.81 217.911 309.397 211.678C321.984 205.445 332.439 195.618 339.438 183.439C346.436 171.261 349.664 157.28 348.711 143.267C348.044 132.937 345.109 122.88 340.114 113.814C336.099 106.54 330.847 100.021 324.593 94.551ZM344.111 143.541C345.16 158.886 340.854 174.12 331.928 186.647C323.002 199.173 310.008 208.216 295.161 212.234C280.314 216.252 264.532 214.996 250.507 208.681C236.482 202.366 225.082 191.382 218.248 177.602C211.415 163.822 209.573 148.098 213.035 133.112C216.497 118.125 225.05 104.803 237.235 95.417C249.42 86.0305 264.483 81.1605 279.857 81.6372C295.231 82.1138 309.964 87.9076 321.544 98.0309C334.794 109.616 342.909 125.982 344.111 143.541Z" fill="#37474F"/>
<path d="M240.384 109.792C245.233 104.586 251.122 100.458 257.67 97.6767C260.975 96.2109 264.422 95.0866 267.956 94.3214C271.533 93.5567 275.177 93.1422 278.835 93.0839C286.216 93.0469 293.523 94.5542 300.287 97.5088C306.952 100.408 313.021 104.52 318.183 109.637C312.123 106.034 305.716 103.049 299.059 100.727C295.805 99.6585 292.472 98.8508 289.091 98.3118C285.747 97.7318 282.356 97.4723 278.963 97.5368C272.178 97.6053 265.445 98.7355 259.009 100.886C252.464 103.091 246.21 106.082 240.384 109.792Z" fill="#C0E2E9"/>
<path d="M371.636 261.716L355.261 324.272H391.781L375.406 261.716C375.306 261.291 375.066 260.912 374.724 260.641C374.382 260.369 373.958 260.222 373.521 260.222C373.084 260.222 372.66 260.369 372.318 260.641C371.976 260.912 371.735 261.291 371.636 261.716Z" fill="#2E9DB6" stroke="#2C2C2C" stroke-linecap="round" stroke-linejoin="round"/>
<path d="M355.261 324.272H385.014L370.137 267.434L355.261 324.272Z" fill="#2C2C2C" stroke="#2C2C2C" stroke-linecap="round" stroke-linejoin="round"/>
<path d="M395.467 322.9H349.916C348.591 322.9 347.518 323.973 347.518 325.297V325.603C347.518 326.927 348.591 328 349.916 328H395.467C396.791 328 397.865 326.927 397.865 325.603V325.297C397.865 323.973 396.791 322.9 395.467 322.9Z" fill="#2E9DB6" stroke="#2C2C2C" stroke-linecap="round" stroke-linejoin="round"/>
<path d="M379.878 322.9H349.916C348.591 322.9 347.518 323.973 347.518 325.297V325.603C347.518 326.927 348.591 328 349.916 328H379.878C381.202 328 382.275 326.927 382.275 325.603V325.297C382.275 323.973 381.202 322.9 379.878 322.9Z" fill="#2C2C2C" stroke="#2C2C2C" stroke-linecap="round" stroke-linejoin="round"/>
<path d="M361.796 299.321H385.25L382.415 288.484H364.631L361.796 299.321Z" fill="white" stroke="#2C2C2C" stroke-linecap="round" stroke-linejoin="round"/>
<path d="M361.796 299.321H378.489L375.654 288.484H364.631L361.796 299.321Z" fill="#BABABA" stroke="#2C2C2C" stroke-linecap="round" stroke-linejoin="round"/>
<path d="M123.654 191.372C123.654 191.372 112.437 192.692 110.086 192.692C110.061 192.692 110.035 192.692 110.01 192.692C109.998 192.692 109.985 192.692 109.973 192.692C109.96 192.692 109.947 192.692 109.935 192.692C109.91 192.692 109.884 192.692 109.859 192.692C107.495 192.692 96.2915 191.372 96.2915 191.372C81.3404 196.087 82.4092 217.904 82.4218 218.52C82.5224 223.022 82.5853 227.536 82.6985 232.038C82.9625 242.638 85.666 274.389 86.3576 284.486C86.4205 285.316 86.4582 286.007 86.4834 286.523C87.6151 309.182 88.7342 331.841 89.8659 354.501C89.9665 356.487 90.0671 358.487 90.1677 360.473C90.1677 360.473 95.4238 363.743 105.735 360.473L105.823 286.875L108.69 232.189C108.69 232.189 109.218 232.113 109.847 232.05C109.884 232.05 109.922 232.063 109.973 232.063V232.075C109.985 232.075 109.998 232.075 110.01 232.075C110.023 232.075 110.035 232.075 110.048 232.075V232.063C110.086 232.063 110.123 232.05 110.174 232.05C110.802 232.113 111.331 232.189 111.331 232.189L114.198 286.875L114.286 360.473C124.597 363.743 129.853 360.473 129.853 360.473C129.953 358.487 130.054 356.487 130.155 354.501C131.286 331.841 132.393 309.182 133.537 286.523C133.562 286.007 133.6 285.316 133.663 284.486C134.342 274.401 137.058 242.638 137.322 232.038C137.435 227.536 137.498 223.022 137.599 218.52C137.536 217.904 138.592 196.087 123.654 191.372Z" fill="#2C2C2C"/>
<path d="M35.8145 147.148C35.8145 147.148 32.7783 144.891 32.2355 142.644C31.6813 140.392 31.2455 139.311 27.583 135.266C23.9548 131.236 23.3176 127.856 23.3176 127.856C23.3176 127.856 18.8441 129.323 24.2828 135.787C27.6102 139.75 13.7802 133.132 9.78841 130.76C9.78841 130.76 6.75835 130.99 9.89801 134.757C13.0377 138.524 9.09817 136.921 15.541 143.881C21.9671 150.847 30.6199 156.888 34.7168 152.959C38.8022 149.025 35.8145 147.148 35.8145 147.148Z" fill="#E0E0E0"/>
<path fill-rule="evenodd" clip-rule="evenodd" d="M23.3173 127.856L23.1606 127.378L23.7054 127.199L23.8114 127.762L23.8115 127.762L23.8116 127.763L23.8123 127.766C23.8132 127.77 23.8147 127.778 23.817 127.789C23.8217 127.81 23.8292 127.844 23.8404 127.889C23.8627 127.981 23.8992 128.119 23.9545 128.299C24.065 128.66 24.2506 129.188 24.5474 129.841C25.1408 131.148 26.1798 132.955 27.956 134.928C29.7894 136.954 30.8426 138.266 31.5056 139.368C32.18 140.489 32.442 141.379 32.7237 142.523L32.7239 142.524L32.7242 142.526C32.9615 143.508 33.7707 144.551 34.5878 145.387C34.9872 145.795 35.3711 146.136 35.6553 146.375C35.7971 146.495 35.9134 146.588 35.9936 146.651C36.0337 146.683 36.0647 146.707 36.0853 146.722C36.0928 146.728 36.0989 146.733 36.1036 146.736C36.1082 146.739 36.1135 146.743 36.1194 146.747C36.1246 146.751 36.1303 146.754 36.1364 146.759C36.165 146.779 36.2034 146.807 36.2489 146.844C36.3397 146.916 36.4604 147.023 36.5891 147.164C36.8455 147.445 37.1426 147.875 37.2859 148.458C37.5821 149.663 37.1754 151.289 35.0654 153.321L35.0647 153.322C33.9148 154.425 32.4528 154.811 30.8543 154.679C29.2699 154.548 27.5334 153.91 25.762 152.947C22.2169 151.021 18.4044 147.726 15.1711 144.222C11.9451 140.737 11.2348 139.313 10.99 138.232C10.947 138.042 10.918 137.859 10.8926 137.699C10.8842 137.646 10.8762 137.595 10.8682 137.547C10.8347 137.349 10.7965 137.166 10.7239 136.961C10.5787 136.551 10.2768 135.997 9.51138 135.079C8.70555 134.112 8.25729 133.328 8.07245 132.681C7.8824 132.016 7.96717 131.471 8.25178 131.06C8.52078 130.67 8.91632 130.476 9.20095 130.379C9.34807 130.328 9.48003 130.299 9.57605 130.282C9.62441 130.273 9.66461 130.267 9.69425 130.264C9.70909 130.262 9.72135 130.261 9.73075 130.26C9.73545 130.259 9.73943 130.259 9.74267 130.259L9.74697 130.258L9.74869 130.258L9.74945 130.258C9.74979 130.258 9.75013 130.258 9.78816 130.76L9.75013 130.258L9.90855 130.246L10.0451 130.327C12.0175 131.5 16.4506 133.736 19.9713 135.184C21.7499 135.915 23.2286 136.416 24.0391 136.507C24.1006 136.514 24.1539 136.518 24.1999 136.52C24.1365 136.415 24.0393 136.28 23.8976 136.111C21.1444 132.839 20.7523 130.66 21.2892 129.222C21.5529 128.515 22.0202 128.056 22.4112 127.777C22.6071 127.637 22.7874 127.54 22.9209 127.477C22.9879 127.445 23.0438 127.422 23.0848 127.406C23.1054 127.398 23.1222 127.391 23.135 127.387C23.1414 127.384 23.1467 127.383 23.151 127.381L23.1566 127.379L23.1588 127.378L23.1597 127.378C23.1602 127.378 23.1606 127.378 23.3173 127.856ZM9.68862 131.285C9.64111 131.295 9.58557 131.31 9.52659 131.33C9.34119 131.394 9.17545 131.492 9.0794 131.631C8.99895 131.748 8.91488 131.968 9.03973 132.405C9.16978 132.86 9.52014 133.518 10.2841 134.435C11.0885 135.4 11.4715 136.058 11.6721 136.625C11.7723 136.908 11.8222 137.155 11.8602 137.38C11.8714 137.447 11.8812 137.509 11.8907 137.569C11.9145 137.719 11.936 137.855 11.9711 138.01C12.1522 138.81 12.6934 140.064 15.9098 143.539L15.9104 143.539C19.1033 147 22.8302 150.209 26.2422 152.063C27.9494 152.991 29.5458 153.561 30.937 153.676C32.3137 153.79 33.4696 153.458 34.3682 152.596C36.3431 150.694 36.4852 149.415 36.309 148.698C36.216 148.32 36.0215 148.035 35.8454 147.841C35.7578 147.745 35.677 147.674 35.6204 147.629C35.5922 147.606 35.5704 147.591 35.5572 147.581C35.5507 147.577 35.5463 147.574 35.5445 147.573C35.5435 147.572 35.5432 147.572 35.5436 147.572L35.53 147.563L35.5141 147.552L35.8143 147.148C35.5141 147.552 35.5141 147.552 35.514 147.552L35.5137 147.551L35.5107 147.549L35.5029 147.543C35.4963 147.538 35.4868 147.531 35.4748 147.522C35.4506 147.503 35.4158 147.477 35.3718 147.442C35.2839 147.373 35.1588 147.272 35.0075 147.145C34.7053 146.891 34.2963 146.527 33.8688 146.09C33.0324 145.235 32.0523 144.027 31.7466 142.763C31.4742 141.656 31.2411 140.88 30.6436 139.886C30.0346 138.874 29.0388 137.623 27.2099 135.603L27.209 135.602C25.3574 133.546 24.2637 131.649 23.6316 130.258C23.3163 129.564 23.1159 128.996 22.9935 128.597C22.7162 128.795 22.406 129.106 22.2316 129.573C21.8914 130.485 21.982 132.272 24.6675 135.463L24.6678 135.464C24.8881 135.726 25.0592 135.97 25.1659 136.193C25.2653 136.401 25.3536 136.685 25.2537 136.972C25.1412 137.295 24.8621 137.434 24.6396 137.487C24.4214 137.539 24.1718 137.534 23.9267 137.507C22.9552 137.398 21.3508 136.839 19.5888 136.114C16.1181 134.687 11.7759 132.506 9.68862 131.285ZM9.82838 131.261C9.82931 131.261 9.82962 131.261 9.82927 131.261L9.82838 131.261Z" fill="#2C2C2C"/>
<path d="M82.3818 128.264C82.3818 128.264 72.7559 179.129 68.0368 181.999C64.2391 184.313 51.9489 173.712 35.7478 159.409C33.9639 157.74 31.8164 155.19 31.8164 155.19L35.4403 141.5L39.4716 145.741L58.623 161.73C58.623 161.73 66.6453 120.242 74.2289 119.488C81.8248 118.722 82.3818 128.264 82.3818 128.264Z" fill="#2C2C2C"/>
<path d="M184.294 147.148C184.294 147.148 187.33 144.89 187.873 142.643C188.427 140.391 188.863 139.31 192.525 135.265C196.154 131.235 196.791 127.855 196.791 127.855C196.791 127.855 201.264 129.323 195.826 135.787C192.498 139.749 206.328 133.132 210.32 130.759C210.32 130.759 213.35 130.989 210.21 134.756C207.071 138.523 211.01 136.92 204.567 143.88C198.141 150.846 189.489 156.887 185.392 152.958C181.306 149.024 184.294 147.148 184.294 147.148Z" fill="#E0E0E0"/>
<path fill-rule="evenodd" clip-rule="evenodd" d="M196.791 127.855L196.948 127.377L196.403 127.199L196.297 127.761L196.297 127.761L196.297 127.762L196.296 127.766C196.295 127.77 196.294 127.777 196.291 127.788C196.287 127.81 196.279 127.843 196.268 127.889C196.246 127.98 196.209 128.119 196.154 128.299C196.043 128.66 195.858 129.188 195.561 129.841C194.968 131.147 193.929 132.955 192.152 134.928C190.319 136.953 189.266 138.265 188.603 139.367C187.928 140.488 187.666 141.378 187.385 142.523L187.384 142.524L187.384 142.525C187.147 143.508 186.338 144.551 185.521 145.386C185.121 145.794 184.737 146.136 184.453 146.375C184.311 146.494 184.195 146.588 184.115 146.651C184.075 146.682 184.044 146.706 184.023 146.722C184.016 146.728 184.01 146.732 184.005 146.736C184 146.739 183.995 146.742 183.989 146.747C183.984 146.75 183.978 146.754 183.972 146.758C183.943 146.778 183.905 146.807 183.859 146.843C183.769 146.916 183.648 147.022 183.519 147.164C183.263 147.445 182.966 147.875 182.823 148.458C182.526 149.662 182.933 151.289 185.043 153.321L185.044 153.321C186.194 154.424 187.656 154.81 189.254 154.678C190.838 154.548 192.575 153.909 194.346 152.947C197.891 151.021 201.704 147.726 204.937 144.221C208.163 140.736 208.874 139.313 209.118 138.232C209.161 138.042 209.19 137.859 209.216 137.698C209.224 137.645 209.232 137.594 209.24 137.547C209.274 137.348 209.312 137.165 209.385 136.96C209.53 136.55 209.832 135.997 210.597 135.078C211.403 134.111 211.851 133.328 212.036 132.68C212.226 132.015 212.141 131.471 211.857 131.059C211.588 130.67 211.192 130.475 210.907 130.378C210.76 130.328 210.628 130.298 210.532 130.281C210.484 130.273 210.444 130.267 210.414 130.263C210.399 130.262 210.387 130.26 210.378 130.259C210.373 130.259 210.369 130.259 210.366 130.258L210.361 130.258L210.36 130.258L210.359 130.258C210.359 130.258 210.358 130.258 210.32 130.759L210.358 130.258L210.2 130.246L210.063 130.327C208.091 131.499 203.658 133.736 200.137 135.183C198.359 135.915 196.88 136.416 196.069 136.507C196.008 136.514 195.954 136.518 195.909 136.519C195.972 136.414 196.069 136.279 196.211 136.11C198.964 132.838 199.356 130.659 198.819 129.221C198.555 128.515 198.088 128.055 197.697 127.776C197.501 127.636 197.321 127.539 197.187 127.476C197.12 127.445 197.065 127.421 197.024 127.405C197.003 127.397 196.986 127.391 196.973 127.386C196.967 127.384 196.962 127.382 196.957 127.381L196.952 127.379L196.95 127.378L196.949 127.378C196.948 127.377 196.948 127.377 196.791 127.855ZM210.42 131.284C210.467 131.295 210.523 131.31 210.582 131.33C210.767 131.393 210.933 131.492 211.029 131.631C211.109 131.747 211.194 131.967 211.069 132.404C210.939 132.86 210.588 133.517 209.824 134.434C209.02 135.399 208.637 136.058 208.436 136.624C208.336 136.908 208.286 137.154 208.248 137.38C208.237 137.447 208.227 137.509 208.218 137.568C208.194 137.719 208.172 137.855 208.137 138.01C207.956 138.809 207.415 140.064 204.199 143.538L204.198 143.539C201.005 147 197.278 150.209 193.866 152.063C192.159 152.99 190.563 153.561 189.171 153.676C187.795 153.789 186.639 153.457 185.74 152.596C183.765 150.694 183.623 149.415 183.799 148.698C183.892 148.319 184.087 148.034 184.263 147.841C184.351 147.745 184.431 147.674 184.488 147.629C184.516 147.606 184.538 147.59 184.551 147.581C184.558 147.576 184.562 147.573 184.564 147.572C184.565 147.571 184.565 147.571 184.565 147.571L184.578 147.563L184.594 147.551L184.294 147.148C184.594 147.551 184.594 147.551 184.594 147.551L184.595 147.551L184.598 147.549L184.605 147.543C184.612 147.538 184.622 147.531 184.634 147.521C184.658 147.503 184.693 147.476 184.737 147.442C184.825 147.372 184.95 147.272 185.101 147.144C185.403 146.89 185.812 146.527 186.24 146.09C187.076 145.235 188.056 144.026 188.362 142.762C188.634 141.655 188.867 140.879 189.465 139.886C190.074 138.874 191.07 137.623 192.899 135.603L192.899 135.602C194.751 133.545 195.845 131.648 196.477 130.257C196.792 129.563 196.993 128.995 197.115 128.596C197.392 128.795 197.702 129.106 197.877 129.573C198.217 130.484 198.126 132.271 195.441 135.463L195.441 135.463C195.22 135.726 195.049 135.969 194.942 136.193C194.843 136.401 194.755 136.685 194.855 136.971C194.967 137.294 195.246 137.433 195.469 137.487C195.687 137.539 195.937 137.534 196.182 137.506C197.153 137.397 198.758 136.838 200.52 136.114C203.99 134.687 208.333 132.505 210.42 131.284ZM210.28 131.261C210.279 131.26 210.279 131.26 210.279 131.26L210.28 131.261Z" fill="#2C2C2C"/>
<path d="M137.726 128.264C137.726 128.264 147.352 179.129 152.071 181.999C155.869 184.313 168.159 173.712 184.36 159.409C186.144 157.74 188.292 155.19 188.292 155.19L184.668 141.5L180.636 145.741L161.485 161.73C161.485 161.73 153.463 120.242 145.879 119.488C138.283 118.722 137.726 128.264 137.726 128.264Z" fill="#2C2C2C"/>
<path d="M157.718 128.587C157.718 136.61 152.462 141.577 144.439 141.577C136.417 141.577 129.916 135.076 129.916 127.053C129.916 119.031 135.976 110.178 143.622 112.58C152.047 115.208 157.718 120.565 157.718 128.587Z" fill="white"/>
<path fill-rule="evenodd" clip-rule="evenodd" d="M134.285 116.233C131.895 119.053 130.419 123.155 130.419 127.053C130.419 134.798 136.694 141.074 144.439 141.074C148.346 141.074 151.531 139.866 153.737 137.729C155.94 135.594 157.215 132.485 157.215 128.587C157.215 120.871 151.783 115.653 143.472 113.06L143.471 113.06C139.898 111.937 136.668 113.421 134.285 116.233ZM143.772 112.1C139.7 110.821 136.077 112.563 133.518 115.582C130.967 118.593 129.413 122.928 129.413 127.053C129.413 135.353 136.139 142.08 144.439 142.08C148.554 142.08 152.009 140.804 154.437 138.452C156.867 136.097 158.221 132.711 158.221 128.587C158.221 120.258 152.311 114.764 143.772 112.1Z" fill="#2C2C2C"/>
<path d="M151.192 126.248C151.192 132.184 147.306 135.855 141.371 135.855C135.436 135.855 130.632 131.052 130.632 125.117C130.632 119.182 135.109 112.63 140.78 114.403C146.992 116.365 151.192 120.326 151.192 126.248Z" fill="#2C2C2C"/>
<path d="M60.2656 128.587C60.2656 136.61 65.5218 141.577 73.5443 141.577C81.5668 141.577 88.0552 135.063 88.0552 127.053C88.0552 119.043 81.9943 110.178 74.349 112.58C65.9367 115.208 60.2656 120.565 60.2656 128.587Z" fill="white"/>
<path fill-rule="evenodd" clip-rule="evenodd" d="M84.453 115.587C87.0042 118.599 88.5583 122.935 88.5583 127.053C88.5583 135.34 81.8455 142.08 73.5443 142.08C69.429 142.08 65.9747 140.804 63.5466 138.452C61.1165 136.097 59.7627 132.712 59.7627 128.587C59.7627 120.259 65.6724 114.764 74.1987 112.1C78.2707 110.821 81.8944 112.566 84.453 115.587ZM83.6854 116.237C81.3023 113.424 78.073 111.937 74.4998 113.06L74.4991 113.06C66.2009 115.652 60.7687 120.871 60.7687 128.587C60.7687 132.485 62.0429 135.594 64.2465 137.729C66.4521 139.866 69.6372 141.074 73.5443 141.074C81.2882 141.074 87.5523 134.786 87.5523 127.053C87.5523 123.162 86.0759 119.06 83.6854 116.237Z" fill="#2C2C2C"/>
<path d="M66.8042 126.248C66.8042 132.184 70.6897 135.855 76.6249 135.855C82.56 135.855 87.3635 131.052 87.3635 125.117C87.3635 119.182 82.887 112.63 77.2284 114.403C70.9915 116.365 66.8042 120.326 66.8042 126.248Z" fill="#2C2C2C"/>
<path d="M127.275 192.956C118.196 192.126 109.231 191.787 109.231 191.787C105.936 191.887 98.9197 192.176 91.6768 192.956C93.7893 200.174 100.957 205.493 109.47 205.493C117.995 205.505 125.163 200.161 127.275 192.956Z" fill="#50BFD7"/>
<path d="M126.533 193.711C127.313 190.642 142.918 112.454 142.918 112.454C142.918 112.454 101.271 100.156 74.6382 112.454L91.7143 194.39L126.533 193.711Z" fill="white"/>
<path fill-rule="evenodd" clip-rule="evenodd" d="M143.059 111.972C143.06 111.972 143.06 111.972 142.917 112.454C143.411 112.553 143.411 112.553 143.41 112.554L143.41 112.556L143.235 113.432C143.121 114.005 142.953 114.847 142.739 115.919C142.31 118.062 141.698 121.129 140.96 124.818C139.485 132.196 137.51 142.065 135.511 152.031C131.515 171.947 127.414 192.284 127.02 193.835L126.926 194.206L91.3068 194.901L74.064 112.165L74.4271 111.998C87.8725 105.789 105.057 105.803 118.821 107.343C125.713 108.114 131.77 109.27 136.103 110.234C138.27 110.716 140.007 111.15 141.203 111.463C141.802 111.62 142.265 111.747 142.579 111.835C142.736 111.879 142.855 111.913 142.936 111.936C142.977 111.948 143.007 111.957 143.028 111.963L143.051 111.969L143.058 111.971L143.059 111.972ZM142.917 112.454L143.411 112.553L143.501 112.102L143.06 111.972L142.917 112.454ZM142.333 112.811C142.325 112.808 142.316 112.806 142.308 112.804C141.999 112.717 141.541 112.592 140.948 112.436C139.763 112.126 138.038 111.695 135.885 111.216C131.577 110.258 125.557 109.109 118.709 108.343C105.117 106.822 88.3468 106.822 75.2124 112.745L92.1214 193.879L126.132 193.215C126.844 190.019 130.725 170.77 134.524 151.833C136.524 141.868 138.499 131.999 139.974 124.621C140.711 120.932 141.324 117.865 141.752 115.721C141.966 114.65 142.134 113.808 142.249 113.235L142.333 112.811Z" fill="black"/>
<path d="M126.533 193.711C127.313 190.642 142.918 112.454 142.918 112.454C142.918 112.454 101.271 100.156 74.6382 112.454L91.7143 194.39L126.533 193.711Z" fill="white"/>
<path fill-rule="evenodd" clip-rule="evenodd" d="M143.059 111.972C143.06 111.972 143.06 111.972 142.917 112.454C143.411 112.553 143.411 112.553 143.41 112.554L143.41 112.556L143.235 113.432C143.121 114.005 142.953 114.847 142.739 115.919C142.31 118.062 141.698 121.129 140.96 124.818C139.485 132.196 137.51 142.065 135.511 152.031C131.515 171.947 127.414 192.284 127.02 193.835L126.926 194.206L91.3068 194.901L74.064 112.165L74.4271 111.998C87.8725 105.789 105.057 105.803 118.821 107.343C125.713 108.114 131.77 109.27 136.103 110.234C138.27 110.716 140.007 111.15 141.203 111.463C141.802 111.62 142.265 111.747 142.579 111.835C142.736 111.879 142.855 111.913 142.936 111.936C142.977 111.948 143.007 111.957 143.028 111.963L143.051 111.969L143.058 111.971L143.059 111.972ZM142.917 112.454L143.411 112.553L143.501 112.102L143.06 111.972L142.917 112.454ZM142.333 112.811C142.325 112.808 142.316 112.806 142.308 112.804C141.999 112.717 141.541 112.592 140.948 112.436C139.763 112.126 138.038 111.695 135.885 111.216C131.577 110.258 125.557 109.109 118.709 108.343C105.117 106.822 88.3468 106.822 75.2124 112.745L92.1214 193.879L126.132 193.215C126.844 190.019 130.725 170.77 134.524 151.833C136.524 141.868 138.499 131.999 139.974 124.621C140.711 120.932 141.324 117.865 141.752 115.721C141.966 114.65 142.134 113.808 142.249 113.235L142.333 112.811Z" fill="#2C2C2C"/>
<path d="M132.808 110.053C121.176 107.714 101.51 105.048 84.6099 109.072C86.6092 121.684 88.6085 134.309 90.6079 146.921C92.2174 155.472 100.328 161.168 108.791 161.218C117.253 161.168 125.364 155.484 126.973 146.921C128.91 134.623 130.859 122.338 132.808 110.053Z" fill="#50BFD7"/>
<path fill-rule="evenodd" clip-rule="evenodd" d="M84.4933 108.582C101.504 104.532 121.26 107.217 132.907 109.559L133.38 109.655L133.303 110.139C131.355 122.422 129.406 134.704 127.47 146.999L127.469 147.006L127.468 147.014C125.806 155.852 117.456 161.67 108.793 161.721L108.79 161.721L108.788 161.721C100.124 161.67 91.7746 155.839 90.1135 147.014L90.1121 147.007L90.111 147C89.1114 140.694 88.1119 134.386 87.1123 128.077L87.112 128.075C86.1123 121.766 85.1127 115.457 84.113 109.15L84.04 108.69L84.4933 108.582ZM85.1797 109.455C86.1549 115.606 87.1301 121.761 88.1053 127.916L88.1056 127.918C89.1048 134.224 90.1041 140.531 91.1034 146.835C92.6643 155.106 100.532 160.665 108.79 160.715C117.05 160.665 124.916 155.119 126.477 146.835C128.389 134.699 130.312 122.575 132.235 110.451C120.673 108.161 101.64 105.663 85.1797 109.455Z" fill="#2C2C2C"/>
<path d="M107.344 114.517C111.318 114.517 117.492 113.309 117.492 109.348L116.473 96.1201L115.581 84.5516C115.581 80.5781 112.362 77.3716 108.401 77.3716C106.414 77.3716 104.628 78.1763 103.32 79.4715C102.025 80.7667 101.208 82.5648 101.208 84.5516L100.328 96.1327L99.4852 107.236C98.3535 113.938 107.344 114.517 107.344 114.517Z" fill="#2C2C2C"/>
<path d="M83.9561 374.67C83.9561 374.67 84.6979 377.021 84.9117 377.386C85.1381 377.751 90.9097 379.738 97.9514 379.587C105.27 379.436 108.615 377.311 108.715 374.657H83.9561V374.67Z" fill="#50BFD7"/>
<path fill-rule="evenodd" clip-rule="evenodd" d="M83.4526 374.155H109.237L109.217 374.677C109.158 376.247 108.13 377.577 106.264 378.51C104.407 379.439 101.657 380.013 97.9615 380.09M83.4526 374.155V374.658V374.155ZM83.9556 374.67L83.4759 374.821L83.4526 374.748V374.658M83.9556 374.67C83.4759 374.821 83.4759 374.821 83.4759 374.821L83.4845 374.849C83.4901 374.866 83.4982 374.892 83.5086 374.924C83.5295 374.99 83.5595 375.084 83.5962 375.197C83.6694 375.425 83.7695 375.732 83.8764 376.051C83.983 376.37 84.0975 376.703 84.1995 376.981C84.2943 377.24 84.3963 377.502 84.4774 377.641L84.4806 377.646L84.4839 377.651C84.5342 377.732 84.5965 377.787 84.6313 377.815C84.6721 377.848 84.7152 377.877 84.755 377.902C84.8349 377.95 84.9315 378 85.0375 378.049C85.2512 378.147 85.5396 378.26 85.8902 378.381C86.5935 378.623 87.5747 378.906 88.7661 379.171C91.1485 379.701 94.3927 380.166 97.9615 380.09M84.6416 375.16H108.14C107.921 376.057 107.208 376.914 105.815 377.611C104.145 378.445 101.563 379.009 97.9406 379.084L97.9402 379.084C94.4674 379.158 91.305 378.705 88.9847 378.189C87.8246 377.931 86.8804 377.658 86.2177 377.429C85.8854 377.315 85.6308 377.214 85.458 377.135C85.3938 377.105 85.3457 377.081 85.3116 377.062C85.3006 377.037 85.2881 377.008 85.2741 376.974C85.2368 376.883 85.1927 376.768 85.144 376.635C85.0468 376.37 84.9357 376.047 84.8302 375.732C84.763 375.531 84.6984 375.335 84.6416 375.16Z" fill="#2C2C2C"/>
<path d="M83.9685 375.173C85.075 376.166 86.5211 376.921 87.5773 377.26C90.2054 378.128 93.085 378.455 95.8388 378.606C98.7686 378.757 101.988 378.706 104.729 377.55C106.213 376.921 107.47 376.003 108.64 374.959C109.168 373.664 109.306 372.193 109.268 370.684C109.18 367.968 108.564 365.34 108.086 362.674C108.011 362.284 107.948 361.907 107.885 361.53C107.747 359.794 107.621 358.046 107.508 356.324C107.47 355.682 107.395 355.117 107.407 354.475C107.42 354.048 107.571 353.356 107.458 352.954C107.445 352.904 107.42 352.866 107.407 352.828C107.407 352.765 107.42 352.702 107.407 352.639C106.917 352.237 106.401 351.86 105.81 351.696C105.383 351.772 104.955 351.91 104.679 352.023C104.239 352.199 103.849 352.426 103.497 352.69C102.629 351.508 100.491 350.954 99.2842 350.904C97.398 350.829 94.8831 351.156 93.3868 352.539C93.1353 352.3 92.7455 352.174 92.4059 352.111C92.3305 352.099 92.2425 352.086 92.167 352.074C91.2868 352.413 91.5132 354.576 91.4251 355.192C91.2994 356.009 91.1736 356.827 90.9725 357.619C90.5701 359.14 89.9916 360.536 89.1114 361.844C88.1683 363.252 86.936 364.472 85.8546 365.767C85.7037 366.031 85.5403 366.295 85.3894 366.547C84.2325 368.408 83.2894 371.111 83.5409 373.324C83.6038 374.029 83.7547 374.632 83.9685 375.173Z" fill="#50BFD7"/>
<path fill-rule="evenodd" clip-rule="evenodd" d="M96.0751 350.684C97.1802 350.427 98.327 350.362 99.3043 350.401L99.3052 350.401C99.9622 350.429 100.85 350.59 101.692 350.9C102.368 351.15 103.065 351.513 103.58 352.021C103.861 351.844 104.163 351.688 104.49 351.557C104.794 351.432 105.256 351.283 105.723 351.201L105.835 351.181L105.944 351.211C106.646 351.405 107.232 351.845 107.726 352.25L107.865 352.364L107.901 352.541C107.916 352.62 107.917 352.69 107.915 352.737C107.925 352.761 107.935 352.791 107.944 352.823C108.026 353.123 108.005 353.48 107.981 353.75C107.969 353.878 107.957 353.989 107.945 354.089C107.928 354.242 107.914 354.369 107.91 354.488C107.902 354.899 107.932 355.261 107.964 355.66C107.98 355.858 107.997 356.065 108.01 356.292C108.122 358.005 108.247 359.743 108.385 361.468C108.447 361.839 108.508 362.203 108.58 362.578L108.581 362.582L108.581 362.585C108.68 363.134 108.785 363.686 108.891 364.241C109.292 366.341 109.7 368.48 109.771 370.667L109.771 370.669L109.771 370.671C109.81 372.212 109.671 373.762 109.105 375.149L109.061 375.257L108.975 375.334C107.782 376.399 106.478 377.355 104.925 378.012L104.925 378.013C102.07 379.217 98.7515 379.259 95.813 379.108L95.8113 379.108C93.043 378.956 90.1121 378.626 87.4216 377.738C86.3043 377.379 84.7956 376.591 83.6325 375.547L83.5443 375.468L83.5008 375.358C83.2696 374.773 83.108 374.124 83.0405 373.375C82.7741 371.011 83.772 368.197 84.9602 366.284C85.0044 366.211 85.0487 366.138 85.0929 366.065C85.2035 365.882 85.3131 365.701 85.418 365.517L85.4401 365.479L85.4686 365.445C85.84 365 86.2169 364.576 86.5884 364.159C87.3422 363.312 88.0739 362.489 88.6936 361.564L88.6942 361.563C89.5369 360.311 90.0947 358.97 90.4856 357.493C90.6792 356.729 90.8015 355.938 90.9276 355.118C90.9428 355.009 90.946 354.816 90.9509 354.526C90.9511 354.512 90.9513 354.498 90.9515 354.484C90.9565 354.19 90.964 353.833 90.9985 353.48C91.0324 353.132 91.0952 352.756 91.2251 352.431C91.3536 352.109 91.5798 351.761 91.9861 351.604L92.1142 351.555L92.2498 351.577C92.2838 351.583 92.3215 351.589 92.363 351.595L92.3647 351.595C92.4044 351.602 92.4479 351.608 92.4887 351.615L92.4931 351.616L92.4976 351.617C92.7481 351.663 93.0659 351.747 93.357 351.905C94.1427 351.291 95.106 350.91 96.0751 350.684ZM96.3036 351.664C95.3019 351.898 94.3904 352.296 93.7282 352.908L93.3821 353.228L93.0404 352.903C92.898 352.768 92.6299 352.665 92.3188 352.607C92.3046 352.604 92.2899 352.602 92.2745 352.599C92.2406 352.638 92.2004 352.701 92.1593 352.804C92.0813 352.999 92.0301 353.265 91.9997 353.578C91.9696 353.885 91.9623 354.206 91.9574 354.501C91.9569 354.527 91.9565 354.554 91.9561 354.581C91.9522 354.83 91.9482 355.088 91.9231 355.263L91.9227 355.266L91.9205 355.28C91.796 356.09 91.6671 356.927 91.46 357.743L91.4594 357.745L91.4588 357.747C91.045 359.312 90.4462 360.761 89.5291 362.124C88.8716 363.106 88.0603 364.019 87.2812 364.895C86.9317 365.288 86.5887 365.674 86.2689 366.056C86.1638 366.238 86.0522 366.423 85.9467 366.597C85.9034 366.668 85.8611 366.738 85.8207 366.805L85.8187 366.809L85.8166 366.812C84.693 368.62 83.8068 371.208 84.0407 373.267L84.0414 373.274L84.042 373.28C84.0963 373.888 84.2204 374.41 84.394 374.878C85.4314 375.781 86.7644 376.47 87.7313 376.781L87.7332 376.782L87.7351 376.782C90.2999 377.629 93.127 377.953 95.8653 378.103C98.7862 378.254 101.905 378.195 104.533 377.086C105.912 376.502 107.097 375.651 108.216 374.662C108.673 373.484 108.801 372.13 108.766 370.698C108.697 368.598 108.309 366.56 107.91 364.47C107.803 363.907 107.695 363.339 107.592 362.766C107.516 362.371 107.452 361.99 107.39 361.615L107.385 361.591L107.384 361.569C107.245 359.832 107.119 358.081 107.006 356.357L107.006 356.355L107.006 356.353C106.995 356.172 106.98 355.988 106.965 355.801C106.931 355.373 106.895 354.928 106.904 354.465L106.905 354.463L106.905 354.46C106.909 354.305 106.932 354.101 106.952 353.913C106.962 353.822 106.972 353.735 106.979 353.659C107.004 353.383 107.002 353.197 106.975 353.094C106.974 353.093 106.973 353.091 106.972 353.089L106.97 353.084C106.967 353.079 106.964 353.071 106.96 353.062C106.952 353.046 106.941 353.019 106.93 352.987L106.904 352.909V352.88C106.523 352.58 106.162 352.341 105.783 352.213C105.434 352.285 105.093 352.397 104.869 352.489L104.867 352.489L104.865 352.49C104.469 352.649 104.118 352.852 103.798 353.092L103.392 353.397L103.091 352.987C102.743 352.513 102.1 352.123 101.344 351.844C100.598 351.57 99.8138 351.43 99.2637 351.407C98.3549 351.37 97.3014 351.431 96.3036 351.664Z" fill="#2C2C2C"/>
<path d="M138.479 374.67C138.479 374.67 137.75 377.021 137.523 377.386C137.297 377.751 131.525 379.738 124.483 379.587C117.165 379.436 113.82 377.311 113.72 374.657H138.479V374.67Z" fill="#50BFD7"/>
<path fill-rule="evenodd" clip-rule="evenodd" d="M113.197 374.155H138.982V374.746L138.959 374.819L138.479 374.67C138.959 374.819 138.959 374.819 138.959 374.819L138.959 374.819L138.959 374.82L138.951 374.846C138.945 374.864 138.937 374.89 138.927 374.922C138.906 374.988 138.877 375.082 138.841 375.196C138.768 375.423 138.669 375.731 138.563 376.05C138.457 376.369 138.343 376.703 138.24 376.982C138.145 377.239 138.04 377.508 137.951 377.651C137.9 377.732 137.838 377.787 137.803 377.815C137.762 377.848 137.719 377.877 137.679 377.902C137.6 377.95 137.503 378 137.397 378.049C137.183 378.147 136.895 378.26 136.544 378.381C135.841 378.623 134.86 378.906 133.668 379.171C131.286 379.701 128.042 380.166 124.473 380.09M137.796 375.16H114.295C114.513 376.057 115.227 376.914 116.62 377.611C118.29 378.445 120.871 379.009 124.494 379.084L124.494 379.084C127.967 379.158 131.129 378.705 133.45 378.189C134.61 377.931 135.554 377.658 136.217 377.429C136.549 377.315 136.804 377.214 136.976 377.135C137.043 377.104 137.092 377.079 137.126 377.06C137.138 377.035 137.151 377.005 137.165 376.97C137.203 376.88 137.247 376.766 137.296 376.634C137.394 376.37 137.504 376.047 137.609 375.733C137.675 375.532 137.739 375.335 137.796 375.16ZM113.197 374.155L113.217 374.677L113.197 374.155ZM113.217 374.677C113.277 376.247 114.304 377.577 116.17 378.51L113.217 374.677ZM116.17 378.51C118.027 379.439 120.777 380.013 124.473 380.09L116.17 378.51Z" fill="#2C2C2C"/>
<path d="M138.466 375.173C137.36 376.166 135.914 376.921 134.857 377.26C132.229 378.128 129.35 378.455 126.596 378.606C123.666 378.757 120.447 378.706 117.706 377.55C116.222 376.921 114.965 376.003 113.795 374.959C113.267 373.664 113.129 372.193 113.166 370.684C113.254 367.968 113.871 365.34 114.348 362.674C114.424 362.284 114.487 361.907 114.55 361.53C114.688 359.794 114.814 358.046 114.927 356.324C114.977 355.682 115.04 355.117 115.027 354.475C115.015 354.048 114.864 353.356 114.977 352.954C114.99 352.904 115.015 352.866 115.027 352.828C115.027 352.765 115.015 352.702 115.027 352.639C115.518 352.237 116.021 351.86 116.624 351.696C117.052 351.772 117.48 351.91 117.756 352.023C118.196 352.199 118.586 352.426 118.938 352.69C119.806 351.508 121.943 350.954 123.151 350.904C125.037 350.829 127.552 351.156 129.048 352.539C129.3 352.3 129.689 352.174 130.029 352.111C130.104 352.099 130.192 352.086 130.268 352.074C131.148 352.413 130.922 354.576 131.01 355.192C131.135 356.009 131.261 356.827 131.462 357.619C131.865 359.14 132.443 360.536 133.323 361.844C134.266 363.252 135.499 364.472 136.58 365.767C136.731 366.031 136.895 366.295 137.045 366.547C138.202 368.408 139.145 371.111 138.894 373.324C138.831 374.029 138.68 374.632 138.466 375.173Z" fill="#50BFD7"/>
<path fill-rule="evenodd" clip-rule="evenodd" d="M126.131 351.664C125.133 351.431 124.08 351.37 123.171 351.407C122.621 351.43 121.837 351.57 121.091 351.844C120.334 352.123 119.692 352.513 119.344 352.987L119.043 353.397L118.636 353.092C118.317 352.852 117.966 352.649 117.569 352.49L117.568 352.489L117.566 352.489C117.341 352.397 116.999 352.284 116.651 352.213C116.265 352.34 115.912 352.577 115.531 352.88V352.909L115.505 352.987C115.494 353.019 115.482 353.046 115.475 353.062C115.471 353.071 115.468 353.079 115.465 353.084C115.463 353.089 115.461 353.092 115.46 353.094C115.433 353.197 115.431 353.383 115.456 353.659C115.463 353.735 115.473 353.822 115.483 353.913C115.503 354.101 115.526 354.305 115.53 354.46L115.53 354.463L115.53 354.465C115.541 355.015 115.499 355.517 115.457 356.021C115.447 356.133 115.438 356.246 115.429 356.36C115.315 358.084 115.19 359.833 115.051 361.569L115.049 361.591L115.045 361.615C114.983 361.989 114.919 362.371 114.843 362.766C114.74 363.339 114.632 363.907 114.525 364.47C114.126 366.56 113.738 368.598 113.669 370.698C113.634 372.13 113.762 373.484 114.219 374.662C115.338 375.651 116.523 376.502 117.902 377.086C120.53 378.195 123.649 378.254 126.57 378.103C129.308 377.953 132.135 377.629 134.7 376.782L134.702 376.782L134.704 376.781C135.671 376.47 137.003 375.781 138.041 374.878C138.215 374.41 138.339 373.888 138.393 373.28L138.393 373.274L138.394 373.267C138.628 371.208 137.742 368.62 136.618 366.812L136.616 366.809L136.614 366.805C136.574 366.738 136.531 366.668 136.488 366.597C136.383 366.423 136.271 366.238 136.166 366.056C135.846 365.674 135.503 365.288 135.154 364.895C134.375 364.019 133.563 363.106 132.906 362.124C131.989 360.761 131.39 359.312 130.976 357.747L130.975 357.745L130.975 357.743C130.768 356.927 130.639 356.09 130.514 355.28L130.512 355.266L130.512 355.263C130.487 355.088 130.483 354.83 130.479 354.581C130.478 354.554 130.478 354.527 130.478 354.501C130.473 354.206 130.465 353.885 130.435 353.578C130.405 353.265 130.354 352.999 130.276 352.804C130.234 352.701 130.194 352.638 130.16 352.599C130.145 352.602 130.13 352.604 130.116 352.607C129.805 352.665 129.537 352.768 129.395 352.903L129.053 353.228L128.707 352.908C128.045 352.296 127.133 351.898 126.131 351.664ZM129.078 351.905C128.292 351.291 127.329 350.91 126.36 350.684C125.255 350.427 124.108 350.362 123.131 350.401L123.13 350.401C122.473 350.429 121.585 350.59 120.743 350.9C120.066 351.15 119.37 351.513 118.855 352.021C118.574 351.844 118.272 351.688 117.945 351.557C117.64 351.433 117.179 351.283 116.712 351.201L116.601 351.181L116.493 351.211C115.776 351.405 115.2 351.847 114.708 352.25L114.57 352.364L114.534 352.541C114.519 352.62 114.518 352.69 114.52 352.737C114.51 352.761 114.5 352.791 114.491 352.823C114.409 353.123 114.43 353.48 114.454 353.75C114.466 353.878 114.478 353.989 114.49 354.089C114.507 354.242 114.521 354.369 114.525 354.488C114.534 354.979 114.497 355.419 114.456 355.918C114.446 356.036 114.435 356.158 114.426 356.284L114.425 356.287L114.425 356.291C114.312 358.004 114.187 359.742 114.05 361.468C113.988 361.839 113.927 362.203 113.855 362.578L113.854 362.582L113.853 362.585C113.755 363.134 113.65 363.686 113.544 364.241C113.143 366.341 112.735 368.48 112.664 370.667L112.664 370.669L112.664 370.671C112.625 372.212 112.764 373.762 113.33 375.149L113.373 375.257L113.46 375.334C114.653 376.399 115.957 377.355 117.51 378.012L117.51 378.013C120.364 379.217 123.683 379.259 126.622 379.108L126.624 379.108C129.392 378.956 132.323 378.626 135.013 377.738C136.131 377.379 137.639 376.591 138.802 375.547L138.891 375.468L138.934 375.358C139.165 374.773 139.327 374.124 139.394 373.375C139.661 371.011 138.663 368.197 137.475 366.285C137.431 366.211 137.386 366.138 137.342 366.065C137.231 365.882 137.122 365.701 137.017 365.517L136.995 365.479L136.966 365.445C136.595 365 136.218 364.576 135.846 364.159C135.093 363.312 134.361 362.489 133.741 361.564L133.741 361.563C132.898 360.311 132.34 358.97 131.949 357.493C131.756 356.729 131.633 355.938 131.507 355.118C131.492 355.009 131.489 354.816 131.484 354.526L131.483 354.484C131.478 354.19 131.471 353.833 131.436 353.48C131.402 353.132 131.34 352.756 131.21 352.431C131.081 352.109 130.855 351.761 130.449 351.604L130.321 351.555L130.185 351.577C130.151 351.583 130.113 351.589 130.072 351.595L130.07 351.595C130.031 351.601 129.987 351.608 129.946 351.615L129.942 351.616L129.937 351.617C129.687 351.663 129.369 351.747 129.078 351.905ZM114.557 352.65C114.557 352.65 114.557 352.65 114.557 352.65V352.65Z" fill="#2C2C2C"/>
<path d="M113.594 123.872H103.937C101.372 123.872 99.2842 125.959 99.2842 128.525V138.182C99.2842 140.747 101.372 142.834 103.937 142.834H113.594C116.159 142.834 118.247 140.747 118.247 138.182V128.525C118.247 125.959 116.172 123.872 113.594 123.872ZM96.719 119.76C95.2478 119.76 94.0532 120.955 94.0532 122.426C94.0532 123.897 95.2478 125.092 96.719 125.092C98.1902 125.092 99.3848 123.897 99.3848 122.426C99.3848 120.955 98.1902 119.76 96.719 119.76Z" fill="white"/>
<path d="M112.915 129.631C112.299 127.984 110.727 126.89 108.966 126.89H106.351L111.519 139.992H117.064L112.915 129.631ZM102.352 136.233L100.843 139.992H106.351L108.916 133.491H106.301C104.54 133.491 102.968 134.585 102.352 136.233ZM103.207 130.147C104.113 130.147 104.855 129.405 104.855 128.499C104.855 127.594 104.113 126.852 103.207 126.852C102.302 126.852 101.56 127.594 101.56 128.499C101.56 129.405 102.302 130.147 103.207 130.147Z" fill="#50BFD7"/>
<path fill-rule="evenodd" clip-rule="evenodd" d="M113.274 87.9665C107.783 84.6658 103.344 86.6258 101.895 87.8843C101.559 88.1759 101.05 88.1401 100.759 87.8043C100.467 87.4684 100.503 86.9598 100.839 86.6682C102.75 85.0088 107.945 82.8836 114.104 86.5861C114.485 86.8152 114.608 87.31 114.379 87.6912C114.15 88.0723 113.655 88.1956 113.274 87.9665Z" fill="#2C2C2C"/>
<path d="M129.189 11.3081C123.785 4.6636 116.236 0.65625 106.541 0.65625C84.5908 0.65625 63.145 20.8999 63.145 46.1333C63.145 71.3667 80.9325 91.83 102.882 91.83C104.99 91.83 107.032 91.6361 109.01 91.2871C109.217 92.3988 109.333 93.5364 109.333 94.7127C109.333 94.9195 109.32 95.1393 109.32 95.3461C169.805 80.6611 159.903 7.57217 129.189 11.3081Z" fill="#2C2C2C"/>
<path d="M78.2827 76.3694C82.8876 76.3694 86.6206 72.6364 86.6206 68.0315C86.6206 63.4266 82.8876 59.6936 78.2827 59.6936C73.6778 59.6936 69.9448 63.4266 69.9448 68.0315C69.9448 72.6364 73.6778 76.3694 78.2827 76.3694Z" fill="#E0E0E0"/>
<path fill-rule="evenodd" clip-rule="evenodd" d="M78.2822 60.2107C73.9629 60.2107 70.4614 63.7122 70.4614 68.0315C70.4614 72.3508 73.9629 75.8523 78.2822 75.8523C82.6015 75.8523 86.103 72.3508 86.103 68.0315C86.103 63.7122 82.6015 60.2107 78.2822 60.2107ZM69.4272 68.0315C69.4272 63.141 73.3917 59.1765 78.2822 59.1765C83.1727 59.1765 87.1372 63.141 87.1372 68.0315C87.1372 72.9219 83.1727 76.8864 78.2822 76.8864C73.3917 76.8864 69.4272 72.9219 69.4272 68.0315Z" fill="#2C2C2C"/>
<path d="M136.997 76.3694C141.601 76.3694 145.334 72.6364 145.334 68.0315C145.334 63.4266 141.601 59.6936 136.997 59.6936C132.392 59.6936 128.659 63.4266 128.659 68.0315C128.659 72.6364 132.392 76.3694 136.997 76.3694Z" fill="#E0E0E0"/>
<path fill-rule="evenodd" clip-rule="evenodd" d="M136.997 60.2107C132.677 60.2107 129.176 63.7122 129.176 68.0315C129.176 72.3508 132.677 75.8523 136.997 75.8523C141.316 75.8523 144.817 72.3508 144.817 68.0315C144.817 63.7122 141.316 60.2107 136.997 60.2107ZM128.142 68.0315C128.142 63.141 132.106 59.1765 136.997 59.1765C141.887 59.1765 145.852 63.141 145.852 68.0315C145.852 72.9219 141.887 76.8864 136.997 76.8864C132.106 76.8864 128.142 72.9219 128.142 68.0315Z" fill="#2C2C2C"/>
<path d="M108.428 102.818C126.326 102.818 140.836 82.2778 140.836 56.9402C140.836 31.6027 126.326 11.0625 108.428 11.0625C90.5295 11.0625 76.02 31.6027 76.02 56.9402C76.02 82.2778 90.5295 102.818 108.428 102.818Z" fill="#E0E0E0"/>
<path fill-rule="evenodd" clip-rule="evenodd" d="M85.9344 24.7981C80.1383 33.0032 76.5371 44.3655 76.5371 56.9402C76.5371 69.5149 80.1383 80.8772 85.9344 89.0823C91.7314 97.2888 99.6916 102.301 108.428 102.301C117.164 102.301 125.124 97.2888 130.921 89.0823C136.717 80.8772 140.319 69.5149 140.319 56.9402C140.319 44.3655 136.717 33.0032 130.921 24.7981C125.124 16.5917 117.164 11.5796 108.428 11.5796C99.6916 11.5796 91.7314 16.5917 85.9344 24.7981ZM85.0897 24.2014C91.0221 15.8034 99.2658 10.5454 108.428 10.5454C117.59 10.5454 125.834 15.8034 131.766 24.2014C137.699 32.6008 141.353 44.1773 141.353 56.9402C141.353 69.7031 137.699 81.2796 131.766 89.679C125.834 98.077 117.59 103.335 108.428 103.335C99.2658 103.335 91.0221 98.077 85.0897 89.679C79.1564 81.2796 75.5029 69.7031 75.5029 56.9402C75.5029 44.1773 79.1564 32.6008 85.0897 24.2014Z" fill="#2C2C2C"/>
<path d="M71.2891 46.7668C71.2891 46.7668 98.8752 48.1112 108.066 31.513C108.066 31.513 128.025 48.7834 147.08 47.439L145.283 39.8121L137.889 25.2305L133.403 19.8529L124.212 10.2094L111.88 5.05151L97.0783 7.06812L77.3389 20.5251L74.8698 29.4964L71.2891 46.7668Z" fill="#2C2C2C"/>
<path d="M109.216 74.8698C109.229 74.9474 109.061 75.0896 108.686 75.0896C108.325 75.1025 107.769 74.9345 107.277 74.4691C107.032 74.2364 106.812 73.952 106.644 73.5901C106.618 73.5384 106.605 73.4867 106.579 73.435L106.554 73.3574L106.528 73.2928L106.489 73.1764C106.476 73.1247 106.463 73.0601 106.437 73.0084C106.385 72.8145 106.347 72.6076 106.334 72.3879C106.256 71.5347 106.424 70.6686 106.631 69.8413C107.433 66.532 108.376 63.9337 108.725 64.0112C109.074 64.1017 108.712 66.8422 107.911 70.1515C107.704 70.9659 107.549 71.7027 107.549 72.3232C107.549 72.4784 107.562 72.6335 107.575 72.7757L107.588 72.8274V72.8532V72.8662V72.8791C107.588 72.8791 107.575 72.8403 107.588 72.8532L107.614 72.9825L107.626 73.0472L107.639 73.0859L107.665 73.1635C107.743 73.4091 107.859 73.6418 107.988 73.8228C108.247 74.1977 108.557 74.4303 108.803 74.5596C109.035 74.7276 109.204 74.7794 109.216 74.8698Z" fill="#2C2C2C"/>
<path d="M99.9999 59.3705C99.9999 63.0547 96.8069 66.0408 92.8772 66.0408C88.9344 66.0408 85.7544 63.0547 85.7544 59.3705C85.7544 55.6863 88.9474 52.7002 92.8772 52.7002C96.794 52.7002 99.9999 55.6863 99.9999 59.3705Z" fill="white"/>
<path fill-rule="evenodd" clip-rule="evenodd" d="M92.8771 53.2173C89.2002 53.2173 86.2715 56.0035 86.2715 59.3705C86.2715 62.738 89.1879 65.5237 92.8771 65.5237C96.5541 65.5237 99.4828 62.7375 99.4828 59.3705C99.4828 56.0041 96.5418 53.2173 92.8771 53.2173ZM85.2373 59.3705C85.2373 55.3691 88.6945 52.1831 92.8771 52.1831C97.0463 52.1831 100.517 55.3685 100.517 59.3705C100.517 63.3719 97.0598 66.5579 92.8771 66.5579C88.6809 66.5579 85.2373 63.3713 85.2373 59.3705Z" fill="#2C2C2C"/>
<path d="M89.374 58.9569C89.374 61.9947 91.3519 64.4638 93.7821 64.4638C96.2124 64.4638 98.1902 61.9947 98.1902 58.9569C98.1902 55.919 96.2124 53.45 93.7821 53.45C91.3519 53.4371 89.374 55.9061 89.374 58.9569Z" fill="#50BFD7"/>
<path d="M90.6538 58.9569C90.6538 61.1157 92.0499 62.8608 93.7821 62.8608C95.5143 62.8608 96.9104 61.1157 96.9104 58.9569C96.9104 56.7981 95.5143 55.04 93.7821 55.04C92.0499 55.04 90.6538 56.7852 90.6538 58.9569Z" fill="#2C2C2C"/>
<path d="M90.4595 55.2468C90.4595 55.8414 91.1834 56.3068 92.0753 56.3068C92.9673 56.3068 93.6912 55.8285 93.6912 55.2468C93.6912 54.6522 92.9673 54.1868 92.0753 54.1868C91.1834 54.1739 90.4595 54.6522 90.4595 55.2468Z" fill="white"/>
<path d="M102.029 49.1709C102.029 49.1709 92.4114 39.5791 82.0698 50.9678C82.0698 50.9678 91.0153 45.2411 102.029 49.1709Z" fill="#2C2C2C"/>
<path d="M130.986 59.3705C130.986 63.0547 127.793 66.0408 123.863 66.0408C119.92 66.0408 116.74 63.0547 116.74 59.3705C116.74 55.6863 119.933 52.7002 123.863 52.7002C127.793 52.7002 130.986 55.6863 130.986 59.3705Z" fill="white"/>
<path fill-rule="evenodd" clip-rule="evenodd" d="M123.863 53.2173C120.186 53.2173 117.257 56.0035 117.257 59.3705C117.257 62.738 120.174 65.5237 123.863 65.5237C127.54 65.5237 130.469 62.7375 130.469 59.3705C130.469 56.0035 127.54 53.2173 123.863 53.2173ZM116.223 59.3705C116.223 55.3691 119.68 52.1831 123.863 52.1831C128.046 52.1831 131.503 55.3691 131.503 59.3705C131.503 63.3719 128.046 66.5579 123.863 66.5579C119.667 66.5579 116.223 63.3713 116.223 59.3705Z" fill="#2C2C2C"/>
<path d="M120.373 58.9569C120.373 61.9947 122.35 64.4638 124.781 64.4638C127.211 64.4638 129.189 61.9947 129.189 58.9569C129.189 55.919 127.211 53.45 124.781 53.45C122.337 53.4371 120.373 55.9061 120.373 58.9569Z" fill="#50BFD7"/>
<path d="M121.639 58.9569C121.639 61.1157 123.035 62.8608 124.767 62.8608C126.5 62.8608 127.896 61.1157 127.896 58.9569C127.896 56.7981 126.5 55.04 124.767 55.04C123.048 55.04 121.639 56.7852 121.639 58.9569Z" fill="#2C2C2C"/>
<path d="M121.445 55.2468C121.445 55.8414 122.169 56.3068 123.061 56.3068C123.953 56.3068 124.677 55.8285 124.677 55.2468C124.677 54.6522 123.953 54.1868 123.061 54.1868C122.169 54.1739 121.445 54.6522 121.445 55.2468Z" fill="white"/>
<path d="M133.028 48.1241C133.028 48.1241 123.41 38.5323 113.069 49.9209C113.056 49.9209 122.001 44.1943 133.028 48.1241Z" fill="#2C2C2C"/>
<path fill-rule="evenodd" clip-rule="evenodd" d="M75.374 54.51V54.7685H74.3398V54.51H75.374Z" fill="#2C2C2C"/>
<path fill-rule="evenodd" clip-rule="evenodd" d="M80.8032 57.3538V57.6123H79.769V57.3538H80.8032Z" fill="#2C2C2C"/>
<path d="M110.199 55.8284C111.97 56.2033 111.311 57.3538 111.311 57.5218C111.311 57.6899 111.97 67.2558 120.515 69.7766C129.06 72.2973 134.179 67.3463 135.665 64.8643C137.152 62.3824 138.393 56.4877 138.755 56.0352C139.13 55.5828 140.901 54.7942 140.901 54.7942L141.107 52.4803L138.884 51.821C138.884 51.821 133.274 49.2615 125.013 49.1452C116.766 49.0159 112.099 53.773 112.099 53.773C109.773 53.0362 106.89 52.9328 104.253 53.773C104.253 53.773 99.5861 49.0288 91.3387 49.1452C83.0913 49.2744 77.4681 51.821 77.4681 51.821L75.2446 52.4803L75.4515 54.7942C75.4515 54.7942 77.2225 55.5828 77.5974 56.0352C77.9722 56.4877 79.2003 62.3953 80.6869 64.8643C82.1735 67.3463 87.2926 72.2973 95.8373 69.7766C104.382 67.2558 105.041 57.6899 105.041 57.5218C105.041 57.3538 104.382 56.2033 106.153 55.8284C107.704 55.5052 108.661 55.5052 110.199 55.8284ZM130.714 67.7987C124.199 71.7156 116.391 67.76 114.038 62.6021C111.686 57.4443 113.664 54.7167 113.664 54.7167C117.593 48.3049 133.468 48.0334 136.195 54.9623C136.661 56.1257 137.229 63.8819 130.714 67.7987ZM80.1569 54.9623C82.8845 48.0205 98.7588 48.3049 102.689 54.7167C102.689 54.7167 104.666 57.4443 102.314 62.6021C99.961 67.76 92.166 71.7156 85.6379 67.7987C79.1357 63.8819 79.7044 56.1257 80.1569 54.9623Z" fill="#2C2C2C"/>
<path fill-rule="evenodd" clip-rule="evenodd" d="M113.274 87.9665C107.783 84.6658 103.344 86.6258 101.895 87.8843C101.559 88.1759 101.05 88.1401 100.759 87.8043C100.467 87.4684 100.503 86.9598 100.839 86.6682C102.75 85.0088 107.945 82.8836 114.104 86.5861C114.485 86.8152 114.608 87.31 114.379 87.6912C114.15 88.0723 113.655 88.1956 113.274 87.9665Z" fill="#2C2C2C"/>
</svg>
