<svg width="407" height="258" viewBox="0 0 407 258" fill="none" xmlns="http://www.w3.org/2000/svg">
<path d="M266.856 257.428C266.856 257.428 329.053 260.335 368.396 190.046C407.738 119.757 361.446 55.0991 289.934 41.1275C218.423 27.1559 182.795 -25.3035 119.056 14.8539C55.317 55.0112 90.7373 268.875 266.856 257.428Z" fill="#70CDE0"/>
<path opacity="0.4" d="M266.856 257.428C266.856 257.428 329.053 260.335 368.396 190.046C407.738 119.757 361.446 55.0991 289.934 41.1275C218.423 27.1559 182.795 -25.3035 119.056 14.8539C55.317 55.0112 90.7373 268.875 266.856 257.428Z" fill="white"/>
<path d="M193.7 25.3829V56.3979C193.746 59.0594 194.839 61.5955 196.741 63.4571C198.644 65.3188 201.203 66.3562 203.865 66.3447H315.059C316.395 66.3475 317.719 66.0868 318.954 65.5777C320.189 65.0685 321.312 64.3209 322.258 63.3775C323.204 62.434 323.955 61.3134 324.467 60.0795C324.98 58.8457 325.244 57.523 325.245 56.1869V29.9694L339.089 15.4221L203.879 15C202.526 15.0045 201.188 15.2776 199.942 15.8035C198.695 16.3294 197.566 17.0976 196.619 18.0636C195.672 19.0295 194.926 20.1739 194.425 21.4304C193.924 22.6869 193.678 24.0304 193.7 25.3829Z" fill="#F5F5F5"/>
<path d="M308.826 33.7961L207.889 33.3247L207.903 30.2225L308.834 30.6938L308.826 33.7961Z" fill="#E0E0E0"/>
<path d="M308.826 44.0032L207.889 43.5319L207.903 40.4297L308.834 40.901L308.826 44.0032Z" fill="#E0E0E0"/>
<path d="M268.892 50.6487L268.877 53.7509L308.811 53.946L308.826 50.8439L268.892 50.6487Z" fill="#E0E0E0"/>
<path d="M148.784 89.0097V113.047C148.784 115.135 147.954 117.138 146.478 118.615C145.002 120.092 143 120.923 140.912 120.925H54.7254C52.6371 120.923 50.6349 120.092 49.1589 118.615C47.6829 117.138 46.8538 115.135 46.8538 113.047V92.738L36.1262 81.4828L140.891 81.1241C141.927 81.1213 142.954 81.3233 143.913 81.7185C144.871 82.1137 145.742 82.6944 146.476 83.4271C147.209 84.1598 147.79 85.0301 148.186 85.9882C148.582 86.9462 148.785 87.973 148.784 89.0097Z" fill="#E0E0E0"/>
<path d="M59.5581 95.6994L137.767 95.3406L137.76 92.9348L59.551 93.2936L59.5581 95.6994Z" fill="#FAFAFA"/>
<path d="M59.5581 103.606L137.767 103.248L137.76 100.842L59.551 101.208L59.5581 103.606Z" fill="#FAFAFA"/>
<path d="M90.4846 108.769L59.5403 108.92L59.552 111.326L90.4964 111.175L90.4846 108.769Z" fill="#FAFAFA"/>
<path d="M406.267 232.239C406.267 232.345 315.522 232.422 203.589 232.422C91.6563 232.422 0.883301 232.366 0.883301 232.239C0.883301 232.112 91.6282 232.056 203.589 232.056C315.55 232.056 406.267 232.141 406.267 232.239Z" fill="#263238"/>
<path d="M220.086 212.518V192.387H187.689V212.518C187.694 215.968 186.332 219.279 183.901 221.726L176.517 229.177H231.257L223.879 221.726C221.444 219.281 220.08 215.969 220.086 212.518Z" fill="white" stroke="#263238" stroke-width="1.10627" stroke-linecap="round" stroke-linejoin="round"/>
<path opacity="0.44" d="M187.688 192.387V212.518C187.687 214.079 187.404 215.626 186.852 217.086H220.922C220.373 215.625 220.09 214.079 220.086 212.518V192.387H187.688Z" fill="#51C0D7"/>
<path d="M220.086 193.296H187.688V208.232H220.086V193.296Z" fill="#263238" stroke="#263238" stroke-width="1.10627" stroke-miterlimit="10"/>
<path d="M125.318 69.1655H282.462C283.461 69.1648 284.45 69.3612 285.373 69.7434C286.296 70.1256 287.134 70.6862 287.84 71.393C288.546 72.0998 289.105 72.9389 289.486 73.8623C289.867 74.7856 290.062 75.7751 290.059 76.7739V194.087C290.052 196.272 289.177 198.364 287.627 199.905C286.078 201.445 283.98 202.307 281.795 202.301H125.991C123.807 202.301 121.712 201.433 120.167 199.888C118.622 198.344 117.754 196.249 117.754 194.064V76.7458C117.757 74.7392 118.555 72.8154 119.972 71.395C121.389 69.9745 123.311 69.1729 125.318 69.1655Z" fill="#263238" stroke="#263238" stroke-width="1.10627" stroke-miterlimit="10"/>
<path d="M117.726 186.893H290.059V194.064C290.059 196.248 289.192 198.343 287.647 199.888C286.102 201.433 284.007 202.301 281.823 202.301H125.991C123.807 202.301 121.712 201.433 120.167 199.888C118.622 198.343 117.754 196.248 117.754 194.064V186.893H117.726Z" fill="white" stroke="#263238" stroke-width="1.10627" stroke-miterlimit="10"/>
<rect x="126.867" y="77.2751" width="154.759" height="100.593" fill="white"/>
<path d="M224.283 168.149L227.45 166.581L230.544 168.302L230.026 164.802L232.618 162.395L229.129 161.804L227.64 158.594L226.004 161.73L222.493 162.152L224.964 164.681L224.283 168.149Z" fill="#E0E0E0"/>
<path d="M211.36 168.149L214.528 166.581L217.621 168.302L217.104 164.802L219.696 162.395L216.206 161.804L214.718 158.594L213.081 161.73L209.571 162.152L212.041 164.681L211.36 168.149Z" fill="#51C0D7"/>
<path d="M198.437 168.149L201.605 166.581L204.693 168.302L204.181 164.802L206.773 162.395L203.283 161.804L201.795 158.594L200.158 161.73L196.648 162.152L199.118 164.681L198.437 168.149Z" fill="#51C0D7"/>
<path d="M185.514 168.149L188.682 166.581L191.77 168.302L191.258 164.802L193.85 162.395L190.361 161.804L188.872 158.594L187.235 161.73L183.725 162.152L186.195 164.681L185.514 168.149Z" fill="#51C0D7"/>
<path d="M172.592 168.149L175.759 166.581L178.847 168.302L178.335 164.802L180.927 162.395L177.438 161.804L175.949 158.594L174.313 161.73L170.802 162.152L173.273 164.681L172.592 168.149Z" fill="#51C0D7"/>
<path d="M232.766 90.3633C232.766 90.4425 218.587 90.5059 201.093 90.5059C183.598 90.5059 169.419 90.4425 169.419 90.3633C169.419 90.2841 183.593 90.2261 201.093 90.2261C218.592 90.2261 232.766 90.2894 232.766 90.3633Z" fill="#263238"/>
<path d="M217.194 86.5627C217.194 86.6419 210.194 86.7052 201.557 86.7052C192.921 86.7052 185.916 86.6419 185.916 86.5627C185.916 86.4835 192.916 86.4202 201.557 86.4202C210.199 86.4202 217.194 86.4835 217.194 86.5627Z" fill="#263238"/>
<path d="M264.968 96.788C264.968 96.8672 236.636 96.9305 201.689 96.9305C166.742 96.9305 138.405 96.8672 138.405 96.788C138.405 96.7088 166.737 96.6508 201.689 96.6508C236.641 96.6508 264.968 96.7141 264.968 96.788Z" fill="#E0E0E0"/>
<path d="M264.968 99.9288C264.968 100.003 236.636 100.066 201.689 100.066C166.742 100.066 138.405 100.003 138.405 99.9288C138.405 99.8549 166.737 99.7863 201.689 99.7863C236.641 99.7863 264.968 99.8496 264.968 99.9288Z" fill="#E0E0E0"/>
<path d="M224.291 111.458L227.407 114.46L199.054 141.777L186.591 129.769L189.707 126.767L199.054 135.773L224.291 111.458ZM224.291 105.39L199.054 129.705L189.707 120.699L180.293 129.769L199.054 147.845L233.705 114.46L224.291 105.39Z" fill="#50BFD7"/>
<path d="M317.718 112.796L304.358 124.424L301.095 126.681L304.197 130.17H305.155L325.036 118.006L317.718 112.796Z" fill="#2C2C2C"/>
<path d="M352.24 119.78L361.528 134.862L363.219 138.452L367.167 135.964L367.328 135.023L358.581 113.416L352.24 119.78Z" fill="#2C2C2C"/>
<path d="M360.701 133.665L356.402 150.848L356.336 155.35L358.861 156.856L360.337 155.106L366.756 135.91L360.701 133.665Z" fill="#2C2C2C"/>
<path d="M335.956 109.903C337.885 109.903 340.892 109.504 340.892 108.194L340.398 103.824L339.963 100.001C339.963 98.6911 338.397 97.6254 336.468 97.6254C335.503 97.6254 334.628 97.8933 333.997 98.322C333.366 98.7507 332.973 99.3461 332.973 100.001L332.55 103.829L332.139 107.497C331.58 109.712 335.956 109.903 335.956 109.903Z" fill="#2C2C2C"/>
<path d="M335.956 155.058C337.885 155.058 340.892 154.659 340.892 153.349L340.398 148.979L339.963 145.156C339.963 143.847 338.397 142.781 336.468 142.781C335.503 142.781 334.628 143.049 333.997 143.477C333.366 143.906 332.973 144.501 332.973 145.156L332.55 148.985L332.139 152.653C331.58 154.867 335.956 155.058 335.956 155.058Z" fill="#2C2C2C"/>
<path d="M359.575 115.595C359.575 119.393 357.087 121.745 353.288 121.745C349.489 121.745 346.411 118.667 346.411 114.868C346.411 111.07 349.281 106.878 352.901 108.015C356.89 109.259 359.575 111.796 359.575 115.595Z" fill="white"/>
<path d="M353.288 121.983C349.364 121.983 346.173 118.792 346.173 114.868C346.173 112.344 347.369 109.772 349.144 108.468C350.323 107.604 351.644 107.366 352.972 107.783C357.378 109.164 359.807 111.939 359.807 115.589C359.813 119.471 357.247 121.983 353.288 121.983ZM351.704 108.063C350.912 108.063 350.138 108.331 349.424 108.855C347.786 110.057 346.649 112.528 346.649 114.868C346.649 118.53 349.626 121.507 353.288 121.507C355.098 121.507 356.622 120.959 357.688 119.923C358.765 118.881 359.337 117.381 359.337 115.595C359.337 112.171 357.027 109.557 352.835 108.241C352.454 108.122 352.079 108.063 351.704 108.063Z" fill="#2C2C2C"/>
<path d="M356.479 114.487C356.479 117.298 354.639 119.036 351.829 119.036C349.019 119.036 346.744 116.762 346.744 113.951C346.744 111.141 348.864 108.039 351.543 108.878C354.491 109.807 356.479 111.683 356.479 114.487Z" fill="#2C2C2C"/>
<path d="M313.426 115.595C313.426 119.393 315.914 121.745 319.713 121.745C323.512 121.745 326.59 118.667 326.59 114.868C326.59 111.07 323.72 106.878 320.1 108.015C316.111 109.26 313.426 111.796 313.426 115.595Z" fill="white"/>
<path d="M319.713 121.983C315.747 121.983 313.187 119.477 313.187 115.595C313.187 111.945 315.617 109.17 320.023 107.789C321.35 107.372 322.678 107.61 323.851 108.474C325.631 109.778 326.822 112.35 326.822 114.874C326.828 118.792 323.637 121.983 319.713 121.983ZM321.297 108.063C320.922 108.063 320.546 108.122 320.171 108.241C315.98 109.557 313.67 112.171 313.67 115.595C313.67 117.381 314.241 118.881 315.319 119.923C316.391 120.959 317.909 121.507 319.719 121.507C323.381 121.507 326.358 118.53 326.358 114.868C326.358 112.528 325.214 110.051 323.583 108.855C322.857 108.325 322.089 108.063 321.297 108.063Z" fill="#2C2C2C"/>
<path d="M316.522 114.487C316.522 117.298 318.362 119.036 321.172 119.036C323.982 119.036 326.257 116.762 326.257 113.951C326.257 111.141 324.137 108.039 321.458 108.879C318.504 109.807 316.522 111.683 316.522 114.487Z" fill="#2C2C2C"/>
<path d="M341.017 105.211H331.961C328.007 105.568 324.226 106.384 320.696 107.592L327.471 142.328C327.959 144.841 330.162 146.657 332.723 146.657H340.38C342.946 146.657 345.155 144.835 345.637 142.31L352.288 107.592C348.757 106.384 344.976 105.568 341.017 105.211Z" fill="white"/>
<path d="M340.38 146.895H332.723C330.055 146.895 327.745 144.996 327.239 142.376L320.422 107.432L320.618 107.366C324.226 106.134 328.031 105.324 331.937 104.973H331.961H341.029H341.041C344.946 105.324 348.757 106.128 352.365 107.366L352.562 107.432L345.869 142.358C345.369 144.984 343.059 146.895 340.38 146.895ZM320.969 107.747L327.703 142.281C328.168 144.674 330.282 146.413 332.723 146.413H340.38C342.827 146.413 344.94 144.668 345.399 142.263L352.008 107.747C348.495 106.562 344.792 105.788 340.999 105.443H331.972C328.18 105.788 324.476 106.562 320.969 107.747Z" fill="#2C2C2C"/>
<path d="M325.364 106.259C326.215 111.641 327.066 117.024 327.918 122.4C328.68 126.449 332.52 129.146 336.527 129.17C340.534 129.146 344.375 126.455 345.137 122.4C345.988 117.024 346.84 111.647 347.691 106.277C345.536 105.776 343.303 105.413 341.017 105.211H331.961C329.698 105.413 327.495 105.77 325.364 106.259Z" fill="#50BFD7"/>
<path d="M336.533 129.408C334.491 129.396 332.478 128.717 330.865 127.485C329.186 126.211 328.061 124.418 327.685 122.442V122.436L325.095 106.074L325.31 106.026C327.471 105.526 329.704 105.175 331.937 104.973H331.96H341.028H341.04C343.303 105.175 345.56 105.538 347.751 106.044L347.965 106.092L345.375 122.442C345.006 124.418 343.875 126.205 342.195 127.485C340.582 128.717 338.569 129.396 336.533 129.408ZM328.156 122.364C328.507 124.222 329.567 125.907 331.151 127.11C332.687 128.277 334.598 128.926 336.533 128.932C338.468 128.92 340.38 128.271 341.91 127.11C343.493 125.907 344.553 124.222 344.905 122.364L347.423 106.461C345.327 105.985 343.172 105.645 341.005 105.449H331.972C329.835 105.639 327.703 105.973 325.631 106.443L328.156 122.364Z" fill="#2C2C2C"/>
<path d="M338.676 113.362H334.104C332.889 113.362 331.901 114.35 331.901 115.565V120.137C331.901 121.352 332.889 122.34 334.104 122.34H338.676C339.891 122.34 340.879 121.352 340.879 120.137V115.565C340.879 114.35 339.897 113.362 338.676 113.362ZM330.686 111.415C329.989 111.415 329.424 111.98 329.424 112.677C329.424 113.374 329.989 113.939 330.686 113.939C331.383 113.939 331.948 113.374 331.948 112.677C331.948 111.98 331.383 111.415 330.686 111.415Z" fill="white"/>
<path d="M338.355 116.089C338.063 115.309 337.319 114.791 336.485 114.791H335.247L337.694 120.995H340.32L338.355 116.089ZM333.353 119.215L332.639 120.995H335.247L336.461 117.917H335.223C334.389 117.917 333.645 118.435 333.353 119.215ZM333.758 116.333C334.187 116.333 334.538 115.982 334.538 115.553C334.538 115.124 334.187 114.773 333.758 114.773C333.33 114.773 332.978 115.124 332.978 115.553C332.978 115.982 333.33 116.333 333.758 116.333Z" fill="#50BFD7"/>
<path d="M340.921 102.865H332.068C330.794 102.865 329.746 101.823 329.746 100.543C329.746 99.2685 330.788 98.2206 332.068 98.2206H340.921C342.196 98.2206 343.243 99.2625 343.243 100.543C343.237 101.823 342.196 102.865 340.921 102.865Z" fill="#50BFD7"/>
<path d="M340.921 103.103H332.068C330.656 103.103 329.507 101.954 329.507 100.543C329.507 99.1316 330.656 97.9824 332.068 97.9824H340.921C342.332 97.9824 343.481 99.1316 343.481 100.543C343.481 101.954 342.326 103.103 340.921 103.103ZM332.068 98.4647C330.918 98.4647 329.984 99.3995 329.984 100.549C329.984 101.698 330.918 102.633 332.068 102.633H340.921C342.07 102.633 343.005 101.698 343.005 100.549C343.005 99.3995 342.07 98.4647 340.921 98.4647H332.068Z" fill="#2C2C2C"/>
<path d="M336.985 55.6969H335.997V62.1749H336.985V55.6969Z" fill="#2C2C2C"/>
<path d="M340.54 63.5384H332.443C332.294 63.5384 332.175 63.4193 332.175 63.2705V59.5552C332.175 59.4063 332.294 59.2872 332.443 59.2872H340.54C340.689 59.2872 340.808 59.4063 340.808 59.5552V63.2764C340.808 63.4193 340.689 63.5384 340.54 63.5384Z" fill="#50BFD7"/>
<path d="M340.54 63.7766H332.443C332.163 63.7766 331.937 63.5503 331.937 63.2705V59.5552C331.937 59.2753 332.163 59.0491 332.443 59.0491H340.54C340.82 59.0491 341.046 59.2753 341.046 59.5552V63.2764C341.046 63.5503 340.82 63.7766 340.54 63.7766ZM332.443 59.5194C332.425 59.5194 332.413 59.5313 332.413 59.5492V63.2705C332.413 63.2884 332.425 63.3003 332.443 63.3003H340.54C340.558 63.3003 340.57 63.2884 340.57 63.2705V59.5552C340.57 59.5373 340.558 59.5254 340.54 59.5254H332.443V59.5194Z" fill="#2C2C2C"/>
<path d="M337.76 55.2623C337.76 55.9589 337.194 56.5245 336.497 56.5245C335.801 56.5245 335.235 55.9589 335.235 55.2623C335.235 54.5656 335.801 54 336.497 54C337.188 54 337.76 54.5656 337.76 55.2623Z" fill="#2C2C2C"/>
<path d="M337.373 54.774C337.373 54.9883 337.2 55.161 336.986 55.161C336.771 55.161 336.599 54.9883 336.599 54.774C336.599 54.5596 336.771 54.387 336.986 54.387C337.2 54.387 337.373 54.5596 337.373 54.774Z" fill="#2C2C2C"/>
<path d="M343.898 90.0814C347.252 90.0814 349.971 87.3624 349.971 84.0083C349.971 80.6542 347.252 77.9352 343.898 77.9352C340.544 77.9352 337.825 80.6542 337.825 84.0083C337.825 87.3624 340.544 90.0814 343.898 90.0814Z" fill="#002731"/>
<path d="M336.491 95.1485C351.249 95.1485 363.213 89.7771 363.213 83.1511C363.213 76.5251 351.249 71.1537 336.491 71.1537C321.733 71.1537 309.77 76.5251 309.77 83.1511C309.77 89.7771 321.733 95.1485 336.491 95.1485Z" fill="#2C2C2C"/>
<path d="M312.89 88.7832C313.366 89.1822 313.884 89.5692 314.456 89.9383C313.074 85.9551 312.473 81.5372 312.616 77.7563C312.181 78.1434 311.788 78.5482 311.449 78.9591C311.461 82.079 311.931 85.5204 312.89 88.7832Z" fill="#50BFD7"/>
<path d="M361.528 78.9533C361.183 78.5425 360.79 78.1376 360.355 77.7506C360.581 81.5672 359.813 86.0625 358.289 90.0993C358.879 89.7242 359.426 89.3372 359.92 88.9323C360.986 85.598 361.546 82.103 361.528 78.9533Z" fill="#50BFD7"/>
<path d="M341.945 100.584H331.043C322.225 100.584 315.081 93.4396 315.081 84.6217V82.1984C315.081 70.8857 324.25 61.7224 335.557 61.7224H337.42C348.733 61.7224 357.896 70.8917 357.896 82.1984V84.6217C357.902 93.4396 350.757 100.584 341.945 100.584Z" fill="white"/>
<path d="M341.945 100.823H331.044C326.715 100.823 322.648 99.1377 319.588 96.0773C316.528 93.0169 314.843 88.9503 314.843 84.6217V82.1984C314.843 76.6671 316.998 71.4632 320.91 67.5514C324.822 63.6396 330.025 61.4843 335.557 61.4843H337.42C342.952 61.4843 348.155 63.6396 352.067 67.5514C355.979 71.4632 358.134 76.6671 358.134 82.1984V84.6217C358.134 88.9503 356.449 93.0169 353.389 96.0773C350.335 99.1377 346.268 100.823 341.945 100.823ZM335.563 61.9606C330.156 61.9606 325.072 64.0683 321.249 67.8908C317.427 71.7133 315.319 76.7981 315.319 82.2043V84.6276C315.319 88.8253 316.956 92.7728 319.921 95.7439C322.892 98.7149 326.84 100.346 331.038 100.346H341.939C346.137 100.346 350.085 98.709 353.056 95.7439C356.027 92.7728 357.658 88.8253 357.658 84.6276V82.2043C357.658 76.7981 355.55 71.7133 351.728 67.8908C347.905 64.0683 342.821 61.9606 337.414 61.9606H335.563Z" fill="#2C2C2C"/>
<path d="M332.08 91.5223C332.217 92.5941 332.74 93.5824 333.55 94.2969C334.36 95.0114 335.408 95.4103 336.492 95.4103C337.575 95.4103 338.617 95.0174 339.433 94.2969C340.243 93.5824 340.767 92.5941 340.903 91.5223H332.08Z" fill="white"/>
<path d="M336.491 95.6487C335.348 95.6487 334.253 95.232 333.395 94.4758C332.538 93.7196 331.99 92.6836 331.847 91.5524L331.812 91.2844H341.171L341.136 91.5524C340.993 92.6836 340.439 93.7256 339.588 94.4758C338.736 95.232 337.635 95.6487 336.491 95.6487ZM332.359 91.7607C332.538 92.6717 333.008 93.5053 333.711 94.1185C334.479 94.7973 335.467 95.1724 336.491 95.1724C337.516 95.1724 338.504 94.7973 339.272 94.1185C339.975 93.4993 340.445 92.6717 340.624 91.7607H332.359Z" fill="#2C2C2C"/>
<path d="M336.492 74.5058C343.047 74.5058 348.989 72.529 353.347 69.3257C349.59 64.6875 343.857 61.7224 337.42 61.7224H335.557C329.126 61.7224 323.387 64.6875 319.63 69.3257C323.994 72.529 329.936 74.5058 336.492 74.5058Z" fill="#2C2C2C"/>
<path d="M336.491 64.7589C329.936 64.7589 323.994 66.7357 319.635 69.9389C323.392 74.5771 329.126 77.5423 335.562 77.5423H337.426C343.856 77.5423 349.596 74.5771 353.353 69.9389C348.989 66.7357 343.047 64.7589 336.491 64.7589Z" fill="#50BFD7"/>
<path d="M337.426 77.7863H335.563C329.281 77.7863 323.41 74.9819 319.451 70.0936L319.296 69.8971L319.499 69.7483C324.077 66.3783 330.115 64.5206 336.497 64.5206C342.874 64.5206 348.912 66.3783 353.496 69.7483L353.699 69.8971L353.544 70.0936C349.578 74.9819 343.708 77.7863 337.426 77.7863ZM319.981 69.9864C323.845 74.6425 329.507 77.3099 335.563 77.3099H337.426C343.481 77.3099 349.144 74.6425 353.008 69.9864C348.531 66.7653 342.678 64.997 336.497 64.997C330.305 64.997 324.452 66.7653 319.981 69.9864Z" fill="#2C2C2C"/>
<path d="M351.382 87.5392C350.817 87.8786 350.18 88.0572 349.531 88.0572H323.458C322.809 88.0572 322.172 87.8786 321.606 87.5392C320.213 86.7056 319.421 85.0147 319.618 83.2821L319.629 83.157C320.296 77.2923 324.684 72.7851 330.061 72.4457C332.335 72.3028 334.723 72.2254 337.212 72.2433C339.165 72.2552 341.046 72.3266 342.862 72.4397C348.263 72.7791 352.68 77.2685 353.347 83.157C353.353 83.1987 353.359 83.2404 353.359 83.2821C353.568 85.0147 352.776 86.7056 351.382 87.5392Z" fill="white"/>
<path d="M349.525 88.2953H323.458C322.767 88.2953 322.089 88.1048 321.481 87.7416C319.993 86.8544 319.171 85.092 319.379 83.2522L319.391 83.1272C320.07 77.1434 324.553 72.5468 330.043 72.2015C332.419 72.0526 334.83 71.9871 337.212 71.9991C339.093 72.011 340.999 72.0765 342.874 72.1955C348.399 72.5409 352.901 77.1374 353.579 83.1212L353.591 83.2463C353.8 85.0801 352.978 86.8425 351.49 87.7356C350.9 88.1048 350.215 88.2953 349.525 88.2953ZM336.503 72.4813C334.366 72.4813 332.21 72.5468 330.079 72.6838C324.821 73.0172 320.523 77.4351 319.868 83.1867L319.856 83.3117C319.665 84.961 320.404 86.5448 321.731 87.3367C322.261 87.6523 322.863 87.819 323.464 87.819H349.537C350.138 87.819 350.739 87.6523 351.269 87.3367C352.597 86.5448 353.329 84.961 353.145 83.3117L353.133 83.1867C352.478 77.4291 348.161 73.0112 342.868 72.6838C340.999 72.5647 339.099 72.4992 337.23 72.4873C336.974 72.4813 336.741 72.4813 336.503 72.4813Z" fill="#2C2C2C"/>
<path d="M332.294 80.5075C332.294 82.7581 330.335 84.5919 327.93 84.5919C325.518 84.5919 323.565 82.764 323.565 80.5075C323.565 78.2509 325.518 76.423 327.93 76.423C330.341 76.423 332.294 78.2509 332.294 80.5075Z" fill="white"/>
<path d="M327.93 84.83C325.393 84.83 323.327 82.889 323.327 80.5073C323.327 78.1257 325.393 76.1847 327.93 76.1847C330.466 76.1847 332.532 78.1257 332.532 80.5073C332.532 82.889 330.472 84.83 327.93 84.83ZM327.93 76.661C325.655 76.661 323.803 78.3877 323.803 80.5073C323.803 82.627 325.655 84.3536 327.93 84.3536C330.204 84.3536 332.056 82.627 332.056 80.5073C332.056 78.3877 330.204 76.661 327.93 76.661Z" fill="#2C2C2C"/>
<path d="M325.792 80.2516C325.792 82.1152 327.001 83.6215 328.489 83.6215C329.984 83.6215 331.192 82.1092 331.192 80.2516C331.192 78.3879 329.984 76.8756 328.489 76.8756C327.001 76.8756 325.792 78.3879 325.792 80.2516Z" fill="#50BFD7"/>
<path d="M326.572 80.2515C326.572 81.5733 327.429 82.6451 328.489 82.6451C329.549 82.6451 330.406 81.5733 330.406 80.2515C330.406 78.9238 329.549 77.8521 328.489 77.8521C327.429 77.8521 326.572 78.9238 326.572 80.2515Z" fill="#2C2C2C"/>
<path d="M326.453 77.9831C326.453 78.3463 326.899 78.638 327.441 78.638C327.989 78.638 328.43 78.3463 328.43 77.9831C328.43 77.6199 327.989 77.3281 327.441 77.3281C326.893 77.3281 326.453 77.6199 326.453 77.9831Z" fill="white"/>
<path d="M348.965 80.5075C348.965 82.7581 347.006 84.5919 344.601 84.5919C342.189 84.5919 340.236 82.764 340.236 80.5075C340.236 78.2509 342.189 76.423 344.601 76.423C347.006 76.423 348.965 78.2509 348.965 80.5075Z" fill="white"/>
<path d="M344.601 84.83C342.064 84.83 339.998 82.889 339.998 80.5073C339.998 78.1257 342.064 76.1847 344.601 76.1847C347.137 76.1847 349.203 78.1257 349.203 80.5073C349.203 82.889 347.137 84.83 344.601 84.83ZM344.601 76.661C342.326 76.661 340.475 78.3877 340.475 80.5073C340.475 82.627 342.326 84.3536 344.601 84.3536C346.875 84.3536 348.727 82.627 348.727 80.5073C348.727 78.3877 346.875 76.661 344.601 76.661Z" fill="#2C2C2C"/>
<path d="M342.463 80.2516C342.463 82.1152 343.672 83.6215 345.161 83.6215C346.655 83.6215 347.864 82.1092 347.864 80.2516C347.864 78.3879 346.655 76.8756 345.161 76.8756C343.672 76.8756 342.463 78.3879 342.463 80.2516Z" fill="#50BFD7"/>
<path d="M343.243 80.2515C343.243 81.5733 344.101 82.6451 345.16 82.6451C346.22 82.6451 347.078 81.5733 347.078 80.2515C347.078 78.9238 346.22 77.8521 345.16 77.8521C344.101 77.8521 343.243 78.9238 343.243 80.2515Z" fill="#2C2C2C"/>
<path d="M343.118 77.9831C343.118 78.3463 343.565 78.638 344.107 78.638C344.654 78.638 345.095 78.3463 345.095 77.9831C345.095 77.6199 344.654 77.3281 344.107 77.3281C343.565 77.3281 343.118 77.6199 343.118 77.9831Z" fill="white"/>
<path d="M327.983 196.665H334.014L336.277 154.79H325.72L327.983 196.665Z" fill="#2C2C2C"/>
<path d="M339.266 196.665H345.297L347.56 154.79H337.003L339.266 196.665Z" fill="#2C2C2C"/>
<path d="M329.507 214.182H332.913L334.193 197.26H328.227L329.507 214.182Z" fill="#2C2C2C"/>
<path d="M340.576 214.182H343.982L345.262 197.26H339.296L340.576 214.182Z" fill="#2C2C2C"/>
<path d="M369.062 133.224C369.235 132.183 367.208 130.978 364.535 130.534C361.862 130.09 359.555 130.573 359.382 131.615C359.209 132.656 361.235 133.86 363.909 134.305C366.582 134.749 368.889 134.265 369.062 133.224Z" fill="white"/>
<path d="M365.833 134.719C365.208 134.719 364.547 134.665 363.868 134.552C362.546 134.332 361.332 133.921 360.456 133.397C359.51 132.838 359.045 132.189 359.146 131.581C359.248 130.974 359.897 130.515 360.974 130.289C361.975 130.081 363.255 130.087 364.577 130.301C365.898 130.521 367.113 130.932 367.988 131.456C368.935 132.016 369.399 132.665 369.298 133.272L369.066 133.231L369.298 133.272C369.197 133.88 368.548 134.338 367.47 134.564C366.982 134.665 366.422 134.719 365.833 134.719ZM362.612 130.611C362.052 130.611 361.528 130.658 361.07 130.754C360.212 130.932 359.682 131.266 359.617 131.659C359.551 132.052 359.944 132.54 360.7 132.986C361.528 133.481 362.683 133.868 363.951 134.076C365.214 134.284 366.434 134.29 367.381 134.094C368.238 133.915 368.768 133.582 368.834 133.189C368.899 132.796 368.506 132.308 367.75 131.861C366.922 131.367 365.767 130.98 364.499 130.772C363.844 130.664 363.207 130.611 362.612 130.611Z" fill="#2C2C2C"/>
<path d="M331.222 198.219C333.484 198.219 335.318 197.289 335.318 196.141C335.318 194.993 333.484 194.063 331.222 194.063C328.96 194.063 327.125 194.993 327.125 196.141C327.125 197.289 328.96 198.219 331.222 198.219Z" fill="white"/>
<path d="M331.222 198.451C328.793 198.451 326.887 197.433 326.887 196.135C326.887 194.837 328.793 193.819 331.222 193.819C333.651 193.819 335.557 194.837 335.557 196.135C335.557 197.433 333.651 198.451 331.222 198.451ZM331.222 194.301C329.132 194.301 327.364 195.141 327.364 196.141C327.364 197.141 329.132 197.981 331.222 197.981C333.312 197.981 335.08 197.141 335.08 196.141C335.08 195.141 333.312 194.301 331.222 194.301Z" fill="#2C2C2C"/>
<path d="M342.41 198.219C344.672 198.219 346.506 197.289 346.506 196.141C346.506 194.993 344.672 194.063 342.41 194.063C340.147 194.063 338.313 194.993 338.313 196.141C338.313 197.289 340.147 198.219 342.41 198.219Z" fill="white"/>
<path d="M342.41 198.451C339.98 198.451 338.075 197.433 338.075 196.135C338.075 194.837 339.98 193.819 342.41 193.819C344.839 193.819 346.744 194.837 346.744 196.135C346.744 197.433 344.845 198.451 342.41 198.451ZM342.41 194.301C340.32 194.301 338.552 195.141 338.552 196.141C338.552 197.141 340.32 197.981 342.41 197.981C344.5 197.981 346.268 197.141 346.268 196.141C346.268 195.141 344.506 194.301 342.41 194.301Z" fill="#2C2C2C"/>
<path d="M368.234 136.624C368.641 135.647 366.948 134.012 364.453 132.973C361.958 131.934 359.605 131.884 359.198 132.862C358.791 133.839 360.484 135.474 362.979 136.513C365.474 137.552 367.827 137.602 368.234 136.624Z" fill="white"/>
<path d="M366.5 137.571C366.441 137.571 366.387 137.571 366.327 137.571C365.297 137.541 364.047 137.232 362.82 136.714C360.897 135.898 359.397 134.713 359.004 133.695C358.867 133.344 358.867 133.022 358.992 132.742C359.248 132.183 359.998 131.897 361.106 131.933C362.136 131.962 363.386 132.272 364.613 132.79C366.536 133.606 368.036 134.79 368.429 135.809C368.566 136.16 368.566 136.481 368.441 136.761C368.197 137.285 367.512 137.571 366.5 137.571ZM360.921 132.403C360.123 132.403 359.575 132.593 359.421 132.939C359.349 133.1 359.355 133.29 359.445 133.522C359.79 134.409 361.219 135.517 363.005 136.273C364.184 136.773 365.369 137.065 366.345 137.095C367.232 137.124 367.84 136.928 368.012 136.559C368.084 136.398 368.078 136.208 367.989 135.975C367.643 135.088 366.214 133.981 364.428 133.225C363.249 132.724 362.064 132.433 361.088 132.403C361.028 132.403 360.975 132.403 360.921 132.403Z" fill="#2C2C2C"/>
<path d="M338.588 148.128H336.492H334.396C328.156 148.128 322.91 151.694 324.959 154.743C326.84 157.541 332.014 161.816 336.498 161.882C340.981 161.822 346.155 157.547 348.037 154.743C350.073 151.694 344.833 148.128 338.588 148.128Z" fill="#50BFD7"/>
<path d="M336.491 162.12C333.878 162.084 331.305 160.697 329.614 159.536C327.644 158.19 325.786 156.404 324.762 154.874C324.155 153.968 324.107 152.968 324.637 151.986C325.232 150.872 326.53 149.842 328.287 149.086C330.091 148.312 332.258 147.889 334.402 147.889H338.593C340.731 147.889 342.904 148.312 344.708 149.086C346.47 149.842 347.768 150.872 348.358 151.986C348.882 152.968 348.84 153.968 348.233 154.874C347.209 156.404 345.345 158.19 343.38 159.536C341.677 160.691 339.105 162.084 336.491 162.12ZM334.396 148.366C332.318 148.366 330.216 148.777 328.471 149.527C326.81 150.241 325.596 151.194 325.054 152.212C324.613 153.04 324.643 153.849 325.155 154.612C327.06 157.446 332.193 161.584 336.491 161.643C340.796 161.584 345.929 157.446 347.828 154.612C348.34 153.849 348.376 153.04 347.929 152.212C347.387 151.194 346.173 150.241 344.512 149.527C342.767 148.777 340.665 148.366 338.587 148.366H334.396Z" fill="#2C2C2C"/>
<path d="M357.098 160.834L354.395 159.905C354.121 159.809 353.978 159.512 354.068 159.238L356.402 148.836C356.872 147.473 358.355 146.74 359.724 147.211L360.778 147.574C362.141 148.044 362.874 149.527 362.403 150.896L357.765 160.506C357.664 160.786 357.372 160.929 357.098 160.834Z" fill="white"/>
<path d="M357.265 161.102C357.182 161.102 357.099 161.09 357.021 161.06L354.318 160.131C354.128 160.066 353.973 159.929 353.883 159.744C353.794 159.566 353.782 159.363 353.842 159.178L356.176 148.777L356.182 148.765C356.694 147.276 358.319 146.484 359.802 146.991L360.856 147.354C361.576 147.598 362.16 148.116 362.493 148.801C362.826 149.485 362.874 150.259 362.63 150.98L362.618 151.004L357.986 160.602C357.867 160.911 357.575 161.102 357.265 161.102ZM357.176 160.607C357.325 160.661 357.486 160.578 357.539 160.429L357.551 160.405L362.183 150.807C362.386 150.212 362.344 149.569 362.064 149.003C361.784 148.431 361.302 148.009 360.701 147.8L359.647 147.437C358.414 147.014 357.063 147.669 356.634 148.902L354.3 159.304L354.294 159.315C354.27 159.387 354.276 159.464 354.306 159.536C354.336 159.607 354.395 159.655 354.467 159.679L357.176 160.607Z" fill="#2C2C2C"/>
<path d="M357.42 155.647C356.55 155.35 355.645 155.397 354.86 155.725L354.068 159.25C353.972 159.524 354.121 159.821 354.395 159.916L357.098 160.845C357.372 160.941 357.67 160.792 357.765 160.518L359.361 157.213C358.926 156.499 358.259 155.933 357.42 155.647Z" fill="#50BFD7"/>
<path d="M357.265 161.102C357.182 161.102 357.098 161.09 357.021 161.06L354.318 160.131C353.925 159.994 353.71 159.571 353.841 159.178L354.657 155.546L354.77 155.499C355.64 155.142 356.61 155.112 357.503 155.421C358.361 155.713 359.093 156.303 359.563 157.083L359.629 157.196L357.985 160.607C357.866 160.911 357.575 161.102 357.265 161.102ZM355.062 155.898L354.294 159.309L354.288 159.321C354.234 159.47 354.318 159.631 354.467 159.684L357.17 160.613C357.319 160.667 357.479 160.584 357.533 160.435L357.545 160.411L359.081 157.225C358.664 156.6 358.051 156.124 357.336 155.874C356.598 155.618 355.794 155.624 355.062 155.898Z" fill="#2C2C2C"/>
<path d="M358.152 160.357C358.152 160.357 357.974 158.333 355.461 157.964C352.949 157.589 352.752 160.179 351.686 160.971C350.615 161.763 349.346 162.953 349.704 163.436C350.061 163.918 352.437 162.983 353.02 162.549C353.61 162.114 353.514 165.621 353.371 166.597C353.228 167.574 350.68 169.67 351.115 170.259C351.549 170.848 355.42 168.02 355.926 167.645C356.438 167.264 358.016 161.286 358.152 160.357Z" fill="white"/>
<path d="M351.311 170.574C351.115 170.574 351.002 170.497 350.93 170.396C350.585 169.925 351.204 169.181 351.996 168.24C352.508 167.627 353.085 166.936 353.145 166.555C353.205 166.168 353.258 165.281 353.252 164.412C353.24 163.352 353.145 162.941 353.085 162.792C352.716 163.03 352.008 163.346 351.353 163.554C349.858 164.031 349.602 163.685 349.519 163.572C349.162 163.09 349.781 162.387 349.989 162.155C350.364 161.738 350.93 161.232 351.549 160.774C351.853 160.548 352.097 160.125 352.353 159.684C352.925 158.69 353.639 157.445 355.503 157.725C356.89 157.928 357.599 158.624 357.956 159.166C358.343 159.762 358.39 160.309 358.396 160.333V160.363L358.39 160.393C358.313 160.905 357.861 162.715 357.414 164.275C356.479 167.538 356.187 167.752 356.08 167.835C355.866 167.99 354.759 168.812 353.633 169.514C352.329 170.324 351.668 170.574 351.311 170.574ZM351.305 170.098C351.406 170.11 351.859 170.068 353.526 169.008C354.586 168.335 355.598 167.591 355.789 167.448C355.812 167.424 356.11 167.085 356.967 164.09C357.438 162.447 357.837 160.827 357.914 160.357C357.884 160.125 357.593 158.523 355.431 158.202C353.889 157.975 353.318 158.97 352.764 159.928C352.484 160.417 352.216 160.881 351.835 161.167C351.24 161.607 350.698 162.09 350.347 162.483C349.894 162.989 349.858 163.239 349.906 163.298C349.954 163.346 350.305 163.411 351.258 163.102C351.972 162.87 352.651 162.542 352.895 162.364C353.026 162.262 353.187 162.25 353.312 162.328C353.437 162.405 353.705 162.56 353.728 164.322C353.74 165.251 353.681 166.204 353.621 166.633C353.544 167.151 352.972 167.829 352.371 168.556C352.043 168.949 351.728 169.324 351.525 169.633C351.317 169.931 351.305 170.056 351.305 170.098Z" fill="#2C2C2C"/>
<path d="M305.036 123.388L291.08 112.481L286.989 110.593L284.596 112.29L285.59 114.35L300.529 128.015L305.036 123.388Z" fill="#2C2C2C"/>
<path d="M306.338 128.163C307.83 125.901 308.325 123.596 307.444 123.015C306.563 122.434 304.639 123.796 303.147 126.058C301.655 128.32 301.16 130.625 302.041 131.206C302.922 131.787 304.846 130.425 306.338 128.163Z" fill="white"/>
<path d="M302.517 131.576C302.285 131.576 302.083 131.516 301.904 131.403C301.392 131.063 301.231 130.283 301.464 129.212C301.678 128.211 302.202 127.044 302.94 125.925C303.679 124.806 304.542 123.865 305.381 123.276C306.28 122.638 307.054 122.478 307.572 122.817C308.085 123.156 308.245 123.936 308.013 125.008C307.799 126.008 307.275 127.175 306.536 128.295C305.798 129.414 304.935 130.355 304.095 130.944C303.506 131.361 302.964 131.576 302.517 131.576ZM302.172 131.004C302.506 131.224 303.107 131.057 303.827 130.551C304.613 129.992 305.441 129.099 306.144 128.027C306.852 126.955 307.352 125.848 307.555 124.901C307.739 124.044 307.65 123.424 307.316 123.204C306.983 122.984 306.382 123.151 305.661 123.657C304.875 124.216 304.048 125.109 303.345 126.181C302.643 127.253 302.136 128.36 301.934 129.307C301.749 130.17 301.833 130.784 302.172 131.004Z" fill="#2C2C2C"/>
<path d="M304.142 127.093C306.105 125.235 307.107 123.105 306.379 122.336C305.651 121.567 303.47 122.45 301.506 124.308C299.543 126.166 298.542 128.296 299.27 129.065C299.997 129.834 302.179 128.951 304.142 127.093Z" fill="white"/>
<path d="M300.041 129.581C300.011 129.581 299.975 129.581 299.945 129.581C299.57 129.563 299.272 129.438 299.07 129.206C298.665 128.741 298.707 127.943 299.189 126.943C299.636 126.014 300.422 124.996 301.398 124.085C302.922 122.656 304.613 121.769 305.709 121.822C306.084 121.84 306.382 121.965 306.584 122.198C306.989 122.662 306.947 123.46 306.465 124.46C306.018 125.389 305.233 126.407 304.256 127.318C302.768 128.705 301.13 129.581 300.041 129.581ZM305.608 122.293C304.649 122.293 303.101 123.138 301.726 124.43C300.791 125.306 300.047 126.27 299.618 127.145C299.231 127.949 299.165 128.58 299.433 128.884C299.546 129.015 299.731 129.086 299.975 129.098C299.999 129.098 300.023 129.098 300.052 129.098C301.011 129.098 302.559 128.253 303.935 126.961C304.869 126.086 305.614 125.121 306.042 124.246C306.429 123.442 306.495 122.811 306.227 122.507C306.114 122.376 305.929 122.305 305.685 122.293C305.655 122.299 305.631 122.293 305.608 122.293Z" fill="#2C2C2C"/>
<path d="M281.673 109.057L283.62 106.961C283.816 106.747 284.149 106.735 284.358 106.931L292.914 113.29C293.974 114.273 294.033 115.928 293.051 116.982L292.295 117.797C291.312 118.857 289.657 118.917 288.603 117.934L281.702 109.795C281.488 109.599 281.476 109.271 281.673 109.057Z" fill="white"/>
<path d="M290.377 118.875C289.681 118.875 288.984 118.625 288.436 118.113L288.419 118.095L281.53 109.962C281.387 109.825 281.303 109.641 281.297 109.444C281.292 109.242 281.363 109.045 281.5 108.896L283.447 106.801C283.727 106.497 284.203 106.473 284.513 106.753L293.069 113.112L293.081 113.118C294.236 114.19 294.301 115.994 293.229 117.149L292.473 117.964C291.908 118.566 291.145 118.875 290.377 118.875ZM288.776 117.774C289.734 118.655 291.235 118.596 292.122 117.643L292.878 116.827C293.765 115.869 293.712 114.368 292.765 113.481L284.209 107.116L284.197 107.11C284.084 107.003 283.899 107.009 283.792 107.128L281.851 109.218L281.679 109.057L281.851 109.218C281.798 109.272 281.774 109.349 281.774 109.42C281.774 109.498 281.81 109.569 281.863 109.617L281.881 109.635L288.776 117.774Z" fill="#2C2C2C"/>
<path d="M286.287 111.463C286.912 110.79 287.234 109.944 287.257 109.093L284.358 106.937C284.143 106.741 283.816 106.753 283.62 106.967L281.673 109.057C281.476 109.271 281.488 109.599 281.702 109.795L284.078 112.594C284.894 112.493 285.68 112.111 286.287 111.463Z" fill="#50BFD7"/>
<path d="M283.977 112.85L281.53 109.962C281.387 109.825 281.303 109.641 281.297 109.444C281.292 109.242 281.363 109.045 281.5 108.896L283.447 106.801C283.584 106.652 283.774 106.568 283.977 106.556C284.173 106.55 284.364 106.616 284.513 106.747L287.502 108.968L287.496 109.093C287.466 110.034 287.097 110.933 286.46 111.617C285.84 112.29 285.007 112.719 284.108 112.832L283.977 112.85ZM284.007 107.033C284.001 107.033 284.001 107.033 283.995 107.033C283.917 107.033 283.846 107.068 283.798 107.122L281.851 109.218C281.798 109.271 281.774 109.349 281.774 109.42C281.774 109.498 281.81 109.569 281.863 109.617L281.881 109.635L284.167 112.332C284.912 112.207 285.596 111.844 286.108 111.29C286.644 110.712 286.96 109.974 287.013 109.194L284.203 107.11L284.191 107.104C284.143 107.062 284.078 107.033 284.007 107.033Z" fill="#2C2C2C"/>
<path d="M281.684 110.218C281.684 110.218 283.607 110.879 284.965 108.736C286.328 106.592 284.042 105.36 283.75 104.062C283.459 102.764 282.887 101.121 282.303 101.252C281.72 101.383 281.607 103.931 281.768 104.645C281.928 105.36 278.761 103.853 277.927 103.324C277.094 102.794 276.213 99.6142 275.498 99.7749C274.784 99.9357 275.796 104.616 275.933 105.235C276.07 105.848 280.886 109.712 281.684 110.218Z" fill="white"/>
<path d="M282.381 110.552C281.929 110.552 281.619 110.45 281.601 110.444L281.577 110.433L281.553 110.415C281.119 110.141 279.648 108.986 278.404 107.944C275.802 105.765 275.724 105.413 275.695 105.276C275.635 105.02 275.343 103.669 275.153 102.359C274.819 100.007 275.093 99.614 275.439 99.5366C276.01 99.4116 276.433 100.281 276.975 101.382C277.326 102.097 277.719 102.907 278.046 103.115C278.38 103.323 279.166 103.734 279.964 104.08C280.94 104.502 281.351 104.58 281.506 104.586C281.434 104.151 281.434 103.371 281.512 102.692C281.684 101.132 282.107 101.037 282.244 101.007C282.834 100.876 283.221 101.734 283.346 102.014C283.578 102.526 283.804 103.246 283.977 104.002C284.06 104.371 284.346 104.764 284.65 105.175C285.328 106.104 286.174 107.259 285.162 108.849C284.411 110.034 283.488 110.403 282.845 110.504C282.685 110.54 282.524 110.552 282.381 110.552ZM281.786 109.998C282.012 110.063 283.59 110.45 284.763 108.605C285.596 107.289 284.923 106.36 284.268 105.467C283.935 105.008 283.619 104.58 283.518 104.115C283.357 103.395 283.137 102.698 282.923 102.222C282.643 101.603 282.429 101.472 282.357 101.484C282.298 101.507 282.095 101.805 281.988 102.799C281.911 103.544 281.934 104.3 282 104.592C282.036 104.752 281.982 104.901 281.863 104.991C281.744 105.074 281.488 105.253 279.868 104.562C279.011 104.193 278.16 103.752 277.796 103.52C277.356 103.24 276.963 102.442 276.552 101.597C276.326 101.138 276.111 100.698 275.909 100.388C275.712 100.09 275.605 100.025 275.564 100.013C275.51 100.096 275.367 100.531 275.659 102.484C275.843 103.722 276.117 104.955 276.165 105.187C276.177 105.223 276.367 105.628 278.755 107.628C280.071 108.718 281.381 109.736 281.786 109.998Z" fill="#2C2C2C"/>
<path d="M343.695 224.024H340.855C340.569 224.024 340.337 223.792 340.337 223.506L339.182 212.973C339.182 211.538 340.343 210.377 341.778 210.377H342.886C344.32 210.377 345.482 211.538 345.482 212.973L344.219 223.506C344.219 223.792 343.987 224.024 343.695 224.024Z" fill="white"/>
<path d="M343.695 224.262H340.855C340.445 224.262 340.105 223.929 340.099 223.518L338.944 212.985V212.973C338.944 211.407 340.218 210.139 341.778 210.139H342.886C344.452 210.139 345.72 211.413 345.72 212.973V213.003L344.458 223.524C344.446 223.928 344.112 224.262 343.695 224.262ZM339.414 212.961L340.57 223.494V223.506C340.57 223.661 340.695 223.786 340.849 223.786H343.695C343.85 223.786 343.975 223.661 343.975 223.506V223.476L345.238 212.955C345.232 211.657 344.172 210.609 342.88 210.609H341.772C340.48 210.609 339.42 211.663 339.414 212.961Z" fill="#2C2C2C"/>
<path d="M340.546 227.679C340.23 227.447 339.968 227.149 339.766 226.816C339.563 226.477 339.432 226.107 339.379 225.714C339.325 225.327 339.343 224.929 339.438 224.547C339.534 224.166 339.706 223.809 339.938 223.494L340.123 223.267C340.492 222.862 340.962 222.571 341.486 222.416C342.01 222.261 342.564 222.255 343.094 222.392C343.624 222.529 344.1 222.815 344.481 223.208C344.862 223.601 345.124 224.089 345.243 224.625C345.363 225.155 345.333 225.714 345.16 226.227C344.987 226.745 344.672 227.203 344.255 227.554C343.838 227.906 343.332 228.138 342.79 228.221C342.249 228.304 341.701 228.239 341.195 228.037C340.962 227.947 340.748 227.822 340.546 227.679Z" fill="white"/>
<path d="M342.326 228.501C341.909 228.501 341.493 228.418 341.106 228.263C340.855 228.162 340.623 228.031 340.403 227.87C340.064 227.614 339.778 227.298 339.558 226.935C339.337 226.572 339.2 226.167 339.135 225.75C339.075 225.328 339.093 224.905 339.2 224.494C339.307 224.083 339.486 223.696 339.742 223.357L339.748 223.351L339.945 223.113C340.343 222.678 340.85 222.362 341.415 222.196C341.981 222.029 342.582 222.023 343.154 222.172C343.725 222.321 344.243 222.624 344.648 223.053C345.059 223.476 345.345 224.006 345.47 224.583C345.601 225.161 345.571 225.756 345.381 226.316C345.19 226.876 344.857 227.37 344.404 227.751C343.952 228.132 343.41 228.382 342.826 228.471C342.666 228.489 342.499 228.501 342.326 228.501ZM340.683 227.489C340.867 227.626 341.07 227.739 341.284 227.822C341.749 228.013 342.261 228.072 342.755 227.995C343.249 227.918 343.719 227.703 344.1 227.382C344.482 227.06 344.773 226.637 344.934 226.161C345.095 225.685 345.119 225.173 345.011 224.684C344.898 224.196 344.66 223.744 344.309 223.381C343.958 223.017 343.517 222.761 343.035 222.63C342.546 222.499 342.034 222.511 341.552 222.648C341.07 222.791 340.641 223.059 340.302 223.428L340.123 223.643C339.909 223.934 339.754 224.256 339.665 224.607C339.575 224.958 339.558 225.322 339.611 225.679C339.665 226.036 339.784 226.375 339.968 226.691C340.153 227.001 340.397 227.269 340.683 227.489Z" fill="#2C2C2C"/>
<path d="M337.414 227.894C337.087 228.716 337.676 229.561 338.456 229.561H346.196C346.982 229.561 347.566 228.716 347.238 227.894C346.298 225.518 344.452 223.911 342.326 223.911C340.207 223.911 338.361 225.518 337.414 227.894Z" fill="#50BFD7"/>
<path d="M346.196 229.799H338.456C338.015 229.799 337.593 229.573 337.337 229.192C337.063 228.787 337.009 228.269 337.194 227.805C338.206 225.256 340.177 223.672 342.326 223.672C344.482 223.672 346.446 225.256 347.459 227.805C347.643 228.269 347.59 228.787 347.316 229.192C347.06 229.573 346.643 229.799 346.196 229.799ZM337.64 227.983C337.515 228.305 337.545 228.65 337.736 228.924C337.908 229.174 338.176 229.323 338.462 229.323H346.202C346.488 229.323 346.762 229.174 346.929 228.924C347.119 228.644 347.149 228.305 347.024 227.983C346.083 225.619 344.285 224.149 342.332 224.149C340.373 224.149 338.575 225.614 337.64 227.983Z" fill="#2C2C2C"/>
<path d="M332.592 224.024H329.746C329.46 224.024 329.228 223.792 329.228 223.506L328.073 212.973C328.073 211.538 329.234 210.377 330.669 210.377H331.776C333.211 210.377 334.372 211.538 334.372 212.973L333.11 223.506C333.11 223.792 332.878 224.024 332.592 224.024Z" fill="white"/>
<path d="M332.592 224.262H329.746C329.335 224.262 328.996 223.929 328.99 223.518L327.834 212.985V212.973C327.834 211.407 329.109 210.139 330.669 210.139H331.776C333.342 210.139 334.61 211.413 334.61 212.973V213.003L333.348 223.524C333.342 223.928 333.003 224.262 332.592 224.262ZM328.311 212.961L329.466 223.494V223.506C329.466 223.661 329.591 223.786 329.746 223.786H332.592C332.747 223.786 332.872 223.661 332.872 223.506V223.476L334.134 212.955C334.128 211.657 333.068 210.609 331.776 210.609H330.669C329.371 210.609 328.317 211.663 328.311 212.961Z" fill="#2C2C2C"/>
<path d="M329.436 227.679C329.12 227.447 328.858 227.149 328.656 226.816C328.453 226.477 328.322 226.107 328.269 225.714C328.215 225.327 328.233 224.929 328.328 224.547C328.424 224.166 328.596 223.809 328.829 223.494L329.013 223.267C329.382 222.862 329.853 222.571 330.377 222.416C330.901 222.261 331.454 222.255 331.984 222.392C332.514 222.529 332.99 222.815 333.371 223.208C333.753 223.601 334.015 224.089 334.134 224.625C334.253 225.155 334.223 225.714 334.05 226.227C333.878 226.745 333.562 227.203 333.145 227.554C332.728 227.906 332.222 228.138 331.681 228.221C331.139 228.304 330.591 228.239 330.085 228.037C329.859 227.947 329.638 227.822 329.436 227.679Z" fill="white"/>
<path d="M331.222 228.501C330.805 228.501 330.389 228.418 330.002 228.263C329.751 228.162 329.519 228.031 329.299 227.87C328.96 227.614 328.674 227.298 328.454 226.935C328.233 226.572 328.096 226.167 328.031 225.75C327.971 225.328 327.989 224.905 328.096 224.494C328.203 224.083 328.382 223.696 328.638 223.357L328.644 223.351L328.841 223.113C329.239 222.678 329.746 222.362 330.311 222.196C330.877 222.029 331.478 222.023 332.05 222.172C332.621 222.321 333.139 222.624 333.544 223.053C333.955 223.476 334.241 224.006 334.366 224.583C334.497 225.161 334.467 225.756 334.277 226.316C334.086 226.876 333.753 227.37 333.3 227.751C332.848 228.132 332.306 228.382 331.722 228.471C331.556 228.489 331.389 228.501 331.222 228.501ZM329.579 227.489C329.763 227.626 329.966 227.739 330.18 227.822C330.645 228.013 331.157 228.072 331.651 227.995C332.145 227.918 332.615 227.703 332.996 227.382C333.378 227.06 333.669 226.637 333.83 226.161C333.991 225.685 334.015 225.173 333.907 224.684C333.794 224.196 333.556 223.744 333.205 223.381C332.854 223.017 332.413 222.761 331.931 222.63C331.442 222.499 330.93 222.511 330.448 222.648C329.966 222.791 329.537 223.059 329.198 223.428L329.019 223.643C328.805 223.934 328.65 224.256 328.561 224.607C328.471 224.958 328.454 225.322 328.507 225.679C328.561 226.036 328.68 226.375 328.864 226.691C329.049 227.001 329.287 227.269 329.579 227.489Z" fill="#2C2C2C"/>
<path d="M326.31 227.894C325.983 228.716 326.572 229.561 327.352 229.561H335.092C335.878 229.561 336.462 228.716 336.134 227.894C335.194 225.518 333.348 223.911 331.222 223.911C329.097 223.911 327.251 225.518 326.31 227.894Z" fill="#50BFD7"/>
<path d="M335.092 229.799H327.352C326.911 229.799 326.489 229.573 326.233 229.192C325.959 228.787 325.905 228.269 326.09 227.805C327.102 225.256 329.073 223.672 331.222 223.672C333.378 223.672 335.342 225.256 336.355 227.805C336.539 228.269 336.486 228.787 336.212 229.192C335.956 229.573 335.533 229.799 335.092 229.799ZM326.53 227.983C326.405 228.305 326.435 228.65 326.626 228.924C326.798 229.174 327.066 229.323 327.352 229.323H335.092C335.378 229.323 335.652 229.174 335.819 228.924C336.009 228.644 336.039 228.305 335.914 227.983C334.973 225.619 333.175 224.149 331.222 224.149C329.269 224.149 327.471 225.614 326.53 227.983Z" fill="#2C2C2C"/>
</svg>
