<svg width="407" height="299" viewBox="0 0 407 299" fill="none" xmlns="http://www.w3.org/2000/svg">
<path d="M262.832 298.359C262.832 298.359 334.699 301.719 380.158 220.502C425.617 139.285 372.128 64.575 289.498 48.4313C206.869 32.2876 165.702 -28.3275 92.0541 18.073C18.406 64.4735 59.3329 311.586 262.832 298.359Z" fill="#70CDE0"/>
<path opacity="0.4" d="M262.832 298.359C262.832 298.359 334.699 301.719 380.158 220.502C425.617 139.285 372.128 64.575 289.498 48.4313C206.869 32.2876 165.702 -28.3275 92.0541 18.073C18.406 64.4735 59.3329 311.586 262.832 298.359Z" fill="white"/>
<path d="M193.7 49.3829V80.3979C193.746 83.0594 194.839 85.5955 196.741 87.4571C198.644 89.3188 201.203 90.3562 203.865 90.3447H315.059C316.395 90.3475 317.719 90.0868 318.954 89.5777C320.189 89.0685 321.312 88.3209 322.258 87.3775C323.204 86.434 323.955 85.3134 324.467 84.0795C324.98 82.8457 325.244 81.523 325.245 80.1869V53.9694L339.089 39.4221L203.879 39C202.526 39.0045 201.188 39.2776 199.942 39.8035C198.695 40.3294 197.566 41.0976 196.619 42.0636C195.672 43.0295 194.926 44.1739 194.425 45.4304C193.924 46.6869 193.678 48.0304 193.7 49.3829Z" fill="#F5F5F5"/>
<path d="M308.826 57.7961L207.889 57.3248L207.903 54.2226L308.834 54.6939L308.826 57.7961Z" fill="#E0E0E0"/>
<path d="M308.826 68.0032L207.889 67.5319L207.903 64.4297L308.834 64.901L308.826 68.0032Z" fill="#E0E0E0"/>
<path d="M268.892 74.6486L268.877 77.7508L308.811 77.946L308.826 74.8438L268.892 74.6486Z" fill="#E0E0E0"/>
<path d="M148.784 113.01V137.047C148.784 139.135 147.954 141.138 146.478 142.615C145.002 144.092 143 144.923 140.912 144.925H54.7254C52.6371 144.923 50.6349 144.092 49.1589 142.615C47.6829 141.138 46.8538 139.135 46.8538 137.047V116.738L36.1262 105.483L140.891 105.124C141.927 105.121 142.954 105.323 143.913 105.719C144.871 106.114 145.742 106.694 146.476 107.427C147.209 108.16 147.79 109.03 148.186 109.988C148.582 110.946 148.785 111.973 148.784 113.01Z" fill="#E0E0E0"/>
<path d="M59.5581 119.699L137.767 119.341L137.76 116.935L59.551 117.294L59.5581 119.699Z" fill="#FAFAFA"/>
<path d="M59.5581 127.606L137.767 127.248L137.76 124.842L59.551 125.208L59.5581 127.606Z" fill="#FAFAFA"/>
<path d="M90.4846 132.769L59.5403 132.92L59.552 135.326L90.4964 135.175L90.4846 132.769Z" fill="#FAFAFA"/>
<path d="M406.267 256.239C406.267 256.345 315.522 256.422 203.589 256.422C91.6563 256.422 0.883301 256.366 0.883301 256.239C0.883301 256.112 91.6282 256.056 203.589 256.056C315.55 256.056 406.267 256.141 406.267 256.239Z" fill="#263238"/>
<path d="M220.086 236.518V216.387H187.689V236.518C187.694 239.968 186.332 243.278 183.901 245.726L176.517 253.177H231.257L223.879 245.726C221.444 243.281 220.08 239.969 220.086 236.518Z" fill="white" stroke="#263238" stroke-width="1.10627" stroke-linecap="round" stroke-linejoin="round"/>
<path opacity="0.44" d="M187.688 216.387V236.518C187.687 238.079 187.404 239.626 186.852 241.086H220.922C220.373 239.625 220.09 238.079 220.086 236.518V216.387H187.688Z" fill="#51C0D7"/>
<path d="M220.086 217.296H187.688V232.232H220.086V217.296Z" fill="#263238" stroke="#263238" stroke-width="1.10627" stroke-miterlimit="10"/>
<path d="M125.318 93.1655H282.462C283.461 93.1647 284.45 93.3611 285.373 93.7433C286.296 94.1256 287.134 94.6861 287.84 95.3929C288.546 96.0997 289.105 96.9389 289.486 97.8622C289.867 98.7856 290.062 99.775 290.059 100.774V218.086C290.052 220.271 289.177 222.364 287.627 223.905C286.078 225.445 283.98 226.307 281.795 226.301H125.991C123.807 226.301 121.712 225.433 120.167 223.888C118.622 222.344 117.754 220.249 117.754 218.064V100.746C117.757 98.7392 118.555 96.8154 119.972 95.3949C121.389 93.9744 123.311 93.1729 125.318 93.1655Z" fill="#263238" stroke="#263238" stroke-width="1.10627" stroke-miterlimit="10"/>
<path d="M117.726 210.893H290.059V218.064C290.059 220.248 289.192 222.343 287.647 223.888C286.102 225.433 284.007 226.301 281.823 226.301H125.991C123.807 226.301 121.712 225.433 120.167 223.888C118.622 222.343 117.754 220.248 117.754 218.064V210.893H117.726Z" fill="white" stroke="#263238" stroke-width="1.10627" stroke-miterlimit="10"/>
<rect x="126.867" y="101.275" width="154.759" height="100.593" fill="white"/>
<path d="M224.283 192.149L227.45 190.581L230.544 192.302L230.026 188.802L232.618 186.395L229.129 185.804L227.64 182.594L226.004 185.73L222.493 186.152L224.964 188.681L224.283 192.149Z" fill="#E0E0E0"/>
<path d="M211.36 192.149L214.528 190.581L217.621 192.302L217.104 188.802L219.696 186.395L216.206 185.804L214.718 182.594L213.081 185.73L209.571 186.152L212.041 188.681L211.36 192.149Z" fill="#51C0D7"/>
<path d="M198.437 192.149L201.605 190.581L204.693 192.302L204.181 188.802L206.773 186.395L203.283 185.804L201.795 182.594L200.158 185.73L196.648 186.152L199.118 188.681L198.437 192.149Z" fill="#51C0D7"/>
<path d="M185.514 192.149L188.682 190.581L191.77 192.302L191.258 188.802L193.85 186.395L190.361 185.804L188.872 182.594L187.235 185.73L183.725 186.152L186.195 188.681L185.514 192.149Z" fill="#51C0D7"/>
<path d="M172.592 192.149L175.759 190.581L178.847 192.302L178.335 188.802L180.927 186.395L177.438 185.804L175.949 182.594L174.313 185.73L170.802 186.152L173.273 188.681L172.592 192.149Z" fill="#51C0D7"/>
<path d="M232.766 114.363C232.766 114.443 218.587 114.506 201.093 114.506C183.598 114.506 169.419 114.443 169.419 114.363C169.419 114.284 183.593 114.226 201.093 114.226C218.592 114.226 232.766 114.289 232.766 114.363Z" fill="#263238"/>
<path d="M217.194 110.563C217.194 110.642 210.194 110.705 201.557 110.705C192.921 110.705 185.916 110.642 185.916 110.563C185.916 110.483 192.916 110.42 201.557 110.42C210.199 110.42 217.194 110.483 217.194 110.563Z" fill="#263238"/>
<path d="M264.968 120.788C264.968 120.867 236.636 120.93 201.689 120.93C166.742 120.93 138.405 120.867 138.405 120.788C138.405 120.709 166.737 120.651 201.689 120.651C236.641 120.651 264.968 120.714 264.968 120.788Z" fill="#E0E0E0"/>
<path d="M264.968 123.929C264.968 124.003 236.636 124.066 201.689 124.066C166.742 124.066 138.405 124.003 138.405 123.929C138.405 123.855 166.737 123.786 201.689 123.786C236.641 123.786 264.968 123.85 264.968 123.929Z" fill="#E0E0E0"/>
<path d="M224.291 135.458L227.407 138.46L199.054 165.777L186.591 153.769L189.707 150.767L199.054 159.773L224.291 135.458ZM224.291 129.39L199.054 153.705L189.707 144.699L180.293 153.769L199.054 171.845L233.705 138.46L224.291 129.39Z" fill="#50BFD7"/>
<path d="M315.541 82.1433C314.473 86.551 316.877 102.579 320.817 108.643C320.817 108.643 332.237 116.056 367.907 111.849C367.907 111.849 362.137 110.006 367.539 88.8684C367.653 88.4143 367.773 87.9602 367.9 87.486C368.635 84.7478 363.259 80.0529 362.29 78.4033C355.311 66.5625 315.541 82.1433 315.541 82.1433Z" fill="#2C2C2C"/>
<path d="M295.272 144.927C295.272 144.927 293.309 144.499 292.554 143.531C291.793 142.563 291.345 142.135 288.687 140.98C286.049 139.824 285.001 138.328 285.001 138.328C285.001 138.328 283.157 140.018 287.205 141.955C289.682 143.144 281.541 142.97 279.09 142.696C279.09 142.696 277.674 143.471 280.019 144.606C282.363 145.741 280.105 145.828 284.747 147.785C289.382 149.749 294.891 150.777 296.013 147.979C297.129 145.18 295.272 144.927 295.272 144.927Z" fill="white"/>
<path fill-rule="evenodd" clip-rule="evenodd" d="M285.001 138.329L284.82 138.132L285.045 137.926L285.219 138.175L285.219 138.175L285.22 138.175L285.221 138.177C285.222 138.179 285.224 138.182 285.228 138.187C285.235 138.196 285.246 138.211 285.261 138.23C285.292 138.27 285.34 138.329 285.406 138.404C285.539 138.554 285.744 138.769 286.031 139.02C286.604 139.522 287.503 140.169 288.794 140.735C290.125 141.313 290.922 141.718 291.484 142.106C292.056 142.501 292.377 142.874 292.764 143.366L292.764 143.366L292.765 143.367C293.095 143.79 293.715 144.118 294.293 144.343C294.576 144.453 294.836 144.534 295.026 144.588C295.121 144.615 295.198 144.634 295.25 144.647C295.277 144.654 295.297 144.658 295.31 144.662C295.315 144.663 295.319 144.664 295.322 144.664C295.325 144.665 295.328 144.665 295.332 144.666C295.335 144.667 295.339 144.667 295.343 144.668C295.361 144.671 295.386 144.677 295.416 144.684C295.476 144.7 295.557 144.725 295.651 144.765C295.836 144.845 296.074 144.988 296.271 145.238C296.678 145.757 296.838 146.633 296.262 148.078L296.261 148.078C295.947 148.864 295.324 149.371 294.521 149.657C293.726 149.941 292.746 150.012 291.678 149.934C289.541 149.778 286.975 149.019 284.643 148.031C282.319 147.051 281.663 146.518 281.308 146.049C281.246 145.966 281.192 145.884 281.144 145.812C281.129 145.788 281.114 145.765 281.099 145.744C281.04 145.655 280.981 145.575 280.901 145.492C280.741 145.325 280.474 145.124 279.902 144.847C279.301 144.555 278.912 144.274 278.681 144.002C278.443 143.721 278.365 143.439 278.413 143.178C278.458 142.931 278.606 142.75 278.723 142.64C278.783 142.584 278.84 142.541 278.883 142.511C278.905 142.497 278.923 142.485 278.936 142.477C278.943 142.473 278.949 142.47 278.953 142.467C278.955 142.466 278.957 142.465 278.959 142.464L278.961 142.463L278.962 142.462L278.962 142.462C278.962 142.462 278.962 142.462 279.09 142.696L278.962 142.462L279.036 142.421L279.12 142.431C280.331 142.566 282.966 142.678 284.986 142.607C286.007 142.571 286.832 142.49 287.245 142.357C287.276 142.347 287.302 142.337 287.325 142.328C287.271 142.291 287.195 142.247 287.089 142.196C285.041 141.215 284.374 140.247 284.319 139.434C284.291 139.034 284.417 138.709 284.545 138.489C284.609 138.378 284.675 138.292 284.726 138.232C284.751 138.202 284.773 138.178 284.79 138.162C284.798 138.153 284.805 138.147 284.81 138.142C284.812 138.139 284.815 138.137 284.816 138.135L284.819 138.133L284.82 138.132L284.82 138.132C284.82 138.132 284.82 138.132 285.001 138.329ZM279.157 142.972C279.137 142.988 279.113 143.007 279.089 143.03C279.013 143.101 278.954 143.185 278.938 143.273C278.925 143.347 278.932 143.472 279.089 143.656C279.251 143.848 279.565 144.09 280.135 144.366C280.736 144.657 281.065 144.892 281.286 145.122C281.397 145.237 281.475 145.345 281.543 145.446C281.563 145.476 281.581 145.504 281.599 145.531C281.643 145.598 281.683 145.659 281.734 145.727C281.997 146.074 282.534 146.562 284.851 147.539L284.851 147.539C287.154 148.515 289.66 149.251 291.717 149.401C292.746 149.476 293.644 149.403 294.342 149.154C295.033 148.907 295.519 148.493 295.766 147.88C296.305 146.527 296.093 145.877 295.851 145.569C295.723 145.406 295.567 145.311 295.439 145.256C295.376 145.228 295.321 145.212 295.284 145.202C295.265 145.197 295.251 145.194 295.243 145.193C295.239 145.192 295.236 145.192 295.235 145.191C295.234 145.191 295.234 145.191 295.234 145.191L295.226 145.19L295.215 145.188L295.272 144.927C295.215 145.188 295.215 145.188 295.215 145.188L295.215 145.188L295.213 145.187L295.208 145.186C295.204 145.185 295.198 145.184 295.19 145.182C295.174 145.178 295.151 145.173 295.123 145.166C295.065 145.152 294.982 145.131 294.881 145.102C294.679 145.045 294.402 144.959 294.099 144.841C293.507 144.611 292.768 144.24 292.344 143.696C291.97 143.22 291.687 142.895 291.18 142.545C290.664 142.189 289.908 141.802 288.581 141.225L288.58 141.225C287.234 140.635 286.289 139.957 285.679 139.422C285.374 139.155 285.153 138.924 285.006 138.758C284.916 138.915 284.834 139.133 284.852 139.397C284.887 139.913 285.322 140.758 287.32 141.714L287.32 141.714C287.484 141.793 287.62 141.873 287.721 141.958C287.815 142.037 287.92 142.155 287.934 142.315C287.95 142.496 287.846 142.625 287.75 142.699C287.656 142.772 287.534 142.825 287.409 142.865C286.915 143.025 286.016 143.106 285.005 143.141C283.013 143.211 280.435 143.106 279.157 142.972ZM279.22 142.93C279.22 142.93 279.22 142.93 279.22 142.93L279.22 142.93Z" fill="#2C2C2C"/>
<path d="M350.336 160.374C350.336 160.374 344.379 161.075 343.13 161.075C343.117 161.075 343.103 161.075 343.09 161.075C343.083 161.075 343.076 161.075 343.07 161.075C343.063 161.075 343.056 161.075 343.05 161.075C343.036 161.075 343.023 161.075 343.01 161.075C341.754 161.075 335.804 160.374 335.804 160.374C327.863 162.878 328.431 174.465 328.437 174.793C328.491 177.184 328.524 179.581 328.584 181.972C328.725 187.602 330.16 204.465 330.528 209.828C330.561 210.268 330.581 210.636 330.595 210.91C331.196 222.944 331.79 234.979 332.391 247.013C332.444 248.068 332.498 249.13 332.551 250.185C332.551 250.185 335.343 251.922 340.819 250.185L340.866 211.097L342.389 182.052C342.389 182.052 342.669 182.012 343.003 181.979C343.023 181.979 343.043 181.985 343.07 181.985V181.992C343.076 181.992 343.083 181.992 343.09 181.992C343.097 181.992 343.103 181.992 343.11 181.992V181.985C343.13 181.985 343.15 181.979 343.177 181.979C343.511 182.012 343.791 182.052 343.791 182.052L345.314 211.097L345.361 250.185C350.837 251.922 353.628 250.185 353.628 250.185C353.682 249.13 353.735 248.068 353.789 247.013C354.39 234.979 354.977 222.944 355.585 210.91C355.599 210.636 355.619 210.268 355.652 209.828C356.013 204.472 357.455 187.602 357.595 181.972C357.655 179.581 357.689 177.184 357.742 174.793C357.709 174.465 358.27 162.878 350.336 160.374Z" fill="#2C2C2C"/>
<path d="M327.716 128.972C327.716 128.972 322.16 155.899 319.629 157.382C317.592 158.577 301.977 153.495 296.047 151.498C294.638 151.031 293.776 150.723 293.776 150.723L294.798 143.818L298.144 144.272L314.807 146.536C314.807 146.536 320.423 119.175 324.457 118.841C328.497 118.5 327.716 128.972 327.716 128.972Z" fill="#2C2C2C"/>
<path d="M360.367 118.674C360.367 118.674 380.075 138.569 381.37 148.513C381.37 148.513 378.372 154.136 360.32 164.862L358.711 160.261C358.711 160.261 368.788 148.694 372.288 145.768C372.288 145.768 356.507 132.719 356.874 129.019C357.241 125.306 358.156 118.868 360.367 118.674Z" fill="#2C2C2C"/>
<path d="M368.428 127.029C368.428 131.29 365.636 133.928 361.375 133.928C357.114 133.928 353.662 130.475 353.662 126.214C353.662 121.953 356.881 117.252 360.941 118.527C365.416 119.923 368.428 122.768 368.428 127.029Z" fill="white"/>
<path fill-rule="evenodd" clip-rule="evenodd" d="M355.983 120.467C354.713 121.965 353.929 124.144 353.929 126.214C353.929 130.327 357.262 133.66 361.375 133.66C363.45 133.66 365.142 133.019 366.313 131.884C367.484 130.75 368.161 129.099 368.161 127.029C368.161 122.93 365.276 120.159 360.862 118.782L360.861 118.782C358.963 118.186 357.248 118.974 355.983 120.467ZM361.021 118.272C358.858 117.593 356.934 118.518 355.575 120.122C354.22 121.721 353.395 124.023 353.395 126.214C353.395 130.622 356.967 134.195 361.375 134.195C363.561 134.195 365.396 133.517 366.685 132.268C367.976 131.017 368.695 129.219 368.695 127.029C368.695 122.605 365.556 119.687 361.021 118.272Z" fill="#2C2C2C"/>
<path d="M364.962 125.787C364.962 128.939 362.898 130.889 359.746 130.889C356.594 130.889 354.042 128.338 354.042 125.186C354.042 122.033 356.42 118.554 359.432 119.496C362.731 120.537 364.962 122.641 364.962 125.787Z" fill="#2C2C2C"/>
<path d="M316.67 127.029C316.67 131.289 319.461 133.927 323.722 133.927C327.983 133.927 331.429 130.468 331.429 126.214C331.429 121.96 328.21 117.251 324.15 118.527C319.682 119.923 316.67 122.768 316.67 127.029Z" fill="white"/>
<path fill-rule="evenodd" clip-rule="evenodd" d="M329.516 120.124C330.871 121.724 331.696 124.027 331.696 126.214C331.696 130.615 328.131 134.195 323.722 134.195C321.537 134.195 319.702 133.517 318.412 132.268C317.122 131.018 316.403 129.219 316.403 127.029C316.403 122.605 319.542 119.687 324.07 118.272C326.233 117.593 328.157 118.52 329.516 120.124ZM329.108 120.47C327.843 118.975 326.128 118.186 324.23 118.782L324.229 118.782C319.822 120.159 316.937 122.931 316.937 127.029C316.937 129.099 317.614 130.75 318.784 131.884C319.956 133.019 321.647 133.66 323.722 133.66C327.835 133.66 331.162 130.321 331.162 126.214C331.162 124.147 330.378 121.969 329.108 120.47Z" fill="#2C2C2C"/>
<path d="M320.143 125.787C320.143 128.939 322.206 130.889 325.358 130.889C328.511 130.889 331.062 128.338 331.062 125.186C331.062 122.033 328.684 118.554 325.679 119.496C322.366 120.537 320.143 122.641 320.143 125.787Z" fill="#2C2C2C"/>
<path d="M352.259 161.215C347.437 160.774 342.676 160.594 342.676 160.594C340.926 160.648 337.199 160.801 333.353 161.215C334.475 165.049 338.281 167.874 342.803 167.874C347.33 167.88 351.137 165.042 352.259 161.215Z" fill="#50BFD7"/>
<path d="M351.865 161.616C352.279 159.987 360.567 118.46 360.567 118.46C360.567 118.46 338.448 111.929 324.303 118.46L333.373 161.977L351.865 161.616Z" fill="white"/>
<path fill-rule="evenodd" clip-rule="evenodd" d="M360.643 118.204C360.643 118.204 360.643 118.204 360.567 118.46C360.829 118.512 360.829 118.513 360.829 118.513L360.829 118.514L360.736 118.979C360.675 119.284 360.586 119.731 360.472 120.3C360.245 121.439 359.919 123.067 359.528 125.026C358.744 128.945 357.695 134.187 356.633 139.48C354.511 150.057 352.333 160.858 352.124 161.682L352.074 161.879L333.156 162.248L323.999 118.307L324.191 118.218C331.332 114.92 340.459 114.927 347.769 115.745C351.43 116.155 354.647 116.769 356.948 117.281C358.099 117.537 359.022 117.767 359.657 117.934C359.975 118.017 360.221 118.084 360.387 118.131C360.471 118.154 360.534 118.172 360.577 118.185C360.599 118.191 360.615 118.196 360.626 118.199L360.638 118.203L360.642 118.204L360.643 118.204ZM360.567 118.46L360.829 118.512L360.877 118.273L360.643 118.204L360.567 118.46ZM360.257 118.649C360.253 118.648 360.248 118.647 360.243 118.646C360.079 118.6 359.836 118.533 359.521 118.451C358.892 118.286 357.976 118.057 356.832 117.802C354.544 117.294 351.347 116.683 347.71 116.276C340.491 115.469 331.584 115.468 324.608 118.615L333.589 161.705L351.652 161.353C352.031 159.656 354.092 149.432 356.11 139.374C357.171 134.082 358.22 128.84 359.004 124.922C359.396 122.962 359.721 121.334 359.948 120.195C360.062 119.626 360.151 119.179 360.212 118.875L360.257 118.649Z" fill="black"/>
<path d="M351.865 161.616C352.279 159.987 360.567 118.46 360.567 118.46C360.567 118.46 338.448 111.929 324.303 118.46L333.373 161.977L351.865 161.616Z" fill="white"/>
<path fill-rule="evenodd" clip-rule="evenodd" d="M360.643 118.204C360.643 118.204 360.643 118.204 360.567 118.46C360.829 118.512 360.829 118.513 360.829 118.513L360.829 118.514L360.736 118.979C360.675 119.284 360.586 119.731 360.472 120.3C360.245 121.439 359.919 123.067 359.528 125.026C358.744 128.945 357.695 134.187 356.633 139.48C354.511 150.057 352.333 160.858 352.124 161.682L352.074 161.879L333.156 162.248L323.999 118.307L324.191 118.218C331.332 114.92 340.459 114.927 347.769 115.745C351.43 116.155 354.647 116.769 356.948 117.281C358.099 117.537 359.022 117.767 359.657 117.934C359.975 118.017 360.221 118.084 360.387 118.131C360.471 118.154 360.534 118.172 360.577 118.185C360.599 118.191 360.615 118.196 360.626 118.199L360.638 118.203L360.642 118.204L360.643 118.204ZM360.567 118.46L360.829 118.512L360.877 118.273L360.643 118.204L360.567 118.46ZM360.257 118.649C360.253 118.648 360.248 118.647 360.243 118.646C360.079 118.6 359.836 118.533 359.521 118.451C358.892 118.286 357.976 118.057 356.832 117.802C354.544 117.294 351.347 116.683 347.71 116.276C340.491 115.469 331.584 115.468 324.608 118.615L333.589 161.705L351.652 161.353C352.031 159.656 354.092 149.432 356.11 139.374C357.171 134.082 358.22 128.84 359.004 124.922C359.396 122.962 359.721 121.334 359.948 120.195C360.062 119.626 360.151 119.179 360.212 118.875L360.257 118.649Z" fill="#2C2C2C"/>
<path d="M355.198 117.185C349.02 115.942 338.575 114.527 329.599 116.664C330.661 123.362 331.723 130.067 332.785 136.766C333.64 141.307 337.947 144.332 342.442 144.359C346.937 144.332 351.244 141.314 352.099 136.766C353.127 130.234 354.163 123.709 355.198 117.185Z" fill="#50BFD7"/>
<path fill-rule="evenodd" clip-rule="evenodd" d="M329.537 116.404C338.572 114.253 349.064 115.679 355.25 116.923L355.502 116.973L355.461 117.231C354.426 123.754 353.391 130.277 352.363 136.807L352.362 136.811L352.361 136.815C351.479 141.509 347.044 144.599 342.443 144.626L342.442 144.626L342.44 144.626C337.839 144.599 333.405 141.502 332.522 136.815L332.522 136.811L332.521 136.807C331.99 133.459 331.459 130.108 330.928 126.757L330.928 126.756C330.397 123.406 329.866 120.055 329.335 116.705L329.297 116.461L329.537 116.404ZM329.902 116.867C330.42 120.134 330.938 123.403 331.456 126.672L331.456 126.673C331.987 130.022 332.517 133.372 333.048 136.72C333.877 141.113 338.056 144.065 342.442 144.092C346.828 144.065 351.006 141.12 351.836 136.72C352.851 130.274 353.872 123.835 354.894 117.396C348.752 116.18 338.644 114.853 329.902 116.867Z" fill="#2C2C2C"/>
<path d="M341.674 119.555C343.784 119.555 347.063 118.914 347.063 116.811L346.522 109.785L346.048 103.641C346.048 101.53 344.339 99.8274 342.235 99.8274C341.18 99.8274 340.231 100.255 339.537 100.943C338.849 101.631 338.415 102.586 338.415 103.641L337.947 109.792L337.5 115.689C336.899 119.248 341.674 119.555 341.674 119.555Z" fill="#2C2C2C"/>
<path d="M354.016 64.0244C350.857 60.1376 346.442 57.7935 340.779 57.7935C327.95 57.7935 315.408 69.6209 315.408 84.3736C315.408 99.1262 325.806 111.087 338.635 111.087C339.871 111.087 341.066 110.98 342.215 110.767C342.335 111.414 342.402 112.082 342.402 112.764C342.402 112.89 342.395 113.011 342.395 113.131C377.764 104.569 371.974 61.8406 354.016 64.0244Z" fill="#2C2C2C"/>
<path d="M326.434 99.2731C328.813 99.2731 330.741 97.3445 330.741 94.9655C330.741 92.5865 328.813 90.658 326.434 90.658C324.055 90.658 322.126 92.5865 322.126 94.9655C322.126 97.3445 324.055 99.2731 326.434 99.2731Z" fill="white"/>
<path fill-rule="evenodd" clip-rule="evenodd" d="M326.434 90.9253C324.202 90.9253 322.393 92.7343 322.393 94.9658C322.393 97.1972 324.202 99.0062 326.434 99.0062C328.665 99.0062 330.474 97.1972 330.474 94.9658C330.474 92.7343 328.665 90.9253 326.434 90.9253ZM321.859 94.9658C321.859 92.4392 323.907 90.3911 326.434 90.3911C328.96 90.3911 331.009 92.4392 331.009 94.9658C331.009 97.4923 328.96 99.5405 326.434 99.5405C323.907 99.5405 321.859 97.4923 321.859 94.9658Z" fill="#2C2C2C"/>
<path d="M356.767 99.2731C359.146 99.2731 361.075 97.3445 361.075 94.9655C361.075 92.5865 359.146 90.658 356.767 90.658C354.388 90.658 352.459 92.5865 352.459 94.9655C352.459 97.3445 354.388 99.2731 356.767 99.2731Z" fill="white"/>
<path fill-rule="evenodd" clip-rule="evenodd" d="M356.767 90.9253C354.536 90.9253 352.727 92.7343 352.727 94.9658C352.727 97.1972 354.536 99.0062 356.767 99.0062C358.999 99.0062 360.808 97.1972 360.808 94.9658C360.808 92.7343 358.999 90.9253 356.767 90.9253ZM352.192 94.9658C352.192 92.4392 354.241 90.3911 356.767 90.3911C359.294 90.3911 361.342 92.4392 361.342 94.9658C361.342 97.4923 359.294 99.5405 356.767 99.5405C354.241 99.5405 352.192 97.4923 352.192 94.9658Z" fill="#2C2C2C"/>
<path d="M342.008 112.937C351.254 112.937 358.75 102.325 358.75 89.2354C358.75 76.1453 351.254 65.5337 342.008 65.5337C332.761 65.5337 325.265 76.1453 325.265 89.2354C325.265 102.325 332.761 112.937 342.008 112.937Z" fill="white"/>
<path fill-rule="evenodd" clip-rule="evenodd" d="M330.387 72.6298C327.393 76.8687 325.532 82.7388 325.532 89.2353C325.532 95.7317 327.393 101.602 330.387 105.841C333.382 110.08 337.494 112.67 342.008 112.67C346.521 112.67 350.634 110.08 353.628 105.841C356.623 101.602 358.483 95.7317 358.483 89.2353C358.483 82.7388 356.623 76.8687 353.628 72.6298C350.634 68.3901 346.521 65.8007 342.008 65.8007C337.494 65.8007 333.382 68.3901 330.387 72.6298ZM329.951 72.3215C333.015 67.9828 337.274 65.2664 342.008 65.2664C346.741 65.2664 351 67.9828 354.065 72.3215C357.13 76.6608 359.018 82.6416 359.018 89.2353C359.018 95.8289 357.13 101.81 354.065 106.149C351 110.488 346.741 113.204 342.008 113.204C337.274 113.204 333.015 110.488 329.951 106.149C326.885 101.81 324.998 95.8289 324.998 89.2353C324.998 82.6416 326.885 76.6608 329.951 72.3215Z" fill="#2C2C2C"/>
<path d="M322.821 83.9797C322.821 83.9797 337.073 84.6743 341.821 76.0992C341.821 76.0992 352.132 85.0216 361.976 84.327L361.048 80.3867L357.228 72.8535L354.911 70.0753L350.162 65.0932L343.791 62.4285L336.144 63.4703L325.946 70.4225L324.671 75.0574L322.821 83.9797Z" fill="#2C2C2C"/>
<path d="M342.422 98.4984C342.429 98.5385 342.342 98.612 342.148 98.612C341.961 98.6187 341.674 98.5318 341.42 98.2914C341.293 98.1712 341.18 98.0243 341.093 97.8373C341.079 97.8106 341.073 97.7839 341.059 97.7571L341.046 97.7171L341.033 97.6837L341.013 97.6236C341.006 97.5969 340.999 97.5635 340.986 97.5367C340.959 97.4366 340.939 97.3297 340.933 97.2162C340.892 96.7754 340.979 96.328 341.086 95.9005C341.5 94.1909 341.988 92.8485 342.168 92.8886C342.348 92.9353 342.161 94.3511 341.747 96.0608C341.64 96.4816 341.56 96.8622 341.56 97.1828C341.56 97.2629 341.567 97.3431 341.574 97.4165L341.58 97.4433V97.4566V97.4633V97.47C341.58 97.47 341.574 97.4499 341.58 97.4566L341.594 97.5234L341.6 97.5568L341.607 97.5768L341.62 97.6169C341.661 97.7438 341.721 97.864 341.787 97.9575C341.921 98.1512 342.081 98.2714 342.208 98.3382C342.322 98.425 342.415 98.4517 342.422 98.4984Z" fill="#2C2C2C"/>
<path d="M323.909 91.9538C323.722 91.2125 323.582 90.4578 323.469 89.6965C323.362 88.9351 323.288 88.1738 323.248 87.4058C323.181 85.8697 323.241 84.3204 323.449 82.791C323.656 81.255 324.01 79.739 324.51 78.2697C324.537 78.1762 324.571 78.0827 324.604 77.9959L324.704 77.7221L324.904 77.1744L325.131 76.6335L325.245 76.3664C325.285 76.2795 325.318 76.186 325.365 76.0992C325.692 75.3913 326.046 74.6901 326.447 74.0222C327.242 72.6732 328.17 71.4043 329.239 70.2489C330.314 69.1002 331.523 68.0718 332.845 67.2102C333.005 67.0967 333.179 66.9965 333.346 66.8964C333.513 66.7962 333.687 66.6893 333.854 66.5958L334.381 66.3153L334.642 66.1751C334.728 66.1283 334.822 66.0883 334.909 66.0482L335.45 65.8011C335.496 65.7811 335.536 65.761 335.583 65.741L335.723 65.6876L335.997 65.5807L336.271 65.4739C336.365 65.4405 336.451 65.4004 336.552 65.367L337.119 65.18C338.629 64.6925 340.218 64.4454 341.808 64.412C342.602 64.3853 343.397 64.4454 344.185 64.5322C344.385 64.5589 344.579 64.5923 344.773 64.619L345.067 64.6658C345.113 64.6724 345.167 64.6791 345.213 64.6925L345.36 64.7259L345.941 64.8528C346.135 64.8928 346.329 64.9463 346.516 64.9997C348.045 65.4271 349.521 66.0482 350.87 66.8763L351.371 67.1902C351.458 67.2436 351.538 67.2971 351.618 67.3572L351.859 67.5241L352.099 67.6911C352.179 67.7445 352.259 67.8046 352.339 67.8647L352.807 68.2254L353.041 68.4057L353.268 68.5994L353.715 68.9867C353.862 69.1136 354.002 69.2538 354.143 69.3941L354.356 69.6011C354.43 69.6679 354.497 69.7347 354.563 69.8081L354.971 70.2356L355.171 70.4493L355.365 70.6697L355.752 71.1171C355.819 71.1906 355.879 71.2707 355.939 71.3442L356.119 71.5779C356.24 71.7315 356.36 71.8851 356.48 72.0454L356.821 72.5263C357.054 72.8401 357.255 73.1807 357.468 73.508C358.297 74.837 358.971 76.2528 359.505 77.7087C360.04 79.1713 360.42 80.6806 360.661 82.21L360.707 82.4971L360.727 82.6374L360.741 82.7843L360.808 83.3587C360.861 83.7393 360.874 84.1267 360.908 84.514C360.955 85.282 360.968 86.0567 360.948 86.8248L360.941 87.1119L360.928 87.3991C360.914 87.5928 360.908 87.7798 360.888 87.9734C360.861 88.3541 360.821 88.7415 360.774 89.1221C360.674 89.8835 360.547 90.6381 360.38 91.3861C360.474 90.6248 360.547 89.8701 360.574 89.1088C360.607 88.3474 360.614 87.5861 360.581 86.8314C360.547 86.0768 360.494 85.3154 360.4 84.5675C360.347 84.1935 360.307 83.8195 360.233 83.4455L360.133 82.8912L360.106 82.7509L360.073 82.6107L360.013 82.3369C359.699 80.8609 359.252 79.4184 358.684 78.036L358.577 77.7755L358.463 77.5217L358.23 77.0075C358.156 76.8338 358.069 76.6736 357.983 76.5066L357.729 76.0057C357.642 75.8388 357.549 75.6785 357.455 75.5182C357.362 75.3579 357.275 75.191 357.175 75.0307L356.881 74.5565C356.781 74.3962 356.687 74.2359 356.58 74.089C356.366 73.7818 356.166 73.4679 355.939 73.1741L355.605 72.7266C355.492 72.5797 355.371 72.4394 355.251 72.2925L355.071 72.0788C355.011 72.0053 354.951 71.9319 354.891 71.8651L354.517 71.451L354.33 71.244L354.136 71.0437L353.742 70.6496C352.68 69.6211 351.498 68.7196 350.222 67.9716C348.953 67.2236 347.584 66.6559 346.169 66.2753C345.815 66.1684 345.454 66.1083 345.1 66.0282L344.966 66.0014C344.92 65.9948 344.873 65.9881 344.833 65.9814L344.559 65.9413C344.379 65.9146 344.198 65.8812 344.018 65.8612C343.29 65.7877 342.555 65.7343 341.828 65.7543C340.365 65.7811 338.902 66.0014 337.507 66.4489L336.986 66.6159C336.899 66.6426 336.812 66.676 336.725 66.7094L336.471 66.8095L336.218 66.9097L336.091 66.9565C336.051 66.9698 336.004 66.9965 335.964 67.0099L335.463 67.237C335.383 67.277 335.296 67.3104 335.209 67.3505L334.962 67.4774L334.475 67.7312C334.314 67.8247 334.154 67.9182 333.994 68.005C333.833 68.0985 333.673 68.1853 333.52 68.2921C332.271 69.0802 331.122 70.0219 330.08 71.077L329.7 71.4844L329.513 71.6915C329.479 71.7249 329.446 71.7582 329.419 71.7916L329.332 71.8985L328.972 72.3259C328.911 72.3994 328.851 72.4662 328.791 72.5396L328.618 72.76L328.277 73.2008C328.217 73.2742 328.17 73.3477 328.11 73.4278L327.95 73.6549C327.843 73.8085 327.736 73.9554 327.629 74.1157L327.329 74.5899C326.534 75.8521 325.853 77.1945 325.318 78.5903C324.778 79.9861 324.363 81.442 324.083 82.9246L323.976 83.4789C323.943 83.6659 323.923 83.8529 323.889 84.0399L323.809 84.6008C323.789 84.7878 323.769 84.9748 323.749 85.1618L323.689 85.7295L323.656 86.2972L323.622 86.8648C323.615 87.0518 323.609 87.2455 323.602 87.4325C323.589 88.1938 323.602 88.9485 323.656 89.7098C323.716 90.4378 323.802 91.1924 323.909 91.9538Z" fill="#50BFD7"/>
<path d="M337.654 90.4911C337.654 92.3945 336.004 93.9372 333.974 93.9372C331.937 93.9372 330.294 92.3945 330.294 90.4911C330.294 88.5878 331.944 87.045 333.974 87.045C336.004 87.045 337.654 88.5878 337.654 90.4911Z" fill="white"/>
<path fill-rule="evenodd" clip-rule="evenodd" d="M333.974 87.312C332.074 87.312 330.561 88.7515 330.561 90.491C330.561 92.2307 332.068 93.6699 333.974 93.6699C335.873 93.6699 337.386 92.2304 337.386 90.491C337.386 88.7515 335.873 87.312 333.974 87.312ZM330.027 90.491C330.027 88.4237 331.813 86.7778 333.974 86.7778C336.135 86.7778 337.921 88.4237 337.921 90.491C337.921 92.5582 336.135 94.2042 333.974 94.2042C331.806 94.2042 330.027 92.5579 330.027 90.491Z" fill="#2C2C2C"/>
<path d="M332.17 90.2771C332.17 91.8465 333.192 93.1221 334.448 93.1221C335.703 93.1221 336.725 91.8465 336.725 90.2771C336.725 88.7077 335.703 87.4321 334.448 87.4321C333.186 87.4254 332.17 88.701 332.17 90.2771Z" fill="#50BFD7"/>
<path d="M332.825 90.2772C332.825 91.3925 333.546 92.294 334.441 92.294C335.336 92.294 336.057 91.3925 336.057 90.2772C336.057 89.1619 335.336 88.2536 334.441 88.2536C333.553 88.2536 332.825 89.1552 332.825 90.2772Z" fill="#2C2C2C"/>
<path d="M332.725 88.3604C332.725 88.6677 333.099 88.9081 333.56 88.9081C334.02 88.9081 334.394 88.661 334.394 88.3604C334.394 88.0532 334.02 87.8128 333.56 87.8128C333.099 87.8061 332.725 88.0532 332.725 88.3604Z" fill="white"/>
<path d="M334.214 86.5441C331.937 86.3171 330.187 88.374 330.187 90.4978C330.187 90.7181 330.461 90.7582 330.574 90.6046C331.503 89.329 331.803 88.0735 333.5 87.586C336.004 86.8647 337.38 89.4359 337.52 91.4528C337.54 91.6464 337.707 91.4728 337.727 91.2725C337.954 88.8615 336.752 86.7979 334.214 86.5441Z" fill="#2C2C2C"/>
<path d="M338.709 85.2216C338.709 85.2216 333.74 80.2662 328.397 86.1499C328.391 86.1499 333.012 83.1913 338.709 85.2216Z" fill="#2C2C2C"/>
<path d="M353.662 90.4911C353.662 92.3945 352.012 93.9372 349.982 93.9372C347.945 93.9372 346.302 92.3945 346.302 90.4911C346.302 88.5878 347.952 87.045 349.982 87.045C352.012 87.045 353.662 88.5878 353.662 90.4911Z" fill="white"/>
<path fill-rule="evenodd" clip-rule="evenodd" d="M349.982 87.312C348.082 87.312 346.569 88.7515 346.569 90.491C346.569 92.2307 348.076 93.6699 349.982 93.6699C351.881 93.6699 353.395 92.2304 353.395 90.491C353.395 88.7515 351.881 87.312 349.982 87.312ZM346.035 90.491C346.035 88.4237 347.821 86.7778 349.982 86.7778C352.143 86.7778 353.929 88.4237 353.929 90.491C353.929 92.5582 352.143 94.2042 349.982 94.2042C347.814 94.2042 346.035 92.5579 346.035 90.491Z" fill="#2C2C2C"/>
<path d="M348.178 90.2771C348.178 91.8465 349.2 93.1221 350.456 93.1221C351.711 93.1221 352.733 91.8465 352.733 90.2771C352.733 88.7077 351.711 87.4321 350.456 87.4321C349.2 87.4254 348.178 88.701 348.178 90.2771Z" fill="#50BFD7"/>
<path d="M348.84 90.2772C348.84 91.3925 349.561 92.294 350.456 92.294C351.351 92.294 352.072 91.3925 352.072 90.2772C352.072 89.1619 351.351 88.2536 350.456 88.2536C349.561 88.2536 348.84 89.1552 348.84 90.2772Z" fill="#2C2C2C"/>
<path d="M348.733 88.3604C348.733 88.6677 349.107 88.9081 349.568 88.9081C350.029 88.9081 350.403 88.661 350.403 88.3604C350.403 88.0532 350.029 87.8128 349.568 87.8128C349.114 87.8061 348.733 88.0532 348.733 88.3604Z" fill="white"/>
<path d="M350.222 86.5441C347.945 86.3171 346.195 88.374 346.195 90.4978C346.195 90.7181 346.469 90.7582 346.582 90.6046C347.511 89.329 347.811 88.0735 349.508 87.586C352.012 86.8647 353.388 89.4359 353.528 91.4528C353.548 91.6464 353.715 91.4728 353.735 91.2725C353.962 88.8615 352.767 86.7979 350.222 86.5441Z" fill="#2C2C2C"/>
<path d="M354.717 84.681C354.717 84.681 349.748 79.7256 344.405 85.6093C344.405 85.6093 349.027 82.6508 354.717 84.681Z" fill="#2C2C2C"/>
<path d="M336.572 102.285C336.738 103.581 337.366 104.776 338.348 105.644C339.33 106.513 340.592 106.987 341.901 106.987C343.21 106.987 344.472 106.513 345.454 105.644C346.436 104.776 347.07 103.587 347.23 102.285H336.572Z" fill="white"/>
<path fill-rule="evenodd" clip-rule="evenodd" d="M336.268 102.018H347.532L347.495 102.318C347.327 103.686 346.661 104.934 345.631 105.844C344.6 106.756 343.275 107.254 341.901 107.254C340.527 107.254 339.202 106.756 338.171 105.844C337.14 104.933 336.482 103.678 336.307 102.319L336.268 102.018ZM336.884 102.552C337.096 103.667 337.669 104.687 338.525 105.444C339.458 106.269 340.657 106.719 341.901 106.719C343.145 106.719 344.344 106.269 345.277 105.444C346.135 104.686 346.713 103.671 346.919 102.552H336.884Z" fill="#2C2C2C"/>
<path d="M347.023 164.107C347.023 164.274 347.17 164.468 347.344 164.448C349.314 164.241 350.823 162.718 352.767 163.039C350.817 164.007 349.127 165.69 349.367 168.168C349.394 168.475 349.688 168.595 349.915 168.408C351.311 167.219 352.914 166.158 354.784 166.552C355.585 166.719 356.527 167.032 357.355 166.926C358.59 166.772 359.632 166.211 360.247 165.016C361.328 162.945 360.928 160.461 358.504 159.947C358.443 159.933 358.397 159.94 358.343 159.96C357.448 159.606 356.634 159.159 355.912 158.377C355.218 157.616 354.57 156.774 353.815 156.073C352.807 155.131 351.712 154.39 350.376 155.025C350.176 155.118 350.189 155.405 350.316 155.559C350.903 156.287 351.591 156.981 352.313 157.649C351.591 157.482 350.863 157.395 350.115 157.456C348.78 157.569 347.204 158.457 347.237 160.047C347.244 160.247 347.384 160.367 347.558 160.387C348.786 160.514 350.022 160.494 351.244 160.621C349.341 161.182 347.003 161.823 347.023 164.107Z" fill="white"/>
<path fill-rule="evenodd" clip-rule="evenodd" d="M352.316 154.709C352.932 154.952 353.488 155.402 353.997 155.878C354.508 156.352 354.979 156.899 355.436 157.43C355.663 157.693 355.886 157.952 356.109 158.196C356.773 158.915 357.521 159.339 358.361 159.679C358.422 159.669 358.487 159.669 358.56 159.685C359.868 159.963 360.652 160.785 360.947 161.824C361.238 162.848 361.048 164.057 360.484 165.138C359.82 166.428 358.691 167.028 357.389 167.19C356.932 167.249 356.457 167.191 356.008 167.103C355.782 167.059 355.559 167.006 355.345 166.955C355.322 166.95 355.3 166.944 355.277 166.939C355.086 166.893 354.904 166.849 354.729 166.813L354.729 166.813C352.995 166.448 351.483 167.424 350.088 168.611L350.087 168.613L350.085 168.614C349.903 168.764 349.668 168.807 349.461 168.719C349.254 168.63 349.123 168.43 349.101 168.192C348.884 165.945 350.163 164.333 351.777 163.293C351.24 163.366 350.717 163.56 350.169 163.791C350.048 163.843 349.924 163.896 349.799 163.951C349.058 164.273 348.259 164.62 347.373 164.713C347.173 164.736 347.014 164.633 346.917 164.523C346.822 164.414 346.757 164.264 346.756 164.108C346.746 162.85 347.395 162.043 348.27 161.492C348.732 161.201 349.264 160.977 349.803 160.789C349.666 160.783 349.529 160.777 349.392 160.771L349.386 160.771C348.774 160.744 348.152 160.717 347.53 160.653L347.529 160.653L347.527 160.653C347.241 160.62 346.982 160.407 346.97 160.056L346.97 160.054L346.97 160.052C346.951 159.156 347.39 158.462 347.998 157.987C348.602 157.516 349.381 157.25 350.093 157.189L350.093 157.189L350.094 157.189C350.566 157.151 351.028 157.169 351.483 157.227C350.993 156.744 350.527 156.245 350.109 155.728C350.001 155.597 349.947 155.42 349.956 155.254C349.966 155.081 350.051 154.882 350.262 154.783C351.002 154.431 351.687 154.461 352.316 154.709ZM350.493 155.265C350.492 155.268 350.49 155.274 350.49 155.284C350.489 155.301 350.491 155.321 350.498 155.342C350.505 155.363 350.514 155.379 350.522 155.389L350.523 155.39L350.524 155.391C351.1 156.105 351.778 156.79 352.494 157.453L353.232 158.136L352.252 157.909C351.55 157.747 350.851 157.664 350.137 157.722C349.514 157.775 348.838 158.009 348.327 158.408C347.823 158.802 347.49 159.347 347.504 160.039C347.506 160.074 347.517 160.089 347.524 160.096C347.533 160.105 347.553 160.117 347.587 160.122C348.192 160.184 348.799 160.21 349.415 160.237L349.417 160.237C350.03 160.264 350.652 160.291 351.272 160.355L352.617 160.495L351.32 160.877C351.286 160.887 351.253 160.897 351.22 160.907C350.286 161.181 349.31 161.469 348.555 161.944C347.791 162.425 347.282 163.08 347.29 164.105L347.291 164.106V164.107C347.291 164.111 347.291 164.12 347.297 164.135C347.303 164.149 347.311 164.162 347.32 164.172C347.323 164.176 347.326 164.179 347.329 164.181C348.121 164.095 348.833 163.787 349.574 163.466C349.702 163.41 349.831 163.354 349.961 163.299C350.832 162.931 351.757 162.601 352.81 162.775L353.627 162.91L352.886 163.278C350.978 164.225 349.409 165.827 349.633 168.142L349.634 168.143L349.634 168.144C349.637 168.18 349.647 168.201 349.654 168.211C349.661 168.222 349.667 168.226 349.671 168.228C349.676 168.229 349.682 168.231 349.693 168.229C349.703 168.227 349.721 168.222 349.744 168.203C351.14 167.014 352.833 165.868 354.838 166.29C355.022 166.328 355.212 166.374 355.401 166.419C355.424 166.425 355.447 166.43 355.469 166.436C355.683 166.487 355.897 166.537 356.111 166.579C356.54 166.663 356.949 166.708 357.321 166.66L357.321 166.66L357.322 166.66C358.49 166.515 359.444 165.993 360.009 164.893L360.009 164.892L360.01 164.892C360.527 163.903 360.678 162.835 360.433 161.97C360.192 161.122 359.564 160.444 358.448 160.208L358.447 160.208L358.446 160.207C358.445 160.207 358.445 160.207 358.445 160.207C358.443 160.208 358.441 160.209 358.437 160.21L358.341 160.246L358.245 160.208C357.328 159.846 356.474 159.379 355.716 158.558L355.716 158.558L355.715 158.557C355.469 158.288 355.235 158.016 355.004 157.747C354.559 157.23 354.123 156.724 353.633 156.269L353.633 156.268C353.134 155.802 352.638 155.411 352.12 155.206C351.617 155.007 351.087 154.983 350.493 155.265Z" fill="#2C2C2C"/>
<path d="M329.252 257.725C329.252 257.725 329.646 258.974 329.76 259.168C329.88 259.361 332.945 260.417 336.685 260.337C340.572 260.256 342.348 259.128 342.402 257.719H329.252V257.725Z" fill="#50BFD7"/>
<path fill-rule="evenodd" clip-rule="evenodd" d="M328.985 257.452H342.679L342.669 257.729C342.637 258.563 342.091 259.27 341.1 259.765C340.114 260.258 338.653 260.563 336.691 260.604M328.985 257.452V257.719V257.452ZM329.252 257.726L328.997 257.806L328.985 257.767V257.719M329.252 257.726C328.997 257.806 328.997 257.806 328.997 257.806L329.002 257.82C329.005 257.83 329.009 257.843 329.015 257.861C329.026 257.895 329.042 257.945 329.061 258.006C329.1 258.126 329.153 258.29 329.21 258.459C329.267 258.628 329.327 258.805 329.382 258.953C329.432 259.09 329.486 259.23 329.529 259.303L329.531 259.306L329.533 259.309C329.559 259.352 329.592 259.381 329.611 259.396C329.633 259.414 329.655 259.429 329.677 259.442C329.719 259.468 329.77 259.494 329.827 259.52C329.94 259.572 330.093 259.632 330.279 259.696C330.653 259.825 331.174 259.975 331.807 260.116C333.072 260.398 334.795 260.645 336.691 260.604M329.616 257.986H342.096C341.98 258.462 341.601 258.917 340.862 259.287C339.975 259.731 338.604 260.03 336.68 260.07L336.679 260.07C334.835 260.109 333.155 259.869 331.923 259.594C331.307 259.457 330.805 259.312 330.453 259.191C330.277 259.13 330.142 259.077 330.05 259.035C330.016 259.019 329.99 259.006 329.972 258.996C329.966 258.983 329.96 258.967 329.952 258.949C329.932 258.901 329.909 258.84 329.883 258.769C329.832 258.628 329.773 258.457 329.717 258.289C329.681 258.183 329.647 258.079 329.616 257.986Z" fill="#2C2C2C"/>
<path d="M329.259 257.993C329.847 258.52 330.615 258.921 331.176 259.101C332.571 259.562 334.101 259.736 335.563 259.816C337.119 259.896 338.829 259.869 340.285 259.255C341.073 258.921 341.741 258.433 342.362 257.879C342.642 257.191 342.716 256.41 342.696 255.608C342.649 254.166 342.322 252.77 342.068 251.354C342.028 251.147 341.995 250.947 341.961 250.747C341.888 249.825 341.821 248.897 341.761 247.982C341.741 247.641 341.701 247.341 341.707 247C341.714 246.773 341.794 246.406 341.734 246.192C341.727 246.165 341.714 246.145 341.707 246.125C341.707 246.092 341.714 246.058 341.707 246.025C341.447 245.811 341.173 245.611 340.859 245.524C340.632 245.564 340.405 245.638 340.258 245.698C340.024 245.791 339.817 245.911 339.63 246.052C339.17 245.424 338.034 245.13 337.393 245.103C336.391 245.063 335.056 245.237 334.261 245.972C334.127 245.845 333.92 245.778 333.74 245.744C333.7 245.738 333.653 245.731 333.613 245.724C333.146 245.905 333.266 247.053 333.219 247.381C333.152 247.815 333.086 248.249 332.979 248.67C332.765 249.478 332.458 250.219 331.99 250.914C331.489 251.662 330.835 252.309 330.261 252.997C330.18 253.137 330.094 253.278 330.013 253.411C329.399 254.4 328.898 255.836 329.032 257.011C329.065 257.385 329.145 257.706 329.259 257.993Z" fill="#50BFD7"/>
<path fill-rule="evenodd" clip-rule="evenodd" d="M335.689 244.987C336.276 244.85 336.885 244.816 337.404 244.836L337.404 244.836C337.753 244.851 338.225 244.937 338.672 245.101C339.031 245.234 339.401 245.427 339.675 245.697C339.824 245.603 339.984 245.52 340.158 245.45C340.32 245.384 340.565 245.305 340.813 245.261L340.872 245.25L340.93 245.266C341.303 245.37 341.614 245.603 341.877 245.818L341.951 245.879L341.969 245.972C341.978 246.014 341.978 246.052 341.977 246.077C341.982 246.09 341.988 246.105 341.992 246.123C342.036 246.282 342.025 246.471 342.012 246.615C342.006 246.683 341.999 246.742 341.993 246.795C341.984 246.876 341.976 246.944 341.974 247.006C341.97 247.225 341.986 247.417 342.003 247.629C342.011 247.734 342.02 247.844 342.027 247.965C342.087 248.875 342.154 249.798 342.227 250.714C342.259 250.911 342.292 251.104 342.33 251.303L342.331 251.305L342.331 251.307C342.383 251.599 342.439 251.892 342.495 252.186C342.708 253.302 342.925 254.438 342.963 255.6L342.963 255.601L342.963 255.602C342.983 256.42 342.91 257.243 342.609 257.98L342.586 258.037L342.54 258.078C341.906 258.644 341.214 259.151 340.389 259.501L340.389 259.501C338.873 260.141 337.11 260.163 335.55 260.083L335.549 260.083C334.078 260.002 332.522 259.827 331.093 259.355C330.499 259.164 329.698 258.746 329.08 258.191L329.034 258.149L329.01 258.091C328.888 257.78 328.802 257.436 328.766 257.038C328.624 255.782 329.154 254.288 329.786 253.272C329.809 253.233 329.833 253.194 329.856 253.155C329.915 253.058 329.973 252.962 330.029 252.865L330.04 252.844L330.056 252.826C330.253 252.59 330.453 252.365 330.65 252.143C331.051 251.693 331.439 251.256 331.768 250.765L331.769 250.764C332.216 250.099 332.513 249.387 332.72 248.602C332.823 248.197 332.888 247.777 332.955 247.342C332.963 247.284 332.965 247.181 332.967 247.027C332.967 247.019 332.967 247.012 332.968 247.005C332.97 246.848 332.974 246.659 332.993 246.471C333.011 246.287 333.044 246.087 333.113 245.914C333.181 245.743 333.301 245.558 333.517 245.475L333.585 245.449L333.657 245.461C333.675 245.464 333.695 245.467 333.717 245.47L333.718 245.47C333.739 245.474 333.762 245.477 333.784 245.481L333.786 245.481L333.789 245.482C333.922 245.506 334.091 245.551 334.245 245.635C334.662 245.309 335.174 245.107 335.689 244.987ZM335.81 245.507C335.278 245.631 334.794 245.842 334.442 246.168L334.259 246.337L334.077 246.165C334.001 246.093 333.859 246.038 333.694 246.007C333.686 246.006 333.678 246.005 333.67 246.004C333.652 246.024 333.631 246.058 333.609 246.112C333.568 246.216 333.54 246.357 333.524 246.523C333.508 246.687 333.504 246.857 333.502 247.014C333.502 247.028 333.501 247.042 333.501 247.056C333.499 247.189 333.497 247.325 333.484 247.418L333.483 247.42L333.482 247.427C333.416 247.857 333.348 248.302 333.238 248.735L333.237 248.737L333.237 248.738C333.017 249.569 332.699 250.339 332.212 251.062C331.863 251.584 331.432 252.068 331.018 252.534C330.833 252.743 330.65 252.948 330.481 253.15C330.425 253.247 330.366 253.345 330.309 253.438C330.287 253.476 330.264 253.513 330.243 253.549L330.242 253.55L330.24 253.552C329.644 254.512 329.173 255.887 329.297 256.981L329.298 256.984L329.298 256.987C329.327 257.31 329.393 257.588 329.485 257.836C330.036 258.315 330.744 258.682 331.257 258.847L331.258 258.847L331.259 258.848C332.622 259.297 334.123 259.469 335.577 259.549C337.129 259.629 338.785 259.598 340.181 259.009C340.913 258.698 341.542 258.247 342.137 257.721C342.379 257.095 342.448 256.377 342.429 255.616C342.393 254.501 342.186 253.418 341.975 252.308C341.917 252.009 341.86 251.708 341.805 251.403C341.765 251.193 341.731 250.991 341.698 250.792L341.696 250.779L341.695 250.768C341.621 249.845 341.554 248.915 341.494 247.999L341.494 247.998L341.494 247.997C341.489 247.901 341.481 247.803 341.473 247.704C341.454 247.477 341.436 247.241 341.44 246.995L341.44 246.993L341.44 246.992C341.443 246.909 341.455 246.801 341.466 246.701C341.471 246.653 341.476 246.607 341.48 246.567C341.493 246.42 341.492 246.321 341.478 246.267C341.477 246.266 341.477 246.265 341.476 246.264L341.475 246.261C341.474 246.258 341.472 246.254 341.47 246.25C341.466 246.241 341.46 246.227 341.454 246.209L341.44 246.168V246.153C341.238 245.993 341.046 245.866 340.845 245.799C340.66 245.837 340.478 245.896 340.359 245.945L340.358 245.945L340.357 245.946C340.147 246.03 339.96 246.138 339.791 246.265L339.575 246.427L339.415 246.21C339.23 245.958 338.889 245.751 338.487 245.603C338.091 245.457 337.674 245.382 337.382 245.37C336.9 245.351 336.34 245.383 335.81 245.507Z" fill="#2C2C2C"/>
<path d="M358.21 257.725C358.21 257.725 357.822 258.974 357.702 259.168C357.582 259.361 354.516 260.417 350.777 260.337C346.89 260.256 345.113 259.128 345.06 257.719H358.21V257.725Z" fill="#50BFD7"/>
<path fill-rule="evenodd" clip-rule="evenodd" d="M344.782 257.452H358.477V257.766L358.465 257.805L358.21 257.726C358.465 257.805 358.465 257.805 358.465 257.805L358.465 257.805L358.465 257.805L358.46 257.819C358.457 257.828 358.453 257.842 358.448 257.86C358.437 257.894 358.421 257.944 358.402 258.005C358.363 258.126 358.311 258.289 358.255 258.459C358.198 258.628 358.138 258.805 358.083 258.953C358.032 259.09 357.976 259.233 357.929 259.309C357.902 259.352 357.869 259.381 357.851 259.396C357.829 259.414 357.806 259.429 357.785 259.442C357.743 259.468 357.691 259.494 357.635 259.52C357.522 259.572 357.368 259.632 357.182 259.696C356.809 259.825 356.288 259.975 355.655 260.116C354.39 260.398 352.667 260.645 350.771 260.604M357.847 257.986H345.365C345.481 258.462 345.86 258.917 346.6 259.287C347.487 259.731 348.858 260.03 350.782 260.07L350.782 260.07C352.627 260.109 354.306 259.869 355.539 259.594C356.155 259.457 356.656 259.312 357.008 259.191C357.185 259.13 357.32 259.077 357.412 259.035C357.447 259.018 357.473 259.005 357.491 258.995C357.497 258.982 357.504 258.966 357.512 258.947C357.532 258.9 357.556 258.839 357.582 258.769C357.633 258.628 357.692 258.457 357.748 258.29C357.783 258.183 357.817 258.079 357.847 257.986ZM344.782 257.452L344.793 257.729L344.782 257.452ZM344.793 257.729C344.825 258.563 345.37 259.27 346.361 259.765L344.793 257.729ZM346.361 259.765C347.348 260.258 348.808 260.563 350.771 260.604L346.361 259.765Z" fill="#2C2C2C"/>
<path d="M358.203 257.993C357.615 258.52 356.847 258.921 356.286 259.101C354.891 259.562 353.361 259.736 351.899 259.816C350.343 259.896 348.633 259.869 347.177 259.255C346.389 258.921 345.721 258.433 345.1 257.879C344.819 257.191 344.746 256.41 344.766 255.608C344.813 254.166 345.14 252.77 345.394 251.354C345.434 251.147 345.467 250.947 345.501 250.747C345.574 249.825 345.641 248.897 345.701 247.982C345.728 247.641 345.761 247.341 345.754 247C345.748 246.773 345.668 246.406 345.728 246.192C345.734 246.165 345.748 246.145 345.754 246.125C345.754 246.092 345.748 246.058 345.754 246.025C346.015 245.811 346.282 245.611 346.603 245.524C346.83 245.564 347.057 245.638 347.204 245.698C347.437 245.791 347.644 245.911 347.831 246.052C348.292 245.424 349.428 245.13 350.069 245.103C351.07 245.063 352.406 245.237 353.201 245.972C353.334 245.845 353.541 245.778 353.722 245.744C353.762 245.738 353.809 245.731 353.849 245.724C354.316 245.905 354.196 247.053 354.243 247.381C354.309 247.815 354.376 248.249 354.483 248.67C354.697 249.478 355.004 250.219 355.472 250.914C355.972 251.662 356.627 252.309 357.201 252.997C357.281 253.137 357.368 253.278 357.448 253.411C358.063 254.4 358.564 255.836 358.43 257.011C358.397 257.385 358.317 257.706 358.203 257.993Z" fill="#50BFD7"/>
<path fill-rule="evenodd" clip-rule="evenodd" d="M351.652 245.507C351.122 245.383 350.562 245.351 350.079 245.37C349.787 245.382 349.371 245.457 348.975 245.603C348.573 245.751 348.232 245.958 348.047 246.21L347.887 246.427L347.671 246.265C347.501 246.138 347.315 246.03 347.104 245.946L347.103 245.945L347.102 245.945C346.983 245.896 346.802 245.836 346.616 245.799C346.412 245.866 346.224 245.992 346.021 246.152V246.168L346.008 246.209C346.002 246.227 345.996 246.241 345.992 246.25C345.99 246.254 345.988 246.258 345.987 246.261C345.985 246.264 345.985 246.265 345.984 246.267C345.97 246.321 345.969 246.42 345.982 246.567C345.986 246.607 345.991 246.653 345.996 246.701C346.007 246.801 346.019 246.909 346.021 246.992L346.021 246.993L346.021 246.995C346.027 247.286 346.005 247.553 345.982 247.821C345.977 247.881 345.972 247.941 345.967 248.001C345.907 248.916 345.84 249.845 345.767 250.768L345.766 250.779L345.764 250.792C345.731 250.991 345.697 251.193 345.656 251.403C345.602 251.708 345.544 252.009 345.487 252.308C345.275 253.418 345.069 254.501 345.033 255.616C345.014 256.377 345.082 257.095 345.325 257.721C345.919 258.247 346.549 258.698 347.281 259.009C348.677 259.598 350.333 259.629 351.884 259.549C353.339 259.469 354.84 259.297 356.202 258.848L356.203 258.847L356.204 258.847C356.718 258.682 357.426 258.315 357.977 257.836C358.069 257.588 358.135 257.31 358.164 256.987L358.164 256.984L358.164 256.981C358.289 255.887 357.818 254.512 357.221 253.552L357.22 253.55L357.219 253.549C357.198 253.513 357.175 253.476 357.152 253.438C357.096 253.345 357.037 253.247 356.981 253.15C356.811 252.948 356.629 252.743 356.443 252.534C356.03 252.068 355.599 251.584 355.25 251.062C354.762 250.339 354.444 249.569 354.225 248.738L354.224 248.737L354.224 248.735C354.114 248.302 354.046 247.857 353.979 247.427L353.978 247.42L353.978 247.418C353.965 247.325 353.963 247.188 353.961 247.056C353.96 247.042 353.96 247.028 353.96 247.014C353.957 246.857 353.953 246.687 353.937 246.523C353.921 246.357 353.894 246.216 353.853 246.112C353.831 246.058 353.809 246.024 353.791 246.004C353.783 246.005 353.775 246.006 353.768 246.007C353.603 246.038 353.46 246.093 353.385 246.165L353.203 246.337L353.019 246.168C352.668 245.842 352.184 245.631 351.652 245.507ZM353.217 245.635C352.799 245.309 352.288 245.107 351.773 244.987C351.186 244.85 350.577 244.816 350.058 244.836L350.057 244.836C349.708 244.851 349.237 244.937 348.79 245.101C348.43 245.234 348.061 245.427 347.787 245.697C347.638 245.603 347.478 245.52 347.304 245.45C347.142 245.384 346.897 245.305 346.649 245.261L346.59 245.251L346.533 245.266C346.152 245.369 345.846 245.604 345.585 245.818L345.511 245.879L345.492 245.972C345.484 246.014 345.484 246.052 345.484 246.077C345.479 246.09 345.474 246.105 345.469 246.123C345.426 246.282 345.437 246.471 345.45 246.615C345.456 246.683 345.463 246.742 345.469 246.795C345.478 246.876 345.485 246.944 345.487 247.006C345.492 247.268 345.473 247.501 345.45 247.766C345.445 247.829 345.44 247.894 345.434 247.961L345.434 247.962L345.434 247.964C345.374 248.874 345.308 249.797 345.235 250.714C345.202 250.911 345.17 251.104 345.131 251.303L345.131 251.305L345.131 251.307C345.078 251.599 345.022 251.892 344.966 252.186C344.753 253.302 344.536 254.438 344.499 255.6L344.499 255.601L344.499 255.602C344.478 256.42 344.552 257.243 344.852 257.98L344.876 258.037L344.922 258.078C345.555 258.644 346.248 259.151 347.073 259.501L347.073 259.501C348.589 260.141 350.351 260.163 351.912 260.083L351.913 260.083C353.383 260.002 354.94 259.827 356.369 259.355C356.962 259.164 357.764 258.746 358.381 258.191L358.428 258.149L358.451 258.091C358.574 257.78 358.66 257.436 358.696 257.038C358.837 255.782 358.307 254.288 357.676 253.272C357.653 253.233 357.629 253.194 357.606 253.155C357.547 253.058 357.489 252.962 357.433 252.865L357.421 252.844L357.406 252.826C357.209 252.59 357.009 252.365 356.811 252.143C356.411 251.693 356.022 251.256 355.693 250.765L355.693 250.764C355.245 250.099 354.949 249.387 354.742 248.602C354.639 248.197 354.574 247.777 354.507 247.341C354.499 247.283 354.497 247.181 354.494 247.027L354.494 247.005C354.491 246.848 354.487 246.659 354.469 246.471C354.451 246.287 354.418 246.087 354.349 245.914C354.281 245.743 354.16 245.558 353.945 245.475L353.877 245.449L353.805 245.461C353.786 245.464 353.766 245.467 353.744 245.47L353.744 245.47C353.722 245.474 353.699 245.477 353.678 245.481L353.675 245.481L353.673 245.482C353.54 245.506 353.371 245.551 353.217 245.635ZM345.504 246.031C345.504 246.031 345.504 246.031 345.504 246.031V246.031Z" fill="#2C2C2C"/>
<path fill-rule="evenodd" clip-rule="evenodd" d="M324.931 87.9799V88.1135H324.397V87.9799H324.931Z" fill="#2C2C2C"/>
<path fill-rule="evenodd" clip-rule="evenodd" d="M327.736 89.4494V89.583H327.202V89.4494H327.736Z" fill="#2C2C2C"/>
<path d="M342.93 88.6609C343.844 88.8546 343.504 89.449 343.504 89.5358C343.504 89.6226 343.844 94.5646 348.259 95.8669C352.673 97.1692 355.318 94.6114 356.086 93.3291C356.854 92.0469 357.495 89.0015 357.682 88.7678C357.876 88.534 358.791 88.1267 358.791 88.1267L358.898 86.9312L357.749 86.5906C357.749 86.5906 354.851 85.2683 350.583 85.2082C346.322 85.1414 343.911 87.5991 343.911 87.5991C342.709 87.2184 341.22 87.165 339.857 87.5991C339.857 87.5991 337.447 85.1481 333.186 85.2082C328.925 85.275 326.02 86.5906 326.02 86.5906L324.871 86.9312L324.978 88.1267C324.978 88.1267 325.893 88.534 326.087 88.7678C326.28 89.0015 326.915 92.0536 327.683 93.3291C328.451 94.6114 331.095 97.1692 335.51 95.8669C339.924 94.5646 340.265 89.6226 340.265 89.5358C340.265 89.449 339.924 88.8546 340.839 88.6609C341.634 88.494 342.135 88.494 342.93 88.6609ZM353.522 94.8451C350.156 96.8687 346.122 94.8251 344.906 92.1604C343.691 89.4957 344.713 88.0866 344.713 88.0866C346.75 84.7741 354.944 84.6338 356.353 88.2135C356.594 88.8145 356.894 92.8216 353.522 94.8451ZM327.409 88.2135C328.818 84.6272 337.019 84.7741 339.049 88.0866C339.049 88.0866 340.071 89.4957 338.856 92.1604C337.64 94.8251 333.613 96.8687 330.241 94.8451C326.875 92.8216 327.175 88.8145 327.409 88.2135Z" fill="#2C2C2C"/>
<path d="M344.993 124.524H339.864C338.502 124.524 337.393 125.633 337.393 126.995V132.124C337.393 133.487 338.502 134.595 339.864 134.595H344.993C346.355 134.595 347.464 133.487 347.464 132.124V126.995C347.464 125.633 346.362 124.524 344.993 124.524ZM336.031 122.34C335.249 122.34 334.615 122.975 334.615 123.756C334.615 124.538 335.249 125.172 336.031 125.172C336.812 125.172 337.446 124.538 337.446 123.756C337.446 122.975 336.812 122.34 336.031 122.34Z" fill="white"/>
<path d="M344.632 127.583C344.305 126.708 343.47 126.127 342.535 126.127H341.146L343.891 133.086H346.836L344.632 127.583ZM339.023 131.089L338.221 133.086H341.146L342.509 129.633H341.12C340.185 129.633 339.35 130.214 339.023 131.089ZM339.477 127.857C339.958 127.857 340.352 127.463 340.352 126.982C340.352 126.501 339.958 126.107 339.477 126.107C338.996 126.107 338.602 126.501 338.602 126.982C338.602 127.463 338.996 127.857 339.477 127.857Z" fill="#50BFD7"/>
</svg>
