<svg width="469" height="381" viewBox="0 0 469 381" fill="none" xmlns="http://www.w3.org/2000/svg">
<path d="M448.329 189.697C453.082 157.94 448.966 125.801 429.164 98.3767C406.468 66.9887 370.518 44.8077 332.302 38.5148C325.494 37.3862 318.607 36.7926 311.706 36.7395C295.233 36.6275 278.855 39.2375 263.233 44.4641C236.859 53.3721 214.188 68.8912 193.687 87.4135C184.582 95.6343 175.693 106.184 163.635 110.002C151.119 113.998 137.656 108.856 125.458 105.713C102.596 99.8211 69.0383 87.0954 46.2592 99.1848C16.3537 115.092 7.44562 150.088 18.8988 177.448C30.352 204.809 65.3478 206.717 69.1655 227.715C72.9833 248.712 91.4356 279.891 131.522 276.709C171.608 273.528 186.879 239.168 212.33 249.349C221.283 252.931 228.314 259.529 235.93 265.199C246.537 273.114 258.041 278.503 271.098 280.985C289.766 284.535 310.153 282.658 329 281.755C350.634 280.711 373.909 281.507 394.913 273.948C417.463 265.822 431.703 248.019 439.345 225.698C443.42 213.993 446.428 201.944 448.329 189.697Z" fill="#CAECF3"/>
<path d="M285.005 270.738H388.995C390.982 270.738 392.888 269.948 394.293 268.543C395.698 267.138 396.487 265.233 396.487 263.246V70.8497C396.487 68.8627 395.698 66.9571 394.293 65.552C392.888 64.147 390.982 63.3577 388.995 63.3577H88.1141C86.1271 63.3577 84.2215 64.147 82.8164 65.552C81.4114 66.9571 80.6221 68.8627 80.6221 70.8497V263.246C80.6221 265.233 81.4114 267.138 82.8164 268.543C84.2215 269.948 86.1271 270.738 88.1141 270.738H192.104" stroke="black" stroke-linecap="round" stroke-linejoin="round"/>
<path d="M389.297 71.7488H87.2178V248.561H389.297V71.7488Z" stroke="black" stroke-linecap="round" stroke-linejoin="round"/>
<path d="M285.007 270.738H192.105V291.686H285.007V270.738Z" stroke="black" stroke-linecap="round" stroke-linejoin="round"/>
<path d="M285.008 291.686H301.19V299.681H175.923V291.686H192.106" stroke="black" stroke-linecap="round" stroke-linejoin="round"/>
<path d="M56.5351 299.681H43.3491" stroke="#2C2C2C" stroke-width="0.75" stroke-miterlimit="10" stroke-linecap="round"/>
<path d="M390.379 299.681H63.7256" stroke="#2C2C2C" stroke-width="0.75" stroke-miterlimit="10" stroke-linecap="round"/>
<path d="M415.553 299.681H394.576" stroke="#2C2C2C" stroke-width="0.75" stroke-miterlimit="10" stroke-linecap="round"/>
<path d="M404.409 231.245L413.684 216.964L357.496 180.476L348.222 194.757L404.409 231.245Z" fill="#C7C7C7"/>
<path d="M450.019 266.06L464.044 244.46L405.848 206.659L391.823 228.26L450.019 266.06Z" fill="#2C2C2C"/>
<path d="M358.033 142.55L358.058 142.943L358.099 143.544C358.152 144.289 358.202 145.021 358.22 145.735C358.28 145.959 358.238 146.197 358.232 146.425C358.331 150.005 358.128 153.587 357.626 157.133C357.593 157.408 357.56 157.683 357.512 157.949C356.865 162.245 355.793 166.466 354.311 170.551L354.126 171.053C350.817 179.944 345.646 188.026 338.96 194.756L338.521 195.207C334.579 199.09 330.172 202.471 325.4 205.274L323.599 206.302C317.783 209.488 311.515 211.769 305.012 213.067L304.565 213.187C301.849 213.712 299.103 214.07 296.344 214.258C295.456 214.323 294.561 214.363 293.709 214.364C292.857 214.366 292.131 214.388 291.345 214.385C284.178 214.346 277.066 213.135 270.291 210.799C269.94 210.68 269.56 210.556 269.202 210.412C267.818 209.917 266.458 209.363 265.112 208.765L264.414 208.446C259.095 206.026 254.122 202.907 249.626 199.173L248.994 198.65C248.722 198.43 248.459 198.194 248.199 197.971C243.709 194.048 239.762 189.545 236.462 184.579C236.219 184.218 235.988 183.853 235.744 183.439C234.386 181.298 233.148 179.082 232.035 176.804C231.975 176.58 231.844 176.389 231.734 176.178C228.238 168.7 226.163 160.637 225.616 152.399L225.563 151.508L225.536 150.809C225.002 139.122 227.592 127.502 233.041 117.148C235.486 112.523 238.46 108.196 241.902 104.255C243.189 102.827 244.537 101.432 245.947 100.069C253.4 92.9371 262.411 87.6381 272.266 84.5911C282.122 81.5441 292.551 80.8327 302.728 82.5133C312.906 84.1939 322.553 88.2203 330.906 94.2738C339.258 100.327 346.087 108.242 350.852 117.391C350.921 117.503 350.98 117.621 351.026 117.744C354.973 125.47 357.354 133.9 358.033 142.55Z" fill="white"/>
<path d="M325.399 205.274L323.597 206.303L293.657 214.325C292.865 214.351 292.079 214.349 291.292 214.346L304.424 210.828L325.399 205.274Z" fill="#EBEBEB"/>
<path d="M329.92 150.096C330.08 150.693 330.06 151.324 329.861 151.909C329.662 152.495 329.294 153.008 328.804 153.384C328.314 153.761 327.723 153.983 327.106 154.023C326.489 154.064 325.874 153.92 325.339 153.611C324.803 153.302 324.372 152.841 324.098 152.287C323.825 151.733 323.722 151.11 323.803 150.497C323.884 149.884 324.144 149.309 324.552 148.844C324.959 148.379 325.496 148.046 326.093 147.886C326.489 147.78 326.902 147.753 327.309 147.806C327.716 147.86 328.109 147.993 328.464 148.198C328.82 148.403 329.131 148.677 329.381 149.002C329.631 149.328 329.814 149.699 329.92 150.096Z" fill="white"/>
<path d="M334.575 167.463C334.735 168.06 334.714 168.691 334.515 169.276C334.317 169.862 333.949 170.375 333.458 170.751C332.968 171.128 332.377 171.35 331.76 171.39C331.143 171.431 330.528 171.287 329.993 170.978C329.458 170.669 329.026 170.208 328.753 169.654C328.479 169.1 328.376 168.477 328.457 167.864C328.538 167.251 328.798 166.676 329.206 166.211C329.614 165.746 330.15 165.413 330.747 165.253C331.548 165.038 332.401 165.151 333.118 165.565C333.836 165.98 334.36 166.662 334.575 167.463Z" fill="white"/>
<path d="M297.071 225.421C281.754 226.461 266.473 222.935 253.16 215.288C239.848 207.642 229.102 196.219 222.283 182.464C215.464 168.71 212.878 153.242 214.851 138.017C216.825 122.792 223.269 108.495 233.37 96.9333C243.471 85.3719 256.773 77.0661 271.595 73.0665C286.417 69.0669 302.093 69.5533 316.638 74.4641C331.184 79.375 343.946 88.4896 353.31 100.655C362.675 112.82 368.221 127.49 369.246 142.808C370.6 163.327 363.763 183.545 350.233 199.031C336.704 214.517 317.586 224.007 297.071 225.421ZM296.475 216.539C310.031 215.628 323.011 210.717 333.775 202.428C344.539 194.139 352.604 182.845 356.95 169.973C361.295 157.101 361.726 143.229 358.188 130.112C354.65 116.995 347.302 105.222 337.073 96.2807C326.844 87.3397 314.194 81.6326 300.721 79.8811C287.249 78.1295 273.56 80.4122 261.385 86.4404C249.21 92.4686 239.095 101.972 232.321 113.748C225.547 125.524 222.416 139.045 223.326 152.6C224.562 170.773 232.96 187.713 246.674 199.701C260.389 211.689 278.3 217.745 296.475 216.539Z" fill="#37474F"/>
<path d="M354.116 113.773C350.097 106.513 344.844 100.009 338.593 94.551C324.414 82.1605 305.893 75.9102 287.106 77.1749C268.318 78.4397 250.803 87.1159 238.412 101.295C226.022 115.474 219.771 133.995 221.036 152.782C222.301 171.57 230.977 189.085 245.156 201.476C255.724 210.728 268.8 216.636 282.728 218.452C296.656 220.268 310.81 217.911 323.397 211.678C335.984 205.445 346.439 195.618 353.438 183.439C360.436 171.261 363.664 157.28 362.711 143.267C362.051 132.923 359.116 122.852 354.116 113.773ZM358.099 143.544C359.148 158.889 354.842 174.124 345.916 186.65C336.99 199.176 323.996 208.219 309.148 212.237C294.301 216.255 278.52 214.999 264.495 208.684C250.47 202.369 239.069 191.385 232.236 177.605C225.403 163.825 223.56 148.102 227.023 133.115C230.485 118.129 239.038 104.807 251.223 95.4203C263.408 86.0338 278.471 81.1638 293.845 81.6405C309.219 82.1172 323.952 87.911 335.532 98.0343C348.785 109.616 356.905 125.981 358.111 143.541L358.099 143.544ZM354.116 113.773C350.097 106.513 344.844 100.009 338.593 94.551C324.414 82.1605 305.893 75.9102 287.106 77.1749C268.318 78.4397 250.803 87.1159 238.412 101.295C226.022 115.474 219.771 133.995 221.036 152.782C222.301 171.57 230.977 189.085 245.156 201.476C255.724 210.728 268.8 216.636 282.728 218.452C296.656 220.268 310.81 217.911 323.397 211.678C335.984 205.445 346.439 195.618 353.438 183.439C360.436 171.261 363.664 157.28 362.711 143.267C362.051 132.923 359.116 122.852 354.116 113.773ZM358.099 143.544C359.148 158.889 354.842 174.124 345.916 186.65C336.99 199.176 323.996 208.219 309.148 212.237C294.301 216.255 278.52 214.999 264.495 208.684C250.47 202.369 239.069 191.385 232.236 177.605C225.403 163.825 223.56 148.102 227.023 133.115C230.485 118.129 239.038 104.807 251.223 95.4203C263.408 86.0338 278.471 81.1638 293.845 81.6405C309.219 82.1172 323.952 87.911 335.532 98.0343C348.785 109.616 356.905 125.981 358.111 143.541L358.099 143.544ZM361.89 109.493C352.414 92.2455 336.904 79.1036 318.335 72.5879C299.766 66.0721 279.444 66.6412 261.269 74.186C243.093 81.7308 228.343 95.7201 219.847 113.471C211.351 131.222 209.707 151.484 215.231 170.372C220.755 189.26 233.058 205.444 249.78 215.82C266.502 226.195 286.465 230.032 305.842 226.595C325.219 223.157 342.644 212.687 354.776 197.192C366.908 181.698 372.893 162.269 371.583 142.634C370.815 131.011 367.511 119.698 361.903 109.49L361.89 109.493ZM366.98 142.948C368.23 161.465 362.6 179.791 351.169 194.411C339.739 209.032 323.313 218.918 305.042 222.172C286.771 225.426 267.942 221.821 252.166 212.046C236.39 202.271 224.778 187.016 219.558 169.207C214.338 151.398 215.877 132.288 223.88 115.544C231.883 98.7996 245.786 85.5994 262.923 78.4754C280.059 71.3515 299.223 70.8053 316.738 76.9417C334.253 83.0781 348.885 95.465 357.828 111.726C363.134 121.335 366.263 131.993 366.992 142.945L366.98 142.948ZM338.593 94.551C324.414 82.1605 305.893 75.9102 287.106 77.1749C268.318 78.4397 250.803 87.1159 238.412 101.295C226.022 115.474 219.771 133.995 221.036 152.782C222.301 171.57 230.977 189.085 245.156 201.476C255.724 210.728 268.8 216.636 282.728 218.452C296.656 220.268 310.81 217.911 323.397 211.678C335.984 205.445 346.439 195.618 353.438 183.439C360.436 171.261 363.664 157.28 362.711 143.267C362.044 132.937 359.109 122.88 354.114 113.814C350.099 106.54 344.847 100.021 338.593 94.551ZM358.111 143.541C359.16 158.886 354.854 174.12 345.928 186.647C337.002 199.173 324.008 208.216 309.161 212.234C294.314 216.252 278.532 214.996 264.507 208.681C250.482 202.366 239.082 191.382 232.248 177.602C225.415 163.822 223.573 148.098 227.035 133.112C230.497 118.125 239.05 104.803 251.235 95.417C263.42 86.0305 278.483 81.1605 293.857 81.6372C309.231 82.1138 323.964 87.9076 335.544 98.0309C348.794 109.616 356.909 125.982 358.111 143.541Z" fill="#37474F"/>
<path d="M254.384 109.792C259.233 104.586 265.122 100.458 271.67 97.6767C274.975 96.2109 278.422 95.0866 281.956 94.3214C285.533 93.5567 289.177 93.1422 292.835 93.0839C300.216 93.0469 307.523 94.5542 314.287 97.5088C320.952 100.408 327.021 104.52 332.183 109.637C326.123 106.034 319.716 103.049 313.059 100.727C309.805 99.6585 306.472 98.8508 303.091 98.3118C299.747 97.7318 296.356 97.4723 292.963 97.5368C286.178 97.6053 279.445 98.7355 273.009 100.886C266.464 103.091 260.21 106.082 254.384 109.792Z" fill="#C0E2E9"/>
<path d="M385.636 261.716L369.261 324.272H405.781L389.406 261.716C389.306 261.291 389.066 260.912 388.724 260.641C388.382 260.369 387.958 260.222 387.521 260.222C387.084 260.222 386.66 260.369 386.318 260.641C385.976 260.912 385.735 261.291 385.636 261.716Z" fill="#2E9DB6" stroke="#2C2C2C" stroke-linecap="round" stroke-linejoin="round"/>
<path d="M369.261 324.272H399.014L384.137 267.434L369.261 324.272Z" fill="#2C2C2C" stroke="#2C2C2C" stroke-linecap="round" stroke-linejoin="round"/>
<path d="M409.467 322.9H363.916C362.591 322.9 361.518 323.973 361.518 325.297V325.603C361.518 326.927 362.591 328 363.916 328H409.467C410.791 328 411.865 326.927 411.865 325.603V325.297C411.865 323.973 410.791 322.9 409.467 322.9Z" fill="#2E9DB6" stroke="#2C2C2C" stroke-linecap="round" stroke-linejoin="round"/>
<path d="M393.878 322.9H363.916C362.591 322.9 361.518 323.973 361.518 325.297V325.603C361.518 326.927 362.591 328 363.916 328H393.878C395.202 328 396.275 326.927 396.275 325.603V325.297C396.275 323.973 395.202 322.9 393.878 322.9Z" fill="#2C2C2C" stroke="#2C2C2C" stroke-linecap="round" stroke-linejoin="round"/>
<path d="M375.796 299.321H399.25L396.415 288.484H378.631L375.796 299.321Z" fill="white" stroke="#2C2C2C" stroke-linecap="round" stroke-linejoin="round"/>
<path d="M375.796 299.321H392.489L389.654 288.484H378.631L375.796 299.321Z" fill="#BABABA" stroke="#2C2C2C" stroke-linecap="round" stroke-linejoin="round"/>
<path d="M121.654 191.372C121.654 191.372 110.437 192.692 108.086 192.692C108.061 192.692 108.035 192.692 108.01 192.692C107.998 192.692 107.985 192.692 107.973 192.692C107.96 192.692 107.947 192.692 107.935 192.692C107.91 192.692 107.884 192.692 107.859 192.692C105.495 192.692 94.2915 191.372 94.2915 191.372C79.3404 196.087 80.4092 217.904 80.4218 218.52C80.5224 223.022 80.5853 227.536 80.6985 232.038C80.9625 242.638 83.666 274.389 84.3576 284.486C84.4205 285.316 84.4582 286.007 84.4834 286.523C85.6151 309.182 86.7342 331.841 87.8659 354.501C87.9665 356.487 88.0671 358.487 88.1677 360.473C88.1677 360.473 93.4238 363.743 103.735 360.473L103.823 286.875L106.69 232.189C106.69 232.189 107.218 232.113 107.847 232.05C107.884 232.05 107.922 232.063 107.973 232.063V232.075C107.985 232.075 107.998 232.075 108.01 232.075C108.023 232.075 108.035 232.075 108.048 232.075V232.063C108.086 232.063 108.123 232.05 108.174 232.05C108.802 232.113 109.331 232.189 109.331 232.189L112.198 286.875L112.286 360.473C122.597 363.743 127.853 360.473 127.853 360.473C127.953 358.487 128.054 356.487 128.155 354.501C129.286 331.841 130.393 309.182 131.537 286.523C131.562 286.007 131.6 285.316 131.663 284.486C132.342 274.401 135.058 242.638 135.322 232.038C135.435 227.536 135.498 223.022 135.599 218.52C135.536 217.904 136.592 196.087 121.654 191.372Z" fill="#2C2C2C"/>
<path d="M33.8145 147.148C33.8145 147.148 30.7783 144.891 30.2355 142.644C29.6813 140.392 29.2455 139.311 25.583 135.266C21.9548 131.236 21.3176 127.856 21.3176 127.856C21.3176 127.856 16.8441 129.323 22.2828 135.787C25.6102 139.75 11.7802 133.132 7.78841 130.76C7.78841 130.76 4.75835 130.99 7.89801 134.757C11.0377 138.524 7.09817 136.921 13.541 143.881C19.9671 150.847 28.6199 156.888 32.7168 152.959C36.8022 149.025 33.8145 147.148 33.8145 147.148Z" fill="white"/>
<path fill-rule="evenodd" clip-rule="evenodd" d="M21.3173 127.856L21.1606 127.378L21.7054 127.199L21.8114 127.762L21.8115 127.762L21.8116 127.763L21.8123 127.766C21.8132 127.77 21.8147 127.778 21.817 127.789C21.8217 127.81 21.8292 127.844 21.8404 127.889C21.8627 127.981 21.8992 128.119 21.9545 128.299C22.065 128.66 22.2506 129.188 22.5474 129.841C23.1408 131.148 24.1798 132.955 25.956 134.928C27.7894 136.954 28.8426 138.266 29.5056 139.368C30.18 140.489 30.442 141.379 30.7237 142.523L30.7239 142.524L30.7242 142.526C30.9615 143.508 31.7707 144.551 32.5878 145.387C32.9872 145.795 33.3711 146.136 33.6553 146.375C33.7971 146.495 33.9134 146.588 33.9936 146.651C34.0337 146.683 34.0647 146.707 34.0853 146.722C34.0928 146.728 34.0989 146.733 34.1036 146.736C34.1082 146.739 34.1135 146.743 34.1194 146.747C34.1246 146.751 34.1303 146.754 34.1364 146.759C34.165 146.779 34.2034 146.807 34.2489 146.844C34.3397 146.916 34.4604 147.023 34.5891 147.164C34.8455 147.445 35.1426 147.875 35.2859 148.458C35.5821 149.663 35.1754 151.289 33.0654 153.321L33.0647 153.322C31.9148 154.425 30.4528 154.811 28.8543 154.679C27.2699 154.548 25.5334 153.91 23.762 152.947C20.2169 151.021 16.4044 147.726 13.1711 144.222C9.94515 140.737 9.23479 139.313 8.99001 138.232C8.94696 138.042 8.91797 137.859 8.89263 137.699C8.8842 137.646 8.87617 137.595 8.86817 137.547C8.83472 137.349 8.79651 137.166 8.72386 136.961C8.57874 136.551 8.27683 135.997 7.51138 135.079C6.70555 134.112 6.25729 133.328 6.07245 132.681C5.8824 132.016 5.96717 131.471 6.25178 131.06C6.52078 130.67 6.91632 130.476 7.20095 130.379C7.34807 130.328 7.48003 130.299 7.57605 130.282C7.62441 130.273 7.66461 130.267 7.69425 130.264C7.70909 130.262 7.72135 130.261 7.73075 130.26C7.73545 130.259 7.73943 130.259 7.74267 130.259L7.74697 130.258L7.74869 130.258L7.74945 130.258C7.74979 130.258 7.75013 130.258 7.78816 130.76L7.75013 130.258L7.90855 130.246L8.04513 130.327C10.0175 131.5 14.4506 133.736 17.9713 135.184C19.7499 135.915 21.2286 136.416 22.0391 136.507C22.1006 136.514 22.1539 136.518 22.1999 136.52C22.1365 136.415 22.0393 136.28 21.8976 136.111C19.1444 132.839 18.7523 130.66 19.2892 129.222C19.5529 128.515 20.0202 128.056 20.4112 127.777C20.6071 127.637 20.7874 127.54 20.9209 127.477C20.9879 127.445 21.0438 127.422 21.0848 127.406C21.1054 127.398 21.1222 127.391 21.135 127.387C21.1414 127.384 21.1467 127.383 21.151 127.381L21.1566 127.379L21.1588 127.378L21.1597 127.378C21.1602 127.378 21.1606 127.378 21.3173 127.856ZM7.68862 131.285C7.64111 131.295 7.58557 131.31 7.52659 131.33C7.34119 131.394 7.17545 131.492 7.0794 131.631C6.99895 131.748 6.91488 131.968 7.03973 132.405C7.16978 132.86 7.52014 133.518 8.28415 134.435C9.08852 135.4 9.47155 136.058 9.67214 136.625C9.77234 136.908 9.82218 137.155 9.86019 137.38C9.87138 137.447 9.88121 137.509 9.89067 137.569C9.91449 137.719 9.93598 137.855 9.97112 138.01C10.1522 138.81 10.6934 140.064 13.9098 143.539L13.9104 143.539C17.1033 147 20.8302 150.209 24.2422 152.063C25.9494 152.991 27.5458 153.561 28.937 153.676C30.3137 153.79 31.4696 153.458 32.3682 152.596C34.3431 150.694 34.4852 149.415 34.309 148.698C34.216 148.32 34.0215 148.035 33.8454 147.841C33.7578 147.745 33.677 147.674 33.6204 147.629C33.5922 147.606 33.5704 147.591 33.5572 147.581C33.5507 147.577 33.5463 147.574 33.5445 147.573C33.5435 147.572 33.5432 147.572 33.5436 147.572L33.53 147.563L33.5141 147.552L33.8143 147.148C33.5141 147.552 33.5141 147.552 33.514 147.552L33.5137 147.551L33.5107 147.549L33.5029 147.543C33.4963 147.538 33.4868 147.531 33.4748 147.522C33.4506 147.503 33.4158 147.477 33.3718 147.442C33.2839 147.373 33.1588 147.272 33.0075 147.145C32.7053 146.891 32.2963 146.527 31.8688 146.09C31.0324 145.235 30.0523 144.027 29.7466 142.763C29.4742 141.656 29.2411 140.88 28.6436 139.886C28.0346 138.874 27.0388 137.623 25.2099 135.603L25.209 135.602C23.3574 133.546 22.2637 131.649 21.6316 130.258C21.3163 129.564 21.1159 128.996 20.9935 128.597C20.7162 128.795 20.406 129.106 20.2316 129.573C19.8914 130.485 19.982 132.272 22.6675 135.463L22.6678 135.464C22.8881 135.726 23.0592 135.97 23.1659 136.193C23.2653 136.401 23.3536 136.685 23.2537 136.972C23.1412 137.295 22.8621 137.434 22.6396 137.487C22.4214 137.539 22.1718 137.534 21.9267 137.507C20.9552 137.398 19.3508 136.839 17.5888 136.114C14.1181 134.687 9.77585 132.506 7.68862 131.285ZM7.82838 131.261C7.82931 131.261 7.82962 131.261 7.82927 131.261L7.82838 131.261Z" fill="#2C2C2C"/>
<path d="M80.3818 128.264C80.3818 128.264 70.7559 179.129 66.0368 181.999C62.2391 184.313 49.9489 173.712 33.7478 159.409C31.9639 157.74 29.8164 155.19 29.8164 155.19L33.4403 141.5L37.4716 145.741L56.623 161.73C56.623 161.73 64.6453 120.242 72.2289 119.488C79.8248 118.722 80.3818 128.264 80.3818 128.264Z" fill="#2C2C2C"/>
<path d="M182.294 147.148C182.294 147.148 185.33 144.89 185.873 142.643C186.427 140.391 186.863 139.31 190.525 135.265C194.154 131.235 194.791 127.855 194.791 127.855C194.791 127.855 199.264 129.323 193.826 135.787C190.498 139.749 204.328 133.132 208.32 130.759C208.32 130.759 211.35 130.989 208.21 134.756C205.071 138.523 209.01 136.92 202.567 143.88C196.141 150.846 187.489 156.887 183.392 152.958C179.306 149.024 182.294 147.148 182.294 147.148Z" fill="white"/>
<path fill-rule="evenodd" clip-rule="evenodd" d="M194.791 127.855L194.948 127.377L194.403 127.199L194.297 127.761L194.297 127.761L194.297 127.762L194.296 127.766C194.295 127.77 194.294 127.777 194.291 127.788C194.287 127.81 194.279 127.843 194.268 127.889C194.246 127.98 194.209 128.119 194.154 128.299C194.043 128.66 193.858 129.188 193.561 129.841C192.968 131.147 191.929 132.955 190.152 134.928C188.319 136.953 187.266 138.265 186.603 139.367C185.928 140.488 185.666 141.378 185.385 142.523L185.384 142.524L185.384 142.525C185.147 143.508 184.338 144.551 183.521 145.386C183.121 145.794 182.737 146.136 182.453 146.375C182.311 146.494 182.195 146.588 182.115 146.651C182.075 146.682 182.044 146.706 182.023 146.722C182.016 146.728 182.01 146.732 182.005 146.736C182 146.739 181.995 146.742 181.989 146.747C181.984 146.75 181.978 146.754 181.972 146.758C181.943 146.778 181.905 146.807 181.859 146.843C181.769 146.916 181.648 147.022 181.519 147.164C181.263 147.445 180.966 147.875 180.823 148.458C180.526 149.662 180.933 151.289 183.043 153.321L183.044 153.321C184.194 154.424 185.656 154.81 187.254 154.678C188.838 154.548 190.575 153.909 192.346 152.947C195.891 151.021 199.704 147.726 202.937 144.221C206.163 140.736 206.874 139.313 207.118 138.232C207.161 138.042 207.19 137.859 207.216 137.698C207.224 137.645 207.232 137.594 207.24 137.547C207.274 137.348 207.312 137.165 207.385 136.96C207.53 136.55 207.832 135.997 208.597 135.078C209.403 134.111 209.851 133.328 210.036 132.68C210.226 132.015 210.141 131.471 209.857 131.059C209.588 130.67 209.192 130.475 208.907 130.378C208.76 130.328 208.628 130.298 208.532 130.281C208.484 130.273 208.444 130.267 208.414 130.263C208.399 130.262 208.387 130.26 208.378 130.259C208.373 130.259 208.369 130.259 208.366 130.258L208.361 130.258L208.36 130.258L208.359 130.258C208.359 130.258 208.358 130.258 208.32 130.759L208.358 130.258L208.2 130.246L208.063 130.327C206.091 131.499 201.658 133.736 198.137 135.183C196.359 135.915 194.88 136.416 194.069 136.507C194.008 136.514 193.954 136.518 193.909 136.519C193.972 136.414 194.069 136.279 194.211 136.11C196.964 132.838 197.356 130.659 196.819 129.221C196.555 128.515 196.088 128.055 195.697 127.776C195.501 127.636 195.321 127.539 195.187 127.476C195.12 127.445 195.065 127.421 195.024 127.405C195.003 127.397 194.986 127.391 194.973 127.386C194.967 127.384 194.962 127.382 194.957 127.381L194.952 127.379L194.95 127.378L194.949 127.378C194.948 127.377 194.948 127.377 194.791 127.855ZM208.42 131.284C208.467 131.295 208.523 131.31 208.582 131.33C208.767 131.393 208.933 131.492 209.029 131.631C209.109 131.747 209.194 131.967 209.069 132.404C208.939 132.86 208.588 133.517 207.824 134.434C207.02 135.399 206.637 136.058 206.436 136.624C206.336 136.908 206.286 137.154 206.248 137.38C206.237 137.447 206.227 137.509 206.218 137.568C206.194 137.719 206.172 137.855 206.137 138.01C205.956 138.809 205.415 140.064 202.199 143.538L202.198 143.539C199.005 147 195.278 150.209 191.866 152.063C190.159 152.99 188.563 153.561 187.171 153.676C185.795 153.789 184.639 153.457 183.74 152.596C181.765 150.694 181.623 149.415 181.799 148.698C181.892 148.319 182.087 148.034 182.263 147.841C182.351 147.745 182.431 147.674 182.488 147.629C182.516 147.606 182.538 147.59 182.551 147.581C182.558 147.576 182.562 147.573 182.564 147.572C182.565 147.571 182.565 147.571 182.565 147.571L182.578 147.563L182.594 147.551L182.294 147.148C182.594 147.551 182.594 147.551 182.594 147.551L182.595 147.551L182.598 147.549L182.605 147.543C182.612 147.538 182.622 147.531 182.634 147.521C182.658 147.503 182.693 147.476 182.737 147.442C182.825 147.372 182.95 147.272 183.101 147.144C183.403 146.89 183.812 146.527 184.24 146.09C185.076 145.235 186.056 144.026 186.362 142.762C186.634 141.655 186.867 140.879 187.465 139.886C188.074 138.874 189.07 137.623 190.899 135.603L190.899 135.602C192.751 133.545 193.845 131.648 194.477 130.257C194.792 129.563 194.993 128.995 195.115 128.596C195.392 128.795 195.702 129.106 195.877 129.573C196.217 130.484 196.126 132.271 193.441 135.463L193.441 135.463C193.22 135.726 193.049 135.969 192.942 136.193C192.843 136.401 192.755 136.685 192.855 136.971C192.967 137.294 193.246 137.433 193.469 137.487C193.687 137.539 193.937 137.534 194.182 137.506C195.153 137.397 196.758 136.838 198.52 136.114C201.99 134.687 206.333 132.505 208.42 131.284ZM208.28 131.261C208.279 131.26 208.279 131.26 208.279 131.26L208.28 131.261Z" fill="#2C2C2C"/>
<path d="M135.726 128.264C135.726 128.264 145.352 179.129 150.071 181.999C153.869 184.313 166.159 173.712 182.36 159.409C184.144 157.74 186.292 155.19 186.292 155.19L182.668 141.5L178.636 145.741L159.485 161.73C159.485 161.73 151.463 120.242 143.879 119.488C136.283 118.722 135.726 128.264 135.726 128.264Z" fill="#2C2C2C"/>
<path d="M155.718 128.587C155.718 136.61 150.462 141.577 142.439 141.577C134.417 141.577 127.916 135.076 127.916 127.053C127.916 119.031 133.976 110.178 141.622 112.58C150.047 115.208 155.718 120.565 155.718 128.587Z" fill="white"/>
<path fill-rule="evenodd" clip-rule="evenodd" d="M132.285 116.233C129.895 119.053 128.419 123.155 128.419 127.053C128.419 134.798 134.694 141.074 142.439 141.074C146.346 141.074 149.531 139.866 151.737 137.729C153.94 135.594 155.215 132.485 155.215 128.587C155.215 120.871 149.783 115.653 141.472 113.06L141.471 113.06C137.898 111.937 134.668 113.421 132.285 116.233ZM141.772 112.1C137.7 110.821 134.077 112.563 131.518 115.582C128.967 118.593 127.413 122.928 127.413 127.053C127.413 135.353 134.139 142.08 142.439 142.08C146.554 142.08 150.009 140.804 152.437 138.452C154.867 136.097 156.221 132.711 156.221 128.587C156.221 120.258 150.311 114.764 141.772 112.1Z" fill="#2C2C2C"/>
<path d="M149.192 126.248C149.192 132.184 145.306 135.855 139.371 135.855C133.436 135.855 128.632 131.052 128.632 125.117C128.632 119.182 133.109 112.63 138.78 114.403C144.992 116.365 149.192 120.326 149.192 126.248Z" fill="#2C2C2C"/>
<path d="M58.2656 128.587C58.2656 136.61 63.5218 141.577 71.5443 141.577C79.5668 141.577 86.0552 135.063 86.0552 127.053C86.0552 119.043 79.9943 110.178 72.349 112.58C63.9367 115.208 58.2656 120.565 58.2656 128.587Z" fill="white"/>
<path fill-rule="evenodd" clip-rule="evenodd" d="M82.453 115.587C85.0042 118.599 86.5583 122.935 86.5583 127.053C86.5583 135.34 79.8455 142.08 71.5443 142.08C67.429 142.08 63.9747 140.804 61.5466 138.452C59.1165 136.097 57.7627 132.712 57.7627 128.587C57.7627 120.259 63.6724 114.764 72.1987 112.1C76.2707 110.821 79.8944 112.566 82.453 115.587ZM81.6854 116.237C79.3023 113.424 76.073 111.937 72.4998 113.06L72.4991 113.06C64.2009 115.652 58.7687 120.871 58.7687 128.587C58.7687 132.485 60.0429 135.594 62.2465 137.729C64.4521 139.866 67.6372 141.074 71.5443 141.074C79.2882 141.074 85.5523 134.786 85.5523 127.053C85.5523 123.162 84.0759 119.06 81.6854 116.237Z" fill="#2C2C2C"/>
<path d="M64.8042 126.248C64.8042 132.184 68.6897 135.855 74.6249 135.855C80.56 135.855 85.3635 131.052 85.3635 125.117C85.3635 119.182 80.887 112.63 75.2284 114.403C68.9915 116.365 64.8042 120.326 64.8042 126.248Z" fill="#2C2C2C"/>
<path d="M125.275 192.956C116.196 192.126 107.231 191.787 107.231 191.787C103.936 191.887 96.9197 192.176 89.6768 192.956C91.7893 200.174 98.9567 205.493 107.47 205.493C115.995 205.505 123.163 200.161 125.275 192.956Z" fill="#50BFD7"/>
<path d="M124.533 193.711C125.313 190.642 140.918 112.454 140.918 112.454C140.918 112.454 99.2709 100.156 72.6382 112.454L89.7143 194.39L124.533 193.711Z" fill="white"/>
<path fill-rule="evenodd" clip-rule="evenodd" d="M141.059 111.972C141.06 111.972 141.06 111.972 140.917 112.454C141.411 112.553 141.411 112.553 141.41 112.554L141.41 112.556L141.235 113.432C141.121 114.005 140.953 114.847 140.739 115.919C140.31 118.062 139.698 121.129 138.96 124.818C137.485 132.196 135.51 142.065 133.511 152.031C129.515 171.947 125.414 192.284 125.02 193.835L124.926 194.206L89.3068 194.901L72.064 112.165L72.4271 111.998C85.8725 105.789 103.057 105.803 116.821 107.343C123.713 108.114 129.77 109.27 134.103 110.234C136.27 110.716 138.007 111.15 139.203 111.463C139.802 111.62 140.265 111.747 140.579 111.835C140.736 111.879 140.855 111.913 140.936 111.936C140.977 111.948 141.007 111.957 141.028 111.963L141.051 111.969L141.058 111.971L141.059 111.972ZM140.917 112.454L141.411 112.553L141.501 112.102L141.06 111.972L140.917 112.454ZM140.333 112.811C140.325 112.808 140.316 112.806 140.308 112.804C139.999 112.717 139.541 112.592 138.948 112.436C137.763 112.126 136.038 111.695 133.885 111.216C129.577 110.258 123.557 109.109 116.709 108.343C103.117 106.822 86.3468 106.822 73.2124 112.745L90.1214 193.879L124.132 193.215C124.844 190.019 128.725 170.77 132.524 151.833C134.524 141.868 136.499 131.999 137.974 124.621C138.711 120.932 139.324 117.865 139.752 115.721C139.966 114.65 140.134 113.808 140.249 113.235L140.333 112.811Z" fill="black"/>
<path d="M124.533 193.711C125.313 190.642 140.918 112.454 140.918 112.454C140.918 112.454 99.2709 100.156 72.6382 112.454L89.7143 194.39L124.533 193.711Z" fill="white"/>
<path fill-rule="evenodd" clip-rule="evenodd" d="M141.059 111.972C141.06 111.972 141.06 111.972 140.917 112.454C141.411 112.553 141.411 112.553 141.41 112.554L141.41 112.556L141.235 113.432C141.121 114.005 140.953 114.847 140.739 115.919C140.31 118.062 139.698 121.129 138.96 124.818C137.485 132.196 135.51 142.065 133.511 152.031C129.515 171.947 125.414 192.284 125.02 193.835L124.926 194.206L89.3068 194.901L72.064 112.165L72.4271 111.998C85.8725 105.789 103.057 105.803 116.821 107.343C123.713 108.114 129.77 109.27 134.103 110.234C136.27 110.716 138.007 111.15 139.203 111.463C139.802 111.62 140.265 111.747 140.579 111.835C140.736 111.879 140.855 111.913 140.936 111.936C140.977 111.948 141.007 111.957 141.028 111.963L141.051 111.969L141.058 111.971L141.059 111.972ZM140.917 112.454L141.411 112.553L141.501 112.102L141.06 111.972L140.917 112.454ZM140.333 112.811C140.325 112.808 140.316 112.806 140.308 112.804C139.999 112.717 139.541 112.592 138.948 112.436C137.763 112.126 136.038 111.695 133.885 111.216C129.577 110.258 123.557 109.109 116.709 108.343C103.117 106.822 86.3468 106.822 73.2124 112.745L90.1214 193.879L124.132 193.215C124.844 190.019 128.725 170.77 132.524 151.833C134.524 141.868 136.499 131.999 137.974 124.621C138.711 120.932 139.324 117.865 139.752 115.721C139.966 114.65 140.134 113.808 140.249 113.235L140.333 112.811Z" fill="#2C2C2C"/>
<path d="M130.808 110.053C119.176 107.714 99.51 105.048 82.6099 109.072C84.6092 121.684 86.6085 134.309 88.6079 146.921C90.2174 155.472 98.328 161.168 106.791 161.218C115.253 161.168 123.364 155.484 124.973 146.921C126.91 134.623 128.859 122.338 130.808 110.053Z" fill="#50BFD7"/>
<path fill-rule="evenodd" clip-rule="evenodd" d="M82.4933 108.582C99.504 104.532 119.26 107.217 130.907 109.559L131.38 109.655L131.303 110.139C129.355 122.422 127.406 134.704 125.47 146.999L125.469 147.006L125.468 147.014C123.806 155.852 115.456 161.67 106.793 161.721L106.79 161.721L106.788 161.721C98.1245 161.67 89.7746 155.839 88.1135 147.014L88.1121 147.007L88.111 147C87.1114 140.694 86.1119 134.386 85.1123 128.077L85.112 128.075C84.1123 121.766 83.1127 115.457 82.113 109.15L82.04 108.69L82.4933 108.582ZM83.1797 109.455C84.1549 115.606 85.1301 121.761 86.1053 127.916L86.1056 127.918C87.1048 134.224 88.1041 140.531 89.1034 146.835C90.6643 155.106 98.5317 160.665 106.79 160.715C115.05 160.665 122.916 155.119 124.477 146.835C126.389 134.699 128.312 122.575 130.235 110.451C118.673 108.161 99.6404 105.663 83.1797 109.455Z" fill="#2C2C2C"/>
<path d="M105.344 114.517C109.318 114.517 115.492 113.309 115.492 109.348L114.473 96.1201L113.581 84.5516C113.581 80.5781 110.362 77.3716 106.401 77.3716C104.414 77.3716 102.628 78.1763 101.32 79.4715C100.025 80.7667 99.2079 82.5648 99.2079 84.5516L98.3277 96.1327L97.4852 107.236C96.3535 113.938 105.344 114.517 105.344 114.517Z" fill="#2C2C2C"/>
<path d="M81.9561 374.67C81.9561 374.67 82.6979 377.021 82.9117 377.386C83.1381 377.751 88.9097 379.738 95.9514 379.587C103.27 379.436 106.615 377.311 106.715 374.657H81.9561V374.67Z" fill="#50BFD7"/>
<path fill-rule="evenodd" clip-rule="evenodd" d="M81.4526 374.155H107.237L107.217 374.677C107.158 376.247 106.13 377.577 104.264 378.51C102.407 379.439 99.6572 380.013 95.9615 380.09M81.4526 374.155V374.658V374.155ZM81.9556 374.67L81.4759 374.821L81.4526 374.748V374.658M81.9556 374.67C81.4759 374.821 81.4759 374.821 81.4759 374.821L81.4845 374.849C81.4901 374.866 81.4982 374.892 81.5086 374.924C81.5295 374.99 81.5595 375.084 81.5962 375.197C81.6694 375.425 81.7695 375.732 81.8764 376.051C81.983 376.37 82.0975 376.703 82.1995 376.981C82.2943 377.24 82.3963 377.502 82.4774 377.641L82.4806 377.646L82.4839 377.651C82.5342 377.732 82.5965 377.787 82.6313 377.815C82.6721 377.848 82.7152 377.877 82.755 377.902C82.8349 377.95 82.9315 378 83.0375 378.049C83.2512 378.147 83.5396 378.26 83.8902 378.381C84.5935 378.623 85.5747 378.906 86.7661 379.171C89.1485 379.701 92.3927 380.166 95.9615 380.09M82.6416 375.16H106.14C105.921 376.057 105.208 376.914 103.815 377.611C102.145 378.445 99.5632 379.009 95.9406 379.084L95.9402 379.084C92.4674 379.158 89.305 378.705 86.9847 378.189C85.8246 377.931 84.8804 377.658 84.2177 377.429C83.8854 377.315 83.6308 377.214 83.458 377.135C83.3938 377.105 83.3457 377.081 83.3116 377.062C83.3006 377.037 83.2881 377.008 83.2741 376.974C83.2368 376.883 83.1927 376.768 83.144 376.635C83.0468 376.37 82.9357 376.047 82.8302 375.732C82.763 375.531 82.6984 375.335 82.6416 375.16Z" fill="#2C2C2C"/>
<path d="M81.9685 375.173C83.075 376.166 84.5211 376.921 85.5773 377.26C88.2054 378.128 91.085 378.455 93.8388 378.606C96.7686 378.757 99.9877 378.706 102.729 377.55C104.213 376.921 105.47 376.003 106.64 374.959C107.168 373.664 107.306 372.193 107.268 370.684C107.18 367.968 106.564 365.34 106.086 362.674C106.011 362.284 105.948 361.907 105.885 361.53C105.747 359.794 105.621 358.046 105.508 356.324C105.47 355.682 105.395 355.117 105.407 354.475C105.42 354.048 105.571 353.356 105.458 352.954C105.445 352.904 105.42 352.866 105.407 352.828C105.407 352.765 105.42 352.702 105.407 352.639C104.917 352.237 104.401 351.86 103.81 351.696C103.383 351.772 102.955 351.91 102.679 352.023C102.239 352.199 101.849 352.426 101.497 352.69C100.629 351.508 98.4913 350.954 97.2842 350.904C95.398 350.829 92.8831 351.156 91.3868 352.539C91.1353 352.3 90.7455 352.174 90.4059 352.111C90.3305 352.099 90.2425 352.086 90.167 352.074C89.2868 352.413 89.5132 354.576 89.4251 355.192C89.2994 356.009 89.1736 356.827 88.9725 357.619C88.5701 359.14 87.9916 360.536 87.1114 361.844C86.1683 363.252 84.936 364.472 83.8546 365.767C83.7037 366.031 83.5403 366.295 83.3894 366.547C82.2325 368.408 81.2894 371.111 81.5409 373.324C81.6038 374.029 81.7547 374.632 81.9685 375.173Z" fill="#50BFD7"/>
<path fill-rule="evenodd" clip-rule="evenodd" d="M94.0751 350.684C95.1802 350.427 96.327 350.362 97.3043 350.401L97.3052 350.401C97.9622 350.429 98.8499 350.59 99.6916 350.9C100.368 351.15 101.065 351.513 101.58 352.021C101.861 351.844 102.163 351.688 102.49 351.557C102.794 351.432 103.256 351.283 103.723 351.201L103.835 351.181L103.944 351.211C104.646 351.405 105.232 351.845 105.726 352.25L105.865 352.364L105.901 352.541C105.916 352.62 105.917 352.69 105.915 352.737C105.925 352.761 105.935 352.791 105.944 352.823C106.026 353.123 106.005 353.48 105.981 353.75C105.969 353.878 105.957 353.989 105.945 354.089C105.928 354.242 105.914 354.369 105.91 354.488C105.902 354.899 105.932 355.261 105.964 355.66C105.98 355.858 105.997 356.065 106.01 356.292C106.122 358.005 106.247 359.743 106.385 361.468C106.447 361.839 106.508 362.203 106.58 362.578L106.581 362.582L106.581 362.585C106.68 363.134 106.785 363.686 106.891 364.241C107.292 366.341 107.7 368.48 107.771 370.667L107.771 370.669L107.771 370.671C107.81 372.212 107.671 373.762 107.105 375.149L107.061 375.257L106.975 375.334C105.782 376.399 104.478 377.355 102.925 378.012L102.925 378.013C100.07 379.217 96.7515 379.259 93.813 379.108L93.8113 379.108C91.043 378.956 88.1121 378.626 85.4216 377.738C84.3043 377.379 82.7956 376.591 81.6325 375.547L81.5443 375.468L81.5008 375.358C81.2696 374.773 81.108 374.124 81.0405 373.375C80.7741 371.011 81.772 368.197 82.9602 366.284C83.0044 366.211 83.0487 366.138 83.0929 366.065C83.2035 365.882 83.3131 365.701 83.418 365.517L83.4401 365.479L83.4686 365.445C83.84 365 84.2169 364.576 84.5884 364.159C85.3422 363.312 86.0739 362.489 86.6936 361.564L86.6942 361.563C87.5369 360.311 88.0947 358.97 88.4856 357.493C88.6792 356.729 88.8015 355.938 88.9276 355.118C88.9428 355.009 88.946 354.816 88.9509 354.526C88.9511 354.512 88.9513 354.498 88.9515 354.484C88.9565 354.19 88.964 353.833 88.9985 353.48C89.0324 353.132 89.0952 352.756 89.2251 352.431C89.3536 352.109 89.5798 351.761 89.9861 351.604L90.1142 351.555L90.2498 351.577C90.2838 351.583 90.3215 351.589 90.363 351.595L90.3647 351.595C90.4044 351.602 90.4479 351.608 90.4887 351.615L90.4931 351.616L90.4976 351.617C90.7481 351.663 91.0659 351.747 91.357 351.905C92.1427 351.291 93.106 350.91 94.0751 350.684ZM94.3036 351.664C93.3019 351.898 92.3904 352.296 91.7282 352.908L91.3821 353.228L91.0404 352.903C90.898 352.768 90.6299 352.665 90.3188 352.607C90.3046 352.604 90.2899 352.602 90.2745 352.599C90.2406 352.638 90.2004 352.701 90.1593 352.804C90.0813 352.999 90.0301 353.265 89.9997 353.578C89.9696 353.885 89.9623 354.206 89.9574 354.501C89.9569 354.527 89.9565 354.554 89.9561 354.581C89.9522 354.83 89.9482 355.088 89.9231 355.263L89.9227 355.266L89.9205 355.28C89.796 356.09 89.6671 356.927 89.46 357.743L89.4594 357.745L89.4588 357.747C89.045 359.312 88.4462 360.761 87.5291 362.124C86.8716 363.106 86.0603 364.019 85.2812 364.895C84.9317 365.288 84.5887 365.674 84.2689 366.056C84.1638 366.238 84.0522 366.423 83.9467 366.597C83.9034 366.668 83.8611 366.738 83.8207 366.805L83.8187 366.809L83.8166 366.812C82.693 368.62 81.8068 371.208 82.0407 373.267L82.0414 373.274L82.042 373.28C82.0963 373.888 82.2204 374.41 82.394 374.878C83.4314 375.781 84.7644 376.47 85.7313 376.781L85.7332 376.782L85.7351 376.782C88.2999 377.629 91.127 377.953 93.8653 378.103C96.7862 378.254 99.905 378.195 102.533 377.086C103.912 376.502 105.097 375.651 106.216 374.662C106.673 373.484 106.801 372.13 106.766 370.698C106.697 368.598 106.309 366.56 105.91 364.47C105.803 363.907 105.695 363.339 105.592 362.766C105.516 362.371 105.452 361.99 105.39 361.615L105.385 361.591L105.384 361.569C105.245 359.832 105.119 358.081 105.006 356.357L105.006 356.355L105.006 356.353C104.995 356.172 104.98 355.988 104.965 355.801C104.931 355.373 104.895 354.928 104.904 354.465L104.905 354.463L104.905 354.46C104.909 354.305 104.932 354.101 104.952 353.913C104.962 353.822 104.972 353.735 104.979 353.659C105.004 353.383 105.002 353.197 104.975 353.094C104.974 353.093 104.973 353.091 104.972 353.089L104.97 353.084C104.967 353.079 104.964 353.071 104.96 353.062C104.952 353.046 104.941 353.019 104.93 352.987L104.904 352.909V352.88C104.523 352.58 104.162 352.341 103.783 352.213C103.434 352.285 103.093 352.397 102.869 352.489L102.867 352.489L102.865 352.49C102.469 352.649 102.118 352.852 101.798 353.092L101.392 353.397L101.091 352.987C100.743 352.513 100.1 352.123 99.3439 351.844C98.5983 351.57 97.8138 351.43 97.2637 351.407C96.3549 351.37 95.3014 351.431 94.3036 351.664Z" fill="#2C2C2C"/>
<path d="M136.479 374.67C136.479 374.67 135.75 377.021 135.523 377.386C135.297 377.751 129.525 379.738 122.483 379.587C115.165 379.436 111.82 377.311 111.72 374.657H136.479V374.67Z" fill="#50BFD7"/>
<path fill-rule="evenodd" clip-rule="evenodd" d="M111.197 374.155H136.982V374.746L136.959 374.819L136.479 374.67C136.959 374.819 136.959 374.819 136.959 374.819L136.959 374.819L136.959 374.82L136.951 374.846C136.945 374.864 136.937 374.89 136.927 374.922C136.906 374.988 136.877 375.082 136.841 375.196C136.768 375.423 136.669 375.731 136.563 376.05C136.457 376.369 136.343 376.703 136.24 376.982C136.145 377.239 136.04 377.508 135.951 377.651C135.9 377.732 135.838 377.787 135.803 377.815C135.762 377.848 135.719 377.877 135.679 377.902C135.6 377.95 135.503 378 135.397 378.049C135.183 378.147 134.895 378.26 134.544 378.381C133.841 378.623 132.86 378.906 131.668 379.171C129.286 379.701 126.042 380.166 122.473 380.09M135.796 375.16H112.295C112.513 376.057 113.227 376.914 114.62 377.611C116.29 378.445 118.871 379.009 122.494 379.084L122.494 379.084C125.967 379.158 129.129 378.705 131.45 378.189C132.61 377.931 133.554 377.658 134.217 377.429C134.549 377.315 134.804 377.214 134.976 377.135C135.043 377.104 135.092 377.079 135.126 377.06C135.138 377.035 135.151 377.005 135.165 376.97C135.203 376.88 135.247 376.766 135.296 376.634C135.394 376.37 135.504 376.047 135.609 375.733C135.675 375.532 135.739 375.335 135.796 375.16ZM111.197 374.155L111.217 374.677L111.197 374.155ZM111.217 374.677C111.277 376.247 112.304 377.577 114.17 378.51L111.217 374.677ZM114.17 378.51C116.027 379.439 118.777 380.013 122.473 380.09L114.17 378.51Z" fill="#2C2C2C"/>
<path d="M136.466 375.173C135.36 376.166 133.914 376.921 132.857 377.26C130.229 378.128 127.35 378.455 124.596 378.606C121.666 378.757 118.447 378.706 115.706 377.55C114.222 376.921 112.965 376.003 111.795 374.959C111.267 373.664 111.129 372.193 111.166 370.684C111.254 367.968 111.871 365.34 112.348 362.674C112.424 362.284 112.487 361.907 112.55 361.53C112.688 359.794 112.814 358.046 112.927 356.324C112.977 355.682 113.04 355.117 113.027 354.475C113.015 354.048 112.864 353.356 112.977 352.954C112.99 352.904 113.015 352.866 113.027 352.828C113.027 352.765 113.015 352.702 113.027 352.639C113.518 352.237 114.021 351.86 114.624 351.696C115.052 351.772 115.48 351.91 115.756 352.023C116.196 352.199 116.586 352.426 116.938 352.69C117.806 351.508 119.943 350.954 121.151 350.904C123.037 350.829 125.552 351.156 127.048 352.539C127.3 352.3 127.689 352.174 128.029 352.111C128.104 352.099 128.192 352.086 128.268 352.074C129.148 352.413 128.922 354.576 129.01 355.192C129.135 356.009 129.261 356.827 129.462 357.619C129.865 359.14 130.443 360.536 131.323 361.844C132.266 363.252 133.499 364.472 134.58 365.767C134.731 366.031 134.895 366.295 135.045 366.547C136.202 368.408 137.145 371.111 136.894 373.324C136.831 374.029 136.68 374.632 136.466 375.173Z" fill="#50BFD7"/>
<path fill-rule="evenodd" clip-rule="evenodd" d="M124.131 351.664C123.133 351.431 122.08 351.37 121.171 351.407C120.621 351.43 119.837 351.57 119.091 351.844C118.334 352.123 117.692 352.513 117.344 352.987L117.043 353.397L116.636 353.092C116.317 352.852 115.966 352.649 115.569 352.49L115.568 352.489L115.566 352.489C115.341 352.397 114.999 352.284 114.651 352.213C114.265 352.34 113.912 352.577 113.531 352.88V352.909L113.505 352.987C113.494 353.019 113.482 353.046 113.475 353.062C113.471 353.071 113.468 353.079 113.465 353.084C113.463 353.089 113.461 353.092 113.46 353.094C113.433 353.197 113.431 353.383 113.456 353.659C113.463 353.735 113.473 353.822 113.483 353.913C113.503 354.101 113.526 354.305 113.53 354.46L113.53 354.463L113.53 354.465C113.541 355.015 113.499 355.517 113.457 356.021C113.447 356.133 113.438 356.246 113.429 356.36C113.315 358.084 113.19 359.833 113.051 361.569L113.049 361.591L113.045 361.615C112.983 361.989 112.919 362.371 112.843 362.766C112.74 363.339 112.632 363.907 112.525 364.47C112.126 366.56 111.738 368.598 111.669 370.698C111.634 372.13 111.762 373.484 112.219 374.662C113.338 375.651 114.523 376.502 115.902 377.086C118.53 378.195 121.649 378.254 124.57 378.103C127.308 377.953 130.135 377.629 132.7 376.782L132.702 376.782L132.704 376.781C133.671 376.47 135.003 375.781 136.041 374.878C136.215 374.41 136.339 373.888 136.393 373.28L136.393 373.274L136.394 373.267C136.628 371.208 135.742 368.62 134.618 366.812L134.616 366.809L134.614 366.805C134.574 366.738 134.531 366.668 134.488 366.597C134.383 366.423 134.271 366.238 134.166 366.056C133.846 365.674 133.503 365.288 133.154 364.895C132.375 364.019 131.563 363.106 130.906 362.124C129.989 360.761 129.39 359.312 128.976 357.747L128.975 357.745L128.975 357.743C128.768 356.927 128.639 356.09 128.514 355.28L128.512 355.266L128.512 355.263C128.487 355.088 128.483 354.83 128.479 354.581C128.478 354.554 128.478 354.527 128.478 354.501C128.473 354.206 128.465 353.885 128.435 353.578C128.405 353.265 128.354 352.999 128.276 352.804C128.234 352.701 128.194 352.638 128.16 352.599C128.145 352.602 128.13 352.604 128.116 352.607C127.805 352.665 127.537 352.768 127.395 352.903L127.053 353.228L126.707 352.908C126.045 352.296 125.133 351.898 124.131 351.664ZM127.078 351.905C126.292 351.291 125.329 350.91 124.36 350.684C123.255 350.427 122.108 350.362 121.131 350.401L121.13 350.401C120.473 350.429 119.585 350.59 118.743 350.9C118.066 351.15 117.37 351.513 116.855 352.021C116.574 351.844 116.272 351.688 115.945 351.557C115.64 351.433 115.179 351.283 114.712 351.201L114.601 351.181L114.493 351.211C113.776 351.405 113.2 351.847 112.708 352.25L112.57 352.364L112.534 352.541C112.519 352.62 112.518 352.69 112.52 352.737C112.51 352.761 112.5 352.791 112.491 352.823C112.409 353.123 112.43 353.48 112.454 353.75C112.466 353.878 112.478 353.989 112.49 354.089C112.507 354.242 112.521 354.369 112.525 354.488C112.534 354.979 112.497 355.419 112.456 355.918C112.446 356.036 112.435 356.158 112.426 356.284L112.425 356.287L112.425 356.291C112.312 358.004 112.187 359.742 112.05 361.468C111.988 361.839 111.927 362.203 111.855 362.578L111.854 362.582L111.853 362.585C111.755 363.134 111.65 363.686 111.544 364.241C111.143 366.341 110.735 368.48 110.664 370.667L110.664 370.669L110.664 370.671C110.625 372.212 110.764 373.762 111.33 375.149L111.373 375.257L111.46 375.334C112.653 376.399 113.957 377.355 115.51 378.012L115.51 378.013C118.364 379.217 121.683 379.259 124.622 379.108L124.624 379.108C127.392 378.956 130.323 378.626 133.013 377.738C134.131 377.379 135.639 376.591 136.802 375.547L136.891 375.468L136.934 375.358C137.165 374.773 137.327 374.124 137.394 373.375C137.661 371.011 136.663 368.197 135.475 366.285C135.431 366.211 135.386 366.138 135.342 366.065C135.231 365.882 135.122 365.701 135.017 365.517L134.995 365.479L134.966 365.445C134.595 365 134.218 364.576 133.846 364.159C133.093 363.312 132.361 362.489 131.741 361.564L131.741 361.563C130.898 360.311 130.34 358.97 129.949 357.493C129.756 356.729 129.633 355.938 129.507 355.118C129.492 355.009 129.489 354.816 129.484 354.526L129.483 354.484C129.478 354.19 129.471 353.833 129.436 353.48C129.402 353.132 129.34 352.756 129.21 352.431C129.081 352.109 128.855 351.761 128.449 351.604L128.321 351.555L128.185 351.577C128.151 351.583 128.113 351.589 128.072 351.595L128.07 351.595C128.031 351.601 127.987 351.608 127.946 351.615L127.942 351.616L127.937 351.617C127.687 351.663 127.369 351.747 127.078 351.905ZM112.557 352.65C112.557 352.65 112.557 352.65 112.557 352.65V352.65Z" fill="#2C2C2C"/>
<path d="M111.594 123.872H101.937C99.3716 123.872 97.2842 125.959 97.2842 128.524V138.182C97.2842 140.747 99.3716 142.834 101.937 142.834H111.594C114.159 142.834 116.247 140.747 116.247 138.182V128.524C116.247 125.959 114.172 123.872 111.594 123.872ZM94.719 119.76C93.2478 119.76 92.0532 120.955 92.0532 122.426C92.0532 123.897 93.2478 125.092 94.719 125.092C96.1902 125.092 97.3848 123.897 97.3848 122.426C97.3848 120.955 96.1902 119.76 94.719 119.76Z" fill="white"/>
<path d="M110.915 129.631C110.299 127.984 108.727 126.89 106.966 126.89H104.351L109.519 139.992H115.064L110.915 129.631ZM100.352 136.233L98.8433 139.992H104.351L106.916 133.491H104.301C102.54 133.491 100.968 134.585 100.352 136.233ZM101.207 130.147C102.113 130.147 102.855 129.405 102.855 128.499C102.855 127.594 102.113 126.852 101.207 126.852C100.302 126.852 99.56 127.594 99.56 128.499C99.56 129.405 100.302 130.147 101.207 130.147Z" fill="#50BFD7"/>
<path fill-rule="evenodd" clip-rule="evenodd" d="M111.274 87.9665C105.783 84.6658 101.344 86.6258 99.8948 87.8843C99.559 88.1759 99.0504 88.1401 98.7588 87.8043C98.4672 87.4684 98.503 86.9598 98.8389 86.6682C100.75 85.0088 105.945 82.8836 112.104 86.5861C112.485 86.8152 112.608 87.31 112.379 87.6912C112.15 88.0723 111.655 88.1956 111.274 87.9665Z" fill="#2C2C2C"/>
<path d="M127.189 11.3081C121.785 4.6636 114.236 0.65625 104.541 0.65625C82.5908 0.65625 61.145 20.8999 61.145 46.1333C61.145 71.3667 78.9325 91.83 100.882 91.83C102.99 91.83 105.032 91.6361 107.01 91.2871C107.217 92.3988 107.333 93.5364 107.333 94.7127C107.333 94.9195 107.32 95.1393 107.32 95.3461C167.805 80.6611 157.903 7.57217 127.189 11.3081Z" fill="#2C2C2C"/>
<path d="M76.2827 76.3694C80.8876 76.3694 84.6206 72.6364 84.6206 68.0315C84.6206 63.4266 80.8876 59.6936 76.2827 59.6936C71.6778 59.6936 67.9448 63.4266 67.9448 68.0315C67.9448 72.6364 71.6778 76.3694 76.2827 76.3694Z" fill="white"/>
<path fill-rule="evenodd" clip-rule="evenodd" d="M76.2822 60.2107C71.9629 60.2107 68.4614 63.7122 68.4614 68.0315C68.4614 72.3508 71.9629 75.8523 76.2822 75.8523C80.6015 75.8523 84.103 72.3508 84.103 68.0315C84.103 63.7122 80.6015 60.2107 76.2822 60.2107ZM67.4272 68.0315C67.4272 63.141 71.3917 59.1765 76.2822 59.1765C81.1727 59.1765 85.1372 63.141 85.1372 68.0315C85.1372 72.9219 81.1727 76.8864 76.2822 76.8864C71.3917 76.8864 67.4272 72.9219 67.4272 68.0315Z" fill="#2C2C2C"/>
<path d="M134.997 76.3694C139.601 76.3694 143.334 72.6364 143.334 68.0315C143.334 63.4266 139.601 59.6936 134.997 59.6936C130.392 59.6936 126.659 63.4266 126.659 68.0315C126.659 72.6364 130.392 76.3694 134.997 76.3694Z" fill="white"/>
<path fill-rule="evenodd" clip-rule="evenodd" d="M134.997 60.2107C130.677 60.2107 127.176 63.7122 127.176 68.0315C127.176 72.3508 130.677 75.8523 134.997 75.8523C139.316 75.8523 142.817 72.3508 142.817 68.0315C142.817 63.7122 139.316 60.2107 134.997 60.2107ZM126.142 68.0315C126.142 63.141 130.106 59.1765 134.997 59.1765C139.887 59.1765 143.852 63.141 143.852 68.0315C143.852 72.9219 139.887 76.8864 134.997 76.8864C130.106 76.8864 126.142 72.9219 126.142 68.0315Z" fill="#2C2C2C"/>
<path d="M106.428 102.818C124.326 102.818 138.836 82.2778 138.836 56.9402C138.836 31.6027 124.326 11.0625 106.428 11.0625C88.5295 11.0625 74.02 31.6027 74.02 56.9402C74.02 82.2778 88.5295 102.818 106.428 102.818Z" fill="white"/>
<path fill-rule="evenodd" clip-rule="evenodd" d="M83.9344 24.7981C78.1383 33.0032 74.5371 44.3655 74.5371 56.9402C74.5371 69.5149 78.1383 80.8772 83.9344 89.0823C89.7314 97.2888 97.6916 102.301 106.428 102.301C115.164 102.301 123.124 97.2888 128.921 89.0823C134.717 80.8772 138.319 69.5149 138.319 56.9402C138.319 44.3655 134.717 33.0032 128.921 24.7981C123.124 16.5917 115.164 11.5796 106.428 11.5796C97.6916 11.5796 89.7314 16.5917 83.9344 24.7981ZM83.0897 24.2014C89.0221 15.8034 97.2658 10.5454 106.428 10.5454C115.59 10.5454 123.834 15.8034 129.766 24.2014C135.699 32.6008 139.353 44.1773 139.353 56.9402C139.353 69.7031 135.699 81.2796 129.766 89.679C123.834 98.077 115.59 103.335 106.428 103.335C97.2658 103.335 89.0221 98.077 83.0897 89.679C77.1564 81.2796 73.5029 69.7031 73.5029 56.9402C73.5029 44.1773 77.1564 32.6008 83.0897 24.2014Z" fill="#2C2C2C"/>
<path d="M69.2891 46.7668C69.2891 46.7668 96.8752 48.1112 106.066 31.513C106.066 31.513 126.025 48.7834 145.08 47.439L143.283 39.8121L135.889 25.2305L131.403 19.8529L122.212 10.2094L109.88 5.05151L95.0783 7.06812L75.3389 20.5251L72.8698 29.4964L69.2891 46.7668Z" fill="#2C2C2C"/>
<path d="M107.216 74.8698C107.229 74.9474 107.061 75.0896 106.686 75.0896C106.325 75.1025 105.769 74.9345 105.277 74.4691C105.032 74.2364 104.812 73.952 104.644 73.5901C104.618 73.5384 104.605 73.4867 104.579 73.435L104.554 73.3574L104.528 73.2928L104.489 73.1764C104.476 73.1247 104.463 73.0601 104.437 73.0084C104.385 72.8145 104.347 72.6076 104.334 72.3879C104.256 71.5347 104.424 70.6686 104.631 69.8413C105.433 66.532 106.376 63.9337 106.725 64.0112C107.074 64.1017 106.712 66.8422 105.911 70.1515C105.704 70.9659 105.549 71.7027 105.549 72.3232C105.549 72.4784 105.562 72.6335 105.575 72.7757L105.588 72.8274V72.8532V72.8662V72.8791C105.588 72.8791 105.575 72.8403 105.588 72.8532L105.614 72.9825L105.626 73.0472L105.639 73.0859L105.665 73.1635C105.743 73.4091 105.859 73.6418 105.988 73.8228C106.247 74.1977 106.557 74.4303 106.803 74.5596C107.035 74.7276 107.204 74.7794 107.216 74.8698Z" fill="#2C2C2C"/>
<path d="M97.9999 59.3705C97.9999 63.0547 94.8069 66.0408 90.8772 66.0408C86.9344 66.0408 83.7544 63.0547 83.7544 59.3705C83.7544 55.6863 86.9474 52.7002 90.8772 52.7002C94.794 52.7002 97.9999 55.6863 97.9999 59.3705Z" fill="white"/>
<path fill-rule="evenodd" clip-rule="evenodd" d="M90.8771 53.2173C87.2002 53.2173 84.2715 56.0035 84.2715 59.3705C84.2715 62.738 87.1879 65.5237 90.8771 65.5237C94.5541 65.5237 97.4828 62.7375 97.4828 59.3705C97.4828 56.0041 94.5418 53.2173 90.8771 53.2173ZM83.2373 59.3705C83.2373 55.3691 86.6945 52.1831 90.8771 52.1831C95.0463 52.1831 98.5169 55.3685 98.5169 59.3705C98.5169 63.3719 95.0598 66.5579 90.8771 66.5579C86.6809 66.5579 83.2373 63.3713 83.2373 59.3705Z" fill="#2C2C2C"/>
<path d="M87.374 58.9569C87.374 61.9947 89.3519 64.4638 91.7821 64.4638C94.2124 64.4638 96.1902 61.9947 96.1902 58.9569C96.1902 55.919 94.2124 53.45 91.7821 53.45C89.3519 53.4371 87.374 55.9061 87.374 58.9569Z" fill="#50BFD7"/>
<path d="M88.6538 58.9569C88.6538 61.1157 90.0499 62.8608 91.7821 62.8608C93.5143 62.8608 94.9104 61.1157 94.9104 58.9569C94.9104 56.7981 93.5143 55.04 91.7821 55.04C90.0499 55.04 88.6538 56.7852 88.6538 58.9569Z" fill="#2C2C2C"/>
<path d="M88.4595 55.2468C88.4595 55.8414 89.1834 56.3068 90.0753 56.3068C90.9673 56.3068 91.6912 55.8285 91.6912 55.2468C91.6912 54.6522 90.9673 54.1868 90.0753 54.1868C89.1834 54.1739 88.4595 54.6522 88.4595 55.2468Z" fill="white"/>
<path d="M100.029 49.1709C100.029 49.1709 90.4114 39.5791 80.0698 50.9678C80.0698 50.9678 89.0153 45.2411 100.029 49.1709Z" fill="#2C2C2C"/>
<path d="M128.986 59.3705C128.986 63.0547 125.793 66.0408 121.863 66.0408C117.92 66.0408 114.74 63.0547 114.74 59.3705C114.74 55.6863 117.933 52.7002 121.863 52.7002C125.793 52.7002 128.986 55.6863 128.986 59.3705Z" fill="white"/>
<path fill-rule="evenodd" clip-rule="evenodd" d="M121.863 53.2173C118.186 53.2173 115.257 56.0035 115.257 59.3705C115.257 62.738 118.174 65.5237 121.863 65.5237C125.54 65.5237 128.469 62.7375 128.469 59.3705C128.469 56.0035 125.54 53.2173 121.863 53.2173ZM114.223 59.3705C114.223 55.3691 117.68 52.1831 121.863 52.1831C126.046 52.1831 129.503 55.3691 129.503 59.3705C129.503 63.3719 126.046 66.5579 121.863 66.5579C117.667 66.5579 114.223 63.3713 114.223 59.3705Z" fill="#2C2C2C"/>
<path d="M118.373 58.9569C118.373 61.9947 120.35 64.4638 122.781 64.4638C125.211 64.4638 127.189 61.9947 127.189 58.9569C127.189 55.919 125.211 53.45 122.781 53.45C120.337 53.4371 118.373 55.9061 118.373 58.9569Z" fill="#50BFD7"/>
<path d="M119.639 58.9569C119.639 61.1157 121.035 62.8608 122.767 62.8608C124.5 62.8608 125.896 61.1157 125.896 58.9569C125.896 56.7981 124.5 55.04 122.767 55.04C121.048 55.04 119.639 56.7852 119.639 58.9569Z" fill="#2C2C2C"/>
<path d="M119.445 55.2468C119.445 55.8414 120.169 56.3068 121.061 56.3068C121.953 56.3068 122.677 55.8285 122.677 55.2468C122.677 54.6522 121.953 54.1868 121.061 54.1868C120.169 54.1739 119.445 54.6522 119.445 55.2468Z" fill="white"/>
<path d="M131.028 48.1241C131.028 48.1241 121.41 38.5323 111.069 49.9209C111.056 49.9209 120.001 44.1943 131.028 48.1241Z" fill="#2C2C2C"/>
<path fill-rule="evenodd" clip-rule="evenodd" d="M73.374 54.51V54.7685H72.3398V54.51H73.374Z" fill="#2C2C2C"/>
<path fill-rule="evenodd" clip-rule="evenodd" d="M78.8032 57.3538V57.6123H77.769V57.3538H78.8032Z" fill="#2C2C2C"/>
<path d="M108.199 55.8284C109.97 56.2033 109.311 57.3538 109.311 57.5218C109.311 57.6899 109.97 67.2558 118.515 69.7766C127.06 72.2973 132.179 67.3463 133.665 64.8643C135.152 62.3824 136.393 56.4877 136.755 56.0352C137.13 55.5828 138.901 54.7942 138.901 54.7942L139.107 52.4803L136.884 51.821C136.884 51.821 131.274 49.2615 123.013 49.1452C114.766 49.0159 110.099 53.773 110.099 53.773C107.773 53.0362 104.89 52.9328 102.253 53.773C102.253 53.773 97.5861 49.0288 89.3387 49.1452C81.0913 49.2744 75.4681 51.821 75.4681 51.821L73.2446 52.4803L73.4515 54.7942C73.4515 54.7942 75.2225 55.5828 75.5974 56.0352C75.9722 56.4877 77.2003 62.3953 78.6869 64.8643C80.1735 67.3463 85.2926 72.2973 93.8373 69.7766C102.382 67.2558 103.041 57.6899 103.041 57.5218C103.041 57.3538 102.382 56.2033 104.153 55.8284C105.704 55.5052 106.661 55.5052 108.199 55.8284ZM128.714 67.7987C122.199 71.7156 114.391 67.76 112.038 62.6021C109.686 57.4443 111.664 54.7167 111.664 54.7167C115.593 48.3049 131.468 48.0334 134.195 54.9623C134.661 56.1257 135.229 63.8819 128.714 67.7987ZM78.1569 54.9623C80.8845 48.0205 96.7588 48.3049 100.689 54.7167C100.689 54.7167 102.666 57.4443 100.314 62.6021C97.961 67.76 90.166 71.7156 83.6379 67.7987C77.1357 63.8819 77.7044 56.1257 78.1569 54.9623Z" fill="#2C2C2C"/>
<path fill-rule="evenodd" clip-rule="evenodd" d="M111.274 87.9665C105.783 84.6658 101.344 86.6258 99.8948 87.8843C99.559 88.1759 99.0504 88.1401 98.7588 87.8043C98.4672 87.4684 98.503 86.9598 98.8389 86.6682C100.75 85.0088 105.945 82.8836 112.104 86.5861C112.485 86.8152 112.608 87.31 112.379 87.6912C112.15 88.0723 111.655 88.1956 111.274 87.9665Z" fill="#2C2C2C"/>
</svg>
