<svg width="361" height="299" viewBox="0 0 361 299" fill="none" xmlns="http://www.w3.org/2000/svg">
<path d="M226.832 298.359C226.832 298.359 298.699 301.719 344.158 220.502C389.617 139.285 336.128 64.575 253.498 48.4313C170.869 32.2876 129.702 -28.3275 56.0541 18.073C-17.594 64.4735 23.3329 311.586 226.832 298.359Z" fill="#70CDE0"/>
<path opacity="0.4" d="M226.832 298.359C226.832 298.359 298.699 301.719 344.158 220.502C389.617 139.285 336.128 64.575 253.498 48.4313C170.869 32.2876 129.702 -28.3275 56.0541 18.073C-17.594 64.4735 23.3329 311.586 226.832 298.359Z" fill="white"/>
<path d="M157.7 66.3829V97.3979C157.746 100.059 158.839 102.595 160.741 104.457C162.644 106.319 165.203 107.356 167.865 107.345H279.059C280.395 107.347 281.719 107.087 282.954 106.578C284.189 106.069 285.312 105.321 286.258 104.377C287.204 103.434 287.955 102.313 288.467 101.08C288.98 99.8457 289.244 98.523 289.245 97.1869V70.9694L303.089 56.4221L167.879 56C166.526 56.0045 165.188 56.2776 163.942 56.8035C162.695 57.3294 161.566 58.0976 160.619 59.0636C159.672 60.0295 158.926 61.1739 158.425 62.4304C157.924 63.6869 157.678 65.0304 157.7 66.3829Z" fill="#F5F5F5"/>
<path d="M272.826 74.7961L171.889 74.3247L171.903 71.2225L272.834 71.6938L272.826 74.7961Z" fill="#E0E0E0"/>
<path d="M272.826 85.0032L171.889 84.5319L171.903 81.4297L272.834 81.901L272.826 85.0032Z" fill="#E0E0E0"/>
<path d="M232.892 91.6487L232.877 94.7509L272.811 94.946L272.826 91.8439L232.892 91.6487Z" fill="#E0E0E0"/>
<path d="M112.784 130.01V154.047C112.784 156.135 111.954 158.138 110.478 159.615C109.002 161.092 107 161.923 104.912 161.925H18.7254C16.6371 161.923 14.6349 161.092 13.1589 159.615C11.6829 158.138 10.8538 156.135 10.8538 154.047V133.738L0.126221 122.483L104.891 122.124C105.927 122.121 106.954 122.323 107.913 122.719C108.871 123.114 109.742 123.694 110.476 124.427C111.209 125.16 111.79 126.03 112.186 126.988C112.582 127.946 112.785 128.973 112.784 130.01Z" fill="#E0E0E0"/>
<path d="M23.5581 136.699L101.767 136.341L101.76 133.935L23.551 134.294L23.5581 136.699Z" fill="#FAFAFA"/>
<path d="M23.5581 144.606L101.767 144.248L101.76 141.842L23.551 142.208L23.5581 144.606Z" fill="#FAFAFA"/>
<path d="M54.4846 149.769L23.5403 149.92L23.552 152.326L54.4964 152.175L54.4846 149.769Z" fill="#FAFAFA"/>
<path d="M184.086 253.518V233.387H151.689V253.518C151.694 256.968 150.332 260.279 147.901 262.726L140.517 270.177H195.257L187.879 262.726C185.444 260.281 184.08 256.969 184.086 253.518Z" fill="white" stroke="#263238" stroke-width="1.10627" stroke-linecap="round" stroke-linejoin="round"/>
<path opacity="0.44" d="M151.688 233.387V253.518C151.687 255.079 151.404 256.626 150.852 258.086H184.922C184.373 256.625 184.09 255.079 184.086 253.518V233.387H151.688Z" fill="#51C0D7"/>
<path d="M184.086 234.296H151.688V249.232H184.086V234.296Z" fill="#263238" stroke="#263238" stroke-width="1.10627" stroke-miterlimit="10"/>
<path d="M89.3179 110.166H246.462C247.461 110.165 248.45 110.361 249.373 110.743C250.296 111.126 251.134 111.686 251.84 112.393C252.546 113.1 253.105 113.939 253.486 114.862C253.867 115.786 254.062 116.775 254.059 117.774V235.087C254.052 237.272 253.177 239.364 251.627 240.905C250.078 242.445 247.98 243.307 245.795 243.301H89.9912C87.8067 243.301 85.7116 242.433 84.1669 240.888C82.6222 239.344 81.7544 237.249 81.7544 235.064V117.746C81.7573 115.739 82.5546 113.815 83.9719 112.395C85.3892 110.974 87.3113 110.173 89.3179 110.166Z" fill="#263238" stroke="#263238" stroke-width="1.10627" stroke-miterlimit="10"/>
<path d="M81.7263 227.893H254.059V235.064C254.059 237.248 253.192 239.343 251.647 240.888C250.102 242.433 248.007 243.301 245.823 243.301H89.9912C87.8066 243.301 85.7116 242.433 84.1669 240.888C82.6222 239.343 81.7544 237.248 81.7544 235.064V227.893H81.7263Z" fill="white" stroke="#263238" stroke-width="1.10627" stroke-miterlimit="10"/>
<rect x="90.8669" y="118.275" width="154.759" height="100.593" fill="white"/>
<path d="M188.283 209.149L191.45 207.581L194.544 209.302L194.026 205.802L196.618 203.395L193.129 202.804L191.64 199.594L190.004 202.73L186.493 203.152L188.964 205.681L188.283 209.149Z" fill="#E0E0E0"/>
<path d="M175.36 209.149L178.528 207.581L181.621 209.302L181.104 205.802L183.696 203.395L180.206 202.804L178.718 199.594L177.081 202.73L173.571 203.152L176.041 205.681L175.36 209.149Z" fill="#51C0D7"/>
<path d="M162.437 209.149L165.605 207.581L168.693 209.302L168.181 205.802L170.773 203.395L167.283 202.804L165.795 199.594L164.158 202.73L160.648 203.152L163.118 205.681L162.437 209.149Z" fill="#51C0D7"/>
<path d="M149.514 209.149L152.682 207.581L155.77 209.302L155.258 205.802L157.85 203.395L154.361 202.804L152.872 199.594L151.235 202.73L147.725 203.152L150.195 205.681L149.514 209.149Z" fill="#51C0D7"/>
<path d="M136.592 209.149L139.759 207.581L142.847 209.302L142.335 205.802L144.927 203.395L141.438 202.804L139.949 199.594L138.313 202.73L134.802 203.152L137.273 205.681L136.592 209.149Z" fill="#51C0D7"/>
<path d="M196.766 131.363C196.766 131.443 182.587 131.506 165.093 131.506C147.598 131.506 133.419 131.443 133.419 131.363C133.419 131.284 147.593 131.226 165.093 131.226C182.592 131.226 196.766 131.289 196.766 131.363Z" fill="#263238"/>
<path d="M181.194 127.563C181.194 127.642 174.194 127.705 165.557 127.705C156.921 127.705 149.916 127.642 149.916 127.563C149.916 127.484 156.916 127.42 165.557 127.42C174.199 127.42 181.194 127.484 181.194 127.563Z" fill="#263238"/>
<path d="M228.968 137.788C228.968 137.867 200.636 137.931 165.689 137.931C130.742 137.931 102.405 137.867 102.405 137.788C102.405 137.709 130.737 137.651 165.689 137.651C200.641 137.651 228.968 137.714 228.968 137.788Z" fill="#E0E0E0"/>
<path d="M228.968 140.929C228.968 141.003 200.636 141.066 165.689 141.066C130.742 141.066 102.405 141.003 102.405 140.929C102.405 140.855 130.737 140.786 165.689 140.786C200.641 140.786 228.968 140.85 228.968 140.929Z" fill="#E0E0E0"/>
<path d="M188.291 152.458L191.407 155.46L163.054 182.777L150.591 170.769L153.707 167.767L163.054 176.773L188.291 152.458ZM188.291 146.39L163.054 170.705L153.707 161.699L144.293 170.769L163.054 188.845L197.705 155.46L188.291 146.39Z" fill="#50BFD7"/>
<path d="M269.6 152.532C269.6 152.532 267.581 152.093 266.805 151.098C266.023 150.102 265.563 149.663 262.83 148.475C260.118 147.287 259.04 145.749 259.04 145.749C259.04 145.749 257.145 147.486 261.306 149.477C263.853 150.699 255.484 150.521 252.964 150.239C252.964 150.239 251.509 151.036 253.919 152.203C256.328 153.37 254.008 153.459 258.779 155.471C263.544 157.489 269.208 158.547 270.362 155.67C271.515 152.793 269.6 152.532 269.6 152.532Z" fill="#E0E0E0"/>
<path fill-rule="evenodd" clip-rule="evenodd" d="M259.04 145.749L258.855 145.547L259.086 145.335L259.265 145.591L259.265 145.591L259.265 145.591L259.265 145.592L259.265 145.592L259.266 145.593C259.268 145.595 259.27 145.599 259.274 145.603C259.281 145.613 259.292 145.628 259.308 145.648C259.34 145.689 259.389 145.749 259.457 145.827C259.593 145.981 259.804 146.202 260.099 146.46C260.688 146.976 261.612 147.642 262.94 148.223C264.308 148.818 265.127 149.233 265.705 149.632C266.293 150.038 266.623 150.422 267.021 150.928L267.022 150.928L267.022 150.929C267.361 151.364 267.999 151.701 268.593 151.932C268.884 152.046 269.151 152.129 269.347 152.184C269.444 152.211 269.523 152.232 269.577 152.245C269.604 152.252 269.625 152.257 269.639 152.26C269.644 152.261 269.648 152.262 269.651 152.263C269.656 152.264 269.664 152.265 269.672 152.266C269.691 152.27 269.716 152.275 269.747 152.283C269.809 152.299 269.893 152.325 269.989 152.366C270.181 152.448 270.426 152.595 270.629 152.853C271.049 153.386 271.212 154.287 270.617 155.772C270.293 156.58 269.653 157.101 268.828 157.395C268.01 157.687 267.003 157.76 265.905 157.68C263.708 157.52 261.07 156.74 258.672 155.724C256.283 154.717 255.609 154.168 255.244 153.686C255.18 153.601 255.124 153.517 255.076 153.443C255.06 153.418 255.044 153.395 255.03 153.373C254.968 153.281 254.908 153.199 254.826 153.113C254.661 152.942 254.386 152.735 253.799 152.45C253.18 152.151 252.781 151.862 252.543 151.581C252.299 151.293 252.219 151.003 252.268 150.734C252.314 150.48 252.467 150.295 252.586 150.182C252.648 150.124 252.707 150.08 252.751 150.049C252.773 150.034 252.792 150.022 252.806 150.014C252.813 150.01 252.819 150.006 252.823 150.004C252.825 150.002 252.827 150.001 252.829 150L252.831 149.999L252.832 149.999L252.832 149.999C252.832 149.999 252.832 149.999 252.964 150.239L252.832 149.999L252.909 149.957L252.995 149.967C254.24 150.106 256.948 150.22 259.026 150.148C260.075 150.111 260.923 150.027 261.347 149.89C261.379 149.88 261.407 149.87 261.43 149.86C261.375 149.822 261.296 149.777 261.187 149.725C259.081 148.717 258.396 147.722 258.339 146.885C258.311 146.474 258.44 146.141 258.572 145.914C258.638 145.8 258.706 145.711 258.758 145.65C258.784 145.619 258.807 145.595 258.823 145.578C258.832 145.569 258.839 145.562 258.844 145.557C258.847 145.554 258.849 145.552 258.851 145.551L258.853 145.548L258.854 145.548L258.854 145.547C258.855 145.547 258.855 145.547 259.04 145.749ZM261.52 149.938C261.52 149.938 261.52 149.937 261.519 149.937C261.52 149.937 261.52 149.938 261.52 149.938ZM253.033 150.523C253.012 150.539 252.987 150.559 252.963 150.582C252.885 150.655 252.824 150.742 252.808 150.833C252.794 150.909 252.802 151.037 252.962 151.226C253.13 151.423 253.452 151.672 254.038 151.956C254.656 152.255 254.994 152.496 255.222 152.733C255.335 152.851 255.416 152.963 255.485 153.066C255.506 153.097 255.525 153.126 255.543 153.153C255.589 153.223 255.63 153.285 255.682 153.355C255.952 153.712 256.504 154.214 258.886 155.218L258.887 155.218C261.254 156.221 263.83 156.978 265.945 157.132C267.003 157.209 267.925 157.134 268.643 156.878C269.354 156.624 269.854 156.199 270.107 155.568C270.665 154.177 270.447 153.509 270.198 153.193C270.066 153.025 269.904 152.927 269.773 152.871C269.707 152.842 269.651 152.825 269.612 152.816C269.593 152.811 269.578 152.808 269.57 152.806C269.567 152.806 269.566 152.805 269.564 152.805C269.563 152.805 269.562 152.805 269.561 152.804C269.561 152.804 269.56 152.804 269.561 152.804L269.552 152.803L269.541 152.801L269.6 152.533C269.541 152.801 269.541 152.801 269.541 152.801L269.541 152.801L269.54 152.801L269.539 152.8L269.534 152.799C269.529 152.798 269.523 152.797 269.515 152.795C269.499 152.791 269.475 152.786 269.446 152.778C269.386 152.764 269.302 152.742 269.198 152.713C268.99 152.654 268.705 152.565 268.394 152.444C267.785 152.207 267.026 151.827 266.589 151.267C266.204 150.778 265.914 150.444 265.393 150.084C264.862 149.718 264.085 149.32 262.721 148.727L262.72 148.727C261.336 148.12 260.365 147.423 259.737 146.873C259.424 146.599 259.197 146.362 259.046 146.191C258.953 146.352 258.869 146.576 258.887 146.848C258.923 147.378 259.37 148.247 261.425 149.23L261.425 149.23C261.593 149.311 261.733 149.393 261.837 149.48C261.933 149.562 262.041 149.683 262.056 149.848C262.072 150.034 261.965 150.166 261.866 150.243C261.769 150.318 261.644 150.371 261.516 150.413C261.008 150.577 260.084 150.66 259.045 150.697C256.997 150.768 254.346 150.66 253.033 150.523ZM253.097 150.48C253.098 150.479 253.098 150.479 253.098 150.48L253.097 150.48Z" fill="#2C2C2C"/>
<path d="M326.207 168.413C326.207 168.413 320.083 169.133 318.799 169.133C318.785 169.133 318.771 169.133 318.757 169.133C318.751 169.133 318.744 169.133 318.737 169.133C318.73 169.133 318.723 169.133 318.716 169.133C318.703 169.133 318.689 169.133 318.675 169.133C317.384 169.133 311.267 168.413 311.267 168.413C303.104 170.987 303.687 182.899 303.694 183.235C303.749 185.693 303.784 188.158 303.845 190.616C303.99 196.404 305.466 213.739 305.843 219.252C305.871 219.706 305.898 220.083 305.912 220.365C306.53 232.737 307.141 245.108 307.759 257.48C307.814 258.565 307.869 259.657 307.924 260.741C307.924 260.741 310.793 262.526 316.423 260.741L316.471 220.557L318.037 190.698C318.037 190.698 318.325 190.657 318.668 190.623C318.689 190.623 318.709 190.63 318.737 190.63V190.637C318.744 190.637 318.751 190.637 318.757 190.637C318.764 190.637 318.771 190.637 318.778 190.637V190.63C318.799 190.63 318.819 190.623 318.847 190.623C319.19 190.657 319.478 190.698 319.478 190.698L321.044 220.557L321.092 260.741C326.722 262.526 329.591 260.741 329.591 260.741C329.646 259.657 329.701 258.565 329.756 257.48C330.374 245.108 330.978 232.737 331.603 220.365C331.617 220.083 331.637 219.706 331.672 219.252C332.042 213.746 333.525 196.404 333.67 190.616C333.731 188.158 333.766 185.693 333.821 183.235C333.793 182.899 334.37 170.987 326.207 168.413Z" fill="#2C2C2C"/>
<path d="M302.96 136.13C302.96 136.13 297.247 163.813 294.645 165.337C292.551 166.566 276.5 161.341 270.403 159.288C268.954 158.808 268.069 158.492 268.069 158.492L269.119 151.393L272.559 151.86L289.688 154.187C289.688 154.187 295.462 126.059 299.609 125.715C303.763 125.365 302.96 136.13 302.96 136.13Z" fill="#2C2C2C"/>
<path d="M336.526 125.543C336.526 125.543 356.786 145.996 358.118 156.219C358.118 156.219 355.035 162 336.478 173.026L334.823 168.296C334.823 168.296 345.183 156.404 348.781 153.397C348.781 153.397 332.557 139.982 332.935 136.178C333.306 132.361 334.253 125.742 336.526 125.543Z" fill="#2C2C2C"/>
<path d="M344.812 134.132C344.812 138.513 341.943 141.225 337.562 141.225C333.182 141.225 329.633 137.675 329.633 133.295C329.633 128.914 332.942 124.081 337.116 125.392C341.716 126.827 344.812 129.752 344.812 134.132Z" fill="white"/>
<path fill-rule="evenodd" clip-rule="evenodd" d="M332.018 127.387C330.713 128.927 329.907 131.167 329.907 133.295C329.907 137.523 333.334 140.95 337.562 140.95C339.696 140.95 341.435 140.29 342.639 139.124C343.842 137.958 344.538 136.261 344.538 134.132C344.538 129.919 341.572 127.07 337.034 125.655L337.034 125.654C335.083 125.041 333.319 125.851 332.018 127.387ZM337.198 125.13C334.975 124.432 332.997 125.383 331.599 127.032C330.206 128.675 329.358 131.043 329.358 133.295C329.358 137.827 333.03 141.499 337.562 141.499C339.809 141.499 341.695 140.803 343.021 139.518C344.348 138.233 345.087 136.384 345.087 134.132C345.087 129.585 341.86 126.585 337.198 125.13Z" fill="#2C2C2C"/>
<path d="M341.249 132.855C341.249 136.096 339.128 138.101 335.887 138.101C332.647 138.101 330.024 135.478 330.024 132.238C330.024 128.997 332.468 125.42 335.564 126.388C338.956 127.459 341.249 129.622 341.249 132.855Z" fill="#2C2C2C"/>
<path d="M291.604 134.132C291.604 138.513 294.474 141.225 298.854 141.225C303.234 141.225 306.784 137.675 306.784 133.295C306.784 128.914 303.474 124.081 299.3 125.392C294.7 126.827 291.604 129.752 291.604 134.132Z" fill="white"/>
<path fill-rule="evenodd" clip-rule="evenodd" d="M304.817 127.032C306.21 128.675 307.058 131.043 307.058 133.295C307.058 137.827 303.386 141.499 298.854 141.499C296.607 141.499 294.721 140.803 293.395 139.518C292.069 138.233 291.329 136.384 291.329 134.132C291.329 129.585 294.556 126.585 299.218 125.13C301.441 124.432 303.42 125.383 304.817 127.032ZM304.398 127.387C303.097 125.851 301.334 125.041 299.383 125.654L299.382 125.655C294.844 127.07 291.879 129.919 291.879 134.132C291.879 136.261 292.574 137.958 293.778 139.124C294.982 140.29 296.721 140.95 298.854 140.95C303.083 140.95 306.509 137.523 306.509 133.295C306.509 131.167 305.703 128.927 304.398 127.387Z" fill="#2C2C2C"/>
<path d="M295.167 132.855C295.167 136.096 297.289 138.101 300.529 138.101C303.77 138.101 306.393 135.478 306.393 132.238C306.393 128.997 303.948 125.42 300.859 126.388C297.46 127.459 295.167 129.622 295.167 132.855Z" fill="#2C2C2C"/>
<path d="M328.191 169.278C323.234 168.825 318.339 168.639 318.339 168.639C316.54 168.694 312.709 168.852 308.754 169.278C309.908 173.219 313.821 176.123 318.469 176.123C323.124 176.13 327.037 173.212 328.191 169.278Z" fill="#50BFD7"/>
<path d="M327.786 169.689C328.211 168.014 336.732 125.324 336.732 125.324C336.732 125.324 313.993 118.609 299.451 125.324L308.775 170.06L327.786 169.689Z" fill="white"/>
<path fill-rule="evenodd" clip-rule="evenodd" d="M336.809 125.06C336.809 125.06 336.809 125.06 336.732 125.324C337.001 125.377 337.001 125.378 337.001 125.378L337.001 125.379L336.905 125.857C336.843 126.17 336.751 126.63 336.634 127.215C336.4 128.386 336.066 130.06 335.663 132.074C334.858 136.103 333.779 141.491 332.688 146.932C330.506 157.807 328.267 168.91 328.052 169.757L328 169.96L308.552 170.339L299.138 125.166L299.336 125.074C306.677 121.685 316.06 121.692 323.575 122.533C327.338 122.954 330.645 123.585 333.011 124.111C334.194 124.375 335.143 124.611 335.796 124.783C336.122 124.868 336.375 124.938 336.547 124.985C336.632 125.009 336.698 125.028 336.742 125.041C336.764 125.047 336.781 125.052 336.792 125.055L336.805 125.059L336.808 125.06L336.809 125.06ZM336.732 125.324L337.001 125.377L337.05 125.131L336.809 125.06L336.732 125.324ZM336.413 125.518C336.408 125.517 336.404 125.516 336.399 125.514C336.23 125.467 335.98 125.399 335.657 125.314C335.009 125.144 334.068 124.909 332.892 124.648C330.54 124.125 327.253 123.497 323.514 123.079C316.093 122.248 306.936 122.248 299.765 125.482L308.997 169.781L327.567 169.419C327.956 167.674 330.075 157.164 332.149 146.824C333.241 141.383 334.319 135.995 335.124 131.966C335.527 129.952 335.862 128.278 336.095 127.108C336.212 126.522 336.304 126.063 336.367 125.75L336.413 125.518Z" fill="black"/>
<path d="M327.786 169.689C328.211 168.014 336.732 125.324 336.732 125.324C336.732 125.324 313.993 118.609 299.451 125.324L308.775 170.06L327.786 169.689Z" fill="white"/>
<path fill-rule="evenodd" clip-rule="evenodd" d="M336.809 125.06C336.809 125.06 336.809 125.06 336.732 125.324C337.001 125.377 337.001 125.378 337.001 125.378L337.001 125.379L336.905 125.857C336.843 126.17 336.751 126.63 336.634 127.215C336.4 128.386 336.066 130.06 335.663 132.074C334.858 136.103 333.779 141.491 332.688 146.932C330.506 157.807 328.267 168.91 328.052 169.757L328 169.96L308.552 170.339L299.138 125.166L299.336 125.074C306.677 121.685 316.06 121.692 323.575 122.533C327.338 122.954 330.645 123.585 333.011 124.111C334.194 124.375 335.143 124.611 335.796 124.783C336.122 124.868 336.375 124.938 336.547 124.985C336.632 125.009 336.698 125.028 336.742 125.041C336.764 125.047 336.781 125.052 336.792 125.055L336.805 125.059L336.808 125.06L336.809 125.06ZM336.732 125.324L337.001 125.377L337.05 125.131L336.809 125.06L336.732 125.324ZM336.413 125.518C336.408 125.517 336.404 125.516 336.399 125.514C336.23 125.467 335.98 125.399 335.657 125.314C335.009 125.144 334.068 124.909 332.892 124.648C330.54 124.125 327.253 123.497 323.514 123.079C316.093 122.248 306.936 122.248 299.765 125.482L308.997 169.781L327.567 169.419C327.956 167.674 330.075 157.164 332.149 146.824C333.241 141.383 334.319 135.995 335.124 131.966C335.527 129.952 335.862 128.278 336.095 127.108C336.212 126.522 336.304 126.063 336.367 125.75L336.413 125.518Z" fill="#2C2C2C"/>
<path d="M331.205 124.013C324.854 122.736 314.116 121.28 304.889 123.477C305.981 130.363 307.072 137.256 308.164 144.143C309.043 148.811 313.471 151.921 318.092 151.949C322.712 151.921 327.14 148.818 328.019 144.143C329.076 137.428 330.141 130.72 331.205 124.013Z" fill="#50BFD7"/>
<path fill-rule="evenodd" clip-rule="evenodd" d="M304.825 123.21C314.113 120.999 324.9 122.465 331.259 123.743L331.517 123.795L331.476 124.056C330.412 130.763 329.348 137.471 328.291 144.185L328.29 144.189L328.289 144.193C327.382 149.019 322.823 152.195 318.093 152.223L318.092 152.224L318.09 152.223C313.36 152.195 308.801 149.012 307.894 144.193L307.893 144.19L307.893 144.186C307.347 140.743 306.801 137.298 306.255 133.854L306.255 133.853C305.709 130.408 305.164 126.963 304.618 123.52L304.578 123.269L304.825 123.21ZM305.2 123.686C305.733 127.045 306.265 130.406 306.797 133.766L306.798 133.767C307.343 137.21 307.889 140.654 308.434 144.096C309.287 148.612 313.582 151.647 318.092 151.674C322.601 151.647 326.896 148.619 327.749 144.096C328.792 137.47 329.842 130.85 330.892 124.23C324.579 122.98 314.188 121.616 305.2 123.686Z" fill="#2C2C2C"/>
<path d="M317.309 126.449C319.478 126.449 322.849 125.79 322.849 123.628L322.293 116.405L321.806 110.089C321.806 107.919 320.048 106.168 317.885 106.168C316.801 106.168 315.826 106.608 315.112 107.315C314.405 108.022 313.958 109.004 313.958 110.089L313.478 116.412L313.018 122.474C312.393 126.134 317.309 126.449 317.309 126.449Z" fill="#2C2C2C"/>
<path d="M328.678 71.0442C325.808 67.5153 321.799 65.387 316.65 65.387C304.992 65.387 293.602 76.1385 293.602 89.5402C293.602 102.942 303.049 113.81 314.707 113.81C315.826 113.81 316.911 113.707 317.961 113.522C318.071 114.112 318.133 114.716 318.133 115.341C318.133 115.451 318.126 115.568 318.126 115.678C350.25 107.878 344.991 69.0601 328.678 71.0442Z" fill="#2C2C2C"/>
<path d="M301.641 105.599C304.087 105.599 306.07 103.616 306.07 101.171C306.07 98.7249 304.087 96.7423 301.641 96.7423C299.196 96.7423 297.213 98.7249 297.213 101.171C297.213 103.616 299.196 105.599 301.641 105.599Z" fill="#E0E0E0"/>
<path fill-rule="evenodd" clip-rule="evenodd" d="M301.641 97.0169C299.347 97.0169 297.488 98.8766 297.488 101.171C297.488 103.465 299.347 105.324 301.641 105.324C303.935 105.324 305.795 103.465 305.795 101.171C305.795 98.8766 303.935 97.0169 301.641 97.0169ZM296.938 101.171C296.938 98.5732 299.044 96.4677 301.641 96.4677C304.239 96.4677 306.344 98.5732 306.344 101.171C306.344 103.768 304.239 105.874 301.641 105.874C299.044 105.874 296.938 103.768 296.938 101.171Z" fill="#2C2C2C"/>
<path d="M332.825 105.599C335.271 105.599 337.253 103.616 337.253 101.171C337.253 98.7249 335.271 96.7423 332.825 96.7423C330.379 96.7423 328.397 98.7249 328.397 101.171C328.397 103.616 330.379 105.599 332.825 105.599Z" fill="#E0E0E0"/>
<path fill-rule="evenodd" clip-rule="evenodd" d="M332.825 97.0169C330.531 97.0169 328.671 98.8766 328.671 101.171C328.671 103.465 330.531 105.324 332.825 105.324C335.119 105.324 336.979 103.465 336.979 101.171C336.979 98.8766 335.119 97.0169 332.825 97.0169ZM328.122 101.171C328.122 98.5732 330.228 96.4677 332.825 96.4677C335.422 96.4677 337.528 98.5732 337.528 101.171C337.528 103.768 335.422 105.874 332.825 105.874C330.228 105.874 328.122 103.768 328.122 101.171Z" fill="#2C2C2C"/>
<path d="M317.652 119.646C327.158 119.646 334.864 108.737 334.864 95.28C334.864 81.823 327.158 70.9139 317.652 70.9139C308.146 70.9139 300.44 81.823 300.44 95.28C300.44 108.737 308.146 119.646 317.652 119.646Z" fill="#E0E0E0"/>
<path fill-rule="evenodd" clip-rule="evenodd" d="M305.706 78.209C302.627 82.5668 300.715 88.6014 300.715 95.28C300.715 101.959 302.627 107.993 305.706 112.351C308.784 116.709 313.012 119.371 317.652 119.371C322.292 119.371 326.52 116.709 329.599 112.351C332.677 107.993 334.59 101.959 334.59 95.28C334.59 88.6014 332.677 82.5668 329.599 78.209C326.52 73.8505 322.292 71.1885 317.652 71.1885C313.012 71.1885 308.784 73.8505 305.706 78.209ZM305.257 77.8921C308.408 73.4318 312.786 70.6393 317.652 70.6393C322.518 70.6393 326.896 73.4318 330.047 77.8921C333.198 82.3531 335.139 88.5015 335.139 95.28C335.139 102.058 333.198 108.207 330.047 112.668C326.896 117.128 322.518 119.921 317.652 119.921C312.786 119.921 308.408 117.128 305.257 112.668C302.106 108.207 300.165 102.058 300.165 95.28C300.165 88.5015 302.106 82.3531 305.257 77.8921Z" fill="#2C2C2C"/>
<path d="M297.927 89.8768C297.927 89.8768 312.578 90.5908 317.46 81.7754C317.46 81.7754 328.06 90.9478 338.18 90.2338L337.226 86.1831L333.299 78.4387L330.917 75.5826L326.035 70.4608L319.485 67.7214L311.624 68.7925L301.14 75.9396L299.829 80.7043L297.927 89.8768Z" fill="#2C2C2C"/>
<path d="M318.071 104.803C318.078 104.844 317.988 104.919 317.789 104.919C317.597 104.926 317.302 104.837 317.041 104.59C316.911 104.466 316.794 104.315 316.705 104.123C316.691 104.095 316.684 104.068 316.67 104.04L316.657 103.999L316.643 103.965L316.622 103.903C316.615 103.876 316.608 103.841 316.595 103.814C316.567 103.711 316.547 103.601 316.54 103.484C316.499 103.031 316.588 102.571 316.698 102.132C317.123 100.374 317.625 98.9943 317.81 99.0354C317.995 99.0835 317.803 100.539 317.377 102.297C317.268 102.729 317.185 103.12 317.185 103.45C317.185 103.532 317.192 103.615 317.199 103.69L317.206 103.718V103.732V103.738V103.745C317.206 103.745 317.199 103.725 317.206 103.732L317.219 103.8L317.226 103.835L317.233 103.855L317.247 103.896C317.288 104.027 317.35 104.15 317.419 104.246C317.556 104.446 317.721 104.569 317.851 104.638C317.975 104.727 318.064 104.755 318.071 104.803Z" fill="#2C2C2C"/>
<path d="M313.176 96.5706C313.176 98.5273 311.48 100.113 309.393 100.113C307.299 100.113 305.61 98.5273 305.61 96.5706C305.61 94.6139 307.305 93.028 309.393 93.028C311.473 93.028 313.176 94.6139 313.176 96.5706Z" fill="white"/>
<path fill-rule="evenodd" clip-rule="evenodd" d="M309.393 93.3025C307.44 93.3025 305.884 94.7824 305.884 96.5706C305.884 98.3591 307.433 99.8386 309.393 99.8386C311.346 99.8386 312.901 98.3588 312.901 96.5706C312.901 94.7827 311.339 93.3025 309.393 93.3025ZM305.335 96.5706C305.335 94.4454 307.171 92.7533 309.393 92.7533C311.607 92.7533 313.45 94.4451 313.45 96.5706C313.45 98.6958 311.614 100.388 309.393 100.388C307.164 100.388 305.335 98.6954 305.335 96.5706Z" fill="#2C2C2C"/>
<path d="M307.532 96.3512C307.532 97.9646 308.583 99.2759 309.873 99.2759C311.164 99.2759 312.215 97.9646 312.215 96.3512C312.215 94.7378 311.164 93.4264 309.873 93.4264C308.583 93.4196 307.532 94.7309 307.532 96.3512Z" fill="#50BFD7"/>
<path d="M308.212 96.351C308.212 97.4976 308.953 98.4244 309.873 98.4244C310.793 98.4244 311.535 97.4976 311.535 96.351C311.535 95.2045 310.793 94.2708 309.873 94.2708C308.953 94.2708 308.212 95.1976 308.212 96.351Z" fill="#2C2C2C"/>
<path d="M308.109 94.3806C308.109 94.6964 308.493 94.9436 308.967 94.9436C309.441 94.9436 309.825 94.6896 309.825 94.3806C309.825 94.0648 309.441 93.8176 308.967 93.8176C308.493 93.8108 308.109 94.0648 308.109 94.3806Z" fill="white"/>
<path d="M314.254 91.1536C314.254 91.1536 309.146 86.0593 303.653 92.108C303.653 92.108 308.404 89.0665 314.254 91.1536Z" fill="#2C2C2C"/>
<path d="M329.633 96.5706C329.633 98.5273 327.937 100.113 325.85 100.113C323.756 100.113 322.067 98.5273 322.067 96.5706C322.067 94.6139 323.762 93.028 325.85 93.028C327.937 93.028 329.633 94.6139 329.633 96.5706Z" fill="white"/>
<path fill-rule="evenodd" clip-rule="evenodd" d="M325.85 93.3025C323.897 93.3025 322.341 94.7824 322.341 96.5706C322.341 98.3591 323.89 99.8386 325.85 99.8386C327.802 99.8386 329.358 98.3588 329.358 96.5706C329.358 94.7824 327.802 93.3025 325.85 93.3025ZM321.792 96.5706C321.792 94.4454 323.628 92.7533 325.85 92.7533C328.071 92.7533 329.907 94.4454 329.907 96.5706C329.907 98.6958 328.071 100.388 325.85 100.388C323.621 100.388 321.792 98.6954 321.792 96.5706Z" fill="#2C2C2C"/>
<path d="M323.996 96.3512C323.996 97.9646 325.046 99.2759 326.337 99.2759C327.628 99.2759 328.678 97.9646 328.678 96.3512C328.678 94.7378 327.628 93.4264 326.337 93.4264C325.039 93.4196 323.996 94.7309 323.996 96.3512Z" fill="#50BFD7"/>
<path d="M324.669 96.351C324.669 97.4976 325.41 98.4244 326.33 98.4244C327.25 98.4244 327.992 97.4976 327.992 96.351C327.992 95.2045 327.25 94.2708 326.33 94.2708C325.417 94.2708 324.669 95.1976 324.669 96.351Z" fill="#2C2C2C"/>
<path d="M324.566 94.3806C324.566 94.6964 324.95 94.9436 325.424 94.9436C325.898 94.9436 326.282 94.6896 326.282 94.3806C326.282 94.0648 325.898 93.8176 325.424 93.8176C324.95 93.8108 324.566 94.0648 324.566 94.3806Z" fill="white"/>
<path d="M330.717 90.5975C330.717 90.5975 325.609 85.5032 320.117 91.5518C320.11 91.5518 324.861 88.5103 330.717 90.5975Z" fill="#2C2C2C"/>
<path d="M312.063 108.695C312.235 110.027 312.88 111.256 313.889 112.149C314.899 113.041 316.196 113.529 317.542 113.529C318.888 113.529 320.185 113.041 321.195 112.149C322.204 111.256 322.856 110.034 323.021 108.695H312.063Z" fill="white"/>
<path fill-rule="evenodd" clip-rule="evenodd" d="M311.751 108.421H323.332L323.294 108.729C323.121 110.135 322.435 111.418 321.377 112.354C320.317 113.292 318.954 113.803 317.542 113.803C316.13 113.803 314.768 113.292 313.708 112.354C312.648 111.417 311.971 110.128 311.791 108.73L311.751 108.421ZM312.385 108.97C312.602 110.116 313.191 111.165 314.072 111.943C315.03 112.791 316.263 113.254 317.542 113.254C318.821 113.254 320.054 112.791 321.013 111.943C321.895 111.163 322.489 110.12 322.701 108.97H312.385Z" fill="#2C2C2C"/>
<path d="M322.808 172.25C322.808 172.422 322.959 172.621 323.138 172.6C325.163 172.388 326.715 170.822 328.713 171.152C326.708 172.147 324.971 173.877 325.218 176.425C325.246 176.74 325.548 176.864 325.781 176.672C327.216 175.45 328.864 174.358 330.786 174.763C331.61 174.935 332.578 175.257 333.429 175.148C334.699 174.99 335.771 174.413 336.402 173.184C337.514 171.056 337.102 168.502 334.61 167.973C334.548 167.959 334.5 167.966 334.445 167.987C333.525 167.623 332.688 167.163 331.946 166.36C331.232 165.577 330.566 164.712 329.791 163.991C328.754 163.023 327.628 162.261 326.255 162.913C326.049 163.009 326.063 163.304 326.193 163.462C326.797 164.211 327.504 164.925 328.246 165.611C327.504 165.44 326.756 165.35 325.987 165.412C324.614 165.529 322.994 166.442 323.028 168.076C323.035 168.282 323.179 168.406 323.357 168.426C324.621 168.557 325.891 168.536 327.147 168.666C325.191 169.243 322.788 169.902 322.808 172.25Z" fill="#E0E0E0"/>
<path fill-rule="evenodd" clip-rule="evenodd" d="M328.25 162.589C328.882 162.839 329.454 163.301 329.978 163.79C330.503 164.278 330.987 164.84 331.457 165.386C331.69 165.656 331.92 165.923 332.149 166.174C332.831 166.912 333.6 167.349 334.464 167.698C334.526 167.688 334.594 167.688 334.668 167.705C336.013 167.99 336.819 168.835 337.122 169.904C337.421 170.956 337.226 172.199 336.646 173.31C335.964 174.636 334.803 175.253 333.464 175.42C332.995 175.48 332.506 175.421 332.045 175.33C331.813 175.285 331.583 175.231 331.363 175.178C331.34 175.173 331.316 175.167 331.293 175.161C331.097 175.114 330.91 175.069 330.73 175.032L330.729 175.032C328.947 174.656 327.393 175.66 325.959 176.881L325.957 176.882L325.956 176.884C325.769 177.038 325.527 177.082 325.314 176.991C325.101 176.9 324.966 176.694 324.945 176.45C324.721 174.14 326.036 172.482 327.695 171.413C327.143 171.488 326.605 171.688 326.042 171.926C325.917 171.979 325.79 172.034 325.662 172.089C324.9 172.421 324.078 172.778 323.168 172.873C322.962 172.896 322.798 172.791 322.699 172.678C322.601 172.566 322.534 172.411 322.534 172.252C322.523 170.958 323.19 170.128 324.09 169.562C324.564 169.263 325.111 169.033 325.666 168.839C325.525 168.833 325.384 168.827 325.243 168.821L325.237 168.82C324.608 168.793 323.968 168.765 323.329 168.699L323.328 168.699L323.326 168.699C323.032 168.665 322.765 168.446 322.753 168.085L322.753 168.083L322.753 168.082C322.734 167.161 323.185 166.447 323.811 165.959C324.431 165.474 325.232 165.201 325.964 165.138L325.964 165.138L325.965 165.138C326.45 165.099 326.925 165.118 327.393 165.178C326.889 164.681 326.41 164.168 325.98 163.636C325.87 163.501 325.814 163.32 325.824 163.149C325.834 162.972 325.92 162.767 326.138 162.665C326.899 162.303 327.603 162.334 328.25 162.589ZM326.375 163.16C326.374 163.163 326.372 163.17 326.372 163.18C326.371 163.197 326.373 163.218 326.38 163.24C326.387 163.262 326.397 163.278 326.405 163.287L326.406 163.289L326.407 163.29C326.999 164.024 327.696 164.728 328.432 165.41L329.191 166.112L328.184 165.879C327.462 165.712 326.743 165.627 326.01 165.686C325.369 165.74 324.673 165.982 324.149 166.391C323.63 166.797 323.288 167.356 323.302 168.068C323.304 168.104 323.315 168.119 323.322 168.126C323.332 168.136 323.352 168.149 323.388 168.153C324.009 168.217 324.634 168.244 325.267 168.272L325.269 168.272C325.899 168.299 326.539 168.327 327.176 168.393L328.558 168.537L327.225 168.93C327.191 168.94 327.156 168.95 327.122 168.96C326.162 169.243 325.159 169.538 324.383 170.027C323.597 170.521 323.074 171.194 323.083 172.248L323.083 172.249V172.25C323.083 172.254 323.084 172.264 323.09 172.279C323.095 172.293 323.104 172.306 323.113 172.317C323.116 172.321 323.12 172.324 323.122 172.326C323.937 172.238 324.669 171.921 325.43 171.591C325.562 171.534 325.695 171.476 325.829 171.42C326.724 171.041 327.675 170.702 328.757 170.881L329.597 171.019L328.835 171.398C326.873 172.372 325.26 174.018 325.491 176.398L325.492 176.399L325.492 176.401C325.495 176.438 325.505 176.459 325.512 176.47C325.519 176.48 325.526 176.484 325.53 176.486C325.535 176.488 325.542 176.49 325.552 176.488C325.563 176.486 325.581 176.48 325.605 176.461C327.041 175.239 328.781 174.06 330.842 174.494C331.031 174.534 331.226 174.58 331.421 174.627C331.444 174.633 331.468 174.638 331.491 174.644C331.711 174.697 331.931 174.748 332.15 174.791C332.592 174.878 333.012 174.924 333.394 174.875L333.395 174.875L333.395 174.875C334.597 174.726 335.577 174.189 336.158 173.058L336.158 173.058L336.159 173.057C336.69 172.04 336.846 170.942 336.594 170.054C336.346 169.181 335.7 168.485 334.553 168.242L334.552 168.241L334.551 168.241C334.55 168.241 334.55 168.241 334.55 168.241C334.548 168.242 334.546 168.242 334.542 168.244L334.443 168.281L334.344 168.242C333.402 167.869 332.524 167.39 331.745 166.546L331.744 166.545L331.743 166.545C331.491 166.268 331.25 165.988 331.012 165.712C330.555 165.181 330.107 164.66 329.604 164.192L329.603 164.192C329.09 163.713 328.58 163.31 328.048 163.1C327.53 162.895 326.986 162.871 326.375 163.16Z" fill="#2C2C2C"/>
<path d="M304.539 268.493C304.539 268.493 304.944 269.777 305.061 269.976C305.184 270.175 308.335 271.26 312.18 271.177C316.176 271.095 318.002 269.935 318.057 268.486H304.539V268.493Z" fill="#50BFD7"/>
<path fill-rule="evenodd" clip-rule="evenodd" d="M304.264 268.211H318.342L318.332 268.496C318.299 269.354 317.738 270.08 316.719 270.59C315.705 271.097 314.204 271.41 312.186 271.452M304.264 268.211V268.486V268.211ZM304.539 268.493L304.277 268.575L304.264 268.535V268.486M304.539 268.493C304.277 268.575 304.277 268.575 304.277 268.575L304.282 268.59C304.285 268.6 304.289 268.614 304.295 268.632C304.306 268.667 304.323 268.719 304.343 268.781C304.383 268.905 304.437 269.073 304.496 269.247C304.554 269.421 304.616 269.603 304.672 269.755C304.724 269.896 304.779 270.039 304.824 270.115L304.825 270.118L304.827 270.121C304.855 270.165 304.889 270.195 304.908 270.21C304.93 270.228 304.954 270.244 304.975 270.257C305.019 270.284 305.072 270.311 305.129 270.337C305.246 270.391 305.404 270.453 305.595 270.519C305.979 270.651 306.515 270.805 307.165 270.95C308.466 271.24 310.237 271.494 312.186 271.452M304.913 268.761H317.743C317.624 269.25 317.234 269.718 316.474 270.098C315.562 270.554 314.152 270.862 312.175 270.903L312.174 270.903C310.278 270.943 308.552 270.696 307.285 270.414C306.651 270.273 306.136 270.124 305.774 269.999C305.592 269.937 305.453 269.882 305.359 269.838C305.324 269.822 305.298 269.809 305.279 269.799C305.273 269.785 305.266 269.769 305.259 269.751C305.238 269.701 305.214 269.638 305.188 269.566C305.135 269.421 305.074 269.244 305.016 269.072C304.98 268.963 304.944 268.856 304.913 268.761Z" fill="#2C2C2C"/>
<path d="M304.539 268.767C305.143 269.31 305.932 269.722 306.509 269.907C307.944 270.381 309.516 270.559 311.02 270.642C312.62 270.724 314.377 270.697 315.874 270.065C316.684 269.722 317.371 269.221 318.009 268.651C318.297 267.944 318.373 267.14 318.352 266.316C318.304 264.833 317.968 263.398 317.707 261.943C317.666 261.73 317.631 261.524 317.597 261.318C317.522 260.371 317.453 259.416 317.391 258.476C317.371 258.126 317.329 257.817 317.336 257.467C317.343 257.233 317.426 256.856 317.364 256.636C317.357 256.608 317.343 256.588 317.336 256.567C317.336 256.533 317.343 256.499 317.336 256.464C317.068 256.245 316.787 256.039 316.464 255.949C316.231 255.99 315.997 256.066 315.846 256.128C315.606 256.224 315.393 256.347 315.201 256.492C314.727 255.846 313.56 255.544 312.901 255.517C311.871 255.476 310.498 255.654 309.681 256.409C309.544 256.279 309.331 256.21 309.146 256.176C309.104 256.169 309.056 256.162 309.015 256.155C308.535 256.341 308.658 257.522 308.61 257.858C308.541 258.304 308.473 258.75 308.363 259.183C308.143 260.014 307.827 260.776 307.347 261.49C306.832 262.259 306.159 262.925 305.569 263.632C305.486 263.776 305.397 263.92 305.315 264.058C304.683 265.074 304.168 266.55 304.305 267.758C304.347 268.143 304.429 268.472 304.539 268.767Z" fill="#50BFD7"/>
<path fill-rule="evenodd" clip-rule="evenodd" d="M311.149 255.397C311.752 255.256 312.378 255.221 312.912 255.242L312.912 255.242C313.271 255.257 313.756 255.346 314.215 255.515C314.585 255.651 314.965 255.849 315.247 256.127C315.4 256.03 315.565 255.945 315.743 255.873C315.91 255.805 316.161 255.724 316.417 255.679L316.478 255.668L316.537 255.685C316.921 255.791 317.241 256.03 317.51 256.252L317.586 256.314L317.606 256.41C317.614 256.453 317.614 256.492 317.614 256.517C317.619 256.531 317.624 256.547 317.629 256.565C317.674 256.729 317.663 256.923 317.649 257.071C317.643 257.14 317.636 257.201 317.63 257.256C317.621 257.339 317.613 257.409 317.611 257.473C317.606 257.698 317.622 257.895 317.64 258.114C317.649 258.222 317.658 258.335 317.665 258.459C317.727 259.394 317.795 260.343 317.87 261.285C317.904 261.487 317.937 261.686 317.977 261.891L317.977 261.893L317.977 261.894C318.031 262.194 318.089 262.496 318.146 262.799C318.365 263.946 318.588 265.113 318.627 266.307L318.627 266.308L318.627 266.309C318.648 267.151 318.572 267.997 318.263 268.754L318.239 268.813L318.192 268.856C317.541 269.437 316.829 269.959 315.981 270.318L315.981 270.318C314.422 270.976 312.61 270.999 311.006 270.916L311.005 270.916C309.493 270.833 307.893 270.653 306.424 270.168C305.814 269.972 304.99 269.542 304.355 268.972L304.305 268.927L304.281 268.863C304.164 268.547 304.076 268.195 304.032 267.788C303.886 266.497 304.431 264.959 305.08 263.914C305.104 263.874 305.129 263.834 305.153 263.794C305.213 263.694 305.273 263.596 305.33 263.496L305.342 263.475L305.358 263.456C305.561 263.213 305.766 262.982 305.969 262.754C306.381 262.291 306.78 261.842 307.119 261.337L307.119 261.336C307.579 260.653 307.884 259.921 308.097 259.114C308.203 258.697 308.269 258.265 308.338 257.818C308.347 257.758 308.348 257.653 308.351 257.494L308.351 257.471C308.354 257.311 308.358 257.116 308.377 256.923C308.396 256.733 308.43 256.528 308.501 256.35C308.571 256.175 308.694 255.985 308.916 255.899L308.986 255.872L309.06 255.884C309.079 255.887 309.099 255.891 309.122 255.894L309.123 255.894C309.145 255.898 309.168 255.901 309.191 255.905L309.193 255.905L309.196 255.906C309.332 255.931 309.506 255.977 309.665 256.063C310.094 255.728 310.62 255.52 311.149 255.397ZM311.274 255.932C310.727 256.059 310.229 256.277 309.867 256.611L309.678 256.786L309.492 256.608C309.414 256.535 309.268 256.478 309.098 256.446C309.09 256.445 309.082 256.444 309.074 256.442C309.055 256.463 309.033 256.498 309.011 256.554C308.968 256.661 308.94 256.806 308.924 256.977C308.907 257.145 308.903 257.319 308.901 257.481C308.9 257.495 308.9 257.51 308.9 257.524C308.898 257.66 308.896 257.801 308.882 257.897L308.882 257.898L308.88 257.906C308.812 258.348 308.742 258.805 308.629 259.251L308.629 259.252L308.628 259.253C308.402 260.107 308.076 260.899 307.575 261.643C307.216 262.179 306.773 262.677 306.347 263.156C306.157 263.37 305.969 263.581 305.795 263.79C305.737 263.889 305.676 263.99 305.619 264.085C305.595 264.124 305.572 264.162 305.55 264.199L305.549 264.201L305.548 264.203C304.934 265.189 304.45 266.603 304.578 267.727L304.578 267.728L304.578 267.729C304.614 268.063 304.683 268.35 304.773 268.608C305.339 269.1 306.066 269.476 306.593 269.646L306.594 269.646L306.595 269.646C307.996 270.109 309.539 270.285 311.034 270.367C312.629 270.45 314.332 270.418 315.767 269.812C316.52 269.493 317.167 269.029 317.778 268.489C318.027 267.845 318.097 267.106 318.078 266.324C318.041 265.178 317.828 264.065 317.611 262.924C317.552 262.616 317.493 262.306 317.437 261.993C317.395 261.778 317.361 261.57 317.327 261.366L317.324 261.352L317.323 261.34C317.248 260.391 317.179 259.436 317.117 258.494L317.117 258.493L317.117 258.492C317.111 258.393 317.103 258.293 317.095 258.19C317.076 257.957 317.057 257.714 317.062 257.461L317.062 257.46L317.062 257.458C317.064 257.374 317.076 257.262 317.088 257.16C317.093 257.11 317.098 257.062 317.102 257.021C317.116 256.87 317.115 256.769 317.1 256.713C317.099 256.711 317.099 256.71 317.097 256.707C317.096 256.704 317.094 256.7 317.092 256.695C317.088 256.686 317.082 256.672 317.076 256.654L317.062 256.612V256.596C316.854 256.432 316.657 256.301 316.449 256.232C316.259 256.271 316.073 256.332 315.95 256.382L315.949 256.382L315.948 256.383C315.732 256.469 315.54 256.581 315.366 256.711L315.144 256.878L314.98 256.654C314.789 256.395 314.439 256.182 314.026 256.03C313.618 255.88 313.19 255.804 312.89 255.791C312.394 255.771 311.818 255.805 311.274 255.932Z" fill="#2C2C2C"/>
<path d="M334.301 268.493C334.301 268.493 333.903 269.777 333.779 269.976C333.656 270.175 330.504 271.26 326.66 271.177C322.664 271.095 320.838 269.935 320.783 268.486H334.301V268.493Z" fill="#50BFD7"/>
<path fill-rule="evenodd" clip-rule="evenodd" d="M320.498 268.211H334.576V268.534L334.564 268.574L334.301 268.493C334.564 268.574 334.564 268.574 334.564 268.574L334.563 268.574L334.563 268.574L334.559 268.589C334.556 268.599 334.552 268.613 334.546 268.631C334.535 268.666 334.519 268.718 334.499 268.78C334.459 268.904 334.405 269.072 334.347 269.246C334.289 269.42 334.227 269.603 334.171 269.755C334.119 269.895 334.061 270.042 334.013 270.121C333.985 270.165 333.951 270.195 333.932 270.21C333.91 270.228 333.886 270.244 333.865 270.257C333.821 270.284 333.768 270.311 333.711 270.337C333.594 270.391 333.436 270.453 333.245 270.519C332.861 270.651 332.325 270.805 331.675 270.95C330.374 271.24 328.603 271.494 326.654 271.452M333.928 268.761H321.097C321.216 269.25 321.606 269.718 322.366 270.098C323.278 270.554 324.688 270.862 326.665 270.903L326.666 270.903C328.562 270.943 330.288 270.696 331.555 270.414C332.189 270.273 332.704 270.124 333.066 269.999C333.248 269.937 333.387 269.882 333.481 269.838C333.517 269.822 333.544 269.808 333.563 269.798C333.569 269.784 333.576 269.768 333.584 269.749C333.605 269.7 333.629 269.637 333.655 269.565C333.709 269.421 333.769 269.245 333.826 269.073C333.863 268.963 333.898 268.856 333.928 268.761ZM320.498 268.211L320.508 268.496L320.498 268.211ZM320.508 268.496C320.541 269.354 321.102 270.08 322.121 270.59L320.508 268.496ZM322.121 270.59C323.135 271.097 324.636 271.41 326.654 271.452L322.121 270.59Z" fill="#2C2C2C"/>
<path d="M334.301 268.767C333.697 269.31 332.907 269.722 332.331 269.907C330.896 270.381 329.324 270.559 327.82 270.642C326.22 270.724 324.463 270.697 322.966 270.065C322.156 269.722 321.469 269.221 320.831 268.651C320.542 267.944 320.467 267.14 320.488 266.316C320.536 264.833 320.872 263.398 321.133 261.943C321.174 261.73 321.208 261.524 321.243 261.318C321.318 260.371 321.387 259.416 321.449 258.476C321.476 258.126 321.511 257.817 321.504 257.467C321.497 257.233 321.414 256.856 321.476 256.636C321.483 256.608 321.497 256.588 321.504 256.567C321.504 256.533 321.497 256.499 321.504 256.464C321.771 256.245 322.046 256.039 322.376 255.949C322.609 255.99 322.842 256.066 322.994 256.128C323.234 256.224 323.447 256.347 323.639 256.492C324.113 255.846 325.28 255.544 325.939 255.517C326.969 255.476 328.342 255.654 329.159 256.409C329.296 256.279 329.509 256.21 329.694 256.176C329.736 256.169 329.784 256.162 329.825 256.155C330.305 256.341 330.182 257.522 330.23 257.858C330.299 258.304 330.367 258.75 330.477 259.183C330.697 260.014 331.013 260.776 331.493 261.49C332.008 262.259 332.681 262.925 333.271 263.632C333.354 263.776 333.443 263.92 333.525 264.058C334.157 265.074 334.672 266.55 334.535 267.758C334.493 268.143 334.418 268.472 334.301 268.767Z" fill="#50BFD7"/>
<path fill-rule="evenodd" clip-rule="evenodd" d="M327.566 255.932C327.021 255.805 326.446 255.771 325.95 255.791C325.65 255.804 325.221 255.88 324.814 256.03C324.401 256.182 324.05 256.395 323.86 256.654L323.696 256.878L323.474 256.711C323.3 256.581 323.108 256.469 322.891 256.383L322.89 256.382L322.889 256.382C322.767 256.332 322.58 256.27 322.39 256.232C322.179 256.301 321.987 256.43 321.778 256.595V256.612L321.764 256.654C321.758 256.672 321.752 256.686 321.748 256.695C321.746 256.7 321.744 256.704 321.743 256.707C321.742 256.708 321.742 256.709 321.741 256.71C321.741 256.711 321.74 256.712 321.74 256.713C321.725 256.769 321.724 256.87 321.738 257.021C321.741 257.062 321.747 257.11 321.752 257.16C321.763 257.262 321.776 257.374 321.778 257.458L321.778 257.46L321.778 257.461C321.784 257.761 321.761 258.035 321.738 258.31C321.733 258.372 321.727 258.434 321.723 258.496C321.661 259.437 321.592 260.392 321.516 261.34L321.516 261.352L321.513 261.366C321.479 261.57 321.445 261.778 321.403 261.993C321.347 262.306 321.288 262.616 321.229 262.924C321.011 264.065 320.799 265.178 320.762 266.324C320.743 267.106 320.813 267.845 321.062 268.489C321.673 269.029 322.32 269.493 323.073 269.812C324.508 270.418 326.211 270.45 327.806 270.367C329.301 270.285 330.844 270.109 332.245 269.646L332.246 269.646L332.247 269.646C332.775 269.476 333.502 269.099 334.069 268.606C334.162 268.354 334.225 268.067 334.262 267.729L334.262 267.728L334.262 267.727C334.389 266.603 333.906 265.189 333.292 264.203L333.291 264.201L333.29 264.199C333.268 264.162 333.245 264.124 333.221 264.085C333.163 263.99 333.103 263.889 333.045 263.79C332.871 263.581 332.683 263.37 332.492 263.156C332.067 262.677 331.624 262.179 331.265 261.643C330.764 260.899 330.437 260.107 330.212 259.253L330.211 259.252L330.211 259.251C330.098 258.805 330.027 258.348 329.959 257.906L329.958 257.898L329.958 257.897C329.944 257.801 329.942 257.661 329.94 257.524C329.94 257.51 329.94 257.495 329.939 257.481C329.937 257.319 329.933 257.145 329.916 256.977C329.9 256.806 329.872 256.661 329.829 256.554C329.807 256.498 329.785 256.463 329.766 256.442C329.758 256.444 329.75 256.445 329.742 256.446C329.572 256.478 329.426 256.535 329.348 256.608L329.161 256.786L328.972 256.611C328.611 256.277 328.113 256.059 327.566 255.932ZM329.175 256.063C328.746 255.728 328.22 255.52 327.691 255.397C327.088 255.256 326.461 255.221 325.928 255.242L325.927 255.242C325.569 255.257 325.084 255.346 324.624 255.515C324.255 255.651 323.875 255.849 323.593 256.127C323.44 256.03 323.275 255.945 323.096 255.873C322.93 255.805 322.678 255.724 322.423 255.679L322.363 255.668L322.304 255.684C321.912 255.79 321.598 256.032 321.329 256.252L321.254 256.314L321.234 256.41C321.226 256.453 321.225 256.492 321.226 256.517C321.221 256.531 321.216 256.547 321.211 256.565C321.166 256.728 321.177 256.923 321.191 257.071C321.197 257.14 321.204 257.201 321.21 257.256C321.219 257.339 321.227 257.409 321.229 257.473C321.234 257.742 321.214 257.982 321.191 258.254C321.186 258.319 321.18 258.385 321.175 258.454L321.175 258.456L321.175 258.458C321.113 259.393 321.045 260.342 320.97 261.285C320.936 261.487 320.903 261.686 320.863 261.891L320.863 261.893L320.863 261.894C320.809 262.194 320.751 262.496 320.694 262.799C320.475 263.946 320.252 265.113 320.213 266.307L320.213 266.308L320.213 266.309C320.192 267.151 320.268 267.997 320.577 268.754L320.601 268.813L320.648 268.856C321.299 269.437 322.011 269.959 322.859 270.318L322.859 270.318C324.418 270.976 326.23 270.999 327.834 270.916L327.835 270.916C329.347 270.833 330.947 270.653 332.416 270.168C333.026 269.972 333.85 269.542 334.485 268.972L334.533 268.929L334.557 268.868C334.684 268.546 334.764 268.191 334.808 267.788C334.954 266.497 334.409 264.96 333.76 263.914C333.736 263.874 333.711 263.834 333.687 263.795C333.627 263.695 333.567 263.596 333.51 263.496L333.498 263.475L333.482 263.456C333.279 263.213 333.074 262.982 332.871 262.754C332.459 262.291 332.06 261.842 331.721 261.337L331.721 261.336C331.261 260.653 330.956 259.921 330.743 259.114C330.637 258.697 330.57 258.265 330.502 257.818C330.493 257.758 330.491 257.653 330.489 257.494L330.488 257.471C330.486 257.311 330.482 257.116 330.463 256.923C330.444 256.733 330.41 256.528 330.339 256.35C330.269 256.175 330.145 255.985 329.924 255.899L329.854 255.872L329.78 255.884C329.761 255.887 329.74 255.891 329.718 255.894L329.717 255.894C329.695 255.898 329.671 255.901 329.649 255.905L329.647 255.905L329.644 255.906C329.508 255.931 329.334 255.977 329.175 256.063ZM321.247 256.47C321.247 256.47 321.247 256.47 321.247 256.47V256.47Z" fill="#2C2C2C"/>
<path fill-rule="evenodd" clip-rule="evenodd" d="M300.097 93.9893V94.1266H299.547V93.9893H300.097Z" fill="#2C2C2C"/>
<path fill-rule="evenodd" clip-rule="evenodd" d="M302.98 95.4994V95.6367H302.431V95.4994H302.98Z" fill="#2C2C2C"/>
<path d="M318.592 94.6894C319.533 94.8886 319.183 95.4996 319.183 95.5888C319.183 95.6781 319.533 100.759 324.071 102.097C328.609 103.436 331.328 100.807 332.118 99.4885C332.907 98.1703 333.566 95.0396 333.759 94.7993C333.958 94.559 334.898 94.1402 334.898 94.1402L335.008 92.9113L333.827 92.5611C333.827 92.5611 330.848 91.2017 326.46 91.1399C322.08 91.0713 319.602 93.5978 319.602 93.5978C318.366 93.2065 316.835 93.1515 315.434 93.5978C315.434 93.5978 312.956 91.0781 308.576 91.1399C304.195 91.2086 301.209 92.5611 301.209 92.5611L300.028 92.9113L300.138 94.1402C300.138 94.1402 301.078 94.559 301.277 94.7993C301.476 95.0396 302.129 98.1772 302.918 99.4885C303.708 100.807 306.427 103.436 310.965 102.097C315.503 100.759 315.853 95.6781 315.853 95.5888C315.853 95.4996 315.503 94.8886 316.444 94.6894C317.267 94.5178 317.775 94.5178 318.592 94.6894ZM329.488 101.047C326.028 103.127 321.881 101.026 320.632 98.287C319.382 95.5476 320.432 94.099 320.432 94.099C322.52 90.6937 330.951 90.5495 332.399 94.2295C332.646 94.8474 332.948 98.9667 329.488 101.047ZM302.637 94.2295C304.085 90.5426 312.516 90.6937 314.604 94.099C314.604 94.099 315.654 95.5476 314.404 98.287C313.155 101.026 309.015 103.127 305.548 101.047C302.094 98.9667 302.396 94.8474 302.637 94.2295Z" fill="#2C2C2C"/>
<path d="M320.721 131.558H315.448C314.048 131.558 312.908 132.698 312.908 134.098V139.371C312.908 140.772 314.048 141.911 315.448 141.911H320.721C322.122 141.911 323.261 140.772 323.261 139.371V134.098C323.261 132.698 322.122 131.558 320.721 131.558ZM311.5 129.313C310.697 129.313 310.045 129.965 310.045 130.769C310.045 131.572 310.697 132.224 311.5 132.224C312.304 132.224 312.956 131.572 312.956 130.769C312.956 129.965 312.304 129.313 311.5 129.313Z" fill="white"/>
<path d="M320.343 134.702C320.007 133.803 319.149 133.205 318.188 133.205H316.76L319.581 140.359H322.609L320.343 134.702ZM314.583 138.307L313.759 140.359H316.766L318.167 136.81H316.739C315.778 136.81 314.913 137.407 314.583 138.307ZM315.05 134.984C315.544 134.984 315.949 134.579 315.949 134.084C315.949 133.59 315.544 133.185 315.05 133.185C314.556 133.185 314.151 133.59 314.151 134.084C314.151 134.579 314.549 134.984 315.05 134.984Z" fill="#50BFD7"/>
</svg>
