<svg width="407" height="299" viewBox="0 0 407 299" fill="none" xmlns="http://www.w3.org/2000/svg">
<path d="M262.832 298.359C262.832 298.359 334.699 301.719 380.158 220.502C425.617 139.285 372.128 64.575 289.498 48.4313C206.869 32.2876 165.702 -28.3275 92.0541 18.073C18.406 64.4735 59.3329 311.586 262.832 298.359Z" fill="#70CDE0"/>
<path opacity="0.4" d="M262.832 298.359C262.832 298.359 334.699 301.719 380.158 220.502C425.617 139.285 372.128 64.575 289.498 48.4313C206.869 32.2876 165.702 -28.3275 92.0541 18.073C18.406 64.4735 59.3329 311.586 262.832 298.359Z" fill="white"/>
<path d="M193.7 66.3829V97.3979C193.746 100.059 194.839 102.595 196.741 104.457C198.644 106.319 201.203 107.356 203.865 107.345H315.059C316.395 107.347 317.719 107.087 318.954 106.578C320.189 106.069 321.312 105.321 322.258 104.377C323.204 103.434 323.955 102.313 324.467 101.08C324.98 99.8457 325.244 98.523 325.245 97.1869V70.9694L339.089 56.4221L203.879 56C202.526 56.0045 201.188 56.2776 199.942 56.8035C198.695 57.3294 197.566 58.0976 196.619 59.0636C195.672 60.0295 194.926 61.1739 194.425 62.4304C193.924 63.6869 193.678 65.0304 193.7 66.3829Z" fill="#F5F5F5"/>
<path d="M308.826 74.7961L207.889 74.3247L207.903 71.2225L308.834 71.6938L308.826 74.7961Z" fill="#E0E0E0"/>
<path d="M308.826 85.0032L207.889 84.5319L207.903 81.4297L308.834 81.901L308.826 85.0032Z" fill="#E0E0E0"/>
<path d="M268.892 91.6487L268.877 94.7509L308.811 94.946L308.826 91.8439L268.892 91.6487Z" fill="#E0E0E0"/>
<path d="M148.784 130.01V154.047C148.784 156.135 147.954 158.138 146.478 159.615C145.002 161.092 143 161.923 140.912 161.925H54.7254C52.6371 161.923 50.6349 161.092 49.1589 159.615C47.6829 158.138 46.8538 156.135 46.8538 154.047V133.738L36.1262 122.483L140.891 122.124C141.927 122.121 142.954 122.323 143.913 122.719C144.871 123.114 145.742 123.694 146.476 124.427C147.209 125.16 147.79 126.03 148.186 126.988C148.582 127.946 148.785 128.973 148.784 130.01Z" fill="#E0E0E0"/>
<path d="M59.5581 136.699L137.767 136.341L137.76 133.935L59.551 134.294L59.5581 136.699Z" fill="#FAFAFA"/>
<path d="M59.5581 144.606L137.767 144.248L137.76 141.842L59.551 142.208L59.5581 144.606Z" fill="#FAFAFA"/>
<path d="M90.4846 149.769L59.5403 149.92L59.552 152.326L90.4964 152.175L90.4846 149.769Z" fill="#FAFAFA"/>
<path d="M406.267 273.239C406.267 273.345 315.522 273.422 203.589 273.422C91.6563 273.422 0.883301 273.366 0.883301 273.239C0.883301 273.112 91.6282 273.056 203.589 273.056C315.55 273.056 406.267 273.141 406.267 273.239Z" fill="#263238"/>
<path d="M220.086 253.518V233.387H187.689V253.518C187.694 256.968 186.332 260.279 183.901 262.726L176.517 270.177H231.257L223.879 262.726C221.444 260.281 220.08 256.969 220.086 253.518Z" fill="white" stroke="#263238" stroke-width="1.10627" stroke-linecap="round" stroke-linejoin="round"/>
<path opacity="0.44" d="M187.688 233.387V253.518C187.687 255.079 187.404 256.626 186.852 258.086H220.922C220.373 256.625 220.09 255.079 220.086 253.518V233.387H187.688Z" fill="#51C0D7"/>
<path d="M220.086 234.296H187.688V249.232H220.086V234.296Z" fill="#263238" stroke="#263238" stroke-width="1.10627" stroke-miterlimit="10"/>
<path d="M125.318 110.166H282.462C283.461 110.165 284.45 110.361 285.373 110.743C286.296 111.126 287.134 111.686 287.84 112.393C288.546 113.1 289.105 113.939 289.486 114.862C289.867 115.786 290.062 116.775 290.059 117.774V235.087C290.052 237.272 289.177 239.364 287.627 240.905C286.078 242.445 283.98 243.307 281.795 243.301H125.991C123.807 243.301 121.712 242.433 120.167 240.888C118.622 239.344 117.754 237.249 117.754 235.064V117.746C117.757 115.739 118.555 113.815 119.972 112.395C121.389 110.974 123.311 110.173 125.318 110.166Z" fill="#263238" stroke="#263238" stroke-width="1.10627" stroke-miterlimit="10"/>
<path d="M117.726 227.893H290.059V235.064C290.059 237.248 289.192 239.343 287.647 240.888C286.102 242.433 284.007 243.301 281.823 243.301H125.991C123.807 243.301 121.712 242.433 120.167 240.888C118.622 239.343 117.754 237.248 117.754 235.064V227.893H117.726Z" fill="white" stroke="#263238" stroke-width="1.10627" stroke-miterlimit="10"/>
<rect x="126.867" y="118.275" width="154.759" height="100.593" fill="white"/>
<path d="M224.283 209.149L227.45 207.581L230.544 209.302L230.026 205.802L232.618 203.395L229.129 202.804L227.64 199.594L226.004 202.73L222.493 203.152L224.964 205.681L224.283 209.149Z" fill="#E0E0E0"/>
<path d="M211.36 209.149L214.528 207.581L217.621 209.302L217.104 205.802L219.696 203.395L216.206 202.804L214.718 199.594L213.081 202.73L209.571 203.152L212.041 205.681L211.36 209.149Z" fill="#51C0D7"/>
<path d="M198.437 209.149L201.605 207.581L204.693 209.302L204.181 205.802L206.773 203.395L203.283 202.804L201.795 199.594L200.158 202.73L196.648 203.152L199.118 205.681L198.437 209.149Z" fill="#51C0D7"/>
<path d="M185.514 209.149L188.682 207.581L191.77 209.302L191.258 205.802L193.85 203.395L190.361 202.804L188.872 199.594L187.235 202.73L183.725 203.152L186.195 205.681L185.514 209.149Z" fill="#51C0D7"/>
<path d="M172.592 209.149L175.759 207.581L178.847 209.302L178.335 205.802L180.927 203.395L177.438 202.804L175.949 199.594L174.313 202.73L170.802 203.152L173.273 205.681L172.592 209.149Z" fill="#51C0D7"/>
<path d="M232.766 131.363C232.766 131.443 218.587 131.506 201.093 131.506C183.598 131.506 169.419 131.443 169.419 131.363C169.419 131.284 183.593 131.226 201.093 131.226C218.592 131.226 232.766 131.289 232.766 131.363Z" fill="#263238"/>
<path d="M217.194 127.563C217.194 127.642 210.194 127.705 201.557 127.705C192.921 127.705 185.916 127.642 185.916 127.563C185.916 127.484 192.916 127.42 201.557 127.42C210.199 127.42 217.194 127.484 217.194 127.563Z" fill="#263238"/>
<path d="M264.968 137.788C264.968 137.867 236.636 137.931 201.689 137.931C166.742 137.931 138.405 137.867 138.405 137.788C138.405 137.709 166.737 137.651 201.689 137.651C236.641 137.651 264.968 137.714 264.968 137.788Z" fill="#E0E0E0"/>
<path d="M264.968 140.929C264.968 141.003 236.636 141.066 201.689 141.066C166.742 141.066 138.405 141.003 138.405 140.929C138.405 140.855 166.737 140.786 201.689 140.786C236.641 140.786 264.968 140.85 264.968 140.929Z" fill="#E0E0E0"/>
<path d="M224.291 152.458L227.407 155.46L199.054 182.777L186.591 170.769L189.707 167.767L199.054 176.773L224.291 152.458ZM224.291 146.39L199.054 170.705L189.707 161.699L180.293 170.769L199.054 188.845L233.705 155.46L224.291 146.39Z" fill="#50BFD7"/>
<path d="M305.6 152.532C305.6 152.532 303.581 152.093 302.805 151.098C302.023 150.102 301.563 149.663 298.83 148.475C296.118 147.287 295.04 145.749 295.04 145.749C295.04 145.749 293.145 147.486 297.306 149.477C299.853 150.699 291.484 150.521 288.964 150.239C288.964 150.239 287.509 151.036 289.919 152.203C292.328 153.37 290.008 153.459 294.779 155.471C299.544 157.489 305.208 158.547 306.362 155.67C307.515 152.793 305.6 152.532 305.6 152.532Z" fill="white"/>
<path fill-rule="evenodd" clip-rule="evenodd" d="M295.04 145.749L294.855 145.547L295.086 145.335L295.265 145.591L295.265 145.591L295.265 145.591L295.265 145.592L295.265 145.592L295.266 145.593C295.268 145.595 295.27 145.599 295.274 145.603C295.281 145.613 295.292 145.628 295.308 145.648C295.34 145.689 295.389 145.749 295.457 145.827C295.593 145.981 295.804 146.202 296.099 146.46C296.688 146.976 297.612 147.642 298.94 148.223C300.308 148.818 301.127 149.233 301.705 149.632C302.293 150.038 302.623 150.422 303.021 150.928L303.022 150.928L303.022 150.929C303.361 151.364 303.999 151.701 304.593 151.932C304.884 152.046 305.151 152.129 305.347 152.184C305.444 152.211 305.523 152.232 305.577 152.245C305.604 152.252 305.625 152.257 305.639 152.26C305.644 152.261 305.648 152.262 305.651 152.263C305.656 152.264 305.664 152.265 305.672 152.266C305.691 152.27 305.716 152.275 305.747 152.283C305.809 152.299 305.893 152.325 305.989 152.366C306.181 152.448 306.426 152.595 306.629 152.853C307.049 153.386 307.212 154.287 306.617 155.772C306.293 156.58 305.653 157.101 304.828 157.395C304.01 157.687 303.003 157.76 301.905 157.68C299.708 157.52 297.07 156.74 294.672 155.724C292.283 154.717 291.609 154.168 291.244 153.686C291.18 153.601 291.124 153.517 291.076 153.443C291.06 153.418 291.044 153.395 291.03 153.373C290.968 153.281 290.908 153.199 290.826 153.113C290.661 152.942 290.386 152.735 289.799 152.45C289.18 152.151 288.781 151.862 288.543 151.581C288.299 151.293 288.219 151.003 288.268 150.734C288.314 150.48 288.467 150.295 288.586 150.182C288.648 150.124 288.707 150.08 288.751 150.049C288.773 150.034 288.792 150.022 288.806 150.014C288.813 150.01 288.819 150.006 288.823 150.004C288.825 150.002 288.827 150.001 288.829 150L288.831 149.999L288.832 149.999L288.832 149.999C288.832 149.999 288.832 149.999 288.964 150.239L288.832 149.999L288.909 149.957L288.995 149.967C290.24 150.106 292.948 150.22 295.026 150.148C296.075 150.111 296.923 150.027 297.347 149.89C297.379 149.88 297.407 149.87 297.43 149.86C297.375 149.822 297.296 149.777 297.187 149.725C295.081 148.717 294.396 147.722 294.339 146.885C294.311 146.474 294.44 146.141 294.572 145.914C294.638 145.8 294.706 145.711 294.758 145.65C294.784 145.619 294.807 145.595 294.823 145.578C294.832 145.569 294.839 145.562 294.844 145.557C294.847 145.554 294.849 145.552 294.851 145.551L294.853 145.548L294.854 145.548L294.854 145.547C294.855 145.547 294.855 145.547 295.04 145.749ZM297.52 149.938C297.52 149.938 297.52 149.937 297.519 149.937C297.52 149.937 297.52 149.938 297.52 149.938ZM289.033 150.523C289.012 150.539 288.987 150.559 288.963 150.582C288.885 150.655 288.824 150.742 288.808 150.833C288.794 150.909 288.802 151.037 288.962 151.226C289.13 151.423 289.452 151.672 290.038 151.956C290.656 152.255 290.994 152.496 291.222 152.733C291.335 152.851 291.416 152.963 291.485 153.066C291.506 153.097 291.525 153.126 291.543 153.153C291.589 153.223 291.63 153.285 291.682 153.355C291.952 153.712 292.504 154.214 294.886 155.218L294.887 155.218C297.254 156.221 299.83 156.978 301.945 157.132C303.003 157.209 303.925 157.134 304.643 156.878C305.354 156.624 305.854 156.199 306.107 155.568C306.665 154.177 306.447 153.509 306.198 153.193C306.066 153.025 305.904 152.927 305.773 152.871C305.707 152.842 305.651 152.825 305.612 152.816C305.593 152.811 305.578 152.808 305.57 152.806C305.567 152.806 305.566 152.805 305.564 152.805C305.563 152.805 305.562 152.805 305.561 152.804C305.561 152.804 305.56 152.804 305.561 152.804L305.552 152.803L305.541 152.801L305.6 152.533C305.541 152.801 305.541 152.801 305.541 152.801L305.541 152.801L305.54 152.801L305.539 152.8L305.534 152.799C305.529 152.798 305.523 152.797 305.515 152.795C305.499 152.791 305.475 152.786 305.446 152.778C305.386 152.764 305.302 152.742 305.198 152.713C304.99 152.654 304.705 152.565 304.394 152.444C303.785 152.207 303.026 151.827 302.589 151.267C302.204 150.778 301.914 150.444 301.393 150.084C300.862 149.718 300.085 149.32 298.721 148.727L298.72 148.727C297.336 148.12 296.365 147.423 295.737 146.873C295.424 146.599 295.197 146.362 295.046 146.191C294.953 146.352 294.869 146.576 294.887 146.848C294.923 147.378 295.37 148.247 297.425 149.23L297.425 149.23C297.593 149.311 297.733 149.393 297.837 149.48C297.933 149.562 298.041 149.683 298.056 149.848C298.072 150.034 297.965 150.166 297.866 150.243C297.769 150.318 297.644 150.371 297.516 150.413C297.008 150.577 296.084 150.66 295.045 150.697C292.997 150.768 290.346 150.66 289.033 150.523ZM289.097 150.48C289.098 150.479 289.098 150.479 289.098 150.48L289.097 150.48Z" fill="#2C2C2C"/>
<path d="M362.207 168.413C362.207 168.413 356.083 169.133 354.799 169.133C354.785 169.133 354.771 169.133 354.757 169.133C354.751 169.133 354.744 169.133 354.737 169.133C354.73 169.133 354.723 169.133 354.716 169.133C354.703 169.133 354.689 169.133 354.675 169.133C353.384 169.133 347.267 168.413 347.267 168.413C339.104 170.987 339.687 182.899 339.694 183.235C339.749 185.693 339.784 188.158 339.845 190.616C339.99 196.404 341.466 213.739 341.843 219.252C341.871 219.706 341.898 220.083 341.912 220.365C342.53 232.737 343.141 245.108 343.759 257.48C343.814 258.565 343.869 259.657 343.924 260.741C343.924 260.741 346.793 262.526 352.423 260.741L352.471 220.557L354.037 190.698C354.037 190.698 354.325 190.657 354.668 190.623C354.689 190.623 354.709 190.63 354.737 190.63V190.637C354.744 190.637 354.751 190.637 354.757 190.637C354.764 190.637 354.771 190.637 354.778 190.637V190.63C354.799 190.63 354.819 190.623 354.847 190.623C355.19 190.657 355.478 190.698 355.478 190.698L357.044 220.557L357.092 260.741C362.722 262.526 365.591 260.741 365.591 260.741C365.646 259.657 365.701 258.565 365.756 257.48C366.374 245.108 366.978 232.737 367.603 220.365C367.617 220.083 367.637 219.706 367.672 219.252C368.042 213.746 369.525 196.404 369.67 190.616C369.731 188.158 369.766 185.693 369.821 183.235C369.793 182.899 370.37 170.987 362.207 168.413Z" fill="#2C2C2C"/>
<path d="M338.96 136.13C338.96 136.13 333.247 163.813 330.645 165.337C328.551 166.566 312.5 161.341 306.403 159.288C304.954 158.808 304.069 158.492 304.069 158.492L305.119 151.393L308.559 151.86L325.688 154.187C325.688 154.187 331.462 126.059 335.609 125.715C339.763 125.365 338.96 136.13 338.96 136.13Z" fill="#2C2C2C"/>
<path d="M372.526 125.543C372.526 125.543 392.786 145.996 394.118 156.219C394.118 156.219 391.035 162 372.478 173.026L370.823 168.296C370.823 168.296 381.183 156.404 384.781 153.397C384.781 153.397 368.557 139.982 368.935 136.178C369.306 132.361 370.253 125.742 372.526 125.543Z" fill="#2C2C2C"/>
<path d="M380.812 134.132C380.812 138.513 377.943 141.225 373.562 141.225C369.182 141.225 365.633 137.675 365.633 133.295C365.633 128.914 368.942 124.081 373.116 125.392C377.716 126.827 380.812 129.752 380.812 134.132Z" fill="white"/>
<path fill-rule="evenodd" clip-rule="evenodd" d="M368.018 127.387C366.713 128.927 365.907 131.167 365.907 133.295C365.907 137.523 369.334 140.95 373.562 140.95C375.696 140.95 377.435 140.29 378.639 139.124C379.842 137.958 380.538 136.261 380.538 134.132C380.538 129.919 377.572 127.07 373.034 125.655L373.034 125.654C371.083 125.041 369.319 125.851 368.018 127.387ZM373.198 125.13C370.975 124.432 368.997 125.383 367.599 127.032C366.206 128.675 365.358 131.043 365.358 133.295C365.358 137.827 369.03 141.499 373.562 141.499C375.809 141.499 377.695 140.803 379.021 139.518C380.348 138.233 381.087 136.384 381.087 134.132C381.087 129.585 377.86 126.585 373.198 125.13Z" fill="#2C2C2C"/>
<path d="M377.249 132.855C377.249 136.096 375.128 138.101 371.887 138.101C368.647 138.101 366.024 135.478 366.024 132.238C366.024 128.997 368.468 125.42 371.564 126.388C374.956 127.459 377.249 129.622 377.249 132.855Z" fill="#2C2C2C"/>
<path d="M327.604 134.132C327.604 138.513 330.474 141.225 334.854 141.225C339.234 141.225 342.784 137.675 342.784 133.295C342.784 128.914 339.474 124.081 335.3 125.392C330.7 126.827 327.604 129.752 327.604 134.132Z" fill="white"/>
<path fill-rule="evenodd" clip-rule="evenodd" d="M340.817 127.032C342.21 128.675 343.058 131.043 343.058 133.295C343.058 137.827 339.386 141.499 334.854 141.499C332.607 141.499 330.721 140.803 329.395 139.518C328.069 138.233 327.329 136.384 327.329 134.132C327.329 129.585 330.556 126.585 335.218 125.13C337.441 124.432 339.42 125.383 340.817 127.032ZM340.398 127.387C339.097 125.851 337.334 125.041 335.383 125.654L335.382 125.655C330.844 127.07 327.879 129.919 327.879 134.132C327.879 136.261 328.574 137.958 329.778 139.124C330.982 140.29 332.721 140.95 334.854 140.95C339.083 140.95 342.509 137.523 342.509 133.295C342.509 131.167 341.703 128.927 340.398 127.387Z" fill="#2C2C2C"/>
<path d="M331.167 132.855C331.167 136.096 333.289 138.101 336.529 138.101C339.77 138.101 342.393 135.478 342.393 132.238C342.393 128.997 339.948 125.42 336.859 126.388C333.46 127.459 331.167 129.622 331.167 132.855Z" fill="#2C2C2C"/>
<path d="M364.191 169.278C359.234 168.825 354.339 168.639 354.339 168.639C352.54 168.694 348.709 168.852 344.754 169.278C345.908 173.219 349.821 176.123 354.469 176.123C359.124 176.13 363.037 173.212 364.191 169.278Z" fill="#50BFD7"/>
<path d="M363.786 169.689C364.211 168.014 372.732 125.324 372.732 125.324C372.732 125.324 349.993 118.609 335.451 125.324L344.775 170.06L363.786 169.689Z" fill="white"/>
<path fill-rule="evenodd" clip-rule="evenodd" d="M372.809 125.06C372.809 125.06 372.809 125.06 372.732 125.324C373.001 125.377 373.001 125.378 373.001 125.378L373.001 125.379L372.905 125.857C372.843 126.17 372.751 126.63 372.634 127.215C372.4 128.386 372.066 130.06 371.663 132.074C370.858 136.103 369.779 141.491 368.688 146.932C366.506 157.807 364.267 168.91 364.052 169.757L364 169.96L344.552 170.339L335.138 125.166L335.336 125.074C342.677 121.685 352.06 121.692 359.575 122.533C363.338 122.954 366.645 123.585 369.011 124.111C370.194 124.375 371.143 124.611 371.796 124.783C372.122 124.868 372.375 124.938 372.547 124.985C372.632 125.009 372.698 125.028 372.742 125.041C372.764 125.047 372.781 125.052 372.792 125.055L372.805 125.059L372.808 125.06L372.809 125.06ZM372.732 125.324L373.001 125.377L373.05 125.131L372.809 125.06L372.732 125.324ZM372.413 125.518C372.408 125.517 372.404 125.516 372.399 125.514C372.23 125.467 371.98 125.399 371.657 125.314C371.009 125.144 370.068 124.909 368.892 124.648C366.54 124.125 363.253 123.497 359.514 123.079C352.093 122.248 342.936 122.248 335.765 125.482L344.997 169.781L363.567 169.419C363.956 167.674 366.075 157.164 368.149 146.824C369.241 141.383 370.319 135.995 371.124 131.966C371.527 129.952 371.862 128.278 372.095 127.108C372.212 126.522 372.304 126.063 372.367 125.75L372.413 125.518Z" fill="black"/>
<path d="M363.786 169.689C364.211 168.014 372.732 125.324 372.732 125.324C372.732 125.324 349.993 118.609 335.451 125.324L344.775 170.06L363.786 169.689Z" fill="white"/>
<path fill-rule="evenodd" clip-rule="evenodd" d="M372.809 125.06C372.809 125.06 372.809 125.06 372.732 125.324C373.001 125.377 373.001 125.378 373.001 125.378L373.001 125.379L372.905 125.857C372.843 126.17 372.751 126.63 372.634 127.215C372.4 128.386 372.066 130.06 371.663 132.074C370.858 136.103 369.779 141.491 368.688 146.932C366.506 157.807 364.267 168.91 364.052 169.757L364 169.96L344.552 170.339L335.138 125.166L335.336 125.074C342.677 121.685 352.06 121.692 359.575 122.533C363.338 122.954 366.645 123.585 369.011 124.111C370.194 124.375 371.143 124.611 371.796 124.783C372.122 124.868 372.375 124.938 372.547 124.985C372.632 125.009 372.698 125.028 372.742 125.041C372.764 125.047 372.781 125.052 372.792 125.055L372.805 125.059L372.808 125.06L372.809 125.06ZM372.732 125.324L373.001 125.377L373.05 125.131L372.809 125.06L372.732 125.324ZM372.413 125.518C372.408 125.517 372.404 125.516 372.399 125.514C372.23 125.467 371.98 125.399 371.657 125.314C371.009 125.144 370.068 124.909 368.892 124.648C366.54 124.125 363.253 123.497 359.514 123.079C352.093 122.248 342.936 122.248 335.765 125.482L344.997 169.781L363.567 169.419C363.956 167.674 366.075 157.164 368.149 146.824C369.241 141.383 370.319 135.995 371.124 131.966C371.527 129.952 371.862 128.278 372.095 127.108C372.212 126.522 372.304 126.063 372.367 125.75L372.413 125.518Z" fill="#2C2C2C"/>
<path d="M367.205 124.013C360.854 122.736 350.116 121.28 340.889 123.477C341.981 130.363 343.072 137.256 344.164 144.143C345.043 148.811 349.471 151.921 354.092 151.949C358.712 151.921 363.14 148.818 364.019 144.143C365.076 137.428 366.141 130.72 367.205 124.013Z" fill="#50BFD7"/>
<path fill-rule="evenodd" clip-rule="evenodd" d="M340.825 123.21C350.113 120.999 360.9 122.465 367.259 123.743L367.517 123.795L367.476 124.056C366.412 130.763 365.348 137.471 364.291 144.185L364.29 144.189L364.289 144.193C363.382 149.019 358.823 152.195 354.093 152.223L354.092 152.224L354.09 152.223C349.36 152.195 344.801 149.012 343.894 144.193L343.893 144.19L343.893 144.186C343.347 140.743 342.801 137.298 342.255 133.854L342.255 133.853C341.709 130.408 341.164 126.963 340.618 123.52L340.578 123.269L340.825 123.21ZM341.2 123.686C341.733 127.045 342.265 130.406 342.797 133.766L342.798 133.767C343.343 137.21 343.889 140.654 344.434 144.096C345.287 148.612 349.582 151.647 354.092 151.674C358.601 151.647 362.896 148.619 363.749 144.096C364.792 137.47 365.842 130.85 366.892 124.23C360.579 122.98 350.188 121.616 341.2 123.686Z" fill="#2C2C2C"/>
<path d="M353.309 126.449C355.478 126.449 358.849 125.79 358.849 123.628L358.293 116.405L357.806 110.089C357.806 107.919 356.048 106.168 353.885 106.168C352.801 106.168 351.826 106.608 351.112 107.315C350.405 108.022 349.958 109.004 349.958 110.089L349.478 116.412L349.018 122.474C348.393 126.134 353.309 126.449 353.309 126.449Z" fill="#2C2C2C"/>
<path d="M364.678 71.0442C361.808 67.5153 357.799 65.387 352.65 65.387C340.992 65.387 329.602 76.1385 329.602 89.5402C329.602 102.942 339.049 113.81 350.707 113.81C351.826 113.81 352.911 113.707 353.961 113.522C354.071 114.112 354.133 114.716 354.133 115.341C354.133 115.451 354.126 115.568 354.126 115.678C386.25 107.878 380.991 69.0601 364.678 71.0442Z" fill="#2C2C2C"/>
<path d="M337.641 105.599C340.087 105.599 342.07 103.616 342.07 101.171C342.07 98.7249 340.087 96.7423 337.641 96.7423C335.196 96.7423 333.213 98.7249 333.213 101.171C333.213 103.616 335.196 105.599 337.641 105.599Z" fill="white"/>
<path fill-rule="evenodd" clip-rule="evenodd" d="M337.641 97.0169C335.347 97.0169 333.488 98.8766 333.488 101.171C333.488 103.465 335.347 105.324 337.641 105.324C339.935 105.324 341.795 103.465 341.795 101.171C341.795 98.8766 339.935 97.0169 337.641 97.0169ZM332.938 101.171C332.938 98.5732 335.044 96.4677 337.641 96.4677C340.239 96.4677 342.344 98.5732 342.344 101.171C342.344 103.768 340.239 105.874 337.641 105.874C335.044 105.874 332.938 103.768 332.938 101.171Z" fill="#2C2C2C"/>
<path d="M368.825 105.599C371.271 105.599 373.253 103.616 373.253 101.171C373.253 98.7249 371.271 96.7423 368.825 96.7423C366.379 96.7423 364.397 98.7249 364.397 101.171C364.397 103.616 366.379 105.599 368.825 105.599Z" fill="white"/>
<path fill-rule="evenodd" clip-rule="evenodd" d="M368.825 97.0169C366.531 97.0169 364.671 98.8766 364.671 101.171C364.671 103.465 366.531 105.324 368.825 105.324C371.119 105.324 372.979 103.465 372.979 101.171C372.979 98.8766 371.119 97.0169 368.825 97.0169ZM364.122 101.171C364.122 98.5732 366.228 96.4677 368.825 96.4677C371.422 96.4677 373.528 98.5732 373.528 101.171C373.528 103.768 371.422 105.874 368.825 105.874C366.228 105.874 364.122 103.768 364.122 101.171Z" fill="#2C2C2C"/>
<path d="M353.652 119.646C363.158 119.646 370.864 108.737 370.864 95.28C370.864 81.823 363.158 70.9139 353.652 70.9139C344.146 70.9139 336.44 81.823 336.44 95.28C336.44 108.737 344.146 119.646 353.652 119.646Z" fill="white"/>
<path fill-rule="evenodd" clip-rule="evenodd" d="M341.706 78.209C338.627 82.5668 336.715 88.6014 336.715 95.28C336.715 101.959 338.627 107.993 341.706 112.351C344.784 116.709 349.012 119.371 353.652 119.371C358.292 119.371 362.52 116.709 365.599 112.351C368.677 107.993 370.59 101.959 370.59 95.28C370.59 88.6014 368.677 82.5668 365.599 78.209C362.52 73.8505 358.292 71.1885 353.652 71.1885C349.012 71.1885 344.784 73.8505 341.706 78.209ZM341.257 77.8921C344.408 73.4318 348.786 70.6393 353.652 70.6393C358.518 70.6393 362.896 73.4318 366.047 77.8921C369.198 82.3531 371.139 88.5015 371.139 95.28C371.139 102.058 369.198 108.207 366.047 112.668C362.896 117.128 358.518 119.921 353.652 119.921C348.786 119.921 344.408 117.128 341.257 112.668C338.106 108.207 336.165 102.058 336.165 95.28C336.165 88.5015 338.106 82.3531 341.257 77.8921Z" fill="#2C2C2C"/>
<path d="M333.927 89.8768C333.927 89.8768 348.578 90.5908 353.46 81.7754C353.46 81.7754 364.06 90.9478 374.18 90.2338L373.226 86.1831L369.299 78.4387L366.917 75.5826L362.035 70.4608L355.485 67.7214L347.624 68.7925L337.14 75.9396L335.829 80.7043L333.927 89.8768Z" fill="#2C2C2C"/>
<path d="M354.071 104.803C354.078 104.844 353.988 104.919 353.789 104.919C353.597 104.926 353.302 104.837 353.041 104.59C352.911 104.466 352.794 104.315 352.705 104.123C352.691 104.095 352.684 104.068 352.67 104.04L352.657 103.999L352.643 103.965L352.622 103.903C352.615 103.876 352.608 103.841 352.595 103.814C352.567 103.711 352.547 103.601 352.54 103.484C352.499 103.031 352.588 102.571 352.698 102.132C353.123 100.374 353.625 98.9943 353.81 99.0354C353.995 99.0835 353.803 100.539 353.377 102.297C353.268 102.729 353.185 103.12 353.185 103.45C353.185 103.532 353.192 103.615 353.199 103.69L353.206 103.718V103.732V103.738V103.745C353.206 103.745 353.199 103.725 353.206 103.732L353.219 103.8L353.226 103.835L353.233 103.855L353.247 103.896C353.288 104.027 353.35 104.15 353.419 104.246C353.556 104.446 353.721 104.569 353.851 104.638C353.975 104.727 354.064 104.755 354.071 104.803Z" fill="#2C2C2C"/>
<path d="M349.176 96.5706C349.176 98.5273 347.48 100.113 345.393 100.113C343.299 100.113 341.61 98.5273 341.61 96.5706C341.61 94.6139 343.305 93.028 345.393 93.028C347.473 93.028 349.176 94.6139 349.176 96.5706Z" fill="white"/>
<path fill-rule="evenodd" clip-rule="evenodd" d="M345.393 93.3025C343.44 93.3025 341.884 94.7824 341.884 96.5706C341.884 98.3591 343.433 99.8386 345.393 99.8386C347.346 99.8386 348.901 98.3588 348.901 96.5706C348.901 94.7827 347.339 93.3025 345.393 93.3025ZM341.335 96.5706C341.335 94.4454 343.171 92.7533 345.393 92.7533C347.607 92.7533 349.45 94.4451 349.45 96.5706C349.45 98.6958 347.614 100.388 345.393 100.388C343.164 100.388 341.335 98.6954 341.335 96.5706Z" fill="#2C2C2C"/>
<path d="M343.532 96.3512C343.532 97.9646 344.583 99.2759 345.873 99.2759C347.164 99.2759 348.215 97.9646 348.215 96.3512C348.215 94.7378 347.164 93.4264 345.873 93.4264C344.583 93.4196 343.532 94.7309 343.532 96.3512Z" fill="#50BFD7"/>
<path d="M344.212 96.351C344.212 97.4976 344.953 98.4244 345.873 98.4244C346.793 98.4244 347.535 97.4976 347.535 96.351C347.535 95.2045 346.793 94.2708 345.873 94.2708C344.953 94.2708 344.212 95.1976 344.212 96.351Z" fill="#2C2C2C"/>
<path d="M344.109 94.3806C344.109 94.6964 344.493 94.9436 344.967 94.9436C345.441 94.9436 345.825 94.6896 345.825 94.3806C345.825 94.0648 345.441 93.8176 344.967 93.8176C344.493 93.8108 344.109 94.0648 344.109 94.3806Z" fill="white"/>
<path d="M350.254 91.1536C350.254 91.1536 345.146 86.0593 339.653 92.108C339.653 92.108 344.404 89.0665 350.254 91.1536Z" fill="#2C2C2C"/>
<path d="M365.633 96.5706C365.633 98.5273 363.937 100.113 361.85 100.113C359.756 100.113 358.067 98.5273 358.067 96.5706C358.067 94.6139 359.762 93.028 361.85 93.028C363.937 93.028 365.633 94.6139 365.633 96.5706Z" fill="white"/>
<path fill-rule="evenodd" clip-rule="evenodd" d="M361.85 93.3025C359.897 93.3025 358.341 94.7824 358.341 96.5706C358.341 98.3591 359.89 99.8386 361.85 99.8386C363.802 99.8386 365.358 98.3588 365.358 96.5706C365.358 94.7824 363.802 93.3025 361.85 93.3025ZM357.792 96.5706C357.792 94.4454 359.628 92.7533 361.85 92.7533C364.071 92.7533 365.907 94.4454 365.907 96.5706C365.907 98.6958 364.071 100.388 361.85 100.388C359.621 100.388 357.792 98.6954 357.792 96.5706Z" fill="#2C2C2C"/>
<path d="M359.996 96.3512C359.996 97.9646 361.046 99.2759 362.337 99.2759C363.628 99.2759 364.678 97.9646 364.678 96.3512C364.678 94.7378 363.628 93.4264 362.337 93.4264C361.039 93.4196 359.996 94.7309 359.996 96.3512Z" fill="#50BFD7"/>
<path d="M360.669 96.351C360.669 97.4976 361.41 98.4244 362.33 98.4244C363.25 98.4244 363.992 97.4976 363.992 96.351C363.992 95.2045 363.25 94.2708 362.33 94.2708C361.417 94.2708 360.669 95.1976 360.669 96.351Z" fill="#2C2C2C"/>
<path d="M360.566 94.3806C360.566 94.6964 360.95 94.9436 361.424 94.9436C361.898 94.9436 362.282 94.6896 362.282 94.3806C362.282 94.0648 361.898 93.8176 361.424 93.8176C360.95 93.8108 360.566 94.0648 360.566 94.3806Z" fill="white"/>
<path d="M366.717 90.5975C366.717 90.5975 361.609 85.5032 356.117 91.5518C356.11 91.5518 360.861 88.5103 366.717 90.5975Z" fill="#2C2C2C"/>
<path d="M348.063 108.695C348.235 110.027 348.88 111.256 349.889 112.149C350.899 113.041 352.196 113.529 353.542 113.529C354.888 113.529 356.185 113.041 357.195 112.149C358.204 111.256 358.856 110.034 359.021 108.695H348.063Z" fill="white"/>
<path fill-rule="evenodd" clip-rule="evenodd" d="M347.751 108.421H359.332L359.294 108.729C359.121 110.135 358.435 111.418 357.377 112.354C356.317 113.292 354.954 113.803 353.542 113.803C352.13 113.803 350.768 113.292 349.708 112.354C348.648 111.417 347.971 110.128 347.791 108.73L347.751 108.421ZM348.385 108.97C348.602 110.116 349.191 111.165 350.072 111.943C351.03 112.791 352.263 113.254 353.542 113.254C354.821 113.254 356.054 112.791 357.013 111.943C357.895 111.163 358.489 110.12 358.701 108.97H348.385Z" fill="#2C2C2C"/>
<path d="M358.808 172.25C358.808 172.422 358.959 172.621 359.138 172.6C361.163 172.388 362.715 170.822 364.713 171.152C362.708 172.147 360.971 173.877 361.218 176.425C361.246 176.74 361.548 176.864 361.781 176.672C363.216 175.45 364.864 174.358 366.786 174.763C367.61 174.935 368.578 175.257 369.429 175.148C370.699 174.99 371.771 174.413 372.402 173.184C373.514 171.056 373.102 168.502 370.61 167.973C370.548 167.959 370.5 167.966 370.445 167.987C369.525 167.623 368.688 167.163 367.946 166.36C367.232 165.577 366.566 164.712 365.791 163.991C364.754 163.023 363.628 162.261 362.255 162.913C362.049 163.009 362.063 163.304 362.193 163.462C362.797 164.211 363.504 164.925 364.246 165.611C363.504 165.44 362.756 165.35 361.987 165.412C360.614 165.529 358.994 166.442 359.028 168.076C359.035 168.282 359.179 168.406 359.357 168.426C360.621 168.557 361.891 168.536 363.147 168.666C361.191 169.243 358.788 169.902 358.808 172.25Z" fill="white"/>
<path fill-rule="evenodd" clip-rule="evenodd" d="M364.25 162.589C364.882 162.839 365.454 163.301 365.978 163.79C366.503 164.278 366.987 164.84 367.457 165.386C367.69 165.656 367.92 165.923 368.149 166.174C368.831 166.912 369.6 167.349 370.464 167.698C370.526 167.688 370.594 167.688 370.668 167.705C372.013 167.99 372.819 168.835 373.122 169.904C373.421 170.956 373.226 172.199 372.646 173.31C371.964 174.636 370.803 175.253 369.464 175.42C368.995 175.48 368.506 175.421 368.045 175.33C367.813 175.285 367.583 175.231 367.363 175.178C367.34 175.173 367.316 175.167 367.293 175.161C367.097 175.114 366.91 175.069 366.73 175.032L366.729 175.032C364.947 174.656 363.393 175.66 361.959 176.881L361.957 176.882L361.956 176.884C361.769 177.038 361.527 177.082 361.314 176.991C361.101 176.9 360.966 176.694 360.945 176.45C360.721 174.14 362.036 172.482 363.695 171.413C363.143 171.488 362.605 171.688 362.042 171.926C361.917 171.979 361.79 172.034 361.662 172.089C360.9 172.421 360.078 172.778 359.168 172.873C358.962 172.896 358.798 172.791 358.699 172.678C358.601 172.566 358.534 172.411 358.534 172.252C358.523 170.958 359.19 170.128 360.09 169.562C360.564 169.263 361.111 169.033 361.666 168.839C361.525 168.833 361.384 168.827 361.243 168.821L361.237 168.82C360.608 168.793 359.968 168.765 359.329 168.699L359.328 168.699L359.326 168.699C359.032 168.665 358.765 168.446 358.753 168.085L358.753 168.083L358.753 168.082C358.734 167.161 359.185 166.447 359.811 165.959C360.431 165.474 361.232 165.201 361.964 165.138L361.964 165.138L361.965 165.138C362.45 165.099 362.925 165.118 363.393 165.178C362.889 164.681 362.41 164.168 361.98 163.636C361.87 163.501 361.814 163.32 361.824 163.149C361.834 162.972 361.92 162.767 362.138 162.665C362.899 162.303 363.603 162.334 364.25 162.589ZM362.375 163.16C362.374 163.163 362.372 163.17 362.372 163.18C362.371 163.197 362.373 163.218 362.38 163.24C362.387 163.262 362.397 163.278 362.405 163.287L362.406 163.289L362.407 163.29C362.999 164.024 363.696 164.728 364.432 165.41L365.191 166.112L364.184 165.879C363.462 165.712 362.743 165.627 362.01 165.686C361.369 165.74 360.673 165.982 360.149 166.391C359.63 166.797 359.288 167.356 359.302 168.068C359.304 168.104 359.315 168.119 359.322 168.126C359.332 168.136 359.352 168.149 359.388 168.153C360.009 168.217 360.634 168.244 361.267 168.272L361.269 168.272C361.899 168.299 362.539 168.327 363.176 168.393L364.558 168.537L363.225 168.93C363.191 168.94 363.156 168.95 363.122 168.96C362.162 169.243 361.159 169.538 360.383 170.027C359.597 170.521 359.074 171.194 359.083 172.248L359.083 172.249V172.25C359.083 172.254 359.084 172.264 359.09 172.279C359.095 172.293 359.104 172.306 359.113 172.317C359.116 172.321 359.12 172.324 359.122 172.326C359.937 172.238 360.669 171.921 361.43 171.591C361.562 171.534 361.695 171.476 361.829 171.42C362.724 171.041 363.675 170.702 364.757 170.881L365.597 171.019L364.835 171.398C362.873 172.372 361.26 174.018 361.491 176.398L361.492 176.399L361.492 176.401C361.495 176.438 361.505 176.459 361.512 176.47C361.519 176.48 361.526 176.484 361.53 176.486C361.535 176.488 361.542 176.49 361.552 176.488C361.563 176.486 361.581 176.48 361.605 176.461C363.041 175.239 364.781 174.06 366.842 174.494C367.031 174.534 367.226 174.58 367.421 174.627C367.444 174.633 367.468 174.638 367.491 174.644C367.711 174.697 367.931 174.748 368.15 174.791C368.592 174.878 369.012 174.924 369.394 174.875L369.395 174.875L369.395 174.875C370.597 174.726 371.577 174.189 372.158 173.058L372.158 173.058L372.159 173.057C372.69 172.04 372.846 170.942 372.594 170.054C372.346 169.181 371.7 168.485 370.553 168.242L370.552 168.241L370.551 168.241C370.55 168.241 370.55 168.241 370.55 168.241C370.548 168.242 370.546 168.242 370.542 168.244L370.443 168.281L370.344 168.242C369.402 167.869 368.524 167.39 367.745 166.546L367.744 166.545L367.743 166.545C367.491 166.268 367.25 165.988 367.012 165.712C366.555 165.181 366.107 164.66 365.604 164.192L365.603 164.192C365.09 163.713 364.58 163.31 364.048 163.1C363.53 162.895 362.986 162.871 362.375 163.16Z" fill="#2C2C2C"/>
<path d="M340.539 268.493C340.539 268.493 340.944 269.777 341.061 269.976C341.184 270.175 344.335 271.26 348.18 271.177C352.176 271.095 354.002 269.935 354.057 268.486H340.539V268.493Z" fill="#50BFD7"/>
<path fill-rule="evenodd" clip-rule="evenodd" d="M340.264 268.211H354.342L354.332 268.496C354.299 269.354 353.738 270.08 352.719 270.59C351.705 271.097 350.204 271.41 348.186 271.452M340.264 268.211V268.486V268.211ZM340.539 268.493L340.277 268.575L340.264 268.535V268.486M340.539 268.493C340.277 268.575 340.277 268.575 340.277 268.575L340.282 268.59C340.285 268.6 340.289 268.614 340.295 268.632C340.306 268.667 340.323 268.719 340.343 268.781C340.383 268.905 340.437 269.073 340.496 269.247C340.554 269.421 340.616 269.603 340.672 269.755C340.724 269.896 340.779 270.039 340.824 270.115L340.825 270.118L340.827 270.121C340.855 270.165 340.889 270.195 340.908 270.21C340.93 270.228 340.954 270.244 340.975 270.257C341.019 270.284 341.072 270.311 341.129 270.337C341.246 270.391 341.404 270.453 341.595 270.519C341.979 270.651 342.515 270.805 343.165 270.95C344.466 271.24 346.237 271.494 348.186 271.452M340.913 268.761H353.743C353.624 269.25 353.234 269.718 352.474 270.098C351.562 270.554 350.152 270.862 348.175 270.903L348.174 270.903C346.278 270.943 344.552 270.696 343.285 270.414C342.651 270.273 342.136 270.124 341.774 269.999C341.592 269.937 341.453 269.882 341.359 269.838C341.324 269.822 341.298 269.809 341.279 269.799C341.273 269.785 341.266 269.769 341.259 269.751C341.238 269.701 341.214 269.638 341.188 269.566C341.135 269.421 341.074 269.244 341.016 269.072C340.98 268.963 340.944 268.856 340.913 268.761Z" fill="#2C2C2C"/>
<path d="M340.539 268.767C341.143 269.31 341.932 269.722 342.509 269.907C343.944 270.381 345.516 270.559 347.02 270.642C348.62 270.724 350.377 270.697 351.874 270.065C352.684 269.722 353.371 269.221 354.009 268.651C354.297 267.944 354.373 267.14 354.352 266.316C354.304 264.833 353.968 263.398 353.707 261.943C353.666 261.73 353.631 261.524 353.597 261.318C353.522 260.371 353.453 259.416 353.391 258.476C353.371 258.126 353.329 257.817 353.336 257.467C353.343 257.233 353.426 256.856 353.364 256.636C353.357 256.608 353.343 256.588 353.336 256.567C353.336 256.533 353.343 256.499 353.336 256.464C353.068 256.245 352.787 256.039 352.464 255.949C352.231 255.99 351.997 256.066 351.846 256.128C351.606 256.224 351.393 256.347 351.201 256.492C350.727 255.846 349.56 255.544 348.901 255.517C347.871 255.476 346.498 255.654 345.681 256.409C345.544 256.279 345.331 256.21 345.146 256.176C345.104 256.169 345.056 256.162 345.015 256.155C344.535 256.341 344.658 257.522 344.61 257.858C344.541 258.304 344.473 258.75 344.363 259.183C344.143 260.014 343.827 260.776 343.347 261.49C342.832 262.259 342.159 262.925 341.569 263.632C341.486 263.776 341.397 263.92 341.315 264.058C340.683 265.074 340.168 266.55 340.305 267.758C340.347 268.143 340.429 268.472 340.539 268.767Z" fill="#50BFD7"/>
<path fill-rule="evenodd" clip-rule="evenodd" d="M347.149 255.397C347.752 255.256 348.378 255.221 348.912 255.242L348.912 255.242C349.271 255.257 349.756 255.346 350.215 255.515C350.585 255.651 350.965 255.849 351.247 256.127C351.4 256.03 351.565 255.945 351.743 255.873C351.91 255.805 352.161 255.724 352.417 255.679L352.478 255.668L352.537 255.685C352.921 255.791 353.241 256.03 353.51 256.252L353.586 256.314L353.606 256.41C353.614 256.453 353.614 256.492 353.614 256.517C353.619 256.531 353.624 256.547 353.629 256.565C353.674 256.729 353.663 256.923 353.649 257.071C353.643 257.14 353.636 257.201 353.63 257.256C353.621 257.339 353.613 257.409 353.611 257.473C353.606 257.698 353.622 257.895 353.64 258.114C353.649 258.222 353.658 258.335 353.665 258.459C353.727 259.394 353.795 260.343 353.87 261.285C353.904 261.487 353.937 261.686 353.977 261.891L353.977 261.893L353.977 261.894C354.031 262.194 354.089 262.496 354.146 262.799C354.365 263.946 354.588 265.113 354.627 266.307L354.627 266.308L354.627 266.309C354.648 267.151 354.572 267.997 354.263 268.754L354.239 268.813L354.192 268.856C353.541 269.437 352.829 269.959 351.981 270.318L351.981 270.318C350.422 270.976 348.61 270.999 347.006 270.916L347.005 270.916C345.493 270.833 343.893 270.653 342.424 270.168C341.814 269.972 340.99 269.542 340.355 268.972L340.305 268.927L340.281 268.863C340.164 268.547 340.076 268.195 340.032 267.788C339.886 266.497 340.431 264.959 341.08 263.914C341.104 263.874 341.129 263.834 341.153 263.794C341.213 263.694 341.273 263.596 341.33 263.496L341.342 263.475L341.358 263.456C341.561 263.213 341.766 262.982 341.969 262.754C342.381 262.291 342.78 261.842 343.119 261.337L343.119 261.336C343.579 260.653 343.884 259.921 344.097 259.114C344.203 258.697 344.269 258.265 344.338 257.818C344.347 257.758 344.348 257.653 344.351 257.494L344.351 257.471C344.354 257.311 344.358 257.116 344.377 256.923C344.396 256.733 344.43 256.528 344.501 256.35C344.571 256.175 344.694 255.985 344.916 255.899L344.986 255.872L345.06 255.884C345.079 255.887 345.099 255.891 345.122 255.894L345.123 255.894C345.145 255.898 345.168 255.901 345.191 255.905L345.193 255.905L345.196 255.906C345.332 255.931 345.506 255.977 345.665 256.063C346.094 255.728 346.62 255.52 347.149 255.397ZM347.274 255.932C346.727 256.059 346.229 256.277 345.867 256.611L345.678 256.786L345.492 256.608C345.414 256.535 345.268 256.478 345.098 256.446C345.09 256.445 345.082 256.444 345.074 256.442C345.055 256.463 345.033 256.498 345.011 256.554C344.968 256.661 344.94 256.806 344.924 256.977C344.907 257.145 344.903 257.319 344.901 257.481C344.9 257.495 344.9 257.51 344.9 257.524C344.898 257.66 344.896 257.801 344.882 257.897L344.882 257.898L344.88 257.906C344.812 258.348 344.742 258.805 344.629 259.251L344.629 259.252L344.628 259.253C344.402 260.107 344.076 260.899 343.575 261.643C343.216 262.179 342.773 262.677 342.347 263.156C342.157 263.37 341.969 263.581 341.795 263.79C341.737 263.889 341.676 263.99 341.619 264.085C341.595 264.124 341.572 264.162 341.55 264.199L341.549 264.201L341.548 264.203C340.934 265.189 340.45 266.603 340.578 267.727L340.578 267.728L340.578 267.729C340.614 268.063 340.683 268.35 340.773 268.608C341.339 269.1 342.066 269.476 342.593 269.646L342.594 269.646L342.595 269.646C343.996 270.109 345.539 270.285 347.034 270.367C348.629 270.45 350.332 270.418 351.767 269.812C352.52 269.493 353.167 269.029 353.778 268.489C354.027 267.845 354.097 267.106 354.078 266.324C354.041 265.178 353.828 264.065 353.611 262.924C353.552 262.616 353.493 262.306 353.437 261.993C353.395 261.778 353.361 261.57 353.327 261.366L353.324 261.352L353.323 261.34C353.248 260.391 353.179 259.436 353.117 258.494L353.117 258.493L353.117 258.492C353.111 258.393 353.103 258.293 353.095 258.19C353.076 257.957 353.057 257.714 353.062 257.461L353.062 257.46L353.062 257.458C353.064 257.374 353.076 257.262 353.088 257.16C353.093 257.11 353.098 257.062 353.102 257.021C353.116 256.87 353.115 256.769 353.1 256.713C353.099 256.711 353.099 256.71 353.097 256.707C353.096 256.704 353.094 256.7 353.092 256.695C353.088 256.686 353.082 256.672 353.076 256.654L353.062 256.612V256.596C352.854 256.432 352.657 256.301 352.449 256.232C352.259 256.271 352.073 256.332 351.95 256.382L351.949 256.382L351.948 256.383C351.732 256.469 351.54 256.581 351.366 256.711L351.144 256.878L350.98 256.654C350.789 256.395 350.439 256.182 350.026 256.03C349.618 255.88 349.19 255.804 348.89 255.791C348.394 255.771 347.818 255.805 347.274 255.932Z" fill="#2C2C2C"/>
<path d="M370.301 268.493C370.301 268.493 369.903 269.777 369.779 269.976C369.656 270.175 366.504 271.26 362.66 271.177C358.664 271.095 356.838 269.935 356.783 268.486H370.301V268.493Z" fill="#50BFD7"/>
<path fill-rule="evenodd" clip-rule="evenodd" d="M356.498 268.211H370.576V268.534L370.564 268.574L370.301 268.493C370.564 268.574 370.564 268.574 370.564 268.574L370.563 268.574L370.563 268.574L370.559 268.589C370.556 268.599 370.552 268.613 370.546 268.631C370.535 268.666 370.519 268.718 370.499 268.78C370.459 268.904 370.405 269.072 370.347 269.246C370.289 269.42 370.227 269.603 370.171 269.755C370.119 269.895 370.061 270.042 370.013 270.121C369.985 270.165 369.951 270.195 369.932 270.21C369.91 270.228 369.886 270.244 369.865 270.257C369.821 270.284 369.768 270.311 369.711 270.337C369.594 270.391 369.436 270.453 369.245 270.519C368.861 270.651 368.325 270.805 367.675 270.95C366.374 271.24 364.603 271.494 362.654 271.452M369.928 268.761H357.097C357.216 269.25 357.606 269.718 358.366 270.098C359.278 270.554 360.688 270.862 362.665 270.903L362.666 270.903C364.562 270.943 366.288 270.696 367.555 270.414C368.189 270.273 368.704 270.124 369.066 269.999C369.248 269.937 369.387 269.882 369.481 269.838C369.517 269.822 369.544 269.808 369.563 269.798C369.569 269.784 369.576 269.768 369.584 269.749C369.605 269.7 369.629 269.637 369.655 269.565C369.709 269.421 369.769 269.245 369.826 269.073C369.863 268.963 369.898 268.856 369.928 268.761ZM356.498 268.211L356.508 268.496L356.498 268.211ZM356.508 268.496C356.541 269.354 357.102 270.08 358.121 270.59L356.508 268.496ZM358.121 270.59C359.135 271.097 360.636 271.41 362.654 271.452L358.121 270.59Z" fill="#2C2C2C"/>
<path d="M370.301 268.767C369.697 269.31 368.907 269.722 368.331 269.907C366.896 270.381 365.324 270.559 363.82 270.642C362.22 270.724 360.463 270.697 358.966 270.065C358.156 269.722 357.469 269.221 356.831 268.651C356.542 267.944 356.467 267.14 356.488 266.316C356.536 264.833 356.872 263.398 357.133 261.943C357.174 261.73 357.208 261.524 357.243 261.318C357.318 260.371 357.387 259.416 357.449 258.476C357.476 258.126 357.511 257.817 357.504 257.467C357.497 257.233 357.414 256.856 357.476 256.636C357.483 256.608 357.497 256.588 357.504 256.567C357.504 256.533 357.497 256.499 357.504 256.464C357.771 256.245 358.046 256.039 358.376 255.949C358.609 255.99 358.842 256.066 358.994 256.128C359.234 256.224 359.447 256.347 359.639 256.492C360.113 255.846 361.28 255.544 361.939 255.517C362.969 255.476 364.342 255.654 365.159 256.409C365.296 256.279 365.509 256.21 365.694 256.176C365.736 256.169 365.784 256.162 365.825 256.155C366.305 256.341 366.182 257.522 366.23 257.858C366.299 258.304 366.367 258.75 366.477 259.183C366.697 260.014 367.013 260.776 367.493 261.49C368.008 262.259 368.681 262.925 369.271 263.632C369.354 263.776 369.443 263.92 369.525 264.058C370.157 265.074 370.672 266.55 370.535 267.758C370.493 268.143 370.418 268.472 370.301 268.767Z" fill="#50BFD7"/>
<path fill-rule="evenodd" clip-rule="evenodd" d="M363.566 255.932C363.021 255.805 362.446 255.771 361.95 255.791C361.65 255.804 361.221 255.88 360.814 256.03C360.401 256.182 360.05 256.395 359.86 256.654L359.696 256.878L359.474 256.711C359.3 256.581 359.108 256.469 358.891 256.383L358.89 256.382L358.889 256.382C358.767 256.332 358.58 256.27 358.39 256.232C358.179 256.301 357.987 256.43 357.778 256.595V256.612L357.764 256.654C357.758 256.672 357.752 256.686 357.748 256.695C357.746 256.7 357.744 256.704 357.743 256.707C357.742 256.708 357.742 256.709 357.741 256.71C357.741 256.711 357.74 256.712 357.74 256.713C357.725 256.769 357.724 256.87 357.738 257.021C357.741 257.062 357.747 257.11 357.752 257.16C357.763 257.262 357.776 257.374 357.778 257.458L357.778 257.46L357.778 257.461C357.784 257.761 357.761 258.035 357.738 258.31C357.733 258.372 357.727 258.434 357.723 258.496C357.661 259.437 357.592 260.392 357.516 261.34L357.516 261.352L357.513 261.366C357.479 261.57 357.445 261.778 357.403 261.993C357.347 262.306 357.288 262.616 357.229 262.924C357.011 264.065 356.799 265.178 356.762 266.324C356.743 267.106 356.813 267.845 357.062 268.489C357.673 269.029 358.32 269.493 359.073 269.812C360.508 270.418 362.211 270.45 363.806 270.367C365.301 270.285 366.844 270.109 368.245 269.646L368.246 269.646L368.247 269.646C368.775 269.476 369.502 269.099 370.069 268.606C370.162 268.354 370.225 268.067 370.262 267.729L370.262 267.728L370.262 267.727C370.389 266.603 369.906 265.189 369.292 264.203L369.291 264.201L369.29 264.199C369.268 264.162 369.245 264.124 369.221 264.085C369.163 263.99 369.103 263.889 369.045 263.79C368.871 263.581 368.683 263.37 368.492 263.156C368.067 262.677 367.624 262.179 367.265 261.643C366.764 260.899 366.437 260.107 366.212 259.253L366.211 259.252L366.211 259.251C366.098 258.805 366.027 258.348 365.959 257.906L365.958 257.898L365.958 257.897C365.944 257.801 365.942 257.661 365.94 257.524C365.94 257.51 365.94 257.495 365.939 257.481C365.937 257.319 365.933 257.145 365.916 256.977C365.9 256.806 365.872 256.661 365.829 256.554C365.807 256.498 365.785 256.463 365.766 256.442C365.758 256.444 365.75 256.445 365.742 256.446C365.572 256.478 365.426 256.535 365.348 256.608L365.161 256.786L364.972 256.611C364.611 256.277 364.113 256.059 363.566 255.932ZM365.175 256.063C364.746 255.728 364.22 255.52 363.691 255.397C363.088 255.256 362.461 255.221 361.928 255.242L361.927 255.242C361.569 255.257 361.084 255.346 360.624 255.515C360.255 255.651 359.875 255.849 359.593 256.127C359.44 256.03 359.275 255.945 359.096 255.873C358.93 255.805 358.678 255.724 358.423 255.679L358.363 255.668L358.304 255.684C357.912 255.79 357.598 256.032 357.329 256.252L357.254 256.314L357.234 256.41C357.226 256.453 357.225 256.492 357.226 256.517C357.221 256.531 357.216 256.547 357.211 256.565C357.166 256.728 357.177 256.923 357.191 257.071C357.197 257.14 357.204 257.201 357.21 257.256C357.219 257.339 357.227 257.409 357.229 257.473C357.234 257.742 357.214 257.982 357.191 258.254C357.186 258.319 357.18 258.385 357.175 258.454L357.175 258.456L357.175 258.458C357.113 259.393 357.045 260.342 356.97 261.285C356.936 261.487 356.903 261.686 356.863 261.891L356.863 261.893L356.863 261.894C356.809 262.194 356.751 262.496 356.694 262.799C356.475 263.946 356.252 265.113 356.213 266.307L356.213 266.308L356.213 266.309C356.192 267.151 356.268 267.997 356.577 268.754L356.601 268.813L356.648 268.856C357.299 269.437 358.011 269.959 358.859 270.318L358.859 270.318C360.418 270.976 362.23 270.999 363.834 270.916L363.835 270.916C365.347 270.833 366.947 270.653 368.416 270.168C369.026 269.972 369.85 269.542 370.485 268.972L370.533 268.929L370.557 268.868C370.684 268.546 370.764 268.191 370.808 267.788C370.954 266.497 370.409 264.96 369.76 263.914C369.736 263.874 369.711 263.834 369.687 263.795C369.627 263.695 369.567 263.596 369.51 263.496L369.498 263.475L369.482 263.456C369.279 263.213 369.074 262.982 368.871 262.754C368.459 262.291 368.06 261.842 367.721 261.337L367.721 261.336C367.261 260.653 366.956 259.921 366.743 259.114C366.637 258.697 366.57 258.265 366.502 257.818C366.493 257.758 366.491 257.653 366.489 257.494L366.488 257.471C366.486 257.311 366.482 257.116 366.463 256.923C366.444 256.733 366.41 256.528 366.339 256.35C366.269 256.175 366.145 255.985 365.924 255.899L365.854 255.872L365.78 255.884C365.761 255.887 365.74 255.891 365.718 255.894L365.717 255.894C365.695 255.898 365.671 255.901 365.649 255.905L365.647 255.905L365.644 255.906C365.508 255.931 365.334 255.977 365.175 256.063ZM357.247 256.47C357.247 256.47 357.247 256.47 357.247 256.47V256.47Z" fill="#2C2C2C"/>
<path fill-rule="evenodd" clip-rule="evenodd" d="M336.097 93.9893V94.1266H335.547V93.9893H336.097Z" fill="#2C2C2C"/>
<path fill-rule="evenodd" clip-rule="evenodd" d="M338.98 95.4994V95.6367H338.431V95.4994H338.98Z" fill="#2C2C2C"/>
<path d="M354.592 94.6894C355.533 94.8886 355.183 95.4996 355.183 95.5888C355.183 95.6781 355.533 100.759 360.071 102.097C364.609 103.436 367.328 100.807 368.118 99.4885C368.907 98.1703 369.566 95.0396 369.759 94.7993C369.958 94.559 370.898 94.1402 370.898 94.1402L371.008 92.9113L369.827 92.5611C369.827 92.5611 366.848 91.2017 362.46 91.1399C358.08 91.0713 355.602 93.5978 355.602 93.5978C354.366 93.2065 352.835 93.1515 351.434 93.5978C351.434 93.5978 348.956 91.0781 344.576 91.1399C340.195 91.2086 337.209 92.5611 337.209 92.5611L336.028 92.9113L336.138 94.1402C336.138 94.1402 337.078 94.559 337.277 94.7993C337.476 95.0396 338.129 98.1772 338.918 99.4885C339.708 100.807 342.427 103.436 346.965 102.097C351.503 100.759 351.853 95.6781 351.853 95.5888C351.853 95.4996 351.503 94.8886 352.444 94.6894C353.267 94.5178 353.775 94.5178 354.592 94.6894ZM365.488 101.047C362.028 103.127 357.881 101.026 356.632 98.287C355.382 95.5476 356.432 94.099 356.432 94.099C358.52 90.6937 366.951 90.5495 368.399 94.2295C368.646 94.8474 368.948 98.9667 365.488 101.047ZM338.637 94.2295C340.085 90.5426 348.516 90.6937 350.604 94.099C350.604 94.099 351.654 95.5476 350.404 98.287C349.155 101.026 345.015 103.127 341.548 101.047C338.094 98.9667 338.396 94.8474 338.637 94.2295Z" fill="#2C2C2C"/>
<path d="M356.721 131.558H351.448C350.048 131.558 348.908 132.698 348.908 134.098V139.371C348.908 140.772 350.048 141.911 351.448 141.911H356.721C358.122 141.911 359.261 140.772 359.261 139.371V134.098C359.261 132.698 358.122 131.558 356.721 131.558ZM347.5 129.313C346.697 129.313 346.045 129.965 346.045 130.769C346.045 131.572 346.697 132.224 347.5 132.224C348.304 132.224 348.956 131.572 348.956 130.769C348.956 129.965 348.304 129.313 347.5 129.313Z" fill="white"/>
<path d="M356.343 134.702C356.007 133.803 355.149 133.205 354.188 133.205H352.76L355.581 140.359H358.609L356.343 134.702ZM350.583 138.307L349.759 140.359H352.766L354.167 136.81H352.739C351.778 136.81 350.913 137.407 350.583 138.307ZM351.05 134.984C351.544 134.984 351.949 134.579 351.949 134.084C351.949 133.59 351.544 133.185 351.05 133.185C350.556 133.185 350.151 133.59 350.151 134.084C350.151 134.579 350.549 134.984 351.05 134.984Z" fill="#50BFD7"/>
</svg>
