<svg width="467" height="382" viewBox="0 0 467 382" fill="none" xmlns="http://www.w3.org/2000/svg">
<path d="M446.33 189.697C451.083 157.94 446.966 125.801 427.165 98.3767C404.468 66.9887 368.518 44.8077 330.303 38.5148C323.494 37.3862 316.607 36.7926 309.706 36.7395C293.233 36.6275 276.855 39.2375 261.234 44.4641C234.859 53.3721 212.188 68.8912 191.687 87.4135C182.582 95.6343 173.693 106.184 161.635 110.002C149.12 113.998 135.656 108.856 123.458 105.713C100.596 99.8211 67.0385 87.0954 44.2594 99.1848C14.3539 115.092 5.44587 150.088 16.899 177.448C28.3522 204.809 63.3481 206.717 67.1658 227.715C70.9835 248.712 89.4359 279.891 129.522 276.709C169.608 273.528 184.879 239.168 210.331 249.349C219.283 252.931 226.314 259.529 233.93 265.199C244.537 273.114 256.041 278.503 269.098 280.985C287.767 284.535 308.153 282.658 327 281.755C348.634 280.711 371.909 281.507 392.913 273.948C415.463 265.822 429.703 248.019 437.345 225.698C441.421 213.993 444.428 201.944 446.33 189.697Z" fill="#CAECF3"/>
<path d="M283.006 270.738H386.995C388.982 270.738 390.888 269.948 392.293 268.543C393.698 267.138 394.488 265.233 394.488 263.246V70.8497C394.488 68.8627 393.698 66.9571 392.293 65.552C390.888 64.147 388.982 63.3577 386.995 63.3577H86.1146C84.1276 63.3577 82.222 64.147 80.8169 65.552C79.4119 66.9571 78.6226 68.8627 78.6226 70.8497V263.246C78.6226 265.233 79.4119 267.138 80.8169 268.543C82.222 269.948 84.1276 270.738 86.1146 270.738H190.104" stroke="black" stroke-linecap="round" stroke-linejoin="round"/>
<path d="M387.298 71.7488H85.218V248.561H387.298V71.7488Z" stroke="black" stroke-linecap="round" stroke-linejoin="round"/>
<path d="M283.007 270.738H190.106V291.686H283.007V270.738Z" stroke="black" stroke-linecap="round" stroke-linejoin="round"/>
<path d="M283.008 291.686H299.191V299.681H173.924V291.686H190.106" stroke="black" stroke-linecap="round" stroke-linejoin="round"/>
<path d="M54.5354 299.681H41.3494" stroke="#2C2C2C" stroke-width="0.75" stroke-miterlimit="10" stroke-linecap="round"/>
<path d="M388.38 299.681H61.7261" stroke="#2C2C2C" stroke-width="0.75" stroke-miterlimit="10" stroke-linecap="round"/>
<path d="M413.553 299.681H392.576" stroke="#2C2C2C" stroke-width="0.75" stroke-miterlimit="10" stroke-linecap="round"/>
<path d="M402.41 231.245L411.684 216.964L355.497 180.476L346.222 194.757L402.41 231.245Z" fill="#C7C7C7"/>
<path d="M448.02 266.06L462.045 244.46L403.849 206.659L389.823 228.26L448.02 266.06Z" fill="#2C2C2C"/>
<path d="M356.033 142.55L356.059 142.943L356.1 143.544C356.153 144.289 356.203 145.021 356.221 145.735C356.281 145.959 356.238 146.197 356.233 146.425C356.331 150.005 356.129 153.587 355.627 157.133C355.594 157.408 355.561 157.683 355.513 157.949C354.866 162.245 353.794 166.466 352.311 170.551L352.126 171.053C348.818 179.944 343.647 188.026 336.96 194.756L336.522 195.207C332.579 199.09 328.172 202.471 323.401 205.274L321.599 206.302C315.783 209.488 309.516 211.769 303.013 213.067L302.566 213.187C299.85 213.712 297.104 214.07 294.344 214.258C293.456 214.323 292.562 214.363 291.71 214.364C290.858 214.366 290.132 214.388 289.345 214.385C282.179 214.346 275.067 213.135 268.292 210.799C267.94 210.68 267.561 210.556 267.203 210.412C265.819 209.917 264.458 209.363 263.113 208.765L262.415 208.446C257.096 206.026 252.123 202.907 247.627 199.173L246.994 198.65C246.722 198.43 246.46 198.194 246.2 197.971C241.71 194.048 237.762 189.545 234.463 184.579C234.219 184.218 233.989 183.853 233.745 183.439C232.387 181.298 231.149 179.082 230.036 176.804C229.976 176.58 229.845 176.389 229.735 176.178C226.238 168.7 224.163 160.637 223.617 152.399L223.564 151.508L223.537 150.809C223.002 139.122 225.593 127.502 231.041 117.148C233.487 112.523 236.461 108.196 239.903 104.255C241.189 102.827 242.538 101.432 243.948 100.069C251.401 92.9371 260.412 87.6381 270.267 84.5911C280.122 81.5441 290.551 80.8327 300.729 82.5133C310.907 84.1939 320.554 88.2203 328.906 94.2738C337.259 100.327 344.088 108.242 348.853 117.391C348.922 117.503 348.98 117.621 349.027 117.744C352.974 125.47 355.355 133.9 356.033 142.55Z" fill="white"/>
<path d="M323.399 205.274L321.597 206.303L291.657 214.325C290.865 214.351 290.079 214.349 289.293 214.346L302.424 210.828L323.399 205.274Z" fill="#EBEBEB"/>
<path d="M327.921 150.096C328.081 150.693 328.06 151.324 327.861 151.909C327.663 152.495 327.295 153.008 326.805 153.384C326.314 153.761 325.723 153.983 325.106 154.023C324.49 154.064 323.875 153.92 323.339 153.611C322.804 153.302 322.372 152.841 322.099 152.287C321.826 151.733 321.723 151.11 321.803 150.497C321.884 149.884 322.145 149.309 322.552 148.844C322.96 148.379 323.496 148.046 324.093 147.886C324.49 147.78 324.903 147.753 325.31 147.806C325.717 147.86 326.109 147.993 326.465 148.198C326.82 148.403 327.132 148.677 327.381 149.002C327.631 149.328 327.815 149.699 327.921 150.096Z" fill="white"/>
<path d="M332.575 167.463C332.735 168.06 332.714 168.691 332.516 169.276C332.317 169.862 331.949 170.375 331.459 170.751C330.968 171.128 330.377 171.35 329.761 171.39C329.144 171.431 328.529 171.287 327.994 170.978C327.458 170.669 327.027 170.208 326.753 169.654C326.48 169.1 326.377 168.477 326.458 167.864C326.538 167.251 326.799 166.676 327.206 166.211C327.614 165.746 328.15 165.413 328.747 165.253C329.548 165.038 330.401 165.151 331.119 165.565C331.837 165.98 332.361 166.662 332.575 167.463Z" fill="white"/>
<path d="M295.071 225.421C279.754 226.461 264.473 222.935 251.161 215.288C237.848 207.642 227.103 196.219 220.284 182.464C213.464 168.71 210.878 153.242 212.851 138.017C214.825 122.792 221.27 108.495 231.37 96.9333C241.471 85.3719 254.774 77.0661 269.596 73.0665C284.418 69.0669 300.093 69.5533 314.638 74.4641C329.184 79.375 341.946 88.4896 351.311 100.655C360.675 112.82 366.221 127.49 367.247 142.808C368.6 163.327 361.763 183.545 348.233 199.031C334.704 214.517 315.586 224.007 295.071 225.421ZM294.476 216.539C308.031 215.628 321.011 210.717 331.775 202.428C342.54 194.139 350.604 182.845 354.95 169.973C359.295 157.101 359.726 143.229 356.188 130.112C352.65 116.995 345.302 105.222 335.073 96.2807C324.844 87.3397 312.194 81.6326 298.722 79.8811C285.249 78.1295 271.56 80.4122 259.385 86.4404C247.21 92.4686 237.096 101.972 230.321 113.748C223.547 125.524 220.417 139.045 221.326 152.6C222.563 170.773 230.96 187.713 244.675 199.701C258.389 211.689 276.3 217.745 294.476 216.539Z" fill="#37474F"/>
<path d="M352.117 113.773C348.097 106.513 342.844 100.009 336.593 94.551C322.414 82.1605 303.894 75.9102 285.106 77.1749C266.319 78.4397 248.803 87.1159 236.413 101.295C224.022 115.474 217.772 133.995 219.037 152.782C220.301 171.57 228.978 189.085 243.157 201.476C253.725 210.728 266.801 216.636 280.729 218.452C294.657 220.268 308.81 217.911 321.398 211.678C333.985 205.445 344.44 195.618 351.438 183.439C358.437 171.261 361.664 157.28 360.712 143.267C360.051 132.923 357.117 122.852 352.117 113.773ZM356.099 143.544C357.148 158.889 352.842 174.124 343.916 186.65C334.99 199.176 321.996 208.219 307.149 212.237C292.302 216.255 276.521 214.999 262.495 208.684C248.47 202.369 237.07 191.385 230.237 177.605C223.403 163.825 221.561 148.102 225.023 133.115C228.485 118.129 237.038 104.807 249.223 95.4203C261.408 86.0338 276.472 81.1638 291.845 81.6405C307.219 82.1172 321.952 87.911 333.532 98.0343C346.786 109.616 354.906 125.981 356.111 143.541L356.099 143.544ZM352.117 113.773C348.097 106.513 342.844 100.009 336.593 94.551C322.414 82.1605 303.894 75.9102 285.106 77.1749C266.319 78.4397 248.803 87.1159 236.413 101.295C224.022 115.474 217.772 133.995 219.037 152.782C220.301 171.57 228.978 189.085 243.157 201.476C253.725 210.728 266.801 216.636 280.729 218.452C294.657 220.268 308.81 217.911 321.398 211.678C333.985 205.445 344.44 195.618 351.438 183.439C358.437 171.261 361.664 157.28 360.712 143.267C360.051 132.923 357.117 122.852 352.117 113.773ZM356.099 143.544C357.148 158.889 352.842 174.124 343.916 186.65C334.99 199.176 321.996 208.219 307.149 212.237C292.302 216.255 276.521 214.999 262.495 208.684C248.47 202.369 237.07 191.385 230.237 177.605C223.403 163.825 221.561 148.102 225.023 133.115C228.485 118.129 237.038 104.807 249.223 95.4203C261.408 86.0338 276.472 81.1638 291.845 81.6405C307.219 82.1172 321.952 87.911 333.532 98.0343C346.786 109.616 354.906 125.981 356.111 143.541L356.099 143.544ZM359.891 109.493C350.415 92.2455 334.905 79.1036 316.335 72.5879C297.766 66.0721 277.445 66.6412 259.269 74.186C241.094 81.7308 226.344 95.7201 217.848 113.471C209.352 131.222 207.708 151.484 213.232 170.372C218.756 189.26 231.058 205.444 247.78 215.82C264.502 226.195 284.466 230.032 303.842 226.595C323.219 223.157 340.645 212.687 352.777 197.192C364.909 181.698 370.894 162.269 369.583 142.634C368.816 131.011 365.512 119.698 359.903 109.49L359.891 109.493ZM364.98 142.948C366.231 161.465 360.601 179.791 349.17 194.411C337.739 209.032 321.313 218.918 303.042 222.172C284.771 225.426 265.942 221.821 250.166 212.046C234.39 202.271 222.779 187.016 217.559 169.207C212.338 151.398 213.877 132.288 221.88 115.544C229.883 98.7996 243.786 85.5994 260.923 78.4754C278.06 71.3515 297.224 70.8053 314.738 76.9417C332.253 83.0781 346.885 95.465 355.829 111.726C361.135 121.335 364.263 131.993 364.993 142.945L364.98 142.948ZM336.593 94.551C322.414 82.1605 303.894 75.9102 285.106 77.1749C266.319 78.4397 248.803 87.1159 236.413 101.295C224.022 115.474 217.772 133.995 219.037 152.782C220.301 171.57 228.978 189.085 243.157 201.476C253.725 210.728 266.801 216.636 280.729 218.452C294.657 220.268 308.81 217.911 321.398 211.678C333.985 205.445 344.44 195.618 351.438 183.439C358.437 171.261 361.664 157.28 360.712 143.267C360.045 132.937 357.109 122.88 352.114 113.814C348.099 106.54 342.847 100.021 336.593 94.551ZM356.111 143.541C357.16 158.886 352.855 174.12 343.929 186.647C335.003 199.173 322.008 208.216 307.161 212.234C292.314 216.252 276.533 214.996 262.508 208.681C248.483 202.366 237.082 191.382 230.249 177.602C223.416 163.822 221.573 148.098 225.036 133.112C228.498 118.125 237.05 104.803 249.236 95.417C261.421 86.0305 276.484 81.1605 291.858 81.6372C307.232 82.1138 321.964 87.9076 333.545 98.0309C346.794 109.616 354.91 125.982 356.111 143.541Z" fill="#37474F"/>
<path d="M252.384 109.792C257.233 104.586 263.123 100.458 269.67 97.6767C272.976 96.2109 276.422 95.0866 279.956 94.3214C283.534 93.5567 287.178 93.1422 290.836 93.0839C298.217 93.0469 305.524 94.5542 312.287 97.5088C318.953 100.408 325.021 104.52 330.184 109.637C324.123 106.034 317.716 103.049 311.059 100.727C307.806 99.6585 304.473 98.8508 301.091 98.3118C297.748 97.7318 294.357 97.4723 290.964 97.5368C284.178 97.6053 277.446 98.7355 271.01 100.886C264.464 103.091 258.21 106.082 252.384 109.792Z" fill="#C0E2E9"/>
<path d="M383.636 261.716L367.261 324.272H403.781L387.406 261.716C387.306 261.291 387.066 260.912 386.724 260.641C386.382 260.369 385.958 260.222 385.521 260.222C385.084 260.222 384.66 260.369 384.318 260.641C383.976 260.912 383.735 261.291 383.636 261.716Z" fill="#2E9DB6" stroke="#2C2C2C" stroke-linecap="round" stroke-linejoin="round"/>
<path d="M367.261 324.272H397.014L382.137 267.434L367.261 324.272Z" fill="#2C2C2C" stroke="#2C2C2C" stroke-linecap="round" stroke-linejoin="round"/>
<path d="M407.467 322.9H361.916C360.591 322.9 359.518 323.973 359.518 325.297V325.603C359.518 326.927 360.591 328 361.916 328H407.467C408.791 328 409.865 326.927 409.865 325.603V325.297C409.865 323.973 408.791 322.9 407.467 322.9Z" fill="#2E9DB6" stroke="#2C2C2C" stroke-linecap="round" stroke-linejoin="round"/>
<path d="M391.878 322.9H361.916C360.591 322.9 359.518 323.973 359.518 325.297V325.603C359.518 326.927 360.591 328 361.916 328H391.878C393.202 328 394.275 326.927 394.275 325.603V325.297C394.275 323.973 393.202 322.9 391.878 322.9Z" fill="#2C2C2C" stroke="#2C2C2C" stroke-linecap="round" stroke-linejoin="round"/>
<path d="M373.796 299.321H397.25L394.415 288.484H376.631L373.796 299.321Z" fill="white" stroke="#2C2C2C" stroke-linecap="round" stroke-linejoin="round"/>
<path d="M373.796 299.321H390.489L387.654 288.484H376.631L373.796 299.321Z" fill="#BABABA" stroke="#2C2C2C" stroke-linecap="round" stroke-linejoin="round"/>
<path d="M56.1401 45.9792C54.1282 54.2783 58.655 84.4568 66.0739 95.8744C66.0739 95.8744 87.5761 109.832 154.736 101.91C154.736 101.91 143.872 98.4396 154.044 58.6416C154.258 57.7866 154.484 56.9315 154.723 56.0387C156.107 50.8832 145.984 42.0434 144.161 38.9375C131.021 16.6431 56.1401 45.9792 56.1401 45.9792Z" fill="#2C2C2C"/>
<path d="M121.653 193.276C121.653 193.276 110.436 194.596 108.085 194.596C108.06 194.596 108.034 194.596 108.009 194.596C107.997 194.596 107.984 194.596 107.972 194.596C107.959 194.596 107.946 194.596 107.934 194.596C107.909 194.596 107.884 194.596 107.858 194.596C105.494 194.596 94.2906 193.276 94.2906 193.276C79.3397 197.991 80.4085 219.808 80.4211 220.424C80.5217 224.925 80.5846 229.44 80.6977 233.941C80.9618 244.541 83.6653 276.292 84.3569 286.389C84.4197 287.219 84.4575 287.911 84.4826 288.426C85.6143 311.085 86.7334 333.744 87.8651 356.403C87.9657 358.39 88.0663 360.389 88.1669 362.376C88.1669 362.376 93.423 365.645 103.734 362.376L103.822 288.778L106.689 234.092C106.689 234.092 107.217 234.017 107.846 233.954C107.884 233.954 107.921 233.966 107.972 233.966V233.979C107.984 233.979 107.997 233.979 108.009 233.979C108.022 233.979 108.034 233.979 108.047 233.979V233.966C108.085 233.966 108.122 233.954 108.173 233.954C108.801 234.017 109.33 234.092 109.33 234.092L112.197 288.778L112.285 362.376C122.596 365.645 127.852 362.376 127.852 362.376C127.952 360.389 128.053 358.39 128.153 356.403C129.285 333.744 130.392 311.085 131.536 288.426C131.561 287.911 131.599 287.219 131.662 286.389C132.341 276.304 135.057 244.541 135.321 233.941C135.434 229.44 135.497 224.925 135.598 220.424C135.535 219.808 136.591 197.991 121.653 193.276Z" fill="#2C2C2C"/>
<path d="M33.8141 149.053C33.8141 149.053 30.7779 146.795 30.2351 144.548C29.6809 142.296 29.2452 141.216 25.5826 137.17C21.9545 133.141 21.3173 129.761 21.3173 129.761C21.3173 129.761 16.8438 131.228 22.2825 137.692C25.6098 141.654 11.7799 135.037 7.78818 132.664C7.78818 132.664 4.75814 132.894 7.89778 136.661C11.0374 140.429 7.09795 138.825 13.5407 145.785C19.9668 152.751 28.6195 158.792 32.7164 154.863C36.8018 150.929 33.8141 149.053 33.8141 149.053Z" fill="#E0E0E0"/>
<path fill-rule="evenodd" clip-rule="evenodd" d="M21.3175 129.76L21.1607 129.282L21.7055 129.104L21.8116 129.666L21.8116 129.666L21.8118 129.667L21.8125 129.671C21.8133 129.675 21.8149 129.682 21.8172 129.693C21.8218 129.715 21.8294 129.748 21.8406 129.794C21.8629 129.885 21.8994 130.024 21.9546 130.204C22.0652 130.565 22.2507 131.093 22.5476 131.746C23.141 133.052 24.1799 134.86 25.9562 136.833C27.7896 138.858 28.8427 140.17 29.5057 141.272C30.1801 142.393 30.4421 143.283 30.7238 144.428L30.724 144.429L30.7243 144.43C30.9616 145.413 31.7708 146.456 32.5879 147.291C32.9873 147.699 33.3712 148.041 33.6553 148.28C33.7972 148.399 33.9135 148.493 33.9937 148.556C34.0338 148.587 34.0648 148.611 34.0854 148.627C34.0929 148.632 34.099 148.637 34.1036 148.641C34.1083 148.644 34.1136 148.647 34.1195 148.651C34.1247 148.655 34.1304 148.659 34.1365 148.663C34.1651 148.683 34.2035 148.712 34.249 148.748C34.3398 148.821 34.4605 148.927 34.5892 149.068C34.8456 149.35 35.1427 149.78 35.2859 150.362C35.5822 151.567 35.1755 153.194 33.0655 155.225L33.0648 155.226C31.9149 156.329 30.4529 156.715 28.8544 156.583C27.2701 156.452 25.5335 155.814 23.7621 154.852C20.2171 152.925 16.4046 149.631 13.1714 146.126C9.94539 142.641 9.23504 141.217 8.99027 140.137C8.94722 139.947 8.91822 139.764 8.89288 139.603C8.88445 139.55 8.87643 139.499 8.86843 139.452C8.83498 139.253 8.79677 139.07 8.72412 138.865C8.579 138.455 8.27709 137.902 7.51164 136.983C6.70582 136.016 6.25756 135.233 6.07272 134.585C5.88268 133.92 5.96744 133.376 6.25205 132.964C6.52105 132.575 6.91659 132.38 7.20122 132.283C7.34834 132.233 7.4803 132.203 7.57631 132.186C7.62467 132.178 7.66488 132.172 7.69451 132.168C7.70935 132.167 7.72162 132.165 7.73101 132.164C7.73571 132.164 7.7397 132.163 7.74294 132.163L7.74723 132.163L7.74896 132.163L7.74971 132.163C7.75005 132.163 7.75039 132.163 7.78842 132.664L7.75039 132.163L7.90881 132.151L8.04539 132.232C10.0178 133.404 14.4509 135.641 17.9715 137.088C19.75 137.82 21.2287 138.32 22.0393 138.412C22.1007 138.419 22.1541 138.423 22.2 138.424C22.1366 138.319 22.0394 138.184 21.8977 138.015C19.1446 134.743 18.7525 132.564 19.2894 131.126C19.5531 130.42 20.0203 129.96 20.4114 129.681C20.6073 129.541 20.7876 129.444 20.9211 129.381C20.9881 129.35 21.044 129.326 21.085 129.31C21.1055 129.302 21.1224 129.296 21.1352 129.291C21.1415 129.289 21.1469 129.287 21.1512 129.286L21.1568 129.284L21.159 129.283L21.1599 129.283C21.1603 129.282 21.1607 129.282 21.3175 129.76ZM7.68888 133.189C7.64137 133.2 7.58583 133.215 7.52685 133.235C7.34146 133.298 7.17571 133.397 7.07966 133.536C6.99922 133.652 6.91515 133.872 7.04 134.309C7.17005 134.765 7.5204 135.422 8.28441 136.339C9.08878 137.304 9.4718 137.963 9.67239 138.529C9.77259 138.812 9.82243 139.059 9.86043 139.285C9.87163 139.351 9.88146 139.414 9.89091 139.473C9.91474 139.624 9.93622 139.759 9.97136 139.915C10.1524 140.714 10.6937 141.969 13.9101 145.443L13.9106 145.444C17.1035 148.905 20.8304 152.114 24.2424 153.968C25.9495 154.895 27.546 155.466 28.9371 155.581C30.3138 155.694 31.4697 155.362 32.3683 154.5C34.3432 152.598 34.4853 151.319 34.3091 150.603C34.2161 150.224 34.0216 149.939 33.8455 149.746C33.7579 149.65 33.6771 149.579 33.6204 149.533C33.5923 149.511 33.5705 149.495 33.5573 149.486C33.5508 149.481 33.5464 149.478 33.5446 149.477C33.5436 149.476 33.5433 149.476 33.5437 149.476L33.5301 149.468L33.5142 149.456L33.8143 149.052C33.5142 149.456 33.5141 149.456 33.514 149.456L33.5138 149.456L33.5108 149.453L33.503 149.448C33.4964 149.443 33.4869 149.435 33.4748 149.426C33.4507 149.408 33.4159 149.381 33.3719 149.346C33.2839 149.277 33.1588 149.177 33.0075 149.049C32.7054 148.795 32.2964 148.432 31.8688 147.995C31.0325 147.14 30.0524 145.931 29.7467 144.667C29.4743 143.56 29.2413 142.784 28.6437 141.791C28.0348 140.778 27.0389 139.528 25.21 137.508L25.2091 137.507C23.3575 135.45 22.2639 133.553 21.6317 132.162C21.3164 131.468 21.1161 130.9 20.9937 130.501C20.7164 130.7 20.4062 131.011 20.2318 131.478C19.8916 132.389 19.9822 134.176 22.6676 137.368L22.668 137.368C22.8883 137.631 23.0594 137.874 23.1661 138.098C23.2654 138.306 23.3538 138.59 23.2539 138.876C23.1414 139.199 22.8622 139.338 22.6398 139.392C22.4216 139.444 22.1719 139.439 21.9268 139.411C20.9553 139.302 19.3509 138.743 17.589 138.019C14.1183 136.592 9.7761 134.41 7.68888 133.189ZM7.82864 133.166C7.82958 133.165 7.82989 133.165 7.82954 133.165L7.82864 133.166Z" fill="#2C2C2C"/>
<path d="M80.3814 130.168C80.3814 130.168 70.7556 181.033 66.0365 183.903C62.2389 186.217 49.9488 175.616 33.7477 161.313C31.9639 159.644 29.8164 157.094 29.8164 157.094L33.4402 143.404L37.4716 147.645L56.6228 163.634C56.6228 163.634 64.645 122.146 72.2286 121.392C79.8245 120.626 80.3814 130.168 80.3814 130.168Z" fill="#2C2C2C"/>
<path d="M182.292 149.052C182.292 149.052 185.329 146.795 185.871 144.548C186.426 142.296 186.861 141.215 190.524 137.17C194.152 133.14 194.789 129.76 194.789 129.76C194.789 129.76 199.263 131.228 193.824 137.692C190.497 141.654 204.327 135.037 208.318 132.664C208.318 132.664 211.348 132.894 208.209 136.661C205.069 140.428 209.008 138.825 202.566 145.785C196.14 152.751 187.487 158.792 183.39 154.863C179.305 150.929 182.292 149.052 182.292 149.052Z" fill="#E0E0E0"/>
<path fill-rule="evenodd" clip-rule="evenodd" d="M194.789 129.76L194.946 129.282L194.401 129.104L194.295 129.666L194.295 129.666L194.295 129.667L194.294 129.671C194.293 129.675 194.292 129.682 194.289 129.693C194.285 129.715 194.277 129.748 194.266 129.794C194.244 129.885 194.207 130.024 194.152 130.204C194.041 130.565 193.856 131.093 193.559 131.746C192.965 133.052 191.927 134.86 190.15 136.833C188.317 138.858 187.264 140.17 186.601 141.272C185.926 142.393 185.664 143.283 185.383 144.428L185.382 144.429L185.382 144.43C185.145 145.413 184.336 146.456 183.519 147.291C183.119 147.699 182.735 148.041 182.451 148.28C182.309 148.399 182.193 148.493 182.113 148.556C182.073 148.587 182.042 148.611 182.021 148.627C182.014 148.632 182.007 148.637 182.003 148.641C181.998 148.644 181.993 148.647 181.987 148.651C181.982 148.655 181.976 148.659 181.97 148.663C181.941 148.683 181.903 148.712 181.857 148.748C181.767 148.821 181.646 148.927 181.517 149.068C181.261 149.35 180.964 149.78 180.821 150.362C180.524 151.567 180.931 153.194 183.041 155.225L183.042 155.226C184.192 156.329 185.653 156.715 187.252 156.583C188.836 156.452 190.573 155.814 192.344 154.852C195.889 152.925 199.702 149.631 202.935 146.126C206.161 142.641 206.871 141.217 207.116 140.137C207.159 139.947 207.188 139.764 207.214 139.603C207.222 139.55 207.23 139.499 207.238 139.452C207.271 139.253 207.31 139.07 207.382 138.865C207.527 138.455 207.829 137.902 208.595 136.983C209.401 136.016 209.849 135.233 210.034 134.585C210.224 133.92 210.139 133.376 209.854 132.964C209.585 132.575 209.19 132.38 208.905 132.283C208.758 132.233 208.626 132.203 208.53 132.186C208.482 132.178 208.442 132.172 208.412 132.168C208.397 132.167 208.385 132.165 208.375 132.164C208.371 132.164 208.367 132.163 208.364 132.163L208.359 132.163L208.357 132.163L208.357 132.163C208.356 132.163 208.356 132.163 208.318 132.664L208.356 132.163L208.198 132.151L208.061 132.232C206.089 133.404 201.656 135.641 198.135 137.088C196.356 137.82 194.878 138.32 194.067 138.412C194.006 138.419 193.952 138.423 193.906 138.424C193.97 138.319 194.067 138.184 194.209 138.015C196.962 134.743 197.354 132.564 196.817 131.126C196.553 130.42 196.086 129.96 195.695 129.681C195.499 129.541 195.319 129.444 195.185 129.381C195.118 129.35 195.062 129.326 195.021 129.31C195.001 129.302 194.984 129.296 194.971 129.291C194.965 129.289 194.96 129.287 194.955 129.286L194.95 129.284L194.947 129.283L194.947 129.283C194.946 129.282 194.946 129.282 194.789 129.76ZM208.418 133.189C208.465 133.2 208.521 133.215 208.58 133.235C208.765 133.298 208.931 133.397 209.027 133.536C209.107 133.652 209.191 133.872 209.066 134.309C208.936 134.765 208.586 135.422 207.822 136.339C207.018 137.304 206.635 137.963 206.434 138.529C206.334 138.812 206.284 139.059 206.246 139.285C206.235 139.351 206.225 139.414 206.216 139.473C206.192 139.624 206.17 139.759 206.135 139.915C205.954 140.714 205.413 141.969 202.196 145.443L202.196 145.444C199.003 148.905 195.276 152.114 191.864 153.968C190.157 154.895 188.56 155.466 187.169 155.581C185.793 155.694 184.637 155.362 183.738 154.5C181.763 152.598 181.621 151.319 181.797 150.603C181.89 150.224 182.085 149.939 182.261 149.746C182.349 149.65 182.429 149.579 182.486 149.533C182.514 149.511 182.536 149.495 182.549 149.486C182.556 149.481 182.56 149.478 182.562 149.477C182.563 149.476 182.563 149.476 182.563 149.476L182.576 149.468L182.592 149.456L182.292 149.052C182.592 149.456 182.592 149.456 182.592 149.456L182.593 149.456L182.596 149.453L182.603 149.448C182.61 149.443 182.62 149.435 182.632 149.426C182.656 149.408 182.691 149.381 182.735 149.346C182.823 149.277 182.948 149.177 183.099 149.049C183.401 148.795 183.81 148.432 184.238 147.995C185.074 147.14 186.054 145.931 186.36 144.667C186.632 143.56 186.865 142.784 187.463 141.791C188.072 140.778 189.068 139.528 190.896 137.508L190.897 137.507C192.749 135.45 193.843 133.553 194.475 132.162C194.79 131.468 194.99 130.9 195.113 130.501C195.39 130.7 195.7 131.011 195.875 131.478C196.215 132.389 196.124 134.176 193.439 137.368L193.438 137.368C193.218 137.631 193.047 137.874 192.94 138.098C192.841 138.306 192.753 138.59 192.853 138.876C192.965 139.199 193.244 139.338 193.467 139.392C193.685 139.444 193.935 139.439 194.18 139.411C195.151 139.302 196.756 138.743 198.517 138.019C201.988 136.592 206.33 134.41 208.418 133.189ZM208.278 133.166C208.277 133.165 208.277 133.165 208.277 133.165L208.278 133.166Z" fill="#2C2C2C"/>
<path d="M135.725 130.168C135.725 130.168 145.351 181.033 150.07 183.903C153.868 186.217 166.158 175.616 182.359 161.313C184.143 159.644 186.29 157.094 186.29 157.094L182.666 143.404L178.635 147.645L159.484 163.634C159.484 163.634 151.461 122.146 143.878 121.392C136.282 120.626 135.725 130.168 135.725 130.168Z" fill="#2C2C2C"/>
<path d="M155.717 130.491C155.717 138.514 150.461 143.481 142.438 143.481C134.416 143.481 127.915 136.98 127.915 128.957C127.915 120.935 133.976 112.083 141.621 114.484C150.046 117.112 155.717 122.469 155.717 130.491Z" fill="white"/>
<path fill-rule="evenodd" clip-rule="evenodd" d="M132.284 118.137C129.894 120.958 128.418 125.06 128.418 128.958C128.418 136.702 134.693 142.978 142.438 142.978C146.345 142.978 149.53 141.77 151.736 139.633C153.939 137.499 155.214 134.39 155.214 130.492C155.214 122.775 149.782 117.557 141.471 114.965L141.47 114.964C137.897 113.842 134.667 115.325 132.284 118.137ZM141.771 114.004C137.699 112.726 134.076 114.467 131.517 117.487C128.966 120.497 127.412 124.833 127.412 128.958C127.412 137.258 134.138 143.984 142.438 143.984C146.553 143.984 150.008 142.708 152.436 140.356C154.866 138.002 156.22 134.616 156.22 130.492C156.22 122.163 150.31 116.668 141.771 114.004Z" fill="#2C2C2C"/>
<path d="M149.19 128.153C149.19 134.088 145.305 137.76 139.37 137.76C133.435 137.76 128.631 132.956 128.631 127.021C128.631 121.086 133.108 114.535 138.779 116.308C144.991 118.269 149.19 122.23 149.19 128.153Z" fill="#2C2C2C"/>
<path d="M58.2651 130.492C58.2651 138.514 63.5212 143.481 71.5437 143.481C79.5662 143.481 86.0545 136.967 86.0545 128.957C86.0545 120.948 79.9937 112.083 72.3485 114.484C63.9362 117.112 58.2651 122.469 58.2651 130.492Z" fill="white"/>
<path fill-rule="evenodd" clip-rule="evenodd" d="M82.4523 117.492C85.0035 120.504 86.5576 124.839 86.5576 128.958C86.5576 137.244 79.8448 143.984 71.5437 143.984C67.4284 143.984 63.9742 142.708 61.5461 140.356C59.116 138.002 57.7622 134.616 57.7622 130.492C57.7622 122.163 63.6719 116.668 72.1981 114.005C76.2701 112.726 79.8937 114.471 82.4523 117.492ZM81.6847 118.142C79.3016 115.328 76.0723 113.842 72.4992 114.964L72.4985 114.965C64.2004 117.557 58.7682 122.775 58.7682 130.492C58.7682 134.39 60.0424 137.499 62.246 139.634C64.4515 141.77 67.6366 142.978 71.5437 142.978C79.2876 142.978 85.5516 136.691 85.5516 128.958C85.5516 125.066 84.0752 120.964 81.6847 118.142Z" fill="#2C2C2C"/>
<path d="M64.8037 128.153C64.8037 134.088 68.6892 137.76 74.6243 137.76C80.5594 137.76 85.3628 132.956 85.3628 127.021C85.3628 121.086 80.8864 114.535 75.2279 116.308C68.991 118.269 64.8037 122.23 64.8037 128.153Z" fill="#2C2C2C"/>
<path d="M125.274 194.86C116.195 194.03 107.23 193.69 107.23 193.69C103.935 193.791 96.9189 194.08 89.676 194.86C91.7885 202.078 98.9559 207.397 107.469 207.397C115.994 207.409 123.162 202.065 125.274 194.86Z" fill="#50BFD7"/>
<path d="M124.532 195.614C125.312 192.546 140.917 114.358 140.917 114.358C140.917 114.358 99.2703 102.061 72.6377 114.358L89.7137 196.293L124.532 195.614Z" fill="white"/>
<path fill-rule="evenodd" clip-rule="evenodd" d="M141.058 113.876C141.059 113.876 141.059 113.876 140.916 114.359C141.41 114.457 141.41 114.457 141.41 114.458L141.409 114.461L141.234 115.336C141.12 115.909 140.952 116.751 140.738 117.823C140.309 119.967 139.697 123.033 138.959 126.722C137.484 134.1 135.509 143.969 133.51 153.935C129.514 173.851 125.413 194.188 125.019 195.738L124.925 196.11L89.3062 196.804L72.0635 114.07L72.4266 113.902C85.8719 107.694 103.056 107.707 116.82 109.247C123.712 110.018 129.769 111.175 134.102 112.138C136.269 112.62 138.006 113.054 139.202 113.368C139.801 113.525 140.264 113.651 140.578 113.739C140.735 113.783 140.854 113.817 140.935 113.84C140.976 113.852 141.006 113.861 141.027 113.867L141.05 113.874L141.057 113.876L141.058 113.876ZM140.916 114.359L141.41 114.457L141.5 114.006L141.059 113.876L140.916 114.359ZM140.332 114.715C140.324 114.713 140.315 114.71 140.307 114.708C139.998 114.622 139.54 114.496 138.947 114.341C137.762 114.03 136.037 113.599 133.884 113.12C129.576 112.162 123.557 111.013 116.708 110.247C103.116 108.726 86.3462 108.726 73.2119 114.649L90.1208 195.782L124.131 195.119C124.843 191.923 128.724 172.674 132.523 153.737C134.523 143.772 136.498 133.903 137.973 126.525C138.71 122.836 139.323 119.77 139.751 117.626C139.965 116.554 140.133 115.712 140.248 115.139L140.332 114.715Z" fill="black"/>
<path d="M124.532 195.614C125.312 192.546 140.917 114.358 140.917 114.358C140.917 114.358 99.2703 102.061 72.6377 114.358L89.7137 196.293L124.532 195.614Z" fill="white"/>
<path fill-rule="evenodd" clip-rule="evenodd" d="M141.058 113.876C141.059 113.876 141.059 113.876 140.916 114.359C141.41 114.457 141.41 114.457 141.41 114.458L141.409 114.461L141.234 115.336C141.12 115.909 140.952 116.751 140.738 117.823C140.309 119.967 139.697 123.033 138.959 126.722C137.484 134.1 135.509 143.969 133.51 153.935C129.514 173.851 125.413 194.188 125.019 195.738L124.925 196.11L89.3062 196.804L72.0635 114.07L72.4266 113.902C85.8719 107.694 103.056 107.707 116.82 109.247C123.712 110.018 129.769 111.175 134.102 112.138C136.269 112.62 138.006 113.054 139.202 113.368C139.801 113.525 140.264 113.651 140.578 113.739C140.735 113.783 140.854 113.817 140.935 113.84C140.976 113.852 141.006 113.861 141.027 113.867L141.05 113.874L141.057 113.876L141.058 113.876ZM140.916 114.359L141.41 114.457L141.5 114.006L141.059 113.876L140.916 114.359ZM140.332 114.715C140.324 114.713 140.315 114.71 140.307 114.708C139.998 114.622 139.54 114.496 138.947 114.341C137.762 114.03 136.037 113.599 133.884 113.12C129.576 112.162 123.557 111.013 116.708 110.247C103.116 108.726 86.3462 108.726 73.2119 114.649L90.1208 195.782L124.131 195.119C124.843 191.923 128.724 172.674 132.523 153.737C134.523 143.772 136.498 133.903 137.973 126.525C138.71 122.836 139.323 119.77 139.751 117.626C139.965 116.554 140.133 115.712 140.248 115.139L140.332 114.715Z" fill="#2C2C2C"/>
<path d="M130.807 111.957C119.175 109.618 99.5091 106.952 82.6091 110.976C84.6085 123.588 86.6078 136.213 88.6071 148.825C90.2166 157.376 98.3271 163.072 106.79 163.122C115.252 163.072 123.363 157.388 124.972 148.825C126.909 136.527 128.858 124.242 130.807 111.957Z" fill="#50BFD7"/>
<path fill-rule="evenodd" clip-rule="evenodd" d="M82.4925 110.487C99.5031 106.437 119.259 109.122 130.906 111.464L131.379 111.559L131.302 112.044C129.354 124.326 127.405 136.609 125.469 148.903L125.468 148.911L125.466 148.918C123.805 157.756 115.455 163.574 106.793 163.625L106.79 163.625L106.787 163.625C98.1236 163.574 89.7738 157.743 88.1127 148.918L88.1114 148.911L88.1102 148.904C87.1107 142.598 86.1111 136.29 85.1115 129.981L85.1112 129.979C84.1116 123.67 83.1119 117.361 82.1123 111.055L82.0393 110.595L82.4925 110.487ZM83.179 111.359C84.1542 117.511 85.1293 123.666 86.1045 129.82L86.1048 129.822C87.1041 136.129 88.1034 142.436 89.1026 148.739C90.6635 157.011 98.5309 162.569 106.79 162.619C115.049 162.569 122.915 157.023 124.476 148.74C126.387 136.603 128.311 124.479 130.234 112.356C118.672 110.065 99.6396 107.568 83.179 111.359Z" fill="#2C2C2C"/>
<path d="M105.344 116.421C109.317 116.421 115.491 115.214 115.491 111.253L114.473 98.0245L113.58 86.4561C113.58 82.4826 110.361 79.2761 106.4 79.2761C104.413 79.2761 102.628 80.0809 101.32 81.376C100.025 82.6712 99.2074 84.4693 99.2074 86.4561L98.3272 98.0371L97.4848 109.14C96.3531 115.842 105.344 116.421 105.344 116.421Z" fill="#2C2C2C"/>
<path d="M128.581 11.8647C122.633 4.54642 114.322 0.132812 103.659 0.132812C79.5031 0.132812 55.8884 22.4021 55.8884 50.1789C55.8884 77.9557 75.4668 100.476 99.6222 100.476C101.948 100.476 104.199 100.275 106.362 99.8729C106.588 101.093 106.714 102.35 106.714 103.633C106.714 103.872 106.702 104.098 106.702 104.324C173.296 88.2038 162.394 7.75289 128.581 11.8647Z" fill="#2C2C2C"/>
<path d="M76.6488 78.2324C81.1281 78.2324 84.7593 74.6012 84.7593 70.122C84.7593 65.6427 81.1281 62.0115 76.6488 62.0115C72.1695 62.0115 68.5383 65.6427 68.5383 70.122C68.5383 74.6012 72.1695 78.2324 76.6488 78.2324Z" fill="#E0E0E0"/>
<path fill-rule="evenodd" clip-rule="evenodd" d="M76.6489 62.5145C72.4473 62.5145 69.0414 65.9205 69.0414 70.122C69.0414 74.3235 72.4473 77.7295 76.6489 77.7295C80.8504 77.7295 84.2564 74.3235 84.2564 70.122C84.2564 65.9205 80.8504 62.5145 76.6489 62.5145ZM68.0354 70.122C68.0354 65.3649 71.8918 61.5085 76.6489 61.5085C81.4059 61.5085 85.2623 65.3649 85.2623 70.122C85.2623 74.8791 81.4059 78.7355 76.6489 78.7355C71.8918 78.7355 68.0354 74.8791 68.0354 70.122Z" fill="#2C2C2C"/>
<path d="M133.762 78.2324C138.241 78.2324 141.872 74.6012 141.872 70.122C141.872 65.6427 138.241 62.0115 133.762 62.0115C129.283 62.0115 125.651 65.6427 125.651 70.122C125.651 74.6012 129.283 78.2324 133.762 78.2324Z" fill="#E0E0E0"/>
<path fill-rule="evenodd" clip-rule="evenodd" d="M133.762 62.5145C129.56 62.5145 126.154 65.9205 126.154 70.122C126.154 74.3235 129.56 77.7295 133.762 77.7295C137.963 77.7295 141.369 74.3235 141.369 70.122C141.369 65.9205 137.963 62.5145 133.762 62.5145ZM125.148 70.122C125.148 65.3649 129.005 61.5085 133.762 61.5085C138.519 61.5085 142.375 65.3649 142.375 70.122C142.375 74.8791 138.519 78.7355 133.762 78.7355C129.005 78.7355 125.148 74.8791 125.148 70.122Z" fill="#2C2C2C"/>
<path d="M105.972 103.96C123.382 103.96 137.496 83.9796 137.496 59.3331C137.496 34.6865 123.382 14.7065 105.972 14.7065C88.562 14.7065 74.4482 34.6865 74.4482 59.3331C74.4482 83.9796 88.562 103.96 105.972 103.96Z" fill="#E0E0E0"/>
<path fill-rule="evenodd" clip-rule="evenodd" d="M84.0923 28.0676C78.4543 36.0489 74.9513 47.1014 74.9513 59.3331C74.9513 71.5649 78.4543 82.6173 84.0923 90.5986C89.7312 98.5812 97.4743 103.457 105.972 103.457C114.47 103.457 122.213 98.5812 127.852 90.5986C133.49 82.6173 136.993 71.5649 136.993 59.3331C136.993 47.1014 133.49 36.0489 127.852 28.0676C122.213 20.085 114.47 15.2096 105.972 15.2096C97.4743 15.2096 89.7312 20.085 84.0923 28.0676ZM83.2706 27.4872C89.0412 19.3182 97.0601 14.2036 105.972 14.2036C114.885 14.2036 122.903 19.3182 128.674 27.4872C134.445 35.6575 137.999 46.9183 137.999 59.3331C137.999 71.7479 134.445 83.0087 128.674 91.179C122.903 99.348 114.885 104.463 105.972 104.463C97.0601 104.463 89.0412 99.348 83.2706 91.179C77.4992 83.0087 73.9453 71.7479 73.9453 59.3331C73.9453 46.9183 77.4992 35.6575 83.2706 27.4872Z" fill="#2C2C2C"/>
<path d="M69.8462 49.4369C69.8462 49.4369 96.6799 50.7447 105.62 34.5992C105.62 34.5992 125.035 51.3985 143.57 50.0908L141.822 42.6719L134.629 28.488L130.266 23.2571L121.326 13.8766L109.33 8.85938L94.9321 10.821L75.731 23.9109L73.3293 32.6375L69.8462 49.4369Z" fill="#2C2C2C"/>
<path d="M106.752 76.7736C106.764 76.8491 106.601 76.9874 106.236 76.9874C105.884 76.9999 105.343 76.8365 104.866 76.3838C104.627 76.1575 104.413 75.8808 104.249 75.5287C104.224 75.4784 104.212 75.4282 104.187 75.3779L104.161 75.3024L104.136 75.2395L104.099 75.1264C104.086 75.0761 104.073 75.0132 104.048 74.9629C103.998 74.7743 103.96 74.5731 103.948 74.3593C103.872 73.5294 104.036 72.6869 104.237 71.8822C105.017 68.6631 105.934 66.1357 106.274 66.2111C106.613 66.2991 106.261 68.9649 105.482 72.184C105.281 72.9761 105.13 73.6929 105.13 74.2965C105.13 74.4473 105.142 74.5982 105.155 74.7366L105.167 74.7869V74.812V74.8246V74.8371C105.167 74.8371 105.155 74.7994 105.167 74.812L105.193 74.9377L105.205 75.0006L105.218 75.0383L105.243 75.1138C105.318 75.3527 105.431 75.579 105.557 75.7551C105.809 76.1197 106.111 76.3461 106.349 76.4718C106.563 76.6353 106.739 76.6856 106.752 76.7736Z" fill="#2C2C2C"/>
<path d="M71.8956 64.4509C71.5436 63.0551 71.2795 61.6342 71.0657 60.2007C70.8645 58.7673 70.7262 57.3338 70.6508 55.8877C70.525 52.9956 70.6382 50.0783 71.028 47.1988C71.4178 44.3067 72.0843 41.4523 73.0273 38.6859C73.0776 38.5099 73.1405 38.3339 73.2034 38.1704L73.392 37.6548L73.7692 36.6238L74.1968 35.6052L74.4105 35.1022C74.486 34.9388 74.5488 34.7627 74.6369 34.5993C75.253 33.2664 75.9194 31.9461 76.6739 30.6886C78.1703 28.1486 79.9181 25.7595 81.93 23.5841C83.9545 21.4213 86.2304 19.4849 88.7202 17.8628C89.022 17.649 89.3489 17.4604 89.6633 17.2718C89.9776 17.0831 90.3046 16.882 90.6189 16.7059L91.6123 16.1778L92.1027 15.9137C92.2662 15.8257 92.4422 15.7503 92.6057 15.6748L93.6242 15.2096C93.7122 15.1718 93.7877 15.1341 93.8757 15.0964L94.1397 14.9958L94.6553 14.7946L95.1708 14.5934C95.3469 14.5305 95.5104 14.4551 95.699 14.3922L96.7678 14.0401C99.6096 13.1222 102.602 12.657 105.595 12.5941C107.091 12.5438 108.588 12.657 110.071 12.8204C110.449 12.8707 110.813 12.9336 111.178 12.9839L111.731 13.0719C111.819 13.0845 111.92 13.0971 112.008 13.1222L112.285 13.1851L113.379 13.424C113.743 13.4994 114.108 13.6 114.46 13.7006C117.339 14.5054 120.118 15.6748 122.658 17.234L123.602 17.825C123.765 17.9256 123.916 18.0262 124.067 18.1394L124.519 18.4538L124.972 18.7681C125.123 18.8687 125.274 18.9819 125.425 19.095L126.305 19.7741L126.745 20.1136L127.173 20.4782L128.015 21.2075C128.292 21.4465 128.556 21.7105 128.82 21.9746L129.222 22.3644C129.361 22.4901 129.486 22.6159 129.612 22.7542L130.379 23.559L130.756 23.9613L131.121 24.3763L131.85 25.2188C131.976 25.3571 132.089 25.508 132.202 25.6463L132.542 26.0864C132.768 26.3756 132.995 26.6648 133.221 26.9666L133.862 27.872C134.302 28.463 134.68 29.1043 135.082 29.7204C136.641 32.2227 137.911 34.8885 138.917 37.6297C139.923 40.3835 140.64 43.2253 141.093 46.1048L141.181 46.6455L141.218 46.9096L141.243 47.1862L141.369 48.2676C141.47 48.9844 141.495 49.7137 141.558 50.443C141.646 51.8891 141.671 53.3477 141.633 54.7937L141.621 55.3344L141.595 55.8751C141.57 56.2398 141.558 56.5919 141.52 56.9565C141.47 57.6733 141.394 58.4026 141.306 59.1193C141.118 60.5528 140.879 61.9737 140.564 63.3821C140.74 61.9486 140.879 60.5277 140.929 59.0942C140.992 57.6607 141.005 56.2272 140.942 54.8063C140.879 53.3854 140.778 51.9519 140.602 50.5436C140.502 49.8394 140.426 49.1353 140.288 48.4311L140.099 47.3874L140.049 47.1234L139.986 46.8593L139.873 46.3438C139.282 43.5648 138.439 40.8487 137.37 38.2458L137.169 37.7554L136.956 37.2776L136.515 36.3094C136.377 35.9825 136.214 35.6807 136.05 35.3663L135.572 34.4232C135.409 34.1089 135.233 33.8071 135.057 33.5053C134.881 33.2035 134.717 32.8892 134.529 32.5874L133.975 31.6946C133.787 31.3928 133.611 31.091 133.41 30.8144C133.007 30.236 132.63 29.645 132.202 29.0917L131.574 28.2492C131.36 27.9726 131.134 27.7085 130.907 27.4319L130.568 27.0295C130.455 26.8912 130.341 26.7529 130.228 26.6271L129.524 25.8475L129.172 25.4577L128.807 25.0805L128.065 24.3386C126.066 22.4021 123.84 20.7046 121.439 19.2962C119.05 17.8879 116.472 16.8191 113.806 16.1023C113.14 15.9012 112.461 15.788 111.794 15.6371L111.543 15.5868C111.455 15.5742 111.367 15.5616 111.291 15.5491L110.776 15.4736C110.436 15.4233 110.097 15.3605 109.757 15.3227C108.387 15.1844 107.003 15.0838 105.633 15.1215C102.879 15.1718 100.125 15.5868 97.4971 16.4293L96.5163 16.7436C96.3528 16.7939 96.1894 16.8568 96.0259 16.9197L95.5481 17.1083L95.0702 17.2969L94.8313 17.3849C94.7559 17.4101 94.6679 17.4604 94.5924 17.4855L93.6493 17.9131C93.4984 17.9885 93.335 18.0514 93.1715 18.1268L92.7063 18.3657L91.7883 18.8436C91.4865 19.0196 91.1848 19.1956 90.883 19.3591C90.5812 19.5352 90.2794 19.6986 89.9902 19.8998C87.6388 21.3836 85.476 23.1566 83.5144 25.1433L82.7976 25.9104L82.4456 26.3002C82.3827 26.363 82.3198 26.4259 82.2695 26.4888L82.106 26.69L81.427 27.4947C81.3139 27.6331 81.2007 27.7588 81.0875 27.8971L80.7606 28.3121L80.1193 29.142C80.0061 29.2803 79.9181 29.4186 79.8049 29.5695L79.5032 29.997C79.302 30.2863 79.1008 30.5629 78.8996 30.8647L78.3337 31.7575C76.8374 34.134 75.5548 36.6615 74.5488 39.2895C73.5303 41.9176 72.7507 44.6588 72.2226 47.4503L72.0214 48.494C71.9585 48.8461 71.9208 49.1981 71.8579 49.5502L71.707 50.6065C71.6693 50.9586 71.6316 51.3106 71.5939 51.6627L71.4807 52.7315L71.4178 53.8004L71.3549 54.8692C71.3424 55.2213 71.3298 55.5859 71.3172 55.938C71.2921 57.3715 71.3172 58.7924 71.4178 60.2259C71.531 61.5965 71.6945 63.0174 71.8956 64.4509Z" fill="#50BFD7"/>
<path d="M97.7737 61.6971C97.7737 65.2808 94.6678 68.1855 90.8452 68.1855C87.01 68.1855 83.9167 65.2808 83.9167 61.6971C83.9167 58.1134 87.0226 55.2087 90.8452 55.2087C94.6678 55.2087 97.7737 58.1134 97.7737 61.6971Z" fill="white"/>
<path fill-rule="evenodd" clip-rule="evenodd" d="M90.8453 55.7118C87.2686 55.7118 84.4198 58.422 84.4198 61.6972C84.4198 64.9729 87.2567 67.6826 90.8453 67.6826C94.4219 67.6826 97.2708 64.9723 97.2708 61.6972C97.2708 58.422 94.4219 55.7118 90.8453 55.7118ZM83.4138 61.6972C83.4138 57.8049 86.7767 54.7058 90.8453 54.7058C94.9139 54.7058 98.2768 57.8049 98.2768 61.6972C98.2768 65.5894 94.9139 68.6885 90.8453 68.6885C86.7635 68.6885 83.4138 65.5889 83.4138 61.6972Z" fill="#2C2C2C"/>
<path d="M87.4502 61.2947C87.4502 64.2497 89.3741 66.6514 91.7381 66.6514C94.1021 66.6514 96.0259 64.2497 96.0259 61.2947C96.0259 58.3397 94.1021 55.938 91.7381 55.938C89.3615 55.9255 87.4502 58.3272 87.4502 61.2947Z" fill="#50BFD7"/>
<path d="M88.6824 61.2947C88.6824 63.3946 90.0404 65.0921 91.7254 65.0921C93.4103 65.0921 94.7684 63.3946 94.7684 61.2947C94.7684 59.1947 93.4103 57.4846 91.7254 57.4846C90.053 57.4846 88.6824 59.1822 88.6824 61.2947Z" fill="#2C2C2C"/>
<path d="M88.4939 57.6859C88.4939 58.2643 89.1981 58.717 90.0657 58.717C90.9333 58.717 91.6375 58.2517 91.6375 57.6859C91.6375 57.1075 90.9333 56.6548 90.0657 56.6548C89.1981 56.6422 88.4939 57.1075 88.4939 57.6859Z" fill="white"/>
<path d="M91.2979 54.2656C87.0101 53.838 83.7156 57.7109 83.7156 61.7096C83.7156 62.1246 84.2311 62.2 84.4449 61.9108C86.1927 59.5091 86.7586 57.1451 89.9525 56.2272C94.6679 54.8691 97.2582 59.7103 97.5223 63.5077C97.56 63.8724 97.8743 63.5455 97.9121 63.1682C98.3396 58.6289 96.0762 54.7434 91.2979 54.2656Z" fill="#2C2C2C"/>
<path d="M99.7606 51.7757C99.7606 51.7757 90.4052 42.4455 80.3457 53.5235C80.3331 53.5235 89.0346 47.9531 99.7606 51.7757Z" fill="#2C2C2C"/>
<path d="M127.915 61.6971C127.915 65.2808 124.809 68.1855 120.986 68.1855C117.151 68.1855 114.058 65.2808 114.058 61.6971C114.058 58.1134 117.163 55.2087 120.986 55.2087C124.809 55.2087 127.915 58.1134 127.915 61.6971Z" fill="white"/>
<path fill-rule="evenodd" clip-rule="evenodd" d="M120.986 55.7115C117.41 55.7115 114.561 58.4218 114.561 61.6969C114.561 64.9726 117.398 67.6823 120.986 67.6823C124.563 67.6823 127.412 64.9721 127.412 61.6969C127.412 58.4218 124.563 55.7115 120.986 55.7115ZM113.555 61.6969C113.555 57.8047 116.918 54.7056 120.986 54.7056C125.055 54.7056 128.418 57.8047 128.418 61.6969C128.418 65.5892 125.055 68.6883 120.986 68.6883C116.904 68.6883 113.555 65.5886 113.555 61.6969Z" fill="#2C2C2C"/>
<path d="M117.591 61.2945C117.591 64.2495 119.515 66.6512 121.879 66.6512C124.243 66.6512 126.167 64.2495 126.167 61.2945C126.167 58.3395 124.243 55.9378 121.879 55.9378C119.515 55.9252 117.591 58.3269 117.591 61.2945Z" fill="#50BFD7"/>
<path d="M118.836 61.2947C118.836 63.3946 120.194 65.0921 121.879 65.0921C123.564 65.0921 124.922 63.3946 124.922 61.2947C124.922 59.1947 123.564 57.4846 121.879 57.4846C120.194 57.4846 118.836 59.1822 118.836 61.2947Z" fill="#2C2C2C"/>
<path d="M118.635 57.6856C118.635 58.2641 119.339 58.7167 120.207 58.7167C121.074 58.7167 121.778 58.2515 121.778 57.6856C121.778 57.1072 121.074 56.6545 120.207 56.6545C119.352 56.642 118.635 57.1072 118.635 57.6856Z" fill="white"/>
<path d="M121.439 54.2656C117.151 53.838 113.856 57.7109 113.856 61.7096C113.856 62.1246 114.372 62.2 114.586 61.9108C116.334 59.5091 116.899 57.1451 120.093 56.2272C124.809 54.8691 127.399 59.7103 127.663 63.5077C127.701 63.8724 128.015 63.5455 128.053 63.1682C128.48 58.6289 126.23 54.7434 121.439 54.2656Z" fill="#2C2C2C"/>
<path d="M129.901 50.7574C129.901 50.7574 120.546 41.4272 110.487 52.5052C110.487 52.5052 119.188 46.9348 129.901 50.7574Z" fill="#2C2C2C"/>
<path d="M81.9553 376.572C81.9553 376.572 82.6972 378.924 82.911 379.288C83.1373 379.653 88.909 381.64 95.9506 381.489C103.269 381.338 106.614 379.213 106.714 376.56H81.9553V376.572Z" fill="#50BFD7"/>
<path fill-rule="evenodd" clip-rule="evenodd" d="M81.4521 376.057H107.237L107.217 376.579C107.157 378.149 106.13 379.48 104.264 380.413C102.406 381.342 99.6566 381.916 95.9609 381.992M81.4521 376.057V376.56V376.057ZM81.9551 376.573L81.4755 376.724L81.4521 376.65V376.56M81.9551 376.573C81.4755 376.724 81.4754 376.724 81.4755 376.724L81.484 376.751C81.4896 376.769 81.4977 376.794 81.5082 376.827C81.529 376.893 81.559 376.986 81.5957 377.1C81.6689 377.327 81.769 377.635 81.8759 377.954C81.9825 378.272 82.097 378.605 82.199 378.884C82.2938 379.142 82.3958 379.405 82.4769 379.543L82.4801 379.549L82.4834 379.554C82.5337 379.635 82.596 379.69 82.6308 379.718C82.6716 379.751 82.7147 379.78 82.7545 379.804C82.8344 379.853 82.931 379.902 83.037 379.951C83.2507 380.049 83.5391 380.162 83.8897 380.283C84.593 380.525 85.5742 380.808 86.7656 381.073C89.148 381.604 92.3922 382.069 95.9609 381.992M82.6411 377.063H106.139C105.921 377.96 105.207 378.817 103.814 379.513C102.144 380.348 99.5626 380.912 95.9401 380.986L95.9396 380.986C92.4669 381.061 89.3044 380.608 86.9841 380.091C85.8241 379.833 84.8799 379.56 84.2172 379.332C83.8849 379.218 83.6303 379.117 83.4575 379.037C83.3933 379.008 83.3452 378.983 83.3111 378.964C83.3001 378.94 83.2876 378.91 83.2736 378.876C83.2363 378.785 83.1922 378.67 83.1435 378.537C83.0463 378.272 82.9352 377.949 82.8297 377.634C82.7625 377.434 82.6979 377.237 82.6411 377.063Z" fill="#2C2C2C"/>
<path d="M81.968 377.076C83.0745 378.069 84.5206 378.823 85.5768 379.163C88.2049 380.031 91.0844 380.358 93.8382 380.508C96.768 380.659 99.9871 380.609 102.728 379.452C104.212 378.823 105.47 377.905 106.639 376.862C107.167 375.567 107.305 374.095 107.268 372.587C107.18 369.87 106.563 367.242 106.086 364.577C106.01 364.187 105.947 363.81 105.884 363.432C105.746 361.697 105.62 359.949 105.507 358.227C105.47 357.585 105.394 357.019 105.407 356.378C105.419 355.951 105.57 355.259 105.457 354.857C105.444 354.806 105.419 354.769 105.407 354.731C105.407 354.668 105.419 354.605 105.407 354.542C104.916 354.14 104.401 353.763 103.81 353.599C103.382 353.675 102.955 353.813 102.678 353.926C102.238 354.102 101.848 354.328 101.496 354.593C100.628 353.411 98.4907 352.857 97.2836 352.807C95.3974 352.732 92.8826 353.058 91.3862 354.442C91.1347 354.203 90.7449 354.077 90.4054 354.014C90.3299 354.002 90.2419 353.989 90.1665 353.976C89.2863 354.316 89.5126 356.479 89.4246 357.095C89.2988 357.912 89.1731 358.73 88.9719 359.522C88.5695 361.043 87.9911 362.439 87.1109 363.747C86.1678 365.155 84.9355 366.375 83.8541 367.67C83.7032 367.934 83.5398 368.198 83.3889 368.45C82.232 370.311 81.289 373.014 81.5404 375.227C81.6033 375.931 81.7542 376.535 81.968 377.076Z" fill="#50BFD7"/>
<path fill-rule="evenodd" clip-rule="evenodd" d="M94.0743 352.587C95.1793 352.33 96.3262 352.265 97.3035 352.304L97.3043 352.304C97.9613 352.332 98.8491 352.493 99.6907 352.803C100.368 353.053 101.064 353.416 101.579 353.924C101.86 353.747 102.162 353.591 102.489 353.46C102.794 353.335 103.255 353.186 103.722 353.104L103.834 353.084L103.944 353.114C104.645 353.308 105.231 353.748 105.725 354.153L105.864 354.267L105.9 354.443C105.915 354.522 105.916 354.593 105.914 354.639C105.924 354.664 105.934 354.693 105.943 354.726C106.025 355.026 106.004 355.383 105.98 355.653C105.968 355.78 105.956 355.892 105.944 355.992C105.927 356.145 105.913 356.272 105.909 356.39C105.901 356.802 105.931 357.163 105.963 357.563C105.979 357.761 105.996 357.968 106.009 358.195C106.122 359.908 106.247 361.646 106.384 363.371C106.446 363.742 106.507 364.106 106.579 364.481L106.58 364.484L106.581 364.488C106.679 365.037 106.784 365.589 106.89 366.143C107.291 368.244 107.699 370.383 107.77 372.57L107.77 372.572L107.77 372.574C107.809 374.115 107.67 375.665 107.104 377.052L107.061 377.159L106.974 377.237C105.781 378.302 104.477 379.257 102.924 379.915L102.924 379.915C100.07 381.12 96.7507 381.162 93.8121 381.011L93.8105 381.01C91.0422 380.859 88.1113 380.529 85.4209 379.641C84.3035 379.282 82.7949 378.494 81.6318 377.45L81.5436 377.37L81.5 377.26C81.2689 376.676 81.1072 376.027 81.0398 375.278C80.7734 372.913 81.7713 370.1 82.9594 368.187C83.0037 368.113 83.048 368.04 83.0921 367.967C83.2028 367.785 83.3123 367.604 83.4172 367.42L83.4393 367.382L83.4678 367.347C83.8393 366.903 84.2161 366.479 84.5877 366.061C85.3414 365.214 86.0732 364.392 86.6928 363.467L86.6934 363.466C87.5361 362.214 88.0939 360.873 88.4848 359.395C88.6785 358.632 88.8007 357.841 88.9268 357.021C88.9421 356.912 88.9453 356.719 88.9501 356.428C88.9503 356.415 88.9505 356.401 88.9508 356.387C88.9557 356.092 88.9633 355.735 88.9977 355.383C89.0316 355.035 89.0944 354.659 89.2243 354.333C89.3528 354.012 89.579 353.664 89.9853 353.507L90.1135 353.458L90.249 353.48C90.283 353.486 90.3207 353.492 90.3622 353.498L90.3639 353.498C90.4036 353.504 90.4471 353.511 90.4879 353.518L90.4923 353.519L90.4968 353.519C90.7473 353.566 91.0651 353.65 91.3562 353.808C92.1419 353.194 93.1052 352.813 94.0743 352.587ZM94.3027 353.567C93.3011 353.801 92.3896 354.199 91.7274 354.811L91.3813 355.131L91.0396 354.806C90.8972 354.671 90.6291 354.567 90.318 354.509C90.3038 354.507 90.2891 354.505 90.2737 354.502C90.2398 354.541 90.1996 354.604 90.1585 354.707C90.0805 354.902 90.0294 355.168 89.9989 355.481C89.9688 355.788 89.9615 356.109 89.9566 356.404C89.9561 356.43 89.9557 356.457 89.9553 356.483C89.9514 356.733 89.9474 356.99 89.9223 357.166L89.9219 357.168L89.9197 357.183C89.7952 357.992 89.6664 358.83 89.4592 359.645L89.4586 359.648L89.458 359.65C89.0442 361.215 88.4454 362.664 87.5283 364.027C86.8708 365.009 86.0596 365.921 85.2804 366.798C84.931 367.191 84.588 367.577 84.2682 367.958C84.163 368.141 84.0515 368.325 83.9459 368.5C83.9027 368.571 83.8604 368.641 83.82 368.708L83.8179 368.712L83.8158 368.715C82.6923 370.522 81.806 373.111 82.04 375.17L82.0407 375.176L82.0412 375.182C82.0956 375.791 82.2196 376.313 82.3932 376.78C83.4307 377.683 84.7636 378.373 85.7305 378.684L85.7324 378.684L85.7343 378.685C88.2991 379.532 91.1262 379.856 93.8645 380.006C96.7853 380.156 99.9041 380.098 102.532 378.989C103.911 378.404 105.096 377.554 106.215 376.565C106.672 375.386 106.8 374.033 106.765 372.601C106.696 370.501 106.308 368.463 105.909 366.373C105.802 365.809 105.694 365.242 105.591 364.669C105.515 364.274 105.451 363.892 105.389 363.518L105.385 363.494L105.383 363.472C105.244 361.734 105.118 359.984 105.005 358.259L105.005 358.258L105.005 358.256C104.994 358.075 104.98 357.891 104.964 357.704C104.93 357.276 104.894 356.831 104.904 356.368L104.904 356.366L104.904 356.363C104.908 356.208 104.931 356.003 104.951 355.816C104.961 355.725 104.971 355.638 104.978 355.562C105.003 355.285 105.001 355.1 104.974 354.997C104.973 354.996 104.972 354.994 104.971 354.992L104.969 354.987C104.966 354.981 104.963 354.974 104.959 354.965C104.952 354.949 104.94 354.922 104.929 354.89L104.903 354.812V354.783C104.522 354.482 104.162 354.244 103.782 354.116C103.434 354.188 103.093 354.3 102.868 354.391L102.866 354.392L102.865 354.393C102.468 354.551 102.117 354.755 101.798 354.995L101.391 355.3L101.09 354.89C100.742 354.416 100.1 354.026 99.3431 353.747C98.5974 353.473 97.8129 353.332 97.2629 353.309C96.3541 353.273 95.3006 353.334 94.3027 353.567Z" fill="#2C2C2C"/>
<path d="M136.478 376.572C136.478 376.572 135.748 378.924 135.522 379.288C135.296 379.653 129.524 381.64 122.482 381.489C115.164 381.338 111.819 379.213 111.719 376.56H136.478V376.572Z" fill="#50BFD7"/>
<path fill-rule="evenodd" clip-rule="evenodd" d="M111.197 376.057H136.981V376.649L136.958 376.722L136.478 376.573C136.958 376.722 136.958 376.722 136.958 376.722L136.958 376.722L136.958 376.722L136.95 376.749C136.944 376.766 136.936 376.792 136.926 376.825C136.906 376.89 136.876 376.984 136.84 377.098C136.767 377.326 136.668 377.633 136.562 377.953C136.456 378.271 136.342 378.605 136.239 378.885C136.144 379.142 136.039 379.41 135.95 379.554C135.899 379.635 135.837 379.69 135.802 379.718C135.761 379.751 135.718 379.78 135.679 379.804C135.599 379.853 135.502 379.902 135.396 379.951C135.182 380.049 134.894 380.162 134.543 380.283C133.84 380.525 132.859 380.808 131.667 381.073C129.285 381.604 126.041 382.069 122.472 381.992M135.795 377.063H112.294C112.512 377.96 113.226 378.817 114.619 379.513C116.289 380.348 118.87 380.912 122.493 380.986L122.493 380.986C125.966 381.061 129.129 380.608 131.449 380.091C132.609 379.833 133.553 379.56 134.216 379.332C134.548 379.218 134.803 379.117 134.976 379.037C135.042 379.007 135.091 378.982 135.125 378.963C135.137 378.938 135.15 378.908 135.164 378.873C135.202 378.783 135.246 378.669 135.295 378.536C135.393 378.272 135.503 377.95 135.608 377.635C135.675 377.434 135.739 377.238 135.795 377.063ZM111.197 376.057L111.216 376.579L111.197 376.057ZM111.216 376.579C111.276 378.149 112.303 379.48 114.169 380.413L111.216 376.579ZM114.169 380.413C116.027 381.342 118.776 381.916 122.472 381.992L114.169 380.413Z" fill="#2C2C2C"/>
<path d="M136.465 377.076C135.359 378.069 133.913 378.823 132.856 379.163C130.228 380.031 127.349 380.358 124.595 380.508C121.665 380.659 118.446 380.609 115.705 379.452C114.221 378.823 112.964 377.905 111.794 376.862C111.266 375.567 111.128 374.095 111.165 372.587C111.254 369.87 111.87 367.242 112.347 364.577C112.423 364.187 112.486 363.81 112.549 363.432C112.687 361.697 112.813 359.949 112.926 358.227C112.976 357.585 113.039 357.019 113.026 356.378C113.014 355.951 112.863 355.259 112.976 354.857C112.989 354.806 113.014 354.769 113.026 354.731C113.026 354.668 113.014 354.605 113.026 354.542C113.517 354.14 114.02 353.763 114.623 353.599C115.051 353.675 115.478 353.813 115.755 353.926C116.195 354.102 116.585 354.328 116.937 354.593C117.805 353.411 119.942 352.857 121.15 352.807C123.036 352.732 125.551 353.058 127.047 354.442C127.298 354.203 127.688 354.077 128.028 354.014C128.103 354.002 128.191 353.989 128.267 353.976C129.147 354.316 128.921 356.479 129.009 357.095C129.134 357.912 129.26 358.73 129.461 359.522C129.864 361.043 130.442 362.439 131.322 363.747C132.265 365.155 133.498 366.375 134.579 367.67C134.73 367.934 134.893 368.198 135.044 368.45C136.201 370.311 137.144 373.014 136.893 375.227C136.83 375.931 136.679 376.535 136.465 377.076Z" fill="#50BFD7"/>
<path fill-rule="evenodd" clip-rule="evenodd" d="M124.13 353.567C123.132 353.334 122.079 353.273 121.17 353.309C120.62 353.332 119.836 353.473 119.09 353.747C118.333 354.026 117.691 354.416 117.343 354.89L117.042 355.3L116.635 354.995C116.316 354.755 115.965 354.551 115.568 354.393L115.567 354.392L115.565 354.391C115.34 354.3 114.998 354.187 114.65 354.116C114.264 354.243 113.911 354.48 113.53 354.782V354.812L113.504 354.89C113.493 354.922 113.481 354.949 113.474 354.965C113.47 354.974 113.467 354.982 113.464 354.987C113.462 354.992 113.46 354.995 113.459 354.997C113.432 355.1 113.43 355.285 113.455 355.562C113.462 355.638 113.472 355.725 113.482 355.816C113.502 356.003 113.525 356.208 113.529 356.363L113.529 356.366L113.529 356.368C113.54 356.917 113.498 357.419 113.456 357.923C113.446 358.036 113.437 358.149 113.428 358.263C113.314 359.986 113.189 361.735 113.05 363.472L113.048 363.494L113.044 363.517C112.982 363.892 112.918 364.273 112.842 364.669C112.739 365.242 112.631 365.809 112.524 366.373C112.125 368.463 111.737 370.501 111.668 372.601C111.633 374.033 111.761 375.386 112.218 376.565C113.337 377.554 114.522 378.405 115.901 378.989C118.529 380.098 121.648 380.156 124.568 380.006C127.307 379.856 130.134 379.532 132.699 378.685L132.701 378.684L132.702 378.684C133.669 378.373 135.002 377.683 136.04 376.78C136.213 376.313 136.337 375.791 136.392 375.182L136.392 375.176L136.393 375.17C136.627 373.111 135.741 370.522 134.617 368.715L134.615 368.712L134.613 368.708C134.573 368.641 134.53 368.571 134.487 368.5C134.382 368.325 134.27 368.141 134.165 367.958C133.845 367.577 133.502 367.191 133.153 366.798C132.373 365.921 131.562 365.009 130.905 364.027C129.988 362.664 129.389 361.215 128.975 359.65L128.974 359.648L128.974 359.645C128.767 358.83 128.638 357.992 128.513 357.183L128.511 357.168L128.511 357.166C128.486 356.99 128.482 356.733 128.478 356.483C128.477 356.457 128.477 356.43 128.476 356.404C128.472 356.109 128.464 355.788 128.434 355.481C128.404 355.168 128.352 354.902 128.275 354.707C128.233 354.604 128.193 354.541 128.159 354.502C128.144 354.505 128.129 354.507 128.115 354.509C127.804 354.567 127.536 354.671 127.393 354.806L127.052 355.131L126.706 354.811C126.043 354.199 125.132 353.801 124.13 353.567ZM127.077 353.808C126.291 353.194 125.328 352.813 124.359 352.587C123.254 352.33 122.107 352.265 121.13 352.304L121.129 352.304C120.472 352.332 119.584 352.493 118.742 352.803C118.065 353.053 117.369 353.416 116.854 353.924C116.573 353.747 116.271 353.591 115.944 353.46C115.639 353.335 115.178 353.186 114.711 353.104L114.6 353.084L114.492 353.114C113.775 353.308 113.199 353.75 112.708 354.153L112.569 354.267L112.533 354.443C112.518 354.522 112.517 354.593 112.519 354.639C112.509 354.664 112.499 354.693 112.49 354.726C112.408 355.026 112.429 355.383 112.453 355.653C112.465 355.78 112.477 355.892 112.489 355.992C112.506 356.145 112.52 356.272 112.524 356.39C112.533 356.882 112.496 357.322 112.455 357.82C112.445 357.939 112.434 358.061 112.425 358.187L112.424 358.19L112.424 358.193C112.311 359.907 112.186 361.645 112.049 363.371C111.987 363.742 111.926 364.106 111.854 364.481L111.853 364.484L111.852 364.488C111.754 365.037 111.649 365.589 111.543 366.143C111.142 368.244 110.734 370.383 110.663 372.57L110.663 372.572L110.663 372.574C110.624 374.115 110.763 375.665 111.329 377.052L111.372 377.159L111.459 377.237C112.652 378.302 113.956 379.257 115.509 379.915L115.509 379.915C118.363 381.12 121.682 381.162 124.621 381.011L124.623 381.01C127.391 380.859 130.322 380.529 133.012 379.641C134.13 379.281 135.638 378.494 136.801 377.45L136.889 377.37L136.933 377.26C137.164 376.676 137.326 376.027 137.393 375.278C137.66 372.913 136.662 370.1 135.474 368.187C135.429 368.114 135.385 368.04 135.341 367.968C135.23 367.785 135.121 367.604 135.016 367.42L134.994 367.382L134.965 367.347C134.594 366.903 134.217 366.479 133.845 366.061C133.092 365.214 132.36 364.392 131.74 363.467L131.74 363.466C130.897 362.214 130.339 360.873 129.948 359.395C129.755 358.632 129.632 357.841 129.506 357.021C129.491 356.912 129.488 356.719 129.483 356.428L129.482 356.387C129.477 356.092 129.47 355.735 129.435 355.383C129.401 355.035 129.339 354.659 129.209 354.333C129.08 354.012 128.854 353.664 128.448 353.507L128.32 353.458L128.184 353.48C128.15 353.486 128.112 353.492 128.071 353.498L128.069 353.498C128.029 353.504 127.986 353.511 127.945 353.518L127.941 353.519L127.936 353.519C127.686 353.566 127.368 353.65 127.077 353.808ZM112.556 354.553C112.556 354.553 112.556 354.553 112.556 354.553V354.553Z" fill="#2C2C2C"/>
<path fill-rule="evenodd" clip-rule="evenodd" d="M73.8197 56.9692V57.2207H72.8137V56.9692H73.8197Z" fill="#2C2C2C"/>
<path fill-rule="evenodd" clip-rule="evenodd" d="M79.1007 59.7354V59.9868H78.0947V59.7354H79.1007Z" fill="#2C2C2C"/>
<path d="M107.708 58.2518C109.43 58.6164 108.789 59.7355 108.789 59.899C108.789 60.0625 109.43 69.3675 117.742 71.8195C126.054 74.2715 131.033 69.4555 132.479 67.0413C133.925 64.627 135.132 58.8931 135.485 58.453C135.849 58.0129 137.572 57.2458 137.572 57.2458L137.773 54.995L135.61 54.3537C135.61 54.3537 130.153 51.864 122.118 51.7508C114.095 51.6251 109.556 56.2524 109.556 56.2524C107.293 55.5357 104.489 55.4351 101.923 56.2524C101.923 56.2524 97.3841 51.6376 89.3617 51.7508C81.3392 51.8766 75.8693 54.3537 75.8693 54.3537L73.7065 54.995L73.9077 57.2458C73.9077 57.2458 75.6304 58.0129 75.9951 58.453C76.3597 58.8931 77.5543 64.6396 79.0004 67.0413C80.4464 69.4555 85.4259 74.2715 93.7375 71.8195C102.049 69.3675 102.691 60.0625 102.691 59.899C102.691 59.7355 102.049 58.6164 103.772 58.2518C105.268 57.9374 106.211 57.9374 107.708 58.2518ZM127.651 69.8957C121.313 73.7057 113.718 69.8579 111.43 64.8407C109.141 59.8236 111.065 57.1704 111.065 57.1704C114.9 50.9335 130.329 50.6694 132.982 57.4093C133.435 58.541 134.001 66.0856 127.651 69.8957ZM78.4848 57.4093C81.138 50.6568 96.5794 50.9335 100.402 57.1704C100.402 57.1704 102.326 59.8236 100.037 64.8407C97.7488 69.8579 90.1664 73.7057 83.8164 69.8957C77.4789 66.0856 78.0447 58.541 78.4848 57.4093Z" fill="#2C2C2C"/>
<path d="M111.593 125.776H101.936C99.3708 125.776 97.2834 127.863 97.2834 130.429V140.086C97.2834 142.651 99.3708 144.738 101.936 144.738H111.593C114.158 144.738 116.246 142.651 116.246 140.086V130.429C116.246 127.863 114.171 125.776 111.593 125.776ZM94.7183 121.664C93.2471 121.664 92.0525 122.859 92.0525 124.33C92.0525 125.801 93.2471 126.996 94.7183 126.996C96.1895 126.996 97.384 125.801 97.384 124.33C97.384 122.859 96.1895 121.664 94.7183 121.664Z" fill="white"/>
<path d="M110.914 131.535C110.298 129.888 108.726 128.794 106.966 128.794H104.35L109.518 141.897H115.063L110.914 131.535ZM100.351 138.137L98.8425 141.897H104.35L106.915 135.396H104.3C102.539 135.396 100.968 136.49 100.351 138.137ZM101.207 132.051C102.112 132.051 102.854 131.309 102.854 130.404C102.854 129.498 102.112 128.756 101.207 128.756C100.301 128.756 99.5593 129.498 99.5593 130.404C99.5593 131.309 100.301 132.051 101.207 132.051Z" fill="#50BFD7"/>
<path fill-rule="evenodd" clip-rule="evenodd" d="M111.273 89.8707C105.782 86.5701 101.343 88.5301 99.8941 89.7886C99.5582 90.0802 99.0496 90.0443 98.758 89.7085C98.4664 89.3727 98.5023 88.8641 98.8381 88.5725C100.749 86.9131 105.944 84.7879 112.103 88.4904C112.484 88.7195 112.607 89.2143 112.378 89.5954C112.149 89.9766 111.654 90.0999 111.273 89.8707Z" fill="#2C2C2C"/>
</svg>
