<svg width="120" height="91" viewBox="0 0 120 91" fill="none" xmlns="http://www.w3.org/2000/svg">
<path d="M65.4676 87.4005C65.4676 87.4005 86.5845 88.3878 99.9418 64.5235C113.299 40.6592 97.5823 18.707 73.303 13.9634C49.0238 9.21984 36.9275 -8.59091 15.2872 5.04311C-6.35309 18.6771 5.67262 91.2871 65.4676 87.4005Z" fill="#70CDE0"/>
<path opacity="0.4" d="M65.4676 87.4005C65.4676 87.4005 86.5845 88.3878 99.9418 64.5235C113.299 40.6592 97.5823 18.707 73.303 13.9634C49.0238 9.21984 36.9275 -8.59091 15.2872 5.04311C-6.35309 18.6771 5.67262 91.2871 65.4676 87.4005Z" fill="white"/>
<path d="M44.6274 86.9917H68.0122V86.9917H44.6274V86.9917Z" stroke="#263238" stroke-width="1.10627" stroke-linecap="round" stroke-linejoin="round"/>
<path d="M63.1438 79.9604V71.71H49.6498V79.9604C49.6519 81.374 49.0847 82.7308 48.0723 83.7338L44.9967 86.7875H67.7968L64.7236 83.7338C63.7095 82.7317 63.1413 81.3745 63.1438 79.9604Z" fill="white" stroke="#263238" stroke-width="1.10627" stroke-linecap="round" stroke-linejoin="round"/>
<path opacity="0.44" d="M49.7526 71.71V79.803C49.752 80.4303 49.6359 81.0523 49.4097 81.6391H63.384C63.1589 81.052 63.0428 80.4302 63.0411 79.803V71.71H49.7526Z" fill="#51C0D7"/>
<path d="M63.0162 72.0778H49.7774V78.3294H63.0162V72.0778Z" fill="#263238" stroke="#263238" stroke-width="1.10627" stroke-miterlimit="10"/>
<path d="M24.193 20.9614H88.5872C88.9965 20.9611 89.4018 21.0419 89.78 21.1993C90.1581 21.3566 90.5016 21.5873 90.7908 21.8782C91.08 22.1691 91.3092 22.5144 91.4653 22.8944C91.6214 23.2745 91.7013 23.6817 91.7004 24.0928V72.3745C91.6973 73.2737 91.3389 74.135 90.7038 74.769C90.0687 75.4029 89.209 75.7576 88.3136 75.7552H24.4689C23.5737 75.7552 22.7152 75.398 22.0822 74.7623C21.4492 74.1265 21.0936 73.2643 21.0936 72.3652V24.0812C21.0948 23.2554 21.4215 22.4636 22.0023 21.879C22.5831 21.2944 23.3707 20.9645 24.193 20.9614Z" fill="#263238" stroke="#263238" stroke-width="1.10627" stroke-miterlimit="10"/>
<path d="M21.0935 69.5035H91.7002V72.413C91.7002 73.2994 91.3447 74.1495 90.7118 74.7763C90.0789 75.403 89.2206 75.7551 88.3255 75.7551H24.4797C23.5847 75.7551 22.7263 75.403 22.0934 74.7763C21.4605 74.1495 21.105 73.2994 21.105 72.413V69.5035H21.0935Z" fill="white" stroke="#263238" stroke-width="1.10627" stroke-miterlimit="10"/>
<path d="M88.8111 24.4342H24.3345V66.6614H88.8111V24.4342Z" fill="white" stroke="#263238" stroke-width="0.829701" stroke-linecap="round" stroke-linejoin="round"/>
<path d="M5.18037 87.651H1" stroke="#2C2C2C" stroke-width="0.75" stroke-miterlimit="10" stroke-linecap="round"/>
<path d="M111.019 87.6509H7.46007" stroke="#2C2C2C" stroke-width="0.75" stroke-miterlimit="10" stroke-linecap="round"/>
<path d="M119 87.6509H112.349" stroke="#2C2C2C" stroke-width="0.75" stroke-miterlimit="10" stroke-linecap="round"/>
<path d="M85.7228 50.5284L76.0495 87.4828H97.6231L87.9499 50.5284C87.8911 50.2772 87.7491 50.0532 87.5469 49.8929C87.3447 49.7326 87.0943 49.6454 86.8363 49.6454C86.5783 49.6454 86.3279 49.7326 86.1257 49.8929C85.9236 50.0532 85.7816 50.2772 85.7228 50.5284Z" fill="#2E9DB6" stroke="#2C2C2C" stroke-linecap="round" stroke-linejoin="round"/>
<path d="M76.0495 87.4824H93.6256L84.8376 53.9058L76.0495 87.4824Z" fill="#2C2C2C" stroke="#2C2C2C" stroke-linecap="round" stroke-linejoin="round"/>
<path d="M99.8006 86.6719H72.8912C72.109 86.6719 71.4749 87.306 71.4749 88.0882V88.2688C71.4749 89.051 72.109 89.6851 72.8912 89.6851H99.8006C100.583 89.6851 101.217 89.051 101.217 88.2688V88.0882C101.217 87.306 100.583 86.6719 99.8006 86.6719Z" fill="#2E9DB6" stroke="#2C2C2C" stroke-linecap="round" stroke-linejoin="round"/>
<path d="M90.5912 86.6719H72.8912C72.109 86.6719 71.4749 87.306 71.4749 88.0882V88.2688C71.4749 89.051 72.109 89.6851 72.8912 89.6851H90.5912C91.3734 89.6851 92.0075 89.051 92.0075 88.2688V88.0882C92.0075 87.306 91.3734 86.6719 90.5912 86.6719Z" fill="#2C2C2C" stroke="#2C2C2C" stroke-linecap="round" stroke-linejoin="round"/>
<path d="M79.9094 72.7427H93.7642L92.0895 66.3411H81.5842L79.9094 72.7427Z" fill="white" stroke="#2C2C2C" stroke-linecap="round" stroke-linejoin="round"/>
<path d="M79.9094 72.7427H89.7703L88.0955 66.3411H81.5842L79.9094 72.7427Z" fill="#BABABA" stroke="#2C2C2C" stroke-linecap="round" stroke-linejoin="round"/>
</svg>
