<svg width="378" height="282" viewBox="0 0 378 282" fill="none" xmlns="http://www.w3.org/2000/svg">
<path d="M189.018 237.985C189.018 237.985 246.441 240.669 282.764 175.775C319.086 110.881 276.347 51.187 210.325 38.2879C144.303 25.3888 111.41 -23.0438 52.5634 14.0311C-6.28285 51.1059 26.4185 248.553 189.018 237.985Z" fill="#70CDE0"/>
<path opacity="0.4" d="M189.018 237.985C189.018 237.985 246.441 240.669 282.764 175.775C319.086 110.881 276.347 51.187 210.325 38.2879C144.303 25.3888 111.41 -23.0438 52.5634 14.0311C-6.28285 51.1059 26.4185 248.553 189.018 237.985Z" fill="white"/>
<path d="M39.7264 144.331L48.9528 122.073C49.3761 121.058 48.847 120.236 47.7742 120.236H45.9174C45.7597 120.254 45.5999 120.241 45.4474 120.197C45.2949 120.153 45.1528 120.079 45.0295 119.979C44.9062 119.879 44.8041 119.755 44.7294 119.615C44.6547 119.475 44.6089 119.321 44.5945 119.163L44.532 118.345C44.5171 118.188 44.4708 118.034 44.3958 117.895C44.3208 117.755 44.2187 117.632 44.0954 117.533C43.9722 117.433 43.8303 117.359 43.6781 117.315C43.5259 117.272 43.3664 117.259 43.2091 117.277H34.3916C33.6214 117.314 32.8926 117.637 32.3471 118.182L31.6304 118.874C31.0883 119.421 30.3601 119.744 29.5907 119.779H18.3583C17.7864 119.811 17.2341 119.999 16.7617 120.323C16.2892 120.647 15.9147 121.094 15.6789 121.616L6.53906 144.331H39.7264Z" fill="#51C0D7"/>
<g opacity="0.3">
<path opacity="0.3" d="M39.7264 144.331L48.9528 122.073C49.3761 121.058 48.847 120.236 47.7742 120.236H45.9174C45.7597 120.254 45.5999 120.241 45.4474 120.197C45.2949 120.153 45.1528 120.079 45.0295 119.979C44.9062 119.879 44.8041 119.755 44.7294 119.615C44.6547 119.475 44.6089 119.321 44.5945 119.163L44.532 118.345C44.5171 118.188 44.4708 118.034 44.3958 117.895C44.3208 117.755 44.2187 117.632 44.0954 117.533C43.9722 117.433 43.8303 117.359 43.6781 117.315C43.5259 117.272 43.3664 117.259 43.2091 117.277H34.3916C33.6214 117.314 32.8926 117.637 32.3471 118.182L31.6304 118.874C31.0883 119.421 30.3601 119.744 29.5907 119.779H18.3583C17.7864 119.811 17.2341 119.999 16.7617 120.323C16.2892 120.647 15.9147 121.094 15.6789 121.616L6.53906 144.331H39.7264Z" fill="black"/>
</g>
<path d="M41.2514 136.769L44.7342 123.3C44.9603 122.415 44.383 121.525 43.5749 121.525H16.3044C16.0265 121.538 15.7609 121.643 15.55 121.825C15.339 122.006 15.1948 122.253 15.1403 122.526L10.0749 142.792C9.8536 143.682 10.2096 144.235 11.037 144.206H38.4565C38.7304 144.19 38.991 144.083 39.198 143.903C39.4051 143.723 39.5469 143.479 39.6014 143.211L41.2514 136.769Z" fill="#E0E0E0"/>
<path d="M39.3699 143.721L40.8516 122.555C40.8634 122.377 40.8386 122.199 40.7787 122.031C40.7188 121.864 40.625 121.71 40.5032 121.58C40.3813 121.45 40.2341 121.347 40.0706 121.276C39.9071 121.205 39.7308 121.169 39.5527 121.169H11.2961V143.74L39.3699 143.721Z" fill="#EBEBEB"/>
<path d="M39.6822 144.207L36.3148 122.367C36.2368 122.019 36.0419 121.709 35.7626 121.487C35.4834 121.266 35.1367 121.147 34.7803 121.15H6.20142C5.94415 121.146 5.69001 121.207 5.46208 121.326C5.23415 121.445 5.03965 121.62 4.89627 121.834C4.75289 122.047 4.66516 122.293 4.64107 122.549C4.61697 122.806 4.65726 123.064 4.75828 123.3L10.9301 143.312L39.6822 144.207Z" fill="#FAFAFA"/>
<path d="M39.7257 144.322L32.7938 123.868C32.6655 123.456 32.4105 123.094 32.065 122.835C31.7196 122.576 31.3013 122.433 30.8696 122.425H1.40082C1.17356 122.431 0.9511 122.492 0.751554 122.601C0.552008 122.71 0.381027 122.864 0.252544 123.052C0.124061 123.239 0.0417108 123.455 0.012205 123.68C-0.0173009 123.905 0.0068731 124.135 0.082755 124.349L6.52876 144.327L39.7257 144.322Z" fill="#51C0D7"/>
<path d="M171.347 212.435V190H134.653V212.435C134.659 216.279 133.116 219.969 130.363 222.696L122 231H184L175.643 222.696C172.885 219.971 171.34 216.281 171.347 212.435Z" fill="white" stroke="#263238" stroke-width="1.10627" stroke-linecap="round" stroke-linejoin="round"/>
<path opacity="0.44" d="M134.932 190V212.822C134.931 214.591 134.615 216.345 134 218H172C171.388 216.344 171.072 214.591 171.068 212.822V190H134.932Z" fill="#51C0D7"/>
<path d="M171 191H135V208H171V191Z" fill="#263238" stroke="#263238" stroke-width="1.10627" stroke-miterlimit="10"/>
<path d="M184 231H122V232H184V231Z" fill="white" stroke="#263238" stroke-width="1.10627" stroke-linecap="round" stroke-linejoin="round"/>
<path d="M65.428 52H240.534C241.647 51.9992 242.75 52.2189 243.778 52.6467C244.806 53.0745 245.74 53.7019 246.527 54.4929C247.313 55.2839 247.936 56.223 248.361 57.2564C248.785 58.2898 249.002 59.3972 249 60.515V191.807C248.992 194.252 248.017 196.594 246.29 198.318C244.563 200.042 242.225 201.007 239.79 201H66.1783C63.744 201 61.4095 200.029 59.6883 198.3C57.967 196.571 57 194.227 57 191.782V60.4836C57.0033 58.2379 57.8917 56.0848 59.471 54.4951C61.0503 52.9054 63.1921 52.0083 65.428 52Z" fill="#263238" stroke="#263238" stroke-width="1.10627" stroke-miterlimit="10"/>
<path d="M57 184H249V191.912C249 194.322 248.033 196.634 246.312 198.338C244.591 200.042 242.257 201 239.823 201H66.208C63.7742 201 61.4401 200.042 59.7191 198.338C57.9981 196.634 57.0313 194.322 57.0313 191.912V184H57Z" fill="white" stroke="#263238" stroke-width="1.10627" stroke-miterlimit="10"/>
<path d="M241.144 61.7609H65.8132V176.589H241.144V61.7609Z" fill="white" stroke="#263238" stroke-width="0.829701" stroke-linecap="round" stroke-linejoin="round"/>
<path d="M241.144 61.7609H65.8132V98.9725H241.144V61.7609Z" fill="#51C0D7"/>
<path d="M83.6798 168.854H76.6178V108.194H83.6798V168.854ZM97.5228 108.156H90.4992V168.854H97.5612L97.5228 108.156ZM111.372 108.156H104.304V168.854H111.372V108.156ZM125.209 108.156H118.147V168.854H125.209V108.156ZM139.052 108.156H131.99V168.854H139.052V108.156ZM152.889 108.156H145.827V168.854H152.889V108.156ZM166.738 108.156H159.67V168.854H166.738V108.156ZM180.581 108.156H173.519V168.854H180.581V108.156ZM194.418 108.156H187.356V168.854H194.418V108.156ZM208.261 108.156H201.199V168.854H208.261V108.156Z" fill="#51C0D7"/>
<path opacity="0.4" d="M83.6798 168.854H76.6178V108.194H83.6798V168.854ZM97.5228 108.156H90.4992V168.854H97.5612L97.5228 108.156ZM111.372 108.156H104.304V168.854H111.372V108.156ZM125.209 108.156H118.147V168.854H125.209V108.156ZM139.052 108.156H131.99V168.854H139.052V108.156ZM152.889 108.156H145.827V168.854H152.889V108.156ZM166.738 108.156H159.67V168.854H166.738V108.156ZM180.581 108.156H173.519V168.854H180.581V108.156ZM194.418 108.156H187.356V168.854H194.418V108.156ZM208.261 108.156H201.199V168.854H208.261V108.156Z" fill="white"/>
<path d="M120.502 75.6932H74.0758C73.6643 75.6932 73.2696 75.5326 72.9786 75.2467C72.6876 74.9609 72.5242 74.5731 72.5242 74.1688C72.5259 73.7657 72.6901 73.3795 72.9809 73.095C73.2717 72.8105 73.6654 72.6508 74.0758 72.6508H120.502C120.912 72.6508 121.305 72.8107 121.595 73.0954C121.885 73.3801 122.048 73.7662 122.048 74.1688C122.048 74.3687 122.009 74.5668 121.932 74.7517C121.855 74.9366 121.741 75.1047 121.597 75.2463C121.454 75.388 121.283 75.5004 121.095 75.577C120.907 75.6537 120.706 75.6932 120.502 75.6932Z" fill="white" stroke="#263238" stroke-width="0.829701" stroke-linecap="round" stroke-linejoin="round"/>
<path d="M106.455 75.6932H74.0758C73.6643 75.6932 73.2696 75.5326 72.9786 75.2467C72.6876 74.9609 72.5242 74.5731 72.5242 74.1688C72.5259 73.7657 72.6901 73.3795 72.9809 73.095C73.2717 72.8105 73.6654 72.6508 74.0758 72.6508H106.455V75.6932Z" fill="#263238" stroke="#263238" stroke-width="1.10627" stroke-linecap="round" stroke-linejoin="round"/>
<path d="M120.502 81.6587H74.0758C73.8723 81.6596 73.6707 81.6209 73.4825 81.545C73.2943 81.4691 73.1232 81.3574 72.979 81.2163C72.8348 81.0753 72.7205 80.9077 72.6424 80.7231C72.5643 80.5385 72.5242 80.3406 72.5242 80.1407C72.5242 79.9408 72.5643 79.7429 72.6424 79.5583C72.7205 79.3737 72.8348 79.2061 72.979 79.065C73.1232 78.924 73.2943 78.8123 73.4825 78.7363C73.6707 78.6604 73.8723 78.6218 74.0758 78.6226H120.502C120.912 78.6226 121.305 78.7825 121.595 79.0672C121.885 79.3519 122.048 79.738 122.048 80.1407C122.048 80.5433 121.885 80.9294 121.595 81.2141C121.305 81.4988 120.912 81.6587 120.502 81.6587Z" fill="white" stroke="#263238" stroke-width="0.829701" stroke-linecap="round" stroke-linejoin="round"/>
<path d="M112.413 81.6587H74.1019C73.8984 81.6596 73.6968 81.6209 73.5086 81.545C73.3204 81.4691 73.1493 81.3574 73.0051 81.2163C72.861 81.0753 72.7466 80.9077 72.6685 80.7231C72.5905 80.5385 72.5503 80.3406 72.5503 80.1407C72.5503 79.9408 72.5905 79.7429 72.6685 79.5583C72.7466 79.3737 72.861 79.2061 73.0051 79.065C73.1493 78.924 73.3204 78.8123 73.5086 78.7363C73.6968 78.6604 73.8984 78.6218 74.1019 78.6226H112.413V81.6587Z" fill="#263238" stroke="#263238" stroke-width="1.10627" stroke-linecap="round" stroke-linejoin="round"/>
<path d="M120.502 87.6622H74.0758C73.8723 87.663 73.6707 87.6243 73.4825 87.5484C73.2943 87.4725 73.1232 87.3608 72.979 87.2198C72.8348 87.0787 72.7205 86.9111 72.6424 86.7265C72.5643 86.5419 72.5242 86.344 72.5242 86.1441C72.5242 85.7398 72.6876 85.3521 72.9786 85.0662C73.2696 84.7803 73.6643 84.6197 74.0758 84.6197H120.502C120.706 84.6197 120.907 84.6592 121.095 84.7359C121.283 84.8126 121.454 84.925 121.597 85.0666C121.741 85.2082 121.855 85.3763 121.932 85.5612C122.009 85.7461 122.048 85.9442 122.048 86.1441C122.048 86.5467 121.885 86.9328 121.595 87.2175C121.305 87.5022 120.912 87.6622 120.502 87.6622Z" fill="white" stroke="#263238" stroke-width="0.829701" stroke-linecap="round" stroke-linejoin="round"/>
<path d="M98.1734 87.6622H74.0758C73.8723 87.663 73.6707 87.6243 73.4825 87.5484C73.2943 87.4725 73.1232 87.3608 72.979 87.2198C72.8348 87.0787 72.7205 86.9111 72.6424 86.7265C72.5643 86.5419 72.5242 86.344 72.5242 86.1441C72.5242 85.7398 72.6876 85.3521 72.9786 85.0662C73.2696 84.7803 73.6643 84.6197 74.0758 84.6197H98.1734V87.6622Z" fill="#263238" stroke="#263238" stroke-width="1.10627" stroke-linecap="round" stroke-linejoin="round"/>
<path d="M120.502 93.5965H74.0758C73.6654 93.5965 73.2717 93.4367 72.9809 93.1522C72.6901 92.8677 72.5259 92.4816 72.5242 92.0784C72.5258 91.674 72.6896 91.2866 72.9801 91.0001C73.2705 90.7136 73.6642 90.5511 74.0758 90.5478H120.502C120.913 90.5511 121.306 90.7138 121.596 91.0005C121.885 91.2872 122.048 91.6746 122.048 92.0784C122.048 92.481 121.885 92.8671 121.595 93.1518C121.305 93.4365 120.912 93.5965 120.502 93.5965Z" fill="white" stroke="#263238" stroke-width="0.829701" stroke-linecap="round" stroke-linejoin="round"/>
<path d="M118.829 93.5965H74.0758C73.6654 93.5965 73.2717 93.4367 72.9809 93.1522C72.6901 92.8677 72.5259 92.4816 72.5242 92.0784C72.5258 91.674 72.6896 91.2866 72.9801 91.0001C73.2705 90.7136 73.6642 90.5511 74.0758 90.5478H118.829V93.5965Z" fill="#263238" stroke="#263238" stroke-width="1.10627" stroke-linecap="round" stroke-linejoin="round"/>
<path d="M72.8622 168.873H211.989" stroke="#263238" stroke-width="0.829701" stroke-linecap="round" stroke-linejoin="round"/>
<path d="M86.7758 168.873V167.499" stroke="#263238" stroke-width="0.829701" stroke-linecap="round" stroke-linejoin="round"/>
<path d="M100.689 168.873V167.499" stroke="#263238" stroke-width="0.829701" stroke-linecap="round" stroke-linejoin="round"/>
<path d="M114.603 168.873V167.499" stroke="#263238" stroke-width="0.829701" stroke-linecap="round" stroke-linejoin="round"/>
<path d="M128.517 168.873V167.499" stroke="#263238" stroke-width="0.829701" stroke-linecap="round" stroke-linejoin="round"/>
<path d="M142.429 168.873V167.499" stroke="#263238" stroke-width="0.829701" stroke-linecap="round" stroke-linejoin="round"/>
<path d="M156.342 168.873V167.499" stroke="#263238" stroke-width="0.829701" stroke-linecap="round" stroke-linejoin="round"/>
<path d="M170.256 168.873V167.499" stroke="#263238" stroke-width="0.829701" stroke-linecap="round" stroke-linejoin="round"/>
<path d="M184.17 168.873V167.499" stroke="#263238" stroke-width="0.829701" stroke-linecap="round" stroke-linejoin="round"/>
<path d="M198.082 168.873V167.499" stroke="#263238" stroke-width="0.829701" stroke-linecap="round" stroke-linejoin="round"/>
<path d="M211.989 168.873V167.499" stroke="#263238" stroke-width="0.829701" stroke-linecap="round" stroke-linejoin="round"/>
<path d="M72.8622 168.873V163.453V108.37" stroke="#263238" stroke-width="0.829701" stroke-linecap="round" stroke-linejoin="round"/>
<path d="M72.8622 163.453H76.3421" stroke="#263238" stroke-width="0.829701" stroke-linecap="round" stroke-linejoin="round"/>
<path d="M72.8622 154.269H76.3421" stroke="#263238" stroke-width="0.829701" stroke-linecap="round" stroke-linejoin="round"/>
<path d="M72.8622 145.086H76.3421" stroke="#263238" stroke-width="0.829701" stroke-linecap="round" stroke-linejoin="round"/>
<path d="M72.8622 135.915H76.3421" stroke="#263238" stroke-width="0.829701" stroke-linecap="round" stroke-linejoin="round"/>
<path d="M72.8622 126.731H76.3421" stroke="#263238" stroke-width="0.829701" stroke-linecap="round" stroke-linejoin="round"/>
<path d="M72.8622 117.553H76.3421" stroke="#263238" stroke-width="0.829701" stroke-linecap="round" stroke-linejoin="round"/>
<path d="M72.8622 108.37H76.3421" stroke="#263238" stroke-width="0.829701" stroke-linecap="round" stroke-linejoin="round"/>
<path d="M237.236 71.5152H214.544V94.4745H237.236V71.5152Z" fill="white" stroke="#263238" stroke-width="0.829701" stroke-linecap="round" stroke-linejoin="round"/>
<path d="M237.236 71.5152H214.544V75.4547H237.236V71.5152Z" fill="#263238" stroke="#263238" stroke-width="1.00786" stroke-linecap="round" stroke-linejoin="round"/>
<path d="M216.625 78.6667V91.7084" stroke="#263238" stroke-width="0.829701" stroke-linecap="round" stroke-linejoin="round"/>
<path d="M219.689 78.6667V91.7084" stroke="#263238" stroke-width="0.829701" stroke-linecap="round" stroke-linejoin="round"/>
<path d="M222.748 78.6667V91.7084" stroke="#263238" stroke-width="0.829701" stroke-linecap="round" stroke-linejoin="round"/>
<path d="M225.814 78.6667V91.7084" stroke="#263238" stroke-width="0.829701" stroke-linecap="round" stroke-linejoin="round"/>
<path d="M228.884 78.6667V91.7084" stroke="#263238" stroke-width="0.829701" stroke-linecap="round" stroke-linejoin="round"/>
<path d="M231.949 78.6667V91.7084" stroke="#263238" stroke-width="0.829701" stroke-linecap="round" stroke-linejoin="round"/>
<path d="M235.015 78.6667V91.7084" stroke="#263238" stroke-width="0.829701" stroke-linecap="round" stroke-linejoin="round"/>
<path d="M234.809 80.3729H216.726" stroke="#263238" stroke-width="0.829701" stroke-linecap="round" stroke-linejoin="round"/>
<path d="M234.809 82.7818H216.726" stroke="#263238" stroke-width="0.829701" stroke-linecap="round" stroke-linejoin="round"/>
<path d="M234.809 85.1908H216.726" stroke="#263238" stroke-width="0.829701" stroke-linecap="round" stroke-linejoin="round"/>
<path d="M234.809 87.5993H216.726" stroke="#263238" stroke-width="0.829701" stroke-linecap="round" stroke-linejoin="round"/>
<path d="M234.809 90.0086H216.726" stroke="#263238" stroke-width="0.829701" stroke-linecap="round" stroke-linejoin="round"/>
<path d="M141.287 71.5152C139.116 71.5152 136.994 72.1477 135.189 73.3326C133.384 74.5174 131.977 76.2016 131.146 78.172C130.316 80.1424 130.098 82.3106 130.522 84.4023C130.945 86.4941 131.991 88.4155 133.526 89.9236C135.061 91.4316 137.016 92.4587 139.146 92.8747C141.275 93.2908 143.482 93.0773 145.487 92.2611C147.493 91.4449 149.207 90.0628 150.413 88.2895C151.619 86.5162 152.263 84.4313 152.263 82.2986C152.261 79.4392 151.104 76.6974 149.046 74.6754C146.988 72.6535 144.197 71.5169 141.287 71.5152ZM141.287 89.9078C139.75 89.9078 138.247 89.4599 136.969 88.6207C135.691 87.7816 134.695 86.5889 134.107 85.1936C133.519 83.7982 133.366 82.2629 133.666 80.7818C133.966 79.3007 134.707 77.9404 135.794 76.873C136.882 75.8056 138.267 75.079 139.775 74.7851C141.283 74.4913 142.845 74.6434 144.265 75.2221C145.685 75.8009 146.898 76.7804 147.751 78.0367C148.604 79.293 149.059 80.7696 149.058 82.2798C149.058 83.282 148.857 84.2745 148.466 85.2003C148.075 86.1262 147.503 86.9674 146.781 87.6758C146.06 88.3842 145.203 88.946 144.26 89.3289C143.317 89.7119 142.307 89.9086 141.287 89.9078Z" fill="white" stroke="#263238" stroke-width="0.829701" stroke-linecap="round" stroke-linejoin="round"/>
<path d="M141.287 71.5153C139.806 71.5096 138.34 71.8016 136.978 72.3734C135.616 72.9452 134.388 73.7846 133.369 74.84L135.693 77.0293C136.413 76.2828 137.28 75.6889 138.242 75.2843C139.204 74.8797 140.24 74.673 141.287 74.6769C143.348 74.6769 145.324 75.4813 146.781 76.913C148.239 78.3447 149.057 80.2865 149.057 82.3112C149.057 84.336 148.239 86.2778 146.781 87.7095C145.324 89.1412 143.348 89.9455 141.287 89.9455V93.082C144.197 93.1544 147.017 92.088 149.127 90.1175C151.237 88.147 152.464 85.4338 152.537 82.5747C152.611 79.7156 151.526 76.9449 149.52 74.872C147.514 72.7991 144.752 71.594 141.842 71.5216H141.287V71.5153Z" fill="#263238" stroke="#263238" stroke-width="1.00786" stroke-linecap="round" stroke-linejoin="round"/>
<path d="M138.234 81.7277H144.344" stroke="#263238" stroke-width="0.829701" stroke-linecap="round" stroke-linejoin="round"/>
<path d="M138.234 82.8698H144.344" stroke="#263238" stroke-width="0.829701" stroke-linecap="round" stroke-linejoin="round"/>
<path d="M73.386 69.2887H79.4966" stroke="#263238" stroke-width="0.829701" stroke-linecap="round" stroke-linejoin="round"/>
<path d="M73.386 70.4239H79.4966" stroke="#263238" stroke-width="0.829701" stroke-linecap="round" stroke-linejoin="round"/>
<path d="M80.9403 69.2887H87.0509" stroke="#263238" stroke-width="0.829701" stroke-linecap="round" stroke-linejoin="round"/>
<path d="M80.9403 70.4239H87.0509" stroke="#263238" stroke-width="0.829701" stroke-linecap="round" stroke-linejoin="round"/>
<path d="M88.4808 69.2887H94.5914" stroke="#263238" stroke-width="0.829701" stroke-linecap="round" stroke-linejoin="round"/>
<path d="M88.4808 70.4239H94.5914" stroke="#263238" stroke-width="0.829701" stroke-linecap="round" stroke-linejoin="round"/>
<path d="M73.386 102.673H79.4966" stroke="#263238" stroke-width="0.829701" stroke-linecap="round" stroke-linejoin="round"/>
<path d="M73.386 103.803H79.4966" stroke="#263238" stroke-width="0.829701" stroke-linecap="round" stroke-linejoin="round"/>
<path d="M80.9403 102.673H87.0509" stroke="#263238" stroke-width="0.829701" stroke-linecap="round" stroke-linejoin="round"/>
<path d="M80.9403 103.803H87.0509" stroke="#263238" stroke-width="0.829701" stroke-linecap="round" stroke-linejoin="round"/>
<path d="M88.4808 102.673H94.5914" stroke="#263238" stroke-width="0.829701" stroke-linecap="round" stroke-linejoin="round"/>
<path d="M88.4808 103.803H94.5914" stroke="#263238" stroke-width="0.829701" stroke-linecap="round" stroke-linejoin="round"/>
<path d="M216.024 108.413H222.135" stroke="#263238" stroke-width="0.829701" stroke-linecap="round" stroke-linejoin="round"/>
<path d="M223.579 108.413H229.689" stroke="#263238" stroke-width="0.829701" stroke-linecap="round" stroke-linejoin="round"/>
<path d="M231.119 108.413H237.23" stroke="#263238" stroke-width="0.829701" stroke-linecap="round" stroke-linejoin="round"/>
<path d="M216.024 109.806H222.135" stroke="#263238" stroke-width="0.829701" stroke-linecap="round" stroke-linejoin="round"/>
<path d="M223.579 109.806H229.689" stroke="#263238" stroke-width="0.829701" stroke-linecap="round" stroke-linejoin="round"/>
<path d="M231.119 109.806H237.23" stroke="#263238" stroke-width="0.829701" stroke-linecap="round" stroke-linejoin="round"/>
<path d="M216.024 111.211H222.135" stroke="#263238" stroke-width="0.829701" stroke-linecap="round" stroke-linejoin="round"/>
<path d="M223.579 111.211H229.689" stroke="#263238" stroke-width="0.829701" stroke-linecap="round" stroke-linejoin="round"/>
<path d="M231.119 111.211H237.23" stroke="#263238" stroke-width="0.829701" stroke-linecap="round" stroke-linejoin="round"/>
<path d="M216.024 112.604H222.135" stroke="#263238" stroke-width="0.829701" stroke-linecap="round" stroke-linejoin="round"/>
<path d="M223.579 112.604H229.689" stroke="#263238" stroke-width="0.829701" stroke-linecap="round" stroke-linejoin="round"/>
<path d="M231.119 112.604H237.23" stroke="#263238" stroke-width="0.829701" stroke-linecap="round" stroke-linejoin="round"/>
<path d="M216.024 114.003H222.135" stroke="#263238" stroke-width="0.829701" stroke-linecap="round" stroke-linejoin="round"/>
<path d="M223.579 114.003H229.689" stroke="#263238" stroke-width="0.829701" stroke-linecap="round" stroke-linejoin="round"/>
<path d="M231.119 114.003H237.23" stroke="#263238" stroke-width="0.829701" stroke-linecap="round" stroke-linejoin="round"/>
<path d="M216.024 115.408H222.135" stroke="#263238" stroke-width="0.829701" stroke-linecap="round" stroke-linejoin="round"/>
<path d="M223.579 115.408H229.689" stroke="#263238" stroke-width="0.829701" stroke-linecap="round" stroke-linejoin="round"/>
<path d="M231.119 115.408H237.23" stroke="#263238" stroke-width="0.829701" stroke-linecap="round" stroke-linejoin="round"/>
<path d="M216.024 116.801H222.135" stroke="#263238" stroke-width="0.829701" stroke-linecap="round" stroke-linejoin="round"/>
<path d="M223.579 116.801H229.689" stroke="#263238" stroke-width="0.829701" stroke-linecap="round" stroke-linejoin="round"/>
<path d="M231.119 116.801H237.23" stroke="#263238" stroke-width="0.829701" stroke-linecap="round" stroke-linejoin="round"/>
<path d="M216.024 118.206H222.135" stroke="#263238" stroke-width="0.829701" stroke-linecap="round" stroke-linejoin="round"/>
<path d="M223.579 118.206H229.689" stroke="#263238" stroke-width="0.829701" stroke-linecap="round" stroke-linejoin="round"/>
<path d="M231.119 118.206H237.23" stroke="#263238" stroke-width="0.829701" stroke-linecap="round" stroke-linejoin="round"/>
<path d="M216.024 119.598H222.135" stroke="#263238" stroke-width="0.829701" stroke-linecap="round" stroke-linejoin="round"/>
<path d="M223.579 119.598H229.689" stroke="#263238" stroke-width="0.829701" stroke-linecap="round" stroke-linejoin="round"/>
<path d="M231.119 119.598H237.23" stroke="#263238" stroke-width="0.829701" stroke-linecap="round" stroke-linejoin="round"/>
<path d="M216.024 121.003H222.135" stroke="#263238" stroke-width="0.829701" stroke-linecap="round" stroke-linejoin="round"/>
<path d="M223.579 121.003H229.689" stroke="#263238" stroke-width="0.829701" stroke-linecap="round" stroke-linejoin="round"/>
<path d="M231.119 121.003H237.23" stroke="#263238" stroke-width="0.829701" stroke-linecap="round" stroke-linejoin="round"/>
<path d="M216.024 122.402H222.135" stroke="#263238" stroke-width="0.829701" stroke-linecap="round" stroke-linejoin="round"/>
<path d="M223.579 122.402H229.689" stroke="#263238" stroke-width="0.829701" stroke-linecap="round" stroke-linejoin="round"/>
<path d="M231.119 122.402H237.23" stroke="#263238" stroke-width="0.829701" stroke-linecap="round" stroke-linejoin="round"/>
<path d="M216.024 123.795H222.135" stroke="#263238" stroke-width="0.829701" stroke-linecap="round" stroke-linejoin="round"/>
<path d="M223.579 123.795H229.689" stroke="#263238" stroke-width="0.829701" stroke-linecap="round" stroke-linejoin="round"/>
<path d="M231.119 123.795H237.23" stroke="#263238" stroke-width="0.829701" stroke-linecap="round" stroke-linejoin="round"/>
<path d="M216.024 125.2H222.135" stroke="#263238" stroke-width="0.829701" stroke-linecap="round" stroke-linejoin="round"/>
<path d="M223.579 125.2H229.689" stroke="#263238" stroke-width="0.829701" stroke-linecap="round" stroke-linejoin="round"/>
<path d="M231.119 125.2H237.23" stroke="#263238" stroke-width="0.829701" stroke-linecap="round" stroke-linejoin="round"/>
<path d="M216.024 126.593H222.135" stroke="#263238" stroke-width="0.829701" stroke-linecap="round" stroke-linejoin="round"/>
<path d="M223.579 126.593H229.689" stroke="#263238" stroke-width="0.829701" stroke-linecap="round" stroke-linejoin="round"/>
<path d="M231.119 126.593H237.23" stroke="#263238" stroke-width="0.829701" stroke-linecap="round" stroke-linejoin="round"/>
<path d="M216.024 127.998H222.135" stroke="#263238" stroke-width="0.829701" stroke-linecap="round" stroke-linejoin="round"/>
<path d="M223.579 127.998H229.689" stroke="#263238" stroke-width="0.829701" stroke-linecap="round" stroke-linejoin="round"/>
<path d="M231.119 127.998H237.23" stroke="#263238" stroke-width="0.829701" stroke-linecap="round" stroke-linejoin="round"/>
<path d="M167.025 71.5152C164.854 71.514 162.732 72.1452 160.926 73.3291C159.121 74.5129 157.713 76.1963 156.881 78.1662C156.049 80.1361 155.83 82.3042 156.253 84.3962C156.675 86.4882 157.719 88.4102 159.253 89.9191C160.787 91.4281 162.742 92.4562 164.871 92.8735C167 93.2908 169.207 93.0785 171.213 92.2635C173.22 91.4485 174.935 90.0673 176.142 88.2947C177.349 86.5221 177.994 84.4376 177.995 82.3049C177.993 79.446 176.838 76.7044 174.781 74.6817C172.725 72.659 169.935 71.5202 167.025 71.5152ZM167.025 89.9078C165.488 89.9078 163.986 89.4599 162.707 88.6207C161.429 87.7816 160.433 86.5889 159.845 85.1936C159.258 83.7982 159.104 82.2629 159.404 80.7818C159.705 79.3007 160.445 77.9404 161.533 76.873C162.62 75.8056 164.005 75.079 165.513 74.7851C167.021 74.4913 168.584 74.6434 170.004 75.2221C171.423 75.8009 172.637 76.7804 173.49 78.0367C174.343 79.293 174.797 80.7696 174.796 82.2798C174.796 83.282 174.595 84.2745 174.204 85.2003C173.814 86.1262 173.241 86.9674 172.52 87.6758C171.798 88.3842 170.941 88.946 169.999 89.3289C169.056 89.7119 168.046 89.9086 167.025 89.9078Z" fill="white" stroke="#263238" stroke-width="0.829701" stroke-linecap="round" stroke-linejoin="round"/>
<path d="M174.579 80.4858L177.612 79.3692C177.089 77.54 176.082 75.8794 174.695 74.5558C173.307 73.2322 171.588 72.2928 169.711 71.8329C167.835 71.3729 165.868 71.4089 164.01 71.937C162.152 72.4652 160.47 73.4667 159.133 74.8401L161.457 77.0294C162.418 76.0433 163.63 75.329 164.968 74.9613C166.305 74.5936 167.719 74.5861 169.06 74.9395C170.402 75.2929 171.622 75.9942 172.593 76.97C173.564 77.9458 174.25 79.1601 174.579 80.4858Z" fill="#263238" stroke="#263238" stroke-width="1.00786" stroke-linecap="round" stroke-linejoin="round"/>
<path d="M163.826 81.7277H169.937" stroke="#263238" stroke-width="0.829701" stroke-linecap="round" stroke-linejoin="round"/>
<path d="M163.826 82.8698H169.937" stroke="#263238" stroke-width="0.829701" stroke-linecap="round" stroke-linejoin="round"/>
<path d="M202.609 75.7687C201.295 74.0732 199.498 72.7988 197.446 72.1065C195.394 71.4142 193.179 71.3352 191.082 71.8794C188.984 72.4237 187.098 73.5667 185.662 75.1641C184.225 76.7614 183.303 78.7413 183.012 80.8534C182.721 82.9655 183.074 85.115 184.026 87.03C184.979 88.945 186.488 90.5397 188.363 91.6122C190.237 92.6848 192.394 93.1872 194.559 93.0558C196.724 92.9244 198.801 92.1652 200.528 90.8742C201.675 90.0172 202.639 88.9466 203.364 87.7233C204.09 86.5001 204.563 85.1484 204.756 83.7454C204.949 82.3424 204.859 80.9158 204.491 79.5471C204.122 78.1784 203.483 76.8944 202.609 75.7687ZM187.713 86.9159C186.779 85.7162 186.229 84.2716 186.132 82.7647C186.034 81.2578 186.394 79.7564 187.165 78.4503C187.936 77.1442 189.084 76.0921 190.464 75.4269C191.843 74.7618 193.393 74.5135 194.916 74.7135C196.44 74.9136 197.868 75.5529 199.022 76.5506C200.175 77.5484 201.002 78.8597 201.397 80.3189C201.792 81.7781 201.737 83.3196 201.24 84.7484C200.744 86.1773 199.827 87.4293 198.606 88.3461C196.967 89.5741 194.9 90.1131 192.858 89.845C190.816 89.5768 188.965 88.5233 187.713 86.9159Z" fill="white" stroke="#263238" stroke-width="0.829701" stroke-linecap="round" stroke-linejoin="round"/>
<path d="M199.903 87.0788L202.648 88.7787C203.811 87.2604 204.544 85.4673 204.774 83.5811C205.004 81.6949 204.723 79.7824 203.959 78.0373C203.195 76.2922 201.975 74.7763 200.423 73.6432C198.871 72.51 197.042 71.7998 195.12 71.5844L194.75 74.7209C196.126 74.882 197.433 75.4017 198.536 76.2261C199.638 77.0504 200.497 78.1495 201.022 79.4094C201.547 80.6692 201.719 82.0441 201.521 83.3914C201.323 84.7388 200.762 86.0097 199.896 87.0725L199.903 87.0788Z" fill="#263238" stroke="#263238" stroke-width="1.00786" stroke-linecap="round" stroke-linejoin="round"/>
<path d="M190.675 81.7277H196.785" stroke="#263238" stroke-width="0.829701" stroke-linecap="round" stroke-linejoin="round"/>
<path d="M190.675 82.8698H196.785" stroke="#263238" stroke-width="0.829701" stroke-linecap="round" stroke-linejoin="round"/>
<path d="M235.103 151.183C233.788 149.488 231.991 148.213 229.94 147.521C227.888 146.829 225.673 146.75 223.575 147.294C221.478 147.838 219.592 148.981 218.155 150.578C216.719 152.176 215.797 154.156 215.506 156.268C215.215 158.38 215.568 160.529 216.52 162.444C217.473 164.359 218.982 165.954 220.856 167.027C222.731 168.099 224.887 168.602 227.053 168.47C229.218 168.339 231.295 167.58 233.021 166.289C234.168 165.431 235.131 164.36 235.856 163.137C236.581 161.914 237.054 160.562 237.247 159.159C237.44 157.757 237.351 156.33 236.983 154.962C236.615 153.593 235.976 152.309 235.103 151.183ZM220.206 162.318C219.275 161.117 218.727 159.672 218.631 158.165C218.536 156.658 218.897 155.157 219.67 153.852C220.442 152.547 221.592 151.496 222.972 150.833C224.352 150.169 225.902 149.923 227.425 150.124C228.948 150.326 230.376 150.967 231.528 151.966C232.681 152.965 233.506 154.277 233.899 155.737C234.292 157.196 234.236 158.737 233.738 160.166C233.24 161.594 232.321 162.845 231.099 163.76C230.288 164.369 229.362 164.814 228.375 165.07C227.389 165.327 226.36 165.39 225.349 165.256C224.337 165.122 223.362 164.794 222.48 164.289C221.598 163.785 220.825 163.115 220.206 162.318Z" fill="#51C0D7" stroke="#263238" stroke-width="1.10627" stroke-linecap="round" stroke-linejoin="round"/>
<path d="M232.39 162.493L235.142 164.187C236.304 162.67 237.038 160.878 237.268 158.992C237.499 157.107 237.218 155.195 236.455 153.45C235.691 151.705 234.472 150.19 232.921 149.057C231.369 147.924 229.541 147.214 227.62 146.999L227.25 150.136C228.626 150.296 229.934 150.815 231.037 151.64C232.14 152.464 232.999 153.564 233.523 154.824C234.048 156.084 234.219 157.46 234.02 158.807C233.821 160.155 233.258 161.426 232.39 162.487V162.493Z" fill="#263238" stroke="#263238" stroke-width="1.00786" stroke-linecap="round" stroke-linejoin="round"/>
<path d="M223.17 157.142H229.281" stroke="#263238" stroke-width="0.829701" stroke-linecap="round" stroke-linejoin="round"/>
<path d="M223.17 158.271H229.281" stroke="#263238" stroke-width="0.829701" stroke-linecap="round" stroke-linejoin="round"/>
<path d="M67.1671 78.3905L65.3984 74.451" stroke="#263238" stroke-width="0.553134" stroke-linecap="round" stroke-linejoin="round"/>
<path d="M68.1633 78.2527L66.701 73.5417" stroke="#263238" stroke-width="0.553134" stroke-linecap="round" stroke-linejoin="round"/>
<path d="M126.428 63.1786L123.357 57.8716" stroke="#263238" stroke-width="0.553134" stroke-linecap="round" stroke-linejoin="round"/>
<path d="M126.339 61.2588L124.941 58.3293" stroke="#263238" stroke-width="0.553134" stroke-linecap="round" stroke-linejoin="round"/>
<path d="M13.727 233.666H2.35938" stroke="#2C2C2C" stroke-width="0.75" stroke-miterlimit="10" stroke-linecap="round"/>
<path d="M301.533 233.666H19.9258" stroke="#2C2C2C" stroke-width="0.75" stroke-miterlimit="10" stroke-linecap="round"/>
<path d="M323.235 233.666H305.15" stroke="#2C2C2C" stroke-width="0.75" stroke-miterlimit="10" stroke-linecap="round"/>
<path d="M41.0232 191.832L25.4518 251.319H60.1797L44.6083 191.832C44.5136 191.427 44.285 191.067 43.9596 190.809C43.6342 190.551 43.2311 190.41 42.8157 190.41C42.4004 190.41 41.9973 190.551 41.6719 190.809C41.3465 191.067 41.1179 191.427 41.0232 191.832Z" fill="#2E9DB6" stroke="#2C2C2C" stroke-linecap="round" stroke-linejoin="round"/>
<path d="M25.4518 251.318H53.7448L39.5983 197.268L25.4518 251.318Z" fill="#2C2C2C" stroke="#2C2C2C" stroke-linecap="round" stroke-linejoin="round"/>
<path d="M63.685 250.013H20.3677C19.1086 250.013 18.0879 251.034 18.0879 252.293V252.584C18.0879 253.843 19.1086 254.864 20.3677 254.864H63.685C64.9441 254.864 65.9649 253.843 65.9649 252.584V252.293C65.9649 251.034 64.9441 250.013 63.685 250.013Z" fill="#2E9DB6" stroke="#2C2C2C" stroke-linecap="round" stroke-linejoin="round"/>
<path d="M48.8602 250.013H20.3677C19.1086 250.013 18.0879 251.034 18.0879 252.293V252.584C18.0879 253.843 19.1086 254.864 20.3677 254.864H48.8602C50.1194 254.864 51.1401 253.843 51.1401 252.584V252.293C51.1401 251.034 50.1194 250.013 48.8602 250.013Z" fill="#2C2C2C" stroke="#2C2C2C" stroke-linecap="round" stroke-linejoin="round"/>
<path d="M31.6652 227.591H53.9678L51.2719 217.286H34.3611L31.6652 227.591Z" fill="white" stroke="#2C2C2C" stroke-linecap="round" stroke-linejoin="round"/>
<path d="M31.6652 227.591H47.5387L44.8427 217.286H34.3611L31.6652 227.591Z" fill="#BABABA" stroke="#2C2C2C" stroke-linecap="round" stroke-linejoin="round"/>
<path d="M275.32 67.1105C274.035 72.4097 276.926 91.6795 281.663 98.9699C281.663 98.9699 295.392 107.882 338.276 102.824C338.276 102.824 331.339 100.608 337.834 75.1958C337.971 74.6498 338.115 74.1038 338.268 73.5337C339.151 70.2418 332.688 64.5973 331.523 62.6142C323.133 48.3786 275.32 67.1105 275.32 67.1105Z" fill="#2C2C2C"/>
<path d="M317.15 161.163C317.15 161.163 309.988 162.006 308.487 162.006C308.471 162.006 308.455 162.006 308.439 162.006C308.431 162.006 308.423 162.006 308.415 162.006C308.407 162.006 308.399 162.006 308.391 162.006C308.374 162.006 308.358 162.006 308.342 162.006C306.833 162.006 299.679 161.163 299.679 161.163C290.132 164.174 290.815 178.105 290.823 178.498C290.887 181.372 290.927 184.255 290.999 187.129C291.168 193.898 292.894 214.171 293.336 220.619C293.376 221.149 293.4 221.59 293.416 221.919C294.139 236.388 294.853 250.856 295.576 265.325C295.64 266.593 295.705 267.87 295.769 269.139C295.769 269.139 299.125 271.226 305.709 269.139L305.765 222.144L307.596 187.226C307.596 187.226 307.933 187.177 308.334 187.137C308.358 187.137 308.382 187.145 308.415 187.145V187.153C308.423 187.153 308.431 187.153 308.439 187.153C308.447 187.153 308.455 187.153 308.463 187.153V187.145C308.487 187.145 308.511 187.137 308.543 187.137C308.945 187.177 309.282 187.226 309.282 187.226L311.112 222.144L311.169 269.139C317.752 271.226 321.109 269.139 321.109 269.139C321.173 267.87 321.237 266.593 321.301 265.325C322.024 250.856 322.73 236.388 323.461 221.919C323.477 221.59 323.501 221.149 323.541 220.619C323.975 214.179 325.709 193.898 325.878 187.129C325.95 184.255 325.99 181.372 326.055 178.498C326.014 178.105 326.689 164.174 317.15 161.163Z" fill="#2C2C2C"/>
<path d="M261.063 132.926C261.063 132.926 259.124 131.484 258.778 130.05C258.424 128.611 258.146 127.921 255.807 125.338C253.49 122.765 253.083 120.607 253.083 120.607C253.083 120.607 250.227 121.544 253.7 125.672C255.824 128.202 246.994 123.976 244.445 122.461C244.445 122.461 242.51 122.608 244.515 125.014C246.52 127.419 244.004 126.395 248.118 130.839C252.221 135.287 257.746 139.145 260.362 136.636C262.971 134.124 261.063 132.926 261.063 132.926Z" fill="white"/>
<path fill-rule="evenodd" clip-rule="evenodd" d="M253.084 120.607L252.984 120.302L253.332 120.188L253.4 120.547L253.4 120.547L253.4 120.548L253.4 120.55C253.401 120.553 253.402 120.558 253.403 120.564C253.406 120.578 253.411 120.6 253.418 120.629C253.433 120.687 253.456 120.775 253.491 120.891C253.562 121.121 253.68 121.458 253.87 121.875C254.249 122.709 254.912 123.864 256.046 125.123C257.217 126.416 257.889 127.254 258.313 127.958C258.743 128.674 258.911 129.242 259.091 129.973L259.091 129.974L259.091 129.974C259.242 130.602 259.759 131.268 260.281 131.801C260.536 132.062 260.781 132.28 260.962 132.433C261.053 132.509 261.127 132.568 261.178 132.609C261.204 132.629 261.224 132.644 261.237 132.654C261.242 132.658 261.246 132.661 261.249 132.663C261.252 132.665 261.255 132.667 261.259 132.67C261.262 132.672 261.266 132.675 261.27 132.677C261.288 132.69 261.312 132.708 261.342 132.731C261.399 132.778 261.477 132.846 261.559 132.936C261.722 133.116 261.912 133.39 262.004 133.762C262.193 134.532 261.933 135.57 260.586 136.868L260.585 136.868C259.851 137.572 258.918 137.819 257.897 137.734C256.885 137.651 255.776 137.243 254.645 136.629C252.382 135.399 249.947 133.295 247.883 131.057C245.823 128.832 245.369 127.923 245.213 127.233C245.186 127.112 245.167 126.995 245.151 126.892C245.146 126.858 245.14 126.826 245.135 126.796C245.114 126.669 245.09 126.552 245.043 126.421C244.95 126.159 244.758 125.806 244.269 125.219C243.754 124.602 243.468 124.102 243.35 123.688C243.229 123.263 243.283 122.916 243.465 122.653C243.636 122.404 243.889 122.28 244.071 122.218C244.165 122.186 244.249 122.167 244.31 122.156C244.341 122.151 244.367 122.147 244.386 122.145C244.395 122.144 244.403 122.143 244.409 122.142C244.412 122.142 244.415 122.142 244.417 122.142L244.419 122.141L244.42 122.141L244.421 122.141C244.421 122.141 244.421 122.141 244.446 122.461L244.421 122.141L244.523 122.134L244.61 122.185C245.869 122.934 248.7 124.362 250.948 125.286C252.083 125.753 253.028 126.073 253.545 126.131C253.584 126.136 253.619 126.138 253.648 126.14C253.607 126.073 253.545 125.986 253.455 125.878C251.697 123.789 251.447 122.398 251.789 121.479C251.958 121.028 252.256 120.735 252.506 120.557C252.631 120.468 252.746 120.405 252.831 120.365C252.874 120.345 252.91 120.33 252.936 120.32C252.949 120.315 252.96 120.311 252.968 120.308C252.972 120.306 252.975 120.305 252.978 120.304L252.982 120.303L252.983 120.302L252.984 120.302C252.984 120.302 252.984 120.302 253.084 120.607ZM244.382 122.797C244.352 122.804 244.316 122.813 244.279 122.826C244.16 122.866 244.054 122.929 243.993 123.018C243.942 123.092 243.888 123.233 243.968 123.512C244.051 123.803 244.275 124.223 244.762 124.808C245.276 125.424 245.521 125.845 245.649 126.207C245.713 126.387 245.744 126.545 245.769 126.689C245.776 126.732 245.782 126.771 245.788 126.809C245.803 126.905 245.817 126.992 245.84 127.091C245.955 127.602 246.301 128.403 248.355 130.621L248.355 130.622C250.394 132.832 252.773 134.881 254.952 136.064C256.042 136.657 257.061 137.021 257.95 137.094C258.829 137.167 259.567 136.955 260.141 136.405C261.402 135.19 261.492 134.373 261.38 133.916C261.32 133.674 261.196 133.492 261.084 133.369C261.028 133.307 260.976 133.262 260.94 133.233C260.922 133.219 260.908 133.208 260.9 133.203C260.896 133.2 260.893 133.198 260.892 133.197C260.891 133.197 260.891 133.196 260.891 133.197L260.882 133.191L260.872 133.184L261.064 132.926C260.872 133.184 260.872 133.184 260.872 133.183L260.872 133.183L260.87 133.182L260.865 133.178C260.861 133.175 260.855 133.17 260.847 133.165C260.832 133.153 260.81 133.136 260.781 133.114C260.725 133.069 260.645 133.005 260.549 132.924C260.356 132.762 260.095 132.529 259.822 132.25C259.288 131.705 258.662 130.933 258.467 130.126C258.293 129.419 258.144 128.923 257.762 128.289C257.374 127.643 256.738 126.844 255.57 125.554L255.569 125.554C254.387 124.24 253.689 123.029 253.285 122.141C253.084 121.698 252.956 121.335 252.878 121.081C252.701 121.207 252.502 121.406 252.391 121.704C252.174 122.286 252.232 123.427 253.946 125.465L253.947 125.465C254.087 125.633 254.197 125.788 254.265 125.931C254.328 126.064 254.385 126.245 254.321 126.428C254.249 126.634 254.071 126.723 253.929 126.757C253.789 126.791 253.63 126.787 253.473 126.77C252.853 126.7 251.829 126.343 250.704 125.881C248.487 124.969 245.715 123.576 244.382 122.797ZM244.471 122.782C244.472 122.782 244.472 122.782 244.472 122.782L244.471 122.782Z" fill="#2C2C2C"/>
<path d="M290.798 120.867C290.798 120.867 284.651 153.346 281.638 155.179C279.213 156.656 271.365 149.887 261.021 140.755C259.882 139.689 258.51 138.06 258.51 138.06L260.824 129.319L263.398 132.027L275.627 142.237C275.627 142.237 280.749 115.745 285.592 115.264C290.442 114.775 290.798 120.867 290.798 120.867Z" fill="#2C2C2C"/>
<path d="M355.87 132.926C355.87 132.926 357.809 131.484 358.156 130.049C358.509 128.611 358.788 127.921 361.126 125.338C363.443 122.765 363.85 120.607 363.85 120.607C363.85 120.607 366.706 121.544 363.234 125.671C361.109 128.202 369.94 123.976 372.489 122.461C372.489 122.461 374.423 122.608 372.419 125.013C370.414 127.419 372.929 126.395 368.815 130.839C364.712 135.287 359.187 139.145 356.571 136.636C353.963 134.124 355.87 132.926 355.87 132.926Z" fill="white"/>
<path fill-rule="evenodd" clip-rule="evenodd" d="M363.849 120.607L363.949 120.302L363.601 120.188L363.533 120.547L363.533 120.547L363.533 120.548L363.533 120.55C363.532 120.553 363.531 120.557 363.53 120.564C363.527 120.578 363.522 120.6 363.515 120.629C363.501 120.687 363.477 120.775 363.442 120.89C363.372 121.121 363.253 121.458 363.064 121.875C362.685 122.709 362.021 123.863 360.887 125.123C359.716 126.416 359.044 127.254 358.621 127.958C358.19 128.674 358.023 129.242 357.843 129.973L357.843 129.973L357.842 129.974C357.691 130.602 357.174 131.268 356.653 131.801C356.397 132.062 356.152 132.28 355.971 132.432C355.88 132.509 355.806 132.568 355.755 132.609C355.729 132.629 355.709 132.644 355.696 132.654C355.692 132.658 355.688 132.661 355.685 132.663C355.682 132.665 355.678 132.667 355.675 132.67C355.671 132.672 355.668 132.674 355.664 132.677C355.645 132.69 355.621 132.708 355.592 132.731C355.534 132.778 355.457 132.846 355.375 132.936C355.211 133.116 355.021 133.39 354.93 133.762C354.741 134.532 355 135.57 356.348 136.867L356.348 136.868C357.082 137.572 358.016 137.818 359.036 137.734C360.048 137.651 361.157 137.243 362.288 136.629C364.552 135.399 366.986 133.295 369.051 131.057C371.11 128.832 371.564 127.923 371.72 127.233C371.748 127.112 371.766 126.995 371.782 126.892C371.788 126.858 371.793 126.826 371.798 126.795C371.819 126.669 371.844 126.552 371.89 126.421C371.983 126.159 372.176 125.806 372.664 125.219C373.179 124.602 373.465 124.101 373.583 123.688C373.705 123.263 373.65 122.916 373.469 122.653C373.297 122.404 373.044 122.28 372.863 122.218C372.769 122.186 372.684 122.167 372.623 122.156C372.592 122.151 372.567 122.147 372.548 122.145C372.538 122.144 372.53 122.143 372.524 122.142C372.521 122.142 372.519 122.142 372.517 122.141L372.514 122.141L372.513 122.141L372.512 122.141C372.512 122.141 372.512 122.141 372.488 122.461L372.512 122.141L372.411 122.133L372.324 122.185C371.064 122.934 368.234 124.362 365.986 125.286C364.85 125.753 363.906 126.073 363.388 126.131C363.349 126.136 363.315 126.138 363.285 126.139C363.326 126.072 363.388 125.986 363.478 125.878C365.236 123.789 365.487 122.398 365.144 121.479C364.976 121.028 364.677 120.735 364.428 120.557C364.302 120.467 364.187 120.405 364.102 120.365C364.059 120.345 364.024 120.33 363.997 120.32C363.984 120.315 363.974 120.311 363.965 120.308C363.961 120.306 363.958 120.305 363.955 120.304L363.952 120.303L363.95 120.302L363.95 120.302C363.949 120.302 363.949 120.302 363.849 120.607ZM372.551 122.797C372.582 122.803 372.617 122.813 372.655 122.826C372.773 122.866 372.879 122.929 372.94 123.018C372.992 123.092 373.045 123.233 372.966 123.512C372.883 123.803 372.659 124.223 372.171 124.808C371.657 125.424 371.413 125.845 371.285 126.207C371.221 126.387 371.189 126.545 371.165 126.689C371.157 126.731 371.151 126.771 371.145 126.809C371.13 126.905 371.116 126.992 371.094 127.091C370.978 127.601 370.633 128.403 368.579 130.621L368.578 130.621C366.54 132.831 364.16 134.881 361.981 136.064C360.891 136.657 359.872 137.021 358.984 137.094C358.105 137.167 357.367 136.955 356.793 136.404C355.532 135.19 355.441 134.373 355.553 133.916C355.613 133.674 355.737 133.492 355.849 133.368C355.905 133.307 355.957 133.262 355.993 133.233C356.011 133.218 356.025 133.208 356.034 133.202C356.038 133.199 356.04 133.198 356.042 133.197C356.042 133.196 356.042 133.196 356.042 133.196L356.051 133.191L356.061 133.183L355.869 132.926C356.061 133.183 356.061 133.183 356.061 133.183L356.061 133.183L356.063 133.182L356.068 133.178C356.072 133.175 356.078 133.17 356.086 133.164C356.102 133.153 356.124 133.136 356.152 133.113C356.208 133.069 356.288 133.005 356.385 132.924C356.577 132.761 356.839 132.529 357.112 132.25C357.646 131.704 358.271 130.933 358.467 130.126C358.641 129.419 358.789 128.923 359.171 128.289C359.56 127.643 360.196 126.844 361.363 125.554L361.364 125.553C362.546 124.24 363.245 123.029 363.648 122.141C363.85 121.698 363.978 121.335 364.056 121.08C364.233 121.207 364.431 121.406 364.542 121.704C364.759 122.286 364.702 123.427 362.987 125.465L362.987 125.465C362.846 125.633 362.737 125.788 362.669 125.931C362.605 126.064 362.549 126.245 362.613 126.428C362.684 126.634 362.863 126.723 363.005 126.757C363.144 126.79 363.303 126.787 363.46 126.77C364.08 126.7 365.105 126.343 366.23 125.88C368.446 124.969 371.218 123.576 372.551 122.797ZM372.462 122.781C372.461 122.781 372.461 122.781 372.461 122.781L372.462 122.781Z" fill="#2C2C2C"/>
<path d="M326.136 120.867C326.136 120.867 332.283 153.346 335.296 155.179C337.721 156.656 345.569 149.887 355.913 140.754C357.052 139.689 358.424 138.06 358.424 138.06L356.11 129.319L353.536 132.027L341.307 142.236C341.307 142.236 336.185 115.745 331.342 115.264C326.492 114.774 326.136 120.867 326.136 120.867Z" fill="#2C2C2C"/>
<path d="M338.902 121.074C338.902 126.197 335.546 129.368 330.423 129.368C325.301 129.368 321.15 125.217 321.15 120.094C321.15 114.972 325.02 109.319 329.901 110.853C335.281 112.531 338.902 115.951 338.902 121.074Z" fill="white"/>
<path fill-rule="evenodd" clip-rule="evenodd" d="M323.94 113.185C322.414 114.986 321.471 117.606 321.471 120.094C321.471 125.04 325.478 129.047 330.423 129.047C332.918 129.047 334.952 128.276 336.36 126.911C337.767 125.548 338.581 123.563 338.581 121.074C338.581 116.147 335.112 112.815 329.806 111.159L329.805 111.159C327.524 110.442 325.462 111.39 323.94 113.185ZM329.997 110.546C327.398 109.73 325.084 110.842 323.45 112.77C321.821 114.692 320.829 117.461 320.829 120.094C320.829 125.394 325.123 129.689 330.423 129.689C333.051 129.689 335.257 128.875 336.807 127.373C338.359 125.869 339.223 123.707 339.223 121.074C339.223 115.756 335.45 112.247 329.997 110.546Z" fill="#2C2C2C"/>
<path d="M334.735 119.581C334.735 123.37 332.254 125.715 328.464 125.715C324.675 125.715 321.607 122.648 321.607 118.858C321.607 115.068 324.466 110.885 328.087 112.017C332.053 113.27 334.735 115.799 334.735 119.581Z" fill="#2C2C2C"/>
<path d="M276.676 121.074C276.676 126.197 280.032 129.368 285.155 129.368C290.277 129.368 294.42 125.209 294.42 120.095C294.42 114.98 290.55 109.32 285.669 110.853C280.297 112.531 276.676 115.952 276.676 121.074Z" fill="white"/>
<path fill-rule="evenodd" clip-rule="evenodd" d="M292.12 112.773C293.749 114.696 294.742 117.465 294.742 120.094C294.742 125.386 290.455 129.689 285.155 129.689C282.527 129.689 280.322 128.875 278.771 127.373C277.22 125.869 276.355 123.707 276.355 121.074C276.355 115.756 280.129 112.247 285.573 110.547C288.173 109.73 290.487 110.844 292.12 112.773ZM291.63 113.188C290.109 111.392 288.047 110.443 285.765 111.159L285.765 111.16C280.466 112.815 276.997 116.147 276.997 121.074C276.997 123.563 277.811 125.548 279.218 126.911C280.626 128.276 282.66 129.047 285.155 129.047C290.1 129.047 294.099 125.032 294.099 120.094C294.099 117.61 293.157 114.99 291.63 113.188Z" fill="#2C2C2C"/>
<path d="M280.851 119.581C280.851 123.37 283.332 125.715 287.122 125.715C290.912 125.715 293.979 122.648 293.979 118.858C293.979 115.068 291.12 110.885 287.507 112.017C283.525 113.27 280.851 115.799 280.851 119.581Z" fill="#2C2C2C"/>
<path d="M319.463 162.175C313.666 161.645 307.941 161.428 307.941 161.428C305.838 161.493 301.357 161.677 296.733 162.175C298.081 166.784 302.658 170.18 308.094 170.18C313.537 170.188 318.114 166.776 319.463 162.175Z" fill="#50BFD7"/>
<path d="M318.99 162.657C319.488 160.698 329.452 110.773 329.452 110.773C329.452 110.773 302.86 102.92 285.854 110.773L296.758 163.09L318.99 162.657Z" fill="white"/>
<path fill-rule="evenodd" clip-rule="evenodd" d="M329.542 110.465C329.542 110.465 329.543 110.465 329.452 110.773C329.767 110.836 329.767 110.836 329.766 110.836L329.766 110.838L329.655 111.397C329.581 111.763 329.474 112.3 329.337 112.985C329.064 114.354 328.673 116.312 328.202 118.667C327.26 123.378 325.999 129.68 324.722 136.043C322.171 148.761 319.553 161.746 319.301 162.736L319.241 162.973L296.497 163.417L285.487 110.588L285.719 110.481C294.304 106.517 305.277 106.526 314.065 107.509C318.466 108.001 322.334 108.74 325.101 109.355C326.484 109.663 327.593 109.94 328.357 110.14C328.739 110.24 329.035 110.321 329.235 110.377C329.336 110.405 329.412 110.427 329.464 110.442C329.489 110.449 329.509 110.455 329.522 110.459L329.537 110.463L329.541 110.464L329.542 110.465ZM329.452 110.773L329.767 110.836L329.824 110.548L329.543 110.465L329.452 110.773ZM329.079 111.001C329.073 110.999 329.068 110.998 329.062 110.996C328.865 110.941 328.573 110.861 328.194 110.762C327.437 110.563 326.336 110.288 324.961 109.982C322.211 109.371 318.367 108.637 313.994 108.147C305.315 107.177 294.607 107.176 286.22 110.959L297.017 162.764L318.734 162.341C319.189 160.3 321.666 148.009 324.092 135.917C325.369 129.554 326.63 123.252 327.572 118.541C328.043 116.186 328.434 114.228 328.708 112.859C328.844 112.175 328.952 111.637 329.025 111.271L329.079 111.001Z" fill="black"/>
<path d="M318.99 162.657C319.488 160.698 329.452 110.773 329.452 110.773C329.452 110.773 302.86 102.92 285.854 110.773L296.758 163.09L318.99 162.657Z" fill="white"/>
<path fill-rule="evenodd" clip-rule="evenodd" d="M329.542 110.465C329.542 110.465 329.543 110.465 329.452 110.773C329.767 110.836 329.767 110.836 329.766 110.836L329.766 110.838L329.655 111.397C329.581 111.763 329.474 112.3 329.337 112.985C329.064 114.354 328.673 116.312 328.202 118.667C327.26 123.378 325.999 129.68 324.722 136.043C322.171 148.761 319.553 161.746 319.301 162.736L319.241 162.973L296.497 163.417L285.487 110.588L285.719 110.481C294.304 106.517 305.277 106.526 314.065 107.509C318.466 108.001 322.334 108.74 325.101 109.355C326.484 109.663 327.593 109.94 328.357 110.14C328.739 110.24 329.035 110.321 329.235 110.377C329.336 110.405 329.412 110.427 329.464 110.442C329.489 110.449 329.509 110.455 329.522 110.459L329.537 110.463L329.541 110.464L329.542 110.465ZM329.452 110.773L329.767 110.836L329.824 110.548L329.543 110.465L329.452 110.773ZM329.079 111.001C329.073 110.999 329.068 110.998 329.062 110.996C328.865 110.941 328.573 110.861 328.194 110.762C327.437 110.563 326.336 110.288 324.961 109.982C322.211 109.371 318.367 108.637 313.994 108.147C305.315 107.177 294.607 107.176 286.22 110.959L297.017 162.764L318.734 162.341C319.189 160.3 321.666 148.009 324.092 135.917C325.369 129.554 326.63 123.252 327.572 118.541C328.043 116.186 328.434 114.228 328.708 112.859C328.844 112.175 328.952 111.637 329.025 111.271L329.079 111.001Z" fill="#2C2C2C"/>
<path d="M322.997 109.239C315.57 107.746 303.012 106.044 292.221 108.613C293.498 116.666 294.774 124.727 296.051 132.78C297.079 138.24 302.257 141.877 307.661 141.91C313.065 141.877 318.243 138.248 319.271 132.78C320.508 124.928 321.752 117.084 322.997 109.239Z" fill="#50BFD7"/>
<path fill-rule="evenodd" clip-rule="evenodd" d="M292.146 108.3C303.008 105.714 315.623 107.429 323.06 108.924L323.362 108.985L323.313 109.294C322.069 117.137 320.824 124.98 319.588 132.83L319.587 132.835L319.587 132.84C318.526 138.483 313.194 142.198 307.663 142.23L307.661 142.23L307.659 142.23C302.127 142.198 296.796 138.474 295.735 132.84L295.734 132.835L295.734 132.83C295.095 128.804 294.457 124.776 293.819 120.748L293.819 120.747C293.18 116.718 292.542 112.689 291.904 108.663L291.857 108.369L292.146 108.3ZM292.585 108.857C293.207 112.785 293.83 116.715 294.453 120.645L294.453 120.646C295.091 124.673 295.729 128.7 296.367 132.725C297.364 138.007 302.387 141.556 307.661 141.588C312.934 141.556 317.958 138.015 318.954 132.726C320.175 124.976 321.403 117.235 322.631 109.493C315.248 108.031 303.095 106.436 292.585 108.857Z" fill="#2C2C2C"/>
<path d="M306.737 112.089C309.274 112.089 313.216 111.318 313.216 108.789L312.566 100.343L311.996 92.9558C311.996 90.4186 309.94 88.3712 307.411 88.3712C306.142 88.3712 305.002 88.8851 304.167 89.7121C303.34 90.5391 302.818 91.6872 302.818 92.9558L302.256 100.351L301.718 107.44C300.996 111.72 306.737 112.089 306.737 112.089Z" fill="#2C2C2C"/>
<path d="M321.575 45.3276C317.777 40.6546 312.47 37.8364 305.661 37.8364C290.237 37.8364 275.159 52.056 275.159 69.7923C275.159 87.5286 287.66 101.909 303.084 101.909C304.569 101.909 306.006 101.78 307.387 101.523C307.532 102.302 307.612 103.105 307.612 103.924C307.612 104.077 307.604 104.221 307.604 104.366C350.126 94.0723 343.165 42.7021 321.575 45.3276Z" fill="#2C2C2C"/>
<path d="M288.415 87.7049C291.276 87.7049 293.594 85.3862 293.594 82.5261C293.594 79.6659 291.276 77.3473 288.415 77.3473C285.555 77.3473 283.237 79.6659 283.237 82.5261C283.237 85.3862 285.555 87.7049 288.415 87.7049Z" fill="white"/>
<path fill-rule="evenodd" clip-rule="evenodd" d="M288.414 77.6686C285.731 77.6686 283.556 79.8434 283.556 82.5262C283.556 85.209 285.731 87.3838 288.414 87.3838C291.097 87.3838 293.272 85.209 293.272 82.5262C293.272 79.8434 291.097 77.6686 288.414 77.6686ZM282.914 82.5262C282.914 79.4887 285.376 77.0263 288.414 77.0263C291.452 77.0263 293.914 79.4887 293.914 82.5262C293.914 85.5637 291.452 88.0261 288.414 88.0261C285.376 88.0261 282.914 85.5637 282.914 82.5262Z" fill="#2C2C2C"/>
<path d="M324.883 87.7049C327.743 87.7049 330.062 85.3862 330.062 82.5261C330.062 79.6659 327.743 77.3473 324.883 77.3473C322.023 77.3473 319.704 79.6659 319.704 82.5261C319.704 85.3862 322.023 87.7049 324.883 87.7049Z" fill="white"/>
<path fill-rule="evenodd" clip-rule="evenodd" d="M324.883 77.6686C322.2 77.6686 320.026 79.8434 320.026 82.5262C320.026 85.209 322.2 87.3838 324.883 87.3838C327.566 87.3838 329.741 85.209 329.741 82.5262C329.741 79.8434 327.566 77.6686 324.883 77.6686ZM319.383 82.5262C319.383 79.4887 321.846 77.0263 324.883 77.0263C327.921 77.0263 330.383 79.4887 330.383 82.5262C330.383 85.5637 327.921 88.0261 324.883 88.0261C321.846 88.0261 319.383 85.5637 319.383 82.5262Z" fill="#2C2C2C"/>
<path d="M307.138 104.132C318.255 104.132 327.267 91.3747 327.267 75.6372C327.267 59.8996 318.255 47.1419 307.138 47.1419C296.021 47.1419 287.009 59.8996 287.009 75.6372C287.009 91.3747 296.021 104.132 307.138 104.132Z" fill="white"/>
<path fill-rule="evenodd" clip-rule="evenodd" d="M293.167 55.6734C289.567 60.7697 287.331 67.827 287.331 75.6373C287.331 83.4476 289.567 90.5049 293.167 95.6012C296.768 100.698 301.712 103.811 307.138 103.811C312.565 103.811 317.509 100.698 321.109 95.6012C324.709 90.5049 326.946 83.4476 326.946 75.6373C326.946 67.827 324.709 60.7697 321.109 55.6734C317.509 50.5762 312.565 47.4632 307.138 47.4632C301.712 47.4632 296.768 50.5762 293.167 55.6734ZM292.643 55.3028C296.327 50.0866 301.448 46.8208 307.138 46.8208C312.829 46.8208 317.949 50.0866 321.634 55.3028C325.319 60.5197 327.588 67.7101 327.588 75.6373C327.588 83.5645 325.319 90.7549 321.634 95.9718C317.949 101.188 312.829 104.454 307.138 104.454C301.448 104.454 296.327 101.188 292.643 95.9718C288.957 90.7549 286.688 83.5645 286.688 75.6373C286.688 67.7101 288.957 60.5197 292.643 55.3028Z" fill="#2C2C2C"/>
<path d="M284.071 69.3184C284.071 69.3184 301.205 70.1534 306.914 59.8441C306.914 59.8441 319.311 70.5709 331.145 69.7359L330.029 64.9987L325.437 55.9419L322.651 52.6018L316.942 46.6121L309.282 43.4085L300.089 44.661L287.828 53.0193L286.295 58.5915L284.071 69.3184Z" fill="#2C2C2C"/>
<path d="M307.636 86.7736C307.644 86.8218 307.54 86.9101 307.307 86.9101C307.082 86.9181 306.737 86.8138 306.432 86.5247C306.279 86.3802 306.143 86.2035 306.038 85.9787C306.022 85.9466 306.014 85.9145 305.998 85.8824L305.982 85.8342L305.966 85.7941L305.942 85.7218C305.934 85.6897 305.926 85.6495 305.91 85.6174C305.878 85.497 305.854 85.3685 305.846 85.232C305.797 84.7021 305.902 84.1642 306.03 83.6503C306.528 81.5948 307.114 79.981 307.331 80.0292C307.548 80.0854 307.323 81.7875 306.825 83.843C306.697 84.3488 306.6 84.8065 306.6 85.1919C306.6 85.2882 306.608 85.3846 306.616 85.4729L306.624 85.505V85.5211V85.5291V85.5371C306.624 85.5371 306.616 85.5131 306.624 85.5211L306.64 85.6014L306.649 85.6415L306.657 85.6656L306.673 85.7138C306.721 85.8663 306.793 86.0109 306.873 86.1233C307.034 86.3561 307.227 86.5006 307.379 86.5809C307.516 86.6853 307.628 86.7174 307.636 86.7736Z" fill="#2C2C2C"/>
<path d="M285.379 78.9053C285.154 78.014 284.986 77.1067 284.849 76.1914C284.721 75.2761 284.633 74.3608 284.584 73.4374C284.504 71.5907 284.576 69.728 284.825 67.8893C285.074 66.0426 285.5 64.22 286.102 62.4536C286.134 62.3412 286.174 62.2288 286.214 62.1244L286.335 61.7952L286.576 61.1369L286.849 60.4865L286.985 60.1653C287.033 60.061 287.073 59.9485 287.13 59.8442C287.523 58.9931 287.949 58.15 288.43 57.3471C289.386 55.7252 290.502 54.1997 291.786 52.8107C293.079 51.4297 294.532 50.1932 296.122 49.1574C296.315 49.0209 296.524 48.9005 296.724 48.7801C296.925 48.6596 297.134 48.5312 297.335 48.4187L297.969 48.0815L298.282 47.9129C298.386 47.8567 298.499 47.8085 298.603 47.7604L299.254 47.4633C299.31 47.4392 299.358 47.4151 299.414 47.391L299.583 47.3268L299.912 47.1983L300.241 47.0699C300.354 47.0297 300.458 46.9815 300.578 46.9414L301.261 46.7166C303.075 46.1305 304.986 45.8334 306.897 45.7932C307.853 45.7611 308.808 45.8334 309.756 45.9378C309.996 45.9699 310.229 46.01 310.462 46.0421L310.815 46.0983C310.872 46.1064 310.936 46.1144 310.992 46.1305L311.169 46.1706L311.867 46.3231C312.1 46.3713 312.333 46.4356 312.558 46.4998C314.396 47.0137 316.171 47.7604 317.793 48.756L318.395 49.1333C318.499 49.1976 318.596 49.2618 318.692 49.3341L318.981 49.5348L319.27 49.7355C319.366 49.7998 319.463 49.872 319.559 49.9443L320.121 50.3778L320.402 50.5946L320.675 50.8275L321.213 51.2932C321.39 51.4457 321.558 51.6143 321.727 51.7829L321.984 52.0318C322.072 52.1121 322.153 52.1924 322.233 52.2807L322.723 52.7946L322.963 53.0515L323.196 53.3165L323.662 53.8545C323.742 53.9428 323.815 54.0391 323.887 54.1274L324.104 54.4085C324.248 54.5931 324.393 54.7778 324.537 54.9705L324.947 55.5486C325.228 55.926 325.469 56.3354 325.726 56.7289C326.721 58.3267 327.532 60.0288 328.174 61.7792C328.817 63.5376 329.274 65.3521 329.563 67.1908L329.62 67.536L329.644 67.7047L329.66 67.8813L329.74 68.5718C329.804 69.0295 329.82 69.4951 329.86 69.9608C329.917 70.8842 329.933 71.8156 329.909 72.7389L329.901 73.0842L329.885 73.4294C329.869 73.6623 329.86 73.8871 329.836 74.1199C329.804 74.5776 329.756 75.0433 329.7 75.5009C329.579 76.4162 329.427 77.3235 329.226 78.2228C329.339 77.3075 329.427 76.4002 329.459 75.4849C329.499 74.5695 329.507 73.6542 329.467 72.7469C329.427 71.8396 329.363 70.9243 329.25 70.0251C329.186 69.5754 329.138 69.1258 329.05 68.6762L328.929 68.0098L328.897 67.8412L328.857 67.6725L328.785 67.3433C328.407 65.5689 327.869 63.8346 327.187 62.1726L327.058 61.8595L326.922 61.5544L326.641 60.9361C326.553 60.7274 326.448 60.5347 326.344 60.3339L326.039 59.7318C325.934 59.531 325.822 59.3383 325.709 59.1456C325.597 58.9529 325.493 58.7522 325.372 58.5595L325.019 57.9894C324.899 57.7967 324.786 57.604 324.658 57.4274C324.401 57.0581 324.16 56.6807 323.887 56.3274L323.485 55.7895C323.349 55.6128 323.204 55.4442 323.06 55.2676L322.843 55.0106C322.771 54.9223 322.699 54.834 322.626 54.7537L322.177 54.2559L321.952 54.007L321.719 53.7661L321.245 53.2924C319.969 52.0559 318.547 50.972 317.014 50.0727C315.488 49.1735 313.842 48.491 312.14 48.0333C311.715 47.9049 311.281 47.8326 310.856 47.7363L310.695 47.7042C310.639 47.6961 310.583 47.6881 310.534 47.6801L310.205 47.6319C309.988 47.5998 309.772 47.5596 309.555 47.5355C308.68 47.4472 307.797 47.383 306.921 47.4071C305.163 47.4392 303.405 47.7042 301.727 48.2421L301.1 48.4428C300.996 48.475 300.891 48.5151 300.787 48.5552L300.482 48.6757L300.177 48.7961L300.024 48.8523C299.976 48.8684 299.92 48.9005 299.872 48.9166L299.27 49.1895C299.173 49.2377 299.069 49.2779 298.964 49.326L298.667 49.4786L298.081 49.7837C297.889 49.8961 297.696 50.0085 297.503 50.1129C297.311 50.2253 297.118 50.3297 296.933 50.4581C295.432 51.4056 294.051 52.5377 292.798 53.8063L292.34 54.2961L292.116 54.545C292.076 54.5851 292.035 54.6252 292.003 54.6654L291.899 54.7939L291.465 55.3077C291.393 55.396 291.321 55.4763 291.249 55.5647L291.04 55.8296L290.63 56.3595C290.558 56.4479 290.502 56.5362 290.43 56.6325L290.237 56.9055C290.108 57.0902 289.98 57.2668 289.851 57.4595L289.49 58.0296C288.535 59.5471 287.716 61.1609 287.073 62.839C286.423 64.5171 285.925 66.2674 285.588 68.0499L285.46 68.7163C285.419 68.9411 285.395 69.166 285.355 69.3908L285.259 70.0652C285.235 70.29 285.211 70.5148 285.187 70.7397L285.114 71.4221L285.074 72.1046L285.034 72.7871C285.026 73.0119 285.018 73.2447 285.01 73.4696C284.994 74.3849 285.01 75.2922 285.074 76.2075C285.146 77.0827 285.251 77.9899 285.379 78.9053Z" fill="#50BFD7"/>
<path d="M301.903 77.1471C301.903 79.4354 299.92 81.2901 297.479 81.2901C295.03 81.2901 293.055 79.4354 293.055 77.1471C293.055 74.8588 295.038 73.0041 297.479 73.0041C299.92 73.0041 301.903 74.8588 301.903 77.1471Z" fill="white"/>
<path fill-rule="evenodd" clip-rule="evenodd" d="M297.479 73.325C295.196 73.325 293.376 75.0556 293.376 77.1469C293.376 79.2385 295.188 80.9687 297.479 80.9687C299.763 80.9687 301.582 79.2381 301.582 77.1469C301.582 75.0556 299.763 73.325 297.479 73.325ZM292.734 77.1469C292.734 74.6616 294.881 72.6827 297.479 72.6827C300.077 72.6827 302.225 74.6616 302.225 77.1469C302.225 79.6322 300.077 81.6111 297.479 81.6111C294.873 81.6111 292.734 79.6318 292.734 77.1469Z" fill="#2C2C2C"/>
<path d="M295.312 76.89C295.312 78.7768 296.54 80.3104 298.05 80.3104C299.559 80.3104 300.787 78.7768 300.787 76.89C300.787 75.0031 299.559 73.4696 298.05 73.4696C296.532 73.4615 295.312 74.9951 295.312 76.89Z" fill="#50BFD7"/>
<path d="M296.098 76.89C296.098 78.2309 296.965 79.3148 298.041 79.3148C299.117 79.3148 299.984 78.2309 299.984 76.89C299.984 75.5492 299.117 74.4572 298.041 74.4572C296.973 74.4572 296.098 75.5411 296.098 76.89Z" fill="#2C2C2C"/>
<path d="M295.978 74.5854C295.978 74.9548 296.428 75.2438 296.982 75.2438C297.536 75.2438 297.986 74.9467 297.986 74.5854C297.986 74.2161 297.536 73.9271 296.982 73.9271C296.428 73.919 295.978 74.2161 295.978 74.5854Z" fill="white"/>
<path d="M297.769 72.4015C295.031 72.1286 292.928 74.6015 292.928 77.1548C292.928 77.4197 293.257 77.4679 293.393 77.2832C294.509 75.7497 294.871 74.2402 296.91 73.6541C299.921 72.7869 301.575 75.8781 301.744 78.3029C301.768 78.5358 301.969 78.327 301.993 78.0861C302.266 75.1876 300.82 72.7066 297.769 72.4015Z" fill="#2C2C2C"/>
<path d="M303.173 70.8115C303.173 70.8115 297.199 64.8539 290.776 71.9276C290.768 71.9276 296.324 68.3707 303.173 70.8115Z" fill="#2C2C2C"/>
<path d="M321.15 77.1467C321.15 79.435 319.167 81.2898 316.726 81.2898C314.277 81.2898 312.302 79.435 312.302 77.1467C312.302 74.8584 314.285 73.0037 316.726 73.0037C319.167 73.0037 321.15 74.8584 321.15 77.1467Z" fill="white"/>
<path fill-rule="evenodd" clip-rule="evenodd" d="M316.725 73.325C314.441 73.325 312.622 75.0556 312.622 77.1469C312.622 79.2385 314.433 80.9687 316.725 80.9687C319.008 80.9687 320.828 79.2381 320.828 77.1469C320.828 75.0556 319.008 73.325 316.725 73.325ZM311.979 77.1469C311.979 74.6616 314.127 72.6827 316.725 72.6827C319.323 72.6827 321.47 74.6616 321.47 77.1469C321.47 79.6322 319.323 81.6111 316.725 81.6111C314.118 81.6111 311.979 79.6318 311.979 77.1469Z" fill="#2C2C2C"/>
<path d="M314.557 76.89C314.557 78.7768 315.785 80.3104 317.295 80.3104C318.804 80.3104 320.033 78.7768 320.033 76.89C320.033 75.0031 318.804 73.4696 317.295 73.4696C315.785 73.4615 314.557 74.9951 314.557 76.89Z" fill="#50BFD7"/>
<path d="M315.353 76.8897C315.353 78.2305 316.22 79.3144 317.296 79.3144C318.372 79.3144 319.239 78.2305 319.239 76.8897C319.239 75.5488 318.372 74.4568 317.296 74.4568C316.22 74.4568 315.353 75.5408 315.353 76.8897Z" fill="#2C2C2C"/>
<path d="M315.224 74.5854C315.224 74.9548 315.673 75.2438 316.227 75.2438C316.781 75.2438 317.231 74.9467 317.231 74.5854C317.231 74.2161 316.781 73.9271 316.227 73.9271C315.681 73.919 315.224 74.2161 315.224 74.5854Z" fill="white"/>
<path d="M317.015 72.4015C314.277 72.1286 312.173 74.6015 312.173 77.1548C312.173 77.4197 312.502 77.4679 312.639 77.2832C313.755 75.7497 314.116 74.2402 316.155 73.6541C319.166 72.7869 320.82 75.8781 320.989 78.3029C321.013 78.5358 321.214 78.327 321.238 78.0861C321.511 75.1876 320.074 72.7066 317.015 72.4015Z" fill="#2C2C2C"/>
<path d="M322.418 70.1618C322.418 70.1618 316.444 64.2042 310.021 71.2778C310.021 71.2778 315.577 67.7209 322.418 70.1618Z" fill="#2C2C2C"/>
<path d="M291.803 278.204C291.803 278.204 292.277 279.705 292.414 279.938C292.558 280.171 296.243 281.44 300.74 281.343C305.413 281.247 307.548 279.89 307.613 278.196H291.803V278.204Z" fill="#50BFD7"/>
<path fill-rule="evenodd" clip-rule="evenodd" d="M291.482 277.875H307.946L307.934 278.208C307.896 279.211 307.24 280.06 306.048 280.656C304.862 281.249 303.106 281.616 300.747 281.664M291.482 277.875V278.196V277.875ZM291.803 278.204L291.497 278.301L291.482 278.253V278.196M291.803 278.204C291.497 278.301 291.497 278.301 291.497 278.301L291.503 278.318C291.506 278.329 291.511 278.345 291.518 278.366C291.531 278.408 291.551 278.468 291.574 278.541C291.621 278.686 291.685 278.882 291.753 279.086C291.821 279.289 291.894 279.502 291.959 279.68C292.02 279.845 292.085 280.012 292.137 280.101L292.139 280.104L292.141 280.108C292.173 280.159 292.213 280.194 292.235 280.212C292.261 280.233 292.288 280.252 292.314 280.267C292.365 280.299 292.427 280.33 292.494 280.361C292.631 280.424 292.815 280.496 293.039 280.573C293.488 280.728 294.114 280.908 294.875 281.078C296.396 281.416 298.468 281.713 300.747 281.664M292.242 278.517H307.246C307.106 279.09 306.65 279.637 305.761 280.082C304.695 280.615 303.046 280.975 300.733 281.022L300.733 281.022C298.516 281.07 296.496 280.781 295.015 280.451C294.274 280.286 293.671 280.112 293.248 279.966C293.036 279.893 292.873 279.828 292.763 279.778C292.722 279.759 292.691 279.743 292.669 279.731C292.662 279.715 292.654 279.697 292.645 279.675C292.622 279.617 292.593 279.543 292.562 279.459C292.5 279.289 292.429 279.083 292.362 278.882C292.319 278.754 292.278 278.628 292.242 278.517Z" fill="#2C2C2C"/>
<path d="M291.811 278.525C292.517 279.159 293.441 279.641 294.115 279.858C295.793 280.412 297.632 280.62 299.39 280.717C301.261 280.813 303.316 280.781 305.067 280.042C306.014 279.641 306.817 279.055 307.564 278.388C307.901 277.561 307.989 276.622 307.965 275.659C307.909 273.924 307.516 272.246 307.21 270.544C307.162 270.295 307.122 270.054 307.082 269.813C306.994 268.705 306.913 267.589 306.841 266.489C306.817 266.08 306.769 265.718 306.777 265.309C306.785 265.036 306.881 264.594 306.809 264.337C306.801 264.305 306.785 264.281 306.777 264.257C306.777 264.217 306.785 264.177 306.777 264.137C306.464 263.88 306.135 263.639 305.757 263.535C305.484 263.583 305.211 263.671 305.035 263.743C304.754 263.856 304.505 264 304.28 264.169C303.726 263.414 302.361 263.061 301.59 263.029C300.386 262.981 298.78 263.189 297.824 264.072C297.664 263.92 297.415 263.84 297.198 263.8C297.15 263.791 297.094 263.783 297.046 263.775C296.484 263.992 296.628 265.373 296.572 265.767C296.492 266.289 296.411 266.81 296.283 267.316C296.026 268.288 295.657 269.179 295.095 270.014C294.492 270.913 293.705 271.692 293.015 272.519C292.919 272.688 292.814 272.856 292.718 273.017C291.979 274.205 291.377 275.931 291.538 277.345C291.578 277.794 291.674 278.18 291.811 278.525Z" fill="#50BFD7"/>
<path fill-rule="evenodd" clip-rule="evenodd" d="M299.541 262.888C300.247 262.724 300.979 262.683 301.603 262.708L301.604 262.708C302.023 262.725 302.59 262.828 303.127 263.026C303.56 263.185 304.004 263.417 304.333 263.742C304.512 263.629 304.705 263.529 304.914 263.445C305.109 263.366 305.403 263.271 305.701 263.218L305.773 263.205L305.843 263.225C306.291 263.349 306.665 263.629 306.981 263.888L307.069 263.961L307.092 264.073C307.102 264.124 307.102 264.169 307.101 264.199C307.107 264.214 307.114 264.233 307.119 264.254C307.172 264.446 307.159 264.673 307.143 264.846C307.136 264.927 307.128 264.998 307.12 265.062C307.109 265.16 307.1 265.241 307.098 265.317C307.093 265.579 307.112 265.81 307.132 266.066C307.143 266.192 307.153 266.324 307.162 266.469C307.234 267.563 307.313 268.672 307.401 269.774C307.441 270.011 307.479 270.243 307.526 270.483L307.526 270.485L307.527 270.487C307.59 270.838 307.657 271.19 307.724 271.544C307.98 272.886 308.241 274.251 308.286 275.648L308.286 275.649L308.286 275.65C308.311 276.634 308.222 277.624 307.861 278.509L307.833 278.578L307.778 278.628C307.016 279.308 306.183 279.918 305.192 280.338L305.192 280.338C303.369 281.107 301.25 281.134 299.374 281.037L299.373 281.037C297.605 280.94 295.734 280.73 294.016 280.163C293.302 279.933 292.339 279.43 291.596 278.764L291.54 278.713L291.512 278.643C291.364 278.269 291.261 277.855 291.218 277.377C291.048 275.867 291.685 274.071 292.444 272.849C292.472 272.802 292.5 272.755 292.529 272.709C292.599 272.592 292.669 272.477 292.736 272.36L292.75 272.335L292.769 272.313C293.006 272.029 293.246 271.759 293.484 271.492C293.965 270.951 294.432 270.426 294.828 269.835L294.828 269.834C295.366 269.035 295.722 268.179 295.972 267.235C296.096 266.748 296.174 266.243 296.254 265.719C296.264 265.65 296.266 265.526 296.269 265.341C296.269 265.332 296.269 265.323 296.27 265.314C296.273 265.126 296.278 264.898 296.3 264.673C296.321 264.451 296.361 264.211 296.444 264.003C296.526 263.798 296.671 263.576 296.93 263.476L297.012 263.444L297.098 263.458C297.12 263.462 297.144 263.466 297.171 263.47L297.172 263.47C297.197 263.474 297.225 263.478 297.251 263.482L297.254 263.483L297.257 263.483C297.417 263.513 297.62 263.567 297.805 263.667C298.307 263.276 298.922 263.033 299.541 262.888ZM299.687 263.514C299.047 263.663 298.465 263.917 298.043 264.308L297.822 264.512L297.603 264.305C297.512 264.219 297.341 264.153 297.143 264.116C297.134 264.114 297.124 264.113 297.114 264.111C297.093 264.136 297.067 264.176 297.041 264.242C296.991 264.366 296.958 264.536 296.939 264.736C296.92 264.932 296.915 265.137 296.912 265.325C296.912 265.342 296.911 265.359 296.911 265.376C296.908 265.536 296.906 265.7 296.89 265.812L296.89 265.814L296.888 265.823C296.809 266.34 296.726 266.874 296.594 267.395L296.594 267.397L296.593 267.398C296.329 268.397 295.947 269.323 295.361 270.193C294.941 270.82 294.423 271.402 293.926 271.962C293.703 272.213 293.484 272.46 293.28 272.703C293.212 272.82 293.141 272.937 293.074 273.049C293.046 273.094 293.019 273.139 292.993 273.182L292.992 273.184L292.991 273.186C292.273 274.34 291.707 275.993 291.857 277.308L291.857 277.312L291.858 277.316C291.892 277.704 291.972 278.038 292.082 278.336C292.745 278.913 293.596 279.353 294.213 279.552L294.215 279.552L294.216 279.552C295.853 280.093 297.659 280.3 299.407 280.396C301.272 280.492 303.264 280.454 304.942 279.746C305.822 279.373 306.579 278.83 307.294 278.199C307.585 277.446 307.667 276.582 307.644 275.667C307.601 274.327 307.353 273.025 307.098 271.691C307.03 271.331 306.96 270.969 306.895 270.603C306.846 270.35 306.805 270.107 306.766 269.868L306.763 269.852L306.762 269.839C306.673 268.729 306.593 267.611 306.521 266.51L306.521 266.509L306.521 266.508C306.514 266.392 306.504 266.275 306.495 266.155C306.473 265.882 306.45 265.598 306.456 265.302L306.456 265.301L306.456 265.299C306.459 265.2 306.473 265.07 306.486 264.95C306.493 264.892 306.499 264.836 306.503 264.788C306.519 264.611 306.518 264.492 306.501 264.427C306.5 264.426 306.5 264.425 306.499 264.424L306.498 264.42C306.496 264.417 306.494 264.412 306.491 264.407C306.487 264.396 306.479 264.379 306.472 264.358L306.456 264.309V264.29C306.212 264.098 305.982 263.946 305.74 263.865C305.517 263.91 305.299 263.982 305.156 264.04L305.155 264.041L305.154 264.041C304.901 264.142 304.676 264.273 304.473 264.426L304.213 264.62L304.021 264.359C303.799 264.056 303.388 263.807 302.905 263.629C302.429 263.454 301.928 263.364 301.577 263.349C300.997 263.326 300.324 263.365 299.687 263.514Z" fill="#2C2C2C"/>
<path d="M326.617 278.204C326.617 278.204 326.151 279.705 326.006 279.938C325.862 280.171 322.177 281.44 317.68 281.343C313.007 281.247 310.872 279.89 310.807 278.196H326.617V278.204Z" fill="#50BFD7"/>
<path fill-rule="evenodd" clip-rule="evenodd" d="M310.474 277.875H326.938V278.253L326.924 278.299L326.617 278.204C326.924 278.299 326.924 278.299 326.924 278.299L326.924 278.299L326.924 278.299L326.918 278.316C326.915 278.328 326.91 278.344 326.903 278.365C326.89 278.407 326.871 278.467 326.848 278.54C326.802 278.685 326.739 278.881 326.671 279.085C326.603 279.289 326.53 279.502 326.464 279.68C326.404 279.844 326.337 280.016 326.28 280.108C326.248 280.159 326.208 280.194 326.186 280.212C326.16 280.233 326.132 280.252 326.107 280.267C326.056 280.299 325.994 280.33 325.926 280.361C325.79 280.424 325.606 280.496 325.382 280.573C324.933 280.728 324.306 280.908 323.545 281.078C322.024 281.416 319.953 281.713 317.674 281.664M326.181 278.517H311.175C311.314 279.09 311.77 279.637 312.66 280.082C313.726 280.615 315.374 280.975 317.687 281.022L317.687 281.022C319.905 281.07 321.924 280.781 323.406 280.451C324.147 280.286 324.749 280.112 325.173 279.966C325.385 279.893 325.547 279.828 325.658 279.778C325.7 279.758 325.731 279.742 325.753 279.73C325.761 279.714 325.769 279.695 325.778 279.673C325.802 279.615 325.831 279.542 325.862 279.458C325.924 279.289 325.995 279.083 326.061 278.882C326.104 278.754 326.145 278.629 326.181 278.517ZM310.474 277.875L310.487 278.208L310.474 277.875ZM310.487 278.208C310.525 279.211 311.181 280.06 312.372 280.656L310.487 278.208ZM312.372 280.656C313.558 281.249 315.314 281.616 317.674 281.664L312.372 280.656Z" fill="#2C2C2C"/>
<path d="M326.609 278.525C325.903 279.159 324.979 279.641 324.305 279.858C322.627 280.412 320.788 280.62 319.03 280.717C317.159 280.813 315.104 280.781 313.353 280.042C312.406 279.641 311.603 279.055 310.856 278.388C310.519 277.561 310.431 276.622 310.455 275.659C310.511 273.924 310.904 272.246 311.21 270.544C311.258 270.295 311.298 270.054 311.338 269.813C311.426 268.705 311.507 267.589 311.579 266.489C311.611 266.08 311.651 265.718 311.643 265.309C311.635 265.036 311.539 264.594 311.611 264.337C311.619 264.305 311.635 264.281 311.643 264.257C311.643 264.217 311.635 264.177 311.643 264.137C311.956 263.88 312.277 263.639 312.663 263.535C312.936 263.583 313.209 263.671 313.385 263.743C313.666 263.856 313.915 264 314.14 264.169C314.694 263.414 316.059 263.061 316.83 263.029C318.034 262.981 319.64 263.189 320.596 264.072C320.756 263.92 321.005 263.84 321.222 263.8C321.27 263.791 321.326 263.783 321.374 263.775C321.936 263.992 321.792 265.373 321.848 265.767C321.928 266.289 322.009 266.81 322.137 267.316C322.394 268.288 322.763 269.179 323.325 270.014C323.928 270.913 324.714 271.692 325.405 272.519C325.501 272.688 325.606 272.856 325.702 273.017C326.441 274.205 327.043 275.931 326.882 277.345C326.842 277.794 326.746 278.18 326.609 278.525Z" fill="#50BFD7"/>
<path fill-rule="evenodd" clip-rule="evenodd" d="M318.733 263.514C318.096 263.365 317.423 263.326 316.843 263.349C316.492 263.364 315.991 263.454 315.515 263.629C315.032 263.807 314.621 264.056 314.399 264.359L314.207 264.62L313.948 264.426C313.744 264.273 313.519 264.142 313.266 264.041L313.265 264.041L313.264 264.04C313.121 263.982 312.902 263.91 312.68 263.864C312.433 263.945 312.208 264.097 311.964 264.29V264.309L311.948 264.358C311.941 264.379 311.934 264.396 311.929 264.407C311.926 264.412 311.924 264.417 311.923 264.42C311.921 264.424 311.92 264.425 311.919 264.427C311.902 264.492 311.901 264.611 311.917 264.788C311.921 264.836 311.927 264.892 311.934 264.95C311.947 265.07 311.961 265.2 311.964 265.299L311.964 265.301L311.964 265.302C311.971 265.653 311.944 265.974 311.917 266.296C311.911 266.368 311.905 266.44 311.899 266.512C311.827 267.613 311.747 268.73 311.658 269.839L311.657 269.852L311.655 269.867C311.615 270.107 311.574 270.35 311.525 270.603C311.46 270.969 311.391 271.331 311.322 271.691C311.068 273.025 310.819 274.327 310.776 275.667C310.753 276.582 310.835 277.446 311.127 278.199C311.842 278.83 312.598 279.373 313.479 279.746C315.157 280.454 317.148 280.492 319.013 280.396C320.762 280.3 322.567 280.093 324.204 279.552L324.206 279.552L324.207 279.552C324.824 279.353 325.675 278.913 326.338 278.336C326.449 278.038 326.528 277.704 326.563 277.316L326.563 277.312L326.563 277.308C326.713 275.993 326.147 274.34 325.429 273.186L325.428 273.184L325.427 273.182C325.401 273.139 325.374 273.094 325.346 273.049C325.279 272.937 325.208 272.82 325.141 272.703C324.936 272.46 324.717 272.213 324.494 271.962C323.997 271.402 323.479 270.82 323.059 270.193C322.473 269.323 322.091 268.397 321.827 267.398L321.826 267.397L321.826 267.395C321.694 266.874 321.611 266.34 321.532 265.823L321.53 265.814L321.53 265.812C321.514 265.7 321.512 265.535 321.509 265.376C321.509 265.359 321.509 265.342 321.508 265.325C321.505 265.137 321.501 264.932 321.481 264.736C321.462 264.536 321.429 264.366 321.379 264.242C321.353 264.176 321.328 264.136 321.306 264.111C321.296 264.113 321.287 264.114 321.278 264.116C321.079 264.153 320.908 264.219 320.817 264.305L320.599 264.512L320.378 264.308C319.955 263.917 319.373 263.663 318.733 263.514ZM320.615 263.667C320.113 263.276 319.498 263.033 318.879 262.888C318.173 262.724 317.441 262.683 316.817 262.708L316.817 262.708C316.397 262.725 315.83 262.828 315.293 263.026C314.861 263.185 314.416 263.417 314.087 263.742C313.908 263.629 313.715 263.529 313.506 263.445C313.312 263.366 313.017 263.271 312.719 263.218L312.648 263.206L312.579 263.224C312.121 263.348 311.753 263.631 311.439 263.888L311.351 263.961L311.328 264.073C311.318 264.124 311.318 264.169 311.319 264.199C311.313 264.214 311.306 264.233 311.301 264.254C311.248 264.446 311.261 264.673 311.277 264.846C311.285 264.927 311.293 264.998 311.3 265.062C311.311 265.16 311.32 265.241 311.322 265.317C311.328 265.63 311.305 265.911 311.278 266.23C311.272 266.305 311.265 266.383 311.259 266.464L311.259 266.466L311.258 266.468C311.187 267.562 311.107 268.672 311.019 269.774C310.98 270.011 310.941 270.243 310.894 270.483L310.894 270.485L310.893 270.487C310.831 270.838 310.763 271.19 310.696 271.544C310.44 272.886 310.179 274.251 310.134 275.648L310.134 275.649L310.134 275.65C310.109 276.634 310.198 277.624 310.559 278.509L310.587 278.578L310.642 278.628C311.404 279.308 312.237 279.918 313.228 280.338L313.229 280.338C315.051 281.107 317.17 281.134 319.046 281.037L319.048 281.037C320.815 280.94 322.687 280.73 324.405 280.163C325.118 279.933 326.081 279.43 326.824 278.764L326.88 278.713L326.908 278.643C327.056 278.269 327.159 277.855 327.202 277.377C327.372 275.867 326.735 274.071 325.976 272.849C325.948 272.802 325.92 272.756 325.892 272.709C325.821 272.592 325.751 272.477 325.684 272.36L325.67 272.335L325.652 272.313C325.414 272.029 325.174 271.759 324.937 271.492C324.455 270.951 323.988 270.426 323.592 269.835L323.592 269.834C323.054 269.035 322.698 268.179 322.448 267.235C322.324 266.748 322.246 266.243 322.166 265.719C322.156 265.65 322.154 265.526 322.151 265.341L322.151 265.314C322.147 265.126 322.143 264.898 322.121 264.673C322.099 264.451 322.059 264.211 321.976 264.003C321.894 263.798 321.749 263.576 321.49 263.476L321.408 263.444L321.322 263.458C321.3 263.462 321.276 263.466 321.249 263.47L321.248 263.47C321.223 263.474 321.195 263.478 321.169 263.482L321.166 263.483L321.163 263.483C321.003 263.513 320.801 263.567 320.615 263.667ZM311.343 264.144C311.343 264.144 311.343 264.144 311.343 264.144V264.144Z" fill="#2C2C2C"/>
<path fill-rule="evenodd" clip-rule="evenodd" d="M286.609 74.1281V74.2887H285.966V74.1281H286.609Z" fill="#2C2C2C"/>
<path fill-rule="evenodd" clip-rule="evenodd" d="M289.98 75.8942V76.0548H289.338V75.8942H289.98Z" fill="#2C2C2C"/>
<path d="M308.247 74.9468C309.347 75.1796 308.937 75.8942 308.937 75.9986C308.937 76.1029 309.347 82.0445 314.654 83.6102C319.961 85.1758 323.141 82.1007 324.064 80.5591C324.988 79.0175 325.758 75.3562 325.983 75.0752C326.216 74.7942 327.316 74.3044 327.316 74.3044L327.444 72.8672L326.063 72.4577C326.063 72.4577 322.579 70.868 317.448 70.7957C312.326 70.7154 309.427 73.6701 309.427 73.6701C307.982 73.2125 306.191 73.1482 304.553 73.6701C304.553 73.6701 301.655 70.7234 296.532 70.7957C291.41 70.876 287.917 72.4577 287.917 72.4577L286.536 72.8672L286.665 74.3044C286.665 74.3044 287.765 74.7942 287.997 75.0752C288.23 75.3562 288.993 79.0255 289.916 80.5591C290.84 82.1007 294.019 85.1758 299.326 83.6102C304.634 82.0445 305.043 76.1029 305.043 75.9986C305.043 75.8942 304.634 75.1796 305.734 74.9468C306.689 74.746 307.291 74.746 308.247 74.9468ZM320.981 82.3817C316.934 84.8145 312.085 82.3576 310.623 79.154C309.162 75.9504 310.391 74.2563 310.391 74.2563C312.839 70.2738 322.691 70.1052 324.385 74.4088C324.674 75.1314 325.036 79.9489 320.981 82.3817ZM289.587 74.4088C291.281 70.0972 301.141 70.2738 303.582 74.2563C303.582 74.2563 304.81 75.9504 303.349 79.154C301.888 82.3576 297.046 84.8145 292.992 82.3817C288.945 79.9489 289.306 75.1314 289.587 74.4088Z" fill="#2C2C2C"/>
<path d="M310.727 118.063H304.561C302.923 118.063 301.59 119.396 301.59 121.034V127.2C301.59 128.838 302.923 130.171 304.561 130.171H310.727C312.365 130.171 313.698 128.838 313.698 127.2V121.034C313.698 119.396 312.373 118.063 310.727 118.063ZM299.952 115.438C299.013 115.438 298.25 116.2 298.25 117.14C298.25 118.079 299.013 118.842 299.952 118.842C300.892 118.842 301.654 118.079 301.654 117.14C301.654 116.2 300.892 115.438 299.952 115.438Z" fill="white"/>
<path d="M310.294 121.74C309.901 120.689 308.897 119.99 307.773 119.99H306.103L309.403 128.356H312.944L310.294 121.74ZM303.55 125.956L302.586 128.356H306.103L307.741 124.205H306.071C304.947 124.205 303.943 124.904 303.55 125.956ZM304.096 122.07C304.674 122.07 305.148 121.596 305.148 121.018C305.148 120.44 304.674 119.966 304.096 119.966C303.518 119.966 303.044 120.44 303.044 121.018C303.044 121.596 303.518 122.07 304.096 122.07Z" fill="#50BFD7"/>
<path fill-rule="evenodd" clip-rule="evenodd" d="M310.525 95.1364C307.019 93.0289 304.184 94.2804 303.259 95.084C303.044 95.2701 302.719 95.2473 302.533 95.0328C302.347 94.8184 302.37 94.4936 302.584 94.3074C303.805 93.2478 307.122 91.8909 311.054 94.255C311.298 94.4013 311.376 94.7172 311.23 94.9606C311.084 95.204 310.768 95.2827 310.525 95.1364Z" fill="#2C2C2C"/>
</svg>
