<svg width="372" height="275" viewBox="0 0 372 275" fill="none" xmlns="http://www.w3.org/2000/svg">
<path d="M189.458 237.703C189.458 237.703 246.881 240.388 283.203 175.494C319.526 110.6 276.787 50.9058 210.764 38.0066C144.742 25.1075 111.849 -23.325 53.0028 13.7498C-5.8434 50.8246 26.858 248.272 189.458 237.703Z" fill="#70CDE0"/>
<path opacity="0.4" d="M189.458 237.703C189.458 237.703 246.881 240.388 283.203 175.494C319.526 110.6 276.787 50.9058 210.764 38.0066C144.742 25.1075 111.849 -23.325 53.0028 13.7498C-5.8434 50.8246 26.858 248.272 189.458 237.703Z" fill="white"/>
<path d="M40.1657 144.05L49.3922 121.792C49.8155 120.777 49.2864 119.954 48.2136 119.954H46.3568C46.1991 119.973 46.0393 119.96 45.8868 119.916C45.7343 119.872 45.5922 119.797 45.4689 119.697C45.3456 119.597 45.2435 119.474 45.1688 119.334C45.0941 119.194 45.0483 119.04 45.0339 118.882L44.9714 118.064C44.9565 117.906 44.9101 117.753 44.8352 117.614C44.7602 117.474 44.6581 117.351 44.5348 117.251C44.4116 117.152 44.2697 117.078 44.1175 117.034C43.9653 116.99 43.8058 116.977 43.6485 116.996H34.831C34.0608 117.033 33.332 117.355 32.7865 117.9L32.0698 118.593C31.5277 119.14 30.7995 119.463 30.0301 119.498H18.7977C18.2258 119.529 17.6735 119.718 17.2011 120.042C16.7286 120.366 16.3541 120.813 16.1183 121.335L6.97845 144.05H40.1657Z" fill="#51C0D7"/>
<g opacity="0.3">
<path opacity="0.3" d="M40.1657 144.05L49.3922 121.792C49.8155 120.777 49.2864 119.954 48.2136 119.954H46.3568C46.1991 119.973 46.0393 119.96 45.8868 119.916C45.7343 119.872 45.5922 119.797 45.4689 119.697C45.3456 119.597 45.2435 119.474 45.1688 119.334C45.0941 119.194 45.0483 119.04 45.0339 118.882L44.9714 118.064C44.9565 117.906 44.9101 117.753 44.8352 117.614C44.7602 117.474 44.6581 117.351 44.5348 117.251C44.4116 117.152 44.2697 117.078 44.1175 117.034C43.9653 116.99 43.8058 116.977 43.6485 116.996H34.831C34.0608 117.033 33.332 117.355 32.7865 117.9L32.0698 118.593C31.5277 119.14 30.7995 119.463 30.0301 119.498H18.7977C18.2258 119.529 17.6735 119.718 17.2011 120.042C16.7286 120.366 16.3541 120.813 16.1183 121.335L6.97845 144.05H40.1657Z" fill="black"/>
</g>
<path d="M41.6909 136.488L45.1736 123.019C45.3997 122.134 44.8225 121.244 44.0143 121.244H16.7439C16.466 121.257 16.2004 121.362 15.9894 121.544C15.7784 121.725 15.6342 121.972 15.5797 122.244L10.5143 142.511C10.2931 143.401 10.649 143.954 11.4764 143.925H38.896C39.1698 143.908 39.4305 143.802 39.6375 143.622C39.8445 143.442 39.9863 143.198 40.0409 142.929L41.6909 136.488Z" fill="#E0E0E0"/>
<path d="M39.8094 143.44L41.2911 122.274C41.3029 122.096 41.2781 121.918 41.2182 121.75C41.1583 121.582 41.0645 121.429 40.9427 121.299C40.8209 121.169 40.6736 121.065 40.5101 120.995C40.3466 120.924 40.1703 120.888 39.9922 120.888H11.7357V143.459L39.8094 143.44Z" fill="#EBEBEB"/>
<path d="M40.1216 143.925L36.7543 122.086C36.6762 121.738 36.4813 121.428 36.2021 121.206C35.9228 120.985 35.5761 120.866 35.2198 120.869H6.64087C6.3836 120.865 6.12946 120.926 5.90153 121.045C5.6736 121.164 5.47911 121.339 5.33573 121.552C5.19234 121.766 5.10462 122.012 5.08052 122.268C5.05642 122.524 5.09671 122.782 5.19773 123.019L11.3695 143.031L40.1216 143.925Z" fill="#FAFAFA"/>
<path d="M40.1651 144.041L33.2333 123.587C33.1049 123.174 32.8499 122.813 32.5045 122.554C32.1591 122.295 31.7408 122.151 31.3091 122.144H1.84027C1.61302 122.15 1.39055 122.211 1.19101 122.319C0.991462 122.428 0.82048 122.583 0.691997 122.771C0.563514 122.958 0.481164 123.173 0.451658 123.399C0.422152 123.624 0.446326 123.853 0.522208 124.068L6.96821 144.046L40.1651 144.041Z" fill="#51C0D7"/>
<path d="M171.551 212.435V190H135.449V212.435C135.454 216.279 133.937 219.969 131.228 222.696L123 231H184L175.778 222.696C173.065 219.971 171.544 216.281 171.551 212.435Z" fill="white" stroke="#263238" stroke-width="1.10627" stroke-linecap="round" stroke-linejoin="round"/>
<path opacity="0.44" d="M134.932 190V212.007C134.931 213.713 134.615 215.404 134 217H172C171.388 215.404 171.072 213.713 171.068 212.007V190H134.932Z" fill="#51C0D7"/>
<path d="M172 191H135V208H172V191Z" fill="#263238" stroke="#263238" stroke-width="1.10627" stroke-miterlimit="10"/>
<path d="M184 231H123V232H184V231Z" fill="white" stroke="#263238" stroke-width="1.10627" stroke-linecap="round" stroke-linejoin="round"/>
<path d="M65.4719 52H241.49C242.609 51.9992 243.717 52.2189 244.751 52.6467C245.784 53.0745 246.723 53.7019 247.514 54.4929C248.304 55.2839 248.931 56.223 249.358 57.2564C249.784 58.2898 250.002 59.3972 250 60.515V191.807C249.992 194.252 249.012 196.594 247.276 198.318C245.54 200.042 243.19 201.007 240.742 201H66.2261C63.7792 201 61.4325 200.029 59.7023 198.3C57.972 196.571 57 194.227 57 191.782V60.4836C57.0033 58.2379 57.8963 56.0848 59.4839 54.4951C61.0714 52.9054 63.2243 52.0083 65.4719 52Z" fill="#263238" stroke="#263238" stroke-width="1.10627" stroke-miterlimit="10"/>
<path d="M57 184H250V191.912C250 194.322 249.028 196.634 247.298 198.338C245.568 200.042 243.222 201 240.775 201H66.256C63.8095 201 61.4632 200.042 59.7332 198.338C58.0033 196.634 57.0314 194.322 57.0314 191.912V184H57Z" fill="white" stroke="#263238" stroke-width="1.10627" stroke-miterlimit="10"/>
<path d="M241.585 61.4796H66.2546V176.308H241.585V61.4796Z" fill="white" stroke="#263238" stroke-width="0.829701" stroke-linecap="round" stroke-linejoin="round"/>
<path d="M241.585 61.4796H66.2546V98.6913H241.585V61.4796Z" fill="#51C0D7"/>
<path d="M84.1212 168.573H77.0592V107.912H84.1212V168.573ZM97.9643 107.875H90.9406V168.573H98.0026L97.9643 107.875ZM111.814 107.875H104.745V168.573H111.814V107.875ZM125.65 107.875H118.588V168.573H125.65V107.875ZM139.493 107.875H132.431V168.573H139.493V107.875ZM153.33 107.875H146.268V168.573H153.33V107.875ZM167.18 107.875H160.111V168.573H167.18V107.875ZM181.023 107.875H173.961V168.573H181.023V107.875ZM194.859 107.875H187.797V168.573H194.859V107.875ZM208.702 107.875H201.64V168.573H208.702V107.875Z" fill="#51C0D7"/>
<path opacity="0.4" d="M84.1212 168.573H77.0592V107.912H84.1212V168.573ZM97.9643 107.875H90.9406V168.573H98.0026L97.9643 107.875ZM111.814 107.875H104.745V168.573H111.814V107.875ZM125.65 107.875H118.588V168.573H125.65V107.875ZM139.493 107.875H132.431V168.573H139.493V107.875ZM153.33 107.875H146.268V168.573H153.33V107.875ZM167.18 107.875H160.111V168.573H167.18V107.875ZM181.023 107.875H173.961V168.573H181.023V107.875ZM194.859 107.875H187.797V168.573H194.859V107.875ZM208.702 107.875H201.64V168.573H208.702V107.875Z" fill="white"/>
<path d="M120.944 75.4119H74.5172C74.1057 75.4119 73.7111 75.2513 73.4201 74.9655C73.1291 74.6796 72.9656 74.2919 72.9656 73.8876C72.9673 73.4844 73.1315 73.0983 73.4223 72.8138C73.7131 72.5293 74.1068 72.3695 74.5172 72.3695H120.944C121.354 72.3695 121.747 72.5295 122.036 72.8142C122.326 73.0988 122.489 73.485 122.489 73.8876C122.49 74.0875 122.451 74.2856 122.373 74.4705C122.296 74.6554 122.182 74.8235 122.039 74.9651C121.895 75.1067 121.725 75.2191 121.537 75.2958C121.349 75.3725 121.147 75.4119 120.944 75.4119Z" fill="white" stroke="#263238" stroke-width="0.829701" stroke-linecap="round" stroke-linejoin="round"/>
<path d="M106.896 75.4119H74.5172C74.1057 75.4119 73.7111 75.2513 73.4201 74.9655C73.1291 74.6796 72.9656 74.2919 72.9656 73.8876C72.9673 73.4844 73.1315 73.0983 73.4223 72.8138C73.7131 72.5293 74.1068 72.3695 74.5172 72.3695H106.896V75.4119Z" fill="#263238" stroke="#263238" stroke-width="1.10627" stroke-linecap="round" stroke-linejoin="round"/>
<path d="M120.944 81.3775H74.5172C74.3138 81.3783 74.1122 81.3397 73.9239 81.2637C73.7357 81.1878 73.5646 81.0761 73.4205 80.9351C73.2763 80.794 73.1619 80.6264 73.0839 80.4418C73.0058 80.2572 72.9656 80.0593 72.9656 79.8594C72.9656 79.6595 73.0058 79.4616 73.0839 79.277C73.1619 79.0924 73.2763 78.9248 73.4205 78.7838C73.5646 78.6427 73.7357 78.531 73.9239 78.4551C74.1122 78.3792 74.3138 78.3405 74.5172 78.3413H120.944C121.354 78.3413 121.747 78.5013 122.036 78.786C122.326 79.0707 122.489 79.4568 122.489 79.8594C122.489 80.262 122.326 80.6482 122.036 80.9329C121.747 81.2176 121.354 81.3775 120.944 81.3775Z" fill="white" stroke="#263238" stroke-width="0.829701" stroke-linecap="round" stroke-linejoin="round"/>
<path d="M112.854 81.3775H74.5434C74.3399 81.3783 74.1383 81.3397 73.9501 81.2637C73.7619 81.1878 73.5908 81.0761 73.4466 80.9351C73.3024 80.794 73.188 80.6264 73.11 80.4418C73.0319 80.2572 72.9918 80.0593 72.9918 79.8594C72.9918 79.6595 73.0319 79.4616 73.11 79.277C73.188 79.0924 73.3024 78.9248 73.4466 78.7838C73.5908 78.6427 73.7619 78.531 73.9501 78.4551C74.1383 78.3792 74.3399 78.3405 74.5434 78.3413H112.854V81.3775Z" fill="#263238" stroke="#263238" stroke-width="1.10627" stroke-linecap="round" stroke-linejoin="round"/>
<path d="M120.944 87.3809H74.5172C74.3138 87.3817 74.1122 87.3431 73.9239 87.2672C73.7357 87.1912 73.5646 87.0796 73.4205 86.9385C73.2763 86.7975 73.1619 86.6298 73.0839 86.4452C73.0058 86.2606 72.9656 86.0627 72.9656 85.8628C72.9656 85.4586 73.1291 85.0708 73.4201 84.785C73.7111 84.4991 74.1057 84.3385 74.5172 84.3385H120.944C121.147 84.3385 121.349 84.378 121.537 84.4546C121.725 84.5313 121.895 84.6437 122.039 84.7853C122.182 84.927 122.296 85.0951 122.373 85.28C122.451 85.4649 122.49 85.663 122.489 85.8628C122.489 86.2655 122.326 86.6516 122.036 86.9363C121.747 87.221 121.354 87.3809 120.944 87.3809Z" fill="white" stroke="#263238" stroke-width="0.829701" stroke-linecap="round" stroke-linejoin="round"/>
<path d="M98.6149 87.3809H74.5172C74.3138 87.3817 74.1122 87.3431 73.9239 87.2672C73.7357 87.1912 73.5646 87.0796 73.4205 86.9385C73.2763 86.7975 73.1619 86.6298 73.0839 86.4452C73.0058 86.2606 72.9656 86.0627 72.9656 85.8628C72.9656 85.4586 73.1291 85.0708 73.4201 84.785C73.7111 84.4991 74.1057 84.3385 74.5172 84.3385H98.6149V87.3809Z" fill="#263238" stroke="#263238" stroke-width="1.10627" stroke-linecap="round" stroke-linejoin="round"/>
<path d="M120.944 93.3152H74.5172C74.1068 93.3152 73.7131 93.1555 73.4223 92.871C73.1315 92.5865 72.9673 92.2003 72.9656 91.7971C72.9673 91.3928 73.1311 91.0054 73.4216 90.7189C73.712 90.4323 74.1057 90.2698 74.5172 90.2665H120.944C121.355 90.2698 121.748 90.4326 122.037 90.7192C122.327 91.0059 122.489 91.3934 122.489 91.7971C122.489 92.1998 122.326 92.5859 122.036 92.8706C121.747 93.1553 121.354 93.3152 120.944 93.3152Z" fill="white" stroke="#263238" stroke-width="0.829701" stroke-linecap="round" stroke-linejoin="round"/>
<path d="M119.271 93.3152H74.5172C74.1068 93.3152 73.7131 93.1555 73.4223 92.871C73.1315 92.5865 72.9673 92.2003 72.9656 91.7971C72.9673 91.3928 73.1311 91.0054 73.4216 90.7189C73.712 90.4323 74.1057 90.2698 74.5172 90.2665H119.271V93.3152Z" fill="#263238" stroke="#263238" stroke-width="1.10627" stroke-linecap="round" stroke-linejoin="round"/>
<path d="M73.3035 168.592H212.43" stroke="#263238" stroke-width="0.829701" stroke-linecap="round" stroke-linejoin="round"/>
<path d="M87.2172 168.591V167.218" stroke="#263238" stroke-width="0.829701" stroke-linecap="round" stroke-linejoin="round"/>
<path d="M101.131 168.591V167.218" stroke="#263238" stroke-width="0.829701" stroke-linecap="round" stroke-linejoin="round"/>
<path d="M115.044 168.591V167.218" stroke="#263238" stroke-width="0.829701" stroke-linecap="round" stroke-linejoin="round"/>
<path d="M128.958 168.591V167.218" stroke="#263238" stroke-width="0.829701" stroke-linecap="round" stroke-linejoin="round"/>
<path d="M142.87 168.591V167.218" stroke="#263238" stroke-width="0.829701" stroke-linecap="round" stroke-linejoin="round"/>
<path d="M156.784 168.591V167.218" stroke="#263238" stroke-width="0.829701" stroke-linecap="round" stroke-linejoin="round"/>
<path d="M170.697 168.591V167.218" stroke="#263238" stroke-width="0.829701" stroke-linecap="round" stroke-linejoin="round"/>
<path d="M184.611 168.591V167.218" stroke="#263238" stroke-width="0.829701" stroke-linecap="round" stroke-linejoin="round"/>
<path d="M198.523 168.591V167.218" stroke="#263238" stroke-width="0.829701" stroke-linecap="round" stroke-linejoin="round"/>
<path d="M212.431 168.591V167.218" stroke="#263238" stroke-width="0.829701" stroke-linecap="round" stroke-linejoin="round"/>
<path d="M73.3035 168.592V163.172V108.088" stroke="#263238" stroke-width="0.829701" stroke-linecap="round" stroke-linejoin="round"/>
<path d="M73.3035 163.172H76.7834" stroke="#263238" stroke-width="0.829701" stroke-linecap="round" stroke-linejoin="round"/>
<path d="M73.3035 153.988H76.7834" stroke="#263238" stroke-width="0.829701" stroke-linecap="round" stroke-linejoin="round"/>
<path d="M73.3035 144.804H76.7834" stroke="#263238" stroke-width="0.829701" stroke-linecap="round" stroke-linejoin="round"/>
<path d="M73.3035 135.633H76.7834" stroke="#263238" stroke-width="0.829701" stroke-linecap="round" stroke-linejoin="round"/>
<path d="M73.3035 126.45H76.7834" stroke="#263238" stroke-width="0.829701" stroke-linecap="round" stroke-linejoin="round"/>
<path d="M73.3035 117.272H76.7834" stroke="#263238" stroke-width="0.829701" stroke-linecap="round" stroke-linejoin="round"/>
<path d="M73.3035 108.088H76.7834" stroke="#263238" stroke-width="0.829701" stroke-linecap="round" stroke-linejoin="round"/>
<path d="M237.678 71.234H214.985V94.1933H237.678V71.234Z" fill="white" stroke="#263238" stroke-width="0.829701" stroke-linecap="round" stroke-linejoin="round"/>
<path d="M237.678 71.234H214.985V75.1735H237.678V71.234Z" fill="#263238" stroke="#263238" stroke-width="1.00786" stroke-linecap="round" stroke-linejoin="round"/>
<path d="M217.066 78.3855V91.4271" stroke="#263238" stroke-width="0.829701" stroke-linecap="round" stroke-linejoin="round"/>
<path d="M220.131 78.3855V91.4271" stroke="#263238" stroke-width="0.829701" stroke-linecap="round" stroke-linejoin="round"/>
<path d="M223.189 78.3855V91.4271" stroke="#263238" stroke-width="0.829701" stroke-linecap="round" stroke-linejoin="round"/>
<path d="M226.255 78.3855V91.4271" stroke="#263238" stroke-width="0.829701" stroke-linecap="round" stroke-linejoin="round"/>
<path d="M229.326 78.3855V91.4271" stroke="#263238" stroke-width="0.829701" stroke-linecap="round" stroke-linejoin="round"/>
<path d="M232.39 78.3855V91.4271" stroke="#263238" stroke-width="0.829701" stroke-linecap="round" stroke-linejoin="round"/>
<path d="M235.456 78.3855V91.4271" stroke="#263238" stroke-width="0.829701" stroke-linecap="round" stroke-linejoin="round"/>
<path d="M235.251 80.0917H217.168" stroke="#263238" stroke-width="0.829701" stroke-linecap="round" stroke-linejoin="round"/>
<path d="M235.251 82.5006H217.168" stroke="#263238" stroke-width="0.829701" stroke-linecap="round" stroke-linejoin="round"/>
<path d="M235.251 84.9095H217.168" stroke="#263238" stroke-width="0.829701" stroke-linecap="round" stroke-linejoin="round"/>
<path d="M235.251 87.3181H217.168" stroke="#263238" stroke-width="0.829701" stroke-linecap="round" stroke-linejoin="round"/>
<path d="M235.251 89.7274H217.168" stroke="#263238" stroke-width="0.829701" stroke-linecap="round" stroke-linejoin="round"/>
<path d="M141.728 71.234C139.557 71.234 137.435 71.8664 135.63 73.0513C133.825 74.2362 132.418 75.9203 131.588 77.8907C130.757 79.8611 130.54 82.0293 130.963 84.1211C131.387 86.2128 132.432 88.1342 133.967 89.6423C135.502 91.1504 137.458 92.1774 139.587 92.5935C141.716 93.0096 143.923 92.796 145.929 91.9798C147.934 91.1637 149.648 89.7816 150.855 88.0082C152.061 86.2349 152.704 84.1501 152.704 82.0173C152.703 79.1579 151.546 76.4161 149.488 74.3942C147.43 72.3723 144.639 71.2357 141.728 71.234ZM141.728 89.6265C140.191 89.6265 138.688 89.1786 137.41 88.3395C136.132 87.5003 135.136 86.3077 134.548 84.9123C133.96 83.517 133.807 81.9816 134.107 80.5006C134.408 79.0195 135.148 77.6592 136.236 76.5918C137.323 75.5243 138.708 74.7978 140.216 74.5039C141.724 74.21 143.287 74.3621 144.706 74.9409C146.126 75.5197 147.339 76.4992 148.192 77.7554C149.046 79.0117 149.5 80.4883 149.499 81.9985C149.499 83.0008 149.298 83.9932 148.907 84.9191C148.517 85.845 147.944 86.6861 147.223 87.3946C146.501 88.103 145.644 88.6647 144.702 89.0477C143.759 89.4307 142.748 89.6274 141.728 89.6265Z" fill="white" stroke="#263238" stroke-width="0.829701" stroke-linecap="round" stroke-linejoin="round"/>
<path d="M141.728 71.2341C140.247 71.2284 138.781 71.5204 137.419 72.0922C136.058 72.6639 134.83 73.5033 133.81 74.5588L136.135 76.7481C136.854 76.0015 137.721 75.4076 138.683 75.0031C139.645 74.5985 140.682 74.3918 141.728 74.3957C143.789 74.3957 145.765 75.2 147.223 76.6317C148.68 78.0634 149.499 80.0052 149.499 82.03C149.499 84.0547 148.68 85.9965 147.223 87.4282C145.765 88.8599 143.789 89.6642 141.728 89.6642V92.8008C144.638 92.8731 147.459 91.8068 149.568 89.8363C151.678 87.8658 152.905 85.1525 152.979 82.2934C153.052 79.4343 151.967 76.6636 149.961 74.5908C147.955 72.5179 145.194 71.3127 142.284 71.2403H141.728V71.2341Z" fill="#263238" stroke="#263238" stroke-width="1.00786" stroke-linecap="round" stroke-linejoin="round"/>
<path d="M138.675 81.4465H144.786" stroke="#263238" stroke-width="0.829701" stroke-linecap="round" stroke-linejoin="round"/>
<path d="M138.675 82.5885H144.786" stroke="#263238" stroke-width="0.829701" stroke-linecap="round" stroke-linejoin="round"/>
<path d="M73.8273 69.0075H79.9379" stroke="#263238" stroke-width="0.829701" stroke-linecap="round" stroke-linejoin="round"/>
<path d="M73.8273 70.1426H79.9379" stroke="#263238" stroke-width="0.829701" stroke-linecap="round" stroke-linejoin="round"/>
<path d="M81.3817 69.0075H87.4923" stroke="#263238" stroke-width="0.829701" stroke-linecap="round" stroke-linejoin="round"/>
<path d="M81.3817 70.1426H87.4923" stroke="#263238" stroke-width="0.829701" stroke-linecap="round" stroke-linejoin="round"/>
<path d="M88.9222 69.0075H95.0328" stroke="#263238" stroke-width="0.829701" stroke-linecap="round" stroke-linejoin="round"/>
<path d="M88.9222 70.1426H95.0328" stroke="#263238" stroke-width="0.829701" stroke-linecap="round" stroke-linejoin="round"/>
<path d="M73.8273 102.392H79.9379" stroke="#263238" stroke-width="0.829701" stroke-linecap="round" stroke-linejoin="round"/>
<path d="M73.8273 103.522H79.9379" stroke="#263238" stroke-width="0.829701" stroke-linecap="round" stroke-linejoin="round"/>
<path d="M81.3817 102.392H87.4923" stroke="#263238" stroke-width="0.829701" stroke-linecap="round" stroke-linejoin="round"/>
<path d="M81.3817 103.522H87.4923" stroke="#263238" stroke-width="0.829701" stroke-linecap="round" stroke-linejoin="round"/>
<path d="M88.9222 102.392H95.0328" stroke="#263238" stroke-width="0.829701" stroke-linecap="round" stroke-linejoin="round"/>
<path d="M88.9222 103.522H95.0328" stroke="#263238" stroke-width="0.829701" stroke-linecap="round" stroke-linejoin="round"/>
<path d="M216.466 108.132H222.576" stroke="#263238" stroke-width="0.829701" stroke-linecap="round" stroke-linejoin="round"/>
<path d="M224.02 108.132H230.131" stroke="#263238" stroke-width="0.829701" stroke-linecap="round" stroke-linejoin="round"/>
<path d="M231.561 108.132H237.671" stroke="#263238" stroke-width="0.829701" stroke-linecap="round" stroke-linejoin="round"/>
<path d="M216.466 109.525H222.576" stroke="#263238" stroke-width="0.829701" stroke-linecap="round" stroke-linejoin="round"/>
<path d="M224.02 109.525H230.131" stroke="#263238" stroke-width="0.829701" stroke-linecap="round" stroke-linejoin="round"/>
<path d="M231.561 109.525H237.671" stroke="#263238" stroke-width="0.829701" stroke-linecap="round" stroke-linejoin="round"/>
<path d="M216.466 110.93H222.576" stroke="#263238" stroke-width="0.829701" stroke-linecap="round" stroke-linejoin="round"/>
<path d="M224.02 110.93H230.131" stroke="#263238" stroke-width="0.829701" stroke-linecap="round" stroke-linejoin="round"/>
<path d="M231.561 110.93H237.671" stroke="#263238" stroke-width="0.829701" stroke-linecap="round" stroke-linejoin="round"/>
<path d="M216.466 112.323H222.576" stroke="#263238" stroke-width="0.829701" stroke-linecap="round" stroke-linejoin="round"/>
<path d="M224.02 112.323H230.131" stroke="#263238" stroke-width="0.829701" stroke-linecap="round" stroke-linejoin="round"/>
<path d="M231.561 112.323H237.671" stroke="#263238" stroke-width="0.829701" stroke-linecap="round" stroke-linejoin="round"/>
<path d="M216.466 113.721H222.576" stroke="#263238" stroke-width="0.829701" stroke-linecap="round" stroke-linejoin="round"/>
<path d="M224.02 113.721H230.131" stroke="#263238" stroke-width="0.829701" stroke-linecap="round" stroke-linejoin="round"/>
<path d="M231.561 113.721H237.671" stroke="#263238" stroke-width="0.829701" stroke-linecap="round" stroke-linejoin="round"/>
<path d="M216.466 115.126H222.576" stroke="#263238" stroke-width="0.829701" stroke-linecap="round" stroke-linejoin="round"/>
<path d="M224.02 115.126H230.131" stroke="#263238" stroke-width="0.829701" stroke-linecap="round" stroke-linejoin="round"/>
<path d="M231.561 115.126H237.671" stroke="#263238" stroke-width="0.829701" stroke-linecap="round" stroke-linejoin="round"/>
<path d="M216.466 116.519H222.576" stroke="#263238" stroke-width="0.829701" stroke-linecap="round" stroke-linejoin="round"/>
<path d="M224.02 116.519H230.131" stroke="#263238" stroke-width="0.829701" stroke-linecap="round" stroke-linejoin="round"/>
<path d="M231.561 116.519H237.671" stroke="#263238" stroke-width="0.829701" stroke-linecap="round" stroke-linejoin="round"/>
<path d="M216.466 117.924H222.576" stroke="#263238" stroke-width="0.829701" stroke-linecap="round" stroke-linejoin="round"/>
<path d="M224.02 117.924H230.131" stroke="#263238" stroke-width="0.829701" stroke-linecap="round" stroke-linejoin="round"/>
<path d="M231.561 117.924H237.671" stroke="#263238" stroke-width="0.829701" stroke-linecap="round" stroke-linejoin="round"/>
<path d="M216.466 119.317H222.576" stroke="#263238" stroke-width="0.829701" stroke-linecap="round" stroke-linejoin="round"/>
<path d="M224.02 119.317H230.131" stroke="#263238" stroke-width="0.829701" stroke-linecap="round" stroke-linejoin="round"/>
<path d="M231.561 119.317H237.671" stroke="#263238" stroke-width="0.829701" stroke-linecap="round" stroke-linejoin="round"/>
<path d="M216.466 120.722H222.576" stroke="#263238" stroke-width="0.829701" stroke-linecap="round" stroke-linejoin="round"/>
<path d="M224.02 120.722H230.131" stroke="#263238" stroke-width="0.829701" stroke-linecap="round" stroke-linejoin="round"/>
<path d="M231.561 120.722H237.671" stroke="#263238" stroke-width="0.829701" stroke-linecap="round" stroke-linejoin="round"/>
<path d="M216.466 122.121H222.576" stroke="#263238" stroke-width="0.829701" stroke-linecap="round" stroke-linejoin="round"/>
<path d="M224.02 122.121H230.131" stroke="#263238" stroke-width="0.829701" stroke-linecap="round" stroke-linejoin="round"/>
<path d="M231.561 122.121H237.671" stroke="#263238" stroke-width="0.829701" stroke-linecap="round" stroke-linejoin="round"/>
<path d="M216.466 123.514H222.576" stroke="#263238" stroke-width="0.829701" stroke-linecap="round" stroke-linejoin="round"/>
<path d="M224.02 123.514H230.131" stroke="#263238" stroke-width="0.829701" stroke-linecap="round" stroke-linejoin="round"/>
<path d="M231.561 123.514H237.671" stroke="#263238" stroke-width="0.829701" stroke-linecap="round" stroke-linejoin="round"/>
<path d="M216.466 124.919H222.576" stroke="#263238" stroke-width="0.829701" stroke-linecap="round" stroke-linejoin="round"/>
<path d="M224.02 124.919H230.131" stroke="#263238" stroke-width="0.829701" stroke-linecap="round" stroke-linejoin="round"/>
<path d="M231.561 124.919H237.671" stroke="#263238" stroke-width="0.829701" stroke-linecap="round" stroke-linejoin="round"/>
<path d="M216.466 126.312H222.576" stroke="#263238" stroke-width="0.829701" stroke-linecap="round" stroke-linejoin="round"/>
<path d="M224.02 126.312H230.131" stroke="#263238" stroke-width="0.829701" stroke-linecap="round" stroke-linejoin="round"/>
<path d="M231.561 126.312H237.671" stroke="#263238" stroke-width="0.829701" stroke-linecap="round" stroke-linejoin="round"/>
<path d="M216.466 127.717H222.576" stroke="#263238" stroke-width="0.829701" stroke-linecap="round" stroke-linejoin="round"/>
<path d="M224.02 127.717H230.131" stroke="#263238" stroke-width="0.829701" stroke-linecap="round" stroke-linejoin="round"/>
<path d="M231.561 127.717H237.671" stroke="#263238" stroke-width="0.829701" stroke-linecap="round" stroke-linejoin="round"/>
<path d="M167.467 71.234C165.296 71.2328 163.173 71.864 161.368 73.0478C159.562 74.2317 158.154 75.915 157.322 77.8849C156.49 79.8549 156.272 82.0229 156.694 84.1149C157.116 86.2069 158.16 88.1289 159.695 89.6379C161.229 91.1468 163.184 92.175 165.313 92.5923C167.442 93.0096 169.649 92.7973 171.655 91.9823C173.661 91.1672 175.376 89.7861 176.583 88.0135C177.79 86.2408 178.435 84.1564 178.436 82.0236C178.435 79.1647 177.279 76.4232 175.222 74.4005C173.166 72.3777 170.377 71.239 167.467 71.234ZM167.467 89.6265C165.93 89.6265 164.427 89.1786 163.149 88.3395C161.871 87.5003 160.875 86.3077 160.287 84.9123C159.699 83.517 159.545 81.9816 159.846 80.5006C160.146 79.0195 160.887 77.6592 161.974 76.5918C163.062 75.5243 164.447 74.7978 165.955 74.5039C167.462 74.21 169.025 74.3621 170.445 74.9409C171.865 75.5197 173.078 76.4992 173.931 77.7554C174.784 79.0117 175.239 80.4883 175.237 81.9985C175.237 83.0008 175.036 83.9932 174.646 84.9191C174.255 85.845 173.683 86.6862 172.961 87.3946C172.239 88.103 171.383 88.6647 170.44 89.0477C169.497 89.4307 168.487 89.6274 167.467 89.6265Z" fill="white" stroke="#263238" stroke-width="0.829701" stroke-linecap="round" stroke-linejoin="round"/>
<path d="M175.02 80.2045L178.053 79.0879C177.53 77.2588 176.524 75.5981 175.136 74.2745C173.749 72.951 172.029 72.0115 170.153 71.5516C168.276 71.0917 166.309 71.1276 164.452 71.6558C162.594 72.1839 160.911 73.1855 159.575 74.5588L161.899 76.7481C162.859 75.762 164.071 75.0477 165.409 74.68C166.747 74.3124 168.16 74.3048 169.502 74.6582C170.843 75.0116 172.063 75.7129 173.034 76.6887C174.005 77.6645 174.691 78.8788 175.02 80.2045Z" fill="#263238" stroke="#263238" stroke-width="1.00786" stroke-linecap="round" stroke-linejoin="round"/>
<path d="M164.267 81.4465H170.378" stroke="#263238" stroke-width="0.829701" stroke-linecap="round" stroke-linejoin="round"/>
<path d="M164.267 82.5885H170.378" stroke="#263238" stroke-width="0.829701" stroke-linecap="round" stroke-linejoin="round"/>
<path d="M203.051 75.4874C201.736 73.792 199.939 72.5175 197.887 71.8252C195.835 71.1329 193.621 71.0539 191.523 71.5982C189.426 72.1424 187.539 73.2855 186.103 74.8828C184.667 76.4801 183.745 78.46 183.454 80.5721C183.163 82.6842 183.516 84.8337 184.468 86.7487C185.42 88.6638 186.929 90.2584 188.804 91.331C190.679 92.4036 192.835 92.9059 195 92.7745C197.166 92.6432 199.243 91.884 200.969 90.5929C202.116 89.736 203.08 88.6653 203.806 87.4421C204.531 86.2189 205.004 84.8671 205.197 83.4642C205.391 82.0612 205.301 80.6346 204.932 79.2658C204.564 77.8971 203.924 76.6132 203.051 75.4874ZM188.154 86.6346C187.221 85.4349 186.671 83.9903 186.573 82.4834C186.476 80.9766 186.835 79.4752 187.606 78.1691C188.377 76.863 189.525 75.8108 190.905 75.1457C192.285 74.4805 193.834 74.2323 195.358 74.4323C196.881 74.6323 198.31 75.2716 199.463 76.2694C200.617 77.2671 201.443 78.5785 201.838 80.0377C202.233 81.4969 202.179 83.0384 201.682 84.4672C201.185 85.896 200.268 87.148 199.047 88.0649C197.409 89.2928 195.342 89.8319 193.299 89.5637C191.257 89.2956 189.406 88.2421 188.154 86.6346Z" fill="white" stroke="#263238" stroke-width="0.829701" stroke-linecap="round" stroke-linejoin="round"/>
<path d="M200.344 86.7975L203.09 88.4975C204.252 86.9791 204.985 85.1861 205.215 83.2999C205.445 81.4136 205.164 79.5012 204.4 77.756C203.636 76.0109 202.416 74.4951 200.864 73.3619C199.312 72.2288 197.483 71.5185 195.562 71.3031L195.191 74.4396C196.567 74.6008 197.874 75.1205 198.977 75.9448C200.08 76.7692 200.938 77.8682 201.463 79.1281C201.988 80.388 202.16 81.7628 201.963 83.1102C201.765 84.4576 201.204 85.7285 200.338 86.7912L200.344 86.7975Z" fill="#263238" stroke="#263238" stroke-width="1.00786" stroke-linecap="round" stroke-linejoin="round"/>
<path d="M191.116 81.4465H197.227" stroke="#263238" stroke-width="0.829701" stroke-linecap="round" stroke-linejoin="round"/>
<path d="M191.116 82.5885H197.227" stroke="#263238" stroke-width="0.829701" stroke-linecap="round" stroke-linejoin="round"/>
<path d="M235.544 150.902C234.23 149.206 232.433 147.932 230.381 147.24C228.329 146.547 226.114 146.468 224.017 147.013C221.919 147.557 220.033 148.7 218.597 150.297C217.16 151.894 216.238 153.874 215.947 155.986C215.656 158.099 216.009 160.248 216.962 162.163C217.914 164.078 219.423 165.673 221.298 166.745C223.172 167.818 225.329 168.32 227.494 168.189C229.66 168.058 231.737 167.298 233.463 166.007C234.609 165.15 235.572 164.079 236.297 162.856C237.023 161.632 237.495 160.281 237.689 158.878C237.882 157.475 237.792 156.049 237.424 154.68C237.056 153.312 236.417 152.028 235.544 150.902ZM220.648 162.036C219.716 160.836 219.168 159.39 219.073 157.884C218.977 156.377 219.338 154.876 220.111 153.571C220.884 152.266 222.033 151.215 223.413 150.551C224.794 149.888 226.344 149.641 227.867 149.843C229.39 150.045 230.817 150.686 231.97 151.685C233.122 152.684 233.947 153.996 234.34 155.455C234.734 156.915 234.677 158.456 234.179 159.884C233.681 161.313 232.763 162.564 231.541 163.479C230.729 164.087 229.804 164.532 228.817 164.789C227.83 165.046 226.802 165.109 225.79 164.975C224.778 164.841 223.804 164.512 222.921 164.008C222.039 163.504 221.266 162.834 220.648 162.036Z" fill="#51C0D7" stroke="#263238" stroke-width="1.10627" stroke-linecap="round" stroke-linejoin="round"/>
<path d="M232.831 162.212L235.583 163.906C236.746 162.389 237.479 160.596 237.71 158.711C237.94 156.825 237.66 154.914 236.896 153.169C236.133 151.424 234.914 149.909 233.362 148.776C231.811 147.643 229.982 146.933 228.062 146.718L227.691 149.854C229.068 150.015 230.375 150.534 231.479 151.358C232.582 152.183 233.44 153.282 233.965 154.543C234.489 155.803 234.661 157.179 234.461 158.526C234.262 159.874 233.699 161.144 232.831 162.206V162.212Z" fill="#263238" stroke="#263238" stroke-width="1.00786" stroke-linecap="round" stroke-linejoin="round"/>
<path d="M223.612 156.861H229.722" stroke="#263238" stroke-width="0.829701" stroke-linecap="round" stroke-linejoin="round"/>
<path d="M223.612 157.99H229.722" stroke="#263238" stroke-width="0.829701" stroke-linecap="round" stroke-linejoin="round"/>
<path d="M67.6085 78.1092L65.8398 74.1698" stroke="#263238" stroke-width="0.553134" stroke-linecap="round" stroke-linejoin="round"/>
<path d="M68.6046 77.9715L67.1424 73.2604" stroke="#263238" stroke-width="0.553134" stroke-linecap="round" stroke-linejoin="round"/>
<path d="M126.87 62.8973L123.798 57.5903" stroke="#263238" stroke-width="0.553134" stroke-linecap="round" stroke-linejoin="round"/>
<path d="M126.78 60.9776L125.382 58.0481" stroke="#263238" stroke-width="0.553134" stroke-linecap="round" stroke-linejoin="round"/>
<path d="M14.1665 233.384H2.79883" stroke="#2C2C2C" stroke-width="0.75" stroke-miterlimit="10" stroke-linecap="round"/>
<path d="M301.973 233.384H20.3652" stroke="#2C2C2C" stroke-width="0.75" stroke-miterlimit="10" stroke-linecap="round"/>
<path d="M323.675 233.384H305.59" stroke="#2C2C2C" stroke-width="0.75" stroke-miterlimit="10" stroke-linecap="round"/>
<path d="M41.4627 191.55L25.8912 251.037H60.6191L45.0477 191.55C44.9531 191.146 44.7245 190.785 44.399 190.527C44.0736 190.269 43.6705 190.129 43.2552 190.129C42.8399 190.129 42.4368 190.269 42.1113 190.527C41.7859 190.785 41.5573 191.146 41.4627 191.55Z" fill="#2E9DB6" stroke="#2C2C2C" stroke-linecap="round" stroke-linejoin="round"/>
<path d="M25.8912 251.037H54.1842L40.0377 196.987L25.8912 251.037Z" fill="#2C2C2C" stroke="#2C2C2C" stroke-linecap="round" stroke-linejoin="round"/>
<path d="M64.1245 249.732H20.8072C19.5481 249.732 18.5273 250.753 18.5273 252.012V252.303C18.5273 253.562 19.5481 254.583 20.8072 254.583H64.1245C65.3836 254.583 66.4043 253.562 66.4043 252.303V252.012C66.4043 250.753 65.3836 249.732 64.1245 249.732Z" fill="#2E9DB6" stroke="#2C2C2C" stroke-linecap="round" stroke-linejoin="round"/>
<path d="M49.2997 249.732H20.8072C19.5481 249.732 18.5273 250.753 18.5273 252.012V252.303C18.5273 253.562 19.5481 254.583 20.8072 254.583H49.2997C50.5588 254.583 51.5796 253.562 51.5796 252.303V252.012C51.5796 250.753 50.5588 249.732 49.2997 249.732Z" fill="#2C2C2C" stroke="#2C2C2C" stroke-linecap="round" stroke-linejoin="round"/>
<path d="M32.1046 227.31H54.4072L51.7113 217.005H34.8005L32.1046 227.31Z" fill="white" stroke="#2C2C2C" stroke-linecap="round" stroke-linejoin="round"/>
<path d="M32.1046 227.31H47.978L45.2821 217.005H34.8005L32.1046 227.31Z" fill="#BABABA" stroke="#2C2C2C" stroke-linecap="round" stroke-linejoin="round"/>
<path d="M312.087 153.827C312.087 153.827 304.925 154.67 303.423 154.67C303.407 154.67 303.391 154.67 303.375 154.67C303.367 154.67 303.359 154.67 303.351 154.67C303.343 154.67 303.335 154.67 303.327 154.67C303.311 154.67 303.295 154.67 303.279 154.67C301.769 154.67 294.615 153.827 294.615 153.827C285.069 156.838 285.751 170.768 285.759 171.162C285.823 174.036 285.863 176.919 285.936 179.793C286.104 186.562 287.831 206.835 288.272 213.283C288.312 213.813 288.336 214.254 288.353 214.584C289.075 229.052 289.79 243.521 290.512 257.989C290.577 259.258 290.641 260.534 290.705 261.803C290.705 261.803 294.061 263.891 300.645 261.803L300.701 214.808L302.532 179.89C302.532 179.89 302.869 179.841 303.271 179.801C303.295 179.801 303.319 179.809 303.351 179.809V179.817C303.359 179.817 303.367 179.817 303.375 179.817C303.383 179.817 303.391 179.817 303.399 179.817V179.809C303.423 179.809 303.447 179.801 303.479 179.801C303.881 179.841 304.218 179.89 304.218 179.89L306.049 214.808L306.105 261.803C312.689 263.891 316.045 261.803 316.045 261.803C316.109 260.534 316.174 259.258 316.238 257.989C316.96 243.521 317.667 229.052 318.398 214.584C318.414 214.254 318.438 213.813 318.478 213.283C318.912 206.843 320.646 186.562 320.814 179.793C320.887 176.919 320.927 174.036 320.991 171.162C320.951 170.768 321.625 156.838 312.087 153.827Z" fill="#2C2C2C"/>
<path d="M255.997 125.589C255.997 125.589 254.058 124.148 253.711 122.713C253.358 121.275 253.079 120.585 250.741 118.002C248.424 115.429 248.017 113.27 248.017 113.27C248.017 113.27 245.161 114.207 248.633 118.335C250.758 120.865 241.927 116.639 239.378 115.125C239.378 115.125 237.444 115.271 239.448 117.677C241.453 120.082 238.938 119.058 243.052 123.502C247.155 127.951 252.68 131.808 255.296 129.299C257.905 126.787 255.997 125.589 255.997 125.589Z" fill="white"/>
<path fill-rule="evenodd" clip-rule="evenodd" d="M248.018 113.271L247.918 112.965L248.266 112.851L248.334 113.21L248.334 113.211L248.334 113.211L248.334 113.213C248.335 113.216 248.336 113.221 248.337 113.228C248.34 113.241 248.345 113.263 248.352 113.292C248.366 113.35 248.39 113.439 248.425 113.554C248.495 113.784 248.614 114.121 248.803 114.538C249.182 115.372 249.846 116.527 250.98 117.787C252.151 119.08 252.823 119.917 253.246 120.621C253.677 121.337 253.844 121.905 254.024 122.636L254.024 122.637L254.025 122.638C254.176 123.265 254.693 123.931 255.215 124.465C255.47 124.725 255.715 124.943 255.896 125.096C255.987 125.172 256.061 125.232 256.112 125.272C256.138 125.292 256.158 125.307 256.171 125.317C256.175 125.321 256.179 125.324 256.182 125.326C256.185 125.328 256.189 125.331 256.193 125.333C256.196 125.335 256.199 125.338 256.203 125.341C256.222 125.354 256.246 125.372 256.275 125.395C256.333 125.441 256.41 125.509 256.492 125.599C256.656 125.779 256.846 126.054 256.937 126.426C257.126 127.195 256.867 128.233 255.52 129.531L255.519 129.531C254.785 130.235 253.851 130.482 252.831 130.398C251.819 130.314 250.71 129.907 249.579 129.292C247.315 128.062 244.881 125.959 242.816 123.721C240.757 121.495 240.303 120.586 240.147 119.896C240.119 119.775 240.101 119.658 240.084 119.556C240.079 119.522 240.074 119.489 240.069 119.459C240.048 119.332 240.023 119.215 239.977 119.084C239.884 118.823 239.691 118.469 239.203 117.883C238.688 117.265 238.402 116.765 238.284 116.352C238.162 115.927 238.216 115.579 238.398 115.316C238.57 115.068 238.823 114.944 239.004 114.881C239.098 114.849 239.183 114.83 239.244 114.82C239.275 114.814 239.3 114.81 239.319 114.808C239.329 114.807 239.337 114.806 239.343 114.806C239.346 114.805 239.348 114.805 239.35 114.805L239.353 114.805L239.354 114.805L239.355 114.805C239.355 114.805 239.355 114.804 239.379 115.125L239.355 114.804L239.456 114.797L239.543 114.849C240.803 115.597 243.633 117.025 245.881 117.95C247.017 118.417 247.961 118.736 248.479 118.795C248.518 118.799 248.552 118.802 248.582 118.803C248.541 118.736 248.479 118.649 248.389 118.542C246.631 116.452 246.38 115.061 246.723 114.143C246.891 113.691 247.19 113.398 247.439 113.22C247.565 113.131 247.68 113.069 247.765 113.028C247.808 113.008 247.843 112.993 247.87 112.983C247.883 112.978 247.893 112.974 247.902 112.971C247.906 112.97 247.909 112.968 247.912 112.967L247.915 112.966L247.917 112.966L247.917 112.966C247.918 112.965 247.918 112.965 248.018 113.271ZM239.316 115.46C239.285 115.467 239.25 115.476 239.212 115.489C239.094 115.53 238.988 115.593 238.927 115.681C238.875 115.756 238.822 115.896 238.901 116.175C238.984 116.466 239.208 116.886 239.696 117.471C240.21 118.088 240.454 118.508 240.582 118.87C240.646 119.051 240.678 119.208 240.702 119.352C240.709 119.395 240.716 119.434 240.722 119.473C240.737 119.569 240.751 119.655 240.773 119.754C240.889 120.265 241.234 121.066 243.288 123.284L243.288 123.285C245.327 125.495 247.707 127.544 249.886 128.728C250.976 129.32 251.995 129.684 252.883 129.758C253.762 129.83 254.501 129.618 255.074 129.068C256.335 127.853 256.426 127.037 256.314 126.579C256.254 126.337 256.13 126.155 256.018 126.032C255.962 125.971 255.91 125.925 255.874 125.896C255.856 125.882 255.842 125.872 255.834 125.866C255.829 125.863 255.827 125.861 255.825 125.86C255.825 125.86 255.825 125.86 255.825 125.86L255.816 125.854L255.806 125.847L255.998 125.589C255.806 125.847 255.806 125.847 255.806 125.847L255.806 125.847L255.804 125.845L255.799 125.842C255.795 125.838 255.789 125.834 255.781 125.828C255.765 125.816 255.743 125.799 255.715 125.777C255.659 125.733 255.579 125.669 255.482 125.587C255.29 125.425 255.028 125.193 254.755 124.914C254.221 124.368 253.596 123.596 253.4 122.789C253.226 122.082 253.078 121.587 252.696 120.952C252.307 120.306 251.671 119.507 250.504 118.217L250.503 118.217C249.321 116.904 248.622 115.693 248.219 114.804C248.017 114.361 247.889 113.998 247.811 113.744C247.634 113.87 247.436 114.069 247.325 114.367C247.108 114.949 247.165 116.09 248.88 118.128L248.88 118.128C249.021 118.296 249.13 118.452 249.198 118.594C249.262 118.727 249.318 118.909 249.254 119.091C249.183 119.297 249.004 119.386 248.862 119.42C248.723 119.454 248.564 119.451 248.407 119.433C247.787 119.363 246.762 119.006 245.637 118.544C243.421 117.633 240.648 116.24 239.316 115.46ZM239.405 115.445C239.406 115.445 239.406 115.445 239.406 115.445L239.405 115.445Z" fill="#2C2C2C"/>
<path d="M285.733 113.531C285.733 113.531 279.586 146.01 276.573 147.842C274.148 149.32 266.3 142.551 255.955 133.418C254.816 132.352 253.445 130.724 253.445 130.724L255.759 121.982L258.333 124.69L270.562 134.9C270.562 134.9 275.684 108.409 280.527 107.927C285.377 107.438 285.733 113.531 285.733 113.531Z" fill="#2C2C2C"/>
<path d="M350.807 125.589C350.807 125.589 352.746 124.148 353.093 122.713C353.447 121.275 353.725 120.585 356.063 118.002C358.38 115.429 358.787 113.271 358.787 113.271C358.787 113.271 361.644 114.208 358.171 118.335C356.046 120.865 364.877 116.64 367.426 115.125C367.426 115.125 369.361 115.272 367.356 117.677C365.351 120.083 367.867 119.059 363.753 123.503C359.649 127.951 354.124 131.808 351.508 129.3C348.9 126.788 350.807 125.589 350.807 125.589Z" fill="white"/>
<path fill-rule="evenodd" clip-rule="evenodd" d="M358.786 113.271L358.886 112.966L358.538 112.852L358.471 113.211L358.471 113.211L358.471 113.211L358.47 113.214C358.47 113.216 358.469 113.221 358.467 113.228C358.464 113.242 358.459 113.263 358.452 113.292C358.438 113.351 358.415 113.439 358.379 113.554C358.309 113.784 358.19 114.122 358.001 114.539C357.622 115.373 356.958 116.527 355.824 117.787C354.654 119.08 353.981 119.918 353.558 120.622C353.127 121.337 352.96 121.906 352.78 122.637L352.78 122.637L352.78 122.638C352.628 123.265 352.111 123.932 351.59 124.465C351.335 124.726 351.089 124.943 350.908 125.096C350.818 125.172 350.743 125.232 350.692 125.272C350.666 125.292 350.647 125.308 350.633 125.318C350.629 125.321 350.625 125.324 350.622 125.327C350.619 125.329 350.615 125.331 350.612 125.333C350.608 125.336 350.605 125.338 350.601 125.341C350.583 125.354 350.558 125.372 350.529 125.395C350.471 125.442 350.394 125.51 350.312 125.6C350.148 125.779 349.958 126.054 349.867 126.426C349.678 127.195 349.937 128.234 351.285 129.531L351.285 129.532C352.019 130.236 352.953 130.482 353.974 130.398C354.985 130.315 356.094 129.907 357.225 129.292C359.489 128.063 361.923 125.959 363.988 123.721C366.048 121.496 366.501 120.587 366.658 119.897C366.685 119.775 366.704 119.658 366.72 119.556C366.725 119.522 366.73 119.49 366.735 119.459C366.757 119.332 366.781 119.216 366.827 119.085C366.92 118.823 367.113 118.469 367.602 117.883C368.116 117.266 368.402 116.765 368.52 116.352C368.642 115.927 368.588 115.58 368.406 115.317C368.234 115.068 367.982 114.944 367.8 114.882C367.706 114.85 367.622 114.831 367.56 114.82C367.53 114.814 367.504 114.811 367.485 114.808C367.475 114.807 367.468 114.806 367.462 114.806C367.459 114.806 367.456 114.805 367.454 114.805L367.451 114.805L367.45 114.805L367.45 114.805C367.449 114.805 367.449 114.805 367.425 115.125L367.449 114.805L367.348 114.797L367.261 114.849C366.001 115.597 363.171 117.026 360.923 117.95C359.787 118.417 358.843 118.737 358.325 118.795C358.286 118.799 358.252 118.802 358.223 118.803C358.263 118.736 358.325 118.65 358.416 118.542C360.174 116.453 360.424 115.061 360.081 114.143C359.913 113.692 359.614 113.398 359.365 113.22C359.24 113.131 359.125 113.069 359.039 113.029C358.997 113.009 358.961 112.994 358.935 112.983C358.922 112.978 358.911 112.974 358.903 112.971C358.899 112.97 358.895 112.969 358.892 112.968L358.889 112.967L358.887 112.966L358.887 112.966C358.887 112.966 358.886 112.966 358.786 113.271ZM367.489 115.46C367.519 115.467 367.554 115.477 367.592 115.489C367.71 115.53 367.816 115.593 367.878 115.682C367.929 115.756 367.983 115.896 367.903 116.175C367.82 116.466 367.596 116.886 367.108 117.472C366.595 118.088 366.35 118.509 366.222 118.87C366.158 119.051 366.126 119.208 366.102 119.353C366.095 119.395 366.088 119.435 366.082 119.473C366.067 119.569 366.054 119.656 366.031 119.755C365.915 120.265 365.57 121.066 363.516 123.285L363.516 123.285C361.477 125.495 359.097 127.544 356.919 128.728C355.828 129.32 354.809 129.685 353.921 129.758C353.042 129.83 352.304 129.618 351.73 129.068C350.469 127.854 350.378 127.037 350.491 126.579C350.55 126.338 350.674 126.156 350.787 126.032C350.843 125.971 350.894 125.926 350.93 125.897C350.948 125.882 350.962 125.872 350.971 125.866C350.975 125.863 350.978 125.861 350.979 125.861C350.979 125.86 350.98 125.86 350.979 125.86L350.988 125.855L350.998 125.847L350.807 125.589C350.998 125.847 350.998 125.847 350.998 125.847L350.998 125.847L351 125.846L351.005 125.842C351.01 125.839 351.016 125.834 351.023 125.828C351.039 125.816 351.061 125.799 351.089 125.777C351.145 125.733 351.225 125.669 351.322 125.588C351.515 125.425 351.776 125.193 352.049 124.914C352.583 124.368 353.209 123.597 353.404 122.789C353.578 122.083 353.727 121.587 354.108 120.953C354.497 120.306 355.133 119.508 356.301 118.218L356.301 118.217C357.484 116.904 358.182 115.693 358.586 114.804C358.787 114.361 358.915 113.999 358.993 113.744C359.17 113.871 359.368 114.069 359.479 114.368C359.697 114.95 359.639 116.091 357.924 118.129L357.924 118.129C357.783 118.296 357.674 118.452 357.606 118.595C357.542 118.727 357.486 118.909 357.55 119.092C357.622 119.298 357.8 119.387 357.942 119.421C358.081 119.454 358.241 119.451 358.397 119.433C359.017 119.364 360.042 119.007 361.167 118.544C363.383 117.633 366.156 116.24 367.489 115.46ZM367.399 115.445C367.399 115.445 367.398 115.445 367.399 115.445L367.399 115.445Z" fill="#2C2C2C"/>
<path d="M321.073 113.531C321.073 113.531 327.219 146.01 330.233 147.842C332.658 149.319 340.505 142.55 350.85 133.418C351.989 132.352 353.36 130.724 353.36 130.724L351.046 121.982L348.472 124.69L336.244 134.9C336.244 134.9 331.121 108.408 326.279 107.927C321.429 107.438 321.073 113.531 321.073 113.531Z" fill="#2C2C2C"/>
<path d="M333.837 113.737C333.837 118.86 330.481 122.031 325.358 122.031C320.235 122.031 316.084 117.88 316.084 112.758C316.084 107.635 319.954 101.982 324.836 103.516C330.216 105.194 333.837 108.614 333.837 113.737Z" fill="white"/>
<path fill-rule="evenodd" clip-rule="evenodd" d="M318.875 105.849C317.348 107.65 316.406 110.269 316.406 112.758C316.406 117.703 320.413 121.71 325.358 121.71C327.853 121.71 329.887 120.939 331.295 119.575C332.702 118.212 333.516 116.227 333.516 113.737C333.516 108.81 330.047 105.478 324.741 103.823L324.74 103.823C322.458 103.106 320.396 104.053 318.875 105.849ZM324.932 103.21C322.332 102.393 320.019 103.505 318.385 105.433C316.756 107.356 315.763 110.124 315.763 112.758C315.763 118.058 320.058 122.353 325.358 122.353C327.986 122.353 330.192 121.538 331.742 120.036C333.294 118.533 334.158 116.371 334.158 113.737C334.158 108.419 330.385 104.911 324.932 103.21Z" fill="#2C2C2C"/>
<path d="M329.67 112.244C329.67 116.034 327.189 118.378 323.399 118.378C319.609 118.378 316.542 115.311 316.542 111.521C316.542 107.732 319.401 103.548 323.022 104.681C326.988 105.933 329.67 108.462 329.67 112.244Z" fill="#2C2C2C"/>
<path d="M271.611 113.738C271.611 118.86 274.967 122.032 280.09 122.032C285.212 122.032 289.355 117.873 289.355 112.758C289.355 107.643 285.485 101.983 280.604 103.516C275.232 105.195 271.611 108.615 271.611 113.738Z" fill="white"/>
<path fill-rule="evenodd" clip-rule="evenodd" d="M287.055 105.437C288.684 107.36 289.677 110.128 289.677 112.758C289.677 118.049 285.39 122.353 280.09 122.353C277.462 122.353 275.256 121.538 273.706 120.036C272.154 118.533 271.29 116.371 271.29 113.738C271.29 108.419 275.063 104.911 280.508 103.21C283.108 102.393 285.422 103.508 287.055 105.437ZM286.565 105.852C285.043 104.055 282.981 103.106 280.7 103.823L280.699 103.823C275.401 105.478 271.932 108.81 271.932 113.738C271.932 116.227 272.746 118.212 274.153 119.575C275.561 120.939 277.595 121.71 280.09 121.71C285.035 121.71 289.034 117.696 289.034 112.758C289.034 110.273 288.092 107.654 286.565 105.852Z" fill="#2C2C2C"/>
<path d="M275.786 112.244C275.786 116.034 278.267 118.378 282.057 118.378C285.846 118.378 288.914 115.311 288.914 111.521C288.914 107.732 286.055 103.548 282.442 104.681C278.46 105.933 275.786 108.462 275.786 112.244Z" fill="#2C2C2C"/>
<path d="M314.398 154.839C308.601 154.309 302.876 154.092 302.876 154.092C300.772 154.156 296.292 154.341 291.667 154.839C293.016 159.447 297.593 162.844 303.029 162.844C308.472 162.852 313.049 159.439 314.398 154.839Z" fill="#50BFD7"/>
<path d="M313.925 155.32C314.423 153.361 324.387 103.436 324.387 103.436C324.387 103.436 297.795 95.5833 280.789 103.436L291.692 155.754L313.925 155.32Z" fill="white"/>
<path fill-rule="evenodd" clip-rule="evenodd" d="M324.477 103.127C324.477 103.128 324.478 103.128 324.387 103.436C324.702 103.498 324.702 103.499 324.701 103.499L324.701 103.501L324.59 104.06C324.516 104.426 324.409 104.963 324.272 105.648C323.999 107.017 323.608 108.974 323.137 111.33C322.195 116.041 320.934 122.343 319.657 128.706C317.106 141.423 314.487 154.409 314.236 155.399L314.176 155.636L291.432 156.08L280.422 103.251L280.654 103.144C289.239 99.1797 300.212 99.1885 309 100.172C313.401 100.664 317.268 101.403 320.036 102.018C321.419 102.326 322.528 102.603 323.292 102.803C323.674 102.903 323.97 102.984 324.17 103.04C324.271 103.068 324.347 103.09 324.399 103.105C324.424 103.112 324.444 103.118 324.457 103.122L324.472 103.126L324.476 103.127L324.477 103.127ZM324.387 103.436L324.702 103.498L324.759 103.211L324.478 103.128L324.387 103.436ZM324.014 103.663C324.008 103.662 324.003 103.66 323.997 103.659C323.8 103.603 323.508 103.523 323.129 103.424C322.372 103.226 321.271 102.951 319.896 102.645C317.146 102.033 313.302 101.299 308.929 100.81C300.25 99.8392 289.542 99.8389 281.155 103.621L291.952 155.427L313.668 155.004C314.123 152.963 316.601 140.672 319.027 128.58C320.304 122.217 321.565 115.915 322.507 111.204C322.978 108.849 323.369 106.891 323.643 105.522C323.779 104.837 323.887 104.3 323.96 103.934L324.014 103.663Z" fill="black"/>
<path d="M313.925 155.32C314.423 153.361 324.387 103.436 324.387 103.436C324.387 103.436 297.795 95.5833 280.789 103.436L291.692 155.754L313.925 155.32Z" fill="white"/>
<path fill-rule="evenodd" clip-rule="evenodd" d="M324.477 103.127C324.477 103.128 324.478 103.128 324.387 103.436C324.702 103.498 324.702 103.499 324.701 103.499L324.701 103.501L324.59 104.06C324.516 104.426 324.409 104.963 324.272 105.648C323.999 107.017 323.608 108.974 323.137 111.33C322.195 116.041 320.934 122.343 319.657 128.706C317.106 141.423 314.487 154.409 314.236 155.399L314.176 155.636L291.432 156.08L280.422 103.251L280.654 103.144C289.239 99.1797 300.212 99.1885 309 100.172C313.401 100.664 317.268 101.403 320.036 102.018C321.419 102.326 322.528 102.603 323.292 102.803C323.674 102.903 323.97 102.984 324.17 103.04C324.271 103.068 324.347 103.09 324.399 103.105C324.424 103.112 324.444 103.118 324.457 103.122L324.472 103.126L324.476 103.127L324.477 103.127ZM324.387 103.436L324.702 103.498L324.759 103.211L324.478 103.128L324.387 103.436ZM324.014 103.663C324.008 103.662 324.003 103.66 323.997 103.659C323.8 103.603 323.508 103.523 323.129 103.424C322.372 103.226 321.271 102.951 319.896 102.645C317.146 102.033 313.302 101.299 308.929 100.81C300.25 99.8392 289.542 99.8389 281.155 103.621L291.952 155.427L313.668 155.004C314.123 152.963 316.601 140.672 319.027 128.58C320.304 122.217 321.565 115.915 322.507 111.204C322.978 108.849 323.369 106.891 323.643 105.522C323.779 104.837 323.887 104.3 323.96 103.934L324.014 103.663Z" fill="#2C2C2C"/>
<path d="M317.932 101.902C310.505 100.409 297.947 98.7066 287.156 101.276C288.432 109.329 289.709 117.39 290.986 125.444C292.013 130.904 297.192 134.541 302.596 134.573C308 134.541 313.178 130.912 314.206 125.444C315.443 117.591 316.687 109.747 317.932 101.902Z" fill="#50BFD7"/>
<path fill-rule="evenodd" clip-rule="evenodd" d="M287.081 100.964C297.943 98.3774 310.558 100.092 317.995 101.587L318.297 101.648L318.248 101.958C317.004 109.8 315.759 117.643 314.523 125.494L314.522 125.498L314.521 125.503C313.461 131.146 308.129 134.861 302.598 134.894L302.596 134.894L302.594 134.894C297.062 134.861 291.731 131.138 290.67 125.503L290.669 125.499L290.668 125.494C290.03 121.468 289.392 117.44 288.754 113.411L288.753 113.41C288.115 109.382 287.477 105.353 286.838 101.326L286.792 101.032L287.081 100.964ZM287.52 101.521C288.142 105.449 288.765 109.379 289.388 113.308L289.388 113.31C290.026 117.337 290.664 121.364 291.302 125.389C292.299 130.671 297.322 134.22 302.596 134.252C307.869 134.22 312.893 130.678 313.889 125.389C315.11 117.64 316.338 109.898 317.566 102.157C310.183 100.694 298.03 99.0996 287.52 101.521Z" fill="#2C2C2C"/>
<path d="M301.673 104.753C304.21 104.753 308.153 103.982 308.153 101.453L307.502 93.0061L306.932 85.6193C306.932 83.0821 304.877 81.0346 302.347 81.0346C301.079 81.0346 299.939 81.5485 299.104 82.3755C298.277 83.2025 297.755 84.3507 297.755 85.6193L297.193 93.0141L296.655 100.104C295.932 104.383 301.673 104.753 301.673 104.753Z" fill="#2C2C2C"/>
<path d="M286.738 270.868C286.738 270.868 287.212 272.37 287.348 272.603C287.493 272.836 291.178 274.104 295.674 274.008C300.347 273.911 302.483 272.555 302.547 270.86H286.738V270.868Z" fill="#50BFD7"/>
<path fill-rule="evenodd" clip-rule="evenodd" d="M286.417 270.539H302.881L302.869 270.872C302.83 271.875 302.174 272.725 300.983 273.32C299.797 273.913 298.041 274.28 295.681 274.329M286.417 270.539V270.86V270.539ZM286.738 270.868L286.432 270.965L286.417 270.918V270.86M286.738 270.868C286.432 270.965 286.432 270.965 286.432 270.965L286.437 270.982C286.441 270.993 286.446 271.01 286.453 271.031C286.466 271.072 286.485 271.132 286.509 271.205C286.555 271.35 286.619 271.546 286.688 271.75C286.756 271.953 286.829 272.166 286.894 272.344C286.954 272.509 287.02 272.677 287.071 272.765L287.073 272.768L287.075 272.772C287.108 272.824 287.147 272.858 287.17 272.876C287.196 272.898 287.223 272.916 287.249 272.932C287.3 272.963 287.361 272.994 287.429 273.025C287.565 273.088 287.75 273.16 287.973 273.237C288.423 273.392 289.049 273.573 289.81 273.742C291.331 274.081 293.403 274.377 295.681 274.329M287.176 271.181H302.18C302.041 271.754 301.585 272.301 300.696 272.746C299.63 273.279 297.981 273.639 295.668 273.686L295.668 273.686C293.45 273.734 291.431 273.445 289.949 273.115C289.209 272.95 288.606 272.776 288.183 272.63C287.97 272.557 287.808 272.493 287.697 272.442C287.656 272.423 287.626 272.407 287.604 272.395C287.597 272.38 287.589 272.361 287.58 272.339C287.556 272.281 287.528 272.207 287.497 272.123C287.435 271.953 287.364 271.747 287.297 271.546C287.254 271.418 287.212 271.293 287.176 271.181Z" fill="#2C2C2C"/>
<path d="M286.747 271.189C287.453 271.823 288.377 272.305 289.051 272.522C290.729 273.076 292.568 273.285 294.326 273.381C296.197 273.477 298.253 273.445 300.003 272.707C300.95 272.305 301.753 271.719 302.5 271.053C302.837 270.226 302.926 269.286 302.902 268.323C302.845 266.588 302.452 264.91 302.147 263.208C302.099 262.959 302.058 262.718 302.018 262.478C301.93 261.369 301.85 260.253 301.777 259.153C301.753 258.744 301.705 258.383 301.713 257.973C301.721 257.7 301.818 257.259 301.745 257.002C301.737 256.97 301.721 256.945 301.713 256.921C301.713 256.881 301.721 256.841 301.713 256.801C301.4 256.544 301.071 256.303 300.693 256.199C300.42 256.247 300.147 256.335 299.971 256.407C299.69 256.52 299.441 256.664 299.216 256.833C298.662 256.078 297.297 255.725 296.526 255.693C295.322 255.645 293.716 255.853 292.761 256.737C292.6 256.584 292.351 256.504 292.134 256.464C292.086 256.456 292.03 256.448 291.982 256.44C291.42 256.656 291.564 258.037 291.508 258.431C291.428 258.953 291.348 259.475 291.219 259.98C290.962 260.952 290.593 261.843 290.031 262.678C289.429 263.578 288.642 264.356 287.951 265.183C287.855 265.352 287.75 265.521 287.654 265.681C286.915 266.869 286.313 268.596 286.474 270.009C286.514 270.459 286.61 270.844 286.747 271.189Z" fill="#50BFD7"/>
<path fill-rule="evenodd" clip-rule="evenodd" d="M294.476 255.553C295.181 255.388 295.914 255.347 296.538 255.372L296.538 255.372C296.958 255.39 297.525 255.493 298.062 255.691C298.494 255.85 298.939 256.082 299.268 256.407C299.447 256.294 299.64 256.194 299.849 256.11C300.043 256.03 300.338 255.935 300.636 255.883L300.708 255.87L300.778 255.889C301.226 256.013 301.6 256.294 301.915 256.553L302.004 256.626L302.027 256.738C302.037 256.788 302.037 256.833 302.036 256.863C302.042 256.879 302.049 256.898 302.054 256.919C302.107 257.11 302.093 257.338 302.078 257.511C302.07 257.592 302.062 257.663 302.055 257.727C302.044 257.825 302.035 257.906 302.033 257.981C302.028 258.244 302.046 258.475 302.067 258.73C302.077 258.856 302.088 258.989 302.097 259.134C302.168 260.227 302.248 261.337 302.336 262.438C302.375 262.675 302.414 262.908 302.461 263.147L302.461 263.149L302.461 263.152C302.524 263.502 302.592 263.855 302.659 264.209C302.915 265.55 303.176 266.916 303.221 268.312L303.221 268.314L303.221 268.315C303.246 269.299 303.157 270.289 302.796 271.174L302.768 271.243L302.712 271.292C301.951 271.972 301.118 272.582 300.127 273.003L300.126 273.003C298.304 273.772 296.185 273.799 294.308 273.702L294.307 273.702C292.54 273.605 290.668 273.394 288.95 272.828C288.237 272.598 287.274 272.095 286.531 271.428L286.475 271.378L286.447 271.307C286.299 270.934 286.196 270.52 286.153 270.041C285.983 268.532 286.62 266.735 287.379 265.514C287.407 265.467 287.435 265.42 287.463 265.374C287.534 265.257 287.604 265.141 287.671 265.024L287.685 264.999L287.703 264.978C287.94 264.694 288.181 264.423 288.418 264.157C288.9 263.616 289.367 263.091 289.762 262.5L289.763 262.499C290.301 261.7 290.657 260.843 290.907 259.9C291.03 259.413 291.108 258.907 291.189 258.384C291.199 258.314 291.201 258.191 291.204 258.006C291.204 257.997 291.204 257.988 291.204 257.979C291.207 257.791 291.212 257.563 291.234 257.338C291.256 257.116 291.296 256.875 291.379 256.668C291.461 256.462 291.605 256.24 291.865 256.14L291.947 256.108L292.033 256.123C292.055 256.127 292.079 256.13 292.106 256.134L292.107 256.134C292.132 256.138 292.16 256.143 292.186 256.147L292.189 256.147L292.191 256.148C292.351 256.178 292.554 256.231 292.74 256.332C293.242 255.94 293.857 255.697 294.476 255.553ZM294.622 256.178C293.982 256.328 293.4 256.582 292.977 256.973L292.756 257.177L292.538 256.97C292.447 256.883 292.276 256.817 292.077 256.78C292.068 256.779 292.059 256.777 292.049 256.776C292.027 256.8 292.002 256.84 291.975 256.906C291.926 257.031 291.893 257.201 291.874 257.4C291.854 257.597 291.85 257.801 291.847 257.99C291.846 258.007 291.846 258.024 291.846 258.041C291.843 258.2 291.841 258.364 291.825 258.476L291.824 258.478L291.823 258.487C291.743 259.004 291.661 259.539 291.529 260.06L291.529 260.061L291.528 260.063C291.264 261.062 290.882 261.987 290.296 262.857C289.876 263.484 289.358 264.067 288.861 264.627C288.638 264.878 288.418 265.124 288.214 265.368C288.147 265.484 288.076 265.602 288.009 265.713C287.981 265.759 287.954 265.804 287.928 265.847L287.927 265.849L287.925 265.851C287.208 267.005 286.642 268.658 286.792 269.973L286.792 269.977L286.792 269.98C286.827 270.369 286.906 270.702 287.017 271.001C287.68 271.578 288.531 272.018 289.148 272.216L289.149 272.217L289.15 272.217C290.788 272.758 292.593 272.965 294.342 273.061C296.207 273.157 298.198 273.119 299.876 272.411C300.757 272.038 301.513 271.495 302.228 270.863C302.52 270.111 302.602 269.247 302.579 268.332C302.535 266.991 302.287 265.69 302.033 264.355C301.964 263.996 301.895 263.633 301.83 263.267C301.781 263.015 301.74 262.771 301.7 262.532L301.698 262.517L301.697 262.503C301.608 261.394 301.528 260.276 301.456 259.175L301.455 259.174L301.455 259.172C301.449 259.057 301.439 258.939 301.43 258.82C301.408 258.547 301.385 258.263 301.391 257.967L301.391 257.965L301.391 257.964C301.394 257.865 301.408 257.734 301.421 257.615C301.428 257.556 301.434 257.501 301.438 257.452C301.454 257.276 301.453 257.157 301.436 257.092C301.435 257.091 301.435 257.09 301.434 257.088L301.432 257.085C301.431 257.082 301.429 257.077 301.426 257.071C301.421 257.061 301.414 257.044 301.407 257.023L301.391 256.974V256.955C301.147 256.763 300.917 256.61 300.674 256.529C300.452 256.575 300.234 256.646 300.091 256.705L300.09 256.705L300.089 256.706C299.836 256.807 299.611 256.937 299.407 257.09L299.148 257.285L298.956 257.023C298.733 256.72 298.323 256.471 297.84 256.293C297.364 256.118 296.863 256.029 296.512 256.014C295.932 255.991 295.259 256.03 294.622 256.178Z" fill="#2C2C2C"/>
<path d="M321.553 270.868C321.553 270.868 321.087 272.37 320.943 272.603C320.798 272.836 317.113 274.104 312.617 274.008C307.944 273.911 305.808 272.555 305.744 270.86H321.553V270.868Z" fill="#50BFD7"/>
<path fill-rule="evenodd" clip-rule="evenodd" d="M305.409 270.539H321.873V270.917L321.859 270.963L321.552 270.868C321.859 270.963 321.859 270.963 321.859 270.963L321.859 270.963L321.858 270.964L321.853 270.981C321.85 270.992 321.845 271.008 321.838 271.029C321.825 271.071 321.806 271.131 321.783 271.204C321.737 271.349 321.673 271.545 321.606 271.749C321.538 271.953 321.465 272.166 321.399 272.344C321.339 272.509 321.271 272.68 321.214 272.772C321.182 272.824 321.143 272.858 321.12 272.876C321.094 272.898 321.067 272.916 321.041 272.932C320.99 272.963 320.929 272.994 320.861 273.025C320.725 273.088 320.54 273.16 320.317 273.237C319.867 273.392 319.241 273.573 318.48 273.742C316.959 274.081 314.887 274.377 312.609 274.329M321.116 271.181H306.11C306.249 271.754 306.705 272.301 307.594 272.746C308.66 273.279 310.309 273.639 312.622 273.686L312.622 273.686C314.84 273.734 316.859 273.445 318.341 273.115C319.081 272.95 319.684 272.776 320.107 272.63C320.32 272.557 320.482 272.493 320.592 272.442C320.635 272.422 320.666 272.406 320.688 272.394C320.695 272.378 320.704 272.359 320.713 272.337C320.737 272.28 320.765 272.207 320.797 272.122C320.859 271.953 320.929 271.748 320.996 271.547C321.039 271.418 321.08 271.293 321.116 271.181ZM305.409 270.539L305.421 270.872L305.409 270.539ZM305.421 270.872C305.459 271.875 306.116 272.725 307.307 273.32L305.421 270.872ZM307.307 273.32C308.493 273.913 310.249 274.28 312.609 274.329L307.307 273.32Z" fill="#2C2C2C"/>
<path d="M321.544 271.189C320.838 271.823 319.914 272.305 319.24 272.522C317.562 273.076 315.723 273.285 313.965 273.381C312.094 273.477 310.038 273.445 308.288 272.707C307.341 272.305 306.538 271.719 305.791 271.053C305.454 270.226 305.365 269.286 305.39 268.323C305.446 266.588 305.839 264.91 306.144 263.208C306.192 262.959 306.233 262.718 306.273 262.478C306.361 261.369 306.441 260.253 306.514 259.153C306.546 258.744 306.586 258.383 306.578 257.973C306.57 257.7 306.473 257.259 306.546 257.002C306.554 256.97 306.57 256.945 306.578 256.921C306.578 256.881 306.57 256.841 306.578 256.801C306.891 256.544 307.212 256.303 307.598 256.199C307.871 256.247 308.144 256.335 308.32 256.407C308.601 256.52 308.85 256.664 309.075 256.833C309.629 256.078 310.994 255.725 311.765 255.693C312.969 255.645 314.575 255.853 315.53 256.737C315.691 256.584 315.94 256.504 316.157 256.464C316.205 256.456 316.261 256.448 316.309 256.44C316.871 256.656 316.727 258.037 316.783 258.431C316.863 258.953 316.943 259.475 317.072 259.98C317.329 260.952 317.698 261.843 318.26 262.678C318.862 263.578 319.649 264.356 320.34 265.183C320.436 265.352 320.541 265.521 320.637 265.681C321.376 266.869 321.978 268.596 321.817 270.009C321.777 270.459 321.681 270.844 321.544 271.189Z" fill="#50BFD7"/>
<path fill-rule="evenodd" clip-rule="evenodd" d="M313.668 256.178C313.031 256.03 312.358 255.991 311.778 256.014C311.427 256.029 310.926 256.118 310.45 256.293C309.967 256.471 309.556 256.72 309.334 257.023L309.142 257.285L308.882 257.09C308.678 256.937 308.454 256.807 308.201 256.706L308.2 256.705L308.199 256.705C308.055 256.646 307.837 256.574 307.614 256.529C307.368 256.61 307.143 256.761 306.899 256.954V256.974L306.883 257.023C306.876 257.044 306.868 257.061 306.864 257.071C306.861 257.077 306.859 257.082 306.857 257.085C306.856 257.088 306.855 257.09 306.854 257.092C306.837 257.157 306.836 257.276 306.852 257.452C306.856 257.501 306.862 257.556 306.869 257.615C306.882 257.734 306.896 257.865 306.899 257.964L306.899 257.965L306.899 257.967C306.906 258.318 306.879 258.638 306.852 258.96C306.846 259.032 306.84 259.104 306.834 259.177C306.762 260.277 306.681 261.394 306.593 262.503L306.592 262.517L306.589 262.532C306.55 262.771 306.509 263.015 306.46 263.267C306.394 263.633 306.325 263.996 306.257 264.355C306.002 265.69 305.754 266.991 305.711 268.332C305.688 269.247 305.77 270.111 306.061 270.863C306.776 271.495 307.533 272.038 308.413 272.411C310.091 273.119 312.083 273.157 313.948 273.061C315.696 272.965 317.502 272.758 319.139 272.217L319.14 272.217L319.142 272.216C319.759 272.018 320.61 271.578 321.273 271.001C321.383 270.702 321.463 270.369 321.497 269.98L321.498 269.977L321.498 269.973C321.648 268.658 321.082 267.005 320.364 265.851L320.363 265.849L320.362 265.847C320.336 265.804 320.309 265.759 320.281 265.713C320.214 265.602 320.143 265.484 320.075 265.368C319.871 265.124 319.652 264.878 319.429 264.627C318.932 264.067 318.414 263.484 317.994 262.857C317.408 261.987 317.026 261.062 316.762 260.063L316.761 260.061L316.761 260.06C316.629 259.539 316.546 259.004 316.467 258.487L316.465 258.478L316.465 258.476C316.449 258.364 316.447 258.2 316.444 258.041C316.444 258.024 316.443 258.007 316.443 257.99C316.44 257.801 316.435 257.597 316.416 257.4C316.397 257.201 316.364 257.031 316.314 256.906C316.288 256.84 316.262 256.8 316.241 256.776C316.231 256.777 316.221 256.779 316.212 256.78C316.014 256.817 315.843 256.883 315.752 256.97L315.533 257.177L315.312 256.973C314.89 256.582 314.308 256.328 313.668 256.178ZM315.55 256.332C315.048 255.94 314.433 255.697 313.814 255.553C313.108 255.388 312.376 255.347 311.752 255.372L311.751 255.372C311.332 255.39 310.765 255.493 310.228 255.691C309.795 255.85 309.351 256.082 309.022 256.407C308.843 256.294 308.65 256.194 308.441 256.11C308.246 256.03 307.952 255.935 307.653 255.883L307.583 255.87L307.514 255.889C307.056 256.013 306.688 256.295 306.374 256.553L306.286 256.626L306.263 256.738C306.253 256.788 306.253 256.833 306.254 256.863C306.248 256.879 306.241 256.898 306.236 256.919C306.183 257.11 306.196 257.338 306.212 257.511C306.219 257.592 306.227 257.663 306.234 257.727C306.245 257.825 306.255 257.906 306.257 257.981C306.263 258.295 306.239 258.576 306.213 258.894C306.206 258.97 306.2 259.048 306.194 259.128L306.193 259.13L306.193 259.133C306.121 260.227 306.042 261.337 305.954 262.438C305.914 262.675 305.875 262.908 305.829 263.147L305.829 263.149L305.828 263.152C305.765 263.502 305.698 263.855 305.631 264.209C305.375 265.55 305.114 266.916 305.069 268.312L305.069 268.314L305.069 268.315C305.044 269.299 305.133 270.289 305.494 271.174L305.522 271.243L305.577 271.292C306.339 271.972 307.172 272.582 308.163 273.003L308.163 273.003C309.986 273.772 312.105 273.799 313.981 273.702L313.982 273.702C315.75 273.605 317.621 273.394 319.339 272.828C320.053 272.598 321.016 272.095 321.759 271.428L321.815 271.378L321.843 271.307C321.991 270.934 322.094 270.52 322.137 270.041C322.307 268.532 321.67 266.735 320.911 265.514C320.883 265.467 320.855 265.42 320.826 265.374C320.756 265.257 320.686 265.141 320.619 265.024L320.605 264.999L320.586 264.978C320.349 264.694 320.109 264.423 319.871 264.157C319.39 263.616 318.923 263.091 318.527 262.5L318.527 262.499C317.989 261.7 317.633 260.843 317.383 259.9C317.259 259.413 317.181 258.907 317.101 258.384C317.091 258.314 317.089 258.191 317.086 258.006L317.085 257.979C317.082 257.791 317.077 257.563 317.056 257.338C317.034 257.116 316.994 256.875 316.911 256.668C316.829 256.462 316.684 256.24 316.425 256.14L316.343 256.108L316.257 256.123C316.235 256.127 316.211 256.13 316.184 256.134L316.183 256.134C316.158 256.138 316.13 256.143 316.104 256.147L316.101 256.147L316.098 256.148C315.938 256.178 315.735 256.231 315.55 256.332ZM306.278 256.808C306.278 256.808 306.278 256.808 306.278 256.808V256.808Z" fill="#2C2C2C"/>
<path d="M305.662 110.727H299.496C297.858 110.727 296.525 112.06 296.525 113.697V119.864C296.525 121.502 297.858 122.835 299.496 122.835H305.662C307.3 122.835 308.633 121.502 308.633 119.864V113.697C308.633 112.06 307.308 110.727 305.662 110.727ZM294.887 108.101C293.948 108.101 293.185 108.864 293.185 109.803C293.185 110.743 293.948 111.505 294.887 111.505C295.826 111.505 296.589 110.743 296.589 109.803C296.589 108.864 295.826 108.101 294.887 108.101Z" fill="white"/>
<path d="M305.229 114.404C304.836 113.352 303.832 112.654 302.708 112.654H301.038L304.338 121.02H307.879L305.229 114.404ZM298.485 118.619L297.521 121.02H301.038L302.676 116.869H301.006C299.882 116.869 298.878 117.567 298.485 118.619ZM299.031 114.733C299.609 114.733 300.082 114.259 300.082 113.681C300.082 113.103 299.609 112.629 299.031 112.629C298.453 112.629 297.979 113.103 297.979 113.681C297.979 114.259 298.453 114.733 299.031 114.733Z" fill="#50BFD7"/>
<path fill-rule="evenodd" clip-rule="evenodd" d="M305.458 87.7999C301.952 85.6923 299.118 86.9439 298.192 87.7474C297.978 87.9336 297.653 87.9107 297.467 87.6963C297.281 87.4819 297.304 87.1571 297.518 86.9709C298.738 85.9113 302.055 84.5544 305.988 86.9185C306.232 87.0648 306.31 87.3807 306.164 87.6241C306.018 87.8675 305.702 87.9462 305.458 87.7999Z" fill="#2C2C2C"/>
<path d="M315.621 38.8513C312.17 34.6086 307.35 32.0498 301.159 32.0498C287.144 32.0498 273.45 44.9759 273.45 61.0882C273.45 77.2004 284.808 90.2668 298.823 90.2668C300.169 90.2668 301.473 90.143 302.736 89.9202C302.868 90.63 302.942 91.3564 302.942 92.1075C302.942 92.2396 302.934 92.3799 302.934 92.512C341.555 83.1352 335.233 36.4658 315.621 38.8513Z" fill="#2C2C2C"/>
<path d="M283.116 80.3946C286.057 80.3946 288.44 78.0109 288.44 75.0706C288.44 72.1302 286.057 69.7466 283.116 69.7466C280.176 69.7466 277.792 72.1302 277.792 75.0706C277.792 78.0109 280.176 80.3946 283.116 80.3946Z" fill="white"/>
<path fill-rule="evenodd" clip-rule="evenodd" d="M283.116 70.0767C280.358 70.0767 278.122 72.3125 278.122 75.0705C278.122 77.8285 280.358 80.0643 283.116 80.0643C285.874 80.0643 288.11 77.8285 288.11 75.0705C288.11 72.3125 285.874 70.0767 283.116 70.0767ZM277.462 75.0705C277.462 71.9478 279.994 69.4164 283.116 69.4164C286.239 69.4164 288.77 71.9478 288.77 75.0705C288.77 78.1932 286.239 80.7246 283.116 80.7246C279.994 80.7246 277.462 78.1932 277.462 75.0705Z" fill="#2C2C2C"/>
<path d="M320.607 80.3946C323.547 80.3946 325.931 78.0109 325.931 75.0706C325.931 72.1302 323.547 69.7466 320.607 69.7466C317.667 69.7466 315.283 72.1302 315.283 75.0706C315.283 78.0109 317.667 80.3946 320.607 80.3946Z" fill="white"/>
<path fill-rule="evenodd" clip-rule="evenodd" d="M320.607 70.0767C317.849 70.0767 315.613 72.3125 315.613 75.0705C315.613 77.8285 317.849 80.0643 320.607 80.0643C323.365 80.0643 325.601 77.8285 325.601 75.0705C325.601 72.3125 323.365 70.0767 320.607 70.0767ZM314.953 75.0705C314.953 71.9478 317.484 69.4164 320.607 69.4164C323.729 69.4164 326.261 71.9478 326.261 75.0705C326.261 78.1932 323.729 80.7246 320.607 80.7246C317.484 80.7246 314.953 78.1932 314.953 75.0705Z" fill="#2C2C2C"/>
<path d="M302.364 97.2829C313.793 97.2829 323.058 84.1674 323.058 67.9886C323.058 51.8099 313.793 38.6944 302.364 38.6944C290.936 38.6944 281.671 51.8099 281.671 67.9886C281.671 84.1674 290.936 97.2829 302.364 97.2829Z" fill="white"/>
<path fill-rule="evenodd" clip-rule="evenodd" d="M288.001 47.4649C284.3 52.7041 282.001 59.9593 282.001 67.9886C282.001 76.0179 284.3 83.273 288.001 88.5122C291.703 93.7523 296.786 96.9526 302.364 96.9526C307.943 96.9526 313.025 93.7523 316.727 88.5122C320.428 83.273 322.727 76.0179 322.727 67.9886C322.727 59.9593 320.428 52.7041 316.727 47.4649C313.025 42.2249 307.943 39.0245 302.364 39.0245C296.786 39.0245 291.703 42.2249 288.001 47.4649ZM287.462 47.0839C291.25 41.7215 296.514 38.3642 302.364 38.3642C308.214 38.3642 313.478 41.7215 317.266 47.0839C321.055 52.4472 323.388 59.8391 323.388 67.9886C323.388 76.138 321.055 83.53 317.266 88.8932C313.478 94.2556 308.214 97.613 302.364 97.613C296.514 97.613 291.25 94.2556 287.462 88.8932C283.674 83.53 281.341 76.138 281.341 67.9886C281.341 59.8391 283.674 52.4472 287.462 47.0839Z" fill="#2C2C2C"/>
<path d="M278.649 61.4926C278.649 61.4926 296.264 62.351 302.133 51.7526C302.133 51.7526 314.877 62.7802 327.044 61.9218L325.897 57.0518L321.175 47.741L318.311 44.3073L312.442 38.1496L304.568 34.8562L295.117 36.1438L282.512 44.7365L280.936 50.4649L278.649 61.4926Z" fill="#2C2C2C"/>
<path d="M302.867 79.4373C302.876 79.4868 302.768 79.5776 302.529 79.5776C302.298 79.5859 301.943 79.4786 301.629 79.1814C301.473 79.0329 301.332 78.8513 301.225 78.6201C301.208 78.5871 301.2 78.5541 301.184 78.5211L301.167 78.4716L301.151 78.4303L301.126 78.356C301.118 78.323 301.109 78.2817 301.093 78.2487C301.06 78.1249 301.035 77.9928 301.027 77.8525C300.977 77.3077 301.085 76.7547 301.217 76.2264C301.728 74.1133 302.331 72.4542 302.554 72.5038C302.777 72.5615 302.546 74.3114 302.034 76.4245C301.902 76.9445 301.803 77.415 301.803 77.8112C301.803 77.9103 301.811 78.0093 301.819 78.1001L301.827 78.1331V78.1497V78.1579V78.1662C301.827 78.1662 301.819 78.1414 301.827 78.1497L301.844 78.2322L301.852 78.2735L301.86 78.2982L301.877 78.3478C301.926 78.5046 302.001 78.6532 302.083 78.7687C302.248 79.0081 302.447 79.1567 302.603 79.2392C302.752 79.3465 302.859 79.3795 302.867 79.4373Z" fill="#2C2C2C"/>
<path d="M296.983 69.5405C296.983 71.8929 294.945 73.7996 292.435 73.7996C289.918 73.7996 287.887 71.8929 287.887 69.5405C287.887 67.188 289.926 65.2813 292.435 65.2813C294.936 65.2813 296.983 67.188 296.983 69.5405Z" fill="white"/>
<path fill-rule="evenodd" clip-rule="evenodd" d="M292.435 65.6114C290.088 65.6114 288.217 67.3905 288.217 69.5404C288.217 71.6907 290.08 73.4694 292.435 73.4694C294.783 73.4694 296.653 71.6903 296.653 69.5404C296.653 67.3908 294.775 65.6114 292.435 65.6114ZM287.557 69.5404C287.557 66.9854 289.765 64.951 292.435 64.951C295.097 64.951 297.314 66.985 297.314 69.5404C297.314 72.0954 295.106 74.1297 292.435 74.1297C289.756 74.1297 287.557 72.095 287.557 69.5404Z" fill="#2C2C2C"/>
<path d="M290.198 69.2765C290.198 71.2162 291.46 72.7928 293.012 72.7928C294.564 72.7928 295.827 71.2162 295.827 69.2765C295.827 67.3367 294.564 65.7602 293.012 65.7602C291.46 65.7519 290.198 67.3285 290.198 69.2765Z" fill="#50BFD7"/>
<path d="M291.015 69.2765C291.015 70.655 291.906 71.7693 293.012 71.7693C294.118 71.7693 295.01 70.655 295.01 69.2765C295.01 67.8981 294.118 66.7755 293.012 66.7755C291.906 66.7755 291.015 67.8898 291.015 69.2765Z" fill="#2C2C2C"/>
<path d="M290.892 66.9072C290.892 67.2869 291.354 67.584 291.924 67.584C292.493 67.584 292.955 67.2786 292.955 66.9072C292.955 66.5275 292.493 66.2303 291.924 66.2303C291.354 66.2221 290.892 66.5275 290.892 66.9072Z" fill="white"/>
<path d="M298.279 63.0278C298.279 63.0278 292.137 56.9031 285.534 64.1751C285.534 64.1751 291.246 60.5185 298.279 63.0278Z" fill="#2C2C2C"/>
<path d="M316.768 69.5405C316.768 71.8929 314.729 73.7996 312.22 73.7996C309.702 73.7996 307.672 71.8929 307.672 69.5405C307.672 67.188 309.711 65.2813 312.22 65.2813C314.729 65.2813 316.768 67.188 316.768 69.5405Z" fill="white"/>
<path fill-rule="evenodd" clip-rule="evenodd" d="M312.22 65.6114C309.872 65.6114 308.002 67.3905 308.002 69.5404C308.002 71.6907 309.864 73.4694 312.22 73.4694C314.568 73.4694 316.438 71.6903 316.438 69.5404C316.438 67.3905 314.568 65.6114 312.22 65.6114ZM307.341 69.5404C307.341 66.9854 309.549 64.951 312.22 64.951C314.89 64.951 317.098 66.9854 317.098 69.5404C317.098 72.0954 314.89 74.1297 312.22 74.1297C309.54 74.1297 307.341 72.095 307.341 69.5404Z" fill="#2C2C2C"/>
<path d="M309.991 69.2765C309.991 71.2162 311.254 72.7928 312.806 72.7928C314.358 72.7928 315.621 71.2162 315.621 69.2765C315.621 67.3367 314.358 65.7602 312.806 65.7602C311.246 65.7519 309.991 67.3285 309.991 69.2765Z" fill="#50BFD7"/>
<path d="M310.801 69.2765C310.801 70.655 311.692 71.7693 312.798 71.7693C313.904 71.7693 314.796 70.655 314.796 69.2765C314.796 67.8981 313.904 66.7755 312.798 66.7755C311.7 66.7755 310.801 67.8898 310.801 69.2765Z" fill="#2C2C2C"/>
<path d="M310.676 66.9072C310.676 67.2869 311.139 67.584 311.708 67.584C312.278 67.584 312.74 67.2786 312.74 66.9072C312.74 66.5275 312.278 66.2303 311.708 66.2303C311.139 66.2221 310.676 66.5275 310.676 66.9072Z" fill="white"/>
<path d="M318.072 62.3592C318.072 62.3592 311.931 56.2346 305.328 63.5065C305.319 63.5065 311.031 59.8499 318.072 62.3592Z" fill="#2C2C2C"/>
<path fill-rule="evenodd" clip-rule="evenodd" d="M281.259 66.4368V66.6019H280.599V66.4368H281.259Z" fill="#2C2C2C"/>
<path fill-rule="evenodd" clip-rule="evenodd" d="M284.726 68.2528V68.4179H284.066V68.2528H284.726Z" fill="#2C2C2C"/>
<path d="M303.496 67.2789C304.627 67.5183 304.206 68.2529 304.206 68.3602C304.206 68.4675 304.627 74.5756 310.083 76.1852C315.539 77.7948 318.807 74.6334 319.757 73.0486C320.706 71.4638 321.498 67.6999 321.729 67.411C321.969 67.1221 323.099 66.6186 323.099 66.6186L323.232 65.1411L321.812 64.7201C321.812 64.7201 318.229 63.0858 312.955 63.0115C307.689 62.9289 304.709 65.9665 304.709 65.9665C303.223 65.496 301.383 65.43 299.699 65.9665C299.699 65.9665 296.719 62.9372 291.453 63.0115C286.187 63.094 282.596 64.7201 282.596 64.7201L281.176 65.1411L281.308 66.6186C281.308 66.6186 282.439 67.1221 282.679 67.411C282.918 67.6999 283.702 71.4721 284.651 73.0486C285.601 74.6334 288.869 77.7948 294.325 76.1852C299.781 74.5756 300.202 68.4675 300.202 68.3602C300.202 68.2529 299.781 67.5183 300.912 67.2789C301.903 67.0726 302.513 67.0726 303.496 67.2789ZM316.595 74.9223C312.435 77.4234 307.449 74.8976 305.947 71.6041C304.445 68.3107 305.708 66.5691 305.708 66.5691C308.217 62.475 318.353 62.3016 320.095 66.7259C320.392 67.4688 320.755 72.4213 316.595 74.9223ZM284.313 66.7259C286.055 62.2934 296.191 62.475 298.7 66.5691C298.7 66.5691 299.963 68.3107 298.461 71.6041C296.958 74.8976 291.981 77.4234 287.813 74.9223C283.661 72.4213 284.024 67.4688 284.313 66.7259Z" fill="#2C2C2C"/>
<path fill-rule="evenodd" clip-rule="evenodd" d="M305.458 87.7999C301.952 85.6923 299.118 86.9439 298.192 87.7474C297.978 87.9336 297.653 87.9107 297.467 87.6963C297.281 87.4819 297.304 87.1571 297.518 86.9709C298.738 85.9113 302.055 84.5544 305.988 86.9185C306.232 87.0648 306.31 87.3807 306.164 87.6241C306.018 87.8675 305.702 87.9462 305.458 87.7999Z" fill="#2C2C2C"/>
</svg>
