<svg width="372" height="275" viewBox="0 0 372 275" fill="none" xmlns="http://www.w3.org/2000/svg">
<path d="M189.458 237.667C189.458 237.667 246.881 240.352 283.203 175.458C319.526 110.564 276.787 50.8696 210.764 37.9705C144.742 25.0714 111.849 -23.3612 53.0028 13.7137C-5.8434 50.7885 26.858 248.236 189.458 237.667Z" fill="#70CDE0"/>
<path opacity="0.4" d="M189.458 237.667C189.458 237.667 246.881 240.352 283.203 175.458C319.526 110.564 276.787 50.8696 210.764 37.9705C144.742 25.0714 111.849 -23.3612 53.0028 13.7137C-5.8434 50.7885 26.858 248.236 189.458 237.667Z" fill="white"/>
<path d="M40.1657 144.014L49.3922 121.756C49.8155 120.741 49.2864 119.918 48.2136 119.918H46.3568C46.1991 119.937 46.0393 119.924 45.8868 119.88C45.7343 119.836 45.5922 119.761 45.4689 119.661C45.3456 119.561 45.2435 119.438 45.1688 119.297C45.0941 119.157 45.0483 119.004 45.0339 118.846L44.9714 118.028C44.9565 117.87 44.9101 117.717 44.8352 117.577C44.7602 117.438 44.6581 117.315 44.5348 117.215C44.4116 117.116 44.2697 117.042 44.1175 116.998C43.9653 116.954 43.8058 116.941 43.6485 116.96H34.831C34.0608 116.997 33.332 117.319 32.7865 117.864L32.0698 118.557C31.5277 119.104 30.7995 119.427 30.0301 119.461H18.7977C18.2258 119.493 17.6735 119.681 17.2011 120.006C16.7286 120.33 16.3541 120.777 16.1183 121.299L6.97845 144.014H40.1657Z" fill="#51C0D7"/>
<g opacity="0.3">
<path opacity="0.3" d="M40.1657 144.014L49.3922 121.756C49.8155 120.741 49.2864 119.918 48.2136 119.918H46.3568C46.1991 119.937 46.0393 119.924 45.8868 119.88C45.7343 119.836 45.5922 119.761 45.4689 119.661C45.3456 119.561 45.2435 119.438 45.1688 119.297C45.0941 119.157 45.0483 119.004 45.0339 118.846L44.9714 118.028C44.9565 117.87 44.9101 117.717 44.8352 117.577C44.7602 117.438 44.6581 117.315 44.5348 117.215C44.4116 117.116 44.2697 117.042 44.1175 116.998C43.9653 116.954 43.8058 116.941 43.6485 116.96H34.831C34.0608 116.997 33.332 117.319 32.7865 117.864L32.0698 118.557C31.5277 119.104 30.7995 119.427 30.0301 119.461H18.7977C18.2258 119.493 17.6735 119.681 17.2011 120.006C16.7286 120.33 16.3541 120.777 16.1183 121.299L6.97845 144.014H40.1657Z" fill="black"/>
</g>
<path d="M41.6909 136.452L45.1736 122.983C45.3997 122.098 44.8225 121.208 44.0143 121.208H16.7439C16.466 121.221 16.2004 121.326 15.9894 121.507C15.7784 121.689 15.6342 121.935 15.5797 122.208L10.5143 142.475C10.2931 143.365 10.649 143.918 11.4764 143.889H38.896C39.1698 143.872 39.4305 143.766 39.6375 143.585C39.8445 143.405 39.9863 143.162 40.0409 142.893L41.6909 136.452Z" fill="#E0E0E0"/>
<path d="M39.8094 143.404L41.2911 122.238C41.3029 122.06 41.2781 121.882 41.2182 121.714C41.1583 121.546 41.0645 121.393 40.9427 121.263C40.8209 121.133 40.6736 121.029 40.5101 120.959C40.3466 120.888 40.1703 120.852 39.9922 120.852H11.7357V143.423L39.8094 143.404Z" fill="#EBEBEB"/>
<path d="M40.1216 143.889L36.7543 122.05C36.6762 121.702 36.4813 121.392 36.2021 121.17C35.9228 120.949 35.5761 120.83 35.2198 120.833H6.64087C6.3836 120.829 6.12946 120.889 5.90153 121.009C5.6736 121.128 5.47911 121.303 5.33573 121.516C5.19234 121.73 5.10462 121.976 5.08052 122.232C5.05642 122.488 5.09671 122.746 5.19773 122.983L11.3695 142.994L40.1216 143.889Z" fill="#FAFAFA"/>
<path d="M40.1651 144.005L33.2333 123.551C33.1049 123.138 32.8499 122.777 32.5045 122.518C32.1591 122.259 31.7408 122.115 31.3091 122.107H1.84027C1.61302 122.114 1.39055 122.174 1.19101 122.283C0.991462 122.392 0.82048 122.547 0.691997 122.734C0.563514 122.922 0.481164 123.137 0.451658 123.363C0.422152 123.588 0.446326 123.817 0.522208 124.032L6.96821 144.009L40.1651 144.005Z" fill="#51C0D7"/>
<path d="M171.551 212.435V190H135.449V212.435C135.454 216.279 133.937 219.969 131.228 222.696L123 231H184L175.778 222.696C173.065 219.971 171.544 216.281 171.551 212.435Z" fill="white" stroke="#263238" stroke-width="1.10627" stroke-linecap="round" stroke-linejoin="round"/>
<path opacity="0.44" d="M134.932 190V212.007C134.931 213.713 134.615 215.404 134 217H172C171.388 215.404 171.072 213.713 171.068 212.007V190H134.932Z" fill="#51C0D7"/>
<path d="M172 191H135V208H172V191Z" fill="#263238" stroke="#263238" stroke-width="1.10627" stroke-miterlimit="10"/>
<path d="M184 231H123V232H184V231Z" fill="white" stroke="#263238" stroke-width="1.10627" stroke-linecap="round" stroke-linejoin="round"/>
<path d="M65.4719 52H241.49C242.609 51.9992 243.717 52.2189 244.751 52.6467C245.784 53.0745 246.723 53.7019 247.514 54.4929C248.304 55.2839 248.931 56.223 249.358 57.2564C249.784 58.2898 250.002 59.3972 250 60.515V191.807C249.992 194.252 249.012 196.594 247.276 198.318C245.54 200.042 243.19 201.007 240.742 201H66.2261C63.7792 201 61.4325 200.029 59.7023 198.3C57.972 196.571 57 194.227 57 191.782V60.4836C57.0033 58.2379 57.8963 56.0848 59.4839 54.4951C61.0714 52.9054 63.2243 52.0083 65.4719 52Z" fill="#263238" stroke="#263238" stroke-width="1.10627" stroke-miterlimit="10"/>
<path d="M57 184H250V191.912C250 194.322 249.028 196.634 247.298 198.338C245.568 200.042 243.222 201 240.775 201H66.256C63.8095 201 61.4632 200.042 59.7332 198.338C58.0033 196.634 57.0314 194.322 57.0314 191.912V184H57Z" fill="white" stroke="#263238" stroke-width="1.10627" stroke-miterlimit="10"/>
<path d="M241.585 61.4435H66.2546V176.271H241.585V61.4435Z" fill="white" stroke="#263238" stroke-width="0.829701" stroke-linecap="round" stroke-linejoin="round"/>
<path d="M241.585 61.4435H66.2546V98.6552H241.585V61.4435Z" fill="#51C0D7"/>
<path d="M84.1212 168.537H77.0592V107.876H84.1212V168.537ZM97.9643 107.839H90.9406V168.537H98.0026L97.9643 107.839ZM111.814 107.839H104.745V168.537H111.814V107.839ZM125.65 107.839H118.588V168.537H125.65V107.839ZM139.493 107.839H132.431V168.537H139.493V107.839ZM153.33 107.839H146.268V168.537H153.33V107.839ZM167.18 107.839H160.111V168.537H167.18V107.839ZM181.023 107.839H173.961V168.537H181.023V107.839ZM194.859 107.839H187.797V168.537H194.859V107.839ZM208.702 107.839H201.64V168.537H208.702V107.839Z" fill="#51C0D7"/>
<path opacity="0.4" d="M84.1212 168.537H77.0592V107.876H84.1212V168.537ZM97.9643 107.839H90.9406V168.537H98.0026L97.9643 107.839ZM111.814 107.839H104.745V168.537H111.814V107.839ZM125.65 107.839H118.588V168.537H125.65V107.839ZM139.493 107.839H132.431V168.537H139.493V107.839ZM153.33 107.839H146.268V168.537H153.33V107.839ZM167.18 107.839H160.111V168.537H167.18V107.839ZM181.023 107.839H173.961V168.537H181.023V107.839ZM194.859 107.839H187.797V168.537H194.859V107.839ZM208.702 107.839H201.64V168.537H208.702V107.839Z" fill="white"/>
<path d="M120.944 75.3758H74.5172C74.1057 75.3758 73.7111 75.2152 73.4201 74.9293C73.1291 74.6435 72.9656 74.2557 72.9656 73.8514C72.9673 73.4483 73.1315 73.0621 73.4223 72.7776C73.7131 72.4931 74.1068 72.3334 74.5172 72.3334H120.944C121.354 72.3334 121.747 72.4933 122.036 72.778C122.326 73.0627 122.489 73.4488 122.489 73.8514C122.49 74.0513 122.451 74.2494 122.373 74.4343C122.296 74.6192 122.182 74.7873 122.039 74.9289C121.895 75.0706 121.725 75.183 121.537 75.2596C121.349 75.3363 121.147 75.3758 120.944 75.3758Z" fill="white" stroke="#263238" stroke-width="0.829701" stroke-linecap="round" stroke-linejoin="round"/>
<path d="M106.896 75.3758H74.5172C74.1057 75.3758 73.7111 75.2152 73.4201 74.9293C73.1291 74.6435 72.9656 74.2557 72.9656 73.8514C72.9673 73.4483 73.1315 73.0621 73.4223 72.7776C73.7131 72.4931 74.1068 72.3334 74.5172 72.3334H106.896V75.3758Z" fill="#263238" stroke="#263238" stroke-width="1.10627" stroke-linecap="round" stroke-linejoin="round"/>
<path d="M120.944 81.3414H74.5172C74.3138 81.3422 74.1122 81.3035 73.9239 81.2276C73.7357 81.1517 73.5646 81.04 73.4205 80.899C73.2763 80.7579 73.1619 80.5903 73.0839 80.4057C73.0058 80.2211 72.9656 80.0232 72.9656 79.8233C72.9656 79.6234 73.0058 79.4255 73.0839 79.2409C73.1619 79.0563 73.2763 78.8887 73.4205 78.7476C73.5646 78.6066 73.7357 78.4949 73.9239 78.419C74.1122 78.3431 74.3138 78.3044 74.5172 78.3052H120.944C121.354 78.3052 121.747 78.4652 122.036 78.7499C122.326 79.0345 122.489 79.4207 122.489 79.8233C122.489 80.2259 122.326 80.612 122.036 80.8967C121.747 81.1814 121.354 81.3414 120.944 81.3414Z" fill="white" stroke="#263238" stroke-width="0.829701" stroke-linecap="round" stroke-linejoin="round"/>
<path d="M112.854 81.3414H74.5434C74.3399 81.3422 74.1383 81.3035 73.9501 81.2276C73.7619 81.1517 73.5908 81.04 73.4466 80.899C73.3024 80.7579 73.188 80.5903 73.11 80.4057C73.0319 80.2211 72.9918 80.0232 72.9918 79.8233C72.9918 79.6234 73.0319 79.4255 73.11 79.2409C73.188 79.0563 73.3024 78.8887 73.4466 78.7476C73.5908 78.6066 73.7619 78.4949 73.9501 78.419C74.1383 78.3431 74.3399 78.3044 74.5434 78.3052H112.854V81.3414Z" fill="#263238" stroke="#263238" stroke-width="1.10627" stroke-linecap="round" stroke-linejoin="round"/>
<path d="M120.944 87.3448H74.5172C74.3138 87.3456 74.1122 87.307 73.9239 87.231C73.7357 87.1551 73.5646 87.0434 73.4205 86.9024C73.2763 86.7613 73.1619 86.5937 73.0839 86.4091C73.0058 86.2245 72.9656 86.0266 72.9656 85.8267C72.9656 85.4224 73.1291 85.0347 73.4201 84.7488C73.7111 84.463 74.1057 84.3024 74.5172 84.3024H120.944C121.147 84.3024 121.349 84.3418 121.537 84.4185C121.725 84.4952 121.895 84.6076 122.039 84.7492C122.182 84.8909 122.296 85.0589 122.373 85.2438C122.451 85.4288 122.49 85.6268 122.489 85.8267C122.489 86.2293 122.326 86.6155 122.036 86.9002C121.747 87.1849 121.354 87.3448 120.944 87.3448Z" fill="white" stroke="#263238" stroke-width="0.829701" stroke-linecap="round" stroke-linejoin="round"/>
<path d="M98.6149 87.3448H74.5172C74.3138 87.3456 74.1122 87.307 73.9239 87.231C73.7357 87.1551 73.5646 87.0434 73.4205 86.9024C73.2763 86.7613 73.1619 86.5937 73.0839 86.4091C73.0058 86.2245 72.9656 86.0266 72.9656 85.8267C72.9656 85.4224 73.1291 85.0347 73.4201 84.7488C73.7111 84.463 74.1057 84.3024 74.5172 84.3024H98.6149V87.3448Z" fill="#263238" stroke="#263238" stroke-width="1.10627" stroke-linecap="round" stroke-linejoin="round"/>
<path d="M120.944 93.2791H74.5172C74.1068 93.2791 73.7131 93.1194 73.4223 92.8349C73.1315 92.5503 72.9673 92.1642 72.9656 91.761C72.9673 91.3567 73.1311 90.9692 73.4216 90.6827C73.712 90.3962 74.1057 90.2337 74.5172 90.2304H120.944C121.355 90.2337 121.748 90.3964 122.037 90.6831C122.327 90.9698 122.489 91.3572 122.489 91.761C122.489 92.1636 122.326 92.5498 122.036 92.8345C121.747 93.1192 121.354 93.2791 120.944 93.2791Z" fill="white" stroke="#263238" stroke-width="0.829701" stroke-linecap="round" stroke-linejoin="round"/>
<path d="M119.271 93.2791H74.5172C74.1068 93.2791 73.7131 93.1194 73.4223 92.8349C73.1315 92.5503 72.9673 92.1642 72.9656 91.761C72.9673 91.3567 73.1311 90.9692 73.4216 90.6827C73.712 90.3962 74.1057 90.2337 74.5172 90.2304H119.271V93.2791Z" fill="#263238" stroke="#263238" stroke-width="1.10627" stroke-linecap="round" stroke-linejoin="round"/>
<path d="M73.3035 168.556H212.43" stroke="#263238" stroke-width="0.829701" stroke-linecap="round" stroke-linejoin="round"/>
<path d="M87.2172 168.555V167.182" stroke="#263238" stroke-width="0.829701" stroke-linecap="round" stroke-linejoin="round"/>
<path d="M101.131 168.555V167.182" stroke="#263238" stroke-width="0.829701" stroke-linecap="round" stroke-linejoin="round"/>
<path d="M115.044 168.555V167.182" stroke="#263238" stroke-width="0.829701" stroke-linecap="round" stroke-linejoin="round"/>
<path d="M128.958 168.555V167.182" stroke="#263238" stroke-width="0.829701" stroke-linecap="round" stroke-linejoin="round"/>
<path d="M142.87 168.555V167.182" stroke="#263238" stroke-width="0.829701" stroke-linecap="round" stroke-linejoin="round"/>
<path d="M156.784 168.555V167.182" stroke="#263238" stroke-width="0.829701" stroke-linecap="round" stroke-linejoin="round"/>
<path d="M170.697 168.555V167.182" stroke="#263238" stroke-width="0.829701" stroke-linecap="round" stroke-linejoin="round"/>
<path d="M184.611 168.555V167.182" stroke="#263238" stroke-width="0.829701" stroke-linecap="round" stroke-linejoin="round"/>
<path d="M198.523 168.555V167.182" stroke="#263238" stroke-width="0.829701" stroke-linecap="round" stroke-linejoin="round"/>
<path d="M212.431 168.555V167.182" stroke="#263238" stroke-width="0.829701" stroke-linecap="round" stroke-linejoin="round"/>
<path d="M73.3035 168.556V163.136V108.052" stroke="#263238" stroke-width="0.829701" stroke-linecap="round" stroke-linejoin="round"/>
<path d="M73.3035 163.136H76.7834" stroke="#263238" stroke-width="0.829701" stroke-linecap="round" stroke-linejoin="round"/>
<path d="M73.3035 153.952H76.7834" stroke="#263238" stroke-width="0.829701" stroke-linecap="round" stroke-linejoin="round"/>
<path d="M73.3035 144.768H76.7834" stroke="#263238" stroke-width="0.829701" stroke-linecap="round" stroke-linejoin="round"/>
<path d="M73.3035 135.597H76.7834" stroke="#263238" stroke-width="0.829701" stroke-linecap="round" stroke-linejoin="round"/>
<path d="M73.3035 126.413H76.7834" stroke="#263238" stroke-width="0.829701" stroke-linecap="round" stroke-linejoin="round"/>
<path d="M73.3035 117.236H76.7834" stroke="#263238" stroke-width="0.829701" stroke-linecap="round" stroke-linejoin="round"/>
<path d="M73.3035 108.052H76.7834" stroke="#263238" stroke-width="0.829701" stroke-linecap="round" stroke-linejoin="round"/>
<path d="M237.678 71.1978H214.985V94.1572H237.678V71.1978Z" fill="white" stroke="#263238" stroke-width="0.829701" stroke-linecap="round" stroke-linejoin="round"/>
<path d="M237.678 71.1978H214.985V75.1373H237.678V71.1978Z" fill="#263238" stroke="#263238" stroke-width="1.00786" stroke-linecap="round" stroke-linejoin="round"/>
<path d="M217.066 78.3494V91.391" stroke="#263238" stroke-width="0.829701" stroke-linecap="round" stroke-linejoin="round"/>
<path d="M220.131 78.3494V91.391" stroke="#263238" stroke-width="0.829701" stroke-linecap="round" stroke-linejoin="round"/>
<path d="M223.189 78.3494V91.391" stroke="#263238" stroke-width="0.829701" stroke-linecap="round" stroke-linejoin="round"/>
<path d="M226.255 78.3494V91.391" stroke="#263238" stroke-width="0.829701" stroke-linecap="round" stroke-linejoin="round"/>
<path d="M229.326 78.3494V91.391" stroke="#263238" stroke-width="0.829701" stroke-linecap="round" stroke-linejoin="round"/>
<path d="M232.39 78.3494V91.391" stroke="#263238" stroke-width="0.829701" stroke-linecap="round" stroke-linejoin="round"/>
<path d="M235.456 78.3494V91.391" stroke="#263238" stroke-width="0.829701" stroke-linecap="round" stroke-linejoin="round"/>
<path d="M235.251 80.0555H217.168" stroke="#263238" stroke-width="0.829701" stroke-linecap="round" stroke-linejoin="round"/>
<path d="M235.251 82.4645H217.168" stroke="#263238" stroke-width="0.829701" stroke-linecap="round" stroke-linejoin="round"/>
<path d="M235.251 84.8734H217.168" stroke="#263238" stroke-width="0.829701" stroke-linecap="round" stroke-linejoin="round"/>
<path d="M235.251 87.2819H217.168" stroke="#263238" stroke-width="0.829701" stroke-linecap="round" stroke-linejoin="round"/>
<path d="M235.251 89.6912H217.168" stroke="#263238" stroke-width="0.829701" stroke-linecap="round" stroke-linejoin="round"/>
<path d="M141.728 71.1978C139.557 71.1978 137.435 71.8303 135.63 73.0152C133.825 74.2001 132.418 75.8842 131.588 77.8546C130.757 79.825 130.54 81.9932 130.963 84.0849C131.387 86.1767 132.432 88.0981 133.967 89.6062C135.502 91.1142 137.458 92.1413 139.587 92.5573C141.716 92.9734 143.923 92.7599 145.929 91.9437C147.934 91.1275 149.648 89.7454 150.855 87.9721C152.061 86.1988 152.704 84.1139 152.704 81.9812C152.703 79.1218 151.546 76.38 149.488 74.3581C147.43 72.3361 144.639 71.1995 141.728 71.1978ZM141.728 89.5904C140.191 89.5904 138.688 89.1425 137.41 88.3033C136.132 87.4642 135.136 86.2715 134.548 84.8762C133.96 83.4808 133.807 81.9455 134.107 80.4644C134.408 78.9833 135.148 77.623 136.236 76.5556C137.323 75.4882 138.708 74.7616 140.216 74.4677C141.724 74.1739 143.287 74.326 144.706 74.9047C146.126 75.4835 147.339 76.463 148.192 77.7193C149.046 78.9756 149.5 80.4522 149.499 81.9624C149.499 82.9646 149.298 83.9571 148.907 84.8829C148.517 85.8088 147.944 86.65 147.223 87.3584C146.501 88.0668 145.644 88.6286 144.702 89.0115C143.759 89.3945 142.748 89.5912 141.728 89.5904Z" fill="white" stroke="#263238" stroke-width="0.829701" stroke-linecap="round" stroke-linejoin="round"/>
<path d="M141.728 71.1979C140.247 71.1922 138.781 71.4842 137.419 72.056C136.058 72.6278 134.83 73.4672 133.81 74.5226L136.135 76.7119C136.854 75.9654 137.721 75.3715 138.683 74.9669C139.645 74.5623 140.682 74.3556 141.728 74.3595C143.789 74.3595 145.765 75.1639 147.223 76.5956C148.68 78.0273 149.499 79.9691 149.499 81.9938C149.499 84.0186 148.68 85.9604 147.223 87.3921C145.765 88.8238 143.789 89.6281 141.728 89.6281V92.7646C144.638 92.837 147.459 91.7706 149.568 89.8001C151.678 87.8296 152.905 85.1164 152.979 82.2573C153.052 79.3982 151.967 76.6275 149.961 74.5546C147.955 72.4818 145.194 71.2766 142.284 71.2042H141.728V71.1979Z" fill="#263238" stroke="#263238" stroke-width="1.00786" stroke-linecap="round" stroke-linejoin="round"/>
<path d="M138.675 81.4103H144.786" stroke="#263238" stroke-width="0.829701" stroke-linecap="round" stroke-linejoin="round"/>
<path d="M138.675 82.5524H144.786" stroke="#263238" stroke-width="0.829701" stroke-linecap="round" stroke-linejoin="round"/>
<path d="M73.8273 68.9713H79.9379" stroke="#263238" stroke-width="0.829701" stroke-linecap="round" stroke-linejoin="round"/>
<path d="M73.8273 70.1065H79.9379" stroke="#263238" stroke-width="0.829701" stroke-linecap="round" stroke-linejoin="round"/>
<path d="M81.3817 68.9713H87.4923" stroke="#263238" stroke-width="0.829701" stroke-linecap="round" stroke-linejoin="round"/>
<path d="M81.3817 70.1065H87.4923" stroke="#263238" stroke-width="0.829701" stroke-linecap="round" stroke-linejoin="round"/>
<path d="M88.9222 68.9713H95.0328" stroke="#263238" stroke-width="0.829701" stroke-linecap="round" stroke-linejoin="round"/>
<path d="M88.9222 70.1065H95.0328" stroke="#263238" stroke-width="0.829701" stroke-linecap="round" stroke-linejoin="round"/>
<path d="M73.8273 102.356H79.9379" stroke="#263238" stroke-width="0.829701" stroke-linecap="round" stroke-linejoin="round"/>
<path d="M73.8273 103.485H79.9379" stroke="#263238" stroke-width="0.829701" stroke-linecap="round" stroke-linejoin="round"/>
<path d="M81.3817 102.356H87.4923" stroke="#263238" stroke-width="0.829701" stroke-linecap="round" stroke-linejoin="round"/>
<path d="M81.3817 103.485H87.4923" stroke="#263238" stroke-width="0.829701" stroke-linecap="round" stroke-linejoin="round"/>
<path d="M88.9222 102.356H95.0328" stroke="#263238" stroke-width="0.829701" stroke-linecap="round" stroke-linejoin="round"/>
<path d="M88.9222 103.485H95.0328" stroke="#263238" stroke-width="0.829701" stroke-linecap="round" stroke-linejoin="round"/>
<path d="M216.466 108.096H222.576" stroke="#263238" stroke-width="0.829701" stroke-linecap="round" stroke-linejoin="round"/>
<path d="M224.02 108.096H230.131" stroke="#263238" stroke-width="0.829701" stroke-linecap="round" stroke-linejoin="round"/>
<path d="M231.561 108.096H237.671" stroke="#263238" stroke-width="0.829701" stroke-linecap="round" stroke-linejoin="round"/>
<path d="M216.466 109.489H222.576" stroke="#263238" stroke-width="0.829701" stroke-linecap="round" stroke-linejoin="round"/>
<path d="M224.02 109.489H230.131" stroke="#263238" stroke-width="0.829701" stroke-linecap="round" stroke-linejoin="round"/>
<path d="M231.561 109.489H237.671" stroke="#263238" stroke-width="0.829701" stroke-linecap="round" stroke-linejoin="round"/>
<path d="M216.466 110.894H222.576" stroke="#263238" stroke-width="0.829701" stroke-linecap="round" stroke-linejoin="round"/>
<path d="M224.02 110.894H230.131" stroke="#263238" stroke-width="0.829701" stroke-linecap="round" stroke-linejoin="round"/>
<path d="M231.561 110.894H237.671" stroke="#263238" stroke-width="0.829701" stroke-linecap="round" stroke-linejoin="round"/>
<path d="M216.466 112.287H222.576" stroke="#263238" stroke-width="0.829701" stroke-linecap="round" stroke-linejoin="round"/>
<path d="M224.02 112.287H230.131" stroke="#263238" stroke-width="0.829701" stroke-linecap="round" stroke-linejoin="round"/>
<path d="M231.561 112.287H237.671" stroke="#263238" stroke-width="0.829701" stroke-linecap="round" stroke-linejoin="round"/>
<path d="M216.466 113.685H222.576" stroke="#263238" stroke-width="0.829701" stroke-linecap="round" stroke-linejoin="round"/>
<path d="M224.02 113.685H230.131" stroke="#263238" stroke-width="0.829701" stroke-linecap="round" stroke-linejoin="round"/>
<path d="M231.561 113.685H237.671" stroke="#263238" stroke-width="0.829701" stroke-linecap="round" stroke-linejoin="round"/>
<path d="M216.466 115.09H222.576" stroke="#263238" stroke-width="0.829701" stroke-linecap="round" stroke-linejoin="round"/>
<path d="M224.02 115.09H230.131" stroke="#263238" stroke-width="0.829701" stroke-linecap="round" stroke-linejoin="round"/>
<path d="M231.561 115.09H237.671" stroke="#263238" stroke-width="0.829701" stroke-linecap="round" stroke-linejoin="round"/>
<path d="M216.466 116.483H222.576" stroke="#263238" stroke-width="0.829701" stroke-linecap="round" stroke-linejoin="round"/>
<path d="M224.02 116.483H230.131" stroke="#263238" stroke-width="0.829701" stroke-linecap="round" stroke-linejoin="round"/>
<path d="M231.561 116.483H237.671" stroke="#263238" stroke-width="0.829701" stroke-linecap="round" stroke-linejoin="round"/>
<path d="M216.466 117.888H222.576" stroke="#263238" stroke-width="0.829701" stroke-linecap="round" stroke-linejoin="round"/>
<path d="M224.02 117.888H230.131" stroke="#263238" stroke-width="0.829701" stroke-linecap="round" stroke-linejoin="round"/>
<path d="M231.561 117.888H237.671" stroke="#263238" stroke-width="0.829701" stroke-linecap="round" stroke-linejoin="round"/>
<path d="M216.466 119.281H222.576" stroke="#263238" stroke-width="0.829701" stroke-linecap="round" stroke-linejoin="round"/>
<path d="M224.02 119.281H230.131" stroke="#263238" stroke-width="0.829701" stroke-linecap="round" stroke-linejoin="round"/>
<path d="M231.561 119.281H237.671" stroke="#263238" stroke-width="0.829701" stroke-linecap="round" stroke-linejoin="round"/>
<path d="M216.466 120.686H222.576" stroke="#263238" stroke-width="0.829701" stroke-linecap="round" stroke-linejoin="round"/>
<path d="M224.02 120.686H230.131" stroke="#263238" stroke-width="0.829701" stroke-linecap="round" stroke-linejoin="round"/>
<path d="M231.561 120.686H237.671" stroke="#263238" stroke-width="0.829701" stroke-linecap="round" stroke-linejoin="round"/>
<path d="M216.466 122.085H222.576" stroke="#263238" stroke-width="0.829701" stroke-linecap="round" stroke-linejoin="round"/>
<path d="M224.02 122.085H230.131" stroke="#263238" stroke-width="0.829701" stroke-linecap="round" stroke-linejoin="round"/>
<path d="M231.561 122.085H237.671" stroke="#263238" stroke-width="0.829701" stroke-linecap="round" stroke-linejoin="round"/>
<path d="M216.466 123.478H222.576" stroke="#263238" stroke-width="0.829701" stroke-linecap="round" stroke-linejoin="round"/>
<path d="M224.02 123.478H230.131" stroke="#263238" stroke-width="0.829701" stroke-linecap="round" stroke-linejoin="round"/>
<path d="M231.561 123.478H237.671" stroke="#263238" stroke-width="0.829701" stroke-linecap="round" stroke-linejoin="round"/>
<path d="M216.466 124.883H222.576" stroke="#263238" stroke-width="0.829701" stroke-linecap="round" stroke-linejoin="round"/>
<path d="M224.02 124.883H230.131" stroke="#263238" stroke-width="0.829701" stroke-linecap="round" stroke-linejoin="round"/>
<path d="M231.561 124.883H237.671" stroke="#263238" stroke-width="0.829701" stroke-linecap="round" stroke-linejoin="round"/>
<path d="M216.466 126.276H222.576" stroke="#263238" stroke-width="0.829701" stroke-linecap="round" stroke-linejoin="round"/>
<path d="M224.02 126.276H230.131" stroke="#263238" stroke-width="0.829701" stroke-linecap="round" stroke-linejoin="round"/>
<path d="M231.561 126.276H237.671" stroke="#263238" stroke-width="0.829701" stroke-linecap="round" stroke-linejoin="round"/>
<path d="M216.466 127.681H222.576" stroke="#263238" stroke-width="0.829701" stroke-linecap="round" stroke-linejoin="round"/>
<path d="M224.02 127.681H230.131" stroke="#263238" stroke-width="0.829701" stroke-linecap="round" stroke-linejoin="round"/>
<path d="M231.561 127.681H237.671" stroke="#263238" stroke-width="0.829701" stroke-linecap="round" stroke-linejoin="round"/>
<path d="M167.467 71.1978C165.296 71.1966 163.173 71.8278 161.368 73.0117C159.562 74.1955 158.154 75.8789 157.322 77.8488C156.49 79.8187 156.272 81.9868 156.694 84.0788C157.116 86.1708 158.16 88.0928 159.695 89.6017C161.229 91.1107 163.184 92.1388 165.313 92.5561C167.442 92.9734 169.649 92.7611 171.655 91.9461C173.661 91.1311 175.376 89.7499 176.583 87.9773C177.79 86.2047 178.435 84.1202 178.436 81.9875C178.435 79.1286 177.279 76.387 175.222 74.3643C173.166 72.3416 170.377 71.2028 167.467 71.1978ZM167.467 89.5904C165.93 89.5904 164.427 89.1425 163.149 88.3033C161.871 87.4642 160.875 86.2715 160.287 84.8762C159.699 83.4808 159.545 81.9455 159.846 80.4644C160.146 78.9833 160.887 77.6231 161.974 76.5556C163.062 75.4882 164.447 74.7616 165.955 74.4677C167.462 74.1739 169.025 74.326 170.445 74.9047C171.865 75.4835 173.078 76.463 173.931 77.7193C174.784 78.9756 175.239 80.4522 175.237 81.9624C175.237 82.9646 175.036 83.9571 174.646 84.8829C174.255 85.8088 173.683 86.65 172.961 87.3584C172.239 88.0668 171.383 88.6286 170.44 89.0115C169.497 89.3945 168.487 89.5912 167.467 89.5904Z" fill="white" stroke="#263238" stroke-width="0.829701" stroke-linecap="round" stroke-linejoin="round"/>
<path d="M175.02 80.1684L178.053 79.0518C177.53 77.2226 176.524 75.562 175.136 74.2384C173.749 72.9148 172.029 71.9754 170.153 71.5155C168.276 71.0555 166.309 71.0915 164.452 71.6196C162.594 72.1478 160.911 73.1493 159.575 74.5227L161.899 76.712C162.859 75.7259 164.071 75.0116 165.409 74.6439C166.747 74.2762 168.16 74.2687 169.502 74.6221C170.843 74.9755 172.063 75.6768 173.034 76.6526C174.005 77.6284 174.691 78.8427 175.02 80.1684Z" fill="#263238" stroke="#263238" stroke-width="1.00786" stroke-linecap="round" stroke-linejoin="round"/>
<path d="M164.267 81.4103H170.378" stroke="#263238" stroke-width="0.829701" stroke-linecap="round" stroke-linejoin="round"/>
<path d="M164.267 82.5524H170.378" stroke="#263238" stroke-width="0.829701" stroke-linecap="round" stroke-linejoin="round"/>
<path d="M203.051 75.4513C201.736 73.7558 199.939 72.4814 197.887 71.7891C195.835 71.0968 193.621 71.0178 191.523 71.562C189.426 72.1063 187.539 73.2493 186.103 74.8467C184.667 76.444 183.745 78.4239 183.454 80.536C183.163 82.6481 183.516 84.7976 184.468 86.7126C185.42 88.6277 186.929 90.2223 188.804 91.2949C190.679 92.3674 192.835 92.8698 195 92.7384C197.166 92.607 199.243 91.8478 200.969 90.5568C202.116 89.6999 203.08 88.6292 203.806 87.406C204.531 86.1827 205.004 84.831 205.197 83.428C205.391 82.0251 205.301 80.5984 204.932 79.2297C204.564 77.861 203.924 76.577 203.051 75.4513ZM188.154 86.5985C187.221 85.3988 186.671 83.9542 186.573 82.4473C186.476 80.9405 186.835 79.4391 187.606 78.133C188.377 76.8268 189.525 75.7747 190.905 75.1096C192.285 74.4444 193.834 74.1962 195.358 74.3962C196.881 74.5962 198.31 75.2355 199.463 76.2332C200.617 77.231 201.443 78.5424 201.838 80.0016C202.233 81.4608 202.179 83.0022 201.682 84.4311C201.185 85.8599 200.268 87.1119 199.047 88.0288C197.409 89.2567 195.342 89.7958 193.299 89.5276C191.257 89.2594 189.406 88.206 188.154 86.5985Z" fill="white" stroke="#263238" stroke-width="0.829701" stroke-linecap="round" stroke-linejoin="round"/>
<path d="M200.344 86.7614L203.09 88.4614C204.252 86.943 204.985 85.1499 205.215 83.2637C205.445 81.3775 205.164 79.465 204.4 77.7199C203.636 75.9748 202.416 74.4589 200.864 73.3258C199.312 72.1926 197.483 71.4824 195.562 71.267L195.191 74.4035C196.567 74.5646 197.874 75.0843 198.977 75.9087C200.08 76.733 200.938 77.8321 201.463 79.092C201.988 80.3518 202.16 81.7267 201.963 83.074C201.765 84.4214 201.204 85.6923 200.338 86.7551L200.344 86.7614Z" fill="#263238" stroke="#263238" stroke-width="1.00786" stroke-linecap="round" stroke-linejoin="round"/>
<path d="M191.116 81.4103H197.227" stroke="#263238" stroke-width="0.829701" stroke-linecap="round" stroke-linejoin="round"/>
<path d="M191.116 82.5524H197.227" stroke="#263238" stroke-width="0.829701" stroke-linecap="round" stroke-linejoin="round"/>
<path d="M235.544 150.866C234.23 149.17 232.433 147.896 230.381 147.203C228.329 146.511 226.114 146.432 224.017 146.976C221.919 147.521 220.033 148.664 218.597 150.261C217.16 151.858 216.238 153.838 215.947 155.95C215.656 158.062 216.009 160.212 216.962 162.127C217.914 164.042 219.423 165.637 221.298 166.709C223.172 167.782 225.329 168.284 227.494 168.153C229.66 168.021 231.737 167.262 233.463 165.971C234.609 165.114 235.572 164.043 236.297 162.82C237.023 161.596 237.495 160.245 237.689 158.842C237.882 157.439 237.792 156.013 237.424 154.644C237.056 153.276 236.417 151.992 235.544 150.866ZM220.648 162C219.716 160.799 219.168 159.354 219.073 157.847C218.977 156.341 219.338 154.84 220.111 153.535C220.884 152.229 222.033 151.179 223.413 150.515C224.794 149.852 226.344 149.605 227.867 149.807C229.39 150.009 230.817 150.65 231.97 151.649C233.122 152.648 233.947 153.96 234.34 155.419C234.734 156.879 234.677 158.42 234.179 159.848C233.681 161.276 232.763 162.527 231.541 163.443C230.729 164.051 229.804 164.496 228.817 164.753C227.83 165.01 226.802 165.073 225.79 164.939C224.778 164.805 223.804 164.476 222.921 163.972C222.039 163.468 221.266 162.798 220.648 162Z" fill="#51C0D7" stroke="#263238" stroke-width="1.10627" stroke-linecap="round" stroke-linejoin="round"/>
<path d="M232.831 162.176L235.583 163.87C236.746 162.352 237.479 160.56 237.71 158.675C237.94 156.789 237.66 154.877 236.896 153.133C236.133 151.388 234.914 149.873 233.362 148.74C231.811 147.607 229.982 146.897 228.062 146.682L227.691 149.818C229.068 149.978 230.375 150.498 231.479 151.322C232.582 152.147 233.44 153.246 233.965 154.507C234.489 155.767 234.661 157.142 234.461 158.49C234.262 159.838 233.699 161.108 232.831 162.17V162.176Z" fill="#263238" stroke="#263238" stroke-width="1.00786" stroke-linecap="round" stroke-linejoin="round"/>
<path d="M223.612 156.825H229.722" stroke="#263238" stroke-width="0.829701" stroke-linecap="round" stroke-linejoin="round"/>
<path d="M223.612 157.954H229.722" stroke="#263238" stroke-width="0.829701" stroke-linecap="round" stroke-linejoin="round"/>
<path d="M67.6085 78.0731L65.8398 74.1336" stroke="#263238" stroke-width="0.553134" stroke-linecap="round" stroke-linejoin="round"/>
<path d="M68.6046 77.9354L67.1424 73.2243" stroke="#263238" stroke-width="0.553134" stroke-linecap="round" stroke-linejoin="round"/>
<path d="M126.87 62.8612L123.798 57.5542" stroke="#263238" stroke-width="0.553134" stroke-linecap="round" stroke-linejoin="round"/>
<path d="M126.78 60.9414L125.382 58.0119" stroke="#263238" stroke-width="0.553134" stroke-linecap="round" stroke-linejoin="round"/>
<path d="M14.1665 233.348H2.79883" stroke="#2C2C2C" stroke-width="0.75" stroke-miterlimit="10" stroke-linecap="round"/>
<path d="M301.973 233.348H20.3652" stroke="#2C2C2C" stroke-width="0.75" stroke-miterlimit="10" stroke-linecap="round"/>
<path d="M323.675 233.348H305.59" stroke="#2C2C2C" stroke-width="0.75" stroke-miterlimit="10" stroke-linecap="round"/>
<path d="M41.4627 191.514L25.8912 251.001H60.6191L45.0477 191.514C44.9531 191.11 44.7245 190.749 44.399 190.491C44.0736 190.233 43.6705 190.093 43.2552 190.093C42.8399 190.093 42.4368 190.233 42.1113 190.491C41.7859 190.749 41.5573 191.11 41.4627 191.514Z" fill="#2E9DB6" stroke="#2C2C2C" stroke-linecap="round" stroke-linejoin="round"/>
<path d="M25.8912 251.001H54.1842L40.0377 196.951L25.8912 251.001Z" fill="#2C2C2C" stroke="#2C2C2C" stroke-linecap="round" stroke-linejoin="round"/>
<path d="M64.1245 249.696H20.8072C19.5481 249.696 18.5273 250.717 18.5273 251.976V252.267C18.5273 253.526 19.5481 254.546 20.8072 254.546H64.1245C65.3836 254.546 66.4043 253.526 66.4043 252.267V251.976C66.4043 250.717 65.3836 249.696 64.1245 249.696Z" fill="#2E9DB6" stroke="#2C2C2C" stroke-linecap="round" stroke-linejoin="round"/>
<path d="M49.2997 249.696H20.8072C19.5481 249.696 18.5273 250.717 18.5273 251.976V252.267C18.5273 253.526 19.5481 254.546 20.8072 254.546H49.2997C50.5588 254.546 51.5796 253.526 51.5796 252.267V251.976C51.5796 250.717 50.5588 249.696 49.2997 249.696Z" fill="#2C2C2C" stroke="#2C2C2C" stroke-linecap="round" stroke-linejoin="round"/>
<path d="M32.1046 227.274H54.4072L51.7113 216.969H34.8005L32.1046 227.274Z" fill="white" stroke="#2C2C2C" stroke-linecap="round" stroke-linejoin="round"/>
<path d="M32.1046 227.274H47.978L45.2821 216.969H34.8005L32.1046 227.274Z" fill="#BABABA" stroke="#2C2C2C" stroke-linecap="round" stroke-linejoin="round"/>
<path d="M312.087 153.791C312.087 153.791 304.925 154.634 303.423 154.634C303.407 154.634 303.391 154.634 303.375 154.634C303.367 154.634 303.359 154.634 303.351 154.634C303.343 154.634 303.335 154.634 303.327 154.634C303.311 154.634 303.295 154.634 303.279 154.634C301.769 154.634 294.615 153.791 294.615 153.791C285.069 156.802 285.751 170.732 285.759 171.126C285.823 174 285.863 176.883 285.936 179.757C286.104 186.526 287.831 206.799 288.272 213.247C288.312 213.777 288.336 214.218 288.353 214.547C289.075 229.016 289.79 243.485 290.512 257.953C290.577 259.222 290.641 260.498 290.705 261.767C290.705 261.767 294.061 263.855 300.645 261.767L300.701 214.772L302.532 179.853C302.532 179.853 302.869 179.805 303.271 179.765C303.295 179.765 303.319 179.773 303.351 179.773V179.781C303.359 179.781 303.367 179.781 303.375 179.781C303.383 179.781 303.391 179.781 303.399 179.781V179.773C303.423 179.773 303.447 179.765 303.479 179.765C303.881 179.805 304.218 179.853 304.218 179.853L306.049 214.772L306.105 261.767C312.689 263.855 316.045 261.767 316.045 261.767C316.109 260.498 316.174 259.222 316.238 257.953C316.96 243.485 317.667 229.016 318.398 214.547C318.414 214.218 318.438 213.777 318.478 213.247C318.912 206.807 320.646 186.526 320.814 179.757C320.887 176.883 320.927 174 320.991 171.126C320.951 170.732 321.625 156.802 312.087 153.791Z" fill="#2C2C2C"/>
<path d="M255.997 125.553C255.997 125.553 254.058 124.111 253.711 122.677C253.358 121.239 253.079 120.549 250.741 117.966C248.424 115.392 248.017 113.234 248.017 113.234C248.017 113.234 245.161 114.171 248.633 118.299C250.758 120.829 241.927 116.603 239.378 115.088C239.378 115.088 237.444 115.235 239.448 117.641C241.453 120.046 238.938 119.022 243.052 123.466C247.155 127.914 252.68 131.772 255.296 129.263C257.905 126.751 255.997 125.553 255.997 125.553Z" fill="#E0E0E0"/>
<path fill-rule="evenodd" clip-rule="evenodd" d="M248.018 113.234L247.918 112.929L248.266 112.815L248.334 113.174L248.334 113.174L248.334 113.175L248.334 113.177C248.335 113.18 248.336 113.185 248.337 113.192C248.34 113.205 248.345 113.227 248.352 113.256C248.366 113.314 248.39 113.403 248.425 113.518C248.495 113.748 248.614 114.085 248.803 114.502C249.182 115.336 249.846 116.491 250.98 117.751C252.151 119.044 252.823 119.881 253.246 120.585C253.677 121.301 253.844 121.869 254.024 122.6L254.024 122.601L254.025 122.601C254.176 123.229 254.693 123.895 255.215 124.428C255.47 124.689 255.715 124.907 255.896 125.06C255.987 125.136 256.061 125.196 256.112 125.236C256.138 125.256 256.158 125.271 256.171 125.281C256.175 125.285 256.179 125.288 256.182 125.29C256.185 125.292 256.189 125.294 256.193 125.297C256.196 125.299 256.199 125.302 256.203 125.304C256.222 125.317 256.246 125.335 256.275 125.359C256.333 125.405 256.41 125.473 256.492 125.563C256.656 125.743 256.846 126.017 256.937 126.39C257.126 127.159 256.867 128.197 255.52 129.495L255.519 129.495C254.785 130.199 253.851 130.446 252.831 130.362C251.819 130.278 250.71 129.871 249.579 129.256C247.315 128.026 244.881 125.922 242.816 123.684C240.757 121.459 240.303 120.55 240.147 119.86C240.119 119.739 240.101 119.622 240.084 119.52C240.079 119.485 240.074 119.453 240.069 119.423C240.048 119.296 240.023 119.179 239.977 119.048C239.884 118.786 239.691 118.433 239.203 117.846C238.688 117.229 238.402 116.729 238.284 116.315C238.162 115.89 238.216 115.543 238.398 115.28C238.57 115.031 238.823 114.907 239.004 114.845C239.098 114.813 239.183 114.794 239.244 114.783C239.275 114.778 239.3 114.774 239.319 114.772C239.329 114.771 239.337 114.77 239.343 114.769C239.346 114.769 239.348 114.769 239.35 114.769L239.353 114.769L239.354 114.768L239.355 114.768C239.355 114.768 239.355 114.768 239.379 115.089L239.355 114.768L239.456 114.761L239.543 114.813C240.803 115.561 243.633 116.989 245.881 117.914C247.017 118.381 247.961 118.7 248.479 118.759C248.518 118.763 248.552 118.766 248.582 118.767C248.541 118.7 248.479 118.613 248.389 118.505C246.631 116.416 246.38 115.025 246.723 114.106C246.891 113.655 247.19 113.362 247.439 113.184C247.565 113.095 247.68 113.033 247.765 112.992C247.808 112.972 247.843 112.957 247.87 112.947C247.883 112.942 247.893 112.938 247.902 112.935C247.906 112.933 247.909 112.932 247.912 112.931L247.915 112.93L247.917 112.93L247.917 112.929C247.918 112.929 247.918 112.929 248.018 113.234ZM239.316 115.424C239.285 115.431 239.25 115.44 239.212 115.453C239.094 115.493 238.988 115.556 238.927 115.645C238.875 115.72 238.822 115.86 238.901 116.139C238.984 116.43 239.208 116.85 239.696 117.435C240.21 118.051 240.454 118.472 240.582 118.834C240.646 119.014 240.678 119.172 240.702 119.316C240.709 119.359 240.716 119.398 240.722 119.436C240.737 119.533 240.751 119.619 240.773 119.718C240.889 120.229 241.234 121.03 243.288 123.248L243.288 123.249C245.327 125.459 247.707 127.508 249.886 128.692C250.976 129.284 251.995 129.648 252.883 129.721C253.762 129.794 254.501 129.582 255.074 129.032C256.335 127.817 256.426 127.001 256.314 126.543C256.254 126.301 256.13 126.119 256.018 125.996C255.962 125.934 255.91 125.889 255.874 125.86C255.856 125.846 255.842 125.836 255.834 125.83C255.829 125.827 255.827 125.825 255.825 125.824C255.825 125.824 255.825 125.824 255.825 125.824L255.816 125.818L255.806 125.811L255.998 125.553C255.806 125.811 255.806 125.811 255.806 125.811L255.806 125.811L255.804 125.809L255.799 125.805C255.795 125.802 255.789 125.798 255.781 125.792C255.765 125.78 255.743 125.763 255.715 125.741C255.659 125.697 255.579 125.632 255.482 125.551C255.29 125.389 255.028 125.157 254.755 124.878C254.221 124.332 253.596 123.56 253.4 122.753C253.226 122.046 253.078 121.551 252.696 120.916C252.307 120.27 251.671 119.471 250.504 118.181L250.503 118.181C249.321 116.868 248.622 115.656 248.219 114.768C248.017 114.325 247.889 113.962 247.811 113.708C247.634 113.834 247.436 114.033 247.325 114.331C247.108 114.913 247.165 116.054 248.88 118.092L248.88 118.092C249.021 118.26 249.13 118.415 249.198 118.558C249.262 118.691 249.318 118.872 249.254 119.055C249.183 119.261 249.004 119.35 248.862 119.384C248.723 119.418 248.564 119.414 248.407 119.397C247.787 119.327 246.762 118.97 245.637 118.508C243.421 117.597 240.648 116.203 239.316 115.424ZM239.405 115.409C239.406 115.409 239.406 115.409 239.406 115.409L239.405 115.409Z" fill="#2C2C2C"/>
<path d="M285.733 113.495C285.733 113.495 279.586 145.974 276.573 147.806C274.148 149.284 266.3 142.514 255.955 133.382C254.816 132.316 253.445 130.688 253.445 130.688L255.759 121.946L258.333 124.654L270.562 134.864C270.562 134.864 275.684 108.372 280.527 107.891C285.377 107.402 285.733 113.495 285.733 113.495Z" fill="#2C2C2C"/>
<path d="M350.807 125.553C350.807 125.553 352.746 124.111 353.093 122.677C353.447 121.239 353.725 120.549 356.063 117.966C358.38 115.393 358.787 113.234 358.787 113.234C358.787 113.234 361.644 114.171 358.171 118.299C356.046 120.829 364.877 116.603 367.426 115.088C367.426 115.088 369.361 115.235 367.356 117.641C365.351 120.046 367.867 119.022 363.753 123.466C359.649 127.914 354.124 131.772 351.508 129.263C348.9 126.751 350.807 125.553 350.807 125.553Z" fill="#E0E0E0"/>
<path fill-rule="evenodd" clip-rule="evenodd" d="M358.786 113.234L358.886 112.929L358.538 112.815L358.471 113.174L358.471 113.174L358.471 113.175L358.47 113.177C358.47 113.18 358.469 113.185 358.467 113.192C358.464 113.205 358.459 113.227 358.452 113.256C358.438 113.314 358.415 113.403 358.379 113.518C358.309 113.748 358.19 114.085 358.001 114.502C357.622 115.336 356.958 116.491 355.824 117.751C354.654 119.044 353.981 119.881 353.558 120.585C353.127 121.301 352.96 121.869 352.78 122.6L352.78 122.601L352.78 122.602C352.628 123.229 352.111 123.895 351.59 124.428C351.335 124.689 351.089 124.907 350.908 125.06C350.818 125.136 350.743 125.196 350.692 125.236C350.666 125.256 350.647 125.271 350.633 125.281C350.629 125.285 350.625 125.288 350.622 125.29C350.619 125.292 350.615 125.294 350.612 125.297C350.608 125.299 350.605 125.302 350.601 125.305C350.583 125.317 350.558 125.335 350.529 125.359C350.471 125.405 350.394 125.473 350.312 125.563C350.148 125.743 349.958 126.018 349.867 126.39C349.678 127.159 349.937 128.197 351.285 129.495L351.285 129.495C352.019 130.199 352.953 130.446 353.974 130.362C354.985 130.278 356.094 129.871 357.225 129.256C359.489 128.026 361.923 125.922 363.988 123.684C366.048 121.459 366.501 120.55 366.658 119.86C366.685 119.739 366.704 119.622 366.72 119.52C366.725 119.486 366.73 119.453 366.735 119.423C366.757 119.296 366.781 119.179 366.827 119.048C366.92 118.787 367.113 118.433 367.602 117.846C368.116 117.229 368.402 116.729 368.52 116.315C368.642 115.891 368.588 115.543 368.406 115.28C368.234 115.032 367.982 114.907 367.8 114.845C367.706 114.813 367.622 114.794 367.56 114.783C367.53 114.778 367.504 114.774 367.485 114.772C367.475 114.771 367.468 114.77 367.462 114.769C367.459 114.769 367.456 114.769 367.454 114.769L367.451 114.769L367.45 114.768L367.45 114.768C367.449 114.768 367.449 114.768 367.425 115.089L367.449 114.768L367.348 114.761L367.261 114.813C366.001 115.561 363.171 116.989 360.923 117.914C359.787 118.381 358.843 118.7 358.325 118.759C358.286 118.763 358.252 118.766 358.223 118.767C358.263 118.7 358.325 118.613 358.416 118.506C360.174 116.416 360.424 115.025 360.081 114.107C359.913 113.655 359.614 113.362 359.365 113.184C359.24 113.095 359.125 113.033 359.039 112.992C358.997 112.972 358.961 112.957 358.935 112.947C358.922 112.942 358.911 112.938 358.903 112.935C358.899 112.933 358.895 112.932 358.892 112.931L358.889 112.93L358.887 112.93L358.887 112.929C358.887 112.929 358.886 112.929 358.786 113.234ZM367.489 115.424C367.519 115.431 367.554 115.44 367.592 115.453C367.71 115.494 367.816 115.557 367.878 115.645C367.929 115.72 367.983 115.86 367.903 116.139C367.82 116.43 367.596 116.85 367.108 117.435C366.595 118.052 366.35 118.472 366.222 118.834C366.158 119.015 366.126 119.172 366.102 119.316C366.095 119.359 366.088 119.398 366.082 119.437C366.067 119.533 366.054 119.619 366.031 119.718C365.915 120.229 365.57 121.03 363.516 123.248L363.516 123.249C361.477 125.459 359.097 127.508 356.919 128.692C355.828 129.284 354.809 129.648 353.921 129.722C353.042 129.794 352.304 129.582 351.73 129.032C350.469 127.817 350.378 127.001 350.491 126.543C350.55 126.301 350.674 126.119 350.787 125.996C350.843 125.934 350.894 125.889 350.93 125.86C350.948 125.846 350.962 125.836 350.971 125.83C350.975 125.827 350.978 125.825 350.979 125.824C350.979 125.824 350.98 125.824 350.979 125.824L350.988 125.818L350.998 125.811L350.807 125.553C350.998 125.811 350.998 125.811 350.998 125.811L350.998 125.811L351 125.809L351.005 125.805C351.01 125.802 351.016 125.798 351.023 125.792C351.039 125.78 351.061 125.763 351.089 125.741C351.145 125.697 351.225 125.632 351.322 125.551C351.515 125.389 351.776 125.157 352.049 124.878C352.583 124.332 353.209 123.56 353.404 122.753C353.578 122.046 353.727 121.551 354.108 120.916C354.497 120.27 355.133 119.471 356.301 118.181L356.301 118.181C357.484 116.868 358.182 115.656 358.586 114.768C358.787 114.325 358.915 113.962 358.993 113.708C359.17 113.834 359.368 114.033 359.479 114.331C359.697 114.913 359.639 116.054 357.924 118.092L357.924 118.092C357.783 118.26 357.674 118.415 357.606 118.558C357.542 118.691 357.486 118.872 357.55 119.055C357.622 119.261 357.8 119.35 357.942 119.384C358.081 119.418 358.241 119.415 358.397 119.397C359.017 119.327 360.042 118.97 361.167 118.508C363.383 117.597 366.156 116.203 367.489 115.424ZM367.399 115.409C367.399 115.409 367.398 115.409 367.399 115.409L367.399 115.409Z" fill="#2C2C2C"/>
<path d="M321.073 113.494C321.073 113.494 327.219 145.974 330.233 147.806C332.658 149.283 340.505 142.514 350.85 133.382C351.989 132.316 353.36 130.687 353.36 130.687L351.046 121.946L348.472 124.654L336.244 134.864C336.244 134.864 331.121 108.372 326.279 107.891C321.429 107.401 321.073 113.494 321.073 113.494Z" fill="#2C2C2C"/>
<path d="M333.837 113.701C333.837 118.824 330.481 121.995 325.358 121.995C320.235 121.995 316.084 117.844 316.084 112.721C316.084 107.599 319.954 101.946 324.836 103.48C330.216 105.158 333.837 108.578 333.837 113.701Z" fill="white"/>
<path fill-rule="evenodd" clip-rule="evenodd" d="M318.875 105.812C317.348 107.614 316.406 110.233 316.406 112.722C316.406 117.667 320.413 121.674 325.358 121.674C327.853 121.674 329.887 120.903 331.295 119.539C332.702 118.175 333.516 116.19 333.516 113.701C333.516 108.774 330.047 105.442 324.741 103.787L324.74 103.787C322.458 103.07 320.396 104.017 318.875 105.812ZM324.932 103.174C322.332 102.357 320.019 103.469 318.385 105.397C316.756 107.32 315.763 110.088 315.763 112.722C315.763 118.022 320.058 122.317 325.358 122.317C327.986 122.317 330.192 121.502 331.742 120C333.294 118.497 334.158 116.335 334.158 113.701C334.158 108.383 330.385 104.874 324.932 103.174Z" fill="#2C2C2C"/>
<path d="M329.67 112.208C329.67 115.998 327.189 118.342 323.399 118.342C319.609 118.342 316.542 115.275 316.542 111.485C316.542 107.696 319.401 103.512 323.022 104.644C326.988 105.897 329.67 108.426 329.67 112.208Z" fill="#2C2C2C"/>
<path d="M271.611 113.701C271.611 118.824 274.967 121.996 280.09 121.996C285.212 121.996 289.355 117.836 289.355 112.722C289.355 107.607 285.485 101.947 280.604 103.48C275.232 105.158 271.611 108.579 271.611 113.701Z" fill="white"/>
<path fill-rule="evenodd" clip-rule="evenodd" d="M287.055 105.4C288.684 107.324 289.677 110.092 289.677 112.722C289.677 118.013 285.39 122.317 280.09 122.317C277.462 122.317 275.256 121.502 273.706 120C272.154 118.497 271.29 116.335 271.29 113.701C271.29 108.383 275.063 104.875 280.508 103.174C283.108 102.357 285.422 103.472 287.055 105.4ZM286.565 105.816C285.043 104.019 282.981 103.07 280.7 103.787L280.699 103.787C275.401 105.442 271.932 108.774 271.932 113.701C271.932 116.191 272.746 118.176 274.153 119.539C275.561 120.903 277.595 121.674 280.09 121.674C285.035 121.674 289.034 117.66 289.034 112.722C289.034 110.237 288.092 107.618 286.565 105.816Z" fill="#2C2C2C"/>
<path d="M275.786 112.208C275.786 115.998 278.267 118.342 282.057 118.342C285.846 118.342 288.914 115.275 288.914 111.485C288.914 107.696 286.055 103.512 282.442 104.644C278.46 105.897 275.786 108.426 275.786 112.208Z" fill="#2C2C2C"/>
<path d="M314.398 154.802C308.601 154.273 302.876 154.056 302.876 154.056C300.772 154.12 296.292 154.305 291.667 154.802C293.016 159.411 297.593 162.808 303.029 162.808C308.472 162.816 313.049 159.403 314.398 154.802Z" fill="#50BFD7"/>
<path d="M313.925 155.284C314.423 153.325 324.387 103.4 324.387 103.4C324.387 103.4 297.795 95.5472 280.789 103.4L291.692 155.718L313.925 155.284Z" fill="white"/>
<path fill-rule="evenodd" clip-rule="evenodd" d="M324.477 103.091C324.477 103.091 324.478 103.091 324.387 103.399C324.702 103.462 324.702 103.463 324.701 103.463L324.701 103.465L324.59 104.024C324.516 104.39 324.409 104.927 324.272 105.611C323.999 106.98 323.608 108.938 323.137 111.294C322.195 116.005 320.934 122.307 319.657 128.67C317.106 141.387 314.487 154.373 314.236 155.363L314.176 155.6L291.432 156.044L280.422 103.215L280.654 103.108C289.239 99.1436 300.212 99.1524 309 100.136C313.401 100.628 317.268 101.366 320.036 101.982C321.419 102.289 322.528 102.566 323.292 102.767C323.674 102.867 323.97 102.948 324.17 103.004C324.271 103.032 324.347 103.054 324.399 103.069C324.424 103.076 324.444 103.082 324.457 103.085L324.472 103.09L324.476 103.091L324.477 103.091ZM324.387 103.399L324.702 103.462L324.759 103.175L324.478 103.091L324.387 103.399ZM324.014 103.627C324.008 103.626 324.003 103.624 323.997 103.623C323.8 103.567 323.508 103.487 323.129 103.388C322.372 103.19 321.271 102.914 319.896 102.609C317.146 101.997 313.302 101.263 308.929 100.774C300.25 99.803 289.542 99.8027 281.155 103.585L291.952 155.391L313.668 154.968C314.123 152.927 316.601 140.636 319.027 128.544C320.304 122.181 321.565 115.879 322.507 111.168C322.978 108.812 323.369 106.855 323.643 105.486C323.779 104.801 323.887 104.264 323.96 103.898L324.014 103.627Z" fill="black"/>
<path d="M313.925 155.284C314.423 153.325 324.387 103.4 324.387 103.4C324.387 103.4 297.795 95.5472 280.789 103.4L291.692 155.718L313.925 155.284Z" fill="white"/>
<path fill-rule="evenodd" clip-rule="evenodd" d="M324.477 103.091C324.477 103.091 324.478 103.091 324.387 103.399C324.702 103.462 324.702 103.463 324.701 103.463L324.701 103.465L324.59 104.024C324.516 104.39 324.409 104.927 324.272 105.611C323.999 106.98 323.608 108.938 323.137 111.294C322.195 116.005 320.934 122.307 319.657 128.67C317.106 141.387 314.487 154.373 314.236 155.363L314.176 155.6L291.432 156.044L280.422 103.215L280.654 103.108C289.239 99.1436 300.212 99.1524 309 100.136C313.401 100.628 317.268 101.366 320.036 101.982C321.419 102.289 322.528 102.566 323.292 102.767C323.674 102.867 323.97 102.948 324.17 103.004C324.271 103.032 324.347 103.054 324.399 103.069C324.424 103.076 324.444 103.082 324.457 103.085L324.472 103.09L324.476 103.091L324.477 103.091ZM324.387 103.399L324.702 103.462L324.759 103.175L324.478 103.091L324.387 103.399ZM324.014 103.627C324.008 103.626 324.003 103.624 323.997 103.623C323.8 103.567 323.508 103.487 323.129 103.388C322.372 103.19 321.271 102.914 319.896 102.609C317.146 101.997 313.302 101.263 308.929 100.774C300.25 99.803 289.542 99.8027 281.155 103.585L291.952 155.391L313.668 154.968C314.123 152.927 316.601 140.636 319.027 128.544C320.304 122.181 321.565 115.879 322.507 111.168C322.978 108.812 323.369 106.855 323.643 105.486C323.779 104.801 323.887 104.264 323.96 103.898L324.014 103.627Z" fill="#2C2C2C"/>
<path d="M317.932 101.866C310.505 100.373 297.947 98.6704 287.156 101.24C288.432 109.293 289.709 117.354 290.986 125.408C292.013 130.867 297.192 134.505 302.596 134.537C308 134.505 313.178 130.875 314.206 125.408C315.443 117.555 316.687 109.711 317.932 101.866Z" fill="#50BFD7"/>
<path fill-rule="evenodd" clip-rule="evenodd" d="M287.081 100.927C297.943 98.3413 310.558 100.056 317.995 101.551L318.297 101.612L318.248 101.921C317.004 109.764 315.759 117.607 314.523 125.458L314.522 125.462L314.521 125.467C313.461 131.11 308.129 134.825 302.598 134.858L302.596 134.858L302.594 134.858C297.062 134.825 291.731 131.102 290.67 125.467L290.669 125.463L290.668 125.458C290.03 121.432 289.392 117.403 288.754 113.375L288.753 113.374C288.115 109.345 287.477 105.317 286.838 101.29L286.792 100.996L287.081 100.927ZM287.52 101.484C288.142 105.413 288.765 109.342 289.388 113.272L289.388 113.273C290.026 117.301 290.664 121.328 291.302 125.353C292.299 130.634 297.322 134.183 302.596 134.216C307.869 134.183 312.893 130.642 313.889 125.353C315.11 117.604 316.338 109.862 317.566 102.121C310.183 100.658 298.03 99.0635 287.52 101.484Z" fill="#2C2C2C"/>
<path d="M301.673 104.717C304.21 104.717 308.153 103.946 308.153 101.417L307.502 92.97L306.932 85.5831C306.932 83.0459 304.877 80.9985 302.347 80.9985C301.079 80.9985 299.939 81.5123 299.104 82.3393C298.277 83.1663 297.755 84.3145 297.755 85.5831L297.193 92.978L296.655 100.068C295.932 104.347 301.673 104.717 301.673 104.717Z" fill="#2C2C2C"/>
<path d="M286.738 270.832C286.738 270.832 287.212 272.334 287.348 272.567C287.493 272.799 291.178 274.068 295.674 273.972C300.347 273.875 302.483 272.518 302.547 270.824H286.738V270.832Z" fill="#50BFD7"/>
<path fill-rule="evenodd" clip-rule="evenodd" d="M286.417 270.503H302.881L302.869 270.836C302.83 271.839 302.174 272.688 300.983 273.284C299.797 273.877 298.041 274.244 295.681 274.292M286.417 270.503V270.824V270.503ZM286.738 270.832L286.432 270.929L286.417 270.881V270.824M286.738 270.832C286.432 270.929 286.432 270.929 286.432 270.929L286.437 270.946C286.441 270.957 286.446 270.974 286.453 270.994C286.466 271.036 286.485 271.096 286.509 271.169C286.555 271.314 286.619 271.51 286.688 271.714C286.756 271.917 286.829 272.13 286.894 272.308C286.954 272.473 287.02 272.64 287.071 272.729L287.073 272.732L287.075 272.736C287.108 272.787 287.147 272.822 287.17 272.84C287.196 272.861 287.223 272.88 287.249 272.895C287.3 272.927 287.361 272.958 287.429 272.989C287.565 273.052 287.75 273.124 287.973 273.201C288.423 273.356 289.049 273.536 289.81 273.706C291.331 274.044 293.403 274.341 295.681 274.292M287.176 271.145H302.18C302.041 271.718 301.585 272.265 300.696 272.71C299.63 273.243 297.981 273.603 295.668 273.65L295.668 273.65C293.45 273.698 291.431 273.409 289.949 273.079C289.209 272.914 288.606 272.74 288.183 272.594C287.97 272.521 287.808 272.456 287.697 272.406C287.656 272.387 287.626 272.371 287.604 272.359C287.597 272.343 287.589 272.325 287.58 272.303C287.556 272.245 287.528 272.171 287.497 272.087C287.435 271.917 287.364 271.711 287.297 271.51C287.254 271.382 287.212 271.256 287.176 271.145Z" fill="#2C2C2C"/>
<path d="M286.747 271.153C287.453 271.787 288.377 272.269 289.051 272.486C290.729 273.04 292.568 273.249 294.326 273.345C296.197 273.441 298.253 273.409 300.003 272.671C300.95 272.269 301.753 271.683 302.5 271.017C302.837 270.19 302.926 269.25 302.902 268.287C302.845 266.552 302.452 264.874 302.147 263.172C302.099 262.923 302.058 262.682 302.018 262.441C301.93 261.333 301.85 260.217 301.777 259.117C301.753 258.708 301.705 258.347 301.713 257.937C301.721 257.664 301.818 257.222 301.745 256.965C301.737 256.933 301.721 256.909 301.713 256.885C301.713 256.845 301.721 256.805 301.713 256.765C301.4 256.508 301.071 256.267 300.693 256.163C300.42 256.211 300.147 256.299 299.971 256.371C299.69 256.484 299.441 256.628 299.216 256.797C298.662 256.042 297.297 255.689 296.526 255.657C295.322 255.609 293.716 255.817 292.761 256.701C292.6 256.548 292.351 256.468 292.134 256.428C292.086 256.42 292.03 256.411 291.982 256.403C291.42 256.62 291.564 258.001 291.508 258.395C291.428 258.917 291.348 259.438 291.219 259.944C290.962 260.916 290.593 261.807 290.031 262.642C289.429 263.541 288.642 264.32 287.951 265.147C287.855 265.316 287.75 265.484 287.654 265.645C286.915 266.833 286.313 268.56 286.474 269.973C286.514 270.422 286.61 270.808 286.747 271.153Z" fill="#50BFD7"/>
<path fill-rule="evenodd" clip-rule="evenodd" d="M294.476 255.517C295.181 255.352 295.914 255.311 296.538 255.336L296.538 255.336C296.958 255.353 297.525 255.457 298.062 255.655C298.494 255.814 298.939 256.046 299.268 256.37C299.447 256.257 299.64 256.157 299.849 256.074C300.043 255.994 300.338 255.899 300.636 255.846L300.708 255.834L300.778 255.853C301.226 255.977 301.6 256.258 301.915 256.517L302.004 256.589L302.027 256.702C302.037 256.752 302.037 256.797 302.036 256.827C302.042 256.843 302.049 256.862 302.054 256.883C302.107 257.074 302.093 257.302 302.078 257.474C302.07 257.556 302.062 257.627 302.055 257.691C302.044 257.788 302.035 257.87 302.033 257.945C302.028 258.208 302.046 258.439 302.067 258.694C302.077 258.82 302.088 258.953 302.097 259.098C302.168 260.191 302.248 261.301 302.336 262.402C302.375 262.639 302.414 262.872 302.461 263.111L302.461 263.113L302.461 263.116C302.524 263.466 302.592 263.819 302.659 264.173C302.915 265.514 303.176 266.88 303.221 268.276L303.221 268.278L303.221 268.279C303.246 269.263 303.157 270.253 302.796 271.138L302.768 271.207L302.712 271.256C301.951 271.936 301.118 272.546 300.127 272.966L300.126 272.967C298.304 273.736 296.185 273.762 294.308 273.666L294.307 273.666C292.54 273.569 290.668 273.358 288.95 272.791C288.237 272.562 287.274 272.059 286.531 271.392L286.475 271.342L286.447 271.271C286.299 270.898 286.196 270.484 286.153 270.005C285.983 268.495 286.62 266.699 287.379 265.478C287.407 265.431 287.435 265.384 287.463 265.337C287.534 265.221 287.604 265.105 287.671 264.988L287.685 264.963L287.703 264.941C287.94 264.657 288.181 264.387 288.418 264.12C288.9 263.579 289.367 263.054 289.762 262.464L289.763 262.463C290.301 261.664 290.657 260.807 290.907 259.864C291.03 259.377 291.108 258.871 291.189 258.348C291.199 258.278 291.201 258.155 291.204 257.969C291.204 257.961 291.204 257.952 291.204 257.943C291.207 257.755 291.212 257.527 291.234 257.302C291.256 257.08 291.296 256.839 291.379 256.632C291.461 256.426 291.605 256.204 291.865 256.104L291.947 256.072L292.033 256.087C292.055 256.09 292.079 256.094 292.106 256.098L292.107 256.098C292.132 256.102 292.16 256.107 292.186 256.111L292.189 256.111L292.191 256.112C292.351 256.142 292.554 256.195 292.74 256.296C293.242 255.904 293.857 255.661 294.476 255.517ZM294.622 256.142C293.982 256.291 293.4 256.546 292.977 256.937L292.756 257.141L292.538 256.934C292.447 256.847 292.276 256.781 292.077 256.744C292.068 256.743 292.059 256.741 292.049 256.739C292.027 256.764 292.002 256.804 291.975 256.87C291.926 256.995 291.893 257.165 291.874 257.364C291.854 257.561 291.85 257.765 291.847 257.954C291.846 257.97 291.846 257.987 291.846 258.005C291.843 258.164 291.841 258.328 291.825 258.44L291.824 258.442L291.823 258.451C291.743 258.968 291.661 259.503 291.529 260.024L291.529 260.025L291.528 260.027C291.264 261.026 290.882 261.951 290.296 262.821C289.876 263.448 289.358 264.031 288.861 264.591C288.638 264.842 288.418 265.088 288.214 265.332C288.147 265.448 288.076 265.566 288.009 265.677C287.981 265.723 287.954 265.767 287.928 265.81L287.927 265.813L287.925 265.815C287.208 266.969 286.642 268.622 286.792 269.937L286.792 269.94L286.792 269.944C286.827 270.333 286.906 270.666 287.017 270.965C287.68 271.541 288.531 271.982 289.148 272.18L289.149 272.181L289.15 272.181C290.788 272.722 292.593 272.929 294.342 273.024C296.207 273.12 298.198 273.083 299.876 272.375C300.757 272.002 301.513 271.459 302.228 270.827C302.52 270.075 302.602 269.211 302.579 268.296C302.535 266.955 302.287 265.654 302.033 264.319C301.964 263.959 301.895 263.597 301.83 263.231C301.781 262.979 301.74 262.735 301.7 262.496L301.698 262.481L301.697 262.467C301.608 261.357 301.528 260.24 301.456 259.138L301.455 259.137L301.455 259.136C301.449 259.021 301.439 258.903 301.43 258.784C301.408 258.51 301.385 258.227 301.391 257.931L301.391 257.929L301.391 257.928C301.394 257.828 301.408 257.698 301.421 257.578C301.428 257.52 301.434 257.465 301.438 257.416C301.454 257.24 301.453 257.121 301.436 257.056C301.435 257.055 301.435 257.053 301.434 257.052L301.432 257.049C301.431 257.045 301.429 257.041 301.426 257.035C301.421 257.024 301.414 257.007 301.407 256.987L301.391 256.937V256.919C301.147 256.727 300.917 256.574 300.674 256.493C300.452 256.539 300.234 256.61 300.091 256.669L300.09 256.669L300.089 256.67C299.836 256.771 299.611 256.901 299.407 257.054L299.148 257.249L298.956 256.987C298.733 256.684 298.323 256.435 297.84 256.257C297.364 256.082 296.863 255.992 296.512 255.978C295.932 255.955 295.259 255.994 294.622 256.142Z" fill="#2C2C2C"/>
<path d="M321.553 270.832C321.553 270.832 321.087 272.334 320.943 272.567C320.798 272.799 317.113 274.068 312.617 273.972C307.944 273.875 305.808 272.518 305.744 270.824H321.553V270.832Z" fill="#50BFD7"/>
<path fill-rule="evenodd" clip-rule="evenodd" d="M305.409 270.503H321.873V270.881L321.859 270.927L321.552 270.832C321.859 270.927 321.859 270.927 321.859 270.927L321.859 270.927L321.858 270.927L321.853 270.944C321.85 270.956 321.845 270.972 321.838 270.993C321.825 271.035 321.806 271.095 321.783 271.168C321.737 271.313 321.673 271.509 321.606 271.713C321.538 271.917 321.465 272.13 321.399 272.308C321.339 272.472 321.271 272.644 321.214 272.736C321.182 272.787 321.143 272.822 321.12 272.84C321.094 272.861 321.067 272.88 321.041 272.895C320.99 272.927 320.929 272.958 320.861 272.989C320.725 273.052 320.54 273.124 320.317 273.201C319.867 273.356 319.241 273.536 318.48 273.706C316.959 274.044 314.887 274.341 312.609 274.293M321.116 271.145H306.11C306.249 271.718 306.705 272.265 307.594 272.71C308.66 273.243 310.309 273.603 312.622 273.65L312.622 273.65C314.84 273.698 316.859 273.409 318.341 273.079C319.081 272.914 319.684 272.74 320.107 272.594C320.32 272.521 320.482 272.456 320.592 272.406C320.635 272.386 320.666 272.37 320.688 272.358C320.695 272.342 320.704 272.323 320.713 272.301C320.737 272.243 320.765 272.17 320.797 272.086C320.859 271.917 320.929 271.711 320.996 271.51C321.039 271.382 321.08 271.257 321.116 271.145ZM305.409 270.503L305.421 270.836L305.409 270.503ZM305.421 270.836C305.459 271.839 306.116 272.688 307.307 273.284L305.421 270.836ZM307.307 273.284C308.493 273.877 310.249 274.244 312.609 274.292L307.307 273.284Z" fill="#2C2C2C"/>
<path d="M321.544 271.153C320.838 271.787 319.914 272.269 319.24 272.486C317.562 273.04 315.723 273.249 313.965 273.345C312.094 273.441 310.038 273.409 308.288 272.671C307.341 272.269 306.538 271.683 305.791 271.017C305.454 270.19 305.365 269.25 305.39 268.287C305.446 266.552 305.839 264.874 306.144 263.172C306.192 262.923 306.233 262.682 306.273 262.441C306.361 261.333 306.441 260.217 306.514 259.117C306.546 258.708 306.586 258.347 306.578 257.937C306.57 257.664 306.473 257.222 306.546 256.965C306.554 256.933 306.57 256.909 306.578 256.885C306.578 256.845 306.57 256.805 306.578 256.765C306.891 256.508 307.212 256.267 307.598 256.163C307.871 256.211 308.144 256.299 308.32 256.371C308.601 256.484 308.85 256.628 309.075 256.797C309.629 256.042 310.994 255.689 311.765 255.657C312.969 255.609 314.575 255.817 315.53 256.701C315.691 256.548 315.94 256.468 316.157 256.428C316.205 256.42 316.261 256.411 316.309 256.403C316.871 256.62 316.727 258.001 316.783 258.395C316.863 258.917 316.943 259.438 317.072 259.944C317.329 260.916 317.698 261.807 318.26 262.642C318.862 263.541 319.649 264.32 320.34 265.147C320.436 265.316 320.541 265.484 320.637 265.645C321.376 266.833 321.978 268.56 321.817 269.973C321.777 270.422 321.681 270.808 321.544 271.153Z" fill="#50BFD7"/>
<path fill-rule="evenodd" clip-rule="evenodd" d="M313.668 256.142C313.031 255.994 312.358 255.955 311.778 255.978C311.427 255.992 310.926 256.082 310.45 256.257C309.967 256.435 309.556 256.684 309.334 256.987L309.142 257.249L308.882 257.054C308.678 256.901 308.454 256.771 308.201 256.67L308.2 256.669L308.199 256.669C308.055 256.61 307.837 256.538 307.614 256.493C307.368 256.574 307.143 256.725 306.899 256.918V256.937L306.883 256.987C306.876 257.007 306.868 257.024 306.864 257.035C306.861 257.041 306.859 257.045 306.857 257.049C306.856 257.052 306.855 257.054 306.854 257.056C306.837 257.121 306.836 257.24 306.852 257.416C306.856 257.465 306.862 257.52 306.869 257.578C306.882 257.698 306.896 257.828 306.899 257.928L306.899 257.929L306.899 257.931C306.906 258.282 306.879 258.602 306.852 258.924C306.846 258.996 306.84 259.068 306.834 259.141C306.762 260.241 306.681 261.358 306.593 262.467L306.592 262.481L306.589 262.496C306.55 262.735 306.509 262.979 306.46 263.231C306.394 263.597 306.325 263.959 306.257 264.319C306.002 265.654 305.754 266.955 305.711 268.296C305.688 269.211 305.77 270.075 306.061 270.827C306.776 271.459 307.533 272.002 308.413 272.375C310.091 273.083 312.083 273.12 313.948 273.024C315.696 272.929 317.502 272.722 319.139 272.181L319.14 272.181L319.142 272.18C319.759 271.982 320.61 271.541 321.273 270.965C321.383 270.666 321.463 270.333 321.497 269.944L321.498 269.94L321.498 269.937C321.648 268.622 321.082 266.969 320.364 265.815L320.363 265.813L320.362 265.81C320.336 265.767 320.309 265.723 320.281 265.677C320.214 265.566 320.143 265.448 320.075 265.332C319.871 265.088 319.652 264.842 319.429 264.591C318.932 264.031 318.414 263.448 317.994 262.821C317.408 261.951 317.026 261.026 316.762 260.027L316.761 260.025L316.761 260.024C316.629 259.503 316.546 258.968 316.467 258.451L316.465 258.442L316.465 258.44C316.449 258.328 316.447 258.164 316.444 258.004C316.444 257.987 316.443 257.97 316.443 257.954C316.44 257.765 316.435 257.561 316.416 257.364C316.397 257.165 316.364 256.995 316.314 256.87C316.288 256.804 316.262 256.764 316.241 256.739C316.231 256.741 316.221 256.742 316.212 256.744C316.014 256.781 315.843 256.847 315.752 256.934L315.533 257.141L315.312 256.937C314.89 256.546 314.308 256.291 313.668 256.142ZM315.55 256.296C315.048 255.904 314.433 255.661 313.814 255.517C313.108 255.352 312.376 255.311 311.752 255.336L311.751 255.336C311.332 255.353 310.765 255.457 310.228 255.655C309.795 255.814 309.351 256.046 309.022 256.37C308.843 256.257 308.65 256.157 308.441 256.074C308.246 255.994 307.952 255.899 307.653 255.846L307.583 255.834L307.514 255.853C307.056 255.977 306.688 256.259 306.374 256.517L306.286 256.589L306.263 256.702C306.253 256.752 306.253 256.797 306.254 256.827C306.248 256.843 306.241 256.862 306.236 256.883C306.183 257.074 306.196 257.302 306.212 257.474C306.219 257.556 306.227 257.627 306.234 257.691C306.245 257.788 306.255 257.87 306.257 257.945C306.263 258.259 306.239 258.54 306.213 258.858C306.206 258.934 306.2 259.012 306.194 259.092L306.193 259.094L306.193 259.096C306.121 260.191 306.042 261.3 305.954 262.402C305.914 262.639 305.875 262.872 305.829 263.111L305.829 263.113L305.828 263.116C305.765 263.466 305.698 263.819 305.631 264.173C305.375 265.514 305.114 266.88 305.069 268.276L305.069 268.278L305.069 268.279C305.044 269.263 305.133 270.253 305.494 271.138L305.522 271.207L305.577 271.256C306.339 271.936 307.172 272.546 308.163 272.966L308.163 272.967C309.986 273.736 312.105 273.762 313.981 273.666L313.982 273.666C315.75 273.569 317.621 273.358 319.339 272.791C320.053 272.562 321.016 272.059 321.759 271.392L321.815 271.342L321.843 271.271C321.991 270.898 322.094 270.484 322.137 270.005C322.307 268.496 321.67 266.699 320.911 265.478C320.883 265.431 320.855 265.384 320.826 265.338C320.756 265.221 320.686 265.105 320.619 264.988L320.605 264.963L320.586 264.941C320.349 264.657 320.109 264.387 319.871 264.12C319.39 263.579 318.923 263.054 318.527 262.464L318.527 262.463C317.989 261.664 317.633 260.807 317.383 259.864C317.259 259.377 317.181 258.871 317.101 258.348C317.091 258.278 317.089 258.155 317.086 257.969L317.085 257.943C317.082 257.755 317.077 257.527 317.056 257.302C317.034 257.08 316.994 256.839 316.911 256.632C316.829 256.426 316.684 256.204 316.425 256.104L316.343 256.072L316.257 256.087C316.235 256.09 316.211 256.094 316.184 256.098L316.183 256.098C316.158 256.102 316.13 256.107 316.104 256.111L316.101 256.111L316.098 256.112C315.938 256.142 315.735 256.195 315.55 256.296ZM306.278 256.772C306.278 256.772 306.278 256.772 306.278 256.772V256.772Z" fill="#2C2C2C"/>
<path d="M305.662 110.691H299.496C297.858 110.691 296.525 112.023 296.525 113.661V119.828C296.525 121.466 297.858 122.799 299.496 122.799H305.662C307.3 122.799 308.633 121.466 308.633 119.828V113.661C308.633 112.023 307.308 110.691 305.662 110.691ZM294.887 108.065C293.948 108.065 293.185 108.828 293.185 109.767C293.185 110.707 293.948 111.469 294.887 111.469C295.826 111.469 296.589 110.707 296.589 109.767C296.589 108.828 295.826 108.065 294.887 108.065Z" fill="white"/>
<path d="M305.229 114.368C304.836 113.316 303.832 112.617 302.708 112.617H301.038L304.338 120.984H307.879L305.229 114.368ZM298.485 118.583L297.521 120.984H301.038L302.676 116.833H301.006C299.882 116.833 298.878 117.531 298.485 118.583ZM299.031 114.697C299.609 114.697 300.082 114.223 300.082 113.645C300.082 113.067 299.609 112.593 299.031 112.593C298.453 112.593 297.979 113.067 297.979 113.645C297.979 114.223 298.453 114.697 299.031 114.697Z" fill="#50BFD7"/>
<path fill-rule="evenodd" clip-rule="evenodd" d="M305.458 87.7638C301.952 85.6562 299.118 86.9077 298.192 87.7113C297.978 87.8975 297.653 87.8746 297.467 87.6602C297.281 87.4458 297.304 87.121 297.518 86.9348C298.738 85.8752 302.055 84.5182 305.988 86.8824C306.232 87.0287 306.31 87.3446 306.164 87.588C306.018 87.8314 305.702 87.9101 305.458 87.7638Z" fill="#2C2C2C"/>
<path d="M315.621 38.8152C312.17 34.5725 307.35 32.0137 301.159 32.0137C287.144 32.0137 273.45 44.9398 273.45 61.052C273.45 77.1643 284.808 90.2307 298.823 90.2307C300.169 90.2307 301.473 90.1069 302.736 89.884C302.868 90.5939 302.942 91.3203 302.942 92.0714C302.942 92.2035 302.934 92.3438 302.934 92.4759C341.555 83.0991 335.233 36.4297 315.621 38.8152Z" fill="#2C2C2C"/>
<path d="M283.116 80.3584C286.057 80.3584 288.44 77.9748 288.44 75.0345C288.44 72.0941 286.057 69.7105 283.116 69.7105C280.176 69.7105 277.792 72.0941 277.792 75.0345C277.792 77.9748 280.176 80.3584 283.116 80.3584Z" fill="#E0E0E0"/>
<path fill-rule="evenodd" clip-rule="evenodd" d="M283.116 70.0406C280.358 70.0406 278.122 72.2764 278.122 75.0344C278.122 77.7924 280.358 80.0282 283.116 80.0282C285.874 80.0282 288.11 77.7924 288.11 75.0344C288.11 72.2764 285.874 70.0406 283.116 70.0406ZM277.462 75.0344C277.462 71.9117 279.994 69.3802 283.116 69.3802C286.239 69.3802 288.77 71.9117 288.77 75.0344C288.77 78.1571 286.239 80.6885 283.116 80.6885C279.994 80.6885 277.462 78.1571 277.462 75.0344Z" fill="#2C2C2C"/>
<path d="M320.607 80.3584C323.547 80.3584 325.931 77.9748 325.931 75.0345C325.931 72.0941 323.547 69.7105 320.607 69.7105C317.667 69.7105 315.283 72.0941 315.283 75.0345C315.283 77.9748 317.667 80.3584 320.607 80.3584Z" fill="#E0E0E0"/>
<path fill-rule="evenodd" clip-rule="evenodd" d="M320.607 70.0406C317.849 70.0406 315.613 72.2764 315.613 75.0344C315.613 77.7924 317.849 80.0282 320.607 80.0282C323.365 80.0282 325.601 77.7924 325.601 75.0344C325.601 72.2764 323.365 70.0406 320.607 70.0406ZM314.953 75.0344C314.953 71.9117 317.484 69.3802 320.607 69.3802C323.729 69.3802 326.261 71.9117 326.261 75.0344C326.261 78.1571 323.729 80.6885 320.607 80.6885C317.484 80.6885 314.953 78.1571 314.953 75.0344Z" fill="#2C2C2C"/>
<path d="M302.364 97.2467C313.793 97.2467 323.058 84.1313 323.058 67.9525C323.058 51.7737 313.793 38.6583 302.364 38.6583C290.936 38.6583 281.671 51.7737 281.671 67.9525C281.671 84.1313 290.936 97.2467 302.364 97.2467Z" fill="#E0E0E0"/>
<path fill-rule="evenodd" clip-rule="evenodd" d="M288.001 47.4288C284.3 52.668 282.001 59.9231 282.001 67.9524C282.001 75.9817 284.3 83.2369 288.001 88.4761C291.703 93.7161 296.786 96.9165 302.364 96.9165C307.943 96.9165 313.025 93.7161 316.727 88.4761C320.428 83.2369 322.727 75.9817 322.727 67.9524C322.727 59.9231 320.428 52.668 316.727 47.4288C313.025 42.1887 307.943 38.9884 302.364 38.9884C296.786 38.9884 291.703 42.1887 288.001 47.4288ZM287.462 47.0478C291.25 41.6854 296.514 38.328 302.364 38.328C308.214 38.328 313.478 41.6854 317.266 47.0478C321.055 52.411 323.388 59.803 323.388 67.9524C323.388 76.1019 321.055 83.4939 317.266 88.8571C313.478 94.2195 308.214 97.5768 302.364 97.5768C296.514 97.5768 291.25 94.2195 287.462 88.8571C283.674 83.4939 281.341 76.1019 281.341 67.9524C281.341 59.803 283.674 52.411 287.462 47.0478Z" fill="#2C2C2C"/>
<path d="M278.649 61.4564C278.649 61.4564 296.264 62.3149 302.133 51.7164C302.133 51.7164 314.877 62.7441 327.044 61.8856L325.897 57.0156L321.175 47.7049L318.311 44.2711L312.442 38.1135L304.568 34.82L295.117 36.1077L282.512 44.7003L280.936 50.4288L278.649 61.4564Z" fill="#2C2C2C"/>
<path d="M302.867 79.4012C302.876 79.4507 302.768 79.5415 302.529 79.5415C302.298 79.5498 301.943 79.4425 301.629 79.1453C301.473 78.9967 301.332 78.8151 301.225 78.584C301.208 78.551 301.2 78.518 301.184 78.485L301.167 78.4354L301.151 78.3942L301.126 78.3199C301.118 78.2869 301.109 78.2456 301.093 78.2126C301.06 78.0888 301.035 77.9567 301.027 77.8164C300.977 77.2716 301.085 76.7186 301.217 76.1903C301.728 74.0772 302.331 72.4181 302.554 72.4676C302.777 72.5254 302.546 74.2753 302.034 76.3884C301.902 76.9084 301.803 77.3789 301.803 77.7751C301.803 77.8741 301.811 77.9732 301.819 78.064L301.827 78.097V78.1135V78.1218V78.13C301.827 78.13 301.819 78.1053 301.827 78.1135L301.844 78.1961L301.852 78.2373L301.86 78.2621L301.877 78.3116C301.926 78.4685 302.001 78.617 302.083 78.7326C302.248 78.972 302.447 79.1205 302.603 79.2031C302.752 79.3104 302.859 79.3434 302.867 79.4012Z" fill="#2C2C2C"/>
<path d="M296.983 69.5043C296.983 71.8568 294.945 73.7635 292.435 73.7635C289.918 73.7635 287.887 71.8568 287.887 69.5043C287.887 67.1519 289.926 65.2451 292.435 65.2451C294.936 65.2451 296.983 67.1519 296.983 69.5043Z" fill="white"/>
<path fill-rule="evenodd" clip-rule="evenodd" d="M292.435 65.5752C290.088 65.5752 288.217 67.3543 288.217 69.5042C288.217 71.6545 290.08 73.4332 292.435 73.4332C294.783 73.4332 296.653 71.6541 296.653 69.5042C296.653 67.3547 294.775 65.5752 292.435 65.5752ZM287.557 69.5042C287.557 66.9492 289.765 64.9149 292.435 64.9149C295.097 64.9149 297.314 66.9489 297.314 69.5042C297.314 72.0592 295.106 74.0936 292.435 74.0936C289.756 74.0936 287.557 72.0589 287.557 69.5042Z" fill="#2C2C2C"/>
<path d="M290.198 69.2404C290.198 71.1801 291.46 72.7567 293.012 72.7567C294.564 72.7567 295.827 71.1801 295.827 69.2404C295.827 67.3006 294.564 65.7241 293.012 65.7241C291.46 65.7158 290.198 67.2924 290.198 69.2404Z" fill="#50BFD7"/>
<path d="M291.015 69.2404C291.015 70.6188 291.906 71.7332 293.012 71.7332C294.118 71.7332 295.01 70.6188 295.01 69.2404C295.01 67.8619 294.118 66.7393 293.012 66.7393C291.906 66.7393 291.015 67.8537 291.015 69.2404Z" fill="#2C2C2C"/>
<path d="M290.892 66.8711C290.892 67.2508 291.354 67.5479 291.924 67.5479C292.493 67.5479 292.955 67.2425 292.955 66.8711C292.955 66.4914 292.493 66.1942 291.924 66.1942C291.354 66.186 290.892 66.4914 290.892 66.8711Z" fill="white"/>
<path d="M298.279 62.9916C298.279 62.9916 292.137 56.867 285.534 64.139C285.534 64.139 291.246 60.4823 298.279 62.9916Z" fill="#2C2C2C"/>
<path d="M316.768 69.5043C316.768 71.8568 314.729 73.7635 312.22 73.7635C309.702 73.7635 307.672 71.8568 307.672 69.5043C307.672 67.1519 309.711 65.2451 312.22 65.2451C314.729 65.2451 316.768 67.1519 316.768 69.5043Z" fill="white"/>
<path fill-rule="evenodd" clip-rule="evenodd" d="M312.22 65.5752C309.872 65.5752 308.002 67.3543 308.002 69.5042C308.002 71.6545 309.864 73.4332 312.22 73.4332C314.568 73.4332 316.438 71.6541 316.438 69.5042C316.438 67.3543 314.568 65.5752 312.22 65.5752ZM307.341 69.5042C307.341 66.9492 309.549 64.9149 312.22 64.9149C314.89 64.9149 317.098 66.9492 317.098 69.5042C317.098 72.0592 314.89 74.0936 312.22 74.0936C309.54 74.0936 307.341 72.0589 307.341 69.5042Z" fill="#2C2C2C"/>
<path d="M309.991 69.2404C309.991 71.1801 311.254 72.7567 312.806 72.7567C314.358 72.7567 315.621 71.1801 315.621 69.2404C315.621 67.3006 314.358 65.7241 312.806 65.7241C311.246 65.7158 309.991 67.2924 309.991 69.2404Z" fill="#50BFD7"/>
<path d="M310.801 69.2404C310.801 70.6188 311.692 71.7332 312.798 71.7332C313.904 71.7332 314.796 70.6188 314.796 69.2404C314.796 67.8619 313.904 66.7393 312.798 66.7393C311.7 66.7393 310.801 67.8537 310.801 69.2404Z" fill="#2C2C2C"/>
<path d="M310.676 66.8711C310.676 67.2508 311.139 67.5479 311.708 67.5479C312.278 67.5479 312.74 67.2425 312.74 66.8711C312.74 66.4914 312.278 66.1942 311.708 66.1942C311.139 66.186 310.676 66.4914 310.676 66.8711Z" fill="white"/>
<path d="M318.072 62.3231C318.072 62.3231 311.931 56.1984 305.328 63.4704C305.319 63.4704 311.031 59.8138 318.072 62.3231Z" fill="#2C2C2C"/>
<path fill-rule="evenodd" clip-rule="evenodd" d="M281.259 66.4006V66.5657H280.599V66.4006H281.259Z" fill="#2C2C2C"/>
<path fill-rule="evenodd" clip-rule="evenodd" d="M284.726 68.2166V68.3817H284.066V68.2166H284.726Z" fill="#2C2C2C"/>
<path d="M303.496 67.2428C304.627 67.4822 304.206 68.2168 304.206 68.3241C304.206 68.4314 304.627 74.5395 310.083 76.1491C315.539 77.7587 318.807 74.5973 319.757 73.0125C320.706 71.4277 321.498 67.6637 321.729 67.3748C321.969 67.0859 323.099 66.5824 323.099 66.5824L323.232 65.1049L321.812 64.684C321.812 64.684 318.229 63.0496 312.955 62.9753C307.689 62.8928 304.709 65.9304 304.709 65.9304C303.223 65.4599 301.383 65.3938 299.699 65.9304C299.699 65.9304 296.719 62.9011 291.453 62.9753C286.187 63.0579 282.596 64.684 282.596 64.684L281.176 65.1049L281.308 66.5824C281.308 66.5824 282.439 67.0859 282.679 67.3748C282.918 67.6637 283.702 71.4359 284.651 73.0125C285.601 74.5973 288.869 77.7587 294.325 76.1491C299.781 74.5395 300.202 68.4314 300.202 68.3241C300.202 68.2168 299.781 67.4822 300.912 67.2428C301.903 67.0364 302.513 67.0364 303.496 67.2428ZM316.595 74.8862C312.435 77.3872 307.449 74.8614 305.947 71.568C304.445 68.2746 305.708 66.5329 305.708 66.5329C308.217 62.4388 318.353 62.2655 320.095 66.6897C320.392 67.4326 320.755 72.3852 316.595 74.8862ZM284.313 66.6897C286.055 62.2572 296.191 62.4388 298.7 66.5329C298.7 66.5329 299.963 68.2746 298.461 71.568C296.958 74.8614 291.981 77.3872 287.813 74.8862C283.661 72.3852 284.024 67.4326 284.313 66.6897Z" fill="#2C2C2C"/>
<path fill-rule="evenodd" clip-rule="evenodd" d="M305.458 87.7638C301.952 85.6562 299.118 86.9077 298.192 87.7113C297.978 87.8975 297.653 87.8746 297.467 87.6602C297.281 87.4458 297.304 87.121 297.518 86.9348C298.738 85.8752 302.055 84.5182 305.988 86.8824C306.232 87.0287 306.31 87.3446 306.164 87.588C306.018 87.8314 305.702 87.9101 305.458 87.7638Z" fill="#2C2C2C"/>
</svg>
