<svg width="378" height="282" viewBox="0 0 378 282" fill="none" xmlns="http://www.w3.org/2000/svg">
<path d="M189.018 237.667C189.018 237.667 246.441 240.352 282.764 175.458C319.086 110.564 276.347 50.8696 210.325 37.9705C144.303 25.0714 111.41 -23.3612 52.5634 13.7137C-6.28285 50.7885 26.4185 248.236 189.018 237.667Z" fill="#70CDE0"/>
<path opacity="0.4" d="M189.018 237.667C189.018 237.667 246.441 240.352 282.764 175.458C319.086 110.564 276.347 50.8696 210.325 37.9705C144.303 25.0714 111.41 -23.3612 52.5634 13.7137C-6.28285 50.7885 26.4185 248.236 189.018 237.667Z" fill="white"/>
<path d="M39.7263 144.014L48.9527 121.756C49.3761 120.741 48.8469 119.918 47.7742 119.918H45.9173C45.7597 119.937 45.5999 119.924 45.4474 119.88C45.2949 119.836 45.1527 119.761 45.0294 119.661C44.9061 119.561 44.8041 119.438 44.7294 119.297C44.6547 119.157 44.6088 119.004 44.5945 118.846L44.5319 118.028C44.517 117.87 44.4707 117.717 44.3957 117.577C44.3208 117.438 44.2186 117.315 44.0954 117.215C43.9721 117.116 43.8302 117.042 43.678 116.998C43.5258 116.954 43.3664 116.941 43.2091 116.96H34.3915C33.6213 116.997 32.8925 117.319 32.3471 117.864L31.6303 118.557C31.0882 119.104 30.36 119.427 29.5907 119.461H18.3583C17.7863 119.493 17.2341 119.681 16.7616 120.006C16.2892 120.33 15.9147 120.777 15.6789 121.299L6.539 144.014H39.7263Z" fill="#51C0D7"/>
<g opacity="0.3">
<path opacity="0.3" d="M39.7263 144.014L48.9527 121.756C49.3761 120.741 48.8469 119.918 47.7742 119.918H45.9173C45.7597 119.937 45.5999 119.924 45.4474 119.88C45.2949 119.836 45.1527 119.761 45.0294 119.661C44.9061 119.561 44.8041 119.438 44.7294 119.297C44.6547 119.157 44.6088 119.004 44.5945 118.846L44.5319 118.028C44.517 117.87 44.4707 117.717 44.3957 117.577C44.3208 117.438 44.2186 117.315 44.0954 117.215C43.9721 117.116 43.8302 117.042 43.678 116.998C43.5258 116.954 43.3664 116.941 43.2091 116.96H34.3915C33.6213 116.997 32.8925 117.319 32.3471 117.864L31.6303 118.557C31.0882 119.104 30.36 119.427 29.5907 119.461H18.3583C17.7863 119.493 17.2341 119.681 16.7616 120.006C16.2892 120.33 15.9147 120.777 15.6789 121.299L6.539 144.014H39.7263Z" fill="black"/>
</g>
<path d="M41.2514 136.452L44.7342 122.983C44.9603 122.098 44.383 121.208 43.5749 121.208H16.3044C16.0265 121.221 15.7609 121.326 15.55 121.507C15.339 121.689 15.1948 121.935 15.1403 122.208L10.0749 142.475C9.8536 143.365 10.2096 143.918 11.037 143.889H38.4565C38.7304 143.872 38.991 143.766 39.198 143.585C39.4051 143.405 39.5469 143.162 39.6014 142.893L41.2514 136.452Z" fill="#E0E0E0"/>
<path d="M39.37 143.403L40.8516 122.238C40.8635 122.06 40.8387 121.882 40.7787 121.714C40.7188 121.546 40.625 121.393 40.5032 121.263C40.3814 121.133 40.2342 121.029 40.0707 120.959C39.9072 120.888 39.7309 120.852 39.5528 120.852H11.2962V143.423L39.37 143.403Z" fill="#EBEBEB"/>
<path d="M39.6822 143.889L36.3148 122.05C36.2368 121.702 36.0419 121.392 35.7626 121.17C35.4834 120.949 35.1367 120.83 34.7803 120.833H6.20142C5.94415 120.829 5.69001 120.889 5.46208 121.009C5.23415 121.128 5.03965 121.303 4.89627 121.516C4.75289 121.73 4.66516 121.976 4.64107 122.232C4.61697 122.488 4.65726 122.746 4.75828 122.983L10.9301 142.994L39.6822 143.889Z" fill="#FAFAFA"/>
<path d="M39.7257 144.005L32.7938 123.551C32.6655 123.138 32.4105 122.777 32.065 122.518C31.7196 122.259 31.3013 122.115 30.8696 122.107H1.40082C1.17356 122.114 0.9511 122.174 0.751554 122.283C0.552008 122.392 0.381027 122.547 0.252544 122.734C0.124061 122.922 0.0417108 123.137 0.012205 123.363C-0.0173009 123.588 0.0068731 123.817 0.082755 124.032L6.52876 144.009L39.7257 144.005Z" fill="#51C0D7"/>
<path d="M171.347 212.435V190H134.653V212.435C134.659 216.279 133.116 219.969 130.363 222.696L122 231H184L175.643 222.696C172.885 219.971 171.34 216.281 171.347 212.435Z" fill="white" stroke="#263238" stroke-width="1.10627" stroke-linecap="round" stroke-linejoin="round"/>
<path opacity="0.44" d="M134.932 190V212.007C134.931 213.713 134.615 215.404 134 217H172C171.388 215.404 171.072 213.713 171.068 212.007V190H134.932Z" fill="#51C0D7"/>
<path d="M171 191H135V208H171V191Z" fill="#263238" stroke="#263238" stroke-width="1.10627" stroke-miterlimit="10"/>
<path d="M184 231H122V232H184V231Z" fill="white" stroke="#263238" stroke-width="1.10627" stroke-linecap="round" stroke-linejoin="round"/>
<path d="M65.428 52H240.534C241.647 51.9992 242.75 52.2189 243.778 52.6467C244.806 53.0745 245.74 53.7019 246.527 54.4929C247.313 55.2839 247.936 56.223 248.361 57.2564C248.785 58.2898 249.002 59.3972 249 60.515V191.807C248.992 194.252 248.017 196.594 246.29 198.318C244.563 200.042 242.225 201.007 239.79 201H66.1783C63.744 201 61.4095 200.029 59.6883 198.3C57.967 196.571 57 194.227 57 191.782V60.4836C57.0033 58.2379 57.8917 56.0848 59.471 54.4951C61.0503 52.9054 63.1921 52.0083 65.428 52Z" fill="#263238" stroke="#263238" stroke-width="1.10627" stroke-miterlimit="10"/>
<path d="M57 184H249V191.912C249 194.322 248.033 196.634 246.312 198.338C244.591 200.042 242.257 201 239.823 201H66.208C63.7742 201 61.4401 200.042 59.7191 198.338C57.9981 196.634 57.0313 194.322 57.0313 191.912V184H57Z" fill="white" stroke="#263238" stroke-width="1.10627" stroke-miterlimit="10"/>
<path d="M241.144 61.4435H65.8132V176.271H241.144V61.4435Z" fill="white" stroke="#263238" stroke-width="0.829701" stroke-linecap="round" stroke-linejoin="round"/>
<path d="M241.144 61.4435H65.8132V98.6551H241.144V61.4435Z" fill="#51C0D7"/>
<path d="M83.6798 168.536H76.6178V107.876H83.6798V168.536ZM97.5228 107.839H90.4992V168.536H97.5612L97.5228 107.839ZM111.372 107.839H104.304V168.536H111.372V107.839ZM125.209 107.839H118.147V168.536H125.209V107.839ZM139.052 107.839H131.99V168.536H139.052V107.839ZM152.889 107.839H145.827V168.536H152.889V107.839ZM166.738 107.839H159.67V168.536H166.738V107.839ZM180.581 107.839H173.519V168.536H180.581V107.839ZM194.418 107.839H187.356V168.536H194.418V107.839ZM208.261 107.839H201.199V168.536H208.261V107.839Z" fill="#51C0D7"/>
<path opacity="0.4" d="M83.6798 168.536H76.6178V107.876H83.6798V168.536ZM97.5228 107.839H90.4992V168.536H97.5612L97.5228 107.839ZM111.372 107.839H104.304V168.536H111.372V107.839ZM125.209 107.839H118.147V168.536H125.209V107.839ZM139.052 107.839H131.99V168.536H139.052V107.839ZM152.889 107.839H145.827V168.536H152.889V107.839ZM166.738 107.839H159.67V168.536H166.738V107.839ZM180.581 107.839H173.519V168.536H180.581V107.839ZM194.418 107.839H187.356V168.536H194.418V107.839ZM208.261 107.839H201.199V168.536H208.261V107.839Z" fill="white"/>
<path d="M120.502 75.3758H74.0758C73.6643 75.3758 73.2697 75.2152 72.9787 74.9293C72.6877 74.6435 72.5242 74.2557 72.5242 73.8515C72.5259 73.4483 72.6901 73.0622 72.9809 72.7776C73.2717 72.4931 73.6654 72.3334 74.0758 72.3334H120.502C120.912 72.3334 121.305 72.4933 121.595 72.778C121.885 73.0627 122.048 73.4488 122.048 73.8515C122.048 74.0513 122.009 74.2494 121.932 74.4343C121.855 74.6192 121.741 74.7873 121.597 74.929C121.454 75.0706 121.283 75.183 121.095 75.2597C120.907 75.3363 120.706 75.3758 120.502 75.3758Z" fill="white" stroke="#263238" stroke-width="0.829701" stroke-linecap="round" stroke-linejoin="round"/>
<path d="M106.455 75.3758H74.0758C73.6643 75.3758 73.2697 75.2152 72.9787 74.9293C72.6877 74.6435 72.5242 74.2557 72.5242 73.8515C72.5259 73.4483 72.6901 73.0622 72.9809 72.7776C73.2717 72.4931 73.6654 72.3334 74.0758 72.3334H106.455V75.3758Z" fill="#263238" stroke="#263238" stroke-width="1.10627" stroke-linecap="round" stroke-linejoin="round"/>
<path d="M120.502 81.3414H74.0758C73.8724 81.3422 73.6708 81.3035 73.4825 81.2276C73.2943 81.1517 73.1232 81.04 72.9791 80.899C72.8349 80.7579 72.7205 80.5903 72.6425 80.4057C72.5644 80.2211 72.5242 80.0232 72.5242 79.8233C72.5242 79.6234 72.5644 79.4255 72.6425 79.2409C72.7205 79.0563 72.8349 78.8887 72.9791 78.7476C73.1232 78.6066 73.2943 78.4949 73.4825 78.419C73.6708 78.343 73.8724 78.3044 74.0758 78.3052H120.502C120.912 78.3052 121.305 78.4652 121.595 78.7498C121.885 79.0345 122.048 79.4207 122.048 79.8233C122.048 80.2259 121.885 80.612 121.595 80.8967C121.305 81.1814 120.912 81.3414 120.502 81.3414Z" fill="white" stroke="#263238" stroke-width="0.829701" stroke-linecap="round" stroke-linejoin="round"/>
<path d="M112.413 81.3414H74.102C73.8985 81.3422 73.6969 81.3035 73.5087 81.2276C73.3205 81.1517 73.1494 81.04 73.0052 80.899C72.861 80.7579 72.7466 80.5903 72.6686 80.4057C72.5905 80.2211 72.5504 80.0232 72.5504 79.8233C72.5504 79.6234 72.5905 79.4255 72.6686 79.2409C72.7466 79.0563 72.861 78.8887 73.0052 78.7476C73.1494 78.6066 73.3205 78.4949 73.5087 78.419C73.6969 78.343 73.8985 78.3044 74.102 78.3052H112.413V81.3414Z" fill="#263238" stroke="#263238" stroke-width="1.10627" stroke-linecap="round" stroke-linejoin="round"/>
<path d="M120.502 87.3448H74.0758C73.8724 87.3456 73.6708 87.307 73.4825 87.231C73.2943 87.1551 73.1232 87.0434 72.9791 86.9024C72.8349 86.7613 72.7205 86.5937 72.6425 86.4091C72.5644 86.2245 72.5242 86.0266 72.5242 85.8267C72.5242 85.4224 72.6877 85.0347 72.9787 84.7488C73.2697 84.463 73.6643 84.3024 74.0758 84.3024H120.502C120.706 84.3024 120.907 84.3418 121.095 84.4185C121.283 84.4952 121.454 84.6076 121.597 84.7492C121.741 84.8908 121.855 85.0589 121.932 85.2438C122.009 85.4287 122.048 85.6268 122.048 85.8267C122.048 86.2293 121.885 86.6155 121.595 86.9002C121.305 87.1848 120.912 87.3448 120.502 87.3448Z" fill="white" stroke="#263238" stroke-width="0.829701" stroke-linecap="round" stroke-linejoin="round"/>
<path d="M98.1735 87.3448H74.0758C73.8724 87.3456 73.6708 87.307 73.4825 87.231C73.2943 87.1551 73.1232 87.0434 72.9791 86.9024C72.8349 86.7613 72.7205 86.5937 72.6425 86.4091C72.5644 86.2245 72.5242 86.0266 72.5242 85.8267C72.5242 85.4224 72.6877 85.0347 72.9787 84.7488C73.2697 84.463 73.6643 84.3024 74.0758 84.3024H98.1735V87.3448Z" fill="#263238" stroke="#263238" stroke-width="1.10627" stroke-linecap="round" stroke-linejoin="round"/>
<path d="M120.502 93.2791H74.0758C73.6654 93.2791 73.2717 93.1194 72.9809 92.8348C72.6901 92.5503 72.5259 92.1642 72.5242 91.761C72.5259 91.3567 72.6897 90.9692 72.9801 90.6827C73.2706 90.3962 73.6642 90.2337 74.0758 90.2304H120.502C120.913 90.2337 121.306 90.3964 121.596 90.6831C121.885 90.9698 122.048 91.3572 122.048 91.761C122.048 92.1636 121.885 92.5498 121.595 92.8345C121.305 93.1191 120.912 93.2791 120.502 93.2791Z" fill="white" stroke="#263238" stroke-width="0.829701" stroke-linecap="round" stroke-linejoin="round"/>
<path d="M118.83 93.2791H74.0758C73.6654 93.2791 73.2717 93.1194 72.9809 92.8348C72.6901 92.5503 72.5259 92.1642 72.5242 91.761C72.5259 91.3567 72.6897 90.9692 72.9801 90.6827C73.2706 90.3962 73.6642 90.2337 74.0758 90.2304H118.83V93.2791Z" fill="#263238" stroke="#263238" stroke-width="1.10627" stroke-linecap="round" stroke-linejoin="round"/>
<path d="M72.8621 168.556H211.989" stroke="#263238" stroke-width="0.829701" stroke-linecap="round" stroke-linejoin="round"/>
<path d="M86.7758 168.555V167.182" stroke="#263238" stroke-width="0.829701" stroke-linecap="round" stroke-linejoin="round"/>
<path d="M100.689 168.555V167.182" stroke="#263238" stroke-width="0.829701" stroke-linecap="round" stroke-linejoin="round"/>
<path d="M114.603 168.555V167.182" stroke="#263238" stroke-width="0.829701" stroke-linecap="round" stroke-linejoin="round"/>
<path d="M128.517 168.555V167.182" stroke="#263238" stroke-width="0.829701" stroke-linecap="round" stroke-linejoin="round"/>
<path d="M142.429 168.555V167.182" stroke="#263238" stroke-width="0.829701" stroke-linecap="round" stroke-linejoin="round"/>
<path d="M156.342 168.555V167.182" stroke="#263238" stroke-width="0.829701" stroke-linecap="round" stroke-linejoin="round"/>
<path d="M170.256 168.555V167.182" stroke="#263238" stroke-width="0.829701" stroke-linecap="round" stroke-linejoin="round"/>
<path d="M184.17 168.555V167.182" stroke="#263238" stroke-width="0.829701" stroke-linecap="round" stroke-linejoin="round"/>
<path d="M198.082 168.555V167.182" stroke="#263238" stroke-width="0.829701" stroke-linecap="round" stroke-linejoin="round"/>
<path d="M211.989 168.555V167.182" stroke="#263238" stroke-width="0.829701" stroke-linecap="round" stroke-linejoin="round"/>
<path d="M72.8621 168.556V163.136V108.052" stroke="#263238" stroke-width="0.829701" stroke-linecap="round" stroke-linejoin="round"/>
<path d="M72.8621 163.136H76.342" stroke="#263238" stroke-width="0.829701" stroke-linecap="round" stroke-linejoin="round"/>
<path d="M72.8621 153.952H76.342" stroke="#263238" stroke-width="0.829701" stroke-linecap="round" stroke-linejoin="round"/>
<path d="M72.8621 144.768H76.342" stroke="#263238" stroke-width="0.829701" stroke-linecap="round" stroke-linejoin="round"/>
<path d="M72.8621 135.597H76.342" stroke="#263238" stroke-width="0.829701" stroke-linecap="round" stroke-linejoin="round"/>
<path d="M72.8621 126.413H76.342" stroke="#263238" stroke-width="0.829701" stroke-linecap="round" stroke-linejoin="round"/>
<path d="M72.8621 117.236H76.342" stroke="#263238" stroke-width="0.829701" stroke-linecap="round" stroke-linejoin="round"/>
<path d="M72.8621 108.052H76.342" stroke="#263238" stroke-width="0.829701" stroke-linecap="round" stroke-linejoin="round"/>
<path d="M237.236 71.1979H214.544V94.1572H237.236V71.1979Z" fill="white" stroke="#263238" stroke-width="0.829701" stroke-linecap="round" stroke-linejoin="round"/>
<path d="M237.236 71.1979H214.544V75.1373H237.236V71.1979Z" fill="#263238" stroke="#263238" stroke-width="1.00786" stroke-linecap="round" stroke-linejoin="round"/>
<path d="M216.625 78.3494V91.391" stroke="#263238" stroke-width="0.829701" stroke-linecap="round" stroke-linejoin="round"/>
<path d="M219.689 78.3494V91.391" stroke="#263238" stroke-width="0.829701" stroke-linecap="round" stroke-linejoin="round"/>
<path d="M222.748 78.3494V91.391" stroke="#263238" stroke-width="0.829701" stroke-linecap="round" stroke-linejoin="round"/>
<path d="M225.814 78.3494V91.391" stroke="#263238" stroke-width="0.829701" stroke-linecap="round" stroke-linejoin="round"/>
<path d="M228.884 78.3494V91.391" stroke="#263238" stroke-width="0.829701" stroke-linecap="round" stroke-linejoin="round"/>
<path d="M231.949 78.3494V91.391" stroke="#263238" stroke-width="0.829701" stroke-linecap="round" stroke-linejoin="round"/>
<path d="M235.015 78.3494V91.391" stroke="#263238" stroke-width="0.829701" stroke-linecap="round" stroke-linejoin="round"/>
<path d="M234.809 80.0555H216.726" stroke="#263238" stroke-width="0.829701" stroke-linecap="round" stroke-linejoin="round"/>
<path d="M234.809 82.4645H216.726" stroke="#263238" stroke-width="0.829701" stroke-linecap="round" stroke-linejoin="round"/>
<path d="M234.809 84.8734H216.726" stroke="#263238" stroke-width="0.829701" stroke-linecap="round" stroke-linejoin="round"/>
<path d="M234.809 87.2819H216.726" stroke="#263238" stroke-width="0.829701" stroke-linecap="round" stroke-linejoin="round"/>
<path d="M234.809 89.6912H216.726" stroke="#263238" stroke-width="0.829701" stroke-linecap="round" stroke-linejoin="round"/>
<path d="M141.287 71.1979C139.116 71.1979 136.994 71.8303 135.189 73.0152C133.384 74.2001 131.977 75.8842 131.146 77.8546C130.315 79.825 130.098 81.9932 130.522 84.0849C130.945 86.1767 131.991 88.0981 133.526 89.6062C135.061 91.1143 137.016 92.1413 139.146 92.5574C141.275 92.9734 143.482 92.7599 145.487 91.9437C147.493 91.1276 149.207 89.7454 150.413 87.9721C151.619 86.1988 152.263 84.114 152.263 81.9812C152.261 79.1218 151.104 76.38 149.046 74.3581C146.988 72.3362 144.197 71.1995 141.287 71.1979ZM141.287 89.5904C139.75 89.5904 138.247 89.1425 136.969 88.3034C135.691 87.4642 134.695 86.2715 134.107 84.8762C133.519 83.4808 133.366 81.9455 133.666 80.4644C133.966 78.9834 134.707 77.6231 135.794 76.5556C136.882 75.4882 138.267 74.7616 139.775 74.4678C141.283 74.1739 142.845 74.326 144.265 74.9048C145.685 75.4835 146.898 76.463 147.751 77.7193C148.604 78.9756 149.059 80.4522 149.058 81.9624C149.058 82.9646 148.857 83.9571 148.466 84.883C148.075 85.8088 147.503 86.65 146.781 87.3584C146.06 88.0668 145.203 88.6286 144.26 89.0116C143.317 89.3945 142.307 89.5912 141.287 89.5904Z" fill="white" stroke="#263238" stroke-width="0.829701" stroke-linecap="round" stroke-linejoin="round"/>
<path d="M141.287 71.1979C139.806 71.1922 138.34 71.4843 136.978 72.056C135.616 72.6278 134.388 73.4672 133.369 74.5227L135.693 76.7119C136.413 75.9654 137.28 75.3715 138.242 74.9669C139.204 74.5623 140.24 74.3556 141.287 74.3596C143.348 74.3596 145.324 75.1639 146.781 76.5956C148.239 78.0273 149.057 79.9691 149.057 81.9938C149.057 84.0186 148.239 85.9604 146.781 87.3921C145.324 88.8238 143.348 89.6281 141.287 89.6281V92.7646C144.197 92.837 147.017 91.7706 149.127 89.8001C151.237 87.8296 152.464 85.1164 152.537 82.2573C152.611 79.3982 151.526 76.6275 149.52 74.5546C147.514 72.4818 144.752 71.2766 141.842 71.2042H141.287V71.1979Z" fill="#263238" stroke="#263238" stroke-width="1.00786" stroke-linecap="round" stroke-linejoin="round"/>
<path d="M138.234 81.4103H144.344" stroke="#263238" stroke-width="0.829701" stroke-linecap="round" stroke-linejoin="round"/>
<path d="M138.234 82.5524H144.344" stroke="#263238" stroke-width="0.829701" stroke-linecap="round" stroke-linejoin="round"/>
<path d="M73.3859 68.9713H79.4965" stroke="#263238" stroke-width="0.829701" stroke-linecap="round" stroke-linejoin="round"/>
<path d="M73.3859 70.1065H79.4965" stroke="#263238" stroke-width="0.829701" stroke-linecap="round" stroke-linejoin="round"/>
<path d="M80.9403 68.9713H87.0509" stroke="#263238" stroke-width="0.829701" stroke-linecap="round" stroke-linejoin="round"/>
<path d="M80.9403 70.1065H87.0509" stroke="#263238" stroke-width="0.829701" stroke-linecap="round" stroke-linejoin="round"/>
<path d="M88.4808 68.9713H94.5914" stroke="#263238" stroke-width="0.829701" stroke-linecap="round" stroke-linejoin="round"/>
<path d="M88.4808 70.1065H94.5914" stroke="#263238" stroke-width="0.829701" stroke-linecap="round" stroke-linejoin="round"/>
<path d="M73.3859 102.356H79.4965" stroke="#263238" stroke-width="0.829701" stroke-linecap="round" stroke-linejoin="round"/>
<path d="M73.3859 103.485H79.4965" stroke="#263238" stroke-width="0.829701" stroke-linecap="round" stroke-linejoin="round"/>
<path d="M80.9403 102.356H87.0509" stroke="#263238" stroke-width="0.829701" stroke-linecap="round" stroke-linejoin="round"/>
<path d="M80.9403 103.485H87.0509" stroke="#263238" stroke-width="0.829701" stroke-linecap="round" stroke-linejoin="round"/>
<path d="M88.4808 102.356H94.5914" stroke="#263238" stroke-width="0.829701" stroke-linecap="round" stroke-linejoin="round"/>
<path d="M88.4808 103.485H94.5914" stroke="#263238" stroke-width="0.829701" stroke-linecap="round" stroke-linejoin="round"/>
<path d="M216.024 108.096H222.135" stroke="#263238" stroke-width="0.829701" stroke-linecap="round" stroke-linejoin="round"/>
<path d="M223.579 108.096H229.689" stroke="#263238" stroke-width="0.829701" stroke-linecap="round" stroke-linejoin="round"/>
<path d="M231.119 108.096H237.23" stroke="#263238" stroke-width="0.829701" stroke-linecap="round" stroke-linejoin="round"/>
<path d="M216.024 109.489H222.135" stroke="#263238" stroke-width="0.829701" stroke-linecap="round" stroke-linejoin="round"/>
<path d="M223.579 109.489H229.689" stroke="#263238" stroke-width="0.829701" stroke-linecap="round" stroke-linejoin="round"/>
<path d="M231.119 109.489H237.23" stroke="#263238" stroke-width="0.829701" stroke-linecap="round" stroke-linejoin="round"/>
<path d="M216.024 110.894H222.135" stroke="#263238" stroke-width="0.829701" stroke-linecap="round" stroke-linejoin="round"/>
<path d="M223.579 110.894H229.689" stroke="#263238" stroke-width="0.829701" stroke-linecap="round" stroke-linejoin="round"/>
<path d="M231.119 110.894H237.23" stroke="#263238" stroke-width="0.829701" stroke-linecap="round" stroke-linejoin="round"/>
<path d="M216.024 112.287H222.135" stroke="#263238" stroke-width="0.829701" stroke-linecap="round" stroke-linejoin="round"/>
<path d="M223.579 112.287H229.689" stroke="#263238" stroke-width="0.829701" stroke-linecap="round" stroke-linejoin="round"/>
<path d="M231.119 112.287H237.23" stroke="#263238" stroke-width="0.829701" stroke-linecap="round" stroke-linejoin="round"/>
<path d="M216.024 113.685H222.135" stroke="#263238" stroke-width="0.829701" stroke-linecap="round" stroke-linejoin="round"/>
<path d="M223.579 113.685H229.689" stroke="#263238" stroke-width="0.829701" stroke-linecap="round" stroke-linejoin="round"/>
<path d="M231.119 113.685H237.23" stroke="#263238" stroke-width="0.829701" stroke-linecap="round" stroke-linejoin="round"/>
<path d="M216.024 115.09H222.135" stroke="#263238" stroke-width="0.829701" stroke-linecap="round" stroke-linejoin="round"/>
<path d="M223.579 115.09H229.689" stroke="#263238" stroke-width="0.829701" stroke-linecap="round" stroke-linejoin="round"/>
<path d="M231.119 115.09H237.23" stroke="#263238" stroke-width="0.829701" stroke-linecap="round" stroke-linejoin="round"/>
<path d="M216.024 116.483H222.135" stroke="#263238" stroke-width="0.829701" stroke-linecap="round" stroke-linejoin="round"/>
<path d="M223.579 116.483H229.689" stroke="#263238" stroke-width="0.829701" stroke-linecap="round" stroke-linejoin="round"/>
<path d="M231.119 116.483H237.23" stroke="#263238" stroke-width="0.829701" stroke-linecap="round" stroke-linejoin="round"/>
<path d="M216.024 117.888H222.135" stroke="#263238" stroke-width="0.829701" stroke-linecap="round" stroke-linejoin="round"/>
<path d="M223.579 117.888H229.689" stroke="#263238" stroke-width="0.829701" stroke-linecap="round" stroke-linejoin="round"/>
<path d="M231.119 117.888H237.23" stroke="#263238" stroke-width="0.829701" stroke-linecap="round" stroke-linejoin="round"/>
<path d="M216.024 119.281H222.135" stroke="#263238" stroke-width="0.829701" stroke-linecap="round" stroke-linejoin="round"/>
<path d="M223.579 119.281H229.689" stroke="#263238" stroke-width="0.829701" stroke-linecap="round" stroke-linejoin="round"/>
<path d="M231.119 119.281H237.23" stroke="#263238" stroke-width="0.829701" stroke-linecap="round" stroke-linejoin="round"/>
<path d="M216.024 120.686H222.135" stroke="#263238" stroke-width="0.829701" stroke-linecap="round" stroke-linejoin="round"/>
<path d="M223.579 120.686H229.689" stroke="#263238" stroke-width="0.829701" stroke-linecap="round" stroke-linejoin="round"/>
<path d="M231.119 120.686H237.23" stroke="#263238" stroke-width="0.829701" stroke-linecap="round" stroke-linejoin="round"/>
<path d="M216.024 122.085H222.135" stroke="#263238" stroke-width="0.829701" stroke-linecap="round" stroke-linejoin="round"/>
<path d="M223.579 122.085H229.689" stroke="#263238" stroke-width="0.829701" stroke-linecap="round" stroke-linejoin="round"/>
<path d="M231.119 122.085H237.23" stroke="#263238" stroke-width="0.829701" stroke-linecap="round" stroke-linejoin="round"/>
<path d="M216.024 123.478H222.135" stroke="#263238" stroke-width="0.829701" stroke-linecap="round" stroke-linejoin="round"/>
<path d="M223.579 123.478H229.689" stroke="#263238" stroke-width="0.829701" stroke-linecap="round" stroke-linejoin="round"/>
<path d="M231.119 123.478H237.23" stroke="#263238" stroke-width="0.829701" stroke-linecap="round" stroke-linejoin="round"/>
<path d="M216.024 124.883H222.135" stroke="#263238" stroke-width="0.829701" stroke-linecap="round" stroke-linejoin="round"/>
<path d="M223.579 124.883H229.689" stroke="#263238" stroke-width="0.829701" stroke-linecap="round" stroke-linejoin="round"/>
<path d="M231.119 124.883H237.23" stroke="#263238" stroke-width="0.829701" stroke-linecap="round" stroke-linejoin="round"/>
<path d="M216.024 126.276H222.135" stroke="#263238" stroke-width="0.829701" stroke-linecap="round" stroke-linejoin="round"/>
<path d="M223.579 126.276H229.689" stroke="#263238" stroke-width="0.829701" stroke-linecap="round" stroke-linejoin="round"/>
<path d="M231.119 126.276H237.23" stroke="#263238" stroke-width="0.829701" stroke-linecap="round" stroke-linejoin="round"/>
<path d="M216.024 127.681H222.135" stroke="#263238" stroke-width="0.829701" stroke-linecap="round" stroke-linejoin="round"/>
<path d="M223.579 127.681H229.689" stroke="#263238" stroke-width="0.829701" stroke-linecap="round" stroke-linejoin="round"/>
<path d="M231.119 127.681H237.23" stroke="#263238" stroke-width="0.829701" stroke-linecap="round" stroke-linejoin="round"/>
<path d="M167.025 71.1979C164.854 71.1966 162.732 71.8278 160.926 73.0117C159.12 74.1956 157.713 75.8789 156.881 77.8488C156.049 79.8187 155.83 81.9868 156.252 84.0788C156.675 86.1708 157.719 88.0928 159.253 89.6017C160.787 91.1107 162.742 92.1388 164.871 92.5561C167 92.9734 169.207 92.7611 171.213 91.9461C173.219 91.1311 174.935 89.75 176.142 87.9773C177.349 86.2047 177.994 84.1202 177.995 81.9875C177.993 79.1286 176.837 76.3871 174.781 74.3643C172.724 72.3416 169.935 71.2028 167.025 71.1979ZM167.025 89.5904C165.488 89.5904 163.985 89.1425 162.707 88.3034C161.429 87.4642 160.433 86.2715 159.845 84.8762C159.257 83.4808 159.104 81.9455 159.404 80.4644C159.705 78.9834 160.445 77.6231 161.533 76.5556C162.62 75.4882 164.005 74.7616 165.513 74.4678C167.021 74.1739 168.584 74.326 170.003 74.9048C171.423 75.4835 172.636 76.463 173.49 77.7193C174.343 78.9756 174.797 80.4522 174.796 81.9624C174.796 82.9646 174.595 83.9571 174.204 84.883C173.814 85.8088 173.241 86.65 172.52 87.3584C171.798 88.0668 170.941 88.6286 169.999 89.0116C169.056 89.3945 168.045 89.5912 167.025 89.5904Z" fill="white" stroke="#263238" stroke-width="0.829701" stroke-linecap="round" stroke-linejoin="round"/>
<path d="M174.579 80.1684L177.612 79.0518C177.089 77.2226 176.082 75.562 174.695 74.2384C173.307 72.9148 171.588 71.9754 169.711 71.5155C167.835 71.0556 165.868 71.0915 164.01 71.6196C162.152 72.1478 160.47 73.1493 159.133 74.5227L161.458 76.712C162.418 75.7259 163.63 75.0116 164.968 74.6439C166.305 74.2762 167.719 74.2687 169.06 74.6221C170.402 74.9755 171.622 75.6768 172.593 76.6526C173.564 77.6284 174.25 78.8427 174.579 80.1684Z" fill="#263238" stroke="#263238" stroke-width="1.00786" stroke-linecap="round" stroke-linejoin="round"/>
<path d="M163.826 81.4103H169.937" stroke="#263238" stroke-width="0.829701" stroke-linecap="round" stroke-linejoin="round"/>
<path d="M163.826 82.5524H169.937" stroke="#263238" stroke-width="0.829701" stroke-linecap="round" stroke-linejoin="round"/>
<path d="M202.609 75.4513C201.295 73.7558 199.498 72.4814 197.446 71.7891C195.394 71.0968 193.179 71.0178 191.082 71.562C188.984 72.1063 187.098 73.2493 185.662 74.8467C184.225 76.444 183.303 78.4239 183.012 80.536C182.721 82.6481 183.074 84.7976 184.026 86.7126C184.979 88.6277 186.488 90.2223 188.363 91.2949C190.237 92.3674 192.394 92.8698 194.559 92.7384C196.724 92.607 198.801 91.8478 200.528 90.5568C201.675 89.6999 202.639 88.6292 203.364 87.406C204.09 86.1827 204.563 84.831 204.756 83.428C204.949 82.0251 204.859 80.5984 204.491 79.2297C204.122 77.861 203.483 76.577 202.609 75.4513ZM187.713 86.5985C186.779 85.3988 186.229 83.9542 186.132 82.4473C186.034 80.9405 186.394 79.4391 187.165 78.133C187.936 76.8268 189.084 75.7747 190.464 75.1096C191.843 74.4444 193.393 74.1962 194.916 74.3962C196.44 74.5962 197.868 75.2355 199.022 76.2332C200.175 77.231 201.002 78.5424 201.397 80.0016C201.792 81.4608 201.737 83.0022 201.24 84.4311C200.744 85.8599 199.827 87.1119 198.606 88.0288C196.967 89.2567 194.9 89.7958 192.858 89.5276C190.816 89.2594 188.965 88.206 187.713 86.5985Z" fill="white" stroke="#263238" stroke-width="0.829701" stroke-linecap="round" stroke-linejoin="round"/>
<path d="M199.903 86.7614L202.648 88.4614C203.81 86.943 204.544 85.15 204.774 83.2637C205.004 81.3775 204.723 79.465 203.959 77.7199C203.194 75.9748 201.975 74.4589 200.423 73.3258C198.871 72.1926 197.041 71.4824 195.12 71.267L194.75 74.4035C196.126 74.5647 197.433 75.0843 198.536 75.9087C199.638 76.7331 200.497 77.8321 201.022 79.092C201.546 80.3518 201.719 81.7267 201.521 83.0741C201.323 84.4214 200.762 85.6924 199.896 86.7551L199.903 86.7614Z" fill="#263238" stroke="#263238" stroke-width="1.00786" stroke-linecap="round" stroke-linejoin="round"/>
<path d="M190.675 81.4103H196.785" stroke="#263238" stroke-width="0.829701" stroke-linecap="round" stroke-linejoin="round"/>
<path d="M190.675 82.5524H196.785" stroke="#263238" stroke-width="0.829701" stroke-linecap="round" stroke-linejoin="round"/>
<path d="M235.103 150.866C233.788 149.17 231.991 147.896 229.94 147.203C227.888 146.511 225.673 146.432 223.575 146.976C221.478 147.521 219.592 148.664 218.155 150.261C216.719 151.858 215.797 153.838 215.506 155.95C215.215 158.062 215.568 160.212 216.52 162.127C217.473 164.042 218.982 165.637 220.856 166.709C222.731 167.782 224.887 168.284 227.053 168.153C229.218 168.021 231.295 167.262 233.021 165.971C234.168 165.114 235.131 164.043 235.856 162.82C236.581 161.596 237.054 160.245 237.247 158.842C237.44 157.439 237.351 156.013 236.983 154.644C236.615 153.276 235.976 151.992 235.103 150.866ZM220.206 162C219.275 160.799 218.727 159.354 218.631 157.847C218.536 156.341 218.897 154.84 219.67 153.535C220.442 152.229 221.592 151.179 222.972 150.515C224.352 149.852 225.902 149.605 227.425 149.807C228.948 150.009 230.376 150.65 231.528 151.649C232.681 152.648 233.506 153.96 233.899 155.419C234.292 156.879 234.236 158.42 233.738 159.848C233.24 161.276 232.321 162.527 231.099 163.443C230.288 164.051 229.362 164.496 228.375 164.753C227.389 165.01 226.36 165.073 225.349 164.939C224.337 164.805 223.362 164.476 222.48 163.972C221.598 163.468 220.825 162.798 220.206 162Z" fill="#51C0D7" stroke="#263238" stroke-width="1.10627" stroke-linecap="round" stroke-linejoin="round"/>
<path d="M232.39 162.176L235.142 163.87C236.304 162.352 237.038 160.56 237.268 158.675C237.499 156.789 237.218 154.877 236.455 153.133C235.691 151.388 234.472 149.873 232.921 148.74C231.369 147.607 229.541 146.897 227.62 146.682L227.25 149.818C228.626 149.978 229.934 150.498 231.037 151.322C232.14 152.147 232.999 153.246 233.523 154.507C234.048 155.767 234.219 157.142 234.02 158.49C233.821 159.838 233.258 161.108 232.39 162.17V162.176Z" fill="#263238" stroke="#263238" stroke-width="1.00786" stroke-linecap="round" stroke-linejoin="round"/>
<path d="M223.17 156.825H229.281" stroke="#263238" stroke-width="0.829701" stroke-linecap="round" stroke-linejoin="round"/>
<path d="M223.17 157.954H229.281" stroke="#263238" stroke-width="0.829701" stroke-linecap="round" stroke-linejoin="round"/>
<path d="M67.1671 78.0731L65.3984 74.1337" stroke="#263238" stroke-width="0.553134" stroke-linecap="round" stroke-linejoin="round"/>
<path d="M68.1632 77.9354L66.701 73.2243" stroke="#263238" stroke-width="0.553134" stroke-linecap="round" stroke-linejoin="round"/>
<path d="M126.428 62.8612L123.357 57.5542" stroke="#263238" stroke-width="0.553134" stroke-linecap="round" stroke-linejoin="round"/>
<path d="M126.339 60.9415L124.941 58.0119" stroke="#263238" stroke-width="0.553134" stroke-linecap="round" stroke-linejoin="round"/>
<path d="M13.727 233.348H2.35938" stroke="#2C2C2C" stroke-width="0.75" stroke-miterlimit="10" stroke-linecap="round"/>
<path d="M301.533 233.348H19.9257" stroke="#2C2C2C" stroke-width="0.75" stroke-miterlimit="10" stroke-linecap="round"/>
<path d="M323.235 233.348H305.15" stroke="#2C2C2C" stroke-width="0.75" stroke-miterlimit="10" stroke-linecap="round"/>
<path d="M41.0232 191.514L25.4518 251.001H60.1797L44.6083 191.514C44.5136 191.11 44.285 190.749 43.9596 190.491C43.6342 190.233 43.2311 190.093 42.8157 190.093C42.4004 190.093 41.9973 190.233 41.6719 190.491C41.3465 190.749 41.1179 191.11 41.0232 191.514Z" fill="#2E9DB6" stroke="#2C2C2C" stroke-linecap="round" stroke-linejoin="round"/>
<path d="M25.4518 251.001H53.7448L39.5983 196.951L25.4518 251.001Z" fill="#2C2C2C" stroke="#2C2C2C" stroke-linecap="round" stroke-linejoin="round"/>
<path d="M63.685 249.696H20.3677C19.1086 249.696 18.0879 250.717 18.0879 251.976V252.267C18.0879 253.526 19.1086 254.546 20.3677 254.546H63.685C64.9441 254.546 65.9649 253.526 65.9649 252.267V251.976C65.9649 250.717 64.9441 249.696 63.685 249.696Z" fill="#2E9DB6" stroke="#2C2C2C" stroke-linecap="round" stroke-linejoin="round"/>
<path d="M48.8602 249.696H20.3677C19.1086 249.696 18.0879 250.717 18.0879 251.976V252.267C18.0879 253.526 19.1086 254.546 20.3677 254.546H48.8602C50.1194 254.546 51.1401 253.526 51.1401 252.267V251.976C51.1401 250.717 50.1194 249.696 48.8602 249.696Z" fill="#2C2C2C" stroke="#2C2C2C" stroke-linecap="round" stroke-linejoin="round"/>
<path d="M31.6651 227.274H53.9678L51.2719 216.969H34.361L31.6651 227.274Z" fill="white" stroke="#2C2C2C" stroke-linecap="round" stroke-linejoin="round"/>
<path d="M31.6651 227.274H47.5386L44.8427 216.969H34.361L31.6651 227.274Z" fill="#BABABA" stroke="#2C2C2C" stroke-linecap="round" stroke-linejoin="round"/>
<path d="M275.32 66.7931C274.035 72.0923 276.926 91.3621 281.663 98.6526C281.663 98.6526 295.392 107.565 338.276 102.507C338.276 102.507 331.339 100.291 337.834 74.8784C337.971 74.3324 338.115 73.7864 338.268 73.2164C339.151 69.9244 332.688 64.28 331.523 62.2968C323.133 48.0612 275.32 66.7931 275.32 66.7931Z" fill="#2C2C2C"/>
<path d="M317.15 160.846C317.15 160.846 309.988 161.689 308.487 161.689C308.471 161.689 308.455 161.689 308.439 161.689C308.431 161.689 308.423 161.689 308.415 161.689C308.407 161.689 308.399 161.689 308.391 161.689C308.374 161.689 308.358 161.689 308.342 161.689C306.833 161.689 299.679 160.846 299.679 160.846C290.132 163.857 290.815 177.787 290.823 178.181C290.887 181.055 290.927 183.937 290.999 186.812C291.168 193.58 292.894 213.854 293.336 220.301C293.376 220.831 293.4 221.273 293.416 221.602C294.139 236.07 294.853 250.539 295.576 265.007C295.64 266.276 295.705 267.553 295.769 268.821C295.769 268.821 299.125 270.909 305.709 268.821L305.765 221.827L307.596 186.908C307.596 186.908 307.933 186.86 308.334 186.82C308.358 186.82 308.382 186.828 308.415 186.828V186.836C308.423 186.836 308.431 186.836 308.439 186.836C308.447 186.836 308.455 186.836 308.463 186.836V186.828C308.487 186.828 308.511 186.82 308.543 186.82C308.945 186.86 309.282 186.908 309.282 186.908L311.112 221.827L311.169 268.821C317.752 270.909 321.109 268.821 321.109 268.821C321.173 267.553 321.237 266.276 321.301 265.007C322.024 250.539 322.73 236.07 323.461 221.602C323.477 221.273 323.501 220.831 323.541 220.301C323.975 213.862 325.709 193.58 325.878 186.812C325.95 183.937 325.99 181.055 326.055 178.181C326.014 177.787 326.689 163.857 317.15 160.846Z" fill="#2C2C2C"/>
<path d="M261.063 132.608C261.063 132.608 259.124 131.167 258.778 129.732C258.424 128.294 258.146 127.604 255.807 125.021C253.49 122.448 253.083 120.29 253.083 120.29C253.083 120.29 250.227 121.227 253.7 125.354C255.824 127.884 246.994 123.659 244.445 122.144C244.445 122.144 242.51 122.291 244.515 124.696C246.52 127.102 244.004 126.078 248.118 130.522C252.221 134.97 257.746 138.827 260.362 136.319C262.971 133.807 261.063 132.608 261.063 132.608Z" fill="#E0E0E0"/>
<path fill-rule="evenodd" clip-rule="evenodd" d="M253.084 120.29L252.984 119.985L253.332 119.871L253.4 120.23L253.4 120.23L253.4 120.23L253.4 120.233C253.401 120.235 253.402 120.24 253.403 120.247C253.406 120.261 253.411 120.282 253.418 120.311C253.433 120.37 253.456 120.458 253.491 120.573C253.562 120.804 253.68 121.141 253.87 121.558C254.249 122.392 254.912 123.546 256.046 124.806C257.217 126.099 257.889 126.937 258.313 127.641C258.743 128.356 258.911 128.925 259.091 129.656L259.091 129.656L259.091 129.657C259.242 130.284 259.759 130.951 260.281 131.484C260.536 131.745 260.781 131.962 260.962 132.115C261.053 132.191 261.127 132.251 261.178 132.291C261.204 132.311 261.224 132.327 261.237 132.337C261.242 132.34 261.246 132.343 261.249 132.346C261.252 132.348 261.255 132.35 261.259 132.352C261.262 132.355 261.266 132.357 261.27 132.36C261.288 132.373 261.312 132.391 261.342 132.414C261.399 132.461 261.477 132.529 261.559 132.619C261.722 132.798 261.912 133.073 262.004 133.445C262.193 134.214 261.933 135.253 260.586 136.55L260.585 136.551C259.851 137.255 258.918 137.501 257.897 137.417C256.885 137.334 255.776 136.926 254.645 136.311C252.382 135.082 249.947 132.978 247.883 130.74C245.823 128.515 245.369 127.606 245.213 126.916C245.186 126.794 245.167 126.677 245.151 126.575C245.146 126.541 245.14 126.509 245.135 126.478C245.114 126.351 245.09 126.235 245.043 126.104C244.95 125.842 244.758 125.488 244.269 124.902C243.754 124.285 243.468 123.784 243.35 123.371C243.229 122.946 243.283 122.599 243.465 122.336C243.636 122.087 243.889 121.963 244.071 121.901C244.165 121.869 244.249 121.85 244.31 121.839C244.341 121.833 244.367 121.83 244.386 121.828C244.395 121.826 244.403 121.826 244.409 121.825C244.412 121.825 244.415 121.824 244.417 121.824L244.419 121.824L244.42 121.824L244.421 121.824C244.421 121.824 244.421 121.824 244.446 122.144L244.421 121.824L244.523 121.816L244.61 121.868C245.869 122.617 248.7 124.045 250.948 124.969C252.083 125.436 253.028 125.756 253.545 125.814C253.584 125.818 253.619 125.821 253.648 125.822C253.607 125.755 253.545 125.669 253.455 125.561C251.697 123.472 251.447 122.08 251.789 121.162C251.958 120.711 252.256 120.418 252.506 120.239C252.631 120.15 252.746 120.088 252.831 120.048C252.874 120.028 252.91 120.013 252.936 120.002C252.949 119.997 252.96 119.993 252.968 119.99C252.972 119.989 252.975 119.988 252.978 119.987L252.982 119.986L252.983 119.985L252.984 119.985C252.984 119.985 252.984 119.985 253.084 120.29ZM244.382 122.479C244.352 122.486 244.316 122.496 244.279 122.509C244.16 122.549 244.054 122.612 243.993 122.701C243.942 122.775 243.888 122.915 243.968 123.195C244.051 123.485 244.275 123.905 244.762 124.491C245.276 125.107 245.521 125.528 245.649 125.889C245.713 126.07 245.744 126.227 245.769 126.372C245.776 126.414 245.782 126.454 245.788 126.492C245.803 126.588 245.817 126.675 245.84 126.774C245.955 127.284 246.301 128.085 248.355 130.304L248.355 130.304C250.394 132.514 252.773 134.563 254.952 135.747C256.042 136.339 257.061 136.704 257.95 136.777C258.829 136.849 259.567 136.637 260.141 136.087C261.402 134.873 261.492 134.056 261.38 133.598C261.32 133.357 261.196 133.175 261.084 133.051C261.028 132.99 260.976 132.945 260.94 132.916C260.922 132.901 260.908 132.891 260.9 132.885C260.896 132.882 260.893 132.88 260.892 132.88C260.891 132.879 260.891 132.879 260.891 132.879L260.882 132.874L260.872 132.866L261.064 132.608C260.872 132.866 260.872 132.866 260.872 132.866L260.872 132.866L260.87 132.865L260.865 132.861C260.861 132.858 260.855 132.853 260.847 132.847C260.832 132.835 260.81 132.818 260.781 132.796C260.725 132.752 260.645 132.688 260.549 132.607C260.356 132.444 260.095 132.212 259.822 131.933C259.288 131.387 258.662 130.616 258.467 129.808C258.293 129.102 258.144 128.606 257.762 127.972C257.374 127.325 256.738 126.527 255.57 125.237L255.569 125.236C254.387 123.923 253.689 122.712 253.285 121.824C253.084 121.38 252.956 121.018 252.878 120.763C252.701 120.89 252.502 121.088 252.391 121.387C252.174 121.969 252.232 123.11 253.946 125.148L253.947 125.148C254.087 125.315 254.197 125.471 254.265 125.614C254.328 125.746 254.385 125.928 254.321 126.111C254.249 126.317 254.071 126.406 253.929 126.44C253.789 126.473 253.63 126.47 253.473 126.452C252.853 126.383 251.829 126.026 250.704 125.563C248.487 124.652 245.715 123.259 244.382 122.479ZM244.471 122.464C244.472 122.464 244.472 122.464 244.472 122.464L244.471 122.464Z" fill="#2C2C2C"/>
<path d="M290.798 120.55C290.798 120.55 284.651 153.029 281.638 154.861C279.213 156.339 271.365 149.57 261.021 140.437C259.882 139.371 258.51 137.743 258.51 137.743L260.824 129.001L263.398 131.709L275.627 141.919C275.627 141.919 280.749 115.428 285.592 114.947C290.442 114.457 290.798 120.55 290.798 120.55Z" fill="#2C2C2C"/>
<path d="M355.87 132.608C355.87 132.608 357.809 131.167 358.156 129.732C358.51 128.294 358.788 127.604 361.126 125.021C363.443 122.448 363.85 120.29 363.85 120.29C363.85 120.29 366.706 121.227 363.234 125.354C361.109 127.884 369.94 123.659 372.489 122.144C372.489 122.144 374.423 122.291 372.419 124.696C370.414 127.102 372.929 126.078 368.815 130.522C364.712 134.97 359.187 138.827 356.571 136.319C353.963 133.806 355.87 132.608 355.87 132.608Z" fill="#E0E0E0"/>
<path fill-rule="evenodd" clip-rule="evenodd" d="M363.849 120.29L363.949 119.985L363.601 119.871L363.534 120.23L363.534 120.23L363.533 120.23L363.533 120.233C363.532 120.235 363.531 120.24 363.53 120.247C363.527 120.261 363.522 120.282 363.515 120.311C363.501 120.37 363.477 120.458 363.442 120.573C363.372 120.803 363.253 121.141 363.064 121.558C362.685 122.392 362.021 123.546 360.887 124.806C359.716 126.099 359.044 126.937 358.621 127.641C358.19 128.356 358.023 128.925 357.843 129.655L357.843 129.656L357.843 129.657C357.691 130.284 357.174 130.95 356.653 131.484C356.398 131.744 356.152 131.962 355.971 132.115C355.88 132.191 355.806 132.251 355.755 132.291C355.729 132.311 355.71 132.327 355.696 132.337C355.692 132.34 355.688 132.343 355.685 132.345C355.682 132.347 355.678 132.35 355.675 132.352C355.671 132.355 355.668 132.357 355.664 132.36C355.645 132.373 355.621 132.391 355.592 132.414C355.534 132.46 355.457 132.528 355.375 132.619C355.211 132.798 355.021 133.073 354.93 133.445C354.741 134.214 355 135.253 356.348 136.55L356.348 136.551C357.082 137.255 358.016 137.501 359.037 137.417C360.048 137.334 361.157 136.926 362.288 136.311C364.552 135.081 366.986 132.978 369.051 130.74C371.11 128.515 371.564 127.606 371.72 126.916C371.748 126.794 371.766 126.677 371.783 126.575C371.788 126.541 371.793 126.508 371.798 126.478C371.819 126.351 371.844 126.235 371.89 126.104C371.983 125.842 372.176 125.488 372.664 124.902C373.179 124.284 373.465 123.784 373.583 123.371C373.705 122.946 373.65 122.599 373.469 122.335C373.297 122.087 373.044 121.963 372.863 121.901C372.769 121.869 372.684 121.85 372.623 121.839C372.592 121.833 372.567 121.83 372.548 121.827C372.538 121.826 372.53 121.825 372.524 121.825C372.521 121.825 372.519 121.824 372.517 121.824L372.514 121.824L372.513 121.824L372.512 121.824C372.512 121.824 372.512 121.824 372.488 122.144L372.512 121.824L372.411 121.816L372.324 121.868C371.064 122.616 368.234 124.045 365.986 124.969C364.85 125.436 363.906 125.756 363.388 125.814C363.349 125.818 363.315 125.821 363.286 125.822C363.326 125.755 363.388 125.669 363.479 125.561C365.236 123.472 365.487 122.08 365.144 121.162C364.976 120.711 364.677 120.417 364.428 120.239C364.303 120.15 364.187 120.088 364.102 120.048C364.059 120.028 364.024 120.013 363.998 120.002C363.984 119.997 363.974 119.993 363.965 119.99C363.961 119.989 363.958 119.988 363.955 119.987L363.952 119.985L363.95 119.985L363.95 119.985C363.949 119.985 363.949 119.985 363.849 120.29ZM372.551 122.479C372.582 122.486 372.617 122.496 372.655 122.508C372.773 122.549 372.879 122.612 372.94 122.701C372.992 122.775 373.045 122.915 372.966 123.194C372.883 123.485 372.659 123.905 372.171 124.491C371.657 125.107 371.413 125.527 371.285 125.889C371.221 126.07 371.189 126.227 371.165 126.372C371.158 126.414 371.151 126.454 371.145 126.492C371.13 126.588 371.116 126.675 371.094 126.774C370.978 127.284 370.633 128.085 368.579 130.304L368.579 130.304C366.54 132.514 364.16 134.563 361.981 135.747C360.891 136.339 359.872 136.704 358.984 136.777C358.105 136.849 357.367 136.637 356.793 136.087C355.532 134.873 355.441 134.056 355.554 133.598C355.613 133.357 355.737 133.175 355.85 133.051C355.906 132.99 355.957 132.944 355.993 132.916C356.011 132.901 356.025 132.891 356.034 132.885C356.038 132.882 356.041 132.88 356.042 132.879C356.042 132.879 356.043 132.879 356.042 132.879L356.051 132.874L356.061 132.866L355.869 132.608C356.061 132.866 356.061 132.866 356.061 132.866L356.061 132.866L356.063 132.864L356.068 132.861C356.072 132.858 356.079 132.853 356.086 132.847C356.102 132.835 356.124 132.818 356.152 132.796C356.208 132.752 356.288 132.688 356.385 132.606C356.578 132.444 356.839 132.212 357.112 131.933C357.646 131.387 358.272 130.615 358.467 129.808C358.641 129.101 358.79 128.606 359.171 127.972C359.56 127.325 360.196 126.527 361.364 125.237L361.364 125.236C362.546 123.923 363.245 122.712 363.648 121.823C363.85 121.38 363.978 121.018 364.056 120.763C364.233 120.89 364.431 121.088 364.542 121.387C364.76 121.969 364.702 123.109 362.987 125.147L362.987 125.148C362.846 125.315 362.737 125.471 362.669 125.613C362.605 125.746 362.549 125.928 362.613 126.111C362.684 126.317 362.863 126.406 363.005 126.44C363.144 126.473 363.303 126.47 363.46 126.452C364.08 126.382 365.105 126.026 366.23 125.563C368.446 124.652 371.219 123.259 372.551 122.479ZM372.462 122.464C372.461 122.464 372.461 122.464 372.461 122.464L372.462 122.464Z" fill="#2C2C2C"/>
<path d="M326.136 120.55C326.136 120.55 332.283 153.029 335.296 154.861C337.721 156.339 345.569 149.569 355.913 140.437C357.053 139.371 358.424 137.743 358.424 137.743L356.11 129.001L353.536 131.709L341.307 141.919C341.307 141.919 336.185 115.428 331.342 114.946C326.492 114.457 326.136 120.55 326.136 120.55Z" fill="#2C2C2C"/>
<path d="M338.902 120.757C338.902 125.879 335.546 129.051 330.423 129.051C325.301 129.051 321.15 124.9 321.15 119.777C321.15 114.655 325.02 109.002 329.901 110.536C335.281 112.214 338.902 115.634 338.902 120.757Z" fill="white"/>
<path fill-rule="evenodd" clip-rule="evenodd" d="M323.94 112.868C322.414 114.669 321.471 117.288 321.471 119.777C321.471 124.722 325.478 128.729 330.423 128.729C332.918 128.729 334.952 127.958 336.36 126.594C337.767 125.231 338.581 123.246 338.581 120.757C338.581 115.83 335.113 112.497 329.806 110.842L329.805 110.842C327.524 110.125 325.462 111.072 323.94 112.868ZM329.997 110.229C327.398 109.412 325.084 110.525 323.45 112.453C321.821 114.375 320.829 117.143 320.829 119.777C320.829 125.077 325.124 129.372 330.423 129.372C333.051 129.372 335.257 128.557 336.807 127.055C338.359 125.552 339.223 123.39 339.223 120.757C339.223 115.438 335.45 111.93 329.997 110.229Z" fill="#2C2C2C"/>
<path d="M334.735 119.263C334.735 123.053 332.254 125.397 328.464 125.397C324.675 125.397 321.607 122.33 321.607 118.541C321.607 114.751 324.466 110.568 328.087 111.7C332.053 112.952 334.735 115.481 334.735 119.263Z" fill="#2C2C2C"/>
<path d="M276.676 120.757C276.676 125.879 280.032 129.051 285.155 129.051C290.278 129.051 294.421 124.892 294.421 119.777C294.421 114.663 290.551 109.002 285.669 110.536C280.297 112.214 276.676 115.634 276.676 120.757Z" fill="white"/>
<path fill-rule="evenodd" clip-rule="evenodd" d="M292.12 112.456C293.75 114.379 294.742 117.147 294.742 119.777C294.742 125.068 290.456 129.372 285.155 129.372C282.527 129.372 280.322 128.557 278.771 127.055C277.22 125.552 276.355 123.39 276.355 120.757C276.355 115.439 280.129 111.93 285.573 110.229C288.173 109.412 290.487 110.527 292.12 112.456ZM291.63 112.871C290.109 111.074 288.047 110.125 285.765 110.842L285.765 110.842C280.466 112.497 276.997 115.83 276.997 120.757C276.997 123.246 277.811 125.231 279.218 126.594C280.626 127.958 282.66 128.73 285.155 128.73C290.1 128.73 294.099 124.715 294.099 119.777C294.099 117.292 293.157 114.673 291.63 112.871Z" fill="#2C2C2C"/>
<path d="M280.851 119.263C280.851 123.053 283.332 125.397 287.122 125.397C290.912 125.397 293.979 122.33 293.979 118.541C293.979 114.751 291.12 110.568 287.507 111.7C283.525 112.952 280.851 115.481 280.851 119.263Z" fill="#2C2C2C"/>
<path d="M319.463 161.858C313.666 161.328 307.941 161.111 307.941 161.111C305.837 161.175 301.357 161.36 296.732 161.858C298.081 166.467 302.658 169.863 308.094 169.863C313.537 169.871 318.114 166.458 319.463 161.858Z" fill="#50BFD7"/>
<path d="M318.99 162.339C319.488 160.38 329.452 110.455 329.452 110.455C329.452 110.455 302.86 102.603 285.854 110.455L296.758 162.773L318.99 162.339Z" fill="white"/>
<path fill-rule="evenodd" clip-rule="evenodd" d="M329.542 110.147C329.542 110.147 329.543 110.148 329.452 110.456C329.767 110.518 329.766 110.519 329.766 110.519L329.766 110.521L329.654 111.08C329.581 111.446 329.474 111.983 329.337 112.668C329.064 114.036 328.673 115.994 328.202 118.35C327.26 123.061 325.999 129.363 324.722 135.726C322.171 148.443 319.552 161.429 319.301 162.419L319.241 162.656L296.497 163.1L285.487 110.271L285.719 110.164C294.304 106.2 305.277 106.208 314.065 107.192C318.466 107.684 322.333 108.422 325.101 109.038C326.484 109.346 327.593 109.623 328.357 109.823C328.739 109.923 329.035 110.004 329.235 110.06C329.335 110.088 329.412 110.11 329.464 110.125C329.489 110.132 329.509 110.138 329.522 110.142L329.537 110.146L329.541 110.147L329.542 110.147ZM329.452 110.456L329.767 110.518L329.824 110.231L329.543 110.148L329.452 110.456ZM329.079 110.683C329.073 110.682 329.068 110.68 329.062 110.679C328.865 110.623 328.573 110.543 328.194 110.444C327.437 110.246 326.336 109.971 324.961 109.665C322.211 109.053 318.367 108.319 313.994 107.83C305.315 106.859 294.607 106.859 286.22 110.641L297.017 162.447L318.734 162.023C319.188 159.983 321.666 147.691 324.092 135.6C325.369 129.237 326.63 122.935 327.572 118.224C328.043 115.868 328.434 113.911 328.708 112.542C328.844 111.857 328.951 111.32 329.025 110.954L329.079 110.683Z" fill="black"/>
<path d="M318.99 162.339C319.488 160.38 329.452 110.455 329.452 110.455C329.452 110.455 302.86 102.603 285.854 110.455L296.758 162.773L318.99 162.339Z" fill="white"/>
<path fill-rule="evenodd" clip-rule="evenodd" d="M329.542 110.147C329.542 110.147 329.543 110.148 329.452 110.456C329.767 110.518 329.766 110.519 329.766 110.519L329.766 110.521L329.654 111.08C329.581 111.446 329.474 111.983 329.337 112.668C329.064 114.036 328.673 115.994 328.202 118.35C327.26 123.061 325.999 129.363 324.722 135.726C322.171 148.443 319.552 161.429 319.301 162.419L319.241 162.656L296.497 163.1L285.487 110.271L285.719 110.164C294.304 106.2 305.277 106.208 314.065 107.192C318.466 107.684 322.333 108.422 325.101 109.038C326.484 109.346 327.593 109.623 328.357 109.823C328.739 109.923 329.035 110.004 329.235 110.06C329.335 110.088 329.412 110.11 329.464 110.125C329.489 110.132 329.509 110.138 329.522 110.142L329.537 110.146L329.541 110.147L329.542 110.147ZM329.452 110.456L329.767 110.518L329.824 110.231L329.543 110.148L329.452 110.456ZM329.079 110.683C329.073 110.682 329.068 110.68 329.062 110.679C328.865 110.623 328.573 110.543 328.194 110.444C327.437 110.246 326.336 109.971 324.961 109.665C322.211 109.053 318.367 108.319 313.994 107.83C305.315 106.859 294.607 106.859 286.22 110.641L297.017 162.447L318.734 162.023C319.188 159.983 321.666 147.691 324.092 135.6C325.369 129.237 326.63 122.935 327.572 118.224C328.043 115.868 328.434 113.911 328.708 112.542C328.844 111.857 328.951 111.32 329.025 110.954L329.079 110.683Z" fill="#2C2C2C"/>
<path d="M322.997 108.922C315.57 107.428 303.012 105.726 292.221 108.295C293.498 116.349 294.774 124.41 296.051 132.463C297.079 137.923 302.258 141.56 307.661 141.592C313.065 141.56 318.243 137.931 319.271 132.463C320.508 124.611 321.752 116.766 322.997 108.922Z" fill="#50BFD7"/>
<path fill-rule="evenodd" clip-rule="evenodd" d="M292.146 107.983C303.008 105.397 315.623 107.111 323.06 108.607L323.362 108.667L323.313 108.977C322.069 116.82 320.824 124.662 319.588 132.513L319.587 132.517L319.587 132.522C318.526 138.165 313.194 141.88 307.663 141.913L307.661 141.913L307.659 141.913C302.127 141.88 296.796 138.157 295.735 132.522L295.734 132.518L295.734 132.513C295.095 128.487 294.457 124.459 293.819 120.43L293.819 120.429C293.18 116.401 292.542 112.372 291.904 108.345L291.857 108.052L292.146 107.983ZM292.585 108.54C293.207 112.468 293.83 116.398 294.453 120.328L294.453 120.329C295.091 124.356 295.729 128.383 296.367 132.408C297.364 137.689 302.387 141.239 307.661 141.271C312.934 141.239 317.958 137.697 318.954 132.408C320.175 124.659 321.403 116.917 322.631 109.176C315.248 107.714 303.095 106.119 292.585 108.54Z" fill="#2C2C2C"/>
<path d="M306.737 111.772C309.274 111.772 313.216 111.001 313.216 108.472L312.566 100.025L311.996 92.6385C311.996 90.1013 309.94 88.0538 307.411 88.0538C306.143 88.0538 305.002 88.5677 304.167 89.3947C303.34 90.2217 302.818 91.3699 302.818 92.6385L302.256 100.033L301.718 107.123C300.996 111.402 306.737 111.772 306.737 111.772Z" fill="#2C2C2C"/>
<path d="M321.575 45.0102C317.777 40.3373 312.47 37.519 305.661 37.519C290.237 37.519 275.159 51.7386 275.159 69.4749C275.159 87.2112 287.66 101.591 303.084 101.591C304.569 101.591 306.006 101.463 307.387 101.206C307.532 101.985 307.612 102.788 307.612 103.607C307.612 103.759 307.604 103.904 307.604 104.048C350.126 93.7549 343.165 42.3847 321.575 45.0102Z" fill="#2C2C2C"/>
<path d="M288.415 87.3875C291.276 87.3875 293.594 85.0689 293.594 82.2087C293.594 79.3485 291.276 77.0299 288.415 77.0299C285.555 77.0299 283.237 79.3485 283.237 82.2087C283.237 85.0689 285.555 87.3875 288.415 87.3875Z" fill="#E0E0E0"/>
<path fill-rule="evenodd" clip-rule="evenodd" d="M288.414 77.3512C285.731 77.3512 283.556 79.526 283.556 82.2088C283.556 84.8916 285.731 87.0664 288.414 87.0664C291.097 87.0664 293.272 84.8916 293.272 82.2088C293.272 79.526 291.097 77.3512 288.414 77.3512ZM282.914 82.2088C282.914 79.1713 285.377 76.7089 288.414 76.7089C291.452 76.7089 293.914 79.1713 293.914 82.2088C293.914 85.2464 291.452 87.7088 288.414 87.7088C285.377 87.7088 282.914 85.2464 282.914 82.2088Z" fill="#2C2C2C"/>
<path d="M324.883 87.3875C327.743 87.3875 330.062 85.0689 330.062 82.2087C330.062 79.3485 327.743 77.0299 324.883 77.0299C322.023 77.0299 319.704 79.3485 319.704 82.2087C319.704 85.0689 322.023 87.3875 324.883 87.3875Z" fill="#E0E0E0"/>
<path fill-rule="evenodd" clip-rule="evenodd" d="M324.883 77.3512C322.2 77.3512 320.026 79.526 320.026 82.2088C320.026 84.8916 322.2 87.0664 324.883 87.0664C327.566 87.0664 329.741 84.8916 329.741 82.2088C329.741 79.526 327.566 77.3512 324.883 77.3512ZM319.383 82.2088C319.383 79.1713 321.846 76.7089 324.883 76.7089C327.921 76.7089 330.383 79.1713 330.383 82.2088C330.383 85.2464 327.921 87.7088 324.883 87.7088C321.846 87.7088 319.383 85.2464 319.383 82.2088Z" fill="#2C2C2C"/>
<path d="M307.138 103.815C318.255 103.815 327.267 91.0573 327.267 75.3198C327.267 59.5823 318.255 46.8245 307.138 46.8245C296.021 46.8245 287.009 59.5823 287.009 75.3198C287.009 91.0573 296.021 103.815 307.138 103.815Z" fill="#E0E0E0"/>
<path fill-rule="evenodd" clip-rule="evenodd" d="M293.167 55.356C289.567 60.4523 287.331 67.5096 287.331 75.3199C287.331 83.1302 289.567 90.1875 293.167 95.2838C296.768 100.381 301.712 103.494 307.138 103.494C312.565 103.494 317.509 100.381 321.109 95.2838C324.709 90.1875 326.946 83.1302 326.946 75.3199C326.946 67.5096 324.709 60.4523 321.109 55.356C317.509 50.2589 312.565 47.1458 307.138 47.1458C301.712 47.1458 296.768 50.2589 293.167 55.356ZM292.643 54.9854C296.327 49.7693 301.448 46.5034 307.138 46.5034C312.829 46.5034 317.949 49.7693 321.634 54.9854C325.319 60.2024 327.588 67.3927 327.588 75.3199C327.588 83.2471 325.319 90.4375 321.634 95.6544C317.949 100.871 312.829 104.136 307.138 104.136C301.448 104.136 296.327 100.871 292.643 95.6544C288.957 90.4375 286.688 83.2471 286.688 75.3199C286.688 67.3927 288.957 60.2024 292.643 54.9854Z" fill="#2C2C2C"/>
<path d="M284.071 69.001C284.071 69.001 301.205 69.836 306.914 59.5267C306.914 59.5267 319.311 70.2536 331.145 69.4185L330.029 64.6814L325.437 55.6245L322.651 52.2844L316.942 46.2947L309.282 43.0911L300.089 44.3436L287.828 52.7019L286.295 58.2741L284.071 69.001Z" fill="#2C2C2C"/>
<path d="M307.636 86.4562C307.644 86.5044 307.54 86.5927 307.307 86.5927C307.082 86.6008 306.737 86.4964 306.432 86.2073C306.279 86.0628 306.143 85.8862 306.038 85.6614C306.022 85.6292 306.014 85.5971 305.998 85.565L305.982 85.5168L305.966 85.4767L305.942 85.4044C305.934 85.3723 305.926 85.3322 305.91 85.3C305.878 85.1796 305.854 85.0511 305.846 84.9146C305.797 84.3847 305.902 83.8468 306.03 83.3329C306.528 81.2775 307.114 79.6636 307.331 79.7118C307.548 79.768 307.323 81.4702 306.825 83.5256C306.697 84.0314 306.6 84.4891 306.6 84.8745C306.6 84.9709 306.608 85.0672 306.616 85.1555L306.624 85.1876V85.2037V85.2117V85.2198C306.624 85.2198 306.616 85.1957 306.624 85.2037L306.641 85.284L306.649 85.3241L306.657 85.3482L306.673 85.3964C306.721 85.5489 306.793 85.6935 306.873 85.8059C307.034 86.0387 307.227 86.1832 307.379 86.2635C307.516 86.3679 307.628 86.4 307.636 86.4562Z" fill="#2C2C2C"/>
<path d="M285.379 78.5879C285.154 77.6966 284.986 76.7894 284.849 75.874C284.721 74.9587 284.633 74.0434 284.584 73.1201C284.504 71.2734 284.576 69.4106 284.825 67.5719C285.074 65.7252 285.5 63.9026 286.102 62.1362C286.134 62.0238 286.174 61.9114 286.214 61.807L286.335 61.4778L286.576 60.8195L286.849 60.1691L286.985 59.8479C287.033 59.7436 287.073 59.6312 287.13 59.5268C287.523 58.6757 287.949 57.8326 288.43 57.0297C289.386 55.4078 290.502 53.8823 291.786 52.4933C293.079 51.1123 294.532 49.8758 296.122 48.84C296.315 48.7035 296.524 48.5831 296.724 48.4627C296.925 48.3422 297.134 48.2138 297.335 48.1014L297.969 47.7641L298.282 47.5955C298.386 47.5393 298.499 47.4911 298.603 47.443L299.254 47.1459C299.31 47.1218 299.358 47.0977 299.414 47.0736L299.583 47.0094L299.912 46.8809L300.241 46.7525C300.354 46.7123 300.458 46.6641 300.578 46.624L301.261 46.3992C303.075 45.8131 304.986 45.516 306.897 45.4758C307.853 45.4437 308.808 45.516 309.756 45.6204C309.996 45.6525 310.229 45.6926 310.462 45.7247L310.815 45.7809C310.872 45.789 310.936 45.797 310.992 45.8131L311.169 45.8532L311.867 46.0058C312.1 46.0539 312.333 46.1182 312.558 46.1824C314.396 46.6963 316.171 47.443 317.793 48.4386L318.395 48.8159C318.499 48.8802 318.596 48.9444 318.692 49.0167L318.981 49.2174L319.27 49.4181C319.366 49.4824 319.463 49.5546 319.559 49.6269L320.121 50.0605L320.402 50.2772L320.675 50.5101L321.213 50.9758C321.39 51.1283 321.558 51.2969 321.727 51.4656L321.984 51.7145C322.072 51.7947 322.153 51.875 322.233 51.9634L322.723 52.4772L322.963 52.7341L323.196 52.9991L323.662 53.5371C323.742 53.6254 323.815 53.7217 323.887 53.8101L324.104 54.0911C324.248 54.2757 324.393 54.4604 324.537 54.6531L324.947 55.2312C325.228 55.6086 325.469 56.0181 325.726 56.4115C326.721 58.0093 327.532 59.7114 328.174 61.4618C328.817 63.2202 329.274 65.0347 329.563 66.8734L329.62 67.2187L329.644 67.3873L329.66 67.5639L329.74 68.2544C329.804 68.7121 329.82 69.1778 329.86 69.6434C329.917 70.5668 329.933 71.4982 329.909 72.4215L329.901 72.7668L329.885 73.112C329.869 73.3449 329.86 73.5697 329.836 73.8025C329.804 74.2602 329.756 74.7259 329.7 75.1835C329.579 76.0989 329.427 77.0061 329.226 77.9054C329.339 76.9901 329.427 76.0828 329.459 75.1675C329.499 74.2522 329.507 73.3368 329.467 72.4295C329.427 71.5223 329.363 70.6069 329.25 69.7077C329.186 69.2581 329.138 68.8084 329.05 68.3588L328.929 67.6924L328.897 67.5238L328.857 67.3552L328.785 67.026C328.407 65.2515 327.869 63.5172 327.187 61.8552L327.058 61.5421L326.922 61.237L326.641 60.6187C326.553 60.41 326.448 60.2173 326.344 60.0166L326.039 59.4144C325.934 59.2136 325.822 59.0209 325.709 58.8282C325.597 58.6355 325.493 58.4348 325.372 58.2421L325.019 57.6721C324.899 57.4794 324.786 57.2867 324.658 57.11C324.401 56.7407 324.16 56.3633 323.887 56.01L323.485 55.4721C323.349 55.2954 323.204 55.1268 323.06 54.9502L322.843 54.6933C322.771 54.6049 322.699 54.5166 322.626 54.4363L322.177 53.9385L321.952 53.6896L321.719 53.4487L321.245 52.975C319.969 51.7385 318.547 50.6546 317.014 49.7554C315.488 48.8561 313.842 48.1736 312.14 47.716C311.715 47.5875 311.281 47.5152 310.856 47.4189L310.695 47.3868C310.639 47.3787 310.583 47.3707 310.534 47.3627L310.205 47.3145C309.988 47.2824 309.772 47.2422 309.555 47.2182C308.68 47.1298 307.797 47.0656 306.921 47.0897C305.163 47.1218 303.405 47.3868 301.727 47.9247L301.1 48.1254C300.996 48.1576 300.891 48.1977 300.787 48.2379L300.482 48.3583L300.177 48.4787L300.024 48.5349C299.976 48.551 299.92 48.5831 299.872 48.5992L299.27 48.8721C299.173 48.9203 299.069 48.9605 298.964 49.0086L298.667 49.1612L298.081 49.4663C297.889 49.5787 297.696 49.6911 297.503 49.7955C297.311 49.9079 297.118 50.0123 296.933 50.1407C295.432 51.0882 294.051 52.2203 292.798 53.4889L292.34 53.9787L292.116 54.2276C292.076 54.2677 292.035 54.3079 292.003 54.348L291.899 54.4765L291.465 54.9903C291.393 55.0786 291.321 55.1589 291.249 55.2473L291.04 55.5122L290.63 56.0421C290.558 56.1305 290.502 56.2188 290.43 56.3151L290.237 56.5881C290.108 56.7728 289.98 56.9494 289.851 57.1421L289.49 57.7122C288.535 59.2297 287.716 60.8435 287.073 62.5216C286.423 64.1997 285.925 65.9501 285.588 67.7325L285.46 68.3989C285.419 68.6238 285.395 68.8486 285.355 69.0734L285.259 69.7478C285.235 69.9726 285.211 70.1975 285.187 70.4223L285.114 71.1047L285.074 71.7872L285.034 72.4697C285.026 72.6945 285.018 72.9274 285.01 73.1522C284.994 74.0675 285.01 74.9748 285.074 75.8901C285.146 76.7653 285.251 77.6726 285.379 78.5879Z" fill="#50BFD7"/>
<path d="M301.903 76.8297C301.903 79.118 299.92 80.9728 297.479 80.9728C295.03 80.9728 293.055 79.118 293.055 76.8297C293.055 74.5414 295.038 72.6867 297.479 72.6867C299.92 72.6867 301.903 74.5414 301.903 76.8297Z" fill="white"/>
<path fill-rule="evenodd" clip-rule="evenodd" d="M297.479 73.0076C295.196 73.0076 293.376 74.7382 293.376 76.8295C293.376 78.9211 295.188 80.6513 297.479 80.6513C299.763 80.6513 301.582 78.9208 301.582 76.8295C301.582 74.7382 299.763 73.0076 297.479 73.0076ZM292.734 76.8295C292.734 74.3442 294.881 72.3653 297.479 72.3653C300.077 72.3653 302.225 74.3442 302.225 76.8295C302.225 79.3148 300.077 81.2937 297.479 81.2937C294.873 81.2937 292.734 79.3144 292.734 76.8295Z" fill="#2C2C2C"/>
<path d="M295.312 76.5726C295.312 78.4594 296.54 79.993 298.05 79.993C299.559 79.993 300.787 78.4594 300.787 76.5726C300.787 74.6857 299.559 73.1522 298.05 73.1522C296.532 73.1441 295.312 74.6777 295.312 76.5726Z" fill="#50BFD7"/>
<path d="M296.098 76.5726C296.098 77.9135 296.965 78.9974 298.041 78.9974C299.117 78.9974 299.984 77.9135 299.984 76.5726C299.984 75.2318 299.117 74.1398 298.041 74.1398C296.973 74.1398 296.098 75.2238 296.098 76.5726Z" fill="#2C2C2C"/>
<path d="M295.978 74.2681C295.978 74.6374 296.428 74.9264 296.982 74.9264C297.536 74.9264 297.986 74.6294 297.986 74.2681C297.986 73.8987 297.536 73.6097 296.982 73.6097C296.428 73.6016 295.978 73.8987 295.978 74.2681Z" fill="white"/>
<path d="M297.769 72.0842C295.031 71.8112 292.928 74.2841 292.928 76.8374C292.928 77.1024 293.257 77.1505 293.393 76.9659C294.509 75.4323 294.871 73.9228 296.91 73.3367C299.921 72.4696 301.575 75.5608 301.744 77.9856C301.768 78.2184 301.968 78.0097 301.993 77.7688C302.266 74.8703 300.82 72.3893 297.769 72.0842Z" fill="#2C2C2C"/>
<path d="M303.173 70.4942C303.173 70.4942 297.199 64.5366 290.776 71.6102C290.768 71.6102 296.324 68.0533 303.173 70.4942Z" fill="#2C2C2C"/>
<path d="M321.15 76.8294C321.15 79.1177 319.167 80.9724 316.726 80.9724C314.277 80.9724 312.302 79.1177 312.302 76.8294C312.302 74.5411 314.285 72.6863 316.726 72.6863C319.167 72.6863 321.15 74.5411 321.15 76.8294Z" fill="white"/>
<path fill-rule="evenodd" clip-rule="evenodd" d="M316.725 73.0076C314.441 73.0076 312.622 74.7382 312.622 76.8295C312.622 78.9211 314.433 80.6513 316.725 80.6513C319.008 80.6513 320.828 78.9208 320.828 76.8295C320.828 74.7382 319.008 73.0076 316.725 73.0076ZM311.979 76.8295C311.979 74.3442 314.127 72.3653 316.725 72.3653C319.323 72.3653 321.47 74.3442 321.47 76.8295C321.47 79.3148 319.323 81.2937 316.725 81.2937C314.118 81.2937 311.979 79.3144 311.979 76.8295Z" fill="#2C2C2C"/>
<path d="M314.557 76.5726C314.557 78.4594 315.785 79.993 317.295 79.993C318.804 79.993 320.033 78.4594 320.033 76.5726C320.033 74.6857 318.804 73.1522 317.295 73.1522C315.785 73.1441 314.557 74.6777 314.557 76.5726Z" fill="#50BFD7"/>
<path d="M315.353 76.5723C315.353 77.9131 316.22 78.9971 317.296 78.9971C318.372 78.9971 319.239 77.9131 319.239 76.5723C319.239 75.2314 318.372 74.1395 317.296 74.1395C316.22 74.1395 315.353 75.2234 315.353 76.5723Z" fill="#2C2C2C"/>
<path d="M315.224 74.2681C315.224 74.6374 315.673 74.9264 316.227 74.9264C316.781 74.9264 317.231 74.6294 317.231 74.2681C317.231 73.8987 316.781 73.6097 316.227 73.6097C315.681 73.6016 315.224 73.8987 315.224 74.2681Z" fill="white"/>
<path d="M317.015 72.0842C314.277 71.8112 312.173 74.2841 312.173 76.8374C312.173 77.1024 312.502 77.1505 312.639 76.9659C313.755 75.4323 314.116 73.9228 316.155 73.3367C319.166 72.4696 320.82 75.5608 320.989 77.9856C321.013 78.2184 321.214 78.0097 321.238 77.7688C321.511 74.8703 320.074 72.3893 317.015 72.0842Z" fill="#2C2C2C"/>
<path d="M322.418 69.8444C322.418 69.8444 316.444 63.8868 310.021 70.9605C310.021 70.9605 315.577 67.4036 322.418 69.8444Z" fill="#2C2C2C"/>
<path d="M291.803 277.886C291.803 277.886 292.277 279.388 292.413 279.621C292.558 279.854 296.243 281.122 300.74 281.026C305.413 280.93 307.548 279.573 307.613 277.878H291.803V277.886Z" fill="#50BFD7"/>
<path fill-rule="evenodd" clip-rule="evenodd" d="M291.482 277.557H307.946L307.934 277.891C307.896 278.893 307.24 279.743 306.048 280.339C304.862 280.932 303.106 281.298 300.746 281.347M291.482 277.557V277.879V277.557ZM291.803 277.887L291.497 277.983L291.482 277.936V277.879M291.803 277.887C291.497 277.983 291.497 277.983 291.497 277.983L291.503 278.001C291.506 278.012 291.511 278.028 291.518 278.049C291.531 278.091 291.55 278.151 291.574 278.223C291.621 278.368 291.685 278.565 291.753 278.768C291.821 278.972 291.894 279.185 291.959 279.362C292.02 279.527 292.085 279.695 292.137 279.783L292.139 279.787L292.141 279.79C292.173 279.842 292.213 279.877 292.235 279.895C292.261 279.916 292.288 279.934 292.314 279.95C292.365 279.981 292.427 280.013 292.494 280.044C292.631 280.107 292.815 280.179 293.039 280.256C293.488 280.411 294.114 280.591 294.875 280.76C296.396 281.099 298.468 281.396 300.746 281.347M292.241 278.2H307.246C307.106 278.772 306.65 279.319 305.761 279.764C304.695 280.297 303.046 280.657 300.733 280.705L300.733 280.705C298.515 280.752 296.496 280.463 295.015 280.133C294.274 279.969 293.671 279.794 293.248 279.649C293.036 279.575 292.873 279.511 292.763 279.46C292.722 279.441 292.691 279.426 292.669 279.414C292.662 279.398 292.654 279.379 292.645 279.357C292.621 279.299 292.593 279.226 292.562 279.141C292.5 278.972 292.429 278.766 292.362 278.564C292.319 278.436 292.278 278.311 292.241 278.2Z" fill="#2C2C2C"/>
<path d="M291.811 278.208C292.517 278.842 293.441 279.324 294.115 279.54C295.793 280.094 297.632 280.303 299.39 280.399C301.261 280.496 303.316 280.464 305.067 279.725C306.014 279.324 306.817 278.737 307.564 278.071C307.901 277.244 307.989 276.305 307.965 275.341C307.909 273.607 307.516 271.929 307.21 270.227C307.162 269.978 307.122 269.737 307.082 269.496C306.994 268.388 306.913 267.272 306.841 266.172C306.817 265.762 306.769 265.401 306.777 264.992C306.785 264.719 306.881 264.277 306.809 264.02C306.801 263.988 306.785 263.964 306.777 263.94C306.777 263.9 306.785 263.859 306.777 263.819C306.464 263.562 306.135 263.322 305.757 263.217C305.484 263.265 305.211 263.354 305.035 263.426C304.754 263.538 304.505 263.683 304.28 263.851C303.726 263.097 302.361 262.743 301.59 262.711C300.386 262.663 298.78 262.872 297.824 263.755C297.664 263.603 297.415 263.522 297.198 263.482C297.15 263.474 297.094 263.466 297.046 263.458C296.484 263.675 296.628 265.056 296.572 265.449C296.492 265.971 296.411 266.493 296.283 266.999C296.026 267.97 295.657 268.862 295.095 269.697C294.492 270.596 293.705 271.375 293.015 272.202C292.919 272.37 292.814 272.539 292.718 272.7C291.979 273.888 291.377 275.614 291.538 277.027C291.578 277.477 291.674 277.862 291.811 278.208Z" fill="#50BFD7"/>
<path fill-rule="evenodd" clip-rule="evenodd" d="M299.541 262.571C300.247 262.406 300.979 262.365 301.603 262.39L301.604 262.39C302.023 262.408 302.59 262.511 303.127 262.709C303.56 262.868 304.004 263.1 304.333 263.425C304.512 263.312 304.705 263.212 304.914 263.128C305.109 263.049 305.403 262.953 305.701 262.901L305.773 262.888L305.843 262.907C306.291 263.031 306.665 263.312 306.981 263.571L307.069 263.644L307.092 263.756C307.102 263.807 307.102 263.851 307.101 263.881C307.107 263.897 307.114 263.916 307.119 263.937C307.172 264.128 307.159 264.356 307.143 264.529C307.136 264.61 307.128 264.681 307.12 264.745C307.109 264.843 307.1 264.924 307.098 264.999C307.093 265.262 307.112 265.493 307.132 265.748C307.143 265.875 307.153 266.007 307.162 266.152C307.234 267.246 307.313 268.355 307.401 269.456C307.441 269.693 307.479 269.926 307.526 270.165L307.526 270.167L307.527 270.17C307.59 270.52 307.657 270.873 307.724 271.227C307.98 272.568 308.241 273.934 308.286 275.33L308.286 275.332L308.286 275.333C308.311 276.317 308.222 277.307 307.861 278.192L307.833 278.261L307.778 278.31C307.016 278.99 306.183 279.6 305.192 280.02L305.192 280.021C303.369 280.79 301.25 280.817 299.374 280.72L299.373 280.72C297.605 280.623 295.734 280.412 294.016 279.845C293.302 279.616 292.339 279.113 291.596 278.446L291.54 278.396L291.512 278.325C291.364 277.952 291.261 277.538 291.218 277.059C291.048 275.55 291.685 273.753 292.444 272.532C292.472 272.485 292.5 272.438 292.529 272.392C292.599 272.275 292.669 272.159 292.736 272.042L292.75 272.017L292.769 271.996C293.006 271.712 293.246 271.441 293.484 271.175C293.965 270.634 294.432 270.109 294.828 269.518L294.828 269.517C295.366 268.718 295.722 267.861 295.972 266.918C296.096 266.431 296.174 265.925 296.254 265.402C296.264 265.332 296.266 265.209 296.269 265.024C296.269 265.015 296.269 265.006 296.27 264.997C296.273 264.809 296.278 264.581 296.3 264.356C296.321 264.134 296.361 263.894 296.444 263.686C296.526 263.48 296.671 263.258 296.93 263.158L297.012 263.127L297.098 263.141C297.12 263.145 297.144 263.148 297.171 263.152L297.172 263.153C297.197 263.156 297.225 263.161 297.251 263.165L297.254 263.166L297.257 263.166C297.417 263.196 297.62 263.249 297.805 263.35C298.307 262.958 298.922 262.715 299.541 262.571ZM299.687 263.196C299.047 263.346 298.465 263.6 298.043 263.991L297.822 264.195L297.603 263.988C297.512 263.901 297.341 263.835 297.143 263.798C297.134 263.797 297.124 263.795 297.114 263.794C297.093 263.818 297.067 263.858 297.041 263.924C296.991 264.049 296.958 264.219 296.939 264.418C296.92 264.615 296.915 264.819 296.912 265.008C296.912 265.025 296.911 265.042 296.911 265.059C296.908 265.218 296.906 265.382 296.89 265.494L296.89 265.496L296.888 265.505C296.809 266.022 296.726 266.557 296.594 267.078L296.594 267.079L296.593 267.081C296.329 268.08 295.947 269.005 295.361 269.875C294.941 270.502 294.423 271.085 293.926 271.645C293.703 271.896 293.484 272.142 293.28 272.386C293.212 272.502 293.141 272.62 293.074 272.731C293.046 272.777 293.019 272.822 292.993 272.865L292.992 272.867L292.991 272.869C292.273 274.023 291.707 275.676 291.857 276.991L291.857 276.995L291.858 276.998C291.892 277.387 291.972 277.72 292.082 278.019C292.745 278.596 293.596 279.036 294.213 279.234L294.215 279.235L294.216 279.235C295.853 279.776 297.659 279.983 299.407 280.078C301.272 280.175 303.264 280.137 304.942 279.429C305.822 279.056 306.579 278.513 307.294 277.881C307.585 277.129 307.667 276.265 307.644 275.35C307.601 274.009 307.353 272.708 307.098 271.373C307.03 271.014 306.96 270.651 306.895 270.285C306.846 270.033 306.805 269.789 306.766 269.551L306.763 269.535L306.762 269.521C306.673 268.412 306.593 267.294 306.521 266.193L306.521 266.192L306.521 266.19C306.514 266.075 306.504 265.957 306.495 265.838C306.473 265.565 306.45 265.281 306.456 264.985L306.456 264.983L306.456 264.982C306.459 264.883 306.473 264.752 306.486 264.633C306.493 264.574 306.499 264.519 306.503 264.47C306.519 264.294 306.518 264.175 306.501 264.11C306.5 264.109 306.5 264.108 306.499 264.106L306.498 264.103C306.496 264.1 306.494 264.095 306.491 264.089C306.487 264.079 306.479 264.062 306.472 264.041L306.456 263.992V263.973C306.212 263.781 305.982 263.628 305.74 263.547C305.517 263.593 305.299 263.664 305.156 263.723L305.155 263.723L305.154 263.724C304.901 263.825 304.676 263.955 304.473 264.108L304.213 264.303L304.021 264.041C303.799 263.738 303.388 263.489 302.905 263.312C302.429 263.136 301.928 263.047 301.577 263.032C300.997 263.009 300.324 263.048 299.687 263.196Z" fill="#2C2C2C"/>
<path d="M326.617 277.886C326.617 277.886 326.151 279.388 326.007 279.621C325.862 279.854 322.177 281.122 317.68 281.026C313.007 280.93 310.872 279.573 310.807 277.878H326.617V277.886Z" fill="#50BFD7"/>
<path fill-rule="evenodd" clip-rule="evenodd" d="M310.474 277.557H326.938V277.935L326.924 277.982L326.617 277.887C326.924 277.982 326.924 277.982 326.924 277.982L326.924 277.982L326.924 277.982L326.918 277.999C326.915 278.01 326.91 278.027 326.903 278.048C326.89 278.09 326.871 278.149 326.848 278.222C326.802 278.367 326.739 278.564 326.671 278.768C326.603 278.971 326.53 279.185 326.464 279.363C326.404 279.527 326.337 279.699 326.28 279.79C326.248 279.842 326.208 279.877 326.186 279.895C326.16 279.916 326.132 279.934 326.107 279.95C326.056 279.981 325.994 280.013 325.926 280.044C325.79 280.107 325.606 280.179 325.382 280.256C324.933 280.411 324.306 280.591 323.545 280.76C322.024 281.099 319.953 281.396 317.674 281.347M326.181 278.2H311.175C311.314 278.772 311.77 279.319 312.66 279.764C313.726 280.297 315.374 280.657 317.687 280.705L317.687 280.705C319.905 280.752 321.924 280.463 323.406 280.133C324.147 279.969 324.749 279.794 325.173 279.649C325.385 279.575 325.547 279.511 325.658 279.46C325.7 279.441 325.731 279.425 325.753 279.413C325.761 279.397 325.769 279.378 325.778 279.355C325.802 279.298 325.831 279.225 325.862 279.141C325.924 278.972 325.995 278.766 326.061 278.565C326.104 278.437 326.145 278.311 326.181 278.2ZM310.474 277.557L310.487 277.891L310.474 277.557ZM310.487 277.891C310.525 278.893 311.181 279.743 312.372 280.339L310.487 277.891ZM312.372 280.339C313.558 280.932 315.314 281.298 317.674 281.347L312.372 280.339Z" fill="#2C2C2C"/>
<path d="M326.609 278.208C325.903 278.842 324.979 279.324 324.305 279.54C322.627 280.094 320.788 280.303 319.03 280.399C317.159 280.496 315.104 280.464 313.353 279.725C312.406 279.324 311.603 278.737 310.856 278.071C310.519 277.244 310.431 276.305 310.455 275.341C310.511 273.607 310.904 271.929 311.21 270.227C311.258 269.978 311.298 269.737 311.338 269.496C311.426 268.388 311.507 267.272 311.579 266.172C311.611 265.762 311.651 265.401 311.643 264.992C311.635 264.719 311.539 264.277 311.611 264.02C311.619 263.988 311.635 263.964 311.643 263.94C311.643 263.9 311.635 263.859 311.643 263.819C311.956 263.562 312.277 263.322 312.663 263.217C312.936 263.265 313.209 263.354 313.385 263.426C313.666 263.538 313.915 263.683 314.14 263.851C314.694 263.097 316.059 262.743 316.83 262.711C318.034 262.663 319.64 262.872 320.596 263.755C320.756 263.603 321.005 263.522 321.222 263.482C321.27 263.474 321.326 263.466 321.374 263.458C321.936 263.675 321.792 265.056 321.848 265.449C321.928 265.971 322.009 266.493 322.137 266.999C322.394 267.97 322.763 268.862 323.325 269.697C323.928 270.596 324.714 271.375 325.405 272.202C325.501 272.37 325.606 272.539 325.702 272.7C326.441 273.888 327.043 275.614 326.882 277.027C326.842 277.477 326.746 277.862 326.609 278.208Z" fill="#50BFD7"/>
<path fill-rule="evenodd" clip-rule="evenodd" d="M318.733 263.196C318.096 263.048 317.423 263.009 316.843 263.032C316.492 263.047 315.991 263.136 315.515 263.312C315.032 263.489 314.621 263.738 314.399 264.041L314.207 264.303L313.948 264.108C313.744 263.955 313.519 263.825 313.266 263.724L313.265 263.723L313.264 263.723C313.121 263.664 312.902 263.593 312.68 263.547C312.433 263.628 312.208 263.779 311.964 263.973V263.992L311.948 264.041C311.941 264.062 311.934 264.079 311.929 264.089C311.926 264.095 311.924 264.1 311.923 264.103C311.921 264.106 311.92 264.108 311.919 264.11C311.902 264.175 311.901 264.294 311.917 264.47C311.921 264.519 311.927 264.574 311.934 264.633C311.947 264.752 311.961 264.883 311.964 264.982L311.964 264.983L311.964 264.985C311.971 265.336 311.944 265.656 311.917 265.978C311.911 266.05 311.905 266.122 311.899 266.195C311.827 267.295 311.747 268.412 311.658 269.521L311.657 269.535L311.655 269.55C311.615 269.789 311.574 270.033 311.525 270.285C311.46 270.651 311.391 271.014 311.322 271.373C311.068 272.708 310.819 274.009 310.776 275.35C310.753 276.265 310.835 277.129 311.127 277.881C311.842 278.513 312.598 279.056 313.479 279.429C315.157 280.137 317.148 280.175 319.013 280.078C320.762 279.983 322.567 279.776 324.204 279.235L324.206 279.235L324.207 279.234C324.824 279.036 325.675 278.596 326.338 278.019C326.449 277.72 326.528 277.387 326.563 276.998L326.563 276.995L326.563 276.991C326.713 275.676 326.147 274.023 325.429 272.869L325.428 272.867L325.427 272.865C325.401 272.822 325.374 272.777 325.346 272.731C325.279 272.62 325.208 272.502 325.141 272.386C324.936 272.142 324.717 271.896 324.494 271.645C323.997 271.085 323.479 270.502 323.059 269.875C322.473 269.005 322.091 268.08 321.827 267.081L321.826 267.079L321.826 267.078C321.694 266.557 321.611 266.022 321.532 265.505L321.53 265.496L321.53 265.494C321.514 265.382 321.512 265.218 321.509 265.059C321.509 265.042 321.509 265.025 321.508 265.008C321.505 264.819 321.501 264.615 321.481 264.418C321.462 264.219 321.429 264.049 321.379 263.924C321.353 263.858 321.328 263.818 321.306 263.794C321.296 263.795 321.287 263.797 321.278 263.798C321.079 263.835 320.908 263.901 320.817 263.988L320.599 264.195L320.378 263.991C319.955 263.6 319.373 263.346 318.733 263.196ZM320.615 263.35C320.113 262.958 319.498 262.715 318.879 262.571C318.173 262.406 317.441 262.365 316.817 262.39L316.817 262.39C316.397 262.408 315.83 262.511 315.293 262.709C314.861 262.868 314.416 263.1 314.087 263.425C313.908 263.312 313.715 263.212 313.506 263.128C313.312 263.049 313.017 262.953 312.719 262.901L312.648 262.888L312.579 262.907C312.121 263.031 311.753 263.314 311.439 263.571L311.351 263.644L311.328 263.756C311.318 263.807 311.318 263.851 311.319 263.881C311.313 263.897 311.306 263.916 311.301 263.937C311.248 264.128 311.261 264.356 311.277 264.529C311.285 264.61 311.293 264.681 311.3 264.745C311.311 264.843 311.32 264.924 311.322 264.999C311.328 265.313 311.305 265.594 311.278 265.912C311.272 265.988 311.265 266.066 311.259 266.147L311.259 266.149L311.258 266.151C311.187 267.245 311.107 268.355 311.019 269.456C310.98 269.693 310.941 269.926 310.894 270.165L310.894 270.167L310.893 270.17C310.831 270.52 310.763 270.873 310.696 271.227C310.44 272.568 310.179 273.934 310.134 275.33L310.134 275.332L310.134 275.333C310.109 276.317 310.198 277.307 310.559 278.192L310.587 278.261L310.642 278.31C311.404 278.99 312.237 279.6 313.228 280.02L313.229 280.021C315.051 280.79 317.17 280.817 319.046 280.72L319.048 280.72C320.815 280.623 322.687 280.412 324.405 279.845C325.118 279.616 326.081 279.113 326.824 278.446L326.88 278.396L326.908 278.325C327.056 277.952 327.159 277.538 327.202 277.059C327.372 275.55 326.735 273.753 325.976 272.532C325.948 272.485 325.92 272.438 325.892 272.392C325.821 272.275 325.751 272.159 325.684 272.042L325.67 272.017L325.652 271.996C325.414 271.712 325.174 271.441 324.937 271.175C324.455 270.634 323.988 270.109 323.592 269.518L323.592 269.517C323.054 268.718 322.698 267.861 322.448 266.918C322.324 266.431 322.246 265.925 322.166 265.402C322.156 265.332 322.154 265.209 322.151 265.024L322.151 264.997C322.147 264.809 322.143 264.581 322.121 264.356C322.099 264.134 322.059 263.894 321.976 263.686C321.894 263.48 321.749 263.258 321.49 263.158L321.408 263.127L321.322 263.141C321.3 263.145 321.276 263.148 321.249 263.152L321.248 263.153C321.223 263.156 321.195 263.161 321.169 263.165L321.166 263.166L321.163 263.166C321.003 263.196 320.801 263.249 320.615 263.35ZM311.343 263.826C311.343 263.826 311.343 263.826 311.343 263.826V263.826Z" fill="#2C2C2C"/>
<path fill-rule="evenodd" clip-rule="evenodd" d="M286.609 73.8107V73.9713H285.966V73.8107H286.609Z" fill="#2C2C2C"/>
<path fill-rule="evenodd" clip-rule="evenodd" d="M289.98 75.5768V75.7374H289.338V75.5768H289.98Z" fill="#2C2C2C"/>
<path d="M308.247 74.6294C309.347 74.8622 308.937 75.5768 308.937 75.6812C308.937 75.7856 309.347 81.7271 314.654 83.2928C319.961 84.8584 323.141 81.7833 324.064 80.2417C324.988 78.7001 325.758 75.0389 325.983 74.7578C326.216 74.4768 327.316 73.987 327.316 73.987L327.444 72.5498L326.063 72.1403C326.063 72.1403 322.579 70.5506 317.448 70.4783C312.326 70.398 309.427 73.3527 309.427 73.3527C307.982 72.8951 306.191 72.8308 304.553 73.3527C304.553 73.3527 301.655 70.4061 296.532 70.4783C291.41 70.5586 287.917 72.1403 287.917 72.1403L286.536 72.5498L286.665 73.987C286.665 73.987 287.765 74.4768 287.997 74.7578C288.23 75.0389 288.993 78.7082 289.916 80.2417C290.84 81.7833 294.019 84.8584 299.326 83.2928C304.634 81.7271 305.043 75.7856 305.043 75.6812C305.043 75.5768 304.634 74.8622 305.734 74.6294C306.689 74.4286 307.291 74.4286 308.247 74.6294ZM320.981 82.0643C316.934 84.4971 312.085 82.0402 310.623 78.8366C309.162 75.633 310.391 73.9389 310.391 73.9389C312.839 69.9564 322.691 69.7878 324.385 74.0914C324.674 74.814 325.036 79.6315 320.981 82.0643ZM289.587 74.0914C291.281 69.7798 301.141 69.9564 303.582 73.9389C303.582 73.9389 304.81 75.633 303.349 78.8366C301.888 82.0402 297.046 84.4971 292.992 82.0643C288.945 79.6315 289.306 74.814 289.587 74.0914Z" fill="#2C2C2C"/>
<path d="M310.727 117.746H304.561C302.923 117.746 301.59 119.079 301.59 120.717V126.883C301.59 128.521 302.923 129.854 304.561 129.854H310.727C312.365 129.854 313.698 128.521 313.698 126.883V120.717C313.698 119.079 312.373 117.746 310.727 117.746ZM299.952 115.12C299.013 115.12 298.25 115.883 298.25 116.823C298.25 117.762 299.013 118.525 299.952 118.525C300.892 118.525 301.654 117.762 301.654 116.823C301.654 115.883 300.892 115.12 299.952 115.12Z" fill="white"/>
<path d="M310.294 121.423C309.901 120.371 308.897 119.673 307.773 119.673H306.103L309.403 128.039H312.944L310.294 121.423ZM303.55 125.638L302.586 128.039H306.103L307.741 123.888H306.071C304.947 123.888 303.943 124.587 303.55 125.638ZM304.096 121.752C304.674 121.752 305.148 121.279 305.148 120.7C305.148 120.122 304.674 119.649 304.096 119.649C303.518 119.649 303.044 120.122 303.044 120.7C303.044 121.279 303.518 121.752 304.096 121.752Z" fill="#50BFD7"/>
<path fill-rule="evenodd" clip-rule="evenodd" d="M310.525 94.819C307.019 92.7115 304.184 93.963 303.259 94.7666C303.044 94.9528 302.72 94.9299 302.533 94.7155C302.347 94.501 302.37 94.1763 302.584 93.9901C303.805 92.9305 307.122 91.5735 311.054 93.9376C311.298 94.0839 311.377 94.3999 311.23 94.6433C311.084 94.8867 310.768 94.9654 310.525 94.819Z" fill="#2C2C2C"/>
</svg>
