<svg width="424" height="291" viewBox="0 0 424 291" fill="none" xmlns="http://www.w3.org/2000/svg">
<path d="M189.706 238.497C189.706 238.497 247.129 241.181 283.451 176.287C319.774 111.394 277.035 51.6992 211.013 38.8001C144.99 25.901 112.097 -22.5316 53.2509 14.5433C-5.59535 51.6181 27.106 249.065 189.706 238.497Z" fill="#70CDE0"/>
<path opacity="0.4" d="M189.706 238.497C189.706 238.497 247.129 241.181 283.451 176.287C319.774 111.394 277.035 51.6992 211.013 38.8001C144.99 25.901 112.097 -22.5316 53.2509 14.5433C-5.59535 51.6181 27.106 249.065 189.706 238.497Z" fill="white"/>
<path d="M40.4158 144.843L49.6423 122.586C50.0656 121.571 49.5364 120.748 48.4637 120.748H46.6069C46.4492 120.767 46.2894 120.753 46.1369 120.709C45.9844 120.665 45.8423 120.591 45.7189 120.491C45.5956 120.391 45.4936 120.267 45.4189 120.127C45.3442 119.987 45.2983 119.833 45.284 119.675L45.2215 118.857C45.2065 118.7 45.1602 118.547 45.0852 118.407C45.0103 118.268 44.9082 118.144 44.7849 118.045C44.6616 117.945 44.5197 117.872 44.3675 117.828C44.2153 117.784 44.0559 117.771 43.8986 117.79H35.081C34.3108 117.826 33.582 118.149 33.0366 118.694L32.3198 119.387C31.7778 119.934 31.0496 120.257 30.2802 120.291H19.0478C18.4758 120.323 17.9236 120.511 17.4511 120.835C16.9787 121.159 16.6042 121.606 16.3684 122.129L7.22852 144.843H40.4158Z" fill="#51C0D7"/>
<g opacity="0.3">
<path opacity="0.3" d="M40.4151 144.844L49.6415 122.586C50.0648 121.571 49.5357 120.748 48.463 120.748H46.6061C46.4485 120.767 46.2887 120.753 46.1361 120.709C45.9836 120.665 45.8415 120.591 45.7182 120.491C45.5949 120.391 45.4929 120.267 45.4182 120.127C45.3435 119.987 45.2976 119.833 45.2833 119.675L45.2207 118.857C45.2058 118.7 45.1595 118.547 45.0845 118.407C45.0095 118.268 44.9074 118.144 44.7842 118.045C44.6609 117.945 44.519 117.872 44.3668 117.828C44.2146 117.784 44.0551 117.771 43.8978 117.79H35.0803C34.3101 117.827 33.5813 118.149 33.0358 118.694L32.3191 119.387C31.777 119.934 31.0488 120.257 30.2795 120.291H19.0471C18.4751 120.323 17.9228 120.511 17.4504 120.835C16.978 121.159 16.6035 121.607 16.3676 122.129L7.22778 144.844H40.4151Z" fill="black"/>
</g>
<path d="M41.9409 137.282L45.4236 123.813C45.6497 122.928 45.0725 122.038 44.2643 122.038H16.9939C16.716 122.051 16.4504 122.156 16.2394 122.337C16.0284 122.519 15.8842 122.765 15.8297 123.038L10.7643 143.305C10.5431 144.195 10.899 144.748 11.7264 144.719H39.146C39.4198 144.702 39.6805 144.595 39.8875 144.415C40.0945 144.235 40.2363 143.992 40.2909 143.723L41.9409 137.282Z" fill="#E0E0E0"/>
<path d="M40.0594 144.233L41.541 123.067C41.5529 122.889 41.5281 122.711 41.4681 122.543C41.4082 122.375 41.3144 122.222 41.1926 122.092C41.0708 121.962 40.9236 121.858 40.7601 121.788C40.5966 121.717 40.4203 121.681 40.2422 121.681H11.9856V144.252L40.0594 144.233Z" fill="#EBEBEB"/>
<path d="M40.3716 144.719L37.0043 122.879C36.9262 122.532 36.7313 122.221 36.4521 122C36.1728 121.778 35.8261 121.659 35.4698 121.662H6.89087C6.6336 121.658 6.37946 121.719 6.15153 121.838C5.9236 121.958 5.72911 122.132 5.58573 122.346C5.44234 122.559 5.35462 122.805 5.33052 123.062C5.30642 123.318 5.34671 123.576 5.44773 123.813L11.6195 143.824L40.3716 144.719Z" fill="#FAFAFA"/>
<path d="M40.4151 144.834L33.4833 124.38C33.3549 123.968 33.0999 123.607 32.7545 123.348C32.4091 123.088 31.9908 122.945 31.5591 122.937H2.09027C1.86302 122.944 1.64055 123.004 1.44101 123.113C1.24146 123.222 1.07048 123.376 0.941997 123.564C0.813514 123.752 0.731164 123.967 0.701658 124.192C0.672152 124.418 0.696326 124.647 0.772208 124.861L7.21821 144.839L40.4151 144.834Z" fill="#51C0D7"/>
<path d="M171.551 213.435V191H135.449V213.435C135.454 217.279 133.937 220.969 131.228 223.696L123 232H184L175.778 223.696C173.065 220.971 171.544 217.281 171.551 213.435Z" fill="white" stroke="#263238" stroke-width="1.10627" stroke-linecap="round" stroke-linejoin="round"/>
<path opacity="0.44" d="M135.932 191V213.007C135.931 214.713 135.615 216.404 135 218H173C172.388 216.404 172.072 214.713 172.068 213.007V191H135.932Z" fill="#51C0D7"/>
<path d="M172 192H136V208H172V192Z" fill="#263238" stroke="#263238" stroke-width="1.10627" stroke-miterlimit="10"/>
<path d="M184 232H123V233H184V232Z" fill="white" stroke="#263238" stroke-width="1.10627" stroke-linecap="round" stroke-linejoin="round"/>
<path d="M65.4719 53H241.49C242.609 52.9992 243.717 53.2189 244.751 53.6467C245.784 54.0745 246.723 54.7019 247.514 55.4929C248.304 56.2839 248.931 57.223 249.358 58.2564C249.784 59.2898 250.002 60.3972 250 61.515V192.807C249.992 195.252 249.012 197.594 247.276 199.318C245.54 201.042 243.19 202.007 240.742 202H66.2261C63.7792 202 61.4325 201.029 59.7023 199.3C57.972 197.571 57 195.227 57 192.782V61.4836C57.0033 59.2379 57.8963 57.0848 59.4839 55.4951C61.0714 53.9054 63.2243 53.0083 65.4719 53Z" fill="#263238" stroke="#263238" stroke-width="1.10627" stroke-miterlimit="10"/>
<path d="M57 184H250V192.377C250 194.929 249.028 197.377 247.298 199.182C245.568 200.986 243.222 202 240.775 202H66.256C63.8095 202 61.4632 200.986 59.7332 199.182C58.0033 197.377 57.0314 194.929 57.0314 192.377V184H57Z" fill="white" stroke="#263238" stroke-width="1.10627" stroke-miterlimit="10"/>
<path d="M241.833 62.2736H66.5027V177.101H241.833V62.2736Z" fill="white" stroke="#263238" stroke-width="0.829701" stroke-linecap="round" stroke-linejoin="round"/>
<path d="M241.833 62.2736H66.5027V99.4852H241.833V62.2736Z" fill="#51C0D7"/>
<path d="M84.3692 169.367H77.3073V108.706H84.3692V169.367ZM98.2123 108.669H91.1886V169.367H98.2506L98.2123 108.669ZM112.062 108.669H104.993V169.367H112.062V108.669ZM125.898 108.669H118.836V169.367H125.898V108.669ZM139.741 108.669H132.679V169.367H139.741V108.669ZM153.578 108.669H146.516V169.367H153.578V108.669ZM167.428 108.669H160.359V169.367H167.428V108.669ZM181.271 108.669H174.209V169.367H181.271V108.669ZM195.107 108.669H188.045V169.367H195.107V108.669ZM208.95 108.669H201.888V169.367H208.95V108.669Z" fill="#51C0D7"/>
<path opacity="0.4" d="M84.3692 169.367H77.3073V108.706H84.3692V169.367ZM98.2123 108.669H91.1886V169.367H98.2506L98.2123 108.669ZM112.062 108.669H104.993V169.367H112.062V108.669ZM125.898 108.669H118.836V169.367H125.898V108.669ZM139.741 108.669H132.679V169.367H139.741V108.669ZM153.578 108.669H146.516V169.367H153.578V108.669ZM167.428 108.669H160.359V169.367H167.428V108.669ZM181.271 108.669H174.209V169.367H181.271V108.669ZM195.107 108.669H188.045V169.367H195.107V108.669ZM208.95 108.669H201.888V169.367H208.95V108.669Z" fill="white"/>
<path d="M121.192 76.2059H74.7652C74.3537 76.2059 73.9591 76.0453 73.6681 75.7594C73.3771 75.4735 73.2136 75.0858 73.2136 74.6815C73.2153 74.2783 73.3795 73.8922 73.6703 73.6077C73.9611 73.3232 74.3548 73.1634 74.7652 73.1635H121.192C121.602 73.1635 121.995 73.3234 122.284 73.6081C122.574 73.8928 122.737 74.2789 122.737 74.6815C122.738 74.8814 122.699 75.0795 122.621 75.2644C122.544 75.4493 122.43 75.6174 122.287 75.759C122.143 75.9007 121.973 76.013 121.785 76.0897C121.597 76.1664 121.395 76.2059 121.192 76.2059Z" fill="white" stroke="#263238" stroke-width="0.829701" stroke-linecap="round" stroke-linejoin="round"/>
<path d="M107.144 76.2059H74.7652C74.3537 76.2059 73.9591 76.0453 73.6681 75.7594C73.3771 75.4735 73.2136 75.0858 73.2136 74.6815C73.2153 74.2783 73.3795 73.8922 73.6703 73.6077C73.9611 73.3232 74.3548 73.1634 74.7652 73.1635H107.144V76.2059Z" fill="#263238" stroke="#263238" stroke-width="1.10627" stroke-linecap="round" stroke-linejoin="round"/>
<path d="M121.192 82.1718H74.7652C74.5618 82.1726 74.3601 82.134 74.1719 82.0581C73.9837 81.9821 73.8126 81.8705 73.6685 81.7294C73.5243 81.5884 73.4099 81.4207 73.3319 81.2361C73.2538 81.0515 73.2136 80.8536 73.2136 80.6537C73.2136 80.4539 73.2538 80.2559 73.3319 80.0713C73.4099 79.8868 73.5243 79.7191 73.6685 79.5781C73.8126 79.437 73.9837 79.3253 74.1719 79.2494C74.3601 79.1735 74.5618 79.1348 74.7652 79.1357H121.192C121.602 79.1357 121.995 79.2956 122.284 79.5803C122.574 79.865 122.737 80.2511 122.737 80.6537C122.737 81.0564 122.574 81.4425 122.284 81.7272C121.995 82.0119 121.602 82.1718 121.192 82.1718Z" fill="white" stroke="#263238" stroke-width="0.829701" stroke-linecap="round" stroke-linejoin="round"/>
<path d="M113.102 82.1718H74.7913C74.5879 82.1726 74.3863 82.134 74.1981 82.0581C74.0098 81.9821 73.8388 81.8705 73.6946 81.7294C73.5504 81.5884 73.436 81.4207 73.358 81.2361C73.2799 81.0515 73.2397 80.8536 73.2397 80.6537C73.2397 80.4539 73.2799 80.2559 73.358 80.0713C73.436 79.8868 73.5504 79.7191 73.6946 79.5781C73.8388 79.437 74.0098 79.3253 74.1981 79.2494C74.3863 79.1735 74.5879 79.1348 74.7913 79.1357H113.102V82.1718Z" fill="#263238" stroke="#263238" stroke-width="1.10627" stroke-linecap="round" stroke-linejoin="round"/>
<path d="M121.192 88.1749H74.7652C74.5618 88.1757 74.3601 88.137 74.1719 88.0611C73.9837 87.9852 73.8126 87.8735 73.6685 87.7325C73.5243 87.5914 73.4099 87.4238 73.3319 87.2392C73.2538 87.0546 73.2136 86.8567 73.2136 86.6568C73.2136 86.2525 73.3771 85.8648 73.6681 85.5789C73.9591 85.293 74.3537 85.1324 74.7652 85.1324H121.192C121.395 85.1324 121.597 85.1719 121.785 85.2486C121.973 85.3253 122.143 85.4377 122.287 85.5793C122.43 85.7209 122.544 85.889 122.621 86.0739C122.699 86.2588 122.738 86.4569 122.737 86.6568C122.737 87.0594 122.574 87.4455 122.284 87.7302C121.995 88.0149 121.602 88.1749 121.192 88.1749Z" fill="white" stroke="#263238" stroke-width="0.829701" stroke-linecap="round" stroke-linejoin="round"/>
<path d="M98.8629 88.1749H74.7652C74.5618 88.1757 74.3601 88.137 74.1719 88.0611C73.9837 87.9852 73.8126 87.8735 73.6685 87.7325C73.5243 87.5914 73.4099 87.4238 73.3319 87.2392C73.2538 87.0546 73.2136 86.8567 73.2136 86.6568C73.2136 86.2525 73.3771 85.8648 73.6681 85.5789C73.9591 85.293 74.3537 85.1324 74.7652 85.1324H98.8629V88.1749Z" fill="#263238" stroke="#263238" stroke-width="1.10627" stroke-linecap="round" stroke-linejoin="round"/>
<path d="M121.192 94.1088H74.7652C74.3548 94.1088 73.9611 93.949 73.6703 93.6645C73.3795 93.38 73.2153 92.9939 73.2136 92.5907C73.2153 92.1864 73.3791 91.7989 73.6695 91.5124C73.96 91.2259 74.3536 91.0634 74.7652 91.0601H121.192C121.603 91.0634 121.996 91.2261 122.285 91.5128C122.575 91.7995 122.737 92.1869 122.737 92.5907C122.737 92.9933 122.574 93.3795 122.284 93.6642C121.995 93.9488 121.602 94.1088 121.192 94.1088Z" fill="white" stroke="#263238" stroke-width="0.829701" stroke-linecap="round" stroke-linejoin="round"/>
<path d="M119.519 94.1088H74.7652C74.3548 94.1088 73.9611 93.949 73.6703 93.6645C73.3795 93.38 73.2153 92.9939 73.2136 92.5907C73.2153 92.1864 73.3791 91.7989 73.6695 91.5124C73.96 91.2259 74.3536 91.0634 74.7652 91.0601H119.519V94.1088Z" fill="#263238" stroke="#263238" stroke-width="1.10627" stroke-linecap="round" stroke-linejoin="round"/>
<path d="M73.5516 169.385H212.678" stroke="#263238" stroke-width="0.829701" stroke-linecap="round" stroke-linejoin="round"/>
<path d="M87.4652 169.386V168.012" stroke="#263238" stroke-width="0.829701" stroke-linecap="round" stroke-linejoin="round"/>
<path d="M101.379 169.386V168.012" stroke="#263238" stroke-width="0.829701" stroke-linecap="round" stroke-linejoin="round"/>
<path d="M115.292 169.386V168.012" stroke="#263238" stroke-width="0.829701" stroke-linecap="round" stroke-linejoin="round"/>
<path d="M129.206 169.386V168.012" stroke="#263238" stroke-width="0.829701" stroke-linecap="round" stroke-linejoin="round"/>
<path d="M143.118 169.386V168.012" stroke="#263238" stroke-width="0.829701" stroke-linecap="round" stroke-linejoin="round"/>
<path d="M157.032 169.386V168.012" stroke="#263238" stroke-width="0.829701" stroke-linecap="round" stroke-linejoin="round"/>
<path d="M170.945 169.386V168.012" stroke="#263238" stroke-width="0.829701" stroke-linecap="round" stroke-linejoin="round"/>
<path d="M184.859 169.386V168.012" stroke="#263238" stroke-width="0.829701" stroke-linecap="round" stroke-linejoin="round"/>
<path d="M198.771 169.386V168.012" stroke="#263238" stroke-width="0.829701" stroke-linecap="round" stroke-linejoin="round"/>
<path d="M212.679 169.386V168.012" stroke="#263238" stroke-width="0.829701" stroke-linecap="round" stroke-linejoin="round"/>
<path d="M73.5516 169.386V163.966V108.882" stroke="#263238" stroke-width="0.829701" stroke-linecap="round" stroke-linejoin="round"/>
<path d="M73.5516 163.965H77.0316" stroke="#263238" stroke-width="0.829701" stroke-linecap="round" stroke-linejoin="round"/>
<path d="M73.5516 154.782H77.0316" stroke="#263238" stroke-width="0.829701" stroke-linecap="round" stroke-linejoin="round"/>
<path d="M73.5516 145.599H77.0316" stroke="#263238" stroke-width="0.829701" stroke-linecap="round" stroke-linejoin="round"/>
<path d="M73.5516 136.428H77.0316" stroke="#263238" stroke-width="0.829701" stroke-linecap="round" stroke-linejoin="round"/>
<path d="M73.5516 127.243H77.0316" stroke="#263238" stroke-width="0.829701" stroke-linecap="round" stroke-linejoin="round"/>
<path d="M73.5516 118.066H77.0316" stroke="#263238" stroke-width="0.829701" stroke-linecap="round" stroke-linejoin="round"/>
<path d="M73.5516 108.882H77.0316" stroke="#263238" stroke-width="0.829701" stroke-linecap="round" stroke-linejoin="round"/>
<path d="M237.926 72.0283H215.233V94.9876H237.926V72.0283Z" fill="white" stroke="#263238" stroke-width="0.829701" stroke-linecap="round" stroke-linejoin="round"/>
<path d="M237.926 72.0283H215.233V75.9678H237.926V72.0283Z" fill="#263238" stroke="#263238" stroke-width="1.00786" stroke-linecap="round" stroke-linejoin="round"/>
<path d="M217.314 79.1794V92.2211" stroke="#263238" stroke-width="0.829701" stroke-linecap="round" stroke-linejoin="round"/>
<path d="M220.379 79.1794V92.2211" stroke="#263238" stroke-width="0.829701" stroke-linecap="round" stroke-linejoin="round"/>
<path d="M223.437 79.1794V92.2211" stroke="#263238" stroke-width="0.829701" stroke-linecap="round" stroke-linejoin="round"/>
<path d="M226.503 79.1794V92.2211" stroke="#263238" stroke-width="0.829701" stroke-linecap="round" stroke-linejoin="round"/>
<path d="M229.574 79.1794V92.2211" stroke="#263238" stroke-width="0.829701" stroke-linecap="round" stroke-linejoin="round"/>
<path d="M232.638 79.1794V92.2211" stroke="#263238" stroke-width="0.829701" stroke-linecap="round" stroke-linejoin="round"/>
<path d="M235.704 79.1794V92.2211" stroke="#263238" stroke-width="0.829701" stroke-linecap="round" stroke-linejoin="round"/>
<path d="M235.499 80.886H217.416" stroke="#263238" stroke-width="0.829701" stroke-linecap="round" stroke-linejoin="round"/>
<path d="M235.499 83.2946H217.416" stroke="#263238" stroke-width="0.829701" stroke-linecap="round" stroke-linejoin="round"/>
<path d="M235.499 85.7031H217.416" stroke="#263238" stroke-width="0.829701" stroke-linecap="round" stroke-linejoin="round"/>
<path d="M235.499 88.1124H217.416" stroke="#263238" stroke-width="0.829701" stroke-linecap="round" stroke-linejoin="round"/>
<path d="M235.499 90.5209H217.416" stroke="#263238" stroke-width="0.829701" stroke-linecap="round" stroke-linejoin="round"/>
<path d="M141.976 72.0283C139.805 72.0283 137.683 72.6608 135.878 73.8456C134.073 75.0305 132.666 76.7147 131.836 78.6851C131.005 80.6555 130.788 82.8236 131.211 84.9154C131.635 87.0072 132.68 88.9286 134.215 90.4366C135.75 91.9447 137.706 92.9717 139.835 93.3878C141.964 93.8039 144.171 93.5903 146.177 92.7742C148.182 91.958 149.897 90.5759 151.103 88.8026C152.309 87.0293 152.952 84.9444 152.952 82.8117C152.951 79.9523 151.794 77.2104 149.736 75.1885C147.678 73.1666 144.887 72.03 141.976 72.0283ZM141.976 90.4209C140.439 90.4209 138.936 89.973 137.658 89.1338C136.38 88.2947 135.384 87.102 134.796 85.7066C134.208 84.3113 134.055 82.776 134.355 81.2949C134.656 79.8138 135.396 78.4535 136.484 77.3861C137.571 76.3187 138.956 75.5921 140.464 75.2982C141.972 75.0044 143.535 75.1564 144.954 75.7352C146.374 76.314 147.587 77.2935 148.441 78.5498C149.294 79.806 149.748 81.2827 149.747 82.7928C149.747 83.7951 149.546 84.7875 149.155 85.7134C148.765 86.6393 148.192 87.4805 147.471 88.1889C146.749 88.8973 145.892 89.459 144.95 89.842C144.007 90.225 142.996 90.4217 141.976 90.4209Z" fill="white" stroke="#263238" stroke-width="0.829701" stroke-linecap="round" stroke-linejoin="round"/>
<path d="M141.976 72.0284C140.495 72.0227 139.029 72.3147 137.667 72.8865C136.306 73.4582 135.078 74.2977 134.058 75.3531L136.383 77.5424C137.102 76.7958 137.97 76.202 138.932 75.7974C139.894 75.3928 140.93 75.1861 141.976 75.19C144.037 75.19 146.014 75.9943 147.471 77.426C148.928 78.8577 149.747 80.7996 149.747 82.8243C149.747 84.849 148.928 86.7908 147.471 88.2225C146.014 89.6543 144.037 90.4586 141.976 90.4586V93.5951C144.886 93.6675 147.707 92.6011 149.816 90.6306C151.926 88.6601 153.153 85.9469 153.227 83.0878C153.3 80.2287 152.215 77.4579 150.209 75.3851C148.204 73.3122 145.442 72.107 142.532 72.0347H141.976V72.0284Z" fill="#263238" stroke="#263238" stroke-width="1.00786" stroke-linecap="round" stroke-linejoin="round"/>
<path d="M138.923 82.2408H145.034" stroke="#263238" stroke-width="0.829701" stroke-linecap="round" stroke-linejoin="round"/>
<path d="M138.923 83.3821H145.034" stroke="#263238" stroke-width="0.829701" stroke-linecap="round" stroke-linejoin="round"/>
<path d="M74.0754 69.801H80.186" stroke="#263238" stroke-width="0.829701" stroke-linecap="round" stroke-linejoin="round"/>
<path d="M74.0754 70.9362H80.186" stroke="#263238" stroke-width="0.829701" stroke-linecap="round" stroke-linejoin="round"/>
<path d="M81.6298 69.801H87.7404" stroke="#263238" stroke-width="0.829701" stroke-linecap="round" stroke-linejoin="round"/>
<path d="M81.6298 70.9362H87.7404" stroke="#263238" stroke-width="0.829701" stroke-linecap="round" stroke-linejoin="round"/>
<path d="M89.1703 69.801H95.2809" stroke="#263238" stroke-width="0.829701" stroke-linecap="round" stroke-linejoin="round"/>
<path d="M89.1703 70.9362H95.2809" stroke="#263238" stroke-width="0.829701" stroke-linecap="round" stroke-linejoin="round"/>
<path d="M74.0754 103.186H80.186" stroke="#263238" stroke-width="0.829701" stroke-linecap="round" stroke-linejoin="round"/>
<path d="M74.0754 104.315H80.186" stroke="#263238" stroke-width="0.829701" stroke-linecap="round" stroke-linejoin="round"/>
<path d="M81.6298 103.186H87.7404" stroke="#263238" stroke-width="0.829701" stroke-linecap="round" stroke-linejoin="round"/>
<path d="M81.6298 104.315H87.7404" stroke="#263238" stroke-width="0.829701" stroke-linecap="round" stroke-linejoin="round"/>
<path d="M89.1703 103.186H95.2809" stroke="#263238" stroke-width="0.829701" stroke-linecap="round" stroke-linejoin="round"/>
<path d="M89.1703 104.315H95.2809" stroke="#263238" stroke-width="0.829701" stroke-linecap="round" stroke-linejoin="round"/>
<path d="M216.714 108.926H222.824" stroke="#263238" stroke-width="0.829701" stroke-linecap="round" stroke-linejoin="round"/>
<path d="M224.268 108.926H230.379" stroke="#263238" stroke-width="0.829701" stroke-linecap="round" stroke-linejoin="round"/>
<path d="M231.809 108.926H237.919" stroke="#263238" stroke-width="0.829701" stroke-linecap="round" stroke-linejoin="round"/>
<path d="M216.714 110.318H222.824" stroke="#263238" stroke-width="0.829701" stroke-linecap="round" stroke-linejoin="round"/>
<path d="M224.268 110.318H230.379" stroke="#263238" stroke-width="0.829701" stroke-linecap="round" stroke-linejoin="round"/>
<path d="M231.809 110.318H237.919" stroke="#263238" stroke-width="0.829701" stroke-linecap="round" stroke-linejoin="round"/>
<path d="M216.714 111.724H222.824" stroke="#263238" stroke-width="0.829701" stroke-linecap="round" stroke-linejoin="round"/>
<path d="M224.268 111.724H230.379" stroke="#263238" stroke-width="0.829701" stroke-linecap="round" stroke-linejoin="round"/>
<path d="M231.809 111.724H237.919" stroke="#263238" stroke-width="0.829701" stroke-linecap="round" stroke-linejoin="round"/>
<path d="M216.714 113.116H222.824" stroke="#263238" stroke-width="0.829701" stroke-linecap="round" stroke-linejoin="round"/>
<path d="M224.268 113.116H230.379" stroke="#263238" stroke-width="0.829701" stroke-linecap="round" stroke-linejoin="round"/>
<path d="M231.809 113.116H237.919" stroke="#263238" stroke-width="0.829701" stroke-linecap="round" stroke-linejoin="round"/>
<path d="M216.714 114.515H222.824" stroke="#263238" stroke-width="0.829701" stroke-linecap="round" stroke-linejoin="round"/>
<path d="M224.268 114.515H230.379" stroke="#263238" stroke-width="0.829701" stroke-linecap="round" stroke-linejoin="round"/>
<path d="M231.809 114.515H237.919" stroke="#263238" stroke-width="0.829701" stroke-linecap="round" stroke-linejoin="round"/>
<path d="M216.714 115.92H222.824" stroke="#263238" stroke-width="0.829701" stroke-linecap="round" stroke-linejoin="round"/>
<path d="M224.268 115.92H230.379" stroke="#263238" stroke-width="0.829701" stroke-linecap="round" stroke-linejoin="round"/>
<path d="M231.809 115.92H237.919" stroke="#263238" stroke-width="0.829701" stroke-linecap="round" stroke-linejoin="round"/>
<path d="M216.714 117.313H222.824" stroke="#263238" stroke-width="0.829701" stroke-linecap="round" stroke-linejoin="round"/>
<path d="M224.268 117.313H230.379" stroke="#263238" stroke-width="0.829701" stroke-linecap="round" stroke-linejoin="round"/>
<path d="M231.809 117.313H237.919" stroke="#263238" stroke-width="0.829701" stroke-linecap="round" stroke-linejoin="round"/>
<path d="M216.714 118.718H222.824" stroke="#263238" stroke-width="0.829701" stroke-linecap="round" stroke-linejoin="round"/>
<path d="M224.268 118.718H230.379" stroke="#263238" stroke-width="0.829701" stroke-linecap="round" stroke-linejoin="round"/>
<path d="M231.809 118.718H237.919" stroke="#263238" stroke-width="0.829701" stroke-linecap="round" stroke-linejoin="round"/>
<path d="M216.714 120.111H222.824" stroke="#263238" stroke-width="0.829701" stroke-linecap="round" stroke-linejoin="round"/>
<path d="M224.268 120.111H230.379" stroke="#263238" stroke-width="0.829701" stroke-linecap="round" stroke-linejoin="round"/>
<path d="M231.809 120.111H237.919" stroke="#263238" stroke-width="0.829701" stroke-linecap="round" stroke-linejoin="round"/>
<path d="M216.714 121.516H222.824" stroke="#263238" stroke-width="0.829701" stroke-linecap="round" stroke-linejoin="round"/>
<path d="M224.268 121.516H230.379" stroke="#263238" stroke-width="0.829701" stroke-linecap="round" stroke-linejoin="round"/>
<path d="M231.809 121.516H237.919" stroke="#263238" stroke-width="0.829701" stroke-linecap="round" stroke-linejoin="round"/>
<path d="M216.714 122.915H222.824" stroke="#263238" stroke-width="0.829701" stroke-linecap="round" stroke-linejoin="round"/>
<path d="M224.268 122.915H230.379" stroke="#263238" stroke-width="0.829701" stroke-linecap="round" stroke-linejoin="round"/>
<path d="M231.809 122.915H237.919" stroke="#263238" stroke-width="0.829701" stroke-linecap="round" stroke-linejoin="round"/>
<path d="M216.714 124.307H222.824" stroke="#263238" stroke-width="0.829701" stroke-linecap="round" stroke-linejoin="round"/>
<path d="M224.268 124.307H230.379" stroke="#263238" stroke-width="0.829701" stroke-linecap="round" stroke-linejoin="round"/>
<path d="M231.809 124.307H237.919" stroke="#263238" stroke-width="0.829701" stroke-linecap="round" stroke-linejoin="round"/>
<path d="M216.714 125.713H222.824" stroke="#263238" stroke-width="0.829701" stroke-linecap="round" stroke-linejoin="round"/>
<path d="M224.268 125.713H230.379" stroke="#263238" stroke-width="0.829701" stroke-linecap="round" stroke-linejoin="round"/>
<path d="M231.809 125.713H237.919" stroke="#263238" stroke-width="0.829701" stroke-linecap="round" stroke-linejoin="round"/>
<path d="M216.714 127.105H222.824" stroke="#263238" stroke-width="0.829701" stroke-linecap="round" stroke-linejoin="round"/>
<path d="M224.268 127.105H230.379" stroke="#263238" stroke-width="0.829701" stroke-linecap="round" stroke-linejoin="round"/>
<path d="M231.809 127.105H237.919" stroke="#263238" stroke-width="0.829701" stroke-linecap="round" stroke-linejoin="round"/>
<path d="M216.714 128.511H222.824" stroke="#263238" stroke-width="0.829701" stroke-linecap="round" stroke-linejoin="round"/>
<path d="M224.268 128.511H230.379" stroke="#263238" stroke-width="0.829701" stroke-linecap="round" stroke-linejoin="round"/>
<path d="M231.809 128.511H237.919" stroke="#263238" stroke-width="0.829701" stroke-linecap="round" stroke-linejoin="round"/>
<path d="M167.715 72.0283C165.544 72.0271 163.421 72.6583 161.616 73.8422C159.81 75.026 158.402 76.7093 157.57 78.6793C156.738 80.6492 156.52 82.8172 156.942 84.9092C157.364 87.0013 158.408 88.9233 159.943 90.4322C161.477 91.9412 163.432 92.9693 165.561 93.3866C167.69 93.8039 169.897 93.5916 171.903 92.7766C173.909 91.9616 175.624 90.5804 176.831 88.8078C178.038 87.0352 178.683 84.9507 178.684 82.8179C178.683 79.959 177.527 77.2175 175.47 75.1948C173.414 73.1721 170.625 72.0333 167.715 72.0283ZM167.715 90.4209C166.178 90.4209 164.675 89.973 163.397 89.1338C162.119 88.2947 161.123 87.102 160.535 85.7066C159.947 84.3113 159.793 82.776 160.094 81.2949C160.394 79.8138 161.135 78.4535 162.222 77.3861C163.31 76.3187 164.695 75.5921 166.203 75.2982C167.71 75.0044 169.273 75.1564 170.693 75.7352C172.113 76.314 173.326 77.2935 174.179 78.5498C175.032 79.806 175.487 81.2827 175.486 82.7929C175.486 83.7951 175.284 84.7875 174.894 85.7134C174.503 86.6393 173.931 87.4805 173.209 88.1889C172.487 88.8973 171.631 89.459 170.688 89.842C169.745 90.225 168.735 90.4217 167.715 90.4209Z" fill="white" stroke="#263238" stroke-width="0.829701" stroke-linecap="round" stroke-linejoin="round"/>
<path d="M175.269 80.9985L178.301 79.8819C177.778 78.0527 176.772 76.3921 175.384 75.0685C173.997 73.7449 172.277 72.8055 170.401 72.3456C168.524 71.8856 166.557 71.9216 164.7 72.4497C162.842 72.9778 161.159 73.9794 159.823 75.3527L162.147 77.542C163.107 76.556 164.319 75.8417 165.657 75.474C166.995 75.1063 168.408 75.0988 169.75 75.4522C171.091 75.8056 172.312 76.5069 173.282 77.4827C174.253 78.4584 174.939 79.6728 175.269 80.9985Z" fill="#263238" stroke="#263238" stroke-width="1.00786" stroke-linecap="round" stroke-linejoin="round"/>
<path d="M164.515 82.2408H170.626" stroke="#263238" stroke-width="0.829701" stroke-linecap="round" stroke-linejoin="round"/>
<path d="M164.515 83.3821H170.626" stroke="#263238" stroke-width="0.829701" stroke-linecap="round" stroke-linejoin="round"/>
<path d="M203.299 76.2818C201.984 74.5863 200.187 73.3118 198.135 72.6195C196.083 71.9273 193.869 71.8482 191.771 72.3925C189.674 72.9367 187.787 74.0798 186.351 75.6771C184.915 77.2745 183.993 79.2544 183.702 81.3665C183.411 83.4786 183.764 85.628 184.716 87.5431C185.668 89.4581 187.177 91.0527 189.052 92.1253C190.927 93.1979 193.083 93.7002 195.248 93.5689C197.414 93.4375 199.491 92.6783 201.217 91.3872C202.364 90.5303 203.328 89.4596 204.054 88.2364C204.779 87.0132 205.252 85.6614 205.445 84.2585C205.639 82.8555 205.549 81.4289 205.18 80.0602C204.812 78.6914 204.173 77.4075 203.299 76.2818ZM188.402 87.4289C187.469 86.2292 186.919 84.7846 186.821 83.2778C186.724 81.7709 187.083 80.2695 187.854 78.9634C188.626 77.6573 189.773 76.6051 191.153 75.94C192.533 75.2749 194.082 75.0266 195.606 75.2266C197.129 75.4266 198.558 76.0659 199.711 77.0637C200.865 78.0614 201.691 79.3728 202.086 80.832C202.481 82.2912 202.427 83.8327 201.93 85.2615C201.433 86.6903 200.516 87.9423 199.295 88.8592C197.657 90.0871 195.59 90.6262 193.547 90.358C191.505 90.0899 189.654 89.0364 188.402 87.4289Z" fill="white" stroke="#263238" stroke-width="0.829701" stroke-linecap="round" stroke-linejoin="round"/>
<path d="M200.592 87.5911L203.338 89.2911C204.5 87.7727 205.233 85.9797 205.463 84.0934C205.693 82.2072 205.412 80.2947 204.648 78.5496C203.884 76.8045 202.664 75.2886 201.112 74.1555C199.56 73.0223 197.731 72.3121 195.81 72.0967L195.439 75.2332C196.815 75.3944 198.122 75.914 199.225 76.7384C200.328 77.5628 201.186 78.6618 201.711 79.9217C202.236 81.1815 202.408 82.5564 202.211 83.9038C202.013 85.2511 201.452 86.5221 200.586 87.5848L200.592 87.5911Z" fill="#263238" stroke="#263238" stroke-width="1.00786" stroke-linecap="round" stroke-linejoin="round"/>
<path d="M191.364 82.2408H197.475" stroke="#263238" stroke-width="0.829701" stroke-linecap="round" stroke-linejoin="round"/>
<path d="M191.364 83.3821H197.475" stroke="#263238" stroke-width="0.829701" stroke-linecap="round" stroke-linejoin="round"/>
<path d="M235.792 151.695C234.478 150 232.681 148.725 230.629 148.033C228.577 147.341 226.363 147.262 224.265 147.806C222.167 148.35 220.281 149.493 218.845 151.091C217.409 152.688 216.487 154.668 216.195 156.78C215.904 158.892 216.257 161.042 217.21 162.957C218.162 164.872 219.671 166.466 221.546 167.539C223.42 168.611 225.577 169.114 227.742 168.982C229.908 168.851 231.985 168.092 233.711 166.801C234.857 165.943 235.82 164.872 236.546 163.649C237.271 162.426 237.743 161.074 237.937 159.672C238.13 158.269 238.04 156.843 237.672 155.474C237.304 154.105 236.665 152.821 235.792 151.695ZM220.896 162.83C219.964 161.629 219.416 160.184 219.321 158.677C219.225 157.17 219.586 155.669 220.359 154.364C221.132 153.059 222.281 152.008 223.661 151.345C225.042 150.681 226.592 150.435 228.115 150.637C229.638 150.838 231.065 151.479 232.218 152.478C233.37 153.477 234.195 154.789 234.588 156.249C234.982 157.708 234.926 159.25 234.427 160.678C233.929 162.106 233.011 163.357 231.789 164.273C230.977 164.881 230.052 165.326 229.065 165.583C228.078 165.839 227.05 165.902 226.038 165.768C225.027 165.634 224.052 165.306 223.169 164.802C222.287 164.298 221.514 163.628 220.896 162.83Z" fill="#51C0D7" stroke="#263238" stroke-width="1.10627" stroke-linecap="round" stroke-linejoin="round"/>
<path d="M233.079 163.006L235.831 164.7C236.994 163.183 237.727 161.39 237.958 159.505C238.188 157.619 237.908 155.707 237.144 153.963C236.381 152.218 235.162 150.703 233.61 149.57C232.059 148.437 230.23 147.727 228.31 147.512L227.939 150.648C229.316 150.809 230.623 151.328 231.727 152.152C232.83 152.977 233.688 154.076 234.213 155.337C234.737 156.597 234.909 157.972 234.709 159.32C234.51 160.668 233.947 161.938 233.079 163V163.006Z" fill="#263238" stroke="#263238" stroke-width="1.00786" stroke-linecap="round" stroke-linejoin="round"/>
<path d="M223.86 157.655H229.97" stroke="#263238" stroke-width="0.829701" stroke-linecap="round" stroke-linejoin="round"/>
<path d="M223.86 158.784H229.97" stroke="#263238" stroke-width="0.829701" stroke-linecap="round" stroke-linejoin="round"/>
<path d="M67.8566 78.9032L66.0879 74.9637" stroke="#263238" stroke-width="0.553134" stroke-linecap="round" stroke-linejoin="round"/>
<path d="M68.8527 78.7654L67.3905 74.0544" stroke="#263238" stroke-width="0.553134" stroke-linecap="round" stroke-linejoin="round"/>
<path d="M127.118 63.6913L124.046 58.3843" stroke="#263238" stroke-width="0.553134" stroke-linecap="round" stroke-linejoin="round"/>
<path d="M127.028 61.7715L125.63 58.842" stroke="#263238" stroke-width="0.553134" stroke-linecap="round" stroke-linejoin="round"/>
<path d="M14.4165 234.178H3.04883" stroke="#2C2C2C" stroke-width="0.75" stroke-miterlimit="10" stroke-linecap="round"/>
<path d="M302.223 234.178H20.6152" stroke="#2C2C2C" stroke-width="0.75" stroke-miterlimit="10" stroke-linecap="round"/>
<path d="M323.925 234.178H305.84" stroke="#2C2C2C" stroke-width="0.75" stroke-miterlimit="10" stroke-linecap="round"/>
<path d="M41.7127 192.343L26.1412 251.83H60.8691L45.2977 192.343C45.2031 191.939 44.9745 191.578 44.649 191.32C44.3236 191.062 43.9205 190.922 43.5052 190.922C43.0899 190.922 42.6868 191.062 42.3613 191.32C42.0359 191.578 41.8073 191.939 41.7127 192.343Z" fill="#2E9DB6" stroke="#2C2C2C" stroke-linecap="round" stroke-linejoin="round"/>
<path d="M26.1412 251.83H54.4342L40.2877 197.78L26.1412 251.83Z" fill="#2C2C2C" stroke="#2C2C2C" stroke-linecap="round" stroke-linejoin="round"/>
<path d="M64.3745 250.526H21.0572C19.7981 250.526 18.7773 251.546 18.7773 252.805V253.096C18.7773 254.355 19.7981 255.376 21.0572 255.376H64.3745C65.6336 255.376 66.6543 254.355 66.6543 253.096V252.805C66.6543 251.546 65.6336 250.526 64.3745 250.526Z" fill="#2E9DB6" stroke="#2C2C2C" stroke-linecap="round" stroke-linejoin="round"/>
<path d="M49.5497 250.526H21.0572C19.7981 250.526 18.7773 251.546 18.7773 252.805V253.096C18.7773 254.355 19.7981 255.376 21.0572 255.376H49.5497C50.8088 255.376 51.8296 254.355 51.8296 253.096V252.805C51.8296 251.546 50.8088 250.526 49.5497 250.526Z" fill="#2C2C2C" stroke="#2C2C2C" stroke-linecap="round" stroke-linejoin="round"/>
<path d="M32.3546 228.103H54.6573L51.9614 217.798H35.0505L32.3546 228.103Z" fill="white" stroke="#2C2C2C" stroke-linecap="round" stroke-linejoin="round"/>
<path d="M32.3546 228.103H48.2281L45.5322 217.798H35.0505L32.3546 228.103Z" fill="#BABABA" stroke="#2C2C2C" stroke-linecap="round" stroke-linejoin="round"/>
<path d="M288.066 109.632L276.469 135.331L273.249 140.764L280.055 143.749L281.441 143.112L302.113 112.304L288.066 109.632Z" fill="#2C2C2C"/>
<path d="M279.812 138.322L261.661 116.746L255.91 112.461L251.625 114.317L252.496 117.853L271.272 144.046L279.812 138.322Z" fill="#2C2C2C"/>
<path d="M281.944 141.733C282.723 137.49 282.014 133.805 280.362 133.502C278.709 133.198 276.738 136.392 275.959 140.634C275.181 144.876 275.889 148.561 277.542 148.865C279.194 149.168 281.165 145.975 281.944 141.733Z" fill="white"/>
<path d="M278.468 149.11C278.128 149.254 277.794 149.293 277.462 149.239C276.5 149.06 275.78 148.017 275.453 146.302C275.145 144.703 275.187 142.667 275.572 140.568C275.957 138.469 276.637 136.553 277.501 135.167C278.421 133.674 279.456 132.957 280.426 133.132C281.387 133.311 282.108 134.354 282.434 136.069C282.743 137.668 282.701 139.703 282.316 141.803C281.93 143.902 281.25 145.818 280.387 147.204C279.783 148.181 279.122 148.832 278.468 149.11ZM277.606 148.487C278.232 148.603 279.009 147.984 279.75 146.795C280.553 145.486 281.21 143.662 281.573 141.655C281.944 139.644 281.988 137.71 281.696 136.197C281.433 134.826 280.917 133.974 280.291 133.859C279.666 133.743 278.888 134.362 278.148 135.551C277.344 136.86 276.687 138.684 276.325 140.691C275.962 142.699 275.909 144.636 276.202 146.149C276.468 147.529 276.972 148.376 277.606 148.487Z" fill="#2C2C2C"/>
<path d="M278.753 141.531C280.474 137.587 280.616 133.843 279.071 133.169C277.527 132.495 274.879 135.146 273.159 139.09C271.438 143.034 271.296 146.777 272.841 147.451C274.386 148.125 277.033 145.474 278.753 141.531Z" fill="white"/>
<path d="M274.292 147.727C274.248 147.746 274.196 147.768 274.152 147.786C273.592 147.994 273.078 147.996 272.637 147.781C271.755 147.353 271.319 146.158 271.404 144.392C271.48 142.753 271.998 140.773 272.862 138.83C274.207 135.788 276.132 133.437 277.771 132.834C278.332 132.626 278.846 132.624 279.287 132.839C280.169 133.267 280.604 134.462 280.52 136.228C280.443 137.867 279.925 139.847 279.061 141.79C277.743 144.748 275.889 147.049 274.292 147.727ZM277.915 133.586C276.511 134.182 274.768 136.384 273.557 139.133C272.732 140.997 272.241 142.873 272.158 144.422C272.091 145.841 272.387 146.806 272.969 147.084C273.216 147.206 273.531 147.196 273.896 147.061C273.931 147.046 273.966 147.032 274.009 147.013C275.414 146.417 277.156 144.215 278.368 141.466C279.193 139.602 279.683 137.726 279.767 136.177C279.834 134.758 279.537 133.793 278.956 133.515C278.709 133.393 278.394 133.403 278.029 133.538C277.989 133.565 277.95 133.571 277.915 133.586Z" fill="#2C2C2C"/>
<path d="M248.134 108.321L251.855 105.697C252.232 105.428 252.755 105.519 253.015 105.893L264.251 118.61C265.579 120.488 265.127 123.086 263.251 124.404L261.805 125.426C259.926 126.754 257.329 126.303 256.01 124.426L247.938 109.481C247.669 109.104 247.758 108.59 248.134 108.321Z" fill="white"/>
<path d="M258.464 126.475C257.379 126.246 256.377 125.627 255.692 124.65L255.67 124.616L247.614 109.684C247.436 109.424 247.367 109.109 247.423 108.801C247.48 108.484 247.656 108.201 247.918 108.014L251.639 105.39C252.175 105.009 252.925 105.128 253.315 105.666L264.551 118.383L264.567 118.396C266.014 120.445 265.523 123.276 263.474 124.723L262.028 125.745C260.95 126.495 259.661 126.727 258.464 126.475ZM256.332 124.233C257.535 125.92 259.892 126.321 261.587 125.128L263.033 124.107C264.729 122.905 265.139 120.551 263.956 118.858L252.723 106.132L252.706 106.119C252.565 105.915 252.276 105.863 252.069 106.013L248.359 108.63L248.143 108.323L248.359 108.63C248.258 108.696 248.196 108.809 248.172 108.92C248.147 109.041 248.179 109.164 248.247 109.256L248.269 109.289L256.332 124.233Z" fill="#2C2C2C"/>
<path d="M254.529 113.584C255.724 112.742 256.503 111.531 256.82 110.212L253.012 105.902C252.743 105.526 252.229 105.437 251.852 105.706L248.133 108.321C247.756 108.59 247.667 109.104 247.937 109.481L250.717 114.62C252.021 114.731 253.37 114.395 254.529 113.584Z" fill="#50BFD7"/>
<path d="M250.476 114.986L247.614 109.684C247.436 109.424 247.367 109.109 247.422 108.801C247.479 108.484 247.655 108.201 247.918 108.014L251.639 105.39C251.901 105.203 252.225 105.136 252.544 105.184C252.852 105.239 253.128 105.404 253.316 105.657L257.242 110.098L257.191 110.291C256.836 111.746 255.965 113.025 254.748 113.882C253.562 114.727 252.123 115.121 250.686 115.001L250.476 114.986ZM252.434 105.936C252.425 105.934 252.425 105.934 252.416 105.932C252.295 105.906 252.172 105.938 252.08 106.006L248.359 108.63C248.258 108.696 248.195 108.809 248.172 108.92C248.146 109.041 248.179 109.164 248.246 109.256L248.268 109.289L250.943 114.242C252.143 114.292 253.329 113.951 254.308 113.257C255.333 112.534 256.067 111.487 256.407 110.29L252.715 106.121L252.698 106.107C252.638 106.027 252.546 105.959 252.434 105.936Z" fill="#2C2C2C"/>
<path d="M247.773 110.134C247.773 110.134 250.551 111.796 253.37 108.904C256.198 106.013 253.043 103.342 253.015 101.225C252.987 99.1073 252.637 96.3599 251.685 96.3721C250.733 96.3843 249.719 100.316 249.735 101.482C249.75 102.648 245.312 99.2601 244.188 98.1608C243.064 97.0614 242.737 91.8197 241.571 91.8353C240.405 91.8508 240.443 99.4725 240.453 100.482C240.465 101.482 246.697 109.084 247.773 110.134Z" fill="white"/>
<path d="M248.748 110.882C248.043 110.734 247.594 110.474 247.568 110.459L247.535 110.433L247.504 110.397C246.917 109.828 245.006 107.545 243.411 105.513C240.074 101.264 240.069 100.691 240.068 100.468C240.059 100.05 240.049 97.8489 240.183 95.7461C240.437 91.9735 240.993 91.4515 241.556 91.4444C242.487 91.4376 242.86 92.9304 243.342 94.8241C243.654 96.0524 244 97.4428 244.441 97.875C244.892 98.3092 245.981 99.2074 247.11 100.008C248.492 100.987 249.107 101.243 249.346 101.303C249.377 100.602 249.634 99.3874 249.978 98.3557C250.759 95.9828 251.449 95.9733 251.672 95.972C252.633 95.9617 252.954 97.4243 253.057 97.9013C253.25 98.7751 253.366 99.9716 253.386 101.206C253.395 101.808 253.711 102.514 254.049 103.254C254.8 104.924 255.738 107.001 253.638 109.144C252.081 110.743 250.522 111.015 249.487 110.961C249.225 110.964 248.971 110.929 248.748 110.882ZM248.003 109.824C248.334 110.001 250.664 111.122 253.097 108.633C254.828 106.857 254.086 105.19 253.359 103.583C252.991 102.76 252.64 101.988 252.635 101.232C252.621 100.057 252.507 98.8992 252.33 98.0869C252.098 97.0305 251.807 96.756 251.692 96.7511C251.591 96.7686 251.178 97.1657 250.684 98.6792C250.319 99.8129 250.108 100.998 250.114 101.474C250.116 101.737 249.984 101.951 249.769 102.051C249.556 102.141 249.099 102.335 246.803 100.727C245.589 99.8706 244.408 98.9045 243.919 98.4234C243.325 97.8427 242.975 96.4709 242.613 95.019C242.411 94.2306 242.222 93.4739 242.009 92.9251C241.8 92.3969 241.655 92.2596 241.594 92.2274C241.483 92.3396 241.118 92.9696 240.93 96.1072C240.811 98.0968 240.832 100.106 240.83 100.484C240.837 100.543 241 101.237 244.061 105.137C245.753 107.267 247.458 109.283 248.003 109.824Z" fill="#2C2C2C"/>
<path d="M355.164 109.632L366.762 135.331L369.981 140.764L363.176 143.749L361.789 143.112L341.117 112.304L355.164 109.632Z" fill="#2C2C2C"/>
<path d="M363.419 138.322L381.57 116.746L387.321 112.461L391.606 114.317L390.735 117.853L371.959 144.046L363.419 138.322Z" fill="#2C2C2C"/>
<path d="M361.287 141.733C360.508 137.49 361.216 133.805 362.869 133.502C364.522 133.198 366.493 136.392 367.272 140.634C368.05 144.876 367.342 148.561 365.689 148.865C364.037 149.168 362.066 145.975 361.287 141.733Z" fill="white"/>
<path d="M364.763 149.11C365.103 149.254 365.437 149.293 365.769 149.239C366.731 149.06 367.451 148.017 367.778 146.302C368.086 144.703 368.044 142.667 367.659 140.568C367.274 138.469 366.594 136.553 365.73 135.167C364.809 133.674 363.775 132.957 362.805 133.132C361.844 133.311 361.123 134.354 360.797 136.069C360.488 137.668 360.53 139.703 360.915 141.803C361.301 143.902 361.981 145.818 362.844 147.204C363.448 148.181 364.109 148.832 364.763 149.11ZM365.625 148.487C364.999 148.603 364.222 147.984 363.481 146.795C362.678 145.486 362.021 143.662 361.658 141.655C361.286 139.644 361.243 137.71 361.535 136.197C361.798 134.826 362.314 133.974 362.94 133.859C363.565 133.743 364.343 134.362 365.083 135.551C365.887 136.86 366.544 138.684 366.906 140.691C367.269 142.699 367.322 144.636 367.029 146.149C366.763 147.529 366.259 148.376 365.625 148.487Z" fill="#2C2C2C"/>
<path d="M364.479 141.531C362.758 137.587 362.616 133.843 364.161 133.169C365.705 132.495 368.353 135.146 370.073 139.09C371.794 143.034 371.936 146.777 370.391 147.451C368.847 148.125 366.199 145.474 364.479 141.531Z" fill="white"/>
<path d="M368.94 147.727C368.984 147.746 369.036 147.768 369.08 147.786C369.64 147.994 370.154 147.996 370.595 147.781C371.478 147.353 371.913 146.158 371.828 144.392C371.752 142.753 371.234 140.773 370.37 138.83C369.025 135.788 367.1 133.437 365.461 132.834C364.901 132.626 364.387 132.624 363.945 132.839C363.063 133.267 362.628 134.462 362.712 136.228C362.789 137.867 363.307 139.847 364.171 141.79C365.489 144.748 367.344 147.049 368.94 147.727ZM365.317 133.586C366.721 134.182 368.464 136.384 369.675 139.133C370.5 140.997 370.991 142.873 371.074 144.422C371.141 145.841 370.845 146.806 370.263 147.084C370.016 147.206 369.701 147.196 369.336 147.061C369.301 147.046 369.266 147.032 369.223 147.013C367.818 146.417 366.076 144.215 364.864 141.466C364.039 139.602 363.549 137.726 363.465 136.177C363.398 134.758 363.695 133.793 364.276 133.515C364.524 133.393 364.838 133.403 365.204 133.538C365.243 133.565 365.282 133.571 365.317 133.586Z" fill="#2C2C2C"/>
<path d="M395.097 108.321L391.375 105.697C390.999 105.428 390.476 105.519 390.216 105.893L378.98 118.61C377.652 120.488 378.104 123.086 379.98 124.404L381.426 125.426C383.304 126.754 385.902 126.303 387.221 124.426L395.293 109.481C395.562 109.104 395.473 108.59 395.097 108.321Z" fill="white"/>
<path d="M384.766 126.475C385.851 126.246 386.854 125.627 387.539 124.65L387.561 124.616L395.617 109.684C395.795 109.424 395.864 109.109 395.808 108.801C395.751 108.484 395.575 108.201 395.313 108.014L391.592 105.39C391.056 105.009 390.306 105.128 389.916 105.666L378.68 118.383L378.664 118.396C377.217 120.445 377.708 123.276 379.757 124.723L381.203 125.745C382.281 126.495 383.57 126.727 384.766 126.475ZM386.899 124.233C385.696 125.92 383.339 126.321 381.644 125.128L380.198 124.107C378.501 122.905 378.092 120.551 379.275 118.858L390.508 106.132L390.525 106.119C390.666 105.915 390.955 105.863 391.162 106.013L394.872 108.63L395.088 108.323L394.872 108.63C394.973 108.696 395.035 108.809 395.059 108.92C395.084 109.041 395.052 109.164 394.984 109.256L394.962 109.289L386.899 124.233Z" fill="#2C2C2C"/>
<path d="M388.702 113.584C387.507 112.742 386.728 111.531 386.411 110.212L390.219 105.902C390.488 105.526 391.002 105.437 391.379 105.706L395.098 108.321C395.474 108.59 395.564 109.104 395.294 109.481L392.514 114.62C391.21 114.731 389.861 114.395 388.702 113.584Z" fill="#50BFD7"/>
<path d="M392.755 114.986L395.617 109.684C395.795 109.424 395.864 109.109 395.809 108.801C395.752 108.484 395.576 108.201 395.313 108.014L391.592 105.39C391.33 105.203 391.006 105.136 390.686 105.184C390.379 105.239 390.103 105.404 389.915 105.657L385.989 110.098L386.04 110.291C386.395 111.746 387.266 113.025 388.483 113.882C389.669 114.727 391.108 115.121 392.545 115.001L392.755 114.986ZM390.797 105.936C390.806 105.934 390.806 105.934 390.815 105.932C390.936 105.906 391.059 105.938 391.151 106.006L394.872 108.63C394.973 108.696 395.036 108.809 395.059 108.92C395.085 109.041 395.052 109.164 394.985 109.256L394.963 109.289L392.288 114.242C391.088 114.292 389.902 113.951 388.923 113.257C387.898 112.534 387.164 111.487 386.824 110.29L390.516 106.121L390.533 106.107C390.593 106.027 390.685 105.959 390.797 105.936Z" fill="#2C2C2C"/>
<path d="M395.458 110.134C395.458 110.134 392.68 111.796 389.861 108.904C387.033 106.013 390.188 103.342 390.216 101.225C390.244 99.1073 390.594 96.3599 391.546 96.3721C392.498 96.3843 393.512 100.316 393.496 101.482C393.481 102.648 397.919 99.2601 399.043 98.1608C400.167 97.0614 400.494 91.8197 401.66 91.8353C402.826 91.8508 402.788 99.4725 402.778 100.482C402.766 101.482 396.534 109.084 395.458 110.134Z" fill="white"/>
<path d="M394.483 110.882C395.188 110.734 395.637 110.474 395.663 110.459L395.696 110.433L395.727 110.397C396.314 109.828 398.225 107.545 399.82 105.513C403.157 101.264 403.162 100.691 403.163 100.468C403.172 100.05 403.182 97.8489 403.048 95.7461C402.794 91.9735 402.238 91.4515 401.675 91.4444C400.744 91.4376 400.371 92.9304 399.889 94.8241C399.577 96.0524 399.231 97.4428 398.79 97.875C398.339 98.3092 397.25 99.2074 396.121 100.008C394.739 100.987 394.124 101.243 393.885 101.303C393.853 100.602 393.597 99.3874 393.253 98.3557C392.472 95.9828 391.782 95.9733 391.559 95.972C390.598 95.9617 390.277 97.4243 390.174 97.9013C389.981 98.7751 389.865 99.9716 389.845 101.206C389.836 101.808 389.52 102.514 389.182 103.254C388.431 104.924 387.493 107.001 389.592 109.144C391.15 110.743 392.709 111.015 393.744 110.961C394.006 110.964 394.26 110.929 394.483 110.882ZM395.228 109.824C394.897 110.001 392.567 111.122 390.134 108.633C388.403 106.857 389.145 105.19 389.872 103.583C390.24 102.76 390.591 101.988 390.596 101.232C390.61 100.057 390.724 98.8992 390.901 98.0869C391.133 97.0305 391.424 96.756 391.539 96.7511C391.64 96.7686 392.053 97.1657 392.547 98.6792C392.912 99.8129 393.123 100.998 393.117 101.474C393.115 101.737 393.247 101.951 393.462 102.051C393.675 102.141 394.132 102.335 396.427 100.727C397.642 99.8706 398.823 98.9045 399.312 98.4234C399.906 97.8427 400.256 96.4709 400.618 95.019C400.82 94.2306 401.009 93.4739 401.222 92.9251C401.431 92.3969 401.576 92.2596 401.637 92.2274C401.748 92.3396 402.113 92.9696 402.301 96.1072C402.42 98.0968 402.399 100.106 402.401 100.484C402.394 100.543 402.231 101.237 399.17 105.137C397.478 107.267 395.773 109.283 395.228 109.824Z" fill="#2C2C2C"/>
<path d="M321.509 99.2536C324.58 99.2536 329.366 98.6186 329.366 96.5335L328.58 89.5768L327.888 83.4921C327.888 81.4069 325.395 79.7104 322.324 79.7104C320.789 79.7104 319.396 80.1369 318.391 80.8193C317.386 81.5017 316.761 82.4495 316.761 83.4921L316.088 89.5863L315.434 95.4246C314.543 98.9503 321.509 99.2536 321.509 99.2536Z" fill="#2C2C2C"/>
<path d="M321.509 171.133C324.58 171.133 329.366 170.498 329.366 168.413L328.58 161.456L327.888 155.372C327.888 153.286 325.395 151.59 322.324 151.59C320.789 151.59 319.396 152.016 318.391 152.699C317.386 153.381 316.761 154.329 316.761 155.372L316.088 161.466L315.434 167.304C314.543 170.83 321.509 171.133 321.509 171.133Z" fill="#2C2C2C"/>
<path d="M359.109 108.315C359.109 114.362 355.148 118.105 349.101 118.105C343.054 118.105 338.154 113.205 338.154 107.159C338.154 101.112 342.722 94.4394 348.485 96.2496C354.835 98.2305 359.109 102.268 359.109 108.315Z" fill="white"/>
<path d="M349.1 118.485C342.855 118.485 337.775 113.405 337.775 107.159C337.775 103.14 339.68 99.0459 342.504 96.9703C344.381 95.596 346.485 95.2169 348.598 95.8804C355.612 98.0792 359.479 102.496 359.479 108.306C359.488 114.485 355.403 118.485 349.1 118.485ZM346.579 96.3258C345.319 96.3258 344.087 96.7523 342.949 97.5864C340.343 99.5009 338.533 103.434 338.533 107.159C338.533 112.988 343.272 117.727 349.1 117.727C351.982 117.727 354.408 116.855 356.105 115.206C357.82 113.547 358.73 111.159 358.73 108.315C358.73 102.865 355.053 98.7047 348.38 96.6101C347.774 96.4206 347.176 96.3258 346.579 96.3258Z" fill="#2C2C2C"/>
<path d="M354.179 106.552C354.179 111.025 351.251 113.793 346.777 113.793C342.304 113.793 338.683 110.172 338.683 105.699C338.683 101.225 342.057 96.2872 346.322 97.6236C351.014 99.1021 354.179 102.088 354.179 106.552Z" fill="#2C2C2C"/>
<path d="M285.645 108.315C285.645 114.362 289.606 118.105 295.653 118.105C301.7 118.105 306.6 113.205 306.6 107.159C306.6 101.112 302.032 94.4394 296.269 96.2497C289.919 98.2305 285.645 102.268 285.645 108.315Z" fill="white"/>
<path d="M295.653 118.485C289.341 118.485 285.265 114.495 285.265 108.315C285.265 102.505 289.132 98.0885 296.146 95.8896C298.259 95.2262 300.373 95.6053 302.24 96.9796C305.074 99.0552 306.97 103.15 306.97 107.168C306.979 113.405 301.899 118.485 295.653 118.485ZM298.174 96.3256C297.577 96.3256 296.98 96.4204 296.383 96.6099C289.71 98.7045 286.033 102.865 286.033 108.315C286.033 111.158 286.943 113.547 288.658 115.205C290.364 116.854 292.781 117.726 295.663 117.726C301.491 117.726 306.23 112.988 306.23 107.159C306.23 103.434 304.411 99.4912 301.814 97.5861C300.657 96.7426 299.435 96.3256 298.174 96.3256Z" fill="#2C2C2C"/>
<path d="M290.574 106.552C290.574 111.025 293.503 113.793 297.976 113.793C302.45 113.793 306.07 110.172 306.07 105.699C306.07 101.225 302.696 96.2873 298.431 97.6237C293.73 99.1022 290.574 102.088 290.574 106.552Z" fill="#2C2C2C"/>
<path d="M329.566 91.7849H315.15C308.857 92.3536 302.839 93.6521 297.219 95.5761L308.004 150.869C308.781 154.869 312.288 157.76 316.364 157.76H328.552C332.637 157.76 336.153 154.86 336.921 150.841L347.508 95.5761C341.887 93.6521 335.869 92.3536 329.566 91.7849Z" fill="white"/>
<path d="M328.552 158.139H316.363C312.117 158.139 308.44 155.116 307.634 150.946L296.782 95.3206L297.095 95.2164C302.839 93.2545 308.895 91.9655 315.112 91.4063H315.15H329.585H329.604C335.821 91.9655 341.887 93.245 347.631 95.2164L347.943 95.3206L337.29 150.917C336.494 155.097 332.817 158.139 328.552 158.139ZM297.654 95.823L308.374 150.794C309.113 154.604 312.478 157.372 316.363 157.372H328.552C332.447 157.372 335.812 154.595 336.542 150.766L347.062 95.823C341.47 93.9369 335.575 92.7048 329.538 92.1551H315.169C309.132 92.7048 303.237 93.9369 297.654 95.823Z" fill="#2C2C2C"/>
<path d="M304.651 93.453C306.007 102.021 307.362 110.589 308.717 119.147C309.93 125.592 316.043 129.886 322.422 129.924C328.801 129.886 334.914 125.602 336.127 119.147C337.482 110.589 338.838 102.03 340.193 93.4815C336.762 92.6853 333.208 92.1072 329.568 91.7849H315.153C311.551 92.1072 308.044 92.6759 304.651 93.453Z" fill="#50BFD7"/>
<path d="M322.431 130.303C319.18 130.284 315.977 129.204 313.408 127.242C310.735 125.214 308.944 122.361 308.347 119.214V119.205L304.224 93.1597L304.565 93.0839C308.006 92.2877 311.56 91.7286 315.114 91.4063H315.152H329.587H329.606C333.207 91.7286 336.799 92.3067 340.287 93.1123L340.628 93.1881L336.506 119.214C335.918 122.361 334.117 125.204 331.444 127.242C328.876 129.204 325.672 130.284 322.431 130.303ZM309.096 119.091C309.655 122.048 311.342 124.73 313.863 126.645C316.308 128.502 319.351 129.535 322.431 129.545C325.511 129.526 328.554 128.493 330.989 126.645C333.511 124.73 335.198 122.048 335.757 119.091L339.766 93.7758C336.43 93.0175 332.999 92.4773 329.549 92.1645H315.171C311.768 92.4678 308.375 92.9986 305.077 93.7473L309.096 119.091Z" fill="#2C2C2C"/>
<path d="M325.84 104.76H318.561C316.627 104.76 315.054 106.334 315.054 108.267V115.546C315.054 117.48 316.627 119.053 318.561 119.053H325.84C327.773 119.053 329.346 117.48 329.346 115.546V108.267C329.346 106.334 327.783 104.76 325.84 104.76ZM313.12 101.661C312.012 101.661 311.111 102.562 311.111 103.671C311.111 104.779 312.012 105.68 313.12 105.68C314.229 105.68 315.13 104.779 315.13 103.671C315.13 102.562 314.229 101.661 313.12 101.661Z" fill="white"/>
<path d="M325.329 109.102C324.864 107.86 323.68 107.035 322.353 107.035H320.381L324.277 116.911H328.457L325.329 109.102ZM317.367 114.077L316.23 116.911H320.381L322.315 112.011H320.344C319.017 112.011 317.832 112.836 317.367 114.077ZM318.012 109.49C318.694 109.49 319.254 108.931 319.254 108.249C319.254 107.566 318.694 107.007 318.012 107.007C317.33 107.007 316.77 107.566 316.77 108.249C316.77 108.931 317.33 109.49 318.012 109.49Z" fill="#50BFD7"/>
<path d="M329.416 88.0509H315.322C313.294 88.0509 311.626 86.3923 311.626 84.3546C311.626 82.3264 313.284 80.6583 315.322 80.6583H329.416C331.444 80.6583 333.112 82.3169 333.112 84.3546C333.103 86.3923 331.444 88.0509 329.416 88.0509Z" fill="#50BFD7"/>
<path d="M329.415 88.4299H315.322C313.076 88.4299 311.246 86.6006 311.246 84.3544C311.246 82.1082 313.076 80.279 315.322 80.279H329.415C331.662 80.279 333.491 82.1082 333.491 84.3544C333.491 86.6006 331.652 88.4299 329.415 88.4299ZM315.322 81.0467C313.493 81.0467 312.005 82.5347 312.005 84.3639C312.005 86.1931 313.493 87.6811 315.322 87.6811H329.415C331.245 87.6811 332.733 86.1931 332.733 84.3639C332.733 82.5347 331.245 81.0467 329.415 81.0467H315.322Z" fill="#2C2C2C"/>
<path d="M323.149 12.9682H321.576V23.28H323.149V12.9682Z" fill="#2C2C2C"/>
<path d="M328.807 25.4501H315.917C315.68 25.4501 315.49 25.2606 315.49 25.0236V19.1095C315.49 18.8725 315.68 18.683 315.917 18.683H328.807C329.043 18.683 329.233 18.8725 329.233 19.1095V25.0331C329.233 25.2606 329.043 25.4501 328.807 25.4501Z" fill="#50BFD7"/>
<path d="M328.806 25.8297H315.916C315.471 25.8297 315.111 25.4696 315.111 25.0241V19.11C315.111 18.6645 315.471 18.3044 315.916 18.3044H328.806C329.252 18.3044 329.612 18.6645 329.612 19.11V25.0336C329.612 25.4696 329.252 25.8297 328.806 25.8297ZM315.916 19.0531C315.888 19.0531 315.869 19.0721 315.869 19.1005V25.0241C315.869 25.0525 315.888 25.0715 315.916 25.0715H328.806C328.835 25.0715 328.854 25.0525 328.854 25.0241V19.11C328.854 19.0815 328.835 19.0626 328.806 19.0626H315.916V19.0531Z" fill="#2C2C2C"/>
<path d="M324.38 12.2764C324.38 13.3853 323.48 14.2857 322.371 14.2857C321.262 14.2857 320.361 13.3853 320.361 12.2764C320.361 11.1675 321.262 10.2671 322.371 10.2671C323.47 10.2671 324.38 11.1675 324.38 12.2764Z" fill="#2C2C2C"/>
<path d="M323.765 11.499C323.765 11.8402 323.49 12.1151 323.149 12.1151C322.807 12.1151 322.532 11.8402 322.532 11.499C322.532 11.1578 322.807 10.883 323.149 10.883C323.49 10.883 323.765 11.1578 323.765 11.499Z" fill="#2C2C2C"/>
<path d="M334.152 67.7019C339.491 67.7019 343.819 63.3737 343.819 58.0346C343.819 52.6954 339.491 48.3672 334.152 48.3672C328.813 48.3672 324.485 52.6954 324.485 58.0346C324.485 63.3737 328.813 67.7019 334.152 67.7019Z" fill="#002731"/>
<path d="M322.363 75.7682C345.855 75.7682 364.899 67.2178 364.899 56.6704C364.899 46.123 345.855 37.5727 322.363 37.5727C298.87 37.5727 279.826 46.123 279.826 56.6704C279.826 67.2178 298.87 75.7682 322.363 75.7682Z" fill="#2C2C2C"/>
<path d="M284.794 65.636C285.552 66.2711 286.377 66.8871 287.287 67.4747C285.088 61.1341 284.13 54.1016 284.358 48.0832C283.666 48.6992 283.041 49.3437 282.5 49.9977C282.519 54.9641 283.268 60.4422 284.794 65.636Z" fill="#50BFD7"/>
<path d="M362.217 49.9886C361.668 49.3346 361.042 48.6901 360.35 48.0741C360.71 54.1493 359.488 61.305 357.061 67.731C358 67.1339 358.872 66.5178 359.658 65.8733C361.355 60.5658 362.246 55.0023 362.217 49.9886Z" fill="#50BFD7"/>
<path d="M331.045 84.4217H313.691C299.655 84.4217 288.281 73.0483 288.281 59.0117V55.1543C288.281 37.1465 302.877 22.5602 320.876 22.5602H323.842C341.85 22.5602 356.436 37.156 356.436 55.1543V59.0117C356.446 73.0483 345.072 84.4217 331.045 84.4217Z" fill="white"/>
<path d="M331.045 84.8005H313.691C306.801 84.8005 300.327 82.1183 295.456 77.2467C290.584 72.3751 287.902 65.9018 287.902 59.0115V55.154C287.902 46.3491 291.333 38.0656 297.56 31.8386C303.787 25.6117 312.07 22.1808 320.875 22.1808H323.842C332.647 22.1808 340.93 25.6117 347.157 31.8386C353.384 38.0656 356.815 46.3491 356.815 55.154V59.0115C356.815 65.9018 354.133 72.3751 349.261 77.2467C344.399 82.1183 337.926 84.8005 331.045 84.8005ZM320.885 22.939C312.279 22.939 304.185 26.2941 298.1 32.3789C292.015 38.4636 288.66 46.5576 288.66 55.1635V59.0209C288.66 65.7028 291.267 71.9865 295.987 76.716C300.716 81.4454 307 84.0423 313.682 84.0423H331.035C337.717 84.0423 344.001 81.4359 348.731 76.716C353.46 71.9865 356.057 65.7028 356.057 59.0209V55.1635C356.057 46.5576 352.702 38.4636 346.617 32.3789C340.532 26.2941 332.438 22.939 323.832 22.939H320.885Z" fill="#2C2C2C"/>
<path d="M315.34 69.9958C315.558 71.7018 316.392 73.2751 317.681 74.4125C318.97 75.5498 320.638 76.1848 322.363 76.1848C324.088 76.1848 325.747 75.5593 327.045 74.4125C328.334 73.2751 329.168 71.7018 329.386 69.9958H315.34Z" fill="white"/>
<path d="M322.363 42.9088C332.798 42.9088 342.257 39.7622 349.195 34.6632C343.214 27.28 334.087 22.56 323.841 22.56H320.875C310.639 22.56 301.502 27.28 295.522 34.6632C302.469 39.7622 311.928 42.9088 322.363 42.9088Z" fill="#2C2C2C"/>
<path d="M322.364 27.3931C311.928 27.3931 302.47 30.5397 295.532 35.6388C301.512 43.022 310.64 47.7419 320.885 47.7419H323.852C334.088 47.7419 343.224 43.022 349.205 35.6388C342.257 30.5397 332.799 27.3931 322.364 27.3931Z" fill="#50BFD7"/>
<path d="M323.851 48.1302H320.885C310.885 48.1302 301.54 43.6662 295.238 35.8849L294.991 35.5721L295.313 35.3352C302.602 29.9708 312.212 27.0137 322.373 27.0137C332.523 27.0137 342.134 29.9708 349.432 35.3352L349.754 35.5721L349.507 35.8849C343.195 43.6662 333.85 48.1302 323.851 48.1302ZM296.081 35.7143C302.232 43.1259 311.246 47.372 320.885 47.372H323.851C333.49 47.372 342.503 43.1259 348.654 35.7143C341.527 30.5868 332.21 27.7719 322.373 27.7719C312.516 27.7719 303.199 30.5868 296.081 35.7143Z" fill="#2C2C2C"/>
<path d="M346.068 63.655C345.167 64.1952 344.153 64.4795 343.12 64.4795H301.617C300.584 64.4795 299.57 64.1952 298.669 63.655C296.451 62.3281 295.191 59.6364 295.504 56.8783L295.523 56.6793C296.584 47.3437 303.569 40.169 312.128 39.6288C315.748 39.4013 319.549 39.2781 323.511 39.3065C326.619 39.3255 329.614 39.4392 332.505 39.6193C341.101 40.1595 348.134 47.3058 349.195 56.6793C349.205 56.7457 349.214 56.812 349.214 56.8783C349.546 59.6364 348.285 62.3281 346.068 63.655Z" fill="white"/>
<path d="M343.111 64.859H301.617C300.518 64.859 299.437 64.5558 298.471 63.9776C296.101 62.5654 294.793 59.76 295.125 56.8314L295.144 56.6323C296.224 47.1072 303.361 39.7903 312.1 39.2406C315.881 39.0037 319.72 38.8994 323.511 38.9184C326.506 38.9373 329.539 39.0416 332.524 39.2311C341.32 39.7808 348.485 47.0977 349.565 56.6229L349.584 56.8219C349.916 59.741 348.608 62.5465 346.239 63.9681C345.3 64.5558 344.21 64.859 343.111 64.859ZM322.383 39.6861C318.98 39.6861 315.549 39.7903 312.156 40.0083C303.788 40.5391 296.945 47.5716 295.902 56.7271L295.883 56.9261C295.58 59.5515 296.755 62.0726 298.869 63.3331C299.712 63.8354 300.669 64.1008 301.627 64.1008H343.13C344.087 64.1008 345.044 63.8354 345.888 63.3331C348.001 62.0726 349.167 59.5515 348.873 56.9261L348.854 56.7271C347.812 47.5621 340.94 40.5296 332.515 40.0083C329.539 39.8187 326.515 39.7145 323.539 39.6955C323.132 39.6861 322.762 39.6861 322.383 39.6861Z" fill="#2C2C2C"/>
<path d="M315.681 52.4623C315.681 56.0449 312.562 58.964 308.733 58.964C304.895 58.964 301.786 56.0544 301.786 52.4623C301.786 48.8702 304.895 45.9605 308.733 45.9605C312.572 45.9605 315.681 48.8702 315.681 52.4623Z" fill="white"/>
<path d="M308.733 59.3429C304.696 59.3429 301.407 56.2531 301.407 52.462C301.407 48.6709 304.696 45.5811 308.733 45.5811C312.771 45.5811 316.06 48.6709 316.06 52.462C316.06 56.2531 312.78 59.3429 308.733 59.3429ZM308.733 46.3393C305.113 46.3393 302.165 49.0879 302.165 52.462C302.165 55.8361 305.113 58.5846 308.733 58.5846C312.354 58.5846 315.301 55.8361 315.301 52.462C315.301 49.0879 312.354 46.3393 308.733 46.3393Z" fill="#2C2C2C"/>
<path d="M305.332 52.054C305.332 55.0205 307.256 57.4184 309.626 57.4184C312.004 57.4184 313.928 55.011 313.928 52.054C313.928 49.0874 312.004 46.6801 309.626 46.6801C307.256 46.6801 305.332 49.0874 305.332 52.054Z" fill="#50BFD7"/>
<path d="M306.572 52.0539C306.572 54.158 307.937 55.864 309.624 55.864C311.311 55.864 312.676 54.158 312.676 52.0539C312.676 49.9404 311.311 48.2344 309.624 48.2344C307.937 48.2344 306.572 49.9404 306.572 52.0539Z" fill="#2C2C2C"/>
<path d="M306.383 48.4438C306.383 49.0219 307.094 49.4864 307.956 49.4864C308.828 49.4864 309.529 49.0219 309.529 48.4438C309.529 47.8657 308.828 47.4012 307.956 47.4012C307.084 47.4012 306.383 47.8657 306.383 48.4438Z" fill="white"/>
<path d="M342.222 52.4623C342.222 56.0449 339.104 58.964 335.275 58.964C331.436 58.964 328.327 56.0544 328.327 52.4623C328.327 48.8702 331.436 45.9605 335.275 45.9605C339.104 45.9605 342.222 48.8702 342.222 52.4623Z" fill="white"/>
<path d="M335.274 59.3429C331.237 59.3429 327.948 56.2531 327.948 52.462C327.948 48.6709 331.237 45.5811 335.274 45.5811C339.312 45.5811 342.601 48.6709 342.601 52.462C342.601 56.2531 339.312 59.3429 335.274 59.3429ZM335.274 46.3393C331.654 46.3393 328.706 49.0879 328.706 52.462C328.706 55.8361 331.654 58.5846 335.274 58.5846C338.895 58.5846 341.842 55.8361 341.842 52.462C341.842 49.0879 338.895 46.3393 335.274 46.3393Z" fill="#2C2C2C"/>
<path d="M331.87 52.054C331.87 55.0205 333.794 57.4184 336.164 57.4184C338.543 57.4184 340.467 55.011 340.467 52.054C340.467 49.0874 338.543 46.6801 336.164 46.6801C333.794 46.6801 331.87 49.0874 331.87 52.054Z" fill="#50BFD7"/>
<path d="M333.114 52.0539C333.114 54.158 334.478 55.864 336.165 55.864C337.852 55.864 339.217 54.158 339.217 52.0539C339.217 49.9404 337.852 48.2344 336.165 48.2344C334.478 48.2344 333.114 49.9404 333.114 52.0539Z" fill="#2C2C2C"/>
<path d="M332.913 48.4438C332.913 49.0219 333.624 49.4864 334.487 49.4864C335.359 49.4864 336.06 49.0219 336.06 48.4438C336.06 47.8657 335.359 47.4012 334.487 47.4012C333.624 47.4012 332.913 47.8657 332.913 48.4438Z" fill="white"/>
<path d="M308.819 237.364H318.42L322.022 170.707H305.218L308.819 237.364Z" fill="#2C2C2C"/>
<path d="M326.781 237.364H336.382L339.983 170.707H323.179L326.781 237.364Z" fill="#2C2C2C"/>
<path d="M311.247 265.248H316.668L318.706 238.312H309.209L311.247 265.248Z" fill="#2C2C2C"/>
<path d="M328.865 265.248H334.286L336.324 238.312H326.827L328.865 265.248Z" fill="#2C2C2C"/>
<path d="M313.976 239.837C317.577 239.837 320.496 238.356 320.496 236.529C320.496 234.703 317.577 233.222 313.976 233.222C310.374 233.222 307.455 234.703 307.455 236.529C307.455 238.356 310.374 239.837 313.976 239.837Z" fill="white"/>
<path d="M313.975 240.207C310.108 240.207 307.076 238.586 307.076 236.52C307.076 234.454 310.108 232.833 313.975 232.833C317.842 232.833 320.875 234.454 320.875 236.52C320.875 238.586 317.842 240.207 313.975 240.207ZM313.975 233.601C310.649 233.601 307.834 234.937 307.834 236.529C307.834 238.122 310.649 239.458 313.975 239.458C317.302 239.458 320.117 238.122 320.117 236.529C320.117 234.937 317.302 233.601 313.975 233.601Z" fill="#2C2C2C"/>
<path d="M331.785 239.837C335.386 239.837 338.306 238.356 338.306 236.529C338.306 234.703 335.386 233.222 331.785 233.222C328.184 233.222 325.264 234.703 325.264 236.529C325.264 238.356 328.184 239.837 331.785 239.837Z" fill="white"/>
<path d="M331.785 240.207C327.918 240.207 324.885 238.586 324.885 236.52C324.885 234.454 327.918 232.833 331.785 232.833C335.652 232.833 338.685 234.454 338.685 236.52C338.685 238.586 335.661 240.207 331.785 240.207ZM331.785 233.601C328.458 233.601 325.643 234.937 325.643 236.529C325.643 238.122 328.458 239.458 331.785 239.458C335.112 239.458 337.926 238.122 337.926 236.529C337.926 234.937 335.121 233.601 331.785 233.601Z" fill="#2C2C2C"/>
<path d="M325.7 160.102H322.364H319.027C309.095 160.102 300.745 165.779 304.005 170.632C307 175.086 315.236 181.891 322.373 181.995C329.51 181.901 337.746 175.096 340.741 170.632C343.982 165.779 335.642 160.102 325.7 160.102Z" fill="#50BFD7"/>
<path d="M322.363 182.374C318.203 182.317 314.108 180.109 311.417 178.261C308.279 176.119 305.322 173.276 303.692 170.84C302.726 169.399 302.65 167.807 303.493 166.243C304.441 164.471 306.507 162.831 309.303 161.627C312.175 160.395 315.625 159.722 319.037 159.722H325.709C329.112 159.722 332.571 160.395 335.443 161.627C338.248 162.831 340.314 164.471 341.253 166.243C342.087 167.807 342.02 169.399 341.054 170.84C339.423 173.276 336.457 176.119 333.329 178.261C330.619 180.1 326.524 182.317 322.363 182.374ZM319.027 160.481C315.72 160.481 312.374 161.135 309.597 162.329C306.953 163.466 305.019 164.982 304.157 166.603C303.455 167.921 303.503 169.21 304.318 170.423C307.351 174.934 315.521 181.521 322.363 181.616C329.216 181.521 337.386 174.934 340.409 170.423C341.224 169.21 341.281 167.921 340.57 166.603C339.708 164.982 337.774 163.466 335.13 162.329C332.353 161.135 329.007 160.481 325.7 160.481H319.027Z" fill="#2C2C2C"/>
<path d="M333.831 280.914H329.31C328.855 280.914 328.485 280.544 328.485 280.089L326.647 263.323C326.647 261.039 328.495 259.191 330.779 259.191H332.542C334.826 259.191 336.674 261.039 336.674 263.323L334.665 280.089C334.665 280.544 334.295 280.914 333.831 280.914Z" fill="white"/>
<path d="M333.831 281.293H329.31C328.656 281.293 328.116 280.762 328.106 280.108L326.267 263.342V263.323C326.267 260.83 328.296 258.811 330.779 258.811H332.542C335.034 258.811 337.053 260.84 337.053 263.323V263.37L335.044 280.117C335.025 280.762 334.494 281.293 333.831 281.293ZM327.016 263.304L328.855 280.07V280.089C328.855 280.335 329.054 280.535 329.3 280.535H333.831C334.077 280.535 334.276 280.335 334.276 280.089V280.042L336.285 263.294C336.276 261.228 334.589 259.56 332.532 259.56H330.769C328.713 259.56 327.026 261.238 327.016 263.304Z" fill="#2C2C2C"/>
<path d="M328.818 286.734C328.316 286.364 327.899 285.89 327.576 285.359C327.254 284.819 327.046 284.231 326.96 283.606C326.875 282.99 326.903 282.355 327.055 281.748C327.207 281.142 327.482 280.573 327.851 280.071L328.145 279.711C328.733 279.066 329.481 278.602 330.315 278.355C331.15 278.109 332.031 278.099 332.874 278.317C333.718 278.535 334.476 278.99 335.083 279.616C335.689 280.241 336.106 281.018 336.296 281.871C336.486 282.715 336.438 283.606 336.163 284.421C335.888 285.246 335.386 285.975 334.723 286.535C334.059 287.094 333.254 287.463 332.391 287.596C331.529 287.729 330.657 287.625 329.851 287.302C329.481 287.16 329.14 286.961 328.818 286.734Z" fill="white"/>
<path d="M331.652 288.042C330.988 288.042 330.325 287.909 329.709 287.662C329.311 287.501 328.941 287.293 328.59 287.037C328.05 286.629 327.595 286.127 327.245 285.549C326.894 284.971 326.676 284.326 326.572 283.663C326.477 282.99 326.505 282.317 326.676 281.663C326.847 281.009 327.131 280.393 327.538 279.853L327.548 279.843L327.861 279.464C328.496 278.772 329.301 278.27 330.202 278.005C331.102 277.739 332.059 277.73 332.969 277.967C333.879 278.204 334.704 278.687 335.348 279.369C336.002 280.042 336.457 280.886 336.656 281.805C336.865 282.725 336.817 283.672 336.514 284.563C336.211 285.454 335.68 286.241 334.96 286.847C334.239 287.454 333.377 287.852 332.448 287.994C332.192 288.023 331.927 288.042 331.652 288.042ZM329.036 286.43C329.33 286.648 329.652 286.828 329.993 286.961C330.732 287.264 331.548 287.359 332.334 287.236C333.121 287.113 333.87 286.772 334.476 286.26C335.083 285.748 335.547 285.075 335.803 284.317C336.059 283.559 336.097 282.744 335.926 281.966C335.746 281.189 335.367 280.469 334.808 279.891C334.249 279.313 333.547 278.905 332.78 278.696C332.002 278.488 331.187 278.507 330.42 278.725C329.652 278.952 328.97 279.379 328.429 279.967L328.145 280.308C327.804 280.772 327.557 281.284 327.415 281.843C327.273 282.402 327.245 282.98 327.33 283.549C327.415 284.118 327.605 284.658 327.899 285.16C328.192 285.653 328.581 286.08 329.036 286.43Z" fill="#2C2C2C"/>
<path d="M323.833 287.075C323.311 288.383 324.25 289.729 325.491 289.729H337.812C339.064 289.729 339.992 288.383 339.471 287.075C337.974 283.293 335.035 280.734 331.652 280.734C328.278 280.734 325.34 283.293 323.833 287.075Z" fill="#50BFD7"/>
<path d="M337.812 290.108H325.491C324.79 290.108 324.117 289.747 323.709 289.141C323.273 288.496 323.188 287.672 323.482 286.933C325.093 282.876 328.23 280.355 331.652 280.355C335.083 280.355 338.21 282.876 339.821 286.933C340.115 287.672 340.03 288.496 339.594 289.141C339.186 289.747 338.523 290.108 337.812 290.108ZM324.193 287.217C323.994 287.729 324.041 288.278 324.344 288.714C324.619 289.112 325.046 289.349 325.501 289.349H337.822C338.277 289.349 338.713 289.112 338.978 288.714C339.281 288.269 339.329 287.729 339.13 287.217C337.632 283.454 334.77 281.113 331.661 281.113C328.543 281.113 325.681 283.445 324.193 287.217Z" fill="#2C2C2C"/>
<path d="M316.157 280.914H311.627C311.172 280.914 310.802 280.544 310.802 280.089L308.963 263.323C308.963 261.039 310.811 259.191 313.096 259.191H314.859C317.143 259.191 318.991 261.039 318.991 263.323L316.982 280.089C316.982 280.544 316.612 280.914 316.157 280.914Z" fill="white"/>
<path d="M316.157 281.293H311.626C310.972 281.293 310.432 280.762 310.423 280.108L308.584 263.342V263.323C308.584 260.83 310.612 258.811 313.095 258.811H314.858C317.351 258.811 319.37 260.84 319.37 263.323V263.37L317.36 280.117C317.351 280.762 316.811 281.293 316.157 281.293ZM309.342 263.304L311.181 280.07V280.089C311.181 280.335 311.38 280.535 311.626 280.535H316.157C316.403 280.535 316.602 280.335 316.602 280.089V280.042L318.611 263.294C318.602 261.228 316.915 259.56 314.858 259.56H313.095C311.029 259.56 309.352 261.238 309.342 263.304Z" fill="#2C2C2C"/>
<path d="M311.134 286.734C310.632 286.364 310.215 285.89 309.892 285.359C309.57 284.819 309.362 284.231 309.276 283.606C309.191 282.99 309.22 282.355 309.371 281.748C309.523 281.142 309.798 280.573 310.167 280.071L310.461 279.711C311.049 279.066 311.798 278.602 312.632 278.355C313.466 278.109 314.347 278.099 315.191 278.317C316.034 278.535 316.792 278.99 317.399 279.616C318.005 280.241 318.422 281.018 318.612 281.871C318.802 282.715 318.754 283.606 318.479 284.421C318.205 285.246 317.702 285.975 317.039 286.535C316.375 287.094 315.57 287.463 314.707 287.596C313.845 287.729 312.973 287.625 312.167 287.302C311.807 287.16 311.456 286.961 311.134 286.734Z" fill="white"/>
<path d="M313.977 288.042C313.314 288.042 312.65 287.909 312.034 287.662C311.636 287.501 311.266 287.293 310.916 287.037C310.376 286.629 309.921 286.127 309.57 285.549C309.219 284.971 309.001 284.326 308.897 283.663C308.802 282.99 308.831 282.317 309.001 281.663C309.172 281.009 309.456 280.393 309.864 279.853L309.873 279.843L310.186 279.464C310.821 278.772 311.627 278.27 312.527 278.005C313.427 277.739 314.385 277.73 315.295 277.967C316.204 278.204 317.029 278.687 317.673 279.369C318.327 280.042 318.782 280.886 318.981 281.805C319.19 282.725 319.143 283.672 318.839 284.563C318.536 285.454 318.005 286.241 317.285 286.847C316.565 287.454 315.702 287.852 314.773 287.994C314.508 288.023 314.243 288.042 313.977 288.042ZM311.361 286.43C311.655 286.648 311.977 286.828 312.319 286.961C313.058 287.264 313.873 287.359 314.66 287.236C315.446 287.113 316.195 286.772 316.802 286.26C317.408 285.748 317.872 285.075 318.128 284.317C318.384 283.559 318.422 282.744 318.252 281.966C318.072 281.189 317.692 280.469 317.133 279.891C316.574 279.313 315.873 278.905 315.105 278.696C314.328 278.488 313.513 278.507 312.745 278.725C311.977 278.952 311.295 279.379 310.755 279.967L310.47 280.308C310.129 280.772 309.883 281.284 309.741 281.843C309.598 282.402 309.57 282.98 309.655 283.549C309.741 284.118 309.93 284.658 310.224 285.16C310.518 285.653 310.897 286.08 311.361 286.43Z" fill="#2C2C2C"/>
<path d="M306.158 287.075C305.637 288.383 306.575 289.729 307.817 289.729H320.138C321.389 289.729 322.318 288.383 321.796 287.075C320.299 283.293 317.361 280.734 313.977 280.734C310.594 280.734 307.656 283.293 306.158 287.075Z" fill="#50BFD7"/>
<path d="M320.138 290.108H307.816C307.115 290.108 306.442 289.747 306.035 289.141C305.599 288.496 305.513 287.672 305.807 286.932C307.418 282.876 310.556 280.355 313.977 280.355C317.408 280.355 320.536 282.876 322.147 286.932C322.441 287.672 322.355 288.496 321.919 289.141C321.512 289.747 320.839 290.108 320.138 290.108ZM306.509 287.217C306.309 287.729 306.357 288.278 306.66 288.714C306.935 289.112 307.362 289.349 307.816 289.349H320.138C320.593 289.349 321.028 289.112 321.294 288.714C321.597 288.269 321.645 287.729 321.446 287.217C319.948 283.454 317.086 281.113 313.977 281.113C310.868 281.113 308.006 283.445 306.509 287.217Z" fill="#2C2C2C"/>
<path fill-rule="evenodd" clip-rule="evenodd" d="M326.412 73.914C322.652 71.6538 319.612 72.996 318.62 73.8578C318.39 74.0575 318.042 74.0329 317.842 73.8029C317.642 73.573 317.667 73.2247 317.897 73.025C319.205 71.8886 322.763 70.4334 326.98 72.9687C327.241 73.1257 327.326 73.4645 327.169 73.7255C327.012 73.9865 326.673 74.0709 326.412 73.914Z" fill="#2C2C2C"/>
</svg>
