<svg width="560" height="381" viewBox="0 0 560 381" fill="none" xmlns="http://www.w3.org/2000/svg">
<path d="M2.30659 220.374C-3.79764 175.604 1.48942 130.296 26.9197 91.6346C56.068 47.3849 102.238 16.1151 151.317 7.24363C160.061 5.65255 168.906 4.81577 177.769 4.74096C198.924 4.58297 219.958 8.26242 240.021 15.6307C273.892 28.1889 303.008 50.067 329.337 76.179C341.031 87.7684 352.446 102.641 367.932 108.023C384.005 113.656 401.297 106.408 416.962 101.977C446.323 93.6708 489.42 75.7305 518.675 92.7738C557.081 115.199 568.522 164.535 553.813 203.106C539.104 241.678 494.16 244.369 489.256 273.97C484.353 303.572 460.656 347.525 409.174 343.04C357.693 338.555 338.081 290.117 305.394 304.469C293.896 309.519 284.867 318.821 275.085 326.813C261.463 337.972 246.689 345.57 229.92 349.068C205.945 354.074 179.763 351.427 155.558 350.154C127.774 348.682 97.8825 349.804 70.9078 339.147C41.9474 327.692 23.6592 302.594 13.845 271.127C8.61105 254.626 4.74915 237.639 2.30659 220.374V220.374Z" fill="#CAECF3"/>
<path d="M312.006 270.738H415.995C417.982 270.738 419.888 269.948 421.293 268.543C422.698 267.138 423.487 265.233 423.487 263.246V70.8497C423.487 68.8627 422.698 66.9571 421.293 65.552C419.888 64.147 417.982 63.3577 415.995 63.3577H115.114C113.127 63.3577 111.222 64.147 109.817 65.552C108.412 66.9571 107.622 68.8627 107.622 70.8497V263.246C107.622 265.233 108.412 267.138 109.817 268.543C111.222 269.948 113.127 270.738 115.114 270.738H219.104" stroke="black" stroke-linecap="round" stroke-linejoin="round"/>
<path d="M416.298 71.7488H114.218V248.561H416.298V71.7488Z" stroke="black" stroke-linecap="round" stroke-linejoin="round"/>
<path d="M312.007 270.738H219.106V291.686H312.007V270.738Z" stroke="black" stroke-linecap="round" stroke-linejoin="round"/>
<path d="M312.008 291.686H328.191V299.681H202.923V291.686H219.106" stroke="black" stroke-linecap="round" stroke-linejoin="round"/>
<path d="M83.5354 299.681H70.3494" stroke="#2C2C2C" stroke-width="0.75" stroke-miterlimit="10" stroke-linecap="round"/>
<path d="M417.38 299.681H90.7261" stroke="#2C2C2C" stroke-width="0.75" stroke-miterlimit="10" stroke-linecap="round"/>
<path d="M442.554 299.681H421.576" stroke="#2C2C2C" stroke-width="0.75" stroke-miterlimit="10" stroke-linecap="round"/>
<path d="M431.41 231.245L440.684 216.964L384.497 180.476L375.223 194.757L431.41 231.245Z" fill="#C7C7C7"/>
<path d="M477.02 266.06L491.045 244.46L432.848 206.659L418.823 228.26L477.02 266.06Z" fill="#2C2C2C"/>
<path d="M385.033 142.55L385.059 142.943L385.1 143.544C385.153 144.289 385.203 145.021 385.221 145.735C385.281 145.959 385.238 146.197 385.233 146.425C385.331 150.005 385.129 153.587 384.627 157.133C384.594 157.408 384.561 157.683 384.512 157.949C383.866 162.245 382.794 166.466 381.311 170.551L381.126 171.053C377.818 179.944 372.647 188.026 365.96 194.756L365.522 195.207C361.579 199.09 357.172 202.471 352.401 205.274L350.599 206.302C344.783 209.488 338.516 211.769 332.013 213.067L331.566 213.187C328.85 213.712 326.104 214.07 323.344 214.258C322.456 214.323 321.561 214.363 320.71 214.364C319.858 214.366 319.132 214.388 318.345 214.385C311.179 214.346 304.067 213.135 297.292 210.799C296.94 210.68 296.561 210.556 296.203 210.412C294.819 209.917 293.458 209.363 292.113 208.765L291.415 208.446C286.096 206.026 281.123 202.907 276.627 199.173L275.994 198.65C275.722 198.43 275.459 198.194 275.2 197.971C270.71 194.048 266.762 189.545 263.462 184.579C263.219 184.218 262.988 183.853 262.744 183.439C261.387 181.298 260.148 179.082 259.036 176.804C258.976 176.58 258.845 176.389 258.735 176.178C255.238 168.7 253.163 160.637 252.616 152.399L252.564 151.508L252.537 150.809C252.002 139.122 254.593 127.502 260.041 117.148C262.487 112.523 265.461 108.196 268.903 104.255C270.189 102.827 271.538 101.432 272.948 100.069C280.401 92.9371 289.412 87.6381 299.267 84.5911C309.122 81.5441 319.551 80.8327 329.729 82.5133C339.907 84.1939 349.554 88.2203 357.906 94.2738C366.259 100.327 373.088 108.242 377.853 117.391C377.922 117.503 377.98 117.621 378.027 117.744C381.974 125.47 384.355 133.9 385.033 142.55V142.55Z" fill="white"/>
<path d="M352.399 205.274L350.597 206.303L320.657 214.325C319.865 214.351 319.079 214.349 318.293 214.346L331.424 210.828L352.399 205.274Z" fill="#EBEBEB"/>
<path d="M356.921 150.096C357.081 150.693 357.06 151.324 356.861 151.909C356.663 152.495 356.295 153.008 355.805 153.384C355.314 153.761 354.723 153.983 354.106 154.023C353.49 154.064 352.875 153.92 352.339 153.611C351.804 153.302 351.372 152.841 351.099 152.287C350.826 151.733 350.723 151.11 350.803 150.497C350.884 149.884 351.145 149.309 351.552 148.844C351.96 148.379 352.496 148.046 353.093 147.886C353.49 147.78 353.903 147.753 354.31 147.806C354.717 147.86 355.109 147.993 355.465 148.198C355.82 148.403 356.132 148.677 356.381 149.002C356.631 149.328 356.815 149.699 356.921 150.096Z" fill="white"/>
<path d="M361.575 167.463C361.735 168.06 361.714 168.691 361.516 169.276C361.317 169.862 360.949 170.375 360.459 170.751C359.968 171.128 359.377 171.35 358.76 171.39C358.144 171.431 357.529 171.287 356.993 170.978C356.458 170.669 356.026 170.208 355.753 169.654C355.48 169.1 355.377 168.477 355.458 167.864C355.538 167.251 355.799 166.676 356.206 166.211C356.614 165.746 357.15 165.413 357.747 165.253C358.548 165.038 359.401 165.151 360.119 165.565C360.837 165.98 361.36 166.662 361.575 167.463Z" fill="white"/>
<path d="M324.071 225.421C308.754 226.461 293.473 222.935 280.161 215.288C266.848 207.642 256.103 196.219 249.284 182.464C242.464 168.71 239.878 153.242 241.851 138.017C243.825 122.792 250.27 108.495 260.37 96.9333C270.471 85.3719 283.774 77.0661 298.596 73.0665C313.418 69.0669 329.093 69.5533 343.638 74.4641C358.184 79.375 370.946 88.4896 380.311 100.655C389.675 112.82 395.221 127.49 396.247 142.808C397.6 163.327 390.763 183.545 377.233 199.031C363.704 214.517 344.586 224.007 324.071 225.421V225.421ZM323.476 216.539C337.031 215.628 350.011 210.717 360.775 202.428C371.54 194.139 379.604 182.845 383.95 169.973C388.295 157.101 388.726 143.229 385.188 130.112C381.65 116.995 374.302 105.222 364.073 96.2807C353.844 87.3397 341.194 81.6326 327.722 79.8811C314.249 78.1295 300.56 80.4122 288.385 86.4404C276.21 92.4686 266.096 101.972 259.321 113.748C252.547 125.524 249.417 139.045 250.326 152.6C251.563 170.773 259.96 187.713 273.675 199.701C287.389 211.689 305.3 217.745 323.476 216.539V216.539Z" fill="#37474F"/>
<path d="M381.117 113.773C377.097 106.513 371.844 100.009 365.593 94.551C351.414 82.1605 332.894 75.9102 314.106 77.1749C295.319 78.4397 277.803 87.1159 265.413 101.295C253.022 115.474 246.772 133.995 248.037 152.782C249.301 171.57 257.978 189.085 272.157 201.476C282.725 210.728 295.801 216.636 309.729 218.452C323.657 220.268 337.81 217.911 350.398 211.678C362.985 205.445 373.44 195.618 380.438 183.439C387.437 171.261 390.664 157.28 389.712 143.267C389.051 132.923 386.117 122.852 381.117 113.773V113.773ZM385.099 143.544C386.148 158.889 381.842 174.124 372.916 186.65C363.99 199.176 350.996 208.219 336.149 212.237C321.302 216.255 305.52 214.999 291.495 208.684C277.47 202.369 266.07 191.385 259.236 177.605C252.403 163.825 250.561 148.102 254.023 133.115C257.485 118.129 266.038 104.807 278.223 95.4203C290.408 86.0338 305.472 81.1638 320.845 81.6405C336.219 82.1172 350.952 87.911 362.532 98.0343C375.786 109.616 383.906 125.981 385.111 143.541L385.099 143.544ZM381.117 113.773C377.097 106.513 371.844 100.009 365.593 94.551C351.414 82.1605 332.894 75.9102 314.106 77.1749C295.319 78.4397 277.803 87.1159 265.413 101.295C253.022 115.474 246.772 133.995 248.037 152.782C249.301 171.57 257.978 189.085 272.157 201.476C282.725 210.728 295.801 216.636 309.729 218.452C323.657 220.268 337.81 217.911 350.398 211.678C362.985 205.445 373.44 195.618 380.438 183.439C387.437 171.261 390.664 157.28 389.712 143.267C389.051 132.923 386.117 122.852 381.117 113.773V113.773ZM385.099 143.544C386.148 158.889 381.842 174.124 372.916 186.65C363.99 199.176 350.996 208.219 336.149 212.237C321.302 216.255 305.52 214.999 291.495 208.684C277.47 202.369 266.07 191.385 259.236 177.605C252.403 163.825 250.561 148.102 254.023 133.115C257.485 118.129 266.038 104.807 278.223 95.4203C290.408 86.0338 305.472 81.1638 320.845 81.6405C336.219 82.1172 350.952 87.911 362.532 98.0343C375.786 109.616 383.906 125.981 385.111 143.541L385.099 143.544ZM388.891 109.493C379.415 92.2455 363.905 79.1036 345.335 72.5879C326.766 66.0721 306.445 66.6412 288.269 74.186C270.094 81.7308 255.344 95.7201 246.848 113.471C238.352 131.222 236.708 151.484 242.232 170.372C247.756 189.26 260.058 205.444 276.78 215.82C293.502 226.195 313.466 230.032 332.842 226.595C352.219 223.157 369.645 212.687 381.777 197.192C393.909 181.698 399.894 162.269 398.583 142.634C397.816 131.011 394.512 119.698 388.903 109.49L388.891 109.493ZM393.98 142.948C395.231 161.465 389.601 179.791 378.17 194.411C366.739 209.032 350.313 218.918 332.042 222.172C313.771 225.426 294.942 221.821 279.166 212.046C263.39 202.271 251.779 187.016 246.559 169.207C241.338 151.398 242.877 132.288 250.88 115.544C258.883 98.7996 272.786 85.5994 289.923 78.4754C307.06 71.3515 326.224 70.8053 343.738 76.9417C361.253 83.0781 375.885 95.465 384.829 111.726C390.135 121.335 393.263 131.993 393.993 142.945L393.98 142.948ZM365.593 94.551C351.414 82.1605 332.894 75.9102 314.106 77.1749C295.319 78.4397 277.803 87.1159 265.413 101.295C253.022 115.474 246.772 133.995 248.037 152.782C249.301 171.57 257.978 189.085 272.157 201.476C282.725 210.728 295.801 216.636 309.729 218.452C323.657 220.268 337.81 217.911 350.398 211.678C362.985 205.445 373.44 195.618 380.438 183.439C387.437 171.261 390.664 157.28 389.712 143.267C389.045 132.937 386.109 122.88 381.114 113.814C377.099 106.54 371.847 100.021 365.593 94.551V94.551ZM385.111 143.541C386.16 158.886 381.855 174.12 372.929 186.647C364.003 199.173 351.008 208.216 336.161 212.234C321.314 216.252 305.533 214.996 291.508 208.681C277.483 202.366 266.082 191.382 259.249 177.602C252.416 163.822 250.573 148.098 254.036 133.112C257.498 118.125 266.05 104.803 278.235 95.417C290.421 86.0305 305.484 81.1605 320.858 81.6372C336.232 82.1138 350.964 87.9076 362.545 98.0309C375.794 109.616 383.91 125.982 385.111 143.541V143.541Z" fill="#37474F"/>
<path d="M281.384 109.792C286.233 104.586 292.123 100.458 298.67 97.6767C301.976 96.2109 305.422 95.0866 308.956 94.3214C312.534 93.5567 316.178 93.1422 319.836 93.0839C327.216 93.0469 334.523 94.5542 341.287 97.5088C347.953 100.408 354.021 104.52 359.184 109.637C353.123 106.034 346.716 103.049 340.059 100.727C336.806 99.6585 333.473 98.8508 330.091 98.3118C326.748 97.7318 323.356 97.4723 319.964 97.5368C313.178 97.6053 306.445 98.7355 300.01 100.886C293.464 103.091 287.21 106.082 281.384 109.792V109.792Z" fill="#C0E2E9"/>
<path d="M412.636 261.716L396.261 324.272H432.781L416.406 261.716C416.306 261.291 416.066 260.912 415.724 260.641C415.382 260.369 414.958 260.222 414.521 260.222C414.084 260.222 413.66 260.369 413.318 260.641C412.976 260.912 412.735 261.291 412.636 261.716V261.716Z" fill="#2E9DB6" stroke="#2C2C2C" stroke-linecap="round" stroke-linejoin="round"/>
<path d="M396.261 324.272H426.014L411.138 267.434L396.261 324.272Z" fill="#2C2C2C" stroke="#2C2C2C" stroke-linecap="round" stroke-linejoin="round"/>
<path d="M436.467 322.9H390.916C389.592 322.9 388.518 323.973 388.518 325.297V325.603C388.518 326.927 389.592 328 390.916 328H436.467C437.791 328 438.865 326.927 438.865 325.603V325.297C438.865 323.973 437.791 322.9 436.467 322.9Z" fill="#2E9DB6" stroke="#2C2C2C" stroke-linecap="round" stroke-linejoin="round"/>
<path d="M420.878 322.9H390.916C389.592 322.9 388.518 323.973 388.518 325.297V325.603C388.518 326.927 389.592 328 390.916 328H420.878C422.202 328 423.275 326.927 423.275 325.603V325.297C423.275 323.973 422.202 322.9 420.878 322.9Z" fill="#2C2C2C" stroke="#2C2C2C" stroke-linecap="round" stroke-linejoin="round"/>
<path d="M402.796 299.321H426.249L423.414 288.484H405.631L402.796 299.321Z" fill="white" stroke="#2C2C2C" stroke-linecap="round" stroke-linejoin="round"/>
<path d="M402.796 299.321H419.489L416.654 288.484H405.631L402.796 299.321Z" fill="#BABABA" stroke="#2C2C2C" stroke-linecap="round" stroke-linejoin="round"/>
<path d="M153.653 191.372C153.653 191.372 142.437 192.692 140.086 192.692C140.06 192.692 140.035 192.692 140.01 192.692C139.998 192.692 139.985 192.692 139.972 192.692C139.96 192.692 139.947 192.692 139.935 192.692C139.91 192.692 139.884 192.692 139.859 192.692C137.495 192.692 126.291 191.372 126.291 191.372C111.34 196.087 112.409 217.904 112.422 218.52C112.522 223.022 112.585 227.536 112.698 232.038C112.962 242.638 115.666 274.389 116.358 284.486C116.42 285.316 116.458 286.007 116.483 286.523C117.615 309.182 118.734 331.841 119.866 354.501C119.966 356.487 120.067 358.487 120.168 360.473C120.168 360.473 125.424 363.743 135.735 360.473L135.823 286.875L138.69 232.189C138.69 232.189 139.218 232.113 139.847 232.05C139.884 232.05 139.922 232.063 139.972 232.063V232.075C139.985 232.075 139.998 232.075 140.01 232.075C140.023 232.075 140.035 232.075 140.048 232.075V232.063C140.086 232.063 140.123 232.05 140.174 232.05C140.802 232.113 141.33 232.189 141.33 232.189L144.197 286.875L144.285 360.473C154.597 363.743 159.853 360.473 159.853 360.473C159.953 358.487 160.054 356.487 160.154 354.501C161.286 331.841 162.393 309.182 163.537 286.523C163.562 286.007 163.6 285.316 163.663 284.486C164.342 274.401 167.058 242.638 167.322 232.038C167.435 227.536 167.498 223.022 167.599 218.52C167.536 217.904 168.592 196.087 153.653 191.372Z" fill="#2C2C2C"/>
<path d="M65.8144 147.148C65.8144 147.148 62.7782 144.891 62.2354 142.644C61.6812 140.392 61.2455 139.311 57.5829 135.266C53.9548 131.236 53.3175 127.856 53.3175 127.856C53.3175 127.856 48.844 129.323 54.2828 135.787C57.6101 139.75 43.7801 133.132 39.7883 130.76C39.7883 130.76 36.7583 130.99 39.8979 134.757C43.0376 138.524 39.0981 136.921 45.5409 143.881C51.9671 150.847 60.6198 156.888 64.7167 152.959C68.8022 149.025 65.8144 147.148 65.8144 147.148Z" fill="#E0E0E0"/>
<path fill-rule="evenodd" clip-rule="evenodd" d="M53.3175 127.856L53.1607 127.378L53.7056 127.199L53.8116 127.762L53.8117 127.762L53.8118 127.763L53.8125 127.766C53.8134 127.77 53.8149 127.778 53.8172 127.789C53.8218 127.81 53.8294 127.844 53.8406 127.889C53.8629 127.981 53.8994 128.119 53.9547 128.299C54.0652 128.66 54.2507 129.188 54.5476 129.841C55.141 131.148 56.1799 132.955 57.9562 134.928C59.7896 136.954 60.8428 138.266 61.5058 139.368C62.1802 140.489 62.4422 141.379 62.7238 142.523L62.7241 142.524L62.7243 142.526C62.9617 143.508 63.7708 144.551 64.588 145.387C64.9874 145.795 65.3713 146.136 65.6554 146.375C65.7973 146.495 65.9136 146.588 65.9938 146.651C66.0339 146.683 66.0649 146.707 66.0855 146.722C66.093 146.728 66.0991 146.733 66.1037 146.736C66.1084 146.739 66.1137 146.743 66.1196 146.747C66.1248 146.751 66.1305 146.754 66.1366 146.759C66.1652 146.779 66.2036 146.807 66.2491 146.844C66.3399 146.916 66.4606 147.023 66.5893 147.164C66.8457 147.445 67.1428 147.875 67.2861 148.458C67.5823 149.663 67.1756 151.289 65.0656 153.321L65.0649 153.322C63.915 154.425 62.453 154.811 60.8544 154.679C59.2701 154.548 57.5336 153.91 55.7622 152.947C52.2171 151.021 48.4046 147.726 45.1713 144.222C41.9453 140.737 41.235 139.313 40.9902 138.232C40.9471 138.042 40.9182 137.859 40.8928 137.699C40.8844 137.646 40.8764 137.595 40.8684 137.547C40.8349 137.349 40.7967 137.166 40.724 136.961C40.5789 136.551 40.277 135.997 39.5116 135.079C38.7057 134.112 38.2575 133.328 38.0726 132.681C37.8826 132.016 37.9674 131.471 38.252 131.06C38.521 130.67 38.9165 130.476 39.2011 130.379C39.3483 130.328 39.4802 130.299 39.5762 130.282C39.6246 130.273 39.6648 130.267 39.6944 130.264C39.7093 130.262 39.7215 130.261 39.7309 130.26C39.7356 130.259 39.7396 130.259 39.7429 130.259L39.7472 130.258L39.7489 130.258L39.7496 130.258C39.75 130.258 39.7503 130.258 39.7883 130.76L39.7503 130.258L39.9087 130.246L40.0453 130.327C42.0177 131.5 46.4508 133.736 49.9715 135.184C51.75 135.915 53.2287 136.416 54.0393 136.507C54.1007 136.514 54.1541 136.518 54.2001 136.52C54.1366 136.415 54.0395 136.28 53.8977 136.111C51.1446 132.839 50.7525 130.66 51.2894 129.222C51.5531 128.515 52.0203 128.056 52.4114 127.777C52.6073 127.637 52.7876 127.54 52.9211 127.477C52.9881 127.445 53.044 127.422 53.085 127.406C53.1055 127.398 53.1224 127.391 53.1352 127.387C53.1416 127.384 53.1469 127.383 53.1512 127.381L53.1568 127.379L53.159 127.378L53.1599 127.378C53.1603 127.378 53.1607 127.378 53.3175 127.856ZM39.6888 131.285C39.6413 131.295 39.5858 131.31 39.5268 131.33C39.3414 131.394 39.1756 131.492 39.0796 131.631C38.9991 131.748 38.9151 131.968 39.0399 132.405C39.17 132.86 39.5203 133.518 40.2843 134.435C41.0887 135.4 41.4717 136.058 41.6723 136.625C41.7725 136.908 41.8224 137.155 41.8604 137.38C41.8716 137.447 41.8814 137.509 41.8909 137.569C41.9147 137.719 41.9362 137.855 41.9713 138.01C42.1524 138.81 42.6936 140.064 45.91 143.539L45.9106 143.539C49.1035 147 52.8304 150.209 56.2424 152.063C57.9496 152.991 59.546 153.562 60.9371 153.676C62.3139 153.79 63.4698 153.458 64.3684 152.596C66.3433 150.694 66.4854 149.415 66.3092 148.698C66.2162 148.32 66.0217 148.035 65.8456 147.841C65.758 147.745 65.6772 147.674 65.6205 147.629C65.5924 147.606 65.5706 147.591 65.5574 147.581C65.5509 147.577 65.5465 147.574 65.5447 147.573C65.5437 147.572 65.5434 147.572 65.5438 147.572L65.5302 147.563L65.5143 147.552L65.8144 147.148C65.5143 147.552 65.5142 147.552 65.5141 147.552L65.5139 147.551L65.5109 147.549L65.5031 147.543C65.4965 147.538 65.487 147.531 65.4749 147.522C65.4508 147.503 65.416 147.477 65.372 147.442C65.284 147.373 65.1589 147.272 65.0076 147.145C64.7055 146.891 64.2965 146.527 63.8689 146.09C63.0325 145.235 62.0525 144.027 61.7468 142.763C61.4743 141.656 61.2413 140.88 60.6438 139.886C60.0348 138.874 59.0389 137.623 57.2101 135.603L57.2091 135.602C55.3576 133.546 54.2639 131.649 53.6317 130.258C53.3164 129.564 53.1161 128.996 52.9937 128.597C52.7164 128.795 52.4062 129.106 52.2318 129.573C51.8916 130.485 51.9822 132.272 54.6677 135.463L54.668 135.464C54.8883 135.726 55.0594 135.97 55.1661 136.193C55.2655 136.401 55.3538 136.685 55.2539 136.972C55.1414 137.295 54.8623 137.434 54.6398 137.487C54.4216 137.539 54.1719 137.534 53.9268 137.507C52.9553 137.398 51.3509 136.839 49.5889 136.114C46.1183 134.687 41.776 132.506 39.6888 131.285ZM39.8286 131.261C39.8295 131.261 39.8298 131.261 39.8295 131.261L39.8286 131.261Z" fill="#2C2C2C"/>
<path d="M112.382 128.264C112.382 128.264 102.756 179.129 98.037 181.999C94.2394 184.313 81.9491 173.712 65.748 159.409C63.9641 157.74 61.8166 155.19 61.8166 155.19L65.4405 141.5L69.4719 145.741L88.6233 161.73C88.6233 161.73 96.6455 120.242 104.229 119.488C111.825 118.722 112.382 128.264 112.382 128.264Z" fill="#2C2C2C"/>
<path d="M214.294 147.148C214.294 147.148 217.33 144.89 217.873 142.643C218.427 140.391 218.863 139.31 222.525 135.265C226.153 131.235 226.791 127.855 226.791 127.855C226.791 127.855 231.264 129.323 225.825 135.787C222.498 139.749 236.328 133.132 240.32 130.759C240.32 130.759 243.35 130.989 240.21 134.756C237.071 138.523 241.01 136.92 234.567 143.88C228.141 150.846 219.488 156.887 215.392 152.958C211.306 149.024 214.294 147.148 214.294 147.148Z" fill="#E0E0E0"/>
<path fill-rule="evenodd" clip-rule="evenodd" d="M226.791 127.855L226.948 127.377L226.403 127.199L226.297 127.761L226.297 127.761L226.296 127.762L226.296 127.766C226.295 127.77 226.293 127.777 226.291 127.788C226.286 127.81 226.279 127.843 226.268 127.889C226.245 127.98 226.209 128.119 226.154 128.299C226.043 128.66 225.858 129.188 225.561 129.841C224.967 131.147 223.928 132.955 222.152 134.928C220.319 136.953 219.265 138.265 218.602 139.367C217.928 140.488 217.666 141.378 217.384 142.523L217.384 142.524L217.384 142.525C217.147 143.508 216.337 144.551 215.52 145.386C215.121 145.794 214.737 146.136 214.453 146.375C214.311 146.494 214.195 146.588 214.114 146.651C214.074 146.682 214.043 146.706 214.023 146.722C214.015 146.728 214.009 146.732 214.005 146.736C214 146.739 213.995 146.742 213.989 146.747C213.983 146.75 213.978 146.754 213.972 146.758C213.943 146.778 213.905 146.807 213.859 146.843C213.768 146.916 213.648 147.022 213.519 147.164C213.263 147.445 212.965 147.875 212.822 148.458C212.526 149.662 212.933 151.289 215.043 153.321L215.043 153.321C216.193 154.424 217.655 154.81 219.254 154.678C220.838 154.548 222.575 153.909 224.346 152.947C227.891 151.021 231.704 147.726 234.937 144.221C238.163 140.736 238.873 139.313 239.118 138.232C239.161 138.042 239.19 137.859 239.215 137.698C239.224 137.645 239.232 137.594 239.24 137.547C239.273 137.348 239.312 137.165 239.384 136.96C239.529 136.55 239.831 135.997 240.597 135.078C241.403 134.111 241.851 133.328 242.036 132.68C242.226 132.015 242.141 131.471 241.856 131.059C241.587 130.67 241.192 130.475 240.907 130.378C240.76 130.328 240.628 130.298 240.532 130.281C240.484 130.273 240.443 130.267 240.414 130.263C240.399 130.262 240.387 130.26 240.377 130.259C240.373 130.259 240.369 130.259 240.365 130.258L240.361 130.258L240.359 130.258L240.359 130.258C240.358 130.258 240.358 130.258 240.32 130.759L240.358 130.258L240.2 130.246L240.063 130.327C238.091 131.499 233.657 133.736 230.137 135.183C228.358 135.915 226.879 136.416 226.069 136.507C226.008 136.514 225.954 136.518 225.908 136.519C225.972 136.414 226.069 136.279 226.21 136.11C228.964 132.838 229.356 130.659 228.819 129.221C228.555 128.515 228.088 128.055 227.697 127.776C227.501 127.636 227.321 127.539 227.187 127.476C227.12 127.445 227.064 127.421 227.023 127.405C227.003 127.397 226.986 127.391 226.973 127.386C226.967 127.384 226.961 127.382 226.957 127.381L226.951 127.379L226.949 127.378L226.948 127.378C226.948 127.377 226.948 127.377 226.791 127.855ZM240.419 131.284C240.467 131.295 240.522 131.31 240.581 131.33C240.767 131.393 240.933 131.492 241.029 131.631C241.109 131.747 241.193 131.967 241.068 132.404C240.938 132.86 240.588 133.517 239.824 134.434C239.02 135.399 238.637 136.058 238.436 136.624C238.336 136.908 238.286 137.154 238.248 137.38C238.237 137.447 238.227 137.509 238.217 137.568C238.194 137.719 238.172 137.855 238.137 138.01C237.956 138.809 237.415 140.064 234.198 143.538L234.198 143.539C231.005 147 227.278 150.209 223.866 152.063C222.159 152.99 220.562 153.561 219.171 153.676C217.794 153.789 216.638 153.457 215.74 152.596C213.765 150.694 213.623 149.415 213.799 148.698C213.892 148.319 214.087 148.034 214.263 147.841C214.35 147.745 214.431 147.674 214.488 147.629C214.516 147.606 214.538 147.59 214.551 147.581C214.557 147.576 214.562 147.573 214.564 147.572C214.565 147.571 214.565 147.571 214.564 147.571L214.578 147.563L214.594 147.551L214.294 147.148C214.594 147.551 214.594 147.551 214.594 147.551L214.594 147.551L214.597 147.549L214.605 147.543C214.612 147.538 214.621 147.531 214.633 147.521C214.657 147.503 214.692 147.476 214.736 147.442C214.824 147.372 214.949 147.272 215.101 147.144C215.403 146.89 215.812 146.527 216.239 146.09C217.076 145.235 218.056 144.026 218.361 142.762C218.634 141.655 218.867 140.879 219.464 139.886C220.073 138.874 221.069 137.623 222.898 135.603L222.899 135.602C224.751 133.545 225.844 131.648 226.477 130.257C226.792 129.563 226.992 128.995 227.115 128.596C227.392 128.795 227.702 129.106 227.876 129.573C228.217 130.484 228.126 132.271 225.441 135.463L225.44 135.463C225.22 135.726 225.049 135.969 224.942 136.193C224.843 136.401 224.754 136.685 224.854 136.971C224.967 137.294 225.246 137.433 225.468 137.487C225.687 137.539 225.936 137.534 226.181 137.506C227.153 137.397 228.757 136.838 230.519 136.114C233.99 134.687 238.332 132.505 240.419 131.284ZM240.28 131.261C240.279 131.26 240.278 131.26 240.279 131.26L240.28 131.261Z" fill="#2C2C2C"/>
<path d="M167.726 128.264C167.726 128.264 177.352 179.129 182.071 181.999C185.869 184.313 198.159 173.712 214.36 159.409C216.144 157.74 218.291 155.19 218.291 155.19L214.668 141.5L210.636 145.741L191.485 161.73C191.485 161.73 183.463 120.242 175.879 119.488C168.283 118.722 167.726 128.264 167.726 128.264Z" fill="#2C2C2C"/>
<path d="M187.718 128.587C187.718 136.61 182.462 141.577 174.439 141.577C166.417 141.577 159.916 135.076 159.916 127.053C159.916 119.031 165.976 110.178 173.622 112.58C182.047 115.208 187.718 120.565 187.718 128.587Z" fill="white"/>
<path fill-rule="evenodd" clip-rule="evenodd" d="M164.285 116.233C161.895 119.053 160.419 123.155 160.419 127.053C160.419 134.798 166.694 141.074 174.439 141.074C178.346 141.074 181.531 139.866 183.737 137.729C185.94 135.594 187.215 132.485 187.215 128.587C187.215 120.871 181.783 115.653 173.472 113.06L173.471 113.06C169.898 111.937 166.668 113.421 164.285 116.233ZM173.772 112.1C169.7 110.821 166.077 112.563 163.518 115.582C160.967 118.593 159.413 122.928 159.413 127.053C159.413 135.353 166.139 142.08 174.439 142.08C178.554 142.08 182.009 140.804 184.437 138.452C186.867 136.097 188.221 132.711 188.221 128.587C188.221 120.258 182.311 114.764 173.772 112.1Z" fill="#2C2C2C"/>
<path d="M181.192 126.248C181.192 132.184 177.306 135.855 171.371 135.855C165.436 135.855 160.632 131.052 160.632 125.117C160.632 119.182 165.109 112.63 170.78 114.403C176.992 116.365 181.192 120.326 181.192 126.248Z" fill="#2C2C2C"/>
<path d="M90.2655 128.587C90.2655 136.61 95.5216 141.577 103.544 141.577C111.567 141.577 118.055 135.063 118.055 127.053C118.055 119.043 111.994 110.178 104.349 112.58C95.9366 115.208 90.2655 120.565 90.2655 128.587Z" fill="white"/>
<path fill-rule="evenodd" clip-rule="evenodd" d="M114.453 115.587C117.004 118.599 118.558 122.935 118.558 127.053C118.558 135.34 111.845 142.08 103.544 142.08C99.4288 142.08 95.9745 140.804 93.5464 138.452C91.1163 136.097 89.7625 132.712 89.7625 128.587C89.7625 120.259 95.6722 114.764 104.199 112.1C108.271 110.821 111.894 112.566 114.453 115.587ZM113.685 116.237C111.302 113.424 108.073 111.937 104.5 113.06L104.499 113.06C96.2007 115.652 90.7685 120.871 90.7685 128.587C90.7685 132.485 92.0428 135.594 94.2463 137.729C96.4519 139.866 99.637 141.074 103.544 141.074C111.288 141.074 117.552 134.786 117.552 127.053C117.552 123.162 116.076 119.06 113.685 116.237Z" fill="#2C2C2C"/>
<path d="M96.8042 126.248C96.8042 132.184 100.69 135.855 106.625 135.855C112.56 135.855 117.363 131.052 117.363 125.117C117.363 119.182 112.887 112.63 107.228 114.403C100.992 116.365 96.8042 120.326 96.8042 126.248Z" fill="#2C2C2C"/>
<path d="M157.275 192.956C148.196 192.126 139.23 191.787 139.23 191.787C135.936 191.887 128.919 192.176 121.677 192.956C123.789 200.174 130.956 205.493 139.469 205.493C147.995 205.505 155.162 200.161 157.275 192.956Z" fill="#50BFD7"/>
<path d="M156.533 193.711C157.313 190.642 172.918 112.454 172.918 112.454C172.918 112.454 131.271 100.156 104.638 112.454L121.714 194.39L156.533 193.711Z" fill="white"/>
<path fill-rule="evenodd" clip-rule="evenodd" d="M173.059 111.972C173.06 111.972 173.06 111.972 172.918 112.454C173.411 112.553 173.411 112.553 173.411 112.554L173.41 112.556L173.235 113.432C173.121 114.005 172.953 114.847 172.739 115.919C172.31 118.062 171.698 121.129 170.96 124.818C169.485 132.196 167.51 142.065 165.511 152.031C161.515 171.947 157.414 192.284 157.02 193.835L156.926 194.206L121.307 194.901L104.064 112.165L104.427 111.998C117.873 105.789 135.057 105.803 148.821 107.343C155.713 108.114 161.77 109.27 166.103 110.234C168.27 110.716 170.007 111.15 171.204 111.463C171.802 111.62 172.265 111.747 172.579 111.835C172.736 111.879 172.855 111.913 172.936 111.936C172.977 111.948 173.007 111.957 173.028 111.963L173.052 111.969L173.058 111.971L173.059 111.972ZM172.918 112.454L173.411 112.553L173.501 112.102L173.06 111.972L172.918 112.454ZM172.333 112.811C172.325 112.808 172.317 112.806 172.308 112.804C171.999 112.717 171.541 112.592 170.948 112.436C169.763 112.126 168.038 111.695 165.885 111.216C161.577 110.258 155.558 109.109 148.709 108.343C135.117 106.822 118.347 106.822 105.212 112.745L122.122 193.879L156.132 193.215C156.844 190.019 160.725 170.77 164.524 151.833C166.524 141.868 168.499 131.999 169.974 124.621C170.711 120.932 171.324 117.865 171.752 115.721C171.966 114.65 172.134 113.808 172.249 113.235L172.333 112.811Z" fill="black"/>
<path d="M156.533 193.711C157.313 190.642 172.918 112.454 172.918 112.454C172.918 112.454 131.271 100.156 104.638 112.454L121.714 194.39L156.533 193.711Z" fill="white"/>
<path fill-rule="evenodd" clip-rule="evenodd" d="M173.059 111.972C173.06 111.972 173.06 111.972 172.918 112.454C173.411 112.553 173.411 112.553 173.411 112.554L173.41 112.556L173.235 113.432C173.121 114.005 172.953 114.847 172.739 115.919C172.31 118.062 171.698 121.129 170.96 124.818C169.485 132.196 167.51 142.065 165.511 152.031C161.515 171.947 157.414 192.284 157.02 193.835L156.926 194.206L121.307 194.901L104.064 112.165L104.427 111.998C117.873 105.789 135.057 105.803 148.821 107.343C155.713 108.114 161.77 109.27 166.103 110.234C168.27 110.716 170.007 111.15 171.204 111.463C171.802 111.62 172.265 111.747 172.579 111.835C172.736 111.879 172.855 111.913 172.936 111.936C172.977 111.948 173.007 111.957 173.028 111.963L173.052 111.969L173.058 111.971L173.059 111.972ZM172.918 112.454L173.411 112.553L173.501 112.102L173.06 111.972L172.918 112.454ZM172.333 112.811C172.325 112.808 172.317 112.806 172.308 112.804C171.999 112.717 171.541 112.592 170.948 112.436C169.763 112.126 168.038 111.695 165.885 111.216C161.577 110.258 155.558 109.109 148.709 108.343C135.117 106.822 118.347 106.822 105.212 112.745L122.122 193.879L156.132 193.215C156.844 190.019 160.725 170.77 164.524 151.833C166.524 141.868 168.499 131.999 169.974 124.621C170.711 120.932 171.324 117.865 171.752 115.721C171.966 114.65 172.134 113.808 172.249 113.235L172.333 112.811Z" fill="#2C2C2C"/>
<path d="M162.808 110.053C151.176 107.714 131.51 105.048 114.61 109.072C116.609 121.684 118.608 134.309 120.608 146.921C122.217 155.472 130.328 161.168 138.79 161.218C147.253 161.168 155.364 155.484 156.973 146.921C158.91 134.623 160.859 122.338 162.808 110.053Z" fill="#50BFD7"/>
<path fill-rule="evenodd" clip-rule="evenodd" d="M114.493 108.582C131.504 104.532 151.26 107.217 162.907 109.559L163.38 109.655L163.303 110.139C161.355 122.422 159.406 134.704 157.47 146.999L157.469 147.006L157.467 147.014C155.806 155.852 147.456 161.67 138.793 161.721L138.79 161.721L138.787 161.721C130.124 161.67 121.775 155.839 120.113 147.014L120.112 147.007L120.111 147C119.111 140.694 118.112 134.386 117.112 128.077L117.112 128.075C116.112 121.766 115.113 115.457 114.113 109.15L114.04 108.69L114.493 108.582ZM115.18 109.455C116.155 115.606 117.13 121.761 118.105 127.916L118.105 127.918C119.105 134.224 120.104 140.531 121.103 146.835C122.664 155.106 130.532 160.665 138.79 160.715C147.049 160.665 154.916 155.119 156.477 146.835C158.388 134.699 160.312 122.575 162.235 110.451C150.672 108.161 131.64 105.663 115.18 109.455Z" fill="#2C2C2C"/>
<path d="M137.344 114.517C141.318 114.517 147.492 113.309 147.492 109.348L146.473 96.1201L145.581 84.5516C145.581 80.5781 142.362 77.3716 138.401 77.3716C136.414 77.3716 134.628 78.1763 133.321 79.4715C132.025 80.7667 131.208 82.5648 131.208 84.5516L130.328 96.1327L129.485 107.236C128.354 113.938 137.344 114.517 137.344 114.517Z" fill="#2C2C2C"/>
<path d="M113.956 374.67C113.956 374.67 114.698 377.021 114.911 377.386C115.138 377.751 120.909 379.738 127.951 379.587C135.27 379.436 138.614 377.311 138.715 374.657H113.956V374.67Z" fill="#50BFD7"/>
<path fill-rule="evenodd" clip-rule="evenodd" d="M113.453 374.155H139.237L139.218 374.677C139.158 376.247 138.131 377.577 136.265 378.51C134.407 379.439 131.657 380.013 127.962 380.09M113.453 374.155V374.658ZM113.956 374.67L113.476 374.821L113.453 374.748V374.658M113.956 374.67C113.476 374.821 113.476 374.821 113.476 374.821L113.485 374.849C113.49 374.866 113.498 374.892 113.509 374.924C113.53 374.99 113.56 375.084 113.596 375.197C113.67 375.425 113.77 375.732 113.877 376.051C113.983 376.37 114.098 376.703 114.2 376.981C114.294 377.24 114.396 377.502 114.478 377.641L114.481 377.646L114.484 377.651C114.534 377.732 114.597 377.787 114.632 377.815C114.672 377.848 114.715 377.877 114.755 377.902C114.835 377.95 114.932 378 115.038 378.049C115.251 378.147 115.54 378.26 115.89 378.381C116.594 378.623 117.575 378.906 118.766 379.171C121.149 379.701 124.393 380.166 127.962 380.09M114.642 375.16H138.14C137.921 376.057 137.208 376.914 135.815 377.611C134.145 378.445 131.563 379.009 127.941 379.084L127.94 379.084C124.468 379.158 121.305 378.705 118.985 378.189C117.825 377.931 116.881 377.658 116.218 377.429C115.886 377.315 115.631 377.214 115.458 377.135C115.394 377.105 115.346 377.081 115.312 377.062C115.301 377.037 115.288 377.008 115.274 376.974C115.237 376.883 115.193 376.768 115.144 376.635C115.047 376.37 114.936 376.047 114.83 375.732C114.763 375.531 114.699 375.335 114.642 375.16Z" fill="#2C2C2C"/>
<path d="M113.968 375.173C115.075 376.166 116.521 376.921 117.577 377.26C120.205 378.128 123.085 378.455 125.839 378.606C128.769 378.757 131.988 378.706 134.729 377.55C136.213 376.921 137.47 376.003 138.64 374.959C139.168 373.664 139.306 372.193 139.268 370.684C139.18 367.968 138.564 365.34 138.086 362.674C138.011 362.284 137.948 361.907 137.885 361.53C137.747 359.794 137.621 358.046 137.508 356.324C137.47 355.682 137.395 355.117 137.407 354.475C137.42 354.048 137.571 353.356 137.458 352.954C137.445 352.904 137.42 352.866 137.407 352.828C137.407 352.765 137.42 352.702 137.407 352.639C136.917 352.237 136.401 351.86 135.81 351.696C135.383 351.772 134.955 351.91 134.679 352.023C134.239 352.199 133.849 352.426 133.497 352.69C132.629 351.508 130.491 350.954 129.284 350.904C127.398 350.829 124.883 351.156 123.387 352.539C123.135 352.3 122.745 352.174 122.406 352.111C122.33 352.099 122.242 352.086 122.167 352.074C121.287 352.413 121.513 354.576 121.425 355.192C121.299 356.009 121.174 356.827 120.972 357.619C120.57 359.14 119.992 360.536 119.111 361.844C118.168 363.252 116.936 364.472 115.855 365.767C115.704 366.031 115.54 366.295 115.389 366.547C114.233 368.408 113.289 371.111 113.541 373.324C113.604 374.029 113.755 374.632 113.968 375.173Z" fill="#50BFD7"/>
<path fill-rule="evenodd" clip-rule="evenodd" d="M126.075 350.684C127.18 350.427 128.327 350.362 129.304 350.401L129.305 350.401C129.962 350.429 130.85 350.59 131.691 350.9C132.368 351.15 133.064 351.513 133.58 352.021C133.86 351.844 134.162 351.688 134.49 351.557C134.794 351.432 135.256 351.283 135.723 351.201L135.835 351.181L135.944 351.211C136.646 351.405 137.232 351.845 137.726 352.25L137.865 352.364L137.9 352.541C137.916 352.62 137.917 352.69 137.915 352.737C137.925 352.761 137.935 352.791 137.943 352.823C138.026 353.123 138.005 353.48 137.98 353.75C137.969 353.878 137.956 353.989 137.945 354.089C137.928 354.242 137.914 354.369 137.91 354.488C137.902 354.899 137.931 355.261 137.964 355.66C137.98 355.858 137.996 356.065 138.01 356.292C138.122 358.005 138.247 359.743 138.385 361.468C138.447 361.839 138.507 362.203 138.58 362.578L138.581 362.582L138.581 362.585C138.68 363.134 138.785 363.686 138.891 364.241C139.292 366.341 139.7 368.48 139.771 370.667L139.771 370.669L139.771 370.671C139.81 372.212 139.671 373.762 139.105 375.149L139.061 375.257L138.974 375.334C137.781 376.399 136.478 377.355 134.925 378.012L134.924 378.013C132.07 379.217 128.751 379.259 125.813 379.108L125.811 379.108C123.043 378.956 120.112 378.626 117.422 377.738C116.304 377.379 114.796 376.591 113.632 375.547L113.544 375.468L113.501 375.358C113.269 374.773 113.108 374.124 113.04 373.375C112.774 371.011 113.772 368.197 114.96 366.284C115.004 366.211 115.049 366.138 115.093 366.065C115.203 365.882 115.313 365.701 115.418 365.517L115.44 365.479L115.468 365.445C115.84 365 116.217 364.576 116.588 364.159C117.342 363.312 118.074 362.489 118.693 361.564L118.694 361.563C119.537 360.311 120.095 358.97 120.485 357.493C120.679 356.729 120.801 355.938 120.927 355.118C120.943 355.009 120.946 354.816 120.951 354.526C120.951 354.512 120.951 354.498 120.951 354.484C120.956 354.19 120.964 353.833 120.998 353.48C121.032 353.132 121.095 352.756 121.225 352.431C121.354 352.109 121.58 351.761 121.986 351.604L122.114 351.555L122.25 351.577C122.284 351.583 122.321 351.589 122.363 351.595L122.365 351.595C122.404 351.602 122.448 351.608 122.489 351.615L122.493 351.616L122.497 351.617C122.748 351.663 123.066 351.747 123.357 351.905C124.143 351.291 125.106 350.91 126.075 350.684ZM126.303 351.664C125.302 351.898 124.39 352.296 123.728 352.908L123.382 353.228L123.04 352.903C122.898 352.768 122.63 352.665 122.319 352.607C122.305 352.604 122.29 352.602 122.274 352.599C122.24 352.638 122.2 352.701 122.159 352.804C122.081 352.999 122.03 353.265 122 353.578C121.969 353.885 121.962 354.206 121.957 354.501C121.957 354.527 121.956 354.554 121.956 354.581C121.952 354.83 121.948 355.088 121.923 355.263L121.923 355.266L121.92 355.28C121.796 356.09 121.667 356.927 121.46 357.743L121.459 357.745L121.459 357.747C121.045 359.312 120.446 360.761 119.529 362.124C118.871 363.106 118.06 364.019 117.281 364.895C116.932 365.288 116.589 365.674 116.269 366.056C116.164 366.238 116.052 366.423 115.947 366.597C115.903 366.668 115.861 366.738 115.821 366.805L115.819 366.809L115.816 366.812C114.693 368.62 113.807 371.208 114.041 373.267L114.041 373.274L114.042 373.28C114.096 373.888 114.22 374.41 114.394 374.878C115.431 375.781 116.764 376.47 117.731 376.781L117.733 376.782L117.735 376.782C120.3 377.629 123.127 377.953 125.865 378.103C128.786 378.254 131.905 378.195 134.533 377.086C135.912 376.502 137.096 375.651 138.216 374.662C138.672 373.484 138.801 372.13 138.765 370.698C138.697 368.598 138.309 366.56 137.91 364.47C137.803 363.907 137.695 363.339 137.592 362.766C137.515 362.371 137.452 361.99 137.389 361.615L137.385 361.591L137.384 361.569C137.245 359.832 137.119 358.081 137.006 356.357L137.006 356.355L137.006 356.353C136.995 356.172 136.98 355.988 136.965 355.801C136.931 355.373 136.895 354.928 136.904 354.465L136.904 354.463L136.904 354.46C136.909 354.305 136.932 354.101 136.952 353.913C136.962 353.822 136.972 353.735 136.979 353.659C137.004 353.383 137.002 353.197 136.975 353.094C136.974 353.093 136.973 353.091 136.972 353.089L136.97 353.084C136.967 353.079 136.964 353.071 136.96 353.062C136.952 353.046 136.941 353.019 136.93 352.987L136.904 352.909V352.88C136.523 352.58 136.162 352.341 135.782 352.213C135.434 352.285 135.093 352.397 134.869 352.489L134.867 352.489L134.865 352.49C134.469 352.649 134.118 352.852 133.798 353.092L133.392 353.397L133.091 352.987C132.743 352.513 132.1 352.123 131.344 351.844C130.598 351.57 129.814 351.43 129.264 351.407C128.355 351.37 127.301 351.431 126.303 351.664Z" fill="#2C2C2C"/>
<path d="M168.479 374.67C168.479 374.67 167.749 377.021 167.523 377.386C167.297 377.751 161.525 379.738 154.483 379.587C147.165 379.436 143.82 377.311 143.72 374.657H168.479V374.67Z" fill="#50BFD7"/>
<path fill-rule="evenodd" clip-rule="evenodd" d="M143.197 374.155H168.982V374.746L168.959 374.819L168.479 374.67C168.959 374.819 168.959 374.819 168.959 374.819L168.959 374.819L168.959 374.82L168.951 374.846C168.945 374.864 168.937 374.89 168.927 374.922C168.906 374.988 168.877 375.082 168.841 375.196C168.768 375.423 168.669 375.731 168.563 376.05C168.457 376.369 168.343 376.703 168.24 376.982C168.145 377.239 168.04 377.508 167.951 377.651C167.9 377.732 167.838 377.787 167.803 377.815C167.762 377.848 167.719 377.877 167.679 377.902C167.6 377.95 167.503 378 167.397 378.049C167.183 378.147 166.895 378.26 166.544 378.381C165.841 378.623 164.86 378.906 163.668 379.171C161.286 379.701 158.042 380.166 154.473 380.09M167.796 375.16H144.295C144.513 376.057 145.227 376.914 146.62 377.611C148.29 378.445 150.871 379.009 154.494 379.084L154.494 379.084C157.967 379.158 161.129 378.705 163.45 378.189C164.61 377.931 165.554 377.658 166.217 377.429C166.549 377.315 166.804 377.214 166.976 377.135C167.043 377.104 167.092 377.079 167.126 377.06C167.138 377.035 167.151 377.005 167.165 376.97C167.203 376.88 167.247 376.766 167.296 376.634C167.394 376.37 167.504 376.047 167.609 375.733C167.675 375.532 167.739 375.335 167.796 375.16ZM143.197 374.155L143.217 374.677ZM143.217 374.677C143.277 376.247 144.304 377.577 146.17 378.51ZM146.17 378.51C148.027 379.439 150.777 380.013 154.473 380.09Z" fill="#2C2C2C"/>
<path d="M168.466 375.173C167.36 376.166 165.914 376.921 164.857 377.26C162.229 378.128 159.35 378.455 156.596 378.606C153.666 378.757 150.447 378.706 147.706 377.55C146.222 376.921 144.964 376.003 143.795 374.959C143.267 373.664 143.129 372.193 143.166 370.684C143.254 367.968 143.871 365.34 144.348 362.674C144.424 362.284 144.487 361.907 144.55 361.53C144.688 359.794 144.814 358.046 144.927 356.324C144.977 355.682 145.04 355.117 145.027 354.475C145.015 354.048 144.864 353.356 144.977 352.954C144.99 352.904 145.015 352.866 145.027 352.828C145.027 352.765 145.015 352.702 145.027 352.639C145.518 352.237 146.021 351.86 146.624 351.696C147.052 351.772 147.479 351.91 147.756 352.023C148.196 352.199 148.586 352.426 148.938 352.69C149.806 351.508 151.943 350.954 153.15 350.904C155.037 350.829 157.552 351.156 159.048 352.539C159.299 352.3 159.689 352.174 160.029 352.111C160.104 352.099 160.192 352.086 160.268 352.074C161.148 352.413 160.922 354.576 161.01 355.192C161.135 356.009 161.261 356.827 161.462 357.619C161.865 359.14 162.443 360.536 163.323 361.844C164.266 363.252 165.499 364.472 166.58 365.767C166.731 366.031 166.894 366.295 167.045 366.547C168.202 368.408 169.145 371.111 168.894 373.324C168.831 374.029 168.68 374.632 168.466 375.173Z" fill="#50BFD7"/>
<path fill-rule="evenodd" clip-rule="evenodd" d="M156.131 351.664C155.133 351.431 154.08 351.37 153.171 351.407C152.621 351.43 151.836 351.57 151.091 351.844C150.334 352.123 149.692 352.513 149.344 352.987L149.043 353.397L148.636 353.092C148.317 352.852 147.966 352.649 147.569 352.49L147.567 352.489L147.566 352.489C147.341 352.397 146.999 352.284 146.651 352.213C146.265 352.34 145.912 352.577 145.53 352.88V352.909L145.505 352.987C145.494 353.019 145.482 353.046 145.475 353.062C145.471 353.071 145.467 353.079 145.465 353.084C145.463 353.089 145.461 353.092 145.46 353.094C145.433 353.197 145.431 353.383 145.456 353.659C145.463 353.735 145.472 353.822 145.483 353.913C145.503 354.101 145.526 354.305 145.53 354.46L145.53 354.463L145.53 354.465C145.541 355.015 145.499 355.517 145.456 356.021C145.447 356.133 145.437 356.246 145.429 356.36C145.315 358.084 145.189 359.833 145.051 361.569L145.049 361.591L145.045 361.615C144.983 361.989 144.919 362.371 144.843 362.766C144.74 363.339 144.632 363.907 144.524 364.47C144.126 366.56 143.737 368.598 143.669 370.698C143.634 372.13 143.762 373.484 144.218 374.662C145.338 375.651 146.523 376.502 147.902 377.086C150.53 378.195 153.649 378.254 156.569 378.103C159.308 377.953 162.135 377.629 164.7 376.782L164.702 376.782L164.703 376.781C165.67 376.47 167.003 375.781 168.041 374.878C168.214 374.41 168.338 373.888 168.393 373.28L168.393 373.274L168.394 373.267C168.628 371.208 167.742 368.62 166.618 366.812L166.616 366.809L166.614 366.805C166.574 366.738 166.531 366.668 166.488 366.597C166.383 366.423 166.271 366.238 166.166 366.056C165.846 365.674 165.503 365.288 165.154 364.895C164.374 364.019 163.563 363.106 162.906 362.124C161.989 360.761 161.39 359.312 160.976 357.747L160.975 357.745L160.975 357.743C160.768 356.927 160.639 356.09 160.514 355.28L160.512 355.266L160.512 355.263C160.487 355.088 160.483 354.83 160.479 354.581C160.478 354.554 160.478 354.527 160.477 354.501C160.472 354.206 160.465 353.885 160.435 353.578C160.405 353.265 160.353 352.999 160.275 352.804C160.234 352.701 160.194 352.638 160.16 352.599C160.145 352.602 160.13 352.604 160.116 352.607C159.805 352.665 159.537 352.768 159.394 352.903L159.053 353.228L158.707 352.908C158.044 352.296 157.133 351.898 156.131 351.664ZM159.078 351.905C158.292 351.291 157.329 350.91 156.36 350.684C155.255 350.427 154.108 350.362 153.13 350.401L153.13 350.401C152.473 350.429 151.585 350.59 150.743 350.9C150.066 351.15 149.37 351.513 148.855 352.021C148.574 351.844 148.272 351.688 147.945 351.557C147.64 351.433 147.179 351.283 146.712 351.201L146.601 351.181L146.493 351.211C145.775 351.405 145.199 351.847 144.708 352.25L144.569 352.364L144.534 352.541C144.518 352.62 144.518 352.69 144.519 352.737C144.51 352.761 144.5 352.791 144.491 352.823C144.409 353.123 144.43 353.48 144.454 353.75C144.466 353.878 144.478 353.989 144.49 354.089C144.507 354.242 144.521 354.369 144.525 354.488C144.534 354.979 144.497 355.419 144.455 355.918C144.446 356.036 144.435 356.158 144.425 356.284L144.425 356.287L144.425 356.291C144.312 358.004 144.187 359.742 144.05 361.468C143.988 361.839 143.927 362.203 143.855 362.578L143.854 362.582L143.853 362.585C143.755 363.134 143.65 363.686 143.544 364.241C143.143 366.341 142.735 368.48 142.664 370.667L142.664 370.669L142.664 370.671C142.625 372.212 142.764 373.762 143.329 375.149L143.373 375.257L143.46 375.334C144.653 376.399 145.957 377.355 147.51 378.012L147.51 378.013C150.364 379.217 153.683 379.259 156.622 379.108L156.623 379.108C159.392 378.956 162.323 378.626 165.013 377.738C166.131 377.379 167.639 376.591 168.802 375.547L168.89 375.468L168.934 375.358C169.165 374.773 169.327 374.124 169.394 373.375C169.661 371.011 168.663 368.197 167.475 366.285C167.43 366.211 167.386 366.138 167.342 366.065C167.231 365.882 167.122 365.701 167.017 365.517L166.995 365.479L166.966 365.445C166.595 365 166.218 364.576 165.846 364.159C165.093 363.312 164.361 362.489 163.741 361.564L163.741 361.563C162.898 360.311 162.34 358.97 161.949 357.493C161.756 356.729 161.633 355.938 161.507 355.118C161.492 355.009 161.489 354.816 161.484 354.526L161.483 354.484C161.478 354.19 161.471 353.833 161.436 353.48C161.402 353.132 161.34 352.756 161.21 352.431C161.081 352.109 160.855 351.761 160.449 351.604L160.321 351.555L160.185 351.577C160.151 351.583 160.113 351.589 160.072 351.595L160.07 351.595C160.03 351.601 159.987 351.608 159.946 351.615L159.942 351.616L159.937 351.617C159.687 351.663 159.369 351.747 159.078 351.905ZM144.557 352.65C144.557 352.65 144.557 352.65 144.557 352.65Z" fill="#2C2C2C"/>
<path d="M143.594 123.872H133.937C131.371 123.872 129.284 125.959 129.284 128.525V138.182C129.284 140.747 131.371 142.834 133.937 142.834H143.594C146.159 142.834 148.246 140.747 148.246 138.182V128.525C148.246 125.959 146.172 123.872 143.594 123.872ZM126.719 119.76C125.248 119.76 124.053 120.955 124.053 122.426C124.053 123.897 125.248 125.092 126.719 125.092C128.19 125.092 129.385 123.897 129.385 122.426C129.385 120.955 128.19 119.76 126.719 119.76Z" fill="white"/>
<path d="M142.915 129.631C142.299 127.984 140.727 126.89 138.966 126.89H136.351L141.519 139.992H147.064L142.915 129.631ZM132.352 136.233L130.843 139.992H136.351L138.916 133.491H136.301C134.54 133.491 132.968 134.585 132.352 136.233ZM133.207 130.147C134.113 130.147 134.855 129.405 134.855 128.499C134.855 127.594 134.113 126.852 133.207 126.852C132.302 126.852 131.56 127.594 131.56 128.499C131.56 129.405 132.302 130.147 133.207 130.147Z" fill="#50BFD7"/>
<path fill-rule="evenodd" clip-rule="evenodd" d="M143.274 87.9665C137.783 84.6658 133.344 86.6258 131.895 87.8843C131.559 88.1759 131.05 88.1401 130.759 87.8043C130.467 87.4684 130.503 86.9598 130.839 86.6682C132.75 85.0088 137.944 82.8836 144.104 86.5861C144.485 86.8152 144.608 87.31 144.379 87.6912C144.15 88.0723 143.655 88.1956 143.274 87.9665Z" fill="#2C2C2C"/>
<path d="M159.189 11.3081C153.785 4.6636 146.236 0.65625 136.541 0.65625C114.591 0.65625 93.1452 20.8999 93.1452 46.1333C93.1452 71.3666 110.933 91.83 132.883 91.83C134.99 91.83 137.032 91.6361 139.01 91.2871C139.217 92.3988 139.333 93.5364 139.333 94.7127C139.333 94.9195 139.32 95.1393 139.32 95.3461C199.805 80.6611 189.903 7.57217 159.189 11.3081Z" fill="#2C2C2C"/>
<path d="M108.283 76.3694C112.888 76.3694 116.621 72.6364 116.621 68.0315C116.621 63.4266 112.888 59.6936 108.283 59.6936C103.678 59.6936 99.9448 63.4266 99.9448 68.0315C99.9448 72.6364 103.678 76.3694 108.283 76.3694Z" fill="#E0E0E0"/>
<path fill-rule="evenodd" clip-rule="evenodd" d="M108.283 60.2107C103.963 60.2107 100.462 63.7122 100.462 68.0315C100.462 72.3508 103.963 75.8523 108.283 75.8523C112.602 75.8523 116.103 72.3508 116.103 68.0315C116.103 63.7122 112.602 60.2107 108.283 60.2107ZM99.4276 68.0315C99.4276 63.141 103.392 59.1765 108.283 59.1765C113.173 59.1765 117.138 63.141 117.138 68.0315C117.138 72.9219 113.173 76.8864 108.283 76.8864C103.392 76.8864 99.4276 72.9219 99.4276 68.0315Z" fill="#2C2C2C"/>
<path d="M166.997 76.3694C171.602 76.3694 175.335 72.6364 175.335 68.0315C175.335 63.4266 171.602 59.6936 166.997 59.6936C162.392 59.6936 158.659 63.4266 158.659 68.0315C158.659 72.6364 162.392 76.3694 166.997 76.3694Z" fill="#E0E0E0"/>
<path fill-rule="evenodd" clip-rule="evenodd" d="M166.997 60.2107C162.677 60.2107 159.176 63.7122 159.176 68.0315C159.176 72.3508 162.677 75.8523 166.997 75.8523C171.316 75.8523 174.818 72.3508 174.818 68.0315C174.818 63.7122 171.316 60.2107 166.997 60.2107ZM158.142 68.0315C158.142 63.141 162.106 59.1765 166.997 59.1765C171.887 59.1765 175.852 63.141 175.852 68.0315C175.852 72.9219 171.887 76.8864 166.997 76.8864C162.106 76.8864 158.142 72.9219 158.142 68.0315Z" fill="#2C2C2C"/>
<path d="M138.428 102.818C156.327 102.818 170.836 82.2778 170.836 56.9402C170.836 31.6027 156.327 11.0625 138.428 11.0625C120.53 11.0625 106.02 31.6027 106.02 56.9402C106.02 82.2778 120.53 102.818 138.428 102.818Z" fill="#E0E0E0"/>
<path fill-rule="evenodd" clip-rule="evenodd" d="M115.935 24.7981C110.139 33.0032 106.538 44.3655 106.538 56.9402C106.538 69.5149 110.139 80.8772 115.935 89.0823C121.732 97.2888 129.692 102.301 138.428 102.301C147.165 102.301 155.125 97.2888 160.922 89.0823C166.718 80.8772 170.319 69.5149 170.319 56.9402C170.319 44.3655 166.718 33.0032 160.922 24.7981C155.125 16.5917 147.165 11.5796 138.428 11.5796C129.692 11.5796 121.732 16.5917 115.935 24.7981ZM115.09 24.2014C121.023 15.8034 129.266 10.5454 138.428 10.5454C147.59 10.5454 155.834 15.8034 161.766 24.2014C167.7 32.6008 171.353 44.1773 171.353 56.9402C171.353 69.7031 167.7 81.2796 161.766 89.679C155.834 98.0771 147.59 103.335 138.428 103.335C129.266 103.335 121.023 98.0771 115.09 89.679C109.157 81.2796 105.503 69.7031 105.503 56.9402C105.503 44.1773 109.157 32.6008 115.09 24.2014Z" fill="#2C2C2C"/>
<path d="M101.289 46.7668C101.289 46.7668 128.875 48.1112 138.066 31.513C138.066 31.513 158.026 48.7834 177.08 47.439L175.283 39.8121L167.889 25.2305L163.403 19.8529L154.212 10.2094L141.88 5.05151L127.078 7.06812L107.339 20.5251L104.87 29.4964L101.289 46.7668Z" fill="#2C2C2C"/>
<path d="M139.217 74.8698C139.23 74.9474 139.062 75.0896 138.687 75.0896C138.325 75.1025 137.769 74.9345 137.278 74.4691C137.032 74.2364 136.812 73.952 136.644 73.5901C136.619 73.5384 136.606 73.4867 136.58 73.435L136.554 73.3574L136.528 73.2928L136.489 73.1764C136.476 73.1247 136.463 73.0601 136.438 73.0084C136.386 72.8145 136.347 72.6076 136.334 72.3879C136.257 71.5347 136.425 70.6686 136.631 69.8413C137.433 66.532 138.377 63.9337 138.726 64.0112C139.075 64.1017 138.713 66.8422 137.911 70.1515C137.704 70.9659 137.549 71.7027 137.549 72.3232C137.549 72.4784 137.562 72.6335 137.575 72.7757L137.588 72.8274V72.8532V72.8662V72.8791C137.588 72.8791 137.575 72.8403 137.588 72.8532L137.614 72.9825L137.627 73.0472L137.64 73.0859L137.666 73.1635C137.743 73.4091 137.859 73.6418 137.989 73.8228C138.247 74.1977 138.558 74.4303 138.803 74.5596C139.036 74.7276 139.204 74.7794 139.217 74.8698Z" fill="#2C2C2C"/>
<path d="M130 59.3705C130 63.0547 126.807 66.0408 122.877 66.0408C118.934 66.0408 115.754 63.0547 115.754 59.3705C115.754 55.6863 118.947 52.7002 122.877 52.7002C126.794 52.7002 130 55.6863 130 59.3705Z" fill="white"/>
<path fill-rule="evenodd" clip-rule="evenodd" d="M122.877 53.2173C119.2 53.2173 116.272 56.0035 116.272 59.3705C116.272 62.738 119.188 65.5237 122.877 65.5237C126.554 65.5237 129.483 62.7375 129.483 59.3705C129.483 56.0041 126.542 53.2173 122.877 53.2173ZM115.237 59.3705C115.237 55.3691 118.695 52.1831 122.877 52.1831C127.046 52.1831 130.517 55.3685 130.517 59.3705C130.517 63.3719 127.06 66.5579 122.877 66.5579C118.681 66.5579 115.237 63.3713 115.237 59.3705Z" fill="#2C2C2C"/>
<path d="M119.374 58.9569C119.374 61.9947 121.352 64.4638 123.782 64.4638C126.212 64.4638 128.19 61.9947 128.19 58.9569C128.19 55.919 126.212 53.45 123.782 53.45C121.352 53.4371 119.374 55.9061 119.374 58.9569Z" fill="#50BFD7"/>
<path d="M120.654 58.9569C120.654 61.1157 122.05 62.8608 123.782 62.8608C125.514 62.8608 126.91 61.1157 126.91 58.9569C126.91 56.7981 125.514 55.04 123.782 55.04C122.05 55.04 120.654 56.7852 120.654 58.9569Z" fill="#2C2C2C"/>
<path d="M120.46 55.2468C120.46 55.8414 121.184 56.3068 122.076 56.3068C122.968 56.3068 123.692 55.8285 123.692 55.2468C123.692 54.6522 122.968 54.1868 122.076 54.1868C121.184 54.1739 120.46 54.6522 120.46 55.2468Z" fill="white"/>
<path d="M132.029 49.1709C132.029 49.1709 122.412 39.5791 112.07 50.9678C112.07 50.9678 121.016 45.2411 132.029 49.1709Z" fill="#2C2C2C"/>
<path d="M160.986 59.3705C160.986 63.0547 157.793 66.0408 153.863 66.0408C149.92 66.0408 146.74 63.0547 146.74 59.3705C146.74 55.6863 149.933 52.7002 153.863 52.7002C157.793 52.7002 160.986 55.6863 160.986 59.3705Z" fill="white"/>
<path fill-rule="evenodd" clip-rule="evenodd" d="M153.863 53.2173C150.186 53.2173 147.257 56.0035 147.257 59.3705C147.257 62.738 150.174 65.5237 153.863 65.5237C157.54 65.5237 160.469 62.7375 160.469 59.3705C160.469 56.0035 157.54 53.2173 153.863 53.2173ZM146.223 59.3705C146.223 55.3691 149.68 52.1831 153.863 52.1831C158.046 52.1831 161.503 55.3691 161.503 59.3705C161.503 63.3719 158.046 66.5579 153.863 66.5579C149.667 66.5579 146.223 63.3713 146.223 59.3705Z" fill="#2C2C2C"/>
<path d="M150.373 58.9569C150.373 61.9947 152.351 64.4638 154.781 64.4638C157.211 64.4638 159.189 61.9947 159.189 58.9569C159.189 55.919 157.211 53.45 154.781 53.45C152.338 53.4371 150.373 55.9061 150.373 58.9569Z" fill="#50BFD7"/>
<path d="M151.64 58.9569C151.64 61.1157 153.036 62.8608 154.768 62.8608C156.5 62.8608 157.896 61.1157 157.896 58.9569C157.896 56.7981 156.5 55.04 154.768 55.04C153.049 55.04 151.64 56.7852 151.64 58.9569Z" fill="#2C2C2C"/>
<path d="M151.446 55.2468C151.446 55.8414 152.17 56.3068 153.062 56.3068C153.954 56.3068 154.677 55.8285 154.677 55.2468C154.677 54.6522 153.954 54.1868 153.062 54.1868C152.17 54.1739 151.446 54.6522 151.446 55.2468Z" fill="white"/>
<path d="M163.028 48.1241C163.028 48.1241 153.411 38.5323 143.069 49.9209C143.056 49.9209 152.002 44.1943 163.028 48.1241Z" fill="#2C2C2C"/>
<path fill-rule="evenodd" clip-rule="evenodd" d="M105.374 54.51V54.7685H104.34V54.51H105.374Z" fill="#2C2C2C"/>
<path fill-rule="evenodd" clip-rule="evenodd" d="M110.803 57.3538V57.6123H109.769V57.3538H110.803Z" fill="#2C2C2C"/>
<path d="M140.199 55.8284C141.97 56.2033 141.311 57.3538 141.311 57.5218C141.311 57.6899 141.97 67.2558 150.515 69.7766C159.06 72.2973 164.179 67.3463 165.665 64.8643C167.152 62.3824 168.393 56.4877 168.755 56.0352C169.13 55.5828 170.901 54.7942 170.901 54.7942L171.108 52.4803L168.884 51.821C168.884 51.821 163.274 49.2615 155.013 49.1452C146.766 49.0159 142.099 53.773 142.099 53.773C139.773 53.0362 136.89 52.9328 134.253 53.773C134.253 53.773 129.586 49.0288 121.339 49.1452C113.091 49.2744 107.468 51.821 107.468 51.821L105.245 52.4803L105.452 54.7942C105.452 54.7942 107.223 55.5828 107.597 56.0352C107.972 56.4877 109.2 62.3953 110.687 64.8643C112.174 67.3463 117.293 72.2973 125.837 69.7766C134.382 67.2558 135.041 57.6899 135.041 57.5218C135.041 57.3538 134.382 56.2033 136.153 55.8284C137.704 55.5052 138.661 55.5052 140.199 55.8284ZM160.714 67.7987C154.199 71.7156 146.391 67.76 144.039 62.6021C141.686 57.4443 143.664 54.7167 143.664 54.7167C147.593 48.3049 163.468 48.0334 166.195 54.9623C166.661 56.1257 167.229 63.8819 160.714 67.7987ZM110.157 54.9623C112.885 48.0205 128.759 48.3049 132.689 54.7167C132.689 54.7167 134.667 57.4443 132.314 62.6021C129.961 67.76 122.166 71.7156 115.638 67.7987C109.136 63.8819 109.705 56.1257 110.157 54.9623Z" fill="#2C2C2C"/>
<path fill-rule="evenodd" clip-rule="evenodd" d="M143.274 87.9665C137.783 84.6658 133.344 86.6258 131.895 87.8843C131.559 88.1759 131.05 88.1401 130.759 87.8043C130.467 87.4684 130.503 86.9598 130.839 86.6682C132.75 85.0088 137.944 82.8836 144.104 86.5861C144.485 86.8152 144.608 87.31 144.379 87.6912C144.15 88.0723 143.655 88.1956 143.274 87.9665Z" fill="#2C2C2C"/>
</svg>
