<svg width="466" height="382" viewBox="0 0 466 382" fill="none" xmlns="http://www.w3.org/2000/svg">
<path d="M445.705 189.697C450.458 157.94 446.342 125.801 426.54 98.3767C403.844 66.9887 367.894 44.8077 329.678 38.5148C322.87 37.3862 315.983 36.7926 309.082 36.7395C292.609 36.6275 276.231 39.2375 260.609 44.4641C234.235 53.3721 211.564 68.8912 191.063 87.4135C181.958 95.6343 173.069 106.184 161.011 110.002C148.495 113.998 135.032 108.856 122.834 105.713C99.9721 99.8211 66.4143 87.0954 43.6352 99.1848C13.7296 115.092 4.8216 150.088 16.2748 177.448C27.728 204.809 62.7238 206.717 66.5415 227.715C70.3592 248.712 88.8116 279.891 128.898 276.709C168.984 273.528 184.255 239.168 209.706 249.349C218.659 252.931 225.69 259.529 233.306 265.199C243.913 273.114 255.417 278.503 268.474 280.985C287.142 284.535 307.529 282.658 326.376 281.755C348.01 280.711 371.285 281.507 392.289 273.948C414.839 265.822 429.079 248.019 436.721 225.698C440.796 213.993 443.803 201.944 445.705 189.697Z" fill="#CAECF3"/>
<path d="M282.381 270.738H386.371C388.358 270.738 390.264 269.948 391.669 268.543C393.074 267.138 393.863 265.233 393.863 263.246V70.8497C393.863 68.8627 393.074 66.9571 391.669 65.552C390.264 64.147 388.358 63.3577 386.371 63.3577H85.4901C83.5031 63.3577 81.5974 64.147 80.1924 65.552C78.7874 66.9571 77.998 68.8627 77.998 70.8497V263.246C77.998 265.233 78.7874 267.138 80.1924 268.543C81.5974 269.948 83.5031 270.738 85.4901 270.738H189.48" stroke="black" stroke-linecap="round" stroke-linejoin="round"/>
<path d="M386.673 71.7488H84.5938V248.561H386.673V71.7488Z" stroke="black" stroke-linecap="round" stroke-linejoin="round"/>
<path d="M282.383 270.738H189.481V291.686H282.383V270.738Z" stroke="black" stroke-linecap="round" stroke-linejoin="round"/>
<path d="M282.384 291.686H298.566V299.681H173.299V291.686H189.482" stroke="black" stroke-linecap="round" stroke-linejoin="round"/>
<path d="M53.9111 299.681H40.7251" stroke="#2C2C2C" stroke-width="0.75" stroke-miterlimit="10" stroke-linecap="round"/>
<path d="M387.755 299.681H61.1016" stroke="#2C2C2C" stroke-width="0.75" stroke-miterlimit="10" stroke-linecap="round"/>
<path d="M412.929 299.681H391.952" stroke="#2C2C2C" stroke-width="0.75" stroke-miterlimit="10" stroke-linecap="round"/>
<path d="M401.785 231.245L411.06 216.964L354.872 180.476L345.598 194.757L401.785 231.245Z" fill="#C7C7C7"/>
<path d="M447.395 266.06L461.42 244.46L403.224 206.659L389.199 228.26L447.395 266.06Z" fill="#2C2C2C"/>
<path d="M355.409 142.55L355.434 142.943L355.475 143.544C355.528 144.289 355.578 145.021 355.596 145.735C355.656 145.959 355.614 146.197 355.608 146.425C355.707 150.005 355.504 153.587 355.002 157.133C354.969 157.408 354.936 157.683 354.888 157.949C354.241 162.245 353.169 166.466 351.687 170.551L351.502 171.053C348.193 179.944 343.022 188.026 336.336 194.756L335.897 195.207C331.955 199.09 327.548 202.471 322.776 205.274L320.975 206.302C315.159 209.488 308.891 211.769 302.388 213.067L301.941 213.187C299.225 213.712 296.479 214.07 293.72 214.258C292.831 214.323 291.937 214.363 291.085 214.364C290.233 214.366 289.507 214.388 288.721 214.385C281.554 214.346 274.442 213.135 267.667 210.799C267.316 210.68 266.936 210.556 266.578 210.412C265.194 209.917 263.834 209.363 262.488 208.765L261.79 208.446C256.471 206.026 251.498 202.907 247.002 199.173L246.37 198.65C246.098 198.43 245.835 198.194 245.575 197.971C241.085 194.048 237.138 189.545 233.838 184.579C233.595 184.218 233.364 183.853 233.12 183.439C231.762 181.298 230.524 179.082 229.411 176.804C229.351 176.58 229.22 176.389 229.11 176.178C225.613 168.7 223.539 160.637 222.992 152.399L222.939 151.508L222.912 150.809C222.377 139.122 224.968 127.502 230.417 117.148C232.862 112.523 235.836 108.196 239.278 104.255C240.565 102.827 241.913 101.432 243.323 100.069C250.776 92.9371 259.787 87.6381 269.642 84.5911C279.498 81.5441 289.927 80.8327 300.104 82.5133C310.282 84.1939 319.929 88.2203 328.282 94.2738C336.634 100.327 343.463 108.242 348.228 117.391C348.297 117.503 348.356 117.621 348.402 117.744C352.349 125.47 354.73 133.9 355.409 142.55Z" fill="white"/>
<path d="M322.774 205.274L320.973 206.303L291.033 214.325C290.241 214.351 289.455 214.349 288.668 214.346L301.8 210.828L322.774 205.274Z" fill="#EBEBEB"/>
<path d="M327.296 150.096C327.456 150.693 327.436 151.324 327.237 151.909C327.038 152.495 326.67 153.008 326.18 153.384C325.69 153.761 325.099 153.983 324.482 154.023C323.865 154.064 323.25 153.92 322.715 153.611C322.179 153.302 321.748 152.841 321.474 152.287C321.201 151.733 321.098 151.11 321.179 150.497C321.26 149.884 321.52 149.309 321.928 148.844C322.335 148.379 322.871 148.046 323.469 147.886C323.865 147.78 324.278 147.753 324.685 147.806C325.092 147.86 325.485 147.993 325.84 148.198C326.196 148.403 326.507 148.677 326.757 149.002C327.007 149.328 327.19 149.699 327.296 150.096Z" fill="white"/>
<path d="M331.951 167.463C332.111 168.06 332.09 168.691 331.891 169.276C331.693 169.862 331.325 170.375 330.834 170.751C330.344 171.128 329.753 171.35 329.136 171.39C328.519 171.431 327.904 171.287 327.369 170.978C326.834 170.669 326.402 170.208 326.129 169.654C325.855 169.1 325.752 168.477 325.833 167.864C325.914 167.251 326.174 166.676 326.582 166.211C326.99 165.746 327.526 165.413 328.123 165.253C328.923 165.038 329.777 165.151 330.494 165.565C331.212 165.98 331.736 166.662 331.951 167.463Z" fill="white"/>
<path d="M294.447 225.421C279.13 226.461 263.849 222.935 250.536 215.288C237.224 207.642 226.478 196.219 219.659 182.464C212.84 168.71 210.254 153.242 212.227 138.017C214.201 122.792 220.645 108.495 230.746 96.9333C240.847 85.3719 254.149 77.0661 268.971 73.0665C283.793 69.0669 299.469 69.5533 314.014 74.4641C328.56 79.375 341.322 88.4896 350.686 100.655C360.051 112.82 365.597 127.49 366.622 142.808C367.976 163.327 361.139 183.545 347.609 199.031C334.08 214.517 314.962 224.007 294.447 225.421ZM293.851 216.539C307.407 215.628 320.387 210.717 331.151 202.428C341.915 194.139 349.98 182.845 354.326 169.973C358.671 157.101 359.102 143.229 355.564 130.112C352.026 116.995 344.678 105.222 334.449 96.2807C324.22 87.3397 311.57 81.6326 298.097 79.8811C284.625 78.1295 270.936 80.4122 258.761 86.4404C246.586 92.4686 236.471 101.972 229.697 113.748C222.923 125.524 219.792 139.045 220.702 152.6C221.938 170.773 230.336 187.713 244.05 199.701C257.765 211.689 275.676 217.745 293.851 216.539Z" fill="#37474F"/>
<path d="M351.492 113.773C347.473 106.513 342.22 100.009 335.969 94.551C321.79 82.1605 303.269 75.9102 284.482 77.1749C265.694 78.4397 248.179 87.1159 235.788 101.295C223.398 115.474 217.147 133.995 218.412 152.782C219.677 171.57 228.353 189.085 242.532 201.476C253.1 210.728 266.176 216.636 280.104 218.452C294.032 220.268 308.186 217.911 320.773 211.678C333.36 205.445 343.815 195.618 350.814 183.439C357.812 171.261 361.039 157.28 360.087 143.267C359.427 132.923 356.492 122.852 351.492 113.773ZM355.475 143.544C356.523 158.889 352.218 174.124 343.292 186.65C334.366 199.176 321.372 208.219 306.524 212.237C291.677 216.255 275.896 214.999 261.871 208.684C247.846 202.369 236.445 191.385 229.612 177.605C222.779 163.825 220.936 148.102 224.399 133.115C227.861 118.129 236.413 104.807 248.599 95.4203C260.784 86.0338 275.847 81.1638 291.221 81.6405C306.595 82.1172 321.327 87.911 332.908 98.0343C346.161 109.616 354.281 125.981 355.487 143.541L355.475 143.544ZM351.492 113.773C347.473 106.513 342.22 100.009 335.969 94.551C321.79 82.1605 303.269 75.9102 284.482 77.1749C265.694 78.4397 248.179 87.1159 235.788 101.295C223.398 115.474 217.147 133.995 218.412 152.782C219.677 171.57 228.353 189.085 242.532 201.476C253.1 210.728 266.176 216.636 280.104 218.452C294.032 220.268 308.186 217.911 320.773 211.678C333.36 205.445 343.815 195.618 350.814 183.439C357.812 171.261 361.039 157.28 360.087 143.267C359.427 132.923 356.492 122.852 351.492 113.773ZM355.475 143.544C356.523 158.889 352.218 174.124 343.292 186.65C334.366 199.176 321.372 208.219 306.524 212.237C291.677 216.255 275.896 214.999 261.871 208.684C247.846 202.369 236.445 191.385 229.612 177.605C222.779 163.825 220.936 148.102 224.399 133.115C227.861 118.129 236.413 104.807 248.599 95.4203C260.784 86.0338 275.847 81.1638 291.221 81.6405C306.595 82.1172 321.327 87.911 332.908 98.0343C346.161 109.616 354.281 125.981 355.487 143.541L355.475 143.544ZM359.266 109.493C349.79 92.2455 334.28 79.1036 315.711 72.5879C297.142 66.0721 276.82 66.6412 258.645 74.186C240.469 81.7308 225.719 95.7201 217.223 113.471C208.727 131.222 207.083 151.484 212.607 170.372C218.131 189.26 230.434 205.444 247.156 215.82C263.878 226.195 283.841 230.032 303.218 226.595C322.595 223.157 340.02 212.687 352.152 197.192C364.284 181.698 370.269 162.269 368.959 142.634C368.191 131.011 364.887 119.698 359.279 109.49L359.266 109.493ZM364.356 142.948C365.606 161.465 359.976 179.791 348.545 194.411C337.115 209.032 320.689 218.918 302.418 222.172C284.147 225.426 265.317 221.821 249.542 212.046C233.766 202.271 222.154 187.016 216.934 169.207C211.714 151.398 213.253 132.288 221.256 115.544C229.259 98.7996 243.162 85.5994 260.299 78.4754C277.435 71.3515 296.599 70.8053 314.114 76.9417C331.628 83.0781 346.261 95.465 355.204 111.726C360.51 121.335 363.639 131.993 364.368 142.945L364.356 142.948ZM335.969 94.551C321.79 82.1605 303.269 75.9102 284.482 77.1749C265.694 78.4397 248.179 87.1159 235.788 101.295C223.398 115.474 217.147 133.995 218.412 152.782C219.677 171.57 228.353 189.085 242.532 201.476C253.1 210.728 266.176 216.636 280.104 218.452C294.032 220.268 308.186 217.911 320.773 211.678C333.36 205.445 343.815 195.618 350.814 183.439C357.812 171.261 361.039 157.28 360.087 143.267C359.42 132.937 356.485 122.88 351.49 113.814C347.475 106.54 342.223 100.021 335.969 94.551ZM355.487 143.541C356.536 158.886 352.23 174.12 343.304 186.647C334.378 199.173 321.384 208.216 306.537 212.234C291.69 216.252 275.908 214.996 261.883 208.681C247.858 202.366 236.458 191.382 229.624 177.602C222.791 163.822 220.949 148.098 224.411 133.112C227.873 118.125 236.426 104.803 248.611 95.417C260.796 86.0305 275.859 81.1605 291.233 81.6372C306.607 82.1138 321.34 87.9076 332.92 98.0309C346.17 109.616 354.285 125.982 355.487 143.541Z" fill="#37474F"/>
<path d="M251.76 109.792C256.609 104.586 262.498 100.458 269.046 97.6767C272.351 96.2109 275.798 95.0866 279.332 94.3214C282.909 93.5567 286.553 93.1422 290.211 93.0839C297.592 93.0469 304.899 94.5542 311.663 97.5088C318.328 100.408 324.397 104.52 329.559 109.637C323.499 106.034 317.092 103.049 310.435 100.727C307.181 99.6585 303.848 98.8508 300.467 98.3118C297.123 97.7318 293.732 97.4723 290.339 97.5368C283.554 97.6053 276.821 98.7355 270.385 100.886C263.84 103.091 257.586 106.082 251.76 109.792Z" fill="#C0E2E9"/>
<path d="M383.012 261.716L366.637 324.272H403.156L386.782 261.716C386.682 261.291 386.442 260.912 386.1 260.641C385.757 260.369 385.334 260.222 384.897 260.222C384.46 260.222 384.036 260.369 383.694 260.641C383.352 260.912 383.111 261.291 383.012 261.716Z" fill="#2E9DB6" stroke="#2C2C2C" stroke-linecap="round" stroke-linejoin="round"/>
<path d="M366.637 324.272H396.39L381.513 267.434L366.637 324.272Z" fill="#2C2C2C" stroke="#2C2C2C" stroke-linecap="round" stroke-linejoin="round"/>
<path d="M406.843 322.9H361.292C359.967 322.9 358.894 323.973 358.894 325.297V325.603C358.894 326.927 359.967 328 361.292 328H406.843C408.167 328 409.241 326.927 409.241 325.603V325.297C409.241 323.973 408.167 322.9 406.843 322.9Z" fill="#2E9DB6" stroke="#2C2C2C" stroke-linecap="round" stroke-linejoin="round"/>
<path d="M391.254 322.9H361.291C359.967 322.9 358.894 323.973 358.894 325.297V325.603C358.894 326.927 359.967 328 361.291 328H391.254C392.578 328 393.651 326.927 393.651 325.603V325.297C393.651 323.973 392.578 322.9 391.254 322.9Z" fill="#2C2C2C" stroke="#2C2C2C" stroke-linecap="round" stroke-linejoin="round"/>
<path d="M373.172 299.321H396.625L393.79 288.484H376.007L373.172 299.321Z" fill="white" stroke="#2C2C2C" stroke-linecap="round" stroke-linejoin="round"/>
<path d="M373.172 299.321H389.865L387.03 288.484H376.007L373.172 299.321Z" fill="#BABABA" stroke="#2C2C2C" stroke-linecap="round" stroke-linejoin="round"/>
<path d="M55.5161 45.9792C53.5042 54.2783 58.031 84.4568 65.4499 95.8744C65.4499 95.8744 86.9521 109.832 154.112 101.91C154.112 101.91 143.248 98.4396 153.42 58.6416C153.634 57.7866 153.86 56.9315 154.099 56.0387C155.483 50.8832 145.36 42.0434 143.537 38.9375C130.397 16.6431 55.5161 45.9792 55.5161 45.9792Z" fill="#2C2C2C"/>
<path d="M121.029 193.276C121.029 193.276 109.812 194.596 107.461 194.596C107.436 194.596 107.411 194.596 107.386 194.596C107.373 194.596 107.36 194.596 107.348 194.596C107.335 194.596 107.323 194.596 107.31 194.596C107.285 194.596 107.26 194.596 107.235 194.596C104.871 194.596 93.6669 193.276 93.6669 193.276C78.7159 197.991 79.7847 219.808 79.7973 220.424C79.8979 224.925 79.9608 229.44 80.0739 233.941C80.338 244.541 83.0415 276.292 83.7331 286.389C83.796 287.219 83.8337 287.911 83.8588 288.426C84.9905 311.085 86.1097 333.744 87.2414 356.403C87.3419 358.39 87.4425 360.389 87.5431 362.376C87.5431 362.376 92.7992 365.645 103.11 362.376L103.198 288.778L106.065 234.092C106.065 234.092 106.593 234.017 107.222 233.954C107.26 233.954 107.298 233.966 107.348 233.966V233.979C107.36 233.979 107.373 233.979 107.386 233.979C107.398 233.979 107.411 233.979 107.423 233.979V233.966C107.461 233.966 107.499 233.954 107.549 233.954C108.178 234.017 108.706 234.092 108.706 234.092L111.573 288.778L111.661 362.376C121.972 365.645 127.228 362.376 127.228 362.376C127.329 360.389 127.429 358.39 127.53 356.403C128.661 333.744 129.768 311.085 130.912 288.426C130.937 287.911 130.975 287.219 131.038 286.389C131.717 276.304 134.433 244.541 134.697 233.941C134.81 229.44 134.873 224.925 134.974 220.424C134.911 219.808 135.967 197.991 121.029 193.276Z" fill="#2C2C2C"/>
<path d="M33.1903 149.053C33.1903 149.053 30.1541 146.795 29.6113 144.548C29.0571 142.296 28.6214 141.216 24.9589 137.17C21.3307 133.141 20.6935 129.761 20.6935 129.761C20.6935 129.761 16.22 131.228 21.6587 137.692C24.986 141.654 11.1561 135.037 7.1644 132.664C7.1644 132.664 4.13436 132.894 7.274 136.661C10.4136 140.429 6.47417 138.825 12.9169 145.785C19.3431 152.751 27.9957 158.792 32.0926 154.863C36.178 150.929 33.1903 149.053 33.1903 149.053Z" fill="white"/>
<path fill-rule="evenodd" clip-rule="evenodd" d="M20.6932 129.76L20.5365 129.282L21.0813 129.104L21.1873 129.666L21.1874 129.666L21.1875 129.667L21.1882 129.671C21.1891 129.675 21.1906 129.682 21.1929 129.693C21.1975 129.715 21.2051 129.748 21.2163 129.794C21.2386 129.885 21.2751 130.024 21.3304 130.204C21.4409 130.565 21.6265 131.093 21.9233 131.746C22.5167 133.052 23.5556 134.86 25.3319 136.833C27.1653 138.858 28.2184 140.17 28.8815 141.272C29.5558 142.393 29.8178 143.283 30.0995 144.428L30.0997 144.429L30.1 144.43C30.3373 145.413 31.1465 146.456 31.9636 147.291C32.363 147.699 32.7469 148.041 33.0311 148.28C33.1729 148.399 33.2892 148.493 33.3694 148.556C33.4095 148.587 33.4405 148.611 33.4611 148.627C33.4686 148.632 33.4747 148.637 33.4794 148.641C33.484 148.644 33.4893 148.647 33.4952 148.651C33.5004 148.655 33.5061 148.659 33.5122 148.663C33.5408 148.683 33.5792 148.712 33.6248 148.748C33.7156 148.821 33.8362 148.927 33.9649 149.068C34.2213 149.35 34.5184 149.78 34.6617 150.362C34.9579 151.567 34.5512 153.194 32.4412 155.225L32.4405 155.226C31.2907 156.329 29.8287 156.715 28.2301 156.583C26.6458 156.452 24.9092 155.814 23.1379 154.852C19.5928 152.925 15.7803 149.631 12.5471 146.126C9.32113 142.641 8.61078 141.217 8.366 140.137C8.32295 139.947 8.29395 139.764 8.26861 139.603C8.26019 139.55 8.25216 139.499 8.24416 139.452C8.21071 139.253 8.1725 139.07 8.09985 138.865C7.95473 138.455 7.65282 137.902 6.88737 136.983C6.08155 136.016 5.6333 135.233 5.44845 134.585C5.25841 133.92 5.34317 133.376 5.62778 132.964C5.89678 132.575 6.29232 132.38 6.57695 132.283C6.72407 132.233 6.85603 132.203 6.95204 132.186C7.0004 132.178 7.04061 132.172 7.07024 132.168C7.08508 132.167 7.09735 132.165 7.10674 132.164C7.11144 132.164 7.11543 132.163 7.11867 132.163L7.12297 132.163L7.12469 132.163L7.12544 132.163C7.12579 132.163 7.12612 132.163 7.16415 132.664L7.12612 132.163L7.28455 132.151L7.42113 132.232C9.39349 133.404 13.8266 135.641 17.3472 137.088C19.1258 137.82 20.6045 138.32 21.415 138.412C21.4765 138.419 21.5298 138.423 21.5758 138.424C21.5123 138.319 21.4152 138.184 21.2735 138.015C18.5203 134.743 18.1283 132.564 18.6651 131.126C18.9288 130.42 19.3961 129.96 19.7871 129.681C19.983 129.541 20.1633 129.444 20.2969 129.381C20.3638 129.35 20.4197 129.326 20.4607 129.31C20.4813 129.302 20.4981 129.296 20.5109 129.291C20.5173 129.289 20.5226 129.287 20.5269 129.286L20.5325 129.284L20.5347 129.283L20.5356 129.283C20.5361 129.282 20.5365 129.282 20.6932 129.76ZM7.06461 133.189C7.0171 133.2 6.96157 133.215 6.90258 133.235C6.71719 133.298 6.55145 133.397 6.4554 133.536C6.37495 133.652 6.29088 133.872 6.41573 134.309C6.54578 134.765 6.89614 135.422 7.66014 136.339C8.46451 137.304 8.84753 137.963 9.04812 138.529C9.14832 138.812 9.19816 139.059 9.23617 139.285C9.24736 139.351 9.25719 139.414 9.26665 139.473C9.29047 139.624 9.31196 139.759 9.3471 139.915C9.52817 140.714 10.0694 141.969 13.2858 145.443L13.2864 145.444C16.4792 148.905 20.2061 152.114 23.6181 153.968C25.3253 154.895 26.9217 155.466 28.3128 155.581C29.6896 155.694 30.8454 155.362 31.744 154.5C33.7189 152.598 33.8611 151.319 33.6848 150.603C33.5918 150.224 33.3974 149.939 33.2212 149.746C33.1336 149.65 33.0528 149.579 32.9962 149.533C32.968 149.511 32.9462 149.495 32.9331 149.486C32.9265 149.481 32.9221 149.478 32.9203 149.477C32.9194 149.476 32.9191 149.476 32.9194 149.476L32.9058 149.468L32.89 149.456L33.1901 149.052C32.89 149.456 32.8899 149.456 32.8898 149.456L32.8895 149.456L32.8865 149.453L32.8787 149.448C32.8721 149.443 32.8627 149.435 32.8506 149.426C32.8264 149.408 32.7917 149.381 32.7476 149.346C32.6597 149.277 32.5346 149.177 32.3833 149.049C32.0812 148.795 31.6721 148.432 31.2446 147.995C30.4082 147.14 29.4282 145.931 29.1224 144.667C28.85 143.56 28.617 142.784 28.0195 141.791C27.4105 140.778 26.4146 139.528 24.5858 137.508L24.5848 137.507C22.7333 135.45 21.6396 133.553 21.0075 132.162C20.6922 131.468 20.4918 130.9 20.3694 130.501C20.0921 130.7 19.7819 131.011 19.6076 131.478C19.2674 132.389 19.3579 134.176 22.0434 137.368L22.0437 137.368C22.264 137.631 22.4351 137.874 22.5418 138.098C22.6412 138.306 22.7295 138.59 22.6296 138.876C22.5171 139.199 22.238 139.338 22.0155 139.392C21.7973 139.444 21.5477 139.439 21.3026 139.411C20.3311 139.302 18.7267 138.743 16.9647 138.019C13.4941 136.592 9.15183 134.41 7.06461 133.189ZM7.20437 133.166C7.20531 133.165 7.20562 133.165 7.20527 133.165L7.20437 133.166Z" fill="#2C2C2C"/>
<path d="M79.7574 130.168C79.7574 130.168 70.1316 181.033 65.4125 183.903C61.6149 186.217 49.3247 175.616 33.1237 161.313C31.3398 159.644 29.1924 157.094 29.1924 157.094L32.8162 143.404L36.8476 147.645L55.9988 163.634C55.9988 163.634 64.021 122.146 71.6046 121.392C79.2005 120.626 79.7574 130.168 79.7574 130.168Z" fill="#2C2C2C"/>
<path d="M181.668 149.052C181.668 149.052 184.704 146.795 185.247 144.548C185.801 142.296 186.237 141.215 189.9 137.17C193.528 133.14 194.165 129.76 194.165 129.76C194.165 129.76 198.638 131.228 193.2 137.692C189.872 141.654 203.702 135.037 207.694 132.664C207.694 132.664 210.724 132.894 207.584 136.661C204.445 140.428 208.384 138.825 201.941 145.785C195.515 152.751 186.863 158.792 182.766 154.863C178.68 150.929 181.668 149.052 181.668 149.052Z" fill="white"/>
<path fill-rule="evenodd" clip-rule="evenodd" d="M194.165 129.76L194.322 129.282L193.777 129.104L193.671 129.666L193.671 129.666L193.671 129.667L193.67 129.671C193.669 129.675 193.668 129.682 193.665 129.693C193.661 129.715 193.653 129.748 193.642 129.794C193.62 129.885 193.583 130.024 193.528 130.204C193.417 130.565 193.232 131.093 192.935 131.746C192.342 133.052 191.303 134.86 189.527 136.833C187.693 138.858 186.64 140.17 185.977 141.272C185.303 142.393 185.041 143.283 184.759 144.428L184.759 144.429L184.758 144.43C184.521 145.413 183.712 146.456 182.895 147.291C182.495 147.699 182.111 148.041 181.827 148.28C181.685 148.399 181.569 148.493 181.489 148.556C181.449 148.587 181.418 148.611 181.397 148.627C181.39 148.632 181.384 148.637 181.379 148.641C181.374 148.644 181.369 148.647 181.363 148.651C181.358 148.655 181.352 148.659 181.346 148.663C181.318 148.683 181.279 148.712 181.234 148.748C181.143 148.821 181.022 148.927 180.894 149.068C180.637 149.35 180.34 149.78 180.197 150.362C179.9 151.567 180.307 153.194 182.417 155.225L182.418 155.226C183.568 156.329 185.03 156.715 186.628 156.583C188.213 156.452 189.949 155.814 191.721 154.852C195.266 152.925 199.078 149.631 202.311 146.126C205.537 142.641 206.248 141.217 206.492 140.137C206.535 139.947 206.564 139.764 206.59 139.603C206.598 139.55 206.606 139.499 206.614 139.452C206.648 139.253 206.686 139.07 206.759 138.865C206.904 138.455 207.206 137.902 207.971 136.983C208.777 136.016 209.225 135.233 209.41 134.585C209.6 133.92 209.515 133.376 209.231 132.964C208.962 132.575 208.566 132.38 208.281 132.283C208.134 132.233 208.002 132.203 207.906 132.186C207.858 132.178 207.818 132.172 207.788 132.168C207.773 132.167 207.761 132.165 207.752 132.164C207.747 132.164 207.743 132.163 207.74 132.163L207.735 132.163L207.734 132.163L207.733 132.163C207.733 132.163 207.732 132.163 207.694 132.664L207.732 132.163L207.574 132.151L207.437 132.232C205.465 133.404 201.032 135.641 197.511 137.088C195.733 137.82 194.254 138.32 193.443 138.412C193.382 138.419 193.329 138.423 193.283 138.424C193.346 138.319 193.443 138.184 193.585 138.015C196.338 134.743 196.73 132.564 196.193 131.126C195.93 130.42 195.462 129.96 195.071 129.681C194.875 129.541 194.695 129.444 194.562 129.381C194.495 129.35 194.439 129.326 194.398 129.31C194.377 129.302 194.36 129.296 194.348 129.291C194.341 129.289 194.336 129.287 194.331 129.286L194.326 129.284L194.324 129.283L194.323 129.283C194.322 129.282 194.322 129.282 194.165 129.76ZM207.794 133.189C207.841 133.2 207.897 133.215 207.956 133.235C208.141 133.298 208.307 133.397 208.403 133.536C208.483 133.652 208.568 133.872 208.443 134.309C208.313 134.765 207.962 135.422 207.198 136.339C206.394 137.304 206.011 137.963 205.81 138.529C205.71 138.812 205.66 139.059 205.622 139.285C205.611 139.351 205.601 139.414 205.592 139.473C205.568 139.624 205.546 139.759 205.511 139.915C205.33 140.714 204.789 141.969 201.573 145.443L201.572 145.444C198.379 148.905 194.652 152.114 191.24 153.968C189.533 154.895 187.937 155.466 186.546 155.581C185.169 155.694 184.013 155.362 183.114 154.5C181.139 152.598 180.997 151.319 181.174 150.603C181.267 150.224 181.461 149.939 181.637 149.746C181.725 149.65 181.806 149.579 181.862 149.533C181.89 149.511 181.912 149.495 181.925 149.486C181.932 149.481 181.936 149.478 181.938 149.477C181.939 149.476 181.939 149.476 181.939 149.476L181.953 149.468L181.968 149.456L181.668 149.052C181.968 149.456 181.969 149.456 181.969 149.456L181.969 149.456L181.972 149.453L181.98 149.448C181.986 149.443 181.996 149.435 182.008 149.426C182.032 149.408 182.067 149.381 182.111 149.346C182.199 149.277 182.324 149.177 182.475 149.049C182.777 148.795 183.186 148.432 183.614 147.995C184.45 147.14 185.43 145.931 185.736 144.667C186.008 143.56 186.241 142.784 186.839 141.791C187.448 140.778 188.444 139.528 190.273 137.508L190.274 137.507C192.125 135.45 193.219 133.553 193.851 132.162C194.166 131.468 194.367 130.9 194.489 130.501C194.766 130.7 195.076 131.011 195.251 131.478C195.591 132.389 195.501 134.176 192.815 137.368L192.815 137.368C192.594 137.631 192.423 137.874 192.317 138.098C192.217 138.306 192.129 138.59 192.229 138.876C192.341 139.199 192.62 139.338 192.843 139.392C193.061 139.444 193.311 139.439 193.556 139.411C194.527 139.302 196.132 138.743 197.894 138.019C201.364 136.592 205.707 134.41 207.794 133.189ZM207.654 133.166C207.653 133.165 207.653 133.165 207.653 133.165L207.654 133.166Z" fill="#2C2C2C"/>
<path d="M135.101 130.168C135.101 130.168 144.727 181.033 149.446 183.903C153.244 186.217 165.534 175.616 181.735 161.313C183.519 159.644 185.666 157.094 185.666 157.094L182.042 143.404L178.011 147.645L158.86 163.634C158.86 163.634 150.837 122.146 143.254 121.392C135.658 120.626 135.101 130.168 135.101 130.168Z" fill="#2C2C2C"/>
<path d="M155.093 130.491C155.093 138.514 149.836 143.481 141.814 143.481C133.791 143.481 127.291 136.98 127.291 128.957C127.291 120.935 133.351 112.083 140.997 114.484C149.421 117.112 155.093 122.469 155.093 130.491Z" fill="white"/>
<path fill-rule="evenodd" clip-rule="evenodd" d="M131.66 118.137C129.27 120.958 127.794 125.06 127.794 128.958C127.794 136.702 134.069 142.978 141.814 142.978C145.721 142.978 148.906 141.77 151.112 139.633C153.315 137.499 154.59 134.39 154.59 130.492C154.59 122.775 149.158 117.557 140.847 114.965L140.846 114.964C137.273 113.842 134.043 115.325 131.66 118.137ZM141.147 114.004C137.075 112.726 133.452 114.467 130.893 117.487C128.342 120.497 126.788 124.833 126.788 128.958C126.788 137.258 133.514 143.984 141.814 143.984C145.929 143.984 149.384 142.708 151.812 140.356C154.242 138.002 155.596 134.616 155.596 130.492C155.596 122.163 149.686 116.668 141.147 114.004Z" fill="#2C2C2C"/>
<path d="M148.566 128.153C148.566 134.088 144.681 137.76 138.746 137.76C132.811 137.76 128.007 132.956 128.007 127.021C128.007 121.086 132.484 114.535 138.155 116.308C144.367 118.269 148.566 122.23 148.566 128.153Z" fill="#2C2C2C"/>
<path d="M57.6411 130.492C57.6411 138.514 62.8972 143.481 70.9197 143.481C78.9421 143.481 85.4305 136.967 85.4305 128.957C85.4305 120.948 79.3697 112.083 71.7244 114.484C63.3122 117.112 57.6411 122.469 57.6411 130.492Z" fill="white"/>
<path fill-rule="evenodd" clip-rule="evenodd" d="M81.8283 117.492C84.3795 120.504 85.9335 124.839 85.9335 128.958C85.9335 137.244 79.2208 143.984 70.9197 143.984C66.8044 143.984 63.3502 142.708 60.922 140.356C58.492 138.002 57.1382 134.616 57.1382 130.492C57.1382 122.163 63.0479 116.668 71.5741 114.005C75.6461 112.726 79.2697 114.471 81.8283 117.492ZM81.0607 118.142C78.6776 115.328 75.4483 113.842 71.8752 114.964L71.8745 114.965C63.5764 117.557 58.1441 122.775 58.1441 130.492C58.1441 134.39 59.4184 137.499 61.622 139.634C63.8275 141.77 67.0126 142.978 70.9197 142.978C78.6635 142.978 84.9276 136.691 84.9276 128.958C84.9276 125.066 83.4512 120.964 81.0607 118.142Z" fill="#2C2C2C"/>
<path d="M64.1797 128.153C64.1797 134.088 68.0652 137.76 74.0003 137.76C79.9354 137.76 84.7388 132.956 84.7388 127.021C84.7388 121.086 80.2623 114.535 74.6039 116.308C68.367 118.269 64.1797 122.23 64.1797 128.153Z" fill="#2C2C2C"/>
<path d="M124.65 194.86C115.571 194.03 106.606 193.69 106.606 193.69C103.311 193.791 96.2946 194.08 89.0518 194.86C91.1643 202.078 98.3317 207.397 106.845 207.397C115.37 207.409 122.537 202.065 124.65 194.86Z" fill="#50BFD7"/>
<path d="M123.908 195.614C124.688 192.546 140.293 114.358 140.293 114.358C140.293 114.358 98.6462 102.061 72.0137 114.358L89.0897 196.293L123.908 195.614Z" fill="white"/>
<path fill-rule="evenodd" clip-rule="evenodd" d="M140.434 113.876C140.435 113.876 140.435 113.876 140.292 114.359C140.786 114.457 140.786 114.457 140.785 114.458L140.785 114.461L140.61 115.336C140.496 115.909 140.328 116.751 140.114 117.823C139.685 119.967 139.073 123.033 138.335 126.722C136.86 134.1 134.885 143.969 132.886 153.935C128.89 173.851 124.789 194.188 124.395 195.738L124.301 196.11L88.6822 196.804L71.4395 114.07L71.8026 113.902C85.2478 107.694 102.432 107.707 116.196 109.247C123.088 110.018 129.145 111.175 133.478 112.138C135.645 112.62 137.382 113.054 138.578 113.368C139.177 113.525 139.64 113.651 139.954 113.739C140.111 113.783 140.23 113.817 140.311 113.84C140.352 113.852 140.382 113.861 140.403 113.867L140.426 113.874L140.433 113.876L140.434 113.876ZM140.292 114.359L140.786 114.457L140.876 114.006L140.435 113.876L140.292 114.359ZM139.708 114.715C139.7 114.713 139.691 114.71 139.683 114.708C139.374 114.622 138.916 114.496 138.323 114.341C137.138 114.03 135.413 113.599 133.26 113.12C128.952 112.162 122.933 111.013 116.084 110.247C102.492 108.726 85.7221 108.726 72.5878 114.649L89.4968 195.782L123.507 195.119C124.219 191.923 128.1 172.674 131.899 153.737C133.899 143.772 135.874 133.903 137.349 126.525C138.086 122.836 138.699 119.77 139.127 117.626C139.341 116.554 139.509 115.712 139.624 115.139L139.708 114.715Z" fill="black"/>
<path d="M123.908 195.614C124.688 192.546 140.293 114.358 140.293 114.358C140.293 114.358 98.6462 102.061 72.0137 114.358L89.0897 196.293L123.908 195.614Z" fill="white"/>
<path fill-rule="evenodd" clip-rule="evenodd" d="M140.434 113.876C140.435 113.876 140.435 113.876 140.292 114.359C140.786 114.457 140.786 114.457 140.785 114.458L140.785 114.461L140.61 115.336C140.496 115.909 140.328 116.751 140.114 117.823C139.685 119.967 139.073 123.033 138.335 126.722C136.86 134.1 134.885 143.969 132.886 153.935C128.89 173.851 124.789 194.188 124.395 195.738L124.301 196.11L88.6822 196.804L71.4395 114.07L71.8026 113.902C85.2478 107.694 102.432 107.707 116.196 109.247C123.088 110.018 129.145 111.175 133.478 112.138C135.645 112.62 137.382 113.054 138.578 113.368C139.177 113.525 139.64 113.651 139.954 113.739C140.111 113.783 140.23 113.817 140.311 113.84C140.352 113.852 140.382 113.861 140.403 113.867L140.426 113.874L140.433 113.876L140.434 113.876ZM140.292 114.359L140.786 114.457L140.876 114.006L140.435 113.876L140.292 114.359ZM139.708 114.715C139.7 114.713 139.691 114.71 139.683 114.708C139.374 114.622 138.916 114.496 138.323 114.341C137.138 114.03 135.413 113.599 133.26 113.12C128.952 112.162 122.933 111.013 116.084 110.247C102.492 108.726 85.7221 108.726 72.5878 114.649L89.4968 195.782L123.507 195.119C124.219 191.923 128.1 172.674 131.899 153.737C133.899 143.772 135.874 133.903 137.349 126.525C138.086 122.836 138.699 119.77 139.127 117.626C139.341 116.554 139.509 115.712 139.624 115.139L139.708 114.715Z" fill="#2C2C2C"/>
<path d="M130.183 111.957C118.551 109.618 98.8848 106.952 81.9849 110.976C83.9842 123.588 85.9835 136.213 87.9829 148.825C89.5924 157.376 97.7029 163.072 106.165 163.122C114.628 163.072 122.738 157.388 124.348 148.825C126.284 136.527 128.233 124.242 130.183 111.957Z" fill="#50BFD7"/>
<path fill-rule="evenodd" clip-rule="evenodd" d="M81.8687 110.487C98.8794 106.437 118.635 109.122 130.282 111.464L130.755 111.559L130.678 112.044C128.73 124.326 126.781 136.609 124.845 148.903L124.844 148.911L124.843 148.918C123.182 157.756 114.831 163.574 106.169 163.625L106.166 163.625L106.163 163.625C97.4998 163.574 89.1501 157.743 87.4889 148.918L87.4876 148.911L87.4865 148.904C86.4869 142.598 85.4873 136.29 84.4878 129.981L84.4875 129.979C83.4878 123.67 82.4881 117.361 81.4885 111.055L81.4155 110.595L81.8687 110.487ZM82.5552 111.359C83.5304 117.511 84.5056 123.666 85.4807 129.82L85.481 129.822C86.4803 136.129 87.4796 142.436 88.4789 148.739C90.0397 157.011 97.9071 162.569 106.166 162.619C114.425 162.569 122.292 157.023 123.853 148.74C125.764 136.603 127.687 124.479 129.61 112.356C118.048 110.065 99.0158 107.568 82.5552 111.359Z" fill="#2C2C2C"/>
<path d="M104.72 116.421C108.693 116.421 114.867 115.214 114.867 111.253L113.849 98.0245L112.956 86.4561C112.956 82.4826 109.737 79.2761 105.776 79.2761C103.789 79.2761 102.004 80.0809 100.696 81.376C99.4008 82.6712 98.5834 84.4693 98.5834 86.4561L97.7032 98.0371L96.8607 109.14C95.729 115.842 104.72 116.421 104.72 116.421Z" fill="#2C2C2C"/>
<path d="M127.957 11.8647C122.01 4.54642 113.698 0.132812 103.035 0.132812C78.8794 0.132812 55.2646 22.4021 55.2646 50.1789C55.2646 77.9557 74.843 100.476 98.9984 100.476C101.325 100.476 103.575 100.275 105.738 99.8729C105.965 101.093 106.09 102.35 106.09 103.633C106.09 103.872 106.078 104.098 106.078 104.324C172.672 88.2038 161.77 7.75289 127.957 11.8647Z" fill="#2C2C2C"/>
<path d="M76.025 78.2324C80.5043 78.2324 84.1355 74.6012 84.1355 70.122C84.1355 65.6427 80.5043 62.0115 76.025 62.0115C71.5457 62.0115 67.9146 65.6427 67.9146 70.122C67.9146 74.6012 71.5457 78.2324 76.025 78.2324Z" fill="white"/>
<path fill-rule="evenodd" clip-rule="evenodd" d="M76.0246 62.5145C71.8231 62.5145 68.4171 65.9205 68.4171 70.122C68.4171 74.3235 71.8231 77.7295 76.0246 77.7295C80.2261 77.7295 83.6321 74.3235 83.6321 70.122C83.6321 65.9205 80.2261 62.5145 76.0246 62.5145ZM67.4111 70.122C67.4111 65.3649 71.2675 61.5085 76.0246 61.5085C80.7817 61.5085 84.6381 65.3649 84.6381 70.122C84.6381 74.8791 80.7817 78.7355 76.0246 78.7355C71.2675 78.7355 67.4111 74.8791 67.4111 70.122Z" fill="#2C2C2C"/>
<path d="M133.138 78.2324C137.617 78.2324 141.248 74.6012 141.248 70.122C141.248 65.6427 137.617 62.0115 133.138 62.0115C128.659 62.0115 125.027 65.6427 125.027 70.122C125.027 74.6012 128.659 78.2324 133.138 78.2324Z" fill="white"/>
<path fill-rule="evenodd" clip-rule="evenodd" d="M133.138 62.5145C128.936 62.5145 125.53 65.9205 125.53 70.122C125.53 74.3235 128.936 77.7295 133.138 77.7295C137.339 77.7295 140.745 74.3235 140.745 70.122C140.745 65.9205 137.339 62.5145 133.138 62.5145ZM124.524 70.122C124.524 65.3649 128.381 61.5085 133.138 61.5085C137.895 61.5085 141.751 65.3649 141.751 70.122C141.751 74.8791 137.895 78.7355 133.138 78.7355C128.381 78.7355 124.524 74.8791 124.524 70.122Z" fill="#2C2C2C"/>
<path d="M105.348 103.96C122.758 103.96 136.872 83.9796 136.872 59.3331C136.872 34.6865 122.758 14.7065 105.348 14.7065C87.938 14.7065 73.8242 34.6865 73.8242 59.3331C73.8242 83.9796 87.938 103.96 105.348 103.96Z" fill="white"/>
<path fill-rule="evenodd" clip-rule="evenodd" d="M83.4682 28.0676C77.8303 36.0489 74.3272 47.1014 74.3272 59.3331C74.3272 71.5649 77.8303 82.6173 83.4682 90.5986C89.1071 98.5812 96.8503 103.457 105.348 103.457C113.846 103.457 121.589 98.5812 127.228 90.5986C132.866 82.6173 136.369 71.5649 136.369 59.3331C136.369 47.1014 132.866 36.0489 127.228 28.0676C121.589 20.085 113.846 15.2096 105.348 15.2096C96.8503 15.2096 89.1071 20.085 83.4682 28.0676ZM82.6466 27.4872C88.4172 19.3182 96.436 14.2036 105.348 14.2036C114.26 14.2036 122.279 19.3182 128.05 27.4872C133.821 35.6575 137.375 46.9183 137.375 59.3331C137.375 71.7479 133.821 83.0087 128.05 91.179C122.279 99.348 114.26 104.463 105.348 104.463C96.436 104.463 88.4172 99.348 82.6466 91.179C76.8751 83.0087 73.3213 71.7479 73.3213 59.3331C73.3213 46.9183 76.8751 35.6575 82.6466 27.4872Z" fill="#2C2C2C"/>
<path d="M69.2222 49.4369C69.2222 49.4369 96.0559 50.7447 104.996 34.5992C104.996 34.5992 124.411 51.3985 142.946 50.0908L141.198 42.6719L134.005 28.488L129.642 23.2571L120.702 13.8766L108.706 8.85938L94.3081 10.821L75.107 23.9109L72.7053 32.6375L69.2222 49.4369Z" fill="#2C2C2C"/>
<path d="M106.128 76.7736C106.141 76.8491 105.977 76.9874 105.612 76.9874C105.26 76.9999 104.72 76.8365 104.242 76.3838C104.003 76.1575 103.789 75.8808 103.626 75.5287C103.601 75.4784 103.588 75.4282 103.563 75.3779L103.538 75.3024L103.513 75.2395L103.475 75.1264C103.462 75.0761 103.45 75.0132 103.425 74.9629C103.374 74.7743 103.337 74.5731 103.324 74.3593C103.248 73.5294 103.412 72.6869 103.613 71.8822C104.393 68.6631 105.311 66.1357 105.65 66.2111C105.99 66.2991 105.638 68.9649 104.858 72.184C104.657 72.9761 104.506 73.6929 104.506 74.2965C104.506 74.4473 104.518 74.5982 104.531 74.7366L104.544 74.7869V74.812V74.8246V74.8371C104.544 74.8371 104.531 74.7994 104.544 74.812L104.569 74.9377L104.581 75.0006L104.594 75.0383L104.619 75.1138C104.695 75.3527 104.808 75.579 104.933 75.7551C105.185 76.1197 105.487 76.3461 105.726 76.4718C105.939 76.6353 106.115 76.6856 106.128 76.7736Z" fill="#2C2C2C"/>
<path d="M71.2719 64.4509C70.9198 63.0551 70.6557 61.6342 70.4419 60.2007C70.2408 58.7673 70.1024 57.3338 70.027 55.8877C69.9013 52.9956 70.0144 50.0783 70.4042 47.1988C70.794 44.3067 71.4605 41.4523 72.4036 38.6859C72.4539 38.5099 72.5167 38.3339 72.5796 38.1704L72.7682 37.6548L73.1454 36.6238L73.573 35.6052L73.7867 35.1022C73.8622 34.9388 73.9251 34.7627 74.0131 34.5993C74.6292 33.2664 75.2957 31.9461 76.0501 30.6886C77.5465 28.1486 79.2943 25.7595 81.3062 23.5841C83.3307 21.4213 85.6067 19.4849 88.0964 17.8628C88.3982 17.649 88.7251 17.4604 89.0395 17.2718C89.3538 17.0831 89.6808 16.882 89.9951 16.7059L90.9885 16.1778L91.4789 15.9137C91.6424 15.8257 91.8184 15.7503 91.9819 15.6748L93.0004 15.2096C93.0884 15.1718 93.1639 15.1341 93.2519 15.0964L93.516 14.9958L94.0315 14.7946L94.5471 14.5934C94.7231 14.5305 94.8866 14.4551 95.0752 14.3922L96.144 14.0401C98.9858 13.1222 101.979 12.657 104.971 12.5941C106.468 12.5438 107.964 12.657 109.448 12.8204C109.825 12.8707 110.19 12.9336 110.554 12.9839L111.108 13.0719C111.196 13.0845 111.296 13.0971 111.384 13.1222L111.661 13.1851L112.755 13.424C113.119 13.4994 113.484 13.6 113.836 13.7006C116.716 14.5054 119.495 15.6748 122.035 17.234L122.978 17.825C123.141 17.9256 123.292 18.0262 123.443 18.1394L123.896 18.4538L124.348 18.7681C124.499 18.8687 124.65 18.9819 124.801 19.095L125.681 19.7741L126.121 20.1136L126.549 20.4782L127.391 21.2075C127.668 21.4465 127.932 21.7105 128.196 21.9746L128.599 22.3644C128.737 22.4901 128.863 22.6159 128.988 22.7542L129.755 23.559L130.133 23.9613L130.497 24.3763L131.227 25.2188C131.352 25.3571 131.465 25.508 131.579 25.6463L131.918 26.0864C132.144 26.3756 132.371 26.6648 132.597 26.9666L133.238 27.872C133.679 28.463 134.056 29.1043 134.458 29.7204C136.017 32.2227 137.287 34.8885 138.293 37.6297C139.299 40.3835 140.016 43.2253 140.469 46.1048L140.557 46.6455L140.594 46.9096L140.62 47.1862L140.745 48.2676C140.846 48.9844 140.871 49.7137 140.934 50.443C141.022 51.8891 141.047 53.3477 141.009 54.7937L140.997 55.3344L140.972 55.8751C140.947 56.2398 140.934 56.5919 140.896 56.9565C140.846 57.6733 140.771 58.4026 140.683 59.1193C140.494 60.5528 140.255 61.9737 139.941 63.3821C140.117 61.9486 140.255 60.5277 140.305 59.0942C140.368 57.6607 140.381 56.2272 140.318 54.8063C140.255 53.3854 140.154 51.9519 139.978 50.5436C139.878 49.8394 139.802 49.1353 139.664 48.4311L139.475 47.3874L139.425 47.1234L139.362 46.8593L139.249 46.3438C138.658 43.5648 137.816 40.8487 136.747 38.2458L136.546 37.7554L136.332 37.2776L135.892 36.3094C135.753 35.9825 135.59 35.6807 135.426 35.3663L134.949 34.4232C134.785 34.1089 134.609 33.8071 134.433 33.5053C134.257 33.2035 134.094 32.8892 133.905 32.5874L133.352 31.6946C133.163 31.3928 132.987 31.091 132.786 30.8144C132.383 30.236 132.006 29.645 131.579 29.0917L130.95 28.2492C130.736 27.9726 130.51 27.7085 130.283 27.4319L129.944 27.0295C129.831 26.8912 129.718 26.7529 129.604 26.6271L128.9 25.8475L128.548 25.4577L128.184 25.0805L127.442 24.3386C125.442 22.4021 123.217 20.7046 120.815 19.2962C118.426 17.8879 115.848 16.8191 113.182 16.1023C112.516 15.9012 111.837 15.788 111.17 15.6371L110.919 15.5868C110.831 15.5742 110.743 15.5616 110.667 15.5491L110.152 15.4736C109.812 15.4233 109.473 15.3605 109.133 15.3227C107.763 15.1844 106.38 15.0838 105.009 15.1215C102.255 15.1718 99.5014 15.5868 96.8733 16.4293L95.8925 16.7436C95.7291 16.7939 95.5656 16.8568 95.4021 16.9197L94.9243 17.1083L94.4465 17.2969L94.2076 17.3849C94.1321 17.4101 94.0441 17.4604 93.9686 17.4855L93.0256 17.9131C92.8747 17.9885 92.7112 18.0514 92.5477 18.1268L92.0825 18.3657L91.1645 18.8436C90.8628 19.0196 90.561 19.1956 90.2592 19.3591C89.9574 19.5352 89.6556 19.6986 89.3664 19.8998C87.015 21.3836 84.8522 23.1566 82.8906 25.1433L82.1739 25.9104L81.8218 26.3002C81.7589 26.363 81.696 26.4259 81.6457 26.4888L81.4823 26.69L80.8033 27.4947C80.6901 27.6331 80.5769 27.7588 80.4637 27.8971L80.1368 28.3121L79.4955 29.142C79.3823 29.2803 79.2943 29.4186 79.1812 29.5695L78.8794 29.997C78.6782 30.2863 78.477 30.5629 78.2758 30.8647L77.7099 31.7575C76.2136 34.134 74.931 36.6615 73.9251 39.2895C72.9065 41.9176 72.1269 44.6588 71.5988 47.4503L71.3976 48.494C71.3347 48.8461 71.297 49.1981 71.2341 49.5502L71.0832 50.6065C71.0455 50.9586 71.0078 51.3106 70.9701 51.6627L70.8569 52.7315L70.794 53.8004L70.7312 54.8692C70.7186 55.2213 70.706 55.5859 70.6934 55.938C70.6683 57.3715 70.6934 58.7924 70.794 60.2259C70.9072 61.5965 71.0707 63.0174 71.2719 64.4509Z" fill="#50BFD7"/>
<path d="M97.1499 61.6971C97.1499 65.2808 94.0441 68.1855 90.2215 68.1855C86.3863 68.1855 83.293 65.2808 83.293 61.6971C83.293 58.1134 86.3988 55.2087 90.2215 55.2087C94.0441 55.2087 97.1499 58.1134 97.1499 61.6971Z" fill="white"/>
<path fill-rule="evenodd" clip-rule="evenodd" d="M90.2215 55.7118C86.6449 55.7118 83.796 58.422 83.796 61.6972C83.796 64.9729 86.6329 67.6826 90.2215 67.6826C93.7981 67.6826 96.647 64.9723 96.647 61.6972C96.647 58.422 93.7981 55.7118 90.2215 55.7118ZM82.79 61.6972C82.79 57.8049 86.1529 54.7058 90.2215 54.7058C94.2901 54.7058 97.653 57.8049 97.653 61.6972C97.653 65.5894 94.2901 68.6885 90.2215 68.6885C86.1397 68.6885 82.79 65.5889 82.79 61.6972Z" fill="#2C2C2C"/>
<path d="M86.8262 61.2947C86.8262 64.2497 88.7501 66.6514 91.114 66.6514C93.478 66.6514 95.4019 64.2497 95.4019 61.2947C95.4019 58.3397 93.478 55.938 91.114 55.938C88.7375 55.9255 86.8262 58.3272 86.8262 61.2947Z" fill="#50BFD7"/>
<path d="M88.0586 61.2947C88.0586 63.3946 89.4166 65.0921 91.1016 65.0921C92.7866 65.0921 94.1446 63.3946 94.1446 61.2947C94.1446 59.1947 92.7866 57.4846 91.1016 57.4846C89.4292 57.4846 88.0586 59.1822 88.0586 61.2947Z" fill="#2C2C2C"/>
<path d="M87.8696 57.6859C87.8696 58.2643 88.5738 58.717 89.4414 58.717C90.3091 58.717 91.0132 58.2517 91.0132 57.6859C91.0132 57.1075 90.3091 56.6548 89.4414 56.6548C88.5738 56.6422 87.8696 57.1075 87.8696 57.6859Z" fill="white"/>
<path d="M90.6742 54.2656C86.3863 53.838 83.0918 57.7109 83.0918 61.7096C83.0918 62.1246 83.6073 62.2 83.8211 61.9108C85.569 59.5091 86.1348 57.1451 89.3287 56.2272C94.0441 54.8691 96.6344 59.7103 96.8985 63.5077C96.9362 63.8724 97.2506 63.5455 97.2883 63.1682C97.7158 58.6289 95.4524 54.7434 90.6742 54.2656Z" fill="#2C2C2C"/>
<path d="M99.1366 51.7757C99.1366 51.7757 89.7812 42.4455 79.7217 53.5235C79.7091 53.5235 88.4106 47.9531 99.1366 51.7757Z" fill="#2C2C2C"/>
<path d="M127.291 61.6971C127.291 65.2808 124.185 68.1855 120.362 68.1855C116.527 68.1855 113.434 65.2808 113.434 61.6971C113.434 58.1134 116.539 55.2087 120.362 55.2087C124.185 55.2087 127.291 58.1134 127.291 61.6971Z" fill="white"/>
<path fill-rule="evenodd" clip-rule="evenodd" d="M120.362 55.7115C116.785 55.7115 113.937 58.4218 113.937 61.6969C113.937 64.9726 116.774 67.6823 120.362 67.6823C123.939 67.6823 126.788 64.9721 126.788 61.6969C126.788 58.4218 123.939 55.7115 120.362 55.7115ZM112.931 61.6969C112.931 57.8047 116.294 54.7056 120.362 54.7056C124.431 54.7056 127.794 57.8047 127.794 61.6969C127.794 65.5892 124.431 68.6883 120.362 68.6883C116.28 68.6883 112.931 65.5886 112.931 61.6969Z" fill="#2C2C2C"/>
<path d="M116.967 61.2945C116.967 64.2495 118.891 66.6512 121.255 66.6512C123.619 66.6512 125.543 64.2495 125.543 61.2945C125.543 58.3395 123.619 55.9378 121.255 55.9378C118.891 55.9252 116.967 58.3269 116.967 61.2945Z" fill="#50BFD7"/>
<path d="M118.212 61.2947C118.212 63.3946 119.57 65.0921 121.255 65.0921C122.94 65.0921 124.298 63.3946 124.298 61.2947C124.298 59.1947 122.94 57.4846 121.255 57.4846C119.57 57.4846 118.212 59.1822 118.212 61.2947Z" fill="#2C2C2C"/>
<path d="M118.011 57.6856C118.011 58.2641 118.715 58.7167 119.583 58.7167C120.45 58.7167 121.154 58.2515 121.154 57.6856C121.154 57.1072 120.45 56.6545 119.583 56.6545C118.727 56.642 118.011 57.1072 118.011 57.6856Z" fill="white"/>
<path d="M120.815 54.2656C116.527 53.838 113.232 57.7109 113.232 61.7096C113.232 62.1246 113.748 62.2 113.962 61.9108C115.71 59.5091 116.275 57.1451 119.469 56.2272C124.185 54.8691 126.775 59.7103 127.039 63.5077C127.077 63.8724 127.391 63.5455 127.429 63.1682C127.856 58.6289 125.606 54.7434 120.815 54.2656Z" fill="#2C2C2C"/>
<path d="M129.277 50.7574C129.277 50.7574 119.922 41.4272 109.862 52.5052C109.862 52.5052 118.564 46.9348 129.277 50.7574Z" fill="#2C2C2C"/>
<path d="M81.3311 376.572C81.3311 376.572 82.0729 378.924 82.2867 379.288C82.513 379.653 88.2847 381.64 95.3264 381.489C102.645 381.338 105.989 379.213 106.09 376.56H81.3311V376.572Z" fill="#50BFD7"/>
<path fill-rule="evenodd" clip-rule="evenodd" d="M80.8281 376.057H106.612L106.593 376.579C106.533 378.149 105.506 379.48 103.64 380.413C101.782 381.342 99.0326 381.916 95.3369 381.992M80.8281 376.057V376.56V376.057ZM81.3311 376.573L80.8514 376.724L80.8281 376.65V376.56M81.3311 376.573C80.8514 376.724 80.8514 376.724 80.8514 376.724L80.86 376.751C80.8656 376.769 80.8737 376.794 80.8841 376.827C80.905 376.893 80.935 376.986 80.9716 377.1C81.0449 377.327 81.1449 377.635 81.2518 377.954C81.3585 378.272 81.473 378.605 81.575 378.884C81.6697 379.142 81.7718 379.405 81.8528 379.543L81.8561 379.549L81.8594 379.554C81.9097 379.635 81.9719 379.69 82.0068 379.718C82.0476 379.751 82.0907 379.78 82.1305 379.804C82.2103 379.853 82.307 379.902 82.4129 379.951C82.6266 380.049 82.9151 380.162 83.2657 380.283C83.969 380.525 84.9502 380.808 86.1415 381.073C88.524 381.604 91.7682 382.069 95.3369 381.992M82.0171 377.063H105.515C105.297 377.96 104.583 378.817 103.19 379.513C101.52 380.348 98.9385 380.912 95.316 380.986L95.3156 380.986C91.8428 381.061 88.6804 380.608 86.3601 380.091C85.2001 379.833 84.2558 379.56 83.5932 379.332C83.2609 379.218 83.0063 379.117 82.8335 379.037C82.7692 379.008 82.7211 378.983 82.6871 378.964C82.6761 378.94 82.6636 378.91 82.6496 378.876C82.6122 378.785 82.5682 378.67 82.5195 378.537C82.4223 378.272 82.3112 377.949 82.2057 377.634C82.1385 377.434 82.0739 377.237 82.0171 377.063Z" fill="#2C2C2C"/>
<path d="M81.344 377.076C82.4505 378.069 83.8966 378.823 84.9528 379.163C87.5809 380.031 90.4604 380.358 93.2142 380.508C96.144 380.659 99.3631 380.609 102.104 379.452C103.588 378.823 104.845 377.905 106.015 376.862C106.543 375.567 106.681 374.095 106.644 372.587C106.556 369.87 105.939 367.242 105.462 364.577C105.386 364.187 105.323 363.81 105.26 363.432C105.122 361.697 104.996 359.949 104.883 358.227C104.845 357.585 104.77 357.019 104.783 356.378C104.795 355.951 104.946 355.259 104.833 354.857C104.82 354.806 104.795 354.769 104.783 354.731C104.783 354.668 104.795 354.605 104.783 354.542C104.292 354.14 103.777 353.763 103.186 353.599C102.758 353.675 102.331 353.813 102.054 353.926C101.614 354.102 101.224 354.328 100.872 354.593C100.004 353.411 97.8667 352.857 96.6596 352.807C94.7734 352.732 92.2585 353.058 90.7622 354.442C90.5107 354.203 90.1209 354.077 89.7814 354.014C89.7059 354.002 89.6179 353.989 89.5425 353.976C88.6623 354.316 88.8886 356.479 88.8006 357.095C88.6748 357.912 88.5491 358.73 88.3479 359.522C87.9455 361.043 87.3671 362.439 86.4869 363.747C85.5438 365.155 84.3115 366.375 83.2301 367.67C83.0792 367.934 82.9158 368.198 82.7649 368.45C81.608 370.311 80.6649 373.014 80.9164 375.227C80.9793 375.931 81.1302 376.535 81.344 377.076Z" fill="#50BFD7"/>
<path fill-rule="evenodd" clip-rule="evenodd" d="M93.4505 352.587C94.5556 352.33 95.7024 352.265 96.6797 352.304L96.6805 352.304C97.3376 352.332 98.2253 352.493 99.067 352.803C99.7438 353.053 100.44 353.416 100.956 353.924C101.236 353.747 101.538 353.591 101.865 353.46C102.17 353.335 102.631 353.186 103.098 353.104L103.21 353.084L103.32 353.114C104.021 353.308 104.607 353.748 105.102 354.153L105.241 354.267L105.276 354.443C105.292 354.522 105.292 354.593 105.291 354.639C105.3 354.664 105.31 354.693 105.319 354.726C105.402 355.026 105.38 355.383 105.356 355.653C105.344 355.78 105.332 355.892 105.321 355.992C105.303 356.145 105.289 356.272 105.285 356.39C105.278 356.802 105.307 357.163 105.339 357.563C105.355 357.761 105.372 357.968 105.385 358.195C105.498 359.908 105.623 361.646 105.76 363.371C105.822 363.742 105.883 364.106 105.955 364.481L105.956 364.484L105.957 364.488C106.055 365.037 106.161 365.589 106.266 366.143C106.667 368.244 107.076 370.383 107.146 372.57L107.146 372.572L107.146 372.574C107.185 374.115 107.046 375.665 106.481 377.052L106.437 377.159L106.35 377.237C105.157 378.302 103.853 379.257 102.301 379.915L102.3 379.915C99.4458 381.12 96.1269 381.162 93.1884 381.011L93.1867 381.01C90.4185 380.859 87.4875 380.529 84.7971 379.641C83.6797 379.282 82.1711 378.494 81.008 377.45L80.9198 377.37L80.8762 377.26C80.6451 376.676 80.4834 376.027 80.416 375.278C80.1496 372.913 81.1475 370.1 82.3356 368.187C82.3799 368.113 82.4242 368.04 82.4683 367.967C82.579 367.785 82.6885 367.604 82.7934 367.42L82.8155 367.382L82.8441 367.347C83.2155 366.903 83.5924 366.479 83.9639 366.061C84.7176 365.214 85.4494 364.392 86.069 363.467L86.0697 363.466C86.9123 362.214 87.4701 360.873 87.861 359.395C88.0547 358.632 88.1769 357.841 88.303 357.021C88.3183 356.912 88.3215 356.719 88.3263 356.428C88.3265 356.415 88.3267 356.401 88.327 356.387C88.3319 356.092 88.3395 355.735 88.3739 355.383C88.4078 355.035 88.4706 354.659 88.6005 354.333C88.7291 354.012 88.9553 353.664 89.3615 353.507L89.4897 353.458L89.6252 353.48C89.6592 353.486 89.6969 353.492 89.7385 353.498L89.7401 353.498C89.7798 353.504 89.8233 353.511 89.8641 353.518L89.8686 353.519L89.873 353.519C90.1235 353.566 90.4413 353.65 90.7324 353.808C91.5181 353.194 92.4814 352.813 93.4505 352.587ZM93.679 353.567C92.6773 353.801 91.7658 354.199 91.1036 354.811L90.7575 355.131L90.4158 354.806C90.2734 354.671 90.0054 354.567 89.6942 354.509C89.6801 354.507 89.6653 354.505 89.6499 354.502C89.616 354.541 89.5759 354.604 89.5347 354.707C89.4568 354.902 89.4056 355.168 89.3751 355.481C89.345 355.788 89.3377 356.109 89.3328 356.404C89.3323 356.43 89.3319 356.457 89.3315 356.483C89.3276 356.733 89.3236 356.99 89.2985 357.166L89.2981 357.168L89.2959 357.183C89.1714 357.992 89.0426 358.83 88.8354 359.645L88.8348 359.648L88.8342 359.65C88.4204 361.215 87.8217 362.664 86.9045 364.027C86.247 365.009 85.4358 365.921 84.6566 366.798C84.3072 367.191 83.9642 367.577 83.6444 367.958C83.5392 368.141 83.4277 368.325 83.3222 368.5C83.2789 368.571 83.2366 368.641 83.1962 368.708L83.1942 368.712L83.1921 368.715C82.0685 370.522 81.1822 373.111 81.4162 375.17L81.4169 375.176L81.4174 375.182C81.4718 375.791 81.5959 376.313 81.7695 376.78C82.8069 377.683 84.1398 378.373 85.1068 378.684L85.1086 378.684L85.1105 378.685C87.6753 379.532 90.5024 379.856 93.2407 380.006C96.1616 380.156 99.2803 380.098 101.908 378.989C103.287 378.404 104.472 377.554 105.592 376.565C106.048 375.386 106.177 374.033 106.141 372.601C106.073 370.501 105.684 368.463 105.286 366.373C105.178 365.809 105.07 365.242 104.967 364.669C104.891 364.274 104.827 363.892 104.765 363.518L104.761 363.494L104.759 363.472C104.621 361.734 104.495 359.984 104.381 358.259L104.381 358.258L104.381 358.256C104.371 358.075 104.356 357.891 104.341 357.704C104.306 357.276 104.271 356.831 104.28 356.368L104.28 356.366L104.28 356.363C104.284 356.208 104.307 356.003 104.328 355.816C104.338 355.725 104.347 355.638 104.354 355.562C104.379 355.285 104.377 355.1 104.35 354.997C104.349 354.996 104.348 354.994 104.347 354.992L104.345 354.987C104.343 354.981 104.339 354.974 104.335 354.965C104.328 354.949 104.316 354.922 104.305 354.89L104.28 354.812V354.783C103.899 354.482 103.538 354.244 103.158 354.116C102.81 354.188 102.469 354.3 102.244 354.391L102.243 354.392L102.241 354.393C101.845 354.551 101.493 354.755 101.174 354.995L100.767 355.3L100.467 354.89C100.118 354.416 99.4758 354.026 98.7193 353.747C97.9736 353.473 97.1892 353.332 96.6391 353.309C95.7303 353.273 94.6768 353.334 93.679 353.567Z" fill="#2C2C2C"/>
<path d="M135.854 376.572C135.854 376.572 135.124 378.924 134.898 379.288C134.672 379.653 128.9 381.64 121.858 381.489C114.54 381.338 111.195 379.213 111.095 376.56H135.854V376.572Z" fill="#50BFD7"/>
<path fill-rule="evenodd" clip-rule="evenodd" d="M110.572 376.057H136.357V376.649L136.334 376.722L135.854 376.573C136.334 376.722 136.334 376.722 136.334 376.722L136.334 376.722L136.334 376.722L136.326 376.749C136.32 376.766 136.312 376.792 136.302 376.825C136.281 376.89 136.252 376.984 136.215 377.098C136.143 377.326 136.044 377.633 135.938 377.953C135.832 378.271 135.718 378.605 135.615 378.885C135.52 379.142 135.414 379.41 135.325 379.554C135.275 379.635 135.213 379.69 135.178 379.718C135.137 379.751 135.094 379.78 135.054 379.804C134.974 379.853 134.878 379.902 134.772 379.951C134.558 380.049 134.27 380.162 133.919 380.283C133.216 380.525 132.235 380.808 131.043 381.073C128.661 381.604 125.417 382.069 121.848 381.992M135.171 377.063H111.67C111.888 377.96 112.602 378.817 113.995 379.513C115.664 380.348 118.246 380.912 121.869 380.986L121.869 380.986C125.342 381.061 128.504 380.608 130.825 380.091C131.985 379.833 132.929 379.56 133.592 379.332C133.924 379.218 134.178 379.117 134.351 379.037C134.418 379.007 134.467 378.982 134.501 378.963C134.512 378.938 134.525 378.908 134.54 378.873C134.578 378.783 134.622 378.669 134.671 378.536C134.768 378.272 134.879 377.95 134.983 377.635C135.05 377.434 135.114 377.238 135.171 377.063ZM110.572 376.057L110.592 376.579L110.572 376.057ZM110.592 376.579C110.652 378.149 111.679 379.48 113.545 380.413L110.592 376.579ZM113.545 380.413C115.402 381.342 118.152 381.916 121.848 381.992L113.545 380.413Z" fill="#2C2C2C"/>
<path d="M135.841 377.076C134.735 378.069 133.289 378.823 132.232 379.163C129.604 380.031 126.725 380.358 123.971 380.508C121.041 380.659 117.822 380.609 115.081 379.452C113.597 378.823 112.34 377.905 111.17 376.862C110.642 375.567 110.504 374.095 110.541 372.587C110.629 369.87 111.246 367.242 111.723 364.577C111.799 364.187 111.862 363.81 111.925 363.432C112.063 361.697 112.189 359.949 112.302 358.227C112.352 357.585 112.415 357.019 112.402 356.378C112.39 355.951 112.239 355.259 112.352 354.857C112.365 354.806 112.39 354.769 112.402 354.731C112.402 354.668 112.39 354.605 112.402 354.542C112.893 354.14 113.396 353.763 113.999 353.599C114.427 353.675 114.854 353.813 115.131 353.926C115.571 354.102 115.961 354.328 116.313 354.593C117.181 353.411 119.318 352.857 120.526 352.807C122.412 352.732 124.927 353.058 126.423 354.442C126.674 354.203 127.064 354.077 127.404 354.014C127.479 354.002 127.567 353.989 127.643 353.976C128.523 354.316 128.297 356.479 128.385 357.095C128.51 357.912 128.636 358.73 128.837 359.522C129.24 361.043 129.818 362.439 130.698 363.747C131.641 365.155 132.874 366.375 133.955 367.67C134.106 367.934 134.269 368.198 134.42 368.45C135.577 370.311 136.52 373.014 136.269 375.227C136.206 375.931 136.055 376.535 135.841 377.076Z" fill="#50BFD7"/>
<path fill-rule="evenodd" clip-rule="evenodd" d="M123.506 353.567C122.508 353.334 121.455 353.273 120.546 353.309C119.996 353.332 119.212 353.473 118.466 353.747C117.709 354.026 117.067 354.416 116.719 354.89L116.418 355.3L116.011 354.995C115.692 354.755 115.341 354.551 114.944 354.393L114.943 354.392L114.941 354.391C114.716 354.3 114.374 354.187 114.026 354.116C113.64 354.243 113.287 354.48 112.906 354.782V354.812L112.88 354.89C112.869 354.922 112.857 354.949 112.85 354.965C112.846 354.974 112.843 354.982 112.84 354.987C112.838 354.992 112.836 354.995 112.835 354.997C112.808 355.1 112.806 355.285 112.831 355.562C112.838 355.638 112.848 355.725 112.858 355.816C112.878 356.003 112.901 356.208 112.905 356.363L112.905 356.366L112.905 356.368C112.916 356.917 112.874 357.419 112.832 357.923C112.822 358.036 112.813 358.149 112.804 358.263C112.69 359.986 112.565 361.735 112.426 363.472L112.424 363.494L112.42 363.517C112.358 363.892 112.294 364.273 112.218 364.669C112.115 365.242 112.007 365.809 111.9 366.373C111.501 368.463 111.113 370.501 111.044 372.601C111.009 374.033 111.137 375.386 111.594 376.565C112.713 377.554 113.898 378.405 115.277 378.989C117.905 380.098 121.024 380.156 123.944 380.006C126.683 379.856 129.51 379.532 132.075 378.685L132.077 378.684L132.078 378.684C133.045 378.373 134.378 377.683 135.416 376.78C135.589 376.313 135.713 375.791 135.768 375.182L135.768 375.176L135.769 375.17C136.003 373.111 135.117 370.522 133.993 368.715L133.991 368.712L133.989 368.708C133.949 368.641 133.906 368.571 133.863 368.5C133.758 368.325 133.646 368.141 133.541 367.958C133.221 367.577 132.878 367.191 132.529 366.798C131.749 365.921 130.938 365.009 130.281 364.027C129.363 362.664 128.765 361.215 128.351 359.65L128.35 359.648L128.35 359.645C128.143 358.83 128.014 357.992 127.889 357.183L127.887 357.168L127.887 357.166C127.862 356.99 127.858 356.733 127.854 356.483C127.853 356.457 127.853 356.43 127.852 356.404C127.847 356.109 127.84 355.788 127.81 355.481C127.78 355.168 127.728 354.902 127.65 354.707C127.609 354.604 127.569 354.541 127.535 354.502C127.52 354.505 127.505 354.507 127.491 354.509C127.18 354.567 126.912 354.671 126.769 354.806L126.428 355.131L126.082 354.811C125.419 354.199 124.508 353.801 123.506 353.567ZM126.453 353.808C125.667 353.194 124.704 352.813 123.735 352.587C122.63 352.33 121.483 352.265 120.505 352.304L120.505 352.304C119.848 352.332 118.96 352.493 118.118 352.803C117.441 353.053 116.745 353.416 116.23 353.924C115.949 353.747 115.647 353.591 115.32 353.46C115.015 353.335 114.554 353.186 114.087 353.104L113.976 353.084L113.868 353.114C113.151 353.308 112.575 353.75 112.083 354.153L111.945 354.267L111.909 354.443C111.894 354.522 111.893 354.593 111.895 354.639C111.885 354.664 111.875 354.693 111.866 354.726C111.784 355.026 111.805 355.383 111.829 355.653C111.841 355.78 111.853 355.892 111.865 355.992C111.882 356.145 111.896 356.272 111.9 356.39C111.909 356.882 111.872 357.322 111.831 357.82C111.821 357.939 111.81 358.061 111.8 358.187L111.8 358.19L111.8 358.193C111.687 359.907 111.562 361.645 111.425 363.371C111.363 363.742 111.302 364.106 111.23 364.481L111.229 364.484L111.228 364.488C111.13 365.037 111.025 365.589 110.919 366.143C110.518 368.244 110.11 370.383 110.039 372.57L110.039 372.572L110.039 372.574C110 374.115 110.139 375.665 110.704 377.052L110.748 377.159L110.835 377.237C112.028 378.302 113.332 379.257 114.885 379.915L114.885 379.915C117.739 381.12 121.058 381.162 123.997 381.011L123.998 381.01C126.767 380.859 129.698 380.529 132.388 379.641C133.505 379.281 135.014 378.494 136.177 377.45L136.265 377.37L136.309 377.26C136.54 376.676 136.702 376.027 136.769 375.278C137.036 372.913 136.038 370.1 134.85 368.187C134.805 368.114 134.761 368.04 134.717 367.968C134.606 367.785 134.497 367.604 134.392 367.42L134.37 367.382L134.341 367.347C133.97 366.903 133.593 366.479 133.221 366.061C132.468 365.214 131.736 364.392 131.116 363.467L131.116 363.466C130.273 362.214 129.715 360.873 129.324 359.395C129.131 358.632 129.008 357.841 128.882 357.021C128.867 356.912 128.864 356.719 128.859 356.428L128.858 356.387C128.853 356.092 128.846 355.735 128.811 355.383C128.777 355.035 128.715 354.659 128.585 354.333C128.456 354.012 128.23 353.664 127.824 353.507L127.696 353.458L127.56 353.48C127.526 353.486 127.488 353.492 127.447 353.498L127.445 353.498C127.405 353.504 127.362 353.511 127.321 353.518L127.317 353.519L127.312 353.519C127.062 353.566 126.744 353.65 126.453 353.808ZM111.932 354.553C111.932 354.553 111.932 354.553 111.932 354.553V354.553Z" fill="#2C2C2C"/>
<path fill-rule="evenodd" clip-rule="evenodd" d="M73.1954 56.9692V57.2207H72.1895V56.9692H73.1954Z" fill="#2C2C2C"/>
<path fill-rule="evenodd" clip-rule="evenodd" d="M78.4767 59.7354V59.9868H77.4707V59.7354H78.4767Z" fill="#2C2C2C"/>
<path d="M107.084 58.2518C108.806 58.6164 108.165 59.7355 108.165 59.899C108.165 60.0625 108.806 69.3675 117.118 71.8195C125.43 74.2715 130.409 69.4555 131.855 67.0413C133.301 64.627 134.508 58.8931 134.861 58.453C135.225 58.0129 136.948 57.2458 136.948 57.2458L137.149 54.995L134.986 54.3537C134.986 54.3537 129.529 51.864 121.494 51.7508C113.471 51.6251 108.932 56.2524 108.932 56.2524C106.669 55.5357 103.865 55.4351 101.299 56.2524C101.299 56.2524 96.7601 51.6376 88.7376 51.7508C80.7152 51.8766 75.2453 54.3537 75.2453 54.3537L73.0825 54.995L73.2837 57.2458C73.2837 57.2458 75.0064 58.0129 75.3711 58.453C75.7357 58.8931 76.9303 64.6396 78.3763 67.0413C79.8224 69.4555 84.8019 74.2715 93.1135 71.8195C101.425 69.3675 102.066 60.0625 102.066 59.899C102.066 59.7355 101.425 58.6164 103.148 58.2518C104.644 57.9374 105.587 57.9374 107.084 58.2518ZM127.027 69.8957C120.689 73.7057 113.094 69.8579 110.806 64.8407C108.517 59.8236 110.441 57.1704 110.441 57.1704C114.276 50.9335 129.705 50.6694 132.358 57.4093C132.811 58.541 133.377 66.0856 127.027 69.8957ZM77.8608 57.4093C80.514 50.6568 95.9553 50.9335 99.778 57.1704C99.778 57.1704 101.702 59.8236 99.4133 64.8407C97.1248 69.8579 89.5424 73.7057 83.1923 69.8957C76.8548 66.0856 77.4207 58.541 77.8608 57.4093Z" fill="#2C2C2C"/>
<path d="M110.969 125.776H101.312C98.7465 125.776 96.6592 127.863 96.6592 130.429V140.086C96.6592 142.651 98.7465 144.738 101.312 144.738H110.969C113.534 144.738 115.621 142.651 115.621 140.086V130.429C115.621 127.863 113.547 125.776 110.969 125.776ZM94.094 121.664C92.6228 121.664 91.4282 122.859 91.4282 124.33C91.4282 125.801 92.6228 126.996 94.094 126.996C95.5652 126.996 96.7598 125.801 96.7598 124.33C96.7598 122.859 95.5652 121.664 94.094 121.664Z" fill="white"/>
<path d="M110.29 131.535C109.674 129.888 108.102 128.794 106.342 128.794H103.726L108.894 141.897H114.44L110.29 131.535ZM99.7277 138.137L98.2188 141.897H103.726L106.292 135.396H103.676C101.916 135.396 100.344 136.49 99.7277 138.137ZM100.583 132.051C101.488 132.051 102.23 131.309 102.23 130.404C102.23 129.498 101.488 128.756 100.583 128.756C99.6774 128.756 98.9355 129.498 98.9355 130.404C98.9355 131.309 99.6774 132.051 100.583 132.051Z" fill="#50BFD7"/>
<path fill-rule="evenodd" clip-rule="evenodd" d="M110.649 89.8707C105.158 86.5701 100.719 88.5301 99.2698 89.7886C98.934 90.0802 98.4254 90.0443 98.1338 89.7085C97.8422 89.3727 97.878 88.8641 98.2139 88.5725C100.125 86.9131 105.32 84.7879 111.479 88.4904C111.86 88.7195 111.983 89.2143 111.754 89.5954C111.525 89.9766 111.03 90.0999 110.649 89.8707Z" fill="#2C2C2C"/>
</svg>
