<svg width="455" height="380" viewBox="0 0 455 380" fill="none" xmlns="http://www.w3.org/2000/svg">
<path d="M434.248 189.564C439.001 157.807 434.885 125.668 415.083 98.2439C392.387 66.8558 356.437 44.6749 318.221 38.382C311.413 37.2534 304.526 36.6598 297.625 36.6067C281.152 36.4947 264.774 39.1046 249.152 44.3313C222.778 53.2393 200.107 68.7584 179.606 87.2807C170.501 95.5015 161.612 106.051 149.554 109.869C137.038 113.865 123.575 108.724 111.377 105.58C88.515 99.6883 54.9572 86.9625 32.1781 99.052C2.2726 114.959 -6.63543 149.955 4.81775 177.315C16.2709 204.676 51.2668 206.585 55.0845 227.582C58.9022 248.58 77.3546 279.758 117.441 276.576C157.527 273.395 172.798 239.035 198.249 249.216C207.202 252.798 214.233 259.397 221.849 265.066C232.456 272.981 243.96 278.371 257.017 280.852C275.685 284.403 296.072 282.526 314.919 281.622C336.553 280.579 359.828 281.374 380.832 273.815C403.382 265.689 417.622 247.886 425.264 225.565C429.339 213.861 432.346 201.811 434.248 189.564Z" fill="#CAECF3"/>
<path d="M270.924 270.605H374.914C376.901 270.605 378.807 269.816 380.212 268.411C381.617 267.005 382.406 265.1 382.406 263.113V70.7169C382.406 68.7299 381.617 66.8243 380.212 65.4192C378.807 64.0142 376.901 63.2249 374.914 63.2249H74.0331C72.0461 63.2249 70.1404 64.0142 68.7354 65.4192C67.3304 66.8243 66.541 68.7299 66.541 70.7169V263.113C66.541 265.1 67.3304 267.005 68.7354 268.411C70.1404 269.816 72.0461 270.605 74.0331 270.605H178.023" stroke="black" stroke-linecap="round" stroke-linejoin="round"/>
<path d="M375.216 71.616H73.1367V248.428H375.216V71.616Z" stroke="black" stroke-linecap="round" stroke-linejoin="round"/>
<path d="M270.926 270.605H178.024V291.553H270.926V270.605Z" stroke="black" stroke-linecap="round" stroke-linejoin="round"/>
<path d="M270.927 291.553H287.109V299.548H161.842V291.553H178.025" stroke="black" stroke-linecap="round" stroke-linejoin="round"/>
<path d="M42.4541 299.549H29.2681" stroke="#2C2C2C" stroke-width="0.75" stroke-miterlimit="10" stroke-linecap="round"/>
<path d="M376.298 299.549H49.6445" stroke="#2C2C2C" stroke-width="0.75" stroke-miterlimit="10" stroke-linecap="round"/>
<path d="M401.472 299.549H380.495" stroke="#2C2C2C" stroke-width="0.75" stroke-miterlimit="10" stroke-linecap="round"/>
<path d="M390.328 231.113L399.603 216.831L343.415 180.343L334.141 194.624L390.328 231.113Z" fill="#C7C7C7"/>
<path d="M435.938 265.927L449.963 244.327L391.767 206.526L377.742 228.127L435.938 265.927Z" fill="#2C2C2C"/>
<path d="M343.952 142.417L343.977 142.81L344.018 143.411C344.071 144.156 344.121 144.888 344.139 145.602C344.199 145.826 344.156 146.064 344.151 146.292C344.25 149.872 344.047 153.454 343.545 157C343.512 157.275 343.479 157.55 343.431 157.816C342.784 162.112 341.712 166.334 340.23 170.418L340.045 170.92C336.736 179.812 331.565 187.893 324.879 194.624L324.44 195.074C320.498 198.957 316.09 202.338 311.319 205.141L309.518 206.17C303.702 209.355 297.434 211.636 290.931 212.934L290.484 213.054C287.768 213.579 285.022 213.937 282.263 214.125C281.374 214.19 280.48 214.23 279.628 214.232C278.776 214.233 278.05 214.255 277.264 214.253C270.097 214.214 262.985 213.002 256.21 210.667C255.859 210.548 255.479 210.423 255.121 210.279C253.737 209.785 252.377 209.23 251.031 208.632L250.333 208.313C245.014 205.893 240.041 202.774 235.545 199.04L234.913 198.517C234.641 198.297 234.378 198.062 234.118 197.838C229.628 193.916 225.681 189.412 222.381 184.446C222.138 184.085 221.907 183.721 221.663 183.307C220.305 181.165 219.067 178.95 217.954 176.671C217.894 176.447 217.763 176.256 217.653 176.046C214.156 168.567 212.082 160.504 211.535 152.266L211.482 151.375L211.455 150.677C210.92 138.989 213.511 127.37 218.96 117.016C221.405 112.39 224.379 108.063 227.821 104.122C229.108 102.694 230.456 101.299 231.866 99.9359C239.319 92.8043 248.33 87.5053 258.185 84.4583C268.04 81.4113 278.47 80.6999 288.647 82.3805C298.825 84.0611 308.472 88.0875 316.825 94.141C325.177 100.195 332.006 108.109 336.771 117.258C336.84 117.37 336.899 117.488 336.945 117.611C340.892 125.337 343.273 133.768 343.952 142.417Z" fill="white"/>
<path d="M311.317 205.142L309.516 206.17L279.576 214.193C278.784 214.218 277.998 214.216 277.211 214.214L290.343 210.695L311.317 205.142Z" fill="#EBEBEB"/>
<path d="M315.839 149.963C315.999 150.56 315.979 151.191 315.78 151.777C315.581 152.362 315.213 152.875 314.723 153.251C314.233 153.628 313.642 153.85 313.025 153.891C312.408 153.931 311.793 153.788 311.258 153.479C310.722 153.17 310.291 152.709 310.017 152.154C309.744 151.6 309.641 150.977 309.722 150.364C309.803 149.751 310.063 149.176 310.471 148.711C310.878 148.247 311.414 147.913 312.012 147.753C312.408 147.647 312.821 147.62 313.228 147.673C313.635 147.727 314.028 147.86 314.383 148.065C314.739 148.271 315.05 148.544 315.3 148.869C315.55 149.195 315.733 149.567 315.839 149.963Z" fill="white"/>
<path d="M320.494 167.33C320.654 167.927 320.633 168.558 320.434 169.144C320.236 169.729 319.868 170.242 319.377 170.618C318.887 170.995 318.296 171.217 317.679 171.258C317.062 171.298 316.447 171.155 315.912 170.846C315.377 170.536 314.945 170.076 314.672 169.521C314.398 168.967 314.295 168.344 314.376 167.731C314.457 167.118 314.717 166.543 315.125 166.078C315.533 165.613 316.069 165.28 316.666 165.12C317.466 164.906 318.32 165.018 319.037 165.432C319.755 165.847 320.279 166.529 320.494 167.33Z" fill="white"/>
<path d="M282.99 225.288C267.673 226.328 252.392 222.802 239.079 215.155C225.767 207.509 215.021 196.086 208.202 182.331C201.383 168.577 198.797 153.109 200.77 137.884C202.744 122.659 209.188 108.362 219.289 96.8005C229.39 85.2391 242.692 76.9333 257.514 72.9337C272.336 68.9341 288.012 69.4205 302.557 74.3313C317.103 79.2422 329.865 88.3568 339.229 100.522C348.594 112.688 354.14 127.357 355.165 142.675C356.519 163.194 349.682 183.413 336.152 198.899C322.623 214.385 303.505 223.875 282.99 225.288ZM282.394 216.407C295.949 215.495 308.93 210.584 319.694 202.295C330.458 194.006 338.523 182.712 342.869 169.84C347.214 156.968 347.645 143.096 344.107 129.979C340.569 116.862 333.221 105.089 322.992 96.1479C312.763 87.2069 300.113 81.4998 286.64 79.7483C273.168 77.9967 259.479 80.2794 247.304 86.3076C235.129 92.3358 225.014 101.839 218.24 113.615C211.466 125.391 208.335 138.912 209.245 152.467C210.481 170.641 218.879 187.581 232.593 199.568C246.308 211.556 264.219 217.612 282.394 216.407Z" fill="#37474F"/>
<path d="M340.035 113.64C336.016 106.38 330.763 99.876 324.512 94.4182C310.333 82.0277 291.812 75.7773 273.025 77.0421C254.237 78.3069 236.722 86.9831 224.331 101.162C211.941 115.341 205.69 133.862 206.955 152.649C208.22 171.437 216.896 188.952 231.075 201.343C241.643 210.595 254.719 216.503 268.647 218.319C282.575 220.136 296.729 217.778 309.316 211.545C321.903 205.313 332.358 195.485 339.357 183.307C346.355 171.128 349.582 157.147 348.63 143.134C347.97 132.79 345.035 122.719 340.035 113.64ZM344.018 143.411C345.066 158.757 340.761 173.991 331.835 186.517C322.909 199.043 309.914 208.086 295.067 212.104C280.22 216.122 264.439 214.867 250.414 208.551C236.389 202.236 224.988 191.253 218.155 177.472C211.322 163.692 209.479 147.969 212.942 132.982C216.404 117.996 224.956 104.674 237.142 95.2875C249.327 85.901 264.39 81.031 279.764 81.5077C295.138 81.9843 309.87 87.7781 321.451 97.9015C334.704 109.483 342.824 125.848 344.03 143.408L344.018 143.411ZM340.035 113.64C336.016 106.38 330.763 99.876 324.512 94.4182C310.333 82.0277 291.812 75.7773 273.025 77.0421C254.237 78.3069 236.722 86.9831 224.331 101.162C211.941 115.341 205.69 133.862 206.955 152.649C208.22 171.437 216.896 188.952 231.075 201.343C241.643 210.595 254.719 216.503 268.647 218.319C282.575 220.136 296.729 217.778 309.316 211.545C321.903 205.313 332.358 195.485 339.357 183.307C346.355 171.128 349.582 157.147 348.63 143.134C347.97 132.79 345.035 122.719 340.035 113.64ZM344.018 143.411C345.066 158.757 340.761 173.991 331.835 186.517C322.909 199.043 309.914 208.086 295.067 212.104C280.22 216.122 264.439 214.867 250.414 208.551C236.389 202.236 224.988 191.253 218.155 177.472C211.322 163.692 209.479 147.969 212.942 132.982C216.404 117.996 224.956 104.674 237.142 95.2875C249.327 85.901 264.39 81.031 279.764 81.5077C295.138 81.9843 309.87 87.7781 321.451 97.9015C334.704 109.483 342.824 125.848 344.03 143.408L344.018 143.411ZM347.809 109.36C338.333 92.1127 322.823 78.9708 304.254 72.4551C285.685 65.9393 265.363 66.5084 247.188 74.0532C229.012 81.598 214.262 95.5873 205.766 113.338C197.27 131.089 195.626 151.351 201.15 170.239C206.674 189.127 218.977 205.311 235.699 215.687C252.421 226.063 272.384 229.899 291.761 226.462C311.138 223.024 328.563 212.554 340.695 197.059C352.827 181.565 358.812 162.137 357.502 142.501C356.734 130.879 353.43 119.565 347.822 109.357L347.809 109.36ZM352.899 142.816C354.149 161.332 348.519 179.658 337.088 194.279C325.658 208.899 309.232 218.785 290.961 222.039C272.69 225.294 253.86 221.688 238.085 211.913C222.309 202.139 210.697 186.884 205.477 169.074C200.257 151.265 201.796 132.156 209.799 115.411C217.802 98.6668 231.705 85.4666 248.842 78.3426C265.978 71.2186 285.142 70.6725 302.657 76.8089C320.171 82.9453 334.804 95.3322 343.747 111.594C349.053 121.202 352.182 131.86 352.911 142.812L352.899 142.816ZM324.512 94.4182C310.333 82.0277 291.812 75.7773 273.025 77.0421C254.237 78.3069 236.722 86.9831 224.331 101.162C211.941 115.341 205.69 133.862 206.955 152.649C208.22 171.437 216.896 188.952 231.075 201.343C241.643 210.595 254.719 216.503 268.647 218.319C282.575 220.136 296.729 217.778 309.316 211.545C321.903 205.313 332.358 195.485 339.357 183.307C346.355 171.128 349.582 157.147 348.63 143.134C347.963 132.804 345.028 122.748 340.033 113.681C336.018 106.407 330.766 99.8883 324.512 94.4182ZM344.03 143.408C345.079 158.753 340.773 173.988 331.847 186.514C322.921 199.04 309.927 208.083 295.08 212.101C280.233 216.119 264.451 214.863 250.426 208.548C236.401 202.233 225.001 191.249 218.167 177.469C211.334 163.689 209.492 147.966 212.954 132.979C216.416 117.993 224.969 104.671 237.154 95.2842C249.339 85.8977 264.402 81.0277 279.776 81.5044C295.15 81.981 309.883 87.7748 321.463 97.8981C334.713 109.483 342.828 125.849 344.03 143.408Z" fill="#37474F"/>
<path d="M240.303 109.659C245.152 104.453 251.041 100.326 257.589 97.5439C260.894 96.0781 264.341 94.9538 267.874 94.1886C271.452 93.4238 275.096 93.0094 278.754 92.9511C286.135 92.9141 293.442 94.4214 300.206 97.376C306.871 100.275 312.94 104.387 318.102 109.504C312.042 105.901 305.635 102.916 298.978 100.594C295.724 99.5257 292.391 98.718 289.01 98.179C285.666 97.599 282.275 97.3395 278.882 97.404C272.097 97.4725 265.364 98.6027 258.928 100.753C252.383 102.959 246.129 105.949 240.303 109.659Z" fill="#C0E2E9"/>
<path d="M371.555 261.584L355.18 324.139H391.699L375.325 261.584C375.225 261.158 374.985 260.779 374.643 260.508C374.3 260.237 373.877 260.089 373.44 260.089C373.003 260.089 372.579 260.237 372.237 260.508C371.895 260.779 371.654 261.158 371.555 261.584Z" fill="#2E9DB6" stroke="#2C2C2C" stroke-linecap="round" stroke-linejoin="round"/>
<path d="M355.18 324.139H384.933L370.056 267.302L355.18 324.139Z" fill="#2C2C2C" stroke="#2C2C2C" stroke-linecap="round" stroke-linejoin="round"/>
<path d="M395.386 322.767H349.834C348.51 322.767 347.437 323.84 347.437 325.164V325.47C347.437 326.794 348.51 327.867 349.834 327.867H395.386C396.71 327.867 397.784 326.794 397.784 325.47V325.164C397.784 323.84 396.71 322.767 395.386 322.767Z" fill="#2E9DB6" stroke="#2C2C2C" stroke-linecap="round" stroke-linejoin="round"/>
<path d="M379.797 322.767H349.834C348.51 322.767 347.437 323.84 347.437 325.164V325.47C347.437 326.794 348.51 327.867 349.834 327.867H379.797C381.121 327.867 382.194 326.794 382.194 325.47V325.164C382.194 323.84 381.121 322.767 379.797 322.767Z" fill="#2C2C2C" stroke="#2C2C2C" stroke-linecap="round" stroke-linejoin="round"/>
<path d="M361.715 299.188H385.168L382.333 288.352H364.55L361.715 299.188Z" fill="white" stroke="#2C2C2C" stroke-linecap="round" stroke-linejoin="round"/>
<path d="M361.715 299.188H378.408L375.573 288.352H364.55L361.715 299.188Z" fill="#BABABA" stroke="#2C2C2C" stroke-linecap="round" stroke-linejoin="round"/>
<path d="M123.572 191.239C123.572 191.239 112.356 192.559 110.005 192.559C109.979 192.559 109.954 192.559 109.929 192.559C109.917 192.559 109.904 192.559 109.891 192.559C109.879 192.559 109.866 192.559 109.854 192.559C109.829 192.559 109.803 192.559 109.778 192.559C107.414 192.559 96.2104 191.239 96.2104 191.239C81.2594 195.954 82.3282 217.771 82.3408 218.387C82.4414 222.889 82.5042 227.403 82.6174 231.905C82.8815 242.505 85.585 274.256 86.2766 284.353C86.3394 285.183 86.3772 285.875 86.4023 286.39C87.534 309.049 88.6532 331.709 89.7849 354.368C89.8855 356.355 89.986 358.354 90.0866 360.341C90.0866 360.341 95.3428 363.61 105.654 360.341L105.742 286.742L108.609 232.056C108.609 232.056 109.137 231.98 109.766 231.917C109.803 231.917 109.841 231.93 109.891 231.93V231.943C109.904 231.943 109.917 231.943 109.929 231.943C109.942 231.943 109.954 231.943 109.967 231.943V231.93C110.005 231.93 110.042 231.917 110.093 231.917C110.721 231.98 111.249 232.056 111.249 232.056L114.116 286.742L114.204 360.341C124.516 363.61 129.772 360.341 129.772 360.341C129.872 358.354 129.973 356.355 130.073 354.368C131.205 331.709 132.312 309.049 133.456 286.39C133.481 285.875 133.519 285.183 133.582 284.353C134.261 274.268 136.977 242.505 137.241 231.905C137.354 227.403 137.417 222.889 137.518 218.387C137.455 217.771 138.511 195.954 123.572 191.239Z" fill="#2C2C2C"/>
<path d="M35.7334 147.015C35.7334 147.015 32.6972 144.758 32.1544 142.511C31.6002 140.259 31.1645 139.178 27.5019 135.133C23.8738 131.103 23.2365 127.723 23.2365 127.723C23.2365 127.723 18.763 129.191 24.2018 135.655C27.5291 139.617 13.6991 132.999 9.70735 130.627C9.70735 130.627 6.67729 130.857 9.81695 134.624C12.9566 138.391 9.01711 136.788 15.4599 143.748C21.8861 150.714 30.5388 156.755 34.6357 152.826C38.7212 148.892 35.7334 147.015 35.7334 147.015Z" fill="#E0E0E0"/>
<path fill-rule="evenodd" clip-rule="evenodd" d="M23.2363 127.723L23.0795 127.245L23.6243 127.066L23.7304 127.629L23.7304 127.629L23.7305 127.63L23.7312 127.633C23.7321 127.638 23.7337 127.645 23.736 127.656C23.7406 127.677 23.7482 127.711 23.7593 127.757C23.7816 127.848 23.8182 127.986 23.8734 128.167C23.984 128.527 24.1695 129.055 24.4663 129.709C25.0598 131.015 26.0987 132.823 27.875 134.796C29.7084 136.821 30.7615 138.133 31.4246 139.235C32.0989 140.356 32.3609 141.246 32.6426 142.391L32.6429 142.392L32.6431 142.393C32.8805 143.375 33.6896 144.419 34.5068 145.254C34.9061 145.662 35.2901 146.003 35.5742 146.243C35.716 146.362 35.8324 146.455 35.9126 146.518C35.9526 146.55 35.9836 146.574 36.0042 146.59C36.0117 146.595 36.0178 146.6 36.0225 146.603C36.0272 146.607 36.0325 146.61 36.0384 146.614C36.0436 146.618 36.0492 146.622 36.0553 146.626C36.084 146.646 36.1224 146.674 36.1679 146.711C36.2587 146.784 36.3794 146.89 36.508 147.031C36.7644 147.313 37.0616 147.743 37.2048 148.325C37.5011 149.53 37.0944 151.156 34.9844 153.188L34.9836 153.189C33.8338 154.292 32.3718 154.678 30.7732 154.546C29.1889 154.415 27.4523 153.777 25.6809 152.814C22.1359 150.888 18.3234 147.594 15.0901 144.089C11.8641 140.604 11.1537 139.18 10.909 138.1C10.8659 137.91 10.8369 137.726 10.8116 137.566C10.8031 137.513 10.7951 137.462 10.7871 137.415C10.7537 137.216 10.7155 137.033 10.6428 136.828C10.4977 136.418 10.1958 135.864 9.43032 134.946C8.6245 133.979 8.17624 133.195 7.99139 132.548C7.80135 131.883 7.88611 131.339 8.17072 130.927C8.43973 130.537 8.83527 130.343 9.1199 130.246C9.26702 130.195 9.39898 130.166 9.49499 130.149C9.54335 130.14 9.58356 130.135 9.61319 130.131C9.62803 130.129 9.6403 130.128 9.64969 130.127C9.65439 130.127 9.65838 130.126 9.66162 130.126L9.66592 130.126L9.66764 130.125L9.66839 130.125C9.66874 130.125 9.66907 130.125 9.7071 130.627L9.66907 130.125L9.8275 130.113L9.96408 130.194C11.9365 131.367 16.3696 133.604 19.8902 135.051C21.6688 135.782 23.1475 136.283 23.9581 136.374C24.0195 136.381 24.0729 136.385 24.1188 136.387C24.0554 136.282 23.9582 136.147 23.8165 135.978C21.0634 132.706 20.6713 130.527 21.2081 129.089C21.4719 128.382 21.9391 127.923 22.3302 127.644C22.526 127.504 22.7064 127.407 22.8399 127.344C22.9069 127.312 22.9627 127.289 23.0038 127.273C23.0243 127.265 23.0412 127.258 23.0539 127.254C23.0603 127.252 23.0657 127.25 23.07 127.248L23.0756 127.246L23.0777 127.246L23.0787 127.245C23.0791 127.245 23.0795 127.245 23.2363 127.723ZM9.60756 131.152C9.56005 131.163 9.50452 131.177 9.44553 131.198C9.26014 131.261 9.09439 131.36 8.99834 131.499C8.91789 131.615 8.83383 131.835 8.95868 132.272C9.08873 132.727 9.43909 133.385 10.2031 134.302C11.0075 135.267 11.3905 135.926 11.5911 136.492C11.6913 136.775 11.7411 137.022 11.7791 137.248C11.7903 137.314 11.8002 137.376 11.8096 137.436C11.8334 137.587 11.8549 137.722 11.8901 137.877C12.0711 138.677 12.6124 139.931 15.8288 143.406L15.8294 143.407C19.0222 146.868 22.7491 150.077 26.1612 151.931C27.8683 152.858 29.4648 153.429 30.8559 153.543C32.2327 153.657 33.3886 153.325 34.2871 152.463C36.262 150.561 36.4042 149.282 36.2279 148.565C36.1349 148.187 35.9405 147.902 35.7644 147.709C35.6767 147.612 35.5959 147.542 35.5393 147.496C35.5111 147.474 35.4893 147.458 35.4762 147.449C35.4696 147.444 35.4653 147.441 35.4634 147.44C35.4625 147.439 35.4622 147.439 35.4625 147.439L35.4489 147.431L35.4331 147.419L35.7332 147.015C35.4331 147.419 35.433 147.419 35.4329 147.419L35.4326 147.419L35.4296 147.416L35.4218 147.41C35.4152 147.405 35.4058 147.398 35.3937 147.389C35.3695 147.371 35.3348 147.344 35.2908 147.309C35.2028 147.24 35.0777 147.14 34.9264 147.012C34.6243 146.758 34.2152 146.394 33.7877 145.957C32.9513 145.102 31.9713 143.894 31.6656 142.63C31.3931 141.523 31.1601 140.747 30.5626 139.754C29.9536 138.741 28.9577 137.49 27.1288 135.47L27.1279 135.469C25.2763 133.413 24.1827 131.516 23.5505 130.125C23.2352 129.431 23.0348 128.863 22.9124 128.464C22.6352 128.662 22.325 128.973 22.1506 129.441C21.8104 130.352 21.9009 132.139 24.5864 135.331L24.5867 135.331C24.8071 135.593 24.9782 135.837 25.0848 136.06C25.1842 136.269 25.2726 136.553 25.1727 136.839C25.0602 137.162 24.781 137.301 24.5586 137.354C24.3403 137.407 24.0907 137.402 23.8456 137.374C22.8741 137.265 21.2697 136.706 19.5077 135.981C16.0371 134.555 11.6948 132.373 9.60756 131.152ZM9.74732 131.128C9.74826 131.128 9.74857 131.128 9.74822 131.128L9.74732 131.128Z" fill="#2C2C2C"/>
<path d="M82.3007 128.131C82.3007 128.131 72.6748 178.997 67.9557 181.866C64.1581 184.18 51.8678 173.579 35.6667 159.277C33.8828 157.607 31.7354 155.057 31.7354 155.057L35.3592 141.367L39.3906 145.608L58.542 161.598C58.542 161.598 66.5642 120.109 74.1478 119.355C81.7438 118.589 82.3007 128.131 82.3007 128.131Z" fill="#2C2C2C"/>
<path d="M184.213 147.015C184.213 147.015 187.249 144.757 187.792 142.51C188.346 140.258 188.782 139.178 192.444 135.132C196.073 131.103 196.71 127.722 196.71 127.722C196.71 127.722 201.183 129.19 195.744 135.654C192.417 139.617 206.247 132.999 210.239 130.626C210.239 130.626 213.269 130.856 210.129 134.623C206.99 138.391 210.929 136.787 204.486 143.747C198.06 150.713 189.407 156.755 185.311 152.826C181.225 148.891 184.213 147.015 184.213 147.015Z" fill="#E0E0E0"/>
<path fill-rule="evenodd" clip-rule="evenodd" d="M196.71 127.722L196.867 127.245L196.322 127.066L196.216 127.628L196.216 127.629L196.216 127.629L196.215 127.633C196.214 127.637 196.213 127.645 196.21 127.655C196.206 127.677 196.198 127.711 196.187 127.756C196.165 127.847 196.128 127.986 196.073 128.166C195.962 128.527 195.777 129.055 195.48 129.708C194.887 131.014 193.848 132.822 192.071 134.795C190.238 136.82 189.185 138.132 188.522 139.234C187.847 140.356 187.585 141.246 187.304 142.39L187.303 142.391L187.303 142.392C187.066 143.375 186.257 144.418 185.44 145.253C185.04 145.662 184.656 146.003 184.372 146.242C184.23 146.361 184.114 146.455 184.034 146.518C183.994 146.549 183.963 146.573 183.942 146.589C183.935 146.595 183.928 146.599 183.924 146.603C183.919 146.606 183.914 146.61 183.908 146.614C183.903 146.617 183.897 146.621 183.891 146.625C183.862 146.646 183.824 146.674 183.778 146.71C183.688 146.783 183.567 146.889 183.438 147.031C183.182 147.312 182.885 147.742 182.741 148.325C182.445 149.53 182.852 151.156 184.962 153.188L184.963 153.189C186.113 154.291 187.574 154.677 189.173 154.545C190.757 154.415 192.494 153.776 194.265 152.814C197.81 150.888 201.623 147.593 204.856 144.088C208.082 140.603 208.793 139.18 209.037 138.099C209.08 137.909 209.109 137.726 209.135 137.566C209.143 137.512 209.151 137.462 209.159 137.414C209.193 137.215 209.231 137.033 209.303 136.827C209.449 136.418 209.751 135.864 210.516 134.945C211.322 133.979 211.77 133.195 211.955 132.548C212.145 131.882 212.06 131.338 211.776 130.926C211.507 130.537 211.111 130.343 210.826 130.245C210.679 130.195 210.547 130.165 210.451 130.148C210.403 130.14 210.363 130.134 210.333 130.131C210.318 130.129 210.306 130.127 210.297 130.127C210.292 130.126 210.288 130.126 210.285 130.125L210.28 130.125L210.279 130.125L210.278 130.125C210.278 130.125 210.277 130.125 210.239 130.626L210.277 130.125L210.119 130.113L209.982 130.194C208.01 131.366 203.577 133.603 200.056 135.051C198.277 135.782 196.799 136.283 195.988 136.374C195.927 136.381 195.873 136.385 195.827 136.387C195.891 136.282 195.988 136.146 196.13 135.978C198.883 132.705 199.275 130.527 198.738 129.088C198.474 128.382 198.007 127.922 197.616 127.643C197.42 127.504 197.24 127.406 197.106 127.343C197.039 127.312 196.984 127.288 196.943 127.272C196.922 127.264 196.905 127.258 196.892 127.253C196.886 127.251 196.881 127.249 196.876 127.248L196.871 127.246L196.869 127.245L196.868 127.245C196.867 127.245 196.867 127.245 196.71 127.722ZM210.339 131.152C210.386 131.162 210.442 131.177 210.501 131.197C210.686 131.26 210.852 131.359 210.948 131.498C211.028 131.615 211.112 131.834 210.988 132.271C210.858 132.727 210.507 133.385 209.743 134.301C208.939 135.267 208.556 135.925 208.355 136.492C208.255 136.775 208.205 137.021 208.167 137.247C208.156 137.314 208.146 137.376 208.137 137.436C208.113 137.586 208.091 137.722 208.056 137.877C207.875 138.676 207.334 139.931 204.118 143.405L204.117 143.406C200.924 146.867 197.197 150.076 193.785 151.93C192.078 152.858 190.482 153.428 189.09 153.543C187.714 153.656 186.558 153.324 185.659 152.463C183.684 150.561 183.542 149.282 183.718 148.565C183.811 148.187 184.006 147.901 184.182 147.708C184.27 147.612 184.35 147.541 184.407 147.496C184.435 147.473 184.457 147.457 184.47 147.448C184.477 147.443 184.481 147.44 184.483 147.439C184.484 147.439 184.484 147.438 184.484 147.439L184.497 147.43L184.513 147.418L184.213 147.015C184.513 147.418 184.513 147.418 184.513 147.418L184.514 147.418L184.517 147.416L184.524 147.41C184.531 147.405 184.54 147.398 184.553 147.389C184.577 147.37 184.612 147.343 184.656 147.309C184.743 147.24 184.869 147.139 185.02 147.012C185.322 146.757 185.731 146.394 186.159 145.957C186.995 145.102 187.975 143.894 188.281 142.63C188.553 141.523 188.786 140.746 189.384 139.753C189.993 138.741 190.989 137.49 192.817 135.47L192.818 135.469C194.67 133.412 195.764 131.516 196.396 130.124C196.711 129.43 196.911 128.863 197.034 128.464C197.311 128.662 197.621 128.973 197.796 129.44C198.136 130.351 198.045 132.138 195.36 135.33L195.36 135.33C195.139 135.593 194.968 135.836 194.861 136.06C194.762 136.268 194.674 136.552 194.774 136.839C194.886 137.161 195.165 137.301 195.388 137.354C195.606 137.406 195.856 137.401 196.101 137.374C197.072 137.264 198.677 136.705 200.439 135.981C203.909 134.554 208.251 132.372 210.339 131.152ZM210.199 131.128C210.198 131.128 210.198 131.128 210.198 131.128L210.199 131.128Z" fill="#2C2C2C"/>
<path d="M137.645 128.131C137.645 128.131 147.271 178.997 151.99 181.866C155.788 184.18 168.078 173.579 184.279 159.277C186.063 157.607 188.21 155.057 188.21 155.057L184.587 141.367L180.555 145.608L161.404 161.598C161.404 161.598 153.382 120.109 145.798 119.355C138.202 118.589 137.645 128.131 137.645 128.131Z" fill="#2C2C2C"/>
<path d="M157.637 128.454C157.637 136.477 152.381 141.444 144.358 141.444C136.335 141.444 129.834 134.943 129.834 126.92C129.834 118.898 135.895 110.045 143.541 112.447C151.966 115.075 157.637 120.432 157.637 128.454Z" fill="white"/>
<path fill-rule="evenodd" clip-rule="evenodd" d="M134.204 116.1C131.814 118.92 130.338 123.023 130.338 126.92C130.338 134.665 136.613 140.941 144.358 140.941C148.265 140.941 151.45 139.733 153.656 137.596C155.859 135.461 157.134 132.353 157.134 128.454C157.134 120.738 151.702 115.52 143.391 112.927L143.39 112.927C139.817 111.804 136.587 113.288 134.204 116.1ZM143.691 111.967C139.619 110.688 135.996 112.43 133.437 115.449C130.886 118.46 129.332 122.795 129.332 126.92C129.332 135.221 136.058 141.947 144.358 141.947C148.473 141.947 151.928 140.671 154.356 138.319C156.786 135.965 158.14 132.579 158.14 128.454C158.14 120.126 152.23 114.631 143.691 111.967Z" fill="#2C2C2C"/>
<path d="M151.111 126.116C151.111 132.051 147.225 135.722 141.29 135.722C135.355 135.722 130.551 130.919 130.551 124.984C130.551 119.049 135.028 112.497 140.699 114.27C146.911 116.232 151.111 120.193 151.111 126.116Z" fill="#2C2C2C"/>
<path d="M60.1846 128.455C60.1846 136.477 65.4407 141.444 73.4632 141.444C81.4857 141.444 87.9742 134.93 87.9742 126.92C87.9742 118.91 81.9133 110.045 74.268 112.447C65.8557 115.075 60.1846 120.432 60.1846 128.455Z" fill="white"/>
<path fill-rule="evenodd" clip-rule="evenodd" d="M84.3719 115.454C86.9231 118.466 88.4772 122.802 88.4772 126.92C88.4772 135.207 81.7644 141.947 73.4633 141.947C69.3479 141.947 65.8937 140.671 63.4655 138.319C61.0354 135.965 59.6816 132.579 59.6816 128.454C59.6816 120.126 65.5914 114.631 74.1177 111.967C78.1897 110.688 81.8133 112.433 84.3719 115.454ZM83.6043 116.104C81.2212 113.291 77.9919 111.805 74.4188 112.927L74.418 112.927C66.1199 115.52 60.6876 120.738 60.6876 128.454C60.6876 132.353 61.9619 135.462 64.1655 137.596C66.371 139.733 69.5561 140.941 73.4633 140.941C81.2071 140.941 87.4712 134.653 87.4712 126.92C87.4712 123.029 85.9948 118.927 83.6043 116.104Z" fill="#2C2C2C"/>
<path d="M66.7231 126.116C66.7231 132.051 70.6087 135.722 76.5438 135.722C82.479 135.722 87.2824 130.919 87.2824 124.984C87.2824 119.049 82.8059 112.497 77.1474 114.27C70.9104 116.232 66.7231 120.193 66.7231 126.116Z" fill="#2C2C2C"/>
<path d="M127.194 192.823C118.115 191.993 109.15 191.654 109.15 191.654C105.855 191.754 98.8386 192.044 91.5957 192.823C93.7082 200.041 100.876 205.36 109.389 205.36C117.914 205.373 125.082 200.028 127.194 192.823Z" fill="#50BFD7"/>
<path d="M126.452 193.578C127.232 190.51 142.837 112.321 142.837 112.321C142.837 112.321 101.19 100.024 74.5571 112.321L91.6333 194.257L126.452 193.578Z" fill="white"/>
<path fill-rule="evenodd" clip-rule="evenodd" d="M142.978 111.839C142.979 111.839 142.979 111.839 142.836 112.322C143.33 112.42 143.33 112.42 143.329 112.421L143.329 112.424L143.154 113.299C143.04 113.872 142.872 114.714 142.658 115.786C142.229 117.93 141.617 120.996 140.879 124.685C139.404 132.063 137.429 141.933 135.43 151.898C131.434 171.814 127.333 192.151 126.939 193.702L126.845 194.073L91.2258 194.768L73.9829 112.033L74.3461 111.865C87.7914 105.656 104.976 105.67 118.74 107.21C125.632 107.981 131.689 109.138 136.022 110.101C138.189 110.583 139.926 111.017 141.122 111.331C141.721 111.487 142.184 111.614 142.498 111.702C142.655 111.746 142.774 111.78 142.855 111.803C142.895 111.815 142.926 111.824 142.947 111.83L142.97 111.837L142.976 111.838L142.978 111.839ZM142.836 112.322L143.33 112.42L143.42 111.969L142.979 111.839L142.836 112.322ZM142.252 112.678C142.244 112.676 142.235 112.673 142.227 112.671C141.918 112.584 141.46 112.459 140.867 112.304C139.682 111.993 137.957 111.562 135.804 111.083C131.496 110.125 125.476 108.976 118.628 108.21C105.036 106.689 88.2657 106.689 75.1313 112.612L92.0403 193.746L126.051 193.083C126.763 189.887 130.644 170.637 134.443 151.7C136.443 141.735 138.418 131.866 139.893 124.488C140.63 120.799 141.243 117.733 141.671 115.589C141.885 114.517 142.053 113.675 142.168 113.102L142.252 112.678Z" fill="black"/>
<path d="M126.452 193.578C127.232 190.51 142.837 112.321 142.837 112.321C142.837 112.321 101.19 100.024 74.5571 112.321L91.6333 194.257L126.452 193.578Z" fill="white"/>
<path fill-rule="evenodd" clip-rule="evenodd" d="M142.978 111.839C142.979 111.839 142.979 111.839 142.836 112.322C143.33 112.42 143.33 112.42 143.329 112.421L143.329 112.424L143.154 113.299C143.04 113.872 142.872 114.714 142.658 115.786C142.229 117.93 141.617 120.996 140.879 124.685C139.404 132.063 137.429 141.933 135.43 151.898C131.434 171.814 127.333 192.151 126.939 193.702L126.845 194.073L91.2258 194.768L73.9829 112.033L74.3461 111.865C87.7914 105.656 104.976 105.67 118.74 107.21C125.632 107.981 131.689 109.138 136.022 110.101C138.189 110.583 139.926 111.017 141.122 111.331C141.721 111.487 142.184 111.614 142.498 111.702C142.655 111.746 142.774 111.78 142.855 111.803C142.895 111.815 142.926 111.824 142.947 111.83L142.97 111.837L142.976 111.838L142.978 111.839ZM142.836 112.322L143.33 112.42L143.42 111.969L142.979 111.839L142.836 112.322ZM142.252 112.678C142.244 112.676 142.235 112.673 142.227 112.671C141.918 112.584 141.46 112.459 140.867 112.304C139.682 111.993 137.957 111.562 135.804 111.083C131.496 110.125 125.476 108.976 118.628 108.21C105.036 106.689 88.2657 106.689 75.1313 112.612L92.0403 193.746L126.051 193.083C126.763 189.887 130.644 170.637 134.443 151.7C136.443 141.735 138.418 131.866 139.893 124.488C140.63 120.799 141.243 117.733 141.671 115.589C141.885 114.517 142.053 113.675 142.168 113.102L142.252 112.678Z" fill="#2C2C2C"/>
<path d="M132.727 109.92C121.095 107.581 101.429 104.915 84.5288 108.939C86.5282 121.551 88.5275 134.176 90.5268 146.788C92.1364 155.339 100.247 161.035 108.71 161.085C117.172 161.035 125.283 155.351 126.892 146.788C128.829 134.49 130.778 122.205 132.727 109.92Z" fill="#50BFD7"/>
<path fill-rule="evenodd" clip-rule="evenodd" d="M84.4122 108.45C101.423 104.399 121.179 107.085 132.826 109.427L133.299 109.522L133.222 110.006C131.274 122.289 129.325 134.571 127.389 146.866L127.388 146.874L127.386 146.881C125.725 155.719 117.375 161.537 108.712 161.588L108.709 161.588L108.706 161.588C100.043 161.537 91.6936 155.706 90.0324 146.881L90.0311 146.874L90.03 146.867C89.0304 140.561 88.0308 134.253 87.0312 127.944L87.0309 127.942C86.0313 121.633 85.0316 115.324 84.0319 109.018L83.959 108.557L84.4122 108.45ZM85.0987 109.322C86.0739 115.474 87.049 121.628 88.0242 127.783L88.0245 127.785C89.0238 134.092 90.0231 140.398 91.0224 146.702C92.5832 154.974 100.451 160.532 108.709 160.582C116.968 160.532 124.835 154.986 126.396 146.702C128.307 134.566 130.231 122.442 132.154 110.318C120.592 108.028 101.559 105.53 85.0987 109.322Z" fill="#2C2C2C"/>
<path d="M107.263 114.384C111.237 114.384 117.411 113.177 117.411 109.216L116.392 95.9873L115.5 84.4188C115.5 80.4453 112.28 77.2388 108.319 77.2388C106.333 77.2388 104.547 78.0435 103.239 79.3387C101.944 80.6339 101.127 82.432 101.127 84.4188L100.247 95.9999L99.4042 107.103C98.2725 113.805 107.263 114.384 107.263 114.384Z" fill="#2C2C2C"/>
<path d="M83.875 374.537C83.875 374.537 84.6169 376.889 84.8307 377.254C85.057 377.618 90.8287 379.605 97.8704 379.454C105.189 379.303 108.534 377.178 108.634 374.525H83.875V374.537Z" fill="#50BFD7"/>
<path fill-rule="evenodd" clip-rule="evenodd" d="M83.3716 374.021H109.156L109.136 374.544C109.077 376.114 108.049 377.444 106.183 378.377C104.326 379.306 101.576 379.88 97.8804 379.957M83.3716 374.021V374.524V374.021ZM83.8746 374.537L83.3949 374.688L83.3716 374.614V374.524M83.8746 374.537C83.3949 374.688 83.3949 374.688 83.3949 374.688L83.4035 374.715C83.409 374.733 83.4172 374.759 83.4276 374.791C83.4485 374.857 83.4784 374.951 83.5151 375.064C83.5884 375.292 83.6884 375.599 83.7953 375.918C83.902 376.237 84.0165 376.57 84.1185 376.848C84.2132 377.106 84.3153 377.369 84.3963 377.507L84.3995 377.513L84.4029 377.518C84.4531 377.599 84.5154 377.654 84.5503 377.682C84.5911 377.715 84.6342 377.744 84.674 377.769C84.7538 377.817 84.8505 377.867 84.9564 377.915C85.1701 378.014 85.4585 378.127 85.8092 378.248C86.5124 378.49 87.4936 378.772 88.685 379.038C91.0675 379.568 94.3117 380.033 97.8804 379.957M84.5606 375.027H108.059C107.84 375.924 107.126 376.781 105.734 377.478C104.064 378.312 101.482 378.876 97.8596 378.951L97.8592 378.951C94.3864 379.025 91.2239 378.572 88.9036 378.056C87.7436 377.798 86.7993 377.525 86.1367 377.296C85.8044 377.182 85.5497 377.081 85.377 377.002C85.3127 376.972 85.2646 376.948 85.2306 376.929C85.2196 376.904 85.207 376.875 85.193 376.841C85.1557 376.75 85.1117 376.635 85.063 376.502C84.9657 376.237 84.8547 375.914 84.7492 375.599C84.6819 375.398 84.6174 375.202 84.5606 375.027Z" fill="#2C2C2C"/>
<path d="M83.8874 375.04C84.994 376.033 86.44 376.788 87.4963 377.127C90.1244 377.995 93.0039 378.322 95.7577 378.473C98.6876 378.624 101.907 378.574 104.648 377.417C106.132 376.788 107.389 375.87 108.559 374.826C109.087 373.531 109.225 372.06 109.187 370.551C109.099 367.835 108.483 365.207 108.005 362.541C107.93 362.151 107.867 361.774 107.804 361.397C107.666 359.662 107.54 357.914 107.427 356.191C107.389 355.55 107.314 354.984 107.326 354.343C107.339 353.915 107.49 353.223 107.377 352.821C107.364 352.771 107.339 352.733 107.326 352.695C107.326 352.632 107.339 352.57 107.326 352.507C106.836 352.104 106.32 351.727 105.729 351.564C105.302 351.639 104.874 351.777 104.598 351.891C104.157 352.067 103.768 352.293 103.416 352.557C102.548 351.375 100.41 350.822 99.2031 350.771C97.317 350.696 94.8021 351.023 93.3057 352.406C93.0542 352.167 92.6644 352.041 92.3249 351.979C92.2494 351.966 92.1614 351.953 92.086 351.941C91.2058 352.28 91.4321 354.443 91.3441 355.059C91.2183 355.877 91.0926 356.694 90.8914 357.486C90.489 359.008 89.9106 360.403 89.0304 361.711C88.0873 363.119 86.855 364.339 85.7736 365.634C85.6227 365.898 85.4592 366.163 85.3083 366.414C84.1515 368.275 83.2084 370.979 83.4599 373.192C83.5228 373.896 83.6736 374.499 83.8874 375.04Z" fill="#50BFD7"/>
<path fill-rule="evenodd" clip-rule="evenodd" d="M95.9941 350.552C97.0991 350.294 98.246 350.229 99.2233 350.269L99.2241 350.269C99.8811 350.296 100.769 350.458 101.611 350.768C102.287 351.017 102.984 351.38 103.499 351.889C103.78 351.712 104.082 351.555 104.409 351.424C104.713 351.3 105.175 351.15 105.642 351.068L105.754 351.048L105.863 351.079C106.565 351.273 107.151 351.712 107.645 352.118L107.784 352.232L107.82 352.408C107.835 352.487 107.836 352.557 107.834 352.604C107.844 352.628 107.854 352.658 107.862 352.691C107.945 352.991 107.924 353.347 107.9 353.618C107.888 353.745 107.875 353.856 107.864 353.956C107.847 354.109 107.833 354.237 107.829 354.355C107.821 354.766 107.85 355.128 107.883 355.528C107.899 355.725 107.916 355.933 107.929 356.16C108.041 357.873 108.166 359.61 108.304 361.335C108.366 361.706 108.427 362.07 108.499 362.445L108.5 362.449L108.5 362.452C108.599 363.002 108.704 363.553 108.81 364.108C109.211 366.209 109.619 368.348 109.69 370.535L109.69 370.536L109.69 370.538C109.729 372.08 109.59 373.63 109.024 375.016L108.98 375.124L108.894 375.201C107.701 376.266 106.397 377.222 104.844 377.88L104.843 377.88C101.989 379.084 98.6704 379.126 95.7319 378.975L95.7303 378.975C92.962 378.823 90.0311 378.493 87.3406 377.606C86.2232 377.246 84.7146 376.458 83.5515 375.414L83.4633 375.335L83.4197 375.225C83.1885 374.64 83.0269 373.991 82.9595 373.242C82.693 370.878 83.6909 368.064 84.8791 366.152C84.9234 366.078 84.9677 366.005 85.0118 365.932C85.1225 365.749 85.232 365.568 85.3369 365.385L85.359 365.346L85.3875 365.312C85.759 364.867 86.1358 364.443 86.5074 364.026C87.2611 363.179 87.9929 362.356 88.6125 361.431L88.6132 361.43C89.4558 360.178 90.0136 358.837 90.4046 357.36C90.5982 356.597 90.7204 355.805 90.8465 354.986C90.8618 354.876 90.865 354.683 90.8698 354.393C90.87 354.379 90.8703 354.365 90.8705 354.351C90.8754 354.057 90.883 353.7 90.9174 353.347C90.9514 352.999 91.0141 352.623 91.1441 352.298C91.2726 351.976 91.4988 351.628 91.905 351.471L92.0332 351.422L92.1687 351.444C92.2028 351.45 92.2404 351.456 92.282 351.462L92.2837 351.463C92.3234 351.469 92.3668 351.475 92.4076 351.482L92.4121 351.483L92.4165 351.484C92.667 351.53 92.9848 351.614 93.2759 351.772C94.0616 351.158 95.025 350.778 95.9941 350.552ZM96.2225 351.531C95.2209 351.765 94.3093 352.163 93.6472 352.775L93.301 353.095L92.9593 352.771C92.817 352.635 92.5489 352.532 92.2377 352.474C92.2236 352.471 92.2088 352.469 92.1934 352.467C92.1596 352.505 92.1194 352.568 92.0782 352.671C92.0003 352.866 91.9491 353.133 91.9186 353.445C91.8886 353.753 91.8812 354.073 91.8763 354.368C91.8759 354.394 91.8755 354.421 91.875 354.448C91.8711 354.697 91.8671 354.955 91.842 355.13L91.8417 355.133L91.8394 355.147C91.7149 355.957 91.5861 356.794 91.3789 357.61L91.3783 357.612L91.3777 357.615C90.9639 359.179 90.3652 360.629 89.448 361.991C88.7905 362.973 87.9793 363.886 87.2001 364.762C86.8507 365.155 86.5077 365.541 86.1879 365.923C86.0827 366.106 85.9712 366.29 85.8656 366.464C85.8224 366.535 85.7801 366.605 85.7397 366.673L85.7376 366.676L85.7355 366.679C84.6119 368.487 83.7257 371.076 83.9597 373.135L83.9604 373.141L83.9609 373.147C84.0152 373.755 84.1393 374.277 84.3129 374.745C85.3504 375.648 86.6833 376.338 87.6503 376.648L87.6521 376.649L87.654 376.65C90.2188 377.496 93.0459 377.82 95.7843 377.97C98.7051 378.121 101.824 378.062 104.452 376.953C105.831 376.369 107.016 375.519 108.135 374.529C108.591 373.351 108.72 371.998 108.685 370.565C108.616 368.465 108.228 366.427 107.829 364.337C107.722 363.774 107.614 363.206 107.511 362.633C107.434 362.238 107.371 361.857 107.309 361.482L107.304 361.458L107.303 361.437C107.164 359.699 107.038 357.949 106.925 356.224L106.925 356.222L106.925 356.22C106.914 356.039 106.899 355.855 106.884 355.668C106.85 355.24 106.814 354.796 106.823 354.332L106.823 354.33L106.824 354.328C106.828 354.172 106.851 353.968 106.871 353.78C106.881 353.689 106.891 353.602 106.898 353.527C106.923 353.25 106.921 353.064 106.894 352.962C106.893 352.96 106.892 352.958 106.891 352.956L106.889 352.951C106.886 352.946 106.883 352.938 106.879 352.93C106.871 352.913 106.86 352.886 106.849 352.854L106.823 352.777V352.747C106.442 352.447 106.081 352.208 105.702 352.081C105.353 352.152 105.012 352.264 104.788 352.356L104.786 352.357L104.784 352.357C104.388 352.516 104.037 352.72 103.717 352.959L103.311 353.264L103.01 352.854C102.662 352.38 102.019 351.99 101.263 351.712C100.517 351.437 99.7327 351.297 99.1826 351.274C98.2739 351.237 97.2204 351.299 96.2225 351.531Z" fill="#2C2C2C"/>
<path d="M138.398 374.537C138.398 374.537 137.669 376.889 137.442 377.254C137.216 377.618 131.444 379.605 124.402 379.454C117.084 379.303 113.739 377.178 113.639 374.525H138.398V374.537Z" fill="#50BFD7"/>
<path fill-rule="evenodd" clip-rule="evenodd" d="M113.116 374.021H138.901V374.613L138.878 374.686L138.398 374.537C138.878 374.686 138.878 374.686 138.878 374.686L138.878 374.686L138.878 374.687L138.87 374.713C138.864 374.731 138.856 374.756 138.846 374.789C138.825 374.855 138.796 374.949 138.76 375.063C138.687 375.29 138.588 375.598 138.482 375.917C138.376 376.236 138.262 376.57 138.159 376.849C138.064 377.106 137.959 377.375 137.869 377.518C137.819 377.599 137.757 377.654 137.722 377.682C137.681 377.715 137.638 377.744 137.598 377.769C137.519 377.817 137.422 377.867 137.316 377.915C137.102 378.014 136.814 378.127 136.463 378.248C135.76 378.49 134.779 378.772 133.587 379.038C131.205 379.568 127.961 380.033 124.392 379.957M137.715 375.027H114.214C114.432 375.924 115.146 376.781 116.539 377.478C118.208 378.312 120.79 378.876 124.413 378.951L124.413 378.951C127.886 379.025 131.048 378.572 133.369 378.056C134.529 377.798 135.473 377.525 136.136 377.296C136.468 377.182 136.723 377.081 136.895 377.002C136.962 376.971 137.011 376.946 137.045 376.927C137.056 376.902 137.07 376.872 137.084 376.837C137.122 376.747 137.166 376.633 137.215 376.501C137.312 376.237 137.423 375.914 137.528 375.6C137.594 375.399 137.658 375.202 137.715 375.027ZM113.116 374.021L113.136 374.544L113.116 374.021ZM113.136 374.544C113.196 376.114 114.223 377.444 116.089 378.377L113.136 374.544ZM116.089 378.377C117.946 379.306 120.696 379.88 124.392 379.957L116.089 378.377Z" fill="#2C2C2C"/>
<path d="M138.385 375.04C137.279 376.033 135.833 376.788 134.776 377.127C132.148 377.995 129.269 378.322 126.515 378.473C123.585 378.624 120.366 378.574 117.625 377.417C116.141 376.788 114.884 375.87 113.714 374.826C113.186 373.531 113.048 372.06 113.085 370.551C113.173 367.835 113.79 365.207 114.267 362.541C114.343 362.151 114.406 361.774 114.469 361.397C114.607 359.662 114.733 357.914 114.846 356.191C114.896 355.55 114.959 354.984 114.946 354.343C114.934 353.915 114.783 353.223 114.896 352.821C114.909 352.771 114.934 352.733 114.946 352.695C114.946 352.632 114.934 352.57 114.946 352.507C115.437 352.104 115.94 351.727 116.543 351.564C116.971 351.639 117.398 351.777 117.675 351.891C118.115 352.067 118.505 352.293 118.857 352.557C119.725 351.375 121.862 350.822 123.07 350.771C124.956 350.696 127.471 351.023 128.967 352.406C129.218 352.167 129.608 352.041 129.948 351.979C130.023 351.966 130.111 351.953 130.187 351.941C131.067 352.28 130.841 354.443 130.929 355.059C131.054 355.877 131.18 356.694 131.381 357.486C131.784 359.008 132.362 360.403 133.242 361.711C134.185 363.119 135.418 364.339 136.499 365.634C136.65 365.898 136.813 366.163 136.964 366.414C138.121 368.275 139.064 370.979 138.813 373.192C138.75 373.896 138.599 374.499 138.385 375.04Z" fill="#50BFD7"/>
<path fill-rule="evenodd" clip-rule="evenodd" d="M126.05 351.531C125.052 351.299 123.999 351.237 123.09 351.274C122.54 351.297 121.756 351.437 121.01 351.712C120.253 351.99 119.611 352.38 119.263 352.854L118.962 353.264L118.555 352.959C118.236 352.72 117.885 352.516 117.488 352.357L117.487 352.357L117.485 352.356C117.26 352.264 116.918 352.152 116.57 352.08C116.184 352.207 115.831 352.444 115.449 352.747V352.777L115.424 352.854C115.413 352.886 115.401 352.913 115.394 352.93C115.39 352.938 115.386 352.946 115.384 352.951C115.382 352.956 115.38 352.959 115.379 352.962C115.352 353.064 115.35 353.25 115.375 353.527C115.382 353.602 115.392 353.689 115.402 353.78C115.422 353.968 115.445 354.172 115.449 354.328L115.449 354.33L115.449 354.332C115.46 354.882 115.418 355.384 115.375 355.888C115.366 356.001 115.356 356.113 115.348 356.227C115.234 357.951 115.108 359.7 114.97 361.437L114.968 361.458L114.964 361.482C114.902 361.856 114.838 362.238 114.762 362.633C114.659 363.206 114.551 363.774 114.444 364.337C114.045 366.427 113.656 368.465 113.588 370.565C113.553 371.998 113.681 373.351 114.137 374.529C115.257 375.519 116.442 376.369 117.821 376.953C120.449 378.062 123.568 378.121 126.489 377.97C129.227 377.82 132.054 377.496 134.619 376.65L134.621 376.649L134.623 376.648C135.589 376.338 136.922 375.648 137.96 374.745C138.133 374.277 138.258 373.755 138.312 373.147L138.312 373.141L138.313 373.135C138.547 371.076 137.661 368.487 136.537 366.679L136.535 366.676L136.533 366.673C136.493 366.605 136.45 366.535 136.407 366.464C136.302 366.29 136.19 366.106 136.085 365.923C135.765 365.541 135.422 365.155 135.073 364.762C134.293 363.886 133.482 362.973 132.825 361.991C131.908 360.628 131.309 359.179 130.895 357.615L130.894 357.612L130.894 357.61C130.687 356.794 130.558 355.957 130.433 355.147L130.431 355.133L130.431 355.13C130.406 354.955 130.402 354.697 130.398 354.448C130.397 354.421 130.397 354.394 130.396 354.368C130.392 354.073 130.384 353.753 130.354 353.445C130.324 353.133 130.272 352.866 130.195 352.671C130.153 352.568 130.113 352.505 130.079 352.467C130.064 352.469 130.049 352.471 130.035 352.474C129.724 352.532 129.456 352.635 129.313 352.771L128.972 353.095L128.626 352.775C127.963 352.163 127.052 351.765 126.05 351.531ZM128.997 351.772C128.211 351.158 127.248 350.778 126.279 350.552C125.174 350.294 124.027 350.229 123.049 350.269L123.049 350.269C122.392 350.296 121.504 350.458 120.662 350.768C119.985 351.017 119.289 351.38 118.774 351.889C118.493 351.712 118.191 351.555 117.864 351.424C117.559 351.3 117.098 351.151 116.631 351.068L116.52 351.049L116.412 351.078C115.694 351.272 115.119 351.715 114.627 352.118L114.489 352.232L114.453 352.408C114.437 352.487 114.437 352.557 114.438 352.604C114.429 352.628 114.419 352.658 114.41 352.691C114.328 352.991 114.349 353.347 114.373 353.618C114.385 353.745 114.397 353.856 114.409 353.956C114.426 354.109 114.44 354.237 114.444 354.355C114.453 354.846 114.416 355.286 114.375 355.785C114.365 355.903 114.354 356.025 114.344 356.151L114.344 356.155L114.344 356.158C114.231 357.871 114.106 359.61 113.969 361.335C113.907 361.706 113.846 362.07 113.774 362.445L113.773 362.449L113.772 362.452C113.674 363.002 113.569 363.553 113.463 364.108C113.062 366.209 112.654 368.348 112.583 370.535L112.583 370.536L112.583 370.538C112.544 372.08 112.683 373.63 113.248 375.016L113.292 375.124L113.379 375.201C114.572 376.266 115.876 377.222 117.429 377.88L117.429 377.88C120.283 379.084 123.602 379.126 126.541 378.975L126.543 378.975C129.311 378.823 132.242 378.493 134.932 377.606C136.05 377.246 137.558 376.458 138.721 375.414L138.81 375.335L138.853 375.225C139.084 374.64 139.246 373.991 139.313 373.242C139.58 370.878 138.582 368.065 137.394 366.152C137.349 366.078 137.305 366.005 137.261 365.932C137.15 365.749 137.041 365.568 136.936 365.385L136.914 365.346L136.885 365.312C136.514 364.867 136.137 364.443 135.765 364.026C135.012 363.179 134.28 362.356 133.66 361.431L133.66 361.43C132.817 360.178 132.259 358.837 131.868 357.36C131.675 356.597 131.552 355.805 131.426 354.986C131.411 354.876 131.408 354.683 131.403 354.393L131.402 354.351C131.397 354.057 131.39 353.7 131.355 353.347C131.321 352.999 131.259 352.623 131.129 352.298C131 351.976 130.774 351.628 130.368 351.471L130.24 351.422L130.104 351.444C130.07 351.45 130.032 351.456 129.991 351.462L129.989 351.463C129.949 351.469 129.906 351.475 129.865 351.482L129.861 351.483L129.856 351.484C129.606 351.53 129.288 351.614 128.997 351.772ZM114.476 352.518C114.476 352.518 114.476 352.518 114.476 352.518V352.518Z" fill="#2C2C2C"/>
<path d="M113.513 123.739H103.856C101.291 123.739 99.2031 125.827 99.2031 128.392V138.049C99.2031 140.614 101.291 142.702 103.856 142.702H113.513C116.078 142.702 118.165 140.614 118.165 138.049V128.392C118.165 125.827 116.091 123.739 113.513 123.739ZM96.638 119.627C95.1667 119.627 93.9722 120.822 93.9722 122.293C93.9722 123.764 95.1667 124.959 96.638 124.959C98.1092 124.959 99.3037 123.764 99.3037 122.293C99.3037 120.822 98.1092 119.627 96.638 119.627Z" fill="white"/>
<path d="M112.834 129.498C112.218 127.851 110.646 126.757 108.885 126.757H106.27L111.438 139.86H116.983L112.834 129.498ZM102.271 136.1L100.762 139.86H106.27L108.835 133.359H106.22C104.459 133.359 102.887 134.453 102.271 136.1ZM103.126 130.014C104.032 130.014 104.773 129.272 104.773 128.366C104.773 127.461 104.032 126.719 103.126 126.719C102.221 126.719 101.479 127.461 101.479 128.366C101.479 129.272 102.221 130.014 103.126 130.014Z" fill="#50BFD7"/>
<path fill-rule="evenodd" clip-rule="evenodd" d="M113.193 87.8337C107.702 84.533 103.263 86.493 101.814 87.7515C101.478 88.0431 100.969 88.0073 100.678 87.6714C100.386 87.3356 100.422 86.827 100.758 86.5354C102.669 84.876 107.864 82.7508 114.023 86.4533C114.404 86.6824 114.527 87.1772 114.298 87.5584C114.069 87.9395 113.574 88.0628 113.193 87.8337Z" fill="#2C2C2C"/>
<path d="M129.108 11.1752C123.704 4.53079 116.155 0.523438 106.46 0.523438C84.5098 0.523438 63.064 20.767 63.064 46.0004C63.064 71.2338 80.8514 91.6972 102.801 91.6972C104.908 91.6972 106.951 91.5033 108.929 91.1543C109.136 92.266 109.252 93.4035 109.252 94.5799C109.252 94.7867 109.239 95.0065 109.239 95.2133C169.724 80.5283 159.822 7.43935 129.108 11.1752Z" fill="#2C2C2C"/>
<path d="M78.2016 76.2365C82.8065 76.2365 86.5395 72.5036 86.5395 67.8987C86.5395 63.2938 82.8065 59.5608 78.2016 59.5608C73.5968 59.5608 69.8638 63.2938 69.8638 67.8987C69.8638 72.5036 73.5968 76.2365 78.2016 76.2365Z" fill="#E0E0E0"/>
<path fill-rule="evenodd" clip-rule="evenodd" d="M78.2011 60.0779C73.8818 60.0779 70.3803 63.5793 70.3803 67.8987C70.3803 72.218 73.8818 75.7195 78.2011 75.7195C82.5205 75.7195 86.0219 72.218 86.0219 67.8987C86.0219 63.5793 82.5205 60.0779 78.2011 60.0779ZM69.3462 67.8987C69.3462 63.0082 73.3107 59.0437 78.2011 59.0437C83.0916 59.0437 87.0561 63.0082 87.0561 67.8987C87.0561 72.7891 83.0916 76.7536 78.2011 76.7536C73.3107 76.7536 69.3462 72.7891 69.3462 67.8987Z" fill="#2C2C2C"/>
<path d="M136.916 76.2365C141.52 76.2365 145.253 72.5036 145.253 67.8987C145.253 63.2938 141.52 59.5608 136.916 59.5608C132.311 59.5608 128.578 63.2938 128.578 67.8987C128.578 72.5036 132.311 76.2365 136.916 76.2365Z" fill="#E0E0E0"/>
<path fill-rule="evenodd" clip-rule="evenodd" d="M136.916 60.0779C132.596 60.0779 129.095 63.5793 129.095 67.8987C129.095 72.218 132.596 75.7195 136.916 75.7195C141.235 75.7195 144.736 72.218 144.736 67.8987C144.736 63.5793 141.235 60.0779 136.916 60.0779ZM128.061 67.8987C128.061 63.0082 132.025 59.0437 136.916 59.0437C141.806 59.0437 145.77 63.0082 145.77 67.8987C145.77 72.7891 141.806 76.7536 136.916 76.7536C132.025 76.7536 128.061 72.7891 128.061 67.8987Z" fill="#2C2C2C"/>
<path d="M108.347 102.685C126.245 102.685 140.755 82.145 140.755 56.8074C140.755 31.4698 126.245 10.9297 108.347 10.9297C90.4485 10.9297 75.939 31.4698 75.939 56.8074C75.939 82.145 90.4485 102.685 108.347 102.685Z" fill="#E0E0E0"/>
<path fill-rule="evenodd" clip-rule="evenodd" d="M85.8533 24.6653C80.0573 32.8704 76.456 44.2327 76.456 56.8074C76.456 69.3821 80.0573 80.7444 85.8533 88.9495C91.6503 97.156 99.6106 102.168 108.347 102.168C117.083 102.168 125.043 97.156 130.84 88.9495C136.636 80.7444 140.238 69.3821 140.238 56.8074C140.238 44.2327 136.636 32.8704 130.84 24.6653C125.043 16.4589 117.083 11.4468 108.347 11.4468C99.6106 11.4468 91.6503 16.4589 85.8533 24.6653ZM85.0087 24.0686C90.941 15.6706 99.1847 10.4126 108.347 10.4126C117.509 10.4126 125.753 15.6706 131.685 24.0686C137.618 32.468 141.272 44.0445 141.272 56.8074C141.272 69.5703 137.618 81.1468 131.685 89.5462C125.753 97.9442 117.509 103.202 108.347 103.202C99.1847 103.202 90.941 97.9442 85.0087 89.5462C79.0754 81.1468 75.4219 69.5703 75.4219 56.8074C75.4219 44.0445 79.0754 32.468 85.0087 24.0686Z" fill="#2C2C2C"/>
<path d="M71.208 46.634C71.208 46.634 98.7941 47.9784 107.985 31.3802C107.985 31.3802 127.944 48.6506 146.999 47.3062L145.202 39.6793L137.808 25.0977L133.322 19.7201L124.131 10.0766L111.799 4.9187L96.9973 6.9353L77.2578 20.3923L74.7888 29.3636L71.208 46.634Z" fill="#2C2C2C"/>
<path d="M109.135 74.737C109.148 74.8146 108.98 74.9568 108.605 74.9568C108.243 74.9697 107.688 74.8017 107.196 74.3363C106.951 74.1036 106.731 73.8192 106.563 73.4573C106.537 73.4056 106.524 73.3539 106.498 73.3021L106.472 73.2246L106.447 73.1599L106.408 73.0436C106.395 72.9919 106.382 72.9273 106.356 72.8756C106.304 72.6816 106.266 72.4748 106.253 72.2551C106.175 71.4019 106.343 70.5358 106.55 69.7085C107.351 66.3992 108.295 63.8008 108.644 63.8784C108.993 63.9689 108.631 66.7094 107.83 70.0187C107.623 70.8331 107.468 71.5699 107.468 72.1904C107.468 72.3455 107.481 72.5007 107.494 72.6429L107.507 72.6946V72.7204V72.7334V72.7463C107.507 72.7463 107.494 72.7075 107.507 72.7204L107.532 72.8497L107.545 72.9143L107.558 72.9531L107.584 73.0307C107.662 73.2763 107.778 73.509 107.907 73.69C108.166 74.0648 108.476 74.2975 108.722 74.4268C108.954 74.5948 109.122 74.6465 109.135 74.737Z" fill="#2C2C2C"/>
<path d="M99.9188 59.2377C99.9188 62.9219 96.7259 65.908 92.7961 65.908C88.8534 65.908 85.6733 62.9219 85.6733 59.2377C85.6733 55.5535 88.8663 52.5674 92.7961 52.5674C96.713 52.5674 99.9188 55.5535 99.9188 59.2377Z" fill="white"/>
<path fill-rule="evenodd" clip-rule="evenodd" d="M92.7961 53.0844C89.1192 53.0844 86.1904 55.8707 86.1904 59.2377C86.1904 62.6052 89.1069 65.3909 92.7961 65.3909C96.473 65.3909 99.4017 62.6046 99.4017 59.2377C99.4017 55.8713 96.4607 53.0844 92.7961 53.0844ZM85.1562 59.2377C85.1562 55.2363 88.6134 52.0503 92.7961 52.0503C96.9652 52.0503 100.436 55.2357 100.436 59.2377C100.436 63.2391 96.9788 66.4251 92.7961 66.4251C88.5999 66.4251 85.1562 63.2385 85.1562 59.2377Z" fill="#2C2C2C"/>
<path d="M89.293 58.8241C89.293 61.8619 91.2708 64.3309 93.7011 64.3309C96.1313 64.3309 98.1091 61.8619 98.1091 58.8241C98.1091 55.7862 96.1313 53.3172 93.7011 53.3172C91.2708 53.3043 89.293 55.7733 89.293 58.8241Z" fill="#50BFD7"/>
<path d="M90.5728 58.8241C90.5728 60.9829 91.9689 62.728 93.7011 62.728C95.4333 62.728 96.8294 60.9829 96.8294 58.8241C96.8294 56.6653 95.4333 54.9072 93.7011 54.9072C91.9689 54.9072 90.5728 56.6524 90.5728 58.8241Z" fill="#2C2C2C"/>
<path d="M90.3784 55.114C90.3784 55.7086 91.1023 56.174 91.9943 56.174C92.8862 56.174 93.6102 55.6957 93.6102 55.114C93.6102 54.5193 92.8862 54.054 91.9943 54.054C91.1023 54.041 90.3784 54.5193 90.3784 55.114Z" fill="white"/>
<path d="M101.948 49.0381C101.948 49.0381 92.3303 39.4463 81.9888 50.835C81.9888 50.835 90.9342 45.1083 101.948 49.0381Z" fill="#2C2C2C"/>
<path d="M130.905 59.2377C130.905 62.9219 127.712 65.908 123.782 65.908C119.839 65.908 116.659 62.9219 116.659 59.2377C116.659 55.5535 119.852 52.5674 123.782 52.5674C127.712 52.5674 130.905 55.5535 130.905 59.2377Z" fill="white"/>
<path fill-rule="evenodd" clip-rule="evenodd" d="M123.782 53.0844C120.105 53.0844 117.176 55.8707 117.176 59.2377C117.176 62.6052 120.093 65.3909 123.782 65.3909C127.459 65.3909 130.388 62.6046 130.388 59.2377C130.388 55.8707 127.459 53.0844 123.782 53.0844ZM116.142 59.2377C116.142 55.2363 119.599 52.0503 123.782 52.0503C127.965 52.0503 131.422 55.2363 131.422 59.2377C131.422 63.2391 127.965 66.4251 123.782 66.4251C119.586 66.4251 116.142 63.2385 116.142 59.2377Z" fill="#2C2C2C"/>
<path d="M120.292 58.8241C120.292 61.8619 122.269 64.3309 124.7 64.3309C127.13 64.3309 129.108 61.8619 129.108 58.8241C129.108 55.7862 127.13 53.3172 124.7 53.3172C122.256 53.3043 120.292 55.7733 120.292 58.8241Z" fill="#50BFD7"/>
<path d="M121.558 58.8241C121.558 60.9829 122.954 62.728 124.686 62.728C126.419 62.728 127.815 60.9829 127.815 58.8241C127.815 56.6653 126.419 54.9072 124.686 54.9072C122.967 54.9072 121.558 56.6524 121.558 58.8241Z" fill="#2C2C2C"/>
<path d="M121.364 55.114C121.364 55.7086 122.088 56.174 122.98 56.174C123.872 56.174 124.596 55.6957 124.596 55.114C124.596 54.5193 123.872 54.054 122.98 54.054C122.088 54.041 121.364 54.5193 121.364 55.114Z" fill="white"/>
<path d="M132.947 47.9912C132.947 47.9912 123.329 38.3994 112.988 49.7881C112.975 49.7881 121.92 44.0614 132.947 47.9912Z" fill="#2C2C2C"/>
<path fill-rule="evenodd" clip-rule="evenodd" d="M75.2929 54.3772V54.6357H74.2588V54.3772H75.2929Z" fill="#2C2C2C"/>
<path fill-rule="evenodd" clip-rule="evenodd" d="M80.7221 57.2209V57.4795H79.688V57.2209H80.7221Z" fill="#2C2C2C"/>
<path d="M110.118 55.6956C111.889 56.0705 111.23 57.221 111.23 57.389C111.23 57.5571 111.889 67.123 120.434 69.6438C128.978 72.1645 134.098 67.2135 135.584 64.7315C137.071 62.2495 138.312 56.3549 138.674 55.9024C139.049 55.45 140.82 54.6614 140.82 54.6614L141.026 52.3475L138.803 51.6882C138.803 51.6882 133.193 49.1287 124.932 49.0124C116.685 48.8831 112.018 53.6402 112.018 53.6402C109.691 52.9034 106.809 52.7999 104.172 53.6402C104.172 53.6402 99.505 48.896 91.2576 49.0124C83.0102 49.1416 77.387 51.6882 77.387 51.6882L75.1636 52.3475L75.3704 54.6614C75.3704 54.6614 77.1414 55.45 77.5163 55.9024C77.8912 56.3549 79.1192 62.2625 80.6058 64.7315C82.0924 67.2135 87.2115 72.1645 95.7562 69.6438C104.301 67.123 104.96 57.5571 104.96 57.389C104.96 57.221 104.301 56.0705 106.072 55.6956C107.623 55.3724 108.58 55.3724 110.118 55.6956ZM130.633 67.6659C124.118 71.5828 116.31 67.6272 113.957 62.4693C111.605 57.3114 113.582 54.5839 113.582 54.5839C117.512 48.1721 133.387 47.9006 136.114 54.8295C136.579 55.9929 137.148 63.7491 130.633 67.6659ZM80.0758 54.8295C82.8034 47.8877 98.6777 48.1721 102.607 54.5839C102.607 54.5839 104.585 57.3114 102.233 62.4693C99.8799 67.6272 92.085 71.5828 85.5569 67.6659C79.0546 63.7491 79.6234 55.9929 80.0758 54.8295Z" fill="#2C2C2C"/>
<path fill-rule="evenodd" clip-rule="evenodd" d="M113.193 87.8337C107.702 84.533 103.263 86.493 101.814 87.7515C101.478 88.0431 100.969 88.0073 100.678 87.6714C100.386 87.3356 100.422 86.827 100.758 86.5354C102.669 84.876 107.864 82.7508 114.023 86.4533C114.404 86.6824 114.527 87.1772 114.298 87.5584C114.069 87.9395 113.574 88.0628 113.193 87.8337Z" fill="#2C2C2C"/>
</svg>
