<svg width="469" height="381" viewBox="0 0 469 381" fill="none" xmlns="http://www.w3.org/2000/svg">
<path d="M448.248 189.697C453.001 157.94 448.885 125.801 429.083 98.3767C406.387 66.9887 370.437 44.8077 332.221 38.5148C325.413 37.3862 318.526 36.7926 311.625 36.7395C295.152 36.6275 278.774 39.2375 263.152 44.4641C236.778 53.3721 214.107 68.8912 193.606 87.4135C184.501 95.6343 175.612 106.184 163.554 110.002C151.038 113.998 137.575 108.856 125.377 105.713C102.515 99.8211 68.9572 87.0954 46.1781 99.1848C16.2726 115.092 7.36457 150.088 18.8177 177.448C30.2709 204.809 65.2668 206.717 69.0845 227.715C72.9022 248.712 91.3546 279.891 131.441 276.709C171.527 273.528 186.798 239.168 212.249 249.349C221.202 252.931 228.233 259.529 235.849 265.199C246.456 273.114 257.96 278.503 271.017 280.985C289.685 284.535 310.072 282.658 328.919 281.755C350.553 280.711 373.828 281.507 394.832 273.948C417.382 265.822 431.622 248.019 439.264 225.698C443.339 213.993 446.346 201.944 448.248 189.697Z" fill="#CAECF3"/>
<path d="M284.924 270.738H388.914C390.901 270.738 392.807 269.948 394.212 268.543C395.617 267.138 396.406 265.233 396.406 263.246V70.8497C396.406 68.8627 395.617 66.9571 394.212 65.552C392.807 64.147 390.901 63.3577 388.914 63.3577H88.0331C86.0461 63.3577 84.1404 64.147 82.7354 65.552C81.3304 66.9571 80.541 68.8627 80.541 70.8497V263.246C80.541 265.233 81.3304 267.138 82.7354 268.543C84.1404 269.948 86.0461 270.738 88.0331 270.738H192.023" stroke="black" stroke-linecap="round" stroke-linejoin="round"/>
<path d="M389.216 71.7488H87.1367V248.561H389.216V71.7488Z" stroke="black" stroke-linecap="round" stroke-linejoin="round"/>
<path d="M284.926 270.738H192.024V291.686H284.926V270.738Z" stroke="black" stroke-linecap="round" stroke-linejoin="round"/>
<path d="M284.927 291.686H301.109V299.681H175.842V291.686H192.025" stroke="black" stroke-linecap="round" stroke-linejoin="round"/>
<path d="M56.4541 299.681H43.2681" stroke="#2C2C2C" stroke-width="0.75" stroke-miterlimit="10" stroke-linecap="round"/>
<path d="M390.298 299.681H63.6445" stroke="#2C2C2C" stroke-width="0.75" stroke-miterlimit="10" stroke-linecap="round"/>
<path d="M415.472 299.681H394.495" stroke="#2C2C2C" stroke-width="0.75" stroke-miterlimit="10" stroke-linecap="round"/>
<path d="M404.328 231.245L413.603 216.964L357.415 180.476L348.141 194.757L404.328 231.245Z" fill="#C7C7C7"/>
<path d="M449.938 266.06L463.963 244.46L405.767 206.659L391.742 228.26L449.938 266.06Z" fill="#2C2C2C"/>
<path d="M357.952 142.55L357.977 142.943L358.018 143.544C358.071 144.289 358.121 145.021 358.139 145.735C358.199 145.959 358.156 146.197 358.151 146.425C358.25 150.005 358.047 153.587 357.545 157.133C357.512 157.408 357.479 157.683 357.431 157.949C356.784 162.245 355.712 166.466 354.23 170.551L354.045 171.053C350.736 179.944 345.565 188.026 338.879 194.756L338.44 195.207C334.498 199.09 330.09 202.471 325.319 205.274L323.518 206.302C317.702 209.488 311.434 211.769 304.931 213.067L304.484 213.187C301.768 213.712 299.022 214.07 296.263 214.258C295.374 214.323 294.48 214.363 293.628 214.364C292.776 214.366 292.05 214.388 291.264 214.385C284.097 214.346 276.985 213.135 270.21 210.799C269.859 210.68 269.479 210.556 269.121 210.412C267.737 209.917 266.377 209.363 265.031 208.765L264.333 208.446C259.014 206.026 254.041 202.907 249.545 199.173L248.913 198.65C248.641 198.43 248.378 198.194 248.118 197.971C243.628 194.048 239.681 189.545 236.381 184.579C236.138 184.218 235.907 183.853 235.663 183.439C234.305 181.298 233.067 179.082 231.954 176.804C231.894 176.58 231.763 176.389 231.653 176.178C228.156 168.7 226.082 160.637 225.535 152.399L225.482 151.508L225.455 150.809C224.92 139.122 227.511 127.502 232.96 117.148C235.405 112.523 238.379 108.196 241.821 104.255C243.108 102.827 244.456 101.432 245.866 100.069C253.319 92.9371 262.33 87.6381 272.185 84.5911C282.04 81.5441 292.47 80.8327 302.647 82.5133C312.825 84.1939 322.472 88.2203 330.825 94.2738C339.177 100.327 346.006 108.242 350.771 117.391C350.84 117.503 350.899 117.621 350.945 117.744C354.892 125.47 357.273 133.9 357.952 142.55Z" fill="white"/>
<path d="M325.317 205.274L323.516 206.303L293.576 214.325C292.784 214.351 291.998 214.349 291.211 214.346L304.343 210.828L325.317 205.274Z" fill="#EBEBEB"/>
<path d="M329.839 150.096C329.999 150.693 329.979 151.324 329.78 151.909C329.581 152.495 329.213 153.008 328.723 153.384C328.233 153.761 327.642 153.983 327.025 154.023C326.408 154.064 325.793 153.92 325.258 153.611C324.722 153.302 324.291 152.841 324.017 152.287C323.744 151.733 323.641 151.11 323.722 150.497C323.803 149.884 324.063 149.309 324.471 148.844C324.878 148.379 325.414 148.046 326.012 147.886C326.408 147.78 326.821 147.753 327.228 147.806C327.635 147.86 328.028 147.993 328.383 148.198C328.739 148.403 329.05 148.677 329.3 149.002C329.55 149.328 329.733 149.699 329.839 150.096Z" fill="white"/>
<path d="M334.494 167.463C334.654 168.06 334.633 168.691 334.434 169.276C334.236 169.862 333.868 170.375 333.377 170.751C332.887 171.128 332.296 171.35 331.679 171.39C331.062 171.431 330.447 171.287 329.912 170.978C329.377 170.669 328.945 170.208 328.672 169.654C328.398 169.1 328.295 168.477 328.376 167.864C328.457 167.251 328.717 166.676 329.125 166.211C329.533 165.746 330.069 165.413 330.666 165.253C331.466 165.038 332.32 165.151 333.037 165.565C333.755 165.98 334.279 166.662 334.494 167.463Z" fill="white"/>
<path d="M296.99 225.421C281.673 226.461 266.392 222.935 253.079 215.288C239.767 207.642 229.021 196.219 222.202 182.464C215.383 168.71 212.797 153.242 214.77 138.017C216.744 122.792 223.188 108.495 233.289 96.9333C243.39 85.3719 256.692 77.0661 271.514 73.0665C286.336 69.0669 302.012 69.5533 316.557 74.4641C331.103 79.375 343.865 88.4896 353.229 100.655C362.594 112.82 368.14 127.49 369.165 142.808C370.519 163.327 363.682 183.545 350.152 199.031C336.623 214.517 317.505 224.007 296.99 225.421ZM296.394 216.539C309.949 215.628 322.93 210.717 333.694 202.428C344.458 194.139 352.523 182.845 356.869 169.973C361.214 157.101 361.645 143.229 358.107 130.112C354.569 116.995 347.221 105.222 336.992 96.2807C326.763 87.3397 314.113 81.6326 300.64 79.8811C287.168 78.1295 273.479 80.4122 261.304 86.4404C249.129 92.4686 239.014 101.972 232.24 113.748C225.466 125.524 222.335 139.045 223.245 152.6C224.481 170.773 232.879 187.713 246.593 199.701C260.308 211.689 278.219 217.745 296.394 216.539Z" fill="#37474F"/>
<path d="M354.035 113.773C350.016 106.513 344.763 100.009 338.512 94.551C324.333 82.1605 305.812 75.9102 287.025 77.1749C268.237 78.4397 250.722 87.1159 238.331 101.295C225.941 115.474 219.69 133.995 220.955 152.782C222.22 171.57 230.896 189.085 245.075 201.476C255.643 210.728 268.719 216.636 282.647 218.452C296.575 220.268 310.729 217.911 323.316 211.678C335.903 205.445 346.358 195.618 353.357 183.439C360.355 171.261 363.582 157.28 362.63 143.267C361.97 132.923 359.035 122.852 354.035 113.773ZM358.018 143.544C359.066 158.889 354.761 174.124 345.835 186.65C336.909 199.176 323.914 208.219 309.067 212.237C294.22 216.255 278.439 214.999 264.414 208.684C250.389 202.369 238.988 191.385 232.155 177.605C225.322 163.825 223.479 148.102 226.942 133.115C230.404 118.129 238.956 104.807 251.142 95.4203C263.327 86.0338 278.39 81.1638 293.764 81.6405C309.138 82.1172 323.87 87.911 335.451 98.0343C348.704 109.616 356.824 125.981 358.03 143.541L358.018 143.544ZM354.035 113.773C350.016 106.513 344.763 100.009 338.512 94.551C324.333 82.1605 305.812 75.9102 287.025 77.1749C268.237 78.4397 250.722 87.1159 238.331 101.295C225.941 115.474 219.69 133.995 220.955 152.782C222.22 171.57 230.896 189.085 245.075 201.476C255.643 210.728 268.719 216.636 282.647 218.452C296.575 220.268 310.729 217.911 323.316 211.678C335.903 205.445 346.358 195.618 353.357 183.439C360.355 171.261 363.582 157.28 362.63 143.267C361.97 132.923 359.035 122.852 354.035 113.773ZM358.018 143.544C359.066 158.889 354.761 174.124 345.835 186.65C336.909 199.176 323.914 208.219 309.067 212.237C294.22 216.255 278.439 214.999 264.414 208.684C250.389 202.369 238.988 191.385 232.155 177.605C225.322 163.825 223.479 148.102 226.942 133.115C230.404 118.129 238.956 104.807 251.142 95.4203C263.327 86.0338 278.39 81.1638 293.764 81.6405C309.138 82.1172 323.87 87.911 335.451 98.0343C348.704 109.616 356.824 125.981 358.03 143.541L358.018 143.544ZM361.809 109.493C352.333 92.2455 336.823 79.1036 318.254 72.5879C299.685 66.0721 279.363 66.6412 261.188 74.186C243.012 81.7308 228.262 95.7201 219.766 113.471C211.27 131.222 209.626 151.484 215.15 170.372C220.674 189.26 232.977 205.444 249.699 215.82C266.421 226.195 286.384 230.032 305.761 226.595C325.138 223.157 342.563 212.687 354.695 197.192C366.827 181.698 372.812 162.269 371.502 142.634C370.734 131.011 367.43 119.698 361.822 109.49L361.809 109.493ZM366.899 142.948C368.149 161.465 362.519 179.791 351.088 194.411C339.658 209.032 323.232 218.918 304.961 222.172C286.69 225.426 267.86 221.821 252.085 212.046C236.309 202.271 224.697 187.016 219.477 169.207C214.257 151.398 215.796 132.288 223.799 115.544C231.802 98.7996 245.705 85.5994 262.842 78.4754C279.978 71.3515 299.142 70.8053 316.657 76.9417C334.171 83.0781 348.804 95.465 357.747 111.726C363.053 121.335 366.182 131.993 366.911 142.945L366.899 142.948ZM338.512 94.551C324.333 82.1605 305.812 75.9102 287.025 77.1749C268.237 78.4397 250.722 87.1159 238.331 101.295C225.941 115.474 219.69 133.995 220.955 152.782C222.22 171.57 230.896 189.085 245.075 201.476C255.643 210.728 268.719 216.636 282.647 218.452C296.575 220.268 310.729 217.911 323.316 211.678C335.903 205.445 346.358 195.618 353.357 183.439C360.355 171.261 363.582 157.28 362.63 143.267C361.963 132.937 359.028 122.88 354.033 113.814C350.018 106.54 344.766 100.021 338.512 94.551ZM358.03 143.541C359.079 158.886 354.773 174.12 345.847 186.647C336.921 199.173 323.927 208.216 309.08 212.234C294.233 216.252 278.451 214.996 264.426 208.681C250.401 202.366 239.001 191.382 232.167 177.602C225.334 163.822 223.492 148.098 226.954 133.112C230.416 118.125 238.969 104.803 251.154 95.417C263.339 86.0305 278.402 81.1605 293.776 81.6372C309.15 82.1138 323.883 87.9076 335.463 98.0309C348.713 109.616 356.828 125.982 358.03 143.541Z" fill="#37474F"/>
<path d="M254.303 109.792C259.152 104.586 265.041 100.458 271.589 97.6767C274.894 96.2109 278.341 95.0866 281.874 94.3214C285.452 93.5567 289.096 93.1422 292.754 93.0839C300.135 93.0469 307.442 94.5542 314.206 97.5088C320.871 100.408 326.94 104.52 332.102 109.637C326.042 106.034 319.635 103.049 312.978 100.727C309.724 99.6585 306.391 98.8508 303.01 98.3118C299.666 97.7318 296.275 97.4723 292.882 97.5368C286.097 97.6053 279.364 98.7355 272.928 100.886C266.383 103.091 260.129 106.082 254.303 109.792Z" fill="#C0E2E9"/>
<path d="M385.555 261.716L369.18 324.272H405.699L389.325 261.716C389.225 261.291 388.985 260.912 388.643 260.641C388.3 260.369 387.877 260.222 387.44 260.222C387.003 260.222 386.579 260.369 386.237 260.641C385.895 260.912 385.654 261.291 385.555 261.716Z" fill="#2E9DB6" stroke="#2C2C2C" stroke-linecap="round" stroke-linejoin="round"/>
<path d="M369.18 324.272H398.933L384.056 267.434L369.18 324.272Z" fill="#2C2C2C" stroke="#2C2C2C" stroke-linecap="round" stroke-linejoin="round"/>
<path d="M409.386 322.9H363.834C362.51 322.9 361.437 323.973 361.437 325.297V325.603C361.437 326.927 362.51 328 363.834 328H409.386C410.71 328 411.784 326.927 411.784 325.603V325.297C411.784 323.973 410.71 322.9 409.386 322.9Z" fill="#2E9DB6" stroke="#2C2C2C" stroke-linecap="round" stroke-linejoin="round"/>
<path d="M393.797 322.9H363.834C362.51 322.9 361.437 323.973 361.437 325.297V325.603C361.437 326.927 362.51 328 363.834 328H393.797C395.121 328 396.194 326.927 396.194 325.603V325.297C396.194 323.973 395.121 322.9 393.797 322.9Z" fill="#2C2C2C" stroke="#2C2C2C" stroke-linecap="round" stroke-linejoin="round"/>
<path d="M375.715 299.321H399.168L396.333 288.484H378.55L375.715 299.321Z" fill="white" stroke="#2C2C2C" stroke-linecap="round" stroke-linejoin="round"/>
<path d="M375.715 299.321H392.408L389.573 288.484H378.55L375.715 299.321Z" fill="#BABABA" stroke="#2C2C2C" stroke-linecap="round" stroke-linejoin="round"/>
<path d="M121.572 191.372C121.572 191.372 110.356 192.692 108.005 192.692C107.979 192.692 107.954 192.692 107.929 192.692C107.917 192.692 107.904 192.692 107.891 192.692C107.879 192.692 107.866 192.692 107.854 192.692C107.829 192.692 107.803 192.692 107.778 192.692C105.414 192.692 94.2104 191.372 94.2104 191.372C79.2594 196.087 80.3282 217.904 80.3408 218.52C80.4414 223.022 80.5042 227.536 80.6174 232.038C80.8815 242.638 83.585 274.389 84.2766 284.486C84.3394 285.316 84.3772 286.007 84.4023 286.523C85.534 309.182 86.6532 331.841 87.7849 354.501C87.8855 356.487 87.986 358.487 88.0866 360.473C88.0866 360.473 93.3428 363.743 103.654 360.473L103.742 286.875L106.609 232.189C106.609 232.189 107.137 232.113 107.766 232.05C107.803 232.05 107.841 232.063 107.891 232.063V232.075C107.904 232.075 107.917 232.075 107.929 232.075C107.942 232.075 107.954 232.075 107.967 232.075V232.063C108.005 232.063 108.042 232.05 108.093 232.05C108.721 232.113 109.249 232.189 109.249 232.189L112.116 286.875L112.204 360.473C122.516 363.743 127.772 360.473 127.772 360.473C127.872 358.487 127.973 356.487 128.073 354.501C129.205 331.841 130.312 309.182 131.456 286.523C131.481 286.007 131.519 285.316 131.582 284.486C132.261 274.401 134.977 242.638 135.241 232.038C135.354 227.536 135.417 223.022 135.518 218.52C135.455 217.904 136.511 196.087 121.572 191.372Z" fill="#2C2C2C"/>
<path d="M33.7334 147.148C33.7334 147.148 30.6972 144.891 30.1544 142.644C29.6002 140.392 29.1645 139.311 25.5019 135.266C21.8738 131.236 21.2365 127.856 21.2365 127.856C21.2365 127.856 16.763 129.323 22.2018 135.787C25.5291 139.75 11.6991 133.132 7.70735 130.76C7.70735 130.76 4.67729 130.99 7.81695 134.757C10.9566 138.524 7.01711 136.921 13.4599 143.881C19.8861 150.847 28.5388 156.888 32.6357 152.959C36.7212 149.025 33.7334 147.148 33.7334 147.148Z" fill="white"/>
<path fill-rule="evenodd" clip-rule="evenodd" d="M21.2363 127.856L21.0795 127.378L21.6243 127.199L21.7304 127.762L21.7304 127.762L21.7305 127.763L21.7312 127.766C21.7321 127.77 21.7337 127.778 21.736 127.789C21.7406 127.81 21.7482 127.844 21.7593 127.889C21.7816 127.981 21.8182 128.119 21.8734 128.299C21.984 128.66 22.1695 129.188 22.4663 129.841C23.0598 131.148 24.0987 132.955 25.875 134.928C27.7084 136.954 28.7615 138.266 29.4246 139.368C30.0989 140.489 30.3609 141.379 30.6426 142.523L30.6429 142.524L30.6431 142.526C30.8805 143.508 31.6896 144.551 32.5068 145.387C32.9061 145.795 33.2901 146.136 33.5742 146.375C33.716 146.495 33.8324 146.588 33.9126 146.651C33.9526 146.683 33.9836 146.707 34.0042 146.722C34.0117 146.728 34.0178 146.733 34.0225 146.736C34.0272 146.739 34.0325 146.743 34.0384 146.747C34.0436 146.751 34.0492 146.754 34.0553 146.759C34.084 146.779 34.1224 146.807 34.1679 146.844C34.2587 146.916 34.3794 147.023 34.508 147.164C34.7644 147.445 35.0616 147.875 35.2048 148.458C35.5011 149.663 35.0944 151.289 32.9844 153.321L32.9836 153.322C31.8338 154.425 30.3718 154.811 28.7732 154.679C27.1889 154.548 25.4523 153.91 23.6809 152.947C20.1359 151.021 16.3234 147.726 13.0901 144.222C9.86409 140.737 9.15374 139.313 8.90896 138.232C8.86591 138.042 8.83691 137.859 8.81157 137.699C8.80314 137.646 8.79512 137.595 8.78712 137.547C8.75367 137.349 8.71546 137.166 8.64281 136.961C8.49769 136.551 8.19578 135.997 7.43032 135.079C6.6245 134.112 6.17624 133.328 5.99139 132.681C5.80135 132.016 5.88611 131.471 6.17072 131.06C6.43973 130.67 6.83527 130.476 7.1199 130.379C7.26702 130.328 7.39898 130.299 7.49499 130.282C7.54335 130.273 7.58356 130.267 7.61319 130.264C7.62803 130.262 7.6403 130.261 7.64969 130.26C7.65439 130.259 7.65838 130.259 7.66162 130.259L7.66592 130.258L7.66764 130.258L7.66839 130.258C7.66874 130.258 7.66907 130.258 7.7071 130.76L7.66907 130.258L7.8275 130.246L7.96408 130.327C9.93646 131.5 14.3696 133.736 17.8902 135.184C19.6688 135.915 21.1475 136.416 21.9581 136.507C22.0195 136.514 22.0729 136.518 22.1188 136.52C22.0554 136.415 21.9582 136.28 21.8165 136.111C19.0634 132.839 18.6713 130.66 19.2081 129.222C19.4719 128.515 19.9391 128.056 20.3302 127.777C20.526 127.637 20.7064 127.54 20.8399 127.477C20.9069 127.445 20.9627 127.422 21.0038 127.406C21.0243 127.398 21.0412 127.391 21.0539 127.387C21.0603 127.384 21.0657 127.383 21.07 127.381L21.0756 127.379L21.0777 127.378L21.0787 127.378C21.0791 127.378 21.0795 127.378 21.2363 127.856ZM7.60756 131.285C7.56005 131.295 7.50452 131.31 7.44553 131.33C7.26014 131.394 7.09439 131.492 6.99834 131.631C6.91789 131.748 6.83383 131.968 6.95868 132.405C7.08873 132.86 7.43909 133.518 8.20309 134.435C9.00747 135.4 9.39049 136.058 9.59108 136.625C9.69129 136.908 9.74113 137.155 9.77913 137.38C9.79033 137.447 9.80015 137.509 9.80961 137.569C9.83343 137.719 9.85492 137.855 9.89006 138.01C10.0711 138.81 10.6124 140.064 13.8288 143.539L13.8294 143.539C17.0222 147 20.7491 150.209 24.1612 152.063C25.8683 152.991 27.4648 153.561 28.8559 153.676C30.2327 153.79 31.3886 153.458 32.2871 152.596C34.262 150.694 34.4042 149.415 34.2279 148.698C34.1349 148.32 33.9405 148.035 33.7644 147.841C33.6767 147.745 33.5959 147.674 33.5393 147.629C33.5111 147.606 33.4893 147.591 33.4762 147.581C33.4696 147.577 33.4653 147.574 33.4634 147.573C33.4625 147.572 33.4622 147.572 33.4625 147.572L33.4489 147.563L33.4331 147.552L33.7332 147.148C33.4331 147.552 33.433 147.552 33.4329 147.552L33.4326 147.551L33.4296 147.549L33.4218 147.543C33.4152 147.538 33.4058 147.531 33.3937 147.522C33.3695 147.503 33.3348 147.477 33.2908 147.442C33.2028 147.373 33.0777 147.272 32.9264 147.145C32.6243 146.891 32.2152 146.527 31.7877 146.09C30.9513 145.235 29.9713 144.027 29.6656 142.763C29.3931 141.656 29.1601 140.88 28.5626 139.886C27.9536 138.874 26.9577 137.623 25.1288 135.603L25.1279 135.602C23.2763 133.546 22.1827 131.649 21.5505 130.258C21.2352 129.564 21.0348 128.996 20.9124 128.597C20.6352 128.795 20.325 129.106 20.1506 129.573C19.8104 130.485 19.9009 132.272 22.5864 135.463L22.5867 135.464C22.8071 135.726 22.9782 135.97 23.0848 136.193C23.1842 136.401 23.2726 136.685 23.1727 136.972C23.0602 137.295 22.781 137.434 22.5586 137.487C22.3403 137.539 22.0907 137.534 21.8456 137.507C20.8741 137.398 19.2697 136.839 17.5077 136.114C14.0371 134.687 9.6948 132.506 7.60756 131.285ZM7.74732 131.261C7.74826 131.261 7.74857 131.261 7.74822 131.261L7.74732 131.261Z" fill="#2C2C2C"/>
<path d="M80.3007 128.264C80.3007 128.264 70.6748 179.129 65.9557 181.999C62.1581 184.313 49.8678 173.712 33.6667 159.409C31.8828 157.74 29.7354 155.19 29.7354 155.19L33.3592 141.5L37.3906 145.741L56.542 161.73C56.542 161.73 64.5642 120.242 72.1478 119.488C79.7438 118.722 80.3007 128.264 80.3007 128.264Z" fill="#2C2C2C"/>
<path d="M182.213 147.148C182.213 147.148 185.249 144.89 185.792 142.643C186.346 140.391 186.782 139.31 190.444 135.265C194.073 131.235 194.71 127.855 194.71 127.855C194.71 127.855 199.183 129.323 193.744 135.787C190.417 139.749 204.247 133.132 208.239 130.759C208.239 130.759 211.269 130.989 208.129 134.756C204.99 138.523 208.929 136.92 202.486 143.88C196.06 150.846 187.407 156.887 183.311 152.958C179.225 149.024 182.213 147.148 182.213 147.148Z" fill="white"/>
<path fill-rule="evenodd" clip-rule="evenodd" d="M194.71 127.855L194.867 127.377L194.322 127.199L194.216 127.761L194.216 127.761L194.216 127.762L194.215 127.766C194.214 127.77 194.213 127.777 194.21 127.788C194.206 127.81 194.198 127.843 194.187 127.889C194.165 127.98 194.128 128.119 194.073 128.299C193.962 128.66 193.777 129.188 193.48 129.841C192.887 131.147 191.848 132.955 190.071 134.928C188.238 136.953 187.185 138.265 186.522 139.367C185.847 140.488 185.585 141.378 185.304 142.523L185.303 142.524L185.303 142.525C185.066 143.508 184.257 144.551 183.44 145.386C183.04 145.794 182.656 146.136 182.372 146.375C182.23 146.494 182.114 146.588 182.034 146.651C181.994 146.682 181.963 146.706 181.942 146.722C181.935 146.728 181.928 146.732 181.924 146.736C181.919 146.739 181.914 146.742 181.908 146.747C181.903 146.75 181.897 146.754 181.891 146.758C181.862 146.778 181.824 146.807 181.778 146.843C181.688 146.916 181.567 147.022 181.438 147.164C181.182 147.445 180.885 147.875 180.741 148.458C180.445 149.662 180.852 151.289 182.962 153.321L182.963 153.321C184.113 154.424 185.574 154.81 187.173 154.678C188.757 154.548 190.494 153.909 192.265 152.947C195.81 151.021 199.623 147.726 202.856 144.221C206.082 140.736 206.793 139.313 207.037 138.232C207.08 138.042 207.109 137.859 207.135 137.698C207.143 137.645 207.151 137.594 207.159 137.547C207.193 137.348 207.231 137.165 207.303 136.96C207.449 136.55 207.751 135.997 208.516 135.078C209.322 134.111 209.77 133.328 209.955 132.68C210.145 132.015 210.06 131.471 209.776 131.059C209.507 130.67 209.111 130.475 208.826 130.378C208.679 130.328 208.547 130.298 208.451 130.281C208.403 130.273 208.363 130.267 208.333 130.263C208.318 130.262 208.306 130.26 208.297 130.259C208.292 130.259 208.288 130.259 208.285 130.258L208.28 130.258L208.279 130.258L208.278 130.258C208.278 130.258 208.277 130.258 208.239 130.759L208.277 130.258L208.119 130.246L207.982 130.327C206.01 131.499 201.577 133.736 198.056 135.183C196.277 135.915 194.799 136.416 193.988 136.507C193.927 136.514 193.873 136.518 193.827 136.519C193.891 136.414 193.988 136.279 194.13 136.11C196.883 132.838 197.275 130.659 196.738 129.221C196.474 128.515 196.007 128.055 195.616 127.776C195.42 127.636 195.24 127.539 195.106 127.476C195.039 127.445 194.984 127.421 194.943 127.405C194.922 127.397 194.905 127.391 194.892 127.386C194.886 127.384 194.881 127.382 194.876 127.381L194.871 127.379L194.869 127.378L194.868 127.378C194.867 127.377 194.867 127.377 194.71 127.855ZM208.339 131.284C208.386 131.295 208.442 131.31 208.501 131.33C208.686 131.393 208.852 131.492 208.948 131.631C209.028 131.747 209.112 131.967 208.988 132.404C208.858 132.86 208.507 133.517 207.743 134.434C206.939 135.399 206.556 136.058 206.355 136.624C206.255 136.908 206.205 137.154 206.167 137.38C206.156 137.447 206.146 137.509 206.137 137.568C206.113 137.719 206.091 137.855 206.056 138.01C205.875 138.809 205.334 140.064 202.118 143.538L202.117 143.539C198.924 147 195.197 150.209 191.785 152.063C190.078 152.99 188.482 153.561 187.09 153.676C185.714 153.789 184.558 153.457 183.659 152.596C181.684 150.694 181.542 149.415 181.718 148.698C181.811 148.319 182.006 148.034 182.182 147.841C182.27 147.745 182.35 147.674 182.407 147.629C182.435 147.606 182.457 147.59 182.47 147.581C182.477 147.576 182.481 147.573 182.483 147.572C182.484 147.571 182.484 147.571 182.484 147.571L182.497 147.563L182.513 147.551L182.213 147.148C182.513 147.551 182.513 147.551 182.513 147.551L182.514 147.551L182.517 147.549L182.524 147.543C182.531 147.538 182.54 147.531 182.553 147.521C182.577 147.503 182.612 147.476 182.656 147.442C182.743 147.372 182.869 147.272 183.02 147.144C183.322 146.89 183.731 146.527 184.159 146.09C184.995 145.235 185.975 144.026 186.281 142.762C186.553 141.655 186.786 140.879 187.384 139.886C187.993 138.874 188.989 137.623 190.817 135.603L190.818 135.602C192.67 133.545 193.764 131.648 194.396 130.257C194.711 129.563 194.911 128.995 195.034 128.596C195.311 128.795 195.621 129.106 195.796 129.573C196.136 130.484 196.045 132.271 193.36 135.463L193.36 135.463C193.139 135.726 192.968 135.969 192.861 136.193C192.762 136.401 192.674 136.685 192.774 136.971C192.886 137.294 193.165 137.433 193.388 137.487C193.606 137.539 193.856 137.534 194.101 137.506C195.072 137.397 196.677 136.838 198.439 136.114C201.909 134.687 206.251 132.505 208.339 131.284ZM208.199 131.261C208.198 131.26 208.198 131.26 208.198 131.26L208.199 131.261Z" fill="#2C2C2C"/>
<path d="M135.645 128.264C135.645 128.264 145.271 179.129 149.99 181.999C153.788 184.313 166.078 173.712 182.279 159.409C184.063 157.74 186.21 155.19 186.21 155.19L182.587 141.5L178.555 145.741L159.404 161.73C159.404 161.73 151.382 120.242 143.798 119.488C136.202 118.722 135.645 128.264 135.645 128.264Z" fill="#2C2C2C"/>
<path d="M155.637 128.587C155.637 136.61 150.381 141.577 142.358 141.577C134.335 141.577 127.834 135.076 127.834 127.053C127.834 119.031 133.895 110.178 141.541 112.58C149.966 115.208 155.637 120.565 155.637 128.587Z" fill="white"/>
<path fill-rule="evenodd" clip-rule="evenodd" d="M132.204 116.233C129.814 119.053 128.338 123.155 128.338 127.053C128.338 134.798 134.613 141.074 142.358 141.074C146.265 141.074 149.45 139.866 151.656 137.729C153.859 135.594 155.134 132.485 155.134 128.587C155.134 120.871 149.702 115.653 141.391 113.06L141.39 113.06C137.817 111.937 134.587 113.421 132.204 116.233ZM141.691 112.1C137.619 110.821 133.996 112.563 131.437 115.582C128.886 118.593 127.332 122.928 127.332 127.053C127.332 135.353 134.058 142.08 142.358 142.08C146.473 142.08 149.928 140.804 152.356 138.452C154.786 136.097 156.14 132.711 156.14 128.587C156.14 120.258 150.23 114.764 141.691 112.1Z" fill="#2C2C2C"/>
<path d="M149.111 126.248C149.111 132.184 145.225 135.855 139.29 135.855C133.355 135.855 128.551 131.052 128.551 125.117C128.551 119.182 133.028 112.63 138.699 114.403C144.911 116.365 149.111 120.326 149.111 126.248Z" fill="#2C2C2C"/>
<path d="M58.1846 128.587C58.1846 136.61 63.4407 141.577 71.4632 141.577C79.4857 141.577 85.9742 135.063 85.9742 127.053C85.9742 119.043 79.9133 110.178 72.268 112.58C63.8557 115.208 58.1846 120.565 58.1846 128.587Z" fill="white"/>
<path fill-rule="evenodd" clip-rule="evenodd" d="M82.3719 115.587C84.9231 118.599 86.4772 122.935 86.4772 127.053C86.4772 135.34 79.7644 142.08 71.4633 142.08C67.3479 142.08 63.8937 140.804 61.4655 138.452C59.0354 136.097 57.6816 132.712 57.6816 128.587C57.6816 120.259 63.5914 114.764 72.1177 112.1C76.1897 110.821 79.8133 112.566 82.3719 115.587ZM81.6043 116.237C79.2212 113.424 75.9919 111.937 72.4188 113.06L72.418 113.06C64.1199 115.652 58.6876 120.871 58.6876 128.587C58.6876 132.485 59.9619 135.594 62.1655 137.729C64.371 139.866 67.5561 141.074 71.4633 141.074C79.2071 141.074 85.4712 134.786 85.4712 127.053C85.4712 123.162 83.9948 119.06 81.6043 116.237Z" fill="#2C2C2C"/>
<path d="M64.7231 126.248C64.7231 132.184 68.6087 135.855 74.5438 135.855C80.479 135.855 85.2824 131.052 85.2824 125.117C85.2824 119.182 80.8059 112.63 75.1474 114.403C68.9104 116.365 64.7231 120.326 64.7231 126.248Z" fill="#2C2C2C"/>
<path d="M125.194 192.956C116.115 192.126 107.15 191.787 107.15 191.787C103.855 191.887 96.8386 192.176 89.5957 192.956C91.7082 200.174 98.8757 205.493 107.389 205.493C115.914 205.505 123.082 200.161 125.194 192.956Z" fill="#50BFD7"/>
<path d="M124.452 193.711C125.232 190.642 140.837 112.454 140.837 112.454C140.837 112.454 99.1899 100.156 72.5571 112.454L89.6333 194.39L124.452 193.711Z" fill="white"/>
<path fill-rule="evenodd" clip-rule="evenodd" d="M140.978 111.972C140.979 111.972 140.979 111.972 140.836 112.454C141.33 112.553 141.33 112.553 141.329 112.554L141.329 112.556L141.154 113.432C141.04 114.005 140.872 114.847 140.658 115.919C140.229 118.062 139.617 121.129 138.879 124.818C137.404 132.196 135.429 142.065 133.43 152.031C129.434 171.947 125.333 192.284 124.939 193.835L124.845 194.206L89.2258 194.901L71.9829 112.165L72.3461 111.998C85.7914 105.789 102.976 105.803 116.74 107.343C123.632 108.114 129.689 109.27 134.022 110.234C136.189 110.716 137.926 111.15 139.122 111.463C139.721 111.62 140.184 111.747 140.498 111.835C140.655 111.879 140.774 111.913 140.855 111.936C140.895 111.948 140.926 111.957 140.947 111.963L140.97 111.969L140.976 111.971L140.978 111.972ZM140.836 112.454L141.33 112.553L141.42 112.102L140.979 111.972L140.836 112.454ZM140.252 112.811C140.244 112.808 140.235 112.806 140.227 112.804C139.918 112.717 139.46 112.592 138.867 112.436C137.682 112.126 135.957 111.695 133.804 111.216C129.496 110.258 123.476 109.109 116.628 108.343C103.036 106.822 86.2657 106.822 73.1313 112.745L90.0403 193.879L124.051 193.215C124.763 190.019 128.644 170.77 132.443 151.833C134.443 141.868 136.418 131.999 137.893 124.621C138.63 120.932 139.243 117.865 139.671 115.721C139.885 114.65 140.053 113.808 140.168 113.235L140.252 112.811Z" fill="black"/>
<path d="M124.452 193.711C125.232 190.642 140.837 112.454 140.837 112.454C140.837 112.454 99.1899 100.156 72.5571 112.454L89.6333 194.39L124.452 193.711Z" fill="white"/>
<path fill-rule="evenodd" clip-rule="evenodd" d="M140.978 111.972C140.979 111.972 140.979 111.972 140.836 112.454C141.33 112.553 141.33 112.553 141.329 112.554L141.329 112.556L141.154 113.432C141.04 114.005 140.872 114.847 140.658 115.919C140.229 118.062 139.617 121.129 138.879 124.818C137.404 132.196 135.429 142.065 133.43 152.031C129.434 171.947 125.333 192.284 124.939 193.835L124.845 194.206L89.2258 194.901L71.9829 112.165L72.3461 111.998C85.7914 105.789 102.976 105.803 116.74 107.343C123.632 108.114 129.689 109.27 134.022 110.234C136.189 110.716 137.926 111.15 139.122 111.463C139.721 111.62 140.184 111.747 140.498 111.835C140.655 111.879 140.774 111.913 140.855 111.936C140.895 111.948 140.926 111.957 140.947 111.963L140.97 111.969L140.976 111.971L140.978 111.972ZM140.836 112.454L141.33 112.553L141.42 112.102L140.979 111.972L140.836 112.454ZM140.252 112.811C140.244 112.808 140.235 112.806 140.227 112.804C139.918 112.717 139.46 112.592 138.867 112.436C137.682 112.126 135.957 111.695 133.804 111.216C129.496 110.258 123.476 109.109 116.628 108.343C103.036 106.822 86.2657 106.822 73.1313 112.745L90.0403 193.879L124.051 193.215C124.763 190.019 128.644 170.77 132.443 151.833C134.443 141.868 136.418 131.999 137.893 124.621C138.63 120.932 139.243 117.865 139.671 115.721C139.885 114.65 140.053 113.808 140.168 113.235L140.252 112.811Z" fill="#2C2C2C"/>
<path d="M130.727 110.053C119.095 107.714 99.4289 105.048 82.5288 109.072C84.5282 121.684 86.5275 134.309 88.5268 146.921C90.1364 155.472 98.2469 161.168 106.71 161.218C115.172 161.168 123.283 155.484 124.892 146.921C126.829 134.623 128.778 122.338 130.727 110.053Z" fill="#50BFD7"/>
<path fill-rule="evenodd" clip-rule="evenodd" d="M82.4122 108.582C99.4229 104.532 119.179 107.217 130.826 109.559L131.299 109.655L131.222 110.139C129.274 122.422 127.325 134.704 125.389 146.999L125.388 147.006L125.386 147.014C123.725 155.852 115.375 161.67 106.712 161.721L106.709 161.721L106.706 161.721C98.0434 161.67 89.6936 155.839 88.0324 147.014L88.0311 147.007L88.03 147C87.0304 140.694 86.0308 134.386 85.0312 128.077L85.0309 128.075C84.0313 121.766 83.0316 115.457 82.0319 109.15L81.959 108.69L82.4122 108.582ZM83.0987 109.455C84.0739 115.606 85.049 121.761 86.0242 127.916L86.0245 127.918C87.0238 134.224 88.0231 140.531 89.0224 146.835C90.5832 155.106 98.4507 160.665 106.709 160.715C114.968 160.665 122.835 155.119 124.396 146.835C126.307 134.699 128.231 122.575 130.154 110.451C118.592 108.161 99.5594 105.663 83.0987 109.455Z" fill="#2C2C2C"/>
<path d="M105.263 114.517C109.237 114.517 115.411 113.309 115.411 109.348L114.392 96.1201L113.5 84.5516C113.5 80.5781 110.28 77.3716 106.319 77.3716C104.333 77.3716 102.547 78.1763 101.239 79.4715C99.9442 80.7667 99.1269 82.5648 99.1269 84.5516L98.2467 96.1327L97.4042 107.236C96.2725 113.938 105.263 114.517 105.263 114.517Z" fill="#2C2C2C"/>
<path d="M81.875 374.67C81.875 374.67 82.6169 377.021 82.8307 377.386C83.057 377.751 88.8287 379.738 95.8704 379.587C103.189 379.436 106.534 377.311 106.634 374.657H81.875V374.67Z" fill="#50BFD7"/>
<path fill-rule="evenodd" clip-rule="evenodd" d="M81.3716 374.155H107.156L107.136 374.677C107.077 376.247 106.049 377.577 104.183 378.51C102.326 379.439 99.5762 380.013 95.8804 380.09M81.3716 374.155V374.658V374.155ZM81.8746 374.67L81.3949 374.821L81.3716 374.748V374.658M81.8746 374.67C81.3949 374.821 81.3949 374.821 81.3949 374.821L81.4035 374.849C81.409 374.866 81.4172 374.892 81.4276 374.924C81.4485 374.99 81.4784 375.084 81.5151 375.197C81.5884 375.425 81.6884 375.732 81.7953 376.051C81.902 376.37 82.0165 376.703 82.1185 376.981C82.2132 377.24 82.3153 377.502 82.3963 377.641L82.3995 377.646L82.4029 377.651C82.4531 377.732 82.5154 377.787 82.5503 377.815C82.5911 377.848 82.6342 377.877 82.674 377.902C82.7538 377.95 82.8505 378 82.9564 378.049C83.1701 378.147 83.4585 378.26 83.8092 378.381C84.5124 378.623 85.4936 378.906 86.685 379.171C89.0675 379.701 92.3117 380.166 95.8804 380.09M82.5606 375.16H106.059C105.84 376.057 105.126 376.914 103.734 377.611C102.064 378.445 99.4821 379.009 95.8596 379.084L95.8592 379.084C92.3864 379.158 89.2239 378.705 86.9036 378.189C85.7436 377.931 84.7993 377.658 84.1367 377.429C83.8044 377.315 83.5497 377.214 83.377 377.135C83.3127 377.105 83.2646 377.081 83.2306 377.062C83.2196 377.037 83.207 377.008 83.193 376.974C83.1557 376.883 83.1117 376.768 83.063 376.635C82.9657 376.37 82.8547 376.047 82.7492 375.732C82.6819 375.531 82.6174 375.335 82.5606 375.16Z" fill="#2C2C2C"/>
<path d="M81.8874 375.173C82.994 376.166 84.44 376.921 85.4963 377.26C88.1244 378.128 91.0039 378.455 93.7577 378.606C96.6876 378.757 99.9066 378.706 102.648 377.55C104.132 376.921 105.389 376.003 106.559 374.959C107.087 373.664 107.225 372.193 107.187 370.684C107.099 367.968 106.483 365.34 106.005 362.674C105.93 362.284 105.867 361.907 105.804 361.53C105.666 359.794 105.54 358.046 105.427 356.324C105.389 355.682 105.314 355.117 105.326 354.475C105.339 354.048 105.49 353.356 105.377 352.954C105.364 352.904 105.339 352.866 105.326 352.828C105.326 352.765 105.339 352.702 105.326 352.639C104.836 352.237 104.32 351.86 103.729 351.696C103.302 351.772 102.874 351.91 102.598 352.023C102.157 352.199 101.768 352.426 101.416 352.69C100.548 351.508 98.4103 350.954 97.2031 350.904C95.317 350.829 92.8021 351.156 91.3057 352.539C91.0542 352.3 90.6644 352.174 90.3249 352.111C90.2494 352.099 90.1614 352.086 90.086 352.074C89.2058 352.413 89.4321 354.576 89.3441 355.192C89.2183 356.009 89.0926 356.827 88.8914 357.619C88.489 359.14 87.9106 360.536 87.0304 361.844C86.0873 363.252 84.855 364.472 83.7736 365.767C83.6227 366.031 83.4592 366.295 83.3083 366.547C82.1515 368.408 81.2084 371.111 81.4599 373.324C81.5228 374.029 81.6736 374.632 81.8874 375.173Z" fill="#50BFD7"/>
<path fill-rule="evenodd" clip-rule="evenodd" d="M93.9941 350.684C95.0991 350.427 96.246 350.362 97.2233 350.401L97.2241 350.401C97.8811 350.429 98.7689 350.59 99.6106 350.9C100.287 351.15 100.984 351.513 101.499 352.021C101.78 351.844 102.082 351.688 102.409 351.557C102.713 351.432 103.175 351.283 103.642 351.201L103.754 351.181L103.863 351.211C104.565 351.405 105.151 351.845 105.645 352.25L105.784 352.364L105.82 352.541C105.835 352.62 105.836 352.69 105.834 352.737C105.844 352.761 105.854 352.791 105.862 352.823C105.945 353.123 105.924 353.48 105.9 353.75C105.888 353.878 105.875 353.989 105.864 354.089C105.847 354.242 105.833 354.369 105.829 354.488C105.821 354.899 105.85 355.261 105.883 355.66C105.899 355.858 105.916 356.065 105.929 356.292C106.041 358.005 106.166 359.743 106.304 361.468C106.366 361.839 106.427 362.203 106.499 362.578L106.5 362.582L106.5 362.585C106.599 363.134 106.704 363.686 106.81 364.241C107.211 366.341 107.619 368.48 107.69 370.667L107.69 370.669L107.69 370.671C107.729 372.212 107.59 373.762 107.024 375.149L106.98 375.257L106.894 375.334C105.701 376.399 104.397 377.355 102.844 378.012L102.843 378.013C99.9894 379.217 96.6704 379.259 93.7319 379.108L93.7303 379.108C90.962 378.956 88.0311 378.626 85.3406 377.738C84.2232 377.379 82.7146 376.591 81.5515 375.547L81.4633 375.468L81.4197 375.358C81.1885 374.773 81.0269 374.124 80.9595 373.375C80.693 371.011 81.6909 368.197 82.8791 366.284C82.9234 366.211 82.9677 366.138 83.0118 366.065C83.1225 365.882 83.232 365.701 83.3369 365.517L83.359 365.479L83.3875 365.445C83.759 365 84.1358 364.576 84.5074 364.159C85.2611 363.312 85.9929 362.489 86.6125 361.564L86.6132 361.563C87.4558 360.311 88.0136 358.97 88.4046 357.493C88.5982 356.729 88.7204 355.938 88.8465 355.118C88.8618 355.009 88.865 354.816 88.8698 354.526C88.87 354.512 88.8703 354.498 88.8705 354.484C88.8754 354.19 88.883 353.833 88.9174 353.48C88.9514 353.132 89.0141 352.756 89.1441 352.431C89.2726 352.109 89.4988 351.761 89.905 351.604L90.0332 351.555L90.1687 351.577C90.2028 351.583 90.2404 351.589 90.282 351.595L90.2837 351.595C90.3234 351.602 90.3668 351.608 90.4076 351.615L90.4121 351.616L90.4165 351.617C90.667 351.663 90.9848 351.747 91.2759 351.905C92.0616 351.291 93.025 350.91 93.9941 350.684ZM94.2225 351.664C93.2209 351.898 92.3093 352.296 91.6472 352.908L91.301 353.228L90.9593 352.903C90.817 352.768 90.5489 352.665 90.2377 352.607C90.2236 352.604 90.2088 352.602 90.1934 352.599C90.1596 352.638 90.1194 352.701 90.0782 352.804C90.0003 352.999 89.9491 353.265 89.9186 353.578C89.8886 353.885 89.8812 354.206 89.8763 354.501C89.8759 354.527 89.8755 354.554 89.875 354.581C89.8711 354.83 89.8671 355.088 89.842 355.263L89.8417 355.266L89.8394 355.28C89.7149 356.09 89.5861 356.927 89.3789 357.743L89.3783 357.745L89.3777 357.747C88.9639 359.312 88.3652 360.761 87.448 362.124C86.7905 363.106 85.9793 364.019 85.2001 364.895C84.8507 365.288 84.5077 365.674 84.1879 366.056C84.0827 366.238 83.9712 366.423 83.8656 366.597C83.8224 366.668 83.7801 366.738 83.7397 366.805L83.7376 366.809L83.7355 366.812C82.6119 368.62 81.7257 371.208 81.9597 373.267L81.9604 373.274L81.9609 373.28C82.0152 373.888 82.1393 374.41 82.3129 374.878C83.3504 375.781 84.6833 376.47 85.6503 376.781L85.6521 376.782L85.654 376.782C88.2188 377.629 91.0459 377.953 93.7843 378.103C96.7051 378.254 99.8239 378.195 102.452 377.086C103.831 376.502 105.016 375.651 106.135 374.662C106.591 373.484 106.72 372.13 106.685 370.698C106.616 368.598 106.228 366.56 105.829 364.47C105.722 363.907 105.614 363.339 105.511 362.766C105.434 362.371 105.371 361.99 105.309 361.615L105.304 361.591L105.303 361.569C105.164 359.832 105.038 358.081 104.925 356.357L104.925 356.355L104.925 356.353C104.914 356.172 104.899 355.988 104.884 355.801C104.85 355.373 104.814 354.928 104.823 354.465L104.823 354.463L104.824 354.46C104.828 354.305 104.851 354.101 104.871 353.913C104.881 353.822 104.891 353.735 104.898 353.659C104.923 353.383 104.921 353.197 104.894 353.094C104.893 353.093 104.892 353.091 104.891 353.089L104.889 353.084C104.886 353.079 104.883 353.071 104.879 353.062C104.871 353.046 104.86 353.019 104.849 352.987L104.823 352.909V352.88C104.442 352.58 104.081 352.341 103.702 352.213C103.353 352.285 103.012 352.397 102.788 352.489L102.786 352.489L102.784 352.49C102.388 352.649 102.037 352.852 101.717 353.092L101.311 353.397L101.01 352.987C100.662 352.513 100.019 352.123 99.2629 351.844C98.5172 351.57 97.7327 351.43 97.1826 351.407C96.2739 351.37 95.2204 351.431 94.2225 351.664Z" fill="#2C2C2C"/>
<path d="M136.398 374.67C136.398 374.67 135.669 377.021 135.442 377.386C135.216 377.751 129.444 379.738 122.402 379.587C115.084 379.436 111.739 377.311 111.639 374.657H136.398V374.67Z" fill="#50BFD7"/>
<path fill-rule="evenodd" clip-rule="evenodd" d="M111.116 374.155H136.901V374.746L136.878 374.819L136.398 374.67C136.878 374.819 136.878 374.819 136.878 374.819L136.878 374.819L136.878 374.82L136.87 374.846C136.864 374.864 136.856 374.89 136.846 374.922C136.825 374.988 136.796 375.082 136.76 375.196C136.687 375.423 136.588 375.731 136.482 376.05C136.376 376.369 136.262 376.703 136.159 376.982C136.064 377.239 135.959 377.508 135.869 377.651C135.819 377.732 135.757 377.787 135.722 377.815C135.681 377.848 135.638 377.877 135.598 377.902C135.519 377.95 135.422 378 135.316 378.049C135.102 378.147 134.814 378.26 134.463 378.381C133.76 378.623 132.779 378.906 131.587 379.171C129.205 379.701 125.961 380.166 122.392 380.09M135.715 375.16H112.214C112.432 376.057 113.146 376.914 114.539 377.611C116.208 378.445 118.79 379.009 122.413 379.084L122.413 379.084C125.886 379.158 129.048 378.705 131.369 378.189C132.529 377.931 133.473 377.658 134.136 377.429C134.468 377.315 134.723 377.214 134.895 377.135C134.962 377.104 135.011 377.079 135.045 377.06C135.056 377.035 135.07 377.005 135.084 376.97C135.122 376.88 135.166 376.766 135.215 376.634C135.312 376.37 135.423 376.047 135.528 375.733C135.594 375.532 135.658 375.335 135.715 375.16ZM111.116 374.155L111.136 374.677L111.116 374.155ZM111.136 374.677C111.196 376.247 112.223 377.577 114.089 378.51L111.136 374.677ZM114.089 378.51C115.946 379.439 118.696 380.013 122.392 380.09L114.089 378.51Z" fill="#2C2C2C"/>
<path d="M136.385 375.173C135.279 376.166 133.833 376.921 132.776 377.26C130.148 378.128 127.269 378.455 124.515 378.606C121.585 378.757 118.366 378.706 115.625 377.55C114.141 376.921 112.884 376.003 111.714 374.959C111.186 373.664 111.048 372.193 111.085 370.684C111.173 367.968 111.79 365.34 112.267 362.674C112.343 362.284 112.406 361.907 112.469 361.53C112.607 359.794 112.733 358.046 112.846 356.324C112.896 355.682 112.959 355.117 112.946 354.475C112.934 354.048 112.783 353.356 112.896 352.954C112.909 352.904 112.934 352.866 112.946 352.828C112.946 352.765 112.934 352.702 112.946 352.639C113.437 352.237 113.94 351.86 114.543 351.696C114.971 351.772 115.398 351.91 115.675 352.023C116.115 352.199 116.505 352.426 116.857 352.69C117.725 351.508 119.862 350.954 121.07 350.904C122.956 350.829 125.471 351.156 126.967 352.539C127.218 352.3 127.608 352.174 127.948 352.111C128.023 352.099 128.111 352.086 128.187 352.074C129.067 352.413 128.841 354.576 128.929 355.192C129.054 356.009 129.18 356.827 129.381 357.619C129.784 359.14 130.362 360.536 131.242 361.844C132.185 363.252 133.418 364.472 134.499 365.767C134.65 366.031 134.813 366.295 134.964 366.547C136.121 368.408 137.064 371.111 136.813 373.324C136.75 374.029 136.599 374.632 136.385 375.173Z" fill="#50BFD7"/>
<path fill-rule="evenodd" clip-rule="evenodd" d="M124.05 351.664C123.052 351.431 121.999 351.37 121.09 351.407C120.54 351.43 119.756 351.57 119.01 351.844C118.253 352.123 117.611 352.513 117.263 352.987L116.962 353.397L116.555 353.092C116.236 352.852 115.885 352.649 115.488 352.49L115.487 352.489L115.485 352.489C115.26 352.397 114.918 352.284 114.57 352.213C114.184 352.34 113.831 352.577 113.449 352.88V352.909L113.424 352.987C113.413 353.019 113.401 353.046 113.394 353.062C113.39 353.071 113.386 353.079 113.384 353.084C113.382 353.089 113.38 353.092 113.379 353.094C113.352 353.197 113.35 353.383 113.375 353.659C113.382 353.735 113.392 353.822 113.402 353.913C113.422 354.101 113.445 354.305 113.449 354.46L113.449 354.463L113.449 354.465C113.46 355.015 113.418 355.517 113.375 356.021C113.366 356.133 113.356 356.246 113.348 356.36C113.234 358.084 113.108 359.833 112.97 361.569L112.968 361.591L112.964 361.615C112.902 361.989 112.838 362.371 112.762 362.766C112.659 363.339 112.551 363.907 112.444 364.47C112.045 366.56 111.656 368.598 111.588 370.698C111.553 372.13 111.681 373.484 112.137 374.662C113.257 375.651 114.442 376.502 115.821 377.086C118.449 378.195 121.568 378.254 124.489 378.103C127.227 377.953 130.054 377.629 132.619 376.782L132.621 376.782L132.623 376.781C133.589 376.47 134.922 375.781 135.96 374.878C136.133 374.41 136.258 373.888 136.312 373.28L136.312 373.274L136.313 373.267C136.547 371.208 135.661 368.62 134.537 366.812L134.535 366.809L134.533 366.805C134.493 366.738 134.45 366.668 134.407 366.597C134.302 366.423 134.19 366.238 134.085 366.056C133.765 365.674 133.422 365.288 133.073 364.895C132.293 364.019 131.482 363.106 130.825 362.124C129.908 360.761 129.309 359.312 128.895 357.747L128.894 357.745L128.894 357.743C128.687 356.927 128.558 356.09 128.433 355.28L128.431 355.266L128.431 355.263C128.406 355.088 128.402 354.83 128.398 354.581C128.397 354.554 128.397 354.527 128.396 354.501C128.392 354.206 128.384 353.885 128.354 353.578C128.324 353.265 128.272 352.999 128.195 352.804C128.153 352.701 128.113 352.638 128.079 352.599C128.064 352.602 128.049 352.604 128.035 352.607C127.724 352.665 127.456 352.768 127.313 352.903L126.972 353.228L126.626 352.908C125.963 352.296 125.052 351.898 124.05 351.664ZM126.997 351.905C126.211 351.291 125.248 350.91 124.279 350.684C123.174 350.427 122.027 350.362 121.049 350.401L121.049 350.401C120.392 350.429 119.504 350.59 118.662 350.9C117.985 351.15 117.289 351.513 116.774 352.021C116.493 351.844 116.191 351.688 115.864 351.557C115.559 351.433 115.098 351.283 114.631 351.201L114.52 351.181L114.412 351.211C113.694 351.405 113.119 351.847 112.627 352.25L112.489 352.364L112.453 352.541C112.437 352.62 112.437 352.69 112.438 352.737C112.429 352.761 112.419 352.791 112.41 352.823C112.328 353.123 112.349 353.48 112.373 353.75C112.385 353.878 112.397 353.989 112.409 354.089C112.426 354.242 112.44 354.369 112.444 354.488C112.453 354.979 112.416 355.419 112.375 355.918C112.365 356.036 112.354 356.158 112.344 356.284L112.344 356.287L112.344 356.291C112.231 358.004 112.106 359.742 111.969 361.468C111.907 361.839 111.846 362.203 111.774 362.578L111.773 362.582L111.772 362.585C111.674 363.134 111.569 363.686 111.463 364.241C111.062 366.341 110.654 368.48 110.583 370.667L110.583 370.669L110.583 370.671C110.544 372.212 110.683 373.762 111.248 375.149L111.292 375.257L111.379 375.334C112.572 376.399 113.876 377.355 115.429 378.012L115.429 378.013C118.283 379.217 121.602 379.259 124.541 379.108L124.543 379.108C127.311 378.956 130.242 378.626 132.932 377.738C134.05 377.379 135.558 376.591 136.721 375.547L136.81 375.468L136.853 375.358C137.084 374.773 137.246 374.124 137.313 373.375C137.58 371.011 136.582 368.197 135.394 366.285C135.349 366.211 135.305 366.138 135.261 366.065C135.15 365.882 135.041 365.701 134.936 365.517L134.914 365.479L134.885 365.445C134.514 365 134.137 364.576 133.765 364.159C133.012 363.312 132.28 362.489 131.66 361.564L131.66 361.563C130.817 360.311 130.259 358.97 129.868 357.493C129.675 356.729 129.552 355.938 129.426 355.118C129.411 355.009 129.408 354.816 129.403 354.526L129.402 354.484C129.397 354.19 129.39 353.833 129.355 353.48C129.321 353.132 129.259 352.756 129.129 352.431C129 352.109 128.774 351.761 128.368 351.604L128.24 351.555L128.104 351.577C128.07 351.583 128.032 351.589 127.991 351.595L127.989 351.595C127.949 351.601 127.906 351.608 127.865 351.615L127.861 351.616L127.856 351.617C127.606 351.663 127.288 351.747 126.997 351.905ZM112.476 352.65C112.476 352.65 112.476 352.65 112.476 352.65V352.65Z" fill="#2C2C2C"/>
<path d="M111.513 123.872H101.856C99.2905 123.872 97.2031 125.959 97.2031 128.524V138.182C97.2031 140.747 99.2905 142.834 101.856 142.834H111.513C114.078 142.834 116.165 140.747 116.165 138.182V128.524C116.165 125.959 114.091 123.872 111.513 123.872ZM94.638 119.76C93.1667 119.76 91.9722 120.955 91.9722 122.426C91.9722 123.897 93.1667 125.092 94.638 125.092C96.1092 125.092 97.3037 123.897 97.3037 122.426C97.3037 120.955 96.1092 119.76 94.638 119.76Z" fill="white"/>
<path d="M110.834 129.631C110.218 127.984 108.646 126.89 106.885 126.89H104.27L109.438 139.992H114.983L110.834 129.631ZM100.271 136.233L98.7622 139.992H104.27L106.835 133.491H104.22C102.459 133.491 100.887 134.585 100.271 136.233ZM101.126 130.147C102.032 130.147 102.773 129.405 102.773 128.499C102.773 127.594 102.032 126.852 101.126 126.852C100.221 126.852 99.479 127.594 99.479 128.499C99.479 129.405 100.221 130.147 101.126 130.147Z" fill="#50BFD7"/>
<path fill-rule="evenodd" clip-rule="evenodd" d="M111.193 87.9665C105.702 84.6658 101.263 86.6258 99.8138 87.8843C99.4779 88.1759 98.9693 88.1401 98.6777 87.8043C98.3861 87.4684 98.422 86.9598 98.7578 86.6682C100.669 85.0088 105.864 82.8836 112.023 86.5861C112.404 86.8152 112.527 87.31 112.298 87.6912C112.069 88.0723 111.574 88.1956 111.193 87.9665Z" fill="#2C2C2C"/>
<path d="M127.108 11.3081C121.704 4.6636 114.155 0.65625 104.46 0.65625C82.5098 0.65625 61.064 20.8999 61.064 46.1333C61.064 71.3667 78.8514 91.83 100.801 91.83C102.908 91.83 104.951 91.6361 106.929 91.2871C107.136 92.3988 107.252 93.5364 107.252 94.7127C107.252 94.9195 107.239 95.1393 107.239 95.3461C167.724 80.6611 157.822 7.57217 127.108 11.3081Z" fill="#2C2C2C"/>
<path d="M76.2016 76.3694C80.8065 76.3694 84.5395 72.6364 84.5395 68.0315C84.5395 63.4266 80.8065 59.6936 76.2016 59.6936C71.5968 59.6936 67.8638 63.4266 67.8638 68.0315C67.8638 72.6364 71.5968 76.3694 76.2016 76.3694Z" fill="white"/>
<path fill-rule="evenodd" clip-rule="evenodd" d="M76.2011 60.2107C71.8818 60.2107 68.3803 63.7122 68.3803 68.0315C68.3803 72.3508 71.8818 75.8523 76.2011 75.8523C80.5205 75.8523 84.0219 72.3508 84.0219 68.0315C84.0219 63.7122 80.5205 60.2107 76.2011 60.2107ZM67.3462 68.0315C67.3462 63.141 71.3107 59.1765 76.2011 59.1765C81.0916 59.1765 85.0561 63.141 85.0561 68.0315C85.0561 72.9219 81.0916 76.8864 76.2011 76.8864C71.3107 76.8864 67.3462 72.9219 67.3462 68.0315Z" fill="#2C2C2C"/>
<path d="M134.916 76.3694C139.52 76.3694 143.253 72.6364 143.253 68.0315C143.253 63.4266 139.52 59.6936 134.916 59.6936C130.311 59.6936 126.578 63.4266 126.578 68.0315C126.578 72.6364 130.311 76.3694 134.916 76.3694Z" fill="white"/>
<path fill-rule="evenodd" clip-rule="evenodd" d="M134.916 60.2107C130.596 60.2107 127.095 63.7122 127.095 68.0315C127.095 72.3508 130.596 75.8523 134.916 75.8523C139.235 75.8523 142.736 72.3508 142.736 68.0315C142.736 63.7122 139.235 60.2107 134.916 60.2107ZM126.061 68.0315C126.061 63.141 130.025 59.1765 134.916 59.1765C139.806 59.1765 143.77 63.141 143.77 68.0315C143.77 72.9219 139.806 76.8864 134.916 76.8864C130.025 76.8864 126.061 72.9219 126.061 68.0315Z" fill="#2C2C2C"/>
<path d="M106.347 102.818C124.245 102.818 138.755 82.2778 138.755 56.9402C138.755 31.6027 124.245 11.0625 106.347 11.0625C88.4485 11.0625 73.939 31.6027 73.939 56.9402C73.939 82.2778 88.4485 102.818 106.347 102.818Z" fill="white"/>
<path fill-rule="evenodd" clip-rule="evenodd" d="M83.8533 24.7981C78.0573 33.0032 74.456 44.3655 74.456 56.9402C74.456 69.5149 78.0573 80.8772 83.8533 89.0823C89.6503 97.2888 97.6106 102.301 106.347 102.301C115.083 102.301 123.043 97.2888 128.84 89.0823C134.636 80.8772 138.238 69.5149 138.238 56.9402C138.238 44.3655 134.636 33.0032 128.84 24.7981C123.043 16.5917 115.083 11.5796 106.347 11.5796C97.6106 11.5796 89.6503 16.5917 83.8533 24.7981ZM83.0087 24.2014C88.941 15.8034 97.1847 10.5454 106.347 10.5454C115.509 10.5454 123.753 15.8034 129.685 24.2014C135.618 32.6008 139.272 44.1773 139.272 56.9402C139.272 69.7031 135.618 81.2796 129.685 89.679C123.753 98.077 115.509 103.335 106.347 103.335C97.1847 103.335 88.941 98.077 83.0087 89.679C77.0754 81.2796 73.4219 69.7031 73.4219 56.9402C73.4219 44.1773 77.0754 32.6008 83.0087 24.2014Z" fill="#2C2C2C"/>
<path d="M69.208 46.7668C69.208 46.7668 96.7941 48.1112 105.985 31.513C105.985 31.513 125.944 48.7834 144.999 47.439L143.202 39.8121L135.808 25.2305L131.322 19.8529L122.131 10.2094L109.799 5.05151L94.9973 7.06812L75.2578 20.5251L72.7888 29.4964L69.208 46.7668Z" fill="#2C2C2C"/>
<path d="M107.135 74.8698C107.148 74.9474 106.98 75.0896 106.605 75.0896C106.243 75.1025 105.688 74.9345 105.196 74.4691C104.951 74.2364 104.731 73.952 104.563 73.5901C104.537 73.5384 104.524 73.4867 104.498 73.435L104.472 73.3574L104.447 73.2928L104.408 73.1764C104.395 73.1247 104.382 73.0601 104.356 73.0084C104.304 72.8145 104.266 72.6076 104.253 72.3879C104.175 71.5347 104.343 70.6686 104.55 69.8413C105.351 66.532 106.295 63.9337 106.644 64.0112C106.993 64.1017 106.631 66.8422 105.83 70.1515C105.623 70.9659 105.468 71.7027 105.468 72.3232C105.468 72.4784 105.481 72.6335 105.494 72.7757L105.507 72.8274V72.8532V72.8662V72.8791C105.507 72.8791 105.494 72.8403 105.507 72.8532L105.532 72.9825L105.545 73.0472L105.558 73.0859L105.584 73.1635C105.662 73.4091 105.778 73.6418 105.907 73.8228C106.166 74.1977 106.476 74.4303 106.722 74.5596C106.954 74.7276 107.122 74.7794 107.135 74.8698Z" fill="#2C2C2C"/>
<path d="M97.9188 59.3705C97.9188 63.0547 94.7259 66.0408 90.7961 66.0408C86.8534 66.0408 83.6733 63.0547 83.6733 59.3705C83.6733 55.6863 86.8663 52.7002 90.7961 52.7002C94.713 52.7002 97.9188 55.6863 97.9188 59.3705Z" fill="white"/>
<path fill-rule="evenodd" clip-rule="evenodd" d="M90.7961 53.2173C87.1192 53.2173 84.1904 56.0035 84.1904 59.3705C84.1904 62.738 87.1069 65.5237 90.7961 65.5237C94.473 65.5237 97.4017 62.7375 97.4017 59.3705C97.4017 56.0041 94.4607 53.2173 90.7961 53.2173ZM83.1562 59.3705C83.1562 55.3691 86.6134 52.1831 90.7961 52.1831C94.9652 52.1831 98.4359 55.3685 98.4359 59.3705C98.4359 63.3719 94.9788 66.5579 90.7961 66.5579C86.5999 66.5579 83.1562 63.3713 83.1562 59.3705Z" fill="#2C2C2C"/>
<path d="M87.293 58.9569C87.293 61.9947 89.2708 64.4638 91.7011 64.4638C94.1313 64.4638 96.1091 61.9947 96.1091 58.9569C96.1091 55.919 94.1313 53.45 91.7011 53.45C89.2708 53.4371 87.293 55.9061 87.293 58.9569Z" fill="#50BFD7"/>
<path d="M88.5728 58.9569C88.5728 61.1157 89.9689 62.8608 91.7011 62.8608C93.4333 62.8608 94.8294 61.1157 94.8294 58.9569C94.8294 56.7981 93.4333 55.04 91.7011 55.04C89.9689 55.04 88.5728 56.7852 88.5728 58.9569Z" fill="#2C2C2C"/>
<path d="M88.3784 55.2468C88.3784 55.8414 89.1023 56.3068 89.9943 56.3068C90.8862 56.3068 91.6102 55.8285 91.6102 55.2468C91.6102 54.6522 90.8862 54.1868 89.9943 54.1868C89.1023 54.1739 88.3784 54.6522 88.3784 55.2468Z" fill="white"/>
<path d="M99.948 49.1709C99.948 49.1709 90.3303 39.5791 79.9888 50.9678C79.9888 50.9678 88.9342 45.2411 99.948 49.1709Z" fill="#2C2C2C"/>
<path d="M128.905 59.3705C128.905 63.0547 125.712 66.0408 121.782 66.0408C117.839 66.0408 114.659 63.0547 114.659 59.3705C114.659 55.6863 117.852 52.7002 121.782 52.7002C125.712 52.7002 128.905 55.6863 128.905 59.3705Z" fill="white"/>
<path fill-rule="evenodd" clip-rule="evenodd" d="M121.782 53.2173C118.105 53.2173 115.176 56.0035 115.176 59.3705C115.176 62.738 118.093 65.5237 121.782 65.5237C125.459 65.5237 128.388 62.7375 128.388 59.3705C128.388 56.0035 125.459 53.2173 121.782 53.2173ZM114.142 59.3705C114.142 55.3691 117.599 52.1831 121.782 52.1831C125.965 52.1831 129.422 55.3691 129.422 59.3705C129.422 63.3719 125.965 66.5579 121.782 66.5579C117.586 66.5579 114.142 63.3713 114.142 59.3705Z" fill="#2C2C2C"/>
<path d="M118.292 58.9569C118.292 61.9947 120.269 64.4638 122.7 64.4638C125.13 64.4638 127.108 61.9947 127.108 58.9569C127.108 55.919 125.13 53.45 122.7 53.45C120.256 53.4371 118.292 55.9061 118.292 58.9569Z" fill="#50BFD7"/>
<path d="M119.558 58.9569C119.558 61.1157 120.954 62.8608 122.686 62.8608C124.419 62.8608 125.815 61.1157 125.815 58.9569C125.815 56.7981 124.419 55.04 122.686 55.04C120.967 55.04 119.558 56.7852 119.558 58.9569Z" fill="#2C2C2C"/>
<path d="M119.364 55.2468C119.364 55.8414 120.088 56.3068 120.98 56.3068C121.872 56.3068 122.596 55.8285 122.596 55.2468C122.596 54.6522 121.872 54.1868 120.98 54.1868C120.088 54.1739 119.364 54.6522 119.364 55.2468Z" fill="white"/>
<path d="M130.947 48.1241C130.947 48.1241 121.329 38.5323 110.988 49.9209C110.975 49.9209 119.92 44.1943 130.947 48.1241Z" fill="#2C2C2C"/>
<path fill-rule="evenodd" clip-rule="evenodd" d="M73.2929 54.51V54.7685H72.2588V54.51H73.2929Z" fill="#2C2C2C"/>
<path fill-rule="evenodd" clip-rule="evenodd" d="M78.7221 57.3538V57.6123H77.688V57.3538H78.7221Z" fill="#2C2C2C"/>
<path d="M108.118 55.8284C109.889 56.2033 109.23 57.3538 109.23 57.5218C109.23 57.6899 109.889 67.2558 118.434 69.7766C126.978 72.2973 132.098 67.3463 133.584 64.8643C135.071 62.3824 136.312 56.4877 136.674 56.0352C137.049 55.5828 138.82 54.7942 138.82 54.7942L139.026 52.4803L136.803 51.821C136.803 51.821 131.193 49.2615 122.932 49.1452C114.685 49.0159 110.018 53.773 110.018 53.773C107.691 53.0362 104.809 52.9328 102.172 53.773C102.172 53.773 97.505 49.0288 89.2576 49.1452C81.0102 49.2744 75.387 51.821 75.387 51.821L73.1636 52.4803L73.3704 54.7942C73.3704 54.7942 75.1414 55.5828 75.5163 56.0352C75.8912 56.4877 77.1192 62.3953 78.6058 64.8643C80.0924 67.3463 85.2115 72.2973 93.7562 69.7766C102.301 67.2558 102.96 57.6899 102.96 57.5218C102.96 57.3538 102.301 56.2033 104.072 55.8284C105.623 55.5052 106.58 55.5052 108.118 55.8284ZM128.633 67.7987C122.118 71.7156 114.31 67.76 111.957 62.6021C109.605 57.4443 111.582 54.7167 111.582 54.7167C115.512 48.3049 131.387 48.0334 134.114 54.9623C134.579 56.1257 135.148 63.8819 128.633 67.7987ZM78.0758 54.9623C80.8034 48.0205 96.6777 48.3049 100.607 54.7167C100.607 54.7167 102.585 57.4443 100.233 62.6021C97.8799 67.76 90.085 71.7156 83.5569 67.7987C77.0546 63.8819 77.6234 56.1257 78.0758 54.9623Z" fill="#2C2C2C"/>
<path fill-rule="evenodd" clip-rule="evenodd" d="M111.193 87.9665C105.702 84.6658 101.263 86.6258 99.8138 87.8843C99.4779 88.1759 98.9693 88.1401 98.6777 87.8043C98.3861 87.4684 98.422 86.9598 98.7578 86.6682C100.669 85.0088 105.864 82.8836 112.023 86.5861C112.404 86.8152 112.527 87.31 112.298 87.6912C112.069 88.0723 111.574 88.1956 111.193 87.9665Z" fill="#2C2C2C"/>
</svg>
