<svg width="466" height="382" viewBox="0 0 466 382" fill="none" xmlns="http://www.w3.org/2000/svg">
<path d="M445.705 189.564C450.458 157.807 446.342 125.668 426.54 98.2439C403.844 66.8558 367.894 44.6749 329.678 38.382C322.87 37.2534 315.983 36.6598 309.082 36.6067C292.609 36.4947 276.231 39.1046 260.609 44.3313C234.235 53.2393 211.564 68.7584 191.063 87.2807C181.958 95.5015 173.069 106.051 161.011 109.869C148.495 113.865 135.032 108.724 122.834 105.58C99.9721 99.6883 66.4143 86.9625 43.6352 99.052C13.7296 114.959 4.8216 149.955 16.2748 177.315C27.728 204.676 62.7238 206.585 66.5415 227.582C70.3592 248.58 88.8116 279.758 128.898 276.576C168.984 273.395 184.255 239.035 209.706 249.216C218.659 252.798 225.69 259.397 233.306 265.066C243.913 272.981 255.417 278.371 268.474 280.852C287.142 284.403 307.529 282.526 326.376 281.622C348.01 280.579 371.285 281.374 392.289 273.815C414.839 265.689 429.079 247.886 436.721 225.565C440.796 213.861 443.803 201.811 445.705 189.564Z" fill="#CAECF3"/>
<path d="M282.381 270.605H386.371C388.358 270.605 390.264 269.816 391.669 268.411C393.074 267.005 393.863 265.1 393.863 263.113V70.7169C393.863 68.7299 393.074 66.8243 391.669 65.4192C390.264 64.0142 388.358 63.2249 386.371 63.2249H85.4901C83.5031 63.2249 81.5974 64.0142 80.1924 65.4192C78.7874 66.8243 77.998 68.7299 77.998 70.7169V263.113C77.998 265.1 78.7874 267.005 80.1924 268.411C81.5974 269.816 83.5031 270.605 85.4901 270.605H189.48" stroke="black" stroke-linecap="round" stroke-linejoin="round"/>
<path d="M386.673 71.616H84.5938V248.428H386.673V71.616Z" stroke="black" stroke-linecap="round" stroke-linejoin="round"/>
<path d="M282.383 270.605H189.481V291.553H282.383V270.605Z" stroke="black" stroke-linecap="round" stroke-linejoin="round"/>
<path d="M282.384 291.553H298.566V299.548H173.299V291.553H189.482" stroke="black" stroke-linecap="round" stroke-linejoin="round"/>
<path d="M53.9111 299.549H40.7251" stroke="#2C2C2C" stroke-width="0.75" stroke-miterlimit="10" stroke-linecap="round"/>
<path d="M387.755 299.549H61.1016" stroke="#2C2C2C" stroke-width="0.75" stroke-miterlimit="10" stroke-linecap="round"/>
<path d="M412.929 299.549H391.952" stroke="#2C2C2C" stroke-width="0.75" stroke-miterlimit="10" stroke-linecap="round"/>
<path d="M401.785 231.113L411.06 216.831L354.872 180.343L345.598 194.624L401.785 231.113Z" fill="#C7C7C7"/>
<path d="M447.395 265.927L461.42 244.327L403.224 206.526L389.199 228.127L447.395 265.927Z" fill="#2C2C2C"/>
<path d="M355.409 142.417L355.434 142.81L355.475 143.411C355.528 144.156 355.578 144.888 355.596 145.602C355.656 145.826 355.614 146.064 355.608 146.292C355.707 149.872 355.504 153.454 355.002 157C354.969 157.275 354.936 157.55 354.888 157.816C354.241 162.112 353.169 166.334 351.687 170.418L351.502 170.92C348.193 179.812 343.022 187.893 336.336 194.624L335.897 195.074C331.955 198.957 327.548 202.338 322.776 205.141L320.975 206.17C315.159 209.355 308.891 211.636 302.388 212.934L301.941 213.054C299.225 213.579 296.479 213.937 293.72 214.125C292.831 214.19 291.937 214.23 291.085 214.232C290.233 214.233 289.507 214.255 288.721 214.253C281.554 214.214 274.442 213.002 267.667 210.667C267.316 210.548 266.936 210.423 266.578 210.279C265.194 209.785 263.834 209.23 262.488 208.632L261.79 208.313C256.471 205.893 251.498 202.774 247.002 199.04L246.37 198.517C246.098 198.297 245.835 198.062 245.575 197.838C241.085 193.916 237.138 189.412 233.838 184.446C233.595 184.085 233.364 183.721 233.12 183.307C231.762 181.165 230.524 178.95 229.411 176.671C229.351 176.447 229.22 176.256 229.11 176.046C225.613 168.567 223.539 160.504 222.992 152.266L222.939 151.375L222.912 150.677C222.377 138.989 224.968 127.37 230.417 117.016C232.862 112.39 235.836 108.063 239.278 104.122C240.565 102.694 241.913 101.299 243.323 99.9359C250.776 92.8043 259.787 87.5053 269.642 84.4583C279.498 81.4113 289.927 80.6999 300.104 82.3805C310.282 84.0611 319.929 88.0875 328.282 94.141C336.634 100.195 343.463 108.109 348.228 117.258C348.297 117.37 348.356 117.488 348.402 117.611C352.349 125.337 354.73 133.768 355.409 142.417Z" fill="white"/>
<path d="M322.774 205.142L320.973 206.17L291.033 214.193C290.241 214.218 289.455 214.216 288.668 214.214L301.8 210.695L322.774 205.142Z" fill="#EBEBEB"/>
<path d="M327.296 149.963C327.456 150.56 327.436 151.191 327.237 151.777C327.038 152.362 326.67 152.875 326.18 153.251C325.69 153.628 325.099 153.85 324.482 153.891C323.865 153.931 323.25 153.788 322.715 153.479C322.179 153.17 321.748 152.709 321.474 152.154C321.201 151.6 321.098 150.977 321.179 150.364C321.26 149.751 321.52 149.176 321.928 148.711C322.335 148.247 322.871 147.913 323.469 147.753C323.865 147.647 324.278 147.62 324.685 147.673C325.092 147.727 325.485 147.86 325.84 148.065C326.196 148.271 326.507 148.544 326.757 148.869C327.007 149.195 327.19 149.567 327.296 149.963Z" fill="white"/>
<path d="M331.951 167.33C332.111 167.927 332.09 168.558 331.891 169.144C331.693 169.729 331.325 170.242 330.834 170.618C330.344 170.995 329.753 171.217 329.136 171.258C328.519 171.298 327.904 171.155 327.369 170.846C326.834 170.536 326.402 170.076 326.129 169.521C325.855 168.967 325.752 168.344 325.833 167.731C325.914 167.118 326.174 166.543 326.582 166.078C326.99 165.613 327.526 165.28 328.123 165.12C328.923 164.906 329.777 165.018 330.494 165.432C331.212 165.847 331.736 166.529 331.951 167.33Z" fill="white"/>
<path d="M294.447 225.288C279.13 226.328 263.849 222.802 250.536 215.155C237.224 207.509 226.478 196.086 219.659 182.331C212.84 168.577 210.254 153.109 212.227 137.884C214.201 122.659 220.645 108.362 230.746 96.8005C240.847 85.2391 254.149 76.9333 268.971 72.9337C283.793 68.9341 299.469 69.4205 314.014 74.3313C328.56 79.2422 341.322 88.3568 350.686 100.522C360.051 112.688 365.597 127.357 366.622 142.675C367.976 163.194 361.139 183.413 347.609 198.899C334.08 214.385 314.962 223.875 294.447 225.288ZM293.851 216.407C307.407 215.495 320.387 210.584 331.151 202.295C341.915 194.006 349.98 182.712 354.326 169.84C358.671 156.968 359.102 143.096 355.564 129.979C352.026 116.862 344.678 105.089 334.449 96.1479C324.22 87.2069 311.57 81.4998 298.097 79.7483C284.625 77.9967 270.936 80.2794 258.761 86.3076C246.586 92.3358 236.471 101.839 229.697 113.615C222.923 125.391 219.792 138.912 220.702 152.467C221.938 170.641 230.336 187.581 244.05 199.568C257.765 211.556 275.676 217.612 293.851 216.407Z" fill="#37474F"/>
<path d="M351.492 113.64C347.473 106.38 342.22 99.876 335.969 94.4182C321.79 82.0277 303.269 75.7773 284.482 77.0421C265.694 78.3069 248.179 86.9831 235.788 101.162C223.398 115.341 217.147 133.862 218.412 152.649C219.677 171.437 228.353 188.952 242.532 201.343C253.1 210.595 266.176 216.503 280.104 218.319C294.032 220.136 308.186 217.778 320.773 211.545C333.36 205.313 343.815 195.485 350.814 183.307C357.812 171.128 361.039 157.147 360.087 143.134C359.427 132.79 356.492 122.719 351.492 113.64ZM355.475 143.411C356.523 158.757 352.218 173.991 343.292 186.517C334.366 199.043 321.372 208.086 306.524 212.104C291.677 216.122 275.896 214.867 261.871 208.551C247.846 202.236 236.445 191.253 229.612 177.472C222.779 163.692 220.936 147.969 224.399 132.982C227.861 117.996 236.413 104.674 248.599 95.2875C260.784 85.901 275.847 81.031 291.221 81.5077C306.595 81.9843 321.327 87.7781 332.908 97.9015C346.161 109.483 354.281 125.848 355.487 143.408L355.475 143.411ZM351.492 113.64C347.473 106.38 342.22 99.876 335.969 94.4182C321.79 82.0277 303.269 75.7773 284.482 77.0421C265.694 78.3069 248.179 86.9831 235.788 101.162C223.398 115.341 217.147 133.862 218.412 152.649C219.677 171.437 228.353 188.952 242.532 201.343C253.1 210.595 266.176 216.503 280.104 218.319C294.032 220.136 308.186 217.778 320.773 211.545C333.36 205.313 343.815 195.485 350.814 183.307C357.812 171.128 361.039 157.147 360.087 143.134C359.427 132.79 356.492 122.719 351.492 113.64ZM355.475 143.411C356.523 158.757 352.218 173.991 343.292 186.517C334.366 199.043 321.372 208.086 306.524 212.104C291.677 216.122 275.896 214.867 261.871 208.551C247.846 202.236 236.445 191.253 229.612 177.472C222.779 163.692 220.936 147.969 224.399 132.982C227.861 117.996 236.413 104.674 248.599 95.2875C260.784 85.901 275.847 81.031 291.221 81.5077C306.595 81.9843 321.327 87.7781 332.908 97.9015C346.161 109.483 354.281 125.848 355.487 143.408L355.475 143.411ZM359.266 109.36C349.79 92.1127 334.28 78.9708 315.711 72.4551C297.142 65.9393 276.82 66.5084 258.645 74.0532C240.469 81.598 225.719 95.5873 217.223 113.338C208.727 131.089 207.083 151.351 212.607 170.239C218.131 189.127 230.434 205.311 247.156 215.687C263.878 226.063 283.841 229.899 303.218 226.462C322.595 223.024 340.02 212.554 352.152 197.059C364.284 181.565 370.269 162.137 368.959 142.501C368.191 130.879 364.887 119.565 359.279 109.357L359.266 109.36ZM364.356 142.816C365.606 161.332 359.976 179.658 348.545 194.279C337.115 208.899 320.689 218.785 302.418 222.039C284.147 225.294 265.317 221.688 249.542 211.913C233.766 202.139 222.154 186.884 216.934 169.074C211.714 151.265 213.253 132.156 221.256 115.411C229.259 98.6668 243.162 85.4666 260.299 78.3426C277.435 71.2186 296.599 70.6725 314.114 76.8089C331.628 82.9453 346.261 95.3322 355.204 111.594C360.51 121.202 363.639 131.86 364.368 142.812L364.356 142.816ZM335.969 94.4182C321.79 82.0277 303.269 75.7773 284.482 77.0421C265.694 78.3069 248.179 86.9831 235.788 101.162C223.398 115.341 217.147 133.862 218.412 152.649C219.677 171.437 228.353 188.952 242.532 201.343C253.1 210.595 266.176 216.503 280.104 218.319C294.032 220.136 308.186 217.778 320.773 211.545C333.36 205.313 343.815 195.485 350.814 183.307C357.812 171.128 361.039 157.147 360.087 143.134C359.42 132.804 356.485 122.748 351.49 113.681C347.475 106.407 342.223 99.8883 335.969 94.4182ZM355.487 143.408C356.536 158.753 352.23 173.988 343.304 186.514C334.378 199.04 321.384 208.083 306.537 212.101C291.69 216.119 275.908 214.863 261.883 208.548C247.858 202.233 236.458 191.249 229.624 177.469C222.791 163.689 220.949 147.966 224.411 132.979C227.873 117.993 236.426 104.671 248.611 95.2842C260.796 85.8977 275.859 81.0277 291.233 81.5044C306.607 81.981 321.34 87.7748 332.92 97.8981C346.17 109.483 354.285 125.849 355.487 143.408Z" fill="#37474F"/>
<path d="M251.76 109.659C256.609 104.453 262.498 100.326 269.046 97.5439C272.351 96.0781 275.798 94.9538 279.332 94.1886C282.909 93.4238 286.553 93.0094 290.211 92.9511C297.592 92.9141 304.899 94.4214 311.663 97.376C318.328 100.275 324.397 104.387 329.559 109.504C323.499 105.901 317.092 102.916 310.435 100.594C307.181 99.5257 303.848 98.718 300.467 98.179C297.123 97.599 293.732 97.3395 290.339 97.404C283.554 97.4725 276.821 98.6027 270.385 100.753C263.84 102.959 257.586 105.949 251.76 109.659Z" fill="#C0E2E9"/>
<path d="M383.012 261.584L366.637 324.139H403.156L386.782 261.584C386.682 261.158 386.442 260.779 386.1 260.508C385.757 260.237 385.334 260.089 384.897 260.089C384.46 260.089 384.036 260.237 383.694 260.508C383.352 260.779 383.111 261.158 383.012 261.584Z" fill="#2E9DB6" stroke="#2C2C2C" stroke-linecap="round" stroke-linejoin="round"/>
<path d="M366.637 324.139H396.39L381.513 267.302L366.637 324.139Z" fill="#2C2C2C" stroke="#2C2C2C" stroke-linecap="round" stroke-linejoin="round"/>
<path d="M406.843 322.767H361.292C359.967 322.767 358.894 323.84 358.894 325.164V325.47C358.894 326.794 359.967 327.867 361.292 327.867H406.843C408.167 327.867 409.241 326.794 409.241 325.47V325.164C409.241 323.84 408.167 322.767 406.843 322.767Z" fill="#2E9DB6" stroke="#2C2C2C" stroke-linecap="round" stroke-linejoin="round"/>
<path d="M391.254 322.767H361.291C359.967 322.767 358.894 323.84 358.894 325.164V325.47C358.894 326.794 359.967 327.867 361.291 327.867H391.254C392.578 327.867 393.651 326.794 393.651 325.47V325.164C393.651 323.84 392.578 322.767 391.254 322.767Z" fill="#2C2C2C" stroke="#2C2C2C" stroke-linecap="round" stroke-linejoin="round"/>
<path d="M373.172 299.188H396.625L393.79 288.352H376.007L373.172 299.188Z" fill="white" stroke="#2C2C2C" stroke-linecap="round" stroke-linejoin="round"/>
<path d="M373.172 299.188H389.865L387.03 288.352H376.007L373.172 299.188Z" fill="#BABABA" stroke="#2C2C2C" stroke-linecap="round" stroke-linejoin="round"/>
<path d="M55.5161 45.8464C53.5042 54.1455 58.031 84.324 65.4499 95.7416C65.4499 95.7416 86.9521 109.699 154.112 101.777C154.112 101.777 143.248 98.3067 153.42 58.5088C153.634 57.6537 153.86 56.7987 154.099 55.9059C155.483 50.7504 145.36 41.9106 143.537 38.8047C130.397 16.5103 55.5161 45.8464 55.5161 45.8464Z" fill="#2C2C2C"/>
<path d="M121.029 193.143C121.029 193.143 109.812 194.463 107.461 194.463C107.436 194.463 107.411 194.463 107.386 194.463C107.373 194.463 107.36 194.463 107.348 194.463C107.335 194.463 107.323 194.463 107.31 194.463C107.285 194.463 107.26 194.463 107.235 194.463C104.871 194.463 93.6669 193.143 93.6669 193.143C78.7159 197.858 79.7847 219.675 79.7973 220.291C79.8979 224.793 79.9608 229.307 80.0739 233.808C80.338 244.409 83.0415 276.159 83.7331 286.256C83.796 287.086 83.8337 287.778 83.8588 288.293C84.9905 310.952 86.1097 333.611 87.2414 356.27C87.3419 358.257 87.4425 360.257 87.5431 362.243C87.5431 362.243 92.7992 365.513 103.11 362.243L103.198 288.645L106.065 233.959C106.065 233.959 106.593 233.884 107.222 233.821C107.26 233.821 107.298 233.834 107.348 233.834V233.846C107.36 233.846 107.373 233.846 107.386 233.846C107.398 233.846 107.411 233.846 107.423 233.846V233.834C107.461 233.834 107.499 233.821 107.549 233.821C108.178 233.884 108.706 233.959 108.706 233.959L111.573 288.645L111.661 362.243C121.972 365.513 127.228 362.243 127.228 362.243C127.329 360.257 127.429 358.257 127.53 356.27C128.661 333.611 129.768 310.952 130.912 288.293C130.937 287.778 130.975 287.086 131.038 286.256C131.717 276.172 134.433 244.409 134.697 233.808C134.81 229.307 134.873 224.793 134.974 220.291C134.911 219.675 135.967 197.858 121.029 193.143Z" fill="#2C2C2C"/>
<path d="M33.1903 148.92C33.1903 148.92 30.1541 146.662 29.6113 144.415C29.0571 142.163 28.6214 141.083 24.9589 137.037C21.3307 133.008 20.6935 129.628 20.6935 129.628C20.6935 129.628 16.22 131.095 21.6587 137.559C24.986 141.522 11.1561 134.904 7.1644 132.532C7.1644 132.532 4.13436 132.761 7.274 136.529C10.4136 140.296 6.47417 138.692 12.9169 145.652C19.3431 152.618 27.9957 158.66 32.0926 154.731C36.178 150.796 33.1903 148.92 33.1903 148.92Z" fill="#E0E0E0"/>
<path fill-rule="evenodd" clip-rule="evenodd" d="M20.6932 129.627L20.5365 129.15L21.0813 128.971L21.1873 129.533L21.1874 129.534L21.1875 129.534L21.1882 129.538C21.1891 129.542 21.1906 129.55 21.1929 129.56C21.1975 129.582 21.2051 129.616 21.2163 129.661C21.2386 129.752 21.2751 129.891 21.3304 130.071C21.4409 130.432 21.6265 130.96 21.9233 131.613C22.5167 132.919 23.5556 134.727 25.3319 136.7C27.1653 138.725 28.2184 140.037 28.8815 141.139C29.5558 142.26 29.8178 143.15 30.0995 144.295L30.0997 144.296L30.1 144.297C30.3373 145.28 31.1465 146.323 31.9636 147.158C32.363 147.566 32.7469 147.908 33.0311 148.147C33.1729 148.266 33.2892 148.36 33.3694 148.423C33.4095 148.454 33.4405 148.478 33.4611 148.494C33.4686 148.5 33.4747 148.504 33.4794 148.508C33.484 148.511 33.4893 148.515 33.4952 148.519C33.5004 148.522 33.5061 148.526 33.5122 148.53C33.5408 148.551 33.5792 148.579 33.6248 148.615C33.7156 148.688 33.8362 148.794 33.9649 148.936C34.2213 149.217 34.5184 149.647 34.6617 150.23C34.9579 151.435 34.5512 153.061 32.4412 155.093L32.4405 155.093C31.2907 156.196 29.8287 156.582 28.2301 156.45C26.6458 156.32 24.9092 155.681 23.1379 154.719C19.5928 152.793 15.7803 149.498 12.5471 145.993C9.32113 142.508 8.61078 141.085 8.366 140.004C8.32295 139.814 8.29395 139.631 8.26861 139.471C8.26019 139.417 8.25216 139.367 8.24416 139.319C8.21071 139.12 8.1725 138.938 8.09985 138.732C7.95473 138.322 7.65282 137.769 6.88737 136.85C6.08155 135.883 5.6333 135.1 5.44845 134.453C5.25841 133.787 5.34317 133.243 5.62778 132.831C5.89678 132.442 6.29232 132.248 6.57695 132.15C6.72407 132.1 6.85603 132.07 6.95204 132.053C7.0004 132.045 7.04061 132.039 7.07024 132.036C7.08508 132.034 7.09735 132.032 7.10674 132.031C7.11144 132.031 7.11543 132.031 7.11867 132.03L7.12297 132.03L7.12469 132.03L7.12544 132.03C7.12579 132.03 7.12612 132.03 7.16415 132.531L7.12612 132.03L7.28455 132.018L7.42113 132.099C9.39349 133.271 13.8266 135.508 17.3472 136.956C19.1258 137.687 20.6045 138.188 21.415 138.279C21.4765 138.286 21.5298 138.29 21.5758 138.292C21.5123 138.187 21.4152 138.051 21.2735 137.882C18.5203 134.61 18.1283 132.432 18.6651 130.993C18.9288 130.287 19.3961 129.827 19.7871 129.548C19.983 129.409 20.1633 129.311 20.2969 129.248C20.3638 129.217 20.4197 129.193 20.4607 129.177C20.4813 129.169 20.4981 129.163 20.5109 129.158C20.5173 129.156 20.5226 129.154 20.5269 129.153L20.5325 129.151L20.5347 129.15L20.5356 129.15C20.5361 129.15 20.5365 129.15 20.6932 129.627ZM7.06461 133.057C7.0171 133.067 6.96157 133.082 6.90258 133.102C6.71719 133.165 6.55145 133.264 6.4554 133.403C6.37495 133.519 6.29088 133.739 6.41573 134.176C6.54578 134.632 6.89614 135.29 7.66014 136.206C8.46451 137.171 8.84753 137.83 9.04812 138.397C9.14832 138.68 9.19816 138.926 9.23617 139.152C9.24736 139.219 9.25719 139.281 9.26665 139.34C9.29047 139.491 9.31196 139.627 9.3471 139.782C9.52817 140.581 10.0694 141.836 13.2858 145.31L13.2864 145.311C16.4792 148.772 20.2061 151.981 23.6181 153.835C25.3253 154.762 26.9217 155.333 28.3128 155.448C29.6896 155.561 30.8454 155.229 31.744 154.368C33.7189 152.466 33.8611 151.187 33.6848 150.47C33.5918 150.091 33.3974 149.806 33.2212 149.613C33.1336 149.517 33.0528 149.446 32.9962 149.401C32.968 149.378 32.9462 149.362 32.9331 149.353C32.9265 149.348 32.9221 149.345 32.9203 149.344C32.9194 149.343 32.9191 149.343 32.9194 149.344L32.9058 149.335L32.89 149.323L33.1901 148.92C32.89 149.323 32.8899 149.323 32.8898 149.323L32.8895 149.323L32.8865 149.321L32.8787 149.315C32.8721 149.31 32.8627 149.303 32.8506 149.293C32.8264 149.275 32.7917 149.248 32.7476 149.214C32.6597 149.144 32.5346 149.044 32.3833 148.917C32.0812 148.662 31.6721 148.299 31.2446 147.862C30.4082 147.007 29.4282 145.798 29.1224 144.534C28.85 143.427 28.617 142.651 28.0195 141.658C27.4105 140.646 26.4146 139.395 24.5858 137.375L24.5848 137.374C22.7333 135.317 21.6396 133.421 21.0075 132.029C20.6922 131.335 20.4918 130.768 20.3694 130.369C20.0921 130.567 19.7819 130.878 19.6076 131.345C19.2674 132.256 19.3579 134.043 22.0434 137.235L22.0437 137.235C22.264 137.498 22.4351 137.741 22.5418 137.965C22.6412 138.173 22.7295 138.457 22.6296 138.743C22.5171 139.066 22.238 139.206 22.0155 139.259C21.7973 139.311 21.5477 139.306 21.3026 139.278C20.3311 139.169 18.7267 138.61 16.9647 137.886C13.4941 136.459 9.15183 134.277 7.06461 133.057ZM7.20437 133.033C7.20531 133.033 7.20562 133.033 7.20527 133.033L7.20437 133.033Z" fill="#2C2C2C"/>
<path d="M79.7574 130.035C79.7574 130.035 70.1316 180.901 65.4125 183.77C61.6149 186.084 49.3247 175.483 33.1237 161.181C31.3398 159.511 29.1924 156.961 29.1924 156.961L32.8162 143.271L36.8476 147.512L55.9988 163.502C55.9988 163.502 64.021 122.013 71.6046 121.26C79.2005 120.493 79.7574 130.035 79.7574 130.035Z" fill="#2C2C2C"/>
<path d="M181.668 148.92C181.668 148.92 184.704 146.662 185.247 144.415C185.801 142.163 186.237 141.083 189.9 137.037C193.528 133.008 194.165 129.627 194.165 129.627C194.165 129.627 198.638 131.095 193.2 137.559C189.872 141.521 203.702 134.904 207.694 132.531C207.694 132.531 210.724 132.761 207.584 136.528C204.445 140.296 208.384 138.692 201.941 145.652C195.515 152.618 186.863 158.659 182.766 154.73C178.68 150.796 181.668 148.92 181.668 148.92Z" fill="#E0E0E0"/>
<path fill-rule="evenodd" clip-rule="evenodd" d="M194.165 129.627L194.322 129.15L193.777 128.971L193.671 129.533L193.671 129.534L193.671 129.534L193.67 129.538C193.669 129.542 193.668 129.55 193.665 129.56C193.661 129.582 193.653 129.616 193.642 129.661C193.62 129.752 193.583 129.891 193.528 130.071C193.417 130.432 193.232 130.96 192.935 131.613C192.342 132.919 191.303 134.727 189.527 136.7C187.693 138.725 186.64 140.037 185.977 141.139C185.303 142.26 185.041 143.15 184.759 144.295L184.759 144.296L184.758 144.297C184.521 145.28 183.712 146.323 182.895 147.158C182.495 147.566 182.111 147.908 181.827 148.147C181.685 148.266 181.569 148.36 181.489 148.423C181.449 148.454 181.418 148.478 181.397 148.494C181.39 148.5 181.384 148.504 181.379 148.508C181.374 148.511 181.369 148.515 181.363 148.519C181.358 148.522 181.352 148.526 181.346 148.53C181.318 148.551 181.279 148.579 181.234 148.615C181.143 148.688 181.022 148.794 180.894 148.936C180.637 149.217 180.34 149.647 180.197 150.23C179.9 151.435 180.307 153.061 182.417 155.093L182.418 155.093C183.568 156.196 185.03 156.582 186.628 156.45C188.213 156.32 189.949 155.681 191.721 154.719C195.266 152.793 199.078 149.498 202.311 145.993C205.537 142.508 206.248 141.085 206.492 140.004C206.535 139.814 206.564 139.631 206.59 139.471C206.598 139.417 206.606 139.367 206.614 139.319C206.648 139.12 206.686 138.938 206.759 138.732C206.904 138.322 207.206 137.769 207.971 136.85C208.777 135.883 209.225 135.1 209.41 134.453C209.6 133.787 209.515 133.243 209.231 132.831C208.962 132.442 208.566 132.248 208.281 132.15C208.134 132.1 208.002 132.07 207.906 132.053C207.858 132.045 207.818 132.039 207.788 132.036C207.773 132.034 207.761 132.032 207.752 132.031C207.747 132.031 207.743 132.031 207.74 132.03L207.735 132.03L207.734 132.03L207.733 132.03C207.733 132.03 207.732 132.03 207.694 132.531L207.732 132.03L207.574 132.018L207.437 132.099C205.465 133.271 201.032 135.508 197.511 136.956C195.733 137.687 194.254 138.188 193.443 138.279C193.382 138.286 193.329 138.29 193.283 138.292C193.346 138.187 193.443 138.051 193.585 137.882C196.338 134.61 196.73 132.432 196.193 130.993C195.93 130.287 195.462 129.827 195.071 129.548C194.875 129.409 194.695 129.311 194.562 129.248C194.495 129.217 194.439 129.193 194.398 129.177C194.377 129.169 194.36 129.163 194.348 129.158C194.341 129.156 194.336 129.154 194.331 129.153L194.326 129.151L194.324 129.15L194.323 129.15C194.322 129.15 194.322 129.15 194.165 129.627ZM207.794 133.057C207.841 133.067 207.897 133.082 207.956 133.102C208.141 133.165 208.307 133.264 208.403 133.403C208.483 133.519 208.568 133.739 208.443 134.176C208.313 134.632 207.962 135.29 207.198 136.206C206.394 137.171 206.011 137.83 205.81 138.397C205.71 138.68 205.66 138.926 205.622 139.152C205.611 139.219 205.601 139.281 205.592 139.34C205.568 139.491 205.546 139.627 205.511 139.782C205.33 140.581 204.789 141.836 201.573 145.31L201.572 145.311C198.379 148.772 194.652 151.981 191.24 153.835C189.533 154.762 187.937 155.333 186.546 155.448C185.169 155.561 184.013 155.229 183.114 154.368C181.139 152.466 180.997 151.187 181.174 150.47C181.267 150.091 181.461 149.806 181.637 149.613C181.725 149.517 181.806 149.446 181.862 149.401C181.89 149.378 181.912 149.362 181.925 149.353C181.932 149.348 181.936 149.345 181.938 149.344C181.939 149.343 181.939 149.343 181.939 149.344L181.953 149.335L181.968 149.323L181.668 148.92C181.968 149.323 181.969 149.323 181.969 149.323L181.969 149.323L181.972 149.321L181.98 149.315C181.986 149.31 181.996 149.303 182.008 149.293C182.032 149.275 182.067 149.248 182.111 149.214C182.199 149.144 182.324 149.044 182.475 148.917C182.777 148.662 183.186 148.299 183.614 147.862C184.45 147.007 185.43 145.798 185.736 144.534C186.008 143.427 186.241 142.651 186.839 141.658C187.448 140.646 188.444 139.395 190.273 137.375L190.274 137.374C192.125 135.317 193.219 133.421 193.851 132.029C194.166 131.335 194.367 130.768 194.489 130.369C194.766 130.567 195.076 130.878 195.251 131.345C195.591 132.256 195.501 134.043 192.815 137.235L192.815 137.235C192.594 137.498 192.423 137.741 192.317 137.965C192.217 138.173 192.129 138.457 192.229 138.743C192.341 139.066 192.62 139.206 192.843 139.259C193.061 139.311 193.311 139.306 193.556 139.278C194.527 139.169 196.132 138.61 197.894 137.886C201.364 136.459 205.707 134.277 207.794 133.057ZM207.654 133.033C207.653 133.033 207.653 133.033 207.653 133.033L207.654 133.033Z" fill="#2C2C2C"/>
<path d="M135.101 130.035C135.101 130.035 144.727 180.901 149.446 183.77C153.244 186.084 165.534 175.483 181.735 161.181C183.519 159.511 185.666 156.961 185.666 156.961L182.042 143.271L178.011 147.512L158.86 163.502C158.86 163.502 150.837 122.013 143.254 121.26C135.658 120.493 135.101 130.035 135.101 130.035Z" fill="#2C2C2C"/>
<path d="M155.093 130.359C155.093 138.381 149.836 143.348 141.814 143.348C133.791 143.348 127.291 136.847 127.291 128.825C127.291 120.802 133.351 111.95 140.997 114.351C149.421 116.979 155.093 122.336 155.093 130.359Z" fill="white"/>
<path fill-rule="evenodd" clip-rule="evenodd" d="M131.66 118.004C129.27 120.825 127.794 124.927 127.794 128.825C127.794 136.569 134.069 142.845 141.814 142.845C145.721 142.845 148.906 141.637 151.112 139.501C153.315 137.366 154.59 134.257 154.59 130.359C154.59 122.643 149.158 117.424 140.847 114.832L140.846 114.831C137.273 113.709 134.043 115.192 131.66 118.004ZM141.147 113.872C137.075 112.593 133.452 114.335 130.893 117.354C128.342 120.365 126.788 124.7 126.788 128.825C126.788 137.125 133.514 143.851 141.814 143.851C145.929 143.851 149.384 142.576 151.812 140.223C154.242 137.869 155.596 134.483 155.596 130.359C155.596 122.03 149.686 116.535 141.147 113.872Z" fill="#2C2C2C"/>
<path d="M148.566 128.02C148.566 133.955 144.681 137.627 138.746 137.627C132.811 137.627 128.007 132.823 128.007 126.888C128.007 120.953 132.484 114.402 138.155 116.175C144.367 118.137 148.566 122.097 148.566 128.02Z" fill="#2C2C2C"/>
<path d="M57.6411 130.359C57.6411 138.381 62.8972 143.348 70.9197 143.348C78.9421 143.348 85.4305 136.835 85.4305 128.825C85.4305 120.815 79.3697 111.95 71.7244 114.352C63.3122 116.98 57.6411 122.336 57.6411 130.359Z" fill="white"/>
<path fill-rule="evenodd" clip-rule="evenodd" d="M81.8283 117.359C84.3795 120.371 85.9335 124.706 85.9335 128.825C85.9335 137.112 79.2208 143.851 70.9197 143.851C66.8044 143.851 63.3502 142.576 60.922 140.223C58.492 137.869 57.1382 134.483 57.1382 130.359C57.1382 122.03 63.0479 116.535 71.5741 113.872C75.6461 112.593 79.2697 114.338 81.8283 117.359ZM81.0607 118.009C78.6776 115.195 75.4483 113.709 71.8752 114.832L71.8745 114.832C63.5764 117.424 58.1441 122.643 58.1441 130.359C58.1441 134.257 59.4184 137.366 61.622 139.501C63.8275 141.637 67.0126 142.845 70.9197 142.845C78.6635 142.845 84.9276 136.558 84.9276 128.825C84.9276 124.934 83.4512 120.831 81.0607 118.009Z" fill="#2C2C2C"/>
<path d="M64.1797 128.02C64.1797 133.955 68.0652 137.627 74.0003 137.627C79.9354 137.627 84.7388 132.823 84.7388 126.888C84.7388 120.953 80.2623 114.402 74.6039 116.175C68.367 118.137 64.1797 122.097 64.1797 128.02Z" fill="#2C2C2C"/>
<path d="M124.65 194.727C115.571 193.897 106.606 193.558 106.606 193.558C103.311 193.658 96.2946 193.947 89.0518 194.727C91.1643 201.945 98.3317 207.264 106.845 207.264C115.37 207.276 122.537 201.932 124.65 194.727Z" fill="#50BFD7"/>
<path d="M123.908 195.481C124.688 192.413 140.293 114.226 140.293 114.226C140.293 114.226 98.6462 101.928 72.0137 114.226L89.0897 196.16L123.908 195.481Z" fill="white"/>
<path fill-rule="evenodd" clip-rule="evenodd" d="M140.434 113.743C140.435 113.743 140.435 113.743 140.292 114.226C140.786 114.324 140.786 114.325 140.785 114.325L140.785 114.328L140.61 115.203C140.496 115.777 140.328 116.618 140.114 117.69C139.685 119.834 139.073 122.9 138.335 126.589C136.86 133.967 134.885 143.837 132.886 153.802C128.89 173.718 124.789 194.055 124.395 195.605L124.301 195.977L88.6822 196.672L71.4395 113.937L71.8026 113.769C85.2478 107.561 102.432 107.574 116.196 109.114C123.088 109.885 129.145 111.042 133.478 112.005C135.645 112.487 137.382 112.921 138.578 113.235C139.177 113.392 139.64 113.519 139.954 113.606C140.111 113.65 140.23 113.684 140.311 113.707C140.352 113.719 140.382 113.728 140.403 113.734L140.426 113.741L140.433 113.743L140.434 113.743ZM140.292 114.226L140.786 114.324L140.876 113.874L140.435 113.743L140.292 114.226ZM139.708 114.582C139.7 114.58 139.691 114.578 139.683 114.575C139.374 114.489 138.916 114.363 138.323 114.208C137.138 113.897 135.413 113.466 133.26 112.987C128.952 112.03 122.933 110.88 116.084 110.114C102.492 108.593 85.7221 108.593 72.5878 114.517L89.4968 195.649L123.507 194.986C124.219 191.79 128.1 172.541 131.899 153.604C133.899 143.639 135.874 133.77 137.349 126.392C138.086 122.703 138.699 119.637 139.127 117.493C139.341 116.421 139.509 115.58 139.624 115.006L139.708 114.582Z" fill="black"/>
<path d="M123.908 195.481C124.688 192.413 140.293 114.226 140.293 114.226C140.293 114.226 98.6462 101.928 72.0137 114.226L89.0897 196.16L123.908 195.481Z" fill="white"/>
<path fill-rule="evenodd" clip-rule="evenodd" d="M140.434 113.743C140.435 113.743 140.435 113.743 140.292 114.226C140.786 114.324 140.786 114.325 140.785 114.325L140.785 114.328L140.61 115.203C140.496 115.777 140.328 116.618 140.114 117.69C139.685 119.834 139.073 122.9 138.335 126.589C136.86 133.967 134.885 143.837 132.886 153.802C128.89 173.718 124.789 194.055 124.395 195.605L124.301 195.977L88.6822 196.672L71.4395 113.937L71.8026 113.769C85.2478 107.561 102.432 107.574 116.196 109.114C123.088 109.885 129.145 111.042 133.478 112.005C135.645 112.487 137.382 112.921 138.578 113.235C139.177 113.392 139.64 113.519 139.954 113.606C140.111 113.65 140.23 113.684 140.311 113.707C140.352 113.719 140.382 113.728 140.403 113.734L140.426 113.741L140.433 113.743L140.434 113.743ZM140.292 114.226L140.786 114.324L140.876 113.874L140.435 113.743L140.292 114.226ZM139.708 114.582C139.7 114.58 139.691 114.578 139.683 114.575C139.374 114.489 138.916 114.363 138.323 114.208C137.138 113.897 135.413 113.466 133.26 112.987C128.952 112.03 122.933 110.88 116.084 110.114C102.492 108.593 85.7221 108.593 72.5878 114.517L89.4968 195.649L123.507 194.986C124.219 191.79 128.1 172.541 131.899 153.604C133.899 143.639 135.874 133.77 137.349 126.392C138.086 122.703 138.699 119.637 139.127 117.493C139.341 116.421 139.509 115.58 139.624 115.006L139.708 114.582Z" fill="#2C2C2C"/>
<path d="M130.183 111.824C118.551 109.485 98.8848 106.819 81.9849 110.843C83.9842 123.455 85.9835 136.08 87.9829 148.692C89.5924 157.243 97.7029 162.939 106.165 162.989C114.628 162.939 122.738 157.255 124.348 148.692C126.284 136.394 128.233 124.109 130.183 111.824Z" fill="#50BFD7"/>
<path fill-rule="evenodd" clip-rule="evenodd" d="M81.8687 110.354C98.8794 106.304 118.635 108.989 130.282 111.331L130.755 111.426L130.678 111.911C128.73 124.194 126.781 136.476 124.845 148.771L124.844 148.778L124.843 148.785C123.182 157.623 114.831 163.441 106.169 163.492L106.166 163.492L106.163 163.492C97.4998 163.441 89.1501 157.61 87.4889 148.785L87.4876 148.778L87.4865 148.771C86.4869 142.466 85.4873 136.157 84.4878 129.848L84.4875 129.847C83.4878 123.537 82.4881 117.228 81.4885 110.922L81.4155 110.462L81.8687 110.354ZM82.5552 111.226C83.5304 117.378 84.5056 123.533 85.4807 129.687L85.481 129.689C86.4803 135.996 87.4796 142.303 88.4789 148.606C90.0397 156.878 97.9071 162.436 106.166 162.486C114.425 162.436 122.292 156.89 123.853 148.607C125.764 136.47 127.687 124.346 129.61 112.223C118.048 109.933 99.0158 107.435 82.5552 111.226Z" fill="#2C2C2C"/>
<path d="M104.72 116.288C108.693 116.288 114.867 115.081 114.867 111.12L113.849 97.8917L112.956 86.3233C112.956 82.3498 109.737 79.1433 105.776 79.1433C103.789 79.1433 102.004 79.9481 100.696 81.2432C99.4008 82.5384 98.5834 84.3365 98.5834 86.3233L97.7032 97.9043L96.8607 109.007C95.729 115.71 104.72 116.288 104.72 116.288Z" fill="#2C2C2C"/>
<path d="M127.957 11.7319C122.01 4.41361 113.698 0 103.035 0C78.8794 0 55.2646 22.2692 55.2646 50.0461C55.2646 77.8229 74.843 100.344 98.9984 100.344C101.325 100.344 103.575 100.142 105.738 99.7401C105.965 100.96 106.09 102.217 106.09 103.5C106.09 103.739 106.078 103.965 106.078 104.191C172.672 88.071 161.77 7.62008 127.957 11.7319Z" fill="#2C2C2C"/>
<path d="M76.025 78.0996C80.5043 78.0996 84.1355 74.4684 84.1355 69.9891C84.1355 65.5098 80.5043 61.8787 76.025 61.8787C71.5457 61.8787 67.9146 65.5098 67.9146 69.9891C67.9146 74.4684 71.5457 78.0996 76.025 78.0996Z" fill="#E0E0E0"/>
<path fill-rule="evenodd" clip-rule="evenodd" d="M76.0246 62.3817C71.8231 62.3817 68.4171 65.7877 68.4171 69.9892C68.4171 74.1907 71.8231 77.5967 76.0246 77.5967C80.2261 77.5967 83.6321 74.1907 83.6321 69.9892C83.6321 65.7877 80.2261 62.3817 76.0246 62.3817ZM67.4111 69.9892C67.4111 65.2321 71.2675 61.3757 76.0246 61.3757C80.7817 61.3757 84.6381 65.2321 84.6381 69.9892C84.6381 74.7463 80.7817 78.6026 76.0246 78.6026C71.2675 78.6026 67.4111 74.7463 67.4111 69.9892Z" fill="#2C2C2C"/>
<path d="M133.138 78.0996C137.617 78.0996 141.248 74.4684 141.248 69.9891C141.248 65.5098 137.617 61.8787 133.138 61.8787C128.659 61.8787 125.027 65.5098 125.027 69.9891C125.027 74.4684 128.659 78.0996 133.138 78.0996Z" fill="#E0E0E0"/>
<path fill-rule="evenodd" clip-rule="evenodd" d="M133.138 62.3817C128.936 62.3817 125.53 65.7877 125.53 69.9892C125.53 74.1907 128.936 77.5967 133.138 77.5967C137.339 77.5967 140.745 74.1907 140.745 69.9892C140.745 65.7877 137.339 62.3817 133.138 62.3817ZM124.524 69.9892C124.524 65.2321 128.381 61.3757 133.138 61.3757C137.895 61.3757 141.751 65.2321 141.751 69.9892C141.751 74.7463 137.895 78.6026 133.138 78.6026C128.381 78.6026 124.524 74.7463 124.524 69.9892Z" fill="#2C2C2C"/>
<path d="M105.348 103.827C122.758 103.827 136.872 83.8468 136.872 59.2002C136.872 34.5537 122.758 14.5737 105.348 14.5737C87.938 14.5737 73.8242 34.5537 73.8242 59.2002C73.8242 83.8468 87.938 103.827 105.348 103.827Z" fill="#E0E0E0"/>
<path fill-rule="evenodd" clip-rule="evenodd" d="M83.4682 27.9348C77.8303 35.9161 74.3272 46.9685 74.3272 59.2003C74.3272 71.432 77.8303 82.4845 83.4682 90.4658C89.1071 98.4484 96.8503 103.324 105.348 103.324C113.846 103.324 121.589 98.4484 127.228 90.4658C132.866 82.4845 136.369 71.432 136.369 59.2003C136.369 46.9685 132.866 35.9161 127.228 27.9348C121.589 19.9522 113.846 15.0768 105.348 15.0768C96.8503 15.0768 89.1071 19.9522 83.4682 27.9348ZM82.6466 27.3544C88.4172 19.1854 96.436 14.0708 105.348 14.0708C114.26 14.0708 122.279 19.1854 128.05 27.3544C133.821 35.5247 137.375 46.7855 137.375 59.2003C137.375 71.6151 133.821 82.8759 128.05 91.0462C122.279 99.2152 114.26 104.33 105.348 104.33C96.436 104.33 88.4172 99.2152 82.6466 91.0462C76.8751 82.8759 73.3213 71.6151 73.3213 59.2003C73.3213 46.7855 76.8751 35.5247 82.6466 27.3544Z" fill="#2C2C2C"/>
<path d="M69.2222 49.3041C69.2222 49.3041 96.0559 50.6119 104.996 34.4663C104.996 34.4663 124.411 51.2657 142.946 49.958L141.198 42.5391L134.005 28.3552L129.642 23.1242L120.702 13.7437L108.706 8.72656L94.3081 10.6882L75.107 23.7781L72.7053 32.5047L69.2222 49.3041Z" fill="#2C2C2C"/>
<path d="M106.128 76.6408C106.141 76.7162 105.977 76.8546 105.612 76.8546C105.26 76.8671 104.72 76.7037 104.242 76.251C104.003 76.0247 103.789 75.748 103.626 75.3959C103.601 75.3456 103.588 75.2953 103.563 75.245L103.538 75.1696L103.513 75.1067L103.475 74.9936C103.462 74.9433 103.45 74.8804 103.425 74.8301C103.374 74.6415 103.337 74.4403 103.324 74.2265C103.248 73.3966 103.412 72.5541 103.613 71.7494C104.393 68.5303 105.311 66.0029 105.65 66.0783C105.99 66.1663 105.638 68.8321 104.858 72.0511C104.657 72.8433 104.506 73.5601 104.506 74.1636C104.506 74.3145 104.518 74.4654 104.531 74.6037L104.544 74.654V74.6792V74.6918V74.7043C104.544 74.7043 104.531 74.6666 104.544 74.6792L104.569 74.8049L104.581 74.8678L104.594 74.9055L104.619 74.981C104.695 75.2199 104.808 75.4462 104.933 75.6223C105.185 75.9869 105.487 76.2133 105.726 76.339C105.939 76.5025 106.115 76.5528 106.128 76.6408Z" fill="#2C2C2C"/>
<path d="M71.2719 64.3181C70.9198 62.9223 70.6557 61.5014 70.4419 60.0679C70.2408 58.6344 70.1024 57.201 70.027 55.7549C69.9013 52.8628 70.0144 49.9455 70.4042 47.066C70.794 44.1739 71.4605 41.3195 72.4036 38.5531C72.4539 38.3771 72.5167 38.2011 72.5796 38.0376L72.7682 37.522L73.1454 36.4909L73.573 35.4724L73.7867 34.9694C73.8622 34.806 73.9251 34.6299 74.0131 34.4665C74.6292 33.1336 75.2957 31.8133 76.0501 30.5558C77.5465 28.0158 79.2943 25.6267 81.3062 23.4513C83.3307 21.2885 85.6067 19.352 88.0964 17.7299C88.3982 17.5162 88.7251 17.3276 89.0395 17.1389C89.3538 16.9503 89.6808 16.7491 89.9951 16.5731L90.9885 16.045L91.4789 15.7809C91.6424 15.6929 91.8184 15.6174 91.9819 15.542L93.0004 15.0767C93.0884 15.039 93.1639 15.0013 93.2519 14.9636L93.516 14.863L94.0315 14.6618L94.5471 14.4606C94.7231 14.3977 94.8866 14.3223 95.0752 14.2594L96.144 13.9073C98.9858 12.9894 101.979 12.5241 104.971 12.4613C106.468 12.411 107.964 12.5241 109.448 12.6876C109.825 12.7379 110.19 12.8008 110.554 12.8511L111.108 12.9391C111.196 12.9517 111.296 12.9643 111.384 12.9894L111.661 13.0523L112.755 13.2912C113.119 13.3666 113.484 13.4672 113.836 13.5678C116.716 14.3726 119.495 15.542 122.035 17.1012L122.978 17.6922C123.141 17.7928 123.292 17.8934 123.443 18.0066L123.896 18.3209L124.348 18.6353C124.499 18.7359 124.65 18.8491 124.801 18.9622L125.681 19.6413L126.121 19.9808L126.549 20.3454L127.391 21.0747C127.668 21.3136 127.932 21.5777 128.196 21.8418L128.599 22.2316C128.737 22.3573 128.863 22.4831 128.988 22.6214L129.755 23.4261L130.133 23.8285L130.497 24.2435L131.227 25.086C131.352 25.2243 131.465 25.3752 131.579 25.5135L131.918 25.9536C132.144 26.2428 132.371 26.532 132.597 26.8338L133.238 27.7392C133.679 28.3302 134.056 28.9715 134.458 29.5876C136.017 32.0899 137.287 34.7557 138.293 37.4969C139.299 40.2507 140.016 43.0925 140.469 45.972L140.557 46.5127L140.594 46.7768L140.62 47.0534L140.745 48.1348C140.846 48.8516 140.871 49.5809 140.934 50.3102C141.022 51.7562 141.047 53.2149 141.009 54.6609L140.997 55.2016L140.972 55.7423C140.947 56.107 140.934 56.4591 140.896 56.8237C140.846 57.5405 140.771 58.2698 140.683 58.9865C140.494 60.42 140.255 61.8409 139.941 63.2492C140.117 61.8158 140.255 60.3949 140.305 58.9614C140.368 57.5279 140.381 56.0944 140.318 54.6735C140.255 53.2526 140.154 51.8191 139.978 50.4108C139.878 49.7066 139.802 49.0025 139.664 48.2983L139.475 47.2546L139.425 46.9906L139.362 46.7265L139.249 46.2109C138.658 43.432 137.816 40.7159 136.747 38.113L136.546 37.6226L136.332 37.1448L135.892 36.1766C135.753 35.8496 135.59 35.5479 135.426 35.2335L134.949 34.2904C134.785 33.9761 134.609 33.6743 134.433 33.3725C134.257 33.0707 134.094 32.7563 133.905 32.4546L133.352 31.5618C133.163 31.26 132.987 30.9582 132.786 30.6816C132.383 30.1031 132.006 29.5121 131.579 28.9589L130.95 28.1164C130.736 27.8398 130.51 27.5757 130.283 27.2991L129.944 26.8967C129.831 26.7584 129.718 26.62 129.604 26.4943L128.9 25.7147L128.548 25.3249L128.184 24.9476L127.442 24.2058C125.442 22.2693 123.217 20.5718 120.815 19.1634C118.426 17.7551 115.848 16.6863 113.182 15.9695C112.516 15.7683 111.837 15.6552 111.17 15.5043L110.919 15.454C110.831 15.4414 110.743 15.4288 110.667 15.4163L110.152 15.3408C109.812 15.2905 109.473 15.2276 109.133 15.1899C107.763 15.0516 106.38 14.951 105.009 14.9887C102.255 15.039 99.5014 15.454 96.8733 16.2965L95.8925 16.6108C95.7291 16.6611 95.5656 16.724 95.4021 16.7869L94.9243 16.9755L94.4465 17.1641L94.2076 17.2521C94.1321 17.2773 94.0441 17.3276 93.9686 17.3527L93.0256 17.7802C92.8747 17.8557 92.7112 17.9186 92.5477 17.994L92.0825 18.2329L91.1645 18.7107C90.8628 18.8868 90.561 19.0628 90.2592 19.2263C89.9574 19.4023 89.6556 19.5658 89.3664 19.767C87.015 21.2508 84.8522 23.0238 82.8906 25.0105L82.1739 25.7776L81.8218 26.1674C81.7589 26.2302 81.696 26.2931 81.6457 26.356L81.4823 26.5572L80.8033 27.3619C80.6901 27.5002 80.5769 27.626 80.4637 27.7643L80.1368 28.1793L79.4955 29.0092C79.3823 29.1475 79.2943 29.2858 79.1812 29.4367L78.8794 29.8642C78.6782 30.1534 78.477 30.4301 78.2758 30.7319L77.7099 31.6246C76.2136 34.0012 74.931 36.5287 73.9251 39.1567C72.9065 41.7848 72.1269 44.526 71.5988 47.3175L71.3976 48.3612C71.3347 48.7132 71.297 49.0653 71.2341 49.4174L71.0832 50.4737C71.0455 50.8257 71.0078 51.1778 70.9701 51.5299L70.8569 52.5987L70.794 53.6676L70.7312 54.7364C70.7186 55.0885 70.706 55.4531 70.6934 55.8052C70.6683 57.2387 70.6934 58.6596 70.794 60.0931C70.9072 61.4637 71.0707 62.8846 71.2719 64.3181Z" fill="#50BFD7"/>
<path d="M97.1499 61.5643C97.1499 65.148 94.0441 68.0527 90.2215 68.0527C86.3863 68.0527 83.293 65.148 83.293 61.5643C83.293 57.9806 86.3988 55.0759 90.2215 55.0759C94.0441 55.0759 97.1499 57.9806 97.1499 61.5643Z" fill="white"/>
<path fill-rule="evenodd" clip-rule="evenodd" d="M90.2215 55.5789C86.6449 55.5789 83.796 58.2892 83.796 61.5644C83.796 64.8401 86.6329 67.5498 90.2215 67.5498C93.7981 67.5498 96.647 64.8395 96.647 61.5644C96.647 58.2892 93.7981 55.5789 90.2215 55.5789ZM82.79 61.5644C82.79 57.6721 86.1529 54.573 90.2215 54.573C94.2901 54.573 97.653 57.6721 97.653 61.5644C97.653 65.4566 94.2901 68.5557 90.2215 68.5557C86.1397 68.5557 82.79 65.456 82.79 61.5644Z" fill="#2C2C2C"/>
<path d="M86.8262 61.1619C86.8262 64.1169 88.7501 66.5186 91.114 66.5186C93.478 66.5186 95.4019 64.1169 95.4019 61.1619C95.4019 58.2069 93.478 55.8052 91.114 55.8052C88.7375 55.7927 86.8262 58.1944 86.8262 61.1619Z" fill="#50BFD7"/>
<path d="M88.0586 61.1618C88.0586 63.2618 89.4166 64.9593 91.1016 64.9593C92.7866 64.9593 94.1446 63.2618 94.1446 61.1618C94.1446 59.0619 92.7866 57.3518 91.1016 57.3518C89.4292 57.3518 88.0586 59.0493 88.0586 61.1618Z" fill="#2C2C2C"/>
<path d="M87.8696 57.5531C87.8696 58.1315 88.5738 58.5842 89.4414 58.5842C90.3091 58.5842 91.0132 58.1189 91.0132 57.5531C91.0132 56.9747 90.3091 56.522 89.4414 56.522C88.5738 56.5094 87.8696 56.9747 87.8696 57.5531Z" fill="white"/>
<path d="M90.6742 54.1328C86.3863 53.7052 83.0918 57.5781 83.0918 61.5768C83.0918 61.9917 83.6073 62.0672 83.8211 61.778C85.569 59.3763 86.1348 57.0123 89.3287 56.0944C94.0441 54.7363 96.6344 59.5775 96.8985 63.3749C96.9362 63.7396 97.2506 63.4127 97.2883 63.0354C97.7158 58.4961 95.4524 54.6106 90.6742 54.1328Z" fill="#2C2C2C"/>
<path d="M99.1366 51.6429C99.1366 51.6429 89.7812 42.3127 79.7217 53.3907C79.7091 53.3907 88.4106 47.8203 99.1366 51.6429Z" fill="#2C2C2C"/>
<path d="M127.291 61.5643C127.291 65.148 124.185 68.0527 120.362 68.0527C116.527 68.0527 113.434 65.148 113.434 61.5643C113.434 57.9806 116.539 55.0759 120.362 55.0759C124.185 55.0759 127.291 57.9806 127.291 61.5643Z" fill="white"/>
<path fill-rule="evenodd" clip-rule="evenodd" d="M120.362 55.5787C116.785 55.5787 113.937 58.289 113.937 61.5641C113.937 64.8398 116.774 67.5495 120.362 67.5495C123.939 67.5495 126.788 64.8393 126.788 61.5641C126.788 58.289 123.939 55.5787 120.362 55.5787ZM112.931 61.5641C112.931 57.6719 116.294 54.5728 120.362 54.5728C124.431 54.5728 127.794 57.6719 127.794 61.5641C127.794 65.4564 124.431 68.5555 120.362 68.5555C116.28 68.5555 112.931 65.4558 112.931 61.5641Z" fill="#2C2C2C"/>
<path d="M116.967 61.1617C116.967 64.1167 118.891 66.5184 121.255 66.5184C123.619 66.5184 125.543 64.1167 125.543 61.1617C125.543 58.2067 123.619 55.805 121.255 55.805C118.891 55.7924 116.967 58.1941 116.967 61.1617Z" fill="#50BFD7"/>
<path d="M118.212 61.1618C118.212 63.2618 119.57 64.9593 121.255 64.9593C122.94 64.9593 124.298 63.2618 124.298 61.1618C124.298 59.0619 122.94 57.3518 121.255 57.3518C119.57 57.3518 118.212 59.0493 118.212 61.1618Z" fill="#2C2C2C"/>
<path d="M118.011 57.5528C118.011 58.1313 118.715 58.5839 119.583 58.5839C120.45 58.5839 121.154 58.1187 121.154 57.5528C121.154 56.9744 120.45 56.5217 119.583 56.5217C118.727 56.5092 118.011 56.9744 118.011 57.5528Z" fill="white"/>
<path d="M120.815 54.1328C116.527 53.7052 113.232 57.5781 113.232 61.5768C113.232 61.9917 113.748 62.0672 113.962 61.778C115.71 59.3763 116.275 57.0123 119.469 56.0944C124.185 54.7363 126.775 59.5775 127.039 63.3749C127.077 63.7396 127.391 63.4127 127.429 63.0354C127.856 58.4961 125.606 54.6106 120.815 54.1328Z" fill="#2C2C2C"/>
<path d="M129.277 50.6246C129.277 50.6246 119.922 41.2944 109.862 52.3724C109.862 52.3724 118.564 46.802 129.277 50.6246Z" fill="#2C2C2C"/>
<path d="M81.3311 376.44C81.3311 376.44 82.0729 378.791 82.2867 379.156C82.513 379.521 88.2847 381.507 95.3264 381.356C102.645 381.206 105.989 379.08 106.09 376.427H81.3311V376.44Z" fill="#50BFD7"/>
<path fill-rule="evenodd" clip-rule="evenodd" d="M80.8281 375.924H106.612L106.593 376.446C106.533 378.017 105.506 379.347 103.64 380.28C101.782 381.209 99.0326 381.783 95.3369 381.859M80.8281 375.924V376.427V375.924ZM81.3311 376.44L80.8514 376.591L80.8281 376.517V376.427M81.3311 376.44C80.8514 376.591 80.8514 376.591 80.8514 376.591L80.86 376.618C80.8656 376.636 80.8737 376.661 80.8841 376.694C80.905 376.76 80.935 376.854 80.9716 376.967C81.0449 377.195 81.1449 377.502 81.2518 377.821C81.3585 378.139 81.473 378.473 81.575 378.751C81.6697 379.009 81.7718 379.272 81.8528 379.41L81.8561 379.416L81.8594 379.421C81.9097 379.502 81.9719 379.557 82.0068 379.585C82.0476 379.618 82.0907 379.647 82.1305 379.671C82.2103 379.72 82.307 379.77 82.4129 379.818C82.6266 379.917 82.9151 380.03 83.2657 380.15C83.969 380.393 84.9502 380.675 86.1415 380.94C88.524 381.471 91.7682 381.936 95.3369 381.859M82.0171 376.93H105.515C105.297 377.827 104.583 378.684 103.19 379.38C101.52 380.215 98.9385 380.779 95.316 380.854L95.3156 380.854C91.8428 380.928 88.6804 380.475 86.3601 379.959C85.2001 379.7 84.2558 379.427 83.5932 379.199C83.2609 379.085 83.0063 378.984 82.8335 378.904C82.7692 378.875 82.7211 378.85 82.6871 378.832C82.6761 378.807 82.6636 378.777 82.6496 378.743C82.6122 378.653 82.5682 378.537 82.5195 378.405C82.4223 378.139 82.3112 377.816 82.2057 377.501C82.1385 377.301 82.0739 377.104 82.0171 376.93Z" fill="#2C2C2C"/>
<path d="M81.344 376.943C82.4505 377.936 83.8966 378.691 84.9528 379.03C87.5809 379.898 90.4604 380.225 93.2142 380.376C96.144 380.526 99.3631 380.476 102.104 379.319C103.588 378.691 104.845 377.773 106.015 376.729C106.543 375.434 106.681 373.963 106.644 372.454C106.556 369.738 105.939 367.11 105.462 364.444C105.386 364.054 105.323 363.677 105.26 363.3C105.122 361.564 104.996 359.816 104.883 358.094C104.845 357.452 104.77 356.887 104.783 356.245C104.795 355.818 104.946 355.126 104.833 354.724C104.82 354.674 104.795 354.636 104.783 354.598C104.783 354.535 104.795 354.472 104.783 354.409C104.292 354.007 103.777 353.63 103.186 353.466C102.758 353.542 102.331 353.68 102.054 353.793C101.614 353.969 101.224 354.196 100.872 354.46C100.004 353.278 97.8667 352.724 96.6596 352.674C94.7734 352.599 92.2585 352.926 90.7622 354.309C90.5107 354.07 90.1209 353.944 89.7814 353.881C89.7059 353.869 89.6179 353.856 89.5425 353.844C88.6623 354.183 88.8886 356.346 88.8006 356.962C88.6748 357.779 88.5491 358.597 88.3479 359.389C87.9455 360.91 87.3671 362.306 86.4869 363.614C85.5438 365.022 84.3115 366.242 83.2301 367.537C83.0792 367.801 82.9158 368.065 82.7649 368.317C81.608 370.178 80.6649 372.881 80.9164 375.094C80.9793 375.799 81.1302 376.402 81.344 376.943Z" fill="#50BFD7"/>
<path fill-rule="evenodd" clip-rule="evenodd" d="M93.4505 352.455C94.5556 352.197 95.7024 352.132 96.6797 352.171L96.6805 352.171C97.3376 352.199 98.2253 352.36 99.067 352.67C99.7438 352.92 100.44 353.283 100.956 353.791C101.236 353.614 101.538 353.458 101.865 353.327C102.17 353.202 102.631 353.053 103.098 352.971L103.21 352.951L103.32 352.981C104.021 353.175 104.607 353.615 105.102 354.02L105.241 354.134L105.276 354.311C105.292 354.39 105.292 354.46 105.291 354.507C105.3 354.531 105.31 354.561 105.319 354.593C105.402 354.893 105.38 355.25 105.356 355.52C105.344 355.648 105.332 355.759 105.321 355.859C105.303 356.012 105.289 356.139 105.285 356.258C105.278 356.669 105.307 357.031 105.339 357.43C105.355 357.628 105.372 357.835 105.385 358.062C105.498 359.775 105.623 361.513 105.76 363.238C105.822 363.609 105.883 363.973 105.955 364.348L105.956 364.351L105.957 364.355C106.055 364.904 106.161 365.456 106.266 366.011C106.667 368.111 107.076 370.25 107.146 372.437L107.146 372.439L107.146 372.441C107.185 373.982 107.046 375.532 106.481 376.919L106.437 377.027L106.35 377.104C105.157 378.169 103.853 379.124 102.301 379.782L102.3 379.783C99.4458 380.987 96.1269 381.029 93.1884 380.878L93.1867 380.878C90.4185 380.726 87.4875 380.396 84.7971 379.508C83.6797 379.149 82.1711 378.361 81.008 377.317L80.9198 377.238L80.8762 377.127C80.6451 376.543 80.4834 375.894 80.416 375.145C80.1496 372.78 81.1475 369.967 82.3356 368.054C82.3799 367.981 82.4242 367.907 82.4683 367.835C82.579 367.652 82.6885 367.471 82.7934 367.287L82.8155 367.249L82.8441 367.215C83.2155 366.77 83.5924 366.346 83.9639 365.929C84.7176 365.082 85.4494 364.259 86.069 363.334L86.0697 363.333C86.9123 362.081 87.4701 360.74 87.861 359.263C88.0547 358.499 88.1769 357.708 88.303 356.888C88.3183 356.779 88.3215 356.586 88.3263 356.296C88.3265 356.282 88.3267 356.268 88.327 356.254C88.3319 355.96 88.3395 355.603 88.3739 355.25C88.4078 354.902 88.4706 354.526 88.6005 354.201C88.7291 353.879 88.9553 353.531 89.3615 353.374L89.4897 353.325L89.6252 353.347C89.6592 353.353 89.6969 353.359 89.7385 353.365L89.7401 353.365C89.7798 353.372 89.8233 353.378 89.8641 353.385L89.8686 353.386L89.873 353.387C90.1235 353.433 90.4413 353.517 90.7324 353.675C91.5181 353.061 92.4814 352.68 93.4505 352.455ZM93.679 353.434C92.6773 353.668 91.7658 354.066 91.1036 354.678L90.7575 354.998L90.4158 354.673C90.2734 354.538 90.0054 354.435 89.6942 354.377C89.6801 354.374 89.6653 354.372 89.6499 354.369C89.616 354.408 89.5759 354.471 89.5347 354.574C89.4568 354.769 89.4056 355.035 89.3751 355.348C89.345 355.655 89.3377 355.976 89.3328 356.271C89.3323 356.297 89.3319 356.324 89.3315 356.351C89.3276 356.6 89.3236 356.858 89.2985 357.033L89.2981 357.036L89.2959 357.05C89.1714 357.86 89.0426 358.697 88.8354 359.513L88.8348 359.515L88.8342 359.517C88.4204 361.082 87.8217 362.531 86.9045 363.894C86.247 364.876 85.4358 365.788 84.6566 366.665C84.3072 367.058 83.9642 367.444 83.6444 367.826C83.5392 368.008 83.4277 368.192 83.3222 368.367C83.2789 368.438 83.2366 368.508 83.1962 368.575L83.1942 368.579L83.1921 368.582C82.0685 370.39 81.1822 372.978 81.4162 375.037L81.4169 375.043L81.4174 375.049C81.4718 375.658 81.5959 376.18 81.7695 376.647C82.8069 377.551 84.1398 378.24 85.1068 378.551L85.1086 378.552L85.1105 378.552C87.6753 379.399 90.5024 379.723 93.2407 379.873C96.1616 380.023 99.2803 379.965 101.908 378.856C103.287 378.272 104.472 377.421 105.592 376.432C106.048 375.253 106.177 373.9 106.141 372.468C106.073 370.368 105.684 368.33 105.286 366.24C105.178 365.677 105.07 365.109 104.967 364.536C104.891 364.141 104.827 363.759 104.765 363.385L104.761 363.361L104.759 363.339C104.621 361.601 104.495 359.851 104.381 358.127L104.381 358.125L104.381 358.123C104.371 357.942 104.356 357.758 104.341 357.571C104.306 357.143 104.271 356.698 104.28 356.235L104.28 356.233L104.28 356.23C104.284 356.075 104.307 355.871 104.328 355.683C104.338 355.592 104.347 355.505 104.354 355.429C104.379 355.153 104.377 354.967 104.35 354.864C104.349 354.863 104.348 354.861 104.347 354.859L104.345 354.854C104.343 354.849 104.339 354.841 104.335 354.832C104.328 354.816 104.316 354.789 104.305 354.757L104.28 354.679V354.65C103.899 354.35 103.538 354.111 103.158 353.983C102.81 354.055 102.469 354.167 102.244 354.259L102.243 354.259L102.241 354.26C101.845 354.419 101.493 354.622 101.174 354.862L100.767 355.167L100.467 354.757C100.118 354.283 99.4758 353.893 98.7193 353.614C97.9736 353.34 97.1892 353.2 96.6391 353.177C95.7303 353.14 94.6768 353.201 93.679 353.434Z" fill="#2C2C2C"/>
<path d="M135.854 376.44C135.854 376.44 135.124 378.791 134.898 379.156C134.672 379.521 128.9 381.507 121.858 381.356C114.54 381.206 111.195 379.08 111.095 376.427H135.854V376.44Z" fill="#50BFD7"/>
<path fill-rule="evenodd" clip-rule="evenodd" d="M110.572 375.924H136.357V376.516L136.334 376.589L135.854 376.44C136.334 376.589 136.334 376.589 136.334 376.589L136.334 376.589L136.334 376.589L136.326 376.616C136.32 376.634 136.312 376.659 136.302 376.692C136.281 376.758 136.252 376.852 136.215 376.965C136.143 377.193 136.044 377.5 135.938 377.82C135.832 378.139 135.718 378.473 135.615 378.752C135.52 379.009 135.414 379.278 135.325 379.421C135.275 379.502 135.213 379.557 135.178 379.585C135.137 379.618 135.094 379.647 135.054 379.671C134.974 379.72 134.878 379.77 134.772 379.818C134.558 379.917 134.27 380.03 133.919 380.15C133.216 380.393 132.235 380.675 131.043 380.94C128.661 381.471 125.417 381.936 121.848 381.859M135.171 376.93H111.67C111.888 377.827 112.602 378.684 113.995 379.38C115.664 380.215 118.246 380.779 121.869 380.854L121.869 380.854C125.342 380.928 128.504 380.475 130.825 379.959C131.985 379.7 132.929 379.427 133.592 379.199C133.924 379.085 134.178 378.984 134.351 378.904C134.418 378.874 134.467 378.849 134.501 378.83C134.512 378.805 134.525 378.775 134.54 378.74C134.578 378.65 134.622 378.536 134.671 378.404C134.768 378.139 134.879 377.817 134.983 377.502C135.05 377.301 135.114 377.105 135.171 376.93ZM110.572 375.924L110.592 376.446L110.572 375.924ZM110.592 376.446C110.652 378.017 111.679 379.347 113.545 380.28L110.592 376.446ZM113.545 380.28C115.402 381.209 118.152 381.783 121.848 381.859L113.545 380.28Z" fill="#2C2C2C"/>
<path d="M135.841 376.943C134.735 377.936 133.289 378.691 132.232 379.03C129.604 379.898 126.725 380.225 123.971 380.376C121.041 380.526 117.822 380.476 115.081 379.319C113.597 378.691 112.34 377.773 111.17 376.729C110.642 375.434 110.504 373.963 110.541 372.454C110.629 369.738 111.246 367.11 111.723 364.444C111.799 364.054 111.862 363.677 111.925 363.3C112.063 361.564 112.189 359.816 112.302 358.094C112.352 357.452 112.415 356.887 112.402 356.245C112.39 355.818 112.239 355.126 112.352 354.724C112.365 354.674 112.39 354.636 112.402 354.598C112.402 354.535 112.39 354.472 112.402 354.409C112.893 354.007 113.396 353.63 113.999 353.466C114.427 353.542 114.854 353.68 115.131 353.793C115.571 353.969 115.961 354.196 116.313 354.46C117.181 353.278 119.318 352.724 120.526 352.674C122.412 352.599 124.927 352.926 126.423 354.309C126.674 354.07 127.064 353.944 127.404 353.881C127.479 353.869 127.567 353.856 127.643 353.844C128.523 354.183 128.297 356.346 128.385 356.962C128.51 357.779 128.636 358.597 128.837 359.389C129.24 360.91 129.818 362.306 130.698 363.614C131.641 365.022 132.874 366.242 133.955 367.537C134.106 367.801 134.269 368.065 134.42 368.317C135.577 370.178 136.52 372.881 136.269 375.094C136.206 375.799 136.055 376.402 135.841 376.943Z" fill="#50BFD7"/>
<path fill-rule="evenodd" clip-rule="evenodd" d="M123.506 353.434C122.508 353.201 121.455 353.14 120.546 353.177C119.996 353.2 119.212 353.34 118.466 353.614C117.709 353.893 117.067 354.283 116.719 354.757L116.418 355.167L116.011 354.862C115.692 354.622 115.341 354.419 114.944 354.26L114.943 354.259L114.941 354.259C114.716 354.167 114.374 354.054 114.026 353.983C113.64 354.11 113.287 354.347 112.906 354.65V354.679L112.88 354.757C112.869 354.789 112.857 354.816 112.85 354.832C112.846 354.841 112.843 354.849 112.84 354.854C112.838 354.859 112.836 354.862 112.835 354.864C112.808 354.967 112.806 355.153 112.831 355.429C112.838 355.505 112.848 355.592 112.858 355.683C112.878 355.871 112.901 356.075 112.905 356.23L112.905 356.233L112.905 356.235C112.916 356.785 112.874 357.287 112.832 357.791C112.822 357.903 112.813 358.016 112.804 358.13C112.69 359.853 112.565 361.603 112.426 363.339L112.424 363.361L112.42 363.385C112.358 363.759 112.294 364.141 112.218 364.536C112.115 365.109 112.007 365.677 111.9 366.24C111.501 368.33 111.113 370.368 111.044 372.468C111.009 373.9 111.137 375.253 111.594 376.432C112.713 377.421 113.898 378.272 115.277 378.856C117.905 379.965 121.024 380.023 123.944 379.873C126.683 379.723 129.51 379.399 132.075 378.552L132.077 378.552L132.078 378.551C133.045 378.24 134.378 377.551 135.416 376.647C135.589 376.18 135.713 375.658 135.768 375.049L135.768 375.043L135.769 375.037C136.003 372.978 135.117 370.39 133.993 368.582L133.991 368.579L133.989 368.575C133.949 368.508 133.906 368.438 133.863 368.367C133.758 368.192 133.646 368.008 133.541 367.826C133.221 367.444 132.878 367.058 132.529 366.665C131.749 365.788 130.938 364.876 130.281 363.894C129.363 362.531 128.765 361.082 128.351 359.517L128.35 359.515L128.35 359.513C128.143 358.697 128.014 357.86 127.889 357.05L127.887 357.036L127.887 357.033C127.862 356.858 127.858 356.6 127.854 356.351C127.853 356.324 127.853 356.297 127.852 356.271C127.847 355.976 127.84 355.655 127.81 355.348C127.78 355.035 127.728 354.769 127.65 354.574C127.609 354.471 127.569 354.408 127.535 354.369C127.52 354.372 127.505 354.374 127.491 354.377C127.18 354.435 126.912 354.538 126.769 354.673L126.428 354.998L126.082 354.678C125.419 354.066 124.508 353.668 123.506 353.434ZM126.453 353.675C125.667 353.061 124.704 352.68 123.735 352.455C122.63 352.197 121.483 352.132 120.505 352.171L120.505 352.171C119.848 352.199 118.96 352.36 118.118 352.67C117.441 352.92 116.745 353.283 116.23 353.791C115.949 353.614 115.647 353.458 115.32 353.327C115.015 353.203 114.554 353.053 114.087 352.971L113.976 352.951L113.868 352.981C113.151 353.175 112.575 353.617 112.083 354.02L111.945 354.134L111.909 354.311C111.894 354.39 111.893 354.46 111.895 354.507C111.885 354.531 111.875 354.561 111.866 354.593C111.784 354.893 111.805 355.25 111.829 355.52C111.841 355.648 111.853 355.759 111.865 355.859C111.882 356.012 111.896 356.139 111.9 356.258C111.909 356.749 111.872 357.189 111.831 357.688C111.821 357.806 111.81 357.928 111.8 358.054L111.8 358.057L111.8 358.061C111.687 359.774 111.562 361.512 111.425 363.238C111.363 363.609 111.302 363.973 111.23 364.348L111.229 364.351L111.228 364.355C111.13 364.904 111.025 365.456 110.919 366.011C110.518 368.111 110.11 370.25 110.039 372.437L110.039 372.439L110.039 372.441C110 373.982 110.139 375.532 110.704 376.919L110.748 377.027L110.835 377.104C112.028 378.169 113.332 379.124 114.885 379.782L114.885 379.783C117.739 380.987 121.058 381.029 123.997 380.878L123.998 380.878C126.767 380.726 129.698 380.396 132.388 379.508C133.505 379.149 135.014 378.361 136.177 377.317L136.265 377.238L136.309 377.127C136.54 376.543 136.702 375.894 136.769 375.145C137.036 372.78 136.038 369.967 134.85 368.054C134.805 367.981 134.761 367.908 134.717 367.835C134.606 367.652 134.497 367.471 134.392 367.287L134.37 367.249L134.341 367.215C133.97 366.77 133.593 366.346 133.221 365.929C132.468 365.082 131.736 364.259 131.116 363.334L131.116 363.333C130.273 362.081 129.715 360.74 129.324 359.263C129.131 358.499 129.008 357.708 128.882 356.888C128.867 356.779 128.864 356.586 128.859 356.296L128.858 356.254C128.853 355.96 128.846 355.603 128.811 355.25C128.777 354.902 128.715 354.526 128.585 354.201C128.456 353.879 128.23 353.531 127.824 353.374L127.696 353.325L127.56 353.347C127.526 353.353 127.488 353.359 127.447 353.365L127.445 353.365C127.405 353.372 127.362 353.378 127.321 353.385L127.317 353.386L127.312 353.387C127.062 353.433 126.744 353.517 126.453 353.675ZM111.932 354.42C111.932 354.42 111.932 354.42 111.932 354.42V354.42Z" fill="#2C2C2C"/>
<path fill-rule="evenodd" clip-rule="evenodd" d="M73.1954 56.8364V57.0879H72.1895V56.8364H73.1954Z" fill="#2C2C2C"/>
<path fill-rule="evenodd" clip-rule="evenodd" d="M78.4767 59.6025V59.854H77.4707V59.6025H78.4767Z" fill="#2C2C2C"/>
<path d="M107.084 58.119C108.806 58.4836 108.165 59.6027 108.165 59.7662C108.165 59.9297 108.806 69.2347 117.118 71.6867C125.43 74.1387 130.409 69.3227 131.855 66.9085C133.301 64.4942 134.508 58.7602 134.861 58.3201C135.225 57.88 136.948 57.113 136.948 57.113L137.149 54.8622L134.986 54.2209C134.986 54.2209 129.529 51.7312 121.494 51.618C113.471 51.4923 108.932 56.1196 108.932 56.1196C106.669 55.4029 103.865 55.3023 101.299 56.1196C101.299 56.1196 96.7601 51.5048 88.7376 51.618C80.7152 51.7437 75.2453 54.2209 75.2453 54.2209L73.0825 54.8622L73.2837 57.113C73.2837 57.113 75.0064 57.88 75.3711 58.3201C75.7357 58.7602 76.9303 64.5067 78.3763 66.9085C79.8224 69.3227 84.8019 74.1387 93.1135 71.6867C101.425 69.2347 102.066 59.9297 102.066 59.7662C102.066 59.6027 101.425 58.4836 103.148 58.119C104.644 57.8046 105.587 57.8046 107.084 58.119ZM127.027 69.7628C120.689 73.5729 113.094 69.7251 110.806 64.7079C108.517 59.6908 110.441 57.0376 110.441 57.0376C114.276 50.8007 129.705 50.5366 132.358 57.2765C132.811 58.4082 133.377 65.9528 127.027 69.7628ZM77.8608 57.2765C80.514 50.524 95.9553 50.8007 99.778 57.0376C99.778 57.0376 101.702 59.6908 99.4133 64.7079C97.1248 69.7251 89.5424 73.5729 83.1923 69.7628C76.8548 65.9528 77.4207 58.4082 77.8608 57.2765Z" fill="#2C2C2C"/>
<path d="M110.969 125.643H101.312C98.7465 125.643 96.6592 127.731 96.6592 130.296V139.953C96.6592 142.518 98.7465 144.606 101.312 144.606H110.969C113.534 144.606 115.621 142.518 115.621 139.953V130.296C115.621 127.731 113.547 125.643 110.969 125.643ZM94.094 121.531C92.6228 121.531 91.4282 122.726 91.4282 124.197C91.4282 125.668 92.6228 126.863 94.094 126.863C95.5652 126.863 96.7598 125.668 96.7598 124.197C96.7598 122.726 95.5652 121.531 94.094 121.531Z" fill="white"/>
<path d="M110.29 131.402C109.674 129.755 108.102 128.661 106.342 128.661H103.726L108.894 141.764H114.44L110.29 131.402ZM99.7277 138.004L98.2188 141.764H103.726L106.292 135.263H103.676C101.916 135.263 100.344 136.357 99.7277 138.004ZM100.583 131.918C101.488 131.918 102.23 131.176 102.23 130.271C102.23 129.365 101.488 128.624 100.583 128.624C99.6774 128.624 98.9355 129.365 98.9355 130.271C98.9355 131.176 99.6774 131.918 100.583 131.918Z" fill="#50BFD7"/>
<path fill-rule="evenodd" clip-rule="evenodd" d="M110.649 89.7379C105.158 86.4373 100.719 88.3973 99.2698 89.6558C98.934 89.9474 98.4254 89.9115 98.1338 89.5757C97.8422 89.2399 97.878 88.7313 98.2139 88.4397C100.125 86.7803 105.32 84.6551 111.479 88.3575C111.86 88.5867 111.983 89.0814 111.754 89.4626C111.525 89.8438 111.03 89.9671 110.649 89.7379Z" fill="#2C2C2C"/>
</svg>
