<svg width="560" height="382" viewBox="0 0 560 382" fill="none" xmlns="http://www.w3.org/2000/svg">
<path d="M2.30659 220.374C-3.79764 175.604 1.48942 130.296 26.9197 91.6346C56.068 47.3849 102.238 16.1151 151.317 7.24363C160.061 5.65255 168.906 4.81577 177.769 4.74096C198.924 4.58297 219.958 8.26242 240.021 15.6307C273.892 28.1889 303.008 50.067 329.337 76.179C341.031 87.7684 352.446 102.641 367.932 108.023C384.005 113.656 401.297 106.408 416.962 101.977C446.323 93.6708 489.42 75.7305 518.675 92.7738C557.081 115.199 568.522 164.535 553.813 203.106C539.104 241.678 494.16 244.369 489.256 273.97C484.353 303.572 460.656 347.525 409.174 343.04C357.693 338.555 338.081 290.117 305.394 304.469C293.896 309.519 284.867 318.821 275.085 326.813C261.463 337.972 246.689 345.57 229.92 349.068C205.945 354.074 179.763 351.427 155.558 350.154C127.774 348.682 97.8825 349.804 70.9078 339.147C41.9474 327.692 23.6592 302.594 13.845 271.127C8.61105 254.626 4.74915 237.639 2.30659 220.374V220.374Z" fill="#CAECF3"/>
<path d="M312.006 270.738H415.995C417.982 270.738 419.888 269.948 421.293 268.543C422.698 267.138 423.487 265.233 423.487 263.246V70.8497C423.487 68.8627 422.698 66.9571 421.293 65.552C419.888 64.147 417.982 63.3577 415.995 63.3577H115.114C113.127 63.3577 111.222 64.147 109.817 65.552C108.412 66.9571 107.622 68.8627 107.622 70.8497V263.246C107.622 265.233 108.412 267.138 109.817 268.543C111.222 269.948 113.127 270.738 115.114 270.738H219.104" stroke="black" stroke-linecap="round" stroke-linejoin="round"/>
<path d="M416.298 71.7488H114.218V248.561H416.298V71.7488Z" stroke="black" stroke-linecap="round" stroke-linejoin="round"/>
<path d="M312.007 270.738H219.106V291.686H312.007V270.738Z" stroke="black" stroke-linecap="round" stroke-linejoin="round"/>
<path d="M312.008 291.686H328.191V299.681H202.923V291.686H219.106" stroke="black" stroke-linecap="round" stroke-linejoin="round"/>
<path d="M83.5354 299.681H70.3494" stroke="#2C2C2C" stroke-width="0.75" stroke-miterlimit="10" stroke-linecap="round"/>
<path d="M417.38 299.681H90.726" stroke="#2C2C2C" stroke-width="0.75" stroke-miterlimit="10" stroke-linecap="round"/>
<path d="M442.554 299.681H421.576" stroke="#2C2C2C" stroke-width="0.75" stroke-miterlimit="10" stroke-linecap="round"/>
<path d="M431.41 231.245L440.684 216.964L384.497 180.476L375.223 194.757L431.41 231.245Z" fill="#C7C7C7"/>
<path d="M477.02 266.06L491.045 244.46L432.848 206.659L418.823 228.26L477.02 266.06Z" fill="#2C2C2C"/>
<path d="M385.033 142.55L385.059 142.943L385.1 143.544C385.153 144.289 385.203 145.021 385.221 145.735C385.281 145.959 385.238 146.197 385.233 146.425C385.331 150.005 385.129 153.587 384.627 157.133C384.594 157.408 384.561 157.683 384.512 157.949C383.866 162.245 382.794 166.466 381.311 170.551L381.126 171.053C377.818 179.944 372.647 188.026 365.96 194.756L365.522 195.207C361.579 199.09 357.172 202.471 352.401 205.274L350.599 206.302C344.783 209.488 338.516 211.769 332.013 213.067L331.566 213.187C328.85 213.712 326.104 214.07 323.344 214.258C322.456 214.323 321.561 214.363 320.71 214.364C319.858 214.366 319.131 214.388 318.345 214.385C311.179 214.346 304.067 213.135 297.292 210.799C296.94 210.68 296.561 210.556 296.203 210.412C294.818 209.917 293.458 209.363 292.113 208.765L291.415 208.446C286.096 206.026 281.123 202.907 276.627 199.173L275.994 198.65C275.722 198.43 275.459 198.194 275.2 197.971C270.71 194.048 266.762 189.545 263.462 184.579C263.219 184.218 262.988 183.853 262.744 183.439C261.387 181.298 260.148 179.082 259.036 176.804C258.976 176.58 258.845 176.389 258.735 176.178C255.238 168.7 253.163 160.637 252.616 152.399L252.564 151.508L252.537 150.809C252.002 139.122 254.593 127.502 260.041 117.148C262.487 112.523 265.461 108.196 268.903 104.255C270.189 102.827 271.538 101.432 272.948 100.069C280.401 92.9371 289.412 87.6381 299.267 84.5911C309.122 81.5441 319.551 80.8327 329.729 82.5133C339.907 84.1939 349.554 88.2203 357.906 94.2738C366.259 100.327 373.088 108.242 377.853 117.391C377.922 117.503 377.98 117.621 378.027 117.744C381.974 125.47 384.355 133.9 385.033 142.55V142.55Z" fill="white"/>
<path d="M352.399 205.274L350.597 206.303L320.657 214.325C319.865 214.351 319.079 214.349 318.293 214.346L331.424 210.828L352.399 205.274Z" fill="#EBEBEB"/>
<path d="M356.921 150.096C357.081 150.693 357.06 151.324 356.861 151.909C356.663 152.495 356.295 153.008 355.805 153.384C355.314 153.761 354.723 153.983 354.106 154.023C353.49 154.064 352.875 153.92 352.339 153.611C351.804 153.302 351.372 152.841 351.099 152.287C350.826 151.733 350.723 151.11 350.803 150.497C350.884 149.884 351.145 149.309 351.552 148.844C351.96 148.379 352.496 148.046 353.093 147.886C353.49 147.78 353.903 147.753 354.31 147.806C354.717 147.86 355.109 147.993 355.465 148.198C355.82 148.403 356.132 148.677 356.381 149.002C356.631 149.328 356.815 149.699 356.921 150.096Z" fill="white"/>
<path d="M361.575 167.463C361.735 168.06 361.714 168.691 361.516 169.276C361.317 169.862 360.949 170.375 360.459 170.751C359.968 171.128 359.377 171.35 358.76 171.39C358.144 171.431 357.529 171.287 356.993 170.978C356.458 170.669 356.026 170.208 355.753 169.654C355.48 169.1 355.377 168.477 355.458 167.864C355.538 167.251 355.799 166.676 356.206 166.211C356.614 165.746 357.15 165.413 357.747 165.253C358.548 165.038 359.401 165.151 360.119 165.565C360.837 165.98 361.36 166.662 361.575 167.463Z" fill="white"/>
<path d="M324.071 225.421C308.754 226.461 293.473 222.935 280.161 215.288C266.848 207.642 256.103 196.219 249.284 182.464C242.464 168.71 239.878 153.242 241.851 138.017C243.825 122.792 250.27 108.495 260.37 96.9333C270.471 85.3719 283.774 77.0661 298.596 73.0665C313.418 69.0669 329.093 69.5533 343.638 74.4641C358.184 79.375 370.946 88.4896 380.311 100.655C389.675 112.82 395.221 127.49 396.247 142.808C397.6 163.327 390.763 183.545 377.233 199.031C363.704 214.517 344.586 224.007 324.071 225.421V225.421ZM323.476 216.539C337.031 215.628 350.011 210.717 360.775 202.428C371.54 194.139 379.604 182.845 383.95 169.973C388.295 157.101 388.726 143.229 385.188 130.112C381.65 116.995 374.302 105.222 364.073 96.2807C353.844 87.3397 341.194 81.6326 327.722 79.8811C314.249 78.1295 300.56 80.4122 288.385 86.4404C276.21 92.4686 266.096 101.972 259.321 113.748C252.547 125.524 249.417 139.045 250.326 152.6C251.563 170.773 259.96 187.713 273.675 199.701C287.389 211.689 305.3 217.745 323.476 216.539V216.539Z" fill="#37474F"/>
<path d="M381.117 113.773C377.097 106.513 371.844 100.009 365.593 94.551C351.414 82.1605 332.894 75.9102 314.106 77.1749C295.319 78.4397 277.803 87.1159 265.413 101.295C253.022 115.474 246.772 133.995 248.037 152.782C249.301 171.57 257.978 189.085 272.157 201.476C282.725 210.728 295.801 216.636 309.729 218.452C323.657 220.268 337.81 217.911 350.398 211.678C362.985 205.445 373.44 195.618 380.438 183.439C387.437 171.261 390.664 157.28 389.712 143.267C389.051 132.923 386.117 122.852 381.117 113.773V113.773ZM385.099 143.544C386.148 158.889 381.842 174.124 372.916 186.65C363.99 199.176 350.996 208.219 336.149 212.237C321.302 216.255 305.52 214.999 291.495 208.684C277.47 202.369 266.07 191.385 259.236 177.605C252.403 163.825 250.561 148.102 254.023 133.115C257.485 118.129 266.038 104.807 278.223 95.4203C290.408 86.0338 305.472 81.1638 320.845 81.6405C336.219 82.1172 350.952 87.911 362.532 98.0343C375.786 109.616 383.906 125.981 385.111 143.541L385.099 143.544ZM381.117 113.773C377.097 106.513 371.844 100.009 365.593 94.551C351.414 82.1605 332.894 75.9102 314.106 77.1749C295.319 78.4397 277.803 87.1159 265.413 101.295C253.022 115.474 246.772 133.995 248.037 152.782C249.301 171.57 257.978 189.085 272.157 201.476C282.725 210.728 295.801 216.636 309.729 218.452C323.657 220.268 337.81 217.911 350.398 211.678C362.985 205.445 373.44 195.618 380.438 183.439C387.437 171.261 390.664 157.28 389.712 143.267C389.051 132.923 386.117 122.852 381.117 113.773V113.773ZM385.099 143.544C386.148 158.889 381.842 174.124 372.916 186.65C363.99 199.176 350.996 208.219 336.149 212.237C321.302 216.255 305.52 214.999 291.495 208.684C277.47 202.369 266.07 191.385 259.236 177.605C252.403 163.825 250.561 148.102 254.023 133.115C257.485 118.129 266.038 104.807 278.223 95.4203C290.408 86.0338 305.472 81.1638 320.845 81.6405C336.219 82.1172 350.952 87.911 362.532 98.0343C375.786 109.616 383.906 125.981 385.111 143.541L385.099 143.544ZM388.891 109.493C379.415 92.2455 363.905 79.1036 345.335 72.5879C326.766 66.0721 306.445 66.6412 288.269 74.186C270.094 81.7308 255.344 95.7201 246.848 113.471C238.352 131.222 236.708 151.484 242.232 170.372C247.756 189.26 260.058 205.444 276.78 215.82C293.502 226.195 313.466 230.032 332.842 226.595C352.219 223.157 369.645 212.687 381.777 197.192C393.909 181.698 399.894 162.269 398.583 142.634C397.816 131.011 394.512 119.698 388.903 109.49L388.891 109.493ZM393.98 142.948C395.231 161.465 389.601 179.791 378.17 194.411C366.739 209.032 350.313 218.918 332.042 222.172C313.771 225.426 294.942 221.821 279.166 212.046C263.39 202.271 251.779 187.016 246.559 169.207C241.338 151.398 242.877 132.288 250.88 115.544C258.883 98.7996 272.786 85.5994 289.923 78.4754C307.06 71.3515 326.224 70.8053 343.738 76.9417C361.253 83.0781 375.885 95.465 384.829 111.726C390.135 121.335 393.263 131.993 393.993 142.945L393.98 142.948ZM365.593 94.551C351.414 82.1605 332.894 75.9102 314.106 77.1749C295.319 78.4397 277.803 87.1159 265.413 101.295C253.022 115.474 246.772 133.995 248.037 152.782C249.301 171.57 257.978 189.085 272.157 201.476C282.725 210.728 295.801 216.636 309.729 218.452C323.657 220.268 337.81 217.911 350.398 211.678C362.985 205.445 373.44 195.618 380.438 183.439C387.437 171.261 390.664 157.28 389.712 143.267C389.045 132.937 386.109 122.88 381.114 113.814C377.099 106.54 371.847 100.021 365.593 94.551V94.551ZM385.111 143.541C386.16 158.886 381.855 174.12 372.929 186.647C364.003 199.173 351.008 208.216 336.161 212.234C321.314 216.252 305.533 214.996 291.508 208.681C277.483 202.366 266.082 191.382 259.249 177.602C252.416 163.822 250.573 148.098 254.036 133.112C257.498 118.125 266.05 104.803 278.235 95.417C290.421 86.0305 305.484 81.1605 320.858 81.6372C336.232 82.1138 350.964 87.9076 362.545 98.0309C375.794 109.616 383.91 125.982 385.111 143.541V143.541Z" fill="#37474F"/>
<path d="M281.384 109.792C286.233 104.586 292.123 100.458 298.67 97.6767C301.976 96.2109 305.422 95.0866 308.956 94.3214C312.534 93.5567 316.178 93.1422 319.836 93.0839C327.216 93.0469 334.523 94.5542 341.287 97.5088C347.953 100.408 354.021 104.52 359.184 109.637C353.123 106.034 346.716 103.049 340.059 100.727C336.806 99.6585 333.473 98.8508 330.091 98.3118C326.748 97.7318 323.356 97.4723 319.964 97.5368C313.178 97.6053 306.445 98.7355 300.01 100.886C293.464 103.091 287.21 106.082 281.384 109.792V109.792Z" fill="#C0E2E9"/>
<path d="M412.636 261.716L396.261 324.272H432.781L416.406 261.716C416.306 261.291 416.066 260.912 415.724 260.641C415.382 260.369 414.958 260.222 414.521 260.222C414.084 260.222 413.66 260.369 413.318 260.641C412.976 260.912 412.735 261.291 412.636 261.716V261.716Z" fill="#2E9DB6" stroke="#2C2C2C" stroke-linecap="round" stroke-linejoin="round"/>
<path d="M396.261 324.272H426.014L411.138 267.434L396.261 324.272Z" fill="#2C2C2C" stroke="#2C2C2C" stroke-linecap="round" stroke-linejoin="round"/>
<path d="M436.467 322.9H390.916C389.592 322.9 388.518 323.973 388.518 325.297V325.603C388.518 326.927 389.592 328 390.916 328H436.467C437.791 328 438.865 326.927 438.865 325.603V325.297C438.865 323.973 437.791 322.9 436.467 322.9Z" fill="#2E9DB6" stroke="#2C2C2C" stroke-linecap="round" stroke-linejoin="round"/>
<path d="M420.878 322.9H390.916C389.592 322.9 388.518 323.973 388.518 325.297V325.603C388.518 326.927 389.592 328 390.916 328H420.878C422.202 328 423.275 326.927 423.275 325.603V325.297C423.275 323.973 422.202 322.9 420.878 322.9Z" fill="#2C2C2C" stroke="#2C2C2C" stroke-linecap="round" stroke-linejoin="round"/>
<path d="M402.796 299.321H426.249L423.414 288.484H405.631L402.796 299.321Z" fill="white" stroke="#2C2C2C" stroke-linecap="round" stroke-linejoin="round"/>
<path d="M402.796 299.321H419.489L416.654 288.484H405.631L402.796 299.321Z" fill="#BABABA" stroke="#2C2C2C" stroke-linecap="round" stroke-linejoin="round"/>
<path d="M85.14 45.9792C83.1281 54.2783 87.6549 84.4568 95.0738 95.8744C95.0738 95.8744 116.576 109.832 183.736 101.91C183.736 101.91 172.872 98.4396 183.044 58.6416C183.258 57.7866 183.484 56.9315 183.723 56.0387C185.106 50.8832 174.984 42.0434 173.161 38.9375C160.021 16.6431 85.14 45.9792 85.14 45.9792Z" fill="#2C2C2C"/>
<path d="M150.653 193.276C150.653 193.276 139.436 194.596 137.085 194.596C137.06 194.596 137.035 194.596 137.009 194.596C136.997 194.596 136.984 194.596 136.972 194.596C136.959 194.596 136.947 194.596 136.934 194.596C136.909 194.596 136.884 194.596 136.859 194.596C134.495 194.596 123.291 193.276 123.291 193.276C108.34 197.991 109.409 219.808 109.421 220.424C109.522 224.925 109.585 229.44 109.698 233.941C109.962 244.541 112.665 276.292 113.357 286.389C113.42 287.219 113.458 287.911 113.483 288.426C114.614 311.085 115.734 333.744 116.865 356.403C116.966 358.39 117.066 360.389 117.167 362.376C117.167 362.376 122.423 365.645 132.734 362.376L132.822 288.778L135.689 234.092C135.689 234.092 136.217 234.017 136.846 233.954C136.884 233.954 136.921 233.966 136.972 233.966V233.979C136.984 233.979 136.997 233.979 137.009 233.979C137.022 233.979 137.035 233.979 137.047 233.979V233.966C137.085 233.966 137.123 233.954 137.173 233.954C137.802 234.017 138.33 234.092 138.33 234.092L141.197 288.778L141.285 362.376C151.596 365.645 156.852 362.376 156.852 362.376C156.952 360.389 157.053 358.39 157.154 356.403C158.285 333.744 159.392 311.085 160.536 288.426C160.561 287.911 160.599 287.219 160.662 286.389C161.341 276.304 164.057 244.541 164.321 233.941C164.434 229.44 164.497 224.925 164.598 220.424C164.535 219.808 165.591 197.991 150.653 193.276Z" fill="#2C2C2C"/>
<path d="M62.8141 149.053C62.8141 149.053 59.7779 146.795 59.2352 144.548C58.6809 142.296 58.2452 141.216 54.5827 137.17C50.9546 133.141 50.3173 129.761 50.3173 129.761C50.3173 129.761 45.8438 131.228 51.2826 137.692C54.6098 141.654 40.78 135.037 36.7882 132.664C36.7882 132.664 33.7582 132.894 36.8978 136.661C40.0375 140.429 36.098 138.825 42.5408 145.785C48.9669 152.751 57.6195 158.792 61.7164 154.863C65.8018 150.929 62.8141 149.053 62.8141 149.053Z" fill="#E0E0E0"/>
<path fill-rule="evenodd" clip-rule="evenodd" d="M50.3174 129.76L50.1606 129.282L50.7054 129.104L50.8115 129.666L50.8115 129.666L50.8116 129.667L50.8123 129.671C50.8132 129.675 50.8148 129.682 50.8171 129.693C50.8217 129.715 50.8293 129.748 50.8404 129.794C50.8627 129.885 50.8993 130.024 50.9545 130.204C51.0651 130.565 51.2506 131.093 51.5474 131.746C52.1409 133.052 53.1798 134.86 54.956 136.833C56.7894 138.858 57.8426 140.17 58.5056 141.272C59.18 142.393 59.442 143.283 59.7236 144.428L59.7239 144.429L59.7241 144.43C59.9615 145.413 60.7706 146.456 61.5878 147.291C61.9872 147.699 62.3711 148.041 62.6552 148.28C62.797 148.399 62.9134 148.493 62.9936 148.556C63.0337 148.587 63.0646 148.611 63.0852 148.627C63.0927 148.632 63.0988 148.637 63.1035 148.641C63.1082 148.644 63.1135 148.647 63.1194 148.651C63.1246 148.655 63.1302 148.659 63.1363 148.663C63.165 148.683 63.2034 148.712 63.2489 148.748C63.3397 148.821 63.4604 148.927 63.589 149.068C63.8454 149.35 64.1426 149.78 64.2858 150.362C64.5821 151.567 64.1754 153.194 62.0654 155.225L62.0646 155.226C60.9148 156.329 59.4528 156.715 57.8542 156.583C56.2699 156.452 54.5334 155.814 52.762 154.852C49.217 152.925 45.4045 149.631 42.1712 146.126C38.9453 142.641 38.2349 141.217 37.9901 140.137C37.9471 139.947 37.9181 139.764 37.8928 139.603C37.8843 139.55 37.8763 139.499 37.8683 139.452C37.8348 139.253 37.7966 139.07 37.724 138.865C37.5789 138.455 37.277 137.902 36.5115 136.983C35.7057 136.016 35.2574 135.233 35.0726 134.585C34.8826 133.92 34.9673 133.376 35.2519 132.964C35.5209 132.575 35.9165 132.38 36.2011 132.283C36.3482 132.233 36.4802 132.203 36.5762 132.186C36.6245 132.178 36.6647 132.172 36.6944 132.168C36.7092 132.167 36.7215 132.165 36.7309 132.164C36.7356 132.164 36.7396 132.163 36.7428 132.163L36.7471 132.163L36.7488 132.163L36.7496 132.163C36.7499 132.163 36.7503 132.163 36.7883 132.664L36.7503 132.163L36.9087 132.151L37.0453 132.232C39.0176 133.404 43.4507 135.641 46.9713 137.088C48.7499 137.82 50.2286 138.32 51.0392 138.412C51.1006 138.419 51.154 138.423 51.1999 138.424C51.1365 138.319 51.0393 138.184 50.8976 138.015C48.1445 134.743 47.7524 132.564 48.2893 131.126C48.553 130.42 49.0202 129.96 49.4113 129.681C49.6071 129.541 49.7875 129.444 49.921 129.381C49.988 129.35 50.0438 129.326 50.0849 129.31C50.1054 129.302 50.1223 129.296 50.135 129.291C50.1414 129.289 50.1468 129.287 50.151 129.286L50.1567 129.284L50.1588 129.283L50.1598 129.283C50.1602 129.282 50.1606 129.282 50.3174 129.76ZM36.6888 133.189C36.6412 133.2 36.5857 133.215 36.5267 133.235C36.3413 133.298 36.1756 133.397 36.0795 133.536C35.9991 133.652 35.915 133.872 36.0399 134.309C36.1699 134.765 36.5203 135.422 37.2843 136.339C38.0886 137.304 38.4717 137.963 38.6723 138.529C38.7725 138.812 38.8223 139.059 38.8603 139.285C38.8715 139.351 38.8813 139.414 38.8908 139.473C38.9146 139.624 38.9361 139.759 38.9712 139.915C39.1523 140.714 39.6935 141.969 42.9099 145.443L42.9105 145.444C46.1034 148.905 49.8302 152.114 53.2422 153.968C54.9494 154.895 56.5458 155.466 57.9369 155.581C59.3137 155.694 60.4696 155.362 61.3681 154.5C63.343 152.598 63.4852 151.319 63.3089 150.603C63.2159 150.224 63.0215 149.939 62.8454 149.746C62.7577 149.65 62.6769 149.579 62.6203 149.533C62.5921 149.511 62.5703 149.495 62.5572 149.486C62.5506 149.481 62.5463 149.478 62.5444 149.477C62.5435 149.476 62.5432 149.476 62.5436 149.476L62.5299 149.468L62.5141 149.456L62.8142 149.052C62.5141 149.456 62.514 149.456 62.5139 149.456L62.5137 149.456L62.5107 149.453L62.5029 149.448C62.4962 149.443 62.4868 149.435 62.4747 149.426C62.4506 149.408 62.4158 149.381 62.3718 149.346C62.2838 149.277 62.1587 149.177 62.0074 149.049C61.7053 148.795 61.2962 148.432 60.8687 147.995C60.0323 147.14 59.0523 145.931 58.7466 144.667C58.4741 143.56 58.2411 142.784 57.6436 141.791C57.0346 140.778 56.0388 139.528 54.2099 137.508L54.209 137.507C52.3574 135.45 51.2638 133.553 50.6316 132.162C50.3163 131.468 50.1159 130.9 49.9935 130.501C49.7163 130.7 49.4061 131.011 49.2317 131.478C48.8915 132.389 48.982 134.176 51.6675 137.368L51.6678 137.368C51.8881 137.631 52.0593 137.874 52.1659 138.098C52.2653 138.306 52.3536 138.59 52.2538 138.876C52.1412 139.199 51.8621 139.338 51.6397 139.392C51.4214 139.444 51.1718 139.439 50.9267 139.411C49.9552 139.302 48.3508 138.743 46.5888 138.019C43.1182 136.592 38.776 134.41 36.6888 133.189ZM36.8285 133.166C36.8294 133.165 36.8298 133.165 36.8294 133.165L36.8285 133.166Z" fill="#2C2C2C"/>
<path d="M109.381 130.168C109.381 130.168 99.7556 181.033 95.0365 183.903C91.2389 186.217 78.9488 175.616 62.7478 161.313C60.9639 159.644 58.8164 157.094 58.8164 157.094L62.4403 143.404L66.4716 147.645L85.6229 163.634C85.6229 163.634 93.6451 122.146 101.229 121.392C108.825 120.626 109.381 130.168 109.381 130.168Z" fill="#2C2C2C"/>
<path d="M211.292 149.052C211.292 149.052 214.329 146.795 214.871 144.548C215.426 142.296 215.861 141.215 219.524 137.17C223.152 133.14 223.789 129.76 223.789 129.76C223.789 129.76 228.263 131.228 222.824 137.692C219.497 141.654 233.327 135.037 237.318 132.664C237.318 132.664 240.348 132.894 237.209 136.661C234.069 140.428 238.008 138.825 231.566 145.785C225.14 152.751 216.487 158.792 212.39 154.863C208.305 150.929 211.292 149.052 211.292 149.052Z" fill="#E0E0E0"/>
<path fill-rule="evenodd" clip-rule="evenodd" d="M223.789 129.76L223.946 129.282L223.401 129.104L223.295 129.666L223.295 129.666L223.295 129.667L223.294 129.671C223.293 129.675 223.292 129.682 223.289 129.693C223.285 129.715 223.277 129.748 223.266 129.794C223.244 129.885 223.207 130.024 223.152 130.204C223.041 130.565 222.856 131.093 222.559 131.746C221.966 133.052 220.927 134.86 219.15 136.833C217.317 138.858 216.264 140.17 215.601 141.272C214.927 142.393 214.665 143.283 214.383 144.428L214.383 144.429L214.382 144.43C214.145 145.413 213.336 146.456 212.519 147.291C212.119 147.699 211.735 148.041 211.451 148.28C211.309 148.399 211.193 148.493 211.113 148.556C211.073 148.587 211.042 148.611 211.021 148.627C211.014 148.632 211.008 148.637 211.003 148.641C210.998 148.644 210.993 148.647 210.987 148.651C210.982 148.655 210.976 148.659 210.97 148.663C210.942 148.683 210.903 148.712 210.858 148.748C210.767 148.821 210.646 148.927 210.517 149.068C210.261 149.35 209.964 149.78 209.821 150.362C209.524 151.567 209.931 153.194 212.041 155.225L212.042 155.226C213.192 156.329 214.654 156.715 216.252 156.583C217.837 156.452 219.573 155.814 221.344 154.852C224.89 152.925 228.702 149.631 231.935 146.126C235.161 142.641 235.872 141.217 236.116 140.137C236.159 139.947 236.188 139.764 236.214 139.603C236.222 139.55 236.23 139.499 236.238 139.452C236.272 139.253 236.31 139.07 236.382 138.865C236.528 138.455 236.83 137.902 237.595 136.983C238.401 136.016 238.849 135.233 239.034 134.585C239.224 133.92 239.139 133.376 238.855 132.964C238.586 132.575 238.19 132.38 237.905 132.283C237.758 132.233 237.626 132.203 237.53 132.186C237.482 132.178 237.442 132.172 237.412 132.168C237.397 132.167 237.385 132.165 237.376 132.164C237.371 132.164 237.367 132.163 237.364 132.163L237.359 132.163L237.358 132.163L237.357 132.163C237.357 132.163 237.356 132.163 237.318 132.664L237.356 132.163L237.198 132.151L237.061 132.232C235.089 133.404 230.656 135.641 227.135 137.088C225.357 137.82 223.878 138.32 223.067 138.412C223.006 138.419 222.953 138.423 222.907 138.424C222.97 138.319 223.067 138.184 223.209 138.015C225.962 134.743 226.354 132.564 225.817 131.126C225.553 130.42 225.086 129.96 224.695 129.681C224.499 129.541 224.319 129.444 224.185 129.381C224.119 129.35 224.063 129.326 224.022 129.31C224.001 129.302 223.984 129.296 223.971 129.291C223.965 129.289 223.96 129.287 223.955 129.286L223.95 129.284L223.948 129.283L223.947 129.283C223.946 129.282 223.946 129.282 223.789 129.76ZM237.418 133.189C237.465 133.2 237.521 133.215 237.58 133.235C237.765 133.298 237.931 133.397 238.027 133.536C238.107 133.652 238.191 133.872 238.067 134.309C237.937 134.765 237.586 135.422 236.822 136.339C236.018 137.304 235.635 137.963 235.434 138.529C235.334 138.812 235.284 139.059 235.246 139.285C235.235 139.351 235.225 139.414 235.216 139.473C235.192 139.624 235.17 139.759 235.135 139.915C234.954 140.714 234.413 141.969 231.197 145.443L231.196 145.444C228.003 148.905 224.276 152.114 220.864 153.968C219.157 154.895 217.561 155.466 216.17 155.581C214.793 155.694 213.637 155.362 212.738 154.5C210.763 152.598 210.621 151.319 210.798 150.603C210.891 150.224 211.085 149.939 211.261 149.746C211.349 149.65 211.43 149.579 211.486 149.533C211.514 149.511 211.536 149.495 211.549 149.486C211.556 149.481 211.56 149.478 211.562 149.477C211.563 149.476 211.563 149.476 211.563 149.476L211.577 149.468L211.592 149.456L211.292 149.052C211.592 149.456 211.592 149.456 211.593 149.456L211.593 149.456L211.596 149.453L211.604 149.448C211.61 149.443 211.62 149.435 211.632 149.426C211.656 149.408 211.691 149.381 211.735 149.346C211.823 149.277 211.948 149.177 212.099 149.049C212.401 148.795 212.81 148.432 213.238 147.995C214.074 147.14 215.054 145.931 215.36 144.667C215.632 143.56 215.865 142.784 216.463 141.791C217.072 140.778 218.068 139.528 219.897 137.508L219.898 137.507C221.749 135.45 222.843 133.553 223.475 132.162C223.79 131.468 223.991 130.9 224.113 130.501C224.39 130.7 224.7 131.011 224.875 131.478C225.215 132.389 225.124 134.176 222.439 137.368L222.439 137.368C222.218 137.631 222.047 137.874 221.941 138.098C221.841 138.306 221.753 138.59 221.853 138.876C221.965 139.199 222.244 139.338 222.467 139.392C222.685 139.444 222.935 139.439 223.18 139.411C224.151 139.302 225.756 138.743 227.518 138.019C230.988 136.592 235.331 134.41 237.418 133.189ZM237.278 133.166C237.277 133.165 237.277 133.165 237.277 133.165L237.278 133.166Z" fill="#2C2C2C"/>
<path d="M164.725 130.168C164.725 130.168 174.351 181.033 179.07 183.903C182.868 186.217 195.158 175.616 211.359 161.313C213.143 159.644 215.29 157.094 215.29 157.094L211.666 143.404L207.635 147.645L188.484 163.634C188.484 163.634 180.461 122.146 172.878 121.392C165.282 120.626 164.725 130.168 164.725 130.168Z" fill="#2C2C2C"/>
<path d="M184.717 130.491C184.717 138.514 179.461 143.481 171.438 143.481C163.416 143.481 156.915 136.98 156.915 128.957C156.915 120.935 162.976 112.083 170.621 114.484C179.046 117.112 184.717 122.469 184.717 130.491Z" fill="white"/>
<path fill-rule="evenodd" clip-rule="evenodd" d="M161.284 118.137C158.894 120.958 157.418 125.06 157.418 128.958C157.418 136.702 163.693 142.978 171.438 142.978C175.345 142.978 178.53 141.77 180.736 139.633C182.939 137.499 184.214 134.39 184.214 130.492C184.214 122.775 178.782 117.557 170.471 114.965L170.47 114.964C166.897 113.842 163.667 115.325 161.284 118.137ZM170.771 114.004C166.699 112.726 163.076 114.467 160.517 117.487C157.966 120.497 156.412 124.833 156.412 128.958C156.412 137.258 163.138 143.984 171.438 143.984C175.553 143.984 179.008 142.708 181.436 140.356C183.866 138.002 185.22 134.616 185.22 130.492C185.22 122.163 179.31 116.668 170.771 114.004Z" fill="#2C2C2C"/>
<path d="M178.191 128.153C178.191 134.088 174.305 137.76 168.37 137.76C162.435 137.76 157.631 132.956 157.631 127.021C157.631 121.086 162.108 114.535 167.779 116.308C173.991 118.269 178.191 122.23 178.191 128.153Z" fill="#2C2C2C"/>
<path d="M87.2651 130.492C87.2651 138.514 92.5212 143.481 100.544 143.481C108.566 143.481 115.054 136.967 115.054 128.957C115.054 120.948 108.994 112.083 101.348 114.484C92.9361 117.112 87.2651 122.469 87.2651 130.492Z" fill="white"/>
<path fill-rule="evenodd" clip-rule="evenodd" d="M111.452 117.492C114.003 120.504 115.557 124.839 115.557 128.958C115.557 137.244 108.845 143.984 100.544 143.984C96.4283 143.984 92.9741 142.708 90.546 140.356C88.1159 138.002 86.7621 134.616 86.7621 130.492C86.7621 122.163 92.6718 116.668 101.198 114.005C105.27 112.726 108.894 114.471 111.452 117.492ZM110.685 118.142C108.302 115.328 105.072 113.842 101.499 114.964L101.498 114.965C93.2003 117.557 87.7681 122.775 87.7681 130.492C87.7681 134.39 89.0423 137.499 91.2459 139.634C93.4514 141.77 96.6365 142.978 100.544 142.978C108.287 142.978 114.552 136.691 114.552 128.958C114.552 125.066 113.075 120.964 110.685 118.142Z" fill="#2C2C2C"/>
<path d="M93.8038 128.153C93.8038 134.088 97.6893 137.76 103.624 137.76C109.559 137.76 114.363 132.956 114.363 127.021C114.363 121.086 109.886 114.535 104.228 116.308C97.991 118.269 93.8038 122.23 93.8038 128.153Z" fill="#2C2C2C"/>
<path d="M154.274 194.86C145.195 194.03 136.23 193.69 136.23 193.69C132.935 193.791 125.919 194.08 118.676 194.86C120.788 202.078 127.956 207.397 136.469 207.397C144.994 207.409 152.162 202.065 154.274 194.86Z" fill="#50BFD7"/>
<path d="M153.532 195.614C154.312 192.546 169.917 114.358 169.917 114.358C169.917 114.358 128.27 102.061 101.638 114.358L118.714 196.293L153.532 195.614Z" fill="white"/>
<path fill-rule="evenodd" clip-rule="evenodd" d="M170.058 113.876C170.059 113.876 170.059 113.876 169.917 114.359C170.41 114.457 170.41 114.457 170.41 114.458L170.409 114.461L170.234 115.336C170.12 115.909 169.952 116.751 169.738 117.823C169.31 119.967 168.697 123.033 167.959 126.722C166.484 134.1 164.509 143.969 162.51 153.935C158.514 173.851 154.414 194.188 154.02 195.738L153.925 196.11L118.306 196.804L101.064 114.07L101.427 113.902C114.872 107.694 132.056 107.707 145.82 109.247C152.713 110.018 158.769 111.175 163.102 112.138C165.269 112.62 167.006 113.054 168.203 113.368C168.801 113.525 169.264 113.651 169.578 113.739C169.735 113.783 169.854 113.817 169.935 113.84C169.976 113.852 170.006 113.861 170.027 113.867L170.051 113.874L170.057 113.876L170.058 113.876ZM169.917 114.359L170.41 114.457L170.5 114.006L170.059 113.876L169.917 114.359ZM169.333 114.715C169.324 114.713 169.316 114.71 169.307 114.708C168.998 114.622 168.54 114.496 167.947 114.341C166.762 114.03 165.037 113.599 162.884 113.12C158.576 112.162 152.557 111.013 145.708 110.247C132.117 108.726 115.346 108.726 102.212 114.649L119.121 195.782L153.131 195.119C153.844 191.923 157.724 172.674 161.524 153.737C163.523 143.772 165.498 133.903 166.973 126.525C167.71 122.836 168.323 119.77 168.751 117.626C168.965 116.554 169.133 115.712 169.248 115.139L169.333 114.715Z" fill="black"/>
<path d="M153.532 195.614C154.312 192.546 169.917 114.358 169.917 114.358C169.917 114.358 128.27 102.061 101.638 114.358L118.714 196.293L153.532 195.614Z" fill="white"/>
<path fill-rule="evenodd" clip-rule="evenodd" d="M170.058 113.876C170.059 113.876 170.059 113.876 169.917 114.359C170.41 114.457 170.41 114.457 170.41 114.458L170.409 114.461L170.234 115.336C170.12 115.909 169.952 116.751 169.738 117.823C169.31 119.967 168.697 123.033 167.959 126.722C166.484 134.1 164.509 143.969 162.51 153.935C158.514 173.851 154.414 194.188 154.02 195.738L153.925 196.11L118.306 196.804L101.064 114.07L101.427 113.902C114.872 107.694 132.056 107.707 145.82 109.247C152.713 110.018 158.769 111.175 163.102 112.138C165.269 112.62 167.006 113.054 168.203 113.368C168.801 113.525 169.264 113.651 169.578 113.739C169.735 113.783 169.854 113.817 169.935 113.84C169.976 113.852 170.006 113.861 170.027 113.867L170.051 113.874L170.057 113.876L170.058 113.876ZM169.917 114.359L170.41 114.457L170.5 114.006L170.059 113.876L169.917 114.359ZM169.333 114.715C169.324 114.713 169.316 114.71 169.307 114.708C168.998 114.622 168.54 114.496 167.947 114.341C166.762 114.03 165.037 113.599 162.884 113.12C158.576 112.162 152.557 111.013 145.708 110.247C132.117 108.726 115.346 108.726 102.212 114.649L119.121 195.782L153.131 195.119C153.844 191.923 157.724 172.674 161.524 153.737C163.523 143.772 165.498 133.903 166.973 126.525C167.71 122.836 168.323 119.77 168.751 117.626C168.965 116.554 169.133 115.712 169.248 115.139L169.333 114.715Z" fill="#2C2C2C"/>
<path d="M159.807 111.957C148.175 109.618 128.509 106.952 111.609 110.976C113.608 123.588 115.608 136.213 117.607 148.825C119.217 157.376 127.327 163.072 135.79 163.122C144.252 163.072 152.363 157.388 153.972 148.825C155.909 136.527 157.858 124.242 159.807 111.957Z" fill="#50BFD7"/>
<path fill-rule="evenodd" clip-rule="evenodd" d="M111.493 110.487C128.503 106.437 148.259 109.122 159.906 111.464L160.379 111.559L160.302 112.044C158.354 124.326 156.405 136.609 154.469 148.903L154.468 148.911L154.467 148.918C152.805 157.756 144.455 163.574 135.793 163.625L135.79 163.625L135.787 163.625C127.124 163.574 118.774 157.743 117.113 148.918L117.111 148.911L117.11 148.904C116.111 142.598 115.111 136.29 114.112 129.981L114.111 129.979C113.112 123.67 112.112 117.361 111.112 111.055L111.039 110.595L111.493 110.487ZM112.179 111.359C113.154 117.511 114.129 123.666 115.105 129.82L115.105 129.822C116.104 136.129 117.103 142.436 118.103 148.739C119.664 157.011 127.531 162.569 135.79 162.619C144.049 162.569 151.916 157.023 153.477 148.74C155.388 136.603 157.311 124.479 159.234 112.356C147.672 110.065 128.64 107.568 112.179 111.359Z" fill="#2C2C2C"/>
<path d="M134.344 116.421C138.317 116.421 144.491 115.214 144.491 111.253L143.473 98.0245L142.58 86.4561C142.58 82.4826 139.361 79.2761 135.4 79.2761C133.413 79.2761 131.628 80.0809 130.32 81.376C129.025 82.6712 128.207 84.4693 128.207 86.4561L127.327 98.0371L126.485 109.14C125.353 115.842 134.344 116.421 134.344 116.421Z" fill="#2C2C2C"/>
<path d="M157.581 11.8647C151.633 4.54642 143.322 0.132812 132.659 0.132812C108.503 0.132812 84.8885 22.4021 84.8885 50.1789C84.8885 77.9557 104.467 100.476 128.622 100.476C130.949 100.476 133.199 100.275 135.362 99.8729C135.588 101.093 135.714 102.35 135.714 103.633C135.714 103.872 135.702 104.098 135.702 104.324C202.296 88.2038 191.394 7.75289 157.581 11.8647Z" fill="#2C2C2C"/>
<path d="M105.649 78.2324C110.128 78.2324 113.759 74.6012 113.759 70.122C113.759 65.6427 110.128 62.0115 105.649 62.0115C101.17 62.0115 97.5384 65.6427 97.5384 70.122C97.5384 74.6012 101.17 78.2324 105.649 78.2324Z" fill="#E0E0E0"/>
<path fill-rule="evenodd" clip-rule="evenodd" d="M105.649 62.5145C101.447 62.5145 98.0413 65.9205 98.0413 70.122C98.0413 74.3235 101.447 77.7295 105.649 77.7295C109.85 77.7295 113.256 74.3235 113.256 70.122C113.256 65.9205 109.85 62.5145 105.649 62.5145ZM97.0354 70.122C97.0354 65.3649 100.892 61.5085 105.649 61.5085C110.406 61.5085 114.262 65.3649 114.262 70.122C114.262 74.8791 110.406 78.7355 105.649 78.7355C100.892 78.7355 97.0354 74.8791 97.0354 70.122Z" fill="#2C2C2C"/>
<path d="M162.762 78.2324C167.241 78.2324 170.872 74.6012 170.872 70.122C170.872 65.6427 167.241 62.0115 162.762 62.0115C158.282 62.0115 154.651 65.6427 154.651 70.122C154.651 74.6012 158.282 78.2324 162.762 78.2324Z" fill="#E0E0E0"/>
<path fill-rule="evenodd" clip-rule="evenodd" d="M162.762 62.5145C158.56 62.5145 155.154 65.9205 155.154 70.122C155.154 74.3235 158.56 77.7295 162.762 77.7295C166.963 77.7295 170.369 74.3235 170.369 70.122C170.369 65.9205 166.963 62.5145 162.762 62.5145ZM154.148 70.122C154.148 65.3649 158.005 61.5085 162.762 61.5085C167.519 61.5085 171.375 65.3649 171.375 70.122C171.375 74.8791 167.519 78.7355 162.762 78.7355C158.005 78.7355 154.148 74.8791 154.148 70.122Z" fill="#2C2C2C"/>
<path d="M134.972 103.96C152.383 103.96 166.496 83.9796 166.496 59.3331C166.496 34.6865 152.383 14.7065 134.972 14.7065C117.562 14.7065 103.448 34.6865 103.448 59.3331C103.448 83.9796 117.562 103.96 134.972 103.96Z" fill="#E0E0E0"/>
<path fill-rule="evenodd" clip-rule="evenodd" d="M113.092 28.0676C107.454 36.0489 103.951 47.1014 103.951 59.3331C103.951 71.5649 107.454 82.6173 113.092 90.5986C118.731 98.5812 126.474 103.457 134.972 103.457C143.47 103.457 151.213 98.5812 156.852 90.5986C162.49 82.6173 165.993 71.5649 165.993 59.3331C165.993 47.1014 162.49 36.0489 156.852 28.0676C151.213 20.085 143.47 15.2096 134.972 15.2096C126.474 15.2096 118.731 20.085 113.092 28.0676ZM112.271 27.4872C118.041 19.3182 126.06 14.2036 134.972 14.2036C143.884 14.2036 151.903 19.3182 157.674 27.4872C163.445 35.6575 166.999 46.9183 166.999 59.3331C166.999 71.7479 163.445 83.0087 157.674 91.179C151.903 99.348 143.884 104.463 134.972 104.463C126.06 104.463 118.041 99.348 112.271 91.179C106.499 83.0087 102.945 71.7479 102.945 59.3331C102.945 46.9183 106.499 35.6575 112.271 27.4872Z" fill="#2C2C2C"/>
<path d="M98.8461 49.4369C98.8461 49.4369 125.68 50.7447 134.62 34.5992C134.62 34.5992 154.035 51.3985 172.57 50.0908L170.822 42.6719L163.629 28.488L159.266 23.2571L150.326 13.8766L138.33 8.85938L123.932 10.821L104.731 23.9109L102.329 32.6375L98.8461 49.4369Z" fill="#2C2C2C"/>
<path d="M135.752 76.7736C135.764 76.8491 135.601 76.9874 135.236 76.9874C134.884 76.9999 134.344 76.8365 133.866 76.3838C133.627 76.1575 133.413 75.8808 133.25 75.5287C133.224 75.4784 133.212 75.4282 133.187 75.3779L133.162 75.3024L133.136 75.2395L133.099 75.1264C133.086 75.0761 133.074 75.0132 133.048 74.9629C132.998 74.7743 132.96 74.5731 132.948 74.3593C132.872 73.5294 133.036 72.6869 133.237 71.8822C134.017 68.6631 134.935 66.1357 135.274 66.2111C135.614 66.2991 135.261 68.9649 134.482 72.184C134.281 72.9761 134.13 73.6929 134.13 74.2965C134.13 74.4473 134.142 74.5982 134.155 74.7366L134.168 74.7869V74.812V74.8246V74.8371C134.168 74.8371 134.155 74.7994 134.168 74.812L134.193 74.9377L134.205 75.0006L134.218 75.0383L134.243 75.1138C134.318 75.3527 134.432 75.579 134.557 75.7551C134.809 76.1197 135.111 76.3461 135.35 76.4718C135.563 76.6353 135.739 76.6856 135.752 76.7736Z" fill="#2C2C2C"/>
<path d="M100.896 64.4509C100.544 63.0551 100.28 61.6342 100.066 60.2007C99.8646 58.7673 99.7263 57.3338 99.6509 55.8877C99.5251 52.9956 99.6383 50.0783 100.028 47.1988C100.418 44.3067 101.084 41.4523 102.027 38.6859C102.078 38.5099 102.141 38.3339 102.203 38.1704L102.392 37.6548L102.769 36.6238L103.197 35.6052L103.411 35.1022C103.486 34.9388 103.549 34.7627 103.637 34.5993C104.253 33.2664 104.92 31.9461 105.674 30.6886C107.17 28.1486 108.918 25.7595 110.93 23.5841C112.955 21.4213 115.231 19.4849 117.72 17.8628C118.022 17.649 118.349 17.4604 118.663 17.2718C118.978 17.0831 119.305 16.882 119.619 16.7059L120.612 16.1778L121.103 15.9137C121.266 15.8257 121.442 15.7503 121.606 15.6748L122.624 15.2096C122.712 15.1718 122.788 15.1341 122.876 15.0964L123.14 14.9958L123.655 14.7946L124.171 14.5934C124.347 14.5305 124.51 14.4551 124.699 14.3922L125.768 14.0401C128.61 13.1222 131.602 12.657 134.595 12.5941C136.091 12.5438 137.588 12.657 139.072 12.8204C139.449 12.8707 139.813 12.9336 140.178 12.9839L140.731 13.0719C140.819 13.0845 140.92 13.0971 141.008 13.1222L141.285 13.1851L142.379 13.424C142.743 13.4994 143.108 13.6 143.46 13.7006C146.34 14.5054 149.119 15.6748 151.659 17.234L152.602 17.825C152.765 17.9256 152.916 18.0262 153.067 18.1394L153.52 18.4538L153.972 18.7681C154.123 18.8687 154.274 18.9819 154.425 19.095L155.305 19.7741L155.745 20.1136L156.173 20.4782L157.015 21.2075C157.292 21.4465 157.556 21.7105 157.82 21.9746L158.222 22.3644C158.361 22.4901 158.486 22.6159 158.612 22.7542L159.379 23.559L159.756 23.9613L160.121 24.3763L160.85 25.2188C160.976 25.3571 161.089 25.508 161.203 25.6463L161.542 26.0864C161.768 26.3756 161.995 26.6648 162.221 26.9666L162.862 27.872C163.302 28.463 163.68 29.1043 164.082 29.7204C165.641 32.2227 166.911 34.8885 167.917 37.6297C168.923 40.3835 169.64 43.2253 170.093 46.1048L170.181 46.6455L170.218 46.9096L170.244 47.1862L170.369 48.2676C170.47 48.9844 170.495 49.7137 170.558 50.443C170.646 51.8891 170.671 53.3477 170.633 54.7937L170.621 55.3344L170.596 55.8751C170.57 56.2398 170.558 56.5919 170.52 56.9565C170.47 57.6733 170.394 58.4026 170.306 59.1193C170.118 60.5528 169.879 61.9737 169.564 63.3821C169.741 61.9486 169.879 60.5277 169.929 59.0942C169.992 57.6607 170.005 56.2272 169.942 54.8063C169.879 53.3854 169.778 51.9519 169.602 50.5436C169.502 49.8394 169.426 49.1353 169.288 48.4311L169.099 47.3874L169.049 47.1234L168.986 46.8593L168.873 46.3438C168.282 43.5648 167.439 40.8487 166.371 38.2458L166.169 37.7554L165.956 37.2776L165.516 36.3094C165.377 35.9825 165.214 35.6807 165.05 35.3663L164.572 34.4232C164.409 34.1089 164.233 33.8071 164.057 33.5053C163.881 33.2035 163.717 32.8892 163.529 32.5874L162.976 31.6946C162.787 31.3928 162.611 31.091 162.41 30.8144C162.007 30.236 161.63 29.645 161.203 29.0917L160.574 28.2492C160.36 27.9726 160.134 27.7085 159.907 27.4319L159.568 27.0295C159.455 26.8912 159.342 26.7529 159.228 26.6271L158.524 25.8475L158.172 25.4577L157.807 25.0805L157.066 24.3386C155.066 22.4021 152.841 20.7046 150.439 19.2962C148.05 17.8879 145.472 16.8191 142.806 16.1023C142.14 15.9012 141.461 15.788 140.794 15.6371L140.543 15.5868C140.455 15.5742 140.367 15.5616 140.291 15.5491L139.776 15.4736C139.436 15.4233 139.097 15.3605 138.757 15.3227C137.387 15.1844 136.003 15.0838 134.633 15.1215C131.879 15.1718 129.125 15.5868 126.497 16.4293L125.516 16.7436C125.353 16.7939 125.189 16.8568 125.026 16.9197L124.548 17.1083L124.07 17.2969L123.831 17.3849C123.756 17.4101 123.668 17.4604 123.593 17.4855L122.649 17.9131C122.499 17.9885 122.335 18.0514 122.172 18.1268L121.706 18.3657L120.788 18.8436C120.487 19.0196 120.185 19.1956 119.883 19.3591C119.581 19.5352 119.28 19.6986 118.99 19.8998C116.639 21.3836 114.476 23.1566 112.514 25.1433L111.798 25.9104L111.446 26.3002C111.383 26.363 111.32 26.4259 111.27 26.4888L111.106 26.69L110.427 27.4947C110.314 27.6331 110.201 27.7588 110.088 27.8971L109.761 28.3121L109.119 29.142C109.006 29.2803 108.918 29.4186 108.805 29.5695L108.503 29.997C108.302 30.2863 108.101 30.5629 107.9 30.8647L107.334 31.7575C105.837 34.134 104.555 36.6615 103.549 39.2895C102.53 41.9176 101.751 44.6588 101.223 47.4503L101.021 48.494C100.959 48.8461 100.921 49.1981 100.858 49.5502L100.707 50.6065C100.669 50.9586 100.632 51.3106 100.594 51.6627L100.481 52.7315L100.418 53.8004L100.355 54.8692C100.342 55.2213 100.33 55.5859 100.317 55.938C100.292 57.3715 100.317 58.7924 100.418 60.2259C100.531 61.5965 100.695 63.0174 100.896 64.4509Z" fill="#50BFD7"/>
<path d="M126.774 61.6971C126.774 65.2808 123.668 68.1855 119.845 68.1855C116.01 68.1855 112.917 65.2808 112.917 61.6971C112.917 58.1134 116.023 55.2087 119.845 55.2087C123.668 55.2087 126.774 58.1134 126.774 61.6971Z" fill="white"/>
<path fill-rule="evenodd" clip-rule="evenodd" d="M119.845 55.7118C116.269 55.7118 113.42 58.422 113.42 61.6972C113.42 64.9729 116.257 67.6826 119.845 67.6826C123.422 67.6826 126.271 64.9723 126.271 61.6972C126.271 58.422 123.422 55.7118 119.845 55.7118ZM112.414 61.6972C112.414 57.8049 115.777 54.7058 119.845 54.7058C123.914 54.7058 127.277 57.8049 127.277 61.6972C127.277 65.5894 123.914 68.6885 119.845 68.6885C115.764 68.6885 112.414 65.5889 112.414 61.6972Z" fill="#2C2C2C"/>
<path d="M116.45 61.2947C116.45 64.2497 118.374 66.6514 120.738 66.6514C123.102 66.6514 125.026 64.2497 125.026 61.2947C125.026 58.3397 123.102 55.938 120.738 55.938C118.362 55.9255 116.45 58.3272 116.45 61.2947Z" fill="#50BFD7"/>
<path d="M117.682 61.2947C117.682 63.3946 119.041 65.0921 120.725 65.0921C122.41 65.0921 123.768 63.3946 123.768 61.2947C123.768 59.1947 122.41 57.4846 120.725 57.4846C119.053 57.4846 117.682 59.1822 117.682 61.2947Z" fill="#2C2C2C"/>
<path d="M117.494 57.6859C117.494 58.2643 118.198 58.717 119.066 58.717C119.933 58.717 120.637 58.2517 120.637 57.6859C120.637 57.1075 119.933 56.6548 119.066 56.6548C118.198 56.6422 117.494 57.1075 117.494 57.6859Z" fill="white"/>
<path d="M120.298 54.2656C116.01 53.838 112.716 57.7109 112.716 61.7096C112.716 62.1246 113.231 62.2 113.445 61.9108C115.193 59.5091 115.759 57.1451 118.952 56.2272C123.668 54.8691 126.258 59.7103 126.522 63.5077C126.56 63.8724 126.874 63.5455 126.912 63.1682C127.34 58.6289 125.076 54.7434 120.298 54.2656Z" fill="#2C2C2C"/>
<path d="M128.761 51.7757C128.761 51.7757 119.405 42.4455 109.346 53.5235C109.333 53.5235 118.035 47.9531 128.761 51.7757Z" fill="#2C2C2C"/>
<path d="M156.915 61.6971C156.915 65.2808 153.809 68.1855 149.986 68.1855C146.151 68.1855 143.058 65.2808 143.058 61.6971C143.058 58.1134 146.163 55.2087 149.986 55.2087C153.809 55.2087 156.915 58.1134 156.915 61.6971Z" fill="white"/>
<path fill-rule="evenodd" clip-rule="evenodd" d="M149.986 55.7115C146.409 55.7115 143.561 58.4218 143.561 61.6969C143.561 64.9726 146.397 67.6823 149.986 67.6823C153.563 67.6823 156.412 64.9721 156.412 61.6969C156.412 58.4218 153.563 55.7115 149.986 55.7115ZM142.555 61.6969C142.555 57.8047 145.918 54.7056 149.986 54.7056C154.055 54.7056 157.418 57.8047 157.418 61.6969C157.418 65.5892 154.055 68.6883 149.986 68.6883C145.904 68.6883 142.555 65.5886 142.555 61.6969Z" fill="#2C2C2C"/>
<path d="M146.591 61.2945C146.591 64.2495 148.515 66.6512 150.879 66.6512C153.243 66.6512 155.167 64.2495 155.167 61.2945C155.167 58.3395 153.243 55.9378 150.879 55.9378C148.515 55.9252 146.591 58.3269 146.591 61.2945Z" fill="#50BFD7"/>
<path d="M147.836 61.2947C147.836 63.3946 149.194 65.0921 150.879 65.0921C152.564 65.0921 153.922 63.3946 153.922 61.2947C153.922 59.1947 152.564 57.4846 150.879 57.4846C149.194 57.4846 147.836 59.1822 147.836 61.2947Z" fill="#2C2C2C"/>
<path d="M147.635 57.6856C147.635 58.2641 148.339 58.7167 149.207 58.7167C150.074 58.7167 150.778 58.2515 150.778 57.6856C150.778 57.1072 150.074 56.6545 149.207 56.6545C148.351 56.642 147.635 57.1072 147.635 57.6856Z" fill="white"/>
<path d="M150.439 54.2656C146.151 53.838 142.856 57.7109 142.856 61.7096C142.856 62.1246 143.372 62.2 143.586 61.9108C145.334 59.5091 145.899 57.1451 149.093 56.2272C153.809 54.8691 156.399 59.7103 156.663 63.5077C156.701 63.8724 157.015 63.5455 157.053 63.1682C157.48 58.6289 155.23 54.7434 150.439 54.2656Z" fill="#2C2C2C"/>
<path d="M158.901 50.7574C158.901 50.7574 149.546 41.4272 139.487 52.5052C139.487 52.5052 148.188 46.9348 158.901 50.7574Z" fill="#2C2C2C"/>
<path d="M110.955 376.572C110.955 376.572 111.697 378.924 111.911 379.288C112.137 379.653 117.909 381.64 124.951 381.489C132.269 381.338 135.614 379.213 135.714 376.56H110.955V376.572Z" fill="#50BFD7"/>
<path fill-rule="evenodd" clip-rule="evenodd" d="M110.452 376.057H136.237L136.217 376.579C136.157 378.149 135.13 379.48 133.264 380.413C131.407 381.342 128.657 381.916 124.961 381.992M110.452 376.057V376.56ZM110.955 376.573L110.476 376.724L110.452 376.65V376.56M110.955 376.573C110.476 376.724 110.476 376.724 110.476 376.724L110.484 376.751C110.49 376.769 110.498 376.794 110.508 376.827C110.529 376.893 110.559 376.986 110.596 377.1C110.669 377.327 110.769 377.635 110.876 377.954C110.983 378.272 111.097 378.605 111.199 378.884C111.294 379.142 111.396 379.405 111.477 379.543L111.48 379.549L111.484 379.554C111.534 379.635 111.596 379.69 111.631 379.718C111.672 379.751 111.715 379.78 111.755 379.804C111.834 379.853 111.931 379.902 112.037 379.951C112.251 380.049 112.539 380.162 112.89 380.283C113.593 380.525 114.574 380.808 115.766 381.073C118.148 381.604 121.392 382.069 124.961 381.992M111.641 377.063H135.139C134.921 377.96 134.207 378.817 132.814 379.513C131.144 380.348 128.563 380.912 124.94 380.986L124.94 380.986C121.467 381.061 118.305 380.608 115.984 380.091C114.824 379.833 113.88 379.56 113.217 379.332C112.885 379.218 112.63 379.117 112.458 379.037C112.393 379.008 112.345 378.983 112.311 378.964C112.3 378.94 112.288 378.91 112.274 378.876C112.236 378.785 112.192 378.67 112.144 378.537C112.046 378.272 111.935 377.949 111.83 377.634C111.763 377.434 111.698 377.237 111.641 377.063Z" fill="#2C2C2C"/>
<path d="M110.968 377.076C112.074 378.069 113.52 378.823 114.577 379.163C117.205 380.031 120.084 380.358 122.838 380.508C125.768 380.659 128.987 380.609 131.728 379.452C133.212 378.823 134.469 377.905 135.639 376.862C136.167 375.567 136.305 374.095 136.268 372.587C136.18 369.87 135.563 367.242 135.086 364.577C135.01 364.187 134.947 363.81 134.884 363.432C134.746 361.697 134.62 359.949 134.507 358.227C134.469 357.585 134.394 357.019 134.407 356.378C134.419 355.951 134.57 355.259 134.457 354.857C134.444 354.806 134.419 354.769 134.407 354.731C134.407 354.668 134.419 354.605 134.407 354.542C133.916 354.14 133.401 353.763 132.81 353.599C132.382 353.675 131.955 353.813 131.678 353.926C131.238 354.102 130.848 354.328 130.496 354.593C129.628 353.411 127.491 352.857 126.283 352.807C124.397 352.732 121.882 353.058 120.386 354.442C120.135 354.203 119.745 354.077 119.405 354.014C119.33 354.002 119.242 353.989 119.166 353.976C118.286 354.316 118.512 356.479 118.424 357.095C118.299 357.912 118.173 358.73 117.972 359.522C117.569 361.043 116.991 362.439 116.111 363.747C115.168 365.155 113.935 366.375 112.854 367.67C112.703 367.934 112.54 368.198 112.389 368.45C111.232 370.311 110.289 373.014 110.54 375.227C110.603 375.931 110.754 376.535 110.968 377.076Z" fill="#50BFD7"/>
<path fill-rule="evenodd" clip-rule="evenodd" d="M123.074 352.587C124.179 352.33 125.326 352.265 126.304 352.304L126.304 352.304C126.961 352.332 127.849 352.493 128.691 352.803C129.368 353.053 130.064 353.416 130.579 353.924C130.86 353.747 131.162 353.591 131.489 353.46C131.794 353.335 132.255 353.186 132.722 353.104L132.834 353.084L132.944 353.114C133.645 353.308 134.231 353.748 134.726 354.153L134.864 354.267L134.9 354.443C134.916 354.522 134.916 354.593 134.915 354.639C134.924 354.664 134.934 354.693 134.943 354.726C135.025 355.026 135.004 355.383 134.98 355.653C134.968 355.78 134.956 355.892 134.944 355.992C134.927 356.145 134.913 356.272 134.909 356.39C134.901 356.802 134.931 357.163 134.963 357.563C134.979 357.761 134.996 357.968 135.009 358.195C135.122 359.908 135.247 361.646 135.384 363.371C135.446 363.742 135.507 364.106 135.579 364.481L135.58 364.484L135.581 364.488C135.679 365.037 135.784 365.589 135.89 366.143C136.291 368.244 136.699 370.383 136.77 372.57L136.77 372.572L136.77 372.574C136.809 374.115 136.67 375.665 136.105 377.052L136.061 377.159L135.974 377.237C134.781 378.302 133.477 379.257 131.924 379.915L131.924 379.915C129.07 381.12 125.751 381.162 122.812 381.011L122.811 381.01C120.042 380.859 117.111 380.529 114.421 379.641C113.304 379.282 111.795 378.494 110.632 377.45L110.544 377.37L110.5 377.26C110.269 376.676 110.107 376.027 110.04 375.278C109.773 372.913 110.771 370.1 111.959 368.187C112.004 368.113 112.048 368.04 112.092 367.967C112.203 367.785 112.312 367.604 112.417 367.42L112.439 367.382L112.468 367.347C112.839 366.903 113.216 366.479 113.588 366.061C114.341 365.214 115.073 364.392 115.693 363.467L115.694 363.466C116.536 362.214 117.094 360.873 117.485 359.395C117.679 358.632 117.801 357.841 117.927 357.021C117.942 356.912 117.945 356.719 117.95 356.428C117.95 356.415 117.951 356.401 117.951 356.387C117.956 356.092 117.963 355.735 117.998 355.383C118.032 355.035 118.094 354.659 118.224 354.333C118.353 354.012 118.579 353.664 118.985 353.507L119.114 353.458L119.249 353.48C119.283 353.486 119.321 353.492 119.362 353.498L119.364 353.498C119.404 353.504 119.447 353.511 119.488 353.518L119.492 353.519L119.497 353.519C119.747 353.566 120.065 353.65 120.356 353.808C121.142 353.194 122.105 352.813 123.074 352.587ZM123.303 353.567C122.301 353.801 121.39 354.199 120.727 354.811L120.381 355.131L120.04 354.806C119.897 354.671 119.629 354.567 119.318 354.509C119.304 354.507 119.289 354.505 119.274 354.502C119.24 354.541 119.2 354.604 119.159 354.707C119.081 354.902 119.029 355.168 118.999 355.481C118.969 355.788 118.962 356.109 118.957 356.404C118.956 356.43 118.956 356.457 118.955 356.483C118.951 356.733 118.947 356.99 118.922 357.166L118.922 357.168L118.92 357.183C118.795 357.992 118.666 358.83 118.459 359.645L118.459 359.648L118.458 359.65C118.044 361.215 117.446 362.664 116.528 364.027C115.871 365.009 115.06 365.921 114.28 366.798C113.931 367.191 113.588 367.577 113.268 367.958C113.163 368.141 113.052 368.325 112.946 368.5C112.903 368.571 112.86 368.641 112.82 368.708L112.818 368.712L112.816 368.715C111.692 370.522 110.806 373.111 111.04 375.17L111.041 375.176L111.041 375.182C111.096 375.791 111.22 376.313 111.393 376.78C112.431 377.683 113.764 378.373 114.731 378.684L114.732 378.684L114.734 378.685C117.299 379.532 120.126 379.856 122.865 380.006C125.785 380.156 128.904 380.098 131.532 378.989C132.911 378.404 134.096 377.554 135.216 376.565C135.672 375.386 135.8 374.033 135.765 372.601C135.697 370.501 135.308 368.463 134.909 366.373C134.802 365.809 134.694 365.242 134.591 364.669C134.515 364.274 134.451 363.892 134.389 363.518L134.385 363.494L134.383 363.472C134.244 361.734 134.119 359.984 134.005 358.259L134.005 358.258L134.005 358.256C133.994 358.075 133.98 357.891 133.965 357.704C133.93 357.276 133.895 356.831 133.904 356.368L133.904 356.366L133.904 356.363C133.908 356.208 133.931 356.003 133.951 355.816C133.961 355.725 133.971 355.638 133.978 355.562C134.003 355.285 134.001 355.1 133.974 354.997C133.973 354.996 133.972 354.994 133.971 354.992L133.969 354.987C133.967 354.981 133.963 354.974 133.959 354.965C133.952 354.949 133.94 354.922 133.929 354.89L133.904 354.812V354.783C133.522 354.482 133.162 354.244 132.782 354.116C132.434 354.188 132.093 354.3 131.868 354.391L131.866 354.392L131.865 354.393C131.468 354.551 131.117 354.755 130.798 354.995L130.391 355.3L130.09 354.89C129.742 354.416 129.1 354.026 128.343 353.747C127.597 353.473 126.813 353.332 126.263 353.309C125.354 353.273 124.301 353.334 123.303 353.567Z" fill="#2C2C2C"/>
<path d="M165.478 376.572C165.478 376.572 164.748 378.924 164.522 379.288C164.296 379.653 158.524 381.64 151.482 381.489C144.164 381.338 140.819 379.213 140.719 376.56H165.478V376.572Z" fill="#50BFD7"/>
<path fill-rule="evenodd" clip-rule="evenodd" d="M140.196 376.057H165.981V376.649L165.958 376.722L165.478 376.573C165.958 376.722 165.958 376.722 165.958 376.722L165.958 376.722L165.958 376.722L165.95 376.749C165.944 376.766 165.936 376.792 165.926 376.825C165.905 376.89 165.876 376.984 165.84 377.098C165.767 377.326 165.668 377.633 165.562 377.953C165.456 378.271 165.342 378.605 165.239 378.885C165.144 379.142 165.039 379.41 164.95 379.554C164.899 379.635 164.837 379.69 164.802 379.718C164.761 379.751 164.718 379.78 164.678 379.804C164.599 379.853 164.502 379.902 164.396 379.951C164.182 380.049 163.894 380.162 163.543 380.283C162.84 380.525 161.859 380.808 160.667 381.073C158.285 381.604 155.041 382.069 151.472 381.992M164.795 377.063H141.294C141.512 377.96 142.226 378.817 143.619 379.513C145.289 380.348 147.87 380.912 151.493 380.986L151.493 380.986C154.966 381.061 158.129 380.608 160.449 380.091C161.609 379.833 162.553 379.56 163.216 379.332C163.548 379.218 163.803 379.117 163.975 379.037C164.042 379.007 164.091 378.982 164.125 378.963C164.137 378.938 164.15 378.908 164.164 378.873C164.202 378.783 164.246 378.669 164.295 378.536C164.393 378.272 164.503 377.95 164.608 377.635C164.674 377.434 164.739 377.238 164.795 377.063ZM140.196 376.057L140.216 376.579ZM140.216 376.579C140.276 378.149 141.303 379.48 143.169 380.413ZM143.169 380.413C145.027 381.342 147.776 381.916 151.472 381.992Z" fill="#2C2C2C"/>
<path d="M165.465 377.076C164.359 378.069 162.913 378.823 161.856 379.163C159.228 380.031 156.349 380.358 153.595 380.508C150.665 380.659 147.446 380.609 144.705 379.452C143.221 378.823 141.964 377.905 140.794 376.862C140.266 375.567 140.128 374.095 140.166 372.587C140.254 369.87 140.87 367.242 141.348 364.577C141.423 364.187 141.486 363.81 141.549 363.432C141.687 361.697 141.813 359.949 141.926 358.227C141.976 357.585 142.039 357.019 142.027 356.378C142.014 355.951 141.863 355.259 141.976 354.857C141.989 354.806 142.014 354.769 142.027 354.731C142.027 354.668 142.014 354.605 142.027 354.542C142.517 354.14 143.02 353.763 143.624 353.599C144.051 353.675 144.479 353.813 144.755 353.926C145.195 354.102 145.585 354.328 145.937 354.593C146.805 353.411 148.943 352.857 150.15 352.807C152.036 352.732 154.551 353.058 156.047 354.442C156.299 354.203 156.688 354.077 157.028 354.014C157.103 354.002 157.191 353.989 157.267 353.976C158.147 354.316 157.921 356.479 158.009 357.095C158.134 357.912 158.26 358.73 158.461 359.522C158.864 361.043 159.442 362.439 160.322 363.747C161.265 365.155 162.498 366.375 163.579 367.67C163.73 367.934 163.893 368.198 164.044 368.45C165.201 370.311 166.144 373.014 165.893 375.227C165.83 375.931 165.679 376.535 165.465 377.076Z" fill="#50BFD7"/>
<path fill-rule="evenodd" clip-rule="evenodd" d="M153.13 353.567C152.132 353.334 151.079 353.273 150.17 353.309C149.62 353.332 148.836 353.473 148.09 353.747C147.333 354.026 146.691 354.416 146.343 354.89L146.042 355.3L145.635 354.995C145.316 354.755 144.965 354.551 144.568 354.393L144.567 354.392L144.565 354.391C144.34 354.3 143.999 354.187 143.65 354.116C143.264 354.243 142.911 354.48 142.53 354.782V354.812L142.504 354.89C142.493 354.922 142.482 354.949 142.474 354.965C142.47 354.974 142.467 354.982 142.464 354.987C142.462 354.992 142.46 354.995 142.459 354.997C142.432 355.1 142.43 355.285 142.455 355.562C142.462 355.638 142.472 355.725 142.482 355.816C142.502 356.003 142.525 356.208 142.529 356.363L142.529 356.366L142.529 356.368C142.54 356.917 142.498 357.419 142.456 357.923C142.446 358.036 142.437 358.149 142.428 358.263C142.314 359.986 142.189 361.735 142.05 363.472L142.048 363.494L142.044 363.517C141.982 363.892 141.918 364.273 141.842 364.669C141.739 365.242 141.631 365.809 141.524 366.373C141.125 368.463 140.737 370.501 140.668 372.601C140.633 374.033 140.761 375.386 141.218 376.565C142.337 377.554 143.522 378.405 144.901 378.989C147.529 380.098 150.648 380.156 153.569 380.006C156.307 379.856 159.134 379.532 161.699 378.685L161.701 378.684L161.703 378.684C162.669 378.373 164.002 377.683 165.04 376.78C165.213 376.313 165.337 375.791 165.392 375.182L165.392 375.176L165.393 375.17C165.627 373.111 164.741 370.522 163.617 368.715L163.615 368.712L163.613 368.708C163.573 368.641 163.53 368.571 163.487 368.5C163.382 368.325 163.27 368.141 163.165 367.958C162.845 367.577 162.502 367.191 162.153 366.798C161.373 365.921 160.562 365.009 159.905 364.027C158.988 362.664 158.389 361.215 157.975 359.65L157.974 359.648L157.974 359.645C157.767 358.83 157.638 357.992 157.513 357.183L157.511 357.168L157.511 357.166C157.486 356.99 157.482 356.733 157.478 356.483C157.477 356.457 157.477 356.43 157.476 356.404C157.472 356.109 157.464 355.788 157.434 355.481C157.404 355.168 157.353 354.902 157.275 354.707C157.233 354.604 157.193 354.541 157.159 354.502C157.144 354.505 157.129 354.507 157.115 354.509C156.804 354.567 156.536 354.671 156.393 354.806L156.052 355.131L155.706 354.811C155.044 354.199 154.132 353.801 153.13 353.567ZM156.077 353.808C155.291 353.194 154.328 352.813 153.359 352.587C152.254 352.33 151.107 352.265 150.13 352.304L150.129 352.304C149.472 352.332 148.584 352.493 147.742 352.803C147.065 353.053 146.369 353.416 145.854 353.924C145.573 353.747 145.271 353.591 144.944 353.46C144.64 353.335 144.178 353.186 143.711 353.104L143.6 353.084L143.492 353.114C142.775 353.308 142.199 353.75 141.708 354.153L141.569 354.267L141.533 354.443C141.518 354.522 141.517 354.593 141.519 354.639C141.509 354.664 141.499 354.693 141.49 354.726C141.408 355.026 141.429 355.383 141.453 355.653C141.465 355.78 141.477 355.892 141.489 355.992C141.506 356.145 141.52 356.272 141.524 356.39C141.533 356.882 141.496 357.322 141.455 357.82C141.445 357.939 141.435 358.061 141.425 358.187L141.424 358.19L141.424 358.193C141.312 359.907 141.187 361.645 141.049 363.371C140.987 363.742 140.926 364.106 140.854 364.481L140.853 364.484L140.853 364.488C140.754 365.037 140.649 365.589 140.543 366.143C140.142 368.244 139.734 370.383 139.663 372.57L139.663 372.572L139.663 372.574C139.624 374.115 139.763 375.665 140.329 377.052L140.373 377.159L140.459 377.237C141.652 378.302 142.956 379.257 144.509 379.915L144.509 379.915C147.364 381.12 150.682 381.162 153.621 381.011L153.623 381.01C156.391 380.859 159.322 380.529 162.012 379.641C163.13 379.281 164.638 378.494 165.801 377.45L165.889 377.37L165.933 377.26C166.164 376.676 166.326 376.027 166.393 375.278C166.66 372.913 165.662 370.1 164.474 368.187C164.429 368.114 164.385 368.04 164.341 367.968C164.23 367.785 164.121 367.604 164.016 367.42L163.994 367.382L163.965 367.347C163.594 366.903 163.217 366.479 162.845 366.061C162.092 365.214 161.36 364.392 160.74 363.467L160.74 363.466C159.897 362.214 159.339 360.873 158.948 359.395C158.755 358.632 158.632 357.841 158.506 357.021C158.491 356.912 158.488 356.719 158.483 356.428L158.482 356.387C158.477 356.092 158.47 355.735 158.435 355.383C158.401 355.035 158.339 354.659 158.209 354.333C158.08 354.012 157.854 353.664 157.448 353.507L157.32 353.458L157.184 353.48C157.15 353.486 157.112 353.492 157.071 353.498L157.069 353.498C157.03 353.504 156.986 353.511 156.945 353.518L156.941 353.519L156.936 353.519C156.686 353.566 156.368 353.65 156.077 353.808ZM141.556 354.553C141.556 354.553 141.556 354.553 141.556 354.553Z" fill="#2C2C2C"/>
<path fill-rule="evenodd" clip-rule="evenodd" d="M102.82 56.9692V57.2207H101.814V56.9692H102.82Z" fill="#2C2C2C"/>
<path fill-rule="evenodd" clip-rule="evenodd" d="M108.101 59.7354V59.9868H107.095V59.7354H108.101Z" fill="#2C2C2C"/>
<path d="M136.708 58.2518C138.43 58.6164 137.789 59.7355 137.789 59.899C137.789 60.0625 138.43 69.3675 146.742 71.8195C155.054 74.2715 160.033 69.4555 161.479 67.0413C162.925 64.627 164.132 58.8931 164.484 58.453C164.849 58.0129 166.572 57.2458 166.572 57.2458L166.773 54.995L164.61 54.3537C164.61 54.3537 159.153 51.864 151.118 51.7508C143.095 51.6251 138.556 56.2524 138.556 56.2524C136.293 55.5357 133.489 55.4351 130.923 56.2524C130.923 56.2524 126.384 51.6376 118.362 51.7508C110.339 51.8766 104.869 54.3537 104.869 54.3537L102.706 54.995L102.908 57.2458C102.908 57.2458 104.63 58.0129 104.995 58.453C105.36 58.8931 106.554 64.6396 108 67.0413C109.446 69.4555 114.426 74.2715 122.737 71.8195C131.049 69.3675 131.69 60.0625 131.69 59.899C131.69 59.7355 131.049 58.6164 132.772 58.2518C134.268 57.9374 135.211 57.9374 136.708 58.2518ZM156.651 69.8957C150.313 73.7057 142.718 69.8579 140.43 64.8407C138.141 59.8236 140.065 57.1704 140.065 57.1704C143.9 50.9335 159.329 50.6694 161.982 57.4093C162.435 58.541 163.001 66.0856 156.651 69.8957ZM107.485 57.4093C110.138 50.6568 125.579 50.9335 129.402 57.1704C129.402 57.1704 131.326 59.8236 129.037 64.8407C126.749 69.8579 119.166 73.7057 112.816 69.8957C106.479 66.0856 107.045 58.541 107.485 57.4093Z" fill="#2C2C2C"/>
<path d="M140.593 125.776H130.936C128.371 125.776 126.283 127.863 126.283 130.429V140.086C126.283 142.651 128.371 144.738 130.936 144.738H140.593C143.158 144.738 145.246 142.651 145.246 140.086V130.429C145.246 127.863 143.171 125.776 140.593 125.776ZM123.718 121.664C122.247 121.664 121.052 122.859 121.052 124.33C121.052 125.801 122.247 126.996 123.718 126.996C125.189 126.996 126.384 125.801 126.384 124.33C126.384 122.859 125.189 121.664 123.718 121.664Z" fill="white"/>
<path d="M139.914 131.535C139.298 129.888 137.726 128.794 135.966 128.794H133.35L138.518 141.897H144.064L139.914 131.535ZM129.352 138.137L127.843 141.897H133.35L135.915 135.396H133.3C131.539 135.396 129.968 136.49 129.352 138.137ZM130.207 132.051C131.112 132.051 131.854 131.309 131.854 130.404C131.854 129.498 131.112 128.756 130.207 128.756C129.301 128.756 128.559 129.498 128.559 130.404C128.559 131.309 129.301 132.051 130.207 132.051Z" fill="#50BFD7"/>
<path fill-rule="evenodd" clip-rule="evenodd" d="M140.273 89.8707C134.782 86.5701 130.343 88.5301 128.894 89.7886C128.558 90.0802 128.05 90.0443 127.758 89.7085C127.466 89.3727 127.502 88.8641 127.838 88.5725C129.749 86.9131 134.944 84.7879 141.103 88.4904C141.484 88.7195 141.607 89.2143 141.378 89.5954C141.149 89.9766 140.654 90.0999 140.273 89.8707Z" fill="#2C2C2C"/>
</svg>
