<svg width="586" height="407" viewBox="0 0 586 407" fill="none" xmlns="http://www.w3.org/2000/svg">
<path d="M28.3066 245.374C22.2024 200.604 27.4894 155.296 52.9197 116.635C82.068 72.3852 128.238 41.1153 177.317 32.2439C186.061 30.6528 194.906 29.816 203.769 29.7412C224.924 29.5832 245.958 33.2627 266.021 40.6309C299.892 53.1891 329.008 75.0672 355.337 101.179C367.031 112.769 378.446 127.641 393.932 133.023C410.005 138.656 427.297 131.409 442.962 126.977C472.323 118.671 515.42 100.731 544.675 117.774C583.081 140.199 594.522 189.535 579.813 228.107C565.104 266.678 520.16 269.369 515.256 298.971C510.353 328.572 486.656 372.526 435.174 368.041C383.693 363.555 364.081 315.117 331.394 329.469C319.896 334.519 310.867 343.821 301.085 351.814C287.463 362.972 272.689 370.57 255.92 374.068C231.945 379.074 205.763 376.428 181.558 375.154C153.774 373.683 123.882 374.804 96.9078 364.147C67.9474 352.693 49.6592 327.594 39.845 296.127C34.6111 279.626 30.7491 262.639 28.3066 245.374V245.374Z" fill="#CAECF3"/>
<path d="M338.006 295.737H441.995C443.982 295.737 445.888 294.948 447.293 293.543C448.698 292.138 449.487 290.232 449.487 288.245V95.8495C449.487 93.8625 448.698 91.9568 447.293 90.5518C445.888 89.1468 443.982 88.3574 441.995 88.3574H141.114C139.127 88.3574 137.222 89.1468 135.817 90.5518C134.412 91.9568 133.622 93.8625 133.622 95.8495V288.245C133.622 290.232 134.412 292.138 135.817 293.543C137.222 294.948 139.127 295.737 141.114 295.737H245.104" stroke="black" stroke-linecap="round" stroke-linejoin="round"/>
<path d="M442.298 96.7485H140.218V273.561H442.298V96.7485Z" stroke="black" stroke-linecap="round" stroke-linejoin="round"/>
<path d="M338.007 295.738H245.106V316.686H338.007V295.738Z" stroke="black" stroke-linecap="round" stroke-linejoin="round"/>
<path d="M338.008 316.686H354.191V324.681H228.923V316.686H245.106" stroke="black" stroke-linecap="round" stroke-linejoin="round"/>
<path d="M109.535 324.682H96.3494" stroke="#2C2C2C" stroke-width="0.75" stroke-miterlimit="10" stroke-linecap="round"/>
<path d="M443.38 324.682H116.726" stroke="#2C2C2C" stroke-width="0.75" stroke-miterlimit="10" stroke-linecap="round"/>
<path d="M468.554 324.682H447.576" stroke="#2C2C2C" stroke-width="0.75" stroke-miterlimit="10" stroke-linecap="round"/>
<path d="M457.41 256.245L466.684 241.964L410.497 205.476L401.223 219.757L457.41 256.245Z" fill="#C7C7C7"/>
<path d="M503.02 291.06L517.045 269.459L458.848 231.659L444.823 253.259L503.02 291.06Z" fill="#2C2C2C"/>
<path d="M411.033 167.55L411.059 167.943L411.1 168.544C411.153 169.289 411.203 170.021 411.221 170.735C411.281 170.959 411.238 171.197 411.233 171.425C411.331 175.005 411.129 178.587 410.627 182.133C410.594 182.408 410.561 182.683 410.512 182.949C409.866 187.245 408.794 191.466 407.311 195.551L407.126 196.053C403.818 204.944 398.647 213.026 391.96 219.756L391.522 220.207C387.579 224.09 383.172 227.471 378.401 230.274L376.599 231.302C370.783 234.488 364.516 236.769 358.013 238.067L357.566 238.187C354.85 238.712 352.104 239.07 349.344 239.258C348.456 239.323 347.561 239.363 346.71 239.364C345.858 239.366 345.132 239.388 344.345 239.385C337.179 239.346 330.067 238.135 323.292 235.799C322.94 235.68 322.561 235.556 322.203 235.412C320.819 234.917 319.458 234.363 318.113 233.765L317.415 233.446C312.096 231.026 307.123 227.907 302.627 224.173L301.994 223.65C301.722 223.43 301.459 223.194 301.2 222.971C296.71 219.048 292.762 214.545 289.462 209.579C289.219 209.218 288.988 208.853 288.744 208.439C287.387 206.298 286.148 204.082 285.036 201.804C284.976 201.58 284.845 201.389 284.735 201.178C281.238 193.7 279.163 185.637 278.616 177.399L278.564 176.508L278.537 175.809C278.002 164.122 280.593 152.502 286.041 142.148C288.487 137.523 291.461 133.196 294.903 129.255C296.189 127.827 297.538 126.432 298.948 125.069C306.401 117.937 315.412 112.638 325.267 109.591C335.122 106.544 345.551 105.833 355.729 107.513C365.907 109.194 375.554 113.22 383.906 119.274C392.259 125.327 399.088 133.242 403.853 142.391C403.922 142.503 403.98 142.621 404.027 142.744C407.974 150.47 410.355 158.9 411.033 167.55V167.55Z" fill="white"/>
<path d="M378.399 230.274L376.597 231.303L346.657 239.325C345.865 239.351 345.079 239.349 344.293 239.346L357.424 235.828L378.399 230.274Z" fill="#EBEBEB"/>
<path d="M382.921 175.096C383.081 175.693 383.06 176.324 382.861 176.909C382.663 177.495 382.295 178.008 381.805 178.384C381.314 178.761 380.723 178.983 380.106 179.023C379.49 179.064 378.875 178.92 378.339 178.611C377.804 178.302 377.372 177.841 377.099 177.287C376.826 176.733 376.723 176.11 376.803 175.497C376.884 174.884 377.145 174.309 377.552 173.844C377.96 173.379 378.496 173.046 379.093 172.886C379.49 172.78 379.903 172.753 380.31 172.806C380.717 172.86 381.109 172.993 381.465 173.198C381.82 173.403 382.132 173.677 382.381 174.002C382.631 174.328 382.815 174.699 382.921 175.096Z" fill="white"/>
<path d="M387.575 192.463C387.735 193.06 387.714 193.691 387.516 194.277C387.317 194.862 386.949 195.375 386.459 195.751C385.968 196.128 385.377 196.35 384.76 196.391C384.144 196.431 383.529 196.288 382.993 195.979C382.458 195.67 382.026 195.209 381.753 194.654C381.48 194.1 381.377 193.477 381.458 192.864C381.538 192.251 381.799 191.676 382.206 191.211C382.614 190.747 383.15 190.413 383.747 190.253C384.548 190.039 385.401 190.151 386.119 190.565C386.837 190.98 387.36 191.662 387.575 192.463Z" fill="white"/>
<path d="M350.071 250.421C334.754 251.461 319.473 247.935 306.161 240.288C292.848 232.642 282.103 221.219 275.284 207.464C268.464 193.71 265.878 178.242 267.851 163.017C269.825 147.792 276.27 133.495 286.37 121.934C296.471 110.372 309.774 102.066 324.596 98.0668C339.418 94.0672 355.093 94.5536 369.638 99.4644C384.184 104.375 396.946 113.49 406.311 125.655C415.675 137.821 421.221 152.49 422.247 167.808C423.6 188.327 416.763 208.546 403.233 224.032C389.704 239.518 370.586 249.008 350.071 250.421V250.421ZM349.476 241.54C363.031 240.628 376.011 235.717 386.775 227.428C397.54 219.14 405.604 207.845 409.95 194.973C414.295 182.101 414.726 168.229 411.188 155.112C407.65 141.995 400.302 130.222 390.073 121.281C379.844 112.34 367.194 106.633 353.722 104.881C340.249 103.13 326.56 105.412 314.385 111.441C302.21 117.469 292.096 126.972 285.321 138.748C278.547 150.525 275.417 164.045 276.326 177.6C277.563 195.774 285.96 212.714 299.675 224.701C313.389 236.689 331.3 242.745 349.476 241.54V241.54Z" fill="#37474F"/>
<path d="M407.117 138.773C403.097 131.513 397.844 125.009 391.593 119.551C377.414 107.161 358.894 100.91 340.106 102.175C321.319 103.44 303.803 112.116 291.413 126.295C279.022 140.474 272.772 158.995 274.037 177.782C275.301 196.57 283.978 214.085 298.157 226.476C308.725 235.728 321.801 241.636 335.729 243.452C349.657 245.268 363.81 242.911 376.398 236.678C388.985 230.445 399.44 220.618 406.438 208.439C413.437 196.261 416.664 182.28 415.712 168.267C415.051 157.923 412.117 147.852 407.117 138.773V138.773ZM411.099 168.544C412.148 183.889 407.842 199.124 398.916 211.65C389.99 224.176 376.996 233.219 362.149 237.237C347.302 241.255 331.52 239.999 317.495 233.684C303.47 227.369 292.07 216.385 285.236 202.605C278.403 188.825 276.561 173.102 280.023 158.115C283.485 143.129 292.038 129.807 304.223 120.42C316.408 111.034 331.472 106.164 346.845 106.64C362.219 107.117 376.952 112.911 388.532 123.034C401.786 134.616 409.906 150.981 411.111 168.541L411.099 168.544ZM407.117 138.773C403.097 131.513 397.844 125.009 391.593 119.551C377.414 107.161 358.894 100.91 340.106 102.175C321.319 103.44 303.803 112.116 291.413 126.295C279.022 140.474 272.772 158.995 274.037 177.782C275.301 196.57 283.978 214.085 298.157 226.476C308.725 235.728 321.801 241.636 335.729 243.452C349.657 245.268 363.81 242.911 376.398 236.678C388.985 230.445 399.44 220.618 406.438 208.439C413.437 196.261 416.664 182.28 415.712 168.267C415.051 157.923 412.117 147.852 407.117 138.773V138.773ZM411.099 168.544C412.148 183.889 407.842 199.124 398.916 211.65C389.99 224.176 376.996 233.219 362.149 237.237C347.302 241.255 331.52 239.999 317.495 233.684C303.47 227.369 292.07 216.385 285.236 202.605C278.403 188.825 276.561 173.102 280.023 158.115C283.485 143.129 292.038 129.807 304.223 120.42C316.408 111.034 331.472 106.164 346.845 106.64C362.219 107.117 376.952 112.911 388.532 123.034C401.786 134.616 409.906 150.981 411.111 168.541L411.099 168.544ZM414.891 134.493C405.415 117.245 389.905 104.104 371.335 97.5879C352.766 91.0721 332.445 91.6412 314.269 99.186C296.094 106.731 281.344 120.72 272.848 138.471C264.352 156.222 262.708 176.484 268.232 195.372C273.756 214.26 286.058 230.444 302.78 240.82C319.502 251.195 339.466 255.032 358.842 251.595C378.219 248.157 395.645 237.687 407.777 222.192C419.909 206.698 425.894 187.269 424.583 167.634C423.816 156.011 420.512 144.698 414.903 134.49L414.891 134.493ZM419.98 167.948C421.231 186.465 415.601 204.791 404.17 219.411C392.739 234.032 376.313 243.918 358.042 247.172C339.771 250.426 320.942 246.821 305.166 237.046C289.39 227.271 277.779 212.016 272.559 194.207C267.338 176.398 268.877 157.288 276.88 140.544C284.883 123.8 298.786 110.599 315.923 103.475C333.06 96.3515 352.224 95.8053 369.738 101.942C387.253 108.078 401.885 120.465 410.829 136.726C416.135 146.335 419.263 156.993 419.993 167.945L419.98 167.948ZM391.593 119.551C377.414 107.161 358.894 100.91 340.106 102.175C321.319 103.44 303.803 112.116 291.413 126.295C279.022 140.474 272.772 158.995 274.037 177.782C275.301 196.57 283.978 214.085 298.157 226.476C308.725 235.728 321.801 241.636 335.729 243.452C349.657 245.268 363.81 242.911 376.398 236.678C388.985 230.445 399.44 220.618 406.438 208.439C413.437 196.261 416.664 182.28 415.712 168.267C415.045 157.937 412.109 147.88 407.114 138.814C403.099 131.54 397.847 125.021 391.593 119.551V119.551ZM411.111 168.541C412.16 183.886 407.855 199.12 398.929 211.647C390.003 224.173 377.008 233.216 362.161 237.234C347.314 241.252 331.533 239.996 317.508 233.681C303.483 227.366 292.082 216.382 285.249 202.602C278.416 188.822 276.573 173.098 280.036 158.112C283.498 143.125 292.05 129.803 304.235 120.417C316.421 111.03 331.484 106.161 346.858 106.637C362.232 107.114 376.964 112.908 388.545 123.031C401.794 134.616 409.91 150.982 411.111 168.541V168.541Z" fill="#37474F"/>
<path d="M307.384 134.791C312.233 129.586 318.123 125.458 324.67 122.676C327.976 121.211 331.422 120.086 334.956 119.321C338.534 118.556 342.178 118.142 345.836 118.084C353.216 118.047 360.523 119.554 367.287 122.509C373.953 125.407 380.021 129.52 385.184 134.637C379.123 131.034 372.716 128.049 366.059 125.727C362.806 124.658 359.473 123.851 356.091 123.312C352.748 122.732 349.356 122.472 345.964 122.537C339.178 122.605 332.445 123.735 326.01 125.886C319.464 128.091 313.21 131.081 307.384 134.791V134.791Z" fill="#C0E2E9"/>
<path d="M438.636 286.716L422.261 349.272H458.781L442.406 286.716C442.306 286.291 442.066 285.912 441.724 285.641C441.382 285.369 440.958 285.222 440.521 285.222C440.084 285.222 439.66 285.369 439.318 285.641C438.976 285.912 438.735 286.291 438.636 286.716V286.716Z" fill="#2E9DB6" stroke="#2C2C2C" stroke-linecap="round" stroke-linejoin="round"/>
<path d="M422.261 349.272H452.014L437.138 292.434L422.261 349.272Z" fill="#2C2C2C" stroke="#2C2C2C" stroke-linecap="round" stroke-linejoin="round"/>
<path d="M462.467 347.9H416.916C415.592 347.9 414.518 348.973 414.518 350.297V350.603C414.518 351.927 415.592 353 416.916 353H462.467C463.791 353 464.865 351.927 464.865 350.603V350.297C464.865 348.973 463.791 347.9 462.467 347.9Z" fill="#2E9DB6" stroke="#2C2C2C" stroke-linecap="round" stroke-linejoin="round"/>
<path d="M446.878 347.9H416.916C415.592 347.9 414.518 348.973 414.518 350.297V350.603C414.518 351.927 415.592 353 416.916 353H446.878C448.202 353 449.275 351.927 449.275 350.603V350.297C449.275 348.973 448.202 347.9 446.878 347.9Z" fill="#2C2C2C" stroke="#2C2C2C" stroke-linecap="round" stroke-linejoin="round"/>
<path d="M428.796 324.321H452.249L449.414 313.484H431.631L428.796 324.321Z" fill="white" stroke="#2C2C2C" stroke-linecap="round" stroke-linejoin="round"/>
<path d="M428.796 324.321H445.489L442.654 313.484H431.631L428.796 324.321Z" fill="#BABABA" stroke="#2C2C2C" stroke-linecap="round" stroke-linejoin="round"/>
<path d="M98.8659 144.254L82.0292 181.563L77.355 189.449L87.2353 193.783L89.2483 192.858L119.258 148.133L98.8659 144.254Z" fill="#2C2C2C"/>
<path d="M86.8844 185.906L60.5328 154.582L52.1846 148.362L45.9628 151.057L47.228 156.19L74.4854 194.216L86.8844 185.906Z" fill="#2C2C2C"/>
<path d="M89.9774 190.856C91.1079 184.697 90.0794 179.347 87.6801 178.907C85.2809 178.466 82.4194 183.102 81.2888 189.261C80.1583 195.42 81.1868 200.77 83.586 201.21C85.9853 201.65 88.8468 197.015 89.9774 190.856Z" fill="white"/>
<path d="M84.9323 201.566C84.4384 201.775 83.954 201.832 83.4719 201.752C82.0762 201.493 81.0297 199.979 80.5557 197.49C80.1083 195.168 80.1688 192.213 80.7283 189.165C81.2878 186.117 82.2746 183.336 83.528 181.324C84.8651 179.157 86.3663 178.116 87.7747 178.37C89.1704 178.629 90.2168 180.143 90.6908 182.633C91.1383 184.954 91.0778 187.91 90.5182 190.958C89.9587 194.005 88.9719 196.786 87.7185 198.798C86.8411 200.217 85.8822 201.162 84.9323 201.566ZM83.6815 200.662C84.5897 200.829 85.7183 199.932 86.7937 198.204C87.96 196.304 88.9138 193.657 89.4404 190.743C89.9796 187.823 90.0432 185.015 89.6188 182.819C89.2371 180.828 88.4879 179.592 87.5797 179.424C86.6714 179.257 85.5428 180.155 84.4675 181.882C83.3012 183.782 82.3473 186.43 81.8208 189.344C81.2943 192.258 81.2179 195.071 81.6423 197.267C82.0294 199.271 82.7606 200.5 83.6815 200.662Z" fill="#2C2C2C"/>
<path d="M85.3456 190.563C87.8434 184.838 88.0502 179.403 85.8074 178.425C83.5646 177.446 79.7216 181.295 77.2237 187.02C74.7258 192.745 74.5191 198.18 76.7619 199.158C79.0046 200.137 82.8477 196.289 85.3456 190.563Z" fill="white"/>
<path d="M78.8678 199.559C78.8045 199.586 78.7285 199.618 78.6652 199.645C77.8511 199.946 77.105 199.949 76.4646 199.638C75.184 199.015 74.552 197.281 74.6745 194.717C74.7855 192.338 75.5377 189.463 76.7921 186.643C78.7437 182.227 81.5394 178.813 83.9181 177.937C84.7322 177.636 85.4783 177.633 86.1187 177.945C87.3993 178.567 88.0313 180.302 87.9088 182.865C87.7978 185.244 87.0456 188.119 85.7912 190.939C83.8779 195.234 81.1855 198.575 78.8678 199.559ZM84.1276 179.029C82.0886 179.895 79.5592 183.091 77.8005 187.082C76.6026 189.788 75.8906 192.512 75.7692 194.761C75.6719 196.82 76.1026 198.222 76.9468 198.626C77.3057 198.802 77.7629 198.787 78.2929 198.592C78.3436 198.571 78.3942 198.549 78.4576 198.522C80.4966 197.657 83.026 194.46 84.7847 190.47C85.9826 187.764 86.6946 185.04 86.816 182.791C86.9133 180.731 86.4826 179.33 85.6384 178.926C85.2795 178.749 84.8223 178.764 84.2923 178.959C84.2343 178.999 84.1783 179.008 84.1276 179.029Z" fill="#2C2C2C"/>
<path d="M40.8951 142.351L46.2976 138.541C46.8441 138.15 47.6037 138.282 47.9812 138.826L64.2927 157.287C66.2203 160.015 65.5651 163.786 62.8408 165.7L60.7418 167.183C58.0146 169.111 54.2436 168.456 52.3295 165.731L40.6101 144.035C40.2192 143.488 40.3485 142.742 40.8951 142.351Z" fill="white"/>
<path d="M55.8924 168.705C54.3172 168.373 52.8614 167.475 51.8672 166.056L51.8353 166.007L40.1401 144.329C39.8823 143.951 39.7819 143.494 39.8622 143.047C39.9453 142.587 40.2007 142.176 40.5813 141.905L45.9838 138.095C46.7615 137.542 47.8499 137.716 48.4164 138.496L64.728 156.957L64.752 156.977C66.8524 159.951 66.1396 164.062 63.1651 166.162L61.066 167.646C59.5001 168.735 57.6291 169.072 55.8924 168.705ZM52.7965 165.45C54.5435 167.9 57.9646 168.482 60.4251 166.751L62.5242 165.267C64.9876 163.523 65.5824 160.105 63.8652 157.647L47.5565 139.173L47.5324 139.153C47.3277 138.857 46.9075 138.783 46.6084 139.001L41.2222 142.8L40.9085 142.354L41.2222 142.8C41.0755 142.895 40.9847 143.059 40.9506 143.221C40.9137 143.396 40.9603 143.574 41.0588 143.708L41.0906 143.756L52.7965 165.45Z" fill="#2C2C2C"/>
<path d="M50.1809 149.992C51.9155 148.769 53.046 147.011 53.5062 145.097L47.9783 138.84C47.5874 138.293 46.8413 138.164 46.2947 138.555L40.8951 142.351C40.3485 142.742 40.2192 143.488 40.6101 144.035L44.6463 151.496C46.539 151.656 48.498 151.17 50.1809 149.992Z" fill="#50BFD7"/>
<path d="M44.2952 152.027L40.14 144.33C39.8822 143.952 39.7818 143.495 39.8621 143.048C39.9453 142.587 40.2006 142.177 40.5813 141.906L45.9837 138.096C46.3644 137.825 46.835 137.727 47.2984 137.797C47.7455 137.877 48.1451 138.116 48.4192 138.483L54.1177 144.931L54.0446 145.211C53.5283 147.324 52.2646 149.181 50.4973 150.425C48.7761 151.651 46.6868 152.222 44.5999 152.049L44.2952 152.027ZM47.1384 138.888C47.125 138.885 47.125 138.885 47.1115 138.882C46.9365 138.845 46.7579 138.892 46.6246 138.99L41.2221 142.8C41.0754 142.896 40.9846 143.059 40.9505 143.221C40.9136 143.396 40.9603 143.575 41.0587 143.708L41.0906 143.757L44.9732 150.947C46.7157 151.019 48.4373 150.524 49.8593 149.517C51.3466 148.467 52.4124 146.948 52.9058 145.21L47.5458 139.157L47.5217 139.138C47.4339 139.021 47.3 138.922 47.1384 138.888Z" fill="#2C2C2C"/>
<path d="M40.368 144.983C40.368 144.983 44.4011 147.395 48.4935 143.196C52.5994 139 48.0178 135.122 47.9775 132.048C47.9372 128.974 47.429 124.985 46.0471 125.003C44.6653 125.021 43.1934 130.729 43.2159 132.421C43.2385 134.113 36.7951 129.196 35.1632 127.6C33.5313 126.004 33.056 118.394 31.3638 118.417C29.6715 118.439 29.7269 129.504 29.7411 130.97C29.7581 132.422 38.8055 143.458 40.368 144.983Z" fill="white"/>
<path d="M41.784 146.069C40.7608 145.853 40.1091 145.476 40.0715 145.454L40.0234 145.416L39.978 145.364C39.126 144.538 36.3518 141.224 34.0353 138.274C29.192 132.105 29.1846 131.274 29.1827 130.95C29.1702 130.343 29.1555 127.148 29.3498 124.095C29.7182 118.618 30.525 117.86 31.3428 117.85C32.6949 117.84 33.2359 120.007 33.9354 122.756C34.3887 124.54 34.8909 126.558 35.5319 127.185C36.1863 127.816 37.7674 129.12 39.4066 130.281C41.4128 131.703 42.3048 132.074 42.652 132.162C42.6978 131.145 43.07 129.381 43.569 127.883C44.7038 124.438 45.7051 124.425 46.029 124.423C47.4243 124.408 47.8902 126.531 48.0394 127.224C48.3201 128.492 48.4879 130.229 48.5175 132.021C48.5298 132.896 48.9885 133.921 49.479 134.995C50.5706 137.419 51.9311 140.434 48.8838 143.546C46.622 145.867 44.3591 146.261 42.8569 146.183C42.4763 146.187 42.1071 146.137 41.784 146.069ZM40.702 144.533C41.1823 144.789 44.5653 146.417 48.0983 142.803C50.611 140.226 49.5329 137.804 48.4782 135.472C47.9431 134.277 47.4341 133.157 47.4269 132.058C47.4072 130.353 47.2415 128.672 46.9841 127.493C46.6468 125.959 46.2247 125.561 46.0575 125.554C45.9115 125.579 45.3117 126.156 44.5948 128.353C44.0647 129.999 43.7577 131.72 43.7665 132.411C43.7706 132.791 43.5784 133.102 43.2665 133.248C42.9575 133.379 42.2933 133.661 38.9611 131.326C37.1986 130.083 35.4836 128.68 34.7732 127.982C33.9105 127.139 33.4027 125.147 32.8772 123.039C32.5844 121.895 32.31 120.796 32 119.999C31.6978 119.233 31.4867 119.033 31.3982 118.987C31.2372 119.149 30.7067 120.064 30.4345 124.619C30.2608 127.507 30.292 130.425 30.2888 130.973C30.2987 131.059 30.5363 132.066 34.9802 137.728C37.4356 140.82 39.9115 143.747 40.702 144.533Z" fill="#2C2C2C"/>
<path d="M196.275 144.254L213.112 181.563L217.786 189.449L207.906 193.783L205.893 192.858L175.883 148.133L196.275 144.254Z" fill="#2C2C2C"/>
<path d="M208.257 185.906L234.608 154.582L242.957 148.362L249.178 151.057L247.913 156.19L220.656 194.216L208.257 185.906Z" fill="#2C2C2C"/>
<path d="M205.164 190.856C204.033 184.697 205.062 179.347 207.461 178.907C209.86 178.466 212.722 183.102 213.852 189.261C214.983 195.42 213.954 200.77 211.555 201.21C209.156 201.65 206.294 197.015 205.164 190.856Z" fill="white"/>
<path d="M210.209 201.566C210.703 201.775 211.187 201.832 211.669 201.752C213.065 201.493 214.111 199.979 214.585 197.49C215.033 195.168 214.972 192.213 214.413 189.165C213.853 186.117 212.866 183.336 211.613 181.324C210.276 179.157 208.775 178.116 207.366 178.37C205.971 178.629 204.924 180.143 204.45 182.633C204.003 184.954 204.063 187.91 204.623 190.958C205.182 194.005 206.169 196.786 207.423 198.798C208.3 200.217 209.259 201.162 210.209 201.566ZM211.46 200.662C210.551 200.829 209.423 199.932 208.347 198.204C207.181 196.304 206.227 193.657 205.701 190.743C205.162 187.823 205.098 185.015 205.522 182.819C205.904 180.828 206.653 179.592 207.561 179.424C208.47 179.257 209.598 180.155 210.674 181.882C211.84 183.782 212.794 186.43 213.32 189.344C213.847 192.258 213.923 195.071 213.499 197.267C213.112 199.271 212.38 200.5 211.46 200.662Z" fill="#2C2C2C"/>
<path d="M209.796 190.563C207.298 184.838 207.091 179.403 209.334 178.425C211.576 177.446 215.42 181.295 217.917 187.02C220.415 192.745 220.622 198.18 218.379 199.158C216.136 200.137 212.293 196.289 209.796 190.563Z" fill="white"/>
<path d="M216.273 199.559C216.337 199.586 216.413 199.618 216.476 199.645C217.29 199.946 218.036 199.949 218.676 199.638C219.957 199.015 220.589 197.281 220.467 194.717C220.356 192.338 219.603 189.463 218.349 186.643C216.397 182.227 213.602 178.813 211.223 177.937C210.409 177.636 209.663 177.633 209.022 177.945C207.742 178.567 207.11 180.302 207.232 182.865C207.343 185.244 208.096 188.119 209.35 190.939C211.263 195.234 213.956 198.575 216.273 199.559ZM211.013 179.029C213.053 179.895 215.582 183.091 217.341 187.082C218.539 189.788 219.25 192.512 219.372 194.761C219.469 196.82 219.038 198.222 218.194 198.626C217.835 198.802 217.378 198.787 216.848 198.592C216.798 198.571 216.747 198.549 216.684 198.522C214.644 197.657 212.115 194.46 210.356 190.47C209.159 187.764 208.447 185.04 208.325 182.791C208.228 180.731 208.659 179.33 209.503 178.926C209.862 178.749 210.319 178.764 210.849 178.959C210.907 178.999 210.963 179.008 211.013 179.029Z" fill="#2C2C2C"/>
<path d="M254.246 142.351L248.844 138.541C248.297 138.15 247.537 138.282 247.16 138.826L230.848 157.287C228.921 160.015 229.576 163.786 232.3 165.7L234.399 167.183C237.126 169.111 240.898 168.456 242.812 165.731L254.531 144.035C254.922 143.488 254.793 142.742 254.246 142.351Z" fill="white"/>
<path d="M239.249 168.705C240.824 168.373 242.28 167.475 243.274 166.056L243.306 166.007L255.001 144.329C255.259 143.951 255.359 143.494 255.279 143.047C255.196 142.587 254.94 142.176 254.56 141.905L249.157 138.095C248.38 137.542 247.291 137.716 246.725 138.496L230.413 156.957L230.389 156.977C228.289 159.951 229.002 164.062 231.976 166.162L234.075 167.646C235.641 168.735 237.512 169.072 239.249 168.705ZM242.345 165.45C240.598 167.9 237.176 168.482 234.716 166.751L232.617 165.267C230.153 163.523 229.559 160.105 231.276 157.647L247.585 139.173L247.609 139.153C247.813 138.857 248.234 138.783 248.533 139.001L253.919 142.8L254.233 142.354L253.919 142.8C254.066 142.895 254.156 143.059 254.19 143.221C254.227 143.396 254.181 143.574 254.082 143.708L254.05 143.756L242.345 165.45Z" fill="#2C2C2C"/>
<path d="M244.96 149.992C243.226 148.769 242.095 147.011 241.635 145.097L247.163 138.84C247.554 138.293 248.3 138.164 248.846 138.555L254.246 142.351C254.793 142.742 254.922 143.488 254.531 144.035L250.495 151.496C248.602 151.656 246.643 151.17 244.96 149.992Z" fill="#50BFD7"/>
<path d="M250.846 152.027L255.001 144.33C255.259 143.952 255.359 143.495 255.279 143.048C255.196 142.587 254.94 142.177 254.56 141.906L249.157 138.096C248.777 137.825 248.306 137.727 247.843 137.797C247.396 137.877 246.996 138.116 246.722 138.483L241.023 144.931L241.097 145.211C241.613 147.324 242.876 149.181 244.644 150.425C246.365 151.651 248.454 152.222 250.541 152.049L250.846 152.027ZM248.003 138.888C248.016 138.885 248.016 138.885 248.03 138.882C248.205 138.845 248.383 138.892 248.516 138.99L253.919 142.8C254.066 142.896 254.156 143.059 254.191 143.221C254.227 143.396 254.181 143.575 254.082 143.708L254.051 143.757L250.168 150.947C248.425 151.019 246.704 150.524 245.282 149.517C243.795 148.467 242.729 146.948 242.235 145.21L247.595 139.157L247.619 139.138C247.707 139.021 247.841 138.922 248.003 138.888Z" fill="#2C2C2C"/>
<path d="M254.773 144.983C254.773 144.983 250.74 147.395 246.648 143.196C242.542 139 247.123 135.122 247.164 132.048C247.204 128.974 247.712 124.985 249.094 125.003C250.476 125.021 251.948 130.729 251.925 132.421C251.903 134.113 258.346 129.196 259.978 127.6C261.61 126.004 262.085 118.394 263.777 118.417C265.47 118.439 265.414 129.504 265.4 130.97C265.383 132.422 256.336 143.458 254.773 144.983Z" fill="white"/>
<path d="M253.357 146.069C254.38 145.853 255.032 145.476 255.07 145.454L255.118 145.416L255.163 145.364C256.015 144.538 258.789 141.224 261.106 138.274C265.949 132.105 265.956 131.274 265.958 130.95C265.971 130.343 265.986 127.148 265.791 124.095C265.423 118.618 264.616 117.86 263.798 117.85C262.446 117.84 261.905 120.007 261.206 122.756C260.752 124.54 260.25 126.558 259.609 127.185C258.955 127.816 257.374 129.12 255.734 130.281C253.728 131.703 252.836 132.074 252.489 132.162C252.443 131.145 252.071 129.381 251.572 127.883C250.437 124.438 249.436 124.425 249.112 124.423C247.717 124.408 247.251 126.531 247.102 127.224C246.821 128.492 246.653 130.229 246.624 132.021C246.611 132.896 246.153 133.921 245.662 134.995C244.571 137.419 243.21 140.434 246.257 143.546C248.519 145.867 250.782 146.261 252.284 146.183C252.665 146.187 253.034 146.137 253.357 146.069ZM254.439 144.533C253.959 144.789 250.576 146.417 247.043 142.803C244.53 140.226 245.608 137.804 246.663 135.472C247.198 134.277 247.707 133.157 247.714 132.058C247.734 130.353 247.9 128.672 248.157 127.493C248.494 125.959 248.916 125.561 249.084 125.554C249.23 125.579 249.829 126.156 250.546 128.353C251.076 129.999 251.383 131.72 251.375 132.411C251.37 132.791 251.563 133.102 251.875 133.248C252.184 133.379 252.848 133.661 256.18 131.326C257.943 130.083 259.657 128.68 260.368 127.982C261.231 127.139 261.738 125.147 262.264 123.039C262.557 121.895 262.831 120.796 263.141 119.999C263.443 119.233 263.654 119.033 263.743 118.987C263.904 119.149 264.434 120.064 264.707 124.619C264.88 127.507 264.849 130.425 264.852 130.973C264.842 131.059 264.605 132.066 260.161 137.728C257.706 140.82 255.23 143.747 254.439 144.533Z" fill="#2C2C2C"/>
<path d="M147.419 129.187C151.877 129.187 158.826 128.265 158.826 125.238L157.684 115.138L156.679 106.305C156.679 103.278 153.06 100.815 148.602 100.815C146.373 100.815 144.351 101.434 142.892 102.425C141.434 103.415 140.526 104.791 140.526 106.305L139.549 115.152L138.599 123.628C137.306 128.746 147.419 129.187 147.419 129.187Z" fill="#2C2C2C"/>
<path d="M147.419 233.538C151.877 233.538 158.826 232.616 158.826 229.589L157.684 219.49L156.679 210.656C156.679 207.629 153.06 205.166 148.602 205.166C146.373 205.166 144.351 205.785 142.892 206.776C141.434 207.767 140.526 209.142 140.526 210.656L139.549 219.503L138.599 227.979C137.306 233.098 147.419 233.538 147.419 233.538Z" fill="#2C2C2C"/>
<path d="M202.002 142.341C202.002 151.119 196.25 156.554 187.472 156.554C178.693 156.554 171.58 149.441 171.58 140.662C171.58 131.884 178.212 122.197 186.578 124.825C195.796 127.701 202.002 133.562 202.002 142.341Z" fill="white"/>
<path d="M187.472 157.105C178.405 157.105 171.03 149.73 171.03 140.662C171.03 134.828 173.795 128.884 177.896 125.871C180.62 123.876 183.674 123.325 186.743 124.289C196.925 127.481 202.539 133.893 202.539 142.327C202.552 151.298 196.622 157.105 187.472 157.105ZM183.812 124.935C181.982 124.935 180.193 125.554 178.542 126.765C174.758 129.545 172.13 135.255 172.13 140.662C172.13 149.124 179.01 156.004 187.472 156.004C191.655 156.004 195.177 154.738 197.64 152.344C200.131 149.936 201.452 146.469 201.452 142.341C201.452 134.429 196.113 128.389 186.426 125.348C185.546 125.073 184.679 124.935 183.812 124.935Z" fill="#2C2C2C"/>
<path d="M194.847 139.781C194.847 146.276 190.596 150.293 184.101 150.293C177.607 150.293 172.351 145.037 172.351 138.543C172.351 132.049 177.249 124.88 183.441 126.82C190.252 128.966 194.847 133.301 194.847 139.781Z" fill="#2C2C2C"/>
<path d="M95.3532 142.341C95.3532 151.119 101.105 156.554 109.883 156.554C118.662 156.554 125.775 149.441 125.775 140.662C125.775 131.884 119.143 122.197 110.777 124.825C101.559 127.701 95.3532 133.562 95.3532 142.341Z" fill="white"/>
<path d="M109.883 157.105C100.719 157.105 94.8029 151.312 94.8029 142.341C94.8029 133.906 100.417 127.494 110.599 124.302C113.667 123.339 116.735 123.889 119.446 125.885C123.56 128.898 126.312 134.842 126.312 140.676C126.326 149.73 118.951 157.105 109.883 157.105ZM113.543 124.935C112.676 124.935 111.809 125.073 110.943 125.348C101.256 128.389 95.9174 134.429 95.9174 142.341C95.9174 146.469 97.2383 149.936 99.7287 152.344C102.205 154.738 105.714 156.004 109.897 156.004C118.359 156.004 125.239 149.124 125.239 140.662C125.239 135.255 122.597 129.531 118.827 126.765C117.148 125.541 115.373 124.935 113.543 124.935Z" fill="#2C2C2C"/>
<path d="M102.508 139.781C102.508 146.276 106.76 150.293 113.255 150.293C119.749 150.293 125.005 145.037 125.005 138.543C125.005 132.049 120.107 124.88 113.915 126.82C107.09 128.966 102.508 133.301 102.508 139.781Z" fill="#2C2C2C"/>
<path d="M159.114 118.344H138.186C129.05 119.17 120.313 121.055 112.154 123.848L127.812 204.12C128.94 209.927 134.031 214.123 139.948 214.123H157.642C163.572 214.123 168.677 209.913 169.792 204.079L185.161 123.848C177.001 121.055 168.264 119.17 159.114 118.344Z" fill="white"/>
<path d="M157.642 214.674H139.948C133.783 214.674 128.445 210.284 127.275 204.23L111.521 123.477L111.975 123.325C120.313 120.477 129.105 118.606 138.131 117.794H138.186H159.142H159.169C168.196 118.606 177.002 120.463 185.34 123.325L185.794 123.477L170.328 204.189C169.172 210.257 163.834 214.674 157.642 214.674ZM112.787 124.206L128.348 204.01C129.422 209.541 134.306 213.559 139.948 213.559H157.642C163.297 213.559 168.182 209.528 169.241 203.969L184.514 124.206C176.396 121.468 167.838 119.679 159.073 118.881H138.214C129.449 119.679 120.891 121.468 112.787 124.206Z" fill="#2C2C2C"/>
<path d="M122.941 120.766C124.908 133.204 126.876 145.643 128.844 158.068C130.605 167.424 139.48 173.657 148.74 173.712C158 173.657 166.874 167.438 168.636 158.068C170.603 145.643 172.571 133.218 174.538 120.807C169.558 119.651 164.398 118.812 159.114 118.344H138.186C132.958 118.812 127.867 119.638 122.941 120.766Z" fill="#50BFD7"/>
<path d="M148.754 174.262C144.034 174.235 139.383 172.666 135.655 169.818C131.774 166.874 129.174 162.732 128.307 158.164V158.15L122.322 120.339L122.817 120.229C127.812 119.074 132.972 118.262 138.131 117.794H138.186H159.142H159.169C164.398 118.262 169.613 119.101 174.676 120.271L175.172 120.381L169.186 158.164C168.333 162.732 165.719 166.86 161.839 169.818C158.11 172.666 153.459 174.235 148.754 174.262ZM129.394 157.985C130.206 162.278 132.655 166.172 136.315 168.951C139.865 171.648 144.282 173.148 148.754 173.162C153.225 173.134 157.642 171.634 161.178 168.951C164.838 166.172 167.287 162.278 168.099 157.985L173.919 121.234C169.076 120.133 164.095 119.349 159.087 118.895H138.214C133.274 119.335 128.348 120.106 123.56 121.193L129.394 157.985Z" fill="#2C2C2C"/>
<path d="M153.706 137.181H143.139C140.332 137.181 138.048 139.465 138.048 142.272V152.839C138.048 155.646 140.332 157.93 143.139 157.93H153.706C156.513 157.93 158.797 155.646 158.797 152.839V142.272C158.797 139.465 156.527 137.181 153.706 137.181ZM135.241 132.682C133.632 132.682 132.324 133.989 132.324 135.599C132.324 137.208 133.632 138.516 135.241 138.516C136.851 138.516 138.158 137.208 138.158 135.599C138.158 133.989 136.851 132.682 135.241 132.682Z" fill="white"/>
<path d="M152.963 143.483C152.289 141.68 150.569 140.483 148.643 140.483H145.781L151.436 154.82H157.504L152.963 143.483ZM141.405 150.706L139.754 154.82H145.781L148.588 147.707H145.726C143.8 147.707 142.08 148.904 141.405 150.706ZM142.341 144.047C143.332 144.047 144.144 143.235 144.144 142.244C144.144 141.254 143.332 140.442 142.341 140.442C141.35 140.442 140.539 141.254 140.539 142.244C140.539 143.235 141.35 144.047 142.341 144.047Z" fill="#50BFD7"/>
<path d="M158.894 112.923H138.434C135.489 112.923 133.068 110.515 133.068 107.557C133.068 104.613 135.476 102.191 138.434 102.191H158.894C161.839 102.191 164.26 104.599 164.26 107.557C164.247 110.515 161.839 112.923 158.894 112.923Z" fill="#50BFD7"/>
<path d="M158.894 113.474H138.434C135.173 113.474 132.517 110.818 132.517 107.557C132.517 104.296 135.173 101.641 138.434 101.641H158.894C162.155 101.641 164.81 104.296 164.81 107.557C164.81 110.818 162.141 113.474 158.894 113.474ZM138.434 102.755C135.778 102.755 133.618 104.915 133.618 107.571C133.618 110.226 135.778 112.387 138.434 112.387H158.894C161.549 112.387 163.71 110.226 163.71 107.571C163.71 104.915 161.549 102.755 158.894 102.755H138.434Z" fill="#2C2C2C"/>
<path d="M149.799 3.92139H147.515V18.8916H149.799V3.92139Z" fill="#2C2C2C"/>
<path d="M158.013 22.0425H139.3C138.956 22.0425 138.681 21.7673 138.681 21.4233V12.8374C138.681 12.4934 138.956 12.2183 139.3 12.2183H158.013C158.357 12.2183 158.632 12.4934 158.632 12.8374V21.437C158.632 21.7673 158.357 22.0425 158.013 22.0425Z" fill="#50BFD7"/>
<path d="M158.013 22.5929H139.301C138.654 22.5929 138.131 22.0701 138.131 21.4234V12.8375C138.131 12.1908 138.654 11.668 139.301 11.668H158.013C158.66 11.668 159.183 12.1908 159.183 12.8375V21.4371C159.183 22.0701 158.66 22.5929 158.013 22.5929ZM139.301 12.755C139.259 12.755 139.232 12.7825 139.232 12.8238V21.4234C139.232 21.4646 139.259 21.4922 139.301 21.4922H158.013C158.055 21.4922 158.082 21.4646 158.082 21.4234V12.8375C158.082 12.7962 158.055 12.7687 158.013 12.7687H139.301V12.755Z" fill="#2C2C2C"/>
<path d="M151.588 2.91699C151.588 4.52683 150.281 5.83398 148.671 5.83398C147.061 5.83398 145.754 4.52683 145.754 2.91699C145.754 1.30714 147.061 0 148.671 0C150.267 0 151.588 1.30714 151.588 2.91699Z" fill="#2C2C2C"/>
<path d="M150.693 1.78889C150.693 2.28423 150.294 2.68325 149.799 2.68325C149.303 2.68325 148.904 2.28423 148.904 1.78889C148.904 1.29355 149.303 0.894531 149.799 0.894531C150.294 0.894531 150.693 1.29355 150.693 1.78889Z" fill="#2C2C2C"/>
<path d="M165.774 83.3816C173.525 83.3816 179.808 77.0981 179.808 69.3471C179.808 61.596 173.525 55.3125 165.774 55.3125C158.023 55.3125 151.739 61.596 151.739 69.3471C151.739 77.0981 158.023 83.3816 165.774 83.3816Z" fill="#002731"/>
<path d="M148.657 95.0909C182.761 95.0909 210.409 82.6779 210.409 67.3658C210.409 52.0536 182.761 39.6406 148.657 39.6406C114.552 39.6406 86.9045 52.0536 86.9045 67.3658C86.9045 82.6779 114.552 95.0909 148.657 95.0909Z" fill="#2C2C2C"/>
<path d="M94.115 80.3823C95.2157 81.3041 96.4128 82.1985 97.7337 83.0516C94.5415 73.8466 93.1518 63.6371 93.4821 54.8999C92.4776 55.7943 91.5695 56.7299 90.7852 57.6793C90.8127 64.8892 91.8997 72.8421 94.115 80.3823Z" fill="#50BFD7"/>
<path d="M206.515 57.6656C205.717 56.7162 204.809 55.7806 203.805 54.8862C204.327 63.706 202.553 74.0943 199.03 83.4232C200.392 82.5563 201.658 81.662 202.8 80.7263C205.263 73.0211 206.556 64.9443 206.515 57.6656Z" fill="#50BFD7"/>
<path d="M161.26 107.653H136.067C115.689 107.653 99.1779 91.1419 99.1779 70.7643V65.1642C99.1779 39.0214 120.367 17.8457 146.496 17.8457H150.803C176.946 17.8457 198.122 39.0351 198.122 65.1642V70.7643C198.135 91.1419 181.624 107.653 161.26 107.653Z" fill="white"/>
<path d="M161.26 108.204H136.067C126.064 108.204 116.666 104.31 109.594 97.2374C102.521 90.1651 98.6276 80.7674 98.6276 70.7643V65.1643C98.6276 52.3818 103.608 40.3561 112.648 31.3162C121.688 22.2763 133.714 17.2954 146.496 17.2954H150.803C163.586 17.2954 175.611 22.2763 184.651 31.3162C193.691 40.3561 198.672 52.3818 198.672 65.1643V70.7643C198.672 80.7674 194.778 90.1651 187.706 97.2374C180.647 104.31 171.25 108.204 161.26 108.204ZM146.51 18.3962C134.017 18.3962 122.266 23.267 113.433 32.1005C104.599 40.934 99.7283 52.6845 99.7283 65.178V70.7781C99.7283 80.4785 103.512 89.6009 110.364 96.4669C117.23 103.333 126.353 107.103 136.053 107.103H161.246C170.947 107.103 180.069 103.319 186.935 96.4669C193.801 89.6009 197.571 80.4785 197.571 70.7781V65.178C197.571 52.6845 192.7 40.934 183.867 32.1005C175.033 23.267 163.283 18.3962 150.789 18.3962H146.51V18.3962Z" fill="#2C2C2C"/>
<path d="M138.461 86.7114C138.778 89.1881 139.988 91.4722 141.86 93.1233C143.731 94.7744 146.153 95.6963 148.657 95.6963C151.161 95.6963 153.569 94.7882 155.454 93.1233C157.325 91.4722 158.536 89.1881 158.853 86.7114H138.461Z" fill="white"/>
<path d="M148.657 47.3876C163.806 47.3876 177.538 42.8195 187.61 35.4169C178.927 24.6984 165.677 17.8462 150.803 17.8462H146.497C131.636 17.8462 118.372 24.6984 109.69 35.4169C119.776 42.8195 133.508 47.3876 148.657 47.3876Z" fill="#2C2C2C"/>
<path d="M148.657 24.8633C133.508 24.8633 119.776 29.4314 109.704 36.8339C118.386 47.5525 131.636 54.4047 146.51 54.4047H150.817C165.677 54.4047 178.941 47.5525 187.623 36.8339C177.538 29.4314 163.806 24.8633 148.657 24.8633Z" fill="#50BFD7"/>
<path d="M150.817 54.9684H146.51C131.994 54.9684 118.428 48.4877 109.278 37.1913L108.92 36.7372L109.388 36.3932C119.969 28.6054 133.921 24.3125 148.671 24.3125C163.407 24.3125 177.359 28.6054 187.954 36.3932L188.422 36.7372L188.064 37.1913C178.9 48.4877 165.333 54.9684 150.817 54.9684ZM110.502 36.9436C119.432 47.7034 132.517 53.8676 146.51 53.8676H150.817C164.81 53.8676 177.896 47.7034 186.825 36.9436C176.478 29.4998 162.953 25.4133 148.671 25.4133C134.361 25.4133 120.835 29.4998 110.502 36.9436Z" fill="#2C2C2C"/>
<path d="M183.069 77.5065C181.762 78.2908 180.29 78.7036 178.79 78.7036H118.537C117.038 78.7036 115.565 78.2908 114.258 77.5065C111.039 75.5802 109.209 71.6726 109.663 67.6686L109.69 67.3796C111.231 53.8266 121.372 43.4108 133.797 42.6265C139.053 42.2963 144.57 42.1174 150.322 42.1587C154.835 42.1862 159.183 42.3513 163.379 42.6128C175.859 43.397 186.068 53.7716 187.61 67.3796C187.623 67.4759 187.637 67.5723 187.637 67.6686C188.119 71.6726 186.289 75.5802 183.069 77.5065Z" fill="white"/>
<path d="M178.776 79.2544H118.538C116.942 79.2544 115.373 78.8141 113.969 77.9748C110.53 75.9246 108.631 71.8518 109.112 67.6002L109.14 67.3112C110.709 53.4831 121.069 42.8608 133.755 42.0628C139.245 41.7188 144.818 41.5674 150.322 41.595C154.67 41.6225 159.073 41.7738 163.407 42.049C176.176 42.8471 186.578 53.4693 188.146 67.2975L188.174 67.5864C188.655 71.8243 186.757 75.8971 183.317 77.961C181.955 78.8141 180.372 79.2544 178.776 79.2544ZM148.684 42.7095C143.745 42.7095 138.764 42.8608 133.838 43.1773C121.688 43.9478 111.754 54.1573 110.241 67.4488L110.213 67.7378C109.773 71.5491 111.479 75.2091 114.547 77.0391C115.772 77.7684 117.162 78.1536 118.551 78.1536H178.804C180.193 78.1536 181.583 77.7684 182.808 77.0391C185.876 75.2091 187.568 71.5491 187.142 67.7378L187.114 67.4488C185.601 54.1435 175.625 43.9341 163.393 43.1773C159.073 42.9021 154.683 42.7508 150.363 42.7232C149.771 42.7095 149.235 42.7095 148.684 42.7095Z" fill="#2C2C2C"/>
<path d="M138.957 61.2568C138.957 66.4578 134.43 70.6957 128.871 70.6957C123.298 70.6957 118.785 66.4716 118.785 61.2568C118.785 56.042 123.298 51.8179 128.871 51.8179C134.444 51.8179 138.957 56.042 138.957 61.2568Z" fill="white"/>
<path d="M128.871 71.2462C123.009 71.2462 118.235 66.7606 118.235 61.2569C118.235 55.7531 123.009 51.2676 128.871 51.2676C134.732 51.2676 139.507 55.7531 139.507 61.2569C139.507 66.7606 134.746 71.2462 128.871 71.2462ZM128.871 52.3683C123.615 52.3683 119.336 56.3585 119.336 61.2569C119.336 66.1552 123.615 70.1454 128.871 70.1454C134.127 70.1454 138.406 66.1552 138.406 61.2569C138.406 56.3585 134.127 52.3683 128.871 52.3683Z" fill="#2C2C2C"/>
<path d="M123.931 60.6648C123.931 64.9715 126.725 68.4527 130.164 68.4527C133.618 68.4527 136.411 64.9578 136.411 60.6648C136.411 56.3582 133.618 52.8633 130.164 52.8633C126.725 52.8633 123.931 56.3582 123.931 60.6648Z" fill="#50BFD7"/>
<path d="M125.734 60.6651C125.734 63.7197 127.715 66.1964 130.164 66.1964C132.614 66.1964 134.595 63.7197 134.595 60.6651C134.595 57.5968 132.614 55.1201 130.164 55.1201C127.715 55.1201 125.734 57.5968 125.734 60.6651Z" fill="#2C2C2C"/>
<path d="M125.459 55.4232C125.459 56.2625 126.491 56.9367 127.743 56.9367C129.009 56.9367 130.027 56.2625 130.027 55.4232C130.027 54.5839 129.009 53.9097 127.743 53.9097C126.477 53.9097 125.459 54.5839 125.459 55.4232Z" fill="white"/>
<path d="M177.483 61.2568C177.483 66.4578 172.956 70.6957 167.397 70.6957C161.825 70.6957 157.312 66.4716 157.312 61.2568C157.312 56.042 161.825 51.8179 167.397 51.8179C172.956 51.8179 177.483 56.042 177.483 61.2568Z" fill="white"/>
<path d="M167.397 71.2462C161.536 71.2462 156.761 66.7606 156.761 61.2569C156.761 55.7531 161.536 51.2676 167.397 51.2676C173.259 51.2676 178.033 55.7531 178.033 61.2569C178.033 66.7606 173.259 71.2462 167.397 71.2462ZM167.397 52.3683C162.141 52.3683 157.862 56.3585 157.862 61.2569C157.862 66.1552 162.141 70.1454 167.397 70.1454C172.653 70.1454 176.933 66.1552 176.933 61.2569C176.933 56.3585 172.653 52.3683 167.397 52.3683Z" fill="#2C2C2C"/>
<path d="M162.458 60.6648C162.458 64.9715 165.251 68.4527 168.691 68.4527C172.144 68.4527 174.938 64.9578 174.938 60.6648C174.938 56.3582 172.144 52.8633 168.691 52.8633C165.251 52.8633 162.458 56.3582 162.458 60.6648Z" fill="#50BFD7"/>
<path d="M164.26 60.6651C164.26 63.7197 166.242 66.1964 168.691 66.1964C171.14 66.1964 173.121 63.7197 173.121 60.6651C173.121 57.5968 171.14 55.1201 168.691 55.1201C166.242 55.1201 164.26 57.5968 164.26 60.6651Z" fill="#2C2C2C"/>
<path d="M163.971 55.4232C163.971 56.2625 165.003 56.9367 166.255 56.9367C167.521 56.9367 168.539 56.2625 168.539 55.4232C168.539 54.5839 167.521 53.9097 166.255 53.9097C165.003 53.9097 163.971 54.5839 163.971 55.4232Z" fill="white"/>
<path d="M128.995 329.689H142.933L148.161 232.919H123.766L128.995 329.689Z" fill="#2C2C2C"/>
<path d="M155.069 329.689H169.007L174.236 232.919H149.84L155.069 329.689Z" fill="#2C2C2C"/>
<path d="M132.517 370.169H140.387L143.346 331.064H129.559L132.517 370.169Z" fill="#2C2C2C"/>
<path d="M158.096 370.169H165.966L168.925 331.064H155.138L158.096 370.169Z" fill="#2C2C2C"/>
<path d="M136.48 333.279C141.708 333.279 145.946 331.129 145.946 328.477C145.946 325.825 141.708 323.675 136.48 323.675C131.252 323.675 127.013 325.825 127.013 328.477C127.013 331.129 131.252 333.279 136.48 333.279Z" fill="white"/>
<path d="M136.48 333.816C130.866 333.816 126.463 331.463 126.463 328.464C126.463 325.464 130.866 323.111 136.48 323.111C142.094 323.111 146.497 325.464 146.497 328.464C146.497 331.463 142.094 333.816 136.48 333.816ZM136.48 324.226C131.65 324.226 127.564 326.166 127.564 328.477C127.564 330.789 131.65 332.729 136.48 332.729C141.309 332.729 145.396 330.789 145.396 328.477C145.396 326.166 141.309 324.226 136.48 324.226Z" fill="#2C2C2C"/>
<path d="M162.334 333.279C167.562 333.279 171.8 331.129 171.8 328.477C171.8 325.825 167.562 323.675 162.334 323.675C157.106 323.675 152.867 325.825 152.867 328.477C152.867 331.129 157.106 333.279 162.334 333.279Z" fill="white"/>
<path d="M162.334 333.816C156.72 333.816 152.317 331.463 152.317 328.464C152.317 325.464 156.72 323.111 162.334 323.111C167.948 323.111 172.351 325.464 172.351 328.464C172.351 331.463 167.961 333.816 162.334 333.816ZM162.334 324.226C157.504 324.226 153.418 326.166 153.418 328.477C153.418 330.789 157.504 332.729 162.334 332.729C167.163 332.729 171.25 330.789 171.25 328.477C171.25 326.166 167.177 324.226 162.334 324.226Z" fill="#2C2C2C"/>
<path d="M153.5 217.522H148.657H143.814C129.394 217.522 117.272 225.764 122.005 232.809C126.353 239.276 138.31 249.155 148.671 249.306C159.032 249.169 170.988 239.289 175.336 232.809C180.042 225.764 167.934 217.522 153.5 217.522Z" fill="#50BFD7"/>
<path d="M148.657 249.857C142.617 249.774 136.673 246.568 132.765 243.885C128.21 240.775 123.918 236.648 121.551 233.111C120.147 231.02 120.037 228.708 121.262 226.438C122.638 223.865 125.637 221.485 129.697 219.737C133.866 217.949 138.874 216.972 143.827 216.972H153.514C158.454 216.972 163.476 217.949 167.645 219.737C171.718 221.485 174.717 223.865 176.079 226.438C177.29 228.708 177.194 231.02 175.79 233.111C173.424 236.648 169.117 240.775 164.577 243.885C160.641 246.554 154.697 249.774 148.657 249.857ZM143.814 218.072C139.012 218.072 134.155 219.022 130.123 220.756C126.284 222.407 123.477 224.608 122.225 226.961C121.207 228.874 121.276 230.745 122.459 232.506C126.862 239.055 138.723 248.618 148.657 248.756C158.605 248.618 170.466 239.055 174.855 232.506C176.038 230.745 176.121 228.874 175.089 226.961C173.837 224.608 171.03 222.407 167.191 220.756C163.159 219.022 158.302 218.072 153.5 218.072H143.814Z" fill="#2C2C2C"/>
<path d="M165.306 392.912H158.742C158.082 392.912 157.545 392.376 157.545 391.715L154.876 367.375C154.876 364.059 157.559 361.376 160.875 361.376H163.434C166.75 361.376 169.433 364.059 169.433 367.375L166.516 391.715C166.516 392.376 165.98 392.912 165.306 392.912Z" fill="white"/>
<path d="M165.306 393.463H158.742C157.793 393.463 157.009 392.692 156.995 391.743L154.326 367.403V367.375C154.326 363.756 157.27 360.826 160.875 360.826H163.434C167.053 360.826 169.984 363.77 169.984 367.375V367.444L167.067 391.757C167.039 392.692 166.269 393.463 165.306 393.463ZM155.413 367.348L158.082 391.688V391.715C158.082 392.073 158.371 392.362 158.729 392.362H165.306C165.663 392.362 165.952 392.073 165.952 391.715V391.647L168.869 367.334C168.856 364.334 166.406 361.913 163.421 361.913H160.861C157.876 361.913 155.426 364.348 155.413 367.348Z" fill="#2C2C2C"/>
<path d="M158.027 401.361C157.298 400.824 156.692 400.136 156.225 399.366C155.757 398.581 155.454 397.728 155.33 396.82C155.206 395.926 155.248 395.004 155.468 394.123C155.688 393.243 156.087 392.417 156.624 391.688L157.05 391.165C157.903 390.229 158.99 389.555 160.201 389.198C161.412 388.84 162.691 388.826 163.916 389.142C165.141 389.459 166.241 390.119 167.122 391.027C168.003 391.936 168.608 393.064 168.883 394.302C169.158 395.527 169.09 396.82 168.691 398.004C168.292 399.201 167.562 400.26 166.599 401.072C165.636 401.884 164.466 402.42 163.214 402.613C161.962 402.806 160.696 402.654 159.527 402.186C158.99 401.98 158.495 401.691 158.027 401.361Z" fill="white"/>
<path d="M162.141 403.26C161.178 403.26 160.215 403.067 159.321 402.709C158.743 402.475 158.206 402.173 157.697 401.801C156.913 401.209 156.252 400.48 155.743 399.641C155.234 398.801 154.918 397.866 154.766 396.903C154.629 395.926 154.67 394.949 154.918 393.999C155.165 393.05 155.578 392.156 156.17 391.371L156.183 391.358L156.637 390.807C157.559 389.803 158.729 389.074 160.036 388.688C161.343 388.303 162.733 388.289 164.054 388.633C165.375 388.977 166.572 389.679 167.507 390.67C168.457 391.647 169.117 392.871 169.406 394.206C169.709 395.54 169.64 396.916 169.2 398.21C168.759 399.503 167.989 400.645 166.943 401.526C165.898 402.406 164.645 402.984 163.297 403.191C162.925 403.232 162.54 403.26 162.141 403.26ZM158.344 400.92C158.77 401.237 159.238 401.498 159.733 401.691C160.807 402.131 161.99 402.269 163.132 402.09C164.274 401.911 165.361 401.416 166.241 400.673C167.122 399.93 167.796 398.953 168.168 397.852C168.539 396.751 168.594 395.568 168.347 394.44C168.085 393.311 167.535 392.266 166.723 391.426C165.911 390.587 164.893 389.995 163.779 389.693C162.65 389.39 161.467 389.418 160.352 389.734C159.238 390.064 158.247 390.683 157.463 391.537L157.05 392.032C156.555 392.706 156.197 393.449 155.991 394.261C155.784 395.073 155.743 395.912 155.867 396.738C155.991 397.563 156.266 398.347 156.692 399.077C157.119 399.792 157.683 400.411 158.344 400.92Z" fill="#2C2C2C"/>
<path d="M150.79 401.856C150.033 403.755 151.395 405.709 153.198 405.709H171.085C172.901 405.709 174.249 403.755 173.493 401.856C171.319 396.366 167.053 392.651 162.141 392.651C157.243 392.651 152.977 396.366 150.79 401.856Z" fill="#50BFD7"/>
<path d="M171.085 406.259H153.197C152.179 406.259 151.202 405.736 150.611 404.856C149.978 403.92 149.854 402.723 150.28 401.65C152.62 395.761 157.174 392.101 162.141 392.101C167.122 392.101 171.662 395.761 174.002 401.65C174.428 402.723 174.304 403.92 173.671 404.856C173.08 405.736 172.117 406.259 171.085 406.259ZM151.312 402.062C151.023 402.805 151.092 403.603 151.533 404.236C151.932 404.814 152.551 405.158 153.211 405.158H171.098C171.759 405.158 172.392 404.814 172.777 404.236C173.217 403.59 173.286 402.805 172.997 402.062C170.823 396.6 166.668 393.201 162.155 393.201C157.628 393.201 153.473 396.586 151.312 402.062Z" fill="#2C2C2C"/>
<path d="M139.645 392.912H133.068C132.407 392.912 131.871 392.376 131.871 391.715L129.201 367.375C129.201 364.059 131.885 361.376 135.201 361.376H137.76C141.076 361.376 143.759 364.059 143.759 367.375L140.842 391.715C140.842 392.376 140.305 392.912 139.645 392.912Z" fill="white"/>
<path d="M139.645 393.463H133.068C132.118 393.463 131.334 392.692 131.32 391.743L128.651 367.403V367.375C128.651 363.756 131.596 360.826 135.2 360.826H137.76C141.378 360.826 144.309 363.77 144.309 367.375V367.444L141.392 391.757C141.378 392.692 140.594 393.463 139.645 393.463ZM129.752 367.348L132.421 391.688V391.715C132.421 392.073 132.71 392.362 133.068 392.362H139.645C140.002 392.362 140.291 392.073 140.291 391.715V391.647L143.208 367.334C143.195 364.334 140.745 361.913 137.76 361.913H135.2C132.201 361.913 129.766 364.348 129.752 367.348Z" fill="#2C2C2C"/>
<path d="M132.352 401.361C131.623 400.824 131.018 400.136 130.55 399.366C130.082 398.581 129.779 397.728 129.655 396.82C129.532 395.926 129.573 395.004 129.793 394.123C130.013 393.243 130.412 392.417 130.949 391.688L131.375 391.165C132.228 390.229 133.315 389.555 134.526 389.198C135.737 388.84 137.017 388.826 138.241 389.142C139.466 389.459 140.567 390.119 141.447 391.027C142.328 391.936 142.933 393.064 143.208 394.302C143.484 395.527 143.415 396.82 143.016 398.004C142.617 399.201 141.888 400.26 140.924 401.072C139.961 401.884 138.792 402.42 137.54 402.613C136.287 402.806 135.022 402.654 133.852 402.186C133.329 401.98 132.82 401.691 132.352 401.361Z" fill="white"/>
<path d="M136.48 403.26C135.517 403.26 134.554 403.067 133.66 402.709C133.082 402.475 132.545 402.173 132.036 401.801C131.252 401.209 130.591 400.48 130.082 399.641C129.573 398.801 129.257 397.866 129.105 396.903C128.968 395.926 129.009 394.949 129.257 393.999C129.504 393.05 129.917 392.156 130.509 391.371L130.522 391.358L130.977 390.807C131.898 389.803 133.068 389.074 134.375 388.688C135.682 388.303 137.072 388.289 138.393 388.633C139.714 388.977 140.911 389.679 141.846 390.67C142.796 391.647 143.456 392.871 143.745 394.206C144.048 395.54 143.979 396.916 143.539 398.21C143.099 399.503 142.328 400.645 141.282 401.526C140.237 402.406 138.984 402.984 137.636 403.191C137.251 403.232 136.866 403.26 136.48 403.26ZM132.683 400.92C133.109 401.237 133.577 401.498 134.072 401.691C135.146 402.131 136.329 402.269 137.471 402.09C138.613 401.911 139.7 401.416 140.581 400.673C141.461 399.93 142.135 398.953 142.507 397.852C142.878 396.751 142.933 395.568 142.686 394.44C142.424 393.311 141.874 392.266 141.062 391.426C140.25 390.587 139.232 389.995 138.118 389.693C136.989 389.39 135.806 389.418 134.692 389.734C133.577 390.064 132.586 390.683 131.802 391.537L131.389 392.032C130.894 392.706 130.536 393.449 130.33 394.261C130.123 395.073 130.082 395.912 130.206 396.738C130.33 397.563 130.605 398.347 131.032 399.077C131.458 399.792 132.008 400.411 132.683 400.92Z" fill="#2C2C2C"/>
<path d="M125.129 401.856C124.372 403.755 125.734 405.709 127.537 405.709H145.424C147.24 405.709 148.588 403.755 147.832 401.856C145.658 396.366 141.392 392.651 136.48 392.651C131.568 392.651 127.303 396.366 125.129 401.856Z" fill="#50BFD7"/>
<path d="M145.424 406.259H127.536C126.518 406.259 125.541 405.736 124.95 404.856C124.317 403.92 124.193 402.723 124.619 401.65C126.959 395.761 131.513 392.101 136.48 392.101C141.461 392.101 146.002 395.761 148.341 401.65C148.767 402.723 148.643 403.92 148.01 404.856C147.419 405.736 146.442 406.259 145.424 406.259ZM125.638 402.062C125.349 402.805 125.418 403.603 125.858 404.236C126.257 404.814 126.876 405.158 127.536 405.158H145.424C146.084 405.158 146.717 404.814 147.102 404.236C147.543 403.59 147.611 402.805 147.322 402.062C145.148 396.6 140.993 393.201 136.48 393.201C131.967 393.201 127.812 396.586 125.638 402.062Z" fill="#2C2C2C"/>
<path fill-rule="evenodd" clip-rule="evenodd" d="M154.536 92.3995C149.078 89.1182 144.665 91.0667 143.224 92.3178C142.89 92.6077 142.384 92.5721 142.095 92.2382C141.805 91.9044 141.84 91.3987 142.174 91.1088C144.074 89.4591 149.238 87.3465 155.361 91.0272C155.74 91.255 155.863 91.7468 155.635 92.1258C155.407 92.5047 154.915 92.6273 154.536 92.3995Z" fill="#2C2C2C"/>
</svg>
