<svg width="224" height="163" viewBox="0 0 224 163" fill="none" xmlns="http://www.w3.org/2000/svg">
<path d="M171.713 47.1887C171.713 47.1887 165.296 22.3379 126.451 6.66568C87.605 -9.00655 52.8521 5.50872 44.9293 23.8732C37.0065 42.2377 45.3097 52.1545 40.0227 67.8377C34.7358 83.521 7.57471 103.384 18.5365 127.471C29.4983 151.558 80.7929 158.437 122.301 153.468C163.809 148.498 196.238 93.4451 171.713 47.1887Z" fill="#50BFD7"/>
<path opacity="0.7" d="M171.713 47.1887C171.713 47.1887 165.296 22.3379 126.451 6.66568C87.605 -9.00655 52.8521 5.50872 44.9293 23.8732C37.0065 42.2377 45.3097 52.1545 40.0227 67.8377C34.7358 83.521 7.57471 103.384 18.5365 127.471C29.4983 151.558 80.7929 158.437 122.301 153.468C163.809 148.498 196.238 93.4451 171.713 47.1887Z" fill="white"/>
<path d="M223.824 112.01C223.824 111.303 223.79 72.4017 223.739 12.3804L223.824 12.4538H105.319L105.42 12.3534C105.42 48.4581 105.42 82.5115 105.42 111.983L105.327 111.894L223.844 111.983L105.327 112.072H105.227V111.983C105.227 82.5115 105.227 48.4581 105.227 12.3534V12.2529H105.339H223.844H223.929V12.3379C223.875 72.4017 223.824 111.303 223.824 112.01Z" fill="#FAFAFA"/>
<path d="M223.839 12.3809H105.322V112.011H223.839V12.3809Z" fill="#FAFAFA"/>
<path d="M148.112 19.2598H105.556V29.0141H148.112V19.2598Z" fill="#EBEBEB"/>
<path d="M116.287 27.1339C116.287 27.1339 116.287 27.0065 116.287 26.7747C116.287 26.5429 116.287 26.1991 116.287 25.7934C116.287 24.9281 116.264 23.7305 116.244 22.2857L116.325 22.3669H109.267L109.368 22.2664V24.7813C109.368 25.5926 109.368 26.369 109.368 27.0992L109.275 27.0065L114.34 27.0528L115.8 27.0799H116.186H116.329C116.164 27.0982 115.997 27.106 115.831 27.103L114.39 27.1262L109.267 27.1726H109.179V27.1339C109.179 26.3961 109.179 25.6196 109.179 24.8161V23.5721C109.179 23.3635 109.179 23.1511 109.179 22.9386V22.278C109.09 22.3669 109.302 22.1544 109.283 22.1776H116.341H116.422V22.2587C116.422 23.7267 116.391 24.9397 116.379 25.8166C116.379 26.2029 116.379 26.5352 116.379 26.7824C116.36 26.9023 116.329 27.02 116.287 27.1339V27.1339Z" fill="#263238"/>
<path d="M116.287 22.2705C116.287 22.2705 116.206 22.3825 116.036 22.5563C115.866 22.7302 115.615 22.9736 115.302 23.2749C114.676 23.8775 113.799 24.7004 112.826 25.5927C112.551 25.5927 112.748 25.5927 112.686 25.5927H112.663L112.617 25.5503L112.528 25.4653L112.346 25.2991L111.999 24.9746L111.338 24.3604L110.214 23.271C109.901 22.9697 109.65 22.7263 109.476 22.5525C109.38 22.4688 109.296 22.3727 109.225 22.2666C109.225 22.2666 109.345 22.3361 109.53 22.4945C109.716 22.6529 109.982 22.8808 110.303 23.1667L111.439 24.1866L112.103 24.7931L112.455 25.1137L112.636 25.2798L112.725 25.3648L112.771 25.4035L112.795 25.4266H112.671C113.645 24.5304 114.533 23.723 115.186 23.1474C115.51 22.8615 115.777 22.6297 115.959 22.4752C116.058 22.3915 116.168 22.3226 116.287 22.2705V22.2705Z" fill="#263238"/>
<path d="M111.577 24.4297C111.263 24.9421 110.892 25.4176 110.472 25.8475C110.104 26.3223 109.683 26.7539 109.217 27.1339C109.532 26.6232 109.902 26.149 110.322 25.72C110.691 25.2445 111.112 24.8117 111.577 24.4297V24.4297Z" fill="#263238"/>
<path d="M116.333 27.1763C115.877 26.7706 115.468 26.3158 115.112 25.8203C114.704 25.3648 114.346 24.8661 114.046 24.333C114.502 24.7395 114.912 25.1956 115.267 25.6928C115.675 26.1466 116.033 26.6441 116.333 27.1763V27.1763Z" fill="#263238"/>
<path d="M143.224 23.9667C143.224 24.0246 138.24 24.0671 132.098 24.0671C125.956 24.0671 120.976 24.0246 120.976 23.9667C120.976 23.9087 125.956 23.8662 132.098 23.8662C138.24 23.8662 143.224 23.9126 143.224 23.9667Z" fill="#263238"/>
<path d="M223.84 62.5898H147.571V79.3017H223.84V62.5898Z" fill="#50BFD7"/>
<g opacity="0.8">
<path opacity="0.8" d="M223.839 62.5889H147.57V79.3007H223.839V62.5889Z" fill="white"/>
</g>
<path d="M157.87 67.8125H153.346C152.866 67.8125 152.477 68.2017 152.477 68.6817V73.2054C152.477 73.6855 152.866 74.0746 153.346 74.0746H157.87C158.35 74.0746 158.739 73.6855 158.739 73.2054V68.6817C158.739 68.2017 158.35 67.8125 157.87 67.8125Z" fill="#50BFD7"/>
<path d="M155.134 72.3313C155.05 72.3313 154.969 72.3042 154.902 72.254L153.639 71.3037C153.593 71.2753 153.554 71.2378 153.524 71.1935C153.494 71.1492 153.473 71.099 153.463 71.0463C153.453 70.9936 153.455 70.9394 153.467 70.8872C153.479 70.8349 153.502 70.7859 153.535 70.7431C153.567 70.7002 153.608 70.6646 153.655 70.6385C153.701 70.6123 153.753 70.5962 153.807 70.5912C153.86 70.5861 153.914 70.5923 153.965 70.6092C154.016 70.6261 154.062 70.6534 154.102 70.6894L155.087 71.4273L157.065 69.2794C157.135 69.2041 157.232 69.1596 157.334 69.1556C157.437 69.1516 157.537 69.1885 157.612 69.2582C157.687 69.3278 157.732 69.4246 157.736 69.5271C157.74 69.6296 157.703 69.7295 157.633 69.8048L155.42 72.2076C155.383 72.247 155.339 72.2783 155.29 72.2995C155.24 72.3208 155.187 72.3316 155.134 72.3313Z" fill="white"/>
<path d="M223.84 45.792H147.571V62.5038H223.84V45.792Z" fill="#50BFD7"/>
<path d="M223.38 62.5663C223.38 62.6242 206.529 62.6667 185.745 62.6667C164.962 62.6667 148.111 62.6242 148.111 62.5663C148.111 62.5083 164.958 62.4658 185.745 62.4658C206.533 62.4658 223.38 62.5122 223.38 62.5663Z" fill="#263238"/>
<path d="M223.882 95.998H147.613V112.011H223.882V95.998Z" fill="#50BFD7"/>
<g opacity="0.8">
<path opacity="0.8" d="M223.882 95.999H147.613V112.012H223.882V95.999Z" fill="white"/>
</g>
<path d="M157.908 101.225H153.384C152.904 101.225 152.515 101.614 152.515 102.094V106.618C152.515 107.098 152.904 107.487 153.384 107.487H157.908C158.388 107.487 158.777 107.098 158.777 106.618V102.094C158.777 101.614 158.388 101.225 157.908 101.225Z" fill="#50BFD7"/>
<path d="M155.172 105.748C155.088 105.748 155.007 105.721 154.94 105.671L153.677 104.721C153.595 104.659 153.541 104.568 153.526 104.466C153.512 104.365 153.538 104.262 153.6 104.18C153.661 104.098 153.753 104.044 153.854 104.029C153.956 104.015 154.059 104.041 154.141 104.103L155.126 104.845L157.104 102.697C157.137 102.655 157.178 102.622 157.225 102.597C157.272 102.572 157.323 102.558 157.375 102.554C157.428 102.55 157.481 102.557 157.531 102.574C157.581 102.591 157.627 102.619 157.666 102.655C157.705 102.69 157.736 102.734 157.757 102.782C157.779 102.83 157.79 102.882 157.791 102.935C157.791 102.988 157.781 103.04 157.76 103.089C157.74 103.138 157.71 103.182 157.671 103.218L155.446 105.625C155.411 105.663 155.369 105.693 155.322 105.714C155.275 105.736 155.224 105.747 155.172 105.748V105.748Z" fill="white"/>
<g opacity="0.8">
<path opacity="0.8" d="M223.839 45.793H147.57V62.5048H223.839V45.793Z" fill="white"/>
</g>
<path d="M157.87 51.0166H153.346C152.866 51.0166 152.477 51.4058 152.477 51.8858V56.4095C152.477 56.8896 152.866 57.2787 153.346 57.2787H157.87C158.35 57.2787 158.739 56.8896 158.739 56.4095V51.8858C158.739 51.4058 158.35 51.0166 157.87 51.0166Z" fill="#50BFD7"/>
<path d="M155.134 55.5396C155.05 55.5396 154.969 55.5125 154.902 55.4623L153.639 54.512C153.593 54.4836 153.554 54.4461 153.524 54.4018C153.494 54.3575 153.473 54.3073 153.463 54.2546C153.453 54.2019 153.455 54.1477 153.467 54.0955C153.479 54.0432 153.502 53.9942 153.535 53.9514C153.567 53.9085 153.608 53.8729 153.655 53.8468C153.701 53.8206 153.753 53.8045 153.807 53.7995C153.86 53.7944 153.914 53.8006 153.965 53.8175C154.016 53.8344 154.062 53.8617 154.102 53.8977L155.087 54.6356L157.065 52.4877C157.134 52.4126 157.231 52.368 157.333 52.3636C157.435 52.3593 157.534 52.3956 157.61 52.4645C157.648 52.4989 157.678 52.5404 157.7 52.5866C157.721 52.6329 157.734 52.683 157.736 52.734C157.738 52.785 157.73 52.8359 157.712 52.8838C157.695 52.9317 157.668 52.9757 157.633 53.0131L155.42 55.4159C155.383 55.4553 155.339 55.4866 155.29 55.5078C155.24 55.5291 155.187 55.5399 155.134 55.5396V55.5396Z" fill="white"/>
<path d="M223.824 112.01C223.824 111.303 223.79 72.4017 223.739 12.3804L223.824 12.4538H105.319L105.42 12.3534C105.42 48.4581 105.42 82.5115 105.42 111.983L105.327 111.894L223.844 111.983L105.327 112.072H105.227V111.983C105.227 82.5115 105.227 48.4581 105.227 12.3534V12.2529H105.339H223.844H223.929V12.3379C223.875 72.4017 223.824 111.303 223.824 112.01Z" fill="#50BFD7"/>
<path d="M105.556 19.2606C105.556 19.2027 131.983 19.1602 164.58 19.1602C197.177 19.1602 223.613 19.2027 223.613 19.2606C223.613 19.3185 197.189 19.361 164.58 19.361C131.972 19.361 105.556 19.3147 105.556 19.2606Z" fill="#50BFD7"/>
<path d="M109.163 16.959C109.863 16.959 110.43 16.3917 110.43 15.6919C110.43 14.9921 109.863 14.4248 109.163 14.4248C108.463 14.4248 107.896 14.9921 107.896 15.6919C107.896 16.3917 108.463 16.959 109.163 16.959Z" fill="#50BFD7"/>
<path d="M112.686 16.959C113.386 16.959 113.953 16.3917 113.953 15.6919C113.953 14.9921 113.386 14.4248 112.686 14.4248C111.986 14.4248 111.419 14.9921 111.419 15.6919C111.419 16.3917 111.986 16.959 112.686 16.959Z" fill="#50BFD7"/>
<path d="M117.492 14.7952C117.67 14.9725 117.79 15.1982 117.839 15.444C117.888 15.6898 117.863 15.9445 117.767 16.176C117.671 16.4075 117.508 16.6053 117.3 16.7445C117.092 16.8837 116.847 16.958 116.596 16.958C116.346 16.958 116.101 16.8837 115.892 16.7445C115.684 16.6053 115.522 16.4075 115.426 16.176C115.33 15.9445 115.305 15.6898 115.353 15.444C115.402 15.1982 115.523 14.9725 115.7 14.7952C115.818 14.6775 115.957 14.5841 116.111 14.5204C116.265 14.4566 116.43 14.4238 116.596 14.4238C116.763 14.4238 116.927 14.4566 117.081 14.5204C117.235 14.5841 117.375 14.6775 117.492 14.7952V14.7952Z" fill="#50BFD7"/>
<path d="M121.065 32.928C121.157 32.9168 121.249 32.9168 121.34 32.928L122.143 32.9048L125.087 32.8662H125.126L125.149 32.8971L126.447 34.6046L126.466 34.6317V34.6626C126.466 35.4352 126.466 36.2928 126.466 37.1813V37.2818H125.184H119.883H119.798V37.1775C119.798 36.3044 119.798 35.5279 119.822 34.8596L120.725 33.4418C120.827 33.2629 120.94 33.0912 121.065 32.928C121.049 32.9798 121.025 33.0291 120.996 33.0748L120.776 33.4611L119.941 34.8866V34.8519C119.941 35.5086 119.941 36.2851 119.961 37.1697L119.876 37.0847H125.176H126.362L126.261 37.1852C126.261 36.2967 126.261 35.4468 126.261 34.6664L126.281 34.7205L125.006 33.0014L125.071 33.0323L122.159 32.9937H121.347C121.252 32.9803 121.157 32.9583 121.065 32.928V32.928Z" fill="#263238"/>
<path d="M126.376 34.7752C126.194 34.8244 126.006 34.8504 125.816 34.8525C125.461 34.8834 124.951 34.9182 124.344 34.9568L124.426 34.8718C124.411 35.1947 124.305 35.5067 124.12 35.7719C124.02 35.9176 123.888 36.039 123.734 36.1273C123.564 36.2059 123.38 36.2492 123.193 36.2548C122.994 36.263 122.796 36.2271 122.612 36.1497C122.428 36.0722 122.264 35.9551 122.131 35.8067C121.909 35.5415 121.76 35.2234 121.698 34.8834L121.783 34.9529C121.219 34.9529 120.748 34.9336 120.42 34.9182C120.246 34.9216 120.074 34.9021 119.906 34.8602C120.074 34.8238 120.247 34.8082 120.42 34.8139C120.748 34.8139 121.219 34.7868 121.783 34.7752H121.837V34.8486C121.903 35.1509 122.042 35.4322 122.243 35.6676C122.357 35.7954 122.498 35.8962 122.655 35.963C122.813 36.0298 122.984 36.0609 123.155 36.0539C123.312 36.0533 123.468 36.0177 123.61 35.9496C123.744 35.8804 123.861 35.7812 123.95 35.6599C124.114 35.426 124.213 35.1527 124.236 34.868V34.7868H124.31C124.92 34.7675 125.43 34.7559 125.789 34.7521C125.985 34.7348 126.183 34.7426 126.376 34.7752V34.7752Z" fill="#263238"/>
<path d="M140.899 33.1405C141.007 33.1162 141.117 33.1058 141.227 33.1096V33.1714C140.455 33.21 138.063 33.2409 135.259 33.2409C133.52 33.2409 131.944 33.2409 130.805 33.21L129.456 33.1791C129.291 33.1847 129.125 33.1717 128.962 33.1405C129.125 33.1092 129.291 33.0963 129.456 33.1018L130.805 33.0709C131.944 33.0516 133.509 33.04 135.259 33.04C138.063 33.04 140.439 33.0709 141.227 33.1096V33.1714C141.117 33.1777 141.006 33.1673 140.899 33.1405V33.1405Z" fill="#263238"/>
<path d="M140.899 35.6727C141.006 35.6459 141.117 35.6354 141.227 35.6418V35.7036C140.455 35.7422 138.063 35.7731 135.259 35.7731C133.52 35.7731 131.944 35.7731 130.805 35.7422L129.456 35.7113C129.291 35.7144 129.125 35.7015 128.962 35.6727C129.125 35.6411 129.291 35.6268 129.456 35.6302L130.805 35.5993C131.944 35.5993 133.509 35.5723 135.259 35.5723C138.063 35.5723 140.439 35.5993 141.227 35.6418V35.7036C141.117 35.7048 141.007 35.6945 140.899 35.6727V35.6727Z" fill="#263238"/>
<path d="M140.899 38.1971C141.007 38.1728 141.117 38.1624 141.227 38.1662V38.228C140.455 38.2705 138.063 38.2976 135.259 38.2976C133.52 38.2976 131.944 38.2976 130.805 38.2705L129.456 38.2358C129.291 38.2413 129.125 38.2284 128.962 38.1971C129.125 38.1683 129.291 38.1554 129.456 38.1585L130.805 38.1276C131.944 38.1083 133.509 38.0967 135.259 38.0967C138.063 38.0967 140.439 38.1276 141.227 38.1662V38.228C141.117 38.2344 141.006 38.224 140.899 38.1971V38.1971Z" fill="#263238"/>
<path d="M121.065 51.0352C121.156 51.0171 121.248 51.0093 121.34 51.012L122.143 50.9927L125.087 50.9541H125.126L125.149 50.985L126.447 52.6925L126.466 52.7195V52.7504C126.466 53.5231 126.466 54.3807 126.466 55.2692V55.3696H125.184H119.883H119.798V55.2847C119.798 54.4116 119.798 53.6351 119.822 52.9668V52.9475L120.725 51.5297C120.824 51.363 120.934 51.203 121.054 51.0507C121.037 51.1024 121.014 51.1517 120.984 51.1975L120.764 51.5838L119.945 53.017V52.9822C119.945 53.639 119.945 54.4155 119.964 55.3001L119.879 55.2151H125.18H126.366L126.265 55.3156C126.265 54.427 126.265 53.5772 126.265 52.7968L126.285 52.8509L125.01 51.1318L125.075 51.1627L122.163 51.1241H121.351C121.253 51.1034 121.158 51.0736 121.065 51.0352V51.0352Z" fill="#263238"/>
<path d="M126.376 52.87C126.194 52.9192 126.006 52.9451 125.816 52.9472C125.461 52.9781 124.951 53.0129 124.344 53.0515L124.426 52.9666C124.411 53.2894 124.305 53.6015 124.12 53.8667C124.02 54.0123 123.888 54.1337 123.734 54.2221C123.564 54.3006 123.38 54.344 123.193 54.3496C122.994 54.3578 122.796 54.3219 122.612 54.2444C122.428 54.1669 122.264 54.0498 122.131 53.9014C121.909 53.6362 121.76 53.3181 121.698 52.9781L121.783 53.0477C121.219 53.0477 120.748 53.0284 120.42 53.0129C120.247 53.0188 120.074 53.0019 119.906 52.9627C120.074 52.9259 120.247 52.909 120.42 52.9125L121.783 52.8777H121.837V52.9511C121.903 53.2533 122.042 53.5347 122.243 53.7701C122.357 53.8978 122.498 53.9987 122.655 54.0655C122.813 54.1323 122.984 54.1633 123.155 54.1564C123.312 54.1558 123.468 54.1202 123.61 54.0521C123.744 53.9828 123.861 53.8837 123.95 53.7624C124.114 53.5285 124.213 53.2551 124.236 52.9704V52.8893H124.31C124.92 52.8893 125.43 52.8584 125.789 52.8545C125.985 52.8348 126.182 52.8399 126.376 52.87V52.87Z" fill="#263238"/>
<path d="M140.899 51.2352C141.007 51.2109 141.117 51.2005 141.227 51.2043V51.2661C140.455 51.3047 138.063 51.3356 135.259 51.3356C133.52 51.3356 131.944 51.3356 130.805 51.3047L129.456 51.2738C129.291 51.2794 129.125 51.2664 128.962 51.2352C129.125 51.204 129.291 51.191 129.456 51.1966L130.805 51.1657C131.944 51.1464 133.509 51.1348 135.259 51.1348C138.063 51.1348 140.439 51.1657 141.227 51.2043V51.2661C141.117 51.2699 141.007 51.2595 140.899 51.2352V51.2352Z" fill="#263238"/>
<path d="M140.899 53.7654C141.006 53.7385 141.117 53.7281 141.227 53.7345V53.7886C140.455 53.8272 138.063 53.8581 135.259 53.8581C133.52 53.8581 131.944 53.8581 130.805 53.8272L129.456 53.7963C129.291 53.7994 129.125 53.7864 128.962 53.7577C129.125 53.726 129.291 53.7118 129.456 53.7152L130.805 53.6843C131.944 53.6649 133.509 53.6572 135.259 53.6572C138.063 53.6572 140.439 53.6843 141.227 53.7268V53.7886C141.117 53.7924 141.007 53.7846 140.899 53.7654V53.7654Z" fill="#263238"/>
<path d="M140.899 56.2928C141.007 56.2685 141.117 56.2581 141.227 56.2619V56.3237C140.455 56.3662 138.063 56.3933 135.259 56.3933C133.52 56.3933 131.944 56.3933 130.805 56.3662L129.456 56.3315C129.291 56.337 129.125 56.3241 128.962 56.2928C129.125 56.2641 129.291 56.2511 129.456 56.2542L130.805 56.2233C131.944 56.204 133.509 56.1924 135.259 56.1924C138.063 56.1924 140.439 56.2233 141.227 56.2619V56.3237C141.117 56.3301 141.006 56.3197 140.899 56.2928V56.2928Z" fill="#263238"/>
<path d="M121.065 69.13C121.156 69.1118 121.248 69.1041 121.34 69.1068L122.143 69.0875L125.087 69.0488H125.126L125.149 69.0797L126.447 70.7872L126.466 70.8143V70.8452C126.466 71.6178 126.466 72.4754 126.466 73.3639V73.4644H125.184H119.883H119.798V73.3794C119.798 72.5063 119.798 71.7298 119.822 71.0615L120.725 69.6437C120.824 69.4771 120.934 69.317 121.054 69.1647C121.037 69.2165 121.014 69.2658 120.984 69.3115L120.764 69.6978L119.93 71.1233V71.0886C119.93 71.7453 119.93 72.5218 119.949 73.4064L119.864 73.3214H125.164H126.35L126.25 73.4219C126.25 72.5334 126.25 71.6835 126.25 70.9031L126.269 70.9572L124.994 69.2381L125.06 69.269L122.147 69.2304H121.336C121.243 69.205 121.152 69.1714 121.065 69.13V69.13Z" fill="#263238"/>
<path d="M126.376 70.9647C126.194 71.0139 126.006 71.0398 125.816 71.042C125.461 71.0729 124.951 71.1076 124.344 71.1463L124.426 71.0613C124.411 71.3841 124.305 71.6962 124.12 71.9614C124.02 72.1071 123.888 72.2285 123.734 72.3168C123.565 72.3959 123.38 72.4381 123.193 72.4404C122.994 72.4502 122.796 72.4154 122.612 72.3386C122.428 72.2617 122.264 72.1447 122.131 71.9962C121.909 71.7309 121.76 71.4128 121.698 71.0729L121.783 71.1424C121.219 71.1424 120.748 71.1424 120.42 71.1076C120.247 71.1136 120.074 71.0967 119.906 71.0574C120.074 71.0206 120.247 71.0037 120.42 71.0072L121.783 70.9724H121.837V71.0458C121.903 71.3481 122.042 71.6294 122.243 71.8648C122.357 71.9925 122.498 72.0934 122.655 72.1602C122.813 72.227 122.984 72.2581 123.155 72.2511C123.312 72.2505 123.468 72.2149 123.61 72.1468C123.744 72.0775 123.861 71.9784 123.95 71.8571C124.114 71.6232 124.213 71.3498 124.236 71.0651V70.984H124.31C124.92 70.9608 125.43 70.9531 125.789 70.9493C125.985 70.9295 126.182 70.9347 126.376 70.9647V70.9647Z" fill="#263238"/>
<path d="M140.899 69.3309C141.007 69.3066 141.117 69.2962 141.227 69.3V69.3618C140.455 69.4004 138.063 69.4314 135.259 69.4314C133.52 69.4314 131.944 69.4314 130.805 69.4004L129.456 69.3695C129.291 69.3751 129.125 69.3621 128.962 69.3309C129.125 69.2997 129.291 69.2867 129.456 69.2923L130.805 69.2614C131.944 69.2421 133.509 69.2305 135.259 69.2305C138.063 69.2305 140.439 69.2614 141.227 69.3V69.3618C141.117 69.3656 141.007 69.3552 140.899 69.3309Z" fill="#263238"/>
<path d="M140.899 71.8612C141.006 71.8343 141.117 71.8239 141.227 71.8303V71.8921C140.455 71.9307 138.063 71.9616 135.259 71.9616C133.52 71.9616 131.944 71.9616 130.805 71.9307L129.456 71.8998C129.291 71.9029 129.125 71.89 128.962 71.8612C129.125 71.8296 129.291 71.8153 129.456 71.8187L130.805 71.7878C131.944 71.7685 133.509 71.7607 135.259 71.7607C138.063 71.7607 140.439 71.7878 141.227 71.8303V71.8921C141.117 71.8933 141.007 71.883 140.899 71.8612V71.8612Z" fill="#263238"/>
<path d="M140.899 74.3876C141.007 74.3632 141.117 74.3529 141.227 74.3566V74.4185C140.455 74.4609 138.063 74.488 135.259 74.488C133.52 74.488 131.944 74.488 130.805 74.4609L129.456 74.4262C129.291 74.4317 129.125 74.4188 128.962 74.3876C129.125 74.3588 129.291 74.3458 129.456 74.3489L130.805 74.318C131.944 74.318 133.509 74.2871 135.259 74.2871C138.063 74.2871 140.439 74.318 141.227 74.3566V74.4185C141.117 74.4248 141.006 74.4144 140.899 74.3876V74.3876Z" fill="#263238"/>
<path d="M217.689 57.4782H214.746C214.592 57.4807 214.439 57.4527 214.296 57.3956C214.153 57.3385 214.023 57.2535 213.914 57.1456C213.804 57.0378 213.717 56.9091 213.657 56.7673C213.598 56.6254 213.567 56.4731 213.567 56.3192V51.4131H213.954V56.3038C213.954 56.4069 213.974 56.509 214.014 56.604C214.054 56.699 214.113 56.7851 214.187 56.8571C214.261 56.9291 214.348 56.9856 214.444 57.0232C214.54 57.0609 214.643 57.079 214.746 57.0764H217.689C217.894 57.0764 218.091 56.995 218.236 56.8501C218.381 56.7052 218.462 56.5087 218.462 56.3038V51.5831H218.848V56.3038C218.85 56.4573 218.822 56.6096 218.765 56.752C218.707 56.8944 218.622 57.024 218.514 57.1333C218.407 57.2426 218.278 57.3293 218.136 57.3885C217.995 57.4477 217.843 57.4782 217.689 57.4782V57.4782Z" fill="#50BFD7"/>
<path d="M219.351 51.4414H213.085V51.8277H219.351V51.4414Z" fill="#50BFD7"/>
<path d="M215.078 51.634H214.692V51.2052C214.692 51.0003 214.773 50.8038 214.918 50.6589C215.063 50.514 215.26 50.4326 215.465 50.4326H217.01C217.215 50.4326 217.411 50.514 217.556 50.6589C217.701 50.8038 217.782 51.0003 217.782 51.2052V51.5491H217.396V51.2052C217.396 51.1028 217.355 51.0045 217.283 50.9321C217.21 50.8596 217.112 50.8189 217.01 50.8189H215.465C215.362 50.8189 215.264 50.8596 215.191 50.9321C215.119 51.0045 215.078 51.1028 215.078 51.2052V51.634Z" fill="#50BFD7"/>
<path d="M215.325 56.0342C215.226 55.4865 215.192 54.9288 215.224 54.3731C215.192 53.8186 215.226 53.2623 215.325 52.7158C215.426 53.262 215.46 53.8186 215.425 54.3731C215.46 54.9288 215.426 55.4867 215.325 56.0342V56.0342Z" fill="#50BFD7"/>
<path d="M216.233 56.0342C216.134 55.4865 216.101 54.9288 216.133 54.3731C216.101 53.8186 216.134 53.2623 216.233 52.7158C216.335 53.262 216.369 53.8186 216.334 54.3731C216.369 54.9288 216.335 55.4867 216.233 56.0342V56.0342Z" fill="#50BFD7"/>
<path d="M217.148 56.0342C217.049 55.4865 217.016 54.9288 217.048 54.3731C217.016 53.8186 217.049 53.2623 217.148 52.7158C217.25 53.262 217.284 53.8186 217.249 54.3731C217.284 54.9288 217.25 55.4867 217.148 56.0342V56.0342Z" fill="#50BFD7"/>
<path d="M217.689 73.317H214.746C214.433 73.316 214.134 73.1915 213.914 72.9708C213.693 72.75 213.568 72.4509 213.567 72.1388V67.248H213.954V72.1388C213.954 72.3488 214.037 72.5502 214.186 72.6987C214.334 72.8473 214.536 72.9307 214.746 72.9307H217.689C217.896 72.9257 218.093 72.84 218.237 72.692C218.381 72.544 218.462 72.3455 218.462 72.1388V67.418H218.848V72.1388C218.851 72.2926 218.823 72.4453 218.766 72.5882C218.709 72.731 218.624 72.8611 218.516 72.9708C218.408 73.0804 218.279 73.1675 218.137 73.227C217.995 73.2864 217.843 73.317 217.689 73.317Z" fill="#50BFD7"/>
<path d="M219.351 67.2754H213.085V67.6617H219.351V67.2754Z" fill="#50BFD7"/>
<path d="M215.078 67.469H214.692V67.0402C214.692 66.8353 214.773 66.6388 214.918 66.4939C215.063 66.349 215.26 66.2676 215.465 66.2676H217.01C217.215 66.2676 217.411 66.349 217.556 66.4939C217.701 66.6388 217.782 66.8353 217.782 67.0402V67.384H217.396V67.0402C217.396 66.9377 217.355 66.8395 217.283 66.767C217.21 66.6946 217.112 66.6539 217.01 66.6539H215.465C215.362 66.6539 215.264 66.6946 215.191 66.767C215.119 66.8395 215.078 66.9377 215.078 67.0402V67.469Z" fill="#50BFD7"/>
<path d="M215.326 71.8692C215.192 70.7671 215.192 69.6529 215.326 68.5508C215.46 69.6529 215.46 70.7671 215.326 71.8692Z" fill="#50BFD7"/>
<path d="M216.233 71.8692C216.099 70.7671 216.099 69.6529 216.233 68.5508C216.367 69.6529 216.367 70.7671 216.233 71.8692V71.8692Z" fill="#50BFD7"/>
<path d="M217.15 71.8692C217.016 70.7671 217.016 69.6529 217.15 68.5508C217.284 69.6529 217.284 70.7671 217.15 71.8692V71.8692Z" fill="#50BFD7"/>
<path d="M217.689 108.129H214.746C214.592 108.131 214.439 108.103 214.296 108.046C214.153 107.989 214.023 107.904 213.914 107.796C213.804 107.688 213.717 107.56 213.657 107.418C213.598 107.276 213.567 107.124 213.567 106.97V102.079H213.954V106.97C213.954 107.073 213.974 107.175 214.014 107.27C214.054 107.365 214.113 107.451 214.187 107.523C214.261 107.595 214.348 107.652 214.444 107.689C214.54 107.727 214.643 107.745 214.746 107.742H217.689C217.894 107.742 218.091 107.661 218.236 107.516C218.381 107.371 218.462 107.175 218.462 106.97V102.234H218.848V106.954C218.85 107.108 218.822 107.26 218.765 107.403C218.707 107.545 218.622 107.675 218.514 107.784C218.407 107.893 218.278 107.98 218.136 108.039C217.995 108.098 217.843 108.129 217.689 108.129Z" fill="#50BFD7"/>
<path d="M219.351 102.091H213.085V102.477H219.351V102.091Z" fill="#50BFD7"/>
<path d="M215.078 102.283H214.692V101.851C214.692 101.646 214.773 101.449 214.918 101.304C215.063 101.16 215.26 101.078 215.465 101.078H217.01C217.215 101.078 217.411 101.16 217.556 101.304C217.701 101.449 217.782 101.646 217.782 101.851V102.198H217.396V101.851C217.396 101.748 217.355 101.65 217.283 101.578C217.21 101.505 217.112 101.464 217.01 101.464H215.465C215.362 101.464 215.264 101.505 215.191 101.578C215.119 101.65 215.078 101.748 215.078 101.851V102.283Z" fill="#50BFD7"/>
<path d="M215.326 106.684C215.192 105.582 215.192 104.467 215.326 103.365C215.46 104.467 215.46 105.582 215.326 106.684Z" fill="#50BFD7"/>
<path d="M216.233 106.684C216.099 105.582 216.099 104.467 216.233 103.365C216.367 104.467 216.367 105.582 216.233 106.684V106.684Z" fill="#50BFD7"/>
<path d="M217.15 106.684C217.016 105.582 217.016 104.467 217.15 103.365C217.284 104.467 217.284 105.582 217.15 106.684V106.684Z" fill="#50BFD7"/>
<path d="M223.38 29.0155C223.38 29.0696 206.529 29.1159 185.746 29.1159C164.962 29.1159 148.107 29.0657 148.107 29.0155C148.107 28.9653 164.954 28.915 185.742 28.915C206.529 28.915 223.38 28.9614 223.38 29.0155Z" fill="#263238"/>
<path d="M223.38 45.7919C223.38 45.8459 206.529 45.8923 185.746 45.8923C164.962 45.8923 148.107 45.8459 148.107 45.7919C148.107 45.7378 164.954 45.6914 185.742 45.6914C206.529 45.6914 223.38 45.7339 223.38 45.7919Z" fill="#263238"/>
<path d="M223.38 79.0008C223.38 79.0549 206.529 79.1013 185.746 79.1013C164.962 79.1013 148.107 79.0549 148.107 79.0008C148.107 78.9467 164.954 78.9004 185.742 78.9004C206.529 78.9004 223.38 78.9429 223.38 79.0008Z" fill="#263238"/>
<path d="M223.38 95.9989C223.38 96.0568 206.529 96.0993 185.745 96.0993C164.962 96.0993 148.111 96.0568 148.111 95.9989C148.111 95.9409 164.958 95.8984 185.745 95.8984C206.533 95.8984 223.38 95.9448 223.38 95.9989Z" fill="#263238"/>
<path d="M157.873 40.6557C157.873 40.6557 157.958 40.6557 158.105 40.6016C158.317 40.5341 158.495 40.3856 158.599 40.1882C158.75 39.9371 158.672 39.5624 158.684 39.1375C158.696 38.7125 158.684 38.2296 158.684 37.7004C158.684 37.1711 158.684 36.5801 158.684 35.9581C158.684 35.7997 158.684 35.6413 158.684 35.4791C158.697 35.3248 158.684 35.1693 158.645 35.0194C158.597 34.8719 158.505 34.7425 158.381 34.648C158.258 34.5536 158.109 34.4986 157.954 34.4901H153.345C153.166 34.4915 152.993 34.5551 152.856 34.6699C152.718 34.7848 152.625 34.9438 152.592 35.1198C152.565 35.4752 152.592 35.8924 152.592 36.2787C152.592 37.0514 152.592 37.7854 152.592 38.4923C152.592 38.8439 152.592 39.1877 152.592 39.5238C152.581 39.6799 152.589 39.8368 152.615 39.9912C152.648 40.1374 152.722 40.2713 152.828 40.3775C152.929 40.4744 153.054 40.5436 153.191 40.5784C153.33 40.602 153.471 40.6098 153.612 40.6016H154.45L156.973 40.6325L157.66 40.6518C157.741 40.6499 157.821 40.6564 157.9 40.6711C157.82 40.682 157.74 40.682 157.66 40.6711L156.973 40.6904L154.45 40.7252H153.612C153.458 40.7361 153.304 40.7283 153.152 40.702C152.983 40.6639 152.828 40.5799 152.704 40.4592C152.58 40.3386 152.492 40.186 152.449 40.0182C152.416 39.8504 152.406 39.6789 152.418 39.5083C152.418 39.1722 152.418 38.8284 152.418 38.4769C152.418 37.7699 152.418 37.0321 152.418 36.2633V35.6838C152.405 35.4819 152.405 35.2793 152.418 35.0773C152.463 34.8589 152.583 34.6627 152.756 34.522C152.929 34.3812 153.145 34.3045 153.368 34.3047H157.958C158.148 34.318 158.33 34.3875 158.481 34.5044C158.631 34.6214 158.744 34.7804 158.804 34.9614C158.848 35.1301 158.864 35.3051 158.85 35.4791C158.85 35.6413 158.85 35.7997 158.85 35.9581C158.85 36.5801 158.85 37.1634 158.85 37.7004C158.85 38.2373 158.85 38.7125 158.85 39.1375C158.85 39.3499 158.85 39.5469 158.85 39.7285C158.855 39.9023 158.814 40.0743 158.73 40.2268C158.609 40.4334 158.41 40.5834 158.178 40.6441C158.079 40.6761 157.974 40.6801 157.873 40.6557V40.6557Z" fill="#263238"/>
<path d="M157.873 90.7863C157.873 90.7863 157.958 90.7863 158.105 90.7322C158.317 90.6647 158.495 90.5162 158.599 90.3188C158.75 90.0677 158.672 89.693 158.684 89.2681C158.696 88.8431 158.684 88.3602 158.684 87.831C158.684 87.3017 158.684 86.7107 158.684 86.0887C158.684 85.9303 158.684 85.7719 158.684 85.6097C158.697 85.4554 158.684 85.2999 158.645 85.15C158.597 85.0025 158.505 84.8731 158.381 84.7787C158.258 84.6842 158.109 84.6292 157.954 84.6207H153.345C153.167 84.6219 152.994 84.6849 152.857 84.799C152.719 84.9131 152.626 85.0713 152.592 85.2465C152.565 85.6058 152.592 86.0192 152.592 86.4055C152.592 87.1781 152.592 87.9121 152.592 88.6191C152.592 88.9706 152.592 89.3144 152.592 89.6466C152.581 89.8041 152.589 89.9623 152.615 90.1179C152.647 90.2646 152.721 90.3989 152.828 90.5043C152.928 90.6031 153.054 90.6725 153.191 90.7051C153.329 90.7321 153.471 90.7411 153.612 90.7322H154.45L156.973 90.7631L157.66 90.7824C157.74 90.7741 157.82 90.7741 157.9 90.7824C157.821 90.7997 157.741 90.8062 157.66 90.8017L156.973 90.821L154.45 90.8519H153.612C153.458 90.8629 153.304 90.8551 153.152 90.8288C152.983 90.7907 152.828 90.7067 152.704 90.586C152.58 90.4653 152.492 90.3127 152.449 90.145C152.416 89.9759 152.405 89.8031 152.418 89.6312C152.418 89.299 152.418 88.9551 152.418 88.6036C152.418 87.8966 152.418 87.1588 152.418 86.39V85.8106C152.405 85.6086 152.405 85.406 152.418 85.2041C152.459 84.982 152.577 84.7814 152.751 84.6368C152.924 84.4923 153.143 84.4128 153.368 84.4121H157.958C158.148 84.4254 158.33 84.4949 158.481 84.6118C158.631 84.7288 158.744 84.8878 158.804 85.0688C158.848 85.2375 158.864 85.4126 158.85 85.5865C158.85 85.7488 158.85 85.9071 158.85 86.0655C158.85 86.6875 158.85 87.2708 158.85 87.8078C158.85 88.3448 158.85 88.8199 158.85 89.2449C158.85 89.4573 158.85 89.6544 158.85 89.8359C158.855 90.0097 158.814 90.1817 158.73 90.3343C158.671 90.4367 158.591 90.526 158.496 90.597C158.401 90.668 158.293 90.7193 158.178 90.7476C158.081 90.7862 157.976 90.7995 157.873 90.7863V90.7863Z" fill="#263238"/>
<path d="M147.551 110.577C147.551 110.577 147.551 110.496 147.551 110.342C147.551 110.187 147.551 109.955 147.551 109.65C147.551 109.032 147.551 108.136 147.551 106.988C147.551 104.671 147.551 101.329 147.551 97.2032C147.551 88.9439 147.652 77.5322 147.768 64.9268C147.883 52.3215 147.972 40.9137 148.046 32.6466C148.073 28.5208 148.092 25.1792 148.108 22.8613C148.108 21.7024 148.108 20.8177 148.131 20.2035C148.131 19.9022 148.131 19.6743 148.131 19.512C148.131 19.3498 148.131 19.2764 148.131 19.2764C148.131 19.2764 148.131 19.3536 148.131 19.512C148.131 19.6704 148.131 19.8983 148.131 20.2035C148.131 20.8177 148.131 21.714 148.131 22.8613C148.131 25.1792 148.131 28.5208 148.131 32.6466C148.111 40.906 148.03 52.3215 147.911 64.9268C147.791 77.5322 147.706 88.9361 147.636 97.2032C147.609 101.329 147.59 104.671 147.574 106.988C147.574 108.147 147.574 109.032 147.551 109.65C147.551 109.948 147.551 110.176 147.551 110.342C147.551 110.508 147.551 110.577 147.551 110.577Z" fill="#263238"/>
<path d="M190.566 52.5233C190.566 52.5774 184.772 52.6237 177.602 52.6237C170.432 52.6237 164.637 52.5774 164.637 52.5233C164.637 52.4692 170.432 52.4229 177.602 52.4229C184.772 52.4229 190.566 52.4653 190.566 52.5233Z" fill="#263238"/>
<path d="M206.772 55.3807C206.772 55.4387 197.339 55.4812 185.707 55.4812C174.075 55.4812 164.637 55.4387 164.637 55.3807C164.637 55.3228 174.071 55.2803 185.707 55.2803C197.342 55.2803 206.772 55.3344 206.772 55.3807Z" fill="#263238"/>
<path d="M190.566 86.1737C190.566 86.2278 184.772 86.2741 177.602 86.2741C170.432 86.2741 164.637 86.2278 164.637 86.1737C164.637 86.1196 170.432 86.0732 177.602 86.0732C184.772 86.0732 190.566 86.1157 190.566 86.1737Z" fill="#263238"/>
<path d="M206.772 89.0331C206.772 89.0871 197.339 89.1335 185.707 89.1335C174.075 89.1335 164.637 89.0871 164.637 89.0331C164.637 88.979 174.071 88.9326 185.707 88.9326C197.342 88.9326 206.772 88.979 206.772 89.0331Z" fill="#263238"/>
<path d="M190.566 36.3514C190.566 36.4094 184.772 36.4557 177.602 36.4557C170.432 36.4557 164.637 36.4094 164.637 36.3514C164.637 36.2935 170.432 36.251 177.602 36.251C184.772 36.251 190.566 36.2973 190.566 36.3514Z" fill="#263238"/>
<path d="M206.772 39.2147C206.772 39.2688 197.339 39.3151 185.707 39.3151C174.075 39.3151 164.637 39.2688 164.637 39.2147C164.637 39.1606 174.071 39.1143 185.707 39.1143C197.342 39.1143 206.772 39.1606 206.772 39.2147Z" fill="#263238"/>
<path d="M190.566 69.0096C190.566 69.0637 184.772 69.1101 177.602 69.1101C170.432 69.1101 164.637 69.0637 164.637 69.0096C164.637 68.9555 170.432 68.9092 177.602 68.9092C184.772 68.9092 190.566 68.9555 190.566 69.0096Z" fill="#263238"/>
<path d="M206.772 71.868C206.772 71.926 197.339 71.9685 185.707 71.9685C174.075 71.9685 164.637 71.926 164.637 71.868C164.637 71.8101 174.071 71.7676 185.707 71.7676C197.342 71.7676 206.772 71.8139 206.772 71.868Z" fill="#263238"/>
<path d="M190.566 102.14C190.566 102.194 184.772 102.24 177.602 102.24C170.432 102.24 164.637 102.194 164.637 102.14C164.637 102.085 170.432 102.039 177.602 102.039C184.772 102.039 190.566 102.078 190.566 102.14Z" fill="#263238"/>
<path d="M206.772 104.999C206.772 105.053 197.339 105.099 185.707 105.099C174.075 105.099 164.637 105.053 164.637 104.999C164.637 104.945 174.071 104.898 185.707 104.898C197.342 104.898 206.772 104.945 206.772 104.999Z" fill="#263238"/>
<path d="M219.988 21.3672H214.885V26.4704H219.988V21.3672Z" fill="#E0E0E0"/>
<path d="M211.679 21.3672H206.576V26.4704H211.679V21.3672Z" fill="#E0E0E0"/>
<path d="M203.369 21.3672H198.266V26.4704H203.369V21.3672Z" fill="#E0E0E0"/>
<path d="M110.747 34.7285L112.914 37.5563L114.768 34.7285H110.747Z" fill="#263238"/>
<path d="M64.5247 44.6292C63.1745 50.1988 66.2125 70.4518 71.1914 78.1142C71.1914 78.1142 85.6216 87.4812 130.693 82.1648C130.693 82.1648 123.402 79.8357 130.229 53.1271C130.372 52.5532 130.524 51.9794 130.685 51.3802C131.613 47.9203 124.82 41.9879 123.596 39.9035C114.778 24.9416 64.5247 44.6292 64.5247 44.6292Z" fill="#2C2C2C"/>
<path d="M38.9142 123.961C38.9142 123.961 36.4332 123.42 35.4797 122.197C34.5176 120.973 33.9522 120.433 30.5936 118.973C27.2603 117.513 25.9354 115.623 25.9354 115.623C25.9354 115.623 23.6063 117.758 28.7202 120.205C31.851 121.707 21.5641 121.488 18.4671 121.142C18.4671 121.142 16.6781 122.121 19.6401 123.555C22.6021 124.99 19.7498 125.1 25.6147 127.572C31.4712 130.053 38.4332 131.353 39.8509 127.817C41.2602 124.281 38.9142 123.961 38.9142 123.961Z" fill="white"/>
<path fill-rule="evenodd" clip-rule="evenodd" d="M25.9347 115.622L25.7066 115.373L25.9902 115.113L26.2107 115.428L26.2108 115.428L26.2111 115.428L26.2125 115.43C26.2142 115.433 26.2173 115.437 26.2216 115.443C26.2304 115.455 26.2444 115.473 26.2638 115.498C26.3027 115.548 26.3633 115.622 26.447 115.717C26.6144 115.907 26.8739 116.179 27.2362 116.496C27.9604 117.13 29.0959 117.948 30.7278 118.663C32.4091 119.394 33.416 119.904 34.1264 120.395C34.8489 120.894 35.2554 121.365 35.7443 121.987L35.7447 121.988L35.7452 121.988C36.1622 122.524 36.9456 122.938 37.6763 123.222C38.0334 123.361 38.3626 123.464 38.6025 123.531C38.7222 123.565 38.8192 123.59 38.8857 123.606C38.9189 123.614 38.9445 123.62 38.9614 123.624C38.9676 123.626 38.9726 123.627 38.9764 123.628C38.9802 123.628 38.9844 123.629 38.9891 123.63C38.9933 123.631 38.9978 123.632 39.0027 123.632C39.0258 123.637 39.0571 123.644 39.095 123.653C39.1707 123.673 39.2739 123.704 39.3916 123.755C39.6263 123.856 39.9269 124.037 40.1757 124.353C40.6903 125.008 40.8916 126.115 40.1638 127.941L40.1635 127.942C39.7656 128.934 38.9786 129.575 37.9647 129.936C36.9599 130.295 35.7215 130.385 34.3721 130.287C31.6717 130.09 28.4291 129.131 25.4824 127.882C22.5458 126.644 21.7176 125.97 21.2689 125.377C21.19 125.273 21.1216 125.169 21.0618 125.078C21.0419 125.048 21.0229 125.019 21.0049 124.992C20.9294 124.88 20.8555 124.779 20.7543 124.674C20.5522 124.463 20.2144 124.208 19.4922 123.858C18.732 123.49 18.2411 123.135 17.949 122.791C17.6487 122.436 17.55 122.08 17.61 121.75C17.6668 121.437 17.8548 121.209 18.0019 121.071C18.0779 120.999 18.1505 120.945 18.2044 120.908C18.2316 120.889 18.2547 120.874 18.2718 120.864C18.2804 120.859 18.2875 120.855 18.293 120.851C18.2957 120.85 18.2981 120.848 18.3 120.847L18.3025 120.846L18.3035 120.845L18.304 120.845C18.3042 120.845 18.3044 120.845 18.4664 121.141L18.3044 120.845L18.3979 120.794L18.5039 120.806C20.0341 120.977 23.3635 121.118 25.9166 121.028C27.2063 120.983 28.249 120.88 28.7698 120.712C28.8093 120.699 28.843 120.687 28.8716 120.675C28.8038 120.629 28.707 120.573 28.5736 120.509C25.9849 119.27 25.1423 118.046 25.0726 117.018C25.0383 116.513 25.1969 116.103 25.3588 115.824C25.4399 115.685 25.5232 115.575 25.5874 115.5C25.6196 115.462 25.6473 115.432 25.668 115.411C25.6783 115.401 25.6869 115.392 25.6934 115.386C25.6967 115.383 25.6994 115.38 25.7016 115.378L25.7045 115.375L25.7057 115.374L25.7062 115.374C25.7064 115.373 25.7066 115.373 25.9347 115.622ZM18.5508 121.49C18.5247 121.509 18.4948 121.534 18.4644 121.562C18.3686 121.652 18.2945 121.759 18.2742 121.87C18.2573 121.964 18.2667 122.121 18.464 122.354C18.6695 122.596 19.0657 122.902 19.7865 123.251C20.5454 123.618 20.9618 123.915 21.2412 124.206C21.3808 124.351 21.4795 124.488 21.5652 124.616C21.5905 124.653 21.6136 124.689 21.636 124.722C21.6922 124.808 21.7429 124.885 21.8073 124.97C22.1392 125.409 22.8172 126.026 25.7451 127.26L25.7457 127.261C28.6555 128.493 31.8221 129.424 34.4212 129.613C35.7216 129.708 36.8555 129.615 37.7378 129.301C38.611 128.989 39.2258 128.466 39.5368 127.691C40.218 125.981 39.951 125.16 39.6449 124.77C39.4834 124.565 39.2856 124.444 39.1244 124.375C39.0442 124.34 38.9752 124.319 38.928 124.307C38.9046 124.301 38.8868 124.298 38.8762 124.296C38.871 124.295 38.8675 124.294 38.866 124.294C38.8653 124.294 38.865 124.294 38.8653 124.294L38.8546 124.292L38.8417 124.289L38.9135 123.96C38.8417 124.289 38.8416 124.289 38.8415 124.289L38.8413 124.289L38.8389 124.289L38.8325 124.287C38.8271 124.286 38.8193 124.284 38.8094 124.282C38.7895 124.278 38.7608 124.271 38.7243 124.262C38.6514 124.244 38.5471 124.217 38.4194 124.181C38.1643 124.109 37.8136 124 37.4313 123.851C36.6834 123.56 35.7498 123.092 35.2132 122.404C34.7403 121.803 34.383 121.392 33.7428 120.95C33.0904 120.5 32.1354 120.011 30.4583 119.282L30.4575 119.281C28.7564 118.536 27.5629 117.679 26.7914 117.004C26.4066 116.667 26.127 116.375 25.9418 116.165C25.8271 116.363 25.7235 116.639 25.7461 116.973C25.7903 117.624 26.3401 118.692 28.8652 119.9L28.8655 119.9C29.0728 119.999 29.2448 120.101 29.3718 120.208C29.4902 120.308 29.6228 120.457 29.641 120.66C29.6615 120.888 29.5294 121.051 29.4081 121.145C29.2892 121.237 29.1352 121.303 28.9777 121.354C28.3534 121.556 27.2179 121.658 25.9401 121.703C23.4233 121.791 20.1648 121.659 18.5508 121.49ZM18.6297 121.436C18.6303 121.436 18.6304 121.436 18.6302 121.436L18.6297 121.436Z" fill="#2C2C2C"/>
<path d="M79.9097 103.801C79.9097 103.801 72.8886 137.826 69.6903 139.7C67.1165 141.21 47.3867 134.788 39.8931 132.265C38.1125 131.674 37.0239 131.286 37.0239 131.286L38.3151 122.56L42.5429 123.134L63.5976 125.995C63.5976 125.995 70.6946 91.4215 75.7916 90.9995C80.897 90.5692 79.9097 103.801 79.9097 103.801Z" fill="#2C2C2C"/>
<path d="M121.167 90.7881C121.167 90.7881 146.069 115.927 147.706 128.492C147.706 128.492 143.917 135.598 121.107 149.151L119.074 143.336C119.074 143.336 131.808 128.72 136.23 125.024C136.23 125.024 116.289 108.535 116.753 103.86C117.217 99.1678 118.373 91.0328 121.167 90.7881Z" fill="#2C2C2C"/>
<path d="M131.352 101.345C131.352 106.729 127.825 110.063 122.441 110.063C117.057 110.063 112.694 105.7 112.694 100.316C112.694 94.9319 116.761 88.991 121.892 90.6028C127.546 92.3665 131.352 95.9614 131.352 101.345Z" fill="white"/>
<path fill-rule="evenodd" clip-rule="evenodd" d="M115.626 93.0534C114.022 94.9464 113.031 97.6993 113.031 100.315C113.031 105.513 117.243 109.724 122.44 109.724C125.062 109.724 127.2 108.914 128.68 107.48C130.159 106.047 131.014 103.961 131.014 101.345C131.014 96.1662 127.369 92.6641 121.791 90.9243L121.791 90.9241C119.392 90.1707 117.225 91.1663 115.626 93.0534ZM121.993 90.2799C119.26 89.4217 116.828 90.5905 115.111 92.6169C113.399 94.6374 112.356 97.5469 112.356 100.315C112.356 105.885 116.87 110.399 122.44 110.399C125.202 110.399 127.52 109.543 129.15 107.965C130.781 106.385 131.689 104.112 131.689 101.345C131.689 95.7552 127.723 92.0675 121.993 90.2799Z" fill="#2C2C2C"/>
<path d="M126.972 99.7753C126.972 103.758 124.364 106.222 120.381 106.222C116.398 106.222 113.174 102.999 113.174 99.0158C113.174 95.0327 116.179 90.6361 119.984 91.826C124.153 93.1424 126.972 95.8006 126.972 99.7753Z" fill="#2C2C2C"/>
<path d="M65.9521 101.345C65.9521 106.729 69.4795 110.062 74.8635 110.062C80.2474 110.062 84.6018 105.691 84.6018 100.315C84.6018 94.94 80.5343 88.9907 75.4036 90.6025C69.758 92.3662 65.9521 95.9611 65.9521 101.345Z" fill="white"/>
<path fill-rule="evenodd" clip-rule="evenodd" d="M82.1839 92.6199C83.8961 94.6413 84.939 97.5507 84.939 100.315C84.939 105.876 80.434 110.399 74.8631 110.399C72.1013 110.399 69.7832 109.543 68.1536 107.964C66.5228 106.384 65.6143 104.112 65.6143 101.344C65.6143 95.755 69.5803 92.0673 75.3023 90.2796C78.035 89.4213 80.4669 90.5925 82.1839 92.6199ZM81.6688 93.0562C80.0695 91.168 77.9023 90.1705 75.5044 90.9238L75.5039 90.9239C69.935 92.6637 66.2894 96.1658 66.2894 101.344C66.2894 103.96 67.1445 106.047 68.6234 107.479C70.1035 108.913 72.241 109.724 74.8631 109.724C80.0601 109.724 84.2639 105.504 84.2639 100.315C84.2639 97.7033 83.2731 94.9503 81.6688 93.0562Z" fill="#2C2C2C"/>
<path d="M70.3398 99.7753C70.3398 103.758 72.9474 106.222 76.9305 106.222C80.9136 106.222 84.1372 102.999 84.1372 99.0158C84.1372 95.0327 81.133 90.6361 77.3356 91.826C73.15 93.1424 70.3398 95.8006 70.3398 99.7753Z" fill="#2C2C2C"/>
<path d="M110.921 144.543C104.828 143.986 98.8113 143.758 98.8113 143.758C96.6003 143.825 91.8915 144.019 87.0308 144.543C88.4485 149.386 93.2586 152.956 98.9716 152.956C104.693 152.964 109.503 149.378 110.921 144.543Z" fill="#50BFD7"/>
<path d="M110.424 145.048C110.947 142.989 121.42 90.5167 121.42 90.5167C121.42 90.5167 93.4704 82.2636 75.5972 90.5167L87.057 145.504L110.424 145.048Z" fill="white"/>
<path fill-rule="evenodd" clip-rule="evenodd" d="M121.514 90.1945C121.514 90.1946 121.515 90.1946 121.419 90.5183C121.75 90.5844 121.75 90.5846 121.75 90.585L121.75 90.5868L121.632 91.1742C121.556 91.559 121.443 92.1237 121.299 92.8431C121.012 94.282 120.601 96.3397 120.106 98.8155C119.116 103.767 117.79 110.39 116.448 117.078C113.767 130.444 111.015 144.092 110.751 145.133L110.687 145.382L86.7831 145.848L75.2114 90.3244L75.4551 90.2119C84.4783 86.0454 96.0109 86.0546 105.248 87.088C109.873 87.6054 113.938 88.3815 116.846 89.0282C118.3 89.3516 119.466 89.6428 120.269 89.8533C120.67 89.9586 120.981 90.0437 121.192 90.1026C121.297 90.132 121.377 90.1549 121.432 90.1705C121.459 90.1783 121.479 90.1843 121.493 90.1883L121.509 90.1929L121.513 90.1941L121.514 90.1945ZM121.419 90.5183L121.75 90.5844L121.81 90.2819L121.515 90.1946L121.419 90.5183ZM121.027 90.7576C121.021 90.756 121.016 90.7544 121.01 90.7528C120.803 90.6948 120.495 90.6106 120.098 90.5063C119.302 90.2977 118.145 90.0086 116.699 89.6872C113.809 89.0444 109.769 88.273 105.173 87.7589C96.0513 86.7384 84.7966 86.7381 75.9821 90.7135L87.3298 145.162L110.154 144.717C110.632 142.572 113.237 129.654 115.786 116.945C117.128 110.258 118.454 103.635 119.444 98.6831C119.939 96.2074 120.35 94.1497 120.637 92.7109C120.781 91.9915 120.893 91.4268 120.97 91.042L121.027 90.7576Z" fill="black"/>
<path d="M110.424 145.048C110.947 142.989 121.42 90.5167 121.42 90.5167C121.42 90.5167 93.4704 82.2636 75.5972 90.5167L87.057 145.504L110.424 145.048Z" fill="white"/>
<path fill-rule="evenodd" clip-rule="evenodd" d="M121.514 90.1945C121.514 90.1946 121.515 90.1946 121.419 90.5183C121.75 90.5844 121.75 90.5846 121.75 90.585L121.75 90.5868L121.632 91.1742C121.556 91.559 121.443 92.1237 121.299 92.8431C121.012 94.282 120.601 96.3397 120.106 98.8155C119.116 103.767 117.79 110.39 116.448 117.078C113.767 130.444 111.015 144.092 110.751 145.133L110.687 145.382L86.7831 145.848L75.2114 90.3244L75.4551 90.2119C84.4783 86.0454 96.0109 86.0546 105.248 87.088C109.873 87.6054 113.938 88.3815 116.846 89.0282C118.3 89.3516 119.466 89.6428 120.269 89.8533C120.67 89.9586 120.981 90.0437 121.192 90.1026C121.297 90.132 121.377 90.1549 121.432 90.1705C121.459 90.1783 121.479 90.1843 121.493 90.1883L121.509 90.1929L121.513 90.1941L121.514 90.1945ZM121.419 90.5183L121.75 90.5844L121.81 90.2819L121.515 90.1946L121.419 90.5183ZM121.027 90.7576C121.021 90.756 121.016 90.7544 121.01 90.7528C120.803 90.6948 120.495 90.6106 120.098 90.5063C119.302 90.2977 118.145 90.0086 116.699 89.6872C113.809 89.0444 109.769 88.273 105.173 87.7589C96.0513 86.7384 84.7966 86.7381 75.9821 90.7135L87.3298 145.162L110.154 144.717C110.632 142.572 113.237 129.654 115.786 116.945C117.128 110.258 118.454 103.635 119.444 98.6831C119.939 96.2074 120.35 94.1497 120.637 92.7109C120.781 91.9915 120.893 91.4268 120.97 91.042L121.027 90.7576Z" fill="#2C2C2C"/>
<path d="M114.635 88.906C106.829 87.3364 93.6308 85.5474 82.2891 88.2478C83.6308 96.7118 84.9726 105.184 86.3144 113.648C87.3945 119.387 92.8375 123.21 98.5168 123.243C104.196 123.21 109.639 119.395 110.719 113.648C112.019 105.395 113.327 97.1507 114.635 88.906Z" fill="#50BFD7"/>
<path fill-rule="evenodd" clip-rule="evenodd" d="M82.2104 87.921C93.6263 85.2029 106.885 87.0049 114.701 88.5766L115.018 88.6405L114.967 88.9657C113.659 97.2087 112.351 105.451 111.052 113.702L111.051 113.707L111.05 113.712C109.936 119.643 104.332 123.548 98.5183 123.582L98.5163 123.582L98.5143 123.582C92.7005 123.548 87.0969 119.635 85.9822 113.712L85.9813 113.708L85.9805 113.703C85.3097 109.471 84.6389 105.237 83.968 101.004L83.9678 101.002C83.297 96.7683 82.6261 92.5342 81.9552 88.3022L81.9062 87.9934L82.2104 87.921ZM82.6711 88.5064C83.3255 92.6348 83.98 96.7652 84.6344 100.896L84.6346 100.897C85.3052 105.129 85.9759 109.362 86.6465 113.592C87.694 119.143 92.9738 122.873 98.5163 122.907C104.059 122.873 109.338 119.152 110.386 113.593C111.669 105.448 112.959 97.3113 114.25 89.1751C106.49 87.6381 93.7179 85.9619 82.6711 88.5064Z" fill="#2C2C2C"/>
<path d="M97.5474 91.9017C100.214 91.9017 104.357 91.0916 104.357 88.4334L103.674 79.5558L103.075 71.7922C103.075 69.1255 100.914 66.9736 98.2562 66.9736C96.9229 66.9736 95.7246 67.5137 94.847 68.3829C93.9778 69.2521 93.4293 70.4588 93.4293 71.7922L92.8385 79.5643L92.2732 87.0157C91.5137 91.5135 97.5474 91.9017 97.5474 91.9017Z" fill="#2C2C2C"/>
<path d="M113.141 21.7337C109.149 16.8224 103.571 13.8604 96.4153 13.8604C80.2044 13.8604 64.3564 28.8054 64.3564 47.4466C64.3564 66.0878 77.4956 81.2016 93.7064 81.2016C95.2676 81.2016 96.7781 81.0666 98.2296 80.7966C98.3815 81.6151 98.4659 82.459 98.4659 83.3197C98.4659 83.4801 98.4575 83.632 98.4575 83.7839C143.149 72.9654 135.833 18.9742 113.141 21.7337Z" fill="#2C2C2C"/>
<path d="M78.2887 66.2737C81.2948 66.2737 83.7317 63.8368 83.7317 60.8307C83.7317 57.8246 81.2948 55.3877 78.2887 55.3877C75.2826 55.3877 72.8457 57.8246 72.8457 60.8307C72.8457 63.8368 75.2826 66.2737 78.2887 66.2737Z" fill="white"/>
<path fill-rule="evenodd" clip-rule="evenodd" d="M78.2879 55.7249C75.4682 55.7249 73.1824 58.0107 73.1824 60.8303C73.1824 63.65 75.4682 65.9358 78.2879 65.9358C81.1075 65.9358 83.3933 63.65 83.3933 60.8303C83.3933 58.0107 81.1075 55.7249 78.2879 55.7249ZM72.5073 60.8303C72.5073 57.6378 75.0954 55.0498 78.2879 55.0498C81.4804 55.0498 84.0684 57.6378 84.0684 60.8303C84.0684 64.0229 81.4804 66.6109 78.2879 66.6109C75.0954 66.6109 72.5073 64.0229 72.5073 60.8303Z" fill="#2C2C2C"/>
<path d="M116.618 66.2737C119.624 66.2737 122.061 63.8368 122.061 60.8307C122.061 57.8246 119.624 55.3877 116.618 55.3877C113.612 55.3877 111.175 57.8246 111.175 60.8307C111.175 63.8368 113.612 66.2737 116.618 66.2737Z" fill="white"/>
<path fill-rule="evenodd" clip-rule="evenodd" d="M116.617 55.7249C113.798 55.7249 111.512 58.0107 111.512 60.8303C111.512 63.65 113.798 65.9358 116.617 65.9358C119.437 65.9358 121.723 63.65 121.723 60.8303C121.723 58.0107 119.437 55.7249 116.617 55.7249ZM110.837 60.8303C110.837 57.6378 113.425 55.0498 116.617 55.0498C119.81 55.0498 122.398 57.6378 122.398 60.8303C122.398 64.0229 119.81 66.6109 116.617 66.6109C113.425 66.6109 110.837 64.0229 110.837 60.8303Z" fill="#2C2C2C"/>
<path d="M97.9675 83.5399C109.652 83.5399 119.123 70.1312 119.123 53.5907C119.123 37.0503 109.652 23.6416 97.9675 23.6416C86.2834 23.6416 76.8115 37.0503 76.8115 53.5907C76.8115 70.1312 86.2834 83.5399 97.9675 83.5399Z" fill="white"/>
<path fill-rule="evenodd" clip-rule="evenodd" d="M83.2838 32.6069C79.5001 37.9633 77.1492 45.3806 77.1492 53.5894C77.1492 61.7982 79.5001 69.2156 83.2838 74.5719C87.0681 79.9291 92.2646 83.201 97.9676 83.201C103.671 83.201 108.867 79.9291 112.651 74.5719C116.435 69.2156 118.786 61.7982 118.786 53.5894C118.786 45.3806 116.435 37.9633 112.651 32.6069C108.867 27.2498 103.671 23.9778 97.9676 23.9778C92.2646 23.9778 87.0681 27.2498 83.2838 32.6069ZM82.7324 32.2174C86.6051 26.7352 91.9866 23.3027 97.9676 23.3027C103.949 23.3027 109.33 26.7352 113.203 32.2174C117.076 37.7006 119.461 45.2578 119.461 53.5894C119.461 61.9211 117.076 69.4783 113.203 74.9614C109.33 80.4437 103.949 83.8761 97.9676 83.8761C91.9866 83.8761 86.6051 80.4437 82.7324 74.9614C78.8591 69.4783 76.4741 61.9211 76.4741 53.5894C76.4741 45.2578 78.8591 37.7006 82.7324 32.2174Z" fill="#2C2C2C"/>
<path d="M73.7231 46.9487C73.7231 46.9487 91.7314 47.8263 97.7314 36.9909C97.7314 36.9909 110.761 48.2651 123.2 47.3875L122.027 42.4086L117.2 32.8897L114.271 29.3792L108.271 23.0839L100.221 19.7168L90.5585 21.0332L77.6725 29.818L76.0607 35.6745L73.7231 46.9487Z" fill="#2C2C2C"/>
<path d="M98.4906 65.2957C98.4991 65.3463 98.3894 65.4392 98.1446 65.4392C97.9083 65.4476 97.5455 65.3379 97.2248 65.0341C97.0645 64.8822 96.921 64.6966 96.8113 64.4603C96.7944 64.4265 96.786 64.3928 96.7691 64.359L96.7522 64.3084L96.7354 64.2662L96.71 64.1902C96.7016 64.1565 96.6932 64.1143 96.6763 64.0805C96.6425 63.954 96.6172 63.8189 96.6088 63.6755C96.5581 63.1185 96.6678 62.5531 96.8029 62.013C97.3261 59.8527 97.9421 58.1565 98.1699 58.2072C98.3978 58.2662 98.1615 60.0552 97.6383 62.2156C97.5033 62.7472 97.402 63.2282 97.402 63.6333C97.402 63.7345 97.4105 63.8358 97.4189 63.9286L97.4273 63.9624V63.9793V63.9877V63.9961C97.4273 63.9961 97.4189 63.9708 97.4273 63.9793L97.4442 64.0637L97.4527 64.1059L97.4611 64.1312L97.478 64.1818C97.5286 64.3421 97.6045 64.494 97.6889 64.6122C97.8577 64.8569 98.0602 65.0088 98.2206 65.0932C98.364 65.2029 98.4822 65.2366 98.4906 65.2957Z" fill="#2C2C2C"/>
<path d="M75.0988 57.0253C74.8625 56.0886 74.6853 55.1351 74.5418 54.173C74.4068 53.211 74.314 52.249 74.2633 51.2785C74.1789 49.3376 74.2549 47.3798 74.5165 45.4474C74.7781 43.5065 75.2254 41.5909 75.8583 39.7343C75.892 39.6162 75.9342 39.498 75.9764 39.3883L76.103 39.0423L76.3561 38.3504L76.6431 37.6668L76.7865 37.3293C76.8372 37.2196 76.8793 37.1014 76.9384 36.9917C77.3519 36.0972 77.7992 35.2112 78.3055 34.3673C79.3097 32.6627 80.4827 31.0593 81.8329 29.5994C83.1915 28.1479 84.7189 26.8483 86.3898 25.7597C86.5924 25.6163 86.8118 25.4897 87.0227 25.3631C87.2337 25.2365 87.4531 25.1015 87.6641 24.9834L88.3307 24.629L88.6598 24.4517C88.7695 24.3927 88.8877 24.342 88.9974 24.2914L89.6809 23.9792C89.74 23.9539 89.7906 23.9285 89.8497 23.9032L90.0269 23.8357L90.3729 23.7007L90.7189 23.5657C90.837 23.5235 90.9467 23.4728 91.0733 23.4307L91.7906 23.1944C93.6978 22.5783 95.7062 22.2661 97.7146 22.2239C98.7188 22.1902 99.7231 22.2661 100.719 22.3758C100.972 22.4096 101.217 22.4518 101.461 22.4855L101.833 22.5446C101.892 22.553 101.959 22.5615 102.018 22.5783L102.204 22.6205L102.938 22.7809C103.183 22.8315 103.428 22.899 103.664 22.9665C105.596 23.5066 107.461 24.2914 109.166 25.3378L109.799 25.7344C109.909 25.8019 110.01 25.8695 110.111 25.9454L110.415 26.1564L110.719 26.3673C110.82 26.4348 110.921 26.5108 111.023 26.5867L111.613 27.0424L111.909 27.2703L112.196 27.515L112.761 28.0045C112.947 28.1648 113.124 28.342 113.301 28.5192L113.571 28.7808C113.664 28.8652 113.748 28.9496 113.833 29.0424L114.347 29.5825L114.601 29.8525L114.845 30.131L115.335 30.6964C115.419 30.7892 115.495 30.8905 115.571 30.9833L115.799 31.2787C115.951 31.4728 116.103 31.6669 116.255 31.8694L116.685 32.477C116.98 32.8736 117.233 33.304 117.504 33.7175C118.55 35.3968 119.402 37.1858 120.077 39.0255C120.752 40.8736 121.233 42.7807 121.537 44.7132L121.596 45.0761L121.622 45.2533L121.638 45.4389L121.723 46.1647C121.79 46.6457 121.807 47.1351 121.849 47.6246C121.909 48.595 121.925 49.5739 121.9 50.5444L121.892 50.9072L121.875 51.2701C121.858 51.5148 121.849 51.7511 121.824 51.9958C121.79 52.4768 121.74 52.9663 121.681 53.4473C121.554 54.4093 121.394 55.3629 121.183 56.308C121.301 55.346 121.394 54.3924 121.428 53.4304C121.47 52.4684 121.478 51.5064 121.436 50.5528C121.394 49.5992 121.326 48.6372 121.208 47.6921C121.141 47.2195 121.09 46.7469 120.997 46.2744L120.871 45.5739L120.837 45.3967L120.795 45.2195L120.719 44.8735C120.322 43.0086 119.757 41.1858 119.039 39.439L118.904 39.1099L118.761 38.7892L118.466 38.1394C118.373 37.92 118.263 37.7175 118.153 37.5065L117.833 36.8736C117.723 36.6626 117.605 36.4601 117.487 36.2576C117.368 36.055 117.259 35.8441 117.132 35.6415L116.761 35.0424C116.634 34.8398 116.516 34.6373 116.381 34.4517C116.111 34.0635 115.858 33.6669 115.571 33.2956L115.149 32.7302C115.006 32.5445 114.854 32.3673 114.702 32.1816L114.474 31.9116C114.398 31.8188 114.322 31.7259 114.246 31.6416L113.774 31.1184L113.537 30.8568L113.293 30.6036L112.795 30.1057C111.453 28.8061 109.959 27.6669 108.347 26.7218C106.744 25.7766 105.014 25.0593 103.225 24.5783C102.778 24.4433 102.322 24.3674 101.875 24.2661L101.706 24.2323C101.647 24.2239 101.588 24.2155 101.537 24.207L101.191 24.1564C100.964 24.1226 100.736 24.0804 100.508 24.0551C99.588 23.9623 98.6598 23.8948 97.7399 23.9201C95.8919 23.9539 94.0438 24.2323 92.2801 24.7977L91.6218 25.0087C91.5121 25.0425 91.4024 25.0846 91.2927 25.1268L90.9721 25.2534L90.6514 25.38L90.4911 25.4391C90.4404 25.456 90.3814 25.4897 90.3307 25.5066L89.6978 25.7935C89.5965 25.8441 89.4868 25.8863 89.3771 25.937L89.0649 26.0973L88.4489 26.418C88.2463 26.5361 88.0438 26.6543 87.8413 26.764C87.6388 26.8821 87.4362 26.9918 87.2421 27.1268C85.6641 28.1226 84.2126 29.3125 82.8962 30.6458L82.4152 31.1606L82.1789 31.4222C82.1367 31.4643 82.0945 31.5065 82.0607 31.5487L81.951 31.6838L81.4953 32.2238C81.4194 32.3167 81.3434 32.401 81.2675 32.4939L81.0481 32.7724L80.6177 33.3293C80.5418 33.4221 80.4827 33.515 80.4067 33.6162L80.2042 33.9031C80.0692 34.0972 79.9342 34.2829 79.7992 34.4854L79.4194 35.0846C78.4152 36.6795 77.5544 38.3757 76.8793 40.1394C76.1958 41.9031 75.6726 43.7427 75.3182 45.6161L75.1832 46.3166C75.141 46.5528 75.1156 46.7891 75.0735 47.0254L74.9722 47.7343C74.9469 47.9706 74.9216 48.2068 74.8962 48.4431L74.8203 49.1604L74.7781 49.8777L74.7359 50.595C74.7275 50.8313 74.719 51.076 74.7106 51.3123C74.6937 52.2743 74.7106 53.2279 74.7781 54.1899C74.854 55.1097 74.9638 56.0633 75.0988 57.0253Z" fill="#50BFD7"/>
<path d="M92.4655 55.1757C92.4655 57.5807 90.3811 59.5301 87.8158 59.5301C85.2419 59.5301 83.166 57.5807 83.166 55.1757C83.166 52.7706 85.2504 50.8213 87.8158 50.8213C90.3811 50.8213 92.4655 52.7706 92.4655 55.1757Z" fill="white"/>
<path fill-rule="evenodd" clip-rule="evenodd" d="M87.8164 51.1605C85.4161 51.1605 83.5042 52.9793 83.5042 55.1773C83.5042 57.3757 85.4081 59.1941 87.8164 59.1941C90.2167 59.1941 92.1286 57.3753 92.1286 55.1773C92.1286 52.9793 90.2167 51.1605 87.8164 51.1605ZM82.8291 55.1773C82.8291 52.5652 85.0859 50.4854 87.8164 50.4854C90.5469 50.4854 92.8037 52.5652 92.8037 55.1773C92.8037 57.7894 90.5469 59.8692 87.8164 59.8692C85.0771 59.8692 82.8291 57.789 82.8291 55.1773Z" fill="#2C2C2C"/>
<path d="M85.5381 54.9065C85.5381 56.8896 86.8292 58.5014 88.4157 58.5014C90.0022 58.5014 91.2933 56.8896 91.2933 54.9065C91.2933 52.9234 90.0022 51.3116 88.4157 51.3116C86.8208 51.3031 85.5381 52.9149 85.5381 54.9065Z" fill="#50BFD7"/>
<path d="M86.3643 54.9056C86.3643 56.3148 87.2756 57.4541 88.4064 57.4541C89.5372 57.4541 90.4486 56.3148 90.4486 54.9056C90.4486 53.4963 89.5372 52.3486 88.4064 52.3486C87.2841 52.3486 86.3643 53.4879 86.3643 54.9056Z" fill="#2C2C2C"/>
<path d="M86.2383 52.4851C86.2383 52.8733 86.7109 53.1771 87.2931 53.1771C87.8754 53.1771 88.348 52.8649 88.348 52.4851C88.348 52.0969 87.8754 51.7931 87.2931 51.7931C86.7109 51.7847 86.2383 52.0969 86.2383 52.4851Z" fill="white"/>
<path d="M88.1198 50.1887C85.2422 49.9018 83.0312 52.501 83.0312 55.1845C83.0312 55.463 83.3772 55.5136 83.5207 55.3195C84.6937 53.7077 85.0734 52.1212 87.2169 51.5052C90.3814 50.5938 92.1198 53.8427 92.297 56.3912C92.3223 56.636 92.5333 56.4165 92.5586 56.1634C92.8455 53.117 91.3265 50.5094 88.1198 50.1887Z" fill="#2C2C2C"/>
<path d="M93.8 48.5181C93.8 48.5181 87.5215 42.2566 80.7705 49.6911C80.7621 49.6911 86.6017 45.9528 93.8 48.5181Z" fill="#2C2C2C"/>
<path d="M112.694 55.1757C112.694 57.5807 110.609 59.5301 108.044 59.5301C105.47 59.5301 103.394 57.5807 103.394 55.1757C103.394 52.7706 105.478 50.8213 108.044 50.8213C110.609 50.8213 112.694 52.7706 112.694 55.1757Z" fill="white"/>
<path fill-rule="evenodd" clip-rule="evenodd" d="M108.043 51.1605C105.643 51.1605 103.731 52.9793 103.731 55.1773C103.731 57.3757 105.635 59.1941 108.043 59.1941C110.444 59.1941 112.356 57.3753 112.356 55.1773C112.356 52.9793 110.444 51.1605 108.043 51.1605ZM103.056 55.1773C103.056 52.5652 105.313 50.4854 108.043 50.4854C110.774 50.4854 113.031 52.5652 113.031 55.1773C113.031 57.7894 110.774 59.8692 108.043 59.8692C105.304 59.8692 103.056 57.789 103.056 55.1773Z" fill="#2C2C2C"/>
<path d="M105.766 54.9065C105.766 56.8896 107.057 58.5014 108.643 58.5014C110.23 58.5014 111.521 56.8896 111.521 54.9065C111.521 52.9234 110.23 51.3116 108.643 51.3116C107.057 51.3031 105.766 52.9149 105.766 54.9065Z" fill="#50BFD7"/>
<path d="M106.601 54.9056C106.601 56.3148 107.512 57.4541 108.643 57.4541C109.774 57.4541 110.685 56.3148 110.685 54.9056C110.685 53.4963 109.774 52.3486 108.643 52.3486C107.512 52.3486 106.601 53.4879 106.601 54.9056Z" fill="#2C2C2C"/>
<path d="M106.466 52.4851C106.466 52.8733 106.939 53.1771 107.521 53.1771C108.103 53.1771 108.576 52.8649 108.576 52.4851C108.576 52.0969 108.103 51.7931 107.521 51.7931C106.947 51.7847 106.466 52.0969 106.466 52.4851Z" fill="white"/>
<path d="M108.348 50.1887C105.47 49.9018 103.259 52.501 103.259 55.1845C103.259 55.463 103.605 55.5136 103.749 55.3195C104.922 53.7077 105.301 52.1212 107.445 51.5052C110.609 50.5938 112.348 53.8427 112.525 56.3912C112.55 56.636 112.761 56.4165 112.787 56.1634C113.074 53.117 111.563 50.5094 108.348 50.1887Z" fill="#2C2C2C"/>
<path d="M114.027 47.8355C114.027 47.8355 107.749 41.574 100.998 49.0085C100.998 49.0085 106.837 45.2701 114.027 47.8355Z" fill="#2C2C2C"/>
<path d="M91.0991 70.0791C91.3101 71.7162 92.1033 73.2268 93.3438 74.3238C94.5843 75.4208 96.1793 76.02 97.8332 76.02C99.4872 76.02 101.082 75.4208 102.323 74.3238C103.563 73.2268 104.365 71.7247 104.567 70.0791H91.0991Z" fill="white"/>
<path d="M104.305 148.197C104.305 148.408 104.491 148.653 104.71 148.628C107.2 148.366 109.107 146.442 111.563 146.847C109.099 148.071 106.964 150.197 107.267 153.328C107.301 153.716 107.672 153.868 107.959 153.632C109.723 152.13 111.748 150.788 114.111 151.286C115.124 151.497 116.314 151.894 117.36 151.759C118.921 151.565 120.238 150.856 121.014 149.345C122.381 146.729 121.875 143.59 118.812 142.94C118.736 142.923 118.677 142.932 118.609 142.957C117.478 142.51 116.449 141.944 115.537 140.957C114.66 139.995 113.841 138.932 112.888 138.046C111.613 136.856 110.229 135.919 108.542 136.721C108.288 136.839 108.305 137.202 108.466 137.396C109.208 138.316 110.077 139.193 110.989 140.037C110.077 139.826 109.158 139.717 108.212 139.792C106.525 139.936 104.533 141.058 104.575 143.067C104.584 143.32 104.761 143.472 104.98 143.497C106.533 143.657 108.094 143.632 109.639 143.792C107.234 144.501 104.28 145.311 104.305 148.197Z" fill="white"/>
<path fill-rule="evenodd" clip-rule="evenodd" d="M110.993 136.322C111.771 136.629 112.473 137.197 113.117 137.798C113.762 138.398 114.357 139.089 114.935 139.76C115.222 140.092 115.504 140.42 115.785 140.728C116.623 141.636 117.569 142.173 118.631 142.602C118.708 142.589 118.79 142.59 118.882 142.61C120.535 142.961 121.525 143.999 121.898 145.313C122.265 146.607 122.026 148.134 121.313 149.5C120.475 151.13 119.047 151.888 117.402 152.093C116.825 152.167 116.224 152.094 115.657 151.983C115.372 151.927 115.09 151.861 114.819 151.796C114.791 151.789 114.762 151.782 114.734 151.775C114.493 151.717 114.263 151.662 114.041 151.616L114.041 151.616C111.85 151.154 109.94 152.388 108.177 153.889L108.175 153.89L108.173 153.892C107.943 154.081 107.646 154.136 107.385 154.024C107.123 153.912 106.957 153.659 106.93 153.359C106.656 150.52 108.272 148.482 110.311 147.168C109.633 147.26 108.972 147.505 108.28 147.798C108.126 147.863 107.97 147.931 107.812 147.999C106.876 148.406 105.865 148.845 104.746 148.963C104.494 148.991 104.292 148.862 104.171 148.723C104.05 148.585 103.967 148.395 103.967 148.199C103.953 146.609 104.774 145.588 105.88 144.892C106.463 144.525 107.135 144.242 107.817 144.005C107.644 143.997 107.471 143.989 107.297 143.982L107.29 143.981C106.517 143.948 105.731 143.914 104.945 143.832L104.943 143.832L104.941 143.832C104.58 143.79 104.252 143.521 104.237 143.078L104.237 143.076L104.237 143.073C104.213 141.941 104.768 141.064 105.537 140.464C106.299 139.869 107.283 139.532 108.183 139.456L108.184 139.456L108.185 139.456C108.781 139.408 109.365 139.431 109.94 139.504C109.32 138.894 108.731 138.263 108.203 137.609C108.067 137.444 107.999 137.221 108.011 137.01C108.023 136.792 108.13 136.54 108.397 136.415C109.332 135.971 110.198 136.008 110.993 136.322ZM108.689 137.024C108.687 137.028 108.685 137.036 108.685 137.049C108.684 137.07 108.687 137.095 108.695 137.122C108.704 137.149 108.715 137.169 108.725 137.181L108.726 137.182L108.727 137.183C109.456 138.086 110.312 138.951 111.217 139.789L112.149 140.652L110.912 140.366C110.024 140.16 109.14 140.056 108.239 140.129C107.452 140.196 106.597 140.492 105.952 140.996C105.314 141.494 104.894 142.182 104.912 143.057C104.914 143.101 104.928 143.119 104.937 143.128C104.948 143.14 104.973 143.156 105.017 143.161C105.781 143.24 106.548 143.273 107.327 143.307L107.329 143.307C108.104 143.341 108.89 143.375 109.673 143.456L111.372 143.633L109.733 144.116C109.691 144.128 109.649 144.141 109.607 144.153C108.427 144.5 107.193 144.864 106.24 145.464C105.274 146.072 104.631 146.899 104.642 148.194L104.642 148.196V148.197C104.642 148.201 104.643 148.214 104.65 148.232C104.657 148.249 104.668 148.266 104.679 148.279C104.683 148.284 104.687 148.288 104.69 148.29C105.692 148.182 106.591 147.792 107.528 147.387C107.689 147.317 107.852 147.246 108.017 147.176C109.118 146.711 110.286 146.294 111.617 146.514L112.649 146.684L111.712 147.149C109.301 148.347 107.319 150.37 107.602 153.295L107.603 153.297L107.603 153.299C107.607 153.344 107.619 153.37 107.628 153.383C107.637 153.396 107.645 153.401 107.651 153.404C107.656 153.406 107.664 153.408 107.677 153.406C107.69 153.404 107.713 153.396 107.742 153.372C109.507 151.87 111.646 150.422 114.18 150.955C114.411 151.004 114.651 151.061 114.891 151.119C114.92 151.126 114.948 151.132 114.977 151.139C115.247 151.204 115.517 151.268 115.787 151.32C116.33 151.427 116.847 151.484 117.316 151.423L117.317 151.423L117.318 151.423C118.794 151.24 119.999 150.581 120.713 149.19L120.714 149.189L120.714 149.188C121.367 147.939 121.559 146.589 121.249 145.497C120.944 144.425 120.15 143.569 118.741 143.27L118.739 143.27L118.738 143.269C118.737 143.269 118.737 143.269 118.737 143.269C118.735 143.27 118.731 143.271 118.727 143.273L118.605 143.318L118.484 143.271C117.326 142.812 116.246 142.223 115.288 141.186L115.288 141.185L115.287 141.184C114.977 140.844 114.681 140.5 114.388 140.16C113.827 139.508 113.276 138.868 112.657 138.293L112.656 138.292C112.026 137.703 111.399 137.208 110.745 136.95C110.108 136.699 109.439 136.668 108.689 137.024Z" fill="#2C2C2C"/>
<path fill-rule="evenodd" clip-rule="evenodd" d="M76.3899 52.0029V52.1717H75.7148V52.0029H76.3899Z" fill="#2C2C2C"/>
<path fill-rule="evenodd" clip-rule="evenodd" d="M79.9339 53.8594V54.0282H79.2588V53.8594H79.9339Z" fill="#2C2C2C"/>
<path d="M99.1328 52.8645C100.289 53.1092 99.8586 53.8603 99.8586 53.97C99.8586 54.0797 100.289 60.3244 105.867 61.9699C111.445 63.6155 114.787 60.3835 115.757 58.7632C116.728 57.143 117.538 53.2949 117.774 52.9995C118.019 52.7042 119.175 52.1894 119.175 52.1894L119.31 50.6789L117.858 50.2485C117.858 50.2485 114.196 48.5776 108.804 48.5017C103.42 48.4173 100.373 51.5228 100.373 51.5228C98.8544 51.0418 96.9725 50.9742 95.251 51.5228C95.251 51.5228 92.2046 48.4257 86.8207 48.5017C81.4368 48.5861 77.7659 50.2485 77.7659 50.2485L76.3145 50.6789L76.4495 52.1894C76.4495 52.1894 77.6056 52.7042 77.8503 52.9995C78.095 53.2949 78.8967 57.1514 79.8672 58.7632C80.8376 60.3835 84.1794 63.6155 89.7574 61.9699C95.3354 60.3244 95.7658 54.0797 95.7658 53.97C95.7658 53.8603 95.3354 53.1092 96.4915 52.8645C97.4957 52.6536 98.1286 52.6536 99.1328 52.8645ZM112.517 60.6788C108.264 63.2358 103.167 60.6535 101.631 57.2864C100.095 53.9194 101.386 52.1388 101.386 52.1388C103.96 47.9532 114.314 47.776 116.095 52.2991C116.399 53.0586 116.778 58.1219 112.517 60.6788ZM79.5212 52.2991C81.3018 47.7675 91.6645 47.9532 94.2299 52.1388C94.2299 52.1388 95.5211 53.9194 93.9852 57.2864C92.4494 60.6535 87.3608 63.2358 83.0992 60.6788C78.8461 58.1219 79.2258 53.0586 79.5212 52.2991Z" fill="#2C2C2C"/>
<path d="M101.74 98.1804H95.2588C93.5373 98.1804 92.1365 99.5812 92.1365 101.303V107.784C92.1365 109.505 93.5373 110.906 95.2588 110.906H101.74C103.461 110.906 104.862 109.505 104.862 107.784V101.303C104.862 99.5812 103.47 98.1804 101.74 98.1804ZM90.415 95.4209C89.4277 95.4209 88.626 96.2226 88.626 97.2099C88.626 98.1972 89.4277 98.9989 90.415 98.9989C91.4023 98.9989 92.204 98.1972 92.204 97.2099C92.204 96.2226 91.4023 95.4209 90.415 95.4209Z" fill="white"/>
<path d="M101.284 102.045C100.87 100.939 99.8155 100.205 98.6341 100.205H96.8788L100.347 108.998H104.069L101.284 102.045ZM94.1953 106.475L93.1826 108.998H96.8788L98.6003 104.635H96.845C95.6636 104.635 94.6088 105.37 94.1953 106.475ZM94.7691 102.391C95.3767 102.391 95.8746 101.893 95.8746 101.285C95.8746 100.678 95.3767 100.18 94.7691 100.18C94.1615 100.18 93.6636 100.678 93.6636 101.285C93.6636 101.893 94.1615 102.391 94.7691 102.391Z" fill="#50BFD7"/>
<path d="M109.514 134.851C103.68 134.318 97.919 134.1 97.919 134.1C95.8021 134.164 91.2936 134.35 86.6396 134.851C87.9971 139.489 92.6025 142.907 98.0725 142.907C103.551 142.915 108.156 139.481 109.514 134.851Z" fill="#50BFD7"/>
<path d="M102.857 143.279C102.857 143.481 103.035 143.715 103.245 143.691C105.628 143.44 107.454 141.598 109.806 141.986C107.446 143.157 105.402 145.193 105.693 148.191C105.725 148.563 106.081 148.708 106.356 148.482C108.044 147.044 109.983 145.759 112.246 146.236C113.215 146.438 114.355 146.818 115.357 146.688C116.851 146.502 118.112 145.824 118.855 144.377C120.164 141.873 119.679 138.867 116.746 138.245C116.674 138.229 116.617 138.237 116.552 138.261C115.47 137.833 114.484 137.291 113.611 136.346C112.771 135.425 111.987 134.407 111.074 133.559C109.854 132.419 108.529 131.522 106.913 132.29C106.671 132.403 106.687 132.751 106.84 132.936C107.551 133.817 108.384 134.657 109.256 135.465C108.384 135.263 107.503 135.158 106.598 135.231C104.982 135.368 103.075 136.443 103.116 138.366C103.124 138.608 103.293 138.754 103.503 138.778C104.99 138.932 106.485 138.907 107.964 139.061C105.661 139.74 102.833 140.515 102.857 143.279Z" fill="#C4C4C4"/>
<path fill-rule="evenodd" clip-rule="evenodd" d="M109.26 131.909C110.005 132.203 110.678 132.747 111.294 133.322C111.912 133.896 112.482 134.558 113.035 135.2C113.309 135.518 113.579 135.832 113.849 136.128C114.651 136.997 115.557 137.51 116.573 137.921C116.647 137.909 116.726 137.91 116.814 137.929C118.397 138.265 119.345 139.259 119.702 140.517C120.053 141.756 119.825 143.218 119.141 144.526C118.339 146.087 116.972 146.813 115.397 147.009C114.845 147.08 114.269 147.01 113.726 146.903C113.453 146.85 113.183 146.786 112.924 146.724C112.897 146.718 112.869 146.711 112.842 146.704C112.611 146.649 112.391 146.596 112.179 146.552L112.179 146.552C110.081 146.11 108.252 147.291 106.565 148.728L106.563 148.73L106.561 148.731C106.341 148.912 106.056 148.965 105.806 148.858C105.555 148.75 105.396 148.508 105.371 148.221C105.108 145.502 106.655 143.551 108.608 142.293C107.958 142.382 107.325 142.616 106.663 142.896C106.515 142.959 106.366 143.024 106.215 143.089C105.318 143.479 104.351 143.899 103.28 144.012C103.038 144.039 102.845 143.915 102.728 143.782C102.613 143.65 102.534 143.468 102.533 143.28C102.52 141.758 103.306 140.781 104.365 140.114C104.923 139.763 105.567 139.492 106.219 139.264C106.054 139.257 105.888 139.25 105.722 139.242L105.715 139.242C104.975 139.21 104.222 139.177 103.47 139.1L103.468 139.099L103.466 139.099C103.12 139.059 102.806 138.802 102.792 138.377L102.792 138.375L102.792 138.373C102.769 137.289 103.3 136.449 104.036 135.874C104.766 135.304 105.709 134.982 106.57 134.909L106.571 134.909L106.572 134.909C107.142 134.863 107.702 134.885 108.252 134.955C107.659 134.371 107.095 133.767 106.589 133.141C106.459 132.982 106.394 132.769 106.405 132.568C106.417 132.359 106.519 132.118 106.775 131.998C107.671 131.572 108.499 131.608 109.26 131.909ZM107.054 132.58C107.053 132.585 107.051 132.592 107.05 132.604C107.049 132.624 107.052 132.649 107.06 132.675C107.068 132.7 107.08 132.719 107.089 132.731L107.09 132.732L107.091 132.733C107.789 133.597 108.609 134.426 109.475 135.228L110.368 136.054L109.183 135.78C108.333 135.583 107.487 135.484 106.624 135.553C105.87 135.617 105.051 135.901 104.434 136.384C103.823 136.861 103.421 137.519 103.438 138.357C103.44 138.399 103.453 138.417 103.462 138.425C103.473 138.437 103.497 138.452 103.538 138.457C104.27 138.532 105.005 138.564 105.75 138.597L105.753 138.597C106.494 138.629 107.247 138.662 107.996 138.739L109.624 138.908L108.054 139.371C108.014 139.383 107.974 139.395 107.933 139.406C106.804 139.739 105.622 140.087 104.709 140.661C103.785 141.243 103.169 142.035 103.18 143.276L103.18 143.277V143.279C103.18 143.283 103.181 143.295 103.188 143.312C103.195 143.329 103.204 143.344 103.215 143.357C103.219 143.362 103.223 143.365 103.226 143.368C104.185 143.264 105.046 142.891 105.942 142.502C106.097 142.435 106.253 142.368 106.411 142.301C107.465 141.855 108.584 141.457 109.858 141.667L110.846 141.83L109.949 142.275C107.64 143.422 105.742 145.359 106.014 148.16L106.014 148.161L106.015 148.163C106.018 148.206 106.03 148.231 106.039 148.244C106.047 148.257 106.055 148.261 106.06 148.264C106.065 148.266 106.073 148.268 106.086 148.266C106.098 148.263 106.12 148.256 106.148 148.234C107.837 146.795 109.885 145.408 112.312 145.919C112.533 145.966 112.763 146.021 112.993 146.076C113.02 146.082 113.047 146.089 113.075 146.096C113.333 146.157 113.592 146.218 113.851 146.269C114.37 146.371 114.865 146.426 115.315 146.368L115.315 146.368L115.316 146.367C116.73 146.192 117.883 145.561 118.567 144.23L118.568 144.229L118.568 144.228C119.193 143.031 119.377 141.739 119.08 140.693C118.788 139.667 118.028 138.847 116.679 138.561L116.677 138.561L116.676 138.56C116.675 138.56 116.675 138.56 116.675 138.56C116.673 138.561 116.67 138.562 116.665 138.564L116.549 138.607L116.433 138.562C115.324 138.123 114.29 137.559 113.373 136.565L113.373 136.565L113.372 136.564C113.075 136.238 112.792 135.909 112.511 135.583C111.974 134.959 111.447 134.346 110.854 133.795L110.853 133.795C110.249 133.231 109.65 132.757 109.023 132.51C108.414 132.269 107.773 132.24 107.054 132.58Z" fill="#2C2C2C"/>
<path fill-rule="evenodd" clip-rule="evenodd" d="M195.039 151.342C195.039 151.181 195.17 151.05 195.331 151.05H204.972C205.134 151.05 205.265 151.181 205.265 151.342C205.265 151.504 205.134 151.635 204.972 151.635H195.331C195.17 151.635 195.039 151.504 195.039 151.342Z" fill="#2C2C2C"/>
<path fill-rule="evenodd" clip-rule="evenodd" d="M13.2402 151.342C13.2402 151.181 13.3712 151.05 13.5328 151.05H192.117C192.279 151.05 192.41 151.181 192.41 151.342C192.41 151.504 192.279 151.635 192.117 151.635H13.5328C13.3712 151.635 13.2402 151.504 13.2402 151.342Z" fill="#2C2C2C"/>
<path fill-rule="evenodd" clip-rule="evenodd" d="M0.68457 151.342C0.68457 151.181 0.81556 151.05 0.977144 151.05H7.56502C7.72661 151.05 7.8576 151.181 7.8576 151.342C7.8576 151.504 7.72661 151.635 7.56502 151.635H0.977144C0.81556 151.635 0.68457 151.504 0.68457 151.342Z" fill="#2C2C2C"/>
<path d="M58.5083 119.739H128.4C129.236 119.739 130.038 120.071 130.63 120.663C131.221 121.254 131.553 122.056 131.553 122.892V162.157H55.3555V122.892C55.3555 122.056 55.6876 121.254 56.2789 120.663C56.8702 120.071 57.6721 119.739 58.5083 119.739Z" fill="white"/>
<path fill-rule="evenodd" clip-rule="evenodd" d="M58.5083 120.142C57.7787 120.142 57.079 120.431 56.5631 120.947C56.0472 121.463 55.7573 122.163 55.7573 122.893V161.756H131.151V122.893C131.151 122.163 130.861 121.463 130.346 120.947C129.83 120.431 129.13 120.142 128.4 120.142H58.5083ZM55.9948 120.379C56.6614 119.712 57.5655 119.338 58.5083 119.338H128.4C129.343 119.338 130.247 119.712 130.914 120.379C131.58 121.046 131.955 121.95 131.955 122.893V162.158C131.955 162.38 131.775 162.56 131.553 162.56H55.3555C55.1335 162.56 54.9536 162.38 54.9536 162.158V122.893C54.9536 121.95 55.3281 121.046 55.9948 120.379Z" fill="#2C2C2C"/>
<path d="M131.553 133.852C121.981 136.279 112.157 142.459 93.8515 151.161C76.1957 159.56 61.7431 159.415 55.3555 158.765V162.158H131.553V133.852Z" fill="#2C2C2C"/>
<path fill-rule="evenodd" clip-rule="evenodd" d="M131.8 133.535C131.898 133.611 131.955 133.728 131.955 133.852V162.158C131.955 162.38 131.775 162.56 131.553 162.56H55.3555C55.1335 162.56 54.9536 162.38 54.9536 162.158V158.766C54.9536 158.652 55.0017 158.544 55.0861 158.468C55.1704 158.391 55.2831 158.354 55.3961 158.366C61.729 159.01 76.1043 159.159 93.6789 150.798L93.679 150.798C99.7081 147.932 104.809 145.343 109.291 143.069C111.612 141.891 113.767 140.798 115.799 139.794C121.743 136.856 126.624 134.688 131.454 133.463C131.574 133.432 131.702 133.459 131.8 133.535ZM94.0241 151.524C76.6821 159.774 62.4061 159.823 55.7573 159.208V161.756H131.151V134.372C126.57 135.595 121.884 137.683 116.155 140.514C114.137 141.511 111.989 142.602 109.671 143.778C105.183 146.055 100.061 148.654 94.0241 151.524Z" fill="#2C2C2C"/>
<path d="M131.553 159.806H55.3555V162.164H131.553V159.806Z" fill="white"/>
<path fill-rule="evenodd" clip-rule="evenodd" d="M54.9536 159.807C54.9536 159.585 55.1335 159.405 55.3555 159.405H131.553C131.775 159.405 131.955 159.585 131.955 159.807V162.165C131.955 162.387 131.775 162.567 131.553 162.567H55.3555C55.1335 162.567 54.9536 162.387 54.9536 162.165V159.807ZM55.7573 160.209V161.764H131.151V160.209H55.7573Z" fill="#2C2C2C"/>
<path d="M101.944 72.526C101.944 74.2329 100.171 75.6165 97.9841 75.6165C95.7972 75.6165 94.0244 74.2329 94.0244 72.526C94.0244 70.8192 95.7972 69.4355 97.9841 69.4355C100.171 69.4355 101.944 70.8192 101.944 72.526Z" fill="white"/>
<path fill-rule="evenodd" clip-rule="evenodd" d="M97.9841 74.8439C99.9335 74.8439 101.171 73.6389 101.171 72.526C101.171 71.4132 99.9335 70.2082 97.9841 70.2082C96.0347 70.2082 94.797 71.4132 94.797 72.526C94.797 73.6389 96.0347 74.8439 97.9841 74.8439ZM97.9841 75.6165C100.171 75.6165 101.944 74.2329 101.944 72.526C101.944 70.8192 100.171 69.4355 97.9841 69.4355C95.7972 69.4355 94.0244 70.8192 94.0244 72.526C94.0244 74.2329 95.7972 75.6165 97.9841 75.6165Z" fill="#454545"/>
</svg>
