<svg width="224" height="164" viewBox="0 0 224 164" fill="none" xmlns="http://www.w3.org/2000/svg">
<path d="M171.712 47.7854C171.712 47.7854 165.296 22.9346 126.45 7.26236C87.6046 -8.40987 52.8516 6.1054 44.9288 24.4699C37.006 42.8343 45.3092 52.7511 40.0222 68.4344C34.7353 84.1177 7.57422 103.981 18.536 128.068C29.4978 152.154 80.7924 159.034 122.3 154.064C163.809 149.095 196.238 94.0418 171.712 47.7854Z" fill="#50BFD7"/>
<path opacity="0.7" d="M171.712 47.7854C171.712 47.7854 165.296 22.9346 126.45 7.26236C87.6046 -8.40987 52.8516 6.1054 44.9288 24.4699C37.006 42.8343 45.3092 52.7511 40.0222 68.4344C34.7353 84.1177 7.57422 103.981 18.536 128.068C29.4978 152.154 80.7924 159.034 122.3 154.064C163.809 149.095 196.238 94.0418 171.712 47.7854Z" fill="white"/>
<path d="M223.824 112.607C223.824 111.9 223.79 72.9984 223.739 12.9771L223.824 13.0505H105.319L105.42 12.95C105.42 49.0548 105.42 83.1082 105.42 112.58L105.327 112.491L223.844 112.58L105.327 112.669H105.227V112.58C105.227 83.1082 105.227 49.0548 105.227 12.95V12.8496H105.339H223.844H223.929V12.9346C223.875 72.9984 223.824 111.9 223.824 112.607Z" fill="#FAFAFA"/>
<path d="M223.839 12.9775H105.322V112.607H223.839V12.9775Z" fill="#FAFAFA"/>
<path d="M148.112 19.8574H105.556V29.6118H148.112V19.8574Z" fill="#EBEBEB"/>
<path d="M116.287 27.7316C116.287 27.7316 116.287 27.6041 116.287 27.3723C116.287 27.1405 116.287 26.7967 116.287 26.3911C116.287 25.5258 116.264 24.3282 116.244 22.8834L116.325 22.9645H109.267L109.368 22.8641V25.379C109.368 26.1902 109.368 26.9667 109.368 27.6968L109.275 27.6041L114.34 27.6505L115.8 27.6775H116.186H116.329C116.164 27.6959 115.997 27.7036 115.831 27.7007L114.39 27.7239L109.267 27.7702H109.179V27.7316C109.179 26.9937 109.179 26.2173 109.179 25.4137V24.1698C109.179 23.9612 109.179 23.7487 109.179 23.5363V22.8757C109.09 22.9645 109.302 22.752 109.283 22.7752H116.341H116.422V22.8563C116.422 24.3243 116.391 25.5373 116.379 26.4143C116.379 26.8006 116.379 27.1328 116.379 27.3801C116.36 27.4999 116.329 27.6177 116.287 27.7316V27.7316Z" fill="#263238"/>
<path d="M116.287 22.8662C116.287 22.8662 116.206 22.9782 116.036 23.152C115.866 23.3259 115.615 23.5693 115.302 23.8706C114.676 24.4732 113.799 25.2961 112.826 26.1885C112.551 26.1885 112.748 26.1885 112.686 26.1885H112.663L112.617 26.146L112.528 26.061L112.346 25.8949L111.999 25.5704L111.338 24.9561L110.214 23.8667C109.901 23.5654 109.65 23.322 109.476 23.1482C109.38 23.0645 109.296 22.9684 109.225 22.8623C109.225 22.8623 109.345 22.9318 109.53 23.0902C109.716 23.2486 109.982 23.4765 110.303 23.7624L111.439 24.7823L112.103 25.3888L112.455 25.7094L112.636 25.8755L112.725 25.9605L112.771 25.9992L112.795 26.0223H112.671C113.645 25.1261 114.533 24.3187 115.186 23.7431C115.51 23.4572 115.777 23.2254 115.959 23.0709C116.058 22.9872 116.168 22.9183 116.287 22.8662V22.8662Z" fill="#263238"/>
<path d="M111.577 25.0264C111.263 25.5388 110.892 26.0143 110.472 26.4441C110.104 26.919 109.683 27.3506 109.217 27.7306C109.532 27.2198 109.902 26.7456 110.322 26.3166C110.691 25.8412 111.112 25.4084 111.577 25.0264V25.0264Z" fill="#263238"/>
<path d="M116.332 27.7729C115.877 27.3672 115.467 26.9125 115.112 26.417C114.703 25.9615 114.346 25.4628 114.045 24.9297C114.502 25.3362 114.911 25.7923 115.266 26.2895C115.675 26.7433 116.033 27.2408 116.332 27.7729V27.7729Z" fill="#263238"/>
<path d="M143.223 24.5633C143.223 24.6213 138.24 24.6638 132.098 24.6638C125.955 24.6638 120.976 24.6213 120.976 24.5633C120.976 24.5054 125.955 24.4629 132.098 24.4629C138.24 24.4629 143.223 24.5092 143.223 24.5633Z" fill="#263238"/>
<path d="M223.84 63.1855H147.571V79.8974H223.84V63.1855Z" fill="#50BFD7"/>
<g opacity="0.8">
<path opacity="0.8" d="M223.839 63.1865H147.57V79.8984H223.839V63.1865Z" fill="white"/>
</g>
<path d="M157.869 68.4092H153.346C152.866 68.4092 152.477 68.7983 152.477 69.2784V73.8021C152.477 74.2821 152.866 74.6713 153.346 74.6713H157.869C158.35 74.6713 158.739 74.2821 158.739 73.8021V69.2784C158.739 68.7983 158.35 68.4092 157.869 68.4092Z" fill="#50BFD7"/>
<path d="M155.134 72.9279C155.05 72.9279 154.969 72.9008 154.902 72.8507L153.639 71.9004C153.593 71.872 153.554 71.8345 153.524 71.7902C153.494 71.7458 153.473 71.6957 153.463 71.643C153.453 71.5902 153.455 71.536 153.467 71.4838C153.479 71.4316 153.502 71.3825 153.535 71.3397C153.567 71.2969 153.608 71.2613 153.655 71.2352C153.701 71.209 153.753 71.1929 153.807 71.1879C153.86 71.1828 153.914 71.1889 153.965 71.2059C154.016 71.2228 154.062 71.2501 154.102 71.2861L155.087 72.024L157.065 69.8761C157.135 69.8008 157.232 69.7562 157.334 69.7522C157.437 69.7483 157.537 69.7852 157.612 69.8548C157.687 69.9245 157.732 70.0212 157.736 70.1237C157.74 70.2263 157.703 70.3262 157.633 70.4015L155.42 72.8043C155.383 72.8436 155.339 72.8749 155.29 72.8962C155.24 72.9175 155.187 72.9283 155.134 72.9279Z" fill="white"/>
<path d="M223.84 46.3887H147.571V63.1005H223.84V46.3887Z" fill="#50BFD7"/>
<path d="M223.38 63.1629C223.38 63.2209 206.529 63.2634 185.745 63.2634C164.962 63.2634 148.111 63.2209 148.111 63.1629C148.111 63.105 164.958 63.0625 185.745 63.0625C206.533 63.0625 223.38 63.1089 223.38 63.1629Z" fill="#263238"/>
<path d="M223.882 96.5947H147.613V112.607H223.882V96.5947Z" fill="#50BFD7"/>
<g opacity="0.8">
<path opacity="0.8" d="M223.882 96.5947H147.613V112.607H223.882V96.5947Z" fill="white"/>
</g>
<path d="M157.908 101.821H153.384C152.904 101.821 152.515 102.21 152.515 102.69V107.214C152.515 107.694 152.904 108.083 153.384 108.083H157.908C158.388 108.083 158.777 107.694 158.777 107.214V102.69C158.777 102.21 158.388 101.821 157.908 101.821Z" fill="#50BFD7"/>
<path d="M155.173 106.344C155.089 106.344 155.008 106.317 154.941 106.267L153.677 105.317C153.596 105.255 153.541 105.164 153.527 105.062C153.512 104.961 153.539 104.858 153.6 104.776C153.662 104.694 153.753 104.64 153.855 104.625C153.956 104.611 154.059 104.637 154.141 104.698L155.126 105.44L157.104 103.292C157.137 103.251 157.178 103.217 157.225 103.193C157.272 103.168 157.323 103.153 157.376 103.15C157.429 103.146 157.482 103.152 157.532 103.17C157.581 103.187 157.627 103.214 157.666 103.25C157.705 103.286 157.736 103.329 157.758 103.378C157.779 103.426 157.791 103.478 157.791 103.531C157.792 103.584 157.781 103.636 157.761 103.685C157.74 103.733 157.71 103.777 157.672 103.814L155.447 106.221C155.412 106.258 155.369 106.289 155.322 106.31C155.275 106.331 155.224 106.343 155.173 106.344V106.344Z" fill="white"/>
<g opacity="0.8">
<path opacity="0.8" d="M223.839 46.3896H147.57V63.1015H223.839V46.3896Z" fill="white"/>
</g>
<path d="M157.869 51.6133H153.346C152.866 51.6133 152.477 52.0024 152.477 52.4825V57.0062C152.477 57.4862 152.866 57.8754 153.346 57.8754H157.869C158.35 57.8754 158.739 57.4862 158.739 57.0062V52.4825C158.739 52.0024 158.35 51.6133 157.869 51.6133Z" fill="#50BFD7"/>
<path d="M155.134 56.1353C155.05 56.1353 154.969 56.1082 154.902 56.058L153.639 55.1077C153.593 55.0793 153.554 55.0418 153.524 54.9975C153.494 54.9532 153.473 54.903 153.463 54.8503C153.453 54.7976 153.455 54.7434 153.467 54.6912C153.479 54.639 153.502 54.5899 153.535 54.5471C153.567 54.5042 153.608 54.4686 153.655 54.4425C153.701 54.4163 153.753 54.4002 153.807 54.3952C153.86 54.3901 153.914 54.3963 153.965 54.4132C154.016 54.4301 154.062 54.4574 154.102 54.4934L155.087 55.2313L157.065 53.0834C157.134 53.0083 157.231 52.9637 157.333 52.9593C157.435 52.955 157.534 52.9913 157.61 53.0602C157.648 53.0946 157.678 53.1361 157.7 53.1823C157.721 53.2286 157.734 53.2787 157.736 53.3297C157.738 53.3807 157.73 53.4316 157.712 53.4795C157.695 53.5274 157.668 53.5714 157.633 53.6088L155.42 56.0116C155.383 56.051 155.339 56.0823 155.29 56.1035C155.24 56.1248 155.187 56.1356 155.134 56.1353V56.1353Z" fill="white"/>
<path d="M223.824 112.607C223.824 111.9 223.79 72.9984 223.739 12.9771L223.824 13.0505H105.319L105.42 12.95C105.42 49.0548 105.42 83.1082 105.42 112.58L105.327 112.491L223.844 112.58L105.327 112.669H105.227V112.58C105.227 83.1082 105.227 49.0548 105.227 12.95V12.8496H105.339H223.844H223.929V12.9346C223.875 72.9984 223.824 111.9 223.824 112.607Z" fill="#50BFD7"/>
<path d="M105.556 19.8573C105.556 19.7993 131.983 19.7568 164.58 19.7568C197.177 19.7568 223.613 19.7993 223.613 19.8573C223.613 19.9152 197.189 19.9577 164.58 19.9577C131.972 19.9577 105.556 19.9114 105.556 19.8573Z" fill="#50BFD7"/>
<path d="M109.163 17.5557C109.863 17.5557 110.43 16.9884 110.43 16.2886C110.43 15.5888 109.863 15.0215 109.163 15.0215C108.463 15.0215 107.896 15.5888 107.896 16.2886C107.896 16.9884 108.463 17.5557 109.163 17.5557Z" fill="#50BFD7"/>
<path d="M112.686 17.5557C113.386 17.5557 113.953 16.9884 113.953 16.2886C113.953 15.5888 113.386 15.0215 112.686 15.0215C111.986 15.0215 111.419 15.5888 111.419 16.2886C111.419 16.9884 111.986 17.5557 112.686 17.5557Z" fill="#50BFD7"/>
<path d="M117.492 15.3919C117.669 15.5691 117.79 15.7949 117.839 16.0407C117.887 16.2865 117.862 16.5412 117.766 16.7727C117.67 17.0042 117.508 17.202 117.3 17.3412C117.091 17.4804 116.846 17.5547 116.596 17.5547C116.345 17.5547 116.1 17.4804 115.892 17.3412C115.683 17.202 115.521 17.0042 115.425 16.7727C115.329 16.5412 115.304 16.2865 115.353 16.0407C115.402 15.7949 115.522 15.5691 115.699 15.3919C115.817 15.2742 115.957 15.1808 116.111 15.117C116.264 15.0533 116.429 15.0205 116.596 15.0205C116.762 15.0205 116.927 15.0533 117.081 15.117C117.235 15.1808 117.374 15.2742 117.492 15.3919V15.3919Z" fill="#50BFD7"/>
<path d="M121.065 33.5247C121.157 33.5135 121.249 33.5135 121.34 33.5247L122.143 33.5015L125.087 33.4629H125.126L125.149 33.4938L126.447 35.2013L126.466 35.2283V35.2592C126.466 36.0319 126.466 36.8895 126.466 37.778V37.8784H125.184H119.883H119.798V37.7741C119.798 36.9011 119.798 36.1246 119.822 35.4563L120.725 34.0385C120.827 33.8596 120.94 33.6879 121.065 33.5247C121.049 33.5764 121.025 33.6258 120.996 33.6715L120.776 34.0578L119.941 35.4833V35.4485C119.941 36.1053 119.941 36.8818 119.961 37.7664L119.876 37.6814H125.176H126.362L126.261 37.7819C126.261 36.8933 126.261 36.0435 126.261 35.2631L126.281 35.3172L125.006 33.5981L125.071 33.629L122.159 33.5904H121.347C121.252 33.577 121.157 33.555 121.065 33.5247V33.5247Z" fill="#263238"/>
<path d="M126.376 35.3709C126.194 35.4201 126.006 35.4461 125.816 35.4482C125.461 35.4791 124.951 35.5139 124.344 35.5525L124.426 35.4675C124.411 35.7904 124.305 36.1024 124.12 36.3676C124.02 36.5133 123.888 36.6347 123.734 36.723C123.564 36.8016 123.38 36.8449 123.193 36.8505C122.994 36.8588 122.796 36.8228 122.612 36.7454C122.428 36.6679 122.264 36.5508 122.131 36.4024C121.909 36.1372 121.76 35.8191 121.698 35.4791L121.783 35.5486C121.219 35.5486 120.748 35.5293 120.42 35.5139C120.246 35.5173 120.074 35.4978 119.906 35.4559C120.074 35.4195 120.247 35.4039 120.42 35.4096C120.748 35.4096 121.219 35.3825 121.783 35.3709H121.837V35.4443C121.903 35.7466 122.042 36.0279 122.243 36.2633C122.357 36.3911 122.498 36.492 122.655 36.5587C122.813 36.6255 122.984 36.6566 123.155 36.6496C123.312 36.649 123.468 36.6134 123.61 36.5453C123.744 36.4761 123.861 36.3769 123.95 36.2556C124.114 36.0217 124.213 35.7484 124.236 35.4637V35.3825H124.31C124.92 35.3632 125.43 35.3516 125.789 35.3478C125.985 35.3305 126.183 35.3383 126.376 35.3709V35.3709Z" fill="#263238"/>
<path d="M140.899 33.7381C141.007 33.7138 141.117 33.7034 141.227 33.7072V33.769C140.455 33.8077 138.063 33.8386 135.259 33.8386C133.52 33.8386 131.944 33.8386 130.805 33.8077L129.456 33.7768C129.291 33.7823 129.125 33.7694 128.962 33.7381C129.125 33.7069 129.291 33.6939 129.456 33.6995L130.805 33.6686C131.944 33.6493 133.509 33.6377 135.259 33.6377C138.063 33.6377 140.439 33.6686 141.227 33.7072V33.769C141.117 33.7754 141.006 33.765 140.899 33.7381V33.7381Z" fill="#263238"/>
<path d="M140.899 36.2684C141.006 36.2416 141.117 36.2311 141.227 36.2375V36.2993C140.455 36.3379 138.063 36.3689 135.259 36.3689C133.52 36.3689 131.944 36.3689 130.805 36.3379L129.456 36.307C129.291 36.3101 129.125 36.2972 128.962 36.2684C129.125 36.2368 129.291 36.2226 129.456 36.2259L130.805 36.195C131.944 36.195 133.509 36.168 135.259 36.168C138.063 36.168 140.439 36.195 141.227 36.2375V36.2993C141.117 36.3006 141.007 36.2902 140.899 36.2684V36.2684Z" fill="#263238"/>
<path d="M140.899 38.7938C141.007 38.7695 141.117 38.7591 141.227 38.7629V38.8247C140.455 38.8672 138.063 38.8942 135.259 38.8942C133.52 38.8942 131.944 38.8942 130.805 38.8672L129.456 38.8324C129.291 38.838 129.125 38.825 128.962 38.7938C129.125 38.765 129.291 38.7521 129.456 38.7552L130.805 38.7243C131.944 38.7049 133.509 38.6934 135.259 38.6934C138.063 38.6934 140.439 38.7243 141.227 38.7629V38.8247C141.117 38.8311 141.006 38.8206 140.899 38.7938V38.7938Z" fill="#263238"/>
<path d="M121.065 51.6319C121.156 51.6138 121.248 51.606 121.34 51.6087L122.143 51.5894L125.087 51.5508H125.126L125.149 51.5817L126.447 53.2892L126.466 53.3162V53.3471C126.466 54.1198 126.466 54.9774 126.466 55.8659V55.9663H125.184H119.883H119.798V55.8813C119.798 55.0083 119.798 54.2318 119.822 53.5635V53.5442L120.725 52.1264C120.824 51.9597 120.934 51.7997 121.054 51.6474C121.037 51.6991 121.014 51.7484 120.984 51.7942L120.764 52.1805L119.945 53.6137V53.5789C119.945 54.2356 119.945 55.0121 119.964 55.8968L119.879 55.8118H125.18H126.366L126.265 55.9122C126.265 55.0237 126.265 54.1738 126.265 53.3935L126.285 53.4476L125.01 51.7285L125.075 51.7594L122.163 51.7208H121.351C121.253 51.7 121.158 51.6703 121.065 51.6319V51.6319Z" fill="#263238"/>
<path d="M126.376 53.4667C126.194 53.5158 126.006 53.5418 125.816 53.5439C125.461 53.5748 124.951 53.6096 124.344 53.6482L124.426 53.5632C124.411 53.8861 124.305 54.1981 124.12 54.4633C124.02 54.609 123.888 54.7304 123.734 54.8187C123.564 54.8973 123.38 54.9407 123.193 54.9462C122.994 54.9545 122.796 54.9186 122.612 54.8411C122.428 54.7636 122.264 54.6465 122.131 54.4981C121.909 54.2329 121.76 53.9148 121.698 53.5748L121.783 53.6444C121.219 53.6444 120.748 53.625 120.42 53.6096C120.247 53.6155 120.074 53.5986 119.906 53.5594C120.074 53.5225 120.247 53.5057 120.42 53.5092L121.783 53.4744H121.837V53.5478C121.903 53.85 122.042 54.1313 122.243 54.3668C122.357 54.4945 122.498 54.5954 122.655 54.6622C122.813 54.729 122.984 54.76 123.155 54.7531C123.312 54.7525 123.468 54.7168 123.61 54.6488C123.744 54.5795 123.861 54.4804 123.95 54.359C124.114 54.1252 124.213 53.8518 124.236 53.5671V53.486H124.31C124.92 53.486 125.43 53.4551 125.789 53.4512C125.985 53.4314 126.182 53.4366 126.376 53.4667V53.4667Z" fill="#263238"/>
<path d="M140.899 51.8319C141.007 51.8076 141.117 51.7972 141.227 51.801V51.8628C140.455 51.9014 138.063 51.9323 135.259 51.9323C133.52 51.9323 131.944 51.9323 130.805 51.9014L129.456 51.8705C129.291 51.8761 129.125 51.8631 128.962 51.8319C129.125 51.8007 129.291 51.7877 129.456 51.7933L130.805 51.7624C131.944 51.743 133.509 51.7314 135.259 51.7314C138.063 51.7314 140.439 51.7623 141.227 51.801V51.8628C141.117 51.8666 141.007 51.8562 140.899 51.8319V51.8319Z" fill="#263238"/>
<path d="M140.899 54.363C141.006 54.3362 141.117 54.3258 141.227 54.3321V54.3862C140.455 54.4249 138.063 54.4558 135.259 54.4558C133.52 54.4558 131.944 54.4558 130.805 54.4249L129.456 54.394C129.291 54.397 129.125 54.3841 128.962 54.3553C129.125 54.3237 129.291 54.3095 129.456 54.3128L130.805 54.2819C131.944 54.2626 133.509 54.2549 135.259 54.2549C138.063 54.2549 140.439 54.2819 141.227 54.3244V54.3862C141.117 54.39 141.007 54.3822 140.899 54.363V54.363Z" fill="#263238"/>
<path d="M140.899 56.8895C141.007 56.8652 141.117 56.8548 141.227 56.8586V56.9204C140.455 56.9629 138.063 56.9899 135.259 56.9899C133.52 56.9899 131.944 56.9899 130.805 56.9629L129.456 56.9281C129.291 56.9337 129.125 56.9207 128.962 56.8895C129.125 56.8607 129.291 56.8478 129.456 56.8509L130.805 56.82C131.944 56.8007 133.509 56.7891 135.259 56.7891C138.063 56.7891 140.439 56.82 141.227 56.8586V56.9204C141.117 56.9268 141.006 56.9163 140.899 56.8895V56.8895Z" fill="#263238"/>
<path d="M121.065 69.7276C121.156 69.7095 121.248 69.7017 121.34 69.7044L122.143 69.6851L125.087 69.6465H125.126L125.149 69.6774L126.447 71.3849L126.466 71.4119V71.4428C126.466 72.2155 126.466 73.0731 126.466 73.9616V74.062H125.184H119.883H119.798V73.977C119.798 73.104 119.798 72.3275 119.822 71.6592L120.725 70.2414C120.824 70.0747 120.934 69.9147 121.054 69.7624C121.037 69.8141 121.014 69.8634 120.984 69.9092L120.764 70.2955L119.93 71.721V71.6862C119.93 72.3429 119.93 73.1194 119.949 74.0041L119.864 73.9191H125.164H126.35L126.25 74.0195C126.25 73.131 126.25 72.2811 126.25 71.5008L126.269 71.5549L124.994 69.8358L125.06 69.8667L122.147 69.8281H121.336C121.243 69.8027 121.152 69.7691 121.065 69.7276V69.7276Z" fill="#263238"/>
<path d="M126.376 71.5614C126.194 71.6106 126.006 71.6365 125.816 71.6386C125.461 71.6696 124.951 71.7043 124.344 71.7429L124.426 71.658C124.411 71.9808 124.305 72.2929 124.12 72.5581C124.02 72.7037 123.888 72.8251 123.734 72.9135C123.565 72.9926 123.38 73.0347 123.193 73.0371C122.994 73.0469 122.796 73.0121 122.612 72.9352C122.428 72.8584 122.264 72.7414 122.131 72.5928C121.909 72.3276 121.76 72.0095 121.698 71.6696L121.783 71.7391C121.219 71.7391 120.748 71.7391 120.42 71.7043C120.247 71.7102 120.074 71.6933 119.906 71.6541C120.074 71.6173 120.247 71.6004 120.42 71.6039L121.783 71.5691H121.837V71.6425C121.903 71.9447 122.042 72.2261 122.243 72.4615C122.357 72.5892 122.498 72.6901 122.655 72.7569C122.813 72.8237 122.984 72.8547 123.155 72.8478C123.312 72.8472 123.468 72.8116 123.61 72.7435C123.744 72.6742 123.861 72.5751 123.95 72.4538C124.114 72.2199 124.213 71.9465 124.236 71.6618V71.5807H124.31C124.92 71.5575 125.43 71.5498 125.789 71.5459C125.985 71.5262 126.182 71.5314 126.376 71.5614V71.5614Z" fill="#263238"/>
<path d="M140.899 69.9266C141.007 69.9023 141.117 69.8919 141.227 69.8957V69.9575C140.455 69.9961 138.063 70.0271 135.259 70.0271C133.52 70.0271 131.944 70.0271 130.805 69.9962L129.456 69.9652C129.291 69.9708 129.125 69.9578 128.962 69.9266C129.125 69.8954 129.291 69.8824 129.456 69.888L130.805 69.8571C131.944 69.8378 133.509 69.8262 135.259 69.8262C138.063 69.8262 140.439 69.8571 141.227 69.8957V69.9575C141.117 69.9613 141.007 69.9509 140.899 69.9266Z" fill="#263238"/>
<path d="M140.899 72.4579C141.006 72.431 141.117 72.4206 141.227 72.427V72.4888C140.455 72.5274 138.063 72.5583 135.259 72.5583C133.52 72.5583 131.944 72.5583 130.805 72.5274L129.456 72.4965C129.291 72.4996 129.125 72.4866 128.962 72.4579C129.125 72.4262 129.291 72.412 129.456 72.4154L130.805 72.3845C131.944 72.3651 133.509 72.3574 135.259 72.3574C138.063 72.3574 140.439 72.3845 141.227 72.427V72.4888C141.117 72.49 141.007 72.4796 140.899 72.4579V72.4579Z" fill="#263238"/>
<path d="M140.899 74.9842C141.007 74.9599 141.117 74.9495 141.227 74.9533V75.0151C140.455 75.0576 138.063 75.0847 135.259 75.0847C133.52 75.0847 131.944 75.0847 130.805 75.0576L129.456 75.0229C129.291 75.0284 129.125 75.0155 128.962 74.9842C129.125 74.9555 129.291 74.9425 129.456 74.9456L130.805 74.9147C131.944 74.9147 133.509 74.8838 135.259 74.8838C138.063 74.8838 140.439 74.9147 141.227 74.9533V75.0151C141.117 75.0215 141.006 75.0111 140.899 74.9842V74.9842Z" fill="#263238"/>
<path d="M217.689 58.0749H214.745C214.591 58.0774 214.439 58.0493 214.296 57.9922C214.153 57.9352 214.023 57.8502 213.913 57.7423C213.803 57.6344 213.716 57.5058 213.657 57.3639C213.597 57.2221 213.567 57.0698 213.567 56.9159V52.0098H213.953V56.9005C213.953 57.0036 213.974 57.1057 214.014 57.2007C214.054 57.2957 214.112 57.3817 214.186 57.4537C214.26 57.5257 214.348 57.5823 214.444 57.6199C214.54 57.6576 214.642 57.6757 214.745 57.6731H217.689C217.894 57.6731 218.09 57.5917 218.235 57.4468C218.38 57.3019 218.461 57.1054 218.461 56.9005V52.1797H218.848V56.9005C218.85 57.054 218.821 57.2063 218.764 57.3487C218.707 57.4911 218.622 57.6207 218.514 57.73C218.406 57.8392 218.278 57.926 218.136 57.9852C217.994 58.0444 217.842 58.0749 217.689 58.0749V58.0749Z" fill="#50BFD7"/>
<path d="M219.351 52.0381H213.085V52.4244H219.351V52.0381Z" fill="#50BFD7"/>
<path d="M215.078 52.2307H214.692V51.8019C214.692 51.597 214.773 51.4005 214.918 51.2556C215.063 51.1107 215.26 51.0293 215.465 51.0293H217.01C217.215 51.0293 217.411 51.1107 217.556 51.2556C217.701 51.4005 217.782 51.597 217.782 51.8019V52.1457H217.396V51.8019C217.396 51.6995 217.355 51.6012 217.283 51.5288C217.21 51.4563 217.112 51.4156 217.01 51.4156H215.465C215.362 51.4156 215.264 51.4563 215.191 51.5288C215.119 51.6012 215.078 51.6995 215.078 51.8019V52.2307Z" fill="#50BFD7"/>
<path d="M215.325 56.6309C215.226 56.0831 215.192 55.5255 215.224 54.9698C215.192 54.4153 215.226 53.859 215.325 53.3125C215.426 53.8587 215.46 54.4153 215.425 54.9698C215.46 55.5255 215.426 56.0834 215.325 56.6309V56.6309Z" fill="#50BFD7"/>
<path d="M216.233 56.6309C216.134 56.0831 216.1 55.5255 216.133 54.9698C216.1 54.4153 216.134 53.859 216.233 53.3125C216.334 53.8587 216.368 54.4153 216.333 54.9698C216.368 55.5255 216.334 56.0834 216.233 56.6309V56.6309Z" fill="#50BFD7"/>
<path d="M217.148 56.6309C217.049 56.0831 217.015 55.5255 217.048 54.9698C217.015 54.4153 217.049 53.859 217.148 53.3125C217.249 53.8587 217.283 54.4153 217.248 54.9698C217.283 55.5255 217.249 56.0834 217.148 56.6309V56.6309Z" fill="#50BFD7"/>
<path d="M217.689 73.9137H214.745C214.433 73.9127 214.134 73.7882 213.913 73.5675C213.692 73.3467 213.568 73.0476 213.567 72.7354V67.8447H213.953V72.7354C213.953 72.9455 214.037 73.1469 214.185 73.2954C214.334 73.4439 214.535 73.5274 214.745 73.5274H217.689C217.896 73.5223 218.092 73.4367 218.236 73.2887C218.381 73.1407 218.462 72.9422 218.461 72.7354V68.0147H218.848V72.7354C218.85 72.8892 218.822 73.042 218.765 73.1849C218.708 73.3277 218.623 73.4578 218.515 73.5674C218.407 73.6771 218.279 73.7642 218.137 73.8237C217.995 73.8831 217.843 73.9137 217.689 73.9137Z" fill="#50BFD7"/>
<path d="M219.351 67.8721H213.085V68.2584H219.351V67.8721Z" fill="#50BFD7"/>
<path d="M215.078 68.0657H214.692V67.6369C214.692 67.432 214.773 67.2354 214.918 67.0906C215.063 66.9457 215.26 66.8643 215.465 66.8643H217.01C217.215 66.8643 217.411 66.9457 217.556 67.0906C217.701 67.2354 217.782 67.432 217.782 67.6369V67.9807H217.396V67.6369C217.396 67.5344 217.355 67.4362 217.283 67.3637C217.21 67.2913 217.112 67.2506 217.01 67.2506H215.465C215.362 67.2506 215.264 67.2913 215.191 67.3637C215.119 67.4362 215.078 67.5344 215.078 67.6369V68.0657Z" fill="#50BFD7"/>
<path d="M215.326 72.4659C215.192 71.3638 215.192 70.2495 215.326 69.1475C215.46 70.2495 215.46 71.3638 215.326 72.4659Z" fill="#50BFD7"/>
<path d="M216.233 72.4659C216.099 71.3638 216.099 70.2495 216.233 69.1475C216.367 70.2495 216.367 71.3638 216.233 72.4659V72.4659Z" fill="#50BFD7"/>
<path d="M217.15 72.4659C217.016 71.3638 217.016 70.2495 217.15 69.1475C217.284 70.2495 217.284 71.3638 217.15 72.4659V72.4659Z" fill="#50BFD7"/>
<path d="M217.689 108.724H214.745C214.591 108.727 214.439 108.699 214.296 108.642C214.153 108.585 214.023 108.5 213.913 108.392C213.803 108.284 213.716 108.155 213.657 108.014C213.597 107.872 213.567 107.719 213.567 107.566V102.675H213.953V107.566C213.953 107.669 213.974 107.771 214.014 107.866C214.054 107.961 214.112 108.047 214.186 108.119C214.26 108.191 214.348 108.247 214.444 108.285C214.54 108.323 214.642 108.341 214.745 108.338H217.689C217.894 108.338 218.09 108.257 218.235 108.112C218.38 107.967 218.461 107.77 218.461 107.566V102.829H218.848V107.55C218.85 107.704 218.821 107.856 218.764 107.998C218.707 108.141 218.622 108.27 218.514 108.38C218.406 108.489 218.278 108.576 218.136 108.635C217.994 108.694 217.842 108.724 217.689 108.724Z" fill="#50BFD7"/>
<path d="M219.351 102.688H213.085V103.074H219.351V102.688Z" fill="#50BFD7"/>
<path d="M215.078 102.88H214.692V102.447C214.692 102.243 214.773 102.046 214.918 101.901C215.063 101.756 215.26 101.675 215.465 101.675H217.01C217.215 101.675 217.411 101.756 217.556 101.901C217.701 102.046 217.782 102.243 217.782 102.447V102.795H217.396V102.447C217.396 102.345 217.355 102.247 217.283 102.174C217.21 102.102 217.112 102.061 217.01 102.061H215.465C215.362 102.061 215.264 102.102 215.191 102.174C215.119 102.247 215.078 102.345 215.078 102.447V102.88Z" fill="#50BFD7"/>
<path d="M215.326 107.28C215.192 106.178 215.192 105.064 215.326 103.962C215.46 105.064 215.46 106.178 215.326 107.28Z" fill="#50BFD7"/>
<path d="M216.233 107.28C216.099 106.178 216.099 105.064 216.233 103.962C216.367 105.064 216.367 106.178 216.233 107.28V107.28Z" fill="#50BFD7"/>
<path d="M217.15 107.28C217.016 106.178 217.016 105.064 217.15 103.962C217.284 105.064 217.284 106.178 217.15 107.28V107.28Z" fill="#50BFD7"/>
<path d="M223.38 29.6122C223.38 29.6662 206.529 29.7126 185.746 29.7126C164.962 29.7126 148.107 29.6624 148.107 29.6122C148.107 29.5619 164.954 29.5117 185.742 29.5117C206.529 29.5117 223.38 29.5581 223.38 29.6122Z" fill="#263238"/>
<path d="M223.38 46.3885C223.38 46.4426 206.529 46.489 185.746 46.489C164.962 46.489 148.107 46.4426 148.107 46.3885C148.107 46.3344 164.954 46.2881 185.742 46.2881C206.529 46.2881 223.38 46.3306 223.38 46.3885Z" fill="#263238"/>
<path d="M223.38 79.5965C223.38 79.6506 206.529 79.697 185.746 79.697C164.962 79.697 148.107 79.6506 148.107 79.5965C148.107 79.5424 164.954 79.4961 185.742 79.4961C206.529 79.4961 223.38 79.5386 223.38 79.5965Z" fill="#263238"/>
<path d="M223.38 96.5956C223.38 96.6535 206.529 96.696 185.745 96.696C164.962 96.696 148.111 96.6535 148.111 96.5956C148.111 96.5376 164.958 96.4951 185.745 96.4951C206.533 96.4951 223.38 96.5415 223.38 96.5956Z" fill="#263238"/>
<path d="M157.873 41.2504C157.873 41.2504 157.958 41.2504 158.105 41.1963C158.317 41.1288 158.495 40.9803 158.599 40.7829C158.75 40.5318 158.672 40.1571 158.684 39.7322C158.696 39.3072 158.684 38.8243 158.684 38.2951C158.684 37.7659 158.684 37.1748 158.684 36.5528C158.684 36.3944 158.684 36.2361 158.684 36.0738C158.697 35.9195 158.684 35.764 158.645 35.6141C158.597 35.4666 158.505 35.3372 158.381 35.2428C158.258 35.1484 158.109 35.0933 157.954 35.0848H153.345C153.166 35.0862 152.993 35.1498 152.856 35.2646C152.718 35.3795 152.625 35.5385 152.592 35.7145C152.565 36.0699 152.592 36.4872 152.592 36.8735C152.592 37.6461 152.592 38.3801 152.592 39.087C152.592 39.4386 152.592 39.7824 152.592 40.1185C152.581 40.2747 152.589 40.4315 152.615 40.5859C152.648 40.7321 152.722 40.866 152.828 40.9722C152.929 41.0691 153.054 41.1383 153.191 41.1731C153.33 41.1968 153.471 41.2045 153.612 41.1963H154.45L156.973 41.2272L157.66 41.2465C157.741 41.2446 157.821 41.2511 157.9 41.2658C157.82 41.2767 157.74 41.2767 157.66 41.2658L156.973 41.2851L154.45 41.3199H153.612C153.458 41.3308 153.304 41.3231 153.152 41.2967C152.983 41.2587 152.828 41.1746 152.704 41.054C152.58 40.9333 152.492 40.7807 152.449 40.613C152.416 40.4451 152.406 40.2736 152.418 40.103C152.418 39.7669 152.418 39.4231 152.418 39.0716C152.418 38.3646 152.418 37.6268 152.418 36.858V36.2786C152.405 36.0766 152.405 35.874 152.418 35.672C152.463 35.4536 152.583 35.2574 152.756 35.1167C152.929 34.9759 153.145 34.8992 153.368 34.8994H157.958C158.148 34.9127 158.33 34.9822 158.481 35.0991C158.631 35.2161 158.744 35.3751 158.804 35.5561C158.848 35.7248 158.864 35.8999 158.85 36.0738C158.85 36.2361 158.85 36.3944 158.85 36.5528C158.85 37.1748 158.85 37.7581 158.85 38.2951C158.85 38.8321 158.85 39.3072 158.85 39.7322C158.85 39.9447 158.85 40.1417 158.85 40.3232C158.855 40.497 158.814 40.669 158.73 40.8216C158.609 41.0282 158.41 41.1781 158.178 41.2388C158.079 41.2708 157.974 41.2749 157.873 41.2504V41.2504Z" fill="#263238"/>
<path d="M157.873 91.3839C157.873 91.3839 157.958 91.3839 158.105 91.3298C158.317 91.2623 158.495 91.1138 158.599 90.9165C158.75 90.6654 158.672 90.2907 158.684 89.8657C158.696 89.4408 158.684 88.9579 158.684 88.4286C158.684 87.8994 158.684 87.3083 158.684 86.6864C158.684 86.528 158.684 86.3696 158.684 86.2073C158.697 86.053 158.684 85.8976 158.645 85.7476C158.597 85.6001 158.505 85.4707 158.381 85.3763C158.258 85.2819 158.109 85.2269 157.954 85.2184H153.345C153.167 85.2196 152.994 85.2826 152.857 85.3967C152.719 85.5108 152.626 85.6689 152.592 85.8442C152.565 86.2035 152.592 86.6168 152.592 87.0031C152.592 87.7758 152.592 88.5098 152.592 89.2167C152.592 89.5683 152.592 89.9121 152.592 90.2443C152.581 90.4018 152.589 90.5599 152.615 90.7156C152.647 90.8623 152.721 90.9965 152.828 91.1019C152.928 91.2007 153.054 91.2702 153.191 91.3028C153.329 91.3297 153.471 91.3388 153.612 91.3298H154.45L156.973 91.3607L157.66 91.3801C157.74 91.3718 157.82 91.3718 157.9 91.3801C157.821 91.3974 157.741 91.4039 157.66 91.3994L156.973 91.4187L154.45 91.4496H153.612C153.458 91.4605 153.304 91.4527 153.152 91.4264C152.983 91.3883 152.828 91.3043 152.704 91.1836C152.58 91.063 152.492 90.9103 152.449 90.7426C152.416 90.5735 152.405 90.4007 152.418 90.2288C152.418 89.8966 152.418 89.5528 152.418 89.2013C152.418 88.4943 152.418 87.7565 152.418 86.9877V86.4082C152.405 86.2063 152.405 86.0037 152.418 85.8017C152.459 85.5797 152.577 85.3791 152.751 85.2345C152.924 85.0899 153.143 85.0104 153.368 85.0098H157.958C158.148 85.023 158.33 85.0926 158.481 85.2095C158.631 85.3264 158.744 85.4855 158.804 85.6665C158.848 85.8352 158.864 86.0102 158.85 86.1842C158.85 86.3464 158.85 86.5048 158.85 86.6632C158.85 87.2851 158.85 87.8685 158.85 88.4055C158.85 88.9424 158.85 89.4176 158.85 89.8425C158.85 90.055 158.85 90.252 158.85 90.4336C158.855 90.6074 158.814 90.7794 158.73 90.9319C158.671 91.0343 158.591 91.1237 158.496 91.1947C158.401 91.2657 158.293 91.3169 158.178 91.3453C158.081 91.3838 157.976 91.3971 157.873 91.3839V91.3839Z" fill="#263238"/>
<path d="M147.551 111.174C147.551 111.174 147.551 111.093 147.551 110.938C147.551 110.784 147.551 110.552 147.551 110.247C147.551 109.629 147.551 108.733 147.551 107.585C147.551 105.267 147.551 101.926 147.551 97.7999C147.551 89.5405 147.652 78.1289 147.768 65.5235C147.883 52.9182 147.972 41.5104 148.046 33.2433C148.073 29.1175 148.092 25.7759 148.108 23.458C148.108 22.2991 148.108 21.4144 148.131 20.8002C148.131 20.4989 148.131 20.2709 148.131 20.1087C148.131 19.9464 148.131 19.873 148.131 19.873C148.131 19.873 148.131 19.9503 148.131 20.1087C148.131 20.2671 148.131 20.495 148.131 20.8002C148.131 21.4144 148.131 22.3107 148.131 23.458C148.131 25.7759 148.131 29.1175 148.131 33.2433C148.111 41.5026 148.03 52.9182 147.911 65.5235C147.791 78.1289 147.706 89.5328 147.636 97.7999C147.609 101.926 147.59 105.267 147.574 107.585C147.574 108.744 147.574 109.629 147.551 110.247C147.551 110.544 147.551 110.772 147.551 110.938C147.551 111.104 147.551 111.174 147.551 111.174Z" fill="#263238"/>
<path d="M190.566 53.119C190.566 53.1731 184.771 53.2194 177.601 53.2194C170.431 53.2194 164.637 53.1731 164.637 53.119C164.637 53.0649 170.431 53.0186 177.601 53.0186C184.771 53.0186 190.566 53.061 190.566 53.119Z" fill="#263238"/>
<path d="M206.772 55.9774C206.772 56.0353 197.338 56.0778 185.706 56.0778C174.074 56.0778 164.637 56.0353 164.637 55.9774C164.637 55.9194 174.07 55.877 185.706 55.877C197.342 55.877 206.772 55.931 206.772 55.9774Z" fill="#263238"/>
<path d="M190.566 86.7713C190.566 86.8254 184.771 86.8718 177.601 86.8718C170.431 86.8718 164.637 86.8254 164.637 86.7713C164.637 86.7172 170.431 86.6709 177.601 86.6709C184.771 86.6709 190.566 86.7134 190.566 86.7713Z" fill="#263238"/>
<path d="M206.772 89.6288C206.772 89.6828 197.338 89.7292 185.706 89.7292C174.074 89.7292 164.637 89.6828 164.637 89.6288C164.637 89.5747 174.07 89.5283 185.706 89.5283C197.342 89.5283 206.772 89.5747 206.772 89.6288Z" fill="#263238"/>
<path d="M190.566 36.9481C190.566 37.006 184.771 37.0524 177.601 37.0524C170.431 37.0524 164.637 37.006 164.637 36.9481C164.637 36.8901 170.431 36.8477 177.601 36.8477C184.771 36.8477 190.566 36.894 190.566 36.9481Z" fill="#263238"/>
<path d="M206.772 39.8114C206.772 39.8655 197.338 39.9118 185.706 39.9118C174.074 39.9118 164.637 39.8655 164.637 39.8114C164.637 39.7573 174.07 39.7109 185.706 39.7109C197.342 39.7109 206.772 39.7573 206.772 39.8114Z" fill="#263238"/>
<path d="M190.566 69.6063C190.566 69.6604 184.771 69.7067 177.601 69.7067C170.431 69.7067 164.637 69.6604 164.637 69.6063C164.637 69.5522 170.431 69.5059 177.601 69.5059C184.771 69.5059 190.566 69.5522 190.566 69.6063Z" fill="#263238"/>
<path d="M206.772 72.4647C206.772 72.5226 197.338 72.5651 185.706 72.5651C174.074 72.5651 164.637 72.5226 164.637 72.4647C164.637 72.4068 174.07 72.3643 185.706 72.3643C197.342 72.3643 206.772 72.4106 206.772 72.4647Z" fill="#263238"/>
<path d="M190.566 102.737C190.566 102.791 184.771 102.838 177.601 102.838C170.431 102.838 164.637 102.791 164.637 102.737C164.637 102.683 170.431 102.637 177.601 102.637C184.771 102.637 190.566 102.675 190.566 102.737Z" fill="#263238"/>
<path d="M206.772 105.596C206.772 105.65 197.338 105.696 185.706 105.696C174.074 105.696 164.637 105.65 164.637 105.596C164.637 105.541 174.07 105.495 185.706 105.495C197.342 105.495 206.772 105.541 206.772 105.596Z" fill="#263238"/>
<path d="M219.988 21.9639H214.885V27.067H219.988V21.9639Z" fill="#E0E0E0"/>
<path d="M211.679 21.9639H206.576V27.067H211.679V21.9639Z" fill="#E0E0E0"/>
<path d="M203.369 21.9639H198.266V27.067H203.369V21.9639Z" fill="#E0E0E0"/>
<path d="M110.747 35.3252L112.914 38.153L114.768 35.3252H110.747Z" fill="#263238"/>
<path d="M64.5242 45.2249C63.174 50.7945 66.212 71.0475 71.1909 78.7099C71.1909 78.7099 85.6211 88.0769 130.693 82.7605C130.693 82.7605 123.401 80.4314 130.228 53.7228C130.372 53.1489 130.524 52.5751 130.684 51.9759C131.612 48.5161 124.819 42.5836 123.596 40.4992C114.777 25.5373 64.5242 45.2249 64.5242 45.2249Z" fill="#2C2C2C"/>
<path d="M38.9132 124.557C38.9132 124.557 36.4323 124.017 35.4787 122.794C34.5167 121.57 33.9513 121.03 30.5926 119.57C27.2593 118.11 25.9344 116.22 25.9344 116.22C25.9344 116.22 23.6053 118.355 28.7192 120.802C31.85 122.304 21.5632 122.085 18.4661 121.739C18.4661 121.739 16.6771 122.718 19.6391 124.152C22.6011 125.587 19.7488 125.696 25.6138 128.169C31.4703 130.65 38.4322 131.95 39.85 128.414C41.2592 124.878 38.9132 124.557 38.9132 124.557Z" fill="#E0E0E0"/>
<path fill-rule="evenodd" clip-rule="evenodd" d="M25.9342 116.22L25.7061 115.971L25.9898 115.711L26.2102 116.025L26.2103 116.026L26.2106 116.026L26.212 116.028C26.2137 116.03 26.2168 116.035 26.2211 116.04C26.2299 116.052 26.2439 116.071 26.2633 116.096C26.3022 116.145 26.3628 116.22 26.4465 116.315C26.6139 116.505 26.8734 116.776 27.2357 117.093C27.9599 117.728 29.0954 118.546 30.7273 119.261C32.4086 119.991 33.4156 120.502 34.1259 120.993C34.8484 121.491 35.2549 121.963 35.7438 122.585L35.7442 122.586L35.7447 122.586C36.1617 123.121 36.9451 123.535 37.6758 123.82C38.0329 123.959 38.3621 124.061 38.602 124.129C38.7218 124.163 38.8187 124.188 38.8852 124.204C38.9184 124.212 38.944 124.218 38.9609 124.222C38.9671 124.223 38.9721 124.225 38.976 124.225C38.9797 124.226 38.9839 124.227 38.9886 124.228C38.9928 124.228 38.9973 124.229 39.0023 124.23C39.0253 124.235 39.0566 124.241 39.0946 124.251C39.1702 124.27 39.2734 124.302 39.3912 124.353C39.6258 124.454 39.9264 124.634 40.1752 124.951C40.6898 125.606 40.8911 126.713 40.1633 128.539L40.163 128.539C39.7651 129.532 38.9781 130.172 37.9642 130.534C36.9594 130.893 35.721 130.983 34.3716 130.884C31.6712 130.688 28.4286 129.728 25.4819 128.48C22.5453 127.242 21.7171 126.568 21.2684 125.975C21.1895 125.871 21.1211 125.767 21.0613 125.676C21.0414 125.646 21.0224 125.617 21.0044 125.59C20.9289 125.478 20.855 125.377 20.7538 125.271C20.5517 125.061 20.2139 124.806 19.4917 124.456C18.7315 124.088 18.2406 123.733 17.9485 123.388C17.6482 123.034 17.5495 122.678 17.6095 122.347C17.6663 122.035 17.8543 121.806 18.0014 121.668C18.0774 121.597 18.15 121.542 18.204 121.505C18.2311 121.487 18.2542 121.472 18.2713 121.462C18.2799 121.456 18.287 121.452 18.2925 121.449C18.2952 121.447 18.2976 121.446 18.2995 121.445L18.302 121.444L18.303 121.443L18.3035 121.443C18.3037 121.443 18.3039 121.443 18.4659 121.739L18.3039 121.443L18.3974 121.391L18.5034 121.403C20.0337 121.574 23.363 121.715 25.9161 121.626C27.2058 121.581 28.2485 121.478 28.7693 121.31C28.8088 121.297 28.8425 121.284 28.8712 121.273C28.8033 121.226 28.7065 121.17 28.5731 121.106C25.9844 119.868 25.1418 118.644 25.0721 117.616C25.0378 117.111 25.1964 116.701 25.3583 116.422C25.4394 116.282 25.5227 116.173 25.5869 116.098C25.6191 116.06 25.6468 116.03 25.6675 116.009C25.6778 115.998 25.6864 115.99 25.6929 115.983C25.6962 115.98 25.6989 115.978 25.7012 115.976L25.7041 115.973L25.7052 115.972L25.7057 115.971C25.7059 115.971 25.7061 115.971 25.9342 116.22ZM18.5504 122.087C18.5242 122.107 18.4944 122.131 18.4639 122.16C18.3681 122.25 18.294 122.356 18.2738 122.468C18.2568 122.561 18.2662 122.719 18.4635 122.952C18.669 123.194 19.0652 123.499 19.786 123.848C20.5449 124.216 20.9613 124.513 21.2407 124.804C21.3803 124.949 21.479 125.086 21.5647 125.213C21.59 125.251 21.6132 125.286 21.6355 125.32C21.6917 125.406 21.7424 125.483 21.8068 125.568C22.1387 126.006 22.8167 126.624 25.7447 127.858L25.7452 127.858C28.655 129.091 31.8216 130.022 34.4207 130.211C35.7211 130.306 36.8551 130.213 37.7374 129.898C38.6105 129.587 39.2254 129.064 39.5363 128.288C40.2175 126.579 39.9505 125.758 39.6444 125.368C39.4829 125.163 39.2851 125.042 39.1239 124.973C39.0437 124.938 38.9747 124.917 38.9276 124.905C38.9041 124.899 38.8863 124.895 38.8758 124.893C38.8705 124.892 38.867 124.892 38.8655 124.891C38.8648 124.891 38.8645 124.891 38.8648 124.891L38.8542 124.89L38.8412 124.887L38.913 124.557C38.8412 124.887 38.8411 124.887 38.8411 124.887L38.8408 124.887L38.8384 124.886L38.832 124.885C38.8266 124.884 38.8188 124.882 38.8089 124.88C38.789 124.875 38.7603 124.868 38.7239 124.859C38.6509 124.841 38.5466 124.815 38.4189 124.779C38.1638 124.707 37.8131 124.598 37.4308 124.449C36.6829 124.158 35.7493 123.69 35.2127 123.002C34.7398 122.4 34.3825 121.99 33.7424 121.548C33.0899 121.098 32.1349 120.609 30.4578 119.88L30.457 119.879C28.7559 119.134 27.5624 118.277 26.7909 117.601C26.4061 117.264 26.1265 116.973 25.9413 116.763C25.8266 116.96 25.723 117.236 25.7457 117.57C25.7898 118.222 26.3396 119.289 28.8647 120.498L28.865 120.498C29.0723 120.597 29.2443 120.699 29.3714 120.806C29.4897 120.906 29.6223 121.055 29.6405 121.258C29.661 121.486 29.5289 121.649 29.4077 121.743C29.2887 121.835 29.1347 121.901 28.9772 121.952C28.353 122.154 27.2174 122.256 25.9396 122.301C23.4228 122.389 20.1643 122.256 18.5504 122.087ZM18.6292 122.034C18.6298 122.034 18.6299 122.034 18.6297 122.034L18.6292 122.034Z" fill="#2C2C2C"/>
<path d="M79.9092 104.398C79.9092 104.398 72.8881 138.423 69.6899 140.296C67.116 141.807 47.3862 135.385 39.8926 132.862C38.112 132.271 37.0234 131.883 37.0234 131.883L38.3146 123.157L42.5424 123.731L63.5971 126.592C63.5971 126.592 70.6941 92.0182 75.7911 91.5962C80.8965 91.1658 79.9092 104.398 79.9092 104.398Z" fill="#2C2C2C"/>
<path d="M121.166 91.3848C121.166 91.3848 146.069 116.524 147.706 129.089C147.706 129.089 143.917 136.195 121.107 149.747L119.073 143.933C119.073 143.933 131.807 129.317 136.229 125.621C136.229 125.621 116.288 109.131 116.753 104.456C117.217 99.7645 118.373 91.6295 121.166 91.3848Z" fill="#2C2C2C"/>
<path d="M131.351 101.942C131.351 107.326 127.824 110.659 122.44 110.659C117.056 110.659 112.693 106.296 112.693 100.912C112.693 95.5285 116.761 89.5877 121.892 91.1995C127.546 92.9632 131.351 96.5581 131.351 101.942Z" fill="white"/>
<path fill-rule="evenodd" clip-rule="evenodd" d="M115.626 93.65C114.021 95.543 113.031 98.296 113.031 100.912C113.031 106.109 117.242 110.321 122.44 110.321C125.062 110.321 127.199 109.51 128.68 108.076C130.158 106.644 131.014 104.557 131.014 101.941C131.014 96.7629 127.368 93.2607 121.791 91.5209L121.79 91.5207C119.392 90.7674 117.225 91.763 115.626 93.65ZM121.992 90.8766C119.26 90.0183 116.828 91.1872 115.111 93.2136C113.398 95.2341 112.355 98.1435 112.355 100.912C112.355 106.482 116.869 110.996 122.44 110.996C125.202 110.996 127.52 110.14 129.149 108.561C130.78 106.981 131.689 104.709 131.689 101.941C131.689 96.3518 127.722 92.6642 121.992 90.8766Z" fill="#2C2C2C"/>
<path d="M126.971 100.372C126.971 104.355 124.363 106.819 120.38 106.819C116.397 106.819 113.173 103.596 113.173 99.6124C113.173 95.6294 116.178 91.2328 119.983 92.4226C124.152 93.7391 126.971 96.3973 126.971 100.372Z" fill="#2C2C2C"/>
<path d="M65.9512 101.942C65.9512 107.326 69.4786 110.659 74.8625 110.659C80.2464 110.659 84.6008 106.288 84.6008 100.912C84.6008 95.5367 80.5333 89.5874 75.4026 91.1992C69.7571 92.9629 65.9512 96.5578 65.9512 101.942Z" fill="white"/>
<path fill-rule="evenodd" clip-rule="evenodd" d="M82.1835 93.2165C83.8956 95.238 84.9385 98.1474 84.9385 100.911C84.9385 106.473 80.4336 110.996 74.8626 110.996C72.1008 110.996 69.7827 110.14 68.1531 108.561C66.5223 106.981 65.6138 104.709 65.6138 101.941C65.6138 96.3517 69.5798 92.664 75.3018 90.8763C78.0345 90.018 80.4664 91.1892 82.1835 93.2165ZM81.6683 93.6529C80.069 91.7646 77.9018 90.7672 75.5039 91.5205L75.5034 91.5206C69.9345 93.2604 66.2889 96.7625 66.2889 101.941C66.2889 104.557 67.144 106.643 68.6229 108.076C70.103 109.51 72.2405 110.321 74.8626 110.321C80.0596 110.321 84.2634 106.101 84.2634 100.911C84.2634 98.3 83.2726 95.547 81.6683 93.6529Z" fill="#2C2C2C"/>
<path d="M70.3394 100.372C70.3394 104.355 72.9469 106.819 76.93 106.819C80.9131 106.819 84.1367 103.596 84.1367 99.6124C84.1367 95.6294 81.1325 91.2328 77.3351 92.4226C73.1495 93.7391 70.3394 96.3973 70.3394 100.372Z" fill="#2C2C2C"/>
<path d="M110.92 145.14C104.828 144.583 98.8108 144.355 98.8108 144.355C96.5998 144.423 91.891 144.617 87.0303 145.14C88.448 149.984 93.2581 153.554 98.9711 153.554C104.693 153.562 109.503 149.976 110.92 145.14Z" fill="#50BFD7"/>
<path d="M110.423 145.645C110.947 143.586 121.419 91.1134 121.419 91.1134C121.419 91.1134 93.47 82.8603 75.5967 91.1134L87.0565 146.1L110.423 145.645Z" fill="white"/>
<path fill-rule="evenodd" clip-rule="evenodd" d="M121.514 90.7911C121.514 90.7912 121.514 90.7913 121.419 91.115C121.75 91.1811 121.75 91.1813 121.749 91.1817L121.749 91.1835L121.632 91.7709C121.555 92.1557 121.442 92.7204 121.299 93.4398C121.011 94.8786 120.6 96.9364 120.105 99.4121C119.115 104.364 117.79 110.987 116.448 117.675C113.766 131.041 111.014 144.689 110.75 145.729L110.687 145.979L86.7827 146.445L75.2109 90.9211L75.4546 90.8086C84.4778 86.642 96.0104 86.6513 105.247 87.6846C109.873 88.2021 113.937 88.9782 116.846 89.6249C118.3 89.9483 119.466 90.2395 120.268 90.45C120.67 90.5553 120.98 90.6404 121.191 90.6993C121.297 90.7287 121.377 90.7516 121.431 90.7672C121.458 90.775 121.479 90.781 121.493 90.785L121.509 90.7896L121.513 90.7908L121.514 90.7911ZM121.419 91.115L121.75 91.1811L121.81 90.8786L121.514 90.7913L121.419 91.115ZM121.027 91.3542C121.021 91.3527 121.015 91.3511 121.009 91.3494C120.802 91.2915 120.495 91.2073 120.097 91.103C119.302 90.8944 118.144 90.6053 116.699 90.2839C113.808 89.6411 109.768 88.8697 105.172 88.3556C96.0508 87.3351 84.7961 87.3348 75.9816 91.3101L87.3293 145.759L110.154 145.314C110.632 143.169 113.236 130.251 115.786 117.542C117.128 110.854 118.453 104.231 119.443 99.2798C119.938 96.8041 120.349 94.7464 120.637 93.3076C120.78 92.5882 120.893 92.0235 120.97 91.6387L121.027 91.3542Z" fill="black"/>
<path d="M110.423 145.645C110.947 143.586 121.419 91.1134 121.419 91.1134C121.419 91.1134 93.47 82.8603 75.5967 91.1134L87.0565 146.1L110.423 145.645Z" fill="white"/>
<path fill-rule="evenodd" clip-rule="evenodd" d="M121.514 90.7911C121.514 90.7912 121.514 90.7913 121.419 91.115C121.75 91.1811 121.75 91.1813 121.749 91.1817L121.749 91.1835L121.632 91.7709C121.555 92.1557 121.442 92.7204 121.299 93.4398C121.011 94.8786 120.6 96.9364 120.105 99.4121C119.115 104.364 117.79 110.987 116.448 117.675C113.766 131.041 111.014 144.689 110.75 145.729L110.687 145.979L86.7827 146.445L75.2109 90.9211L75.4546 90.8086C84.4778 86.642 96.0104 86.6513 105.247 87.6846C109.873 88.2021 113.937 88.9782 116.846 89.6249C118.3 89.9483 119.466 90.2395 120.268 90.45C120.67 90.5553 120.98 90.6404 121.191 90.6993C121.297 90.7287 121.377 90.7516 121.431 90.7672C121.458 90.775 121.479 90.781 121.493 90.785L121.509 90.7896L121.513 90.7908L121.514 90.7911ZM121.419 91.115L121.75 91.1811L121.81 90.8786L121.514 90.7913L121.419 91.115ZM121.027 91.3542C121.021 91.3527 121.015 91.3511 121.009 91.3494C120.802 91.2915 120.495 91.2073 120.097 91.103C119.302 90.8944 118.144 90.6053 116.699 90.2839C113.808 89.6411 109.768 88.8697 105.172 88.3556C96.0508 87.3351 84.7961 87.3348 75.9816 91.3101L87.3293 145.759L110.154 145.314C110.632 143.169 113.236 130.251 115.786 117.542C117.128 110.854 118.453 104.231 119.443 99.2798C119.938 96.8041 120.349 94.7464 120.637 93.3076C120.78 92.5882 120.893 92.0235 120.97 91.6387L121.027 91.3542Z" fill="#2C2C2C"/>
<path d="M114.634 89.5027C106.828 87.9331 93.6303 86.144 82.2886 88.8444C83.6303 97.3085 84.9721 105.781 86.3139 114.245C87.394 119.983 92.837 123.806 98.5163 123.84C104.196 123.806 109.639 119.992 110.719 114.245C112.018 105.992 113.326 97.7473 114.634 89.5027Z" fill="#50BFD7"/>
<path fill-rule="evenodd" clip-rule="evenodd" d="M82.2104 88.5176C93.6263 85.7996 106.885 87.6016 114.701 89.1733L115.018 89.2372L114.967 89.5624C113.659 97.8053 112.351 106.048 111.052 114.299L111.051 114.304L111.05 114.309C109.936 120.24 104.332 124.145 98.5183 124.179L98.5163 124.179L98.5143 124.179C92.7005 124.145 87.0969 120.231 85.9822 114.309L85.9813 114.304L85.9805 114.3C85.3097 110.068 84.6389 105.834 83.968 101.6L83.9678 101.599C83.297 97.365 82.6261 93.1309 81.9552 88.8989L81.9062 88.5901L82.2104 88.5176ZM82.6711 89.1031C83.3255 93.2315 83.98 97.3619 84.6344 101.492L84.6346 101.494C85.3052 105.726 85.9759 109.959 86.6465 114.189C87.694 119.74 92.9738 123.47 98.5163 123.504C104.059 123.47 109.338 119.748 110.386 114.189C111.669 106.044 112.959 97.908 114.25 89.7718C106.49 88.2348 93.7179 86.5586 82.6711 89.1031Z" fill="#2C2C2C"/>
<path d="M97.5469 92.4984C100.214 92.4984 104.357 91.6883 104.357 89.0301L103.673 80.1525L103.074 72.3888C103.074 69.7222 100.914 67.5703 98.2557 67.5703C96.9224 67.5703 95.7241 68.1104 94.8465 68.9796C93.9773 69.8488 93.4288 71.0555 93.4288 72.3888L92.8381 80.1609L92.2727 87.6124C91.5132 92.1102 97.5469 92.4984 97.5469 92.4984Z" fill="#2C2C2C"/>
<path d="M113.14 22.3304C109.149 17.419 103.571 14.457 96.4148 14.457C80.2039 14.457 64.356 29.4021 64.356 48.0433C64.356 66.6845 77.4951 81.7983 93.7059 81.7983C95.2671 81.7983 96.7777 81.6633 98.2291 81.3932C98.381 82.2118 98.4654 83.0557 98.4654 83.9164C98.4654 84.0768 98.457 84.2287 98.457 84.3806C143.149 73.5621 135.832 19.5709 113.14 22.3304Z" fill="#2C2C2C"/>
<path d="M78.2882 66.8704C81.2943 66.8704 83.7312 64.4335 83.7312 61.4274C83.7312 58.4213 81.2943 55.9844 78.2882 55.9844C75.2821 55.9844 72.8452 58.4213 72.8452 61.4274C72.8452 64.4335 75.2821 66.8704 78.2882 66.8704Z" fill="#E0E0E0"/>
<path fill-rule="evenodd" clip-rule="evenodd" d="M78.2874 56.3216C75.4677 56.3216 73.1819 58.6074 73.1819 61.427C73.1819 64.2467 75.4677 66.5325 78.2874 66.5325C81.107 66.5325 83.3928 64.2467 83.3928 61.427C83.3928 58.6074 81.107 56.3216 78.2874 56.3216ZM72.5068 61.427C72.5068 58.2345 75.0949 55.6465 78.2874 55.6465C81.4799 55.6465 84.0679 58.2345 84.0679 61.427C84.0679 64.6195 81.4799 67.2076 78.2874 67.2076C75.0949 67.2076 72.5068 64.6195 72.5068 61.427Z" fill="#2C2C2C"/>
<path d="M116.618 66.8704C119.624 66.8704 122.061 64.4335 122.061 61.4274C122.061 58.4213 119.624 55.9844 116.618 55.9844C113.612 55.9844 111.175 58.4213 111.175 61.4274C111.175 64.4335 113.612 66.8704 116.618 66.8704Z" fill="#E0E0E0"/>
<path fill-rule="evenodd" clip-rule="evenodd" d="M116.617 56.3216C113.797 56.3216 111.512 58.6074 111.512 61.427C111.512 64.2467 113.797 66.5325 116.617 66.5325C119.437 66.5325 121.722 64.2467 121.722 61.427C121.722 58.6074 119.437 56.3216 116.617 56.3216ZM110.836 61.427C110.836 58.2345 113.424 55.6465 116.617 55.6465C119.809 55.6465 122.398 58.2345 122.398 61.427C122.398 64.6195 119.809 67.2076 116.617 67.2076C113.424 67.2076 110.836 64.6195 110.836 61.427Z" fill="#2C2C2C"/>
<path d="M97.967 84.1366C109.651 84.1366 119.123 70.7279 119.123 54.1874C119.123 37.647 109.651 24.2383 97.967 24.2383C86.2829 24.2383 76.811 37.647 76.811 54.1874C76.811 70.7279 86.2829 84.1366 97.967 84.1366Z" fill="#E0E0E0"/>
<path fill-rule="evenodd" clip-rule="evenodd" d="M83.2833 33.2036C79.4996 38.5599 77.1487 45.9773 77.1487 54.1861C77.1487 62.3949 79.4996 69.8123 83.2833 75.1686C87.0676 80.5258 92.2641 83.7977 97.9671 83.7977C103.67 83.7977 108.867 80.5258 112.651 75.1686C116.435 69.8123 118.786 62.3949 118.786 54.1861C118.786 45.9773 116.435 38.5599 112.651 33.2036C108.867 27.8464 103.67 24.5745 97.9671 24.5745C92.2641 24.5745 87.0676 27.8464 83.2833 33.2036ZM82.7319 32.8141C86.6046 27.3318 91.9861 23.8994 97.9671 23.8994C103.948 23.8994 109.33 27.3318 113.202 32.8141C117.076 38.2972 119.461 45.8545 119.461 54.1861C119.461 62.5178 117.076 70.075 113.202 75.5581C109.33 81.0404 103.948 84.4728 97.9671 84.4728C91.9861 84.4728 86.6046 81.0404 82.7319 75.5581C78.8587 70.075 76.4736 62.5178 76.4736 54.1861C76.4736 45.8545 78.8587 38.2972 82.7319 32.8141Z" fill="#2C2C2C"/>
<path d="M73.7231 47.5453C73.7231 47.5453 91.7314 48.423 97.7314 37.5876C97.7314 37.5876 110.761 48.8618 123.2 47.9842L122.027 43.0053L117.2 33.4864L114.271 29.9759L108.271 23.6805L100.221 20.3135L90.5585 21.6299L77.6725 30.4147L76.0607 36.2712L73.7231 47.5453Z" fill="#2C2C2C"/>
<path d="M98.4901 65.8924C98.4986 65.943 98.3889 66.0359 98.1441 66.0359C97.9079 66.0443 97.545 65.9346 97.2243 65.6308C97.064 65.4789 96.9205 65.2932 96.8108 65.057C96.7939 65.0232 96.7855 64.9894 96.7686 64.9557L96.7517 64.9051L96.7349 64.8629L96.7096 64.7869C96.7011 64.7532 96.6927 64.711 96.6758 64.6772C96.642 64.5506 96.6167 64.4156 96.6083 64.2722C96.5577 63.7152 96.6674 63.1498 96.8024 62.6097C97.3256 60.4494 97.9416 58.7532 98.1695 58.8038C98.3973 58.8629 98.161 60.6519 97.6378 62.8122C97.5028 63.3439 97.4015 63.8249 97.4015 64.23C97.4015 64.3312 97.41 64.4325 97.4184 64.5253L97.4268 64.5591V64.576V64.5844V64.5928C97.4268 64.5928 97.4184 64.5675 97.4268 64.576L97.4437 64.6603L97.4522 64.7025L97.4606 64.7278L97.4775 64.7785C97.5281 64.9388 97.6041 65.0907 97.6884 65.2089C97.8572 65.4536 98.0598 65.6055 98.2201 65.6899C98.3636 65.7996 98.4817 65.8333 98.4901 65.8924Z" fill="#2C2C2C"/>
<path d="M75.0983 57.622C74.862 56.6853 74.6848 55.7317 74.5413 54.7697C74.4063 53.8077 74.3135 52.8457 74.2628 51.8752C74.1785 49.9343 74.2544 47.9765 74.516 46.044C74.7776 44.1031 75.2249 42.1875 75.8578 40.331C75.8915 40.2129 75.9337 40.0947 75.9759 39.985L76.1025 39.639L76.3557 38.9471L76.6426 38.2635L76.786 37.926C76.8367 37.8163 76.8789 37.6981 76.9379 37.5884C77.3514 36.6939 77.7987 35.8078 78.305 34.964C79.3092 33.2593 80.4822 31.656 81.8324 30.1961C83.191 28.7446 84.7185 27.445 86.3893 26.3564C86.5919 26.213 86.8113 26.0864 87.0222 25.9598C87.2332 25.8332 87.4526 25.6982 87.6636 25.5801L88.3302 25.2256L88.6594 25.0484C88.7691 24.9894 88.8872 24.9387 88.9969 24.8881L89.6804 24.5759C89.7395 24.5505 89.7902 24.5252 89.8492 24.4999L90.0264 24.4324L90.3724 24.2974L90.7184 24.1624C90.8366 24.1202 90.9463 24.0695 91.0728 24.0273L91.7901 23.791C93.6973 23.175 95.7057 22.8628 97.7141 22.8206C98.7184 22.7868 99.7226 22.8628 100.718 22.9725C100.971 23.0062 101.216 23.0484 101.461 23.0822L101.832 23.1413C101.891 23.1497 101.959 23.1581 102.018 23.175L102.204 23.2172L102.938 23.3775C103.182 23.4282 103.427 23.4957 103.663 23.5632C105.596 24.1033 107.461 24.8881 109.166 25.9345L109.798 26.3311C109.908 26.3986 110.009 26.4661 110.111 26.5421L110.414 26.7531L110.718 26.964C110.82 27.0315 110.921 27.1075 111.022 27.1834L111.613 27.6391L111.908 27.867L112.195 28.1117L112.76 28.6011C112.946 28.7615 113.123 28.9387 113.301 29.1159L113.571 29.3775C113.663 29.4619 113.748 29.5463 113.832 29.6391L114.347 30.1792L114.6 30.4492L114.845 30.7277L115.334 31.2931C115.419 31.3859 115.495 31.4872 115.571 31.58L115.798 31.8754C115.95 32.0695 116.102 32.2636 116.254 32.4661L116.684 33.0737C116.98 33.4703 117.233 33.9007 117.503 34.3142C118.549 35.9935 119.402 37.7825 120.077 39.6222C120.752 41.4702 121.233 43.3774 121.537 45.3099L121.596 45.6727L121.621 45.85L121.638 46.0356L121.722 46.7613C121.79 47.2423 121.807 47.7318 121.849 48.2212C121.908 49.1917 121.925 50.1706 121.9 51.1411L121.891 51.5039L121.874 51.8668C121.857 52.1115 121.849 52.3478 121.824 52.5925C121.79 53.0735 121.739 53.563 121.68 54.044C121.554 55.006 121.393 55.9596 121.182 56.9047C121.3 55.9427 121.393 54.9891 121.427 54.0271C121.469 53.0651 121.478 52.1031 121.435 51.1495C121.393 50.1959 121.326 49.2339 121.208 48.2888C121.14 47.8162 121.089 47.3436 120.997 46.871L120.87 46.1706L120.836 45.9934L120.794 45.8162L120.718 45.4702C120.322 43.6052 119.756 41.7825 119.039 40.0357L118.904 39.7065L118.76 39.3859L118.465 38.7361C118.372 38.5167 118.262 38.3141 118.153 38.1032L117.832 37.4703C117.722 37.2593 117.604 37.0568 117.486 36.8542C117.368 36.6517 117.258 36.4407 117.132 36.2382L116.76 35.6391C116.634 35.4365 116.516 35.234 116.381 35.0483C116.111 34.6602 115.857 34.2635 115.571 33.8922L115.149 33.3268C115.005 33.1412 114.853 32.964 114.701 32.7783L114.474 32.5083C114.398 32.4155 114.322 32.3226 114.246 32.2382L113.773 31.715L113.537 31.4534L113.292 31.2003L112.794 30.7024C111.452 29.4028 109.959 28.2636 108.347 27.3184C106.744 26.3733 105.014 25.656 103.225 25.175C102.777 25.04 102.322 24.964 101.874 24.8628L101.706 24.829C101.647 24.8206 101.588 24.8121 101.537 24.8037L101.191 24.7531C100.963 24.7193 100.735 24.6771 100.507 24.6518C99.5875 24.559 98.6593 24.4915 97.7395 24.5168C95.8914 24.5505 94.0433 24.829 92.2796 25.3944L91.6214 25.6054C91.5117 25.6391 91.402 25.6813 91.2922 25.7235L90.9716 25.8501L90.6509 25.9767L90.4906 26.0358C90.4399 26.0526 90.3809 26.0864 90.3302 26.1033L89.6973 26.3902C89.5961 26.4408 89.4864 26.483 89.3766 26.5336L89.0644 26.694L88.4484 27.0147C88.2459 27.1328 88.0433 27.2509 87.8408 27.3606C87.6383 27.4788 87.4357 27.5885 87.2416 27.7235C85.6636 28.7193 84.2121 29.9091 82.8957 31.2425L82.4147 31.7572L82.1784 32.0188C82.1362 32.061 82.094 32.1032 82.0603 32.1454L81.9505 32.2804L81.4949 32.8205C81.4189 32.9133 81.343 32.9977 81.267 33.0906L81.0476 33.369L80.6172 33.926C80.5413 34.0188 80.4822 34.1116 80.4063 34.2129L80.2037 34.4998C80.0687 34.6939 79.9337 34.8796 79.7987 35.0821L79.4189 35.6813C78.4147 37.2762 77.554 38.9724 76.8789 40.7361C76.1953 42.4998 75.6721 44.3394 75.3177 46.2128L75.1827 46.9132C75.1405 47.1495 75.1152 47.3858 75.073 47.6221L74.9717 48.3309C74.9464 48.5672 74.9211 48.8035 74.8958 49.0398L74.8198 49.7571L74.7776 50.4744L74.7354 51.1917C74.727 51.428 74.7185 51.6727 74.7101 51.909C74.6932 52.871 74.7101 53.8246 74.7776 54.7866C74.8536 55.7064 74.9633 56.66 75.0983 57.622Z" fill="#50BFD7"/>
<path d="M92.4655 55.7724C92.4655 58.1774 90.3811 60.1268 87.8158 60.1268C85.2419 60.1268 83.166 58.1774 83.166 55.7724C83.166 53.3673 85.2504 51.418 87.8158 51.418C90.3811 51.418 92.4655 53.3673 92.4655 55.7724Z" fill="white"/>
<path fill-rule="evenodd" clip-rule="evenodd" d="M87.8159 51.7571C85.4156 51.7571 83.5037 53.576 83.5037 55.774C83.5037 57.9723 85.4076 59.7908 87.8159 59.7908C90.2162 59.7908 92.1281 57.9719 92.1281 55.774C92.1281 53.576 90.2162 51.7571 87.8159 51.7571ZM82.8286 55.774C82.8286 53.1619 85.0855 51.082 87.8159 51.082C90.5464 51.082 92.8032 53.1619 92.8032 55.774C92.8032 58.3861 90.5464 60.4659 87.8159 60.4659C85.0766 60.4659 82.8286 58.3857 82.8286 55.774Z" fill="#2C2C2C"/>
<path d="M85.5376 55.5031C85.5376 57.4863 86.8287 59.0981 88.4152 59.0981C90.0017 59.0981 91.2928 57.4863 91.2928 55.5031C91.2928 53.52 90.0017 51.9082 88.4152 51.9082C86.8203 51.8998 85.5376 53.5116 85.5376 55.5031Z" fill="#50BFD7"/>
<path d="M86.3638 55.5023C86.3638 56.9115 87.2752 58.0508 88.4059 58.0508C89.5367 58.0508 90.4481 56.9115 90.4481 55.5023C90.4481 54.093 89.5367 52.9453 88.4059 52.9453C87.2836 52.9453 86.3638 54.0845 86.3638 55.5023Z" fill="#2C2C2C"/>
<path d="M86.2378 53.0818C86.2378 53.47 86.7104 53.7738 87.2926 53.7738C87.8749 53.7738 88.3475 53.4615 88.3475 53.0818C88.3475 52.6936 87.8749 52.3898 87.2926 52.3898C86.7104 52.3814 86.2378 52.6936 86.2378 53.0818Z" fill="white"/>
<path d="M88.1193 50.7854C85.2417 50.4985 83.0308 53.0976 83.0308 55.7812C83.0308 56.0596 83.3767 56.1103 83.5202 55.9162C84.6932 54.3044 85.0729 52.7179 87.2164 52.1019C90.3809 51.1905 92.1193 54.4394 92.2965 56.9879C92.3218 57.2326 92.5328 57.0132 92.5581 56.7601C92.845 53.7137 91.3261 51.1061 88.1193 50.7854Z" fill="#2C2C2C"/>
<path d="M93.7995 49.1148C93.7995 49.1148 87.521 42.8533 80.77 50.2878C80.7616 50.2878 86.6012 46.5494 93.7995 49.1148Z" fill="#2C2C2C"/>
<path d="M112.693 55.7724C112.693 58.1774 110.609 60.1268 108.043 60.1268C105.469 60.1268 103.394 58.1774 103.394 55.7724C103.394 53.3673 105.478 51.418 108.043 51.418C110.609 51.418 112.693 53.3673 112.693 55.7724Z" fill="white"/>
<path fill-rule="evenodd" clip-rule="evenodd" d="M108.043 51.7571C105.643 51.7571 103.731 53.576 103.731 55.774C103.731 57.9723 105.635 59.7908 108.043 59.7908C110.443 59.7908 112.355 57.9719 112.355 55.774C112.355 53.576 110.443 51.7571 108.043 51.7571ZM103.056 55.774C103.056 53.1619 105.313 51.082 108.043 51.082C110.773 51.082 113.03 53.1619 113.03 55.774C113.03 58.3861 110.773 60.4659 108.043 60.4659C105.304 60.4659 103.056 58.3857 103.056 55.774Z" fill="#2C2C2C"/>
<path d="M105.765 55.5031C105.765 57.4863 107.056 59.0981 108.642 59.0981C110.229 59.0981 111.52 57.4863 111.52 55.5031C111.52 53.52 110.229 51.9082 108.642 51.9082C107.056 51.8998 105.765 53.5116 105.765 55.5031Z" fill="#50BFD7"/>
<path d="M106.6 55.5023C106.6 56.9115 107.511 58.0508 108.642 58.0508C109.773 58.0508 110.684 56.9115 110.684 55.5023C110.684 54.093 109.773 52.9453 108.642 52.9453C107.511 52.9453 106.6 54.0845 106.6 55.5023Z" fill="#2C2C2C"/>
<path d="M106.465 53.0818C106.465 53.47 106.938 53.7738 107.52 53.7738C108.102 53.7738 108.575 53.4615 108.575 53.0818C108.575 52.6936 108.102 52.3898 107.52 52.3898C106.946 52.3814 106.465 52.6936 106.465 53.0818Z" fill="white"/>
<path d="M108.347 50.7854C105.47 50.4985 103.259 53.0976 103.259 55.7812C103.259 56.0596 103.605 56.1103 103.748 55.9162C104.921 54.3044 105.301 52.7179 107.444 52.1019C110.609 51.1905 112.347 54.4394 112.525 56.9879C112.55 57.2326 112.761 57.0132 112.786 56.7601C113.073 53.7137 111.563 51.1061 108.347 50.7854Z" fill="#2C2C2C"/>
<path d="M114.027 48.4322C114.027 48.4322 107.748 42.1706 100.997 49.6052C100.997 49.6052 106.837 45.8668 114.027 48.4322Z" fill="#2C2C2C"/>
<path d="M104.305 148.794C104.305 149.005 104.491 149.25 104.71 149.225C107.199 148.963 109.107 147.039 111.562 147.444C109.098 148.668 106.963 150.794 107.267 153.925C107.301 154.313 107.672 154.465 107.959 154.229C109.723 152.727 111.748 151.385 114.111 151.883C115.123 152.094 116.313 152.49 117.36 152.355C118.921 152.161 120.237 151.452 121.014 149.942C122.381 147.326 121.874 144.187 118.811 143.537C118.735 143.52 118.676 143.528 118.609 143.554C117.478 143.106 116.448 142.541 115.537 141.554C114.659 140.592 113.841 139.528 112.887 138.642C111.613 137.452 110.229 136.516 108.541 137.317C108.288 137.436 108.305 137.798 108.465 137.993C109.208 138.912 110.077 139.79 110.988 140.634C110.077 140.423 109.157 140.313 108.212 140.389C106.524 140.533 104.533 141.655 104.575 143.663C104.583 143.917 104.761 144.068 104.98 144.094C106.533 144.254 108.094 144.229 109.638 144.389C107.233 145.098 104.28 145.908 104.305 148.794Z" fill="white"/>
<path fill-rule="evenodd" clip-rule="evenodd" d="M110.993 136.919C111.771 137.226 112.473 137.794 113.117 138.395C113.762 138.994 114.357 139.686 114.935 140.356C115.222 140.689 115.504 141.016 115.785 141.325C116.623 142.233 117.569 142.769 118.631 143.199C118.708 143.186 118.79 143.186 118.882 143.207C120.535 143.558 121.525 144.596 121.898 145.909C122.265 147.203 122.026 148.731 121.313 150.097C120.475 151.727 119.047 152.485 117.402 152.69C116.825 152.764 116.224 152.691 115.657 152.58C115.372 152.524 115.09 152.457 114.819 152.392C114.791 152.386 114.762 152.379 114.734 152.372C114.493 152.314 114.263 152.259 114.041 152.213L114.041 152.213C111.85 151.751 109.94 152.984 108.177 154.485L108.175 154.487L108.173 154.489C107.943 154.678 107.646 154.733 107.385 154.621C107.123 154.509 106.957 154.256 106.93 153.956C106.656 151.117 108.272 149.079 110.311 147.765C109.633 147.857 108.972 148.102 108.28 148.395C108.126 148.46 107.97 148.528 107.812 148.596C106.876 149.003 105.865 149.442 104.746 149.56C104.494 149.588 104.292 149.459 104.171 149.32C104.05 149.182 103.967 148.992 103.967 148.795C103.953 147.206 104.774 146.185 105.88 145.489C106.463 145.122 107.135 144.839 107.817 144.601C107.644 144.593 107.471 144.586 107.297 144.578L107.29 144.578C106.517 144.544 105.731 144.51 104.945 144.429L104.943 144.429L104.941 144.429C104.58 144.387 104.252 144.118 104.237 143.674L104.237 143.672L104.237 143.67C104.213 142.538 104.768 141.661 105.537 141.061C106.299 140.465 107.283 140.129 108.183 140.052L108.184 140.052L108.185 140.052C108.781 140.004 109.365 140.027 109.94 140.101C109.32 139.49 108.731 138.859 108.203 138.205C108.067 138.04 107.999 137.817 108.011 137.607C108.023 137.389 108.13 137.137 108.397 137.012C109.332 136.568 110.198 136.605 110.993 136.919ZM108.689 137.62C108.687 137.625 108.685 137.633 108.685 137.645C108.684 137.666 108.687 137.692 108.695 137.719C108.704 137.745 108.715 137.765 108.725 137.777L108.726 137.779L108.727 137.78C109.456 138.682 110.312 139.548 111.217 140.386L112.149 141.249L110.912 140.962C110.024 140.757 109.14 140.653 108.239 140.725C107.452 140.792 106.597 141.089 105.952 141.593C105.314 142.091 104.894 142.778 104.912 143.653C104.914 143.698 104.928 143.716 104.937 143.725C104.948 143.737 104.973 143.753 105.017 143.758C105.781 143.837 106.548 143.87 107.327 143.904L107.329 143.904C108.104 143.938 108.89 143.972 109.673 144.053L111.372 144.229L109.733 144.713C109.691 144.725 109.649 144.737 109.607 144.75C108.427 145.097 107.193 145.46 106.24 146.061C105.274 146.668 104.631 147.495 104.642 148.791L104.642 148.792V148.794C104.642 148.798 104.643 148.811 104.65 148.829C104.657 148.846 104.668 148.863 104.679 148.875C104.683 148.88 104.687 148.884 104.69 148.887C105.692 148.778 106.591 148.389 107.528 147.983C107.689 147.913 107.852 147.843 108.017 147.773C109.118 147.307 110.286 146.891 111.617 147.111L112.649 147.281L111.712 147.746C109.301 148.943 107.319 150.967 107.602 153.892L107.603 153.894L107.603 153.895C107.607 153.941 107.619 153.967 107.628 153.98C107.637 153.993 107.645 153.998 107.651 154C107.656 154.003 107.664 154.005 107.677 154.002C107.69 154 107.713 153.993 107.742 153.969C109.507 152.467 111.646 151.018 114.18 151.552C114.411 151.6 114.651 151.658 114.891 151.715C114.92 151.722 114.948 151.729 114.977 151.736C115.247 151.801 115.517 151.864 115.787 151.917C116.33 152.023 116.847 152.081 117.316 152.02L117.317 152.02L117.318 152.02C118.794 151.836 119.999 151.177 120.713 149.787L120.714 149.786L120.714 149.785C121.367 148.535 121.559 147.186 121.249 146.094C120.944 145.021 120.15 144.166 118.741 143.867L118.739 143.866L118.738 143.866C118.737 143.866 118.737 143.866 118.737 143.866C118.735 143.867 118.731 143.868 118.727 143.869L118.605 143.915L118.484 143.867C117.326 143.409 116.246 142.82 115.288 141.782L115.288 141.782L115.287 141.781C114.977 141.441 114.681 141.097 114.388 140.757C113.827 140.104 113.276 139.465 112.657 138.889L112.656 138.889C112.026 138.3 111.399 137.805 110.745 137.547C110.108 137.295 109.439 137.265 108.689 137.62Z" fill="#2C2C2C"/>
<path fill-rule="evenodd" clip-rule="evenodd" d="M76.3895 52.5996V52.7684H75.7144V52.5996H76.3895Z" fill="#2C2C2C"/>
<path fill-rule="evenodd" clip-rule="evenodd" d="M79.9334 54.457V54.6258H79.2583V54.457H79.9334Z" fill="#2C2C2C"/>
<path d="M99.1324 53.4612C100.288 53.7059 99.8581 54.457 99.8581 54.5667C99.8581 54.6764 100.288 60.9211 105.866 62.5666C111.445 64.2122 114.786 60.9801 115.757 59.3599C116.727 57.7397 117.537 53.8916 117.774 53.5962C118.018 53.3009 119.174 52.7861 119.174 52.7861L119.309 51.2756L117.858 50.8452C117.858 50.8452 114.196 49.1743 108.803 49.0984C103.419 49.014 100.373 52.1194 100.373 52.1194C98.8539 51.6384 96.972 51.5709 95.2505 52.1194C95.2505 52.1194 92.2041 49.0224 86.8202 49.0984C81.4363 49.1828 77.7654 50.8452 77.7654 50.8452L76.314 51.2756L76.449 52.7861C76.449 52.7861 77.6051 53.3009 77.8498 53.5962C78.0945 53.8916 78.8962 57.7481 79.8667 59.3599C80.8371 60.9801 84.1789 64.2122 89.7569 62.5666C95.3349 60.9211 95.7653 54.6764 95.7653 54.5667C95.7653 54.457 95.3349 53.7059 96.491 53.4612C97.4952 53.2502 98.1281 53.2502 99.1324 53.4612ZM112.516 61.2755C108.263 63.8324 103.166 61.2502 101.63 57.8831C100.094 54.516 101.386 52.7355 101.386 52.7355C103.959 48.5499 114.314 48.3726 116.094 52.8958C116.398 53.6553 116.778 58.7185 112.516 61.2755ZM79.5207 52.8958C81.3013 48.3642 91.6641 48.5499 94.2294 52.7355C94.2294 52.7355 95.5206 54.516 93.9847 57.8831C92.4489 61.2502 87.3603 63.8324 83.0987 61.2755C78.8456 58.7185 79.2253 53.6553 79.5207 52.8958Z" fill="#2C2C2C"/>
<path d="M101.74 98.7771H95.2588C93.5373 98.7771 92.1365 100.178 92.1365 101.899V108.38C92.1365 110.102 93.5373 111.503 95.2588 111.503H101.74C103.461 111.503 104.862 110.102 104.862 108.38V101.899C104.862 100.178 103.47 98.7771 101.74 98.7771ZM90.415 96.0176C89.4277 96.0176 88.626 96.8193 88.626 97.8066C88.626 98.7939 89.4277 99.5956 90.415 99.5956C91.4023 99.5956 92.204 98.7939 92.204 97.8066C92.204 96.8193 91.4023 96.0176 90.415 96.0176Z" fill="white"/>
<path d="M101.283 102.642C100.87 101.537 99.815 100.803 98.6336 100.803H96.8783L100.347 109.596H104.068L101.283 102.642ZM94.1948 107.073L93.1821 109.596H96.8783L98.5998 105.233H96.8445C95.6631 105.233 94.6083 105.967 94.1948 107.073ZM94.7686 102.988C95.3762 102.988 95.8741 102.49 95.8741 101.883C95.8741 101.275 95.3762 100.777 94.7686 100.777C94.161 100.777 93.6631 101.275 93.6631 101.883C93.6631 102.49 94.161 102.988 94.7686 102.988Z" fill="#50BFD7"/>
<path d="M109.513 135.449C103.679 134.915 97.9185 134.697 97.9185 134.697C95.8016 134.762 91.2931 134.948 86.6392 135.449C87.9966 140.086 92.602 143.504 98.072 143.504C103.55 143.512 108.156 140.078 109.513 135.449Z" fill="#50BFD7"/>
<path d="M102.857 143.874C102.857 144.076 103.034 144.311 103.244 144.286C105.628 144.036 107.454 142.194 109.805 142.582C107.446 143.753 105.402 145.789 105.693 148.787C105.725 149.158 106.08 149.304 106.355 149.078C108.044 147.639 109.983 146.355 112.245 146.831C113.215 147.033 114.354 147.413 115.356 147.284C116.851 147.098 118.111 146.419 118.855 144.973C120.163 142.468 119.679 139.463 116.746 138.841C116.673 138.824 116.616 138.832 116.552 138.857C115.469 138.429 114.483 137.887 113.611 136.942C112.77 136.021 111.987 135.003 111.074 134.154C109.854 133.015 108.529 132.118 106.913 132.886C106.67 132.999 106.686 133.346 106.84 133.532C107.551 134.413 108.383 135.253 109.256 136.061C108.383 135.859 107.502 135.754 106.598 135.827C104.982 135.964 103.075 137.039 103.115 138.962C103.123 139.204 103.293 139.35 103.503 139.374C104.99 139.527 106.484 139.503 107.963 139.657C105.66 140.335 102.832 141.111 102.857 143.874Z" fill="#C4C4C4"/>
<path fill-rule="evenodd" clip-rule="evenodd" d="M109.26 132.505C110.005 132.799 110.677 133.343 111.293 133.919C111.911 134.493 112.481 135.155 113.034 135.797C113.309 136.115 113.579 136.429 113.848 136.724C114.651 137.593 115.556 138.107 116.573 138.518C116.646 138.506 116.726 138.506 116.814 138.526C118.396 138.862 119.344 139.856 119.701 141.114C120.053 142.352 119.824 143.815 119.141 145.123C118.338 146.683 116.972 147.409 115.396 147.605C114.844 147.677 114.269 147.606 113.726 147.5C113.453 147.447 113.183 147.383 112.924 147.321C112.896 147.314 112.869 147.308 112.842 147.301C112.611 147.246 112.39 147.193 112.179 147.149L112.178 147.149C110.081 146.707 108.252 147.888 106.564 149.325L106.562 149.326L106.56 149.328C106.34 149.509 106.056 149.562 105.805 149.454C105.555 149.347 105.396 149.105 105.37 148.817C105.107 146.099 106.655 144.148 108.607 142.89C107.958 142.978 107.325 143.213 106.662 143.493C106.515 143.555 106.366 143.62 106.215 143.686C105.318 144.076 104.351 144.496 103.279 144.609C103.037 144.636 102.844 144.512 102.728 144.379C102.612 144.247 102.533 144.065 102.533 143.877C102.52 142.355 103.306 141.377 104.365 140.711C104.923 140.36 105.566 140.089 106.219 139.861C106.054 139.853 105.888 139.846 105.721 139.839L105.715 139.839C104.974 139.807 104.221 139.774 103.469 139.696L103.467 139.696L103.465 139.696C103.12 139.656 102.806 139.398 102.792 138.973L102.792 138.971L102.791 138.969C102.769 137.885 103.3 137.046 104.036 136.471C104.765 135.901 105.708 135.579 106.57 135.506L106.57 135.506L106.571 135.506C107.142 135.46 107.701 135.482 108.252 135.552C107.658 134.967 107.095 134.363 106.589 133.737C106.459 133.579 106.393 133.366 106.405 133.164C106.416 132.956 106.518 132.714 106.774 132.594C107.67 132.169 108.499 132.205 109.26 132.505ZM107.054 133.177C107.053 133.181 107.051 133.189 107.05 133.201C107.049 133.221 107.052 133.246 107.06 133.271C107.068 133.297 107.079 133.316 107.089 133.327L107.09 133.329L107.091 133.33C107.788 134.194 108.608 135.022 109.475 135.825L110.367 136.651L109.182 136.377C108.332 136.18 107.486 136.081 106.624 136.15C105.869 136.214 105.051 136.498 104.434 136.98C103.823 137.457 103.421 138.116 103.438 138.954C103.439 138.996 103.453 139.013 103.461 139.022C103.473 139.033 103.496 139.048 103.538 139.054C104.269 139.129 105.004 139.161 105.75 139.193L105.752 139.193C106.494 139.226 107.246 139.258 107.996 139.336L109.623 139.505L108.054 139.968C108.014 139.979 107.973 139.991 107.933 140.003C106.804 140.336 105.622 140.683 104.709 141.258C103.784 141.84 103.168 142.632 103.179 143.872L103.179 143.874V143.875C103.179 143.879 103.18 143.891 103.187 143.908C103.194 143.925 103.204 143.941 103.214 143.953C103.219 143.958 103.223 143.962 103.225 143.964C104.184 143.86 105.046 143.487 105.942 143.099C106.097 143.032 106.253 142.965 106.411 142.898C107.464 142.452 108.584 142.053 109.857 142.264L110.845 142.427L109.948 142.872C107.64 144.018 105.742 145.956 106.014 148.756L106.014 148.758L106.014 148.76C106.018 148.803 106.03 148.828 106.038 148.841C106.047 148.853 106.055 148.858 106.06 148.86C106.065 148.862 106.073 148.864 106.085 148.862C106.098 148.86 106.12 148.853 106.148 148.83C107.837 147.392 109.885 146.005 112.311 146.516C112.533 146.562 112.763 146.617 112.992 146.672C113.02 146.679 113.047 146.686 113.074 146.692C113.333 146.754 113.592 146.815 113.85 146.866C114.37 146.967 114.865 147.022 115.314 146.964L115.315 146.964L115.316 146.964C116.729 146.788 117.882 146.157 118.567 144.826L118.567 144.825L118.568 144.824C119.193 143.628 119.376 142.336 119.079 141.29C118.788 140.263 118.028 139.444 116.678 139.158L116.677 139.157L116.675 139.157C116.675 139.157 116.675 139.157 116.675 139.157C116.672 139.158 116.669 139.159 116.665 139.16L116.548 139.204L116.432 139.158C115.323 138.72 114.29 138.155 113.373 137.162L113.372 137.161L113.371 137.161C113.074 136.835 112.791 136.506 112.511 136.18C111.973 135.555 111.446 134.943 110.853 134.392L110.853 134.391C110.249 133.828 109.649 133.354 109.022 133.107C108.413 132.866 107.773 132.837 107.054 133.177Z" fill="#2C2C2C"/>
<path fill-rule="evenodd" clip-rule="evenodd" d="M195.038 151.938C195.038 151.776 195.169 151.646 195.331 151.646H204.971C205.133 151.646 205.264 151.776 205.264 151.938C205.264 152.1 205.133 152.231 204.971 152.231H195.331C195.169 152.231 195.038 152.1 195.038 151.938Z" fill="#2C2C2C"/>
<path fill-rule="evenodd" clip-rule="evenodd" d="M13.2397 151.938C13.2397 151.776 13.3707 151.646 13.5323 151.646H192.117C192.278 151.646 192.409 151.776 192.409 151.938C192.409 152.1 192.278 152.231 192.117 152.231H13.5323C13.3707 152.231 13.2397 152.1 13.2397 151.938Z" fill="#2C2C2C"/>
<path fill-rule="evenodd" clip-rule="evenodd" d="M0.684082 151.938C0.684082 151.776 0.815072 151.646 0.976655 151.646H7.56454C7.72612 151.646 7.85711 151.776 7.85711 151.938C7.85711 152.1 7.72612 152.231 7.56454 152.231H0.976655C0.815072 152.231 0.684082 152.1 0.684082 151.938Z" fill="#2C2C2C"/>
<path d="M58.5078 120.335H128.4C129.236 120.335 130.038 120.667 130.629 121.258C131.22 121.85 131.553 122.652 131.553 123.488V162.753H55.355V123.488C55.355 122.652 55.6872 121.85 56.2784 121.258C56.8697 120.667 57.6716 120.335 58.5078 120.335Z" fill="white"/>
<path fill-rule="evenodd" clip-rule="evenodd" d="M58.5083 120.737C57.7787 120.737 57.079 121.027 56.5631 121.543C56.0472 122.059 55.7573 122.759 55.7573 123.488V162.352H131.151V123.488C131.151 122.759 130.861 122.059 130.346 121.543C129.83 121.027 129.13 120.737 128.4 120.737H58.5083ZM55.9948 120.975C56.6614 120.308 57.5655 119.934 58.5083 119.934H128.4C129.343 119.934 130.247 120.308 130.914 120.975C131.58 121.641 131.955 122.546 131.955 123.488V162.754C131.955 162.976 131.775 163.156 131.553 163.156H55.3555C55.1335 163.156 54.9536 162.976 54.9536 162.754V123.488C54.9536 122.546 55.3281 121.641 55.9948 120.975Z" fill="#2C2C2C"/>
<path d="M131.553 134.447C121.981 136.875 112.156 143.055 93.8511 151.756C76.1952 160.155 61.7426 160.01 55.355 159.361V162.753H131.553V134.447Z" fill="#2C2C2C"/>
<path fill-rule="evenodd" clip-rule="evenodd" d="M131.8 134.131C131.898 134.207 131.955 134.324 131.955 134.448V162.754C131.955 162.976 131.775 163.156 131.553 163.156H55.3555C55.1335 163.156 54.9536 162.976 54.9536 162.754V159.361C54.9536 159.248 55.0017 159.139 55.0861 159.063C55.1704 158.987 55.2831 158.95 55.3961 158.962C61.729 159.606 76.1043 159.754 93.6789 151.394L93.679 151.394C99.7081 148.528 104.809 145.939 109.291 143.665C111.612 142.487 113.767 141.393 115.799 140.389C121.743 137.452 126.624 135.283 131.454 134.058C131.574 134.028 131.702 134.054 131.8 134.131ZM94.0241 152.12C76.6821 160.37 62.4061 160.418 55.7573 159.804V162.352H131.151V134.968C126.57 136.191 121.884 138.278 116.155 141.11C114.137 142.107 111.989 143.197 109.671 144.373C105.183 146.651 100.061 149.25 94.0241 152.12Z" fill="#2C2C2C"/>
<path d="M131.553 160.401H55.355V162.76H131.553V160.401Z" fill="white"/>
<path fill-rule="evenodd" clip-rule="evenodd" d="M54.9536 160.402C54.9536 160.18 55.1335 160 55.3555 160H131.553C131.775 160 131.955 160.18 131.955 160.402V162.76C131.955 162.982 131.775 163.162 131.553 163.162H55.3555C55.1335 163.162 54.9536 162.982 54.9536 162.76V160.402ZM55.7573 160.804V162.358H131.151V160.804H55.7573Z" fill="#2C2C2C"/>
<path d="M101.944 73.1217C101.944 74.8286 100.171 76.2122 97.9841 76.2122C95.7972 76.2122 94.0244 74.8286 94.0244 73.1217C94.0244 71.4149 95.7972 70.0312 97.9841 70.0312C100.171 70.0312 101.944 71.4149 101.944 73.1217Z" fill="white"/>
<path fill-rule="evenodd" clip-rule="evenodd" d="M97.9841 75.4396C99.9335 75.4396 101.171 74.2346 101.171 73.1217C101.171 72.0089 99.9335 70.8039 97.9841 70.8039C96.0347 70.8039 94.797 72.0089 94.797 73.1217C94.797 74.2346 96.0347 75.4396 97.9841 75.4396ZM97.9841 76.2122C100.171 76.2122 101.944 74.8286 101.944 73.1217C101.944 71.4149 100.171 70.0312 97.9841 70.0312C95.7972 70.0312 94.0244 71.4149 94.0244 73.1217C94.0244 74.8286 95.7972 76.2122 97.9841 76.2122Z" fill="#454545"/>
</svg>
