<svg width="398" height="338" viewBox="0 0 398 338" fill="none" xmlns="http://www.w3.org/2000/svg">
<path d="M318.679 121.33C318.679 121.33 306.723 75.0254 234.341 45.8231C161.96 16.6208 97.2038 43.6673 82.4412 77.8861C67.6785 112.105 83.1499 130.583 73.2987 159.806C63.4475 189.029 12.8378 226.04 33.2631 270.921C53.6884 315.802 149.266 328.621 226.609 319.361C303.952 310.102 364.377 207.521 318.679 121.33Z" fill="#50BFD7"/>
<path opacity="0.7" d="M318.679 121.33C318.679 121.33 306.723 75.0254 234.341 45.8231C161.96 16.6208 97.2038 43.6673 82.4412 77.8861C67.6785 112.105 83.1499 130.583 73.2987 159.806C63.4475 189.029 12.8378 226.04 33.2631 270.921C53.6884 315.802 149.266 328.621 226.609 319.361C303.952 310.102 364.377 207.521 318.679 121.33Z" fill="white"/>
<path fill-rule="evenodd" clip-rule="evenodd" d="M328.824 258.978C329.086 258.95 329.321 259.14 329.349 259.402L333.096 294.582C333.124 294.844 332.935 295.079 332.673 295.107C332.411 295.135 332.176 294.945 332.148 294.683L328.4 259.503C328.372 259.241 328.562 259.006 328.824 258.978Z" fill="#263238"/>
<path d="M328.853 260.441C328.853 260.441 322.123 255.203 322.123 243.224C322.123 231.246 331.1 221.524 331.1 221.524C331.1 221.524 340.831 233.502 338.585 245.471C336.338 257.44 328.853 260.441 328.853 260.441Z" fill="#50BFD7"/>
<path fill-rule="evenodd" clip-rule="evenodd" d="M331.471 221.223L331.101 221.524L330.75 221.2C330.844 221.099 330.978 221.043 331.116 221.047C331.254 221.051 331.384 221.116 331.471 221.223ZM328.854 260.441C328.561 260.818 328.561 260.818 328.561 260.817L328.56 260.817L328.559 260.816L328.553 260.811L328.536 260.797C328.521 260.785 328.499 260.768 328.473 260.745C328.419 260.7 328.342 260.634 328.245 260.547C328.052 260.371 327.779 260.11 327.454 259.761C326.803 259.061 325.941 258.006 325.08 256.57C323.358 253.696 321.647 249.308 321.647 243.224C321.647 237.12 323.933 231.612 326.199 227.646C327.333 225.66 328.468 224.052 329.32 222.94C329.746 222.384 330.101 221.951 330.352 221.656C330.477 221.509 330.575 221.396 330.643 221.32C330.677 221.281 330.704 221.252 330.722 221.232L330.742 221.209L330.748 221.203L330.75 221.201L330.75 221.201C330.75 221.2 330.75 221.2 331.101 221.524C331.471 221.223 331.471 221.223 331.472 221.223L331.472 221.224L331.474 221.226L331.48 221.234L331.502 221.261C331.521 221.286 331.549 221.321 331.586 221.368C331.659 221.461 331.764 221.598 331.897 221.777C332.163 222.133 332.539 222.655 332.983 223.317C333.87 224.641 335.028 226.533 336.116 228.803C338.287 233.332 340.206 239.429 339.055 245.559C337.914 251.636 335.437 255.463 333.222 257.774C332.117 258.928 331.08 259.701 330.315 260.188C329.932 260.431 329.617 260.603 329.395 260.715C329.284 260.771 329.196 260.812 329.135 260.84C329.104 260.854 329.08 260.864 329.063 260.872L329.042 260.88L329.036 260.883L329.033 260.884L329.033 260.884C329.032 260.884 329.032 260.884 328.854 260.441ZM328.854 260.441L328.561 260.818C328.695 260.922 328.875 260.947 329.032 260.884L328.854 260.441ZM328.931 259.88C328.942 259.875 328.954 259.869 328.966 259.863C329.162 259.764 329.449 259.608 329.803 259.383C330.512 258.932 331.487 258.207 332.533 257.114C334.623 254.933 337.012 251.274 338.117 245.383C339.213 239.544 337.39 233.668 335.256 229.215C334.192 226.995 333.058 225.144 332.19 223.848C331.756 223.2 331.39 222.692 331.132 222.347C331.114 222.322 331.096 222.298 331.078 222.275C330.837 222.559 330.492 222.979 330.077 223.52C329.246 224.606 328.136 226.177 327.027 228.119C324.805 232.009 322.602 237.35 322.602 243.224C322.602 249.119 324.256 253.34 325.899 256.079C326.721 257.451 327.541 258.454 328.152 259.111C328.458 259.439 328.711 259.681 328.885 259.839C328.901 259.854 328.917 259.867 328.931 259.88Z" fill="#263238"/>
<path fill-rule="evenodd" clip-rule="evenodd" d="M330.619 232.54C330.882 232.557 331.082 232.784 331.065 233.047L329.351 259.483C329.334 259.746 329.107 259.945 328.844 259.928C328.581 259.911 328.381 259.684 328.398 259.421L330.112 232.985C330.129 232.722 330.356 232.523 330.619 232.54Z" fill="#263238"/>
<path fill-rule="evenodd" clip-rule="evenodd" d="M348.245 267.351C348.471 267.487 348.544 267.781 348.408 268.006C343.756 275.716 339.78 283.814 336.524 292.209C336.428 292.454 336.152 292.576 335.906 292.481C335.661 292.386 335.539 292.109 335.634 291.864C338.911 283.418 342.911 275.271 347.591 267.513C347.727 267.288 348.02 267.215 348.245 267.351Z" fill="#263238"/>
<path d="M344.476 274.122C344.476 274.122 340.738 266.443 346.025 255.724C351.312 245.004 363.668 240.23 363.668 240.23C363.668 240.23 367.106 255.269 359.795 265.02C352.484 274.771 344.476 274.122 344.476 274.122Z" fill="#50BFD7"/>
<path fill-rule="evenodd" clip-rule="evenodd" d="M364.132 240.126L363.667 240.232L363.495 239.787C363.624 239.738 363.768 239.746 363.891 239.811C364.013 239.876 364.101 239.991 364.132 240.126ZM344.474 274.124C344.045 274.333 344.045 274.333 344.045 274.332L344.044 274.33L344.041 274.324L344.031 274.303C344.023 274.286 344.012 274.261 343.997 274.229C343.969 274.164 343.929 274.071 343.881 273.95C343.784 273.707 343.654 273.352 343.516 272.895C343.24 271.98 342.931 270.652 342.791 268.985C342.511 265.647 342.91 260.96 345.596 255.515C348.29 250.052 352.775 246.122 356.561 243.564C358.457 242.283 360.186 241.341 361.442 240.718C362.07 240.407 362.58 240.175 362.935 240.021C363.113 239.944 363.251 239.886 363.346 239.847C363.393 239.828 363.43 239.813 363.455 239.803L363.484 239.792L363.491 239.789L363.494 239.788L363.495 239.787C363.495 239.787 363.495 239.787 363.667 240.232C364.132 240.126 364.132 240.126 364.132 240.126L364.133 240.13L364.135 240.139L364.142 240.174C364.149 240.204 364.159 240.249 364.171 240.307C364.195 240.422 364.229 240.592 364.269 240.811C364.35 241.248 364.457 241.882 364.562 242.672C364.773 244.251 364.976 246.459 364.949 248.976C364.894 253.997 363.919 260.314 360.175 265.308C356.463 270.259 352.556 272.59 349.555 273.678C348.056 274.221 346.789 274.453 345.89 274.548C345.441 274.595 345.083 274.609 344.835 274.61C344.711 274.611 344.615 274.608 344.547 274.606C344.514 274.605 344.487 274.603 344.469 274.602L344.446 274.601L344.44 274.6L344.437 274.6C344.437 274.6 344.436 274.6 344.474 274.124ZM344.474 274.124L344.045 274.332C344.119 274.484 344.268 274.586 344.436 274.6L344.474 274.124ZM344.791 273.656C344.804 273.656 344.817 273.656 344.83 273.656C345.048 273.655 345.374 273.643 345.79 273.599C346.621 273.511 347.812 273.295 349.23 272.781C352.06 271.756 355.813 269.536 359.412 264.736C362.979 259.978 363.941 253.901 363.995 248.965C364.022 246.504 363.823 244.343 363.617 242.798C363.514 242.025 363.409 241.408 363.331 240.985C363.325 240.954 363.32 240.925 363.315 240.896C362.973 241.045 362.477 241.27 361.865 241.573C360.639 242.181 358.949 243.102 357.095 244.355C353.381 246.864 349.044 250.68 346.451 255.937C343.85 261.212 343.475 265.723 343.742 268.905C343.875 270.497 344.17 271.759 344.43 272.619C344.559 273.049 344.68 273.378 344.767 273.597C344.775 273.618 344.783 273.637 344.791 273.656Z" fill="#263238"/>
<path fill-rule="evenodd" clip-rule="evenodd" d="M358.347 251.319C358.572 251.456 358.643 251.749 358.506 251.974L344.882 274.372C344.745 274.597 344.451 274.668 344.226 274.531C344.001 274.394 343.93 274.101 344.067 273.876L357.691 251.478C357.828 251.253 358.122 251.182 358.347 251.319Z" fill="#263238"/>
<path fill-rule="evenodd" clip-rule="evenodd" d="M312.84 266.286C313.068 266.153 313.36 266.231 313.492 266.459L318.735 275.491C322.193 281.688 324.966 288.243 327.006 295.04C327.082 295.292 326.939 295.558 326.686 295.634C326.434 295.71 326.168 295.567 326.092 295.314C324.072 288.585 321.327 282.095 317.904 275.959L312.667 266.938C312.535 266.71 312.612 266.418 312.84 266.286Z" fill="#263238"/>
<path d="M317.293 273.676C313.159 274.945 308.771 275.148 304.538 274.264C300.305 273.38 296.365 271.439 293.084 268.621C281.464 258.86 282.113 238.941 282.113 238.941C282.113 238.941 304.636 235.727 313.729 248.489C316.365 252.063 318.071 256.236 318.693 260.632C319.315 265.029 318.834 269.511 317.293 273.676Z" fill="#50BFD7"/>
<path fill-rule="evenodd" clip-rule="evenodd" d="M282.113 238.944C281.637 238.928 281.637 238.929 281.637 238.929L281.637 238.933L281.636 238.945L281.635 238.99C281.634 239.03 281.633 239.088 281.632 239.164C281.63 239.315 281.629 239.537 281.631 239.823C281.636 240.394 281.657 241.218 281.717 242.237C281.839 244.274 282.124 247.093 282.775 250.22C284.073 256.46 286.846 264.005 292.776 268.987C296.117 271.856 300.13 273.833 304.441 274.733C308.753 275.633 313.222 275.427 317.433 274.134L317.293 273.678L317.741 273.844C319.309 269.605 319.799 265.043 319.166 260.568C318.533 256.094 316.797 251.848 314.116 248.212C309.449 241.665 301.374 239.254 294.567 238.458C291.151 238.058 288.025 238.062 285.753 238.164C284.617 238.216 283.693 238.292 283.052 238.356C282.731 238.388 282.481 238.416 282.311 238.437C282.226 238.448 282.16 238.456 282.116 238.462L282.065 238.469L282.051 238.471L282.047 238.471C282.046 238.472 282.046 238.472 282.113 238.944ZM282.584 239.366C282.584 239.489 282.584 239.639 282.585 239.815C282.59 240.371 282.61 241.179 282.67 242.18C282.79 244.183 283.069 246.954 283.709 250.026C284.991 256.185 287.703 263.479 293.392 268.258L293.396 268.261C296.615 271.027 300.482 272.932 304.636 273.799C308.713 274.65 312.936 274.475 316.927 273.29C318.376 269.263 318.821 264.942 318.221 260.701C317.61 256.383 315.935 252.285 313.346 248.775L313.341 248.769C308.915 242.555 301.183 240.192 294.456 239.406C291.105 239.014 288.032 239.016 285.796 239.118C284.679 239.168 283.772 239.243 283.146 239.305C282.922 239.328 282.733 239.348 282.584 239.366ZM282.113 238.944L282.047 238.471C281.817 238.504 281.644 238.697 281.637 238.929L282.113 238.944Z" fill="#263238"/>
<path fill-rule="evenodd" clip-rule="evenodd" d="M290.265 245.515C290.455 245.332 290.757 245.338 290.939 245.529L317.636 273.349C317.819 273.539 317.813 273.841 317.623 274.023C317.432 274.206 317.13 274.2 316.948 274.01L290.251 246.189C290.069 245.999 290.075 245.697 290.265 245.515Z" fill="#263238"/>
<path d="M344.938 287.101H316.439V315.047H344.938V287.101Z" fill="#263238"/>
<path fill-rule="evenodd" clip-rule="evenodd" d="M315.964 287.097C315.964 286.834 316.177 286.62 316.441 286.62H344.939C345.203 286.62 345.416 286.834 345.416 287.097V315.043C345.416 315.307 345.203 315.52 344.939 315.52H316.441C316.177 315.52 315.964 315.307 315.964 315.043V287.097ZM316.918 287.574V314.566H344.462V287.574H316.918Z" fill="#263238"/>
<path opacity="0.3" d="M390.912 10.2808H189.045V188.399H390.912V10.2808Z" fill="black"/>
<path d="M395.98 1.17871H194.112V179.297H395.98V1.17871Z" fill="white"/>
<path fill-rule="evenodd" clip-rule="evenodd" d="M192.933 1.17901C192.933 0.527861 193.46 0 194.112 0H395.979C396.63 0 397.158 0.527861 397.158 1.17901V179.297C397.158 179.948 396.63 180.476 395.979 180.476H194.112C193.46 180.476 192.933 179.948 192.933 179.297V1.17901ZM195.291 2.35802V178.118H394.8V2.35802H195.291Z" fill="#263238"/>
<path d="M395.98 1.17871H194.112V13.9082H395.98V1.17871Z" fill="#263238"/>
<path fill-rule="evenodd" clip-rule="evenodd" d="M192.933 1.17901C192.933 0.527861 193.46 0 194.112 0H395.979C396.63 0 397.158 0.527861 397.158 1.17901V13.9085C397.158 14.5597 396.63 15.0875 395.979 15.0875H194.112C193.46 15.0875 192.933 14.5597 192.933 13.9085V1.17901ZM195.291 2.35802V12.7295H394.8V2.35802H195.291Z" fill="#263238"/>
<path d="M282.427 77.4621V58.6844C282.427 55.2706 283.783 51.9965 286.197 49.5825C288.611 47.1686 291.885 45.8124 295.299 45.8124C298.713 45.8124 301.987 47.1686 304.401 49.5825C306.815 51.9965 308.171 55.2706 308.171 58.6844V69.6565H313.301V58.6844C313.301 53.9101 311.404 49.3312 308.028 45.9552C304.652 42.5792 300.073 40.6826 295.299 40.6826C290.524 40.6826 285.945 42.5792 282.569 45.9552C279.193 49.3312 277.297 53.9101 277.297 58.6844V77.4621H282.427Z" fill="white"/>
<path fill-rule="evenodd" clip-rule="evenodd" d="M281.735 45.1233C285.332 41.5262 290.211 39.5054 295.298 39.5054C300.385 39.5054 305.264 41.5262 308.861 45.1233C312.458 48.7204 314.479 53.5991 314.479 58.6862V69.6583C314.479 70.3094 313.951 70.8373 313.3 70.8373H308.17C307.519 70.8373 306.991 70.3094 306.991 69.6583V58.6862C306.991 55.585 305.759 52.6109 303.566 50.418C301.373 48.2251 298.399 46.9932 295.298 46.9932C292.197 46.9932 289.223 48.2251 287.03 50.418C284.837 52.6109 283.605 55.585 283.605 58.6862V77.4638C283.605 78.115 283.077 78.6428 282.426 78.6428H277.296C276.645 78.6428 276.117 78.115 276.117 77.4638V58.6862C276.117 53.5991 278.138 48.7204 281.735 45.1233ZM295.298 41.8634C290.836 41.8634 286.557 43.6358 283.403 46.7907C280.248 49.9456 278.475 54.2245 278.475 58.6862V76.2848H281.247V58.6862C281.247 54.9596 282.727 51.3857 285.362 48.7506C287.998 46.1155 291.571 44.6352 295.298 44.6352C299.025 44.6352 302.599 46.1155 305.234 48.7506C307.869 51.3857 309.349 54.9596 309.349 58.6862V68.4793H312.121V58.6862C312.121 54.2245 310.348 49.9456 307.194 46.7907C304.039 43.6358 299.76 41.8634 295.298 41.8634Z" fill="#263238"/>
<path d="M314.693 75.6245H275.38V108.145H314.693V75.6245Z" fill="#50BFD7"/>
<path fill-rule="evenodd" clip-rule="evenodd" d="M274.201 75.6248C274.201 74.9737 274.729 74.4458 275.38 74.4458H314.693C315.344 74.4458 315.872 74.9737 315.872 75.6248V108.145C315.872 108.796 315.344 109.324 314.693 109.324H275.38C274.729 109.324 274.201 108.796 274.201 108.145V75.6248ZM276.559 76.8038V106.966H313.514V76.8038H276.559Z" fill="#263238"/>
<path fill-rule="evenodd" clip-rule="evenodd" d="M323.32 56.7945C323.917 57.0555 324.189 57.7506 323.928 58.3472L321.379 64.1736C321.118 64.7702 320.422 65.0422 319.826 64.7812C319.229 64.5202 318.957 63.825 319.218 63.2285L321.767 57.4021C322.028 56.8055 322.724 56.5335 323.32 56.7945Z" fill="#263238"/>
<path fill-rule="evenodd" clip-rule="evenodd" d="M319.483 70.6043C319.483 69.9532 320.011 69.4253 320.662 69.4253H330.13C330.782 69.4253 331.309 69.9532 331.309 70.6043C331.309 71.2555 330.782 71.7833 330.13 71.7833H320.662C320.011 71.7833 319.483 71.2555 319.483 70.6043Z" fill="#263238"/>
<path fill-rule="evenodd" clip-rule="evenodd" d="M318.765 76.2981C319.241 75.8538 319.987 75.8795 320.432 76.3555L325.53 81.8178C325.974 82.2938 325.948 83.0399 325.472 83.4842C324.996 83.9285 324.25 83.9028 323.806 83.4267L318.708 77.9644C318.263 77.4884 318.289 76.7423 318.765 76.2981Z" fill="#263238"/>
<path d="M299.129 89.1299C299.144 88.3684 298.956 87.6166 298.584 86.9518C298.213 86.287 297.671 85.7332 297.014 85.3472C296.357 84.9612 295.61 84.7569 294.848 84.7554C294.086 84.7539 293.338 84.9551 292.68 85.3385C292.022 85.7219 291.477 86.2736 291.103 86.9369C290.729 87.6002 290.537 88.3512 290.549 89.1128C290.561 89.8744 290.776 90.6191 291.17 91.2704C291.565 91.9218 292.126 92.4563 292.796 92.819L292.084 100.213H297.578L296.865 92.819C297.545 92.4707 298.115 91.9424 298.514 91.2917C298.914 90.6411 299.126 89.8933 299.129 89.1299Z" fill="#263238"/>
<path fill-rule="evenodd" clip-rule="evenodd" d="M292.087 84.3186C292.926 83.8298 293.88 83.5733 294.851 83.5752C295.822 83.5771 296.775 83.8375 297.612 84.3296C298.449 84.8217 299.14 85.5277 299.614 86.3752C300.086 87.22 300.326 88.1749 300.309 89.1426C300.309 89.1457 300.309 89.1487 300.308 89.1518L299.13 89.1288L300.309 89.1334C300.309 89.1365 300.309 89.1395 300.309 89.1426C300.303 90.1189 300.03 91.0751 299.519 91.9073C299.152 92.5054 298.672 93.023 298.109 93.4328L298.039 92.7047L296.866 92.8178L297.403 93.8669C297.651 93.7402 297.886 93.595 298.109 93.4328L298.752 100.099C298.783 100.429 298.674 100.758 298.451 101.004C298.227 101.25 297.91 101.391 297.578 101.391H292.084C291.752 101.391 291.435 101.25 291.211 101.004C290.988 100.758 290.879 100.429 290.91 100.099L291.554 93.4178C291.769 93.5794 291.997 93.7255 292.235 93.8545L292.797 92.8178L291.623 92.7047L291.554 93.4178C290.999 93.0003 290.525 92.4791 290.163 91.8805C289.659 91.0502 289.386 90.1008 289.371 89.13C289.356 88.1591 289.599 87.2017 290.077 86.3561C290.554 85.5106 291.248 84.8073 292.087 84.3186ZM293.382 99.0327H292.084V100.212L293.258 100.325L293.382 99.0327ZM296.28 99.0327H297.578V100.212L296.404 100.325L296.28 99.0327Z" fill="#263238"/>
<path d="M365.422 121.396H224.653C221.156 121.396 218.32 124.231 218.32 127.729V142.754C218.32 146.252 221.156 149.087 224.653 149.087H365.422C368.92 149.087 371.755 146.252 371.755 142.754V127.729C371.755 124.231 368.92 121.396 365.422 121.396Z" fill="white"/>
<path fill-rule="evenodd" clip-rule="evenodd" d="M224.653 122.576C221.806 122.576 219.499 124.884 219.499 127.73V142.756C219.499 145.602 221.806 147.91 224.653 147.91H365.422C368.268 147.91 370.576 145.602 370.576 142.756V127.73C370.576 124.884 368.268 122.576 365.422 122.576H224.653ZM217.141 127.73C217.141 123.582 220.504 120.218 224.653 120.218H365.422C369.57 120.218 372.934 123.582 372.934 127.73V142.756C372.934 146.904 369.57 150.268 365.422 150.268H224.653C220.504 150.268 217.141 146.904 217.141 142.756V127.73Z" fill="#263238"/>
<path d="M233.218 136.121C233 136.081 232.794 135.993 232.615 135.864C232.436 135.734 232.288 135.566 232.182 135.372C232.075 135.178 232.014 134.962 232.001 134.741C231.989 134.521 232.026 134.3 232.11 134.095L232.189 133.889C232.252 133.686 232.358 133.498 232.5 133.339C232.642 133.18 232.817 133.054 233.012 132.968C233.207 132.883 233.418 132.84 233.632 132.843C233.845 132.846 234.054 132.895 234.247 132.987C235.538 133.484 236.766 134.133 237.904 134.918C237.5 133.548 237.266 132.134 237.208 130.707C237.195 130.491 237.226 130.275 237.3 130.072C237.374 129.868 237.488 129.682 237.637 129.525C237.785 129.368 237.964 129.243 238.162 129.157C238.361 129.072 238.575 129.028 238.791 129.028H239.013C239.229 129.028 239.443 129.072 239.641 129.157C239.84 129.243 240.019 129.368 240.167 129.525C240.316 129.682 240.43 129.868 240.504 130.072C240.578 130.275 240.609 130.491 240.596 130.707C240.536 132.132 240.307 133.546 239.915 134.918C241.056 134.146 242.277 133.498 243.557 132.987C243.751 132.893 243.963 132.843 244.179 132.841C244.394 132.838 244.608 132.883 244.804 132.972C245.001 133.061 245.175 133.192 245.315 133.356C245.455 133.52 245.557 133.713 245.615 133.921V134.063C245.708 134.267 245.753 134.489 245.746 134.713C245.74 134.937 245.683 135.157 245.579 135.355C245.476 135.554 245.328 135.726 245.147 135.859C244.967 135.991 244.759 136.081 244.538 136.121C243.209 136.477 241.844 136.679 240.469 136.723C241.595 137.551 242.616 138.514 243.509 139.589C243.64 139.752 243.737 139.939 243.795 140.139C243.853 140.34 243.871 140.55 243.847 140.758C243.824 140.965 243.759 141.166 243.658 141.349C243.556 141.531 243.42 141.692 243.256 141.821L243.082 141.964C242.912 142.108 242.711 142.212 242.496 142.268C242.28 142.325 242.054 142.332 241.835 142.289C241.616 142.247 241.41 142.156 241.231 142.022C241.052 141.889 240.905 141.718 240.802 141.52C240.041 140.352 239.409 139.105 238.918 137.8C238.4 139.101 237.752 140.348 236.986 141.52C236.882 141.718 236.736 141.889 236.557 142.022C236.378 142.156 236.171 142.247 235.953 142.289C235.734 142.332 235.508 142.325 235.292 142.268C235.077 142.212 234.876 142.108 234.706 141.964L234.548 141.821C234.383 141.693 234.245 141.533 234.142 141.351C234.039 141.169 233.973 140.969 233.948 140.761C233.923 140.554 233.939 140.343 233.996 140.142C234.053 139.941 234.149 139.753 234.279 139.589C235.192 138.513 236.217 137.537 237.334 136.676C235.944 136.668 234.561 136.482 233.218 136.121Z" fill="#263238"/>
<path d="M249.272 136.121C249.054 136.081 248.848 135.993 248.669 135.864C248.49 135.734 248.341 135.566 248.235 135.372C248.129 135.178 248.068 134.962 248.055 134.741C248.043 134.521 248.08 134.3 248.163 134.095L248.242 133.889C248.306 133.686 248.412 133.498 248.554 133.339C248.696 133.18 248.871 133.054 249.066 132.968C249.261 132.883 249.472 132.84 249.685 132.843C249.898 132.846 250.108 132.895 250.301 132.987C251.592 133.484 252.819 134.133 253.958 134.918C253.554 133.548 253.32 132.134 253.261 130.707C253.248 130.491 253.28 130.275 253.354 130.072C253.427 129.868 253.542 129.682 253.69 129.525C253.839 129.368 254.017 129.243 254.216 129.157C254.415 129.072 254.629 129.028 254.845 129.028H254.971C255.188 129.028 255.401 129.072 255.6 129.157C255.799 129.243 255.978 129.368 256.126 129.525C256.274 129.682 256.389 129.868 256.463 130.072C256.536 130.275 256.568 130.491 256.555 130.707C256.494 132.132 256.266 133.546 255.874 134.918C257.015 134.146 258.236 133.498 259.515 132.987C259.713 132.908 259.924 132.87 260.136 132.875C260.348 132.88 260.557 132.927 260.75 133.014C260.944 133.101 261.118 133.227 261.262 133.382C261.406 133.538 261.517 133.721 261.589 133.921V134.063C261.682 134.267 261.727 134.489 261.721 134.713C261.715 134.937 261.658 135.157 261.554 135.355C261.45 135.554 261.302 135.726 261.122 135.859C260.942 135.991 260.733 136.081 260.513 136.121C259.184 136.477 257.819 136.679 256.444 136.723C257.57 137.551 258.591 138.514 259.484 139.589C259.614 139.752 259.711 139.939 259.769 140.139C259.827 140.34 259.845 140.55 259.822 140.758C259.798 140.965 259.734 141.166 259.632 141.349C259.531 141.531 259.394 141.692 259.23 141.821L259.056 141.964C258.888 142.108 258.688 142.212 258.474 142.268C258.259 142.324 258.035 142.332 257.817 142.289C257.599 142.246 257.394 142.155 257.217 142.022C257.039 141.889 256.894 141.717 256.792 141.52C256.019 140.357 255.382 139.108 254.892 137.8C254.374 139.101 253.727 140.348 252.961 141.52C252.857 141.718 252.71 141.889 252.531 142.022C252.352 142.156 252.146 142.247 251.927 142.289C251.708 142.332 251.483 142.325 251.267 142.268C251.051 142.212 250.851 142.108 250.681 141.964L250.522 141.821C250.357 141.693 250.219 141.533 250.117 141.351C250.014 141.169 249.948 140.969 249.923 140.761C249.898 140.554 249.914 140.343 249.971 140.142C250.027 139.941 250.123 139.753 250.253 139.589C251.167 138.513 252.191 137.537 253.309 136.676C251.945 136.661 250.589 136.475 249.272 136.121Z" fill="#263238"/>
<path d="M265.328 136.121C265.118 136.067 264.922 135.971 264.751 135.838C264.58 135.705 264.439 135.538 264.335 135.348C264.231 135.158 264.167 134.949 264.147 134.733C264.127 134.518 264.152 134.301 264.22 134.095V133.889C264.283 133.686 264.389 133.498 264.531 133.339C264.673 133.18 264.848 133.054 265.043 132.968C265.238 132.883 265.449 132.84 265.662 132.843C265.875 132.846 266.085 132.895 266.278 132.987C267.569 133.484 268.796 134.133 269.935 134.918C269.537 133.547 269.308 132.133 269.254 130.707C269.241 130.491 269.273 130.275 269.346 130.072C269.42 129.868 269.535 129.682 269.683 129.525C269.831 129.368 270.01 129.243 270.209 129.157C270.408 129.072 270.621 129.028 270.838 129.028H271.059C271.275 129.028 271.489 129.072 271.688 129.157C271.887 129.243 272.065 129.368 272.214 129.525C272.362 129.682 272.477 129.868 272.55 130.072C272.624 130.275 272.656 130.491 272.643 130.707C272.582 132.132 272.354 133.546 271.962 134.918C273.103 134.146 274.324 133.498 275.603 132.987C275.8 132.908 276.011 132.87 276.224 132.875C276.436 132.88 276.645 132.927 276.838 133.014C277.032 133.101 277.206 133.227 277.35 133.382C277.494 133.538 277.605 133.721 277.677 133.921V134.063C277.77 134.266 277.816 134.487 277.81 134.71C277.805 134.933 277.749 135.152 277.647 135.35C277.545 135.548 277.399 135.721 277.221 135.854C277.042 135.988 276.836 136.079 276.617 136.121C275.282 136.476 273.912 136.677 272.532 136.723C273.658 137.551 274.679 138.514 275.572 139.589C275.702 139.752 275.799 139.939 275.857 140.139C275.915 140.34 275.933 140.55 275.91 140.758C275.886 140.965 275.822 141.166 275.72 141.349C275.619 141.531 275.482 141.692 275.318 141.821L275.144 141.964C274.975 142.108 274.776 142.212 274.562 142.268C274.347 142.324 274.123 142.332 273.905 142.289C273.687 142.246 273.482 142.155 273.305 142.022C273.127 141.889 272.982 141.717 272.88 141.52C272.113 140.353 271.476 139.105 270.98 137.8C270.462 139.101 269.815 140.348 269.049 141.52C268.947 141.717 268.802 141.889 268.624 142.022C268.447 142.155 268.241 142.246 268.024 142.289C267.806 142.332 267.581 142.324 267.367 142.268C267.152 142.212 266.953 142.108 266.784 141.964L266.61 141.821C266.445 141.693 266.307 141.533 266.204 141.351C266.101 141.169 266.036 140.969 266.011 140.761C265.986 140.554 266.002 140.343 266.059 140.142C266.115 139.941 266.211 139.753 266.341 139.589C267.255 138.513 268.279 137.537 269.397 136.676C268.022 136.664 266.655 136.478 265.328 136.121Z" fill="#263238"/>
<path d="M281.382 136.121C281.172 136.067 280.976 135.971 280.805 135.838C280.634 135.705 280.492 135.538 280.388 135.348C280.285 135.158 280.221 134.949 280.201 134.733C280.181 134.518 280.206 134.301 280.273 134.095V133.889C280.337 133.686 280.443 133.498 280.585 133.339C280.727 133.18 280.901 133.054 281.097 132.968C281.292 132.883 281.503 132.84 281.716 132.843C281.929 132.846 282.139 132.895 282.332 132.987C283.622 133.484 284.85 134.133 285.989 134.918C285.597 133.546 285.368 132.132 285.308 130.707C285.295 130.491 285.326 130.275 285.4 130.072C285.474 129.868 285.589 129.682 285.737 129.525C285.885 129.368 286.064 129.243 286.263 129.157C286.461 129.072 286.675 129.028 286.891 129.028H287.113C287.329 129.028 287.543 129.072 287.742 129.157C287.94 129.243 288.119 129.368 288.268 129.525C288.416 129.682 288.53 129.868 288.604 130.072C288.678 130.275 288.709 130.491 288.696 130.707C288.636 132.132 288.407 133.546 288.015 134.918C289.157 134.146 290.377 133.498 291.657 132.987C291.854 132.908 292.065 132.87 292.277 132.875C292.489 132.88 292.698 132.927 292.892 133.014C293.085 133.101 293.259 133.227 293.404 133.382C293.548 133.538 293.659 133.721 293.731 133.921V134.063C293.824 134.266 293.869 134.487 293.864 134.71C293.859 134.933 293.803 135.152 293.701 135.35C293.599 135.548 293.453 135.721 293.274 135.854C293.096 135.988 292.889 136.079 292.67 136.121C291.336 136.476 289.965 136.677 288.585 136.723C289.711 137.551 290.732 138.514 291.625 139.589C291.756 139.752 291.853 139.939 291.911 140.139C291.969 140.34 291.987 140.55 291.963 140.758C291.94 140.965 291.875 141.166 291.774 141.349C291.672 141.531 291.536 141.692 291.372 141.821L291.198 141.964C291.029 142.108 290.83 142.212 290.616 142.268C290.401 142.324 290.176 142.332 289.959 142.289C289.741 142.246 289.536 142.155 289.358 142.022C289.181 141.889 289.036 141.717 288.934 141.52C288.167 140.353 287.53 139.105 287.034 137.8C286.501 139.103 285.838 140.35 285.055 141.52C284.953 141.717 284.808 141.889 284.63 142.022C284.453 142.155 284.247 142.246 284.03 142.289C283.812 142.332 283.588 142.324 283.373 142.268C283.158 142.212 282.959 142.108 282.791 141.964L282.616 141.821C282.451 141.693 282.314 141.533 282.211 141.351C282.108 141.169 282.042 140.969 282.017 140.761C281.992 140.554 282.008 140.343 282.065 140.142C282.122 139.941 282.218 139.753 282.347 139.589C283.261 138.513 284.285 137.537 285.403 136.676C284.045 136.66 282.694 136.474 281.382 136.121Z" fill="#263238"/>
<path d="M297.435 136.121C297.226 136.067 297.029 135.971 296.859 135.838C296.688 135.705 296.546 135.538 296.442 135.348C296.338 135.158 296.275 134.949 296.255 134.733C296.235 134.518 296.259 134.301 296.327 134.095L296.406 133.889C296.481 133.692 296.595 133.512 296.74 133.36C296.886 133.208 297.06 133.086 297.254 133.002C297.447 132.918 297.655 132.873 297.865 132.871C298.076 132.868 298.285 132.907 298.48 132.987C299.764 133.488 300.986 134.136 302.122 134.918C301.73 133.546 301.501 132.132 301.441 130.707C301.428 130.491 301.459 130.275 301.533 130.072C301.607 129.868 301.721 129.682 301.87 129.525C302.018 129.368 302.197 129.243 302.396 129.157C302.594 129.072 302.808 129.028 303.024 129.028H303.246C303.462 129.028 303.676 129.072 303.875 129.157C304.073 129.243 304.252 129.368 304.4 129.525C304.549 129.682 304.663 129.868 304.737 130.072C304.811 130.275 304.842 130.491 304.829 130.707C304.769 132.132 304.54 133.546 304.148 134.918C305.289 134.146 306.51 133.498 307.79 132.987C307.987 132.908 308.198 132.87 308.41 132.875C308.622 132.88 308.831 132.927 309.025 133.014C309.218 133.101 309.392 133.227 309.536 133.382C309.681 133.538 309.792 133.721 309.864 133.921V134.063C309.957 134.266 310.002 134.487 309.997 134.71C309.992 134.933 309.936 135.152 309.834 135.35C309.732 135.548 309.586 135.721 309.407 135.854C309.229 135.988 309.022 136.079 308.803 136.121C307.469 136.476 306.098 136.677 304.718 136.723C305.844 137.551 306.865 138.514 307.758 139.589C307.889 139.752 307.986 139.939 308.044 140.139C308.102 140.34 308.12 140.55 308.096 140.758C308.073 140.965 308.008 141.166 307.907 141.349C307.805 141.531 307.669 141.692 307.505 141.821L307.331 141.964C307.162 142.108 306.963 142.212 306.748 142.268C306.534 142.324 306.309 142.332 306.092 142.289C305.874 142.246 305.669 142.155 305.491 142.022C305.314 141.889 305.169 141.717 305.067 141.52C304.3 140.353 303.663 139.105 303.167 137.8C302.649 139.101 302.002 140.348 301.235 141.52C301.133 141.717 300.988 141.889 300.811 142.022C300.633 142.155 300.428 142.246 300.21 142.289C299.992 142.332 299.768 142.324 299.553 142.268C299.339 142.212 299.14 142.108 298.971 141.964L298.797 141.821C298.621 141.7 298.474 141.544 298.364 141.361C298.255 141.178 298.185 140.974 298.161 140.763C298.137 140.551 298.159 140.337 298.225 140.134C298.291 139.932 298.4 139.746 298.544 139.589C299.447 138.509 300.467 137.533 301.583 136.676C300.183 136.671 298.788 136.484 297.435 136.121Z" fill="#263238"/>
<path d="M313.552 136.121C313.343 136.067 313.147 135.971 312.976 135.838C312.805 135.705 312.663 135.538 312.559 135.348C312.455 135.158 312.392 134.949 312.372 134.733C312.352 134.518 312.377 134.301 312.444 134.095L312.523 133.889C312.598 133.692 312.712 133.512 312.858 133.36C313.003 133.208 313.178 133.086 313.371 133.002C313.564 132.918 313.772 132.873 313.983 132.871C314.193 132.868 314.402 132.907 314.597 132.987C315.882 133.488 317.104 134.136 318.239 134.918C317.847 133.546 317.619 132.132 317.558 130.707C317.545 130.491 317.577 130.275 317.65 130.072C317.724 129.868 317.839 129.682 317.987 129.525C318.135 129.368 318.314 129.243 318.513 129.157C318.711 129.072 318.925 129.028 319.141 129.028H319.363C319.579 129.028 319.793 129.072 319.992 129.157C320.19 129.243 320.369 129.368 320.518 129.525C320.666 129.682 320.78 129.868 320.854 130.072C320.928 130.275 320.959 130.491 320.946 130.707C320.886 132.132 320.657 133.546 320.266 134.918C321.41 134.142 322.637 133.494 323.923 132.987C324.117 132.896 324.329 132.848 324.544 132.847C324.759 132.846 324.971 132.891 325.167 132.98C325.362 133.069 325.536 133.199 325.677 133.361C325.818 133.524 325.921 133.714 325.981 133.921V134.063C326.074 134.266 326.119 134.487 326.114 134.71C326.109 134.933 326.053 135.152 325.951 135.35C325.849 135.548 325.703 135.721 325.524 135.854C325.346 135.988 325.139 136.079 324.92 136.121C323.586 136.477 322.216 136.679 320.836 136.723C321.963 137.555 322.988 138.517 323.891 139.589C324.021 139.753 324.117 139.941 324.174 140.142C324.23 140.343 324.247 140.554 324.222 140.761C324.197 140.969 324.131 141.169 324.028 141.351C323.925 141.533 323.787 141.693 323.622 141.821L323.448 141.964C323.279 142.108 323.08 142.212 322.866 142.268C322.651 142.324 322.426 142.332 322.209 142.289C321.991 142.246 321.786 142.155 321.608 142.022C321.431 141.889 321.286 141.717 321.184 141.52C320.417 140.353 319.78 139.105 319.284 137.8C318.766 139.101 318.119 140.348 317.352 141.52C317.25 141.717 317.105 141.889 316.928 142.022C316.75 142.155 316.545 142.246 316.327 142.289C316.11 142.332 315.885 142.324 315.671 142.268C315.456 142.212 315.257 142.108 315.088 141.964L314.914 141.821C314.739 141.7 314.591 141.544 314.481 141.361C314.372 141.178 314.303 140.974 314.279 140.763C314.255 140.551 314.276 140.337 314.342 140.134C314.408 139.932 314.517 139.746 314.661 139.589C315.564 138.509 316.584 137.533 317.701 136.676C316.3 136.671 314.905 136.484 313.552 136.121Z" fill="#263238"/>
<path d="M329.561 136.121C329.35 136.069 329.152 135.974 328.98 135.842C328.807 135.709 328.664 135.543 328.558 135.353C328.453 135.163 328.387 134.953 328.367 134.736C328.346 134.52 328.37 134.302 328.437 134.095L328.516 133.889C328.591 133.692 328.705 133.512 328.851 133.36C328.996 133.208 329.171 133.086 329.364 133.002C329.557 132.918 329.765 132.873 329.975 132.871C330.186 132.868 330.395 132.907 330.59 132.987C331.875 133.488 333.097 134.136 334.232 134.918C333.84 133.546 333.611 132.132 333.551 130.707C333.538 130.491 333.569 130.275 333.643 130.072C333.717 129.868 333.832 129.682 333.98 129.525C334.128 129.368 334.307 129.243 334.506 129.157C334.704 129.072 334.918 129.028 335.134 129.028H335.356C335.572 129.028 335.786 129.072 335.985 129.157C336.183 129.243 336.362 129.368 336.511 129.525C336.659 129.682 336.773 129.868 336.847 130.072C336.921 130.275 336.952 130.491 336.939 130.707C336.881 132.134 336.647 133.548 336.243 134.918C337.387 134.142 338.614 133.494 339.9 132.987C340.095 132.896 340.307 132.848 340.521 132.847C340.736 132.846 340.948 132.891 341.144 132.98C341.34 133.069 341.514 133.199 341.654 133.361C341.795 133.524 341.898 133.714 341.958 133.921V134.063C342.051 134.267 342.096 134.489 342.09 134.713C342.084 134.937 342.026 135.157 341.923 135.355C341.819 135.554 341.671 135.726 341.491 135.859C341.31 135.991 341.102 136.081 340.882 136.121C339.547 136.477 338.177 136.679 336.797 136.723C337.924 137.555 338.95 138.517 339.852 139.589C339.982 139.753 340.078 139.941 340.135 140.142C340.192 140.343 340.208 140.554 340.183 140.761C340.158 140.969 340.092 141.169 339.989 141.351C339.886 141.533 339.748 141.693 339.583 141.821L339.425 141.964C339.255 142.108 339.055 142.212 338.839 142.268C338.623 142.325 338.398 142.332 338.179 142.289C337.96 142.247 337.753 142.156 337.574 142.022C337.396 141.889 337.249 141.718 337.145 141.52C336.378 140.356 335.746 139.107 335.261 137.8C334.738 139.102 334.086 140.349 333.314 141.52C333.212 141.717 333.067 141.889 332.889 142.022C332.712 142.155 332.506 142.246 332.289 142.289C332.071 142.332 331.846 142.324 331.632 142.268C331.417 142.212 331.218 142.108 331.049 141.964L330.875 141.821C330.7 141.7 330.552 141.544 330.443 141.361C330.333 141.178 330.264 140.974 330.24 140.763C330.216 140.551 330.238 140.337 330.304 140.134C330.369 139.932 330.478 139.746 330.622 139.589C331.526 138.509 332.545 137.533 333.662 136.676C332.277 136.669 330.898 136.483 329.561 136.121Z" fill="#263238"/>
<path d="M345.614 136.121C345.403 136.069 345.205 135.974 345.032 135.842C344.86 135.709 344.716 135.543 344.611 135.353C344.505 135.163 344.44 134.953 344.419 134.736C344.399 134.52 344.423 134.302 344.49 134.095V133.889C344.565 133.692 344.679 133.512 344.824 133.36C344.97 133.208 345.144 133.086 345.337 133.002C345.53 132.918 345.738 132.873 345.949 132.871C346.16 132.868 346.369 132.907 346.564 132.987C347.848 133.488 349.07 134.136 350.205 134.918C349.814 133.546 349.585 132.132 349.525 130.707C349.512 130.491 349.543 130.275 349.617 130.072C349.691 129.868 349.805 129.682 349.953 129.525C350.102 129.368 350.281 129.243 350.479 129.157C350.678 129.072 350.892 129.028 351.108 129.028H351.33C351.546 129.028 351.76 129.072 351.958 129.157C352.157 129.243 352.336 129.368 352.484 129.525C352.632 129.682 352.747 129.868 352.821 130.072C352.894 130.275 352.926 130.491 352.913 130.707C352.854 132.134 352.62 133.548 352.216 134.918C353.361 134.142 354.587 133.494 355.874 132.987C356.068 132.896 356.28 132.848 356.495 132.847C356.71 132.846 356.922 132.891 357.118 132.98C357.313 133.069 357.487 133.199 357.628 133.361C357.768 133.524 357.872 133.714 357.932 133.921V134.063C358.025 134.267 358.07 134.489 358.063 134.713C358.057 134.937 358 135.157 357.896 135.355C357.792 135.554 357.645 135.726 357.464 135.859C357.284 135.991 357.076 136.081 356.855 136.121C355.521 136.477 354.15 136.679 352.77 136.723C353.898 137.555 354.923 138.517 355.826 139.589C355.956 139.753 356.052 139.941 356.109 140.142C356.165 140.343 356.182 140.554 356.157 140.761C356.132 140.969 356.066 141.169 355.963 141.351C355.86 141.533 355.722 141.693 355.557 141.821L355.383 141.964C355.214 142.108 355.015 142.212 354.8 142.268C354.586 142.324 354.361 142.332 354.144 142.289C353.926 142.246 353.721 142.155 353.543 142.022C353.366 141.889 353.221 141.717 353.119 141.52C352.351 140.356 351.719 139.107 351.235 137.8C350.712 139.102 350.059 140.349 349.287 141.52C349.185 141.717 349.04 141.889 348.863 142.022C348.685 142.155 348.48 142.246 348.262 142.289C348.044 142.332 347.82 142.324 347.605 142.268C347.391 142.212 347.192 142.108 347.023 141.964L346.849 141.821C346.673 141.7 346.526 141.544 346.416 141.361C346.307 141.178 346.237 140.974 346.213 140.763C346.189 140.551 346.211 140.337 346.277 140.134C346.343 139.932 346.452 139.746 346.596 139.589C347.499 138.509 348.519 137.533 349.635 136.676C348.277 136.662 346.925 136.476 345.614 136.121Z" fill="#263238"/>
<path d="M202.782 292.63C191.912 291.636 181.178 291.23 181.178 291.23C177.234 291.35 168.833 291.697 160.161 292.63C162.69 301.272 171.272 307.64 181.464 307.64C191.672 307.655 200.253 301.257 202.782 292.63Z" fill="#50BFD7"/>
<path d="M190.379 308.335C190.379 308.712 190.71 309.148 191.102 309.103C195.543 308.636 198.946 305.204 203.327 305.927C198.931 308.11 195.122 311.903 195.664 317.489C195.724 318.181 196.386 318.452 196.898 318.031C200.045 315.351 203.658 312.957 207.873 313.846C209.68 314.222 211.803 314.93 213.67 314.689C216.455 314.342 218.803 313.078 220.188 310.383C222.627 305.716 221.724 300.115 216.259 298.956C216.124 298.926 216.018 298.941 215.898 298.986C213.88 298.188 212.044 297.18 210.418 295.418C208.852 293.702 207.392 291.805 205.69 290.224C203.417 288.101 200.948 286.43 197.937 287.86C197.485 288.071 197.515 288.719 197.801 289.065C199.126 290.706 200.677 292.272 202.303 293.777C200.677 293.401 199.036 293.205 197.35 293.34C194.339 293.596 190.786 295.599 190.861 299.182C190.876 299.633 191.192 299.904 191.584 299.95C194.354 300.236 197.139 300.191 199.894 300.477C195.603 301.741 190.334 303.187 190.379 308.335Z" fill="#C4C4C4"/>
<path fill-rule="evenodd" clip-rule="evenodd" d="M202.31 287.148C203.698 287.696 204.951 288.71 206.099 289.782C207.25 290.851 208.313 292.084 209.343 293.281C209.854 293.874 210.358 294.458 210.86 295.009C212.355 296.629 214.042 297.586 215.936 298.352C216.074 298.329 216.221 298.33 216.385 298.366C219.334 298.992 221.101 300.845 221.766 303.188C222.421 305.496 221.995 308.221 220.722 310.658C219.226 313.566 216.68 314.919 213.744 315.284C212.715 315.417 211.643 315.286 210.632 315.088C210.123 314.988 209.619 314.869 209.137 314.754C209.086 314.742 209.035 314.729 208.984 314.717C208.554 314.614 208.144 314.515 207.749 314.433L207.748 314.433C203.84 313.61 200.431 315.81 197.287 318.488L197.283 318.491L197.28 318.494C196.87 318.831 196.34 318.93 195.873 318.729C195.406 318.529 195.11 318.078 195.063 317.543C194.572 312.477 197.456 308.842 201.094 306.497C199.884 306.662 198.705 307.1 197.47 307.622C197.196 307.738 196.918 307.859 196.636 307.981C194.965 308.707 193.163 309.49 191.166 309.7C190.716 309.751 190.356 309.52 190.139 309.272C189.924 309.026 189.777 308.686 189.776 308.337C189.752 305.5 191.216 303.679 193.189 302.438C194.229 301.783 195.428 301.278 196.644 300.854C196.336 300.84 196.027 300.826 195.717 300.813L195.704 300.812C194.324 300.752 192.922 300.692 191.52 300.547L191.517 300.546L191.513 300.546C190.87 300.472 190.284 299.992 190.258 299.2L190.258 299.196L190.258 299.193C190.215 297.173 191.204 295.608 192.576 294.537C193.936 293.475 195.692 292.875 197.297 292.739L197.299 292.738L197.3 292.738C198.364 292.653 199.406 292.694 200.432 292.824C199.326 291.736 198.275 290.61 197.333 289.444C197.091 289.149 196.969 288.751 196.99 288.376C197.012 287.987 197.202 287.537 197.679 287.314C199.348 286.522 200.892 286.588 202.31 287.148ZM198.2 288.4C198.197 288.408 198.194 288.422 198.192 288.444C198.19 288.481 198.196 288.528 198.211 288.575C198.226 288.623 198.247 288.658 198.264 288.679L198.267 288.682L198.269 288.685C199.568 290.294 201.096 291.838 202.711 293.333L204.374 294.873L202.166 294.362C200.582 293.995 199.006 293.81 197.398 293.939C195.993 294.059 194.468 294.588 193.317 295.486C192.18 296.375 191.43 297.602 191.462 299.163C191.465 299.242 191.49 299.275 191.506 299.291C191.527 299.312 191.571 299.34 191.649 299.349C193.011 299.49 194.381 299.549 195.769 299.61L195.774 299.61C197.157 299.67 198.558 299.731 199.955 299.876L202.987 300.191L200.063 301.052C199.988 301.075 199.913 301.097 199.838 301.119C197.733 301.738 195.532 302.386 193.83 303.457C192.107 304.541 190.96 306.017 190.98 308.328L190.98 308.331V308.334C190.98 308.341 190.982 308.364 190.995 308.396C191.008 308.427 191.026 308.456 191.046 308.479C191.054 308.488 191.061 308.495 191.066 308.499C192.853 308.306 194.458 307.611 196.128 306.888C196.417 306.763 196.707 306.637 197.001 306.512C198.965 305.682 201.05 304.939 203.423 305.331L205.264 305.634L203.593 306.464C199.292 308.6 195.755 312.21 196.262 317.429L196.262 317.432L196.262 317.435C196.269 317.516 196.292 317.562 196.307 317.586C196.323 317.609 196.338 317.618 196.347 317.622C196.357 317.626 196.372 317.63 196.395 317.626C196.418 317.622 196.459 317.609 196.511 317.567C199.659 314.886 203.475 312.302 207.995 313.254C208.409 313.34 208.837 313.443 209.265 313.546C209.316 313.558 209.367 313.57 209.418 313.583C209.9 313.698 210.382 313.812 210.863 313.906C211.831 314.095 212.754 314.198 213.591 314.09L213.593 314.089L213.594 314.089C216.228 313.762 218.377 312.586 219.652 310.106L219.652 310.104L219.653 310.102C220.819 307.872 221.16 305.465 220.607 303.517C220.064 301.604 218.647 300.077 216.133 299.543L216.13 299.543L216.127 299.542C216.127 299.542 216.126 299.542 216.126 299.542C216.122 299.543 216.116 299.545 216.108 299.548L215.891 299.63L215.675 299.544C213.609 298.727 211.682 297.676 209.974 295.825L209.973 295.823L209.971 295.822C209.418 295.215 208.89 294.602 208.368 293.995C207.366 292.831 206.384 291.69 205.279 290.663L205.278 290.662C204.153 289.612 203.036 288.729 201.868 288.268C200.732 287.82 199.539 287.766 198.2 288.4Z" fill="#2C2C2C"/>
<path fill-rule="evenodd" clip-rule="evenodd" d="M362.143 315.403C362.143 315.101 362.387 314.857 362.688 314.857H380.652C380.953 314.857 381.197 315.101 381.197 315.403C381.197 315.704 380.953 315.948 380.652 315.948H362.688C362.387 315.948 362.143 315.704 362.143 315.403Z" fill="#2C2C2C"/>
<path fill-rule="evenodd" clip-rule="evenodd" d="M23.3965 315.403C23.3965 315.101 23.6406 314.857 23.9416 314.857H356.701C357.002 314.857 357.246 315.101 357.246 315.403C357.246 315.704 357.002 315.948 356.701 315.948H23.9416C23.6406 315.948 23.3965 315.704 23.3965 315.403Z" fill="#2C2C2C"/>
<path fill-rule="evenodd" clip-rule="evenodd" d="M0 315.403C0 315.101 0.244075 314.857 0.545156 314.857H12.8205C13.1215 314.857 13.3656 315.101 13.3656 315.403C13.3656 315.704 13.1215 315.948 12.8205 315.948H0.545156C0.244075 315.948 0 315.704 0 315.403Z" fill="#2C2C2C"/>
<path d="M115.999 256.517H246.229C247.788 256.517 249.282 257.136 250.384 258.238C251.485 259.339 252.104 260.834 252.104 262.392V335.556H110.124V262.392C110.124 260.834 110.743 259.339 111.845 258.238C112.946 257.136 114.441 256.517 115.999 256.517Z" fill="white"/>
<path fill-rule="evenodd" clip-rule="evenodd" d="M115.999 257.264C114.639 257.264 113.335 257.804 112.374 258.766C111.413 259.727 110.873 261.031 110.873 262.39V334.805H251.355V262.39C251.355 261.031 250.815 259.727 249.854 258.766C248.893 257.804 247.589 257.264 246.229 257.264H115.999ZM111.315 257.707C112.557 256.464 114.242 255.767 115.999 255.767H246.229C247.986 255.767 249.671 256.464 250.913 257.707C252.155 258.949 252.853 260.633 252.853 262.39V335.554C252.853 335.967 252.518 336.303 252.104 336.303H110.124C109.71 336.303 109.375 335.967 109.375 335.554V262.39C109.375 260.633 110.073 258.949 111.315 257.707Z" fill="#2C2C2C"/>
<path d="M252.104 282.811C234.269 287.334 215.963 298.849 181.854 315.063C148.956 330.713 122.026 330.443 110.124 329.233V335.554H252.104V282.811Z" fill="#2C2C2C"/>
<path fill-rule="evenodd" clip-rule="evenodd" d="M252.564 282.221C252.746 282.363 252.853 282.581 252.853 282.812V335.555C252.853 335.969 252.518 336.304 252.104 336.304H110.124C109.71 336.304 109.375 335.969 109.375 335.555V329.234C109.375 329.023 109.465 328.821 109.622 328.679C109.779 328.537 109.989 328.468 110.2 328.489C122 329.689 148.785 329.967 181.532 314.388L181.533 314.388C192.767 309.048 202.272 304.224 210.623 299.987C214.948 297.792 218.964 295.754 222.75 293.883C233.825 288.409 242.92 284.369 251.92 282.086C252.144 282.03 252.381 282.079 252.564 282.221ZM182.176 315.741C149.862 331.113 123.261 331.204 110.873 330.059V334.807H251.355V283.781C242.818 286.061 234.088 289.95 223.413 295.226C219.653 297.084 215.649 299.116 211.331 301.307C202.968 305.551 193.424 310.394 182.176 315.741Z" fill="#2C2C2C"/>
<path fill-rule="evenodd" clip-rule="evenodd" d="M109.375 331.172C109.375 330.758 109.71 330.423 110.124 330.423H252.104C252.518 330.423 252.853 330.758 252.853 331.172V335.566C252.853 335.979 252.518 336.315 252.104 336.315H110.124C109.71 336.315 109.375 335.979 109.375 335.566V331.172ZM110.873 331.92V334.817H251.355V331.92H110.873Z" fill="#2C2C2C"/>
<path d="M188.679 176.498C188.679 179.678 185.376 182.256 181.301 182.256C177.226 182.256 173.923 179.678 173.923 176.498C173.923 173.317 177.226 170.739 181.301 170.739C185.376 170.739 188.679 173.317 188.679 176.498Z" fill="white"/>
<path fill-rule="evenodd" clip-rule="evenodd" d="M181.301 180.817C184.933 180.817 187.24 178.571 187.24 176.498C187.24 174.424 184.933 172.179 181.301 172.179C177.669 172.179 175.362 174.424 175.362 176.498C175.362 178.571 177.669 180.817 181.301 180.817ZM181.301 182.256C185.376 182.256 188.679 179.678 188.679 176.498C188.679 173.317 185.376 170.739 181.301 170.739C177.226 170.739 173.923 173.317 173.923 176.498C173.923 179.678 177.226 182.256 181.301 182.256Z" fill="#454545"/>
<path d="M252.978 332.052H107.696V336.548H252.978V332.052Z" fill="white"/>
<path fill-rule="evenodd" clip-rule="evenodd" d="M106.931 332.053C106.931 331.63 107.274 331.287 107.697 331.287H252.979C253.402 331.287 253.745 331.63 253.745 332.053V336.55C253.745 336.973 253.402 337.316 252.979 337.316H107.697C107.274 337.316 106.931 336.973 106.931 336.55V332.053ZM108.463 332.82V335.784H252.212V332.82H108.463Z" fill="#2C2C2C"/>
<path opacity="0.15" d="M161.44 176.485C159.919 175.55 158.511 174.574 157.165 173.598C157.751 172.57 160.361 168.141 160.649 165.664C160.937 163.188 160.649 160.197 158.789 158.471C158.373 158.046 157.872 157.714 157.319 157.496C156.766 157.277 156.174 157.178 155.58 157.203C154.986 157.228 154.404 157.378 153.872 157.642C153.339 157.906 152.868 158.28 152.489 158.738C150.29 161.564 152.212 167.719 154.01 170.361C154.103 170.504 155.264 171.861 156.066 172.827C155.459 172.375 154.832 171.923 154.267 171.481C152.13 169.816 150.28 168.161 148.656 166.682C147.731 165.839 146.919 165.048 146.169 164.308C146.241 163.054 146.467 157.998 145.604 155.706C144.741 153.414 143.055 150.876 140.63 150.167C140.069 149.98 139.475 149.913 138.887 149.97C138.298 150.026 137.728 150.206 137.213 150.496C136.698 150.787 136.249 151.182 135.896 151.656C135.543 152.13 135.293 152.673 135.163 153.25C134.516 156.765 139.058 161.348 141.863 162.869C142.11 163.003 146.138 164.606 146.149 164.544V164.472C146.868 165.202 147.639 165.972 148.492 166.805C150.095 168.316 151.914 170.011 154.021 171.727C156.267 173.607 158.625 175.35 161.081 176.948L162.622 177.904H163.886C163.085 177.462 162.242 176.979 161.44 176.485Z" fill="black"/>
<path opacity="0.15" d="M156.487 173.689C156.487 173.637 152.376 172.229 152.14 172.178C149.057 171.5 142.593 172.024 140.835 175.117C140.345 175.969 140.191 176.973 140.404 177.933H152.921C154.193 176.591 155.384 175.174 156.487 173.689Z" fill="black"/>
<path opacity="0.15" d="M211.98 159.742C211.168 158.982 210.377 158.211 209.585 157.45C209.996 157.193 214.939 154.131 216.429 151.901C217.755 149.918 218.896 147.03 218.074 144.635C217.898 144.068 217.604 143.544 217.212 143.097C216.82 142.651 216.338 142.292 215.798 142.044C215.258 141.795 214.672 141.664 214.078 141.657C213.484 141.65 212.895 141.769 212.35 142.005C209.102 143.505 208.003 149.866 208.393 153.031C208.393 153.268 209.195 156.495 209.421 157.306C207.663 155.631 205.937 153.936 204.282 152.168C202.073 149.824 200.013 147.342 198.116 144.738C198.312 144.625 203.481 141.45 205.012 139.168C206.338 137.185 207.478 134.287 206.646 131.903C206.471 131.336 206.178 130.812 205.787 130.365C205.397 129.918 204.916 129.559 204.377 129.31C203.839 129.061 203.253 128.928 202.66 128.919C202.066 128.911 201.478 129.028 200.932 129.262C197.685 130.772 196.575 137.133 196.965 140.299C196.965 140.545 197.839 144.019 197.993 144.635L197.644 144.183C195.809 141.517 194.213 138.693 192.875 135.746C192.115 134.133 191.488 132.54 190.902 130.978C191.93 130.484 196.575 128.193 198.178 126.292C199.781 124.39 201.169 121.708 200.614 119.252C200.501 118.668 200.267 118.113 199.926 117.625C199.586 117.137 199.146 116.726 198.637 116.419C198.127 116.112 197.558 115.915 196.968 115.842C196.377 115.769 195.777 115.821 195.208 115.994C191.817 117.135 190.07 123.332 190.07 126.528C190.07 126.703 190.286 128.46 190.46 129.745C190.214 129.035 189.936 128.316 189.71 127.628C188.847 125.069 188.21 122.664 187.655 120.537C187.357 119.314 187.11 118.214 186.884 117.176C187.634 116.149 190.625 112.038 191.159 109.695C191.694 107.352 191.704 104.258 190.07 102.326C189.702 101.86 189.239 101.476 188.713 101.199C188.187 100.923 187.608 100.761 187.015 100.723C186.421 100.685 185.827 100.773 185.27 100.98C184.712 101.187 184.205 101.509 183.781 101.926C181.294 104.505 182.558 110.835 184.068 113.651C184.192 113.888 186.668 117.464 186.709 117.413V117.351C186.894 118.379 187.11 119.406 187.377 120.588C187.871 122.736 188.456 125.151 189.268 127.782C190.112 130.577 191.114 133.322 192.269 136.003C193.563 139.014 195.117 141.905 196.914 144.646L196.986 144.738C196.174 144.08 193.831 142.323 193.636 142.21C190.882 140.586 184.603 139.127 181.931 141.46C181.5 141.868 181.159 142.363 180.931 142.911C180.703 143.46 180.593 144.05 180.608 144.644C180.622 145.238 180.761 145.822 181.016 146.358C181.27 146.895 181.634 147.372 182.085 147.759C183.945 149.465 187.059 149.568 189.402 149.137C192.053 148.654 196.832 145.314 197.212 145.026C199.115 147.769 201.199 150.382 203.45 152.846C204.755 154.295 206.112 155.703 207.489 157.101C206.769 156.556 206.112 156.073 206.019 156.022C203.255 154.398 196.986 152.939 194.314 155.272C193.883 155.68 193.543 156.175 193.315 156.723C193.087 157.272 192.977 157.862 192.991 158.456C193.006 159.05 193.145 159.634 193.399 160.17C193.653 160.707 194.018 161.184 194.468 161.571C196.328 163.277 199.442 163.38 201.785 162.948C204.128 162.517 208.301 159.752 209.39 159.002L210.993 160.605C213.562 163.144 216.131 165.661 218.598 168.22C219.461 169.114 220.283 170.029 221.105 170.954C220.458 170.461 219.913 170.06 219.821 170.008C217.067 168.395 210.798 166.925 208.126 169.268C207.693 169.676 207.352 170.171 207.123 170.719C206.894 171.268 206.783 171.858 206.798 172.453C206.812 173.047 206.952 173.631 207.207 174.168C207.463 174.705 207.828 175.182 208.28 175.568C210.14 177.274 213.244 177.377 215.597 176.945C217.95 176.513 221.712 174.006 223.007 173.132C223.818 174.088 224.63 175.054 225.38 176.02C225.833 176.647 226.316 177.223 226.747 177.86H228.926L228.309 176.997C227.847 176.318 227.282 175.661 226.737 174.941C225.493 173.389 224.157 171.858 222.77 170.378C223.942 169.649 228.032 166.987 229.368 164.993C230.704 163 231.834 160.112 231.012 157.728C230.836 157.16 230.542 156.636 230.15 156.189C229.758 155.743 229.277 155.383 228.737 155.134C228.198 154.885 227.612 154.752 227.018 154.744C226.423 154.736 225.834 154.853 225.288 155.087C222.041 156.597 220.931 162.959 221.331 166.124C221.331 166.319 221.886 168.57 222.205 169.793C221.373 168.899 220.54 168.004 219.656 167.131C217.231 164.726 214.59 162.25 211.98 159.742Z" fill="black"/>
<path opacity="0.15" d="M189.947 176.956C189.947 174.572 189.31 171.53 187.306 169.989C186.846 169.613 186.312 169.339 185.739 169.183C185.166 169.027 184.566 168.993 183.98 169.083C183.393 169.173 182.831 169.385 182.331 169.706C181.831 170.026 181.405 170.448 181.078 170.945C179.989 172.722 180.41 175.466 181.366 177.933H189.854C189.908 177.61 189.939 177.284 189.947 176.956Z" fill="black"/>
<path opacity="0.15" d="M181.624 132.663C184.409 132.899 190.318 130.752 190.318 130.752C190.318 130.752 187.718 127.288 187.533 127.093C185.303 124.801 179.651 121.687 176.444 123.28C175.912 123.558 175.444 123.946 175.073 124.419C174.702 124.891 174.436 125.437 174.292 126.02C174.148 126.603 174.13 127.21 174.239 127.801C174.348 128.392 174.581 128.953 174.923 129.446C176.27 131.533 179.24 132.457 181.624 132.663Z" fill="black"/>
<path opacity="0.15" d="M205.455 173.78C204.996 173.403 204.462 173.127 203.889 172.97C203.316 172.813 202.716 172.779 202.128 172.869C201.541 172.959 200.979 173.172 200.479 173.493C199.98 173.815 199.553 174.238 199.228 174.736C198.699 175.712 198.483 176.828 198.611 177.932H207.809C207.532 176.316 206.699 174.848 205.455 173.78Z" fill="black"/>
<path opacity="0.15" d="M173.413 172.659C173.413 170.275 172.776 167.233 170.772 165.702C170.313 165.323 169.779 165.046 169.206 164.888C168.632 164.73 168.032 164.695 167.444 164.786C166.856 164.876 166.294 165.089 165.794 165.412C165.294 165.734 164.868 166.159 164.544 166.658C162.694 169.658 165.181 175.444 167.247 177.962H172.067C172.783 176.273 173.237 174.485 173.413 172.659Z" fill="black"/>
<path d="M196.566 91.1376V82.2586H198.766C199.209 82.2356 199.65 82.3352 200.04 82.5464C200.361 82.7404 200.607 83.0374 200.739 83.389C200.894 83.8133 200.967 84.2632 200.955 84.7147C200.965 85.1324 200.88 85.5469 200.708 85.9274C200.553 86.261 200.298 86.5377 199.978 86.7187C199.612 86.9244 199.196 87.0241 198.776 87.0064H197.748V91.1171L196.566 91.1376ZM197.8 86.1123H198.365C198.653 86.121 198.941 86.0828 199.218 85.9993C199.412 85.9214 199.567 85.7699 199.649 85.578C199.751 85.3056 199.797 85.0154 199.783 84.725C199.793 84.397 199.762 84.069 199.69 83.7487C199.666 83.6454 199.618 83.5491 199.55 83.4672C199.482 83.3853 199.397 83.3199 199.3 83.276C199.006 83.1747 198.696 83.1294 198.385 83.1424H197.8V86.1123Z" fill="#CCCCCC"/>
<path d="M200.953 91.1363L202.834 82.2573H204.026L205.927 91.1363H204.786L204.375 88.896H202.567L202.145 91.1363H200.953ZM202.7 88.0533H204.18L203.44 84.0557L202.7 88.0533Z" fill="#CCCCCC"/>
<path d="M208.897 91.2275C208.45 91.243 208.007 91.1288 207.623 90.8986C207.283 90.6797 207.015 90.3651 206.852 89.9943C206.664 89.566 206.559 89.1055 206.544 88.6378L207.633 88.35C207.653 88.6561 207.704 88.9592 207.787 89.2544C207.845 89.5227 207.973 89.7709 208.157 89.9738C208.362 90.1489 208.623 90.2451 208.892 90.2451C209.162 90.2451 209.422 90.1489 209.627 89.9738C209.805 89.758 209.893 89.4821 209.874 89.203C209.892 88.859 209.794 88.519 209.596 88.237C209.392 87.9679 209.161 87.72 208.908 87.4971L207.417 86.1817C207.146 85.9481 206.926 85.6613 206.77 85.339C206.625 84.9839 206.555 84.6024 206.564 84.2188C206.551 83.9426 206.593 83.6665 206.688 83.4069C206.783 83.1474 206.93 82.9097 207.119 82.7082C207.324 82.5212 207.564 82.3775 207.825 82.2856C208.087 82.1938 208.364 82.1558 208.64 82.1738C208.954 82.1667 209.267 82.2118 209.565 82.3074C209.821 82.3879 210.051 82.533 210.233 82.7287C210.428 82.9338 210.576 83.1794 210.665 83.4481C210.777 83.7809 210.85 84.1259 210.881 84.4757L209.853 84.7635C209.835 84.4932 209.794 84.225 209.73 83.9619C209.67 83.7348 209.549 83.5286 209.38 83.3659C209.18 83.2046 208.928 83.1239 208.671 83.1398C208.531 83.1142 208.386 83.1231 208.25 83.1657C208.113 83.2083 207.989 83.2834 207.888 83.3844C207.787 83.4854 207.712 83.6094 207.669 83.7458C207.627 83.8822 207.618 84.0269 207.644 84.1675C207.637 84.3985 207.686 84.6277 207.787 84.8354C207.9 85.0398 208.05 85.2211 208.229 85.3698L209.73 86.6852C210.071 86.985 210.368 87.3309 210.613 87.7129C210.879 88.145 211.015 88.6445 211.004 89.1516C211.015 89.5498 210.919 89.9437 210.727 90.2923C210.55 90.6009 210.29 90.8537 209.976 91.022C209.638 91.1739 209.268 91.2443 208.897 91.2275Z" fill="#CCCCCC"/>
<path d="M214.097 91.2284C213.649 91.2439 213.206 91.1297 212.822 90.8995C212.482 90.6805 212.214 90.3659 212.051 89.9952C211.868 89.5653 211.763 89.1057 211.743 88.6386L212.832 88.3509C212.857 88.6563 212.909 88.9589 212.987 89.2552C213.048 89.5244 213.179 89.7726 213.367 89.9746C213.569 90.151 213.828 90.2481 214.097 90.2481C214.365 90.2481 214.624 90.151 214.826 89.9746C215.004 89.7589 215.093 89.4829 215.073 89.2039C215.091 88.8599 214.993 88.5198 214.795 88.2379C214.591 87.9687 214.361 87.7209 214.107 87.4979L212.617 86.1825C212.345 85.949 212.125 85.6622 211.969 85.3398C211.824 84.9848 211.754 84.6033 211.764 84.2197C211.75 83.9435 211.792 83.6674 211.887 83.4078C211.983 83.1482 212.129 82.9105 212.319 82.709C212.738 82.3357 213.289 82.1436 213.85 82.1746C214.163 82.1675 214.476 82.2127 214.775 82.3082C215.029 82.3912 215.258 82.536 215.443 82.7296C215.631 82.9381 215.774 83.1829 215.864 83.4489C215.981 83.7803 216.054 84.126 216.08 84.4766L215.052 84.7643C215.031 84.4938 214.986 84.2256 214.919 83.9628C214.859 83.7357 214.738 83.5294 214.569 83.3667C214.372 83.2078 214.123 83.1274 213.87 83.1406C213.608 83.1279 213.35 83.2161 213.151 83.3873C213.06 83.4843 212.99 83.5993 212.945 83.725C212.901 83.8506 212.884 83.9841 212.894 84.1169C212.884 84.3471 212.93 84.5763 213.028 84.7849C213.14 84.9893 213.29 85.1706 213.47 85.3193L214.97 86.6347C215.314 86.9342 215.615 87.28 215.864 87.6624C216.121 88.0975 216.253 88.5956 216.244 89.1011C216.255 89.4993 216.16 89.8932 215.967 90.2418C215.79 90.5504 215.53 90.8032 215.217 90.9714C214.87 91.1487 214.485 91.237 214.097 91.2284Z" fill="#CCCCCC"/>
<path d="M113.66 121.806C111.086 132.425 116.878 171.04 126.371 185.649C126.371 185.649 153.884 203.509 239.819 193.372C239.819 193.372 225.918 188.932 238.934 138.008C239.208 136.914 239.498 135.82 239.803 134.677C241.573 128.081 228.621 116.769 226.288 112.795C209.474 84.2683 113.66 121.806 113.66 121.806Z" fill="#2C2C2C"/>
<path d="M142.994 234.626C142.994 234.626 129.608 299.5 123.51 303.071C118.602 305.952 125.138 309.312 110.85 304.501L110.85 294.423L107.971 289.384L111.893 276.942C111.893 276.942 125.424 211.022 135.142 210.218C144.877 209.397 142.994 234.626 142.994 234.626Z" fill="#2C2C2C"/>
<path d="M234.371 229.398C234.371 229.398 250.831 293.56 246.921 299.447C243.777 304.19 251.124 304.339 236.175 306.291L231.75 297.237L226.95 293.974L225.01 281.073C225.01 281.073 208.22 215.907 216.598 210.917C224.983 205.905 234.371 229.398 234.371 229.398Z" fill="#2C2C2C"/>
<path d="M241.078 229.944C241.078 240.209 234.353 246.565 224.087 246.565C213.822 246.565 205.504 238.246 205.504 227.981C205.504 217.716 213.259 206.389 223.042 209.462C233.822 212.824 241.078 219.679 241.078 229.944Z" fill="white"/>
<path fill-rule="evenodd" clip-rule="evenodd" d="M211.093 214.138C208.035 217.747 206.146 222.996 206.146 227.984C206.146 237.893 214.176 245.924 224.086 245.924C229.085 245.924 233.16 244.378 235.983 241.644C238.802 238.912 240.433 234.934 240.433 229.946C240.433 220.073 233.482 213.396 222.848 210.079L222.847 210.078C218.274 208.642 214.142 210.54 211.093 214.138ZM223.232 208.85C218.022 207.214 213.386 209.442 210.111 213.306C206.847 217.158 204.858 222.706 204.858 227.984C204.858 238.604 213.465 247.211 224.086 247.211C229.351 247.211 233.771 245.578 236.878 242.568C239.988 239.556 241.72 235.224 241.72 229.946C241.72 219.289 234.158 212.258 223.232 208.85Z" fill="#2C2C2C"/>
<path d="M232.725 226.951C232.725 234.545 227.753 239.243 220.159 239.243C212.564 239.243 206.418 233.097 206.418 225.502C206.418 217.908 212.146 209.525 219.402 211.794C227.351 214.304 232.725 219.372 232.725 226.951Z" fill="#2C2C2C"/>
<path d="M116.382 229.943C116.382 240.209 123.107 246.564 133.373 246.564C143.638 246.564 151.94 238.23 151.94 227.98C151.94 217.731 144.185 206.388 134.402 209.461C123.638 212.824 116.382 219.678 116.382 229.943Z" fill="white"/>
<path fill-rule="evenodd" clip-rule="evenodd" d="M147.331 213.312C150.595 217.166 152.584 222.713 152.584 227.983C152.584 238.586 143.994 247.21 133.373 247.21C128.107 247.21 123.687 245.578 120.58 242.568C117.471 239.556 115.738 235.223 115.738 229.946C115.738 219.289 123.3 212.258 134.21 208.85C139.42 207.213 144.057 209.446 147.331 213.312ZM146.349 214.143C143.299 210.543 139.167 208.641 134.595 210.078L134.594 210.078C123.976 213.395 117.025 220.072 117.025 229.946C117.025 234.934 118.656 238.912 121.476 241.643C124.298 244.378 128.373 245.923 133.373 245.923C143.281 245.923 151.296 237.878 151.296 227.983C151.296 223.004 149.407 217.755 146.349 214.143Z" fill="#2C2C2C"/>
<path d="M124.747 226.951C124.747 234.545 129.719 239.243 137.313 239.243C144.907 239.243 151.054 233.097 151.054 225.502C151.054 217.908 145.326 209.525 138.085 211.794C130.105 214.304 124.747 219.372 124.747 226.951Z" fill="#2C2C2C"/>
<path d="M202.121 312.308C190.504 311.246 179.032 310.812 179.032 310.812C174.817 310.94 165.839 311.31 156.571 312.308C159.274 321.543 168.445 328.349 179.338 328.349C190.247 328.365 199.418 321.527 202.121 312.308Z" fill="#50BFD7"/>
<path d="M201.176 313.273C202.173 309.347 222.14 209.302 222.14 209.302C222.14 209.302 168.851 193.566 134.773 209.302L156.623 314.142L201.176 313.273Z" fill="white"/>
<path fill-rule="evenodd" clip-rule="evenodd" d="M222.32 208.685C222.321 208.686 222.321 208.686 222.139 209.303C222.77 209.429 222.77 209.429 222.77 209.43L222.769 209.433L222.545 210.553C222.399 211.287 222.184 212.364 221.91 213.735C221.362 216.479 220.578 220.402 219.634 225.123C217.747 234.563 215.22 247.192 212.661 259.943C207.548 285.427 202.302 311.449 201.797 313.433L201.677 313.908L156.1 314.797L134.037 208.933L134.502 208.719C151.706 200.774 173.694 200.792 191.306 202.762C200.125 203.749 207.874 205.229 213.419 206.462C216.192 207.078 218.415 207.634 219.946 208.035C220.711 208.236 221.303 208.398 221.705 208.51C221.906 208.566 222.059 208.61 222.163 208.64C222.214 208.655 222.253 208.666 222.28 208.674L222.31 208.682L222.318 208.685L222.32 208.685ZM222.139 209.303L222.77 209.429L222.885 208.852L222.321 208.686L222.139 209.303ZM221.391 209.759C221.381 209.756 221.37 209.753 221.359 209.75C220.963 209.639 220.377 209.479 219.619 209.28C218.102 208.882 215.895 208.331 213.14 207.718C207.628 206.493 199.926 205.022 191.163 204.042C173.771 202.096 152.313 202.095 135.507 209.675L157.143 313.489L200.66 312.641C201.572 308.551 206.538 283.921 211.399 259.69C213.957 246.939 216.485 234.311 218.372 224.87C219.316 220.15 220.1 216.227 220.648 213.483C220.922 212.112 221.136 211.035 221.283 210.301L221.391 209.759Z" fill="black"/>
<path d="M201.176 313.273C202.173 309.347 222.14 209.302 222.14 209.302C222.14 209.302 168.851 193.566 134.773 209.302L156.623 314.142L201.176 313.273Z" fill="white"/>
<path fill-rule="evenodd" clip-rule="evenodd" d="M222.32 208.685C222.321 208.686 222.321 208.686 222.139 209.303C222.77 209.429 222.77 209.429 222.77 209.43L222.769 209.433L222.545 210.553C222.399 211.287 222.184 212.364 221.91 213.735C221.362 216.479 220.578 220.402 219.634 225.123C217.747 234.563 215.22 247.192 212.661 259.943C207.548 285.427 202.302 311.449 201.797 313.433L201.677 313.908L156.1 314.797L134.037 208.933L134.502 208.719C151.706 200.774 173.694 200.792 191.306 202.762C200.125 203.749 207.874 205.229 213.419 206.462C216.192 207.078 218.415 207.634 219.946 208.035C220.711 208.236 221.303 208.398 221.705 208.51C221.906 208.566 222.059 208.61 222.163 208.64C222.214 208.655 222.253 208.666 222.28 208.674L222.31 208.682L222.318 208.685L222.32 208.685ZM222.139 209.303L222.77 209.429L222.885 208.852L222.321 208.686L222.139 209.303ZM221.391 209.759C221.381 209.756 221.37 209.753 221.359 209.75C220.963 209.639 220.377 209.479 219.619 209.28C218.102 208.882 215.895 208.331 213.14 207.718C207.628 206.493 199.926 205.022 191.163 204.042C173.771 202.096 152.313 202.095 135.507 209.675L157.143 313.489L200.66 312.641C201.572 308.551 206.538 283.921 211.399 259.69C213.957 246.939 216.485 234.311 218.372 224.87C219.316 220.15 220.1 216.227 220.648 213.483C220.922 212.112 221.136 211.035 221.283 210.301L221.391 209.759Z" fill="#2C2C2C"/>
<path d="M209.204 206.228C194.321 203.236 169.157 199.825 147.532 204.973C150.09 221.111 152.649 237.265 155.207 253.403C157.266 264.344 167.644 271.633 178.473 271.697C189.301 271.633 199.679 264.361 201.738 253.403C204.216 237.668 206.71 221.948 209.204 206.228Z" fill="#50BFD7"/>
<path fill-rule="evenodd" clip-rule="evenodd" d="M147.381 204.347C169.147 199.165 194.426 202.601 209.328 205.597L209.934 205.719L209.836 206.339C207.342 222.056 204.849 237.772 202.372 253.503L202.37 253.513L202.368 253.522C200.243 264.831 189.558 272.275 178.474 272.341L178.47 272.341L178.466 272.341C167.382 272.275 156.698 264.814 154.572 253.522L154.57 253.513L154.569 253.504C153.29 245.436 152.011 237.364 150.732 229.292L150.732 229.289C149.452 221.216 148.173 213.143 146.894 205.074L146.801 204.485L147.381 204.347ZM148.259 205.464C149.507 213.335 150.755 221.21 152.002 229.085L152.003 229.088C153.281 237.158 154.56 245.227 155.839 253.293C157.836 263.877 167.903 270.989 178.47 271.054C189.038 270.989 199.104 263.893 201.102 253.294C203.547 237.765 206.008 222.251 208.469 206.738C193.674 203.808 169.321 200.612 148.259 205.464Z" fill="#2C2C2C"/>
<path d="M176.623 211.942C181.707 211.942 189.607 210.397 189.607 205.329L188.304 188.403L187.161 173.6C187.161 168.516 183.042 164.413 177.974 164.413C175.432 164.413 173.147 165.443 171.474 167.1C169.817 168.757 168.771 171.058 168.771 173.6L167.645 188.419L166.567 202.626C165.118 211.202 176.623 211.942 176.623 211.942Z" fill="#2C2C2C"/>
<path d="M206.354 78.1543C198.744 68.7901 188.109 63.1426 174.465 63.1426C143.556 63.1426 113.34 91.6374 113.34 127.18C113.34 162.722 138.391 191.538 169.3 191.538C172.276 191.538 175.156 191.281 177.924 190.766C178.213 192.327 178.374 193.936 178.374 195.577C178.374 195.883 178.358 196.172 178.358 196.462C263.569 175.835 249.62 72.8929 206.354 78.1543Z" fill="#2C2C2C"/>
<path d="M139.903 163.076C145.635 163.076 150.281 158.43 150.281 152.698C150.281 146.967 145.635 142.32 139.903 142.32C134.172 142.32 129.525 146.967 129.525 152.698C129.525 158.43 134.172 163.076 139.903 163.076Z" fill="white"/>
<path fill-rule="evenodd" clip-rule="evenodd" d="M139.901 142.965C134.525 142.965 130.167 147.324 130.167 152.7C130.167 158.076 134.525 162.434 139.901 162.434C145.277 162.434 149.636 158.076 149.636 152.7C149.636 147.324 145.277 142.965 139.901 142.965ZM128.88 152.7C128.88 146.613 133.814 141.678 139.901 141.678C145.988 141.678 150.923 146.613 150.923 152.7C150.923 158.787 145.988 163.721 139.901 163.721C133.814 163.721 128.88 158.787 128.88 152.7Z" fill="#2C2C2C"/>
<path d="M212.984 163.076C218.716 163.076 223.362 158.43 223.362 152.698C223.362 146.967 218.716 142.32 212.984 142.32C207.253 142.32 202.606 146.967 202.606 152.698C202.606 158.43 207.253 163.076 212.984 163.076Z" fill="white"/>
<path fill-rule="evenodd" clip-rule="evenodd" d="M212.984 142.965C207.608 142.965 203.25 147.324 203.25 152.7C203.25 158.076 207.608 162.434 212.984 162.434C218.36 162.434 222.719 158.076 222.719 152.7C222.719 147.324 218.36 142.965 212.984 142.965ZM201.963 152.7C201.963 146.613 206.897 141.678 212.984 141.678C219.071 141.678 224.006 146.613 224.006 152.7C224.006 158.787 219.071 163.721 212.984 163.721C206.897 163.721 201.963 158.787 201.963 152.7Z" fill="#2C2C2C"/>
<path d="M177.426 195.996C199.703 195.996 217.763 170.43 217.763 138.893C217.763 107.357 199.703 81.791 177.426 81.791C155.148 81.791 137.089 107.357 137.089 138.893C137.089 170.43 155.148 195.996 177.426 195.996Z" fill="white"/>
<path fill-rule="evenodd" clip-rule="evenodd" d="M149.428 98.8873C142.214 109.1 137.732 123.242 137.732 138.893C137.732 154.545 142.214 168.687 149.428 178.899C156.643 189.114 166.551 195.352 177.425 195.352C188.298 195.352 198.206 189.114 205.422 178.899C212.636 168.687 217.118 154.545 217.118 138.893C217.118 123.242 212.636 109.1 205.422 98.8873C198.206 88.673 188.298 82.4346 177.425 82.4346C166.551 82.4346 156.643 88.673 149.428 98.8873ZM148.377 98.1446C155.76 87.6919 166.021 81.1475 177.425 81.1475C188.828 81.1475 199.089 87.6919 206.473 98.1446C213.858 108.599 218.405 123.008 218.405 138.893C218.405 154.779 213.858 169.188 206.473 179.642C199.089 190.095 188.828 196.639 177.425 196.639C166.021 196.639 155.76 190.095 148.377 179.642C140.992 169.188 136.444 154.779 136.444 138.893C136.444 123.008 140.992 108.599 148.377 98.1446Z" fill="#2C2C2C"/>
<path d="M131.2 126.231C131.2 126.231 165.536 127.904 176.975 107.245C176.975 107.245 201.818 128.741 225.534 127.067L223.298 117.574L214.094 99.4251L208.511 92.7318L197.071 80.7289L181.722 74.3091L163.299 76.8191L138.73 93.5684L135.657 104.735L131.2 126.231Z" fill="#2C2C2C"/>
<path d="M178.423 161.209C178.439 161.306 178.229 161.483 177.763 161.483C177.312 161.499 176.62 161.29 176.009 160.711C175.703 160.421 175.43 160.067 175.221 159.616C175.189 159.552 175.172 159.488 175.14 159.423L175.108 159.327L175.076 159.246L175.028 159.102C175.012 159.037 174.995 158.957 174.963 158.892C174.899 158.651 174.851 158.394 174.835 158.12C174.738 157.058 174.947 155.98 175.205 154.95C176.202 150.831 177.377 147.597 177.811 147.694C178.246 147.807 177.795 151.218 176.797 155.337C176.54 156.35 176.347 157.267 176.347 158.04C176.347 158.233 176.363 158.426 176.379 158.603L176.395 158.667V158.699V158.715V158.732C176.395 158.732 176.379 158.683 176.395 158.699L176.427 158.86L176.444 158.941L176.46 158.989L176.492 159.085C176.588 159.391 176.733 159.681 176.894 159.906C177.216 160.373 177.602 160.662 177.908 160.823C178.181 161.032 178.406 161.097 178.423 161.209Z" fill="#2C2C2C"/>
<path d="M133.822 145.441C133.371 143.655 133.033 141.837 132.76 140.003C132.502 138.169 132.325 136.334 132.229 134.484C132.068 130.783 132.213 127.051 132.711 123.366C133.21 119.665 134.063 116.013 135.27 112.473C135.334 112.248 135.414 112.023 135.495 111.814L135.736 111.154L136.219 109.835L136.766 108.531L137.039 107.888C137.136 107.679 137.216 107.453 137.329 107.244C138.118 105.539 138.97 103.849 139.936 102.24C141.85 98.9901 144.087 95.9331 146.661 93.1496C149.252 90.3822 152.164 87.9044 155.35 85.8288C155.736 85.5553 156.154 85.3139 156.556 85.0726C156.959 84.8312 157.377 84.5738 157.779 84.3485L159.05 83.6728L159.678 83.3349C159.887 83.2223 160.112 83.1257 160.321 83.0292L161.625 82.4339C161.737 82.3856 161.834 82.3373 161.946 82.2891L162.284 82.1603L162.944 81.9029L163.604 81.6455C163.829 81.565 164.038 81.4685 164.279 81.388L165.647 80.9375C169.283 79.763 173.113 79.1677 176.942 79.0872C178.857 79.0228 180.771 79.1677 182.67 79.3768C183.153 79.4412 183.619 79.5216 184.086 79.586L184.794 79.6986C184.906 79.7147 185.035 79.7308 185.148 79.763L185.502 79.8434L186.901 80.1491C187.368 80.2457 187.835 80.3744 188.285 80.5031C191.97 81.5328 195.526 83.0292 198.776 85.0243L199.982 85.7805C200.192 85.9092 200.385 86.0379 200.578 86.1828L201.157 86.585L201.736 86.9872C201.929 87.116 202.122 87.2608 202.315 87.4056L203.442 88.2744L204.005 88.7088L204.552 89.1754L205.63 90.1086C205.984 90.4143 206.322 90.7522 206.66 91.0901L207.174 91.5889C207.351 91.7498 207.512 91.9107 207.673 92.0877L208.655 93.1174L209.137 93.6323L209.604 94.1632L210.537 95.2413C210.698 95.4182 210.843 95.6113 210.988 95.7883L211.422 96.3514C211.712 96.7215 212.001 97.0916 212.291 97.4777L213.112 98.6362C213.675 99.3924 214.157 100.213 214.672 101.001C216.667 104.203 218.292 107.614 219.58 111.122C220.867 114.645 221.784 118.282 222.363 121.966L222.476 122.658L222.524 122.996L222.556 123.35L222.717 124.734C222.846 125.651 222.878 126.584 222.958 127.517C223.071 129.367 223.103 131.234 223.055 133.084L223.039 133.776L223.007 134.468C222.974 134.935 222.958 135.385 222.91 135.852C222.846 136.769 222.749 137.702 222.637 138.619C222.395 140.453 222.09 142.271 221.687 144.073C221.913 142.239 222.09 140.421 222.154 138.587C222.234 136.753 222.25 134.918 222.17 133.1C222.09 131.282 221.961 129.448 221.736 127.646C221.607 126.745 221.51 125.844 221.333 124.943L221.092 123.607L221.028 123.269L220.947 122.932L220.802 122.272C220.046 118.716 218.968 115.241 217.601 111.91L217.343 111.283L217.07 110.671L216.506 109.432C216.329 109.014 216.12 108.628 215.911 108.226L215.3 107.019C215.091 106.617 214.865 106.231 214.64 105.844C214.415 105.458 214.206 105.056 213.964 104.67L213.256 103.527C213.015 103.141 212.79 102.755 212.532 102.401C212.017 101.661 211.535 100.905 210.988 100.197L210.183 99.1189C209.91 98.7649 209.62 98.427 209.33 98.073L208.896 97.5582C208.751 97.3812 208.606 97.2042 208.462 97.0433L207.561 96.0457L207.11 95.547L206.643 95.0643L205.694 94.115C203.136 91.6372 200.288 89.4651 197.215 87.663C194.158 85.861 190.859 84.4933 187.448 83.5762C186.596 83.3188 185.727 83.174 184.874 82.9809L184.552 82.9166C184.44 82.9005 184.327 82.8844 184.231 82.8683L183.571 82.7717C183.136 82.7074 182.702 82.6269 182.268 82.5787C180.514 82.4017 178.744 82.273 176.99 82.3212C173.467 82.3856 169.943 82.9166 166.58 83.9946L165.325 84.3968C165.116 84.4612 164.907 84.5416 164.698 84.6221L164.086 84.8634L163.475 85.1047L163.169 85.2174C163.073 85.2496 162.96 85.3139 162.863 85.3461L161.657 85.8931C161.464 85.9897 161.254 86.0701 161.045 86.1667L160.45 86.4724L159.275 87.0838C158.889 87.309 158.503 87.5343 158.117 87.7435C157.731 87.9687 157.345 88.1779 156.975 88.4353C153.966 90.3339 151.198 92.6025 148.688 95.1447L147.771 96.1262L147.321 96.625C147.24 96.7054 147.16 96.7859 147.096 96.8663L146.886 97.1237L146.018 98.1535C145.873 98.3305 145.728 98.4914 145.583 98.6684L145.165 99.1993L144.344 100.261C144.199 100.438 144.087 100.615 143.942 100.808L143.556 101.355C143.298 101.725 143.041 102.079 142.784 102.466L142.059 103.608C140.145 106.649 138.504 109.883 137.216 113.246C135.913 116.608 134.916 120.116 134.24 123.688L133.982 125.023C133.902 125.474 133.854 125.924 133.773 126.375L133.58 127.726C133.532 128.177 133.484 128.627 133.435 129.078L133.291 130.445L133.21 131.813L133.13 133.181C133.114 133.631 133.098 134.098 133.081 134.548C133.049 136.383 133.081 138.201 133.21 140.035C133.355 141.789 133.564 143.607 133.822 145.441Z" fill="#50BFD7"/>
<path d="M166.934 141.918C166.934 146.503 162.96 150.22 158.069 150.22C153.161 150.22 149.203 146.503 149.203 141.918C149.203 137.332 153.177 133.615 158.069 133.615C162.96 133.615 166.934 137.332 166.934 141.918Z" fill="white"/>
<path fill-rule="evenodd" clip-rule="evenodd" d="M158.069 134.257C153.492 134.257 149.847 137.725 149.847 141.916C149.847 146.107 153.477 149.574 158.069 149.574C162.645 149.574 166.29 146.106 166.29 141.916C166.29 137.725 162.645 134.257 158.069 134.257ZM148.56 141.916C148.56 136.935 152.863 132.97 158.069 132.97C163.275 132.97 167.578 136.935 167.578 141.916C167.578 146.896 163.275 150.861 158.069 150.861C152.846 150.861 148.56 146.895 148.56 141.916Z" fill="#2C2C2C"/>
<path d="M153.728 141.403C153.728 145.184 156.189 148.257 159.214 148.257C162.239 148.257 164.701 145.184 164.701 141.403C164.701 137.622 162.239 134.548 159.214 134.548C156.173 134.532 153.728 137.605 153.728 141.403Z" fill="#50BFD7"/>
<path d="M155.303 141.403C155.303 144.089 157.04 146.262 159.196 146.262C161.352 146.262 163.09 144.089 163.09 141.403C163.09 138.716 161.352 136.527 159.196 136.527C157.057 136.527 155.303 138.699 155.303 141.403Z" fill="#2C2C2C"/>
<path d="M155.062 136.785C155.062 137.526 155.963 138.105 157.073 138.105C158.183 138.105 159.084 137.51 159.084 136.785C159.084 136.045 158.183 135.466 157.073 135.466C155.963 135.45 155.062 136.045 155.062 136.785Z" fill="white"/>
<path d="M158.647 132.409C153.161 131.862 148.945 136.817 148.945 141.934C148.945 142.465 149.605 142.561 149.879 142.191C152.115 139.118 152.839 136.093 156.926 134.919C162.959 133.181 166.274 139.375 166.612 144.235C166.66 144.701 167.062 144.283 167.111 143.8C167.658 137.992 164.761 133.02 158.647 132.409Z" fill="#2C2C2C"/>
<path d="M169.478 129.222C169.478 129.222 157.508 117.284 144.636 131.459C144.62 131.459 155.754 124.331 169.478 129.222Z" fill="#2C2C2C"/>
<path d="M205.502 141.918C205.502 146.503 201.528 150.22 196.637 150.22C191.73 150.22 187.771 146.503 187.771 141.918C187.771 137.332 191.746 133.615 196.637 133.615C201.528 133.615 205.502 137.332 205.502 141.918Z" fill="white"/>
<path fill-rule="evenodd" clip-rule="evenodd" d="M196.636 134.257C192.059 134.257 188.414 137.725 188.414 141.916C188.414 146.107 192.044 149.574 196.636 149.574C201.212 149.574 204.858 146.106 204.858 141.916C204.858 137.725 201.212 134.257 196.636 134.257ZM187.127 141.916C187.127 136.935 191.43 132.97 196.636 132.97C201.842 132.97 206.145 136.935 206.145 141.916C206.145 146.896 201.842 150.861 196.636 150.861C191.413 150.861 187.127 146.895 187.127 141.916Z" fill="#2C2C2C"/>
<path d="M192.293 141.403C192.293 145.184 194.755 148.257 197.78 148.257C200.804 148.257 203.266 145.184 203.266 141.403C203.266 137.622 200.804 134.548 197.78 134.548C194.755 134.532 192.293 137.605 192.293 141.403Z" fill="#50BFD7"/>
<path d="M193.884 141.403C193.884 144.089 195.621 146.262 197.778 146.262C199.934 146.262 201.671 144.089 201.671 141.403C201.671 138.716 199.934 136.527 197.778 136.527C195.621 136.527 193.884 138.699 193.884 141.403Z" fill="#2C2C2C"/>
<path d="M193.628 136.785C193.628 137.526 194.529 138.105 195.639 138.105C196.749 138.105 197.65 137.51 197.65 136.785C197.65 136.045 196.749 135.466 195.639 135.466C194.545 135.45 193.628 136.045 193.628 136.785Z" fill="white"/>
<path d="M197.218 132.409C191.731 131.862 187.516 136.817 187.516 141.934C187.516 142.465 188.175 142.561 188.449 142.191C190.685 139.118 191.409 136.093 195.496 134.919C201.53 133.181 204.844 139.375 205.182 144.235C205.23 144.701 205.633 144.283 205.681 143.8C206.228 137.992 203.348 133.02 197.218 132.409Z" fill="#2C2C2C"/>
<path d="M208.044 127.919C208.044 127.919 196.073 115.981 183.201 130.156C183.201 130.156 194.335 123.028 208.044 127.919Z" fill="#2C2C2C"/>
<path d="M189.508 319.276C189.508 319.678 189.862 320.144 190.28 320.096C195.027 319.597 198.663 315.929 203.345 316.701C198.647 319.034 194.576 323.089 195.156 329.058C195.22 329.798 195.928 330.088 196.475 329.637C199.838 326.773 203.699 324.215 208.204 325.164C210.135 325.567 212.404 326.323 214.399 326.065C217.375 325.695 219.885 324.344 221.366 321.464C223.972 316.476 223.007 310.491 217.166 309.252C217.021 309.219 216.909 309.236 216.78 309.284C214.624 308.431 212.661 307.353 210.923 305.471C209.25 303.636 207.689 301.609 205.871 299.92C203.442 297.651 200.803 295.865 197.585 297.394C197.102 297.619 197.135 298.311 197.44 298.681C198.856 300.435 200.513 302.108 202.251 303.717C200.513 303.315 198.76 303.105 196.958 303.25C193.74 303.524 189.943 305.664 190.023 309.493C190.039 309.976 190.377 310.265 190.795 310.314C193.756 310.619 196.732 310.571 199.677 310.877C195.091 312.228 189.46 313.773 189.508 319.276Z" fill="white"/>
<path fill-rule="evenodd" clip-rule="evenodd" d="M202.26 296.632C203.743 297.217 205.083 298.301 206.31 299.447C207.54 300.59 208.675 301.908 209.777 303.187C210.323 303.821 210.861 304.445 211.398 305.034C212.996 306.764 214.799 307.787 216.823 308.606C216.97 308.582 217.127 308.582 217.303 308.621C220.454 309.29 222.342 311.27 223.053 313.774C223.753 316.241 223.298 319.154 221.937 321.758C220.339 324.866 217.617 326.311 214.48 326.702C213.381 326.844 212.235 326.704 211.154 326.492C210.61 326.386 210.072 326.258 209.556 326.135C209.502 326.122 209.447 326.109 209.393 326.096C208.933 325.986 208.495 325.88 208.073 325.793L208.072 325.792C203.895 324.912 200.252 327.264 196.892 330.125L196.888 330.129L196.884 330.132C196.446 330.493 195.88 330.598 195.381 330.384C194.882 330.17 194.566 329.688 194.515 329.115C193.991 323.702 197.073 319.817 200.961 317.311C199.667 317.487 198.407 317.955 197.088 318.513C196.794 318.637 196.497 318.766 196.196 318.897C194.41 319.673 192.484 320.509 190.351 320.734C189.869 320.788 189.484 320.541 189.253 320.277C189.023 320.014 188.865 319.651 188.865 319.277C188.839 316.246 190.404 314.3 192.512 312.973C193.624 312.273 194.905 311.733 196.205 311.28C195.876 311.265 195.546 311.251 195.214 311.236L195.201 311.236C193.726 311.172 192.227 311.107 190.729 310.952L190.725 310.951L190.722 310.951C190.034 310.872 189.408 310.359 189.38 309.513L189.38 309.509L189.38 309.505C189.334 307.346 190.391 305.674 191.857 304.529C193.31 303.394 195.188 302.753 196.903 302.607L196.905 302.607L196.906 302.607C198.043 302.515 199.157 302.559 200.253 302.699C199.071 301.535 197.948 300.332 196.942 299.086C196.683 298.77 196.552 298.345 196.575 297.944C196.598 297.529 196.801 297.048 197.311 296.809C199.095 295.963 200.745 296.034 202.26 296.632ZM197.868 297.97C197.865 297.979 197.861 297.994 197.86 298.017C197.857 298.057 197.863 298.107 197.879 298.157C197.895 298.208 197.918 298.246 197.937 298.269L197.939 298.272L197.941 298.275C199.33 299.995 200.963 301.645 202.688 303.243L204.465 304.888L202.106 304.342C200.413 303.95 198.729 303.752 197.011 303.89C195.509 304.018 193.879 304.583 192.65 305.543C191.434 306.493 190.633 307.804 190.666 309.473C190.67 309.558 190.696 309.592 190.713 309.609C190.736 309.632 190.783 309.662 190.866 309.672C192.323 309.822 193.786 309.886 195.27 309.95L195.275 309.95C196.753 310.015 198.25 310.08 199.743 310.235L202.984 310.571L199.859 311.492C199.779 311.516 199.698 311.539 199.618 311.563C197.369 312.225 195.016 312.918 193.198 314.062C191.357 315.221 190.13 316.798 190.152 319.268L190.152 319.271V319.274C190.152 319.282 190.154 319.306 190.168 319.34C190.181 319.373 190.201 319.405 190.222 319.429C190.23 319.439 190.238 319.446 190.244 319.451C192.153 319.244 193.868 318.501 195.653 317.728C195.962 317.595 196.272 317.46 196.586 317.327C198.685 316.44 200.914 315.646 203.45 316.064L205.418 316.389L203.632 317.276C199.034 319.558 195.255 323.416 195.796 328.994L195.797 328.997L195.797 329C195.804 329.087 195.828 329.137 195.845 329.162C195.862 329.187 195.878 329.196 195.888 329.201C195.898 329.205 195.914 329.209 195.939 329.205C195.963 329.2 196.007 329.186 196.063 329.141C199.427 326.277 203.505 323.515 208.336 324.533C208.778 324.625 209.236 324.734 209.693 324.844C209.747 324.857 209.802 324.87 209.856 324.883C210.371 325.007 210.887 325.128 211.401 325.229C212.436 325.431 213.421 325.541 214.317 325.425L214.318 325.425L214.319 325.425C217.134 325.075 219.431 323.818 220.793 321.168L220.794 321.166L220.795 321.164C222.041 318.781 222.405 316.208 221.815 314.126C221.234 312.081 219.72 310.449 217.033 309.879L217.03 309.879L217.027 309.878C217.026 309.878 217.026 309.878 217.026 309.878C217.021 309.879 217.015 309.881 217.006 309.885L216.774 309.972L216.543 309.88C214.335 309.007 212.277 307.883 210.451 305.905L210.449 305.904L210.448 305.902C209.857 305.254 209.293 304.599 208.734 303.95C207.663 302.706 206.614 301.486 205.433 300.389L205.432 300.388C204.23 299.265 203.036 298.322 201.788 297.829C200.574 297.35 199.299 297.292 197.868 297.97Z" fill="#2C2C2C"/>
<path fill-rule="evenodd" clip-rule="evenodd" d="M136.284 135.867V136.189H134.997V135.867H136.284Z" fill="#2C2C2C"/>
<path fill-rule="evenodd" clip-rule="evenodd" d="M143.041 139.408V139.73H141.754V139.408H143.041Z" fill="#2C2C2C"/>
<path d="M179.647 137.511C181.851 137.977 181.031 139.409 181.031 139.618C181.031 139.827 181.851 151.734 192.487 154.871C203.122 158.009 209.494 151.846 211.344 148.757C213.194 145.668 214.739 138.331 215.189 137.768C215.656 137.205 217.86 136.223 217.86 136.223L218.118 133.343L215.35 132.523C215.35 132.523 208.367 129.337 198.086 129.192C187.821 129.031 182.012 134.952 182.012 134.952C179.116 134.035 175.528 133.906 172.246 134.952C172.246 134.952 166.438 129.047 156.172 129.192C145.907 129.353 138.908 132.523 138.908 132.523L136.141 133.343L136.398 136.223C136.398 136.223 138.602 137.205 139.069 137.768C139.536 138.331 141.064 145.684 142.914 148.757C144.765 151.846 151.136 158.009 161.771 154.871C172.407 151.734 173.227 139.827 173.227 139.618C173.227 139.409 172.407 137.977 174.611 137.511C176.526 137.108 177.732 137.108 179.647 137.511ZM205.165 152.41C197.056 157.285 187.338 152.361 184.41 145.942C181.481 139.522 183.943 136.127 183.943 136.127C188.85 128.146 208.592 127.808 211.987 136.433C212.567 137.881 213.291 147.534 205.165 152.41ZM142.255 136.433C145.65 127.792 165.408 128.146 170.299 136.127C170.299 136.127 172.761 139.522 169.832 145.942C166.904 152.361 157.202 157.285 149.077 152.41C140.968 147.534 141.692 137.881 142.255 136.433Z" fill="#2C2C2C"/>
<path d="M184.618 223.91H172.261C168.978 223.91 166.308 226.581 166.308 229.863V242.22C166.308 245.502 168.978 248.173 172.261 248.173H184.618C187.9 248.173 190.571 245.502 190.571 242.22V229.863C190.571 226.581 187.916 223.91 184.618 223.91ZM163.025 218.648C161.143 218.648 159.614 220.177 159.614 222.059C159.614 223.942 161.143 225.47 163.025 225.47C164.908 225.47 166.436 223.942 166.436 222.059C166.436 220.177 164.908 218.648 163.025 218.648Z" fill="white"/>
<path d="M183.749 231.279C182.96 229.172 180.949 227.772 178.697 227.772H175.35L181.963 244.537H189.058L183.749 231.279ZM170.233 239.727L168.303 244.537H175.35L178.632 236.219H175.286C173.033 236.219 171.022 237.619 170.233 239.727ZM171.328 231.939C172.486 231.939 173.435 230.99 173.435 229.831C173.435 228.673 172.486 227.724 171.328 227.724C170.169 227.724 169.22 228.673 169.22 229.831C169.22 230.99 170.169 231.939 171.328 231.939Z" fill="#50BFD7"/>
<path d="M210.954 284.476C199.831 283.459 188.848 283.043 188.848 283.043C184.811 283.167 176.215 283.521 167.342 284.476C169.93 293.319 178.711 299.835 189.14 299.835C199.585 299.851 208.366 293.303 210.954 284.476Z" fill="#50BFD7"/>
<path d="M198.264 300.543C198.264 300.928 198.603 301.375 199.003 301.329C203.548 300.851 207.03 297.339 211.512 298.078C207.014 300.312 203.117 304.194 203.671 309.91C203.733 310.618 204.411 310.895 204.934 310.464C208.154 307.722 211.851 305.273 216.165 306.181C218.013 306.567 220.186 307.291 222.096 307.044C224.946 306.69 227.349 305.396 228.766 302.638C231.262 297.863 230.338 292.132 224.746 290.946C224.607 290.915 224.499 290.93 224.376 290.976C222.312 290.16 220.432 289.128 218.768 287.325C217.166 285.569 215.672 283.628 213.931 282.011C211.605 279.838 209.078 278.128 205.997 279.592C205.535 279.808 205.566 280.47 205.859 280.824C207.214 282.504 208.801 284.106 210.465 285.646C208.801 285.261 207.122 285.061 205.397 285.2C202.316 285.461 198.68 287.51 198.757 291.177C198.772 291.639 199.096 291.916 199.496 291.962C202.331 292.255 205.181 292.209 208 292.502C203.61 293.796 198.218 295.275 198.264 300.543Z" fill="#C4C4C4"/>
<path fill-rule="evenodd" clip-rule="evenodd" d="M210.471 278.865C211.891 279.425 213.173 280.463 214.348 281.56C215.526 282.654 216.613 283.916 217.668 285.14C218.19 285.747 218.705 286.345 219.219 286.909C220.75 288.566 222.476 289.545 224.414 290.329C224.554 290.306 224.705 290.307 224.873 290.343C227.891 290.984 229.698 292.88 230.379 295.278C231.049 297.639 230.613 300.428 229.31 302.922C227.78 305.897 225.174 307.282 222.171 307.655C221.118 307.791 220.021 307.657 218.986 307.454C218.466 307.352 217.95 307.231 217.456 307.113C217.404 307.1 217.352 307.088 217.3 307.075C216.86 306.97 216.44 306.869 216.036 306.785L216.035 306.784C212.036 305.942 208.548 308.193 205.331 310.933L205.327 310.937L205.323 310.94C204.904 311.285 204.362 311.385 203.884 311.181C203.406 310.976 203.103 310.514 203.055 309.966C202.553 304.783 205.504 301.064 209.227 298.664C207.988 298.833 206.781 299.28 205.518 299.815C205.237 299.934 204.953 300.057 204.665 300.182C202.955 300.925 201.11 301.726 199.068 301.941C198.607 301.993 198.238 301.757 198.017 301.503C197.796 301.252 197.646 300.904 197.645 300.546C197.62 297.644 199.118 295.781 201.137 294.51C202.202 293.84 203.429 293.324 204.673 292.89C204.358 292.875 204.042 292.861 203.724 292.848L203.711 292.847C202.299 292.786 200.864 292.723 199.43 292.575L199.426 292.575L199.423 292.575C198.764 292.499 198.165 292.008 198.138 291.197L198.138 291.193L198.138 291.19C198.095 289.123 199.107 287.522 200.51 286.426C201.902 285.339 203.699 284.725 205.341 284.586L205.343 284.585L205.344 284.585C206.433 284.498 207.499 284.54 208.549 284.673C207.418 283.559 206.342 282.408 205.378 281.214C205.13 280.912 205.005 280.505 205.027 280.121C205.049 279.723 205.244 279.263 205.732 279.035C207.44 278.224 209.02 278.292 210.471 278.865ZM206.265 280.146C206.262 280.154 206.259 280.169 206.257 280.191C206.255 280.229 206.261 280.277 206.276 280.325C206.292 280.374 206.313 280.41 206.331 280.432L206.333 280.435L206.335 280.437C207.665 282.084 209.228 283.664 210.881 285.194L212.582 286.77L210.323 286.247C208.702 285.871 207.089 285.682 205.444 285.814C204.006 285.936 202.446 286.478 201.269 287.397C200.105 288.306 199.338 289.562 199.37 291.159C199.373 291.24 199.399 291.274 199.415 291.29C199.437 291.311 199.482 291.34 199.561 291.35C200.956 291.494 202.357 291.555 203.778 291.616L203.783 291.617C205.197 291.678 206.631 291.74 208.061 291.889L211.163 292.211L208.171 293.093C208.095 293.115 208.018 293.138 207.941 293.161C205.787 293.794 203.535 294.458 201.794 295.553C200.031 296.663 198.856 298.173 198.877 300.538L198.877 300.54V300.543C198.877 300.551 198.88 300.574 198.893 300.607C198.905 300.639 198.924 300.669 198.944 300.692C198.953 300.701 198.96 300.708 198.965 300.713C200.793 300.515 202.436 299.804 204.145 299.063C204.44 298.936 204.737 298.807 205.038 298.68C207.047 297.83 209.181 297.07 211.61 297.47L213.494 297.781L211.784 298.63C207.382 300.816 203.763 304.51 204.282 309.85L204.282 309.853L204.282 309.856C204.289 309.939 204.312 309.987 204.328 310.011C204.345 310.035 204.36 310.044 204.369 310.048C204.379 310.052 204.394 310.056 204.418 310.052C204.442 310.048 204.483 310.034 204.537 309.991C207.758 307.248 211.663 304.604 216.288 305.578C216.711 305.666 217.15 305.772 217.587 305.877C217.639 305.889 217.691 305.902 217.743 305.914C218.237 306.032 218.73 306.148 219.223 306.245C220.213 306.439 221.157 306.544 222.014 306.433L222.016 306.433L222.017 306.433C224.712 306.098 226.911 304.894 228.215 302.357L228.216 302.355L228.217 302.353C229.41 300.071 229.759 297.608 229.193 295.614C228.638 293.657 227.188 292.094 224.615 291.548L224.612 291.548L224.609 291.547C224.609 291.547 224.608 291.547 224.608 291.547C224.604 291.548 224.598 291.55 224.589 291.553L224.367 291.637L224.146 291.549C222.032 290.713 220.061 289.637 218.313 287.743L218.311 287.742L218.31 287.741C217.744 287.12 217.204 286.492 216.669 285.871C215.644 284.68 214.639 283.512 213.509 282.462L213.508 282.461C212.356 281.386 211.213 280.483 210.018 280.011C208.856 279.553 207.635 279.497 206.265 280.146Z" fill="#2C2C2C"/>
<path d="M113.708 255.66H246.967C248.561 255.66 250.09 256.293 251.217 257.42C252.345 258.548 252.978 260.077 252.978 261.671V336.536H107.696V261.671C107.696 260.077 108.33 258.548 109.457 257.42C110.584 256.293 112.113 255.66 113.708 255.66Z" fill="white"/>
<path fill-rule="evenodd" clip-rule="evenodd" d="M113.708 256.425C112.317 256.425 110.983 256.978 109.999 257.962C109.016 258.945 108.463 260.279 108.463 261.671V335.769H252.212V261.671C252.212 260.279 251.66 258.945 250.676 257.962C249.692 256.978 248.358 256.425 246.967 256.425H113.708ZM108.916 256.878C110.187 255.607 111.911 254.893 113.708 254.893H246.967C248.765 254.893 250.489 255.607 251.76 256.878C253.031 258.149 253.745 259.873 253.745 261.671V336.536C253.745 336.959 253.402 337.302 252.979 337.302H107.697C107.274 337.302 106.931 336.959 106.931 336.536V261.671C106.931 259.873 107.645 258.149 108.916 256.878Z" fill="#2C2C2C"/>
<path d="M252.978 282.564C234.728 287.193 215.996 298.975 181.095 315.567C147.431 331.581 119.875 331.304 107.696 330.066V336.534H252.978V282.564Z" fill="#2C2C2C"/>
<path fill-rule="evenodd" clip-rule="evenodd" d="M253.449 281.96C253.636 282.105 253.745 282.328 253.745 282.565V336.534C253.745 336.957 253.402 337.3 252.979 337.3H107.697C107.274 337.3 106.931 336.957 106.931 336.534V330.066C106.931 329.849 107.022 329.643 107.183 329.498C107.344 329.352 107.559 329.282 107.774 329.304C119.849 330.531 147.258 330.815 180.766 314.875L180.766 314.875C192.261 309.41 201.988 304.475 210.533 300.138C214.959 297.892 219.068 295.807 222.942 293.893C234.275 288.292 243.581 284.157 252.79 281.822C253.019 281.764 253.262 281.815 253.449 281.96ZM181.424 316.259C148.359 331.988 121.14 332.081 108.463 330.91V335.768H252.212V283.556C243.477 285.889 234.543 289.868 223.621 295.267C219.773 297.168 215.676 299.247 211.257 301.489C202.7 305.832 192.934 310.787 181.424 316.259Z" fill="#2C2C2C"/>
<path d="M182.72 174.279C182.72 176.702 180.204 178.666 177.099 178.666C173.994 178.666 171.478 176.702 171.478 174.279C171.478 171.855 173.994 169.891 177.099 169.891C180.204 169.891 182.72 171.855 182.72 174.279Z" fill="white"/>
<path fill-rule="evenodd" clip-rule="evenodd" d="M177.127 178.124C180.499 178.124 182.64 176.04 182.64 174.115C182.64 172.19 180.499 170.106 177.127 170.106C173.755 170.106 171.614 172.19 171.614 174.115C171.614 176.04 173.755 178.124 177.127 178.124ZM177.127 179.461C180.91 179.461 183.976 177.067 183.976 174.115C183.976 171.162 180.91 168.769 177.127 168.769C173.344 168.769 170.277 171.162 170.277 174.115C170.277 177.067 173.344 179.461 177.127 179.461Z" fill="#454545"/>
<path d="M251.75 331.173H108.375V335.567H251.75V331.173Z" fill="white"/>
</svg>
