<svg width="425" height="402" viewBox="0 0 425 402" fill="none" xmlns="http://www.w3.org/2000/svg">
<path d="M402.473 122.499C402.473 122.499 385.893 58.2858 285.518 17.7893C185.142 -22.7072 95.3418 14.7998 74.8696 62.2529C54.3974 109.706 75.8524 135.331 62.1912 175.856C48.53 216.381 -21.6533 267.706 6.67161 329.945C34.9965 392.185 167.54 409.961 274.795 397.12C382.05 384.279 465.846 242.024 402.473 122.499Z" fill="#50BFD7"/>
<path opacity="0.7" d="M402.473 122.499C402.473 122.499 385.893 58.2858 285.518 17.7893C185.142 -22.7072 95.3418 14.7998 74.8696 62.2529C54.3974 109.706 75.8524 135.331 62.1912 175.856C48.53 216.381 -21.6533 267.706 6.67161 329.945C34.9965 392.185 167.54 409.961 274.795 397.12C382.05 384.279 465.846 242.024 402.473 122.499Z" fill="white"/>
<path fill-rule="evenodd" clip-rule="evenodd" d="M329.022 310.795C329.284 310.767 329.519 310.957 329.547 311.219L333.295 346.398C333.323 346.66 333.133 346.895 332.871 346.923C332.609 346.951 332.374 346.761 332.346 346.499L328.598 311.32C328.571 311.058 328.76 310.823 329.022 310.795Z" fill="#263238"/>
<path d="M329.052 312.258C329.052 312.258 322.322 307.019 322.322 295.041C322.322 283.062 331.299 273.34 331.299 273.34C331.299 273.34 341.031 285.319 338.784 297.287C336.537 309.256 329.052 312.258 329.052 312.258Z" fill="#50BFD7"/>
<path fill-rule="evenodd" clip-rule="evenodd" d="M331.67 273.04L331.299 273.34L330.949 273.017C331.043 272.915 331.176 272.859 331.314 272.864C331.453 272.868 331.582 272.932 331.67 273.04ZM329.053 312.258C328.76 312.634 328.759 312.634 328.759 312.634L328.759 312.633L328.757 312.632L328.751 312.628L328.734 312.614C328.719 312.602 328.698 312.584 328.671 312.562C328.617 312.517 328.54 312.451 328.443 312.363C328.25 312.188 327.977 311.927 327.652 311.577C327.001 310.877 326.139 309.822 325.279 308.386C323.556 305.512 321.846 301.124 321.846 295.041C321.846 288.937 324.131 283.428 326.397 279.462C327.531 277.476 328.666 275.868 329.518 274.756C329.944 274.2 330.3 273.768 330.55 273.473C330.675 273.325 330.774 273.213 330.842 273.136C330.875 273.098 330.902 273.068 330.92 273.048L330.941 273.026L330.946 273.019L330.948 273.018L330.948 273.017C330.949 273.017 330.949 273.017 331.299 273.34C331.67 273.04 331.67 273.04 331.67 273.04L331.67 273.041L331.672 273.043L331.678 273.05L331.7 273.078C331.72 273.102 331.748 273.138 331.784 273.184C331.857 273.278 331.962 273.415 332.095 273.593C332.361 273.95 332.738 274.471 333.181 275.134C334.068 276.458 335.226 278.349 336.315 280.619C338.485 285.148 340.404 291.246 339.253 297.375C338.113 303.453 335.635 307.279 333.421 309.591C332.315 310.745 331.279 311.518 330.513 312.004C330.131 312.248 329.816 312.419 329.594 312.531C329.482 312.587 329.395 312.629 329.333 312.656C329.302 312.67 329.278 312.681 329.261 312.688L329.24 312.697L329.234 312.699L329.232 312.7L329.231 312.7C329.231 312.7 329.23 312.701 329.053 312.258ZM329.053 312.258L328.76 312.634C328.894 312.738 329.073 312.764 329.23 312.701L329.053 312.258ZM329.129 311.697C329.141 311.691 329.152 311.685 329.164 311.679C329.36 311.581 329.647 311.424 330.001 311.199C330.71 310.749 331.685 310.023 332.732 308.931C334.821 306.75 337.21 303.09 338.316 297.199C339.412 291.36 337.588 285.484 335.454 281.032C334.39 278.812 333.256 276.96 332.388 275.664C331.955 275.017 331.588 274.509 331.331 274.164C331.312 274.139 331.294 274.114 331.276 274.091C331.036 274.375 330.69 274.795 330.275 275.337C329.444 276.422 328.335 277.994 327.225 279.935C325.003 283.825 322.8 289.167 322.8 295.041C322.8 300.936 324.455 305.156 326.097 307.896C326.919 309.267 327.739 310.27 328.35 310.927C328.656 311.256 328.909 311.498 329.084 311.656C329.1 311.67 329.115 311.684 329.129 311.697Z" fill="#263238"/>
<path fill-rule="evenodd" clip-rule="evenodd" d="M330.818 284.356C331.081 284.374 331.28 284.6 331.263 284.863L329.549 311.299C329.532 311.562 329.305 311.761 329.042 311.744C328.779 311.727 328.58 311.5 328.597 311.237L330.311 284.802C330.328 284.539 330.555 284.339 330.818 284.356Z" fill="#263238"/>
<path fill-rule="evenodd" clip-rule="evenodd" d="M348.444 319.168C348.669 319.304 348.742 319.597 348.606 319.823C343.955 327.533 339.979 335.63 336.722 344.025C336.626 344.271 336.35 344.393 336.104 344.297C335.859 344.202 335.737 343.926 335.832 343.68C339.109 335.234 343.109 327.087 347.789 319.33C347.925 319.104 348.218 319.032 348.444 319.168Z" fill="#263238"/>
<path d="M344.674 325.939C344.674 325.939 340.936 318.26 346.223 307.54C351.51 296.821 363.866 292.047 363.866 292.047C363.866 292.047 367.304 307.085 359.993 316.836C352.682 326.587 344.674 325.939 344.674 325.939Z" fill="#50BFD7"/>
<path fill-rule="evenodd" clip-rule="evenodd" d="M364.33 291.943L363.865 292.049L363.693 291.604C363.822 291.554 363.967 291.563 364.089 291.628C364.211 291.693 364.299 291.808 364.33 291.943ZM344.673 325.941C344.244 326.149 344.243 326.149 344.243 326.149L344.242 326.146L344.239 326.14L344.229 326.119C344.221 326.102 344.21 326.077 344.196 326.045C344.167 325.981 344.127 325.887 344.079 325.766C343.982 325.523 343.852 325.169 343.714 324.711C343.438 323.796 343.129 322.468 342.989 320.801C342.709 317.464 343.109 312.776 345.794 307.331C348.488 301.868 352.973 297.938 356.759 295.38C358.655 294.099 360.384 293.157 361.64 292.535C362.268 292.223 362.779 291.992 363.133 291.837C363.311 291.76 363.449 291.702 363.544 291.664C363.592 291.644 363.628 291.63 363.653 291.62L363.682 291.608L363.69 291.605L363.692 291.604L363.693 291.604C363.693 291.604 363.693 291.604 363.865 292.049C364.33 291.943 364.33 291.942 364.33 291.943L364.331 291.946L364.333 291.956L364.341 291.99C364.347 292.021 364.357 292.065 364.369 292.123C364.393 292.239 364.427 292.408 364.467 292.627C364.549 293.064 364.656 293.698 364.761 294.488C364.971 296.067 365.174 298.275 365.147 300.792C365.092 305.813 364.117 312.131 360.373 317.124C356.661 322.076 352.755 324.407 349.753 325.495C348.255 326.038 346.987 326.269 346.088 326.364C345.639 326.412 345.282 326.425 345.034 326.427C344.91 326.427 344.813 326.425 344.746 326.422C344.712 326.421 344.686 326.42 344.667 326.418L344.645 326.417L344.638 326.416L344.636 326.416C344.635 326.416 344.634 326.416 344.673 325.941ZM344.673 325.941L344.243 326.149C344.317 326.301 344.466 326.403 344.634 326.416L344.673 325.941ZM344.989 325.473C345.002 325.473 345.015 325.472 345.028 325.472C345.247 325.471 345.572 325.459 345.988 325.415C346.819 325.327 348.01 325.111 349.428 324.598C352.258 323.572 356.011 321.352 359.61 316.552C363.177 311.795 364.139 305.718 364.193 300.782C364.22 298.32 364.021 296.159 363.815 294.614C363.712 293.842 363.608 293.224 363.529 292.801C363.524 292.771 363.518 292.741 363.513 292.713C363.171 292.862 362.676 293.086 362.064 293.39C360.838 293.997 359.147 294.919 357.293 296.171C353.579 298.68 349.242 302.497 346.65 307.753C344.048 313.028 343.673 317.54 343.94 320.721C344.074 322.314 344.368 323.576 344.628 324.435C344.758 324.865 344.878 325.194 344.966 325.413C344.974 325.434 344.982 325.454 344.989 325.473Z" fill="#263238"/>
<path fill-rule="evenodd" clip-rule="evenodd" d="M358.544 303.135C358.769 303.272 358.84 303.565 358.704 303.79L345.079 326.188C344.942 326.413 344.649 326.485 344.424 326.348C344.198 326.211 344.127 325.917 344.264 325.692L357.888 303.295C358.025 303.07 358.319 302.998 358.544 303.135Z" fill="#263238"/>
<path fill-rule="evenodd" clip-rule="evenodd" d="M313.038 318.102C313.266 317.97 313.558 318.047 313.691 318.275L318.933 327.307C322.391 333.504 325.164 340.059 327.204 346.856C327.28 347.109 327.137 347.375 326.885 347.45C326.632 347.526 326.366 347.383 326.291 347.131C324.271 340.401 321.525 333.911 318.102 327.776L312.865 318.754C312.733 318.526 312.811 318.234 313.038 318.102Z" fill="#263238"/>
<path d="M317.49 325.492C313.356 326.762 308.968 326.964 304.735 326.08C300.502 325.196 296.562 323.255 293.281 320.437C281.661 310.676 282.31 290.758 282.31 290.758C282.31 290.758 304.834 287.543 313.926 300.306C316.562 303.879 318.268 308.052 318.89 312.449C319.512 316.845 319.031 321.328 317.49 325.492Z" fill="#50BFD7"/>
<path fill-rule="evenodd" clip-rule="evenodd" d="M282.312 290.76C281.835 290.745 281.835 290.745 281.835 290.745L281.835 290.749L281.834 290.761L281.833 290.807C281.832 290.846 281.831 290.904 281.83 290.98C281.828 291.132 281.827 291.354 281.83 291.639C281.835 292.21 281.855 293.035 281.916 294.054C282.037 296.091 282.322 298.909 282.973 302.037C284.271 308.277 287.045 315.821 292.974 320.803C296.315 323.673 300.328 325.649 304.639 326.55C308.951 327.45 313.421 327.244 317.631 325.951L317.491 325.494L317.939 325.66C319.507 321.421 319.997 316.859 319.364 312.384C318.731 307.911 316.996 303.664 314.314 300.028C309.648 293.481 301.572 291.071 294.766 290.274C291.35 289.875 288.223 289.878 285.952 289.981C284.815 290.032 283.891 290.109 283.25 290.172C282.93 290.204 282.68 290.233 282.509 290.254C282.424 290.264 282.358 290.273 282.314 290.278L282.263 290.285L282.25 290.287L282.245 290.288C282.245 290.288 282.244 290.288 282.312 290.76ZM282.783 291.182C282.782 291.305 282.782 291.456 282.784 291.631C282.788 292.188 282.808 292.996 282.868 293.997C282.988 295.999 283.268 298.77 283.907 301.842C285.189 308.002 287.901 315.296 293.59 320.074L293.594 320.078C296.813 322.843 300.68 324.748 304.834 325.616C308.911 326.467 313.135 326.291 317.125 325.107C318.574 321.08 319.019 316.758 318.419 312.518C317.808 308.2 316.133 304.101 313.544 300.591L313.539 300.585C309.113 294.372 301.381 292.009 294.655 291.222C291.303 290.83 288.23 290.833 285.995 290.934C284.877 290.984 283.971 291.06 283.344 291.122C283.12 291.144 282.932 291.165 282.783 291.182ZM282.312 290.76L282.245 290.288C282.016 290.321 281.842 290.514 281.835 290.745L282.312 290.76Z" fill="#263238"/>
<path fill-rule="evenodd" clip-rule="evenodd" d="M290.463 297.331C290.653 297.149 290.955 297.155 291.138 297.345L317.835 325.165C318.017 325.355 318.011 325.657 317.821 325.84C317.631 326.022 317.329 326.016 317.146 325.826L290.449 298.006C290.267 297.816 290.273 297.514 290.463 297.331Z" fill="#263238"/>
<path d="M345.136 338.917H316.638V366.864H345.136V338.917Z" fill="#263238"/>
<path fill-rule="evenodd" clip-rule="evenodd" d="M316.162 338.914C316.162 338.65 316.376 338.437 316.639 338.437H345.137C345.401 338.437 345.614 338.65 345.614 338.914V366.86C345.614 367.123 345.401 367.337 345.137 367.337H316.639C316.376 367.337 316.162 367.123 316.162 366.86V338.914ZM317.116 339.391V366.383H344.66V339.391H317.116Z" fill="#263238"/>
<path opacity="0.3" d="M391.111 62.0972H189.243V240.215H391.111V62.0972Z" fill="black"/>
<path d="M396.178 52.9951H194.311V231.113H396.178V52.9951Z" fill="white"/>
<path fill-rule="evenodd" clip-rule="evenodd" d="M193.131 52.9954C193.131 52.3443 193.659 51.8164 194.31 51.8164H396.177C396.828 51.8164 397.356 52.3443 397.356 52.9954V231.114C397.356 231.765 396.828 232.293 396.177 232.293H194.31C193.659 232.293 193.131 231.765 193.131 231.114V52.9954ZM195.489 54.1744V229.935H394.998V54.1744H195.489Z" fill="#263238"/>
<path d="M396.178 52.9951H194.311V65.7246H396.178V52.9951Z" fill="#263238"/>
<path fill-rule="evenodd" clip-rule="evenodd" d="M193.131 52.9954C193.131 52.3443 193.659 51.8164 194.31 51.8164H396.177C396.828 51.8164 397.356 52.3443 397.356 52.9954V65.7249C397.356 66.3761 396.828 66.904 396.177 66.904H194.31C193.659 66.904 193.131 66.3761 193.131 65.7249V52.9954ZM195.489 54.1744V64.5459H394.998V54.1744H195.489Z" fill="#263238"/>
<path d="M282.625 129.278V110.501C282.625 107.087 283.981 103.813 286.395 101.399C288.809 98.985 292.083 97.6288 295.497 97.6288C298.911 97.6288 302.185 98.985 304.599 101.399C307.013 103.813 308.369 107.087 308.369 110.501V121.473H313.499V110.501C313.499 105.726 311.602 101.148 308.226 97.7716C304.85 94.3956 300.271 92.499 295.497 92.499C290.723 92.499 286.144 94.3956 282.768 97.7716C279.392 101.148 277.495 105.726 277.495 110.501V129.278H282.625Z" fill="white"/>
<path fill-rule="evenodd" clip-rule="evenodd" d="M281.933 96.9397C285.53 93.3426 290.409 91.3218 295.496 91.3218C300.583 91.3218 305.462 93.3426 309.059 96.9397C312.656 100.537 314.677 105.416 314.677 110.503V121.475C314.677 122.126 314.149 122.654 313.498 122.654H308.368C307.717 122.654 307.189 122.126 307.189 121.475V110.503C307.189 107.401 305.957 104.427 303.764 102.234C301.572 100.042 298.597 98.8096 295.496 98.8096C292.395 98.8096 289.421 100.042 287.228 102.234C285.035 104.427 283.803 107.401 283.803 110.503V129.28C283.803 129.931 283.275 130.459 282.624 130.459H277.494C276.843 130.459 276.315 129.931 276.315 129.28V110.503C276.315 105.416 278.336 100.537 281.933 96.9397ZM295.496 93.6798C291.035 93.6798 286.756 95.4522 283.601 98.6071C280.446 101.762 278.673 106.041 278.673 110.503V128.101H281.445V110.503C281.445 106.776 282.926 103.202 285.561 100.567C288.196 97.9319 291.77 96.4516 295.496 96.4516C299.223 96.4516 302.797 97.9319 305.432 100.567C308.067 103.202 309.547 106.776 309.547 110.503V120.296H312.319V110.503C312.319 106.041 310.547 101.762 307.392 98.6071C304.237 95.4522 299.958 93.6798 295.496 93.6798Z" fill="#263238"/>
<path d="M314.891 127.441H275.578V159.961H314.891V127.441Z" fill="#50BFD7"/>
<path fill-rule="evenodd" clip-rule="evenodd" d="M274.4 127.441C274.4 126.79 274.928 126.262 275.579 126.262H314.892C315.543 126.262 316.071 126.79 316.071 127.441V159.962C316.071 160.613 315.543 161.141 314.892 161.141H275.579C274.928 161.141 274.4 160.613 274.4 159.962V127.441ZM276.758 128.62V158.783H313.713V128.62H276.758Z" fill="#263238"/>
<path fill-rule="evenodd" clip-rule="evenodd" d="M323.518 108.611C324.115 108.872 324.387 109.567 324.126 110.164L321.577 115.99C321.316 116.587 320.621 116.859 320.024 116.598C319.428 116.337 319.156 115.641 319.417 115.045L321.966 109.218C322.227 108.622 322.922 108.35 323.518 108.611Z" fill="#263238"/>
<path fill-rule="evenodd" clip-rule="evenodd" d="M319.681 122.421C319.681 121.77 320.209 121.242 320.86 121.242H330.328C330.979 121.242 331.507 121.77 331.507 122.421C331.507 123.072 330.979 123.6 330.328 123.6H320.86C320.209 123.6 319.681 123.072 319.681 122.421Z" fill="#263238"/>
<path fill-rule="evenodd" clip-rule="evenodd" d="M318.963 128.114C319.439 127.67 320.186 127.696 320.63 128.172L325.728 133.634C326.172 134.11 326.147 134.856 325.67 135.301C325.194 135.745 324.448 135.719 324.004 135.243L318.906 129.781C318.462 129.305 318.487 128.559 318.963 128.114Z" fill="#263238"/>
<path d="M299.327 140.946C299.342 140.185 299.153 139.433 298.782 138.768C298.41 138.103 297.868 137.55 297.211 137.164C296.555 136.778 295.807 136.573 295.045 136.572C294.284 136.57 293.535 136.772 292.877 137.155C292.219 137.538 291.675 138.09 291.3 138.753C290.926 139.417 290.735 140.168 290.747 140.929C290.758 141.691 290.973 142.436 291.368 143.087C291.763 143.738 292.324 144.273 292.994 144.635L292.281 152.029H297.775L297.063 144.635C297.742 144.287 298.312 143.759 298.712 143.108C299.111 142.458 299.324 141.71 299.327 140.946Z" fill="#263238"/>
<path fill-rule="evenodd" clip-rule="evenodd" d="M292.285 136.135C293.124 135.646 294.078 135.39 295.049 135.392C296.02 135.394 296.973 135.654 297.81 136.146C298.647 136.638 299.338 137.344 299.812 138.192C300.284 139.036 300.524 139.991 300.507 140.959C300.507 140.962 300.507 140.965 300.507 140.968L299.328 140.945L300.507 140.95C300.507 140.953 300.507 140.956 300.507 140.959C300.501 141.935 300.228 142.892 299.718 143.724C299.351 144.322 298.871 144.839 298.308 145.249L298.237 144.521L297.064 144.634L297.602 145.683C297.849 145.557 298.085 145.411 298.308 145.249L298.95 151.915C298.982 152.246 298.872 152.575 298.649 152.821C298.426 153.067 298.109 153.207 297.776 153.207H292.282C291.95 153.207 291.633 153.067 291.41 152.821C291.186 152.575 291.077 152.246 291.109 151.915L291.753 145.234C291.968 145.396 292.195 145.542 292.433 145.671L292.995 144.634L291.821 144.521L291.753 145.234C291.197 144.817 290.724 144.296 290.361 143.697C289.857 142.867 289.584 141.917 289.569 140.946C289.554 139.976 289.798 139.018 290.275 138.173C290.752 137.327 291.446 136.624 292.285 136.135ZM293.58 150.849H292.282V152.028L293.456 152.141L293.58 150.849ZM296.478 150.849H297.776V152.028L296.603 152.141L296.478 150.849Z" fill="#263238"/>
<path d="M365.621 173.212H224.852C221.354 173.212 218.519 176.048 218.519 179.545V194.571C218.519 198.068 221.354 200.904 224.852 200.904H365.621C369.118 200.904 371.954 198.068 371.954 194.571V179.545C371.954 176.048 369.118 173.212 365.621 173.212Z" fill="white"/>
<path fill-rule="evenodd" clip-rule="evenodd" d="M224.851 174.393C222.004 174.393 219.697 176.7 219.697 179.547V194.572C219.697 197.419 222.004 199.726 224.851 199.726H365.62C368.466 199.726 370.774 197.419 370.774 194.572V179.547C370.774 176.7 368.466 174.393 365.62 174.393H224.851ZM217.339 179.547C217.339 175.398 220.702 172.035 224.851 172.035H365.62C369.769 172.035 373.132 175.398 373.132 179.547V194.572C373.132 198.721 369.769 202.084 365.62 202.084H224.851C220.702 202.084 217.339 198.721 217.339 194.572V179.547Z" fill="#263238"/>
<path d="M233.416 187.938C233.199 187.898 232.993 187.81 232.813 187.68C232.634 187.55 232.486 187.382 232.38 187.188C232.274 186.994 232.212 186.779 232.2 186.558C232.187 186.337 232.224 186.116 232.308 185.911L232.387 185.705C232.45 185.502 232.557 185.314 232.699 185.156C232.841 184.997 233.015 184.87 233.21 184.785C233.405 184.699 233.617 184.657 233.83 184.66C234.043 184.663 234.253 184.712 234.445 184.803C235.736 185.301 236.964 185.949 238.103 186.735C237.699 185.365 237.465 183.95 237.406 182.523C237.393 182.307 237.424 182.091 237.498 181.888C237.572 181.685 237.686 181.499 237.835 181.342C237.983 181.184 238.162 181.059 238.361 180.974C238.559 180.888 238.773 180.844 238.989 180.845H239.211C239.427 180.844 239.641 180.888 239.84 180.974C240.038 181.059 240.217 181.184 240.365 181.342C240.514 181.499 240.628 181.685 240.702 181.888C240.776 182.091 240.807 182.307 240.794 182.523C240.734 183.949 240.505 185.362 240.113 186.735C241.254 185.962 242.475 185.314 243.755 184.803C243.949 184.709 244.162 184.66 244.377 184.657C244.593 184.655 244.806 184.7 245.002 184.789C245.199 184.878 245.373 185.009 245.513 185.173C245.653 185.337 245.756 185.529 245.813 185.737V185.88C245.906 186.083 245.951 186.306 245.945 186.53C245.939 186.754 245.881 186.973 245.778 187.172C245.674 187.37 245.526 187.542 245.346 187.675C245.165 187.808 244.957 187.898 244.737 187.938C243.408 188.293 242.042 188.495 240.668 188.539C241.794 189.368 242.814 190.33 243.707 191.405C243.838 191.568 243.935 191.755 243.993 191.956C244.051 192.157 244.069 192.367 244.045 192.574C244.022 192.782 243.957 192.982 243.856 193.165C243.754 193.347 243.618 193.508 243.454 193.638L243.28 193.78C243.11 193.924 242.91 194.028 242.694 194.085C242.478 194.141 242.252 194.148 242.034 194.106C241.815 194.063 241.608 193.972 241.429 193.839C241.25 193.706 241.104 193.534 241 193.337C240.239 192.169 239.607 190.921 239.116 189.616C238.598 190.918 237.951 192.164 237.184 193.337C237.081 193.534 236.934 193.706 236.755 193.839C236.576 193.972 236.37 194.063 236.151 194.106C235.932 194.148 235.706 194.141 235.491 194.085C235.275 194.028 235.074 193.924 234.904 193.78L234.746 193.638C234.581 193.509 234.443 193.349 234.34 193.168C234.237 192.986 234.171 192.785 234.146 192.577C234.121 192.37 234.138 192.159 234.194 191.958C234.251 191.757 234.347 191.569 234.477 191.405C235.391 190.33 236.415 189.353 237.533 188.492C236.142 188.484 234.759 188.298 233.416 187.938Z" fill="#263238"/>
<path d="M249.47 187.938C249.252 187.898 249.046 187.81 248.867 187.68C248.688 187.55 248.54 187.382 248.433 187.188C248.327 186.994 248.266 186.779 248.253 186.558C248.241 186.337 248.278 186.116 248.362 185.911L248.441 185.705C248.504 185.502 248.61 185.314 248.752 185.156C248.894 184.997 249.069 184.87 249.264 184.785C249.459 184.699 249.67 184.657 249.883 184.66C250.097 184.663 250.306 184.712 250.499 184.803C251.79 185.301 253.017 185.949 254.156 186.735C253.752 185.365 253.518 183.95 253.46 182.523C253.447 182.307 253.478 182.091 253.552 181.888C253.626 181.685 253.74 181.499 253.888 181.342C254.037 181.184 254.216 181.059 254.414 180.974C254.613 180.888 254.827 180.844 255.043 180.845H255.17C255.386 180.844 255.6 180.888 255.798 180.974C255.997 181.059 256.176 181.184 256.324 181.342C256.472 181.499 256.587 181.685 256.661 181.888C256.735 182.091 256.766 182.307 256.753 182.523C256.693 183.949 256.464 185.362 256.072 186.735C257.213 185.962 258.434 185.314 259.714 184.803C259.911 184.725 260.122 184.687 260.334 184.691C260.546 184.696 260.755 184.744 260.949 184.831C261.142 184.918 261.316 185.043 261.46 185.199C261.604 185.354 261.716 185.537 261.788 185.737V185.88C261.88 186.083 261.925 186.306 261.919 186.53C261.913 186.754 261.856 186.973 261.752 187.172C261.648 187.37 261.501 187.542 261.32 187.675C261.14 187.808 260.931 187.898 260.711 187.938C259.382 188.293 258.017 188.495 256.642 188.539C257.768 189.368 258.789 190.33 259.682 191.405C259.813 191.568 259.91 191.755 259.968 191.956C260.026 192.157 260.043 192.367 260.02 192.574C259.996 192.782 259.932 192.982 259.83 193.165C259.729 193.347 259.592 193.508 259.429 193.638L259.254 193.78C259.086 193.924 258.887 194.028 258.672 194.085C258.458 194.141 258.233 194.148 258.015 194.105C257.798 194.063 257.592 193.971 257.415 193.838C257.237 193.705 257.092 193.534 256.99 193.337C256.217 192.173 255.58 190.925 255.09 189.616C254.572 190.918 253.925 192.164 253.159 193.337C253.055 193.534 252.908 193.706 252.73 193.839C252.551 193.972 252.344 194.063 252.125 194.106C251.906 194.148 251.681 194.141 251.465 194.085C251.249 194.028 251.049 193.924 250.879 193.78L250.721 193.638C250.556 193.509 250.418 193.349 250.315 193.168C250.212 192.986 250.146 192.785 250.121 192.577C250.096 192.37 250.112 192.159 250.169 191.958C250.226 191.757 250.322 191.569 250.451 191.405C251.365 190.33 252.389 189.353 253.507 188.492C252.143 188.478 250.787 188.291 249.47 187.938Z" fill="#263238"/>
<path d="M265.526 187.938C265.316 187.884 265.12 187.787 264.949 187.654C264.779 187.521 264.637 187.354 264.533 187.165C264.429 186.975 264.365 186.765 264.346 186.55C264.326 186.334 264.35 186.117 264.418 185.911V185.705C264.481 185.502 264.587 185.314 264.729 185.156C264.872 184.997 265.046 184.87 265.241 184.785C265.436 184.699 265.647 184.657 265.861 184.66C266.074 184.663 266.284 184.712 266.476 184.803C267.767 185.301 268.995 185.949 270.133 186.735C269.735 185.364 269.506 183.949 269.453 182.523C269.44 182.307 269.471 182.091 269.545 181.888C269.618 181.685 269.733 181.499 269.881 181.342C270.03 181.184 270.209 181.059 270.407 180.974C270.606 180.888 270.82 180.844 271.036 180.845H271.258C271.474 180.844 271.688 180.888 271.886 180.974C272.085 181.059 272.264 181.184 272.412 181.342C272.56 181.499 272.675 181.685 272.749 181.888C272.822 182.091 272.854 182.307 272.841 182.523C272.78 183.949 272.552 185.362 272.16 186.735C273.301 185.962 274.522 185.314 275.802 184.803C275.999 184.725 276.21 184.687 276.422 184.691C276.634 184.696 276.843 184.744 277.036 184.831C277.23 184.918 277.404 185.043 277.548 185.199C277.692 185.354 277.804 185.537 277.876 185.737V185.88C277.968 186.082 278.014 186.304 278.009 186.526C278.003 186.749 277.948 186.968 277.845 187.166C277.743 187.365 277.597 187.537 277.419 187.671C277.24 187.804 277.034 187.896 276.815 187.938C275.48 188.292 274.11 188.494 272.73 188.539C273.856 189.368 274.877 190.33 275.77 191.405C275.901 191.568 275.998 191.755 276.056 191.956C276.114 192.157 276.131 192.367 276.108 192.574C276.084 192.782 276.02 192.982 275.918 193.165C275.817 193.347 275.68 193.508 275.517 193.638L275.342 193.78C275.174 193.924 274.975 194.028 274.76 194.085C274.545 194.141 274.321 194.148 274.103 194.105C273.886 194.063 273.68 193.971 273.503 193.838C273.325 193.705 273.18 193.534 273.078 193.337C272.311 192.169 271.674 190.922 271.178 189.616C270.66 190.918 270.013 192.164 269.247 193.337C269.145 193.534 269 193.705 268.822 193.838C268.645 193.971 268.44 194.063 268.222 194.105C268.004 194.148 267.78 194.141 267.565 194.085C267.35 194.028 267.151 193.924 266.983 193.78L266.809 193.638C266.644 193.509 266.506 193.349 266.403 193.168C266.3 192.986 266.234 192.785 266.209 192.577C266.184 192.37 266.2 192.159 266.257 191.958C266.314 191.757 266.41 191.569 266.539 191.405C267.453 190.33 268.477 189.353 269.595 188.492C268.221 188.48 266.853 188.294 265.526 187.938Z" fill="#263238"/>
<path d="M281.58 187.938C281.37 187.884 281.174 187.787 281.003 187.654C280.832 187.521 280.691 187.354 280.587 187.165C280.483 186.975 280.419 186.765 280.399 186.55C280.379 186.334 280.404 186.117 280.472 185.911V185.705C280.535 185.502 280.641 185.314 280.783 185.156C280.925 184.997 281.1 184.87 281.295 184.785C281.49 184.699 281.701 184.657 281.914 184.66C282.127 184.663 282.337 184.712 282.53 184.803C283.821 185.301 285.048 185.949 286.187 186.735C285.795 185.362 285.567 183.949 285.506 182.523C285.493 182.307 285.525 182.091 285.598 181.888C285.672 181.685 285.787 181.499 285.935 181.342C286.083 181.184 286.262 181.059 286.461 180.974C286.659 180.888 286.873 180.844 287.09 180.845H287.311C287.527 180.844 287.741 180.888 287.94 180.974C288.138 181.059 288.317 181.184 288.466 181.342C288.614 181.499 288.729 181.685 288.802 181.888C288.876 182.091 288.907 182.307 288.894 182.523C288.834 183.949 288.606 185.362 288.214 186.735C289.355 185.962 290.576 185.314 291.855 184.803C292.052 184.725 292.263 184.687 292.476 184.691C292.688 184.696 292.897 184.744 293.09 184.831C293.284 184.918 293.458 185.043 293.602 185.199C293.746 185.354 293.857 185.537 293.929 185.737V185.88C294.022 186.082 294.067 186.304 294.062 186.526C294.057 186.749 294.001 186.968 293.899 187.166C293.797 187.365 293.651 187.537 293.473 187.671C293.294 187.804 293.087 187.896 292.869 187.938C291.534 188.292 290.164 188.494 288.784 188.539C289.91 189.368 290.931 190.33 291.824 191.405C291.954 191.568 292.051 191.755 292.109 191.956C292.167 192.157 292.185 192.367 292.161 192.574C292.138 192.782 292.074 192.982 291.972 193.165C291.871 193.347 291.734 193.508 291.57 193.638L291.396 193.78C291.227 193.924 291.028 194.028 290.814 194.085C290.599 194.141 290.375 194.148 290.157 194.105C289.939 194.063 289.734 193.971 289.556 193.838C289.379 193.705 289.234 193.534 289.132 193.337C288.365 192.169 287.728 190.922 287.232 189.616C286.699 190.92 286.036 192.166 285.253 193.337C285.151 193.534 285.006 193.705 284.828 193.838C284.651 193.971 284.446 194.063 284.228 194.105C284.01 194.148 283.786 194.141 283.571 194.085C283.357 194.028 283.158 193.924 282.989 193.78L282.815 193.638C282.65 193.509 282.512 193.349 282.409 193.168C282.306 192.986 282.24 192.785 282.215 192.577C282.19 192.37 282.206 192.159 282.263 191.958C282.32 191.757 282.416 191.569 282.546 191.405C283.459 190.33 284.483 189.353 285.601 188.492C284.243 188.476 282.892 188.29 281.58 187.938Z" fill="#263238"/>
<path d="M297.634 187.938C297.424 187.884 297.228 187.787 297.057 187.654C296.886 187.521 296.744 187.354 296.64 187.165C296.537 186.975 296.473 186.765 296.453 186.55C296.433 186.334 296.458 186.117 296.525 185.911L296.604 185.705C296.68 185.509 296.793 185.329 296.939 185.176C297.084 185.024 297.259 184.902 297.452 184.818C297.645 184.734 297.853 184.69 298.064 184.687C298.274 184.684 298.483 184.724 298.678 184.803C299.963 185.304 301.185 185.952 302.32 186.735C301.928 185.362 301.7 183.949 301.639 182.523C301.626 182.307 301.658 182.091 301.731 181.888C301.805 181.685 301.92 181.499 302.068 181.342C302.216 181.184 302.395 181.059 302.594 180.974C302.792 180.888 303.006 180.844 303.222 180.845H303.444C303.66 180.844 303.874 180.888 304.073 180.974C304.271 181.059 304.45 181.184 304.599 181.342C304.747 181.499 304.862 181.685 304.935 181.888C305.009 182.091 305.04 182.307 305.027 182.523C304.967 183.949 304.739 185.362 304.347 186.735C305.488 185.962 306.709 185.314 307.988 184.803C308.185 184.725 308.396 184.687 308.608 184.691C308.821 184.696 309.03 184.744 309.223 184.831C309.417 184.918 309.591 185.043 309.735 185.199C309.879 185.354 309.99 185.537 310.062 185.737V185.88C310.155 186.082 310.2 186.304 310.195 186.526C310.19 186.749 310.134 186.968 310.032 187.166C309.93 187.365 309.784 187.537 309.605 187.671C309.427 187.804 309.22 187.896 309.001 187.938C307.667 188.292 306.297 188.494 304.917 188.539C306.043 189.368 307.063 190.33 307.956 191.405C308.087 191.568 308.184 191.755 308.242 191.956C308.3 192.157 308.318 192.367 308.294 192.574C308.271 192.782 308.206 192.982 308.105 193.165C308.004 193.347 307.867 193.508 307.703 193.638L307.529 193.78C307.36 193.924 307.161 194.028 306.947 194.085C306.732 194.141 306.508 194.148 306.29 194.105C306.072 194.063 305.867 193.971 305.689 193.838C305.512 193.705 305.367 193.534 305.265 193.337C304.498 192.169 303.861 190.922 303.365 189.616C302.847 190.918 302.2 192.164 301.433 193.337C301.331 193.534 301.186 193.705 301.009 193.838C300.831 193.971 300.626 194.063 300.408 194.105C300.191 194.148 299.966 194.141 299.752 194.085C299.537 194.028 299.338 193.924 299.169 193.78L298.995 193.638C298.82 193.517 298.672 193.36 298.562 193.177C298.453 192.995 298.384 192.791 298.36 192.579C298.336 192.367 298.357 192.153 298.423 191.951C298.489 191.748 298.598 191.562 298.742 191.405C299.646 190.326 300.665 189.349 301.782 188.492C300.381 188.487 298.987 188.301 297.634 187.938Z" fill="#263238"/>
<path d="M313.751 187.938C313.541 187.884 313.345 187.787 313.174 187.654C313.003 187.521 312.861 187.354 312.758 187.165C312.654 186.975 312.59 186.765 312.57 186.55C312.55 186.334 312.575 186.117 312.642 185.911L312.722 185.705C312.797 185.509 312.91 185.329 313.056 185.176C313.201 185.024 313.376 184.902 313.569 184.818C313.762 184.734 313.97 184.69 314.181 184.687C314.391 184.684 314.6 184.724 314.796 184.803C316.08 185.304 317.302 185.952 318.437 186.735C318.045 185.362 317.817 183.949 317.756 182.523C317.743 182.307 317.775 182.091 317.848 181.888C317.922 181.685 318.037 181.499 318.185 181.342C318.333 181.184 318.512 181.059 318.711 180.974C318.91 180.888 319.123 180.844 319.34 180.845H319.561C319.777 180.844 319.991 180.888 320.19 180.974C320.389 181.059 320.567 181.184 320.716 181.342C320.864 181.499 320.979 181.685 321.052 181.888C321.126 182.091 321.158 182.307 321.145 182.523C321.084 183.949 320.856 185.362 320.464 186.735C321.608 185.958 322.835 185.311 324.121 184.803C324.316 184.712 324.528 184.665 324.742 184.664C324.957 184.662 325.17 184.708 325.365 184.797C325.561 184.885 325.735 185.015 325.875 185.178C326.016 185.34 326.12 185.531 326.179 185.737V185.88C326.272 186.082 326.318 186.304 326.312 186.526C326.307 186.749 326.251 186.968 326.149 187.166C326.047 187.365 325.901 187.537 325.723 187.671C325.544 187.804 325.338 187.896 325.119 187.938C323.784 188.293 322.414 188.495 321.034 188.539C322.161 189.372 323.187 190.334 324.089 191.405C324.219 191.569 324.315 191.757 324.372 191.958C324.429 192.159 324.445 192.37 324.42 192.577C324.395 192.785 324.329 192.986 324.226 193.168C324.123 193.349 323.985 193.509 323.82 193.638L323.646 193.78C323.477 193.924 323.278 194.028 323.064 194.085C322.849 194.141 322.625 194.148 322.407 194.105C322.189 194.063 321.984 193.971 321.807 193.838C321.629 193.705 321.484 193.534 321.382 193.337C320.615 192.169 319.978 190.922 319.482 189.616C318.964 190.918 318.317 192.164 317.551 193.337C317.449 193.534 317.304 193.705 317.126 193.838C316.949 193.971 316.743 194.063 316.526 194.105C316.308 194.148 316.083 194.141 315.869 194.085C315.654 194.028 315.455 193.924 315.286 193.78L315.112 193.638C314.937 193.517 314.789 193.36 314.68 193.177C314.57 192.995 314.501 192.791 314.477 192.579C314.453 192.367 314.475 192.153 314.54 191.951C314.606 191.748 314.715 191.562 314.859 191.405C315.763 190.326 316.782 189.349 317.899 188.492C316.498 188.487 315.104 188.301 313.751 187.938Z" fill="#263238"/>
<path d="M329.759 187.938C329.548 187.885 329.35 187.79 329.178 187.658C329.005 187.526 328.862 187.359 328.756 187.169C328.651 186.979 328.586 186.769 328.565 186.553C328.544 186.336 328.568 186.118 328.635 185.911L328.715 185.705C328.79 185.509 328.903 185.329 329.049 185.176C329.194 185.024 329.369 184.902 329.562 184.818C329.755 184.734 329.963 184.69 330.174 184.687C330.384 184.684 330.593 184.724 330.789 184.803C332.073 185.304 333.295 185.952 334.43 186.735C334.038 185.362 333.81 183.949 333.749 182.523C333.736 182.307 333.768 182.091 333.841 181.888C333.915 181.685 334.03 181.499 334.178 181.342C334.326 181.184 334.505 181.059 334.704 180.974C334.903 180.888 335.116 180.844 335.333 180.845H335.554C335.77 180.844 335.984 180.888 336.183 180.974C336.381 181.059 336.56 181.184 336.709 181.342C336.857 181.499 336.972 181.685 337.045 181.888C337.119 182.091 337.15 182.307 337.138 182.523C337.079 183.95 336.845 185.365 336.441 186.735C337.585 185.958 338.812 185.311 340.098 184.803C340.293 184.712 340.505 184.665 340.72 184.664C340.934 184.662 341.147 184.708 341.342 184.797C341.538 184.885 341.712 185.015 341.852 185.178C341.993 185.34 342.097 185.531 342.157 185.737V185.88C342.249 186.083 342.294 186.306 342.288 186.53C342.282 186.754 342.225 186.973 342.121 187.172C342.017 187.37 341.869 187.542 341.689 187.675C341.509 187.808 341.3 187.898 341.08 187.938C339.746 188.293 338.375 188.495 336.995 188.539C338.122 189.372 339.148 190.334 340.051 191.405C340.18 191.569 340.277 191.757 340.333 191.958C340.39 192.159 340.406 192.37 340.381 192.577C340.356 192.785 340.29 192.986 340.187 193.168C340.085 193.349 339.947 193.509 339.782 193.638L339.623 193.78C339.453 193.924 339.253 194.028 339.037 194.085C338.821 194.141 338.596 194.148 338.377 194.106C338.158 194.063 337.952 193.972 337.773 193.839C337.594 193.706 337.447 193.534 337.343 193.337C336.576 192.172 335.944 190.924 335.459 189.616C334.936 190.918 334.284 192.165 333.512 193.337C333.41 193.534 333.265 193.705 333.087 193.838C332.91 193.971 332.705 194.063 332.487 194.105C332.269 194.148 332.045 194.141 331.83 194.085C331.616 194.028 331.416 193.924 331.248 193.78L331.074 193.638C330.898 193.517 330.751 193.36 330.641 193.177C330.531 192.995 330.462 192.791 330.438 192.579C330.414 192.367 330.436 192.153 330.502 191.951C330.568 191.748 330.676 191.562 330.82 191.405C331.724 190.326 332.743 189.349 333.86 188.492C332.475 188.486 331.097 188.299 329.759 187.938Z" fill="#263238"/>
<path d="M345.813 187.938C345.602 187.885 345.404 187.79 345.232 187.658C345.059 187.526 344.916 187.359 344.81 187.169C344.705 186.979 344.639 186.769 344.619 186.553C344.598 186.336 344.622 186.118 344.689 185.911V185.705C344.764 185.509 344.878 185.329 345.023 185.176C345.169 185.024 345.343 184.902 345.536 184.818C345.73 184.734 345.938 184.69 346.148 184.687C346.359 184.684 346.568 184.724 346.763 184.803C348.047 185.304 349.269 185.952 350.405 186.735C350.013 185.362 349.784 183.949 349.724 182.523C349.711 182.307 349.742 182.091 349.816 181.888C349.89 181.685 350.004 181.499 350.153 181.342C350.301 181.184 350.48 181.059 350.678 180.974C350.877 180.888 351.091 180.844 351.307 180.845H351.529C351.745 180.844 351.959 180.888 352.157 180.974C352.356 181.059 352.535 181.184 352.683 181.342C352.832 181.499 352.946 181.685 353.02 181.888C353.094 182.091 353.125 182.307 353.112 182.523C353.053 183.95 352.819 185.365 352.415 186.735C353.56 185.958 354.786 185.311 356.073 184.803C356.267 184.712 356.479 184.665 356.694 184.664C356.909 184.662 357.121 184.708 357.317 184.797C357.512 184.885 357.686 185.015 357.827 185.178C357.967 185.34 358.071 185.531 358.131 185.737V185.88C358.224 186.083 358.269 186.306 358.263 186.53C358.256 186.754 358.199 186.973 358.095 187.172C357.992 187.37 357.844 187.542 357.664 187.675C357.483 187.808 357.275 187.898 357.054 187.938C355.72 188.293 354.35 188.495 352.97 188.539C354.097 189.372 355.122 190.334 356.025 191.405C356.155 191.569 356.251 191.757 356.308 191.958C356.365 192.159 356.381 192.37 356.356 192.577C356.331 192.785 356.265 192.986 356.162 193.168C356.059 193.349 355.921 193.509 355.756 193.638L355.582 193.78C355.413 193.924 355.214 194.028 355 194.085C354.785 194.141 354.561 194.148 354.343 194.105C354.125 194.063 353.92 193.971 353.742 193.838C353.565 193.705 353.42 193.534 353.318 193.337C352.55 192.172 351.918 190.924 351.434 189.616C350.911 190.918 350.259 192.165 349.486 193.337C349.384 193.534 349.239 193.705 349.062 193.838C348.884 193.971 348.679 194.063 348.461 194.105C348.244 194.148 348.019 194.141 347.805 194.085C347.59 194.028 347.391 193.924 347.222 193.78L347.048 193.638C346.873 193.517 346.725 193.36 346.615 193.177C346.506 192.995 346.437 192.791 346.413 192.579C346.389 192.367 346.41 192.153 346.476 191.951C346.542 191.748 346.651 191.562 346.795 191.405C347.699 190.326 348.718 189.349 349.835 188.492C348.476 188.479 347.125 188.293 345.813 187.938Z" fill="#263238"/>
<path d="M202.981 344.447C192.111 343.453 181.376 343.046 181.376 343.046C177.432 343.167 169.031 343.513 160.359 344.447C162.889 353.088 171.47 359.457 181.662 359.457C191.87 359.472 200.451 353.073 202.981 344.447Z" fill="#50BFD7"/>
<path fill-rule="evenodd" clip-rule="evenodd" d="M362.34 367.219C362.34 366.918 362.584 366.674 362.885 366.674H380.849C381.15 366.674 381.394 366.918 381.394 367.219C381.394 367.52 381.15 367.764 380.849 367.764H362.885C362.584 367.764 362.34 367.52 362.34 367.219Z" fill="#2C2C2C"/>
<path fill-rule="evenodd" clip-rule="evenodd" d="M23.5938 367.219C23.5938 366.918 23.8378 366.674 24.1389 366.674H356.898C357.199 366.674 357.443 366.918 357.443 367.219C357.443 367.52 357.199 367.764 356.898 367.764H24.1389C23.8378 367.764 23.5938 367.52 23.5938 367.219Z" fill="#2C2C2C"/>
<path fill-rule="evenodd" clip-rule="evenodd" d="M0.197266 367.219C0.197266 366.918 0.44134 366.674 0.742422 366.674H13.0177C13.3188 366.674 13.5629 366.918 13.5629 367.219C13.5629 367.52 13.3188 367.764 13.0177 367.764H0.742422C0.44134 367.764 0.197266 367.52 0.197266 367.219Z" fill="#2C2C2C"/>
<path d="M188.876 228.314C188.876 231.495 185.573 234.073 181.498 234.073C177.423 234.073 174.12 231.495 174.12 228.314C174.12 225.134 177.423 222.556 181.498 222.556C185.573 222.556 188.876 225.134 188.876 228.314Z" fill="white"/>
<path fill-rule="evenodd" clip-rule="evenodd" d="M181.498 232.633C185.131 232.633 187.437 230.388 187.437 228.314C187.437 226.241 185.131 223.995 181.498 223.995C177.866 223.995 175.56 226.241 175.56 228.314C175.56 230.388 177.866 232.633 181.498 232.633ZM181.498 234.073C185.573 234.073 188.876 231.495 188.876 228.314C188.876 225.134 185.573 222.556 181.498 222.556C177.423 222.556 174.12 225.134 174.12 228.314C174.12 231.495 177.423 234.073 181.498 234.073Z" fill="#454545"/>
<path d="M254.297 383.366H109.016V387.863H254.297V383.366Z" fill="white"/>
<path fill-rule="evenodd" clip-rule="evenodd" d="M108.25 383.367C108.25 382.944 108.593 382.601 109.016 382.601H254.298C254.721 382.601 255.064 382.944 255.064 383.367V387.864C255.064 388.287 254.721 388.63 254.298 388.63H109.016C108.593 388.63 108.25 388.287 108.25 387.864V383.367ZM109.782 384.133V387.098H253.532V384.133H109.782Z" fill="#2C2C2C"/>
<path opacity="0.15" d="M162.76 227.799C161.239 226.864 159.831 225.888 158.485 224.911C159.07 223.884 161.681 219.454 161.968 216.978C162.256 214.501 161.968 211.51 160.108 209.784C159.692 209.36 159.191 209.028 158.638 208.809C158.085 208.591 157.493 208.491 156.899 208.516C156.305 208.541 155.723 208.691 155.191 208.955C154.658 209.22 154.188 209.593 153.809 210.051C151.61 212.877 153.531 219.033 155.33 221.674C155.422 221.818 156.583 223.174 157.385 224.14C156.779 223.688 156.152 223.236 155.587 222.794C153.449 221.129 151.599 219.475 149.976 217.995C149.051 217.152 148.239 216.361 147.489 215.621C147.561 214.367 147.787 209.311 146.923 207.02C146.06 204.728 144.375 202.19 141.949 201.48C141.388 201.294 140.795 201.226 140.206 201.283C139.617 201.34 139.047 201.519 138.532 201.81C138.017 202.1 137.569 202.495 137.216 202.969C136.863 203.444 136.613 203.987 136.482 204.563C135.835 208.078 140.377 212.661 143.183 214.182C143.429 214.316 147.458 215.919 147.468 215.858V215.786C148.187 216.515 148.958 217.286 149.811 218.118C151.414 219.629 153.233 221.325 155.34 223.041C157.587 224.921 159.944 226.664 162.4 228.261L163.941 229.217H165.205C164.404 228.775 163.561 228.292 162.76 227.799Z" fill="black"/>
<path opacity="0.15" d="M191.266 228.271C191.266 225.887 190.629 222.845 188.625 221.303C188.165 220.928 187.631 220.653 187.058 220.497C186.485 220.341 185.886 220.307 185.299 220.397C184.712 220.487 184.15 220.7 183.651 221.02C183.151 221.341 182.724 221.763 182.397 222.259C181.308 224.037 181.729 226.781 182.685 229.247H191.174C191.228 228.924 191.258 228.598 191.266 228.271Z" fill="black"/>
<path opacity="0.15" d="M182.943 183.978C185.728 184.214 191.637 182.066 191.637 182.066C191.637 182.066 189.037 178.603 188.852 178.408C186.622 176.116 180.97 173.002 177.764 174.595C177.231 174.873 176.764 175.261 176.393 175.734C176.022 176.206 175.755 176.752 175.611 177.335C175.468 177.918 175.45 178.525 175.558 179.116C175.667 179.707 175.9 180.268 176.243 180.761C177.589 182.847 180.559 183.772 182.943 183.978Z" fill="black"/>
<path opacity="0.15" d="M206.775 225.094C206.315 224.717 205.781 224.442 205.208 224.285C204.635 224.128 204.035 224.093 203.448 224.183C202.86 224.273 202.298 224.486 201.799 224.808C201.299 225.129 200.872 225.553 200.547 226.05C200.018 227.027 199.803 228.143 199.93 229.246H209.128C208.851 227.63 208.019 226.162 206.775 225.094Z" fill="black"/>
<path opacity="0.15" d="M174.732 223.974C174.732 221.589 174.095 218.547 172.091 217.016C171.632 216.638 171.099 216.361 170.525 216.203C169.952 216.045 169.351 216.01 168.763 216.1C168.175 216.19 167.613 216.404 167.114 216.726C166.614 217.049 166.188 217.473 165.864 217.972C164.014 220.973 166.501 226.758 168.566 229.276H173.386C174.102 227.588 174.556 225.799 174.732 223.974Z" fill="black"/>
<path d="M144.314 285.94C144.314 285.94 130.927 350.814 124.829 354.385C119.922 357.265 126.457 360.626 112.17 355.815L112.169 345.737L109.29 340.698L113.212 328.256C113.212 328.256 126.744 262.336 136.462 261.532C146.196 260.711 144.314 285.94 144.314 285.94Z" fill="#2C2C2C"/>
<path d="M235.69 280.713C235.69 280.713 252.151 344.875 248.24 350.762C245.096 355.505 252.444 355.654 237.495 357.606L233.069 348.552L228.27 345.289L226.33 332.388C226.33 332.388 209.54 267.222 217.918 262.232C226.303 257.22 235.69 280.713 235.69 280.713Z" fill="#2C2C2C"/>
<path d="M242.398 281.258C242.398 291.523 235.672 297.878 225.407 297.878C215.142 297.878 206.823 289.56 206.823 279.295C206.823 269.03 214.578 257.703 224.361 260.776C235.141 264.138 242.398 270.993 242.398 281.258Z" fill="white"/>
<path fill-rule="evenodd" clip-rule="evenodd" d="M212.413 265.452C209.354 269.061 207.465 274.31 207.465 279.297C207.465 289.207 215.495 297.237 225.405 297.237C230.404 297.237 234.48 295.692 237.302 292.958C240.122 290.226 241.752 286.248 241.752 281.26C241.752 271.387 234.801 264.71 224.167 261.393L224.166 261.392C219.594 259.956 215.462 261.854 212.413 265.452ZM224.551 260.164C219.341 258.528 214.705 260.756 211.431 264.62C208.166 268.472 206.178 274.02 206.178 279.297C206.178 289.918 214.784 298.525 225.405 298.525C230.671 298.525 235.091 296.892 238.198 293.882C241.307 290.87 243.039 286.538 243.039 281.26C243.039 270.603 235.477 263.572 224.551 260.164Z" fill="#2C2C2C"/>
<path d="M234.044 278.265C234.044 285.859 229.072 290.558 221.478 290.558C213.884 290.558 207.737 284.411 207.737 276.817C207.737 269.223 213.465 260.84 220.722 263.109C228.67 265.619 234.044 270.687 234.044 278.265Z" fill="#2C2C2C"/>
<path d="M117.701 281.257C117.701 291.522 124.427 297.878 134.692 297.878C144.957 297.878 153.259 289.543 153.259 279.294C153.259 269.045 145.504 257.702 135.722 260.775C124.958 264.138 117.701 270.992 117.701 281.257Z" fill="white"/>
<path fill-rule="evenodd" clip-rule="evenodd" d="M148.65 264.626C151.915 268.48 153.903 274.027 153.903 279.297C153.903 289.9 145.314 298.524 134.692 298.524C129.426 298.524 125.006 296.892 121.899 293.882C118.79 290.87 117.058 286.537 117.058 281.26C117.058 270.603 124.619 263.572 135.529 260.164C140.74 258.527 145.376 260.76 148.65 264.626ZM147.668 265.457C144.619 261.857 140.487 259.955 135.915 261.392L135.914 261.392C125.296 264.709 118.345 271.386 118.345 281.26C118.345 286.248 119.975 290.226 122.795 292.957C125.617 295.691 129.693 297.237 134.692 297.237C144.601 297.237 152.616 289.192 152.616 279.297C152.616 274.318 150.727 269.069 147.668 265.457Z" fill="#2C2C2C"/>
<path d="M126.066 278.265C126.066 285.859 131.038 290.558 138.632 290.558C146.227 290.558 152.373 284.411 152.373 276.817C152.373 269.223 146.645 260.84 139.405 263.109C131.424 265.619 126.066 270.687 126.066 278.265Z" fill="#2C2C2C"/>
<path d="M203.441 363.622C191.824 362.56 180.352 362.125 180.352 362.125C176.136 362.254 167.158 362.624 157.891 363.622C160.594 372.857 169.765 379.663 180.658 379.663C191.566 379.679 200.737 372.841 203.441 363.622Z" fill="#50BFD7"/>
<path d="M202.495 364.587C203.492 360.661 223.46 260.616 223.46 260.616C223.46 260.616 170.171 244.88 136.093 260.616L157.943 365.456L202.495 364.587Z" fill="white"/>
<path fill-rule="evenodd" clip-rule="evenodd" d="M223.639 260C223.64 260 223.64 260 223.458 260.617C224.089 260.743 224.089 260.744 224.089 260.744L224.088 260.748L223.865 261.868C223.718 262.602 223.503 263.678 223.229 265.05C222.681 267.793 221.897 271.717 220.954 276.437C219.066 285.878 216.539 298.506 213.981 311.257C208.868 336.741 203.621 362.763 203.117 364.747L202.996 365.223L157.42 366.112L135.356 260.248L135.821 260.033C153.025 252.089 175.014 252.107 192.625 254.077C201.444 255.063 209.194 256.543 214.739 257.776C217.512 258.393 219.734 258.948 221.265 259.349C222.03 259.55 222.623 259.712 223.024 259.825C223.225 259.881 223.379 259.924 223.482 259.954C223.534 259.969 223.573 259.98 223.599 259.988L223.629 259.997L223.637 259.999L223.639 260ZM223.458 260.617L224.089 260.743L224.204 260.167L223.64 260L223.458 260.617ZM222.711 261.073C222.7 261.07 222.689 261.067 222.678 261.064C222.282 260.954 221.697 260.793 220.938 260.594C219.422 260.197 217.215 259.645 214.459 259.033C208.948 257.807 201.245 256.336 192.482 255.356C175.091 253.41 153.632 253.41 136.826 260.989L158.462 364.804L201.98 363.955C202.892 359.866 207.857 335.235 212.719 311.004C215.277 298.253 217.804 285.625 219.691 276.185C220.635 271.464 221.419 267.541 221.967 264.798C222.241 263.426 222.456 262.35 222.602 261.616L222.711 261.073Z" fill="black"/>
<path d="M202.495 364.587C203.492 360.661 223.46 260.616 223.46 260.616C223.46 260.616 170.171 244.88 136.093 260.616L157.943 365.456L202.495 364.587Z" fill="white"/>
<path fill-rule="evenodd" clip-rule="evenodd" d="M223.639 260C223.64 260 223.64 260 223.458 260.617C224.089 260.743 224.089 260.744 224.089 260.744L224.088 260.748L223.865 261.868C223.718 262.602 223.503 263.678 223.229 265.05C222.681 267.793 221.897 271.717 220.954 276.437C219.066 285.878 216.539 298.506 213.981 311.257C208.868 336.741 203.621 362.763 203.117 364.747L202.996 365.223L157.42 366.112L135.356 260.248L135.821 260.033C153.025 252.089 175.014 252.107 192.625 254.077C201.444 255.063 209.194 256.543 214.739 257.776C217.512 258.393 219.734 258.948 221.265 259.349C222.03 259.55 222.623 259.712 223.024 259.825C223.225 259.881 223.379 259.924 223.482 259.954C223.534 259.969 223.573 259.98 223.599 259.988L223.629 259.997L223.637 259.999L223.639 260ZM223.458 260.617L224.089 260.743L224.204 260.167L223.64 260L223.458 260.617ZM222.711 261.073C222.7 261.07 222.689 261.067 222.678 261.064C222.282 260.954 221.697 260.793 220.938 260.594C219.422 260.197 217.215 259.645 214.459 259.033C208.948 257.807 201.245 256.336 192.482 255.356C175.091 253.41 153.632 253.41 136.826 260.989L158.462 364.804L201.98 363.955C202.892 359.866 207.857 335.235 212.719 311.004C215.277 298.253 217.804 285.625 219.691 276.185C220.635 271.464 221.419 267.541 221.967 264.798C222.241 263.426 222.456 262.35 222.602 261.616L222.711 261.073Z" fill="#2C2C2C"/>
<path d="M210.523 257.542C195.64 254.549 170.476 251.138 148.852 256.287C151.41 272.425 153.968 288.579 156.526 304.717C158.586 315.658 168.964 322.947 179.792 323.011C190.62 322.947 200.998 315.674 203.058 304.717C205.536 288.981 208.029 273.262 210.523 257.542Z" fill="#50BFD7"/>
<path fill-rule="evenodd" clip-rule="evenodd" d="M148.7 255.661C170.466 250.479 195.745 253.915 210.648 256.911L211.253 257.033L211.155 257.653C208.662 273.37 206.168 289.086 203.691 304.817L203.69 304.827L203.688 304.836C201.562 316.145 190.878 323.589 179.793 323.655L179.79 323.655L179.786 323.655C168.701 323.589 158.017 316.128 155.891 304.836L155.89 304.827L155.888 304.818C154.609 296.75 153.33 288.678 152.051 280.606L152.051 280.603C150.772 272.53 149.493 264.457 148.213 256.388L148.12 255.799L148.7 255.661ZM149.578 256.778C150.826 264.649 152.074 272.524 153.322 280.399L153.322 280.402C154.601 288.472 155.879 296.541 157.158 304.607C159.155 315.191 169.222 322.303 179.79 322.368C190.357 322.303 200.424 315.207 202.421 304.608C204.866 289.079 207.327 273.565 209.788 258.052C194.993 255.122 170.641 251.926 149.578 256.778Z" fill="#2C2C2C"/>
<path d="M177.942 263.256C183.026 263.256 190.926 261.711 190.926 256.643L189.623 239.717L188.481 224.914C188.481 219.83 184.362 215.727 179.293 215.727C176.751 215.727 174.467 216.757 172.793 218.414C171.136 220.071 170.09 222.372 170.09 224.914L168.964 239.733L167.886 253.94C166.438 262.516 177.942 263.256 177.942 263.256Z" fill="#2C2C2C"/>
<path d="M209.363 179.234C209.363 179.234 197.392 167.296 184.521 181.471C184.521 181.471 195.655 174.343 209.363 179.234Z" fill="#2C2C2C"/>
<path d="M190.827 370.59C190.827 370.992 191.181 371.458 191.6 371.41C196.346 370.911 199.982 367.243 204.665 368.015C199.966 370.348 195.896 374.403 196.475 380.372C196.539 381.112 197.247 381.402 197.794 380.951C201.157 378.087 205.019 375.529 209.524 376.478C211.454 376.881 213.723 377.637 215.718 377.379C218.695 377.009 221.205 375.658 222.685 372.778C225.292 367.79 224.326 361.805 218.486 360.566C218.341 360.533 218.228 360.55 218.099 360.598C215.943 359.745 213.981 358.667 212.243 356.785C210.57 354.95 209.009 352.923 207.191 351.234C204.761 348.965 202.122 347.179 198.904 348.708C198.422 348.933 198.454 349.625 198.76 349.995C200.176 351.748 201.833 353.422 203.57 355.031C201.833 354.629 200.079 354.419 198.277 354.564C195.059 354.838 191.262 356.978 191.342 360.807C191.358 361.29 191.696 361.579 192.115 361.628C195.075 361.933 198.052 361.885 200.996 362.191C196.411 363.542 190.779 365.087 190.827 370.59Z" fill="white"/>
<path fill-rule="evenodd" clip-rule="evenodd" d="M203.58 347.947C205.063 348.532 206.402 349.616 207.629 350.761C208.859 351.904 209.995 353.222 211.096 354.501C211.642 355.135 212.18 355.759 212.717 356.348C214.315 358.079 216.118 359.102 218.142 359.92C218.289 359.896 218.447 359.897 218.622 359.935C221.774 360.605 223.661 362.585 224.372 365.089C225.072 367.555 224.617 370.468 223.256 373.073C221.658 376.18 218.936 377.626 215.799 378.016C214.7 378.158 213.554 378.018 212.473 377.806C211.93 377.7 211.391 377.573 210.876 377.449C210.821 377.436 210.767 377.423 210.713 377.41C210.253 377.3 209.814 377.195 209.392 377.107L209.391 377.107C205.215 376.227 201.572 378.578 198.212 381.44L198.208 381.443L198.203 381.447C197.766 381.807 197.199 381.912 196.7 381.698C196.201 381.484 195.885 381.002 195.834 380.43C195.31 375.017 198.392 371.132 202.28 368.626C200.987 368.802 199.726 369.269 198.407 369.827C198.114 369.951 197.817 370.08 197.515 370.211C195.729 370.987 193.804 371.824 191.67 372.048C191.189 372.102 190.804 371.855 190.572 371.591C190.342 371.328 190.185 370.965 190.184 370.591C190.158 367.56 191.723 365.614 193.831 364.287C194.943 363.588 196.225 363.048 197.524 362.595C197.195 362.579 196.865 362.565 196.534 362.551L196.52 362.55C195.045 362.486 193.546 362.421 192.049 362.266L192.045 362.266L192.041 362.265C191.353 362.186 190.727 361.673 190.699 360.827L190.699 360.823L190.699 360.819C190.654 358.66 191.711 356.988 193.177 355.844C194.63 354.708 196.507 354.067 198.223 353.921L198.224 353.921L198.225 353.921C199.362 353.83 200.476 353.874 201.572 354.013C200.391 352.85 199.268 351.647 198.261 350.4C198.002 350.085 197.871 349.66 197.894 349.259C197.918 348.843 198.12 348.363 198.63 348.124C200.414 347.277 202.064 347.348 203.58 347.947ZM199.187 349.284C199.184 349.293 199.18 349.308 199.179 349.332C199.177 349.372 199.182 349.421 199.199 349.472C199.215 349.523 199.237 349.561 199.256 349.583L199.258 349.586L199.26 349.589C200.649 351.309 202.282 352.959 204.008 354.557L205.785 356.203L203.425 355.656C201.733 355.265 200.048 355.066 198.33 355.204C196.828 355.332 195.198 355.898 193.969 356.858C192.753 357.808 191.952 359.119 191.986 360.787C191.989 360.872 192.016 360.907 192.033 360.924C192.055 360.946 192.102 360.976 192.185 360.986C193.642 361.137 195.105 361.2 196.589 361.265L196.595 361.265C198.072 361.329 199.57 361.394 201.063 361.549L204.303 361.886L201.178 362.807C201.098 362.83 201.018 362.854 200.937 362.877C198.688 363.54 196.335 364.232 194.517 365.377C192.676 366.535 191.449 368.112 191.471 370.582L191.471 370.585V370.588C191.471 370.596 191.473 370.62 191.487 370.654C191.501 370.688 191.52 370.719 191.541 370.743C191.55 370.753 191.557 370.76 191.563 370.765C193.472 370.559 195.188 369.816 196.973 369.043C197.281 368.909 197.592 368.775 197.906 368.642C200.004 367.754 202.233 366.96 204.769 367.379L206.737 367.703L204.951 368.59C200.354 370.873 196.574 374.731 197.116 380.308L197.116 380.312L197.116 380.315C197.124 380.401 197.148 380.451 197.165 380.476C197.181 380.501 197.197 380.511 197.207 380.515C197.217 380.519 197.233 380.523 197.258 380.519C197.283 380.515 197.326 380.501 197.382 380.456C200.746 377.591 204.824 374.829 209.656 375.847C210.097 375.939 210.555 376.049 211.012 376.159C211.067 376.172 211.121 376.185 211.175 376.198C211.691 376.321 212.206 376.442 212.721 376.543C213.755 376.746 214.741 376.855 215.636 376.74L215.637 376.739L215.639 376.739C218.454 376.389 220.75 375.133 222.113 372.482L222.114 372.48L222.115 372.478C223.36 370.095 223.725 367.522 223.134 365.44C222.554 363.396 221.039 361.764 218.352 361.194L218.349 361.193L218.346 361.192C218.346 361.192 218.345 361.192 218.345 361.192C218.341 361.194 218.334 361.196 218.325 361.199L218.093 361.286L217.863 361.195C215.654 360.321 213.596 359.198 211.77 357.22L211.769 357.218L211.767 357.217C211.176 356.569 210.612 355.913 210.054 355.265C208.983 354.02 207.933 352.801 206.753 351.704L206.751 351.703C205.549 350.58 204.355 349.636 203.107 349.144C201.894 348.665 200.618 348.607 199.187 349.284Z" fill="#2C2C2C"/>
<path fill-rule="evenodd" clip-rule="evenodd" d="M137.604 187.182V187.503H136.316V187.182H137.604Z" fill="#2C2C2C"/>
<path fill-rule="evenodd" clip-rule="evenodd" d="M144.36 190.722V191.044H143.073V190.722H144.36Z" fill="#2C2C2C"/>
<path d="M185.937 275.225H173.58C170.298 275.225 167.627 277.896 167.627 281.178V293.535C167.627 296.817 170.298 299.488 173.58 299.488H185.937C189.219 299.488 191.89 296.817 191.89 293.535V281.178C191.89 277.896 189.235 275.225 185.937 275.225ZM164.345 269.963C162.462 269.963 160.934 271.492 160.934 273.374C160.934 275.257 162.462 276.785 164.345 276.785C166.227 276.785 167.756 275.257 167.756 273.374C167.756 271.492 166.227 269.963 164.345 269.963Z" fill="white"/>
<path d="M185.068 282.593C184.28 280.485 182.269 279.085 180.016 279.085H176.669L183.282 295.851H190.378L185.068 282.593ZM171.553 291.04L169.622 295.851H176.669L179.952 287.532H176.605C174.352 287.532 172.341 288.932 171.553 291.04ZM172.647 283.253C173.805 283.253 174.755 282.303 174.755 281.145C174.755 279.986 173.805 279.037 172.647 279.037C171.488 279.037 170.539 279.986 170.539 281.145C170.539 282.303 171.488 283.253 172.647 283.253Z" fill="#50BFD7"/>
<path d="M212.274 335.79C201.152 334.773 190.168 334.357 190.168 334.357C186.132 334.481 177.536 334.835 168.662 335.79C171.25 344.633 180.031 351.149 190.461 351.149C200.905 351.165 209.686 344.617 212.274 335.79Z" fill="#50BFD7"/>
<path d="M199.583 351.857C199.583 352.242 199.922 352.688 200.323 352.642C204.867 352.165 208.349 348.652 212.832 349.392C208.333 351.626 204.436 355.508 204.991 361.223C205.052 361.932 205.73 362.209 206.254 361.778C209.473 359.035 213.171 356.586 217.484 357.495C219.333 357.88 221.505 358.604 223.415 358.358C226.265 358.003 228.668 356.709 230.086 353.952C232.581 349.176 231.657 343.445 226.065 342.259C225.926 342.228 225.818 342.244 225.695 342.29C223.631 341.473 221.751 340.441 220.088 338.639C218.486 336.883 216.991 334.942 215.25 333.324C212.924 331.152 210.398 329.442 207.317 330.905C206.855 331.121 206.885 331.784 207.178 332.138C208.534 333.817 210.12 335.419 211.784 336.96C210.12 336.575 208.441 336.374 206.716 336.513C203.635 336.775 199.999 338.824 200.076 342.49C200.092 342.952 200.415 343.23 200.816 343.276C203.65 343.569 206.5 343.522 209.319 343.815C204.929 345.109 199.537 346.588 199.583 351.857Z" fill="#C4C4C4"/>
<path fill-rule="evenodd" clip-rule="evenodd" d="M211.79 330.178C213.21 330.738 214.493 331.776 215.667 332.873C216.845 333.967 217.932 335.229 218.987 336.453C219.51 337.06 220.025 337.658 220.539 338.222C222.069 339.879 223.795 340.858 225.733 341.642C225.874 341.619 226.025 341.619 226.192 341.656C229.21 342.297 231.018 344.193 231.698 346.591C232.368 348.952 231.932 351.741 230.63 354.235C229.1 357.21 226.494 358.595 223.49 358.968C222.437 359.104 221.34 358.97 220.305 358.767C219.785 358.665 219.269 358.544 218.776 358.426C218.723 358.413 218.671 358.401 218.62 358.388C218.179 358.283 217.759 358.182 217.356 358.098L217.354 358.097C213.356 357.255 209.868 359.506 206.65 362.246L206.647 362.25L206.643 362.253C206.223 362.598 205.681 362.698 205.203 362.494C204.725 362.289 204.423 361.827 204.374 361.279C203.872 356.096 206.823 352.377 210.546 349.977C209.307 350.146 208.101 350.593 206.837 351.128C206.557 351.247 206.272 351.37 205.984 351.495C204.274 352.238 202.43 353.039 200.387 353.254C199.926 353.306 199.558 353.07 199.336 352.816C199.116 352.565 198.965 352.217 198.964 351.859C198.94 348.957 200.438 347.094 202.456 345.823C203.521 345.153 204.748 344.637 205.992 344.203C205.677 344.188 205.361 344.174 205.044 344.161L205.031 344.16C203.619 344.099 202.184 344.036 200.749 343.888L200.746 343.888L200.742 343.888C200.083 343.812 199.484 343.321 199.457 342.51L199.457 342.506L199.457 342.503C199.414 340.436 200.426 338.835 201.83 337.739C203.221 336.652 205.018 336.038 206.661 335.898L206.662 335.898L206.664 335.898C207.752 335.811 208.819 335.853 209.868 335.986C208.737 334.872 207.662 333.721 206.698 332.527C206.45 332.225 206.324 331.818 206.346 331.434C206.369 331.036 206.563 330.576 207.051 330.348C208.759 329.537 210.339 329.605 211.79 330.178ZM207.584 331.459C207.582 331.467 207.578 331.482 207.577 331.504C207.574 331.542 207.58 331.59 207.595 331.638C207.611 331.687 207.632 331.723 207.65 331.745L207.652 331.748L207.655 331.75C208.984 333.397 210.548 334.977 212.2 336.507L213.901 338.082L211.642 337.56C210.022 337.184 208.409 336.995 206.764 337.127C205.326 337.249 203.765 337.791 202.588 338.71C201.424 339.619 200.657 340.875 200.689 342.472C200.693 342.553 200.718 342.587 200.734 342.603C200.756 342.624 200.801 342.653 200.881 342.663C202.275 342.807 203.676 342.868 205.097 342.929L205.102 342.93C206.517 342.991 207.951 343.053 209.38 343.202L212.483 343.524L209.491 344.406C209.414 344.428 209.337 344.451 209.26 344.474C207.107 345.107 204.854 345.771 203.113 346.866C201.35 347.976 200.176 349.486 200.197 351.851L200.197 351.853V351.856C200.197 351.864 200.199 351.887 200.212 351.919C200.225 351.952 200.243 351.982 200.264 352.005C200.272 352.014 200.279 352.021 200.285 352.026C202.113 351.828 203.755 351.117 205.464 350.376C205.759 350.249 206.057 350.12 206.357 349.993C208.367 349.143 210.501 348.383 212.929 348.783L214.813 349.094L213.103 349.943C208.701 352.129 205.083 355.823 205.601 361.163L205.601 361.166L205.602 361.169C205.609 361.252 205.632 361.3 205.648 361.324C205.664 361.348 205.679 361.357 205.689 361.361C205.698 361.365 205.714 361.369 205.737 361.365C205.761 361.361 205.803 361.347 205.856 361.304C209.077 358.561 212.982 355.917 217.608 356.891C218.03 356.979 218.469 357.085 218.906 357.19C218.958 357.202 219.011 357.215 219.063 357.227C219.556 357.345 220.05 357.461 220.542 357.558C221.532 357.752 222.476 357.857 223.333 357.746L223.335 357.746L223.336 357.746C226.031 357.411 228.23 356.207 229.535 353.67L229.536 353.668L229.537 353.666C230.729 351.384 231.078 348.921 230.512 346.927C229.957 344.97 228.507 343.407 225.934 342.861L225.931 342.861L225.928 342.86C225.928 342.86 225.928 342.86 225.927 342.86C225.923 342.861 225.917 342.863 225.909 342.866L225.686 342.95L225.466 342.862C223.351 342.026 221.38 340.95 219.632 339.056L219.631 339.055L219.63 339.054C219.063 338.433 218.523 337.805 217.989 337.184C216.963 335.993 215.958 334.825 214.828 333.775L214.827 333.774C213.676 332.699 212.532 331.796 211.337 331.324C210.176 330.866 208.954 330.81 207.584 331.459Z" fill="#2C2C2C"/>
<path d="M115.027 306.974H248.286C249.88 306.974 251.409 307.607 252.537 308.735C253.664 309.862 254.297 311.391 254.297 312.985V387.85H109.016V312.985C109.016 311.391 109.649 309.862 110.776 308.735C111.904 307.607 113.433 306.974 115.027 306.974Z" fill="white"/>
<path fill-rule="evenodd" clip-rule="evenodd" d="M115.028 307.74C113.636 307.74 112.302 308.293 111.319 309.277C110.335 310.26 109.782 311.594 109.782 312.986V387.084H253.532V312.986C253.532 311.594 252.979 310.26 251.995 309.277C251.012 308.293 249.678 307.74 248.287 307.74H115.028ZM110.235 308.193C111.506 306.922 113.23 306.208 115.028 306.208H248.287C250.084 306.208 251.808 306.922 253.079 308.193C254.35 309.464 255.064 311.188 255.064 312.986V387.851C255.064 388.274 254.721 388.617 254.298 388.617H109.016C108.593 388.617 108.25 388.274 108.25 387.851V312.986C108.25 311.188 108.964 309.464 110.235 308.193Z" fill="#2C2C2C"/>
<path d="M254.297 333.879C236.047 338.508 217.316 350.29 182.414 366.881C148.75 382.895 121.195 382.619 109.016 381.38V387.849H254.297V333.879Z" fill="#2C2C2C"/>
<path fill-rule="evenodd" clip-rule="evenodd" d="M254.768 333.273C254.955 333.418 255.064 333.642 255.064 333.878V387.848C255.064 388.271 254.721 388.614 254.298 388.614H109.016C108.593 388.614 108.25 388.271 108.25 387.848V381.38C108.25 381.163 108.342 380.956 108.503 380.811C108.663 380.666 108.878 380.595 109.094 380.617C121.168 381.845 148.577 382.129 182.085 366.188L182.086 366.188C193.581 360.724 203.307 355.788 211.853 351.452C216.278 349.206 220.387 347.121 224.261 345.206C235.594 339.605 244.901 335.471 254.109 333.135C254.339 333.077 254.582 333.128 254.768 333.273ZM182.743 367.572C149.678 383.302 122.459 383.395 109.782 382.224V387.081H253.532V334.869C244.796 337.202 235.862 341.182 224.94 346.58C221.092 348.482 216.995 350.561 212.577 352.803C204.019 357.145 194.253 362.101 182.743 367.572Z" fill="#2C2C2C"/>
<path d="M205.426 131.638C198.617 123.265 189.103 118.215 176.886 118.215C149.224 118.215 122.198 143.726 122.198 175.525C122.198 207.324 144.614 233.112 172.275 233.112C174.931 233.112 177.505 232.868 179.997 232.428C180.258 233.829 180.404 235.262 180.404 236.745C180.404 237.005 180.388 237.282 180.388 237.543C256.611 219.037 244.133 126.93 205.426 131.638Z" fill="#2C2C2C"/>
<path d="M141.274 213.629C147.077 213.629 151.781 208.924 151.781 203.121C151.781 197.318 147.077 192.614 141.274 192.614C135.471 192.614 130.767 197.318 130.767 203.121C130.767 208.924 135.471 213.629 141.274 213.629Z" fill="white"/>
<path fill-rule="evenodd" clip-rule="evenodd" d="M141.273 193.265C135.83 193.265 131.417 197.677 131.417 203.12C131.417 208.564 135.83 212.976 141.273 212.976C146.716 212.976 151.129 208.564 151.129 203.12C151.129 197.677 146.716 193.265 141.273 193.265ZM130.114 203.12C130.114 196.957 135.11 191.961 141.273 191.961C147.436 191.961 152.432 196.957 152.432 203.12C152.432 209.283 147.436 214.279 141.273 214.279C135.11 214.279 130.114 209.283 130.114 203.12Z" fill="#2C2C2C"/>
<path d="M215.266 213.629C221.069 213.629 225.774 208.924 225.774 203.121C225.774 197.318 221.069 192.614 215.266 192.614C209.463 192.614 204.759 197.318 204.759 203.121C204.759 208.924 209.463 213.629 215.266 213.629Z" fill="white"/>
<path fill-rule="evenodd" clip-rule="evenodd" d="M215.265 193.265C209.822 193.265 205.41 197.677 205.41 203.12C205.41 208.564 209.822 212.976 215.265 212.976C220.709 212.976 225.121 208.564 225.121 203.12C225.121 197.677 220.709 193.265 215.265 193.265ZM204.106 203.12C204.106 196.957 209.103 191.961 215.265 191.961C221.428 191.961 226.424 196.957 226.424 203.12C226.424 209.283 221.428 214.279 215.265 214.279C209.103 214.279 204.106 209.283 204.106 203.12Z" fill="#2C2C2C"/>
<path d="M179.264 246.959C201.82 246.959 220.105 221.075 220.105 189.144C220.105 157.214 201.82 131.329 179.264 131.329C156.709 131.329 138.424 157.214 138.424 189.144C138.424 221.075 156.709 246.959 179.264 246.959Z" fill="white"/>
<path fill-rule="evenodd" clip-rule="evenodd" d="M150.917 148.638C143.613 158.978 139.075 173.297 139.075 189.143C139.075 204.99 143.613 219.309 150.917 229.649C158.223 239.991 168.254 246.307 179.263 246.307C190.273 246.307 200.304 239.991 207.61 229.649C214.914 219.309 219.452 204.99 219.452 189.143C219.452 173.297 214.914 158.978 207.61 148.638C200.304 138.296 190.273 131.98 179.263 131.98C168.254 131.98 158.223 138.296 150.917 148.638ZM149.853 147.886C157.329 137.303 167.717 130.677 179.263 130.677C190.81 130.677 201.198 137.303 208.674 147.886C216.151 158.471 220.755 173.06 220.755 189.143C220.755 205.227 216.151 219.816 208.674 230.401C201.198 240.984 190.81 247.61 179.263 247.61C167.717 247.61 157.329 240.984 149.853 230.401C142.376 219.816 137.771 205.227 137.771 189.143C137.771 173.06 142.376 158.471 149.853 147.886Z" fill="#2C2C2C"/>
<path d="M132.462 176.323C132.462 176.323 167.226 178.017 178.808 157.1C178.808 157.1 203.961 178.864 227.973 177.17L225.709 167.559L216.391 149.183L210.738 142.406L199.155 130.253L183.614 123.753L164.962 126.295L140.086 143.253L136.974 154.559L132.462 176.323Z" fill="#2C2C2C"/>
<path d="M180.258 211.738C180.274 211.836 180.062 212.015 179.59 212.015C179.134 212.032 178.433 211.82 177.814 211.233C177.505 210.94 177.228 210.582 177.016 210.126C176.983 210.06 176.967 209.995 176.934 209.93L176.902 209.832L176.869 209.751L176.82 209.604C176.804 209.539 176.788 209.458 176.755 209.393C176.69 209.148 176.641 208.888 176.625 208.611C176.527 207.535 176.739 206.444 177 205.401C178.01 201.231 179.199 197.957 179.639 198.054C180.078 198.168 179.622 201.622 178.612 205.792C178.352 206.819 178.156 207.747 178.156 208.529C178.156 208.725 178.172 208.92 178.189 209.099L178.205 209.165V209.197V209.213V209.23C178.205 209.23 178.189 209.181 178.205 209.197L178.238 209.36L178.254 209.441L178.27 209.49L178.303 209.588C178.401 209.898 178.547 210.191 178.71 210.419C179.036 210.891 179.427 211.185 179.736 211.347C180.03 211.559 180.241 211.624 180.258 211.738Z" fill="#2C2C2C"/>
<path d="M168.643 192.207C168.643 196.849 164.619 200.613 159.667 200.613C154.698 200.613 150.69 196.849 150.69 192.207C150.69 187.564 154.714 183.801 159.667 183.801C164.603 183.801 168.643 187.564 168.643 192.207Z" fill="white"/>
<path fill-rule="evenodd" clip-rule="evenodd" d="M159.667 184.452C155.033 184.452 151.342 187.963 151.342 192.206C151.342 196.45 155.018 199.961 159.667 199.961C164.3 199.961 167.991 196.45 167.991 192.206C167.991 187.964 164.285 184.452 159.667 184.452ZM150.039 192.206C150.039 187.164 154.396 183.149 159.667 183.149C164.921 183.149 169.294 187.163 169.294 192.206C169.294 197.249 164.938 201.264 159.667 201.264C154.379 201.264 150.039 197.248 150.039 192.206Z" fill="#2C2C2C"/>
<path d="M155.252 191.686C155.252 195.515 157.744 198.626 160.807 198.626C163.87 198.626 166.362 195.515 166.362 191.686C166.362 187.858 163.87 184.747 160.807 184.747C157.744 184.73 155.252 187.842 155.252 191.686Z" fill="#50BFD7"/>
<path d="M156.864 191.686C156.864 194.407 158.624 196.606 160.807 196.606C162.989 196.606 164.749 194.407 164.749 191.686C164.749 188.966 162.989 186.75 160.807 186.75C158.624 186.75 156.864 188.949 156.864 191.686Z" fill="#2C2C2C"/>
<path d="M156.62 187.009C156.62 187.758 157.532 188.345 158.656 188.345C159.78 188.345 160.693 187.742 160.693 187.009C160.693 186.26 159.78 185.673 158.656 185.673C157.532 185.657 156.62 186.26 156.62 187.009Z" fill="white"/>
<path d="M171.2 179.353C171.2 179.353 159.08 167.265 146.048 181.617C146.048 181.617 157.321 174.401 171.2 179.353Z" fill="#2C2C2C"/>
<path d="M207.69 192.207C207.69 196.849 203.667 200.613 198.714 200.613C193.746 200.613 189.738 196.849 189.738 192.207C189.738 187.564 193.762 183.801 198.714 183.801C203.667 183.801 207.69 187.564 207.69 192.207Z" fill="white"/>
<path fill-rule="evenodd" clip-rule="evenodd" d="M198.715 184.452C194.081 184.452 190.39 187.963 190.39 192.206C190.39 196.45 194.065 199.961 198.715 199.961C203.348 199.961 207.039 196.45 207.039 192.206C207.039 187.963 203.348 184.452 198.715 184.452ZM189.087 192.206C189.087 187.164 193.444 183.149 198.715 183.149C203.986 183.149 208.342 187.164 208.342 192.206C208.342 197.249 203.986 201.264 198.715 201.264C193.427 201.264 189.087 197.248 189.087 192.206Z" fill="#2C2C2C"/>
<path d="M194.315 191.686C194.315 195.515 196.808 198.626 199.871 198.626C202.933 198.626 205.426 195.515 205.426 191.686C205.426 187.858 202.933 184.747 199.871 184.747C196.792 184.73 194.315 187.842 194.315 191.686Z" fill="#50BFD7"/>
<path d="M195.912 191.686C195.912 194.407 197.671 196.606 199.854 196.606C202.037 196.606 203.797 194.407 203.797 191.686C203.797 188.966 202.037 186.75 199.854 186.75C197.688 186.75 195.912 188.949 195.912 191.686Z" fill="#2C2C2C"/>
<path d="M195.668 187.009C195.668 187.758 196.58 188.345 197.704 188.345C198.828 188.345 199.741 187.742 199.741 187.009C199.741 186.26 198.828 185.673 197.704 185.673C196.58 185.657 195.668 186.26 195.668 187.009Z" fill="white"/>
<path d="M210.264 178.034C210.264 178.034 198.144 165.946 185.111 180.298C185.095 180.298 196.368 173.081 210.264 178.034Z" fill="#2C2C2C"/>
<path fill-rule="evenodd" clip-rule="evenodd" d="M137.61 186.081V186.407H136.307V186.081H137.61Z" fill="#2C2C2C"/>
<path fill-rule="evenodd" clip-rule="evenodd" d="M144.451 189.666V189.991H143.147V189.666H144.451Z" fill="#2C2C2C"/>
<path d="M181.497 187.743C183.729 188.215 182.898 189.665 182.898 189.877C182.898 190.089 183.729 202.144 194.497 205.32C205.265 208.497 211.716 202.258 213.589 199.13C215.463 196.002 217.026 188.574 217.483 188.003C217.955 187.433 220.187 186.44 220.187 186.44L220.447 183.524L217.646 182.693C217.646 182.693 210.575 179.467 200.166 179.321C189.772 179.158 183.892 185.153 183.892 185.153C180.959 184.224 177.326 184.094 174.003 185.153C174.003 185.153 168.122 179.174 157.729 179.321C147.336 179.484 140.249 182.693 140.249 182.693L137.447 183.524L137.708 186.44C137.708 186.44 139.94 187.433 140.412 188.003C140.885 188.574 142.432 196.018 144.306 199.13C146.179 202.258 152.63 208.497 163.398 205.32C174.166 202.144 174.997 190.089 174.997 189.877C174.997 189.665 174.166 188.215 176.398 187.743C178.353 187.336 179.558 187.336 181.497 187.743ZM207.35 202.828C199.139 207.764 189.3 202.779 186.335 196.279C183.37 189.779 185.863 186.342 185.863 186.342C190.815 178.262 210.82 177.92 214.257 186.651C214.844 188.118 215.56 197.892 207.35 202.828ZM143.638 186.651C147.075 177.903 167.08 178.262 172.032 186.342C172.032 186.342 174.525 189.779 171.56 196.279C168.595 202.779 158.772 207.764 150.545 202.828C142.351 197.892 143.067 188.118 143.638 186.651Z" fill="#2C2C2C"/>
<ellipse cx="179.53" cy="225.406" rx="6.38401" ry="4.46881" fill="white"/>
<path fill-rule="evenodd" clip-rule="evenodd" d="M179.551 229.643C183.015 229.643 185.214 227.502 185.214 225.525C185.214 223.548 183.015 221.406 179.551 221.406C176.088 221.406 173.888 223.548 173.888 225.525C173.888 227.502 176.088 229.643 179.551 229.643ZM179.551 231.016C183.437 231.016 186.587 228.557 186.587 225.525C186.587 222.492 183.437 220.034 179.551 220.034C175.666 220.034 172.516 222.492 172.516 225.525C172.516 228.557 175.666 231.016 179.551 231.016Z" fill="#454545"/>
<path d="M253.125 382.488H109.75V386.883H253.125V382.488Z" fill="white"/>
</svg>
