<svg width="363" height="320" viewBox="0 0 363 320" fill="none" xmlns="http://www.w3.org/2000/svg">
<path d="M344.949 97.2853C344.949 97.2853 331.72 46.0524 251.635 13.7421C171.55 -18.5681 99.9027 11.3569 83.5689 49.2175C67.2351 87.0781 84.3531 107.523 73.4534 139.856C62.5538 172.189 6.55782 213.139 29.1569 262.797C51.7561 312.455 157.506 326.637 243.08 316.392C328.654 306.147 395.511 192.649 344.949 97.2853Z" fill="#50BFD7"/>
<path opacity="0.7" d="M344.949 97.2853C344.949 97.2853 331.72 46.0524 251.635 13.7421C171.55 -18.5681 99.9027 11.3569 83.5689 49.2175C67.2351 87.0781 84.3531 107.523 73.4534 139.856C62.5538 172.189 6.55782 213.139 29.1569 262.797C51.7561 312.455 157.506 326.637 243.08 316.392C328.654 306.147 395.511 192.649 344.949 97.2853Z" fill="white"/>
<path fill-rule="evenodd" clip-rule="evenodd" d="M275.452 245.944C275.672 245.92 275.868 246.079 275.892 246.299L279.031 275.768C279.054 275.988 278.895 276.185 278.676 276.208C278.456 276.231 278.26 276.072 278.236 275.853L275.097 246.383C275.074 246.164 275.233 245.967 275.452 245.944Z" fill="#263238"/>
<path d="M275.476 247.17C275.476 247.17 269.839 242.782 269.839 232.748C269.839 222.713 277.358 214.569 277.358 214.569C277.358 214.569 285.511 224.603 283.629 234.629C281.747 244.655 275.476 247.17 275.476 247.17Z" fill="#50BFD7"/>
<path fill-rule="evenodd" clip-rule="evenodd" d="M277.67 214.317L277.36 214.569L277.066 214.297C277.145 214.212 277.256 214.165 277.372 214.169C277.488 214.173 277.597 214.227 277.67 214.317ZM275.478 247.169C275.232 247.485 275.232 247.484 275.232 247.484L275.231 247.484L275.23 247.483L275.225 247.479L275.21 247.467C275.198 247.457 275.18 247.443 275.158 247.424C275.113 247.386 275.048 247.331 274.967 247.257C274.805 247.111 274.577 246.892 274.304 246.599C273.759 246.013 273.037 245.129 272.316 243.926C270.873 241.519 269.44 237.843 269.44 232.747C269.44 227.633 271.355 223.019 273.253 219.697C274.203 218.033 275.154 216.686 275.867 215.755C276.224 215.289 276.522 214.926 276.732 214.68C276.837 214.556 276.919 214.462 276.976 214.397C277.005 214.365 277.027 214.341 277.042 214.324L277.059 214.305L277.064 214.3L277.065 214.298L277.066 214.298C277.066 214.298 277.066 214.297 277.36 214.569C277.67 214.317 277.67 214.317 277.67 214.317L277.67 214.317L277.672 214.319L277.677 214.325L277.695 214.349C277.712 214.369 277.735 214.399 277.766 214.438C277.827 214.516 277.915 214.631 278.027 214.78C278.249 215.079 278.564 215.516 278.936 216.071C279.679 217.18 280.649 218.764 281.561 220.666C283.379 224.46 284.986 229.568 284.023 234.702C283.067 239.793 280.992 242.999 279.137 244.935C278.21 245.902 277.342 246.549 276.701 246.957C276.381 247.161 276.117 247.305 275.931 247.398C275.838 247.445 275.764 247.48 275.712 247.503C275.687 247.515 275.666 247.523 275.652 247.53L275.635 247.537L275.629 247.539L275.628 247.54L275.627 247.54C275.627 247.54 275.626 247.54 275.478 247.169ZM275.478 247.169L275.232 247.485C275.344 247.572 275.494 247.593 275.626 247.54L275.478 247.169ZM275.542 246.699C275.551 246.695 275.561 246.69 275.571 246.685C275.735 246.602 275.976 246.471 276.272 246.282C276.866 245.905 277.683 245.297 278.559 244.382C280.31 242.555 282.311 239.49 283.237 234.555C284.155 229.664 282.627 224.741 280.84 221.012C279.949 219.152 278.999 217.601 278.272 216.515C277.909 215.973 277.601 215.547 277.386 215.258C277.37 215.237 277.355 215.217 277.34 215.198C277.139 215.435 276.85 215.787 276.502 216.241C275.806 217.15 274.876 218.467 273.947 220.093C272.085 223.351 270.24 227.826 270.24 232.747C270.24 237.685 271.626 241.22 273.002 243.515C273.69 244.664 274.377 245.504 274.889 246.055C275.145 246.33 275.357 246.532 275.504 246.665C275.517 246.677 275.53 246.688 275.542 246.699Z" fill="#263238"/>
<path fill-rule="evenodd" clip-rule="evenodd" d="M276.956 223.797C277.176 223.811 277.343 224.001 277.329 224.221L275.893 246.366C275.879 246.586 275.689 246.753 275.469 246.739C275.248 246.725 275.081 246.535 275.096 246.314L276.531 224.17C276.546 223.949 276.736 223.782 276.956 223.797Z" fill="#263238"/>
<path fill-rule="evenodd" clip-rule="evenodd" d="M291.722 252.958C291.91 253.072 291.971 253.318 291.857 253.507C287.961 259.965 284.63 266.748 281.902 273.781C281.822 273.986 281.591 274.088 281.385 274.009C281.179 273.929 281.077 273.697 281.157 273.491C283.902 266.416 287.253 259.592 291.173 253.094C291.287 252.905 291.533 252.844 291.722 252.958Z" fill="#263238"/>
<path d="M288.563 258.63C288.563 258.63 285.432 252.197 289.861 243.218C294.29 234.238 304.641 230.239 304.641 230.239C304.641 230.239 307.52 242.837 301.396 251.005C295.272 259.173 288.563 258.63 288.563 258.63Z" fill="#50BFD7"/>
<path fill-rule="evenodd" clip-rule="evenodd" d="M305.029 230.151L304.639 230.24L304.495 229.868C304.603 229.826 304.724 229.833 304.827 229.888C304.929 229.942 305.003 230.038 305.029 230.151ZM288.562 258.631C288.202 258.806 288.202 258.806 288.202 258.806L288.201 258.803L288.199 258.798L288.191 258.781C288.184 258.766 288.174 258.746 288.162 258.719C288.138 258.665 288.105 258.587 288.065 258.485C287.984 258.282 287.875 257.985 287.759 257.601C287.528 256.835 287.269 255.722 287.152 254.326C286.917 251.53 287.252 247.603 289.501 243.042C291.758 238.466 295.515 235.174 298.686 233.031C300.275 231.958 301.723 231.169 302.775 230.648C303.301 230.387 303.729 230.193 304.026 230.063C304.175 229.999 304.291 229.95 304.37 229.918C304.41 229.901 304.441 229.889 304.462 229.881L304.486 229.871L304.492 229.869L304.494 229.868L304.495 229.868C304.495 229.868 304.495 229.868 304.639 230.24C305.029 230.151 305.029 230.151 305.029 230.151L305.029 230.155L305.031 230.162L305.038 230.192C305.043 230.217 305.051 230.254 305.061 230.303C305.081 230.4 305.11 230.542 305.144 230.725C305.212 231.091 305.301 231.622 305.389 232.284C305.566 233.607 305.736 235.456 305.713 237.565C305.667 241.771 304.85 247.063 301.714 251.246C298.604 255.394 295.332 257.346 292.818 258.258C291.563 258.712 290.501 258.906 289.748 258.986C289.371 259.026 289.072 259.037 288.864 259.038C288.76 259.039 288.679 259.037 288.623 259.035C288.595 259.034 288.573 259.032 288.557 259.031L288.538 259.03L288.533 259.03L288.531 259.03C288.53 259.03 288.529 259.03 288.562 258.631ZM288.562 258.631L288.202 258.806C288.264 258.933 288.389 259.018 288.529 259.03L288.562 258.631ZM288.827 258.239C288.838 258.239 288.849 258.239 288.86 258.239C289.043 258.238 289.315 258.228 289.664 258.191C290.36 258.117 291.358 257.937 292.545 257.506C294.916 256.647 298.06 254.787 301.075 250.767C304.063 246.781 304.868 241.691 304.914 237.556C304.936 235.494 304.77 233.684 304.597 232.389C304.511 231.742 304.424 231.225 304.358 230.871C304.353 230.845 304.349 230.82 304.344 230.797C304.058 230.921 303.643 231.11 303.13 231.364C302.103 231.873 300.687 232.644 299.134 233.694C296.023 235.795 292.39 238.992 290.218 243.396C288.039 247.814 287.724 251.594 287.948 254.259C288.06 255.593 288.307 256.65 288.524 257.37C288.633 257.73 288.734 258.006 288.807 258.19C288.814 258.207 288.821 258.223 288.827 258.239Z" fill="#263238"/>
<path fill-rule="evenodd" clip-rule="evenodd" d="M300.183 239.527C300.371 239.642 300.431 239.888 300.316 240.076L288.903 258.838C288.789 259.027 288.543 259.087 288.354 258.972C288.166 258.857 288.106 258.612 288.22 258.423L299.633 239.661C299.748 239.472 299.994 239.412 300.183 239.527Z" fill="#263238"/>
<path fill-rule="evenodd" clip-rule="evenodd" d="M262.062 252.066C262.253 251.955 262.498 252.02 262.609 252.211L267 259.777C269.897 264.968 272.22 270.459 273.929 276.153C273.992 276.364 273.873 276.587 273.661 276.651C273.45 276.714 273.227 276.594 273.164 276.383C271.471 270.746 269.171 265.309 266.304 260.169L261.917 252.612C261.807 252.421 261.871 252.177 262.062 252.066Z" fill="#263238"/>
<path d="M265.792 258.256C262.33 259.32 258.654 259.489 255.108 258.749C251.562 258.008 248.261 256.382 245.513 254.022C235.779 245.845 236.323 229.16 236.323 229.16C236.323 229.16 255.191 226.467 262.807 237.158C265.015 240.151 266.444 243.647 266.965 247.33C267.487 251.013 267.083 254.768 265.792 258.256V258.256Z" fill="#50BFD7"/>
<path fill-rule="evenodd" clip-rule="evenodd" d="M236.323 229.162C235.924 229.149 235.924 229.149 235.924 229.149L235.924 229.153L235.923 229.163L235.922 229.201C235.922 229.234 235.921 229.283 235.92 229.346C235.918 229.473 235.917 229.659 235.919 229.898C235.923 230.377 235.94 231.067 235.991 231.921C236.093 233.627 236.332 235.988 236.877 238.608C237.965 243.835 240.288 250.155 245.255 254.329C248.054 256.732 251.415 258.388 255.027 259.142C258.639 259.896 262.383 259.724 265.91 258.64L265.793 258.258L266.167 258.397C267.481 254.846 267.892 251.025 267.361 247.276C266.831 243.528 265.377 239.972 263.131 236.925C259.222 231.441 252.458 229.422 246.755 228.755C243.894 228.42 241.275 228.423 239.372 228.509C238.42 228.552 237.646 228.616 237.109 228.669C236.841 228.696 236.631 228.72 236.488 228.738C236.417 228.746 236.362 228.753 236.325 228.758L236.282 228.764L236.271 228.766L236.267 228.766C236.267 228.766 236.267 228.766 236.323 229.162ZM236.718 229.515C236.717 229.619 236.717 229.744 236.718 229.891C236.722 230.357 236.739 231.034 236.789 231.873C236.889 233.551 237.124 235.872 237.659 238.445C238.733 243.605 241.005 249.715 245.771 253.718L245.774 253.721C248.471 256.037 251.71 257.633 255.19 258.36C258.605 259.073 262.143 258.926 265.486 257.934C266.7 254.56 267.073 250.94 266.57 247.388C266.058 243.771 264.655 240.337 262.486 237.397L262.482 237.392C258.774 232.187 252.298 230.208 246.663 229.549C243.855 229.22 241.281 229.223 239.408 229.307C238.472 229.35 237.713 229.413 237.188 229.465C237 229.483 236.842 229.501 236.718 229.515ZM236.323 229.162L236.267 228.766C236.075 228.794 235.93 228.955 235.924 229.149L236.323 229.162Z" fill="#263238"/>
<path fill-rule="evenodd" clip-rule="evenodd" d="M243.151 234.665C243.31 234.512 243.563 234.517 243.716 234.677L266.08 257.981C266.233 258.141 266.228 258.394 266.068 258.546C265.909 258.699 265.656 258.694 265.503 258.535L243.14 235.23C242.987 235.071 242.992 234.818 243.151 234.665Z" fill="#263238"/>
<path d="M288.95 269.501H265.077V292.911H288.95V269.501Z" fill="#263238"/>
<path fill-rule="evenodd" clip-rule="evenodd" d="M264.679 269.498C264.679 269.278 264.858 269.099 265.078 269.099H288.951C289.172 269.099 289.351 269.278 289.351 269.498V292.908C289.351 293.129 289.172 293.308 288.951 293.308H265.078C264.858 293.308 264.679 293.129 264.679 292.908V269.498ZM265.478 269.898V292.509H288.551V269.898H265.478Z" fill="#263238"/>
<path opacity="0.3" d="M327.463 37.6113H158.361V186.819H327.463V37.6113Z" fill="black"/>
<path d="M331.708 29.9873H162.606V179.195H331.708V29.9873Z" fill="white"/>
<path fill-rule="evenodd" clip-rule="evenodd" d="M161.618 29.9876C161.618 29.4422 162.06 29 162.606 29H331.708C332.253 29 332.695 29.4422 332.695 29.9876V179.195C332.695 179.741 332.253 180.183 331.708 180.183H162.606C162.06 180.183 161.618 179.741 161.618 179.195V29.9876ZM163.593 30.9753V178.208H330.72V30.9753H163.593Z" fill="#263238"/>
<path d="M331.708 29.9873H162.606V40.6507H331.708V29.9873Z" fill="#263238"/>
<path fill-rule="evenodd" clip-rule="evenodd" d="M161.618 29.9876C161.618 29.4422 162.06 29 162.606 29H331.708C332.253 29 332.695 29.4422 332.695 29.9876V40.651C332.695 41.1965 332.253 41.6387 331.708 41.6387H162.606C162.06 41.6387 161.618 41.1965 161.618 40.651V29.9876ZM163.593 30.9753V39.6634H330.72V30.9753H163.593Z" fill="#263238"/>
<path d="M236.586 93.8888V78.159C236.586 75.2993 237.722 72.5566 239.744 70.5345C241.767 68.5123 244.509 67.3763 247.369 67.3763C250.229 67.3763 252.971 68.5123 254.994 70.5345C257.016 72.5566 258.152 75.2993 258.152 78.159V87.3502H262.449V78.159C262.449 74.1596 260.86 70.3239 258.032 67.4959C255.204 64.6679 251.368 63.0791 247.369 63.0791C243.37 63.0791 239.534 64.6679 236.706 67.4959C233.878 70.3239 232.289 74.1596 232.289 78.159V93.8888H236.586Z" fill="white"/>
<path d="M306.11 130.691H188.19C185.26 130.691 182.885 133.067 182.885 135.997V148.583C182.885 151.513 185.26 153.888 188.19 153.888H306.11C309.04 153.888 311.416 151.513 311.416 148.583V135.997C311.416 133.067 309.04 130.691 306.11 130.691Z" fill="white"/>
<path fill-rule="evenodd" clip-rule="evenodd" d="M188.189 131.681C185.805 131.681 183.872 133.614 183.872 135.999V148.585C183.872 150.97 185.805 152.903 188.189 152.903H306.11C308.494 152.903 310.427 150.97 310.427 148.585V135.999C310.427 133.614 308.494 131.681 306.11 131.681H188.189ZM181.896 135.999C181.896 132.523 184.714 129.706 188.189 129.706H306.11C309.585 129.706 312.403 132.523 312.403 135.999V148.585C312.403 152.061 309.585 154.878 306.11 154.878H188.189C184.714 154.878 181.896 152.061 181.896 148.585V135.999Z" fill="#263238"/>
<path d="M195.365 143.028C195.182 142.994 195.01 142.92 194.86 142.812C194.71 142.703 194.586 142.562 194.497 142.4C194.408 142.237 194.356 142.057 194.346 141.872C194.335 141.687 194.366 141.502 194.436 141.33L194.503 141.158C194.556 140.987 194.645 140.83 194.764 140.697C194.883 140.564 195.029 140.458 195.192 140.387C195.356 140.315 195.533 140.279 195.711 140.282C195.89 140.284 196.066 140.325 196.227 140.402C197.308 140.819 198.337 141.362 199.291 142.02C198.952 140.872 198.756 139.687 198.707 138.492C198.696 138.311 198.722 138.13 198.784 137.96C198.846 137.79 198.942 137.634 199.066 137.502C199.19 137.37 199.34 137.266 199.507 137.194C199.673 137.122 199.852 137.086 200.033 137.086H200.219C200.4 137.086 200.579 137.122 200.746 137.194C200.912 137.266 201.062 137.37 201.186 137.502C201.31 137.634 201.406 137.79 201.468 137.96C201.53 138.13 201.556 138.311 201.545 138.492C201.495 139.686 201.303 140.87 200.975 142.02C201.931 141.373 202.954 140.83 204.025 140.402C204.188 140.323 204.366 140.282 204.547 140.28C204.727 140.277 204.906 140.315 205.071 140.39C205.235 140.464 205.381 140.574 205.498 140.711C205.616 140.849 205.701 141.01 205.75 141.184V141.304C205.827 141.474 205.865 141.661 205.86 141.848C205.855 142.036 205.807 142.22 205.72 142.386C205.633 142.552 205.509 142.696 205.358 142.808C205.207 142.919 205.032 142.994 204.848 143.028C203.735 143.326 202.591 143.495 201.439 143.532C202.382 144.225 203.238 145.032 203.986 145.932C204.095 146.069 204.176 146.226 204.225 146.394C204.274 146.562 204.288 146.738 204.269 146.912C204.249 147.085 204.195 147.254 204.11 147.406C204.025 147.559 203.911 147.694 203.773 147.802L203.628 147.922C203.485 148.042 203.317 148.13 203.137 148.177C202.956 148.224 202.767 148.23 202.583 148.194C202.4 148.159 202.227 148.082 202.077 147.971C201.927 147.859 201.805 147.716 201.718 147.55C201.08 146.572 200.551 145.527 200.139 144.434C199.705 145.524 199.163 146.568 198.521 147.55C198.434 147.716 198.312 147.859 198.162 147.971C198.012 148.082 197.839 148.159 197.656 148.194C197.472 148.23 197.283 148.224 197.102 148.177C196.922 148.13 196.754 148.042 196.611 147.922L196.479 147.802C196.341 147.695 196.225 147.561 196.139 147.409C196.053 147.256 195.997 147.088 195.976 146.914C195.956 146.74 195.969 146.564 196.017 146.396C196.064 146.227 196.145 146.07 196.253 145.932C197.019 145.031 197.877 144.213 198.813 143.492C197.649 143.486 196.49 143.33 195.365 143.028V143.028Z" fill="#263238"/>
<path d="M208.812 143.028C208.63 142.994 208.457 142.92 208.307 142.812C208.157 142.703 208.033 142.562 207.944 142.4C207.855 142.237 207.803 142.057 207.793 141.872C207.783 141.687 207.814 141.502 207.884 141.33L207.95 141.158C208.003 140.987 208.092 140.83 208.211 140.697C208.33 140.564 208.476 140.458 208.64 140.387C208.803 140.315 208.98 140.279 209.159 140.282C209.337 140.284 209.513 140.325 209.674 140.402C210.756 140.819 211.784 141.362 212.738 142.02C212.399 140.872 212.203 139.687 212.154 138.492C212.143 138.311 212.17 138.13 212.231 137.96C212.293 137.79 212.389 137.634 212.513 137.502C212.638 137.37 212.788 137.266 212.954 137.194C213.12 137.122 213.3 137.086 213.481 137.086H213.587C213.768 137.086 213.947 137.122 214.113 137.194C214.28 137.266 214.43 137.37 214.554 137.502C214.678 137.634 214.774 137.79 214.836 137.96C214.898 138.13 214.924 138.311 214.913 138.492C214.862 139.686 214.671 140.87 214.343 142.02C215.299 141.373 216.321 140.83 217.393 140.402C217.558 140.336 217.735 140.304 217.913 140.308C218.09 140.312 218.266 140.352 218.428 140.425C218.59 140.498 218.735 140.603 218.856 140.733C218.977 140.864 219.07 141.017 219.131 141.184V141.304C219.208 141.474 219.246 141.661 219.241 141.848C219.236 142.036 219.188 142.22 219.101 142.386C219.014 142.552 218.89 142.696 218.739 142.808C218.588 142.919 218.413 142.994 218.229 143.028C217.116 143.326 215.972 143.495 214.82 143.532C215.763 144.225 216.619 145.032 217.367 145.932C217.476 146.069 217.557 146.226 217.606 146.394C217.655 146.562 217.669 146.738 217.65 146.912C217.63 147.085 217.576 147.254 217.491 147.406C217.406 147.559 217.292 147.694 217.154 147.802L217.009 147.922C216.867 148.042 216.7 148.13 216.521 148.177C216.341 148.224 216.153 148.23 215.971 148.194C215.788 148.159 215.616 148.082 215.468 147.971C215.319 147.859 215.197 147.715 215.112 147.55C214.464 146.576 213.93 145.53 213.52 144.434C213.086 145.524 212.544 146.568 211.902 147.55C211.815 147.716 211.693 147.859 211.543 147.971C211.393 148.082 211.22 148.159 211.037 148.194C210.853 148.23 210.664 148.224 210.483 148.177C210.303 148.13 210.135 148.042 209.992 147.922L209.86 147.802C209.722 147.695 209.606 147.561 209.52 147.409C209.434 147.256 209.378 147.088 209.357 146.914C209.336 146.74 209.35 146.564 209.398 146.396C209.445 146.227 209.526 146.07 209.634 145.932C210.4 145.031 211.258 144.213 212.194 143.492C211.052 143.48 209.915 143.324 208.812 143.028Z" fill="#263238"/>
<path d="M222.263 143.028C222.087 142.982 221.923 142.901 221.78 142.79C221.637 142.679 221.518 142.539 221.431 142.38C221.344 142.221 221.291 142.046 221.274 141.865C221.258 141.684 221.278 141.502 221.335 141.33V141.158C221.388 140.987 221.477 140.83 221.596 140.697C221.715 140.564 221.861 140.458 222.024 140.387C222.188 140.315 222.365 140.279 222.543 140.282C222.722 140.284 222.898 140.325 223.059 140.402C224.14 140.819 225.169 141.362 226.123 142.02C225.789 140.872 225.597 139.687 225.552 138.492C225.541 138.311 225.568 138.13 225.629 137.96C225.691 137.79 225.787 137.634 225.911 137.502C226.036 137.37 226.186 137.266 226.352 137.194C226.518 137.122 226.697 137.086 226.879 137.086H227.064C227.245 137.086 227.425 137.122 227.591 137.194C227.757 137.266 227.907 137.37 228.031 137.502C228.156 137.634 228.252 137.79 228.313 137.96C228.375 138.13 228.401 138.311 228.391 138.492C228.34 139.686 228.149 140.87 227.82 142.02C228.776 141.373 229.799 140.83 230.871 140.402C231.036 140.336 231.213 140.304 231.39 140.308C231.568 140.312 231.743 140.352 231.905 140.425C232.067 140.498 232.213 140.603 232.334 140.733C232.454 140.864 232.548 141.017 232.608 141.184V141.304C232.686 141.473 232.724 141.659 232.72 141.845C232.715 142.032 232.668 142.216 232.583 142.382C232.497 142.548 232.375 142.692 232.226 142.804C232.076 142.916 231.903 142.992 231.72 143.028C230.602 143.324 229.454 143.494 228.298 143.532C229.241 144.225 230.096 145.032 230.844 145.932C230.954 146.069 231.035 146.226 231.084 146.394C231.132 146.562 231.147 146.738 231.127 146.912C231.108 147.085 231.054 147.254 230.969 147.406C230.884 147.559 230.769 147.694 230.632 147.802L230.486 147.922C230.345 148.042 230.178 148.13 229.998 148.177C229.819 148.224 229.63 148.23 229.448 148.194C229.266 148.159 229.094 148.082 228.945 147.971C228.796 147.859 228.675 147.715 228.589 147.55C227.947 146.573 227.413 145.527 226.998 144.434C226.564 145.524 226.022 146.568 225.38 147.55C225.294 147.715 225.173 147.859 225.024 147.971C224.876 148.082 224.704 148.159 224.521 148.194C224.339 148.23 224.151 148.224 223.971 148.177C223.791 148.13 223.625 148.042 223.483 147.922L223.337 147.802C223.199 147.695 223.084 147.561 222.997 147.409C222.911 147.256 222.856 147.088 222.835 146.914C222.814 146.74 222.828 146.564 222.875 146.396C222.923 146.227 223.003 146.07 223.112 145.932C223.877 145.031 224.735 144.213 225.672 143.492C224.52 143.482 223.375 143.326 222.263 143.028V143.028Z" fill="#263238"/>
<path d="M235.71 143.028C235.535 142.982 235.37 142.901 235.227 142.79C235.084 142.679 234.965 142.539 234.878 142.38C234.791 142.221 234.738 142.046 234.721 141.865C234.705 141.684 234.725 141.502 234.782 141.33V141.158C234.835 140.987 234.924 140.83 235.043 140.697C235.162 140.564 235.308 140.458 235.472 140.387C235.635 140.315 235.812 140.279 235.991 140.282C236.169 140.284 236.345 140.325 236.506 140.402C237.587 140.819 238.616 141.362 239.57 142.02C239.242 140.87 239.05 139.686 239 138.492C238.989 138.311 239.015 138.13 239.077 137.96C239.138 137.79 239.234 137.634 239.359 137.502C239.483 137.37 239.633 137.266 239.799 137.194C239.966 137.122 240.145 137.086 240.326 137.086H240.511C240.693 137.086 240.872 137.122 241.038 137.194C241.204 137.266 241.354 137.37 241.479 137.502C241.603 137.634 241.699 137.79 241.761 137.96C241.822 138.13 241.849 138.311 241.838 138.492C241.787 139.686 241.596 140.87 241.267 142.02C242.223 141.373 243.246 140.83 244.318 140.402C244.483 140.336 244.66 140.304 244.838 140.308C245.015 140.312 245.19 140.352 245.352 140.425C245.515 140.498 245.66 140.603 245.781 140.733C245.902 140.864 245.995 141.017 246.055 141.184V141.304C246.133 141.473 246.171 141.659 246.167 141.845C246.162 142.032 246.116 142.216 246.03 142.382C245.944 142.548 245.822 142.692 245.673 142.804C245.523 142.916 245.35 142.992 245.167 143.028C244.049 143.324 242.901 143.494 241.745 143.532C242.688 144.225 243.543 145.032 244.291 145.932C244.401 146.069 244.482 146.226 244.531 146.394C244.579 146.562 244.594 146.738 244.574 146.912C244.555 147.085 244.501 147.254 244.416 147.406C244.331 147.559 244.216 147.694 244.079 147.802L243.933 147.922C243.792 148.042 243.625 148.13 243.446 148.177C243.266 148.224 243.078 148.23 242.895 148.194C242.713 148.159 242.541 148.082 242.392 147.971C242.244 147.859 242.122 147.715 242.037 147.55C241.394 146.573 240.86 145.527 240.445 144.434C239.999 145.525 239.443 146.57 238.787 147.55C238.702 147.715 238.58 147.859 238.432 147.971C238.283 148.082 238.111 148.159 237.929 148.194C237.746 148.23 237.558 148.224 237.379 148.177C237.199 148.13 237.032 148.042 236.891 147.922L236.745 147.802C236.607 147.695 236.491 147.561 236.405 147.409C236.319 147.256 236.263 147.088 236.242 146.914C236.222 146.74 236.235 146.564 236.283 146.396C236.33 146.227 236.411 146.07 236.519 145.932C237.285 145.031 238.143 144.213 239.079 143.492C237.941 143.479 236.809 143.323 235.71 143.028Z" fill="#263238"/>
<path d="M249.159 143.028C248.983 142.982 248.819 142.901 248.676 142.79C248.532 142.679 248.414 142.539 248.327 142.38C248.24 142.221 248.186 142.046 248.17 141.865C248.153 141.684 248.174 141.502 248.23 141.33L248.297 141.158C248.359 140.993 248.455 140.842 248.577 140.715C248.698 140.587 248.845 140.485 249.006 140.415C249.168 140.344 249.342 140.307 249.519 140.305C249.695 140.302 249.87 140.335 250.034 140.402C251.11 140.822 252.133 141.365 253.084 142.02C252.756 140.87 252.565 139.686 252.514 138.492C252.503 138.311 252.529 138.13 252.591 137.96C252.653 137.79 252.749 137.634 252.873 137.502C252.998 137.37 253.147 137.266 253.314 137.194C253.48 137.122 253.659 137.086 253.84 137.086H254.026C254.207 137.086 254.386 137.122 254.553 137.194C254.719 137.266 254.869 137.37 254.993 137.502C255.117 137.634 255.213 137.79 255.275 137.96C255.337 138.13 255.363 138.311 255.352 138.492C255.302 139.686 255.11 140.87 254.782 142.02C255.738 141.373 256.761 140.83 257.833 140.402C257.998 140.336 258.174 140.304 258.352 140.308C258.53 140.312 258.705 140.352 258.867 140.425C259.029 140.498 259.175 140.603 259.296 140.733C259.416 140.864 259.51 141.017 259.57 141.184V141.304C259.648 141.473 259.686 141.659 259.681 141.845C259.677 142.032 259.63 142.216 259.545 142.382C259.459 142.548 259.337 142.692 259.187 142.804C259.038 142.916 258.865 142.992 258.681 143.028C257.563 143.324 256.416 143.494 255.26 143.532C256.203 144.225 257.058 145.032 257.806 145.932C257.915 146.069 257.997 146.226 258.045 146.394C258.094 146.562 258.109 146.738 258.089 146.912C258.069 147.085 258.015 147.254 257.93 147.406C257.845 147.559 257.731 147.694 257.594 147.802L257.448 147.922C257.307 148.042 257.14 148.13 256.96 148.177C256.78 148.224 256.592 148.23 256.41 148.194C256.228 148.159 256.056 148.082 255.907 147.971C255.758 147.859 255.637 147.715 255.551 147.55C254.909 146.573 254.375 145.527 253.96 144.434C253.526 145.524 252.984 146.568 252.342 147.55C252.256 147.715 252.135 147.859 251.986 147.971C251.837 148.082 251.665 148.159 251.483 148.194C251.301 148.23 251.113 148.224 250.933 148.177C250.753 148.13 250.586 148.042 250.445 147.922L250.299 147.802C250.152 147.701 250.029 147.57 249.937 147.417C249.845 147.264 249.787 147.093 249.767 146.916C249.747 146.738 249.765 146.559 249.82 146.389C249.875 146.22 249.966 146.064 250.087 145.932C250.844 145.028 251.698 144.21 252.633 143.492C251.46 143.488 250.292 143.332 249.159 143.028V143.028Z" fill="#263238"/>
<path d="M262.66 143.028C262.484 142.982 262.32 142.901 262.176 142.79C262.033 142.679 261.915 142.539 261.828 142.38C261.741 142.221 261.687 142.046 261.671 141.865C261.654 141.684 261.675 141.502 261.731 141.33L261.797 141.158C261.86 140.993 261.956 140.842 262.078 140.715C262.199 140.587 262.346 140.485 262.507 140.415C262.669 140.344 262.843 140.307 263.02 140.305C263.196 140.302 263.371 140.335 263.535 140.402C264.611 140.822 265.634 141.365 266.585 142.02C266.257 140.87 266.066 139.686 266.015 138.492C266.004 138.311 266.03 138.13 266.092 137.96C266.154 137.79 266.25 137.634 266.374 137.502C266.498 137.37 266.648 137.266 266.815 137.194C266.981 137.122 267.16 137.086 267.341 137.086H267.527C267.708 137.086 267.887 137.122 268.054 137.194C268.22 137.266 268.37 137.37 268.494 137.502C268.618 137.634 268.714 137.79 268.776 137.96C268.838 138.13 268.864 138.311 268.853 138.492C268.803 139.686 268.611 140.87 268.283 142.02C269.242 141.37 270.269 140.827 271.347 140.402C271.51 140.326 271.687 140.286 271.867 140.285C272.047 140.284 272.225 140.322 272.389 140.396C272.553 140.471 272.698 140.58 272.816 140.716C272.934 140.852 273.021 141.011 273.071 141.184V141.304C273.149 141.473 273.187 141.659 273.182 141.845C273.178 142.032 273.131 142.216 273.046 142.382C272.96 142.548 272.838 142.692 272.688 142.804C272.539 142.916 272.366 142.992 272.182 143.028C271.065 143.325 269.917 143.495 268.76 143.532C269.705 144.229 270.564 145.035 271.32 145.932C271.429 146.07 271.509 146.227 271.557 146.396C271.604 146.564 271.618 146.74 271.597 146.914C271.576 147.088 271.521 147.256 271.435 147.409C271.349 147.561 271.233 147.695 271.095 147.802L270.949 147.922C270.808 148.042 270.641 148.13 270.461 148.177C270.281 148.224 270.093 148.23 269.911 148.194C269.728 148.159 269.557 148.082 269.408 147.971C269.259 147.859 269.138 147.715 269.052 147.55C268.41 146.573 267.876 145.527 267.461 144.434C267.027 145.524 266.485 146.568 265.843 147.55C265.757 147.715 265.636 147.859 265.487 147.971C265.338 148.082 265.166 148.159 264.984 148.194C264.802 148.23 264.614 148.224 264.434 148.177C264.254 148.13 264.087 148.042 263.946 147.922L263.8 147.802C263.653 147.701 263.53 147.57 263.438 147.417C263.346 147.264 263.288 147.093 263.268 146.916C263.248 146.738 263.266 146.559 263.321 146.389C263.376 146.22 263.467 146.064 263.588 145.932C264.345 145.028 265.199 144.21 266.134 143.492C264.961 143.488 263.793 143.332 262.66 143.028V143.028Z" fill="#263238"/>
<path d="M276.07 143.028C275.893 142.984 275.728 142.904 275.583 142.793C275.439 142.682 275.318 142.543 275.23 142.384C275.142 142.225 275.087 142.049 275.07 141.868C275.052 141.686 275.072 141.503 275.129 141.33L275.195 141.158C275.258 140.993 275.353 140.842 275.475 140.715C275.597 140.587 275.743 140.485 275.905 140.415C276.067 140.344 276.241 140.307 276.417 140.305C276.594 140.302 276.769 140.335 276.932 140.402C278.008 140.822 279.032 141.365 279.983 142.02C279.655 140.87 279.463 139.686 279.413 138.492C279.402 138.311 279.428 138.13 279.49 137.96C279.551 137.79 279.647 137.634 279.772 137.502C279.896 137.37 280.046 137.266 280.212 137.194C280.379 137.122 280.558 137.086 280.739 137.086H280.924C281.106 137.086 281.285 137.122 281.451 137.194C281.617 137.266 281.767 137.37 281.892 137.502C282.016 137.634 282.112 137.79 282.174 137.96C282.235 138.13 282.262 138.311 282.251 138.492C282.202 139.687 282.006 140.872 281.667 142.02C282.626 141.37 283.653 140.827 284.731 140.402C284.894 140.326 285.072 140.286 285.251 140.285C285.431 140.284 285.609 140.322 285.773 140.396C285.937 140.471 286.083 140.58 286.2 140.716C286.318 140.852 286.405 141.011 286.455 141.184V141.304C286.533 141.474 286.57 141.661 286.565 141.848C286.56 142.036 286.512 142.22 286.425 142.386C286.338 142.552 286.215 142.696 286.063 142.808C285.912 142.919 285.738 142.994 285.553 143.028C284.436 143.325 283.287 143.495 282.131 143.532C283.076 144.229 283.935 145.035 284.691 145.932C284.8 146.07 284.88 146.227 284.928 146.396C284.975 146.564 284.989 146.74 284.968 146.914C284.947 147.088 284.892 147.256 284.806 147.409C284.719 147.561 284.604 147.695 284.466 147.802L284.333 147.922C284.191 148.042 284.023 148.13 283.842 148.177C283.661 148.224 283.472 148.23 283.289 148.194C283.106 148.159 282.933 148.082 282.783 147.971C282.633 147.859 282.51 147.716 282.423 147.55C281.78 146.575 281.251 145.529 280.845 144.434C280.407 145.525 279.86 146.569 279.214 147.55C279.128 147.715 279.007 147.859 278.858 147.971C278.709 148.082 278.537 148.159 278.355 148.194C278.173 148.23 277.985 148.224 277.805 148.177C277.625 148.13 277.458 148.042 277.317 147.922L277.171 147.802C277.024 147.701 276.9 147.57 276.809 147.417C276.717 147.264 276.659 147.093 276.639 146.916C276.619 146.738 276.637 146.559 276.692 146.389C276.747 146.22 276.838 146.064 276.959 145.932C277.716 145.028 278.57 144.21 279.505 143.492C278.345 143.487 277.19 143.331 276.07 143.028Z" fill="#263238"/>
<path d="M289.518 143.028C289.341 142.984 289.175 142.904 289.03 142.793C288.886 142.682 288.766 142.543 288.677 142.384C288.589 142.225 288.534 142.049 288.517 141.868C288.499 141.686 288.519 141.503 288.576 141.33V141.158C288.639 140.993 288.734 140.842 288.856 140.715C288.978 140.587 289.124 140.485 289.286 140.415C289.448 140.344 289.622 140.307 289.798 140.305C289.975 140.302 290.15 140.335 290.313 140.402C291.389 140.822 292.413 141.365 293.364 142.02C293.035 140.87 292.844 139.686 292.793 138.492C292.783 138.311 292.809 138.13 292.871 137.96C292.932 137.79 293.028 137.634 293.153 137.502C293.277 137.37 293.427 137.266 293.593 137.194C293.759 137.122 293.939 137.086 294.12 137.086H294.305C294.486 137.086 294.666 137.122 294.832 137.194C294.998 137.266 295.148 137.37 295.273 137.502C295.397 137.634 295.493 137.79 295.555 137.96C295.616 138.13 295.643 138.311 295.632 138.492C295.583 139.687 295.387 140.872 295.048 142.02C296.007 141.37 297.034 140.827 298.112 140.402C298.275 140.326 298.452 140.286 298.632 140.285C298.812 140.284 298.99 140.322 299.154 140.396C299.318 140.471 299.464 140.58 299.581 140.716C299.699 140.852 299.786 141.011 299.836 141.184V141.304C299.914 141.474 299.951 141.661 299.946 141.848C299.941 142.036 299.893 142.22 299.806 142.386C299.719 142.552 299.596 142.696 299.444 142.808C299.293 142.919 299.119 142.994 298.934 143.028C297.816 143.325 296.668 143.495 295.512 143.532C296.457 144.229 297.316 145.035 298.072 145.932C298.181 146.07 298.261 146.227 298.309 146.396C298.356 146.564 298.37 146.74 298.349 146.914C298.328 147.088 298.273 147.256 298.187 147.409C298.1 147.561 297.985 147.695 297.847 147.802L297.701 147.922C297.559 148.042 297.393 148.13 297.213 148.177C297.033 148.224 296.845 148.23 296.663 148.194C296.48 148.159 296.308 148.082 296.16 147.971C296.011 147.859 295.889 147.715 295.804 147.55C295.161 146.575 294.632 145.529 294.226 144.434C293.788 145.525 293.241 146.569 292.595 147.55C292.509 147.715 292.388 147.859 292.239 147.971C292.09 148.082 291.918 148.159 291.736 148.194C291.554 148.23 291.365 148.224 291.186 148.177C291.006 148.13 290.839 148.042 290.698 147.922L290.552 147.802C290.405 147.701 290.281 147.57 290.19 147.417C290.098 147.264 290.04 147.093 290.02 146.916C290 146.738 290.018 146.559 290.073 146.389C290.128 146.22 290.219 146.064 290.34 145.932C291.097 145.028 291.951 144.21 292.886 143.492C291.748 143.481 290.616 143.325 289.518 143.028Z" fill="#263238"/>
<path d="M169.868 274.133C160.763 273.3 151.771 272.96 151.771 272.96C148.467 273.061 141.429 273.351 134.165 274.133C136.284 281.372 143.472 286.707 152.01 286.707C160.561 286.719 167.75 281.359 169.868 274.133Z" fill="#50BFD7"/>
<path d="M159.479 287.289C159.479 287.604 159.756 287.97 160.084 287.932C163.805 287.541 166.655 284.666 170.325 285.271C166.642 287.1 163.451 290.278 163.905 294.957C163.956 295.537 164.511 295.764 164.94 295.411C167.575 293.166 170.602 291.161 174.133 291.905C175.647 292.22 177.425 292.813 178.989 292.611C181.322 292.321 183.289 291.261 184.45 289.004C186.493 285.094 185.736 280.403 181.158 279.432C181.044 279.407 180.956 279.419 180.855 279.457C179.165 278.789 177.627 277.944 176.265 276.468C174.953 275.03 173.73 273.441 172.305 272.117C170.4 270.339 168.332 268.939 165.81 270.137C165.431 270.314 165.457 270.856 165.696 271.146C166.806 272.521 168.105 273.832 169.467 275.093C168.105 274.778 166.73 274.614 165.318 274.728C162.796 274.942 159.819 276.619 159.882 279.621C159.895 279.999 160.16 280.226 160.488 280.264C162.808 280.504 165.141 280.466 167.449 280.706C163.855 281.765 159.441 282.976 159.479 287.289Z" fill="#C4C4C4"/>
<path fill-rule="evenodd" clip-rule="evenodd" d="M169.473 269.54C170.635 269.999 171.685 270.849 172.647 271.747C173.611 272.642 174.501 273.676 175.365 274.678C175.793 275.175 176.214 275.664 176.635 276.126C177.888 277.482 179.301 278.284 180.887 278.926C181.002 278.907 181.126 278.907 181.263 278.937C183.734 279.462 185.214 281.014 185.771 282.977C186.319 284.91 185.962 287.193 184.896 289.235C183.643 291.671 181.51 292.804 179.051 293.11C178.189 293.221 177.291 293.111 176.444 292.945C176.018 292.862 175.596 292.762 175.192 292.666C175.149 292.655 175.106 292.645 175.064 292.635C174.703 292.548 174.359 292.466 174.029 292.397L174.028 292.397C170.754 291.707 167.899 293.55 165.265 295.793L165.262 295.796L165.259 295.799C164.916 296.081 164.472 296.164 164.08 295.996C163.689 295.828 163.442 295.45 163.402 295.002C162.991 290.759 165.407 287.713 168.455 285.749C167.44 285.887 166.453 286.254 165.418 286.691C165.188 286.788 164.956 286.889 164.72 286.992C163.32 287.6 161.81 288.256 160.138 288.432C159.761 288.474 159.459 288.281 159.277 288.074C159.097 287.867 158.974 287.583 158.973 287.29C158.953 284.914 160.179 283.389 161.832 282.349C162.703 281.8 163.708 281.377 164.726 281.022C164.468 281.01 164.21 280.999 163.95 280.987L163.939 280.987C162.783 280.937 161.609 280.886 160.434 280.765L160.431 280.764L160.428 280.764C159.889 280.702 159.399 280.3 159.377 279.636L159.377 279.633L159.377 279.63C159.341 277.938 160.17 276.628 161.319 275.73C162.458 274.841 163.929 274.338 165.274 274.224L165.275 274.224L165.276 274.223C166.167 274.152 167.04 274.186 167.899 274.295C166.973 273.384 166.093 272.441 165.304 271.463C165.101 271.216 164.998 270.883 165.016 270.569C165.035 270.243 165.194 269.867 165.593 269.679C166.991 269.016 168.285 269.071 169.473 269.54ZM166.03 270.589C166.028 270.596 166.025 270.608 166.024 270.626C166.022 270.657 166.026 270.696 166.039 270.736C166.052 270.776 166.069 270.806 166.084 270.823L166.086 270.826L166.087 270.828C167.176 272.176 168.456 273.469 169.808 274.722L171.201 276.012L169.352 275.583C168.025 275.276 166.705 275.121 165.358 275.229C164.181 275.329 162.903 275.773 161.94 276.525C160.987 277.27 160.359 278.298 160.385 279.605C160.388 279.672 160.409 279.699 160.422 279.712C160.44 279.73 160.477 279.753 160.542 279.761C161.683 279.879 162.831 279.929 163.994 279.979L163.998 279.98C165.156 280.03 166.33 280.081 167.5 280.202L170.04 280.466L167.59 281.188C167.528 281.207 167.465 281.225 167.402 281.244C165.639 281.763 163.795 282.306 162.369 283.203C160.926 284.111 159.965 285.347 159.982 287.283L159.982 287.285V287.287C159.982 287.294 159.984 287.312 159.994 287.339C160.005 287.366 160.02 287.39 160.037 287.409C160.043 287.417 160.049 287.422 160.054 287.426C161.551 287.264 162.895 286.682 164.294 286.076C164.536 285.971 164.779 285.866 165.025 285.762C166.67 285.066 168.417 284.444 170.405 284.772L171.948 285.026L170.548 285.721C166.944 287.511 163.982 290.535 164.406 294.906L164.406 294.909L164.407 294.911C164.412 294.979 164.431 295.018 164.444 295.038C164.458 295.058 164.47 295.065 164.478 295.069C164.486 295.072 164.498 295.075 164.518 295.072C164.537 295.068 164.571 295.057 164.615 295.022C167.252 292.777 170.449 290.612 174.235 291.409C174.581 291.482 174.941 291.568 175.299 291.654C175.341 291.664 175.384 291.674 175.427 291.684C175.831 291.781 176.234 291.876 176.638 291.955C177.448 292.114 178.221 292.2 178.923 292.109L178.924 292.109L178.925 292.109C181.131 291.835 182.932 290.849 184 288.772L184 288.77L184.001 288.769C184.977 286.901 185.263 284.884 184.8 283.252C184.345 281.65 183.158 280.371 181.052 279.924L181.05 279.923L181.047 279.923C181.047 279.923 181.047 279.923 181.046 279.923C181.043 279.924 181.038 279.925 181.031 279.928L180.849 279.996L180.668 279.925C178.937 279.24 177.324 278.359 175.893 276.809L175.892 276.808L175.891 276.807C175.427 276.298 174.985 275.785 174.547 275.276C173.708 274.301 172.885 273.345 171.96 272.485L171.959 272.484C171.016 271.604 170.081 270.865 169.102 270.479C168.151 270.103 167.151 270.058 166.03 270.589Z" fill="#2C2C2C"/>
<path fill-rule="evenodd" clip-rule="evenodd" d="M303.362 293.21C303.362 292.957 303.567 292.753 303.819 292.753H318.867C319.119 292.753 319.324 292.957 319.324 293.21C319.324 293.462 319.119 293.666 318.867 293.666H303.819C303.567 293.666 303.362 293.462 303.362 293.21Z" fill="#2C2C2C"/>
<path fill-rule="evenodd" clip-rule="evenodd" d="M19.5986 293.21C19.5986 292.957 19.8031 292.753 20.0553 292.753H298.804C299.056 292.753 299.26 292.957 299.26 293.21C299.26 293.462 299.056 293.666 298.804 293.666H20.0553C19.8031 293.666 19.5986 293.462 19.5986 293.21Z" fill="#2C2C2C"/>
<path fill-rule="evenodd" clip-rule="evenodd" d="M0 293.21C0 292.957 0.204459 292.753 0.456671 292.753H10.7395C10.9918 292.753 11.1962 292.957 11.1962 293.21C11.1962 293.462 10.9918 293.666 10.7395 293.666H0.456671C0.204459 293.666 0 293.462 0 293.21Z" fill="#2C2C2C"/>
<path d="M97.1712 243.881H206.264C207.569 243.881 208.821 244.399 209.744 245.322C210.667 246.245 211.185 247.497 211.185 248.802V310.09H92.25V248.802C92.25 247.497 92.7685 246.245 93.6914 245.322C94.6143 244.399 95.866 243.881 97.1712 243.881Z" fill="white"/>
<path fill-rule="evenodd" clip-rule="evenodd" d="M97.1705 244.506C96.0317 244.506 94.9395 244.959 94.1342 245.764C93.329 246.569 92.8766 247.662 92.8766 248.8V309.462H210.557V248.8C210.557 247.662 210.105 246.569 209.3 245.764C208.494 244.959 207.402 244.506 206.263 244.506H97.1705ZM93.2472 244.877C94.2877 243.837 95.699 243.252 97.1705 243.252H206.263C207.735 243.252 209.146 243.837 210.187 244.877C211.227 245.918 211.812 247.329 211.812 248.8V310.089C211.812 310.435 211.531 310.716 211.184 310.716H92.2493C91.9029 310.716 91.6221 310.435 91.6221 310.089V248.8C91.6221 247.329 92.2066 245.918 93.2472 244.877Z" fill="#2C2C2C"/>
<path d="M211.185 265.906C196.244 269.696 180.91 279.341 152.338 292.924C124.779 306.034 102.22 305.807 92.25 304.793V310.089H211.185V265.906Z" fill="#2C2C2C"/>
<path fill-rule="evenodd" clip-rule="evenodd" d="M211.57 265.412C211.722 265.531 211.812 265.714 211.812 265.908V310.09C211.812 310.436 211.531 310.717 211.184 310.717H92.2493C91.9029 310.717 91.6221 310.436 91.6221 310.09V304.795C91.6221 304.617 91.6972 304.448 91.8288 304.329C91.9604 304.21 92.1363 304.153 92.3128 304.171C102.198 305.176 124.636 305.408 152.067 292.358L152.068 292.358C161.478 287.885 169.441 283.844 176.437 280.294C180.06 278.456 183.423 276.749 186.595 275.181C195.872 270.596 203.491 267.212 211.03 265.3C211.218 265.252 211.417 265.294 211.57 265.412ZM152.606 293.491C125.538 306.368 103.255 306.444 92.8766 305.486V309.463H210.557V266.719C203.406 268.629 196.092 271.887 187.15 276.306C184 277.863 180.647 279.565 177.029 281.4C170.024 284.955 162.029 289.012 152.606 293.491Z" fill="#2C2C2C"/>
<path fill-rule="evenodd" clip-rule="evenodd" d="M91.6221 306.418C91.6221 306.072 91.9029 305.791 92.2493 305.791H211.184C211.531 305.791 211.812 306.072 211.812 306.418V310.099C211.812 310.446 211.531 310.727 211.184 310.727H92.2493C91.9029 310.727 91.6221 310.446 91.6221 310.099V306.418ZM92.8766 307.046V309.472H210.557V307.046H92.8766Z" fill="#2C2C2C"/>
<path d="M158.055 176.85C158.055 179.514 155.287 181.674 151.874 181.674C148.461 181.674 145.693 179.514 145.693 176.85C145.693 174.186 148.461 172.026 151.874 172.026C155.287 172.026 158.055 174.186 158.055 176.85Z" fill="white"/>
<path fill-rule="evenodd" clip-rule="evenodd" d="M151.874 180.468C154.917 180.468 156.849 178.587 156.849 176.85C156.849 175.113 154.917 173.232 151.874 173.232C148.831 173.232 146.899 175.113 146.899 176.85C146.899 178.587 148.831 180.468 151.874 180.468ZM151.874 181.674C155.287 181.674 158.055 179.514 158.055 176.85C158.055 174.186 155.287 172.026 151.874 172.026C148.461 172.026 145.693 174.186 145.693 176.85C145.693 179.514 148.461 181.674 151.874 181.674Z" fill="#454545"/>
<path d="M211.918 307.155H90.2168V310.922H211.918V307.155Z" fill="white"/>
<path fill-rule="evenodd" clip-rule="evenodd" d="M89.5752 307.156C89.5752 306.802 89.8626 306.515 90.217 306.515H211.918C212.272 306.515 212.56 306.802 212.56 307.156V310.923C212.56 311.278 212.272 311.565 211.918 311.565H90.217C89.8626 311.565 89.5752 311.278 89.5752 310.923V307.156ZM90.8589 307.798V310.281H211.276V307.798H90.8589Z" fill="#2C2C2C"/>
<path opacity="0.15" d="M135.237 176.84C133.963 176.056 132.784 175.238 131.656 174.421C132.147 173.56 134.333 169.849 134.574 167.775C134.816 165.7 134.574 163.195 133.016 161.749C132.668 161.393 132.248 161.115 131.785 160.932C131.322 160.749 130.825 160.666 130.328 160.687C129.83 160.708 129.343 160.833 128.897 161.055C128.451 161.276 128.057 161.589 127.739 161.973C125.897 164.34 127.507 169.496 129.013 171.709C129.091 171.829 130.064 172.966 130.735 173.775C130.227 173.396 129.702 173.017 129.229 172.647C127.438 171.253 125.888 169.867 124.528 168.627C123.753 167.921 123.073 167.258 122.445 166.638C122.505 165.588 122.695 161.353 121.971 159.433C121.248 157.513 119.837 155.387 117.805 154.793C117.335 154.636 116.837 154.58 116.344 154.628C115.851 154.675 115.374 154.825 114.942 155.069C114.511 155.312 114.135 155.643 113.839 156.04C113.544 156.438 113.334 156.892 113.225 157.376C112.683 160.32 116.488 164.159 118.838 165.433C119.045 165.545 122.419 166.888 122.428 166.836V166.776C123.03 167.387 123.676 168.033 124.39 168.73C125.733 169.996 127.257 171.416 129.022 172.854C130.904 174.429 132.879 175.889 134.936 177.227L136.227 178.028H137.286C136.615 177.657 135.909 177.253 135.237 176.84Z" fill="black"/>
<path opacity="0.15" d="M131.088 174.497C131.088 174.454 127.644 173.274 127.446 173.231C124.864 172.663 119.449 173.102 117.977 175.693C117.566 176.407 117.437 177.248 117.615 178.052H128.101C129.167 176.928 130.164 175.74 131.088 174.497V174.497Z" fill="black"/>
<path opacity="0.15" d="M177.574 162.814C176.894 162.177 176.231 161.531 175.568 160.894C175.912 160.679 180.053 158.114 181.301 156.246C182.412 154.584 183.368 152.165 182.679 150.159C182.531 149.684 182.285 149.245 181.957 148.871C181.628 148.497 181.225 148.196 180.773 147.988C180.32 147.78 179.83 147.67 179.332 147.664C178.834 147.659 178.341 147.758 177.884 147.955C175.164 149.212 174.242 154.541 174.57 157.193C174.57 157.391 175.241 160.094 175.43 160.774C173.958 159.371 172.512 157.95 171.126 156.469C169.275 154.505 167.55 152.427 165.961 150.245C166.124 150.151 170.455 147.491 171.737 145.58C172.848 143.918 173.803 141.49 173.106 139.493C172.959 139.018 172.714 138.579 172.387 138.205C172.059 137.831 171.657 137.53 171.206 137.321C170.754 137.112 170.264 137.001 169.767 136.994C169.27 136.987 168.777 137.085 168.32 137.281C165.599 138.546 164.67 143.875 164.997 146.526C164.997 146.733 165.728 149.643 165.858 150.159L165.565 149.781C164.028 147.547 162.691 145.182 161.571 142.713C160.933 141.361 160.408 140.027 159.918 138.718C160.779 138.305 164.67 136.386 166.013 134.793C167.356 133.2 168.518 130.953 168.053 128.896C167.959 128.406 167.762 127.942 167.477 127.533C167.192 127.124 166.824 126.78 166.397 126.523C165.97 126.265 165.493 126.101 164.999 126.04C164.504 125.978 164.002 126.022 163.525 126.167C160.684 127.123 159.22 132.314 159.22 134.991C159.22 135.137 159.401 136.609 159.547 137.685C159.341 137.091 159.108 136.489 158.919 135.912C158.196 133.768 157.662 131.754 157.197 129.972C156.948 128.948 156.741 128.027 156.552 127.157C157.18 126.296 159.685 122.853 160.133 120.89C160.581 118.927 160.589 116.336 159.22 114.718C158.912 114.327 158.525 114.005 158.084 113.773C157.643 113.542 157.158 113.406 156.661 113.374C156.164 113.343 155.666 113.416 155.199 113.59C154.732 113.763 154.307 114.033 153.952 114.382C151.869 116.543 152.927 121.846 154.193 124.204C154.296 124.402 156.371 127.398 156.405 127.355V127.303C156.56 128.164 156.741 129.025 156.965 130.015C157.378 131.814 157.869 133.837 158.549 136.041C159.255 138.383 160.095 140.682 161.063 142.928C162.146 145.45 163.448 147.872 164.954 150.168L165.014 150.245C164.334 149.694 162.371 148.222 162.208 148.128C159.9 146.768 154.641 145.545 152.402 147.499C152.041 147.842 151.756 148.256 151.565 148.715C151.374 149.175 151.282 149.669 151.294 150.166C151.306 150.664 151.423 151.153 151.636 151.603C151.849 152.052 152.154 152.452 152.531 152.776C154.09 154.205 156.698 154.291 158.661 153.93C160.882 153.525 164.885 150.727 165.203 150.486C166.797 152.784 168.543 154.973 170.429 157.038C171.522 158.251 172.658 159.431 173.812 160.602C173.209 160.145 172.658 159.741 172.581 159.698C170.265 158.337 165.014 157.115 162.776 159.069C162.415 159.411 162.129 159.826 161.939 160.285C161.748 160.745 161.655 161.239 161.667 161.736C161.68 162.234 161.796 162.723 162.009 163.173C162.222 163.622 162.527 164.022 162.905 164.346C164.463 165.775 167.071 165.861 169.034 165.5C170.997 165.138 174.492 162.823 175.405 162.194L176.748 163.537C178.9 165.663 181.052 167.773 183.118 169.916C183.841 170.665 184.53 171.431 185.218 172.206C184.676 171.793 184.22 171.457 184.142 171.414C181.835 170.062 176.584 168.831 174.346 170.794C173.983 171.136 173.697 171.55 173.505 172.009C173.314 172.469 173.221 172.964 173.233 173.462C173.245 173.959 173.362 174.449 173.576 174.899C173.79 175.348 174.096 175.748 174.475 176.071C176.033 177.5 178.633 177.586 180.604 177.225C182.576 176.863 185.726 174.763 186.811 174.031C187.491 174.832 188.171 175.641 188.8 176.45C189.178 176.975 189.583 177.457 189.945 177.991H191.77L191.253 177.268C190.866 176.7 190.392 176.149 189.936 175.546C188.894 174.246 187.775 172.964 186.613 171.724C187.594 171.113 191.021 168.883 192.14 167.213C193.259 165.543 194.206 163.124 193.517 161.127C193.369 160.651 193.123 160.212 192.795 159.838C192.467 159.464 192.064 159.163 191.612 158.954C191.16 158.746 190.669 158.634 190.171 158.627C189.673 158.62 189.18 158.718 188.722 158.914C186.002 160.18 185.072 165.508 185.408 168.16C185.408 168.323 185.873 170.209 186.14 171.233C185.442 170.484 184.745 169.735 184.005 169.004C181.973 166.989 179.761 164.914 177.574 162.814Z" fill="black"/>
<path opacity="0.15" d="M159.116 177.234C159.116 175.237 158.583 172.689 156.904 171.398C156.519 171.083 156.071 170.853 155.591 170.723C155.111 170.592 154.609 170.563 154.118 170.639C153.626 170.714 153.156 170.892 152.737 171.161C152.318 171.429 151.961 171.783 151.687 172.198C150.775 173.688 151.128 175.986 151.928 178.052H159.039C159.084 177.782 159.11 177.508 159.116 177.234V177.234Z" fill="black"/>
<path opacity="0.15" d="M152.145 140.129C154.478 140.327 159.428 138.528 159.428 138.528C159.428 138.528 157.25 135.627 157.095 135.463C155.227 133.544 150.492 130.935 147.806 132.27C147.36 132.502 146.969 132.827 146.658 133.223C146.347 133.619 146.124 134.076 146.004 134.565C145.883 135.053 145.868 135.562 145.959 136.057C146.05 136.552 146.246 137.021 146.532 137.435C147.66 139.182 150.148 139.957 152.145 140.129Z" fill="black"/>
<path opacity="0.15" d="M172.108 174.573C171.723 174.257 171.276 174.026 170.796 173.895C170.316 173.763 169.813 173.734 169.321 173.81C168.829 173.885 168.358 174.063 167.94 174.333C167.521 174.602 167.164 174.957 166.891 175.373C166.448 176.192 166.268 177.126 166.375 178.051H174.079C173.847 176.697 173.15 175.467 172.108 174.573V174.573Z" fill="black"/>
<path opacity="0.15" d="M145.267 173.634C145.267 171.637 144.733 169.089 143.054 167.806C142.67 167.489 142.223 167.257 141.742 167.125C141.262 166.993 140.759 166.963 140.267 167.039C139.774 167.115 139.303 167.293 138.884 167.564C138.466 167.834 138.109 168.189 137.837 168.607C136.288 171.121 138.371 175.967 140.101 178.076H144.139C144.739 176.662 145.119 175.164 145.267 173.634Z" fill="black"/>
<path d="M164.662 105.344V97.906H166.504C166.876 97.8868 167.245 97.9702 167.572 98.1471C167.841 98.3097 168.047 98.5584 168.157 98.853C168.287 99.2084 168.348 99.5852 168.338 99.9635C168.346 100.313 168.276 100.661 168.131 100.979C168.002 101.259 167.788 101.491 167.52 101.642C167.213 101.815 166.865 101.898 166.513 101.883H165.652V105.327L164.662 105.344ZM165.695 101.134H166.169C166.41 101.142 166.652 101.11 166.883 101.04C167.046 100.974 167.175 100.847 167.245 100.687C167.33 100.458 167.368 100.215 167.357 99.9721C167.365 99.6973 167.339 99.4226 167.279 99.1543C167.258 99.0677 167.218 98.9871 167.161 98.9185C167.105 98.8499 167.033 98.7951 166.952 98.7583C166.706 98.6734 166.446 98.6355 166.186 98.6464H165.695V101.134Z" fill="#CCCCCC"/>
<path d="M168.337 105.343L169.912 97.9053H170.911L172.503 105.343H171.548L171.204 103.466H169.688L169.336 105.343H168.337ZM169.8 102.761H171.04L170.42 99.4118L169.8 102.761Z" fill="#CCCCCC"/>
<path d="M174.992 105.421C174.617 105.434 174.246 105.338 173.924 105.145C173.639 104.962 173.415 104.698 173.279 104.388C173.121 104.029 173.033 103.643 173.021 103.251L173.933 103.01C173.949 103.267 173.993 103.521 174.062 103.768C174.11 103.993 174.217 104.201 174.372 104.371C174.544 104.517 174.762 104.598 174.988 104.598C175.213 104.598 175.432 104.517 175.603 104.371C175.752 104.19 175.826 103.959 175.81 103.725C175.825 103.437 175.743 103.152 175.577 102.916C175.406 102.69 175.213 102.483 175 102.296L173.752 101.194C173.525 100.998 173.34 100.758 173.21 100.488C173.088 100.191 173.029 99.8711 173.038 99.5498C173.026 99.3184 173.061 99.0871 173.141 98.8696C173.221 98.6522 173.344 98.4531 173.503 98.2843C173.674 98.1277 173.875 98.0073 174.094 97.9304C174.313 97.8534 174.545 97.8216 174.777 97.8367C175.039 97.8307 175.301 97.8685 175.551 97.9486C175.765 98.016 175.958 98.1376 176.111 98.3015C176.274 98.4733 176.398 98.6791 176.473 98.9041C176.567 99.1829 176.627 99.4719 176.653 99.765L175.792 100.006C175.778 99.7796 175.743 99.555 175.689 99.3345C175.639 99.1443 175.538 98.9716 175.396 98.8352C175.229 98.7001 175.017 98.6326 174.802 98.6459C174.685 98.6245 174.564 98.6319 174.449 98.6676C174.335 98.7033 174.231 98.7661 174.147 98.8508C174.062 98.9354 173.999 99.0393 173.963 99.1535C173.928 99.2678 173.92 99.389 173.942 99.5067C173.936 99.7003 173.977 99.8923 174.062 100.066C174.156 100.238 174.282 100.389 174.432 100.514L175.689 101.616C175.975 101.867 176.224 102.157 176.43 102.477C176.652 102.839 176.766 103.257 176.757 103.682C176.766 104.015 176.686 104.345 176.524 104.637C176.376 104.896 176.158 105.108 175.896 105.249C175.612 105.376 175.302 105.435 174.992 105.421V105.421Z" fill="#CCCCCC"/>
<path d="M179.346 105.421C178.971 105.434 178.601 105.338 178.279 105.145C177.994 104.962 177.769 104.698 177.633 104.388C177.479 104.028 177.392 103.643 177.375 103.252L178.288 103.01C178.308 103.266 178.351 103.52 178.417 103.768C178.468 103.994 178.578 104.201 178.735 104.371C178.905 104.518 179.122 104.6 179.346 104.6C179.571 104.6 179.788 104.518 179.958 104.371C180.107 104.19 180.181 103.959 180.164 103.725C180.179 103.437 180.097 103.152 179.932 102.916C179.761 102.69 179.568 102.483 179.355 102.296L178.107 101.194C177.879 100.998 177.695 100.758 177.564 100.488C177.442 100.191 177.384 99.8712 177.392 99.5498C177.381 99.3185 177.416 99.0871 177.496 98.8697C177.576 98.6523 177.698 98.4532 177.857 98.2844C178.209 97.9716 178.67 97.8107 179.14 97.8367C179.402 97.8308 179.664 97.8686 179.915 97.9486C180.127 98.0181 180.32 98.1394 180.474 98.3016C180.632 98.4762 180.752 98.6813 180.827 98.9042C180.925 99.1818 180.986 99.4713 181.008 99.765L180.147 100.006C180.129 99.7794 180.092 99.5547 180.035 99.3346C179.985 99.1444 179.884 98.9716 179.742 98.8353C179.577 98.7022 179.369 98.6348 179.157 98.6459C178.937 98.6352 178.721 98.7091 178.554 98.8525C178.478 98.9338 178.419 99.0301 178.382 99.1354C178.345 99.2406 178.33 99.3525 178.339 99.4637C178.331 99.6566 178.369 99.8485 178.451 100.023C178.545 100.195 178.671 100.346 178.821 100.471L180.078 101.573C180.366 101.824 180.619 102.113 180.827 102.434C181.043 102.798 181.153 103.215 181.146 103.639C181.155 103.972 181.075 104.302 180.913 104.594C180.765 104.853 180.547 105.065 180.285 105.206C179.995 105.354 179.672 105.428 179.346 105.421Z" fill="#CCCCCC"/>
<path d="M95.2121 131.034C93.0556 139.93 97.9077 172.277 105.86 184.516C105.86 184.516 128.907 199.476 200.894 190.985C200.894 190.985 189.249 187.265 200.153 144.607C200.382 143.69 200.625 142.774 200.881 141.817C202.363 136.291 191.513 126.816 189.559 123.487C175.474 99.5899 95.2121 131.034 95.2121 131.034Z" fill="#2C2C2C"/>
<path d="M119.785 225.543C119.785 225.543 108.571 279.887 103.463 282.879C99.3523 285.291 104.827 288.106 92.8585 284.077L92.8583 275.634L90.4463 271.413L93.7319 260.99C93.7319 260.99 105.067 205.77 113.208 205.096C121.362 204.409 119.785 225.543 119.785 225.543Z" fill="#2C2C2C"/>
<path d="M196.33 221.164C196.33 221.164 210.119 274.912 206.843 279.844C204.209 283.816 210.364 283.941 197.842 285.576L194.134 277.992L190.114 275.259L188.489 264.452C188.489 264.452 174.424 209.863 181.442 205.683C188.466 201.484 196.33 221.164 196.33 221.164Z" fill="#2C2C2C"/>
<path d="M201.949 221.621C201.949 230.22 196.315 235.544 187.716 235.544C179.117 235.544 172.148 228.576 172.148 219.977C172.148 211.378 178.645 201.889 186.84 204.463C195.87 207.28 201.949 213.022 201.949 221.621Z" fill="white"/>
<path fill-rule="evenodd" clip-rule="evenodd" d="M176.831 208.381C174.269 211.404 172.687 215.801 172.687 219.979C172.687 228.28 179.413 235.007 187.715 235.007C191.903 235.007 195.317 233.712 197.681 231.422C200.043 229.134 201.409 225.801 201.409 221.623C201.409 213.352 195.586 207.759 186.678 204.98L186.677 204.98C182.847 203.777 179.385 205.367 176.831 208.381ZM187 203.951C182.635 202.58 178.751 204.447 176.009 207.684C173.274 210.911 171.608 215.558 171.608 219.979C171.608 228.876 178.818 236.085 187.715 236.085C192.126 236.085 195.828 234.718 198.431 232.196C201.036 229.673 202.487 226.044 202.487 221.623C202.487 212.696 196.152 206.806 187 203.951Z" fill="#2C2C2C"/>
<path d="M194.951 219.114C194.951 225.476 190.786 229.412 184.424 229.412C178.063 229.412 172.914 224.263 172.914 217.901C172.914 211.54 177.712 204.517 183.791 206.418C190.449 208.52 194.951 212.766 194.951 219.114Z" fill="#2C2C2C"/>
<path d="M97.4922 221.621C97.4922 230.22 103.126 235.544 111.725 235.544C120.324 235.544 127.279 228.562 127.279 219.976C127.279 211.391 120.782 201.889 112.588 204.463C103.571 207.28 97.4922 213.022 97.4922 221.621Z" fill="white"/>
<path fill-rule="evenodd" clip-rule="evenodd" d="M123.418 207.688C126.152 210.917 127.818 215.564 127.818 219.978C127.818 228.861 120.623 236.085 111.725 236.085C107.314 236.085 103.612 234.717 101.009 232.196C98.4042 229.673 96.9531 226.043 96.9531 221.623C96.9531 212.696 103.288 206.806 112.427 203.951C116.791 202.58 120.675 204.45 123.418 207.688ZM122.595 208.385C120.041 205.369 116.579 203.776 112.749 204.979L112.749 204.98C103.854 207.758 98.0314 213.352 98.0314 221.623C98.0314 225.801 99.3972 229.133 101.759 231.422C104.123 233.712 107.537 235.006 111.725 235.006C120.026 235.006 126.74 228.267 126.74 219.978C126.74 215.807 125.157 211.41 122.595 208.385Z" fill="#2C2C2C"/>
<path d="M104.5 219.114C104.5 225.476 108.665 229.412 115.026 229.412C121.388 229.412 126.537 224.263 126.537 217.901C126.537 211.54 121.739 204.517 115.673 206.418C108.988 208.52 104.5 212.766 104.5 219.114Z" fill="#2C2C2C"/>
<path d="M169.315 290.617C159.584 289.727 149.974 289.363 149.974 289.363C146.442 289.471 138.922 289.781 131.158 290.617C133.423 298.353 141.105 304.054 150.23 304.054C159.368 304.068 167.05 298.34 169.315 290.617Z" fill="#50BFD7"/>
<path d="M168.523 291.425C169.358 288.136 186.085 204.329 186.085 204.329C186.085 204.329 141.445 191.148 112.898 204.329L131.202 292.153L168.523 291.425Z" fill="white"/>
<path fill-rule="evenodd" clip-rule="evenodd" d="M186.236 203.813C186.236 203.813 186.236 203.813 186.084 204.33C186.612 204.436 186.612 204.436 186.612 204.437L186.612 204.44L186.424 205.378C186.302 205.992 186.122 206.894 185.892 208.043C185.433 210.341 184.776 213.628 183.986 217.582C182.405 225.491 180.288 236.069 178.145 246.751C173.862 268.099 169.467 289.897 169.044 291.559L168.943 291.957L130.764 292.702L112.282 204.021L112.671 203.841C127.083 197.186 145.503 197.201 160.256 198.851C167.643 199.678 174.135 200.917 178.78 201.95C181.103 202.467 182.964 202.932 184.247 203.268C184.888 203.436 185.384 203.572 185.721 203.666C185.889 203.713 186.017 203.75 186.104 203.775C186.147 203.787 186.18 203.797 186.202 203.803L186.227 203.811L186.234 203.813L186.236 203.813ZM186.084 204.33L186.612 204.436L186.709 203.953L186.236 203.813L186.084 204.33ZM185.458 204.712C185.449 204.71 185.44 204.707 185.43 204.705C185.099 204.612 184.608 204.478 183.973 204.311C182.703 203.978 180.854 203.516 178.546 203.003C173.929 201.976 167.476 200.744 160.136 199.923C145.567 198.293 127.591 198.293 113.513 204.642L131.637 291.606L168.092 290.895C168.856 287.47 173.015 266.837 177.088 246.539C179.231 235.858 181.347 225.279 182.929 217.371C183.719 213.417 184.376 210.13 184.835 207.832C185.064 206.683 185.244 205.781 185.367 205.167L185.458 204.712Z" fill="black"/>
<path d="M168.523 291.425C169.358 288.136 186.085 204.329 186.085 204.329C186.085 204.329 141.445 191.148 112.898 204.329L131.202 292.153L168.523 291.425Z" fill="white"/>
<path fill-rule="evenodd" clip-rule="evenodd" d="M186.236 203.813C186.236 203.813 186.236 203.813 186.084 204.33C186.612 204.436 186.612 204.436 186.612 204.437L186.612 204.44L186.424 205.378C186.302 205.992 186.122 206.894 185.892 208.043C185.433 210.341 184.776 213.628 183.986 217.582C182.405 225.491 180.288 236.069 178.145 246.751C173.862 268.099 169.467 289.897 169.044 291.559L168.943 291.957L130.764 292.702L112.282 204.021L112.671 203.841C127.083 197.186 145.503 197.201 160.256 198.851C167.643 199.678 174.135 200.917 178.78 201.95C181.103 202.467 182.964 202.932 184.247 203.268C184.888 203.436 185.384 203.572 185.721 203.666C185.889 203.713 186.017 203.75 186.104 203.775C186.147 203.787 186.18 203.797 186.202 203.803L186.227 203.811L186.234 203.813L186.236 203.813ZM186.084 204.33L186.612 204.436L186.709 203.953L186.236 203.813L186.084 204.33ZM185.458 204.712C185.449 204.71 185.44 204.707 185.43 204.705C185.099 204.612 184.608 204.478 183.973 204.311C182.703 203.978 180.854 203.516 178.546 203.003C173.929 201.976 167.476 200.744 160.136 199.923C145.567 198.293 127.591 198.293 113.513 204.642L131.637 291.606L168.092 290.895C168.856 287.47 173.015 266.837 177.088 246.539C179.231 235.858 181.347 225.279 182.929 217.371C183.719 213.417 184.376 210.13 184.835 207.832C185.064 206.683 185.244 205.781 185.367 205.167L185.458 204.712Z" fill="#2C2C2C"/>
<path d="M175.249 201.756C162.781 199.249 141.702 196.391 123.587 200.704C125.73 214.223 127.873 227.755 130.016 241.273C131.741 250.439 140.435 256.544 149.505 256.598C158.576 256.544 167.27 250.452 168.995 241.273C171.07 228.092 173.16 214.924 175.249 201.756Z" fill="#50BFD7"/>
<path fill-rule="evenodd" clip-rule="evenodd" d="M123.459 200.18C141.693 195.838 162.868 198.717 175.352 201.227L175.86 201.329L175.777 201.848C173.688 215.014 171.6 228.179 169.525 241.357L169.523 241.365L169.522 241.373C167.741 250.846 158.791 257.082 149.506 257.137L149.503 257.137L149.5 257.137C140.214 257.082 131.264 250.832 129.484 241.373L129.482 241.365L129.481 241.358C128.409 234.599 127.338 227.837 126.267 221.075L126.266 221.073C125.195 214.311 124.123 207.548 123.052 200.789L122.974 200.295L123.459 200.18ZM124.195 201.115C125.24 207.709 126.286 214.305 127.331 220.902L127.331 220.904C128.402 227.665 129.474 234.425 130.545 241.181C132.218 250.047 140.65 256.005 149.503 256.059C158.355 256.005 166.788 250.061 168.461 241.182C170.509 228.173 172.571 215.178 174.632 202.183C162.239 199.728 141.839 197.051 124.195 201.115Z" fill="#2C2C2C"/>
<path d="M147.955 206.541C152.214 206.541 158.832 205.247 158.832 201.001L157.74 186.822L156.783 174.423C156.783 170.163 153.333 166.727 149.087 166.727C146.958 166.727 145.044 167.589 143.642 168.977C142.254 170.366 141.378 172.293 141.378 174.423L140.434 186.836L139.531 198.737C138.318 205.921 147.955 206.541 147.955 206.541Z" fill="#2C2C2C"/>
<path d="M172.861 94.4687C166.486 86.6244 157.577 81.8936 146.148 81.8936C120.256 81.8936 94.9443 105.763 94.9443 135.537C94.9443 165.31 115.93 189.449 141.821 189.449C144.315 189.449 146.727 189.233 149.046 188.802C149.288 190.11 149.423 191.457 149.423 192.832C149.423 193.088 149.41 193.331 149.41 193.573C220.79 176.294 209.104 90.0613 172.861 94.4687Z" fill="#2C2C2C"/>
<path d="M117.196 165.607C121.998 165.607 125.89 161.714 125.89 156.913C125.89 152.112 121.998 148.22 117.196 148.22C112.395 148.22 108.503 152.112 108.503 156.913C108.503 161.714 112.395 165.607 117.196 165.607Z" fill="white"/>
<path fill-rule="evenodd" clip-rule="evenodd" d="M117.194 148.76C112.691 148.76 109.04 152.411 109.04 156.914C109.04 161.418 112.691 165.068 117.194 165.068C121.698 165.068 125.349 161.418 125.349 156.914C125.349 152.411 121.698 148.76 117.194 148.76ZM107.962 156.914C107.962 151.815 112.095 147.682 117.194 147.682C122.293 147.682 126.427 151.815 126.427 156.914C126.427 162.013 122.293 166.147 117.194 166.147C112.095 166.147 107.962 162.013 107.962 156.914Z" fill="#2C2C2C"/>
<path d="M178.415 165.607C183.216 165.607 187.108 161.714 187.108 156.913C187.108 152.112 183.216 148.22 178.415 148.22C173.614 148.22 169.722 152.112 169.722 156.913C169.722 161.714 173.614 165.607 178.415 165.607Z" fill="white"/>
<path fill-rule="evenodd" clip-rule="evenodd" d="M178.415 148.76C173.912 148.76 170.261 152.411 170.261 156.914C170.261 161.418 173.912 165.068 178.415 165.068C182.919 165.068 186.569 161.418 186.569 156.914C186.569 152.411 182.919 148.76 178.415 148.76ZM169.183 156.914C169.183 151.815 173.316 147.682 178.415 147.682C183.514 147.682 187.648 151.815 187.648 156.914C187.648 162.013 183.514 166.147 178.415 166.147C173.316 166.147 169.183 162.013 169.183 156.914Z" fill="#2C2C2C"/>
<path d="M148.628 193.183C167.289 193.183 182.417 171.767 182.417 145.349C182.417 118.931 167.289 97.5146 148.628 97.5146C129.966 97.5146 114.838 118.931 114.838 145.349C114.838 171.767 129.966 193.183 148.628 193.183Z" fill="white"/>
<path fill-rule="evenodd" clip-rule="evenodd" d="M125.175 111.836C119.132 120.391 115.377 132.238 115.377 145.349C115.377 158.46 119.132 170.306 125.175 178.861C131.219 187.418 139.519 192.643 148.628 192.643C157.736 192.643 166.036 187.418 172.08 178.861C178.123 170.306 181.878 158.46 181.878 145.349C181.878 132.238 178.123 120.391 172.08 111.836C166.036 103.28 157.736 98.0538 148.628 98.0538C139.519 98.0538 131.219 103.28 125.175 111.836ZM124.294 111.214C130.48 102.458 139.075 96.9756 148.628 96.9756C158.18 96.9756 166.776 102.458 172.961 111.214C179.147 119.971 182.956 132.042 182.956 145.349C182.956 158.656 179.147 170.726 172.961 179.483C166.776 188.24 158.18 193.722 148.628 193.722C139.075 193.722 130.48 188.24 124.294 179.483C118.108 170.726 114.299 158.656 114.299 145.349C114.299 132.042 118.108 119.971 124.294 111.214Z" fill="#2C2C2C"/>
<path d="M109.905 134.741C109.905 134.741 138.668 136.143 148.251 118.837C148.251 118.837 169.061 136.844 188.928 135.442L187.054 127.49L179.345 112.286L174.668 106.68L165.085 96.6248L152.227 91.2471L136.794 93.3497L116.213 107.38L113.639 116.734L109.905 134.741Z" fill="#2C2C2C"/>
<path d="M149.463 164.043C149.477 164.124 149.301 164.272 148.911 164.272C148.533 164.286 147.954 164.111 147.442 163.625C147.185 163.383 146.956 163.086 146.781 162.709C146.754 162.655 146.741 162.601 146.714 162.547L146.687 162.466L146.66 162.399L146.619 162.277C146.606 162.224 146.592 162.156 146.565 162.102C146.512 161.9 146.471 161.684 146.458 161.455C146.377 160.566 146.552 159.663 146.768 158.8C147.603 155.35 148.587 152.641 148.951 152.721C149.315 152.816 148.938 155.673 148.102 159.124C147.886 159.973 147.725 160.741 147.725 161.388C147.725 161.55 147.738 161.711 147.752 161.86L147.765 161.914V161.941V161.954V161.967C147.765 161.967 147.752 161.927 147.765 161.941L147.792 162.075L147.805 162.143L147.819 162.183L147.846 162.264C147.927 162.52 148.048 162.763 148.183 162.951C148.452 163.342 148.776 163.585 149.032 163.72C149.261 163.895 149.45 163.949 149.463 164.043Z" fill="#2C2C2C"/>
<path d="M112.102 150.834C111.724 149.338 111.441 147.815 111.212 146.278C110.996 144.742 110.848 143.205 110.767 141.655C110.633 138.555 110.754 135.429 111.172 132.342C111.589 129.242 112.304 126.183 113.315 123.217C113.369 123.029 113.436 122.84 113.503 122.665L113.706 122.112L114.11 121.007L114.568 119.915L114.797 119.376C114.878 119.201 114.946 119.012 115.04 118.837C115.7 117.408 116.415 115.993 117.223 114.645C118.827 111.923 120.701 109.362 122.857 107.03C125.027 104.712 127.467 102.636 130.135 100.898C130.459 100.668 130.809 100.466 131.146 100.264C131.483 100.062 131.834 99.8463 132.171 99.6576L133.235 99.0915L133.761 98.8085C133.936 98.7141 134.125 98.6332 134.3 98.5524L135.392 98.0537C135.486 98.0132 135.567 97.9728 135.661 97.9324L135.944 97.8246L136.497 97.6089L137.05 97.3933C137.238 97.3259 137.414 97.245 137.616 97.1776L138.761 96.8002C141.807 95.8163 145.015 95.3176 148.223 95.2502C149.827 95.1963 151.431 95.3176 153.021 95.4928C153.426 95.5467 153.817 95.6141 154.207 95.668L154.8 95.7624C154.895 95.7759 155.003 95.7894 155.097 95.8163L155.393 95.8837L156.566 96.1398C156.957 96.2207 157.348 96.3285 157.725 96.4363C160.812 97.2989 163.79 98.5524 166.513 100.224L167.524 100.857C167.699 100.965 167.861 101.073 168.022 101.194L168.508 101.531L168.993 101.868C169.155 101.976 169.316 102.097 169.478 102.218L170.422 102.946L170.893 103.31L171.352 103.701L172.255 104.483C172.551 104.739 172.834 105.022 173.117 105.305L173.549 105.723C173.697 105.858 173.832 105.992 173.966 106.141L174.789 107.003L175.193 107.434L175.584 107.879L176.365 108.782C176.5 108.931 176.622 109.092 176.743 109.241L177.107 109.712C177.349 110.022 177.592 110.332 177.835 110.656L178.522 111.626C178.994 112.26 179.398 112.947 179.829 113.607C181.501 116.29 182.862 119.147 183.94 122.085C185.018 125.037 185.787 128.083 186.272 131.169L186.366 131.749L186.407 132.032L186.434 132.329L186.568 133.488C186.676 134.256 186.703 135.038 186.771 135.819C186.865 137.369 186.892 138.933 186.851 140.483L186.838 141.062L186.811 141.642C186.784 142.033 186.771 142.41 186.73 142.801C186.676 143.569 186.595 144.351 186.501 145.119C186.299 146.656 186.043 148.179 185.706 149.688C185.894 148.152 186.043 146.629 186.097 145.092C186.164 143.556 186.178 142.019 186.11 140.496C186.043 138.973 185.935 137.437 185.746 135.927C185.638 135.172 185.558 134.418 185.409 133.663L185.207 132.544L185.153 132.261L185.086 131.978L184.964 131.426C184.331 128.447 183.428 125.536 182.282 122.746L182.067 122.22L181.838 121.708L181.366 120.67C181.218 120.32 181.042 119.996 180.867 119.659L180.355 118.648C180.18 118.311 179.991 117.988 179.802 117.664C179.614 117.341 179.438 117.004 179.236 116.68L178.643 115.724C178.441 115.4 178.252 115.077 178.037 114.78C177.605 114.16 177.201 113.527 176.743 112.934L176.069 112.031C175.84 111.734 175.597 111.451 175.355 111.154L174.991 110.723C174.869 110.575 174.748 110.427 174.627 110.292L173.872 109.456L173.495 109.038L173.104 108.634L172.309 107.839C170.165 105.763 167.78 103.944 165.206 102.434C162.645 100.925 159.882 99.7789 157.024 99.0106C156.31 98.795 155.582 98.6737 154.868 98.5119L154.598 98.458C154.504 98.4445 154.41 98.4311 154.329 98.4176L153.776 98.3367C153.412 98.2828 153.048 98.2154 152.684 98.175C151.215 98.0267 149.733 97.9189 148.264 97.9593C145.312 98.0132 142.36 98.458 139.543 99.3611L138.492 99.698C138.317 99.7519 138.141 99.8193 137.966 99.8867L137.454 100.089L136.942 100.291L136.686 100.385C136.605 100.412 136.511 100.466 136.43 100.493L135.419 100.951C135.257 101.032 135.082 101.1 134.907 101.181L134.408 101.437L133.424 101.949C133.101 102.138 132.777 102.326 132.454 102.501C132.13 102.69 131.807 102.865 131.497 103.081C128.976 104.671 126.658 106.572 124.555 108.701L123.787 109.524L123.41 109.941C123.342 110.009 123.275 110.076 123.221 110.144L123.046 110.359L122.318 111.222C122.197 111.37 122.075 111.505 121.954 111.653L121.604 112.098L120.916 112.987C120.795 113.136 120.701 113.284 120.579 113.446L120.256 113.904C120.04 114.214 119.825 114.51 119.609 114.834L119.002 115.791C117.399 118.338 116.024 121.047 114.946 123.864C113.854 126.681 113.018 129.619 112.452 132.612L112.236 133.73C112.169 134.108 112.129 134.485 112.061 134.862L111.899 135.995C111.859 136.372 111.819 136.749 111.778 137.127L111.657 138.272L111.589 139.418L111.522 140.564C111.509 140.941 111.495 141.332 111.482 141.709C111.455 143.246 111.482 144.769 111.589 146.305C111.711 147.775 111.886 149.298 112.102 150.834Z" fill="#50BFD7"/>
<path d="M139.839 147.882C139.839 151.724 136.51 154.837 132.413 154.837C128.302 154.837 124.986 151.724 124.986 147.882C124.986 144.041 128.315 140.928 132.413 140.928C136.51 140.928 139.839 144.041 139.839 147.882Z" fill="white"/>
<path fill-rule="evenodd" clip-rule="evenodd" d="M132.413 141.465C128.579 141.465 125.526 144.37 125.526 147.881C125.526 151.392 128.566 154.296 132.413 154.296C136.247 154.296 139.3 151.391 139.3 147.881C139.3 144.37 136.247 141.465 132.413 141.465ZM124.447 147.881C124.447 143.709 128.052 140.387 132.413 140.387C136.774 140.387 140.378 143.709 140.378 147.881C140.378 152.053 136.774 155.374 132.413 155.374C128.038 155.374 124.447 152.052 124.447 147.881Z" fill="#2C2C2C"/>
<path d="M128.776 147.452C128.776 150.619 130.839 153.193 133.372 153.193C135.906 153.193 137.968 150.619 137.968 147.452C137.968 144.284 135.906 141.71 133.372 141.71C130.825 141.697 128.776 144.271 128.776 147.452Z" fill="#50BFD7"/>
<path d="M130.096 147.451C130.096 149.702 131.551 151.521 133.357 151.521C135.163 151.521 136.619 149.702 136.619 147.451C136.619 145.2 135.163 143.367 133.357 143.367C131.565 143.367 130.096 145.187 130.096 147.451Z" fill="#2C2C2C"/>
<path d="M129.894 143.583C129.894 144.203 130.648 144.688 131.578 144.688C132.508 144.688 133.263 144.19 133.263 143.583C133.263 142.963 132.508 142.478 131.578 142.478C130.648 142.464 129.894 142.963 129.894 143.583Z" fill="white"/>
<path d="M132.898 139.917C128.302 139.458 124.771 143.61 124.771 147.896C124.771 148.34 125.323 148.421 125.552 148.111C127.426 145.537 128.032 143.003 131.456 142.019C136.51 140.564 139.286 145.753 139.57 149.823C139.61 150.214 139.947 149.863 139.987 149.459C140.446 144.593 138.02 140.429 132.898 139.917Z" fill="#2C2C2C"/>
<path d="M141.97 137.247C141.97 137.247 131.943 127.246 121.16 139.121C121.147 139.121 130.474 133.15 141.97 137.247Z" fill="#2C2C2C"/>
<path d="M172.148 147.882C172.148 151.724 168.819 154.837 164.721 154.837C160.611 154.837 157.295 151.724 157.295 147.882C157.295 144.041 160.624 140.928 164.721 140.928C168.819 140.928 172.148 144.041 172.148 147.882Z" fill="white"/>
<path fill-rule="evenodd" clip-rule="evenodd" d="M164.72 141.465C160.887 141.465 157.833 144.37 157.833 147.881C157.833 151.392 160.874 154.296 164.72 154.296C168.554 154.296 171.608 151.391 171.608 147.881C171.608 144.37 168.554 141.465 164.72 141.465ZM156.755 147.881C156.755 143.709 160.359 140.387 164.72 140.387C169.081 140.387 172.686 143.709 172.686 147.881C172.686 152.053 169.081 155.374 164.72 155.374C160.345 155.374 156.755 152.052 156.755 147.881Z" fill="#2C2C2C"/>
<path d="M161.082 147.452C161.082 150.619 163.144 153.193 165.678 153.193C168.212 153.193 170.274 150.619 170.274 147.452C170.274 144.284 168.212 141.71 165.678 141.71C163.144 141.697 161.082 144.271 161.082 147.452Z" fill="#50BFD7"/>
<path d="M162.415 147.451C162.415 149.702 163.871 151.521 165.677 151.521C167.483 151.521 168.938 149.702 168.938 147.451C168.938 145.2 167.483 143.367 165.677 143.367C163.871 143.367 162.415 145.187 162.415 147.451Z" fill="#2C2C2C"/>
<path d="M162.2 143.583C162.2 144.203 162.955 144.688 163.885 144.688C164.815 144.688 165.57 144.19 165.57 143.583C165.57 142.963 164.815 142.478 163.885 142.478C162.968 142.464 162.2 142.963 162.2 143.583Z" fill="white"/>
<path d="M165.207 139.917C160.611 139.458 157.08 143.61 157.08 147.896C157.08 148.34 157.633 148.421 157.862 148.111C159.735 145.537 160.342 143.003 163.765 142.019C168.82 140.564 171.596 145.753 171.879 149.823C171.92 150.214 172.256 149.863 172.297 149.459C172.755 144.593 170.343 140.429 165.207 139.917Z" fill="#2C2C2C"/>
<path d="M174.276 136.156C174.276 136.156 164.248 126.156 153.466 138.03C153.466 138.03 162.793 132.059 174.276 136.156Z" fill="#2C2C2C"/>
<path d="M158.749 296.453C158.749 296.79 159.046 297.181 159.396 297.141C163.372 296.723 166.418 293.65 170.34 294.297C166.405 296.251 162.995 299.647 163.48 304.648C163.534 305.268 164.127 305.51 164.585 305.133C167.402 302.734 170.637 300.591 174.411 301.386C176.028 301.723 177.929 302.357 179.6 302.141C182.093 301.831 184.196 300.699 185.436 298.286C187.619 294.108 186.811 289.094 181.918 288.056C181.797 288.029 181.703 288.043 181.595 288.083C179.789 287.369 178.144 286.466 176.689 284.889C175.287 283.352 173.98 281.654 172.457 280.239C170.421 278.339 168.211 276.842 165.515 278.123C165.111 278.312 165.138 278.891 165.394 279.201C166.58 280.67 167.968 282.072 169.424 283.42C167.968 283.083 166.499 282.908 164.99 283.029C162.294 283.258 159.113 285.051 159.181 288.258C159.194 288.663 159.477 288.905 159.828 288.946C162.308 289.202 164.801 289.161 167.267 289.418C163.426 290.55 158.709 291.844 158.749 296.453Z" fill="white"/>
<path fill-rule="evenodd" clip-rule="evenodd" d="M169.432 277.485C170.674 277.975 171.796 278.883 172.824 279.843C173.854 280.8 174.805 281.904 175.728 282.975C176.186 283.506 176.636 284.029 177.086 284.522C178.425 285.972 179.935 286.829 181.631 287.515C181.753 287.495 181.886 287.495 182.032 287.527C184.672 288.088 186.254 289.747 186.849 291.844C187.436 293.911 187.054 296.351 185.915 298.532C184.576 301.136 182.296 302.347 179.668 302.674C178.747 302.793 177.787 302.675 176.882 302.498C176.426 302.409 175.975 302.302 175.543 302.199C175.498 302.188 175.452 302.177 175.407 302.166C175.021 302.074 174.654 301.986 174.301 301.912L174.3 301.912C170.801 301.175 167.75 303.144 164.935 305.542L164.932 305.545L164.928 305.547C164.561 305.849 164.087 305.937 163.669 305.758C163.251 305.579 162.986 305.175 162.943 304.696C162.504 300.161 165.086 296.907 168.343 294.807C167.259 294.955 166.204 295.347 165.099 295.814C164.853 295.918 164.604 296.026 164.352 296.136C162.856 296.785 161.242 297.486 159.455 297.675C159.052 297.72 158.729 297.513 158.536 297.291C158.343 297.071 158.211 296.767 158.21 296.454C158.189 293.915 159.499 292.285 161.266 291.173C162.197 290.587 163.27 290.135 164.359 289.755C164.083 289.742 163.807 289.73 163.529 289.718L163.518 289.718C162.283 289.664 161.027 289.61 159.772 289.48L159.769 289.48L159.766 289.479C159.189 289.413 158.665 288.983 158.642 288.274L158.642 288.271L158.642 288.268C158.604 286.459 159.489 285.059 160.717 284.1C161.934 283.149 163.507 282.612 164.944 282.49L164.945 282.49L164.947 282.49C165.899 282.413 166.832 282.45 167.75 282.567C166.76 281.592 165.82 280.584 164.976 279.54C164.759 279.276 164.65 278.92 164.669 278.584C164.689 278.236 164.859 277.833 165.285 277.633C166.78 276.924 168.162 276.984 169.432 277.485ZM165.752 278.605C165.75 278.613 165.746 278.625 165.745 278.645C165.743 278.679 165.748 278.72 165.762 278.762C165.775 278.805 165.794 278.837 165.81 278.856L165.812 278.858L165.814 278.861C166.977 280.302 168.345 281.684 169.79 283.022L171.279 284.401L169.302 283.943C167.885 283.615 166.473 283.449 165.034 283.564C163.776 283.671 162.411 284.145 161.381 284.95C160.362 285.745 159.692 286.844 159.72 288.241C159.722 288.312 159.745 288.341 159.759 288.355C159.778 288.374 159.817 288.4 159.887 288.408C161.107 288.534 162.333 288.587 163.576 288.641L163.58 288.641C164.818 288.695 166.073 288.75 167.323 288.879L170.038 289.161L167.42 289.933C167.353 289.953 167.286 289.972 167.218 289.992C165.334 290.547 163.363 291.127 161.84 292.086C160.298 293.056 159.27 294.377 159.288 296.447L159.288 296.449V296.451C159.288 296.458 159.29 296.478 159.302 296.507C159.313 296.535 159.329 296.561 159.347 296.581C159.354 296.59 159.361 296.596 159.366 296.6C160.965 296.427 162.402 295.804 163.897 295.157C164.155 295.045 164.416 294.932 164.679 294.821C166.437 294.077 168.304 293.412 170.428 293.763L172.076 294.035L170.58 294.778C166.729 296.69 163.563 299.922 164.017 304.594L164.017 304.597L164.017 304.599C164.024 304.672 164.044 304.713 164.058 304.734C164.072 304.755 164.085 304.763 164.094 304.767C164.102 304.771 164.115 304.774 164.136 304.77C164.157 304.767 164.193 304.755 164.24 304.717C167.058 302.318 170.474 300.004 174.522 300.857C174.891 300.934 175.275 301.026 175.658 301.118C175.703 301.128 175.749 301.139 175.795 301.15C176.226 301.254 176.658 301.355 177.089 301.44C177.955 301.609 178.781 301.701 179.531 301.604L179.532 301.604L179.534 301.604C181.891 301.311 183.815 300.258 184.957 298.038L184.957 298.036L184.958 298.035C186.001 296.038 186.307 293.883 185.812 292.139C185.326 290.426 184.058 289.059 181.806 288.582L181.804 288.581L181.801 288.581C181.801 288.581 181.801 288.581 181.8 288.58C181.797 288.582 181.791 288.583 181.784 288.586L181.59 288.659L181.397 288.583C179.547 287.851 177.822 286.91 176.293 285.253L176.292 285.252L176.29 285.25C175.795 284.707 175.323 284.158 174.855 283.615C173.958 282.572 173.079 281.551 172.09 280.632L172.089 280.631C171.081 279.69 170.081 278.9 169.036 278.488C168.019 278.086 166.951 278.038 165.752 278.605Z" fill="#2C2C2C"/>
<path fill-rule="evenodd" clip-rule="evenodd" d="M114.164 142.814V143.084H113.086V142.814H114.164Z" fill="#2C2C2C"/>
<path fill-rule="evenodd" clip-rule="evenodd" d="M119.824 145.78V146.05H118.746V145.78H119.824Z" fill="#2C2C2C"/>
<path d="M150.489 144.191C152.335 144.581 151.648 145.781 151.648 145.956C151.648 146.131 152.335 156.105 161.244 158.734C170.153 161.362 175.491 156.2 177.041 153.612C178.591 151.024 179.885 144.878 180.262 144.406C180.653 143.935 182.499 143.112 182.499 143.112L182.715 140.7L180.397 140.012C180.397 140.012 174.547 137.344 165.935 137.222C157.336 137.088 152.47 142.048 152.47 142.048C150.044 141.279 147.038 141.172 144.289 142.048C144.289 142.048 139.423 137.101 130.824 137.222C122.225 137.357 116.362 140.012 116.362 140.012L114.044 140.7L114.26 143.112C114.26 143.112 116.106 143.935 116.497 144.406C116.888 144.878 118.168 151.038 119.718 153.612C121.268 156.2 126.606 161.362 135.515 158.734C144.424 156.105 145.111 146.131 145.111 145.956C145.111 145.781 144.424 144.581 146.27 144.191C147.874 143.854 148.885 143.854 150.489 144.191ZM171.865 156.671C165.072 160.755 156.931 156.631 154.478 151.253C152.025 145.875 154.088 143.032 154.088 143.032C158.198 136.346 174.736 136.063 177.58 143.288C178.065 144.501 178.672 152.588 171.865 156.671ZM119.166 143.288C122.01 136.05 138.561 136.346 142.658 143.032C142.658 143.032 144.72 145.875 142.267 151.253C139.814 156.631 131.687 160.755 124.88 156.671C118.087 152.588 118.694 144.501 119.166 143.288Z" fill="#2C2C2C"/>
<path d="M154.653 216.567H144.302C141.552 216.567 139.315 218.804 139.315 221.553V231.905C139.315 234.654 141.552 236.892 144.302 236.892H154.653C157.403 236.892 159.64 234.654 159.64 231.905V221.553C159.64 218.804 157.416 216.567 154.653 216.567ZM136.565 212.159C134.988 212.159 133.708 213.44 133.708 215.017C133.708 216.593 134.988 217.874 136.565 217.874C138.142 217.874 139.423 216.593 139.423 215.017C139.423 213.44 138.142 212.159 136.565 212.159Z" fill="white"/>
<path d="M153.925 222.739C153.265 220.974 151.58 219.801 149.693 219.801H146.89L152.429 233.845H158.373L153.925 222.739ZM142.604 229.815L140.986 233.845H146.89L149.639 226.877H146.836C144.949 226.877 143.264 228.05 142.604 229.815ZM143.52 223.292C144.491 223.292 145.286 222.497 145.286 221.526C145.286 220.556 144.491 219.761 143.52 219.761C142.55 219.761 141.755 220.556 141.755 221.526C141.755 222.497 142.55 223.292 143.52 223.292Z" fill="#50BFD7"/>
<path d="M176.714 267.303C167.397 266.451 158.196 266.103 158.196 266.103C154.815 266.206 147.614 266.503 140.181 267.303C142.349 274.71 149.704 280.169 158.441 280.169C167.19 280.182 174.546 274.697 176.714 267.303Z" fill="#50BFD7"/>
<path d="M166.084 280.761C166.084 281.084 166.368 281.458 166.704 281.42C170.511 281.02 173.427 278.077 177.182 278.697C173.414 280.568 170.149 283.82 170.614 288.608C170.665 289.201 171.233 289.434 171.672 289.072C174.369 286.775 177.466 284.723 181.08 285.485C182.628 285.807 184.448 286.414 186.048 286.207C188.435 285.91 190.448 284.826 191.636 282.517C193.726 278.516 192.952 273.715 188.268 272.722C188.151 272.696 188.061 272.709 187.958 272.748C186.229 272.064 184.654 271.199 183.261 269.689C181.918 268.218 180.667 266.592 179.208 265.237C177.26 263.417 175.143 261.985 172.562 263.211C172.175 263.392 172.201 263.947 172.446 264.243C173.582 265.65 174.911 266.992 176.305 268.283C174.911 267.96 173.504 267.792 172.059 267.908C169.478 268.128 166.433 269.844 166.497 272.915C166.51 273.302 166.781 273.535 167.117 273.573C169.491 273.819 171.878 273.78 174.24 274.025C170.562 275.109 166.046 276.348 166.084 280.761Z" fill="#C4C4C4"/>
<path fill-rule="evenodd" clip-rule="evenodd" d="M176.31 262.601C177.499 263.071 178.574 263.94 179.558 264.859C180.544 265.776 181.455 266.833 182.338 267.858C182.777 268.367 183.208 268.868 183.638 269.34C184.92 270.728 186.366 271.548 187.99 272.205C188.107 272.185 188.234 272.186 188.374 272.217C190.902 272.754 192.416 274.342 192.987 276.35C193.548 278.329 193.183 280.665 192.092 282.754C190.81 285.246 188.627 286.406 186.111 286.719C185.229 286.833 184.31 286.72 183.443 286.551C183.007 286.465 182.575 286.363 182.162 286.264C182.118 286.254 182.074 286.243 182.031 286.233C181.662 286.144 181.31 286.06 180.972 285.99L180.971 285.989C177.621 285.283 174.699 287.169 172.004 289.465L172.001 289.468L171.998 289.47C171.647 289.759 171.192 289.844 170.792 289.672C170.392 289.501 170.138 289.114 170.097 288.655C169.677 284.313 172.149 281.197 175.268 279.187C174.23 279.328 173.219 279.703 172.161 280.151C171.926 280.25 171.687 280.354 171.446 280.459C170.014 281.081 168.469 281.752 166.758 281.932C166.372 281.976 166.063 281.778 165.877 281.566C165.693 281.355 165.566 281.064 165.566 280.764C165.545 278.332 166.8 276.772 168.491 275.707C169.383 275.146 170.411 274.713 171.453 274.35C171.189 274.338 170.924 274.326 170.658 274.315L170.648 274.314C169.465 274.263 168.263 274.211 167.061 274.087L167.058 274.086L167.055 274.086C166.503 274.022 166.002 273.611 165.979 272.932L165.979 272.929L165.979 272.926C165.942 271.194 166.79 269.853 167.966 268.935C169.131 268.025 170.637 267.511 172.013 267.394L172.014 267.393L172.015 267.393C172.927 267.32 173.821 267.355 174.7 267.467C173.752 266.534 172.851 265.569 172.044 264.569C171.836 264.316 171.731 263.975 171.75 263.654C171.768 263.321 171.931 262.935 172.34 262.744C173.771 262.064 175.094 262.122 176.31 262.601ZM172.787 263.674C172.784 263.681 172.781 263.694 172.78 263.712C172.778 263.744 172.783 263.784 172.796 263.825C172.809 263.866 172.827 263.896 172.842 263.914L172.844 263.916L172.846 263.919C173.96 265.298 175.269 266.622 176.653 267.903L178.078 269.223L176.186 268.785C174.828 268.471 173.477 268.312 172.099 268.422C170.895 268.525 169.588 268.979 168.602 269.749C167.626 270.511 166.984 271.562 167.011 272.9C167.014 272.968 167.035 272.996 167.049 273.01C167.067 273.028 167.104 273.052 167.171 273.06C168.339 273.18 169.513 273.232 170.703 273.283L170.707 273.283C171.892 273.335 173.094 273.387 174.291 273.511L176.89 273.781L174.384 274.52C174.319 274.539 174.255 274.558 174.191 274.577C172.387 275.108 170.5 275.663 169.041 276.581C167.564 277.511 166.581 278.775 166.598 280.757L166.598 280.759V280.761C166.598 280.768 166.6 280.787 166.611 280.814C166.622 280.841 166.637 280.866 166.654 280.886C166.661 280.894 166.667 280.899 166.672 280.903C168.203 280.738 169.579 280.142 171.011 279.522C171.258 279.414 171.507 279.307 171.759 279.2C173.442 278.488 175.23 277.851 177.264 278.187L178.842 278.447L177.41 279.159C173.723 280.99 170.691 284.084 171.125 288.557L171.125 288.56L171.126 288.562C171.132 288.632 171.151 288.672 171.164 288.692C171.178 288.712 171.191 288.72 171.199 288.723C171.207 288.727 171.22 288.73 171.24 288.726C171.259 288.723 171.294 288.712 171.339 288.675C174.037 286.378 177.308 284.163 181.183 284.979C181.537 285.053 181.905 285.141 182.271 285.229C182.315 285.239 182.358 285.25 182.402 285.26C182.815 285.359 183.229 285.457 183.641 285.537C184.471 285.7 185.262 285.788 185.98 285.695L185.981 285.695L185.982 285.695C188.239 285.414 190.082 284.406 191.174 282.28L191.175 282.279L191.176 282.277C192.175 280.366 192.467 278.302 191.993 276.632C191.528 274.992 190.313 273.684 188.158 273.226L188.156 273.226L188.153 273.225C188.153 273.225 188.153 273.225 188.152 273.225C188.149 273.226 188.144 273.228 188.137 273.231L187.951 273.3L187.766 273.227C185.994 272.527 184.343 271.625 182.879 270.039L182.878 270.038L182.877 270.037C182.402 269.517 181.95 268.991 181.502 268.471C180.643 267.473 179.802 266.495 178.855 265.615L178.854 265.614C177.889 264.713 176.932 263.957 175.931 263.562C174.957 263.177 173.934 263.131 172.787 263.674Z" fill="#2C2C2C"/>
<path d="M95.2524 243.163H206.882C208.217 243.163 209.498 243.694 210.443 244.638C211.387 245.582 211.918 246.863 211.918 248.199V310.912H90.2168V248.199C90.2168 246.863 90.7473 245.582 91.6917 244.638C92.6361 243.694 93.9169 243.163 95.2524 243.163Z" fill="white"/>
<path fill-rule="evenodd" clip-rule="evenodd" d="M95.2526 243.804C94.0873 243.804 92.9698 244.267 92.1458 245.091C91.3218 245.915 90.8589 247.033 90.8589 248.198V310.27H211.276V248.198C211.276 247.033 210.813 245.915 209.989 245.091C209.165 244.267 208.047 243.804 206.882 243.804H95.2526ZM91.2381 244.183C92.3028 243.119 93.7469 242.521 95.2526 242.521H206.882C208.388 242.521 209.832 243.119 210.897 244.183C211.961 245.248 212.56 246.692 212.56 248.198V310.911C212.56 311.266 212.272 311.553 211.918 311.553H90.217C89.8626 311.553 89.5752 311.266 89.5752 310.911V248.198C89.5752 246.692 90.1734 245.248 91.2381 244.183Z" fill="#2C2C2C"/>
<path d="M211.918 265.7C196.629 269.578 180.938 279.447 151.702 293.346C123.502 306.761 100.419 306.529 90.2168 305.492V310.91H211.918V265.7Z" fill="#2C2C2C"/>
<path fill-rule="evenodd" clip-rule="evenodd" d="M212.312 265.195C212.468 265.316 212.56 265.503 212.56 265.701V310.911C212.56 311.266 212.272 311.553 211.918 311.553H90.217C89.8626 311.553 89.5752 311.266 89.5752 310.911V305.493C89.5752 305.311 89.6521 305.138 89.7868 305.017C89.9214 304.895 90.1014 304.836 90.282 304.854C100.397 305.883 123.357 306.12 151.426 292.767L151.426 292.767C161.056 288.19 169.203 284.055 176.362 280.423C180.069 278.541 183.511 276.795 186.756 275.191C196.25 270.499 204.046 267.036 211.76 265.079C211.952 265.031 212.156 265.073 212.312 265.195ZM151.977 293.927C124.279 307.103 101.478 307.181 90.8589 306.2V310.269H211.276V266.532C203.958 268.486 196.475 271.82 187.325 276.342C184.102 277.935 180.67 279.676 176.968 281.554C169.8 285.192 161.619 289.343 151.977 293.927Z" fill="#2C2C2C"/>
<path d="M153.063 174.992C153.063 177.022 150.955 178.667 148.354 178.667C145.754 178.667 143.646 177.022 143.646 174.992C143.646 172.962 145.754 171.316 148.354 171.316C150.955 171.316 153.063 172.962 153.063 174.992Z" fill="white"/>
<path d="M210.888 306.42H90.7842V310.101H210.888V306.42Z" fill="white"/>
<path fill-rule="evenodd" clip-rule="evenodd" d="M137.765 170.776H160.641L160.567 171.385C160.225 174.164 158.871 176.698 156.78 178.547C154.686 180.399 151.995 181.41 149.205 181.41C146.415 181.41 143.724 180.399 141.63 178.547C139.537 176.696 138.199 174.148 137.843 171.388L137.765 170.776ZM139.017 171.861C139.446 174.126 140.61 176.197 142.349 177.735C144.243 179.409 146.678 180.325 149.205 180.325C151.732 180.325 154.167 179.409 156.061 177.735C157.803 176.194 158.977 174.133 159.396 171.861H139.017Z" fill="#2C2C2C"/>
<path d="M262.47 69.0738L265.637 72.2408L236.817 101.061L224.149 88.3926L227.316 85.2256L236.817 94.7267L262.47 69.0738ZM262.47 62.6719L236.817 88.3248L227.316 78.8237L217.747 88.3926L236.817 107.463L272.039 72.2408L262.47 62.6719V62.6719Z" fill="#50BFD7"/>
</svg>
