<svg width="371" height="330" viewBox="0 0 371 330" fill="none" xmlns="http://www.w3.org/2000/svg">
<path d="M352.029 100.289C352.029 100.289 338.392 47.4742 255.834 14.1664C173.277 -19.1414 99.4173 11.7075 82.5792 50.7371C65.7411 89.7666 83.3876 110.843 72.1514 144.174C60.9152 177.505 3.19045 219.719 26.4873 270.91C49.7842 322.102 158.799 336.722 247.015 326.161C335.231 315.599 404.152 198.597 352.029 100.289Z" fill="#50BFD7"/>
<path opacity="0.7" d="M352.029 100.289C352.029 100.289 338.392 47.4742 255.834 14.1664C173.277 -19.1414 99.4173 11.7075 82.5792 50.7371C65.7411 89.7666 83.3876 110.843 72.1514 144.174C60.9152 177.505 3.19045 219.719 26.4873 270.91C49.7842 322.102 158.799 336.722 247.015 326.161C335.231 315.599 404.152 198.597 352.029 100.289Z" fill="white"/>
<path fill-rule="evenodd" clip-rule="evenodd" d="M275.452 253.944C275.672 253.92 275.868 254.079 275.892 254.299L279.031 283.768C279.054 283.988 278.895 284.185 278.676 284.208C278.456 284.231 278.26 284.072 278.236 283.853L275.097 254.383C275.074 254.164 275.233 253.967 275.452 253.944Z" fill="#263238"/>
<path d="M275.476 255.17C275.476 255.17 269.839 250.782 269.839 240.748C269.839 230.713 277.358 222.569 277.358 222.569C277.358 222.569 285.511 232.603 283.629 242.629C281.747 252.655 275.476 255.17 275.476 255.17Z" fill="#50BFD7"/>
<path fill-rule="evenodd" clip-rule="evenodd" d="M277.67 222.317L277.36 222.569L277.066 222.297C277.145 222.212 277.256 222.165 277.372 222.169C277.488 222.173 277.597 222.227 277.67 222.317ZM275.478 255.169C275.232 255.485 275.232 255.484 275.232 255.484L275.231 255.484L275.23 255.483L275.225 255.479L275.21 255.467C275.198 255.457 275.18 255.443 275.158 255.424C275.113 255.386 275.048 255.331 274.967 255.257C274.805 255.111 274.577 254.892 274.304 254.599C273.759 254.013 273.037 253.129 272.316 251.926C270.873 249.519 269.44 245.843 269.44 240.747C269.44 235.633 271.355 231.019 273.253 227.697C274.203 226.033 275.154 224.686 275.867 223.755C276.224 223.289 276.522 222.926 276.732 222.68C276.837 222.556 276.919 222.462 276.976 222.397C277.005 222.365 277.027 222.341 277.042 222.324L277.059 222.305L277.064 222.3L277.065 222.298L277.066 222.298C277.066 222.298 277.066 222.297 277.36 222.569C277.67 222.317 277.67 222.317 277.67 222.317L277.67 222.317L277.672 222.319L277.677 222.325L277.695 222.349C277.712 222.369 277.735 222.399 277.766 222.438C277.827 222.516 277.915 222.631 278.027 222.78C278.249 223.079 278.564 223.516 278.936 224.071C279.679 225.18 280.649 226.764 281.561 228.666C283.379 232.46 284.986 237.568 284.023 242.702C283.067 247.793 280.992 250.999 279.137 252.935C278.21 253.902 277.342 254.549 276.701 254.957C276.381 255.161 276.117 255.305 275.931 255.398C275.838 255.445 275.764 255.48 275.712 255.503C275.687 255.515 275.666 255.523 275.652 255.53L275.635 255.537L275.629 255.539L275.628 255.54L275.627 255.54C275.627 255.54 275.626 255.54 275.478 255.169ZM275.478 255.169L275.232 255.485C275.344 255.572 275.494 255.593 275.626 255.54L275.478 255.169ZM275.542 254.699C275.551 254.695 275.561 254.69 275.571 254.685C275.735 254.602 275.976 254.471 276.272 254.282C276.866 253.905 277.683 253.297 278.559 252.382C280.31 250.555 282.311 247.49 283.237 242.555C284.155 237.664 282.627 232.741 280.84 229.012C279.949 227.152 278.999 225.601 278.272 224.515C277.909 223.973 277.601 223.547 277.386 223.258C277.37 223.237 277.355 223.217 277.34 223.198C277.139 223.435 276.85 223.787 276.502 224.241C275.806 225.15 274.876 226.467 273.947 228.093C272.085 231.351 270.24 235.826 270.24 240.747C270.24 245.685 271.626 249.22 273.002 251.515C273.69 252.664 274.377 253.504 274.889 254.055C275.145 254.33 275.357 254.532 275.504 254.665C275.517 254.677 275.53 254.688 275.542 254.699Z" fill="#263238"/>
<path fill-rule="evenodd" clip-rule="evenodd" d="M276.956 231.797C277.176 231.811 277.343 232.001 277.329 232.221L275.893 254.366C275.879 254.586 275.689 254.753 275.469 254.739C275.248 254.725 275.081 254.535 275.096 254.314L276.531 232.17C276.546 231.949 276.736 231.782 276.956 231.797Z" fill="#263238"/>
<path fill-rule="evenodd" clip-rule="evenodd" d="M291.722 260.958C291.91 261.072 291.971 261.318 291.857 261.507C287.961 267.965 284.63 274.748 281.902 281.781C281.822 281.986 281.591 282.088 281.385 282.009C281.179 281.929 281.077 281.697 281.157 281.491C283.902 274.416 287.253 267.592 291.173 261.094C291.287 260.905 291.533 260.844 291.722 260.958Z" fill="#263238"/>
<path d="M288.563 266.63C288.563 266.63 285.432 260.197 289.861 251.218C294.29 242.238 304.641 238.239 304.641 238.239C304.641 238.239 307.52 250.837 301.396 259.005C295.272 267.173 288.563 266.63 288.563 266.63Z" fill="#50BFD7"/>
<path fill-rule="evenodd" clip-rule="evenodd" d="M305.029 238.151L304.639 238.24L304.495 237.868C304.603 237.826 304.724 237.833 304.827 237.888C304.929 237.942 305.003 238.038 305.029 238.151ZM288.562 266.631C288.202 266.806 288.202 266.806 288.202 266.806L288.201 266.803L288.199 266.798L288.191 266.781C288.184 266.766 288.174 266.746 288.162 266.719C288.138 266.665 288.105 266.587 288.065 266.485C287.984 266.282 287.875 265.985 287.759 265.601C287.528 264.835 287.269 263.722 287.152 262.326C286.917 259.53 287.252 255.603 289.501 251.042C291.758 246.466 295.515 243.174 298.686 241.031C300.275 239.958 301.723 239.169 302.775 238.648C303.301 238.387 303.729 238.193 304.026 238.063C304.175 237.999 304.291 237.95 304.37 237.918C304.41 237.901 304.441 237.889 304.462 237.881L304.486 237.871L304.492 237.869L304.494 237.868L304.495 237.868C304.495 237.868 304.495 237.868 304.639 238.24C305.029 238.151 305.029 238.151 305.029 238.151L305.029 238.155L305.031 238.162L305.038 238.192C305.043 238.217 305.051 238.254 305.061 238.303C305.081 238.4 305.11 238.542 305.144 238.725C305.212 239.091 305.301 239.622 305.389 240.284C305.566 241.607 305.736 243.456 305.713 245.565C305.667 249.771 304.85 255.063 301.714 259.246C298.604 263.394 295.332 265.346 292.818 266.258C291.563 266.712 290.501 266.906 289.748 266.986C289.371 267.026 289.072 267.037 288.864 267.038C288.76 267.039 288.679 267.037 288.623 267.035C288.595 267.034 288.573 267.032 288.557 267.031L288.538 267.03L288.533 267.03L288.531 267.03C288.53 267.03 288.529 267.03 288.562 266.631ZM288.562 266.631L288.202 266.806C288.264 266.933 288.389 267.018 288.529 267.03L288.562 266.631ZM288.827 266.239C288.838 266.239 288.849 266.239 288.86 266.239C289.043 266.238 289.315 266.228 289.664 266.191C290.36 266.117 291.358 265.937 292.545 265.506C294.916 264.647 298.06 262.787 301.075 258.767C304.063 254.781 304.868 249.691 304.914 245.556C304.936 243.494 304.77 241.684 304.597 240.389C304.511 239.742 304.424 239.225 304.358 238.871C304.353 238.845 304.349 238.82 304.344 238.797C304.058 238.921 303.643 239.11 303.13 239.364C302.103 239.873 300.687 240.644 299.134 241.694C296.023 243.795 292.39 246.992 290.218 251.396C288.039 255.814 287.724 259.594 287.948 262.259C288.06 263.593 288.307 264.65 288.524 265.37C288.633 265.73 288.734 266.006 288.807 266.19C288.814 266.207 288.821 266.223 288.827 266.239Z" fill="#263238"/>
<path fill-rule="evenodd" clip-rule="evenodd" d="M300.183 247.527C300.371 247.642 300.431 247.888 300.316 248.076L288.903 266.838C288.789 267.027 288.543 267.087 288.354 266.972C288.166 266.857 288.106 266.612 288.22 266.423L299.633 247.661C299.748 247.472 299.994 247.412 300.183 247.527Z" fill="#263238"/>
<path fill-rule="evenodd" clip-rule="evenodd" d="M262.062 260.066C262.253 259.955 262.498 260.02 262.609 260.211L267 267.777C269.897 272.968 272.22 278.459 273.929 284.153C273.992 284.364 273.873 284.587 273.661 284.651C273.45 284.714 273.227 284.594 273.164 284.383C271.471 278.746 269.171 273.309 266.304 268.169L261.917 260.612C261.807 260.421 261.871 260.177 262.062 260.066Z" fill="#263238"/>
<path d="M265.792 266.256C262.33 267.32 258.654 267.489 255.108 266.749C251.562 266.008 248.261 264.382 245.513 262.022C235.779 253.845 236.323 237.16 236.323 237.16C236.323 237.16 255.191 234.467 262.807 245.158C265.015 248.151 266.444 251.647 266.965 255.33C267.487 259.013 267.083 262.768 265.792 266.256Z" fill="#50BFD7"/>
<path fill-rule="evenodd" clip-rule="evenodd" d="M236.323 237.162C235.924 237.149 235.924 237.149 235.924 237.149L235.924 237.153L235.923 237.163L235.922 237.201C235.922 237.234 235.921 237.283 235.92 237.346C235.918 237.473 235.917 237.659 235.919 237.898C235.923 238.377 235.94 239.067 235.991 239.921C236.093 241.627 236.332 243.988 236.877 246.608C237.965 251.835 240.288 258.155 245.255 262.329C248.054 264.732 251.415 266.388 255.027 267.142C258.639 267.896 262.383 267.724 265.91 266.64L265.793 266.258L266.167 266.397C267.481 262.846 267.892 259.025 267.361 255.276C266.831 251.528 265.377 247.972 263.131 244.925C259.222 239.441 252.458 237.422 246.755 236.755C243.894 236.42 241.275 236.423 239.372 236.509C238.42 236.552 237.646 236.616 237.109 236.669C236.841 236.696 236.631 236.72 236.488 236.738C236.417 236.746 236.362 236.753 236.325 236.758L236.282 236.764L236.271 236.766L236.267 236.766C236.267 236.766 236.267 236.766 236.323 237.162ZM236.718 237.515C236.717 237.619 236.717 237.744 236.718 237.891C236.722 238.357 236.739 239.034 236.789 239.873C236.889 241.551 237.124 243.872 237.659 246.445C238.733 251.605 241.005 257.715 245.771 261.718L245.774 261.721C248.471 264.037 251.71 265.633 255.19 266.36C258.605 267.073 262.143 266.926 265.486 265.934C266.7 262.56 267.073 258.94 266.57 255.388C266.058 251.771 264.655 248.337 262.486 245.397L262.482 245.392C258.774 240.187 252.298 238.208 246.663 237.549C243.855 237.22 241.281 237.223 239.408 237.307C238.472 237.35 237.713 237.413 237.188 237.465C237 237.483 236.842 237.501 236.718 237.515ZM236.323 237.162L236.267 236.766C236.075 236.794 235.93 236.955 235.924 237.149L236.323 237.162Z" fill="#263238"/>
<path fill-rule="evenodd" clip-rule="evenodd" d="M243.151 242.665C243.31 242.512 243.563 242.517 243.716 242.677L266.08 265.981C266.233 266.141 266.228 266.394 266.068 266.546C265.909 266.699 265.656 266.694 265.503 266.535L243.14 243.23C242.987 243.071 242.992 242.818 243.151 242.665Z" fill="#263238"/>
<path d="M288.95 277.501H265.077V300.911H288.95V277.501Z" fill="#263238"/>
<path fill-rule="evenodd" clip-rule="evenodd" d="M264.679 277.498C264.679 277.278 264.858 277.099 265.078 277.099H288.951C289.172 277.099 289.351 277.278 289.351 277.498V300.908C289.351 301.129 289.172 301.308 288.951 301.308H265.078C264.858 301.308 264.679 301.129 264.679 300.908V277.498ZM265.478 277.898V300.509H288.551V277.898H265.478Z" fill="#263238"/>
<path opacity="0.3" d="M327.463 45.6113H158.361V194.819H327.463V45.6113Z" fill="black"/>
<path d="M331.708 37.9873H162.606V187.195H331.708V37.9873Z" fill="white"/>
<path fill-rule="evenodd" clip-rule="evenodd" d="M161.618 37.9876C161.618 37.4422 162.06 37 162.606 37H331.708C332.253 37 332.695 37.4422 332.695 37.9876V187.195C332.695 187.741 332.253 188.183 331.708 188.183H162.606C162.06 188.183 161.618 187.741 161.618 187.195V37.9876ZM163.593 38.9753V186.208H330.72V38.9753H163.593Z" fill="#263238"/>
<path d="M331.708 37.9873H162.606V48.6507H331.708V37.9873Z" fill="#263238"/>
<path fill-rule="evenodd" clip-rule="evenodd" d="M161.618 37.9876C161.618 37.4422 162.06 37 162.606 37H331.708C332.253 37 332.695 37.4422 332.695 37.9876V48.651C332.695 49.1965 332.253 49.6387 331.708 49.6387H162.606C162.06 49.6387 161.618 49.1965 161.618 48.651V37.9876ZM163.593 38.9753V47.6634H330.72V38.9753H163.593Z" fill="#263238"/>
<path d="M236.586 101.889V86.159C236.586 83.2993 237.722 80.5566 239.744 78.5345C241.767 76.5123 244.509 75.3763 247.369 75.3763C250.229 75.3763 252.971 76.5123 254.994 78.5345C257.016 80.5566 258.152 83.2993 258.152 86.159V95.3502H262.449V86.159C262.449 82.1596 260.86 78.3239 258.032 75.4959C255.204 72.6679 251.368 71.0791 247.369 71.0791C243.37 71.0791 239.534 72.6679 236.706 75.4959C233.878 78.3239 232.289 82.1596 232.289 86.159V101.889H236.586Z" fill="white"/>
<path d="M306.11 138.691H188.19C185.26 138.691 182.885 141.067 182.885 143.997V156.583C182.885 159.513 185.26 161.888 188.19 161.888H306.11C309.04 161.888 311.416 159.513 311.416 156.583V143.997C311.416 141.067 309.04 138.691 306.11 138.691Z" fill="white"/>
<path fill-rule="evenodd" clip-rule="evenodd" d="M188.189 139.681C185.805 139.681 183.872 141.614 183.872 143.999V156.585C183.872 158.97 185.805 160.903 188.189 160.903H306.11C308.494 160.903 310.427 158.97 310.427 156.585V143.999C310.427 141.614 308.494 139.681 306.11 139.681H188.189ZM181.896 143.999C181.896 140.523 184.714 137.706 188.189 137.706H306.11C309.585 137.706 312.403 140.523 312.403 143.999V156.585C312.403 160.061 309.585 162.878 306.11 162.878H188.189C184.714 162.878 181.896 160.061 181.896 156.585V143.999Z" fill="#263238"/>
<path d="M195.365 151.028C195.182 150.994 195.01 150.92 194.86 150.812C194.71 150.703 194.586 150.562 194.497 150.4C194.408 150.237 194.356 150.057 194.346 149.872C194.335 149.687 194.366 149.502 194.436 149.33L194.503 149.158C194.556 148.987 194.645 148.83 194.764 148.697C194.883 148.564 195.029 148.458 195.192 148.387C195.356 148.315 195.533 148.279 195.711 148.282C195.89 148.284 196.066 148.325 196.227 148.402C197.308 148.819 198.337 149.362 199.291 150.02C198.952 148.872 198.756 147.687 198.707 146.492C198.696 146.311 198.722 146.13 198.784 145.96C198.846 145.79 198.942 145.634 199.066 145.502C199.19 145.37 199.34 145.266 199.507 145.194C199.673 145.122 199.852 145.086 200.033 145.086H200.219C200.4 145.086 200.579 145.122 200.746 145.194C200.912 145.266 201.062 145.37 201.186 145.502C201.31 145.634 201.406 145.79 201.468 145.96C201.53 146.13 201.556 146.311 201.545 146.492C201.495 147.686 201.303 148.87 200.975 150.02C201.931 149.373 202.954 148.83 204.025 148.402C204.188 148.323 204.366 148.282 204.547 148.28C204.727 148.277 204.906 148.315 205.071 148.39C205.235 148.464 205.381 148.574 205.498 148.711C205.616 148.849 205.701 149.01 205.75 149.184V149.304C205.827 149.474 205.865 149.661 205.86 149.848C205.855 150.036 205.807 150.22 205.72 150.386C205.633 150.552 205.509 150.696 205.358 150.808C205.207 150.919 205.032 150.994 204.848 151.028C203.735 151.326 202.591 151.495 201.439 151.532C202.382 152.225 203.238 153.032 203.986 153.932C204.095 154.069 204.176 154.226 204.225 154.394C204.274 154.562 204.288 154.738 204.269 154.912C204.249 155.085 204.195 155.254 204.11 155.406C204.025 155.559 203.911 155.694 203.773 155.802L203.628 155.922C203.485 156.042 203.317 156.13 203.137 156.177C202.956 156.224 202.767 156.23 202.583 156.194C202.4 156.159 202.227 156.082 202.077 155.971C201.927 155.859 201.805 155.716 201.718 155.55C201.08 154.572 200.551 153.527 200.139 152.434C199.705 153.524 199.163 154.568 198.521 155.55C198.434 155.716 198.312 155.859 198.162 155.971C198.012 156.082 197.839 156.159 197.656 156.194C197.472 156.23 197.283 156.224 197.102 156.177C196.922 156.13 196.754 156.042 196.611 155.922L196.479 155.802C196.341 155.695 196.225 155.561 196.139 155.409C196.053 155.256 195.997 155.088 195.976 154.914C195.956 154.74 195.969 154.564 196.017 154.396C196.064 154.227 196.145 154.07 196.253 153.932C197.019 153.031 197.877 152.213 198.813 151.492C197.649 151.486 196.49 151.33 195.365 151.028Z" fill="#263238"/>
<path d="M208.812 151.028C208.63 150.994 208.457 150.92 208.307 150.812C208.157 150.703 208.033 150.562 207.944 150.4C207.855 150.237 207.803 150.057 207.793 149.872C207.783 149.687 207.814 149.502 207.884 149.33L207.95 149.158C208.003 148.987 208.092 148.83 208.211 148.697C208.33 148.564 208.476 148.458 208.64 148.387C208.803 148.315 208.98 148.279 209.159 148.282C209.337 148.284 209.513 148.325 209.674 148.402C210.756 148.819 211.784 149.362 212.738 150.02C212.399 148.872 212.203 147.687 212.154 146.492C212.143 146.311 212.17 146.13 212.231 145.96C212.293 145.79 212.389 145.634 212.513 145.502C212.638 145.37 212.788 145.266 212.954 145.194C213.12 145.122 213.3 145.086 213.481 145.086H213.587C213.768 145.086 213.947 145.122 214.113 145.194C214.28 145.266 214.43 145.37 214.554 145.502C214.678 145.634 214.774 145.79 214.836 145.96C214.898 146.13 214.924 146.311 214.913 146.492C214.862 147.686 214.671 148.87 214.343 150.02C215.299 149.373 216.321 148.83 217.393 148.402C217.558 148.336 217.735 148.304 217.913 148.308C218.09 148.312 218.266 148.352 218.428 148.425C218.59 148.498 218.735 148.603 218.856 148.733C218.977 148.864 219.07 149.017 219.131 149.184V149.304C219.208 149.474 219.246 149.661 219.241 149.848C219.236 150.036 219.188 150.22 219.101 150.386C219.014 150.552 218.89 150.696 218.739 150.808C218.588 150.919 218.413 150.994 218.229 151.028C217.116 151.326 215.972 151.495 214.82 151.532C215.763 152.225 216.619 153.032 217.367 153.932C217.476 154.069 217.557 154.226 217.606 154.394C217.655 154.562 217.669 154.738 217.65 154.912C217.63 155.085 217.576 155.254 217.491 155.406C217.406 155.559 217.292 155.694 217.154 155.802L217.009 155.922C216.867 156.042 216.7 156.13 216.521 156.177C216.341 156.224 216.153 156.23 215.971 156.194C215.788 156.159 215.616 156.082 215.468 155.971C215.319 155.859 215.197 155.715 215.112 155.55C214.464 154.576 213.93 153.53 213.52 152.434C213.086 153.524 212.544 154.568 211.902 155.55C211.815 155.716 211.693 155.859 211.543 155.971C211.393 156.082 211.22 156.159 211.037 156.194C210.853 156.23 210.664 156.224 210.483 156.177C210.303 156.13 210.135 156.042 209.992 155.922L209.86 155.802C209.722 155.695 209.606 155.561 209.52 155.409C209.434 155.256 209.378 155.088 209.357 154.914C209.336 154.74 209.35 154.564 209.398 154.396C209.445 154.227 209.526 154.07 209.634 153.932C210.4 153.031 211.258 152.213 212.194 151.492C211.052 151.48 209.915 151.324 208.812 151.028Z" fill="#263238"/>
<path d="M222.263 151.028C222.087 150.982 221.923 150.901 221.78 150.79C221.637 150.679 221.518 150.539 221.431 150.38C221.344 150.221 221.291 150.046 221.274 149.865C221.258 149.684 221.278 149.502 221.335 149.33V149.158C221.388 148.987 221.477 148.83 221.596 148.697C221.715 148.564 221.861 148.458 222.024 148.387C222.188 148.315 222.365 148.279 222.543 148.282C222.722 148.284 222.898 148.325 223.059 148.402C224.14 148.819 225.169 149.362 226.123 150.02C225.789 148.872 225.597 147.687 225.552 146.492C225.541 146.311 225.568 146.13 225.629 145.96C225.691 145.79 225.787 145.634 225.911 145.502C226.036 145.37 226.186 145.266 226.352 145.194C226.518 145.122 226.697 145.086 226.879 145.086H227.064C227.245 145.086 227.425 145.122 227.591 145.194C227.757 145.266 227.907 145.37 228.031 145.502C228.156 145.634 228.252 145.79 228.313 145.96C228.375 146.13 228.401 146.311 228.391 146.492C228.34 147.686 228.149 148.87 227.82 150.02C228.776 149.373 229.799 148.83 230.871 148.402C231.036 148.336 231.213 148.304 231.39 148.308C231.568 148.312 231.743 148.352 231.905 148.425C232.067 148.498 232.213 148.603 232.334 148.733C232.454 148.864 232.548 149.017 232.608 149.184V149.304C232.686 149.473 232.724 149.659 232.72 149.845C232.715 150.032 232.668 150.216 232.583 150.382C232.497 150.548 232.375 150.692 232.226 150.804C232.076 150.916 231.903 150.992 231.72 151.028C230.602 151.324 229.454 151.494 228.298 151.532C229.241 152.225 230.096 153.032 230.844 153.932C230.954 154.069 231.035 154.226 231.084 154.394C231.132 154.562 231.147 154.738 231.127 154.912C231.108 155.085 231.054 155.254 230.969 155.406C230.884 155.559 230.769 155.694 230.632 155.802L230.486 155.922C230.345 156.042 230.178 156.13 229.998 156.177C229.819 156.224 229.63 156.23 229.448 156.194C229.266 156.159 229.094 156.082 228.945 155.971C228.796 155.859 228.675 155.715 228.589 155.55C227.947 154.573 227.413 153.527 226.998 152.434C226.564 153.524 226.022 154.568 225.38 155.55C225.294 155.715 225.173 155.859 225.024 155.971C224.876 156.082 224.704 156.159 224.521 156.194C224.339 156.23 224.151 156.224 223.971 156.177C223.791 156.13 223.625 156.042 223.483 155.922L223.337 155.802C223.199 155.695 223.084 155.561 222.997 155.409C222.911 155.256 222.856 155.088 222.835 154.914C222.814 154.74 222.828 154.564 222.875 154.396C222.923 154.227 223.003 154.07 223.112 153.932C223.877 153.031 224.735 152.213 225.672 151.492C224.52 151.482 223.375 151.326 222.263 151.028Z" fill="#263238"/>
<path d="M235.71 151.028C235.535 150.982 235.37 150.901 235.227 150.79C235.084 150.679 234.965 150.539 234.878 150.38C234.791 150.221 234.738 150.046 234.721 149.865C234.705 149.684 234.725 149.502 234.782 149.33V149.158C234.835 148.987 234.924 148.83 235.043 148.697C235.162 148.564 235.308 148.458 235.472 148.387C235.635 148.315 235.812 148.279 235.991 148.282C236.169 148.284 236.345 148.325 236.506 148.402C237.587 148.819 238.616 149.362 239.57 150.02C239.242 148.87 239.05 147.686 239 146.492C238.989 146.311 239.015 146.13 239.077 145.96C239.138 145.79 239.234 145.634 239.359 145.502C239.483 145.37 239.633 145.266 239.799 145.194C239.966 145.122 240.145 145.086 240.326 145.086H240.511C240.693 145.086 240.872 145.122 241.038 145.194C241.204 145.266 241.354 145.37 241.479 145.502C241.603 145.634 241.699 145.79 241.761 145.96C241.822 146.13 241.849 146.311 241.838 146.492C241.787 147.686 241.596 148.87 241.267 150.02C242.223 149.373 243.246 148.83 244.318 148.402C244.483 148.336 244.66 148.304 244.838 148.308C245.015 148.312 245.19 148.352 245.352 148.425C245.515 148.498 245.66 148.603 245.781 148.733C245.902 148.864 245.995 149.017 246.055 149.184V149.304C246.133 149.473 246.171 149.659 246.167 149.845C246.162 150.032 246.116 150.216 246.03 150.382C245.944 150.548 245.822 150.692 245.673 150.804C245.523 150.916 245.35 150.992 245.167 151.028C244.049 151.324 242.901 151.494 241.745 151.532C242.688 152.225 243.543 153.032 244.291 153.932C244.401 154.069 244.482 154.226 244.531 154.394C244.579 154.562 244.594 154.738 244.574 154.912C244.555 155.085 244.501 155.254 244.416 155.406C244.331 155.559 244.216 155.694 244.079 155.802L243.933 155.922C243.792 156.042 243.625 156.13 243.446 156.177C243.266 156.224 243.078 156.23 242.895 156.194C242.713 156.159 242.541 156.082 242.392 155.971C242.244 155.859 242.122 155.715 242.037 155.55C241.394 154.573 240.86 153.527 240.445 152.434C239.999 153.525 239.443 154.57 238.787 155.55C238.702 155.715 238.58 155.859 238.432 155.971C238.283 156.082 238.111 156.159 237.929 156.194C237.746 156.23 237.558 156.224 237.379 156.177C237.199 156.13 237.032 156.042 236.891 155.922L236.745 155.802C236.607 155.695 236.491 155.561 236.405 155.409C236.319 155.256 236.263 155.088 236.242 154.914C236.222 154.74 236.235 154.564 236.283 154.396C236.33 154.227 236.411 154.07 236.519 153.932C237.285 153.031 238.143 152.213 239.079 151.492C237.941 151.479 236.809 151.323 235.71 151.028Z" fill="#263238"/>
<path d="M249.159 151.028C248.983 150.982 248.819 150.901 248.676 150.79C248.532 150.679 248.414 150.539 248.327 150.38C248.24 150.221 248.186 150.046 248.17 149.865C248.153 149.684 248.174 149.502 248.23 149.33L248.297 149.158C248.359 148.993 248.455 148.842 248.577 148.715C248.698 148.587 248.845 148.485 249.006 148.415C249.168 148.344 249.342 148.307 249.519 148.305C249.695 148.302 249.87 148.335 250.034 148.402C251.11 148.822 252.133 149.365 253.084 150.02C252.756 148.87 252.565 147.686 252.514 146.492C252.503 146.311 252.529 146.13 252.591 145.96C252.653 145.79 252.749 145.634 252.873 145.502C252.998 145.37 253.147 145.266 253.314 145.194C253.48 145.122 253.659 145.086 253.84 145.086H254.026C254.207 145.086 254.386 145.122 254.553 145.194C254.719 145.266 254.869 145.37 254.993 145.502C255.117 145.634 255.213 145.79 255.275 145.96C255.337 146.13 255.363 146.311 255.352 146.492C255.302 147.686 255.11 148.87 254.782 150.02C255.738 149.373 256.761 148.83 257.833 148.402C257.998 148.336 258.174 148.304 258.352 148.308C258.53 148.312 258.705 148.352 258.867 148.425C259.029 148.498 259.175 148.603 259.296 148.733C259.416 148.864 259.51 149.017 259.57 149.184V149.304C259.648 149.473 259.686 149.659 259.681 149.845C259.677 150.032 259.63 150.216 259.545 150.382C259.459 150.548 259.337 150.692 259.187 150.804C259.038 150.916 258.865 150.992 258.681 151.028C257.563 151.324 256.416 151.494 255.26 151.532C256.203 152.225 257.058 153.032 257.806 153.932C257.915 154.069 257.997 154.226 258.045 154.394C258.094 154.562 258.109 154.738 258.089 154.912C258.069 155.085 258.015 155.254 257.93 155.406C257.845 155.559 257.731 155.694 257.594 155.802L257.448 155.922C257.307 156.042 257.14 156.13 256.96 156.177C256.78 156.224 256.592 156.23 256.41 156.194C256.228 156.159 256.056 156.082 255.907 155.971C255.758 155.859 255.637 155.715 255.551 155.55C254.909 154.573 254.375 153.527 253.96 152.434C253.526 153.524 252.984 154.568 252.342 155.55C252.256 155.715 252.135 155.859 251.986 155.971C251.837 156.082 251.665 156.159 251.483 156.194C251.301 156.23 251.113 156.224 250.933 156.177C250.753 156.13 250.586 156.042 250.445 155.922L250.299 155.802C250.152 155.701 250.029 155.57 249.937 155.417C249.845 155.264 249.787 155.093 249.767 154.916C249.747 154.738 249.765 154.559 249.82 154.389C249.875 154.22 249.966 154.064 250.087 153.932C250.844 153.028 251.698 152.21 252.633 151.492C251.46 151.488 250.292 151.332 249.159 151.028Z" fill="#263238"/>
<path d="M262.66 151.028C262.484 150.982 262.32 150.901 262.176 150.79C262.033 150.679 261.915 150.539 261.828 150.38C261.741 150.221 261.687 150.046 261.671 149.865C261.654 149.684 261.675 149.502 261.731 149.33L261.797 149.158C261.86 148.993 261.956 148.842 262.078 148.715C262.199 148.587 262.346 148.485 262.507 148.415C262.669 148.344 262.843 148.307 263.02 148.305C263.196 148.302 263.371 148.335 263.535 148.402C264.611 148.822 265.634 149.365 266.585 150.02C266.257 148.87 266.066 147.686 266.015 146.492C266.004 146.311 266.03 146.13 266.092 145.96C266.154 145.79 266.25 145.634 266.374 145.502C266.498 145.37 266.648 145.266 266.815 145.194C266.981 145.122 267.16 145.086 267.341 145.086H267.527C267.708 145.086 267.887 145.122 268.054 145.194C268.22 145.266 268.37 145.37 268.494 145.502C268.618 145.634 268.714 145.79 268.776 145.96C268.838 146.13 268.864 146.311 268.853 146.492C268.803 147.686 268.611 148.87 268.283 150.02C269.242 149.37 270.269 148.827 271.347 148.402C271.51 148.326 271.687 148.286 271.867 148.285C272.047 148.284 272.225 148.322 272.389 148.396C272.553 148.471 272.698 148.58 272.816 148.716C272.934 148.852 273.021 149.011 273.071 149.184V149.304C273.149 149.473 273.187 149.659 273.182 149.845C273.178 150.032 273.131 150.216 273.046 150.382C272.96 150.548 272.838 150.692 272.688 150.804C272.539 150.916 272.366 150.992 272.182 151.028C271.065 151.325 269.917 151.495 268.76 151.532C269.705 152.229 270.564 153.035 271.32 153.932C271.429 154.07 271.509 154.227 271.557 154.396C271.604 154.564 271.618 154.74 271.597 154.914C271.576 155.088 271.521 155.256 271.435 155.409C271.349 155.561 271.233 155.695 271.095 155.802L270.949 155.922C270.808 156.042 270.641 156.13 270.461 156.177C270.281 156.224 270.093 156.23 269.911 156.194C269.728 156.159 269.557 156.082 269.408 155.971C269.259 155.859 269.138 155.715 269.052 155.55C268.41 154.573 267.876 153.527 267.461 152.434C267.027 153.524 266.485 154.568 265.843 155.55C265.757 155.715 265.636 155.859 265.487 155.971C265.338 156.082 265.166 156.159 264.984 156.194C264.802 156.23 264.614 156.224 264.434 156.177C264.254 156.13 264.087 156.042 263.946 155.922L263.8 155.802C263.653 155.701 263.53 155.57 263.438 155.417C263.346 155.264 263.288 155.093 263.268 154.916C263.248 154.738 263.266 154.559 263.321 154.389C263.376 154.22 263.467 154.064 263.588 153.932C264.345 153.028 265.199 152.21 266.134 151.492C264.961 151.488 263.793 151.332 262.66 151.028Z" fill="#263238"/>
<path d="M276.07 151.028C275.893 150.984 275.728 150.904 275.583 150.793C275.439 150.682 275.318 150.543 275.23 150.384C275.142 150.225 275.087 150.049 275.07 149.868C275.052 149.686 275.072 149.503 275.129 149.33L275.195 149.158C275.258 148.993 275.353 148.842 275.475 148.715C275.597 148.587 275.743 148.485 275.905 148.415C276.067 148.344 276.241 148.307 276.417 148.305C276.594 148.302 276.769 148.335 276.932 148.402C278.008 148.822 279.032 149.365 279.983 150.02C279.655 148.87 279.463 147.686 279.413 146.492C279.402 146.311 279.428 146.13 279.49 145.96C279.551 145.79 279.647 145.634 279.772 145.502C279.896 145.37 280.046 145.266 280.212 145.194C280.379 145.122 280.558 145.086 280.739 145.086H280.924C281.106 145.086 281.285 145.122 281.451 145.194C281.617 145.266 281.767 145.37 281.892 145.502C282.016 145.634 282.112 145.79 282.174 145.96C282.235 146.13 282.262 146.311 282.251 146.492C282.202 147.687 282.006 148.872 281.667 150.02C282.626 149.37 283.653 148.827 284.731 148.402C284.894 148.326 285.072 148.286 285.251 148.285C285.431 148.284 285.609 148.322 285.773 148.396C285.937 148.471 286.083 148.58 286.2 148.716C286.318 148.852 286.405 149.011 286.455 149.184V149.304C286.533 149.474 286.57 149.661 286.565 149.848C286.56 150.036 286.512 150.22 286.425 150.386C286.338 150.552 286.215 150.696 286.063 150.808C285.912 150.919 285.738 150.994 285.553 151.028C284.436 151.325 283.287 151.495 282.131 151.532C283.076 152.229 283.935 153.035 284.691 153.932C284.8 154.07 284.88 154.227 284.928 154.396C284.975 154.564 284.989 154.74 284.968 154.914C284.947 155.088 284.892 155.256 284.806 155.409C284.719 155.561 284.604 155.695 284.466 155.802L284.333 155.922C284.191 156.042 284.023 156.13 283.842 156.177C283.661 156.224 283.472 156.23 283.289 156.194C283.106 156.159 282.933 156.082 282.783 155.971C282.633 155.859 282.51 155.716 282.423 155.55C281.78 154.575 281.251 153.529 280.845 152.434C280.407 153.525 279.86 154.569 279.214 155.55C279.128 155.715 279.007 155.859 278.858 155.971C278.709 156.082 278.537 156.159 278.355 156.194C278.173 156.23 277.985 156.224 277.805 156.177C277.625 156.13 277.458 156.042 277.317 155.922L277.171 155.802C277.024 155.701 276.9 155.57 276.809 155.417C276.717 155.264 276.659 155.093 276.639 154.916C276.619 154.738 276.637 154.559 276.692 154.389C276.747 154.22 276.838 154.064 276.959 153.932C277.716 153.028 278.57 152.21 279.505 151.492C278.345 151.487 277.19 151.331 276.07 151.028Z" fill="#263238"/>
<path d="M289.518 151.028C289.341 150.984 289.175 150.904 289.03 150.793C288.886 150.682 288.766 150.543 288.677 150.384C288.589 150.225 288.534 150.049 288.517 149.868C288.499 149.686 288.519 149.503 288.576 149.33V149.158C288.639 148.993 288.734 148.842 288.856 148.715C288.978 148.587 289.124 148.485 289.286 148.415C289.448 148.344 289.622 148.307 289.798 148.305C289.975 148.302 290.15 148.335 290.313 148.402C291.389 148.822 292.413 149.365 293.364 150.02C293.035 148.87 292.844 147.686 292.793 146.492C292.783 146.311 292.809 146.13 292.871 145.96C292.932 145.79 293.028 145.634 293.153 145.502C293.277 145.37 293.427 145.266 293.593 145.194C293.759 145.122 293.939 145.086 294.12 145.086H294.305C294.486 145.086 294.666 145.122 294.832 145.194C294.998 145.266 295.148 145.37 295.273 145.502C295.397 145.634 295.493 145.79 295.555 145.96C295.616 146.13 295.643 146.311 295.632 146.492C295.583 147.687 295.387 148.872 295.048 150.02C296.007 149.37 297.034 148.827 298.112 148.402C298.275 148.326 298.452 148.286 298.632 148.285C298.812 148.284 298.99 148.322 299.154 148.396C299.318 148.471 299.464 148.58 299.581 148.716C299.699 148.852 299.786 149.011 299.836 149.184V149.304C299.914 149.474 299.951 149.661 299.946 149.848C299.941 150.036 299.893 150.22 299.806 150.386C299.719 150.552 299.596 150.696 299.444 150.808C299.293 150.919 299.119 150.994 298.934 151.028C297.816 151.325 296.668 151.495 295.512 151.532C296.457 152.229 297.316 153.035 298.072 153.932C298.181 154.07 298.261 154.227 298.309 154.396C298.356 154.564 298.37 154.74 298.349 154.914C298.328 155.088 298.273 155.256 298.187 155.409C298.1 155.561 297.985 155.695 297.847 155.802L297.701 155.922C297.559 156.042 297.393 156.13 297.213 156.177C297.033 156.224 296.845 156.23 296.663 156.194C296.48 156.159 296.308 156.082 296.16 155.971C296.011 155.859 295.889 155.715 295.804 155.55C295.161 154.575 294.632 153.529 294.226 152.434C293.788 153.525 293.241 154.569 292.595 155.55C292.509 155.715 292.388 155.859 292.239 155.971C292.09 156.082 291.918 156.159 291.736 156.194C291.554 156.23 291.365 156.224 291.186 156.177C291.006 156.13 290.839 156.042 290.698 155.922L290.552 155.802C290.405 155.701 290.281 155.57 290.19 155.417C290.098 155.264 290.04 155.093 290.02 154.916C290 154.738 290.018 154.559 290.073 154.389C290.128 154.22 290.219 154.064 290.34 153.932C291.097 153.028 291.951 152.21 292.886 151.492C291.748 151.481 290.616 151.325 289.518 151.028Z" fill="#263238"/>
<path d="M169.868 282.133C160.763 281.3 151.771 280.96 151.771 280.96C148.467 281.061 141.429 281.351 134.165 282.133C136.284 289.372 143.472 294.707 152.01 294.707C160.561 294.719 167.75 289.359 169.868 282.133Z" fill="#50BFD7"/>
<path d="M159.479 295.289C159.479 295.604 159.756 295.97 160.084 295.932C163.805 295.541 166.655 292.666 170.325 293.271C166.642 295.1 163.451 298.278 163.905 302.957C163.956 303.537 164.511 303.764 164.94 303.411C167.575 301.166 170.602 299.161 174.133 299.905C175.647 300.22 177.425 300.813 178.989 300.611C181.322 300.321 183.289 299.261 184.45 297.004C186.493 293.094 185.736 288.403 181.158 287.432C181.044 287.407 180.956 287.419 180.855 287.457C179.165 286.789 177.627 285.944 176.265 284.468C174.953 283.03 173.73 281.441 172.305 280.117C170.4 278.339 168.332 276.939 165.81 278.137C165.431 278.314 165.457 278.856 165.696 279.146C166.806 280.521 168.105 281.832 169.467 283.093C168.105 282.778 166.73 282.614 165.318 282.728C162.796 282.942 159.819 284.619 159.882 287.621C159.895 287.999 160.16 288.226 160.488 288.264C162.808 288.504 165.141 288.466 167.449 288.706C163.855 289.765 159.441 290.976 159.479 295.289Z" fill="#C4C4C4"/>
<path fill-rule="evenodd" clip-rule="evenodd" d="M169.473 277.54C170.635 277.999 171.685 278.849 172.647 279.747C173.611 280.642 174.501 281.676 175.365 282.678C175.793 283.175 176.214 283.664 176.635 284.126C177.888 285.482 179.301 286.284 180.887 286.926C181.002 286.907 181.126 286.907 181.263 286.937C183.734 287.462 185.214 289.014 185.771 290.977C186.319 292.91 185.962 295.193 184.896 297.235C183.643 299.671 181.51 300.804 179.051 301.11C178.189 301.221 177.291 301.111 176.444 300.945C176.018 300.862 175.596 300.762 175.192 300.666C175.149 300.655 175.106 300.645 175.064 300.635C174.703 300.548 174.359 300.466 174.029 300.397L174.028 300.397C170.754 299.707 167.899 301.55 165.265 303.793L165.262 303.796L165.259 303.799C164.916 304.081 164.472 304.164 164.08 303.996C163.689 303.828 163.442 303.45 163.402 303.002C162.991 298.759 165.407 295.713 168.455 293.749C167.44 293.887 166.453 294.254 165.418 294.691C165.188 294.788 164.956 294.889 164.72 294.992C163.32 295.6 161.81 296.256 160.138 296.432C159.761 296.474 159.459 296.281 159.277 296.074C159.097 295.867 158.974 295.583 158.973 295.29C158.953 292.914 160.179 291.389 161.832 290.349C162.703 289.8 163.708 289.377 164.726 289.022C164.468 289.01 164.21 288.999 163.95 288.987L163.939 288.987C162.783 288.937 161.609 288.886 160.434 288.765L160.431 288.764L160.428 288.764C159.889 288.702 159.399 288.3 159.377 287.636L159.377 287.633L159.377 287.63C159.341 285.938 160.17 284.628 161.319 283.73C162.458 282.841 163.929 282.338 165.274 282.224L165.275 282.224L165.276 282.223C166.167 282.152 167.04 282.186 167.899 282.295C166.973 281.384 166.093 280.441 165.304 279.463C165.101 279.216 164.998 278.883 165.016 278.569C165.035 278.243 165.194 277.867 165.593 277.679C166.991 277.016 168.285 277.071 169.473 277.54ZM166.03 278.589C166.028 278.596 166.025 278.608 166.024 278.626C166.022 278.657 166.026 278.696 166.039 278.736C166.052 278.776 166.069 278.806 166.084 278.823L166.086 278.826L166.087 278.828C167.176 280.176 168.456 281.469 169.808 282.722L171.201 284.012L169.352 283.583C168.025 283.276 166.705 283.121 165.358 283.229C164.181 283.329 162.903 283.773 161.94 284.525C160.987 285.27 160.359 286.298 160.385 287.605C160.388 287.672 160.409 287.699 160.422 287.712C160.44 287.73 160.477 287.753 160.542 287.761C161.683 287.879 162.831 287.929 163.994 287.979L163.998 287.98C165.156 288.03 166.33 288.081 167.5 288.202L170.04 288.466L167.59 289.188C167.528 289.207 167.465 289.225 167.402 289.244C165.639 289.763 163.795 290.306 162.369 291.203C160.926 292.111 159.965 293.347 159.982 295.283L159.982 295.285V295.287C159.982 295.294 159.984 295.312 159.994 295.339C160.005 295.366 160.02 295.39 160.037 295.409C160.043 295.417 160.049 295.422 160.054 295.426C161.551 295.264 162.895 294.682 164.294 294.076C164.536 293.971 164.779 293.866 165.025 293.762C166.67 293.066 168.417 292.444 170.405 292.772L171.948 293.026L170.548 293.721C166.944 295.511 163.982 298.535 164.406 302.906L164.406 302.909L164.407 302.911C164.412 302.979 164.431 303.018 164.444 303.038C164.458 303.058 164.47 303.065 164.478 303.069C164.486 303.072 164.498 303.075 164.518 303.072C164.537 303.068 164.571 303.057 164.615 303.022C167.252 300.777 170.449 298.612 174.235 299.409C174.581 299.482 174.941 299.568 175.299 299.654C175.341 299.664 175.384 299.674 175.427 299.684C175.831 299.781 176.234 299.876 176.638 299.955C177.448 300.114 178.221 300.2 178.923 300.109L178.924 300.109L178.925 300.109C181.131 299.835 182.932 298.849 184 296.772L184 296.77L184.001 296.769C184.977 294.901 185.263 292.884 184.8 291.252C184.345 289.65 183.158 288.371 181.052 287.924L181.05 287.923L181.047 287.923C181.047 287.923 181.047 287.923 181.046 287.923C181.043 287.924 181.038 287.925 181.031 287.928L180.849 287.996L180.668 287.925C178.937 287.24 177.324 286.359 175.893 284.809L175.892 284.808L175.891 284.807C175.427 284.298 174.985 283.785 174.547 283.276C173.708 282.301 172.885 281.345 171.96 280.485L171.959 280.484C171.016 279.604 170.081 278.865 169.102 278.479C168.151 278.103 167.151 278.058 166.03 278.589Z" fill="#2C2C2C"/>
<path fill-rule="evenodd" clip-rule="evenodd" d="M303.362 301.21C303.362 300.957 303.567 300.753 303.819 300.753H318.867C319.119 300.753 319.324 300.957 319.324 301.21C319.324 301.462 319.119 301.666 318.867 301.666H303.819C303.567 301.666 303.362 301.462 303.362 301.21Z" fill="#2C2C2C"/>
<path fill-rule="evenodd" clip-rule="evenodd" d="M19.5986 301.21C19.5986 300.957 19.8031 300.753 20.0553 300.753H298.804C299.056 300.753 299.26 300.957 299.26 301.21C299.26 301.462 299.056 301.666 298.804 301.666H20.0553C19.8031 301.666 19.5986 301.462 19.5986 301.21Z" fill="#2C2C2C"/>
<path fill-rule="evenodd" clip-rule="evenodd" d="M0 301.21C0 300.957 0.204459 300.753 0.456671 300.753H10.7395C10.9918 300.753 11.1962 300.957 11.1962 301.21C11.1962 301.462 10.9918 301.666 10.7395 301.666H0.456671C0.204459 301.666 0 301.462 0 301.21Z" fill="#2C2C2C"/>
<path d="M97.1712 251.881H206.264C207.569 251.881 208.821 252.399 209.744 253.322C210.667 254.245 211.185 255.497 211.185 256.802V318.09H92.25V256.802C92.25 255.497 92.7685 254.245 93.6914 253.322C94.6143 252.399 95.866 251.881 97.1712 251.881Z" fill="white"/>
<path fill-rule="evenodd" clip-rule="evenodd" d="M97.1705 252.506C96.0317 252.506 94.9395 252.959 94.1342 253.764C93.329 254.569 92.8766 255.662 92.8766 256.8V317.462H210.557V256.8C210.557 255.662 210.105 254.569 209.3 253.764C208.494 252.959 207.402 252.506 206.263 252.506H97.1705ZM93.2472 252.877C94.2877 251.837 95.699 251.252 97.1705 251.252H206.263C207.735 251.252 209.146 251.837 210.187 252.877C211.227 253.918 211.812 255.329 211.812 256.8V318.089C211.812 318.435 211.531 318.716 211.184 318.716H92.2493C91.9029 318.716 91.6221 318.435 91.6221 318.089V256.8C91.6221 255.329 92.2066 253.918 93.2472 252.877Z" fill="#2C2C2C"/>
<path d="M211.185 273.906C196.244 277.696 180.91 287.341 152.338 300.924C124.779 314.034 102.22 313.807 92.25 312.793V318.089H211.185V273.906Z" fill="#2C2C2C"/>
<path fill-rule="evenodd" clip-rule="evenodd" d="M211.57 273.412C211.722 273.531 211.812 273.714 211.812 273.908V318.09C211.812 318.436 211.531 318.717 211.184 318.717H92.2493C91.9029 318.717 91.6221 318.436 91.6221 318.09V312.795C91.6221 312.617 91.6972 312.448 91.8288 312.329C91.9604 312.21 92.1363 312.153 92.3128 312.171C102.198 313.176 124.636 313.408 152.068 300.358L152.068 300.358C161.478 295.885 169.441 291.844 176.437 288.294C180.06 286.456 183.423 284.749 186.595 283.181C195.872 278.596 203.491 275.212 211.03 273.3C211.218 273.252 211.417 273.294 211.57 273.412ZM152.606 301.491C125.538 314.368 103.255 314.444 92.8766 313.486V317.463H210.557V274.719C203.406 276.629 196.092 279.887 187.15 284.306C184 285.863 180.647 287.565 177.029 289.4C170.024 292.955 162.029 297.012 152.606 301.491Z" fill="#2C2C2C"/>
<path fill-rule="evenodd" clip-rule="evenodd" d="M91.6221 314.418C91.6221 314.072 91.9029 313.791 92.2493 313.791H211.184C211.531 313.791 211.812 314.072 211.812 314.418V318.099C211.812 318.446 211.531 318.727 211.184 318.727H92.2493C91.9029 318.727 91.6221 318.446 91.6221 318.099V314.418ZM92.8766 315.046V317.472H210.557V315.046H92.8766Z" fill="#2C2C2C"/>
<path d="M158.055 184.85C158.055 187.514 155.287 189.674 151.874 189.674C148.461 189.674 145.693 187.514 145.693 184.85C145.693 182.186 148.461 180.026 151.874 180.026C155.287 180.026 158.055 182.186 158.055 184.85Z" fill="white"/>
<path fill-rule="evenodd" clip-rule="evenodd" d="M151.874 188.468C154.917 188.468 156.849 186.587 156.849 184.85C156.849 183.113 154.917 181.232 151.874 181.232C148.831 181.232 146.899 183.113 146.899 184.85C146.899 186.587 148.831 188.468 151.874 188.468ZM151.874 189.674C155.287 189.674 158.055 187.514 158.055 184.85C158.055 182.186 155.287 180.026 151.874 180.026C148.461 180.026 145.693 182.186 145.693 184.85C145.693 187.514 148.461 189.674 151.874 189.674Z" fill="#454545"/>
<path d="M211.918 315.156H90.2168V318.923H211.918V315.156Z" fill="white"/>
<path fill-rule="evenodd" clip-rule="evenodd" d="M89.5752 315.157C89.5752 314.803 89.8626 314.516 90.217 314.516H211.918C212.272 314.516 212.56 314.803 212.56 315.157V318.924C212.56 319.279 212.272 319.566 211.918 319.566H90.217C89.8626 319.566 89.5752 319.279 89.5752 318.924V315.157ZM90.8589 315.799V318.282H211.276V315.799H90.8589Z" fill="#2C2C2C"/>
<path opacity="0.15" d="M135.237 184.84C133.963 184.056 132.784 183.238 131.656 182.421C132.147 181.56 134.333 177.849 134.574 175.775C134.816 173.7 134.574 171.195 133.016 169.749C132.668 169.393 132.248 169.115 131.785 168.932C131.322 168.749 130.825 168.666 130.328 168.687C129.83 168.708 129.343 168.833 128.897 169.055C128.451 169.276 128.057 169.589 127.739 169.973C125.897 172.34 127.507 177.496 129.013 179.709C129.091 179.829 130.064 180.966 130.735 181.775C130.227 181.396 129.702 181.017 129.229 180.647C127.438 179.253 125.888 177.867 124.528 176.627C123.753 175.921 123.073 175.258 122.445 174.638C122.505 173.588 122.695 169.353 121.971 167.433C121.248 165.513 119.837 163.387 117.805 162.793C117.335 162.636 116.837 162.58 116.344 162.628C115.851 162.675 115.374 162.825 114.942 163.069C114.511 163.312 114.135 163.643 113.839 164.04C113.544 164.438 113.334 164.892 113.225 165.376C112.683 168.32 116.488 172.159 118.838 173.433C119.045 173.545 122.419 174.888 122.428 174.836V174.776C123.03 175.387 123.676 176.033 124.39 176.73C125.733 177.996 127.257 179.416 129.022 180.854C130.904 182.429 132.879 183.889 134.936 185.227L136.227 186.028H137.286C136.615 185.657 135.909 185.253 135.237 184.84Z" fill="black"/>
<path opacity="0.15" d="M131.088 182.498C131.088 182.455 127.644 181.275 127.446 181.232C124.864 180.664 119.449 181.103 117.977 183.694C117.566 184.408 117.437 185.249 117.615 186.053H128.101C129.167 184.929 130.164 183.741 131.088 182.498Z" fill="black"/>
<path opacity="0.15" d="M159.116 185.235C159.116 183.238 158.583 180.69 156.904 179.399C156.519 179.084 156.071 178.854 155.591 178.724C155.111 178.593 154.609 178.564 154.118 178.64C153.626 178.715 153.156 178.893 152.737 179.162C152.318 179.43 151.961 179.784 151.687 180.199C150.775 181.689 151.128 183.987 151.928 186.053H159.039C159.084 185.783 159.11 185.509 159.116 185.235Z" fill="black"/>
<path opacity="0.15" d="M152.145 148.13C154.478 148.328 159.428 146.529 159.428 146.529C159.428 146.529 157.25 143.628 157.095 143.464C155.227 141.545 150.492 138.936 147.806 140.271C147.36 140.503 146.969 140.828 146.658 141.224C146.347 141.62 146.124 142.077 146.004 142.566C145.883 143.054 145.868 143.563 145.959 144.058C146.05 144.552 146.246 145.022 146.532 145.436C147.66 147.183 150.148 147.958 152.145 148.13Z" fill="black"/>
<path opacity="0.15" d="M172.108 182.573C171.723 182.257 171.276 182.026 170.796 181.895C170.316 181.763 169.813 181.734 169.321 181.81C168.829 181.885 168.358 182.063 167.94 182.333C167.521 182.602 167.164 182.957 166.891 183.373C166.448 184.192 166.268 185.126 166.375 186.051H174.079C173.847 184.697 173.15 183.467 172.108 182.573Z" fill="black"/>
<path opacity="0.15" d="M145.267 181.635C145.267 179.638 144.733 177.09 143.054 175.807C142.67 175.49 142.223 175.258 141.742 175.126C141.262 174.994 140.759 174.964 140.267 175.04C139.774 175.116 139.303 175.294 138.884 175.564C138.466 175.835 138.109 176.19 137.837 176.608C136.288 179.122 138.371 183.968 140.101 186.077H144.139C144.739 184.663 145.119 183.165 145.267 181.635Z" fill="black"/>
<path d="M164.662 113.345V105.907H166.504C166.876 105.888 167.245 105.971 167.572 106.148C167.841 106.311 168.047 106.559 168.157 106.854C168.287 107.209 168.348 107.586 168.338 107.964C168.346 108.314 168.276 108.662 168.131 108.98C168.002 109.26 167.788 109.492 167.52 109.643C167.213 109.816 166.865 109.899 166.513 109.884H165.652V113.328L164.662 113.345ZM165.695 109.135H166.169C166.41 109.142 166.652 109.111 166.883 109.041C167.046 108.975 167.175 108.848 167.245 108.688C167.33 108.459 167.368 108.216 167.357 107.973C167.365 107.698 167.339 107.424 167.279 107.155C167.258 107.069 167.218 106.988 167.161 106.919C167.105 106.851 167.033 106.796 166.952 106.759C166.706 106.674 166.446 106.636 166.186 106.647H165.695V109.135Z" fill="#CCCCCC"/>
<path d="M168.337 113.344L169.912 105.906H170.911L172.503 113.344H171.548L171.204 111.467H169.688L169.336 113.344H168.337ZM169.8 110.762H171.04L170.42 107.413L169.8 110.762Z" fill="#CCCCCC"/>
<path d="M174.992 113.421C174.617 113.434 174.246 113.338 173.924 113.145C173.639 112.962 173.415 112.698 173.279 112.388C173.121 112.029 173.033 111.643 173.021 111.251L173.933 111.01C173.949 111.267 173.993 111.521 174.062 111.768C174.11 111.993 174.217 112.201 174.372 112.371C174.544 112.517 174.762 112.598 174.988 112.598C175.213 112.598 175.432 112.517 175.603 112.371C175.752 112.19 175.826 111.959 175.81 111.725C175.825 111.437 175.743 111.152 175.577 110.916C175.406 110.69 175.213 110.483 175 110.296L173.752 109.194C173.525 108.998 173.34 108.758 173.21 108.488C173.088 108.191 173.029 107.871 173.038 107.55C173.026 107.318 173.061 107.087 173.141 106.87C173.221 106.652 173.344 106.453 173.503 106.284C173.674 106.128 173.875 106.007 174.094 105.93C174.313 105.853 174.545 105.822 174.777 105.837C175.039 105.831 175.301 105.869 175.551 105.949C175.765 106.016 175.958 106.138 176.111 106.302C176.274 106.473 176.398 106.679 176.473 106.904C176.567 107.183 176.627 107.472 176.653 107.765L175.792 108.006C175.778 107.78 175.743 107.555 175.689 107.335C175.639 107.144 175.538 106.972 175.396 106.835C175.229 106.7 175.017 106.633 174.802 106.646C174.685 106.624 174.564 106.632 174.449 106.668C174.335 106.703 174.231 106.766 174.147 106.851C174.062 106.935 173.999 107.039 173.963 107.154C173.928 107.268 173.92 107.389 173.942 107.507C173.936 107.7 173.977 107.892 174.062 108.066C174.156 108.238 174.282 108.389 174.432 108.514L175.689 109.616C175.975 109.867 176.224 110.157 176.43 110.477C176.652 110.839 176.766 111.257 176.757 111.682C176.766 112.015 176.686 112.345 176.524 112.637C176.376 112.896 176.158 113.108 175.896 113.249C175.612 113.376 175.302 113.435 174.992 113.421Z" fill="#CCCCCC"/>
<path d="M179.346 113.422C178.971 113.435 178.601 113.339 178.279 113.146C177.994 112.963 177.769 112.699 177.633 112.389C177.479 112.029 177.392 111.644 177.375 111.253L178.288 111.011C178.308 111.267 178.351 111.521 178.417 111.769C178.468 111.995 178.578 112.202 178.735 112.372C178.905 112.519 179.122 112.601 179.346 112.601C179.571 112.601 179.788 112.519 179.958 112.372C180.107 112.191 180.181 111.96 180.164 111.726C180.179 111.438 180.097 111.153 179.932 110.917C179.761 110.691 179.568 110.484 179.355 110.297L178.107 109.195C177.879 108.999 177.695 108.759 177.564 108.489C177.442 108.192 177.384 107.872 177.392 107.551C177.381 107.319 177.416 107.088 177.496 106.871C177.576 106.653 177.698 106.454 177.857 106.285C178.209 105.973 178.67 105.812 179.14 105.838C179.402 105.832 179.664 105.87 179.915 105.95C180.127 106.019 180.32 106.14 180.474 106.303C180.632 106.477 180.752 106.682 180.827 106.905C180.925 107.183 180.986 107.472 181.008 107.766L180.147 108.007C180.129 107.78 180.092 107.556 180.035 107.336C179.985 107.145 179.884 106.973 179.742 106.836C179.577 106.703 179.369 106.636 179.157 106.647C178.937 106.636 178.721 106.71 178.554 106.853C178.478 106.935 178.419 107.031 178.382 107.136C178.345 107.242 178.33 107.353 178.339 107.465C178.331 107.658 178.369 107.85 178.451 108.024C178.545 108.195 178.671 108.347 178.821 108.472L180.078 109.574C180.366 109.825 180.619 110.114 180.827 110.435C181.043 110.799 181.153 111.216 181.146 111.64C181.155 111.973 181.075 112.303 180.913 112.595C180.765 112.854 180.547 113.066 180.285 113.207C179.995 113.355 179.672 113.429 179.346 113.422Z" fill="#CCCCCC"/>
<path d="M119.785 233.544C119.785 233.544 108.571 287.888 103.463 290.88C99.3523 293.292 104.827 296.107 92.8585 292.077L92.8583 283.635L90.4463 279.414L93.7319 268.991C93.7319 268.991 105.067 213.771 113.208 213.097C121.362 212.41 119.785 233.544 119.785 233.544Z" fill="#2C2C2C"/>
<path d="M196.33 229.164C196.33 229.164 210.119 282.912 206.843 287.844C204.209 291.816 210.364 291.941 197.842 293.576L194.134 285.992L190.114 283.259L188.489 272.452C188.489 272.452 174.424 217.863 181.442 213.683C188.466 209.484 196.33 229.164 196.33 229.164Z" fill="#2C2C2C"/>
<path d="M201.949 229.621C201.949 238.22 196.315 243.544 187.716 243.544C179.117 243.544 172.148 236.576 172.148 227.977C172.148 219.378 178.645 209.889 186.84 212.463C195.87 215.28 201.949 221.022 201.949 229.621Z" fill="white"/>
<path fill-rule="evenodd" clip-rule="evenodd" d="M176.831 216.381C174.269 219.404 172.687 223.801 172.687 227.979C172.687 236.28 179.413 243.007 187.715 243.007C191.903 243.007 195.317 241.712 197.681 239.422C200.043 237.134 201.409 233.801 201.409 229.623C201.409 221.352 195.586 215.759 186.678 212.98L186.677 212.98C182.847 211.777 179.385 213.367 176.831 216.381ZM187 211.951C182.635 210.58 178.751 212.447 176.009 215.684C173.274 218.911 171.608 223.558 171.608 227.979C171.608 236.876 178.818 244.085 187.715 244.085C192.126 244.085 195.828 242.718 198.431 240.196C201.036 237.673 202.487 234.044 202.487 229.623C202.487 220.696 196.152 214.806 187 211.951Z" fill="#2C2C2C"/>
<path d="M194.951 227.114C194.951 233.476 190.786 237.412 184.424 237.412C178.063 237.412 172.914 232.263 172.914 225.901C172.914 219.54 177.712 212.517 183.791 214.418C190.449 216.52 194.951 220.766 194.951 227.114Z" fill="#2C2C2C"/>
<path d="M97.4922 229.621C97.4922 238.22 103.126 243.544 111.725 243.544C120.324 243.544 127.279 236.562 127.279 227.976C127.279 219.391 120.782 209.889 112.588 212.463C103.571 215.28 97.4922 221.022 97.4922 229.621Z" fill="white"/>
<path fill-rule="evenodd" clip-rule="evenodd" d="M123.418 215.688C126.152 218.917 127.818 223.564 127.818 227.978C127.818 236.861 120.623 244.085 111.725 244.085C107.314 244.085 103.612 242.717 101.009 240.196C98.4042 237.673 96.9531 234.043 96.9531 229.623C96.9531 220.696 103.288 214.806 112.427 211.951C116.791 210.58 120.675 212.45 123.418 215.688ZM122.595 216.385C120.041 213.369 116.579 211.776 112.749 212.979L112.749 212.98C103.854 215.758 98.0314 221.352 98.0314 229.623C98.0314 233.801 99.3972 237.133 101.759 239.422C104.123 241.712 107.537 243.006 111.725 243.006C120.026 243.006 126.74 236.267 126.74 227.978C126.74 223.807 125.157 219.41 122.595 216.385Z" fill="#2C2C2C"/>
<path d="M104.5 227.114C104.5 233.476 108.665 237.412 115.026 237.412C121.388 237.412 126.537 232.263 126.537 225.901C126.537 219.54 121.739 212.517 115.673 214.418C108.988 216.52 104.5 220.766 104.5 227.114Z" fill="#2C2C2C"/>
<path d="M169.315 298.617C159.584 297.727 149.974 297.363 149.974 297.363C146.442 297.471 138.922 297.781 131.158 298.617C133.423 306.353 141.105 312.054 150.23 312.054C159.368 312.068 167.05 306.34 169.315 298.617Z" fill="#50BFD7"/>
<path d="M168.523 299.425C169.358 296.136 186.085 212.329 186.085 212.329C186.085 212.329 141.445 199.148 112.898 212.329L131.202 300.153L168.523 299.425Z" fill="white"/>
<path fill-rule="evenodd" clip-rule="evenodd" d="M186.236 211.813C186.236 211.813 186.236 211.813 186.084 212.33C186.612 212.436 186.612 212.436 186.612 212.437L186.612 212.44L186.424 213.378C186.302 213.992 186.122 214.894 185.892 216.043C185.433 218.341 184.776 221.628 183.986 225.582C182.405 233.491 180.288 244.069 178.145 254.751C173.862 276.099 169.467 297.897 169.044 299.559L168.943 299.957L130.764 300.702L112.282 212.021L112.671 211.841C127.083 205.186 145.503 205.201 160.256 206.851C167.643 207.678 174.135 208.917 178.78 209.95C181.103 210.467 182.964 210.932 184.247 211.268C184.888 211.436 185.384 211.572 185.721 211.666C185.889 211.713 186.017 211.75 186.104 211.775C186.147 211.787 186.18 211.797 186.202 211.803L186.227 211.811L186.234 211.813L186.236 211.813ZM186.084 212.33L186.612 212.436L186.709 211.953L186.236 211.813L186.084 212.33ZM185.458 212.712C185.449 212.71 185.44 212.707 185.43 212.705C185.099 212.612 184.608 212.478 183.973 212.311C182.703 211.978 180.854 211.516 178.546 211.003C173.929 209.976 167.476 208.744 160.136 207.923C145.567 206.293 127.591 206.293 113.513 212.642L131.637 299.606L168.092 298.895C168.856 295.47 173.015 274.837 177.088 254.539C179.231 243.858 181.347 233.279 182.929 225.371C183.719 221.417 184.376 218.13 184.835 215.832C185.064 214.683 185.244 213.781 185.367 213.167L185.458 212.712Z" fill="black"/>
<path d="M168.523 299.425C169.358 296.136 186.085 212.329 186.085 212.329C186.085 212.329 141.445 199.148 112.898 212.329L131.202 300.153L168.523 299.425Z" fill="white"/>
<path fill-rule="evenodd" clip-rule="evenodd" d="M186.236 211.813C186.236 211.813 186.236 211.813 186.084 212.33C186.612 212.436 186.612 212.436 186.612 212.437L186.612 212.44L186.424 213.378C186.302 213.992 186.122 214.894 185.892 216.043C185.433 218.341 184.776 221.628 183.986 225.582C182.405 233.491 180.288 244.069 178.145 254.751C173.862 276.099 169.467 297.897 169.044 299.559L168.943 299.957L130.764 300.702L112.282 212.021L112.671 211.841C127.083 205.186 145.503 205.201 160.256 206.851C167.643 207.678 174.135 208.917 178.78 209.95C181.103 210.467 182.964 210.932 184.247 211.268C184.888 211.436 185.384 211.572 185.721 211.666C185.889 211.713 186.017 211.75 186.104 211.775C186.147 211.787 186.18 211.797 186.202 211.803L186.227 211.811L186.234 211.813L186.236 211.813ZM186.084 212.33L186.612 212.436L186.709 211.953L186.236 211.813L186.084 212.33ZM185.458 212.712C185.449 212.71 185.44 212.707 185.43 212.705C185.099 212.612 184.608 212.478 183.973 212.311C182.703 211.978 180.854 211.516 178.546 211.003C173.929 209.976 167.476 208.744 160.136 207.923C145.567 206.293 127.591 206.293 113.513 212.642L131.637 299.606L168.092 298.895C168.856 295.47 173.015 274.837 177.088 254.539C179.231 243.858 181.347 233.279 182.929 225.371C183.719 221.417 184.376 218.13 184.835 215.832C185.064 214.683 185.244 213.781 185.367 213.167L185.458 212.712Z" fill="#2C2C2C"/>
<path d="M175.249 209.756C162.781 207.249 141.702 204.391 123.587 208.704C125.73 222.223 127.873 235.755 130.016 249.273C131.741 258.439 140.435 264.544 149.505 264.598C158.576 264.544 167.27 258.452 168.995 249.273C171.07 236.092 173.16 222.924 175.249 209.756Z" fill="#50BFD7"/>
<path fill-rule="evenodd" clip-rule="evenodd" d="M123.459 208.18C141.693 203.838 162.868 206.717 175.352 209.227L175.86 209.329L175.777 209.848C173.688 223.014 171.6 236.179 169.525 249.357L169.523 249.365L169.522 249.373C167.741 258.846 158.791 265.082 149.506 265.137L149.503 265.137L149.5 265.137C140.214 265.082 131.264 258.832 129.484 249.373L129.482 249.365L129.481 249.358C128.409 242.599 127.338 235.837 126.267 229.075L126.266 229.073C125.195 222.311 124.123 215.548 123.052 208.789L122.974 208.295L123.459 208.18ZM124.195 209.115C125.24 215.709 126.286 222.305 127.331 228.902L127.331 228.904C128.402 235.665 129.474 242.425 130.545 249.181C132.218 258.047 140.65 264.005 149.503 264.059C158.355 264.005 166.788 258.061 168.461 249.182C170.509 236.173 172.571 223.178 174.632 210.183C162.239 207.728 141.839 205.051 124.195 209.115Z" fill="#2C2C2C"/>
<path d="M147.955 214.542C152.214 214.542 158.832 213.248 158.832 209.002L157.74 194.823L156.783 182.424C156.783 178.164 153.333 174.728 149.087 174.728C146.958 174.728 145.044 175.59 143.642 176.978C142.254 178.367 141.378 180.294 141.378 182.424L140.434 194.837L139.531 206.738C138.318 213.922 147.955 214.542 147.955 214.542Z" fill="#2C2C2C"/>
<path d="M117.196 173.608C121.998 173.608 125.89 169.715 125.89 164.914C125.89 160.113 121.998 156.221 117.196 156.221C112.395 156.221 108.503 160.113 108.503 164.914C108.503 169.715 112.395 173.608 117.196 173.608Z" fill="white"/>
<path d="M149.463 172.044C149.477 172.125 149.301 172.273 148.911 172.273C148.533 172.287 147.954 172.112 147.442 171.626C147.185 171.384 146.956 171.087 146.781 170.71C146.754 170.656 146.741 170.602 146.714 170.548L146.687 170.467L146.66 170.4L146.619 170.278C146.606 170.225 146.592 170.157 146.565 170.103C146.512 169.901 146.471 169.685 146.458 169.456C146.377 168.567 146.552 167.664 146.768 166.801C147.603 163.351 148.587 160.642 148.951 160.722C149.315 160.817 148.938 163.674 148.102 167.125C147.886 167.974 147.725 168.742 147.725 169.389C147.725 169.551 147.738 169.712 147.752 169.861L147.765 169.915V169.942V169.955V169.968C147.765 169.968 147.752 169.928 147.765 169.942L147.792 170.076L147.805 170.144L147.819 170.184L147.846 170.265C147.927 170.521 148.048 170.764 148.183 170.952C148.452 171.343 148.776 171.586 149.032 171.721C149.261 171.896 149.45 171.95 149.463 172.044Z" fill="#2C2C2C"/>
<path d="M139.839 155.882C139.839 159.724 136.51 162.837 132.413 162.837C128.302 162.837 124.986 159.724 124.986 155.882C124.986 152.041 128.315 148.928 132.413 148.928C136.51 148.928 139.839 152.041 139.839 155.882Z" fill="white"/>
<path fill-rule="evenodd" clip-rule="evenodd" d="M132.413 149.466C128.579 149.466 125.526 152.371 125.526 155.882C125.526 159.393 128.566 162.297 132.413 162.297C136.247 162.297 139.3 159.392 139.3 155.882C139.3 152.371 136.247 149.466 132.413 149.466ZM124.447 155.882C124.447 151.71 128.052 148.388 132.413 148.388C136.774 148.388 140.378 151.71 140.378 155.882C140.378 160.054 136.774 163.375 132.413 163.375C128.038 163.375 124.447 160.053 124.447 155.882Z" fill="#2C2C2C"/>
<path d="M128.776 155.452C128.776 158.619 130.839 161.193 133.372 161.193C135.906 161.193 137.968 158.619 137.968 155.452C137.968 152.284 135.906 149.71 133.372 149.71C130.825 149.697 128.776 152.271 128.776 155.452Z" fill="#50BFD7"/>
<path d="M130.096 155.451C130.096 157.702 131.551 159.521 133.357 159.521C135.163 159.521 136.619 157.702 136.619 155.451C136.619 153.2 135.163 151.367 133.357 151.367C131.565 151.367 130.096 153.187 130.096 155.451Z" fill="#2C2C2C"/>
<path d="M129.894 151.584C129.894 152.204 130.648 152.689 131.578 152.689C132.508 152.689 133.263 152.191 133.263 151.584C133.263 150.964 132.508 150.479 131.578 150.479C130.648 150.465 129.894 150.964 129.894 151.584Z" fill="white"/>
<path d="M132.898 147.918C128.302 147.459 124.771 151.611 124.771 155.897C124.771 156.341 125.323 156.422 125.552 156.112C127.426 153.538 128.032 151.004 131.456 150.02C136.51 148.565 139.286 153.754 139.57 157.824C139.61 158.215 139.947 157.864 139.987 157.46C140.446 152.594 138.02 148.43 132.898 147.918Z" fill="#2C2C2C"/>
<path d="M141.97 145.248C141.97 145.248 131.943 135.247 121.16 147.122C121.147 147.122 130.474 141.151 141.97 145.248Z" fill="#2C2C2C"/>
<path d="M172.148 155.882C172.148 159.724 168.819 162.837 164.721 162.837C160.611 162.837 157.295 159.724 157.295 155.882C157.295 152.041 160.624 148.928 164.721 148.928C168.819 148.928 172.148 152.041 172.148 155.882Z" fill="white"/>
<path fill-rule="evenodd" clip-rule="evenodd" d="M164.72 149.466C160.887 149.466 157.833 152.371 157.833 155.882C157.833 159.393 160.874 162.297 164.72 162.297C168.554 162.297 171.608 159.392 171.608 155.882C171.608 152.371 168.554 149.466 164.72 149.466ZM156.755 155.882C156.755 151.71 160.359 148.388 164.72 148.388C169.081 148.388 172.686 151.71 172.686 155.882C172.686 160.054 169.081 163.375 164.72 163.375C160.345 163.375 156.755 160.053 156.755 155.882Z" fill="#2C2C2C"/>
<path d="M161.082 155.452C161.082 158.619 163.144 161.193 165.678 161.193C168.212 161.193 170.274 158.619 170.274 155.452C170.274 152.284 168.212 149.71 165.678 149.71C163.144 149.697 161.082 152.271 161.082 155.452Z" fill="#50BFD7"/>
<path d="M162.415 155.451C162.415 157.702 163.871 159.521 165.677 159.521C167.483 159.521 168.938 157.702 168.938 155.451C168.938 153.2 167.483 151.367 165.677 151.367C163.871 151.367 162.415 153.187 162.415 155.451Z" fill="#2C2C2C"/>
<path d="M162.2 151.584C162.2 152.204 162.955 152.689 163.885 152.689C164.815 152.689 165.57 152.191 165.57 151.584C165.57 150.964 164.815 150.479 163.885 150.479C162.968 150.465 162.2 150.964 162.2 151.584Z" fill="white"/>
<path d="M165.207 147.918C160.611 147.459 157.08 151.611 157.08 155.897C157.08 156.341 157.633 156.422 157.862 156.112C159.735 153.538 160.342 151.004 163.765 150.02C168.82 148.565 171.596 153.754 171.879 157.824C171.92 158.215 172.256 157.864 172.297 157.46C172.755 152.594 170.343 148.43 165.207 147.918Z" fill="#2C2C2C"/>
<path d="M174.276 144.156C174.276 144.156 164.248 134.156 153.466 146.03C153.466 146.03 162.793 140.059 174.276 144.156Z" fill="#2C2C2C"/>
<path d="M158.749 304.453C158.749 304.79 159.046 305.181 159.396 305.141C163.372 304.723 166.418 301.65 170.34 302.297C166.405 304.251 162.995 307.647 163.48 312.648C163.534 313.268 164.127 313.51 164.585 313.133C167.402 310.734 170.637 308.591 174.411 309.386C176.028 309.723 177.929 310.357 179.6 310.141C182.093 309.831 184.196 308.699 185.436 306.286C187.619 302.108 186.811 297.094 181.918 296.056C181.797 296.029 181.703 296.043 181.595 296.083C179.789 295.369 178.144 294.466 176.689 292.889C175.287 291.352 173.98 289.654 172.457 288.239C170.421 286.339 168.211 284.842 165.515 286.123C165.111 286.312 165.138 286.891 165.394 287.201C166.58 288.67 167.968 290.072 169.424 291.42C167.968 291.083 166.499 290.908 164.99 291.029C162.294 291.258 159.113 293.051 159.181 296.258C159.194 296.663 159.477 296.905 159.828 296.946C162.308 297.202 164.801 297.161 167.267 297.418C163.426 298.55 158.709 299.844 158.749 304.453Z" fill="white"/>
<path fill-rule="evenodd" clip-rule="evenodd" d="M169.432 285.485C170.674 285.975 171.796 286.883 172.824 287.843C173.854 288.8 174.805 289.904 175.728 290.975C176.186 291.506 176.636 292.029 177.086 292.522C178.425 293.972 179.935 294.829 181.631 295.515C181.753 295.495 181.886 295.495 182.032 295.527C184.672 296.088 186.254 297.747 186.849 299.844C187.436 301.911 187.054 304.351 185.915 306.532C184.576 309.136 182.296 310.347 179.668 310.674C178.747 310.793 177.787 310.675 176.882 310.498C176.426 310.409 175.975 310.302 175.543 310.199C175.498 310.188 175.452 310.177 175.407 310.166C175.021 310.074 174.654 309.986 174.301 309.912L174.3 309.912C170.801 309.175 167.75 311.144 164.935 313.542L164.932 313.545L164.928 313.547C164.561 313.849 164.087 313.937 163.669 313.758C163.251 313.579 162.986 313.175 162.943 312.696C162.504 308.161 165.086 304.907 168.343 302.807C167.259 302.955 166.204 303.347 165.099 303.814C164.853 303.918 164.604 304.026 164.352 304.136C162.856 304.785 161.242 305.486 159.455 305.675C159.052 305.72 158.729 305.513 158.536 305.291C158.343 305.071 158.211 304.767 158.21 304.454C158.189 301.915 159.499 300.285 161.266 299.173C162.197 298.587 163.27 298.135 164.359 297.755C164.083 297.742 163.807 297.73 163.529 297.718L163.518 297.718C162.283 297.664 161.027 297.61 159.772 297.48L159.769 297.48L159.766 297.479C159.189 297.413 158.665 296.983 158.642 296.274L158.642 296.271L158.642 296.268C158.604 294.459 159.489 293.059 160.717 292.1C161.934 291.149 163.507 290.612 164.944 290.49L164.945 290.49L164.947 290.49C165.899 290.413 166.832 290.45 167.75 290.567C166.76 289.592 165.82 288.584 164.976 287.54C164.759 287.276 164.65 286.92 164.669 286.584C164.689 286.236 164.859 285.833 165.285 285.633C166.78 284.924 168.162 284.984 169.432 285.485ZM165.752 286.605C165.75 286.613 165.746 286.625 165.745 286.645C165.743 286.679 165.748 286.72 165.762 286.762C165.775 286.805 165.794 286.837 165.81 286.856L165.812 286.858L165.814 286.861C166.977 288.302 168.345 289.684 169.79 291.022L171.279 292.401L169.302 291.943C167.885 291.615 166.473 291.449 165.034 291.564C163.776 291.671 162.411 292.145 161.381 292.95C160.362 293.745 159.692 294.844 159.72 296.241C159.722 296.312 159.745 296.341 159.759 296.355C159.778 296.374 159.817 296.4 159.887 296.408C161.107 296.534 162.333 296.587 163.576 296.641L163.58 296.641C164.818 296.695 166.073 296.75 167.323 296.879L170.038 297.161L167.42 297.933C167.353 297.953 167.286 297.972 167.218 297.992C165.334 298.547 163.363 299.127 161.84 300.086C160.298 301.056 159.27 302.377 159.288 304.447L159.288 304.449V304.451C159.288 304.458 159.29 304.478 159.302 304.507C159.313 304.535 159.329 304.561 159.347 304.581C159.354 304.59 159.361 304.596 159.366 304.6C160.965 304.427 162.402 303.804 163.897 303.157C164.155 303.045 164.416 302.932 164.679 302.821C166.437 302.077 168.304 301.412 170.428 301.763L172.076 302.035L170.58 302.778C166.729 304.69 163.563 307.922 164.017 312.594L164.017 312.597L164.017 312.599C164.024 312.672 164.044 312.713 164.058 312.734C164.072 312.755 164.085 312.763 164.094 312.767C164.102 312.771 164.115 312.774 164.136 312.77C164.157 312.767 164.193 312.755 164.24 312.717C167.058 310.318 170.474 308.004 174.522 308.857C174.891 308.934 175.275 309.026 175.658 309.118C175.703 309.128 175.749 309.139 175.795 309.15C176.226 309.254 176.658 309.355 177.089 309.44C177.955 309.609 178.781 309.701 179.531 309.604L179.532 309.604L179.534 309.604C181.891 309.311 183.815 308.258 184.957 306.038L184.957 306.036L184.958 306.035C186.001 304.038 186.307 301.883 185.812 300.139C185.326 298.426 184.058 297.059 181.806 296.582L181.804 296.581L181.801 296.581C181.801 296.581 181.801 296.581 181.8 296.58C181.797 296.582 181.791 296.583 181.784 296.586L181.59 296.659L181.397 296.583C179.547 295.851 177.822 294.91 176.293 293.253L176.292 293.252L176.29 293.25C175.795 292.707 175.323 292.158 174.855 291.615C173.958 290.572 173.079 289.551 172.09 288.632L172.089 288.631C171.081 287.69 170.081 286.9 169.036 286.488C168.019 286.086 166.951 286.038 165.752 286.605Z" fill="#2C2C2C"/>
<path fill-rule="evenodd" clip-rule="evenodd" d="M114.164 150.814V151.084H113.086V150.814H114.164Z" fill="#2C2C2C"/>
<path fill-rule="evenodd" clip-rule="evenodd" d="M119.824 153.781V154.051H118.746V153.781H119.824Z" fill="#2C2C2C"/>
<path d="M150.489 152.191C152.335 152.581 151.648 153.781 151.648 153.956C151.648 154.131 152.335 164.105 161.244 166.734C170.153 169.362 175.491 164.2 177.041 161.612C178.591 159.024 179.885 152.878 180.262 152.406C180.653 151.935 182.499 151.112 182.499 151.112L182.715 148.7L180.397 148.012C180.397 148.012 174.547 145.344 165.935 145.222C157.336 145.088 152.47 150.048 152.47 150.048C150.044 149.279 147.038 149.172 144.289 150.048C144.289 150.048 139.423 145.101 130.824 145.222C122.225 145.357 116.362 148.012 116.362 148.012L114.044 148.7L114.26 151.112C114.26 151.112 116.106 151.935 116.497 152.406C116.888 152.878 118.168 159.038 119.718 161.612C121.268 164.2 126.606 169.362 135.515 166.734C144.424 164.105 145.111 154.131 145.111 153.956C145.111 153.781 144.424 152.581 146.27 152.191C147.874 151.854 148.885 151.854 150.489 152.191ZM171.865 164.671C165.072 168.755 156.931 164.631 154.478 159.253C152.025 153.875 154.088 151.032 154.088 151.032C158.198 144.346 174.736 144.063 177.58 151.288C178.065 152.501 178.672 160.588 171.865 164.671ZM119.166 151.288C122.01 144.05 138.561 144.346 142.658 151.032C142.658 151.032 144.72 153.875 142.267 159.253C139.814 164.631 131.687 168.755 124.88 164.671C118.087 160.588 118.694 152.501 119.166 151.288Z" fill="#2C2C2C"/>
<path d="M154.653 224.567H144.302C141.552 224.567 139.315 226.804 139.315 229.553V239.905C139.315 242.654 141.552 244.892 144.302 244.892H154.653C157.403 244.892 159.64 242.654 159.64 239.905V229.553C159.64 226.804 157.416 224.567 154.653 224.567ZM136.565 220.159C134.988 220.159 133.708 221.44 133.708 223.017C133.708 224.593 134.988 225.874 136.565 225.874C138.142 225.874 139.423 224.593 139.423 223.017C139.423 221.44 138.142 220.159 136.565 220.159Z" fill="white"/>
<path d="M153.925 230.74C153.265 228.975 151.58 227.802 149.693 227.802H146.89L152.429 241.846H158.373L153.925 230.74ZM142.604 237.816L140.986 241.846H146.89L149.639 234.878H146.836C144.949 234.878 143.264 236.051 142.604 237.816ZM143.52 231.293C144.491 231.293 145.286 230.498 145.286 229.527C145.286 228.557 144.491 227.762 143.52 227.762C142.55 227.762 141.755 228.557 141.755 229.527C141.755 230.498 142.55 231.293 143.52 231.293Z" fill="#50BFD7"/>
<path d="M176.714 275.303C167.397 274.451 158.196 274.103 158.196 274.103C154.815 274.206 147.614 274.503 140.181 275.303C142.349 282.71 149.704 288.169 158.441 288.169C167.19 288.182 174.546 282.697 176.714 275.303Z" fill="#50BFD7"/>
<path d="M166.084 288.762C166.084 289.085 166.368 289.459 166.704 289.421C170.511 289.021 173.427 286.078 177.182 286.698C173.414 288.569 170.149 291.821 170.614 296.609C170.665 297.202 171.233 297.434 171.672 297.073C174.369 294.776 177.466 292.724 181.08 293.486C182.628 293.808 184.448 294.415 186.048 294.208C188.435 293.911 190.448 292.827 191.636 290.518C193.726 286.517 192.952 281.716 188.268 280.723C188.151 280.697 188.061 280.71 187.958 280.749C186.229 280.065 184.654 279.2 183.261 277.69C181.918 276.219 180.667 274.593 179.208 273.238C177.26 271.418 175.143 269.986 172.562 271.212C172.175 271.393 172.201 271.948 172.446 272.244C173.582 273.651 174.911 274.993 176.305 276.284C174.911 275.961 173.504 275.793 172.059 275.909C169.478 276.129 166.433 277.845 166.497 280.916C166.51 281.303 166.781 281.536 167.117 281.574C169.491 281.82 171.878 281.781 174.24 282.026C170.562 283.11 166.046 284.349 166.084 288.762Z" fill="#C4C4C4"/>
<path fill-rule="evenodd" clip-rule="evenodd" d="M176.31 270.601C177.499 271.071 178.574 271.94 179.558 272.859C180.544 273.776 181.455 274.833 182.338 275.858C182.777 276.367 183.208 276.868 183.639 277.34C184.92 278.728 186.366 279.548 187.99 280.205C188.107 280.185 188.234 280.186 188.374 280.217C190.902 280.754 192.416 282.342 192.987 284.35C193.548 286.329 193.183 288.665 192.092 290.754C190.81 293.246 188.627 294.406 186.111 294.719C185.229 294.833 184.31 294.72 183.443 294.551C183.007 294.465 182.575 294.363 182.162 294.264C182.118 294.254 182.074 294.243 182.031 294.233C181.662 294.144 181.31 294.06 180.972 293.99L180.971 293.989C177.621 293.283 174.699 295.169 172.004 297.465L172.001 297.468L171.998 297.47C171.647 297.759 171.192 297.844 170.792 297.672C170.392 297.501 170.138 297.114 170.097 296.655C169.677 292.313 172.149 289.197 175.268 287.187C174.23 287.328 173.219 287.703 172.161 288.151C171.926 288.25 171.687 288.354 171.446 288.459C170.014 289.081 168.469 289.752 166.758 289.932C166.372 289.976 166.063 289.778 165.877 289.566C165.693 289.355 165.566 289.064 165.566 288.764C165.545 286.332 166.8 284.772 168.491 283.707C169.383 283.146 170.411 282.713 171.453 282.35C171.189 282.338 170.924 282.326 170.658 282.315L170.648 282.314C169.465 282.263 168.263 282.211 167.061 282.087L167.058 282.086L167.055 282.086C166.503 282.022 166.002 281.611 165.979 280.932L165.979 280.929L165.979 280.926C165.942 279.194 166.79 277.853 167.966 276.935C169.131 276.025 170.637 275.511 172.013 275.394L172.014 275.393L172.015 275.393C172.927 275.32 173.821 275.355 174.7 275.467C173.752 274.534 172.851 273.569 172.044 272.569C171.836 272.316 171.731 271.975 171.75 271.654C171.768 271.321 171.931 270.935 172.34 270.744C173.771 270.064 175.094 270.122 176.31 270.601ZM172.787 271.674C172.784 271.681 172.781 271.694 172.78 271.712C172.778 271.744 172.783 271.784 172.796 271.825C172.809 271.866 172.827 271.896 172.842 271.914L172.844 271.916L172.846 271.919C173.96 273.298 175.269 274.622 176.653 275.903L178.078 277.223L176.186 276.785C174.828 276.471 173.477 276.312 172.099 276.422C170.895 276.525 169.588 276.979 168.602 277.749C167.626 278.511 166.984 279.562 167.011 280.9C167.014 280.968 167.035 280.996 167.049 281.01C167.067 281.028 167.104 281.052 167.171 281.06C168.339 281.18 169.513 281.232 170.703 281.283L170.707 281.283C171.892 281.335 173.094 281.387 174.291 281.511L176.89 281.781L174.384 282.52C174.319 282.539 174.255 282.558 174.191 282.577C172.387 283.108 170.5 283.663 169.041 284.581C167.564 285.511 166.581 286.775 166.598 288.757L166.598 288.759V288.761C166.598 288.768 166.6 288.787 166.611 288.814C166.622 288.841 166.637 288.866 166.654 288.886C166.661 288.894 166.667 288.899 166.672 288.903C168.203 288.738 169.579 288.142 171.011 287.522C171.258 287.414 171.507 287.307 171.759 287.2C173.442 286.488 175.23 285.851 177.264 286.187L178.842 286.447L177.41 287.159C173.723 288.99 170.691 292.084 171.125 296.557L171.125 296.56L171.126 296.562C171.132 296.632 171.151 296.672 171.164 296.692C171.178 296.712 171.191 296.72 171.199 296.723C171.207 296.727 171.22 296.73 171.24 296.726C171.259 296.723 171.294 296.712 171.339 296.675C174.037 294.378 177.308 292.163 181.183 292.979C181.537 293.053 181.905 293.141 182.271 293.229C182.315 293.239 182.358 293.25 182.402 293.26C182.815 293.359 183.229 293.457 183.641 293.537C184.471 293.7 185.262 293.788 185.98 293.695L185.981 293.695L185.982 293.695C188.239 293.414 190.082 292.406 191.174 290.28L191.175 290.279L191.176 290.277C192.175 288.366 192.467 286.302 191.993 284.632C191.528 282.992 190.313 281.684 188.158 281.226L188.156 281.226L188.153 281.225C188.153 281.225 188.153 281.225 188.152 281.225C188.149 281.226 188.144 281.228 188.137 281.231L187.951 281.3L187.766 281.227C185.994 280.527 184.343 279.625 182.879 278.039L182.878 278.038L182.877 278.037C182.402 277.517 181.95 276.991 181.502 276.471C180.643 275.473 179.802 274.495 178.855 273.615L178.854 273.614C177.889 272.713 176.932 271.957 175.931 271.562C174.957 271.177 173.934 271.131 172.787 271.674Z" fill="#2C2C2C"/>
<path d="M95.2524 251.164H206.882C208.217 251.164 209.498 251.695 210.443 252.639C211.387 253.583 211.918 254.864 211.918 256.2V318.913H90.2168V256.2C90.2168 254.864 90.7473 253.583 91.6917 252.639C92.6361 251.695 93.9169 251.164 95.2524 251.164Z" fill="white"/>
<path fill-rule="evenodd" clip-rule="evenodd" d="M95.2526 251.804C94.0873 251.804 92.9698 252.267 92.1458 253.091C91.3218 253.915 90.8589 255.033 90.8589 256.198V318.27H211.276V256.198C211.276 255.033 210.813 253.915 209.989 253.091C209.165 252.267 208.047 251.804 206.882 251.804H95.2526ZM91.2381 252.183C92.3028 251.119 93.7469 250.521 95.2526 250.521H206.882C208.388 250.521 209.832 251.119 210.897 252.183C211.961 253.248 212.56 254.692 212.56 256.198V318.911C212.56 319.266 212.272 319.553 211.918 319.553H90.217C89.8626 319.553 89.5752 319.266 89.5752 318.911V256.198C89.5752 254.692 90.1734 253.248 91.2381 252.183Z" fill="#2C2C2C"/>
<path d="M211.918 273.701C196.629 277.579 180.938 287.448 151.702 301.347C123.502 314.762 100.419 314.53 90.2168 313.493V318.911H211.918V273.701Z" fill="#2C2C2C"/>
<path fill-rule="evenodd" clip-rule="evenodd" d="M212.312 273.195C212.468 273.316 212.56 273.503 212.56 273.701V318.911C212.56 319.266 212.272 319.553 211.918 319.553H90.217C89.8626 319.553 89.5752 319.266 89.5752 318.911V313.493C89.5752 313.311 89.6521 313.138 89.7868 313.017C89.9214 312.895 90.1014 312.836 90.282 312.854C100.397 313.883 123.357 314.12 151.426 300.767L151.426 300.767C161.056 296.19 169.203 292.055 176.362 288.423C180.069 286.541 183.511 284.795 186.756 283.191C196.25 278.499 204.046 275.036 211.76 273.079C211.952 273.031 212.156 273.073 212.312 273.195ZM151.977 301.927C124.279 315.103 101.478 315.181 90.8589 314.2V318.269H211.276V274.532C203.958 276.486 196.475 279.82 187.325 284.342C184.102 285.935 180.67 287.676 176.968 289.554C169.8 293.192 161.619 297.343 151.977 301.927Z" fill="#2C2C2C"/>
<path d="M153.063 182.992C153.063 185.022 150.955 186.667 148.354 186.667C145.754 186.667 143.646 185.022 143.646 182.992C143.646 180.962 145.754 179.316 148.354 179.316C150.955 179.316 153.063 180.962 153.063 182.992Z" fill="white"/>
<path d="M210.888 314.42H90.7842V318.101H210.888V314.42Z" fill="white"/>
<path fill-rule="evenodd" clip-rule="evenodd" d="M137.765 178.776H160.641L160.567 179.385C160.225 182.164 158.871 184.698 156.78 186.547C154.686 188.399 151.995 189.41 149.205 189.41C146.415 189.41 143.724 188.399 141.63 186.547C139.537 184.696 138.199 182.148 137.843 179.388L137.765 178.776ZM139.017 179.861C139.446 182.126 140.61 184.197 142.349 185.735C144.243 187.409 146.678 188.325 149.205 188.325C151.732 188.325 154.167 187.409 156.061 185.735C157.803 184.194 158.977 182.133 159.396 179.861H139.017Z" fill="#2C2C2C"/>
<path d="M262.47 77.0738L265.637 80.2408L236.817 109.061L224.149 96.3926L227.316 93.2256L236.817 102.727L262.47 77.0738ZM262.47 70.6719L236.817 96.3248L227.316 86.8237L217.747 96.3926L236.817 115.463L272.039 80.2408L262.47 70.6719Z" fill="#50BFD7"/>
<path d="M171.682 100.722C165.736 93.4102 157.427 89 146.758 89C122.601 89 99 111.278 99 139.048C99 166.818 118.575 189.338 142.732 189.338C145.051 189.338 147.298 189.125 149.475 188.741C149.703 189.964 149.831 191.216 149.831 192.511C149.831 192.738 149.816 192.98 149.816 193.208C216.381 177.047 205.484 96.6111 171.682 100.722Z" fill="#2C2C2C"/>
<path d="M115.658 172.324C120.726 172.324 124.834 168.215 124.834 163.148C124.834 158.08 120.726 153.972 115.658 153.972C110.591 153.972 106.482 158.08 106.482 163.148C106.482 168.215 110.591 172.324 115.658 172.324Z" fill="#E0E0E0"/>
<path fill-rule="evenodd" clip-rule="evenodd" d="M115.658 154.54C110.905 154.54 107.051 158.394 107.051 163.147C107.051 167.901 110.905 171.754 115.658 171.754C120.412 171.754 124.265 167.901 124.265 163.147C124.265 158.394 120.412 154.54 115.658 154.54ZM105.913 163.147C105.913 157.765 110.276 153.402 115.658 153.402C121.04 153.402 125.403 157.765 125.403 163.147C125.403 168.529 121.04 172.892 115.658 172.892C110.276 172.892 105.913 168.529 105.913 163.147Z" fill="#2C2C2C"/>
<path d="M180.275 172.324C185.342 172.324 189.451 168.215 189.451 163.148C189.451 158.08 185.342 153.972 180.275 153.972C175.207 153.972 171.099 158.08 171.099 163.148C171.099 168.215 175.207 172.324 180.275 172.324Z" fill="#E0E0E0"/>
<path fill-rule="evenodd" clip-rule="evenodd" d="M180.274 154.54C175.521 154.54 171.667 158.394 171.667 163.147C171.667 167.901 175.521 171.754 180.274 171.754C185.028 171.754 188.881 167.901 188.881 163.147C188.881 158.394 185.028 154.54 180.274 154.54ZM170.529 163.147C170.529 157.765 174.892 153.402 180.274 153.402C185.656 153.402 190.019 157.765 190.019 163.147C190.019 168.529 185.656 172.892 180.274 172.892C174.892 172.892 170.529 168.529 170.529 163.147Z" fill="#2C2C2C"/>
<path d="M148.834 201.429C168.532 201.429 184.5 178.825 184.5 150.94C184.5 123.056 168.532 100.451 148.834 100.451C129.137 100.451 113.169 123.056 113.169 150.94C113.169 178.825 129.137 201.429 148.834 201.429Z" fill="#E0E0E0"/>
<path fill-rule="evenodd" clip-rule="evenodd" d="M124.081 115.569C117.702 124.599 113.739 137.103 113.739 150.942C113.739 164.781 117.702 177.285 124.081 186.315C130.46 195.346 139.221 200.862 148.835 200.862C158.449 200.862 167.21 195.346 173.589 186.315C179.968 177.285 183.931 164.781 183.931 150.942C183.931 137.103 179.968 124.599 173.589 115.569C167.21 106.538 158.449 101.022 148.835 101.022C139.221 101.022 130.46 106.538 124.081 115.569ZM123.151 114.912C129.68 105.67 138.752 99.8838 148.835 99.8838C158.918 99.8838 167.99 105.67 174.519 114.912C181.049 124.156 185.069 136.896 185.069 150.942C185.069 164.988 181.049 177.728 174.519 186.971C167.99 196.214 158.918 202 148.835 202C138.752 202 129.68 196.214 123.151 186.971C116.621 177.728 112.601 164.988 112.601 150.942C112.601 136.896 116.621 124.156 123.151 114.912Z" fill="#2C2C2C"/>
<path d="M107.963 139.745C107.963 139.745 138.322 141.225 148.437 122.958C148.437 122.958 170.402 141.964 191.372 140.485L189.394 132.091L181.257 116.044L176.32 110.126L166.205 99.5132L152.633 93.8369L136.344 96.0562L114.621 110.866L111.904 120.739L107.963 139.745Z" fill="#2C2C2C"/>
<path d="M149.701 170.674C149.716 170.759 149.531 170.915 149.118 170.915C148.72 170.93 148.108 170.745 147.568 170.233C147.297 169.977 147.055 169.664 146.87 169.265C146.842 169.208 146.828 169.151 146.799 169.095L146.771 169.009L146.742 168.938L146.7 168.81C146.686 168.753 146.671 168.682 146.643 168.625C146.586 168.412 146.543 168.184 146.529 167.942C146.444 167.003 146.629 166.05 146.856 165.14C147.738 161.498 148.777 158.638 149.161 158.724C149.545 158.823 149.147 161.839 148.265 165.481C148.037 166.377 147.866 167.188 147.866 167.871C147.866 168.042 147.881 168.212 147.895 168.369L147.909 168.426V168.454V168.469V168.483C147.909 168.483 147.895 168.44 147.909 168.454L147.937 168.597L147.952 168.668L147.966 168.71L147.994 168.796C148.08 169.066 148.208 169.322 148.35 169.521C148.635 169.934 148.976 170.19 149.246 170.332C149.502 170.517 149.687 170.574 149.701 170.674Z" fill="#2C2C2C"/>
<path d="M139.559 153.616C139.559 157.671 136.045 160.957 131.721 160.957C127.382 160.957 123.882 157.671 123.882 153.616C123.882 149.562 127.396 146.275 131.721 146.275C136.031 146.275 139.559 149.562 139.559 153.616Z" fill="white"/>
<path fill-rule="evenodd" clip-rule="evenodd" d="M131.72 146.844C127.674 146.844 124.451 149.91 124.451 153.616C124.451 157.322 127.66 160.388 131.72 160.388C135.767 160.388 138.99 157.321 138.99 153.616C138.99 149.911 135.753 146.844 131.72 146.844ZM123.312 153.616C123.312 149.212 127.117 145.706 131.72 145.706C136.308 145.706 140.128 149.212 140.128 153.616C140.128 158.019 136.323 161.526 131.72 161.526C127.102 161.526 123.312 158.019 123.312 153.616Z" fill="#2C2C2C"/>
<path d="M127.864 153.161C127.864 156.504 130.041 159.221 132.715 159.221C135.39 159.221 137.567 156.504 137.567 153.161C137.567 149.818 135.39 147.101 132.715 147.101C130.041 147.086 127.864 149.804 127.864 153.161Z" fill="#50BFD7"/>
<path d="M129.275 153.16C129.275 155.536 130.812 157.457 132.718 157.457C134.624 157.457 136.161 155.536 136.161 153.16C136.161 150.784 134.624 148.85 132.718 148.85C130.812 148.85 129.275 150.77 129.275 153.16Z" fill="#2C2C2C"/>
<path d="M129.061 149.078C129.061 149.732 129.857 150.245 130.839 150.245C131.82 150.245 132.617 149.718 132.617 149.078C132.617 148.424 131.82 147.911 130.839 147.911C129.857 147.897 129.061 148.424 129.061 149.078Z" fill="white"/>
<path d="M141.794 142.391C141.794 142.391 131.209 131.835 119.828 144.368C119.828 144.368 129.673 138.066 141.794 142.391Z" fill="#2C2C2C"/>
<path d="M173.66 153.616C173.66 157.671 170.146 160.957 165.821 160.957C161.482 160.957 157.982 157.671 157.982 153.616C157.982 149.562 161.496 146.275 165.821 146.275C170.146 146.275 173.66 149.562 173.66 153.616Z" fill="white"/>
<path fill-rule="evenodd" clip-rule="evenodd" d="M165.821 146.844C161.774 146.844 158.551 149.91 158.551 153.616C158.551 157.322 161.761 160.388 165.821 160.388C169.867 160.388 173.09 157.321 173.09 153.616C173.09 149.91 169.867 146.844 165.821 146.844ZM157.413 153.616C157.413 149.212 161.218 145.706 165.821 145.706C170.424 145.706 174.229 149.212 174.229 153.616C174.229 158.019 170.424 161.526 165.821 161.526C161.203 161.526 157.413 158.019 157.413 153.616Z" fill="#2C2C2C"/>
<path d="M161.979 153.161C161.979 156.504 164.156 159.221 166.831 159.221C169.505 159.221 171.682 156.504 171.682 153.161C171.682 149.818 169.505 147.101 166.831 147.101C164.142 147.086 161.979 149.804 161.979 153.161Z" fill="#50BFD7"/>
<path d="M163.374 153.16C163.374 155.536 164.91 157.457 166.817 157.457C168.723 157.457 170.26 155.536 170.26 153.16C170.26 150.784 168.723 148.85 166.817 148.85C164.925 148.85 163.374 150.77 163.374 153.16Z" fill="#2C2C2C"/>
<path d="M163.16 149.078C163.16 149.732 163.957 150.245 164.938 150.245C165.92 150.245 166.717 149.718 166.717 149.078C166.717 148.424 165.92 147.911 164.938 147.911C163.957 147.897 163.16 148.424 163.16 149.078Z" fill="white"/>
<path d="M175.907 141.239C175.907 141.239 165.322 130.683 153.941 143.217C153.927 143.217 163.772 136.914 175.907 141.239Z" fill="#2C2C2C"/>
<path d="M137.255 178.739C137.611 181.499 138.948 184.046 141.039 185.895C143.13 187.745 145.819 188.755 148.607 188.755C151.396 188.755 154.085 187.745 156.176 185.895C158.267 184.046 159.619 181.513 159.96 178.739H137.255Z" fill="white"/>
<path fill-rule="evenodd" clip-rule="evenodd" d="M136.607 178.172H160.603L160.524 178.81C160.166 181.725 158.746 184.383 156.552 186.323C154.356 188.265 151.533 189.325 148.607 189.325C145.681 189.325 142.858 188.265 140.662 186.323C138.466 184.381 137.063 181.709 136.69 178.814L136.607 178.172ZM137.921 179.31C138.371 181.686 139.592 183.857 141.416 185.47C143.402 187.227 145.957 188.187 148.607 188.187C151.258 188.187 153.812 187.227 155.799 185.47C157.626 183.855 158.857 181.693 159.297 179.31H137.921Z" fill="#2C2C2C"/>
<path fill-rule="evenodd" clip-rule="evenodd" d="M112.458 148.267V148.551H111.32V148.267H112.458Z" fill="#2C2C2C"/>
<path fill-rule="evenodd" clip-rule="evenodd" d="M118.432 151.396V151.681H117.294V151.396H118.432Z" fill="#2C2C2C"/>
<path d="M150.782 149.718C152.731 150.131 152.006 151.397 152.006 151.582C152.006 151.767 152.731 162.294 162.135 165.068C171.539 167.842 177.172 162.394 178.808 159.662C180.444 156.931 181.81 150.444 182.208 149.946C182.621 149.448 184.57 148.58 184.57 148.58L184.797 146.034L182.351 145.308C182.351 145.308 176.176 142.491 167.086 142.363C158.009 142.221 152.874 147.456 152.874 147.456C150.313 146.645 147.14 146.532 144.238 147.456C144.238 147.456 139.103 142.235 130.026 142.363C120.95 142.505 114.761 145.308 114.761 145.308L112.314 146.034L112.542 148.58C112.542 148.58 114.491 149.448 114.904 149.946C115.316 150.444 116.668 156.945 118.304 159.662C119.94 162.394 125.573 167.842 134.977 165.068C144.381 162.294 145.106 151.767 145.106 151.582C145.106 151.397 144.381 150.131 146.33 149.718C148.037 149.363 149.089 149.363 150.782 149.718ZM173.36 162.892C166.189 167.202 157.597 162.849 155.008 157.173C152.418 151.496 154.595 148.495 154.595 148.495C158.92 141.438 176.39 141.14 179.391 148.765C179.904 150.045 180.53 158.581 173.36 162.892ZM117.72 148.765C120.722 141.126 138.192 141.438 142.517 148.495C142.517 148.495 144.694 151.496 142.104 157.173C139.515 162.849 130.937 167.202 123.752 162.892C116.597 158.581 117.223 150.045 117.72 148.765Z" fill="#2C2C2C"/>
</svg>
