<svg width="398" height="338" viewBox="0 0 398 338" fill="none" xmlns="http://www.w3.org/2000/svg">
<path d="M318.876 121.581C318.876 121.581 306.92 75.2764 234.538 46.0741C162.157 16.8718 97.4011 43.9183 82.6384 78.1371C67.8758 112.356 83.3472 130.834 73.4959 160.057C63.6447 189.28 13.035 226.291 33.4604 271.172C53.8857 316.053 149.464 328.872 226.806 319.612C304.149 310.353 364.574 207.772 318.876 121.581Z" fill="#50BFD7"/>
<path opacity="0.7" d="M318.876 121.581C318.876 121.581 306.92 75.2764 234.538 46.0741C162.157 16.8718 97.4011 43.9183 82.6384 78.1371C67.8758 112.356 83.3472 130.834 73.4959 160.057C63.6447 189.28 13.035 226.291 33.4604 271.172C53.8857 316.053 149.464 328.872 226.806 319.612C304.149 310.353 364.574 207.772 318.876 121.581Z" fill="white"/>
<path fill-rule="evenodd" clip-rule="evenodd" d="M329.022 259.229C329.284 259.201 329.519 259.391 329.547 259.653L333.295 294.833C333.323 295.095 333.133 295.33 332.871 295.358C332.609 295.386 332.374 295.196 332.346 294.934L328.598 259.754C328.571 259.492 328.76 259.257 329.022 259.229Z" fill="#263238"/>
<path d="M329.052 260.692C329.052 260.692 322.322 255.454 322.322 243.475C322.322 231.497 331.299 221.775 331.299 221.775C331.299 221.775 341.031 233.753 338.784 245.722C336.537 257.69 329.052 260.692 329.052 260.692Z" fill="#50BFD7"/>
<path fill-rule="evenodd" clip-rule="evenodd" d="M331.67 221.474L331.299 221.775L330.949 221.451C331.043 221.35 331.176 221.294 331.314 221.298C331.453 221.302 331.582 221.367 331.67 221.474ZM329.053 260.692C328.76 261.069 328.759 261.069 328.759 261.068L328.759 261.068L328.757 261.067L328.751 261.062L328.734 261.048C328.719 261.036 328.698 261.019 328.671 260.996C328.617 260.951 328.54 260.885 328.443 260.798C328.25 260.622 327.977 260.361 327.652 260.012C327.001 259.312 326.139 258.257 325.279 256.821C323.556 253.947 321.846 249.559 321.846 243.475C321.846 237.371 324.131 231.863 326.397 227.897C327.531 225.911 328.666 224.303 329.518 223.191C329.944 222.635 330.3 222.202 330.55 221.907C330.675 221.76 330.774 221.647 330.842 221.57C330.875 221.532 330.902 221.503 330.92 221.483L330.941 221.46L330.946 221.454L330.948 221.452L330.948 221.452C330.949 221.451 330.949 221.451 331.299 221.775C331.67 221.474 331.67 221.474 331.67 221.474L331.67 221.475L331.672 221.477L331.678 221.485L331.7 221.512C331.72 221.537 331.748 221.572 331.784 221.619C331.857 221.712 331.962 221.849 332.095 222.028C332.361 222.384 332.738 222.906 333.181 223.568C334.068 224.892 335.226 226.784 336.315 229.054C338.485 233.583 340.404 239.68 339.253 245.81C338.113 251.887 335.635 255.714 333.421 258.025C332.315 259.179 331.279 259.952 330.513 260.439C330.131 260.682 329.816 260.854 329.594 260.966C329.482 261.022 329.395 261.063 329.333 261.091C329.302 261.105 329.278 261.115 329.261 261.122L329.24 261.131L329.234 261.134L329.232 261.135L329.231 261.135C329.231 261.135 329.23 261.135 329.053 260.692ZM329.053 260.692L328.76 261.069C328.894 261.173 329.073 261.198 329.23 261.135L329.053 260.692ZM329.129 260.131C329.141 260.126 329.152 260.12 329.164 260.114C329.36 260.015 329.647 259.859 330.001 259.634C330.71 259.183 331.685 258.458 332.732 257.365C334.821 255.184 337.21 251.525 338.316 245.634C339.412 239.795 337.588 233.919 335.454 229.466C334.39 227.246 333.256 225.395 332.388 224.099C331.955 223.451 331.588 222.943 331.331 222.598C331.312 222.573 331.294 222.549 331.276 222.526C331.036 222.81 330.69 223.23 330.275 223.771C329.444 224.856 328.335 226.428 327.225 228.37C325.003 232.26 322.8 237.601 322.8 243.475C322.8 249.37 324.455 253.59 326.097 256.33C326.919 257.702 327.739 258.705 328.35 259.362C328.656 259.69 328.909 259.932 329.084 260.09C329.1 260.105 329.115 260.118 329.129 260.131Z" fill="#263238"/>
<path fill-rule="evenodd" clip-rule="evenodd" d="M330.818 232.791C331.081 232.808 331.28 233.035 331.263 233.298L329.549 259.734C329.532 259.996 329.305 260.196 329.042 260.179C328.779 260.162 328.58 259.935 328.597 259.672L330.311 233.236C330.328 232.973 330.555 232.774 330.818 232.791Z" fill="#263238"/>
<path fill-rule="evenodd" clip-rule="evenodd" d="M348.444 267.602C348.669 267.738 348.742 268.032 348.606 268.257C343.955 275.967 339.979 284.065 336.722 292.46C336.626 292.705 336.35 292.827 336.104 292.732C335.859 292.637 335.737 292.36 335.832 292.114C339.109 283.669 343.109 275.522 347.789 267.764C347.925 267.539 348.218 267.466 348.444 267.602Z" fill="#263238"/>
<path d="M344.674 274.373C344.674 274.373 340.936 266.694 346.223 255.975C351.51 245.255 363.866 240.481 363.866 240.481C363.866 240.481 367.304 255.52 359.993 265.271C352.682 275.022 344.674 274.373 344.674 274.373Z" fill="#50BFD7"/>
<path fill-rule="evenodd" clip-rule="evenodd" d="M364.33 240.377L363.865 240.483L363.693 240.038C363.822 239.989 363.967 239.997 364.089 240.062C364.211 240.127 364.299 240.242 364.33 240.377ZM344.673 274.375C344.244 274.584 344.243 274.584 344.243 274.583L344.242 274.581L344.239 274.575L344.229 274.554C344.221 274.537 344.21 274.512 344.196 274.48C344.167 274.415 344.127 274.322 344.079 274.201C343.982 273.958 343.852 273.603 343.714 273.146C343.438 272.231 343.129 270.903 342.989 269.236C342.709 265.898 343.109 261.211 345.794 255.766C348.488 250.303 352.973 246.373 356.759 243.815C358.655 242.534 360.384 241.592 361.64 240.969C362.268 240.658 362.779 240.426 363.133 240.272C363.311 240.195 363.449 240.137 363.544 240.098C363.592 240.079 363.628 240.064 363.653 240.054L363.682 240.043L363.69 240.04L363.692 240.039L363.693 240.038C363.693 240.038 363.693 240.038 363.865 240.483C364.33 240.377 364.33 240.377 364.33 240.377L364.331 240.381L364.333 240.39L364.341 240.425C364.347 240.455 364.357 240.5 364.369 240.558C364.393 240.673 364.427 240.843 364.467 241.062C364.549 241.499 364.656 242.133 364.761 242.923C364.971 244.502 365.174 246.71 365.147 249.227C365.092 254.248 364.117 260.565 360.373 265.559C356.661 270.51 352.755 272.841 349.753 273.929C348.255 274.472 346.987 274.704 346.088 274.799C345.639 274.846 345.282 274.86 345.034 274.861C344.91 274.862 344.813 274.859 344.746 274.857C344.712 274.855 344.686 274.854 344.667 274.853L344.645 274.852L344.638 274.851L344.636 274.851C344.635 274.851 344.634 274.851 344.673 274.375ZM344.673 274.375L344.243 274.583C344.317 274.735 344.466 274.837 344.634 274.851L344.673 274.375ZM344.989 273.907C345.002 273.907 345.015 273.907 345.028 273.907C345.247 273.906 345.572 273.894 345.988 273.85C346.819 273.762 348.01 273.546 349.428 273.032C352.258 272.006 356.011 269.787 359.61 264.987C363.177 260.229 364.139 254.152 364.193 249.216C364.22 246.755 364.021 244.594 363.815 243.048C363.712 242.276 363.608 241.659 363.529 241.236C363.524 241.205 363.518 241.176 363.513 241.147C363.171 241.296 362.676 241.521 362.064 241.824C360.838 242.432 359.147 243.353 357.293 244.606C353.579 247.115 349.242 250.931 346.65 256.188C344.048 261.463 343.673 265.974 343.94 269.156C344.074 270.748 344.368 272.01 344.628 272.87C344.758 273.3 344.878 273.629 344.966 273.848C344.974 273.869 344.982 273.888 344.989 273.907Z" fill="#263238"/>
<path fill-rule="evenodd" clip-rule="evenodd" d="M358.544 251.57C358.769 251.706 358.84 252 358.704 252.225L345.079 274.623C344.942 274.848 344.649 274.919 344.424 274.782C344.198 274.645 344.127 274.352 344.264 274.127L357.888 251.729C358.025 251.504 358.319 251.433 358.544 251.57Z" fill="#263238"/>
<path fill-rule="evenodd" clip-rule="evenodd" d="M313.038 266.537C313.266 266.404 313.558 266.482 313.691 266.71L318.933 275.742C322.391 281.939 325.164 288.494 327.204 295.291C327.28 295.543 327.137 295.809 326.885 295.885C326.632 295.961 326.366 295.818 326.291 295.565C324.271 288.836 321.525 282.346 318.102 276.21L312.865 267.189C312.733 266.961 312.811 266.669 313.038 266.537Z" fill="#263238"/>
<path d="M317.49 273.927C313.356 275.196 308.968 275.398 304.735 274.515C300.502 273.631 296.562 271.69 293.281 268.872C281.661 259.111 282.31 239.192 282.31 239.192C282.31 239.192 304.834 235.977 313.926 248.74C316.562 252.314 318.268 256.487 318.89 260.883C319.512 265.28 319.031 269.762 317.49 273.927Z" fill="#50BFD7"/>
<path fill-rule="evenodd" clip-rule="evenodd" d="M282.312 239.195C281.835 239.179 281.835 239.18 281.835 239.18L281.835 239.184L281.834 239.196L281.833 239.241C281.832 239.281 281.831 239.339 281.83 239.415C281.828 239.566 281.827 239.788 281.83 240.074C281.835 240.645 281.855 241.469 281.916 242.488C282.037 244.525 282.322 247.344 282.973 250.471C284.271 256.711 287.045 264.256 292.974 269.238C296.315 272.107 300.328 274.084 304.639 274.984C308.951 275.884 313.421 275.678 317.631 274.385L317.491 273.929L317.939 274.095C319.507 269.856 319.997 265.294 319.364 260.819C318.731 256.345 316.996 252.099 314.314 248.463C309.648 241.916 301.572 239.505 294.766 238.709C291.35 238.309 288.223 238.313 285.952 238.415C284.815 238.467 283.891 238.543 283.25 238.607C282.93 238.639 282.68 238.667 282.509 238.688C282.424 238.699 282.358 238.707 282.314 238.713L282.263 238.72L282.25 238.722L282.245 238.722C282.245 238.723 282.244 238.723 282.312 239.195ZM282.783 239.617C282.782 239.74 282.782 239.89 282.784 240.066C282.788 240.622 282.808 241.43 282.868 242.431C282.988 244.434 283.268 247.205 283.907 250.277C285.189 256.436 287.901 263.73 293.59 268.509L293.594 268.512C296.813 271.278 300.68 273.183 304.834 274.05C308.911 274.901 313.135 274.726 317.125 273.541C318.574 269.514 319.019 265.193 318.419 260.952C317.808 256.634 316.133 252.536 313.544 249.026L313.539 249.019C309.113 242.806 301.381 240.443 294.655 239.657C291.303 239.265 288.23 239.267 285.995 239.368C284.877 239.419 283.971 239.494 283.344 239.556C283.12 239.579 282.932 239.599 282.783 239.617ZM282.312 239.195L282.245 238.722C282.016 238.755 281.842 238.948 281.835 239.18L282.312 239.195Z" fill="#263238"/>
<path fill-rule="evenodd" clip-rule="evenodd" d="M290.463 245.766C290.653 245.583 290.955 245.589 291.138 245.78L317.835 273.6C318.017 273.79 318.011 274.092 317.821 274.274C317.631 274.457 317.329 274.451 317.146 274.26L290.449 246.44C290.267 246.25 290.273 245.948 290.463 245.766Z" fill="#263238"/>
<path d="M345.136 287.352H316.638V315.298H345.136V287.352Z" fill="#263238"/>
<path fill-rule="evenodd" clip-rule="evenodd" d="M316.162 287.348C316.162 287.085 316.376 286.871 316.639 286.871H345.137C345.401 286.871 345.614 287.085 345.614 287.348V315.294C345.614 315.558 345.401 315.771 345.137 315.771H316.639C316.376 315.771 316.162 315.558 316.162 315.294V287.348ZM317.116 287.825V314.817H344.66V287.825H317.116Z" fill="#263238"/>
<path opacity="0.3" d="M391.111 10.5317H189.243V188.65H391.111V10.5317Z" fill="black"/>
<path d="M396.178 1.42969H194.311V179.548H396.178V1.42969Z" fill="white"/>
<path fill-rule="evenodd" clip-rule="evenodd" d="M193.131 1.42999C193.131 0.778838 193.659 0.250977 194.31 0.250977H396.177C396.828 0.250977 397.356 0.778838 397.356 1.42999V179.548C397.356 180.199 396.828 180.727 396.177 180.727H194.31C193.659 180.727 193.131 180.199 193.131 179.548V1.42999ZM195.489 2.609V178.369H394.998V2.609H195.489Z" fill="#263238"/>
<path d="M396.178 1.42969H194.311V14.1592H396.178V1.42969Z" fill="#263238"/>
<path fill-rule="evenodd" clip-rule="evenodd" d="M193.131 1.42999C193.131 0.778838 193.659 0.250977 194.31 0.250977H396.177C396.828 0.250977 397.356 0.778838 397.356 1.42999V14.1595C397.356 14.8107 396.828 15.3385 396.177 15.3385H194.31C193.659 15.3385 193.131 14.8107 193.131 14.1595V1.42999ZM195.489 2.609V12.9805H394.998V2.609H195.489Z" fill="#263238"/>
<path d="M282.625 77.713V58.9354C282.625 55.5215 283.981 52.2475 286.395 49.8335C288.809 47.4195 292.083 46.0634 295.497 46.0634C298.911 46.0634 302.185 47.4195 304.599 49.8335C307.013 52.2475 308.369 55.5215 308.369 58.9354V69.9075H313.499V58.9354C313.499 54.161 311.602 49.5822 308.226 46.2062C304.85 42.8302 300.271 40.9336 295.497 40.9336C290.723 40.9336 286.144 42.8302 282.768 46.2062C279.392 49.5822 277.495 54.161 277.495 58.9354V77.713H282.625Z" fill="white"/>
<path fill-rule="evenodd" clip-rule="evenodd" d="M281.933 45.3743C285.53 41.7772 290.409 39.7563 295.496 39.7563C300.583 39.7563 305.462 41.7772 309.059 45.3743C312.656 48.9714 314.677 53.8501 314.677 58.9372V69.9093C314.677 70.5604 314.149 71.0883 313.498 71.0883H308.368C307.717 71.0883 307.189 70.5604 307.189 69.9093V58.9372C307.189 55.836 305.957 52.8618 303.764 50.669C301.572 48.4761 298.597 47.2442 295.496 47.2442C292.395 47.2442 289.421 48.4761 287.228 50.669C285.035 52.8618 283.803 55.836 283.803 58.9372V77.7148C283.803 78.366 283.275 78.8938 282.624 78.8938H277.494C276.843 78.8938 276.315 78.366 276.315 77.7148V58.9372C276.315 53.8501 278.336 48.9714 281.933 45.3743ZM295.496 42.1144C291.035 42.1144 286.756 43.8868 283.601 47.0416C280.446 50.1965 278.673 54.4755 278.673 58.9372V76.5358H281.445V58.9372C281.445 55.2106 282.926 51.6367 285.561 49.0016C288.196 46.3665 291.77 44.8861 295.496 44.8861C299.223 44.8861 302.797 46.3665 305.432 49.0016C308.067 51.6367 309.547 55.2106 309.547 58.9372V68.7302H312.319V58.9372C312.319 54.4755 310.547 50.1965 307.392 47.0416C304.237 43.8868 299.958 42.1144 295.496 42.1144Z" fill="#263238"/>
<path d="M314.891 75.8755H275.578V108.396H314.891V75.8755Z" fill="#50BFD7"/>
<path fill-rule="evenodd" clip-rule="evenodd" d="M274.4 75.8758C274.4 75.2246 274.928 74.6968 275.579 74.6968H314.892C315.543 74.6968 316.071 75.2246 316.071 75.8758V108.396C316.071 109.047 315.543 109.575 314.892 109.575H275.579C274.928 109.575 274.4 109.047 274.4 108.396V75.8758ZM276.758 77.0548V107.217H313.713V77.0548H276.758Z" fill="#263238"/>
<path fill-rule="evenodd" clip-rule="evenodd" d="M323.518 57.0454C324.115 57.3064 324.387 58.0016 324.126 58.5982L321.577 64.4246C321.316 65.0212 320.621 65.2932 320.024 65.0322C319.428 64.7712 319.156 64.076 319.417 63.4795L321.966 57.653C322.227 57.0565 322.922 56.7844 323.518 57.0454Z" fill="#263238"/>
<path fill-rule="evenodd" clip-rule="evenodd" d="M319.681 70.8553C319.681 70.2041 320.209 69.6763 320.86 69.6763H330.328C330.979 69.6763 331.507 70.2041 331.507 70.8553C331.507 71.5064 330.979 72.0343 330.328 72.0343H320.86C320.209 72.0343 319.681 71.5064 319.681 70.8553Z" fill="#263238"/>
<path fill-rule="evenodd" clip-rule="evenodd" d="M318.963 76.549C319.439 76.1047 320.186 76.1305 320.63 76.6065L325.728 82.0688C326.172 82.5448 326.147 83.2909 325.67 83.7352C325.194 84.1795 324.448 84.1537 324.004 83.6777L318.906 78.2154C318.462 77.7394 318.487 76.9933 318.963 76.549Z" fill="#263238"/>
<path d="M299.327 89.3809C299.342 88.6194 299.153 87.8676 298.782 87.2028C298.41 86.538 297.868 85.9842 297.211 85.5982C296.555 85.2121 295.807 85.0079 295.045 85.0064C294.284 85.0048 293.535 85.2061 292.877 85.5895C292.219 85.9729 291.675 86.5245 291.3 87.1879C290.926 87.8512 290.735 88.6022 290.747 89.3638C290.758 90.1254 290.973 90.8701 291.368 91.5214C291.763 92.1728 292.324 92.7072 292.994 93.07L292.281 100.464H297.775L297.063 93.07C297.742 92.7217 298.312 92.1933 298.712 91.5427C299.111 90.8921 299.324 90.1443 299.327 89.3809Z" fill="#263238"/>
<path fill-rule="evenodd" clip-rule="evenodd" d="M292.285 84.5695C293.124 84.0808 294.078 83.8242 295.049 83.8262C296.02 83.8281 296.973 84.0885 297.81 84.5806C298.647 85.0727 299.338 85.7787 299.812 86.6262C300.284 87.471 300.524 88.4259 300.507 89.3936C300.507 89.3966 300.507 89.3997 300.507 89.4028L299.328 89.3798L300.507 89.3844C300.507 89.3874 300.507 89.3905 300.507 89.3936C300.501 90.3699 300.228 91.3261 299.718 92.1583C299.351 92.7564 298.871 93.274 298.308 93.6838L298.237 92.9557L297.064 93.0688L297.602 94.1179C297.849 93.9912 298.085 93.846 298.308 93.6838L298.95 100.35C298.982 100.68 298.872 101.009 298.649 101.255C298.426 101.501 298.109 101.642 297.776 101.642H292.282C291.95 101.642 291.633 101.501 291.41 101.255C291.186 101.009 291.077 100.68 291.109 100.35L291.753 93.6688C291.968 93.8304 292.195 93.9765 292.433 94.1055L292.995 93.0688L291.821 92.9557L291.753 93.6688C291.197 93.2513 290.724 92.7301 290.361 92.1315C289.857 91.3011 289.584 90.3518 289.569 89.3809C289.554 88.4101 289.798 87.4527 290.275 86.6071C290.752 85.7615 291.446 85.0583 292.285 84.5695ZM293.58 99.2837H292.282V100.463L293.456 100.576L293.58 99.2837ZM296.478 99.2837H297.776V100.463L296.603 100.576L296.478 99.2837Z" fill="#263238"/>
<path d="M365.621 121.647H224.852C221.354 121.647 218.519 124.482 218.519 127.98V143.005C218.519 146.503 221.354 149.338 224.852 149.338H365.621C369.118 149.338 371.954 146.503 371.954 143.005V127.98C371.954 124.482 369.118 121.647 365.621 121.647Z" fill="white"/>
<path fill-rule="evenodd" clip-rule="evenodd" d="M224.851 122.827C222.004 122.827 219.697 125.135 219.697 127.981V143.007C219.697 145.853 222.004 148.161 224.851 148.161H365.62C368.466 148.161 370.774 145.853 370.774 143.007V127.981C370.774 125.135 368.466 122.827 365.62 122.827H224.851ZM217.339 127.981C217.339 123.833 220.702 120.469 224.851 120.469H365.62C369.769 120.469 373.132 123.833 373.132 127.981V143.007C373.132 147.155 369.769 150.519 365.62 150.519H224.851C220.702 150.519 217.339 147.155 217.339 143.007V127.981Z" fill="#263238"/>
<path d="M233.416 136.372C233.199 136.332 232.993 136.244 232.813 136.115C232.634 135.985 232.486 135.817 232.38 135.623C232.274 135.429 232.212 135.213 232.2 134.992C232.187 134.772 232.224 134.551 232.308 134.346L232.387 134.14C232.45 133.937 232.557 133.749 232.699 133.59C232.841 133.431 233.015 133.305 233.21 133.219C233.405 133.134 233.617 133.091 233.83 133.094C234.043 133.097 234.253 133.146 234.445 133.237C235.736 133.735 236.964 134.384 238.103 135.169C237.699 133.799 237.465 132.385 237.406 130.958C237.393 130.742 237.424 130.526 237.498 130.322C237.572 130.119 237.686 129.933 237.835 129.776C237.983 129.619 238.162 129.494 238.361 129.408C238.559 129.323 238.773 129.279 238.989 129.279H239.211C239.427 129.279 239.641 129.323 239.84 129.408C240.038 129.494 240.217 129.619 240.365 129.776C240.514 129.933 240.628 130.119 240.702 130.322C240.776 130.526 240.807 130.742 240.794 130.958C240.734 132.383 240.505 133.797 240.113 135.169C241.254 134.397 242.475 133.749 243.755 133.237C243.949 133.144 244.162 133.094 244.377 133.092C244.593 133.089 244.806 133.134 245.002 133.223C245.199 133.312 245.373 133.443 245.513 133.607C245.653 133.771 245.756 133.964 245.813 134.172V134.314C245.906 134.518 245.951 134.74 245.945 134.964C245.939 135.188 245.881 135.408 245.778 135.606C245.674 135.805 245.526 135.977 245.346 136.11C245.165 136.242 244.957 136.332 244.737 136.372C243.408 136.728 242.042 136.93 240.668 136.974C241.794 137.802 242.814 138.764 243.707 139.84C243.838 140.003 243.935 140.19 243.993 140.39C244.051 140.591 244.069 140.801 244.045 141.009C244.022 141.216 243.957 141.417 243.856 141.599C243.754 141.782 243.618 141.943 243.454 142.072L243.28 142.215C243.11 142.359 242.91 142.463 242.694 142.519C242.478 142.576 242.252 142.583 242.034 142.54C241.815 142.498 241.608 142.407 241.429 142.273C241.25 142.14 241.104 141.969 241 141.771C240.239 140.603 239.607 139.356 239.116 138.051C238.598 139.352 237.951 140.599 237.184 141.771C237.081 141.969 236.934 142.14 236.755 142.273C236.576 142.407 236.37 142.498 236.151 142.54C235.932 142.583 235.706 142.576 235.491 142.519C235.275 142.463 235.074 142.359 234.904 142.215L234.746 142.072C234.581 141.944 234.443 141.784 234.34 141.602C234.237 141.42 234.171 141.22 234.146 141.012C234.121 140.804 234.138 140.594 234.194 140.393C234.251 140.192 234.347 140.004 234.477 139.84C235.391 138.764 236.415 137.788 237.533 136.927C236.142 136.919 234.759 136.733 233.416 136.372Z" fill="#263238"/>
<path d="M249.47 136.372C249.252 136.332 249.046 136.244 248.867 136.115C248.688 135.985 248.54 135.817 248.433 135.623C248.327 135.429 248.266 135.213 248.253 134.992C248.241 134.772 248.278 134.551 248.362 134.346L248.441 134.14C248.504 133.937 248.61 133.749 248.752 133.59C248.894 133.431 249.069 133.305 249.264 133.219C249.459 133.134 249.67 133.091 249.883 133.094C250.097 133.097 250.306 133.146 250.499 133.237C251.79 133.735 253.017 134.384 254.156 135.169C253.752 133.799 253.518 132.385 253.46 130.958C253.447 130.742 253.478 130.526 253.552 130.322C253.626 130.119 253.74 129.933 253.888 129.776C254.037 129.619 254.216 129.494 254.414 129.408C254.613 129.323 254.827 129.279 255.043 129.279H255.17C255.386 129.279 255.6 129.323 255.798 129.408C255.997 129.494 256.176 129.619 256.324 129.776C256.472 129.933 256.587 130.119 256.661 130.322C256.735 130.526 256.766 130.742 256.753 130.958C256.693 132.383 256.464 133.797 256.072 135.169C257.213 134.397 258.434 133.749 259.714 133.237C259.911 133.159 260.122 133.121 260.334 133.126C260.546 133.131 260.755 133.178 260.949 133.265C261.142 133.352 261.316 133.477 261.46 133.633C261.604 133.789 261.716 133.972 261.788 134.172V134.314C261.88 134.518 261.925 134.74 261.919 134.964C261.913 135.188 261.856 135.408 261.752 135.606C261.648 135.805 261.501 135.977 261.32 136.11C261.14 136.242 260.931 136.332 260.711 136.372C259.382 136.728 258.017 136.93 256.642 136.974C257.768 137.802 258.789 138.764 259.682 139.84C259.813 140.003 259.91 140.19 259.968 140.39C260.026 140.591 260.043 140.801 260.02 141.009C259.996 141.216 259.932 141.417 259.83 141.599C259.729 141.782 259.592 141.943 259.429 142.072L259.254 142.215C259.086 142.359 258.887 142.463 258.672 142.519C258.458 142.575 258.233 142.583 258.015 142.54C257.798 142.497 257.592 142.406 257.415 142.273C257.237 142.14 257.092 141.968 256.99 141.771C256.217 140.608 255.58 139.359 255.09 138.051C254.572 139.352 253.925 140.599 253.159 141.771C253.055 141.969 252.908 142.14 252.73 142.273C252.551 142.407 252.344 142.498 252.125 142.54C251.906 142.583 251.681 142.576 251.465 142.519C251.249 142.463 251.049 142.359 250.879 142.215L250.721 142.072C250.556 141.944 250.418 141.784 250.315 141.602C250.212 141.42 250.146 141.22 250.121 141.012C250.096 140.804 250.112 140.594 250.169 140.393C250.226 140.192 250.322 140.004 250.451 139.84C251.365 138.764 252.389 137.788 253.507 136.927C252.143 136.912 250.787 136.726 249.47 136.372Z" fill="#263238"/>
<path d="M265.526 136.372C265.316 136.318 265.12 136.222 264.949 136.089C264.779 135.956 264.637 135.789 264.533 135.599C264.429 135.409 264.365 135.2 264.346 134.984C264.326 134.769 264.35 134.551 264.418 134.346V134.14C264.481 133.937 264.587 133.749 264.729 133.59C264.872 133.431 265.046 133.305 265.241 133.219C265.436 133.134 265.647 133.091 265.861 133.094C266.074 133.097 266.284 133.146 266.476 133.237C267.767 133.735 268.995 134.384 270.133 135.169C269.735 133.798 269.506 132.384 269.453 130.958C269.44 130.742 269.471 130.526 269.545 130.322C269.618 130.119 269.733 129.933 269.881 129.776C270.03 129.619 270.209 129.494 270.407 129.408C270.606 129.323 270.82 129.279 271.036 129.279H271.258C271.474 129.279 271.688 129.323 271.886 129.408C272.085 129.494 272.264 129.619 272.412 129.776C272.56 129.933 272.675 130.119 272.749 130.322C272.822 130.526 272.854 130.742 272.841 130.958C272.78 132.383 272.552 133.797 272.16 135.169C273.301 134.397 274.522 133.749 275.802 133.237C275.999 133.159 276.21 133.121 276.422 133.126C276.634 133.131 276.843 133.178 277.036 133.265C277.23 133.352 277.404 133.477 277.548 133.633C277.692 133.789 277.804 133.972 277.876 134.172V134.314C277.968 134.517 278.014 134.738 278.009 134.961C278.003 135.184 277.948 135.403 277.845 135.601C277.743 135.799 277.597 135.972 277.419 136.105C277.24 136.239 277.034 136.33 276.815 136.372C275.48 136.727 274.11 136.928 272.73 136.974C273.856 137.802 274.877 138.764 275.77 139.84C275.901 140.003 275.998 140.19 276.056 140.39C276.114 140.591 276.131 140.801 276.108 141.009C276.084 141.216 276.02 141.417 275.918 141.599C275.817 141.782 275.68 141.943 275.517 142.072L275.342 142.215C275.174 142.359 274.975 142.463 274.76 142.519C274.545 142.575 274.321 142.583 274.103 142.54C273.886 142.497 273.68 142.406 273.503 142.273C273.325 142.14 273.18 141.968 273.078 141.771C272.311 140.604 271.674 139.356 271.178 138.051C270.66 139.352 270.013 140.599 269.247 141.771C269.145 141.968 269 142.14 268.822 142.273C268.645 142.406 268.44 142.497 268.222 142.54C268.004 142.583 267.78 142.575 267.565 142.519C267.35 142.463 267.151 142.359 266.983 142.215L266.809 142.072C266.644 141.944 266.506 141.784 266.403 141.602C266.3 141.42 266.234 141.22 266.209 141.012C266.184 140.804 266.2 140.594 266.257 140.393C266.314 140.192 266.41 140.004 266.539 139.84C267.453 138.764 268.477 137.788 269.595 136.927C268.221 136.915 266.853 136.729 265.526 136.372Z" fill="#263238"/>
<path d="M281.58 136.372C281.37 136.318 281.174 136.222 281.003 136.089C280.832 135.956 280.691 135.789 280.587 135.599C280.483 135.409 280.419 135.2 280.399 134.984C280.379 134.769 280.404 134.551 280.472 134.346V134.14C280.535 133.937 280.641 133.749 280.783 133.59C280.925 133.431 281.1 133.305 281.295 133.219C281.49 133.134 281.701 133.091 281.914 133.094C282.127 133.097 282.337 133.146 282.53 133.237C283.821 133.735 285.048 134.384 286.187 135.169C285.795 133.797 285.567 132.383 285.506 130.958C285.493 130.742 285.525 130.526 285.598 130.322C285.672 130.119 285.787 129.933 285.935 129.776C286.083 129.619 286.262 129.494 286.461 129.408C286.659 129.323 286.873 129.279 287.09 129.279H287.311C287.527 129.279 287.741 129.323 287.94 129.408C288.138 129.494 288.317 129.619 288.466 129.776C288.614 129.933 288.729 130.119 288.802 130.322C288.876 130.526 288.907 130.742 288.894 130.958C288.834 132.383 288.606 133.797 288.214 135.169C289.355 134.397 290.576 133.749 291.855 133.237C292.052 133.159 292.263 133.121 292.476 133.126C292.688 133.131 292.897 133.178 293.09 133.265C293.284 133.352 293.458 133.477 293.602 133.633C293.746 133.789 293.857 133.972 293.929 134.172V134.314C294.022 134.517 294.067 134.738 294.062 134.961C294.057 135.184 294.001 135.403 293.899 135.601C293.797 135.799 293.651 135.972 293.473 136.105C293.294 136.239 293.087 136.33 292.869 136.372C291.534 136.727 290.164 136.928 288.784 136.974C289.91 137.802 290.931 138.764 291.824 139.84C291.954 140.003 292.051 140.19 292.109 140.39C292.167 140.591 292.185 140.801 292.161 141.009C292.138 141.216 292.074 141.417 291.972 141.599C291.871 141.782 291.734 141.943 291.57 142.072L291.396 142.215C291.227 142.359 291.028 142.463 290.814 142.519C290.599 142.575 290.375 142.583 290.157 142.54C289.939 142.497 289.734 142.406 289.556 142.273C289.379 142.14 289.234 141.968 289.132 141.771C288.365 140.604 287.728 139.356 287.232 138.051C286.699 139.354 286.036 140.601 285.253 141.771C285.151 141.968 285.006 142.14 284.828 142.273C284.651 142.406 284.446 142.497 284.228 142.54C284.01 142.583 283.786 142.575 283.571 142.519C283.357 142.463 283.158 142.359 282.989 142.215L282.815 142.072C282.65 141.944 282.512 141.784 282.409 141.602C282.306 141.42 282.24 141.22 282.215 141.012C282.19 140.804 282.206 140.594 282.263 140.393C282.32 140.192 282.416 140.004 282.546 139.84C283.459 138.764 284.483 137.788 285.601 136.927C284.243 136.911 282.892 136.725 281.58 136.372Z" fill="#263238"/>
<path d="M297.634 136.372C297.424 136.318 297.228 136.222 297.057 136.089C296.886 135.956 296.744 135.789 296.64 135.599C296.537 135.409 296.473 135.2 296.453 134.984C296.433 134.769 296.458 134.551 296.525 134.346L296.604 134.14C296.68 133.943 296.793 133.763 296.939 133.611C297.084 133.459 297.259 133.337 297.452 133.253C297.645 133.169 297.853 133.124 298.064 133.122C298.274 133.119 298.483 133.158 298.678 133.237C299.963 133.739 301.185 134.387 302.32 135.169C301.928 133.797 301.7 132.383 301.639 130.958C301.626 130.742 301.658 130.526 301.731 130.322C301.805 130.119 301.92 129.933 302.068 129.776C302.216 129.619 302.395 129.494 302.594 129.408C302.792 129.323 303.006 129.279 303.222 129.279H303.444C303.66 129.279 303.874 129.323 304.073 129.408C304.271 129.494 304.45 129.619 304.599 129.776C304.747 129.933 304.862 130.119 304.935 130.322C305.009 130.526 305.04 130.742 305.027 130.958C304.967 132.383 304.739 133.797 304.347 135.169C305.488 134.397 306.709 133.749 307.988 133.237C308.185 133.159 308.396 133.121 308.608 133.126C308.821 133.131 309.03 133.178 309.223 133.265C309.417 133.352 309.591 133.477 309.735 133.633C309.879 133.789 309.99 133.972 310.062 134.172V134.314C310.155 134.517 310.2 134.738 310.195 134.961C310.19 135.184 310.134 135.403 310.032 135.601C309.93 135.799 309.784 135.972 309.605 136.105C309.427 136.239 309.22 136.33 309.001 136.372C307.667 136.727 306.297 136.928 304.917 136.974C306.043 137.802 307.063 138.764 307.956 139.84C308.087 140.003 308.184 140.19 308.242 140.39C308.3 140.591 308.318 140.801 308.294 141.009C308.271 141.216 308.206 141.417 308.105 141.599C308.004 141.782 307.867 141.943 307.703 142.072L307.529 142.215C307.36 142.359 307.161 142.463 306.947 142.519C306.732 142.575 306.508 142.583 306.29 142.54C306.072 142.497 305.867 142.406 305.689 142.273C305.512 142.14 305.367 141.968 305.265 141.771C304.498 140.604 303.861 139.356 303.365 138.051C302.847 139.352 302.2 140.599 301.433 141.771C301.331 141.968 301.186 142.14 301.009 142.273C300.831 142.406 300.626 142.497 300.408 142.54C300.191 142.583 299.966 142.575 299.752 142.519C299.537 142.463 299.338 142.359 299.169 142.215L298.995 142.072C298.82 141.951 298.672 141.795 298.562 141.612C298.453 141.429 298.384 141.225 298.36 141.014C298.336 140.802 298.357 140.588 298.423 140.385C298.489 140.183 298.598 139.997 298.742 139.84C299.646 138.76 300.665 137.784 301.782 136.927C300.381 136.922 298.987 136.735 297.634 136.372Z" fill="#263238"/>
<path d="M313.751 136.372C313.541 136.318 313.345 136.222 313.174 136.089C313.003 135.956 312.861 135.789 312.758 135.599C312.654 135.409 312.59 135.2 312.57 134.984C312.55 134.769 312.575 134.551 312.642 134.346L312.722 134.14C312.797 133.943 312.91 133.763 313.056 133.611C313.201 133.459 313.376 133.337 313.569 133.253C313.762 133.169 313.97 133.124 314.181 133.122C314.391 133.119 314.6 133.158 314.796 133.237C316.08 133.739 317.302 134.387 318.437 135.169C318.045 133.797 317.817 132.383 317.756 130.958C317.743 130.742 317.775 130.526 317.848 130.322C317.922 130.119 318.037 129.933 318.185 129.776C318.333 129.619 318.512 129.494 318.711 129.408C318.91 129.323 319.123 129.279 319.34 129.279H319.561C319.777 129.279 319.991 129.323 320.19 129.408C320.389 129.494 320.567 129.619 320.716 129.776C320.864 129.933 320.979 130.119 321.052 130.322C321.126 130.526 321.158 130.742 321.145 130.958C321.084 132.383 320.856 133.797 320.464 135.169C321.608 134.393 322.835 133.745 324.121 133.237C324.316 133.147 324.528 133.099 324.742 133.098C324.957 133.097 325.17 133.142 325.365 133.231C325.561 133.32 325.735 133.45 325.875 133.612C326.016 133.775 326.12 133.965 326.179 134.172V134.314C326.272 134.517 326.318 134.738 326.312 134.961C326.307 135.184 326.251 135.403 326.149 135.601C326.047 135.799 325.901 135.972 325.723 136.105C325.544 136.239 325.338 136.33 325.119 136.372C323.784 136.728 322.414 136.93 321.034 136.974C322.161 137.806 323.187 138.768 324.089 139.84C324.219 140.004 324.315 140.192 324.372 140.393C324.429 140.594 324.445 140.804 324.42 141.012C324.395 141.22 324.329 141.42 324.226 141.602C324.123 141.784 323.985 141.944 323.82 142.072L323.646 142.215C323.477 142.359 323.278 142.463 323.064 142.519C322.849 142.575 322.625 142.583 322.407 142.54C322.189 142.497 321.984 142.406 321.807 142.273C321.629 142.14 321.484 141.968 321.382 141.771C320.615 140.604 319.978 139.356 319.482 138.051C318.964 139.352 318.317 140.599 317.551 141.771C317.449 141.968 317.304 142.14 317.126 142.273C316.949 142.406 316.743 142.497 316.526 142.54C316.308 142.583 316.083 142.575 315.869 142.519C315.654 142.463 315.455 142.359 315.286 142.215L315.112 142.072C314.937 141.951 314.789 141.795 314.68 141.612C314.57 141.429 314.501 141.225 314.477 141.014C314.453 140.802 314.475 140.588 314.54 140.385C314.606 140.183 314.715 139.997 314.859 139.84C315.763 138.76 316.782 137.784 317.899 136.927C316.498 136.922 315.104 136.735 313.751 136.372Z" fill="#263238"/>
<path d="M329.759 136.372C329.548 136.32 329.35 136.225 329.178 136.092C329.005 135.96 328.862 135.794 328.756 135.604C328.651 135.414 328.586 135.204 328.565 134.987C328.544 134.771 328.568 134.553 328.635 134.346L328.715 134.14C328.79 133.943 328.903 133.763 329.049 133.611C329.194 133.459 329.369 133.337 329.562 133.253C329.755 133.169 329.963 133.124 330.174 133.122C330.384 133.119 330.593 133.158 330.789 133.237C332.073 133.739 333.295 134.387 334.43 135.169C334.038 133.797 333.81 132.383 333.749 130.958C333.736 130.742 333.768 130.526 333.841 130.322C333.915 130.119 334.03 129.933 334.178 129.776C334.326 129.619 334.505 129.494 334.704 129.408C334.903 129.323 335.116 129.279 335.333 129.279H335.554C335.77 129.279 335.984 129.323 336.183 129.408C336.381 129.494 336.56 129.619 336.709 129.776C336.857 129.933 336.972 130.119 337.045 130.322C337.119 130.526 337.15 130.742 337.138 130.958C337.079 132.385 336.845 133.799 336.441 135.169C337.585 134.393 338.812 133.745 340.098 133.237C340.293 133.147 340.505 133.099 340.72 133.098C340.934 133.097 341.147 133.142 341.342 133.231C341.538 133.32 341.712 133.45 341.852 133.612C341.993 133.775 342.097 133.965 342.157 134.172V134.314C342.249 134.518 342.294 134.74 342.288 134.964C342.282 135.188 342.225 135.408 342.121 135.606C342.017 135.805 341.869 135.977 341.689 136.11C341.509 136.242 341.3 136.332 341.08 136.372C339.746 136.728 338.375 136.93 336.995 136.974C338.122 137.806 339.148 138.768 340.051 139.84C340.18 140.004 340.277 140.192 340.333 140.393C340.39 140.594 340.406 140.804 340.381 141.012C340.356 141.22 340.29 141.42 340.187 141.602C340.085 141.784 339.947 141.944 339.782 142.072L339.623 142.215C339.453 142.359 339.253 142.463 339.037 142.519C338.821 142.576 338.596 142.583 338.377 142.54C338.158 142.498 337.952 142.407 337.773 142.273C337.594 142.14 337.447 141.969 337.343 141.771C336.576 140.607 335.944 139.358 335.459 138.051C334.936 139.353 334.284 140.6 333.512 141.771C333.41 141.968 333.265 142.14 333.087 142.273C332.91 142.406 332.705 142.497 332.487 142.54C332.269 142.583 332.045 142.575 331.83 142.519C331.616 142.463 331.416 142.359 331.248 142.215L331.074 142.072C330.898 141.951 330.751 141.795 330.641 141.612C330.531 141.429 330.462 141.225 330.438 141.014C330.414 140.802 330.436 140.588 330.502 140.385C330.568 140.183 330.676 139.997 330.82 139.84C331.724 138.76 332.743 137.784 333.86 136.927C332.475 136.92 331.097 136.734 329.759 136.372Z" fill="#263238"/>
<path d="M345.813 136.372C345.602 136.32 345.404 136.225 345.232 136.092C345.059 135.96 344.916 135.794 344.81 135.604C344.705 135.414 344.639 135.204 344.619 134.987C344.598 134.771 344.622 134.553 344.689 134.346V134.14C344.764 133.943 344.878 133.763 345.023 133.611C345.169 133.459 345.343 133.337 345.536 133.253C345.73 133.169 345.938 133.124 346.148 133.122C346.359 133.119 346.568 133.158 346.763 133.237C348.047 133.739 349.269 134.387 350.405 135.169C350.013 133.797 349.784 132.383 349.724 130.958C349.711 130.742 349.742 130.526 349.816 130.322C349.89 130.119 350.004 129.933 350.153 129.776C350.301 129.619 350.48 129.494 350.678 129.408C350.877 129.323 351.091 129.279 351.307 129.279H351.529C351.745 129.279 351.959 129.323 352.157 129.408C352.356 129.494 352.535 129.619 352.683 129.776C352.832 129.933 352.946 130.119 353.02 130.322C353.094 130.526 353.125 130.742 353.112 130.958C353.053 132.385 352.819 133.799 352.415 135.169C353.56 134.393 354.786 133.745 356.073 133.237C356.267 133.147 356.479 133.099 356.694 133.098C356.909 133.097 357.121 133.142 357.317 133.231C357.512 133.32 357.686 133.45 357.827 133.612C357.967 133.775 358.071 133.965 358.131 134.172V134.314C358.224 134.518 358.269 134.74 358.263 134.964C358.256 135.188 358.199 135.408 358.095 135.606C357.992 135.805 357.844 135.977 357.664 136.11C357.483 136.242 357.275 136.332 357.054 136.372C355.72 136.728 354.35 136.93 352.97 136.974C354.097 137.806 355.122 138.768 356.025 139.84C356.155 140.004 356.251 140.192 356.308 140.393C356.365 140.594 356.381 140.804 356.356 141.012C356.331 141.22 356.265 141.42 356.162 141.602C356.059 141.784 355.921 141.944 355.756 142.072L355.582 142.215C355.413 142.359 355.214 142.463 355 142.519C354.785 142.575 354.561 142.583 354.343 142.54C354.125 142.497 353.92 142.406 353.742 142.273C353.565 142.14 353.42 141.968 353.318 141.771C352.55 140.607 351.918 139.358 351.434 138.051C350.911 139.353 350.259 140.6 349.486 141.771C349.384 141.968 349.239 142.14 349.062 142.273C348.884 142.406 348.679 142.497 348.461 142.54C348.244 142.583 348.019 142.575 347.805 142.519C347.59 142.463 347.391 142.359 347.222 142.215L347.048 142.072C346.873 141.951 346.725 141.795 346.615 141.612C346.506 141.429 346.437 141.225 346.413 141.014C346.389 140.802 346.41 140.588 346.476 140.385C346.542 140.183 346.651 139.997 346.795 139.84C347.699 138.76 348.718 137.784 349.835 136.927C348.476 136.913 347.125 136.727 345.813 136.372Z" fill="#263238"/>
<path d="M202.98 292.881C192.11 291.887 181.375 291.481 181.375 291.481C177.431 291.601 169.03 291.948 160.358 292.881C162.888 301.523 171.469 307.891 181.661 307.891C191.869 307.906 200.45 301.508 202.98 292.881Z" fill="#50BFD7"/>
<path fill-rule="evenodd" clip-rule="evenodd" d="M362.34 315.654C362.34 315.352 362.584 315.108 362.885 315.108H380.849C381.15 315.108 381.394 315.352 381.394 315.654C381.394 315.955 381.15 316.199 380.849 316.199H362.885C362.584 316.199 362.34 315.955 362.34 315.654Z" fill="#2C2C2C"/>
<path fill-rule="evenodd" clip-rule="evenodd" d="M23.5938 315.654C23.5938 315.352 23.8378 315.108 24.1389 315.108H356.898C357.199 315.108 357.443 315.352 357.443 315.654C357.443 315.955 357.199 316.199 356.898 316.199H24.1389C23.8378 316.199 23.5938 315.955 23.5938 315.654Z" fill="#2C2C2C"/>
<path fill-rule="evenodd" clip-rule="evenodd" d="M0.197266 315.654C0.197266 315.352 0.44134 315.108 0.742422 315.108H13.0177C13.3188 315.108 13.5629 315.352 13.5629 315.654C13.5629 315.955 13.3188 316.199 13.0177 316.199H0.742422C0.44134 316.199 0.197266 315.955 0.197266 315.654Z" fill="#2C2C2C"/>
<path d="M188.876 176.749C188.876 179.929 185.573 182.507 181.498 182.507C177.423 182.507 174.12 179.929 174.12 176.749C174.12 173.568 177.423 170.99 181.498 170.99C185.573 170.99 188.876 173.568 188.876 176.749Z" fill="white"/>
<path fill-rule="evenodd" clip-rule="evenodd" d="M181.498 181.068C185.131 181.068 187.437 178.822 187.437 176.749C187.437 174.675 185.131 172.43 181.498 172.43C177.866 172.43 175.56 174.675 175.56 176.749C175.56 178.822 177.866 181.068 181.498 181.068ZM181.498 182.507C185.573 182.507 188.876 179.929 188.876 176.749C188.876 173.568 185.573 170.99 181.498 170.99C177.423 170.99 174.12 173.568 174.12 176.749C174.12 179.929 177.423 182.507 181.498 182.507Z" fill="#454545"/>
<path d="M254.297 331.801H109.016V336.297H254.297V331.801Z" fill="white"/>
<path fill-rule="evenodd" clip-rule="evenodd" d="M108.25 331.802C108.25 331.379 108.593 331.036 109.016 331.036H254.298C254.721 331.036 255.064 331.379 255.064 331.802V336.298C255.064 336.721 254.721 337.064 254.298 337.064H109.016C108.593 337.064 108.25 336.721 108.25 336.298V331.802ZM109.782 332.568V335.532H253.532V332.568H109.782Z" fill="#2C2C2C"/>
<path opacity="0.15" d="M162.76 176.234C161.239 175.298 159.831 174.322 158.485 173.346C159.07 172.318 161.681 167.889 161.968 165.412C162.256 162.936 161.968 159.945 160.108 158.219C159.692 157.794 159.191 157.462 158.638 157.244C158.085 157.025 157.493 156.926 156.899 156.951C156.305 156.976 155.723 157.126 155.191 157.39C154.658 157.654 154.188 158.028 153.809 158.486C151.61 161.312 153.531 167.468 155.33 170.109C155.422 170.253 156.583 171.609 157.385 172.575C156.779 172.123 156.152 171.671 155.587 171.229C153.449 169.564 151.599 167.909 149.976 166.43C149.051 165.587 148.239 164.796 147.489 164.056C147.561 162.802 147.787 157.746 146.923 155.454C146.06 153.162 144.375 150.624 141.949 149.915C141.388 149.728 140.795 149.661 140.206 149.718C139.617 149.774 139.047 149.954 138.532 150.244C138.017 150.535 137.569 150.93 137.216 151.404C136.863 151.878 136.613 152.421 136.482 152.998C135.835 156.513 140.377 161.096 143.183 162.617C143.429 162.751 147.458 164.354 147.468 164.292V164.22C148.187 164.95 148.958 165.721 149.811 166.553C151.414 168.064 153.233 169.759 155.34 171.475C157.587 173.355 159.944 175.099 162.4 176.696L163.941 177.652H165.205C164.404 177.21 163.561 176.727 162.76 176.234Z" fill="black"/>
<path opacity="0.15" d="M191.266 176.705C191.266 174.321 190.629 171.279 188.625 169.738C188.165 169.363 187.631 169.088 187.058 168.932C186.485 168.776 185.886 168.742 185.299 168.832C184.712 168.922 184.15 169.134 183.651 169.455C183.151 169.776 182.724 170.198 182.397 170.694C181.308 172.471 181.729 175.215 182.685 177.682H191.174C191.228 177.359 191.258 177.033 191.266 176.705Z" fill="black"/>
<path opacity="0.15" d="M182.943 132.412C185.728 132.649 191.637 130.501 191.637 130.501C191.637 130.501 189.037 127.038 188.852 126.843C186.622 124.551 180.97 121.437 177.764 123.03C177.231 123.308 176.764 123.696 176.393 124.168C176.022 124.64 175.755 125.186 175.611 125.77C175.468 126.353 175.45 126.96 175.558 127.551C175.667 128.141 175.9 128.702 176.243 129.196C177.589 131.282 180.559 132.207 182.943 132.412Z" fill="black"/>
<path opacity="0.15" d="M206.775 173.529C206.315 173.152 205.781 172.876 205.208 172.719C204.635 172.562 204.035 172.528 203.448 172.618C202.86 172.708 202.298 172.921 201.799 173.242C201.299 173.564 200.872 173.987 200.547 174.485C200.018 175.461 199.803 176.577 199.93 177.681H209.128C208.851 176.065 208.019 174.597 206.775 173.529Z" fill="black"/>
<path opacity="0.15" d="M174.732 172.408C174.732 170.024 174.095 166.982 172.091 165.451C171.632 165.072 171.099 164.795 170.525 164.637C169.952 164.479 169.351 164.444 168.763 164.535C168.175 164.625 167.613 164.838 167.114 165.161C166.614 165.483 166.188 165.908 165.864 166.407C164.014 169.407 166.501 175.193 168.566 177.711H173.386C174.102 176.022 174.556 174.234 174.732 172.408Z" fill="black"/>
<path d="M144.314 234.374C144.314 234.374 130.927 299.248 124.829 302.82C119.922 305.7 126.457 309.061 112.17 304.25L112.169 294.172L109.29 289.133L113.212 276.69C113.212 276.69 126.744 210.771 136.462 209.966C146.196 209.146 144.314 234.374 144.314 234.374Z" fill="#2C2C2C"/>
<path d="M235.69 229.147C235.69 229.147 252.151 293.31 248.24 299.197C245.096 303.939 252.444 304.088 237.495 306.04L233.069 296.986L228.27 293.723L226.33 280.822C226.33 280.822 209.54 215.657 217.918 210.666C226.303 205.655 235.69 229.147 235.69 229.147Z" fill="#2C2C2C"/>
<path d="M242.398 229.692C242.398 239.958 235.672 246.313 225.407 246.313C215.142 246.313 206.823 237.995 206.823 227.729C206.823 217.464 214.578 206.137 224.361 209.21C235.141 212.573 242.398 219.427 242.398 229.692Z" fill="white"/>
<path fill-rule="evenodd" clip-rule="evenodd" d="M212.413 213.887C209.354 217.496 207.465 222.745 207.465 227.732C207.465 237.642 215.495 245.672 225.405 245.672C230.404 245.672 234.48 244.127 237.302 241.393C240.122 238.661 241.752 234.683 241.752 229.695C241.752 219.822 234.801 213.144 224.167 209.827L224.166 209.827C219.594 208.39 215.462 210.289 212.413 213.887ZM224.551 208.599C219.341 206.962 214.705 209.191 211.431 213.054C208.166 216.907 206.178 222.454 206.178 227.732C206.178 238.353 214.784 246.959 225.405 246.959C230.671 246.959 235.091 245.327 238.198 242.317C241.307 239.305 243.039 234.972 243.039 229.695C243.039 219.038 235.477 212.007 224.551 208.599Z" fill="#2C2C2C"/>
<path d="M234.044 226.7C234.044 234.294 229.072 238.992 221.478 238.992C213.884 238.992 207.737 232.846 207.737 225.251C207.737 217.657 213.465 209.274 220.722 211.543C228.67 214.053 234.044 219.121 234.044 226.7Z" fill="#2C2C2C"/>
<path d="M117.701 229.692C117.701 239.957 124.427 246.312 134.692 246.312C144.957 246.312 153.259 237.978 153.259 227.729C153.259 217.48 145.504 206.137 135.722 209.21C124.958 212.572 117.701 219.427 117.701 229.692Z" fill="white"/>
<path fill-rule="evenodd" clip-rule="evenodd" d="M148.65 213.06C151.915 216.914 153.903 222.461 153.903 227.732C153.903 238.335 145.314 246.959 134.692 246.959C129.426 246.959 125.006 245.326 121.899 242.316C118.79 239.304 117.058 234.972 117.058 229.694C117.058 219.038 124.619 212.007 135.529 208.598C140.74 206.962 145.376 209.195 148.65 213.06ZM147.668 213.892C144.619 210.292 140.487 208.39 135.915 209.826L135.914 209.827C125.296 213.144 118.345 219.821 118.345 229.694C118.345 234.682 119.975 238.66 122.795 241.392C125.617 244.126 129.693 245.672 134.692 245.672C144.601 245.672 152.616 237.626 152.616 227.732C152.616 222.752 150.727 217.503 147.668 213.892Z" fill="#2C2C2C"/>
<path d="M126.066 226.7C126.066 234.294 131.038 238.992 138.632 238.992C146.227 238.992 152.373 232.846 152.373 225.251C152.373 217.657 146.645 209.274 139.405 211.543C131.424 214.053 126.066 219.121 126.066 226.7Z" fill="#2C2C2C"/>
<path d="M203.441 312.056C191.824 310.994 180.352 310.56 180.352 310.56C176.136 310.689 167.158 311.059 157.891 312.056C160.594 321.292 169.765 328.098 180.658 328.098C191.566 328.114 200.737 321.276 203.441 312.056Z" fill="#50BFD7"/>
<path d="M202.495 313.022C203.492 309.096 223.46 209.05 223.46 209.05C223.46 209.05 170.171 193.315 136.093 209.05L157.943 313.891L202.495 313.022Z" fill="white"/>
<path fill-rule="evenodd" clip-rule="evenodd" d="M223.639 208.434C223.64 208.435 223.64 208.435 223.458 209.052C224.089 209.178 224.089 209.178 224.089 209.179L224.088 209.182L223.865 210.302C223.718 211.036 223.503 212.113 223.229 213.484C222.681 216.228 221.897 220.151 220.954 224.872C219.066 234.312 216.539 246.941 213.981 259.692C208.868 285.176 203.621 311.198 203.117 313.182L202.996 313.657L157.42 314.546L135.356 208.682L135.821 208.468C153.025 200.524 175.014 200.541 192.625 202.511C201.444 203.498 209.194 204.978 214.739 206.211C217.512 206.827 219.734 207.383 221.265 207.784C222.03 207.985 222.623 208.147 223.024 208.259C223.225 208.315 223.379 208.359 223.482 208.389C223.534 208.404 223.573 208.415 223.599 208.423L223.629 208.431L223.637 208.434L223.639 208.434ZM223.458 209.052L224.089 209.178L224.204 208.601L223.64 208.435L223.458 209.052ZM222.711 209.508C222.7 209.505 222.689 209.502 222.678 209.499C222.282 209.388 221.697 209.228 220.938 209.029C219.422 208.631 217.215 208.08 214.459 207.467C208.948 206.242 201.245 204.771 192.482 203.791C175.091 201.845 153.632 201.844 136.826 209.424L158.462 313.238L201.98 312.39C202.892 308.3 207.857 283.67 212.719 259.439C215.277 246.688 217.804 234.06 219.691 224.619C220.635 219.899 221.419 215.976 221.967 213.232C222.241 211.861 222.456 210.784 222.602 210.05L222.711 209.508Z" fill="black"/>
<path d="M202.495 313.022C203.492 309.096 223.46 209.05 223.46 209.05C223.46 209.05 170.171 193.315 136.093 209.05L157.943 313.891L202.495 313.022Z" fill="white"/>
<path fill-rule="evenodd" clip-rule="evenodd" d="M223.639 208.434C223.64 208.435 223.64 208.435 223.458 209.052C224.089 209.178 224.089 209.178 224.089 209.179L224.088 209.182L223.865 210.302C223.718 211.036 223.503 212.113 223.229 213.484C222.681 216.228 221.897 220.151 220.954 224.872C219.066 234.312 216.539 246.941 213.981 259.692C208.868 285.176 203.621 311.198 203.117 313.182L202.996 313.657L157.42 314.546L135.356 208.682L135.821 208.468C153.025 200.524 175.014 200.541 192.625 202.511C201.444 203.498 209.194 204.978 214.739 206.211C217.512 206.827 219.734 207.383 221.265 207.784C222.03 207.985 222.623 208.147 223.024 208.259C223.225 208.315 223.379 208.359 223.482 208.389C223.534 208.404 223.573 208.415 223.599 208.423L223.629 208.431L223.637 208.434L223.639 208.434ZM223.458 209.052L224.089 209.178L224.204 208.601L223.64 208.435L223.458 209.052ZM222.711 209.508C222.7 209.505 222.689 209.502 222.678 209.499C222.282 209.388 221.697 209.228 220.938 209.029C219.422 208.631 217.215 208.08 214.459 207.467C208.948 206.242 201.245 204.771 192.482 203.791C175.091 201.845 153.632 201.844 136.826 209.424L158.462 313.238L201.98 312.39C202.892 308.3 207.857 283.67 212.719 259.439C215.277 246.688 217.804 234.06 219.691 224.619C220.635 219.899 221.419 215.976 221.967 213.232C222.241 211.861 222.456 210.784 222.602 210.05L222.711 209.508Z" fill="#2C2C2C"/>
<path d="M210.523 205.977C195.64 202.984 170.476 199.573 148.852 204.722C151.41 220.859 153.968 237.014 156.526 253.151C158.586 264.092 168.964 271.381 179.792 271.445C190.62 271.381 200.998 264.109 203.058 253.151C205.536 237.416 208.029 221.696 210.523 205.977Z" fill="#50BFD7"/>
<path fill-rule="evenodd" clip-rule="evenodd" d="M148.7 204.096C170.466 198.913 195.745 202.349 210.648 205.346L211.253 205.468L211.155 206.088C208.662 221.804 206.168 237.52 203.691 253.252L203.69 253.261L203.688 253.271C201.562 264.579 190.878 272.024 179.793 272.089L179.79 272.089L179.786 272.089C168.701 272.024 158.017 264.563 155.891 253.271L155.89 253.262L155.888 253.253C154.609 245.184 153.33 237.112 152.051 229.04L152.051 229.038C150.772 220.965 149.493 212.892 148.213 204.823L148.12 204.234L148.7 204.096ZM149.578 205.212C150.826 213.084 152.074 220.959 153.322 228.834L153.322 228.836C154.601 236.906 155.879 244.976 157.158 253.042C159.155 263.626 169.222 270.738 179.79 270.802C190.357 270.738 200.424 263.642 202.421 253.042C204.866 237.513 207.327 222 209.788 206.487C194.993 203.557 170.641 200.361 149.578 205.212Z" fill="#2C2C2C"/>
<path d="M177.942 211.691C183.026 211.691 190.926 210.146 190.926 205.078L189.623 188.151L188.481 173.349C188.481 168.264 184.362 164.162 179.293 164.162C176.751 164.162 174.467 165.191 172.793 166.849C171.136 168.506 170.09 170.807 170.09 173.349L168.964 188.167L167.886 202.375C166.438 210.95 177.942 211.691 177.942 211.691Z" fill="#2C2C2C"/>
<path d="M209.363 127.669C209.363 127.669 197.392 115.73 184.521 129.905C184.521 129.905 195.655 122.778 209.363 127.669Z" fill="#2C2C2C"/>
<path d="M190.827 319.024C190.827 319.426 191.181 319.893 191.6 319.845C196.346 319.346 199.982 315.677 204.665 316.45C199.966 318.783 195.896 322.837 196.475 328.807C196.539 329.547 197.247 329.836 197.794 329.386C201.157 326.522 205.019 323.964 209.524 324.913C211.454 325.315 213.723 326.071 215.718 325.814C218.695 325.444 221.205 324.092 222.685 321.212C225.292 316.224 224.326 310.239 218.486 309C218.341 308.968 218.228 308.984 218.099 309.032C215.943 308.18 213.981 307.102 212.243 305.219C210.57 303.385 209.009 301.358 207.191 299.668C204.761 297.4 202.122 295.614 198.904 297.142C198.422 297.367 198.454 298.059 198.76 298.429C200.176 300.183 201.833 301.856 203.57 303.465C201.833 303.063 200.079 302.854 198.277 302.999C195.059 303.272 191.262 305.412 191.342 309.242C191.358 309.724 191.696 310.014 192.115 310.062C195.075 310.368 198.052 310.32 200.996 310.625C196.411 311.977 190.779 313.521 190.827 319.024Z" fill="white"/>
<path fill-rule="evenodd" clip-rule="evenodd" d="M203.58 296.381C205.063 296.966 206.402 298.05 207.629 299.196C208.859 300.339 209.995 301.657 211.096 302.936C211.642 303.57 212.18 304.194 212.717 304.783C214.315 306.513 216.118 307.536 218.142 308.355C218.289 308.331 218.447 308.331 218.622 308.37C221.774 309.039 223.661 311.019 224.372 313.523C225.072 315.99 224.617 318.903 223.256 321.507C221.658 324.615 218.936 326.061 215.799 326.451C214.7 326.593 213.554 326.453 212.473 326.241C211.93 326.135 211.391 326.007 210.876 325.884C210.821 325.871 210.767 325.858 210.713 325.845C210.253 325.735 209.814 325.629 209.392 325.542L209.391 325.541C205.215 324.661 201.572 327.013 198.212 329.874L198.208 329.878L198.203 329.881C197.766 330.242 197.199 330.347 196.7 330.133C196.201 329.919 195.885 329.437 195.834 328.864C195.31 323.451 198.392 319.566 202.28 317.06C200.987 317.236 199.726 317.704 198.407 318.262C198.114 318.386 197.817 318.515 197.515 318.646C195.729 319.422 193.804 320.258 191.67 320.483C191.189 320.537 190.804 320.29 190.572 320.026C190.342 319.763 190.185 319.4 190.184 319.026C190.158 315.995 191.723 314.049 193.831 312.722C194.943 312.022 196.225 311.482 197.524 311.029C197.195 311.014 196.865 311 196.534 310.985L196.52 310.985C195.045 310.921 193.546 310.856 192.049 310.701L192.045 310.7L192.041 310.7C191.353 310.621 190.727 310.108 190.699 309.262L190.699 309.258L190.699 309.254C190.654 307.095 191.711 305.423 193.177 304.278C194.63 303.143 196.507 302.502 198.223 302.356L198.224 302.356L198.225 302.356C199.362 302.264 200.476 302.308 201.572 302.448C200.391 301.284 199.268 300.081 198.261 298.835C198.002 298.519 197.871 298.094 197.894 297.693C197.918 297.278 198.12 296.797 198.63 296.559C200.414 295.712 202.064 295.783 203.58 296.381ZM199.187 297.719C199.184 297.728 199.18 297.743 199.179 297.767C199.177 297.806 199.182 297.856 199.199 297.906C199.215 297.957 199.237 297.995 199.256 298.018L199.258 298.021L199.26 298.024C200.649 299.744 202.282 301.394 204.008 302.992L205.785 304.637L203.425 304.091C201.733 303.699 200.048 303.501 198.33 303.639C196.828 303.767 195.198 304.332 193.969 305.292C192.753 306.242 191.952 307.554 191.986 309.222C191.989 309.307 192.016 309.341 192.033 309.358C192.055 309.381 192.102 309.411 192.185 309.421C193.642 309.571 195.105 309.635 196.589 309.699L196.595 309.699C198.072 309.764 199.57 309.829 201.063 309.984L204.303 310.32L201.178 311.241C201.098 311.265 201.018 311.288 200.937 311.312C198.688 311.974 196.335 312.667 194.517 313.811C192.676 314.97 191.449 316.547 191.471 319.017L191.471 319.02V319.023C191.471 319.031 191.473 319.055 191.487 319.089C191.501 319.122 191.52 319.154 191.541 319.178C191.55 319.188 191.557 319.195 191.563 319.2C193.472 318.993 195.188 318.25 196.973 317.477C197.281 317.344 197.592 317.209 197.906 317.076C200.004 316.189 202.233 315.395 204.769 315.813L206.737 316.138L204.951 317.025C200.354 319.308 196.574 323.165 197.116 328.743L197.116 328.746L197.116 328.749C197.124 328.836 197.148 328.886 197.165 328.911C197.181 328.936 197.197 328.945 197.207 328.95C197.217 328.954 197.233 328.958 197.258 328.954C197.283 328.949 197.326 328.935 197.382 328.89C200.746 326.026 204.824 323.264 209.656 324.282C210.097 324.374 210.555 324.483 211.012 324.593C211.067 324.606 211.121 324.619 211.175 324.632C211.691 324.756 212.206 324.877 212.721 324.978C213.755 325.18 214.741 325.29 215.636 325.174L215.637 325.174L215.639 325.174C218.454 324.824 220.75 323.567 222.113 320.917L222.114 320.915L222.115 320.913C223.36 318.53 223.725 315.957 223.134 313.875C222.554 311.83 221.039 310.198 218.352 309.628L218.349 309.628L218.346 309.627C218.346 309.627 218.345 309.627 218.345 309.627C218.341 309.628 218.334 309.63 218.325 309.634L218.093 309.721L217.863 309.629C215.654 308.756 213.596 307.632 211.77 305.654L211.769 305.653L211.767 305.651C211.176 305.003 210.612 304.348 210.054 303.699C208.983 302.455 207.933 301.235 206.753 300.138L206.751 300.137C205.549 299.014 204.355 298.071 203.107 297.578C201.894 297.099 200.618 297.041 199.187 297.719Z" fill="#2C2C2C"/>
<path fill-rule="evenodd" clip-rule="evenodd" d="M137.604 135.616V135.938H136.316V135.616H137.604Z" fill="#2C2C2C"/>
<path fill-rule="evenodd" clip-rule="evenodd" d="M144.36 139.157V139.479H143.073V139.157H144.36Z" fill="#2C2C2C"/>
<path d="M185.937 223.659H173.58C170.298 223.659 167.627 226.33 167.627 229.612V241.969C167.627 245.252 170.298 247.923 173.58 247.923H185.937C189.219 247.923 191.89 245.252 191.89 241.969V229.612C191.89 226.33 189.235 223.659 185.937 223.659ZM164.345 218.398C162.462 218.398 160.934 219.926 160.934 221.809C160.934 223.691 162.462 225.22 164.345 225.22C166.227 225.22 167.756 223.691 167.756 221.809C167.756 219.926 166.227 218.398 164.345 218.398Z" fill="white"/>
<path d="M185.068 231.027C184.28 228.92 182.269 227.52 180.016 227.52H176.669L183.282 244.285H190.378L185.068 231.027ZM171.553 239.475L169.622 244.285H176.669L179.952 235.967H176.605C174.352 235.967 172.341 237.367 171.553 239.475ZM172.647 231.687C173.805 231.687 174.755 230.738 174.755 229.579C174.755 228.421 173.805 227.472 172.647 227.472C171.488 227.472 170.539 228.421 170.539 229.579C170.539 230.738 171.488 231.687 172.647 231.687Z" fill="#50BFD7"/>
<path d="M212.274 284.225C201.152 283.208 190.168 282.792 190.168 282.792C186.132 282.915 177.536 283.27 168.662 284.225C171.25 293.067 180.031 299.584 190.461 299.584C200.905 299.599 209.686 293.052 212.274 284.225Z" fill="#50BFD7"/>
<path d="M199.583 300.291C199.583 300.676 199.922 301.123 200.323 301.077C204.867 300.599 208.349 297.087 212.832 297.826C208.333 300.06 204.436 303.942 204.991 309.658C205.052 310.366 205.73 310.644 206.254 310.212C209.473 307.47 213.171 305.021 217.484 305.929C219.333 306.315 221.505 307.039 223.415 306.792C226.265 306.438 228.668 305.144 230.086 302.386C232.581 297.611 231.657 291.88 226.065 290.694C225.926 290.663 225.818 290.678 225.695 290.725C223.631 289.908 221.751 288.876 220.088 287.073C218.486 285.317 216.991 283.376 215.25 281.759C212.924 279.587 210.398 277.877 207.317 279.34C206.855 279.556 206.885 280.218 207.178 280.572C208.534 282.252 210.12 283.854 211.784 285.394C210.12 285.009 208.441 284.809 206.716 284.948C203.635 285.209 199.999 287.258 200.076 290.925C200.092 291.387 200.415 291.664 200.816 291.71C203.65 292.003 206.5 291.957 209.319 292.25C204.929 293.544 199.537 295.023 199.583 300.291Z" fill="#C4C4C4"/>
<path fill-rule="evenodd" clip-rule="evenodd" d="M211.79 278.612C213.21 279.173 214.493 280.21 215.667 281.307C216.845 282.402 217.932 283.664 218.987 284.888C219.51 285.495 220.025 286.093 220.539 286.656C222.069 288.314 223.795 289.293 225.733 290.077C225.874 290.053 226.025 290.054 226.192 290.091C229.21 290.732 231.018 292.628 231.698 295.025C232.368 297.387 231.932 300.176 230.63 302.669C229.1 305.645 226.494 307.029 223.49 307.403C222.437 307.539 221.34 307.405 220.305 307.202C219.785 307.1 219.269 306.978 218.776 306.86C218.723 306.848 218.671 306.835 218.62 306.823C218.179 306.717 217.759 306.616 217.356 306.532L217.354 306.532C213.356 305.689 209.868 307.941 206.65 310.681L206.647 310.684L206.643 310.687C206.223 311.033 205.681 311.133 205.203 310.928C204.725 310.723 204.423 310.262 204.374 309.714C203.872 304.531 206.823 300.811 210.546 298.412C209.307 298.58 208.101 299.028 206.837 299.562C206.557 299.681 206.272 299.805 205.984 299.93C204.274 300.673 202.43 301.474 200.387 301.689C199.926 301.741 199.558 301.504 199.336 301.251C199.116 300.999 198.965 300.652 198.964 300.294C198.94 297.392 200.438 295.528 202.456 294.258C203.521 293.588 204.748 293.071 205.992 292.637C205.677 292.623 205.361 292.609 205.044 292.595L205.031 292.595C203.619 292.533 202.184 292.471 200.749 292.323L200.746 292.323L200.742 292.322C200.083 292.246 199.484 291.755 199.457 290.945L199.457 290.941L199.457 290.937C199.414 288.87 200.426 287.27 201.83 286.173C203.221 285.087 205.018 284.473 206.661 284.333L206.662 284.333L206.664 284.333C207.752 284.245 208.819 284.287 209.868 284.421C208.737 283.307 207.662 282.155 206.698 280.961C206.45 280.66 206.324 280.253 206.346 279.869C206.369 279.471 206.563 279.011 207.051 278.782C208.759 277.971 210.339 278.04 211.79 278.612ZM207.584 279.893C207.582 279.901 207.578 279.916 207.577 279.939C207.574 279.977 207.58 280.024 207.595 280.073C207.611 280.121 207.632 280.158 207.65 280.18L207.652 280.182L207.655 280.185C208.984 281.832 210.548 283.412 212.2 284.942L213.901 286.517L211.642 285.994C210.022 285.619 208.409 285.429 206.764 285.561C205.326 285.684 203.765 286.225 202.588 287.145C201.424 288.054 200.657 289.309 200.689 290.907C200.693 290.988 200.718 291.021 200.734 291.037C200.756 291.059 200.801 291.088 200.881 291.097C202.275 291.241 203.676 291.302 205.097 291.364L205.102 291.364C206.517 291.426 207.951 291.488 209.38 291.636L212.483 291.958L209.491 292.84C209.414 292.863 209.337 292.885 209.26 292.908C207.107 293.542 204.854 294.205 203.113 295.301C201.35 296.41 200.176 297.92 200.197 300.285L200.197 300.288V300.291C200.197 300.299 200.199 300.321 200.212 300.354C200.225 300.386 200.243 300.416 200.264 300.439C200.272 300.449 200.279 300.456 200.285 300.46C202.113 300.263 203.755 299.551 205.464 298.811C205.759 298.683 206.057 298.554 206.357 298.427C208.367 297.577 210.501 296.817 212.929 297.218L214.813 297.529L213.103 298.378C208.701 300.563 205.083 304.257 205.601 309.598L205.601 309.601L205.602 309.604C205.609 309.686 205.632 309.734 205.648 309.758C205.664 309.782 205.679 309.791 205.689 309.795C205.698 309.8 205.714 309.803 205.737 309.799C205.761 309.795 205.803 309.782 205.856 309.739C209.077 306.996 212.982 304.352 217.608 305.326C218.03 305.414 218.469 305.519 218.906 305.624C218.958 305.637 219.011 305.649 219.063 305.662C219.556 305.78 220.05 305.896 220.542 305.992C221.532 306.186 222.476 306.291 223.333 306.181L223.335 306.18L223.336 306.18C226.031 305.845 228.23 304.642 229.535 302.104L229.536 302.102L229.537 302.1C230.729 299.819 231.078 297.355 230.512 295.362C229.957 293.404 228.507 291.842 225.934 291.296L225.931 291.295L225.928 291.295C225.928 291.295 225.928 291.295 225.927 291.295C225.923 291.296 225.917 291.298 225.909 291.301L225.686 291.384L225.466 291.297C223.351 290.461 221.38 289.385 219.632 287.491L219.631 287.49L219.63 287.488C219.063 286.868 218.523 286.24 217.989 285.619C216.963 284.428 215.958 283.26 214.828 282.21L214.827 282.209C213.676 281.133 212.532 280.23 211.337 279.759C210.176 279.3 208.954 279.244 207.584 279.893Z" fill="#2C2C2C"/>
<path d="M115.027 255.409H248.286C249.88 255.409 251.409 256.042 252.537 257.169C253.664 258.297 254.297 259.826 254.297 261.42V336.285H109.016V261.42C109.016 259.826 109.649 258.297 110.776 257.169C111.904 256.042 113.433 255.409 115.027 255.409Z" fill="white"/>
<path fill-rule="evenodd" clip-rule="evenodd" d="M115.028 256.175C113.636 256.175 112.302 256.728 111.319 257.711C110.335 258.695 109.782 260.029 109.782 261.42V335.519H253.532V261.42C253.532 260.029 252.979 258.695 251.995 257.711C251.012 256.728 249.678 256.175 248.287 256.175H115.028ZM110.235 256.628C111.506 255.357 113.23 254.643 115.028 254.643H248.287C250.084 254.643 251.808 255.357 253.079 256.628C254.35 257.899 255.064 259.623 255.064 261.42V336.285C255.064 336.708 254.721 337.051 254.298 337.051H109.016C108.593 337.051 108.25 336.708 108.25 336.285V261.42C108.25 259.623 108.964 257.899 110.235 256.628Z" fill="#2C2C2C"/>
<path d="M254.297 282.313C236.047 286.942 217.316 298.724 182.414 315.316C148.75 331.33 121.195 331.053 109.016 329.815V336.283H254.297V282.313Z" fill="#2C2C2C"/>
<path fill-rule="evenodd" clip-rule="evenodd" d="M254.768 281.708C254.955 281.853 255.064 282.076 255.064 282.313V336.282C255.064 336.705 254.721 337.048 254.298 337.048H109.016C108.593 337.048 108.25 336.705 108.25 336.282V329.814C108.25 329.597 108.342 329.391 108.503 329.246C108.663 329.1 108.878 329.03 109.094 329.052C121.168 330.28 148.577 330.563 182.085 314.623L182.086 314.623C193.581 309.158 203.307 304.223 211.853 299.886C216.278 297.64 220.387 295.555 224.261 293.641C235.594 288.04 244.901 283.905 254.109 281.57C254.339 281.512 254.582 281.563 254.768 281.708ZM182.743 316.007C149.678 331.736 122.459 331.829 109.782 330.658V335.516H253.532V283.304C244.796 285.637 235.862 289.616 224.94 295.015C221.092 296.916 216.995 298.995 212.577 301.237C204.019 305.58 194.253 310.535 182.743 316.007Z" fill="#2C2C2C"/>
<path d="M205.426 80.0728C198.617 71.6995 189.103 66.6494 176.886 66.6494C149.224 66.6494 122.198 92.1604 122.198 123.959C122.198 155.759 144.614 181.546 172.275 181.546C174.931 181.546 177.505 181.302 179.997 180.862C180.258 182.263 180.404 183.697 180.404 185.179C180.404 185.44 180.388 185.717 180.388 185.977C256.611 167.471 244.133 75.3648 205.426 80.0728Z" fill="#2C2C2C"/>
<path d="M141.274 162.063C147.077 162.063 151.781 157.359 151.781 151.556C151.781 145.753 147.077 141.048 141.274 141.048C135.471 141.048 130.767 145.753 130.767 151.556C130.767 157.359 135.471 162.063 141.274 162.063Z" fill="white"/>
<path fill-rule="evenodd" clip-rule="evenodd" d="M141.273 141.699C135.83 141.699 131.417 146.112 131.417 151.555C131.417 156.998 135.83 161.411 141.273 161.411C146.716 161.411 151.129 156.998 151.129 151.555C151.129 146.112 146.716 141.699 141.273 141.699ZM130.114 151.555C130.114 145.392 135.11 140.396 141.273 140.396C147.436 140.396 152.432 145.392 152.432 151.555C152.432 157.718 147.436 162.714 141.273 162.714C135.11 162.714 130.114 157.718 130.114 151.555Z" fill="#2C2C2C"/>
<path d="M215.266 162.063C221.069 162.063 225.774 157.359 225.774 151.556C225.774 145.753 221.069 141.048 215.266 141.048C209.463 141.048 204.759 145.753 204.759 151.556C204.759 157.359 209.463 162.063 215.266 162.063Z" fill="white"/>
<path fill-rule="evenodd" clip-rule="evenodd" d="M215.265 141.699C209.822 141.699 205.41 146.112 205.41 151.555C205.41 156.998 209.822 161.411 215.265 161.411C220.709 161.411 225.121 156.998 225.121 151.555C225.121 146.112 220.709 141.699 215.265 141.699ZM204.106 151.555C204.106 145.392 209.103 140.396 215.265 140.396C221.428 140.396 226.424 145.392 226.424 151.555C226.424 157.718 221.428 162.714 215.265 162.714C209.103 162.714 204.106 157.718 204.106 151.555Z" fill="#2C2C2C"/>
<path d="M179.264 195.394C201.82 195.394 220.105 169.509 220.105 137.579C220.105 105.648 201.82 79.7637 179.264 79.7637C156.709 79.7637 138.424 105.648 138.424 137.579C138.424 169.509 156.709 195.394 179.264 195.394Z" fill="white"/>
<path fill-rule="evenodd" clip-rule="evenodd" d="M150.917 97.0725C143.613 107.413 139.075 121.731 139.075 137.578C139.075 153.425 143.613 167.743 150.917 178.083C158.223 188.425 168.254 194.741 179.263 194.741C190.273 194.741 200.304 188.425 207.61 178.083C214.914 167.743 219.452 153.425 219.452 137.578C219.452 121.731 214.914 107.413 207.61 97.0725C200.304 86.7308 190.273 80.4146 179.263 80.4146C168.254 80.4146 158.223 86.7308 150.917 97.0725ZM149.853 96.3206C157.329 85.7374 167.717 79.1113 179.263 79.1113C190.81 79.1113 201.198 85.7374 208.674 96.3206C216.151 106.906 220.755 121.494 220.755 137.578C220.755 153.662 216.151 168.251 208.674 178.835C201.198 189.419 190.81 196.045 179.263 196.045C167.717 196.045 157.329 189.419 149.853 178.835C142.376 168.251 137.771 153.662 137.771 137.578C137.771 121.494 142.376 106.906 149.853 96.3206Z" fill="#2C2C2C"/>
<path d="M132.462 124.758C132.462 124.758 167.226 126.452 178.808 105.535C178.808 105.535 203.961 127.299 227.973 125.605L225.709 115.993L216.391 97.6175L210.738 90.8406L199.155 78.6879L183.614 72.188L164.962 74.7293L140.086 91.6877L136.974 102.993L132.462 124.758Z" fill="#2C2C2C"/>
<path d="M180.258 160.173C180.274 160.271 180.062 160.45 179.59 160.45C179.134 160.466 178.433 160.254 177.814 159.668C177.505 159.375 177.228 159.016 177.016 158.56C176.983 158.495 176.967 158.43 176.934 158.365L176.902 158.267L176.869 158.186L176.82 158.039C176.804 157.974 176.788 157.892 176.755 157.827C176.69 157.583 176.641 157.322 176.625 157.045C176.527 155.97 176.739 154.879 177 153.836C178.01 149.666 179.199 146.391 179.639 146.489C180.078 146.603 179.622 150.057 178.612 154.227C178.352 155.253 178.156 156.182 178.156 156.964C178.156 157.159 178.172 157.355 178.189 157.534L178.205 157.599V157.632V157.648V157.664C178.205 157.664 178.189 157.615 178.205 157.632L178.238 157.795L178.254 157.876L178.27 157.925L178.303 158.023C178.401 158.332 178.547 158.625 178.71 158.853C179.036 159.326 179.427 159.619 179.736 159.782C180.03 159.994 180.241 160.059 180.258 160.173Z" fill="#2C2C2C"/>
<path d="M168.643 140.641C168.643 145.284 164.619 149.047 159.667 149.047C154.698 149.047 150.69 145.284 150.69 140.641C150.69 135.998 154.714 132.235 159.667 132.235C164.603 132.235 168.643 135.998 168.643 140.641Z" fill="white"/>
<path fill-rule="evenodd" clip-rule="evenodd" d="M159.667 132.887C155.033 132.887 151.342 136.398 151.342 140.641C151.342 144.885 155.018 148.395 159.667 148.395C164.3 148.395 167.991 144.884 167.991 140.641C167.991 136.399 164.285 132.887 159.667 132.887ZM150.039 140.641C150.039 135.598 154.396 131.583 159.667 131.583C164.921 131.583 169.294 135.598 169.294 140.641C169.294 145.684 164.938 149.699 159.667 149.699C154.379 149.699 150.039 145.683 150.039 140.641Z" fill="#2C2C2C"/>
<path d="M155.252 140.121C155.252 143.949 157.744 147.061 160.807 147.061C163.87 147.061 166.362 143.949 166.362 140.121C166.362 136.293 163.87 133.181 160.807 133.181C157.744 133.165 155.252 136.276 155.252 140.121Z" fill="#50BFD7"/>
<path d="M156.864 140.121C156.864 142.841 158.624 145.04 160.807 145.04C162.989 145.04 164.749 142.841 164.749 140.121C164.749 137.4 162.989 135.185 160.807 135.185C158.624 135.185 156.864 137.384 156.864 140.121Z" fill="#2C2C2C"/>
<path d="M156.62 135.444C156.62 136.193 157.532 136.779 158.656 136.779C159.78 136.779 160.693 136.177 160.693 135.444C160.693 134.694 159.78 134.108 158.656 134.108C157.532 134.091 156.62 134.694 156.62 135.444Z" fill="white"/>
<path d="M171.2 127.788C171.2 127.788 159.08 115.7 146.048 130.052C146.048 130.052 157.321 122.835 171.2 127.788Z" fill="#2C2C2C"/>
<path d="M207.69 140.641C207.69 145.284 203.667 149.047 198.714 149.047C193.746 149.047 189.738 145.284 189.738 140.641C189.738 135.998 193.762 132.235 198.714 132.235C203.667 132.235 207.69 135.998 207.69 140.641Z" fill="white"/>
<path fill-rule="evenodd" clip-rule="evenodd" d="M198.715 132.887C194.081 132.887 190.39 136.398 190.39 140.641C190.39 144.885 194.065 148.395 198.715 148.395C203.348 148.395 207.039 144.884 207.039 140.641C207.039 136.398 203.348 132.887 198.715 132.887ZM189.087 140.641C189.087 135.598 193.444 131.583 198.715 131.583C203.986 131.583 208.342 135.598 208.342 140.641C208.342 145.684 203.986 149.699 198.715 149.699C193.427 149.699 189.087 145.683 189.087 140.641Z" fill="#2C2C2C"/>
<path d="M194.315 140.121C194.315 143.949 196.808 147.061 199.871 147.061C202.933 147.061 205.426 143.949 205.426 140.121C205.426 136.293 202.933 133.181 199.871 133.181C196.792 133.165 194.315 136.276 194.315 140.121Z" fill="#50BFD7"/>
<path d="M195.912 140.121C195.912 142.841 197.671 145.04 199.854 145.04C202.037 145.04 203.797 142.841 203.797 140.121C203.797 137.4 202.037 135.185 199.854 135.185C197.688 135.185 195.912 137.384 195.912 140.121Z" fill="#2C2C2C"/>
<path d="M195.668 135.444C195.668 136.193 196.58 136.779 197.704 136.779C198.828 136.779 199.741 136.177 199.741 135.444C199.741 134.694 198.828 134.108 197.704 134.108C196.58 134.091 195.668 134.694 195.668 135.444Z" fill="white"/>
<path d="M210.264 126.468C210.264 126.468 198.144 114.381 185.111 128.733C185.095 128.733 196.368 121.516 210.264 126.468Z" fill="#2C2C2C"/>
<path fill-rule="evenodd" clip-rule="evenodd" d="M137.61 134.516V134.841H136.307V134.516H137.61Z" fill="#2C2C2C"/>
<path fill-rule="evenodd" clip-rule="evenodd" d="M144.451 138.1V138.426H143.147V138.1H144.451Z" fill="#2C2C2C"/>
<path d="M181.497 136.177C183.729 136.65 182.898 138.1 182.898 138.311C182.898 138.523 183.729 150.578 194.497 153.755C205.265 156.932 211.716 150.692 213.589 147.564C215.463 144.437 217.026 137.008 217.483 136.438C217.955 135.868 220.187 134.874 220.187 134.874L220.447 131.958L217.646 131.127C217.646 131.127 210.575 127.902 200.166 127.755C189.772 127.592 183.892 133.587 183.892 133.587C180.959 132.659 177.326 132.528 174.003 133.587C174.003 133.587 168.122 127.609 157.729 127.755C147.336 127.918 140.249 131.127 140.249 131.127L137.447 131.958L137.708 134.874C137.708 134.874 139.94 135.868 140.412 136.438C140.885 137.008 142.432 144.453 144.306 147.564C146.179 150.692 152.63 156.932 163.398 153.755C174.166 150.578 174.997 138.523 174.997 138.311C174.997 138.1 174.166 136.65 176.398 136.177C178.353 135.77 179.558 135.77 181.497 136.177ZM207.35 151.262C199.139 156.198 189.3 151.214 186.335 144.714C183.37 138.214 185.863 134.776 185.863 134.776C190.815 126.696 210.82 126.354 214.257 135.086C214.844 136.552 215.56 146.326 207.35 151.262ZM143.638 135.086C147.075 126.338 167.08 126.696 172.032 134.776C172.032 134.776 174.525 138.214 171.56 144.714C168.595 151.214 158.772 156.198 150.545 151.262C142.351 146.326 143.067 136.552 143.638 135.086Z" fill="#2C2C2C"/>
<ellipse cx="179.53" cy="173.841" rx="6.38401" ry="4.46881" fill="white"/>
<path fill-rule="evenodd" clip-rule="evenodd" d="M179.551 178.078C183.015 178.078 185.214 175.937 185.214 173.959C185.214 171.982 183.015 169.841 179.551 169.841C176.088 169.841 173.888 171.982 173.888 173.959C173.888 175.937 176.088 178.078 179.551 178.078ZM179.551 179.451C183.437 179.451 186.587 176.992 186.587 173.959C186.587 170.927 183.437 168.468 179.551 168.468C175.666 168.468 172.516 170.927 172.516 173.959C172.516 176.992 175.666 179.451 179.551 179.451Z" fill="#454545"/>
<path d="M253.125 330.923H109.75V335.317H253.125V330.923Z" fill="white"/>
</svg>
