<svg width="429" height="389" viewBox="0 0 429 389" fill="none" xmlns="http://www.w3.org/2000/svg">
<path d="M407.354 118.525C407.354 118.525 391.314 56.4043 294.211 17.2279C197.107 -21.9486 110.234 14.3358 90.4291 60.2421C70.6242 106.148 91.3799 130.938 78.164 170.142C64.9481 209.346 -2.94748 258.998 24.4541 319.209C51.8558 379.419 180.079 396.616 283.838 384.194C387.597 371.771 468.661 234.153 407.354 118.525Z" fill="#50BFD7"/>
<path opacity="0.7" d="M407.354 118.525C407.354 118.525 391.314 56.4043 294.211 17.2279C197.107 -21.9486 110.234 14.3358 90.4291 60.2421C70.6242 106.148 91.3799 130.938 78.164 170.142C64.9481 209.346 -2.94748 258.998 24.4541 319.209C51.8558 379.419 180.079 396.616 283.838 384.194C387.597 371.771 468.661 234.153 407.354 118.525Z" fill="white"/>
<path fill-rule="evenodd" clip-rule="evenodd" d="M328.824 310.544C329.086 310.516 329.321 310.706 329.349 310.968L333.096 346.148C333.124 346.41 332.935 346.645 332.673 346.673C332.411 346.701 332.176 346.511 332.148 346.249L328.4 311.069C328.372 310.807 328.562 310.572 328.824 310.544Z" fill="#263238"/>
<path d="M328.853 312.007C328.853 312.007 322.123 306.769 322.123 294.79C322.123 282.812 331.1 273.09 331.1 273.09C331.1 273.09 340.831 285.068 338.585 297.037C336.338 309.005 328.853 312.007 328.853 312.007Z" fill="#50BFD7"/>
<path fill-rule="evenodd" clip-rule="evenodd" d="M331.471 272.789L331.101 273.09L330.75 272.766C330.844 272.665 330.978 272.609 331.116 272.613C331.254 272.617 331.384 272.682 331.471 272.789ZM328.854 312.007C328.561 312.384 328.561 312.384 328.561 312.383L328.56 312.383L328.559 312.382L328.553 312.377L328.536 312.363C328.521 312.351 328.499 312.334 328.473 312.311C328.419 312.266 328.342 312.2 328.245 312.112C328.052 311.937 327.779 311.676 327.454 311.327C326.803 310.627 325.941 309.571 325.08 308.136C323.358 305.262 321.647 300.874 321.647 294.79C321.647 288.686 323.933 283.177 326.199 279.212C327.333 277.225 328.468 275.618 329.32 274.506C329.746 273.95 330.101 273.517 330.352 273.222C330.477 273.075 330.575 272.962 330.643 272.885C330.677 272.847 330.704 272.818 330.722 272.798L330.742 272.775L330.748 272.769L330.75 272.767L330.75 272.767C330.75 272.766 330.75 272.766 331.101 273.09C331.471 272.789 331.471 272.789 331.472 272.789L331.472 272.79L331.474 272.792L331.48 272.8L331.502 272.827C331.521 272.852 331.549 272.887 331.586 272.934C331.659 273.027 331.764 273.164 331.897 273.343C332.163 273.699 332.539 274.221 332.983 274.883C333.87 276.207 335.028 278.098 336.116 280.369C338.287 284.898 340.206 290.995 339.055 297.125C337.914 303.202 335.437 307.028 333.222 309.34C332.117 310.494 331.08 311.267 330.315 311.754C329.932 311.997 329.617 312.169 329.395 312.281C329.284 312.337 329.196 312.378 329.135 312.406C329.104 312.42 329.08 312.43 329.063 312.437L329.042 312.446L329.036 312.449L329.033 312.45L329.033 312.45C329.032 312.45 329.032 312.45 328.854 312.007ZM328.854 312.007L328.561 312.384C328.695 312.488 328.875 312.513 329.032 312.45L328.854 312.007ZM328.931 311.446C328.942 311.441 328.954 311.435 328.966 311.429C329.162 311.33 329.449 311.174 329.803 310.949C330.512 310.498 331.487 309.773 332.533 308.68C334.623 306.499 337.012 302.84 338.117 296.949C339.213 291.11 337.39 285.234 335.256 280.781C334.192 278.561 333.058 276.71 332.19 275.414C331.756 274.766 331.39 274.258 331.132 273.913C331.114 273.888 331.096 273.864 331.078 273.841C330.837 274.124 330.492 274.544 330.077 275.086C329.246 276.171 328.136 277.743 327.027 279.685C324.805 283.575 322.602 288.916 322.602 294.79C322.602 300.685 324.256 304.905 325.899 307.645C326.721 309.017 327.541 310.02 328.152 310.677C328.458 311.005 328.711 311.247 328.885 311.405C328.901 311.42 328.917 311.433 328.931 311.446Z" fill="#263238"/>
<path fill-rule="evenodd" clip-rule="evenodd" d="M330.619 284.106C330.882 284.123 331.082 284.35 331.065 284.613L329.351 311.049C329.334 311.311 329.107 311.511 328.844 311.494C328.581 311.477 328.381 311.25 328.398 310.987L330.112 284.551C330.129 284.288 330.356 284.089 330.619 284.106Z" fill="#263238"/>
<path fill-rule="evenodd" clip-rule="evenodd" d="M348.245 318.917C348.471 319.053 348.544 319.347 348.408 319.572C343.756 327.282 339.78 335.38 336.524 343.775C336.428 344.02 336.152 344.142 335.906 344.047C335.661 343.951 335.539 343.675 335.634 343.429C338.911 334.983 342.911 326.836 347.591 319.079C347.727 318.854 348.02 318.781 348.245 318.917Z" fill="#263238"/>
<path d="M344.476 325.688C344.476 325.688 340.738 318.009 346.025 307.29C351.312 296.57 363.668 291.796 363.668 291.796C363.668 291.796 367.106 306.835 359.795 316.586C352.484 326.337 344.476 325.688 344.476 325.688Z" fill="#50BFD7"/>
<path fill-rule="evenodd" clip-rule="evenodd" d="M364.132 291.692L363.667 291.798L363.495 291.353C363.624 291.303 363.768 291.312 363.891 291.377C364.013 291.442 364.101 291.557 364.132 291.692ZM344.474 325.69C344.045 325.899 344.045 325.899 344.045 325.898L344.044 325.896L344.041 325.89L344.031 325.869C344.023 325.852 344.012 325.827 343.997 325.795C343.969 325.73 343.929 325.637 343.881 325.516C343.784 325.273 343.654 324.918 343.516 324.461C343.24 323.546 342.931 322.218 342.791 320.551C342.511 317.213 342.91 312.525 345.596 307.081C348.29 301.618 352.775 297.688 356.561 295.13C358.457 293.849 360.186 292.907 361.442 292.284C362.07 291.973 362.58 291.741 362.935 291.587C363.113 291.51 363.251 291.452 363.346 291.413C363.393 291.394 363.43 291.379 363.455 291.369L363.484 291.358L363.491 291.355L363.494 291.354L363.495 291.353C363.495 291.353 363.495 291.353 363.667 291.798C364.132 291.692 364.132 291.692 364.132 291.692L364.133 291.696L364.135 291.705L364.142 291.74C364.149 291.77 364.159 291.815 364.171 291.873C364.195 291.988 364.229 292.158 364.269 292.377C364.35 292.814 364.457 293.448 364.562 294.237C364.773 295.817 364.976 298.025 364.949 300.542C364.894 305.563 363.919 311.88 360.175 316.874C356.463 321.825 352.556 324.156 349.555 325.244C348.056 325.787 346.789 326.018 345.89 326.114C345.441 326.161 345.083 326.175 344.835 326.176C344.711 326.177 344.615 326.174 344.547 326.172C344.514 326.17 344.487 326.169 344.469 326.168L344.446 326.166L344.44 326.166L344.437 326.166C344.437 326.166 344.436 326.166 344.474 325.69ZM344.474 325.69L344.045 325.898C344.119 326.05 344.268 326.152 344.436 326.166L344.474 325.69ZM344.791 325.222C344.804 325.222 344.817 325.222 344.83 325.222C345.048 325.221 345.374 325.209 345.79 325.165C346.621 325.077 347.812 324.861 349.23 324.347C352.06 323.321 355.813 321.101 359.412 316.302C362.979 311.544 363.941 305.467 363.995 300.531C364.022 298.07 363.823 295.909 363.617 294.363C363.514 293.591 363.409 292.974 363.331 292.55C363.325 292.52 363.32 292.491 363.315 292.462C362.973 292.611 362.477 292.836 361.865 293.139C360.639 293.747 358.949 294.668 357.095 295.921C353.381 298.43 349.044 302.246 346.451 307.503C343.85 312.777 343.475 317.289 343.742 320.471C343.875 322.063 344.17 323.325 344.43 324.185C344.559 324.615 344.68 324.944 344.767 325.163C344.775 325.184 344.783 325.203 344.791 325.222Z" fill="#263238"/>
<path fill-rule="evenodd" clip-rule="evenodd" d="M358.347 302.884C358.572 303.021 358.643 303.315 358.506 303.54L344.882 325.938C344.745 326.163 344.451 326.234 344.226 326.097C344.001 325.96 343.93 325.667 344.067 325.442L357.691 303.044C357.828 302.819 358.122 302.748 358.347 302.884Z" fill="#263238"/>
<path fill-rule="evenodd" clip-rule="evenodd" d="M312.84 317.852C313.068 317.719 313.36 317.797 313.492 318.025L318.735 327.057C322.193 333.254 324.966 339.809 327.006 346.606C327.082 346.858 326.939 347.124 326.686 347.2C326.434 347.276 326.168 347.133 326.092 346.88C324.072 340.151 321.327 333.661 317.904 327.525L312.667 318.504C312.535 318.276 312.612 317.984 312.84 317.852Z" fill="#263238"/>
<path d="M317.293 325.242C313.159 326.511 308.771 326.713 304.538 325.83C300.305 324.946 296.365 323.004 293.084 320.187C281.464 310.426 282.113 290.507 282.113 290.507C282.113 290.507 304.636 287.292 313.729 300.055C316.365 303.629 318.071 307.801 318.693 312.198C319.315 316.595 318.834 321.077 317.293 325.242Z" fill="#50BFD7"/>
<path fill-rule="evenodd" clip-rule="evenodd" d="M282.113 290.51C281.637 290.494 281.637 290.494 281.637 290.495L281.637 290.499L281.636 290.511L281.635 290.556C281.634 290.596 281.633 290.654 281.632 290.73C281.63 290.881 281.629 291.103 281.631 291.389C281.636 291.96 281.657 292.784 281.717 293.803C281.839 295.84 282.124 298.659 282.775 301.786C284.073 308.026 286.846 315.571 292.776 320.553C296.117 323.422 300.13 325.399 304.441 326.299C308.753 327.199 313.222 326.993 317.433 325.7L317.293 325.244L317.741 325.41C319.309 321.171 319.799 316.609 319.166 312.134C318.533 307.66 316.797 303.414 314.116 299.778C309.449 293.231 301.374 290.82 294.567 290.024C291.151 289.624 288.025 289.627 285.753 289.73C284.617 289.782 283.693 289.858 283.052 289.922C282.731 289.954 282.481 289.982 282.311 290.003C282.226 290.014 282.16 290.022 282.116 290.028L282.065 290.035L282.051 290.037L282.047 290.037C282.046 290.037 282.046 290.037 282.113 290.51ZM282.584 290.932C282.584 291.055 282.584 291.205 282.585 291.381C282.59 291.937 282.61 292.745 282.67 293.746C282.79 295.749 283.069 298.52 283.709 301.592C284.991 307.751 287.703 315.045 293.392 319.824L293.396 319.827C296.615 322.593 300.482 324.498 304.636 325.365C308.713 326.216 312.936 326.041 316.927 324.856C318.376 320.829 318.821 316.508 318.221 312.267C317.61 307.949 315.935 303.851 313.346 300.341L313.341 300.334C308.915 294.121 301.183 291.758 294.456 290.972C291.105 290.579 288.032 290.582 285.796 290.683C284.679 290.734 283.772 290.809 283.146 290.871C282.922 290.894 282.733 290.914 282.584 290.932ZM282.113 290.51L282.047 290.037C281.817 290.07 281.644 290.263 281.637 290.495L282.113 290.51Z" fill="#263238"/>
<path fill-rule="evenodd" clip-rule="evenodd" d="M290.265 297.081C290.455 296.898 290.757 296.904 290.939 297.095L317.636 324.915C317.819 325.105 317.813 325.407 317.623 325.589C317.432 325.772 317.13 325.766 316.948 325.575L290.251 297.755C290.069 297.565 290.075 297.263 290.265 297.081Z" fill="#263238"/>
<path d="M344.938 338.667H316.439V366.613H344.938V338.667Z" fill="#263238"/>
<path fill-rule="evenodd" clip-rule="evenodd" d="M315.964 338.663C315.964 338.4 316.177 338.186 316.441 338.186H344.939C345.203 338.186 345.416 338.4 345.416 338.663V366.609C345.416 366.873 345.203 367.086 344.939 367.086H316.441C316.177 367.086 315.964 366.873 315.964 366.609V338.663ZM316.918 339.14V366.132H344.462V339.14H316.918Z" fill="#263238"/>
<path opacity="0.3" d="M390.912 61.8467H189.045V239.965H390.912V61.8467Z" fill="black"/>
<path d="M395.98 52.7446H194.112V230.863H395.98V52.7446Z" fill="white"/>
<path fill-rule="evenodd" clip-rule="evenodd" d="M192.933 52.7449C192.933 52.0938 193.46 51.5659 194.112 51.5659H395.979C396.63 51.5659 397.158 52.0938 397.158 52.7449V230.863C397.158 231.514 396.63 232.042 395.979 232.042H194.112C193.46 232.042 192.933 231.514 192.933 230.863V52.7449ZM195.291 53.9239V229.684H394.8V53.9239H195.291Z" fill="#263238"/>
<path d="M395.98 52.7446H194.112V65.4742H395.98V52.7446Z" fill="#263238"/>
<path fill-rule="evenodd" clip-rule="evenodd" d="M192.933 52.7449C192.933 52.0938 193.46 51.5659 194.112 51.5659H395.979C396.63 51.5659 397.158 52.0938 397.158 52.7449V65.4745C397.158 66.1256 396.63 66.6535 395.979 66.6535H194.112C193.46 66.6535 192.933 66.1256 192.933 65.4745V52.7449ZM195.291 53.9239V64.2954H394.8V53.9239H195.291Z" fill="#263238"/>
<path d="M282.427 129.028V110.25C282.427 106.836 283.783 103.562 286.197 101.148C288.611 98.7345 291.885 97.3783 295.299 97.3783C298.713 97.3783 301.987 98.7345 304.401 101.148C306.815 103.562 308.171 106.836 308.171 110.25V121.222H313.301V110.25C313.301 105.476 311.404 100.897 308.028 97.5211C304.652 94.1451 300.073 92.2485 295.299 92.2485C290.524 92.2485 285.945 94.1451 282.569 97.5211C279.193 100.897 277.297 105.476 277.297 110.25V129.028H282.427Z" fill="white"/>
<path fill-rule="evenodd" clip-rule="evenodd" d="M281.735 96.6892C285.332 93.0921 290.211 91.0713 295.298 91.0713C300.385 91.0713 305.264 93.0921 308.861 96.6892C312.458 100.286 314.479 105.165 314.479 110.252V121.224C314.479 121.875 313.951 122.403 313.3 122.403H308.17C307.519 122.403 306.991 121.875 306.991 121.224V110.252C306.991 107.151 305.759 104.177 303.566 101.984C301.373 99.791 298.399 98.5591 295.298 98.5591C292.197 98.5591 289.223 99.791 287.03 101.984C284.837 104.177 283.605 107.151 283.605 110.252V129.03C283.605 129.681 283.077 130.209 282.426 130.209H277.296C276.645 130.209 276.117 129.681 276.117 129.03V110.252C276.117 105.165 278.138 100.286 281.735 96.6892ZM295.298 93.4293C290.836 93.4293 286.557 95.2017 283.403 98.3566C280.248 101.511 278.475 105.79 278.475 110.252V127.851H281.247V110.252C281.247 106.526 282.727 102.952 285.362 100.317C287.998 97.6815 291.571 96.2011 295.298 96.2011C299.025 96.2011 302.599 97.6815 305.234 100.317C307.869 102.952 309.349 106.526 309.349 110.252V120.045H312.121V110.252C312.121 105.79 310.348 101.511 307.194 98.3566C304.039 95.2017 299.76 93.4293 295.298 93.4293Z" fill="#263238"/>
<path d="M314.693 127.19H275.38V159.711H314.693V127.19Z" fill="#50BFD7"/>
<path fill-rule="evenodd" clip-rule="evenodd" d="M274.201 127.191C274.201 126.54 274.729 126.012 275.38 126.012H314.693C315.344 126.012 315.872 126.54 315.872 127.191V159.711C315.872 160.362 315.344 160.89 314.693 160.89H275.38C274.729 160.89 274.201 160.362 274.201 159.711V127.191ZM276.559 128.37V158.532H313.514V128.37H276.559Z" fill="#263238"/>
<path fill-rule="evenodd" clip-rule="evenodd" d="M323.32 108.36C323.917 108.621 324.189 109.317 323.928 109.913L321.379 115.74C321.118 116.336 320.422 116.608 319.826 116.347C319.229 116.086 318.957 115.391 319.218 114.794L321.767 108.968C322.028 108.371 322.724 108.099 323.32 108.36Z" fill="#263238"/>
<path fill-rule="evenodd" clip-rule="evenodd" d="M319.483 122.17C319.483 121.519 320.011 120.991 320.662 120.991H330.13C330.782 120.991 331.309 121.519 331.309 122.17C331.309 122.821 330.782 123.349 330.13 123.349H320.662C320.011 123.349 319.483 122.821 319.483 122.17Z" fill="#263238"/>
<path fill-rule="evenodd" clip-rule="evenodd" d="M318.765 127.864C319.241 127.42 319.987 127.445 320.432 127.921L325.53 133.384C325.974 133.86 325.948 134.606 325.472 135.05C324.996 135.494 324.25 135.469 323.806 134.993L318.708 129.53C318.263 129.054 318.289 128.308 318.765 127.864Z" fill="#263238"/>
<path d="M299.129 140.696C299.144 139.934 298.956 139.183 298.584 138.518C298.213 137.853 297.671 137.299 297.014 136.913C296.357 136.527 295.61 136.323 294.848 136.321C294.086 136.32 293.338 136.521 292.68 136.904C292.022 137.288 291.477 137.839 291.103 138.503C290.729 139.166 290.537 139.917 290.549 140.679C290.561 141.44 290.776 142.185 291.17 142.836C291.565 143.488 292.126 144.022 292.796 144.385L292.084 151.779H297.578L296.865 144.385C297.545 144.037 298.115 143.508 298.514 142.858C298.914 142.207 299.126 141.459 299.129 140.696Z" fill="#263238"/>
<path fill-rule="evenodd" clip-rule="evenodd" d="M292.087 135.884C292.926 135.396 293.88 135.139 294.851 135.141C295.822 135.143 296.775 135.403 297.612 135.896C298.449 136.388 299.14 137.094 299.614 137.941C300.086 138.786 300.326 139.741 300.309 140.708C300.309 140.712 300.309 140.715 300.308 140.718L299.13 140.695L300.309 140.699C300.309 140.702 300.309 140.705 300.309 140.708C300.303 141.685 300.03 142.641 299.519 143.473C299.152 144.071 298.672 144.589 298.109 144.999L298.039 144.271L296.866 144.384L297.403 145.433C297.651 145.306 297.886 145.161 298.109 144.999L298.752 151.665C298.783 151.995 298.674 152.324 298.451 152.57C298.227 152.816 297.91 152.957 297.578 152.957H292.084C291.752 152.957 291.435 152.816 291.211 152.57C290.988 152.324 290.879 151.995 290.91 151.665L291.554 144.984C291.769 145.145 291.997 145.291 292.235 145.42L292.797 144.384L291.623 144.271L291.554 144.984C290.999 144.566 290.525 144.045 290.163 143.446C289.659 142.616 289.386 141.667 289.371 140.696C289.356 139.725 289.599 138.768 290.077 137.922C290.554 137.076 291.248 136.373 292.087 135.884ZM293.382 150.599H292.084V151.778L293.258 151.891L293.382 150.599ZM296.28 150.599H297.578V151.778L296.404 151.891L296.28 150.599Z" fill="#263238"/>
<path d="M365.422 172.962H224.653C221.156 172.962 218.32 175.797 218.32 179.295V194.32C218.32 197.818 221.156 200.653 224.653 200.653H365.422C368.92 200.653 371.755 197.818 371.755 194.32V179.295C371.755 175.797 368.92 172.962 365.422 172.962Z" fill="white"/>
<path fill-rule="evenodd" clip-rule="evenodd" d="M224.653 174.142C221.806 174.142 219.499 176.45 219.499 179.296V194.322C219.499 197.168 221.806 199.476 224.653 199.476H365.422C368.268 199.476 370.576 197.168 370.576 194.322V179.296C370.576 176.45 368.268 174.142 365.422 174.142H224.653ZM217.141 179.296C217.141 175.147 220.504 171.784 224.653 171.784H365.422C369.57 171.784 372.934 175.147 372.934 179.296V194.322C372.934 198.47 369.57 201.834 365.422 201.834H224.653C220.504 201.834 217.141 198.47 217.141 194.322V179.296Z" fill="#263238"/>
<path d="M233.218 187.687C233 187.647 232.794 187.559 232.615 187.43C232.436 187.3 232.288 187.132 232.182 186.938C232.075 186.744 232.014 186.528 232.001 186.307C231.989 186.086 232.026 185.866 232.11 185.661L232.189 185.455C232.252 185.251 232.358 185.064 232.5 184.905C232.642 184.746 232.817 184.62 233.012 184.534C233.207 184.449 233.418 184.406 233.632 184.409C233.845 184.412 234.054 184.461 234.247 184.552C235.538 185.05 236.766 185.698 237.904 186.484C237.5 185.114 237.266 183.7 237.208 182.273C237.195 182.057 237.226 181.841 237.3 181.637C237.374 181.434 237.488 181.248 237.637 181.091C237.785 180.934 237.964 180.809 238.162 180.723C238.361 180.638 238.575 180.594 238.791 180.594H239.013C239.229 180.594 239.443 180.638 239.641 180.723C239.84 180.809 240.019 180.934 240.167 181.091C240.316 181.248 240.43 181.434 240.504 181.637C240.578 181.841 240.609 182.057 240.596 182.273C240.536 183.698 240.307 185.112 239.915 186.484C241.056 185.711 242.277 185.064 243.557 184.552C243.751 184.459 243.963 184.409 244.179 184.407C244.394 184.404 244.608 184.449 244.804 184.538C245.001 184.627 245.175 184.758 245.315 184.922C245.455 185.086 245.557 185.279 245.615 185.487V185.629C245.708 185.833 245.753 186.055 245.746 186.279C245.74 186.503 245.683 186.723 245.579 186.921C245.476 187.12 245.328 187.292 245.147 187.425C244.967 187.557 244.759 187.647 244.538 187.687C243.209 188.043 241.844 188.245 240.469 188.289C241.595 189.117 242.616 190.079 243.509 191.155C243.64 191.318 243.737 191.505 243.795 191.705C243.853 191.906 243.871 192.116 243.847 192.324C243.824 192.531 243.759 192.732 243.658 192.914C243.556 193.097 243.42 193.258 243.256 193.387L243.082 193.53C242.912 193.674 242.711 193.778 242.496 193.834C242.28 193.891 242.054 193.898 241.835 193.855C241.616 193.813 241.41 193.721 241.231 193.588C241.052 193.455 240.905 193.284 240.802 193.086C240.041 191.918 239.409 190.671 238.918 189.366C238.4 190.667 237.752 191.914 236.986 193.086C236.882 193.284 236.736 193.455 236.557 193.588C236.378 193.721 236.171 193.813 235.953 193.855C235.734 193.898 235.508 193.891 235.292 193.834C235.077 193.778 234.876 193.674 234.706 193.53L234.548 193.387C234.383 193.259 234.245 193.099 234.142 192.917C234.039 192.735 233.973 192.535 233.948 192.327C233.923 192.119 233.939 191.909 233.996 191.708C234.053 191.507 234.149 191.319 234.279 191.155C235.192 190.079 236.217 189.103 237.334 188.241C235.944 188.234 234.561 188.048 233.218 187.687Z" fill="#263238"/>
<path d="M249.272 187.687C249.054 187.647 248.848 187.559 248.669 187.43C248.49 187.3 248.341 187.132 248.235 186.938C248.129 186.744 248.068 186.528 248.055 186.307C248.043 186.086 248.08 185.866 248.163 185.661L248.242 185.455C248.306 185.251 248.412 185.064 248.554 184.905C248.696 184.746 248.871 184.62 249.066 184.534C249.261 184.449 249.472 184.406 249.685 184.409C249.898 184.412 250.108 184.461 250.301 184.552C251.592 185.05 252.819 185.698 253.958 186.484C253.554 185.114 253.32 183.7 253.261 182.273C253.248 182.057 253.28 181.841 253.354 181.637C253.427 181.434 253.542 181.248 253.69 181.091C253.839 180.934 254.017 180.809 254.216 180.723C254.415 180.638 254.629 180.594 254.845 180.594H254.971C255.188 180.594 255.401 180.638 255.6 180.723C255.799 180.809 255.978 180.934 256.126 181.091C256.274 181.248 256.389 181.434 256.463 181.637C256.536 181.841 256.568 182.057 256.555 182.273C256.494 183.698 256.266 185.112 255.874 186.484C257.015 185.711 258.236 185.064 259.515 184.552C259.713 184.474 259.924 184.436 260.136 184.441C260.348 184.446 260.557 184.493 260.75 184.58C260.944 184.667 261.118 184.792 261.262 184.948C261.406 185.104 261.517 185.287 261.589 185.487V185.629C261.682 185.833 261.727 186.055 261.721 186.279C261.715 186.503 261.658 186.723 261.554 186.921C261.45 187.12 261.302 187.292 261.122 187.425C260.942 187.557 260.733 187.647 260.513 187.687C259.184 188.043 257.819 188.245 256.444 188.289C257.57 189.117 258.591 190.079 259.484 191.155C259.614 191.318 259.711 191.505 259.769 191.705C259.827 191.906 259.845 192.116 259.822 192.324C259.798 192.531 259.734 192.732 259.632 192.914C259.531 193.097 259.394 193.258 259.23 193.387L259.056 193.53C258.888 193.674 258.688 193.778 258.474 193.834C258.259 193.89 258.035 193.898 257.817 193.855C257.599 193.812 257.394 193.721 257.217 193.588C257.039 193.455 256.894 193.283 256.792 193.086C256.019 191.923 255.382 190.674 254.892 189.366C254.374 190.667 253.727 191.914 252.961 193.086C252.857 193.284 252.71 193.455 252.531 193.588C252.352 193.721 252.146 193.813 251.927 193.855C251.708 193.898 251.483 193.891 251.267 193.834C251.051 193.778 250.851 193.674 250.681 193.53L250.522 193.387C250.357 193.259 250.219 193.099 250.117 192.917C250.014 192.735 249.948 192.535 249.923 192.327C249.898 192.119 249.914 191.909 249.971 191.708C250.027 191.507 250.123 191.319 250.253 191.155C251.167 190.079 252.191 189.103 253.309 188.241C251.945 188.227 250.589 188.041 249.272 187.687Z" fill="#263238"/>
<path d="M265.328 187.687C265.118 187.633 264.922 187.537 264.751 187.404C264.58 187.271 264.439 187.104 264.335 186.914C264.231 186.724 264.167 186.515 264.147 186.299C264.127 186.084 264.152 185.866 264.22 185.661V185.455C264.283 185.251 264.389 185.064 264.531 184.905C264.673 184.746 264.848 184.62 265.043 184.534C265.238 184.449 265.449 184.406 265.662 184.409C265.875 184.412 266.085 184.461 266.278 184.552C267.569 185.05 268.796 185.698 269.935 186.484C269.537 185.113 269.308 183.699 269.254 182.273C269.241 182.057 269.273 181.841 269.346 181.637C269.42 181.434 269.535 181.248 269.683 181.091C269.831 180.934 270.01 180.809 270.209 180.723C270.408 180.638 270.621 180.594 270.838 180.594H271.059C271.275 180.594 271.489 180.638 271.688 180.723C271.887 180.809 272.065 180.934 272.214 181.091C272.362 181.248 272.477 181.434 272.55 181.637C272.624 181.841 272.656 182.057 272.643 182.273C272.582 183.698 272.354 185.112 271.962 186.484C273.103 185.711 274.324 185.064 275.603 184.552C275.8 184.474 276.011 184.436 276.224 184.441C276.436 184.446 276.645 184.493 276.838 184.58C277.032 184.667 277.206 184.792 277.35 184.948C277.494 185.104 277.605 185.287 277.677 185.487V185.629C277.77 185.832 277.816 186.053 277.81 186.276C277.805 186.499 277.749 186.718 277.647 186.916C277.545 187.114 277.399 187.287 277.221 187.42C277.042 187.554 276.836 187.645 276.617 187.687C275.282 188.042 273.912 188.243 272.532 188.289C273.658 189.117 274.679 190.079 275.572 191.155C275.702 191.318 275.799 191.505 275.857 191.705C275.915 191.906 275.933 192.116 275.91 192.324C275.886 192.531 275.822 192.732 275.72 192.914C275.619 193.097 275.482 193.258 275.318 193.387L275.144 193.53C274.975 193.674 274.776 193.778 274.562 193.834C274.347 193.89 274.123 193.898 273.905 193.855C273.687 193.812 273.482 193.721 273.305 193.588C273.127 193.455 272.982 193.283 272.88 193.086C272.113 191.919 271.476 190.671 270.98 189.366C270.462 190.667 269.815 191.914 269.049 193.086C268.947 193.283 268.802 193.455 268.624 193.588C268.447 193.721 268.241 193.812 268.024 193.855C267.806 193.898 267.581 193.89 267.367 193.834C267.152 193.778 266.953 193.674 266.784 193.53L266.61 193.387C266.445 193.259 266.307 193.099 266.204 192.917C266.101 192.735 266.036 192.535 266.011 192.327C265.986 192.119 266.002 191.909 266.059 191.708C266.115 191.507 266.211 191.319 266.341 191.155C267.255 190.079 268.279 189.103 269.397 188.241C268.022 188.23 266.655 188.044 265.328 187.687Z" fill="#263238"/>
<path d="M281.382 187.687C281.172 187.633 280.976 187.537 280.805 187.404C280.634 187.271 280.492 187.104 280.388 186.914C280.285 186.724 280.221 186.515 280.201 186.299C280.181 186.084 280.206 185.866 280.273 185.661V185.455C280.337 185.251 280.443 185.064 280.585 184.905C280.727 184.746 280.901 184.62 281.097 184.534C281.292 184.449 281.503 184.406 281.716 184.409C281.929 184.412 282.139 184.461 282.332 184.552C283.622 185.05 284.85 185.698 285.989 186.484C285.597 185.112 285.368 183.698 285.308 182.273C285.295 182.057 285.326 181.841 285.4 181.637C285.474 181.434 285.589 181.248 285.737 181.091C285.885 180.934 286.064 180.809 286.263 180.723C286.461 180.638 286.675 180.594 286.891 180.594H287.113C287.329 180.594 287.543 180.638 287.742 180.723C287.94 180.809 288.119 180.934 288.268 181.091C288.416 181.248 288.53 181.434 288.604 181.637C288.678 181.841 288.709 182.057 288.696 182.273C288.636 183.698 288.407 185.112 288.015 186.484C289.157 185.711 290.377 185.064 291.657 184.552C291.854 184.474 292.065 184.436 292.277 184.441C292.489 184.446 292.698 184.493 292.892 184.58C293.085 184.667 293.259 184.792 293.404 184.948C293.548 185.104 293.659 185.287 293.731 185.487V185.629C293.824 185.832 293.869 186.053 293.864 186.276C293.859 186.499 293.803 186.718 293.701 186.916C293.599 187.114 293.453 187.287 293.274 187.42C293.096 187.554 292.889 187.645 292.67 187.687C291.336 188.042 289.965 188.243 288.585 188.289C289.711 189.117 290.732 190.079 291.625 191.155C291.756 191.318 291.853 191.505 291.911 191.705C291.969 191.906 291.987 192.116 291.963 192.324C291.94 192.531 291.875 192.732 291.774 192.914C291.672 193.097 291.536 193.258 291.372 193.387L291.198 193.53C291.029 193.674 290.83 193.778 290.616 193.834C290.401 193.89 290.176 193.898 289.959 193.855C289.741 193.812 289.536 193.721 289.358 193.588C289.181 193.455 289.036 193.283 288.934 193.086C288.167 191.919 287.53 190.671 287.034 189.366C286.501 190.669 285.838 191.916 285.055 193.086C284.953 193.283 284.808 193.455 284.63 193.588C284.453 193.721 284.247 193.812 284.03 193.855C283.812 193.898 283.588 193.89 283.373 193.834C283.158 193.778 282.959 193.674 282.791 193.53L282.616 193.387C282.451 193.259 282.314 193.099 282.211 192.917C282.108 192.735 282.042 192.535 282.017 192.327C281.992 192.119 282.008 191.909 282.065 191.708C282.122 191.507 282.218 191.319 282.347 191.155C283.261 190.079 284.285 189.103 285.403 188.241C284.045 188.226 282.694 188.04 281.382 187.687Z" fill="#263238"/>
<path d="M297.435 187.687C297.226 187.633 297.029 187.537 296.859 187.404C296.688 187.271 296.546 187.104 296.442 186.914C296.338 186.724 296.275 186.515 296.255 186.299C296.235 186.084 296.259 185.866 296.327 185.661L296.406 185.455C296.481 185.258 296.595 185.078 296.74 184.926C296.886 184.774 297.06 184.652 297.254 184.568C297.447 184.484 297.655 184.439 297.865 184.437C298.076 184.434 298.285 184.473 298.48 184.552C299.764 185.054 300.986 185.702 302.122 186.484C301.73 185.112 301.501 183.698 301.441 182.273C301.428 182.057 301.459 181.841 301.533 181.637C301.607 181.434 301.721 181.248 301.87 181.091C302.018 180.934 302.197 180.809 302.396 180.723C302.594 180.638 302.808 180.594 303.024 180.594H303.246C303.462 180.594 303.676 180.638 303.875 180.723C304.073 180.809 304.252 180.934 304.4 181.091C304.549 181.248 304.663 181.434 304.737 181.637C304.811 181.841 304.842 182.057 304.829 182.273C304.769 183.698 304.54 185.112 304.148 186.484C305.289 185.711 306.51 185.064 307.79 184.552C307.987 184.474 308.198 184.436 308.41 184.441C308.622 184.446 308.831 184.493 309.025 184.58C309.218 184.667 309.392 184.792 309.536 184.948C309.681 185.104 309.792 185.287 309.864 185.487V185.629C309.957 185.832 310.002 186.053 309.997 186.276C309.992 186.499 309.936 186.718 309.834 186.916C309.732 187.114 309.586 187.287 309.407 187.42C309.229 187.554 309.022 187.645 308.803 187.687C307.469 188.042 306.098 188.243 304.718 188.289C305.844 189.117 306.865 190.079 307.758 191.155C307.889 191.318 307.986 191.505 308.044 191.705C308.102 191.906 308.12 192.116 308.096 192.324C308.073 192.531 308.008 192.732 307.907 192.914C307.805 193.097 307.669 193.258 307.505 193.387L307.331 193.53C307.162 193.674 306.963 193.778 306.748 193.834C306.534 193.89 306.309 193.898 306.092 193.855C305.874 193.812 305.669 193.721 305.491 193.588C305.314 193.455 305.169 193.283 305.067 193.086C304.3 191.919 303.663 190.671 303.167 189.366C302.649 190.667 302.002 191.914 301.235 193.086C301.133 193.283 300.988 193.455 300.811 193.588C300.633 193.721 300.428 193.812 300.21 193.855C299.992 193.898 299.768 193.89 299.553 193.834C299.339 193.778 299.14 193.674 298.971 193.53L298.797 193.387C298.621 193.266 298.474 193.109 298.364 192.927C298.255 192.744 298.185 192.54 298.161 192.329C298.137 192.117 298.159 191.903 298.225 191.7C298.291 191.498 298.4 191.312 298.544 191.155C299.447 190.075 300.467 189.098 301.583 188.241C300.183 188.237 298.788 188.05 297.435 187.687Z" fill="#263238"/>
<path d="M313.552 187.687C313.343 187.633 313.147 187.537 312.976 187.404C312.805 187.271 312.663 187.104 312.559 186.914C312.455 186.724 312.392 186.515 312.372 186.299C312.352 186.084 312.377 185.866 312.444 185.661L312.523 185.455C312.598 185.258 312.712 185.078 312.858 184.926C313.003 184.774 313.178 184.652 313.371 184.568C313.564 184.484 313.772 184.439 313.983 184.437C314.193 184.434 314.402 184.473 314.597 184.552C315.882 185.054 317.104 185.702 318.239 186.484C317.847 185.112 317.619 183.698 317.558 182.273C317.545 182.057 317.577 181.841 317.65 181.637C317.724 181.434 317.839 181.248 317.987 181.091C318.135 180.934 318.314 180.809 318.513 180.723C318.711 180.638 318.925 180.594 319.141 180.594H319.363C319.579 180.594 319.793 180.638 319.992 180.723C320.19 180.809 320.369 180.934 320.518 181.091C320.666 181.248 320.78 181.434 320.854 181.637C320.928 181.841 320.959 182.057 320.946 182.273C320.886 183.698 320.657 185.112 320.266 186.484C321.41 185.708 322.637 185.06 323.923 184.552C324.117 184.462 324.329 184.414 324.544 184.413C324.759 184.412 324.971 184.457 325.167 184.546C325.362 184.635 325.536 184.765 325.677 184.927C325.818 185.089 325.921 185.28 325.981 185.487V185.629C326.074 185.832 326.119 186.053 326.114 186.276C326.109 186.499 326.053 186.718 325.951 186.916C325.849 187.114 325.703 187.287 325.524 187.42C325.346 187.554 325.139 187.645 324.92 187.687C323.586 188.043 322.216 188.245 320.836 188.289C321.963 189.121 322.988 190.083 323.891 191.155C324.021 191.319 324.117 191.507 324.174 191.708C324.23 191.909 324.247 192.119 324.222 192.327C324.197 192.535 324.131 192.735 324.028 192.917C323.925 193.099 323.787 193.259 323.622 193.387L323.448 193.53C323.279 193.674 323.08 193.778 322.866 193.834C322.651 193.89 322.426 193.898 322.209 193.855C321.991 193.812 321.786 193.721 321.608 193.588C321.431 193.455 321.286 193.283 321.184 193.086C320.417 191.919 319.78 190.671 319.284 189.366C318.766 190.667 318.119 191.914 317.352 193.086C317.25 193.283 317.105 193.455 316.928 193.588C316.75 193.721 316.545 193.812 316.327 193.855C316.11 193.898 315.885 193.89 315.671 193.834C315.456 193.778 315.257 193.674 315.088 193.53L314.914 193.387C314.739 193.266 314.591 193.109 314.481 192.927C314.372 192.744 314.303 192.54 314.279 192.329C314.255 192.117 314.276 191.903 314.342 191.7C314.408 191.498 314.517 191.312 314.661 191.155C315.564 190.075 316.584 189.098 317.701 188.241C316.3 188.237 314.905 188.05 313.552 187.687Z" fill="#263238"/>
<path d="M329.561 187.687C329.35 187.635 329.152 187.54 328.98 187.407C328.807 187.275 328.664 187.109 328.558 186.919C328.453 186.729 328.387 186.519 328.367 186.302C328.346 186.086 328.37 185.867 328.437 185.661L328.516 185.455C328.591 185.258 328.705 185.078 328.851 184.926C328.996 184.774 329.171 184.652 329.364 184.568C329.557 184.484 329.765 184.439 329.975 184.437C330.186 184.434 330.395 184.473 330.59 184.552C331.875 185.054 333.097 185.702 334.232 186.484C333.84 185.112 333.611 183.698 333.551 182.273C333.538 182.057 333.569 181.841 333.643 181.637C333.717 181.434 333.832 181.248 333.98 181.091C334.128 180.934 334.307 180.809 334.506 180.723C334.704 180.638 334.918 180.594 335.134 180.594H335.356C335.572 180.594 335.786 180.638 335.985 180.723C336.183 180.809 336.362 180.934 336.511 181.091C336.659 181.248 336.773 181.434 336.847 181.637C336.921 181.841 336.952 182.057 336.939 182.273C336.881 183.7 336.647 185.114 336.243 186.484C337.387 185.708 338.614 185.06 339.9 184.552C340.095 184.462 340.307 184.414 340.521 184.413C340.736 184.412 340.948 184.457 341.144 184.546C341.34 184.635 341.514 184.765 341.654 184.927C341.795 185.089 341.898 185.28 341.958 185.487V185.629C342.051 185.833 342.096 186.055 342.09 186.279C342.084 186.503 342.026 186.723 341.923 186.921C341.819 187.12 341.671 187.292 341.491 187.425C341.31 187.557 341.102 187.647 340.882 187.687C339.547 188.043 338.177 188.245 336.797 188.289C337.924 189.121 338.95 190.083 339.852 191.155C339.982 191.319 340.078 191.507 340.135 191.708C340.192 191.909 340.208 192.119 340.183 192.327C340.158 192.535 340.092 192.735 339.989 192.917C339.886 193.099 339.748 193.259 339.583 193.387L339.425 193.53C339.255 193.674 339.055 193.778 338.839 193.834C338.623 193.891 338.398 193.898 338.179 193.855C337.96 193.813 337.753 193.721 337.574 193.588C337.396 193.455 337.249 193.284 337.145 193.086C336.378 191.922 335.746 190.673 335.261 189.366C334.738 190.668 334.086 191.914 333.314 193.086C333.212 193.283 333.067 193.455 332.889 193.588C332.712 193.721 332.506 193.812 332.289 193.855C332.071 193.898 331.846 193.89 331.632 193.834C331.417 193.778 331.218 193.674 331.049 193.53L330.875 193.387C330.7 193.266 330.552 193.109 330.443 192.927C330.333 192.744 330.264 192.54 330.24 192.329C330.216 192.117 330.238 191.903 330.304 191.7C330.369 191.498 330.478 191.312 330.622 191.155C331.526 190.075 332.545 189.098 333.662 188.241C332.277 188.235 330.898 188.049 329.561 187.687Z" fill="#263238"/>
<path d="M345.614 187.687C345.403 187.635 345.205 187.54 345.032 187.407C344.86 187.275 344.716 187.109 344.611 186.919C344.505 186.729 344.44 186.519 344.419 186.302C344.399 186.086 344.423 185.867 344.49 185.661V185.455C344.565 185.258 344.679 185.078 344.824 184.926C344.97 184.774 345.144 184.652 345.337 184.568C345.53 184.484 345.738 184.439 345.949 184.437C346.16 184.434 346.369 184.473 346.564 184.552C347.848 185.054 349.07 185.702 350.205 186.484C349.814 185.112 349.585 183.698 349.525 182.273C349.512 182.057 349.543 181.841 349.617 181.637C349.691 181.434 349.805 181.248 349.953 181.091C350.102 180.934 350.281 180.809 350.479 180.723C350.678 180.638 350.892 180.594 351.108 180.594H351.33C351.546 180.594 351.76 180.638 351.958 180.723C352.157 180.809 352.336 180.934 352.484 181.091C352.632 181.248 352.747 181.434 352.821 181.637C352.894 181.841 352.926 182.057 352.913 182.273C352.854 183.7 352.62 185.114 352.216 186.484C353.361 185.708 354.587 185.06 355.874 184.552C356.068 184.462 356.28 184.414 356.495 184.413C356.71 184.412 356.922 184.457 357.118 184.546C357.313 184.635 357.487 184.765 357.628 184.927C357.768 185.089 357.872 185.28 357.932 185.487V185.629C358.025 185.833 358.07 186.055 358.063 186.279C358.057 186.503 358 186.723 357.896 186.921C357.792 187.12 357.645 187.292 357.464 187.425C357.284 187.557 357.076 187.647 356.855 187.687C355.521 188.043 354.15 188.245 352.77 188.289C353.898 189.121 354.923 190.083 355.826 191.155C355.956 191.319 356.052 191.507 356.109 191.708C356.165 191.909 356.182 192.119 356.157 192.327C356.132 192.535 356.066 192.735 355.963 192.917C355.86 193.099 355.722 193.259 355.557 193.387L355.383 193.53C355.214 193.674 355.015 193.778 354.8 193.834C354.586 193.89 354.361 193.898 354.144 193.855C353.926 193.812 353.721 193.721 353.543 193.588C353.366 193.455 353.221 193.283 353.119 193.086C352.351 191.922 351.719 190.673 351.235 189.366C350.712 190.668 350.059 191.914 349.287 193.086C349.185 193.283 349.04 193.455 348.863 193.588C348.685 193.721 348.48 193.812 348.262 193.855C348.044 193.898 347.82 193.89 347.605 193.834C347.391 193.778 347.192 193.674 347.023 193.53L346.849 193.387C346.673 193.266 346.526 193.109 346.416 192.927C346.307 192.744 346.237 192.54 346.213 192.329C346.189 192.117 346.211 191.903 346.277 191.7C346.343 191.498 346.452 191.312 346.596 191.155C347.499 190.075 348.519 189.098 349.635 188.241C348.277 188.228 346.925 188.042 345.614 187.687Z" fill="#263238"/>
<path d="M202.782 344.196C191.912 343.202 181.178 342.796 181.178 342.796C177.234 342.916 168.833 343.263 160.161 344.196C162.69 352.838 171.272 359.206 181.464 359.206C191.672 359.221 200.253 352.823 202.782 344.196Z" fill="#50BFD7"/>
<path d="M190.379 359.902C190.379 360.278 190.71 360.715 191.102 360.67C195.543 360.203 198.946 356.77 203.327 357.493C198.931 359.676 195.122 363.47 195.664 369.055C195.724 369.748 196.386 370.019 196.898 369.597C200.045 366.918 203.658 364.524 207.873 365.412C209.68 365.788 211.803 366.496 213.67 366.255C216.455 365.909 218.803 364.644 220.188 361.949C222.627 357.282 221.724 351.682 216.259 350.522C216.124 350.492 216.018 350.507 215.898 350.553C213.88 349.755 212.044 348.746 210.418 346.984C208.852 345.268 207.392 343.371 205.69 341.79C203.417 339.668 200.948 337.997 197.937 339.427C197.485 339.638 197.515 340.285 197.801 340.631C199.126 342.272 200.677 343.838 202.303 345.343C200.677 344.967 199.036 344.771 197.35 344.907C194.339 345.163 190.786 347.165 190.861 350.748C190.876 351.2 191.192 351.471 191.584 351.516C194.354 351.802 197.139 351.757 199.894 352.043C195.603 353.308 190.334 354.753 190.379 359.902Z" fill="#C4C4C4"/>
<path fill-rule="evenodd" clip-rule="evenodd" d="M202.31 338.714C203.698 339.261 204.951 340.276 206.099 341.347C207.25 342.417 208.313 343.65 209.343 344.847C209.854 345.44 210.358 346.024 210.86 346.575C212.355 348.195 214.042 349.152 215.936 349.918C216.074 349.895 216.221 349.896 216.385 349.932C219.334 350.558 221.101 352.411 221.766 354.754C222.421 357.062 221.995 359.787 220.722 362.224C219.226 365.132 216.68 366.485 213.744 366.85C212.715 366.983 211.643 366.852 210.632 366.654C210.123 366.554 209.619 366.435 209.137 366.32C209.086 366.307 209.035 366.295 208.984 366.283C208.554 366.18 208.144 366.081 207.749 365.999L207.748 365.999C203.84 365.176 200.431 367.376 197.287 370.054L197.283 370.057L197.28 370.06C196.87 370.397 196.34 370.495 195.873 370.295C195.406 370.095 195.11 369.644 195.063 369.108C194.572 364.043 197.456 360.408 201.094 358.063C199.884 358.228 198.705 358.666 197.47 359.188C197.196 359.304 196.918 359.424 196.636 359.547C194.965 360.273 193.163 361.056 191.166 361.266C190.716 361.316 190.356 361.085 190.139 360.838C189.924 360.592 189.777 360.252 189.776 359.903C189.752 357.066 191.216 355.245 193.189 354.004C194.229 353.349 195.428 352.844 196.644 352.42C196.336 352.406 196.027 352.392 195.717 352.379L195.704 352.378C194.324 352.318 192.922 352.258 191.52 352.113L191.517 352.112L191.513 352.112C190.87 352.038 190.284 351.558 190.258 350.766L190.258 350.762L190.258 350.759C190.215 348.739 191.204 347.174 192.576 346.103C193.936 345.041 195.692 344.441 197.297 344.305L197.299 344.304L197.3 344.304C198.364 344.219 199.406 344.26 200.432 344.39C199.326 343.302 198.275 342.176 197.333 341.009C197.091 340.715 196.969 340.317 196.99 339.942C197.012 339.553 197.202 339.103 197.679 338.88C199.348 338.087 200.892 338.154 202.31 338.714ZM198.2 339.966C198.197 339.974 198.194 339.988 198.192 340.01C198.19 340.047 198.196 340.094 198.211 340.141C198.226 340.189 198.247 340.224 198.264 340.245L198.267 340.248L198.269 340.251C199.568 341.86 201.096 343.404 202.711 344.899L204.374 346.439L202.166 345.928C200.582 345.561 199.006 345.376 197.398 345.505C195.993 345.624 194.468 346.154 193.317 347.052C192.18 347.941 191.43 349.168 191.462 350.729C191.465 350.808 191.49 350.841 191.506 350.856C191.527 350.877 191.571 350.906 191.649 350.915C193.011 351.056 194.381 351.115 195.769 351.176L195.774 351.176C197.157 351.236 198.558 351.297 199.955 351.442L202.987 351.757L200.063 352.618C199.988 352.64 199.913 352.663 199.838 352.685C197.733 353.304 195.532 353.952 193.83 355.023C192.107 356.107 190.96 357.583 190.98 359.894L190.98 359.897V359.9C190.98 359.907 190.982 359.929 190.995 359.961C191.008 359.993 191.026 360.022 191.046 360.045C191.054 360.054 191.061 360.061 191.066 360.065C192.853 359.872 194.458 359.177 196.128 358.453C196.417 358.328 196.707 358.203 197.001 358.078C198.965 357.248 201.05 356.505 203.423 356.896L205.264 357.2L203.593 358.03C199.292 360.166 195.755 363.776 196.262 368.995L196.262 368.998L196.262 369.001C196.269 369.082 196.292 369.128 196.307 369.152C196.323 369.175 196.338 369.184 196.347 369.188C196.357 369.192 196.372 369.196 196.395 369.192C196.418 369.188 196.459 369.175 196.511 369.133C199.659 366.452 203.475 363.868 207.995 364.82C208.409 364.906 208.837 365.009 209.265 365.112C209.316 365.124 209.367 365.136 209.418 365.148C209.9 365.264 210.382 365.377 210.863 365.472C211.831 365.661 212.754 365.764 213.591 365.656L213.593 365.655L213.594 365.655C216.228 365.328 218.377 364.152 219.652 361.672L219.652 361.67L219.653 361.668C220.819 359.438 221.16 357.031 220.607 355.083C220.064 353.169 218.647 351.643 216.133 351.109L216.13 351.109L216.127 351.108C216.127 351.108 216.126 351.108 216.126 351.108C216.122 351.109 216.116 351.111 216.108 351.114L215.891 351.196L215.675 351.11C213.609 350.293 211.682 349.242 209.974 347.391L209.973 347.389L209.971 347.388C209.418 346.781 208.89 346.168 208.368 345.561C207.366 344.397 206.384 343.256 205.279 342.229L205.278 342.228C204.153 341.178 203.036 340.295 201.868 339.834C200.732 339.386 199.539 339.331 198.2 339.966Z" fill="#2C2C2C"/>
<path fill-rule="evenodd" clip-rule="evenodd" d="M362.143 366.968C362.143 366.667 362.387 366.423 362.688 366.423H380.652C380.953 366.423 381.197 366.667 381.197 366.968C381.197 367.27 380.953 367.514 380.652 367.514H362.688C362.387 367.514 362.143 367.27 362.143 366.968Z" fill="#2C2C2C"/>
<path fill-rule="evenodd" clip-rule="evenodd" d="M23.3965 366.968C23.3965 366.667 23.6406 366.423 23.9416 366.423H356.701C357.002 366.423 357.246 366.667 357.246 366.968C357.246 367.27 357.002 367.514 356.701 367.514H23.9416C23.6406 367.514 23.3965 367.27 23.3965 366.968Z" fill="#2C2C2C"/>
<path fill-rule="evenodd" clip-rule="evenodd" d="M0 366.968C0 366.667 0.244075 366.423 0.545156 366.423H12.8205C13.1215 366.423 13.3656 366.667 13.3656 366.968C13.3656 367.27 13.1215 367.514 12.8205 367.514H0.545156C0.244075 367.514 0 367.27 0 366.968Z" fill="#2C2C2C"/>
<path d="M115.999 308.083H246.229C247.788 308.083 249.282 308.702 250.384 309.804C251.485 310.905 252.104 312.4 252.104 313.958V387.121H110.124V313.958C110.124 312.4 110.743 310.905 111.845 309.804C112.946 308.702 114.441 308.083 115.999 308.083Z" fill="white"/>
<path fill-rule="evenodd" clip-rule="evenodd" d="M115.999 308.83C114.639 308.83 113.335 309.37 112.374 310.331C111.413 311.293 110.873 312.597 110.873 313.956V386.371H251.355V313.956C251.355 312.597 250.815 311.293 249.854 310.331C248.893 309.37 247.589 308.83 246.229 308.83H115.999ZM111.315 309.273C112.557 308.03 114.242 307.333 115.999 307.333H246.229C247.986 307.333 249.671 308.03 250.913 309.273C252.155 310.515 252.853 312.199 252.853 313.956V387.12C252.853 387.533 252.518 387.869 252.104 387.869H110.124C109.71 387.869 109.375 387.533 109.375 387.12V313.956C109.375 312.199 110.073 310.515 111.315 309.273Z" fill="#2C2C2C"/>
<path d="M252.104 334.376C234.269 338.9 215.963 350.414 181.854 366.629C148.956 382.279 122.026 382.009 110.124 380.798V387.12H252.104V334.376Z" fill="#2C2C2C"/>
<path fill-rule="evenodd" clip-rule="evenodd" d="M252.564 333.787C252.746 333.929 252.853 334.147 252.853 334.378V387.121C252.853 387.535 252.518 387.87 252.104 387.87H110.124C109.71 387.87 109.375 387.535 109.375 387.121V380.8C109.375 380.588 109.465 380.387 109.622 380.245C109.779 380.103 109.989 380.034 110.2 380.055C122 381.255 148.785 381.532 181.532 365.954L181.533 365.954C192.767 360.614 202.272 355.79 210.623 351.552C214.948 349.358 218.964 347.32 222.75 345.449C233.825 339.975 242.92 335.935 251.92 333.652C252.144 333.596 252.381 333.645 252.564 333.787ZM182.176 367.307C149.862 382.679 123.261 382.77 110.873 381.625V386.373H251.355V335.347C242.818 337.627 234.088 341.516 223.413 346.792C219.653 348.65 215.649 350.682 211.331 352.873C202.968 357.117 193.424 361.96 182.176 367.307Z" fill="#2C2C2C"/>
<path fill-rule="evenodd" clip-rule="evenodd" d="M109.375 382.738C109.375 382.324 109.71 381.989 110.124 381.989H252.104C252.518 381.989 252.853 382.324 252.853 382.738V387.132C252.853 387.545 252.518 387.881 252.104 387.881H110.124C109.71 387.881 109.375 387.545 109.375 387.132V382.738ZM110.873 383.486V386.383H251.355V383.486H110.873Z" fill="#2C2C2C"/>
<path d="M188.679 228.064C188.679 231.244 185.376 233.822 181.301 233.822C177.226 233.822 173.923 231.244 173.923 228.064C173.923 224.883 177.226 222.305 181.301 222.305C185.376 222.305 188.679 224.883 188.679 228.064Z" fill="white"/>
<path fill-rule="evenodd" clip-rule="evenodd" d="M181.301 232.383C184.933 232.383 187.24 230.137 187.24 228.064C187.24 225.99 184.933 223.745 181.301 223.745C177.669 223.745 175.362 225.99 175.362 228.064C175.362 230.137 177.669 232.383 181.301 232.383ZM181.301 233.822C185.376 233.822 188.679 231.244 188.679 228.064C188.679 224.883 185.376 222.305 181.301 222.305C177.226 222.305 173.923 224.883 173.923 228.064C173.923 231.244 177.226 233.822 181.301 233.822Z" fill="#454545"/>
<path d="M252.978 383.618H107.696V388.114H252.978V383.618Z" fill="white"/>
<path fill-rule="evenodd" clip-rule="evenodd" d="M106.931 383.619C106.931 383.196 107.274 382.853 107.697 382.853H252.979C253.402 382.853 253.745 383.196 253.745 383.619V388.116C253.745 388.539 253.402 388.882 252.979 388.882H107.697C107.274 388.882 106.931 388.539 106.931 388.116V383.619ZM108.463 384.385V387.349H252.212V384.385H108.463Z" fill="#2C2C2C"/>
<path opacity="0.15" d="M161.44 228.051C159.919 227.116 158.511 226.14 157.165 225.164C157.751 224.136 160.361 219.707 160.649 217.23C160.937 214.753 160.649 211.763 158.789 210.036C158.373 209.612 157.872 209.28 157.319 209.062C156.766 208.843 156.174 208.743 155.58 208.769C154.986 208.794 154.404 208.943 153.872 209.208C153.339 209.472 152.868 209.846 152.489 210.304C150.29 213.13 152.212 219.285 154.01 221.927C154.103 222.07 155.264 223.427 156.066 224.393C155.459 223.941 154.832 223.489 154.267 223.047C152.13 221.382 150.28 219.727 148.656 218.247C147.731 217.405 146.919 216.613 146.169 215.874C146.241 214.62 146.467 209.564 145.604 207.272C144.741 204.98 143.055 202.442 140.63 201.733C140.069 201.546 139.475 201.479 138.887 201.536C138.298 201.592 137.728 201.772 137.213 202.062C136.698 202.352 136.249 202.748 135.896 203.222C135.543 203.696 135.293 204.239 135.163 204.816C134.516 208.331 139.058 212.914 141.863 214.435C142.11 214.568 146.138 216.172 146.149 216.11V216.038C146.868 216.768 147.639 217.538 148.492 218.371C150.095 219.881 151.914 221.577 154.021 223.293C156.267 225.173 158.625 226.916 161.081 228.514L162.622 229.47H163.886C163.085 229.028 162.242 228.545 161.44 228.051Z" fill="black"/>
<path opacity="0.15" d="M156.487 225.255C156.487 225.203 152.376 223.795 152.14 223.744C149.057 223.066 142.593 223.59 140.835 226.683C140.345 227.535 140.191 228.539 140.404 229.499H152.921C154.193 228.157 155.384 226.739 156.487 225.255Z" fill="black"/>
<path opacity="0.15" d="M211.98 211.308C211.168 210.547 210.377 209.777 209.585 209.016C209.996 208.759 214.939 205.697 216.429 203.467C217.755 201.483 218.896 198.596 218.074 196.201C217.898 195.634 217.604 195.11 217.212 194.663C216.82 194.217 216.338 193.858 215.798 193.61C215.258 193.361 214.672 193.23 214.078 193.223C213.484 193.216 212.895 193.335 212.35 193.57C209.102 195.071 208.003 201.432 208.393 204.597C208.393 204.834 209.195 208.061 209.421 208.872C207.663 207.197 205.937 205.502 204.282 203.734C202.073 201.39 200.013 198.908 198.116 196.304C198.312 196.191 203.481 193.016 205.012 190.734C206.338 188.751 207.478 185.853 206.646 183.469C206.471 182.901 206.178 182.378 205.787 181.931C205.397 181.484 204.916 181.125 204.377 180.875C203.839 180.626 203.253 180.493 202.66 180.485C202.066 180.477 201.478 180.594 200.932 180.827C197.685 182.338 196.575 188.699 196.965 191.865C196.965 192.111 197.839 195.585 197.993 196.201L197.644 195.749C195.809 193.083 194.213 190.259 192.875 187.312C192.115 185.699 191.488 184.106 190.902 182.544C191.93 182.05 196.575 179.759 198.178 177.858C199.781 175.956 201.169 173.274 200.614 170.818C200.501 170.234 200.267 169.679 199.926 169.191C199.586 168.703 199.146 168.292 198.637 167.985C198.127 167.678 197.558 167.481 196.968 167.408C196.377 167.335 195.777 167.387 195.208 167.56C191.817 168.701 190.07 174.898 190.07 178.094C190.07 178.269 190.286 180.026 190.46 181.31C190.214 180.601 189.936 179.882 189.71 179.193C188.847 176.635 188.21 174.23 187.655 172.103C187.357 170.88 187.11 169.78 186.884 168.742C187.634 167.714 190.625 163.604 191.159 161.261C191.694 158.918 191.704 155.824 190.07 153.892C189.702 153.426 189.239 153.042 188.713 152.765C188.187 152.489 187.608 152.327 187.015 152.289C186.421 152.251 185.827 152.339 185.27 152.546C184.712 152.753 184.205 153.075 183.781 153.492C181.294 156.071 182.558 162.401 184.068 165.217C184.192 165.454 186.668 169.03 186.709 168.978V168.917C186.894 169.944 187.11 170.972 187.377 172.154C187.871 174.302 188.456 176.717 189.268 179.348C190.112 182.143 191.114 184.888 192.269 187.569C193.563 190.58 195.117 193.471 196.914 196.212L196.986 196.304C196.174 195.646 193.831 193.889 193.636 193.776C190.882 192.152 184.603 190.693 181.931 193.026C181.5 193.434 181.159 193.929 180.931 194.477C180.703 195.026 180.593 195.616 180.608 196.21C180.622 196.804 180.761 197.388 181.016 197.924C181.27 198.461 181.634 198.938 182.085 199.325C183.945 201.031 187.059 201.134 189.402 200.702C192.053 200.219 196.832 196.88 197.212 196.592C199.115 199.335 201.199 201.948 203.45 204.412C204.755 205.861 206.112 207.269 207.489 208.667C206.769 208.122 206.112 207.639 206.019 207.588C203.255 205.964 196.986 204.505 194.314 206.838C193.883 207.246 193.543 207.741 193.315 208.289C193.087 208.838 192.977 209.428 192.991 210.022C193.006 210.615 193.145 211.2 193.399 211.736C193.653 212.273 194.018 212.75 194.468 213.137C196.328 214.843 199.442 214.946 201.785 214.514C204.128 214.083 208.301 211.318 209.39 210.568L210.993 212.171C213.562 214.71 216.131 217.227 218.598 219.786C219.461 220.68 220.283 221.595 221.105 222.52C220.458 222.026 219.913 221.626 219.821 221.574C217.067 219.961 210.798 218.491 208.126 220.834C207.693 221.242 207.352 221.736 207.123 222.285C206.894 222.834 206.783 223.424 206.798 224.019C206.812 224.613 206.952 225.197 207.207 225.734C207.463 226.271 207.828 226.748 208.28 227.134C210.14 228.84 213.244 228.943 215.597 228.511C217.95 228.079 221.712 225.572 223.007 224.698C223.818 225.654 224.63 226.62 225.38 227.586C225.833 228.213 226.316 228.789 226.747 229.426H228.926L228.309 228.562C227.847 227.884 227.282 227.226 226.737 226.507C225.493 224.955 224.157 223.424 222.77 221.944C223.942 221.215 228.032 218.553 229.368 216.559C230.704 214.566 231.834 211.678 231.012 209.294C230.836 208.726 230.542 208.202 230.15 207.755C229.758 207.309 229.277 206.949 228.737 206.7C228.198 206.451 227.612 206.318 227.018 206.31C226.423 206.302 225.834 206.419 225.288 206.653C222.041 208.163 220.931 214.525 221.331 217.69C221.331 217.885 221.886 220.136 222.205 221.358C221.373 220.464 220.54 219.57 219.656 218.697C217.231 216.292 214.59 213.815 211.98 211.308Z" fill="black"/>
<path opacity="0.15" d="M189.947 228.522C189.947 226.138 189.31 223.096 187.306 221.555C186.846 221.179 186.312 220.905 185.739 220.749C185.166 220.593 184.566 220.559 183.98 220.649C183.393 220.739 182.831 220.951 182.331 221.272C181.831 221.592 181.405 222.014 181.078 222.51C179.989 224.288 180.41 227.032 181.366 229.499H189.854C189.908 229.176 189.939 228.849 189.947 228.522Z" fill="black"/>
<path opacity="0.15" d="M181.624 184.229C184.409 184.465 190.318 182.317 190.318 182.317C190.318 182.317 187.718 178.854 187.533 178.659C185.303 176.367 179.651 173.253 176.444 174.846C175.912 175.124 175.444 175.512 175.073 175.985C174.702 176.457 174.436 177.003 174.292 177.586C174.148 178.169 174.13 178.776 174.239 179.367C174.348 179.958 174.581 180.519 174.923 181.012C176.27 183.098 179.24 184.023 181.624 184.229Z" fill="black"/>
<path opacity="0.15" d="M205.455 225.346C204.996 224.969 204.462 224.693 203.889 224.536C203.316 224.379 202.716 224.345 202.128 224.435C201.541 224.525 200.979 224.738 200.479 225.059C199.98 225.381 199.553 225.804 199.228 226.301C198.699 227.278 198.483 228.394 198.611 229.498H207.809C207.532 227.882 206.699 226.413 205.455 225.346Z" fill="black"/>
<path opacity="0.15" d="M173.413 224.225C173.413 221.841 172.776 218.799 170.772 217.268C170.313 216.889 169.779 216.612 169.206 216.454C168.632 216.296 168.032 216.261 167.444 216.352C166.856 216.442 166.294 216.655 165.794 216.978C165.294 217.3 164.868 217.725 164.544 218.223C162.694 221.224 165.181 227.01 167.247 229.528H172.067C172.783 227.839 173.237 226.051 173.413 224.225Z" fill="black"/>
<path d="M196.566 142.704V133.825H198.766C199.209 133.802 199.65 133.901 200.04 134.112C200.361 134.306 200.607 134.603 200.739 134.955C200.894 135.379 200.967 135.829 200.955 136.281C200.965 136.698 200.88 137.113 200.708 137.493C200.553 137.827 200.298 138.104 199.978 138.285C199.612 138.49 199.196 138.59 198.776 138.572H197.748V142.683L196.566 142.704ZM197.8 137.678H198.365C198.653 137.687 198.941 137.649 199.218 137.565C199.412 137.487 199.567 137.336 199.649 137.144C199.751 136.872 199.797 136.581 199.783 136.291C199.793 135.963 199.762 135.635 199.69 135.315C199.666 135.211 199.618 135.115 199.55 135.033C199.482 134.951 199.397 134.886 199.3 134.842C199.006 134.741 198.696 134.695 198.385 134.708H197.8V137.678Z" fill="#CCCCCC"/>
<path d="M200.953 142.702L202.834 133.823H204.026L205.927 142.702H204.786L204.375 140.462H202.567L202.145 142.702H200.953ZM202.7 139.619H204.18L203.44 135.622L202.7 139.619Z" fill="#CCCCCC"/>
<path d="M208.897 142.793C208.45 142.809 208.007 142.695 207.623 142.465C207.283 142.246 207.015 141.931 206.852 141.56C206.664 141.132 206.559 140.671 206.544 140.204L207.633 139.916C207.653 140.222 207.704 140.525 207.787 140.82C207.845 141.089 207.973 141.337 208.157 141.54C208.362 141.715 208.623 141.811 208.892 141.811C209.162 141.811 209.422 141.715 209.627 141.54C209.805 141.324 209.893 141.048 209.874 140.769C209.892 140.425 209.794 140.085 209.596 139.803C209.392 139.534 209.161 139.286 208.908 139.063L207.417 137.748C207.146 137.514 206.926 137.227 206.77 136.905C206.625 136.55 206.555 136.168 206.564 135.785C206.551 135.509 206.593 135.232 206.688 134.973C206.783 134.713 206.93 134.476 207.119 134.274C207.324 134.087 207.564 133.943 207.825 133.852C208.087 133.76 208.364 133.722 208.64 133.74C208.954 133.733 209.267 133.778 209.565 133.873C209.821 133.954 210.051 134.099 210.233 134.295C210.428 134.5 210.576 134.745 210.665 135.014C210.777 135.347 210.85 135.692 210.881 136.042L209.853 136.329C209.835 136.059 209.794 135.791 209.73 135.528C209.67 135.301 209.549 135.094 209.38 134.932C209.18 134.77 208.928 134.69 208.671 134.706C208.531 134.68 208.386 134.689 208.25 134.732C208.113 134.774 207.989 134.849 207.888 134.95C207.787 135.051 207.712 135.175 207.669 135.312C207.627 135.448 207.618 135.593 207.644 135.733C207.637 135.964 207.686 136.194 207.787 136.401C207.9 136.606 208.05 136.787 208.229 136.936L209.73 138.251C210.071 138.551 210.368 138.897 210.613 139.279C210.879 139.711 211.015 140.21 211.004 140.718C211.015 141.116 210.919 141.51 210.727 141.858C210.55 142.167 210.29 142.42 209.976 142.588C209.638 142.74 209.268 142.81 208.897 142.793Z" fill="#CCCCCC"/>
<path d="M214.097 142.794C213.649 142.81 213.206 142.696 212.822 142.465C212.482 142.246 212.214 141.932 212.051 141.561C211.868 141.131 211.763 140.672 211.743 140.205L212.832 139.917C212.857 140.222 212.909 140.525 212.987 140.821C213.048 141.09 213.179 141.339 213.367 141.541C213.569 141.717 213.828 141.814 214.097 141.814C214.365 141.814 214.624 141.717 214.826 141.541C215.004 141.325 215.093 141.049 215.073 140.77C215.091 140.426 214.993 140.086 214.795 139.804C214.591 139.535 214.361 139.287 214.107 139.064L212.617 137.748C212.345 137.515 212.125 137.228 211.969 136.906C211.824 136.551 211.754 136.169 211.764 135.786C211.75 135.509 211.792 135.233 211.887 134.974C211.983 134.714 212.129 134.476 212.319 134.275C212.738 133.902 213.289 133.71 213.85 133.741C214.163 133.733 214.476 133.779 214.775 133.874C215.029 133.957 215.258 134.102 215.443 134.295C215.631 134.504 215.774 134.749 215.864 135.015C215.981 135.346 216.054 135.692 216.08 136.043L215.052 136.33C215.031 136.06 214.986 135.791 214.919 135.529C214.859 135.302 214.738 135.095 214.569 134.933C214.372 134.774 214.123 134.693 213.87 134.707C213.608 134.694 213.35 134.782 213.151 134.953C213.06 135.05 212.99 135.165 212.945 135.291C212.901 135.417 212.884 135.55 212.894 135.683C212.884 135.913 212.93 136.142 213.028 136.351C213.14 136.555 213.29 136.737 213.47 136.885L214.97 138.201C215.314 138.5 215.615 138.846 215.864 139.228C216.121 139.663 216.253 140.161 216.244 140.667C216.255 141.065 216.16 141.459 215.967 141.808C215.79 142.116 215.53 142.369 215.217 142.537C214.87 142.715 214.485 142.803 214.097 142.794Z" fill="#CCCCCC"/>
<path d="M113.66 173.371C111.086 183.991 116.878 222.606 126.371 237.215C126.371 237.215 153.884 255.075 239.819 244.938C239.819 244.938 225.918 240.498 238.934 189.574C239.208 188.48 239.498 187.386 239.803 186.243C241.573 179.646 228.621 168.335 226.288 164.361C209.474 135.834 113.66 173.371 113.66 173.371Z" fill="#2C2C2C"/>
<path d="M142.994 286.192C142.994 286.192 129.608 351.065 123.51 354.637C118.602 357.517 125.138 360.878 110.85 356.067L110.85 345.989L107.971 340.95L111.893 328.508C111.893 328.508 125.424 262.588 135.142 261.784C144.877 260.963 142.994 286.192 142.994 286.192Z" fill="#2C2C2C"/>
<path d="M234.371 280.964C234.371 280.964 250.831 345.126 246.921 351.013C243.777 355.756 251.124 355.905 236.175 357.857L231.75 348.803L226.95 345.54L225.01 332.639C225.01 332.639 208.22 267.473 216.598 262.483C224.983 257.471 234.371 280.964 234.371 280.964Z" fill="#2C2C2C"/>
<path d="M241.078 281.51C241.078 291.775 234.353 298.13 224.087 298.13C213.822 298.13 205.504 289.812 205.504 279.547C205.504 269.282 213.259 257.954 223.042 261.028C233.822 264.39 241.078 271.245 241.078 281.51Z" fill="white"/>
<path fill-rule="evenodd" clip-rule="evenodd" d="M211.093 265.704C208.035 269.313 206.146 274.562 206.146 279.549C206.146 289.459 214.176 297.489 224.086 297.489C229.085 297.489 233.16 295.944 235.983 293.21C238.802 290.478 240.433 286.5 240.433 281.512C240.433 271.639 233.482 264.962 222.848 261.645L222.847 261.644C218.274 260.208 214.142 262.106 211.093 265.704ZM223.232 260.416C218.022 258.78 213.386 261.008 210.111 264.872C206.847 268.724 204.858 274.272 204.858 279.549C204.858 290.17 213.465 298.777 224.086 298.777C229.351 298.777 233.771 297.144 236.878 294.134C239.988 291.122 241.72 286.79 241.72 281.512C241.72 270.855 234.158 263.824 223.232 260.416Z" fill="#2C2C2C"/>
<path d="M232.725 278.516C232.725 286.111 227.753 290.809 220.159 290.809C212.564 290.809 206.418 284.663 206.418 277.068C206.418 269.474 212.146 261.091 219.402 263.36C227.351 265.87 232.725 270.938 232.725 278.516Z" fill="#2C2C2C"/>
<path d="M116.382 281.509C116.382 291.774 123.107 298.13 133.373 298.13C143.638 298.13 151.94 289.795 151.94 279.546C151.94 269.297 144.185 257.954 134.402 261.027C123.638 264.39 116.382 271.244 116.382 281.509Z" fill="white"/>
<path fill-rule="evenodd" clip-rule="evenodd" d="M147.331 264.877C150.595 268.732 152.584 274.279 152.584 279.549C152.584 290.152 143.994 298.776 133.373 298.776C128.107 298.776 123.687 297.144 120.58 294.134C117.471 291.121 115.738 286.789 115.738 281.512C115.738 270.855 123.3 263.824 134.21 260.416C139.42 258.779 144.057 261.012 147.331 264.877ZM146.349 265.709C143.299 262.109 139.167 260.207 134.595 261.644L134.594 261.644C123.976 264.961 117.025 271.638 117.025 281.512C117.025 286.5 118.656 290.478 121.476 293.209C124.298 295.943 128.373 297.489 133.373 297.489C143.281 297.489 151.296 289.444 151.296 279.549C151.296 274.57 149.407 269.321 146.349 265.709Z" fill="#2C2C2C"/>
<path d="M124.747 278.516C124.747 286.111 129.719 290.809 137.313 290.809C144.907 290.809 151.054 284.663 151.054 277.068C151.054 269.474 145.326 261.091 138.085 263.36C130.105 265.87 124.747 270.938 124.747 278.516Z" fill="#2C2C2C"/>
<path d="M202.121 363.874C190.504 362.812 179.032 362.377 179.032 362.377C174.817 362.506 165.839 362.876 156.571 363.874C159.274 373.109 168.445 379.915 179.338 379.915C190.247 379.931 199.418 373.093 202.121 363.874Z" fill="#50BFD7"/>
<path d="M201.176 364.839C202.173 360.913 222.14 260.868 222.14 260.868C222.14 260.868 168.851 245.132 134.773 260.868L156.623 365.708L201.176 364.839Z" fill="white"/>
<path fill-rule="evenodd" clip-rule="evenodd" d="M222.32 260.251C222.321 260.251 222.321 260.252 222.139 260.869C222.77 260.995 222.77 260.995 222.77 260.996L222.769 260.999L222.545 262.119C222.399 262.853 222.184 263.93 221.91 265.301C221.362 268.045 220.578 271.968 219.634 276.688C217.747 286.129 215.22 298.758 212.661 311.509C207.548 336.993 202.302 363.015 201.797 364.999L201.677 365.474L156.1 366.363L134.037 260.499L134.502 260.284C151.706 252.34 173.694 252.358 191.306 254.328C200.125 255.315 207.874 256.795 213.419 258.028C216.192 258.644 218.415 259.199 219.946 259.601C220.711 259.802 221.303 259.964 221.705 260.076C221.906 260.132 222.059 260.176 222.163 260.206C222.214 260.22 222.253 260.232 222.28 260.24L222.31 260.248L222.318 260.251L222.32 260.251ZM222.139 260.869L222.77 260.995L222.885 260.418L222.321 260.252L222.139 260.869ZM221.391 261.325C221.381 261.322 221.37 261.319 221.359 261.316C220.963 261.205 220.377 261.045 219.619 260.846C218.102 260.448 215.895 259.897 213.14 259.284C207.628 258.059 199.926 256.588 191.163 255.607C173.771 253.662 152.313 253.661 135.507 261.241L157.143 365.055L200.66 364.207C201.572 360.117 206.538 335.487 211.399 311.256C213.957 298.505 216.485 285.877 218.372 276.436C219.316 271.716 220.1 267.792 220.648 265.049C220.922 263.678 221.136 262.601 221.283 261.867L221.391 261.325Z" fill="black"/>
<path d="M201.176 364.839C202.173 360.913 222.14 260.868 222.14 260.868C222.14 260.868 168.851 245.132 134.773 260.868L156.623 365.708L201.176 364.839Z" fill="white"/>
<path fill-rule="evenodd" clip-rule="evenodd" d="M222.32 260.251C222.321 260.251 222.321 260.252 222.139 260.869C222.77 260.995 222.77 260.995 222.77 260.996L222.769 260.999L222.545 262.119C222.399 262.853 222.184 263.93 221.91 265.301C221.362 268.045 220.578 271.968 219.634 276.688C217.747 286.129 215.22 298.758 212.661 311.509C207.548 336.993 202.302 363.015 201.797 364.999L201.677 365.474L156.1 366.363L134.037 260.499L134.502 260.284C151.706 252.34 173.694 252.358 191.306 254.328C200.125 255.315 207.874 256.795 213.419 258.028C216.192 258.644 218.415 259.199 219.946 259.601C220.711 259.802 221.303 259.964 221.705 260.076C221.906 260.132 222.059 260.176 222.163 260.206C222.214 260.22 222.253 260.232 222.28 260.24L222.31 260.248L222.318 260.251L222.32 260.251ZM222.139 260.869L222.77 260.995L222.885 260.418L222.321 260.252L222.139 260.869ZM221.391 261.325C221.381 261.322 221.37 261.319 221.359 261.316C220.963 261.205 220.377 261.045 219.619 260.846C218.102 260.448 215.895 259.897 213.14 259.284C207.628 258.059 199.926 256.588 191.163 255.607C173.771 253.662 152.313 253.661 135.507 261.241L157.143 365.055L200.66 364.207C201.572 360.117 206.538 335.487 211.399 311.256C213.957 298.505 216.485 285.877 218.372 276.436C219.316 271.716 220.1 267.792 220.648 265.049C220.922 263.678 221.136 262.601 221.283 261.867L221.391 261.325Z" fill="#2C2C2C"/>
<path d="M209.204 257.794C194.321 254.802 169.157 251.391 147.532 256.539C150.09 272.677 152.649 288.831 155.207 304.969C157.266 315.91 167.644 323.199 178.473 323.263C189.301 323.199 199.679 315.926 201.738 304.969C204.216 289.234 206.71 273.514 209.204 257.794Z" fill="#50BFD7"/>
<path fill-rule="evenodd" clip-rule="evenodd" d="M147.381 255.913C169.147 250.731 194.426 254.167 209.328 257.163L209.934 257.285L209.836 257.905C207.342 273.622 204.849 289.337 202.372 305.069L202.37 305.079L202.368 305.088C200.243 316.397 189.558 323.841 178.474 323.907L178.47 323.907L178.466 323.907C167.382 323.841 156.698 316.38 154.572 305.088L154.57 305.079L154.569 305.07C153.29 297.002 152.011 288.93 150.732 280.857L150.732 280.855C149.452 272.782 148.173 264.709 146.894 256.64L146.801 256.051L147.381 255.913ZM148.259 257.03C149.507 264.901 150.755 272.776 152.002 280.651L152.003 280.654C153.281 288.724 154.56 296.793 155.839 304.859C157.836 315.443 167.903 322.555 178.47 322.62C189.038 322.555 199.104 315.459 201.102 304.86C203.547 289.331 206.008 273.817 208.469 258.304C193.674 255.374 169.321 252.178 148.259 257.03Z" fill="#2C2C2C"/>
<path d="M176.623 263.508C181.707 263.508 189.607 261.963 189.607 256.895L188.304 239.969L187.161 225.166C187.161 220.082 183.042 215.979 177.974 215.979C175.432 215.979 173.147 217.009 171.474 218.666C169.817 220.323 168.771 222.624 168.771 225.166L167.645 239.985L166.567 254.192C165.118 262.768 176.623 263.508 176.623 263.508Z" fill="#2C2C2C"/>
<path d="M206.354 129.72C198.744 120.356 188.109 114.708 174.465 114.708C143.556 114.708 113.34 143.203 113.34 178.745C113.34 214.288 138.391 243.104 169.3 243.104C172.276 243.104 175.156 242.847 177.924 242.332C178.213 243.893 178.374 245.502 178.374 247.143C178.374 247.448 178.358 247.738 178.358 248.028C263.569 227.401 249.62 124.459 206.354 129.72Z" fill="#2C2C2C"/>
<path d="M139.903 214.642C145.635 214.642 150.281 209.996 150.281 204.264C150.281 198.533 145.635 193.886 139.903 193.886C134.172 193.886 129.525 198.533 129.525 204.264C129.525 209.996 134.172 214.642 139.903 214.642Z" fill="white"/>
<path fill-rule="evenodd" clip-rule="evenodd" d="M139.901 194.531C134.525 194.531 130.167 198.889 130.167 204.266C130.167 209.642 134.525 214 139.901 214C145.277 214 149.636 209.642 149.636 204.266C149.636 198.889 145.277 194.531 139.901 194.531ZM128.88 204.266C128.88 198.179 133.814 193.244 139.901 193.244C145.988 193.244 150.923 198.179 150.923 204.266C150.923 210.353 145.988 215.287 139.901 215.287C133.814 215.287 128.88 210.353 128.88 204.266Z" fill="#2C2C2C"/>
<path d="M212.984 214.642C218.716 214.642 223.362 209.996 223.362 204.264C223.362 198.533 218.716 193.886 212.984 193.886C207.253 193.886 202.606 198.533 202.606 204.264C202.606 209.996 207.253 214.642 212.984 214.642Z" fill="white"/>
<path fill-rule="evenodd" clip-rule="evenodd" d="M212.984 194.531C207.608 194.531 203.25 198.889 203.25 204.266C203.25 209.642 207.608 214 212.984 214C218.36 214 222.719 209.642 222.719 204.266C222.719 198.889 218.36 194.531 212.984 194.531ZM201.963 204.266C201.963 198.179 206.897 193.244 212.984 193.244C219.071 193.244 224.006 198.179 224.006 204.266C224.006 210.353 219.071 215.287 212.984 215.287C206.897 215.287 201.963 210.353 201.963 204.266Z" fill="#2C2C2C"/>
<path d="M177.426 247.562C199.703 247.562 217.763 221.996 217.763 190.459C217.763 158.923 199.703 133.357 177.426 133.357C155.148 133.357 137.089 158.923 137.089 190.459C137.089 221.996 155.148 247.562 177.426 247.562Z" fill="white"/>
<path fill-rule="evenodd" clip-rule="evenodd" d="M149.428 150.453C142.214 160.666 137.732 174.808 137.732 190.459C137.732 206.111 142.214 220.253 149.428 230.465C156.643 240.68 166.551 246.918 177.425 246.918C188.298 246.918 198.206 240.68 205.422 230.465C212.636 220.253 217.118 206.111 217.118 190.459C217.118 174.808 212.636 160.666 205.422 150.453C198.206 140.239 188.298 134.001 177.425 134.001C166.551 134.001 156.643 140.239 149.428 150.453ZM148.377 149.711C155.76 139.258 166.021 132.713 177.425 132.713C188.828 132.713 199.089 139.258 206.473 149.711C213.858 160.165 218.405 174.574 218.405 190.459C218.405 206.345 213.858 220.754 206.473 231.208C199.089 241.661 188.828 248.205 177.425 248.205C166.021 248.205 155.76 241.661 148.377 231.208C140.992 220.754 136.444 206.345 136.444 190.459C136.444 174.574 140.992 160.165 148.377 149.711Z" fill="#2C2C2C"/>
<path d="M131.2 177.796C131.2 177.796 165.536 179.47 176.975 158.811C176.975 158.811 201.818 180.306 225.534 178.633L223.298 169.14L214.094 150.991L208.511 144.298L197.071 132.295L181.722 125.875L163.299 128.385L138.73 145.134L135.657 156.301L131.2 177.796Z" fill="#2C2C2C"/>
<path d="M178.423 212.775C178.439 212.872 178.229 213.049 177.763 213.049C177.312 213.065 176.62 212.856 176.009 212.276C175.703 211.987 175.43 211.633 175.221 211.182C175.189 211.118 175.172 211.054 175.14 210.989L175.108 210.893L175.076 210.812L175.028 210.668C175.012 210.603 174.995 210.523 174.963 210.458C174.899 210.217 174.851 209.96 174.835 209.686C174.738 208.624 174.947 207.546 175.205 206.516C176.202 202.397 177.377 199.163 177.811 199.26C178.246 199.373 177.795 202.784 176.797 206.903C176.54 207.916 176.347 208.833 176.347 209.606C176.347 209.799 176.363 209.992 176.379 210.169L176.395 210.233V210.265V210.281V210.297C176.395 210.297 176.379 210.249 176.395 210.265L176.427 210.426L176.444 210.507L176.46 210.555L176.492 210.651C176.588 210.957 176.733 211.247 176.894 211.472C177.216 211.939 177.602 212.228 177.908 212.389C178.181 212.598 178.406 212.663 178.423 212.775Z" fill="#2C2C2C"/>
<path d="M133.822 197.007C133.371 195.221 133.033 193.403 132.76 191.569C132.502 189.734 132.325 187.9 132.229 186.05C132.068 182.349 132.213 178.616 132.711 174.932C133.21 171.231 134.063 167.579 135.27 164.039C135.334 163.814 135.414 163.589 135.495 163.38L135.736 162.72L136.219 161.401L136.766 160.097L137.039 159.454C137.136 159.244 137.216 159.019 137.329 158.81C138.118 157.105 138.97 155.415 139.936 153.806C141.85 150.556 144.087 147.499 146.661 144.716C149.252 141.948 152.164 139.47 155.35 137.395C155.736 137.121 156.154 136.88 156.556 136.638C156.959 136.397 157.377 136.14 157.779 135.914L159.05 135.239L159.678 134.901C159.887 134.788 160.112 134.692 160.321 134.595L161.625 134C161.737 133.952 161.834 133.903 161.946 133.855L162.284 133.726L162.944 133.469L163.604 133.211C163.829 133.131 164.038 133.034 164.279 132.954L165.647 132.503C169.283 131.329 173.113 130.734 176.942 130.653C178.857 130.589 180.771 130.734 182.67 130.943C183.153 131.007 183.619 131.088 184.086 131.152L184.794 131.265C184.906 131.281 185.035 131.297 185.148 131.329L185.502 131.409L186.901 131.715C187.368 131.812 187.835 131.94 188.285 132.069C191.97 133.099 195.526 134.595 198.776 136.59L199.982 137.346C200.192 137.475 200.385 137.604 200.578 137.749L201.157 138.151L201.736 138.553C201.929 138.682 202.122 138.827 202.315 138.971L203.442 139.84L204.005 140.275L204.552 140.741L205.63 141.675C205.984 141.98 206.322 142.318 206.66 142.656L207.174 143.155C207.351 143.316 207.512 143.477 207.673 143.654L208.655 144.683L209.137 145.198L209.604 145.729L210.537 146.807C210.698 146.984 210.843 147.177 210.988 147.354L211.422 147.917C211.712 148.287 212.001 148.657 212.291 149.044L213.112 150.202C213.675 150.958 214.157 151.779 214.672 152.567C216.667 155.769 218.292 159.18 219.58 162.688C220.867 166.211 221.784 169.848 222.363 173.532L222.476 174.224L222.524 174.562L222.556 174.916L222.717 176.3C222.846 177.217 222.878 178.15 222.958 179.083C223.071 180.933 223.103 182.8 223.055 184.65L223.039 185.342L223.007 186.034C222.974 186.5 222.958 186.951 222.91 187.418C222.846 188.335 222.749 189.268 222.637 190.185C222.395 192.019 222.09 193.837 221.687 195.639C221.913 193.805 222.09 191.987 222.154 190.153C222.234 188.319 222.25 186.484 222.17 184.666C222.09 182.848 221.961 181.014 221.736 179.212C221.607 178.311 221.51 177.41 221.333 176.509L221.092 175.173L221.028 174.835L220.947 174.498L220.802 173.838C220.046 170.282 218.968 166.807 217.601 163.476L217.343 162.849L217.07 162.237L216.506 160.998C216.329 160.58 216.12 160.194 215.911 159.792L215.3 158.585C215.091 158.183 214.865 157.796 214.64 157.41C214.415 157.024 214.206 156.622 213.964 156.236L213.256 155.093C213.015 154.707 212.79 154.321 212.532 153.967C212.017 153.227 211.535 152.471 210.988 151.763L210.183 150.685C209.91 150.331 209.62 149.993 209.33 149.639L208.896 149.124C208.751 148.947 208.606 148.77 208.462 148.609L207.561 147.612L207.11 147.113L206.643 146.63L205.694 145.681C203.136 143.203 200.288 141.031 197.215 139.229C194.158 137.427 190.859 136.059 187.448 135.142C186.596 134.885 185.727 134.74 184.874 134.547L184.552 134.482C184.44 134.466 184.327 134.45 184.231 134.434L183.571 134.338C183.136 134.273 182.702 134.193 182.268 134.145C180.514 133.968 178.744 133.839 176.99 133.887C173.467 133.952 169.943 134.482 166.58 135.56L165.325 135.963C165.116 136.027 164.907 136.108 164.698 136.188L164.086 136.429L163.475 136.671L163.169 136.783C163.073 136.815 162.96 136.88 162.863 136.912L161.657 137.459C161.464 137.556 161.254 137.636 161.045 137.733L160.45 138.038L159.275 138.65C158.889 138.875 158.503 139.1 158.117 139.309C157.731 139.535 157.345 139.744 156.975 140.001C153.966 141.9 151.198 144.168 148.688 146.711L147.771 147.692L147.321 148.191C147.24 148.271 147.16 148.352 147.096 148.432L146.886 148.69L146.018 149.719C145.873 149.896 145.728 150.057 145.583 150.234L145.165 150.765L144.344 151.827C144.199 152.004 144.087 152.181 143.942 152.374L143.556 152.921C143.298 153.291 143.041 153.645 142.784 154.031L142.059 155.174C140.145 158.215 138.504 161.449 137.216 164.812C135.913 168.174 134.916 171.682 134.24 175.254L133.982 176.589C133.902 177.04 133.854 177.49 133.773 177.941L133.58 179.292C133.532 179.743 133.484 180.193 133.435 180.644L133.291 182.011L133.21 183.379L133.13 184.747C133.114 185.197 133.098 185.664 133.081 186.114C133.049 187.949 133.081 189.767 133.21 191.601C133.355 193.355 133.564 195.173 133.822 197.007Z" fill="#50BFD7"/>
<path d="M166.934 193.483C166.934 198.069 162.96 201.786 158.069 201.786C153.161 201.786 149.203 198.069 149.203 193.483C149.203 188.898 153.177 185.181 158.069 185.181C162.96 185.181 166.934 188.898 166.934 193.483Z" fill="white"/>
<path fill-rule="evenodd" clip-rule="evenodd" d="M158.069 185.823C153.492 185.823 149.847 189.291 149.847 193.482C149.847 197.673 153.477 201.14 158.069 201.14C162.645 201.14 166.29 197.672 166.29 193.482C166.29 189.291 162.645 185.823 158.069 185.823ZM148.56 193.482C148.56 188.501 152.863 184.536 158.069 184.536C163.275 184.536 167.578 188.501 167.578 193.482C167.578 198.462 163.275 202.427 158.069 202.427C152.846 202.427 148.56 198.461 148.56 193.482Z" fill="#2C2C2C"/>
<path d="M153.728 192.969C153.728 196.75 156.189 199.823 159.214 199.823C162.239 199.823 164.701 196.75 164.701 192.969C164.701 189.187 162.239 186.114 159.214 186.114C156.173 186.098 153.728 189.171 153.728 192.969Z" fill="#50BFD7"/>
<path d="M155.303 192.968C155.303 195.655 157.04 197.828 159.196 197.828C161.352 197.828 163.09 195.655 163.09 192.968C163.09 190.281 161.352 188.093 159.196 188.093C157.057 188.093 155.303 190.265 155.303 192.968Z" fill="#2C2C2C"/>
<path d="M155.062 188.351C155.062 189.092 155.963 189.671 157.073 189.671C158.183 189.671 159.084 189.075 159.084 188.351C159.084 187.611 158.183 187.032 157.073 187.032C155.963 187.016 155.062 187.611 155.062 188.351Z" fill="white"/>
<path d="M158.647 183.975C153.161 183.428 148.945 188.383 148.945 193.5C148.945 194.031 149.605 194.127 149.879 193.757C152.115 190.684 152.839 187.659 156.926 186.485C162.959 184.747 166.274 190.941 166.612 195.8C166.66 196.267 167.062 195.849 167.111 195.366C167.658 189.558 164.761 184.586 158.647 183.975Z" fill="#2C2C2C"/>
<path d="M169.478 180.788C169.478 180.788 157.508 168.849 144.636 183.025C144.62 183.025 155.754 175.897 169.478 180.788Z" fill="#2C2C2C"/>
<path d="M205.502 193.483C205.502 198.069 201.528 201.786 196.637 201.786C191.73 201.786 187.771 198.069 187.771 193.483C187.771 188.898 191.746 185.181 196.637 185.181C201.528 185.181 205.502 188.898 205.502 193.483Z" fill="white"/>
<path fill-rule="evenodd" clip-rule="evenodd" d="M196.636 185.823C192.059 185.823 188.414 189.291 188.414 193.482C188.414 197.673 192.044 201.14 196.636 201.14C201.212 201.14 204.858 197.672 204.858 193.482C204.858 189.291 201.212 185.823 196.636 185.823ZM187.127 193.482C187.127 188.501 191.43 184.536 196.636 184.536C201.842 184.536 206.145 188.501 206.145 193.482C206.145 198.462 201.842 202.427 196.636 202.427C191.413 202.427 187.127 198.461 187.127 193.482Z" fill="#2C2C2C"/>
<path d="M192.293 192.969C192.293 196.75 194.755 199.823 197.78 199.823C200.804 199.823 203.266 196.75 203.266 192.969C203.266 189.187 200.804 186.114 197.78 186.114C194.755 186.098 192.293 189.171 192.293 192.969Z" fill="#50BFD7"/>
<path d="M193.884 192.968C193.884 195.655 195.621 197.828 197.778 197.828C199.934 197.828 201.671 195.655 201.671 192.968C201.671 190.281 199.934 188.093 197.778 188.093C195.621 188.093 193.884 190.265 193.884 192.968Z" fill="#2C2C2C"/>
<path d="M193.628 188.351C193.628 189.092 194.529 189.671 195.639 189.671C196.749 189.671 197.65 189.075 197.65 188.351C197.65 187.611 196.749 187.032 195.639 187.032C194.545 187.016 193.628 187.611 193.628 188.351Z" fill="white"/>
<path d="M197.218 183.975C191.731 183.428 187.516 188.383 187.516 193.5C187.516 194.031 188.175 194.127 188.449 193.757C190.685 190.684 191.409 187.659 195.496 186.485C201.53 184.747 204.844 190.941 205.182 195.8C205.23 196.267 205.633 195.849 205.681 195.366C206.228 189.558 203.348 184.586 197.218 183.975Z" fill="#2C2C2C"/>
<path d="M208.044 179.485C208.044 179.485 196.073 167.547 183.201 181.722C183.201 181.722 194.335 174.594 208.044 179.485Z" fill="#2C2C2C"/>
<path d="M189.508 370.841C189.508 371.244 189.862 371.71 190.28 371.662C195.027 371.163 198.663 367.495 203.345 368.267C198.647 370.6 194.576 374.655 195.156 380.624C195.22 381.364 195.928 381.654 196.475 381.203C199.838 378.339 203.699 375.781 208.204 376.73C210.135 377.133 212.404 377.889 214.399 377.631C217.375 377.261 219.885 375.91 221.366 373.03C223.972 368.042 223.007 362.056 217.166 360.818C217.021 360.785 216.909 360.802 216.78 360.85C214.624 359.997 212.661 358.919 210.923 357.037C209.25 355.202 207.689 353.175 205.871 351.486C203.442 349.217 200.803 347.431 197.585 348.959C197.102 349.185 197.135 349.877 197.44 350.247C198.856 352 200.513 353.674 202.251 355.283C200.513 354.88 198.76 354.671 196.958 354.816C193.74 355.09 189.943 357.23 190.023 361.059C190.039 361.542 190.377 361.831 190.795 361.88C193.756 362.185 196.732 362.137 199.677 362.443C195.091 363.794 189.46 365.339 189.508 370.841Z" fill="white"/>
<path fill-rule="evenodd" clip-rule="evenodd" d="M202.26 348.198C203.743 348.783 205.083 349.867 206.31 351.013C207.54 352.156 208.675 353.474 209.777 354.753C210.323 355.387 210.861 356.011 211.398 356.599C212.996 358.33 214.799 359.353 216.823 360.172C216.97 360.148 217.127 360.148 217.303 360.187C220.454 360.856 222.342 362.836 223.053 365.34C223.753 367.807 223.298 370.72 221.937 373.324C220.339 376.432 217.617 377.877 214.48 378.268C213.381 378.41 212.235 378.27 211.154 378.058C210.61 377.951 210.072 377.824 209.556 377.701C209.502 377.688 209.447 377.675 209.393 377.662C208.933 377.551 208.495 377.446 208.073 377.358L208.072 377.358C203.895 376.478 200.252 378.83 196.892 381.691L196.888 381.695L196.884 381.698C196.446 382.059 195.88 382.164 195.381 381.95C194.882 381.736 194.566 381.254 194.515 380.681C193.991 375.268 197.073 371.383 200.961 368.877C199.667 369.053 198.407 369.521 197.088 370.079C196.794 370.203 196.497 370.332 196.196 370.463C194.41 371.238 192.484 372.075 190.351 372.3C189.869 372.354 189.484 372.107 189.253 371.843C189.023 371.579 188.865 371.217 188.865 370.843C188.839 367.812 190.404 365.866 192.512 364.539C193.624 363.839 194.905 363.299 196.205 362.846C195.876 362.831 195.546 362.817 195.214 362.802L195.201 362.802C193.726 362.738 192.227 362.672 190.729 362.518L190.725 362.517L190.722 362.517C190.034 362.438 189.408 361.925 189.38 361.078L189.38 361.074L189.38 361.071C189.334 358.912 190.391 357.24 191.857 356.095C193.31 354.96 195.188 354.319 196.903 354.173L196.905 354.173L196.906 354.173C198.043 354.081 199.157 354.125 200.253 354.265C199.071 353.101 197.948 351.898 196.942 350.651C196.683 350.336 196.552 349.911 196.575 349.51C196.598 349.095 196.801 348.614 197.311 348.375C199.095 347.529 200.745 347.6 202.26 348.198ZM197.868 349.536C197.865 349.544 197.861 349.56 197.86 349.583C197.857 349.623 197.863 349.673 197.879 349.723C197.895 349.774 197.918 349.812 197.937 349.835L197.939 349.838L197.941 349.84C199.33 351.561 200.963 353.211 202.688 354.809L204.465 356.454L202.106 355.908C200.413 355.516 198.729 355.318 197.011 355.456C195.509 355.584 193.879 356.149 192.65 357.109C191.434 358.059 190.633 359.37 190.666 361.039C190.67 361.123 190.696 361.158 190.713 361.175C190.736 361.198 190.783 361.228 190.866 361.238C192.323 361.388 193.786 361.452 195.27 361.516L195.275 361.516C196.753 361.581 198.25 361.646 199.743 361.801L202.984 362.137L199.859 363.058C199.779 363.082 199.698 363.105 199.618 363.129C197.369 363.791 195.016 364.484 193.198 365.628C191.357 366.787 190.13 368.364 190.152 370.834L190.152 370.837V370.84C190.152 370.848 190.154 370.872 190.168 370.906C190.181 370.939 190.201 370.971 190.222 370.995C190.23 371.005 190.238 371.012 190.244 371.017C192.153 370.81 193.868 370.067 195.653 369.294C195.962 369.161 196.272 369.026 196.586 368.893C198.685 368.006 200.914 367.212 203.45 367.63L205.418 367.955L203.632 368.842C199.034 371.124 195.255 374.982 195.796 380.56L195.797 380.563L195.797 380.566C195.804 380.653 195.828 380.703 195.845 380.728C195.862 380.753 195.878 380.762 195.888 380.767C195.898 380.771 195.914 380.775 195.939 380.771C195.963 380.766 196.007 380.752 196.063 380.707C199.427 377.843 203.505 375.081 208.336 376.098C208.778 376.19 209.236 376.3 209.693 376.41C209.747 376.423 209.802 376.436 209.856 376.449C210.371 376.573 210.887 376.694 211.401 376.795C212.436 376.997 213.421 377.107 214.317 376.991L214.318 376.991L214.319 376.991C217.134 376.641 219.431 375.384 220.793 372.734L220.794 372.732L220.795 372.73C222.041 370.347 222.405 367.774 221.815 365.692C221.234 363.647 219.72 362.015 217.033 361.445L217.03 361.445L217.027 361.444C217.026 361.444 217.026 361.444 217.026 361.444C217.021 361.445 217.015 361.447 217.006 361.45L216.774 361.538L216.543 361.446C214.335 360.573 212.277 359.449 210.451 357.471L210.449 357.47L210.448 357.468C209.857 356.82 209.293 356.165 208.734 355.516C207.663 354.272 206.614 353.052 205.433 351.955L205.432 351.954C204.23 350.831 203.036 349.888 201.788 349.395C200.574 348.916 199.299 348.858 197.868 349.536Z" fill="#2C2C2C"/>
<path fill-rule="evenodd" clip-rule="evenodd" d="M136.284 187.433V187.755H134.997V187.433H136.284Z" fill="#2C2C2C"/>
<path fill-rule="evenodd" clip-rule="evenodd" d="M143.041 190.974V191.296H141.754V190.974H143.041Z" fill="#2C2C2C"/>
<path d="M179.647 189.076C181.851 189.543 181.031 190.975 181.031 191.184C181.031 191.393 181.851 203.3 192.487 206.437C203.122 209.575 209.494 203.412 211.344 200.323C213.194 197.234 214.739 189.897 215.189 189.334C215.656 188.771 217.86 187.789 217.86 187.789L218.118 184.909L215.35 184.089C215.35 184.089 208.367 180.903 198.086 180.758C187.821 180.597 182.012 186.518 182.012 186.518C179.116 185.601 175.528 185.472 172.246 186.518C172.246 186.518 166.438 180.613 156.172 180.758C145.907 180.919 138.908 184.089 138.908 184.089L136.141 184.909L136.398 187.789C136.398 187.789 138.602 188.771 139.069 189.334C139.536 189.897 141.064 197.25 142.914 200.323C144.765 203.412 151.136 209.575 161.771 206.437C172.407 203.3 173.227 191.393 173.227 191.184C173.227 190.975 172.407 189.543 174.611 189.076C176.526 188.674 177.732 188.674 179.647 189.076ZM205.165 203.976C197.056 208.851 187.338 203.927 184.41 197.507C181.481 191.088 183.943 187.693 183.943 187.693C188.85 179.712 208.592 179.374 211.987 187.998C212.567 189.447 213.291 199.1 205.165 203.976ZM142.255 187.998C145.65 179.358 165.408 179.712 170.299 187.693C170.299 187.693 172.761 191.088 169.832 197.507C166.904 203.927 157.202 208.851 149.077 203.976C140.968 199.1 141.692 189.447 142.255 187.998Z" fill="#2C2C2C"/>
<path d="M184.618 275.476H172.261C168.978 275.476 166.308 278.147 166.308 281.429V293.786C166.308 297.068 168.978 299.739 172.261 299.739H184.618C187.9 299.739 190.571 297.068 190.571 293.786V281.429C190.571 278.147 187.916 275.476 184.618 275.476ZM163.025 270.214C161.143 270.214 159.614 271.743 159.614 273.625C159.614 275.508 161.143 277.036 163.025 277.036C164.908 277.036 166.436 275.508 166.436 273.625C166.436 271.743 164.908 270.214 163.025 270.214Z" fill="white"/>
<path d="M183.749 282.845C182.96 280.738 180.949 279.338 178.697 279.338H175.35L181.963 296.103H189.058L183.749 282.845ZM170.233 291.292L168.303 296.103H175.35L178.632 287.785H175.286C173.033 287.785 171.022 289.185 170.233 291.292ZM171.328 283.505C172.486 283.505 173.435 282.556 173.435 281.397C173.435 280.239 172.486 279.29 171.328 279.29C170.169 279.29 169.22 280.239 169.22 281.397C169.22 282.556 170.169 283.505 171.328 283.505Z" fill="#50BFD7"/>
<path d="M210.954 336.042C199.831 335.025 188.848 334.609 188.848 334.609C184.811 334.733 176.215 335.087 167.342 336.042C169.93 344.885 178.711 351.401 189.14 351.401C199.585 351.417 208.366 344.869 210.954 336.042Z" fill="#50BFD7"/>
<path d="M198.264 352.109C198.264 352.494 198.603 352.941 199.003 352.895C203.548 352.417 207.03 348.905 211.512 349.644C207.014 351.878 203.117 355.76 203.671 361.475C203.733 362.184 204.411 362.461 204.934 362.03C208.154 359.288 211.851 356.838 216.165 357.747C218.013 358.132 220.186 358.857 222.096 358.61C224.946 358.256 227.349 356.962 228.766 354.204C231.262 349.429 230.338 343.698 224.746 342.512C224.607 342.481 224.499 342.496 224.376 342.542C222.312 341.726 220.432 340.694 218.768 338.891C217.166 337.135 215.672 335.194 213.931 333.577C211.605 331.404 209.078 329.694 205.997 331.158C205.535 331.374 205.566 332.036 205.859 332.39C207.214 334.07 208.801 335.672 210.465 337.212C208.801 336.827 207.122 336.627 205.397 336.765C202.316 337.027 198.68 339.076 198.757 342.743C198.772 343.205 199.096 343.482 199.496 343.528C202.331 343.821 205.181 343.775 208 344.067C203.61 345.362 198.218 346.84 198.264 352.109Z" fill="#C4C4C4"/>
<path fill-rule="evenodd" clip-rule="evenodd" d="M210.471 330.431C211.891 330.991 213.173 332.029 214.348 333.126C215.526 334.22 216.613 335.482 217.668 336.706C218.19 337.313 218.705 337.911 219.219 338.475C220.75 340.132 222.476 341.111 224.414 341.895C224.554 341.872 224.705 341.872 224.873 341.909C227.891 342.55 229.698 344.446 230.379 346.844C231.049 349.205 230.613 351.994 229.31 354.488C227.78 357.463 225.174 358.848 222.171 359.221C221.118 359.357 220.021 359.223 218.986 359.02C218.466 358.918 217.95 358.797 217.456 358.679C217.404 358.666 217.352 358.654 217.3 358.641C216.86 358.535 216.44 358.435 216.036 358.351L216.035 358.35C212.036 357.508 208.548 359.759 205.331 362.499L205.327 362.502L205.323 362.506C204.904 362.851 204.362 362.951 203.884 362.747C203.406 362.542 203.103 362.08 203.055 361.532C202.553 356.349 205.504 352.63 209.227 350.23C207.988 350.399 206.781 350.846 205.518 351.381C205.237 351.499 204.953 351.623 204.665 351.748C202.955 352.491 201.11 353.292 199.068 353.507C198.607 353.559 198.238 353.323 198.017 353.069C197.796 352.817 197.646 352.47 197.645 352.112C197.62 349.21 199.118 347.347 201.137 346.076C202.202 345.406 203.429 344.89 204.673 344.456C204.358 344.441 204.042 344.427 203.724 344.414L203.711 344.413C202.299 344.352 200.864 344.289 199.43 344.141L199.426 344.141L199.423 344.14C198.764 344.064 198.165 343.574 198.138 342.763L198.138 342.759L198.138 342.756C198.095 340.689 199.107 339.088 200.51 337.992C201.902 336.905 203.699 336.291 205.341 336.151L205.343 336.151L205.344 336.151C206.433 336.064 207.499 336.106 208.549 336.239C207.418 335.125 206.342 333.974 205.378 332.78C205.13 332.478 205.005 332.071 205.027 331.687C205.049 331.289 205.244 330.829 205.732 330.601C207.44 329.79 209.02 329.858 210.471 330.431ZM206.265 331.712C206.262 331.72 206.259 331.734 206.257 331.757C206.255 331.795 206.261 331.843 206.276 331.891C206.292 331.94 206.313 331.976 206.331 331.998L206.333 332.001L206.335 332.003C207.665 333.65 209.228 335.23 210.881 336.76L212.582 338.335L210.323 337.812C208.702 337.437 207.089 337.248 205.444 337.38C204.006 337.502 202.446 338.043 201.269 338.963C200.105 339.872 199.338 341.128 199.37 342.725C199.373 342.806 199.399 342.839 199.415 342.856C199.437 342.877 199.482 342.906 199.561 342.916C200.956 343.06 202.357 343.121 203.778 343.182L203.783 343.182C205.197 343.244 206.631 343.306 208.061 343.455L211.163 343.777L208.171 344.659C208.095 344.681 208.018 344.704 207.941 344.726C205.787 345.36 203.535 346.024 201.794 347.119C200.031 348.229 198.856 349.739 198.877 352.104L198.877 352.106V352.109C198.877 352.117 198.88 352.14 198.893 352.172C198.905 352.205 198.924 352.235 198.944 352.258C198.953 352.267 198.96 352.274 198.965 352.279C200.793 352.081 202.436 351.37 204.145 350.629C204.44 350.501 204.737 350.373 205.038 350.246C207.047 349.396 209.181 348.636 211.61 349.036L213.494 349.347L211.784 350.196C207.382 352.382 203.763 356.076 204.282 361.416L204.282 361.419L204.282 361.422C204.289 361.505 204.312 361.553 204.328 361.577C204.345 361.6 204.36 361.61 204.369 361.614C204.379 361.618 204.394 361.622 204.418 361.618C204.442 361.614 204.483 361.6 204.537 361.557C207.758 358.814 211.663 356.17 216.288 357.144C216.711 357.232 217.15 357.338 217.587 357.443C217.639 357.455 217.691 357.468 217.743 357.48C218.237 357.598 218.73 357.714 219.223 357.811C220.213 358.005 221.157 358.11 222.014 357.999L222.016 357.999L222.017 357.999C224.712 357.663 226.911 356.46 228.215 353.922L228.216 353.921L228.217 353.919C229.41 351.637 229.759 349.174 229.193 347.18C228.638 345.223 227.188 343.66 224.615 343.114L224.612 343.114L224.609 343.113C224.609 343.113 224.608 343.113 224.608 343.113C224.604 343.114 224.598 343.116 224.589 343.119L224.367 343.203L224.146 343.115C222.032 342.279 220.061 341.203 218.313 339.309L218.311 339.308L218.31 339.307C217.744 338.686 217.204 338.058 216.669 337.437C215.644 336.246 214.639 335.078 213.509 334.028L213.508 334.027C212.356 332.952 211.213 332.049 210.018 331.577C208.856 331.118 207.635 331.063 206.265 331.712Z" fill="#2C2C2C"/>
<path d="M113.708 307.226H246.967C248.561 307.226 250.09 307.859 251.217 308.986C252.345 310.114 252.978 311.643 252.978 313.237V388.102H107.696V313.237C107.696 311.643 108.33 310.114 109.457 308.986C110.584 307.859 112.113 307.226 113.708 307.226Z" fill="white"/>
<path fill-rule="evenodd" clip-rule="evenodd" d="M113.708 307.991C112.317 307.991 110.983 308.544 109.999 309.528C109.016 310.511 108.463 311.845 108.463 313.237V387.335H252.212V313.237C252.212 311.845 251.66 310.511 250.676 309.528C249.692 308.544 248.358 307.991 246.967 307.991H113.708ZM108.916 308.444C110.187 307.173 111.911 306.459 113.708 306.459H246.967C248.765 306.459 250.489 307.173 251.76 308.444C253.031 309.715 253.745 311.439 253.745 313.237V388.102C253.745 388.525 253.402 388.868 252.979 388.868H107.697C107.274 388.868 106.931 388.525 106.931 388.102V313.237C106.931 311.439 107.645 309.715 108.916 308.444Z" fill="#2C2C2C"/>
<path d="M252.978 334.13C234.728 338.759 215.996 350.541 181.095 367.133C147.431 383.147 119.875 382.87 107.696 381.632V388.1H252.978V334.13Z" fill="#2C2C2C"/>
<path fill-rule="evenodd" clip-rule="evenodd" d="M253.449 333.526C253.636 333.671 253.745 333.894 253.745 334.13V388.1C253.745 388.523 253.402 388.866 252.979 388.866H107.697C107.274 388.866 106.931 388.523 106.931 388.1V381.632C106.931 381.415 107.022 381.209 107.183 381.063C107.344 380.918 107.559 380.848 107.774 380.87C119.849 382.097 147.258 382.381 180.766 366.441L180.766 366.441C192.261 360.976 201.988 356.041 210.533 351.704C214.959 349.458 219.068 347.373 222.942 345.459C234.275 339.858 243.581 335.723 252.79 333.388C253.019 333.33 253.262 333.381 253.449 333.526ZM181.424 367.825C148.359 383.554 121.14 383.647 108.463 382.476V387.334H252.212V335.122C243.477 337.455 234.543 341.434 223.621 346.832C219.773 348.734 215.676 350.813 211.257 353.055C202.7 357.398 192.934 362.353 181.424 367.825Z" fill="#2C2C2C"/>
<path d="M182.72 225.844C182.72 228.268 180.204 230.232 177.099 230.232C173.994 230.232 171.478 228.268 171.478 225.844C171.478 223.421 173.994 221.457 177.099 221.457C180.204 221.457 182.72 223.421 182.72 225.844Z" fill="white"/>
<path fill-rule="evenodd" clip-rule="evenodd" d="M177.127 229.69C180.499 229.69 182.64 227.606 182.64 225.681C182.64 223.756 180.499 221.671 177.127 221.671C173.755 221.671 171.614 223.756 171.614 225.681C171.614 227.606 173.755 229.69 177.127 229.69ZM177.127 231.027C180.91 231.027 183.976 228.633 183.976 225.681C183.976 222.728 180.91 220.335 177.127 220.335C173.344 220.335 170.277 222.728 170.277 225.681C170.277 228.633 173.344 231.027 177.127 231.027Z" fill="#454545"/>
<path d="M251.75 382.739H108.375V387.133H251.75V382.739Z" fill="white"/>
</svg>
