<svg width="398" height="342" viewBox="0 0 398 342" fill="none" xmlns="http://www.w3.org/2000/svg">
<path d="M318.876 121.896C318.876 121.896 306.92 75.5908 234.538 46.3885C162.157 17.1862 97.4011 44.2327 82.6384 78.4515C67.8758 112.67 83.3472 131.148 73.4959 160.371C63.6447 189.594 13.035 226.605 33.4604 271.487C53.8857 316.368 149.464 329.186 226.806 319.927C304.149 310.667 364.574 208.086 318.876 121.896Z" fill="#50BFD7"/>
<path opacity="0.7" d="M318.876 121.896C318.876 121.896 306.92 75.5908 234.538 46.3885C162.157 17.1862 97.4011 44.2327 82.6384 78.4515C67.8758 112.67 83.3472 131.148 73.4959 160.371C63.6447 189.594 13.035 226.605 33.4604 271.487C53.8857 316.368 149.464 329.186 226.806 319.927C304.149 310.667 364.574 208.086 318.876 121.896Z" fill="white"/>
<path fill-rule="evenodd" clip-rule="evenodd" d="M329.022 259.544C329.284 259.516 329.519 259.706 329.547 259.968L333.295 295.147C333.323 295.409 333.133 295.644 332.871 295.672C332.609 295.7 332.374 295.51 332.346 295.248L328.598 260.069C328.571 259.807 328.76 259.572 329.022 259.544Z" fill="#263238"/>
<path d="M329.052 261.007C329.052 261.007 322.322 255.768 322.322 243.79C322.322 231.811 331.299 222.089 331.299 222.089C331.299 222.089 341.031 234.068 338.784 246.036C336.537 258.005 329.052 261.007 329.052 261.007Z" fill="#50BFD7"/>
<path fill-rule="evenodd" clip-rule="evenodd" d="M331.67 221.789L331.299 222.089L330.949 221.766C331.043 221.664 331.176 221.608 331.314 221.613C331.453 221.617 331.582 221.681 331.67 221.789ZM329.053 261.007C328.76 261.383 328.759 261.383 328.759 261.383L328.759 261.382L328.757 261.381L328.751 261.377L328.734 261.363C328.719 261.351 328.698 261.333 328.671 261.311C328.617 261.266 328.54 261.2 328.443 261.112C328.25 260.937 327.977 260.676 327.652 260.326C327.001 259.627 326.139 258.571 325.279 257.135C323.556 254.261 321.846 249.873 321.846 243.79C321.846 237.686 324.131 232.177 326.397 228.211C327.531 226.225 328.666 224.618 329.518 223.506C329.944 222.949 330.3 222.517 330.55 222.222C330.675 222.074 330.774 221.962 330.842 221.885C330.875 221.847 330.902 221.817 330.92 221.797L330.941 221.775L330.946 221.768L330.948 221.767L330.948 221.766C330.949 221.766 330.949 221.766 331.299 222.089C331.67 221.789 331.67 221.789 331.67 221.789L331.67 221.79L331.672 221.792L331.678 221.799L331.7 221.827C331.72 221.851 331.748 221.887 331.784 221.933C331.857 222.027 331.962 222.164 332.095 222.342C332.361 222.699 332.738 223.22 333.181 223.883C334.068 225.207 335.226 227.098 336.315 229.368C338.485 233.897 340.404 239.995 339.253 246.124C338.113 252.202 335.635 256.028 333.421 258.34C332.315 259.494 331.279 260.267 330.513 260.753C330.131 260.997 329.816 261.168 329.594 261.28C329.482 261.336 329.395 261.378 329.333 261.405C329.302 261.419 329.278 261.43 329.261 261.437L329.24 261.446L329.234 261.448L329.232 261.449L329.231 261.449C329.231 261.449 329.23 261.45 329.053 261.007ZM329.053 261.007L328.76 261.383C328.894 261.488 329.073 261.513 329.23 261.45L329.053 261.007ZM329.129 260.446C329.141 260.44 329.152 260.434 329.164 260.429C329.36 260.33 329.647 260.173 330.001 259.948C330.71 259.498 331.685 258.772 332.732 257.68C334.821 255.499 337.21 251.84 338.316 245.948C339.412 240.109 337.588 234.233 335.454 229.781C334.39 227.561 333.256 225.709 332.388 224.413C331.955 223.766 331.588 223.258 331.331 222.913C331.312 222.888 331.294 222.864 331.276 222.84C331.036 223.124 330.69 223.544 330.275 224.086C329.444 225.171 328.335 226.743 327.225 228.684C325.003 232.574 322.8 237.916 322.8 243.79C322.8 249.685 324.455 253.905 326.097 256.645C326.919 258.016 327.739 259.019 328.35 259.676C328.656 260.005 328.909 260.247 329.084 260.405C329.1 260.419 329.115 260.433 329.129 260.446Z" fill="#263238"/>
<path fill-rule="evenodd" clip-rule="evenodd" d="M330.818 233.106C331.081 233.123 331.28 233.35 331.263 233.612L329.549 260.048C329.532 260.311 329.305 260.51 329.042 260.493C328.779 260.476 328.58 260.249 328.597 259.986L330.311 233.551C330.328 233.288 330.555 233.088 330.818 233.106Z" fill="#263238"/>
<path fill-rule="evenodd" clip-rule="evenodd" d="M348.444 267.917C348.669 268.053 348.742 268.346 348.606 268.572C343.955 276.282 339.979 284.379 336.722 292.774C336.626 293.02 336.35 293.142 336.104 293.046C335.859 292.951 335.737 292.675 335.832 292.429C339.109 283.983 343.109 275.836 347.789 268.079C347.925 267.853 348.218 267.781 348.444 267.917Z" fill="#263238"/>
<path d="M344.674 274.688C344.674 274.688 340.936 267.009 346.223 256.289C351.51 245.57 363.866 240.796 363.866 240.796C363.866 240.796 367.304 255.834 359.993 265.585C352.682 275.336 344.674 274.688 344.674 274.688Z" fill="#50BFD7"/>
<path fill-rule="evenodd" clip-rule="evenodd" d="M364.33 240.692L363.865 240.798L363.693 240.353C363.822 240.303 363.967 240.312 364.089 240.377C364.211 240.442 364.299 240.557 364.33 240.692ZM344.673 274.69C344.244 274.898 344.243 274.898 344.243 274.898L344.242 274.895L344.239 274.889L344.229 274.869C344.221 274.851 344.21 274.826 344.196 274.794C344.167 274.73 344.127 274.636 344.079 274.515C343.982 274.272 343.852 273.918 343.714 273.46C343.438 272.545 343.129 271.217 342.989 269.55C342.709 266.213 343.109 261.525 345.794 256.08C348.488 250.617 352.973 246.687 356.759 244.129C358.655 242.849 360.384 241.906 361.64 241.284C362.268 240.972 362.779 240.741 363.133 240.586C363.311 240.509 363.449 240.451 363.544 240.413C363.592 240.393 363.628 240.379 363.653 240.369L363.682 240.357L363.69 240.354L363.692 240.353L363.693 240.353C363.693 240.353 363.693 240.353 363.865 240.798C364.33 240.692 364.33 240.691 364.33 240.692L364.331 240.695L364.333 240.705L364.341 240.739C364.347 240.77 364.357 240.814 364.369 240.872C364.393 240.988 364.427 241.157 364.467 241.376C364.549 241.814 364.656 242.447 364.761 243.237C364.971 244.816 365.174 247.024 365.147 249.541C365.092 254.562 364.117 260.88 360.373 265.873C356.661 270.825 352.755 273.156 349.753 274.244C348.255 274.787 346.987 275.018 346.088 275.113C345.639 275.161 345.282 275.174 345.034 275.176C344.91 275.176 344.813 275.174 344.746 275.171C344.712 275.17 344.686 275.169 344.667 275.167L344.645 275.166L344.638 275.165L344.636 275.165C344.635 275.165 344.634 275.165 344.673 274.69ZM344.673 274.69L344.243 274.898C344.317 275.05 344.466 275.152 344.634 275.165L344.673 274.69ZM344.989 274.222C345.002 274.222 345.015 274.221 345.028 274.221C345.247 274.22 345.572 274.208 345.988 274.164C346.819 274.076 348.01 273.86 349.428 273.347C352.258 272.321 356.011 270.101 359.61 265.301C363.177 260.544 364.139 254.467 364.193 249.531C364.22 247.069 364.021 244.908 363.815 243.363C363.712 242.591 363.608 241.973 363.529 241.55C363.524 241.52 363.518 241.49 363.513 241.462C363.171 241.611 362.676 241.835 362.064 242.139C360.838 242.746 359.147 243.668 357.293 244.92C353.579 247.429 349.242 251.246 346.65 256.502C344.048 261.777 343.673 266.289 343.94 269.47C344.074 271.063 344.368 272.325 344.628 273.184C344.758 273.614 344.878 273.943 344.966 274.162C344.974 274.183 344.982 274.203 344.989 274.222Z" fill="#263238"/>
<path fill-rule="evenodd" clip-rule="evenodd" d="M358.544 251.884C358.769 252.021 358.84 252.314 358.704 252.54L345.079 274.937C344.942 275.162 344.649 275.234 344.424 275.097C344.198 274.96 344.127 274.666 344.264 274.441L357.888 252.044C358.025 251.819 358.319 251.747 358.544 251.884Z" fill="#263238"/>
<path fill-rule="evenodd" clip-rule="evenodd" d="M313.038 266.851C313.266 266.719 313.558 266.796 313.691 267.024L318.933 276.056C322.391 282.253 325.164 288.808 327.204 295.605C327.28 295.858 327.137 296.124 326.885 296.199C326.632 296.275 326.366 296.132 326.291 295.88C324.271 289.15 321.525 282.66 318.102 276.525L312.865 267.503C312.733 267.275 312.811 266.983 313.038 266.851Z" fill="#263238"/>
<path d="M317.49 274.241C313.356 275.511 308.968 275.713 304.735 274.829C300.502 273.945 296.562 272.004 293.281 269.186C281.661 259.425 282.31 239.507 282.31 239.507C282.31 239.507 304.834 236.292 313.926 249.055C316.562 252.628 318.268 256.801 318.89 261.198C319.512 265.594 319.031 270.077 317.49 274.241Z" fill="#50BFD7"/>
<path fill-rule="evenodd" clip-rule="evenodd" d="M282.312 239.509C281.835 239.494 281.835 239.494 281.835 239.494L281.835 239.498L281.834 239.51L281.833 239.556C281.832 239.595 281.831 239.653 281.83 239.729C281.828 239.881 281.827 240.103 281.83 240.388C281.835 240.959 281.855 241.784 281.916 242.803C282.037 244.84 282.322 247.658 282.973 250.786C284.271 257.026 287.045 264.57 292.974 269.552C296.315 272.422 300.328 274.398 304.639 275.299C308.951 276.199 313.421 275.993 317.631 274.7L317.491 274.243L317.939 274.409C319.507 270.17 319.997 265.608 319.364 261.133C318.731 256.66 316.996 252.413 314.314 248.777C309.648 242.23 301.572 239.82 294.766 239.023C291.35 238.624 288.223 238.627 285.952 238.73C284.815 238.781 283.891 238.858 283.25 238.921C282.93 238.953 282.68 238.982 282.509 239.003C282.424 239.013 282.358 239.022 282.314 239.028L282.263 239.034L282.25 239.036L282.245 239.037C282.245 239.037 282.244 239.037 282.312 239.509ZM282.783 239.931C282.782 240.055 282.782 240.205 282.784 240.38C282.788 240.937 282.808 241.745 282.868 242.746C282.988 244.748 283.268 247.519 283.907 250.592C285.189 256.751 287.901 264.045 293.59 268.823L293.594 268.827C296.813 271.592 300.68 273.497 304.834 274.365C308.911 275.216 313.135 275.04 317.125 273.856C318.574 269.829 319.019 265.507 318.419 261.267C317.808 256.949 316.133 252.85 313.544 249.34L313.539 249.334C309.113 243.121 301.381 240.758 294.655 239.971C291.303 239.579 288.23 239.582 285.995 239.683C284.877 239.734 283.971 239.809 283.344 239.871C283.12 239.893 282.932 239.914 282.783 239.931ZM282.312 239.509L282.245 239.037C282.016 239.07 281.842 239.263 281.835 239.494L282.312 239.509Z" fill="#263238"/>
<path fill-rule="evenodd" clip-rule="evenodd" d="M290.463 246.08C290.653 245.898 290.955 245.904 291.138 246.094L317.835 273.914C318.017 274.104 318.011 274.406 317.821 274.589C317.631 274.771 317.329 274.765 317.146 274.575L290.449 246.755C290.267 246.565 290.273 246.263 290.463 246.08Z" fill="#263238"/>
<path d="M345.136 287.667H316.638V315.613H345.136V287.667Z" fill="#263238"/>
<path fill-rule="evenodd" clip-rule="evenodd" d="M316.162 287.663C316.162 287.399 316.376 287.186 316.639 287.186H345.137C345.401 287.186 345.614 287.399 345.614 287.663V315.609C345.614 315.872 345.401 316.086 345.137 316.086H316.639C316.376 316.086 316.162 315.872 316.162 315.609V287.663ZM317.116 288.14V315.132H344.66V288.14H317.116Z" fill="#263238"/>
<path opacity="0.3" d="M391.111 10.8462H189.243V188.964H391.111V10.8462Z" fill="black"/>
<path d="M396.178 1.74414H194.311V179.862H396.178V1.74414Z" fill="white"/>
<path fill-rule="evenodd" clip-rule="evenodd" d="M193.131 1.74444C193.131 1.09329 193.659 0.56543 194.31 0.56543H396.177C396.828 0.56543 397.356 1.09329 397.356 1.74444V179.863C397.356 180.514 396.828 181.042 396.177 181.042H194.31C193.659 181.042 193.131 180.514 193.131 179.863V1.74444ZM195.489 2.92345V178.684H394.998V2.92345H195.489Z" fill="#263238"/>
<path d="M396.178 1.74414H194.311V14.4737H396.178V1.74414Z" fill="#263238"/>
<path fill-rule="evenodd" clip-rule="evenodd" d="M193.131 1.74444C193.131 1.09329 193.659 0.56543 194.31 0.56543H396.177C396.828 0.56543 397.356 1.09329 397.356 1.74444V14.474C397.356 15.1251 396.828 15.653 396.177 15.653H194.31C193.659 15.653 193.131 15.1251 193.131 14.474V1.74444ZM195.489 2.92345V13.295H394.998V2.92345H195.489Z" fill="#263238"/>
<path d="M282.625 78.0275V59.2499C282.625 55.836 283.981 52.5619 286.395 50.148C288.809 47.734 292.083 46.3778 295.497 46.3778C298.911 46.3778 302.185 47.734 304.599 50.148C307.013 52.5619 308.369 55.836 308.369 59.2499V70.2219H313.499V59.2499C313.499 54.4755 311.602 49.8966 308.226 46.5206C304.85 43.1446 300.271 41.248 295.497 41.248C290.723 41.248 286.144 43.1446 282.768 46.5206C279.392 49.8966 277.495 54.4755 277.495 59.2499V78.0275H282.625Z" fill="white"/>
<path fill-rule="evenodd" clip-rule="evenodd" d="M281.933 45.6887C285.53 42.0916 290.409 40.0708 295.496 40.0708C300.583 40.0708 305.462 42.0916 309.059 45.6887C312.656 49.2858 314.677 54.1646 314.677 59.2516V70.2237C314.677 70.8749 314.149 71.4027 313.498 71.4027H308.368C307.717 71.4027 307.189 70.8749 307.189 70.2237V59.2516C307.189 56.1504 305.957 53.1763 303.764 50.9834C301.572 48.7906 298.597 47.5586 295.496 47.5586C292.395 47.5586 289.421 48.7906 287.228 50.9834C285.035 53.1763 283.803 56.1504 283.803 59.2516V78.0293C283.803 78.6804 283.275 79.2083 282.624 79.2083H277.494C276.843 79.2083 276.315 78.6804 276.315 78.0293V59.2516C276.315 54.1646 278.336 49.2858 281.933 45.6887ZM295.496 42.4288C291.035 42.4288 286.756 44.2012 283.601 47.3561C280.446 50.511 278.673 54.7899 278.673 59.2516V76.8502H281.445V59.2516C281.445 55.5251 282.926 51.9511 285.561 49.316C288.196 46.681 291.77 45.2006 295.496 45.2006C299.223 45.2006 302.797 46.681 305.432 49.316C308.067 51.9511 309.547 55.5251 309.547 59.2516V69.0447H312.319V59.2516C312.319 54.7899 310.547 50.511 307.392 47.3561C304.237 44.2012 299.958 42.4288 295.496 42.4288Z" fill="#263238"/>
<path d="M314.891 76.1899H275.578V108.71H314.891V76.1899Z" fill="#50BFD7"/>
<path fill-rule="evenodd" clip-rule="evenodd" d="M274.4 76.1902C274.4 75.5391 274.928 75.0112 275.579 75.0112H314.892C315.543 75.0112 316.071 75.5391 316.071 76.1902V108.711C316.071 109.362 315.543 109.89 314.892 109.89H275.579C274.928 109.89 274.4 109.362 274.4 108.711V76.1902ZM276.758 77.3693V107.532H313.713V77.3693H276.758Z" fill="#263238"/>
<path fill-rule="evenodd" clip-rule="evenodd" d="M323.518 57.3599C324.115 57.6209 324.387 58.3161 324.126 58.9126L321.577 64.7391C321.316 65.3356 320.621 65.6076 320.024 65.3466C319.428 65.0857 319.156 64.3905 319.417 63.7939L321.966 57.9675C322.227 57.3709 322.922 57.0989 323.518 57.3599Z" fill="#263238"/>
<path fill-rule="evenodd" clip-rule="evenodd" d="M319.681 71.1697C319.681 70.5186 320.209 69.9907 320.86 69.9907H330.328C330.979 69.9907 331.507 70.5186 331.507 71.1697C331.507 71.8209 330.979 72.3487 330.328 72.3487H320.86C320.209 72.3487 319.681 71.8209 319.681 71.1697Z" fill="#263238"/>
<path fill-rule="evenodd" clip-rule="evenodd" d="M318.963 76.8635C319.439 76.4192 320.186 76.4449 320.63 76.9209L325.728 82.3832C326.172 82.8593 326.147 83.6053 325.67 84.0496C325.194 84.4939 324.448 84.4682 324.004 83.9922L318.906 78.5299C318.462 78.0538 318.487 77.3078 318.963 76.8635Z" fill="#263238"/>
<path d="M299.327 89.6954C299.342 88.9338 299.153 88.1821 298.782 87.5173C298.41 86.8525 297.868 86.2986 297.211 85.9126C296.555 85.5266 295.807 85.3223 295.045 85.3208C294.284 85.3193 293.535 85.5205 292.877 85.9039C292.219 86.2873 291.675 86.839 291.3 87.5023C290.926 88.1656 290.735 88.9166 290.747 89.6782C290.758 90.4398 290.973 91.1845 291.368 91.8359C291.763 92.4872 292.324 93.0217 292.994 93.3844L292.281 100.778H297.775L297.063 93.3844C297.742 93.0361 298.312 92.5078 298.712 91.8572C299.111 91.2066 299.324 90.4587 299.327 89.6954Z" fill="#263238"/>
<path fill-rule="evenodd" clip-rule="evenodd" d="M292.285 84.884C293.124 84.3953 294.078 84.1387 295.049 84.1406C296.02 84.1426 296.973 84.403 297.81 84.895C298.647 85.3871 299.338 86.0931 299.812 86.9406C300.284 87.7854 300.524 88.7404 300.507 89.708C300.507 89.7111 300.507 89.7142 300.507 89.7173L299.328 89.6942L300.507 89.6988C300.507 89.7019 300.507 89.7049 300.507 89.708C300.501 90.6843 300.228 91.6405 299.718 92.4727C299.351 93.0709 298.871 93.5885 298.308 93.9983L298.237 93.2701L297.064 93.3832L297.602 94.4324C297.849 94.3057 298.085 94.1604 298.308 93.9983L298.95 100.664C298.982 100.995 298.872 101.324 298.649 101.57C298.426 101.816 298.109 101.956 297.776 101.956H292.282C291.95 101.956 291.633 101.816 291.41 101.57C291.186 101.324 291.077 100.995 291.109 100.664L291.753 93.9833C291.968 94.1449 292.195 94.2909 292.433 94.42L292.995 93.3832L291.821 93.2701L291.753 93.9833C291.197 93.5657 290.724 93.0446 290.361 92.4459C289.857 91.6156 289.584 90.6662 289.569 89.6954C289.554 88.7245 289.798 87.7671 290.275 86.9216C290.752 86.076 291.446 85.3727 292.285 84.884ZM293.58 99.5981H292.282V100.777L293.456 100.89L293.58 99.5981ZM296.478 99.5981H297.776V100.777L296.603 100.89L296.478 99.5981Z" fill="#263238"/>
<path d="M365.621 121.961H224.852C221.354 121.961 218.519 124.797 218.519 128.295V143.32C218.519 146.817 221.354 149.653 224.852 149.653H365.621C369.118 149.653 371.954 146.817 371.954 143.32V128.295C371.954 124.797 369.118 121.961 365.621 121.961Z" fill="white"/>
<path fill-rule="evenodd" clip-rule="evenodd" d="M224.851 123.142C222.004 123.142 219.697 125.449 219.697 128.296V143.321C219.697 146.168 222.004 148.475 224.851 148.475H365.62C368.466 148.475 370.774 146.168 370.774 143.321V128.296C370.774 125.449 368.466 123.142 365.62 123.142H224.851ZM217.339 128.296C217.339 124.147 220.702 120.784 224.851 120.784H365.62C369.769 120.784 373.132 124.147 373.132 128.296V143.321C373.132 147.47 369.769 150.833 365.62 150.833H224.851C220.702 150.833 217.339 147.47 217.339 143.321V128.296Z" fill="#263238"/>
<path d="M233.416 136.687C233.199 136.647 232.993 136.559 232.813 136.429C232.634 136.299 232.486 136.131 232.38 135.937C232.274 135.743 232.212 135.528 232.2 135.307C232.187 135.086 232.224 134.865 232.308 134.66L232.387 134.454C232.45 134.251 232.557 134.064 232.699 133.905C232.841 133.746 233.015 133.619 233.21 133.534C233.405 133.448 233.617 133.406 233.83 133.409C234.043 133.412 234.253 133.461 234.445 133.552C235.736 134.05 236.964 134.698 238.103 135.484C237.699 134.114 237.465 132.699 237.406 131.272C237.393 131.056 237.424 130.84 237.498 130.637C237.572 130.434 237.686 130.248 237.835 130.091C237.983 129.933 238.162 129.808 238.361 129.723C238.559 129.637 238.773 129.593 238.989 129.594H239.211C239.427 129.593 239.641 129.637 239.84 129.723C240.038 129.808 240.217 129.933 240.365 130.091C240.514 130.248 240.628 130.434 240.702 130.637C240.776 130.84 240.807 131.056 240.794 131.272C240.734 132.698 240.505 134.111 240.113 135.484C241.254 134.711 242.475 134.063 243.755 133.552C243.949 133.458 244.162 133.409 244.377 133.406C244.593 133.404 244.806 133.449 245.002 133.538C245.199 133.627 245.373 133.758 245.513 133.922C245.653 134.086 245.756 134.278 245.813 134.486V134.629C245.906 134.832 245.951 135.055 245.945 135.279C245.939 135.503 245.881 135.722 245.778 135.921C245.674 136.119 245.526 136.291 245.346 136.424C245.165 136.557 244.957 136.647 244.737 136.687C243.408 137.042 242.042 137.244 240.668 137.288C241.794 138.117 242.814 139.079 243.707 140.154C243.838 140.317 243.935 140.504 243.993 140.705C244.051 140.906 244.069 141.116 244.045 141.323C244.022 141.531 243.957 141.731 243.856 141.914C243.754 142.096 243.618 142.257 243.454 142.387L243.28 142.529C243.11 142.673 242.91 142.777 242.694 142.834C242.478 142.89 242.252 142.897 242.034 142.855C241.815 142.812 241.608 142.721 241.429 142.588C241.25 142.455 241.104 142.283 241 142.086C240.239 140.918 239.607 139.67 239.116 138.365C238.598 139.667 237.951 140.913 237.184 142.086C237.081 142.283 236.934 142.455 236.755 142.588C236.576 142.721 236.37 142.812 236.151 142.855C235.932 142.897 235.706 142.89 235.491 142.834C235.275 142.777 235.074 142.673 234.904 142.529L234.746 142.387C234.581 142.258 234.443 142.098 234.34 141.917C234.237 141.735 234.171 141.534 234.146 141.326C234.121 141.119 234.138 140.908 234.194 140.707C234.251 140.506 234.347 140.318 234.477 140.154C235.391 139.079 236.415 138.102 237.533 137.241C236.142 137.233 234.759 137.047 233.416 136.687Z" fill="#263238"/>
<path d="M249.47 136.687C249.252 136.647 249.046 136.559 248.867 136.429C248.688 136.299 248.54 136.131 248.433 135.937C248.327 135.743 248.266 135.528 248.253 135.307C248.241 135.086 248.278 134.865 248.362 134.66L248.441 134.454C248.504 134.251 248.61 134.064 248.752 133.905C248.894 133.746 249.069 133.619 249.264 133.534C249.459 133.448 249.67 133.406 249.883 133.409C250.097 133.412 250.306 133.461 250.499 133.552C251.79 134.05 253.017 134.698 254.156 135.484C253.752 134.114 253.518 132.699 253.46 131.272C253.447 131.056 253.478 130.84 253.552 130.637C253.626 130.434 253.74 130.248 253.888 130.091C254.037 129.933 254.216 129.808 254.414 129.723C254.613 129.637 254.827 129.593 255.043 129.594H255.17C255.386 129.593 255.6 129.637 255.798 129.723C255.997 129.808 256.176 129.933 256.324 130.091C256.472 130.248 256.587 130.434 256.661 130.637C256.735 130.84 256.766 131.056 256.753 131.272C256.693 132.698 256.464 134.111 256.072 135.484C257.213 134.711 258.434 134.063 259.714 133.552C259.911 133.474 260.122 133.436 260.334 133.44C260.546 133.445 260.755 133.493 260.949 133.58C261.142 133.667 261.316 133.792 261.46 133.948C261.604 134.103 261.716 134.286 261.788 134.486V134.629C261.88 134.832 261.925 135.055 261.919 135.279C261.913 135.503 261.856 135.722 261.752 135.921C261.648 136.119 261.501 136.291 261.32 136.424C261.14 136.557 260.931 136.647 260.711 136.687C259.382 137.042 258.017 137.244 256.642 137.288C257.768 138.117 258.789 139.079 259.682 140.154C259.813 140.317 259.91 140.504 259.968 140.705C260.026 140.906 260.043 141.116 260.02 141.323C259.996 141.531 259.932 141.731 259.83 141.914C259.729 142.096 259.592 142.257 259.429 142.387L259.254 142.529C259.086 142.673 258.887 142.777 258.672 142.834C258.458 142.89 258.233 142.897 258.015 142.854C257.798 142.812 257.592 142.72 257.415 142.587C257.237 142.454 257.092 142.283 256.99 142.086C256.217 140.922 255.58 139.674 255.09 138.365C254.572 139.667 253.925 140.913 253.159 142.086C253.055 142.283 252.908 142.455 252.73 142.588C252.551 142.721 252.344 142.812 252.125 142.855C251.906 142.897 251.681 142.89 251.465 142.834C251.249 142.777 251.049 142.673 250.879 142.529L250.721 142.387C250.556 142.258 250.418 142.098 250.315 141.917C250.212 141.735 250.146 141.534 250.121 141.326C250.096 141.119 250.112 140.908 250.169 140.707C250.226 140.506 250.322 140.318 250.451 140.154C251.365 139.079 252.389 138.102 253.507 137.241C252.143 137.227 250.787 137.04 249.47 136.687Z" fill="#263238"/>
<path d="M265.526 136.687C265.316 136.633 265.12 136.536 264.949 136.403C264.779 136.27 264.637 136.103 264.533 135.914C264.429 135.724 264.365 135.514 264.346 135.299C264.326 135.083 264.35 134.866 264.418 134.66V134.454C264.481 134.251 264.587 134.064 264.729 133.905C264.872 133.746 265.046 133.619 265.241 133.534C265.436 133.448 265.647 133.406 265.861 133.409C266.074 133.412 266.284 133.461 266.476 133.552C267.767 134.05 268.995 134.698 270.133 135.484C269.735 134.113 269.506 132.698 269.453 131.272C269.44 131.056 269.471 130.84 269.545 130.637C269.618 130.434 269.733 130.248 269.881 130.091C270.03 129.933 270.209 129.808 270.407 129.723C270.606 129.637 270.82 129.593 271.036 129.594H271.258C271.474 129.593 271.688 129.637 271.886 129.723C272.085 129.808 272.264 129.933 272.412 130.091C272.56 130.248 272.675 130.434 272.749 130.637C272.822 130.84 272.854 131.056 272.841 131.272C272.78 132.698 272.552 134.111 272.16 135.484C273.301 134.711 274.522 134.063 275.802 133.552C275.999 133.474 276.21 133.436 276.422 133.44C276.634 133.445 276.843 133.493 277.036 133.58C277.23 133.667 277.404 133.792 277.548 133.948C277.692 134.103 277.804 134.286 277.876 134.486V134.629C277.968 134.831 278.014 135.053 278.009 135.276C278.003 135.498 277.948 135.717 277.845 135.915C277.743 136.114 277.597 136.286 277.419 136.42C277.24 136.553 277.034 136.645 276.815 136.687C275.48 137.041 274.11 137.243 272.73 137.288C273.856 138.117 274.877 139.079 275.77 140.154C275.901 140.317 275.998 140.504 276.056 140.705C276.114 140.906 276.131 141.116 276.108 141.323C276.084 141.531 276.02 141.731 275.918 141.914C275.817 142.096 275.68 142.257 275.517 142.387L275.342 142.529C275.174 142.673 274.975 142.777 274.76 142.834C274.545 142.89 274.321 142.897 274.103 142.854C273.886 142.812 273.68 142.72 273.503 142.587C273.325 142.454 273.18 142.283 273.078 142.086C272.311 140.919 271.674 139.671 271.178 138.365C270.66 139.667 270.013 140.913 269.247 142.086C269.145 142.283 269 142.454 268.822 142.587C268.645 142.72 268.44 142.812 268.222 142.854C268.004 142.897 267.78 142.89 267.565 142.834C267.35 142.777 267.151 142.673 266.983 142.529L266.809 142.387C266.644 142.258 266.506 142.098 266.403 141.917C266.3 141.735 266.234 141.534 266.209 141.326C266.184 141.119 266.2 140.908 266.257 140.707C266.314 140.506 266.41 140.318 266.539 140.154C267.453 139.079 268.477 138.102 269.595 137.241C268.221 137.229 266.853 137.043 265.526 136.687Z" fill="#263238"/>
<path d="M281.58 136.687C281.37 136.633 281.174 136.536 281.003 136.403C280.832 136.27 280.691 136.103 280.587 135.914C280.483 135.724 280.419 135.514 280.399 135.299C280.379 135.083 280.404 134.866 280.472 134.66V134.454C280.535 134.251 280.641 134.064 280.783 133.905C280.925 133.746 281.1 133.619 281.295 133.534C281.49 133.448 281.701 133.406 281.914 133.409C282.127 133.412 282.337 133.461 282.53 133.552C283.821 134.05 285.048 134.698 286.187 135.484C285.795 134.111 285.567 132.698 285.506 131.272C285.493 131.056 285.525 130.84 285.598 130.637C285.672 130.434 285.787 130.248 285.935 130.091C286.083 129.933 286.262 129.808 286.461 129.723C286.659 129.637 286.873 129.593 287.09 129.594H287.311C287.527 129.593 287.741 129.637 287.94 129.723C288.138 129.808 288.317 129.933 288.466 130.091C288.614 130.248 288.729 130.434 288.802 130.637C288.876 130.84 288.907 131.056 288.894 131.272C288.834 132.698 288.606 134.111 288.214 135.484C289.355 134.711 290.576 134.063 291.855 133.552C292.052 133.474 292.263 133.436 292.476 133.44C292.688 133.445 292.897 133.493 293.09 133.58C293.284 133.667 293.458 133.792 293.602 133.948C293.746 134.103 293.857 134.286 293.929 134.486V134.629C294.022 134.831 294.067 135.053 294.062 135.276C294.057 135.498 294.001 135.717 293.899 135.915C293.797 136.114 293.651 136.286 293.473 136.42C293.294 136.553 293.087 136.645 292.869 136.687C291.534 137.041 290.164 137.243 288.784 137.288C289.91 138.117 290.931 139.079 291.824 140.154C291.954 140.317 292.051 140.504 292.109 140.705C292.167 140.906 292.185 141.116 292.161 141.323C292.138 141.531 292.074 141.731 291.972 141.914C291.871 142.096 291.734 142.257 291.57 142.387L291.396 142.529C291.227 142.673 291.028 142.777 290.814 142.834C290.599 142.89 290.375 142.897 290.157 142.854C289.939 142.812 289.734 142.72 289.556 142.587C289.379 142.454 289.234 142.283 289.132 142.086C288.365 140.919 287.728 139.671 287.232 138.365C286.699 139.669 286.036 140.915 285.253 142.086C285.151 142.283 285.006 142.454 284.828 142.587C284.651 142.72 284.446 142.812 284.228 142.854C284.01 142.897 283.786 142.89 283.571 142.834C283.357 142.777 283.158 142.673 282.989 142.529L282.815 142.387C282.65 142.258 282.512 142.098 282.409 141.917C282.306 141.735 282.24 141.534 282.215 141.326C282.19 141.119 282.206 140.908 282.263 140.707C282.32 140.506 282.416 140.318 282.546 140.154C283.459 139.079 284.483 138.102 285.601 137.241C284.243 137.225 282.892 137.039 281.58 136.687Z" fill="#263238"/>
<path d="M297.634 136.687C297.424 136.633 297.228 136.536 297.057 136.403C296.886 136.27 296.744 136.103 296.64 135.914C296.537 135.724 296.473 135.514 296.453 135.299C296.433 135.083 296.458 134.866 296.525 134.66L296.604 134.454C296.68 134.258 296.793 134.078 296.939 133.925C297.084 133.773 297.259 133.651 297.452 133.567C297.645 133.483 297.853 133.439 298.064 133.436C298.274 133.433 298.483 133.473 298.678 133.552C299.963 134.053 301.185 134.702 302.32 135.484C301.928 134.111 301.7 132.698 301.639 131.272C301.626 131.056 301.658 130.84 301.731 130.637C301.805 130.434 301.92 130.248 302.068 130.091C302.216 129.933 302.395 129.808 302.594 129.723C302.792 129.637 303.006 129.593 303.222 129.594H303.444C303.66 129.593 303.874 129.637 304.073 129.723C304.271 129.808 304.45 129.933 304.599 130.091C304.747 130.248 304.862 130.434 304.935 130.637C305.009 130.84 305.04 131.056 305.027 131.272C304.967 132.698 304.739 134.111 304.347 135.484C305.488 134.711 306.709 134.063 307.988 133.552C308.185 133.474 308.396 133.436 308.608 133.44C308.821 133.445 309.03 133.493 309.223 133.58C309.417 133.667 309.591 133.792 309.735 133.948C309.879 134.103 309.99 134.286 310.062 134.486V134.629C310.155 134.831 310.2 135.053 310.195 135.276C310.19 135.498 310.134 135.717 310.032 135.915C309.93 136.114 309.784 136.286 309.605 136.42C309.427 136.553 309.22 136.645 309.001 136.687C307.667 137.041 306.297 137.243 304.917 137.288C306.043 138.117 307.063 139.079 307.956 140.154C308.087 140.317 308.184 140.504 308.242 140.705C308.3 140.906 308.318 141.116 308.294 141.323C308.271 141.531 308.206 141.731 308.105 141.914C308.004 142.096 307.867 142.257 307.703 142.387L307.529 142.529C307.36 142.673 307.161 142.777 306.947 142.834C306.732 142.89 306.508 142.897 306.29 142.854C306.072 142.812 305.867 142.72 305.689 142.587C305.512 142.454 305.367 142.283 305.265 142.086C304.498 140.919 303.861 139.671 303.365 138.365C302.847 139.667 302.2 140.913 301.433 142.086C301.331 142.283 301.186 142.454 301.009 142.587C300.831 142.72 300.626 142.812 300.408 142.854C300.191 142.897 299.966 142.89 299.752 142.834C299.537 142.777 299.338 142.673 299.169 142.529L298.995 142.387C298.82 142.266 298.672 142.109 298.562 141.926C298.453 141.744 298.384 141.54 298.36 141.328C298.336 141.117 298.357 140.902 298.423 140.7C298.489 140.497 298.598 140.311 298.742 140.154C299.646 139.075 300.665 138.098 301.782 137.241C300.381 137.236 298.987 137.05 297.634 136.687Z" fill="#263238"/>
<path d="M313.751 136.687C313.541 136.633 313.345 136.536 313.174 136.403C313.003 136.27 312.861 136.103 312.758 135.914C312.654 135.724 312.59 135.514 312.57 135.299C312.55 135.083 312.575 134.866 312.642 134.66L312.722 134.454C312.797 134.258 312.91 134.078 313.056 133.925C313.201 133.773 313.376 133.651 313.569 133.567C313.762 133.483 313.97 133.439 314.181 133.436C314.391 133.433 314.6 133.473 314.796 133.552C316.08 134.053 317.302 134.702 318.437 135.484C318.045 134.111 317.817 132.698 317.756 131.272C317.743 131.056 317.775 130.84 317.848 130.637C317.922 130.434 318.037 130.248 318.185 130.091C318.333 129.933 318.512 129.808 318.711 129.723C318.91 129.637 319.123 129.593 319.34 129.594H319.561C319.777 129.593 319.991 129.637 320.19 129.723C320.389 129.808 320.567 129.933 320.716 130.091C320.864 130.248 320.979 130.434 321.052 130.637C321.126 130.84 321.158 131.056 321.145 131.272C321.084 132.698 320.856 134.111 320.464 135.484C321.608 134.707 322.835 134.06 324.121 133.552C324.316 133.461 324.528 133.414 324.742 133.413C324.957 133.411 325.17 133.457 325.365 133.546C325.561 133.634 325.735 133.764 325.875 133.927C326.016 134.089 326.12 134.28 326.179 134.486V134.629C326.272 134.831 326.318 135.053 326.312 135.276C326.307 135.498 326.251 135.717 326.149 135.915C326.047 136.114 325.901 136.286 325.723 136.42C325.544 136.553 325.338 136.645 325.119 136.687C323.784 137.042 322.414 137.244 321.034 137.288C322.161 138.121 323.187 139.083 324.089 140.154C324.219 140.318 324.315 140.506 324.372 140.707C324.429 140.908 324.445 141.119 324.42 141.326C324.395 141.534 324.329 141.735 324.226 141.917C324.123 142.098 323.985 142.258 323.82 142.387L323.646 142.529C323.477 142.673 323.278 142.777 323.064 142.834C322.849 142.89 322.625 142.897 322.407 142.854C322.189 142.812 321.984 142.72 321.807 142.587C321.629 142.454 321.484 142.283 321.382 142.086C320.615 140.919 319.978 139.671 319.482 138.365C318.964 139.667 318.317 140.913 317.551 142.086C317.449 142.283 317.304 142.454 317.126 142.587C316.949 142.72 316.743 142.812 316.526 142.854C316.308 142.897 316.083 142.89 315.869 142.834C315.654 142.777 315.455 142.673 315.286 142.529L315.112 142.387C314.937 142.266 314.789 142.109 314.68 141.926C314.57 141.744 314.501 141.54 314.477 141.328C314.453 141.117 314.475 140.902 314.54 140.7C314.606 140.497 314.715 140.311 314.859 140.154C315.763 139.075 316.782 138.098 317.899 137.241C316.498 137.236 315.104 137.05 313.751 136.687Z" fill="#263238"/>
<path d="M329.759 136.687C329.548 136.634 329.35 136.539 329.178 136.407C329.005 136.275 328.862 136.108 328.756 135.918C328.651 135.728 328.586 135.518 328.565 135.302C328.544 135.085 328.568 134.867 328.635 134.66L328.715 134.454C328.79 134.258 328.903 134.078 329.049 133.925C329.194 133.773 329.369 133.651 329.562 133.567C329.755 133.483 329.963 133.439 330.174 133.436C330.384 133.433 330.593 133.473 330.789 133.552C332.073 134.053 333.295 134.702 334.43 135.484C334.038 134.111 333.81 132.698 333.749 131.272C333.736 131.056 333.768 130.84 333.841 130.637C333.915 130.434 334.03 130.248 334.178 130.091C334.326 129.933 334.505 129.808 334.704 129.723C334.903 129.637 335.116 129.593 335.333 129.594H335.554C335.77 129.593 335.984 129.637 336.183 129.723C336.381 129.808 336.56 129.933 336.709 130.091C336.857 130.248 336.972 130.434 337.045 130.637C337.119 130.84 337.15 131.056 337.138 131.272C337.079 132.699 336.845 134.114 336.441 135.484C337.585 134.707 338.812 134.06 340.098 133.552C340.293 133.461 340.505 133.414 340.72 133.413C340.934 133.411 341.147 133.457 341.342 133.546C341.538 133.634 341.712 133.764 341.852 133.927C341.993 134.089 342.097 134.28 342.157 134.486V134.629C342.249 134.832 342.294 135.055 342.288 135.279C342.282 135.503 342.225 135.722 342.121 135.921C342.017 136.119 341.869 136.291 341.689 136.424C341.509 136.557 341.3 136.647 341.08 136.687C339.746 137.042 338.375 137.244 336.995 137.288C338.122 138.121 339.148 139.083 340.051 140.154C340.18 140.318 340.277 140.506 340.333 140.707C340.39 140.908 340.406 141.119 340.381 141.326C340.356 141.534 340.29 141.735 340.187 141.917C340.085 142.098 339.947 142.258 339.782 142.387L339.623 142.529C339.453 142.673 339.253 142.777 339.037 142.834C338.821 142.89 338.596 142.897 338.377 142.855C338.158 142.812 337.952 142.721 337.773 142.588C337.594 142.455 337.447 142.283 337.343 142.086C336.576 140.921 335.944 139.673 335.459 138.365C334.936 139.667 334.284 140.914 333.512 142.086C333.41 142.283 333.265 142.454 333.087 142.587C332.91 142.72 332.705 142.812 332.487 142.854C332.269 142.897 332.045 142.89 331.83 142.834C331.616 142.777 331.416 142.673 331.248 142.529L331.074 142.387C330.898 142.266 330.751 142.109 330.641 141.926C330.531 141.744 330.462 141.54 330.438 141.328C330.414 141.117 330.436 140.902 330.502 140.7C330.568 140.497 330.676 140.311 330.82 140.154C331.724 139.075 332.743 138.098 333.86 137.241C332.475 137.235 331.097 137.048 329.759 136.687Z" fill="#263238"/>
<path d="M345.813 136.687C345.602 136.634 345.404 136.539 345.232 136.407C345.059 136.275 344.916 136.108 344.81 135.918C344.705 135.728 344.639 135.518 344.619 135.302C344.598 135.085 344.622 134.867 344.689 134.66V134.454C344.764 134.258 344.878 134.078 345.023 133.925C345.169 133.773 345.343 133.651 345.536 133.567C345.73 133.483 345.938 133.439 346.148 133.436C346.359 133.433 346.568 133.473 346.763 133.552C348.047 134.053 349.269 134.702 350.405 135.484C350.013 134.111 349.784 132.698 349.724 131.272C349.711 131.056 349.742 130.84 349.816 130.637C349.89 130.434 350.004 130.248 350.153 130.091C350.301 129.933 350.48 129.808 350.678 129.723C350.877 129.637 351.091 129.593 351.307 129.594H351.529C351.745 129.593 351.959 129.637 352.157 129.723C352.356 129.808 352.535 129.933 352.683 130.091C352.832 130.248 352.946 130.434 353.02 130.637C353.094 130.84 353.125 131.056 353.112 131.272C353.053 132.699 352.819 134.114 352.415 135.484C353.56 134.707 354.786 134.06 356.073 133.552C356.267 133.461 356.479 133.414 356.694 133.413C356.909 133.411 357.121 133.457 357.317 133.546C357.512 133.634 357.686 133.764 357.827 133.927C357.967 134.089 358.071 134.28 358.131 134.486V134.629C358.224 134.832 358.269 135.055 358.263 135.279C358.256 135.503 358.199 135.722 358.095 135.921C357.992 136.119 357.844 136.291 357.664 136.424C357.483 136.557 357.275 136.647 357.054 136.687C355.72 137.042 354.35 137.244 352.97 137.288C354.097 138.121 355.122 139.083 356.025 140.154C356.155 140.318 356.251 140.506 356.308 140.707C356.365 140.908 356.381 141.119 356.356 141.326C356.331 141.534 356.265 141.735 356.162 141.917C356.059 142.098 355.921 142.258 355.756 142.387L355.582 142.529C355.413 142.673 355.214 142.777 355 142.834C354.785 142.89 354.561 142.897 354.343 142.854C354.125 142.812 353.92 142.72 353.742 142.587C353.565 142.454 353.42 142.283 353.318 142.086C352.55 140.921 351.918 139.673 351.434 138.365C350.911 139.667 350.259 140.914 349.486 142.086C349.384 142.283 349.239 142.454 349.062 142.587C348.884 142.72 348.679 142.812 348.461 142.854C348.244 142.897 348.019 142.89 347.805 142.834C347.59 142.777 347.391 142.673 347.222 142.529L347.048 142.387C346.873 142.266 346.725 142.109 346.615 141.926C346.506 141.744 346.437 141.54 346.413 141.328C346.389 141.117 346.41 140.902 346.476 140.7C346.542 140.497 346.651 140.311 346.795 140.154C347.699 139.075 348.718 138.098 349.835 137.241C348.476 137.228 347.125 137.042 345.813 136.687Z" fill="#263238"/>
<path fill-rule="evenodd" clip-rule="evenodd" d="M362.34 315.968C362.34 315.667 362.584 315.423 362.885 315.423H380.849C381.15 315.423 381.394 315.667 381.394 315.968C381.394 316.269 381.15 316.513 380.849 316.513H362.885C362.584 316.513 362.34 316.269 362.34 315.968Z" fill="#2C2C2C"/>
<path fill-rule="evenodd" clip-rule="evenodd" d="M23.5938 315.968C23.5938 315.667 23.8378 315.423 24.1389 315.423H356.898C357.199 315.423 357.443 315.667 357.443 315.968C357.443 316.269 357.199 316.513 356.898 316.513H24.1389C23.8378 316.513 23.5938 316.269 23.5938 315.968Z" fill="#2C2C2C"/>
<path fill-rule="evenodd" clip-rule="evenodd" d="M0.197266 315.968C0.197266 315.667 0.44134 315.423 0.742422 315.423H13.0177C13.3188 315.423 13.5629 315.667 13.5629 315.968C13.5629 316.269 13.3188 316.513 13.0177 316.513H0.742422C0.44134 316.513 0.197266 316.269 0.197266 315.968Z" fill="#2C2C2C"/>
<path d="M112.419 240.998L121.124 297.529L121.657 310.328L136.533 307.877L138.186 305.26L139.262 230.005L112.419 240.998Z" fill="#2C2C2C"/>
<path d="M225.082 246.981L233.165 303.603L233.549 316.413L248.444 314.127L250.131 311.548L252.057 236.299L225.082 246.981Z" fill="#2C2C2C"/>
<path d="M179.584 223.086C185.813 223.086 195.523 221.798 195.523 217.568L193.927 203.456L192.523 191.112C192.523 186.882 187.467 183.44 181.237 183.44C178.122 183.44 175.296 184.306 173.258 185.69C171.22 187.074 169.951 188.997 169.951 191.112L168.586 203.475L167.259 215.319C165.452 222.471 179.584 223.086 179.584 223.086Z" fill="#2C2C2C"/>
<path d="M255.856 241.467C255.856 253.734 247.819 261.328 235.553 261.328C223.286 261.328 213.346 251.388 213.346 239.121C213.346 226.855 222.613 213.319 234.303 216.991C247.185 221.01 255.856 229.2 255.856 241.467Z" fill="white"/>
<path d="M235.552 262.098C222.882 262.098 212.576 251.792 212.576 239.122C212.576 230.969 216.441 222.663 222.17 218.453C225.977 215.665 230.246 214.896 234.533 216.242C248.761 220.702 256.606 229.662 256.606 241.448C256.625 253.984 248.338 262.098 235.552 262.098ZM230.438 217.145C227.881 217.145 225.381 218.011 223.074 219.703C217.787 223.586 214.114 231.565 214.114 239.122C214.114 250.946 223.728 260.56 235.552 260.56C241.397 260.56 246.319 258.791 249.761 255.445C253.241 252.081 255.087 247.235 255.087 241.467C255.087 230.412 247.627 221.971 234.091 217.722C232.86 217.338 231.649 217.145 230.438 217.145Z" fill="#2C2C2C"/>
<path d="M245.858 237.891C245.858 246.966 239.917 252.58 230.842 252.58C221.767 252.58 214.422 245.236 214.422 236.161C214.422 227.086 221.267 217.068 229.919 219.779C239.436 222.779 245.858 228.835 245.858 237.891Z" fill="#2C2C2C"/>
<path d="M106.829 241.468C106.829 253.734 114.866 261.329 127.133 261.329C139.399 261.329 149.34 251.389 149.34 239.122C149.34 226.855 140.072 213.319 128.382 216.992C115.5 221.01 106.829 229.201 106.829 241.468Z" fill="white"/>
<path d="M127.132 262.098C114.327 262.098 106.06 254.003 106.06 241.467C106.06 229.681 113.904 220.721 128.132 216.261C132.42 214.915 136.707 215.684 140.495 218.472C146.244 222.682 150.089 230.988 150.089 239.141C150.108 251.792 139.803 262.098 127.132 262.098ZM132.247 217.145C131.035 217.145 129.824 217.337 128.613 217.722C115.077 221.971 107.617 230.412 107.617 241.467C107.617 247.235 109.463 252.08 112.943 255.445C116.404 258.791 121.306 260.559 127.151 260.559C138.976 260.559 148.589 250.946 148.589 239.121C148.589 231.565 144.898 223.567 139.63 219.702C137.284 217.991 134.804 217.145 132.247 217.145Z" fill="#2C2C2C"/>
<path d="M116.827 237.891C116.827 246.967 122.768 252.581 131.843 252.581C140.918 252.581 148.263 245.236 148.263 236.161C148.263 227.086 141.418 217.069 132.766 219.78C123.23 222.779 116.827 228.836 116.827 237.891Z" fill="#2C2C2C"/>
<path d="M195.926 207.936H166.682C153.915 209.089 141.706 211.723 130.305 215.626L152.185 327.796C153.761 335.91 160.875 341.774 169.143 341.774H193.869C202.155 341.774 209.289 335.89 210.846 327.738L232.322 215.626C220.921 211.723 208.712 209.089 195.926 207.936Z" fill="white"/>
<path d="M195.75 323.065L171.25 320.065C162.636 320.065 153.069 336.409 151.435 327.95L129.42 215.107L130.054 214.896C141.706 210.916 153.992 208.301 166.605 207.167H166.682H195.964H196.003C208.615 208.301 220.921 210.897 232.572 214.896L233.206 215.107L211.595 327.892C209.98 336.371 204.402 323.065 195.75 323.065ZM131.189 216.126L152.934 327.642C154.434 335.371 163.367 320.065 171.25 320.065H195.75C203.652 320.065 208.596 335.352 210.077 327.584L231.418 216.126C220.075 212.3 208.115 209.801 195.868 208.685H166.72C154.473 209.801 142.513 212.3 131.189 216.126Z" fill="#2C2C2C"/>
<path d="M145.378 211.319C148.127 228.701 150.877 246.082 153.626 263.443C156.087 276.518 168.489 285.228 181.428 285.304C194.368 285.228 206.769 276.537 209.23 263.443C211.98 246.082 214.729 228.72 217.479 211.377C210.519 209.762 203.308 208.589 195.925 207.936H166.681C159.375 208.589 152.261 209.743 145.378 211.319Z" fill="#50BFD7"/>
<path d="M181.447 286.074C174.853 286.035 168.354 283.843 163.144 279.863C157.722 275.749 154.088 269.961 152.876 263.578V263.559L144.513 210.723L145.205 210.57C152.184 208.955 159.394 207.82 166.604 207.167H166.681H195.964H196.002C203.308 207.82 210.595 208.993 217.671 210.627L218.363 210.781L209.999 263.578C208.807 269.961 205.154 275.729 199.732 279.863C194.522 283.843 188.023 286.035 181.447 286.074ZM154.395 263.328C155.53 269.327 158.952 274.768 164.066 278.652C169.027 282.42 175.199 284.516 181.447 284.535C187.696 284.497 193.868 282.401 198.809 278.652C203.924 274.768 207.346 269.327 208.48 263.328L216.613 211.973C209.846 210.435 202.885 209.339 195.887 208.705H166.72C159.817 209.32 152.934 210.397 146.243 211.916L154.395 263.328Z" fill="#2C2C2C"/>
<path d="M188.369 234.257H173.603C169.68 234.257 166.489 237.449 166.489 241.371V256.137C166.489 260.059 169.68 263.251 173.603 263.251H188.369C192.291 263.251 195.483 260.059 195.483 256.137V241.371C195.483 237.449 192.31 234.257 188.369 234.257ZM162.566 227.97C160.317 227.97 158.49 229.796 158.49 232.046C158.49 234.295 160.317 236.122 162.566 236.122C164.816 236.122 166.642 234.295 166.642 232.046C166.642 229.796 164.816 227.97 162.566 227.97Z" fill="white"/>
<path d="M187.33 243.063C186.388 240.544 183.984 238.871 181.293 238.871H177.293L185.196 258.906H193.675L187.33 243.063ZM171.179 253.157L168.872 258.906H177.293L181.216 248.965H177.217C174.525 248.965 172.121 250.638 171.179 253.157ZM172.487 243.851C173.871 243.851 175.005 242.717 175.005 241.332C175.005 239.948 173.871 238.813 172.487 238.813C171.102 238.813 169.968 239.948 169.968 241.332C169.968 242.717 171.102 243.851 172.487 243.851Z" fill="#50BFD7"/>
<path d="M195.618 200.36H167.028C162.913 200.36 159.529 196.996 159.529 192.862C159.529 188.747 162.894 185.363 167.028 185.363H195.618C199.733 185.363 203.117 188.728 203.117 192.862C203.097 196.996 199.733 200.36 195.618 200.36Z" fill="#50BFD7"/>
<path d="M195.619 201.129H167.028C162.472 201.129 158.761 197.419 158.761 192.862C158.761 188.305 162.472 184.594 167.028 184.594H195.619C200.175 184.594 203.886 188.305 203.886 192.862C203.886 197.419 200.156 201.129 195.619 201.129ZM167.028 186.152C163.318 186.152 160.299 189.17 160.299 192.881C160.299 196.592 163.318 199.61 167.028 199.61H195.619C199.329 199.61 202.348 196.592 202.348 192.881C202.348 189.17 199.329 186.152 195.619 186.152H167.028Z" fill="#2C2C2C"/>
<path d="M182.908 48.0454H179.717V68.9642H182.908V48.0454Z" fill="#2C2C2C"/>
<path d="M194.387 73.3666H168.238C167.758 73.3666 167.373 72.9821 167.373 72.5014V60.5039C167.373 60.0232 167.758 59.6387 168.238 59.6387H194.387C194.867 59.6387 195.252 60.0232 195.252 60.5039V72.5207C195.252 72.9821 194.867 73.3666 194.387 73.3666Z" fill="#50BFD7"/>
<path d="M194.387 74.1358H168.239C167.335 74.1358 166.604 73.4051 166.604 72.5015V60.5039C166.604 59.6002 167.335 58.8696 168.239 58.8696H194.387C195.291 58.8696 196.022 59.6002 196.022 60.5039V72.5207C196.022 73.4051 195.291 74.1358 194.387 74.1358ZM168.239 60.3885C168.181 60.3885 168.143 60.427 168.143 60.4847V72.5015C168.143 72.5591 168.181 72.5976 168.239 72.5976H194.387C194.445 72.5976 194.483 72.5591 194.483 72.5015V60.5039C194.483 60.4462 194.445 60.4078 194.387 60.4078H168.239V60.3885Z" fill="#2C2C2C"/>
<path d="M185.408 46.6415C185.408 48.8911 183.582 50.7176 181.332 50.7176C179.082 50.7176 177.256 48.8911 177.256 46.6415C177.256 44.392 179.082 42.5654 181.332 42.5654C183.562 42.5654 185.408 44.392 185.408 46.6415Z" fill="#2C2C2C"/>
<path d="M184.159 45.0652C184.159 45.7573 183.601 46.3149 182.909 46.3149C182.217 46.3149 181.659 45.7573 181.659 45.0652C181.659 44.373 182.217 43.8154 182.909 43.8154C183.601 43.8154 184.159 44.373 184.159 45.0652Z" fill="#2C2C2C"/>
<path d="M205.232 159.08C216.063 159.08 224.843 150.3 224.843 139.469C224.843 128.638 216.063 119.857 205.232 119.857C194.4 119.857 185.62 128.638 185.62 139.469C185.62 150.3 194.4 159.08 205.232 159.08Z" fill="#002731"/>
<path d="M181.313 175.442C228.969 175.442 267.603 158.097 267.603 136.7C267.603 115.303 228.969 97.958 181.313 97.958C133.656 97.958 95.0225 115.303 95.0225 136.7C95.0225 158.097 133.656 175.442 181.313 175.442Z" fill="#2C2C2C"/>
<path d="M105.098 154.889C106.636 156.177 108.309 157.427 110.155 158.619C105.694 145.756 103.752 131.49 104.214 119.281C102.81 120.531 101.541 121.838 100.445 123.165C100.484 133.239 102.003 144.353 105.098 154.889Z" fill="#50BFD7"/>
<path d="M262.162 123.146C261.046 121.819 259.777 120.511 258.374 119.262C259.104 131.586 256.624 146.102 251.702 159.138C253.606 157.927 255.374 156.677 256.97 155.37C260.412 144.603 262.219 133.317 262.162 123.146Z" fill="#50BFD7"/>
<path d="M198.924 192.997H163.72C135.245 192.997 112.173 169.924 112.173 141.449V133.624C112.173 97.0931 141.782 67.5029 178.294 67.5029H184.312C220.843 67.5029 250.433 97.1123 250.433 133.624V141.449C250.452 169.924 227.38 192.997 198.924 192.997Z" fill="white"/>
<path d="M198.924 193.766H163.72C149.742 193.766 136.61 188.325 126.727 178.442C116.845 168.559 111.403 155.427 111.403 141.449V133.624C111.403 115.762 118.363 98.9581 130.995 86.3261C143.628 73.694 160.432 66.7339 178.294 66.7339H184.312C202.173 66.7339 218.978 73.694 231.61 86.3261C244.242 98.9581 251.202 115.762 251.202 133.624V141.449C251.202 155.427 245.761 168.559 235.878 178.442C226.015 188.325 212.883 193.766 198.924 193.766ZM178.313 68.272C160.855 68.272 144.435 75.0783 132.091 87.422C119.748 99.7656 112.941 116.185 112.941 133.643V141.469C112.941 155.024 118.229 167.771 127.804 177.365C137.398 186.959 150.145 192.228 163.7 192.228H198.905C212.46 192.228 225.207 186.94 234.801 177.365C244.395 167.771 249.664 155.024 249.664 141.469V133.643C249.664 116.185 242.857 99.7656 230.514 87.422C218.17 75.0783 201.75 68.272 184.292 68.272H178.313Z" fill="#2C2C2C"/>
<path d="M181.313 108.783C202.482 108.783 221.67 102.399 235.744 92.0551C223.612 77.0774 205.096 67.5024 184.312 67.5024H178.294C157.529 67.5024 138.994 77.0774 126.862 92.0551C140.956 102.399 160.144 108.783 181.313 108.783Z" fill="#2C2C2C"/>
<path d="M181.313 77.3081C160.144 77.3081 140.956 83.6914 126.882 94.0355C139.014 109.013 157.529 118.588 178.314 118.588H184.332C205.097 118.588 223.631 109.013 235.764 94.0355C221.67 83.6914 202.482 77.3081 181.313 77.3081Z" fill="#50BFD7"/>
<path d="M184.332 119.376H178.314C158.03 119.376 139.072 110.321 126.286 94.5354L125.786 93.9009L126.44 93.4202C141.225 82.5378 160.721 76.5391 181.333 76.5391C201.924 76.5391 221.421 82.5378 236.225 93.4202L236.879 93.9009L236.379 94.5354C223.574 110.321 204.616 119.376 184.332 119.376ZM127.997 94.1893C140.475 109.225 158.76 117.838 178.314 117.838H184.332C203.886 117.838 222.17 109.225 234.649 94.1893C220.19 83.7876 201.29 78.0772 181.333 78.0772C161.337 78.0772 142.437 83.7876 127.997 94.1893Z" fill="#2C2C2C"/>
<path d="M229.4 150.871C227.573 151.967 225.516 152.543 223.42 152.543H139.226C137.13 152.543 135.073 151.967 133.246 150.871C128.747 148.179 126.19 142.719 126.824 137.124L126.863 136.72C129.016 117.781 143.186 103.227 160.548 102.131C167.893 101.669 175.603 101.419 183.64 101.477C189.946 101.515 196.022 101.746 201.886 102.111C219.325 103.207 233.591 117.704 235.745 136.72C235.764 136.854 235.783 136.989 235.783 137.124C236.456 142.719 233.899 148.179 229.4 150.871Z" fill="white"/>
<path d="M223.401 153.312H139.226C136.996 153.312 134.804 152.697 132.843 151.524C128.036 148.66 125.383 142.968 126.056 137.027L126.094 136.624C128.286 117.301 142.764 102.457 160.491 101.342C168.162 100.862 175.949 100.65 183.64 100.689C189.716 100.727 195.868 100.938 201.925 101.323C219.767 102.438 234.303 117.281 236.495 136.604L236.533 137.008C237.206 142.93 234.553 148.621 229.746 151.505C227.842 152.697 225.631 153.312 223.401 153.312ZM181.352 102.246C174.45 102.246 167.489 102.457 160.606 102.9C143.629 103.976 129.747 118.243 127.632 136.816L127.594 137.22C126.978 142.545 129.363 147.66 133.65 150.217C135.361 151.236 137.303 151.774 139.245 151.774H223.44C225.381 151.774 227.323 151.236 229.035 150.217C233.322 147.66 235.687 142.545 235.091 137.22L235.053 136.816C232.938 118.223 218.998 103.957 201.905 102.9C195.868 102.515 189.735 102.304 183.698 102.265C182.871 102.246 182.121 102.246 181.352 102.246Z" fill="#2C2C2C"/>
<path d="M167.759 128.163C167.759 135.431 161.433 141.353 153.666 141.353C145.879 141.353 139.572 135.45 139.572 128.163C139.572 120.876 145.879 114.974 153.666 114.974C161.452 114.974 167.759 120.876 167.759 128.163Z" fill="white"/>
<path d="M153.665 142.122C145.474 142.122 138.803 135.854 138.803 128.163C138.803 120.473 145.474 114.205 153.665 114.205C161.856 114.205 168.527 120.473 168.527 128.163C168.527 135.854 161.875 142.122 153.665 142.122ZM153.665 115.743C146.32 115.743 140.341 121.319 140.341 128.163C140.341 135.008 146.32 140.584 153.665 140.584C161.01 140.584 166.989 135.008 166.989 128.163C166.989 121.319 161.01 115.743 153.665 115.743Z" fill="#2C2C2C"/>
<path d="M146.763 127.336C146.763 133.354 150.666 138.219 155.472 138.219C160.298 138.219 164.201 133.335 164.201 127.336C164.201 121.318 160.298 116.435 155.472 116.435C150.666 116.435 146.763 121.318 146.763 127.336Z" fill="#50BFD7"/>
<path d="M149.281 127.336C149.281 131.605 152.05 135.066 155.472 135.066C158.895 135.066 161.663 131.605 161.663 127.336C161.663 123.049 158.895 119.588 155.472 119.588C152.05 119.588 149.281 123.049 149.281 127.336Z" fill="#2C2C2C"/>
<path d="M148.897 120.011C148.897 121.184 150.339 122.126 152.089 122.126C153.858 122.126 155.281 121.184 155.281 120.011C155.281 118.838 153.858 117.896 152.089 117.896C150.32 117.896 148.897 118.838 148.897 120.011Z" fill="white"/>
<path d="M221.594 128.163C221.594 135.431 215.268 141.353 207.501 141.353C199.714 141.353 193.407 135.45 193.407 128.163C193.407 120.876 199.714 114.974 207.501 114.974C215.268 114.974 221.594 120.876 221.594 128.163Z" fill="white"/>
<path d="M207.5 142.122C199.309 142.122 192.638 135.854 192.638 128.163C192.638 120.473 199.309 114.205 207.5 114.205C215.691 114.205 222.362 120.473 222.362 128.163C222.362 135.854 215.691 142.122 207.5 142.122ZM207.5 115.743C200.155 115.743 194.176 121.319 194.176 128.163C194.176 135.008 200.155 140.584 207.5 140.584C214.845 140.584 220.824 135.008 220.824 128.163C220.824 121.319 214.845 115.743 207.5 115.743Z" fill="#2C2C2C"/>
<path d="M200.598 127.336C200.598 133.354 204.501 138.218 209.307 138.218C214.133 138.218 218.036 133.334 218.036 127.336C218.036 121.318 214.133 116.434 209.307 116.434C204.501 116.434 200.598 121.318 200.598 127.336Z" fill="#50BFD7"/>
<path d="M203.116 127.336C203.116 131.605 205.885 135.066 209.307 135.066C212.73 135.066 215.498 131.605 215.498 127.336C215.498 123.049 212.73 119.588 209.307 119.588C205.885 119.588 203.116 123.049 203.116 127.336Z" fill="#2C2C2C"/>
<path d="M202.713 120.011C202.713 121.184 204.155 122.126 205.905 122.126C207.673 122.126 209.096 121.184 209.096 120.011C209.096 118.838 207.673 117.896 205.905 117.896C204.155 117.896 202.713 118.838 202.713 120.011Z" fill="white"/>
<ellipse cx="181.99" cy="171.333" rx="7.5" ry="5.25" fill="white"/>
<path fill-rule="evenodd" clip-rule="evenodd" d="M182.015 176.31C186.084 176.31 188.668 173.794 188.668 171.472C188.668 169.149 186.084 166.633 182.015 166.633C177.946 166.633 175.363 169.149 175.363 171.472C175.363 173.794 177.946 176.31 182.015 176.31ZM182.015 177.923C186.58 177.923 190.281 175.034 190.281 171.472C190.281 167.909 186.58 165.021 182.015 165.021C177.451 165.021 173.75 167.909 173.75 171.472C173.75 175.034 177.451 177.923 182.015 177.923Z" fill="#454545"/>
<path d="M204.64 313.206C193.324 312.171 182.149 311.748 182.149 311.748C178.043 311.873 169.297 312.234 160.27 313.206C162.903 322.202 171.836 328.832 182.447 328.832C193.073 328.847 202.007 322.186 204.64 313.206Z" fill="#50BFD7"/>
<path d="M192.353 319.992C192.353 320.384 192.698 320.839 193.105 320.792C197.729 320.306 201.271 316.732 205.832 317.485C201.255 319.757 197.29 323.707 197.854 329.522C197.917 330.243 198.606 330.525 199.139 330.086C202.415 327.296 206.176 324.804 210.565 325.729C212.446 326.121 214.656 326.857 216.599 326.606C219.499 326.246 221.944 324.929 223.385 322.124C225.924 317.265 224.984 311.435 219.295 310.228C219.154 310.197 219.044 310.213 218.919 310.26C216.818 309.429 214.906 308.379 213.214 306.545C211.584 304.758 210.063 302.783 208.292 301.138C205.926 298.928 203.355 297.188 200.221 298.677C199.75 298.897 199.782 299.571 200.08 299.931C201.459 301.639 203.073 303.269 204.766 304.837C203.073 304.445 201.365 304.241 199.609 304.382C196.475 304.649 192.776 306.733 192.854 310.463C192.87 310.933 193.199 311.216 193.607 311.263C196.491 311.56 199.39 311.513 202.258 311.811C197.791 313.128 192.306 314.632 192.353 319.992Z" fill="white"/>
<path fill-rule="evenodd" clip-rule="evenodd" d="M204.775 297.936C206.219 298.506 207.524 299.562 208.72 300.678C209.918 301.791 211.024 303.075 212.097 304.321C212.629 304.939 213.153 305.547 213.676 306.12C215.232 307.806 216.988 308.803 218.96 309.6C219.103 309.576 219.257 309.577 219.427 309.614C222.497 310.267 224.336 312.195 225.029 314.634C225.711 317.037 225.267 319.875 223.942 322.412C222.385 325.439 219.734 326.847 216.678 327.227C215.607 327.365 214.491 327.229 213.438 327.023C212.909 326.919 212.384 326.795 211.882 326.675C211.829 326.662 211.776 326.65 211.723 326.637C211.275 326.53 210.848 326.427 210.437 326.342L210.436 326.341C206.367 325.484 202.819 327.775 199.546 330.562L199.542 330.566L199.538 330.569C199.111 330.92 198.56 331.022 198.073 330.814C197.587 330.606 197.279 330.136 197.23 329.578C196.719 324.305 199.722 320.521 203.509 318.08C202.249 318.251 201.021 318.707 199.736 319.25C199.45 319.371 199.161 319.497 198.868 319.624C197.128 320.38 195.252 321.195 193.173 321.414C192.705 321.467 192.33 321.226 192.104 320.969C191.88 320.712 191.727 320.359 191.726 319.995C191.701 317.042 193.225 315.146 195.279 313.854C196.362 313.172 197.61 312.647 198.876 312.205C198.555 312.19 198.234 312.176 197.911 312.162L197.898 312.162C196.461 312.099 195.001 312.036 193.542 311.885L193.539 311.885L193.535 311.884C192.865 311.807 192.255 311.308 192.228 310.483L192.228 310.479L192.228 310.475C192.183 308.373 193.213 306.744 194.641 305.629C196.057 304.523 197.885 303.899 199.556 303.756L199.558 303.756L199.559 303.756C200.667 303.667 201.752 303.71 202.819 303.846C201.668 302.712 200.574 301.541 199.594 300.326C199.342 300.019 199.214 299.605 199.236 299.215C199.259 298.81 199.457 298.342 199.953 298.109C201.691 297.284 203.298 297.354 204.775 297.936ZM200.496 299.24C200.493 299.248 200.489 299.263 200.488 299.286C200.486 299.325 200.491 299.373 200.507 299.422C200.523 299.472 200.545 299.509 200.563 299.531L200.565 299.533L200.567 299.536C201.92 301.212 203.511 302.819 205.192 304.376L206.923 305.978L204.624 305.446C202.976 305.065 201.335 304.872 199.661 305.006C198.198 305.131 196.611 305.681 195.413 306.617C194.228 307.542 193.448 308.819 193.481 310.444C193.484 310.527 193.51 310.561 193.527 310.577C193.549 310.599 193.595 310.629 193.676 310.638C195.094 310.785 196.52 310.847 197.965 310.91L197.971 310.91C199.41 310.972 200.869 311.036 202.323 311.187L205.479 311.514L202.435 312.411C202.357 312.434 202.279 312.457 202.201 312.481C200.01 313.125 197.718 313.8 195.947 314.915C194.153 316.044 192.959 317.58 192.98 319.986L192.98 319.989V319.991C192.98 320 192.982 320.023 192.995 320.056C193.008 320.089 193.027 320.119 193.048 320.143C193.056 320.152 193.064 320.159 193.069 320.164C194.929 319.963 196.6 319.239 198.339 318.486C198.639 318.356 198.942 318.225 199.248 318.096C201.292 317.231 203.463 316.458 205.934 316.865L207.85 317.181L206.11 318.045C201.632 320.269 197.951 324.027 198.478 329.46L198.478 329.463L198.479 329.466C198.486 329.551 198.509 329.599 198.526 329.624C198.542 329.648 198.558 329.657 198.567 329.661C198.577 329.666 198.593 329.669 198.617 329.665C198.641 329.661 198.683 329.647 198.738 329.604C202.015 326.813 205.987 324.123 210.693 325.114C211.123 325.204 211.57 325.311 212.015 325.418C212.068 325.43 212.121 325.443 212.174 325.456C212.676 325.576 213.178 325.694 213.679 325.792C214.686 325.99 215.647 326.096 216.519 325.984L216.52 325.984L216.522 325.983C219.263 325.642 221.501 324.418 222.828 321.836L222.829 321.835L222.83 321.833C224.043 319.511 224.398 317.005 223.823 314.977C223.257 312.985 221.782 311.396 219.165 310.84L219.162 310.84L219.159 310.839C219.158 310.839 219.158 310.839 219.158 310.839C219.154 310.84 219.147 310.842 219.139 310.846L218.913 310.93L218.688 310.841C216.537 309.991 214.532 308.896 212.753 306.969L212.752 306.968L212.75 306.967C212.174 306.335 211.625 305.697 211.081 305.065C210.038 303.853 209.016 302.665 207.866 301.596L207.864 301.595C206.693 300.501 205.53 299.582 204.314 299.103C203.132 298.636 201.89 298.579 200.496 299.24Z" fill="#2C2C2C"/>
<path d="M118.515 258.024H248.323C249.876 258.024 251.365 258.641 252.463 259.74C253.562 260.838 254.179 262.327 254.179 263.88V336.806H112.659V263.88C112.659 262.327 113.276 260.838 114.374 259.74C115.472 258.641 116.962 258.024 118.515 258.024Z" fill="white"/>
<path fill-rule="evenodd" clip-rule="evenodd" d="M118.516 258.771C117.161 258.771 115.861 259.309 114.903 260.268C113.945 261.226 113.407 262.525 113.407 263.88V336.06H253.433V263.88C253.433 262.525 252.895 261.226 251.937 260.268C250.979 259.309 249.679 258.771 248.324 258.771H118.516ZM113.848 259.212C115.086 257.974 116.765 257.278 118.516 257.278H248.324C250.075 257.278 251.754 257.974 252.992 259.212C254.231 260.45 254.926 262.129 254.926 263.88V336.807C254.926 337.219 254.592 337.553 254.18 337.553H112.66C112.248 337.553 111.914 337.219 111.914 336.807V263.88C111.914 262.129 112.61 260.45 113.848 259.212Z" fill="#2C2C2C"/>
<path d="M254.179 284.232C236.401 288.741 218.155 300.218 184.157 316.38C151.365 331.979 124.523 331.71 112.659 330.504V336.804H254.179V284.232Z" fill="#2C2C2C"/>
<path fill-rule="evenodd" clip-rule="evenodd" d="M254.638 283.643C254.82 283.784 254.926 284.001 254.926 284.232V336.804C254.926 337.216 254.592 337.55 254.18 337.55H112.66C112.248 337.55 111.914 337.216 111.914 336.804V330.503C111.914 330.292 112.003 330.091 112.16 329.949C112.317 329.808 112.526 329.739 112.736 329.761C124.498 330.956 151.197 331.233 183.837 315.705L183.837 315.705C195.035 310.382 204.51 305.574 212.834 301.35C217.145 299.163 221.147 297.132 224.921 295.267C235.96 289.811 245.026 285.783 253.996 283.508C254.22 283.452 254.456 283.501 254.638 283.643ZM184.478 317.053C152.27 332.375 125.755 332.466 113.407 331.325V336.057H253.433V285.197C244.924 287.47 236.222 291.346 225.582 296.605C221.834 298.457 217.843 300.482 213.539 302.666C205.203 306.896 195.69 311.724 184.478 317.053Z" fill="#2C2C2C"/>
<path d="M254.179 332.438H112.659V336.818H254.179V332.438Z" fill="white"/>
<path fill-rule="evenodd" clip-rule="evenodd" d="M111.914 332.44C111.914 332.028 112.248 331.693 112.66 331.693H254.18C254.592 331.693 254.926 332.028 254.926 332.44V336.82C254.926 337.232 254.592 337.566 254.18 337.566H112.66C112.248 337.566 111.914 337.232 111.914 336.82V332.44ZM113.407 333.186V336.073H253.433V333.186H113.407Z" fill="#2C2C2C"/>
</svg>
