<svg width="366" height="324" viewBox="0 0 366 324" fill="none" xmlns="http://www.w3.org/2000/svg">
<path d="M348.336 99.2433C348.336 99.2433 334.968 47.4698 254.038 14.8187C173.109 -17.8324 100.705 12.4084 84.1991 50.6684C67.693 88.9284 84.9915 109.589 73.9769 142.263C62.9623 174.937 6.37556 216.319 29.2131 266.501C52.0506 316.683 158.916 331.015 245.393 320.662C331.87 310.309 399.432 195.613 348.336 99.2433Z" fill="#50BFD7"/>
<path opacity="0.7" d="M348.336 99.2433C348.336 99.2433 334.968 47.4698 254.038 14.8187C173.109 -17.8324 100.705 12.4084 84.1991 50.6684C67.693 88.9284 84.9915 109.589 73.9769 142.263C62.9623 174.937 6.37556 216.319 29.2131 266.501C52.0506 316.683 158.916 331.015 245.393 320.662C331.87 310.309 399.432 195.613 348.336 99.2433Z" fill="white"/>
<path fill-rule="evenodd" clip-rule="evenodd" d="M275.452 252.944C275.672 252.92 275.868 253.079 275.892 253.299L279.031 282.768C279.054 282.988 278.895 283.185 278.676 283.208C278.456 283.231 278.26 283.072 278.236 282.853L275.097 253.383C275.074 253.164 275.233 252.967 275.452 252.944Z" fill="#263238"/>
<path d="M275.476 254.17C275.476 254.17 269.839 249.782 269.839 239.748C269.839 229.713 277.358 221.569 277.358 221.569C277.358 221.569 285.511 231.603 283.629 241.629C281.747 251.655 275.476 254.17 275.476 254.17Z" fill="#50BFD7"/>
<path fill-rule="evenodd" clip-rule="evenodd" d="M277.67 221.317L277.36 221.569L277.066 221.297C277.145 221.212 277.256 221.165 277.372 221.169C277.488 221.173 277.597 221.227 277.67 221.317ZM275.478 254.169C275.232 254.485 275.232 254.484 275.232 254.484L275.231 254.484L275.23 254.483L275.225 254.479L275.21 254.467C275.198 254.457 275.18 254.443 275.158 254.424C275.113 254.386 275.048 254.331 274.967 254.257C274.805 254.111 274.577 253.892 274.304 253.599C273.759 253.013 273.037 252.129 272.316 250.926C270.873 248.519 269.44 244.843 269.44 239.747C269.44 234.633 271.355 230.019 273.253 226.697C274.203 225.033 275.154 223.686 275.867 222.755C276.224 222.289 276.522 221.926 276.732 221.68C276.837 221.556 276.919 221.462 276.976 221.397C277.005 221.365 277.027 221.341 277.042 221.324L277.059 221.305L277.064 221.3L277.065 221.298L277.066 221.298C277.066 221.298 277.066 221.297 277.36 221.569C277.67 221.317 277.67 221.317 277.67 221.317L277.67 221.317L277.672 221.319L277.677 221.325L277.695 221.349C277.712 221.369 277.735 221.399 277.766 221.438C277.827 221.516 277.915 221.631 278.027 221.78C278.249 222.079 278.564 222.516 278.936 223.071C279.679 224.18 280.649 225.764 281.561 227.666C283.379 231.46 284.986 236.568 284.023 241.702C283.067 246.793 280.992 249.999 279.137 251.935C278.21 252.902 277.342 253.549 276.701 253.957C276.381 254.161 276.117 254.305 275.931 254.398C275.838 254.445 275.764 254.48 275.712 254.503C275.687 254.515 275.666 254.523 275.652 254.53L275.635 254.537L275.629 254.539L275.628 254.54L275.627 254.54C275.627 254.54 275.626 254.54 275.478 254.169ZM275.478 254.169L275.232 254.485C275.344 254.572 275.494 254.593 275.626 254.54L275.478 254.169ZM275.542 253.699C275.551 253.695 275.561 253.69 275.571 253.685C275.735 253.602 275.976 253.471 276.272 253.282C276.866 252.905 277.683 252.297 278.559 251.382C280.31 249.555 282.311 246.49 283.237 241.555C284.155 236.664 282.627 231.741 280.84 228.012C279.949 226.152 278.999 224.601 278.272 223.515C277.909 222.973 277.601 222.547 277.386 222.258C277.37 222.237 277.355 222.217 277.34 222.198C277.139 222.435 276.85 222.787 276.502 223.241C275.806 224.15 274.876 225.467 273.947 227.093C272.085 230.351 270.24 234.826 270.24 239.747C270.24 244.685 271.626 248.22 273.002 250.515C273.69 251.664 274.377 252.504 274.889 253.055C275.145 253.33 275.357 253.532 275.504 253.665C275.517 253.677 275.53 253.688 275.542 253.699Z" fill="#263238"/>
<path fill-rule="evenodd" clip-rule="evenodd" d="M276.956 230.797C277.176 230.811 277.343 231.001 277.329 231.221L275.893 253.366C275.879 253.586 275.689 253.753 275.469 253.739C275.248 253.725 275.081 253.535 275.096 253.314L276.531 231.17C276.546 230.949 276.736 230.782 276.956 230.797Z" fill="#263238"/>
<path fill-rule="evenodd" clip-rule="evenodd" d="M291.722 259.958C291.91 260.072 291.971 260.318 291.857 260.507C287.961 266.965 284.63 273.748 281.902 280.781C281.822 280.986 281.591 281.088 281.385 281.009C281.179 280.929 281.077 280.697 281.157 280.491C283.902 273.416 287.253 266.592 291.173 260.094C291.287 259.905 291.533 259.844 291.722 259.958Z" fill="#263238"/>
<path d="M288.563 265.63C288.563 265.63 285.432 259.197 289.861 250.218C294.29 241.238 304.641 237.239 304.641 237.239C304.641 237.239 307.52 249.837 301.396 258.005C295.272 266.173 288.563 265.63 288.563 265.63Z" fill="#50BFD7"/>
<path fill-rule="evenodd" clip-rule="evenodd" d="M305.029 237.151L304.639 237.24L304.495 236.868C304.603 236.826 304.724 236.833 304.827 236.888C304.929 236.942 305.003 237.038 305.029 237.151ZM288.562 265.631C288.202 265.806 288.202 265.806 288.202 265.806L288.201 265.803L288.199 265.798L288.191 265.781C288.184 265.766 288.174 265.746 288.162 265.719C288.138 265.665 288.105 265.587 288.065 265.485C287.984 265.282 287.875 264.985 287.759 264.601C287.528 263.835 287.269 262.722 287.152 261.326C286.917 258.53 287.252 254.603 289.501 250.042C291.758 245.466 295.515 242.174 298.686 240.031C300.275 238.958 301.723 238.169 302.775 237.648C303.301 237.387 303.729 237.193 304.026 237.063C304.175 236.999 304.291 236.95 304.37 236.918C304.41 236.901 304.441 236.889 304.462 236.881L304.486 236.871L304.492 236.869L304.494 236.868L304.495 236.868C304.495 236.868 304.495 236.868 304.639 237.24C305.029 237.151 305.029 237.151 305.029 237.151L305.029 237.155L305.031 237.162L305.038 237.192C305.043 237.217 305.051 237.254 305.061 237.303C305.081 237.4 305.11 237.542 305.144 237.725C305.212 238.091 305.301 238.622 305.389 239.284C305.566 240.607 305.736 242.456 305.713 244.565C305.667 248.771 304.85 254.063 301.714 258.246C298.604 262.394 295.332 264.346 292.818 265.258C291.563 265.712 290.501 265.906 289.748 265.986C289.371 266.026 289.072 266.037 288.864 266.038C288.76 266.039 288.679 266.037 288.623 266.035C288.595 266.034 288.573 266.032 288.557 266.031L288.538 266.03L288.533 266.03L288.531 266.03C288.53 266.03 288.529 266.03 288.562 265.631ZM288.562 265.631L288.202 265.806C288.264 265.933 288.389 266.018 288.529 266.03L288.562 265.631ZM288.827 265.239C288.838 265.239 288.849 265.239 288.86 265.239C289.043 265.238 289.315 265.228 289.664 265.191C290.36 265.117 291.358 264.937 292.545 264.506C294.916 263.647 298.06 261.787 301.075 257.767C304.063 253.781 304.868 248.691 304.914 244.556C304.936 242.494 304.77 240.684 304.597 239.389C304.511 238.742 304.424 238.225 304.358 237.871C304.353 237.845 304.349 237.82 304.344 237.797C304.058 237.921 303.643 238.11 303.13 238.364C302.103 238.873 300.687 239.644 299.134 240.694C296.023 242.795 292.39 245.992 290.218 250.396C288.039 254.814 287.724 258.594 287.948 261.259C288.06 262.593 288.307 263.65 288.524 264.37C288.633 264.73 288.734 265.006 288.807 265.19C288.814 265.207 288.821 265.223 288.827 265.239Z" fill="#263238"/>
<path fill-rule="evenodd" clip-rule="evenodd" d="M300.183 246.527C300.371 246.642 300.431 246.888 300.316 247.076L288.903 265.838C288.789 266.027 288.543 266.087 288.354 265.972C288.166 265.857 288.106 265.612 288.22 265.423L299.633 246.661C299.748 246.472 299.994 246.412 300.183 246.527Z" fill="#263238"/>
<path fill-rule="evenodd" clip-rule="evenodd" d="M262.062 259.066C262.253 258.955 262.498 259.02 262.609 259.211L267 266.777C269.897 271.968 272.22 277.459 273.929 283.153C273.992 283.364 273.873 283.587 273.661 283.651C273.45 283.714 273.227 283.594 273.164 283.383C271.471 277.746 269.171 272.309 266.304 267.169L261.917 259.612C261.807 259.421 261.871 259.177 262.062 259.066Z" fill="#263238"/>
<path d="M265.792 265.256C262.33 266.32 258.654 266.489 255.108 265.749C251.562 265.008 248.261 263.382 245.513 261.022C235.779 252.845 236.323 236.16 236.323 236.16C236.323 236.16 255.191 233.467 262.807 244.158C265.015 247.151 266.444 250.647 266.965 254.33C267.487 258.013 267.083 261.768 265.792 265.256V265.256Z" fill="#50BFD7"/>
<path fill-rule="evenodd" clip-rule="evenodd" d="M236.323 236.162C235.924 236.149 235.924 236.149 235.924 236.149L235.924 236.153L235.923 236.163L235.922 236.201C235.922 236.234 235.921 236.283 235.92 236.346C235.918 236.473 235.917 236.659 235.919 236.898C235.923 237.377 235.94 238.067 235.991 238.921C236.093 240.627 236.332 242.988 236.877 245.608C237.965 250.835 240.288 257.155 245.255 261.329C248.054 263.732 251.415 265.388 255.027 266.142C258.639 266.896 262.383 266.724 265.91 265.64L265.793 265.258L266.167 265.397C267.481 261.846 267.892 258.025 267.361 254.276C266.831 250.528 265.377 246.972 263.131 243.925C259.222 238.441 252.458 236.422 246.755 235.755C243.894 235.42 241.275 235.423 239.372 235.509C238.42 235.552 237.646 235.616 237.109 235.669C236.841 235.696 236.631 235.72 236.488 235.738C236.417 235.746 236.362 235.753 236.325 235.758L236.282 235.764L236.271 235.766L236.267 235.766C236.267 235.766 236.267 235.766 236.323 236.162ZM236.718 236.515C236.717 236.619 236.717 236.744 236.718 236.891C236.722 237.357 236.739 238.034 236.789 238.873C236.889 240.551 237.124 242.872 237.659 245.445C238.733 250.605 241.005 256.715 245.771 260.718L245.774 260.721C248.471 263.037 251.71 264.633 255.19 265.36C258.605 266.073 262.143 265.926 265.486 264.934C266.7 261.56 267.073 257.94 266.57 254.388C266.058 250.771 264.655 247.337 262.486 244.397L262.482 244.392C258.774 239.187 252.298 237.208 246.663 236.549C243.855 236.22 241.281 236.223 239.408 236.307C238.472 236.35 237.713 236.413 237.188 236.465C237 236.483 236.842 236.501 236.718 236.515ZM236.323 236.162L236.267 235.766C236.075 235.794 235.93 235.955 235.924 236.149L236.323 236.162Z" fill="#263238"/>
<path fill-rule="evenodd" clip-rule="evenodd" d="M243.151 241.665C243.31 241.512 243.563 241.517 243.716 241.677L266.08 264.981C266.233 265.141 266.228 265.394 266.068 265.546C265.909 265.699 265.656 265.694 265.503 265.535L243.14 242.23C242.987 242.071 242.992 241.818 243.151 241.665Z" fill="#263238"/>
<path d="M288.95 276.501H265.077V299.911H288.95V276.501Z" fill="#263238"/>
<path fill-rule="evenodd" clip-rule="evenodd" d="M264.679 276.498C264.679 276.278 264.858 276.099 265.078 276.099H288.951C289.172 276.099 289.351 276.278 289.351 276.498V299.908C289.351 300.129 289.172 300.308 288.951 300.308H265.078C264.858 300.308 264.679 300.129 264.679 299.908V276.498ZM265.478 276.898V299.509H288.551V276.898H265.478Z" fill="#263238"/>
<path opacity="0.3" d="M327.463 44.6113H158.361V193.819H327.463V44.6113Z" fill="black"/>
<path d="M331.708 36.9873H162.606V186.195H331.708V36.9873Z" fill="white"/>
<path fill-rule="evenodd" clip-rule="evenodd" d="M161.618 36.9876C161.618 36.4422 162.06 36 162.606 36H331.708C332.253 36 332.695 36.4422 332.695 36.9876V186.195C332.695 186.741 332.253 187.183 331.708 187.183H162.606C162.06 187.183 161.618 186.741 161.618 186.195V36.9876ZM163.593 37.9753V185.208H330.72V37.9753H163.593Z" fill="#263238"/>
<path d="M331.708 36.9873H162.606V47.6507H331.708V36.9873Z" fill="#263238"/>
<path fill-rule="evenodd" clip-rule="evenodd" d="M161.618 36.9876C161.618 36.4422 162.06 36 162.606 36H331.708C332.253 36 332.695 36.4422 332.695 36.9876V47.651C332.695 48.1965 332.253 48.6387 331.708 48.6387H162.606C162.06 48.6387 161.618 48.1965 161.618 47.651V36.9876ZM163.593 37.9753V46.6634H330.72V37.9753H163.593Z" fill="#263238"/>
<path d="M236.586 100.889V85.159C236.586 82.2993 237.722 79.5566 239.744 77.5345C241.767 75.5123 244.509 74.3763 247.369 74.3763C250.229 74.3763 252.971 75.5123 254.994 77.5345C257.016 79.5566 258.152 82.2993 258.152 85.159V94.3502H262.449V85.159C262.449 81.1596 260.86 77.3239 258.032 74.4959C255.204 71.6679 251.368 70.0791 247.369 70.0791C243.37 70.0791 239.534 71.6679 236.706 74.4959C233.878 77.3239 232.289 81.1596 232.289 85.159V100.889H236.586Z" fill="white"/>
<path d="M306.11 137.691H188.19C185.26 137.691 182.885 140.067 182.885 142.997V155.583C182.885 158.513 185.26 160.888 188.19 160.888H306.11C309.04 160.888 311.416 158.513 311.416 155.583V142.997C311.416 140.067 309.04 137.691 306.11 137.691Z" fill="white"/>
<path fill-rule="evenodd" clip-rule="evenodd" d="M188.189 138.681C185.805 138.681 183.872 140.614 183.872 142.999V155.585C183.872 157.97 185.805 159.903 188.189 159.903H306.11C308.494 159.903 310.427 157.97 310.427 155.585V142.999C310.427 140.614 308.494 138.681 306.11 138.681H188.189ZM181.896 142.999C181.896 139.523 184.714 136.706 188.189 136.706H306.11C309.585 136.706 312.403 139.523 312.403 142.999V155.585C312.403 159.061 309.585 161.878 306.11 161.878H188.189C184.714 161.878 181.896 159.061 181.896 155.585V142.999Z" fill="#263238"/>
<path d="M195.365 150.028C195.182 149.994 195.01 149.92 194.86 149.812C194.71 149.703 194.586 149.562 194.497 149.4C194.408 149.237 194.356 149.057 194.346 148.872C194.335 148.687 194.366 148.502 194.436 148.33L194.503 148.158C194.556 147.987 194.645 147.83 194.764 147.697C194.883 147.564 195.029 147.458 195.192 147.387C195.356 147.315 195.533 147.279 195.711 147.282C195.89 147.284 196.066 147.325 196.227 147.402C197.308 147.819 198.337 148.362 199.291 149.02C198.952 147.872 198.756 146.687 198.707 145.492C198.696 145.311 198.722 145.13 198.784 144.96C198.846 144.79 198.942 144.634 199.066 144.502C199.19 144.37 199.34 144.266 199.507 144.194C199.673 144.122 199.852 144.086 200.033 144.086H200.219C200.4 144.086 200.579 144.122 200.746 144.194C200.912 144.266 201.062 144.37 201.186 144.502C201.31 144.634 201.406 144.79 201.468 144.96C201.53 145.13 201.556 145.311 201.545 145.492C201.495 146.686 201.303 147.87 200.975 149.02C201.931 148.373 202.954 147.83 204.025 147.402C204.188 147.323 204.366 147.282 204.547 147.28C204.727 147.277 204.906 147.315 205.071 147.39C205.235 147.464 205.381 147.574 205.498 147.711C205.616 147.849 205.701 148.01 205.75 148.184V148.304C205.827 148.474 205.865 148.661 205.86 148.848C205.855 149.036 205.807 149.22 205.72 149.386C205.633 149.552 205.509 149.696 205.358 149.808C205.207 149.919 205.032 149.994 204.848 150.028C203.735 150.326 202.591 150.495 201.439 150.532C202.382 151.225 203.238 152.032 203.986 152.932C204.095 153.069 204.176 153.226 204.225 153.394C204.274 153.562 204.288 153.738 204.269 153.912C204.249 154.085 204.195 154.254 204.11 154.406C204.025 154.559 203.911 154.694 203.773 154.802L203.628 154.922C203.485 155.042 203.317 155.13 203.137 155.177C202.956 155.224 202.767 155.23 202.583 155.194C202.4 155.159 202.227 155.082 202.077 154.971C201.927 154.859 201.805 154.716 201.718 154.55C201.08 153.572 200.551 152.527 200.139 151.434C199.705 152.524 199.163 153.568 198.521 154.55C198.434 154.716 198.312 154.859 198.162 154.971C198.012 155.082 197.839 155.159 197.656 155.194C197.472 155.23 197.283 155.224 197.102 155.177C196.922 155.13 196.754 155.042 196.611 154.922L196.479 154.802C196.341 154.695 196.225 154.561 196.139 154.409C196.053 154.256 195.997 154.088 195.976 153.914C195.956 153.74 195.969 153.564 196.017 153.396C196.064 153.227 196.145 153.07 196.253 152.932C197.019 152.031 197.877 151.213 198.813 150.492C197.649 150.486 196.49 150.33 195.365 150.028V150.028Z" fill="#263238"/>
<path d="M208.812 150.028C208.63 149.994 208.457 149.92 208.307 149.812C208.157 149.703 208.033 149.562 207.944 149.4C207.855 149.237 207.803 149.057 207.793 148.872C207.783 148.687 207.814 148.502 207.884 148.33L207.95 148.158C208.003 147.987 208.092 147.83 208.211 147.697C208.33 147.564 208.476 147.458 208.64 147.387C208.803 147.315 208.98 147.279 209.159 147.282C209.337 147.284 209.513 147.325 209.674 147.402C210.756 147.819 211.784 148.362 212.738 149.02C212.399 147.872 212.203 146.687 212.154 145.492C212.143 145.311 212.17 145.13 212.231 144.96C212.293 144.79 212.389 144.634 212.513 144.502C212.638 144.37 212.788 144.266 212.954 144.194C213.12 144.122 213.3 144.086 213.481 144.086H213.587C213.768 144.086 213.947 144.122 214.113 144.194C214.28 144.266 214.43 144.37 214.554 144.502C214.678 144.634 214.774 144.79 214.836 144.96C214.898 145.13 214.924 145.311 214.913 145.492C214.862 146.686 214.671 147.87 214.343 149.02C215.299 148.373 216.321 147.83 217.393 147.402C217.558 147.336 217.735 147.304 217.913 147.308C218.09 147.312 218.266 147.352 218.428 147.425C218.59 147.498 218.735 147.603 218.856 147.733C218.977 147.864 219.07 148.017 219.131 148.184V148.304C219.208 148.474 219.246 148.661 219.241 148.848C219.236 149.036 219.188 149.22 219.101 149.386C219.014 149.552 218.89 149.696 218.739 149.808C218.588 149.919 218.413 149.994 218.229 150.028C217.116 150.326 215.972 150.495 214.82 150.532C215.763 151.225 216.619 152.032 217.367 152.932C217.476 153.069 217.557 153.226 217.606 153.394C217.655 153.562 217.669 153.738 217.65 153.912C217.63 154.085 217.576 154.254 217.491 154.406C217.406 154.559 217.292 154.694 217.154 154.802L217.009 154.922C216.867 155.042 216.7 155.13 216.521 155.177C216.341 155.224 216.153 155.23 215.971 155.194C215.788 155.159 215.616 155.082 215.468 154.971C215.319 154.859 215.197 154.715 215.112 154.55C214.464 153.576 213.93 152.53 213.52 151.434C213.086 152.524 212.544 153.568 211.902 154.55C211.815 154.716 211.693 154.859 211.543 154.971C211.393 155.082 211.22 155.159 211.037 155.194C210.853 155.23 210.664 155.224 210.483 155.177C210.303 155.13 210.135 155.042 209.992 154.922L209.86 154.802C209.722 154.695 209.606 154.561 209.52 154.409C209.434 154.256 209.378 154.088 209.357 153.914C209.336 153.74 209.35 153.564 209.398 153.396C209.445 153.227 209.526 153.07 209.634 152.932C210.4 152.031 211.258 151.213 212.194 150.492C211.052 150.48 209.915 150.324 208.812 150.028Z" fill="#263238"/>
<path d="M222.263 150.028C222.087 149.982 221.923 149.901 221.78 149.79C221.637 149.679 221.518 149.539 221.431 149.38C221.344 149.221 221.291 149.046 221.274 148.865C221.258 148.684 221.278 148.502 221.335 148.33V148.158C221.388 147.987 221.477 147.83 221.596 147.697C221.715 147.564 221.861 147.458 222.024 147.387C222.188 147.315 222.365 147.279 222.543 147.282C222.722 147.284 222.898 147.325 223.059 147.402C224.14 147.819 225.169 148.362 226.123 149.02C225.789 147.872 225.597 146.687 225.552 145.492C225.541 145.311 225.568 145.13 225.629 144.96C225.691 144.79 225.787 144.634 225.911 144.502C226.036 144.37 226.186 144.266 226.352 144.194C226.518 144.122 226.697 144.086 226.879 144.086H227.064C227.245 144.086 227.425 144.122 227.591 144.194C227.757 144.266 227.907 144.37 228.031 144.502C228.156 144.634 228.252 144.79 228.313 144.96C228.375 145.13 228.401 145.311 228.391 145.492C228.34 146.686 228.149 147.87 227.82 149.02C228.776 148.373 229.799 147.83 230.871 147.402C231.036 147.336 231.213 147.304 231.39 147.308C231.568 147.312 231.743 147.352 231.905 147.425C232.067 147.498 232.213 147.603 232.334 147.733C232.454 147.864 232.548 148.017 232.608 148.184V148.304C232.686 148.473 232.724 148.659 232.72 148.845C232.715 149.032 232.668 149.216 232.583 149.382C232.497 149.548 232.375 149.692 232.226 149.804C232.076 149.916 231.903 149.992 231.72 150.028C230.602 150.324 229.454 150.494 228.298 150.532C229.241 151.225 230.096 152.032 230.844 152.932C230.954 153.069 231.035 153.226 231.084 153.394C231.132 153.562 231.147 153.738 231.127 153.912C231.108 154.085 231.054 154.254 230.969 154.406C230.884 154.559 230.769 154.694 230.632 154.802L230.486 154.922C230.345 155.042 230.178 155.13 229.998 155.177C229.819 155.224 229.63 155.23 229.448 155.194C229.266 155.159 229.094 155.082 228.945 154.971C228.796 154.859 228.675 154.715 228.589 154.55C227.947 153.573 227.413 152.527 226.998 151.434C226.564 152.524 226.022 153.568 225.38 154.55C225.294 154.715 225.173 154.859 225.024 154.971C224.876 155.082 224.704 155.159 224.521 155.194C224.339 155.23 224.151 155.224 223.971 155.177C223.791 155.13 223.625 155.042 223.483 154.922L223.337 154.802C223.199 154.695 223.084 154.561 222.997 154.409C222.911 154.256 222.856 154.088 222.835 153.914C222.814 153.74 222.828 153.564 222.875 153.396C222.923 153.227 223.003 153.07 223.112 152.932C223.877 152.031 224.735 151.213 225.672 150.492C224.52 150.482 223.375 150.326 222.263 150.028V150.028Z" fill="#263238"/>
<path d="M235.71 150.028C235.535 149.982 235.37 149.901 235.227 149.79C235.084 149.679 234.965 149.539 234.878 149.38C234.791 149.221 234.738 149.046 234.721 148.865C234.705 148.684 234.725 148.502 234.782 148.33V148.158C234.835 147.987 234.924 147.83 235.043 147.697C235.162 147.564 235.308 147.458 235.472 147.387C235.635 147.315 235.812 147.279 235.991 147.282C236.169 147.284 236.345 147.325 236.506 147.402C237.587 147.819 238.616 148.362 239.57 149.02C239.242 147.87 239.05 146.686 239 145.492C238.989 145.311 239.015 145.13 239.077 144.96C239.138 144.79 239.234 144.634 239.359 144.502C239.483 144.37 239.633 144.266 239.799 144.194C239.966 144.122 240.145 144.086 240.326 144.086H240.511C240.693 144.086 240.872 144.122 241.038 144.194C241.204 144.266 241.354 144.37 241.479 144.502C241.603 144.634 241.699 144.79 241.761 144.96C241.822 145.13 241.849 145.311 241.838 145.492C241.787 146.686 241.596 147.87 241.267 149.02C242.223 148.373 243.246 147.83 244.318 147.402C244.483 147.336 244.66 147.304 244.838 147.308C245.015 147.312 245.19 147.352 245.352 147.425C245.515 147.498 245.66 147.603 245.781 147.733C245.902 147.864 245.995 148.017 246.055 148.184V148.304C246.133 148.473 246.171 148.659 246.167 148.845C246.162 149.032 246.116 149.216 246.03 149.382C245.944 149.548 245.822 149.692 245.673 149.804C245.523 149.916 245.35 149.992 245.167 150.028C244.049 150.324 242.901 150.494 241.745 150.532C242.688 151.225 243.543 152.032 244.291 152.932C244.401 153.069 244.482 153.226 244.531 153.394C244.579 153.562 244.594 153.738 244.574 153.912C244.555 154.085 244.501 154.254 244.416 154.406C244.331 154.559 244.216 154.694 244.079 154.802L243.933 154.922C243.792 155.042 243.625 155.13 243.446 155.177C243.266 155.224 243.078 155.23 242.895 155.194C242.713 155.159 242.541 155.082 242.392 154.971C242.244 154.859 242.122 154.715 242.037 154.55C241.394 153.573 240.86 152.527 240.445 151.434C239.999 152.525 239.443 153.57 238.787 154.55C238.702 154.715 238.58 154.859 238.432 154.971C238.283 155.082 238.111 155.159 237.929 155.194C237.746 155.23 237.558 155.224 237.379 155.177C237.199 155.13 237.032 155.042 236.891 154.922L236.745 154.802C236.607 154.695 236.491 154.561 236.405 154.409C236.319 154.256 236.263 154.088 236.242 153.914C236.222 153.74 236.235 153.564 236.283 153.396C236.33 153.227 236.411 153.07 236.519 152.932C237.285 152.031 238.143 151.213 239.079 150.492C237.941 150.479 236.809 150.323 235.71 150.028Z" fill="#263238"/>
<path d="M249.159 150.028C248.983 149.982 248.819 149.901 248.676 149.79C248.532 149.679 248.414 149.539 248.327 149.38C248.24 149.221 248.186 149.046 248.17 148.865C248.153 148.684 248.174 148.502 248.23 148.33L248.297 148.158C248.359 147.993 248.455 147.842 248.577 147.715C248.698 147.587 248.845 147.485 249.006 147.415C249.168 147.344 249.342 147.307 249.519 147.305C249.695 147.302 249.87 147.335 250.034 147.402C251.11 147.822 252.133 148.365 253.084 149.02C252.756 147.87 252.565 146.686 252.514 145.492C252.503 145.311 252.529 145.13 252.591 144.96C252.653 144.79 252.749 144.634 252.873 144.502C252.998 144.37 253.147 144.266 253.314 144.194C253.48 144.122 253.659 144.086 253.84 144.086H254.026C254.207 144.086 254.386 144.122 254.553 144.194C254.719 144.266 254.869 144.37 254.993 144.502C255.117 144.634 255.213 144.79 255.275 144.96C255.337 145.13 255.363 145.311 255.352 145.492C255.302 146.686 255.11 147.87 254.782 149.02C255.738 148.373 256.761 147.83 257.833 147.402C257.998 147.336 258.174 147.304 258.352 147.308C258.53 147.312 258.705 147.352 258.867 147.425C259.029 147.498 259.175 147.603 259.296 147.733C259.416 147.864 259.51 148.017 259.57 148.184V148.304C259.648 148.473 259.686 148.659 259.681 148.845C259.677 149.032 259.63 149.216 259.545 149.382C259.459 149.548 259.337 149.692 259.187 149.804C259.038 149.916 258.865 149.992 258.681 150.028C257.563 150.324 256.416 150.494 255.26 150.532C256.203 151.225 257.058 152.032 257.806 152.932C257.915 153.069 257.997 153.226 258.045 153.394C258.094 153.562 258.109 153.738 258.089 153.912C258.069 154.085 258.015 154.254 257.93 154.406C257.845 154.559 257.731 154.694 257.594 154.802L257.448 154.922C257.307 155.042 257.14 155.13 256.96 155.177C256.78 155.224 256.592 155.23 256.41 155.194C256.228 155.159 256.056 155.082 255.907 154.971C255.758 154.859 255.637 154.715 255.551 154.55C254.909 153.573 254.375 152.527 253.96 151.434C253.526 152.524 252.984 153.568 252.342 154.55C252.256 154.715 252.135 154.859 251.986 154.971C251.837 155.082 251.665 155.159 251.483 155.194C251.301 155.23 251.113 155.224 250.933 155.177C250.753 155.13 250.586 155.042 250.445 154.922L250.299 154.802C250.152 154.701 250.029 154.57 249.937 154.417C249.845 154.264 249.787 154.093 249.767 153.916C249.747 153.738 249.765 153.559 249.82 153.389C249.875 153.22 249.966 153.064 250.087 152.932C250.844 152.028 251.698 151.21 252.633 150.492C251.46 150.488 250.292 150.332 249.159 150.028V150.028Z" fill="#263238"/>
<path d="M262.66 150.028C262.484 149.982 262.32 149.901 262.176 149.79C262.033 149.679 261.915 149.539 261.828 149.38C261.741 149.221 261.687 149.046 261.671 148.865C261.654 148.684 261.675 148.502 261.731 148.33L261.797 148.158C261.86 147.993 261.956 147.842 262.078 147.715C262.199 147.587 262.346 147.485 262.507 147.415C262.669 147.344 262.843 147.307 263.02 147.305C263.196 147.302 263.371 147.335 263.535 147.402C264.611 147.822 265.634 148.365 266.585 149.02C266.257 147.87 266.066 146.686 266.015 145.492C266.004 145.311 266.03 145.13 266.092 144.96C266.154 144.79 266.25 144.634 266.374 144.502C266.498 144.37 266.648 144.266 266.815 144.194C266.981 144.122 267.16 144.086 267.341 144.086H267.527C267.708 144.086 267.887 144.122 268.054 144.194C268.22 144.266 268.37 144.37 268.494 144.502C268.618 144.634 268.714 144.79 268.776 144.96C268.838 145.13 268.864 145.311 268.853 145.492C268.803 146.686 268.611 147.87 268.283 149.02C269.242 148.37 270.269 147.827 271.347 147.402C271.51 147.326 271.687 147.286 271.867 147.285C272.047 147.284 272.225 147.322 272.389 147.396C272.553 147.471 272.698 147.58 272.816 147.716C272.934 147.852 273.021 148.011 273.071 148.184V148.304C273.149 148.473 273.187 148.659 273.182 148.845C273.178 149.032 273.131 149.216 273.046 149.382C272.96 149.548 272.838 149.692 272.688 149.804C272.539 149.916 272.366 149.992 272.182 150.028C271.065 150.325 269.917 150.495 268.76 150.532C269.705 151.229 270.564 152.035 271.32 152.932C271.429 153.07 271.509 153.227 271.557 153.396C271.604 153.564 271.618 153.74 271.597 153.914C271.576 154.088 271.521 154.256 271.435 154.409C271.349 154.561 271.233 154.695 271.095 154.802L270.949 154.922C270.808 155.042 270.641 155.13 270.461 155.177C270.281 155.224 270.093 155.23 269.911 155.194C269.728 155.159 269.557 155.082 269.408 154.971C269.259 154.859 269.138 154.715 269.052 154.55C268.41 153.573 267.876 152.527 267.461 151.434C267.027 152.524 266.485 153.568 265.843 154.55C265.757 154.715 265.636 154.859 265.487 154.971C265.338 155.082 265.166 155.159 264.984 155.194C264.802 155.23 264.614 155.224 264.434 155.177C264.254 155.13 264.087 155.042 263.946 154.922L263.8 154.802C263.653 154.701 263.53 154.57 263.438 154.417C263.346 154.264 263.288 154.093 263.268 153.916C263.248 153.738 263.266 153.559 263.321 153.389C263.376 153.22 263.467 153.064 263.588 152.932C264.345 152.028 265.199 151.21 266.134 150.492C264.961 150.488 263.793 150.332 262.66 150.028V150.028Z" fill="#263238"/>
<path d="M276.07 150.028C275.893 149.984 275.728 149.904 275.583 149.793C275.439 149.682 275.318 149.543 275.23 149.384C275.142 149.225 275.087 149.049 275.07 148.868C275.052 148.686 275.072 148.503 275.129 148.33L275.195 148.158C275.258 147.993 275.353 147.842 275.475 147.715C275.597 147.587 275.743 147.485 275.905 147.415C276.067 147.344 276.241 147.307 276.417 147.305C276.594 147.302 276.769 147.335 276.932 147.402C278.008 147.822 279.032 148.365 279.983 149.02C279.655 147.87 279.463 146.686 279.413 145.492C279.402 145.311 279.428 145.13 279.49 144.96C279.551 144.79 279.647 144.634 279.772 144.502C279.896 144.37 280.046 144.266 280.212 144.194C280.379 144.122 280.558 144.086 280.739 144.086H280.924C281.106 144.086 281.285 144.122 281.451 144.194C281.617 144.266 281.767 144.37 281.892 144.502C282.016 144.634 282.112 144.79 282.174 144.96C282.235 145.13 282.262 145.311 282.251 145.492C282.202 146.687 282.006 147.872 281.667 149.02C282.626 148.37 283.653 147.827 284.731 147.402C284.894 147.326 285.072 147.286 285.251 147.285C285.431 147.284 285.609 147.322 285.773 147.396C285.937 147.471 286.083 147.58 286.2 147.716C286.318 147.852 286.405 148.011 286.455 148.184V148.304C286.533 148.474 286.57 148.661 286.565 148.848C286.56 149.036 286.512 149.22 286.425 149.386C286.338 149.552 286.215 149.696 286.063 149.808C285.912 149.919 285.738 149.994 285.553 150.028C284.436 150.325 283.287 150.495 282.131 150.532C283.076 151.229 283.935 152.035 284.691 152.932C284.8 153.07 284.88 153.227 284.928 153.396C284.975 153.564 284.989 153.74 284.968 153.914C284.947 154.088 284.892 154.256 284.806 154.409C284.719 154.561 284.604 154.695 284.466 154.802L284.333 154.922C284.191 155.042 284.023 155.13 283.842 155.177C283.661 155.224 283.472 155.23 283.289 155.194C283.106 155.159 282.933 155.082 282.783 154.971C282.633 154.859 282.51 154.716 282.423 154.55C281.78 153.575 281.251 152.529 280.845 151.434C280.407 152.525 279.86 153.569 279.214 154.55C279.128 154.715 279.007 154.859 278.858 154.971C278.709 155.082 278.537 155.159 278.355 155.194C278.173 155.23 277.985 155.224 277.805 155.177C277.625 155.13 277.458 155.042 277.317 154.922L277.171 154.802C277.024 154.701 276.9 154.57 276.809 154.417C276.717 154.264 276.659 154.093 276.639 153.916C276.619 153.738 276.637 153.559 276.692 153.389C276.747 153.22 276.838 153.064 276.959 152.932C277.716 152.028 278.57 151.21 279.505 150.492C278.345 150.487 277.19 150.331 276.07 150.028Z" fill="#263238"/>
<path d="M289.518 150.028C289.341 149.984 289.175 149.904 289.03 149.793C288.886 149.682 288.766 149.543 288.677 149.384C288.589 149.225 288.534 149.049 288.517 148.868C288.499 148.686 288.519 148.503 288.576 148.33V148.158C288.639 147.993 288.734 147.842 288.856 147.715C288.978 147.587 289.124 147.485 289.286 147.415C289.448 147.344 289.622 147.307 289.798 147.305C289.975 147.302 290.15 147.335 290.313 147.402C291.389 147.822 292.413 148.365 293.364 149.02C293.035 147.87 292.844 146.686 292.793 145.492C292.783 145.311 292.809 145.13 292.871 144.96C292.932 144.79 293.028 144.634 293.153 144.502C293.277 144.37 293.427 144.266 293.593 144.194C293.759 144.122 293.939 144.086 294.12 144.086H294.305C294.486 144.086 294.666 144.122 294.832 144.194C294.998 144.266 295.148 144.37 295.273 144.502C295.397 144.634 295.493 144.79 295.555 144.96C295.616 145.13 295.643 145.311 295.632 145.492C295.583 146.687 295.387 147.872 295.048 149.02C296.007 148.37 297.034 147.827 298.112 147.402C298.275 147.326 298.452 147.286 298.632 147.285C298.812 147.284 298.99 147.322 299.154 147.396C299.318 147.471 299.464 147.58 299.581 147.716C299.699 147.852 299.786 148.011 299.836 148.184V148.304C299.914 148.474 299.951 148.661 299.946 148.848C299.941 149.036 299.893 149.22 299.806 149.386C299.719 149.552 299.596 149.696 299.444 149.808C299.293 149.919 299.119 149.994 298.934 150.028C297.816 150.325 296.668 150.495 295.512 150.532C296.457 151.229 297.316 152.035 298.072 152.932C298.181 153.07 298.261 153.227 298.309 153.396C298.356 153.564 298.37 153.74 298.349 153.914C298.328 154.088 298.273 154.256 298.187 154.409C298.1 154.561 297.985 154.695 297.847 154.802L297.701 154.922C297.559 155.042 297.393 155.13 297.213 155.177C297.033 155.224 296.845 155.23 296.663 155.194C296.48 155.159 296.308 155.082 296.16 154.971C296.011 154.859 295.889 154.715 295.804 154.55C295.161 153.575 294.632 152.529 294.226 151.434C293.788 152.525 293.241 153.569 292.595 154.55C292.509 154.715 292.388 154.859 292.239 154.971C292.09 155.082 291.918 155.159 291.736 155.194C291.554 155.23 291.365 155.224 291.186 155.177C291.006 155.13 290.839 155.042 290.698 154.922L290.552 154.802C290.405 154.701 290.281 154.57 290.19 154.417C290.098 154.264 290.04 154.093 290.02 153.916C290 153.738 290.018 153.559 290.073 153.389C290.128 153.22 290.219 153.064 290.34 152.932C291.097 152.028 291.951 151.21 292.886 150.492C291.748 150.481 290.616 150.325 289.518 150.028Z" fill="#263238"/>
<path d="M169.868 281.132C160.763 280.299 151.771 279.959 151.771 279.959C148.467 280.06 141.429 280.35 134.165 281.132C136.284 288.371 143.472 293.706 152.01 293.706C160.561 293.718 167.75 288.358 169.868 281.132Z" fill="#50BFD7"/>
<path d="M159.479 294.289C159.479 294.604 159.756 294.97 160.084 294.932C163.805 294.541 166.655 291.666 170.325 292.271C166.642 294.1 163.451 297.278 163.905 301.957C163.956 302.537 164.511 302.764 164.94 302.411C167.575 300.166 170.602 298.161 174.133 298.905C175.647 299.22 177.425 299.813 178.989 299.611C181.322 299.321 183.289 298.261 184.45 296.004C186.493 292.094 185.736 287.403 181.158 286.432C181.044 286.407 180.956 286.419 180.855 286.457C179.165 285.789 177.627 284.944 176.265 283.468C174.953 282.03 173.73 280.441 172.305 279.117C170.4 277.339 168.332 275.939 165.81 277.137C165.431 277.314 165.457 277.856 165.696 278.146C166.806 279.521 168.105 280.832 169.467 282.093C168.105 281.778 166.73 281.614 165.318 281.728C162.796 281.942 159.819 283.619 159.882 286.621C159.895 286.999 160.16 287.226 160.488 287.264C162.808 287.504 165.141 287.466 167.449 287.706C163.855 288.765 159.441 289.976 159.479 294.289Z" fill="#C4C4C4"/>
<path fill-rule="evenodd" clip-rule="evenodd" d="M169.473 276.539C170.635 276.998 171.685 277.848 172.647 278.746C173.611 279.641 174.501 280.675 175.365 281.677C175.793 282.174 176.214 282.663 176.635 283.125C177.888 284.481 179.301 285.283 180.887 285.925C181.002 285.906 181.126 285.906 181.263 285.936C183.734 286.461 185.214 288.013 185.771 289.976C186.319 291.909 185.962 294.192 184.896 296.234C183.643 298.67 181.51 299.803 179.051 300.109C178.189 300.22 177.291 300.11 176.444 299.944C176.018 299.861 175.596 299.761 175.192 299.665C175.149 299.654 175.106 299.644 175.064 299.634C174.703 299.547 174.359 299.465 174.029 299.396L174.028 299.396C170.754 298.706 167.899 300.549 165.265 302.792L165.262 302.795L165.259 302.798C164.916 303.08 164.472 303.163 164.08 302.995C163.689 302.827 163.442 302.449 163.402 302.001C162.991 297.758 165.407 294.712 168.455 292.748C167.44 292.886 166.453 293.253 165.418 293.69C165.188 293.787 164.956 293.888 164.72 293.991C163.32 294.599 161.81 295.255 160.138 295.431C159.761 295.473 159.459 295.28 159.277 295.073C159.097 294.866 158.974 294.582 158.973 294.289C158.953 291.913 160.179 290.388 161.832 289.348C162.703 288.799 163.708 288.376 164.726 288.021C164.468 288.009 164.21 287.998 163.95 287.986L163.939 287.986C162.783 287.936 161.609 287.885 160.434 287.764L160.431 287.763L160.428 287.763C159.889 287.701 159.399 287.299 159.377 286.635L159.377 286.632L159.377 286.629C159.341 284.937 160.17 283.627 161.319 282.729C162.458 281.84 163.929 281.337 165.274 281.223L165.275 281.223L165.276 281.222C166.167 281.151 167.04 281.185 167.899 281.295C166.973 280.383 166.093 279.44 165.304 278.462C165.101 278.215 164.998 277.882 165.016 277.568C165.035 277.242 165.194 276.866 165.593 276.678C166.991 276.015 168.285 276.07 169.473 276.539ZM166.03 277.588C166.028 277.595 166.025 277.607 166.024 277.625C166.022 277.656 166.026 277.695 166.039 277.735C166.052 277.775 166.069 277.805 166.084 277.822L166.086 277.825L166.087 277.827C167.176 279.175 168.456 280.468 169.808 281.721L171.201 283.011L169.352 282.583C168.025 282.275 166.705 282.12 165.358 282.228C164.181 282.328 162.903 282.772 161.94 283.524C160.987 284.269 160.359 285.297 160.385 286.604C160.388 286.671 160.409 286.698 160.422 286.711C160.44 286.729 160.477 286.752 160.542 286.76C161.683 286.878 162.831 286.928 163.994 286.978L163.998 286.979C165.156 287.029 166.33 287.08 167.5 287.201L170.04 287.465L167.59 288.187C167.528 288.206 167.465 288.224 167.402 288.243C165.639 288.762 163.795 289.305 162.369 290.202C160.926 291.11 159.965 292.346 159.982 294.282L159.982 294.284V294.286C159.982 294.293 159.984 294.311 159.994 294.338C160.005 294.365 160.02 294.389 160.037 294.408C160.043 294.416 160.049 294.422 160.054 294.425C161.551 294.263 162.895 293.681 164.294 293.075C164.536 292.97 164.779 292.865 165.025 292.761C166.67 292.065 168.417 291.443 170.405 291.771L171.948 292.025L170.548 292.72C166.944 294.51 163.982 297.534 164.406 301.905L164.406 301.908L164.407 301.911C164.412 301.978 164.431 302.017 164.444 302.037C164.458 302.057 164.47 302.064 164.478 302.068C164.486 302.071 164.498 302.074 164.518 302.071C164.537 302.067 164.571 302.056 164.615 302.021C167.252 299.776 170.449 297.611 174.235 298.408C174.581 298.481 174.941 298.567 175.299 298.653C175.341 298.663 175.384 298.673 175.427 298.683C175.831 298.78 176.234 298.875 176.638 298.954C177.448 299.113 178.221 299.199 178.923 299.108L178.924 299.108L178.925 299.108C181.131 298.834 182.932 297.848 184 295.771L184 295.769L184.001 295.768C184.977 293.9 185.263 291.883 184.8 290.251C184.345 288.649 183.158 287.37 181.052 286.923L181.05 286.922L181.047 286.922C181.047 286.922 181.047 286.922 181.046 286.922C181.043 286.923 181.038 286.924 181.031 286.927L180.849 286.995L180.668 286.924C178.937 286.239 177.324 285.358 175.893 283.808L175.892 283.807L175.891 283.806C175.427 283.298 174.985 282.784 174.547 282.275C173.708 281.3 172.885 280.344 171.96 279.484L171.959 279.483C171.016 278.603 170.081 277.864 169.102 277.478C168.151 277.102 167.151 277.057 166.03 277.588Z" fill="#2C2C2C"/>
<path fill-rule="evenodd" clip-rule="evenodd" d="M303.362 300.21C303.362 299.957 303.567 299.753 303.819 299.753H318.867C319.119 299.753 319.324 299.957 319.324 300.21C319.324 300.462 319.119 300.666 318.867 300.666H303.819C303.567 300.666 303.362 300.462 303.362 300.21Z" fill="#2C2C2C"/>
<path fill-rule="evenodd" clip-rule="evenodd" d="M19.5986 300.21C19.5986 299.957 19.8031 299.753 20.0553 299.753H298.804C299.056 299.753 299.26 299.957 299.26 300.21C299.26 300.462 299.056 300.666 298.804 300.666H20.0553C19.8031 300.666 19.5986 300.462 19.5986 300.21Z" fill="#2C2C2C"/>
<path fill-rule="evenodd" clip-rule="evenodd" d="M0 300.21C0 299.957 0.204459 299.753 0.456671 299.753H10.7395C10.9918 299.753 11.1962 299.957 11.1962 300.21C11.1962 300.462 10.9918 300.666 10.7395 300.666H0.456671C0.204459 300.666 0 300.462 0 300.21Z" fill="#2C2C2C"/>
<path d="M97.1712 250.881H206.264C207.569 250.881 208.821 251.399 209.744 252.322C210.667 253.245 211.185 254.497 211.185 255.802V317.09H92.25V255.802C92.25 254.497 92.7685 253.245 93.6914 252.322C94.6143 251.399 95.866 250.881 97.1712 250.881Z" fill="white"/>
<path fill-rule="evenodd" clip-rule="evenodd" d="M97.1705 251.506C96.0317 251.506 94.9395 251.959 94.1342 252.764C93.329 253.569 92.8766 254.662 92.8766 255.8V316.462H210.557V255.8C210.557 254.662 210.105 253.569 209.3 252.764C208.494 251.959 207.402 251.506 206.263 251.506H97.1705ZM93.2472 251.877C94.2877 250.837 95.699 250.252 97.1705 250.252H206.263C207.735 250.252 209.146 250.837 210.187 251.877C211.227 252.918 211.812 254.329 211.812 255.8V317.089C211.812 317.435 211.531 317.716 211.184 317.716H92.2493C91.9029 317.716 91.6221 317.435 91.6221 317.089V255.8C91.6221 254.329 92.2066 252.918 93.2472 251.877Z" fill="#2C2C2C"/>
<path d="M211.185 272.906C196.244 276.696 180.91 286.341 152.338 299.924C124.779 313.034 102.22 312.807 92.25 311.793V317.089H211.185V272.906Z" fill="#2C2C2C"/>
<path fill-rule="evenodd" clip-rule="evenodd" d="M211.57 272.412C211.722 272.531 211.812 272.714 211.812 272.908V317.09C211.812 317.436 211.531 317.717 211.184 317.717H92.2493C91.9029 317.717 91.6221 317.436 91.6221 317.09V311.795C91.6221 311.617 91.6972 311.448 91.8288 311.329C91.9604 311.21 92.1363 311.153 92.3128 311.171C102.198 312.176 124.636 312.408 152.067 299.358L152.068 299.358C161.478 294.885 169.441 290.844 176.437 287.294C180.06 285.456 183.423 283.749 186.595 282.181C195.872 277.596 203.491 274.212 211.03 272.3C211.218 272.252 211.417 272.294 211.57 272.412ZM152.606 300.491C125.538 313.368 103.255 313.444 92.8766 312.486V316.463H210.557V273.719C203.406 275.629 196.092 278.887 187.15 283.306C184 284.863 180.647 286.565 177.029 288.4C170.024 291.955 162.029 296.012 152.606 300.491Z" fill="#2C2C2C"/>
<path fill-rule="evenodd" clip-rule="evenodd" d="M91.6221 313.418C91.6221 313.072 91.9029 312.791 92.2493 312.791H211.184C211.531 312.791 211.812 313.072 211.812 313.418V317.099C211.812 317.446 211.531 317.727 211.184 317.727H92.2493C91.9029 317.727 91.6221 317.446 91.6221 317.099V313.418ZM92.8766 314.046V316.472H210.557V314.046H92.8766Z" fill="#2C2C2C"/>
<path d="M158.055 183.85C158.055 186.514 155.287 188.674 151.874 188.674C148.461 188.674 145.693 186.514 145.693 183.85C145.693 181.186 148.461 179.026 151.874 179.026C155.287 179.026 158.055 181.186 158.055 183.85Z" fill="white"/>
<path fill-rule="evenodd" clip-rule="evenodd" d="M151.874 187.468C154.917 187.468 156.849 185.587 156.849 183.85C156.849 182.113 154.917 180.232 151.874 180.232C148.831 180.232 146.899 182.113 146.899 183.85C146.899 185.587 148.831 187.468 151.874 187.468ZM151.874 188.674C155.287 188.674 158.055 186.514 158.055 183.85C158.055 181.186 155.287 179.026 151.874 179.026C148.461 179.026 145.693 181.186 145.693 183.85C145.693 186.514 148.461 188.674 151.874 188.674Z" fill="#454545"/>
<path d="M211.918 314.156H90.2168V317.923H211.918V314.156Z" fill="white"/>
<path fill-rule="evenodd" clip-rule="evenodd" d="M89.5752 314.157C89.5752 313.803 89.8626 313.516 90.217 313.516H211.918C212.272 313.516 212.56 313.803 212.56 314.157V317.924C212.56 318.279 212.272 318.566 211.918 318.566H90.217C89.8626 318.566 89.5752 318.279 89.5752 317.924V314.157ZM90.8589 314.799V317.282H211.276V314.799H90.8589Z" fill="#2C2C2C"/>
<path opacity="0.15" d="M135.237 183.84C133.963 183.056 132.784 182.238 131.656 181.421C132.147 180.56 134.333 176.849 134.574 174.775C134.816 172.7 134.574 170.195 133.016 168.749C132.668 168.393 132.248 168.115 131.785 167.932C131.322 167.749 130.825 167.666 130.328 167.687C129.83 167.708 129.343 167.833 128.897 168.055C128.451 168.276 128.057 168.589 127.739 168.973C125.897 171.34 127.507 176.496 129.013 178.709C129.091 178.829 130.064 179.966 130.735 180.775C130.227 180.396 129.702 180.017 129.229 179.647C127.438 178.253 125.888 176.867 124.528 175.627C123.753 174.921 123.073 174.258 122.445 173.638C122.505 172.588 122.695 168.353 121.971 166.433C121.248 164.513 119.837 162.387 117.805 161.793C117.335 161.636 116.837 161.58 116.344 161.628C115.851 161.675 115.374 161.825 114.942 162.069C114.511 162.312 114.135 162.643 113.839 163.04C113.544 163.438 113.334 163.892 113.225 164.376C112.683 167.32 116.488 171.159 118.838 172.433C119.045 172.545 122.419 173.888 122.428 173.836V173.776C123.03 174.387 123.676 175.033 124.39 175.73C125.733 176.996 127.257 178.416 129.022 179.854C130.904 181.429 132.879 182.889 134.936 184.227L136.227 185.028H137.286C136.615 184.657 135.909 184.253 135.237 183.84Z" fill="black"/>
<path opacity="0.15" d="M131.088 181.498C131.088 181.455 127.644 180.275 127.446 180.232C124.864 179.664 119.449 180.103 117.977 182.694C117.566 183.408 117.437 184.249 117.615 185.053H128.101C129.167 183.929 130.164 182.741 131.088 181.498V181.498Z" fill="black"/>
<path opacity="0.15" d="M159.116 184.235C159.116 182.238 158.583 179.69 156.904 178.399C156.519 178.084 156.071 177.854 155.591 177.724C155.111 177.593 154.609 177.564 154.118 177.64C153.626 177.715 153.156 177.893 152.737 178.162C152.318 178.43 151.961 178.784 151.687 179.199C150.775 180.689 151.128 182.987 151.928 185.053H159.039C159.084 184.783 159.11 184.509 159.116 184.235V184.235Z" fill="black"/>
<path opacity="0.15" d="M152.145 147.13C154.478 147.328 159.428 145.529 159.428 145.529C159.428 145.529 157.25 142.628 157.095 142.464C155.227 140.545 150.492 137.936 147.806 139.271C147.36 139.503 146.969 139.828 146.658 140.224C146.347 140.62 146.124 141.077 146.004 141.566C145.883 142.054 145.868 142.563 145.959 143.058C146.05 143.552 146.246 144.022 146.532 144.436C147.66 146.183 150.148 146.958 152.145 147.13Z" fill="black"/>
<path opacity="0.15" d="M172.108 181.573C171.723 181.257 171.276 181.026 170.796 180.895C170.316 180.763 169.813 180.734 169.321 180.81C168.829 180.885 168.358 181.063 167.94 181.333C167.521 181.602 167.164 181.957 166.891 182.373C166.448 183.192 166.268 184.126 166.375 185.051H174.079C173.847 183.697 173.15 182.467 172.108 181.573V181.573Z" fill="black"/>
<path opacity="0.15" d="M145.267 180.635C145.267 178.638 144.733 176.09 143.054 174.807C142.67 174.49 142.223 174.258 141.742 174.126C141.262 173.994 140.759 173.964 140.267 174.04C139.774 174.116 139.303 174.294 138.884 174.564C138.466 174.835 138.109 175.19 137.837 175.608C136.288 178.122 138.371 182.968 140.101 185.077H144.139C144.739 183.663 145.119 182.165 145.267 180.635Z" fill="black"/>
<path d="M164.662 112.345V104.907H166.504C166.876 104.888 167.245 104.971 167.572 105.148C167.841 105.311 168.047 105.559 168.157 105.854C168.287 106.209 168.348 106.586 168.338 106.964C168.346 107.314 168.276 107.662 168.131 107.98C168.002 108.26 167.788 108.492 167.52 108.643C167.213 108.816 166.865 108.899 166.513 108.884H165.652V112.328L164.662 112.345ZM165.695 108.135H166.169C166.41 108.142 166.652 108.111 166.883 108.041C167.046 107.975 167.175 107.848 167.245 107.688C167.33 107.459 167.368 107.216 167.357 106.973C167.365 106.698 167.339 106.424 167.279 106.155C167.258 106.069 167.218 105.988 167.161 105.919C167.105 105.851 167.033 105.796 166.952 105.759C166.706 105.674 166.446 105.636 166.186 105.647H165.695V108.135Z" fill="#CCCCCC"/>
<path d="M168.337 112.344L169.912 104.906H170.911L172.503 112.344H171.548L171.204 110.467H169.688L169.336 112.344H168.337ZM169.8 109.762H171.04L170.42 106.413L169.8 109.762Z" fill="#CCCCCC"/>
<path d="M174.992 112.421C174.617 112.434 174.246 112.338 173.924 112.145C173.639 111.962 173.415 111.698 173.279 111.388C173.121 111.029 173.033 110.643 173.021 110.251L173.933 110.01C173.949 110.267 173.993 110.521 174.062 110.768C174.11 110.993 174.217 111.201 174.372 111.371C174.544 111.517 174.762 111.598 174.988 111.598C175.213 111.598 175.432 111.517 175.603 111.371C175.752 111.19 175.826 110.959 175.81 110.725C175.825 110.437 175.743 110.152 175.577 109.916C175.406 109.69 175.213 109.483 175 109.296L173.752 108.194C173.525 107.998 173.34 107.758 173.21 107.488C173.088 107.191 173.029 106.871 173.038 106.55C173.026 106.318 173.061 106.087 173.141 105.87C173.221 105.652 173.344 105.453 173.503 105.284C173.674 105.128 173.875 105.007 174.094 104.93C174.313 104.853 174.545 104.822 174.777 104.837C175.039 104.831 175.301 104.869 175.551 104.949C175.765 105.016 175.958 105.138 176.111 105.302C176.274 105.473 176.398 105.679 176.473 105.904C176.567 106.183 176.627 106.472 176.653 106.765L175.792 107.006C175.778 106.78 175.743 106.555 175.689 106.335C175.639 106.144 175.538 105.972 175.396 105.835C175.229 105.7 175.017 105.633 174.802 105.646C174.685 105.624 174.564 105.632 174.449 105.668C174.335 105.703 174.231 105.766 174.147 105.851C174.062 105.935 173.999 106.039 173.963 106.154C173.928 106.268 173.92 106.389 173.942 106.507C173.936 106.7 173.977 106.892 174.062 107.066C174.156 107.238 174.282 107.389 174.432 107.514L175.689 108.616C175.975 108.867 176.224 109.157 176.43 109.477C176.652 109.839 176.766 110.257 176.757 110.682C176.766 111.015 176.686 111.345 176.524 111.637C176.376 111.896 176.158 112.108 175.896 112.249C175.612 112.376 175.302 112.435 174.992 112.421V112.421Z" fill="#CCCCCC"/>
<path d="M179.346 112.422C178.971 112.435 178.601 112.339 178.279 112.146C177.994 111.963 177.769 111.699 177.633 111.389C177.479 111.029 177.392 110.644 177.375 110.253L178.288 110.011C178.308 110.267 178.351 110.521 178.417 110.769C178.468 110.995 178.578 111.202 178.735 111.372C178.905 111.519 179.122 111.601 179.346 111.601C179.571 111.601 179.788 111.519 179.958 111.372C180.107 111.191 180.181 110.96 180.164 110.726C180.179 110.438 180.097 110.153 179.932 109.917C179.761 109.691 179.568 109.484 179.355 109.297L178.107 108.195C177.879 107.999 177.695 107.759 177.564 107.489C177.442 107.192 177.384 106.872 177.392 106.551C177.381 106.319 177.416 106.088 177.496 105.871C177.576 105.653 177.698 105.454 177.857 105.285C178.209 104.973 178.67 104.812 179.14 104.838C179.402 104.832 179.664 104.87 179.915 104.95C180.127 105.019 180.32 105.14 180.474 105.303C180.632 105.477 180.752 105.682 180.827 105.905C180.925 106.183 180.986 106.472 181.008 106.766L180.147 107.007C180.129 106.78 180.092 106.556 180.035 106.336C179.985 106.145 179.884 105.973 179.742 105.836C179.577 105.703 179.369 105.636 179.157 105.647C178.937 105.636 178.721 105.71 178.554 105.853C178.478 105.935 178.419 106.031 178.382 106.136C178.345 106.242 178.33 106.353 178.339 106.465C178.331 106.658 178.369 106.85 178.451 107.024C178.545 107.195 178.671 107.347 178.821 107.472L180.078 108.574C180.366 108.825 180.619 109.114 180.827 109.435C181.043 109.799 181.153 110.216 181.146 110.64C181.155 110.973 181.075 111.303 180.913 111.595C180.765 111.854 180.547 112.066 180.285 112.207C179.995 112.355 179.672 112.429 179.346 112.422Z" fill="#CCCCCC"/>
<path d="M119.785 232.544C119.785 232.544 108.571 286.888 103.463 289.88C99.3523 292.292 104.827 295.107 92.8585 291.077L92.8583 282.635L90.4463 278.414L93.7319 267.991C93.7319 267.991 105.067 212.771 113.208 212.097C121.362 211.41 119.785 232.544 119.785 232.544Z" fill="#2C2C2C"/>
<path d="M196.33 228.164C196.33 228.164 210.119 281.912 206.843 286.844C204.209 290.816 210.364 290.941 197.842 292.576L194.134 284.992L190.114 282.259L188.489 271.452C188.489 271.452 174.424 216.863 181.442 212.683C188.466 208.484 196.33 228.164 196.33 228.164Z" fill="#2C2C2C"/>
<path d="M201.949 228.621C201.949 237.22 196.315 242.544 187.716 242.544C179.117 242.544 172.148 235.576 172.148 226.977C172.148 218.378 178.645 208.889 186.84 211.463C195.87 214.28 201.949 220.022 201.949 228.621Z" fill="white"/>
<path fill-rule="evenodd" clip-rule="evenodd" d="M176.831 215.381C174.269 218.404 172.687 222.801 172.687 226.979C172.687 235.28 179.413 242.007 187.715 242.007C191.903 242.007 195.317 240.712 197.681 238.422C200.043 236.134 201.409 232.801 201.409 228.623C201.409 220.352 195.586 214.759 186.678 211.98L186.677 211.98C182.847 210.777 179.385 212.367 176.831 215.381ZM187 210.951C182.635 209.58 178.751 211.447 176.009 214.684C173.274 217.911 171.608 222.558 171.608 226.979C171.608 235.876 178.818 243.085 187.715 243.085C192.126 243.085 195.828 241.718 198.431 239.196C201.036 236.673 202.487 233.044 202.487 228.623C202.487 219.696 196.152 213.806 187 210.951Z" fill="#2C2C2C"/>
<path d="M194.951 226.114C194.951 232.476 190.786 236.412 184.424 236.412C178.063 236.412 172.914 231.263 172.914 224.901C172.914 218.54 177.712 211.517 183.791 213.418C190.449 215.52 194.951 219.766 194.951 226.114Z" fill="#2C2C2C"/>
<path d="M97.4922 228.621C97.4922 237.22 103.126 242.544 111.725 242.544C120.324 242.544 127.279 235.562 127.279 226.976C127.279 218.391 120.782 208.889 112.588 211.463C103.571 214.28 97.4922 220.022 97.4922 228.621Z" fill="white"/>
<path fill-rule="evenodd" clip-rule="evenodd" d="M123.418 214.688C126.152 217.917 127.818 222.564 127.818 226.978C127.818 235.861 120.623 243.085 111.725 243.085C107.314 243.085 103.612 241.717 101.009 239.196C98.4042 236.673 96.9531 233.043 96.9531 228.623C96.9531 219.696 103.288 213.806 112.427 210.951C116.791 209.58 120.675 211.45 123.418 214.688ZM122.595 215.385C120.041 212.369 116.579 210.776 112.749 211.979L112.749 211.98C103.854 214.758 98.0314 220.352 98.0314 228.623C98.0314 232.801 99.3972 236.133 101.759 238.422C104.123 240.712 107.537 242.006 111.725 242.006C120.026 242.006 126.74 235.267 126.74 226.978C126.74 222.807 125.157 218.41 122.595 215.385Z" fill="#2C2C2C"/>
<path d="M104.5 226.114C104.5 232.476 108.665 236.412 115.026 236.412C121.388 236.412 126.537 231.263 126.537 224.901C126.537 218.54 121.739 211.517 115.673 213.418C108.988 215.52 104.5 219.766 104.5 226.114Z" fill="#2C2C2C"/>
<path d="M169.315 297.617C159.584 296.727 149.974 296.363 149.974 296.363C146.442 296.471 138.922 296.781 131.158 297.617C133.423 305.353 141.105 311.054 150.23 311.054C159.368 311.068 167.05 305.34 169.315 297.617Z" fill="#50BFD7"/>
<path d="M168.523 298.425C169.358 295.136 186.085 211.329 186.085 211.329C186.085 211.329 141.445 198.148 112.898 211.329L131.202 299.153L168.523 298.425Z" fill="white"/>
<path fill-rule="evenodd" clip-rule="evenodd" d="M186.236 210.813C186.236 210.813 186.236 210.813 186.084 211.33C186.612 211.436 186.612 211.436 186.612 211.437L186.612 211.44L186.424 212.378C186.302 212.992 186.122 213.894 185.892 215.043C185.433 217.341 184.776 220.628 183.986 224.582C182.405 232.491 180.288 243.069 178.145 253.751C173.862 275.099 169.467 296.897 169.044 298.559L168.943 298.957L130.764 299.702L112.282 211.021L112.671 210.841C127.083 204.186 145.503 204.201 160.256 205.851C167.643 206.678 174.135 207.917 178.78 208.95C181.103 209.467 182.964 209.932 184.247 210.268C184.888 210.436 185.384 210.572 185.721 210.666C185.889 210.713 186.017 210.75 186.104 210.775C186.147 210.787 186.18 210.797 186.202 210.803L186.227 210.811L186.234 210.813L186.236 210.813ZM186.084 211.33L186.612 211.436L186.709 210.953L186.236 210.813L186.084 211.33ZM185.458 211.712C185.449 211.71 185.44 211.707 185.43 211.705C185.099 211.612 184.608 211.478 183.973 211.311C182.703 210.978 180.854 210.516 178.546 210.003C173.929 208.976 167.476 207.744 160.136 206.923C145.567 205.293 127.591 205.293 113.513 211.642L131.637 298.606L168.092 297.895C168.856 294.47 173.015 273.837 177.088 253.539C179.231 242.858 181.347 232.279 182.929 224.371C183.719 220.417 184.376 217.13 184.835 214.832C185.064 213.683 185.244 212.781 185.367 212.167L185.458 211.712Z" fill="black"/>
<path d="M168.523 298.425C169.358 295.136 186.085 211.329 186.085 211.329C186.085 211.329 141.445 198.148 112.898 211.329L131.202 299.153L168.523 298.425Z" fill="white"/>
<path fill-rule="evenodd" clip-rule="evenodd" d="M186.236 210.813C186.236 210.813 186.236 210.813 186.084 211.33C186.612 211.436 186.612 211.436 186.612 211.437L186.612 211.44L186.424 212.378C186.302 212.992 186.122 213.894 185.892 215.043C185.433 217.341 184.776 220.628 183.986 224.582C182.405 232.491 180.288 243.069 178.145 253.751C173.862 275.099 169.467 296.897 169.044 298.559L168.943 298.957L130.764 299.702L112.282 211.021L112.671 210.841C127.083 204.186 145.503 204.201 160.256 205.851C167.643 206.678 174.135 207.917 178.78 208.95C181.103 209.467 182.964 209.932 184.247 210.268C184.888 210.436 185.384 210.572 185.721 210.666C185.889 210.713 186.017 210.75 186.104 210.775C186.147 210.787 186.18 210.797 186.202 210.803L186.227 210.811L186.234 210.813L186.236 210.813ZM186.084 211.33L186.612 211.436L186.709 210.953L186.236 210.813L186.084 211.33ZM185.458 211.712C185.449 211.71 185.44 211.707 185.43 211.705C185.099 211.612 184.608 211.478 183.973 211.311C182.703 210.978 180.854 210.516 178.546 210.003C173.929 208.976 167.476 207.744 160.136 206.923C145.567 205.293 127.591 205.293 113.513 211.642L131.637 298.606L168.092 297.895C168.856 294.47 173.015 273.837 177.088 253.539C179.231 242.858 181.347 232.279 182.929 224.371C183.719 220.417 184.376 217.13 184.835 214.832C185.064 213.683 185.244 212.781 185.367 212.167L185.458 211.712Z" fill="#2C2C2C"/>
<path d="M175.249 208.756C162.781 206.249 141.702 203.391 123.587 207.704C125.73 221.223 127.873 234.755 130.016 248.273C131.741 257.439 140.435 263.544 149.505 263.598C158.576 263.544 167.27 257.452 168.995 248.273C171.07 235.092 173.16 221.924 175.249 208.756Z" fill="#50BFD7"/>
<path fill-rule="evenodd" clip-rule="evenodd" d="M123.459 207.18C141.693 202.838 162.868 205.717 175.352 208.227L175.86 208.329L175.777 208.848C173.688 222.014 171.6 235.179 169.525 248.357L169.523 248.365L169.522 248.373C167.741 257.846 158.791 264.082 149.506 264.137L149.503 264.137L149.5 264.137C140.214 264.082 131.264 257.832 129.484 248.373L129.482 248.365L129.481 248.358C128.409 241.599 127.338 234.837 126.267 228.075L126.266 228.073C125.195 221.311 124.123 214.548 123.052 207.789L122.974 207.295L123.459 207.18ZM124.195 208.115C125.24 214.709 126.286 221.305 127.331 227.902L127.331 227.904C128.402 234.665 129.474 241.425 130.545 248.181C132.218 257.047 140.65 263.005 149.503 263.059C158.355 263.005 166.788 257.061 168.461 248.182C170.509 235.173 172.571 222.178 174.632 209.183C162.239 206.728 141.839 204.051 124.195 208.115Z" fill="#2C2C2C"/>
<path d="M147.955 213.542C152.214 213.542 158.832 212.248 158.832 208.002L157.74 193.823L156.783 181.424C156.783 177.164 153.333 173.728 149.087 173.728C146.958 173.728 145.044 174.59 143.642 175.978C142.254 177.367 141.378 179.294 141.378 181.424L140.434 193.837L139.531 205.738C138.318 212.922 147.955 213.542 147.955 213.542Z" fill="#2C2C2C"/>
<path d="M117.196 172.608C121.998 172.608 125.89 168.715 125.89 163.914C125.89 159.113 121.998 155.221 117.196 155.221C112.395 155.221 108.503 159.113 108.503 163.914C108.503 168.715 112.395 172.608 117.196 172.608Z" fill="white"/>
<path d="M149.463 171.044C149.477 171.125 149.301 171.273 148.911 171.273C148.533 171.287 147.954 171.112 147.442 170.626C147.185 170.384 146.956 170.087 146.781 169.71C146.754 169.656 146.741 169.602 146.714 169.548L146.687 169.467L146.66 169.4L146.619 169.278C146.606 169.225 146.592 169.157 146.565 169.103C146.512 168.901 146.471 168.685 146.458 168.456C146.377 167.567 146.552 166.664 146.768 165.801C147.603 162.351 148.587 159.642 148.951 159.722C149.315 159.817 148.938 162.674 148.102 166.125C147.886 166.974 147.725 167.742 147.725 168.389C147.725 168.551 147.738 168.712 147.752 168.861L147.765 168.915V168.942V168.955V168.968C147.765 168.968 147.752 168.928 147.765 168.942L147.792 169.076L147.805 169.144L147.819 169.184L147.846 169.265C147.927 169.521 148.048 169.764 148.183 169.952C148.452 170.343 148.776 170.586 149.032 170.721C149.261 170.896 149.45 170.95 149.463 171.044Z" fill="#2C2C2C"/>
<path d="M139.839 154.882C139.839 158.724 136.51 161.837 132.413 161.837C128.302 161.837 124.986 158.724 124.986 154.882C124.986 151.041 128.315 147.928 132.413 147.928C136.51 147.928 139.839 151.041 139.839 154.882Z" fill="white"/>
<path fill-rule="evenodd" clip-rule="evenodd" d="M132.413 148.466C128.579 148.466 125.526 151.371 125.526 154.882C125.526 158.393 128.566 161.297 132.413 161.297C136.247 161.297 139.3 158.392 139.3 154.882C139.3 151.371 136.247 148.466 132.413 148.466ZM124.447 154.882C124.447 150.71 128.052 147.388 132.413 147.388C136.774 147.388 140.378 150.71 140.378 154.882C140.378 159.054 136.774 162.375 132.413 162.375C128.038 162.375 124.447 159.053 124.447 154.882Z" fill="#2C2C2C"/>
<path d="M128.776 154.452C128.776 157.619 130.839 160.193 133.372 160.193C135.906 160.193 137.968 157.619 137.968 154.452C137.968 151.284 135.906 148.71 133.372 148.71C130.825 148.697 128.776 151.271 128.776 154.452Z" fill="#50BFD7"/>
<path d="M130.096 154.451C130.096 156.702 131.551 158.521 133.357 158.521C135.163 158.521 136.619 156.702 136.619 154.451C136.619 152.2 135.163 150.367 133.357 150.367C131.565 150.367 130.096 152.187 130.096 154.451Z" fill="#2C2C2C"/>
<path d="M129.894 150.584C129.894 151.204 130.648 151.689 131.578 151.689C132.508 151.689 133.263 151.191 133.263 150.584C133.263 149.964 132.508 149.479 131.578 149.479C130.648 149.465 129.894 149.964 129.894 150.584Z" fill="white"/>
<path d="M132.898 146.918C128.302 146.459 124.771 150.611 124.771 154.897C124.771 155.341 125.323 155.422 125.552 155.112C127.426 152.538 128.032 150.004 131.456 149.02C136.51 147.565 139.286 152.754 139.57 156.824C139.61 157.215 139.947 156.864 139.987 156.46C140.446 151.594 138.02 147.43 132.898 146.918Z" fill="#2C2C2C"/>
<path d="M141.97 144.248C141.97 144.248 131.943 134.247 121.16 146.122C121.147 146.122 130.474 140.151 141.97 144.248Z" fill="#2C2C2C"/>
<path d="M172.148 154.882C172.148 158.724 168.819 161.837 164.721 161.837C160.611 161.837 157.295 158.724 157.295 154.882C157.295 151.041 160.624 147.928 164.721 147.928C168.819 147.928 172.148 151.041 172.148 154.882Z" fill="white"/>
<path fill-rule="evenodd" clip-rule="evenodd" d="M164.72 148.466C160.887 148.466 157.833 151.371 157.833 154.882C157.833 158.393 160.874 161.297 164.72 161.297C168.554 161.297 171.608 158.392 171.608 154.882C171.608 151.371 168.554 148.466 164.72 148.466ZM156.755 154.882C156.755 150.71 160.359 147.388 164.72 147.388C169.081 147.388 172.686 150.71 172.686 154.882C172.686 159.054 169.081 162.375 164.72 162.375C160.345 162.375 156.755 159.053 156.755 154.882Z" fill="#2C2C2C"/>
<path d="M161.082 154.452C161.082 157.619 163.144 160.193 165.678 160.193C168.212 160.193 170.274 157.619 170.274 154.452C170.274 151.284 168.212 148.71 165.678 148.71C163.144 148.697 161.082 151.271 161.082 154.452Z" fill="#50BFD7"/>
<path d="M162.415 154.451C162.415 156.702 163.871 158.521 165.677 158.521C167.483 158.521 168.938 156.702 168.938 154.451C168.938 152.2 167.483 150.367 165.677 150.367C163.871 150.367 162.415 152.187 162.415 154.451Z" fill="#2C2C2C"/>
<path d="M162.2 150.584C162.2 151.204 162.955 151.689 163.885 151.689C164.815 151.689 165.57 151.191 165.57 150.584C165.57 149.964 164.815 149.479 163.885 149.479C162.968 149.465 162.2 149.964 162.2 150.584Z" fill="white"/>
<path d="M165.207 146.918C160.611 146.459 157.08 150.611 157.08 154.897C157.08 155.341 157.633 155.422 157.862 155.112C159.735 152.538 160.342 150.004 163.765 149.02C168.82 147.565 171.596 152.754 171.879 156.824C171.92 157.215 172.256 156.864 172.297 156.46C172.755 151.594 170.343 147.43 165.207 146.918Z" fill="#2C2C2C"/>
<path d="M174.276 143.156C174.276 143.156 164.248 133.156 153.466 145.03C153.466 145.03 162.793 139.059 174.276 143.156Z" fill="#2C2C2C"/>
<path d="M158.749 303.453C158.749 303.79 159.046 304.181 159.396 304.141C163.372 303.723 166.418 300.65 170.34 301.297C166.405 303.251 162.995 306.647 163.48 311.648C163.534 312.268 164.127 312.51 164.585 312.133C167.402 309.734 170.637 307.591 174.411 308.386C176.028 308.723 177.929 309.357 179.6 309.141C182.093 308.831 184.196 307.699 185.436 305.286C187.619 301.108 186.811 296.094 181.918 295.056C181.797 295.029 181.703 295.043 181.595 295.083C179.789 294.369 178.144 293.466 176.689 291.889C175.287 290.352 173.98 288.654 172.457 287.239C170.421 285.339 168.211 283.842 165.515 285.123C165.111 285.312 165.138 285.891 165.394 286.201C166.58 287.67 167.968 289.072 169.424 290.42C167.968 290.083 166.499 289.908 164.99 290.029C162.294 290.258 159.113 292.051 159.181 295.258C159.194 295.663 159.477 295.905 159.828 295.946C162.308 296.202 164.801 296.161 167.267 296.418C163.426 297.55 158.709 298.844 158.749 303.453Z" fill="white"/>
<path fill-rule="evenodd" clip-rule="evenodd" d="M169.432 284.485C170.674 284.975 171.796 285.883 172.824 286.843C173.854 287.8 174.805 288.904 175.728 289.975C176.186 290.506 176.636 291.029 177.086 291.522C178.425 292.972 179.935 293.829 181.631 294.515C181.753 294.495 181.886 294.495 182.032 294.527C184.672 295.088 186.254 296.747 186.849 298.844C187.436 300.911 187.054 303.351 185.915 305.532C184.576 308.136 182.296 309.347 179.668 309.674C178.747 309.793 177.787 309.675 176.882 309.498C176.426 309.409 175.975 309.302 175.543 309.199C175.498 309.188 175.452 309.177 175.407 309.166C175.021 309.074 174.654 308.986 174.301 308.912L174.3 308.912C170.801 308.175 167.75 310.144 164.935 312.542L164.932 312.545L164.928 312.547C164.561 312.849 164.087 312.937 163.669 312.758C163.251 312.579 162.986 312.175 162.943 311.696C162.504 307.161 165.086 303.907 168.343 301.807C167.259 301.955 166.204 302.347 165.099 302.814C164.853 302.918 164.604 303.026 164.352 303.136C162.856 303.785 161.242 304.486 159.455 304.675C159.052 304.72 158.729 304.513 158.536 304.291C158.343 304.071 158.211 303.767 158.21 303.454C158.189 300.915 159.499 299.285 161.266 298.173C162.197 297.587 163.27 297.135 164.359 296.755C164.083 296.742 163.807 296.73 163.529 296.718L163.518 296.718C162.283 296.664 161.027 296.61 159.772 296.48L159.769 296.48L159.766 296.479C159.189 296.413 158.665 295.983 158.642 295.274L158.642 295.271L158.642 295.268C158.604 293.459 159.489 292.059 160.717 291.1C161.934 290.149 163.507 289.612 164.944 289.49L164.945 289.49L164.947 289.49C165.899 289.413 166.832 289.45 167.75 289.567C166.76 288.592 165.82 287.584 164.976 286.54C164.759 286.276 164.65 285.92 164.669 285.584C164.689 285.236 164.859 284.833 165.285 284.633C166.78 283.924 168.162 283.984 169.432 284.485ZM165.752 285.605C165.75 285.613 165.746 285.625 165.745 285.645C165.743 285.679 165.748 285.72 165.762 285.762C165.775 285.805 165.794 285.837 165.81 285.856L165.812 285.858L165.814 285.861C166.977 287.302 168.345 288.684 169.79 290.022L171.279 291.401L169.302 290.943C167.885 290.615 166.473 290.449 165.034 290.564C163.776 290.671 162.411 291.145 161.381 291.95C160.362 292.745 159.692 293.844 159.72 295.241C159.722 295.312 159.745 295.341 159.759 295.355C159.778 295.374 159.817 295.4 159.887 295.408C161.107 295.534 162.333 295.587 163.576 295.641L163.58 295.641C164.818 295.695 166.073 295.75 167.323 295.879L170.038 296.161L167.42 296.933C167.353 296.953 167.286 296.972 167.218 296.992C165.334 297.547 163.363 298.127 161.84 299.086C160.298 300.056 159.27 301.377 159.288 303.447L159.288 303.449V303.451C159.288 303.458 159.29 303.478 159.302 303.507C159.313 303.535 159.329 303.561 159.347 303.581C159.354 303.59 159.361 303.596 159.366 303.6C160.965 303.427 162.402 302.804 163.897 302.157C164.155 302.045 164.416 301.932 164.679 301.821C166.437 301.077 168.304 300.412 170.428 300.763L172.076 301.035L170.58 301.778C166.729 303.69 163.563 306.922 164.017 311.594L164.017 311.597L164.017 311.599C164.024 311.672 164.044 311.713 164.058 311.734C164.072 311.755 164.085 311.763 164.094 311.767C164.102 311.771 164.115 311.774 164.136 311.77C164.157 311.767 164.193 311.755 164.24 311.717C167.058 309.318 170.474 307.004 174.522 307.857C174.891 307.934 175.275 308.026 175.658 308.118C175.703 308.128 175.749 308.139 175.795 308.15C176.226 308.254 176.658 308.355 177.089 308.44C177.955 308.609 178.781 308.701 179.531 308.604L179.532 308.604L179.534 308.604C181.891 308.311 183.815 307.258 184.957 305.038L184.957 305.036L184.958 305.035C186.001 303.038 186.307 300.883 185.812 299.139C185.326 297.426 184.058 296.059 181.806 295.582L181.804 295.581L181.801 295.581C181.801 295.581 181.801 295.581 181.8 295.58C181.797 295.582 181.791 295.583 181.784 295.586L181.59 295.659L181.397 295.583C179.547 294.851 177.822 293.91 176.293 292.253L176.292 292.252L176.29 292.25C175.795 291.707 175.323 291.158 174.855 290.615C173.958 289.572 173.079 288.551 172.09 287.632L172.089 287.631C171.081 286.69 170.081 285.9 169.036 285.488C168.019 285.086 166.951 285.038 165.752 285.605Z" fill="#2C2C2C"/>
<path fill-rule="evenodd" clip-rule="evenodd" d="M114.164 149.814V150.084H113.086V149.814H114.164Z" fill="#2C2C2C"/>
<path fill-rule="evenodd" clip-rule="evenodd" d="M119.824 152.781V153.051H118.746V152.781H119.824Z" fill="#2C2C2C"/>
<path d="M150.489 151.191C152.335 151.581 151.648 152.781 151.648 152.956C151.648 153.131 152.335 163.105 161.244 165.734C170.153 168.362 175.491 163.2 177.041 160.612C178.591 158.024 179.885 151.878 180.262 151.406C180.653 150.935 182.499 150.112 182.499 150.112L182.715 147.7L180.397 147.012C180.397 147.012 174.547 144.344 165.935 144.222C157.336 144.088 152.47 149.048 152.47 149.048C150.044 148.279 147.038 148.172 144.289 149.048C144.289 149.048 139.423 144.101 130.824 144.222C122.225 144.357 116.362 147.012 116.362 147.012L114.044 147.7L114.26 150.112C114.26 150.112 116.106 150.935 116.497 151.406C116.888 151.878 118.168 158.038 119.718 160.612C121.268 163.2 126.606 168.362 135.515 165.734C144.424 163.105 145.111 153.131 145.111 152.956C145.111 152.781 144.424 151.581 146.27 151.191C147.874 150.854 148.885 150.854 150.489 151.191ZM171.865 163.671C165.072 167.755 156.931 163.631 154.478 158.253C152.025 152.875 154.088 150.032 154.088 150.032C158.198 143.346 174.736 143.063 177.58 150.288C178.065 151.501 178.672 159.588 171.865 163.671ZM119.166 150.288C122.01 143.05 138.561 143.346 142.658 150.032C142.658 150.032 144.72 152.875 142.267 158.253C139.814 163.631 131.687 167.755 124.88 163.671C118.087 159.588 118.694 151.501 119.166 150.288Z" fill="#2C2C2C"/>
<path d="M154.653 223.567H144.302C141.552 223.567 139.315 225.804 139.315 228.553V238.905C139.315 241.654 141.552 243.892 144.302 243.892H154.653C157.403 243.892 159.64 241.654 159.64 238.905V228.553C159.64 225.804 157.416 223.567 154.653 223.567ZM136.565 219.159C134.988 219.159 133.708 220.44 133.708 222.017C133.708 223.593 134.988 224.874 136.565 224.874C138.142 224.874 139.423 223.593 139.423 222.017C139.423 220.44 138.142 219.159 136.565 219.159Z" fill="white"/>
<path d="M153.925 229.74C153.265 227.975 151.58 226.802 149.693 226.802H146.89L152.429 240.846H158.373L153.925 229.74ZM142.604 236.816L140.986 240.846H146.89L149.639 233.878H146.836C144.949 233.878 143.264 235.051 142.604 236.816ZM143.52 230.293C144.491 230.293 145.286 229.498 145.286 228.527C145.286 227.557 144.491 226.762 143.52 226.762C142.55 226.762 141.755 227.557 141.755 228.527C141.755 229.498 142.55 230.293 143.52 230.293Z" fill="#50BFD7"/>
<path d="M176.714 274.303C167.397 273.451 158.196 273.103 158.196 273.103C154.815 273.206 147.614 273.503 140.181 274.303C142.349 281.71 149.704 287.169 158.441 287.169C167.19 287.182 174.546 281.697 176.714 274.303Z" fill="#50BFD7"/>
<path d="M166.084 287.762C166.084 288.085 166.368 288.459 166.704 288.421C170.511 288.021 173.427 285.078 177.182 285.698C173.414 287.569 170.149 290.821 170.614 295.609C170.665 296.202 171.233 296.434 171.672 296.073C174.369 293.776 177.466 291.724 181.08 292.486C182.628 292.808 184.448 293.415 186.048 293.208C188.435 292.911 190.448 291.827 191.636 289.518C193.726 285.517 192.952 280.716 188.268 279.723C188.151 279.697 188.061 279.71 187.958 279.749C186.229 279.065 184.654 278.2 183.261 276.69C181.918 275.219 180.667 273.593 179.208 272.238C177.26 270.418 175.143 268.986 172.562 270.212C172.175 270.393 172.201 270.948 172.446 271.244C173.582 272.651 174.911 273.993 176.305 275.284C174.911 274.961 173.504 274.793 172.059 274.909C169.478 275.129 166.433 276.845 166.497 279.916C166.51 280.303 166.781 280.536 167.117 280.574C169.491 280.82 171.878 280.781 174.24 281.026C170.562 282.11 166.046 283.349 166.084 287.762Z" fill="#C4C4C4"/>
<path fill-rule="evenodd" clip-rule="evenodd" d="M176.31 269.601C177.499 270.071 178.574 270.94 179.558 271.859C180.544 272.776 181.455 273.833 182.338 274.858C182.777 275.367 183.208 275.868 183.638 276.34C184.92 277.728 186.366 278.548 187.99 279.205C188.107 279.185 188.234 279.186 188.374 279.217C190.902 279.754 192.416 281.342 192.987 283.35C193.548 285.329 193.183 287.665 192.092 289.754C190.81 292.246 188.627 293.406 186.111 293.719C185.229 293.833 184.31 293.72 183.443 293.551C183.007 293.465 182.575 293.363 182.162 293.264C182.118 293.254 182.074 293.243 182.031 293.233C181.662 293.144 181.31 293.06 180.972 292.99L180.971 292.989C177.621 292.283 174.699 294.169 172.004 296.465L172.001 296.468L171.998 296.47C171.647 296.759 171.192 296.844 170.792 296.672C170.392 296.501 170.138 296.114 170.097 295.655C169.677 291.313 172.149 288.197 175.268 286.187C174.23 286.328 173.219 286.703 172.161 287.151C171.926 287.25 171.687 287.354 171.446 287.459C170.014 288.081 168.469 288.752 166.758 288.932C166.372 288.976 166.063 288.778 165.877 288.566C165.693 288.355 165.566 288.064 165.566 287.764C165.545 285.332 166.8 283.772 168.491 282.707C169.383 282.146 170.411 281.713 171.453 281.35C171.189 281.338 170.924 281.326 170.658 281.315L170.648 281.314C169.465 281.263 168.263 281.211 167.061 281.087L167.058 281.086L167.055 281.086C166.503 281.022 166.002 280.611 165.979 279.932L165.979 279.929L165.979 279.926C165.942 278.194 166.79 276.853 167.966 275.935C169.131 275.025 170.637 274.511 172.013 274.394L172.014 274.393L172.015 274.393C172.927 274.32 173.821 274.355 174.7 274.467C173.752 273.534 172.851 272.569 172.044 271.569C171.836 271.316 171.731 270.975 171.75 270.654C171.768 270.321 171.931 269.935 172.34 269.744C173.771 269.064 175.094 269.122 176.31 269.601ZM172.787 270.674C172.784 270.681 172.781 270.694 172.78 270.712C172.778 270.744 172.783 270.784 172.796 270.825C172.809 270.866 172.827 270.896 172.842 270.914L172.844 270.916L172.846 270.919C173.96 272.298 175.269 273.622 176.653 274.903L178.078 276.223L176.186 275.785C174.828 275.471 173.477 275.312 172.099 275.422C170.895 275.525 169.588 275.979 168.602 276.749C167.626 277.511 166.984 278.562 167.011 279.9C167.014 279.968 167.035 279.996 167.049 280.01C167.067 280.028 167.104 280.052 167.171 280.06C168.339 280.18 169.513 280.232 170.703 280.283L170.707 280.283C171.892 280.335 173.094 280.387 174.291 280.511L176.89 280.781L174.384 281.52C174.319 281.539 174.255 281.558 174.191 281.577C172.387 282.108 170.5 282.663 169.041 283.581C167.564 284.511 166.581 285.775 166.598 287.757L166.598 287.759V287.761C166.598 287.768 166.6 287.787 166.611 287.814C166.622 287.841 166.637 287.866 166.654 287.886C166.661 287.894 166.667 287.899 166.672 287.903C168.203 287.738 169.579 287.142 171.011 286.522C171.258 286.414 171.507 286.307 171.759 286.2C173.442 285.488 175.23 284.851 177.264 285.187L178.842 285.447L177.41 286.159C173.723 287.99 170.691 291.084 171.125 295.557L171.125 295.56L171.126 295.562C171.132 295.632 171.151 295.672 171.164 295.692C171.178 295.712 171.191 295.72 171.199 295.723C171.207 295.727 171.22 295.73 171.24 295.726C171.259 295.723 171.294 295.712 171.339 295.675C174.037 293.378 177.308 291.163 181.183 291.979C181.537 292.053 181.905 292.141 182.271 292.229C182.315 292.239 182.358 292.25 182.402 292.26C182.815 292.359 183.229 292.457 183.641 292.537C184.471 292.7 185.262 292.788 185.98 292.695L185.981 292.695L185.982 292.695C188.239 292.414 190.082 291.406 191.174 289.28L191.175 289.279L191.176 289.277C192.175 287.366 192.467 285.302 191.993 283.632C191.528 281.992 190.313 280.684 188.158 280.226L188.156 280.226L188.153 280.225C188.153 280.225 188.153 280.225 188.152 280.225C188.149 280.226 188.144 280.228 188.137 280.231L187.951 280.3L187.766 280.227C185.994 279.527 184.343 278.625 182.879 277.039L182.878 277.038L182.877 277.037C182.402 276.517 181.95 275.991 181.502 275.471C180.643 274.473 179.802 273.495 178.855 272.615L178.854 272.614C177.889 271.713 176.932 270.957 175.931 270.562C174.957 270.177 173.934 270.131 172.787 270.674Z" fill="#2C2C2C"/>
<path d="M95.2524 250.164H206.882C208.217 250.164 209.498 250.695 210.443 251.639C211.387 252.583 211.918 253.864 211.918 255.2V317.913H90.2168V255.2C90.2168 253.864 90.7473 252.583 91.6917 251.639C92.6361 250.695 93.9169 250.164 95.2524 250.164Z" fill="white"/>
<path fill-rule="evenodd" clip-rule="evenodd" d="M95.2526 250.804C94.0873 250.804 92.9698 251.267 92.1458 252.091C91.3218 252.915 90.8589 254.033 90.8589 255.198V317.27H211.276V255.198C211.276 254.033 210.813 252.915 209.989 252.091C209.165 251.267 208.047 250.804 206.882 250.804H95.2526ZM91.2381 251.183C92.3028 250.119 93.7469 249.521 95.2526 249.521H206.882C208.388 249.521 209.832 250.119 210.897 251.183C211.961 252.248 212.56 253.692 212.56 255.198V317.911C212.56 318.266 212.272 318.553 211.918 318.553H90.217C89.8626 318.553 89.5752 318.266 89.5752 317.911V255.198C89.5752 253.692 90.1734 252.248 91.2381 251.183Z" fill="#2C2C2C"/>
<path d="M211.918 272.701C196.629 276.579 180.938 286.448 151.702 300.347C123.502 313.762 100.419 313.53 90.2168 312.493V317.911H211.918V272.701Z" fill="#2C2C2C"/>
<path fill-rule="evenodd" clip-rule="evenodd" d="M212.312 272.195C212.468 272.316 212.56 272.503 212.56 272.701V317.911C212.56 318.266 212.272 318.553 211.918 318.553H90.217C89.8626 318.553 89.5752 318.266 89.5752 317.911V312.493C89.5752 312.311 89.6521 312.138 89.7868 312.017C89.9214 311.895 90.1014 311.836 90.282 311.854C100.397 312.883 123.357 313.12 151.426 299.767L151.426 299.767C161.056 295.19 169.203 291.055 176.362 287.423C180.069 285.541 183.511 283.795 186.756 282.191C196.25 277.499 204.046 274.036 211.76 272.079C211.952 272.031 212.156 272.073 212.312 272.195ZM151.977 300.927C124.279 314.103 101.478 314.181 90.8589 313.2V317.269H211.276V273.532C203.958 275.486 196.475 278.82 187.325 283.342C184.102 284.935 180.67 286.676 176.968 288.554C169.8 292.192 161.619 296.343 151.977 300.927Z" fill="#2C2C2C"/>
<path d="M153.063 181.992C153.063 184.022 150.955 185.667 148.354 185.667C145.754 185.667 143.646 184.022 143.646 181.992C143.646 179.962 145.754 178.316 148.354 178.316C150.955 178.316 153.063 179.962 153.063 181.992Z" fill="white"/>
<path d="M210.888 313.42H90.7842V317.101H210.888V313.42Z" fill="white"/>
<path fill-rule="evenodd" clip-rule="evenodd" d="M137.765 177.776H160.641L160.567 178.385C160.225 181.164 158.871 183.698 156.78 185.547C154.686 187.399 151.995 188.41 149.205 188.41C146.415 188.41 143.724 187.399 141.63 185.547C139.537 183.696 138.199 181.148 137.843 178.388L137.765 177.776ZM139.017 178.861C139.446 181.126 140.61 183.197 142.349 184.735C144.243 186.409 146.678 187.325 149.205 187.325C151.732 187.325 154.167 186.409 156.061 184.735C157.803 183.194 158.977 181.133 159.396 178.861H139.017Z" fill="#2C2C2C"/>
<path d="M262.47 76.0738L265.637 79.2408L236.817 108.061L224.149 95.3926L227.316 92.2256L236.817 101.727L262.47 76.0738ZM262.47 69.6719L236.817 95.3248L227.316 85.8237L217.747 95.3926L236.817 114.463L272.039 79.2408L262.47 69.6719V69.6719Z" fill="#50BFD7"/>
<path d="M171.682 99.7225C165.736 92.4102 157.427 88 146.758 88C122.601 88 99 110.278 99 138.048C99 165.818 118.575 188.338 142.732 188.338C145.051 188.338 147.298 188.125 149.475 187.741C149.703 188.964 149.831 190.216 149.831 191.511C149.831 191.738 149.816 191.98 149.816 192.208C216.381 176.047 205.484 95.6111 171.682 99.7225Z" fill="#2C2C2C"/>
<path d="M115.658 171.324C120.726 171.324 124.834 167.215 124.834 162.148C124.834 157.08 120.726 152.972 115.658 152.972C110.591 152.972 106.482 157.08 106.482 162.148C106.482 167.215 110.591 171.324 115.658 171.324Z" fill="white"/>
<path fill-rule="evenodd" clip-rule="evenodd" d="M115.658 153.54C110.905 153.54 107.051 157.394 107.051 162.147C107.051 166.901 110.905 170.754 115.658 170.754C120.412 170.754 124.265 166.901 124.265 162.147C124.265 157.394 120.412 153.54 115.658 153.54ZM105.913 162.147C105.913 156.765 110.276 152.402 115.658 152.402C121.04 152.402 125.403 156.765 125.403 162.147C125.403 167.529 121.04 171.892 115.658 171.892C110.276 171.892 105.913 167.529 105.913 162.147Z" fill="#2C2C2C"/>
<path d="M180.275 171.324C185.342 171.324 189.451 167.215 189.451 162.148C189.451 157.08 185.342 152.972 180.275 152.972C175.207 152.972 171.099 157.08 171.099 162.148C171.099 167.215 175.207 171.324 180.275 171.324Z" fill="white"/>
<path fill-rule="evenodd" clip-rule="evenodd" d="M180.274 153.54C175.521 153.54 171.667 157.394 171.667 162.147C171.667 166.901 175.521 170.754 180.274 170.754C185.028 170.754 188.881 166.901 188.881 162.147C188.881 157.394 185.028 153.54 180.274 153.54ZM170.529 162.147C170.529 156.765 174.892 152.402 180.274 152.402C185.656 152.402 190.019 156.765 190.019 162.147C190.019 167.529 185.656 171.892 180.274 171.892C174.892 171.892 170.529 167.529 170.529 162.147Z" fill="#2C2C2C"/>
<path d="M148.834 200.429C168.532 200.429 184.5 177.825 184.5 149.94C184.5 122.056 168.532 99.4512 148.834 99.4512C129.137 99.4512 113.169 122.056 113.169 149.94C113.169 177.825 129.137 200.429 148.834 200.429Z" fill="white"/>
<path fill-rule="evenodd" clip-rule="evenodd" d="M124.081 114.569C117.702 123.599 113.739 136.103 113.739 149.942C113.739 163.781 117.702 176.285 124.081 185.315C130.46 194.346 139.221 199.862 148.835 199.862C158.449 199.862 167.21 194.346 173.589 185.315C179.968 176.285 183.931 163.781 183.931 149.942C183.931 136.103 179.968 123.599 173.589 114.569C167.21 105.538 158.449 100.022 148.835 100.022C139.221 100.022 130.46 105.538 124.081 114.569ZM123.151 113.912C129.68 104.67 138.752 98.8838 148.835 98.8838C158.918 98.8838 167.99 104.67 174.519 113.912C181.049 123.156 185.069 135.896 185.069 149.942C185.069 163.988 181.049 176.728 174.519 185.971C167.99 195.214 158.918 201 148.835 201C138.752 201 129.68 195.214 123.151 185.971C116.621 176.728 112.601 163.988 112.601 149.942C112.601 135.896 116.621 123.156 123.151 113.912Z" fill="#2C2C2C"/>
<path d="M107.963 138.745C107.963 138.745 138.322 140.225 148.437 121.958C148.437 121.958 170.402 140.964 191.372 139.485L189.394 131.091L181.257 115.044L176.32 109.126L166.205 98.5132L152.633 92.8369L136.344 95.0562L114.621 109.866L111.904 119.739L107.963 138.745Z" fill="#2C2C2C"/>
<path d="M149.701 169.674C149.716 169.759 149.531 169.915 149.118 169.915C148.72 169.93 148.108 169.745 147.568 169.233C147.297 168.977 147.055 168.664 146.87 168.265C146.842 168.208 146.828 168.151 146.799 168.095L146.771 168.009L146.742 167.938L146.7 167.81C146.686 167.753 146.671 167.682 146.643 167.625C146.586 167.412 146.543 167.184 146.529 166.942C146.444 166.003 146.629 165.05 146.856 164.14C147.738 160.498 148.777 157.638 149.161 157.724C149.545 157.823 149.147 160.839 148.265 164.481C148.037 165.377 147.866 166.188 147.866 166.871C147.866 167.042 147.881 167.212 147.895 167.369L147.909 167.426V167.454V167.469V167.483C147.909 167.483 147.895 167.44 147.909 167.454L147.937 167.597L147.952 167.668L147.966 167.71L147.994 167.796C148.08 168.066 148.208 168.322 148.35 168.521C148.635 168.934 148.976 169.19 149.246 169.332C149.502 169.517 149.687 169.574 149.701 169.674Z" fill="#2C2C2C"/>
<path d="M139.559 152.616C139.559 156.671 136.045 159.957 131.721 159.957C127.382 159.957 123.882 156.671 123.882 152.616C123.882 148.562 127.396 145.275 131.721 145.275C136.031 145.275 139.559 148.562 139.559 152.616Z" fill="white"/>
<path fill-rule="evenodd" clip-rule="evenodd" d="M131.72 145.844C127.674 145.844 124.451 148.91 124.451 152.616C124.451 156.322 127.66 159.388 131.72 159.388C135.767 159.388 138.99 156.321 138.99 152.616C138.99 148.911 135.753 145.844 131.72 145.844ZM123.312 152.616C123.312 148.212 127.117 144.706 131.72 144.706C136.308 144.706 140.128 148.212 140.128 152.616C140.128 157.019 136.323 160.526 131.72 160.526C127.102 160.526 123.312 157.019 123.312 152.616Z" fill="#2C2C2C"/>
<path d="M127.864 152.161C127.864 155.504 130.041 158.221 132.715 158.221C135.39 158.221 137.567 155.504 137.567 152.161C137.567 148.818 135.39 146.101 132.715 146.101C130.041 146.086 127.864 148.804 127.864 152.161Z" fill="#50BFD7"/>
<path d="M129.275 152.16C129.275 154.536 130.812 156.457 132.718 156.457C134.624 156.457 136.161 154.536 136.161 152.16C136.161 149.784 134.624 147.85 132.718 147.85C130.812 147.85 129.275 149.77 129.275 152.16Z" fill="#2C2C2C"/>
<path d="M129.061 148.078C129.061 148.732 129.857 149.245 130.839 149.245C131.82 149.245 132.617 148.718 132.617 148.078C132.617 147.424 131.82 146.911 130.839 146.911C129.857 146.897 129.061 147.424 129.061 148.078Z" fill="white"/>
<path d="M141.794 141.391C141.794 141.391 131.209 130.835 119.828 143.368C119.828 143.368 129.673 137.066 141.794 141.391Z" fill="#2C2C2C"/>
<path d="M173.66 152.616C173.66 156.671 170.146 159.957 165.821 159.957C161.482 159.957 157.982 156.671 157.982 152.616C157.982 148.562 161.496 145.275 165.821 145.275C170.146 145.275 173.66 148.562 173.66 152.616Z" fill="white"/>
<path fill-rule="evenodd" clip-rule="evenodd" d="M165.821 145.844C161.774 145.844 158.551 148.91 158.551 152.616C158.551 156.322 161.761 159.388 165.821 159.388C169.867 159.388 173.09 156.321 173.09 152.616C173.09 148.91 169.867 145.844 165.821 145.844ZM157.413 152.616C157.413 148.212 161.218 144.706 165.821 144.706C170.424 144.706 174.229 148.212 174.229 152.616C174.229 157.019 170.424 160.526 165.821 160.526C161.203 160.526 157.413 157.019 157.413 152.616Z" fill="#2C2C2C"/>
<path d="M161.979 152.161C161.979 155.504 164.156 158.221 166.831 158.221C169.505 158.221 171.682 155.504 171.682 152.161C171.682 148.818 169.505 146.101 166.831 146.101C164.142 146.086 161.979 148.804 161.979 152.161Z" fill="#50BFD7"/>
<path d="M163.374 152.16C163.374 154.536 164.91 156.457 166.817 156.457C168.723 156.457 170.26 154.536 170.26 152.16C170.26 149.784 168.723 147.85 166.817 147.85C164.925 147.85 163.374 149.77 163.374 152.16Z" fill="#2C2C2C"/>
<path d="M163.16 148.078C163.16 148.732 163.957 149.245 164.938 149.245C165.92 149.245 166.717 148.718 166.717 148.078C166.717 147.424 165.92 146.911 164.938 146.911C163.957 146.897 163.16 147.424 163.16 148.078Z" fill="white"/>
<path d="M175.907 140.239C175.907 140.239 165.322 129.683 153.941 142.217C153.927 142.217 163.772 135.914 175.907 140.239Z" fill="#2C2C2C"/>
<path d="M137.255 177.739C137.611 180.499 138.948 183.046 141.039 184.895C143.13 186.745 145.819 187.755 148.607 187.755C151.396 187.755 154.085 186.745 156.176 184.895C158.267 183.046 159.619 180.513 159.96 177.739H137.255Z" fill="white"/>
<path fill-rule="evenodd" clip-rule="evenodd" d="M136.607 177.172H160.603L160.524 177.81C160.166 180.725 158.746 183.383 156.552 185.323C154.356 187.265 151.533 188.325 148.607 188.325C145.681 188.325 142.858 187.265 140.662 185.323C138.466 183.381 137.063 180.709 136.69 177.814L136.607 177.172ZM137.921 178.31C138.371 180.686 139.592 182.857 141.416 184.47C143.402 186.227 145.957 187.187 148.607 187.187C151.258 187.187 153.812 186.227 155.799 184.47C157.626 182.855 158.857 180.693 159.297 178.31H137.921Z" fill="#2C2C2C"/>
<path fill-rule="evenodd" clip-rule="evenodd" d="M112.458 147.267V147.551H111.32V147.267H112.458Z" fill="#2C2C2C"/>
<path fill-rule="evenodd" clip-rule="evenodd" d="M118.432 150.396V150.681H117.294V150.396H118.432Z" fill="#2C2C2C"/>
<path d="M150.782 148.718C152.731 149.131 152.006 150.397 152.006 150.582C152.006 150.767 152.731 161.294 162.135 164.068C171.539 166.842 177.172 161.394 178.808 158.662C180.444 155.931 181.81 149.444 182.208 148.946C182.621 148.448 184.57 147.58 184.57 147.58L184.797 145.034L182.351 144.308C182.351 144.308 176.176 141.491 167.086 141.363C158.009 141.221 152.874 146.456 152.874 146.456C150.313 145.645 147.14 145.532 144.238 146.456C144.238 146.456 139.103 141.235 130.026 141.363C120.95 141.505 114.761 144.308 114.761 144.308L112.314 145.034L112.542 147.58C112.542 147.58 114.491 148.448 114.904 148.946C115.316 149.444 116.668 155.945 118.304 158.662C119.94 161.394 125.573 166.842 134.977 164.068C144.381 161.294 145.106 150.767 145.106 150.582C145.106 150.397 144.381 149.131 146.33 148.718C148.037 148.363 149.089 148.363 150.782 148.718ZM173.36 161.892C166.189 166.202 157.597 161.849 155.008 156.173C152.418 150.496 154.595 147.495 154.595 147.495C158.92 140.438 176.39 140.14 179.391 147.765C179.904 149.045 180.53 157.581 173.36 161.892ZM117.72 147.765C120.722 140.126 138.192 140.438 142.517 147.495C142.517 147.495 144.694 150.496 142.104 156.173C139.515 161.849 130.937 166.202 123.752 161.892C116.597 157.581 117.223 149.045 117.72 147.765Z" fill="#2C2C2C"/>
</svg>
