<svg width="362" height="324" viewBox="0 0 362 324" fill="none" xmlns="http://www.w3.org/2000/svg">
<path d="M344.285 98.599C344.285 98.599 330.878 46.6742 249.711 13.9277C168.545 -18.8188 95.9299 11.5103 79.3755 49.8821C62.8212 88.2539 80.1703 108.975 69.1234 141.744C58.0766 174.514 1.32454 216.017 24.2288 266.345C47.1331 316.674 154.311 331.048 241.041 320.665C327.77 310.281 395.529 195.25 344.285 98.599Z" fill="#50BFD7"/>
<path opacity="0.7" d="M344.285 98.599C344.285 98.599 330.878 46.6742 249.711 13.9277C168.545 -18.8188 95.9299 11.5103 79.3755 49.8821C62.8212 88.2539 80.1703 108.975 69.1234 141.744C58.0766 174.514 1.32454 216.017 24.2288 266.345C47.1331 316.674 154.311 331.048 241.041 320.665C327.77 310.281 395.529 195.25 344.285 98.599Z" fill="white"/>
<path fill-rule="evenodd" clip-rule="evenodd" d="M275.452 252.944C275.672 252.92 275.868 253.079 275.892 253.299L279.031 282.768C279.054 282.988 278.895 283.185 278.676 283.208C278.456 283.231 278.26 283.072 278.236 282.853L275.097 253.383C275.074 253.164 275.233 252.967 275.452 252.944Z" fill="#263238"/>
<path d="M275.476 254.17C275.476 254.17 269.839 249.782 269.839 239.748C269.839 229.713 277.358 221.569 277.358 221.569C277.358 221.569 285.511 231.603 283.629 241.629C281.747 251.655 275.476 254.17 275.476 254.17Z" fill="#50BFD7"/>
<path fill-rule="evenodd" clip-rule="evenodd" d="M277.67 221.317L277.36 221.569L277.066 221.297C277.145 221.212 277.256 221.165 277.372 221.169C277.488 221.173 277.597 221.227 277.67 221.317ZM275.478 254.169C275.232 254.485 275.232 254.484 275.232 254.484L275.231 254.484L275.23 254.483L275.225 254.479L275.21 254.467C275.198 254.457 275.18 254.443 275.158 254.424C275.113 254.386 275.048 254.331 274.967 254.257C274.805 254.111 274.577 253.892 274.304 253.599C273.759 253.013 273.037 252.129 272.316 250.926C270.873 248.519 269.44 244.843 269.44 239.747C269.44 234.633 271.355 230.019 273.253 226.697C274.203 225.033 275.154 223.686 275.867 222.755C276.224 222.289 276.522 221.926 276.732 221.68C276.837 221.556 276.919 221.462 276.976 221.397C277.005 221.365 277.027 221.341 277.042 221.324L277.059 221.305L277.064 221.3L277.065 221.298L277.066 221.298C277.066 221.298 277.066 221.297 277.36 221.569C277.67 221.317 277.67 221.317 277.67 221.317L277.67 221.317L277.672 221.319L277.677 221.325L277.695 221.349C277.712 221.369 277.735 221.399 277.766 221.438C277.827 221.516 277.915 221.631 278.027 221.78C278.249 222.079 278.564 222.516 278.936 223.071C279.679 224.18 280.649 225.764 281.561 227.666C283.379 231.46 284.986 236.568 284.023 241.702C283.067 246.793 280.992 249.999 279.137 251.935C278.21 252.902 277.342 253.549 276.701 253.957C276.381 254.161 276.117 254.305 275.931 254.398C275.838 254.445 275.764 254.48 275.712 254.503C275.687 254.515 275.666 254.523 275.652 254.53L275.635 254.537L275.629 254.539L275.628 254.54L275.627 254.54C275.627 254.54 275.626 254.54 275.478 254.169ZM275.478 254.169L275.232 254.485C275.344 254.572 275.494 254.593 275.626 254.54L275.478 254.169ZM275.542 253.699C275.551 253.695 275.561 253.69 275.571 253.685C275.735 253.602 275.976 253.471 276.272 253.282C276.866 252.905 277.683 252.297 278.559 251.382C280.31 249.555 282.311 246.49 283.237 241.555C284.155 236.664 282.627 231.741 280.84 228.012C279.949 226.152 278.999 224.601 278.272 223.515C277.909 222.973 277.601 222.547 277.386 222.258C277.37 222.237 277.355 222.217 277.34 222.198C277.139 222.435 276.85 222.787 276.502 223.241C275.806 224.15 274.876 225.467 273.947 227.093C272.085 230.351 270.24 234.826 270.24 239.747C270.24 244.685 271.626 248.22 273.002 250.515C273.69 251.664 274.377 252.504 274.889 253.055C275.145 253.33 275.357 253.532 275.504 253.665C275.517 253.677 275.53 253.688 275.542 253.699Z" fill="#263238"/>
<path fill-rule="evenodd" clip-rule="evenodd" d="M276.956 230.797C277.176 230.811 277.343 231.001 277.329 231.221L275.893 253.366C275.879 253.586 275.689 253.753 275.469 253.739C275.248 253.725 275.081 253.535 275.096 253.314L276.531 231.17C276.546 230.949 276.736 230.782 276.956 230.797Z" fill="#263238"/>
<path fill-rule="evenodd" clip-rule="evenodd" d="M291.722 259.958C291.91 260.072 291.971 260.318 291.857 260.507C287.961 266.965 284.63 273.748 281.902 280.781C281.822 280.986 281.591 281.088 281.385 281.009C281.179 280.929 281.077 280.697 281.157 280.491C283.902 273.416 287.253 266.592 291.173 260.094C291.287 259.905 291.533 259.844 291.722 259.958Z" fill="#263238"/>
<path d="M288.563 265.63C288.563 265.63 285.432 259.197 289.861 250.218C294.29 241.238 304.641 237.239 304.641 237.239C304.641 237.239 307.52 249.837 301.396 258.005C295.272 266.173 288.563 265.63 288.563 265.63Z" fill="#50BFD7"/>
<path fill-rule="evenodd" clip-rule="evenodd" d="M305.029 237.151L304.639 237.24L304.495 236.868C304.603 236.826 304.724 236.833 304.827 236.888C304.929 236.942 305.003 237.038 305.029 237.151ZM288.562 265.631C288.202 265.806 288.202 265.806 288.202 265.806L288.201 265.803L288.199 265.798L288.191 265.781C288.184 265.766 288.174 265.746 288.162 265.719C288.138 265.665 288.105 265.587 288.065 265.485C287.984 265.282 287.875 264.985 287.759 264.601C287.528 263.835 287.269 262.722 287.152 261.326C286.917 258.53 287.252 254.603 289.501 250.042C291.758 245.466 295.515 242.174 298.686 240.031C300.275 238.958 301.723 238.169 302.775 237.648C303.301 237.387 303.729 237.193 304.026 237.063C304.175 236.999 304.291 236.95 304.37 236.918C304.41 236.901 304.441 236.889 304.462 236.881L304.486 236.871L304.492 236.869L304.494 236.868L304.495 236.868C304.495 236.868 304.495 236.868 304.639 237.24C305.029 237.151 305.029 237.151 305.029 237.151L305.029 237.155L305.031 237.162L305.038 237.192C305.043 237.217 305.051 237.254 305.061 237.303C305.081 237.4 305.11 237.542 305.144 237.725C305.212 238.091 305.301 238.622 305.389 239.284C305.566 240.607 305.736 242.456 305.713 244.565C305.667 248.771 304.85 254.063 301.714 258.246C298.604 262.394 295.332 264.346 292.818 265.258C291.563 265.712 290.501 265.906 289.748 265.986C289.371 266.026 289.072 266.037 288.864 266.038C288.76 266.039 288.679 266.037 288.623 266.035C288.595 266.034 288.573 266.032 288.557 266.031L288.538 266.03L288.533 266.03L288.531 266.03C288.53 266.03 288.529 266.03 288.562 265.631ZM288.562 265.631L288.202 265.806C288.264 265.933 288.389 266.018 288.529 266.03L288.562 265.631ZM288.827 265.239C288.838 265.239 288.849 265.239 288.86 265.239C289.043 265.238 289.315 265.228 289.664 265.191C290.36 265.117 291.358 264.937 292.545 264.506C294.916 263.647 298.06 261.787 301.075 257.767C304.063 253.781 304.868 248.691 304.914 244.556C304.936 242.494 304.77 240.684 304.597 239.389C304.511 238.742 304.424 238.225 304.358 237.871C304.353 237.845 304.349 237.82 304.344 237.797C304.058 237.921 303.643 238.11 303.13 238.364C302.103 238.873 300.687 239.644 299.134 240.694C296.023 242.795 292.39 245.992 290.218 250.396C288.039 254.814 287.724 258.594 287.948 261.259C288.06 262.593 288.307 263.65 288.524 264.37C288.633 264.73 288.734 265.006 288.807 265.19C288.814 265.207 288.821 265.223 288.827 265.239Z" fill="#263238"/>
<path fill-rule="evenodd" clip-rule="evenodd" d="M300.183 246.527C300.371 246.642 300.431 246.888 300.316 247.076L288.903 265.838C288.789 266.027 288.543 266.087 288.354 265.972C288.166 265.857 288.106 265.612 288.22 265.423L299.633 246.661C299.748 246.472 299.994 246.412 300.183 246.527Z" fill="#263238"/>
<path fill-rule="evenodd" clip-rule="evenodd" d="M262.062 259.066C262.253 258.955 262.498 259.02 262.609 259.211L267 266.777C269.897 271.968 272.22 277.459 273.929 283.153C273.992 283.364 273.873 283.587 273.661 283.651C273.45 283.714 273.227 283.594 273.164 283.383C271.471 277.746 269.171 272.309 266.304 267.169L261.917 259.612C261.807 259.421 261.871 259.177 262.062 259.066Z" fill="#263238"/>
<path d="M265.792 265.256C262.33 266.32 258.654 266.489 255.108 265.749C251.562 265.008 248.261 263.382 245.513 261.022C235.779 252.845 236.323 236.16 236.323 236.16C236.323 236.16 255.191 233.467 262.807 244.158C265.015 247.151 266.444 250.647 266.965 254.33C267.487 258.013 267.083 261.768 265.792 265.256Z" fill="#50BFD7"/>
<path fill-rule="evenodd" clip-rule="evenodd" d="M236.323 236.162C235.924 236.149 235.924 236.149 235.924 236.149L235.924 236.153L235.923 236.163L235.922 236.201C235.922 236.234 235.921 236.283 235.92 236.346C235.918 236.473 235.917 236.659 235.919 236.898C235.923 237.377 235.94 238.067 235.991 238.921C236.093 240.627 236.332 242.988 236.877 245.608C237.965 250.835 240.288 257.155 245.255 261.329C248.054 263.732 251.415 265.388 255.027 266.142C258.639 266.896 262.383 266.724 265.91 265.64L265.793 265.258L266.167 265.397C267.481 261.846 267.892 258.025 267.361 254.276C266.831 250.528 265.377 246.972 263.131 243.925C259.222 238.441 252.458 236.422 246.755 235.755C243.894 235.42 241.275 235.423 239.372 235.509C238.42 235.552 237.646 235.616 237.109 235.669C236.841 235.696 236.631 235.72 236.488 235.738C236.417 235.746 236.362 235.753 236.325 235.758L236.282 235.764L236.271 235.766L236.267 235.766C236.267 235.766 236.267 235.766 236.323 236.162ZM236.718 236.515C236.717 236.619 236.717 236.744 236.718 236.891C236.722 237.357 236.739 238.034 236.789 238.873C236.889 240.551 237.124 242.872 237.659 245.445C238.733 250.605 241.005 256.715 245.771 260.718L245.774 260.721C248.471 263.037 251.71 264.633 255.19 265.36C258.605 266.073 262.143 265.926 265.486 264.934C266.7 261.56 267.073 257.94 266.57 254.388C266.058 250.771 264.655 247.337 262.486 244.397L262.482 244.392C258.774 239.187 252.298 237.208 246.663 236.549C243.855 236.22 241.281 236.223 239.408 236.307C238.472 236.35 237.713 236.413 237.188 236.465C237 236.483 236.842 236.501 236.718 236.515ZM236.323 236.162L236.267 235.766C236.075 235.794 235.93 235.955 235.924 236.149L236.323 236.162Z" fill="#263238"/>
<path fill-rule="evenodd" clip-rule="evenodd" d="M243.151 241.665C243.31 241.512 243.563 241.517 243.716 241.677L266.08 264.981C266.233 265.141 266.228 265.394 266.068 265.546C265.909 265.699 265.656 265.694 265.503 265.535L243.14 242.23C242.987 242.071 242.992 241.818 243.151 241.665Z" fill="#263238"/>
<path d="M288.95 276.501H265.077V299.911H288.95V276.501Z" fill="#263238"/>
<path fill-rule="evenodd" clip-rule="evenodd" d="M264.679 276.498C264.679 276.278 264.858 276.099 265.078 276.099H288.951C289.172 276.099 289.351 276.278 289.351 276.498V299.908C289.351 300.129 289.172 300.308 288.951 300.308H265.078C264.858 300.308 264.679 300.129 264.679 299.908V276.498ZM265.478 276.898V299.509H288.551V276.898H265.478Z" fill="#263238"/>
<path opacity="0.3" d="M327.463 44.6113H158.361V193.819H327.463V44.6113Z" fill="black"/>
<path d="M331.708 36.9873H162.606V186.195H331.708V36.9873Z" fill="white"/>
<path fill-rule="evenodd" clip-rule="evenodd" d="M161.618 36.9876C161.618 36.4422 162.06 36 162.606 36H331.708C332.253 36 332.695 36.4422 332.695 36.9876V186.195C332.695 186.741 332.253 187.183 331.708 187.183H162.606C162.06 187.183 161.618 186.741 161.618 186.195V36.9876ZM163.593 37.9753V185.208H330.72V37.9753H163.593Z" fill="#263238"/>
<path d="M331.708 36.9873H162.606V47.6507H331.708V36.9873Z" fill="#263238"/>
<path fill-rule="evenodd" clip-rule="evenodd" d="M161.618 36.9876C161.618 36.4422 162.06 36 162.606 36H331.708C332.253 36 332.695 36.4422 332.695 36.9876V47.651C332.695 48.1965 332.253 48.6387 331.708 48.6387H162.606C162.06 48.6387 161.618 48.1965 161.618 47.651V36.9876ZM163.593 37.9753V46.6634H330.72V37.9753H163.593Z" fill="#263238"/>
<path d="M236.586 100.889V85.159C236.586 82.2993 237.722 79.5566 239.744 77.5345C241.767 75.5123 244.509 74.3763 247.369 74.3763C250.229 74.3763 252.971 75.5123 254.994 77.5345C257.016 79.5566 258.152 82.2993 258.152 85.159V94.3502H262.449V85.159C262.449 81.1596 260.86 77.3239 258.032 74.4959C255.204 71.6679 251.368 70.0791 247.369 70.0791C243.37 70.0791 239.534 71.6679 236.706 74.4959C233.878 77.3239 232.289 81.1596 232.289 85.159V100.889H236.586Z" fill="white"/>
<path d="M306.11 137.691H188.19C185.26 137.691 182.885 140.067 182.885 142.997V155.583C182.885 158.513 185.26 160.888 188.19 160.888H306.11C309.04 160.888 311.416 158.513 311.416 155.583V142.997C311.416 140.067 309.04 137.691 306.11 137.691Z" fill="white"/>
<path fill-rule="evenodd" clip-rule="evenodd" d="M188.189 138.681C185.805 138.681 183.872 140.614 183.872 142.999V155.585C183.872 157.97 185.805 159.903 188.189 159.903H306.11C308.494 159.903 310.427 157.97 310.427 155.585V142.999C310.427 140.614 308.494 138.681 306.11 138.681H188.189ZM181.896 142.999C181.896 139.523 184.714 136.706 188.189 136.706H306.11C309.585 136.706 312.403 139.523 312.403 142.999V155.585C312.403 159.061 309.585 161.878 306.11 161.878H188.189C184.714 161.878 181.896 159.061 181.896 155.585V142.999Z" fill="#263238"/>
<path d="M195.365 150.028C195.182 149.994 195.01 149.92 194.86 149.812C194.71 149.703 194.586 149.562 194.497 149.4C194.408 149.237 194.356 149.057 194.346 148.872C194.335 148.687 194.366 148.502 194.436 148.33L194.503 148.158C194.556 147.987 194.645 147.83 194.764 147.697C194.883 147.564 195.029 147.458 195.192 147.387C195.356 147.315 195.533 147.279 195.711 147.282C195.89 147.284 196.066 147.325 196.227 147.402C197.308 147.819 198.337 148.362 199.291 149.02C198.952 147.872 198.756 146.687 198.707 145.492C198.696 145.311 198.722 145.13 198.784 144.96C198.846 144.79 198.942 144.634 199.066 144.502C199.19 144.37 199.34 144.266 199.507 144.194C199.673 144.122 199.852 144.086 200.033 144.086H200.219C200.4 144.086 200.579 144.122 200.746 144.194C200.912 144.266 201.062 144.37 201.186 144.502C201.31 144.634 201.406 144.79 201.468 144.96C201.53 145.13 201.556 145.311 201.545 145.492C201.495 146.686 201.303 147.87 200.975 149.02C201.931 148.373 202.954 147.83 204.025 147.402C204.188 147.323 204.366 147.282 204.547 147.28C204.727 147.277 204.906 147.315 205.071 147.39C205.235 147.464 205.381 147.574 205.498 147.711C205.616 147.849 205.701 148.01 205.75 148.184V148.304C205.827 148.474 205.865 148.661 205.86 148.848C205.855 149.036 205.807 149.22 205.72 149.386C205.633 149.552 205.509 149.696 205.358 149.808C205.207 149.919 205.032 149.994 204.848 150.028C203.735 150.326 202.591 150.495 201.439 150.532C202.382 151.225 203.238 152.032 203.986 152.932C204.095 153.069 204.176 153.226 204.225 153.394C204.274 153.562 204.288 153.738 204.269 153.912C204.249 154.085 204.195 154.254 204.11 154.406C204.025 154.559 203.911 154.694 203.773 154.802L203.628 154.922C203.485 155.042 203.317 155.13 203.137 155.177C202.956 155.224 202.767 155.23 202.583 155.194C202.4 155.159 202.227 155.082 202.077 154.971C201.927 154.859 201.805 154.716 201.718 154.55C201.08 153.572 200.551 152.527 200.139 151.434C199.705 152.524 199.163 153.568 198.521 154.55C198.434 154.716 198.312 154.859 198.162 154.971C198.012 155.082 197.839 155.159 197.656 155.194C197.472 155.23 197.283 155.224 197.102 155.177C196.922 155.13 196.754 155.042 196.611 154.922L196.479 154.802C196.341 154.695 196.225 154.561 196.139 154.409C196.053 154.256 195.997 154.088 195.976 153.914C195.956 153.74 195.969 153.564 196.017 153.396C196.064 153.227 196.145 153.07 196.253 152.932C197.019 152.031 197.877 151.213 198.813 150.492C197.649 150.486 196.49 150.33 195.365 150.028Z" fill="#263238"/>
<path d="M208.812 150.028C208.63 149.994 208.457 149.92 208.307 149.812C208.157 149.703 208.033 149.562 207.944 149.4C207.855 149.237 207.803 149.057 207.793 148.872C207.783 148.687 207.814 148.502 207.884 148.33L207.95 148.158C208.003 147.987 208.092 147.83 208.211 147.697C208.33 147.564 208.476 147.458 208.64 147.387C208.803 147.315 208.98 147.279 209.159 147.282C209.337 147.284 209.513 147.325 209.674 147.402C210.756 147.819 211.784 148.362 212.738 149.02C212.399 147.872 212.203 146.687 212.154 145.492C212.143 145.311 212.17 145.13 212.231 144.96C212.293 144.79 212.389 144.634 212.513 144.502C212.638 144.37 212.788 144.266 212.954 144.194C213.12 144.122 213.3 144.086 213.481 144.086H213.587C213.768 144.086 213.947 144.122 214.113 144.194C214.28 144.266 214.43 144.37 214.554 144.502C214.678 144.634 214.774 144.79 214.836 144.96C214.898 145.13 214.924 145.311 214.913 145.492C214.862 146.686 214.671 147.87 214.343 149.02C215.299 148.373 216.321 147.83 217.393 147.402C217.558 147.336 217.735 147.304 217.913 147.308C218.09 147.312 218.266 147.352 218.428 147.425C218.59 147.498 218.735 147.603 218.856 147.733C218.977 147.864 219.07 148.017 219.131 148.184V148.304C219.208 148.474 219.246 148.661 219.241 148.848C219.236 149.036 219.188 149.22 219.101 149.386C219.014 149.552 218.89 149.696 218.739 149.808C218.588 149.919 218.413 149.994 218.229 150.028C217.116 150.326 215.972 150.495 214.82 150.532C215.763 151.225 216.619 152.032 217.367 152.932C217.476 153.069 217.557 153.226 217.606 153.394C217.655 153.562 217.669 153.738 217.65 153.912C217.63 154.085 217.576 154.254 217.491 154.406C217.406 154.559 217.292 154.694 217.154 154.802L217.009 154.922C216.867 155.042 216.7 155.13 216.521 155.177C216.341 155.224 216.153 155.23 215.971 155.194C215.788 155.159 215.616 155.082 215.468 154.971C215.319 154.859 215.197 154.715 215.112 154.55C214.464 153.576 213.93 152.53 213.52 151.434C213.086 152.524 212.544 153.568 211.902 154.55C211.815 154.716 211.693 154.859 211.543 154.971C211.393 155.082 211.22 155.159 211.037 155.194C210.853 155.23 210.664 155.224 210.483 155.177C210.303 155.13 210.135 155.042 209.992 154.922L209.86 154.802C209.722 154.695 209.606 154.561 209.52 154.409C209.434 154.256 209.378 154.088 209.357 153.914C209.336 153.74 209.35 153.564 209.398 153.396C209.445 153.227 209.526 153.07 209.634 152.932C210.4 152.031 211.258 151.213 212.194 150.492C211.052 150.48 209.915 150.324 208.812 150.028Z" fill="#263238"/>
<path d="M222.263 150.028C222.087 149.982 221.923 149.901 221.78 149.79C221.637 149.679 221.518 149.539 221.431 149.38C221.344 149.221 221.291 149.046 221.274 148.865C221.258 148.684 221.278 148.502 221.335 148.33V148.158C221.388 147.987 221.477 147.83 221.596 147.697C221.715 147.564 221.861 147.458 222.024 147.387C222.188 147.315 222.365 147.279 222.543 147.282C222.722 147.284 222.898 147.325 223.059 147.402C224.14 147.819 225.169 148.362 226.123 149.02C225.789 147.872 225.597 146.687 225.552 145.492C225.541 145.311 225.568 145.13 225.629 144.96C225.691 144.79 225.787 144.634 225.911 144.502C226.036 144.37 226.186 144.266 226.352 144.194C226.518 144.122 226.697 144.086 226.879 144.086H227.064C227.245 144.086 227.425 144.122 227.591 144.194C227.757 144.266 227.907 144.37 228.031 144.502C228.156 144.634 228.252 144.79 228.313 144.96C228.375 145.13 228.401 145.311 228.391 145.492C228.34 146.686 228.149 147.87 227.82 149.02C228.776 148.373 229.799 147.83 230.871 147.402C231.036 147.336 231.213 147.304 231.39 147.308C231.568 147.312 231.743 147.352 231.905 147.425C232.067 147.498 232.213 147.603 232.334 147.733C232.454 147.864 232.548 148.017 232.608 148.184V148.304C232.686 148.473 232.724 148.659 232.72 148.845C232.715 149.032 232.668 149.216 232.583 149.382C232.497 149.548 232.375 149.692 232.226 149.804C232.076 149.916 231.903 149.992 231.72 150.028C230.602 150.324 229.454 150.494 228.298 150.532C229.241 151.225 230.096 152.032 230.844 152.932C230.954 153.069 231.035 153.226 231.084 153.394C231.132 153.562 231.147 153.738 231.127 153.912C231.108 154.085 231.054 154.254 230.969 154.406C230.884 154.559 230.769 154.694 230.632 154.802L230.486 154.922C230.345 155.042 230.178 155.13 229.998 155.177C229.819 155.224 229.63 155.23 229.448 155.194C229.266 155.159 229.094 155.082 228.945 154.971C228.796 154.859 228.675 154.715 228.589 154.55C227.947 153.573 227.413 152.527 226.998 151.434C226.564 152.524 226.022 153.568 225.38 154.55C225.294 154.715 225.173 154.859 225.024 154.971C224.876 155.082 224.704 155.159 224.521 155.194C224.339 155.23 224.151 155.224 223.971 155.177C223.791 155.13 223.625 155.042 223.483 154.922L223.337 154.802C223.199 154.695 223.084 154.561 222.997 154.409C222.911 154.256 222.856 154.088 222.835 153.914C222.814 153.74 222.828 153.564 222.875 153.396C222.923 153.227 223.003 153.07 223.112 152.932C223.877 152.031 224.735 151.213 225.672 150.492C224.52 150.482 223.375 150.326 222.263 150.028Z" fill="#263238"/>
<path d="M235.71 150.028C235.535 149.982 235.37 149.901 235.227 149.79C235.084 149.679 234.965 149.539 234.878 149.38C234.791 149.221 234.738 149.046 234.721 148.865C234.705 148.684 234.725 148.502 234.782 148.33V148.158C234.835 147.987 234.924 147.83 235.043 147.697C235.162 147.564 235.308 147.458 235.472 147.387C235.635 147.315 235.812 147.279 235.991 147.282C236.169 147.284 236.345 147.325 236.506 147.402C237.587 147.819 238.616 148.362 239.57 149.02C239.242 147.87 239.05 146.686 239 145.492C238.989 145.311 239.015 145.13 239.077 144.96C239.138 144.79 239.234 144.634 239.359 144.502C239.483 144.37 239.633 144.266 239.799 144.194C239.966 144.122 240.145 144.086 240.326 144.086H240.511C240.693 144.086 240.872 144.122 241.038 144.194C241.204 144.266 241.354 144.37 241.479 144.502C241.603 144.634 241.699 144.79 241.761 144.96C241.822 145.13 241.849 145.311 241.838 145.492C241.787 146.686 241.596 147.87 241.267 149.02C242.223 148.373 243.246 147.83 244.318 147.402C244.483 147.336 244.66 147.304 244.838 147.308C245.015 147.312 245.19 147.352 245.352 147.425C245.515 147.498 245.66 147.603 245.781 147.733C245.902 147.864 245.995 148.017 246.055 148.184V148.304C246.133 148.473 246.171 148.659 246.167 148.845C246.162 149.032 246.116 149.216 246.03 149.382C245.944 149.548 245.822 149.692 245.673 149.804C245.523 149.916 245.35 149.992 245.167 150.028C244.049 150.324 242.901 150.494 241.745 150.532C242.688 151.225 243.543 152.032 244.291 152.932C244.401 153.069 244.482 153.226 244.531 153.394C244.579 153.562 244.594 153.738 244.574 153.912C244.555 154.085 244.501 154.254 244.416 154.406C244.331 154.559 244.216 154.694 244.079 154.802L243.933 154.922C243.792 155.042 243.625 155.13 243.446 155.177C243.266 155.224 243.078 155.23 242.895 155.194C242.713 155.159 242.541 155.082 242.392 154.971C242.244 154.859 242.122 154.715 242.037 154.55C241.394 153.573 240.86 152.527 240.445 151.434C239.999 152.525 239.443 153.57 238.787 154.55C238.702 154.715 238.58 154.859 238.432 154.971C238.283 155.082 238.111 155.159 237.929 155.194C237.746 155.23 237.558 155.224 237.379 155.177C237.199 155.13 237.032 155.042 236.891 154.922L236.745 154.802C236.607 154.695 236.491 154.561 236.405 154.409C236.319 154.256 236.263 154.088 236.242 153.914C236.222 153.74 236.235 153.564 236.283 153.396C236.33 153.227 236.411 153.07 236.519 152.932C237.285 152.031 238.143 151.213 239.079 150.492C237.941 150.479 236.809 150.323 235.71 150.028Z" fill="#263238"/>
<path d="M249.159 150.028C248.983 149.982 248.819 149.901 248.676 149.79C248.532 149.679 248.414 149.539 248.327 149.38C248.24 149.221 248.186 149.046 248.17 148.865C248.153 148.684 248.174 148.502 248.23 148.33L248.297 148.158C248.359 147.993 248.455 147.842 248.577 147.715C248.698 147.587 248.845 147.485 249.006 147.415C249.168 147.344 249.342 147.307 249.519 147.305C249.695 147.302 249.87 147.335 250.034 147.402C251.11 147.822 252.133 148.365 253.084 149.02C252.756 147.87 252.565 146.686 252.514 145.492C252.503 145.311 252.529 145.13 252.591 144.96C252.653 144.79 252.749 144.634 252.873 144.502C252.998 144.37 253.147 144.266 253.314 144.194C253.48 144.122 253.659 144.086 253.84 144.086H254.026C254.207 144.086 254.386 144.122 254.553 144.194C254.719 144.266 254.869 144.37 254.993 144.502C255.117 144.634 255.213 144.79 255.275 144.96C255.337 145.13 255.363 145.311 255.352 145.492C255.302 146.686 255.11 147.87 254.782 149.02C255.738 148.373 256.761 147.83 257.833 147.402C257.998 147.336 258.174 147.304 258.352 147.308C258.53 147.312 258.705 147.352 258.867 147.425C259.029 147.498 259.175 147.603 259.296 147.733C259.416 147.864 259.51 148.017 259.57 148.184V148.304C259.648 148.473 259.686 148.659 259.681 148.845C259.677 149.032 259.63 149.216 259.545 149.382C259.459 149.548 259.337 149.692 259.187 149.804C259.038 149.916 258.865 149.992 258.681 150.028C257.563 150.324 256.416 150.494 255.26 150.532C256.203 151.225 257.058 152.032 257.806 152.932C257.915 153.069 257.997 153.226 258.045 153.394C258.094 153.562 258.109 153.738 258.089 153.912C258.069 154.085 258.015 154.254 257.93 154.406C257.845 154.559 257.731 154.694 257.594 154.802L257.448 154.922C257.307 155.042 257.14 155.13 256.96 155.177C256.78 155.224 256.592 155.23 256.41 155.194C256.228 155.159 256.056 155.082 255.907 154.971C255.758 154.859 255.637 154.715 255.551 154.55C254.909 153.573 254.375 152.527 253.96 151.434C253.526 152.524 252.984 153.568 252.342 154.55C252.256 154.715 252.135 154.859 251.986 154.971C251.837 155.082 251.665 155.159 251.483 155.194C251.301 155.23 251.113 155.224 250.933 155.177C250.753 155.13 250.586 155.042 250.445 154.922L250.299 154.802C250.152 154.701 250.029 154.57 249.937 154.417C249.845 154.264 249.787 154.093 249.767 153.916C249.747 153.738 249.765 153.559 249.82 153.389C249.875 153.22 249.966 153.064 250.087 152.932C250.844 152.028 251.698 151.21 252.633 150.492C251.46 150.488 250.292 150.332 249.159 150.028Z" fill="#263238"/>
<path d="M262.66 150.028C262.484 149.982 262.32 149.901 262.176 149.79C262.033 149.679 261.915 149.539 261.828 149.38C261.741 149.221 261.687 149.046 261.671 148.865C261.654 148.684 261.675 148.502 261.731 148.33L261.797 148.158C261.86 147.993 261.956 147.842 262.078 147.715C262.199 147.587 262.346 147.485 262.507 147.415C262.669 147.344 262.843 147.307 263.02 147.305C263.196 147.302 263.371 147.335 263.535 147.402C264.611 147.822 265.634 148.365 266.585 149.02C266.257 147.87 266.066 146.686 266.015 145.492C266.004 145.311 266.03 145.13 266.092 144.96C266.154 144.79 266.25 144.634 266.374 144.502C266.498 144.37 266.648 144.266 266.815 144.194C266.981 144.122 267.16 144.086 267.341 144.086H267.527C267.708 144.086 267.887 144.122 268.054 144.194C268.22 144.266 268.37 144.37 268.494 144.502C268.618 144.634 268.714 144.79 268.776 144.96C268.838 145.13 268.864 145.311 268.853 145.492C268.803 146.686 268.611 147.87 268.283 149.02C269.242 148.37 270.269 147.827 271.347 147.402C271.51 147.326 271.687 147.286 271.867 147.285C272.047 147.284 272.225 147.322 272.389 147.396C272.553 147.471 272.698 147.58 272.816 147.716C272.934 147.852 273.021 148.011 273.071 148.184V148.304C273.149 148.473 273.187 148.659 273.182 148.845C273.178 149.032 273.131 149.216 273.046 149.382C272.96 149.548 272.838 149.692 272.688 149.804C272.539 149.916 272.366 149.992 272.182 150.028C271.065 150.325 269.917 150.495 268.76 150.532C269.705 151.229 270.564 152.035 271.32 152.932C271.429 153.07 271.509 153.227 271.557 153.396C271.604 153.564 271.618 153.74 271.597 153.914C271.576 154.088 271.521 154.256 271.435 154.409C271.349 154.561 271.233 154.695 271.095 154.802L270.949 154.922C270.808 155.042 270.641 155.13 270.461 155.177C270.281 155.224 270.093 155.23 269.911 155.194C269.728 155.159 269.557 155.082 269.408 154.971C269.259 154.859 269.138 154.715 269.052 154.55C268.41 153.573 267.876 152.527 267.461 151.434C267.027 152.524 266.485 153.568 265.843 154.55C265.757 154.715 265.636 154.859 265.487 154.971C265.338 155.082 265.166 155.159 264.984 155.194C264.802 155.23 264.614 155.224 264.434 155.177C264.254 155.13 264.087 155.042 263.946 154.922L263.8 154.802C263.653 154.701 263.53 154.57 263.438 154.417C263.346 154.264 263.288 154.093 263.268 153.916C263.248 153.738 263.266 153.559 263.321 153.389C263.376 153.22 263.467 153.064 263.588 152.932C264.345 152.028 265.199 151.21 266.134 150.492C264.961 150.488 263.793 150.332 262.66 150.028Z" fill="#263238"/>
<path d="M276.07 150.028C275.893 149.984 275.728 149.904 275.583 149.793C275.439 149.682 275.318 149.543 275.23 149.384C275.142 149.225 275.087 149.049 275.07 148.868C275.052 148.686 275.072 148.503 275.129 148.33L275.195 148.158C275.258 147.993 275.353 147.842 275.475 147.715C275.597 147.587 275.743 147.485 275.905 147.415C276.067 147.344 276.241 147.307 276.417 147.305C276.594 147.302 276.769 147.335 276.932 147.402C278.008 147.822 279.032 148.365 279.983 149.02C279.655 147.87 279.463 146.686 279.413 145.492C279.402 145.311 279.428 145.13 279.49 144.96C279.551 144.79 279.647 144.634 279.772 144.502C279.896 144.37 280.046 144.266 280.212 144.194C280.379 144.122 280.558 144.086 280.739 144.086H280.924C281.106 144.086 281.285 144.122 281.451 144.194C281.617 144.266 281.767 144.37 281.892 144.502C282.016 144.634 282.112 144.79 282.174 144.96C282.235 145.13 282.262 145.311 282.251 145.492C282.202 146.687 282.006 147.872 281.667 149.02C282.626 148.37 283.653 147.827 284.731 147.402C284.894 147.326 285.072 147.286 285.251 147.285C285.431 147.284 285.609 147.322 285.773 147.396C285.937 147.471 286.083 147.58 286.2 147.716C286.318 147.852 286.405 148.011 286.455 148.184V148.304C286.533 148.474 286.57 148.661 286.565 148.848C286.56 149.036 286.512 149.22 286.425 149.386C286.338 149.552 286.215 149.696 286.063 149.808C285.912 149.919 285.738 149.994 285.553 150.028C284.436 150.325 283.287 150.495 282.131 150.532C283.076 151.229 283.935 152.035 284.691 152.932C284.8 153.07 284.88 153.227 284.928 153.396C284.975 153.564 284.989 153.74 284.968 153.914C284.947 154.088 284.892 154.256 284.806 154.409C284.719 154.561 284.604 154.695 284.466 154.802L284.333 154.922C284.191 155.042 284.023 155.13 283.842 155.177C283.661 155.224 283.472 155.23 283.289 155.194C283.106 155.159 282.933 155.082 282.783 154.971C282.633 154.859 282.51 154.716 282.423 154.55C281.78 153.575 281.251 152.529 280.845 151.434C280.407 152.525 279.86 153.569 279.214 154.55C279.128 154.715 279.007 154.859 278.858 154.971C278.709 155.082 278.537 155.159 278.355 155.194C278.173 155.23 277.985 155.224 277.805 155.177C277.625 155.13 277.458 155.042 277.317 154.922L277.171 154.802C277.024 154.701 276.9 154.57 276.809 154.417C276.717 154.264 276.659 154.093 276.639 153.916C276.619 153.738 276.637 153.559 276.692 153.389C276.747 153.22 276.838 153.064 276.959 152.932C277.716 152.028 278.57 151.21 279.505 150.492C278.345 150.487 277.19 150.331 276.07 150.028Z" fill="#263238"/>
<path d="M289.518 150.028C289.341 149.984 289.175 149.904 289.03 149.793C288.886 149.682 288.766 149.543 288.677 149.384C288.589 149.225 288.534 149.049 288.517 148.868C288.499 148.686 288.519 148.503 288.576 148.33V148.158C288.639 147.993 288.734 147.842 288.856 147.715C288.978 147.587 289.124 147.485 289.286 147.415C289.448 147.344 289.622 147.307 289.798 147.305C289.975 147.302 290.15 147.335 290.313 147.402C291.389 147.822 292.413 148.365 293.364 149.02C293.035 147.87 292.844 146.686 292.793 145.492C292.783 145.311 292.809 145.13 292.871 144.96C292.932 144.79 293.028 144.634 293.153 144.502C293.277 144.37 293.427 144.266 293.593 144.194C293.759 144.122 293.939 144.086 294.12 144.086H294.305C294.486 144.086 294.666 144.122 294.832 144.194C294.998 144.266 295.148 144.37 295.273 144.502C295.397 144.634 295.493 144.79 295.555 144.96C295.616 145.13 295.643 145.311 295.632 145.492C295.583 146.687 295.387 147.872 295.048 149.02C296.007 148.37 297.034 147.827 298.112 147.402C298.275 147.326 298.452 147.286 298.632 147.285C298.812 147.284 298.99 147.322 299.154 147.396C299.318 147.471 299.464 147.58 299.581 147.716C299.699 147.852 299.786 148.011 299.836 148.184V148.304C299.914 148.474 299.951 148.661 299.946 148.848C299.941 149.036 299.893 149.22 299.806 149.386C299.719 149.552 299.596 149.696 299.444 149.808C299.293 149.919 299.119 149.994 298.934 150.028C297.816 150.325 296.668 150.495 295.512 150.532C296.457 151.229 297.316 152.035 298.072 152.932C298.181 153.07 298.261 153.227 298.309 153.396C298.356 153.564 298.37 153.74 298.349 153.914C298.328 154.088 298.273 154.256 298.187 154.409C298.1 154.561 297.985 154.695 297.847 154.802L297.701 154.922C297.559 155.042 297.393 155.13 297.213 155.177C297.033 155.224 296.845 155.23 296.663 155.194C296.48 155.159 296.308 155.082 296.16 154.971C296.011 154.859 295.889 154.715 295.804 154.55C295.161 153.575 294.632 152.529 294.226 151.434C293.788 152.525 293.241 153.569 292.595 154.55C292.509 154.715 292.388 154.859 292.239 154.971C292.09 155.082 291.918 155.159 291.736 155.194C291.554 155.23 291.365 155.224 291.186 155.177C291.006 155.13 290.839 155.042 290.698 154.922L290.552 154.802C290.405 154.701 290.281 154.57 290.19 154.417C290.098 154.264 290.04 154.093 290.02 153.916C290 153.738 290.018 153.559 290.073 153.389C290.128 153.22 290.219 153.064 290.34 152.932C291.097 152.028 291.951 151.21 292.886 150.492C291.748 150.481 290.616 150.325 289.518 150.028Z" fill="#263238"/>
<path d="M169.868 281.133C160.763 280.3 151.771 279.96 151.771 279.96C148.467 280.061 141.429 280.351 134.165 281.133C136.284 288.372 143.472 293.707 152.01 293.707C160.561 293.719 167.75 288.359 169.868 281.133Z" fill="#50BFD7"/>
<path d="M158.055 183.85C158.055 186.514 155.287 188.674 151.874 188.674C148.461 188.674 145.693 186.514 145.693 183.85C145.693 181.186 148.461 179.026 151.874 179.026C155.287 179.026 158.055 181.186 158.055 183.85Z" fill="white"/>
<path d="M262.47 76.0738L265.637 79.2408L236.817 108.061L224.149 95.3926L227.316 92.2256L236.817 101.727L262.47 76.0738ZM262.47 69.6719L236.817 95.3248L227.316 85.8237L217.747 95.3926L236.817 114.463L272.039 79.2408L262.47 69.6719Z" fill="#50BFD7"/>
<path d="M98.0325 237.872L98.7559 284.199L97.7664 294.529L109.975 294.209L111.591 292.292L120.79 232.024L98.0325 237.872Z" fill="#2C2C2C"/>
<path d="M187.467 236.589L194.015 282.457L194.326 292.834L206.391 290.982L207.759 288.893L209.318 227.936L187.467 236.589Z" fill="#2C2C2C"/>
<path d="M150.61 217.235C155.656 217.235 163.522 216.191 163.522 212.765L162.229 201.333L161.092 191.334C161.092 187.907 156.996 185.119 151.949 185.119C149.426 185.119 147.137 185.82 145.486 186.941C143.835 188.063 142.807 189.62 142.807 191.334L141.701 201.348L140.626 210.942C139.162 216.736 150.61 217.235 150.61 217.235Z" fill="#2C2C2C"/>
<path d="M212.395 232.124C212.395 242.06 205.885 248.213 195.948 248.213C186.011 248.213 177.959 240.16 177.959 230.224C177.959 220.287 185.466 209.322 194.936 212.297C205.371 215.552 212.395 222.187 212.395 232.124Z" fill="white"/>
<path d="M195.948 248.836C185.684 248.836 177.336 240.488 177.336 230.224C177.336 223.62 180.466 216.892 185.108 213.481C188.192 211.223 191.649 210.6 195.122 211.69C206.648 215.303 213.002 222.561 213.002 232.109C213.018 242.263 206.305 248.836 195.948 248.836ZM191.805 212.422C189.734 212.422 187.709 213.123 185.84 214.493C181.557 217.639 178.582 224.103 178.582 230.224C178.582 239.803 186.369 247.59 195.948 247.59C200.683 247.59 204.67 246.157 207.458 243.447C210.277 240.721 211.772 236.797 211.772 232.124C211.772 223.169 205.729 216.331 194.764 212.889C193.767 212.578 192.786 212.422 191.805 212.422Z" fill="#2C2C2C"/>
<path d="M204.296 229.227C204.296 236.579 199.483 241.127 192.132 241.127C184.781 241.127 178.831 235.177 178.831 227.826C178.831 220.474 184.376 212.36 191.384 214.556C199.094 216.986 204.296 221.892 204.296 229.227Z" fill="#2C2C2C"/>
<path d="M91.6738 232.125C91.6738 242.061 98.1841 248.214 108.121 248.214C118.058 248.214 126.11 240.161 126.11 230.225C126.11 220.288 118.603 209.323 109.133 212.298C98.6981 215.553 91.6738 222.188 91.6738 232.125Z" fill="white"/>
<path d="M108.121 248.836C97.748 248.836 91.0508 242.279 91.0508 232.124C91.0508 222.577 97.4053 215.319 108.931 211.705C112.404 210.615 115.877 211.238 118.945 213.497C123.602 216.908 126.717 223.636 126.717 230.24C126.733 240.488 118.385 248.836 108.121 248.836ZM112.264 212.422C111.283 212.422 110.301 212.578 109.32 212.889C98.3554 216.331 92.3124 223.169 92.3124 232.124C92.3124 236.797 93.8075 240.722 96.6266 243.447C99.4301 246.157 103.402 247.59 108.136 247.59C117.715 247.59 125.502 239.803 125.502 230.224C125.502 224.103 122.512 217.624 118.245 214.493C116.344 213.107 114.335 212.422 112.264 212.422Z" fill="#2C2C2C"/>
<path d="M99.7715 229.226C99.7715 236.578 104.584 241.126 111.935 241.126C119.287 241.126 125.236 235.176 125.236 227.825C125.236 220.473 119.692 212.359 112.683 214.555C104.958 216.985 99.7715 221.891 99.7715 229.226Z" fill="#2C2C2C"/>
<path d="M163.848 204.96H140.158C129.816 205.894 119.926 208.028 110.69 211.19L128.415 302.054C129.692 308.626 135.455 313.377 142.152 313.377H162.181C168.894 313.377 174.672 308.611 175.934 302.007L193.331 211.19C184.095 208.028 174.205 205.894 163.848 204.96Z" fill="white"/>
<path d="M162.182 314H142.152C135.175 314 129.132 309.031 127.808 302.178L109.975 210.769L110.489 210.598C119.927 207.374 129.879 205.256 140.096 204.337H140.159H163.879H163.91C174.128 205.256 184.096 207.358 193.534 210.598L194.048 210.769L176.542 302.132C175.233 309 169.19 314 162.182 314ZM111.408 211.595L129.023 301.929C130.238 308.19 135.767 312.738 142.152 312.738H162.182C168.583 312.738 174.112 308.175 175.311 301.882L192.599 211.595C183.41 208.495 173.723 206.471 163.801 205.567H140.19C130.269 206.471 120.581 208.495 111.408 211.595Z" fill="#2C2C2C"/>
<path d="M122.9 207.701C125.128 221.781 127.355 235.861 129.582 249.925C131.576 260.516 141.621 267.571 152.103 267.633C162.585 267.571 172.631 260.531 174.625 249.925C176.852 235.861 179.079 221.796 181.306 207.748C175.668 206.44 169.828 205.49 163.847 204.96H140.157C134.239 205.49 128.476 206.424 122.9 207.701Z" fill="#50BFD7"/>
<path d="M152.12 268.256C146.777 268.225 141.513 266.45 137.292 263.226C132.9 259.893 129.956 255.205 128.975 250.034V250.018L122.2 207.218L122.761 207.094C128.415 205.785 134.255 204.866 140.096 204.337H140.158H163.879H163.91C169.828 204.866 175.731 205.817 181.463 207.14L182.023 207.265L175.248 250.034C174.283 255.205 171.323 259.877 166.931 263.226C162.71 266.45 157.446 268.225 152.12 268.256ZM130.206 249.831C131.125 254.691 133.897 259.098 138.04 262.244C142.058 265.297 147.058 266.995 152.12 267.01C157.181 266.979 162.181 265.281 166.184 262.244C170.327 259.098 173.099 254.691 174.018 249.831L180.606 208.231C175.124 206.985 169.486 206.097 163.816 205.583H140.189C134.598 206.081 129.022 206.953 123.602 208.184L130.206 249.831Z" fill="#2C2C2C"/>
<path d="M157.728 214.281H145.766C142.589 214.281 140.004 216.867 140.004 220.044V232.006C140.004 235.183 142.589 237.768 145.766 237.768H157.728C160.905 237.768 163.491 235.183 163.491 232.006V220.044C163.491 216.867 160.921 214.281 157.728 214.281ZM136.826 209.188C135.004 209.188 133.524 210.668 133.524 212.49C133.524 214.313 135.004 215.792 136.826 215.792C138.649 215.792 140.128 214.313 140.128 212.49C140.128 210.668 138.649 209.188 136.826 209.188Z" fill="white"/>
<path d="M156.885 221.416C156.122 219.375 154.175 218.02 151.995 218.02H148.755L155.157 234.249H162.025L156.885 221.416ZM143.803 229.593L141.934 234.249H148.755L151.933 226.197H148.693C146.513 226.197 144.566 227.552 143.803 229.593ZM144.862 222.054C145.983 222.054 146.902 221.135 146.902 220.014C146.902 218.893 145.983 217.974 144.862 217.974C143.74 217.974 142.821 218.893 142.821 220.014C142.821 221.135 143.74 222.054 144.862 222.054Z" fill="#50BFD7"/>
<path d="M163.597 198.824H140.437C137.104 198.824 134.363 196.099 134.363 192.75C134.363 189.417 137.089 186.676 140.437 186.676H163.597C166.93 186.676 169.672 189.401 169.672 192.75C169.656 196.099 166.93 198.824 163.597 198.824Z" fill="#50BFD7"/>
<path d="M163.598 199.447H140.438C136.747 199.447 133.741 196.441 133.741 192.75C133.741 189.059 136.747 186.053 140.438 186.053H163.598C167.29 186.053 170.295 189.059 170.295 192.75C170.295 196.441 167.274 199.447 163.598 199.447ZM140.438 187.314C137.432 187.314 134.987 189.76 134.987 192.766C134.987 195.771 137.432 198.217 140.438 198.217H163.598C166.604 198.217 169.049 195.771 169.049 192.766C169.049 189.76 166.604 187.314 163.598 187.314H140.438Z" fill="#2C2C2C"/>
<path d="M153.303 75.4404H150.718V92.3859H153.303V75.4404Z" fill="#2C2C2C"/>
<path d="M162.601 95.9525H141.42C141.03 95.9525 140.719 95.641 140.719 95.2516V85.5329C140.719 85.1435 141.03 84.832 141.42 84.832H162.601C162.991 84.832 163.302 85.1435 163.302 85.5329V95.2672C163.302 95.641 162.991 95.9525 162.601 95.9525Z" fill="#50BFD7"/>
<path d="M162.6 96.5745H141.419C140.687 96.5745 140.095 95.9826 140.095 95.2506V85.5319C140.095 84.7999 140.687 84.208 141.419 84.208H162.6C163.332 84.208 163.924 84.7999 163.924 85.5319V95.2662C163.924 95.9826 163.332 96.5745 162.6 96.5745ZM141.419 85.4384C141.372 85.4384 141.341 85.4696 141.341 85.5163V95.2506C141.341 95.2973 141.372 95.3285 141.419 95.3285H162.6C162.647 95.3285 162.678 95.2973 162.678 95.2506V85.5319C162.678 85.4851 162.647 85.454 162.6 85.454H141.419V85.4384Z" fill="#2C2C2C"/>
<path d="M155.327 74.3019C155.327 76.1241 153.848 77.6038 152.026 77.6038C150.203 77.6038 148.724 76.1241 148.724 74.3019C148.724 72.4796 150.203 71 152.026 71C153.832 71 155.327 72.4796 155.327 74.3019Z" fill="#2C2C2C"/>
<path d="M154.316 73.0251C154.316 73.5858 153.864 74.0374 153.303 74.0374C152.743 74.0374 152.291 73.5858 152.291 73.0251C152.291 72.4644 152.743 72.0127 153.303 72.0127C153.864 72.0127 154.316 72.4644 154.316 73.0251Z" fill="#2C2C2C"/>
<path d="M171.385 165.385C180.159 165.385 187.272 158.273 187.272 149.499C187.272 140.725 180.159 133.612 171.385 133.612C162.612 133.612 155.499 140.725 155.499 149.499C155.499 158.273 162.612 165.385 171.385 165.385Z" fill="#002731"/>
<path d="M152.011 178.64C190.616 178.64 221.912 164.589 221.912 147.256C221.912 129.924 190.616 115.873 152.011 115.873C113.407 115.873 82.1113 129.924 82.1113 147.256C82.1113 164.589 113.407 178.64 152.011 178.64Z" fill="#2C2C2C"/>
<path d="M90.273 161.989C91.519 163.033 92.874 164.045 94.3692 165.011C90.7559 154.591 89.1828 143.035 89.5566 133.145C88.4196 134.157 87.3917 135.216 86.5039 136.291C86.5351 144.452 87.7655 153.454 90.273 161.989Z" fill="#50BFD7"/>
<path d="M217.504 136.275C216.601 135.2 215.573 134.141 214.436 133.129C215.028 143.112 213.018 154.871 209.031 165.431C210.573 164.45 212.006 163.438 213.299 162.379C216.087 153.657 217.551 144.514 217.504 136.275Z" fill="#50BFD7"/>
<path d="M166.278 192.859H137.76C114.694 192.859 96.0039 174.17 96.0039 151.103V144.764C96.0039 115.172 119.989 91.2021 149.566 91.2021H154.441C184.033 91.2021 208.003 115.187 208.003 144.764V151.103C208.019 174.17 189.329 192.859 166.278 192.859Z" fill="white"/>
<path d="M166.278 193.482H137.76C126.437 193.482 115.8 189.075 107.794 181.069C99.7886 173.064 95.3809 162.426 95.3809 151.103V144.764C95.3809 130.295 101.019 116.683 111.252 106.45C121.484 96.2172 135.097 90.5791 149.566 90.5791H154.441C168.91 90.5791 182.522 96.2172 192.755 106.45C202.988 116.683 208.626 130.295 208.626 144.764V151.103C208.626 162.426 204.218 173.064 196.213 181.069C188.223 189.075 177.585 193.482 166.278 193.482ZM149.581 91.8251C135.439 91.8251 122.139 97.3386 112.139 107.338C102.14 117.337 96.6269 130.638 96.6269 144.78V151.119C96.6269 162.099 100.91 172.425 108.666 180.197C116.438 187.969 126.764 192.236 137.745 192.236H166.262C177.242 192.236 187.569 187.953 195.341 180.197C203.112 172.425 207.38 162.099 207.38 151.119V144.78C207.38 130.638 201.866 117.337 191.867 107.338C181.868 97.3386 168.567 91.8251 154.425 91.8251H149.581Z" fill="#2C2C2C"/>
<path d="M140.468 169.154C140.826 171.958 142.197 174.543 144.315 176.412C146.433 178.281 149.174 179.325 152.009 179.325C154.843 179.325 157.569 178.297 159.703 176.412C161.821 174.543 163.192 171.958 163.55 169.154H140.468Z" fill="white"/>
<path d="M152.009 179.948C149.019 179.948 146.153 178.857 143.911 176.879C141.668 174.901 140.235 172.191 139.861 169.232L139.768 168.531H164.251L164.158 169.232C163.784 172.191 162.336 174.917 160.108 176.879C157.881 178.857 155 179.948 152.009 179.948ZM141.2 169.777C141.668 172.16 142.898 174.341 144.736 175.945C146.745 177.72 149.331 178.702 152.009 178.702C154.688 178.702 157.274 177.72 159.283 175.945C161.121 174.325 162.351 172.16 162.818 169.777H141.2Z" fill="#2C2C2C"/>
<path d="M152.01 124.641C169.158 124.641 184.702 119.471 196.103 111.091C186.275 98.9584 171.277 91.2021 154.44 91.2021H149.565C132.744 91.2021 117.73 98.9584 107.902 111.091C119.319 119.471 134.862 124.641 152.01 124.641Z" fill="#2C2C2C"/>
<path d="M152.01 99.1436C134.863 99.1436 119.319 104.314 107.918 112.694C117.746 124.827 132.744 132.583 149.581 132.583H154.456C171.277 132.583 186.291 124.827 196.119 112.694C184.702 104.314 169.158 99.1436 152.01 99.1436Z" fill="#50BFD7"/>
<path d="M154.456 133.222H149.581C133.149 133.222 117.793 125.887 107.435 113.1L107.03 112.586L107.56 112.196C119.537 103.381 135.33 98.5215 152.026 98.5215C168.707 98.5215 184.5 103.381 196.492 112.196L197.022 112.586L196.617 113.1C186.244 125.887 170.887 133.222 154.456 133.222ZM108.821 112.819C118.929 124.999 133.741 131.976 149.581 131.976H154.456C170.295 131.976 185.107 124.999 195.215 112.819C183.503 104.393 168.193 99.7675 152.026 99.7675C135.828 99.7675 120.518 104.393 108.821 112.819Z" fill="#2C2C2C"/>
<path d="M190.965 158.734C189.485 159.622 187.818 160.089 186.121 160.089H117.918C116.221 160.089 114.554 159.622 113.075 158.734C109.43 156.554 107.359 152.131 107.873 147.598L107.904 147.271C109.648 131.93 121.127 120.14 135.191 119.252C141.141 118.878 147.386 118.676 153.896 118.722C159.005 118.754 163.927 118.941 168.677 119.236C182.803 120.124 194.36 131.868 196.104 147.271C196.12 147.38 196.135 147.489 196.135 147.598C196.681 152.131 194.609 156.554 190.965 158.734Z" fill="white"/>
<path d="M186.105 160.712H117.919C116.112 160.712 114.336 160.214 112.748 159.264C108.854 156.943 106.705 152.333 107.25 147.52L107.281 147.193C109.056 131.54 120.784 119.517 135.144 118.613C141.359 118.224 147.667 118.053 153.897 118.084C158.818 118.115 163.802 118.286 168.708 118.598C183.162 119.501 194.936 131.525 196.712 147.178L196.743 147.505C197.288 152.302 195.139 156.912 191.245 159.248C189.703 160.214 187.912 160.712 186.105 160.712ZM152.043 119.345C146.452 119.345 140.814 119.517 135.238 119.875C121.485 120.747 110.24 132.304 108.527 147.349L108.496 147.676C107.997 151.99 109.929 156.133 113.402 158.205C114.788 159.03 116.361 159.466 117.934 159.466H186.137C187.71 159.466 189.283 159.03 190.669 158.205C194.142 156.133 196.058 151.99 195.575 147.676L195.544 147.349C193.831 132.288 182.539 120.731 168.693 119.875C163.802 119.563 158.834 119.392 153.943 119.361C153.274 119.345 152.666 119.345 152.043 119.345Z" fill="#2C2C2C"/>
<path d="M141.03 140.343C141.03 146.23 135.906 151.027 129.614 151.027C123.306 151.027 118.197 146.245 118.197 140.343C118.197 134.44 123.306 129.658 129.614 129.658C135.921 129.658 141.03 134.44 141.03 140.343Z" fill="white"/>
<path d="M129.614 151.649C122.979 151.649 117.574 146.572 117.574 140.342C117.574 134.112 122.979 129.034 129.614 129.034C136.249 129.034 141.653 134.112 141.653 140.342C141.653 146.572 136.264 151.649 129.614 151.649ZM129.614 130.28C123.664 130.28 118.82 134.797 118.82 140.342C118.82 145.886 123.664 150.403 129.614 150.403C135.563 150.403 140.407 145.886 140.407 140.342C140.407 134.797 135.563 130.28 129.614 130.28Z" fill="#2C2C2C"/>
<path d="M124.022 139.672C124.022 144.547 127.184 148.487 131.078 148.487C134.987 148.487 138.149 144.531 138.149 139.672C138.149 134.797 134.987 130.841 131.078 130.841C127.184 130.841 124.022 134.797 124.022 139.672Z" fill="#50BFD7"/>
<path d="M126.063 139.671C126.063 143.129 128.306 145.932 131.079 145.932C133.851 145.932 136.094 143.129 136.094 139.671C136.094 136.198 133.851 133.395 131.079 133.395C128.306 133.395 126.063 136.198 126.063 139.671Z" fill="#2C2C2C"/>
<path d="M125.752 133.738C125.752 134.688 126.92 135.451 128.337 135.451C129.77 135.451 130.923 134.688 130.923 133.738C130.923 132.788 129.77 132.024 128.337 132.024C126.905 132.024 125.752 132.788 125.752 133.738Z" fill="white"/>
<path d="M184.639 140.343C184.639 146.23 179.515 151.027 173.223 151.027C166.915 151.027 161.807 146.245 161.807 140.343C161.807 134.44 166.915 129.658 173.223 129.658C179.515 129.658 184.639 134.44 184.639 140.343Z" fill="white"/>
<path d="M173.223 151.649C166.588 151.649 161.184 146.572 161.184 140.342C161.184 134.112 166.588 129.034 173.223 129.034C179.858 129.034 185.262 134.112 185.262 140.342C185.262 146.572 179.858 151.649 173.223 151.649ZM173.223 130.28C167.273 130.28 162.43 134.797 162.43 140.342C162.43 145.886 167.273 150.403 173.223 150.403C179.173 150.403 184.016 145.886 184.016 140.342C184.016 134.797 179.173 130.28 173.223 130.28Z" fill="#2C2C2C"/>
<path d="M167.632 139.672C167.632 144.547 170.794 148.487 174.687 148.487C178.597 148.487 181.758 144.531 181.758 139.672C181.758 134.797 178.597 130.841 174.687 130.841C170.794 130.841 167.632 134.797 167.632 139.672Z" fill="#50BFD7"/>
<path d="M169.673 139.671C169.673 143.129 171.916 145.932 174.688 145.932C177.46 145.932 179.703 143.129 179.703 139.671C179.703 136.198 177.46 133.395 174.688 133.395C171.916 133.395 169.673 136.198 169.673 139.671Z" fill="#2C2C2C"/>
<path d="M169.346 133.738C169.346 134.688 170.514 135.451 171.931 135.451C173.364 135.451 174.517 134.688 174.517 133.738C174.517 132.788 173.364 132.024 171.931 132.024C170.514 132.024 169.346 132.788 169.346 133.738Z" fill="white"/>
<path fill-rule="evenodd" clip-rule="evenodd" d="M303.362 300.21C303.362 299.957 303.567 299.753 303.819 299.753H318.867C319.119 299.753 319.324 299.957 319.324 300.21C319.324 300.462 319.119 300.666 318.867 300.666H303.819C303.567 300.666 303.362 300.462 303.362 300.21Z" fill="#2C2C2C"/>
<path fill-rule="evenodd" clip-rule="evenodd" d="M19.5986 300.21C19.5986 299.957 19.8031 299.753 20.0553 299.753H298.804C299.056 299.753 299.26 299.957 299.26 300.21C299.26 300.462 299.056 300.666 298.804 300.666H20.0553C19.8031 300.666 19.5986 300.462 19.5986 300.21Z" fill="#2C2C2C"/>
<path fill-rule="evenodd" clip-rule="evenodd" d="M0 300.21C0 299.957 0.204459 299.753 0.456671 299.753H10.7395C10.9918 299.753 11.1962 299.957 11.1962 300.21C11.1962 300.462 10.9918 300.666 10.7395 300.666H0.456671C0.204459 300.666 0 300.462 0 300.21Z" fill="#2C2C2C"/>
<path d="M159.479 294.289C159.479 294.604 159.756 294.97 160.084 294.932C163.805 294.541 166.655 291.666 170.325 292.271C166.642 294.1 163.451 297.278 163.905 301.957C163.956 302.537 164.511 302.764 164.94 302.411C167.575 300.166 170.602 298.161 174.133 298.905C175.647 299.22 177.425 299.813 178.989 299.611C181.322 299.321 183.289 298.261 184.45 296.004C186.493 292.094 185.736 287.403 181.158 286.432C181.044 286.407 180.956 286.419 180.855 286.457C179.165 285.789 177.627 284.944 176.265 283.468C174.953 282.03 173.73 280.441 172.305 279.117C170.4 277.339 168.332 275.939 165.81 277.137C165.431 277.314 165.457 277.856 165.696 278.146C166.806 279.521 168.105 280.832 169.467 282.093C168.105 281.778 166.73 281.614 165.318 281.728C162.796 281.942 159.819 283.619 159.882 286.621C159.895 286.999 160.16 287.226 160.488 287.264C162.808 287.504 165.141 287.466 167.449 287.706C163.855 288.765 159.441 289.976 159.479 294.289Z" fill="#C4C4C4"/>
<path fill-rule="evenodd" clip-rule="evenodd" d="M169.473 276.54C170.635 276.999 171.685 277.849 172.647 278.747C173.611 279.642 174.501 280.676 175.365 281.678C175.793 282.175 176.214 282.664 176.635 283.126C177.888 284.482 179.301 285.284 180.887 285.926C181.002 285.907 181.126 285.907 181.263 285.937C183.734 286.462 185.214 288.014 185.771 289.977C186.319 291.91 185.962 294.193 184.896 296.235C183.643 298.671 181.51 299.804 179.051 300.11C178.189 300.221 177.291 300.111 176.444 299.945C176.018 299.862 175.596 299.762 175.192 299.666C175.149 299.655 175.106 299.645 175.064 299.635C174.703 299.548 174.359 299.466 174.029 299.397L174.028 299.397C170.754 298.707 167.899 300.55 165.265 302.793L165.262 302.796L165.259 302.799C164.916 303.081 164.472 303.164 164.08 302.996C163.689 302.828 163.442 302.45 163.402 302.002C162.991 297.759 165.407 294.713 168.455 292.749C167.44 292.887 166.453 293.254 165.418 293.691C165.188 293.788 164.956 293.889 164.72 293.992C163.32 294.6 161.81 295.256 160.138 295.432C159.761 295.474 159.459 295.281 159.277 295.074C159.097 294.867 158.974 294.583 158.973 294.29C158.953 291.914 160.179 290.389 161.832 289.349C162.703 288.8 163.708 288.377 164.726 288.022C164.468 288.01 164.21 287.999 163.95 287.987L163.939 287.987C162.783 287.937 161.609 287.886 160.434 287.765L160.431 287.764L160.428 287.764C159.889 287.702 159.399 287.3 159.377 286.636L159.377 286.633L159.377 286.63C159.341 284.938 160.17 283.628 161.319 282.73C162.458 281.841 163.929 281.338 165.274 281.224L165.275 281.224L165.276 281.223C166.167 281.152 167.04 281.186 167.899 281.295C166.973 280.384 166.093 279.441 165.304 278.463C165.101 278.216 164.998 277.883 165.016 277.569C165.035 277.243 165.194 276.867 165.593 276.679C166.991 276.016 168.285 276.071 169.473 276.54ZM166.03 277.589C166.028 277.596 166.025 277.608 166.024 277.626C166.022 277.657 166.026 277.696 166.039 277.736C166.052 277.776 166.069 277.806 166.084 277.823L166.086 277.826L166.087 277.828C167.176 279.176 168.456 280.469 169.808 281.722L171.201 283.012L169.352 282.583C168.025 282.276 166.705 282.121 165.358 282.229C164.181 282.329 162.903 282.773 161.94 283.525C160.987 284.27 160.359 285.298 160.385 286.605C160.388 286.672 160.409 286.699 160.422 286.712C160.44 286.73 160.477 286.753 160.542 286.761C161.683 286.879 162.831 286.929 163.994 286.979L163.998 286.98C165.156 287.03 166.33 287.081 167.5 287.202L170.04 287.466L167.59 288.188C167.528 288.207 167.465 288.225 167.402 288.244C165.639 288.763 163.795 289.306 162.369 290.203C160.926 291.111 159.965 292.347 159.982 294.283L159.982 294.285V294.287C159.982 294.294 159.984 294.312 159.994 294.339C160.005 294.366 160.02 294.39 160.037 294.409C160.043 294.417 160.049 294.422 160.054 294.426C161.551 294.264 162.895 293.682 164.294 293.076C164.536 292.971 164.779 292.866 165.025 292.762C166.67 292.066 168.417 291.444 170.405 291.772L171.948 292.026L170.548 292.721C166.944 294.511 163.982 297.535 164.406 301.906L164.406 301.909L164.407 301.911C164.412 301.979 164.431 302.018 164.444 302.038C164.458 302.058 164.47 302.065 164.478 302.069C164.486 302.072 164.498 302.075 164.518 302.072C164.537 302.068 164.571 302.057 164.615 302.022C167.252 299.777 170.449 297.612 174.235 298.409C174.581 298.482 174.941 298.568 175.299 298.654C175.341 298.664 175.384 298.674 175.427 298.684C175.831 298.781 176.234 298.876 176.638 298.955C177.448 299.114 178.221 299.2 178.923 299.109L178.924 299.109L178.925 299.109C181.131 298.835 182.932 297.849 184 295.772L184 295.77L184.001 295.769C184.977 293.901 185.263 291.884 184.8 290.252C184.345 288.65 183.158 287.371 181.052 286.924L181.05 286.923L181.047 286.923C181.047 286.923 181.047 286.923 181.046 286.923C181.043 286.924 181.038 286.925 181.031 286.928L180.849 286.996L180.668 286.925C178.937 286.24 177.324 285.359 175.893 283.809L175.892 283.808L175.891 283.807C175.427 283.298 174.985 282.785 174.547 282.276C173.708 281.301 172.885 280.345 171.96 279.485L171.959 279.484C171.016 278.604 170.081 277.865 169.102 277.479C168.151 277.103 167.151 277.058 166.03 277.589Z" fill="#2C2C2C"/>
<path d="M97.1712 250.881H206.264C207.569 250.881 208.821 251.399 209.744 252.322C210.667 253.245 211.185 254.497 211.185 255.802V317.09H92.25V255.802C92.25 254.497 92.7685 253.245 93.6914 252.322C94.6143 251.399 95.866 250.881 97.1712 250.881Z" fill="white"/>
<path fill-rule="evenodd" clip-rule="evenodd" d="M97.1705 251.506C96.0317 251.506 94.9395 251.959 94.1342 252.764C93.329 253.569 92.8766 254.662 92.8766 255.8V316.462H210.557V255.8C210.557 254.662 210.105 253.569 209.3 252.764C208.494 251.959 207.402 251.506 206.263 251.506H97.1705ZM93.2472 251.877C94.2877 250.837 95.699 250.252 97.1705 250.252H206.263C207.735 250.252 209.146 250.837 210.187 251.877C211.227 252.918 211.812 254.329 211.812 255.8V317.089C211.812 317.435 211.531 317.716 211.184 317.716H92.2493C91.9029 317.716 91.6221 317.435 91.6221 317.089V255.8C91.6221 254.329 92.2066 252.918 93.2472 251.877Z" fill="#2C2C2C"/>
<path d="M211.185 272.906C196.244 276.696 180.91 286.341 152.338 299.924C124.779 313.034 102.22 312.807 92.25 311.793V317.089H211.185V272.906Z" fill="#2C2C2C"/>
<path fill-rule="evenodd" clip-rule="evenodd" d="M211.57 272.412C211.722 272.531 211.812 272.714 211.812 272.908V317.09C211.812 317.436 211.531 317.717 211.184 317.717H92.2493C91.9029 317.717 91.6221 317.436 91.6221 317.09V311.795C91.6221 311.617 91.6972 311.448 91.8288 311.329C91.9604 311.21 92.1363 311.153 92.3128 311.171C102.198 312.176 124.636 312.408 152.068 299.358L152.068 299.358C161.478 294.885 169.441 290.844 176.437 287.294C180.06 285.456 183.423 283.749 186.595 282.181C195.872 277.596 203.491 274.212 211.03 272.3C211.218 272.252 211.417 272.294 211.57 272.412ZM152.606 300.491C125.538 313.368 103.255 313.444 92.8766 312.486V316.463H210.557V273.719C203.406 275.629 196.092 278.887 187.15 283.306C184 284.863 180.647 286.565 177.029 288.4C170.024 291.955 162.029 296.012 152.606 300.491Z" fill="#2C2C2C"/>
<path fill-rule="evenodd" clip-rule="evenodd" d="M91.6221 313.418C91.6221 313.072 91.9029 312.791 92.2493 312.791H211.184C211.531 312.791 211.812 313.072 211.812 313.418V317.099C211.812 317.446 211.531 317.727 211.184 317.727H92.2493C91.9029 317.727 91.6221 317.446 91.6221 317.099V313.418ZM92.8766 314.046V316.472H210.557V314.046H92.8766Z" fill="#2C2C2C"/>
<path d="M211 313H93V317H211V313Z" fill="white"/>
</svg>
