<svg width="224" height="163" viewBox="0 0 224 163" fill="none" xmlns="http://www.w3.org/2000/svg">
<path d="M171.458 47.1887C171.458 47.1887 165.042 22.3379 126.196 6.66568C87.3507 -9.00655 52.5977 5.50872 44.6749 23.8732C36.7521 42.2377 45.0553 52.1545 39.7683 67.8377C34.4814 83.521 7.32031 103.384 18.2821 127.471C29.2439 151.558 80.5385 158.437 122.047 153.468C163.555 148.498 195.984 93.4451 171.458 47.1887Z" fill="#50BFD7"/>
<path opacity="0.7" d="M171.458 47.1887C171.458 47.1887 165.042 22.3379 126.196 6.66568C87.3507 -9.00655 52.5977 5.50872 44.6749 23.8732C36.7521 42.2377 45.0553 52.1545 39.7683 67.8377C34.4814 83.521 7.32031 103.384 18.2821 127.471C29.2439 151.558 80.5385 158.437 122.047 153.468C163.555 148.498 195.984 93.4451 171.458 47.1887Z" fill="white"/>
<path d="M223.57 112.011C223.57 111.304 223.536 72.4027 223.485 12.3814L223.57 12.4548H105.065L105.166 12.3543C105.166 48.4591 105.166 82.5125 105.166 111.984L105.073 111.895L223.59 111.984L105.073 112.073H104.973V111.984C104.973 82.5125 104.973 48.4591 104.973 12.3543V12.2539H105.085H223.59H223.675V12.3389C223.621 72.4027 223.57 111.304 223.57 112.011Z" fill="#FAFAFA"/>
<path d="M223.585 12.3818H105.068V112.012H223.585V12.3818Z" fill="#FAFAFA"/>
<path d="M147.858 19.2607H105.302V29.0151H147.858V19.2607Z" fill="#EBEBEB"/>
<path d="M116.033 27.1349C116.033 27.1349 116.033 27.0074 116.033 26.7757C116.033 26.5439 116.033 26.2 116.033 25.7944C116.033 24.9291 116.01 23.7315 115.99 22.2867L116.071 22.3678H109.014L109.114 22.2674V24.7823C109.114 25.5935 109.114 26.37 109.114 27.1002L109.021 27.0074L114.086 27.0538L115.546 27.0808H115.932H116.075C115.91 27.0992 115.743 27.107 115.577 27.104L114.136 27.1272L109.014 27.1736H108.925V27.1349C108.925 26.3971 108.925 25.6206 108.925 24.817V23.5731C108.925 23.3645 108.925 23.152 108.925 22.9396V22.279C108.836 22.3678 109.048 22.1554 109.029 22.1785H116.087H116.168V22.2597C116.168 23.7276 116.137 24.9407 116.126 25.8176C116.126 26.2039 116.126 26.5361 116.126 26.7834C116.106 26.9033 116.075 27.021 116.033 27.1349V27.1349Z" fill="#263238"/>
<path d="M116.033 22.2705C116.033 22.2705 115.952 22.3825 115.782 22.5563C115.612 22.7302 115.361 22.9736 115.048 23.2749C114.422 23.8775 113.545 24.7004 112.572 25.5927C112.297 25.5927 112.494 25.5927 112.433 25.5927H112.409L112.363 25.5503L112.274 25.4653L112.093 25.2991L111.745 24.9746L111.084 24.3604L109.96 23.271C109.647 22.9697 109.396 22.7263 109.222 22.5525C109.126 22.4688 109.042 22.3727 108.971 22.2666C108.971 22.2666 109.091 22.3361 109.276 22.4945C109.462 22.6529 109.728 22.8808 110.049 23.1667L111.185 24.1866L111.849 24.7931L112.201 25.1137L112.382 25.2798L112.471 25.3648L112.518 25.4035L112.541 25.4266H112.417C113.391 24.5304 114.279 23.723 114.932 23.1474C115.256 22.8615 115.523 22.6297 115.705 22.4752C115.804 22.3915 115.914 22.3226 116.033 22.2705V22.2705Z" fill="#263238"/>
<path d="M111.323 24.4307C111.009 24.943 110.639 25.4186 110.218 25.8484C109.85 26.3233 109.429 26.7549 108.963 27.1348C109.278 26.6241 109.648 26.1499 110.068 25.7209C110.437 25.2455 110.858 24.8127 111.323 24.4307V24.4307Z" fill="#263238"/>
<path d="M116.078 27.1772C115.623 26.7715 115.214 26.3168 114.858 25.8213C114.449 25.3658 114.092 24.8671 113.792 24.334C114.248 24.7405 114.657 25.1966 115.012 25.6938C115.421 26.1476 115.779 26.6451 116.078 27.1772V27.1772Z" fill="#263238"/>
<path d="M142.969 23.9676C142.969 24.0256 137.986 24.0681 131.844 24.0681C125.701 24.0681 120.722 24.0256 120.722 23.9676C120.722 23.9097 125.701 23.8672 131.844 23.8672C137.986 23.8672 142.969 23.9135 142.969 23.9676Z" fill="#263238"/>
<path d="M223.587 62.5898H147.317V79.3017H223.587V62.5898Z" fill="#50BFD7"/>
<g opacity="0.8">
<path opacity="0.8" d="M223.585 62.5898H147.316V79.3017H223.585V62.5898Z" fill="white"/>
</g>
<path d="M157.616 67.8135H153.092C152.612 67.8135 152.223 68.2026 152.223 68.6827V73.2064C152.223 73.6864 152.612 74.0756 153.092 74.0756H157.616C158.096 74.0756 158.485 73.6864 158.485 73.2064V68.6827C158.485 68.2026 158.096 67.8135 157.616 67.8135Z" fill="#50BFD7"/>
<path d="M154.88 72.3322C154.796 72.3322 154.715 72.3051 154.648 72.255L153.385 71.3046C153.339 71.2763 153.3 71.2388 153.27 71.1944C153.24 71.1501 153.219 71.1 153.209 71.0473C153.199 70.9945 153.201 70.9403 153.213 70.8881C153.225 70.8359 153.248 70.7868 153.281 70.744C153.313 70.7012 153.354 70.6656 153.401 70.6395C153.447 70.6133 153.499 70.5972 153.553 70.5921C153.606 70.5871 153.66 70.5932 153.711 70.6102C153.762 70.6271 153.809 70.6544 153.848 70.6904L154.833 71.4283L156.811 69.2804C156.881 69.2051 156.978 69.1605 157.08 69.1565C157.183 69.1526 157.283 69.1895 157.358 69.2591C157.433 69.3288 157.478 69.4255 157.482 69.528C157.486 69.6306 157.449 69.7305 157.379 69.8058L155.166 72.2086C155.129 72.2479 155.085 72.2792 155.036 72.3005C154.986 72.3218 154.933 72.3326 154.88 72.3322Z" fill="white"/>
<path d="M223.587 45.793H147.317V62.5048H223.587V45.793Z" fill="#50BFD7"/>
<path d="M223.126 62.5672C223.126 62.6252 206.275 62.6677 185.491 62.6677C164.708 62.6677 147.857 62.6252 147.857 62.5672C147.857 62.5093 164.704 62.4668 185.491 62.4668C206.279 62.4668 223.126 62.5132 223.126 62.5672Z" fill="#263238"/>
<path d="M223.628 95.999H147.359V112.012H223.628V95.999Z" fill="#50BFD7"/>
<g opacity="0.8">
<path opacity="0.8" d="M223.628 96H147.359V112.013H223.628V96Z" fill="white"/>
</g>
<path d="M157.654 101.226H153.13C152.65 101.226 152.261 101.615 152.261 102.095V106.618C152.261 107.099 152.65 107.488 153.13 107.488H157.654C158.134 107.488 158.523 107.099 158.523 106.618V102.095C158.523 101.615 158.134 101.226 157.654 101.226Z" fill="#50BFD7"/>
<path d="M154.919 105.748C154.835 105.748 154.754 105.721 154.687 105.671L153.424 104.721C153.342 104.659 153.287 104.568 153.273 104.466C153.258 104.365 153.285 104.262 153.346 104.18C153.408 104.098 153.499 104.044 153.601 104.029C153.702 104.015 153.805 104.041 153.887 104.103L154.872 104.845L156.85 102.697C156.883 102.655 156.925 102.622 156.971 102.597C157.018 102.572 157.069 102.558 157.122 102.554C157.175 102.55 157.228 102.557 157.278 102.574C157.328 102.591 157.373 102.619 157.412 102.655C157.451 102.69 157.482 102.734 157.504 102.782C157.525 102.83 157.537 102.882 157.537 102.935C157.538 102.988 157.527 103.04 157.507 103.089C157.486 103.138 157.456 103.182 157.418 103.218L155.193 105.625C155.158 105.663 155.115 105.693 155.068 105.714C155.021 105.736 154.97 105.747 154.919 105.748V105.748Z" fill="white"/>
<g opacity="0.8">
<path opacity="0.8" d="M223.585 45.793H147.316V62.5048H223.585V45.793Z" fill="white"/>
</g>
<path d="M157.616 51.0176H153.092C152.612 51.0176 152.223 51.4067 152.223 51.8868V56.4105C152.223 56.8905 152.612 57.2797 153.092 57.2797H157.616C158.096 57.2797 158.485 56.8905 158.485 56.4105V51.8868C158.485 51.4067 158.096 51.0176 157.616 51.0176Z" fill="#50BFD7"/>
<path d="M154.88 55.5396C154.796 55.5396 154.715 55.5125 154.648 55.4623L153.385 54.512C153.339 54.4836 153.3 54.4461 153.27 54.4018C153.24 54.3575 153.219 54.3073 153.209 54.2546C153.199 54.2019 153.201 54.1477 153.213 54.0955C153.225 54.0432 153.248 53.9942 153.281 53.9514C153.313 53.9085 153.354 53.8729 153.401 53.8468C153.447 53.8206 153.499 53.8045 153.553 53.7995C153.606 53.7944 153.66 53.8006 153.711 53.8175C153.762 53.8344 153.809 53.8617 153.848 53.8977L154.833 54.6356L156.811 52.4877C156.881 52.4126 156.977 52.368 157.079 52.3636C157.181 52.3593 157.281 52.3956 157.356 52.4645C157.394 52.4989 157.424 52.5404 157.446 52.5866C157.468 52.6329 157.48 52.683 157.482 52.734C157.484 52.785 157.476 52.8359 157.459 52.8838C157.441 52.9317 157.414 52.9757 157.379 53.0131L155.166 55.4159C155.129 55.4553 155.085 55.4866 155.036 55.5078C154.986 55.5291 154.933 55.5399 154.88 55.5396V55.5396Z" fill="white"/>
<path d="M223.57 112.011C223.57 111.304 223.536 72.4027 223.485 12.3814L223.57 12.4548H105.065L105.166 12.3543C105.166 48.4591 105.166 82.5125 105.166 111.984L105.073 111.895L223.59 111.984L105.073 112.073H104.973V111.984C104.973 82.5125 104.973 48.4591 104.973 12.3543V12.2539H105.085H223.59H223.675V12.3389C223.621 72.4027 223.57 111.304 223.57 112.011Z" fill="#50BFD7"/>
<path d="M105.302 19.2606C105.302 19.2027 131.729 19.1602 164.326 19.1602C196.923 19.1602 223.359 19.2027 223.359 19.2606C223.359 19.3185 196.935 19.361 164.326 19.361C131.718 19.361 105.302 19.3147 105.302 19.2606Z" fill="#50BFD7"/>
<path d="M108.909 16.96C109.609 16.96 110.176 16.3927 110.176 15.6929C110.176 14.9931 109.609 14.4258 108.909 14.4258C108.209 14.4258 107.642 14.9931 107.642 15.6929C107.642 16.3927 108.209 16.96 108.909 16.96Z" fill="#50BFD7"/>
<path d="M112.432 16.96C113.132 16.96 113.699 16.3927 113.699 15.6929C113.699 14.9931 113.132 14.4258 112.432 14.4258C111.732 14.4258 111.165 14.9931 111.165 15.6929C111.165 16.3927 111.732 16.96 112.432 16.96Z" fill="#50BFD7"/>
<path d="M117.239 14.7962C117.416 14.9734 117.536 15.1992 117.585 15.445C117.634 15.6908 117.609 15.9455 117.513 16.177C117.417 16.4085 117.255 16.6063 117.046 16.7455C116.838 16.8847 116.593 16.959 116.342 16.959C116.092 16.959 115.847 16.8847 115.638 16.7455C115.43 16.6063 115.268 16.4085 115.172 16.177C115.076 15.9455 115.051 15.6908 115.099 15.445C115.148 15.1992 115.269 14.9734 115.446 14.7962C115.564 14.6785 115.703 14.5851 115.857 14.5213C116.011 14.4576 116.176 14.4248 116.342 14.4248C116.509 14.4248 116.674 14.4576 116.827 14.5213C116.981 14.5851 117.121 14.6785 117.239 14.7962V14.7962Z" fill="#50BFD7"/>
<path d="M120.812 32.929C120.903 32.9178 120.995 32.9178 121.086 32.929L121.889 32.9058L124.833 32.8672H124.872L124.895 32.8981L126.193 34.6056L126.212 34.6326V34.6635C126.212 35.4362 126.212 36.2938 126.212 37.1823V37.2827H124.93H119.629H119.544V37.1784C119.544 36.3054 119.544 35.5289 119.568 34.8606L120.472 33.4428C120.573 33.2638 120.686 33.0922 120.812 32.929C120.795 32.9807 120.771 33.0301 120.742 33.0758L120.522 33.4621L119.687 34.8876V34.8528C119.687 35.5096 119.687 36.286 119.707 37.1707L119.622 37.0857H124.922H126.108L126.007 37.1862C126.007 36.2976 126.007 35.4478 126.007 34.6674L126.027 34.7215L124.752 33.0024L124.818 33.0333L121.905 32.9947H121.094C120.998 32.9812 120.903 32.9593 120.812 32.929V32.929Z" fill="#263238"/>
<path d="M126.123 34.7752C125.94 34.8244 125.752 34.8504 125.562 34.8525C125.207 34.8834 124.697 34.9182 124.091 34.9568L124.172 34.8718C124.157 35.1947 124.051 35.5067 123.867 35.7719C123.766 35.9176 123.634 36.039 123.48 36.1273C123.31 36.2059 123.126 36.2492 122.939 36.2548C122.74 36.263 122.542 36.2271 122.358 36.1497C122.174 36.0722 122.01 35.9551 121.877 35.8067C121.655 35.5415 121.506 35.2234 121.444 34.8834L121.529 34.9529C120.965 34.9529 120.494 34.9336 120.166 34.9182C119.993 34.9216 119.82 34.9021 119.652 34.8602C119.821 34.8238 119.993 34.8082 120.166 34.8139C120.494 34.8139 120.965 34.7868 121.529 34.7752H121.583V34.8486C121.649 35.1509 121.788 35.4322 121.989 35.6676C122.103 35.7954 122.244 35.8962 122.402 35.963C122.559 36.0298 122.73 36.0609 122.901 36.0539C123.059 36.0533 123.214 36.0177 123.357 35.9496C123.491 35.8804 123.607 35.7812 123.697 35.6599C123.861 35.426 123.959 35.1527 123.982 34.868V34.7868H124.056C124.666 34.7675 125.176 34.7559 125.535 34.7521C125.731 34.7348 125.929 34.7426 126.123 34.7752V34.7752Z" fill="#263238"/>
<path d="M140.645 33.1415C140.753 33.1172 140.863 33.1068 140.973 33.1106V33.1724C140.201 33.211 137.81 33.2419 135.005 33.2419C133.266 33.2419 131.69 33.2419 130.551 33.211L129.202 33.1801C129.037 33.1856 128.871 33.1727 128.708 33.1415C128.871 33.1102 129.037 33.0973 129.202 33.1028L130.551 33.0719C131.69 33.0526 133.255 33.041 135.005 33.041C137.81 33.041 140.185 33.0719 140.973 33.1106V33.1724C140.863 33.1787 140.752 33.1683 140.645 33.1415V33.1415Z" fill="#263238"/>
<path d="M140.645 35.6727C140.752 35.6459 140.863 35.6354 140.973 35.6418V35.7036C140.201 35.7422 137.81 35.7731 135.005 35.7731C133.266 35.7731 131.69 35.7731 130.551 35.7422L129.202 35.7113C129.037 35.7144 128.871 35.7015 128.708 35.6727C128.871 35.6411 129.037 35.6268 129.202 35.6302L130.551 35.5993C131.69 35.5993 133.255 35.5723 135.005 35.5723C137.81 35.5723 140.185 35.5993 140.973 35.6418V35.7036C140.863 35.7048 140.753 35.6945 140.645 35.6727V35.6727Z" fill="#263238"/>
<path d="M140.645 38.1981C140.753 38.1738 140.863 38.1634 140.973 38.1672V38.229C140.201 38.2715 137.81 38.2985 135.005 38.2985C133.266 38.2985 131.69 38.2985 130.551 38.2715L129.202 38.2367C129.037 38.2423 128.871 38.2293 128.708 38.1981C128.871 38.1693 129.037 38.1564 129.202 38.1595L130.551 38.1286C131.69 38.1092 133.255 38.0977 135.005 38.0977C137.81 38.0977 140.185 38.1286 140.973 38.1672V38.229C140.863 38.2354 140.752 38.2249 140.645 38.1981V38.1981Z" fill="#263238"/>
<path d="M120.812 51.0362C120.902 51.0181 120.994 51.0103 121.086 51.013L121.889 50.9937L124.833 50.9551H124.872L124.895 50.986L126.193 52.6935L126.212 52.7205V52.7514C126.212 53.524 126.212 54.3817 126.212 55.2702V55.3706H124.93H119.629H119.544V55.2856C119.544 54.4126 119.544 53.6361 119.568 52.9678V52.9484L120.472 51.5307C120.57 51.364 120.68 51.204 120.8 51.0517C120.783 51.1034 120.76 51.1527 120.73 51.1985L120.51 51.5848L119.691 53.018V52.9832C119.691 53.6399 119.691 54.4164 119.711 55.3011L119.626 55.2161H124.926H126.112L126.011 55.3165C126.011 54.428 126.011 53.5781 126.011 52.7978L126.031 52.8519L124.756 51.1328L124.821 51.1637L121.909 51.1251H121.097C121 51.1043 120.904 51.0746 120.812 51.0362V51.0362Z" fill="#263238"/>
<path d="M126.123 52.871C125.94 52.9201 125.752 52.9461 125.562 52.9482C125.207 52.9791 124.697 53.0139 124.091 53.0525L124.172 52.9675C124.157 53.2904 124.051 53.6024 123.867 53.8676C123.766 54.0133 123.634 54.1347 123.48 54.223C123.31 54.3016 123.126 54.345 122.939 54.3505C122.74 54.3588 122.542 54.3229 122.358 54.2454C122.174 54.1679 122.01 54.0508 121.877 53.9024C121.655 53.6372 121.506 53.3191 121.444 52.9791L121.529 53.0487C120.965 53.0487 120.494 53.0293 120.166 53.0139C119.993 53.0198 119.82 53.0029 119.652 52.9637C119.821 52.9268 119.993 52.91 120.166 52.9134L121.529 52.8787H121.583V52.9521C121.649 53.2543 121.788 53.5356 121.989 53.7711C122.103 53.8988 122.244 53.9997 122.402 54.0665C122.559 54.1333 122.73 54.1643 122.901 54.1574C123.059 54.1568 123.214 54.1211 123.357 54.0531C123.491 53.9838 123.607 53.8847 123.697 53.7633C123.861 53.5294 123.959 53.2561 123.982 52.9714V52.8903H124.056C124.666 52.8903 125.176 52.8594 125.535 52.8555C125.731 52.8357 125.928 52.8409 126.123 52.871V52.871Z" fill="#263238"/>
<path d="M140.645 51.2362C140.753 51.2119 140.863 51.2015 140.973 51.2053V51.2671C140.201 51.3057 137.81 51.3366 135.005 51.3366C133.266 51.3366 131.69 51.3366 130.551 51.3057L129.202 51.2748C129.037 51.2804 128.871 51.2674 128.708 51.2362C128.871 51.2049 129.037 51.192 129.202 51.1975L130.551 51.1666C131.69 51.1473 133.255 51.1357 135.005 51.1357C137.81 51.1357 140.185 51.1666 140.973 51.2053V51.2671C140.863 51.2709 140.753 51.2605 140.645 51.2362V51.2362Z" fill="#263238"/>
<path d="M140.645 53.7664C140.752 53.7395 140.863 53.7291 140.973 53.7355V53.7895C140.201 53.8282 137.81 53.8591 135.005 53.8591C133.266 53.8591 131.69 53.8591 130.551 53.8282L129.202 53.7973C129.037 53.8004 128.871 53.7874 128.708 53.7586C128.871 53.727 129.037 53.7128 129.202 53.7161L130.551 53.6852C131.69 53.6659 133.255 53.6582 135.005 53.6582C137.81 53.6582 140.185 53.6852 140.973 53.7277V53.7895C140.863 53.7933 140.753 53.7856 140.645 53.7664V53.7664Z" fill="#263238"/>
<path d="M140.645 56.2938C140.753 56.2695 140.863 56.2591 140.973 56.2629V56.3247C140.201 56.3672 137.81 56.3942 135.005 56.3942C133.266 56.3942 131.69 56.3942 130.551 56.3672L129.202 56.3324C129.037 56.338 128.871 56.325 128.708 56.2938C128.871 56.265 129.037 56.2521 129.202 56.2552L130.551 56.2243C131.69 56.2049 133.255 56.1934 135.005 56.1934C137.81 56.1934 140.185 56.2243 140.973 56.2629V56.3247C140.863 56.3311 140.752 56.3206 140.645 56.2938V56.2938Z" fill="#263238"/>
<path d="M120.812 69.1309C120.902 69.1128 120.994 69.105 121.086 69.1077L121.889 69.0884L124.833 69.0498H124.872L124.895 69.0807L126.193 70.7882L126.212 70.8153V70.8462C126.212 71.6188 126.212 72.4764 126.212 73.3649V73.4653H124.93H119.629H119.544V73.3804C119.544 72.5073 119.544 71.7308 119.568 71.0625L120.472 69.6447C120.57 69.478 120.68 69.318 120.8 69.1657C120.783 69.2174 120.76 69.2668 120.73 69.3125L120.51 69.6988L119.676 71.1243V71.0895C119.676 71.7463 119.676 72.5227 119.695 73.4074L119.61 73.3224H124.91H126.096L125.996 73.4229C125.996 72.5343 125.996 71.6845 125.996 70.9041L126.015 70.9582L124.74 69.2391L124.806 69.27L121.893 69.2314H121.082C120.989 69.206 120.899 69.1724 120.812 69.1309V69.1309Z" fill="#263238"/>
<path d="M126.123 70.9657C125.94 71.0149 125.752 71.0408 125.562 71.0429C125.207 71.0738 124.697 71.1086 124.091 71.1472L124.172 71.0623C124.157 71.3851 124.051 71.6972 123.867 71.9624C123.766 72.108 123.634 72.2294 123.48 72.3178C123.311 72.3969 123.126 72.439 122.939 72.4414C122.74 72.4512 122.542 72.4164 122.358 72.3395C122.174 72.2627 122.01 72.1457 121.877 71.9971C121.655 71.7319 121.506 71.4138 121.444 71.0739L121.529 71.1434C120.965 71.1434 120.494 71.1434 120.166 71.1086C119.993 71.1145 119.82 71.0976 119.652 71.0584C119.821 71.0216 119.993 71.0047 120.166 71.0082L121.529 70.9734H121.583V71.0468C121.649 71.349 121.788 71.6304 121.989 71.8658C122.103 71.9935 122.244 72.0944 122.402 72.1612C122.559 72.228 122.73 72.259 122.901 72.2521C123.059 72.2515 123.214 72.2159 123.357 72.1478C123.491 72.0785 123.607 71.9794 123.697 71.8581C123.861 71.6242 123.959 71.3508 123.982 71.0661V70.985H124.056C124.666 70.9618 125.176 70.9541 125.535 70.9502C125.731 70.9305 125.928 70.9357 126.123 70.9657V70.9657Z" fill="#263238"/>
<path d="M140.645 69.3309C140.753 69.3066 140.863 69.2962 140.973 69.3V69.3618C140.201 69.4004 137.81 69.4314 135.005 69.4314C133.266 69.4314 131.69 69.4314 130.551 69.4004L129.202 69.3695C129.037 69.3751 128.871 69.3621 128.708 69.3309C128.871 69.2997 129.037 69.2867 129.202 69.2923L130.551 69.2614C131.69 69.2421 133.255 69.2305 135.005 69.2305C137.81 69.2305 140.185 69.2614 140.973 69.3V69.3618C140.863 69.3656 140.753 69.3552 140.645 69.3309Z" fill="#263238"/>
<path d="M140.645 71.8622C140.752 71.8353 140.863 71.8249 140.973 71.8313V71.8931C140.201 71.9317 137.81 71.9626 135.005 71.9626C133.266 71.9626 131.69 71.9626 130.551 71.9317L129.202 71.9008C129.037 71.9039 128.871 71.8909 128.708 71.8622C128.871 71.8305 129.037 71.8163 129.202 71.8197L130.551 71.7888C131.69 71.7694 133.255 71.7617 135.005 71.7617C137.81 71.7617 140.185 71.7888 140.973 71.8313V71.8931C140.863 71.8943 140.753 71.8839 140.645 71.8622V71.8622Z" fill="#263238"/>
<path d="M140.645 74.3885C140.753 74.3642 140.863 74.3538 140.973 74.3576V74.4194C140.201 74.4619 137.81 74.489 135.005 74.489C133.266 74.489 131.69 74.489 130.551 74.4619L129.202 74.4272C129.037 74.4327 128.871 74.4198 128.708 74.3885C128.871 74.3598 129.037 74.3468 129.202 74.3499L130.551 74.319C131.69 74.319 133.255 74.2881 135.005 74.2881C137.81 74.2881 140.185 74.319 140.973 74.3576V74.4194C140.863 74.4258 140.752 74.4154 140.645 74.3885V74.3885Z" fill="#263238"/>
<path d="M217.435 57.4792H214.491C214.337 57.4817 214.185 57.4536 214.042 57.3965C213.899 57.3395 213.769 57.2545 213.659 57.1466C213.55 57.0387 213.462 56.9101 213.403 56.7682C213.344 56.6264 213.313 56.4741 213.313 56.3202V51.4141H213.699V56.3048C213.699 56.4079 213.72 56.5099 213.76 56.605C213.8 56.7 213.859 56.786 213.932 56.858C214.006 56.93 214.094 56.9865 214.19 57.0242C214.286 57.0619 214.388 57.08 214.491 57.0774H217.435C217.64 57.0774 217.836 56.996 217.981 56.8511C218.126 56.7062 218.208 56.5097 218.208 56.3048V51.584H218.594V56.3048C218.596 56.4583 218.567 56.6106 218.51 56.753C218.453 56.8954 218.368 57.025 218.26 57.1343C218.152 57.2435 218.024 57.3303 217.882 57.3895C217.74 57.4487 217.588 57.4792 217.435 57.4792V57.4792Z" fill="#50BFD7"/>
<path d="M219.098 51.4424H212.832V51.8287H219.098V51.4424Z" fill="#50BFD7"/>
<path d="M214.824 51.635H214.438V51.2062C214.438 51.0013 214.519 50.8048 214.664 50.6599C214.809 50.515 215.006 50.4336 215.211 50.4336H216.756C216.961 50.4336 217.157 50.515 217.302 50.6599C217.447 50.8048 217.528 51.0013 217.528 51.2062V51.55H217.142V51.2062C217.142 51.1038 217.101 51.0055 217.029 50.9331C216.957 50.8606 216.858 50.8199 216.756 50.8199H215.211C215.108 50.8199 215.01 50.8606 214.937 50.9331C214.865 51.0055 214.824 51.1038 214.824 51.2062V51.635Z" fill="#50BFD7"/>
<path d="M215.071 56.0352C214.972 55.4874 214.938 54.9298 214.97 54.3741C214.938 53.8196 214.972 53.2633 215.071 52.7168C215.172 53.263 215.206 53.8196 215.171 54.3741C215.206 54.9298 215.172 55.4877 215.071 56.0352V56.0352Z" fill="#50BFD7"/>
<path d="M215.98 56.0352C215.88 55.4874 215.847 54.9298 215.879 54.3741C215.847 53.8196 215.881 53.2633 215.98 52.7168C216.081 53.263 216.115 53.8196 216.08 54.3741C216.115 54.9298 216.081 55.4877 215.98 56.0352V56.0352Z" fill="#50BFD7"/>
<path d="M216.894 56.0352C216.795 55.4874 216.761 54.9298 216.794 54.3741C216.761 53.8196 216.795 53.2633 216.894 52.7168C216.995 53.263 217.029 53.8196 216.995 54.3741C217.029 54.9298 216.996 55.4877 216.894 56.0352V56.0352Z" fill="#50BFD7"/>
<path d="M217.435 73.318H214.491C214.179 73.317 213.88 73.1925 213.659 72.9718C213.438 72.751 213.314 72.4519 213.313 72.1397V67.249H213.699V72.1397C213.699 72.3498 213.783 72.5512 213.931 72.6997C214.08 72.8482 214.281 72.9317 214.491 72.9317H217.435C217.642 72.9266 217.838 72.841 217.982 72.693C218.127 72.545 218.208 72.3465 218.208 72.1397V67.419H218.594V72.1397C218.596 72.2935 218.568 72.4463 218.511 72.5892C218.454 72.732 218.369 72.8621 218.261 72.9717C218.153 73.0814 218.025 73.1685 217.883 73.228C217.741 73.2874 217.589 73.318 217.435 73.318Z" fill="#50BFD7"/>
<path d="M219.098 67.2764H212.832V67.6627H219.098V67.2764Z" fill="#50BFD7"/>
<path d="M214.824 67.47H214.438V67.0412C214.438 66.8363 214.519 66.6397 214.664 66.4949C214.809 66.35 215.006 66.2686 215.211 66.2686H216.756C216.961 66.2686 217.157 66.35 217.302 66.4949C217.447 66.6397 217.528 66.8363 217.528 67.0412V67.385H217.142V67.0412C217.142 66.9387 217.101 66.8405 217.029 66.768C216.957 66.6956 216.858 66.6549 216.756 66.6549H215.211C215.108 66.6549 215.01 66.6956 214.937 66.768C214.865 66.8405 214.824 66.9387 214.824 67.0412V67.47Z" fill="#50BFD7"/>
<path d="M215.072 71.8702C214.938 70.7681 214.938 69.6538 215.072 68.5518C215.206 69.6538 215.206 70.7681 215.072 71.8702Z" fill="#50BFD7"/>
<path d="M215.979 71.8702C215.845 70.7681 215.845 69.6538 215.979 68.5518C216.113 69.6538 216.113 70.7681 215.979 71.8702V71.8702Z" fill="#50BFD7"/>
<path d="M216.896 71.8702C216.762 70.7681 216.762 69.6538 216.896 68.5518C217.03 69.6538 217.03 70.7681 216.896 71.8702V71.8702Z" fill="#50BFD7"/>
<path d="M217.435 108.129H214.491C214.337 108.131 214.185 108.103 214.042 108.046C213.899 107.989 213.769 107.904 213.659 107.796C213.55 107.688 213.462 107.56 213.403 107.418C213.344 107.276 213.313 107.124 213.313 106.97V102.079H213.699V106.97C213.699 107.073 213.72 107.175 213.76 107.27C213.8 107.365 213.859 107.451 213.932 107.523C214.006 107.595 214.094 107.652 214.19 107.689C214.286 107.727 214.388 107.745 214.491 107.742H217.435C217.64 107.742 217.836 107.661 217.981 107.516C218.126 107.371 218.208 107.175 218.208 106.97V102.234H218.594V106.954C218.596 107.108 218.567 107.26 218.51 107.403C218.453 107.545 218.368 107.675 218.26 107.784C218.152 107.893 218.024 107.98 217.882 108.039C217.74 108.098 217.588 108.129 217.435 108.129Z" fill="#50BFD7"/>
<path d="M219.098 102.091H212.832V102.477H219.098V102.091Z" fill="#50BFD7"/>
<path d="M214.824 102.284H214.438V101.852C214.438 101.647 214.519 101.45 214.664 101.305C214.809 101.161 215.006 101.079 215.211 101.079H216.756C216.961 101.079 217.157 101.161 217.302 101.305C217.447 101.45 217.528 101.647 217.528 101.852V102.199H217.142V101.852C217.142 101.749 217.101 101.651 217.029 101.579C216.957 101.506 216.858 101.465 216.756 101.465H215.211C215.108 101.465 215.01 101.506 214.937 101.579C214.865 101.651 214.824 101.749 214.824 101.852V102.284Z" fill="#50BFD7"/>
<path d="M215.072 106.685C214.938 105.583 214.938 104.468 215.072 103.366C215.206 104.468 215.206 105.583 215.072 106.685Z" fill="#50BFD7"/>
<path d="M215.979 106.685C215.845 105.583 215.845 104.468 215.979 103.366C216.113 104.468 216.113 105.583 215.979 106.685V106.685Z" fill="#50BFD7"/>
<path d="M216.896 106.685C216.762 105.583 216.762 104.468 216.896 103.366C217.03 104.468 217.03 105.583 216.896 106.685V106.685Z" fill="#50BFD7"/>
<path d="M223.126 29.0155C223.126 29.0696 206.275 29.1159 185.492 29.1159C164.708 29.1159 147.854 29.0657 147.854 29.0155C147.854 28.9653 164.701 28.915 185.488 28.915C206.275 28.915 223.126 28.9614 223.126 29.0155Z" fill="#263238"/>
<path d="M223.126 45.7928C223.126 45.8469 206.275 45.8933 185.492 45.8933C164.708 45.8933 147.854 45.8469 147.854 45.7928C147.854 45.7387 164.701 45.6924 185.488 45.6924C206.275 45.6924 223.126 45.7349 223.126 45.7928Z" fill="#263238"/>
<path d="M223.126 79.0008C223.126 79.0549 206.275 79.1013 185.492 79.1013C164.708 79.1013 147.854 79.0549 147.854 79.0008C147.854 78.9467 164.701 78.9004 185.488 78.9004C206.275 78.9004 223.126 78.9429 223.126 79.0008Z" fill="#263238"/>
<path d="M223.126 95.9999C223.126 96.0578 206.275 96.1003 185.491 96.1003C164.708 96.1003 147.857 96.0578 147.857 95.9999C147.857 95.9419 164.704 95.8994 185.491 95.8994C206.279 95.8994 223.126 95.9458 223.126 95.9999Z" fill="#263238"/>
<path d="M157.619 40.6547C157.619 40.6547 157.704 40.6547 157.851 40.6006C158.064 40.5331 158.241 40.3846 158.346 40.1872C158.496 39.9361 158.419 39.5614 158.431 39.1365C158.442 38.7115 158.431 38.2286 158.431 37.6994C158.431 37.1701 158.431 36.5791 158.431 35.9571C158.431 35.7987 158.431 35.6404 158.431 35.4781C158.444 35.3238 158.431 35.1683 158.392 35.0184C158.343 34.8709 158.251 34.7415 158.128 34.6471C158.005 34.5527 157.856 34.4976 157.7 34.4891H153.092C152.913 34.4905 152.74 34.5541 152.602 34.6689C152.465 34.7838 152.372 34.9428 152.338 35.1188C152.311 35.4742 152.338 35.8915 152.338 36.2778C152.338 37.0504 152.338 37.7844 152.338 38.4913C152.338 38.8429 152.338 39.1867 152.338 39.5228C152.328 39.679 152.336 39.8358 152.362 39.9902C152.395 40.1364 152.468 40.2703 152.574 40.3765C152.676 40.4734 152.801 40.5426 152.937 40.5774C153.076 40.6011 153.218 40.6088 153.358 40.6006H154.197L156.719 40.6315L157.407 40.6508C157.487 40.6489 157.567 40.6554 157.646 40.6701C157.567 40.681 157.486 40.681 157.407 40.6701L156.719 40.6894L154.197 40.7242H153.358C153.205 40.7351 153.05 40.7274 152.899 40.701C152.73 40.663 152.575 40.5789 152.451 40.4583C152.327 40.3376 152.238 40.185 152.196 40.0173C152.163 39.8494 152.152 39.6779 152.165 39.5073C152.165 39.1712 152.165 38.8274 152.165 38.4759C152.165 37.7689 152.165 37.0311 152.165 36.2623V35.6828C152.152 35.4809 152.152 35.2783 152.165 35.0763C152.21 34.8579 152.329 34.6617 152.502 34.521C152.675 34.3802 152.892 34.3035 153.115 34.3037H157.704C157.895 34.317 158.077 34.3865 158.227 34.5034C158.378 34.6204 158.49 34.7794 158.55 34.9604C158.595 35.1291 158.611 35.3042 158.597 35.4781C158.597 35.6404 158.597 35.7987 158.597 35.9571C158.597 36.5791 158.597 37.1624 158.597 37.6994C158.597 38.2364 158.597 38.7115 158.597 39.1365C158.597 39.3489 158.597 39.546 158.597 39.7275C158.602 39.9013 158.56 40.0733 158.477 40.2259C158.355 40.4325 158.157 40.5824 157.925 40.6431C157.826 40.6751 157.72 40.6792 157.619 40.6547V40.6547Z" fill="#263238"/>
<path d="M157.619 90.7872C157.619 90.7872 157.704 90.7872 157.851 90.7332C158.064 90.6656 158.241 90.5172 158.346 90.3198C158.496 90.0687 158.419 89.694 158.431 89.269C158.442 88.8441 158.431 88.3612 158.431 87.8319C158.431 87.3027 158.431 86.7116 158.431 86.0897C158.431 85.9313 158.431 85.7729 158.431 85.6107C158.444 85.4563 158.431 85.3009 158.392 85.1509C158.343 85.0034 158.251 84.874 158.128 84.7796C158.005 84.6852 157.856 84.6302 157.7 84.6217H153.092C152.913 84.6229 152.741 84.6859 152.603 84.8C152.466 84.9141 152.372 85.0722 152.338 85.2475C152.311 85.6068 152.338 86.0201 152.338 86.4065C152.338 87.1791 152.338 87.9131 152.338 88.62C152.338 88.9716 152.338 89.3154 152.338 89.6476C152.328 89.8051 152.336 89.9632 152.362 90.1189C152.393 90.2656 152.467 90.3998 152.574 90.5052C152.675 90.6041 152.8 90.6735 152.937 90.7061C153.076 90.733 153.217 90.7421 153.358 90.7332H154.197L156.719 90.7641L157.407 90.7834C157.487 90.7751 157.567 90.7751 157.646 90.7834C157.568 90.8007 157.487 90.8072 157.407 90.8027L156.719 90.822L154.197 90.8529H153.358C153.205 90.8638 153.05 90.8561 152.899 90.8297C152.73 90.7917 152.575 90.7076 152.451 90.587C152.327 90.4663 152.238 90.3137 152.196 90.146C152.162 89.9768 152.152 89.804 152.165 89.6322C152.165 89.2999 152.165 88.9561 152.165 88.6046C152.165 87.8976 152.165 87.1598 152.165 86.391V85.8115C152.152 85.6096 152.152 85.407 152.165 85.205C152.206 84.983 152.324 84.7824 152.497 84.6378C152.671 84.4932 152.889 84.4138 153.115 84.4131H157.704C157.895 84.4264 158.077 84.4959 158.227 84.6128C158.378 84.7298 158.49 84.8888 158.55 85.0698C158.595 85.2385 158.611 85.4135 158.597 85.5875C158.597 85.7497 158.597 85.9081 158.597 86.0665C158.597 86.6885 158.597 87.2718 158.597 87.8088C158.597 88.3457 158.597 88.8209 158.597 89.2459C158.597 89.4583 158.597 89.6553 158.597 89.8369C158.602 90.0107 158.56 90.1827 158.477 90.3353C158.417 90.4376 158.338 90.527 158.243 90.598C158.148 90.669 158.04 90.7202 157.925 90.7486C157.828 90.7872 157.723 90.8004 157.619 90.7872V90.7872Z" fill="#263238"/>
<path d="M147.297 110.578C147.297 110.578 147.297 110.497 147.297 110.343C147.297 110.188 147.297 109.956 147.297 109.651C147.297 109.033 147.297 108.137 147.297 106.989C147.297 104.672 147.297 101.33 147.297 97.2042C147.297 88.9448 147.398 77.5332 147.514 64.9278C147.63 52.3225 147.718 40.9147 147.792 32.6476C147.819 28.5218 147.838 25.1802 147.854 22.8623C147.854 21.7034 147.854 20.8187 147.877 20.2045C147.877 19.9032 147.877 19.6752 147.877 19.513C147.877 19.3507 147.877 19.2773 147.877 19.2773C147.877 19.2773 147.877 19.3546 147.877 19.513C147.877 19.6714 147.877 19.8993 147.877 20.2045C147.877 20.8187 147.877 21.715 147.877 22.8623C147.877 25.1802 147.877 28.5218 147.877 32.6476C147.858 40.9069 147.776 52.3225 147.657 64.9278C147.537 77.5332 147.452 88.9371 147.382 97.2042C147.355 101.33 147.336 104.672 147.321 106.989C147.321 108.148 147.321 109.033 147.297 109.651C147.297 109.949 147.297 110.177 147.297 110.343C147.297 110.509 147.297 110.578 147.297 110.578Z" fill="#263238"/>
<path d="M190.313 52.5233C190.313 52.5774 184.518 52.6237 177.348 52.6237C170.178 52.6237 164.383 52.5774 164.383 52.5233C164.383 52.4692 170.178 52.4229 177.348 52.4229C184.518 52.4229 190.313 52.4653 190.313 52.5233Z" fill="#263238"/>
<path d="M206.518 55.3817C206.518 55.4396 197.085 55.4821 185.453 55.4821C173.821 55.4821 164.383 55.4396 164.383 55.3817C164.383 55.3237 173.817 55.2812 185.453 55.2812C197.088 55.2812 206.518 55.3353 206.518 55.3817Z" fill="#263238"/>
<path d="M190.313 86.1747C190.313 86.2287 184.518 86.2751 177.348 86.2751C170.178 86.2751 164.383 86.2287 164.383 86.1747C164.383 86.1206 170.178 86.0742 177.348 86.0742C184.518 86.0742 190.313 86.1167 190.313 86.1747Z" fill="#263238"/>
<path d="M206.518 89.0331C206.518 89.0871 197.085 89.1335 185.453 89.1335C173.821 89.1335 164.383 89.0871 164.383 89.0331C164.383 88.979 173.817 88.9326 185.453 88.9326C197.088 88.9326 206.518 88.979 206.518 89.0331Z" fill="#263238"/>
<path d="M190.313 36.3524C190.313 36.4103 184.518 36.4567 177.348 36.4567C170.178 36.4567 164.383 36.4103 164.383 36.3524C164.383 36.2944 170.178 36.252 177.348 36.252C184.518 36.252 190.313 36.2983 190.313 36.3524Z" fill="#263238"/>
<path d="M206.518 39.2157C206.518 39.2698 197.085 39.3161 185.453 39.3161C173.821 39.3161 164.383 39.2698 164.383 39.2157C164.383 39.1616 173.817 39.1152 185.453 39.1152C197.088 39.1152 206.518 39.1616 206.518 39.2157Z" fill="#263238"/>
<path d="M190.313 69.0106C190.313 69.0647 184.518 69.111 177.348 69.111C170.178 69.111 164.383 69.0647 164.383 69.0106C164.383 68.9565 170.178 68.9102 177.348 68.9102C184.518 68.9102 190.313 68.9565 190.313 69.0106Z" fill="#263238"/>
<path d="M206.518 71.869C206.518 71.9269 197.085 71.9694 185.453 71.9694C173.821 71.9694 164.383 71.9269 164.383 71.869C164.383 71.8111 173.817 71.7686 185.453 71.7686C197.088 71.7686 206.518 71.8149 206.518 71.869Z" fill="#263238"/>
<path d="M190.313 102.14C190.313 102.195 184.518 102.241 177.348 102.241C170.178 102.241 164.383 102.195 164.383 102.14C164.383 102.086 170.178 102.04 177.348 102.04C184.518 102.04 190.313 102.079 190.313 102.14Z" fill="#263238"/>
<path d="M206.518 105C206.518 105.054 197.085 105.1 185.453 105.1C173.821 105.1 164.383 105.054 164.383 105C164.383 104.946 173.817 104.899 185.453 104.899C197.088 104.899 206.518 104.946 206.518 105Z" fill="#263238"/>
<path d="M219.735 21.3682H214.631V26.4713H219.735V21.3682Z" fill="#E0E0E0"/>
<path d="M211.425 21.3682H206.322V26.4713H211.425V21.3682Z" fill="#E0E0E0"/>
<path d="M203.115 21.3682H198.012V26.4713H203.115V21.3682Z" fill="#E0E0E0"/>
<path d="M110.493 34.7295L112.66 37.5573L114.514 34.7295H110.493Z" fill="#263238"/>
<path d="M38.6598 123.96C38.6598 123.96 36.1788 123.419 35.2253 122.196C34.2632 120.972 33.6978 120.432 30.3392 118.972C27.0059 117.512 25.681 115.622 25.681 115.622C25.681 115.622 23.3519 117.757 28.4658 120.204C31.5966 121.706 21.3097 121.487 18.2127 121.141C18.2127 121.141 16.4237 122.12 19.3857 123.554C22.3477 124.989 19.4954 125.099 25.3604 127.571C31.2168 130.052 38.1788 131.352 39.5965 127.816C41.0058 124.28 38.6598 123.96 38.6598 123.96Z" fill="white"/>
<path fill-rule="evenodd" clip-rule="evenodd" d="M25.6808 115.621L25.4527 115.372L25.7363 115.112L25.9568 115.427L25.9569 115.427L25.9572 115.427L25.9586 115.429C25.9603 115.432 25.9634 115.436 25.9677 115.442C25.9765 115.454 25.9905 115.472 26.0099 115.497C26.0488 115.547 26.1094 115.621 26.1931 115.716C26.3605 115.906 26.62 116.178 26.9823 116.495C27.7065 117.129 28.842 117.947 30.4739 118.662C32.1552 119.393 33.1621 119.904 33.8725 120.394C34.595 120.893 35.0015 121.364 35.4904 121.986L35.4908 121.987L35.4913 121.987C35.9083 122.523 36.6917 122.937 37.4224 123.221C37.7795 123.36 38.1087 123.463 38.3486 123.53C38.4683 123.564 38.5653 123.589 38.6318 123.605C38.665 123.613 38.6906 123.619 38.7075 123.623C38.7137 123.625 38.7187 123.626 38.7225 123.627C38.7263 123.627 38.7305 123.628 38.7352 123.629C38.7394 123.63 38.7439 123.631 38.7488 123.632C38.7719 123.636 38.8032 123.643 38.8411 123.652C38.9168 123.672 39.02 123.703 39.1377 123.754C39.3724 123.855 39.673 124.036 39.9218 124.352C40.4364 125.007 40.6377 126.114 39.9098 127.94L39.9096 127.941C39.5117 128.933 38.7246 129.574 37.7108 129.935C36.706 130.294 35.4676 130.384 34.1182 130.286C31.4178 130.089 28.1752 129.13 25.2285 127.881C22.2919 126.643 21.4637 125.969 21.015 125.376C20.9361 125.272 20.8677 125.168 20.8078 125.077C20.7879 125.047 20.769 125.018 20.751 124.991C20.6755 124.879 20.6016 124.778 20.5004 124.673C20.2983 124.462 19.9605 124.207 19.2383 123.857C18.4781 123.489 17.9872 123.134 17.6951 122.79C17.3948 122.435 17.2961 122.079 17.3561 121.749C17.4128 121.436 17.6009 121.208 17.748 121.07C17.824 120.998 17.8966 120.944 17.9505 120.907C17.9777 120.888 18.0008 120.873 18.0179 120.863C18.0264 120.858 18.0336 120.854 18.0391 120.85C18.0418 120.849 18.0442 120.847 18.0461 120.846L18.0486 120.845L18.0496 120.844L18.0501 120.844C18.0503 120.844 18.0505 120.844 18.2125 121.14L18.0505 120.844L18.144 120.793L18.25 120.805C19.7802 120.976 23.1096 121.117 25.6627 121.027C26.9524 120.982 27.9951 120.879 28.5159 120.711C28.5554 120.698 28.5891 120.686 28.6177 120.674C28.5499 120.628 28.4531 120.572 28.3197 120.508C25.731 119.269 24.8884 118.045 24.8187 117.017C24.7844 116.512 24.943 116.102 25.1049 115.823C25.186 115.684 25.2693 115.575 25.3335 115.499C25.3657 115.461 25.3934 115.431 25.414 115.41C25.4244 115.4 25.433 115.391 25.4395 115.385C25.4428 115.382 25.4455 115.379 25.4477 115.377L25.4506 115.374L25.4518 115.373L25.4523 115.373C25.4525 115.373 25.4527 115.372 25.6808 115.621ZM18.2969 121.489C18.2708 121.508 18.2409 121.533 18.2105 121.561C18.1147 121.651 18.0406 121.758 18.0203 121.869C18.0034 121.963 18.0128 122.12 18.2101 122.353C18.4156 122.595 18.8118 122.901 19.5326 123.25C20.2915 123.617 20.7079 123.914 20.9873 124.205C21.1269 124.35 21.2256 124.487 21.3113 124.615C21.3365 124.652 21.3597 124.688 21.3821 124.721C21.4383 124.807 21.489 124.884 21.5534 124.969C21.8853 125.408 22.5633 126.025 25.4912 127.259L25.4918 127.26C28.4016 128.492 31.5682 129.423 34.1673 129.612C35.4677 129.707 36.6016 129.614 37.4839 129.3C38.3571 128.988 38.9719 128.465 39.2829 127.69C39.9641 125.98 39.6971 125.159 39.391 124.77C39.2295 124.564 39.0317 124.443 38.8705 124.374C38.7903 124.339 38.7213 124.318 38.6741 124.306C38.6507 124.3 38.6329 124.297 38.6223 124.295C38.6171 124.294 38.6136 124.293 38.6121 124.293C38.6114 124.293 38.6111 124.293 38.6114 124.293L38.6007 124.291L38.5878 124.288L38.6596 123.959C38.5878 124.288 38.5877 124.288 38.5876 124.288L38.5874 124.288L38.585 124.288L38.5786 124.286C38.5732 124.285 38.5654 124.283 38.5555 124.281C38.5356 124.277 38.5069 124.27 38.4704 124.261C38.3975 124.243 38.2932 124.216 38.1655 124.18C37.9104 124.108 37.5597 123.999 37.1774 123.85C36.4295 123.559 35.4959 123.091 34.9592 122.403C34.4863 121.802 34.1291 121.392 33.4889 120.95C32.8365 120.499 31.8815 120.01 30.2044 119.281L30.2036 119.281C28.5024 118.535 27.309 117.678 26.5375 117.003C26.1527 116.666 25.8731 116.374 25.6879 116.164C25.5732 116.362 25.4696 116.638 25.4922 116.972C25.5364 117.623 26.0862 118.691 28.6113 119.899L28.6116 119.899C28.8189 119.999 28.9909 120.1 29.1179 120.207C29.2363 120.307 29.3689 120.456 29.3871 120.659C29.4076 120.887 29.2755 121.05 29.1542 121.144C29.0353 121.236 28.8812 121.302 28.7238 121.353C28.0995 121.555 26.964 121.657 25.6862 121.702C23.1694 121.79 19.9109 121.658 18.2969 121.489ZM18.3758 121.436C18.3763 121.435 18.3765 121.435 18.3763 121.435L18.3758 121.436Z" fill="#2C2C2C"/>
<path d="M79.6558 103.798C79.6558 103.798 72.6347 137.823 69.4364 139.697C66.8626 141.207 47.1328 134.785 39.6392 132.262C37.8586 131.671 36.77 131.283 36.77 131.283L38.0611 122.558L42.289 123.131L63.3437 125.992C63.3437 125.992 70.4406 91.4185 75.5377 90.9966C80.6431 90.5662 79.6558 103.798 79.6558 103.798Z" fill="#2C2C2C"/>
<path d="M120.912 90.7861C120.912 90.7861 145.815 115.925 147.452 128.49C147.452 128.49 143.663 135.596 120.853 149.149L118.819 143.334C118.819 143.334 131.553 128.718 135.975 125.022C135.975 125.022 116.035 108.533 116.499 103.858C116.963 99.1658 118.119 91.0309 120.912 90.7861Z" fill="#2C2C2C"/>
<path d="M131.098 101.343C131.098 106.727 127.571 110.061 122.187 110.061C116.803 110.061 112.44 105.698 112.44 100.314C112.44 94.9299 116.507 88.989 121.638 90.6008C127.292 92.3645 131.098 95.9594 131.098 101.343Z" fill="white"/>
<path fill-rule="evenodd" clip-rule="evenodd" d="M115.372 93.0524C113.768 94.9454 112.777 97.6983 112.777 100.314C112.777 105.512 116.989 109.723 122.186 109.723C124.808 109.723 126.946 108.913 128.426 107.479C129.905 106.046 130.76 103.96 130.76 101.344C130.76 96.1652 127.115 92.6631 121.537 90.9233L121.537 90.9231C119.139 90.1697 116.971 91.1654 115.372 93.0524ZM121.739 90.2789C119.006 89.4207 116.574 90.5896 114.857 92.6159C113.145 94.6364 112.102 97.5459 112.102 100.314C112.102 105.884 116.616 110.398 122.186 110.398C124.948 110.398 127.266 109.542 128.896 107.964C130.527 106.384 131.435 104.111 131.435 101.344C131.435 95.7542 127.469 92.0665 121.739 90.2789Z" fill="#2C2C2C"/>
<path d="M126.718 99.7733C126.718 103.756 124.11 106.221 120.127 106.221C116.144 106.221 112.92 102.997 112.92 99.0138C112.92 95.0307 115.925 90.6341 119.73 91.824C123.899 93.1404 126.718 95.7986 126.718 99.7733Z" fill="#2C2C2C"/>
<path d="M65.6978 101.343C65.6978 106.727 69.2252 110.06 74.6091 110.06C79.993 110.06 84.3474 105.689 84.3474 100.314C84.3474 94.938 80.2799 88.9887 75.1492 90.6005C69.5036 92.3642 65.6978 95.9591 65.6978 101.343Z" fill="white"/>
<path fill-rule="evenodd" clip-rule="evenodd" d="M81.93 92.6199C83.6422 94.6413 84.6851 97.5507 84.6851 100.315C84.6851 105.876 80.1801 110.399 74.6092 110.399C71.8474 110.399 69.5293 109.543 67.8997 107.964C66.2689 106.384 65.3604 104.112 65.3604 101.344C65.3604 95.755 69.3264 92.0673 75.0484 90.2796C77.7811 89.4213 80.2129 90.5925 81.93 92.6199ZM81.4149 93.0562C79.8156 91.168 77.6484 90.1705 75.2505 90.9238L75.25 90.9239C69.6811 92.6637 66.0355 96.1658 66.0355 101.344C66.0355 103.96 66.8906 106.047 68.3695 107.479C69.8496 108.913 71.9871 109.724 74.6092 109.724C79.8062 109.724 84.01 105.504 84.01 100.315C84.01 97.7033 83.0192 94.9503 81.4149 93.0562Z" fill="#2C2C2C"/>
<path d="M70.0859 99.7733C70.0859 103.756 72.6935 106.221 76.6766 106.221C80.6597 106.221 83.8833 102.997 83.8833 99.0138C83.8833 95.0307 80.8791 90.6341 77.0817 91.824C72.896 93.1404 70.0859 95.7986 70.0859 99.7733Z" fill="#2C2C2C"/>
<path d="M110.667 144.542C104.574 143.985 98.5574 143.757 98.5574 143.757C96.3464 143.824 91.6376 144.018 86.7769 144.542C88.1946 149.385 93.0047 152.955 98.7177 152.955C104.439 152.964 109.249 149.377 110.667 144.542Z" fill="#50BFD7"/>
<path d="M110.17 145.048C110.693 142.989 121.166 90.5167 121.166 90.5167C121.166 90.5167 93.2165 82.2636 75.3433 90.5167L86.8031 145.504L110.17 145.048Z" fill="white"/>
<path fill-rule="evenodd" clip-rule="evenodd" d="M121.26 90.1915C121.261 90.1916 121.261 90.1917 121.165 90.5154C121.496 90.5815 121.496 90.5817 121.496 90.5821L121.496 90.5839L121.378 91.1713C121.302 91.5561 121.189 92.1208 121.045 92.8402C120.758 94.279 120.347 96.3368 119.852 98.8125C118.862 103.764 117.536 110.387 116.194 117.075C113.513 130.441 110.761 144.089 110.497 145.13L110.433 145.379L86.5292 145.845L74.9575 90.3215L75.2012 90.2089C84.2244 86.0424 95.757 86.0517 104.994 87.085C109.619 87.6025 113.684 88.3786 116.592 89.0253C118.046 89.3487 119.212 89.6399 120.015 89.8504C120.416 89.9556 120.727 90.0407 120.938 90.0996C121.043 90.1291 121.124 90.152 121.178 90.1676C121.205 90.1754 121.225 90.1813 121.239 90.1854L121.255 90.19L121.259 90.1912L121.26 90.1915ZM121.165 90.5154L121.496 90.5815L121.557 90.279L121.261 90.1917L121.165 90.5154ZM120.773 90.7546C120.768 90.753 120.762 90.7514 120.756 90.7498C120.549 90.6919 120.241 90.6077 119.844 90.5034C119.048 90.2948 117.891 90.0057 116.446 89.6843C113.555 89.0415 109.515 88.2701 104.919 87.7559C95.7974 86.7355 84.5427 86.7352 75.7282 90.7105L87.0759 145.159L109.9 144.714C110.378 142.569 112.983 129.651 115.533 116.942C116.874 110.255 118.2 103.632 119.19 98.6802C119.685 96.2045 120.096 94.1468 120.383 92.708C120.527 91.9886 120.64 91.4239 120.716 91.0391L120.773 90.7546Z" fill="black"/>
<path d="M110.17 145.048C110.693 142.989 121.166 90.5167 121.166 90.5167C121.166 90.5167 93.2165 82.2636 75.3433 90.5167L86.8031 145.504L110.17 145.048Z" fill="white"/>
<path fill-rule="evenodd" clip-rule="evenodd" d="M121.26 90.1915C121.261 90.1916 121.261 90.1917 121.165 90.5154C121.496 90.5815 121.496 90.5817 121.496 90.5821L121.496 90.5839L121.378 91.1713C121.302 91.5561 121.189 92.1208 121.045 92.8402C120.758 94.279 120.347 96.3368 119.852 98.8125C118.862 103.764 117.536 110.387 116.194 117.075C113.513 130.441 110.761 144.089 110.497 145.13L110.433 145.379L86.5292 145.845L74.9575 90.3215L75.2012 90.2089C84.2244 86.0424 95.757 86.0517 104.994 87.085C109.619 87.6025 113.684 88.3786 116.592 89.0253C118.046 89.3487 119.212 89.6399 120.015 89.8504C120.416 89.9556 120.727 90.0407 120.938 90.0996C121.043 90.1291 121.124 90.152 121.178 90.1676C121.205 90.1754 121.225 90.1813 121.239 90.1854L121.255 90.19L121.259 90.1912L121.26 90.1915ZM121.165 90.5154L121.496 90.5815L121.557 90.279L121.261 90.1917L121.165 90.5154ZM120.773 90.7546C120.768 90.753 120.762 90.7514 120.756 90.7498C120.549 90.6919 120.241 90.6077 119.844 90.5034C119.048 90.2948 117.891 90.0057 116.446 89.6843C113.555 89.0415 109.515 88.2701 104.919 87.7559C95.7974 86.7355 84.5427 86.7352 75.7282 90.7105L87.0759 145.159L109.9 144.714C110.378 142.569 112.983 129.651 115.533 116.942C116.874 110.255 118.2 103.632 119.19 98.6802C119.685 96.2045 120.096 94.1468 120.383 92.708C120.527 91.9886 120.64 91.4239 120.716 91.0391L120.773 90.7546Z" fill="#2C2C2C"/>
<path d="M114.381 88.904C106.575 87.3344 93.3768 85.5454 82.0352 88.2458C83.3769 96.7099 84.7187 105.182 86.0604 113.646C87.1406 119.385 92.5836 123.208 98.2629 123.241C103.942 123.208 109.385 119.393 110.465 113.646C111.765 105.393 113.073 97.1487 114.381 88.904Z" fill="#50BFD7"/>
<path fill-rule="evenodd" clip-rule="evenodd" d="M81.9565 87.918C93.3724 85.2 106.631 87.002 114.447 88.5737L114.765 88.6376L114.713 88.9628C113.405 97.2057 112.098 105.448 110.798 113.7L110.798 113.704L110.797 113.709C109.682 119.64 104.078 123.545 98.2644 123.579L98.2624 123.579L98.2604 123.579C92.4466 123.545 86.843 119.632 85.7282 113.709L85.7273 113.705L85.7266 113.7C85.0558 109.468 84.385 105.235 83.7141 101.001L83.7139 101C83.0431 96.7654 82.3722 92.5313 81.7013 88.2993L81.6523 87.9905L81.9565 87.918ZM82.4172 88.5035C83.0716 92.6319 83.7261 96.7623 84.3805 100.893L84.3807 100.894C85.0513 105.126 85.722 109.359 86.3926 113.589C87.4401 119.14 92.7199 122.871 98.2624 122.904C103.805 122.871 109.085 119.149 110.132 113.59C111.415 105.445 112.705 97.3083 113.996 89.1722C106.236 87.6352 93.464 85.959 82.4172 88.5035Z" fill="#2C2C2C"/>
<path d="M97.2935 91.8998C99.9601 91.8998 104.104 91.0896 104.104 88.4314L103.42 79.5539L102.821 71.7902C102.821 69.1236 100.661 66.9717 98.0023 66.9717C96.669 66.9717 95.4707 67.5118 94.5931 68.3809C93.7239 69.2501 93.1754 70.4569 93.1754 71.7902L92.5846 79.5623L92.0192 87.0137C91.2598 91.5116 97.2935 91.8998 97.2935 91.8998Z" fill="#2C2C2C"/>
<path d="M106.212 52.4822C106.212 52.8704 106.684 53.1742 107.267 53.1742C107.849 53.1742 108.322 52.8619 108.322 52.4822C108.322 52.094 107.849 51.7902 107.267 51.7902C106.693 51.7818 106.212 52.094 106.212 52.4822Z" fill="white"/>
<path d="M104.052 148.196C104.052 148.406 104.238 148.651 104.457 148.626C106.946 148.364 108.854 146.44 111.309 146.845C108.845 148.069 106.71 150.195 107.014 153.326C107.048 153.714 107.419 153.866 107.706 153.63C109.47 152.128 111.495 150.786 113.858 151.284C114.87 151.495 116.06 151.892 117.107 151.757C118.668 151.563 119.984 150.854 120.761 149.343C122.128 146.727 121.621 143.588 118.558 142.938C118.482 142.921 118.423 142.93 118.356 142.955C117.225 142.508 116.195 141.942 115.284 140.955C114.406 139.993 113.588 138.93 112.634 138.044C111.36 136.854 109.976 135.917 108.288 136.719C108.035 136.837 108.052 137.2 108.212 137.394C108.955 138.314 109.824 139.191 110.735 140.035C109.824 139.824 108.904 139.715 107.959 139.791C106.271 139.934 104.28 141.056 104.322 143.065C104.33 143.318 104.508 143.47 104.727 143.495C106.28 143.655 107.841 143.63 109.385 143.79C106.98 144.499 104.027 145.309 104.052 148.196Z" fill="white"/>
<path fill-rule="evenodd" clip-rule="evenodd" d="M110.739 136.319C111.517 136.626 112.22 137.194 112.863 137.795C113.508 138.395 114.104 139.086 114.682 139.757C114.968 140.089 115.25 140.417 115.532 140.726C116.37 141.633 117.316 142.17 118.377 142.599C118.454 142.586 118.537 142.587 118.629 142.607C120.282 142.958 121.272 143.996 121.645 145.31C122.012 146.604 121.773 148.131 121.059 149.497C120.221 151.127 118.794 151.885 117.148 152.09C116.572 152.164 115.971 152.091 115.404 151.98C115.119 151.924 114.836 151.858 114.566 151.793C114.537 151.786 114.509 151.779 114.48 151.772C114.239 151.714 114.009 151.659 113.788 151.613L113.787 151.613C111.597 151.152 109.686 152.385 107.924 153.886L107.922 153.888L107.92 153.889C107.69 154.078 107.393 154.133 107.131 154.021C106.869 153.909 106.704 153.656 106.677 153.356C106.402 150.517 108.019 148.479 110.058 147.165C109.379 147.257 108.718 147.503 108.026 147.795C107.873 147.86 107.717 147.928 107.559 147.997C106.622 148.403 105.612 148.842 104.493 148.96C104.241 148.988 104.039 148.859 103.917 148.72C103.797 148.582 103.714 148.392 103.714 148.196C103.7 146.606 104.521 145.585 105.627 144.89C106.21 144.523 106.882 144.239 107.563 144.002C107.391 143.994 107.218 143.986 107.044 143.979L107.037 143.978C106.263 143.945 105.477 143.911 104.692 143.83L104.69 143.829L104.688 143.829C104.327 143.787 103.999 143.519 103.984 143.075L103.984 143.073L103.984 143.071C103.96 141.938 104.514 141.061 105.283 140.461C106.045 139.866 107.03 139.529 107.93 139.453L107.93 139.453L107.931 139.453C108.527 139.405 109.112 139.428 109.686 139.501C109.067 138.891 108.478 138.26 107.95 137.606C107.814 137.441 107.745 137.218 107.757 137.007C107.77 136.789 107.876 136.537 108.143 136.412C109.079 135.968 109.944 136.005 110.739 136.319ZM108.435 137.021C108.434 137.025 108.432 137.033 108.431 137.046C108.43 137.067 108.433 137.093 108.442 137.119C108.45 137.146 108.462 137.166 108.472 137.178L108.473 137.179L108.474 137.181C109.202 138.083 110.059 138.948 110.964 139.786L111.896 140.649L110.658 140.363C109.771 140.157 108.887 140.053 107.986 140.126C107.198 140.193 106.344 140.489 105.699 140.993C105.061 141.491 104.641 142.179 104.659 143.054C104.66 143.098 104.674 143.116 104.683 143.125C104.695 143.137 104.72 143.153 104.763 143.158C105.527 143.237 106.295 143.27 107.073 143.304L107.076 143.304C107.851 143.338 108.636 143.372 109.419 143.453L111.119 143.63L109.48 144.113C109.438 144.125 109.396 144.138 109.354 144.15C108.174 144.497 106.94 144.861 105.986 145.461C105.021 146.069 104.377 146.896 104.389 148.191L104.389 148.193V148.194C104.389 148.199 104.39 148.211 104.397 148.229C104.404 148.247 104.414 148.263 104.425 148.276C104.43 148.281 104.434 148.285 104.437 148.287C105.438 148.179 106.338 147.789 107.274 147.384C107.436 147.314 107.599 147.243 107.763 147.173C108.864 146.708 110.033 146.291 111.363 146.511L112.395 146.681L111.459 147.146C109.047 148.344 107.065 150.367 107.349 153.292L107.349 153.294L107.349 153.296C107.353 153.341 107.366 153.367 107.375 153.38C107.384 153.393 107.392 153.399 107.397 153.401C107.402 153.403 107.411 153.405 107.424 153.403C107.437 153.401 107.46 153.393 107.489 153.37C109.253 151.867 111.392 150.419 113.926 150.952C114.158 151.001 114.398 151.058 114.638 151.116C114.666 151.123 114.695 151.129 114.723 151.136C114.994 151.201 115.264 151.265 115.534 151.318C116.076 151.424 116.593 151.481 117.063 151.421L117.063 151.42L117.064 151.42C118.54 151.237 119.745 150.578 120.46 149.188L120.46 149.187L120.461 149.186C121.114 147.936 121.305 146.586 120.995 145.494C120.691 144.422 119.897 143.566 118.487 143.267L118.486 143.267L118.484 143.266C118.484 143.266 118.484 143.266 118.484 143.266C118.481 143.267 118.478 143.268 118.473 143.27L118.352 143.315L118.231 143.268C117.072 142.809 115.993 142.22 115.035 141.183L115.034 141.182L115.034 141.181C114.723 140.841 114.428 140.497 114.135 140.157C113.573 139.505 113.023 138.865 112.404 138.29L112.403 138.289C111.772 137.7 111.146 137.205 110.491 136.947C109.855 136.696 109.186 136.665 108.435 137.021Z" fill="#2C2C2C"/>
<path fill-rule="evenodd" clip-rule="evenodd" d="M76.136 52.002V52.1707H75.4609V52.002H76.136Z" fill="#2C2C2C"/>
<path d="M101.486 98.1794H95.0049C93.2834 98.1794 91.8826 99.5802 91.8826 101.302V107.783C91.8826 109.504 93.2834 110.905 95.0049 110.905H101.486C103.207 110.905 104.608 109.504 104.608 107.783V101.302C104.608 99.5802 103.216 98.1794 101.486 98.1794ZM90.1611 95.4199C89.1738 95.4199 88.3721 96.2216 88.3721 97.2089C88.3721 98.1963 89.1738 98.998 90.1611 98.998C91.1484 98.998 91.9501 98.1963 91.9501 97.2089C91.9501 96.2216 91.1484 95.4199 90.1611 95.4199Z" fill="white"/>
<path d="M101.03 102.044C100.616 100.938 99.5616 100.204 98.3801 100.204H96.6249L100.093 108.997H103.815L101.03 102.044ZM93.9414 106.474L92.9287 108.997H96.6249L98.3464 104.634H96.5911C95.4097 104.634 94.3549 105.369 93.9414 106.474ZM94.5152 102.39C95.1228 102.39 95.6207 101.892 95.6207 101.284C95.6207 100.677 95.1228 100.179 94.5152 100.179C93.9076 100.179 93.4097 100.677 93.4097 101.284C93.4097 101.892 93.9076 102.39 94.5152 102.39Z" fill="#50BFD7"/>
<path d="M110 134.933C103.879 134.388 97.8347 134.165 97.8347 134.165C95.6136 134.231 90.8831 134.421 86 134.933C87.4242 139.672 92.2564 143.165 97.9958 143.165C103.744 143.173 108.576 139.664 110 134.933Z" fill="#50BFD7"/>
<path d="M103 143.041C103 143.236 103.171 143.462 103.372 143.439C105.658 143.197 107.409 141.42 109.663 141.794C107.401 142.925 105.441 144.889 105.72 147.78C105.751 148.139 106.092 148.279 106.355 148.061C107.974 146.674 109.834 145.434 112.003 145.894C112.933 146.089 114.025 146.455 114.986 146.331C116.419 146.151 117.628 145.497 118.341 144.101C119.596 141.685 119.131 138.786 116.319 138.186C116.249 138.17 116.195 138.178 116.133 138.201C115.095 137.788 114.149 137.266 113.313 136.354C112.507 135.465 111.755 134.483 110.88 133.665C109.71 132.566 108.439 131.701 106.89 132.441C106.657 132.55 106.673 132.885 106.82 133.065C107.502 133.914 108.3 134.725 109.136 135.504C108.3 135.309 107.455 135.208 106.587 135.278C105.038 135.411 103.209 136.447 103.248 138.302C103.256 138.536 103.419 138.677 103.62 138.7C105.046 138.848 106.479 138.825 107.897 138.973C105.689 139.628 102.977 140.376 103 143.041Z" fill="#C4C4C4"/>
<path fill-rule="evenodd" clip-rule="evenodd" d="M109.21 131.403C109.898 131.71 110.519 132.279 111.087 132.88C111.658 133.479 112.184 134.17 112.695 134.841C112.948 135.174 113.197 135.501 113.446 135.81C114.187 136.718 115.023 137.254 115.961 137.684C116.029 137.671 116.102 137.671 116.183 137.692C117.644 138.043 118.52 139.081 118.849 140.395C119.174 141.689 118.963 143.217 118.332 144.583C117.591 146.213 116.329 146.971 114.875 147.176C114.365 147.25 113.834 147.177 113.333 147.066C113.081 147.01 112.831 146.943 112.592 146.879C112.567 146.872 112.542 146.865 112.517 146.858C112.304 146.8 112.1 146.745 111.905 146.699L111.904 146.699C109.968 146.237 108.279 147.471 106.722 148.972L106.72 148.974L106.718 148.975C106.515 149.164 106.252 149.219 106.021 149.107C105.79 148.995 105.643 148.742 105.619 148.442C105.377 145.603 106.805 143.565 108.608 142.25C108.008 142.343 107.424 142.588 106.812 142.88C106.676 142.946 106.538 143.013 106.399 143.082C105.571 143.489 104.678 143.928 103.689 144.046C103.466 144.074 103.287 143.944 103.18 143.806C103.074 143.668 103.001 143.477 103 143.281C102.988 141.691 103.714 140.67 104.691 139.974C105.206 139.607 105.801 139.324 106.403 139.087C106.25 139.079 106.097 139.071 105.944 139.064L105.937 139.063C105.254 139.03 104.559 138.996 103.865 138.914L103.863 138.914L103.861 138.914C103.542 138.872 103.252 138.603 103.239 138.159L103.239 138.157L103.239 138.155C103.218 137.023 103.708 136.146 104.388 135.545C105.061 134.95 105.931 134.614 106.727 134.537L106.727 134.537L106.728 134.537C107.255 134.489 107.771 134.512 108.279 134.585C107.732 133.975 107.211 133.344 106.744 132.69C106.624 132.525 106.564 132.302 106.574 132.091C106.585 131.874 106.679 131.622 106.916 131.496C107.743 131.052 108.508 131.089 109.21 131.403ZM107.174 132.105C107.172 132.109 107.171 132.117 107.17 132.13C107.169 132.151 107.172 132.177 107.179 132.203C107.187 132.23 107.197 132.25 107.206 132.262L107.207 132.263L107.208 132.265C107.852 133.167 108.609 134.032 109.409 134.871L110.232 135.734L109.139 135.447C108.354 135.242 107.573 135.138 106.777 135.21C106.08 135.277 105.325 135.574 104.755 136.077C104.191 136.576 103.82 137.263 103.835 138.139C103.837 138.183 103.849 138.201 103.857 138.21C103.868 138.222 103.89 138.238 103.928 138.243C104.603 138.322 105.282 138.355 105.97 138.389L105.972 138.389C106.657 138.423 107.351 138.457 108.043 138.538L109.545 138.715L108.097 139.198C108.06 139.21 108.023 139.223 107.985 139.235C106.943 139.582 105.852 139.946 105.009 140.546C104.155 141.154 103.587 141.981 103.597 143.277L103.597 143.278V143.28C103.597 143.284 103.598 143.296 103.604 143.314C103.61 143.332 103.62 143.348 103.629 143.361C103.633 143.366 103.637 143.37 103.64 143.372C104.525 143.264 105.32 142.874 106.147 142.469C106.29 142.399 106.434 142.328 106.58 142.259C107.553 141.793 108.586 141.377 109.762 141.596L110.674 141.766L109.846 142.232C107.715 143.429 105.963 145.453 106.214 148.378L106.214 148.38L106.214 148.382C106.217 148.427 106.228 148.453 106.236 148.466C106.244 148.479 106.251 148.484 106.256 148.487C106.261 148.489 106.268 148.491 106.28 148.489C106.291 148.487 106.311 148.479 106.337 148.455C107.897 146.953 109.787 145.504 112.027 146.038C112.232 146.086 112.444 146.144 112.656 146.201C112.681 146.208 112.706 146.215 112.731 146.222C112.97 146.287 113.209 146.35 113.448 146.403C113.927 146.509 114.384 146.567 114.799 146.506L114.8 146.506L114.801 146.506C116.105 146.323 117.17 145.663 117.802 144.273L117.802 144.272L117.803 144.271C118.38 143.021 118.549 141.671 118.275 140.579C118.006 139.507 117.304 138.651 116.058 138.352L116.057 138.351L116.056 138.351C116.055 138.351 116.055 138.351 116.055 138.351C116.053 138.352 116.05 138.353 116.046 138.355L115.938 138.4L115.832 138.352C114.808 137.894 113.854 137.305 113.007 136.267L113.006 136.267L113.006 136.266C112.732 135.926 112.47 135.582 112.211 135.242C111.715 134.589 111.228 133.949 110.681 133.374L110.681 133.373C110.123 132.784 109.57 132.29 108.991 132.031C108.428 131.78 107.837 131.749 107.174 132.105Z" fill="#2C2C2C"/>
<path fill-rule="evenodd" clip-rule="evenodd" d="M194.784 151.342C194.784 151.181 194.915 151.05 195.076 151.05H204.717C204.879 151.05 205.01 151.181 205.01 151.342C205.01 151.504 204.879 151.635 204.717 151.635H195.076C194.915 151.635 194.784 151.504 194.784 151.342Z" fill="#2C2C2C"/>
<path fill-rule="evenodd" clip-rule="evenodd" d="M12.9858 151.342C12.9858 151.181 13.1168 151.05 13.2784 151.05H191.863C192.024 151.05 192.155 151.181 192.155 151.342C192.155 151.504 192.024 151.635 191.863 151.635H13.2784C13.1168 151.635 12.9858 151.504 12.9858 151.342Z" fill="#2C2C2C"/>
<path fill-rule="evenodd" clip-rule="evenodd" d="M0.430176 151.342C0.430176 151.181 0.561165 151.05 0.722749 151.05H7.31063C7.47221 151.05 7.6032 151.181 7.6032 151.342C7.6032 151.504 7.47221 151.635 7.31063 151.635H0.722749C0.561165 151.635 0.430176 151.504 0.430176 151.342Z" fill="#2C2C2C"/>
<path d="M58.2544 119.738H128.146C128.983 119.738 129.784 120.07 130.376 120.662C130.967 121.253 131.299 122.055 131.299 122.891V162.156H55.1016V122.891C55.1016 122.055 55.4337 121.253 56.025 120.662C56.6163 120.07 57.4182 119.738 58.2544 119.738Z" fill="white"/>
<path fill-rule="evenodd" clip-rule="evenodd" d="M58.2544 120.141C57.5248 120.141 56.8251 120.43 56.3092 120.946C55.7933 121.462 55.5034 122.162 55.5034 122.892V161.755H130.897V122.892C130.897 122.162 130.608 121.462 130.092 120.946C129.576 120.43 128.876 120.141 128.146 120.141H58.2544ZM55.7409 120.378C56.4075 119.711 57.3116 119.337 58.2544 119.337H128.146C129.089 119.337 129.993 119.711 130.66 120.378C131.327 121.045 131.701 121.949 131.701 122.892V162.157C131.701 162.379 131.521 162.559 131.299 162.559H55.1016C54.8796 162.559 54.6997 162.379 54.6997 162.157V122.892C54.6997 121.949 55.0742 121.045 55.7409 120.378Z" fill="#2C2C2C"/>
<path d="M131.299 133.851C121.727 136.278 111.903 142.458 93.5976 151.16C75.9418 159.559 61.4892 159.414 55.1016 158.764V162.157H131.299V133.851Z" fill="#2C2C2C"/>
<path fill-rule="evenodd" clip-rule="evenodd" d="M131.546 133.534C131.644 133.61 131.701 133.727 131.701 133.851V162.157C131.701 162.379 131.521 162.559 131.299 162.559H55.1016C54.8796 162.559 54.6997 162.379 54.6997 162.157V158.765C54.6997 158.651 54.7478 158.543 54.8322 158.467C54.9165 158.39 55.0291 158.353 55.1422 158.365C61.4751 159.009 75.8504 159.158 93.425 150.797L93.4251 150.797C99.4542 147.931 104.555 145.343 109.037 143.068C111.359 141.89 113.514 140.797 115.545 139.793C121.489 136.855 126.371 134.687 131.2 133.462C131.321 133.431 131.448 133.458 131.546 133.534ZM93.7702 151.523C76.4282 159.773 62.1522 159.822 55.5034 159.207V161.755H130.897V134.371C126.316 135.594 121.63 137.682 115.901 140.513C113.883 141.51 111.735 142.601 109.417 143.777C104.929 146.054 99.8069 148.653 93.7702 151.523Z" fill="#2C2C2C"/>
<path d="M131.299 159.805H55.1016V162.163H131.299V159.805Z" fill="white"/>
<path fill-rule="evenodd" clip-rule="evenodd" d="M54.6997 159.806C54.6997 159.584 54.8796 159.404 55.1016 159.404H131.299C131.521 159.404 131.701 159.584 131.701 159.806V162.164C131.701 162.386 131.521 162.566 131.299 162.566H55.1016C54.8796 162.566 54.6997 162.386 54.6997 162.164V159.806ZM55.5034 160.208V161.763H130.897V160.208H55.5034Z" fill="#2C2C2C"/>
<path d="M112.771 18.4885C108.939 13.7758 103.584 10.9336 96.7081 10.9336C81.1398 10.9336 65.9292 25.2916 65.9292 43.1886C65.9292 61.0856 78.5451 75.5995 94.1133 75.5995C95.6078 75.5995 97.0565 75.4619 98.4593 75.2144C98.606 76.0029 98.6885 76.8097 98.6885 77.644C98.6885 77.7907 98.6793 77.9466 98.6793 78.0933C141.579 67.6778 134.556 15.8388 112.771 18.4885Z" fill="#2C2C2C"/>
<path d="M76.6662 64.6341C79.9322 64.6341 82.5799 61.9864 82.5799 58.7204C82.5799 55.4543 79.9322 52.8066 76.6662 52.8066C73.4001 52.8066 70.7524 55.4543 70.7524 58.7204C70.7524 61.9864 73.4001 64.6341 76.6662 64.6341Z" fill="white"/>
<path fill-rule="evenodd" clip-rule="evenodd" d="M76.6657 53.1739C73.6022 53.1739 71.1187 55.6574 71.1187 58.7209C71.1187 61.7844 73.6022 64.2679 76.6657 64.2679C79.7292 64.2679 82.2127 61.7844 82.2127 58.7209C82.2127 55.6574 79.7292 53.1739 76.6657 53.1739ZM70.3853 58.7209C70.3853 55.2523 73.1971 52.4404 76.6657 52.4404C80.1343 52.4404 82.9462 55.2523 82.9462 58.7209C82.9462 62.1895 80.1343 65.0014 76.6657 65.0014C73.1971 65.0014 70.3853 62.1895 70.3853 58.7209Z" fill="#2C2C2C"/>
<path d="M118.309 64.6341C121.575 64.6341 124.223 61.9864 124.223 58.7204C124.223 55.4543 121.575 52.8066 118.309 52.8066C115.043 52.8066 112.396 55.4543 112.396 58.7204C112.396 61.9864 115.043 64.6341 118.309 64.6341Z" fill="white"/>
<path fill-rule="evenodd" clip-rule="evenodd" d="M118.309 53.1739C115.246 53.1739 112.762 55.6574 112.762 58.7209C112.762 61.7844 115.246 64.2679 118.309 64.2679C121.373 64.2679 123.856 61.7844 123.856 58.7209C123.856 55.6574 121.373 53.1739 118.309 53.1739ZM112.029 58.7209C112.029 55.2523 114.841 52.4404 118.309 52.4404C121.778 52.4404 124.59 55.2523 124.59 58.7209C124.59 62.1895 121.778 65.0014 118.309 65.0014C114.841 65.0014 112.029 62.1895 112.029 58.7209Z" fill="#2C2C2C"/>
<path d="M98.0466 83.3939C110.741 83.3939 121.032 68.8256 121.032 50.8547C121.032 32.8837 110.741 18.3154 98.0466 18.3154C85.352 18.3154 75.061 32.8837 75.061 50.8547C75.061 68.8256 85.352 83.3939 98.0466 83.3939Z" fill="white"/>
<path fill-rule="evenodd" clip-rule="evenodd" d="M82.0925 28.0561C77.9816 33.8757 75.4273 41.9345 75.4273 50.8532C75.4273 59.772 77.9816 67.8308 82.0925 73.6503C86.204 79.4708 91.8499 83.0257 98.0462 83.0257C104.242 83.0257 109.888 79.4708 114 73.6503C118.111 67.8308 120.665 59.772 120.665 50.8532C120.665 41.9345 118.111 33.8757 114 28.0561C109.888 22.2356 104.242 18.6808 98.0462 18.6808C91.8499 18.6808 86.204 22.2356 82.0925 28.0561ZM81.4934 27.6329C85.7009 21.6765 91.5479 17.9473 98.0462 17.9473C104.544 17.9473 110.391 21.6765 114.599 27.6329C118.807 33.5903 121.399 41.801 121.399 50.8532C121.399 59.9054 118.807 68.1162 114.599 74.0735C110.391 80.0299 104.544 83.7592 98.0462 83.7592C91.5479 83.7592 85.7009 80.0299 81.4934 74.0735C77.2851 68.1162 74.6938 59.9054 74.6938 50.8532C74.6938 41.801 77.2851 33.5903 81.4934 27.6329Z" fill="#2C2C2C"/>
<path d="M71.7056 43.6377C71.7056 43.6377 91.2713 44.5913 97.7901 32.8188C97.7901 32.8188 111.946 45.068 125.461 44.1145L124.186 38.705L118.942 28.3629L115.761 24.5488L109.242 17.709L100.495 14.0508L89.9968 15.4811L75.9965 25.0256L74.2453 31.3885L71.7056 43.6377Z" fill="#2C2C2C"/>
<path d="M98.6056 63.571C98.6148 63.626 98.4956 63.7268 98.2297 63.7268C97.973 63.736 97.5788 63.6168 97.2303 63.2867C97.0561 63.1217 96.9003 62.92 96.7811 62.6633C96.7628 62.6266 96.7536 62.5899 96.7353 62.5532L96.7169 62.4982L96.6986 62.4524L96.6711 62.3699C96.6619 62.3332 96.6527 62.2874 96.6344 62.2507C96.5977 62.1132 96.5702 61.9665 96.561 61.8106C96.506 61.2055 96.6252 60.5912 96.7719 60.0044C97.3404 57.6572 98.0097 55.8144 98.2572 55.8694C98.5048 55.9335 98.2481 57.8773 97.6796 60.2244C97.5329 60.8021 97.4229 61.3247 97.4229 61.7647C97.4229 61.8748 97.4321 61.9848 97.4412 62.0856L97.4504 62.1223V62.1407V62.1498V62.159C97.4504 62.159 97.4412 62.1315 97.4504 62.1407L97.4687 62.2323L97.4779 62.2782L97.4871 62.3057L97.5054 62.3607C97.5604 62.5349 97.6429 62.6999 97.7346 62.8283C97.918 63.0942 98.138 63.2592 98.3122 63.3509C98.4773 63.4701 98.5965 63.5068 98.6056 63.571Z" fill="#2C2C2C"/>
<path d="M92.0691 52.5767C92.0691 55.1897 89.8045 57.3077 87.0172 57.3077C84.2208 57.3077 81.9653 55.1897 81.9653 52.5767C81.9653 49.9636 84.23 47.8457 87.0172 47.8457C89.7953 47.8457 92.0691 49.9636 92.0691 52.5767Z" fill="white"/>
<path fill-rule="evenodd" clip-rule="evenodd" d="M87.0173 48.214C84.4094 48.214 82.3321 50.1901 82.3321 52.5782C82.3321 54.9667 84.4007 56.9424 87.0173 56.9424C89.6251 56.9424 91.7024 54.9662 91.7024 52.5782C91.7024 50.1905 89.6164 48.214 87.0173 48.214ZM81.5986 52.5782C81.5986 49.7402 84.0507 47.4805 87.0173 47.4805C89.9742 47.4805 92.4359 49.7397 92.4359 52.5782C92.4359 55.4162 89.9839 57.6759 87.0173 57.6759C84.041 57.6759 81.5986 55.4158 81.5986 52.5782Z" fill="#2C2C2C"/>
<path d="M84.5322 52.2848C84.5322 54.4394 85.935 56.1906 87.6587 56.1906C89.3824 56.1906 90.7852 54.4394 90.7852 52.2848C90.7852 50.1301 89.3824 48.3789 87.6587 48.3789C85.935 48.3698 84.5322 50.121 84.5322 52.2848Z" fill="#50BFD7"/>
<path d="M85.4399 52.283C85.4399 53.8141 86.4301 55.0519 87.6587 55.0519C88.8873 55.0519 89.8775 53.8141 89.8775 52.283C89.8775 50.7518 88.8873 49.5049 87.6587 49.5049C86.4301 49.5049 85.4399 50.7426 85.4399 52.283Z" fill="#2C2C2C"/>
<path d="M85.3018 49.6524C85.3018 50.0741 85.8152 50.4042 86.4478 50.4042C87.0805 50.4042 87.5939 50.065 87.5939 49.6524C87.5939 49.2306 87.0805 48.9006 86.4478 48.9006C85.8152 48.8914 85.3018 49.2306 85.3018 49.6524Z" fill="white"/>
<path d="M93.5083 45.3427C93.5083 45.3427 86.6869 38.5396 79.3521 46.6171C79.3521 46.6171 85.6967 42.5554 93.5083 45.3427Z" fill="#2C2C2C"/>
<path d="M114.046 52.5767C114.046 55.1897 111.782 57.3077 108.994 57.3077C106.198 57.3077 103.942 55.1897 103.942 52.5767C103.942 49.9636 106.207 47.8457 108.994 47.8457C111.782 47.8457 114.046 49.9636 114.046 52.5767Z" fill="white"/>
<path fill-rule="evenodd" clip-rule="evenodd" d="M108.994 48.214C106.386 48.214 104.309 50.1901 104.309 52.5782C104.309 54.9667 106.378 56.9424 108.994 56.9424C111.602 56.9424 113.679 54.9662 113.679 52.5782C113.679 50.1901 111.602 48.214 108.994 48.214ZM103.576 52.5782C103.576 49.7402 106.028 47.4805 108.994 47.4805C111.961 47.4805 114.413 49.7402 114.413 52.5782C114.413 55.4162 111.961 57.6759 108.994 57.6759C106.018 57.6759 103.576 55.4158 103.576 52.5782Z" fill="#2C2C2C"/>
<path d="M106.519 52.2848C106.519 54.4394 107.921 56.1906 109.645 56.1906C111.369 56.1906 112.772 54.4394 112.772 52.2848C112.772 50.1301 111.369 48.3789 109.645 48.3789C107.912 48.3698 106.519 50.121 106.519 52.2848Z" fill="#50BFD7"/>
<path d="M107.417 52.283C107.417 53.8141 108.407 55.0519 109.636 55.0519C110.864 55.0519 111.855 53.8141 111.855 52.283C111.855 50.7518 110.864 49.5049 109.636 49.5049C108.416 49.5049 107.417 50.7426 107.417 52.283Z" fill="#2C2C2C"/>
<path d="M107.279 49.6524C107.279 50.0741 107.792 50.4042 108.425 50.4042C109.058 50.4042 109.571 50.065 109.571 49.6524C109.571 49.2306 109.058 48.9006 108.425 48.9006C107.792 48.8914 107.279 49.2306 107.279 49.6524Z" fill="white"/>
<path d="M115.495 44.6005C115.495 44.6005 108.673 37.7974 101.338 45.8749C101.329 45.8749 107.674 41.8132 115.495 44.6005Z" fill="#2C2C2C"/>
<path fill-rule="evenodd" clip-rule="evenodd" d="M74.6031 49.1289V49.3123H73.8696V49.1289H74.6031Z" fill="#2C2C2C"/>
<path fill-rule="evenodd" clip-rule="evenodd" d="M78.4532 51.1475V51.3308H77.7197V51.1475H78.4532Z" fill="#2C2C2C"/>
<path d="M99.303 50.0652C100.559 50.3311 100.092 51.1471 100.092 51.2663C100.092 51.3855 100.559 58.1702 106.62 59.9581C112.68 61.746 116.311 58.2344 117.365 56.474C118.419 54.7137 119.3 50.5328 119.556 50.2119C119.822 49.891 121.078 49.3317 121.078 49.3317L121.225 47.6906L119.648 47.223C119.648 47.223 115.669 45.4076 109.81 45.3251C103.961 45.2334 100.651 48.6074 100.651 48.6074C99.0005 48.0848 96.9559 48.0115 95.0855 48.6074C95.0855 48.6074 91.7756 45.2426 85.9261 45.3251C80.0765 45.4168 76.0882 47.223 76.0882 47.223L74.5112 47.6906L74.6579 49.3317C74.6579 49.3317 75.914 49.891 76.1799 50.2119C76.4458 50.5328 77.3168 54.7229 78.3712 56.474C79.4256 58.2344 83.0563 61.746 89.1168 59.9581C95.1772 58.1702 95.6448 51.3855 95.6448 51.2663C95.6448 51.1471 95.1772 50.3311 96.4333 50.0652C97.5335 49.836 98.212 49.836 99.303 50.0652ZM113.854 58.5553C109.233 61.3334 103.695 58.5278 102.026 54.8695C100.357 51.2113 101.76 49.2767 101.76 49.2767C104.547 44.7291 115.806 44.5366 117.741 49.4509C118.071 50.2761 118.474 55.7772 113.854 58.5553ZM77.9953 49.4509C79.9299 44.5274 91.1888 44.7291 93.9761 49.2767C93.9761 49.2767 95.3789 51.2113 93.7102 54.8695C92.0415 58.5278 86.5129 61.3334 81.8828 58.5553C77.271 55.7772 77.6744 50.2761 77.9953 49.4509Z" fill="#2C2C2C"/>
<ellipse cx="98.1975" cy="71.2612" rx="3.59302" ry="2.51512" fill="white"/>
<path fill-rule="evenodd" clip-rule="evenodd" d="M98.2092 73.6457C100.159 73.6457 101.396 72.4406 101.396 71.3278C101.396 70.215 100.159 69.0099 98.2092 69.0099C96.2598 69.0099 95.0221 70.215 95.0221 71.3278C95.0221 72.4406 96.2598 73.6457 98.2092 73.6457ZM98.2092 74.4183C100.396 74.4183 102.169 73.0346 102.169 71.3278C102.169 69.621 100.396 68.2373 98.2092 68.2373C96.0223 68.2373 94.2495 69.621 94.2495 71.3278C94.2495 73.0346 96.0223 74.4183 98.2092 74.4183Z" fill="#454545"/>
</svg>
