<svg width="333" height="282" viewBox="0 0 333 282" fill="none" xmlns="http://www.w3.org/2000/svg">
<path d="M266.953 101.637C266.953 101.637 256.938 62.8482 196.305 38.3858C135.672 13.9233 81.4264 36.5799 69.06 65.2446C56.6935 93.9092 69.6536 109.388 61.4014 133.868C53.1492 158.347 10.754 189.351 27.8641 226.948C44.9741 264.544 125.039 275.282 189.828 267.525C254.617 259.769 305.234 173.838 266.953 101.637Z" fill="#50BFD7"/>
<path opacity="0.7" d="M266.953 101.637C266.953 101.637 256.938 62.8482 196.305 38.3858C135.672 13.9233 81.4264 36.5799 69.06 65.2446C56.6935 93.9092 69.6536 109.388 61.4014 133.868C53.1492 158.347 10.754 189.351 27.8641 226.948C44.9741 264.544 125.039 275.282 189.828 267.525C254.617 259.769 305.234 173.838 266.953 101.637Z" fill="white"/>
<path fill-rule="evenodd" clip-rule="evenodd" d="M275.452 216.944C275.672 216.92 275.868 217.079 275.892 217.299L279.031 246.768C279.054 246.988 278.895 247.185 278.676 247.208C278.456 247.231 278.26 247.072 278.236 246.853L275.097 217.383C275.074 217.164 275.233 216.967 275.452 216.944Z" fill="#263238"/>
<path d="M275.476 218.17C275.476 218.17 269.839 213.782 269.839 203.748C269.839 193.713 277.358 185.569 277.358 185.569C277.358 185.569 285.511 195.603 283.629 205.629C281.747 215.655 275.476 218.17 275.476 218.17Z" fill="#50BFD7"/>
<path fill-rule="evenodd" clip-rule="evenodd" d="M277.67 185.317L277.36 185.569L277.066 185.297C277.145 185.212 277.256 185.165 277.372 185.169C277.488 185.173 277.597 185.227 277.67 185.317ZM275.478 218.169C275.232 218.485 275.232 218.484 275.232 218.484L275.231 218.484L275.23 218.483L275.225 218.479L275.21 218.467C275.198 218.457 275.18 218.443 275.158 218.424C275.113 218.386 275.048 218.331 274.967 218.257C274.805 218.111 274.577 217.892 274.304 217.599C273.759 217.013 273.037 216.129 272.316 214.926C270.873 212.519 269.44 208.843 269.44 203.747C269.44 198.633 271.355 194.019 273.253 190.697C274.203 189.033 275.154 187.686 275.867 186.755C276.224 186.289 276.522 185.926 276.732 185.68C276.837 185.556 276.919 185.462 276.976 185.397C277.005 185.365 277.027 185.341 277.042 185.324L277.059 185.305L277.064 185.3L277.065 185.298L277.066 185.298C277.066 185.298 277.066 185.297 277.36 185.569C277.67 185.317 277.67 185.317 277.67 185.317L277.67 185.317L277.672 185.319L277.677 185.325L277.695 185.349C277.712 185.369 277.735 185.399 277.766 185.438C277.827 185.516 277.915 185.631 278.027 185.78C278.249 186.079 278.564 186.516 278.936 187.071C279.679 188.18 280.649 189.764 281.561 191.666C283.379 195.46 284.986 200.568 284.023 205.702C283.067 210.793 280.992 213.999 279.137 215.935C278.21 216.902 277.342 217.549 276.701 217.957C276.381 218.161 276.117 218.305 275.931 218.398C275.838 218.445 275.764 218.48 275.712 218.503C275.687 218.515 275.666 218.523 275.652 218.53L275.635 218.537L275.629 218.539L275.628 218.54L275.627 218.54C275.627 218.54 275.626 218.54 275.478 218.169ZM275.478 218.169L275.232 218.485C275.344 218.572 275.494 218.593 275.626 218.54L275.478 218.169ZM275.542 217.699C275.551 217.695 275.561 217.69 275.571 217.685C275.735 217.602 275.976 217.471 276.272 217.282C276.866 216.905 277.683 216.297 278.559 215.382C280.31 213.555 282.311 210.49 283.237 205.555C284.155 200.664 282.627 195.741 280.84 192.012C279.949 190.152 278.999 188.601 278.272 187.515C277.909 186.973 277.601 186.547 277.386 186.258C277.37 186.237 277.355 186.217 277.34 186.198C277.139 186.435 276.85 186.787 276.502 187.241C275.806 188.15 274.876 189.467 273.947 191.093C272.085 194.351 270.24 198.826 270.24 203.747C270.24 208.685 271.626 212.22 273.002 214.515C273.69 215.664 274.377 216.504 274.889 217.055C275.145 217.33 275.357 217.532 275.504 217.665C275.517 217.677 275.53 217.688 275.542 217.699Z" fill="#263238"/>
<path fill-rule="evenodd" clip-rule="evenodd" d="M276.956 194.797C277.176 194.811 277.343 195.001 277.329 195.221L275.893 217.366C275.879 217.586 275.689 217.753 275.469 217.739C275.248 217.725 275.081 217.535 275.096 217.314L276.531 195.17C276.546 194.949 276.736 194.782 276.956 194.797Z" fill="#263238"/>
<path fill-rule="evenodd" clip-rule="evenodd" d="M291.722 223.958C291.91 224.072 291.971 224.318 291.857 224.507C287.961 230.965 284.63 237.748 281.902 244.781C281.822 244.986 281.591 245.088 281.385 245.009C281.179 244.929 281.077 244.697 281.157 244.491C283.902 237.416 287.253 230.592 291.173 224.094C291.287 223.905 291.533 223.844 291.722 223.958Z" fill="#263238"/>
<path d="M288.563 229.63C288.563 229.63 285.432 223.197 289.861 214.218C294.29 205.238 304.641 201.239 304.641 201.239C304.641 201.239 307.52 213.837 301.396 222.005C295.272 230.173 288.563 229.63 288.563 229.63Z" fill="#50BFD7"/>
<path fill-rule="evenodd" clip-rule="evenodd" d="M305.029 201.151L304.639 201.24L304.495 200.868C304.603 200.826 304.724 200.833 304.827 200.888C304.929 200.942 305.003 201.038 305.029 201.151ZM288.562 229.631C288.202 229.806 288.202 229.806 288.202 229.806L288.201 229.803L288.199 229.798L288.191 229.781C288.184 229.766 288.174 229.746 288.162 229.719C288.138 229.665 288.105 229.587 288.065 229.485C287.984 229.282 287.875 228.985 287.759 228.601C287.528 227.835 287.269 226.722 287.152 225.326C286.917 222.53 287.252 218.603 289.501 214.042C291.758 209.466 295.515 206.174 298.686 204.031C300.275 202.958 301.723 202.169 302.775 201.648C303.301 201.387 303.729 201.193 304.026 201.063C304.175 200.999 304.291 200.95 304.37 200.918C304.41 200.901 304.441 200.889 304.462 200.881L304.486 200.871L304.492 200.869L304.494 200.868L304.495 200.868C304.495 200.868 304.495 200.868 304.639 201.24C305.029 201.151 305.029 201.151 305.029 201.151L305.029 201.155L305.031 201.162L305.038 201.192C305.043 201.217 305.051 201.254 305.061 201.303C305.081 201.4 305.11 201.542 305.144 201.725C305.212 202.091 305.301 202.622 305.389 203.284C305.566 204.607 305.736 206.456 305.713 208.565C305.667 212.771 304.85 218.063 301.714 222.246C298.604 226.394 295.332 228.346 292.818 229.258C291.563 229.712 290.501 229.906 289.748 229.986C289.371 230.026 289.072 230.037 288.864 230.038C288.76 230.039 288.679 230.037 288.623 230.035C288.595 230.034 288.573 230.032 288.557 230.031L288.538 230.03L288.533 230.03L288.531 230.03C288.53 230.03 288.529 230.03 288.562 229.631ZM288.562 229.631L288.202 229.806C288.264 229.933 288.389 230.018 288.529 230.03L288.562 229.631ZM288.827 229.239C288.838 229.239 288.849 229.239 288.86 229.239C289.043 229.238 289.315 229.228 289.664 229.191C290.36 229.117 291.358 228.937 292.545 228.506C294.916 227.647 298.06 225.787 301.075 221.767C304.063 217.781 304.868 212.691 304.914 208.556C304.936 206.494 304.77 204.684 304.597 203.389C304.511 202.742 304.424 202.225 304.358 201.871C304.353 201.845 304.349 201.82 304.344 201.797C304.058 201.921 303.643 202.11 303.13 202.364C302.103 202.873 300.687 203.644 299.134 204.694C296.023 206.795 292.39 209.992 290.218 214.396C288.039 218.814 287.724 222.594 287.948 225.259C288.06 226.593 288.307 227.65 288.524 228.37C288.633 228.73 288.734 229.006 288.807 229.19C288.814 229.207 288.821 229.223 288.827 229.239Z" fill="#263238"/>
<path fill-rule="evenodd" clip-rule="evenodd" d="M300.183 210.527C300.371 210.642 300.431 210.888 300.316 211.076L288.903 229.838C288.789 230.027 288.543 230.087 288.354 229.972C288.166 229.857 288.106 229.612 288.22 229.423L299.633 210.661C299.748 210.472 299.994 210.412 300.183 210.527Z" fill="#263238"/>
<path fill-rule="evenodd" clip-rule="evenodd" d="M262.062 223.066C262.253 222.955 262.498 223.02 262.609 223.211L267 230.777C269.897 235.968 272.22 241.459 273.929 247.153C273.992 247.364 273.873 247.587 273.661 247.651C273.45 247.714 273.227 247.594 273.164 247.383C271.471 241.746 269.171 236.309 266.304 231.169L261.917 223.612C261.807 223.421 261.871 223.177 262.062 223.066Z" fill="#263238"/>
<path d="M265.792 229.256C262.33 230.32 258.654 230.489 255.108 229.749C251.562 229.008 248.261 227.382 245.513 225.022C235.779 216.845 236.323 200.16 236.323 200.16C236.323 200.16 255.191 197.467 262.807 208.158C265.015 211.151 266.444 214.647 266.965 218.33C267.487 222.013 267.083 225.768 265.792 229.256Z" fill="#50BFD7"/>
<path fill-rule="evenodd" clip-rule="evenodd" d="M236.323 200.162C235.924 200.149 235.924 200.149 235.924 200.149L235.924 200.153L235.923 200.163L235.922 200.201C235.922 200.234 235.921 200.283 235.92 200.346C235.918 200.473 235.917 200.659 235.919 200.898C235.923 201.377 235.94 202.067 235.991 202.921C236.093 204.627 236.332 206.988 236.877 209.608C237.965 214.835 240.288 221.155 245.255 225.329C248.054 227.732 251.415 229.388 255.027 230.142C258.639 230.896 262.383 230.724 265.91 229.64L265.793 229.258L266.167 229.397C267.481 225.846 267.892 222.025 267.361 218.276C266.831 214.528 265.377 210.972 263.131 207.925C259.222 202.441 252.458 200.422 246.755 199.755C243.894 199.42 241.275 199.423 239.372 199.509C238.42 199.552 237.646 199.616 237.109 199.669C236.841 199.696 236.631 199.72 236.488 199.738C236.417 199.746 236.362 199.753 236.325 199.758L236.282 199.764L236.271 199.766L236.267 199.766C236.267 199.766 236.267 199.766 236.323 200.162ZM236.718 200.515C236.717 200.619 236.717 200.744 236.718 200.891C236.722 201.357 236.739 202.034 236.789 202.873C236.889 204.551 237.124 206.872 237.659 209.445C238.733 214.605 241.005 220.715 245.771 224.718L245.774 224.721C248.471 227.037 251.71 228.633 255.19 229.36C258.605 230.073 262.143 229.926 265.486 228.934C266.7 225.56 267.073 221.94 266.57 218.388C266.058 214.771 264.655 211.337 262.486 208.397L262.482 208.392C258.774 203.187 252.298 201.208 246.663 200.549C243.855 200.22 241.281 200.223 239.408 200.307C238.472 200.35 237.713 200.413 237.188 200.465C237 200.483 236.842 200.501 236.718 200.515ZM236.323 200.162L236.267 199.766C236.075 199.794 235.93 199.955 235.924 200.149L236.323 200.162Z" fill="#263238"/>
<path fill-rule="evenodd" clip-rule="evenodd" d="M243.151 205.665C243.31 205.512 243.563 205.517 243.716 205.677L266.08 228.981C266.233 229.141 266.228 229.394 266.068 229.546C265.909 229.699 265.656 229.694 265.503 229.535L243.14 206.23C242.987 206.071 242.992 205.818 243.151 205.665Z" fill="#263238"/>
<path d="M288.95 240.501H265.077V263.911H288.95V240.501Z" fill="#263238"/>
<path fill-rule="evenodd" clip-rule="evenodd" d="M264.679 240.498C264.679 240.278 264.858 240.099 265.078 240.099H288.951C289.172 240.099 289.351 240.278 289.351 240.498V263.908C289.351 264.129 289.172 264.308 288.951 264.308H265.078C264.858 264.308 264.679 264.129 264.679 263.908V240.498ZM265.478 240.898V263.509H288.551V240.898H265.478Z" fill="#263238"/>
<path opacity="0.3" d="M327.463 8.61133H158.361V157.819H327.463V8.61133Z" fill="black"/>
<path d="M331.708 0.987305H162.606V150.195H331.708V0.987305Z" fill="white"/>
<path fill-rule="evenodd" clip-rule="evenodd" d="M161.618 0.987643C161.618 0.442183 162.06 0 162.606 0H331.708C332.253 0 332.695 0.442183 332.695 0.987643V150.195C332.695 150.741 332.253 151.183 331.708 151.183H162.606C162.06 151.183 161.618 150.741 161.618 150.195V0.987643ZM163.593 1.97529V149.208H330.72V1.97529H163.593Z" fill="#263238"/>
<path d="M331.708 0.987305H162.606V11.6507H331.708V0.987305Z" fill="#263238"/>
<path fill-rule="evenodd" clip-rule="evenodd" d="M161.618 0.987643C161.618 0.442183 162.06 0 162.606 0H331.708C332.253 0 332.695 0.442183 332.695 0.987643V11.651C332.695 12.1965 332.253 12.6387 331.708 12.6387H162.606C162.06 12.6387 161.618 12.1965 161.618 11.651V0.987643ZM163.593 1.97529V10.6634H330.72V1.97529H163.593Z" fill="#263238"/>
<path d="M236.586 64.8888V49.159C236.586 46.2993 237.722 43.5566 239.744 41.5345C241.767 39.5123 244.509 38.3763 247.369 38.3763C250.229 38.3763 252.971 39.5123 254.994 41.5345C257.016 43.5566 258.152 46.2993 258.152 49.159V58.3502H262.449V49.159C262.449 45.1596 260.86 41.3239 258.032 38.4959C255.204 35.6679 251.368 34.0791 247.369 34.0791C243.37 34.0791 239.534 35.6679 236.706 38.4959C233.878 41.3239 232.289 45.1596 232.289 49.159V64.8888H236.586Z" fill="white"/>
<path d="M306.11 101.691H188.19C185.26 101.691 182.885 104.067 182.885 106.997V119.583C182.885 122.513 185.26 124.888 188.19 124.888H306.11C309.04 124.888 311.416 122.513 311.416 119.583V106.997C311.416 104.067 309.04 101.691 306.11 101.691Z" fill="white"/>
<path fill-rule="evenodd" clip-rule="evenodd" d="M188.189 102.681C185.805 102.681 183.872 104.614 183.872 106.999V119.585C183.872 121.97 185.805 123.903 188.189 123.903H306.11C308.494 123.903 310.427 121.97 310.427 119.585V106.999C310.427 104.614 308.494 102.681 306.11 102.681H188.189ZM181.896 106.999C181.896 103.523 184.714 100.706 188.189 100.706H306.11C309.585 100.706 312.403 103.523 312.403 106.999V119.585C312.403 123.061 309.585 125.878 306.11 125.878H188.189C184.714 125.878 181.896 123.061 181.896 119.585V106.999Z" fill="#263238"/>
<path d="M195.365 114.028C195.182 113.994 195.01 113.92 194.86 113.812C194.71 113.703 194.586 113.562 194.497 113.4C194.408 113.237 194.356 113.057 194.346 112.872C194.335 112.687 194.366 112.502 194.436 112.33L194.503 112.158C194.556 111.987 194.645 111.83 194.764 111.697C194.883 111.564 195.029 111.458 195.192 111.387C195.356 111.315 195.533 111.279 195.711 111.282C195.89 111.284 196.066 111.325 196.227 111.402C197.308 111.819 198.337 112.362 199.291 113.02C198.952 111.872 198.756 110.687 198.707 109.492C198.696 109.311 198.722 109.13 198.784 108.96C198.846 108.79 198.942 108.634 199.066 108.502C199.19 108.37 199.34 108.266 199.507 108.194C199.673 108.122 199.852 108.086 200.033 108.086H200.219C200.4 108.086 200.579 108.122 200.746 108.194C200.912 108.266 201.062 108.37 201.186 108.502C201.31 108.634 201.406 108.79 201.468 108.96C201.53 109.13 201.556 109.311 201.545 109.492C201.495 110.686 201.303 111.87 200.975 113.02C201.931 112.373 202.954 111.83 204.025 111.402C204.188 111.323 204.366 111.282 204.547 111.28C204.727 111.277 204.906 111.315 205.071 111.39C205.235 111.464 205.381 111.574 205.498 111.711C205.616 111.849 205.701 112.01 205.75 112.184V112.304C205.827 112.474 205.865 112.661 205.86 112.848C205.855 113.036 205.807 113.22 205.72 113.386C205.633 113.552 205.509 113.696 205.358 113.808C205.207 113.919 205.032 113.994 204.848 114.028C203.735 114.326 202.591 114.495 201.439 114.532C202.382 115.225 203.238 116.032 203.986 116.932C204.095 117.069 204.176 117.226 204.225 117.394C204.274 117.562 204.288 117.738 204.269 117.912C204.249 118.085 204.195 118.254 204.11 118.406C204.025 118.559 203.911 118.694 203.773 118.802L203.628 118.922C203.485 119.042 203.317 119.13 203.137 119.177C202.956 119.224 202.767 119.23 202.583 119.194C202.4 119.159 202.227 119.082 202.077 118.971C201.927 118.859 201.805 118.716 201.718 118.55C201.08 117.572 200.551 116.527 200.139 115.434C199.705 116.524 199.163 117.568 198.521 118.55C198.434 118.716 198.312 118.859 198.162 118.971C198.012 119.082 197.839 119.159 197.656 119.194C197.472 119.23 197.283 119.224 197.102 119.177C196.922 119.13 196.754 119.042 196.611 118.922L196.479 118.802C196.341 118.695 196.225 118.561 196.139 118.409C196.053 118.256 195.997 118.088 195.976 117.914C195.956 117.74 195.969 117.564 196.017 117.396C196.064 117.227 196.145 117.07 196.253 116.932C197.019 116.031 197.877 115.213 198.813 114.492C197.649 114.486 196.49 114.33 195.365 114.028Z" fill="#263238"/>
<path d="M208.812 114.028C208.63 113.994 208.457 113.92 208.307 113.812C208.157 113.703 208.033 113.562 207.944 113.4C207.855 113.237 207.803 113.057 207.793 112.872C207.783 112.687 207.814 112.502 207.884 112.33L207.95 112.158C208.003 111.987 208.092 111.83 208.211 111.697C208.33 111.564 208.476 111.458 208.64 111.387C208.803 111.315 208.98 111.279 209.159 111.282C209.337 111.284 209.513 111.325 209.674 111.402C210.756 111.819 211.784 112.362 212.738 113.02C212.399 111.872 212.203 110.687 212.154 109.492C212.143 109.311 212.17 109.13 212.231 108.96C212.293 108.79 212.389 108.634 212.513 108.502C212.638 108.37 212.788 108.266 212.954 108.194C213.12 108.122 213.3 108.086 213.481 108.086H213.587C213.768 108.086 213.947 108.122 214.113 108.194C214.28 108.266 214.43 108.37 214.554 108.502C214.678 108.634 214.774 108.79 214.836 108.96C214.898 109.13 214.924 109.311 214.913 109.492C214.862 110.686 214.671 111.87 214.343 113.02C215.299 112.373 216.321 111.83 217.393 111.402C217.558 111.336 217.735 111.304 217.913 111.308C218.09 111.312 218.266 111.352 218.428 111.425C218.59 111.498 218.735 111.603 218.856 111.733C218.977 111.864 219.07 112.017 219.131 112.184V112.304C219.208 112.474 219.246 112.661 219.241 112.848C219.236 113.036 219.188 113.22 219.101 113.386C219.014 113.552 218.89 113.696 218.739 113.808C218.588 113.919 218.413 113.994 218.229 114.028C217.116 114.326 215.972 114.495 214.82 114.532C215.763 115.225 216.619 116.032 217.367 116.932C217.476 117.069 217.557 117.226 217.606 117.394C217.655 117.562 217.669 117.738 217.65 117.912C217.63 118.085 217.576 118.254 217.491 118.406C217.406 118.559 217.292 118.694 217.154 118.802L217.009 118.922C216.867 119.042 216.7 119.13 216.521 119.177C216.341 119.224 216.153 119.23 215.971 119.194C215.788 119.159 215.616 119.082 215.468 118.971C215.319 118.859 215.197 118.715 215.112 118.55C214.464 117.576 213.93 116.53 213.52 115.434C213.086 116.524 212.544 117.568 211.902 118.55C211.815 118.716 211.693 118.859 211.543 118.971C211.393 119.082 211.22 119.159 211.037 119.194C210.853 119.23 210.664 119.224 210.483 119.177C210.303 119.13 210.135 119.042 209.992 118.922L209.86 118.802C209.722 118.695 209.606 118.561 209.52 118.409C209.434 118.256 209.378 118.088 209.357 117.914C209.336 117.74 209.35 117.564 209.398 117.396C209.445 117.227 209.526 117.07 209.634 116.932C210.4 116.031 211.258 115.213 212.194 114.492C211.052 114.48 209.915 114.324 208.812 114.028Z" fill="#263238"/>
<path d="M222.263 114.028C222.087 113.982 221.923 113.901 221.78 113.79C221.637 113.679 221.518 113.539 221.431 113.38C221.344 113.221 221.291 113.046 221.274 112.865C221.258 112.684 221.278 112.502 221.335 112.33V112.158C221.388 111.987 221.477 111.83 221.596 111.697C221.715 111.564 221.861 111.458 222.024 111.387C222.188 111.315 222.365 111.279 222.543 111.282C222.722 111.284 222.898 111.325 223.059 111.402C224.14 111.819 225.169 112.362 226.123 113.02C225.789 111.872 225.597 110.687 225.552 109.492C225.541 109.311 225.568 109.13 225.629 108.96C225.691 108.79 225.787 108.634 225.911 108.502C226.036 108.37 226.186 108.266 226.352 108.194C226.518 108.122 226.697 108.086 226.879 108.086H227.064C227.245 108.086 227.425 108.122 227.591 108.194C227.757 108.266 227.907 108.37 228.031 108.502C228.156 108.634 228.252 108.79 228.313 108.96C228.375 109.13 228.401 109.311 228.391 109.492C228.34 110.686 228.149 111.87 227.82 113.02C228.776 112.373 229.799 111.83 230.871 111.402C231.036 111.336 231.213 111.304 231.39 111.308C231.568 111.312 231.743 111.352 231.905 111.425C232.067 111.498 232.213 111.603 232.334 111.733C232.454 111.864 232.548 112.017 232.608 112.184V112.304C232.686 112.473 232.724 112.659 232.72 112.845C232.715 113.032 232.668 113.216 232.583 113.382C232.497 113.548 232.375 113.692 232.226 113.804C232.076 113.916 231.903 113.992 231.72 114.028C230.602 114.324 229.454 114.494 228.298 114.532C229.241 115.225 230.096 116.032 230.844 116.932C230.954 117.069 231.035 117.226 231.084 117.394C231.132 117.562 231.147 117.738 231.127 117.912C231.108 118.085 231.054 118.254 230.969 118.406C230.884 118.559 230.769 118.694 230.632 118.802L230.486 118.922C230.345 119.042 230.178 119.13 229.998 119.177C229.819 119.224 229.63 119.23 229.448 119.194C229.266 119.159 229.094 119.082 228.945 118.971C228.796 118.859 228.675 118.715 228.589 118.55C227.947 117.573 227.413 116.527 226.998 115.434C226.564 116.524 226.022 117.568 225.38 118.55C225.294 118.715 225.173 118.859 225.024 118.971C224.876 119.082 224.704 119.159 224.521 119.194C224.339 119.23 224.151 119.224 223.971 119.177C223.791 119.13 223.625 119.042 223.483 118.922L223.337 118.802C223.199 118.695 223.084 118.561 222.997 118.409C222.911 118.256 222.856 118.088 222.835 117.914C222.814 117.74 222.828 117.564 222.875 117.396C222.923 117.227 223.003 117.07 223.112 116.932C223.877 116.031 224.735 115.213 225.672 114.492C224.52 114.482 223.375 114.326 222.263 114.028Z" fill="#263238"/>
<path d="M235.71 114.028C235.535 113.982 235.37 113.901 235.227 113.79C235.084 113.679 234.965 113.539 234.878 113.38C234.791 113.221 234.738 113.046 234.721 112.865C234.705 112.684 234.725 112.502 234.782 112.33V112.158C234.835 111.987 234.924 111.83 235.043 111.697C235.162 111.564 235.308 111.458 235.472 111.387C235.635 111.315 235.812 111.279 235.991 111.282C236.169 111.284 236.345 111.325 236.506 111.402C237.587 111.819 238.616 112.362 239.57 113.02C239.242 111.87 239.05 110.686 239 109.492C238.989 109.311 239.015 109.13 239.077 108.96C239.138 108.79 239.234 108.634 239.359 108.502C239.483 108.37 239.633 108.266 239.799 108.194C239.966 108.122 240.145 108.086 240.326 108.086H240.511C240.693 108.086 240.872 108.122 241.038 108.194C241.204 108.266 241.354 108.37 241.479 108.502C241.603 108.634 241.699 108.79 241.761 108.96C241.822 109.13 241.849 109.311 241.838 109.492C241.787 110.686 241.596 111.87 241.267 113.02C242.223 112.373 243.246 111.83 244.318 111.402C244.483 111.336 244.66 111.304 244.838 111.308C245.015 111.312 245.19 111.352 245.352 111.425C245.515 111.498 245.66 111.603 245.781 111.733C245.902 111.864 245.995 112.017 246.055 112.184V112.304C246.133 112.473 246.171 112.659 246.167 112.845C246.162 113.032 246.116 113.216 246.03 113.382C245.944 113.548 245.822 113.692 245.673 113.804C245.523 113.916 245.35 113.992 245.167 114.028C244.049 114.324 242.901 114.494 241.745 114.532C242.688 115.225 243.543 116.032 244.291 116.932C244.401 117.069 244.482 117.226 244.531 117.394C244.579 117.562 244.594 117.738 244.574 117.912C244.555 118.085 244.501 118.254 244.416 118.406C244.331 118.559 244.216 118.694 244.079 118.802L243.933 118.922C243.792 119.042 243.625 119.13 243.446 119.177C243.266 119.224 243.078 119.23 242.895 119.194C242.713 119.159 242.541 119.082 242.392 118.971C242.244 118.859 242.122 118.715 242.037 118.55C241.394 117.573 240.86 116.527 240.445 115.434C239.999 116.525 239.443 117.57 238.787 118.55C238.702 118.715 238.58 118.859 238.432 118.971C238.283 119.082 238.111 119.159 237.929 119.194C237.746 119.23 237.558 119.224 237.379 119.177C237.199 119.13 237.032 119.042 236.891 118.922L236.745 118.802C236.607 118.695 236.491 118.561 236.405 118.409C236.319 118.256 236.263 118.088 236.242 117.914C236.222 117.74 236.235 117.564 236.283 117.396C236.33 117.227 236.411 117.07 236.519 116.932C237.285 116.031 238.143 115.213 239.079 114.492C237.941 114.479 236.809 114.323 235.71 114.028Z" fill="#263238"/>
<path d="M249.159 114.028C248.983 113.982 248.819 113.901 248.676 113.79C248.532 113.679 248.414 113.539 248.327 113.38C248.24 113.221 248.186 113.046 248.17 112.865C248.153 112.684 248.174 112.502 248.23 112.33L248.297 112.158C248.359 111.993 248.455 111.842 248.577 111.715C248.698 111.587 248.845 111.485 249.006 111.415C249.168 111.344 249.342 111.307 249.519 111.305C249.695 111.302 249.87 111.335 250.034 111.402C251.11 111.822 252.133 112.365 253.084 113.02C252.756 111.87 252.565 110.686 252.514 109.492C252.503 109.311 252.529 109.13 252.591 108.96C252.653 108.79 252.749 108.634 252.873 108.502C252.998 108.37 253.147 108.266 253.314 108.194C253.48 108.122 253.659 108.086 253.84 108.086H254.026C254.207 108.086 254.386 108.122 254.553 108.194C254.719 108.266 254.869 108.37 254.993 108.502C255.117 108.634 255.213 108.79 255.275 108.96C255.337 109.13 255.363 109.311 255.352 109.492C255.302 110.686 255.11 111.87 254.782 113.02C255.738 112.373 256.761 111.83 257.833 111.402C257.998 111.336 258.174 111.304 258.352 111.308C258.53 111.312 258.705 111.352 258.867 111.425C259.029 111.498 259.175 111.603 259.296 111.733C259.416 111.864 259.51 112.017 259.57 112.184V112.304C259.648 112.473 259.686 112.659 259.681 112.845C259.677 113.032 259.63 113.216 259.545 113.382C259.459 113.548 259.337 113.692 259.187 113.804C259.038 113.916 258.865 113.992 258.681 114.028C257.563 114.324 256.416 114.494 255.26 114.532C256.203 115.225 257.058 116.032 257.806 116.932C257.915 117.069 257.997 117.226 258.045 117.394C258.094 117.562 258.109 117.738 258.089 117.912C258.069 118.085 258.015 118.254 257.93 118.406C257.845 118.559 257.731 118.694 257.594 118.802L257.448 118.922C257.307 119.042 257.14 119.13 256.96 119.177C256.78 119.224 256.592 119.23 256.41 119.194C256.228 119.159 256.056 119.082 255.907 118.971C255.758 118.859 255.637 118.715 255.551 118.55C254.909 117.573 254.375 116.527 253.96 115.434C253.526 116.524 252.984 117.568 252.342 118.55C252.256 118.715 252.135 118.859 251.986 118.971C251.837 119.082 251.665 119.159 251.483 119.194C251.301 119.23 251.113 119.224 250.933 119.177C250.753 119.13 250.586 119.042 250.445 118.922L250.299 118.802C250.152 118.701 250.029 118.57 249.937 118.417C249.845 118.264 249.787 118.093 249.767 117.916C249.747 117.738 249.765 117.559 249.82 117.389C249.875 117.22 249.966 117.064 250.087 116.932C250.844 116.028 251.698 115.21 252.633 114.492C251.46 114.488 250.292 114.332 249.159 114.028Z" fill="#263238"/>
<path d="M262.66 114.028C262.484 113.982 262.32 113.901 262.176 113.79C262.033 113.679 261.915 113.539 261.828 113.38C261.741 113.221 261.687 113.046 261.671 112.865C261.654 112.684 261.675 112.502 261.731 112.33L261.797 112.158C261.86 111.993 261.956 111.842 262.078 111.715C262.199 111.587 262.346 111.485 262.507 111.415C262.669 111.344 262.843 111.307 263.02 111.305C263.196 111.302 263.371 111.335 263.535 111.402C264.611 111.822 265.634 112.365 266.585 113.02C266.257 111.87 266.066 110.686 266.015 109.492C266.004 109.311 266.03 109.13 266.092 108.96C266.154 108.79 266.25 108.634 266.374 108.502C266.498 108.37 266.648 108.266 266.815 108.194C266.981 108.122 267.16 108.086 267.341 108.086H267.527C267.708 108.086 267.887 108.122 268.054 108.194C268.22 108.266 268.37 108.37 268.494 108.502C268.618 108.634 268.714 108.79 268.776 108.96C268.838 109.13 268.864 109.311 268.853 109.492C268.803 110.686 268.611 111.87 268.283 113.02C269.242 112.37 270.269 111.827 271.347 111.402C271.51 111.326 271.687 111.286 271.867 111.285C272.047 111.284 272.225 111.322 272.389 111.396C272.553 111.471 272.698 111.58 272.816 111.716C272.934 111.852 273.021 112.011 273.071 112.184V112.304C273.149 112.473 273.187 112.659 273.182 112.845C273.178 113.032 273.131 113.216 273.046 113.382C272.96 113.548 272.838 113.692 272.688 113.804C272.539 113.916 272.366 113.992 272.182 114.028C271.065 114.325 269.917 114.495 268.76 114.532C269.705 115.229 270.564 116.035 271.32 116.932C271.429 117.07 271.509 117.227 271.557 117.396C271.604 117.564 271.618 117.74 271.597 117.914C271.576 118.088 271.521 118.256 271.435 118.409C271.349 118.561 271.233 118.695 271.095 118.802L270.949 118.922C270.808 119.042 270.641 119.13 270.461 119.177C270.281 119.224 270.093 119.23 269.911 119.194C269.728 119.159 269.557 119.082 269.408 118.971C269.259 118.859 269.138 118.715 269.052 118.55C268.41 117.573 267.876 116.527 267.461 115.434C267.027 116.524 266.485 117.568 265.843 118.55C265.757 118.715 265.636 118.859 265.487 118.971C265.338 119.082 265.166 119.159 264.984 119.194C264.802 119.23 264.614 119.224 264.434 119.177C264.254 119.13 264.087 119.042 263.946 118.922L263.8 118.802C263.653 118.701 263.53 118.57 263.438 118.417C263.346 118.264 263.288 118.093 263.268 117.916C263.248 117.738 263.266 117.559 263.321 117.389C263.376 117.22 263.467 117.064 263.588 116.932C264.345 116.028 265.199 115.21 266.134 114.492C264.961 114.488 263.793 114.332 262.66 114.028Z" fill="#263238"/>
<path d="M276.07 114.028C275.893 113.984 275.728 113.904 275.583 113.793C275.439 113.682 275.318 113.543 275.23 113.384C275.142 113.225 275.087 113.049 275.07 112.868C275.052 112.686 275.072 112.503 275.129 112.33L275.195 112.158C275.258 111.993 275.353 111.842 275.475 111.715C275.597 111.587 275.743 111.485 275.905 111.415C276.067 111.344 276.241 111.307 276.417 111.305C276.594 111.302 276.769 111.335 276.932 111.402C278.008 111.822 279.032 112.365 279.983 113.02C279.655 111.87 279.463 110.686 279.413 109.492C279.402 109.311 279.428 109.13 279.49 108.96C279.551 108.79 279.647 108.634 279.772 108.502C279.896 108.37 280.046 108.266 280.212 108.194C280.379 108.122 280.558 108.086 280.739 108.086H280.924C281.106 108.086 281.285 108.122 281.451 108.194C281.617 108.266 281.767 108.37 281.892 108.502C282.016 108.634 282.112 108.79 282.174 108.96C282.235 109.13 282.262 109.311 282.251 109.492C282.202 110.687 282.006 111.872 281.667 113.02C282.626 112.37 283.653 111.827 284.731 111.402C284.894 111.326 285.072 111.286 285.251 111.285C285.431 111.284 285.609 111.322 285.773 111.396C285.937 111.471 286.083 111.58 286.2 111.716C286.318 111.852 286.405 112.011 286.455 112.184V112.304C286.533 112.474 286.57 112.661 286.565 112.848C286.56 113.036 286.512 113.22 286.425 113.386C286.338 113.552 286.215 113.696 286.063 113.808C285.912 113.919 285.738 113.994 285.553 114.028C284.436 114.325 283.287 114.495 282.131 114.532C283.076 115.229 283.935 116.035 284.691 116.932C284.8 117.07 284.88 117.227 284.928 117.396C284.975 117.564 284.989 117.74 284.968 117.914C284.947 118.088 284.892 118.256 284.806 118.409C284.719 118.561 284.604 118.695 284.466 118.802L284.333 118.922C284.191 119.042 284.023 119.13 283.842 119.177C283.661 119.224 283.472 119.23 283.289 119.194C283.106 119.159 282.933 119.082 282.783 118.971C282.633 118.859 282.51 118.716 282.423 118.55C281.78 117.575 281.251 116.529 280.845 115.434C280.407 116.525 279.86 117.569 279.214 118.55C279.128 118.715 279.007 118.859 278.858 118.971C278.709 119.082 278.537 119.159 278.355 119.194C278.173 119.23 277.985 119.224 277.805 119.177C277.625 119.13 277.458 119.042 277.317 118.922L277.171 118.802C277.024 118.701 276.9 118.57 276.809 118.417C276.717 118.264 276.659 118.093 276.639 117.916C276.619 117.738 276.637 117.559 276.692 117.389C276.747 117.22 276.838 117.064 276.959 116.932C277.716 116.028 278.57 115.21 279.505 114.492C278.345 114.487 277.19 114.331 276.07 114.028Z" fill="#263238"/>
<path d="M289.518 114.028C289.341 113.984 289.175 113.904 289.03 113.793C288.886 113.682 288.766 113.543 288.677 113.384C288.589 113.225 288.534 113.049 288.517 112.868C288.499 112.686 288.519 112.503 288.576 112.33V112.158C288.639 111.993 288.734 111.842 288.856 111.715C288.978 111.587 289.124 111.485 289.286 111.415C289.448 111.344 289.622 111.307 289.798 111.305C289.975 111.302 290.15 111.335 290.313 111.402C291.389 111.822 292.413 112.365 293.364 113.02C293.035 111.87 292.844 110.686 292.793 109.492C292.783 109.311 292.809 109.13 292.871 108.96C292.932 108.79 293.028 108.634 293.153 108.502C293.277 108.37 293.427 108.266 293.593 108.194C293.759 108.122 293.939 108.086 294.12 108.086H294.305C294.486 108.086 294.666 108.122 294.832 108.194C294.998 108.266 295.148 108.37 295.273 108.502C295.397 108.634 295.493 108.79 295.555 108.96C295.616 109.13 295.643 109.311 295.632 109.492C295.583 110.687 295.387 111.872 295.048 113.02C296.007 112.37 297.034 111.827 298.112 111.402C298.275 111.326 298.452 111.286 298.632 111.285C298.812 111.284 298.99 111.322 299.154 111.396C299.318 111.471 299.464 111.58 299.581 111.716C299.699 111.852 299.786 112.011 299.836 112.184V112.304C299.914 112.474 299.951 112.661 299.946 112.848C299.941 113.036 299.893 113.22 299.806 113.386C299.719 113.552 299.596 113.696 299.444 113.808C299.293 113.919 299.119 113.994 298.934 114.028C297.816 114.325 296.668 114.495 295.512 114.532C296.457 115.229 297.316 116.035 298.072 116.932C298.181 117.07 298.261 117.227 298.309 117.396C298.356 117.564 298.37 117.74 298.349 117.914C298.328 118.088 298.273 118.256 298.187 118.409C298.1 118.561 297.985 118.695 297.847 118.802L297.701 118.922C297.559 119.042 297.393 119.13 297.213 119.177C297.033 119.224 296.845 119.23 296.663 119.194C296.48 119.159 296.308 119.082 296.16 118.971C296.011 118.859 295.889 118.715 295.804 118.55C295.161 117.575 294.632 116.529 294.226 115.434C293.788 116.525 293.241 117.569 292.595 118.55C292.509 118.715 292.388 118.859 292.239 118.971C292.09 119.082 291.918 119.159 291.736 119.194C291.554 119.23 291.365 119.224 291.186 119.177C291.006 119.13 290.839 119.042 290.698 118.922L290.552 118.802C290.405 118.701 290.281 118.57 290.19 118.417C290.098 118.264 290.04 118.093 290.02 117.916C290 117.738 290.018 117.559 290.073 117.389C290.128 117.22 290.219 117.064 290.34 116.932C291.097 116.028 291.951 115.21 292.886 114.492C291.748 114.481 290.616 114.325 289.518 114.028Z" fill="#263238"/>
<path d="M169.868 245.133C160.763 244.3 151.771 243.96 151.771 243.96C148.467 244.061 141.429 244.351 134.165 245.133C136.284 252.372 143.472 257.707 152.01 257.707C160.561 257.719 167.75 252.359 169.868 245.133Z" fill="#50BFD7"/>
<path d="M158.055 147.85C158.055 150.514 155.287 152.674 151.874 152.674C148.461 152.674 145.693 150.514 145.693 147.85C145.693 145.186 148.461 143.026 151.874 143.026C155.287 143.026 158.055 145.186 158.055 147.85Z" fill="white"/>
<path d="M262.47 40.0738L265.637 43.2408L236.817 72.0607L224.149 59.3926L227.316 56.2256L236.817 65.7267L262.47 40.0738ZM262.47 33.6719L236.817 59.3248L227.316 49.8237L217.747 59.3926L236.817 78.4627L272.039 43.2408L262.47 33.6719Z" fill="#50BFD7"/>
<path d="M98.0325 201.872L98.7559 248.199L97.7664 258.529L109.975 258.209L111.591 256.292L120.79 196.024L98.0325 201.872Z" fill="#2C2C2C"/>
<path d="M187.467 200.589L194.015 246.457L194.326 256.834L206.391 254.982L207.759 252.893L209.318 191.936L187.467 200.589Z" fill="#2C2C2C"/>
<path d="M150.61 181.235C155.656 181.235 163.522 180.191 163.522 176.765L162.229 165.333L161.092 155.334C161.092 151.907 156.996 149.119 151.949 149.119C149.426 149.119 147.137 149.82 145.486 150.941C143.835 152.063 142.807 153.62 142.807 155.334L141.701 165.348L140.626 174.942C139.162 180.736 150.61 181.235 150.61 181.235Z" fill="#2C2C2C"/>
<path d="M212.395 196.124C212.395 206.06 205.885 212.213 195.948 212.213C186.011 212.213 177.959 204.16 177.959 194.224C177.959 184.287 185.466 173.322 194.936 176.297C205.371 179.552 212.395 186.187 212.395 196.124Z" fill="white"/>
<path d="M195.948 212.836C185.684 212.836 177.336 204.488 177.336 194.224C177.336 187.62 180.466 180.892 185.108 177.481C188.192 175.223 191.649 174.6 195.122 175.69C206.648 179.303 213.002 186.561 213.002 196.109C213.018 206.263 206.305 212.836 195.948 212.836ZM191.805 176.422C189.734 176.422 187.709 177.123 185.84 178.493C181.557 181.639 178.582 188.103 178.582 194.224C178.582 203.803 186.369 211.59 195.948 211.59C200.683 211.59 204.67 210.157 207.458 207.447C210.277 204.721 211.772 200.797 211.772 196.124C211.772 187.169 205.729 180.331 194.764 176.889C193.767 176.578 192.786 176.422 191.805 176.422Z" fill="#2C2C2C"/>
<path d="M204.296 193.227C204.296 200.579 199.483 205.127 192.132 205.127C184.781 205.127 178.831 199.177 178.831 191.826C178.831 184.474 184.376 176.36 191.384 178.556C199.094 180.986 204.296 185.892 204.296 193.227Z" fill="#2C2C2C"/>
<path d="M91.6738 196.125C91.6738 206.061 98.1841 212.214 108.121 212.214C118.058 212.214 126.11 204.161 126.11 194.225C126.11 184.288 118.603 173.323 109.133 176.298C98.6981 179.553 91.6738 186.188 91.6738 196.125Z" fill="white"/>
<path d="M108.121 212.836C97.748 212.836 91.0508 206.279 91.0508 196.124C91.0508 186.577 97.4053 179.319 108.931 175.705C112.404 174.615 115.877 175.238 118.945 177.497C123.602 180.908 126.717 187.636 126.717 194.24C126.733 204.488 118.385 212.836 108.121 212.836ZM112.264 176.422C111.283 176.422 110.301 176.578 109.32 176.889C98.3554 180.331 92.3124 187.169 92.3124 196.124C92.3124 200.797 93.8075 204.722 96.6266 207.447C99.4301 210.157 103.402 211.59 108.136 211.59C117.715 211.59 125.502 203.803 125.502 194.224C125.502 188.103 122.512 181.624 118.245 178.493C116.344 177.107 114.335 176.422 112.264 176.422Z" fill="#2C2C2C"/>
<path d="M99.7715 193.226C99.7715 200.578 104.584 205.126 111.935 205.126C119.287 205.126 125.236 199.176 125.236 191.825C125.236 184.473 119.692 176.359 112.683 178.555C104.958 180.985 99.7715 185.891 99.7715 193.226Z" fill="#2C2C2C"/>
<path d="M163.848 168.96H140.158C129.816 169.894 119.926 172.028 110.69 175.19L128.415 266.054C129.692 272.626 135.455 277.377 142.152 277.377H162.181C168.894 277.377 174.672 272.611 175.934 266.007L193.331 175.19C184.095 172.028 174.205 169.894 163.848 168.96Z" fill="white"/>
<path d="M162.182 278H142.152C135.175 278 129.132 273.031 127.808 266.178L109.975 174.769L110.489 174.598C119.927 171.374 129.879 169.256 140.096 168.337H140.159H163.879H163.91C174.128 169.256 184.096 171.358 193.534 174.598L194.048 174.769L176.542 266.132C175.233 273 169.19 278 162.182 278ZM111.408 175.595L129.023 265.929C130.238 272.19 135.767 276.738 142.152 276.738H162.182C168.583 276.738 174.112 272.175 175.311 265.882L192.599 175.595C183.41 172.495 173.723 170.471 163.801 169.567H140.19C130.269 170.471 120.581 172.495 111.408 175.595Z" fill="#2C2C2C"/>
<path d="M122.9 171.701C125.128 185.781 127.355 199.861 129.582 213.925C131.576 224.516 141.621 231.571 152.103 231.633C162.585 231.571 172.631 224.531 174.625 213.925C176.852 199.861 179.079 185.796 181.306 171.748C175.668 170.44 169.828 169.49 163.847 168.96H140.157C134.239 169.49 128.476 170.424 122.9 171.701Z" fill="#50BFD7"/>
<path d="M152.12 232.256C146.777 232.225 141.513 230.45 137.292 227.226C132.9 223.893 129.956 219.205 128.975 214.034V214.018L122.2 171.218L122.761 171.094C128.415 169.785 134.255 168.866 140.096 168.337H140.158H163.879H163.91C169.828 168.866 175.731 169.817 181.463 171.14L182.023 171.265L175.248 214.034C174.283 219.205 171.323 223.877 166.931 227.226C162.71 230.45 157.446 232.225 152.12 232.256ZM130.206 213.831C131.125 218.691 133.897 223.098 138.04 226.244C142.058 229.297 147.058 230.995 152.12 231.01C157.181 230.979 162.181 229.281 166.184 226.244C170.327 223.098 173.099 218.691 174.018 213.831L180.606 172.231C175.124 170.985 169.486 170.097 163.816 169.583H140.189C134.598 170.081 129.022 170.953 123.602 172.184L130.206 213.831Z" fill="#2C2C2C"/>
<path d="M157.728 178.281H145.766C142.589 178.281 140.004 180.867 140.004 184.044V196.006C140.004 199.183 142.589 201.768 145.766 201.768H157.728C160.905 201.768 163.491 199.183 163.491 196.006V184.044C163.491 180.867 160.921 178.281 157.728 178.281ZM136.826 173.188C135.004 173.188 133.524 174.668 133.524 176.49C133.524 178.313 135.004 179.792 136.826 179.792C138.649 179.792 140.128 178.313 140.128 176.49C140.128 174.668 138.649 173.188 136.826 173.188Z" fill="white"/>
<path d="M156.885 185.416C156.122 183.375 154.175 182.02 151.995 182.02H148.755L155.157 198.249H162.025L156.885 185.416ZM143.803 193.593L141.934 198.249H148.755L151.933 190.197H148.693C146.513 190.197 144.566 191.552 143.803 193.593ZM144.862 186.054C145.983 186.054 146.902 185.135 146.902 184.014C146.902 182.893 145.983 181.974 144.862 181.974C143.74 181.974 142.821 182.893 142.821 184.014C142.821 185.135 143.74 186.054 144.862 186.054Z" fill="#50BFD7"/>
<path d="M163.597 162.824H140.437C137.104 162.824 134.363 160.099 134.363 156.75C134.363 153.417 137.089 150.676 140.437 150.676H163.597C166.93 150.676 169.672 153.401 169.672 156.75C169.656 160.099 166.93 162.824 163.597 162.824Z" fill="#50BFD7"/>
<path d="M163.598 163.447H140.438C136.747 163.447 133.741 160.441 133.741 156.75C133.741 153.059 136.747 150.053 140.438 150.053H163.598C167.29 150.053 170.295 153.059 170.295 156.75C170.295 160.441 167.274 163.447 163.598 163.447ZM140.438 151.314C137.432 151.314 134.987 153.76 134.987 156.766C134.987 159.771 137.432 162.217 140.438 162.217H163.598C166.604 162.217 169.049 159.771 169.049 156.766C169.049 153.76 166.604 151.314 163.598 151.314H140.438Z" fill="#2C2C2C"/>
<path d="M153.303 39.4404H150.718V56.3859H153.303V39.4404Z" fill="#2C2C2C"/>
<path d="M162.601 59.9525H141.42C141.03 59.9525 140.719 59.641 140.719 59.2516V49.5329C140.719 49.1435 141.03 48.832 141.42 48.832H162.601C162.991 48.832 163.302 49.1435 163.302 49.5329V59.2672C163.302 59.641 162.991 59.9525 162.601 59.9525Z" fill="#50BFD7"/>
<path d="M162.6 60.5745H141.419C140.687 60.5745 140.095 59.9826 140.095 59.2506V49.5319C140.095 48.7999 140.687 48.208 141.419 48.208H162.6C163.332 48.208 163.924 48.7999 163.924 49.5319V59.2662C163.924 59.9826 163.332 60.5745 162.6 60.5745ZM141.419 49.4384C141.372 49.4384 141.341 49.4696 141.341 49.5163V59.2506C141.341 59.2973 141.372 59.3285 141.419 59.3285H162.6C162.647 59.3285 162.678 59.2973 162.678 59.2506V49.5319C162.678 49.4851 162.647 49.454 162.6 49.454H141.419V49.4384Z" fill="#2C2C2C"/>
<path d="M155.327 38.3019C155.327 40.1241 153.848 41.6038 152.026 41.6038C150.203 41.6038 148.724 40.1241 148.724 38.3019C148.724 36.4796 150.203 35 152.026 35C153.832 35 155.327 36.4796 155.327 38.3019Z" fill="#2C2C2C"/>
<path d="M154.316 37.0251C154.316 37.5858 153.864 38.0374 153.303 38.0374C152.743 38.0374 152.291 37.5858 152.291 37.0251C152.291 36.4644 152.743 36.0127 153.303 36.0127C153.864 36.0127 154.316 36.4644 154.316 37.0251Z" fill="#2C2C2C"/>
<path d="M171.385 129.385C180.159 129.385 187.272 122.273 187.272 113.499C187.272 104.725 180.159 97.6123 171.385 97.6123C162.612 97.6123 155.499 104.725 155.499 113.499C155.499 122.273 162.612 129.385 171.385 129.385Z" fill="#002731"/>
<path d="M152.011 142.64C190.616 142.64 221.912 128.589 221.912 111.256C221.912 93.9239 190.616 79.873 152.011 79.873C113.407 79.873 82.1113 93.9239 82.1113 111.256C82.1113 128.589 113.407 142.64 152.011 142.64Z" fill="#2C2C2C"/>
<path d="M90.273 125.989C91.519 127.033 92.874 128.045 94.3692 129.011C90.7559 118.591 89.1828 107.035 89.5566 97.1445C88.4196 98.1569 87.3917 99.216 86.5039 100.291C86.5351 108.452 87.7655 117.454 90.273 125.989Z" fill="#50BFD7"/>
<path d="M217.504 100.275C216.601 99.2004 215.573 98.1413 214.436 97.1289C215.028 107.112 213.018 118.871 209.031 129.431C210.573 128.45 212.006 127.438 213.299 126.379C216.087 117.657 217.551 108.514 217.504 100.275Z" fill="#50BFD7"/>
<path d="M166.278 156.859H137.76C114.694 156.859 96.0039 138.17 96.0039 115.103V108.764C96.0039 79.1719 119.989 55.2021 149.566 55.2021H154.441C184.033 55.2021 208.003 79.1875 208.003 108.764V115.103C208.019 138.17 189.329 156.859 166.278 156.859Z" fill="white"/>
<path d="M166.278 157.482H137.76C126.437 157.482 115.8 153.075 107.794 145.069C99.7886 137.064 95.3809 126.426 95.3809 115.103V108.764C95.3809 94.2951 101.019 80.6826 111.252 70.4499C121.484 60.2172 135.097 54.5791 149.566 54.5791H154.441C168.91 54.5791 182.522 60.2172 192.755 70.4499C202.988 80.6826 208.626 94.2951 208.626 108.764V115.103C208.626 126.426 204.218 137.064 196.213 145.069C188.223 153.075 177.585 157.482 166.278 157.482ZM149.581 55.8251C135.439 55.8251 122.139 61.3386 112.139 71.3377C102.14 81.3368 96.6269 94.6377 96.6269 108.78V115.119C96.6269 126.099 100.91 136.425 108.666 144.197C116.438 151.969 126.764 156.236 137.745 156.236H166.262C177.242 156.236 187.569 151.953 195.341 144.197C203.112 136.425 207.38 126.099 207.38 115.119V108.78C207.38 94.6377 201.866 81.3368 191.867 71.3377C181.868 61.3386 168.567 55.8251 154.425 55.8251H149.581V55.8251Z" fill="#2C2C2C"/>
<path d="M140.468 133.154C140.826 135.958 142.197 138.543 144.315 140.412C146.433 142.281 149.174 143.325 152.009 143.325C154.843 143.325 157.569 142.297 159.703 140.412C161.821 138.543 163.192 135.958 163.55 133.154H140.468Z" fill="white"/>
<path d="M152.009 143.948C149.019 143.948 146.153 142.857 143.911 140.879C141.668 138.901 140.235 136.191 139.861 133.232L139.768 132.531H164.251L164.158 133.232C163.784 136.191 162.336 138.917 160.108 140.879C157.881 142.857 155 143.948 152.009 143.948ZM141.2 133.777C141.668 136.16 142.898 138.341 144.736 139.945C146.745 141.72 149.331 142.702 152.009 142.702C154.688 142.702 157.274 141.72 159.283 139.945C161.121 138.325 162.351 136.16 162.818 133.777H141.2Z" fill="#2C2C2C"/>
<path d="M152.01 88.6414C169.158 88.6414 184.702 83.4706 196.103 75.0913C186.275 62.9584 171.277 55.2021 154.44 55.2021H149.565C132.744 55.2021 117.73 62.9584 107.902 75.0913C119.319 83.4706 134.862 88.6414 152.01 88.6414Z" fill="#2C2C2C"/>
<path d="M152.01 63.1436C134.863 63.1436 119.319 68.3144 107.918 76.6937C117.746 88.8266 132.744 96.5828 149.581 96.5828H154.456C171.277 96.5828 186.291 88.8266 196.119 76.6937C184.702 68.3144 169.158 63.1436 152.01 63.1436Z" fill="#50BFD7"/>
<path d="M154.456 97.2223H149.581C133.149 97.2223 117.793 89.8866 107.435 77.0996L107.03 76.5856L107.56 76.1962C119.537 67.3809 135.33 62.5215 152.026 62.5215C168.707 62.5215 184.5 67.3809 196.492 76.1962L197.022 76.5856L196.617 77.0996C186.244 89.8866 170.887 97.2223 154.456 97.2223ZM108.821 76.8192C118.929 88.9988 133.741 95.9764 149.581 95.9764H154.456C170.295 95.9764 185.107 88.9988 195.215 76.8192C183.503 68.3932 168.193 63.7675 152.026 63.7675C135.828 63.7675 120.518 68.3932 108.821 76.8192Z" fill="#2C2C2C"/>
<path d="M190.965 122.734C189.485 123.622 187.818 124.089 186.121 124.089H117.918C116.221 124.089 114.554 123.622 113.075 122.734C109.43 120.554 107.359 116.131 107.873 111.598L107.904 111.271C109.648 95.93 121.127 84.1398 135.191 83.252C141.141 82.8782 147.386 82.6757 153.896 82.7225C159.005 82.7536 163.927 82.9405 168.677 83.2364C182.803 84.1242 194.36 95.8677 196.104 111.271C196.12 111.38 196.135 111.489 196.135 111.598C196.681 116.131 194.609 120.554 190.965 122.734Z" fill="white"/>
<path d="M186.105 124.712H117.919C116.112 124.712 114.336 124.214 112.748 123.264C108.854 120.943 106.705 116.333 107.25 111.52L107.281 111.193C109.056 95.5404 120.784 83.5166 135.144 82.6132C141.359 82.2238 147.667 82.0525 153.897 82.0837C158.818 82.1148 163.802 82.2861 168.708 82.5976C183.162 83.501 194.936 95.5248 196.712 111.178L196.743 111.505C197.288 116.302 195.139 120.912 191.245 123.248C189.703 124.214 187.912 124.712 186.105 124.712ZM152.043 83.3452C146.452 83.3452 140.814 83.5166 135.238 83.8748C121.485 84.747 110.24 96.3035 108.527 111.349L108.496 111.676C107.997 115.99 109.929 120.133 113.402 122.205C114.788 123.03 116.361 123.466 117.934 123.466H186.137C187.71 123.466 189.283 123.03 190.669 122.205C194.142 120.133 196.058 115.99 195.575 111.676L195.544 111.349C193.831 96.288 182.539 84.7314 168.693 83.8748C163.802 83.5633 158.834 83.392 153.943 83.3608C153.274 83.3452 152.666 83.3452 152.043 83.3452Z" fill="#2C2C2C"/>
<path d="M141.03 104.343C141.03 110.23 135.906 115.027 129.614 115.027C123.306 115.027 118.197 110.245 118.197 104.343C118.197 98.4397 123.306 93.6582 129.614 93.6582C135.921 93.6582 141.03 98.4397 141.03 104.343Z" fill="white"/>
<path d="M129.614 115.649C122.979 115.649 117.574 110.572 117.574 104.342C117.574 98.1116 122.979 93.0342 129.614 93.0342C136.249 93.0342 141.653 98.1116 141.653 104.342C141.653 110.572 136.264 115.649 129.614 115.649ZM129.614 94.2802C123.664 94.2802 118.82 98.7969 118.82 104.342C118.82 109.886 123.664 114.403 129.614 114.403C135.563 114.403 140.407 109.886 140.407 104.342C140.407 98.7969 135.563 94.2802 129.614 94.2802Z" fill="#2C2C2C"/>
<path d="M124.022 103.672C124.022 108.547 127.184 112.487 131.078 112.487C134.987 112.487 138.149 108.531 138.149 103.672C138.149 98.7968 134.987 94.8408 131.078 94.8408C127.184 94.8408 124.022 98.7968 124.022 103.672Z" fill="#50BFD7"/>
<path d="M126.063 103.671C126.063 107.129 128.306 109.932 131.079 109.932C133.851 109.932 136.094 107.129 136.094 103.671C136.094 100.198 133.851 97.3945 131.079 97.3945C128.306 97.3945 126.063 100.198 126.063 103.671Z" fill="#2C2C2C"/>
<path d="M125.752 97.7377C125.752 98.6877 126.92 99.4509 128.337 99.4509C129.77 99.4509 130.923 98.6877 130.923 97.7377C130.923 96.7876 129.77 96.0244 128.337 96.0244C126.905 96.0244 125.752 96.7876 125.752 97.7377Z" fill="white"/>
<path d="M184.639 104.343C184.639 110.23 179.515 115.027 173.223 115.027C166.915 115.027 161.807 110.245 161.807 104.343C161.807 98.4397 166.915 93.6582 173.223 93.6582C179.515 93.6582 184.639 98.4397 184.639 104.343Z" fill="white"/>
<path d="M173.223 115.649C166.588 115.649 161.184 110.572 161.184 104.342C161.184 98.1116 166.588 93.0342 173.223 93.0342C179.858 93.0342 185.262 98.1116 185.262 104.342C185.262 110.572 179.858 115.649 173.223 115.649ZM173.223 94.2802C167.273 94.2802 162.43 98.7969 162.43 104.342C162.43 109.886 167.273 114.403 173.223 114.403C179.173 114.403 184.016 109.886 184.016 104.342C184.016 98.7969 179.173 94.2802 173.223 94.2802Z" fill="#2C2C2C"/>
<path d="M167.632 103.672C167.632 108.547 170.794 112.487 174.687 112.487C178.597 112.487 181.758 108.531 181.758 103.672C181.758 98.7968 178.597 94.8408 174.687 94.8408C170.794 94.8408 167.632 98.7968 167.632 103.672Z" fill="#50BFD7"/>
<path d="M169.673 103.671C169.673 107.129 171.916 109.932 174.688 109.932C177.46 109.932 179.703 107.129 179.703 103.671C179.703 100.198 177.46 97.3945 174.688 97.3945C171.916 97.3945 169.673 100.198 169.673 103.671Z" fill="#2C2C2C"/>
<path d="M169.346 97.7377C169.346 98.6877 170.514 99.4509 171.931 99.4509C173.364 99.4509 174.517 98.6877 174.517 97.7377C174.517 96.7876 173.364 96.0244 171.931 96.0244C170.514 96.0244 169.346 96.7876 169.346 97.7377Z" fill="white"/>
<path fill-rule="evenodd" clip-rule="evenodd" d="M303.362 264.21C303.362 263.957 303.567 263.753 303.819 263.753H318.867C319.119 263.753 319.324 263.957 319.324 264.21C319.324 264.462 319.119 264.666 318.867 264.666H303.819C303.567 264.666 303.362 264.462 303.362 264.21Z" fill="#2C2C2C"/>
<path fill-rule="evenodd" clip-rule="evenodd" d="M19.5986 264.21C19.5986 263.957 19.8031 263.753 20.0553 263.753H298.804C299.056 263.753 299.26 263.957 299.26 264.21C299.26 264.462 299.056 264.666 298.804 264.666H20.0553C19.8031 264.666 19.5986 264.462 19.5986 264.21Z" fill="#2C2C2C"/>
<path fill-rule="evenodd" clip-rule="evenodd" d="M0 264.21C0 263.957 0.204459 263.753 0.456671 263.753H10.7395C10.9918 263.753 11.1962 263.957 11.1962 264.21C11.1962 264.462 10.9918 264.666 10.7395 264.666H0.456671C0.204459 264.666 0 264.462 0 264.21Z" fill="#2C2C2C"/>
<path d="M159.479 258.289C159.479 258.604 159.756 258.97 160.084 258.932C163.805 258.541 166.655 255.666 170.325 256.271C166.642 258.1 163.451 261.278 163.905 265.957C163.956 266.537 164.511 266.764 164.94 266.411C167.575 264.166 170.602 262.161 174.133 262.905C175.647 263.22 177.425 263.813 178.989 263.611C181.322 263.321 183.289 262.261 184.45 260.004C186.493 256.094 185.736 251.403 181.158 250.432C181.044 250.407 180.956 250.419 180.855 250.457C179.165 249.789 177.627 248.944 176.265 247.468C174.953 246.03 173.73 244.441 172.305 243.117C170.4 241.339 168.332 239.939 165.81 241.137C165.431 241.314 165.457 241.856 165.696 242.146C166.806 243.521 168.105 244.832 169.467 246.093C168.105 245.778 166.73 245.614 165.318 245.728C162.796 245.942 159.819 247.619 159.882 250.621C159.895 250.999 160.16 251.226 160.488 251.264C162.808 251.504 165.141 251.466 167.449 251.706C163.855 252.765 159.441 253.976 159.479 258.289Z" fill="#C4C4C4"/>
<path fill-rule="evenodd" clip-rule="evenodd" d="M169.473 240.54C170.635 240.999 171.685 241.849 172.647 242.747C173.611 243.642 174.501 244.676 175.365 245.678C175.793 246.175 176.214 246.664 176.635 247.126C177.888 248.482 179.301 249.284 180.887 249.926C181.002 249.907 181.126 249.907 181.263 249.937C183.734 250.462 185.214 252.014 185.771 253.977C186.319 255.91 185.962 258.193 184.896 260.235C183.643 262.671 181.51 263.804 179.051 264.11C178.189 264.221 177.291 264.111 176.444 263.945C176.018 263.862 175.596 263.762 175.192 263.666C175.149 263.655 175.106 263.645 175.064 263.635C174.703 263.548 174.359 263.466 174.029 263.397L174.028 263.397C170.754 262.707 167.899 264.55 165.265 266.793L165.262 266.796L165.259 266.799C164.916 267.081 164.472 267.164 164.08 266.996C163.689 266.828 163.442 266.45 163.402 266.002C162.991 261.759 165.407 258.713 168.455 256.749C167.44 256.887 166.453 257.254 165.418 257.691C165.188 257.788 164.956 257.889 164.72 257.992C163.32 258.6 161.81 259.256 160.138 259.432C159.761 259.474 159.459 259.281 159.277 259.074C159.097 258.867 158.974 258.583 158.973 258.29C158.953 255.914 160.179 254.389 161.832 253.349C162.703 252.8 163.708 252.377 164.726 252.022C164.468 252.01 164.21 251.999 163.95 251.987L163.939 251.987C162.783 251.937 161.609 251.886 160.434 251.765L160.431 251.764L160.428 251.764C159.889 251.702 159.399 251.3 159.377 250.636L159.377 250.633L159.377 250.63C159.341 248.938 160.17 247.628 161.319 246.73C162.458 245.841 163.929 245.338 165.274 245.224L165.275 245.224L165.276 245.223C166.167 245.152 167.04 245.186 167.899 245.295C166.973 244.384 166.093 243.441 165.304 242.463C165.101 242.216 164.998 241.883 165.016 241.569C165.035 241.243 165.194 240.867 165.593 240.679C166.991 240.016 168.285 240.071 169.473 240.54ZM166.03 241.589C166.028 241.596 166.025 241.608 166.024 241.626C166.022 241.657 166.026 241.696 166.039 241.736C166.052 241.776 166.069 241.806 166.084 241.823L166.086 241.826L166.087 241.828C167.176 243.176 168.456 244.469 169.808 245.722L171.201 247.012L169.352 246.583C168.025 246.276 166.705 246.121 165.358 246.229C164.181 246.329 162.903 246.773 161.94 247.525C160.987 248.27 160.359 249.298 160.385 250.605C160.388 250.672 160.409 250.699 160.422 250.712C160.44 250.73 160.477 250.753 160.542 250.761C161.683 250.879 162.831 250.929 163.994 250.979L163.998 250.98C165.156 251.03 166.33 251.081 167.5 251.202L170.04 251.466L167.59 252.188C167.528 252.207 167.465 252.225 167.402 252.244C165.639 252.763 163.795 253.306 162.369 254.203C160.926 255.111 159.965 256.347 159.982 258.283L159.982 258.285V258.287C159.982 258.294 159.984 258.312 159.994 258.339C160.005 258.366 160.02 258.39 160.037 258.409C160.043 258.417 160.049 258.422 160.054 258.426C161.551 258.264 162.895 257.682 164.294 257.076C164.536 256.971 164.779 256.866 165.025 256.762C166.67 256.066 168.417 255.444 170.405 255.772L171.948 256.026L170.548 256.721C166.944 258.511 163.982 261.535 164.406 265.906L164.406 265.909L164.407 265.911C164.412 265.979 164.431 266.018 164.444 266.038C164.458 266.058 164.47 266.065 164.478 266.069C164.486 266.072 164.498 266.075 164.518 266.072C164.537 266.068 164.571 266.057 164.615 266.022C167.252 263.777 170.449 261.612 174.235 262.409C174.581 262.482 174.941 262.568 175.299 262.654C175.341 262.664 175.384 262.674 175.427 262.684C175.831 262.781 176.234 262.876 176.638 262.955C177.448 263.114 178.221 263.2 178.923 263.109L178.924 263.109L178.925 263.109C181.131 262.835 182.932 261.849 184 259.772L184 259.77L184.001 259.769C184.977 257.901 185.263 255.884 184.8 254.252C184.345 252.65 183.158 251.371 181.052 250.924L181.05 250.923L181.047 250.923C181.047 250.923 181.047 250.923 181.046 250.923C181.043 250.924 181.038 250.925 181.031 250.928L180.849 250.996L180.668 250.925C178.937 250.24 177.324 249.359 175.893 247.809L175.892 247.808L175.891 247.807C175.427 247.298 174.985 246.785 174.547 246.276C173.708 245.301 172.885 244.345 171.96 243.485L171.959 243.484C171.016 242.604 170.081 241.865 169.102 241.479C168.151 241.103 167.151 241.058 166.03 241.589Z" fill="#2C2C2C"/>
<path d="M97.1712 214.881H206.264C207.569 214.881 208.821 215.399 209.744 216.322C210.667 217.245 211.185 218.497 211.185 219.802V281.09H92.25V219.802C92.25 218.497 92.7685 217.245 93.6914 216.322C94.6143 215.399 95.866 214.881 97.1712 214.881Z" fill="white"/>
<path fill-rule="evenodd" clip-rule="evenodd" d="M97.1705 215.506C96.0317 215.506 94.9395 215.959 94.1342 216.764C93.329 217.569 92.8766 218.662 92.8766 219.8V280.462H210.557V219.8C210.557 218.662 210.105 217.569 209.3 216.764C208.494 215.959 207.402 215.506 206.263 215.506H97.1705ZM93.2472 215.877C94.2877 214.837 95.699 214.252 97.1705 214.252H206.263C207.735 214.252 209.146 214.837 210.187 215.877C211.227 216.918 211.812 218.329 211.812 219.8V281.089C211.812 281.435 211.531 281.716 211.184 281.716H92.2493C91.9029 281.716 91.6221 281.435 91.6221 281.089V219.8C91.6221 218.329 92.2066 216.918 93.2472 215.877Z" fill="#2C2C2C"/>
<path d="M211.185 236.906C196.244 240.696 180.91 250.341 152.338 263.924C124.779 277.034 102.22 276.807 92.25 275.793V281.089H211.185V236.906Z" fill="#2C2C2C"/>
<path fill-rule="evenodd" clip-rule="evenodd" d="M211.57 236.412C211.722 236.531 211.812 236.714 211.812 236.908V281.09C211.812 281.436 211.531 281.717 211.184 281.717H92.2493C91.9029 281.717 91.6221 281.436 91.6221 281.09V275.795C91.6221 275.617 91.6972 275.448 91.8288 275.329C91.9604 275.21 92.1363 275.153 92.3128 275.171C102.198 276.176 124.636 276.408 152.068 263.358L152.068 263.358C161.478 258.885 169.441 254.844 176.437 251.294C180.06 249.456 183.423 247.749 186.595 246.181C195.872 241.596 203.491 238.212 211.03 236.3C211.218 236.252 211.417 236.294 211.57 236.412ZM152.606 264.491C125.538 277.368 103.255 277.444 92.8766 276.486V280.463H210.557V237.719C203.406 239.629 196.092 242.887 187.15 247.306C184 248.863 180.647 250.565 177.029 252.4C170.024 255.955 162.029 260.012 152.606 264.491Z" fill="#2C2C2C"/>
<path fill-rule="evenodd" clip-rule="evenodd" d="M91.6221 277.418C91.6221 277.072 91.9029 276.791 92.2493 276.791H211.184C211.531 276.791 211.812 277.072 211.812 277.418V281.099C211.812 281.446 211.531 281.727 211.184 281.727H92.2493C91.9029 281.727 91.6221 281.446 91.6221 281.099V277.418ZM92.8766 278.046V280.472H210.557V278.046H92.8766Z" fill="#2C2C2C"/>
<path d="M211 277H93V281H211V277Z" fill="white"/>
</svg>
