<svg width="222" height="202" viewBox="0 0 222 202" fill="none" xmlns="http://www.w3.org/2000/svg">
<path d="M202.004 70.67C193.981 61.7955 180.537 60.8031 170.084 54.9853C152.092 44.9728 145.119 22.1736 128.75 9.68233C118.429 1.79589 104.451 -1.26077 91.9646 0.468249C74.2378 2.92063 57.5607 14.8032 52.5544 32.2257C51.1172 37.299 50.6033 42.5892 51.0371 47.8443C51.8355 58.2316 54.0717 68.7513 51.9634 78.9534C49.6389 90.1964 42.3259 99.684 37.9548 110.309C32.5119 123.542 31.7797 138.362 34.0866 152.468C35.6744 162.092 38.8414 171.809 45.4487 178.981C45.9515 179.523 46.4676 180.039 47.0013 180.546H119.161C123.687 174.773 127.101 167.941 131.101 161.876C141.123 146.623 157.169 135.746 174.693 130.643C182.544 128.358 191.048 127 197.355 121.795C203.848 116.445 206.83 107.906 208.118 99.5913C209.683 89.5083 208.85 78.2256 202.004 70.67Z" fill="#50BFD7"/>
<path opacity="0.7" d="M202.004 70.67C193.981 61.7955 180.537 60.8031 170.084 54.9853C152.092 44.9728 145.119 22.1736 128.75 9.68233C118.429 1.79589 104.451 -1.26077 91.9646 0.468249C74.2378 2.92063 57.5607 14.8032 52.5544 32.2257C51.1172 37.299 50.6033 42.5892 51.0371 47.8443C51.8355 58.2316 54.0717 68.7513 51.9634 78.9534C49.6389 90.1964 42.3259 99.684 37.9548 110.309C32.5119 123.542 31.7797 138.362 34.0866 152.468C35.6744 162.092 38.8414 171.809 45.4487 178.981C45.9515 179.523 46.4676 180.039 47.0013 180.546H119.161C123.687 174.773 127.101 167.941 131.101 161.876C141.123 146.623 157.169 135.746 174.693 130.643C182.544 128.358 191.048 127 197.355 121.795C203.848 116.445 206.83 107.906 208.118 99.5913C209.683 89.5083 208.85 78.2256 202.004 70.67Z" fill="white"/>
<path fill-rule="evenodd" clip-rule="evenodd" d="M184.48 156.487L184.463 156.706C184.48 156.487 184.48 156.487 184.48 156.487L184.481 156.487L184.482 156.487L184.486 156.487L184.502 156.488C184.515 156.49 184.535 156.491 184.56 156.494C184.611 156.499 184.684 156.508 184.777 156.52C184.964 156.544 185.229 156.585 185.548 156.649C186.184 156.777 187.039 156.999 187.905 157.379C189.633 158.138 191.453 159.548 191.599 162.119C191.604 162.21 191.553 162.294 191.471 162.332L191.379 162.132C191.471 162.332 191.471 162.332 191.471 162.332L191.47 162.332L191.469 162.333L191.464 162.335L191.448 162.342C191.434 162.348 191.414 162.357 191.388 162.368C191.336 162.389 191.261 162.42 191.166 162.455C190.976 162.525 190.704 162.615 190.378 162.696C189.729 162.856 188.85 162.983 187.956 162.83C187.057 162.676 186.143 162.239 185.447 161.277C184.754 160.32 184.291 158.867 184.242 156.711C184.241 156.649 184.266 156.589 184.311 156.546C184.357 156.503 184.418 156.482 184.48 156.487ZM191.148 161.99C190.953 159.757 189.352 158.496 187.728 157.783C186.9 157.42 186.077 157.205 185.461 157.081C185.153 157.019 184.898 156.981 184.72 156.957C184.71 156.956 184.7 156.955 184.691 156.953C184.768 158.913 185.207 160.194 185.804 161.018C186.422 161.872 187.226 162.258 188.031 162.396C188.842 162.534 189.655 162.42 190.272 162.268C190.58 162.191 190.835 162.107 191.013 162.041C191.065 162.022 191.11 162.005 191.148 161.99Z" fill="#263238"/>
<path fill-rule="evenodd" clip-rule="evenodd" d="M197.931 157.863C199.32 158.648 200.565 158.904 201.653 158.849C202.799 158.792 203.787 158.39 204.597 157.874C205.409 157.357 206.039 156.729 206.468 156.228C206.681 155.978 206.844 155.761 206.952 155.607C206.958 155.598 206.964 155.59 206.97 155.582C204.16 154.463 201.892 155.05 200.309 155.931C199.492 156.385 198.856 156.918 198.425 157.338C198.21 157.548 198.046 157.729 197.937 157.857C197.935 157.859 197.933 157.861 197.931 157.863ZM207.302 155.48L207.49 155.594C207.523 155.54 207.531 155.473 207.512 155.413C207.492 155.352 207.447 155.303 207.389 155.278C204.317 153.96 201.819 154.586 200.095 155.545C199.235 156.023 198.569 156.583 198.117 157.022C197.891 157.243 197.718 157.433 197.602 157.57C197.543 157.638 197.499 157.693 197.468 157.731C197.453 157.75 197.442 157.765 197.434 157.776L197.424 157.788L197.422 157.791L197.421 157.792L197.421 157.792C197.421 157.793 197.421 157.793 197.598 157.924L197.421 157.793C197.384 157.843 197.37 157.906 197.382 157.967C197.394 158.028 197.431 158.081 197.485 158.113C199.029 159.038 200.433 159.352 201.674 159.29C202.914 159.228 203.975 158.793 204.834 158.246C205.693 157.699 206.356 157.038 206.803 156.515C207.027 156.253 207.198 156.024 207.313 155.861C207.37 155.779 207.414 155.713 207.444 155.668C207.459 155.645 207.47 155.627 207.478 155.615L207.487 155.6L207.489 155.596L207.49 155.595L207.49 155.595C207.49 155.594 207.49 155.594 207.302 155.48Z" fill="#263238"/>
<path fill-rule="evenodd" clip-rule="evenodd" d="M199.375 148.938C201.413 149.515 202.862 149.392 203.893 148.91C204.963 148.41 205.621 147.506 206.024 146.5C206.427 145.492 206.566 144.396 206.603 143.546C206.622 143.122 206.614 142.762 206.603 142.509C206.599 142.432 206.595 142.365 206.592 142.31C204.333 142.356 202.531 143.981 201.264 145.678C200.617 146.546 200.12 147.418 199.785 148.074C199.618 148.401 199.491 148.674 199.407 148.865C199.395 148.891 199.385 148.915 199.375 148.938ZM206.795 142.089L207.014 142.065C207.002 141.955 206.91 141.871 206.799 141.869C204.224 141.816 202.235 143.64 200.911 145.415C200.244 146.308 199.735 147.202 199.393 147.873C199.221 148.209 199.091 148.489 199.004 148.686C198.96 148.785 198.927 148.862 198.905 148.916C198.894 148.942 198.885 148.963 198.88 148.977L198.873 148.993L198.871 148.998L198.871 148.999C198.871 148.999 198.871 148.999 199.076 149.08L198.871 148.999C198.848 149.057 198.85 149.121 198.877 149.176C198.904 149.232 198.953 149.273 199.012 149.291C201.24 149.966 202.88 149.871 204.08 149.31C205.281 148.748 206.004 147.738 206.433 146.664C206.862 145.592 207.006 144.441 207.044 143.565C207.063 143.126 207.056 142.752 207.043 142.488C207.037 142.356 207.03 142.251 207.024 142.179C207.021 142.143 207.019 142.115 207.017 142.096L207.015 142.073L207.014 142.067L207.014 142.066L207.014 142.065C207.014 142.065 207.014 142.065 206.795 142.089Z" fill="#263238"/>
<path fill-rule="evenodd" clip-rule="evenodd" d="M196.115 136.527L196.01 136.721C196.115 136.527 196.115 136.527 196.115 136.527L196.116 136.528L196.117 136.528L196.121 136.531L196.138 136.54C196.152 136.548 196.172 136.559 196.198 136.574C196.25 136.604 196.324 136.648 196.416 136.707C196.601 136.823 196.858 136.996 197.15 137.22C197.733 137.669 198.462 138.331 199.029 139.181C199.597 140.033 200.008 141.08 199.937 142.29C199.867 143.502 199.316 144.846 198.014 146.295C197.934 146.383 197.8 146.392 197.708 146.317L197.85 146.147C197.708 146.317 197.709 146.317 197.708 146.317L197.707 146.315L197.704 146.313L197.692 146.303C197.682 146.294 197.668 146.282 197.649 146.265C197.612 146.233 197.559 146.185 197.494 146.122C197.362 145.997 197.179 145.813 196.969 145.575C196.551 145.101 196.023 144.41 195.593 143.546C194.729 141.811 194.254 139.375 195.818 136.613C195.877 136.508 196.009 136.47 196.115 136.527ZM197.831 145.834C198.976 144.508 199.436 143.31 199.497 142.265C199.56 141.175 199.192 140.221 198.662 139.426C198.131 138.63 197.442 138.001 196.881 137.57C196.602 137.355 196.356 137.19 196.181 137.08C196.15 137.06 196.121 137.042 196.094 137.026C194.75 139.55 195.193 141.754 195.988 143.349C196.397 144.17 196.899 144.829 197.3 145.283C197.5 145.51 197.675 145.685 197.798 145.803C197.81 145.814 197.821 145.824 197.831 145.834Z" fill="#263238"/>
<path fill-rule="evenodd" clip-rule="evenodd" d="M187.466 145.34L187.444 145.12C187.332 145.132 187.246 145.227 187.246 145.34C187.246 147.018 187.732 148.273 188.474 149.205C189.212 150.135 190.193 150.73 191.161 151.11C192.13 151.491 193.094 151.661 193.815 151.736C194.176 151.773 194.477 151.787 194.689 151.791C194.795 151.793 194.879 151.793 194.937 151.792C194.966 151.791 194.989 151.79 195.005 151.79C195.013 151.789 195.021 151.789 195.027 151.789C195.03 151.788 195.035 151.788 195.04 151.787C195.042 151.787 195.049 151.786 195.058 151.785C195.063 151.784 195.078 151.78 195.088 151.777C195.113 151.767 195.211 151.674 195.238 151.568C195.238 149.779 194.754 148.467 194.012 147.512C193.272 146.559 192.288 145.978 191.317 145.627C190.346 145.275 189.379 145.149 188.658 145.11C188.297 145.091 187.995 145.093 187.783 145.101C187.677 145.104 187.594 145.109 187.536 145.113C187.507 145.115 187.485 145.117 187.469 145.118L187.451 145.12L187.447 145.12L187.445 145.12L187.445 145.12C187.444 145.12 187.444 145.12 187.466 145.34ZM187.798 145.541C187.759 145.543 187.722 145.544 187.69 145.546C187.727 147.027 188.174 148.12 188.819 148.931C189.496 149.783 190.403 150.338 191.323 150.7C192.242 151.061 193.165 151.225 193.861 151.297C194.208 151.333 194.496 151.346 194.697 151.35C194.733 151.351 194.765 151.351 194.795 151.351C194.757 149.76 194.309 148.613 193.664 147.783C192.988 146.913 192.083 146.373 191.167 146.041C190.25 145.709 189.329 145.588 188.634 145.551C188.288 145.532 187.999 145.534 187.798 145.541Z" fill="#263238"/>
<path fill-rule="evenodd" clip-rule="evenodd" d="M197.063 139.396C197.176 139.352 197.304 139.407 197.349 139.521C199.099 143.976 197.958 150.246 194.65 157.613C193.238 160.757 193.236 163.731 193.346 166.064C193.352 166.186 193.258 166.289 193.136 166.295C193.014 166.301 192.911 166.207 192.905 166.085C192.795 163.734 192.792 160.674 194.248 157.432L194.248 157.432C197.547 150.085 198.62 143.96 196.939 139.682C196.894 139.569 196.95 139.441 197.063 139.396Z" fill="#263238"/>
<path fill-rule="evenodd" clip-rule="evenodd" d="M189.741 147.137C189.786 147.024 189.914 146.969 190.027 147.014L189.945 147.219C190.027 147.014 190.027 147.014 190.027 147.014L190.027 147.014L190.028 147.015L190.031 147.016L190.042 147.02C190.052 147.024 190.066 147.03 190.083 147.037C190.119 147.053 190.17 147.075 190.235 147.105C190.366 147.165 190.553 147.256 190.781 147.379C191.238 147.625 191.863 148.002 192.536 148.528C193.882 149.577 195.432 151.226 196.22 153.612C196.258 153.727 196.195 153.852 196.079 153.89C195.964 153.928 195.839 153.865 195.801 153.75C195.049 151.473 193.567 149.891 192.265 148.875C191.615 148.368 191.012 148.004 190.572 147.767C190.352 147.649 190.174 147.562 190.051 147.506C189.989 147.477 189.942 147.457 189.91 147.443C189.894 147.436 189.882 147.431 189.874 147.428L189.866 147.425L189.864 147.424L189.864 147.424L189.864 147.424C189.751 147.379 189.696 147.251 189.741 147.137Z" fill="#263238"/>
<path fill-rule="evenodd" clip-rule="evenodd" d="M204.534 145.771C204.632 145.843 204.654 145.981 204.582 146.079L204.404 145.949C204.582 146.079 204.581 146.079 204.581 146.079L204.581 146.08L204.581 146.08L204.579 146.083L204.572 146.092C204.566 146.099 204.558 146.11 204.547 146.124C204.526 146.152 204.494 146.192 204.452 146.242C204.369 146.342 204.246 146.484 204.085 146.652C203.762 146.988 203.286 147.432 202.667 147.863C201.429 148.726 199.614 149.546 197.328 149.348C197.206 149.338 197.116 149.231 197.127 149.11C197.137 148.988 197.244 148.899 197.366 148.909C199.52 149.095 201.234 148.325 202.415 147.502C203.005 147.09 203.46 146.667 203.766 146.347C203.92 146.187 204.036 146.053 204.113 145.96C204.152 145.914 204.18 145.877 204.199 145.853C204.209 145.841 204.216 145.832 204.22 145.826L204.225 145.819L204.226 145.818L204.226 145.818C204.226 145.818 204.226 145.818 204.226 145.818M204.534 145.771C204.436 145.699 204.298 145.72 204.226 145.818L204.534 145.771Z" fill="#263238"/>
<path fill-rule="evenodd" clip-rule="evenodd" d="M204.616 156.442C204.65 156.559 204.582 156.682 204.465 156.715L204.404 156.504L204.343 156.292C204.46 156.258 204.582 156.325 204.616 156.442ZM204.343 156.292C204.343 156.292 204.343 156.292 204.404 156.504C204.465 156.715 204.465 156.715 204.465 156.715L204.459 156.717L204.443 156.722L204.382 156.739C204.327 156.754 204.248 156.777 204.145 156.805C203.941 156.861 203.645 156.94 203.282 157.033C202.555 157.219 201.556 157.46 200.466 157.68C199.377 157.899 198.193 158.098 197.098 158.199C196.009 158.299 194.986 158.305 194.23 158.125C194.112 158.097 194.038 157.978 194.067 157.86C194.095 157.741 194.214 157.668 194.332 157.696C195.016 157.858 195.979 157.859 197.058 157.76C198.131 157.661 199.298 157.465 200.379 157.247C201.46 157.03 202.451 156.791 203.173 156.606C203.533 156.514 203.826 156.435 204.029 156.379C204.13 156.352 204.209 156.33 204.262 156.315L204.322 156.297L204.338 156.293L204.343 156.292Z" fill="#263238"/>
<path fill-rule="evenodd" clip-rule="evenodd" d="M186.48 158.749C186.57 158.667 186.71 158.673 186.792 158.763L186.792 158.764L186.793 158.765L186.8 158.772C186.806 158.779 186.814 158.788 186.826 158.801C186.85 158.826 186.885 158.863 186.932 158.91C187.025 159.006 187.162 159.142 187.336 159.306C187.686 159.633 188.185 160.07 188.784 160.504C189.991 161.378 191.566 162.217 193.122 162.189C193.244 162.187 193.344 162.284 193.346 162.406C193.348 162.528 193.251 162.628 193.13 162.63C191.426 162.66 189.753 161.75 188.525 160.861C187.908 160.413 187.394 159.964 187.035 159.627C186.855 159.459 186.713 159.318 186.616 159.219C186.568 159.169 186.531 159.13 186.505 159.103C186.492 159.09 186.483 159.079 186.476 159.072L186.468 159.064L186.466 159.061L186.466 159.061C186.466 159.061 186.466 159.06 186.629 158.912L186.466 159.061C186.384 158.971 186.39 158.831 186.48 158.749Z" fill="#263238"/>
<path fill-rule="evenodd" clip-rule="evenodd" d="M185.566 166.031C185.679 165.918 185.833 165.854 185.993 165.854H201.735C201.742 165.854 201.749 165.855 201.756 165.855C201.906 165.869 202.046 165.939 202.148 166.051C202.249 166.163 202.305 166.308 202.304 166.459V166.459H202.084L202.304 166.46M201.456 168.258L201.478 168.063L201.259 168.038V168.258H201.456ZM185.993 166.296C185.95 166.296 185.909 166.313 185.878 166.343C185.847 166.374 185.83 166.415 185.83 166.459V167.654C185.83 167.697 185.847 167.739 185.878 167.769C185.909 167.8 185.95 167.817 185.993 167.817H186.435C186.547 167.817 186.641 167.901 186.654 168.013L188.034 180.057H199.66L201.04 168.013C201.053 167.901 201.147 167.817 201.259 167.817H201.7C201.743 167.817 201.785 167.8 201.816 167.769C201.846 167.739 201.863 167.697 201.863 167.654V166.459L201.863 166.458C201.864 166.417 201.848 166.378 201.821 166.347C201.795 166.319 201.761 166.301 201.723 166.296H185.993ZM185.566 166.031C185.453 166.145 185.389 166.298 185.389 166.459L185.566 166.031ZM185.389 166.459V167.654V166.459ZM185.389 167.654C185.389 167.814 185.453 167.968 185.566 168.081L185.389 167.654ZM185.566 168.081C185.679 168.195 185.833 168.258 185.993 168.258L185.566 168.081ZM185.993 168.258H186.238H185.993Z" fill="#263238"/>
<path fill-rule="evenodd" clip-rule="evenodd" d="M187.246 168.038C187.246 167.916 187.345 167.817 187.466 167.817H196.619C196.741 167.817 196.839 167.916 196.839 168.038C196.839 168.159 196.741 168.258 196.619 168.258H187.466C187.345 168.258 187.246 168.159 187.246 168.038Z" fill="#263238"/>
<path fill-rule="evenodd" clip-rule="evenodd" d="M198.127 168.038C198.127 167.916 198.226 167.817 198.348 167.817H199.724C199.846 167.817 199.945 167.916 199.945 168.038C199.945 168.159 199.846 168.258 199.724 168.258H198.348C198.226 168.258 198.127 168.159 198.127 168.038Z" fill="#263238"/>
<path fill-rule="evenodd" clip-rule="evenodd" d="M26.5266 180.529C26.5266 180.407 26.6253 180.308 26.7471 180.308H211.779C211.9 180.308 211.999 180.407 211.999 180.529C211.999 180.651 211.9 180.749 211.779 180.749H26.7471C26.6253 180.749 26.5266 180.651 26.5266 180.529Z" fill="#263238"/>
<path d="M133.426 20.3211V142.905C133.426 143.187 133.226 143.457 132.871 143.657C132.516 143.856 132.034 143.968 131.531 143.968H2.11521C1.61276 143.968 1.13088 143.856 0.77559 143.657C0.420302 143.457 0.220703 143.187 0.220703 142.905V20.3211C0.220703 20.0392 0.420302 19.7688 0.77559 19.5694C1.13088 19.3701 1.61276 19.2581 2.11521 19.2581H43.0318C43.5635 19.2581 44.0733 19.3766 44.4493 19.5875C44.8252 19.7984 45.0364 20.0845 45.0364 20.3828V22.9587C45.0364 23.257 45.2476 23.5431 45.6235 23.754C45.9995 23.965 46.5093 24.0835 47.041 24.0835H86.6133C87.145 24.0835 87.6549 23.965 88.0308 23.754C88.4067 23.5431 88.6179 23.257 88.6179 22.9587V20.3828C88.6179 20.0845 88.8291 19.7984 89.205 19.5875C89.581 19.3766 90.0908 19.2581 90.6225 19.2581H131.5C131.751 19.2557 132.001 19.2815 132.234 19.3339C132.468 19.3862 132.681 19.4642 132.86 19.5631C133.039 19.6621 133.181 19.78 133.279 19.9102C133.376 20.0403 133.426 20.18 133.426 20.3211Z" fill="white"/>
<path fill-rule="evenodd" clip-rule="evenodd" d="M132.186 19.5496C131.97 19.5012 131.737 19.477 131.502 19.4792L131.5 19.4792H90.6223C90.1197 19.4792 89.6489 19.5918 89.3128 19.7804C88.9721 19.9716 88.8383 20.1977 88.8383 20.3834V22.9593C88.8383 23.3702 88.5497 23.7162 88.1385 23.9469C87.7228 24.1802 87.1739 24.3046 86.6132 24.3046H47.0408C46.4801 24.3046 45.9312 24.1802 45.5154 23.9469C45.1043 23.7162 44.8157 23.3702 44.8157 22.9593V20.3834C44.8157 20.1977 44.6819 19.9716 44.3412 19.7804C44.0051 19.5918 43.5343 19.4792 43.0317 19.4792H2.11504C1.64165 19.4792 1.19881 19.5853 0.883341 19.7623C0.563257 19.9419 0.441076 20.1523 0.441076 20.3216V142.906C0.441076 143.075 0.563257 143.285 0.883341 143.465C1.19881 143.642 1.64165 143.748 2.11504 143.748H131.531C132.004 143.748 132.447 143.642 132.763 143.465C133.083 143.285 133.205 143.075 133.205 142.906V20.3216C133.205 20.2351 133.175 20.1407 133.102 20.0427C133.028 19.9433 132.912 19.8444 132.753 19.7568C132.595 19.6695 132.402 19.5982 132.186 19.5496ZM131.499 19.0381C131.766 19.0357 132.032 19.0631 132.283 19.1193C132.533 19.1754 132.766 19.26 132.966 19.3706C133.166 19.4809 133.335 19.6179 133.455 19.7788C133.576 19.941 133.646 20.126 133.646 20.3217V142.906C133.646 143.3 133.369 143.63 132.979 143.85C132.584 144.071 132.063 144.189 131.531 144.189H2.11504C1.58353 144.189 1.06262 144.071 0.66751 143.85C0.277017 143.63 0 143.3 0 142.906V20.3216C0 19.9271 0.277017 19.5968 0.66751 19.3777C1.06262 19.156 1.58353 19.0381 2.11504 19.0381H43.0317C43.5924 19.0381 44.1413 19.1625 44.557 19.3957C44.9682 19.6264 45.2568 19.9725 45.2568 20.3834V22.9593C45.2568 23.145 45.3906 23.3711 45.7313 23.5623C46.0674 23.7509 46.5382 23.8635 47.0408 23.8635H86.6132C87.1158 23.8635 87.5866 23.7509 87.9227 23.5623C88.2634 23.3711 88.3972 23.145 88.3972 22.9593V20.3834C88.3972 19.9725 88.6858 19.6264 89.097 19.3957C89.5127 19.1625 90.0616 19.0381 90.6223 19.0381H131.499Z" fill="#263238"/>
<path d="M133.426 31.3524H0.220703V42.6131H133.426V31.3524Z" fill="#BFBFBF"/>
<path fill-rule="evenodd" clip-rule="evenodd" d="M0 31.3524C0 31.2306 0.0987383 31.1318 0.220538 31.1318H133.426C133.547 31.1318 133.646 31.2306 133.646 31.3524V42.6131C133.646 42.7349 133.547 42.8336 133.426 42.8336H0.220538C0.0987383 42.8336 0 42.7349 0 42.6131V31.3524ZM0.441076 31.5729V42.3925H133.205V31.5729H0.441076Z" fill="#263238"/>
<path fill-rule="evenodd" clip-rule="evenodd" d="M118.214 35.5955C118.214 35.4737 118.313 35.375 118.434 35.375H123.458C123.579 35.375 123.678 35.4737 123.678 35.5955C123.678 35.7173 123.579 35.8161 123.458 35.8161H118.434C118.313 35.8161 118.214 35.7173 118.214 35.5955Z" fill="#263238"/>
<path fill-rule="evenodd" clip-rule="evenodd" d="M118.214 36.8967C118.214 36.7749 118.313 36.6761 118.434 36.6761H123.458C123.579 36.6761 123.678 36.7749 123.678 36.8967C123.678 37.0185 123.579 37.1172 123.458 37.1172H118.434C118.313 37.1172 118.214 37.0185 118.214 36.8967Z" fill="#263238"/>
<path fill-rule="evenodd" clip-rule="evenodd" d="M118.214 38.1936C118.214 38.0718 118.313 37.973 118.434 37.973H123.458C123.579 37.973 123.678 38.0718 123.678 38.1936C123.678 38.3154 123.579 38.4141 123.458 38.4141H118.434C118.313 38.4141 118.214 38.3154 118.214 38.1936Z" fill="#263238"/>
<path fill-rule="evenodd" clip-rule="evenodd" d="M9.71606 36.8967C9.71606 36.7749 9.8148 36.6761 9.9366 36.6761H14.1816C14.3034 36.6761 14.4021 36.7749 14.4021 36.8967C14.4021 37.0185 14.3034 37.1172 14.1816 37.1172H9.9366C9.8148 37.1172 9.71606 37.0185 9.71606 36.8967Z" fill="#263238"/>
<path fill-rule="evenodd" clip-rule="evenodd" d="M12.0789 35.3422C12.1385 35.4484 12.1007 35.5828 11.9945 35.6424L9.76669 36.8924L11.9945 38.1424C12.1007 38.202 12.1385 38.3364 12.0789 38.4426C12.0193 38.5489 11.8849 38.5866 11.7786 38.527L9.20808 37.0847C9.13852 37.0457 9.09546 36.9722 9.09546 36.8924C9.09546 36.8126 9.13852 36.7391 9.20808 36.7001L11.7786 35.2577C11.8849 35.1981 12.0193 35.2359 12.0789 35.3422Z" fill="#263238"/>
<path fill-rule="evenodd" clip-rule="evenodd" d="M104.481 35.5955C104.481 35.4737 104.58 35.375 104.701 35.375H111.03C111.151 35.375 111.25 35.4737 111.25 35.5955V38.1891C111.25 38.3109 111.151 38.4096 111.03 38.4096H104.701C104.58 38.4096 104.481 38.3109 104.481 38.1891V35.5955ZM104.922 35.8161V37.9685H110.809V35.8161H104.922Z" fill="#263238"/>
<path fill-rule="evenodd" clip-rule="evenodd" d="M111.234 35.5119C111.28 35.6247 111.226 35.7534 111.113 35.7996L107.945 37.0963C107.892 37.1183 107.832 37.1183 107.778 37.0963L104.618 35.7995C104.505 35.7533 104.451 35.6244 104.498 35.5118C104.544 35.3991 104.673 35.3452 104.785 35.3914L107.862 36.6539L110.946 35.3914C111.059 35.3452 111.188 35.3992 111.234 35.5119Z" fill="#263238"/>
<path fill-rule="evenodd" clip-rule="evenodd" d="M91.5299 35.4543C91.5718 35.4041 91.6339 35.375 91.6993 35.375H97.092C97.1574 35.375 97.2194 35.4041 97.2613 35.4543C97.3032 35.5046 97.3207 35.5708 97.3089 35.6352L96.7429 38.7316C96.7238 38.8363 96.6325 38.9124 96.526 38.9124H92.2653C92.1588 38.9124 92.0675 38.8363 92.0484 38.7316L91.4824 35.6352C91.4706 35.5708 91.488 35.5046 91.5299 35.4543ZM91.9638 35.8161L92.4492 38.4714H96.3421L96.8275 35.8161H91.9638Z" fill="#263238"/>
<path fill-rule="evenodd" clip-rule="evenodd" d="M93.1143 35.0972C93.1143 34.9754 93.213 34.8767 93.3348 34.8767H95.4651C95.5869 34.8767 95.6857 34.9754 95.6857 35.0972V35.5957C95.6857 35.7175 95.5869 35.8162 95.4651 35.8162C95.3433 35.8162 95.2446 35.7175 95.2446 35.5957V35.3178H93.5553V35.5957C93.5553 35.7175 93.4566 35.8162 93.3348 35.8162C93.213 35.8162 93.1143 35.7175 93.1143 35.5957V35.0972Z" fill="#263238"/>
<path d="M133.426 135.023V142.905C133.427 143.044 133.379 143.182 133.284 143.311C133.19 143.44 133.051 143.558 132.876 143.656C132.701 143.755 132.492 143.834 132.263 143.887C132.033 143.94 131.788 143.968 131.539 143.968H2.11521C1.61276 143.968 1.13088 143.856 0.77559 143.657C0.420301 143.457 0.220703 143.187 0.220703 142.905V135.023H133.426Z" fill="#50BFD7"/>
<path fill-rule="evenodd" clip-rule="evenodd" d="M0 135.023C0 134.901 0.0987383 134.802 0.220538 134.802H133.426C133.547 134.802 133.646 134.901 133.646 135.023V142.903C133.648 143.097 133.58 143.28 133.462 143.442C133.345 143.601 133.18 143.738 132.984 143.848C132.788 143.959 132.559 144.044 132.313 144.102C132.066 144.159 131.803 144.188 131.539 144.188H2.11504C1.58353 144.188 1.06262 144.07 0.66751 143.849C0.277016 143.63 0 143.299 0 142.905V135.023ZM0.441076 135.243V142.905C0.441076 143.074 0.563257 143.285 0.883341 143.464C1.19881 143.641 1.64165 143.747 2.11504 143.747H131.539C131.771 143.747 132.001 143.721 132.213 143.672C132.425 143.623 132.613 143.551 132.768 143.464C132.922 143.377 133.035 143.279 133.106 143.181C133.177 143.085 133.206 142.992 133.205 142.906L133.205 142.905V135.243H0.441076Z" fill="#263238"/>
<path d="M133.426 122.408H0.220703V135.023H133.426V122.408Z" fill="#BFBFBF"/>
<path fill-rule="evenodd" clip-rule="evenodd" d="M0 122.408C0 122.286 0.0987383 122.188 0.220538 122.188H133.426C133.547 122.188 133.646 122.286 133.646 122.408V135.023C133.646 135.145 133.547 135.243 133.426 135.243H0.220538C0.0987383 135.243 0 135.145 0 135.023V122.408ZM0.441076 122.629V134.802H133.205V122.629H0.441076Z" fill="#263238"/>
<path fill-rule="evenodd" clip-rule="evenodd" d="M11.1234 126.138C10.7713 126.376 10.5861 126.682 10.5861 126.991V130.37C10.5861 130.679 10.7713 130.984 11.1234 131.222C11.4743 131.46 11.9714 131.614 12.5314 131.614H24.3131C24.8731 131.614 25.3702 131.46 25.7211 131.222C26.0732 130.984 26.2584 130.679 26.2584 130.37V126.991C26.2584 126.682 26.0732 126.376 25.7211 126.138C25.3702 125.901 24.8731 125.747 24.3131 125.747H12.5314C11.9714 125.747 11.4743 125.901 11.1234 126.138ZM10.8764 125.773C11.3094 125.48 11.8952 125.306 12.5314 125.306H24.3131C24.9493 125.306 25.5351 125.48 25.9681 125.773C26.3999 126.065 26.6995 126.491 26.6995 126.991V130.37C26.6995 130.869 26.3999 131.296 25.9681 131.588C25.5351 131.881 24.9493 132.055 24.3131 132.055H12.5314C11.8952 132.055 11.3094 131.881 10.8764 131.588C10.4446 131.296 10.145 130.869 10.145 130.37V126.991C10.145 126.491 10.4446 126.065 10.8764 125.773Z" fill="#263238"/>
<path fill-rule="evenodd" clip-rule="evenodd" d="M16.251 128.407C16.251 128.285 16.3497 128.186 16.4715 128.186H19.1984C19.4344 128.186 19.6691 128.218 19.8895 128.279C20.1097 128.341 20.3139 128.433 20.489 128.551C20.6641 128.669 20.8094 128.814 20.9113 128.98C21.0137 129.148 21.0694 129.332 21.0694 129.523V129.964C21.0694 130.086 20.9707 130.184 20.8489 130.184C20.7271 130.184 20.6284 130.086 20.6284 129.964V129.523C20.6284 129.42 20.5987 129.315 20.5352 129.211C20.4712 129.106 20.3734 129.005 20.2419 128.916C20.1106 128.828 19.9508 128.755 19.7705 128.704C19.5905 128.654 19.3959 128.627 19.1984 128.627H16.4715C16.3497 128.627 16.251 128.529 16.251 128.407Z" fill="#263238"/>
<path fill-rule="evenodd" clip-rule="evenodd" d="M17.8032 127.294C17.8628 127.4 17.825 127.534 17.7188 127.594L16.285 128.398L17.7188 129.203C17.825 129.262 17.8628 129.397 17.8032 129.503C17.7436 129.609 17.6092 129.647 17.503 129.587L15.7264 128.591C15.6568 128.552 15.6138 128.478 15.6138 128.398C15.6138 128.319 15.6568 128.245 15.7264 128.206L17.503 127.209C17.6092 127.15 17.7436 127.187 17.8032 127.294Z" fill="#263238"/>
<path fill-rule="evenodd" clip-rule="evenodd" d="M60.0829 126.138C59.7308 126.376 59.5456 126.682 59.5456 126.991V130.37C59.5456 130.679 59.7308 130.984 60.0829 131.222C60.4338 131.46 60.9309 131.614 61.4909 131.614H73.2726C73.8326 131.614 74.3297 131.46 74.6806 131.222C75.0327 130.984 75.2179 130.679 75.2179 130.37V126.991C75.2179 126.682 75.0327 126.376 74.6806 126.138C74.3297 125.901 73.8326 125.747 73.2726 125.747H61.4909C60.9309 125.747 60.4338 125.901 60.0829 126.138ZM59.8359 125.773C60.2689 125.48 60.8547 125.306 61.4909 125.306H73.2726C73.9088 125.306 74.4946 125.48 74.9276 125.773C75.3594 126.065 75.659 126.491 75.659 126.991V130.37C75.659 130.869 75.3594 131.296 74.9276 131.588C74.4946 131.881 73.9088 132.055 73.2726 132.055H61.4909C60.8547 132.055 60.2689 131.881 59.8359 131.588C59.4041 131.296 59.1045 130.869 59.1045 130.37V126.991C59.1045 126.491 59.4041 126.065 59.8359 125.773Z" fill="#263238"/>
<path fill-rule="evenodd" clip-rule="evenodd" d="M65.9932 128.407C65.9932 128.285 66.0919 128.186 66.2137 128.186H68.9406C69.4146 128.186 69.8793 128.313 70.2312 128.551C70.5834 128.789 70.8116 129.134 70.8116 129.523V129.964C70.8116 130.086 70.7129 130.184 70.5911 130.184C70.4693 130.184 70.3705 130.086 70.3705 129.964V129.523C70.3705 129.319 70.2509 129.097 69.9841 128.916C69.717 128.736 69.342 128.627 68.9406 128.627H66.2137C66.0919 128.627 65.9932 128.529 65.9932 128.407Z" fill="#263238"/>
<path fill-rule="evenodd" clip-rule="evenodd" d="M67.3815 127.278C67.4497 127.379 67.4232 127.516 67.3223 127.584L66.1182 128.398L67.3223 129.212C67.4232 129.281 67.4497 129.418 67.3815 129.519C67.3133 129.62 67.1762 129.646 67.0753 129.578L65.6009 128.581C65.5403 128.54 65.5039 128.472 65.5039 128.398C65.5039 128.325 65.5403 128.257 65.6009 128.216L67.0753 127.219C67.1762 127.151 67.3133 127.177 67.3815 127.278Z" fill="#263238"/>
<path fill-rule="evenodd" clip-rule="evenodd" d="M65.8553 127.278C65.9233 127.379 65.8966 127.516 65.7955 127.584L64.5864 128.398L65.7955 129.212C65.8965 129.28 65.9233 129.417 65.8553 129.518C65.7873 129.619 65.6502 129.646 65.5492 129.578L64.0683 128.581C64.0075 128.54 63.9709 128.472 63.9709 128.398C63.9709 128.325 64.0075 128.256 64.0683 128.215L65.5492 127.219C65.6502 127.151 65.7873 127.177 65.8553 127.278Z" fill="#263238"/>
<path fill-rule="evenodd" clip-rule="evenodd" d="M123.199 131.227C123.551 130.989 123.736 130.683 123.736 130.374V126.996C123.736 126.686 123.551 126.381 123.199 126.143C122.848 125.906 122.351 125.752 121.791 125.752H110.009C109.449 125.752 108.952 125.906 108.601 126.143C108.249 126.381 108.064 126.686 108.064 126.996V130.374C108.064 130.683 108.249 130.989 108.601 131.227C108.952 131.464 109.449 131.618 110.009 131.618H121.791C122.351 131.618 122.848 131.464 123.199 131.227ZM123.446 131.592C123.013 131.885 122.427 132.059 121.791 132.059H110.009C109.373 132.059 108.787 131.885 108.354 131.592C107.923 131.3 107.623 130.874 107.623 130.374V126.996C107.623 126.496 107.923 126.069 108.354 125.777C108.787 125.485 109.373 125.311 110.009 125.311H121.791C122.427 125.311 123.013 125.485 123.446 125.777C123.878 126.069 124.177 126.496 124.177 126.996V130.374C124.177 130.874 123.878 131.3 123.446 131.592Z" fill="#263238"/>
<path fill-rule="evenodd" clip-rule="evenodd" d="M115.124 128.627C114.723 128.627 114.348 128.736 114.081 128.916C113.814 129.097 113.694 129.319 113.694 129.523V129.964C113.694 130.086 113.596 130.184 113.474 130.184C113.352 130.184 113.253 130.086 113.253 129.964V129.523C113.253 129.134 113.481 128.789 113.834 128.551C114.186 128.313 114.65 128.186 115.124 128.186H117.851C117.973 128.186 118.072 128.285 118.072 128.407C118.072 128.529 117.973 128.627 117.851 128.627H115.124Z" fill="#263238"/>
<path fill-rule="evenodd" clip-rule="evenodd" d="M116.663 127.278C116.732 127.177 116.869 127.15 116.97 127.219L118.444 128.215C118.505 128.256 118.541 128.325 118.541 128.398C118.541 128.471 118.505 128.54 118.444 128.581L116.97 129.578C116.869 129.646 116.732 129.619 116.663 129.518C116.595 129.418 116.622 129.28 116.723 129.212L117.927 128.398L116.723 127.584C116.622 127.516 116.595 127.379 116.663 127.278Z" fill="#263238"/>
<path d="M133.426 20.3167V31.3436H0.220703V20.3167C0.220703 20.0347 0.420301 19.7644 0.77559 19.565C1.13088 19.3657 1.61276 19.2537 2.11521 19.2537H43.0318C43.5635 19.2537 44.0733 19.3722 44.4493 19.5831C44.8252 19.794 45.0364 20.0801 45.0364 20.3784V22.9543C45.0364 23.2526 45.2476 23.5387 45.6235 23.7496C45.9994 23.9605 46.5093 24.079 47.041 24.079H86.6133C87.145 24.079 87.6549 23.9605 88.0308 23.7496C88.4067 23.5387 88.6179 23.2526 88.6179 22.9543V20.3828C88.6179 20.0845 88.8291 19.7984 89.205 19.5875C89.581 19.3766 90.0908 19.2581 90.6225 19.2581H131.5C131.751 19.2545 132.001 19.2793 132.235 19.331C132.469 19.3827 132.682 19.4601 132.862 19.5589C133.041 19.6576 133.184 19.7755 133.281 19.9057C133.378 20.0358 133.427 20.1756 133.426 20.3167Z" fill="#50BFD7"/>
<path fill-rule="evenodd" clip-rule="evenodd" d="M2.11504 19.4743C1.64166 19.4743 1.19881 19.5804 0.883341 19.7574C0.563255 19.937 0.441076 20.1474 0.441076 20.3167V31.1231H133.205V20.3167L133.205 20.315C133.206 20.229 133.176 20.1351 133.104 20.0374C133.03 19.9384 132.914 19.8396 132.755 19.7522C132.597 19.6651 132.404 19.5943 132.187 19.5464C131.971 19.4986 131.738 19.4754 131.503 19.4787L131.5 19.4787H90.6223C90.1197 19.4787 89.6489 19.5913 89.3128 19.7799C88.972 19.9711 88.8383 20.1972 88.8383 20.3829V22.9544C88.8383 23.3653 88.5497 23.7113 88.1385 23.942C87.7228 24.1753 87.1739 24.2997 86.6132 24.2997H47.0408C46.4801 24.2997 45.9312 24.1753 45.5154 23.942C45.1043 23.7113 44.8157 23.3653 44.8157 22.9544V20.3785C44.8157 20.1928 44.6819 19.9667 44.3412 19.7755C44.0051 19.5869 43.5342 19.4743 43.0317 19.4743H2.11504ZM0.66751 19.3728C1.06262 19.1511 1.58352 19.0332 2.11504 19.0332H43.0317C43.5924 19.0332 44.1413 19.1576 44.557 19.3908C44.9682 19.6215 45.2568 19.9676 45.2568 20.3785V22.9544C45.2568 23.1401 45.3905 23.3662 45.7313 23.5574C46.0674 23.7459 46.5382 23.8586 47.0408 23.8586H86.6132C87.1158 23.8586 87.5866 23.7459 87.9227 23.5574C88.2634 23.3662 88.3972 23.1401 88.3972 22.9544V20.3829C88.3972 19.972 88.6858 19.6259 89.0969 19.3953C89.5127 19.162 90.0616 19.0376 90.6223 19.0376H131.498C131.765 19.034 132.032 19.0603 132.282 19.1157C132.534 19.1712 132.767 19.2553 132.968 19.3657C133.168 19.4757 133.337 19.6128 133.457 19.7741C133.578 19.9367 133.648 20.1224 133.646 20.3185V31.3436C133.646 31.4654 133.547 31.5642 133.426 31.5642H0.220538C0.0987383 31.5642 0 31.4654 0 31.3436V20.3167C0 19.9222 0.277018 19.5919 0.66751 19.3728Z" fill="#263238"/>
<path d="M67.4363 68.8131H8.83489C8.34081 68.8131 7.85157 68.7158 7.39509 68.5267C6.93862 68.3376 6.52386 68.0605 6.17449 67.7111C5.82512 67.3617 5.54798 66.947 5.3589 66.4905C5.16983 66.034 5.07251 65.5448 5.07251 65.0507V44.8362L9.52297 49.5469H67.4363C67.9304 49.5469 68.4196 49.6442 68.8761 49.8333C69.3326 50.0224 69.7473 50.2995 70.0967 50.6489C70.4461 50.9982 70.7232 51.413 70.9123 51.8695C71.1014 52.3259 71.1987 52.8152 71.1987 53.3093V65.0507C71.1987 65.5448 71.1014 66.034 70.9123 66.4905C70.7232 66.947 70.4461 67.3617 70.0967 67.7111C69.7473 68.0605 69.3326 68.3376 68.8761 68.5267C68.4196 68.7158 67.9304 68.8131 67.4363 68.8131Z" fill="#50BFD7"/>
<path d="M20.2011 59.18C20.2011 58.1332 19.8906 57.1098 19.3091 56.2394C18.7275 55.369 17.9008 54.6906 16.9337 54.29C15.9665 53.8894 14.9023 53.7846 13.8756 53.9888C12.8488 54.193 11.9057 54.6971 11.1655 55.4373C10.4253 56.1776 9.92117 57.1207 9.71694 58.1474C9.51271 59.1741 9.61753 60.2384 10.0181 61.2055C10.4187 62.1727 11.0972 62.9993 11.9676 63.5809C12.838 64.1625 13.8613 64.4729 14.9082 64.4729C16.3119 64.4729 17.6582 63.9153 18.6508 62.9227C19.6434 61.93 20.2011 60.5838 20.2011 59.18Z" fill="white"/>
<path fill-rule="evenodd" clip-rule="evenodd" d="M22.4641 53.5916C22.4641 53.348 22.6616 53.1505 22.9052 53.1505H33.8659C34.1095 53.1505 34.307 53.348 34.307 53.5916C34.307 53.8352 34.1095 54.0327 33.8659 54.0327H22.9052C22.6616 54.0327 22.4641 53.8352 22.4641 53.5916Z" fill="#263238"/>
<path fill-rule="evenodd" clip-rule="evenodd" d="M22.6846 57.4113C22.6846 57.2895 22.7833 57.1908 22.9051 57.1908H65.7116C65.8334 57.1908 65.9321 57.2895 65.9321 57.4113C65.9321 57.5331 65.8334 57.6319 65.7116 57.6319H22.9051C22.7833 57.6319 22.6846 57.5331 22.6846 57.4113Z" fill="#263238"/>
<path fill-rule="evenodd" clip-rule="evenodd" d="M22.6846 60.565C22.6846 60.4432 22.7833 60.3445 22.9051 60.3445H65.7116C65.8334 60.3445 65.9321 60.4432 65.9321 60.565C65.9321 60.6868 65.8334 60.7856 65.7116 60.7856H22.9051C22.7833 60.7856 22.6846 60.6868 22.6846 60.565Z" fill="#263238"/>
<path fill-rule="evenodd" clip-rule="evenodd" d="M22.6846 64.0539C22.6846 63.9321 22.7833 63.8334 22.9051 63.8334H65.7116C65.8334 63.8334 65.9321 63.9321 65.9321 64.0539C65.9321 64.1757 65.8334 64.2745 65.7116 64.2745H22.9051C22.7833 64.2745 22.6846 64.1757 22.6846 64.0539Z" fill="#263238"/>
<path d="M67.436 96.6142H8.83465C7.8368 96.6142 6.87983 96.2178 6.17424 95.5122C5.46866 94.8066 5.07227 93.8496 5.07227 92.8518V72.624L9.52272 77.3391H67.436C68.4339 77.3391 69.3909 77.7355 70.0965 78.4411C70.802 79.1467 71.1984 80.1037 71.1984 81.1015V92.843C71.1996 93.3378 71.1031 93.828 70.9146 94.2855C70.726 94.743 70.4491 95.1588 70.0996 95.5091C69.7501 95.8594 69.3349 96.1373 68.8779 96.3269C68.4208 96.5166 67.9309 96.6142 67.436 96.6142Z" fill="#50BFD7"/>
<path d="M20.2011 86.9811C20.2011 85.9343 19.8906 84.911 19.3091 84.0406C18.7275 83.1701 17.9008 82.4917 16.9337 82.0911C15.9665 81.6905 14.9023 81.5857 13.8756 81.7899C12.8488 81.9942 11.9057 82.4983 11.1655 83.2385C10.4253 83.9787 9.92117 84.9218 9.71694 85.9486C9.51271 86.9753 9.61753 88.0395 10.0181 89.0067C10.4187 89.9738 11.0972 90.8005 11.9676 91.3821C12.838 91.9636 13.8613 92.2741 14.9082 92.2741C16.3119 92.2741 17.6582 91.7164 18.6508 90.7238C19.6434 89.7312 20.2011 88.3849 20.2011 86.9811Z" fill="white"/>
<path fill-rule="evenodd" clip-rule="evenodd" d="M22.4641 81.3926C22.4641 81.149 22.6616 80.9515 22.9052 80.9515H33.8659C34.1095 80.9515 34.307 81.149 34.307 81.3926C34.307 81.6362 34.1095 81.8337 33.8659 81.8337H22.9052C22.6616 81.8337 22.4641 81.6362 22.4641 81.3926Z" fill="#263238"/>
<path fill-rule="evenodd" clip-rule="evenodd" d="M22.6846 85.2122C22.6846 85.0904 22.7833 84.9917 22.9051 84.9917H65.7116C65.8334 84.9917 65.9321 85.0904 65.9321 85.2122C65.9321 85.334 65.8334 85.4328 65.7116 85.4328H22.9051C22.7833 85.4328 22.6846 85.334 22.6846 85.2122Z" fill="#263238"/>
<path fill-rule="evenodd" clip-rule="evenodd" d="M22.6846 88.366C22.6846 88.2442 22.7833 88.1455 22.9051 88.1455H65.7116C65.8334 88.1455 65.9321 88.2442 65.9321 88.366C65.9321 88.4878 65.8334 88.5866 65.7116 88.5866H22.9051C22.7833 88.5866 22.6846 88.4878 22.6846 88.366Z" fill="#263238"/>
<path fill-rule="evenodd" clip-rule="evenodd" d="M22.6846 91.8551C22.6846 91.7333 22.7833 91.6345 22.9051 91.6345H65.7116C65.8334 91.6345 65.9321 91.7333 65.9321 91.8551C65.9321 91.9769 65.8334 92.0756 65.7116 92.0756H22.9051C22.7833 92.0756 22.6846 91.9769 22.6846 91.8551Z" fill="#263238"/>
<path d="M65.7336 119.096H124.339C125.337 119.096 126.294 118.699 127 117.994C127.705 117.288 128.102 116.331 128.102 115.333V95.1189L123.651 99.834H65.7336C64.7357 99.834 63.7787 100.23 63.0732 100.936C62.3676 101.642 61.9712 102.599 61.9712 103.596V115.333C61.9712 115.828 62.0685 116.317 62.2576 116.773C62.4467 117.23 62.7238 117.644 63.0732 117.994C63.4225 118.343 63.8373 118.62 64.2938 118.809C64.7502 118.998 65.2395 119.096 65.7336 119.096Z" fill="#808080"/>
<path d="M75.5482 113.203C77.6135 111.137 77.6135 107.789 75.5482 105.724C73.4829 103.658 70.1344 103.658 68.0691 105.724C66.0038 107.789 66.0038 111.137 68.0691 113.203C70.1344 115.268 73.4829 115.268 75.5482 113.203Z" fill="white"/>
<path fill-rule="evenodd" clip-rule="evenodd" d="M79.3625 103.874C79.3625 103.631 79.56 103.433 79.8036 103.433H100.018C100.262 103.433 100.459 103.631 100.459 103.874C100.459 104.118 100.262 104.315 100.018 104.315H79.8036C79.56 104.315 79.3625 104.118 79.3625 103.874Z" fill="#263238"/>
<path fill-rule="evenodd" clip-rule="evenodd" d="M79.5833 107.694C79.5833 107.572 79.682 107.473 79.8038 107.473H122.61C122.732 107.473 122.831 107.572 122.831 107.694C122.831 107.816 122.732 107.914 122.61 107.914H79.8038C79.682 107.914 79.5833 107.816 79.5833 107.694Z" fill="#263238"/>
<path fill-rule="evenodd" clip-rule="evenodd" d="M79.5833 110.852C79.5833 110.73 79.682 110.632 79.8038 110.632H122.61C122.732 110.632 122.831 110.73 122.831 110.852C122.831 110.974 122.732 111.073 122.61 111.073H79.8038C79.682 111.073 79.5833 110.974 79.5833 110.852Z" fill="#263238"/>
<path fill-rule="evenodd" clip-rule="evenodd" d="M79.5833 114.341C79.5833 114.219 79.682 114.12 79.8038 114.12H122.61C122.732 114.12 122.831 114.219 122.831 114.341C122.831 114.463 122.732 114.561 122.61 114.561H79.8038C79.682 114.561 79.5833 114.463 79.5833 114.341Z" fill="#263238"/>
<path d="M127.024 66.4459C125.483 72.805 128.951 95.9291 134.636 104.678C134.636 104.678 151.112 115.373 202.573 109.303C202.573 109.303 194.248 106.643 202.043 76.1484C202.207 75.4932 202.38 74.838 202.563 74.1539C203.623 70.2035 195.867 63.4301 194.47 61.0502C184.401 43.9673 127.024 66.4459 127.024 66.4459Z" fill="#2C2C2C"/>
<path d="M97.7818 157.025C97.7818 157.025 94.9491 156.408 93.8604 155.011C92.762 153.614 92.1164 152.998 88.2817 151.331C84.4758 149.664 82.9631 147.506 82.9631 147.506C82.9631 147.506 80.3038 149.943 86.1427 152.737C89.7173 154.452 77.9722 154.202 74.4361 153.807C74.4361 153.807 72.3935 154.925 75.7754 156.563C79.1573 158.201 75.9006 158.326 82.597 161.149C89.2837 163.982 97.2326 165.465 98.8513 161.428C100.46 157.391 97.7818 157.025 97.7818 157.025Z" fill="white"/>
<path fill-rule="evenodd" clip-rule="evenodd" d="M82.9631 147.506L82.7027 147.221L83.0266 146.925L83.2783 147.284L83.2784 147.284L83.2787 147.284L83.2803 147.287C83.2823 147.289 83.2858 147.294 83.2908 147.301C83.3007 147.314 83.3167 147.335 83.3389 147.364C83.3833 147.42 83.4525 147.506 83.5481 147.614C83.7392 147.831 84.0355 148.141 84.4491 148.503C85.276 149.227 86.5724 150.161 88.4357 150.977C90.3554 151.812 91.5051 152.395 92.3161 152.955C93.141 153.524 93.6051 154.063 94.1633 154.773L94.1639 154.774L94.1644 154.774C94.6405 155.385 95.5349 155.858 96.3692 156.183C96.777 156.342 97.1528 156.459 97.4268 156.536C97.5635 156.574 97.6742 156.603 97.7501 156.622C97.788 156.631 97.8172 156.638 97.8366 156.642C97.8436 156.644 97.8493 156.645 97.8537 156.646C97.858 156.647 97.8628 156.648 97.8682 156.649C97.8729 156.649 97.8781 156.65 97.8837 156.651C97.9101 156.657 97.9458 156.664 97.9891 156.675C98.0755 156.697 98.1934 156.733 98.3278 156.791C98.5957 156.907 98.9389 157.113 99.223 157.475C99.8105 158.222 100.04 159.486 99.2093 161.571L99.209 161.572C98.7547 162.705 97.8561 163.436 96.6985 163.849C95.5513 164.258 94.1373 164.361 92.5967 164.249C89.5134 164.024 85.8111 162.929 82.4468 161.504C79.0938 160.09 78.1482 159.321 77.6359 158.644C77.5458 158.525 77.4677 158.406 77.3994 158.302C77.3767 158.268 77.3551 158.235 77.3344 158.204C77.2483 158.076 77.1639 157.96 77.0484 157.84C76.8176 157.6 76.4319 157.309 75.6074 156.909C74.7394 156.489 74.1789 156.084 73.8454 155.69C73.5025 155.286 73.3898 154.879 73.4583 154.502C73.5231 154.145 73.7379 153.884 73.9058 153.726C73.9926 153.645 74.0754 153.582 74.137 153.54C74.1681 153.519 74.1944 153.502 74.2139 153.49C74.2237 153.484 74.2319 153.48 74.2381 153.476C74.2413 153.474 74.2439 153.473 74.2461 153.472L74.249 153.47L74.2501 153.469L74.2507 153.469C74.2509 153.469 74.2511 153.469 74.4361 153.807L74.2511 153.469L74.3579 153.41L74.4789 153.424C76.2261 153.619 80.0275 153.78 82.9425 153.678C84.415 153.627 85.6055 153.509 86.2002 153.317C86.2453 153.302 86.2838 153.288 86.3164 153.275C86.239 153.222 86.1284 153.158 85.9762 153.085C83.0205 151.67 82.0584 150.273 81.9788 149.1C81.9397 148.523 82.1207 148.055 82.3056 147.737C82.3982 147.577 82.4934 147.452 82.5666 147.366C82.6034 147.323 82.635 147.289 82.6586 147.265C82.6704 147.253 82.6802 147.243 82.6876 147.236C82.6914 147.232 82.6945 147.229 82.697 147.227L82.7004 147.224L82.7017 147.222L82.7022 147.222C82.7025 147.222 82.7027 147.221 82.9631 147.506ZM74.5325 154.205C74.5027 154.227 74.4686 154.255 74.4338 154.288C74.3244 154.391 74.2399 154.512 74.2167 154.639C74.1974 154.746 74.2081 154.926 74.4334 155.192C74.668 155.468 75.1204 155.817 75.9434 156.216C76.8098 156.635 77.2853 156.974 77.6043 157.306C77.7636 157.472 77.8763 157.628 77.9742 157.774C78.0031 157.817 78.0295 157.857 78.055 157.896C78.1192 157.993 78.1771 158.081 78.2506 158.179C78.6296 158.679 79.4037 159.384 82.7467 160.794L82.7473 160.794C86.0697 162.201 89.6851 163.264 92.6527 163.48C94.1374 163.588 95.4322 163.482 96.4395 163.123C97.4365 162.767 98.1385 162.17 98.4935 161.285C99.2713 159.333 98.9665 158.396 98.617 157.951C98.4325 157.716 98.2067 157.578 98.0227 157.499C97.9311 157.46 97.8523 157.436 97.7985 157.422C97.7716 157.415 97.7514 157.411 97.7393 157.409C97.7333 157.407 97.7293 157.407 97.7276 157.407C97.7268 157.406 97.7265 157.406 97.7268 157.406L97.7146 157.405L97.6999 157.402L97.7818 157.025C97.6999 157.402 97.6998 157.402 97.6997 157.402L97.6994 157.401L97.6966 157.401L97.6893 157.399C97.6832 157.398 97.6743 157.396 97.663 157.393C97.6403 157.388 97.6075 157.38 97.5659 157.37C97.4826 157.349 97.3635 157.319 97.2177 157.278C96.9264 157.196 96.526 157.071 96.0895 156.901C95.2356 156.569 94.1697 156.035 93.5569 155.249C93.017 154.562 92.6091 154.094 91.8782 153.589C91.1333 153.075 90.0429 152.516 88.128 151.684L88.1271 151.684C86.1848 150.833 84.8221 149.854 83.9413 149.083C83.5019 148.698 83.1827 148.365 82.9712 148.125C82.8403 148.351 82.722 148.666 82.7479 149.048C82.7983 149.791 83.426 151.01 86.3091 152.39L86.3094 152.39C86.5461 152.503 86.7425 152.619 86.8875 152.742C87.0227 152.856 87.1741 153.026 87.1949 153.257C87.2183 153.518 87.0675 153.704 86.929 153.811C86.7931 153.917 86.6173 153.992 86.4375 154.05C85.7248 154.281 84.4282 154.398 82.9694 154.449C80.0958 154.549 76.3753 154.398 74.5325 154.205ZM74.6226 154.144C74.6232 154.144 74.6234 154.144 74.6232 154.144L74.6226 154.144Z" fill="#2C2C2C"/>
<path d="M144.589 134.007C144.589 134.007 136.572 172.855 132.921 174.994C129.982 176.719 107.455 169.387 98.8995 166.506C96.8665 165.831 95.6235 165.388 95.6235 165.388L97.0977 155.425L101.925 156.081L125.964 159.347C125.964 159.347 134.067 119.872 139.887 119.39C145.716 118.899 144.589 134.007 144.589 134.007Z" fill="#2C2C2C"/>
<path d="M191.695 119.15C191.695 119.15 220.128 147.852 221.997 162.199C221.997 162.199 217.671 170.312 191.627 185.786L189.305 179.147C189.305 179.147 203.845 162.459 208.893 158.239C208.893 158.239 186.126 139.412 186.656 134.074C187.186 128.717 188.506 119.429 191.695 119.15Z" fill="#2C2C2C"/>
<path d="M203.324 131.203C203.324 137.35 199.297 141.156 193.15 141.156C187.003 141.156 182.021 136.175 182.021 130.027C182.021 123.88 186.665 117.097 192.523 118.938C198.979 120.951 203.324 125.056 203.324 131.203Z" fill="white"/>
<path fill-rule="evenodd" clip-rule="evenodd" d="M185.37 121.736C183.538 123.898 182.407 127.041 182.407 130.028C182.407 135.962 187.216 140.771 193.15 140.771C196.144 140.771 198.584 139.845 200.274 138.208C201.963 136.572 202.939 134.19 202.939 131.203C202.939 125.291 198.777 121.292 192.409 119.305L192.408 119.305C189.67 118.445 187.196 119.582 185.37 121.736ZM192.639 118.57C189.519 117.59 186.742 118.924 184.782 121.238C182.827 123.545 181.636 126.867 181.636 130.028C181.636 136.388 186.79 141.541 193.15 141.541C196.303 141.541 198.95 140.564 200.811 138.761C202.673 136.958 203.71 134.363 203.71 131.203C203.71 124.821 199.181 120.611 192.639 118.57Z" fill="#2C2C2C"/>
<path d="M198.324 129.411C198.324 133.959 195.346 136.772 190.799 136.772C186.251 136.772 182.57 133.092 182.57 128.544C182.57 123.996 186 118.976 190.346 120.335C195.106 121.838 198.324 124.873 198.324 129.411Z" fill="#2C2C2C"/>
<path d="M128.653 131.203C128.653 137.35 132.68 141.156 138.827 141.156C144.974 141.156 149.946 136.165 149.946 130.028C149.946 123.89 145.302 117.097 139.444 118.938C132.998 120.951 128.653 125.056 128.653 131.203Z" fill="white"/>
<path fill-rule="evenodd" clip-rule="evenodd" d="M147.186 121.242C149.141 123.55 150.332 126.872 150.332 130.027C150.332 136.377 145.188 141.541 138.827 141.541C135.674 141.541 133.027 140.564 131.167 138.761C129.305 136.957 128.267 134.363 128.267 131.203C128.267 124.821 132.796 120.611 139.329 118.57C142.449 117.59 145.225 118.927 147.186 121.242ZM146.598 121.74C144.772 119.584 142.297 118.445 139.559 119.305L139.559 119.305C133.201 121.292 129.038 125.29 129.038 131.203C129.038 134.19 130.015 136.572 131.703 138.208C133.393 139.845 135.834 140.771 138.827 140.771C144.761 140.771 149.561 135.953 149.561 130.027C149.561 127.046 148.43 123.903 146.598 121.74Z" fill="#2C2C2C"/>
<path d="M133.663 129.411C133.663 133.959 136.64 136.772 141.188 136.772C145.736 136.772 149.416 133.092 149.416 128.544C149.416 123.996 145.986 118.976 141.65 120.335C136.871 121.838 133.663 124.873 133.663 129.411Z" fill="#2C2C2C"/>
<path d="M179.998 180.525C173.042 179.889 166.172 179.629 166.172 179.629C163.647 179.706 158.271 179.928 152.721 180.525C154.34 186.055 159.832 190.131 166.355 190.131C172.887 190.141 178.379 186.046 179.998 180.525Z" fill="#50BFD7"/>
<path d="M179.429 181.103C180.027 178.752 191.984 118.841 191.984 118.841C191.984 118.841 160.073 109.418 139.666 118.841L152.75 181.623L179.429 181.103Z" fill="white"/>
<path fill-rule="evenodd" clip-rule="evenodd" d="M192.092 118.472C192.093 118.472 192.093 118.472 191.984 118.841C192.362 118.917 192.362 118.917 192.362 118.917L192.361 118.919L192.227 119.59C192.14 120.03 192.011 120.674 191.847 121.496C191.519 123.138 191.049 125.488 190.484 128.315C189.354 133.968 187.84 141.53 186.308 149.166C183.247 164.427 180.105 180.01 179.803 181.198L179.73 181.483L152.438 182.015L139.226 118.62L139.504 118.491C149.806 113.734 162.974 113.745 173.52 114.925C178.801 115.515 183.442 116.402 186.762 117.14C188.423 117.509 189.754 117.842 190.67 118.082C191.129 118.202 191.484 118.299 191.724 118.367C191.844 118.4 191.936 118.426 191.998 118.444C192.029 118.453 192.053 118.46 192.068 118.465L192.086 118.47L192.091 118.471L192.092 118.472ZM191.984 118.841L192.362 118.917L192.431 118.571L192.093 118.472L191.984 118.841ZM191.536 119.114C191.53 119.113 191.523 119.111 191.517 119.109C191.28 119.043 190.929 118.947 190.475 118.828C189.567 118.589 188.245 118.259 186.595 117.892C183.294 117.158 178.682 116.278 173.434 115.691C163.02 114.526 150.17 114.525 140.106 119.064L153.062 181.232L179.122 180.724C179.668 178.275 182.641 163.525 185.553 149.015C187.085 141.379 188.598 133.817 189.728 128.164C190.293 125.337 190.763 122.987 191.091 121.345C191.255 120.523 191.384 119.879 191.471 119.439L191.536 119.114Z" fill="black"/>
<path d="M179.429 181.103C180.027 178.752 191.984 118.841 191.984 118.841C191.984 118.841 160.073 109.418 139.666 118.841L152.75 181.623L179.429 181.103Z" fill="white"/>
<path fill-rule="evenodd" clip-rule="evenodd" d="M192.092 118.472C192.093 118.472 192.093 118.472 191.984 118.841C192.362 118.917 192.362 118.917 192.362 118.917L192.361 118.919L192.227 119.59C192.14 120.03 192.011 120.674 191.847 121.496C191.519 123.138 191.049 125.488 190.484 128.315C189.354 133.968 187.84 141.53 186.308 149.166C183.247 164.427 180.105 180.01 179.803 181.198L179.73 181.483L152.438 182.015L139.226 118.62L139.504 118.491C149.806 113.734 162.974 113.745 173.52 114.925C178.801 115.515 183.442 116.402 186.762 117.14C188.423 117.509 189.754 117.842 190.67 118.082C191.129 118.202 191.484 118.299 191.724 118.367C191.844 118.4 191.936 118.426 191.998 118.444C192.029 118.453 192.053 118.46 192.068 118.465L192.086 118.47L192.091 118.471L192.092 118.472ZM191.984 118.841L192.362 118.917L192.431 118.571L192.093 118.472L191.984 118.841ZM191.536 119.114C191.53 119.113 191.523 119.111 191.517 119.109C191.28 119.043 190.929 118.947 190.475 118.828C189.567 118.589 188.245 118.259 186.595 117.892C183.294 117.158 178.682 116.278 173.434 115.691C163.02 114.526 150.17 114.525 140.106 119.064L153.062 181.232L179.122 180.724C179.668 178.275 182.641 163.525 185.553 149.015C187.085 141.379 188.598 133.817 189.728 128.164C190.293 125.337 190.763 122.987 191.091 121.345C191.255 120.523 191.384 119.879 191.471 119.439L191.536 119.114Z" fill="#2C2C2C"/>
<path d="M184.237 117.001C175.325 115.209 160.255 113.166 147.306 116.249C148.838 125.913 150.37 135.587 151.902 145.251C153.135 151.803 159.35 156.167 165.834 156.206C172.319 156.167 178.533 151.812 179.766 145.251C181.25 135.828 182.744 126.414 184.237 117.001Z" fill="#50BFD7"/>
<path fill-rule="evenodd" clip-rule="evenodd" d="M147.217 115.875C160.251 112.771 175.389 114.829 184.313 116.623L184.676 116.696L184.617 117.068C183.124 126.479 181.631 135.89 180.147 145.311L180.146 145.317L180.145 145.322C178.873 152.094 172.474 156.552 165.837 156.592L165.834 156.592L165.832 156.592C159.194 156.552 152.796 152.084 151.523 145.322L151.522 145.317L151.521 145.312C150.756 140.48 149.99 135.646 149.224 130.812L149.223 130.811C148.457 125.976 147.692 121.142 146.926 116.31L146.87 115.957L147.217 115.875ZM147.743 116.543C148.49 121.257 149.237 125.973 149.985 130.689L149.985 130.69C150.75 135.523 151.516 140.355 152.282 145.185C153.478 151.523 159.506 155.782 165.834 155.821C172.163 155.782 178.191 151.533 179.387 145.186C180.851 135.886 182.325 126.596 183.799 117.307C174.939 115.552 160.356 113.638 147.743 116.543Z" fill="#2C2C2C"/>
<path d="M164.726 120.421C167.771 120.421 172.502 119.496 172.502 116.461L171.721 106.325L171.037 97.4611C171.037 94.4164 168.57 91.9595 165.535 91.9595C164.013 91.9595 162.645 92.5761 161.643 93.5685C160.65 94.5609 160.024 95.9387 160.024 97.4611L159.35 106.335L158.704 114.843C157.837 119.978 164.726 120.421 164.726 120.421Z" fill="#2C2C2C"/>
<path d="M182.532 40.3059C177.974 34.6983 171.606 31.3164 163.435 31.3164C144.926 31.3164 126.832 48.3801 126.832 69.6639C126.832 90.9477 141.833 108.204 160.342 108.204C162.125 108.204 163.849 108.05 165.507 107.742C165.68 108.676 165.776 109.64 165.776 110.623C165.776 110.806 165.767 110.979 165.767 111.152C216.794 98.8003 208.44 37.1552 182.532 40.3059Z" fill="#2C2C2C"/>
<path d="M142.739 91.1598C146.171 91.1598 148.954 88.3774 148.954 84.9452C148.954 81.513 146.171 78.7306 142.739 78.7306C139.307 78.7306 136.524 81.513 136.524 84.9452C136.524 88.3774 139.307 91.1598 142.739 91.1598Z" fill="white"/>
<path fill-rule="evenodd" clip-rule="evenodd" d="M142.739 79.1159C139.52 79.1159 136.91 81.7257 136.91 84.9451C136.91 88.1645 139.52 90.7743 142.739 90.7743C145.959 90.7743 148.568 88.1645 148.568 84.9451C148.568 81.7257 145.959 79.1159 142.739 79.1159ZM136.139 84.9451C136.139 81.3 139.094 78.3451 142.739 78.3451C146.384 78.3451 149.339 81.3 149.339 84.9451C149.339 88.5902 146.384 91.5451 142.739 91.5451C139.094 91.5451 136.139 88.5902 136.139 84.9451Z" fill="#2C2C2C"/>
<path d="M186.501 91.1598C189.934 91.1598 192.716 88.3774 192.716 84.9452C192.716 81.513 189.934 78.7306 186.501 78.7306C183.069 78.7306 180.287 81.513 180.287 84.9452C180.287 88.3774 183.069 91.1598 186.501 91.1598Z" fill="white"/>
<path fill-rule="evenodd" clip-rule="evenodd" d="M186.502 79.1159C183.282 79.1159 180.672 81.7257 180.672 84.9451C180.672 88.1645 183.282 90.7743 186.502 90.7743C189.721 90.7743 192.331 88.1645 192.331 84.9451C192.331 81.7257 189.721 79.1159 186.502 79.1159ZM179.902 84.9451C179.902 81.3 182.857 78.3451 186.502 78.3451C190.147 78.3451 193.102 81.3 193.102 84.9451C193.102 88.5902 190.147 91.5451 186.502 91.5451C182.857 91.5451 179.902 88.5902 179.902 84.9451Z" fill="#2C2C2C"/>
<path d="M165.208 110.873C178.549 110.873 189.363 95.5636 189.363 76.6783C189.363 57.7931 178.549 42.4835 165.208 42.4835C151.868 42.4835 141.053 57.7931 141.053 76.6783C141.053 95.5636 151.868 110.873 165.208 110.873Z" fill="white"/>
<path fill-rule="evenodd" clip-rule="evenodd" d="M148.443 52.7212C144.122 58.8369 141.438 67.3057 141.438 76.6782C141.438 86.0507 144.122 94.5196 148.443 100.635C152.763 106.752 158.696 110.488 165.208 110.488C171.72 110.488 177.653 106.752 181.973 100.635C186.293 94.5196 188.978 86.0507 188.978 76.6782C188.978 67.3057 186.293 58.8369 181.973 52.7212C177.653 46.6046 171.72 42.8688 165.208 42.8688C158.696 42.8688 152.763 46.6046 148.443 52.7212ZM147.813 52.2765C152.235 46.017 158.379 42.098 165.208 42.098C172.037 42.098 178.181 46.017 182.603 52.2765C187.025 58.5369 189.748 67.1655 189.748 76.6782C189.748 86.191 187.025 94.8195 182.603 101.08C178.181 107.339 172.037 111.258 165.208 111.258C158.379 111.258 152.235 107.339 147.813 101.08C143.391 94.8195 140.667 86.191 140.667 76.6782C140.667 67.1655 143.391 58.5369 147.813 52.2765Z" fill="#2C2C2C"/>
<path d="M137.527 69.0955C137.527 69.0955 158.088 70.0975 164.938 57.7261C164.938 57.7261 179.815 70.5986 194.017 69.5965L192.678 63.9118L187.166 53.0435L183.823 49.0353L176.973 41.8476L167.781 38.0032L156.749 39.5062L142.036 49.5363L140.196 56.2231L137.527 69.0955Z" fill="#2C2C2C"/>
<path d="M165.805 90.0421C165.815 90.0999 165.69 90.2059 165.41 90.2059C165.141 90.2155 164.726 90.0903 164.36 89.7434C164.177 89.57 164.013 89.358 163.888 89.0882C163.869 89.0497 163.859 89.0111 163.84 88.9726L163.82 88.9148L163.801 88.8666L163.772 88.7799C163.763 88.7414 163.753 88.6932 163.734 88.6546C163.695 88.5101 163.666 88.356 163.657 88.1922C163.599 87.5562 163.724 86.9107 163.878 86.2941C164.476 83.8275 165.179 81.8908 165.439 81.9486C165.699 82.0161 165.43 84.0587 164.832 86.5253C164.678 87.1323 164.562 87.6815 164.562 88.144C164.562 88.2596 164.572 88.3752 164.582 88.4812L164.591 88.5198V88.539V88.5487V88.5583C164.591 88.5583 164.582 88.5294 164.591 88.539L164.611 88.6354L164.62 88.6836L164.63 88.7125L164.649 88.7703C164.707 88.9533 164.794 89.1268 164.89 89.2617C165.083 89.5411 165.314 89.7145 165.497 89.8108C165.661 89.9361 165.796 89.9746 165.805 90.0421Z" fill="#2C2C2C"/>
<path d="M139.097 80.5998C138.827 79.5303 138.625 78.4415 138.461 77.3431C138.307 76.2447 138.201 75.1463 138.143 74.0383C138.047 71.8222 138.134 69.5869 138.432 67.3805C138.731 65.1644 139.242 62.9773 139.964 60.8576C140.003 60.7227 140.051 60.5878 140.099 60.4625L140.244 60.0675L140.533 59.2774L140.86 58.497L141.024 58.1116C141.082 57.9863 141.13 57.8514 141.198 57.7262C141.67 56.7049 142.18 55.6932 142.758 54.7297C143.905 52.7834 145.244 50.9527 146.786 49.2859C148.337 47.6286 150.081 46.1448 151.989 44.9019C152.22 44.7381 152.471 44.5936 152.711 44.4491C152.952 44.3045 153.203 44.1504 153.444 44.0155L154.205 43.6108L154.581 43.4085C154.706 43.341 154.841 43.2832 154.966 43.2254L155.746 42.8689C155.814 42.84 155.872 42.8111 155.939 42.7822L156.142 42.7051L156.537 42.551L156.932 42.3968C157.066 42.3486 157.192 42.2908 157.336 42.2426L158.155 41.9729C160.333 41.2695 162.626 40.913 164.919 40.8648C166.066 40.8263 167.212 40.913 168.349 41.0383C168.638 41.0768 168.918 41.125 169.197 41.1635L169.621 41.231C169.688 41.2406 169.765 41.2502 169.833 41.2695L170.045 41.3177L170.883 41.5007C171.163 41.5586 171.442 41.6356 171.712 41.7127C173.918 42.3294 176.048 43.2254 177.994 44.4202L178.716 44.873C178.842 44.9501 178.957 45.0272 179.073 45.1139L179.42 45.3548L179.767 45.5956C179.882 45.6727 179.998 45.7594 180.114 45.8462L180.788 46.3664L181.125 46.6266L181.453 46.906L182.098 47.4648C182.31 47.6479 182.513 47.8502 182.715 48.0526L183.023 48.3513C183.129 48.4476 183.226 48.544 183.322 48.6499L183.91 49.2666L184.199 49.5749L184.478 49.8929L185.037 50.5384C185.133 50.6444 185.22 50.76 185.307 50.866L185.567 51.2032C185.74 51.4248 185.914 51.6464 186.087 51.8777L186.579 52.5714C186.916 53.0243 187.205 53.5157 187.513 53.9878C188.708 55.9051 189.681 57.9478 190.452 60.0482C191.223 62.1583 191.772 64.3358 192.119 66.5422L192.186 66.9565L192.215 67.1589L192.234 67.3709L192.331 68.1995C192.408 68.7487 192.427 69.3075 192.475 69.8663C192.543 70.9744 192.562 72.092 192.533 73.2001L192.523 73.6144L192.504 74.0287C192.485 74.3081 192.475 74.5779 192.446 74.8573C192.408 75.4065 192.35 75.9653 192.283 76.5145C192.138 77.6129 191.955 78.7017 191.714 79.7808C191.849 78.6824 191.955 77.5936 191.994 76.4952C192.042 75.3969 192.051 74.2985 192.003 73.2097C191.955 72.1209 191.878 71.0225 191.743 69.9434C191.666 69.4038 191.608 68.8643 191.502 68.3247L191.358 67.525L191.319 67.3227L191.271 67.1203L191.184 66.7253C190.731 64.596 190.086 62.5148 189.267 60.5203L189.113 60.1446L188.949 59.7784L188.612 59.0365C188.506 58.786 188.38 58.5548 188.255 58.3139L187.889 57.5913C187.764 57.3504 187.629 57.1192 187.494 56.8879C187.359 56.6567 187.234 56.4158 187.089 56.1846L186.665 55.5005C186.521 55.2692 186.386 55.038 186.232 54.826C185.923 54.3828 185.634 53.93 185.307 53.506L184.825 52.8605C184.661 52.6485 184.488 52.4462 184.314 52.2342L184.054 51.9259C183.968 51.8199 183.881 51.7139 183.794 51.6175L183.255 51.0202L182.985 50.7215L182.705 50.4324L182.137 49.864C180.605 48.3802 178.9 47.0794 177.059 46.0003C175.229 44.9212 173.253 44.1022 171.211 43.553C170.7 43.3988 170.18 43.3121 169.669 43.1965L169.476 43.158C169.409 43.1483 169.342 43.1387 169.284 43.1291L168.889 43.0713C168.629 43.0327 168.368 42.9845 168.108 42.9556C167.058 42.8496 165.998 42.7726 164.948 42.8015C162.838 42.84 160.728 43.158 158.714 43.8035L157.963 44.0444C157.837 44.0829 157.712 44.1311 157.587 44.1793L157.221 44.3238L156.855 44.4683L156.671 44.5358C156.614 44.5551 156.546 44.5936 156.488 44.6129L155.766 44.9405C155.65 44.9983 155.525 45.0464 155.4 45.1043L155.043 45.2873L154.34 45.6534C154.109 45.7883 153.877 45.9232 153.646 46.0485C153.415 46.1834 153.184 46.3086 152.962 46.4628C151.16 47.5997 149.503 48.9583 148 50.4806L147.451 51.0683L147.181 51.367C147.133 51.4152 147.085 51.4634 147.046 51.5116L146.921 51.6657L146.4 52.2824C146.314 52.3883 146.227 52.4847 146.14 52.5907L145.89 52.9086L145.398 53.5446C145.312 53.6505 145.244 53.7565 145.158 53.8721L144.926 54.1997C144.772 54.4213 144.618 54.6333 144.464 54.8646L144.03 55.5486C142.884 57.3697 141.901 59.3063 141.13 61.32C140.35 63.3338 139.752 65.4342 139.348 67.5732L139.193 68.3729C139.145 68.6427 139.116 68.9125 139.068 69.1822L138.953 69.9916C138.924 70.2614 138.895 70.5311 138.866 70.8009L138.779 71.6199L138.731 72.4389L138.683 73.2579C138.673 73.5276 138.664 73.8071 138.654 74.0768C138.635 75.1752 138.654 76.264 138.731 77.3624C138.818 78.4126 138.943 79.5014 139.097 80.5998Z" fill="#50BFD7"/>
<path d="M158.926 78.4899C158.926 81.2359 156.546 83.4616 153.617 83.4616C150.678 83.4616 148.308 81.2359 148.308 78.4899C148.308 75.7439 150.688 73.5182 153.617 73.5182C156.546 73.5182 158.926 75.7439 158.926 78.4899Z" fill="white"/>
<path fill-rule="evenodd" clip-rule="evenodd" d="M153.617 73.9034C150.876 73.9034 148.693 75.9801 148.693 78.4897C148.693 80.9997 150.867 83.0759 153.617 83.0759C156.357 83.0759 158.54 80.9992 158.54 78.4897C158.54 75.9801 156.357 73.9034 153.617 73.9034ZM147.923 78.4897C147.923 75.5072 150.499 73.1326 153.617 73.1326C156.734 73.1326 159.311 75.5072 159.311 78.4897C159.311 81.4721 156.734 83.8467 153.617 83.8467C150.489 83.8467 147.923 81.4716 147.923 78.4897Z" fill="#2C2C2C"/>
<path d="M151.016 78.1815C151.016 80.4457 152.49 82.286 154.301 82.286C156.113 82.286 157.587 80.4457 157.587 78.1815C157.587 75.9172 156.113 74.0769 154.301 74.0769C152.48 74.0673 151.016 75.9076 151.016 78.1815Z" fill="#50BFD7"/>
<path d="M151.959 78.1814C151.959 79.7904 153 81.0912 154.291 81.0912C155.582 81.0912 156.623 79.7904 156.623 78.1814C156.623 76.5723 155.582 75.262 154.291 75.262C153.01 75.262 151.959 76.5627 151.959 78.1814Z" fill="#2C2C2C"/>
<path d="M151.815 75.4161C151.815 75.8593 152.355 76.2062 153.02 76.2062C153.684 76.2062 154.224 75.8497 154.224 75.4161C154.224 74.9729 153.684 74.626 153.02 74.626C152.355 74.6164 151.815 74.9729 151.815 75.4161Z" fill="white"/>
<path d="M153.964 72.7953C150.678 72.4677 148.154 75.4353 148.154 78.4993C148.154 78.8173 148.549 78.8751 148.713 78.6535C150.052 76.8132 150.485 75.0018 152.933 74.2984C156.546 73.2578 158.531 76.9673 158.733 79.8771C158.762 80.1565 159.003 79.906 159.032 79.617C159.359 76.1387 157.625 73.1615 153.964 72.7953Z" fill="#2C2C2C"/>
<path d="M160.448 70.8875C160.448 70.8875 153.28 63.7383 145.572 72.2268C145.562 72.2268 152.23 67.9585 160.448 70.8875Z" fill="#2C2C2C"/>
<path d="M182.021 78.4896C182.021 81.2356 179.641 83.4613 176.712 83.4613C173.774 83.4613 171.403 81.2356 171.403 78.4896C171.403 75.7436 173.783 73.5179 176.712 73.5179C179.641 73.5179 182.021 75.7436 182.021 78.4896Z" fill="white"/>
<path fill-rule="evenodd" clip-rule="evenodd" d="M176.712 73.9034C173.972 73.9034 171.789 75.9801 171.789 78.4897C171.789 80.9997 173.962 83.0759 176.712 83.0759C179.453 83.0759 181.636 80.9992 181.636 78.4897C181.636 75.9801 179.453 73.9034 176.712 73.9034ZM171.018 78.4897C171.018 75.5072 173.595 73.1326 176.712 73.1326C179.83 73.1326 182.406 75.5072 182.406 78.4897C182.406 81.4721 179.83 83.8467 176.712 83.8467C173.585 83.8467 171.018 81.4716 171.018 78.4897Z" fill="#2C2C2C"/>
<path d="M174.111 78.1814C174.111 80.4456 175.585 82.2859 177.396 82.2859C179.208 82.2859 180.682 80.4456 180.682 78.1814C180.682 75.9171 179.208 74.0768 177.396 74.0768C175.585 74.0672 174.111 75.9075 174.111 78.1814Z" fill="#50BFD7"/>
<path d="M175.065 78.1811C175.065 79.7902 176.105 81.0909 177.396 81.0909C178.687 81.0909 179.728 79.7902 179.728 78.1811C179.728 76.5721 178.687 75.2617 177.396 75.2617C176.105 75.2617 175.065 76.5624 175.065 78.1811Z" fill="#2C2C2C"/>
<path d="M174.91 75.416C174.91 75.8592 175.45 76.2061 176.115 76.2061C176.78 76.2061 177.319 75.8496 177.319 75.416C177.319 74.9728 176.78 74.6259 176.115 74.6259C175.46 74.6163 174.91 74.9728 174.91 75.416Z" fill="white"/>
<path d="M177.059 72.7952C173.773 72.4676 171.249 75.4352 171.249 78.4992C171.249 78.8171 171.644 78.8749 171.808 78.6533C173.147 76.813 173.581 75.0016 176.028 74.2983C179.641 73.2577 181.626 76.9672 181.828 79.877C181.857 80.1564 182.098 79.9059 182.127 79.6168C182.455 76.1386 180.73 73.1614 177.059 72.7952Z" fill="#2C2C2C"/>
<path d="M183.544 70.1073C183.544 70.1073 176.375 62.9581 168.667 71.4465C168.667 71.4465 175.334 67.1782 183.544 70.1073Z" fill="#2C2C2C"/>
<path d="M157.365 95.5051C157.606 97.3743 158.512 99.099 159.928 100.352C161.344 101.604 163.165 102.288 165.054 102.288C166.942 102.288 168.763 101.604 170.18 100.352C171.596 99.099 172.511 97.384 172.743 95.5051H157.365Z" fill="white"/>
<path fill-rule="evenodd" clip-rule="evenodd" d="M156.927 95.1196H173.178L173.125 95.5521C172.882 97.5259 171.921 99.3263 170.435 100.64C168.948 101.956 167.036 102.674 165.054 102.674C163.072 102.674 161.16 101.956 159.673 100.64C158.186 99.3252 157.235 97.5151 156.983 95.5543L156.927 95.1196ZM157.816 95.8904C158.121 97.4994 158.948 98.9703 160.183 100.063C161.529 101.253 163.259 101.903 165.054 101.903C166.849 101.903 168.579 101.253 169.924 100.063C171.162 98.9685 171.996 97.5043 172.294 95.8904H157.816Z" fill="#2C2C2C"/>
<path d="M172.444 184.697C172.444 184.938 172.656 185.217 172.907 185.188C175.749 184.889 177.926 182.693 180.73 183.155C177.917 184.552 175.479 186.98 175.826 190.555C175.864 190.998 176.288 191.171 176.616 190.902C178.63 189.187 180.942 187.655 183.64 188.223C184.796 188.464 186.155 188.917 187.349 188.763C189.132 188.541 190.635 187.732 191.521 186.007C193.082 183.02 192.504 179.436 189.007 178.694C188.92 178.675 188.853 178.684 188.775 178.713C187.484 178.203 186.309 177.557 185.268 176.43C184.266 175.331 183.332 174.117 182.243 173.106C180.788 171.747 179.208 170.678 177.281 171.593C176.992 171.728 177.011 172.142 177.194 172.364C178.042 173.414 179.034 174.416 180.075 175.38C179.034 175.139 177.984 175.013 176.905 175.1C174.978 175.264 172.704 176.545 172.752 178.839C172.762 179.128 172.964 179.301 173.215 179.33C174.988 179.513 176.77 179.484 178.533 179.667C175.787 180.476 172.415 181.401 172.444 184.697Z" fill="white"/>
<path fill-rule="evenodd" clip-rule="evenodd" d="M180.08 171.138C180.968 171.489 181.771 172.138 182.505 172.824C183.242 173.508 183.922 174.298 184.582 175.064C184.909 175.443 185.231 175.817 185.552 176.17C186.509 177.206 187.589 177.819 188.801 178.309C188.889 178.294 188.983 178.295 189.088 178.318C190.975 178.719 192.106 179.904 192.532 181.404C192.951 182.881 192.678 184.625 191.863 186.185C190.906 188.046 189.277 188.912 187.398 189.145C186.74 189.23 186.053 189.146 185.406 189.02C185.081 188.956 184.758 188.88 184.449 188.806C184.417 188.798 184.384 188.79 184.352 188.782C184.076 188.716 183.814 188.653 183.561 188.601L183.56 188.601C181.059 188.074 178.878 189.482 176.866 191.195L176.863 191.197L176.861 191.199C176.599 191.415 176.26 191.478 175.961 191.35C175.662 191.222 175.473 190.933 175.442 190.591C175.128 187.349 176.974 185.023 179.302 183.522C178.528 183.627 177.773 183.907 176.983 184.241C176.807 184.316 176.629 184.393 176.449 184.471C175.379 184.936 174.226 185.437 172.948 185.572C172.66 185.604 172.43 185.456 172.291 185.298C172.153 185.14 172.059 184.923 172.059 184.699C172.043 182.884 172.98 181.718 174.243 180.924C174.909 180.505 175.676 180.182 176.454 179.91C176.257 179.901 176.059 179.893 175.861 179.884L175.853 179.884C174.97 179.845 174.072 179.806 173.175 179.714L173.173 179.713L173.171 179.713C172.759 179.666 172.384 179.359 172.367 178.852L172.367 178.849L172.367 178.847C172.34 177.554 172.973 176.553 173.851 175.867C174.721 175.188 175.845 174.804 176.872 174.716L176.873 174.716L176.874 174.716C177.555 174.662 178.222 174.688 178.878 174.771C178.171 174.075 177.498 173.354 176.895 172.608C176.74 172.419 176.662 172.164 176.676 171.924C176.69 171.676 176.811 171.388 177.116 171.245C178.185 170.738 179.173 170.78 180.08 171.138ZM177.45 171.94C177.448 171.945 177.446 171.954 177.445 171.968C177.444 171.992 177.447 172.022 177.457 172.052C177.467 172.082 177.48 172.105 177.491 172.119L177.493 172.12L177.494 172.122C178.326 173.152 179.303 174.14 180.337 175.097L181.401 176.082L179.988 175.755C178.974 175.521 177.965 175.402 176.937 175.485C176.037 175.561 175.061 175.9 174.325 176.475C173.597 177.044 173.117 177.829 173.138 178.828C173.14 178.879 173.156 178.899 173.166 178.91C173.179 178.923 173.207 178.941 173.257 178.947C174.129 179.037 175.006 179.075 175.894 179.114L175.897 179.114C176.782 179.152 177.679 179.191 178.573 179.284L180.514 179.486L178.642 180.037C178.594 180.051 178.546 180.065 178.498 180.08C177.151 180.476 175.742 180.891 174.653 181.576C173.551 182.27 172.816 183.214 172.829 184.694L172.829 184.695V184.697C172.829 184.702 172.831 184.716 172.839 184.737C172.847 184.757 172.859 184.776 172.871 184.79C172.876 184.796 172.881 184.8 172.884 184.803C174.028 184.679 175.055 184.235 176.124 183.772C176.309 183.692 176.495 183.611 176.683 183.531C177.939 183 179.274 182.525 180.793 182.775L181.971 182.969L180.901 183.501C178.149 184.868 175.885 187.178 176.209 190.518L176.21 190.52L176.21 190.522C176.214 190.573 176.229 190.603 176.239 190.618C176.249 190.633 176.258 190.639 176.264 190.642C176.27 190.644 176.28 190.647 176.295 190.644C176.31 190.642 176.336 190.633 176.369 190.606C178.384 188.891 180.826 187.237 183.719 187.846C183.983 187.901 184.258 187.967 184.531 188.033C184.564 188.041 184.596 188.048 184.629 188.056C184.938 188.13 185.246 188.203 185.554 188.263C186.174 188.384 186.764 188.45 187.3 188.381L187.301 188.381L187.302 188.381C188.987 188.171 190.363 187.418 191.179 185.831L191.179 185.83L191.18 185.829C191.925 184.402 192.144 182.861 191.79 181.614C191.443 180.39 190.536 179.413 188.927 179.071L188.925 179.071L188.923 179.071C188.923 179.071 188.923 179.071 188.922 179.07C188.92 179.071 188.916 179.073 188.911 179.075L188.772 179.127L188.634 179.072C187.311 178.549 186.078 177.876 184.985 176.692L184.984 176.691L184.983 176.69C184.629 176.302 184.292 175.909 183.957 175.521C183.316 174.776 182.687 174.045 181.98 173.388L181.98 173.388C181.26 172.715 180.545 172.15 179.797 171.855C179.071 171.569 178.307 171.534 177.45 171.94Z" fill="#2C2C2C"/>
<path fill-rule="evenodd" clip-rule="evenodd" d="M140.571 74.8671V75.0598H139.801V74.8671H140.571Z" fill="#2C2C2C"/>
<path fill-rule="evenodd" clip-rule="evenodd" d="M144.618 76.9866V77.1793H143.847V76.9866H144.618Z" fill="#2C2C2C"/>
<path d="M166.538 75.8497C167.858 76.1291 167.366 76.9866 167.366 77.1119C167.366 77.2372 167.858 84.3671 174.226 86.2459C180.595 88.1248 184.411 84.4345 185.519 82.5846C186.627 80.7347 187.552 76.3411 187.821 76.0039C188.101 75.6666 189.421 75.0789 189.421 75.0789L189.575 73.3542L187.918 72.8628C187.918 72.8628 183.736 70.9551 177.579 70.8684C171.432 70.772 167.954 74.3177 167.954 74.3177C166.22 73.7685 164.071 73.6915 162.105 74.3177C162.105 74.3177 158.627 70.7817 152.48 70.8684C146.333 70.9647 142.142 72.8628 142.142 72.8628L140.484 73.3542L140.639 75.0789C140.639 75.0789 141.959 75.6666 142.238 76.0039C142.517 76.3411 143.433 80.7443 144.541 82.5846C145.649 84.4345 149.464 88.1248 155.833 86.2459C162.202 84.3671 162.693 77.2372 162.693 77.1119C162.693 76.9866 162.202 76.1291 163.522 75.8497C164.668 75.6088 165.391 75.6088 166.538 75.8497ZM181.819 84.7718C176.963 87.6912 171.143 84.7429 169.39 80.8985C167.636 77.0541 169.11 75.0211 169.11 75.0211C172.049 70.2421 183.871 70.0398 185.904 75.2042C186.251 76.0713 186.684 81.8523 181.819 84.7718ZM144.146 75.2042C146.179 70.0301 158.011 70.2421 160.94 75.0211C160.94 75.0211 162.414 77.0541 160.66 80.8985C158.907 84.7429 153.097 87.6912 148.231 84.7718C143.375 81.8523 143.808 76.0713 144.146 75.2042Z" fill="#2C2C2C"/>
<path d="M169.515 127.59H162.115C160.15 127.59 158.55 129.189 158.55 131.155V138.555C158.55 140.52 160.15 142.12 162.115 142.12H169.515C171.481 142.12 173.08 140.52 173.08 138.555V131.155C173.08 129.189 171.49 127.59 169.515 127.59ZM156.585 124.439C155.458 124.439 154.542 125.355 154.542 126.482C154.542 127.609 155.458 128.524 156.585 128.524C157.712 128.524 158.627 127.609 158.627 126.482C158.627 125.355 157.712 124.439 156.585 124.439Z" fill="white"/>
<path d="M168.995 132.003C168.522 130.741 167.318 129.902 165.969 129.902H163.965L167.925 139.942H172.174L168.995 132.003ZM160.901 137.061L159.745 139.942H163.965L165.931 134.961H163.926C162.578 134.961 161.373 135.799 160.901 137.061ZM161.556 132.398C162.25 132.398 162.818 131.829 162.818 131.136C162.818 130.442 162.25 129.874 161.556 129.874C160.863 129.874 160.294 130.442 160.294 131.136C160.294 131.829 160.863 132.398 161.556 132.398Z" fill="#50BFD7"/>
<path d="M178.39 169.46C171.73 168.852 165.152 168.603 165.152 168.603C162.735 168.676 157.588 168.889 152.274 169.46C153.824 174.756 159.082 178.658 165.328 178.658C171.582 178.667 176.841 174.747 178.39 169.46Z" fill="#50BFD7"/>
<path d="M170.789 179.082C170.789 179.313 170.992 179.581 171.232 179.553C173.953 179.267 176.038 177.164 178.722 177.606C176.029 178.944 173.695 181.269 174.027 184.691C174.064 185.116 174.47 185.282 174.783 185.023C176.711 183.381 178.925 181.915 181.508 182.459C182.615 182.689 183.916 183.123 185.06 182.975C186.767 182.763 188.206 181.988 189.055 180.337C190.549 177.477 189.996 174.045 186.647 173.335C186.564 173.317 186.499 173.326 186.425 173.354C185.189 172.865 184.064 172.247 183.067 171.167C182.108 170.116 181.213 168.953 180.171 167.985C178.778 166.684 177.265 165.66 175.42 166.536C175.143 166.665 175.161 167.062 175.337 167.274C176.149 168.28 177.099 169.239 178.095 170.162C177.099 169.931 176.093 169.811 175.06 169.894C173.215 170.051 171.038 171.278 171.084 173.474C171.093 173.75 171.287 173.916 171.527 173.944C173.224 174.119 174.931 174.092 176.619 174.267C173.99 175.042 170.761 175.927 170.789 179.082Z" fill="#C4C4C4"/>
<path fill-rule="evenodd" clip-rule="evenodd" d="M178.1 166.101C178.951 166.436 179.719 167.058 180.422 167.714C181.128 168.37 181.779 169.125 182.41 169.859C182.723 170.222 183.032 170.58 183.339 170.918C184.256 171.91 185.29 172.496 186.45 172.966C186.534 172.952 186.625 172.952 186.725 172.974C188.532 173.358 189.615 174.493 190.022 175.929C190.423 177.344 190.162 179.014 189.382 180.507C188.466 182.289 186.905 183.118 185.107 183.341C184.476 183.423 183.819 183.342 183.2 183.221C182.888 183.16 182.579 183.087 182.284 183.016C182.252 183.009 182.221 183.001 182.19 182.994C181.926 182.931 181.675 182.87 181.433 182.82L181.432 182.82C179.038 182.315 176.949 183.663 175.023 185.304L175.02 185.306L175.018 185.308C174.767 185.515 174.442 185.575 174.156 185.452C173.87 185.33 173.689 185.053 173.659 184.725C173.359 181.622 175.126 179.394 177.356 177.957C176.614 178.058 175.891 178.326 175.135 178.646C174.966 178.717 174.796 178.791 174.623 178.866C173.599 179.311 172.495 179.791 171.272 179.92C170.996 179.951 170.775 179.809 170.643 179.657C170.511 179.507 170.42 179.299 170.42 179.084C170.405 177.346 171.302 176.23 172.511 175.47C173.149 175.068 173.883 174.759 174.628 174.499C174.44 174.49 174.25 174.482 174.06 174.474L174.053 174.474C173.207 174.437 172.348 174.4 171.489 174.311L171.487 174.311L171.485 174.31C171.09 174.265 170.731 173.971 170.715 173.486L170.715 173.483L170.715 173.481C170.689 172.243 171.295 171.285 172.136 170.628C172.969 169.978 174.045 169.61 175.029 169.526L175.03 169.526L175.031 169.526C175.682 169.474 176.321 169.499 176.949 169.579C176.272 168.912 175.628 168.222 175.051 167.507C174.902 167.327 174.827 167.083 174.84 166.853C174.854 166.615 174.97 166.339 175.263 166.202C176.285 165.717 177.231 165.758 178.1 166.101ZM175.582 166.868C175.58 166.873 175.578 166.881 175.577 166.895C175.576 166.918 175.579 166.946 175.589 166.975C175.598 167.004 175.611 167.026 175.621 167.039L175.623 167.041L175.624 167.042C176.42 168.029 177.356 168.975 178.346 169.891L179.365 170.834L178.012 170.521C177.041 170.296 176.076 170.183 175.09 170.262C174.229 170.335 173.295 170.659 172.59 171.21C171.893 171.755 171.434 172.506 171.453 173.463C171.455 173.512 171.47 173.531 171.48 173.541C171.493 173.554 171.52 173.571 171.567 173.577C172.403 173.663 173.242 173.7 174.092 173.737L174.095 173.737C174.943 173.774 175.801 173.811 176.657 173.9L178.515 174.093L176.723 174.621C176.678 174.634 176.632 174.648 176.585 174.661C175.296 175.041 173.947 175.438 172.904 176.094C171.849 176.759 171.145 177.663 171.158 179.079L171.158 179.081V179.082C171.158 179.087 171.159 179.101 171.167 179.12C171.175 179.14 171.186 179.158 171.198 179.171C171.203 179.177 171.207 179.181 171.211 179.184C172.305 179.065 173.289 178.64 174.312 178.196C174.489 178.12 174.667 178.043 174.847 177.966C176.05 177.458 177.328 177.002 178.783 177.242L179.911 177.428L178.887 177.937C176.251 179.246 174.084 181.458 174.394 184.656L174.394 184.657L174.395 184.659C174.399 184.709 174.413 184.737 174.422 184.752C174.432 184.766 174.441 184.772 174.447 184.774C174.452 184.777 174.462 184.779 174.476 184.776C174.49 184.774 174.515 184.766 174.547 184.74C176.476 183.098 178.814 181.514 181.584 182.098C181.837 182.15 182.1 182.213 182.362 182.276C182.393 182.284 182.424 182.291 182.456 182.299C182.751 182.369 183.046 182.439 183.341 182.497C183.935 182.613 184.5 182.676 185.013 182.609L185.014 182.609L185.015 182.609C186.629 182.409 187.945 181.688 188.727 180.168L188.727 180.167L188.728 180.166C189.442 178.8 189.651 177.324 189.312 176.131C188.979 174.958 188.111 174.023 186.57 173.696L186.569 173.696L186.567 173.695C186.567 173.695 186.567 173.695 186.566 173.695C186.564 173.696 186.56 173.697 186.555 173.699L186.422 173.749L186.29 173.697C185.024 173.196 183.843 172.552 182.796 171.417L182.796 171.417L182.795 171.416C182.456 171.044 182.132 170.668 181.812 170.296C181.198 169.583 180.597 168.884 179.92 168.255L179.919 168.254C179.23 167.61 178.545 167.069 177.829 166.787C177.134 166.512 176.402 166.479 175.582 166.868Z" fill="#2C2C2C"/>
<path d="M120.154 152.206H199.954C200.909 152.206 201.825 152.586 202.5 153.261C203.175 153.936 203.554 154.851 203.554 155.806V200.638H116.555V155.806C116.555 154.851 116.934 153.936 117.609 153.261C118.284 152.586 119.2 152.206 120.154 152.206Z" fill="white"/>
<path fill-rule="evenodd" clip-rule="evenodd" d="M120.154 152.665C119.321 152.665 118.522 152.996 117.933 153.585C117.344 154.174 117.013 154.973 117.013 155.806V200.179H203.095V155.806C203.095 154.973 202.764 154.174 202.175 153.585C201.586 152.996 200.787 152.665 199.954 152.665H120.154ZM117.284 152.936C118.046 152.175 119.078 151.748 120.154 151.748H199.954C201.031 151.748 202.063 152.175 202.824 152.936C203.585 153.697 204.013 154.73 204.013 155.806V200.638C204.013 200.891 203.808 201.097 203.554 201.097H116.555C116.301 201.097 116.096 200.891 116.096 200.638V155.806C116.096 154.73 116.523 153.697 117.284 152.936Z" fill="#2C2C2C"/>
<path d="M203.554 168.319C192.625 171.091 181.408 178.146 160.508 188.082C140.349 197.671 123.848 197.506 116.555 196.764V200.638H203.554V168.319Z" fill="#2C2C2C"/>
<path fill-rule="evenodd" clip-rule="evenodd" d="M203.836 167.957C203.948 168.044 204.013 168.177 204.013 168.319V200.638C204.013 200.891 203.808 201.097 203.554 201.097H116.555C116.301 201.097 116.096 200.891 116.096 200.638V196.764C116.096 196.635 116.151 196.511 116.247 196.424C116.343 196.337 116.472 196.295 116.601 196.308C123.832 197.043 140.245 197.213 160.311 187.667L160.311 187.667C167.195 184.395 173.019 181.439 178.137 178.843C180.787 177.498 183.247 176.249 185.567 175.103C192.354 171.749 197.927 169.273 203.442 167.874C203.579 167.839 203.724 167.87 203.836 167.957ZM160.705 188.496C140.905 197.915 124.605 197.971 117.014 197.27V200.179H203.096V168.913C197.864 170.309 192.515 172.693 185.974 175.925C183.67 177.064 181.216 178.309 178.57 179.652C173.446 182.252 167.598 185.22 160.705 188.496Z" fill="#2C2C2C"/>
<path d="M203.554 197.953H116.555V200.645H203.554V197.953Z" fill="white"/>
<path fill-rule="evenodd" clip-rule="evenodd" d="M116.096 197.953C116.096 197.699 116.301 197.494 116.555 197.494H203.554C203.808 197.494 204.013 197.699 204.013 197.953V200.645C204.013 200.899 203.808 201.104 203.554 201.104H116.555C116.301 201.104 116.096 200.899 116.096 200.645V197.953ZM117.014 198.412V200.187H203.096V198.412H117.014Z" fill="#2C2C2C"/>
</svg>
