<svg width="250" height="204" viewBox="0 0 250 204" fill="none" xmlns="http://www.w3.org/2000/svg">
<path d="M202.944 70.67C194.921 61.7955 181.477 60.8031 171.023 54.9853C153.032 44.9728 146.058 22.1736 129.69 9.68233C119.369 1.79589 105.391 -1.26077 92.9041 0.468249C75.1772 2.92063 58.5001 14.8032 53.4939 32.2257C52.0567 37.299 51.5427 42.5892 51.9766 47.8443C52.7749 58.2316 55.0112 68.7513 52.9029 78.9534C50.5784 90.1964 43.2653 99.684 38.8943 110.309C33.4514 123.542 32.7192 138.362 35.026 152.468C36.6139 162.092 39.7808 171.809 46.3882 178.981C46.891 179.523 47.407 180.039 47.9407 180.546H120.101C124.626 174.773 128.04 167.941 132.041 161.876C142.062 146.623 158.108 135.746 175.632 130.643C183.484 128.358 191.987 127 198.295 121.795C204.788 116.445 207.769 107.906 209.057 99.5913C210.623 89.5083 209.789 78.2256 202.944 70.67Z" fill="#50BFD7"/>
<path opacity="0.7" d="M202.944 70.67C194.921 61.7955 181.477 60.8031 171.023 54.9853C153.032 44.9728 146.058 22.1736 129.69 9.68233C119.369 1.79589 105.391 -1.26077 92.9041 0.468249C75.1772 2.92063 58.5001 14.8032 53.4939 32.2257C52.0567 37.299 51.5427 42.5892 51.9766 47.8443C52.7749 58.2316 55.0112 68.7513 52.9029 78.9534C50.5784 90.1964 43.2653 99.684 38.8943 110.309C33.4514 123.542 32.7192 138.362 35.026 152.468C36.6139 162.092 39.7808 171.809 46.3882 178.981C46.891 179.523 47.407 180.039 47.9407 180.546H120.101C124.626 174.773 128.04 167.941 132.041 161.876C142.062 146.623 158.108 135.746 175.632 130.643C183.484 128.358 191.987 127 198.295 121.795C204.788 116.445 207.769 107.906 209.057 99.5913C210.623 89.5083 209.789 78.2256 202.944 70.67Z" fill="white"/>
<path fill-rule="evenodd" clip-rule="evenodd" d="M185.42 156.487L185.402 156.706C185.42 156.487 185.42 156.487 185.42 156.487L185.42 156.487L185.421 156.487L185.426 156.487L185.441 156.488C185.455 156.49 185.474 156.491 185.5 156.494C185.55 156.499 185.624 156.508 185.717 156.52C185.903 156.544 186.168 156.585 186.487 156.649C187.124 156.777 187.979 156.999 188.845 157.379C190.572 158.138 192.393 159.548 192.538 162.119C192.544 162.21 192.493 162.294 192.41 162.332L192.318 162.132C192.41 162.332 192.41 162.332 192.41 162.332L192.41 162.332L192.408 162.333L192.404 162.335L192.388 162.342C192.374 162.348 192.354 162.357 192.328 162.368C192.276 162.389 192.201 162.42 192.105 162.455C191.915 162.525 191.644 162.615 191.318 162.696C190.669 162.856 189.789 162.983 188.896 162.83C187.996 162.676 187.083 162.239 186.386 161.277C185.693 160.32 185.231 158.867 185.182 156.711C185.18 156.649 185.205 156.589 185.251 156.546C185.296 156.503 185.357 156.482 185.42 156.487ZM192.087 161.99C191.893 159.757 190.291 158.496 188.667 157.783C187.839 157.42 187.017 157.205 186.4 157.081C186.093 157.019 185.837 156.981 185.659 156.957C185.649 156.956 185.64 156.955 185.63 156.953C185.707 158.913 186.146 160.194 186.743 161.018C187.362 161.872 188.165 162.258 188.97 162.396C189.781 162.534 190.595 162.42 191.212 162.268C191.519 162.191 191.775 162.107 191.953 162.041C192.004 162.022 192.049 162.005 192.087 161.99Z" fill="#263238"/>
<path fill-rule="evenodd" clip-rule="evenodd" d="M198.871 157.863C200.259 158.648 201.504 158.904 202.592 158.849C203.739 158.792 204.726 158.39 205.537 157.874C206.348 157.357 206.979 156.729 207.407 156.228C207.621 155.978 207.783 155.761 207.892 155.607C207.898 155.598 207.904 155.59 207.909 155.582C205.1 154.463 202.832 155.05 201.249 155.931C200.431 156.385 199.796 156.918 199.365 157.338C199.149 157.548 198.985 157.729 198.876 157.857C198.874 157.859 198.873 157.861 198.871 157.863ZM208.241 155.48L208.43 155.594C208.463 155.54 208.471 155.473 208.451 155.413C208.432 155.352 208.387 155.303 208.328 155.278C205.257 153.96 202.759 154.586 201.034 155.545C200.175 156.023 199.508 156.583 199.057 157.022C198.831 157.243 198.658 157.433 198.541 157.57C198.483 157.638 198.438 157.693 198.408 157.731C198.393 157.75 198.381 157.765 198.373 157.776L198.364 157.788L198.361 157.791L198.361 157.792L198.36 157.792C198.36 157.793 198.36 157.793 198.537 157.924L198.36 157.793C198.323 157.843 198.309 157.906 198.321 157.967C198.333 158.028 198.371 158.081 198.424 158.113C199.968 159.038 201.373 159.352 202.614 159.29C203.853 159.228 204.914 158.793 205.774 158.246C206.633 157.699 207.295 157.038 207.742 156.515C207.966 156.253 208.137 156.024 208.252 155.861C208.31 155.779 208.354 155.713 208.383 155.668C208.398 155.645 208.41 155.627 208.417 155.615L208.426 155.6L208.429 155.596L208.43 155.595L208.43 155.595C208.43 155.594 208.43 155.594 208.241 155.48Z" fill="#263238"/>
<path fill-rule="evenodd" clip-rule="evenodd" d="M200.314 148.938C202.353 149.515 203.801 149.392 204.832 148.91C205.902 148.41 206.56 147.506 206.963 146.5C207.366 145.492 207.505 144.396 207.542 143.546C207.561 143.122 207.554 142.762 207.542 142.509C207.539 142.432 207.535 142.365 207.531 142.31C205.272 142.356 203.47 143.981 202.204 145.678C201.556 146.546 201.06 147.418 200.725 148.074C200.557 148.401 200.431 148.674 200.346 148.865C200.335 148.891 200.324 148.915 200.314 148.938ZM207.734 142.089L207.953 142.065C207.941 141.955 207.849 141.871 207.738 141.869C205.163 141.816 203.174 143.64 201.85 145.415C201.184 146.308 200.674 147.202 200.332 147.873C200.16 148.209 200.03 148.489 199.943 148.686C199.899 148.785 199.866 148.862 199.844 148.916C199.833 148.942 199.824 148.963 199.819 148.977L199.812 148.993L199.81 148.998L199.81 148.999C199.81 148.999 199.81 148.999 200.015 149.08L199.81 148.999C199.787 149.057 199.79 149.121 199.816 149.176C199.843 149.232 199.892 149.273 199.951 149.291C202.179 149.966 203.819 149.871 205.019 149.31C206.221 148.748 206.943 147.738 207.372 146.664C207.801 145.592 207.945 144.441 207.983 143.565C208.002 143.126 207.995 142.752 207.983 142.488C207.977 142.356 207.969 142.251 207.963 142.179C207.961 142.143 207.958 142.115 207.956 142.096L207.954 142.073L207.953 142.067L207.953 142.066L207.953 142.065C207.953 142.065 207.953 142.065 207.734 142.089Z" fill="#263238"/>
<path fill-rule="evenodd" clip-rule="evenodd" d="M197.054 136.527L196.949 136.721C197.054 136.527 197.054 136.527 197.054 136.527L197.055 136.528L197.056 136.528L197.061 136.531L197.077 136.54C197.091 136.548 197.111 136.559 197.137 136.574C197.189 136.604 197.263 136.648 197.356 136.707C197.54 136.823 197.798 136.996 198.09 137.22C198.672 137.669 199.401 138.331 199.968 139.181C200.536 140.033 200.947 141.08 200.876 142.29C200.806 143.502 200.255 144.846 198.953 146.295C198.874 146.383 198.739 146.392 198.648 146.317L198.789 146.147C198.648 146.317 198.648 146.317 198.648 146.317L198.646 146.315L198.643 146.313L198.631 146.303C198.621 146.294 198.607 146.282 198.588 146.265C198.552 146.233 198.499 146.185 198.433 146.122C198.301 145.997 198.118 145.813 197.909 145.575C197.49 145.101 196.963 144.41 196.532 143.546C195.668 141.811 195.194 139.375 196.758 136.613C196.817 136.508 196.948 136.47 197.054 136.527ZM198.771 145.834C199.915 144.508 200.375 143.31 200.436 142.265C200.499 141.175 200.131 140.221 199.601 139.426C199.07 138.63 198.381 138.001 197.821 137.57C197.541 137.355 197.296 137.19 197.12 137.08C197.089 137.06 197.06 137.042 197.034 137.026C195.689 139.55 196.132 141.754 196.927 143.349C197.336 144.17 197.838 144.829 198.239 145.283C198.44 145.51 198.614 145.685 198.737 145.803C198.749 145.814 198.76 145.824 198.771 145.834Z" fill="#263238"/>
<path fill-rule="evenodd" clip-rule="evenodd" d="M188.406 145.34L188.384 145.12C188.271 145.132 188.185 145.227 188.185 145.34C188.185 147.018 188.671 148.273 189.413 149.205C190.152 150.135 191.132 150.73 192.101 151.11C193.069 151.491 194.034 151.661 194.754 151.736C195.115 151.773 195.416 151.787 195.628 151.791C195.734 151.793 195.818 151.793 195.876 151.792C195.905 151.791 195.928 151.79 195.945 151.79C195.953 151.789 195.96 151.789 195.966 151.789C195.969 151.788 195.974 151.788 195.979 151.787C195.981 151.787 195.988 151.786 195.997 151.785C196.002 151.784 196.017 151.78 196.027 151.777C196.052 151.767 196.15 151.674 196.177 151.568C196.177 149.779 195.693 148.467 194.951 147.512C194.211 146.559 193.228 145.978 192.256 145.627C191.286 145.275 190.319 145.149 189.597 145.11C189.236 145.091 188.934 145.093 188.722 145.101C188.616 145.104 188.533 145.109 188.475 145.113C188.446 145.115 188.424 145.117 188.408 145.118L188.391 145.12L188.386 145.12L188.384 145.12L188.384 145.12C188.384 145.12 188.384 145.12 188.406 145.34ZM188.738 145.541C188.698 145.543 188.661 145.544 188.629 145.546C188.667 147.027 189.113 148.12 189.758 148.931C190.435 149.783 191.342 150.338 192.262 150.7C193.182 151.061 194.104 151.225 194.8 151.297C195.147 151.333 195.435 151.346 195.637 151.35C195.672 151.351 195.704 151.351 195.734 151.351C195.696 149.76 195.248 148.613 194.603 147.783C193.927 146.913 193.023 146.373 192.106 146.041C191.189 145.709 190.268 145.588 189.574 145.551C189.227 145.532 188.939 145.534 188.738 145.541Z" fill="#263238"/>
<path fill-rule="evenodd" clip-rule="evenodd" d="M198.002 139.396C198.115 139.352 198.243 139.407 198.288 139.521C200.038 143.976 198.897 150.246 195.589 157.613C194.177 160.757 194.175 163.731 194.285 166.064C194.291 166.186 194.197 166.289 194.075 166.295C193.953 166.301 193.85 166.207 193.844 166.085C193.734 163.734 193.731 160.674 195.187 157.432L195.187 157.432C198.486 150.085 199.559 143.96 197.877 139.682C197.833 139.569 197.889 139.441 198.002 139.396Z" fill="#263238"/>
<path fill-rule="evenodd" clip-rule="evenodd" d="M190.679 147.137C190.724 147.024 190.852 146.969 190.966 147.014L190.884 147.219C190.966 147.014 190.966 147.014 190.966 147.014L190.966 147.014L190.967 147.015L190.97 147.016L190.981 147.02C190.991 147.024 191.004 147.03 191.022 147.037C191.057 147.053 191.109 147.075 191.174 147.105C191.304 147.165 191.491 147.256 191.72 147.379C192.177 147.625 192.802 148.002 193.475 148.528C194.821 149.577 196.371 151.226 197.158 153.612C197.197 153.727 197.134 153.852 197.018 153.89C196.902 153.928 196.778 153.865 196.74 153.75C195.988 151.473 194.505 149.891 193.204 148.875C192.553 148.368 191.95 148.004 191.511 147.767C191.291 147.649 191.112 147.562 190.989 147.506C190.928 147.477 190.88 147.457 190.849 147.443C190.833 147.436 190.821 147.431 190.813 147.428L190.805 147.425L190.803 147.424L190.803 147.424L190.803 147.424C190.689 147.379 190.634 147.251 190.679 147.137Z" fill="#263238"/>
<path fill-rule="evenodd" clip-rule="evenodd" d="M205.473 145.771C205.571 145.843 205.593 145.981 205.521 146.079L205.343 145.949C205.521 146.079 205.52 146.079 205.52 146.079L205.52 146.08L205.52 146.08L205.518 146.083L205.511 146.092C205.505 146.099 205.497 146.11 205.486 146.124C205.465 146.152 205.433 146.192 205.391 146.242C205.308 146.342 205.185 146.484 205.024 146.652C204.701 146.988 204.225 147.432 203.606 147.863C202.368 148.726 200.553 149.546 198.267 149.348C198.145 149.338 198.055 149.231 198.066 149.11C198.076 148.988 198.183 148.899 198.304 148.909C200.459 149.095 202.173 148.325 203.354 147.502C203.944 147.09 204.399 146.667 204.705 146.347C204.859 146.187 204.975 146.053 205.052 145.96C205.09 145.914 205.119 145.877 205.138 145.853C205.148 145.841 205.155 145.832 205.159 145.826L205.164 145.819L205.165 145.818L205.165 145.818C205.165 145.818 205.165 145.818 205.165 145.818M205.473 145.771C205.375 145.699 205.237 145.72 205.165 145.818L205.473 145.771Z" fill="#263238"/>
<path fill-rule="evenodd" clip-rule="evenodd" d="M205.555 156.442C205.588 156.559 205.521 156.682 205.404 156.715L205.343 156.504L205.282 156.292C205.399 156.258 205.521 156.325 205.555 156.442ZM205.282 156.292C205.282 156.292 205.282 156.292 205.343 156.504C205.404 156.715 205.404 156.715 205.404 156.715L205.398 156.717L205.382 156.722L205.321 156.739C205.266 156.754 205.187 156.777 205.084 156.805C204.88 156.861 204.584 156.94 204.221 157.033C203.494 157.219 202.495 157.46 201.405 157.68C200.316 157.899 199.132 158.098 198.037 158.199C196.948 158.299 195.925 158.305 195.169 158.125C195.051 158.097 194.977 157.978 195.006 157.86C195.034 157.741 195.153 157.668 195.271 157.696C195.955 157.858 196.918 157.859 197.997 157.76C199.07 157.661 200.237 157.465 201.318 157.247C202.399 157.03 203.39 156.791 204.111 156.606C204.472 156.514 204.765 156.435 204.968 156.379C205.069 156.352 205.148 156.33 205.201 156.315L205.261 156.297L205.277 156.293L205.282 156.292Z" fill="#263238"/>
<path fill-rule="evenodd" clip-rule="evenodd" d="M187.419 158.749C187.509 158.667 187.649 158.673 187.731 158.763L187.731 158.764L187.732 158.765L187.739 158.772C187.745 158.779 187.753 158.788 187.765 158.801C187.789 158.826 187.824 158.863 187.871 158.91C187.964 159.006 188.101 159.142 188.275 159.306C188.625 159.633 189.124 160.07 189.723 160.504C190.93 161.378 192.505 162.217 194.061 162.189C194.183 162.187 194.283 162.284 194.285 162.406C194.287 162.528 194.19 162.628 194.068 162.63C192.365 162.66 190.691 161.75 189.464 160.861C188.847 160.413 188.333 159.964 187.973 159.627C187.794 159.459 187.652 159.318 187.555 159.219C187.507 159.169 187.47 159.13 187.444 159.103C187.431 159.09 187.422 159.079 187.415 159.072L187.407 159.064L187.405 159.061L187.405 159.061C187.405 159.061 187.404 159.06 187.568 158.912L187.405 159.061C187.323 158.971 187.329 158.831 187.419 158.749Z" fill="#263238"/>
<path fill-rule="evenodd" clip-rule="evenodd" d="M186.505 166.031C186.618 165.918 186.772 165.854 186.932 165.854H202.674C202.681 165.854 202.688 165.855 202.695 165.855C202.845 165.869 202.985 165.939 203.086 166.051C203.188 166.163 203.244 166.308 203.243 166.459V166.459H203.023L203.243 166.46M202.395 168.258L202.417 168.063L202.198 168.038V168.258H202.395ZM186.932 166.296C186.889 166.296 186.848 166.313 186.817 166.343C186.786 166.374 186.769 166.415 186.769 166.459V167.654C186.769 167.697 186.786 167.739 186.817 167.769C186.848 167.8 186.889 167.817 186.932 167.817H187.373C187.486 167.817 187.58 167.901 187.593 168.013L188.973 180.057H200.599L201.979 168.013C201.992 167.901 202.086 167.817 202.198 167.817H202.639C202.682 167.817 202.724 167.8 202.755 167.769C202.785 167.739 202.802 167.697 202.802 167.654V166.459L202.802 166.458C202.803 166.417 202.787 166.378 202.76 166.347C202.734 166.319 202.7 166.301 202.662 166.296H186.932ZM186.505 166.031C186.392 166.145 186.328 166.298 186.328 166.459L186.505 166.031ZM186.328 166.459V167.654V166.459ZM186.328 167.654C186.328 167.814 186.392 167.968 186.505 168.081L186.328 167.654ZM186.505 168.081C186.618 168.195 186.772 168.258 186.932 168.258L186.505 168.081ZM186.932 168.258H187.177H186.932Z" fill="#263238"/>
<path fill-rule="evenodd" clip-rule="evenodd" d="M188.185 168.038C188.185 167.916 188.284 167.817 188.406 167.817H197.558C197.68 167.817 197.778 167.916 197.778 168.038C197.778 168.159 197.68 168.258 197.558 168.258H188.406C188.284 168.258 188.185 168.159 188.185 168.038Z" fill="#263238"/>
<path fill-rule="evenodd" clip-rule="evenodd" d="M199.067 168.038C199.067 167.916 199.166 167.817 199.287 167.817H200.664C200.785 167.817 200.884 167.916 200.884 168.038C200.884 168.159 200.785 168.258 200.664 168.258H199.287C199.166 168.258 199.067 168.159 199.067 168.038Z" fill="#263238"/>
<path fill-rule="evenodd" clip-rule="evenodd" d="M27.4656 180.529C27.4656 180.407 27.5643 180.308 27.6861 180.308H212.718C212.839 180.308 212.938 180.407 212.938 180.529C212.938 180.651 212.839 180.749 212.718 180.749H27.6861C27.5643 180.749 27.4656 180.651 27.4656 180.529Z" fill="#263238"/>
<path d="M134.365 20.3211V142.905C134.365 143.187 134.166 143.457 133.81 143.657C133.455 143.856 132.973 143.968 132.471 143.968H3.05466C2.55221 143.968 2.07033 143.856 1.71504 143.657C1.35975 143.457 1.16016 143.187 1.16016 142.905V20.3211C1.16016 20.0392 1.35975 19.7688 1.71504 19.5694C2.07033 19.3701 2.55221 19.2581 3.05466 19.2581H43.9713C44.5029 19.2581 45.0128 19.3766 45.3887 19.5875C45.7647 19.7984 45.9759 20.0845 45.9759 20.3828V22.9587C45.9759 23.257 46.187 23.5431 46.563 23.754C46.9389 23.965 47.4488 24.0835 47.9804 24.0835H87.5528C88.0844 24.0835 88.5943 23.965 88.9702 23.754C89.3462 23.5431 89.5574 23.257 89.5574 22.9587V20.3828C89.5574 20.0845 89.7686 19.7984 90.1445 19.5875C90.5204 19.3766 91.0303 19.2581 91.5619 19.2581H132.439C132.691 19.2557 132.94 19.2815 133.174 19.3339C133.407 19.3862 133.62 19.4642 133.799 19.5631C133.979 19.6621 134.121 19.78 134.218 19.9102C134.315 20.0403 134.365 20.18 134.365 20.3211Z" fill="white"/>
<path fill-rule="evenodd" clip-rule="evenodd" d="M133.126 19.5491C132.91 19.5007 132.677 19.4765 132.441 19.4787L132.439 19.4787H91.562C91.0594 19.4787 90.5886 19.5913 90.2525 19.7799C89.9118 19.9711 89.778 20.1972 89.778 20.3829V22.9588C89.778 23.3697 89.4894 23.7158 89.0782 23.9464C88.6625 24.1797 88.1136 24.3041 87.5529 24.3041H47.9805C47.4198 24.3041 46.8709 24.1797 46.4551 23.9464C46.044 23.7158 45.7554 23.3697 45.7554 22.9588V20.3829C45.7554 20.1972 45.6216 19.9711 45.2809 19.7799C44.9448 19.5913 44.4739 19.4787 43.9714 19.4787H3.05474C2.58135 19.4787 2.13851 19.5848 1.82304 19.7618C1.50295 19.9414 1.38077 20.1518 1.38077 20.3212V142.905C1.38077 143.074 1.50295 143.285 1.82304 143.464C2.13851 143.641 2.58135 143.748 3.05474 143.748H132.471C132.944 143.748 133.387 143.641 133.702 143.464C134.023 143.285 134.145 143.074 134.145 142.905V20.3211C134.145 20.2346 134.115 20.1402 134.041 20.0422C133.967 19.9428 133.851 19.8439 133.693 19.7563C133.535 19.669 133.342 19.5977 133.126 19.5491ZM132.438 19.0376C132.705 19.0352 132.972 19.0626 133.222 19.1188C133.473 19.175 133.706 19.2595 133.906 19.3701C134.106 19.4804 134.275 19.6174 134.395 19.7783C134.516 19.9406 134.586 20.1256 134.586 20.3212V142.905C134.586 143.3 134.309 143.63 133.918 143.849C133.523 144.071 133.002 144.189 132.471 144.189H3.05474C2.52322 144.189 2.00231 144.071 1.60721 143.849C1.21671 143.63 0.939697 143.3 0.939697 142.905V20.3212C0.939697 19.9266 1.21671 19.5963 1.60721 19.3772C2.00231 19.1555 2.52322 19.0376 3.05474 19.0376H43.9714C44.5321 19.0376 45.081 19.162 45.4967 19.3953C45.9079 19.6259 46.1965 19.972 46.1965 20.3829V22.9588C46.1965 23.1445 46.3302 23.3706 46.671 23.5618C47.0071 23.7504 47.4779 23.863 47.9805 23.863H87.5529C88.0555 23.863 88.5263 23.7504 88.8624 23.5618C89.2031 23.3706 89.3369 23.1445 89.3369 22.9588V20.3829C89.3369 19.972 89.6255 19.6259 90.0367 19.3953C90.4524 19.162 91.0013 19.0376 91.562 19.0376H132.438Z" fill="#263238"/>
<path d="M134.365 31.3524H1.16016V42.6131H134.365V31.3524Z" fill="#BFBFBF"/>
<path fill-rule="evenodd" clip-rule="evenodd" d="M0.939453 31.3524C0.939453 31.2306 1.03819 31.1318 1.15999 31.1318H134.365C134.487 31.1318 134.586 31.2306 134.586 31.3524V42.6131C134.586 42.7349 134.487 42.8336 134.365 42.8336H1.15999C1.03819 42.8336 0.939453 42.7349 0.939453 42.6131V31.3524ZM1.38053 31.5729V42.3925H134.145V31.5729H1.38053Z" fill="#263238"/>
<path fill-rule="evenodd" clip-rule="evenodd" d="M119.153 35.5955C119.153 35.4737 119.252 35.375 119.374 35.375H124.397C124.519 35.375 124.618 35.4737 124.618 35.5955C124.618 35.7173 124.519 35.8161 124.397 35.8161H119.374C119.252 35.8161 119.153 35.7173 119.153 35.5955Z" fill="#263238"/>
<path fill-rule="evenodd" clip-rule="evenodd" d="M119.153 36.8967C119.153 36.7749 119.252 36.6761 119.374 36.6761H124.397C124.519 36.6761 124.618 36.7749 124.618 36.8967C124.618 37.0185 124.519 37.1172 124.397 37.1172H119.374C119.252 37.1172 119.153 37.0185 119.153 36.8967Z" fill="#263238"/>
<path fill-rule="evenodd" clip-rule="evenodd" d="M119.153 38.1936C119.153 38.0718 119.252 37.973 119.374 37.973H124.397C124.519 37.973 124.618 38.0718 124.618 38.1936C124.618 38.3154 124.519 38.4141 124.397 38.4141H119.374C119.252 38.4141 119.153 38.3154 119.153 38.1936Z" fill="#263238"/>
<path fill-rule="evenodd" clip-rule="evenodd" d="M10.6555 36.8967C10.6555 36.7749 10.7543 36.6761 10.8761 36.6761H15.121C15.2428 36.6761 15.3415 36.7749 15.3415 36.8967C15.3415 37.0185 15.2428 37.1172 15.121 37.1172H10.8761C10.7543 37.1172 10.6555 37.0185 10.6555 36.8967Z" fill="#263238"/>
<path fill-rule="evenodd" clip-rule="evenodd" d="M13.0179 35.3422C13.0775 35.4484 13.0397 35.5828 12.9334 35.6424L10.7057 36.8924L12.9334 38.1424C13.0397 38.202 13.0775 38.3364 13.0179 38.4426C12.9583 38.5489 12.8238 38.5866 12.7176 38.527L10.147 37.0847C10.0775 37.0457 10.0344 36.9722 10.0344 36.8924C10.0344 36.8126 10.0775 36.7391 10.147 36.7001L12.7176 35.2577C12.8238 35.1981 12.9583 35.2359 13.0179 35.3422Z" fill="#263238"/>
<path fill-rule="evenodd" clip-rule="evenodd" d="M105.42 35.5955C105.42 35.4737 105.519 35.375 105.641 35.375H111.969C112.091 35.375 112.19 35.4737 112.19 35.5955V38.1891C112.19 38.3109 112.091 38.4096 111.969 38.4096H105.641C105.519 38.4096 105.42 38.3109 105.42 38.1891V35.5955ZM105.861 35.8161V37.9685H111.749V35.8161H105.861Z" fill="#263238"/>
<path fill-rule="evenodd" clip-rule="evenodd" d="M112.173 35.5119C112.219 35.6247 112.165 35.7534 112.053 35.7996L108.885 37.0963C108.831 37.1183 108.771 37.1183 108.717 37.0963L105.557 35.7995C105.445 35.7533 105.391 35.6244 105.437 35.5118C105.483 35.3991 105.612 35.3452 105.725 35.3914L108.801 36.6539L111.886 35.3914C111.998 35.3452 112.127 35.3992 112.173 35.5119Z" fill="#263238"/>
<path fill-rule="evenodd" clip-rule="evenodd" d="M92.4691 35.4543C92.511 35.4041 92.5731 35.375 92.6385 35.375H98.0312C98.0966 35.375 98.1587 35.4041 98.2006 35.4543C98.2425 35.5046 98.2599 35.5708 98.2481 35.6352L97.6821 38.7316C97.663 38.8363 97.5717 38.9124 97.4652 38.9124H93.2045C93.098 38.9124 93.0067 38.8363 92.9876 38.7316L92.4216 35.6352C92.4098 35.5708 92.4272 35.5046 92.4691 35.4543ZM92.903 35.8161L93.3884 38.4714H97.2813L97.7667 35.8161H92.903Z" fill="#263238"/>
<path fill-rule="evenodd" clip-rule="evenodd" d="M94.0537 35.0972C94.0537 34.9754 94.1524 34.8767 94.2742 34.8767H96.4046C96.5264 34.8767 96.6251 34.9754 96.6251 35.0972V35.5957C96.6251 35.7175 96.5264 35.8162 96.4046 35.8162C96.2828 35.8162 96.184 35.7175 96.184 35.5957V35.3178H94.4948V35.5957C94.4948 35.7175 94.396 35.8162 94.2742 35.8162C94.1524 35.8162 94.0537 35.7175 94.0537 35.5957V35.0972Z" fill="#263238"/>
<path d="M134.365 135.023V142.905C134.366 143.044 134.318 143.182 134.224 143.311C134.129 143.44 133.991 143.558 133.815 143.656C133.64 143.755 133.432 143.834 133.202 143.887C132.973 143.94 132.727 143.968 132.479 143.968H3.05466C2.55221 143.968 2.07033 143.856 1.71504 143.657C1.35975 143.457 1.16016 143.187 1.16016 142.905V135.023H134.365Z" fill="#50BFD7"/>
<path fill-rule="evenodd" clip-rule="evenodd" d="M0.939453 135.023C0.939453 134.901 1.03819 134.802 1.15999 134.802H134.365C134.487 134.802 134.586 134.901 134.586 135.023V142.903C134.587 143.097 134.52 143.28 134.402 143.442C134.285 143.601 134.119 143.738 133.923 143.848C133.727 143.959 133.499 144.044 133.252 144.102C133.006 144.159 132.743 144.188 132.478 144.188H3.0545C2.52298 144.188 2.00207 144.07 1.60696 143.849C1.21647 143.63 0.939453 143.299 0.939453 142.905V135.023ZM1.38053 135.243V142.905C1.38053 143.074 1.50271 143.285 1.82279 143.464C2.13826 143.641 2.58111 143.747 3.0545 143.747H132.478C132.711 143.747 132.94 143.721 133.152 143.672C133.365 143.623 133.553 143.551 133.707 143.464C133.862 143.377 133.974 143.279 134.046 143.181C134.116 143.085 134.145 142.992 134.145 142.906L134.144 142.905V135.243H1.38053Z" fill="#263238"/>
<path d="M134.365 122.408H1.16016V135.023H134.365V122.408Z" fill="#BFBFBF"/>
<path fill-rule="evenodd" clip-rule="evenodd" d="M0.939453 122.408C0.939453 122.286 1.03819 122.188 1.15999 122.188H134.365C134.487 122.188 134.586 122.286 134.586 122.408V135.023C134.586 135.145 134.487 135.243 134.365 135.243H1.15999C1.03819 135.243 0.939453 135.145 0.939453 135.023V122.408ZM1.38053 122.629V134.802H134.145V122.629H1.38053Z" fill="#263238"/>
<path fill-rule="evenodd" clip-rule="evenodd" d="M12.0629 126.138C11.7108 126.376 11.5255 126.682 11.5255 126.991V130.37C11.5255 130.679 11.7108 130.984 12.0629 131.222C12.4137 131.46 12.9109 131.614 13.4709 131.614H25.2526C25.8126 131.614 26.3097 131.46 26.6605 131.222C27.0127 130.984 27.1979 130.679 27.1979 130.37V126.991C27.1979 126.682 27.0127 126.376 26.6605 126.138C26.3097 125.901 25.8126 125.747 25.2526 125.747H13.4709C12.9109 125.747 12.4137 125.901 12.0629 126.138ZM11.8158 125.773C12.2489 125.48 12.8347 125.306 13.4709 125.306H25.2526C25.8888 125.306 26.4746 125.48 26.9076 125.773C27.3394 126.065 27.639 126.491 27.639 126.991V130.37C27.639 130.869 27.3394 131.296 26.9076 131.588C26.4746 131.881 25.8888 132.055 25.2526 132.055H13.4709C12.8347 132.055 12.2489 131.881 11.8158 131.588C11.3841 131.296 11.0845 130.869 11.0845 130.37V126.991C11.0845 126.491 11.3841 126.065 11.8158 125.773Z" fill="#263238"/>
<path fill-rule="evenodd" clip-rule="evenodd" d="M17.1904 128.407C17.1904 128.285 17.2892 128.186 17.411 128.186H20.1379C20.3739 128.186 20.6085 128.218 20.8289 128.279C21.0492 128.341 21.2533 128.433 21.4285 128.551C21.6035 128.669 21.7489 128.814 21.8508 128.98C21.9531 129.148 22.0089 129.332 22.0089 129.523V129.964C22.0089 130.086 21.9101 130.184 21.7883 130.184C21.6665 130.184 21.5678 130.086 21.5678 129.964V129.523C21.5678 129.42 21.5382 129.315 21.4747 129.211C21.4106 129.106 21.3129 129.005 21.1814 128.916C21.05 128.828 20.8902 128.755 20.71 128.704C20.5299 128.654 20.3353 128.627 20.1379 128.627H17.411C17.2892 128.627 17.1904 128.529 17.1904 128.407Z" fill="#263238"/>
<path fill-rule="evenodd" clip-rule="evenodd" d="M18.7424 127.294C18.802 127.4 18.7642 127.534 18.658 127.594L17.2242 128.398L18.658 129.203C18.7642 129.262 18.802 129.397 18.7424 129.503C18.6828 129.609 18.5484 129.647 18.4422 129.587L16.6656 128.591C16.596 128.552 16.553 128.478 16.553 128.398C16.553 128.319 16.596 128.245 16.6656 128.206L18.4422 127.209C18.5484 127.15 18.6828 127.187 18.7424 127.294Z" fill="#263238"/>
<path fill-rule="evenodd" clip-rule="evenodd" d="M61.0219 126.138C60.6698 126.376 60.4845 126.682 60.4845 126.991V130.37C60.4845 130.679 60.6698 130.984 61.0219 131.222C61.3727 131.46 61.8699 131.614 62.4299 131.614H74.2116C74.7716 131.614 75.2687 131.46 75.6195 131.222C75.9716 130.984 76.1569 130.679 76.1569 130.37V126.991C76.1569 126.682 75.9716 126.376 75.6195 126.138C75.2687 125.901 74.7716 125.747 74.2116 125.747H62.4299C61.8699 125.747 61.3727 125.901 61.0219 126.138ZM60.7748 125.773C61.2079 125.48 61.7937 125.306 62.4299 125.306H74.2116C74.8478 125.306 75.4335 125.48 75.8666 125.773C76.2984 126.065 76.598 126.491 76.598 126.991V130.37C76.598 130.869 76.2984 131.296 75.8666 131.588C75.4335 131.881 74.8478 132.055 74.2116 132.055H62.4299C61.7937 132.055 61.2079 131.881 60.7748 131.588C60.3431 131.296 60.0435 130.869 60.0435 130.37V126.991C60.0435 126.491 60.3431 126.065 60.7748 125.773Z" fill="#263238"/>
<path fill-rule="evenodd" clip-rule="evenodd" d="M66.9326 128.407C66.9326 128.285 67.0314 128.186 67.1532 128.186H69.88C70.3541 128.186 70.8187 128.313 71.1706 128.551C71.5229 128.789 71.7511 129.134 71.7511 129.523V129.964C71.7511 130.086 71.6523 130.184 71.5305 130.184C71.4087 130.184 71.31 130.086 71.31 129.964V129.523C71.31 129.319 71.1904 129.097 70.9236 128.916C70.6565 128.736 70.2815 128.627 69.88 128.627H67.1532C67.0314 128.627 66.9326 128.529 66.9326 128.407Z" fill="#263238"/>
<path fill-rule="evenodd" clip-rule="evenodd" d="M68.3209 127.278C68.3892 127.379 68.3627 127.516 68.2618 127.584L67.0576 128.398L68.2618 129.212C68.3627 129.281 68.3892 129.418 68.3209 129.519C68.2527 129.62 68.1156 129.646 68.0147 129.578L66.5404 128.581C66.4797 128.54 66.4434 128.472 66.4434 128.398C66.4434 128.325 66.4797 128.257 66.5404 128.216L68.0147 127.219C68.1156 127.151 68.2527 127.177 68.3209 127.278Z" fill="#263238"/>
<path fill-rule="evenodd" clip-rule="evenodd" d="M66.7948 127.278C66.8628 127.379 66.836 127.516 66.735 127.584L65.5259 128.398L66.735 129.212C66.836 129.28 66.8628 129.417 66.7948 129.518C66.7267 129.619 66.5897 129.646 66.4887 129.578L65.0078 128.581C64.9469 128.54 64.9104 128.472 64.9104 128.398C64.9104 128.325 64.9469 128.256 65.0078 128.215L66.4887 127.219C66.5897 127.151 66.7267 127.177 66.7948 127.278Z" fill="#263238"/>
<path fill-rule="evenodd" clip-rule="evenodd" d="M124.138 131.227C124.49 130.989 124.676 130.683 124.676 130.374V126.995C124.676 126.686 124.49 126.381 124.138 126.143C123.787 125.905 123.29 125.751 122.73 125.751H110.949C110.389 125.751 109.891 125.905 109.541 126.143C109.189 126.381 109.003 126.686 109.003 126.995V130.374C109.003 130.683 109.189 130.989 109.541 131.227C109.891 131.464 110.389 131.618 110.949 131.618H122.73C123.29 131.618 123.787 131.464 124.138 131.227ZM124.385 131.592C123.952 131.885 123.366 132.059 122.73 132.059H110.949C110.312 132.059 109.727 131.885 109.294 131.592C108.862 131.3 108.562 130.874 108.562 130.374V126.995C108.562 126.496 108.862 126.069 109.294 125.777C109.727 125.484 110.312 125.31 110.949 125.31H122.73C123.366 125.31 123.952 125.484 124.385 125.777C124.817 126.069 125.117 126.496 125.117 126.995V130.374C125.117 130.874 124.817 131.3 124.385 131.592Z" fill="#263238"/>
<path fill-rule="evenodd" clip-rule="evenodd" d="M116.063 128.627C115.661 128.627 115.287 128.736 115.019 128.916C114.753 129.097 114.633 129.319 114.633 129.523V129.964C114.633 130.086 114.534 130.184 114.412 130.184C114.291 130.184 114.192 130.086 114.192 129.964V129.523C114.192 129.134 114.42 128.789 114.772 128.551C115.124 128.313 115.589 128.186 116.063 128.186H118.79C118.912 128.186 119.01 128.285 119.01 128.407C119.01 128.529 118.912 128.627 118.79 128.627H116.063Z" fill="#263238"/>
<path fill-rule="evenodd" clip-rule="evenodd" d="M117.602 127.278C117.671 127.177 117.808 127.15 117.909 127.219L119.383 128.215C119.444 128.256 119.48 128.325 119.48 128.398C119.48 128.471 119.444 128.54 119.383 128.581L117.909 129.578C117.808 129.646 117.671 129.619 117.602 129.518C117.534 129.418 117.561 129.28 117.661 129.212L118.866 128.398L117.661 127.584C117.561 127.516 117.534 127.379 117.602 127.278Z" fill="#263238"/>
<path d="M134.365 20.3167V31.3436H1.16016V20.3167C1.16016 20.0347 1.35975 19.7644 1.71504 19.565C2.07033 19.3657 2.55221 19.2537 3.05466 19.2537H43.9713C44.5029 19.2537 45.0128 19.3722 45.3887 19.5831C45.7647 19.794 45.9758 20.0801 45.9758 20.3784V22.9543C45.9758 23.2526 46.187 23.5387 46.563 23.7496C46.9389 23.9605 47.4488 24.079 47.9804 24.079H87.5528C88.0844 24.079 88.5943 23.9605 88.9702 23.7496C89.3462 23.5387 89.5574 23.2526 89.5574 22.9543V20.3828C89.5574 20.0845 89.7686 19.7984 90.1445 19.5875C90.5204 19.3766 91.0303 19.2581 91.5619 19.2581H132.439C132.691 19.2545 132.941 19.2793 133.175 19.331C133.408 19.3827 133.622 19.4601 133.801 19.5589C133.981 19.6576 134.123 19.7755 134.22 19.9057C134.317 20.0358 134.366 20.1756 134.365 20.3167Z" fill="#50BFD7"/>
<path fill-rule="evenodd" clip-rule="evenodd" d="M3.0545 19.4743C2.58111 19.4743 2.13827 19.5804 1.82279 19.7574C1.50271 19.937 1.38053 20.1474 1.38053 20.3167V31.1231H134.144V20.3167L134.145 20.315C134.145 20.229 134.116 20.1351 134.043 20.0374C133.969 19.9384 133.854 19.8396 133.695 19.7522C133.536 19.6651 133.344 19.5943 133.127 19.5464C132.91 19.4986 132.677 19.4754 132.442 19.4787L132.439 19.4787H91.5618C91.0592 19.4787 90.5883 19.5913 90.2522 19.7799C89.9115 19.9711 89.7777 20.1972 89.7777 20.3829V22.9544C89.7777 23.3653 89.4891 23.7113 89.078 23.942C88.6622 24.1753 88.1133 24.2997 87.5526 24.2997H47.9802C47.4195 24.2997 46.8706 24.1753 46.4549 23.942C46.0438 23.7113 45.7551 23.3653 45.7551 22.9544V20.3785C45.7551 20.1928 45.6214 19.9667 45.2806 19.7755C44.9445 19.5869 44.4737 19.4743 43.9711 19.4743H3.0545ZM1.60696 19.3728C2.00207 19.1511 2.52298 19.0332 3.0545 19.0332H43.9711C44.5318 19.0332 45.0807 19.1576 45.4965 19.3908C45.9076 19.6215 46.1962 19.9676 46.1962 20.3785V22.9544C46.1962 23.1401 46.33 23.3662 46.6707 23.5574C47.0068 23.7459 47.4777 23.8586 47.9802 23.8586H87.5526C88.0552 23.8586 88.526 23.7459 88.8621 23.5574C89.2029 23.3662 89.3367 23.1401 89.3367 22.9544V20.3829C89.3367 19.972 89.6253 19.6259 90.0364 19.3953C90.4521 19.162 91.001 19.0376 91.5618 19.0376H132.438C132.705 19.034 132.971 19.0603 133.222 19.1157C133.473 19.1712 133.706 19.2553 133.907 19.3657C134.107 19.4757 134.277 19.6128 134.397 19.7741C134.518 19.9367 134.587 20.1224 134.586 20.3185V31.3436C134.586 31.4654 134.487 31.5642 134.365 31.5642H1.15999C1.03819 31.5642 0.939453 31.4654 0.939453 31.3436V20.3167C0.939453 19.9222 1.21647 19.5919 1.60696 19.3728Z" fill="#263238"/>
<path d="M68.3758 68.813H9.77434C9.28026 68.813 8.79102 68.7157 8.33455 68.5266C7.87807 68.3375 7.46331 68.0604 7.11394 67.711C6.76457 67.3616 6.48743 66.9469 6.29836 66.4904C6.10928 66.0339 6.01196 65.5447 6.01196 65.0506V44.8361L10.4624 49.5468H68.3758C68.8698 49.5468 69.3591 49.6441 69.8155 49.8332C70.272 50.0222 70.6868 50.2994 71.0362 50.6487C71.3855 50.9981 71.6627 51.4129 71.8517 51.8693C72.0408 52.3258 72.1381 52.8151 72.1381 53.3091V65.0506C72.1381 65.5447 72.0408 66.0339 71.8517 66.4904C71.6627 66.9469 71.3855 67.3616 71.0362 67.711C70.6868 68.0604 70.272 68.3375 69.8155 68.5266C69.3591 68.7157 68.8698 68.813 68.3758 68.813Z" fill="#50BFD7"/>
<path d="M21.141 59.18C21.141 58.1332 20.8306 57.1098 20.249 56.2394C19.6674 55.369 18.8408 54.6906 17.8736 54.29C16.9064 53.8894 15.8422 53.7846 14.8155 53.9888C13.7888 54.193 12.8457 54.6971 12.1054 55.4373C11.3652 56.1776 10.8611 57.1207 10.6569 58.1474C10.4527 59.1741 10.5575 60.2384 10.9581 61.2055C11.3587 62.1727 12.0371 62.9993 12.9075 63.5809C13.7779 64.1625 14.8013 64.4729 15.8481 64.4729C17.2519 64.4729 18.5981 63.9153 19.5907 62.9227C20.5834 61.93 21.141 60.5838 21.141 59.18Z" fill="white"/>
<path fill-rule="evenodd" clip-rule="evenodd" d="M23.4038 53.5915C23.4038 53.3479 23.6013 53.1504 23.8449 53.1504H34.8056C35.0492 53.1504 35.2467 53.3479 35.2467 53.5915C35.2467 53.8351 35.0492 54.0325 34.8056 54.0325H23.8449C23.6013 54.0325 23.4038 53.8351 23.4038 53.5915Z" fill="#263238"/>
<path fill-rule="evenodd" clip-rule="evenodd" d="M23.6245 57.4112C23.6245 57.2894 23.7233 57.1907 23.845 57.1907H66.6515C66.7733 57.1907 66.872 57.2894 66.872 57.4112C66.872 57.533 66.7733 57.6318 66.6515 57.6318H23.845C23.7233 57.6318 23.6245 57.533 23.6245 57.4112Z" fill="#263238"/>
<path fill-rule="evenodd" clip-rule="evenodd" d="M23.6245 60.5649C23.6245 60.4431 23.7233 60.3444 23.845 60.3444H66.6515C66.7733 60.3444 66.872 60.4431 66.872 60.5649C66.872 60.6867 66.7733 60.7854 66.6515 60.7854H23.845C23.7233 60.7854 23.6245 60.6867 23.6245 60.5649Z" fill="#263238"/>
<path fill-rule="evenodd" clip-rule="evenodd" d="M23.6245 64.0539C23.6245 63.9321 23.7233 63.8334 23.845 63.8334H66.6515C66.7733 63.8334 66.872 63.9321 66.872 64.0539C66.872 64.1757 66.7733 64.2745 66.6515 64.2745H23.845C23.7233 64.2745 23.6245 64.1757 23.6245 64.0539Z" fill="#263238"/>
<path d="M68.376 96.614H9.77459C8.77674 96.614 7.81977 96.2177 7.11418 95.5121C6.4086 94.8065 6.01221 93.8495 6.01221 92.8517V72.6239L10.4627 77.339H68.376C69.3738 77.339 70.3308 77.7354 71.0364 78.441C71.742 79.1466 72.1384 80.1035 72.1384 81.1014V92.8428C72.1395 93.3377 72.0431 93.8279 71.8545 94.2854C71.666 94.7428 71.389 95.1586 71.0395 95.5089C70.69 95.8593 70.2749 96.1372 69.8178 96.3268C69.3608 96.5164 68.8708 96.6141 68.376 96.614Z" fill="#50BFD7"/>
<path d="M21.1413 86.981C21.1413 85.9342 20.8308 84.9109 20.2492 84.0404C19.6676 83.17 18.841 82.4916 17.8738 82.091C16.9067 81.6904 15.8425 81.5856 14.8157 81.7898C13.789 81.994 12.8459 82.4981 12.1057 83.2384C11.3655 83.9786 10.8614 84.9217 10.6571 85.9484C10.4529 86.9752 10.5577 88.0394 10.9583 89.0065C11.3589 89.9737 12.0373 90.8003 12.9078 91.3819C13.7782 91.9635 14.8015 92.2739 15.8483 92.2739C17.2521 92.2739 18.5984 91.7163 19.591 90.7237C20.5836 89.7311 21.1413 88.3848 21.1413 86.981Z" fill="white"/>
<path fill-rule="evenodd" clip-rule="evenodd" d="M23.4041 81.3925C23.4041 81.1489 23.6015 80.9514 23.8451 80.9514H34.8059C35.0495 80.9514 35.247 81.1489 35.247 81.3925C35.247 81.6361 35.0495 81.8336 34.8059 81.8336H23.8451C23.6015 81.8336 23.4041 81.6361 23.4041 81.3925Z" fill="#263238"/>
<path fill-rule="evenodd" clip-rule="evenodd" d="M23.6248 85.2122C23.6248 85.0904 23.7235 84.9917 23.8453 84.9917H66.6518C66.7736 84.9917 66.8723 85.0904 66.8723 85.2122C66.8723 85.334 66.7736 85.4328 66.6518 85.4328H23.8453C23.7235 85.4328 23.6248 85.334 23.6248 85.2122Z" fill="#263238"/>
<path fill-rule="evenodd" clip-rule="evenodd" d="M23.6248 88.3659C23.6248 88.2441 23.7235 88.1454 23.8453 88.1454H66.6518C66.7736 88.1454 66.8723 88.2441 66.8723 88.3659C66.8723 88.4877 66.7736 88.5865 66.6518 88.5865H23.8453C23.7235 88.5865 23.6248 88.4877 23.6248 88.3659Z" fill="#263238"/>
<path fill-rule="evenodd" clip-rule="evenodd" d="M23.6248 91.8548C23.6248 91.733 23.7235 91.6343 23.8453 91.6343H66.6518C66.7736 91.6343 66.8723 91.733 66.8723 91.8548C66.8723 91.9766 66.7736 92.0754 66.6518 92.0754H23.8453C23.7235 92.0754 23.6248 91.9766 23.6248 91.8548Z" fill="#263238"/>
<path d="M66.6735 119.096H125.279C126.277 119.096 127.234 118.699 127.94 117.994C128.645 117.288 129.042 116.331 129.042 115.333V95.1188L124.591 99.8339H66.6735C65.6757 99.8339 64.7187 100.23 64.0131 100.936C63.3075 101.641 62.9111 102.598 62.9111 103.596V115.333C62.9111 115.827 63.0084 116.317 63.1975 116.773C63.3866 117.23 63.6637 117.644 64.0131 117.994C64.3625 118.343 64.7772 118.62 65.2337 118.809C65.6902 118.998 66.1794 119.096 66.6735 119.096Z" fill="#808080"/>
<path d="M76.4886 113.202C78.5539 111.137 78.5539 107.789 76.4886 105.723C74.4233 103.658 71.0748 103.658 69.0096 105.723C66.9443 107.789 66.9443 111.137 69.0096 113.202C71.0748 115.268 74.4233 115.268 76.4886 113.202Z" fill="white"/>
<path fill-rule="evenodd" clip-rule="evenodd" d="M80.3027 103.874C80.3027 103.63 80.5002 103.433 80.7438 103.433H100.958C101.202 103.433 101.399 103.63 101.399 103.874C101.399 104.118 101.202 104.315 100.958 104.315H80.7438C80.5002 104.315 80.3027 104.118 80.3027 103.874Z" fill="#263238"/>
<path fill-rule="evenodd" clip-rule="evenodd" d="M80.5234 107.694C80.5234 107.572 80.6222 107.473 80.744 107.473H123.55C123.672 107.473 123.771 107.572 123.771 107.694C123.771 107.815 123.672 107.914 123.55 107.914H80.744C80.6222 107.914 80.5234 107.815 80.5234 107.694Z" fill="#263238"/>
<path fill-rule="evenodd" clip-rule="evenodd" d="M80.5234 110.852C80.5234 110.73 80.6222 110.631 80.744 110.631H123.55C123.672 110.631 123.771 110.73 123.771 110.852C123.771 110.974 123.672 111.072 123.55 111.072H80.744C80.6222 111.072 80.5234 110.974 80.5234 110.852Z" fill="#263238"/>
<path fill-rule="evenodd" clip-rule="evenodd" d="M80.5234 114.341C80.5234 114.219 80.6222 114.12 80.744 114.12H123.55C123.672 114.12 123.771 114.219 123.771 114.341C123.771 114.462 123.672 114.561 123.55 114.561H80.744C80.6222 114.561 80.5234 114.462 80.5234 114.341Z" fill="#263238"/>
<path d="M214.597 167.977C207.936 167.368 201.359 167.119 201.359 167.119C198.942 167.193 193.794 167.405 188.48 167.977C190.03 173.273 195.289 177.175 201.534 177.175C207.789 177.184 213.047 173.263 214.597 167.977Z" fill="#50BFD7"/>
<path d="M206.995 177.599C206.995 177.83 207.198 178.097 207.438 178.07C210.16 177.784 212.244 175.68 214.929 176.123C212.235 177.461 209.901 179.786 210.233 183.208C210.27 183.633 210.676 183.799 210.99 183.54C212.918 181.898 215.132 180.431 217.715 180.976C218.822 181.206 220.123 181.64 221.267 181.492C222.973 181.28 224.412 180.505 225.261 178.854C226.756 175.994 226.202 172.562 222.853 171.852C222.77 171.834 222.706 171.843 222.632 171.87C221.396 171.382 220.27 170.763 219.274 169.684C218.315 168.632 217.42 167.47 216.377 166.501C214.984 165.201 213.471 164.177 211.626 165.053C211.35 165.182 211.368 165.579 211.543 165.791C212.355 166.797 213.305 167.756 214.302 168.679C213.305 168.448 212.3 168.328 211.267 168.411C209.422 168.568 207.244 169.795 207.29 171.99C207.3 172.267 207.493 172.433 207.733 172.461C209.431 172.636 211.137 172.608 212.826 172.784C210.196 173.559 206.968 174.444 206.995 177.599Z" fill="#C4C4C4"/>
<path fill-rule="evenodd" clip-rule="evenodd" d="M214.307 164.617C215.157 164.953 215.925 165.574 216.629 166.231C217.334 166.887 217.985 167.642 218.616 168.376C218.93 168.739 219.238 169.097 219.546 169.434C220.462 170.427 221.496 171.013 222.656 171.483C222.74 171.469 222.831 171.469 222.931 171.491C224.738 171.875 225.821 173.01 226.228 174.446C226.63 175.86 226.369 177.53 225.589 179.024C224.672 180.805 223.112 181.634 221.313 181.858C220.683 181.939 220.026 181.859 219.406 181.738C219.094 181.677 218.786 181.604 218.49 181.533C218.459 181.526 218.427 181.518 218.396 181.511C218.133 181.448 217.881 181.387 217.64 181.337L217.639 181.337C215.244 180.832 213.155 182.18 211.229 183.821L211.227 183.823L211.224 183.825C210.973 184.032 210.648 184.092 210.362 183.969C210.076 183.847 209.895 183.57 209.866 183.242C209.565 180.138 211.332 177.911 213.562 176.474C212.82 176.575 212.097 176.843 211.341 177.163C211.173 177.234 211.002 177.308 210.83 177.383C209.806 177.828 208.701 178.308 207.478 178.436C207.202 178.467 206.982 178.326 206.849 178.174C206.717 178.023 206.627 177.815 206.626 177.601C206.611 175.863 207.509 174.747 208.717 173.987C209.355 173.585 210.09 173.276 210.835 173.016C210.646 173.007 210.457 172.999 210.267 172.991L210.259 172.99C209.413 172.954 208.554 172.916 207.695 172.828L207.693 172.828L207.691 172.827C207.296 172.782 206.938 172.488 206.922 172.003L206.921 172L206.921 171.998C206.895 170.76 207.502 169.802 208.342 169.145C209.175 168.494 210.251 168.127 211.235 168.043L211.236 168.043L211.237 168.043C211.889 167.991 212.527 168.016 213.156 168.096C212.478 167.429 211.834 166.739 211.257 166.024C211.109 165.843 211.034 165.6 211.047 165.37C211.06 165.132 211.177 164.856 211.469 164.719C212.492 164.234 213.438 164.274 214.307 164.617ZM211.788 165.385C211.787 165.389 211.784 165.398 211.784 165.412C211.782 165.435 211.786 165.463 211.795 165.492C211.804 165.521 211.817 165.543 211.828 165.556L211.829 165.558L211.83 165.559C212.627 166.545 213.563 167.491 214.552 168.408L215.571 169.351L214.218 169.038C213.248 168.813 212.282 168.7 211.297 168.779C210.436 168.852 209.501 169.176 208.796 169.727C208.099 170.271 207.64 171.023 207.659 171.98C207.661 172.028 207.676 172.048 207.686 172.058C207.699 172.071 207.726 172.088 207.774 172.094C208.609 172.18 209.448 172.217 210.299 172.254L210.302 172.254C211.149 172.29 212.008 172.328 212.864 172.417L214.722 172.609L212.93 173.138C212.884 173.151 212.838 173.165 212.792 173.178C211.502 173.558 210.153 173.955 209.111 174.611C208.055 175.275 207.352 176.18 207.364 177.596L207.364 177.598V177.599C207.364 177.604 207.366 177.618 207.373 177.637C207.381 177.656 207.392 177.674 207.404 177.688C207.409 177.694 207.414 177.698 207.417 177.701C208.512 177.582 209.495 177.156 210.519 176.713C210.695 176.636 210.873 176.559 211.053 176.483C212.257 175.974 213.535 175.519 214.989 175.759L216.117 175.945L215.093 176.454C212.457 177.762 210.29 179.974 210.6 183.172L210.601 183.174L210.601 183.176C210.605 183.226 210.619 183.254 210.629 183.269C210.638 183.283 210.647 183.289 210.653 183.291C210.659 183.293 210.668 183.296 210.682 183.293C210.696 183.291 210.721 183.283 210.753 183.257C212.682 181.614 215.02 180.031 217.79 180.614C218.044 180.667 218.306 180.73 218.568 180.793C218.599 180.801 218.631 180.808 218.662 180.815C218.957 180.886 219.253 180.956 219.548 181.014C220.141 181.13 220.706 181.192 221.219 181.126L221.22 181.126L221.221 181.126C222.835 180.925 224.152 180.205 224.933 178.685L224.933 178.684L224.934 178.683C225.648 177.317 225.857 175.841 225.518 174.648C225.186 173.475 224.317 172.54 222.777 172.213L222.775 172.212L222.773 172.212C222.773 172.212 222.773 172.212 222.773 172.212C222.77 172.213 222.766 172.214 222.761 172.216L222.628 172.266L222.496 172.213C221.23 171.713 220.05 171.068 219.003 169.934L219.002 169.933L219.001 169.933C218.662 169.561 218.339 169.185 218.019 168.813C217.405 168.1 216.803 167.401 216.126 166.772L216.125 166.771C215.436 166.127 214.751 165.586 214.036 165.304C213.34 165.029 212.609 164.996 211.788 165.385Z" fill="#2C2C2C"/>
<path d="M159.135 126.107L134.487 147.559L128.468 151.721L134.191 158.158H135.959L172.634 135.718L159.135 126.107Z" fill="#2C2C2C"/>
<path d="M218.771 134.42L223.389 166.766L223.608 174.084L232.117 172.778L233.081 171.305L234.181 128.317L218.771 134.42Z" fill="#2C2C2C"/>
<path d="M192.778 120.769C196.337 120.769 201.884 120.033 201.884 117.617L200.972 109.555L200.17 102.503C200.17 100.087 197.282 98.1208 193.723 98.1208C191.944 98.1208 190.329 98.6151 189.165 99.4059C188 100.197 187.275 101.295 187.275 102.503L186.496 109.566L185.738 116.332C184.705 120.418 192.778 120.769 192.778 120.769Z" fill="#2C2C2C"/>
<path d="M236.35 131.27C236.35 138.277 231.759 142.616 224.752 142.616C217.744 142.616 212.065 136.937 212.065 129.93C212.065 122.922 217.36 115.19 224.038 117.288C231.397 119.583 236.35 124.262 236.35 131.27Z" fill="white"/>
<path d="M224.752 143.055C217.513 143.055 211.626 137.168 211.626 129.93C211.626 125.273 213.834 120.528 217.107 118.122C219.282 116.53 221.72 116.09 224.169 116.859C232.297 119.407 236.779 124.526 236.779 131.259C236.79 138.42 232.056 143.055 224.752 143.055ZM221.83 117.375C220.369 117.375 218.941 117.87 217.623 118.836C214.603 121.055 212.505 125.613 212.505 129.93C212.505 136.685 217.997 142.177 224.752 142.177C228.091 142.177 230.902 141.166 232.868 139.255C234.857 137.333 235.911 134.565 235.911 131.27C235.911 124.954 231.649 120.132 223.917 117.705C223.214 117.485 222.522 117.375 221.83 117.375Z" fill="#2C2C2C"/>
<path d="M230.639 129.227C230.639 134.411 227.245 137.618 222.061 137.618C216.876 137.618 212.681 133.423 212.681 128.238C212.681 123.054 216.591 117.331 221.534 118.88C226.97 120.594 230.639 124.053 230.639 129.227Z" fill="#2C2C2C"/>
<path d="M151.215 131.27C151.215 138.277 155.807 142.616 162.814 142.616C169.822 142.616 175.5 136.937 175.5 129.93C175.5 122.922 170.206 115.19 163.528 117.288C156.169 119.583 151.215 124.262 151.215 131.27Z" fill="white"/>
<path d="M162.815 143.055C155.499 143.055 150.776 138.431 150.776 131.27C150.776 124.537 155.258 119.418 163.386 116.87C165.835 116.101 168.284 116.541 170.448 118.133C173.732 120.539 175.929 125.284 175.929 129.941C175.94 137.168 170.053 143.055 162.815 143.055ZM165.736 117.375C165.044 117.375 164.352 117.485 163.66 117.705C155.928 120.132 151.666 124.954 151.666 131.27C151.666 134.565 152.72 137.333 154.709 139.255C156.686 141.166 159.486 142.177 162.826 142.177C169.581 142.177 175.072 136.685 175.072 129.93C175.072 125.613 172.963 121.044 169.954 118.836C168.614 117.859 167.197 117.375 165.736 117.375Z" fill="#2C2C2C"/>
<path d="M156.927 129.227C156.927 134.411 160.321 137.619 165.506 137.619C170.69 137.619 174.886 133.423 174.886 128.238C174.886 123.054 170.975 117.332 166.033 118.88C160.585 120.594 156.927 124.054 156.927 129.227Z" fill="#2C2C2C"/>
<path d="M202.114 112.114H185.408C178.115 112.773 171.14 114.278 164.627 116.508L177.126 180.587C178.027 185.222 182.091 188.572 186.814 188.572H200.939C205.673 188.572 209.748 185.211 210.638 180.554L222.907 116.508C216.393 114.278 209.419 112.773 202.114 112.114Z" fill="white"/>
<path d="M200.939 189.011H186.814C181.893 189.011 177.632 185.507 176.698 180.675L164.122 116.211L164.484 116.09C171.14 113.817 178.159 112.323 185.364 111.675H185.408H202.136H202.158C209.364 112.323 216.393 113.806 223.049 116.09L223.412 116.211L211.066 180.642C210.143 185.485 205.882 189.011 200.939 189.011ZM165.132 116.793L177.555 180.499C178.411 184.914 182.311 188.122 186.814 188.122H200.939C205.453 188.122 209.353 184.903 210.198 180.466L222.39 116.793C215.91 114.607 209.078 113.18 202.081 112.543H185.43C178.433 113.18 171.602 114.607 165.132 116.793Z" fill="#2C2C2C"/>
<path d="M173.238 114.047C174.809 123.977 176.38 133.906 177.95 143.824C179.356 151.293 186.441 156.269 193.833 156.313C201.225 156.269 208.309 151.304 209.715 143.824C211.286 133.906 212.857 123.988 214.427 114.08C210.451 113.158 206.332 112.488 202.114 112.114H185.408C181.234 112.488 177.17 113.147 173.238 114.047Z" fill="#50BFD7"/>
<path d="M193.844 156.752C190.076 156.73 186.364 155.478 183.387 153.204C180.29 150.854 178.214 147.548 177.522 143.901V143.89L172.744 113.707L173.14 113.619C177.127 112.696 181.246 112.048 185.364 111.675H185.408H202.137H202.159C206.332 112.048 210.495 112.718 214.537 113.652L214.933 113.74L210.155 143.901C209.474 147.548 207.387 150.843 204.289 153.204C201.313 155.478 197.6 156.73 193.844 156.752ZM178.39 143.758C179.038 147.185 180.993 150.294 183.915 152.512C186.748 154.665 190.274 155.862 193.844 155.873C197.414 155.851 200.939 154.654 203.762 152.512C206.684 150.294 208.639 147.185 209.287 143.758L213.933 114.421C210.067 113.542 206.091 112.916 202.093 112.554H185.43C181.487 112.905 177.555 113.52 173.733 114.388L178.39 143.758Z" fill="#2C2C2C"/>
<path d="M197.797 127.151H189.362C187.121 127.151 185.298 128.974 185.298 131.215V139.65C185.298 141.891 187.121 143.714 189.362 143.714H197.797C200.038 143.714 201.861 141.891 201.861 139.65V131.215C201.861 128.974 200.049 127.151 197.797 127.151ZM183.057 123.559C181.772 123.559 180.729 124.603 180.729 125.888C180.729 127.173 181.772 128.216 183.057 128.216C184.342 128.216 185.386 127.173 185.386 125.888C185.386 124.603 184.342 123.559 183.057 123.559Z" fill="white"/>
<path d="M197.205 132.182C196.666 130.743 195.293 129.787 193.756 129.787H191.471L195.985 141.232H200.829L197.205 132.182ZM187.978 137.948L186.66 141.232H191.471L193.712 135.554H191.427C189.889 135.554 188.516 136.509 187.978 137.948ZM188.725 132.632C189.516 132.632 190.164 131.984 190.164 131.193C190.164 130.402 189.516 129.754 188.725 129.754C187.934 129.754 187.286 130.402 187.286 131.193C187.286 131.984 187.934 132.632 188.725 132.632Z" fill="#50BFD7"/>
<path d="M201.938 107.787H185.605C183.255 107.787 181.322 105.864 181.322 103.503C181.322 101.152 183.244 99.2192 185.605 99.2192H201.938C204.289 99.2192 206.222 101.141 206.222 103.503C206.211 105.864 204.289 107.787 201.938 107.787Z" fill="#50BFD7"/>
<path d="M201.939 108.226H185.606C183.003 108.226 180.883 106.106 180.883 103.503C180.883 100.9 183.003 98.7798 185.606 98.7798H201.939C204.542 98.7798 206.662 100.9 206.662 103.503C206.662 106.106 204.531 108.226 201.939 108.226ZM185.606 99.6695C183.486 99.6695 181.762 101.394 181.762 103.514C181.762 105.634 183.486 107.358 185.606 107.358H201.939C204.058 107.358 205.783 105.634 205.783 103.514C205.783 101.394 204.058 99.6695 201.939 99.6695H185.606Z" fill="#2C2C2C"/>
<path d="M194.678 20.7736H192.855V32.7239H194.678V20.7736Z" fill="#2C2C2C"/>
<path d="M201.235 35.2392H186.297C186.023 35.2392 185.803 35.0196 185.803 34.745V27.8911C185.803 27.6165 186.023 27.3969 186.297 27.3969H201.235C201.51 27.3969 201.73 27.6165 201.73 27.8911V34.7559C201.73 35.0196 201.51 35.2392 201.235 35.2392Z" fill="#50BFD7"/>
<path d="M201.235 35.6785H186.297C185.781 35.6785 185.364 35.2611 185.364 34.7449V27.891C185.364 27.3748 185.781 26.9574 186.297 26.9574H201.235C201.751 26.9574 202.169 27.3748 202.169 27.891V34.7558C202.169 35.2611 201.751 35.6785 201.235 35.6785ZM186.297 27.8251C186.264 27.8251 186.242 27.8471 186.242 27.88V34.7449C186.242 34.7778 186.264 34.7998 186.297 34.7998H201.235C201.268 34.7998 201.29 34.7778 201.29 34.7449V27.891C201.29 27.8581 201.268 27.8361 201.235 27.8361H186.297V27.8251Z" fill="#2C2C2C"/>
<path d="M196.106 19.9719C196.106 21.257 195.063 22.3004 193.778 22.3004C192.493 22.3004 191.449 21.257 191.449 19.9719C191.449 18.6868 192.493 17.6433 193.778 17.6433C195.052 17.6433 196.106 18.6868 196.106 19.9719Z" fill="#2C2C2C"/>
<path d="M195.392 19.0712C195.392 19.4667 195.073 19.7852 194.678 19.7852C194.282 19.7852 193.964 19.4667 193.964 19.0712C193.964 18.6758 194.282 18.3573 194.678 18.3573C195.073 18.3573 195.392 18.6758 195.392 19.0712Z" fill="#2C2C2C"/>
<path d="M207.43 84.2045C213.618 84.2045 218.634 79.1886 218.634 73.0011C218.634 66.8137 213.618 61.7977 207.43 61.7977C201.243 61.7977 196.227 66.8137 196.227 73.0011C196.227 79.1886 201.243 84.2045 207.43 84.2045Z" fill="#002731"/>
<path d="M193.766 93.5516C220.991 93.5516 243.061 83.6427 243.061 71.4194C243.061 59.1962 220.991 49.2872 193.766 49.2872C166.541 49.2872 144.471 59.1962 144.471 71.4194C144.471 83.6427 166.541 93.5516 193.766 93.5516Z" fill="#2C2C2C"/>
<path d="M150.227 81.81C151.106 82.5459 152.062 83.2598 153.116 83.9408C150.568 76.5927 149.459 68.4428 149.722 61.4681C148.92 62.1821 148.195 62.929 147.569 63.6869C147.591 69.4423 148.459 75.7909 150.227 81.81Z" fill="#50BFD7"/>
<path d="M239.954 63.6759C239.317 62.918 238.592 62.1711 237.79 61.4572C238.207 68.4977 236.79 76.7904 233.979 84.2374C235.066 83.5454 236.076 82.8315 236.988 82.0846C238.954 75.9337 239.987 69.4863 239.954 63.6759Z" fill="#50BFD7"/>
<path d="M203.828 103.58H183.716C167.45 103.58 154.269 90.3992 154.269 74.1323V69.662C154.269 48.7929 171.184 31.8889 192.042 31.8889H195.48C216.349 31.8889 233.253 48.8039 233.253 69.662V74.1323C233.264 90.3992 220.084 103.58 203.828 103.58Z" fill="white"/>
<path d="M203.827 104.019H183.716C175.731 104.019 168.229 100.911 162.583 95.2651C156.937 89.6195 153.829 82.1176 153.829 74.1325V69.6621C153.829 59.4582 157.805 49.8584 165.022 42.6421C172.238 35.4258 181.838 31.4497 192.041 31.4497H195.479C205.683 31.4497 215.283 35.4258 222.499 42.6421C229.716 49.8584 233.692 59.4582 233.692 69.6621V74.1325C233.692 82.1176 230.583 89.6195 224.938 95.2651C219.303 100.911 211.801 104.019 203.827 104.019ZM192.052 32.3284C182.079 32.3284 172.699 36.2166 165.648 43.2682C158.596 50.3197 154.708 59.6998 154.708 69.6731V74.1434C154.708 81.887 157.728 89.1692 163.198 94.6501C168.679 100.131 175.961 103.14 183.705 103.14H203.816C211.56 103.14 218.842 100.12 224.323 94.6501C229.804 89.1692 232.813 81.887 232.813 74.1434V69.6731C232.813 59.6998 228.925 50.3197 221.873 43.2682C214.822 36.2166 205.442 32.3284 195.468 32.3284H192.052Z" fill="#2C2C2C"/>
<path d="M185.627 86.8625C185.88 88.8396 186.847 90.6629 188.34 91.981C189.834 93.299 191.767 94.0349 193.766 94.0349C195.765 94.0349 197.688 93.31 199.192 91.981C200.686 90.6629 201.653 88.8396 201.905 86.8625H185.627Z" fill="white"/>
<path d="M193.767 94.4743C191.658 94.4743 189.637 93.7054 188.055 92.3105C186.474 90.9156 185.463 89.0044 185.2 86.9175L185.134 86.4232H202.4L202.334 86.9175C202.071 89.0044 201.049 90.9265 199.479 92.3105C197.908 93.7054 195.876 94.4743 193.767 94.4743ZM186.144 87.3019C186.474 88.9824 187.342 90.5201 188.638 91.6515C190.055 92.9036 191.878 93.5956 193.767 93.5956C195.656 93.5956 197.48 92.9036 198.896 91.6515C200.192 90.5092 201.06 88.9824 201.39 87.3019H186.144Z" fill="#2C2C2C"/>
<path d="M193.766 55.4711C205.859 55.4711 216.821 51.8245 224.861 45.9153C217.93 37.3589 207.353 31.889 195.48 31.889H192.042C180.179 31.889 169.591 37.3589 162.66 45.9153C170.711 51.8245 181.673 55.4711 193.766 55.4711Z" fill="#2C2C2C"/>
<path d="M193.766 37.4908C181.673 37.4908 170.711 41.1374 162.671 47.0467C169.602 55.603 180.179 61.0729 192.053 61.0729H195.491C207.353 61.0729 217.941 55.603 224.872 47.0467C216.821 41.1374 205.859 37.4908 193.766 37.4908Z" fill="#50BFD7"/>
<path d="M195.491 61.5231H192.053C180.465 61.5231 169.635 56.3498 162.331 47.3322L162.045 46.9697L162.419 46.6951C170.865 40.4783 182.003 37.0514 193.777 37.0514C205.541 37.0514 216.678 40.4783 225.136 46.6951L225.509 46.9697L225.224 47.3322C217.909 56.3498 207.079 61.5231 195.491 61.5231ZM163.309 47.1345C170.437 55.7237 180.882 60.6444 192.053 60.6444H195.491C206.661 60.6444 217.107 55.7237 224.235 47.1345C215.976 41.1923 205.179 37.9301 193.777 37.9301C182.354 37.9301 171.557 41.1923 163.309 47.1345Z" fill="#2C2C2C"/>
<path d="M221.236 79.5146C220.193 80.1407 219.018 80.4702 217.82 80.4702H169.723C168.526 80.4702 167.35 80.1407 166.307 79.5146C163.737 77.9769 162.276 74.8575 162.638 71.6612L162.66 71.4306C163.89 60.6116 171.985 52.2969 181.904 51.6709C186.099 51.4072 190.504 51.2645 195.095 51.2974C198.698 51.3194 202.169 51.4512 205.519 51.6599C215.481 52.2859 223.631 60.5677 224.861 71.4306C224.872 71.5075 224.883 71.5843 224.883 71.6612C225.267 74.8575 223.807 77.9769 221.236 79.5146Z" fill="white"/>
<path d="M217.81 80.9096H169.723C168.449 80.9096 167.197 80.5581 166.076 79.8881C163.331 78.2515 161.815 75.0003 162.199 71.6064L162.221 71.3757C163.473 60.3371 171.744 51.8576 181.871 51.2206C186.254 50.946 190.702 50.8252 195.095 50.8471C198.566 50.8691 202.081 50.9899 205.541 51.2096C215.734 51.8467 224.038 60.3261 225.29 71.3647L225.312 71.5954C225.696 74.9784 224.18 78.2296 221.434 79.8771C220.347 80.5581 219.084 80.9096 217.81 80.9096ZM193.788 51.7368C189.845 51.7368 185.869 51.8576 181.937 52.1103C172.238 52.7254 164.308 60.8753 163.1 71.4856L163.078 71.7162C162.726 74.7587 164.088 77.6804 166.538 79.1412C167.515 79.7234 168.625 80.0309 169.734 80.0309H217.832C218.941 80.0309 220.05 79.7234 221.028 79.1412C223.477 77.6804 224.828 74.7587 224.488 71.7162L224.466 71.4856C223.258 60.8643 215.295 52.7144 205.53 52.1103C202.081 51.8906 198.577 51.7698 195.128 51.7478C194.656 51.7368 194.228 51.7368 193.788 51.7368Z" fill="#2C2C2C"/>
<path d="M186.023 66.5428C186.023 70.6946 182.409 74.0776 177.972 74.0776C173.524 74.0776 169.921 70.7056 169.921 66.5428C169.921 62.3799 173.524 59.0079 177.972 59.0079C182.42 59.0079 186.023 62.3799 186.023 66.5428Z" fill="white"/>
<path d="M177.972 74.517C173.293 74.517 169.481 70.9363 169.481 66.5428C169.481 62.1493 173.293 58.5686 177.972 58.5686C182.651 58.5686 186.462 62.1493 186.462 66.5428C186.462 70.9363 182.662 74.517 177.972 74.517ZM177.972 59.4473C173.776 59.4473 170.36 62.6326 170.36 66.5428C170.36 70.453 173.776 73.6383 177.972 73.6383C182.168 73.6383 185.584 70.453 185.584 66.5428C185.584 62.6326 182.168 59.4473 177.972 59.4473Z" fill="#2C2C2C"/>
<path d="M174.029 66.0705C174.029 69.5084 176.259 72.2873 179.005 72.2873C181.762 72.2873 183.992 69.4975 183.992 66.0705C183.992 62.6326 181.762 59.8428 179.005 59.8428C176.259 59.8428 174.029 62.6326 174.029 66.0705Z" fill="#50BFD7"/>
<path d="M175.468 66.0704C175.468 68.5087 177.049 70.4858 179.005 70.4858C180.96 70.4858 182.541 68.5087 182.541 66.0704C182.541 63.621 180.96 61.6439 179.005 61.6439C177.049 61.6439 175.468 63.621 175.468 66.0704Z" fill="#2C2C2C"/>
<path d="M175.249 61.8856C175.249 62.5556 176.072 63.0938 177.072 63.0938C178.082 63.0938 178.895 62.5556 178.895 61.8856C178.895 61.2156 178.082 60.6774 177.072 60.6774C176.061 60.6774 175.249 61.2156 175.249 61.8856Z" fill="white"/>
<path d="M216.777 66.5428C216.777 70.6946 213.164 74.0776 208.726 74.0776C204.278 74.0776 200.675 70.7056 200.675 66.5428C200.675 62.3799 204.278 59.0079 208.726 59.0079C213.164 59.0079 216.777 62.3799 216.777 66.5428Z" fill="white"/>
<path d="M208.727 74.517C204.048 74.517 200.236 70.9363 200.236 66.5428C200.236 62.1493 204.048 58.5686 208.727 58.5686C213.406 58.5686 217.217 62.1493 217.217 66.5428C217.217 70.9363 213.406 74.517 208.727 74.517ZM208.727 59.4473C204.531 59.4473 201.115 62.6326 201.115 66.5428C201.115 70.453 204.531 73.6383 208.727 73.6383C212.923 73.6383 216.338 70.453 216.338 66.5428C216.338 62.6326 212.923 59.4473 208.727 59.4473Z" fill="#2C2C2C"/>
<path d="M204.784 66.0704C204.784 69.5083 207.013 72.2872 209.759 72.2872C212.516 72.2872 214.746 69.4973 214.746 66.0704C214.746 62.6325 212.516 59.8427 209.759 59.8427C207.013 59.8427 204.784 62.6325 204.784 66.0704Z" fill="#50BFD7"/>
<path d="M206.222 66.0704C206.222 68.5087 207.804 70.4858 209.759 70.4858C211.714 70.4858 213.296 68.5087 213.296 66.0704C213.296 63.621 211.714 61.6439 209.759 61.6439C207.804 61.6439 206.222 63.621 206.222 66.0704Z" fill="#2C2C2C"/>
<path d="M205.992 61.8856C205.992 62.5556 206.815 63.0938 207.815 63.0938C208.825 63.0938 209.638 62.5556 209.638 61.8856C209.638 61.2156 208.825 60.6774 207.815 60.6774C206.815 60.6774 205.992 61.2156 205.992 61.8856Z" fill="white"/>
<path d="M135.74 145.647L109.994 125.525L102.448 122.043L98.0327 125.174L99.867 128.974L127.425 154.182L135.74 145.647Z" fill="#2C2C2C"/>
<path d="M138.141 154.455C140.894 150.282 141.807 146.031 140.181 144.958C138.556 143.886 135.007 146.4 132.255 150.572C129.503 154.745 128.589 158.997 130.215 160.069C131.84 161.141 135.389 158.628 138.141 154.455Z" fill="white"/>
<path d="M131.094 160.75C130.665 160.75 130.292 160.64 129.962 160.432C129.018 159.806 128.721 158.367 129.149 156.39C129.545 154.544 130.511 152.392 131.873 150.327C133.235 148.262 134.828 146.526 136.377 145.439C138.035 144.264 139.463 143.967 140.419 144.593C141.363 145.219 141.66 146.658 141.231 148.635C140.836 150.48 139.87 152.633 138.508 154.698C137.146 156.763 135.553 158.498 134.004 159.586C132.917 160.355 131.917 160.75 131.094 160.75ZM130.456 159.696C131.072 160.102 132.181 159.795 133.51 158.861C134.96 157.828 136.487 156.181 137.783 154.204C139.09 152.227 140.012 150.184 140.386 148.437C140.726 146.856 140.561 145.713 139.946 145.307C139.331 144.901 138.222 145.208 136.893 146.142C135.443 147.174 133.916 148.822 132.62 150.799C131.324 152.776 130.391 154.819 130.017 156.565C129.677 158.158 129.83 159.289 130.456 159.696Z" fill="#2C2C2C"/>
<path d="M134.091 152.482C137.712 149.054 139.56 145.125 138.217 143.706C136.874 142.288 132.85 143.916 129.228 147.344C125.607 150.772 123.759 154.7 125.102 156.119C126.445 157.538 130.469 155.909 134.091 152.482Z" fill="white"/>
<path d="M126.524 157.07C126.469 157.07 126.404 157.07 126.349 157.07C125.657 157.037 125.107 156.807 124.734 156.378C123.987 155.522 124.064 154.05 124.954 152.205C125.777 150.491 127.227 148.613 129.029 146.932C131.84 144.296 134.96 142.66 136.981 142.759C137.673 142.792 138.222 143.022 138.595 143.451C139.342 144.307 139.265 145.779 138.376 147.624C137.552 149.338 136.102 151.216 134.301 152.897C131.555 155.456 128.534 157.07 126.524 157.07ZM136.794 143.626C135.026 143.626 132.17 145.186 129.633 147.57C127.908 149.184 126.535 150.963 125.745 152.578C125.031 154.061 124.91 155.225 125.404 155.785C125.613 156.027 125.953 156.159 126.404 156.181C126.447 156.181 126.491 156.181 126.546 156.181C128.315 156.181 131.17 154.621 133.708 152.238C135.432 150.623 136.805 148.844 137.596 147.229C138.31 145.746 138.431 144.582 137.936 144.022C137.728 143.78 137.387 143.648 136.937 143.626C136.882 143.637 136.838 143.626 136.794 143.626Z" fill="#2C2C2C"/>
<path d="M92.6393 119.21L96.231 115.343C96.5935 114.948 97.2085 114.926 97.593 115.288L113.377 127.019C115.332 128.831 115.442 131.885 113.629 133.829L112.234 135.334C110.422 137.289 107.368 137.399 105.424 135.586L92.6942 120.572C92.2988 120.209 92.2768 119.605 92.6393 119.21Z" fill="white"/>
<path d="M108.698 137.322C107.413 137.322 106.127 136.86 105.117 135.916L105.084 135.883L92.3758 120.879C92.1122 120.626 91.9584 120.286 91.9474 119.924C91.9364 119.55 92.0682 119.188 92.3209 118.913L95.9125 115.047C96.4288 114.487 97.3075 114.443 97.8786 114.959L113.662 126.69L113.684 126.7C115.815 128.678 115.936 132.006 113.959 134.136L112.564 135.641C111.52 136.751 110.114 137.322 108.698 137.322ZM105.743 135.29C107.511 136.915 110.279 136.806 111.916 135.048L113.311 133.543C114.947 131.775 114.848 129.007 113.102 127.37L97.3185 115.629L97.2965 115.618C97.0878 115.42 96.7473 115.431 96.5496 115.651L92.9689 119.506L92.6504 119.21L92.9689 119.506C92.87 119.605 92.8261 119.748 92.8261 119.88C92.8261 120.022 92.892 120.154 92.9909 120.242L93.0238 120.275L105.743 135.29Z" fill="#2C2C2C"/>
<path d="M101.152 123.647C102.305 122.406 102.898 120.846 102.942 119.276L97.593 115.299C97.1976 114.937 96.5935 114.959 96.231 115.354L92.6393 119.21C92.2768 119.605 92.2988 120.209 92.6942 120.572L97.0767 125.734C98.5815 125.547 100.031 124.844 101.152 123.647Z" fill="#50BFD7"/>
<path d="M96.8901 126.206L92.3758 120.879C92.1122 120.627 91.9584 120.286 91.9474 119.924C91.9364 119.55 92.0682 119.188 92.3209 118.913L95.9125 115.047C96.1652 114.772 96.5166 114.619 96.8901 114.597C97.2526 114.586 97.604 114.706 97.8786 114.948L103.392 119.045L103.381 119.276C103.327 121.011 102.646 122.67 101.47 123.933C100.328 125.174 98.7903 125.965 97.1317 126.173L96.8901 126.206ZM96.945 115.475C96.934 115.475 96.934 115.475 96.923 115.475C96.7803 115.475 96.6484 115.541 96.5606 115.64L92.9689 119.506C92.87 119.605 92.8261 119.748 92.8261 119.88C92.8261 120.023 92.892 120.154 92.9909 120.242L93.0238 120.275L97.2416 125.251C98.6145 125.02 99.8777 124.35 100.822 123.329C101.811 122.263 102.393 120.901 102.492 119.462L97.3075 115.618L97.2855 115.607C97.1976 115.53 97.0768 115.475 96.945 115.475Z" fill="#2C2C2C"/>
<path d="M92.6613 121.352C92.6613 121.352 96.2091 122.571 98.7134 118.617C101.229 114.663 97.0109 112.389 96.4727 109.995C95.9345 107.6 94.8801 104.569 93.8036 104.81C92.7272 105.052 92.5186 109.753 92.8151 111.071C93.1117 112.389 87.2683 109.61 85.7306 108.633C84.1929 107.655 82.5673 101.79 81.2493 102.086C79.9312 102.383 81.7984 111.016 82.0511 112.158C82.3037 113.29 91.1895 120.418 92.6613 121.352Z" fill="white"/>
<path d="M93.9464 121.967C93.1117 121.967 92.5405 121.78 92.5076 121.769L92.4636 121.747L92.4197 121.714C91.6179 121.209 88.9049 119.078 86.6093 117.156C81.8094 113.136 81.6666 112.488 81.6117 112.235C81.5019 111.763 80.9637 109.269 80.6122 106.853C79.9971 102.514 80.5024 101.789 81.1394 101.647C82.1939 101.416 82.9737 103.02 83.9732 105.052C84.6213 106.37 85.3462 107.863 85.9503 108.248C86.5654 108.632 88.0152 109.39 89.4871 110.027C91.2884 110.807 92.0463 110.95 92.3318 110.961C92.2 110.159 92.2 108.72 92.3428 107.468C92.6614 104.59 93.4412 104.415 93.6938 104.36C94.7812 104.118 95.4952 105.7 95.7258 106.216C96.1542 107.16 96.5716 108.489 96.8901 109.884C97.0439 110.565 97.5711 111.29 98.1312 112.048C99.3834 113.762 100.943 115.893 99.0758 118.825C97.6919 121.011 95.9894 121.692 94.8032 121.879C94.5066 121.945 94.2101 121.967 93.9464 121.967ZM92.8481 120.945C93.2655 121.066 96.1761 121.78 98.3399 118.375C99.8777 115.947 98.6365 114.234 97.4283 112.586C96.8132 111.741 96.2311 110.95 96.0443 110.093C95.7478 108.764 95.3414 107.479 94.946 106.6C94.4297 105.458 94.0343 105.216 93.9025 105.238C93.7927 105.282 93.4192 105.831 93.2215 107.666C93.0787 109.039 93.1227 110.434 93.2435 110.972C93.3094 111.268 93.2105 111.543 92.9909 111.708C92.7712 111.861 92.2989 112.191 89.3113 110.917C87.7297 110.236 86.159 109.423 85.489 108.995C84.6762 108.479 83.9513 107.007 83.1934 105.447C82.776 104.601 82.3806 103.788 82.0071 103.217C81.6447 102.668 81.447 102.547 81.3701 102.525C81.2712 102.679 81.0076 103.481 81.5458 107.084C81.8863 109.368 82.3916 111.642 82.4794 112.07C82.5014 112.136 82.8529 112.883 87.2574 116.574C89.6848 118.584 92.1012 120.462 92.8481 120.945Z" fill="#2C2C2C"/>
<path d="M152.623 150.758H238.43C239.457 150.758 240.441 151.165 241.167 151.891C241.893 152.617 242.301 153.602 242.301 154.628V202.835H148.752V154.628C148.752 153.602 149.16 152.617 149.886 151.891C150.612 151.165 151.597 150.758 152.623 150.758Z" fill="white"/>
<path fill-rule="evenodd" clip-rule="evenodd" d="M152.624 151.251C151.728 151.251 150.869 151.607 150.236 152.24C149.602 152.874 149.246 153.733 149.246 154.629V202.342H241.808V154.629C241.808 153.733 241.452 152.874 240.819 152.24C240.186 151.607 239.326 151.251 238.431 151.251H152.624ZM149.538 151.543C150.356 150.724 151.466 150.264 152.624 150.264H238.431C239.588 150.264 240.698 150.724 241.517 151.543C242.335 152.361 242.795 153.471 242.795 154.629V202.835C242.795 203.107 242.574 203.328 242.302 203.328H148.753C148.481 203.328 148.26 203.107 148.26 202.835V154.629C148.26 153.471 148.72 152.361 149.538 151.543Z" fill="#2C2C2C"/>
<path d="M242.301 168.083C230.549 171.063 218.488 178.65 196.014 189.333C174.338 199.645 156.595 199.467 148.752 198.67V202.835H242.301V168.083Z" fill="#2C2C2C"/>
<path fill-rule="evenodd" clip-rule="evenodd" d="M242.604 167.694C242.725 167.787 242.795 167.931 242.795 168.083V202.835C242.795 203.107 242.574 203.328 242.302 203.328H148.753C148.481 203.328 148.26 203.107 148.26 202.835V198.67C148.26 198.53 148.319 198.397 148.422 198.304C148.526 198.21 148.664 198.165 148.803 198.179C156.578 198.969 174.227 199.152 195.803 188.888L195.803 188.888C203.205 185.369 209.468 182.191 214.971 179.399C217.82 177.953 220.466 176.61 222.96 175.377C230.258 171.771 236.251 169.109 242.18 167.605C242.328 167.567 242.484 167.6 242.604 167.694ZM196.227 189.779C174.936 199.907 157.409 199.967 149.246 199.213V202.341H241.808V168.721C236.183 170.223 230.431 172.786 223.398 176.262C220.92 177.486 218.282 178.825 215.437 180.269C209.927 183.065 203.638 186.256 196.227 189.779Z" fill="#2C2C2C"/>
<path d="M242.301 199.948H148.752V202.843H242.301V199.948Z" fill="white"/>
<path fill-rule="evenodd" clip-rule="evenodd" d="M148.26 199.947C148.26 199.675 148.481 199.454 148.753 199.454H242.302C242.574 199.454 242.795 199.675 242.795 199.947V202.843C242.795 203.115 242.574 203.336 242.302 203.336H148.753C148.481 203.336 148.26 203.115 148.26 202.843V199.947ZM149.246 200.441V202.349H241.808V200.441H149.246Z" fill="#2C2C2C"/>
</svg>
