<svg width="224" height="164" viewBox="0 0 224 164" fill="none" xmlns="http://www.w3.org/2000/svg">
<path d="M171.458 47.6819C171.458 47.6819 165.042 22.8311 126.196 7.15885C87.3507 -8.51339 52.5977 6.00189 44.6749 24.3664C36.7521 42.7308 45.0553 52.6476 39.7683 68.3309C34.4814 84.0141 7.32031 103.877 18.2821 127.964C29.2439 152.051 80.5385 158.93 122.047 153.961C163.555 148.991 195.984 93.9383 171.458 47.6819Z" fill="#50BFD7"/>
<path opacity="0.7" d="M171.458 47.6819C171.458 47.6819 165.042 22.8311 126.196 7.15885C87.3507 -8.51339 52.5977 6.00189 44.6749 24.3664C36.7521 42.7308 45.0553 52.6476 39.7683 68.3309C34.4814 84.0141 7.32031 103.877 18.2821 127.964C29.2439 152.051 80.5385 158.93 122.047 153.961C163.555 148.991 195.984 93.9383 171.458 47.6819Z" fill="white"/>
<path d="M223.57 112.504C223.57 111.797 223.536 72.8958 223.485 12.8746L223.57 12.948H105.065L105.166 12.8475C105.166 48.9522 105.166 83.0056 105.166 112.477L105.073 112.389L223.59 112.477L105.073 112.566H104.973V112.477C104.973 83.0056 104.973 48.9522 104.973 12.8475V12.7471H105.085H223.59H223.675V12.8321C223.621 72.8958 223.57 111.797 223.57 112.504Z" fill="#FAFAFA"/>
<path d="M223.585 12.875H105.068V112.505H223.585V12.875Z" fill="#FAFAFA"/>
<path d="M147.858 19.7539H105.302V29.5083H147.858V19.7539Z" fill="#EBEBEB"/>
<path d="M116.033 27.6281C116.033 27.6281 116.033 27.5006 116.033 27.2688C116.033 27.037 116.033 26.6932 116.033 26.2876C116.033 25.4222 116.01 24.2247 115.99 22.7799L116.071 22.861H109.014L109.114 22.7606V25.2754C109.114 26.0867 109.114 26.8632 109.114 27.5933L109.021 27.5006L114.086 27.547L115.546 27.574H115.932H116.075C115.91 27.5924 115.743 27.6001 115.577 27.5972L114.136 27.6204L109.014 27.6667H108.925V27.6281C108.925 26.8902 108.925 26.1137 108.925 25.3102V24.0663C108.925 23.8577 108.925 23.6452 108.925 23.4327V22.7721C108.836 22.861 109.048 22.6485 109.029 22.6717H116.087H116.168V22.7528C116.168 24.2208 116.137 25.4338 116.126 26.3108C116.126 26.6971 116.126 27.0293 116.126 27.2765C116.106 27.3964 116.075 27.5142 116.033 27.6281Z" fill="#263238"/>
<path d="M116.033 22.7636C116.033 22.7636 115.952 22.8757 115.782 23.0495C115.612 23.2233 115.361 23.4667 115.048 23.768C114.422 24.3707 113.545 25.1935 112.572 26.0859C112.297 26.0859 112.494 26.0859 112.433 26.0859H112.409L112.363 26.0434L112.274 25.9584L112.093 25.7923L111.745 25.4678L111.084 24.8536L109.96 23.7642C109.647 23.4629 109.396 23.2195 109.222 23.0456C109.126 22.962 109.042 22.8658 108.971 22.7598C108.971 22.7598 109.091 22.8293 109.276 22.9877C109.462 23.1461 109.728 23.374 110.049 23.6599L111.185 24.6797L111.849 25.2862L112.201 25.6069L112.382 25.773L112.471 25.858L112.518 25.8966L112.541 25.9198H112.417C113.391 25.0236 114.279 24.2162 114.932 23.6406C115.256 23.3547 115.523 23.1229 115.705 22.9684C115.804 22.8847 115.914 22.8157 116.033 22.7636Z" fill="#263238"/>
<path d="M111.323 24.9238C111.009 25.4362 110.639 25.9118 110.218 26.3416C109.85 26.8165 109.429 27.248 108.963 27.628C109.278 27.1173 109.648 26.6431 110.068 26.2141C110.437 25.7386 110.858 25.3059 111.323 24.9238Z" fill="#263238"/>
<path d="M116.078 27.6704C115.623 27.2647 115.214 26.81 114.858 26.3144C114.449 25.8589 114.092 25.3602 113.792 24.8271C114.248 25.2336 114.657 25.6897 115.012 26.187C115.421 26.6408 115.779 27.1382 116.078 27.6704Z" fill="#263238"/>
<path d="M142.969 24.4608C142.969 24.5187 137.986 24.5612 131.844 24.5612C125.701 24.5612 120.722 24.5187 120.722 24.4608C120.722 24.4028 125.701 24.3604 131.844 24.3604C137.986 24.3604 142.969 24.4067 142.969 24.4608Z" fill="#263238"/>
<path d="M223.587 63.083H147.317V79.7949H223.587V63.083Z" fill="#50BFD7"/>
<g opacity="0.8">
<path opacity="0.8" d="M223.585 63.084H147.316V79.7958H223.585V63.084Z" fill="white"/>
</g>
<path d="M157.616 68.3066H153.092C152.612 68.3066 152.223 68.6958 152.223 69.1758V73.6996C152.223 74.1796 152.612 74.5688 153.092 74.5688H157.616C158.096 74.5688 158.485 74.1796 158.485 73.6996V69.1758C158.485 68.6958 158.096 68.3066 157.616 68.3066Z" fill="#50BFD7"/>
<path d="M154.88 72.8254C154.796 72.8254 154.715 72.7983 154.648 72.7481L153.385 71.7978C153.339 71.7695 153.3 71.7319 153.27 71.6876C153.24 71.6433 153.219 71.5932 153.209 71.5404C153.199 71.4877 153.201 71.4335 153.213 71.3813C153.225 71.3291 153.248 71.28 153.281 71.2372C153.313 71.1944 153.354 71.1588 153.401 71.1326C153.447 71.1065 153.499 71.0904 153.553 71.0853C153.606 71.0803 153.66 71.0864 153.711 71.1033C153.762 71.1202 153.809 71.1476 153.848 71.1836L154.833 71.9214L156.811 69.7735C156.881 69.6982 156.978 69.6537 157.08 69.6497C157.183 69.6457 157.283 69.6826 157.358 69.7523C157.433 69.822 157.478 69.9187 157.482 70.0212C157.486 70.1237 157.449 70.2236 157.379 70.2989L155.166 72.7018C155.129 72.7411 155.085 72.7724 155.036 72.7937C154.986 72.815 154.933 72.8258 154.88 72.8254Z" fill="white"/>
<path d="M223.587 46.2861H147.317V62.998H223.587V46.2861Z" fill="#50BFD7"/>
<path d="M223.126 63.0604C223.126 63.1183 206.275 63.1608 185.491 63.1608C164.708 63.1608 147.857 63.1183 147.857 63.0604C147.857 63.0025 164.704 62.96 185.491 62.96C206.279 62.96 223.126 63.0063 223.126 63.0604Z" fill="#263238"/>
<path d="M223.628 96.4922H147.359V112.505H223.628V96.4922Z" fill="#50BFD7"/>
<g opacity="0.8">
<path opacity="0.8" d="M223.628 96.4922H147.358V112.505H223.628V96.4922Z" fill="white"/>
</g>
<path d="M157.654 101.719H153.13C152.65 101.719 152.261 102.108 152.261 102.588V107.112C152.261 107.592 152.65 107.981 153.13 107.981H157.654C158.134 107.981 158.523 107.592 158.523 107.112V102.588C158.523 102.108 158.134 101.719 157.654 101.719Z" fill="#50BFD7"/>
<path d="M154.919 106.242C154.835 106.242 154.754 106.215 154.687 106.164L153.424 105.214C153.342 105.153 153.287 105.061 153.273 104.96C153.258 104.858 153.285 104.755 153.346 104.673C153.408 104.591 153.499 104.537 153.601 104.523C153.702 104.508 153.805 104.534 153.887 104.596L154.872 105.338L156.85 103.19C156.883 103.149 156.925 103.115 156.971 103.09C157.018 103.066 157.069 103.051 157.122 103.047C157.175 103.043 157.228 103.05 157.278 103.067C157.328 103.085 157.373 103.112 157.412 103.148C157.451 103.183 157.482 103.227 157.504 103.275C157.525 103.323 157.537 103.375 157.537 103.428C157.538 103.481 157.527 103.533 157.507 103.582C157.486 103.631 157.456 103.675 157.418 103.711L155.193 106.118C155.158 106.156 155.115 106.186 155.068 106.208C155.021 106.229 154.97 106.24 154.919 106.242Z" fill="white"/>
<g opacity="0.8">
<path opacity="0.8" d="M223.585 46.2861H147.316V62.998H223.585V46.2861Z" fill="white"/>
</g>
<path d="M157.616 51.5107H153.092C152.612 51.5107 152.223 51.8999 152.223 52.3799V56.9037C152.223 57.3837 152.612 57.7729 153.092 57.7729H157.616C158.096 57.7729 158.485 57.3837 158.485 56.9037V52.3799C158.485 51.8999 158.096 51.5107 157.616 51.5107Z" fill="#50BFD7"/>
<path d="M154.88 56.0327C154.796 56.0327 154.715 56.0056 154.648 55.9555L153.385 55.0051C153.339 54.9768 153.3 54.9392 153.27 54.8949C153.24 54.8506 153.219 54.8005 153.209 54.7478C153.199 54.695 153.201 54.6408 153.213 54.5886C153.225 54.5364 153.248 54.4873 153.281 54.4445C153.313 54.4017 153.354 54.3661 153.401 54.3399C153.447 54.3138 153.499 54.2977 153.553 54.2926C153.606 54.2876 153.66 54.2937 153.711 54.3106C153.762 54.3276 153.809 54.3549 153.848 54.3909L154.833 55.1288L156.811 52.9809C156.881 52.9058 156.977 52.8611 157.079 52.8568C157.181 52.8525 157.281 52.8887 157.356 52.9577C157.394 52.992 157.424 53.0335 157.446 53.0798C157.468 53.126 157.48 53.1761 157.482 53.2271C157.484 53.2781 157.476 53.3291 157.459 53.377C157.441 53.4249 157.414 53.4688 157.379 53.5063L155.166 55.9091C155.129 55.9484 155.085 55.9797 155.036 56.001C154.986 56.0223 154.933 56.0331 154.88 56.0327Z" fill="white"/>
<path d="M223.57 112.504C223.57 111.797 223.536 72.8958 223.485 12.8746L223.57 12.948H105.065L105.166 12.8475C105.166 48.9522 105.166 83.0056 105.166 112.477L105.073 112.389L223.59 112.477L105.073 112.566H104.973V112.477C104.973 83.0056 104.973 48.9522 104.973 12.8475V12.7471H105.085H223.59H223.675V12.8321C223.621 72.8958 223.57 111.797 223.57 112.504Z" fill="#50BFD7"/>
<path d="M105.302 19.7538C105.302 19.6958 131.729 19.6533 164.326 19.6533C196.923 19.6533 223.359 19.6958 223.359 19.7538C223.359 19.8117 196.935 19.8542 164.326 19.8542C131.718 19.8542 105.302 19.8078 105.302 19.7538Z" fill="#50BFD7"/>
<path d="M108.909 17.4532C109.609 17.4532 110.176 16.8858 110.176 16.186C110.176 15.4862 109.609 14.9189 108.909 14.9189C108.209 14.9189 107.642 15.4862 107.642 16.186C107.642 16.8858 108.209 17.4532 108.909 17.4532Z" fill="#50BFD7"/>
<path d="M112.432 17.4532C113.132 17.4532 113.699 16.8858 113.699 16.186C113.699 15.4862 113.132 14.9189 112.432 14.9189C111.732 14.9189 111.165 15.4862 111.165 16.186C111.165 16.8858 111.732 17.4532 112.432 17.4532Z" fill="#50BFD7"/>
<path d="M117.239 15.2894C117.416 15.4666 117.536 15.6924 117.585 15.9382C117.634 16.1839 117.609 16.4387 117.513 16.6701C117.417 16.9016 117.255 17.0995 117.046 17.2387C116.838 17.3779 116.593 17.4522 116.342 17.4522C116.092 17.4522 115.847 17.3779 115.638 17.2387C115.43 17.0995 115.268 16.9016 115.172 16.6701C115.076 16.4387 115.051 16.1839 115.099 15.9382C115.148 15.6924 115.269 15.4666 115.446 15.2894C115.564 15.1716 115.703 15.0782 115.857 15.0145C116.011 14.9508 116.176 14.918 116.342 14.918C116.509 14.918 116.674 14.9508 116.827 15.0145C116.981 15.0782 117.121 15.1716 117.239 15.2894Z" fill="#50BFD7"/>
<path d="M120.812 33.4222C120.903 33.4109 120.995 33.4109 121.086 33.4222L121.889 33.399L124.833 33.3604H124.872L124.895 33.3913L126.193 35.0988L126.212 35.1258V35.1567C126.212 35.9293 126.212 36.7869 126.212 37.6755V37.7759H124.93H119.629H119.544V37.6716C119.544 36.7985 119.544 36.022 119.568 35.3537L120.472 33.936C120.573 33.757 120.686 33.5853 120.812 33.4222C120.795 33.4739 120.771 33.5232 120.742 33.569L120.522 33.9553L119.687 35.3808V35.346C119.687 36.0027 119.687 36.7792 119.707 37.6639L119.622 37.5789H124.922H126.108L126.007 37.6793C126.007 36.7908 126.007 35.9409 126.007 35.1606L126.027 35.2146L124.752 33.4956L124.818 33.5265L121.905 33.4878H121.094C120.998 33.4744 120.903 33.4524 120.812 33.4222Z" fill="#263238"/>
<path d="M126.123 35.2684C125.94 35.3176 125.752 35.3435 125.562 35.3457C125.207 35.3766 124.697 35.4113 124.091 35.45L124.172 35.365C124.157 35.6878 124.051 35.9999 123.867 36.2651C123.766 36.4108 123.634 36.5322 123.48 36.6205C123.31 36.699 123.126 36.7424 122.939 36.748C122.74 36.7562 122.542 36.7203 122.358 36.6428C122.174 36.5654 122.01 36.4482 121.877 36.2999C121.655 36.0346 121.506 35.7165 121.444 35.3766L121.529 35.4461C120.965 35.4461 120.494 35.4268 120.166 35.4113C119.993 35.4147 119.82 35.3952 119.652 35.3534C119.821 35.3169 119.993 35.3014 120.166 35.307C120.494 35.307 120.965 35.28 121.529 35.2684H121.583V35.3418C121.649 35.644 121.788 35.9254 121.989 36.1608C122.103 36.2885 122.244 36.3894 122.402 36.4562C122.559 36.523 122.73 36.554 122.901 36.5471C123.059 36.5465 123.214 36.5109 123.357 36.4428C123.491 36.3735 123.607 36.2744 123.697 36.1531C123.861 35.9192 123.959 35.6458 123.982 35.3611V35.28H124.056C124.666 35.2607 125.176 35.2491 125.535 35.2452C125.731 35.228 125.929 35.2358 126.123 35.2684Z" fill="#263238"/>
<path d="M140.645 33.6346C140.753 33.6103 140.863 33.5999 140.973 33.6037V33.6655C140.201 33.7042 137.81 33.7351 135.005 33.7351C133.266 33.7351 131.69 33.7351 130.551 33.7042L129.202 33.6733C129.037 33.6788 128.871 33.6659 128.708 33.6346C128.871 33.6034 129.037 33.5904 129.202 33.596L130.551 33.5651C131.69 33.5458 133.255 33.5342 135.005 33.5342C137.81 33.5342 140.185 33.5651 140.973 33.6037V33.6655C140.863 33.6719 140.752 33.6615 140.645 33.6346Z" fill="#263238"/>
<path d="M140.645 36.1659C140.752 36.139 140.863 36.1286 140.973 36.135V36.1968C140.201 36.2354 137.81 36.2663 135.005 36.2663C133.266 36.2663 131.69 36.2663 130.551 36.2354L129.202 36.2045C129.037 36.2076 128.871 36.1946 128.708 36.1659C128.871 36.1343 129.037 36.12 129.202 36.1234L130.551 36.0925C131.69 36.0925 133.255 36.0654 135.005 36.0654C137.81 36.0654 140.185 36.0925 140.973 36.135V36.1968C140.863 36.198 140.753 36.1877 140.645 36.1659Z" fill="#263238"/>
<path d="M140.645 38.6913C140.753 38.667 140.863 38.6566 140.973 38.6604V38.7222C140.201 38.7647 137.81 38.7917 135.005 38.7917C133.266 38.7917 131.69 38.7917 130.551 38.7647L129.202 38.7299C129.037 38.7355 128.871 38.7225 128.708 38.6913C128.871 38.6625 129.037 38.6495 129.202 38.6526L130.551 38.6217C131.69 38.6024 133.255 38.5908 135.005 38.5908C137.81 38.5908 140.185 38.6217 140.973 38.6604V38.7222C140.863 38.7285 140.752 38.7181 140.645 38.6913Z" fill="#263238"/>
<path d="M120.812 51.5294C120.902 51.5113 120.994 51.5035 121.086 51.5062L121.889 51.4869L124.833 51.4482H124.872L124.895 51.4791L126.193 53.1866L126.212 53.2137V53.2446C126.212 54.0172 126.212 54.8748 126.212 55.7633V55.8638H124.93H119.629H119.544V55.7788C119.544 54.9057 119.544 54.1292 119.568 53.4609V53.4416L120.472 52.0238C120.57 51.8572 120.68 51.6971 120.8 51.5448C120.783 51.5965 120.76 51.6459 120.73 51.6916L120.51 52.0779L119.691 53.5111V53.4764C119.691 54.1331 119.691 54.9096 119.711 55.7943L119.626 55.7093H124.926H126.112L126.011 55.8097C126.011 54.9212 126.011 54.0713 126.011 53.2909L126.031 53.345L124.756 51.6259L124.821 51.6568L121.909 51.6182H121.097C121 51.5975 120.904 51.5677 120.812 51.5294Z" fill="#263238"/>
<path d="M126.123 53.3641C125.94 53.4133 125.752 53.4393 125.562 53.4414C125.207 53.4723 124.697 53.5071 124.091 53.5457L124.172 53.4607C124.157 53.7835 124.051 54.0956 123.867 54.3608C123.766 54.5065 123.634 54.6279 123.48 54.7162C123.31 54.7948 123.126 54.8381 122.939 54.8437C122.74 54.8519 122.542 54.816 122.358 54.7385C122.174 54.6611 122.01 54.544 121.877 54.3956C121.655 54.1303 121.506 53.8122 121.444 53.4723L121.529 53.5418C120.965 53.5418 120.494 53.5225 120.166 53.5071C119.993 53.513 119.82 53.4961 119.652 53.4568C119.821 53.42 119.993 53.4031 120.166 53.4066L121.529 53.3718H121.583V53.4452C121.649 53.7475 121.788 54.0288 121.989 54.2642C122.103 54.392 122.244 54.4929 122.402 54.5596C122.559 54.6264 122.73 54.6575 122.901 54.6505C123.059 54.6499 123.214 54.6143 123.357 54.5462C123.491 54.477 123.607 54.3778 123.697 54.2565C123.861 54.0226 123.959 53.7493 123.982 53.4646V53.3834H124.056C124.666 53.3834 125.176 53.3525 125.535 53.3487C125.731 53.3289 125.928 53.3341 126.123 53.3641Z" fill="#263238"/>
<path d="M140.645 51.7293C140.753 51.705 140.863 51.6947 140.973 51.6984V51.7603C140.201 51.7989 137.81 51.8298 135.005 51.8298C133.266 51.8298 131.69 51.8298 130.551 51.7989L129.202 51.768C129.037 51.7735 128.871 51.7606 128.708 51.7293C128.871 51.6981 129.037 51.6852 129.202 51.6907L130.551 51.6598C131.69 51.6405 133.255 51.6289 135.005 51.6289C137.81 51.6289 140.185 51.6598 140.973 51.6984V51.7603C140.863 51.764 140.753 51.7537 140.645 51.7293Z" fill="#263238"/>
<path d="M140.645 54.2595C140.752 54.2327 140.863 54.2223 140.973 54.2286V54.2827C140.201 54.3213 137.81 54.3522 135.005 54.3522C133.266 54.3522 131.69 54.3523 130.551 54.3213L129.202 54.2904C129.037 54.2935 128.871 54.2806 128.708 54.2518C128.871 54.2202 129.037 54.2059 129.202 54.2093L130.551 54.1784C131.69 54.1591 133.255 54.1514 135.005 54.1514C137.81 54.1514 140.185 54.1784 140.973 54.2209V54.2827C140.863 54.2865 140.753 54.2787 140.645 54.2595Z" fill="#263238"/>
<path d="M140.645 56.787C140.753 56.7627 140.863 56.7523 140.973 56.7561V56.8179C140.201 56.8604 137.81 56.8874 135.005 56.8874C133.266 56.8874 131.69 56.8874 130.551 56.8604L129.202 56.8256C129.037 56.8312 128.871 56.8182 128.708 56.787C128.871 56.7582 129.037 56.7453 129.202 56.7483L130.551 56.7174C131.69 56.6981 133.255 56.6865 135.005 56.6865C137.81 56.6865 140.185 56.7174 140.973 56.7561V56.8179C140.863 56.8242 140.752 56.8138 140.645 56.787Z" fill="#263238"/>
<path d="M120.812 69.6241C120.902 69.606 120.994 69.5982 121.086 69.6009L121.889 69.5816L124.833 69.543H124.872L124.895 69.5739L126.193 71.2814L126.212 71.3084V71.3393C126.212 72.1119 126.212 72.9696 126.212 73.8581V73.9585H124.93H119.629H119.544V73.8735C119.544 73.0005 119.544 72.224 119.568 71.5557L120.472 70.1379C120.57 69.9712 120.68 69.8112 120.8 69.6589C120.783 69.7106 120.76 69.7599 120.73 69.8057L120.51 70.192L119.676 71.6175V71.5827C119.676 72.2394 119.676 73.0159 119.695 73.9006L119.61 73.8156H124.91H126.096L125.996 73.916C125.996 73.0275 125.996 72.1776 125.996 71.3973L126.015 71.4514L124.74 69.7323L124.806 69.7632L121.893 69.7245H121.082C120.989 69.6992 120.899 69.6656 120.812 69.6241Z" fill="#263238"/>
<path d="M126.123 71.4588C125.94 71.508 125.752 71.534 125.562 71.5361C125.207 71.567 124.697 71.6018 124.091 71.6404L124.172 71.5554C124.157 71.8783 124.051 72.1903 123.867 72.4555C123.766 72.6012 123.634 72.7226 123.48 72.8109C123.311 72.8901 123.126 72.9322 122.939 72.9346C122.74 72.9444 122.542 72.9096 122.358 72.8327C122.174 72.7558 122.01 72.6388 121.877 72.4903C121.655 72.2251 121.506 71.907 121.444 71.567L121.529 71.6365C120.965 71.6365 120.494 71.6365 120.166 71.6018C119.993 71.6077 119.82 71.5908 119.652 71.5516C119.821 71.5147 119.993 71.4979 120.166 71.5013L121.529 71.4666H121.583V71.54C121.649 71.8422 121.788 72.1235 121.989 72.3589C122.103 72.4867 122.244 72.5876 122.402 72.6544C122.559 72.7212 122.73 72.7522 122.901 72.7453C123.059 72.7447 123.214 72.709 123.357 72.641C123.491 72.5717 123.607 72.4726 123.697 72.3512C123.861 72.1173 123.959 71.844 123.982 71.5593V71.4782H124.056C124.666 71.455 125.176 71.4473 125.535 71.4434C125.731 71.4236 125.928 71.4288 126.123 71.4588Z" fill="#263238"/>
<path d="M140.645 69.8241C140.753 69.7998 140.863 69.7894 140.973 69.7932V69.855C140.201 69.8936 137.81 69.9245 135.005 69.9245C133.266 69.9245 131.69 69.9245 130.551 69.8936L129.202 69.8627C129.037 69.8683 128.871 69.8553 128.708 69.8241C128.871 69.7928 129.037 69.7799 129.202 69.7854L130.551 69.7545C131.69 69.7352 133.255 69.7236 135.005 69.7236C137.81 69.7236 140.185 69.7545 140.973 69.7932V69.855C140.863 69.8588 140.753 69.8484 140.645 69.8241Z" fill="#263238"/>
<path d="M140.645 72.3553C140.752 72.3285 140.863 72.3181 140.973 72.3244V72.3862C140.201 72.4249 137.81 72.4558 135.005 72.4558C133.266 72.4558 131.69 72.4558 130.551 72.4249L129.202 72.394C129.037 72.397 128.871 72.3841 128.708 72.3553C128.871 72.3237 129.037 72.3095 129.202 72.3128L130.551 72.2819C131.69 72.2626 133.255 72.2549 135.005 72.2549C137.81 72.2549 140.185 72.2819 140.973 72.3244V72.3862C140.863 72.3875 140.753 72.3771 140.645 72.3553Z" fill="#263238"/>
<path d="M140.645 74.8817C140.753 74.8574 140.863 74.847 140.973 74.8508V74.9126C140.201 74.9551 137.81 74.9821 135.005 74.9821C133.266 74.9821 131.69 74.9821 130.551 74.9551L129.202 74.9203C129.037 74.9259 128.871 74.9129 128.708 74.8817C128.871 74.8529 129.037 74.84 129.202 74.8431L130.551 74.8122C131.69 74.8122 133.255 74.7812 135.005 74.7812C137.81 74.7812 140.185 74.8122 140.973 74.8508V74.9126C140.863 74.919 140.752 74.9085 140.645 74.8817Z" fill="#263238"/>
<path d="M217.435 57.9723H214.491C214.337 57.9749 214.185 57.9468 214.042 57.8897C213.899 57.8326 213.769 57.7477 213.659 57.6398C213.55 57.5319 213.462 57.4033 213.403 57.2614C213.344 57.1195 213.313 56.9672 213.313 56.8134V51.9072H213.699V56.7979C213.699 56.901 213.72 57.0031 213.76 57.0981C213.8 57.1932 213.859 57.2792 213.932 57.3512C214.006 57.4232 214.094 57.4797 214.19 57.5174C214.286 57.5551 214.388 57.5731 214.491 57.5706H217.435C217.64 57.5706 217.836 57.4892 217.981 57.3443C218.126 57.1994 218.208 57.0028 218.208 56.7979V52.0772H218.594V56.7979C218.596 56.9514 218.567 57.1038 218.51 57.2462C218.453 57.3886 218.368 57.5182 218.26 57.6274C218.152 57.7367 218.024 57.8234 217.882 57.8826C217.74 57.9419 217.588 57.9723 217.435 57.9723Z" fill="#50BFD7"/>
<path d="M219.098 51.9355H212.832V52.3219H219.098V51.9355Z" fill="#50BFD7"/>
<path d="M214.824 52.1282H214.438V51.6994C214.438 51.4945 214.519 51.2979 214.664 51.1531C214.809 51.0082 215.006 50.9268 215.211 50.9268H216.756C216.961 50.9268 217.157 51.0082 217.302 51.1531C217.447 51.2979 217.528 51.4945 217.528 51.6994V52.0432H217.142V51.6994C217.142 51.5969 217.101 51.4987 217.029 51.4262C216.957 51.3538 216.858 51.3131 216.756 51.3131H215.211C215.108 51.3131 215.01 51.3538 214.937 51.4262C214.865 51.4987 214.824 51.5969 214.824 51.6994V52.1282Z" fill="#50BFD7"/>
<path d="M215.071 56.5284C214.972 55.9806 214.938 55.423 214.97 54.8672C214.938 54.3128 214.972 53.7565 215.071 53.21C215.172 53.7562 215.206 54.3128 215.171 54.8672C215.206 55.423 215.172 55.9809 215.071 56.5284Z" fill="#50BFD7"/>
<path d="M215.98 56.5284C215.88 55.9806 215.847 55.423 215.879 54.8672C215.847 54.3128 215.881 53.7565 215.98 53.21C216.081 53.7562 216.115 54.3128 216.08 54.8672C216.115 55.423 216.081 55.9809 215.98 56.5284Z" fill="#50BFD7"/>
<path d="M216.894 56.5284C216.795 55.9806 216.761 55.423 216.794 54.8672C216.761 54.3128 216.795 53.7565 216.894 53.21C216.995 53.7562 217.029 54.3128 216.995 54.8672C217.029 55.423 216.996 55.9809 216.894 56.5284Z" fill="#50BFD7"/>
<path d="M217.435 73.8112H214.491C214.179 73.8101 213.88 73.6857 213.659 73.4649C213.438 73.2442 213.314 72.9451 213.313 72.6329V67.7422H213.699V72.6329C213.699 72.8429 213.783 73.0444 213.931 73.1929C214.08 73.3414 214.281 73.4248 214.491 73.4248H217.435C217.642 73.4198 217.838 73.3341 217.982 73.1862C218.127 73.0382 218.208 72.8396 218.208 72.6329V67.9122H218.594V72.6329C218.596 72.7867 218.568 72.9395 218.511 73.0823C218.454 73.2252 218.369 73.3552 218.261 73.4649C218.153 73.5746 218.025 73.6617 217.883 73.7211C217.741 73.7806 217.589 73.8112 217.435 73.8112Z" fill="#50BFD7"/>
<path d="M219.098 67.7695H212.832V68.1558H219.098V67.7695Z" fill="#50BFD7"/>
<path d="M214.824 67.9631H214.438V67.5343C214.438 67.3294 214.519 67.1329 214.664 66.988C214.809 66.8431 215.006 66.7617 215.211 66.7617H216.756C216.961 66.7617 217.157 66.8431 217.302 66.988C217.447 67.1329 217.528 67.3294 217.528 67.5343V67.8782H217.142V67.5343C217.142 67.4319 217.101 67.3336 217.029 67.2612C216.957 67.1887 216.858 67.148 216.756 67.148H215.211C215.108 67.148 215.01 67.1887 214.937 67.2612C214.865 67.3336 214.824 67.4319 214.824 67.5343V67.9631Z" fill="#50BFD7"/>
<path d="M215.072 72.3633C214.938 71.2613 214.938 70.147 215.072 69.0449C215.206 70.147 215.206 71.2613 215.072 72.3633Z" fill="#50BFD7"/>
<path d="M215.979 72.3633C215.845 71.2613 215.845 70.147 215.979 69.0449C216.113 70.147 216.113 71.2613 215.979 72.3633Z" fill="#50BFD7"/>
<path d="M216.896 72.3633C216.762 71.2613 216.762 70.147 216.896 69.0449C217.03 70.147 217.03 71.2613 216.896 72.3633Z" fill="#50BFD7"/>
<path d="M217.435 108.622H214.491C214.337 108.624 214.185 108.596 214.042 108.539C213.899 108.482 213.769 108.397 213.659 108.289C213.55 108.181 213.462 108.053 213.403 107.911C213.344 107.769 213.313 107.617 213.313 107.463V102.572H213.699V107.463C213.699 107.566 213.72 107.668 213.76 107.763C213.8 107.858 213.859 107.944 213.932 108.016C214.006 108.088 214.094 108.145 214.19 108.182C214.286 108.22 214.388 108.238 214.491 108.236H217.435C217.64 108.236 217.836 108.154 217.981 108.009C218.126 107.864 218.208 107.668 218.208 107.463V102.727H218.594V107.448C218.596 107.601 218.567 107.753 218.51 107.896C218.453 108.038 218.368 108.168 218.26 108.277C218.152 108.386 218.024 108.473 217.882 108.532C217.74 108.591 217.588 108.622 217.435 108.622Z" fill="#50BFD7"/>
<path d="M219.098 102.584H212.832V102.97H219.098V102.584Z" fill="#50BFD7"/>
<path d="M214.824 102.778H214.438V102.345C214.438 102.14 214.519 101.943 214.664 101.799C214.809 101.654 215.006 101.572 215.211 101.572H216.756C216.961 101.572 217.157 101.654 217.302 101.799C217.447 101.943 217.528 102.14 217.528 102.345V102.693H217.142V102.345C217.142 102.242 217.101 102.144 217.029 102.072C216.957 101.999 216.858 101.959 216.756 101.959H215.211C215.108 101.959 215.01 101.999 214.937 102.072C214.865 102.144 214.824 102.242 214.824 102.345V102.778Z" fill="#50BFD7"/>
<path d="M215.072 107.178C214.938 106.076 214.938 104.961 215.072 103.859C215.206 104.961 215.206 106.076 215.072 107.178Z" fill="#50BFD7"/>
<path d="M215.979 107.178C215.845 106.076 215.845 104.961 215.979 103.859C216.113 104.961 216.113 106.076 215.979 107.178Z" fill="#50BFD7"/>
<path d="M216.896 107.178C216.762 106.076 216.762 104.961 216.896 103.859C217.03 104.961 217.03 106.076 216.896 107.178Z" fill="#50BFD7"/>
<path d="M223.126 29.5086C223.126 29.5627 206.275 29.6091 185.492 29.6091C164.708 29.6091 147.854 29.5589 147.854 29.5086C147.854 29.4584 164.701 29.4082 185.488 29.4082C206.275 29.4082 223.126 29.4546 223.126 29.5086Z" fill="#263238"/>
<path d="M223.126 46.286C223.126 46.3401 206.275 46.3864 185.492 46.3864C164.708 46.3864 147.854 46.3401 147.854 46.286C147.854 46.2319 164.701 46.1855 185.488 46.1855C206.275 46.1855 223.126 46.228 223.126 46.286Z" fill="#263238"/>
<path d="M223.126 79.494C223.126 79.5481 206.275 79.5944 185.492 79.5944C164.708 79.5944 147.854 79.5481 147.854 79.494C147.854 79.4399 164.701 79.3936 185.488 79.3936C206.275 79.3936 223.126 79.436 223.126 79.494Z" fill="#263238"/>
<path d="M223.126 96.493C223.126 96.551 206.275 96.5935 185.491 96.5935C164.708 96.5935 147.857 96.551 147.857 96.493C147.857 96.4351 164.704 96.3926 185.491 96.3926C206.279 96.3926 223.126 96.4389 223.126 96.493Z" fill="#263238"/>
<path d="M157.619 41.1478C157.619 41.1478 157.704 41.1478 157.851 41.0938C158.064 41.0262 158.241 40.8778 158.346 40.6804C158.496 40.4293 158.419 40.0546 158.431 39.6296C158.442 39.2047 158.431 38.7218 158.431 38.1926C158.431 37.6633 158.431 37.0723 158.431 36.4503C158.431 36.2919 158.431 36.1335 158.431 35.9713C158.444 35.8169 158.431 35.6615 158.392 35.5116C158.343 35.364 158.251 35.2346 158.128 35.1402C158.005 35.0458 157.856 34.9908 157.7 34.9823H153.092C152.913 34.9837 152.74 35.0472 152.602 35.1621C152.465 35.277 152.372 35.436 152.338 35.612C152.311 35.9674 152.338 36.3846 152.338 36.7709C152.338 37.5436 152.338 38.2775 152.338 38.9845C152.338 39.336 152.338 39.6799 152.338 40.016C152.328 40.1721 152.336 40.329 152.362 40.4834C152.395 40.6296 152.468 40.7635 152.574 40.8697C152.676 40.9666 152.801 41.0357 152.937 41.0706C153.076 41.0942 153.218 41.102 153.358 41.0938H154.197L156.719 41.1247L157.407 41.144C157.487 41.1421 157.567 41.1486 157.646 41.1633C157.567 41.1742 157.486 41.1742 157.407 41.1633L156.719 41.1826L154.197 41.2174H153.358C153.205 41.2283 153.05 41.2205 152.899 41.1942C152.73 41.1561 152.575 41.0721 152.451 40.9514C152.327 40.8308 152.238 40.6781 152.196 40.5104C152.163 40.3426 152.152 40.1711 152.165 40.0005C152.165 39.6644 152.165 39.3206 152.165 38.969C152.165 38.2621 152.165 37.5242 152.165 36.7555V36.176C152.152 35.9741 152.152 35.7715 152.165 35.5695C152.21 35.351 152.329 35.1549 152.502 35.0142C152.675 34.8734 152.892 34.7967 153.115 34.7969H157.704C157.895 34.8102 158.077 34.8797 158.227 34.9966C158.378 35.1135 158.49 35.2726 158.55 35.4536C158.595 35.6223 158.611 35.7973 158.597 35.9713C158.597 36.1335 158.597 36.2919 158.597 36.4503C158.597 37.0723 158.597 37.6556 158.597 38.1926C158.597 38.7295 158.597 39.2047 158.597 39.6296C158.597 39.8421 158.597 40.0391 158.597 40.2207C158.602 40.3945 158.56 40.5665 158.477 40.719C158.355 40.9256 158.157 41.0756 157.925 41.1363C157.826 41.1683 157.72 41.1723 157.619 41.1478Z" fill="#263238"/>
<path d="M157.619 91.2804C157.619 91.2804 157.704 91.2804 157.851 91.2263C158.064 91.1588 158.241 91.0103 158.346 90.813C158.496 90.5619 158.419 90.1871 158.431 89.7622C158.442 89.3373 158.431 88.8544 158.431 88.3251C158.431 87.7959 158.431 87.2048 158.431 86.5828C158.431 86.4245 158.431 86.2661 158.431 86.1038C158.444 85.9495 158.431 85.794 158.392 85.6441C158.343 85.4966 158.251 85.3672 158.128 85.2728C158.005 85.1784 157.856 85.1233 157.7 85.1149H153.092C152.913 85.1161 152.741 85.1791 152.603 85.2932C152.466 85.4073 152.372 85.5654 152.338 85.7407C152.311 86.1 152.338 86.5133 152.338 86.8996C152.338 87.6722 152.338 88.4062 152.338 89.1132C152.338 89.4647 152.338 89.8086 152.338 90.1408C152.328 90.2983 152.336 90.4564 152.362 90.6121C152.393 90.7588 152.467 90.893 152.574 90.9984C152.675 91.0972 152.8 91.1667 152.937 91.1993C153.076 91.2262 153.217 91.2353 153.358 91.2263H154.197L156.719 91.2572L157.407 91.2765C157.487 91.2683 157.567 91.2683 157.646 91.2765C157.568 91.2938 157.487 91.3003 157.407 91.2959L156.719 91.3152L154.197 91.3461H153.358C153.205 91.357 153.05 91.3492 152.899 91.3229C152.73 91.2848 152.575 91.2008 152.451 91.0801C152.327 90.9595 152.238 90.8068 152.196 90.6391C152.162 90.47 152.152 90.2972 152.165 90.1253C152.165 89.7931 152.165 89.4493 152.165 89.0977C152.165 88.3908 152.165 87.6529 152.165 86.8842V86.3047C152.152 86.1028 152.152 85.9002 152.165 85.6982C152.206 85.4762 152.324 85.2756 152.497 85.131C152.671 84.9864 152.889 84.9069 153.115 84.9062H157.704C157.895 84.9195 158.077 84.9891 158.227 85.106C158.378 85.2229 158.49 85.382 158.55 85.563C158.595 85.7317 158.611 85.9067 158.597 86.0806C158.597 86.2429 158.597 86.4013 158.597 86.5597C158.597 87.1816 158.597 87.765 158.597 88.3019C158.597 88.8389 158.597 89.3141 158.597 89.739C158.597 89.9515 158.597 90.1485 158.597 90.3301C158.602 90.5039 158.56 90.6758 158.477 90.8284C158.417 90.9308 158.338 91.0202 158.243 91.0912C158.148 91.1622 158.04 91.2134 157.925 91.2418C157.828 91.2803 157.723 91.2936 157.619 91.2804Z" fill="#263238"/>
<path d="M147.297 111.071C147.297 111.071 147.297 110.99 147.297 110.836C147.297 110.681 147.297 110.45 147.297 110.144C147.297 109.526 147.297 108.63 147.297 107.483C147.297 105.165 147.297 101.823 147.297 97.6973C147.297 89.438 147.398 78.0263 147.514 65.421C147.63 52.8156 147.718 41.4078 147.792 33.1408C147.819 29.0149 147.838 25.6734 147.854 23.3555C147.854 22.1965 147.854 21.3119 147.877 20.6977C147.877 20.3963 147.877 20.1684 147.877 20.0062C147.877 19.8439 147.877 19.7705 147.877 19.7705C147.877 19.7705 147.877 19.8478 147.877 20.0062C147.877 20.1645 147.877 20.3925 147.877 20.6977C147.877 21.3119 147.877 22.2081 147.877 23.3555C147.877 25.6734 147.877 29.0149 147.877 33.1408C147.858 41.4001 147.776 52.8156 147.657 65.421C147.537 78.0263 147.452 89.4303 147.382 97.6973C147.355 101.823 147.336 105.165 147.321 107.483C147.321 108.642 147.321 109.526 147.297 110.144C147.297 110.442 147.297 110.67 147.297 110.836C147.297 111.002 147.297 111.071 147.297 111.071Z" fill="#263238"/>
<path d="M190.313 53.0165C190.313 53.0705 184.518 53.1169 177.348 53.1169C170.178 53.1169 164.383 53.0705 164.383 53.0165C164.383 52.9624 170.178 52.916 177.348 52.916C184.518 52.916 190.313 52.9585 190.313 53.0165Z" fill="#263238"/>
<path d="M206.518 55.8749C206.518 55.9328 197.085 55.9753 185.453 55.9753C173.821 55.9753 164.383 55.9328 164.383 55.8749C164.383 55.8169 173.817 55.7744 185.453 55.7744C197.088 55.7744 206.518 55.8285 206.518 55.8749Z" fill="#263238"/>
<path d="M190.313 86.6678C190.313 86.7219 184.518 86.7683 177.348 86.7683C170.178 86.7683 164.383 86.7219 164.383 86.6678C164.383 86.6137 170.178 86.5674 177.348 86.5674C184.518 86.5674 190.313 86.6099 190.313 86.6678Z" fill="#263238"/>
<path d="M206.518 89.5262C206.518 89.5803 197.085 89.6267 185.453 89.6267C173.821 89.6267 164.383 89.5803 164.383 89.5262C164.383 89.4721 173.817 89.4258 185.453 89.4258C197.088 89.4258 206.518 89.4721 206.518 89.5262Z" fill="#263238"/>
<path d="M190.313 36.8456C190.313 36.9035 184.518 36.9499 177.348 36.9499C170.178 36.9499 164.383 36.9035 164.383 36.8456C164.383 36.7876 170.178 36.7451 177.348 36.7451C184.518 36.7451 190.313 36.7915 190.313 36.8456Z" fill="#263238"/>
<path d="M206.518 39.7088C206.518 39.7629 197.085 39.8093 185.453 39.8093C173.821 39.8093 164.383 39.7629 164.383 39.7088C164.383 39.6548 173.817 39.6084 185.453 39.6084C197.088 39.6084 206.518 39.6548 206.518 39.7088Z" fill="#263238"/>
<path d="M190.313 69.5038C190.313 69.5578 184.518 69.6042 177.348 69.6042C170.178 69.6042 164.383 69.5578 164.383 69.5038C164.383 69.4497 170.178 69.4033 177.348 69.4033C184.518 69.4033 190.313 69.4497 190.313 69.5038Z" fill="#263238"/>
<path d="M206.518 72.3622C206.518 72.4201 197.085 72.4626 185.453 72.4626C173.821 72.4626 164.383 72.4201 164.383 72.3622C164.383 72.3042 173.817 72.2617 185.453 72.2617C197.088 72.2617 206.518 72.3081 206.518 72.3622Z" fill="#263238"/>
<path d="M190.313 102.634C190.313 102.688 184.518 102.734 177.348 102.734C170.178 102.734 164.383 102.688 164.383 102.634C164.383 102.58 170.178 102.533 177.348 102.533C184.518 102.533 190.313 102.572 190.313 102.634Z" fill="#263238"/>
<path d="M206.518 105.493C206.518 105.547 197.085 105.593 185.453 105.593C173.821 105.593 164.383 105.547 164.383 105.493C164.383 105.439 173.817 105.393 185.453 105.393C197.088 105.393 206.518 105.439 206.518 105.493Z" fill="#263238"/>
<path d="M219.735 21.8613H214.631V26.9645H219.735V21.8613Z" fill="#E0E0E0"/>
<path d="M211.425 21.8613H206.322V26.9645H211.425V21.8613Z" fill="#E0E0E0"/>
<path d="M203.115 21.8613H198.012V26.9645H203.115V21.8613Z" fill="#E0E0E0"/>
<path d="M110.493 35.2227L112.66 38.0505L114.514 35.2227H110.493Z" fill="#263238"/>
<path d="M38.6598 124.454C38.6598 124.454 36.1788 123.914 35.2253 122.69C34.2632 121.466 33.6978 120.926 30.3392 119.466C27.0059 118.006 25.681 116.116 25.681 116.116C25.681 116.116 23.3519 118.251 28.4658 120.698C31.5966 122.201 21.3097 121.981 18.2127 121.635C18.2127 121.635 16.4237 122.614 19.3857 124.049C22.3477 125.483 19.4954 125.593 25.3604 128.065C31.2168 130.546 38.1788 131.846 39.5965 128.31C41.0058 124.774 38.6598 124.454 38.6598 124.454Z" fill="#E0E0E0"/>
<path fill-rule="evenodd" clip-rule="evenodd" d="M25.6808 116.115L25.4527 115.866L25.7363 115.606L25.9568 115.921L25.9569 115.921L25.9572 115.922L25.9586 115.923C25.9603 115.926 25.9634 115.93 25.9677 115.936C25.9765 115.948 25.9905 115.966 26.0099 115.991C26.0488 116.041 26.1094 116.115 26.1931 116.21C26.3605 116.4 26.62 116.672 26.9823 116.989C27.7065 117.623 28.842 118.441 30.4739 119.156C32.1552 119.887 33.1621 120.398 33.8725 120.888C34.595 121.387 35.0015 121.859 35.4904 122.48L35.4908 122.481L35.4913 122.482C35.9083 123.017 36.6917 123.431 37.4224 123.715C37.7795 123.854 38.1087 123.957 38.3486 124.024C38.4683 124.058 38.5653 124.083 38.6318 124.099C38.665 124.108 38.6906 124.114 38.7075 124.118C38.7137 124.119 38.7187 124.12 38.7225 124.121C38.7263 124.122 38.7305 124.122 38.7352 124.123C38.7394 124.124 38.7439 124.125 38.7488 124.126C38.7719 124.13 38.8032 124.137 38.8411 124.146C38.9168 124.166 39.02 124.197 39.1377 124.248C39.3724 124.349 39.673 124.53 39.9218 124.847C40.4364 125.501 40.6377 126.608 39.9098 128.434L39.9096 128.435C39.5117 129.427 38.7246 130.068 37.7108 130.43C36.706 130.788 35.4676 130.878 34.1182 130.78C31.4178 130.583 28.1752 129.624 25.2285 128.375C22.2919 127.137 21.4637 126.464 21.015 125.871C20.9361 125.766 20.8677 125.662 20.8078 125.571C20.7879 125.541 20.769 125.512 20.751 125.485C20.6755 125.373 20.6016 125.272 20.5004 125.167C20.2983 124.956 19.9605 124.701 19.2383 124.352C18.4781 123.983 17.9872 123.628 17.6951 123.284C17.3948 122.929 17.2961 122.573 17.3561 122.243C17.4128 121.93 17.6009 121.702 17.748 121.564C17.824 121.492 17.8966 121.438 17.9505 121.401C17.9777 121.382 18.0008 121.367 18.0179 121.357C18.0264 121.352 18.0336 121.348 18.0391 121.345C18.0418 121.343 18.0442 121.342 18.0461 121.341L18.0486 121.339L18.0496 121.339L18.0501 121.338C18.0503 121.338 18.0505 121.338 18.2125 121.634L18.0505 121.338L18.144 121.287L18.25 121.299C19.7802 121.47 23.1096 121.611 25.6627 121.522C26.9524 121.477 27.9951 121.374 28.5159 121.205C28.5554 121.192 28.5891 121.18 28.6177 121.168C28.5499 121.122 28.4531 121.066 28.3197 121.002C25.731 119.763 24.8884 118.539 24.8187 117.512C24.7844 117.007 24.943 116.596 25.1049 116.318C25.186 116.178 25.2693 116.069 25.3335 115.993C25.3657 115.955 25.3934 115.926 25.414 115.904C25.4244 115.894 25.433 115.885 25.4395 115.879C25.4428 115.876 25.4455 115.873 25.4477 115.871L25.4506 115.868L25.4518 115.867L25.4523 115.867C25.4525 115.867 25.4527 115.866 25.6808 116.115ZM18.2969 121.983C18.2708 122.002 18.2409 122.027 18.2105 122.056C18.1147 122.146 18.0406 122.252 18.0203 122.363C18.0034 122.457 18.0128 122.614 18.2101 122.847C18.4156 123.09 18.8118 123.395 19.5326 123.744C20.2915 124.111 20.7079 124.408 20.9873 124.699C21.1269 124.844 21.2256 124.981 21.3113 125.109C21.3365 125.146 21.3597 125.182 21.3821 125.216C21.4383 125.301 21.489 125.378 21.5534 125.463C21.8853 125.902 22.5633 126.519 25.4912 127.754L25.4918 127.754C28.4016 128.986 31.5682 129.917 34.1673 130.107C35.4677 130.201 36.6016 130.108 37.4839 129.794C38.3571 129.482 38.9719 128.959 39.2829 128.184C39.9641 126.474 39.6971 125.653 39.391 125.264C39.2295 125.058 39.0317 124.938 38.8705 124.868C38.7903 124.834 38.7213 124.813 38.6741 124.801C38.6507 124.795 38.6329 124.791 38.6223 124.789C38.6171 124.788 38.6136 124.787 38.6121 124.787C38.6114 124.787 38.6111 124.787 38.6114 124.787L38.6007 124.785L38.5878 124.783L38.6596 124.453C38.5878 124.783 38.5877 124.783 38.5876 124.783L38.5874 124.783L38.585 124.782L38.5786 124.781C38.5732 124.779 38.5654 124.778 38.5555 124.775C38.5356 124.771 38.5069 124.764 38.4704 124.755C38.3975 124.737 38.2932 124.71 38.1655 124.674C37.9104 124.602 37.5597 124.493 37.1774 124.344C36.4295 124.053 35.4959 123.585 34.9592 122.897C34.4863 122.296 34.1291 121.886 33.4889 121.444C32.8365 120.993 31.8815 120.504 30.2044 119.775L30.2036 119.775C28.5024 119.03 27.309 118.173 26.5375 117.497C26.1527 117.16 25.8731 116.868 25.6879 116.658C25.5732 116.856 25.4696 117.132 25.4922 117.466C25.5364 118.117 26.0862 119.185 28.6113 120.393L28.6116 120.393C28.8189 120.493 28.9909 120.594 29.1179 120.701C29.2363 120.801 29.3689 120.95 29.3871 121.153C29.4076 121.382 29.2755 121.544 29.1542 121.638C29.0353 121.73 28.8812 121.796 28.7238 121.847C28.0995 122.049 26.964 122.152 25.6862 122.196C23.1694 122.284 19.9109 122.152 18.2969 121.983ZM18.3758 121.93C18.3763 121.929 18.3765 121.929 18.3763 121.929L18.3758 121.93Z" fill="#2C2C2C"/>
<path d="M79.6558 104.292C79.6558 104.292 72.6347 138.317 69.4364 140.191C66.8626 141.701 47.1328 135.279 39.6392 132.756C37.8586 132.166 36.77 131.777 36.77 131.777L38.0611 123.052L42.289 123.626L63.3437 126.486C63.3437 126.486 70.4406 91.9127 75.5377 91.4907C80.6431 91.0604 79.6558 104.292 79.6558 104.292Z" fill="#2C2C2C"/>
<path d="M120.912 91.2803C120.912 91.2803 145.815 116.419 147.452 128.985C147.452 128.985 143.663 136.09 120.853 149.643L118.819 143.828C118.819 143.828 131.553 129.212 135.975 125.516C135.975 125.516 116.035 109.027 116.499 104.352C116.963 99.66 118.119 91.525 120.912 91.2803Z" fill="#2C2C2C"/>
<path d="M131.098 101.837C131.098 107.221 127.571 110.555 122.187 110.555C116.803 110.555 112.44 106.192 112.44 100.808C112.44 95.424 116.507 89.4832 121.638 91.095C127.292 92.8587 131.098 96.4536 131.098 101.837Z" fill="white"/>
<path fill-rule="evenodd" clip-rule="evenodd" d="M115.372 93.5465C113.768 95.4395 112.777 98.1924 112.777 100.808C112.777 106.006 116.989 110.217 122.186 110.217C124.808 110.217 126.946 109.407 128.426 107.973C129.905 106.54 130.76 104.454 130.76 101.838C130.76 96.6594 127.115 93.1572 121.537 91.4174L121.537 91.4172C119.139 90.6639 116.971 91.6595 115.372 93.5465ZM121.739 90.773C119.006 89.9148 116.574 91.0837 114.857 93.1101C113.145 95.1306 112.102 98.04 112.102 100.808C112.102 106.379 116.616 110.893 122.186 110.893C124.948 110.893 127.266 110.036 128.896 108.458C130.527 106.878 131.435 104.606 131.435 101.838C131.435 96.2483 127.469 92.5607 121.739 90.773Z" fill="#2C2C2C"/>
<path d="M126.718 100.267C126.718 104.251 124.11 106.715 120.127 106.715C116.144 106.715 112.92 103.491 112.92 99.508C112.92 95.5249 115.925 91.1283 119.73 92.3181C123.899 93.6346 126.718 96.2928 126.718 100.267Z" fill="#2C2C2C"/>
<path d="M65.6978 101.837C65.6978 107.221 69.2252 110.554 74.6091 110.554C79.993 110.554 84.3474 106.183 84.3474 100.808C84.3474 95.4322 80.2799 89.4829 75.1492 91.0947C69.5036 92.8584 65.6978 96.4533 65.6978 101.837Z" fill="white"/>
<path fill-rule="evenodd" clip-rule="evenodd" d="M81.93 93.114C83.6422 95.1354 84.6851 98.0449 84.6851 100.809C84.6851 106.37 80.1801 110.893 74.6092 110.893C71.8474 110.893 69.5293 110.037 67.8997 108.458C66.2689 106.878 65.3604 104.606 65.3604 101.838C65.3604 96.2491 69.3264 92.5614 75.0484 90.7738C77.7811 89.9154 80.2129 91.0867 81.93 93.114ZM81.4149 93.5503C79.8156 91.6621 77.6484 90.6646 75.2505 91.4179L75.25 91.4181C69.6811 93.1578 66.0355 96.6599 66.0355 101.838C66.0355 104.455 66.8906 106.541 68.3695 107.974C69.8496 109.408 71.9871 110.218 74.6092 110.218C79.8062 110.218 84.01 105.999 84.01 100.809C84.01 98.1974 83.0192 95.4445 81.4149 93.5503Z" fill="#2C2C2C"/>
<path d="M70.0859 100.267C70.0859 104.251 72.6935 106.715 76.6766 106.715C80.6597 106.715 83.8833 103.491 83.8833 99.508C83.8833 95.5249 80.8791 91.1283 77.0817 92.3181C72.896 93.6346 70.0859 96.2928 70.0859 100.267Z" fill="#2C2C2C"/>
<path d="M110.667 145.036C104.574 144.479 98.5574 144.251 98.5574 144.251C96.3464 144.318 91.6376 144.513 86.7769 145.036C88.1946 149.88 93.0047 153.449 98.7177 153.449C104.439 153.458 109.249 149.871 110.667 145.036Z" fill="#50BFD7"/>
<path d="M110.17 145.542C110.693 143.483 121.166 91.0108 121.166 91.0108C121.166 91.0108 93.2165 82.7577 75.3433 91.0108L86.8031 145.998L110.17 145.542Z" fill="white"/>
<path fill-rule="evenodd" clip-rule="evenodd" d="M121.26 90.6857C121.261 90.6858 121.261 90.6858 121.165 91.0095C121.496 91.0756 121.496 91.0758 121.496 91.0762L121.496 91.078L121.378 91.6654C121.302 92.0503 121.189 92.6149 121.045 93.3343C120.758 94.7732 120.347 96.8309 119.852 99.3067C118.862 104.258 117.536 110.882 116.194 117.569C113.513 130.935 110.761 144.583 110.497 145.624L110.433 145.873L86.5292 146.339L74.9575 90.8156L75.2012 90.7031C84.2244 86.5366 95.757 86.5458 104.994 87.5792C109.619 88.0966 113.684 88.8727 116.592 89.5195C118.046 89.8429 119.212 90.134 120.015 90.3445C120.416 90.4498 120.727 90.5349 120.938 90.5938C121.043 90.6232 121.124 90.6461 121.178 90.6617C121.205 90.6695 121.225 90.6755 121.239 90.6795L121.255 90.6841L121.259 90.6854L121.26 90.6857ZM121.165 91.0095L121.496 91.0756L121.557 90.7732L121.261 90.6858L121.165 91.0095ZM120.773 91.2488C120.768 91.2472 120.762 91.2456 120.756 91.244C120.549 91.186 120.241 91.1018 119.844 90.9976C119.048 90.789 117.891 90.4998 116.446 90.1785C113.555 89.5356 109.515 88.7643 104.919 88.2501C95.7974 87.2296 84.5427 87.2293 75.7282 91.2047L87.0759 145.654L109.9 145.208C110.378 143.064 112.983 130.145 115.533 117.437C116.874 110.749 118.2 104.126 119.19 99.1743C119.685 96.6986 120.096 94.6409 120.383 93.2021C120.527 92.4827 120.64 91.9181 120.716 91.5332L120.773 91.2488Z" fill="black"/>
<path d="M110.17 145.542C110.693 143.483 121.166 91.0108 121.166 91.0108C121.166 91.0108 93.2165 82.7577 75.3433 91.0108L86.8031 145.998L110.17 145.542Z" fill="white"/>
<path fill-rule="evenodd" clip-rule="evenodd" d="M121.26 90.6857C121.261 90.6858 121.261 90.6858 121.165 91.0095C121.496 91.0756 121.496 91.0758 121.496 91.0762L121.496 91.078L121.378 91.6654C121.302 92.0503 121.189 92.6149 121.045 93.3343C120.758 94.7732 120.347 96.8309 119.852 99.3067C118.862 104.258 117.536 110.882 116.194 117.569C113.513 130.935 110.761 144.583 110.497 145.624L110.433 145.873L86.5292 146.339L74.9575 90.8156L75.2012 90.7031C84.2244 86.5366 95.757 86.5458 104.994 87.5792C109.619 88.0966 113.684 88.8727 116.592 89.5195C118.046 89.8429 119.212 90.134 120.015 90.3445C120.416 90.4498 120.727 90.5349 120.938 90.5938C121.043 90.6232 121.124 90.6461 121.178 90.6617C121.205 90.6695 121.225 90.6755 121.239 90.6795L121.255 90.6841L121.259 90.6854L121.26 90.6857ZM121.165 91.0095L121.496 91.0756L121.557 90.7732L121.261 90.6858L121.165 91.0095ZM120.773 91.2488C120.768 91.2472 120.762 91.2456 120.756 91.244C120.549 91.186 120.241 91.1018 119.844 90.9976C119.048 90.789 117.891 90.4998 116.446 90.1785C113.555 89.5356 109.515 88.7643 104.919 88.2501C95.7974 87.2296 84.5427 87.2293 75.7282 91.2047L87.0759 145.654L109.9 145.208C110.378 143.064 112.983 130.145 115.533 117.437C116.874 110.749 118.2 104.126 119.19 99.1743C119.685 96.6986 120.096 94.6409 120.383 93.2021C120.527 92.4827 120.64 91.9181 120.716 91.5332L120.773 91.2488Z" fill="#2C2C2C"/>
<path d="M114.381 89.3982C106.575 87.8286 93.3768 86.0396 82.0352 88.74C83.3769 97.204 84.7187 105.677 86.0604 114.141C87.1406 119.879 92.5836 123.702 98.2629 123.735C103.942 123.702 109.385 119.887 110.465 114.141C111.765 105.888 113.073 97.6428 114.381 89.3982Z" fill="#50BFD7"/>
<path fill-rule="evenodd" clip-rule="evenodd" d="M81.9565 88.4122C93.3724 85.6941 106.631 87.4961 114.447 89.0678L114.765 89.1317L114.713 89.4569C113.405 97.6999 112.098 105.943 110.798 114.194L110.798 114.199L110.797 114.204C109.682 120.135 104.078 124.039 98.2644 124.074L98.2624 124.074L98.2604 124.074C92.4466 124.039 86.843 120.126 85.7282 114.204L85.7273 114.199L85.7266 114.194C85.0558 109.962 84.385 105.729 83.7141 101.495L83.7139 101.494C83.0431 97.2595 82.3722 93.0254 81.7013 88.7934L81.6523 88.4846L81.9565 88.4122ZM82.4172 88.9976C83.0716 93.126 83.7261 97.2564 84.3805 101.387L84.3807 101.388C85.0513 105.621 85.722 109.853 86.3926 114.083C87.4401 119.635 92.7199 123.365 98.2624 123.398C103.805 123.365 109.085 119.643 110.132 114.084C111.415 105.939 112.705 97.8025 113.996 89.6663C106.236 88.1293 93.464 86.4531 82.4172 88.9976Z" fill="#2C2C2C"/>
<path d="M97.2935 92.3939C99.9601 92.3939 104.104 91.5838 104.104 88.9256L103.42 80.048L102.821 72.2843C102.821 69.6177 100.661 67.4658 98.0023 67.4658C96.669 67.4658 95.4707 68.0059 94.5931 68.8751C93.7239 69.7443 93.1754 70.951 93.1754 72.2843L92.5846 80.0564L92.0192 87.5079C91.2598 92.0057 97.2935 92.3939 97.2935 92.3939Z" fill="#2C2C2C"/>
<path d="M106.212 52.9763C106.212 53.3645 106.684 53.6683 107.267 53.6683C107.849 53.6683 108.322 53.3561 108.322 52.9763C108.322 52.5881 107.849 52.2843 107.267 52.2843C106.693 52.2759 106.212 52.5881 106.212 52.9763Z" fill="white"/>
<path d="M104.052 148.69C104.052 148.901 104.238 149.145 104.457 149.12C106.946 148.858 108.854 146.934 111.309 147.339C108.845 148.563 106.71 150.69 107.014 153.82C107.048 154.209 107.419 154.36 107.706 154.124C109.47 152.622 111.495 151.28 113.858 151.778C114.87 151.989 116.06 152.386 117.107 152.251C118.668 152.057 119.984 151.348 120.761 149.837C122.128 147.221 121.621 144.082 118.558 143.432C118.482 143.415 118.423 143.424 118.356 143.449C117.225 143.002 116.195 142.437 115.284 141.449C114.406 140.487 113.588 139.424 112.634 138.538C111.36 137.348 109.976 136.411 108.288 137.213C108.035 137.331 108.052 137.694 108.212 137.888C108.955 138.808 109.824 139.685 110.735 140.529C109.824 140.318 108.904 140.209 107.959 140.285C106.271 140.428 104.28 141.55 104.322 143.559C104.33 143.812 104.508 143.964 104.727 143.989C106.28 144.15 107.841 144.124 109.385 144.285C106.98 144.993 104.027 145.804 104.052 148.69Z" fill="white"/>
<path fill-rule="evenodd" clip-rule="evenodd" d="M110.739 136.813C111.517 137.12 112.22 137.689 112.863 138.289C113.508 138.889 114.104 139.58 114.682 140.251C114.968 140.583 115.25 140.911 115.532 141.22C116.37 142.127 117.316 142.664 118.377 143.093C118.454 143.081 118.537 143.081 118.629 143.101C120.282 143.452 121.272 144.491 121.645 145.804C122.012 147.098 121.773 148.625 121.059 149.991C120.221 151.621 118.794 152.38 117.148 152.584C116.572 152.659 115.971 152.585 115.404 152.474C115.119 152.418 114.836 152.352 114.566 152.287C114.537 152.28 114.509 152.273 114.48 152.266C114.239 152.209 114.009 152.153 113.788 152.107L113.787 152.107C111.597 151.646 109.686 152.879 107.924 154.38L107.922 154.382L107.92 154.383C107.69 154.573 107.393 154.628 107.131 154.515C106.869 154.403 106.704 154.15 106.677 153.85C106.402 151.011 108.019 148.973 110.058 147.659C109.379 147.751 108.718 147.997 108.026 148.289C107.873 148.354 107.717 148.422 107.559 148.491C106.622 148.898 105.612 149.336 104.493 149.454C104.241 149.483 104.039 149.353 103.917 149.214C103.797 149.076 103.714 148.886 103.714 148.69C103.7 147.1 104.521 146.08 105.627 145.384C106.21 145.017 106.882 144.734 107.563 144.496C107.391 144.488 107.218 144.48 107.044 144.473L107.037 144.473C106.263 144.439 105.477 144.405 104.692 144.324L104.69 144.323L104.688 144.323C104.327 144.282 103.999 144.013 103.984 143.569L103.984 143.567L103.984 143.565C103.96 142.432 104.514 141.556 105.283 140.955C106.045 140.36 107.03 140.023 107.93 139.947L107.93 139.947L107.931 139.947C108.527 139.899 109.112 139.922 109.686 139.995C109.067 139.385 108.478 138.754 107.95 138.1C107.814 137.935 107.745 137.712 107.757 137.502C107.77 137.284 107.876 137.032 108.143 136.906C109.079 136.462 109.944 136.5 110.739 136.813ZM108.435 137.515C108.434 137.519 108.432 137.527 108.431 137.54C108.43 137.561 108.433 137.587 108.442 137.613C108.45 137.64 108.462 137.66 108.472 137.672L108.473 137.673L108.474 137.675C109.202 138.577 110.059 139.442 110.964 140.28L111.896 141.143L110.658 140.857C109.771 140.651 108.887 140.547 107.986 140.62C107.198 140.687 106.344 140.983 105.699 141.487C105.061 141.985 104.641 142.673 104.659 143.548C104.66 143.592 104.674 143.611 104.683 143.619C104.695 143.631 104.72 143.647 104.763 143.652C105.527 143.731 106.295 143.765 107.073 143.798L107.076 143.798C107.851 143.832 108.636 143.866 109.419 143.948L111.119 144.124L109.48 144.607C109.438 144.619 109.396 144.632 109.354 144.644C108.174 144.992 106.94 145.355 105.986 145.955C105.021 146.563 104.377 147.39 104.389 148.685L104.389 148.687V148.688C104.389 148.693 104.39 148.705 104.397 148.723C104.404 148.741 104.414 148.757 104.425 148.77C104.43 148.775 104.434 148.779 104.437 148.781C105.438 148.673 106.338 148.283 107.274 147.878C107.436 147.808 107.599 147.737 107.763 147.668C108.864 147.202 110.033 146.786 111.363 147.005L112.395 147.175L111.459 147.64C109.047 148.838 107.065 150.861 107.349 153.786L107.349 153.788L107.349 153.79C107.353 153.835 107.366 153.861 107.375 153.874C107.384 153.888 107.392 153.893 107.397 153.895C107.402 153.897 107.411 153.899 107.424 153.897C107.437 153.895 107.46 153.887 107.489 153.864C109.253 152.361 111.392 150.913 113.926 151.447C114.158 151.495 114.398 151.552 114.638 151.61C114.666 151.617 114.695 151.624 114.723 151.63C114.994 151.695 115.264 151.759 115.534 151.812C116.076 151.918 116.593 151.975 117.063 151.915L117.063 151.915L117.064 151.914C118.54 151.731 119.745 151.072 120.46 149.682L120.46 149.681L120.461 149.68C121.114 148.43 121.305 147.08 120.995 145.988C120.691 144.916 119.897 144.06 118.487 143.761L118.486 143.761L118.484 143.76C118.484 143.76 118.484 143.76 118.484 143.76C118.481 143.761 118.478 143.762 118.473 143.764L118.352 143.81L118.231 143.762C117.072 143.304 115.993 142.714 115.035 141.677L115.034 141.676L115.034 141.675C114.723 141.335 114.428 140.992 114.135 140.651C113.573 139.999 113.023 139.359 112.404 138.784L112.403 138.783C111.772 138.194 111.146 137.7 110.491 137.441C109.855 137.19 109.186 137.159 108.435 137.515Z" fill="#2C2C2C"/>
<path fill-rule="evenodd" clip-rule="evenodd" d="M76.136 52.4961V52.6649H75.4609V52.4961H76.136Z" fill="#2C2C2C"/>
<path d="M101.486 98.6735H95.0049C93.2834 98.6735 91.8826 100.074 91.8826 101.796V108.277C91.8826 109.998 93.2834 111.399 95.0049 111.399H101.486C103.207 111.399 104.608 109.998 104.608 108.277V101.796C104.608 100.074 103.216 98.6735 101.486 98.6735ZM90.1611 95.9141C89.1738 95.9141 88.3721 96.7157 88.3721 97.7031C88.3721 98.6904 89.1738 99.4921 90.1611 99.4921C91.1484 99.4921 91.9501 98.6904 91.9501 97.7031C91.9501 96.7157 91.1484 95.9141 90.1611 95.9141Z" fill="white"/>
<path d="M101.03 102.538C100.616 101.432 99.5616 100.698 98.3801 100.698H96.6249L100.093 109.491H103.815L101.03 102.538ZM93.9414 106.968L92.9287 109.491H96.6249L98.3464 105.129H96.5911C95.4097 105.129 94.3549 105.863 93.9414 106.968ZM94.5152 102.884C95.1228 102.884 95.6207 102.386 95.6207 101.778C95.6207 101.171 95.1228 100.673 94.5152 100.673C93.9076 100.673 93.4097 101.171 93.4097 101.778C93.4097 102.386 93.9076 102.884 94.5152 102.884Z" fill="#50BFD7"/>
<path d="M110 135.848C103.879 135.363 97.8347 135.165 97.8347 135.165C95.6136 135.224 90.8831 135.393 86 135.848C87.4242 140.06 92.2564 143.165 97.9958 143.165C103.744 143.172 108.576 140.053 110 135.848Z" fill="#50BFD7"/>
<path d="M103 144.041C103 144.236 103.171 144.462 103.372 144.439C105.658 144.197 107.409 142.42 109.663 142.794C107.401 143.925 105.441 145.889 105.72 148.78C105.751 149.139 106.092 149.279 106.355 149.061C107.974 147.674 109.834 146.434 112.003 146.894C112.933 147.089 114.025 147.455 114.986 147.331C116.419 147.151 117.628 146.497 118.341 145.101C119.596 142.685 119.131 139.786 116.319 139.186C116.249 139.17 116.195 139.178 116.133 139.201C115.095 138.788 114.149 138.266 113.313 137.354C112.507 136.465 111.755 135.483 110.88 134.665C109.71 133.566 108.439 132.701 106.89 133.441C106.657 133.55 106.673 133.885 106.82 134.065C107.502 134.914 108.3 135.725 109.136 136.504C108.3 136.309 107.455 136.208 106.587 136.278C105.038 136.411 103.209 137.447 103.248 139.302C103.256 139.536 103.419 139.677 103.62 139.7C105.046 139.848 106.479 139.825 107.897 139.973C105.689 140.628 102.977 141.376 103 144.041Z" fill="#C4C4C4"/>
<path fill-rule="evenodd" clip-rule="evenodd" d="M109.21 132.403C109.898 132.71 110.519 133.279 111.087 133.88C111.658 134.479 112.184 135.17 112.695 135.841C112.948 136.174 113.197 136.501 113.446 136.81C114.187 137.718 115.023 138.254 115.961 138.684C116.029 138.671 116.102 138.671 116.183 138.692C117.644 139.043 118.52 140.081 118.849 141.395C119.174 142.689 118.963 144.217 118.332 145.583C117.591 147.213 116.329 147.971 114.875 148.176C114.365 148.25 113.834 148.177 113.333 148.066C113.081 148.01 112.831 147.943 112.592 147.879C112.567 147.872 112.542 147.865 112.517 147.858C112.304 147.8 112.1 147.745 111.905 147.699L111.904 147.699C109.968 147.237 108.279 148.471 106.722 149.972L106.72 149.974L106.718 149.975C106.515 150.164 106.252 150.219 106.021 150.107C105.79 149.995 105.643 149.742 105.619 149.442C105.377 146.603 106.805 144.565 108.608 143.25C108.008 143.343 107.424 143.588 106.812 143.88C106.676 143.946 106.538 144.013 106.399 144.082C105.571 144.489 104.678 144.928 103.689 145.046C103.466 145.074 103.287 144.944 103.18 144.806C103.074 144.668 103.001 144.477 103 144.281C102.988 142.691 103.714 141.67 104.691 140.974C105.206 140.607 105.801 140.324 106.403 140.087C106.25 140.079 106.097 140.071 105.944 140.064L105.937 140.063C105.254 140.03 104.559 139.996 103.865 139.914L103.863 139.914L103.861 139.914C103.542 139.872 103.252 139.603 103.239 139.159L103.239 139.157L103.239 139.155C103.218 138.023 103.708 137.146 104.388 136.545C105.061 135.95 105.931 135.614 106.727 135.537L106.727 135.537L106.728 135.537C107.255 135.489 107.771 135.512 108.279 135.585C107.732 134.975 107.211 134.344 106.744 133.69C106.624 133.525 106.564 133.302 106.574 133.091C106.585 132.874 106.679 132.622 106.916 132.496C107.743 132.052 108.508 132.089 109.21 132.403ZM107.174 133.105C107.172 133.109 107.171 133.117 107.17 133.13C107.169 133.151 107.172 133.177 107.179 133.203C107.187 133.23 107.197 133.25 107.206 133.262L107.207 133.263L107.208 133.265C107.852 134.167 108.609 135.032 109.409 135.871L110.232 136.734L109.139 136.447C108.354 136.242 107.573 136.138 106.777 136.21C106.08 136.277 105.325 136.574 104.755 137.077C104.191 137.576 103.82 138.263 103.835 139.139C103.837 139.183 103.849 139.201 103.857 139.21C103.868 139.222 103.89 139.238 103.928 139.243C104.603 139.322 105.282 139.355 105.97 139.389L105.972 139.389C106.657 139.423 107.351 139.457 108.043 139.538L109.545 139.715L108.097 140.198C108.06 140.21 108.023 140.223 107.985 140.235C106.943 140.582 105.852 140.946 105.009 141.546C104.155 142.154 103.587 142.981 103.597 144.277L103.597 144.278V144.28C103.597 144.284 103.598 144.296 103.604 144.314C103.61 144.332 103.62 144.348 103.629 144.361C103.633 144.366 103.637 144.37 103.64 144.372C104.525 144.264 105.32 143.874 106.147 143.469C106.29 143.399 106.434 143.328 106.58 143.259C107.553 142.793 108.586 142.377 109.762 142.596L110.674 142.766L109.846 143.232C107.715 144.429 105.963 146.453 106.214 149.378L106.214 149.38L106.214 149.382C106.217 149.427 106.228 149.453 106.236 149.466C106.244 149.479 106.251 149.484 106.256 149.487C106.261 149.489 106.268 149.491 106.28 149.489C106.291 149.487 106.311 149.479 106.337 149.455C107.897 147.953 109.787 146.504 112.027 147.038C112.232 147.086 112.444 147.144 112.656 147.201C112.681 147.208 112.706 147.215 112.731 147.222C112.97 147.287 113.209 147.35 113.448 147.403C113.927 147.509 114.384 147.567 114.799 147.506L114.8 147.506L114.801 147.506C116.105 147.323 117.17 146.663 117.802 145.273L117.802 145.272L117.803 145.271C118.38 144.021 118.549 142.671 118.275 141.579C118.006 140.507 117.304 139.651 116.058 139.352L116.057 139.351L116.056 139.351C116.055 139.351 116.055 139.351 116.055 139.351C116.053 139.352 116.05 139.353 116.046 139.355L115.938 139.4L115.832 139.352C114.808 138.894 113.854 138.305 113.007 137.267L113.006 137.267L113.006 137.266C112.732 136.926 112.47 136.582 112.211 136.242C111.715 135.589 111.228 134.949 110.681 134.374L110.681 134.373C110.123 133.784 109.57 133.29 108.991 133.031C108.428 132.78 107.837 132.749 107.174 133.105Z" fill="#2C2C2C"/>
<path fill-rule="evenodd" clip-rule="evenodd" d="M194.784 151.836C194.784 151.674 194.915 151.543 195.076 151.543H204.717C204.879 151.543 205.01 151.674 205.01 151.836C205.01 151.997 204.879 152.128 204.717 152.128H195.076C194.915 152.128 194.784 151.997 194.784 151.836Z" fill="#2C2C2C"/>
<path fill-rule="evenodd" clip-rule="evenodd" d="M12.9858 151.836C12.9858 151.674 13.1168 151.543 13.2784 151.543H191.863C192.024 151.543 192.155 151.674 192.155 151.836C192.155 151.997 192.024 152.128 191.863 152.128H13.2784C13.1168 152.128 12.9858 151.997 12.9858 151.836Z" fill="#2C2C2C"/>
<path fill-rule="evenodd" clip-rule="evenodd" d="M0.430176 151.836C0.430176 151.674 0.561165 151.543 0.722749 151.543H7.31063C7.47221 151.543 7.6032 151.674 7.6032 151.836C7.6032 151.997 7.47221 152.128 7.31063 152.128H0.722749C0.561165 152.128 0.430176 151.997 0.430176 151.836Z" fill="#2C2C2C"/>
<path d="M58.2544 120.232H128.146C128.983 120.232 129.784 120.565 130.376 121.156C130.967 121.747 131.299 122.549 131.299 123.385V162.651H55.1016V123.385C55.1016 122.549 55.4337 121.747 56.025 121.156C56.6163 120.565 57.4182 120.232 58.2544 120.232Z" fill="white"/>
<path fill-rule="evenodd" clip-rule="evenodd" d="M58.2544 120.635C57.5248 120.635 56.8251 120.925 56.3092 121.441C55.7933 121.956 55.5034 122.656 55.5034 123.386V162.249H130.897V123.386C130.897 122.656 130.608 121.956 130.092 121.441C129.576 120.925 128.876 120.635 128.146 120.635H58.2544ZM55.7409 120.872C56.4075 120.206 57.3116 119.831 58.2544 119.831H128.146C129.089 119.831 129.993 120.206 130.66 120.872C131.327 121.539 131.701 122.443 131.701 123.386V162.651C131.701 162.873 131.521 163.053 131.299 163.053H55.1016C54.8796 163.053 54.6997 162.873 54.6997 162.651V123.386C54.6997 122.443 55.0742 121.539 55.7409 120.872Z" fill="#2C2C2C"/>
<path d="M131.299 134.345C121.727 136.772 111.903 142.952 93.5976 151.654C75.9418 160.053 61.4892 159.908 55.1016 159.258V162.651H131.299V134.345Z" fill="#2C2C2C"/>
<path fill-rule="evenodd" clip-rule="evenodd" d="M131.546 134.028C131.644 134.104 131.701 134.221 131.701 134.345V162.651C131.701 162.873 131.521 163.053 131.299 163.053H55.1016C54.8796 163.053 54.6997 162.873 54.6997 162.651V159.259C54.6997 159.145 54.7478 159.037 54.8322 158.961C54.9165 158.885 55.0291 158.848 55.1422 158.859C61.4751 159.503 75.8504 159.652 93.425 151.291L93.4251 151.291C99.4542 148.425 104.555 145.837 109.037 143.562C111.359 142.384 113.514 141.291 115.545 140.287C121.489 137.349 126.371 135.181 131.2 133.956C131.321 133.925 131.448 133.952 131.546 134.028ZM93.7702 152.017C76.4282 160.267 62.1522 160.316 55.5034 159.702V162.249H130.897V134.865C126.316 136.089 121.63 138.176 115.901 141.007C113.883 142.005 111.735 143.095 109.417 144.271C104.929 146.548 99.8069 149.148 93.7702 152.017Z" fill="#2C2C2C"/>
<path d="M131.299 160.299H55.1016V162.657H131.299V160.299Z" fill="white"/>
<path fill-rule="evenodd" clip-rule="evenodd" d="M54.6997 160.3C54.6997 160.078 54.8796 159.898 55.1016 159.898H131.299C131.521 159.898 131.701 160.078 131.701 160.3V162.659C131.701 162.881 131.521 163.06 131.299 163.06H55.1016C54.8796 163.06 54.6997 162.881 54.6997 162.659V160.3ZM55.5034 160.702V162.257H130.897V160.702H55.5034Z" fill="#2C2C2C"/>
<path d="M112.772 18.9817C108.939 14.269 103.585 11.4268 96.7085 11.4268C81.1403 11.4268 65.9297 25.7847 65.9297 43.6818C65.9297 61.5788 78.5456 76.0926 94.1138 76.0926C95.6083 76.0926 97.057 75.9551 98.4597 75.7075C98.6064 76.496 98.689 77.3029 98.689 78.1372C98.689 78.2839 98.6798 78.4398 98.6798 78.5865C141.579 68.171 134.556 16.3319 112.772 18.9817Z" fill="#2C2C2C"/>
<path d="M76.6657 65.1272C79.9317 65.1272 82.5794 62.4796 82.5794 59.2135C82.5794 55.9475 79.9317 53.2998 76.6657 53.2998C73.3996 53.2998 70.752 55.9475 70.752 59.2135C70.752 62.4796 73.3996 65.1272 76.6657 65.1272Z" fill="#E0E0E0"/>
<path fill-rule="evenodd" clip-rule="evenodd" d="M76.6657 53.6661C73.6022 53.6661 71.1187 56.1496 71.1187 59.2131C71.1187 62.2766 73.6022 64.7601 76.6657 64.7601C79.7292 64.7601 82.2127 62.2766 82.2127 59.2131C82.2127 56.1496 79.7292 53.6661 76.6657 53.6661ZM70.3853 59.2131C70.3853 55.7445 73.1971 52.9326 76.6657 52.9326C80.1343 52.9326 82.9462 55.7445 82.9462 59.2131C82.9462 62.6817 80.1343 65.4935 76.6657 65.4935C73.1971 65.4935 70.3853 62.6817 70.3853 59.2131Z" fill="#2C2C2C"/>
<path d="M118.309 65.1272C121.575 65.1272 124.223 62.4796 124.223 59.2135C124.223 55.9475 121.575 53.2998 118.309 53.2998C115.043 53.2998 112.396 55.9475 112.396 59.2135C112.396 62.4796 115.043 65.1272 118.309 65.1272Z" fill="#E0E0E0"/>
<path fill-rule="evenodd" clip-rule="evenodd" d="M118.31 53.6661C115.246 53.6661 112.763 56.1496 112.763 59.2131C112.763 62.2766 115.246 64.7601 118.31 64.7601C121.373 64.7601 123.857 62.2766 123.857 59.2131C123.857 56.1496 121.373 53.6661 118.31 53.6661ZM112.029 59.2131C112.029 55.7445 114.841 52.9326 118.31 52.9326C121.778 52.9326 124.59 55.7445 124.59 59.2131C124.59 62.6817 121.778 65.4935 118.31 65.4935C114.841 65.4935 112.029 62.6817 112.029 59.2131Z" fill="#2C2C2C"/>
<path d="M98.0471 83.8861C110.742 83.8861 121.033 69.3178 121.033 51.3468C121.033 33.3759 110.742 18.8076 98.0471 18.8076C85.3525 18.8076 75.0615 33.3759 75.0615 51.3468C75.0615 69.3178 85.3525 83.8861 98.0471 83.8861Z" fill="#E0E0E0"/>
<path fill-rule="evenodd" clip-rule="evenodd" d="M82.093 28.5493C77.982 34.3688 75.4278 42.4277 75.4278 51.3464C75.4278 60.2651 77.982 68.324 82.093 74.1435C86.2045 79.964 91.8504 83.5189 98.0467 83.5189C104.243 83.5189 109.889 79.964 114 74.1435C118.111 68.324 120.666 60.2651 120.666 51.3464C120.666 42.4277 118.111 34.3688 114 28.5493C109.889 22.7288 104.243 19.1739 98.0467 19.1739C91.8504 19.1739 86.2045 22.7288 82.093 28.5493ZM81.4939 28.1261C85.7014 22.1697 91.5484 18.4404 98.0467 18.4404C104.545 18.4404 110.392 22.1697 114.599 28.1261C118.808 34.0834 121.399 42.2942 121.399 51.3464C121.399 60.3986 118.808 68.6094 114.599 74.5667C110.392 80.5231 104.545 84.2524 98.0467 84.2524C91.5484 84.2524 85.7014 80.5231 81.4939 74.5667C77.2856 68.6094 74.6943 60.3986 74.6943 51.3464C74.6943 42.2942 77.2856 34.0834 81.4939 28.1261Z" fill="#2C2C2C"/>
<path d="M71.7061 44.1309C71.7061 44.1309 91.2718 45.0844 97.7906 33.312C97.7906 33.312 111.947 45.5612 125.461 44.6077L124.187 39.1982L118.942 28.8561L115.761 25.0419L109.242 18.2022L100.495 14.5439L89.9973 15.9742L75.9969 25.5187L74.2457 31.8817L71.7061 44.1309Z" fill="#2C2C2C"/>
<path d="M98.6061 64.0641C98.6153 64.1191 98.4961 64.22 98.2302 64.22C97.9735 64.2292 97.5792 64.11 97.2308 63.7799C97.0566 63.6149 96.9008 63.4132 96.7816 63.1564C96.7632 63.1198 96.7541 63.0831 96.7357 63.0464L96.7174 62.9914L96.6991 62.9456L96.6716 62.863C96.6624 62.8264 96.6532 62.7805 96.6349 62.7438C96.5982 62.6063 96.5707 62.4596 96.5615 62.3038C96.5065 61.6986 96.6257 61.0843 96.7724 60.4975C97.3409 58.1504 98.0102 56.3075 98.2577 56.3625C98.5053 56.4267 98.2486 58.3704 97.6801 60.7176C97.5334 61.2952 97.4234 61.8178 97.4234 62.2579C97.4234 62.3679 97.4325 62.478 97.4417 62.5788L97.4509 62.6155V62.6338V62.643V62.6522C97.4509 62.6522 97.4417 62.6247 97.4509 62.6338L97.4692 62.7255L97.4784 62.7714L97.4876 62.7989L97.5059 62.8539C97.5609 63.0281 97.6434 63.1931 97.7351 63.3215C97.9185 63.5874 98.1385 63.7524 98.3127 63.8441C98.4778 63.9633 98.5969 63.9999 98.6061 64.0641Z" fill="#2C2C2C"/>
<path d="M92.0696 53.0698C92.0696 55.6829 89.8049 57.8008 87.0177 57.8008C84.2213 57.8008 81.9658 55.6829 81.9658 53.0698C81.9658 50.4568 84.2305 48.3389 87.0177 48.3389C89.7958 48.3389 92.0696 50.4568 92.0696 53.0698Z" fill="white"/>
<path fill-rule="evenodd" clip-rule="evenodd" d="M87.0177 48.7071C84.4099 48.7071 82.3326 50.6833 82.3326 53.0714C82.3326 55.4598 84.4011 57.4356 87.0177 57.4356C89.6256 57.4356 91.7029 55.4594 91.7029 53.0714C91.7029 50.6837 89.6169 48.7071 87.0177 48.7071ZM81.5991 53.0714C81.5991 50.2333 84.0512 47.9736 87.0177 47.9736C89.9747 47.9736 92.4364 50.2329 92.4364 53.0714C92.4364 55.9094 89.9843 58.1691 87.0177 58.1691C84.0415 58.1691 81.5991 55.909 81.5991 53.0714Z" fill="#2C2C2C"/>
<path d="M84.5322 52.7779C84.5322 54.9325 85.935 56.6837 87.6587 56.6837C89.3824 56.6837 90.7852 54.9325 90.7852 52.7779C90.7852 50.6233 89.3824 48.8721 87.6587 48.8721C85.935 48.8629 84.5322 50.6141 84.5322 52.7779Z" fill="#50BFD7"/>
<path d="M85.4399 52.7761C85.4399 54.3073 86.4301 55.545 87.6587 55.545C88.8873 55.545 89.8775 54.3073 89.8775 52.7761C89.8775 51.245 88.8873 49.998 87.6587 49.998C86.4301 49.998 85.4399 51.2358 85.4399 52.7761Z" fill="#2C2C2C"/>
<path d="M85.3022 50.1456C85.3022 50.5673 85.8157 50.8974 86.4483 50.8974C87.0809 50.8974 87.5944 50.5581 87.5944 50.1456C87.5944 49.7238 87.0809 49.3937 86.4483 49.3937C85.8157 49.3846 85.3022 49.7238 85.3022 50.1456Z" fill="white"/>
<path d="M93.5078 45.8358C93.5078 45.8358 86.6864 39.0328 79.3516 47.1103C79.3516 47.1103 85.6962 43.0486 93.5078 45.8358Z" fill="#2C2C2C"/>
<path d="M114.046 53.0698C114.046 55.6829 111.782 57.8008 108.994 57.8008C106.198 57.8008 103.942 55.6829 103.942 53.0698C103.942 50.4568 106.207 48.3389 108.994 48.3389C111.782 48.3389 114.046 50.4568 114.046 53.0698Z" fill="white"/>
<path fill-rule="evenodd" clip-rule="evenodd" d="M108.994 48.7071C106.386 48.7071 104.309 50.6833 104.309 53.0714C104.309 55.4598 106.378 57.4356 108.994 57.4356C111.602 57.4356 113.679 55.4594 113.679 53.0714C113.679 50.6833 111.602 48.7071 108.994 48.7071ZM103.576 53.0714C103.576 50.2333 106.028 47.9736 108.994 47.9736C111.961 47.9736 114.413 50.2333 114.413 53.0714C114.413 55.9094 111.961 58.1691 108.994 58.1691C106.018 58.1691 103.576 55.909 103.576 53.0714Z" fill="#2C2C2C"/>
<path d="M106.519 52.7779C106.519 54.9325 107.921 56.6837 109.645 56.6837C111.369 56.6837 112.772 54.9325 112.772 52.7779C112.772 50.6233 111.369 48.8721 109.645 48.8721C107.912 48.8629 106.519 50.6141 106.519 52.7779Z" fill="#50BFD7"/>
<path d="M107.417 52.7761C107.417 54.3073 108.407 55.545 109.635 55.545C110.864 55.545 111.854 54.3073 111.854 52.7761C111.854 51.245 110.864 49.998 109.635 49.998C108.416 49.998 107.417 51.2358 107.417 52.7761Z" fill="#2C2C2C"/>
<path d="M107.279 50.1456C107.279 50.5673 107.793 50.8974 108.425 50.8974C109.058 50.8974 109.571 50.5581 109.571 50.1456C109.571 49.7238 109.058 49.3937 108.425 49.3937C107.793 49.3846 107.279 49.7238 107.279 50.1456Z" fill="white"/>
<path d="M115.495 45.0937C115.495 45.0937 108.674 38.2906 101.339 46.3681C101.33 46.3681 107.674 42.3064 115.495 45.0937Z" fill="#2C2C2C"/>
<path fill-rule="evenodd" clip-rule="evenodd" d="M74.6031 49.6221V49.8054H73.8696V49.6221H74.6031Z" fill="#2C2C2C"/>
<path fill-rule="evenodd" clip-rule="evenodd" d="M78.4537 51.6406V51.824H77.7202V51.6406H78.4537Z" fill="#2C2C2C"/>
<path d="M99.303 50.5574C100.559 50.8233 100.092 51.6393 100.092 51.7585C100.092 51.8777 100.559 58.6624 106.62 60.4503C112.68 62.2382 116.311 58.7266 117.365 56.9662C118.419 55.2059 119.3 51.025 119.556 50.7041C119.822 50.3832 121.078 49.8239 121.078 49.8239L121.225 48.1828L119.648 47.7152C119.648 47.7152 115.669 45.8998 109.81 45.8173C103.961 45.7256 100.651 49.0996 100.651 49.0996C99.0005 48.577 96.9559 48.5037 95.0855 49.0996C95.0855 49.0996 91.7756 45.7347 85.9261 45.8173C80.0765 45.909 76.0882 47.7152 76.0882 47.7152L74.5112 48.1828L74.6579 49.8239C74.6579 49.8239 75.914 50.3832 76.1799 50.7041C76.4458 51.025 77.3168 55.215 78.3712 56.9662C79.4256 58.7266 83.0563 62.2382 89.1168 60.4503C95.1772 58.6624 95.6448 51.8777 95.6448 51.7585C95.6448 51.6393 95.1772 50.8233 96.4333 50.5574C97.5335 50.3282 98.212 50.3282 99.303 50.5574ZM113.854 59.0475C109.233 61.8256 103.695 59.02 102.026 55.3617C100.357 51.7035 101.76 49.7689 101.76 49.7689C104.547 45.2213 115.806 45.0288 117.741 49.9431C118.071 50.7683 118.474 56.2694 113.854 59.0475ZM77.9953 49.9431C79.9299 45.0196 91.1888 45.2213 93.9761 49.7689C93.9761 49.7689 95.3789 51.7035 93.7102 55.3617C92.0415 59.02 86.5129 61.8256 81.8828 59.0475C77.271 56.2694 77.6744 50.7683 77.9953 49.9431Z" fill="#2C2C2C"/>
<ellipse cx="98.198" cy="71.7544" rx="3.59302" ry="2.51512" fill="white"/>
<path fill-rule="evenodd" clip-rule="evenodd" d="M98.2097 74.1388C100.159 74.1388 101.397 72.9338 101.397 71.821C101.397 70.7082 100.159 69.5031 98.2097 69.5031C96.2603 69.5031 95.0226 70.7082 95.0226 71.821C95.0226 72.9338 96.2603 74.1388 98.2097 74.1388ZM98.2097 74.9115C100.397 74.9115 102.169 73.5278 102.169 71.821C102.169 70.1141 100.397 68.7305 98.2097 68.7305C96.0228 68.7305 94.25 70.1141 94.25 71.821C94.25 73.5278 96.0228 74.9115 98.2097 74.9115Z" fill="#454545"/>
</svg>
