<svg width="333" height="283" viewBox="0 0 333 283" fill="none" xmlns="http://www.w3.org/2000/svg">
<path d="M266.953 101.637C266.953 101.637 256.938 62.8482 196.305 38.3858C135.672 13.9233 81.4264 36.5799 69.06 65.2446C56.6935 93.9092 69.6536 109.388 61.4014 133.868C53.1492 158.347 10.754 189.351 27.8641 226.948C44.9741 264.544 125.039 275.282 189.828 267.525C254.617 259.769 305.234 173.838 266.953 101.637Z" fill="#50BFD7"/>
<path opacity="0.7" d="M266.953 101.637C266.953 101.637 256.938 62.8482 196.305 38.3858C135.672 13.9233 81.4264 36.5799 69.06 65.2446C56.6935 93.9092 69.6536 109.388 61.4014 133.868C53.1492 158.347 10.754 189.351 27.8641 226.948C44.9741 264.544 125.039 275.282 189.828 267.525C254.617 259.769 305.234 173.838 266.953 101.637Z" fill="white"/>
<path fill-rule="evenodd" clip-rule="evenodd" d="M275.452 216.944C275.672 216.92 275.868 217.079 275.892 217.299L279.031 246.768C279.054 246.988 278.895 247.185 278.676 247.208C278.456 247.231 278.26 247.072 278.236 246.853L275.097 217.383C275.074 217.164 275.233 216.967 275.452 216.944Z" fill="#263238"/>
<path d="M275.476 218.17C275.476 218.17 269.839 213.782 269.839 203.748C269.839 193.713 277.358 185.569 277.358 185.569C277.358 185.569 285.511 195.603 283.629 205.629C281.747 215.655 275.476 218.17 275.476 218.17Z" fill="#50BFD7"/>
<path fill-rule="evenodd" clip-rule="evenodd" d="M277.67 185.317L277.36 185.569L277.066 185.297C277.145 185.212 277.256 185.165 277.372 185.169C277.488 185.173 277.597 185.227 277.67 185.317ZM275.478 218.169C275.232 218.485 275.232 218.484 275.232 218.484L275.231 218.484L275.23 218.483L275.225 218.479L275.21 218.467C275.198 218.457 275.18 218.443 275.158 218.424C275.113 218.386 275.048 218.331 274.967 218.257C274.805 218.111 274.577 217.892 274.304 217.599C273.759 217.013 273.037 216.129 272.316 214.926C270.873 212.519 269.44 208.843 269.44 203.747C269.44 198.633 271.355 194.019 273.253 190.697C274.203 189.033 275.154 187.686 275.867 186.755C276.224 186.289 276.522 185.926 276.732 185.68C276.837 185.556 276.919 185.462 276.976 185.397C277.005 185.365 277.027 185.341 277.042 185.324L277.059 185.305L277.064 185.3L277.065 185.298L277.066 185.298C277.066 185.298 277.066 185.297 277.36 185.569C277.67 185.317 277.67 185.317 277.67 185.317L277.67 185.317L277.672 185.319L277.677 185.325L277.695 185.349C277.712 185.369 277.735 185.399 277.766 185.438C277.827 185.516 277.915 185.631 278.027 185.78C278.249 186.079 278.564 186.516 278.936 187.071C279.679 188.18 280.649 189.764 281.561 191.666C283.379 195.46 284.986 200.568 284.023 205.702C283.067 210.793 280.992 213.999 279.137 215.935C278.21 216.902 277.342 217.549 276.701 217.957C276.381 218.161 276.117 218.305 275.931 218.398C275.838 218.445 275.764 218.48 275.712 218.503C275.687 218.515 275.666 218.523 275.652 218.53L275.635 218.537L275.629 218.539L275.628 218.54L275.627 218.54C275.627 218.54 275.626 218.54 275.478 218.169ZM275.478 218.169L275.232 218.485C275.344 218.572 275.494 218.593 275.626 218.54L275.478 218.169ZM275.542 217.699C275.551 217.695 275.561 217.69 275.571 217.685C275.735 217.602 275.976 217.471 276.272 217.282C276.866 216.905 277.683 216.297 278.559 215.382C280.31 213.555 282.311 210.49 283.237 205.555C284.155 200.664 282.627 195.741 280.84 192.012C279.949 190.152 278.999 188.601 278.272 187.515C277.909 186.973 277.601 186.547 277.386 186.258C277.37 186.237 277.355 186.217 277.34 186.198C277.139 186.435 276.85 186.787 276.502 187.241C275.806 188.15 274.876 189.467 273.947 191.093C272.085 194.351 270.24 198.826 270.24 203.747C270.24 208.685 271.626 212.22 273.002 214.515C273.69 215.664 274.377 216.504 274.889 217.055C275.145 217.33 275.357 217.532 275.504 217.665C275.517 217.677 275.53 217.688 275.542 217.699Z" fill="#263238"/>
<path fill-rule="evenodd" clip-rule="evenodd" d="M276.956 194.797C277.176 194.811 277.343 195.001 277.329 195.221L275.893 217.366C275.879 217.586 275.689 217.753 275.469 217.739C275.248 217.725 275.081 217.535 275.096 217.314L276.531 195.17C276.546 194.949 276.736 194.782 276.956 194.797Z" fill="#263238"/>
<path fill-rule="evenodd" clip-rule="evenodd" d="M291.722 223.958C291.91 224.072 291.971 224.318 291.857 224.507C287.961 230.965 284.63 237.748 281.902 244.781C281.822 244.986 281.591 245.088 281.385 245.009C281.179 244.929 281.077 244.697 281.157 244.491C283.902 237.416 287.253 230.592 291.173 224.094C291.287 223.905 291.533 223.844 291.722 223.958Z" fill="#263238"/>
<path d="M288.563 229.63C288.563 229.63 285.432 223.197 289.861 214.218C294.29 205.238 304.641 201.239 304.641 201.239C304.641 201.239 307.52 213.837 301.396 222.005C295.272 230.173 288.563 229.63 288.563 229.63Z" fill="#50BFD7"/>
<path fill-rule="evenodd" clip-rule="evenodd" d="M305.029 201.151L304.639 201.24L304.495 200.868C304.603 200.826 304.724 200.833 304.827 200.888C304.929 200.942 305.003 201.038 305.029 201.151ZM288.562 229.631C288.202 229.806 288.202 229.806 288.202 229.806L288.201 229.803L288.199 229.798L288.191 229.781C288.184 229.766 288.174 229.746 288.162 229.719C288.138 229.665 288.105 229.587 288.065 229.485C287.984 229.282 287.875 228.985 287.759 228.601C287.528 227.835 287.269 226.722 287.152 225.326C286.917 222.53 287.252 218.603 289.501 214.042C291.758 209.466 295.515 206.174 298.686 204.031C300.275 202.958 301.723 202.169 302.775 201.648C303.301 201.387 303.729 201.193 304.026 201.063C304.175 200.999 304.291 200.95 304.37 200.918C304.41 200.901 304.441 200.889 304.462 200.881L304.486 200.871L304.492 200.869L304.494 200.868L304.495 200.868C304.495 200.868 304.495 200.868 304.639 201.24C305.029 201.151 305.029 201.151 305.029 201.151L305.029 201.155L305.031 201.162L305.038 201.192C305.043 201.217 305.051 201.254 305.061 201.303C305.081 201.4 305.11 201.542 305.144 201.725C305.212 202.091 305.301 202.622 305.389 203.284C305.566 204.607 305.736 206.456 305.713 208.565C305.667 212.771 304.85 218.063 301.714 222.246C298.604 226.394 295.332 228.346 292.818 229.258C291.563 229.712 290.501 229.906 289.748 229.986C289.371 230.026 289.072 230.037 288.864 230.038C288.76 230.039 288.679 230.037 288.623 230.035C288.595 230.034 288.573 230.032 288.557 230.031L288.538 230.03L288.533 230.03L288.531 230.03C288.53 230.03 288.529 230.03 288.562 229.631ZM288.562 229.631L288.202 229.806C288.264 229.933 288.389 230.018 288.529 230.03L288.562 229.631ZM288.827 229.239C288.838 229.239 288.849 229.239 288.86 229.239C289.043 229.238 289.315 229.228 289.664 229.191C290.36 229.117 291.358 228.937 292.545 228.506C294.916 227.647 298.06 225.787 301.075 221.767C304.063 217.781 304.868 212.691 304.914 208.556C304.936 206.494 304.77 204.684 304.597 203.389C304.511 202.742 304.424 202.225 304.358 201.871C304.353 201.845 304.349 201.82 304.344 201.797C304.058 201.921 303.643 202.11 303.13 202.364C302.103 202.873 300.687 203.644 299.134 204.694C296.023 206.795 292.39 209.992 290.218 214.396C288.039 218.814 287.724 222.594 287.948 225.259C288.06 226.593 288.307 227.65 288.524 228.37C288.633 228.73 288.734 229.006 288.807 229.19C288.814 229.207 288.821 229.223 288.827 229.239Z" fill="#263238"/>
<path fill-rule="evenodd" clip-rule="evenodd" d="M300.183 210.527C300.371 210.642 300.431 210.888 300.316 211.076L288.903 229.838C288.789 230.027 288.543 230.087 288.354 229.972C288.166 229.857 288.106 229.612 288.22 229.423L299.633 210.661C299.748 210.472 299.994 210.412 300.183 210.527Z" fill="#263238"/>
<path fill-rule="evenodd" clip-rule="evenodd" d="M262.062 223.066C262.253 222.955 262.498 223.02 262.609 223.211L267 230.777C269.897 235.968 272.22 241.459 273.929 247.153C273.992 247.364 273.873 247.587 273.661 247.651C273.45 247.714 273.227 247.594 273.164 247.383C271.471 241.746 269.171 236.309 266.304 231.169L261.917 223.612C261.807 223.421 261.871 223.177 262.062 223.066Z" fill="#263238"/>
<path d="M265.792 229.256C262.33 230.32 258.654 230.489 255.108 229.749C251.562 229.008 248.261 227.382 245.513 225.022C235.779 216.845 236.323 200.16 236.323 200.16C236.323 200.16 255.191 197.467 262.807 208.158C265.015 211.151 266.444 214.647 266.965 218.33C267.487 222.013 267.083 225.768 265.792 229.256Z" fill="#50BFD7"/>
<path fill-rule="evenodd" clip-rule="evenodd" d="M236.323 200.162C235.924 200.149 235.924 200.149 235.924 200.149L235.924 200.153L235.923 200.163L235.922 200.201C235.922 200.234 235.921 200.283 235.92 200.346C235.918 200.473 235.917 200.659 235.919 200.898C235.923 201.377 235.94 202.067 235.991 202.921C236.093 204.627 236.332 206.988 236.877 209.608C237.965 214.835 240.288 221.155 245.255 225.329C248.054 227.732 251.415 229.388 255.027 230.142C258.639 230.896 262.383 230.724 265.91 229.64L265.793 229.258L266.167 229.397C267.481 225.846 267.892 222.025 267.361 218.276C266.831 214.528 265.377 210.972 263.131 207.925C259.222 202.441 252.458 200.422 246.755 199.755C243.894 199.42 241.275 199.423 239.372 199.509C238.42 199.552 237.646 199.616 237.109 199.669C236.841 199.696 236.631 199.72 236.488 199.738C236.417 199.746 236.362 199.753 236.325 199.758L236.282 199.764L236.271 199.766L236.267 199.766C236.267 199.766 236.267 199.766 236.323 200.162ZM236.718 200.515C236.717 200.619 236.717 200.744 236.718 200.891C236.722 201.357 236.739 202.034 236.789 202.873C236.889 204.551 237.124 206.872 237.659 209.445C238.733 214.605 241.005 220.715 245.771 224.718L245.774 224.721C248.471 227.037 251.71 228.633 255.19 229.36C258.605 230.073 262.143 229.926 265.486 228.934C266.7 225.56 267.073 221.94 266.57 218.388C266.058 214.771 264.655 211.337 262.486 208.397L262.482 208.392C258.774 203.187 252.298 201.208 246.663 200.549C243.855 200.22 241.281 200.223 239.408 200.307C238.472 200.35 237.713 200.413 237.188 200.465C237 200.483 236.842 200.501 236.718 200.515ZM236.323 200.162L236.267 199.766C236.075 199.794 235.93 199.955 235.924 200.149L236.323 200.162Z" fill="#263238"/>
<path fill-rule="evenodd" clip-rule="evenodd" d="M243.151 205.665C243.31 205.512 243.563 205.517 243.716 205.677L266.08 228.981C266.233 229.141 266.228 229.394 266.068 229.546C265.909 229.699 265.656 229.694 265.503 229.535L243.14 206.23C242.987 206.071 242.992 205.818 243.151 205.665Z" fill="#263238"/>
<path d="M288.95 240.501H265.077V263.911H288.95V240.501Z" fill="#263238"/>
<path fill-rule="evenodd" clip-rule="evenodd" d="M264.679 240.498C264.679 240.278 264.858 240.099 265.078 240.099H288.951C289.172 240.099 289.351 240.278 289.351 240.498V263.908C289.351 264.129 289.172 264.308 288.951 264.308H265.078C264.858 264.308 264.679 264.129 264.679 263.908V240.498ZM265.478 240.898V263.509H288.551V240.898H265.478Z" fill="#263238"/>
<path opacity="0.3" d="M327.463 8.61133H158.361V157.819H327.463V8.61133Z" fill="black"/>
<path d="M331.708 0.987305H162.606V150.195H331.708V0.987305Z" fill="white"/>
<path fill-rule="evenodd" clip-rule="evenodd" d="M161.618 0.987643C161.618 0.442183 162.06 0 162.606 0H331.708C332.253 0 332.695 0.442183 332.695 0.987643V150.195C332.695 150.741 332.253 151.183 331.708 151.183H162.606C162.06 151.183 161.618 150.741 161.618 150.195V0.987643ZM163.593 1.97529V149.208H330.72V1.97529H163.593Z" fill="#263238"/>
<path d="M331.708 0.987305H162.606V11.6507H331.708V0.987305Z" fill="#263238"/>
<path fill-rule="evenodd" clip-rule="evenodd" d="M161.618 0.987643C161.618 0.442183 162.06 0 162.606 0H331.708C332.253 0 332.695 0.442183 332.695 0.987643V11.651C332.695 12.1965 332.253 12.6387 331.708 12.6387H162.606C162.06 12.6387 161.618 12.1965 161.618 11.651V0.987643ZM163.593 1.97529V10.6634H330.72V1.97529H163.593Z" fill="#263238"/>
<path d="M236.586 64.8888V49.159C236.586 46.2993 237.722 43.5566 239.744 41.5345C241.767 39.5123 244.509 38.3763 247.369 38.3763C250.229 38.3763 252.971 39.5123 254.994 41.5345C257.016 43.5566 258.152 46.2993 258.152 49.159V58.3502H262.449V49.159C262.449 45.1596 260.86 41.3239 258.032 38.4959C255.204 35.6679 251.368 34.0791 247.369 34.0791C243.37 34.0791 239.534 35.6679 236.706 38.4959C233.878 41.3239 232.289 45.1596 232.289 49.159V64.8888H236.586Z" fill="white"/>
<path d="M306.11 101.691H188.19C185.26 101.691 182.885 104.067 182.885 106.997V119.583C182.885 122.513 185.26 124.888 188.19 124.888H306.11C309.04 124.888 311.416 122.513 311.416 119.583V106.997C311.416 104.067 309.04 101.691 306.11 101.691Z" fill="white"/>
<path fill-rule="evenodd" clip-rule="evenodd" d="M188.189 102.681C185.805 102.681 183.872 104.614 183.872 106.999V119.585C183.872 121.97 185.805 123.903 188.189 123.903H306.11C308.494 123.903 310.427 121.97 310.427 119.585V106.999C310.427 104.614 308.494 102.681 306.11 102.681H188.189ZM181.896 106.999C181.896 103.523 184.714 100.706 188.189 100.706H306.11C309.585 100.706 312.403 103.523 312.403 106.999V119.585C312.403 123.061 309.585 125.878 306.11 125.878H188.189C184.714 125.878 181.896 123.061 181.896 119.585V106.999Z" fill="#263238"/>
<path d="M195.365 114.028C195.182 113.994 195.01 113.92 194.86 113.812C194.71 113.703 194.586 113.562 194.497 113.4C194.408 113.237 194.356 113.057 194.346 112.872C194.335 112.687 194.366 112.502 194.436 112.33L194.503 112.158C194.556 111.987 194.645 111.83 194.764 111.697C194.883 111.564 195.029 111.458 195.192 111.387C195.356 111.315 195.533 111.279 195.711 111.282C195.89 111.284 196.066 111.325 196.227 111.402C197.308 111.819 198.337 112.362 199.291 113.02C198.952 111.872 198.756 110.687 198.707 109.492C198.696 109.311 198.722 109.13 198.784 108.96C198.846 108.79 198.942 108.634 199.066 108.502C199.19 108.37 199.34 108.266 199.507 108.194C199.673 108.122 199.852 108.086 200.033 108.086H200.219C200.4 108.086 200.579 108.122 200.746 108.194C200.912 108.266 201.062 108.37 201.186 108.502C201.31 108.634 201.406 108.79 201.468 108.96C201.53 109.13 201.556 109.311 201.545 109.492C201.495 110.686 201.303 111.87 200.975 113.02C201.931 112.373 202.954 111.83 204.025 111.402C204.188 111.323 204.366 111.282 204.547 111.28C204.727 111.277 204.906 111.315 205.071 111.39C205.235 111.464 205.381 111.574 205.498 111.711C205.616 111.849 205.701 112.01 205.75 112.184V112.304C205.827 112.474 205.865 112.661 205.86 112.848C205.855 113.036 205.807 113.22 205.72 113.386C205.633 113.552 205.509 113.696 205.358 113.808C205.207 113.919 205.032 113.994 204.848 114.028C203.735 114.326 202.591 114.495 201.439 114.532C202.382 115.225 203.238 116.032 203.986 116.932C204.095 117.069 204.176 117.226 204.225 117.394C204.274 117.562 204.288 117.738 204.269 117.912C204.249 118.085 204.195 118.254 204.11 118.406C204.025 118.559 203.911 118.694 203.773 118.802L203.628 118.922C203.485 119.042 203.317 119.13 203.137 119.177C202.956 119.224 202.767 119.23 202.583 119.194C202.4 119.159 202.227 119.082 202.077 118.971C201.927 118.859 201.805 118.716 201.718 118.55C201.08 117.572 200.551 116.527 200.139 115.434C199.705 116.524 199.163 117.568 198.521 118.55C198.434 118.716 198.312 118.859 198.162 118.971C198.012 119.082 197.839 119.159 197.656 119.194C197.472 119.23 197.283 119.224 197.102 119.177C196.922 119.13 196.754 119.042 196.611 118.922L196.479 118.802C196.341 118.695 196.225 118.561 196.139 118.409C196.053 118.256 195.997 118.088 195.976 117.914C195.956 117.74 195.969 117.564 196.017 117.396C196.064 117.227 196.145 117.07 196.253 116.932C197.019 116.031 197.877 115.213 198.813 114.492C197.649 114.486 196.49 114.33 195.365 114.028Z" fill="#263238"/>
<path d="M208.812 114.028C208.63 113.994 208.457 113.92 208.307 113.812C208.157 113.703 208.033 113.562 207.944 113.4C207.855 113.237 207.803 113.057 207.793 112.872C207.783 112.687 207.814 112.502 207.884 112.33L207.95 112.158C208.003 111.987 208.092 111.83 208.211 111.697C208.33 111.564 208.476 111.458 208.64 111.387C208.803 111.315 208.98 111.279 209.159 111.282C209.337 111.284 209.513 111.325 209.674 111.402C210.756 111.819 211.784 112.362 212.738 113.02C212.399 111.872 212.203 110.687 212.154 109.492C212.143 109.311 212.17 109.13 212.231 108.96C212.293 108.79 212.389 108.634 212.513 108.502C212.638 108.37 212.788 108.266 212.954 108.194C213.12 108.122 213.3 108.086 213.481 108.086H213.587C213.768 108.086 213.947 108.122 214.113 108.194C214.28 108.266 214.43 108.37 214.554 108.502C214.678 108.634 214.774 108.79 214.836 108.96C214.898 109.13 214.924 109.311 214.913 109.492C214.862 110.686 214.671 111.87 214.343 113.02C215.299 112.373 216.321 111.83 217.393 111.402C217.558 111.336 217.735 111.304 217.913 111.308C218.09 111.312 218.266 111.352 218.428 111.425C218.59 111.498 218.735 111.603 218.856 111.733C218.977 111.864 219.07 112.017 219.131 112.184V112.304C219.208 112.474 219.246 112.661 219.241 112.848C219.236 113.036 219.188 113.22 219.101 113.386C219.014 113.552 218.89 113.696 218.739 113.808C218.588 113.919 218.413 113.994 218.229 114.028C217.116 114.326 215.972 114.495 214.82 114.532C215.763 115.225 216.619 116.032 217.367 116.932C217.476 117.069 217.557 117.226 217.606 117.394C217.655 117.562 217.669 117.738 217.65 117.912C217.63 118.085 217.576 118.254 217.491 118.406C217.406 118.559 217.292 118.694 217.154 118.802L217.009 118.922C216.867 119.042 216.7 119.13 216.521 119.177C216.341 119.224 216.153 119.23 215.971 119.194C215.788 119.159 215.616 119.082 215.468 118.971C215.319 118.859 215.197 118.715 215.112 118.55C214.464 117.576 213.93 116.53 213.52 115.434C213.086 116.524 212.544 117.568 211.902 118.55C211.815 118.716 211.693 118.859 211.543 118.971C211.393 119.082 211.22 119.159 211.037 119.194C210.853 119.23 210.664 119.224 210.483 119.177C210.303 119.13 210.135 119.042 209.992 118.922L209.86 118.802C209.722 118.695 209.606 118.561 209.52 118.409C209.434 118.256 209.378 118.088 209.357 117.914C209.336 117.74 209.35 117.564 209.398 117.396C209.445 117.227 209.526 117.07 209.634 116.932C210.4 116.031 211.258 115.213 212.194 114.492C211.052 114.48 209.915 114.324 208.812 114.028Z" fill="#263238"/>
<path d="M222.263 114.028C222.087 113.982 221.923 113.901 221.78 113.79C221.637 113.679 221.518 113.539 221.431 113.38C221.344 113.221 221.291 113.046 221.274 112.865C221.258 112.684 221.278 112.502 221.335 112.33V112.158C221.388 111.987 221.477 111.83 221.596 111.697C221.715 111.564 221.861 111.458 222.024 111.387C222.188 111.315 222.365 111.279 222.543 111.282C222.722 111.284 222.898 111.325 223.059 111.402C224.14 111.819 225.169 112.362 226.123 113.02C225.789 111.872 225.597 110.687 225.552 109.492C225.541 109.311 225.568 109.13 225.629 108.96C225.691 108.79 225.787 108.634 225.911 108.502C226.036 108.37 226.186 108.266 226.352 108.194C226.518 108.122 226.697 108.086 226.879 108.086H227.064C227.245 108.086 227.425 108.122 227.591 108.194C227.757 108.266 227.907 108.37 228.031 108.502C228.156 108.634 228.252 108.79 228.313 108.96C228.375 109.13 228.401 109.311 228.391 109.492C228.34 110.686 228.149 111.87 227.82 113.02C228.776 112.373 229.799 111.83 230.871 111.402C231.036 111.336 231.213 111.304 231.39 111.308C231.568 111.312 231.743 111.352 231.905 111.425C232.067 111.498 232.213 111.603 232.334 111.733C232.454 111.864 232.548 112.017 232.608 112.184V112.304C232.686 112.473 232.724 112.659 232.72 112.845C232.715 113.032 232.668 113.216 232.583 113.382C232.497 113.548 232.375 113.692 232.226 113.804C232.076 113.916 231.903 113.992 231.72 114.028C230.602 114.324 229.454 114.494 228.298 114.532C229.241 115.225 230.096 116.032 230.844 116.932C230.954 117.069 231.035 117.226 231.084 117.394C231.132 117.562 231.147 117.738 231.127 117.912C231.108 118.085 231.054 118.254 230.969 118.406C230.884 118.559 230.769 118.694 230.632 118.802L230.486 118.922C230.345 119.042 230.178 119.13 229.998 119.177C229.819 119.224 229.63 119.23 229.448 119.194C229.266 119.159 229.094 119.082 228.945 118.971C228.796 118.859 228.675 118.715 228.589 118.55C227.947 117.573 227.413 116.527 226.998 115.434C226.564 116.524 226.022 117.568 225.38 118.55C225.294 118.715 225.173 118.859 225.024 118.971C224.876 119.082 224.704 119.159 224.521 119.194C224.339 119.23 224.151 119.224 223.971 119.177C223.791 119.13 223.625 119.042 223.483 118.922L223.337 118.802C223.199 118.695 223.084 118.561 222.997 118.409C222.911 118.256 222.856 118.088 222.835 117.914C222.814 117.74 222.828 117.564 222.875 117.396C222.923 117.227 223.003 117.07 223.112 116.932C223.877 116.031 224.735 115.213 225.672 114.492C224.52 114.482 223.375 114.326 222.263 114.028Z" fill="#263238"/>
<path d="M235.71 114.028C235.535 113.982 235.37 113.901 235.227 113.79C235.084 113.679 234.965 113.539 234.878 113.38C234.791 113.221 234.738 113.046 234.721 112.865C234.705 112.684 234.725 112.502 234.782 112.33V112.158C234.835 111.987 234.924 111.83 235.043 111.697C235.162 111.564 235.308 111.458 235.472 111.387C235.635 111.315 235.812 111.279 235.991 111.282C236.169 111.284 236.345 111.325 236.506 111.402C237.587 111.819 238.616 112.362 239.57 113.02C239.242 111.87 239.05 110.686 239 109.492C238.989 109.311 239.015 109.13 239.077 108.96C239.138 108.79 239.234 108.634 239.359 108.502C239.483 108.37 239.633 108.266 239.799 108.194C239.966 108.122 240.145 108.086 240.326 108.086H240.511C240.693 108.086 240.872 108.122 241.038 108.194C241.204 108.266 241.354 108.37 241.479 108.502C241.603 108.634 241.699 108.79 241.761 108.96C241.822 109.13 241.849 109.311 241.838 109.492C241.787 110.686 241.596 111.87 241.267 113.02C242.223 112.373 243.246 111.83 244.318 111.402C244.483 111.336 244.66 111.304 244.838 111.308C245.015 111.312 245.19 111.352 245.352 111.425C245.515 111.498 245.66 111.603 245.781 111.733C245.902 111.864 245.995 112.017 246.055 112.184V112.304C246.133 112.473 246.171 112.659 246.167 112.845C246.162 113.032 246.116 113.216 246.03 113.382C245.944 113.548 245.822 113.692 245.673 113.804C245.523 113.916 245.35 113.992 245.167 114.028C244.049 114.324 242.901 114.494 241.745 114.532C242.688 115.225 243.543 116.032 244.291 116.932C244.401 117.069 244.482 117.226 244.531 117.394C244.579 117.562 244.594 117.738 244.574 117.912C244.555 118.085 244.501 118.254 244.416 118.406C244.331 118.559 244.216 118.694 244.079 118.802L243.933 118.922C243.792 119.042 243.625 119.13 243.446 119.177C243.266 119.224 243.078 119.23 242.895 119.194C242.713 119.159 242.541 119.082 242.392 118.971C242.244 118.859 242.122 118.715 242.037 118.55C241.394 117.573 240.86 116.527 240.445 115.434C239.999 116.525 239.443 117.57 238.787 118.55C238.702 118.715 238.58 118.859 238.432 118.971C238.283 119.082 238.111 119.159 237.929 119.194C237.746 119.23 237.558 119.224 237.379 119.177C237.199 119.13 237.032 119.042 236.891 118.922L236.745 118.802C236.607 118.695 236.491 118.561 236.405 118.409C236.319 118.256 236.263 118.088 236.242 117.914C236.222 117.74 236.235 117.564 236.283 117.396C236.33 117.227 236.411 117.07 236.519 116.932C237.285 116.031 238.143 115.213 239.079 114.492C237.941 114.479 236.809 114.323 235.71 114.028Z" fill="#263238"/>
<path d="M249.159 114.028C248.983 113.982 248.819 113.901 248.676 113.79C248.532 113.679 248.414 113.539 248.327 113.38C248.24 113.221 248.186 113.046 248.17 112.865C248.153 112.684 248.174 112.502 248.23 112.33L248.297 112.158C248.359 111.993 248.455 111.842 248.577 111.715C248.698 111.587 248.845 111.485 249.006 111.415C249.168 111.344 249.342 111.307 249.519 111.305C249.695 111.302 249.87 111.335 250.034 111.402C251.11 111.822 252.133 112.365 253.084 113.02C252.756 111.87 252.565 110.686 252.514 109.492C252.503 109.311 252.529 109.13 252.591 108.96C252.653 108.79 252.749 108.634 252.873 108.502C252.998 108.37 253.147 108.266 253.314 108.194C253.48 108.122 253.659 108.086 253.84 108.086H254.026C254.207 108.086 254.386 108.122 254.553 108.194C254.719 108.266 254.869 108.37 254.993 108.502C255.117 108.634 255.213 108.79 255.275 108.96C255.337 109.13 255.363 109.311 255.352 109.492C255.302 110.686 255.11 111.87 254.782 113.02C255.738 112.373 256.761 111.83 257.833 111.402C257.998 111.336 258.174 111.304 258.352 111.308C258.53 111.312 258.705 111.352 258.867 111.425C259.029 111.498 259.175 111.603 259.296 111.733C259.416 111.864 259.51 112.017 259.57 112.184V112.304C259.648 112.473 259.686 112.659 259.681 112.845C259.677 113.032 259.63 113.216 259.545 113.382C259.459 113.548 259.337 113.692 259.187 113.804C259.038 113.916 258.865 113.992 258.681 114.028C257.563 114.324 256.416 114.494 255.26 114.532C256.203 115.225 257.058 116.032 257.806 116.932C257.915 117.069 257.997 117.226 258.045 117.394C258.094 117.562 258.109 117.738 258.089 117.912C258.069 118.085 258.015 118.254 257.93 118.406C257.845 118.559 257.731 118.694 257.594 118.802L257.448 118.922C257.307 119.042 257.14 119.13 256.96 119.177C256.78 119.224 256.592 119.23 256.41 119.194C256.228 119.159 256.056 119.082 255.907 118.971C255.758 118.859 255.637 118.715 255.551 118.55C254.909 117.573 254.375 116.527 253.96 115.434C253.526 116.524 252.984 117.568 252.342 118.55C252.256 118.715 252.135 118.859 251.986 118.971C251.837 119.082 251.665 119.159 251.483 119.194C251.301 119.23 251.113 119.224 250.933 119.177C250.753 119.13 250.586 119.042 250.445 118.922L250.299 118.802C250.152 118.701 250.029 118.57 249.937 118.417C249.845 118.264 249.787 118.093 249.767 117.916C249.747 117.738 249.765 117.559 249.82 117.389C249.875 117.22 249.966 117.064 250.087 116.932C250.844 116.028 251.698 115.21 252.633 114.492C251.46 114.488 250.292 114.332 249.159 114.028Z" fill="#263238"/>
<path d="M262.66 114.028C262.484 113.982 262.32 113.901 262.176 113.79C262.033 113.679 261.915 113.539 261.828 113.38C261.741 113.221 261.687 113.046 261.671 112.865C261.654 112.684 261.675 112.502 261.731 112.33L261.797 112.158C261.86 111.993 261.956 111.842 262.078 111.715C262.199 111.587 262.346 111.485 262.507 111.415C262.669 111.344 262.843 111.307 263.02 111.305C263.196 111.302 263.371 111.335 263.535 111.402C264.611 111.822 265.634 112.365 266.585 113.02C266.257 111.87 266.066 110.686 266.015 109.492C266.004 109.311 266.03 109.13 266.092 108.96C266.154 108.79 266.25 108.634 266.374 108.502C266.498 108.37 266.648 108.266 266.815 108.194C266.981 108.122 267.16 108.086 267.341 108.086H267.527C267.708 108.086 267.887 108.122 268.054 108.194C268.22 108.266 268.37 108.37 268.494 108.502C268.618 108.634 268.714 108.79 268.776 108.96C268.838 109.13 268.864 109.311 268.853 109.492C268.803 110.686 268.611 111.87 268.283 113.02C269.242 112.37 270.269 111.827 271.347 111.402C271.51 111.326 271.687 111.286 271.867 111.285C272.047 111.284 272.225 111.322 272.389 111.396C272.553 111.471 272.698 111.58 272.816 111.716C272.934 111.852 273.021 112.011 273.071 112.184V112.304C273.149 112.473 273.187 112.659 273.182 112.845C273.178 113.032 273.131 113.216 273.046 113.382C272.96 113.548 272.838 113.692 272.688 113.804C272.539 113.916 272.366 113.992 272.182 114.028C271.065 114.325 269.917 114.495 268.76 114.532C269.705 115.229 270.564 116.035 271.32 116.932C271.429 117.07 271.509 117.227 271.557 117.396C271.604 117.564 271.618 117.74 271.597 117.914C271.576 118.088 271.521 118.256 271.435 118.409C271.349 118.561 271.233 118.695 271.095 118.802L270.949 118.922C270.808 119.042 270.641 119.13 270.461 119.177C270.281 119.224 270.093 119.23 269.911 119.194C269.728 119.159 269.557 119.082 269.408 118.971C269.259 118.859 269.138 118.715 269.052 118.55C268.41 117.573 267.876 116.527 267.461 115.434C267.027 116.524 266.485 117.568 265.843 118.55C265.757 118.715 265.636 118.859 265.487 118.971C265.338 119.082 265.166 119.159 264.984 119.194C264.802 119.23 264.614 119.224 264.434 119.177C264.254 119.13 264.087 119.042 263.946 118.922L263.8 118.802C263.653 118.701 263.53 118.57 263.438 118.417C263.346 118.264 263.288 118.093 263.268 117.916C263.248 117.738 263.266 117.559 263.321 117.389C263.376 117.22 263.467 117.064 263.588 116.932C264.345 116.028 265.199 115.21 266.134 114.492C264.961 114.488 263.793 114.332 262.66 114.028Z" fill="#263238"/>
<path d="M276.07 114.028C275.893 113.984 275.728 113.904 275.583 113.793C275.439 113.682 275.318 113.543 275.23 113.384C275.142 113.225 275.087 113.049 275.07 112.868C275.052 112.686 275.072 112.503 275.129 112.33L275.195 112.158C275.258 111.993 275.353 111.842 275.475 111.715C275.597 111.587 275.743 111.485 275.905 111.415C276.067 111.344 276.241 111.307 276.417 111.305C276.594 111.302 276.769 111.335 276.932 111.402C278.008 111.822 279.032 112.365 279.983 113.02C279.655 111.87 279.463 110.686 279.413 109.492C279.402 109.311 279.428 109.13 279.49 108.96C279.551 108.79 279.647 108.634 279.772 108.502C279.896 108.37 280.046 108.266 280.212 108.194C280.379 108.122 280.558 108.086 280.739 108.086H280.924C281.106 108.086 281.285 108.122 281.451 108.194C281.617 108.266 281.767 108.37 281.892 108.502C282.016 108.634 282.112 108.79 282.174 108.96C282.235 109.13 282.262 109.311 282.251 109.492C282.202 110.687 282.006 111.872 281.667 113.02C282.626 112.37 283.653 111.827 284.731 111.402C284.894 111.326 285.072 111.286 285.251 111.285C285.431 111.284 285.609 111.322 285.773 111.396C285.937 111.471 286.083 111.58 286.2 111.716C286.318 111.852 286.405 112.011 286.455 112.184V112.304C286.533 112.474 286.57 112.661 286.565 112.848C286.56 113.036 286.512 113.22 286.425 113.386C286.338 113.552 286.215 113.696 286.063 113.808C285.912 113.919 285.738 113.994 285.553 114.028C284.436 114.325 283.287 114.495 282.131 114.532C283.076 115.229 283.935 116.035 284.691 116.932C284.8 117.07 284.88 117.227 284.928 117.396C284.975 117.564 284.989 117.74 284.968 117.914C284.947 118.088 284.892 118.256 284.806 118.409C284.719 118.561 284.604 118.695 284.466 118.802L284.333 118.922C284.191 119.042 284.023 119.13 283.842 119.177C283.661 119.224 283.472 119.23 283.289 119.194C283.106 119.159 282.933 119.082 282.783 118.971C282.633 118.859 282.51 118.716 282.423 118.55C281.78 117.575 281.251 116.529 280.845 115.434C280.407 116.525 279.86 117.569 279.214 118.55C279.128 118.715 279.007 118.859 278.858 118.971C278.709 119.082 278.537 119.159 278.355 119.194C278.173 119.23 277.985 119.224 277.805 119.177C277.625 119.13 277.458 119.042 277.317 118.922L277.171 118.802C277.024 118.701 276.9 118.57 276.809 118.417C276.717 118.264 276.659 118.093 276.639 117.916C276.619 117.738 276.637 117.559 276.692 117.389C276.747 117.22 276.838 117.064 276.959 116.932C277.716 116.028 278.57 115.21 279.505 114.492C278.345 114.487 277.19 114.331 276.07 114.028Z" fill="#263238"/>
<path d="M289.518 114.028C289.341 113.984 289.175 113.904 289.03 113.793C288.886 113.682 288.766 113.543 288.677 113.384C288.589 113.225 288.534 113.049 288.517 112.868C288.499 112.686 288.519 112.503 288.576 112.33V112.158C288.639 111.993 288.734 111.842 288.856 111.715C288.978 111.587 289.124 111.485 289.286 111.415C289.448 111.344 289.622 111.307 289.798 111.305C289.975 111.302 290.15 111.335 290.313 111.402C291.389 111.822 292.413 112.365 293.364 113.02C293.035 111.87 292.844 110.686 292.793 109.492C292.783 109.311 292.809 109.13 292.871 108.96C292.932 108.79 293.028 108.634 293.153 108.502C293.277 108.37 293.427 108.266 293.593 108.194C293.759 108.122 293.939 108.086 294.12 108.086H294.305C294.486 108.086 294.666 108.122 294.832 108.194C294.998 108.266 295.148 108.37 295.273 108.502C295.397 108.634 295.493 108.79 295.555 108.96C295.616 109.13 295.643 109.311 295.632 109.492C295.583 110.687 295.387 111.872 295.048 113.02C296.007 112.37 297.034 111.827 298.112 111.402C298.275 111.326 298.452 111.286 298.632 111.285C298.812 111.284 298.99 111.322 299.154 111.396C299.318 111.471 299.464 111.58 299.581 111.716C299.699 111.852 299.786 112.011 299.836 112.184V112.304C299.914 112.474 299.951 112.661 299.946 112.848C299.941 113.036 299.893 113.22 299.806 113.386C299.719 113.552 299.596 113.696 299.444 113.808C299.293 113.919 299.119 113.994 298.934 114.028C297.816 114.325 296.668 114.495 295.512 114.532C296.457 115.229 297.316 116.035 298.072 116.932C298.181 117.07 298.261 117.227 298.309 117.396C298.356 117.564 298.37 117.74 298.349 117.914C298.328 118.088 298.273 118.256 298.187 118.409C298.1 118.561 297.985 118.695 297.847 118.802L297.701 118.922C297.559 119.042 297.393 119.13 297.213 119.177C297.033 119.224 296.845 119.23 296.663 119.194C296.48 119.159 296.308 119.082 296.16 118.971C296.011 118.859 295.889 118.715 295.804 118.55C295.161 117.575 294.632 116.529 294.226 115.434C293.788 116.525 293.241 117.569 292.595 118.55C292.509 118.715 292.388 118.859 292.239 118.971C292.09 119.082 291.918 119.159 291.736 119.194C291.554 119.23 291.365 119.224 291.186 119.177C291.006 119.13 290.839 119.042 290.698 118.922L290.552 118.802C290.405 118.701 290.281 118.57 290.19 118.417C290.098 118.264 290.04 118.093 290.02 117.916C290 117.738 290.018 117.559 290.073 117.389C290.128 117.22 290.219 117.064 290.34 116.932C291.097 116.028 291.951 115.21 292.886 114.492C291.748 114.481 290.616 114.325 289.518 114.028Z" fill="#263238"/>
<path d="M169.868 245.133C160.763 244.3 151.771 243.96 151.771 243.96C148.467 244.061 141.429 244.351 134.165 245.133C136.284 252.372 143.472 257.707 152.01 257.707C160.561 257.719 167.75 252.359 169.868 245.133Z" fill="#50BFD7"/>
<path d="M159.479 258.289C159.479 258.604 159.756 258.97 160.084 258.932C163.805 258.541 166.655 255.666 170.325 256.271C166.642 258.1 163.451 261.278 163.905 265.957C163.956 266.537 164.511 266.764 164.94 266.411C167.575 264.166 170.602 262.161 174.133 262.905C175.647 263.22 177.425 263.813 178.989 263.611C181.322 263.321 183.289 262.261 184.45 260.004C186.493 256.094 185.736 251.403 181.158 250.432C181.044 250.407 180.956 250.419 180.855 250.457C179.165 249.789 177.627 248.944 176.265 247.468C174.953 246.03 173.73 244.441 172.305 243.117C170.4 241.339 168.332 239.939 165.81 241.137C165.431 241.314 165.457 241.856 165.696 242.146C166.806 243.521 168.105 244.832 169.467 246.093C168.105 245.778 166.73 245.614 165.318 245.728C162.796 245.942 159.819 247.619 159.882 250.621C159.895 250.999 160.16 251.226 160.488 251.264C162.808 251.504 165.141 251.466 167.449 251.706C163.855 252.765 159.441 253.976 159.479 258.289Z" fill="#C4C4C4"/>
<path fill-rule="evenodd" clip-rule="evenodd" d="M169.473 240.54C170.635 240.999 171.685 241.849 172.647 242.747C173.611 243.642 174.501 244.676 175.365 245.678C175.793 246.175 176.214 246.664 176.635 247.126C177.888 248.482 179.301 249.284 180.887 249.926C181.002 249.907 181.126 249.907 181.263 249.937C183.734 250.462 185.214 252.014 185.771 253.977C186.319 255.91 185.962 258.193 184.896 260.235C183.643 262.671 181.51 263.804 179.051 264.11C178.189 264.221 177.291 264.111 176.444 263.945C176.018 263.862 175.596 263.762 175.192 263.666C175.149 263.655 175.106 263.645 175.064 263.635C174.703 263.548 174.359 263.466 174.029 263.397L174.028 263.397C170.754 262.707 167.899 264.55 165.265 266.793L165.262 266.796L165.259 266.799C164.916 267.081 164.472 267.164 164.08 266.996C163.689 266.828 163.442 266.45 163.402 266.002C162.991 261.759 165.407 258.713 168.455 256.749C167.44 256.887 166.453 257.254 165.418 257.691C165.188 257.788 164.956 257.889 164.72 257.992C163.32 258.6 161.81 259.256 160.138 259.432C159.761 259.474 159.459 259.281 159.277 259.074C159.097 258.867 158.974 258.583 158.973 258.29C158.953 255.914 160.179 254.389 161.832 253.349C162.703 252.8 163.708 252.377 164.726 252.022C164.468 252.01 164.21 251.999 163.95 251.987L163.939 251.987C162.783 251.937 161.609 251.886 160.434 251.765L160.431 251.764L160.428 251.764C159.889 251.702 159.399 251.3 159.377 250.636L159.377 250.633L159.377 250.63C159.341 248.938 160.17 247.628 161.319 246.73C162.458 245.841 163.929 245.338 165.274 245.224L165.275 245.224L165.276 245.223C166.167 245.152 167.04 245.186 167.899 245.295C166.973 244.384 166.093 243.441 165.304 242.463C165.101 242.216 164.998 241.883 165.016 241.569C165.035 241.243 165.194 240.867 165.593 240.679C166.991 240.016 168.285 240.071 169.473 240.54ZM166.03 241.589C166.028 241.596 166.025 241.608 166.024 241.626C166.022 241.657 166.026 241.696 166.039 241.736C166.052 241.776 166.069 241.806 166.084 241.823L166.086 241.826L166.087 241.828C167.176 243.176 168.456 244.469 169.808 245.722L171.201 247.012L169.352 246.583C168.025 246.276 166.705 246.121 165.358 246.229C164.181 246.329 162.903 246.773 161.94 247.525C160.987 248.27 160.359 249.298 160.385 250.605C160.388 250.672 160.409 250.699 160.422 250.712C160.44 250.73 160.477 250.753 160.542 250.761C161.683 250.879 162.831 250.929 163.994 250.979L163.998 250.98C165.156 251.03 166.33 251.081 167.5 251.202L170.04 251.466L167.59 252.188C167.528 252.207 167.465 252.225 167.402 252.244C165.639 252.763 163.795 253.306 162.369 254.203C160.926 255.111 159.965 256.347 159.982 258.283L159.982 258.285V258.287C159.982 258.294 159.984 258.312 159.994 258.339C160.005 258.366 160.02 258.39 160.037 258.409C160.043 258.417 160.049 258.422 160.054 258.426C161.551 258.264 162.895 257.682 164.294 257.076C164.536 256.971 164.779 256.866 165.025 256.762C166.67 256.066 168.417 255.444 170.405 255.772L171.948 256.026L170.548 256.721C166.944 258.511 163.982 261.535 164.406 265.906L164.406 265.909L164.407 265.911C164.412 265.979 164.431 266.018 164.444 266.038C164.458 266.058 164.47 266.065 164.478 266.069C164.486 266.072 164.498 266.075 164.518 266.072C164.537 266.068 164.571 266.057 164.615 266.022C167.252 263.777 170.449 261.612 174.235 262.409C174.581 262.482 174.941 262.568 175.299 262.654C175.341 262.664 175.384 262.674 175.427 262.684C175.831 262.781 176.234 262.876 176.638 262.955C177.448 263.114 178.221 263.2 178.923 263.109L178.924 263.109L178.925 263.109C181.131 262.835 182.932 261.849 184 259.772L184 259.77L184.001 259.769C184.977 257.901 185.263 255.884 184.8 254.252C184.345 252.65 183.158 251.371 181.052 250.924L181.05 250.923L181.047 250.923C181.047 250.923 181.047 250.923 181.046 250.923C181.043 250.924 181.038 250.925 181.031 250.928L180.849 250.996L180.668 250.925C178.937 250.24 177.324 249.359 175.893 247.809L175.892 247.808L175.891 247.807C175.427 247.298 174.985 246.785 174.547 246.276C173.708 245.301 172.885 244.345 171.96 243.485L171.959 243.484C171.016 242.604 170.081 241.865 169.102 241.479C168.151 241.103 167.151 241.058 166.03 241.589Z" fill="#2C2C2C"/>
<path fill-rule="evenodd" clip-rule="evenodd" d="M303.362 264.21C303.362 263.957 303.567 263.753 303.819 263.753H318.867C319.119 263.753 319.324 263.957 319.324 264.21C319.324 264.462 319.119 264.666 318.867 264.666H303.819C303.567 264.666 303.362 264.462 303.362 264.21Z" fill="#2C2C2C"/>
<path fill-rule="evenodd" clip-rule="evenodd" d="M19.5986 264.21C19.5986 263.957 19.8031 263.753 20.0553 263.753H298.804C299.056 263.753 299.26 263.957 299.26 264.21C299.26 264.462 299.056 264.666 298.804 264.666H20.0553C19.8031 264.666 19.5986 264.462 19.5986 264.21Z" fill="#2C2C2C"/>
<path fill-rule="evenodd" clip-rule="evenodd" d="M0 264.21C0 263.957 0.204459 263.753 0.456671 263.753H10.7395C10.9918 263.753 11.1962 263.957 11.1962 264.21C11.1962 264.462 10.9918 264.666 10.7395 264.666H0.456671C0.204459 264.666 0 264.462 0 264.21Z" fill="#2C2C2C"/>
<path d="M97.1712 214.881H206.264C207.569 214.881 208.821 215.399 209.744 216.322C210.667 217.245 211.185 218.497 211.185 219.802V281.09H92.25V219.802C92.25 218.497 92.7685 217.245 93.6914 216.322C94.6143 215.399 95.866 214.881 97.1712 214.881Z" fill="white"/>
<path fill-rule="evenodd" clip-rule="evenodd" d="M97.1705 215.506C96.0317 215.506 94.9395 215.959 94.1342 216.764C93.329 217.569 92.8766 218.662 92.8766 219.8V280.462H210.557V219.8C210.557 218.662 210.105 217.569 209.3 216.764C208.494 215.959 207.402 215.506 206.263 215.506H97.1705ZM93.2472 215.877C94.2877 214.837 95.699 214.252 97.1705 214.252H206.263C207.735 214.252 209.146 214.837 210.187 215.877C211.227 216.918 211.812 218.329 211.812 219.8V281.089C211.812 281.435 211.531 281.716 211.184 281.716H92.2493C91.9029 281.716 91.6221 281.435 91.6221 281.089V219.8C91.6221 218.329 92.2066 216.918 93.2472 215.877Z" fill="#2C2C2C"/>
<path d="M211.185 236.906C196.244 240.696 180.91 250.341 152.338 263.924C124.779 277.034 102.22 276.807 92.25 275.793V281.089H211.185V236.906Z" fill="#2C2C2C"/>
<path fill-rule="evenodd" clip-rule="evenodd" d="M211.57 236.412C211.722 236.531 211.812 236.714 211.812 236.908V281.09C211.812 281.436 211.531 281.717 211.184 281.717H92.2493C91.9029 281.717 91.6221 281.436 91.6221 281.09V275.795C91.6221 275.617 91.6972 275.448 91.8288 275.329C91.9604 275.21 92.1363 275.153 92.3128 275.171C102.198 276.176 124.636 276.408 152.068 263.358L152.068 263.358C161.478 258.885 169.441 254.844 176.437 251.294C180.06 249.456 183.423 247.749 186.595 246.181C195.872 241.596 203.491 238.212 211.03 236.3C211.218 236.252 211.417 236.294 211.57 236.412ZM152.606 264.491C125.538 277.368 103.255 277.444 92.8766 276.486V280.463H210.557V237.719C203.406 239.629 196.092 242.887 187.15 247.306C184 248.863 180.647 250.565 177.029 252.4C170.024 255.955 162.029 260.012 152.606 264.491Z" fill="#2C2C2C"/>
<path fill-rule="evenodd" clip-rule="evenodd" d="M91.6221 277.418C91.6221 277.072 91.9029 276.791 92.2493 276.791H211.184C211.531 276.791 211.812 277.072 211.812 277.418V281.099C211.812 281.446 211.531 281.727 211.184 281.727H92.2493C91.9029 281.727 91.6221 281.446 91.6221 281.099V277.418ZM92.8766 278.046V280.472H210.557V278.046H92.8766Z" fill="#2C2C2C"/>
<path d="M158.055 147.85C158.055 150.514 155.287 152.674 151.874 152.674C148.461 152.674 145.693 150.514 145.693 147.85C145.693 145.186 148.461 143.026 151.874 143.026C155.287 143.026 158.055 145.186 158.055 147.85Z" fill="white"/>
<path fill-rule="evenodd" clip-rule="evenodd" d="M151.874 151.468C154.917 151.468 156.849 149.587 156.849 147.85C156.849 146.113 154.917 144.232 151.874 144.232C148.831 144.232 146.899 146.113 146.899 147.85C146.899 149.587 148.831 151.468 151.874 151.468ZM151.874 152.674C155.287 152.674 158.055 150.514 158.055 147.85C158.055 145.186 155.287 143.026 151.874 143.026C148.461 143.026 145.693 145.186 145.693 147.85C145.693 150.514 148.461 152.674 151.874 152.674Z" fill="#454545"/>
<path d="M211.918 278.156H90.2168V281.923H211.918V278.156Z" fill="white"/>
<path fill-rule="evenodd" clip-rule="evenodd" d="M89.5752 278.157C89.5752 277.803 89.8626 277.516 90.217 277.516H211.918C212.272 277.516 212.56 277.803 212.56 278.157V281.924C212.56 282.279 212.272 282.566 211.918 282.566H90.217C89.8626 282.566 89.5752 282.279 89.5752 281.924V278.157ZM90.8589 278.799V281.282H211.276V278.799H90.8589Z" fill="#2C2C2C"/>
<path opacity="0.15" d="M135.237 147.84C133.963 147.056 132.784 146.238 131.656 145.421C132.147 144.56 134.333 140.849 134.574 138.775C134.816 136.7 134.574 134.195 133.016 132.749C132.668 132.393 132.248 132.115 131.785 131.932C131.322 131.749 130.825 131.666 130.328 131.687C129.83 131.708 129.343 131.833 128.897 132.055C128.451 132.276 128.057 132.589 127.739 132.973C125.897 135.34 127.507 140.496 129.013 142.709C129.091 142.829 130.064 143.966 130.735 144.775C130.227 144.396 129.702 144.017 129.229 143.647C127.438 142.253 125.888 140.867 124.528 139.627C123.753 138.921 123.073 138.258 122.445 137.638C122.505 136.588 122.695 132.353 121.971 130.433C121.248 128.513 119.837 126.387 117.805 125.793C117.335 125.636 116.837 125.58 116.344 125.628C115.851 125.675 115.374 125.825 114.942 126.069C114.511 126.312 114.135 126.643 113.839 127.04C113.544 127.438 113.334 127.892 113.225 128.376C112.683 131.32 116.488 135.159 118.838 136.433C119.045 136.545 122.419 137.888 122.428 137.836V137.776C123.03 138.387 123.676 139.033 124.39 139.73C125.733 140.996 127.257 142.416 129.022 143.854C130.904 145.429 132.879 146.889 134.936 148.227L136.227 149.028H137.286C136.615 148.657 135.909 148.253 135.237 147.84Z" fill="black"/>
<path opacity="0.15" d="M131.088 145.498C131.088 145.455 127.644 144.275 127.446 144.232C124.864 143.664 119.449 144.103 117.977 146.694C117.566 147.408 117.437 148.249 117.615 149.053H128.101C129.167 147.929 130.164 146.741 131.088 145.498Z" fill="black"/>
<path opacity="0.15" d="M159.116 148.235C159.116 146.238 158.583 143.69 156.904 142.399C156.519 142.084 156.071 141.854 155.591 141.724C155.111 141.593 154.609 141.564 154.118 141.64C153.626 141.715 153.156 141.893 152.737 142.162C152.318 142.43 151.961 142.784 151.687 143.199C150.775 144.689 151.128 146.987 151.928 149.053H159.039C159.084 148.783 159.11 148.509 159.116 148.235Z" fill="black"/>
<path opacity="0.15" d="M152.145 111.13C154.478 111.328 159.428 109.529 159.428 109.529C159.428 109.529 157.25 106.628 157.095 106.464C155.227 104.545 150.492 101.936 147.806 103.271C147.36 103.503 146.969 103.828 146.658 104.224C146.347 104.62 146.124 105.077 146.004 105.566C145.883 106.054 145.868 106.563 145.959 107.058C146.05 107.552 146.246 108.022 146.532 108.436C147.66 110.183 150.148 110.958 152.145 111.13Z" fill="black"/>
<path opacity="0.15" d="M172.108 145.573C171.723 145.257 171.276 145.026 170.796 144.895C170.316 144.763 169.813 144.734 169.321 144.81C168.829 144.885 168.358 145.063 167.94 145.333C167.521 145.602 167.164 145.957 166.891 146.373C166.448 147.192 166.268 148.126 166.375 149.051H174.079C173.847 147.697 173.15 146.467 172.108 145.573Z" fill="black"/>
<path opacity="0.15" d="M145.267 144.635C145.267 142.638 144.733 140.09 143.054 138.807C142.67 138.49 142.223 138.258 141.742 138.126C141.262 137.994 140.759 137.964 140.267 138.04C139.774 138.116 139.303 138.294 138.884 138.564C138.466 138.835 138.109 139.19 137.837 139.608C136.288 142.122 138.371 146.968 140.101 149.077H144.139C144.739 147.663 145.119 146.165 145.267 144.635Z" fill="black"/>
<path d="M164.662 76.3449V68.907H166.504C166.876 68.8878 167.245 68.9712 167.572 69.1481C167.841 69.3106 168.047 69.5594 168.157 69.854C168.287 70.2094 168.348 70.5862 168.338 70.9645C168.346 71.3143 168.276 71.6615 168.131 71.9803C168.002 72.2597 167.788 72.4916 167.52 72.6431C167.213 72.8155 166.865 72.899 166.513 72.8842H165.652V76.3276L164.662 76.3449ZM165.695 72.1352H166.169C166.41 72.1425 166.652 72.1105 166.883 72.0405C167.046 71.9752 167.175 71.8484 167.245 71.6876C167.33 71.4594 167.368 71.2164 167.357 70.9731C167.365 70.6983 167.339 70.4236 167.279 70.1553C167.258 70.0687 167.218 69.9881 167.161 69.9195C167.105 69.8508 167.033 69.796 166.952 69.7593C166.706 69.6744 166.446 69.6365 166.186 69.6474H165.695V72.1352Z" fill="#CCCCCC"/>
<path d="M168.337 76.3441L169.912 68.9062H170.911L172.503 76.3441H171.548L171.204 74.4674H169.688L169.336 76.3441H168.337ZM169.8 73.7615H171.04L170.42 70.4128L169.8 73.7615Z" fill="#CCCCCC"/>
<path d="M174.992 76.4208C174.617 76.4339 174.246 76.3382 173.924 76.1454C173.639 75.9619 173.415 75.6984 173.279 75.3878C173.121 75.029 173.033 74.6433 173.021 74.2515L173.933 74.0104C173.949 74.2668 173.993 74.5207 174.062 74.768C174.11 74.9927 174.217 75.2007 174.372 75.3706C174.544 75.5173 174.762 75.5979 174.988 75.5979C175.213 75.5979 175.432 75.5173 175.603 75.3706C175.752 75.1899 175.826 74.9587 175.81 74.7249C175.825 74.4368 175.743 74.1519 175.577 73.9157C175.406 73.6903 175.213 73.4827 175 73.2959L173.752 72.194C173.525 71.9984 173.34 71.7581 173.21 71.4881C173.088 71.1907 173.029 70.8711 173.038 70.5498C173.026 70.3184 173.061 70.0871 173.141 69.8696C173.221 69.6522 173.344 69.4531 173.503 69.2843C173.674 69.1277 173.875 69.0073 174.094 68.9304C174.313 68.8534 174.545 68.8216 174.777 68.8367C175.039 68.8307 175.301 68.8685 175.551 68.9486C175.765 69.016 175.958 69.1376 176.111 69.3015C176.274 69.4733 176.398 69.6791 176.473 69.9041C176.567 70.1829 176.627 70.4719 176.653 70.765L175.792 71.006C175.778 70.7796 175.743 70.555 175.689 70.3345C175.639 70.1443 175.538 69.9716 175.396 69.8352C175.229 69.7001 175.017 69.6326 174.802 69.6459C174.685 69.6245 174.564 69.6319 174.449 69.6676C174.335 69.7033 174.231 69.7661 174.147 69.8508C174.062 69.9354 173.999 70.0393 173.963 70.1535C173.928 70.2678 173.92 70.389 173.942 70.5067C173.936 70.7003 173.977 70.8923 174.062 71.0663C174.156 71.2375 174.282 71.3894 174.432 71.5139L175.689 72.6158C175.975 72.867 176.224 73.1567 176.43 73.4767C176.652 73.8387 176.766 74.2571 176.757 74.6819C176.766 75.0155 176.686 75.3454 176.524 75.6375C176.376 75.896 176.158 76.1077 175.896 76.2487C175.612 76.3759 175.302 76.4349 174.992 76.4208Z" fill="#CCCCCC"/>
<path d="M179.346 76.4219C178.971 76.4349 178.601 76.3392 178.279 76.1464C177.994 75.963 177.769 75.6994 177.633 75.3888C177.479 75.0288 177.392 74.6438 177.375 74.2525L178.288 74.0115C178.308 74.2673 178.351 74.5208 178.417 74.769C178.468 74.9945 178.578 75.2024 178.735 75.3716C178.905 75.5194 179.122 75.6008 179.346 75.6008C179.571 75.6008 179.788 75.5194 179.958 75.3716C180.107 75.1909 180.181 74.9597 180.164 74.726C180.179 74.4378 180.097 74.153 179.932 73.9168C179.761 73.6913 179.568 73.4837 179.355 73.2969L178.107 72.195C177.879 71.9994 177.695 71.7591 177.564 71.4891C177.442 71.1917 177.384 70.8721 177.392 70.5508C177.381 70.3194 177.416 70.0881 177.496 69.8707C177.576 69.6532 177.698 69.4541 177.857 69.2853C178.209 68.9726 178.67 68.8117 179.14 68.8377C179.402 68.8317 179.664 68.8696 179.915 68.9496C180.127 69.0191 180.32 69.1404 180.474 69.3025C180.632 69.4772 180.752 69.6823 180.827 69.9051C180.925 70.1828 180.986 70.4723 181.008 70.766L180.147 71.0071C180.129 70.7804 180.092 70.5557 180.035 70.3356C179.985 70.1454 179.884 69.9726 179.742 69.8363C179.577 69.7032 179.369 69.6358 179.157 69.6469C178.937 69.6362 178.721 69.7101 178.554 69.8535C178.478 69.9348 178.419 70.0311 178.382 70.1364C178.345 70.2416 178.33 70.3535 178.339 70.4647C178.331 70.6575 178.369 70.8495 178.451 71.0243C178.545 71.1955 178.671 71.3474 178.821 71.4719L180.078 72.5738C180.366 72.8247 180.619 73.1144 180.827 73.4347C181.043 73.7992 181.153 74.2164 181.146 74.6399C181.155 74.9734 181.075 75.3034 180.913 75.5954C180.765 75.854 180.547 76.0657 180.285 76.2067C179.995 76.3552 179.672 76.4291 179.346 76.4219Z" fill="#CCCCCC"/>
<path d="M119.785 196.544C119.785 196.544 108.571 250.888 103.463 253.88C99.3523 256.292 104.827 259.107 92.8585 255.077L92.8583 246.635L90.4463 242.414L93.7319 231.991C93.7319 231.991 105.067 176.771 113.208 176.097C121.362 175.41 119.785 196.544 119.785 196.544Z" fill="#2C2C2C"/>
<path d="M196.33 192.164C196.33 192.164 210.119 245.912 206.843 250.844C204.209 254.816 210.364 254.941 197.842 256.576L194.134 248.992L190.114 246.259L188.489 235.452C188.489 235.452 174.424 180.863 181.442 176.683C188.466 172.484 196.33 192.164 196.33 192.164Z" fill="#2C2C2C"/>
<path d="M201.949 192.621C201.949 201.22 196.315 206.544 187.716 206.544C179.117 206.544 172.148 199.576 172.148 190.977C172.148 182.378 178.645 172.889 186.84 175.463C195.87 178.28 201.949 184.022 201.949 192.621Z" fill="white"/>
<path fill-rule="evenodd" clip-rule="evenodd" d="M176.831 179.381C174.269 182.404 172.687 186.801 172.687 190.979C172.687 199.28 179.413 206.007 187.715 206.007C191.903 206.007 195.317 204.712 197.681 202.422C200.043 200.134 201.409 196.801 201.409 192.623C201.409 184.352 195.586 178.759 186.678 175.98L186.677 175.98C182.847 174.777 179.385 176.367 176.831 179.381ZM187 174.951C182.635 173.58 178.751 175.447 176.009 178.684C173.274 181.911 171.608 186.558 171.608 190.979C171.608 199.876 178.818 207.085 187.715 207.085C192.126 207.085 195.828 205.718 198.431 203.196C201.036 200.673 202.487 197.044 202.487 192.623C202.487 183.696 196.152 177.806 187 174.951Z" fill="#2C2C2C"/>
<path d="M194.951 190.114C194.951 196.476 190.786 200.412 184.424 200.412C178.063 200.412 172.914 195.263 172.914 188.901C172.914 182.54 177.712 175.517 183.791 177.418C190.449 179.52 194.951 183.766 194.951 190.114Z" fill="#2C2C2C"/>
<path d="M97.4922 192.621C97.4922 201.22 103.126 206.544 111.725 206.544C120.324 206.544 127.279 199.562 127.279 190.976C127.279 182.391 120.782 172.889 112.588 175.463C103.571 178.28 97.4922 184.022 97.4922 192.621Z" fill="white"/>
<path fill-rule="evenodd" clip-rule="evenodd" d="M123.418 178.688C126.152 181.917 127.818 186.564 127.818 190.978C127.818 199.861 120.623 207.085 111.725 207.085C107.314 207.085 103.612 205.717 101.009 203.196C98.4042 200.673 96.9531 197.043 96.9531 192.623C96.9531 183.696 103.288 177.806 112.427 174.951C116.791 173.58 120.675 175.45 123.418 178.688ZM122.595 179.385C120.041 176.369 116.579 174.776 112.749 175.979L112.749 175.98C103.854 178.758 98.0314 184.352 98.0314 192.623C98.0314 196.801 99.3972 200.133 101.759 202.422C104.123 204.712 107.537 206.006 111.725 206.006C120.026 206.006 126.74 199.267 126.74 190.978C126.74 186.807 125.157 182.41 122.595 179.385Z" fill="#2C2C2C"/>
<path d="M104.5 190.114C104.5 196.476 108.665 200.412 115.026 200.412C121.388 200.412 126.537 195.263 126.537 188.901C126.537 182.54 121.739 175.517 115.673 177.418C108.988 179.52 104.5 183.766 104.5 190.114Z" fill="#2C2C2C"/>
<path d="M169.315 261.617C159.584 260.727 149.974 260.363 149.974 260.363C146.442 260.471 138.922 260.781 131.158 261.617C133.423 269.353 141.105 275.054 150.23 275.054C159.368 275.068 167.05 269.34 169.315 261.617Z" fill="#50BFD7"/>
<path d="M168.523 262.425C169.358 259.136 186.085 175.329 186.085 175.329C186.085 175.329 141.445 162.148 112.898 175.329L131.202 263.153L168.523 262.425Z" fill="white"/>
<path fill-rule="evenodd" clip-rule="evenodd" d="M186.236 174.813C186.236 174.813 186.236 174.813 186.084 175.33C186.612 175.436 186.612 175.436 186.612 175.437L186.612 175.44L186.424 176.378C186.302 176.992 186.122 177.894 185.892 179.043C185.433 181.341 184.776 184.628 183.986 188.582C182.405 196.491 180.288 207.069 178.145 217.751C173.862 239.099 169.467 260.897 169.044 262.559L168.943 262.957L130.764 263.702L112.282 175.021L112.671 174.841C127.083 168.186 145.503 168.201 160.256 169.851C167.643 170.678 174.135 171.917 178.78 172.95C181.103 173.467 182.964 173.932 184.247 174.268C184.888 174.436 185.384 174.572 185.721 174.666C185.889 174.713 186.017 174.75 186.104 174.775C186.147 174.787 186.18 174.797 186.202 174.803L186.227 174.811L186.234 174.813L186.236 174.813ZM186.084 175.33L186.612 175.436L186.709 174.953L186.236 174.813L186.084 175.33ZM185.458 175.712C185.449 175.71 185.44 175.707 185.43 175.705C185.099 175.612 184.608 175.478 183.973 175.311C182.703 174.978 180.854 174.516 178.546 174.003C173.929 172.976 167.476 171.744 160.136 170.923C145.567 169.293 127.591 169.293 113.513 175.642L131.637 262.606L168.092 261.895C168.856 258.47 173.015 237.837 177.088 217.539C179.231 206.858 181.347 196.279 182.929 188.371C183.719 184.417 184.376 181.13 184.835 178.832C185.064 177.683 185.244 176.781 185.367 176.167L185.458 175.712Z" fill="black"/>
<path d="M168.523 262.425C169.358 259.136 186.085 175.329 186.085 175.329C186.085 175.329 141.445 162.148 112.898 175.329L131.202 263.153L168.523 262.425Z" fill="white"/>
<path fill-rule="evenodd" clip-rule="evenodd" d="M186.236 174.813C186.236 174.813 186.236 174.813 186.084 175.33C186.612 175.436 186.612 175.436 186.612 175.437L186.612 175.44L186.424 176.378C186.302 176.992 186.122 177.894 185.892 179.043C185.433 181.341 184.776 184.628 183.986 188.582C182.405 196.491 180.288 207.069 178.145 217.751C173.862 239.099 169.467 260.897 169.044 262.559L168.943 262.957L130.764 263.702L112.282 175.021L112.671 174.841C127.083 168.186 145.503 168.201 160.256 169.851C167.643 170.678 174.135 171.917 178.78 172.95C181.103 173.467 182.964 173.932 184.247 174.268C184.888 174.436 185.384 174.572 185.721 174.666C185.889 174.713 186.017 174.75 186.104 174.775C186.147 174.787 186.18 174.797 186.202 174.803L186.227 174.811L186.234 174.813L186.236 174.813ZM186.084 175.33L186.612 175.436L186.709 174.953L186.236 174.813L186.084 175.33ZM185.458 175.712C185.449 175.71 185.44 175.707 185.43 175.705C185.099 175.612 184.608 175.478 183.973 175.311C182.703 174.978 180.854 174.516 178.546 174.003C173.929 172.976 167.476 171.744 160.136 170.923C145.567 169.293 127.591 169.293 113.513 175.642L131.637 262.606L168.092 261.895C168.856 258.47 173.015 237.837 177.088 217.539C179.231 206.858 181.347 196.279 182.929 188.371C183.719 184.417 184.376 181.13 184.835 178.832C185.064 177.683 185.244 176.781 185.367 176.167L185.458 175.712Z" fill="#2C2C2C"/>
<path d="M175.249 172.756C162.781 170.249 141.702 167.391 123.587 171.704C125.73 185.223 127.873 198.755 130.016 212.273C131.741 221.439 140.435 227.544 149.505 227.598C158.576 227.544 167.27 221.452 168.995 212.273C171.07 199.092 173.16 185.924 175.249 172.756Z" fill="#50BFD7"/>
<path fill-rule="evenodd" clip-rule="evenodd" d="M123.459 171.18C141.693 166.838 162.868 169.717 175.352 172.227L175.86 172.329L175.777 172.848C173.688 186.014 171.6 199.179 169.525 212.357L169.523 212.365L169.522 212.373C167.741 221.846 158.791 228.082 149.506 228.137L149.503 228.137L149.5 228.137C140.214 228.082 131.264 221.832 129.484 212.373L129.482 212.365L129.481 212.358C128.409 205.599 127.338 198.837 126.267 192.075L126.266 192.073C125.195 185.311 124.123 178.548 123.052 171.789L122.974 171.295L123.459 171.18ZM124.195 172.115C125.24 178.709 126.286 185.305 127.331 191.902L127.331 191.904C128.402 198.665 129.474 205.425 130.545 212.181C132.218 221.047 140.65 227.005 149.503 227.059C158.355 227.005 166.788 221.061 168.461 212.182C170.509 199.173 172.571 186.178 174.632 173.183C162.239 170.728 141.839 168.051 124.195 172.115Z" fill="#2C2C2C"/>
<path d="M147.955 177.542C152.214 177.542 158.832 176.248 158.832 172.002L157.74 157.823L156.783 145.424C156.783 141.164 153.333 137.728 149.087 137.728C146.958 137.728 145.044 138.59 143.642 139.978C142.254 141.367 141.378 143.294 141.378 145.424L140.434 157.837L139.531 169.738C138.318 176.922 147.955 177.542 147.955 177.542Z" fill="#2C2C2C"/>
<path d="M117.196 136.608C121.998 136.608 125.89 132.715 125.89 127.914C125.89 123.113 121.998 119.221 117.196 119.221C112.395 119.221 108.503 123.113 108.503 127.914C108.503 132.715 112.395 136.608 117.196 136.608Z" fill="white"/>
<path d="M149.463 135.044C149.477 135.125 149.301 135.273 148.911 135.273C148.533 135.287 147.954 135.112 147.442 134.626C147.185 134.384 146.956 134.087 146.781 133.71C146.754 133.656 146.741 133.602 146.714 133.548L146.687 133.467L146.66 133.4L146.619 133.278C146.606 133.225 146.592 133.157 146.565 133.103C146.512 132.901 146.471 132.685 146.458 132.456C146.377 131.567 146.552 130.664 146.768 129.801C147.603 126.351 148.587 123.642 148.951 123.722C149.315 123.817 148.938 126.674 148.102 130.125C147.886 130.974 147.725 131.742 147.725 132.389C147.725 132.551 147.738 132.712 147.752 132.861L147.765 132.915V132.942V132.955V132.968C147.765 132.968 147.752 132.928 147.765 132.942L147.792 133.076L147.805 133.144L147.819 133.184L147.846 133.265C147.927 133.521 148.048 133.764 148.183 133.952C148.452 134.343 148.776 134.586 149.032 134.721C149.261 134.896 149.45 134.95 149.463 135.044Z" fill="#2C2C2C"/>
<path d="M139.839 118.882C139.839 122.724 136.51 125.837 132.413 125.837C128.302 125.837 124.986 122.724 124.986 118.882C124.986 115.041 128.315 111.928 132.413 111.928C136.51 111.928 139.839 115.041 139.839 118.882Z" fill="white"/>
<path fill-rule="evenodd" clip-rule="evenodd" d="M132.413 112.466C128.579 112.466 125.526 115.371 125.526 118.882C125.526 122.393 128.566 125.297 132.413 125.297C136.247 125.297 139.3 122.392 139.3 118.882C139.3 115.371 136.247 112.466 132.413 112.466ZM124.447 118.882C124.447 114.71 128.052 111.388 132.413 111.388C136.774 111.388 140.378 114.71 140.378 118.882C140.378 123.054 136.774 126.375 132.413 126.375C128.038 126.375 124.447 123.053 124.447 118.882Z" fill="#2C2C2C"/>
<path d="M128.776 118.452C128.776 121.619 130.839 124.193 133.372 124.193C135.906 124.193 137.968 121.619 137.968 118.452C137.968 115.284 135.906 112.71 133.372 112.71C130.825 112.697 128.776 115.271 128.776 118.452Z" fill="#50BFD7"/>
<path d="M130.096 118.451C130.096 120.702 131.551 122.521 133.357 122.521C135.163 122.521 136.619 120.702 136.619 118.451C136.619 116.2 135.163 114.367 133.357 114.367C131.565 114.367 130.096 116.187 130.096 118.451Z" fill="#2C2C2C"/>
<path d="M129.894 114.584C129.894 115.204 130.648 115.689 131.578 115.689C132.508 115.689 133.263 115.191 133.263 114.584C133.263 113.964 132.508 113.479 131.578 113.479C130.648 113.465 129.894 113.964 129.894 114.584Z" fill="white"/>
<path d="M132.898 110.918C128.302 110.459 124.771 114.611 124.771 118.897C124.771 119.341 125.323 119.422 125.552 119.112C127.426 116.538 128.032 114.004 131.456 113.02C136.51 111.565 139.286 116.754 139.57 120.824C139.61 121.215 139.947 120.864 139.987 120.46C140.446 115.594 138.02 111.43 132.898 110.918Z" fill="#2C2C2C"/>
<path d="M141.97 108.248C141.97 108.248 131.943 98.2474 121.16 110.122C121.147 110.122 130.474 104.151 141.97 108.248Z" fill="#2C2C2C"/>
<path d="M172.148 118.882C172.148 122.724 168.819 125.837 164.721 125.837C160.611 125.837 157.295 122.724 157.295 118.882C157.295 115.041 160.624 111.928 164.721 111.928C168.819 111.928 172.148 115.041 172.148 118.882Z" fill="white"/>
<path fill-rule="evenodd" clip-rule="evenodd" d="M164.72 112.466C160.887 112.466 157.833 115.371 157.833 118.882C157.833 122.393 160.874 125.297 164.72 125.297C168.554 125.297 171.608 122.392 171.608 118.882C171.608 115.371 168.554 112.466 164.72 112.466ZM156.755 118.882C156.755 114.71 160.359 111.388 164.72 111.388C169.081 111.388 172.686 114.71 172.686 118.882C172.686 123.054 169.081 126.375 164.72 126.375C160.345 126.375 156.755 123.053 156.755 118.882Z" fill="#2C2C2C"/>
<path d="M161.082 118.452C161.082 121.619 163.144 124.193 165.678 124.193C168.212 124.193 170.274 121.619 170.274 118.452C170.274 115.284 168.212 112.71 165.678 112.71C163.144 112.697 161.082 115.271 161.082 118.452Z" fill="#50BFD7"/>
<path d="M162.415 118.451C162.415 120.702 163.871 122.521 165.677 122.521C167.483 122.521 168.938 120.702 168.938 118.451C168.938 116.2 167.483 114.367 165.677 114.367C163.871 114.367 162.415 116.187 162.415 118.451Z" fill="#2C2C2C"/>
<path d="M162.2 114.584C162.2 115.204 162.955 115.689 163.885 115.689C164.815 115.689 165.57 115.191 165.57 114.584C165.57 113.964 164.815 113.479 163.885 113.479C162.968 113.465 162.2 113.964 162.2 114.584Z" fill="white"/>
<path d="M165.207 110.918C160.611 110.459 157.08 114.611 157.08 118.897C157.08 119.341 157.633 119.422 157.862 119.112C159.735 116.538 160.342 114.004 163.765 113.02C168.82 111.565 171.596 116.754 171.879 120.824C171.92 121.215 172.256 120.864 172.297 120.46C172.755 115.594 170.343 111.43 165.207 110.918Z" fill="#2C2C2C"/>
<path d="M174.276 107.156C174.276 107.156 164.248 97.1556 153.466 109.03C153.466 109.03 162.793 103.059 174.276 107.156Z" fill="#2C2C2C"/>
<path d="M158.749 267.453C158.749 267.79 159.046 268.181 159.396 268.141C163.372 267.723 166.418 264.65 170.34 265.297C166.405 267.251 162.995 270.647 163.48 275.648C163.534 276.268 164.127 276.51 164.585 276.133C167.402 273.734 170.637 271.591 174.411 272.386C176.028 272.723 177.929 273.357 179.6 273.141C182.093 272.831 184.196 271.699 185.436 269.286C187.619 265.108 186.811 260.094 181.918 259.056C181.797 259.029 181.703 259.043 181.595 259.083C179.789 258.369 178.144 257.466 176.689 255.889C175.287 254.352 173.98 252.654 172.457 251.239C170.421 249.339 168.211 247.842 165.515 249.123C165.111 249.312 165.138 249.891 165.394 250.201C166.58 251.67 167.968 253.072 169.424 254.42C167.968 254.083 166.499 253.908 164.99 254.029C162.294 254.258 159.113 256.051 159.181 259.258C159.194 259.663 159.477 259.905 159.828 259.946C162.308 260.202 164.801 260.161 167.267 260.418C163.426 261.55 158.709 262.844 158.749 267.453Z" fill="white"/>
<path fill-rule="evenodd" clip-rule="evenodd" d="M169.432 248.485C170.674 248.975 171.796 249.883 172.824 250.843C173.854 251.8 174.805 252.904 175.728 253.975C176.186 254.506 176.636 255.029 177.086 255.522C178.425 256.972 179.935 257.829 181.631 258.515C181.753 258.495 181.886 258.495 182.032 258.527C184.672 259.088 186.254 260.747 186.849 262.844C187.436 264.911 187.054 267.351 185.915 269.532C184.576 272.136 182.296 273.347 179.668 273.674C178.747 273.793 177.787 273.675 176.882 273.498C176.426 273.409 175.975 273.302 175.543 273.199C175.498 273.188 175.452 273.177 175.407 273.166C175.021 273.074 174.654 272.986 174.301 272.912L174.3 272.912C170.801 272.175 167.75 274.144 164.935 276.542L164.932 276.545L164.928 276.547C164.561 276.849 164.087 276.937 163.669 276.758C163.251 276.579 162.986 276.175 162.943 275.696C162.504 271.161 165.086 267.907 168.343 265.807C167.259 265.955 166.204 266.347 165.099 266.814C164.853 266.918 164.604 267.026 164.352 267.136C162.856 267.785 161.242 268.486 159.455 268.675C159.052 268.72 158.729 268.513 158.536 268.291C158.343 268.071 158.211 267.767 158.21 267.454C158.189 264.915 159.499 263.285 161.266 262.173C162.197 261.587 163.27 261.135 164.359 260.755C164.083 260.742 163.807 260.73 163.529 260.718L163.518 260.718C162.283 260.664 161.027 260.61 159.772 260.48L159.769 260.48L159.766 260.479C159.189 260.413 158.665 259.983 158.642 259.274L158.642 259.271L158.642 259.268C158.604 257.459 159.489 256.059 160.717 255.1C161.934 254.149 163.507 253.612 164.944 253.49L164.945 253.49L164.947 253.49C165.899 253.413 166.832 253.45 167.75 253.567C166.76 252.592 165.82 251.584 164.976 250.54C164.759 250.276 164.65 249.92 164.669 249.584C164.689 249.236 164.859 248.833 165.285 248.633C166.78 247.924 168.162 247.984 169.432 248.485ZM165.752 249.605C165.75 249.613 165.746 249.625 165.745 249.645C165.743 249.679 165.748 249.72 165.762 249.762C165.775 249.805 165.794 249.837 165.81 249.856L165.812 249.858L165.814 249.861C166.977 251.302 168.345 252.684 169.79 254.022L171.279 255.401L169.302 254.943C167.885 254.615 166.473 254.449 165.034 254.564C163.776 254.671 162.411 255.145 161.381 255.95C160.362 256.745 159.692 257.844 159.72 259.241C159.722 259.312 159.745 259.341 159.759 259.355C159.778 259.374 159.817 259.4 159.887 259.408C161.107 259.534 162.333 259.587 163.576 259.641L163.58 259.641C164.818 259.695 166.073 259.75 167.323 259.879L170.038 260.161L167.42 260.933C167.353 260.953 167.286 260.972 167.218 260.992C165.334 261.547 163.363 262.127 161.84 263.086C160.298 264.056 159.27 265.377 159.288 267.447L159.288 267.449V267.451C159.288 267.458 159.29 267.478 159.302 267.507C159.313 267.535 159.329 267.561 159.347 267.581C159.354 267.59 159.361 267.596 159.366 267.6C160.965 267.427 162.402 266.804 163.897 266.157C164.155 266.045 164.416 265.932 164.679 265.821C166.437 265.077 168.304 264.412 170.428 264.763L172.076 265.035L170.58 265.778C166.729 267.69 163.563 270.922 164.017 275.594L164.017 275.597L164.017 275.599C164.024 275.672 164.044 275.713 164.058 275.734C164.072 275.755 164.085 275.763 164.094 275.767C164.102 275.771 164.115 275.774 164.136 275.77C164.157 275.767 164.193 275.755 164.24 275.717C167.058 273.318 170.474 271.004 174.522 271.857C174.891 271.934 175.275 272.026 175.658 272.118C175.703 272.128 175.749 272.139 175.795 272.15C176.226 272.254 176.658 272.355 177.089 272.44C177.955 272.609 178.781 272.701 179.531 272.604L179.532 272.604L179.534 272.604C181.891 272.311 183.815 271.258 184.957 269.038L184.957 269.036L184.958 269.035C186.001 267.038 186.307 264.883 185.812 263.139C185.326 261.426 184.058 260.059 181.806 259.582L181.804 259.581L181.801 259.581C181.801 259.581 181.801 259.581 181.8 259.58C181.797 259.582 181.791 259.583 181.784 259.586L181.59 259.659L181.397 259.583C179.547 258.851 177.822 257.91 176.293 256.253L176.292 256.252L176.29 256.25C175.795 255.707 175.323 255.158 174.855 254.615C173.958 253.572 173.079 252.551 172.09 251.632L172.089 251.631C171.081 250.69 170.081 249.9 169.036 249.488C168.019 249.086 166.951 249.038 165.752 249.605Z" fill="#2C2C2C"/>
<path fill-rule="evenodd" clip-rule="evenodd" d="M114.164 113.814V114.084H113.086V113.814H114.164Z" fill="#2C2C2C"/>
<path fill-rule="evenodd" clip-rule="evenodd" d="M119.824 116.781V117.051H118.746V116.781H119.824Z" fill="#2C2C2C"/>
<path d="M150.489 115.191C152.335 115.581 151.648 116.781 151.648 116.956C151.648 117.131 152.335 127.105 161.244 129.734C170.153 132.362 175.491 127.2 177.041 124.612C178.591 122.024 179.885 115.878 180.262 115.406C180.653 114.935 182.499 114.112 182.499 114.112L182.715 111.7L180.397 111.012C180.397 111.012 174.547 108.344 165.935 108.222C157.336 108.088 152.47 113.048 152.47 113.048C150.044 112.279 147.038 112.172 144.289 113.048C144.289 113.048 139.423 108.101 130.824 108.222C122.225 108.357 116.362 111.012 116.362 111.012L114.044 111.7L114.26 114.112C114.26 114.112 116.106 114.935 116.497 115.406C116.888 115.878 118.168 122.038 119.718 124.612C121.268 127.2 126.606 132.362 135.515 129.734C144.424 127.105 145.111 117.131 145.111 116.956C145.111 116.781 144.424 115.581 146.27 115.191C147.874 114.854 148.885 114.854 150.489 115.191ZM171.865 127.671C165.072 131.755 156.931 127.631 154.478 122.253C152.025 116.875 154.088 114.032 154.088 114.032C158.198 107.346 174.736 107.063 177.58 114.288C178.065 115.501 178.672 123.588 171.865 127.671ZM119.166 114.288C122.01 107.05 138.561 107.346 142.658 114.032C142.658 114.032 144.72 116.875 142.267 122.253C139.814 127.631 131.687 131.755 124.88 127.671C118.087 123.588 118.694 115.501 119.166 114.288Z" fill="#2C2C2C"/>
<path d="M154.653 187.567H144.302C141.552 187.567 139.315 189.804 139.315 192.553V202.905C139.315 205.654 141.552 207.892 144.302 207.892H154.653C157.403 207.892 159.64 205.654 159.64 202.905V192.553C159.64 189.804 157.416 187.567 154.653 187.567ZM136.565 183.159C134.988 183.159 133.708 184.44 133.708 186.017C133.708 187.593 134.988 188.874 136.565 188.874C138.142 188.874 139.423 187.593 139.423 186.017C139.423 184.44 138.142 183.159 136.565 183.159Z" fill="white"/>
<path d="M153.925 193.74C153.265 191.975 151.58 190.802 149.693 190.802H146.89L152.429 204.846H158.373L153.925 193.74ZM142.604 200.816L140.986 204.846H146.89L149.639 197.878H146.836C144.949 197.878 143.264 199.051 142.604 200.816ZM143.52 194.293C144.491 194.293 145.286 193.498 145.286 192.527C145.286 191.557 144.491 190.762 143.52 190.762C142.55 190.762 141.755 191.557 141.755 192.527C141.755 193.498 142.55 194.293 143.52 194.293Z" fill="#50BFD7"/>
<path d="M176.714 238.303C167.397 237.451 158.196 237.103 158.196 237.103C154.815 237.206 147.614 237.503 140.181 238.303C142.349 245.71 149.704 251.169 158.441 251.169C167.19 251.182 174.546 245.697 176.714 238.303Z" fill="#50BFD7"/>
<path d="M166.084 251.762C166.084 252.085 166.368 252.459 166.704 252.421C170.511 252.021 173.427 249.078 177.182 249.698C173.414 251.569 170.149 254.821 170.614 259.609C170.665 260.202 171.233 260.434 171.672 260.073C174.369 257.776 177.466 255.724 181.08 256.486C182.628 256.808 184.448 257.415 186.048 257.208C188.435 256.911 190.448 255.827 191.636 253.518C193.726 249.517 192.952 244.716 188.268 243.723C188.151 243.697 188.061 243.71 187.958 243.749C186.229 243.065 184.654 242.2 183.261 240.69C181.918 239.219 180.667 237.593 179.208 236.238C177.26 234.418 175.143 232.986 172.562 234.212C172.175 234.393 172.201 234.948 172.446 235.244C173.582 236.651 174.911 237.993 176.305 239.284C174.911 238.961 173.504 238.793 172.059 238.909C169.478 239.129 166.433 240.845 166.497 243.916C166.51 244.303 166.781 244.536 167.117 244.574C169.491 244.82 171.878 244.781 174.24 245.026C170.562 246.11 166.046 247.349 166.084 251.762Z" fill="#C4C4C4"/>
<path fill-rule="evenodd" clip-rule="evenodd" d="M176.31 233.601C177.499 234.071 178.574 234.94 179.558 235.859C180.544 236.776 181.455 237.833 182.338 238.858C182.777 239.367 183.208 239.868 183.639 240.34C184.92 241.728 186.366 242.548 187.99 243.205C188.107 243.185 188.234 243.186 188.374 243.217C190.902 243.754 192.416 245.342 192.987 247.35C193.548 249.329 193.183 251.665 192.092 253.754C190.81 256.246 188.627 257.406 186.111 257.719C185.229 257.833 184.31 257.72 183.443 257.551C183.007 257.465 182.575 257.363 182.162 257.264C182.118 257.254 182.074 257.243 182.031 257.233C181.662 257.144 181.31 257.06 180.972 256.99L180.971 256.989C177.621 256.283 174.699 258.169 172.004 260.465L172.001 260.468L171.998 260.47C171.647 260.759 171.192 260.844 170.792 260.672C170.392 260.501 170.138 260.114 170.097 259.655C169.677 255.313 172.149 252.197 175.268 250.187C174.23 250.328 173.219 250.703 172.161 251.151C171.926 251.25 171.687 251.354 171.446 251.459C170.014 252.081 168.469 252.752 166.758 252.932C166.372 252.976 166.063 252.778 165.877 252.566C165.693 252.355 165.566 252.064 165.566 251.764C165.545 249.332 166.8 247.772 168.491 246.707C169.383 246.146 170.411 245.713 171.453 245.35C171.189 245.338 170.924 245.326 170.658 245.315L170.648 245.314C169.465 245.263 168.263 245.211 167.061 245.087L167.058 245.086L167.055 245.086C166.503 245.022 166.002 244.611 165.979 243.932L165.979 243.929L165.979 243.926C165.942 242.194 166.79 240.853 167.966 239.935C169.131 239.025 170.637 238.511 172.013 238.394L172.014 238.393L172.015 238.393C172.927 238.32 173.821 238.355 174.7 238.467C173.752 237.534 172.851 236.569 172.044 235.569C171.836 235.316 171.731 234.975 171.75 234.654C171.768 234.321 171.931 233.935 172.34 233.744C173.771 233.064 175.094 233.122 176.31 233.601ZM172.787 234.674C172.784 234.681 172.781 234.694 172.78 234.712C172.778 234.744 172.783 234.784 172.796 234.825C172.809 234.866 172.827 234.896 172.842 234.914L172.844 234.916L172.846 234.919C173.96 236.298 175.269 237.622 176.653 238.903L178.078 240.223L176.186 239.785C174.828 239.471 173.477 239.312 172.099 239.422C170.895 239.525 169.588 239.979 168.602 240.749C167.626 241.511 166.984 242.562 167.011 243.9C167.014 243.968 167.035 243.996 167.049 244.01C167.067 244.028 167.104 244.052 167.171 244.06C168.339 244.18 169.513 244.232 170.703 244.283L170.707 244.283C171.892 244.335 173.094 244.387 174.291 244.511L176.89 244.781L174.384 245.52C174.319 245.539 174.255 245.558 174.191 245.577C172.387 246.108 170.5 246.663 169.041 247.581C167.564 248.511 166.581 249.775 166.598 251.757L166.598 251.759V251.761C166.598 251.768 166.6 251.787 166.611 251.814C166.622 251.841 166.637 251.866 166.654 251.886C166.661 251.894 166.667 251.899 166.672 251.903C168.203 251.738 169.579 251.142 171.011 250.522C171.258 250.414 171.507 250.307 171.759 250.2C173.442 249.488 175.23 248.851 177.264 249.187L178.842 249.447L177.41 250.159C173.723 251.99 170.691 255.084 171.125 259.557L171.125 259.56L171.126 259.562C171.132 259.632 171.151 259.672 171.164 259.692C171.178 259.712 171.191 259.72 171.199 259.723C171.207 259.727 171.22 259.73 171.24 259.726C171.259 259.723 171.294 259.712 171.339 259.675C174.037 257.378 177.308 255.163 181.183 255.979C181.537 256.053 181.905 256.141 182.271 256.229C182.315 256.239 182.358 256.25 182.402 256.26C182.815 256.359 183.229 256.457 183.641 256.537C184.471 256.7 185.262 256.788 185.98 256.695L185.981 256.695L185.982 256.695C188.239 256.414 190.082 255.406 191.174 253.28L191.175 253.279L191.176 253.277C192.175 251.366 192.467 249.302 191.993 247.632C191.528 245.992 190.313 244.684 188.158 244.226L188.156 244.226L188.153 244.225C188.153 244.225 188.153 244.225 188.152 244.225C188.149 244.226 188.144 244.228 188.137 244.231L187.951 244.3L187.766 244.227C185.994 243.527 184.343 242.625 182.879 241.039L182.878 241.038L182.877 241.037C182.402 240.517 181.95 239.991 181.502 239.471C180.643 238.473 179.802 237.495 178.855 236.615L178.854 236.614C177.889 235.713 176.932 234.957 175.931 234.562C174.957 234.177 173.934 234.131 172.787 234.674Z" fill="#2C2C2C"/>
<path d="M95.2524 214.164H206.882C208.217 214.164 209.498 214.695 210.443 215.639C211.387 216.583 211.918 217.864 211.918 219.2V281.913H90.2168V219.2C90.2168 217.864 90.7473 216.583 91.6917 215.639C92.6361 214.695 93.9169 214.164 95.2524 214.164Z" fill="white"/>
<path fill-rule="evenodd" clip-rule="evenodd" d="M95.2526 214.804C94.0873 214.804 92.9698 215.267 92.1458 216.091C91.3218 216.915 90.8589 218.033 90.8589 219.198V281.27H211.276V219.198C211.276 218.033 210.813 216.915 209.989 216.091C209.165 215.267 208.047 214.804 206.882 214.804H95.2526ZM91.2381 215.183C92.3028 214.119 93.7469 213.521 95.2526 213.521H206.882C208.388 213.521 209.832 214.119 210.897 215.183C211.961 216.248 212.56 217.692 212.56 219.198V281.911C212.56 282.266 212.272 282.553 211.918 282.553H90.217C89.8626 282.553 89.5752 282.266 89.5752 281.911V219.198C89.5752 217.692 90.1734 216.248 91.2381 215.183Z" fill="#2C2C2C"/>
<path d="M211.918 236.701C196.629 240.579 180.938 250.448 151.702 264.347C123.502 277.762 100.419 277.53 90.2168 276.493V281.911H211.918V236.701Z" fill="#2C2C2C"/>
<path fill-rule="evenodd" clip-rule="evenodd" d="M212.312 236.195C212.468 236.316 212.56 236.503 212.56 236.701V281.911C212.56 282.266 212.272 282.553 211.918 282.553H90.217C89.8626 282.553 89.5752 282.266 89.5752 281.911V276.493C89.5752 276.311 89.6521 276.138 89.7868 276.017C89.9214 275.895 90.1014 275.836 90.282 275.854C100.397 276.883 123.357 277.12 151.426 263.767L151.426 263.767C161.056 259.19 169.203 255.055 176.362 251.423C180.069 249.541 183.511 247.795 186.756 246.191C196.25 241.499 204.046 238.036 211.76 236.079C211.952 236.031 212.156 236.073 212.312 236.195ZM151.977 264.927C124.279 278.103 101.478 278.181 90.8589 277.2V281.269H211.276V237.532C203.958 239.486 196.475 242.82 187.325 247.342C184.102 248.935 180.67 250.676 176.968 252.554C169.8 256.192 161.619 260.343 151.977 264.927Z" fill="#2C2C2C"/>
<path d="M153.063 145.992C153.063 148.022 150.955 149.667 148.354 149.667C145.754 149.667 143.646 148.022 143.646 145.992C143.646 143.962 145.754 142.316 148.354 142.316C150.955 142.316 153.063 143.962 153.063 145.992Z" fill="white"/>
<path d="M210.888 277.42H90.7842V281.101H210.888V277.42Z" fill="white"/>
<path fill-rule="evenodd" clip-rule="evenodd" d="M137.765 141.776H160.641L160.567 142.385C160.225 145.164 158.871 147.698 156.78 149.547C154.686 151.399 151.995 152.41 149.205 152.41C146.415 152.41 143.724 151.399 141.63 149.547C139.537 147.696 138.199 145.148 137.843 142.388L137.765 141.776ZM139.017 142.861C139.446 145.126 140.61 147.197 142.349 148.735C144.243 150.409 146.678 151.325 149.205 151.325C151.732 151.325 154.167 150.409 156.061 148.735C157.803 147.194 158.977 145.133 159.396 142.861H139.017Z" fill="#2C2C2C"/>
<path d="M262.47 40.0738L265.637 43.2408L236.817 72.0607L224.149 59.3926L227.316 56.2256L236.817 65.7267L262.47 40.0738ZM262.47 33.6719L236.817 59.3248L227.316 49.8237L217.747 59.3926L236.817 78.4627L272.039 43.2408L262.47 33.6719Z" fill="#50BFD7"/>
<path d="M171.682 63.7225C165.736 56.4102 157.427 52 146.758 52C122.601 52 99 74.2784 99 102.048C99 129.818 118.575 152.338 142.732 152.338C145.051 152.338 147.298 152.125 149.475 151.741C149.703 152.964 149.831 154.216 149.831 155.511C149.831 155.738 149.816 155.98 149.816 156.208C216.381 140.047 205.484 59.6111 171.682 63.7225Z" fill="#2C2C2C"/>
<path d="M115.658 135.324C120.726 135.324 124.834 131.215 124.834 126.148C124.834 121.08 120.726 116.972 115.658 116.972C110.591 116.972 106.482 121.08 106.482 126.148C106.482 131.215 110.591 135.324 115.658 135.324Z" fill="#E0E0E0"/>
<path fill-rule="evenodd" clip-rule="evenodd" d="M115.658 117.54C110.905 117.54 107.051 121.394 107.051 126.147C107.051 130.901 110.905 134.754 115.658 134.754C120.412 134.754 124.265 130.901 124.265 126.147C124.265 121.394 120.412 117.54 115.658 117.54ZM105.913 126.147C105.913 120.765 110.276 116.402 115.658 116.402C121.04 116.402 125.403 120.765 125.403 126.147C125.403 131.529 121.04 135.892 115.658 135.892C110.276 135.892 105.913 131.529 105.913 126.147Z" fill="#2C2C2C"/>
<path d="M180.275 135.324C185.342 135.324 189.451 131.215 189.451 126.148C189.451 121.08 185.342 116.972 180.275 116.972C175.207 116.972 171.099 121.08 171.099 126.148C171.099 131.215 175.207 135.324 180.275 135.324Z" fill="#E0E0E0"/>
<path fill-rule="evenodd" clip-rule="evenodd" d="M180.274 117.54C175.521 117.54 171.667 121.394 171.667 126.147C171.667 130.901 175.521 134.754 180.274 134.754C185.028 134.754 188.881 130.901 188.881 126.147C188.881 121.394 185.028 117.54 180.274 117.54ZM170.529 126.147C170.529 120.765 174.892 116.402 180.274 116.402C185.656 116.402 190.019 120.765 190.019 126.147C190.019 131.529 185.656 135.892 180.274 135.892C174.892 135.892 170.529 131.529 170.529 126.147Z" fill="#2C2C2C"/>
<path d="M148.834 164.429C168.532 164.429 184.5 141.825 184.5 113.94C184.5 86.0559 168.532 63.4512 148.834 63.4512C129.137 63.4512 113.169 86.0559 113.169 113.94C113.169 141.825 129.137 164.429 148.834 164.429Z" fill="#E0E0E0"/>
<path fill-rule="evenodd" clip-rule="evenodd" d="M124.081 78.5691C117.702 87.5989 113.739 100.103 113.739 113.942C113.739 127.781 117.702 140.285 124.081 149.315C130.46 158.346 139.221 163.862 148.835 163.862C158.449 163.862 167.21 158.346 173.589 149.315C179.968 140.285 183.931 127.781 183.931 113.942C183.931 100.103 179.968 87.5989 173.589 78.5691C167.21 69.5378 158.449 64.0219 148.835 64.0219C139.221 64.0219 130.46 69.5378 124.081 78.5691ZM123.151 77.9124C129.68 68.6703 138.752 62.8838 148.835 62.8838C158.918 62.8838 167.99 68.6703 174.519 77.9124C181.049 87.1561 185.069 99.8962 185.069 113.942C185.069 127.988 181.049 140.728 174.519 149.971C167.99 159.214 158.918 165 148.835 165C138.752 165 129.68 159.214 123.151 149.971C116.621 140.728 112.601 127.988 112.601 113.942C112.601 99.8962 116.621 87.1561 123.151 77.9124Z" fill="#2C2C2C"/>
<path d="M107.963 102.745C107.963 102.745 138.322 104.225 148.437 85.9581C148.437 85.9581 170.402 104.964 191.372 103.485L189.394 95.0914L181.257 79.0442L176.32 73.126L166.205 62.5132L152.633 56.8369L136.344 59.0562L114.621 73.8658L111.904 83.7388L107.963 102.745Z" fill="#2C2C2C"/>
<path d="M149.701 133.674C149.716 133.759 149.531 133.915 149.118 133.915C148.72 133.93 148.108 133.745 147.568 133.233C147.297 132.977 147.055 132.664 146.87 132.265C146.842 132.208 146.828 132.151 146.799 132.095L146.771 132.009L146.742 131.938L146.7 131.81C146.686 131.753 146.671 131.682 146.643 131.625C146.586 131.412 146.543 131.184 146.529 130.942C146.444 130.003 146.629 129.05 146.856 128.14C147.738 124.498 148.777 121.638 149.161 121.724C149.545 121.823 149.147 124.839 148.265 128.481C148.037 129.377 147.866 130.188 147.866 130.871C147.866 131.042 147.881 131.212 147.895 131.369L147.909 131.426V131.454V131.469V131.483C147.909 131.483 147.895 131.44 147.909 131.454L147.937 131.597L147.952 131.668L147.966 131.71L147.994 131.796C148.08 132.066 148.208 132.322 148.35 132.521C148.635 132.934 148.976 133.19 149.246 133.332C149.502 133.517 149.687 133.574 149.701 133.674Z" fill="#2C2C2C"/>
<path d="M139.559 116.616C139.559 120.671 136.045 123.957 131.721 123.957C127.382 123.957 123.882 120.671 123.882 116.616C123.882 112.562 127.396 109.275 131.721 109.275C136.031 109.275 139.559 112.562 139.559 116.616Z" fill="white"/>
<path fill-rule="evenodd" clip-rule="evenodd" d="M131.72 109.844C127.674 109.844 124.451 112.91 124.451 116.616C124.451 120.322 127.66 123.388 131.72 123.388C135.767 123.388 138.99 120.321 138.99 116.616C138.99 112.911 135.753 109.844 131.72 109.844ZM123.312 116.616C123.312 112.212 127.117 108.706 131.72 108.706C136.308 108.706 140.128 112.212 140.128 116.616C140.128 121.019 136.323 124.526 131.72 124.526C127.102 124.526 123.312 121.019 123.312 116.616Z" fill="#2C2C2C"/>
<path d="M127.864 116.161C127.864 119.504 130.041 122.221 132.715 122.221C135.39 122.221 137.567 119.504 137.567 116.161C137.567 112.818 135.39 110.101 132.715 110.101C130.041 110.086 127.864 112.804 127.864 116.161Z" fill="#50BFD7"/>
<path d="M129.275 116.16C129.275 118.536 130.812 120.457 132.718 120.457C134.624 120.457 136.161 118.536 136.161 116.16C136.161 113.784 134.624 111.85 132.718 111.85C130.812 111.85 129.275 113.77 129.275 116.16Z" fill="#2C2C2C"/>
<path d="M129.061 112.078C129.061 112.732 129.857 113.245 130.839 113.245C131.82 113.245 132.617 112.718 132.617 112.078C132.617 111.424 131.82 110.911 130.839 110.911C129.857 110.897 129.061 111.424 129.061 112.078Z" fill="white"/>
<path d="M141.794 105.391C141.794 105.391 131.209 94.8347 119.828 107.368C119.828 107.368 129.673 101.066 141.794 105.391Z" fill="#2C2C2C"/>
<path d="M173.66 116.616C173.66 120.671 170.146 123.957 165.821 123.957C161.482 123.957 157.982 120.671 157.982 116.616C157.982 112.562 161.496 109.275 165.821 109.275C170.146 109.275 173.66 112.562 173.66 116.616Z" fill="white"/>
<path fill-rule="evenodd" clip-rule="evenodd" d="M165.821 109.844C161.774 109.844 158.551 112.91 158.551 116.616C158.551 120.322 161.761 123.388 165.821 123.388C169.867 123.388 173.09 120.321 173.09 116.616C173.09 112.91 169.867 109.844 165.821 109.844ZM157.413 116.616C157.413 112.212 161.218 108.706 165.821 108.706C170.424 108.706 174.229 112.212 174.229 116.616C174.229 121.019 170.424 124.526 165.821 124.526C161.203 124.526 157.413 121.019 157.413 116.616Z" fill="#2C2C2C"/>
<path d="M161.979 116.161C161.979 119.504 164.156 122.221 166.831 122.221C169.505 122.221 171.682 119.504 171.682 116.161C171.682 112.818 169.505 110.101 166.831 110.101C164.142 110.086 161.979 112.804 161.979 116.161Z" fill="#50BFD7"/>
<path d="M163.374 116.16C163.374 118.536 164.91 120.457 166.817 120.457C168.723 120.457 170.26 118.536 170.26 116.16C170.26 113.784 168.723 111.85 166.817 111.85C164.925 111.85 163.374 113.77 163.374 116.16Z" fill="#2C2C2C"/>
<path d="M163.16 112.078C163.16 112.732 163.957 113.245 164.938 113.245C165.92 113.245 166.717 112.718 166.717 112.078C166.717 111.424 165.92 110.911 164.938 110.911C163.957 110.897 163.16 111.424 163.16 112.078Z" fill="white"/>
<path d="M175.907 104.239C175.907 104.239 165.322 93.6833 153.941 106.217C153.927 106.217 163.772 99.9145 175.907 104.239Z" fill="#2C2C2C"/>
<path d="M137.255 141.739C137.611 144.499 138.948 147.046 141.039 148.895C143.13 150.745 145.819 151.755 148.607 151.755C151.396 151.755 154.085 150.745 156.176 148.895C158.267 147.046 159.619 144.513 159.96 141.739H137.255Z" fill="white"/>
<path fill-rule="evenodd" clip-rule="evenodd" d="M136.607 141.172H160.603L160.524 141.81C160.166 144.725 158.746 147.383 156.552 149.323C154.356 151.265 151.533 152.325 148.607 152.325C145.681 152.325 142.858 151.265 140.662 149.323C138.466 147.381 137.063 144.709 136.69 141.814L136.607 141.172ZM137.921 142.31C138.371 144.686 139.592 146.857 141.416 148.47C143.402 150.227 145.957 151.187 148.607 151.187C151.258 151.187 153.812 150.227 155.799 148.47C157.626 146.855 158.857 144.693 159.297 142.31H137.921Z" fill="#2C2C2C"/>
<path fill-rule="evenodd" clip-rule="evenodd" d="M112.458 111.267V111.551H111.32V111.267H112.458Z" fill="#2C2C2C"/>
<path fill-rule="evenodd" clip-rule="evenodd" d="M118.432 114.396V114.681H117.294V114.396H118.432Z" fill="#2C2C2C"/>
<path d="M150.782 112.718C152.731 113.131 152.006 114.397 152.006 114.582C152.006 114.767 152.731 125.294 162.135 128.068C171.539 130.842 177.172 125.394 178.808 122.662C180.444 119.931 181.81 113.444 182.208 112.946C182.621 112.448 184.57 111.58 184.57 111.58L184.797 109.034L182.351 108.308C182.351 108.308 176.176 105.491 167.086 105.363C158.009 105.221 152.874 110.456 152.874 110.456C150.313 109.645 147.14 109.532 144.238 110.456C144.238 110.456 139.103 105.235 130.026 105.363C120.95 105.505 114.761 108.308 114.761 108.308L112.314 109.034L112.542 111.58C112.542 111.58 114.491 112.448 114.904 112.946C115.316 113.444 116.668 119.945 118.304 122.662C119.94 125.394 125.573 130.842 134.977 128.068C144.381 125.294 145.106 114.767 145.106 114.582C145.106 114.397 144.381 113.131 146.33 112.718C148.037 112.363 149.089 112.363 150.782 112.718ZM173.36 125.892C166.189 130.202 157.597 125.849 155.008 120.173C152.418 114.496 154.595 111.495 154.595 111.495C158.92 104.438 176.39 104.14 179.391 111.765C179.904 113.045 180.53 121.581 173.36 125.892ZM117.72 111.765C120.722 104.126 138.192 104.438 142.517 111.495C142.517 111.495 144.694 114.496 142.104 120.173C139.515 125.849 130.937 130.202 123.752 125.892C116.597 121.581 117.223 113.045 117.72 111.765Z" fill="#2C2C2C"/>
</svg>
