<svg width="224" height="164" viewBox="0 0 224 164" fill="none" xmlns="http://www.w3.org/2000/svg">
<path d="M171.784 48.1077C171.784 48.1077 165.368 23.2569 126.522 7.58463C87.6763 -8.08761 52.9234 6.42767 45.0006 24.7921C37.0778 43.1566 45.3809 53.0734 40.094 68.7567C34.8071 84.4399 7.646 104.303 18.6078 128.39C29.5696 152.477 80.8642 159.356 122.372 154.387C163.88 149.417 196.309 94.3641 171.784 48.1077Z" fill="#50BFD7"/>
<path opacity="0.7" d="M171.784 48.1077C171.784 48.1077 165.368 23.2569 126.522 7.58463C87.6763 -8.08761 52.9234 6.42767 45.0006 24.7921C37.0778 43.1566 45.3809 53.0734 40.094 68.7567C34.8071 84.4399 7.646 104.303 18.6078 128.39C29.5696 152.477 80.8642 159.356 122.372 154.387C163.88 149.417 196.309 94.3641 171.784 48.1077Z" fill="white"/>
<path d="M223.896 112.93C223.896 112.223 223.861 73.3216 223.811 13.3003L223.896 13.3737H105.391L105.491 13.2733C105.491 49.378 105.491 83.4314 105.491 112.903L105.398 112.814L223.915 112.903L105.398 112.992H105.298V112.903C105.298 83.4314 105.298 49.378 105.298 13.2733V13.1729H105.41H223.915H224V13.2578C223.946 73.3216 223.896 112.223 223.896 112.93Z" fill="#FAFAFA"/>
<path d="M223.91 13.3008H105.394V112.931H223.91V13.3008Z" fill="#FAFAFA"/>
<path d="M148.183 20.1797H105.627V29.9341H148.183V20.1797Z" fill="#EBEBEB"/>
<path d="M116.358 28.0539C116.358 28.0539 116.358 27.9264 116.358 27.6946C116.358 27.4628 116.358 27.119 116.358 26.7134C116.358 25.848 116.335 24.6505 116.315 23.2056L116.397 23.2868H109.339L109.439 23.1863V25.7012C109.439 26.5125 109.439 27.289 109.439 28.0191L109.346 27.9264L114.411 27.9727L115.871 27.9998H116.258H116.4C116.235 28.0182 116.069 28.0259 115.902 28.023L114.461 28.0461L109.339 28.0925H109.25V28.0539C109.25 27.316 109.25 26.5395 109.25 25.736V24.4921C109.25 24.2835 109.25 24.071 109.25 23.8585V23.1979C109.161 23.2868 109.373 23.0743 109.354 23.0975H116.412H116.493V23.1786C116.493 24.6466 116.462 25.8596 116.451 26.7365C116.451 27.1229 116.451 27.4551 116.451 27.7023C116.431 27.8222 116.4 27.9399 116.358 28.0539V28.0539Z" fill="#263238"/>
<path d="M116.358 23.1894C116.358 23.1894 116.277 23.3014 116.107 23.4753C115.937 23.6491 115.686 23.8925 115.373 24.1938C114.747 24.7965 113.87 25.6193 112.897 26.5117C112.623 26.5117 112.82 26.5117 112.758 26.5117H112.735L112.688 26.4692L112.599 26.3842L112.418 26.2181L112.07 25.8936L111.41 25.2794L110.285 24.19C109.972 23.8886 109.721 23.6453 109.547 23.4714C109.451 23.3877 109.367 23.2916 109.296 23.1855C109.296 23.1855 109.416 23.2551 109.602 23.4135C109.787 23.5719 110.054 23.7998 110.374 24.0857L111.51 25.1055L112.174 25.712L112.526 26.0327L112.708 26.1988L112.796 26.2838L112.843 26.3224L112.866 26.3456H112.742C113.716 25.4493 114.604 24.6419 115.257 24.0663C115.582 23.7805 115.848 23.5487 116.03 23.3942C116.129 23.3105 116.239 23.2415 116.358 23.1894V23.1894Z" fill="#263238"/>
<path d="M111.648 25.3496C111.334 25.862 110.964 26.3376 110.544 26.7674C110.175 27.2422 109.754 27.6738 109.288 28.0538C109.603 27.5431 109.974 27.0689 110.393 26.6399C110.762 26.1644 111.183 25.7316 111.648 25.3496V25.3496Z" fill="#263238"/>
<path d="M116.404 28.0962C115.948 27.6905 115.539 27.2358 115.183 26.7402C114.774 26.2847 114.417 25.786 114.117 25.2529C114.573 25.6594 114.982 26.1155 115.337 26.6127C115.746 27.0665 116.104 27.564 116.404 28.0962V28.0962Z" fill="#263238"/>
<path d="M143.295 24.8866C143.295 24.9445 138.311 24.987 132.169 24.987C126.026 24.987 121.047 24.9445 121.047 24.8866C121.047 24.8286 126.026 24.7861 132.169 24.7861C138.311 24.7861 143.295 24.8325 143.295 24.8866Z" fill="#263238"/>
<path d="M223.912 63.5088H147.643V80.2206H223.912V63.5088Z" fill="#50BFD7"/>
<g opacity="0.8">
<path opacity="0.8" d="M223.911 63.5088H147.641V80.2206H223.911V63.5088Z" fill="white"/>
</g>
<path d="M157.941 68.7324H153.418C152.937 68.7324 152.548 69.1216 152.548 69.6016V74.1253C152.548 74.6054 152.937 74.9945 153.418 74.9945H157.941C158.421 74.9945 158.81 74.6054 158.81 74.1253V69.6016C158.81 69.1216 158.421 68.7324 157.941 68.7324Z" fill="#50BFD7"/>
<path d="M155.205 73.2512C155.121 73.2512 155.04 73.2241 154.973 73.1739L153.71 72.2236C153.664 72.1952 153.625 72.1577 153.595 72.1134C153.565 72.0691 153.544 72.019 153.534 71.9662C153.525 71.9135 153.526 71.8593 153.538 71.8071C153.55 71.7549 153.573 71.7058 153.606 71.663C153.638 71.6202 153.679 71.5845 153.726 71.5584C153.773 71.5322 153.824 71.5161 153.878 71.5111C153.931 71.5061 153.985 71.5122 154.036 71.5291C154.087 71.546 154.134 71.5734 154.173 71.6094L155.159 72.3472L157.136 70.1993C157.206 70.124 157.303 70.0795 157.405 70.0755C157.508 70.0715 157.608 70.1084 157.683 70.1781C157.758 70.2477 157.803 70.3445 157.807 70.447C157.811 70.5495 157.774 70.6494 157.704 70.7247L155.491 73.1276C155.454 73.1669 155.41 73.1982 155.361 73.2195C155.312 73.2407 155.259 73.2515 155.205 73.2512Z" fill="white"/>
<path d="M223.912 46.7119H147.643V63.4238H223.912V46.7119Z" fill="#50BFD7"/>
<path d="M223.451 63.4862C223.451 63.5441 206.6 63.5866 185.817 63.5866C165.033 63.5866 148.182 63.5441 148.182 63.4862C148.182 63.4282 165.029 63.3857 185.817 63.3857C206.604 63.3857 223.451 63.4321 223.451 63.4862Z" fill="#263238"/>
<path d="M223.954 96.918H147.684V112.931H223.954V96.918Z" fill="#50BFD7"/>
<g opacity="0.8">
<path opacity="0.8" d="M223.954 96.918H147.684V112.931H223.954V96.918Z" fill="white"/>
</g>
<path d="M157.979 102.145H153.456C152.976 102.145 152.586 102.534 152.586 103.014V107.537C152.586 108.017 152.976 108.407 153.456 108.407H157.979C158.459 108.407 158.849 108.017 158.849 107.537V103.014C158.849 102.534 158.459 102.145 157.979 102.145Z" fill="#50BFD7"/>
<path d="M155.244 106.667C155.16 106.667 155.079 106.64 155.012 106.59L153.749 105.64C153.667 105.578 153.613 105.487 153.598 105.385C153.584 105.284 153.61 105.181 153.672 105.099C153.733 105.017 153.824 104.963 153.926 104.948C154.027 104.934 154.13 104.96 154.212 105.022L155.197 105.763L157.175 103.616C157.209 103.574 157.25 103.541 157.297 103.516C157.343 103.491 157.395 103.477 157.447 103.473C157.5 103.469 157.553 103.476 157.603 103.493C157.653 103.51 157.699 103.538 157.737 103.573C157.776 103.609 157.808 103.653 157.829 103.701C157.851 103.749 157.862 103.801 157.862 103.854C157.863 103.907 157.853 103.959 157.832 104.008C157.812 104.057 157.781 104.101 157.743 104.137L155.518 106.544C155.483 106.582 155.441 106.612 155.393 106.633C155.346 106.655 155.295 106.666 155.244 106.667V106.667Z" fill="white"/>
<g opacity="0.8">
<path opacity="0.8" d="M223.911 46.7119H147.641V63.4238H223.911V46.7119Z" fill="white"/>
</g>
<path d="M157.941 51.9365H153.418C152.937 51.9365 152.548 52.3257 152.548 52.8057V57.3294C152.548 57.8095 152.937 58.1986 153.418 58.1986H157.941C158.421 58.1986 158.81 57.8095 158.81 57.3294V52.8057C158.81 52.3257 158.421 51.9365 157.941 51.9365Z" fill="#50BFD7"/>
<path d="M155.205 56.4585C155.121 56.4585 155.04 56.4314 154.973 56.3812L153.71 55.4309C153.664 55.4026 153.625 55.365 153.595 55.3207C153.565 55.2764 153.544 55.2263 153.534 55.1735C153.525 55.1208 153.526 55.0666 153.538 55.0144C153.55 54.9622 153.573 54.9131 153.606 54.8703C153.638 54.8275 153.679 54.7919 153.726 54.7657C153.773 54.7396 153.824 54.7235 153.878 54.7184C153.931 54.7134 153.985 54.7195 154.036 54.7364C154.087 54.7533 154.134 54.7807 154.173 54.8167L155.159 55.5545L157.136 53.4066C157.206 53.3315 157.302 53.2869 157.404 53.2826C157.506 53.2782 157.606 53.3145 157.681 53.3835C157.719 53.4178 157.75 53.4593 157.771 53.5056C157.793 53.5518 157.805 53.6019 157.807 53.6529C157.809 53.7039 157.801 53.7549 157.784 53.8028C157.766 53.8507 157.739 53.8946 157.704 53.932L155.491 56.3349C155.454 56.3742 155.41 56.4055 155.361 56.4268C155.312 56.4481 155.259 56.4589 155.205 56.4585V56.4585Z" fill="white"/>
<path d="M223.896 112.93C223.896 112.223 223.861 73.3216 223.811 13.3003L223.896 13.3737H105.391L105.491 13.2733C105.491 49.378 105.491 83.4314 105.491 112.903L105.398 112.814L223.915 112.903L105.398 112.992H105.298V112.903C105.298 83.4314 105.298 49.378 105.298 13.2733V13.1729H105.41H223.915H224V13.2578C223.946 73.3216 223.896 112.223 223.896 112.93Z" fill="#50BFD7"/>
<path d="M105.627 20.1795C105.627 20.1216 132.055 20.0791 164.652 20.0791C197.249 20.0791 223.684 20.1216 223.684 20.1795C223.684 20.2375 197.26 20.28 164.652 20.28C132.043 20.28 105.627 20.2336 105.627 20.1795Z" fill="#50BFD7"/>
<path d="M109.234 17.8789C109.934 17.8789 110.501 17.3116 110.501 16.6118C110.501 15.912 109.934 15.3447 109.234 15.3447C108.534 15.3447 107.967 15.912 107.967 16.6118C107.967 17.3116 108.534 17.8789 109.234 17.8789Z" fill="#50BFD7"/>
<path d="M112.757 17.8789C113.457 17.8789 114.024 17.3116 114.024 16.6118C114.024 15.912 113.457 15.3447 112.757 15.3447C112.058 15.3447 111.49 15.912 111.49 16.6118C111.49 17.3116 112.058 17.8789 112.757 17.8789Z" fill="#50BFD7"/>
<path d="M117.564 15.7151C117.741 15.8924 117.861 16.1182 117.91 16.3639C117.959 16.6097 117.934 16.8644 117.838 17.0959C117.742 17.3274 117.58 17.5253 117.371 17.6645C117.163 17.8037 116.918 17.878 116.667 17.878C116.417 17.878 116.172 17.8037 115.964 17.6645C115.755 17.5253 115.593 17.3274 115.497 17.0959C115.401 16.8644 115.376 16.6097 115.425 16.3639C115.474 16.1182 115.594 15.8924 115.771 15.7151C115.889 15.5974 116.029 15.504 116.182 15.4403C116.336 15.3765 116.501 15.3438 116.667 15.3438C116.834 15.3438 116.999 15.3765 117.153 15.4403C117.306 15.504 117.446 15.5974 117.564 15.7151V15.7151Z" fill="#50BFD7"/>
<path d="M121.137 33.8479C121.228 33.8367 121.32 33.8367 121.411 33.8479L122.215 33.8248L125.158 33.7861H125.197L125.22 33.817L126.518 35.5245L126.537 35.5516V35.5825C126.537 36.3551 126.537 37.2127 126.537 38.1012V38.2017H125.255H119.955H119.87V38.0974C119.87 37.2243 119.87 36.4478 119.893 35.7795L120.797 34.3617C120.898 34.1828 121.012 34.0111 121.137 33.8479C121.12 33.8997 121.097 33.949 121.067 33.9947L120.847 34.3811L120.013 35.8065V35.7718C120.013 36.4285 120.013 37.205 120.032 38.0896L119.947 38.0047H125.247H126.433L126.333 38.1051C126.333 37.2166 126.333 36.3667 126.333 35.5863L126.352 35.6404L125.077 33.9213L125.143 33.9522L122.23 33.9136H121.419C121.323 33.9002 121.229 33.8782 121.137 33.8479V33.8479Z" fill="#263238"/>
<path d="M126.448 35.6942C126.265 35.7434 126.077 35.7693 125.888 35.7714C125.532 35.8024 125.022 35.8371 124.416 35.8758L124.497 35.7908C124.482 36.1136 124.376 36.4257 124.192 36.6909C124.091 36.8365 123.959 36.9579 123.805 37.0463C123.636 37.1248 123.452 37.1682 123.265 37.1738C123.065 37.182 122.867 37.1461 122.683 37.0686C122.5 36.9911 122.335 36.874 122.202 36.7256C121.981 36.4604 121.832 36.1423 121.77 35.8024L121.855 35.8719C121.291 35.8719 120.819 35.8526 120.491 35.8371C120.318 35.8405 120.145 35.821 119.977 35.7792C120.146 35.7427 120.318 35.7272 120.491 35.7328C120.819 35.7328 121.291 35.7058 121.855 35.6942H121.909V35.7676C121.974 36.0698 122.114 36.3512 122.314 36.5866C122.428 36.7143 122.569 36.8152 122.727 36.882C122.884 36.9488 123.055 36.9798 123.226 36.9729C123.384 36.9723 123.539 36.9366 123.682 36.8686C123.816 36.7993 123.932 36.7002 124.022 36.5788C124.186 36.345 124.284 36.0716 124.308 35.7869V35.7058H124.381C124.991 35.6865 125.501 35.6749 125.861 35.671C126.057 35.6538 126.254 35.6616 126.448 35.6942V35.6942Z" fill="#263238"/>
<path d="M140.97 34.0604C141.078 34.0361 141.188 34.0257 141.299 34.0295V34.0913C140.526 34.1299 138.135 34.1608 135.33 34.1608C133.592 34.1608 132.016 34.1608 130.876 34.1299L129.528 34.099C129.362 34.1046 129.196 34.0916 129.033 34.0604C129.196 34.0292 129.362 34.0162 129.528 34.0218L130.876 33.9909C132.016 33.9716 133.58 33.96 135.33 33.96C138.135 33.96 140.511 33.9909 141.299 34.0295V34.0913C141.188 34.0977 141.077 34.0873 140.97 34.0604V34.0604Z" fill="#263238"/>
<path d="M140.97 36.5917C141.077 36.5648 141.188 36.5544 141.299 36.5608V36.6226C140.526 36.6612 138.135 36.6921 135.33 36.6921C133.592 36.6921 132.016 36.6921 130.876 36.6612L129.528 36.6303C129.362 36.6334 129.196 36.6204 129.033 36.5917C129.196 36.56 129.362 36.5458 129.528 36.5492L130.876 36.5183C132.016 36.5183 133.58 36.4912 135.33 36.4912C138.135 36.4912 140.511 36.5183 141.299 36.5608V36.6226C141.188 36.6238 141.078 36.6134 140.97 36.5917V36.5917Z" fill="#263238"/>
<path d="M140.97 39.117C141.078 39.0927 141.188 39.0823 141.299 39.0861V39.1479C140.526 39.1904 138.135 39.2175 135.33 39.2175C133.592 39.2175 132.016 39.2175 130.876 39.1904L129.528 39.1557C129.362 39.1612 129.196 39.1483 129.033 39.117C129.196 39.0883 129.362 39.0753 129.528 39.0784L130.876 39.0475C132.016 39.0282 133.58 39.0166 135.33 39.0166C138.135 39.0166 140.511 39.0475 141.299 39.0861V39.1479C141.188 39.1543 141.077 39.1439 140.97 39.117V39.117Z" fill="#263238"/>
<path d="M121.137 51.9551C121.227 51.937 121.319 51.9293 121.411 51.932L122.215 51.9127L125.158 51.874H125.197L125.22 51.9049L126.518 53.6124L126.537 53.6395V53.6704C126.537 54.443 126.537 55.3006 126.537 56.1891V56.2896H125.255H119.955H119.87V56.2046C119.87 55.3315 119.87 54.555 119.893 53.8867V53.8674L120.797 52.4496C120.896 52.2829 121.005 52.1229 121.125 51.9706C121.108 52.0223 121.085 52.0717 121.056 52.1174L120.835 52.5037L120.016 53.9369V53.9022C120.016 54.5589 120.016 55.3354 120.036 56.22L119.951 56.135H125.251H126.437L126.336 56.2355C126.336 55.347 126.336 54.4971 126.336 53.7167L126.356 53.7708L125.081 52.0517L125.147 52.0826L122.234 52.044H121.423C121.325 52.0233 121.229 51.9935 121.137 51.9551V51.9551Z" fill="#263238"/>
<path d="M126.448 53.7899C126.265 53.8391 126.077 53.865 125.888 53.8672C125.532 53.8981 125.022 53.9328 124.416 53.9715L124.497 53.8865C124.482 54.2093 124.376 54.5214 124.192 54.7866C124.091 54.9322 123.959 55.0537 123.805 55.142C123.636 55.2205 123.452 55.2639 123.265 55.2695C123.065 55.2777 122.867 55.2418 122.683 55.1643C122.5 55.0869 122.335 54.9697 122.202 54.8214C121.981 54.5561 121.832 54.238 121.77 53.8981L121.855 53.9676C121.291 53.9676 120.819 53.9483 120.491 53.9328C120.318 53.9388 120.145 53.9219 119.977 53.8826C120.146 53.8458 120.318 53.8289 120.491 53.8324L121.855 53.7976H121.909V53.871C121.974 54.1733 122.114 54.4546 122.314 54.69C122.428 54.8177 122.569 54.9186 122.727 54.9854C122.884 55.0522 123.055 55.0833 123.226 55.0763C123.384 55.0757 123.539 55.0401 123.682 54.972C123.816 54.9027 123.932 54.8036 124.022 54.6823C124.186 54.4484 124.284 54.175 124.308 53.8903V53.8092H124.381C124.991 53.8092 125.501 53.7783 125.861 53.7744C126.056 53.7547 126.253 53.7599 126.448 53.7899V53.7899Z" fill="#263238"/>
<path d="M140.97 52.1551C141.078 52.1308 141.188 52.1204 141.299 52.1242V52.186C140.526 52.2247 138.135 52.2556 135.33 52.2556C133.592 52.2556 132.016 52.2556 130.876 52.2247L129.528 52.1938C129.362 52.1993 129.196 52.1864 129.033 52.1551C129.196 52.1239 129.362 52.1109 129.528 52.1165L130.876 52.0856C132.016 52.0663 133.58 52.0547 135.33 52.0547C138.135 52.0547 140.511 52.0856 141.299 52.1242V52.186C141.188 52.1898 141.078 52.1794 140.97 52.1551V52.1551Z" fill="#263238"/>
<path d="M140.97 54.6853C141.077 54.6585 141.188 54.648 141.299 54.6544V54.7085C140.526 54.7471 138.135 54.778 135.33 54.778C133.592 54.778 132.016 54.778 130.876 54.7471L129.528 54.7162C129.362 54.7193 129.196 54.7064 129.033 54.6776C129.196 54.646 129.362 54.6317 129.528 54.6351L130.876 54.6042C132.016 54.5849 133.58 54.5771 135.33 54.5771C138.135 54.5771 140.511 54.6042 141.299 54.6467V54.7085C141.189 54.7123 141.079 54.7045 140.97 54.6853V54.6853Z" fill="#263238"/>
<path d="M140.97 57.2127C141.078 57.1884 141.188 57.1781 141.299 57.1818V57.2436C140.526 57.2861 138.135 57.3132 135.33 57.3132C133.592 57.3132 132.016 57.3132 130.876 57.2861L129.528 57.2514C129.362 57.2569 129.196 57.244 129.033 57.2127C129.196 57.184 129.362 57.171 129.528 57.1741L130.876 57.1432C132.016 57.1239 133.58 57.1123 135.33 57.1123C138.135 57.1123 140.511 57.1432 141.299 57.1818V57.2436C141.188 57.25 141.077 57.2396 140.97 57.2127V57.2127Z" fill="#263238"/>
<path d="M121.137 70.0499C121.227 70.0318 121.319 70.024 121.411 70.0267L122.215 70.0074L125.158 69.9688H125.197L125.22 69.9997L126.518 71.7072L126.537 71.7342V71.7651C126.537 72.5377 126.537 73.3953 126.537 74.2839V74.3843H125.255H119.955H119.87V74.2993C119.87 73.4262 119.87 72.6498 119.893 71.9814L120.797 70.5637C120.896 70.397 121.005 70.237 121.125 70.0846C121.108 70.1364 121.085 70.1857 121.056 70.2314L120.835 70.6178L120.001 72.0432V72.0085C120.001 72.6652 120.001 73.4417 120.02 74.3263L119.935 74.2414H125.236H126.421L126.321 74.3418C126.321 73.4533 126.321 72.6034 126.321 71.823L126.34 71.8771L125.066 70.158L125.131 70.189L122.218 70.1503H121.407C121.314 70.125 121.224 70.0913 121.137 70.0499V70.0499Z" fill="#263238"/>
<path d="M126.448 71.8846C126.265 71.9338 126.077 71.9598 125.888 71.9619C125.532 71.9928 125.022 72.0276 124.416 72.0662L124.497 71.9812C124.482 72.304 124.376 72.6161 124.192 72.8813C124.091 73.027 123.959 73.1484 123.805 73.2367C123.636 73.3159 123.452 73.358 123.265 73.3603C123.066 73.3701 122.867 73.3353 122.683 73.2585C122.499 73.1816 122.335 73.0646 122.202 72.9161C121.981 72.6508 121.832 72.3328 121.77 71.9928L121.855 72.0623C121.291 72.0623 120.819 72.0623 120.491 72.0276C120.318 72.0335 120.145 72.0166 119.977 71.9773C120.146 71.9405 120.318 71.9237 120.491 71.9271L121.855 71.8924H121.909V71.9658C121.974 72.268 122.114 72.5493 122.314 72.7847C122.428 72.9125 122.569 73.0134 122.727 73.0802C122.884 73.147 123.055 73.178 123.226 73.171C123.384 73.1704 123.539 73.1348 123.682 73.0667C123.816 72.9975 123.932 72.8983 124.022 72.777C124.186 72.5431 124.284 72.2698 124.308 71.9851V71.9039H124.381C124.991 71.8808 125.501 71.873 125.861 71.8692C126.056 71.8494 126.253 71.8546 126.448 71.8846V71.8846Z" fill="#263238"/>
<path d="M140.97 70.2499C141.078 70.2255 141.188 70.2152 141.299 70.2189V70.2808C140.526 70.3194 138.135 70.3503 135.33 70.3503C133.592 70.3503 132.016 70.3503 130.876 70.3194L129.528 70.2885C129.362 70.294 129.196 70.2811 129.033 70.2499C129.196 70.2186 129.362 70.2057 129.528 70.2112L130.876 70.1803C132.016 70.161 133.58 70.1494 135.33 70.1494C138.135 70.1494 140.511 70.1803 141.299 70.2189V70.2808C141.188 70.2845 141.078 70.2742 140.97 70.2499Z" fill="#263238"/>
<path d="M140.97 72.7811C141.077 72.7543 141.188 72.7438 141.299 72.7502V72.812C140.526 72.8506 138.135 72.8815 135.33 72.8815C133.592 72.8815 132.016 72.8815 130.876 72.8506L129.528 72.8197C129.362 72.8228 129.196 72.8099 129.033 72.7811C129.196 72.7495 129.362 72.7352 129.528 72.7386L130.876 72.7077C132.016 72.6884 133.58 72.6807 135.33 72.6807C138.135 72.6807 140.511 72.7077 141.299 72.7502V72.812C141.188 72.8132 141.078 72.8029 140.97 72.7811V72.7811Z" fill="#263238"/>
<path d="M140.97 75.3075C141.078 75.2832 141.188 75.2728 141.299 75.2766V75.3384C140.526 75.3809 138.135 75.4079 135.33 75.4079C133.592 75.4079 132.016 75.4079 130.876 75.3809L129.528 75.3461C129.362 75.3517 129.196 75.3387 129.033 75.3075C129.196 75.2787 129.362 75.2658 129.528 75.2688L130.876 75.2379C132.016 75.2379 133.58 75.207 135.33 75.207C138.135 75.207 140.511 75.2379 141.299 75.2766V75.3384C141.188 75.3447 141.077 75.3343 140.97 75.3075V75.3075Z" fill="#263238"/>
<path d="M217.76 58.3981H214.816C214.663 58.4007 214.51 58.3726 214.367 58.3155C214.224 58.2584 214.094 58.1734 213.984 58.0656C213.875 57.9577 213.788 57.8291 213.728 57.6872C213.669 57.5453 213.638 57.393 213.638 57.2392V52.333H214.024V57.2237C214.024 57.3268 214.045 57.4289 214.085 57.5239C214.125 57.6189 214.184 57.705 214.258 57.777C214.331 57.849 214.419 57.9055 214.515 57.9432C214.611 57.9808 214.713 57.9989 214.816 57.9963H217.76C217.965 57.9963 218.162 57.9149 218.306 57.77C218.451 57.6251 218.533 57.4286 218.533 57.2237V52.503H218.919V57.2237C218.921 57.3772 218.893 57.5296 218.835 57.672C218.778 57.8144 218.693 57.944 218.585 58.0532C218.477 58.1625 218.349 58.2492 218.207 58.3084C218.066 58.3676 217.914 58.3981 217.76 58.3981V58.3981Z" fill="#50BFD7"/>
<path d="M219.423 52.3613H213.157V52.7476H219.423V52.3613Z" fill="#50BFD7"/>
<path d="M215.149 52.554H214.763V52.1252C214.763 51.9203 214.845 51.7237 214.989 51.5788C215.134 51.4339 215.331 51.3525 215.536 51.3525H217.081C217.286 51.3525 217.482 51.4339 217.627 51.5788C217.772 51.7237 217.854 51.9203 217.854 52.1252V52.469H217.467V52.1252C217.467 52.0227 217.427 51.9244 217.354 51.852C217.282 51.7796 217.184 51.7389 217.081 51.7389H215.536C215.433 51.7389 215.335 51.7796 215.263 51.852C215.19 51.9244 215.149 52.0227 215.149 52.1252V52.554Z" fill="#50BFD7"/>
<path d="M215.396 56.9542C215.297 56.4064 215.263 55.8488 215.296 55.293C215.263 54.7386 215.297 54.1822 215.396 53.6357C215.497 54.182 215.531 54.7386 215.496 55.293C215.531 55.8488 215.498 56.4067 215.396 56.9542V56.9542Z" fill="#50BFD7"/>
<path d="M216.304 56.9542C216.205 56.4064 216.171 55.8488 216.204 55.293C216.172 54.7386 216.205 54.1822 216.304 53.6357C216.406 54.182 216.439 54.7386 216.405 55.293C216.439 55.8488 216.406 56.4067 216.304 56.9542V56.9542Z" fill="#50BFD7"/>
<path d="M217.219 56.9542C217.12 56.4064 217.086 55.8488 217.119 55.293C217.087 54.7386 217.12 54.1822 217.219 53.6357C217.321 54.182 217.354 54.7386 217.32 55.293C217.354 55.8488 217.321 56.4067 217.219 56.9542V56.9542Z" fill="#50BFD7"/>
<path d="M217.76 74.2369H214.816C214.504 74.2359 214.205 74.1114 213.984 73.8907C213.764 73.67 213.639 73.3709 213.638 73.0587V68.168H214.024V73.0587C214.024 73.2687 214.108 73.4701 214.256 73.6187C214.405 73.7672 214.606 73.8506 214.816 73.8506H217.76C217.967 73.8456 218.163 73.7599 218.308 73.6119C218.452 73.464 218.533 73.2654 218.533 73.0587V68.3379H218.919V73.0587C218.922 73.2125 218.894 73.3653 218.836 73.5081C218.779 73.651 218.694 73.781 218.587 73.8907C218.479 74.0004 218.35 74.0875 218.208 74.1469C218.066 74.2063 217.914 74.237 217.76 74.2369Z" fill="#50BFD7"/>
<path d="M219.423 68.1953H213.157V68.5816H219.423V68.1953Z" fill="#50BFD7"/>
<path d="M215.149 68.3889H214.763V67.9601C214.763 67.7552 214.845 67.5587 214.989 67.4138C215.134 67.2689 215.331 67.1875 215.536 67.1875H217.081C217.286 67.1875 217.482 67.2689 217.627 67.4138C217.772 67.5587 217.854 67.7552 217.854 67.9601V68.3039H217.467V67.9601C217.467 67.8577 217.427 67.7594 217.354 67.687C217.282 67.6145 217.184 67.5738 217.081 67.5738H215.536C215.433 67.5738 215.335 67.6145 215.263 67.687C215.19 67.7594 215.149 67.8577 215.149 67.9601V68.3889Z" fill="#50BFD7"/>
<path d="M215.397 72.7891C215.263 71.687 215.263 70.5728 215.397 69.4707C215.531 70.5728 215.531 71.687 215.397 72.7891Z" fill="#50BFD7"/>
<path d="M216.305 72.7891C216.171 71.687 216.171 70.5728 216.305 69.4707C216.438 70.5728 216.438 71.687 216.305 72.7891V72.7891Z" fill="#50BFD7"/>
<path d="M217.221 72.7891C217.087 71.687 217.087 70.5728 217.221 69.4707C217.355 70.5728 217.355 71.687 217.221 72.7891V72.7891Z" fill="#50BFD7"/>
<path d="M217.76 109.048H214.816C214.663 109.05 214.51 109.022 214.367 108.965C214.224 108.908 214.094 108.823 213.984 108.715C213.875 108.607 213.788 108.479 213.728 108.337C213.669 108.195 213.638 108.043 213.638 107.889V102.998H214.024V107.889C214.024 107.992 214.045 108.094 214.085 108.189C214.125 108.284 214.184 108.37 214.258 108.442C214.331 108.514 214.419 108.571 214.515 108.608C214.611 108.646 214.713 108.664 214.816 108.661H217.76C217.965 108.661 218.162 108.58 218.306 108.435C218.451 108.29 218.533 108.094 218.533 107.889V103.153H218.919V107.873C218.921 108.027 218.893 108.179 218.835 108.322C218.778 108.464 218.693 108.594 218.585 108.703C218.477 108.812 218.349 108.899 218.207 108.958C218.066 109.017 217.914 109.048 217.76 109.048Z" fill="#50BFD7"/>
<path d="M219.423 103.01H213.157V103.396H219.423V103.01Z" fill="#50BFD7"/>
<path d="M215.149 103.203H214.763V102.771C214.763 102.566 214.845 102.369 214.989 102.224C215.134 102.079 215.331 101.998 215.536 101.998H217.081C217.286 101.998 217.482 102.079 217.627 102.224C217.772 102.369 217.854 102.566 217.854 102.771V103.118H217.467V102.771C217.467 102.668 217.427 102.57 217.354 102.498C217.282 102.425 217.184 102.384 217.081 102.384H215.536C215.433 102.384 215.335 102.425 215.263 102.498C215.19 102.57 215.149 102.668 215.149 102.771V103.203Z" fill="#50BFD7"/>
<path d="M215.397 107.604C215.263 106.501 215.263 105.387 215.397 104.285C215.531 105.387 215.531 106.501 215.397 107.604Z" fill="#50BFD7"/>
<path d="M216.305 107.604C216.171 106.501 216.171 105.387 216.305 104.285C216.438 105.387 216.438 106.501 216.305 107.604V107.604Z" fill="#50BFD7"/>
<path d="M217.221 107.604C217.087 106.501 217.087 105.387 217.221 104.285C217.355 105.387 217.355 106.501 217.221 107.604V107.604Z" fill="#50BFD7"/>
<path d="M223.452 29.9344C223.452 29.9885 206.601 30.0349 185.817 30.0349C165.033 30.0349 148.179 29.9846 148.179 29.9344C148.179 29.8842 165.026 29.834 185.813 29.834C206.601 29.834 223.452 29.8803 223.452 29.9344Z" fill="#263238"/>
<path d="M223.452 46.7118C223.452 46.7659 206.601 46.8122 185.817 46.8122C165.033 46.8122 148.179 46.7659 148.179 46.7118C148.179 46.6577 165.026 46.6113 185.813 46.6113C206.601 46.6113 223.452 46.6538 223.452 46.7118Z" fill="#263238"/>
<path d="M223.452 79.9208C223.452 79.9748 206.601 80.0212 185.817 80.0212C165.033 80.0212 148.179 79.9748 148.179 79.9208C148.179 79.8667 165.026 79.8203 185.813 79.8203C206.601 79.8203 223.452 79.8628 223.452 79.9208Z" fill="#263238"/>
<path d="M223.451 96.9188C223.451 96.9768 206.6 97.0192 185.817 97.0192C165.033 97.0192 148.182 96.9768 148.182 96.9188C148.182 96.8609 165.029 96.8184 185.817 96.8184C206.604 96.8184 223.451 96.8647 223.451 96.9188Z" fill="#263238"/>
<path d="M157.945 41.5736C157.945 41.5736 158.03 41.5736 158.176 41.5195C158.389 41.452 158.567 41.3035 158.671 41.1062C158.821 40.8551 158.744 40.4804 158.756 40.0554C158.767 39.6305 158.756 39.1476 158.756 38.6183C158.756 38.0891 158.756 37.498 158.756 36.8761C158.756 36.7177 158.756 36.5593 158.756 36.397C158.769 36.2427 158.756 36.0873 158.717 35.9373C158.668 35.7898 158.576 35.6604 158.453 35.566C158.33 35.4716 158.181 35.4166 158.026 35.4081H153.417C153.238 35.4095 153.065 35.473 152.927 35.5879C152.79 35.7027 152.697 35.8618 152.664 36.0378C152.637 36.3932 152.664 36.8104 152.664 37.1967C152.664 37.9693 152.664 38.7033 152.664 39.4103C152.664 39.7618 152.664 40.1056 152.664 40.4417C152.653 40.5979 152.661 40.7548 152.687 40.9092C152.72 41.0554 152.794 41.1893 152.899 41.2955C153.001 41.3924 153.126 41.4615 153.262 41.4964C153.401 41.52 153.543 41.5278 153.684 41.5195H154.522L157.044 41.5504L157.732 41.5698C157.812 41.5679 157.893 41.5744 157.972 41.5891C157.892 41.5999 157.812 41.5999 157.732 41.5891L157.044 41.6084L154.522 41.6432H153.684C153.53 41.6541 153.376 41.6463 153.224 41.62C153.055 41.5819 152.9 41.4979 152.776 41.3772C152.652 41.2565 152.564 41.1039 152.521 40.9362C152.488 40.7684 152.478 40.5969 152.49 40.4263C152.49 40.0902 152.49 39.7464 152.49 39.3948C152.49 38.6879 152.49 37.95 152.49 37.1813V36.6018C152.477 36.3998 152.477 36.1972 152.49 35.9953C152.535 35.7768 152.654 35.5807 152.828 35.4399C153.001 35.2992 153.217 35.2224 153.44 35.2227H158.03C158.22 35.2359 158.402 35.3055 158.552 35.4224C158.703 35.5393 158.816 35.6984 158.876 35.8794C158.92 36.0481 158.936 36.2231 158.922 36.397C158.922 36.5593 158.922 36.7177 158.922 36.8761C158.922 37.498 158.922 38.0814 158.922 38.6183C158.922 39.1553 158.922 39.6305 158.922 40.0554C158.922 40.2679 158.922 40.4649 158.922 40.6465C158.927 40.8203 158.886 40.9922 158.802 41.1448C158.68 41.3514 158.482 41.5014 158.25 41.562C158.151 41.5941 158.045 41.5981 157.945 41.5736V41.5736Z" fill="#263238"/>
<path d="M157.945 91.7062C157.945 91.7062 158.03 91.7062 158.176 91.6521C158.389 91.5846 158.567 91.4361 158.671 91.2387C158.821 90.9876 158.744 90.6129 158.756 90.188C158.767 89.763 158.756 89.2801 158.756 88.7509C158.756 88.2216 158.756 87.6306 158.756 87.0086C158.756 86.8502 158.756 86.6919 158.756 86.5296C158.769 86.3753 158.756 86.2198 158.717 86.0699C158.668 85.9224 158.576 85.793 158.453 85.6986C158.33 85.6042 158.181 85.5491 158.026 85.5406H153.417C153.238 85.5419 153.066 85.6049 152.928 85.719C152.791 85.833 152.698 85.9912 152.664 86.1665C152.637 86.5257 152.664 86.9391 152.664 87.3254C152.664 88.098 152.664 88.832 152.664 89.539C152.664 89.8905 152.664 90.2343 152.664 90.5666C152.653 90.724 152.661 90.8822 152.687 91.0379C152.719 91.1845 152.792 91.3188 152.899 91.4242C153 91.523 153.125 91.5925 153.262 91.6251C153.401 91.652 153.543 91.6611 153.684 91.6521H154.522L157.044 91.683L157.732 91.7023C157.812 91.6941 157.892 91.6941 157.972 91.7023C157.893 91.7196 157.812 91.7261 157.732 91.7216L157.044 91.7409L154.522 91.7719H153.684C153.53 91.7828 153.376 91.775 153.224 91.7487C153.055 91.7106 152.9 91.6266 152.776 91.5059C152.652 91.3852 152.564 91.2326 152.521 91.0649C152.488 90.8958 152.477 90.723 152.49 90.5511C152.49 90.2189 152.49 89.8751 152.49 89.5235C152.49 88.8166 152.49 88.0787 152.49 87.31V86.7305C152.477 86.5285 152.477 86.3259 152.49 86.124C152.531 85.902 152.649 85.7014 152.822 85.5568C152.996 85.4122 153.214 85.3327 153.44 85.332H158.03C158.22 85.3453 158.402 85.4148 158.552 85.5318C158.703 85.6487 158.816 85.8078 158.876 85.9888C158.92 86.1575 158.936 86.3325 158.922 86.5064C158.922 86.6687 158.922 86.8271 158.922 86.9854C158.922 87.6074 158.922 88.1907 158.922 88.7277C158.922 89.2647 158.922 89.7399 158.922 90.1648C158.922 90.3773 158.922 90.5743 158.922 90.7559C158.927 90.9296 158.886 91.1016 158.802 91.2542C158.742 91.3566 158.663 91.4459 158.568 91.5169C158.473 91.588 158.365 91.6392 158.25 91.6676C158.153 91.7061 158.048 91.7194 157.945 91.7062V91.7062Z" fill="#263238"/>
<path d="M147.623 111.497C147.623 111.497 147.623 111.416 147.623 111.262C147.623 111.107 147.623 110.875 147.623 110.57C147.623 109.952 147.623 109.056 147.623 107.908C147.623 105.591 147.623 102.249 147.623 98.1231C147.623 89.8638 147.723 78.4521 147.839 65.8468C147.955 53.2414 148.044 41.8336 148.117 33.5665C148.144 29.4407 148.163 26.0991 148.179 23.7813C148.179 22.6223 148.179 21.7377 148.202 21.1234C148.202 20.8221 148.202 20.5942 148.202 20.4319C148.202 20.2697 148.202 20.1963 148.202 20.1963C148.202 20.1963 148.202 20.2735 148.202 20.4319C148.202 20.5903 148.202 20.8182 148.202 21.1234C148.202 21.7377 148.202 22.6339 148.202 23.7813C148.202 26.0991 148.202 29.4407 148.202 33.5665C148.183 41.8259 148.102 53.2414 147.982 65.8468C147.862 78.4521 147.777 89.856 147.708 98.1231C147.681 102.249 147.661 105.591 147.646 107.908C147.646 109.067 147.646 109.952 147.623 110.57C147.623 110.868 147.623 111.095 147.623 111.262C147.623 111.428 147.623 111.497 147.623 111.497Z" fill="#263238"/>
<path d="M190.638 53.4422C190.638 53.4963 184.843 53.5427 177.673 53.5427C170.503 53.5427 164.708 53.4963 164.708 53.4422C164.708 53.3882 170.503 53.3418 177.673 53.3418C184.843 53.3418 190.638 53.3843 190.638 53.4422Z" fill="#263238"/>
<path d="M206.844 56.3006C206.844 56.3586 197.41 56.4011 185.778 56.4011C174.146 56.4011 164.708 56.3586 164.708 56.3006C164.708 56.2427 174.142 56.2002 185.778 56.2002C197.414 56.2002 206.844 56.2543 206.844 56.3006Z" fill="#263238"/>
<path d="M190.638 87.0936C190.638 87.1477 184.843 87.194 177.673 87.194C170.503 87.194 164.708 87.1477 164.708 87.0936C164.708 87.0395 170.503 86.9932 177.673 86.9932C184.843 86.9932 190.638 87.0357 190.638 87.0936Z" fill="#263238"/>
<path d="M206.844 89.952C206.844 90.0061 197.41 90.0524 185.778 90.0524C174.146 90.0524 164.708 90.0061 164.708 89.952C164.708 89.8979 174.142 89.8516 185.778 89.8516C197.414 89.8516 206.844 89.8979 206.844 89.952Z" fill="#263238"/>
<path d="M190.638 37.2713C190.638 37.3293 184.843 37.3756 177.673 37.3756C170.503 37.3756 164.708 37.3293 164.708 37.2713C164.708 37.2134 170.503 37.1709 177.673 37.1709C184.843 37.1709 190.638 37.2173 190.638 37.2713Z" fill="#263238"/>
<path d="M206.844 40.1346C206.844 40.1887 197.41 40.2351 185.778 40.2351C174.146 40.2351 164.708 40.1887 164.708 40.1346C164.708 40.0805 174.142 40.0342 185.778 40.0342C197.414 40.0342 206.844 40.0805 206.844 40.1346Z" fill="#263238"/>
<path d="M190.638 69.9295C190.638 69.9836 184.843 70.03 177.673 70.03C170.503 70.03 164.708 69.9836 164.708 69.9295C164.708 69.8755 170.503 69.8291 177.673 69.8291C184.843 69.8291 190.638 69.8755 190.638 69.9295Z" fill="#263238"/>
<path d="M206.844 72.7879C206.844 72.8459 197.41 72.8884 185.778 72.8884C174.146 72.8884 164.708 72.8459 164.708 72.7879C164.708 72.73 174.142 72.6875 185.778 72.6875C197.414 72.6875 206.844 72.7339 206.844 72.7879Z" fill="#263238"/>
<path d="M190.638 103.059C190.638 103.114 184.843 103.16 177.673 103.16C170.503 103.16 164.708 103.114 164.708 103.059C164.708 103.005 170.503 102.959 177.673 102.959C184.843 102.959 190.638 102.998 190.638 103.059Z" fill="#263238"/>
<path d="M206.844 105.919C206.844 105.973 197.41 106.019 185.778 106.019C174.146 106.019 164.708 105.973 164.708 105.919C164.708 105.865 174.142 105.818 185.778 105.818C197.414 105.818 206.844 105.865 206.844 105.919Z" fill="#263238"/>
<path d="M220.06 22.2871H214.957V27.3903H220.06V22.2871Z" fill="#E0E0E0"/>
<path d="M211.75 22.2871H206.647V27.3903H211.75V22.2871Z" fill="#E0E0E0"/>
<path d="M203.44 22.2871H198.337V27.3903H203.44V22.2871Z" fill="#E0E0E0"/>
<path d="M110.818 35.6484L112.985 38.4762L114.839 35.6484H110.818Z" fill="#263238"/>
<path d="M109.585 135.771C103.751 135.238 97.9903 135.02 97.9903 135.02C95.8734 135.084 91.3649 135.27 86.7109 135.771C88.0683 140.409 92.6738 143.826 98.1438 143.826C103.622 143.835 108.227 140.401 109.585 135.771Z" fill="#50BFD7"/>
<path d="M102.928 144.198C102.928 144.4 103.106 144.635 103.316 144.611C105.7 144.36 107.526 142.518 109.877 142.906C107.518 144.077 105.474 146.113 105.764 149.111C105.797 149.483 106.152 149.628 106.427 149.402C108.116 147.964 110.055 146.679 112.317 147.156C113.287 147.358 114.426 147.737 115.428 147.608C116.923 147.422 118.183 146.744 118.926 145.297C120.235 142.793 119.75 139.787 116.818 139.165C116.745 139.149 116.688 139.157 116.624 139.181C115.541 138.753 114.555 138.211 113.683 137.266C112.842 136.345 112.059 135.327 111.146 134.479C109.925 133.339 108.6 132.442 106.984 133.21C106.742 133.323 106.758 133.671 106.912 133.856C107.623 134.737 108.455 135.577 109.328 136.385C108.455 136.183 107.574 136.078 106.669 136.151C105.053 136.288 103.147 137.363 103.187 139.286C103.195 139.528 103.365 139.674 103.575 139.698C105.061 139.852 106.556 139.827 108.035 139.981C105.732 140.66 102.904 141.435 102.928 144.198Z" fill="#C4C4C4"/>
<path fill-rule="evenodd" clip-rule="evenodd" d="M109.332 132.828C110.076 133.121 110.749 133.666 111.365 134.241C111.983 134.815 112.553 135.477 113.106 136.119C113.38 136.437 113.651 136.751 113.92 137.046C114.723 137.916 115.628 138.429 116.645 138.84C116.718 138.828 116.797 138.829 116.885 138.848C118.468 139.184 119.416 140.178 119.773 141.436C120.125 142.675 119.896 144.137 119.213 145.445C118.41 147.006 117.043 147.732 115.468 147.928C114.916 147.999 114.341 147.929 113.798 147.822C113.525 147.769 113.254 147.705 112.995 147.643C112.968 147.636 112.941 147.63 112.914 147.623C112.683 147.568 112.462 147.515 112.251 147.471L112.25 147.471C110.153 147.029 108.323 148.21 106.636 149.647L106.634 149.649L106.632 149.65C106.412 149.831 106.128 149.884 105.877 149.777C105.626 149.669 105.468 149.427 105.442 149.14C105.179 146.421 106.727 144.47 108.679 143.212C108.029 143.3 107.397 143.535 106.734 143.815C106.587 143.878 106.438 143.943 106.286 144.008C105.389 144.398 104.422 144.818 103.351 144.931C103.109 144.958 102.916 144.834 102.8 144.701C102.684 144.569 102.605 144.387 102.605 144.199C102.592 142.677 103.378 141.7 104.436 141.033C104.995 140.682 105.638 140.411 106.291 140.183C106.125 140.176 105.96 140.169 105.793 140.161L105.786 140.161C105.046 140.129 104.293 140.096 103.541 140.018L103.539 140.018L103.537 140.018C103.192 139.978 102.878 139.721 102.863 139.296L102.863 139.294L102.863 139.292C102.84 138.208 103.371 137.368 104.108 136.793C104.837 136.223 105.78 135.901 106.641 135.828L106.642 135.828L106.643 135.828C107.214 135.782 107.773 135.804 108.323 135.874C107.73 135.29 107.166 134.686 106.661 134.06C106.531 133.901 106.465 133.688 106.476 133.487C106.488 133.278 106.59 133.037 106.846 132.917C107.742 132.491 108.571 132.527 109.332 132.828ZM107.126 133.499C107.124 133.504 107.122 133.511 107.122 133.523C107.121 133.543 107.123 133.568 107.132 133.594C107.14 133.619 107.151 133.638 107.16 133.65L107.161 133.651L107.163 133.652C107.86 134.516 108.68 135.345 109.547 136.147L110.439 136.973L109.254 136.699C108.404 136.502 107.558 136.403 106.695 136.472C105.941 136.536 105.123 136.82 104.505 137.303C103.895 137.78 103.493 138.438 103.509 139.276C103.511 139.318 103.525 139.336 103.533 139.344C103.544 139.356 103.568 139.371 103.61 139.376C104.341 139.451 105.076 139.483 105.821 139.516L105.824 139.516C106.566 139.548 107.318 139.581 108.068 139.658L109.695 139.827L108.126 140.29C108.085 140.302 108.045 140.314 108.005 140.325C106.875 140.658 105.694 141.006 104.781 141.58C103.856 142.162 103.24 142.954 103.251 144.195L103.251 144.196V144.197C103.251 144.202 103.252 144.214 103.259 144.231C103.266 144.248 103.276 144.263 103.286 144.276C103.291 144.28 103.294 144.284 103.297 144.286C104.256 144.183 105.117 143.81 106.014 143.421C106.169 143.354 106.325 143.287 106.482 143.22C107.536 142.774 108.655 142.376 109.929 142.586L110.917 142.749L110.02 143.194C107.712 144.341 105.814 146.278 106.086 149.079L106.086 149.08L106.086 149.082C106.09 149.125 106.102 149.15 106.11 149.163C106.119 149.176 106.127 149.18 106.132 149.183C106.137 149.185 106.145 149.187 106.157 149.185C106.169 149.182 106.191 149.175 106.219 149.153C107.909 147.714 109.957 146.327 112.383 146.838C112.605 146.885 112.835 146.94 113.064 146.995C113.091 147.001 113.119 147.008 113.146 147.014C113.405 147.076 113.664 147.137 113.922 147.188C114.441 147.29 114.936 147.345 115.386 147.287L115.387 147.286L115.387 147.286C116.801 147.111 117.954 146.48 118.638 145.149L118.639 145.148L118.639 145.147C119.265 143.95 119.448 142.658 119.151 141.612C118.86 140.586 118.099 139.766 116.75 139.48L116.748 139.48L116.747 139.479C116.747 139.479 116.747 139.479 116.746 139.479C116.744 139.48 116.741 139.481 116.737 139.483L116.62 139.526L116.504 139.48C115.395 139.042 114.362 138.478 113.445 137.484L113.444 137.484L113.443 137.483C113.146 137.157 112.863 136.828 112.583 136.502C112.045 135.878 111.518 135.265 110.925 134.714L110.924 134.714C110.321 134.15 109.721 133.676 109.094 133.429C108.485 133.188 107.844 133.159 107.126 133.499Z" fill="#2C2C2C"/>
<path fill-rule="evenodd" clip-rule="evenodd" d="M195.11 152.262C195.11 152.101 195.241 151.97 195.402 151.97H205.043C205.205 151.97 205.336 152.101 205.336 152.262C205.336 152.424 205.205 152.555 205.043 152.555H195.402C195.241 152.555 195.11 152.424 195.11 152.262Z" fill="#2C2C2C"/>
<path fill-rule="evenodd" clip-rule="evenodd" d="M13.312 152.262C13.312 152.101 13.443 151.97 13.6046 151.97H192.189C192.351 151.97 192.482 152.101 192.482 152.262C192.482 152.424 192.351 152.555 192.189 152.555H13.6046C13.443 152.555 13.312 152.424 13.312 152.262Z" fill="#2C2C2C"/>
<path fill-rule="evenodd" clip-rule="evenodd" d="M0.755859 152.262C0.755859 152.101 0.886849 151.97 1.04843 151.97H7.63631C7.7979 151.97 7.92889 152.101 7.92889 152.262C7.92889 152.424 7.7979 152.555 7.63631 152.555H1.04843C0.886849 152.555 0.755859 152.424 0.755859 152.262Z" fill="#2C2C2C"/>
<path d="M60.9576 115.129L65.1277 142.211L65.3834 148.343L72.5097 147.168L73.3017 145.914L73.8174 109.862L60.9576 115.129Z" fill="#2C2C2C"/>
<path d="M114.932 117.996L118.804 145.123L118.988 151.259L126.124 150.164L126.932 148.929L127.855 112.879L114.932 117.996Z" fill="#2C2C2C"/>
<path d="M93.1341 106.548C96.1184 106.548 100.77 105.931 100.77 103.904L100.005 97.1433L99.3331 91.2299C99.3331 89.2035 96.9106 87.5547 93.9262 87.5547C92.434 87.5547 91.08 87.9692 90.1036 88.6324C89.1273 89.2956 88.5194 90.2167 88.5194 91.2299L87.8654 97.1526L87.2298 102.827C86.364 106.253 93.1341 106.548 93.1341 106.548Z" fill="#2C2C2C"/>
<path d="M129.675 115.353C129.675 121.23 125.825 124.868 119.948 124.868C114.072 124.868 109.31 120.106 109.31 114.229C109.31 108.353 113.749 101.868 119.35 103.627C125.521 105.552 129.675 109.476 129.675 115.353Z" fill="white"/>
<path d="M119.948 125.237C113.878 125.237 108.94 120.3 108.94 114.23C108.94 110.325 110.792 106.346 113.537 104.328C115.36 102.993 117.405 102.624 119.459 103.269C126.276 105.406 130.034 109.698 130.034 115.345C130.043 121.35 126.073 125.237 119.948 125.237ZM117.497 103.702C116.272 103.702 115.075 104.117 113.97 104.927C111.437 106.788 109.677 110.61 109.677 114.23C109.677 119.895 114.283 124.501 119.948 124.501C122.748 124.501 125.106 123.653 126.755 122.05C128.422 120.438 129.306 118.117 129.306 115.354C129.306 110.058 125.732 106.014 119.248 103.978C118.658 103.794 118.078 103.702 117.497 103.702Z" fill="#2C2C2C"/>
<path d="M124.884 113.64C124.884 117.988 122.038 120.677 117.69 120.677C113.343 120.677 109.824 117.159 109.824 112.811C109.824 108.463 113.103 103.664 117.248 104.963C121.808 106.4 124.884 109.302 124.884 113.64Z" fill="#2C2C2C"/>
<path d="M58.2793 115.352C58.2793 121.229 62.1295 124.867 68.0061 124.867C73.8827 124.867 78.6448 120.105 78.6448 114.228C78.6448 108.352 74.2051 101.867 68.6048 103.626C62.4335 105.551 58.2793 109.475 58.2793 115.352Z" fill="white"/>
<path d="M68.0064 125.236C61.8719 125.236 57.9111 121.358 57.9111 115.353C57.9111 109.706 61.6692 105.414 68.4854 103.277C70.5394 102.632 72.5935 103.001 74.408 104.336C77.1621 106.353 79.0043 110.333 79.0043 114.238C79.0135 120.299 74.0764 125.236 68.0064 125.236ZM70.4565 103.701C69.8762 103.701 69.2959 103.793 68.7156 103.977C62.2311 106.013 58.6572 110.056 58.6572 115.353C58.6572 118.116 59.5415 120.437 61.2087 122.049C62.8667 123.652 65.2155 124.499 68.0156 124.499C73.6804 124.499 78.2859 119.894 78.2859 114.229C78.2859 110.609 76.5174 106.777 73.9935 104.926C72.8698 104.106 71.6816 103.701 70.4565 103.701Z" fill="#2C2C2C"/>
<path d="M63.0693 113.639C63.0693 117.987 65.9155 120.676 70.2631 120.676C74.6107 120.676 78.1293 117.158 78.1293 112.81C78.1293 108.462 74.8502 103.663 70.7053 104.962C66.1366 106.399 63.0693 109.301 63.0693 113.639Z" fill="#2C2C2C"/>
<path d="M100.963 99.291H86.9531C80.837 99.8437 74.988 101.106 69.5259 102.975L80.008 156.712C80.7633 160.599 84.1714 163.409 88.1321 163.409H99.9775C103.947 163.409 107.365 160.59 108.111 156.685L118.399 102.975C112.937 101.106 107.088 99.8437 100.963 99.291Z" fill="white"/>
<path d="M99.9778 163.778H88.1325C84.0059 163.778 80.4321 160.839 79.6491 156.786L69.1025 102.727L69.4065 102.626C74.9884 100.719 80.8742 99.4663 86.9166 98.9229H86.9535H100.982H101C107.043 99.4663 112.938 100.71 118.52 102.626L118.824 102.727L108.47 156.759C107.697 160.821 104.123 163.778 99.9778 163.778ZM69.95 103.215L80.3676 156.639C81.0861 160.342 84.356 163.031 88.1325 163.031H99.9778C103.764 163.031 107.033 160.333 107.743 156.611L117.967 103.215C112.532 101.382 106.803 100.185 100.936 99.6505H86.9719C81.1045 100.185 75.3752 101.382 69.95 103.215Z" fill="#2C2C2C"/>
<path d="M76.748 100.912C78.0652 109.239 79.3824 117.566 80.6996 125.883C81.8786 132.147 87.8197 136.319 94.0187 136.356C100.218 136.319 106.159 132.156 107.338 125.883C108.655 117.566 109.972 109.248 111.289 100.94C107.955 100.166 104.501 99.6042 100.964 99.291H86.9538C83.4537 99.6042 80.0456 100.157 76.748 100.912Z" fill="#50BFD7"/>
<path d="M94.0278 136.725C90.8685 136.706 87.7551 135.656 85.259 133.75C82.6615 131.779 80.9206 129.006 80.3403 125.948V125.939L76.3335 100.627L76.6651 100.553C80.0087 99.7795 83.4628 99.236 86.9169 98.9229H86.9538H100.982H101.001C104.501 99.236 107.992 99.7979 111.381 100.581L111.713 100.655L107.706 125.948C107.135 129.006 105.385 131.769 102.788 133.75C100.291 135.656 97.178 136.706 94.0278 136.725ZM81.068 125.828C81.6114 128.702 83.251 131.309 85.7011 133.169C88.0775 134.975 91.0343 135.979 94.0278 135.988C97.0214 135.97 99.9781 134.966 102.345 133.169C104.795 131.309 106.435 128.702 106.979 125.828L110.875 101.226C107.632 100.489 104.298 99.9637 100.945 99.6597H86.9722C83.6655 99.9545 80.3679 100.47 77.1625 101.198L81.068 125.828Z" fill="#2C2C2C"/>
<path d="M97.3432 111.9H90.2691C88.3901 111.9 86.8611 113.429 86.8611 115.308V122.382C86.8611 124.261 88.3901 125.79 90.2691 125.79H97.3432C99.2222 125.79 100.751 124.261 100.751 122.382V115.308C100.751 113.429 99.2315 111.9 97.3432 111.9ZM84.982 108.888C83.9043 108.888 83.0293 109.763 83.0293 110.84C83.0293 111.918 83.9043 112.793 84.982 112.793C86.0597 112.793 86.9348 111.918 86.9348 110.84C86.9348 109.763 86.0597 108.888 84.982 108.888Z" fill="white"/>
<path d="M96.8455 116.119C96.3942 114.912 95.2428 114.111 93.9532 114.111H92.0373L95.8231 123.709H99.8851L96.8455 116.119ZM89.1083 120.954L88.0029 123.709H92.0373L93.9164 118.946H92.0005C90.711 118.946 89.5596 119.748 89.1083 120.954ZM89.7346 116.496C90.3978 116.496 90.9412 115.953 90.9412 115.29C90.9412 114.626 90.3978 114.083 89.7346 114.083C89.0714 114.083 88.528 114.626 88.528 115.29C88.528 115.953 89.0714 116.496 89.7346 116.496Z" fill="#50BFD7"/>
<path d="M100.816 95.6592H87.1191C85.148 95.6592 83.5269 94.0473 83.5269 92.0669C83.5269 90.0957 85.1388 88.4746 87.1191 88.4746H100.816C102.787 88.4746 104.408 90.0865 104.408 92.0669C104.399 94.0473 102.787 95.6592 100.816 95.6592Z" fill="#50BFD7"/>
<path d="M100.816 96.0279H87.1194C84.9364 96.0279 83.1587 94.2502 83.1587 92.0672C83.1587 89.8842 84.9364 88.1064 87.1194 88.1064H100.816C102.999 88.1064 104.777 89.8842 104.777 92.0672C104.777 94.2502 102.99 96.0279 100.816 96.0279ZM87.1194 88.8525C85.3417 88.8525 83.8956 90.2987 83.8956 92.0764C83.8956 93.8541 85.3417 95.3002 87.1194 95.3002H100.816C102.594 95.3002 104.04 93.8541 104.04 92.0764C104.04 90.2987 102.594 88.8525 100.816 88.8525H87.1194Z" fill="#2C2C2C"/>
<path d="M94.7268 22.6914H93.1978V32.713H94.7268V22.6914Z" fill="#2C2C2C"/>
<path d="M100.226 34.8227H87.6992C87.4689 34.8227 87.2847 34.6385 87.2847 34.4083V28.6606C87.2847 28.4303 87.4689 28.2461 87.6992 28.2461H100.226C100.456 28.2461 100.641 28.4303 100.641 28.6606V34.4175C100.641 34.6385 100.456 34.8227 100.226 34.8227Z" fill="#50BFD7"/>
<path d="M100.226 35.1915H87.699C87.266 35.1915 86.916 34.8414 86.916 34.4085V28.6609C86.916 28.2279 87.266 27.8779 87.699 27.8779H100.226C100.659 27.8779 101.009 28.2279 101.009 28.6609V34.4177C101.009 34.8414 100.659 35.1915 100.226 35.1915ZM87.699 28.6056C87.6713 28.6056 87.6529 28.624 87.6529 28.6517V34.4085C87.6529 34.4362 87.6713 34.4546 87.699 34.4546H100.226C100.254 34.4546 100.272 34.4362 100.272 34.4085V28.6609C100.272 28.6332 100.254 28.6148 100.226 28.6148H87.699V28.6056Z" fill="#2C2C2C"/>
<path d="M95.9245 22.0172C95.9245 23.0949 95.0495 23.9699 93.9718 23.9699C92.8941 23.9699 92.019 23.0949 92.019 22.0172C92.019 20.9395 92.8941 20.0645 93.9718 20.0645C95.0403 20.0645 95.9245 20.9395 95.9245 22.0172Z" fill="#2C2C2C"/>
<path d="M95.3258 21.2618C95.3258 21.5934 95.0587 21.8605 94.7271 21.8605C94.3955 21.8605 94.1284 21.5934 94.1284 21.2618C94.1284 20.9302 94.3955 20.6631 94.7271 20.6631C95.0587 20.6631 95.3258 20.9302 95.3258 21.2618Z" fill="#2C2C2C"/>
<path d="M105.422 75.8842C110.61 75.8842 114.817 71.6778 114.817 66.489C114.817 61.3001 110.61 57.0938 105.422 57.0938C100.233 57.0938 96.0264 61.3001 96.0264 66.489C96.0264 71.6778 100.233 75.8842 105.422 75.8842Z" fill="#002731"/>
<path d="M93.963 83.7239C116.794 83.7239 135.302 75.4142 135.302 65.1637C135.302 54.9132 116.794 46.6035 93.963 46.6035C71.1321 46.6035 52.624 54.9132 52.624 65.1637C52.624 75.4142 71.1321 83.7239 93.963 83.7239Z" fill="#2C2C2C"/>
<path d="M57.4512 73.8781C58.1881 74.4953 58.9895 75.094 59.8737 75.665C57.7368 69.5029 56.8065 62.6683 57.0275 56.8193C56.3551 57.4181 55.7472 58.0444 55.2222 58.68C55.2406 63.5065 55.9683 68.8305 57.4512 73.8781Z" fill="#50BFD7"/>
<path d="M132.695 58.6721C132.161 58.0366 131.553 57.4102 130.881 56.8115C131.231 62.7158 130.043 69.6701 127.685 75.9151C128.596 75.3349 129.444 74.7361 130.208 74.1098C131.857 68.9516 132.723 63.5448 132.695 58.6721Z" fill="#50BFD7"/>
<path d="M102.4 92.1319H85.535C71.8935 92.1319 60.8403 81.0787 60.8403 67.4372V63.6884C60.8403 46.1875 75.0253 32.0117 92.517 32.0117H95.4C112.901 32.0117 127.077 46.1967 127.077 63.6884V67.4372C127.086 81.0787 116.033 92.1319 102.4 92.1319Z" fill="white"/>
<path d="M102.4 92.5007H85.5348C78.8384 92.5007 72.5473 89.8939 67.8129 85.1595C63.0784 80.425 60.4717 74.1339 60.4717 67.4375V63.6886C60.4717 55.1316 63.8061 47.0812 69.8577 41.0296C75.9093 34.9779 83.9597 31.6436 92.5168 31.6436H95.3998C103.957 31.6436 112.007 34.9779 118.059 41.0296C124.111 47.0812 127.445 55.1316 127.445 63.6886V67.4375C127.445 74.1339 124.838 80.425 120.104 85.1595C115.378 89.8939 109.087 92.5007 102.4 92.5007ZM92.526 32.3804C84.1624 32.3804 76.2962 35.6411 70.3827 41.5546C64.4693 47.4681 61.2086 55.3343 61.2086 63.6979V67.4467C61.2086 73.9405 63.7416 80.0474 68.3287 84.6437C72.925 89.24 79.0319 91.7638 85.5256 91.7638H102.391C108.885 91.7638 114.992 89.2308 119.588 84.6437C124.184 80.0474 126.708 73.9405 126.708 67.4467V63.6979C126.708 55.3343 123.447 47.4681 117.534 41.5546C111.62 35.6411 103.754 32.3804 95.3906 32.3804H92.526V32.3804Z" fill="#2C2C2C"/>
<path d="M93.963 51.7897C104.104 51.7897 113.297 48.7316 120.039 43.7761C114.227 36.6008 105.357 32.0137 95.3999 32.0137H92.5169C82.569 32.0137 73.6896 36.6008 67.8774 43.7761C74.6291 48.7316 83.8217 51.7897 93.963 51.7897Z" fill="#2C2C2C"/>
<path d="M93.9631 36.7109C83.8218 36.7109 74.6292 39.769 67.8867 44.7245C73.6989 51.8999 82.5691 56.487 92.5262 56.487H95.4092C105.357 56.487 114.236 51.8999 120.049 44.7245C113.297 39.769 104.104 36.7109 93.9631 36.7109Z" fill="#50BFD7"/>
<path d="M95.4093 56.8649H92.5263C82.8087 56.8649 73.7266 52.5265 67.6013 44.9643L67.3618 44.6603L67.675 44.43C74.7583 39.2166 84.0982 36.3428 93.9724 36.3428C103.837 36.3428 113.177 39.2166 120.27 44.43L120.583 44.6603L120.344 44.9643C114.209 52.5265 105.127 56.8649 95.4093 56.8649ZM68.4211 44.7985C74.399 52.0015 83.1587 56.128 92.5263 56.128H95.4093C104.777 56.128 113.537 52.0015 119.515 44.7985C112.588 39.8153 103.533 37.0797 93.9724 37.0797C84.393 37.0797 75.3385 39.8153 68.4211 44.7985Z" fill="#2C2C2C"/>
<path d="M116.999 71.9521C116.124 72.4772 115.139 72.7535 114.135 72.7535H73.7995C72.7955 72.7535 71.8099 72.4772 70.9349 71.9521C68.7795 70.6626 67.5545 68.0467 67.8584 65.3663L67.8768 65.1729C68.9085 56.1 75.697 49.1273 84.0145 48.6023C87.5331 48.3812 91.2267 48.2614 95.0769 48.2891C98.0982 48.3075 101.009 48.418 103.818 48.593C112.173 49.1181 119.007 56.0632 120.039 65.1729C120.048 65.2373 120.057 65.3018 120.057 65.3663C120.38 68.0467 119.155 70.6626 116.999 71.9521Z" fill="white"/>
<path d="M114.126 73.1228H73.8C72.7315 73.1228 71.6814 72.828 70.7419 72.2662C68.4392 70.8937 67.168 68.1673 67.4904 65.3211L67.5089 65.1276C68.5589 55.8706 75.4948 48.7597 83.9873 48.2255C87.6625 47.9952 91.393 47.8939 95.0774 47.9123C97.9881 47.9307 100.936 48.032 103.837 48.2162C112.385 48.7505 119.348 55.8614 120.398 65.1184L120.417 65.3119C120.739 68.1489 119.468 70.8753 117.165 72.257C116.253 72.828 115.194 73.1228 114.126 73.1228ZM93.9813 48.6584C90.6745 48.6584 87.3401 48.7597 84.0426 48.9715C75.9093 49.4874 69.2589 56.3219 68.2457 65.2198L68.2273 65.4132C67.9326 67.9646 69.0747 70.4148 71.1288 71.6398C71.9486 72.128 72.8789 72.3859 73.8092 72.3859H114.144C115.074 72.3859 116.005 72.128 116.825 71.6398C118.879 70.4148 120.012 67.9646 119.726 65.4132L119.708 65.2198C118.694 56.3127 112.016 49.4781 103.828 48.9715C100.936 48.7873 97.9973 48.686 95.105 48.6676C94.709 48.6584 94.3497 48.6584 93.9813 48.6584Z" fill="#2C2C2C"/>
<path d="M87.4696 61.0736C87.4696 64.5554 84.4392 67.3924 80.718 67.3924C76.9875 67.3924 73.9663 64.5646 73.9663 61.0736C73.9663 57.5827 76.9875 54.7549 80.718 54.7549C84.4484 54.7549 87.4696 57.5827 87.4696 61.0736Z" fill="white"/>
<path d="M80.7183 67.7611C76.7944 67.7611 73.5981 64.7583 73.5981 61.0739C73.5981 57.3895 76.7944 54.3867 80.7183 54.3867C84.6421 54.3867 87.8384 57.3895 87.8384 61.0739C87.8384 64.7583 84.6514 67.7611 80.7183 67.7611ZM80.7183 55.1236C77.1997 55.1236 74.335 57.7948 74.335 61.0739C74.335 64.353 77.1997 67.0242 80.7183 67.0242C84.2369 67.0242 87.1015 64.353 87.1015 61.0739C87.1015 57.7948 84.2369 55.1236 80.7183 55.1236Z" fill="#2C2C2C"/>
<path d="M77.4116 60.6777C77.4116 63.5608 79.2815 65.8911 81.5842 65.8911C83.8962 65.8911 85.766 63.5516 85.766 60.6777C85.766 57.7947 83.8962 55.4551 81.5842 55.4551C79.2815 55.4551 77.4116 57.7947 77.4116 60.6777Z" fill="#50BFD7"/>
<path d="M78.6187 60.6769C78.6187 62.7217 79.945 64.3797 81.5846 64.3797C83.2242 64.3797 84.5505 62.7217 84.5505 60.6769C84.5505 58.6228 83.2242 56.9648 81.5846 56.9648C79.945 56.9648 78.6187 58.6228 78.6187 60.6769Z" fill="#2C2C2C"/>
<path d="M78.4341 57.1685C78.4341 57.7304 79.1249 58.1817 79.9631 58.1817C80.8105 58.1817 81.4921 57.7304 81.4921 57.1685C81.4921 56.6066 80.8105 56.1553 79.9631 56.1553C79.1157 56.1553 78.4341 56.6066 78.4341 57.1685Z" fill="white"/>
<path d="M113.26 61.0736C113.26 64.5554 110.23 67.3924 106.509 67.3924C102.778 67.3924 99.7568 64.5646 99.7568 61.0736C99.7568 57.5827 102.778 54.7549 106.509 54.7549C110.23 54.7549 113.26 57.5827 113.26 61.0736Z" fill="white"/>
<path d="M106.508 67.7611C102.584 67.7611 99.3882 64.7583 99.3882 61.0739C99.3882 57.3895 102.584 54.3867 106.508 54.3867C110.432 54.3867 113.628 57.3895 113.628 61.0739C113.628 64.7583 110.432 67.7611 106.508 67.7611ZM106.508 55.1236C102.99 55.1236 100.125 57.7948 100.125 61.0739C100.125 64.353 102.99 67.0242 106.508 67.0242C110.027 67.0242 112.892 64.353 112.892 61.0739C112.892 57.7948 110.027 55.1236 106.508 55.1236Z" fill="#2C2C2C"/>
<path d="M103.202 60.6767C103.202 63.5598 105.071 65.8902 107.374 65.8902C109.686 65.8902 111.556 63.5506 111.556 60.6767C111.556 57.7937 109.686 55.4541 107.374 55.4541C105.071 55.4541 103.202 57.7937 103.202 60.6767Z" fill="#50BFD7"/>
<path d="M104.408 60.6769C104.408 62.7217 105.735 64.3797 107.374 64.3797C109.014 64.3797 110.34 62.7217 110.34 60.6769C110.34 58.6228 109.014 56.9648 107.374 56.9648C105.735 56.9648 104.408 58.6228 104.408 60.6769Z" fill="#2C2C2C"/>
<path d="M104.215 57.1685C104.215 57.7304 104.906 58.1817 105.744 58.1817C106.591 58.1817 107.273 57.7304 107.273 57.1685C107.273 56.6066 106.591 56.1553 105.744 56.1553C104.906 56.1553 104.215 56.6066 104.215 57.1685Z" fill="white"/>
<ellipse cx="94.2878" cy="81.7544" rx="3.59302" ry="2.51512" fill="white"/>
<path fill-rule="evenodd" clip-rule="evenodd" d="M94.2995 84.1388C96.2489 84.1388 97.4866 82.9338 97.4866 81.821C97.4866 80.7082 96.2489 79.5031 94.2995 79.5031C92.3502 79.5031 91.1125 80.7082 91.1125 81.821C91.1125 82.9338 92.3502 84.1388 94.2995 84.1388ZM94.2995 84.9115C96.4864 84.9115 98.2592 83.5278 98.2592 81.821C98.2592 80.1141 96.4864 78.7305 94.2995 78.7305C92.1127 78.7305 90.3398 80.1141 90.3398 81.821C90.3398 83.5278 92.1127 84.9115 94.2995 84.9115Z" fill="#454545"/>
<path d="M58.5801 120.658H128.472C129.308 120.658 130.11 120.99 130.701 121.582C131.293 122.173 131.625 122.975 131.625 123.811V163.076H55.4272V123.811C55.4272 122.975 55.7594 122.173 56.3507 121.582C56.942 120.99 57.7439 120.658 58.5801 120.658Z" fill="white"/>
<path fill-rule="evenodd" clip-rule="evenodd" d="M58.5801 121.061C57.8505 121.061 57.1508 121.35 56.6348 121.866C56.1189 122.382 55.8291 123.082 55.8291 123.812V162.675H131.223V123.812C131.223 123.082 130.933 122.382 130.417 121.866C129.901 121.35 129.202 121.061 128.472 121.061H58.5801ZM56.0665 121.298C56.7332 120.631 57.6373 120.257 58.5801 120.257H128.472C129.415 120.257 130.319 120.631 130.986 121.298C131.652 121.965 132.027 122.869 132.027 123.812V163.077C132.027 163.299 131.847 163.479 131.625 163.479H55.4272C55.2053 163.479 55.0254 163.299 55.0254 163.077V123.812C55.0254 122.869 55.3999 121.965 56.0665 121.298Z" fill="#2C2C2C"/>
<path d="M131.625 134.771C122.053 137.198 112.229 143.378 93.9233 152.08C76.2675 160.479 61.8149 160.334 55.4272 159.684V163.077H131.625V134.771Z" fill="#2C2C2C"/>
<path fill-rule="evenodd" clip-rule="evenodd" d="M131.872 134.454C131.97 134.53 132.027 134.647 132.027 134.771V163.077C132.027 163.299 131.847 163.479 131.625 163.479H55.4272C55.2053 163.479 55.0254 163.299 55.0254 163.077V159.685C55.0254 159.571 55.0735 159.463 55.1578 159.386C55.2422 159.31 55.3548 159.273 55.4679 159.285C61.8008 159.929 76.1761 160.078 93.7507 151.717L93.7508 151.717C99.7799 148.851 104.881 146.262 109.363 143.988C111.684 142.81 113.839 141.717 115.871 140.712C121.815 137.775 126.696 135.606 131.526 134.381C131.646 134.351 131.774 134.378 131.872 134.454ZM94.0959 152.443C76.7539 160.693 62.4779 160.742 55.8291 160.127V162.675H131.223V135.291C126.641 136.514 121.956 138.602 116.227 141.433C114.209 142.43 112.06 143.521 109.743 144.697C105.255 146.974 100.133 149.573 94.0959 152.443Z" fill="#2C2C2C"/>
<path d="M131.625 160.725H55.4272V163.083H131.625V160.725Z" fill="white"/>
<path fill-rule="evenodd" clip-rule="evenodd" d="M55.0254 160.726C55.0254 160.504 55.2053 160.324 55.4272 160.324H131.625C131.847 160.324 132.027 160.504 132.027 160.726V163.084C132.027 163.306 131.847 163.486 131.625 163.486H55.4272C55.2053 163.486 55.0254 163.306 55.0254 163.084V160.726ZM55.8291 161.128V162.683H131.223V161.128H55.8291Z" fill="#2C2C2C"/>
</svg>
