<svg width="228" height="201" viewBox="0 0 228 201" fill="none" xmlns="http://www.w3.org/2000/svg">
<path d="M202.79 70.67C194.766 61.7955 181.322 60.8031 170.869 54.9853C152.877 44.9728 145.904 22.1736 129.536 9.68233C119.214 1.79589 105.237 -1.26077 92.7498 0.468249C75.0229 2.92063 58.3458 14.8032 53.3396 32.2257C51.9024 37.299 51.3884 42.5892 51.8223 47.8443C52.6206 58.2316 54.8569 68.7513 52.7486 78.9534C50.4241 90.1964 43.111 99.684 38.74 110.309C33.2971 123.542 32.5649 138.362 34.8717 152.468C36.4596 162.092 39.6265 171.809 46.2339 178.981C46.7367 179.523 47.2527 180.039 47.7864 180.546H119.947C124.472 174.773 127.886 167.941 131.886 161.876C141.908 146.623 157.954 135.746 175.478 130.643C183.329 128.358 191.833 127 198.141 121.795C204.633 116.445 207.615 107.906 208.903 99.5913C210.469 89.5083 209.635 78.2256 202.79 70.67Z" fill="#50BFD7"/>
<path opacity="0.7" d="M202.79 70.67C194.766 61.7955 181.322 60.8031 170.869 54.9853C152.877 44.9728 145.904 22.1736 129.536 9.68233C119.214 1.79589 105.237 -1.26077 92.7498 0.468249C75.0229 2.92063 58.3458 14.8032 53.3396 32.2257C51.9024 37.299 51.3884 42.5892 51.8223 47.8443C52.6206 58.2316 54.8569 68.7513 52.7486 78.9534C50.4241 90.1964 43.111 99.684 38.74 110.309C33.2971 123.542 32.5649 138.362 34.8717 152.468C36.4596 162.092 39.6265 171.809 46.2339 178.981C46.7367 179.523 47.2527 180.039 47.7864 180.546H119.947C124.472 174.773 127.886 167.941 131.886 161.876C141.908 146.623 157.954 135.746 175.478 130.643C183.329 128.358 191.833 127 198.141 121.795C204.633 116.445 207.615 107.906 208.903 99.5913C210.469 89.5083 209.635 78.2256 202.79 70.67Z" fill="white"/>
<path fill-rule="evenodd" clip-rule="evenodd" d="M185.265 156.487L185.248 156.706C185.265 156.487 185.265 156.487 185.265 156.487L185.266 156.487L185.267 156.487L185.271 156.487L185.287 156.488C185.3 156.49 185.32 156.491 185.345 156.494C185.396 156.499 185.469 156.508 185.562 156.52C185.748 156.544 186.014 156.585 186.333 156.649C186.969 156.777 187.824 156.999 188.69 157.379C190.418 158.138 192.238 159.548 192.384 162.119C192.389 162.21 192.338 162.294 192.256 162.332L192.164 162.132C192.256 162.332 192.256 162.332 192.256 162.332L192.255 162.332L192.254 162.333L192.249 162.335L192.233 162.342C192.219 162.348 192.199 162.357 192.173 162.368C192.121 162.389 192.046 162.42 191.951 162.455C191.76 162.525 191.489 162.615 191.163 162.696C190.514 162.856 189.635 162.983 188.741 162.83C187.842 162.676 186.928 162.239 186.232 161.277C185.539 160.32 185.076 158.867 185.027 156.711C185.026 156.649 185.051 156.589 185.096 156.546C185.141 156.503 185.203 156.482 185.265 156.487ZM191.932 161.99C191.738 159.757 190.137 158.496 188.513 157.783C187.685 157.42 186.862 157.205 186.246 157.081C185.938 157.019 185.683 156.981 185.505 156.957C185.495 156.956 185.485 156.955 185.476 156.953C185.553 158.913 185.992 160.194 186.589 161.018C187.207 161.872 188.01 162.258 188.816 162.396C189.627 162.534 190.44 162.42 191.057 162.268C191.365 162.191 191.62 162.107 191.798 162.041C191.85 162.022 191.895 162.005 191.932 161.99Z" fill="#263238"/>
<path fill-rule="evenodd" clip-rule="evenodd" d="M198.716 157.863C200.105 158.648 201.35 158.904 202.437 158.849C203.584 158.792 204.572 158.39 205.382 157.874C206.194 157.357 206.824 156.729 207.252 156.228C207.466 155.978 207.629 155.761 207.737 155.607C207.743 155.598 207.749 155.59 207.755 155.582C204.945 154.463 202.677 155.05 201.094 155.931C200.277 156.385 199.641 156.918 199.21 157.338C198.995 157.548 198.831 157.729 198.721 157.857C198.72 157.859 198.718 157.861 198.716 157.863ZM208.087 155.48L208.275 155.594C208.308 155.54 208.316 155.473 208.297 155.413C208.277 155.352 208.232 155.303 208.174 155.278C205.102 153.96 202.604 154.586 200.88 155.545C200.02 156.023 199.354 156.583 198.902 157.022C198.676 157.243 198.503 157.433 198.386 157.57C198.328 157.638 198.283 157.693 198.253 157.731C198.238 157.75 198.227 157.765 198.219 157.776L198.209 157.788L198.207 157.791L198.206 157.792L198.206 157.792C198.206 157.793 198.206 157.793 198.383 157.924L198.206 157.793C198.169 157.843 198.154 157.906 198.167 157.967C198.179 158.028 198.216 158.081 198.27 158.113C199.814 159.038 201.218 159.352 202.459 159.29C203.699 159.228 204.759 158.793 205.619 158.246C206.478 157.699 207.141 157.038 207.588 156.515C207.812 156.253 207.982 156.024 208.098 155.861C208.155 155.779 208.199 155.713 208.229 155.668C208.244 155.645 208.255 155.627 208.263 155.615L208.272 155.6L208.274 155.596L208.275 155.595L208.275 155.595C208.275 155.594 208.275 155.594 208.087 155.48Z" fill="#263238"/>
<path fill-rule="evenodd" clip-rule="evenodd" d="M200.16 148.938C202.199 149.515 203.647 149.392 204.678 148.91C205.748 148.41 206.406 147.506 206.809 146.5C207.212 145.492 207.351 144.396 207.388 143.546C207.407 143.122 207.4 142.762 207.388 142.509C207.384 142.432 207.381 142.365 207.377 142.31C205.118 142.356 203.316 143.981 202.05 145.678C201.402 146.546 200.905 147.418 200.571 148.074C200.403 148.401 200.277 148.674 200.192 148.865C200.181 148.891 200.17 148.915 200.16 148.938ZM207.58 142.089L207.799 142.065C207.787 141.955 207.695 141.871 207.584 141.869C205.009 141.816 203.02 143.64 201.696 145.415C201.03 146.308 200.52 147.202 200.178 147.873C200.006 148.209 199.876 148.489 199.789 148.686C199.745 148.785 199.712 148.862 199.69 148.916C199.679 148.942 199.67 148.963 199.665 148.977L199.658 148.993L199.656 148.998L199.656 148.999C199.656 148.999 199.656 148.999 199.861 149.08L199.656 148.999C199.633 149.057 199.636 149.121 199.662 149.176C199.689 149.232 199.738 149.273 199.797 149.291C202.025 149.966 203.665 149.871 204.865 149.31C206.067 148.748 206.789 147.738 207.218 146.664C207.647 145.592 207.791 144.441 207.829 143.565C207.848 143.126 207.841 142.752 207.829 142.488C207.823 142.356 207.815 142.251 207.809 142.179C207.806 142.143 207.804 142.115 207.802 142.096L207.8 142.073L207.799 142.067L207.799 142.066L207.799 142.065C207.799 142.065 207.799 142.065 207.58 142.089Z" fill="#263238"/>
<path fill-rule="evenodd" clip-rule="evenodd" d="M196.9 136.527L196.795 136.721C196.9 136.527 196.899 136.527 196.9 136.527L196.9 136.528L196.902 136.528L196.906 136.531L196.922 136.54C196.936 136.548 196.957 136.559 196.982 136.574C197.034 136.604 197.109 136.648 197.201 136.707C197.386 136.823 197.643 136.996 197.935 137.22C198.518 137.669 199.246 138.331 199.813 139.181C200.381 140.033 200.792 141.08 200.722 142.29C200.651 143.502 200.1 144.846 198.798 146.295C198.719 146.383 198.584 146.392 198.493 146.317L198.634 146.147C198.493 146.317 198.493 146.317 198.493 146.317L198.492 146.315L198.488 146.313L198.477 146.303C198.467 146.294 198.452 146.282 198.434 146.265C198.397 146.233 198.344 146.185 198.278 146.122C198.147 145.997 197.964 145.813 197.754 145.575C197.335 145.101 196.808 144.41 196.378 143.546C195.513 141.811 195.039 139.375 196.603 136.613C196.662 136.508 196.794 136.47 196.9 136.527ZM198.616 145.834C199.761 144.508 200.221 143.31 200.281 142.265C200.345 141.175 199.977 140.221 199.446 139.426C198.915 138.63 198.226 138.001 197.666 137.57C197.387 137.355 197.141 137.19 196.966 137.08C196.935 137.06 196.906 137.042 196.879 137.026C195.534 139.55 195.978 141.754 196.772 143.349C197.181 144.17 197.684 144.829 198.085 145.283C198.285 145.51 198.459 145.685 198.583 145.803C198.594 145.814 198.605 145.824 198.616 145.834Z" fill="#263238"/>
<path fill-rule="evenodd" clip-rule="evenodd" d="M188.252 145.34L188.23 145.12C188.117 145.132 188.031 145.227 188.031 145.34C188.031 147.018 188.518 148.273 189.259 149.205C189.998 150.135 190.978 150.73 191.947 151.11C192.915 151.491 193.88 151.661 194.6 151.736C194.961 151.773 195.262 151.787 195.474 151.791C195.58 151.793 195.664 151.793 195.722 151.792C195.751 151.791 195.774 151.79 195.791 151.79C195.799 151.789 195.806 151.789 195.813 151.789C195.815 151.788 195.82 151.788 195.826 151.787C195.827 151.787 195.834 151.786 195.843 151.785C195.848 151.784 195.863 151.78 195.873 151.777C195.898 151.767 195.996 151.674 196.024 151.568C196.024 149.779 195.539 148.467 194.797 147.512C194.057 146.559 193.074 145.978 192.103 145.627C191.132 145.275 190.165 145.149 189.444 145.11C189.082 145.091 188.781 145.093 188.569 145.101C188.463 145.104 188.379 145.109 188.321 145.113C188.292 145.115 188.27 145.117 188.255 145.118L188.237 145.12L188.232 145.12L188.23 145.12L188.23 145.12C188.23 145.12 188.23 145.12 188.252 145.34ZM188.584 145.541C188.544 145.543 188.508 145.544 188.475 145.546C188.513 147.027 188.959 148.12 189.604 148.931C190.281 149.783 191.189 150.338 192.108 150.7C193.028 151.061 193.951 151.225 194.646 151.297C194.993 151.333 195.282 151.346 195.483 151.35C195.518 151.351 195.55 151.351 195.58 151.351C195.543 149.76 195.094 148.613 194.449 147.783C193.773 146.913 192.869 146.373 191.952 146.041C191.035 145.709 190.114 145.588 189.42 145.551C189.073 145.532 188.785 145.534 188.584 145.541Z" fill="#263238"/>
<path fill-rule="evenodd" clip-rule="evenodd" d="M197.848 139.396C197.962 139.352 198.09 139.407 198.134 139.521C199.885 143.976 198.743 150.246 195.435 157.613C194.024 160.757 194.021 163.731 194.131 166.064C194.137 166.186 194.043 166.289 193.921 166.295C193.799 166.301 193.696 166.207 193.69 166.085C193.58 163.734 193.577 160.674 195.033 157.432L195.033 157.432C198.332 150.085 199.405 143.96 197.724 139.682C197.679 139.569 197.735 139.441 197.848 139.396Z" fill="#263238"/>
<path fill-rule="evenodd" clip-rule="evenodd" d="M190.525 147.137C190.57 147.024 190.698 146.969 190.811 147.014L190.73 147.219C190.811 147.014 190.811 147.014 190.812 147.014L190.812 147.014L190.813 147.015L190.816 147.016L190.827 147.02C190.836 147.024 190.85 147.03 190.868 147.037C190.903 147.053 190.954 147.075 191.02 147.105C191.15 147.165 191.337 147.256 191.566 147.379C192.023 147.625 192.647 148.002 193.321 148.528C194.667 149.577 196.217 151.226 197.004 153.612C197.042 153.727 196.979 153.852 196.864 153.89C196.748 153.928 196.623 153.865 196.585 153.75C195.833 151.473 194.351 149.891 193.049 148.875C192.399 148.368 191.796 148.004 191.356 147.767C191.137 147.649 190.958 147.562 190.835 147.506C190.774 147.477 190.726 147.457 190.694 147.443C190.679 147.436 190.667 147.431 190.659 147.428L190.65 147.425L190.649 147.424L190.648 147.424L190.648 147.424C190.535 147.379 190.48 147.251 190.525 147.137Z" fill="#263238"/>
<path fill-rule="evenodd" clip-rule="evenodd" d="M205.319 145.771C205.418 145.843 205.439 145.981 205.367 146.079L205.189 145.949C205.367 146.079 205.367 146.079 205.367 146.079L205.366 146.08L205.366 146.08L205.364 146.083L205.357 146.092C205.352 146.099 205.343 146.11 205.332 146.124C205.311 146.152 205.279 146.192 205.238 146.242C205.154 146.342 205.031 146.484 204.87 146.652C204.548 146.988 204.071 147.432 203.452 147.863C202.214 148.726 200.4 149.546 198.113 149.348C197.991 149.338 197.901 149.231 197.912 149.11C197.922 148.988 198.029 148.899 198.151 148.909C200.305 149.095 202.019 148.325 203.2 147.502C203.79 147.09 204.245 146.667 204.552 146.347C204.705 146.187 204.821 146.053 204.898 145.96C204.937 145.914 204.965 145.877 204.984 145.853C204.994 145.841 205.001 145.832 205.005 145.826L205.01 145.819L205.011 145.818L205.011 145.818C205.011 145.818 205.011 145.818 205.011 145.818M205.319 145.771C205.221 145.699 205.083 145.72 205.011 145.818L205.319 145.771Z" fill="#263238"/>
<path fill-rule="evenodd" clip-rule="evenodd" d="M205.401 156.442C205.435 156.559 205.367 156.682 205.25 156.715L205.189 156.504L205.128 156.292C205.245 156.258 205.367 156.325 205.401 156.442ZM205.128 156.292C205.128 156.292 205.128 156.292 205.189 156.504C205.25 156.715 205.25 156.715 205.25 156.715L205.245 156.717L205.229 156.722L205.167 156.739C205.113 156.754 205.033 156.777 204.93 156.805C204.726 156.861 204.43 156.94 204.067 157.033C203.341 157.219 202.341 157.46 201.251 157.68C200.162 157.899 198.978 158.098 197.883 158.199C196.794 158.299 195.772 158.305 195.015 158.125C194.897 158.097 194.824 157.978 194.852 157.86C194.88 157.741 194.999 157.668 195.117 157.696C195.801 157.858 196.764 157.859 197.843 157.76C198.916 157.661 200.083 157.465 201.164 157.247C202.245 157.03 203.236 156.791 203.958 156.606C204.318 156.514 204.611 156.435 204.814 156.379C204.915 156.352 204.994 156.33 205.047 156.315L205.108 156.297L205.123 156.293L205.128 156.292Z" fill="#263238"/>
<path fill-rule="evenodd" clip-rule="evenodd" d="M187.265 158.749C187.355 158.667 187.494 158.673 187.576 158.763L187.576 158.764L187.578 158.765L187.584 158.772C187.59 158.779 187.599 158.788 187.611 158.801C187.634 158.826 187.67 158.863 187.716 158.91C187.809 159.006 187.946 159.142 188.121 159.306C188.47 159.633 188.97 160.07 189.569 160.504C190.775 161.378 192.35 162.217 193.906 162.189C194.028 162.187 194.128 162.284 194.131 162.406C194.133 162.528 194.036 162.628 193.914 162.63C192.21 162.66 190.537 161.75 189.31 160.861C188.692 160.413 188.178 159.964 187.819 159.627C187.639 159.459 187.498 159.318 187.401 159.219C187.352 159.169 187.315 159.13 187.29 159.103C187.277 159.09 187.267 159.079 187.261 159.072L187.253 159.064L187.251 159.061L187.25 159.061C187.25 159.061 187.25 159.06 187.413 158.912L187.25 159.061C187.168 158.971 187.174 158.831 187.265 158.749Z" fill="#263238"/>
<path fill-rule="evenodd" clip-rule="evenodd" d="M186.351 166.031C186.465 165.918 186.618 165.854 186.779 165.854H202.521C202.527 165.854 202.534 165.855 202.541 165.855C202.691 165.869 202.831 165.939 202.933 166.051C203.034 166.163 203.09 166.308 203.09 166.459V166.459H202.869L203.09 166.46M202.241 168.258L202.263 168.063L202.044 168.038V168.258H202.241ZM186.779 166.296C186.735 166.296 186.694 166.313 186.663 166.343C186.633 166.374 186.615 166.415 186.615 166.459V167.654C186.615 167.697 186.633 167.739 186.663 167.769C186.694 167.8 186.735 167.817 186.779 167.817H187.22C187.332 167.817 187.426 167.901 187.439 168.013L188.819 180.057H200.445L201.825 168.013C201.838 167.901 201.932 167.817 202.044 167.817H202.485C202.529 167.817 202.57 167.8 202.601 167.769C202.631 167.739 202.649 167.697 202.649 167.654V166.459L202.649 166.458C202.649 166.417 202.634 166.378 202.606 166.347C202.581 166.319 202.546 166.301 202.508 166.296H186.779ZM186.351 166.031C186.238 166.145 186.174 166.298 186.174 166.459L186.351 166.031ZM186.174 166.459V167.654V166.459ZM186.174 167.654C186.174 167.814 186.238 167.968 186.351 168.081L186.174 167.654ZM186.351 168.081C186.465 168.195 186.618 168.258 186.779 168.258L186.351 168.081ZM186.779 168.258H187.023H186.779Z" fill="#263238"/>
<path fill-rule="evenodd" clip-rule="evenodd" d="M188.031 168.038C188.031 167.916 188.13 167.817 188.252 167.817H197.404C197.526 167.817 197.625 167.916 197.625 168.038C197.625 168.159 197.526 168.258 197.404 168.258H188.252C188.13 168.258 188.031 168.159 188.031 168.038Z" fill="#263238"/>
<path fill-rule="evenodd" clip-rule="evenodd" d="M198.912 168.038C198.912 167.916 199.011 167.817 199.133 167.817H200.509C200.631 167.817 200.73 167.916 200.73 168.038C200.73 168.159 200.631 168.258 200.509 168.258H199.133C199.011 168.258 198.912 168.159 198.912 168.038Z" fill="#263238"/>
<path fill-rule="evenodd" clip-rule="evenodd" d="M27.3113 180.529C27.3113 180.407 27.41 180.308 27.5318 180.308H212.563C212.685 180.308 212.784 180.407 212.784 180.529C212.784 180.651 212.685 180.749 212.563 180.749H27.5318C27.41 180.749 27.3113 180.651 27.3113 180.529Z" fill="#263238"/>
<path d="M134.211 20.3211V142.905C134.211 143.187 134.011 143.457 133.656 143.657C133.301 143.856 132.819 143.968 132.316 143.968H2.90037C2.39791 143.968 1.91604 143.856 1.56075 143.657C1.20546 143.457 1.00586 143.187 1.00586 142.905V20.3211C1.00586 20.0392 1.20546 19.7688 1.56075 19.5694C1.91604 19.3701 2.39791 19.2581 2.90037 19.2581H43.817C44.3486 19.2581 44.8585 19.3766 45.2344 19.5875C45.6104 19.7984 45.8216 20.0845 45.8216 20.3828V22.9587C45.8216 23.257 46.0328 23.5431 46.4087 23.754C46.7846 23.965 47.2945 24.0835 47.8261 24.0835H87.3985C87.9302 24.0835 88.44 23.965 88.8159 23.754C89.1919 23.5431 89.4031 23.257 89.4031 22.9587V20.3828C89.4031 20.0845 89.6143 19.7984 89.9902 19.5875C90.3661 19.3766 90.876 19.2581 91.4076 19.2581H132.285C132.536 19.2557 132.786 19.2815 133.02 19.3339C133.253 19.3862 133.466 19.4642 133.645 19.5631C133.824 19.6621 133.967 19.78 134.064 19.9102C134.161 20.0403 134.211 20.18 134.211 20.3211Z" fill="white"/>
<path fill-rule="evenodd" clip-rule="evenodd" d="M132.971 19.5491C132.755 19.5007 132.522 19.4765 132.287 19.4787L132.285 19.4787H91.4077C90.9051 19.4787 90.4343 19.5913 90.0982 19.7799C89.7575 19.9711 89.6237 20.1972 89.6237 20.3829V22.9588C89.6237 23.3697 89.3351 23.7158 88.9239 23.9464C88.5082 24.1797 87.9593 24.3041 87.3986 24.3041H47.8262C47.2655 24.3041 46.7166 24.1797 46.3008 23.9464C45.8897 23.7158 45.6011 23.3697 45.6011 22.9588V20.3829C45.6011 20.1972 45.4673 19.9711 45.1266 19.7799C44.7905 19.5913 44.3197 19.4787 43.8171 19.4787H2.90045C2.42706 19.4787 1.98421 19.5848 1.66874 19.7618C1.34866 19.9414 1.22648 20.1518 1.22648 20.3212V142.905C1.22648 143.074 1.34866 143.285 1.66874 143.464C1.98421 143.641 2.42706 143.748 2.90045 143.748H132.316C132.79 143.748 133.233 143.641 133.548 143.464C133.868 143.285 133.99 143.074 133.99 142.905V20.3211C133.99 20.2346 133.96 20.1402 133.887 20.0422C133.813 19.9428 133.697 19.8439 133.538 19.7563C133.38 19.669 133.188 19.5977 132.971 19.5491ZM132.284 19.0376C132.551 19.0352 132.817 19.0626 133.068 19.1188C133.318 19.175 133.551 19.2595 133.752 19.3701C133.951 19.4804 134.12 19.6174 134.241 19.7783C134.362 19.9406 134.432 20.1256 134.432 20.3212V142.905C134.432 143.3 134.155 143.63 133.764 143.849C133.369 144.071 132.848 144.189 132.316 144.189H2.90045C2.36893 144.189 1.84802 144.071 1.45291 143.849C1.06242 143.63 0.7854 143.3 0.7854 142.905V20.3212C0.7854 19.9266 1.06242 19.5963 1.45291 19.3772C1.84802 19.1555 2.36893 19.0376 2.90045 19.0376H43.8171C44.3778 19.0376 44.9267 19.162 45.3424 19.3953C45.7536 19.6259 46.0422 19.972 46.0422 20.3829V22.9588C46.0422 23.1445 46.176 23.3706 46.5167 23.5618C46.8528 23.7504 47.3236 23.863 47.8262 23.863H87.3986C87.9012 23.863 88.372 23.7504 88.7081 23.5618C89.0488 23.3706 89.1826 23.1445 89.1826 22.9588V20.3829C89.1826 19.972 89.4712 19.6259 89.8824 19.3953C90.2981 19.162 90.847 19.0376 91.4077 19.0376H132.284Z" fill="#263238"/>
<path d="M134.211 31.3524H1.00586V42.6131H134.211V31.3524Z" fill="#BFBFBF"/>
<path fill-rule="evenodd" clip-rule="evenodd" d="M0.7854 31.3524C0.7854 31.2306 0.884139 31.1318 1.00594 31.1318H134.211C134.333 31.1318 134.432 31.2306 134.432 31.3524V42.6131C134.432 42.7349 134.333 42.8336 134.211 42.8336H1.00594C0.884139 42.8336 0.7854 42.7349 0.7854 42.6131V31.3524ZM1.22648 31.5729V42.3925H133.99V31.5729H1.22648Z" fill="#263238"/>
<path fill-rule="evenodd" clip-rule="evenodd" d="M119 35.5955C119 35.4737 119.098 35.375 119.22 35.375H124.243C124.365 35.375 124.464 35.4737 124.464 35.5955C124.464 35.7173 124.365 35.8161 124.243 35.8161H119.22C119.098 35.8161 119 35.7173 119 35.5955Z" fill="#263238"/>
<path fill-rule="evenodd" clip-rule="evenodd" d="M119 36.8967C119 36.7749 119.098 36.6761 119.22 36.6761H124.243C124.365 36.6761 124.464 36.7749 124.464 36.8967C124.464 37.0185 124.365 37.1172 124.243 37.1172H119.22C119.098 37.1172 119 37.0185 119 36.8967Z" fill="#263238"/>
<path fill-rule="evenodd" clip-rule="evenodd" d="M119 38.1936C119 38.0718 119.098 37.973 119.22 37.973H124.243C124.365 37.973 124.464 38.0718 124.464 38.1936C124.464 38.3154 124.365 38.4141 124.243 38.4141H119.22C119.098 38.4141 119 38.3154 119 38.1936Z" fill="#263238"/>
<path fill-rule="evenodd" clip-rule="evenodd" d="M10.5012 36.8967C10.5012 36.7749 10.6 36.6761 10.7218 36.6761H14.9667C15.0885 36.6761 15.1873 36.7749 15.1873 36.8967C15.1873 37.0185 15.0885 37.1172 14.9667 37.1172H10.7218C10.6 37.1172 10.5012 37.0185 10.5012 36.8967Z" fill="#263238"/>
<path fill-rule="evenodd" clip-rule="evenodd" d="M12.8643 35.3422C12.9239 35.4484 12.8861 35.5828 12.7799 35.6424L10.5521 36.8924L12.7799 38.1424C12.8861 38.202 12.9239 38.3364 12.8643 38.4426C12.8047 38.5489 12.6703 38.5866 12.564 38.527L9.99348 37.0847C9.92392 37.0457 9.88086 36.9722 9.88086 36.8924C9.88086 36.8126 9.92392 36.7391 9.99348 36.7001L12.564 35.2577C12.6703 35.1981 12.8047 35.2359 12.8643 35.3422Z" fill="#263238"/>
<path fill-rule="evenodd" clip-rule="evenodd" d="M105.266 35.5955C105.266 35.4737 105.365 35.375 105.487 35.375H111.815C111.937 35.375 112.036 35.4737 112.036 35.5955V38.1891C112.036 38.3109 111.937 38.4096 111.815 38.4096H105.487C105.365 38.4096 105.266 38.3109 105.266 38.1891V35.5955ZM105.707 35.8161V37.9685H111.594V35.8161H105.707Z" fill="#263238"/>
<path fill-rule="evenodd" clip-rule="evenodd" d="M112.019 35.5119C112.065 35.6247 112.011 35.7534 111.899 35.7996L108.731 37.0963C108.677 37.1183 108.617 37.1183 108.563 37.0963L105.403 35.7995C105.291 35.7533 105.237 35.6244 105.283 35.5118C105.329 35.3991 105.458 35.3452 105.571 35.3914L108.647 36.6539L111.732 35.3914C111.844 35.3452 111.973 35.3992 112.019 35.5119Z" fill="#263238"/>
<path fill-rule="evenodd" clip-rule="evenodd" d="M92.3156 35.4543C92.3575 35.4041 92.4195 35.375 92.4849 35.375H97.8776C97.943 35.375 98.0051 35.4041 98.047 35.4543C98.0889 35.5046 98.1063 35.5708 98.0946 35.6352L97.5286 38.7316C97.5094 38.8363 97.4181 38.9124 97.3116 38.9124H93.0509C92.9444 38.9124 92.8531 38.8363 92.834 38.7316L92.268 35.6352C92.2562 35.5708 92.2737 35.5046 92.3156 35.4543ZM92.7494 35.8161L93.2348 38.4714H97.1277L97.6131 35.8161H92.7494Z" fill="#263238"/>
<path fill-rule="evenodd" clip-rule="evenodd" d="M93.9001 35.0972C93.9001 34.9754 93.9989 34.8767 94.1207 34.8767H96.251C96.3728 34.8767 96.4716 34.9754 96.4716 35.0972V35.5957C96.4716 35.7175 96.3728 35.8162 96.251 35.8162C96.1292 35.8162 96.0305 35.7175 96.0305 35.5957V35.3178H94.3412V35.5957C94.3412 35.7175 94.2425 35.8162 94.1207 35.8162C93.9989 35.8162 93.9001 35.7175 93.9001 35.5957V35.0972Z" fill="#263238"/>
<path d="M134.211 135.023V142.905C134.212 143.044 134.164 143.182 134.07 143.311C133.975 143.44 133.836 143.558 133.661 143.656C133.486 143.755 133.277 143.834 133.048 143.887C132.819 143.94 132.573 143.968 132.324 143.968H2.90037C2.39791 143.968 1.91604 143.856 1.56075 143.657C1.20546 143.457 1.00586 143.187 1.00586 142.905V135.023H134.211Z" fill="#50BFD7"/>
<path fill-rule="evenodd" clip-rule="evenodd" d="M0.7854 135.023C0.7854 134.901 0.884139 134.802 1.00594 134.802H134.211C134.333 134.802 134.432 134.901 134.432 135.023V142.903C134.433 143.097 134.366 143.28 134.248 143.442C134.131 143.601 133.965 143.738 133.769 143.848C133.573 143.959 133.345 144.044 133.098 144.102C132.851 144.159 132.589 144.188 132.324 144.188H2.90044C2.36893 144.188 1.84802 144.07 1.45291 143.849C1.06242 143.63 0.7854 143.299 0.7854 142.905V135.023ZM1.22648 135.243V142.905C1.22648 143.074 1.34866 143.285 1.66874 143.464C1.98421 143.641 2.42705 143.747 2.90044 143.747H132.324C132.557 143.747 132.786 143.721 132.998 143.672C133.21 143.623 133.399 143.551 133.553 143.464C133.708 143.377 133.82 143.279 133.892 143.181C133.962 143.085 133.991 142.992 133.99 142.906L133.99 142.905V135.243H1.22648Z" fill="#263238"/>
<path d="M134.211 122.408H1.00586V135.023H134.211V122.408Z" fill="#BFBFBF"/>
<path fill-rule="evenodd" clip-rule="evenodd" d="M0.7854 122.408C0.7854 122.286 0.884139 122.188 1.00594 122.188H134.211C134.333 122.188 134.432 122.286 134.432 122.408V135.023C134.432 135.145 134.333 135.243 134.211 135.243H1.00594C0.884139 135.243 0.7854 135.145 0.7854 135.023V122.408ZM1.22648 122.629V134.802H133.99V122.629H1.22648Z" fill="#263238"/>
<path fill-rule="evenodd" clip-rule="evenodd" d="M11.9086 126.138C11.5565 126.376 11.3713 126.682 11.3713 126.991V130.37C11.3713 130.679 11.5565 130.984 11.9086 131.222C12.2594 131.46 12.7566 131.614 13.3166 131.614H25.0983C25.6583 131.614 26.1554 131.46 26.5063 131.222C26.8584 130.984 27.0436 130.679 27.0436 130.37V126.991C27.0436 126.682 26.8584 126.376 26.5062 126.138C26.1554 125.901 25.6583 125.747 25.0983 125.747H13.3166C12.7566 125.747 12.2594 125.901 11.9086 126.138ZM11.6616 125.773C12.0946 125.48 12.6804 125.306 13.3166 125.306H25.0983C25.7345 125.306 26.3203 125.48 26.7533 125.773C27.1851 126.065 27.4847 126.491 27.4847 126.991V130.37C27.4847 130.869 27.1851 131.296 26.7533 131.588C26.3203 131.881 25.7345 132.055 25.0983 132.055H13.3166C12.6804 132.055 12.0946 131.881 11.6616 131.588C11.2298 131.296 10.9302 130.869 10.9302 130.37V126.991C10.9302 126.491 11.2298 126.065 11.6616 125.773Z" fill="#263238"/>
<path fill-rule="evenodd" clip-rule="evenodd" d="M17.0361 128.407C17.0361 128.285 17.1349 128.186 17.2567 128.186H19.9836C20.2196 128.186 20.4542 128.218 20.6746 128.279C20.8949 128.341 21.099 128.433 21.2742 128.551C21.4492 128.669 21.5946 128.814 21.6965 128.98C21.7988 129.148 21.8546 129.332 21.8546 129.523V129.964C21.8546 130.086 21.7558 130.184 21.634 130.184C21.5122 130.184 21.4135 130.086 21.4135 129.964V129.523C21.4135 129.42 21.3839 129.315 21.3204 129.211C21.2564 129.106 21.1586 129.005 21.0271 128.916C20.8957 128.828 20.7359 128.755 20.5557 128.704C20.3756 128.654 20.181 128.627 19.9836 128.627H17.2567C17.1349 128.627 17.0361 128.529 17.0361 128.407Z" fill="#263238"/>
<path fill-rule="evenodd" clip-rule="evenodd" d="M18.5889 127.294C18.6485 127.4 18.6107 127.534 18.5045 127.594L17.0706 128.398L18.5045 129.203C18.6107 129.262 18.6485 129.397 18.5889 129.503C18.5293 129.609 18.3948 129.647 18.2886 129.587L16.512 128.591C16.4425 128.552 16.3994 128.478 16.3994 128.398C16.3994 128.319 16.4425 128.245 16.512 128.206L18.2886 127.209C18.3948 127.15 18.5293 127.187 18.5889 127.294Z" fill="#263238"/>
<path fill-rule="evenodd" clip-rule="evenodd" d="M60.8683 126.138C60.5162 126.376 60.331 126.682 60.331 126.991V130.37C60.331 130.679 60.5162 130.984 60.8683 131.222C61.2192 131.46 61.7163 131.614 62.2763 131.614H74.058C74.618 131.614 75.1151 131.46 75.466 131.222C75.8181 130.984 76.0033 130.679 76.0033 130.37V126.991C76.0033 126.682 75.8181 126.376 75.466 126.138C75.1151 125.901 74.618 125.747 74.058 125.747H62.2763C61.7163 125.747 61.2192 125.901 60.8683 126.138ZM60.6213 125.773C61.0543 125.48 61.6401 125.306 62.2763 125.306H74.058C74.6942 125.306 75.28 125.48 75.713 125.773C76.1448 126.065 76.4444 126.491 76.4444 126.991V130.37C76.4444 130.869 76.1448 131.296 75.713 131.588C75.28 131.881 74.6942 132.055 74.058 132.055H62.2763C61.6401 132.055 61.0543 131.881 60.6213 131.588C60.1895 131.296 59.8899 130.869 59.8899 130.37V126.991C59.8899 126.491 60.1895 126.065 60.6213 125.773Z" fill="#263238"/>
<path fill-rule="evenodd" clip-rule="evenodd" d="M66.7791 128.407C66.7791 128.285 66.8778 128.186 66.9996 128.186H69.7265C70.2005 128.186 70.6652 128.313 71.0171 128.551C71.3693 128.789 71.5975 129.134 71.5975 129.523V129.964C71.5975 130.086 71.4988 130.184 71.377 130.184C71.2552 130.184 71.1564 130.086 71.1564 129.964V129.523C71.1564 129.319 71.0368 129.097 70.77 128.916C70.5029 128.736 70.1279 128.627 69.7265 128.627H66.9996C66.8778 128.627 66.7791 128.529 66.7791 128.407Z" fill="#263238"/>
<path fill-rule="evenodd" clip-rule="evenodd" d="M68.1674 127.278C68.2356 127.379 68.2091 127.516 68.1082 127.584L66.9041 128.398L68.1082 129.212C68.2091 129.281 68.2356 129.418 68.1674 129.519C68.0992 129.62 67.9621 129.646 67.8612 129.578L66.3868 128.581C66.3261 128.54 66.2898 128.472 66.2898 128.398C66.2898 128.325 66.3261 128.257 66.3868 128.216L67.8612 127.219C67.9621 127.151 68.0992 127.177 68.1674 127.278Z" fill="#263238"/>
<path fill-rule="evenodd" clip-rule="evenodd" d="M66.6412 127.278C66.7092 127.379 66.6824 127.516 66.5814 127.584L65.3723 128.398L66.5814 129.212C66.6824 129.28 66.7092 129.417 66.6412 129.518C66.5732 129.619 66.4361 129.646 66.3351 129.578L64.8542 128.581C64.7933 128.54 64.7568 128.472 64.7568 128.398C64.7568 128.325 64.7933 128.256 64.8542 128.215L66.3351 127.219C66.4361 127.151 66.5732 127.177 66.6412 127.278Z" fill="#263238"/>
<path fill-rule="evenodd" clip-rule="evenodd" d="M123.984 131.227C124.336 130.989 124.521 130.683 124.521 130.374V126.996C124.521 126.686 124.336 126.381 123.984 126.143C123.633 125.906 123.136 125.752 122.576 125.752H110.794C110.234 125.752 109.737 125.906 109.386 126.143C109.034 126.381 108.849 126.686 108.849 126.996V130.374C108.849 130.683 109.034 130.989 109.386 131.227C109.737 131.464 110.234 131.618 110.794 131.618H122.576C123.136 131.618 123.633 131.464 123.984 131.227ZM124.231 131.592C123.798 131.885 123.212 132.059 122.576 132.059H110.794C110.158 132.059 109.572 131.885 109.139 131.592C108.707 131.3 108.408 130.874 108.408 130.374V126.996C108.408 126.496 108.707 126.069 109.139 125.777C109.572 125.485 110.158 125.311 110.794 125.311H122.576C123.212 125.311 123.798 125.485 124.231 125.777C124.663 126.069 124.962 126.496 124.962 126.996V130.374C124.962 130.874 124.663 131.3 124.231 131.592Z" fill="#263238"/>
<path fill-rule="evenodd" clip-rule="evenodd" d="M115.909 128.628C115.507 128.628 115.132 128.736 114.865 128.917C114.599 129.097 114.479 129.32 114.479 129.523V129.964C114.479 130.086 114.38 130.185 114.258 130.185C114.137 130.185 114.038 130.086 114.038 129.964V129.523C114.038 129.135 114.266 128.789 114.618 128.551C114.97 128.313 115.435 128.187 115.909 128.187H118.636C118.758 128.187 118.856 128.285 118.856 128.407C118.856 128.529 118.758 128.628 118.636 128.628H115.909Z" fill="#263238"/>
<path fill-rule="evenodd" clip-rule="evenodd" d="M117.448 127.278C117.516 127.177 117.653 127.15 117.754 127.219L119.229 128.215C119.289 128.256 119.326 128.325 119.326 128.398C119.326 128.471 119.289 128.54 119.229 128.581L117.754 129.578C117.653 129.646 117.516 129.619 117.448 129.518C117.38 129.418 117.406 129.28 117.507 129.212L118.711 128.398L117.507 127.584C117.406 127.516 117.38 127.379 117.448 127.278Z" fill="#263238"/>
<path d="M134.211 20.3167V31.3436H1.00586V20.3167C1.00586 20.0347 1.20546 19.7644 1.56075 19.565C1.91604 19.3657 2.39791 19.2537 2.90037 19.2537H43.817C44.3486 19.2537 44.8585 19.3722 45.2344 19.5831C45.6104 19.794 45.8216 20.0801 45.8216 20.3784V22.9543C45.8216 23.2526 46.0327 23.5387 46.4087 23.7496C46.7846 23.9605 47.2945 24.079 47.8261 24.079H87.3985C87.9301 24.079 88.44 23.9605 88.8159 23.7496C89.1919 23.5387 89.4031 23.2526 89.4031 22.9543V20.3828C89.4031 20.0845 89.6143 19.7984 89.9902 19.5875C90.3661 19.3766 90.876 19.2581 91.4076 19.2581H132.285C132.536 19.2545 132.786 19.2793 133.02 19.331C133.254 19.3827 133.467 19.4601 133.647 19.5589C133.826 19.6576 133.969 19.7755 134.066 19.9057C134.163 20.0358 134.212 20.1756 134.211 20.3167Z" fill="#50BFD7"/>
<path fill-rule="evenodd" clip-rule="evenodd" d="M2.9002 19.4743C2.42681 19.4743 1.98397 19.5804 1.6685 19.7574C1.34841 19.937 1.22623 20.1474 1.22623 20.3167V31.1231H133.99V20.3167L133.99 20.315C133.991 20.229 133.961 20.1351 133.889 20.0374C133.815 19.9384 133.699 19.8396 133.54 19.7522C133.382 19.6651 133.189 19.5943 132.973 19.5464C132.756 19.4986 132.523 19.4754 132.288 19.4787L132.285 19.4787H91.4075C90.9049 19.4787 90.434 19.5913 90.0979 19.7799C89.7572 19.9711 89.6234 20.1972 89.6234 20.3829V22.9544C89.6234 23.3653 89.3348 23.7113 88.9237 23.942C88.5079 24.1753 87.959 24.2997 87.3983 24.2997H47.8259C47.2652 24.2997 46.7163 24.1753 46.3006 23.942C45.8895 23.7113 45.6008 23.3653 45.6008 22.9544V20.3785C45.6008 20.1928 45.4671 19.9667 45.1263 19.7755C44.7902 19.5869 44.3194 19.4743 43.8168 19.4743H2.9002ZM1.45267 19.3728C1.84777 19.1511 2.36868 19.0332 2.9002 19.0332H43.8168C44.3775 19.0332 44.9264 19.1576 45.3422 19.3908C45.7533 19.6215 46.0419 19.9676 46.0419 20.3785V22.9544C46.0419 23.1401 46.1757 23.3662 46.5164 23.5574C46.8525 23.7459 47.3234 23.8586 47.8259 23.8586H87.3983C87.9009 23.8586 88.3717 23.7459 88.7078 23.5574C89.0486 23.3662 89.1824 23.1401 89.1824 22.9544V20.3829C89.1824 19.972 89.471 19.6259 89.8821 19.3953C90.2978 19.162 90.8467 19.0376 91.4075 19.0376H132.283C132.55 19.034 132.817 19.0603 133.068 19.1157C133.319 19.1712 133.552 19.2553 133.753 19.3657C133.953 19.4757 134.123 19.6128 134.243 19.7741C134.364 19.9367 134.433 20.1224 134.431 20.3185V31.3436C134.431 31.4654 134.333 31.5642 134.211 31.5642H1.00569C0.883895 31.5642 0.785156 31.4654 0.785156 31.3436V20.3167C0.785156 19.9222 1.06217 19.5919 1.45267 19.3728Z" fill="#263238"/>
<path d="M68.2215 68.813H9.62005C9.12596 68.813 8.63672 68.7157 8.18025 68.5266C7.72378 68.3375 7.30901 68.0604 6.95964 67.711C6.61027 67.3616 6.33314 66.9469 6.14406 66.4904C5.95498 66.0339 5.85767 65.5447 5.85767 65.0506V44.8361L10.3081 49.5468H68.2215C68.7155 49.5468 69.2048 49.6441 69.6613 49.8332C70.1177 50.0222 70.5325 50.2994 70.8819 50.6487C71.2312 50.9981 71.5084 51.4129 71.6974 51.8693C71.8865 52.3258 71.9838 52.8151 71.9838 53.3091V65.0506C71.9838 65.5447 71.8865 66.0339 71.6974 66.4904C71.5084 66.9469 71.2312 67.3616 70.8819 67.711C70.5325 68.0604 70.1177 68.3375 69.6613 68.5266C69.2048 68.7157 68.7155 68.813 68.2215 68.813Z" fill="#50BFD7"/>
<path d="M20.9867 59.18C20.9867 58.1332 20.6763 57.1098 20.0947 56.2394C19.5131 55.369 18.6865 54.6906 17.7193 54.29C16.7522 53.8894 15.6879 53.7846 14.6612 53.9888C13.6345 54.193 12.6914 54.6971 11.9511 55.4373C11.2109 56.1776 10.7068 57.1207 10.5026 58.1474C10.2984 59.1741 10.4032 60.2384 10.8038 61.2055C11.2044 62.1727 11.8828 62.9993 12.7532 63.5809C13.6236 64.1625 14.647 64.4729 15.6938 64.4729C17.0976 64.4729 18.4438 63.9153 19.4365 62.9227C20.4291 61.93 20.9867 60.5838 20.9867 59.18Z" fill="white"/>
<path fill-rule="evenodd" clip-rule="evenodd" d="M23.2495 53.5915C23.2495 53.3479 23.447 53.1504 23.6906 53.1504H34.6513C34.8949 53.1504 35.0924 53.3479 35.0924 53.5915C35.0924 53.8351 34.8949 54.0325 34.6513 54.0325H23.6906C23.447 54.0325 23.2495 53.8351 23.2495 53.5915Z" fill="#263238"/>
<path fill-rule="evenodd" clip-rule="evenodd" d="M23.4702 57.4112C23.4702 57.2894 23.569 57.1907 23.6908 57.1907H66.4972C66.619 57.1907 66.7178 57.2894 66.7178 57.4112C66.7178 57.533 66.619 57.6318 66.4972 57.6318H23.6908C23.569 57.6318 23.4702 57.533 23.4702 57.4112Z" fill="#263238"/>
<path fill-rule="evenodd" clip-rule="evenodd" d="M23.4702 60.5649C23.4702 60.4431 23.569 60.3444 23.6908 60.3444H66.4972C66.619 60.3444 66.7178 60.4431 66.7178 60.5649C66.7178 60.6867 66.619 60.7854 66.4972 60.7854H23.6908C23.569 60.7854 23.4702 60.6867 23.4702 60.5649Z" fill="#263238"/>
<path fill-rule="evenodd" clip-rule="evenodd" d="M23.4702 64.0539C23.4702 63.9321 23.569 63.8334 23.6908 63.8334H66.4972C66.619 63.8334 66.7178 63.9321 66.7178 64.0539C66.7178 64.1757 66.619 64.2745 66.4972 64.2745H23.6908C23.569 64.2745 23.4702 64.1757 23.4702 64.0539Z" fill="#263238"/>
<path d="M68.2212 96.614H9.6198C8.62196 96.614 7.66498 96.2177 6.9594 95.5121C6.25382 94.8065 5.85742 93.8495 5.85742 92.8517V72.6239L10.3079 77.339H68.2212C69.219 77.339 70.176 77.7354 70.8816 78.441C71.5872 79.1466 71.9836 80.1035 71.9836 81.1014V92.8428C71.9847 93.3377 71.8883 93.8279 71.6997 94.2854C71.5112 94.7428 71.2342 95.1586 70.8847 95.5089C70.5352 95.8593 70.1201 96.1372 69.663 96.3268C69.206 96.5164 68.716 96.6141 68.2212 96.614Z" fill="#50BFD7"/>
<path d="M20.9865 86.981C20.9865 85.9342 20.676 84.9109 20.0945 84.0404C19.5129 83.17 18.6862 82.4916 17.7191 82.091C16.7519 81.6904 15.6877 81.5856 14.661 81.7898C13.6342 81.994 12.6911 82.4981 11.9509 83.2384C11.2107 83.9786 10.7066 84.9217 10.5023 85.9484C10.2981 86.9752 10.4029 88.0394 10.8035 89.0065C11.2041 89.9737 11.8826 90.8003 12.753 91.3819C13.6234 91.9635 14.6467 92.2739 15.6936 92.2739C17.0973 92.2739 18.4436 91.7163 19.4362 90.7237C20.4288 89.7311 20.9865 88.3848 20.9865 86.981Z" fill="white"/>
<path fill-rule="evenodd" clip-rule="evenodd" d="M23.2493 81.3925C23.2493 81.1489 23.4467 80.9514 23.6903 80.9514H34.6511C34.8947 80.9514 35.0922 81.1489 35.0922 81.3925C35.0922 81.6361 34.8947 81.8336 34.6511 81.8336H23.6903C23.4467 81.8336 23.2493 81.6361 23.2493 81.3925Z" fill="#263238"/>
<path fill-rule="evenodd" clip-rule="evenodd" d="M23.47 85.2122C23.47 85.0904 23.5687 84.9917 23.6905 84.9917H66.497C66.6188 84.9917 66.7175 85.0904 66.7175 85.2122C66.7175 85.334 66.6188 85.4328 66.497 85.4328H23.6905C23.5687 85.4328 23.47 85.334 23.47 85.2122Z" fill="#263238"/>
<path fill-rule="evenodd" clip-rule="evenodd" d="M23.47 88.3659C23.47 88.2441 23.5687 88.1454 23.6905 88.1454H66.497C66.6188 88.1454 66.7175 88.2441 66.7175 88.3659C66.7175 88.4877 66.6188 88.5865 66.497 88.5865H23.6905C23.5687 88.5865 23.47 88.4877 23.47 88.3659Z" fill="#263238"/>
<path fill-rule="evenodd" clip-rule="evenodd" d="M23.47 91.8548C23.47 91.733 23.5687 91.6343 23.6905 91.6343H66.497C66.6188 91.6343 66.7175 91.733 66.7175 91.8548C66.7175 91.9766 66.6188 92.0754 66.497 92.0754H23.6905C23.5687 92.0754 23.47 91.9766 23.47 91.8548Z" fill="#263238"/>
<path d="M66.5187 119.096H125.125C126.122 119.096 127.079 118.699 127.785 117.994C128.491 117.288 128.887 116.331 128.887 115.333V95.1188L124.436 99.8339H66.5187C65.5209 99.8339 64.5639 100.23 63.8583 100.936C63.1527 101.641 62.7563 102.598 62.7563 103.596V115.333C62.7563 115.827 62.8537 116.317 63.0427 116.773C63.2318 117.23 63.5089 117.644 63.8583 117.994C64.2077 118.343 64.6225 118.62 65.0789 118.809C65.5354 118.998 66.0246 119.096 66.5187 119.096Z" fill="#808080"/>
<path d="M76.3334 113.202C78.3986 111.137 78.3986 107.789 76.3334 105.723C74.2681 103.658 70.9196 103.658 68.8543 105.723C66.789 107.789 66.789 111.137 68.8543 113.202C70.9196 115.268 74.2681 115.268 76.3334 113.202Z" fill="white"/>
<path fill-rule="evenodd" clip-rule="evenodd" d="M80.1477 103.874C80.1477 103.63 80.3452 103.433 80.5888 103.433H100.803C101.047 103.433 101.244 103.63 101.244 103.874C101.244 104.118 101.047 104.315 100.803 104.315H80.5888C80.3452 104.315 80.1477 104.118 80.1477 103.874Z" fill="#263238"/>
<path fill-rule="evenodd" clip-rule="evenodd" d="M80.3684 107.694C80.3684 107.572 80.4671 107.473 80.5889 107.473H123.395C123.517 107.473 123.616 107.572 123.616 107.694C123.616 107.815 123.517 107.914 123.395 107.914H80.5889C80.4671 107.914 80.3684 107.815 80.3684 107.694Z" fill="#263238"/>
<path fill-rule="evenodd" clip-rule="evenodd" d="M80.3684 110.852C80.3684 110.73 80.4671 110.631 80.5889 110.631H123.395C123.517 110.631 123.616 110.73 123.616 110.852C123.616 110.974 123.517 111.072 123.395 111.072H80.5889C80.4671 111.072 80.3684 110.974 80.3684 110.852Z" fill="#263238"/>
<path fill-rule="evenodd" clip-rule="evenodd" d="M80.3684 114.341C80.3684 114.219 80.4671 114.12 80.5889 114.12H123.395C123.517 114.12 123.616 114.219 123.616 114.341C123.616 114.462 123.517 114.561 123.395 114.561H80.5889C80.4671 114.561 80.3684 114.462 80.3684 114.341Z" fill="#263238"/>
<path d="M91.7972 159.74C91.7972 159.74 88.7 159.066 87.5096 157.538C86.3087 156.011 85.6028 155.337 81.41 153.514C77.2488 151.692 75.5949 149.332 75.5949 149.332C75.5949 149.332 72.6873 151.997 79.0713 155.052C82.9797 156.927 70.138 156.653 66.2717 156.221C66.2717 156.221 64.0384 157.443 67.7361 159.234C71.4337 161.025 67.873 161.162 75.1946 164.249C82.5056 167.346 91.1967 168.968 92.9666 164.554C94.7364 160.14 91.7972 159.74 91.7972 159.74Z" fill="#E0E0E0"/>
<path fill-rule="evenodd" clip-rule="evenodd" d="M75.5955 149.332L75.3108 149.021L75.6649 148.697L75.9401 149.089L75.9402 149.089L75.9403 149.089L75.9404 149.09L75.9406 149.09L75.9423 149.092C75.9445 149.095 75.9483 149.101 75.9537 149.108C75.9646 149.123 75.9821 149.146 76.0064 149.177C76.0549 149.239 76.1306 149.332 76.2351 149.45C76.444 149.687 76.768 150.026 77.2203 150.422C78.1244 151.214 79.5418 152.235 81.5791 153.128C83.678 154.04 84.935 154.678 85.8218 155.29C86.7237 155.913 87.2311 156.501 87.8415 157.278L87.842 157.279L87.8426 157.279C88.3632 157.947 89.3411 158.464 90.2533 158.819C90.6992 158.993 91.1101 159.121 91.4096 159.205C91.5591 159.247 91.6801 159.278 91.7631 159.299C91.8046 159.309 91.8365 159.317 91.8576 159.321C91.8653 159.323 91.8715 159.325 91.8763 159.326C91.885 159.327 91.896 159.329 91.9091 159.332C91.9379 159.337 91.9771 159.345 92.0245 159.357C92.1192 159.382 92.2484 159.421 92.3957 159.484C92.6894 159.61 93.0658 159.836 93.3772 160.231C94.0215 161.049 94.2724 162.431 93.3583 164.711C92.8616 165.95 91.879 166.75 90.6134 167.201C89.359 167.649 87.813 167.761 86.1285 167.639C82.7574 167.393 78.7094 166.195 75.0309 164.637C71.3649 163.091 70.331 162.25 69.7709 161.51C69.6724 161.38 69.587 161.25 69.5123 161.136C69.4875 161.099 69.4638 161.063 69.4413 161.029C69.3471 160.889 69.2548 160.763 69.1285 160.631C68.8762 160.369 68.4545 160.05 67.553 159.614C66.6039 159.154 65.9911 158.711 65.6265 158.281C65.2516 157.838 65.1283 157.394 65.2033 156.981C65.2741 156.591 65.5089 156.306 65.6925 156.133C65.7874 156.044 65.878 155.976 65.9453 155.93C65.9793 155.907 66.008 155.888 66.0294 155.875C66.0401 155.869 66.049 155.864 66.0559 155.86C66.0593 155.858 66.0622 155.856 66.0646 155.855L66.0678 155.853L66.069 155.852L66.0696 155.852C66.0698 155.852 66.0701 155.852 66.2724 156.221L66.0701 155.852L66.1869 155.788L66.3191 155.803C68.2295 156.016 72.3858 156.192 75.5729 156.081C77.183 156.025 78.4846 155.896 79.1348 155.686C79.1841 155.67 79.2262 155.654 79.2619 155.64C79.1772 155.582 79.0563 155.512 78.8899 155.432C75.6582 153.886 74.6064 152.358 74.5193 151.075C74.4766 150.444 74.6745 149.932 74.8766 149.584C74.9778 149.41 75.0819 149.274 75.162 149.179C75.2022 149.132 75.2368 149.095 75.2625 149.068C75.2754 149.055 75.2861 149.045 75.2943 149.037C75.2984 149.033 75.3018 149.029 75.3046 149.027L75.3082 149.023L75.3096 149.022L75.3102 149.022C75.3105 149.021 75.3108 149.021 75.5955 149.332ZM79.4002 155.758C79.4002 155.758 79.3999 155.758 79.3994 155.757C79.4 155.758 79.4002 155.758 79.4002 155.758ZM66.3778 156.657C66.3452 156.681 66.3079 156.712 66.2698 156.747C66.1502 156.86 66.0578 156.992 66.0325 157.132C66.0113 157.248 66.023 157.445 66.2694 157.736C66.5259 158.038 67.0206 158.419 67.9204 158.855C68.8677 159.314 69.3875 159.684 69.7363 160.047C69.9106 160.229 70.0338 160.4 70.1408 160.559C70.1723 160.606 70.2013 160.65 70.2291 160.692C70.2993 160.799 70.3626 160.895 70.443 161.001C70.8573 161.549 71.7038 162.32 75.3589 163.861L75.3596 163.861C78.9921 165.4 82.9451 166.562 86.1898 166.798C87.8132 166.916 89.2288 166.8 90.3302 166.407C91.4203 166.018 92.1879 165.366 92.5761 164.398C93.4318 162.263 93.098 161.239 92.7152 160.753C92.513 160.496 92.2652 160.346 92.0631 160.259C91.9625 160.215 91.8759 160.189 91.8168 160.174C91.7873 160.167 91.765 160.162 91.7517 160.16C91.7484 160.159 91.7456 160.158 91.7434 160.158C91.7413 160.158 91.7397 160.157 91.7388 160.157C91.7379 160.157 91.7376 160.157 91.7379 160.157L91.7244 160.155L91.7082 160.152L91.7978 159.74C91.7082 160.152 91.7081 160.152 91.708 160.152L91.7077 160.152L91.707 160.151L91.7047 160.151L91.6967 160.149C91.6899 160.148 91.6802 160.145 91.6678 160.143C91.643 160.137 91.6072 160.128 91.5617 160.117C91.4706 160.095 91.3404 160.061 91.181 160.016C90.8625 159.927 90.4248 159.79 89.9475 159.605C89.0138 159.241 87.8484 158.657 87.1784 157.798C86.5881 157.047 86.1421 156.535 85.343 155.984C84.5285 155.421 83.3363 154.811 81.2427 153.9L81.2416 153.9C79.118 152.97 77.6281 151.9 76.665 151.056C76.1846 150.636 75.8356 150.271 75.6044 150.009C75.4612 150.256 75.3319 150.601 75.3602 151.018C75.4153 151.831 76.1016 153.163 79.2539 154.672L79.2542 154.672C79.513 154.796 79.7278 154.923 79.8864 155.057C80.0341 155.181 80.1997 155.368 80.2224 155.621C80.248 155.906 80.0831 156.109 79.9317 156.226C79.7831 156.341 79.5909 156.424 79.3943 156.488C78.615 156.74 77.1974 156.867 75.6023 156.923C72.4604 157.033 68.3926 156.867 66.3778 156.657ZM66.4766 156.59C66.477 156.59 66.4771 156.59 66.4769 156.59L66.4766 156.59Z" fill="#2C2C2C"/>
<path d="M142.985 134.573C142.985 134.573 134.221 177.048 130.228 179.387C127.015 181.273 102.385 173.256 93.03 170.106C90.8072 169.369 89.4482 168.884 89.4482 168.884L91.06 157.991L96.3379 158.708L122.622 162.279C122.622 162.279 131.482 119.118 137.844 118.592C144.218 118.054 142.985 134.573 142.985 134.573Z" fill="#2C2C2C"/>
<path d="M194.489 118.328C194.489 118.328 225.577 149.711 227.621 165.397C227.621 165.397 222.891 174.267 194.416 191.186L191.877 183.927C191.877 183.927 207.774 165.681 213.294 161.067C213.294 161.067 188.4 140.483 188.98 134.646C189.549 128.789 191.002 118.634 194.489 118.328Z" fill="#2C2C2C"/>
<path d="M207.205 131.507C207.205 138.228 202.801 142.389 196.08 142.389C189.359 142.389 183.913 136.943 183.913 130.222C183.913 123.501 188.991 116.084 195.396 118.097C202.454 120.298 207.205 124.786 207.205 131.507Z" fill="white"/>
<path fill-rule="evenodd" clip-rule="evenodd" d="M187.573 121.157C185.571 123.52 184.334 126.956 184.334 130.222C184.334 136.71 189.591 141.968 196.08 141.968C199.353 141.968 202.022 140.956 203.869 139.166C205.716 137.378 206.783 134.773 206.783 131.507C206.783 125.043 202.232 120.671 195.27 118.499L195.269 118.499C192.275 117.558 189.57 118.801 187.573 121.157ZM195.521 117.694C192.11 116.623 189.074 118.082 186.93 120.612C184.793 123.134 183.491 126.766 183.491 130.222C183.491 137.176 189.126 142.811 196.08 142.811C199.528 142.811 202.422 141.742 204.456 139.771C206.492 137.799 207.626 134.962 207.626 131.507C207.626 124.53 202.675 119.926 195.521 117.694Z" fill="#2C2C2C"/>
<path d="M201.737 129.548C201.737 134.52 198.482 137.596 193.51 137.596C188.537 137.596 184.513 133.572 184.513 128.599C184.513 123.627 188.263 118.139 193.014 119.624C198.219 121.267 201.737 124.586 201.737 129.548Z" fill="#2C2C2C"/>
<path d="M125.561 131.507C125.561 138.228 129.965 142.389 136.686 142.389C143.407 142.389 148.853 136.943 148.853 130.222C148.853 123.501 143.776 116.084 137.371 118.097C130.312 120.298 125.561 124.786 125.561 131.507Z" fill="white"/>
<path fill-rule="evenodd" clip-rule="evenodd" d="M145.835 120.612C147.972 123.134 149.274 126.766 149.274 130.222C149.274 137.176 143.639 142.811 136.685 142.811C133.238 142.811 130.344 141.742 128.309 139.771C126.274 137.799 125.139 134.962 125.139 131.507C125.139 124.53 130.091 119.926 137.244 117.694C140.655 116.623 143.691 118.082 145.835 120.612ZM145.192 121.157C143.196 118.801 140.49 117.558 137.496 118.499L137.496 118.499C130.533 120.671 125.982 125.043 125.982 131.507C125.982 134.773 127.05 137.378 128.896 139.166C130.744 140.956 133.412 141.968 136.685 141.968C143.174 141.968 148.432 136.71 148.432 130.222C148.432 126.956 147.195 123.52 145.192 121.157Z" fill="#2C2C2C"/>
<path d="M131.029 129.548C131.029 134.52 134.284 137.596 139.256 137.596C144.228 137.596 148.253 133.572 148.253 128.599C148.253 123.627 144.502 118.139 139.762 119.624C134.547 121.267 131.029 124.586 131.029 129.548Z" fill="#2C2C2C"/>
<path d="M181.7 185.434C174.094 184.739 166.583 184.454 166.583 184.454C163.823 184.539 157.944 184.781 151.876 185.434C153.646 191.481 159.651 195.937 166.783 195.937C173.925 195.948 179.93 191.47 181.7 185.434Z" fill="#50BFD7"/>
<path d="M181.079 186.066C181.732 183.496 194.805 117.991 194.805 117.991C194.805 117.991 159.914 107.688 137.602 117.991L151.908 186.635L181.079 186.066Z" fill="white"/>
<path fill-rule="evenodd" clip-rule="evenodd" d="M194.924 117.587C194.925 117.587 194.925 117.587 194.805 117.991C195.219 118.074 195.219 118.074 195.218 118.074L195.218 118.077L195.072 118.81C194.976 119.29 194.835 119.995 194.656 120.893C194.297 122.69 193.784 125.258 193.166 128.349C191.93 134.53 190.275 142.799 188.6 151.148C185.253 167.833 181.817 184.871 181.487 186.17L181.408 186.481L151.567 187.063L137.121 117.749L137.426 117.609C148.69 112.407 163.087 112.419 174.618 113.709C180.392 114.355 185.466 115.324 189.097 116.131C190.912 116.535 192.367 116.898 193.369 117.161C193.871 117.292 194.258 117.399 194.522 117.472C194.653 117.509 194.753 117.538 194.821 117.557C194.855 117.567 194.881 117.574 194.898 117.579L194.918 117.585L194.923 117.587L194.924 117.587ZM194.805 117.991L195.219 118.074L195.294 117.696L194.925 117.587L194.805 117.991ZM194.316 118.29C194.309 118.288 194.302 118.286 194.295 118.284C194.036 118.212 193.652 118.106 193.156 117.976C192.163 117.716 190.718 117.355 188.914 116.954C185.305 116.151 180.262 115.188 174.524 114.546C163.137 113.273 149.087 113.272 138.083 118.235L152.25 186.207L180.743 185.651C181.34 182.974 184.591 166.847 187.774 150.982C189.449 142.633 191.103 134.365 192.339 128.184C192.957 125.093 193.47 122.524 193.829 120.728C194.009 119.83 194.149 119.125 194.245 118.645L194.316 118.29Z" fill="black"/>
<path d="M181.079 186.066C181.732 183.496 194.805 117.991 194.805 117.991C194.805 117.991 159.914 107.688 137.602 117.991L151.908 186.635L181.079 186.066Z" fill="white"/>
<path fill-rule="evenodd" clip-rule="evenodd" d="M194.924 117.587C194.925 117.587 194.925 117.587 194.805 117.991C195.219 118.074 195.219 118.074 195.218 118.074L195.218 118.077L195.072 118.81C194.976 119.29 194.835 119.995 194.656 120.893C194.297 122.69 193.784 125.258 193.166 128.349C191.93 134.53 190.275 142.799 188.6 151.148C185.253 167.833 181.817 184.871 181.487 186.17L181.408 186.481L151.567 187.063L137.121 117.749L137.426 117.609C148.69 112.407 163.087 112.419 174.618 113.709C180.392 114.355 185.466 115.324 189.097 116.131C190.912 116.535 192.367 116.898 193.369 117.161C193.871 117.292 194.258 117.399 194.522 117.472C194.653 117.509 194.753 117.538 194.821 117.557C194.855 117.567 194.881 117.574 194.898 117.579L194.918 117.585L194.923 117.587L194.924 117.587ZM194.805 117.991L195.219 118.074L195.294 117.696L194.925 117.587L194.805 117.991ZM194.316 118.29C194.309 118.288 194.302 118.286 194.295 118.284C194.036 118.212 193.652 118.106 193.156 117.976C192.163 117.716 190.718 117.355 188.914 116.954C185.305 116.151 180.262 115.188 174.524 114.546C163.137 113.273 149.087 113.272 138.083 118.235L152.25 186.207L180.743 185.651C181.34 182.974 184.591 166.847 187.774 150.982C189.449 142.633 191.103 134.365 192.339 128.184C192.957 125.093 193.47 122.524 193.829 120.728C194.009 119.83 194.149 119.125 194.245 118.645L194.316 118.29Z" fill="#2C2C2C"/>
<path d="M186.325 115.979C176.58 114.02 160.104 111.786 145.946 115.157C147.621 125.724 149.296 136.3 150.971 146.867C152.319 154.03 159.114 158.802 166.204 158.845C173.294 158.802 180.088 154.041 181.437 146.867C183.059 136.564 184.692 126.271 186.325 115.979Z" fill="#50BFD7"/>
<path fill-rule="evenodd" clip-rule="evenodd" d="M145.848 114.747C160.099 111.354 176.65 113.604 186.408 115.566L186.804 115.646L186.741 116.045C185.108 126.337 183.475 136.629 181.853 146.932L181.852 146.938L181.851 146.944C180.459 154.349 173.464 159.223 166.206 159.266L166.204 159.266L166.201 159.266C158.943 159.223 151.948 154.338 150.556 146.944L150.555 146.939L150.554 146.933C149.717 141.65 148.88 136.365 148.042 131.079L148.042 131.078C147.204 125.792 146.367 120.506 145.529 115.223L145.468 114.838L145.848 114.747ZM146.423 115.478C147.24 120.632 148.057 125.788 148.874 130.944L148.874 130.946C149.711 136.23 150.549 141.513 151.386 146.794C152.693 153.724 159.285 158.381 166.204 158.423C173.123 158.381 179.714 153.735 181.022 146.795C182.623 136.627 184.234 126.47 185.845 116.313C176.158 114.394 160.214 112.302 146.423 115.478Z" fill="#2C2C2C"/>
<path d="M165.003 119.719C168.332 119.719 173.505 118.708 173.505 115.389L172.651 104.307L171.903 94.6148C171.903 91.2858 169.206 88.5995 165.888 88.5995C164.224 88.5995 162.728 89.2737 161.632 90.3588C160.547 91.4438 159.862 92.9503 159.862 94.6148L159.125 104.317L158.419 113.619C157.46 119.234 165.003 119.719 165.003 119.719Z" fill="#2C2C2C"/>
<path d="M182.448 34.7041C178.045 29.2893 171.893 26.0236 163.992 26.0236C146.104 26.0236 128.627 42.5208 128.627 63.0845C128.627 83.6481 143.122 100.324 161.01 100.324C162.727 100.324 164.392 100.166 166.004 99.882C166.172 100.788 166.267 101.715 166.267 102.674C166.267 102.842 166.256 103.021 166.256 103.19C215.548 91.2225 207.479 31.6596 182.448 34.7041Z" fill="#2C2C2C"/>
<path d="M140.963 87.7251C144.716 87.7251 147.758 84.6829 147.758 80.9302C147.758 77.1775 144.716 74.1354 140.963 74.1354C137.21 74.1354 134.168 77.1775 134.168 80.9302C134.168 84.6829 137.21 87.7251 140.963 87.7251Z" fill="#E0E0E0"/>
<path fill-rule="evenodd" clip-rule="evenodd" d="M140.963 74.5566C137.443 74.5566 134.589 77.4101 134.589 80.9301C134.589 84.4501 137.443 87.3036 140.963 87.3036C144.483 87.3036 147.336 84.4501 147.336 80.9301C147.336 77.4101 144.483 74.5566 140.963 74.5566ZM133.747 80.9301C133.747 76.9447 136.977 73.7139 140.963 73.7139C144.948 73.7139 148.179 76.9447 148.179 80.9301C148.179 84.9155 144.948 88.1463 140.963 88.1463C136.977 88.1463 133.747 84.9155 133.747 80.9301Z" fill="#2C2C2C"/>
<path d="M188.811 87.7251C192.564 87.7251 195.606 84.6829 195.606 80.9302C195.606 77.1775 192.564 74.1354 188.811 74.1354C185.059 74.1354 182.017 77.1775 182.017 80.9302C182.017 84.6829 185.059 87.7251 188.811 87.7251Z" fill="#E0E0E0"/>
<path fill-rule="evenodd" clip-rule="evenodd" d="M188.811 74.5566C185.291 74.5566 182.437 77.4101 182.437 80.9301C182.437 84.4501 185.291 87.3036 188.811 87.3036C192.331 87.3036 195.184 84.4501 195.184 80.9301C195.184 77.4101 192.331 74.5566 188.811 74.5566ZM181.595 80.9301C181.595 76.9447 184.826 73.7139 188.811 73.7139C192.796 73.7139 196.027 76.9447 196.027 80.9301C196.027 84.9155 192.796 88.1463 188.811 88.1463C184.826 88.1463 181.595 84.9155 181.595 80.9301Z" fill="#2C2C2C"/>
<path d="M165.53 109.279C180.116 109.279 191.94 92.5402 191.94 71.8916C191.94 51.2431 180.116 34.5042 165.53 34.5042C150.943 34.5042 139.119 51.2431 139.119 71.8916C139.119 92.5402 150.943 109.279 165.53 109.279Z" fill="#E0E0E0"/>
<path fill-rule="evenodd" clip-rule="evenodd" d="M147.199 45.6977C142.476 52.3843 139.541 61.6439 139.541 71.8915C139.541 82.1391 142.476 91.3987 147.199 98.0854C151.923 104.773 158.41 108.858 165.53 108.858C172.649 108.858 179.136 104.773 183.861 98.0854C188.584 91.3987 191.519 82.1391 191.519 71.8915C191.519 61.6439 188.584 52.3843 183.861 45.6977C179.136 39.01 172.649 34.9254 165.53 34.9254C158.41 34.9254 151.923 39.01 147.199 45.6977ZM146.511 45.2114C151.345 38.3676 158.063 34.0826 165.53 34.0826C172.996 34.0826 179.714 38.3676 184.549 45.2114C189.384 52.0564 192.362 61.4906 192.362 71.8915C192.362 82.2925 189.384 91.7266 184.549 98.5716C179.714 105.415 172.996 109.7 165.53 109.7C158.063 109.7 151.345 105.415 146.511 98.5716C141.675 91.7266 138.698 82.2925 138.698 71.8915C138.698 61.4906 141.675 52.0564 146.511 45.2114Z" fill="#2C2C2C"/>
<path d="M135.263 63.6007C135.263 63.6007 157.744 64.6963 165.235 51.1698C165.235 51.1698 181.5 65.2441 197.028 64.1485L195.564 57.933L189.538 46.0499L185.882 41.6675L178.392 33.8087L168.342 29.6053L156.28 31.2488L140.194 42.2153L138.182 49.5264L135.263 63.6007Z" fill="#2C2C2C"/>
<path d="M166.172 86.5031C166.183 86.5663 166.046 86.6822 165.74 86.6822C165.445 86.6927 164.992 86.5558 164.592 86.1765C164.392 85.9869 164.213 85.7551 164.076 85.4601C164.055 85.418 164.044 85.3759 164.023 85.3337L164.002 85.2705L163.981 85.2178L163.95 85.123C163.939 85.0809 163.928 85.0282 163.907 84.9861C163.865 84.8281 163.834 84.6595 163.823 84.4804C163.76 83.7851 163.897 83.0793 164.065 82.4051C164.719 79.7082 165.488 77.5908 165.772 77.654C166.056 77.7277 165.761 79.9611 165.108 82.6579C164.94 83.3216 164.813 83.9221 164.813 84.4277C164.813 84.5542 164.824 84.6806 164.834 84.7965L164.845 84.8386V84.8597V84.8702V84.8807C164.845 84.8807 164.834 84.8491 164.845 84.8597L164.866 84.965L164.877 85.0177L164.887 85.0493L164.908 85.1125C164.971 85.3127 165.066 85.5023 165.172 85.6498C165.382 85.9553 165.635 86.1449 165.835 86.2502C166.025 86.3872 166.162 86.4293 166.172 86.5031Z" fill="#2C2C2C"/>
<path d="M158.661 73.872C158.661 76.8744 156.059 79.3079 152.856 79.3079C149.643 79.3079 147.052 76.8744 147.052 73.872C147.052 70.8697 149.654 68.4362 152.856 68.4362C156.048 68.4362 158.661 70.8697 158.661 73.872Z" fill="white"/>
<path fill-rule="evenodd" clip-rule="evenodd" d="M152.857 68.8575C149.86 68.8575 147.473 71.1282 147.473 73.872C147.473 76.6164 149.85 78.8865 152.857 78.8865C155.853 78.8865 158.24 76.6159 158.24 73.872C158.24 71.1286 155.843 68.8575 152.857 68.8575ZM146.631 73.872C146.631 70.6112 149.448 68.0148 152.857 68.0148C156.254 68.0148 159.083 70.6107 159.083 73.872C159.083 77.1329 156.265 79.7293 152.857 79.7293C149.437 79.7293 146.631 77.1324 146.631 73.872Z" fill="#2C2C2C"/>
<path d="M150.002 73.535C150.002 76.0107 151.614 78.0228 153.594 78.0228C155.575 78.0228 157.187 76.0107 157.187 73.535C157.187 71.0594 155.575 69.0473 153.594 69.0473C151.614 69.0367 150.002 71.0489 150.002 73.535Z" fill="#50BFD7"/>
<path d="M151.044 73.535C151.044 75.2943 152.182 76.7165 153.594 76.7165C155.005 76.7165 156.143 75.2943 156.143 73.535C156.143 71.7757 155.005 70.343 153.594 70.343C152.182 70.343 151.044 71.7652 151.044 73.535Z" fill="#2C2C2C"/>
<path d="M150.886 70.5114C150.886 70.996 151.476 71.3752 152.203 71.3752C152.93 71.3752 153.52 70.9854 153.52 70.5114C153.52 70.0268 152.93 69.6475 152.203 69.6475C151.476 69.637 150.886 70.0268 150.886 70.5114Z" fill="white"/>
<path d="M160.315 65.56C160.315 65.56 152.478 57.7433 144.05 67.0243C144.05 67.0243 151.34 62.3575 160.315 65.56Z" fill="#2C2C2C"/>
<path d="M183.913 73.872C183.913 76.8744 181.311 79.3079 178.108 79.3079C174.895 79.3079 172.304 76.8744 172.304 73.872C172.304 70.8697 174.906 68.4362 178.108 68.4362C181.311 68.4362 183.913 70.8697 183.913 73.872Z" fill="white"/>
<path fill-rule="evenodd" clip-rule="evenodd" d="M178.108 68.8575C175.111 68.8575 172.725 71.1282 172.725 73.872C172.725 76.6164 175.101 78.8865 178.108 78.8865C181.104 78.8865 183.491 76.6159 183.491 73.872C183.491 71.1282 181.104 68.8575 178.108 68.8575ZM171.882 73.872C171.882 70.6112 174.699 68.0148 178.108 68.0148C181.516 68.0148 184.334 70.6112 184.334 73.872C184.334 77.1329 181.516 79.7293 178.108 79.7293C174.688 79.7293 171.882 77.1324 171.882 73.872Z" fill="#2C2C2C"/>
<path d="M175.264 73.535C175.264 76.0107 176.875 78.0228 178.856 78.0228C180.837 78.0228 182.448 76.0107 182.448 73.535C182.448 71.0594 180.837 69.0473 178.856 69.0473C176.865 69.0367 175.264 71.0489 175.264 73.535Z" fill="#50BFD7"/>
<path d="M176.296 73.535C176.296 75.2943 177.433 76.7165 178.845 76.7165C180.257 76.7165 181.394 75.2943 181.394 73.535C181.394 71.7757 180.257 70.343 178.845 70.343C177.444 70.343 176.296 71.7652 176.296 73.535Z" fill="#2C2C2C"/>
<path d="M176.138 70.5114C176.138 70.996 176.728 71.3752 177.455 71.3752C178.182 71.3752 178.772 70.9854 178.772 70.5114C178.772 70.0268 178.182 69.6475 177.455 69.6475C176.728 69.637 176.138 70.0268 176.138 70.5114Z" fill="white"/>
<path d="M185.577 64.7069C185.577 64.7069 177.739 56.8902 169.312 66.1712C169.301 66.1712 176.591 61.5043 185.577 64.7069Z" fill="#2C2C2C"/>
<path d="M156.954 92.4762C157.218 94.5199 158.208 96.4056 159.757 97.7751C161.305 99.1446 163.296 99.8926 165.361 99.8926C167.426 99.8926 169.417 99.1446 170.965 97.7751C172.514 96.4056 173.515 94.5305 173.768 92.4762H156.954Z" fill="white"/>
<path fill-rule="evenodd" clip-rule="evenodd" d="M156.475 92.0548H174.244L174.186 92.5277C173.92 94.6857 172.869 96.6543 171.245 98.0908C169.618 99.5289 167.528 100.314 165.361 100.314C163.194 100.314 161.104 99.5289 159.477 98.0908C157.852 96.653 156.813 94.6739 156.536 92.5301L156.475 92.0548ZM157.448 92.8976C157.781 94.6568 158.685 96.265 160.036 97.4595C161.507 98.7603 163.398 99.4712 165.361 99.4712C167.324 99.4712 169.215 98.7603 170.686 97.4595C172.039 96.263 172.951 94.6621 173.277 92.8976H157.448Z" fill="#2C2C2C"/>
<path d="M173.441 189.995C173.441 190.259 173.673 190.564 173.947 190.533C177.055 190.206 179.435 187.804 182.501 188.31C179.425 189.837 176.76 192.492 177.139 196.4C177.181 196.885 177.644 197.075 178.003 196.78C180.204 194.905 182.733 193.23 185.682 193.851C186.947 194.114 188.432 194.61 189.738 194.441C191.687 194.199 193.331 193.314 194.3 191.428C196.006 188.162 195.374 184.243 191.55 183.432C191.455 183.411 191.382 183.422 191.297 183.453C189.886 182.895 188.6 182.189 187.463 180.957C186.367 179.756 185.345 178.428 184.155 177.322C182.564 175.837 180.836 174.667 178.73 175.668C178.413 175.816 178.435 176.269 178.635 176.511C179.562 177.659 180.647 178.755 181.785 179.808C180.647 179.545 179.499 179.408 178.319 179.503C176.212 179.682 173.726 181.083 173.778 183.59C173.789 183.906 174.01 184.096 174.284 184.128C176.222 184.328 178.171 184.296 180.099 184.496C177.097 185.381 173.41 186.393 173.441 189.995Z" fill="#E0E0E0"/>
<path fill-rule="evenodd" clip-rule="evenodd" d="M181.79 175.171C182.761 175.554 183.639 176.264 184.442 177.014C185.247 177.762 185.991 178.625 186.712 179.463C187.07 179.878 187.422 180.287 187.773 180.672C188.82 181.805 190 182.475 191.325 183.011C191.421 182.995 191.525 182.995 191.639 183.021C193.703 183.459 194.939 184.755 195.404 186.395C195.863 188.01 195.565 189.917 194.674 191.622C193.627 193.657 191.845 194.604 189.791 194.859C189.071 194.952 188.321 194.86 187.614 194.722C187.258 194.652 186.905 194.569 186.568 194.488C186.532 194.48 186.496 194.471 186.461 194.463C186.16 194.39 185.872 194.321 185.596 194.264L185.595 194.264C182.861 193.687 180.476 195.227 178.276 197.101L178.273 197.103L178.271 197.105C177.984 197.341 177.613 197.41 177.286 197.27C176.96 197.13 176.753 196.814 176.719 196.44C176.376 192.895 178.394 190.352 180.94 188.711C180.093 188.826 179.268 189.132 178.404 189.498C178.212 189.579 178.017 189.663 177.82 189.749C176.651 190.257 175.39 190.805 173.993 190.952C173.678 190.987 173.426 190.825 173.274 190.652C173.123 190.48 173.02 190.243 173.02 189.998C173.003 188.013 174.027 186.739 175.408 185.87C176.136 185.412 176.975 185.059 177.826 184.762C177.61 184.752 177.394 184.743 177.177 184.733L177.168 184.733C176.203 184.691 175.221 184.648 174.241 184.547L174.238 184.547L174.236 184.546C173.785 184.494 173.376 184.159 173.357 183.605L173.357 183.602L173.357 183.599C173.327 182.186 174.019 181.091 174.979 180.342C175.931 179.599 177.16 179.179 178.283 179.083L178.284 179.083L178.285 179.083C179.029 179.023 179.759 179.052 180.476 179.143C179.703 178.381 178.967 177.594 178.308 176.778C178.139 176.571 178.053 176.293 178.068 176.03C178.083 175.758 178.216 175.444 178.55 175.287C179.718 174.733 180.798 174.78 181.79 175.171ZM178.914 176.047C178.913 176.053 178.91 176.063 178.909 176.078C178.908 176.104 178.911 176.137 178.922 176.17C178.933 176.203 178.947 176.228 178.96 176.243L178.961 176.245L178.963 176.247C179.872 177.373 180.941 178.453 182.071 179.499L183.234 180.577L181.69 180.219C180.581 179.963 179.478 179.833 178.353 179.923C177.37 180.007 176.303 180.377 175.498 181.006C174.702 181.628 174.178 182.486 174.199 183.579C174.202 183.634 174.219 183.657 174.23 183.668C174.245 183.683 174.276 183.702 174.33 183.709C175.284 183.807 176.242 183.849 177.214 183.891L177.217 183.891C178.184 183.933 179.165 183.976 180.143 184.077L182.264 184.298L180.218 184.901C180.166 184.916 180.113 184.932 180.061 184.947C178.588 185.381 177.047 185.834 175.857 186.584C174.651 187.342 173.848 188.375 173.862 189.992L173.863 189.994V189.996C173.863 190.001 173.864 190.017 173.873 190.039C173.882 190.061 173.895 190.082 173.908 190.097C173.914 190.104 173.919 190.108 173.923 190.112C175.173 189.976 176.296 189.49 177.465 188.984C177.667 188.896 177.87 188.808 178.076 188.721C179.45 188.14 180.909 187.62 182.57 187.894L183.858 188.107L182.688 188.688C179.678 190.182 177.204 192.708 177.558 196.36L177.558 196.362L177.559 196.364C177.564 196.421 177.579 196.453 177.59 196.47C177.601 196.486 177.612 196.493 177.618 196.495C177.625 196.498 177.635 196.501 177.652 196.498C177.668 196.495 177.696 196.486 177.733 196.456C179.935 194.581 182.606 192.773 185.769 193.439C186.058 193.499 186.358 193.571 186.657 193.643C186.693 193.651 186.728 193.66 186.764 193.669C187.101 193.749 187.439 193.829 187.775 193.895C188.453 194.027 189.098 194.099 189.684 194.023L189.685 194.023L189.686 194.023C191.529 193.794 193.033 192.971 193.925 191.236L193.926 191.234L193.926 191.233C194.742 189.673 194.981 187.988 194.594 186.625C194.214 185.286 193.222 184.218 191.463 183.845L191.461 183.844L191.459 183.844C191.459 183.844 191.458 183.844 191.458 183.844C191.455 183.845 191.451 183.846 191.445 183.848L191.293 183.905L191.142 183.845C189.696 183.274 188.349 182.538 187.153 181.243L187.152 181.242L187.151 181.241C186.764 180.816 186.395 180.387 186.029 179.963C185.328 179.148 184.641 178.349 183.868 177.631L183.867 177.63C183.08 176.895 182.298 176.278 181.481 175.955C180.687 175.642 179.851 175.603 178.914 176.047Z" fill="#2C2C2C"/>
<path fill-rule="evenodd" clip-rule="evenodd" d="M138.593 69.9109V70.1216H137.75V69.9109H138.593Z" fill="#2C2C2C"/>
<path fill-rule="evenodd" clip-rule="evenodd" d="M143.017 72.2285V72.4392H142.174V72.2285H143.017Z" fill="#2C2C2C"/>
<path d="M166.973 70.9854C168.416 71.2909 167.879 72.2285 167.879 72.3654C167.879 72.5024 168.416 80.298 175.379 82.3523C182.343 84.4065 186.515 80.3718 187.726 78.3491C188.938 76.3265 189.949 71.5227 190.244 71.1539C190.549 70.7852 191.993 70.1426 191.993 70.1426L192.161 68.2569L190.349 67.7196C190.349 67.7196 185.777 65.6338 179.045 65.539C172.324 65.4336 168.521 69.3104 168.521 69.3104C166.625 68.7099 164.276 68.6256 162.127 69.3104C162.127 69.3104 158.324 65.4442 151.603 65.539C144.882 65.6443 140.299 67.7196 140.299 67.7196L138.487 68.2569L138.656 70.1426C138.656 70.1426 140.099 70.7852 140.404 71.1539C140.71 71.5227 141.711 76.337 142.922 78.3491C144.134 80.3718 148.305 84.4065 155.269 82.3523C162.232 80.298 162.769 72.5024 162.769 72.3654C162.769 72.2285 162.232 71.2909 163.675 70.9854C164.94 70.722 165.719 70.722 166.973 70.9854ZM183.691 80.7405C178.382 83.9325 172.019 80.7089 170.102 76.5055C168.184 72.3022 169.796 70.0794 169.796 70.0794C172.999 64.8542 185.935 64.633 188.158 70.2796C188.537 71.2277 189.001 77.5485 183.691 80.7405ZM142.49 70.2796C144.713 64.6225 157.65 64.8542 160.852 70.0794C160.852 70.0794 162.464 72.3022 160.547 76.5055C158.629 80.7089 152.277 83.9325 146.957 80.7405C141.658 77.5485 142.122 71.2277 142.49 70.2796Z" fill="#2C2C2C"/>
<path d="M170.239 127.557H162.148C159.999 127.557 158.25 129.305 158.25 131.454V139.545C158.25 141.694 159.999 143.443 162.148 143.443H170.239C172.388 143.443 174.137 141.694 174.137 139.545V131.454C174.137 129.305 172.388 127.557 170.239 127.557ZM156.091 124.112C154.858 124.112 153.857 125.113 153.857 126.345C153.857 127.578 154.858 128.579 156.091 128.579C157.323 128.579 158.324 127.578 158.324 126.345C158.324 125.113 157.323 124.112 156.091 124.112Z" fill="white"/>
<path d="M169.659 132.382C169.143 131.002 167.826 130.085 166.351 130.085H164.16L168.49 141.062H173.136L169.659 132.382ZM160.821 137.912L159.557 141.062H164.171L166.32 135.616H164.129C162.654 135.616 161.326 136.532 160.821 137.912ZM161.537 132.814C162.296 132.814 162.917 132.192 162.917 131.434C162.917 130.675 162.296 130.053 161.537 130.053C160.779 130.053 160.157 130.675 160.157 131.434C160.157 132.192 160.768 132.814 161.537 132.814Z" fill="#50BFD7"/>
<path d="M180.548 169.302C173.888 168.693 167.31 168.444 167.31 168.444C164.893 168.518 159.745 168.73 154.432 169.302C155.981 174.598 161.24 178.5 167.485 178.5C173.74 178.509 178.998 174.588 180.548 169.302Z" fill="#50BFD7"/>
<path d="M172.947 178.924C172.947 179.155 173.15 179.422 173.39 179.395C176.111 179.109 178.196 177.005 180.881 177.448C178.187 178.786 175.853 181.111 176.185 184.533C176.222 184.958 176.628 185.124 176.941 184.865C178.87 183.223 181.084 181.756 183.667 182.301C184.774 182.531 186.074 182.965 187.218 182.817C188.925 182.605 190.364 181.83 191.213 180.179C192.707 177.319 192.154 173.887 188.805 173.177C188.722 173.159 188.657 173.168 188.584 173.195C187.347 172.706 186.222 172.088 185.226 171.009C184.266 169.957 183.371 168.795 182.329 167.826C180.936 166.526 179.423 165.502 177.578 166.378C177.301 166.507 177.32 166.904 177.495 167.116C178.307 168.122 179.257 169.081 180.253 170.003C179.257 169.773 178.251 169.653 177.218 169.736C175.373 169.893 173.196 171.12 173.242 173.315C173.251 173.592 173.445 173.758 173.685 173.786C175.382 173.961 177.089 173.933 178.777 174.109C176.148 174.884 172.919 175.769 172.947 178.924Z" fill="#C4C4C4"/>
<path fill-rule="evenodd" clip-rule="evenodd" d="M180.258 165.942C181.109 166.278 181.877 166.899 182.58 167.556C183.286 168.211 183.937 168.967 184.568 169.7C184.881 170.064 185.19 170.422 185.497 170.759C186.414 171.752 187.447 172.338 188.608 172.808C188.692 172.794 188.782 172.794 188.883 172.816C190.69 173.2 191.773 174.335 192.18 175.771C192.581 177.185 192.32 178.855 191.54 180.349C190.624 182.13 189.063 182.959 187.265 183.183C186.634 183.264 185.977 183.184 185.358 183.063C185.046 183.002 184.737 182.929 184.442 182.858C184.41 182.851 184.379 182.843 184.348 182.836C184.084 182.772 183.833 182.712 183.591 182.662L183.59 182.662C181.196 182.157 179.107 183.505 177.181 185.146L177.178 185.148L177.176 185.15C176.925 185.357 176.6 185.417 176.314 185.294C176.028 185.172 175.847 184.895 175.817 184.567C175.517 181.463 177.284 179.236 179.513 177.799C178.772 177.9 178.049 178.168 177.293 178.488C177.124 178.559 176.954 178.633 176.781 178.708C175.757 179.153 174.653 179.633 173.43 179.761C173.154 179.792 172.933 179.651 172.801 179.499C172.669 179.348 172.578 179.14 172.578 178.926C172.563 177.188 173.46 176.072 174.669 175.311C175.307 174.91 176.041 174.601 176.786 174.341C176.598 174.332 176.408 174.324 176.218 174.316L176.211 174.315C175.365 174.279 174.506 174.241 173.647 174.153L173.645 174.153L173.643 174.152C173.248 174.107 172.889 173.813 172.873 173.327L172.873 173.325L172.873 173.323C172.847 172.085 173.453 171.127 174.294 170.47C175.127 169.819 176.203 169.452 177.187 169.368L177.188 169.368L177.189 169.368C177.84 169.316 178.479 169.341 179.107 169.421C178.43 168.754 177.786 168.064 177.209 167.349C177.06 167.168 176.985 166.925 176.998 166.695C177.012 166.457 177.128 166.181 177.421 166.044C178.443 165.559 179.389 165.599 180.258 165.942ZM177.74 166.709C177.738 166.714 177.736 166.723 177.735 166.737C177.734 166.76 177.737 166.788 177.746 166.817C177.756 166.846 177.769 166.868 177.779 166.881L177.781 166.882L177.782 166.884C178.578 167.87 179.514 168.816 180.504 169.733L181.523 170.676L180.17 170.363C179.199 170.138 178.233 170.025 177.248 170.104C176.387 170.177 175.453 170.501 174.748 171.052C174.051 171.596 173.592 172.348 173.611 173.305C173.613 173.353 173.628 173.373 173.638 173.383C173.651 173.396 173.678 173.413 173.725 173.419C174.56 173.505 175.4 173.542 176.25 173.578L176.253 173.579C177.1 173.615 177.959 173.653 178.815 173.742L180.673 173.934L178.881 174.463C178.836 174.476 178.79 174.49 178.743 174.503C177.454 174.883 176.105 175.28 175.062 175.936C174.007 176.6 173.303 177.505 173.316 178.921L173.316 178.922V178.924C173.316 178.929 173.317 178.942 173.325 178.962C173.333 178.981 173.344 178.999 173.356 179.013C173.361 179.019 173.365 179.023 173.369 179.026C174.463 178.907 175.447 178.481 176.47 178.038C176.647 177.961 176.825 177.884 177.005 177.808C178.208 177.299 179.486 176.844 180.941 177.084L182.069 177.27L181.045 177.779C178.409 179.087 176.242 181.299 176.552 184.497L176.552 184.499L176.552 184.501C176.557 184.551 176.57 184.579 176.58 184.594C176.59 184.608 176.599 184.613 176.605 184.616C176.61 184.618 176.62 184.621 176.634 184.618C176.648 184.616 176.673 184.608 176.705 184.582C178.634 182.939 180.972 181.356 183.742 181.939C183.995 181.992 184.258 182.055 184.52 182.118C184.551 182.125 184.582 182.133 184.614 182.14C184.909 182.211 185.204 182.281 185.499 182.339C186.092 182.455 186.658 182.517 187.171 182.451L187.172 182.451L187.173 182.451C188.787 182.25 190.103 181.53 190.884 180.01L190.885 180.009L190.886 180.008C191.6 178.642 191.809 177.166 191.47 175.972C191.137 174.8 190.269 173.865 188.728 173.538L188.727 173.537L188.725 173.537C188.725 173.537 188.724 173.537 188.724 173.537C188.722 173.538 188.718 173.539 188.713 173.541L188.58 173.591L188.448 173.538C187.182 173.038 186.001 172.393 184.954 171.259L184.954 171.258L184.953 171.258C184.614 170.886 184.29 170.51 183.97 170.138C183.356 169.425 182.755 168.725 182.078 168.097L182.077 168.096C181.388 167.452 180.703 166.911 179.987 166.629C179.292 166.354 178.56 166.321 177.74 166.709Z" fill="#2C2C2C"/>
<path d="M122.312 152.048H202.112C203.067 152.048 203.983 152.427 204.658 153.102C205.333 153.778 205.712 154.693 205.712 155.648V200.48H118.712V155.648C118.712 154.693 119.092 153.778 119.767 153.102C120.442 152.427 121.357 152.048 122.312 152.048Z" fill="white"/>
<path fill-rule="evenodd" clip-rule="evenodd" d="M122.312 152.507C121.479 152.507 120.68 152.838 120.091 153.427C119.502 154.016 119.171 154.815 119.171 155.648V200.021H205.253V155.648C205.253 154.815 204.922 154.016 204.333 153.427C203.744 152.838 202.945 152.507 202.112 152.507H122.312ZM119.442 152.778C120.203 152.017 121.236 151.589 122.312 151.589H202.112C203.188 151.589 204.221 152.017 204.982 152.778C205.743 153.539 206.171 154.572 206.171 155.648V200.48C206.171 200.733 205.965 200.938 205.712 200.938H118.712C118.459 200.938 118.253 200.733 118.253 200.48V155.648C118.253 154.572 118.681 153.539 119.442 152.778Z" fill="#2C2C2C"/>
<path d="M205.712 168.161C194.783 170.932 183.566 177.988 162.666 187.923C142.507 197.513 126.006 197.348 118.712 196.606V200.479H205.712V168.161Z" fill="#2C2C2C"/>
<path fill-rule="evenodd" clip-rule="evenodd" d="M205.993 167.799C206.105 167.886 206.17 168.019 206.17 168.161V200.48C206.17 200.733 205.965 200.939 205.712 200.939H118.712C118.459 200.939 118.253 200.733 118.253 200.48V196.606C118.253 196.477 118.308 196.353 118.404 196.266C118.501 196.179 118.629 196.137 118.758 196.15C125.989 196.885 142.402 197.055 162.468 187.509L162.468 187.509C169.352 184.237 175.177 181.281 180.294 178.685C182.944 177.34 185.405 176.091 187.724 174.945C194.511 171.591 200.084 169.115 205.599 167.716C205.736 167.681 205.882 167.712 205.993 167.799ZM162.862 188.338C143.062 197.757 126.762 197.813 119.171 197.112V200.021H205.253V168.755C200.022 170.152 194.672 172.535 188.131 175.767C185.827 176.906 183.374 178.151 180.727 179.494C175.603 182.094 169.755 185.062 162.862 188.338Z" fill="#2C2C2C"/>
<path d="M205.712 197.794H118.712V200.487H205.712V197.794Z" fill="white"/>
<path fill-rule="evenodd" clip-rule="evenodd" d="M118.253 197.795C118.253 197.541 118.459 197.336 118.712 197.336H205.712C205.965 197.336 206.17 197.541 206.17 197.795V200.487C206.17 200.741 205.965 200.946 205.712 200.946H118.712C118.459 200.946 118.253 200.741 118.253 200.487V197.795ZM119.171 198.253V200.028H205.253V198.253H119.171Z" fill="#2C2C2C"/>
</svg>
