<svg width="439" height="402" viewBox="0 0 439 402" fill="none" xmlns="http://www.w3.org/2000/svg">
<path d="M416.975 122.651C416.975 122.651 400.374 58.3577 299.874 17.8108C199.373 -22.7362 109.461 14.8175 88.9629 62.3298C68.4652 109.842 89.947 135.499 76.2687 176.074C62.5905 216.65 -7.68031 268.039 20.6799 330.356C49.0402 392.673 181.749 410.471 289.138 397.614C396.527 384.757 480.427 242.325 416.975 122.651Z" fill="#50BFD7"/>
<path opacity="0.7" d="M416.975 122.651C416.975 122.651 400.374 58.3577 299.874 17.8108C199.373 -22.7362 109.461 14.8175 88.9629 62.3298C68.4652 109.842 89.947 135.499 76.2687 176.074C62.5905 216.65 -7.68031 268.039 20.6799 330.356C49.0402 392.673 181.749 410.471 289.138 397.614C396.527 384.757 480.427 242.325 416.975 122.651Z" fill="white"/>
<path fill-rule="evenodd" clip-rule="evenodd" d="M329.022 312.543C329.284 312.515 329.519 312.705 329.547 312.967L333.295 348.147C333.323 348.409 333.133 348.644 332.871 348.672C332.609 348.7 332.374 348.51 332.346 348.248L328.598 313.068C328.571 312.806 328.76 312.571 329.022 312.543Z" fill="#263238"/>
<path d="M329.052 314.006C329.052 314.006 322.322 308.768 322.322 296.789C322.322 284.811 331.299 275.089 331.299 275.089C331.299 275.089 341.031 287.067 338.784 299.036C336.537 311.004 329.052 314.006 329.052 314.006Z" fill="#50BFD7"/>
<path fill-rule="evenodd" clip-rule="evenodd" d="M331.67 274.788L331.299 275.089L330.949 274.765C331.043 274.664 331.176 274.608 331.314 274.612C331.453 274.616 331.582 274.681 331.67 274.788ZM329.053 314.006C328.76 314.383 328.759 314.383 328.759 314.382L328.759 314.382L328.757 314.381L328.751 314.376L328.734 314.362C328.719 314.35 328.698 314.333 328.671 314.31C328.617 314.265 328.54 314.199 328.443 314.111C328.25 313.936 327.977 313.675 327.652 313.326C327.001 312.626 326.139 311.57 325.279 310.135C323.556 307.261 321.846 302.873 321.846 296.789C321.846 290.685 324.131 285.177 326.397 281.211C327.531 279.225 328.666 277.617 329.518 276.505C329.944 275.949 330.3 275.516 330.55 275.221C330.675 275.074 330.774 274.961 330.842 274.884C330.875 274.846 330.902 274.817 330.92 274.797L330.941 274.774L330.946 274.768L330.948 274.766L330.948 274.766C330.949 274.765 330.949 274.765 331.299 275.089C331.67 274.788 331.67 274.788 331.67 274.788L331.67 274.789L331.672 274.791L331.678 274.799L331.7 274.826C331.72 274.851 331.748 274.886 331.784 274.933C331.857 275.026 331.962 275.163 332.095 275.342C332.361 275.698 332.738 276.22 333.181 276.882C334.068 278.206 335.226 280.098 336.315 282.368C338.485 286.897 340.404 292.994 339.253 299.124C338.113 305.201 335.635 309.027 333.421 311.339C332.315 312.493 331.279 313.266 330.513 313.753C330.131 313.996 329.816 314.168 329.594 314.28C329.482 314.336 329.395 314.377 329.333 314.405C329.302 314.419 329.278 314.429 329.261 314.436L329.24 314.445L329.234 314.448L329.232 314.449L329.231 314.449C329.231 314.449 329.23 314.449 329.053 314.006ZM329.053 314.006L328.76 314.383C328.894 314.487 329.073 314.512 329.23 314.449L329.053 314.006ZM329.129 313.445C329.141 313.44 329.152 313.434 329.164 313.428C329.36 313.329 329.647 313.173 330.001 312.948C330.71 312.497 331.685 311.772 332.732 310.679C334.821 308.498 337.21 304.839 338.316 298.948C339.412 293.109 337.588 287.233 335.454 282.78C334.39 280.56 333.256 278.709 332.388 277.413C331.955 276.765 331.588 276.257 331.331 275.912C331.312 275.887 331.294 275.863 331.276 275.84C331.036 276.123 330.69 276.543 330.275 277.085C329.444 278.17 328.335 279.742 327.225 281.684C325.003 285.574 322.8 290.915 322.8 296.789C322.8 302.684 324.455 306.904 326.097 309.644C326.919 311.016 327.739 312.019 328.35 312.676C328.656 313.004 328.909 313.246 329.084 313.404C329.1 313.419 329.115 313.432 329.129 313.445Z" fill="#263238"/>
<path fill-rule="evenodd" clip-rule="evenodd" d="M330.818 286.105C331.081 286.122 331.28 286.349 331.263 286.612L329.549 313.048C329.532 313.31 329.305 313.51 329.042 313.493C328.779 313.476 328.58 313.249 328.597 312.986L330.311 286.55C330.328 286.287 330.555 286.088 330.818 286.105Z" fill="#263238"/>
<path fill-rule="evenodd" clip-rule="evenodd" d="M348.444 320.916C348.669 321.052 348.742 321.346 348.606 321.571C343.955 329.281 339.979 337.379 336.722 345.774C336.626 346.019 336.35 346.141 336.104 346.046C335.859 345.95 335.737 345.674 335.832 345.428C339.109 336.983 343.109 328.836 347.789 321.078C347.925 320.853 348.218 320.78 348.444 320.916Z" fill="#263238"/>
<path d="M344.674 327.687C344.674 327.687 340.936 320.008 346.223 309.289C351.51 298.569 363.866 293.795 363.866 293.795C363.866 293.795 367.304 308.834 359.993 318.585C352.682 328.336 344.674 327.687 344.674 327.687Z" fill="#50BFD7"/>
<path fill-rule="evenodd" clip-rule="evenodd" d="M364.33 293.691L363.865 293.797L363.693 293.352C363.822 293.302 363.967 293.311 364.089 293.376C364.211 293.441 364.299 293.556 364.33 293.691ZM344.673 327.689C344.244 327.898 344.243 327.898 344.243 327.897L344.242 327.895L344.239 327.889L344.229 327.868C344.221 327.851 344.21 327.826 344.196 327.794C344.167 327.729 344.127 327.636 344.079 327.515C343.982 327.272 343.852 326.917 343.714 326.46C343.438 325.545 343.129 324.217 342.989 322.55C342.709 319.212 343.109 314.525 345.794 309.08C348.488 303.617 352.973 299.687 356.759 297.129C358.655 295.848 360.384 294.906 361.64 294.283C362.268 293.972 362.779 293.74 363.133 293.586C363.311 293.509 363.449 293.451 363.544 293.412C363.592 293.393 363.628 293.378 363.653 293.368L363.682 293.357L363.69 293.354L363.692 293.353L363.693 293.352C363.693 293.352 363.693 293.352 363.865 293.797C364.33 293.691 364.33 293.691 364.33 293.691L364.331 293.695L364.333 293.704L364.341 293.739C364.347 293.769 364.357 293.814 364.369 293.872C364.393 293.987 364.427 294.157 364.467 294.376C364.549 294.813 364.656 295.447 364.761 296.236C364.971 297.816 365.174 300.024 365.147 302.541C365.092 307.562 364.117 313.879 360.373 318.873C356.661 323.824 352.755 326.155 349.753 327.243C348.255 327.786 346.987 328.017 346.088 328.113C345.639 328.16 345.282 328.174 345.034 328.175C344.91 328.176 344.813 328.173 344.746 328.171C344.712 328.169 344.686 328.168 344.667 328.167L344.645 328.165L344.638 328.165L344.636 328.165C344.635 328.165 344.634 328.165 344.673 327.689ZM344.673 327.689L344.243 327.897C344.317 328.049 344.466 328.151 344.634 328.165L344.673 327.689ZM344.989 327.221C345.002 327.221 345.015 327.221 345.028 327.221C345.247 327.22 345.572 327.208 345.988 327.164C346.819 327.076 348.01 326.86 349.428 326.346C352.258 325.32 356.011 323.1 359.61 318.301C363.177 313.543 364.139 307.466 364.193 302.53C364.22 300.069 364.021 297.908 363.815 296.362C363.712 295.59 363.608 294.973 363.529 294.55C363.524 294.519 363.518 294.49 363.513 294.461C363.171 294.61 362.676 294.835 362.064 295.138C360.838 295.746 359.147 296.667 357.293 297.92C353.579 300.429 349.242 304.245 346.65 309.502C344.048 314.777 343.673 319.288 343.94 322.47C344.074 324.062 344.368 325.324 344.628 326.184C344.758 326.614 344.878 326.943 344.966 327.162C344.974 327.183 344.982 327.202 344.989 327.221Z" fill="#263238"/>
<path fill-rule="evenodd" clip-rule="evenodd" d="M358.544 304.884C358.769 305.02 358.84 305.314 358.704 305.539L345.079 327.937C344.942 328.162 344.649 328.233 344.424 328.096C344.198 327.959 344.127 327.666 344.264 327.441L357.888 305.043C358.025 304.818 358.319 304.747 358.544 304.884Z" fill="#263238"/>
<path fill-rule="evenodd" clip-rule="evenodd" d="M313.038 319.851C313.266 319.718 313.558 319.796 313.691 320.024L318.933 329.056C322.391 335.253 325.164 341.808 327.204 348.605C327.28 348.857 327.137 349.123 326.885 349.199C326.632 349.275 326.366 349.132 326.291 348.879C324.271 342.15 321.525 335.66 318.102 329.524L312.865 320.503C312.733 320.275 312.811 319.983 313.038 319.851Z" fill="#263238"/>
<path d="M317.49 327.241C313.356 328.51 308.968 328.712 304.735 327.829C300.502 326.945 296.562 325.004 293.281 322.186C281.661 312.425 282.31 292.506 282.31 292.506C282.31 292.506 304.834 289.291 313.926 302.054C316.562 305.628 318.268 309.8 318.89 314.197C319.512 318.594 319.031 323.076 317.49 327.241V327.241Z" fill="#50BFD7"/>
<path fill-rule="evenodd" clip-rule="evenodd" d="M282.312 292.509C281.835 292.493 281.835 292.493 281.835 292.494L281.835 292.498L281.834 292.51L281.833 292.555C281.832 292.595 281.831 292.653 281.83 292.729C281.828 292.88 281.827 293.102 281.83 293.388C281.835 293.959 281.855 294.783 281.916 295.802C282.037 297.839 282.322 300.658 282.973 303.785C284.271 310.025 287.045 317.57 292.974 322.552C296.315 325.421 300.328 327.398 304.639 328.298C308.951 329.198 313.421 328.992 317.631 327.699L317.491 327.243L317.939 327.409C319.507 323.17 319.997 318.608 319.364 314.133C318.731 309.659 316.996 305.413 314.314 301.777C309.648 295.23 301.572 292.819 294.766 292.023C291.35 291.623 288.223 291.627 285.952 291.729C284.815 291.781 283.891 291.857 283.25 291.921C282.93 291.953 282.68 291.981 282.509 292.002C282.424 292.013 282.358 292.021 282.314 292.027L282.263 292.034L282.25 292.036L282.245 292.036C282.245 292.036 282.244 292.037 282.312 292.509ZM282.783 292.931C282.782 293.054 282.782 293.204 282.784 293.38C282.788 293.936 282.808 294.744 282.868 295.745C282.988 297.748 283.268 300.519 283.907 303.591C285.189 309.75 287.901 317.044 293.59 321.823L293.594 321.826C296.813 324.592 300.68 326.497 304.834 327.364C308.911 328.215 313.135 328.04 317.125 326.855C318.574 322.828 319.019 318.507 318.419 314.266C317.808 309.948 316.133 305.85 313.544 302.34L313.539 302.333C309.113 296.12 301.381 293.757 294.655 292.971C291.303 292.578 288.23 292.581 285.995 292.682C284.877 292.733 283.971 292.808 283.344 292.87C283.12 292.893 282.932 292.913 282.783 292.931ZM282.312 292.509L282.245 292.036C282.016 292.069 281.842 292.262 281.835 292.494L282.312 292.509Z" fill="#263238"/>
<path fill-rule="evenodd" clip-rule="evenodd" d="M290.463 299.08C290.653 298.897 290.955 298.903 291.138 299.094L317.835 326.914C318.017 327.104 318.011 327.406 317.821 327.588C317.631 327.771 317.329 327.765 317.146 327.574L290.449 299.754C290.267 299.564 290.273 299.262 290.463 299.08Z" fill="#263238"/>
<path d="M345.136 340.666H316.638V368.612H345.136V340.666Z" fill="#263238"/>
<path fill-rule="evenodd" clip-rule="evenodd" d="M316.162 340.662C316.162 340.399 316.376 340.185 316.639 340.185H345.137C345.401 340.185 345.614 340.399 345.614 340.662V368.608C345.614 368.872 345.401 369.085 345.137 369.085H316.639C316.376 369.085 316.162 368.872 316.162 368.608V340.662ZM317.116 341.139V368.131H344.66V341.139H317.116Z" fill="#263238"/>
<path opacity="0.3" d="M391.111 63.8457H189.243V241.964H391.111V63.8457Z" fill="black"/>
<path d="M396.178 54.7437H194.311V232.862H396.178V54.7437Z" fill="white"/>
<path fill-rule="evenodd" clip-rule="evenodd" d="M193.131 54.744C193.131 54.0928 193.659 53.5649 194.31 53.5649H396.177C396.828 53.5649 397.356 54.0928 397.356 54.744V232.862C397.356 233.513 396.828 234.041 396.177 234.041H194.31C193.659 234.041 193.131 233.513 193.131 232.862V54.744ZM195.489 55.923V231.683H394.998V55.923H195.489Z" fill="#263238"/>
<path d="M396.178 54.7437H194.311V67.4732H396.178V54.7437Z" fill="#263238"/>
<path fill-rule="evenodd" clip-rule="evenodd" d="M193.131 54.744C193.131 54.0928 193.659 53.5649 194.31 53.5649H396.177C396.828 53.5649 397.356 54.0928 397.356 54.744V67.4735C397.356 68.1246 396.828 68.6525 396.177 68.6525H194.31C193.659 68.6525 193.131 68.1246 193.131 67.4735V54.744ZM195.489 55.923V66.2945H394.998V55.923H195.489Z" fill="#263238"/>
<path d="M282.625 131.027V112.249C282.625 108.836 283.981 105.561 286.395 103.147C288.809 100.734 292.083 99.3774 295.497 99.3774C298.911 99.3774 302.185 100.734 304.599 103.147C307.013 105.561 308.369 108.836 308.369 112.249V123.221H313.499V112.249C313.499 107.475 311.602 102.896 308.226 99.5202C304.85 96.1442 300.271 94.2476 295.497 94.2476C290.723 94.2476 286.144 96.1442 282.768 99.5202C279.392 102.896 277.495 107.475 277.495 112.249V131.027H282.625Z" fill="white"/>
<path fill-rule="evenodd" clip-rule="evenodd" d="M281.933 98.6882C285.53 95.0911 290.409 93.0703 295.496 93.0703C300.583 93.0703 305.462 95.0911 309.059 98.6882C312.656 102.285 314.677 107.164 314.677 112.251V123.223C314.677 123.874 314.149 124.402 313.498 124.402H308.368C307.717 124.402 307.189 123.874 307.189 123.223V112.251C307.189 109.15 305.957 106.176 303.764 103.983C301.572 101.79 298.597 100.558 295.496 100.558C292.395 100.558 289.421 101.79 287.228 103.983C285.035 106.176 283.803 109.15 283.803 112.251V131.029C283.803 131.68 283.275 132.208 282.624 132.208H277.494C276.843 132.208 276.315 131.68 276.315 131.029V112.251C276.315 107.164 278.336 102.285 281.933 98.6882ZM295.496 95.4283C291.035 95.4283 286.756 97.2007 283.601 100.356C280.446 103.51 278.673 107.789 278.673 112.251V129.85H281.445V112.251C281.445 108.525 282.926 104.951 285.561 102.316C288.196 99.6805 291.77 98.2001 295.496 98.2001C299.223 98.2001 302.797 99.6805 305.432 102.316C308.067 104.951 309.547 108.525 309.547 112.251V122.044H312.319V112.251C312.319 107.789 310.547 103.51 307.392 100.356C304.237 97.2007 299.958 95.4283 295.496 95.4283Z" fill="#263238"/>
<path d="M314.891 129.189H275.578V161.71H314.891V129.189Z" fill="#50BFD7"/>
<path fill-rule="evenodd" clip-rule="evenodd" d="M274.4 129.19C274.4 128.539 274.928 128.011 275.579 128.011H314.892C315.543 128.011 316.071 128.539 316.071 129.19V161.71C316.071 162.361 315.543 162.889 314.892 162.889H275.579C274.928 162.889 274.4 162.361 274.4 161.71V129.19ZM276.758 130.369V160.531H313.713V130.369H276.758Z" fill="#263238"/>
<path fill-rule="evenodd" clip-rule="evenodd" d="M323.518 110.359C324.115 110.62 324.387 111.316 324.126 111.912L321.577 117.739C321.316 118.335 320.621 118.607 320.024 118.346C319.428 118.085 319.156 117.39 319.417 116.793L321.966 110.967C322.227 110.37 322.922 110.098 323.518 110.359Z" fill="#263238"/>
<path fill-rule="evenodd" clip-rule="evenodd" d="M319.681 124.169C319.681 123.518 320.209 122.99 320.86 122.99H330.328C330.979 122.99 331.507 123.518 331.507 124.169C331.507 124.82 330.979 125.348 330.328 125.348H320.86C320.209 125.348 319.681 124.82 319.681 124.169Z" fill="#263238"/>
<path fill-rule="evenodd" clip-rule="evenodd" d="M318.963 129.863C319.439 129.419 320.186 129.444 320.63 129.92L325.728 135.383C326.172 135.859 326.147 136.605 325.67 137.049C325.194 137.493 324.448 137.468 324.004 136.992L318.906 131.529C318.462 131.053 318.487 130.307 318.963 129.863Z" fill="#263238"/>
<path d="M299.327 142.695C299.342 141.933 299.153 141.182 298.782 140.517C298.41 139.852 297.868 139.298 297.211 138.912C296.555 138.526 295.807 138.322 295.045 138.32C294.284 138.319 293.535 138.52 292.877 138.903C292.219 139.287 291.675 139.839 291.3 140.502C290.926 141.165 290.735 141.916 290.747 142.678C290.758 143.439 290.973 144.184 291.368 144.835C291.763 145.487 292.324 146.021 292.994 146.384L292.281 153.778H297.775L297.063 146.384C297.742 146.036 298.312 145.507 298.712 144.857C299.111 144.206 299.324 143.458 299.327 142.695V142.695Z" fill="#263238"/>
<path fill-rule="evenodd" clip-rule="evenodd" d="M292.285 137.884C293.124 137.395 294.078 137.138 295.049 137.14C296.02 137.142 296.973 137.402 297.81 137.895C298.647 138.387 299.338 139.093 299.812 139.94C300.284 140.785 300.524 141.74 300.507 142.708C300.507 142.711 300.507 142.714 300.507 142.717L299.328 142.694L300.507 142.698C300.507 142.701 300.507 142.704 300.507 142.708C300.501 143.684 300.228 144.64 299.718 145.472C299.351 146.07 298.871 146.588 298.308 146.998L298.237 146.27L297.064 146.383L297.602 147.432C297.849 147.305 298.085 147.16 298.308 146.998L298.95 153.664C298.982 153.994 298.872 154.323 298.649 154.569C298.426 154.815 298.109 154.956 297.776 154.956H292.282C291.95 154.956 291.633 154.815 291.41 154.569C291.186 154.323 291.077 153.994 291.109 153.664L291.753 146.983C291.968 147.144 292.195 147.29 292.433 147.419L292.995 146.383L291.821 146.27L291.753 146.983C291.197 146.565 290.724 146.044 290.361 145.445C289.857 144.615 289.584 143.666 289.569 142.695C289.554 141.724 289.798 140.767 290.275 139.921C290.752 139.076 291.446 138.372 292.285 137.884ZM293.58 152.598H292.282V153.777L293.456 153.89L293.58 152.598ZM296.478 152.598H297.776V153.777L296.603 153.89L296.478 152.598Z" fill="#263238"/>
<path d="M365.621 174.961H224.852C221.354 174.961 218.519 177.796 218.519 181.294V196.319C218.519 199.817 221.354 202.652 224.852 202.652H365.621C369.118 202.652 371.954 199.817 371.954 196.319V181.294C371.954 177.796 369.118 174.961 365.621 174.961Z" fill="white"/>
<path fill-rule="evenodd" clip-rule="evenodd" d="M224.851 176.141C222.004 176.141 219.697 178.449 219.697 181.295V196.321C219.697 199.167 222.004 201.475 224.851 201.475H365.62C368.466 201.475 370.774 199.167 370.774 196.321V181.295C370.774 178.449 368.466 176.141 365.62 176.141H224.851ZM217.339 181.295C217.339 177.146 220.702 173.783 224.851 173.783H365.62C369.769 173.783 373.132 177.146 373.132 181.295V196.321C373.132 200.469 369.769 203.833 365.62 203.833H224.851C220.702 203.833 217.339 200.469 217.339 196.321V181.295Z" fill="#263238"/>
<path d="M233.416 189.686C233.199 189.646 232.993 189.558 232.813 189.429C232.634 189.299 232.486 189.131 232.38 188.937C232.274 188.743 232.212 188.527 232.2 188.306C232.187 188.085 232.224 187.865 232.308 187.66L232.387 187.454C232.45 187.25 232.557 187.063 232.699 186.904C232.841 186.745 233.015 186.619 233.21 186.533C233.405 186.448 233.617 186.405 233.83 186.408C234.043 186.411 234.253 186.46 234.445 186.551C235.736 187.049 236.964 187.697 238.103 188.483C237.699 187.113 237.465 185.699 237.406 184.272C237.393 184.056 237.424 183.84 237.498 183.636C237.572 183.433 237.686 183.247 237.835 183.09C237.983 182.933 238.162 182.808 238.361 182.722C238.559 182.637 238.773 182.593 238.989 182.593H239.211C239.427 182.593 239.641 182.637 239.84 182.722C240.038 182.808 240.217 182.933 240.365 183.09C240.514 183.247 240.628 183.433 240.702 183.636C240.776 183.84 240.807 184.056 240.794 184.272C240.734 185.697 240.505 187.111 240.113 188.483C241.254 187.711 242.475 187.063 243.755 186.551C243.949 186.458 244.162 186.408 244.377 186.406C244.593 186.403 244.806 186.448 245.002 186.537C245.199 186.626 245.373 186.757 245.513 186.921C245.653 187.085 245.756 187.278 245.813 187.486V187.628C245.906 187.832 245.951 188.054 245.945 188.278C245.939 188.502 245.881 188.722 245.778 188.92C245.674 189.119 245.526 189.291 245.346 189.424C245.165 189.556 244.957 189.646 244.737 189.686C243.408 190.042 242.042 190.244 240.668 190.288C241.794 191.116 242.814 192.078 243.707 193.154C243.838 193.317 243.935 193.504 243.993 193.704C244.051 193.905 244.069 194.115 244.045 194.323C244.022 194.53 243.957 194.731 243.856 194.913C243.754 195.096 243.618 195.257 243.454 195.386L243.28 195.529C243.11 195.673 242.91 195.777 242.694 195.833C242.478 195.89 242.252 195.897 242.034 195.854C241.815 195.812 241.608 195.72 241.429 195.587C241.25 195.454 241.104 195.283 241 195.085C240.239 193.917 239.607 192.67 239.116 191.365C238.598 192.666 237.951 193.913 237.184 195.085C237.081 195.283 236.934 195.454 236.755 195.587C236.576 195.72 236.37 195.812 236.151 195.854C235.932 195.897 235.706 195.89 235.491 195.833C235.275 195.777 235.074 195.673 234.904 195.529L234.746 195.386C234.581 195.258 234.443 195.098 234.34 194.916C234.237 194.734 234.171 194.534 234.146 194.326C234.121 194.118 234.138 193.908 234.194 193.707C234.251 193.506 234.347 193.318 234.477 193.154C235.391 192.078 236.415 191.102 237.533 190.24C236.142 190.233 234.759 190.047 233.416 189.686V189.686Z" fill="#263238"/>
<path d="M249.47 189.686C249.252 189.646 249.046 189.558 248.867 189.429C248.688 189.299 248.54 189.131 248.433 188.937C248.327 188.743 248.266 188.527 248.253 188.306C248.241 188.085 248.278 187.865 248.362 187.66L248.441 187.454C248.504 187.25 248.61 187.063 248.752 186.904C248.894 186.745 249.069 186.619 249.264 186.533C249.459 186.448 249.67 186.405 249.883 186.408C250.097 186.411 250.306 186.46 250.499 186.551C251.79 187.049 253.017 187.697 254.156 188.483C253.752 187.113 253.518 185.699 253.46 184.272C253.447 184.056 253.478 183.84 253.552 183.636C253.626 183.433 253.74 183.247 253.888 183.09C254.037 182.933 254.216 182.808 254.414 182.722C254.613 182.637 254.827 182.593 255.043 182.593H255.17C255.386 182.593 255.6 182.637 255.798 182.722C255.997 182.808 256.176 182.933 256.324 183.09C256.472 183.247 256.587 183.433 256.661 183.636C256.735 183.84 256.766 184.056 256.753 184.272C256.693 185.697 256.464 187.111 256.072 188.483C257.213 187.711 258.434 187.063 259.714 186.551C259.911 186.473 260.122 186.435 260.334 186.44C260.546 186.445 260.755 186.492 260.949 186.579C261.142 186.666 261.316 186.791 261.46 186.947C261.604 187.103 261.716 187.286 261.788 187.486V187.628C261.88 187.832 261.925 188.054 261.919 188.278C261.913 188.502 261.856 188.722 261.752 188.92C261.648 189.119 261.501 189.291 261.32 189.424C261.14 189.556 260.931 189.646 260.711 189.686C259.382 190.042 258.017 190.244 256.642 190.288C257.768 191.116 258.789 192.078 259.682 193.154C259.813 193.317 259.91 193.504 259.968 193.704C260.026 193.905 260.043 194.115 260.02 194.323C259.996 194.53 259.932 194.731 259.83 194.913C259.729 195.096 259.592 195.257 259.429 195.386L259.254 195.529C259.086 195.673 258.887 195.777 258.672 195.833C258.458 195.889 258.233 195.897 258.015 195.854C257.798 195.811 257.592 195.72 257.415 195.587C257.237 195.454 257.092 195.282 256.99 195.085C256.217 193.922 255.58 192.673 255.09 191.365C254.572 192.666 253.925 193.913 253.159 195.085C253.055 195.283 252.908 195.454 252.73 195.587C252.551 195.72 252.344 195.812 252.125 195.854C251.906 195.897 251.681 195.89 251.465 195.833C251.249 195.777 251.049 195.673 250.879 195.529L250.721 195.386C250.556 195.258 250.418 195.098 250.315 194.916C250.212 194.734 250.146 194.534 250.121 194.326C250.096 194.118 250.112 193.908 250.169 193.707C250.226 193.506 250.322 193.318 250.451 193.154C251.365 192.078 252.389 191.102 253.507 190.24C252.143 190.226 250.787 190.04 249.47 189.686Z" fill="#263238"/>
<path d="M265.526 189.686C265.316 189.632 265.12 189.536 264.949 189.403C264.779 189.27 264.637 189.103 264.533 188.913C264.429 188.723 264.365 188.514 264.346 188.298C264.326 188.083 264.35 187.865 264.418 187.66V187.454C264.481 187.25 264.587 187.063 264.729 186.904C264.872 186.745 265.046 186.619 265.241 186.533C265.436 186.448 265.647 186.405 265.861 186.408C266.074 186.411 266.284 186.46 266.476 186.551C267.767 187.049 268.995 187.697 270.133 188.483C269.735 187.112 269.506 185.698 269.453 184.272C269.44 184.056 269.471 183.84 269.545 183.636C269.618 183.433 269.733 183.247 269.881 183.09C270.03 182.933 270.209 182.808 270.407 182.722C270.606 182.637 270.82 182.593 271.036 182.593H271.258C271.474 182.593 271.688 182.637 271.886 182.722C272.085 182.808 272.264 182.933 272.412 183.09C272.56 183.247 272.675 183.433 272.749 183.636C272.822 183.84 272.854 184.056 272.841 184.272C272.78 185.697 272.552 187.111 272.16 188.483C273.301 187.711 274.522 187.063 275.802 186.551C275.999 186.473 276.21 186.435 276.422 186.44C276.634 186.445 276.843 186.492 277.036 186.579C277.23 186.666 277.404 186.791 277.548 186.947C277.692 187.103 277.804 187.286 277.876 187.486V187.628C277.968 187.831 278.014 188.052 278.009 188.275C278.003 188.498 277.948 188.717 277.845 188.915C277.743 189.113 277.597 189.286 277.419 189.419C277.24 189.553 277.034 189.644 276.815 189.686C275.48 190.041 274.11 190.242 272.73 190.288C273.856 191.116 274.877 192.078 275.77 193.154C275.901 193.317 275.998 193.504 276.056 193.704C276.114 193.905 276.131 194.115 276.108 194.323C276.084 194.53 276.02 194.731 275.918 194.913C275.817 195.096 275.68 195.257 275.517 195.386L275.342 195.529C275.174 195.673 274.975 195.777 274.76 195.833C274.545 195.889 274.321 195.897 274.103 195.854C273.886 195.811 273.68 195.72 273.503 195.587C273.325 195.454 273.18 195.282 273.078 195.085C272.311 193.918 271.674 192.67 271.178 191.365C270.66 192.666 270.013 193.913 269.247 195.085C269.145 195.282 269 195.454 268.822 195.587C268.645 195.72 268.44 195.811 268.222 195.854C268.004 195.897 267.78 195.889 267.565 195.833C267.35 195.777 267.151 195.673 266.983 195.529L266.809 195.386C266.644 195.258 266.506 195.098 266.403 194.916C266.3 194.734 266.234 194.534 266.209 194.326C266.184 194.118 266.2 193.908 266.257 193.707C266.314 193.506 266.41 193.318 266.539 193.154C267.453 192.078 268.477 191.102 269.595 190.24C268.221 190.229 266.853 190.043 265.526 189.686V189.686Z" fill="#263238"/>
<path d="M281.58 189.686C281.37 189.632 281.174 189.536 281.003 189.403C280.832 189.27 280.691 189.103 280.587 188.913C280.483 188.723 280.419 188.514 280.399 188.298C280.379 188.083 280.404 187.865 280.472 187.66V187.454C280.535 187.25 280.641 187.063 280.783 186.904C280.925 186.745 281.1 186.619 281.295 186.533C281.49 186.448 281.701 186.405 281.914 186.408C282.127 186.411 282.337 186.46 282.53 186.551C283.821 187.049 285.048 187.697 286.187 188.483C285.795 187.111 285.567 185.697 285.506 184.272C285.493 184.056 285.525 183.84 285.598 183.636C285.672 183.433 285.787 183.247 285.935 183.09C286.083 182.933 286.262 182.808 286.461 182.722C286.659 182.637 286.873 182.593 287.09 182.593H287.311C287.527 182.593 287.741 182.637 287.94 182.722C288.138 182.808 288.317 182.933 288.466 183.09C288.614 183.247 288.729 183.433 288.802 183.636C288.876 183.84 288.907 184.056 288.894 184.272C288.834 185.697 288.606 187.111 288.214 188.483C289.355 187.711 290.576 187.063 291.855 186.551C292.052 186.473 292.263 186.435 292.476 186.44C292.688 186.445 292.897 186.492 293.09 186.579C293.284 186.666 293.458 186.791 293.602 186.947C293.746 187.103 293.857 187.286 293.929 187.486V187.628C294.022 187.831 294.067 188.052 294.062 188.275C294.057 188.498 294.001 188.717 293.899 188.915C293.797 189.113 293.651 189.286 293.473 189.419C293.294 189.553 293.087 189.644 292.869 189.686C291.534 190.041 290.164 190.242 288.784 190.288C289.91 191.116 290.931 192.078 291.824 193.154C291.954 193.317 292.051 193.504 292.109 193.704C292.167 193.905 292.185 194.115 292.161 194.323C292.138 194.53 292.074 194.731 291.972 194.913C291.871 195.096 291.734 195.257 291.57 195.386L291.396 195.529C291.227 195.673 291.028 195.777 290.814 195.833C290.599 195.889 290.375 195.897 290.157 195.854C289.939 195.811 289.734 195.72 289.556 195.587C289.379 195.454 289.234 195.282 289.132 195.085C288.365 193.918 287.728 192.67 287.232 191.365C286.699 192.668 286.036 193.915 285.253 195.085C285.151 195.282 285.006 195.454 284.828 195.587C284.651 195.72 284.446 195.811 284.228 195.854C284.01 195.897 283.786 195.889 283.571 195.833C283.357 195.777 283.158 195.673 282.989 195.529L282.815 195.386C282.65 195.258 282.512 195.098 282.409 194.916C282.306 194.734 282.24 194.534 282.215 194.326C282.19 194.118 282.206 193.908 282.263 193.707C282.32 193.506 282.416 193.318 282.546 193.154C283.459 192.078 284.483 191.102 285.601 190.24C284.243 190.225 282.892 190.039 281.58 189.686Z" fill="#263238"/>
<path d="M297.634 189.686C297.424 189.632 297.228 189.536 297.057 189.403C296.886 189.27 296.744 189.103 296.64 188.913C296.537 188.723 296.473 188.514 296.453 188.298C296.433 188.083 296.458 187.865 296.525 187.66L296.604 187.454C296.68 187.257 296.793 187.077 296.939 186.925C297.084 186.773 297.259 186.651 297.452 186.567C297.645 186.483 297.853 186.438 298.064 186.436C298.274 186.433 298.483 186.472 298.678 186.551C299.963 187.053 301.185 187.701 302.32 188.483C301.928 187.111 301.7 185.697 301.639 184.272C301.626 184.056 301.658 183.84 301.731 183.636C301.805 183.433 301.92 183.247 302.068 183.09C302.216 182.933 302.395 182.808 302.594 182.722C302.792 182.637 303.006 182.593 303.222 182.593H303.444C303.66 182.593 303.874 182.637 304.073 182.722C304.271 182.808 304.45 182.933 304.599 183.09C304.747 183.247 304.862 183.433 304.935 183.636C305.009 183.84 305.04 184.056 305.027 184.272C304.967 185.697 304.739 187.111 304.347 188.483C305.488 187.711 306.709 187.063 307.988 186.551C308.185 186.473 308.396 186.435 308.608 186.44C308.821 186.445 309.03 186.492 309.223 186.579C309.417 186.666 309.591 186.791 309.735 186.947C309.879 187.103 309.99 187.286 310.062 187.486V187.628C310.155 187.831 310.2 188.052 310.195 188.275C310.19 188.498 310.134 188.717 310.032 188.915C309.93 189.113 309.784 189.286 309.605 189.419C309.427 189.553 309.22 189.644 309.001 189.686C307.667 190.041 306.297 190.242 304.917 190.288C306.043 191.116 307.063 192.078 307.956 193.154C308.087 193.317 308.184 193.504 308.242 193.704C308.3 193.905 308.318 194.115 308.294 194.323C308.271 194.53 308.206 194.731 308.105 194.913C308.004 195.096 307.867 195.257 307.703 195.386L307.529 195.529C307.36 195.673 307.161 195.777 306.947 195.833C306.732 195.889 306.508 195.897 306.29 195.854C306.072 195.811 305.867 195.72 305.689 195.587C305.512 195.454 305.367 195.282 305.265 195.085C304.498 193.918 303.861 192.67 303.365 191.365C302.847 192.666 302.2 193.913 301.433 195.085C301.331 195.282 301.186 195.454 301.009 195.587C300.831 195.72 300.626 195.811 300.408 195.854C300.191 195.897 299.966 195.889 299.752 195.833C299.537 195.777 299.338 195.673 299.169 195.529L298.995 195.386C298.82 195.265 298.672 195.108 298.562 194.926C298.453 194.743 298.384 194.539 298.36 194.328C298.336 194.116 298.357 193.902 298.423 193.699C298.489 193.497 298.598 193.311 298.742 193.154C299.646 192.074 300.665 191.097 301.782 190.24C300.381 190.236 298.987 190.049 297.634 189.686V189.686Z" fill="#263238"/>
<path d="M313.751 189.686C313.541 189.632 313.345 189.536 313.174 189.403C313.003 189.27 312.861 189.103 312.758 188.913C312.654 188.723 312.59 188.514 312.57 188.298C312.55 188.083 312.575 187.865 312.642 187.66L312.722 187.454C312.797 187.257 312.91 187.077 313.056 186.925C313.201 186.773 313.376 186.651 313.569 186.567C313.762 186.483 313.97 186.438 314.181 186.436C314.391 186.433 314.6 186.472 314.796 186.551C316.08 187.053 317.302 187.701 318.437 188.483C318.045 187.111 317.817 185.697 317.756 184.272C317.743 184.056 317.775 183.84 317.848 183.636C317.922 183.433 318.037 183.247 318.185 183.09C318.333 182.933 318.512 182.808 318.711 182.722C318.91 182.637 319.123 182.593 319.34 182.593H319.561C319.777 182.593 319.991 182.637 320.19 182.722C320.389 182.808 320.567 182.933 320.716 183.09C320.864 183.247 320.979 183.433 321.052 183.636C321.126 183.84 321.158 184.056 321.145 184.272C321.084 185.697 320.856 187.111 320.464 188.483C321.608 187.707 322.835 187.059 324.121 186.551C324.316 186.461 324.528 186.413 324.742 186.412C324.957 186.411 325.17 186.456 325.365 186.545C325.561 186.634 325.735 186.764 325.875 186.926C326.016 187.089 326.12 187.279 326.179 187.486V187.628C326.272 187.831 326.318 188.052 326.312 188.275C326.307 188.498 326.251 188.717 326.149 188.915C326.047 189.113 325.901 189.286 325.723 189.419C325.544 189.553 325.338 189.644 325.119 189.686C323.784 190.042 322.414 190.244 321.034 190.288C322.161 191.12 323.187 192.082 324.089 193.154C324.219 193.318 324.315 193.506 324.372 193.707C324.429 193.908 324.445 194.118 324.42 194.326C324.395 194.534 324.329 194.734 324.226 194.916C324.123 195.098 323.985 195.258 323.82 195.386L323.646 195.529C323.477 195.673 323.278 195.777 323.064 195.833C322.849 195.889 322.625 195.897 322.407 195.854C322.189 195.811 321.984 195.72 321.807 195.587C321.629 195.454 321.484 195.282 321.382 195.085C320.615 193.918 319.978 192.67 319.482 191.365C318.964 192.666 318.317 193.913 317.551 195.085C317.449 195.282 317.304 195.454 317.126 195.587C316.949 195.72 316.743 195.811 316.526 195.854C316.308 195.897 316.083 195.889 315.869 195.833C315.654 195.777 315.455 195.673 315.286 195.529L315.112 195.386C314.937 195.265 314.789 195.108 314.68 194.926C314.57 194.743 314.501 194.539 314.477 194.328C314.453 194.116 314.475 193.902 314.54 193.699C314.606 193.497 314.715 193.311 314.859 193.154C315.763 192.074 316.782 191.097 317.899 190.24C316.498 190.236 315.104 190.049 313.751 189.686V189.686Z" fill="#263238"/>
<path d="M329.759 189.686C329.548 189.634 329.35 189.539 329.178 189.406C329.005 189.274 328.862 189.108 328.756 188.918C328.651 188.728 328.586 188.518 328.565 188.301C328.544 188.085 328.568 187.867 328.635 187.66L328.715 187.454C328.79 187.257 328.903 187.077 329.049 186.925C329.194 186.773 329.369 186.651 329.562 186.567C329.755 186.483 329.963 186.438 330.174 186.436C330.384 186.433 330.593 186.472 330.789 186.551C332.073 187.053 333.295 187.701 334.43 188.483C334.038 187.111 333.81 185.697 333.749 184.272C333.736 184.056 333.768 183.84 333.841 183.636C333.915 183.433 334.03 183.247 334.178 183.09C334.326 182.933 334.505 182.808 334.704 182.722C334.903 182.637 335.116 182.593 335.333 182.593H335.554C335.77 182.593 335.984 182.637 336.183 182.722C336.381 182.808 336.56 182.933 336.709 183.09C336.857 183.247 336.972 183.433 337.045 183.636C337.119 183.84 337.15 184.056 337.138 184.272C337.079 185.699 336.845 187.113 336.441 188.483C337.585 187.707 338.812 187.059 340.098 186.551C340.293 186.461 340.505 186.413 340.72 186.412C340.934 186.411 341.147 186.456 341.342 186.545C341.538 186.634 341.712 186.764 341.852 186.926C341.993 187.089 342.097 187.279 342.157 187.486V187.628C342.249 187.832 342.294 188.054 342.288 188.278C342.282 188.502 342.225 188.722 342.121 188.92C342.017 189.119 341.869 189.291 341.689 189.424C341.509 189.556 341.3 189.646 341.08 189.686C339.746 190.042 338.375 190.244 336.995 190.288C338.122 191.12 339.148 192.082 340.051 193.154C340.18 193.318 340.277 193.506 340.333 193.707C340.39 193.908 340.406 194.118 340.381 194.326C340.356 194.534 340.29 194.734 340.187 194.916C340.085 195.098 339.947 195.258 339.782 195.386L339.623 195.529C339.453 195.673 339.253 195.777 339.037 195.833C338.821 195.89 338.596 195.897 338.377 195.854C338.158 195.812 337.952 195.72 337.773 195.587C337.594 195.454 337.447 195.283 337.343 195.085C336.576 193.921 335.944 192.672 335.459 191.365C334.936 192.667 334.284 193.913 333.512 195.085C333.41 195.282 333.265 195.454 333.087 195.587C332.91 195.72 332.705 195.811 332.487 195.854C332.269 195.897 332.045 195.889 331.83 195.833C331.616 195.777 331.416 195.673 331.248 195.529L331.074 195.386C330.898 195.265 330.751 195.108 330.641 194.926C330.531 194.743 330.462 194.539 330.438 194.328C330.414 194.116 330.436 193.902 330.502 193.699C330.568 193.497 330.676 193.311 330.82 193.154C331.724 192.074 332.743 191.097 333.86 190.24C332.475 190.234 331.097 190.048 329.759 189.686Z" fill="#263238"/>
<path d="M345.813 189.686C345.602 189.634 345.404 189.539 345.232 189.406C345.059 189.274 344.916 189.108 344.81 188.918C344.705 188.728 344.639 188.518 344.619 188.301C344.598 188.085 344.622 187.867 344.689 187.66V187.454C344.764 187.257 344.878 187.077 345.023 186.925C345.169 186.773 345.343 186.651 345.536 186.567C345.73 186.483 345.938 186.438 346.148 186.436C346.359 186.433 346.568 186.472 346.763 186.551C348.047 187.053 349.269 187.701 350.405 188.483C350.013 187.111 349.784 185.697 349.724 184.272C349.711 184.056 349.742 183.84 349.816 183.636C349.89 183.433 350.004 183.247 350.153 183.09C350.301 182.933 350.48 182.808 350.678 182.722C350.877 182.637 351.091 182.593 351.307 182.593H351.529C351.745 182.593 351.959 182.637 352.157 182.722C352.356 182.808 352.535 182.933 352.683 183.09C352.832 183.247 352.946 183.433 353.02 183.636C353.094 183.84 353.125 184.056 353.112 184.272C353.053 185.699 352.819 187.113 352.415 188.483C353.56 187.707 354.786 187.059 356.073 186.551C356.267 186.461 356.479 186.413 356.694 186.412C356.909 186.411 357.121 186.456 357.317 186.545C357.512 186.634 357.686 186.764 357.827 186.926C357.967 187.089 358.071 187.279 358.131 187.486V187.628C358.224 187.832 358.269 188.054 358.263 188.278C358.256 188.502 358.199 188.722 358.095 188.92C357.992 189.119 357.844 189.291 357.664 189.424C357.483 189.556 357.275 189.646 357.054 189.686C355.72 190.042 354.35 190.244 352.97 190.288C354.097 191.12 355.122 192.082 356.025 193.154C356.155 193.318 356.251 193.506 356.308 193.707C356.365 193.908 356.381 194.118 356.356 194.326C356.331 194.534 356.265 194.734 356.162 194.916C356.059 195.098 355.921 195.258 355.756 195.386L355.582 195.529C355.413 195.673 355.214 195.777 355 195.833C354.785 195.889 354.561 195.897 354.343 195.854C354.125 195.811 353.92 195.72 353.742 195.587C353.565 195.454 353.42 195.282 353.318 195.085C352.55 193.921 351.918 192.672 351.434 191.365C350.911 192.667 350.259 193.913 349.486 195.085C349.384 195.282 349.239 195.454 349.062 195.587C348.884 195.72 348.679 195.811 348.461 195.854C348.244 195.897 348.019 195.889 347.805 195.833C347.59 195.777 347.391 195.673 347.222 195.529L347.048 195.386C346.873 195.265 346.725 195.108 346.615 194.926C346.506 194.743 346.437 194.539 346.413 194.328C346.389 194.116 346.41 193.902 346.476 193.699C346.542 193.497 346.651 193.311 346.795 193.154C347.699 192.074 348.718 191.097 349.835 190.24C348.476 190.227 347.125 190.041 345.813 189.686Z" fill="#263238"/>
<path fill-rule="evenodd" clip-rule="evenodd" d="M362.34 368.968C362.34 368.667 362.584 368.423 362.885 368.423H380.849C381.15 368.423 381.394 368.667 381.394 368.968C381.394 369.269 381.15 369.513 380.849 369.513H362.885C362.584 369.513 362.34 369.269 362.34 368.968Z" fill="#2C2C2C"/>
<path fill-rule="evenodd" clip-rule="evenodd" d="M23.5938 368.968C23.5938 368.667 23.8378 368.423 24.1389 368.423H356.898C357.199 368.423 357.443 368.667 357.443 368.968C357.443 369.269 357.199 369.513 356.898 369.513H24.1389C23.8378 369.513 23.5938 369.269 23.5938 368.968Z" fill="#2C2C2C"/>
<path fill-rule="evenodd" clip-rule="evenodd" d="M0.197266 368.968C0.197266 368.667 0.44134 368.423 0.742422 368.423H13.0177C13.3188 368.423 13.5629 368.667 13.5629 368.968C13.5629 369.269 13.3188 369.513 13.0177 369.513H0.742422C0.44134 369.513 0.197266 369.269 0.197266 368.968Z" fill="#2C2C2C"/>
<path d="M112.419 293.998L121.124 350.529L121.657 363.328L136.533 360.877L138.186 358.26L139.262 283.005L112.419 293.998Z" fill="#2C2C2C"/>
<path d="M225.082 299.981L233.165 356.603L233.549 369.413L248.444 367.127L250.131 364.548L252.057 289.299L225.082 299.981Z" fill="#2C2C2C"/>
<path d="M179.584 276.086C185.813 276.086 195.523 274.798 195.523 270.568L193.927 256.456L192.523 244.112C192.523 239.882 187.467 236.44 181.237 236.44C178.122 236.44 175.296 237.306 173.258 238.69C171.22 240.074 169.951 241.997 169.951 244.112L168.586 256.475L167.259 268.319C165.452 275.471 179.584 276.086 179.584 276.086Z" fill="#2C2C2C"/>
<path d="M255.856 294.467C255.856 306.734 247.819 314.328 235.553 314.328C223.286 314.328 213.346 304.388 213.346 292.121C213.346 279.855 222.613 266.319 234.303 269.991C247.185 274.01 255.856 282.2 255.856 294.467Z" fill="white"/>
<path d="M235.552 315.098C222.882 315.098 212.576 304.792 212.576 292.122C212.576 283.969 216.441 275.663 222.17 271.453C225.977 268.665 230.246 267.896 234.533 269.242C248.761 273.702 256.606 282.662 256.606 294.448C256.625 306.984 248.338 315.098 235.552 315.098ZM230.438 270.145C227.881 270.145 225.381 271.011 223.074 272.703C217.787 276.586 214.114 284.565 214.114 292.122C214.114 303.946 223.728 313.56 235.552 313.56C241.397 313.56 246.319 311.791 249.761 308.445C253.241 305.081 255.087 300.235 255.087 294.467C255.087 283.412 247.627 274.971 234.091 270.722C232.86 270.338 231.649 270.145 230.438 270.145Z" fill="#2C2C2C"/>
<path d="M245.858 290.891C245.858 299.966 239.917 305.58 230.842 305.58C221.767 305.58 214.422 298.236 214.422 289.161C214.422 280.086 221.267 270.068 229.919 272.779C239.436 275.779 245.858 281.835 245.858 290.891Z" fill="#2C2C2C"/>
<path d="M106.829 294.468C106.829 306.734 114.866 314.329 127.133 314.329C139.399 314.329 149.34 304.389 149.34 292.122C149.34 279.855 140.072 266.319 128.382 269.992C115.5 274.01 106.829 282.201 106.829 294.468Z" fill="white"/>
<path d="M127.132 315.098C114.327 315.098 106.06 307.003 106.06 294.467C106.06 282.681 113.904 273.721 128.132 269.261C132.42 267.915 136.707 268.684 140.495 271.472C146.244 275.682 150.089 283.988 150.089 292.141C150.108 304.792 139.803 315.098 127.132 315.098ZM132.247 270.145C131.035 270.145 129.824 270.337 128.613 270.722C115.077 274.971 107.617 283.412 107.617 294.467C107.617 300.235 109.463 305.08 112.943 308.445C116.404 311.791 121.306 313.559 127.151 313.559C138.976 313.559 148.589 303.946 148.589 292.121C148.589 284.565 144.898 276.567 139.63 272.702C137.284 270.991 134.804 270.145 132.247 270.145Z" fill="#2C2C2C"/>
<path d="M116.827 290.891C116.827 299.967 122.768 305.581 131.843 305.581C140.918 305.581 148.263 298.236 148.263 289.161C148.263 280.086 141.418 270.069 132.766 272.78C123.23 275.779 116.827 281.836 116.827 290.891Z" fill="#2C2C2C"/>
<path d="M195.926 260.936H166.682C153.915 262.089 141.706 264.723 130.305 268.626L152.185 380.796C153.761 388.91 160.875 394.774 169.143 394.774H193.869C202.155 394.774 209.289 388.89 210.846 380.738L232.322 268.626C220.921 264.723 208.712 262.089 195.926 260.936Z" fill="white"/>
<path d="M195.75 376.065L171.25 373.065C162.636 373.065 153.069 389.409 151.435 380.95L129.42 268.107L130.054 267.896C141.706 263.916 153.992 261.301 166.605 260.167H166.682H195.964H196.003C208.615 261.301 220.921 263.897 232.572 267.896L233.206 268.107L211.595 380.892C209.98 389.371 204.402 376.065 195.75 376.065ZM131.189 269.126L152.934 380.642C154.434 388.371 163.367 373.065 171.25 373.065H195.75C203.652 373.065 208.596 388.352 210.077 380.584L231.418 269.126C220.075 265.3 208.115 262.801 195.868 261.685H166.72C154.473 262.801 142.513 265.3 131.189 269.126Z" fill="#2C2C2C"/>
<path d="M145.378 264.319C148.127 281.701 150.877 299.082 153.626 316.443C156.087 329.518 168.489 338.228 181.428 338.304C194.368 338.228 206.769 329.537 209.23 316.443C211.98 299.082 214.729 281.72 217.479 264.377C210.519 262.762 203.308 261.589 195.925 260.936H166.681C159.375 261.589 152.261 262.743 145.378 264.319Z" fill="#50BFD7"/>
<path d="M181.447 339.074C174.853 339.035 168.354 336.843 163.144 332.863C157.722 328.749 154.088 322.961 152.876 316.578V316.559L144.513 263.723L145.205 263.57C152.184 261.955 159.394 260.82 166.604 260.167H166.681H195.964H196.002C203.308 260.82 210.595 261.993 217.671 263.627L218.363 263.781L209.999 316.578C208.807 322.961 205.154 328.729 199.732 332.863C194.522 336.843 188.023 339.035 181.447 339.074ZM154.395 316.328C155.53 322.327 158.952 327.768 164.066 331.652C169.027 335.42 175.199 337.516 181.447 337.535C187.696 337.497 193.868 335.401 198.809 331.652C203.924 327.768 207.346 322.327 208.48 316.328L216.613 264.973C209.846 263.435 202.885 262.339 195.887 261.705H166.72C159.817 262.32 152.934 263.397 146.243 264.916L154.395 316.328Z" fill="#2C2C2C"/>
<path d="M188.369 287.257H173.603C169.68 287.257 166.489 290.449 166.489 294.371V309.137C166.489 313.059 169.68 316.251 173.603 316.251H188.369C192.291 316.251 195.483 313.059 195.483 309.137V294.371C195.483 290.449 192.31 287.257 188.369 287.257ZM162.566 280.97C160.317 280.97 158.49 282.796 158.49 285.046C158.49 287.295 160.317 289.122 162.566 289.122C164.816 289.122 166.642 287.295 166.642 285.046C166.642 282.796 164.816 280.97 162.566 280.97Z" fill="white"/>
<path d="M187.33 296.063C186.388 293.544 183.984 291.871 181.293 291.871H177.293L185.196 311.906H193.675L187.33 296.063ZM171.179 306.157L168.872 311.906H177.293L181.216 301.965H177.217C174.525 301.965 172.121 303.638 171.179 306.157ZM172.487 296.851C173.871 296.851 175.005 295.717 175.005 294.332C175.005 292.948 173.871 291.813 172.487 291.813C171.102 291.813 169.968 292.948 169.968 294.332C169.968 295.717 171.102 296.851 172.487 296.851Z" fill="#50BFD7"/>
<path d="M195.618 253.36H167.028C162.913 253.36 159.529 249.996 159.529 245.862C159.529 241.747 162.894 238.363 167.028 238.363H195.618C199.733 238.363 203.117 241.728 203.117 245.862C203.097 249.996 199.733 253.36 195.618 253.36Z" fill="#50BFD7"/>
<path d="M195.619 254.129H167.028C162.472 254.129 158.761 250.419 158.761 245.862C158.761 241.305 162.472 237.594 167.028 237.594H195.619C200.175 237.594 203.886 241.305 203.886 245.862C203.886 250.419 200.156 254.129 195.619 254.129ZM167.028 239.152C163.318 239.152 160.299 242.17 160.299 245.881C160.299 249.592 163.318 252.61 167.028 252.61H195.619C199.329 252.61 202.348 249.592 202.348 245.881C202.348 242.17 199.329 239.152 195.619 239.152H167.028Z" fill="#2C2C2C"/>
<path d="M182.908 101.045H179.717V121.964H182.908V101.045Z" fill="#2C2C2C"/>
<path d="M194.387 126.367H168.238C167.758 126.367 167.373 125.982 167.373 125.501V113.504C167.373 113.023 167.758 112.639 168.238 112.639H194.387C194.867 112.639 195.252 113.023 195.252 113.504V125.521C195.252 125.982 194.867 126.367 194.387 126.367Z" fill="#50BFD7"/>
<path d="M194.387 127.136H168.239C167.335 127.136 166.604 126.405 166.604 125.501V113.504C166.604 112.6 167.335 111.87 168.239 111.87H194.387C195.291 111.87 196.022 112.6 196.022 113.504V125.521C196.022 126.405 195.291 127.136 194.387 127.136ZM168.239 113.389C168.181 113.389 168.143 113.427 168.143 113.485V125.501C168.143 125.559 168.181 125.598 168.239 125.598H194.387C194.445 125.598 194.483 125.559 194.483 125.501V113.504C194.483 113.446 194.445 113.408 194.387 113.408H168.239V113.389Z" fill="#2C2C2C"/>
<path d="M185.408 99.6415C185.408 101.891 183.582 103.718 181.332 103.718C179.082 103.718 177.256 101.891 177.256 99.6415C177.256 97.392 179.082 95.5654 181.332 95.5654C183.562 95.5654 185.408 97.392 185.408 99.6415Z" fill="#2C2C2C"/>
<path d="M184.159 98.0652C184.159 98.7573 183.601 99.3149 182.909 99.3149C182.217 99.3149 181.659 98.7573 181.659 98.0652C181.659 97.373 182.217 96.8154 182.909 96.8154C183.601 96.8154 184.159 97.373 184.159 98.0652Z" fill="#2C2C2C"/>
<path d="M205.232 212.08C216.063 212.08 224.843 203.3 224.843 192.469C224.843 181.638 216.063 172.857 205.232 172.857C194.4 172.857 185.62 181.638 185.62 192.469C185.62 203.3 194.4 212.08 205.232 212.08Z" fill="#002731"/>
<path d="M181.313 228.442C228.969 228.442 267.603 211.097 267.603 189.7C267.603 168.303 228.969 150.958 181.313 150.958C133.656 150.958 95.0225 168.303 95.0225 189.7C95.0225 211.097 133.656 228.442 181.313 228.442Z" fill="#2C2C2C"/>
<path d="M105.098 207.889C106.636 209.177 108.309 210.427 110.155 211.619C105.694 198.756 103.752 184.49 104.214 172.281C102.81 173.531 101.541 174.838 100.445 176.165C100.484 186.239 102.003 197.353 105.098 207.889Z" fill="#50BFD7"/>
<path d="M262.162 176.146C261.046 174.819 259.777 173.511 258.374 172.262C259.104 184.586 256.624 199.102 251.702 212.138C253.606 210.927 255.374 209.677 256.97 208.37C260.412 197.603 262.219 186.317 262.162 176.146Z" fill="#50BFD7"/>
<path d="M198.924 245.997H163.72C135.245 245.997 112.173 222.924 112.173 194.449V186.624C112.173 150.093 141.782 120.503 178.294 120.503H184.312C220.843 120.503 250.433 150.112 250.433 186.624V194.449C250.452 222.924 227.38 245.997 198.924 245.997Z" fill="white"/>
<path d="M198.924 246.766H163.72C149.742 246.766 136.61 241.325 126.727 231.442C116.845 221.559 111.403 208.427 111.403 194.449V186.624C111.403 168.762 118.363 151.958 130.995 139.326C143.628 126.694 160.432 119.734 178.294 119.734H184.312C202.173 119.734 218.978 126.694 231.61 139.326C244.242 151.958 251.202 168.762 251.202 186.624V194.449C251.202 208.427 245.761 221.559 235.878 231.442C226.015 241.325 212.883 246.766 198.924 246.766ZM178.313 121.272C160.855 121.272 144.435 128.078 132.091 140.422C119.748 152.766 112.941 169.185 112.941 186.643V194.469C112.941 208.024 118.229 220.771 127.804 230.365C137.398 239.959 150.145 245.228 163.7 245.228H198.905C212.46 245.228 225.207 239.94 234.801 230.365C244.395 220.771 249.664 208.024 249.664 194.469V186.643C249.664 169.185 242.857 152.766 230.514 140.422C218.17 128.078 201.75 121.272 184.292 121.272H178.313Z" fill="#2C2C2C"/>
<path d="M181.313 161.783C202.482 161.783 221.67 155.399 235.744 145.055C223.612 130.077 205.096 120.502 184.312 120.502H178.294C157.529 120.502 138.994 130.077 126.862 145.055C140.956 155.399 160.144 161.783 181.313 161.783Z" fill="#2C2C2C"/>
<path d="M181.313 130.308C160.144 130.308 140.956 136.691 126.882 147.035C139.014 162.013 157.529 171.588 178.314 171.588H184.332C205.097 171.588 223.631 162.013 235.764 147.035C221.67 136.691 202.482 130.308 181.313 130.308Z" fill="#50BFD7"/>
<path d="M184.332 172.376H178.314C158.03 172.376 139.072 163.321 126.286 147.535L125.786 146.901L126.44 146.42C141.225 135.538 160.721 129.539 181.333 129.539C201.924 129.539 221.421 135.538 236.225 146.42L236.879 146.901L236.379 147.535C223.574 163.321 204.616 172.376 184.332 172.376ZM127.997 147.189C140.475 162.225 158.76 170.838 178.314 170.838H184.332C203.886 170.838 222.17 162.225 234.649 147.189C220.19 136.788 201.29 131.077 181.333 131.077C161.337 131.077 142.437 136.788 127.997 147.189Z" fill="#2C2C2C"/>
<path d="M229.4 203.871C227.573 204.967 225.516 205.543 223.42 205.543H139.226C137.13 205.543 135.073 204.967 133.246 203.871C128.747 201.179 126.19 195.719 126.824 190.124L126.863 189.72C129.016 170.781 143.186 156.227 160.548 155.131C167.893 154.669 175.603 154.419 183.64 154.477C189.946 154.515 196.022 154.746 201.886 155.111C219.325 156.207 233.591 170.704 235.745 189.72C235.764 189.854 235.783 189.989 235.783 190.124C236.456 195.719 233.899 201.179 229.4 203.871Z" fill="white"/>
<path d="M223.401 206.312H139.226C136.996 206.312 134.804 205.697 132.843 204.524C128.036 201.66 125.383 195.968 126.056 190.027L126.094 189.624C128.286 170.301 142.764 155.457 160.491 154.342C168.162 153.862 175.949 153.65 183.64 153.689C189.716 153.727 195.868 153.938 201.925 154.323C219.767 155.438 234.303 170.281 236.495 189.604L236.533 190.008C237.206 195.93 234.553 201.621 229.746 204.505C227.842 205.697 225.631 206.312 223.401 206.312ZM181.352 155.246C174.45 155.246 167.489 155.457 160.606 155.9C143.629 156.976 129.747 171.243 127.632 189.816L127.594 190.22C126.978 195.545 129.363 200.66 133.65 203.217C135.361 204.236 137.303 204.774 139.245 204.774H223.44C225.381 204.774 227.323 204.236 229.035 203.217C233.322 200.66 235.687 195.545 235.091 190.22L235.053 189.816C232.938 171.223 218.998 156.957 201.905 155.9C195.868 155.515 189.735 155.304 183.698 155.265C182.871 155.246 182.121 155.246 181.352 155.246Z" fill="#2C2C2C"/>
<path d="M167.759 181.163C167.759 188.431 161.433 194.353 153.666 194.353C145.879 194.353 139.572 188.45 139.572 181.163C139.572 173.876 145.879 167.974 153.666 167.974C161.452 167.974 167.759 173.876 167.759 181.163Z" fill="white"/>
<path d="M153.665 195.122C145.474 195.122 138.803 188.854 138.803 181.163C138.803 173.473 145.474 167.205 153.665 167.205C161.856 167.205 168.527 173.473 168.527 181.163C168.527 188.854 161.875 195.122 153.665 195.122ZM153.665 168.743C146.32 168.743 140.341 174.319 140.341 181.163C140.341 188.008 146.32 193.584 153.665 193.584C161.01 193.584 166.989 188.008 166.989 181.163C166.989 174.319 161.01 168.743 153.665 168.743Z" fill="#2C2C2C"/>
<path d="M146.763 180.336C146.763 186.354 150.666 191.219 155.472 191.219C160.298 191.219 164.201 186.335 164.201 180.336C164.201 174.318 160.298 169.435 155.472 169.435C150.666 169.435 146.763 174.318 146.763 180.336Z" fill="#50BFD7"/>
<path d="M149.281 180.336C149.281 184.605 152.05 188.066 155.472 188.066C158.895 188.066 161.663 184.605 161.663 180.336C161.663 176.049 158.895 172.588 155.472 172.588C152.05 172.588 149.281 176.049 149.281 180.336Z" fill="#2C2C2C"/>
<path d="M148.897 173.011C148.897 174.184 150.339 175.126 152.089 175.126C153.858 175.126 155.281 174.184 155.281 173.011C155.281 171.838 153.858 170.896 152.089 170.896C150.32 170.896 148.897 171.838 148.897 173.011Z" fill="white"/>
<path d="M221.594 181.163C221.594 188.431 215.268 194.353 207.501 194.353C199.714 194.353 193.407 188.45 193.407 181.163C193.407 173.876 199.714 167.974 207.501 167.974C215.268 167.974 221.594 173.876 221.594 181.163Z" fill="white"/>
<path d="M207.5 195.122C199.309 195.122 192.638 188.854 192.638 181.163C192.638 173.473 199.309 167.205 207.5 167.205C215.691 167.205 222.362 173.473 222.362 181.163C222.362 188.854 215.691 195.122 207.5 195.122ZM207.5 168.743C200.155 168.743 194.176 174.319 194.176 181.163C194.176 188.008 200.155 193.584 207.5 193.584C214.845 193.584 220.824 188.008 220.824 181.163C220.824 174.319 214.845 168.743 207.5 168.743Z" fill="#2C2C2C"/>
<path d="M200.598 180.336C200.598 186.354 204.501 191.218 209.307 191.218C214.133 191.218 218.036 186.334 218.036 180.336C218.036 174.318 214.133 169.434 209.307 169.434C204.501 169.434 200.598 174.318 200.598 180.336Z" fill="#50BFD7"/>
<path d="M203.116 180.336C203.116 184.605 205.885 188.066 209.307 188.066C212.73 188.066 215.498 184.605 215.498 180.336C215.498 176.049 212.73 172.588 209.307 172.588C205.885 172.588 203.116 176.049 203.116 180.336Z" fill="#2C2C2C"/>
<path d="M202.713 173.011C202.713 174.184 204.155 175.126 205.905 175.126C207.673 175.126 209.096 174.184 209.096 173.011C209.096 171.838 207.673 170.896 205.905 170.896C204.155 170.896 202.713 171.838 202.713 173.011Z" fill="white"/>
<ellipse cx="181.99" cy="224.333" rx="7.5" ry="5.25" fill="white"/>
<path fill-rule="evenodd" clip-rule="evenodd" d="M182.015 229.31C186.084 229.31 188.668 226.794 188.668 224.472C188.668 222.149 186.084 219.633 182.015 219.633C177.946 219.633 175.363 222.149 175.363 224.472C175.363 226.794 177.946 229.31 182.015 229.31ZM182.015 230.923C186.58 230.923 190.281 228.034 190.281 224.472C190.281 220.909 186.58 218.021 182.015 218.021C177.451 218.021 173.75 220.909 173.75 224.472C173.75 228.034 177.451 230.923 182.015 230.923Z" fill="#454545"/>
<path d="M204.64 366.206C193.324 365.171 182.149 364.748 182.149 364.748C178.043 364.873 169.297 365.234 160.27 366.206C162.903 375.202 171.836 381.832 182.447 381.832C193.073 381.847 202.007 375.186 204.64 366.206Z" fill="#50BFD7"/>
<path d="M192.353 372.992C192.353 373.384 192.698 373.839 193.105 373.792C197.729 373.306 201.271 369.732 205.832 370.485C201.255 372.757 197.29 376.707 197.854 382.522C197.917 383.243 198.606 383.525 199.139 383.086C202.415 380.296 206.176 377.804 210.565 378.729C212.446 379.121 214.656 379.857 216.599 379.606C219.499 379.246 221.944 377.929 223.385 375.124C225.924 370.265 224.984 364.435 219.295 363.228C219.154 363.197 219.044 363.213 218.919 363.26C216.818 362.429 214.906 361.379 213.214 359.545C211.584 357.758 210.063 355.783 208.292 354.138C205.926 351.928 203.355 350.188 200.221 351.677C199.75 351.897 199.782 352.571 200.08 352.931C201.459 354.639 203.073 356.269 204.766 357.837C203.073 357.445 201.365 357.241 199.609 357.382C196.475 357.649 192.776 359.733 192.854 363.463C192.87 363.933 193.199 364.216 193.607 364.263C196.491 364.56 199.39 364.513 202.258 364.811C197.791 366.128 192.306 367.632 192.353 372.992Z" fill="white"/>
<path fill-rule="evenodd" clip-rule="evenodd" d="M204.775 350.936C206.219 351.506 207.524 352.562 208.72 353.678C209.918 354.791 211.024 356.075 212.097 357.321C212.629 357.939 213.153 358.547 213.676 359.12C215.232 360.806 216.988 361.803 218.96 362.6C219.103 362.576 219.257 362.577 219.427 362.614C222.497 363.267 224.336 365.195 225.029 367.634C225.711 370.037 225.267 372.875 223.942 375.412C222.385 378.439 219.734 379.847 216.678 380.227C215.607 380.365 214.491 380.229 213.438 380.023C212.909 379.919 212.384 379.795 211.882 379.675C211.829 379.662 211.776 379.65 211.723 379.637C211.275 379.53 210.848 379.427 210.437 379.342L210.436 379.341C206.367 378.484 202.819 380.775 199.546 383.562L199.542 383.566L199.538 383.569C199.111 383.92 198.56 384.022 198.073 383.814C197.587 383.606 197.279 383.136 197.23 382.578C196.719 377.305 199.722 373.521 203.509 371.08C202.249 371.251 201.021 371.707 199.736 372.25C199.45 372.371 199.161 372.497 198.868 372.624C197.128 373.38 195.252 374.195 193.173 374.414C192.705 374.467 192.33 374.226 192.104 373.969C191.88 373.712 191.727 373.359 191.726 372.995C191.701 370.042 193.225 368.146 195.279 366.854C196.362 366.172 197.61 365.647 198.876 365.205C198.555 365.19 198.234 365.176 197.911 365.162L197.898 365.162C196.461 365.099 195.001 365.036 193.542 364.885L193.539 364.885L193.535 364.884C192.865 364.807 192.255 364.308 192.228 363.483L192.228 363.479L192.228 363.475C192.183 361.373 193.213 359.744 194.641 358.629C196.057 357.523 197.885 356.899 199.556 356.756L199.558 356.756L199.559 356.756C200.667 356.667 201.752 356.71 202.819 356.846C201.668 355.712 200.574 354.541 199.594 353.326C199.342 353.019 199.214 352.605 199.236 352.215C199.259 351.81 199.457 351.342 199.953 351.109C201.691 350.284 203.298 350.354 204.775 350.936ZM200.496 352.24C200.493 352.248 200.489 352.263 200.488 352.286C200.486 352.325 200.491 352.373 200.507 352.422C200.523 352.472 200.545 352.509 200.563 352.531L200.565 352.533L200.567 352.536C201.92 354.212 203.511 355.819 205.192 357.376L206.923 358.978L204.624 358.446C202.976 358.065 201.335 357.872 199.661 358.006C198.198 358.131 196.611 358.681 195.413 359.617C194.228 360.542 193.448 361.819 193.481 363.444C193.484 363.527 193.51 363.561 193.527 363.577C193.549 363.599 193.595 363.629 193.676 363.638C195.094 363.785 196.52 363.847 197.965 363.91L197.971 363.91C199.41 363.972 200.869 364.036 202.323 364.187L205.479 364.514L202.435 365.411C202.357 365.434 202.279 365.457 202.201 365.481C200.01 366.125 197.718 366.8 195.947 367.915C194.153 369.044 192.959 370.58 192.98 372.986L192.98 372.989V372.991C192.98 373 192.982 373.023 192.995 373.056C193.008 373.089 193.027 373.119 193.048 373.143C193.056 373.152 193.064 373.159 193.069 373.164C194.929 372.963 196.6 372.239 198.339 371.486C198.639 371.356 198.942 371.225 199.248 371.096C201.292 370.231 203.463 369.458 205.934 369.865L207.85 370.181L206.11 371.045C201.632 373.269 197.951 377.027 198.478 382.46L198.478 382.463L198.479 382.466C198.486 382.551 198.509 382.599 198.526 382.624C198.542 382.648 198.558 382.657 198.567 382.661C198.577 382.666 198.593 382.669 198.617 382.665C198.641 382.661 198.683 382.647 198.738 382.604C202.015 379.813 205.987 377.123 210.693 378.114C211.123 378.204 211.57 378.311 212.015 378.418C212.068 378.43 212.121 378.443 212.174 378.456C212.676 378.576 213.178 378.694 213.679 378.792C214.686 378.99 215.647 379.096 216.519 378.984L216.52 378.984L216.522 378.983C219.263 378.642 221.501 377.418 222.828 374.836L222.829 374.835L222.83 374.833C224.043 372.511 224.398 370.005 223.823 367.977C223.257 365.985 221.782 364.396 219.165 363.84L219.162 363.84L219.159 363.839C219.158 363.839 219.158 363.839 219.158 363.839C219.154 363.84 219.147 363.842 219.139 363.846L218.913 363.93L218.688 363.841C216.537 362.991 214.532 361.896 212.753 359.969L212.752 359.968L212.75 359.967C212.174 359.335 211.625 358.697 211.081 358.065C210.038 356.853 209.016 355.665 207.866 354.596L207.864 354.595C206.693 353.501 205.53 352.582 204.314 352.103C203.132 351.636 201.89 351.579 200.496 352.24Z" fill="#2C2C2C"/>
<path d="M118.515 311.024H248.323C249.876 311.024 251.365 311.641 252.463 312.74C253.562 313.838 254.179 315.327 254.179 316.88V389.806H112.659V316.88C112.659 315.327 113.276 313.838 114.374 312.74C115.472 311.641 116.962 311.024 118.515 311.024Z" fill="white"/>
<path fill-rule="evenodd" clip-rule="evenodd" d="M118.516 311.771C117.161 311.771 115.861 312.309 114.903 313.268C113.945 314.226 113.407 315.525 113.407 316.88V389.06H253.433V316.88C253.433 315.525 252.895 314.226 251.937 313.268C250.979 312.309 249.679 311.771 248.324 311.771H118.516ZM113.848 312.212C115.086 310.974 116.765 310.278 118.516 310.278H248.324C250.075 310.278 251.754 310.974 252.992 312.212C254.231 313.45 254.926 315.129 254.926 316.88V389.807C254.926 390.219 254.592 390.553 254.18 390.553H112.66C112.248 390.553 111.914 390.219 111.914 389.807V316.88C111.914 315.129 112.61 313.45 113.848 312.212Z" fill="#2C2C2C"/>
<path d="M254.179 337.232C236.401 341.741 218.155 353.218 184.157 369.38C151.365 384.979 124.523 384.71 112.659 383.504V389.804H254.179V337.232Z" fill="#2C2C2C"/>
<path fill-rule="evenodd" clip-rule="evenodd" d="M254.638 336.643C254.82 336.784 254.926 337.001 254.926 337.232V389.804C254.926 390.216 254.592 390.55 254.18 390.55H112.66C112.248 390.55 111.914 390.216 111.914 389.804V383.503C111.914 383.292 112.003 383.091 112.16 382.949C112.317 382.808 112.526 382.739 112.736 382.761C124.498 383.956 151.197 384.233 183.837 368.705L183.837 368.705C195.035 363.382 204.51 358.574 212.834 354.35C217.145 352.163 221.147 350.132 224.921 348.267C235.96 342.811 245.026 338.783 253.996 336.508C254.22 336.452 254.456 336.501 254.638 336.643ZM184.478 370.053C152.27 385.375 125.755 385.466 113.407 384.325V389.057H253.433V338.197C244.924 340.47 236.222 344.346 225.582 349.605C221.834 351.457 217.843 353.482 213.539 355.666C205.203 359.896 195.69 364.724 184.478 370.053Z" fill="#2C2C2C"/>
<path d="M254.179 385.438H112.659V389.818H254.179V385.438Z" fill="white"/>
<path fill-rule="evenodd" clip-rule="evenodd" d="M111.914 385.44C111.914 385.028 112.248 384.693 112.66 384.693H254.18C254.592 384.693 254.926 385.028 254.926 385.44V389.82C254.926 390.232 254.592 390.566 254.18 390.566H112.66C112.248 390.566 111.914 390.232 111.914 389.82V385.44ZM113.407 386.186V389.073H253.433V386.186H113.407Z" fill="#2C2C2C"/>
</svg>
