<svg width="220" height="204" viewBox="0 0 220 204" fill="none" xmlns="http://www.w3.org/2000/svg">
<path d="M202.004 70.67C193.981 61.7955 180.537 60.8031 170.084 54.9853C152.092 44.9728 145.119 22.1736 128.75 9.68233C118.429 1.79589 104.451 -1.26077 91.9646 0.468249C74.2378 2.92063 57.5607 14.8032 52.5544 32.2257C51.1172 37.299 50.6033 42.5892 51.0371 47.8443C51.8355 58.2316 54.0717 68.7513 51.9634 78.9534C49.6389 90.1964 42.3259 99.684 37.9548 110.309C32.5119 123.542 31.7797 138.362 34.0866 152.468C35.6744 162.092 38.8414 171.809 45.4487 178.981C45.9515 179.523 46.4676 180.039 47.0013 180.546H119.161C123.687 174.773 127.101 167.941 131.101 161.876C141.123 146.623 157.169 135.746 174.693 130.643C182.544 128.358 191.048 127 197.355 121.795C203.848 116.445 206.83 107.906 208.118 99.5913C209.683 89.5083 208.85 78.2256 202.004 70.67Z" fill="#50BFD7"/>
<path opacity="0.7" d="M202.004 70.67C193.981 61.7955 180.537 60.8031 170.084 54.9853C152.092 44.9728 145.119 22.1736 128.75 9.68233C118.429 1.79589 104.451 -1.26077 91.9646 0.468249C74.2378 2.92063 57.5607 14.8032 52.5544 32.2257C51.1172 37.299 50.6033 42.5892 51.0371 47.8443C51.8355 58.2316 54.0717 68.7513 51.9634 78.9534C49.6389 90.1964 42.3259 99.684 37.9548 110.309C32.5119 123.542 31.7797 138.362 34.0866 152.468C35.6744 162.092 38.8414 171.809 45.4487 178.981C45.9515 179.523 46.4676 180.039 47.0013 180.546H119.161C123.687 174.773 127.101 167.941 131.101 161.876C141.123 146.623 157.169 135.746 174.693 130.643C182.544 128.358 191.048 127 197.355 121.795C203.848 116.445 206.83 107.906 208.118 99.5913C209.683 89.5083 208.85 78.2256 202.004 70.67Z" fill="white"/>
<path fill-rule="evenodd" clip-rule="evenodd" d="M184.48 156.487L184.462 156.706C184.48 156.487 184.48 156.487 184.48 156.487L184.48 156.487L184.482 156.487L184.486 156.487L184.502 156.488C184.515 156.49 184.535 156.491 184.56 156.494C184.61 156.499 184.684 156.508 184.777 156.52C184.963 156.544 185.229 156.585 185.547 156.649C186.184 156.777 187.039 156.999 187.905 157.379C189.632 158.138 191.453 159.548 191.599 162.119C191.604 162.21 191.553 162.294 191.471 162.332L191.379 162.132C191.471 162.332 191.471 162.332 191.47 162.332L191.47 162.332L191.469 162.333L191.464 162.335L191.448 162.342C191.434 162.348 191.414 162.357 191.388 162.368C191.336 162.389 191.261 162.42 191.166 162.455C190.975 162.525 190.704 162.615 190.378 162.696C189.729 162.856 188.85 162.983 187.956 162.83C187.057 162.676 186.143 162.239 185.446 161.277C184.754 160.32 184.291 158.867 184.242 156.711C184.241 156.649 184.266 156.589 184.311 156.546C184.356 156.503 184.418 156.482 184.48 156.487ZM191.147 161.99C190.953 159.757 189.352 158.496 187.728 157.783C186.899 157.42 186.077 157.205 185.461 157.081C185.153 157.019 184.897 156.981 184.72 156.957C184.71 156.956 184.7 156.955 184.691 156.953C184.768 158.913 185.207 160.194 185.804 161.018C186.422 161.872 187.225 162.258 188.03 162.396C188.842 162.534 189.655 162.42 190.272 162.268C190.58 162.191 190.835 162.107 191.013 162.041C191.065 162.022 191.11 162.005 191.147 161.99Z" fill="#263238"/>
<path fill-rule="evenodd" clip-rule="evenodd" d="M197.931 157.863C199.32 158.648 200.565 158.904 201.652 158.849C202.799 158.792 203.786 158.39 204.597 157.874C205.409 157.357 206.039 156.729 206.467 156.228C206.681 155.978 206.844 155.761 206.952 155.607C206.958 155.598 206.964 155.59 206.97 155.582C204.16 154.463 201.892 155.05 200.309 155.931C199.492 156.385 198.856 156.918 198.425 157.338C198.209 157.548 198.046 157.729 197.936 157.857C197.935 157.859 197.933 157.861 197.931 157.863ZM207.301 155.48L207.49 155.594C207.523 155.54 207.531 155.473 207.511 155.413C207.492 155.352 207.447 155.303 207.388 155.278C204.317 153.96 201.819 154.586 200.095 155.545C199.235 156.023 198.569 156.583 198.117 157.022C197.891 157.243 197.718 157.433 197.601 157.57C197.543 157.638 197.498 157.693 197.468 157.731C197.453 157.75 197.441 157.765 197.433 157.776L197.424 157.788L197.422 157.791L197.421 157.792L197.421 157.792C197.421 157.793 197.42 157.793 197.598 157.924L197.42 157.793C197.383 157.843 197.369 157.906 197.381 157.967C197.394 158.028 197.431 158.081 197.484 158.113C199.028 159.038 200.433 159.352 201.674 159.29C202.914 159.228 203.974 158.793 204.834 158.246C205.693 157.699 206.356 157.038 206.803 156.515C207.027 156.253 207.197 156.024 207.313 155.861C207.37 155.779 207.414 155.713 207.444 155.668C207.459 155.645 207.47 155.627 207.478 155.615L207.487 155.6L207.489 155.596L207.49 155.595L207.49 155.595C207.49 155.594 207.49 155.594 207.301 155.48Z" fill="#263238"/>
<path fill-rule="evenodd" clip-rule="evenodd" d="M199.374 148.938C201.413 149.515 202.862 149.392 203.893 148.91C204.962 148.41 205.621 147.506 206.023 146.5C206.426 145.492 206.566 144.396 206.603 143.546C206.621 143.122 206.614 142.762 206.602 142.509C206.599 142.432 206.595 142.365 206.591 142.31C204.333 142.356 202.531 143.981 201.264 145.678C200.616 146.546 200.12 147.418 199.785 148.074C199.618 148.401 199.491 148.674 199.406 148.865C199.395 148.891 199.384 148.915 199.374 148.938ZM206.794 142.089L207.013 142.065C207.001 141.955 206.909 141.871 206.799 141.869C204.223 141.816 202.235 143.64 200.91 145.415C200.244 146.308 199.735 147.202 199.392 147.873C199.221 148.209 199.091 148.489 199.003 148.686C198.96 148.785 198.927 148.862 198.904 148.916C198.893 148.942 198.885 148.963 198.879 148.977L198.872 148.993L198.871 148.998L198.87 148.999C198.87 148.999 198.87 148.999 199.075 149.08L198.87 148.999C198.848 149.057 198.85 149.121 198.877 149.176C198.904 149.232 198.952 149.273 199.011 149.291C201.239 149.966 202.879 149.871 204.08 149.31C205.281 148.748 206.003 147.738 206.433 146.664C206.861 145.592 207.005 144.441 207.043 143.565C207.062 143.126 207.055 142.752 207.043 142.488C207.037 142.356 207.03 142.251 207.024 142.179C207.021 142.143 207.018 142.115 207.016 142.096L207.014 142.073L207.014 142.067L207.013 142.066L207.013 142.065C207.013 142.065 207.013 142.065 206.794 142.089Z" fill="#263238"/>
<path fill-rule="evenodd" clip-rule="evenodd" d="M196.115 136.527L196.01 136.721C196.115 136.527 196.115 136.527 196.115 136.527L196.116 136.528L196.117 136.528L196.121 136.531L196.138 136.54C196.152 136.548 196.172 136.559 196.198 136.574C196.25 136.604 196.324 136.648 196.416 136.707C196.601 136.823 196.858 136.996 197.15 137.22C197.733 137.669 198.462 138.331 199.029 139.181C199.597 140.033 200.008 141.08 199.937 142.29C199.867 143.502 199.316 144.846 198.014 146.295C197.934 146.383 197.8 146.392 197.708 146.317L197.85 146.147C197.708 146.317 197.709 146.317 197.708 146.317L197.707 146.315L197.704 146.313L197.692 146.303C197.682 146.294 197.668 146.282 197.649 146.265C197.612 146.233 197.559 146.185 197.494 146.122C197.362 145.997 197.179 145.813 196.969 145.575C196.551 145.101 196.023 144.41 195.593 143.546C194.729 141.811 194.254 139.375 195.818 136.613C195.877 136.508 196.009 136.47 196.115 136.527ZM197.831 145.834C198.976 144.508 199.436 143.31 199.497 142.265C199.56 141.175 199.192 140.221 198.662 139.426C198.131 138.63 197.442 138.001 196.881 137.57C196.602 137.355 196.356 137.19 196.181 137.08C196.15 137.06 196.121 137.042 196.094 137.026C194.75 139.55 195.193 141.754 195.988 143.349C196.397 144.17 196.899 144.829 197.3 145.283C197.5 145.51 197.675 145.685 197.798 145.803C197.81 145.814 197.821 145.824 197.831 145.834Z" fill="#263238"/>
<path fill-rule="evenodd" clip-rule="evenodd" d="M187.466 145.34L187.444 145.12C187.332 145.132 187.246 145.227 187.246 145.34C187.246 147.018 187.732 148.273 188.474 149.205C189.212 150.135 190.193 150.73 191.161 151.11C192.13 151.491 193.094 151.661 193.815 151.736C194.176 151.773 194.477 151.787 194.689 151.791C194.795 151.793 194.879 151.793 194.937 151.792C194.966 151.791 194.989 151.79 195.005 151.79C195.013 151.789 195.021 151.789 195.027 151.789C195.03 151.788 195.035 151.788 195.04 151.787C195.042 151.787 195.049 151.786 195.058 151.785C195.063 151.784 195.078 151.78 195.088 151.777C195.113 151.767 195.211 151.674 195.238 151.568C195.238 149.779 194.754 148.467 194.012 147.512C193.272 146.559 192.288 145.978 191.317 145.627C190.346 145.275 189.379 145.149 188.658 145.11C188.297 145.091 187.995 145.093 187.783 145.101C187.677 145.104 187.594 145.109 187.536 145.113C187.507 145.115 187.485 145.117 187.469 145.118L187.451 145.12L187.447 145.12L187.445 145.12L187.445 145.12C187.444 145.12 187.444 145.12 187.466 145.34ZM187.798 145.541C187.759 145.543 187.722 145.544 187.69 145.546C187.727 147.027 188.174 148.12 188.819 148.931C189.496 149.783 190.403 150.338 191.323 150.7C192.242 151.061 193.165 151.225 193.861 151.297C194.208 151.333 194.496 151.346 194.697 151.35C194.733 151.351 194.765 151.351 194.795 151.351C194.757 149.76 194.309 148.613 193.664 147.783C192.988 146.913 192.083 146.373 191.167 146.041C190.25 145.709 189.329 145.588 188.634 145.551C188.288 145.532 187.999 145.534 187.798 145.541Z" fill="#263238"/>
<path fill-rule="evenodd" clip-rule="evenodd" d="M197.063 139.396C197.176 139.352 197.304 139.407 197.349 139.521C199.099 143.976 197.958 150.246 194.65 157.613C193.238 160.757 193.236 163.731 193.346 166.064C193.351 166.186 193.257 166.289 193.136 166.295C193.014 166.301 192.911 166.207 192.905 166.085C192.794 163.734 192.792 160.674 194.247 157.432L194.247 157.432C197.547 150.085 198.619 143.96 196.938 139.682C196.894 139.569 196.95 139.441 197.063 139.396Z" fill="#263238"/>
<path fill-rule="evenodd" clip-rule="evenodd" d="M189.74 147.137C189.785 147.024 189.914 146.969 190.027 147.014L189.945 147.219C190.027 147.014 190.027 147.014 190.027 147.014L190.027 147.014L190.028 147.015L190.031 147.016L190.042 147.02C190.052 147.024 190.065 147.03 190.083 147.037C190.118 147.053 190.17 147.075 190.235 147.105C190.365 147.165 190.552 147.256 190.781 147.379C191.238 147.625 191.863 148.002 192.536 148.528C193.882 149.577 195.432 151.226 196.219 153.612C196.258 153.727 196.195 153.852 196.079 153.89C195.963 153.928 195.839 153.865 195.801 153.75C195.049 151.473 193.566 149.891 192.265 148.875C191.614 148.368 191.011 148.004 190.572 147.767C190.352 147.649 190.173 147.562 190.05 147.506C189.989 147.477 189.942 147.457 189.91 147.443C189.894 147.436 189.882 147.431 189.874 147.428L189.866 147.425L189.864 147.424L189.864 147.424L189.864 147.424C189.751 147.379 189.695 147.251 189.74 147.137Z" fill="#263238"/>
<path fill-rule="evenodd" clip-rule="evenodd" d="M204.534 145.771C204.632 145.843 204.654 145.981 204.582 146.079L204.404 145.949C204.582 146.079 204.581 146.079 204.581 146.079L204.581 146.08L204.581 146.08L204.579 146.083L204.572 146.092C204.566 146.099 204.558 146.11 204.547 146.124C204.526 146.152 204.494 146.192 204.452 146.242C204.369 146.342 204.246 146.484 204.085 146.652C203.762 146.988 203.286 147.432 202.667 147.863C201.429 148.726 199.614 149.546 197.328 149.348C197.206 149.338 197.116 149.231 197.127 149.11C197.137 148.988 197.244 148.899 197.366 148.909C199.52 149.095 201.234 148.325 202.415 147.502C203.005 147.09 203.46 146.667 203.766 146.347C203.92 146.187 204.036 146.053 204.113 145.96C204.152 145.914 204.18 145.877 204.199 145.853C204.209 145.841 204.216 145.832 204.22 145.826L204.225 145.819L204.226 145.818L204.226 145.818C204.226 145.818 204.226 145.818 204.226 145.818M204.534 145.771C204.436 145.699 204.298 145.72 204.226 145.818L204.534 145.771Z" fill="#263238"/>
<path fill-rule="evenodd" clip-rule="evenodd" d="M204.615 156.442C204.649 156.559 204.582 156.682 204.465 156.715L204.404 156.504L204.342 156.292C204.459 156.258 204.582 156.325 204.615 156.442ZM204.342 156.292C204.342 156.292 204.342 156.292 204.404 156.504C204.465 156.715 204.465 156.715 204.465 156.715L204.459 156.717L204.443 156.722L204.381 156.739C204.327 156.754 204.247 156.777 204.145 156.805C203.94 156.861 203.645 156.94 203.282 157.033C202.555 157.219 201.556 157.46 200.466 157.68C199.376 157.899 198.193 158.098 197.098 158.199C196.008 158.299 194.986 158.305 194.23 158.125C194.111 158.097 194.038 157.978 194.066 157.86C194.094 157.741 194.213 157.668 194.332 157.696C195.016 157.858 195.979 157.859 197.057 157.76C198.131 157.661 199.298 157.465 200.379 157.247C201.459 157.03 202.451 156.791 203.172 156.606C203.533 156.514 203.826 156.435 204.028 156.379C204.13 156.352 204.208 156.33 204.262 156.315L204.322 156.297L204.337 156.293L204.342 156.292Z" fill="#263238"/>
<path fill-rule="evenodd" clip-rule="evenodd" d="M186.48 158.749C186.57 158.667 186.709 158.673 186.791 158.763L186.791 158.764L186.793 158.765L186.799 158.772C186.805 158.779 186.814 158.788 186.826 158.801C186.849 158.826 186.885 158.863 186.931 158.91C187.024 159.006 187.161 159.142 187.336 159.306C187.685 159.633 188.185 160.07 188.784 160.504C189.99 161.378 191.565 162.217 193.121 162.189C193.243 162.187 193.344 162.284 193.346 162.406C193.348 162.528 193.251 162.628 193.129 162.63C191.425 162.66 189.752 161.75 188.525 160.861C187.907 160.413 187.393 159.964 187.034 159.627C186.854 159.459 186.713 159.318 186.616 159.219C186.567 159.169 186.53 159.13 186.505 159.103C186.492 159.09 186.482 159.079 186.476 159.072L186.468 159.064L186.466 159.061L186.465 159.061C186.465 159.061 186.465 159.06 186.628 158.912L186.465 159.061C186.383 158.971 186.39 158.831 186.48 158.749Z" fill="#263238"/>
<path fill-rule="evenodd" clip-rule="evenodd" d="M185.566 166.031C185.679 165.918 185.833 165.854 185.993 165.854H201.735C201.742 165.854 201.749 165.855 201.755 165.855C201.906 165.869 202.046 165.939 202.147 166.051C202.249 166.163 202.305 166.308 202.304 166.459V166.459H202.084L202.304 166.46M201.456 168.258L201.478 168.063L201.259 168.038V168.258H201.456ZM185.993 166.296C185.95 166.296 185.908 166.313 185.878 166.343C185.847 166.374 185.83 166.415 185.83 166.459V167.654C185.83 167.697 185.847 167.739 185.878 167.769C185.908 167.8 185.95 167.817 185.993 167.817H186.434C186.546 167.817 186.641 167.901 186.653 168.013L188.034 180.057H199.66L201.04 168.013C201.053 167.901 201.147 167.817 201.259 167.817H201.7C201.743 167.817 201.785 167.8 201.815 167.769C201.846 167.739 201.863 167.697 201.863 167.654V166.459L201.863 166.458C201.863 166.417 201.848 166.378 201.821 166.347C201.795 166.319 201.76 166.301 201.723 166.296H185.993ZM185.566 166.031C185.453 166.145 185.389 166.298 185.389 166.459L185.566 166.031ZM185.389 166.459V167.654V166.459ZM185.389 167.654C185.389 167.814 185.453 167.968 185.566 168.081L185.389 167.654ZM185.566 168.081C185.679 168.195 185.833 168.258 185.993 168.258L185.566 168.081ZM185.993 168.258H186.238H185.993Z" fill="#263238"/>
<path fill-rule="evenodd" clip-rule="evenodd" d="M187.246 168.038C187.246 167.916 187.345 167.817 187.466 167.817H196.619C196.741 167.817 196.839 167.916 196.839 168.038C196.839 168.159 196.741 168.258 196.619 168.258H187.466C187.345 168.258 187.246 168.159 187.246 168.038Z" fill="#263238"/>
<path fill-rule="evenodd" clip-rule="evenodd" d="M198.127 168.038C198.127 167.916 198.226 167.817 198.347 167.817H199.724C199.845 167.817 199.944 167.916 199.944 168.038C199.944 168.159 199.845 168.258 199.724 168.258H198.347C198.226 168.258 198.127 168.159 198.127 168.038Z" fill="#263238"/>
<path fill-rule="evenodd" clip-rule="evenodd" d="M26.5266 180.529C26.5266 180.407 26.6253 180.308 26.7471 180.308H211.779C211.9 180.308 211.999 180.407 211.999 180.529C211.999 180.651 211.9 180.749 211.779 180.749H26.7471C26.6253 180.749 26.5266 180.651 26.5266 180.529Z" fill="#263238"/>
<path d="M133.426 20.3211V142.905C133.426 143.187 133.226 143.457 132.871 143.657C132.515 143.856 132.033 143.968 131.531 143.968H2.11497C1.61251 143.968 1.13064 143.856 0.775346 143.657C0.420057 143.457 0.220459 143.187 0.220459 142.905V20.3211C0.220459 20.0392 0.420057 19.7688 0.775346 19.5694C1.13064 19.3701 1.61251 19.2581 2.11497 19.2581H43.0316C43.5632 19.2581 44.0731 19.3766 44.449 19.5875C44.825 19.7984 45.0362 20.0845 45.0362 20.3828V22.9587C45.0362 23.257 45.2474 23.5431 45.6233 23.754C45.9992 23.965 46.5091 24.0835 47.0407 24.0835H86.6131C87.1448 24.0835 87.6546 23.965 88.0305 23.754C88.4065 23.5431 88.6177 23.257 88.6177 22.9587V20.3828C88.6177 20.0845 88.8289 19.7984 89.2048 19.5875C89.5807 19.3766 90.0906 19.2581 90.6222 19.2581H131.5C131.751 19.2557 132.001 19.2815 132.234 19.3339C132.468 19.3862 132.68 19.4642 132.86 19.5631C133.039 19.6621 133.181 19.78 133.278 19.9102C133.376 20.0403 133.426 20.18 133.426 20.3211Z" fill="white"/>
<path fill-rule="evenodd" clip-rule="evenodd" d="M132.186 19.5496C131.97 19.5012 131.737 19.477 131.502 19.4792L131.5 19.4792H90.6223C90.1197 19.4792 89.6489 19.5918 89.3128 19.7804C88.9721 19.9716 88.8383 20.1977 88.8383 20.3834V22.9593C88.8383 23.3702 88.5497 23.7162 88.1385 23.9469C87.7228 24.1802 87.1739 24.3046 86.6132 24.3046H47.0408C46.4801 24.3046 45.9312 24.1802 45.5154 23.9469C45.1043 23.7162 44.8157 23.3702 44.8157 22.9593V20.3834C44.8157 20.1977 44.6819 19.9716 44.3412 19.7804C44.0051 19.5918 43.5343 19.4792 43.0317 19.4792H2.11504C1.64165 19.4792 1.19881 19.5853 0.883341 19.7623C0.563257 19.9419 0.441076 20.1523 0.441076 20.3216V142.906C0.441076 143.075 0.563257 143.285 0.883341 143.465C1.19881 143.642 1.64165 143.748 2.11504 143.748H131.531C132.004 143.748 132.447 143.642 132.763 143.465C133.083 143.285 133.205 143.075 133.205 142.906V20.3216C133.205 20.2351 133.175 20.1407 133.102 20.0427C133.028 19.9433 132.912 19.8444 132.753 19.7568C132.595 19.6695 132.402 19.5982 132.186 19.5496ZM131.499 19.0381C131.766 19.0357 132.032 19.0631 132.283 19.1193C132.533 19.1754 132.766 19.26 132.966 19.3706C133.166 19.4809 133.335 19.6179 133.455 19.7788C133.576 19.941 133.646 20.126 133.646 20.3217V142.906C133.646 143.3 133.369 143.63 132.979 143.85C132.584 144.071 132.063 144.189 131.531 144.189H2.11504C1.58353 144.189 1.06262 144.071 0.66751 143.85C0.277017 143.63 0 143.3 0 142.906V20.3216C0 19.9271 0.277017 19.5968 0.66751 19.3777C1.06262 19.156 1.58353 19.0381 2.11504 19.0381H43.0317C43.5924 19.0381 44.1413 19.1625 44.557 19.3957C44.9682 19.6264 45.2568 19.9725 45.2568 20.3834V22.9593C45.2568 23.145 45.3906 23.3711 45.7313 23.5623C46.0674 23.7509 46.5382 23.8635 47.0408 23.8635H86.6132C87.1158 23.8635 87.5866 23.7509 87.9227 23.5623C88.2634 23.3711 88.3972 23.145 88.3972 22.9593V20.3834C88.3972 19.9725 88.6858 19.6264 89.097 19.3957C89.5127 19.1625 90.0616 19.0381 90.6223 19.0381H131.499Z" fill="#263238"/>
<path d="M133.426 31.3524H0.220459V42.6131H133.426V31.3524Z" fill="#BFBFBF"/>
<path fill-rule="evenodd" clip-rule="evenodd" d="M0 31.3524C0 31.2306 0.0987383 31.1318 0.220538 31.1318H133.426C133.547 31.1318 133.646 31.2306 133.646 31.3524V42.6131C133.646 42.7349 133.547 42.8336 133.426 42.8336H0.220538C0.0987383 42.8336 0 42.7349 0 42.6131V31.3524ZM0.441076 31.5729V42.3925H133.205V31.5729H0.441076Z" fill="#263238"/>
<path fill-rule="evenodd" clip-rule="evenodd" d="M118.214 35.5955C118.214 35.4737 118.313 35.375 118.434 35.375H123.458C123.579 35.375 123.678 35.4737 123.678 35.5955C123.678 35.7173 123.579 35.8161 123.458 35.8161H118.434C118.313 35.8161 118.214 35.7173 118.214 35.5955Z" fill="#263238"/>
<path fill-rule="evenodd" clip-rule="evenodd" d="M118.214 36.8967C118.214 36.7749 118.313 36.6761 118.434 36.6761H123.458C123.579 36.6761 123.678 36.7749 123.678 36.8967C123.678 37.0185 123.579 37.1172 123.458 37.1172H118.434C118.313 37.1172 118.214 37.0185 118.214 36.8967Z" fill="#263238"/>
<path fill-rule="evenodd" clip-rule="evenodd" d="M118.214 38.1936C118.214 38.0718 118.313 37.973 118.434 37.973H123.458C123.579 37.973 123.678 38.0718 123.678 38.1936C123.678 38.3154 123.579 38.4141 123.458 38.4141H118.434C118.313 38.4141 118.214 38.3154 118.214 38.1936Z" fill="#263238"/>
<path fill-rule="evenodd" clip-rule="evenodd" d="M9.71606 36.8967C9.71606 36.7749 9.8148 36.6761 9.9366 36.6761H14.1816C14.3034 36.6761 14.4021 36.7749 14.4021 36.8967C14.4021 37.0185 14.3034 37.1172 14.1816 37.1172H9.9366C9.8148 37.1172 9.71606 37.0185 9.71606 36.8967Z" fill="#263238"/>
<path fill-rule="evenodd" clip-rule="evenodd" d="M12.0786 35.3422C12.1382 35.4484 12.1004 35.5828 11.9942 35.6424L9.76645 36.8924L11.9942 38.1424C12.1004 38.202 12.1382 38.3364 12.0786 38.4426C12.019 38.5489 11.8846 38.5866 11.7784 38.527L9.20784 37.0847C9.13828 37.0457 9.09521 36.9722 9.09521 36.8924C9.09521 36.8126 9.13828 36.7391 9.20784 36.7001L11.7784 35.2577C11.8846 35.1981 12.019 35.2359 12.0786 35.3422Z" fill="#263238"/>
<path fill-rule="evenodd" clip-rule="evenodd" d="M104.481 35.5955C104.481 35.4737 104.58 35.375 104.701 35.375H111.03C111.151 35.375 111.25 35.4737 111.25 35.5955V38.1891C111.25 38.3109 111.151 38.4096 111.03 38.4096H104.701C104.58 38.4096 104.481 38.3109 104.481 38.1891V35.5955ZM104.922 35.8161V37.9685H110.809V35.8161H104.922Z" fill="#263238"/>
<path fill-rule="evenodd" clip-rule="evenodd" d="M111.234 35.5119C111.28 35.6247 111.226 35.7534 111.113 35.7996L107.945 37.0963C107.892 37.1183 107.832 37.1183 107.778 37.0963L104.618 35.7995C104.505 35.7533 104.451 35.6244 104.498 35.5118C104.544 35.3991 104.673 35.3452 104.785 35.3914L107.862 36.6539L110.946 35.3914C111.059 35.3452 111.188 35.3992 111.234 35.5119Z" fill="#263238"/>
<path fill-rule="evenodd" clip-rule="evenodd" d="M91.5297 35.4543C91.5716 35.4041 91.6336 35.375 91.6991 35.375H97.0917C97.1571 35.375 97.2192 35.4041 97.2611 35.4543C97.303 35.5046 97.3204 35.5708 97.3087 35.6352L96.7427 38.7316C96.7235 38.8363 96.6322 38.9124 96.5257 38.9124H92.2651C92.1585 38.9124 92.0673 38.8363 92.0481 38.7316L91.4821 35.6352C91.4703 35.5708 91.4878 35.5046 91.5297 35.4543ZM91.9636 35.8161L92.4489 38.4714H96.3418L96.8272 35.8161H91.9636Z" fill="#263238"/>
<path fill-rule="evenodd" clip-rule="evenodd" d="M93.1143 35.0972C93.1143 34.9754 93.213 34.8767 93.3348 34.8767H95.4651C95.5869 34.8767 95.6857 34.9754 95.6857 35.0972V35.5957C95.6857 35.7175 95.5869 35.8162 95.4651 35.8162C95.3433 35.8162 95.2446 35.7175 95.2446 35.5957V35.3178H93.5553V35.5957C93.5553 35.7175 93.4566 35.8162 93.3348 35.8162C93.213 35.8162 93.1143 35.7175 93.1143 35.5957V35.0972Z" fill="#263238"/>
<path d="M133.425 135.023V142.905C133.427 143.044 133.378 143.182 133.284 143.311C133.19 143.44 133.051 143.558 132.876 143.656C132.7 143.755 132.492 143.834 132.263 143.887C132.033 143.94 131.787 143.968 131.539 143.968H2.11497C1.61251 143.968 1.13064 143.856 0.775346 143.657C0.420057 143.457 0.220459 143.187 0.220459 142.905V135.023H133.425Z" fill="#50BFD7"/>
<path fill-rule="evenodd" clip-rule="evenodd" d="M0 135.023C0 134.901 0.0987383 134.802 0.220538 134.802H133.426C133.547 134.802 133.646 134.901 133.646 135.023V142.903C133.648 143.097 133.58 143.28 133.462 143.442C133.345 143.601 133.18 143.738 132.984 143.848C132.788 143.959 132.559 144.044 132.313 144.102C132.066 144.159 131.803 144.188 131.539 144.188H2.11504C1.58353 144.188 1.06262 144.07 0.66751 143.849C0.277016 143.63 0 143.299 0 142.905V135.023ZM0.441076 135.243V142.905C0.441076 143.074 0.563257 143.285 0.883341 143.464C1.19881 143.641 1.64165 143.747 2.11504 143.747H131.539C131.771 143.747 132.001 143.721 132.213 143.672C132.425 143.623 132.613 143.551 132.768 143.464C132.922 143.377 133.035 143.279 133.106 143.181C133.177 143.085 133.206 142.992 133.205 142.906L133.205 142.905V135.243H0.441076Z" fill="#263238"/>
<path d="M133.426 122.408H0.220459V135.023H133.426V122.408Z" fill="#BFBFBF"/>
<path fill-rule="evenodd" clip-rule="evenodd" d="M0 122.408C0 122.286 0.0987383 122.188 0.220538 122.188H133.426C133.547 122.188 133.646 122.286 133.646 122.408V135.023C133.646 135.145 133.547 135.243 133.426 135.243H0.220538C0.0987383 135.243 0 135.145 0 135.023V122.408ZM0.441076 122.629V134.802H133.205V122.629H0.441076Z" fill="#263238"/>
<path fill-rule="evenodd" clip-rule="evenodd" d="M11.1232 126.138C10.7711 126.376 10.5859 126.682 10.5859 126.991V130.37C10.5859 130.679 10.7711 130.984 11.1232 131.222C11.474 131.46 11.9712 131.614 12.5312 131.614H24.3129C24.8729 131.614 25.37 131.46 25.7208 131.222C26.073 130.984 26.2582 130.679 26.2582 130.37V126.991C26.2582 126.682 26.073 126.376 25.7208 126.138C25.37 125.901 24.8729 125.747 24.3129 125.747H12.5312C11.9712 125.747 11.474 125.901 11.1232 126.138ZM10.8762 125.773C11.3092 125.48 11.895 125.306 12.5312 125.306H24.3129C24.9491 125.306 25.5349 125.48 25.9679 125.773C26.3997 126.065 26.6993 126.491 26.6993 126.991V130.37C26.6993 130.869 26.3997 131.296 25.9679 131.588C25.5349 131.881 24.9491 132.055 24.3129 132.055H12.5312C11.895 132.055 11.3092 131.881 10.8762 131.588C10.4444 131.296 10.1448 130.869 10.1448 130.37V126.991C10.1448 126.491 10.4444 126.065 10.8762 125.773Z" fill="#263238"/>
<path fill-rule="evenodd" clip-rule="evenodd" d="M16.251 128.407C16.251 128.285 16.3497 128.186 16.4715 128.186H19.1984C19.4344 128.186 19.6691 128.218 19.8895 128.279C20.1097 128.341 20.3139 128.433 20.489 128.551C20.6641 128.669 20.8094 128.814 20.9113 128.98C21.0137 129.148 21.0694 129.332 21.0694 129.523V129.964C21.0694 130.086 20.9707 130.184 20.8489 130.184C20.7271 130.184 20.6284 130.086 20.6284 129.964V129.523C20.6284 129.42 20.5987 129.315 20.5352 129.211C20.4712 129.106 20.3734 129.005 20.2419 128.916C20.1106 128.828 19.9508 128.755 19.7705 128.704C19.5905 128.654 19.3959 128.627 19.1984 128.627H16.4715C16.3497 128.627 16.251 128.529 16.251 128.407Z" fill="#263238"/>
<path fill-rule="evenodd" clip-rule="evenodd" d="M17.8032 127.294C17.8628 127.4 17.825 127.534 17.7188 127.594L16.285 128.398L17.7188 129.203C17.825 129.262 17.8628 129.397 17.8032 129.503C17.7436 129.609 17.6092 129.647 17.503 129.587L15.7264 128.591C15.6568 128.552 15.6138 128.478 15.6138 128.398C15.6138 128.319 15.6568 128.245 15.7264 128.206L17.503 127.209C17.6092 127.15 17.7436 127.187 17.8032 127.294Z" fill="#263238"/>
<path fill-rule="evenodd" clip-rule="evenodd" d="M60.0827 126.138C59.7306 126.376 59.5453 126.682 59.5453 126.991V130.37C59.5453 130.679 59.7306 130.984 60.0827 131.222C60.4335 131.46 60.9307 131.614 61.4906 131.614H73.2724C73.8323 131.614 74.3295 131.46 74.6803 131.222C75.0324 130.984 75.2177 130.679 75.2177 130.37V126.991C75.2177 126.682 75.0324 126.376 74.6803 126.138C74.3295 125.901 73.8323 125.747 73.2724 125.747H61.4906C60.9307 125.747 60.4335 125.901 60.0827 126.138ZM59.8356 125.773C60.2687 125.48 60.8545 125.306 61.4906 125.306H73.2724C73.9085 125.306 74.4943 125.48 74.9274 125.773C75.3591 126.065 75.6587 126.491 75.6587 126.991V130.37C75.6587 130.869 75.3591 131.296 74.9274 131.588C74.4943 131.881 73.9085 132.055 73.2724 132.055H61.4906C60.8545 132.055 60.2687 131.881 59.8356 131.588C59.4039 131.296 59.1042 130.869 59.1042 130.37V126.991C59.1042 126.491 59.4039 126.065 59.8356 125.773Z" fill="#263238"/>
<path fill-rule="evenodd" clip-rule="evenodd" d="M65.9932 128.407C65.9932 128.285 66.0919 128.186 66.2137 128.186H68.9406C69.4146 128.186 69.8793 128.313 70.2312 128.551C70.5834 128.789 70.8116 129.134 70.8116 129.523V129.964C70.8116 130.086 70.7129 130.184 70.5911 130.184C70.4693 130.184 70.3705 130.086 70.3705 129.964V129.523C70.3705 129.319 70.2509 129.097 69.9841 128.916C69.717 128.736 69.342 128.627 68.9406 128.627H66.2137C66.0919 128.627 65.9932 128.529 65.9932 128.407Z" fill="#263238"/>
<path fill-rule="evenodd" clip-rule="evenodd" d="M67.3813 127.278C67.4495 127.379 67.423 127.516 67.3221 127.584L66.1179 128.398L67.3221 129.212C67.423 129.281 67.4495 129.418 67.3813 129.519C67.313 129.62 67.1759 129.646 67.075 129.578L65.6007 128.581C65.54 128.54 65.5037 128.472 65.5037 128.398C65.5037 128.325 65.54 128.257 65.6007 128.216L67.075 127.219C67.1759 127.151 67.313 127.177 67.3813 127.278Z" fill="#263238"/>
<path fill-rule="evenodd" clip-rule="evenodd" d="M65.8553 127.278C65.9233 127.379 65.8966 127.516 65.7955 127.584L64.5864 128.398L65.7955 129.212C65.8965 129.28 65.9233 129.417 65.8553 129.518C65.7873 129.619 65.6502 129.646 65.5492 129.578L64.0683 128.581C64.0075 128.54 63.9709 128.472 63.9709 128.398C63.9709 128.325 64.0075 128.256 64.0683 128.215L65.5492 127.219C65.6502 127.151 65.7873 127.177 65.8553 127.278Z" fill="#263238"/>
<path fill-rule="evenodd" clip-rule="evenodd" d="M123.199 131.227C123.551 130.989 123.736 130.683 123.736 130.374V126.995C123.736 126.686 123.551 126.381 123.199 126.143C122.848 125.905 122.351 125.751 121.791 125.751H110.009C109.449 125.751 108.952 125.905 108.601 126.143C108.249 126.381 108.064 126.686 108.064 126.995V130.374C108.064 130.683 108.249 130.989 108.601 131.227C108.952 131.464 109.449 131.618 110.009 131.618H121.791C122.351 131.618 122.848 131.464 123.199 131.227ZM123.446 131.592C123.013 131.885 122.427 132.059 121.791 132.059H110.009C109.373 132.059 108.787 131.885 108.354 131.592C107.922 131.3 107.623 130.874 107.623 130.374V126.995C107.623 126.496 107.922 126.069 108.354 125.777C108.787 125.484 109.373 125.31 110.009 125.31H121.791C122.427 125.31 123.013 125.484 123.446 125.777C123.878 126.069 124.177 126.496 124.177 126.995V130.374C124.177 130.874 123.878 131.3 123.446 131.592Z" fill="#263238"/>
<path fill-rule="evenodd" clip-rule="evenodd" d="M115.124 128.627C114.723 128.627 114.348 128.736 114.08 128.916C113.814 129.097 113.694 129.319 113.694 129.523V129.964C113.694 130.086 113.595 130.184 113.473 130.184C113.352 130.184 113.253 130.086 113.253 129.964V129.523C113.253 129.134 113.481 128.789 113.833 128.551C114.185 128.313 114.65 128.186 115.124 128.186H117.851C117.973 128.186 118.071 128.285 118.071 128.407C118.071 128.529 117.973 128.627 117.851 128.627H115.124Z" fill="#263238"/>
<path fill-rule="evenodd" clip-rule="evenodd" d="M116.663 127.278C116.731 127.177 116.868 127.15 116.969 127.219L118.444 128.215C118.504 128.256 118.541 128.325 118.541 128.398C118.541 128.471 118.504 128.54 118.444 128.581L116.969 129.578C116.868 129.646 116.731 129.619 116.663 129.518C116.595 129.418 116.621 129.28 116.722 129.212L117.926 128.398L116.722 127.584C116.621 127.516 116.595 127.379 116.663 127.278Z" fill="#263238"/>
<path d="M133.425 20.3167V31.3436H0.220459V20.3167C0.220459 20.0347 0.420057 19.7644 0.775346 19.565C1.13064 19.3657 1.61251 19.2537 2.11497 19.2537H43.0316C43.5632 19.2537 44.0731 19.3722 44.449 19.5831C44.825 19.794 45.0362 20.0801 45.0362 20.3784V22.9543C45.0362 23.2526 45.2473 23.5387 45.6233 23.7496C45.9992 23.9605 46.5091 24.079 47.0407 24.079H86.6131C87.1447 24.079 87.6546 23.9605 88.0305 23.7496C88.4065 23.5387 88.6177 23.2526 88.6177 22.9543V20.3828C88.6177 20.0845 88.8289 19.7984 89.2048 19.5875C89.5807 19.3766 90.0906 19.2581 90.6222 19.2581H131.5C131.751 19.2545 132.001 19.2793 132.235 19.331C132.469 19.3827 132.682 19.4601 132.861 19.5589C133.041 19.6576 133.184 19.7755 133.28 19.9057C133.377 20.0358 133.427 20.1756 133.425 20.3167Z" fill="#50BFD7"/>
<path fill-rule="evenodd" clip-rule="evenodd" d="M2.11504 19.4743C1.64166 19.4743 1.19881 19.5804 0.883341 19.7574C0.563255 19.937 0.441076 20.1474 0.441076 20.3167V31.1231H133.205V20.3167L133.205 20.315C133.206 20.229 133.176 20.1351 133.104 20.0374C133.03 19.9384 132.914 19.8396 132.755 19.7522C132.597 19.6651 132.404 19.5943 132.187 19.5464C131.971 19.4986 131.738 19.4754 131.503 19.4787L131.5 19.4787H90.6223C90.1197 19.4787 89.6489 19.5913 89.3128 19.7799C88.972 19.9711 88.8383 20.1972 88.8383 20.3829V22.9544C88.8383 23.3653 88.5497 23.7113 88.1385 23.942C87.7228 24.1753 87.1739 24.2997 86.6132 24.2997H47.0408C46.4801 24.2997 45.9312 24.1753 45.5154 23.942C45.1043 23.7113 44.8157 23.3653 44.8157 22.9544V20.3785C44.8157 20.1928 44.6819 19.9667 44.3412 19.7755C44.0051 19.5869 43.5342 19.4743 43.0317 19.4743H2.11504ZM0.66751 19.3728C1.06262 19.1511 1.58352 19.0332 2.11504 19.0332H43.0317C43.5924 19.0332 44.1413 19.1576 44.557 19.3908C44.9682 19.6215 45.2568 19.9676 45.2568 20.3785V22.9544C45.2568 23.1401 45.3905 23.3662 45.7313 23.5574C46.0674 23.7459 46.5382 23.8586 47.0408 23.8586H86.6132C87.1158 23.8586 87.5866 23.7459 87.9227 23.5574C88.2634 23.3662 88.3972 23.1401 88.3972 22.9544V20.3829C88.3972 19.972 88.6858 19.6259 89.0969 19.3953C89.5127 19.162 90.0616 19.0376 90.6223 19.0376H131.498C131.765 19.034 132.032 19.0603 132.282 19.1157C132.534 19.1712 132.767 19.2553 132.968 19.3657C133.168 19.4757 133.337 19.6128 133.457 19.7741C133.578 19.9367 133.648 20.1224 133.646 20.3185V31.3436C133.646 31.4654 133.547 31.5642 133.426 31.5642H0.220538C0.0987383 31.5642 0 31.4654 0 31.3436V20.3167C0 19.9222 0.277018 19.5919 0.66751 19.3728Z" fill="#263238"/>
<path d="M67.4361 68.813H8.83465C8.34056 68.813 7.85132 68.7157 7.39485 68.5266C6.93838 68.3375 6.52361 68.0604 6.17424 67.711C5.82487 67.3616 5.54774 66.9469 5.35866 66.4904C5.16958 66.0339 5.07227 65.5447 5.07227 65.0506V44.8361L9.52272 49.5468H67.4361C67.9301 49.5468 68.4194 49.6441 68.8759 49.8332C69.3323 50.0222 69.7471 50.2994 70.0965 50.6487C70.4458 50.9981 70.723 51.4129 70.912 51.8693C71.1011 52.3258 71.1984 52.8151 71.1984 53.3091V65.0506C71.1984 65.5447 71.1011 66.0339 70.912 66.4904C70.723 66.9469 70.4458 67.3616 70.0965 67.711C69.7471 68.0604 69.3323 68.3375 68.8759 68.5266C68.4194 68.7157 67.9301 68.813 67.4361 68.813Z" fill="#50BFD7"/>
<path d="M20.2011 59.18C20.2011 58.1332 19.8906 57.1098 19.3091 56.2394C18.7275 55.369 17.9008 54.6906 16.9337 54.29C15.9665 53.8894 14.9023 53.7846 13.8756 53.9888C12.8488 54.193 11.9057 54.6971 11.1655 55.4373C10.4253 56.1776 9.92117 57.1207 9.71694 58.1474C9.51271 59.1741 9.61753 60.2384 10.0181 61.2055C10.4187 62.1727 11.0972 62.9993 11.9676 63.5809C12.838 64.1625 13.8613 64.4729 14.9082 64.4729C16.3119 64.4729 17.6582 63.9153 18.6508 62.9227C19.6434 61.93 20.2011 60.5838 20.2011 59.18Z" fill="white"/>
<path fill-rule="evenodd" clip-rule="evenodd" d="M22.4639 53.5915C22.4639 53.3479 22.6613 53.1504 22.9049 53.1504H33.8657C34.1093 53.1504 34.3068 53.3479 34.3068 53.5915C34.3068 53.8351 34.1093 54.0325 33.8657 54.0325H22.9049C22.6613 54.0325 22.4639 53.8351 22.4639 53.5915Z" fill="#263238"/>
<path fill-rule="evenodd" clip-rule="evenodd" d="M22.6846 57.4112C22.6846 57.2894 22.7833 57.1907 22.9051 57.1907H65.7116C65.8334 57.1907 65.9321 57.2894 65.9321 57.4112C65.9321 57.533 65.8334 57.6318 65.7116 57.6318H22.9051C22.7833 57.6318 22.6846 57.533 22.6846 57.4112Z" fill="#263238"/>
<path fill-rule="evenodd" clip-rule="evenodd" d="M22.6846 60.5649C22.6846 60.4431 22.7833 60.3444 22.9051 60.3444H65.7116C65.8334 60.3444 65.9321 60.4431 65.9321 60.5649C65.9321 60.6867 65.8334 60.7854 65.7116 60.7854H22.9051C22.7833 60.7854 22.6846 60.6867 22.6846 60.5649Z" fill="#263238"/>
<path fill-rule="evenodd" clip-rule="evenodd" d="M22.6846 64.0539C22.6846 63.9321 22.7833 63.8334 22.9051 63.8334H65.7116C65.8334 63.8334 65.9321 63.9321 65.9321 64.0539C65.9321 64.1757 65.8334 64.2745 65.7116 64.2745H22.9051C22.7833 64.2745 22.6846 64.1757 22.6846 64.0539Z" fill="#263238"/>
<path d="M67.436 96.614H8.83465C7.8368 96.614 6.87983 96.2177 6.17424 95.5121C5.46866 94.8065 5.07227 93.8495 5.07227 92.8517V72.6239L9.52272 77.339H67.436C68.4339 77.339 69.3909 77.7354 70.0965 78.441C70.802 79.1466 71.1984 80.1035 71.1984 81.1014V92.8428C71.1996 93.3377 71.1031 93.8279 70.9146 94.2854C70.726 94.7428 70.4491 95.1586 70.0996 95.5089C69.7501 95.8593 69.3349 96.1372 68.8779 96.3268C68.4208 96.5164 67.9309 96.6141 67.436 96.614Z" fill="#50BFD7"/>
<path d="M20.2011 86.981C20.2011 85.9342 19.8906 84.9109 19.3091 84.0404C18.7275 83.17 17.9008 82.4916 16.9337 82.091C15.9665 81.6904 14.9023 81.5856 13.8756 81.7898C12.8488 81.994 11.9057 82.4981 11.1655 83.2384C10.4253 83.9786 9.92117 84.9217 9.71694 85.9484C9.51271 86.9752 9.61753 88.0394 10.0181 89.0065C10.4187 89.9737 11.0972 90.8003 11.9676 91.3819C12.838 91.9635 13.8613 92.2739 14.9082 92.2739C16.3119 92.2739 17.6582 91.7163 18.6508 90.7237C19.6434 89.7311 20.2011 88.3848 20.2011 86.981Z" fill="white"/>
<path fill-rule="evenodd" clip-rule="evenodd" d="M22.4636 81.3925C22.4636 81.1489 22.6611 80.9514 22.9047 80.9514H33.8654C34.109 80.9514 34.3065 81.1489 34.3065 81.3925C34.3065 81.6361 34.109 81.8336 33.8654 81.8336H22.9047C22.6611 81.8336 22.4636 81.6361 22.4636 81.3925Z" fill="#263238"/>
<path fill-rule="evenodd" clip-rule="evenodd" d="M22.6843 85.2122C22.6843 85.0904 22.7831 84.9917 22.9049 84.9917H65.7113C65.8331 84.9917 65.9319 85.0904 65.9319 85.2122C65.9319 85.334 65.8331 85.4328 65.7113 85.4328H22.9049C22.7831 85.4328 22.6843 85.334 22.6843 85.2122Z" fill="#263238"/>
<path fill-rule="evenodd" clip-rule="evenodd" d="M22.6843 88.3659C22.6843 88.2441 22.7831 88.1454 22.9049 88.1454H65.7113C65.8331 88.1454 65.9319 88.2441 65.9319 88.3659C65.9319 88.4877 65.8331 88.5865 65.7113 88.5865H22.9049C22.7831 88.5865 22.6843 88.4877 22.6843 88.3659Z" fill="#263238"/>
<path fill-rule="evenodd" clip-rule="evenodd" d="M22.6843 91.8548C22.6843 91.733 22.7831 91.6343 22.9049 91.6343H65.7113C65.8331 91.6343 65.9319 91.733 65.9319 91.8548C65.9319 91.9766 65.8331 92.0754 65.7113 92.0754H22.9049C22.7831 92.0754 22.6843 91.9766 22.6843 91.8548Z" fill="#263238"/>
<path d="M65.7336 119.096H124.339C125.337 119.096 126.294 118.699 127 117.994C127.705 117.288 128.102 116.331 128.102 115.333V95.1188L123.651 99.8339H65.7336C64.7357 99.8339 63.7787 100.23 63.0732 100.936C62.3676 101.641 61.9712 102.598 61.9712 103.596V115.333C61.9712 115.827 62.0685 116.317 62.2576 116.773C62.4467 117.23 62.7238 117.644 63.0732 117.994C63.4225 118.343 63.8373 118.62 64.2938 118.809C64.7502 118.998 65.2395 119.096 65.7336 119.096Z" fill="#808080"/>
<path d="M75.5484 113.202C77.6137 111.137 77.6137 107.789 75.5484 105.723C73.4832 103.658 70.1347 103.658 68.0694 105.723C66.0041 107.789 66.0041 111.137 68.0694 113.202C70.1347 115.268 73.4831 115.268 75.5484 113.202Z" fill="white"/>
<path fill-rule="evenodd" clip-rule="evenodd" d="M79.3628 103.874C79.3628 103.63 79.5603 103.433 79.8039 103.433H100.018C100.262 103.433 100.459 103.63 100.459 103.874C100.459 104.118 100.262 104.315 100.018 104.315H79.8039C79.5603 104.315 79.3628 104.118 79.3628 103.874Z" fill="#263238"/>
<path fill-rule="evenodd" clip-rule="evenodd" d="M79.5833 107.694C79.5833 107.572 79.682 107.473 79.8038 107.473H122.61C122.732 107.473 122.831 107.572 122.831 107.694C122.831 107.815 122.732 107.914 122.61 107.914H79.8038C79.682 107.914 79.5833 107.815 79.5833 107.694Z" fill="#263238"/>
<path fill-rule="evenodd" clip-rule="evenodd" d="M79.5833 110.852C79.5833 110.73 79.682 110.631 79.8038 110.631H122.61C122.732 110.631 122.831 110.73 122.831 110.852C122.831 110.974 122.732 111.072 122.61 111.072H79.8038C79.682 111.072 79.5833 110.974 79.5833 110.852Z" fill="#263238"/>
<path fill-rule="evenodd" clip-rule="evenodd" d="M79.5833 114.341C79.5833 114.219 79.682 114.12 79.8038 114.12H122.61C122.732 114.12 122.831 114.219 122.831 114.341C122.831 114.462 122.732 114.561 122.61 114.561H79.8038C79.682 114.561 79.5833 114.462 79.5833 114.341Z" fill="#263238"/>
<path d="M124.599 68.6513C123.057 75.0105 126.526 98.1346 132.211 106.883C132.211 106.883 148.686 117.578 200.147 111.508C200.147 111.508 191.823 108.849 199.617 78.3538C199.781 77.6986 199.955 77.0435 200.138 76.3594C201.197 72.409 193.441 65.6356 192.044 63.2557C181.976 46.1727 124.599 68.6513 124.599 68.6513Z" fill="#2C2C2C"/>
<path d="M95.3563 159.23C95.3563 159.23 92.5236 158.614 91.4348 157.217C90.3364 155.82 89.6909 155.203 85.8561 153.536C82.0503 151.869 80.5376 149.711 80.5376 149.711C80.5376 149.711 77.8783 152.149 83.7171 154.943C87.2917 156.658 75.5466 156.407 72.0106 156.012C72.0106 156.012 69.9679 157.13 73.3498 158.768C76.7317 160.406 73.4751 160.531 80.1714 163.354C86.8582 166.187 94.8071 167.671 96.4258 163.634C98.0348 159.596 95.3563 159.23 95.3563 159.23Z" fill="#E0E0E0"/>
<path fill-rule="evenodd" clip-rule="evenodd" d="M80.5376 149.711L80.2772 149.427L80.601 149.13L80.8528 149.489L80.8529 149.489L80.8532 149.49L80.8548 149.492C80.8568 149.495 80.8602 149.499 80.8652 149.506C80.8752 149.52 80.8912 149.541 80.9134 149.569C80.9578 149.626 81.027 149.711 81.1226 149.819C81.3137 150.036 81.61 150.346 82.0236 150.708C82.8505 151.433 84.1469 152.367 86.0102 153.183C87.9298 154.017 89.0795 154.6 89.8906 155.16C90.7155 155.73 91.1796 156.268 91.7378 156.978L91.7383 156.979L91.7388 156.98C92.2149 157.591 93.1094 158.063 93.9437 158.388C94.3515 158.547 94.7273 158.664 95.0012 158.741C95.1379 158.78 95.2487 158.808 95.3246 158.827C95.3625 158.836 95.3917 158.843 95.411 158.848C95.4181 158.849 95.4238 158.85 95.4282 158.851C95.4324 158.852 95.4373 158.853 95.4426 158.854C95.4474 158.855 95.4526 158.856 95.4582 158.857C95.4846 158.862 95.5203 158.869 95.5636 158.88C95.6499 158.903 95.7678 158.939 95.9022 158.997C96.1702 159.112 96.5134 159.318 96.7975 159.68C97.3849 160.427 97.6148 161.691 96.7838 163.776L96.7835 163.777C96.3292 164.91 95.4306 165.641 94.273 166.054C93.1257 166.464 91.7118 166.567 90.1711 166.454C87.0879 166.23 83.3856 165.134 80.0212 163.709C76.6683 162.295 75.7227 161.526 75.2104 160.849C75.1203 160.73 75.0422 160.611 74.9739 160.507C74.9511 160.473 74.9295 160.44 74.9089 160.409C74.8228 160.281 74.7384 160.166 74.6228 160.045C74.392 159.805 74.0064 159.514 73.1818 159.115C72.3139 158.694 71.7534 158.289 71.4199 157.895C71.077 157.491 70.9642 157.084 71.0328 156.707C71.0976 156.35 71.3123 156.09 71.4802 155.932C71.567 155.85 71.6499 155.788 71.7115 155.746C71.7425 155.724 71.7688 155.708 71.7884 155.696C71.7982 155.69 71.8063 155.685 71.8126 155.681C71.8157 155.68 71.8184 155.678 71.8206 155.677L71.8235 155.675L71.8246 155.675L71.8251 155.674C71.8253 155.674 71.8256 155.674 72.0106 156.012L71.8256 155.674L71.9324 155.616L72.0534 155.629C73.8006 155.824 77.6019 155.985 80.5169 155.884C81.9895 155.832 83.18 155.715 83.7746 155.522C83.8197 155.508 83.8582 155.494 83.8909 155.48C83.8134 155.427 83.7029 155.363 83.5506 155.29C80.5949 153.876 79.6329 152.479 79.5533 151.305C79.5142 150.728 79.6952 150.26 79.88 149.942C79.9726 149.782 80.0678 149.658 80.1411 149.571C80.1779 149.528 80.2095 149.494 80.233 149.47C80.2448 149.458 80.2546 149.448 80.2621 149.441C80.2658 149.437 80.269 149.434 80.2715 149.432L80.2748 149.429L80.2761 149.428L80.2767 149.427C80.2769 149.427 80.2772 149.427 80.5376 149.711ZM72.107 156.41C72.0772 156.433 72.0431 156.46 72.0083 156.493C71.8989 156.596 71.8143 156.717 71.7912 156.845C71.7718 156.951 71.7826 157.131 72.0078 157.397C72.2425 157.674 72.6949 158.022 73.5178 158.421C74.3843 158.841 74.8597 159.179 75.1787 159.511C75.3381 159.677 75.4508 159.834 75.5487 159.979C75.5775 160.022 75.604 160.063 75.6295 160.101C75.6936 160.199 75.7515 160.287 75.8251 160.384C76.204 160.885 76.9782 161.59 80.3212 162.999L80.3218 162.999C83.6441 164.407 87.2596 165.469 90.2271 165.686C91.7119 165.794 93.0066 165.688 94.014 165.328C95.011 164.973 95.7129 164.376 96.068 163.49C96.8457 161.539 96.5409 160.601 96.1914 160.156C96.007 159.921 95.7812 159.784 95.5971 159.704C95.5056 159.665 95.4268 159.641 95.3729 159.627C95.3461 159.62 95.3259 159.616 95.3138 159.614C95.3077 159.613 95.3038 159.612 95.3021 159.612C95.3012 159.612 95.301 159.612 95.3013 159.612L95.2891 159.61L95.2743 159.607L95.3563 159.23C95.2743 159.607 95.2742 159.607 95.2741 159.607L95.2739 159.607L95.2711 159.606L95.2638 159.605C95.2576 159.603 95.2488 159.601 95.2374 159.599C95.2147 159.593 95.182 159.586 95.1403 159.575C95.0571 159.555 94.938 159.524 94.7921 159.483C94.5009 159.401 94.1005 159.276 93.664 159.106C92.81 158.774 91.7441 158.24 91.1314 157.454C90.5915 156.767 90.1836 156.299 89.4527 155.795C88.7077 155.28 87.6174 154.722 85.7025 153.889L85.7015 153.889C83.7593 153.038 82.3966 152.06 81.5157 151.288C81.0764 150.903 80.7571 150.57 80.5457 150.331C80.4147 150.557 80.2965 150.872 80.3223 151.253C80.3728 151.997 81.0005 153.215 83.8835 154.595L83.8839 154.595C84.1206 154.709 84.317 154.825 84.462 154.947C84.5972 155.061 84.7486 155.231 84.7693 155.463C84.7927 155.724 84.6419 155.909 84.5035 156.017C84.3676 156.122 84.1918 156.197 84.012 156.256C83.2992 156.486 82.0027 156.603 80.5438 156.654C77.6702 156.754 73.9497 156.603 72.107 156.41ZM72.197 156.349C72.1977 156.349 72.1979 156.349 72.1976 156.349L72.197 156.349Z" fill="#2C2C2C"/>
<path d="M142.163 136.212C142.163 136.212 134.147 175.061 130.495 177.2C127.556 178.924 105.03 171.592 96.4737 168.711C94.4407 168.037 93.1978 167.593 93.1978 167.593L94.6719 157.631L99.4991 158.286L123.539 161.552C123.539 161.552 131.642 122.077 137.461 121.596C143.29 121.104 142.163 136.212 142.163 136.212Z" fill="#2C2C2C"/>
<path d="M189.269 121.355C189.269 121.355 217.702 150.058 219.571 164.404C219.571 164.404 215.245 172.517 189.202 187.991L186.88 181.352C186.88 181.352 201.419 164.665 206.468 160.444C206.468 160.444 183.7 141.617 184.23 136.28C184.76 130.923 186.08 121.634 189.269 121.355Z" fill="#2C2C2C"/>
<path d="M200.899 133.408C200.899 139.556 196.871 143.362 190.724 143.362C184.577 143.362 179.595 138.38 179.595 132.233C179.595 126.086 184.24 119.303 190.098 121.143C196.553 123.157 200.899 127.261 200.899 133.408Z" fill="white"/>
<path fill-rule="evenodd" clip-rule="evenodd" d="M182.944 123.942C181.112 126.103 179.981 129.246 179.981 132.233C179.981 138.167 184.79 142.976 190.724 142.976C193.718 142.976 196.158 142.05 197.848 140.413C199.537 138.777 200.513 136.395 200.513 133.408C200.513 127.496 196.351 123.497 189.983 121.511L189.982 121.511C187.244 120.65 184.77 121.787 182.944 123.942ZM190.213 120.775C187.093 119.795 184.317 121.13 182.356 123.443C180.401 125.75 179.21 129.072 179.21 132.233C179.21 138.593 184.364 143.747 190.724 143.747C193.877 143.747 196.524 142.769 198.385 140.967C200.247 139.163 201.284 136.569 201.284 133.408C201.284 127.027 196.756 122.816 190.213 120.775Z" fill="#2C2C2C"/>
<path d="M195.898 131.616C195.898 136.164 192.921 138.977 188.373 138.977C183.825 138.977 180.145 135.297 180.145 130.749C180.145 126.201 183.575 121.182 187.92 122.54C192.68 124.043 195.898 127.078 195.898 131.616Z" fill="#2C2C2C"/>
<path d="M126.227 133.409C126.227 139.556 130.255 143.362 136.402 143.362C142.549 143.362 147.521 138.371 147.521 132.233C147.521 126.096 142.876 119.303 137.018 121.143C130.572 123.157 126.227 127.261 126.227 133.409Z" fill="white"/>
<path fill-rule="evenodd" clip-rule="evenodd" d="M144.76 123.447C146.715 125.755 147.906 129.077 147.906 132.233C147.906 138.583 142.762 143.747 136.401 143.747C133.248 143.747 130.601 142.769 128.741 140.967C126.879 139.163 125.841 136.569 125.841 133.408C125.841 127.027 130.37 122.816 136.903 120.775C140.023 119.795 142.799 121.133 144.76 123.447ZM144.172 123.945C142.346 121.79 139.871 120.651 137.133 121.511L137.133 121.511C130.775 123.497 126.612 127.496 126.612 133.408C126.612 136.395 127.589 138.778 129.277 140.413C130.967 142.051 133.408 142.976 136.401 142.976C142.335 142.976 147.135 138.158 147.135 132.233C147.135 129.251 146.003 126.108 144.172 123.945Z" fill="#2C2C2C"/>
<path d="M131.237 131.616C131.237 136.164 134.214 138.977 138.762 138.977C143.31 138.977 146.99 135.297 146.99 130.749C146.99 126.201 143.56 121.182 139.225 122.54C134.446 124.043 131.237 127.078 131.237 131.616Z" fill="#2C2C2C"/>
<path d="M177.572 182.73C170.615 182.094 163.746 181.834 163.746 181.834C161.221 181.911 155.845 182.133 150.295 182.73C151.914 188.261 157.406 192.336 163.929 192.336C170.461 192.346 175.953 188.251 177.572 182.73Z" fill="#50BFD7"/>
<path d="M177.004 183.308C177.601 180.957 189.558 121.047 189.558 121.047C189.558 121.047 157.647 111.624 137.24 121.047L150.324 183.829L177.004 183.308Z" fill="white"/>
<path fill-rule="evenodd" clip-rule="evenodd" d="M189.667 120.677C189.667 120.677 189.667 120.677 189.558 121.047C189.936 121.122 189.936 121.122 189.936 121.123L189.935 121.125L189.801 121.795C189.714 122.235 189.585 122.88 189.421 123.701C189.093 125.344 188.623 127.693 188.058 130.52C186.928 136.173 185.415 143.736 183.883 151.372C180.821 166.632 177.679 182.215 177.377 183.403L177.305 183.688L150.012 184.22L136.8 120.825L137.078 120.697C147.38 115.94 160.548 115.95 171.094 117.13C176.376 117.721 181.016 118.607 184.337 119.345C185.997 119.715 187.328 120.047 188.245 120.287C188.703 120.408 189.058 120.505 189.298 120.572C189.419 120.606 189.51 120.632 189.572 120.649C189.603 120.658 189.627 120.665 189.643 120.67L189.661 120.675L189.665 120.676L189.667 120.677ZM189.558 121.047L189.936 121.122L190.005 120.777L189.667 120.677L189.558 121.047ZM189.11 121.32C189.104 121.318 189.097 121.316 189.091 121.314C188.854 121.248 188.503 121.152 188.049 121.033C187.141 120.795 185.819 120.465 184.169 120.098C180.869 119.364 176.256 118.483 171.009 117.896C160.594 116.731 147.744 116.731 137.68 121.269L150.636 183.437L176.696 182.929C177.242 180.48 180.216 165.73 183.127 151.22C184.659 143.584 186.172 136.022 187.302 130.369C187.868 127.542 188.337 125.193 188.665 123.55C188.829 122.729 188.958 122.084 189.046 121.645L189.11 121.32Z" fill="black"/>
<path d="M177.004 183.308C177.601 180.957 189.558 121.047 189.558 121.047C189.558 121.047 157.647 111.624 137.24 121.047L150.324 183.829L177.004 183.308Z" fill="white"/>
<path fill-rule="evenodd" clip-rule="evenodd" d="M189.667 120.677C189.667 120.677 189.667 120.677 189.558 121.047C189.936 121.122 189.936 121.122 189.936 121.123L189.935 121.125L189.801 121.795C189.714 122.235 189.585 122.88 189.421 123.701C189.093 125.344 188.623 127.693 188.058 130.52C186.928 136.173 185.415 143.736 183.883 151.372C180.821 166.632 177.679 182.215 177.377 183.403L177.305 183.688L150.012 184.22L136.8 120.825L137.078 120.697C147.38 115.94 160.548 115.95 171.094 117.13C176.376 117.721 181.016 118.607 184.337 119.345C185.997 119.715 187.328 120.047 188.245 120.287C188.703 120.408 189.058 120.505 189.298 120.572C189.419 120.606 189.51 120.632 189.572 120.649C189.603 120.658 189.627 120.665 189.643 120.67L189.661 120.675L189.665 120.676L189.667 120.677ZM189.558 121.047L189.936 121.122L190.005 120.777L189.667 120.677L189.558 121.047ZM189.11 121.32C189.104 121.318 189.097 121.316 189.091 121.314C188.854 121.248 188.503 121.152 188.049 121.033C187.141 120.795 185.819 120.465 184.169 120.098C180.869 119.364 176.256 118.483 171.009 117.896C160.594 116.731 147.744 116.731 137.68 121.269L150.636 183.437L176.696 182.929C177.242 180.48 180.216 165.73 183.127 151.22C184.659 143.584 186.172 136.022 187.302 130.369C187.868 127.542 188.337 125.193 188.665 123.55C188.829 122.729 188.958 122.084 189.046 121.645L189.11 121.32Z" fill="#2C2C2C"/>
<path d="M181.812 119.206C172.899 117.414 157.83 115.372 144.88 118.455C146.412 128.119 147.944 137.792 149.476 147.456C150.71 154.008 156.924 158.373 163.409 158.411C169.893 158.373 176.108 154.018 177.341 147.456C178.825 138.033 180.318 128.62 181.812 119.206Z" fill="#50BFD7"/>
<path fill-rule="evenodd" clip-rule="evenodd" d="M144.791 118.08C157.825 114.977 172.963 117.034 181.888 118.829L182.25 118.902L182.191 119.273C180.698 128.684 179.205 138.096 177.722 147.516L177.721 147.522L177.72 147.528C176.447 154.3 170.049 158.758 163.411 158.797L163.409 158.797L163.406 158.797C156.768 158.757 150.37 154.29 149.098 147.528L149.097 147.522L149.096 147.517C148.33 142.685 147.564 137.851 146.798 133.018L146.798 133.016C146.032 128.182 145.266 123.347 144.5 118.515L144.444 118.163L144.791 118.08ZM145.317 118.749C146.064 123.462 146.812 128.178 147.559 132.894L147.559 132.895C148.325 137.728 149.09 142.561 149.856 147.391C151.052 153.729 157.08 157.988 163.409 158.026C169.737 157.988 175.765 153.738 176.961 147.391C178.425 138.092 179.899 128.802 181.373 119.512C172.513 117.757 157.93 115.843 145.317 118.749Z" fill="#2C2C2C"/>
<path d="M162.301 122.627C165.345 122.627 170.076 121.702 170.076 118.667L169.296 108.531L168.611 99.6665C168.611 96.6219 166.145 94.1649 163.11 94.1649C161.588 94.1649 160.219 94.7816 159.217 95.774C158.225 96.7664 157.599 98.1442 157.599 99.6665L156.924 108.54L156.279 117.048C155.411 122.184 162.301 122.627 162.301 122.627Z" fill="#2C2C2C"/>
<path d="M180.106 42.5114C175.549 36.9038 169.18 33.5219 161.009 33.5219C142.5 33.5219 124.406 50.5855 124.406 71.8694C124.406 93.1532 139.408 110.41 157.916 110.41C159.699 110.41 161.424 110.255 163.081 109.947C163.254 110.882 163.351 111.845 163.351 112.828C163.351 113.011 163.341 113.184 163.341 113.358C214.368 101.006 206.015 39.3607 180.106 42.5114Z" fill="#2C2C2C"/>
<path d="M140.313 93.3651C143.745 93.3651 146.528 90.5828 146.528 87.1505C146.528 83.7183 143.745 80.9359 140.313 80.9359C136.881 80.9359 134.099 83.7183 134.099 87.1505C134.099 90.5828 136.881 93.3651 140.313 93.3651Z" fill="#E0E0E0"/>
<path fill-rule="evenodd" clip-rule="evenodd" d="M140.313 81.3213C137.094 81.3213 134.484 83.9312 134.484 87.1505C134.484 90.3699 137.094 92.9798 140.313 92.9798C143.533 92.9798 146.143 90.3699 146.143 87.1505C146.143 83.9312 143.533 81.3213 140.313 81.3213ZM133.713 87.1505C133.713 83.5055 136.668 80.5505 140.313 80.5505C143.958 80.5505 146.913 83.5055 146.913 87.1505C146.913 90.7956 143.958 93.7506 140.313 93.7506C136.668 93.7506 133.713 90.7956 133.713 87.1505Z" fill="#2C2C2C"/>
<path d="M184.076 93.3651C187.508 93.3651 190.291 90.5828 190.291 87.1505C190.291 83.7183 187.508 80.9359 184.076 80.9359C180.644 80.9359 177.861 83.7183 177.861 87.1505C177.861 90.5828 180.644 93.3651 184.076 93.3651Z" fill="#E0E0E0"/>
<path fill-rule="evenodd" clip-rule="evenodd" d="M184.076 81.3213C180.856 81.3213 178.246 83.9312 178.246 87.1505C178.246 90.3699 180.856 92.9798 184.076 92.9798C187.295 92.9798 189.905 90.3699 189.905 87.1505C189.905 83.9312 187.295 81.3213 184.076 81.3213ZM177.476 87.1505C177.476 83.5055 180.431 80.5505 184.076 80.5505C187.721 80.5505 190.676 83.5055 190.676 87.1505C190.676 90.7956 187.721 93.7506 184.076 93.7506C180.431 93.7506 177.476 90.7956 177.476 87.1505Z" fill="#2C2C2C"/>
<path d="M162.782 113.078C176.123 113.078 186.937 97.7689 186.937 78.8836C186.937 59.9984 176.123 44.6888 162.782 44.6888C149.442 44.6888 138.627 59.9984 138.627 78.8836C138.627 97.7689 149.442 113.078 162.782 113.078Z" fill="#E0E0E0"/>
<path fill-rule="evenodd" clip-rule="evenodd" d="M146.017 54.9265C141.697 61.0422 139.013 69.511 139.013 78.8835C139.013 88.256 141.697 96.7249 146.017 102.841C150.338 108.957 156.271 112.693 162.782 112.693C169.294 112.693 175.227 108.957 179.548 102.841C183.868 96.7249 186.552 88.256 186.552 78.8835C186.552 69.511 183.868 61.0422 179.548 54.9265C175.227 48.8099 169.294 45.0741 162.782 45.0741C156.271 45.0741 150.338 48.8099 146.017 54.9265ZM145.387 54.4818C149.809 48.2224 155.953 44.3033 162.782 44.3033C169.611 44.3033 175.756 48.2224 180.177 54.4818C184.6 60.7422 187.323 69.3708 187.323 78.8835C187.323 88.3963 184.6 97.0248 180.177 103.285C175.756 109.545 169.611 113.464 162.782 113.464C155.953 113.464 149.809 109.545 145.387 103.285C140.965 97.0248 138.242 88.3963 138.242 78.8835C138.242 69.3708 140.965 60.7422 145.387 54.4818Z" fill="#2C2C2C"/>
<path d="M135.101 71.3009C135.101 71.3009 155.662 72.303 162.513 59.9316C162.513 59.9316 177.389 72.804 191.591 71.802L190.252 66.1173L184.741 55.2489L181.397 51.2408L174.547 44.053L165.355 40.2086L154.323 41.7117L139.61 51.7418L137.77 58.4285L135.101 71.3009Z" fill="#2C2C2C"/>
<path d="M163.38 92.2474C163.389 92.3052 163.264 92.4112 162.985 92.4112C162.715 92.4208 162.3 92.2956 161.934 91.9487C161.751 91.7753 161.587 91.5633 161.462 91.2935C161.443 91.255 161.433 91.2165 161.414 91.1779L161.395 91.1201L161.375 91.0719L161.347 90.9852C161.337 90.9467 161.327 90.8985 161.308 90.86C161.269 90.7154 161.241 90.5613 161.231 90.3975C161.173 89.7616 161.298 89.116 161.453 88.4994C162.05 86.0328 162.753 84.0962 163.013 84.154C163.274 84.2214 163.004 86.264 162.406 88.7306C162.252 89.3376 162.137 89.8868 162.137 90.3493C162.137 90.4649 162.146 90.5805 162.156 90.6865L162.166 90.7251V90.7443V90.754V90.7636C162.166 90.7636 162.156 90.7347 162.166 90.7443L162.185 90.8407L162.194 90.8889L162.204 90.9178L162.223 90.9756C162.281 91.1587 162.368 91.3321 162.464 91.467C162.657 91.7464 162.888 91.9198 163.071 92.0162C163.235 92.1414 163.37 92.18 163.38 92.2474Z" fill="#2C2C2C"/>
<path d="M136.671 82.8051C136.402 81.7356 136.199 80.6469 136.035 79.5485C135.881 78.4501 135.775 77.3517 135.717 76.2436C135.621 74.0276 135.708 71.7922 136.007 69.5858C136.305 67.3697 136.816 65.1826 137.538 63.0629C137.577 62.928 137.625 62.7931 137.673 62.6678L137.818 62.2728L138.107 61.4827L138.435 60.7023L138.598 60.3169C138.656 60.1916 138.704 60.0567 138.772 59.9315C139.244 58.9102 139.755 57.8985 140.333 56.935C141.479 54.9887 142.818 53.158 144.36 51.4912C145.911 49.834 147.655 48.3502 149.563 47.1072C149.794 46.9434 150.045 46.7989 150.286 46.6544C150.527 46.5099 150.777 46.3557 151.018 46.2208L151.779 45.8161L152.155 45.6138C152.28 45.5464 152.415 45.4885 152.54 45.4307L153.321 45.0742C153.388 45.0453 153.446 45.0164 153.513 44.9875L153.716 44.9104L154.111 44.7563L154.506 44.6021C154.641 44.5539 154.766 44.4961 154.91 44.448L155.729 44.1782C157.907 43.4748 160.2 43.1183 162.493 43.0702C163.64 43.0316 164.786 43.1183 165.923 43.2436C166.212 43.2821 166.492 43.3303 166.771 43.3688L167.195 43.4363C167.263 43.4459 167.34 43.4556 167.407 43.4748L167.619 43.523L168.457 43.7061C168.737 43.7639 169.016 43.841 169.286 43.918C171.492 44.5347 173.622 45.4307 175.568 46.6255L176.291 47.0783C176.416 47.1554 176.532 47.2325 176.647 47.3192L176.994 47.5601L177.341 47.801C177.456 47.878 177.572 47.9648 177.688 48.0515L178.362 48.5718L178.699 48.8319L179.027 49.1113L179.673 49.6702C179.885 49.8532 180.087 50.0556 180.289 50.2579L180.598 50.5566C180.704 50.6529 180.8 50.7493 180.896 50.8553L181.484 51.4719L181.773 51.7802L182.052 52.0982L182.611 52.7437C182.708 52.8497 182.794 52.9653 182.881 53.0713L183.141 53.4086C183.315 53.6302 183.488 53.8518 183.661 54.083L184.153 54.7767C184.49 55.2296 184.779 55.721 185.087 56.1931C186.282 58.1105 187.255 60.1531 188.026 62.2535C188.797 64.3636 189.346 66.5411 189.693 68.7476L189.76 69.1619L189.789 69.3642L189.809 69.5762L189.905 70.4048C189.982 70.954 190.001 71.5128 190.05 72.0717C190.117 73.1797 190.136 74.2974 190.107 75.4054L190.098 75.8197L190.078 76.234C190.059 76.5134 190.049 76.7832 190.021 77.0626C189.982 77.6118 189.924 78.1706 189.857 78.7198C189.712 79.8182 189.529 80.907 189.288 81.9861C189.423 80.8877 189.529 79.799 189.568 78.7006C189.616 77.6022 189.626 76.5038 189.577 75.415C189.529 74.3263 189.452 73.2279 189.317 72.1487C189.24 71.6092 189.182 71.0696 189.076 70.53L188.932 69.7303L188.893 69.528L188.845 69.3257L188.758 68.9306C188.306 66.8013 187.66 64.7201 186.841 62.7257L186.687 62.3499L186.523 61.9838L186.186 61.2419C186.08 60.9913 185.955 60.7601 185.829 60.5192L185.463 59.7966C185.338 59.5557 185.203 59.3245 185.068 59.0932C184.933 58.862 184.808 58.6211 184.664 58.3899L184.24 57.7058C184.095 57.4746 183.96 57.2433 183.806 57.0313C183.498 56.5881 183.209 56.1353 182.881 55.7113L182.399 55.0658C182.235 54.8538 182.062 54.6515 181.889 54.4395L181.628 54.1312C181.542 54.0252 181.455 53.9192 181.368 53.8229L180.829 53.2255L180.559 52.9268L180.28 52.6378L179.711 52.0693C178.179 50.5855 176.474 49.2848 174.633 48.2056C172.803 47.1265 170.828 46.3075 168.785 45.7583C168.274 45.6042 167.754 45.5175 167.243 45.4018L167.051 45.3633C166.983 45.3537 166.916 45.344 166.858 45.3344L166.463 45.2766C166.203 45.238 165.943 45.1899 165.682 45.161C164.632 45.055 163.572 44.9779 162.522 45.0068C160.412 45.0453 158.302 45.3633 156.288 46.0088L155.537 46.2497C155.411 46.2883 155.286 46.3364 155.161 46.3846L154.795 46.5291L154.429 46.6737L154.246 46.7411C154.188 46.7604 154.12 46.7989 154.063 46.8182L153.34 47.1458C153.224 47.2036 153.099 47.2518 152.974 47.3096L152.617 47.4926L151.914 47.8588C151.683 47.9937 151.451 48.1286 151.22 48.2538C150.989 48.3887 150.758 48.514 150.536 48.6681C148.734 49.8051 147.077 51.1636 145.574 52.6859L145.025 53.2737L144.755 53.5724C144.707 53.6205 144.659 53.6687 144.62 53.7169L144.495 53.871L143.975 54.4877C143.888 54.5937 143.801 54.69 143.715 54.796L143.464 55.114L142.973 55.7499C142.886 55.8559 142.818 55.9618 142.732 56.0775L142.501 56.4051C142.346 56.6267 142.192 56.8386 142.038 57.0699L141.604 57.754C140.458 59.575 139.475 61.5116 138.704 63.5254C137.924 65.5391 137.327 67.6395 136.922 69.7785L136.768 70.5782C136.72 70.848 136.691 71.1178 136.642 71.3876L136.527 72.1969C136.498 72.4667 136.469 72.7365 136.44 73.0063L136.353 73.8252L136.305 74.6442L136.257 75.4632C136.247 75.733 136.238 76.0124 136.228 76.2822C136.209 77.3806 136.228 78.4693 136.305 79.5677C136.392 80.6179 136.517 81.7067 136.671 82.8051Z" fill="#50BFD7"/>
<path d="M156.5 80.6951C156.5 83.4411 154.121 85.6668 151.191 85.6668C148.253 85.6668 145.883 83.4411 145.883 80.6951C145.883 77.9491 148.262 75.7234 151.191 75.7234C154.121 75.7234 156.5 77.9491 156.5 80.6951Z" fill="white"/>
<path fill-rule="evenodd" clip-rule="evenodd" d="M151.191 76.1088C148.451 76.1088 146.268 78.1855 146.268 80.6951C146.268 83.2051 148.441 85.2814 151.191 85.2814C153.932 85.2814 156.115 83.2047 156.115 80.6951C156.115 78.1855 153.932 76.1088 151.191 76.1088ZM145.497 80.6951C145.497 77.7127 148.074 75.338 151.191 75.338C154.309 75.338 156.885 77.7127 156.885 80.6951C156.885 83.6775 154.309 86.0522 151.191 86.0522C148.063 86.0522 145.497 83.6771 145.497 80.6951Z" fill="#2C2C2C"/>
<path d="M148.59 80.3868C148.59 82.651 150.064 84.4913 151.876 84.4913C153.687 84.4913 155.161 82.651 155.161 80.3868C155.161 78.1226 153.687 76.2823 151.876 76.2823C150.055 76.2726 148.59 78.1129 148.59 80.3868Z" fill="#50BFD7"/>
<path d="M149.534 80.3867C149.534 81.9958 150.575 83.2965 151.866 83.2965C153.157 83.2965 154.198 81.9958 154.198 80.3867C154.198 78.7777 153.157 77.4673 151.866 77.4673C150.584 77.4673 149.534 78.768 149.534 80.3867Z" fill="#2C2C2C"/>
<path d="M149.389 77.6216C149.389 78.0648 149.929 78.4116 150.594 78.4116C151.259 78.4116 151.798 78.0551 151.798 77.6216C151.798 77.1784 151.259 76.8315 150.594 76.8315C149.929 76.8219 149.389 77.1784 149.389 77.6216Z" fill="white"/>
<path d="M151.538 75.0008C148.253 74.6732 145.728 77.6408 145.728 80.7047C145.728 81.0227 146.123 81.0805 146.287 80.8589C147.626 79.0186 148.06 77.2072 150.507 76.5039C154.12 75.4633 156.105 79.1728 156.308 82.0825C156.336 82.362 156.577 82.1115 156.606 81.8224C156.934 78.3441 155.2 75.3669 151.538 75.0008Z" fill="#2C2C2C"/>
<path d="M158.023 73.093C158.023 73.093 150.854 65.9438 143.146 74.4323C143.137 74.4323 149.804 70.1639 158.023 73.093Z" fill="#2C2C2C"/>
<path d="M179.595 80.6951C179.595 83.4411 177.216 85.6668 174.286 85.6668C171.348 85.6668 168.978 83.4411 168.978 80.6951C168.978 77.9491 171.357 75.7234 174.286 75.7234C177.216 75.7234 179.595 77.9491 179.595 80.6951Z" fill="white"/>
<path fill-rule="evenodd" clip-rule="evenodd" d="M174.287 76.1088C171.546 76.1088 169.363 78.1855 169.363 80.6951C169.363 83.2051 171.537 85.2814 174.287 85.2814C177.027 85.2814 179.21 83.2047 179.21 80.6951C179.21 78.1855 177.027 76.1088 174.287 76.1088ZM168.592 80.6951C168.592 77.7127 171.169 75.338 174.287 75.338C177.404 75.338 179.981 77.7127 179.981 80.6951C179.981 83.6775 177.404 86.0522 174.287 86.0522C171.159 86.0522 168.592 83.6771 168.592 80.6951Z" fill="#2C2C2C"/>
<path d="M171.685 80.3867C171.685 82.6509 173.159 84.4912 174.97 84.4912C176.782 84.4912 178.256 82.6509 178.256 80.3867C178.256 78.1224 176.782 76.2821 174.97 76.2821C173.159 76.2725 171.685 78.1128 171.685 80.3867Z" fill="#50BFD7"/>
<path d="M172.639 80.3866C172.639 81.9956 173.679 83.2964 174.97 83.2964C176.261 83.2964 177.302 81.9956 177.302 80.3866C177.302 78.7775 176.261 77.4672 174.97 77.4672C173.679 77.4672 172.639 78.7679 172.639 80.3866Z" fill="#2C2C2C"/>
<path d="M172.485 77.6214C172.485 78.0647 173.025 78.4115 173.689 78.4115C174.354 78.4115 174.894 78.055 174.894 77.6214C174.894 77.1782 174.354 76.8314 173.689 76.8314C173.034 76.8217 172.485 77.1782 172.485 77.6214Z" fill="white"/>
<path d="M174.633 75.0007C171.348 74.6731 168.823 77.6407 168.823 80.7046C168.823 81.0226 169.218 81.0804 169.382 80.8588C170.721 79.0185 171.155 77.2071 173.602 76.5037C177.215 75.4631 179.2 79.1726 179.403 82.0824C179.431 82.3618 179.672 82.1113 179.701 81.8223C180.029 78.344 178.304 75.3668 174.633 75.0007Z" fill="#2C2C2C"/>
<path d="M181.118 72.3126C181.118 72.3126 173.949 65.1634 166.241 73.6519C166.241 73.6519 172.909 69.3835 181.118 72.3126Z" fill="#2C2C2C"/>
<path d="M154.939 97.7104C155.18 99.5796 156.086 101.304 157.502 102.557C158.918 103.809 160.74 104.494 162.628 104.494C164.516 104.494 166.337 103.809 167.754 102.557C169.17 101.304 170.086 99.5893 170.317 97.7104H154.939Z" fill="white"/>
<path fill-rule="evenodd" clip-rule="evenodd" d="M154.501 97.3252H170.753L170.7 97.7577C170.457 99.7314 169.495 101.532 168.009 102.846C166.522 104.161 164.61 104.879 162.628 104.879C160.646 104.879 158.734 104.161 157.247 102.846C155.76 101.531 154.81 99.7207 154.557 97.7599L154.501 97.3252ZM155.391 98.096C155.695 99.705 156.522 101.176 157.758 102.268C159.103 103.458 160.833 104.108 162.628 104.108C164.423 104.108 166.153 103.458 167.499 102.268C168.736 101.174 169.57 99.7099 169.868 98.096H155.391Z" fill="#2C2C2C"/>
<path d="M170.018 186.902C170.018 187.143 170.23 187.422 170.481 187.394C173.323 187.095 175.501 184.898 178.304 185.361C175.491 186.758 173.053 189.186 173.4 192.76C173.439 193.204 173.863 193.377 174.19 193.107C176.204 191.392 178.516 189.86 181.214 190.429C182.37 190.669 183.729 191.122 184.924 190.968C186.706 190.747 188.209 189.937 189.096 188.213C190.657 185.226 190.078 181.641 186.581 180.9C186.494 180.88 186.427 180.89 186.35 180.919C185.059 180.408 183.883 179.763 182.843 178.635C181.84 177.537 180.906 176.323 179.817 175.311C178.362 173.953 176.782 172.883 174.855 173.799C174.566 173.933 174.585 174.348 174.768 174.569C175.616 175.62 176.609 176.622 177.649 177.585C176.609 177.344 175.558 177.219 174.479 177.306C172.552 177.469 170.278 178.751 170.327 181.044C170.336 181.333 170.539 181.507 170.789 181.535C172.562 181.719 174.344 181.69 176.108 181.873C173.362 182.682 169.989 183.607 170.018 186.902Z" fill="#E0E0E0"/>
<path fill-rule="evenodd" clip-rule="evenodd" d="M177.655 173.344C178.543 173.694 179.345 174.343 180.08 175.029C180.816 175.714 181.496 176.503 182.156 177.269C182.483 177.649 182.805 178.022 183.126 178.375C184.083 179.411 185.163 180.024 186.375 180.514C186.463 180.5 186.557 180.5 186.662 180.523C188.55 180.924 189.68 182.11 190.106 183.609C190.525 185.086 190.252 186.831 189.438 188.39C188.481 190.251 186.851 191.117 184.972 191.351C184.314 191.435 183.628 191.352 182.98 191.225C182.655 191.161 182.332 191.085 182.024 191.011C181.991 191.003 181.958 190.996 181.926 190.988C181.651 190.922 181.388 190.859 181.135 190.806L181.135 190.806C178.634 190.279 176.452 191.687 174.44 193.401L174.438 193.403L174.435 193.405C174.173 193.621 173.834 193.684 173.535 193.555C173.236 193.427 173.047 193.139 173.016 192.796C172.702 189.554 174.548 187.228 176.877 185.727C176.102 185.833 175.347 186.113 174.557 186.447C174.381 186.521 174.203 186.598 174.023 186.677C172.954 187.141 171.8 187.642 170.523 187.777C170.235 187.809 170.004 187.661 169.865 187.503C169.728 187.345 169.633 187.128 169.633 186.904C169.617 185.089 170.554 183.924 171.817 183.129C172.483 182.71 173.25 182.387 174.028 182.116C173.831 182.106 173.634 182.098 173.435 182.089L173.427 182.089C172.544 182.051 171.646 182.012 170.749 181.919L170.747 181.919L170.745 181.918C170.333 181.871 169.958 181.564 169.941 181.057L169.941 181.055L169.941 181.052C169.914 179.76 170.547 178.758 171.425 178.073C172.295 177.393 173.419 177.009 174.447 176.922L174.447 176.922L174.448 176.922C175.129 176.867 175.796 176.893 176.452 176.977C175.745 176.28 175.072 175.56 174.47 174.813C174.315 174.624 174.236 174.37 174.25 174.13C174.264 173.881 174.385 173.593 174.691 173.45C175.759 172.943 176.747 172.986 177.655 173.344ZM175.024 174.145C175.022 174.15 175.02 174.159 175.019 174.173C175.018 174.197 175.021 174.227 175.031 174.257C175.041 174.288 175.054 174.31 175.065 174.324L175.067 174.326L175.068 174.327C175.9 175.358 176.877 176.346 177.911 177.302L178.975 178.288L177.562 177.961C176.549 177.726 175.54 177.607 174.511 177.69C173.612 177.767 172.636 178.105 171.899 178.68C171.171 179.249 170.692 180.034 170.712 181.033C170.714 181.084 170.73 181.105 170.74 181.115C170.753 181.128 170.782 181.146 170.831 181.153C171.704 181.242 172.58 181.281 173.469 181.319L173.472 181.319C174.356 181.358 175.253 181.397 176.147 181.489L178.088 181.691L176.216 182.243C176.169 182.257 176.12 182.271 176.072 182.285C174.725 182.681 173.317 183.096 172.228 183.782C171.125 184.475 170.391 185.42 170.404 186.899L170.404 186.901V186.902C170.404 186.907 170.405 186.921 170.413 186.942C170.421 186.962 170.433 186.981 170.445 186.995C170.451 187.001 170.455 187.006 170.459 187.008C171.602 186.885 172.629 186.44 173.698 185.977C173.883 185.897 174.069 185.816 174.257 185.737C175.513 185.205 176.848 184.73 178.367 184.98L179.545 185.175L178.476 185.706C175.723 187.073 173.46 189.383 173.784 192.723L173.784 192.725L173.784 192.727C173.789 192.779 173.803 192.809 173.813 192.824C173.823 192.839 173.833 192.844 173.839 192.847C173.845 192.85 173.854 192.852 173.869 192.849C173.884 192.847 173.91 192.838 173.943 192.811C175.958 191.096 178.4 189.442 181.293 190.052C181.557 190.107 181.832 190.172 182.105 190.238C182.138 190.246 182.171 190.254 182.203 190.262C182.512 190.335 182.82 190.408 183.128 190.468C183.748 190.59 184.338 190.655 184.874 190.586L184.875 190.586L184.876 190.586C186.562 190.376 187.937 189.624 188.753 188.037L188.753 188.035L188.754 188.034C189.5 186.607 189.718 185.066 189.364 183.82C189.017 182.595 188.11 181.618 186.501 181.277L186.499 181.276L186.497 181.276C186.497 181.276 186.497 181.276 186.497 181.276C186.494 181.277 186.49 181.278 186.485 181.28L186.346 181.332L186.208 181.277C184.885 180.754 183.653 180.081 182.559 178.897L182.558 178.896L182.558 178.895C182.204 178.507 181.866 178.114 181.531 177.726C180.89 176.981 180.262 176.251 179.555 175.594L179.554 175.593C178.834 174.921 178.119 174.356 177.372 174.061C176.645 173.774 175.881 173.739 175.024 174.145Z" fill="#2C2C2C"/>
<path fill-rule="evenodd" clip-rule="evenodd" d="M138.146 77.0723V77.265H137.375V77.0723H138.146Z" fill="#2C2C2C"/>
<path fill-rule="evenodd" clip-rule="evenodd" d="M142.192 79.192V79.3847H141.421V79.192H142.192Z" fill="#2C2C2C"/>
<path d="M164.112 78.0552C165.432 78.3346 164.94 79.1921 164.94 79.3173C164.94 79.4426 165.432 86.5725 171.801 88.4514C178.169 90.3302 181.985 86.64 183.093 84.79C184.201 82.9401 185.126 78.5465 185.396 78.2093C185.675 77.8721 186.995 77.2843 186.995 77.2843L187.149 75.5597L185.492 75.0683C185.492 75.0683 181.31 73.1605 175.154 73.0738C169.006 72.9775 165.528 76.5232 165.528 76.5232C163.794 75.974 161.645 75.8969 159.68 76.5232C159.68 76.5232 156.201 72.9871 150.054 73.0738C143.907 73.1702 139.716 75.0683 139.716 75.0683L138.059 75.5597L138.213 77.2843C138.213 77.2843 139.533 77.8721 139.812 78.2093C140.092 78.5465 141.007 82.9498 142.115 84.79C143.223 86.64 147.038 90.3302 153.407 88.4514C159.776 86.5725 160.267 79.4426 160.267 79.3173C160.267 79.1921 159.776 78.3346 161.096 78.0552C162.243 77.8143 162.965 77.8143 164.112 78.0552ZM179.393 86.9772C174.537 89.8966 168.717 86.9483 166.964 83.1039C165.21 79.2595 166.684 77.2265 166.684 77.2265C169.623 72.4476 181.445 72.2452 183.478 77.4096C183.825 78.2768 184.259 84.0578 179.393 86.9772ZM141.72 77.4096C143.753 72.2356 155.585 72.4476 158.514 77.2265C158.514 77.2265 159.988 79.2595 158.234 83.1039C156.481 86.9483 150.671 89.8966 145.805 86.9772C140.949 84.0578 141.383 78.2768 141.72 77.4096Z" fill="#2C2C2C"/>
<path d="M167.089 129.795H159.689C157.724 129.795 156.124 131.395 156.124 133.36V140.76C156.124 142.726 157.724 144.325 159.689 144.325H167.089C169.055 144.325 170.654 142.726 170.654 140.76V133.36C170.654 131.395 169.064 129.795 167.089 129.795ZM154.159 126.645C153.032 126.645 152.116 127.56 152.116 128.687C152.116 129.815 153.032 130.73 154.159 130.73C155.286 130.73 156.201 129.815 156.201 128.687C156.201 127.56 155.286 126.645 154.159 126.645Z" fill="white"/>
<path d="M166.569 134.208C166.097 132.946 164.892 132.108 163.544 132.108H161.539L165.499 142.147H169.749L166.569 134.208ZM158.476 139.267L157.319 142.147H161.539L163.505 137.166H161.501C160.152 137.166 158.948 138.004 158.476 139.267ZM159.131 134.603C159.824 134.603 160.393 134.035 160.393 133.341C160.393 132.647 159.824 132.079 159.131 132.079C158.437 132.079 157.869 132.647 157.869 133.341C157.869 134.035 158.437 134.603 159.131 134.603Z" fill="#50BFD7"/>
<path d="M175.965 171.666C169.304 171.057 162.727 170.808 162.727 170.808C160.31 170.882 155.162 171.094 149.848 171.666C151.398 176.961 156.656 180.864 162.902 180.864C169.156 180.873 174.415 176.952 175.965 171.666Z" fill="#50BFD7"/>
<path d="M168.363 181.288C168.363 181.519 168.566 181.786 168.806 181.759C171.527 181.473 173.612 179.369 176.297 179.812C173.603 181.15 171.269 183.474 171.601 186.897C171.638 187.321 172.044 187.487 172.357 187.229C174.286 185.587 176.5 184.12 179.083 184.664C180.19 184.895 181.49 185.329 182.634 185.181C184.341 184.969 185.78 184.194 186.629 182.543C188.123 179.683 187.57 176.251 184.221 175.541C184.138 175.522 184.073 175.532 184 175.559C182.763 175.07 181.638 174.452 180.642 173.373C179.682 172.321 178.787 171.159 177.745 170.19C176.352 168.889 174.839 167.865 172.994 168.742C172.717 168.871 172.736 169.268 172.911 169.48C173.723 170.485 174.673 171.445 175.669 172.367C174.673 172.137 173.667 172.017 172.634 172.1C170.789 172.257 168.612 173.484 168.658 175.679C168.667 175.956 168.861 176.122 169.101 176.15C170.798 176.325 172.505 176.297 174.193 176.472C171.564 177.247 168.335 178.133 168.363 181.288Z" fill="#C4C4C4"/>
<path fill-rule="evenodd" clip-rule="evenodd" d="M175.674 168.306C176.525 168.642 177.293 169.263 177.996 169.92C178.702 170.575 179.353 171.331 179.984 172.064C180.297 172.427 180.606 172.785 180.913 173.123C181.83 174.115 182.863 174.702 184.024 175.171C184.108 175.157 184.199 175.158 184.299 175.18C186.106 175.564 187.189 176.699 187.596 178.134C187.997 179.549 187.736 181.219 186.956 182.712C186.04 184.494 184.479 185.323 182.681 185.547C182.05 185.628 181.393 185.548 180.774 185.426C180.462 185.365 180.153 185.292 179.858 185.222C179.826 185.214 179.795 185.207 179.764 185.199C179.5 185.136 179.249 185.076 179.007 185.025L179.006 185.025C176.612 184.521 174.523 185.869 172.597 187.51L172.594 187.512L172.592 187.514C172.341 187.72 172.016 187.78 171.73 187.658C171.444 187.535 171.263 187.259 171.233 186.931C170.933 183.827 172.7 181.599 174.93 180.163C174.188 180.263 173.465 180.532 172.709 180.851C172.54 180.923 172.37 180.997 172.197 181.072C171.173 181.516 170.069 181.996 168.846 182.125C168.57 182.156 168.349 182.014 168.217 181.863C168.085 181.712 167.994 181.504 167.994 181.289C167.979 179.552 168.876 178.436 170.085 177.675C170.723 177.274 171.457 176.964 172.202 176.705C172.014 176.696 171.824 176.688 171.634 176.679L171.627 176.679C170.781 176.642 169.922 176.605 169.063 176.516L169.061 176.516L169.059 176.516C168.664 176.47 168.305 176.176 168.289 175.691L168.289 175.689L168.289 175.686C168.263 174.449 168.869 173.49 169.71 172.834C170.543 172.183 171.619 171.815 172.603 171.732L172.604 171.732L172.605 171.732C173.256 171.679 173.895 171.704 174.523 171.784C173.846 171.117 173.202 170.427 172.625 169.713C172.476 169.532 172.401 169.288 172.414 169.058C172.428 168.82 172.544 168.545 172.837 168.408C173.859 167.922 174.805 167.963 175.674 168.306ZM173.156 169.073C173.154 169.078 173.152 169.087 173.151 169.1C173.15 169.123 173.153 169.151 173.162 169.18C173.172 169.21 173.185 169.231 173.195 169.244L173.197 169.246L173.198 169.248C173.994 170.234 174.93 171.18 175.92 172.096L176.939 173.04L175.586 172.726C174.615 172.502 173.649 172.388 172.664 172.467C171.803 172.54 170.869 172.865 170.164 173.415C169.467 173.96 169.008 174.712 169.027 175.668C169.029 175.717 169.044 175.737 169.054 175.746C169.067 175.759 169.094 175.777 169.141 175.782C169.977 175.869 170.816 175.905 171.666 175.942L171.669 175.942C172.517 175.979 173.375 176.016 174.231 176.105L176.089 176.298L174.297 176.826C174.252 176.84 174.206 176.853 174.159 176.867C172.87 177.246 171.521 177.643 170.478 178.3C169.423 178.964 168.719 179.868 168.732 181.284L168.732 181.286V181.288C168.732 181.292 168.733 181.306 168.741 181.326C168.749 181.345 168.76 181.363 168.772 181.377C168.777 181.382 168.781 181.386 168.785 181.389C169.879 181.271 170.863 180.845 171.886 180.402C172.063 180.325 172.241 180.248 172.421 180.172C173.624 179.663 174.902 179.208 176.357 179.448L177.485 179.634L176.461 180.142C173.825 181.451 171.658 183.663 171.968 186.861L171.968 186.863L171.968 186.865C171.973 186.914 171.986 186.943 171.996 186.957C172.006 186.971 172.015 186.977 172.021 186.979C172.026 186.982 172.036 186.984 172.05 186.982C172.064 186.979 172.089 186.971 172.121 186.945C174.05 185.303 176.388 183.719 179.158 184.303C179.411 184.356 179.674 184.419 179.936 184.481C179.967 184.489 179.998 184.496 180.03 184.504C180.325 184.575 180.62 184.644 180.915 184.702C181.508 184.818 182.074 184.881 182.587 184.815L182.588 184.815L182.589 184.814C184.203 184.614 185.519 183.893 186.301 182.374L186.301 182.372L186.302 182.371C187.016 181.005 187.225 179.53 186.886 178.336C186.553 177.164 185.685 176.228 184.144 175.901L184.143 175.901L184.141 175.901C184.141 175.901 184.14 175.9 184.14 175.9C184.138 175.901 184.134 175.902 184.129 175.904L183.996 175.954L183.864 175.902C182.598 175.401 181.417 174.757 180.37 173.623L180.37 173.622L180.369 173.621C180.03 173.249 179.706 172.874 179.386 172.502C178.772 171.788 178.171 171.089 177.494 170.46L177.493 170.459C176.804 169.816 176.119 169.275 175.403 168.992C174.708 168.718 173.976 168.684 173.156 169.073Z" fill="#2C2C2C"/>
<path d="M117.729 154.412H197.529C198.483 154.412 199.399 154.791 200.074 155.466C200.749 156.141 201.128 157.057 201.128 158.011V202.843H114.129V158.011C114.129 157.057 114.508 156.141 115.183 155.466C115.858 154.791 116.774 154.412 117.729 154.412Z" fill="white"/>
<path fill-rule="evenodd" clip-rule="evenodd" d="M117.729 154.871C116.896 154.871 116.097 155.201 115.508 155.791C114.919 156.38 114.588 157.178 114.588 158.011V202.384H200.67V158.011C200.67 157.178 200.339 156.38 199.75 155.791C199.161 155.201 198.362 154.871 197.529 154.871H117.729ZM114.859 155.142C115.62 154.38 116.652 153.953 117.729 153.953H197.529C198.605 153.953 199.638 154.38 200.399 155.142C201.16 155.903 201.587 156.935 201.587 158.011V202.843C201.587 203.097 201.382 203.302 201.129 203.302H114.129C113.876 203.302 113.67 203.097 113.67 202.843V158.011C113.67 156.935 114.098 155.903 114.859 155.142Z" fill="#2C2C2C"/>
<path d="M201.128 170.524C190.2 173.296 178.983 180.352 158.082 190.287C137.923 199.877 121.422 199.711 114.129 198.97V202.843H201.128V170.524Z" fill="#2C2C2C"/>
<path fill-rule="evenodd" clip-rule="evenodd" d="M201.41 170.162C201.522 170.249 201.587 170.383 201.587 170.524V202.843C201.587 203.097 201.382 203.302 201.129 203.302H114.129C113.876 203.302 113.67 203.097 113.67 202.843V198.97C113.67 198.84 113.725 198.716 113.821 198.629C113.918 198.542 114.046 198.5 114.175 198.513C121.406 199.248 137.819 199.418 157.885 189.873L157.885 189.873C164.769 186.6 170.594 183.645 175.711 181.048C178.361 179.703 180.822 178.455 183.141 177.308C189.928 173.954 195.501 171.478 201.016 170.08C201.153 170.045 201.299 170.075 201.41 170.162ZM158.279 190.701C138.479 200.121 122.179 200.176 114.588 199.475V202.384H200.67V171.118C195.439 172.515 190.089 174.898 183.548 178.131C181.244 179.269 178.791 180.514 176.144 181.857C171.02 184.457 165.172 187.425 158.279 190.701Z" fill="#2C2C2C"/>
<path d="M201.128 200.158H114.129V202.851H201.128V200.158Z" fill="white"/>
<path fill-rule="evenodd" clip-rule="evenodd" d="M113.67 200.158C113.67 199.905 113.876 199.699 114.129 199.699H201.129C201.382 199.699 201.587 199.905 201.587 200.158V202.851C201.587 203.104 201.382 203.31 201.129 203.31H114.129C113.876 203.31 113.67 203.104 113.67 202.851V200.158ZM114.588 200.617V202.392H200.67V200.617H114.588Z" fill="#2C2C2C"/>
</svg>
