<svg width="227" height="201" viewBox="0 0 227 201" fill="none" xmlns="http://www.w3.org/2000/svg">
<path d="M202.09 70.67C194.067 61.7955 180.623 60.8031 170.169 54.9853C152.178 44.9728 145.204 22.1736 128.836 9.68233C118.515 1.79589 104.537 -1.26077 92.0501 0.468249C74.3232 2.92063 57.6461 14.8032 52.6399 32.2257C51.2027 37.299 50.6887 42.5892 51.1226 47.8443C51.9209 58.2316 54.1572 68.7513 52.0488 78.9534C49.7244 90.1964 42.4113 99.684 38.0403 110.309C32.5974 123.542 31.8652 138.362 34.172 152.468C35.7599 162.092 38.9268 171.809 45.5342 178.981C46.037 179.523 46.553 180.039 47.0867 180.546H119.247C123.772 174.773 127.186 167.941 131.187 161.876C141.208 146.623 157.254 135.746 174.778 130.643C182.63 128.358 191.133 127 197.441 121.795C203.934 116.445 206.915 107.906 208.203 99.5913C209.769 89.5083 208.935 78.2256 202.09 70.67Z" fill="#50BFD7"/>
<path opacity="0.7" d="M202.09 70.67C194.067 61.7955 180.623 60.8031 170.169 54.9853C152.178 44.9728 145.204 22.1736 128.836 9.68233C118.515 1.79589 104.537 -1.26077 92.0501 0.468249C74.3232 2.92063 57.6461 14.8032 52.6399 32.2257C51.2027 37.299 50.6887 42.5892 51.1226 47.8443C51.9209 58.2316 54.1572 68.7513 52.0488 78.9534C49.7244 90.1964 42.4113 99.684 38.0403 110.309C32.5974 123.542 31.8652 138.362 34.172 152.468C35.7599 162.092 38.9268 171.809 45.5342 178.981C46.037 179.523 46.553 180.039 47.0867 180.546H119.247C123.772 174.773 127.186 167.941 131.187 161.876C141.208 146.623 157.254 135.746 174.778 130.643C182.63 128.358 191.133 127 197.441 121.795C203.934 116.445 206.915 107.906 208.203 99.5913C209.769 89.5083 208.935 78.2256 202.09 70.67Z" fill="white"/>
<path fill-rule="evenodd" clip-rule="evenodd" d="M184.566 156.486L184.548 156.706C184.566 156.486 184.566 156.486 184.566 156.486L184.566 156.486L184.568 156.486L184.572 156.487L184.587 156.488C184.601 156.489 184.62 156.491 184.646 156.494C184.696 156.499 184.77 156.507 184.863 156.52C185.049 156.544 185.315 156.584 185.633 156.648C186.27 156.776 187.125 156.999 187.991 157.379C189.718 158.137 191.539 159.548 191.685 162.119C191.69 162.209 191.639 162.294 191.557 162.332L191.465 162.131C191.557 162.332 191.557 162.332 191.556 162.332L191.556 162.332L191.555 162.333L191.55 162.335L191.534 162.342C191.52 162.348 191.5 162.357 191.474 162.368C191.422 162.389 191.347 162.419 191.252 162.455C191.061 162.525 190.79 162.615 190.464 162.695C189.815 162.856 188.936 162.983 188.042 162.83C187.142 162.676 186.229 162.238 185.532 161.276C184.84 160.32 184.377 158.867 184.328 156.711C184.327 156.649 184.352 156.589 184.397 156.546C184.442 156.503 184.504 156.481 184.566 156.486ZM191.233 161.989C191.039 159.757 189.438 158.496 187.814 157.783C186.985 157.419 186.163 157.205 185.547 157.081C185.239 157.019 184.983 156.98 184.805 156.957C184.796 156.956 184.786 156.954 184.777 156.953C184.854 158.913 185.293 160.193 185.89 161.018C186.508 161.871 187.311 162.258 188.116 162.395C188.928 162.534 189.741 162.42 190.358 162.267C190.665 162.191 190.921 162.106 191.099 162.041C191.15 162.022 191.195 162.004 191.233 161.989Z" fill="#263238"/>
<path fill-rule="evenodd" clip-rule="evenodd" d="M198.017 157.863C199.406 158.648 200.651 158.904 201.738 158.849C202.885 158.792 203.872 158.39 204.683 157.874C205.495 157.357 206.125 156.729 206.553 156.228C206.767 155.978 206.929 155.761 207.038 155.607C207.044 155.598 207.05 155.59 207.056 155.582C204.246 154.463 201.978 155.05 200.395 155.931C199.578 156.385 198.942 156.918 198.511 157.338C198.295 157.548 198.132 157.729 198.022 157.857C198.021 157.859 198.019 157.861 198.017 157.863ZM207.387 155.48L207.576 155.594C207.609 155.54 207.617 155.473 207.597 155.413C207.578 155.352 207.533 155.303 207.474 155.278C204.403 153.96 201.905 154.586 200.181 155.545C199.321 156.023 198.655 156.583 198.203 157.022C197.977 157.243 197.804 157.433 197.687 157.57C197.629 157.638 197.584 157.693 197.554 157.731C197.539 157.75 197.527 157.765 197.519 157.776L197.51 157.788L197.508 157.791L197.507 157.792L197.507 157.792C197.506 157.793 197.506 157.793 197.684 157.924L197.506 157.793C197.469 157.843 197.455 157.906 197.467 157.967C197.48 158.028 197.517 158.081 197.57 158.113C199.114 159.038 200.519 159.352 201.76 159.29C203 159.228 204.06 158.793 204.92 158.246C205.779 157.699 206.441 157.038 206.889 156.515C207.112 156.253 207.283 156.024 207.399 155.861C207.456 155.779 207.5 155.713 207.53 155.668C207.545 155.645 207.556 155.627 207.564 155.615L207.573 155.6L207.575 155.596L207.576 155.595L207.576 155.595C207.576 155.594 207.576 155.594 207.387 155.48Z" fill="#263238"/>
<path fill-rule="evenodd" clip-rule="evenodd" d="M199.46 148.938C201.499 149.515 202.948 149.392 203.979 148.91C205.048 148.41 205.707 147.506 206.109 146.5C206.512 145.492 206.652 144.396 206.689 143.546C206.707 143.122 206.7 142.762 206.688 142.509C206.685 142.432 206.681 142.365 206.677 142.31C204.419 142.356 202.616 143.981 201.35 145.678C200.702 146.546 200.206 147.418 199.871 148.074C199.704 148.401 199.577 148.674 199.492 148.865C199.481 148.891 199.47 148.915 199.46 148.938ZM206.88 142.089L207.099 142.065C207.087 141.955 206.995 141.871 206.885 141.869C204.309 141.816 202.32 143.64 200.996 145.415C200.33 146.308 199.821 147.202 199.478 147.873C199.307 148.209 199.177 148.489 199.089 148.686C199.046 148.785 199.012 148.862 198.99 148.916C198.979 148.942 198.971 148.963 198.965 148.977L198.958 148.993L198.957 148.998L198.956 148.999C198.956 148.999 198.956 148.999 199.161 149.08L198.956 148.999C198.933 149.057 198.936 149.121 198.963 149.176C198.99 149.232 199.038 149.273 199.097 149.291C201.325 149.966 202.965 149.871 204.166 149.31C205.367 148.748 206.089 147.738 206.519 146.664C206.947 145.592 207.091 144.441 207.129 143.565C207.148 143.126 207.141 142.752 207.129 142.488C207.123 142.356 207.115 142.251 207.11 142.179C207.107 142.143 207.104 142.115 207.102 142.096L207.1 142.073L207.1 142.067L207.099 142.066L207.099 142.065C207.099 142.065 207.099 142.065 206.88 142.089Z" fill="#263238"/>
<path fill-rule="evenodd" clip-rule="evenodd" d="M196.201 136.527L196.096 136.721C196.201 136.527 196.2 136.527 196.201 136.527L196.201 136.527L196.203 136.528L196.207 136.53L196.223 136.539C196.237 136.547 196.258 136.559 196.283 136.574C196.335 136.604 196.41 136.648 196.502 136.707C196.687 136.823 196.944 136.995 197.236 137.22C197.819 137.669 198.547 138.331 199.114 139.181C199.682 140.033 200.093 141.08 200.023 142.29C199.952 143.501 199.401 144.846 198.099 146.294C198.02 146.382 197.885 146.392 197.794 146.316L197.935 146.147C197.794 146.316 197.794 146.317 197.794 146.316L197.793 146.315L197.789 146.312L197.778 146.302C197.768 146.294 197.753 146.281 197.735 146.265C197.698 146.232 197.645 146.184 197.579 146.122C197.448 145.996 197.265 145.812 197.055 145.575C196.636 145.1 196.109 144.41 195.679 143.545C194.814 141.811 194.34 139.375 195.904 136.612C195.963 136.508 196.095 136.47 196.201 136.527ZM197.917 145.834C199.062 144.508 199.522 143.31 199.582 142.265C199.646 141.175 199.278 140.221 198.747 139.426C198.216 138.63 197.527 138.001 196.967 137.57C196.688 137.355 196.442 137.19 196.267 137.08C196.236 137.06 196.207 137.042 196.18 137.026C194.835 139.549 195.279 141.753 196.073 143.349C196.482 144.17 196.985 144.829 197.386 145.283C197.586 145.51 197.76 145.685 197.884 145.802C197.895 145.813 197.906 145.824 197.917 145.834Z" fill="#263238"/>
<path fill-rule="evenodd" clip-rule="evenodd" d="M187.552 145.34L187.53 145.12C187.417 145.132 187.332 145.226 187.332 145.34C187.332 147.017 187.818 148.273 188.559 149.205C189.298 150.135 190.279 150.73 191.247 151.11C192.215 151.491 193.18 151.661 193.901 151.736C194.262 151.773 194.563 151.787 194.775 151.791C194.881 151.793 194.964 151.792 195.023 151.791C195.052 151.791 195.075 151.79 195.091 151.789C195.099 151.789 195.107 151.789 195.113 151.788C195.116 151.788 195.121 151.788 195.126 151.787C195.128 151.787 195.135 151.786 195.143 151.785C195.149 151.784 195.164 151.78 195.174 151.777C195.198 151.767 195.297 151.674 195.324 151.568C195.324 149.779 194.84 148.467 194.098 147.512C193.357 146.559 192.374 145.978 191.403 145.626C190.432 145.275 189.465 145.149 188.744 145.11C188.382 145.091 188.081 145.093 187.869 145.1C187.763 145.104 187.679 145.109 187.622 145.113C187.593 145.115 187.57 145.117 187.555 145.118L187.537 145.12L187.532 145.12L187.531 145.12L187.53 145.12C187.53 145.12 187.53 145.12 187.552 145.34ZM187.884 145.541C187.844 145.542 187.808 145.544 187.775 145.546C187.813 147.027 188.26 148.119 188.905 148.931C189.582 149.782 190.489 150.338 191.408 150.7C192.328 151.061 193.251 151.225 193.946 151.297C194.293 151.333 194.582 151.346 194.783 151.35C194.818 151.351 194.851 151.351 194.88 151.351C194.843 149.76 194.394 148.613 193.749 147.782C193.074 146.912 192.169 146.373 191.253 146.041C190.336 145.709 189.415 145.588 188.72 145.551C188.374 145.532 188.085 145.534 187.884 145.541Z" fill="#263238"/>
<path fill-rule="evenodd" clip-rule="evenodd" d="M197.149 139.396C197.262 139.351 197.39 139.407 197.434 139.521C199.185 143.975 198.043 150.246 194.735 157.612C193.324 160.757 193.321 163.731 193.431 166.064C193.437 166.186 193.343 166.289 193.221 166.295C193.1 166.301 192.996 166.207 192.991 166.085C192.88 163.734 192.878 160.674 194.333 157.432L194.333 157.432C197.632 150.084 198.705 143.96 197.024 139.682C196.979 139.569 197.035 139.44 197.149 139.396Z" fill="#263238"/>
<path fill-rule="evenodd" clip-rule="evenodd" d="M189.826 147.137C189.871 147.024 189.999 146.969 190.112 147.014L190.031 147.219C190.112 147.014 190.112 147.014 190.113 147.014L190.113 147.014L190.114 147.014L190.117 147.016L190.128 147.02C190.137 147.024 190.151 147.03 190.169 147.037C190.204 147.052 190.255 147.075 190.321 147.105C190.451 147.165 190.638 147.255 190.867 147.379C191.324 147.625 191.948 148.002 192.622 148.527C193.968 149.577 195.518 151.226 196.305 153.611C196.343 153.727 196.281 153.852 196.165 153.89C196.049 153.928 195.924 153.865 195.886 153.75C195.134 151.473 193.652 149.891 192.35 148.875C191.7 148.368 191.097 148.004 190.657 147.767C190.438 147.648 190.259 147.562 190.136 147.505C190.075 147.477 190.027 147.456 189.995 147.443C189.98 147.436 189.968 147.431 189.96 147.428L189.951 147.424L189.95 147.424L189.949 147.424L189.949 147.424C189.836 147.378 189.781 147.25 189.826 147.137Z" fill="#263238"/>
<path fill-rule="evenodd" clip-rule="evenodd" d="M204.62 145.771C204.718 145.843 204.739 145.981 204.667 146.079L204.489 145.948C204.667 146.079 204.667 146.079 204.667 146.079L204.667 146.079L204.666 146.08L204.664 146.083L204.658 146.091C204.652 146.099 204.644 146.11 204.633 146.124C204.611 146.151 204.58 146.191 204.538 146.242C204.455 146.342 204.332 146.484 204.171 146.652C203.848 146.988 203.371 147.432 202.753 147.863C201.515 148.726 199.7 149.546 197.413 149.348C197.292 149.338 197.202 149.231 197.213 149.11C197.223 148.988 197.33 148.898 197.451 148.909C199.606 149.095 201.32 148.325 202.5 147.501C203.091 147.09 203.545 146.667 203.852 146.347C204.005 146.187 204.121 146.053 204.199 145.96C204.237 145.913 204.266 145.877 204.285 145.853C204.294 145.841 204.301 145.832 204.306 145.826L204.311 145.819L204.312 145.818L204.312 145.818C204.312 145.818 204.312 145.818 204.312 145.818M204.62 145.771C204.522 145.699 204.384 145.72 204.312 145.818L204.62 145.771Z" fill="#263238"/>
<path fill-rule="evenodd" clip-rule="evenodd" d="M204.701 156.442C204.735 156.559 204.667 156.681 204.55 156.715L204.489 156.503L204.428 156.291C204.545 156.258 204.667 156.325 204.701 156.442ZM204.428 156.291C204.428 156.291 204.428 156.291 204.489 156.503C204.55 156.715 204.551 156.715 204.55 156.715L204.545 156.717L204.529 156.721L204.467 156.739C204.413 156.754 204.333 156.776 204.231 156.804C204.026 156.861 203.731 156.94 203.367 157.033C202.641 157.219 201.642 157.46 200.552 157.679C199.462 157.899 198.278 158.098 197.184 158.199C196.094 158.299 195.072 158.304 194.316 158.125C194.197 158.097 194.124 157.978 194.152 157.859C194.18 157.741 194.299 157.668 194.418 157.696C195.101 157.858 196.065 157.859 197.143 157.759C198.216 157.66 199.383 157.465 200.464 157.247C201.545 157.029 202.536 156.79 203.258 156.606C203.619 156.513 203.912 156.435 204.114 156.379C204.215 156.351 204.294 156.329 204.347 156.314L204.408 156.297L204.423 156.293L204.428 156.291Z" fill="#263238"/>
<path fill-rule="evenodd" clip-rule="evenodd" d="M186.565 158.749C186.655 158.667 186.795 158.673 186.877 158.763L186.877 158.764L186.879 158.765L186.885 158.772C186.891 158.778 186.9 158.788 186.911 158.8C186.935 158.826 186.971 158.863 187.017 158.91C187.11 159.005 187.247 159.142 187.421 159.305C187.771 159.633 188.27 160.069 188.869 160.503C190.076 161.378 191.651 162.216 193.207 162.189C193.329 162.187 193.429 162.284 193.431 162.406C193.433 162.527 193.337 162.628 193.215 162.63C191.511 162.66 189.838 161.75 188.611 160.861C187.993 160.413 187.479 159.964 187.12 159.627C186.94 159.459 186.798 159.318 186.702 159.218C186.653 159.169 186.616 159.13 186.59 159.103C186.578 159.089 186.568 159.079 186.561 159.072L186.554 159.063L186.552 159.061L186.551 159.061C186.551 159.06 186.551 159.06 186.714 158.912L186.551 159.061C186.469 158.97 186.475 158.831 186.565 158.749Z" fill="#263238"/>
<path fill-rule="evenodd" clip-rule="evenodd" d="M185.652 166.031C185.765 165.918 185.919 165.854 186.079 165.854H201.821C201.828 165.854 201.835 165.855 201.841 165.855C201.992 165.869 202.132 165.939 202.233 166.051C202.335 166.162 202.391 166.308 202.39 166.459V166.459H202.17L202.39 166.459M201.541 168.258L201.564 168.063L201.345 168.038V168.258H201.541ZM186.079 166.295C186.036 166.295 185.994 166.313 185.964 166.343C185.933 166.374 185.916 166.415 185.916 166.459V167.654C185.916 167.697 185.933 167.739 185.964 167.769C185.994 167.8 186.036 167.817 186.079 167.817H186.52C186.632 167.817 186.727 167.901 186.739 168.012L188.12 180.057H199.745L201.126 168.012C201.138 167.901 201.233 167.817 201.345 167.817H201.786C201.829 167.817 201.871 167.8 201.901 167.769C201.932 167.739 201.949 167.697 201.949 167.654V166.459L201.949 166.458C201.949 166.417 201.934 166.377 201.907 166.347C201.881 166.319 201.846 166.301 201.809 166.295H186.079ZM185.652 166.031C185.539 166.145 185.475 166.298 185.475 166.459L185.652 166.031ZM185.475 166.459V167.654V166.459ZM185.475 167.654C185.475 167.814 185.539 167.968 185.652 168.081L185.475 167.654ZM185.652 168.081C185.765 168.194 185.919 168.258 186.079 168.258L185.652 168.081ZM186.079 168.258H186.323H186.079Z" fill="#263238"/>
<path fill-rule="evenodd" clip-rule="evenodd" d="M187.332 168.037C187.332 167.916 187.43 167.817 187.552 167.817H196.704C196.826 167.817 196.925 167.916 196.925 168.037C196.925 168.159 196.826 168.258 196.704 168.258H187.552C187.43 168.258 187.332 168.159 187.332 168.037Z" fill="#263238"/>
<path fill-rule="evenodd" clip-rule="evenodd" d="M198.213 168.037C198.213 167.916 198.312 167.817 198.433 167.817H199.81C199.931 167.817 200.03 167.916 200.03 168.037C200.03 168.159 199.931 168.258 199.81 168.258H198.433C198.312 168.258 198.213 168.159 198.213 168.037Z" fill="#263238"/>
<path fill-rule="evenodd" clip-rule="evenodd" d="M26.6118 180.529C26.6118 180.407 26.7106 180.308 26.8324 180.308H211.864C211.986 180.308 212.084 180.407 212.084 180.529C212.084 180.651 211.986 180.749 211.864 180.749H26.8324C26.7106 180.749 26.6118 180.651 26.6118 180.529Z" fill="#263238"/>
<path d="M133.511 20.3211V142.905C133.511 143.187 133.312 143.457 132.957 143.657C132.601 143.856 132.119 143.968 131.617 143.968H2.2009C1.69845 143.968 1.21657 143.856 0.861284 143.657C0.505995 143.457 0.306396 143.187 0.306396 142.905V20.3211C0.306396 20.0392 0.505995 19.7688 0.861284 19.5694C1.21657 19.3701 1.69845 19.2581 2.2009 19.2581H43.1175C43.6492 19.2581 44.159 19.3766 44.535 19.5875C44.9109 19.7984 45.1221 20.0845 45.1221 20.3828V22.9587C45.1221 23.257 45.3333 23.5431 45.7092 23.754C46.0851 23.965 46.595 24.0835 47.1267 24.0835H86.699C87.2307 24.0835 87.7406 23.965 88.1165 23.754C88.4924 23.5431 88.7036 23.257 88.7036 22.9587V20.3828C88.7036 20.0845 88.9148 19.7984 89.2907 19.5875C89.6667 19.3766 90.1765 19.2581 90.7082 19.2581H131.585C131.837 19.2557 132.087 19.2815 132.32 19.3339C132.554 19.3862 132.766 19.4642 132.945 19.5631C133.125 19.6621 133.267 19.78 133.364 19.9102C133.461 20.0403 133.511 20.18 133.511 20.3211Z" fill="white"/>
<path fill-rule="evenodd" clip-rule="evenodd" d="M132.272 19.5494C132.056 19.5009 131.823 19.4767 131.587 19.4789L131.585 19.4789H90.708C90.2054 19.4789 89.7346 19.5916 89.3985 19.7802C89.0578 19.9713 88.924 20.1974 88.924 20.3832V22.959C88.924 23.3699 88.6354 23.716 88.2242 23.9467C87.8085 24.18 87.2596 24.3043 86.6989 24.3043H47.1265C46.5658 24.3043 46.0169 24.18 45.6011 23.9467C45.19 23.716 44.9014 23.3699 44.9014 22.959V20.3832C44.9014 20.1974 44.7676 19.9713 44.4269 19.7802C44.0908 19.5916 43.6199 19.4789 43.1174 19.4789H2.20074C1.72735 19.4789 1.28451 19.5851 0.969035 19.7621C0.64895 19.9417 0.52677 20.1521 0.52677 20.3214V142.905C0.52677 143.075 0.64895 143.285 0.969035 143.465C1.28451 143.642 1.72735 143.748 2.20074 143.748H131.617C132.09 143.748 132.533 143.642 132.848 143.465C133.169 143.285 133.291 143.075 133.291 142.905V20.3213C133.291 20.2348 133.261 20.1405 133.187 20.0424C133.113 19.9431 132.997 19.8441 132.839 19.7565C132.681 19.6692 132.488 19.5979 132.272 19.5494ZM131.584 19.0379C131.851 19.0355 132.118 19.0628 132.368 19.119C132.619 19.1752 132.852 19.2598 133.052 19.3704C133.252 19.4806 133.421 19.6176 133.541 19.7785C133.662 19.9408 133.732 20.1258 133.732 20.3215V142.905C133.732 143.3 133.455 143.63 133.064 143.849C132.669 144.071 132.148 144.189 131.617 144.189H2.20074C1.66922 144.189 1.14831 144.071 0.753203 143.849C0.36271 143.63 0.0856934 143.3 0.0856934 142.905V20.3214C0.0856934 19.9269 0.36271 19.5965 0.753203 19.3774C1.14831 19.1557 1.66922 19.0379 2.20074 19.0379H43.1174C43.6781 19.0379 44.227 19.1622 44.6427 19.3955C45.0539 19.6262 45.3425 19.9723 45.3425 20.3832V22.959C45.3425 23.1447 45.4762 23.3708 45.817 23.562C46.1531 23.7506 46.6239 23.8632 47.1265 23.8632H86.6989C87.2015 23.8632 87.6723 23.7506 88.0084 23.562C88.3491 23.3708 88.4829 23.1447 88.4829 22.959V20.3832C88.4829 19.9723 88.7715 19.6262 89.1826 19.3955C89.5984 19.1622 90.1473 19.0379 90.708 19.0379H131.584Z" fill="#263238"/>
<path d="M133.511 31.3524H0.306396V42.6131H133.511V31.3524Z" fill="#BFBFBF"/>
<path fill-rule="evenodd" clip-rule="evenodd" d="M0.0859375 31.3524C0.0859375 31.2306 0.184676 31.1318 0.306476 31.1318H133.512C133.633 31.1318 133.732 31.2306 133.732 31.3524V42.6131C133.732 42.7349 133.633 42.8336 133.512 42.8336H0.306476C0.184676 42.8336 0.0859375 42.7349 0.0859375 42.6131V31.3524ZM0.527014 31.5729V42.3925H133.291V31.5729H0.527014Z" fill="#263238"/>
<path fill-rule="evenodd" clip-rule="evenodd" d="M118.3 35.5955C118.3 35.4737 118.399 35.375 118.52 35.375H123.544C123.665 35.375 123.764 35.4737 123.764 35.5955C123.764 35.7173 123.665 35.8161 123.544 35.8161H118.52C118.399 35.8161 118.3 35.7173 118.3 35.5955Z" fill="#263238"/>
<path fill-rule="evenodd" clip-rule="evenodd" d="M118.3 36.8967C118.3 36.7749 118.399 36.6761 118.52 36.6761H123.544C123.665 36.6761 123.764 36.7749 123.764 36.8967C123.764 37.0185 123.665 37.1172 123.544 37.1172H118.52C118.399 37.1172 118.3 37.0185 118.3 36.8967Z" fill="#263238"/>
<path fill-rule="evenodd" clip-rule="evenodd" d="M118.3 38.1936C118.3 38.0718 118.399 37.973 118.52 37.973H123.544C123.665 37.973 123.764 38.0718 123.764 38.1936C123.764 38.3154 123.665 38.4141 123.544 38.4141H118.52C118.399 38.4141 118.3 38.3154 118.3 38.1936Z" fill="#263238"/>
<path fill-rule="evenodd" clip-rule="evenodd" d="M9.802 36.8967C9.802 36.7749 9.90074 36.6761 10.0225 36.6761H14.2675C14.3893 36.6761 14.488 36.7749 14.488 36.8967C14.488 37.0185 14.3893 37.1172 14.2675 37.1172H10.0225C9.90074 37.1172 9.802 37.0185 9.802 36.8967Z" fill="#263238"/>
<path fill-rule="evenodd" clip-rule="evenodd" d="M12.1646 35.3422C12.2242 35.4484 12.1864 35.5828 12.0802 35.6424L9.85239 36.8924L12.0802 38.1424C12.1864 38.202 12.2242 38.3364 12.1646 38.4426C12.105 38.5489 11.9706 38.5866 11.8643 38.527L9.29377 37.0847C9.22422 37.0457 9.18115 36.9722 9.18115 36.8924C9.18115 36.8126 9.22422 36.7391 9.29377 36.7001L11.8643 35.2577C11.9706 35.1981 12.105 35.2359 12.1646 35.3422Z" fill="#263238"/>
<path fill-rule="evenodd" clip-rule="evenodd" d="M104.567 35.5955C104.567 35.4737 104.666 35.375 104.787 35.375H111.116C111.237 35.375 111.336 35.4737 111.336 35.5955V38.1891C111.336 38.3109 111.237 38.4096 111.116 38.4096H104.787C104.666 38.4096 104.567 38.3109 104.567 38.1891V35.5955ZM105.008 35.8161V37.9685H110.895V35.8161H105.008Z" fill="#263238"/>
<path fill-rule="evenodd" clip-rule="evenodd" d="M111.32 35.5119C111.366 35.6247 111.312 35.7534 111.199 35.7996L108.031 37.0963C107.978 37.1183 107.917 37.1183 107.864 37.0963L104.704 35.7995C104.591 35.7533 104.537 35.6244 104.583 35.5118C104.63 35.3991 104.759 35.3452 104.871 35.3914L107.948 36.6539L111.032 35.3914C111.145 35.3452 111.274 35.3992 111.32 35.5119Z" fill="#263238"/>
<path fill-rule="evenodd" clip-rule="evenodd" d="M91.6156 35.4543C91.6575 35.4041 91.7196 35.375 91.785 35.375H97.1777C97.2431 35.375 97.3051 35.4041 97.347 35.4543C97.3889 35.5046 97.4064 35.5708 97.3946 35.6352L96.8286 38.7316C96.8095 38.8363 96.7182 38.9124 96.6117 38.9124H92.351C92.2445 38.9124 92.1532 38.8363 92.134 38.7316L91.568 35.6352C91.5563 35.5708 91.5737 35.5046 91.6156 35.4543ZM92.0495 35.8161L92.5349 38.4714H96.4278L96.9132 35.8161H92.0495Z" fill="#263238"/>
<path fill-rule="evenodd" clip-rule="evenodd" d="M93.2002 35.0972C93.2002 34.9754 93.2989 34.8767 93.4207 34.8767H95.5511C95.6729 34.8767 95.7716 34.9754 95.7716 35.0972V35.5957C95.7716 35.7175 95.6729 35.8162 95.5511 35.8162C95.4293 35.8162 95.3305 35.7175 95.3305 35.5957V35.3178H93.6413V35.5957C93.6413 35.7175 93.5425 35.8162 93.4207 35.8162C93.2989 35.8162 93.2002 35.7175 93.2002 35.5957V35.0972Z" fill="#263238"/>
<path d="M133.511 135.023V142.905C133.512 143.044 133.464 143.182 133.37 143.311C133.276 143.44 133.137 143.558 132.962 143.656C132.786 143.755 132.578 143.834 132.349 143.887C132.119 143.94 131.873 143.968 131.625 143.968H2.2009C1.69845 143.968 1.21657 143.856 0.861284 143.657C0.505995 143.457 0.306396 143.187 0.306396 142.905V135.023H133.511Z" fill="#50BFD7"/>
<path fill-rule="evenodd" clip-rule="evenodd" d="M0.0859375 135.023C0.0859375 134.901 0.184676 134.802 0.306476 134.802H133.512C133.633 134.802 133.732 134.901 133.732 135.023V142.903C133.733 143.097 133.666 143.28 133.548 143.442C133.431 143.601 133.266 143.738 133.07 143.848C132.874 143.959 132.645 144.044 132.399 144.102C132.152 144.159 131.889 144.188 131.625 144.188H2.20098C1.66946 144.188 1.14855 144.07 0.753447 143.849C0.362954 143.63 0.0859375 143.299 0.0859375 142.905V135.023ZM0.527014 135.243V142.905C0.527014 143.074 0.649194 143.285 0.969279 143.464C1.28475 143.641 1.72759 143.747 2.20098 143.747H131.625C131.857 143.747 132.086 143.721 132.299 143.672C132.511 143.623 132.699 143.551 132.853 143.464C133.008 143.377 133.121 143.279 133.192 143.181C133.263 143.085 133.292 142.992 133.291 142.906L133.291 142.905V135.243H0.527014Z" fill="#263238"/>
<path d="M133.511 122.408H0.306396V135.023H133.511V122.408Z" fill="#BFBFBF"/>
<path fill-rule="evenodd" clip-rule="evenodd" d="M0.0859375 122.408C0.0859375 122.286 0.184676 122.188 0.306476 122.188H133.512C133.633 122.188 133.732 122.286 133.732 122.408V135.023C133.732 135.145 133.633 135.243 133.512 135.243H0.306476C0.184676 135.243 0.0859375 135.145 0.0859375 135.023V122.408ZM0.527014 122.629V134.802H133.291V122.629H0.527014Z" fill="#263238"/>
<path fill-rule="evenodd" clip-rule="evenodd" d="M11.2091 126.138C10.857 126.376 10.6718 126.682 10.6718 126.991V130.37C10.6718 130.679 10.857 130.984 11.2091 131.222C11.56 131.46 12.0571 131.614 12.6171 131.614H24.3988C24.9588 131.614 25.4559 131.46 25.8068 131.222C26.1589 130.984 26.3441 130.679 26.3441 130.37V126.991C26.3441 126.682 26.1589 126.376 25.8068 126.138C25.4559 125.901 24.9588 125.747 24.3988 125.747H12.6171C12.0571 125.747 11.56 125.901 11.2091 126.138ZM10.9621 125.773C11.3951 125.48 11.9809 125.306 12.6171 125.306H24.3988C25.035 125.306 25.6208 125.48 26.0538 125.773C26.4856 126.065 26.7852 126.491 26.7852 126.991V130.37C26.7852 130.869 26.4856 131.296 26.0538 131.588C25.6208 131.881 25.035 132.055 24.3988 132.055H12.6171C11.9809 132.055 11.3951 131.881 10.9621 131.588C10.5303 131.296 10.2307 130.869 10.2307 130.37V126.991C10.2307 126.491 10.5303 126.065 10.9621 125.773Z" fill="#263238"/>
<path fill-rule="evenodd" clip-rule="evenodd" d="M16.3367 128.407C16.3367 128.285 16.4354 128.186 16.5572 128.186H19.2841C19.5201 128.186 19.7548 128.218 19.9752 128.279C20.1954 128.341 20.3995 128.433 20.5747 128.551C20.7498 128.669 20.8951 128.814 20.997 128.98C21.0993 129.148 21.1551 129.332 21.1551 129.523V129.964C21.1551 130.086 21.0564 130.184 20.9346 130.184C20.8128 130.184 20.714 130.086 20.714 129.964V129.523C20.714 129.42 20.6844 129.315 20.6209 129.211C20.5569 129.106 20.4591 129.005 20.3276 128.916C20.1963 128.828 20.0365 128.755 19.8562 128.704C19.6762 128.654 19.4816 128.627 19.2841 128.627H16.5572C16.4354 128.627 16.3367 128.529 16.3367 128.407Z" fill="#263238"/>
<path fill-rule="evenodd" clip-rule="evenodd" d="M17.8889 127.294C17.9485 127.4 17.9107 127.534 17.8045 127.594L16.3707 128.398L17.8045 129.203C17.9107 129.262 17.9485 129.397 17.8889 129.503C17.8293 129.609 17.6949 129.647 17.5887 129.587L15.8121 128.591C15.7425 128.552 15.6995 128.478 15.6995 128.398C15.6995 128.319 15.7425 128.245 15.8121 128.206L17.5887 127.209C17.6949 127.15 17.8293 127.187 17.8889 127.294Z" fill="#263238"/>
<path fill-rule="evenodd" clip-rule="evenodd" d="M60.1684 126.138C59.8163 126.376 59.631 126.682 59.631 126.991V130.37C59.631 130.679 59.8163 130.984 60.1684 131.222C60.5192 131.46 61.0163 131.614 61.5763 131.614H73.3581C73.918 131.614 74.4152 131.46 74.766 131.222C75.1181 130.984 75.3034 130.679 75.3034 130.37V126.991C75.3034 126.682 75.1181 126.376 74.766 126.138C74.4152 125.901 73.918 125.747 73.3581 125.747H61.5763C61.0164 125.747 60.5192 125.901 60.1684 126.138ZM59.9213 125.773C60.3544 125.48 60.9402 125.306 61.5763 125.306H73.3581C73.9942 125.306 74.58 125.48 75.0131 125.773C75.4448 126.065 75.7444 126.491 75.7444 126.991V130.37C75.7444 130.869 75.4448 131.296 75.0131 131.588C74.58 131.881 73.9942 132.055 73.3581 132.055H61.5763C60.9402 132.055 60.3544 131.881 59.9213 131.588C59.4895 131.296 59.1899 130.869 59.1899 130.37V126.991C59.1899 126.491 59.4895 126.065 59.9213 125.773Z" fill="#263238"/>
<path fill-rule="evenodd" clip-rule="evenodd" d="M66.0789 128.407C66.0789 128.285 66.1776 128.186 66.2994 128.186H69.0263C69.5003 128.186 69.965 128.313 70.3169 128.551C70.6691 128.789 70.8973 129.134 70.8973 129.523V129.964C70.8973 130.086 70.7986 130.184 70.6768 130.184C70.555 130.184 70.4562 130.086 70.4562 129.964V129.523C70.4562 129.319 70.3366 129.097 70.0698 128.916C69.8027 128.736 69.4277 128.627 69.0263 128.627H66.2994C66.1776 128.627 66.0789 128.529 66.0789 128.407Z" fill="#263238"/>
<path fill-rule="evenodd" clip-rule="evenodd" d="M67.4669 127.278C67.5352 127.379 67.5087 127.516 67.4078 127.584L66.2036 128.398L67.4078 129.212C67.5087 129.281 67.5352 129.418 67.4669 129.519C67.3987 129.62 67.2616 129.646 67.1607 129.578L65.6864 128.581C65.6257 128.54 65.5894 128.472 65.5894 128.398C65.5894 128.325 65.6257 128.257 65.6864 128.216L67.1607 127.219C67.2616 127.151 67.3987 127.177 67.4669 127.278Z" fill="#263238"/>
<path fill-rule="evenodd" clip-rule="evenodd" d="M65.941 127.278C66.009 127.379 65.9822 127.516 65.8812 127.584L64.6721 128.398L65.8812 129.212C65.9822 129.28 66.009 129.417 65.941 129.518C65.873 129.619 65.7359 129.646 65.6349 129.578L64.154 128.581C64.0931 128.54 64.0566 128.472 64.0566 128.398C64.0566 128.325 64.0931 128.256 64.154 128.215L65.6349 127.219C65.7359 127.151 65.873 127.177 65.941 127.278Z" fill="#263238"/>
<path fill-rule="evenodd" clip-rule="evenodd" d="M123.285 131.227C123.637 130.989 123.822 130.683 123.822 130.374V126.995C123.822 126.686 123.637 126.381 123.285 126.143C122.934 125.905 122.437 125.751 121.877 125.751H110.095C109.535 125.751 109.038 125.905 108.687 126.143C108.335 126.381 108.15 126.686 108.15 126.995V130.374C108.15 130.683 108.335 130.989 108.687 131.227C109.038 131.464 109.535 131.618 110.095 131.618H121.877C122.437 131.618 122.934 131.464 123.285 131.227ZM123.532 131.592C123.099 131.885 122.513 132.059 121.877 132.059H110.095C109.459 132.059 108.873 131.885 108.44 131.592C108.008 131.3 107.708 130.874 107.708 130.374V126.995C107.708 126.496 108.008 126.069 108.44 125.777C108.873 125.484 109.459 125.31 110.095 125.31H121.877C122.513 125.31 123.099 125.484 123.532 125.777C123.963 126.069 124.263 126.496 124.263 126.995V130.374C124.263 130.874 123.963 131.3 123.532 131.592Z" fill="#263238"/>
<path fill-rule="evenodd" clip-rule="evenodd" d="M115.209 128.627C114.808 128.627 114.433 128.736 114.166 128.916C113.899 129.097 113.779 129.319 113.779 129.523V129.964C113.779 130.086 113.681 130.184 113.559 130.184C113.437 130.184 113.338 130.086 113.338 129.964V129.523C113.338 129.134 113.567 128.789 113.919 128.551C114.271 128.313 114.735 128.186 115.209 128.186H117.936C118.058 128.186 118.157 128.285 118.157 128.407C118.157 128.529 118.058 128.627 117.936 128.627H115.209Z" fill="#263238"/>
<path fill-rule="evenodd" clip-rule="evenodd" d="M116.749 127.278C116.817 127.177 116.954 127.15 117.055 127.219L118.529 128.215C118.59 128.256 118.626 128.325 118.626 128.398C118.626 128.471 118.59 128.54 118.529 128.581L117.055 129.578C116.954 129.646 116.817 129.619 116.749 129.518C116.681 129.418 116.707 129.28 116.808 129.212L118.012 128.398L116.808 127.584C116.707 127.516 116.681 127.379 116.749 127.278Z" fill="#263238"/>
<path d="M133.511 20.3167V31.3436H0.306396V20.3167C0.306396 20.0347 0.505995 19.7644 0.861284 19.565C1.21657 19.3657 1.69845 19.2537 2.2009 19.2537H43.1175C43.6492 19.2537 44.159 19.3722 44.535 19.5831C44.9109 19.794 45.1221 20.0801 45.1221 20.3784V22.9543C45.1221 23.2526 45.3333 23.5387 45.7092 23.7496C46.0851 23.9605 46.595 24.079 47.1267 24.079H86.699C87.2307 24.079 87.7405 23.9605 88.1165 23.7496C88.4924 23.5387 88.7036 23.2526 88.7036 22.9543V20.3828C88.7036 20.0845 88.9148 19.7984 89.2907 19.5875C89.6666 19.3766 90.1765 19.2581 90.7082 19.2581H131.585C131.837 19.2545 132.087 19.2793 132.321 19.331C132.555 19.3827 132.768 19.4601 132.947 19.5589C133.127 19.6576 133.269 19.7755 133.366 19.9057C133.463 20.0358 133.513 20.1756 133.511 20.3167Z" fill="#50BFD7"/>
<path fill-rule="evenodd" clip-rule="evenodd" d="M2.20074 19.4743C1.72735 19.4743 1.28451 19.5804 0.969034 19.7574C0.648949 19.937 0.52677 20.1474 0.52677 20.3167V31.1231H133.291V20.3167L133.291 20.315C133.291 20.229 133.262 20.1351 133.189 20.0374C133.116 19.9384 133 19.8396 132.841 19.7522C132.683 19.6651 132.49 19.5943 132.273 19.5464C132.057 19.4986 131.824 19.4754 131.588 19.4787L131.585 19.4787H90.708C90.2054 19.4787 89.7346 19.5913 89.3985 19.7799C89.0577 19.9711 88.924 20.1972 88.924 20.3829V22.9544C88.924 23.3653 88.6353 23.7113 88.2242 23.942C87.8085 24.1753 87.2596 24.2997 86.6989 24.2997H47.1265C46.5658 24.2997 46.0169 24.1753 45.6011 23.942C45.19 23.7113 44.9014 23.3653 44.9014 22.9544V20.3785C44.9014 20.1928 44.7676 19.9667 44.4269 19.7755C44.0908 19.5869 43.6199 19.4743 43.1174 19.4743H2.20074ZM0.753203 19.3728C1.14831 19.1511 1.66922 19.0332 2.20074 19.0332H43.1174C43.6781 19.0332 44.227 19.1576 44.6427 19.3908C45.0538 19.6215 45.3425 19.9676 45.3425 20.3785V22.9544C45.3425 23.1401 45.4762 23.3662 45.817 23.5574C46.1531 23.7459 46.6239 23.8586 47.1265 23.8586H86.6989C87.2014 23.8586 87.6723 23.7459 88.0084 23.5574C88.3491 23.3662 88.4829 23.1401 88.4829 22.9544V20.3829C88.4829 19.972 88.7715 19.6259 89.1826 19.3953C89.5984 19.162 90.1473 19.0376 90.708 19.0376H131.584C131.851 19.034 132.117 19.0603 132.368 19.1157C132.619 19.1712 132.853 19.2553 133.053 19.3657C133.254 19.4757 133.423 19.6128 133.543 19.7741C133.664 19.9367 133.733 20.1224 133.732 20.3185V31.3436C133.732 31.4654 133.633 31.5642 133.511 31.5642H0.306232C0.184432 31.5642 0.0856934 31.4654 0.0856934 31.3436V20.3167C0.0856934 19.9222 0.362711 19.5919 0.753203 19.3728Z" fill="#263238"/>
<path d="M67.522 68.813H8.92058C8.4265 68.813 7.93726 68.7157 7.48079 68.5266C7.02431 68.3375 6.60955 68.0604 6.26018 67.711C5.91081 67.3616 5.63367 66.9469 5.4446 66.4904C5.25552 66.0339 5.1582 65.5447 5.1582 65.0506V44.8361L9.60866 49.5468H67.522C68.0161 49.5468 68.5053 49.6441 68.9618 49.8332C69.4183 50.0222 69.833 50.2994 70.1824 50.6487C70.5318 50.9981 70.8089 51.4129 70.998 51.8693C71.1871 52.3258 71.2844 52.8151 71.2844 53.3091V65.0506C71.2844 65.5447 71.1871 66.0339 70.998 66.4904C70.8089 66.9469 70.5318 67.3616 70.1824 67.711C69.833 68.0604 69.4183 68.3375 68.9618 68.5266C68.5053 68.7157 68.0161 68.813 67.522 68.813Z" fill="#50BFD7"/>
<path d="M20.2873 59.18C20.2873 58.1332 19.9768 57.1098 19.3952 56.2394C18.8136 55.369 17.987 54.6906 17.0198 54.29C16.0527 53.8894 14.9885 53.7846 13.9617 53.9888C12.935 54.193 11.9919 54.6971 11.2517 55.4373C10.5114 56.1776 10.0073 57.1207 9.80312 58.1474C9.59889 59.1741 9.70371 60.2384 10.1043 61.2055C10.5049 62.1727 11.1833 62.9993 12.0538 63.5809C12.9242 64.1625 13.9475 64.4729 14.9943 64.4729C16.3981 64.4729 17.7444 63.9153 18.737 62.9227C19.7296 61.93 20.2873 60.5838 20.2873 59.18Z" fill="white"/>
<path fill-rule="evenodd" clip-rule="evenodd" d="M22.5503 53.5915C22.5503 53.3479 22.7478 53.1504 22.9914 53.1504H33.9521C34.1957 53.1504 34.3932 53.3479 34.3932 53.5915C34.3932 53.8351 34.1957 54.0325 33.9521 54.0325H22.9914C22.7478 54.0325 22.5503 53.8351 22.5503 53.5915Z" fill="#263238"/>
<path fill-rule="evenodd" clip-rule="evenodd" d="M22.7708 57.4112C22.7708 57.2894 22.8695 57.1907 22.9913 57.1907H65.7977C65.9196 57.1907 66.0183 57.2894 66.0183 57.4112C66.0183 57.533 65.9196 57.6318 65.7977 57.6318H22.9913C22.8695 57.6318 22.7708 57.533 22.7708 57.4112Z" fill="#263238"/>
<path fill-rule="evenodd" clip-rule="evenodd" d="M22.7708 60.5649C22.7708 60.4431 22.8695 60.3444 22.9913 60.3444H65.7977C65.9196 60.3444 66.0183 60.4431 66.0183 60.5649C66.0183 60.6867 65.9196 60.7854 65.7977 60.7854H22.9913C22.8695 60.7854 22.7708 60.6867 22.7708 60.5649Z" fill="#263238"/>
<path fill-rule="evenodd" clip-rule="evenodd" d="M22.7708 64.0539C22.7708 63.9321 22.8695 63.8334 22.9913 63.8334H65.7977C65.9196 63.8334 66.0183 63.9321 66.0183 64.0539C66.0183 64.1757 65.9196 64.2745 65.7977 64.2745H22.9913C22.8695 64.2745 22.7708 64.1757 22.7708 64.0539Z" fill="#263238"/>
<path d="M67.522 96.614H8.92058C7.92274 96.614 6.96576 96.2177 6.26018 95.5121C5.5546 94.8065 5.1582 93.8495 5.1582 92.8517V72.6239L9.60866 77.339H67.522C68.5198 77.339 69.4768 77.7354 70.1824 78.441C70.888 79.1466 71.2844 80.1035 71.2844 81.1014V92.8428C71.2855 93.3377 71.1891 93.8279 71.0005 94.2854C70.812 94.7428 70.535 95.1586 70.1855 95.5089C69.836 95.8593 69.4209 96.1372 68.9638 96.3268C68.5068 96.5164 68.0168 96.6141 67.522 96.614Z" fill="#50BFD7"/>
<path d="M20.2873 86.981C20.2873 85.9342 19.9768 84.9109 19.3952 84.0404C18.8136 83.17 17.987 82.4916 17.0198 82.091C16.0527 81.6904 14.9885 81.5856 13.9617 81.7898C12.935 81.994 11.9919 82.4981 11.2517 83.2384C10.5114 83.9786 10.0073 84.9217 9.80312 85.9484C9.59889 86.9752 9.70371 88.0394 10.1043 89.0065C10.5049 89.9737 11.1833 90.8003 12.0538 91.3819C12.9242 91.9635 13.9475 92.2739 14.9943 92.2739C16.3981 92.2739 17.7444 91.7163 18.737 90.7237C19.7296 89.7311 20.2873 88.3848 20.2873 86.981Z" fill="white"/>
<path fill-rule="evenodd" clip-rule="evenodd" d="M22.5503 81.3925C22.5503 81.1489 22.7478 80.9514 22.9914 80.9514H33.9521C34.1957 80.9514 34.3932 81.1489 34.3932 81.3925C34.3932 81.6361 34.1957 81.8336 33.9521 81.8336H22.9914C22.7478 81.8336 22.5503 81.6361 22.5503 81.3925Z" fill="#263238"/>
<path fill-rule="evenodd" clip-rule="evenodd" d="M22.7708 85.2122C22.7708 85.0904 22.8695 84.9917 22.9913 84.9917H65.7977C65.9196 84.9917 66.0183 85.0904 66.0183 85.2122C66.0183 85.334 65.9196 85.4328 65.7977 85.4328H22.9913C22.8695 85.4328 22.7708 85.334 22.7708 85.2122Z" fill="#263238"/>
<path fill-rule="evenodd" clip-rule="evenodd" d="M22.7708 88.3659C22.7708 88.2441 22.8695 88.1454 22.9913 88.1454H65.7977C65.9196 88.1454 66.0183 88.2441 66.0183 88.3659C66.0183 88.4877 65.9196 88.5865 65.7977 88.5865H22.9913C22.8695 88.5865 22.7708 88.4877 22.7708 88.3659Z" fill="#263238"/>
<path fill-rule="evenodd" clip-rule="evenodd" d="M22.7708 91.8548C22.7708 91.733 22.8695 91.6343 22.9913 91.6343H65.7977C65.9196 91.6343 66.0183 91.733 66.0183 91.8548C66.0183 91.9766 65.9196 92.0754 65.7977 92.0754H22.9913C22.8695 92.0754 22.7708 91.9766 22.7708 91.8548Z" fill="#263238"/>
<path d="M65.8198 119.096H124.426C125.423 119.096 126.38 118.699 127.086 117.994C127.792 117.288 128.188 116.331 128.188 115.333V95.1188L123.737 99.8339H65.8198C64.8219 99.8339 63.8649 100.23 63.1593 100.936C62.4538 101.641 62.0574 102.598 62.0574 103.596V115.333C62.0574 115.827 62.1547 116.317 62.3438 116.773C62.5328 117.23 62.81 117.644 63.1593 117.994C63.5087 118.343 63.9235 118.62 64.3799 118.809C64.8364 118.998 65.3257 119.096 65.8198 119.096Z" fill="#808080"/>
<path d="M75.6346 113.202C77.6999 111.137 77.6999 107.789 75.6346 105.723C73.5693 103.658 70.2208 103.658 68.1556 105.723C66.0903 107.789 66.0903 111.137 68.1556 113.202C70.2208 115.268 73.5693 115.268 75.6346 113.202Z" fill="white"/>
<path fill-rule="evenodd" clip-rule="evenodd" d="M79.4492 103.874C79.4492 103.63 79.6467 103.433 79.8903 103.433H100.105C100.348 103.433 100.546 103.63 100.546 103.874C100.546 104.118 100.348 104.315 100.105 104.315H79.8903C79.6467 104.315 79.4492 104.118 79.4492 103.874Z" fill="#263238"/>
<path fill-rule="evenodd" clip-rule="evenodd" d="M79.6694 107.694C79.6694 107.572 79.7682 107.473 79.89 107.473H122.696C122.818 107.473 122.917 107.572 122.917 107.694C122.917 107.815 122.818 107.914 122.696 107.914H79.89C79.7682 107.914 79.6694 107.815 79.6694 107.694Z" fill="#263238"/>
<path fill-rule="evenodd" clip-rule="evenodd" d="M79.6694 110.852C79.6694 110.73 79.7682 110.631 79.89 110.631H122.696C122.818 110.631 122.917 110.73 122.917 110.852C122.917 110.974 122.818 111.072 122.696 111.072H79.89C79.7682 111.072 79.6694 110.974 79.6694 110.852Z" fill="#263238"/>
<path fill-rule="evenodd" clip-rule="evenodd" d="M79.6694 114.341C79.6694 114.219 79.7682 114.12 79.89 114.12H122.696C122.818 114.12 122.917 114.219 122.917 114.341C122.917 114.462 122.818 114.561 122.696 114.561H79.89C79.7682 114.561 79.6694 114.462 79.6694 114.341Z" fill="#263238"/>
<path d="M91.098 159.74C91.098 159.74 88.0008 159.066 86.8104 157.538C85.6094 156.011 84.9036 155.337 80.7108 153.514C76.5496 151.692 74.8957 149.332 74.8957 149.332C74.8957 149.332 71.9881 151.997 78.3721 155.052C82.2805 156.927 69.4387 156.653 65.5725 156.221C65.5725 156.221 63.3392 157.443 67.0368 159.234C70.7345 161.025 67.1738 161.162 74.4954 164.249C81.8064 167.346 90.4975 168.968 92.2673 164.554C94.0372 160.14 91.098 159.74 91.098 159.74Z" fill="white"/>
<path fill-rule="evenodd" clip-rule="evenodd" d="M74.8956 149.332L74.6108 149.021L74.9649 148.697L75.2402 149.089L75.2403 149.089L75.2403 149.089L75.2405 149.09L75.2406 149.09L75.2424 149.092C75.2445 149.095 75.2483 149.101 75.2538 149.108C75.2647 149.123 75.2822 149.146 75.3064 149.177C75.355 149.239 75.4307 149.332 75.5351 149.45C75.7441 149.687 76.0681 150.026 76.5203 150.422C77.4244 151.214 78.8419 152.235 80.8791 153.128C82.978 154.04 84.235 154.678 85.1218 155.29C86.0238 155.913 86.5312 156.501 87.1415 157.278L87.1421 157.279L87.1426 157.279C87.6632 157.947 88.6412 158.464 89.5534 158.819C89.9992 158.993 90.4101 159.121 90.7096 159.205C90.8591 159.247 90.9802 159.278 91.0632 159.299C91.1046 159.309 91.1366 159.317 91.1577 159.321C91.1653 159.323 91.1716 159.325 91.1764 159.326C91.1851 159.327 91.1961 159.329 91.2091 159.332C91.238 159.337 91.2771 159.345 91.3246 159.357C91.4192 159.382 91.5485 159.421 91.6958 159.484C91.9894 159.61 92.3658 159.836 92.6772 160.231C93.3215 161.049 93.5724 162.431 92.6583 164.711C92.1616 165.95 91.1791 166.75 89.9134 167.201C88.659 167.649 87.1131 167.761 85.4286 167.639C82.0575 167.393 78.0095 166.195 74.331 164.637C70.665 163.091 69.6311 162.25 69.071 161.51C68.9725 161.38 68.887 161.25 68.8124 161.136C68.7875 161.099 68.7639 161.063 68.7413 161.029C68.6471 160.889 68.5549 160.763 68.4286 160.631C68.1762 160.369 67.7545 160.05 66.853 159.614C65.904 159.154 65.2912 158.711 64.9265 158.281C64.5516 157.838 64.4284 157.394 64.5033 156.981C64.5742 156.591 64.8089 156.306 64.9926 156.133C65.0875 156.044 65.178 155.976 65.2454 155.93C65.2793 155.907 65.3081 155.888 65.3295 155.875C65.3402 155.869 65.3491 155.864 65.3559 155.86C65.3594 155.858 65.3623 155.856 65.3647 155.855L65.3678 155.853L65.3691 155.852L65.3696 155.852C65.3699 155.852 65.3701 155.852 65.5724 156.221L65.3701 155.852L65.4869 155.788L65.6192 155.803C67.5295 156.016 71.6858 156.192 74.873 156.081C76.4831 156.025 77.7847 155.896 78.4349 155.686C78.4841 155.67 78.5262 155.654 78.562 155.64C78.4773 155.582 78.3564 155.512 78.1899 155.432C74.9583 153.886 73.9064 152.358 73.8194 151.075C73.7766 150.444 73.9745 149.932 74.1766 149.584C74.2779 149.41 74.3819 149.274 74.4621 149.179C74.5023 149.132 74.5368 149.095 74.5626 149.068C74.5755 149.055 74.5862 149.045 74.5944 149.037C74.5984 149.033 74.6019 149.029 74.6046 149.027L74.6083 149.023L74.6097 149.022L74.6103 149.022C74.6106 149.021 74.6108 149.021 74.8956 149.332ZM78.7003 155.758C78.7002 155.758 78.7 155.758 78.6995 155.757C78.7 155.758 78.7003 155.758 78.7003 155.758ZM65.6778 156.657C65.6452 156.681 65.6079 156.712 65.5699 156.747C65.4503 156.86 65.3578 156.992 65.3325 157.132C65.3114 157.248 65.3231 157.445 65.5694 157.736C65.826 158.038 66.3206 158.419 67.2204 158.855C68.1677 159.314 68.6876 159.684 69.0364 160.047C69.2106 160.229 69.3338 160.4 69.4409 160.559C69.4724 160.606 69.5013 160.65 69.5292 160.692C69.5993 160.799 69.6626 160.895 69.743 161.001C70.1574 161.549 71.0038 162.32 74.6589 163.861L74.6596 163.861C78.2921 165.4 82.2452 166.562 85.4898 166.798C87.1132 166.916 88.5288 166.8 89.6302 166.407C90.7204 166.018 91.4879 165.366 91.8761 164.398C92.7318 162.263 92.398 161.239 92.0152 160.753C91.8131 160.496 91.5653 160.346 91.3631 160.259C91.2626 160.215 91.176 160.189 91.1168 160.174C91.0873 160.167 91.0651 160.162 91.0518 160.16C91.0484 160.159 91.0456 160.158 91.0435 160.158C91.0413 160.158 91.0398 160.157 91.0389 160.157C91.0379 160.157 91.0376 160.157 91.038 160.157L91.0245 160.155L91.0082 160.152L91.0979 159.74C91.0082 160.152 91.0081 160.152 91.008 160.152L91.0078 160.152L91.007 160.151L91.0047 160.151L90.9967 160.149C90.99 160.148 90.9803 160.145 90.9679 160.143C90.9431 160.137 90.9073 160.128 90.8617 160.117C90.7707 160.095 90.6405 160.061 90.481 160.016C90.1626 159.927 89.7248 159.79 89.2475 159.605C88.3139 159.241 87.1484 158.657 86.4785 157.798C85.8881 157.047 85.4422 156.535 84.643 155.984C83.8285 155.421 82.6364 154.811 80.5427 153.9L80.5416 153.9C78.418 152.97 76.9281 151.9 75.965 151.056C75.4847 150.636 75.1356 150.271 74.9044 150.009C74.7612 150.256 74.6319 150.601 74.6602 151.018C74.7154 151.831 75.4017 153.163 78.5539 154.672L78.5543 154.672C78.8131 154.796 79.0278 154.923 79.1864 155.057C79.3342 155.181 79.4997 155.368 79.5224 155.621C79.548 155.906 79.3831 156.109 79.2317 156.226C79.0832 156.341 78.8909 156.424 78.6943 156.488C77.9151 156.74 76.4975 156.867 74.9024 156.923C71.7605 157.033 67.6926 156.867 65.6778 156.657ZM65.7766 156.59C65.777 156.59 65.7771 156.59 65.7769 156.59L65.7766 156.59Z" fill="#2C2C2C"/>
<path d="M142.286 134.573C142.286 134.573 133.521 177.048 129.528 179.387C126.315 181.273 101.685 173.256 92.3306 170.106C90.1077 169.369 88.7488 168.884 88.7488 168.884L90.3606 157.991L95.6384 158.708L121.922 162.279C121.922 162.279 130.782 119.118 137.145 118.592C143.518 118.054 142.286 134.573 142.286 134.573Z" fill="#2C2C2C"/>
<path d="M193.79 118.328C193.79 118.328 224.877 149.711 226.921 165.397C226.921 165.397 222.191 174.267 193.716 191.186L191.177 183.927C191.177 183.927 207.074 165.681 212.594 161.067C212.594 161.067 187.701 140.483 188.28 134.646C188.849 128.789 190.303 118.634 193.79 118.328Z" fill="#2C2C2C"/>
<path d="M206.505 131.507C206.505 138.228 202.102 142.389 195.381 142.389C188.66 142.389 183.213 136.943 183.213 130.222C183.213 123.501 188.291 116.084 194.696 118.097C201.754 120.298 206.505 124.786 206.505 131.507Z" fill="white"/>
<path fill-rule="evenodd" clip-rule="evenodd" d="M186.874 121.157C184.871 123.52 183.634 126.956 183.634 130.222C183.634 136.71 188.892 141.968 195.38 141.968C198.654 141.968 201.322 140.956 203.17 139.166C205.016 137.378 206.084 134.773 206.084 131.507C206.084 125.043 201.533 120.671 194.57 118.499L194.569 118.499C191.576 117.558 188.87 118.801 186.874 121.157ZM194.821 117.694C191.41 116.623 188.375 118.082 186.231 120.612C184.093 123.134 182.792 126.766 182.792 130.222C182.792 137.176 188.427 142.811 195.38 142.811C198.828 142.811 201.722 141.742 203.756 139.771C205.792 137.799 206.926 134.962 206.926 131.507C206.926 124.53 201.975 119.926 194.821 117.694Z" fill="#2C2C2C"/>
<path d="M201.038 129.548C201.038 134.52 197.782 137.596 192.81 137.596C187.838 137.596 183.813 133.572 183.813 128.599C183.813 123.627 187.564 118.139 192.315 119.624C197.519 121.267 201.038 124.586 201.038 129.548Z" fill="#2C2C2C"/>
<path d="M124.862 131.507C124.862 138.228 129.265 142.389 135.986 142.389C142.707 142.389 148.154 136.943 148.154 130.222C148.154 123.501 143.076 116.084 136.671 118.097C129.613 120.298 124.862 124.786 124.862 131.507Z" fill="white"/>
<path fill-rule="evenodd" clip-rule="evenodd" d="M145.135 120.612C147.273 123.134 148.575 126.766 148.575 130.222C148.575 137.176 142.94 142.811 135.986 142.811C132.538 142.811 129.644 141.742 127.61 139.771C125.574 137.799 124.44 134.962 124.44 131.507C124.44 124.53 129.391 119.926 136.545 117.694C139.956 116.623 142.992 118.082 145.135 120.612ZM144.492 121.157C142.496 118.801 139.791 117.558 136.797 118.499L136.796 118.499C129.834 120.671 125.283 125.043 125.283 131.507C125.283 134.773 126.35 137.378 128.196 139.166C130.044 140.956 132.713 141.968 135.986 141.968C142.474 141.968 147.732 136.71 147.732 130.222C147.732 126.956 146.495 123.52 144.492 121.157Z" fill="#2C2C2C"/>
<path d="M130.329 129.548C130.329 134.52 133.584 137.596 138.557 137.596C143.529 137.596 147.553 133.572 147.553 128.599C147.553 123.627 143.803 118.139 139.062 119.624C133.848 121.267 130.329 124.586 130.329 129.548Z" fill="#2C2C2C"/>
<path d="M181.001 185.434C173.395 184.739 165.883 184.454 165.883 184.454C163.123 184.539 157.245 184.781 151.177 185.434C152.947 191.481 158.952 195.937 166.084 195.937C173.226 195.948 179.231 191.47 181.001 185.434Z" fill="#50BFD7"/>
<path d="M180.379 186.066C181.032 183.496 194.106 117.991 194.106 117.991C194.106 117.991 159.215 107.688 136.903 117.991L151.209 186.635L180.379 186.066Z" fill="white"/>
<path fill-rule="evenodd" clip-rule="evenodd" d="M194.224 117.587C194.225 117.587 194.225 117.587 194.106 117.991C194.519 118.074 194.519 118.074 194.519 118.074L194.518 118.077L194.372 118.81C194.276 119.29 194.135 119.995 193.956 120.893C193.597 122.69 193.084 125.258 192.466 128.349C191.23 134.53 189.575 142.799 187.9 151.148C184.553 167.833 181.118 184.871 180.787 186.17L180.708 186.481L150.867 187.063L136.422 117.749L136.726 117.609C147.99 112.407 162.387 112.419 173.918 113.709C179.692 114.355 184.766 115.324 188.397 116.131C190.212 116.535 191.668 116.898 192.67 117.161C193.171 117.292 193.559 117.399 193.822 117.472C193.953 117.509 194.054 117.538 194.121 117.557C194.155 117.567 194.181 117.574 194.198 117.579L194.218 117.585L194.223 117.587L194.224 117.587ZM194.106 117.991L194.519 118.074L194.594 117.696L194.225 117.587L194.106 117.991ZM193.616 118.29C193.609 118.288 193.602 118.286 193.595 118.284C193.336 118.212 192.953 118.106 192.456 117.976C191.463 117.716 190.018 117.355 188.214 116.954C184.605 116.151 179.562 115.188 173.824 114.546C162.437 113.273 148.387 113.272 137.384 118.235L151.55 186.207L180.043 185.651C180.64 182.974 183.891 166.847 187.074 150.982C188.749 142.633 190.404 134.365 191.64 128.184C192.257 125.093 192.771 122.524 193.129 120.728C193.309 119.83 193.45 119.125 193.545 118.645L193.616 118.29Z" fill="black"/>
<path d="M180.379 186.066C181.032 183.496 194.106 117.991 194.106 117.991C194.106 117.991 159.215 107.688 136.903 117.991L151.209 186.635L180.379 186.066Z" fill="white"/>
<path fill-rule="evenodd" clip-rule="evenodd" d="M194.224 117.587C194.225 117.587 194.225 117.587 194.106 117.991C194.519 118.074 194.519 118.074 194.519 118.074L194.518 118.077L194.372 118.81C194.276 119.29 194.135 119.995 193.956 120.893C193.597 122.69 193.084 125.258 192.466 128.349C191.23 134.53 189.575 142.799 187.9 151.148C184.553 167.833 181.118 184.871 180.787 186.17L180.708 186.481L150.867 187.063L136.422 117.749L136.726 117.609C147.99 112.407 162.387 112.419 173.918 113.709C179.692 114.355 184.766 115.324 188.397 116.131C190.212 116.535 191.668 116.898 192.67 117.161C193.171 117.292 193.559 117.399 193.822 117.472C193.953 117.509 194.054 117.538 194.121 117.557C194.155 117.567 194.181 117.574 194.198 117.579L194.218 117.585L194.223 117.587L194.224 117.587ZM194.106 117.991L194.519 118.074L194.594 117.696L194.225 117.587L194.106 117.991ZM193.616 118.29C193.609 118.288 193.602 118.286 193.595 118.284C193.336 118.212 192.953 118.106 192.456 117.976C191.463 117.716 190.018 117.355 188.214 116.954C184.605 116.151 179.562 115.188 173.824 114.546C162.437 113.273 148.387 113.272 137.384 118.235L151.55 186.207L180.043 185.651C180.64 182.974 183.891 166.847 187.074 150.982C188.749 142.633 190.404 134.365 191.64 128.184C192.257 125.093 192.771 122.524 193.129 120.728C193.309 119.83 193.45 119.125 193.545 118.645L193.616 118.29Z" fill="#2C2C2C"/>
<path d="M185.625 115.979C175.881 114.02 159.404 111.786 145.246 115.157C146.921 125.724 148.596 136.3 150.271 146.867C151.619 154.03 158.414 158.802 165.504 158.845C172.594 158.802 179.389 154.041 180.737 146.867C182.359 136.564 183.992 126.271 185.625 115.979Z" fill="#50BFD7"/>
<path fill-rule="evenodd" clip-rule="evenodd" d="M145.148 114.747C159.4 111.354 175.951 113.604 185.709 115.566L186.105 115.646L186.042 116.045C184.409 126.337 182.776 136.629 181.154 146.932L181.153 146.938L181.152 146.944C179.76 154.349 172.764 159.223 165.507 159.266L165.504 159.266L165.502 159.266C158.244 159.223 151.249 154.338 149.857 146.944L149.856 146.939L149.855 146.933C149.018 141.65 148.18 136.365 147.343 131.079L147.342 131.078C146.505 125.792 145.667 120.506 144.83 115.223L144.769 114.838L145.148 114.747ZM145.724 115.478C146.541 120.632 147.358 125.788 148.175 130.944L148.175 130.946C149.012 136.23 149.849 141.513 150.686 146.794C151.994 153.724 158.585 158.381 165.504 158.423C172.424 158.381 179.014 153.735 180.322 146.795C181.923 136.627 183.534 126.47 185.146 116.313C175.459 114.394 159.514 112.302 145.724 115.478Z" fill="#2C2C2C"/>
<path d="M164.303 119.719C167.632 119.719 172.805 118.708 172.805 115.389L171.952 104.307L171.204 94.6148C171.204 91.2858 168.507 88.5995 165.188 88.5995C163.524 88.5995 162.028 89.2737 160.932 90.3588C159.847 91.4438 159.162 92.9503 159.162 94.6148L158.425 104.317L157.719 113.619C156.761 119.234 164.303 119.719 164.303 119.719Z" fill="#2C2C2C"/>
<path d="M181.749 34.7041C177.345 29.2893 171.193 26.0236 163.292 26.0236C145.404 26.0236 127.927 42.5208 127.927 63.0845C127.927 83.6481 142.423 100.324 160.311 100.324C162.028 100.324 163.692 100.166 165.304 99.882C165.473 100.788 165.568 101.715 165.568 102.674C165.568 102.842 165.557 103.021 165.557 103.19C214.849 91.2225 206.779 31.6596 181.749 34.7041Z" fill="#2C2C2C"/>
<path d="M140.263 87.7251C144.016 87.7251 147.058 84.6829 147.058 80.9302C147.058 77.1775 144.016 74.1354 140.263 74.1354C136.511 74.1354 133.469 77.1775 133.469 80.9302C133.469 84.6829 136.511 87.7251 140.263 87.7251Z" fill="white"/>
<path fill-rule="evenodd" clip-rule="evenodd" d="M140.263 74.5566C136.743 74.5566 133.89 77.4101 133.89 80.9301C133.89 84.4501 136.743 87.3036 140.263 87.3036C143.783 87.3036 146.637 84.4501 146.637 80.9301C146.637 77.4101 143.783 74.5566 140.263 74.5566ZM133.047 80.9301C133.047 76.9447 136.278 73.7139 140.263 73.7139C144.249 73.7139 147.479 76.9447 147.479 80.9301C147.479 84.9155 144.249 88.1463 140.263 88.1463C136.278 88.1463 133.047 84.9155 133.047 80.9301Z" fill="#2C2C2C"/>
<path d="M188.112 87.7251C191.864 87.7251 194.907 84.6829 194.907 80.9302C194.907 77.1775 191.864 74.1354 188.112 74.1354C184.359 74.1354 181.317 77.1775 181.317 80.9302C181.317 84.6829 184.359 87.7251 188.112 87.7251Z" fill="white"/>
<path fill-rule="evenodd" clip-rule="evenodd" d="M188.112 74.5566C184.592 74.5566 181.738 77.4101 181.738 80.9301C181.738 84.4501 184.592 87.3036 188.112 87.3036C191.631 87.3036 194.485 84.4501 194.485 80.9301C194.485 77.4101 191.631 74.5566 188.112 74.5566ZM180.895 80.9301C180.895 76.9447 184.126 73.7139 188.112 73.7139C192.097 73.7139 195.328 76.9447 195.328 80.9301C195.328 84.9155 192.097 88.1463 188.112 88.1463C184.126 88.1463 180.895 84.9155 180.895 80.9301Z" fill="#2C2C2C"/>
<path d="M164.83 109.279C179.416 109.279 191.24 92.5402 191.24 71.8916C191.24 51.2431 179.416 34.5042 164.83 34.5042C150.244 34.5042 138.419 51.2431 138.419 71.8916C138.419 92.5402 150.244 109.279 164.83 109.279Z" fill="white"/>
<path fill-rule="evenodd" clip-rule="evenodd" d="M146.499 45.6977C141.776 52.3843 138.841 61.6439 138.841 71.8915C138.841 82.1391 141.776 91.3987 146.499 98.0854C151.223 104.773 157.711 108.858 164.83 108.858C171.95 108.858 178.437 104.773 183.161 98.0854C187.884 91.3987 190.819 82.1391 190.819 71.8915C190.819 61.6439 187.884 52.3843 183.161 45.6977C178.437 39.01 171.95 34.9254 164.83 34.9254C157.711 34.9254 151.223 39.01 146.499 45.6977ZM145.811 45.2114C150.645 38.3676 157.364 34.0826 164.83 34.0826C172.297 34.0826 179.015 38.3676 183.849 45.2114C188.684 52.0564 191.662 61.4906 191.662 71.8915C191.662 82.2925 188.684 91.7266 183.849 98.5716C179.015 105.415 172.297 109.7 164.83 109.7C157.364 109.7 150.645 105.415 145.811 98.5716C140.976 91.7266 137.998 82.2925 137.998 71.8915C137.998 61.4906 140.976 52.0564 145.811 45.2114Z" fill="#2C2C2C"/>
<path d="M134.564 63.6007C134.564 63.6007 157.045 64.6963 164.535 51.1698C164.535 51.1698 180.8 65.2441 196.328 64.1485L194.864 57.933L188.838 46.0499L185.183 41.6675L177.693 33.8087L167.643 29.6053L155.58 31.2488L139.494 42.2153L137.482 49.5264L134.564 63.6007Z" fill="#2C2C2C"/>
<path d="M165.473 86.5031C165.483 86.5663 165.346 86.6822 165.041 86.6822C164.746 86.6927 164.293 86.5558 163.892 86.1765C163.692 85.9869 163.513 85.7551 163.376 85.4601C163.355 85.418 163.345 85.3759 163.324 85.3337L163.302 85.2705L163.281 85.2178L163.25 85.123C163.239 85.0809 163.229 85.0282 163.208 84.9861C163.166 84.8281 163.134 84.6595 163.123 84.4804C163.06 83.7851 163.197 83.0793 163.366 82.4051C164.019 79.7082 164.788 77.5908 165.072 77.654C165.357 77.7277 165.062 79.9611 164.409 82.6579C164.24 83.3216 164.114 83.9221 164.114 84.4277C164.114 84.5542 164.124 84.6806 164.135 84.7965L164.145 84.8386V84.8597V84.8702V84.8807C164.145 84.8807 164.135 84.8491 164.145 84.8597L164.166 84.965L164.177 85.0177L164.187 85.0493L164.208 85.1125C164.272 85.3127 164.366 85.5023 164.472 85.6498C164.683 85.9553 164.935 86.1449 165.136 86.2502C165.325 86.3872 165.462 86.4293 165.473 86.5031Z" fill="#2C2C2C"/>
<path d="M157.961 73.872C157.961 76.8744 155.359 79.3079 152.157 79.3079C148.944 79.3079 146.352 76.8744 146.352 73.872C146.352 70.8697 148.954 68.4362 152.157 68.4362C155.349 68.4362 157.961 70.8697 157.961 73.872Z" fill="white"/>
<path fill-rule="evenodd" clip-rule="evenodd" d="M152.157 68.8575C149.16 68.8575 146.774 71.1282 146.774 73.872C146.774 76.6164 149.15 78.8865 152.157 78.8865C155.153 78.8865 157.54 76.6159 157.54 73.872C157.54 71.1286 155.143 68.8575 152.157 68.8575ZM145.931 73.872C145.931 70.6112 148.748 68.0148 152.157 68.0148C155.554 68.0148 158.383 70.6107 158.383 73.872C158.383 77.1329 155.566 79.7293 152.157 79.7293C148.737 79.7293 145.931 77.1324 145.931 73.872Z" fill="#2C2C2C"/>
<path d="M149.302 73.535C149.302 76.0107 150.914 78.0228 152.895 78.0228C154.875 78.0228 156.487 76.0107 156.487 73.535C156.487 71.0594 154.875 69.0473 152.895 69.0473C150.914 69.0367 149.302 71.0489 149.302 73.535Z" fill="#50BFD7"/>
<path d="M150.345 73.535C150.345 75.2943 151.483 76.7165 152.894 76.7165C154.306 76.7165 155.444 75.2943 155.444 73.535C155.444 71.7757 154.306 70.343 152.894 70.343C151.483 70.343 150.345 71.7652 150.345 73.535Z" fill="#2C2C2C"/>
<path d="M150.187 70.5114C150.187 70.996 150.777 71.3752 151.504 71.3752C152.23 71.3752 152.82 70.9854 152.82 70.5114C152.82 70.0268 152.23 69.6475 151.504 69.6475C150.777 69.637 150.187 70.0268 150.187 70.5114Z" fill="white"/>
<path d="M159.616 65.56C159.616 65.56 151.778 57.7433 143.35 67.0243C143.35 67.0243 150.64 62.3575 159.616 65.56Z" fill="#2C2C2C"/>
<path d="M183.213 73.872C183.213 76.8744 180.611 79.3079 177.408 79.3079C174.195 79.3079 171.604 76.8744 171.604 73.872C171.604 70.8697 174.206 68.4362 177.408 68.4362C180.611 68.4362 183.213 70.8697 183.213 73.872Z" fill="white"/>
<path fill-rule="evenodd" clip-rule="evenodd" d="M177.408 68.8575C174.412 68.8575 172.025 71.1282 172.025 73.872C172.025 76.6164 174.402 78.8865 177.408 78.8865C180.405 78.8865 182.792 76.6159 182.792 73.872C182.792 71.1282 180.405 68.8575 177.408 68.8575ZM171.182 73.872C171.182 70.6112 174 68.0148 177.408 68.0148C180.817 68.0148 183.634 70.6112 183.634 73.872C183.634 77.1329 180.817 79.7293 177.408 79.7293C173.989 79.7293 171.182 77.1324 171.182 73.872Z" fill="#2C2C2C"/>
<path d="M174.564 73.535C174.564 76.0107 176.176 78.0228 178.156 78.0228C180.137 78.0228 181.749 76.0107 181.749 73.535C181.749 71.0594 180.137 69.0473 178.156 69.0473C176.165 69.0367 174.564 71.0489 174.564 73.535Z" fill="#50BFD7"/>
<path d="M175.596 73.535C175.596 75.2943 176.734 76.7165 178.146 76.7165C179.557 76.7165 180.695 75.2943 180.695 73.535C180.695 71.7757 179.557 70.343 178.146 70.343C176.744 70.343 175.596 71.7652 175.596 73.535Z" fill="#2C2C2C"/>
<path d="M175.438 70.5114C175.438 70.996 176.028 71.3752 176.755 71.3752C177.482 71.3752 178.072 70.9854 178.072 70.5114C178.072 70.0268 177.482 69.6475 176.755 69.6475C176.028 69.637 175.438 70.0268 175.438 70.5114Z" fill="white"/>
<path d="M184.877 64.7069C184.877 64.7069 177.04 56.8902 168.612 66.1712C168.601 66.1712 175.891 61.5043 184.877 64.7069Z" fill="#2C2C2C"/>
<path d="M156.255 92.4762C156.518 94.5199 157.508 96.4056 159.057 97.7751C160.605 99.1446 162.597 99.8926 164.661 99.8926C166.726 99.8926 168.717 99.1446 170.266 97.7751C171.814 96.4056 172.815 94.5305 173.068 92.4762H156.255Z" fill="white"/>
<path fill-rule="evenodd" clip-rule="evenodd" d="M155.776 92.0548H173.545L173.486 92.5277C173.221 94.6857 172.169 96.6543 170.545 98.0908C168.919 99.5289 166.828 100.314 164.661 100.314C162.495 100.314 160.404 99.5289 158.778 98.0908C157.152 96.653 156.113 94.6739 155.837 92.5301L155.776 92.0548ZM156.748 92.8976C157.081 94.6568 157.986 96.265 159.336 97.4595C160.807 98.7603 162.699 99.4712 164.661 99.4712C166.624 99.4712 168.516 98.7603 169.987 97.4595C171.34 96.263 172.252 94.6621 172.577 92.8976H156.748Z" fill="#2C2C2C"/>
<path d="M172.742 189.995C172.742 190.259 172.973 190.564 173.247 190.533C176.355 190.206 178.736 187.804 181.801 188.31C178.725 189.837 176.06 192.492 176.439 196.4C176.481 196.885 176.945 197.075 177.303 196.78C179.505 194.905 182.033 193.23 184.983 193.851C186.247 194.114 187.732 194.61 189.039 194.441C190.988 194.199 192.631 193.314 193.6 191.428C195.307 188.162 194.675 184.243 190.851 183.432C190.756 183.411 190.682 183.422 190.598 183.453C189.186 182.895 187.901 182.189 186.763 180.957C185.668 179.756 184.646 178.428 183.455 177.322C181.865 175.837 180.137 174.667 178.03 175.668C177.714 175.816 177.735 176.269 177.935 176.511C178.862 177.659 179.947 178.755 181.085 179.808C179.947 179.545 178.799 179.408 177.619 179.503C175.512 179.682 173.026 181.083 173.079 183.59C173.089 183.906 173.311 184.096 173.584 184.128C175.523 184.328 177.472 184.296 179.4 184.496C176.397 185.381 172.71 186.393 172.742 189.995Z" fill="white"/>
<path fill-rule="evenodd" clip-rule="evenodd" d="M181.091 175.171C182.062 175.554 182.939 176.264 183.742 177.014C184.548 177.762 185.291 178.625 186.012 179.463C186.37 179.878 186.722 180.287 187.074 180.672C188.12 181.805 189.3 182.475 190.626 183.011C190.722 182.995 190.825 182.995 190.94 183.021C193.003 183.459 194.239 184.755 194.705 186.395C195.163 188.01 194.865 189.917 193.974 191.622C192.928 193.657 191.146 194.604 189.092 194.859C188.372 194.952 187.622 194.86 186.914 194.722C186.558 194.652 186.205 194.569 185.868 194.488C185.832 194.48 185.796 194.471 185.761 194.463C185.46 194.39 185.173 194.321 184.897 194.264L184.896 194.264C182.161 193.687 179.776 195.227 177.576 197.101L177.573 197.103L177.571 197.105C177.284 197.341 176.913 197.41 176.586 197.27C176.26 197.13 176.053 196.814 176.019 196.44C175.676 192.895 177.694 190.352 180.24 188.711C179.393 188.826 178.568 189.132 177.704 189.498C177.512 189.579 177.317 189.663 177.12 189.749C175.951 190.257 174.69 190.805 173.293 190.952C172.978 190.987 172.726 190.825 172.574 190.652C172.424 190.48 172.321 190.243 172.32 189.998C172.303 188.013 173.328 186.739 174.708 185.87C175.436 185.412 176.275 185.059 177.126 184.762C176.91 184.752 176.694 184.743 176.477 184.733L176.469 184.733C175.503 184.691 174.522 184.648 173.541 184.547L173.538 184.547L173.536 184.546C173.085 184.494 172.676 184.159 172.657 183.605L172.657 183.602L172.657 183.599C172.628 182.186 173.32 181.091 174.279 180.342C175.231 179.599 176.46 179.179 177.583 179.083L177.584 179.083L177.585 179.083C178.33 179.023 179.059 179.052 179.776 179.143C179.003 178.381 178.268 177.594 177.608 176.778C177.439 176.571 177.353 176.293 177.368 176.03C177.384 175.758 177.516 175.444 177.85 175.287C179.018 174.733 180.098 174.78 181.091 175.171ZM178.215 176.047C178.213 176.053 178.21 176.063 178.21 176.078C178.208 176.104 178.212 176.137 178.222 176.17C178.233 176.203 178.248 176.228 178.26 176.243L178.261 176.245L178.263 176.247C179.172 177.373 180.241 178.453 181.371 179.499L182.535 180.577L180.99 180.219C179.882 179.963 178.778 179.833 177.654 179.923C176.67 180.007 175.603 180.377 174.798 181.006C174.002 181.628 173.478 182.486 173.5 183.579C173.502 183.634 173.519 183.657 173.531 183.668C173.545 183.683 173.576 183.702 173.631 183.709C174.584 183.807 175.542 183.849 176.514 183.891L176.517 183.891C177.485 183.933 178.465 183.976 179.443 184.077L181.564 184.298L179.518 184.901C179.466 184.916 179.413 184.932 179.361 184.947C177.888 185.381 176.348 185.834 175.157 186.584C173.952 187.342 173.149 188.375 173.163 189.992L173.163 189.994V189.996C173.163 190.001 173.164 190.017 173.173 190.039C173.182 190.061 173.195 190.082 173.209 190.097C173.214 190.104 173.219 190.108 173.223 190.112C174.473 189.976 175.596 189.49 176.765 188.984C176.967 188.896 177.17 188.808 177.376 188.721C178.75 188.14 180.209 187.62 181.87 187.894L183.158 188.107L181.989 188.688C178.979 190.182 176.504 192.708 176.859 196.36L176.859 196.362L176.859 196.364C176.864 196.421 176.879 196.453 176.891 196.47C176.902 196.486 176.912 196.493 176.918 196.495C176.925 196.498 176.936 196.501 176.952 196.498C176.968 196.495 176.996 196.486 177.033 196.456C179.236 194.581 181.906 192.773 185.069 193.439C185.358 193.499 185.658 193.571 185.957 193.643C185.993 193.651 186.029 193.66 186.064 193.669C186.402 193.749 186.739 193.829 187.076 193.895C187.753 194.027 188.398 194.099 188.985 194.023L188.986 194.023L188.987 194.023C190.829 193.794 192.333 192.971 193.225 191.236L193.226 191.234L193.227 191.233C194.042 189.673 194.281 187.988 193.894 186.625C193.514 185.286 192.523 184.218 190.763 183.845L190.761 183.844L190.759 183.844C190.759 183.844 190.759 183.844 190.758 183.844C190.756 183.845 190.751 183.846 190.746 183.848L190.594 183.905L190.443 183.845C188.997 183.274 187.649 182.538 186.453 181.243L186.453 181.242L186.452 181.241C186.065 180.816 185.695 180.387 185.33 179.963C184.628 179.148 183.941 178.349 183.168 177.631L183.168 177.63C182.38 176.895 181.598 176.278 180.781 175.955C179.987 175.642 179.152 175.603 178.215 176.047Z" fill="#2C2C2C"/>
<path fill-rule="evenodd" clip-rule="evenodd" d="M137.893 69.9109V70.1216H137.05V69.9109H137.893Z" fill="#2C2C2C"/>
<path fill-rule="evenodd" clip-rule="evenodd" d="M142.317 72.2285V72.4392H141.475V72.2285H142.317Z" fill="#2C2C2C"/>
<path d="M166.273 70.9854C167.717 71.2909 167.179 72.2285 167.179 72.3654C167.179 72.5024 167.717 80.298 174.68 82.3523C181.643 84.4065 185.815 80.3718 187.027 78.3491C188.238 76.3265 189.249 71.5227 189.544 71.1539C189.85 70.7852 191.293 70.1426 191.293 70.1426L191.462 68.2569L189.65 67.7196C189.65 67.7196 185.078 65.6338 178.346 65.539C171.625 65.4336 167.822 69.3104 167.822 69.3104C165.926 68.7099 163.576 68.6256 161.427 69.3104C161.427 69.3104 157.624 65.4442 150.903 65.539C144.182 65.6443 139.6 67.7196 139.6 67.7196L137.788 68.2569L137.956 70.1426C137.956 70.1426 139.399 70.7852 139.705 71.1539C140.01 71.5227 141.011 76.337 142.223 78.3491C143.434 80.3718 147.606 84.4065 154.569 82.3523C161.533 80.298 162.07 72.5024 162.07 72.3654C162.07 72.2285 161.533 71.2909 162.976 70.9854C164.24 70.722 165.02 70.722 166.273 70.9854ZM182.992 80.7405C177.682 83.9325 171.319 80.7089 169.402 76.5055C167.485 72.3022 169.097 70.0794 169.097 70.0794C172.299 64.8542 185.236 64.633 187.458 70.2796C187.838 71.2277 188.301 77.5485 182.992 80.7405ZM141.791 70.2796C144.014 64.6225 156.95 64.8542 160.153 70.0794C160.153 70.0794 161.764 72.3022 159.847 76.5055C157.93 80.7089 151.577 83.9325 146.257 80.7405C140.959 77.5485 141.422 71.2277 141.791 70.2796Z" fill="#2C2C2C"/>
<path d="M169.539 127.557H161.448C159.299 127.557 157.551 129.305 157.551 131.454V139.545C157.551 141.694 159.299 143.443 161.448 143.443H169.539C171.688 143.443 173.437 141.694 173.437 139.545V131.454C173.437 129.305 171.688 127.557 169.539 127.557ZM155.391 124.112C154.159 124.112 153.158 125.113 153.158 126.345C153.158 127.578 154.159 128.579 155.391 128.579C156.624 128.579 157.624 127.578 157.624 126.345C157.624 125.113 156.624 124.112 155.391 124.112Z" fill="white"/>
<path d="M168.96 132.382C168.443 131.002 167.127 130.085 165.652 130.085H163.461L167.79 141.062H172.436L168.96 132.382ZM160.121 137.912L158.857 141.062H163.471L165.62 135.616H163.429C161.954 135.616 160.627 136.532 160.121 137.912ZM160.837 132.814C161.596 132.814 162.218 132.192 162.218 131.434C162.218 130.675 161.596 130.053 160.837 130.053C160.079 130.053 159.457 130.675 159.457 131.434C159.457 132.192 160.068 132.814 160.837 132.814Z" fill="#50BFD7"/>
<path d="M179.849 169.302C173.188 168.693 166.611 168.444 166.611 168.444C164.194 168.518 159.046 168.73 153.732 169.302C155.282 174.598 160.54 178.5 166.786 178.5C173.04 178.509 178.299 174.588 179.849 169.302Z" fill="#50BFD7"/>
<path d="M172.247 178.924C172.247 179.155 172.45 179.422 172.69 179.395C175.411 179.109 177.496 177.005 180.181 177.448C177.487 178.786 175.153 181.111 175.485 184.533C175.522 184.958 175.928 185.124 176.242 184.865C178.17 183.223 180.384 181.756 182.967 182.301C184.074 182.531 185.375 182.965 186.519 182.817C188.225 182.605 189.664 181.83 190.513 180.179C192.008 177.319 191.454 173.887 188.105 173.177C188.022 173.159 187.958 173.168 187.884 173.195C186.648 172.706 185.522 172.088 184.526 171.009C183.567 169.957 182.672 168.795 181.629 167.826C180.236 166.526 178.723 165.502 176.878 166.378C176.602 166.507 176.62 166.904 176.795 167.116C177.607 168.122 178.557 169.081 179.554 170.003C178.557 169.773 177.552 169.653 176.519 169.736C174.673 169.893 172.496 171.12 172.542 173.315C172.552 173.592 172.745 173.758 172.985 173.786C174.683 173.961 176.389 173.933 178.078 174.109C175.448 174.884 172.22 175.769 172.247 178.924Z" fill="white"/>
<path fill-rule="evenodd" clip-rule="evenodd" d="M179.559 165.942C180.409 166.278 181.177 166.899 181.881 167.556C182.586 168.211 183.237 168.967 183.869 169.7C184.182 170.064 184.49 170.422 184.798 170.759C185.714 171.752 186.748 172.338 187.909 172.808C187.993 172.794 188.083 172.794 188.184 172.816C189.991 173.2 191.073 174.335 191.481 175.771C191.882 177.185 191.621 178.855 190.841 180.349C189.925 182.13 188.364 182.959 186.565 183.183C185.935 183.264 185.278 183.184 184.658 183.063C184.347 183.002 184.038 182.929 183.742 182.858C183.711 182.851 183.68 182.843 183.649 182.836C183.385 182.772 183.133 182.712 182.892 182.662L182.891 182.662C180.496 182.157 178.408 183.505 176.481 185.146L176.479 185.148L176.476 185.15C176.225 185.357 175.901 185.417 175.614 185.294C175.328 185.172 175.147 184.895 175.118 184.567C174.817 181.463 176.585 179.236 178.814 177.799C178.072 177.9 177.35 178.168 176.593 178.488C176.425 178.559 176.255 178.633 176.082 178.708C175.058 179.153 173.954 179.633 172.73 179.761C172.455 179.792 172.234 179.651 172.101 179.499C171.969 179.348 171.879 179.14 171.878 178.926C171.864 177.188 172.761 176.072 173.97 175.311C174.607 174.91 175.342 174.601 176.087 174.341C175.898 174.332 175.709 174.324 175.519 174.316L175.511 174.315C174.666 174.279 173.806 174.241 172.947 174.153L172.945 174.153L172.943 174.152C172.549 174.107 172.19 173.813 172.174 173.327L172.174 173.325L172.174 173.323C172.148 172.085 172.754 171.127 173.594 170.47C174.427 169.819 175.504 169.452 176.487 169.368L176.488 169.368L176.489 169.368C177.141 169.316 177.78 169.341 178.408 169.421C177.731 168.754 177.087 168.064 176.509 167.349C176.361 167.168 176.286 166.925 176.299 166.695C176.313 166.457 176.429 166.181 176.721 166.044C177.744 165.559 178.69 165.599 179.559 165.942ZM177.04 166.709C177.039 166.714 177.037 166.723 177.036 166.737C177.034 166.76 177.038 166.788 177.047 166.817C177.056 166.846 177.069 166.868 177.08 166.881L177.081 166.882L177.082 166.884C177.879 167.87 178.815 168.816 179.804 169.733L180.823 170.676L179.47 170.363C178.5 170.138 177.534 170.025 176.549 170.104C175.688 170.177 174.753 170.501 174.049 171.052C173.351 171.596 172.892 172.348 172.911 173.305C172.913 173.353 172.929 173.373 172.938 173.383C172.951 173.396 172.978 173.413 173.026 173.419C173.861 173.505 174.7 173.542 175.551 173.578L175.554 173.579C176.401 173.615 177.26 173.653 178.116 173.742L179.974 173.934L178.182 174.463C178.136 174.476 178.09 174.49 178.044 174.503C176.754 174.883 175.405 175.28 174.363 175.936C173.307 176.6 172.604 177.505 172.616 178.921L172.616 178.922V178.924C172.616 178.929 172.618 178.942 172.626 178.962C172.633 178.981 172.644 178.999 172.657 179.013C172.661 179.019 172.666 179.023 172.669 179.026C173.764 178.907 174.747 178.481 175.771 178.038C175.948 177.961 176.126 177.884 176.306 177.808C177.509 177.299 178.787 176.844 180.241 177.084L181.369 177.27L180.345 177.779C177.709 179.087 175.542 181.299 175.853 184.497L175.853 184.499L175.853 184.501C175.857 184.551 175.871 184.579 175.881 184.594C175.89 184.608 175.899 184.613 175.905 184.616C175.911 184.618 175.92 184.621 175.934 184.618C175.948 184.616 175.973 184.608 176.005 184.582C177.934 182.939 180.273 181.356 183.043 181.939C183.296 181.992 183.558 182.055 183.82 182.118C183.852 182.125 183.883 182.133 183.914 182.14C184.21 182.211 184.505 182.281 184.8 182.339C185.393 182.455 185.958 182.517 186.471 182.451L186.472 182.451L186.473 182.451C188.087 182.25 189.404 181.53 190.185 180.01L190.186 180.009L190.186 180.008C190.9 178.642 191.109 177.166 190.771 175.972C190.438 174.8 189.57 173.865 188.029 173.538L188.027 173.537L188.025 173.537C188.025 173.537 188.025 173.537 188.025 173.537C188.022 173.538 188.019 173.539 188.014 173.541L187.881 173.591L187.748 173.538C186.482 173.038 185.302 172.393 184.255 171.259L184.254 171.258L184.253 171.258C183.914 170.886 183.591 170.51 183.271 170.138C182.657 169.425 182.055 168.725 181.378 168.097L181.378 168.096C180.688 167.452 180.003 166.911 179.288 166.629C178.592 166.354 177.861 166.321 177.04 166.709Z" fill="#2C2C2C"/>
<path d="M121.613 152.048H201.413C202.367 152.048 203.283 152.427 203.958 153.102C204.633 153.778 205.013 154.693 205.013 155.648V200.48H118.013V155.648C118.013 154.693 118.392 153.778 119.067 153.102C119.742 152.427 120.658 152.048 121.613 152.048Z" fill="white"/>
<path fill-rule="evenodd" clip-rule="evenodd" d="M121.613 152.507C120.78 152.507 119.981 152.838 119.392 153.427C118.803 154.016 118.472 154.815 118.472 155.648V200.021H204.554V155.648C204.554 154.815 204.223 154.016 203.634 153.427C203.045 152.838 202.246 152.507 201.413 152.507H121.613ZM118.743 152.778C119.504 152.017 120.536 151.589 121.613 151.589H201.413C202.489 151.589 203.521 152.017 204.282 152.778C205.044 153.539 205.471 154.572 205.471 155.648V200.48C205.471 200.733 205.266 200.938 205.012 200.938H118.013C117.759 200.938 117.554 200.733 117.554 200.48V155.648C117.554 154.572 117.982 153.539 118.743 152.778Z" fill="#2C2C2C"/>
<path d="M205.013 168.161C194.084 170.932 182.867 177.988 161.966 187.923C141.808 197.513 125.306 197.348 118.013 196.606V200.479H205.013V168.161Z" fill="#2C2C2C"/>
<path fill-rule="evenodd" clip-rule="evenodd" d="M205.294 167.799C205.406 167.886 205.471 168.019 205.471 168.161V200.48C205.471 200.733 205.266 200.939 205.012 200.939H118.013C117.759 200.939 117.554 200.733 117.554 200.48V196.606C117.554 196.477 117.609 196.353 117.705 196.266C117.801 196.179 117.93 196.137 118.059 196.15C125.29 196.885 141.703 197.055 161.769 187.509L161.769 187.509C168.653 184.237 174.477 181.281 179.595 178.685C182.245 177.34 184.705 176.091 187.025 174.945C193.812 171.591 199.385 169.115 204.9 167.716C205.037 167.681 205.182 167.712 205.294 167.799ZM162.163 188.338C142.363 197.757 126.063 197.813 118.472 197.112V200.021H204.554V168.755C199.322 170.152 193.973 172.535 187.432 175.767C185.128 176.906 182.674 178.151 180.028 179.494C174.904 182.094 169.056 185.062 162.163 188.338Z" fill="#2C2C2C"/>
<path d="M205.013 197.794H118.013V200.487H205.013V197.794Z" fill="white"/>
<path fill-rule="evenodd" clip-rule="evenodd" d="M117.554 197.795C117.554 197.541 117.759 197.336 118.013 197.336H205.012C205.266 197.336 205.471 197.541 205.471 197.795V200.487C205.471 200.741 205.266 200.946 205.012 200.946H118.013C117.759 200.946 117.554 200.741 117.554 200.487V197.795ZM118.472 198.253V200.028H204.554V198.253H118.472Z" fill="#2C2C2C"/>
</svg>
