<svg width="176" height="160" viewBox="0 0 176 160" fill="none" xmlns="http://www.w3.org/2000/svg">
<path d="M167.232 48.426C167.232 48.426 160.647 22.9236 120.783 6.84046C80.9188 -9.2427 45.2546 5.65316 37.1241 24.4991C28.9936 43.3451 37.5144 53.522 32.0889 69.6164C26.6633 85.7109 -1.20996 106.095 10.0393 130.813C21.2885 155.532 73.928 162.591 116.524 157.491C159.121 152.392 192.4 95.8953 167.232 48.426Z" fill="#50BFD7"/>
<path opacity="0.7" d="M167.232 48.426C167.232 48.426 160.647 22.9236 120.783 6.84046C80.9188 -9.2427 45.2546 5.65316 37.1241 24.4991C28.9936 43.3451 37.5144 53.522 32.0889 69.6164C26.6633 85.7109 -1.20996 106.095 10.0393 130.813C21.2885 155.532 73.928 162.591 116.524 157.491C159.121 152.392 192.4 95.8953 167.232 48.426Z" fill="white"/>
<path fill-rule="evenodd" clip-rule="evenodd" d="M134.993 127.256C135.1 127.245 135.197 127.323 135.208 127.43L136.747 141.873C136.758 141.98 136.68 142.077 136.573 142.088C136.465 142.099 136.369 142.022 136.357 141.914L134.819 127.472C134.807 127.364 134.885 127.268 134.993 127.256Z" fill="#263238"/>
<path d="M135.005 127.857C135.005 127.857 132.242 125.706 132.242 120.789C132.242 115.871 135.927 111.88 135.927 111.88C135.927 111.88 139.922 116.797 139 121.711C138.077 126.625 135.005 127.857 135.005 127.857Z" fill="#50BFD7"/>
<path fill-rule="evenodd" clip-rule="evenodd" d="M136.079 111.756L135.927 111.88L135.783 111.747C135.822 111.705 135.877 111.682 135.933 111.684C135.99 111.686 136.043 111.712 136.079 111.756ZM135.005 127.857C134.885 128.011 134.884 128.011 134.884 128.011L134.884 128.011L134.883 128.01L134.881 128.009L134.874 128.003C134.868 127.998 134.859 127.991 134.848 127.982C134.826 127.963 134.794 127.936 134.755 127.9C134.675 127.828 134.563 127.721 134.43 127.577C134.163 127.29 133.809 126.857 133.455 126.267C132.748 125.088 132.046 123.286 132.046 120.789C132.046 118.283 132.984 116.021 133.915 114.393C134.38 113.578 134.846 112.918 135.196 112.461C135.371 112.233 135.517 112.055 135.619 111.934C135.671 111.874 135.711 111.827 135.739 111.796C135.753 111.78 135.764 111.768 135.771 111.76L135.78 111.751L135.782 111.748L135.783 111.747L135.783 111.747C135.783 111.747 135.783 111.747 135.927 111.88C136.079 111.756 136.079 111.756 136.079 111.757L136.079 111.757L136.08 111.758L136.083 111.761L136.092 111.772C136.1 111.782 136.111 111.797 136.126 111.816C136.156 111.854 136.199 111.911 136.254 111.984C136.363 112.13 136.518 112.344 136.7 112.616C137.064 113.16 137.539 113.936 137.986 114.868C138.877 116.727 139.665 119.231 139.193 121.747C138.724 124.242 137.707 125.813 136.798 126.762C136.344 127.236 135.919 127.553 135.604 127.753C135.447 127.853 135.318 127.923 135.227 127.969C135.181 127.992 135.145 128.009 135.12 128.02C135.107 128.026 135.097 128.03 135.09 128.033L135.082 128.037L135.079 128.038L135.078 128.038L135.078 128.038C135.078 128.039 135.078 128.039 135.005 127.857ZM135.005 127.857L134.885 128.011C134.94 128.054 135.013 128.064 135.078 128.039L135.005 127.857ZM135.036 127.626C135.041 127.624 135.046 127.622 135.05 127.619C135.131 127.579 135.249 127.515 135.394 127.422C135.685 127.237 136.086 126.939 136.515 126.491C137.373 125.595 138.354 124.093 138.808 121.675C139.258 119.278 138.509 116.865 137.633 115.038C137.196 114.126 136.73 113.366 136.374 112.834C136.196 112.568 136.046 112.36 135.94 112.218C135.932 112.208 135.925 112.198 135.918 112.188C135.819 112.305 135.677 112.477 135.507 112.699C135.166 113.145 134.71 113.79 134.255 114.587C133.342 116.184 132.438 118.377 132.438 120.789C132.438 123.209 133.117 124.941 133.791 126.066C134.129 126.629 134.466 127.041 134.717 127.311C134.842 127.445 134.946 127.545 135.018 127.61C135.024 127.615 135.03 127.621 135.036 127.626Z" fill="#263238"/>
<path fill-rule="evenodd" clip-rule="evenodd" d="M135.73 116.402C135.838 116.409 135.92 116.502 135.913 116.61L135.209 127.463C135.202 127.571 135.109 127.653 135.001 127.646C134.893 127.639 134.811 127.546 134.818 127.438L135.522 116.585C135.529 116.477 135.622 116.395 135.73 116.402Z" fill="#263238"/>
<path fill-rule="evenodd" clip-rule="evenodd" d="M142.966 130.694C143.058 130.749 143.088 130.87 143.032 130.962C141.123 134.128 139.49 137.452 138.153 140.898C138.114 140.999 138.001 141.049 137.9 141.01C137.799 140.971 137.749 140.857 137.788 140.757C139.133 137.289 140.776 133.945 142.697 130.76C142.753 130.668 142.873 130.638 142.966 130.694Z" fill="#263238"/>
<path d="M141.418 133.473C141.418 133.473 139.884 130.321 142.054 125.92C144.225 121.519 149.297 119.56 149.297 119.56C149.297 119.56 150.709 125.733 147.707 129.736C144.706 133.74 141.418 133.473 141.418 133.473Z" fill="#50BFD7"/>
<path fill-rule="evenodd" clip-rule="evenodd" d="M149.487 119.517L149.296 119.56L149.226 119.378C149.279 119.357 149.338 119.361 149.388 119.388C149.439 119.414 149.475 119.461 149.487 119.517ZM141.417 133.474C141.241 133.56 141.241 133.56 141.241 133.56L141.241 133.558L141.239 133.556L141.235 133.548C141.232 133.54 141.227 133.53 141.222 133.517C141.21 133.491 141.194 133.452 141.174 133.402C141.134 133.303 141.081 133.157 141.024 132.969C140.911 132.594 140.784 132.049 140.726 131.364C140.611 129.994 140.775 128.07 141.878 125.834C142.984 123.592 144.825 121.978 146.379 120.928C147.158 120.402 147.867 120.016 148.383 119.76C148.641 119.632 148.851 119.537 148.996 119.474C149.069 119.442 149.126 119.418 149.165 119.402C149.184 119.394 149.199 119.388 149.209 119.384L149.221 119.38L149.225 119.378L149.225 119.378L149.226 119.378C149.226 119.378 149.226 119.378 149.296 119.56C149.487 119.517 149.487 119.517 149.487 119.517L149.488 119.518L149.489 119.522L149.492 119.536C149.494 119.549 149.498 119.567 149.503 119.591C149.513 119.638 149.527 119.708 149.544 119.798C149.577 119.977 149.621 120.238 149.664 120.562C149.751 121.21 149.834 122.116 149.823 123.15C149.8 125.211 149.4 127.805 147.863 129.855C146.339 131.887 144.735 132.844 143.503 133.291C142.888 133.514 142.368 133.609 141.999 133.648C141.814 133.667 141.667 133.673 141.566 133.674C141.515 133.674 141.475 133.673 141.447 133.672C141.434 133.671 141.423 133.671 141.415 133.67L141.406 133.67L141.403 133.669L141.402 133.669C141.402 133.669 141.402 133.669 141.417 133.474ZM141.417 133.474L141.241 133.56C141.271 133.622 141.333 133.664 141.402 133.669L141.417 133.474ZM141.547 133.282C141.553 133.282 141.558 133.282 141.563 133.282C141.653 133.281 141.787 133.276 141.957 133.258C142.299 133.222 142.788 133.134 143.37 132.923C144.532 132.502 146.072 131.59 147.55 129.62C149.014 127.667 149.409 125.172 149.431 123.146C149.442 122.135 149.36 121.248 149.276 120.614C149.234 120.296 149.191 120.043 149.159 119.869C149.156 119.857 149.154 119.845 149.152 119.833C149.012 119.894 148.808 119.986 148.557 120.111C148.054 120.36 147.36 120.739 146.599 121.253C145.074 122.283 143.293 123.85 142.229 126.008C141.161 128.173 141.007 130.025 141.117 131.331C141.171 131.985 141.293 132.503 141.399 132.856C141.452 133.033 141.502 133.168 141.538 133.258C141.541 133.266 141.544 133.274 141.547 133.282Z" fill="#263238"/>
<path fill-rule="evenodd" clip-rule="evenodd" d="M147.112 124.111C147.205 124.168 147.234 124.288 147.178 124.381L141.585 133.576C141.528 133.668 141.408 133.697 141.316 133.641C141.223 133.585 141.194 133.464 141.25 133.372L146.843 124.177C146.899 124.085 147.02 124.055 147.112 124.111Z" fill="#263238"/>
<path fill-rule="evenodd" clip-rule="evenodd" d="M128.431 130.256C128.524 130.202 128.644 130.234 128.699 130.327L130.851 134.035C132.27 136.579 133.409 139.27 134.246 142.061C134.277 142.164 134.219 142.273 134.115 142.305C134.012 142.336 133.902 142.277 133.871 142.173C133.042 139.411 131.915 136.746 130.51 134.227L128.36 130.524C128.305 130.43 128.337 130.31 128.431 130.256Z" fill="#263238"/>
<path d="M130.259 133.29C128.561 133.811 126.76 133.894 125.022 133.531C123.285 133.168 121.667 132.372 120.32 131.215C115.55 127.208 115.816 119.03 115.816 119.03C115.816 119.03 125.063 117.711 128.796 122.95C129.878 124.417 130.578 126.13 130.833 127.935C131.089 129.74 130.891 131.58 130.259 133.29Z" fill="#50BFD7"/>
<path fill-rule="evenodd" clip-rule="evenodd" d="M115.816 119.031C115.621 119.025 115.621 119.025 115.621 119.025L115.621 119.027L115.621 119.032L115.62 119.05C115.62 119.067 115.619 119.091 115.619 119.122C115.618 119.184 115.617 119.275 115.618 119.392C115.621 119.627 115.629 119.965 115.654 120.383C115.704 121.22 115.821 122.377 116.088 123.661C116.621 126.222 117.759 129.32 120.194 131.365C121.565 132.543 123.213 133.354 124.983 133.724C126.753 134.094 128.588 134.009 130.316 133.478L130.259 133.291L130.442 133.359C131.086 131.619 131.288 129.746 131.028 127.909C130.768 126.072 130.055 124.329 128.954 122.836C127.039 120.148 123.724 119.159 120.929 118.832C119.527 118.668 118.243 118.669 117.311 118.711C116.844 118.732 116.465 118.764 116.202 118.79C116.07 118.803 115.967 118.815 115.897 118.823C115.862 118.828 115.836 118.831 115.817 118.834L115.796 118.836L115.791 118.837L115.789 118.837C115.789 118.837 115.789 118.837 115.816 119.031ZM116.01 119.204C116.01 119.255 116.01 119.317 116.01 119.389C116.012 119.617 116.02 119.949 116.045 120.36C116.094 121.182 116.209 122.32 116.471 123.581C116.998 126.109 118.111 129.104 120.446 131.066L120.448 131.067C121.77 132.202 123.357 132.984 125.063 133.341C126.736 133.69 128.47 133.618 130.108 133.132C130.703 131.478 130.886 129.704 130.64 127.964C130.389 126.191 129.701 124.508 128.638 123.067L128.636 123.065C126.819 120.514 123.645 119.544 120.884 119.221C119.508 119.06 118.246 119.061 117.328 119.103C116.87 119.123 116.498 119.154 116.24 119.18C116.148 119.189 116.071 119.197 116.01 119.204ZM115.816 119.031L115.789 118.837C115.695 118.851 115.624 118.93 115.621 119.025L115.816 119.031Z" fill="#263238"/>
<path fill-rule="evenodd" clip-rule="evenodd" d="M119.163 121.729C119.241 121.654 119.365 121.657 119.44 121.735L130.4 133.156C130.475 133.234 130.472 133.358 130.394 133.433C130.316 133.508 130.192 133.505 130.117 133.427L119.157 122.006C119.082 121.928 119.085 121.804 119.163 121.729Z" fill="#263238"/>
<path d="M141.608 138.801H129.908V150.274H141.608V138.801Z" fill="#263238"/>
<path fill-rule="evenodd" clip-rule="evenodd" d="M129.713 138.8C129.713 138.692 129.801 138.604 129.909 138.604H141.608C141.716 138.604 141.804 138.692 141.804 138.8V150.273C141.804 150.381 141.716 150.468 141.608 150.468H129.909C129.801 150.468 129.713 150.381 129.713 150.273V138.8ZM130.105 138.996V150.077H141.412V138.996H130.105Z" fill="#263238"/>
<path opacity="0.3" d="M160.464 29.2462H77.5906V87.8535H160.464V29.2462Z" fill="black"/>
<path d="M162.544 26.2513H79.6707V84.8587H162.544V26.2513Z" fill="white"/>
<path fill-rule="evenodd" clip-rule="evenodd" d="M79.1865 26.2514C79.1865 26.0372 79.4032 25.8635 79.6705 25.8635H162.544C162.811 25.8635 163.028 26.0372 163.028 26.2514V84.8588C163.028 85.0731 162.811 85.2467 162.544 85.2467H79.6705C79.4032 85.2467 79.1865 85.0731 79.1865 84.8588V26.2514ZM80.1546 26.6394V84.4709H162.059V26.6394H80.1546Z" fill="#263238"/>
<path d="M162.544 26.2513H79.6707V30.4398H162.544V26.2513Z" fill="#263238"/>
<path fill-rule="evenodd" clip-rule="evenodd" d="M79.1865 26.2514C79.1865 26.0372 79.4032 25.8635 79.6705 25.8635H162.544C162.811 25.8635 163.028 26.0372 163.028 26.2514V30.4399C163.028 30.6542 162.811 30.8278 162.544 30.8278H79.6705C79.4032 30.8278 79.1865 30.6542 79.1865 30.4399V26.2514ZM80.1546 26.6394V30.052H162.059V26.6394H80.1546Z" fill="#263238"/>
<path d="M115.926 51.3514V45.1729C115.926 44.0496 116.483 42.9723 117.474 42.178C118.465 41.3837 119.809 40.9375 121.211 40.9375C122.612 40.9375 123.956 41.3837 124.947 42.178C125.938 42.9723 126.495 44.0496 126.495 45.1729V48.7831H128.601V45.1729C128.601 43.6019 127.823 42.0953 126.437 40.9845C125.051 39.8737 123.171 39.2496 121.211 39.2496C119.251 39.2496 117.371 39.8737 115.985 40.9845C114.599 42.0953 113.821 43.6019 113.821 45.1729V51.3514H115.926Z" fill="white"/>
<path d="M149.999 65.8071H92.2088C90.7729 65.8071 89.6089 66.7401 89.6089 67.8909V72.8348C89.6089 73.9857 90.7729 74.9186 92.2088 74.9186H149.999C151.435 74.9186 152.599 73.9857 152.599 72.8348V67.8909C152.599 66.7401 151.435 65.8071 149.999 65.8071Z" fill="white"/>
<path d="M83.2488 141.071C78.7864 140.663 74.3796 140.496 74.3796 140.496C72.7603 140.546 69.3115 140.688 65.7515 141.071C66.7898 144.619 70.3128 147.233 74.497 147.233C78.6875 147.239 82.2105 144.613 83.2488 141.071Z" fill="#50BFD7"/>
<path d="M78.1566 147.519C78.1566 147.673 78.2926 147.853 78.4533 147.834C80.2766 147.642 81.6734 146.233 83.472 146.53C81.6672 147.426 80.1035 148.984 80.326 151.277C80.3507 151.561 80.6227 151.672 80.8328 151.499C82.1246 150.399 83.6079 149.416 85.3385 149.781C86.0802 149.936 86.9516 150.226 87.718 150.127C88.8615 149.985 89.8256 149.466 90.3943 148.359C91.3955 146.443 91.0247 144.144 88.7811 143.668C88.7255 143.656 88.6822 143.662 88.6328 143.681C87.8046 143.353 87.0505 142.939 86.383 142.216C85.7402 141.511 85.1407 140.733 84.4423 140.084C83.509 139.212 82.4954 138.526 81.2593 139.113C81.0739 139.2 81.0862 139.466 81.2037 139.608C81.7476 140.281 82.3842 140.924 83.0517 141.542C82.3842 141.388 81.7105 141.307 81.0182 141.363C79.7821 141.468 78.3235 142.29 78.3544 143.761C78.3606 143.946 78.4904 144.058 78.6511 144.076C79.7883 144.194 80.9317 144.175 82.0628 144.293C80.3013 144.812 78.1381 145.405 78.1566 147.519Z" fill="#C4C4C4"/>
<path fill-rule="evenodd" clip-rule="evenodd" d="M83.0545 138.821C83.6242 139.045 84.1389 139.462 84.6102 139.902C85.0827 140.341 85.5188 140.847 85.942 141.338C86.1518 141.582 86.3584 141.822 86.5646 142.048C87.1785 142.713 87.8711 143.106 88.6486 143.42C88.7049 143.411 88.7655 143.411 88.8329 143.426C90.0435 143.683 90.7687 144.444 91.0417 145.405C91.3107 146.353 91.1358 147.472 90.6131 148.472C89.9993 149.666 88.9537 150.221 87.7487 150.371C87.3263 150.426 86.8862 150.372 86.4709 150.291C86.2621 150.25 86.0553 150.201 85.8573 150.154C85.8363 150.149 85.8154 150.144 85.7946 150.139C85.6179 150.096 85.4494 150.056 85.2875 150.022L85.2869 150.022C83.6827 149.684 82.2833 150.587 80.9925 151.687L80.991 151.688L80.9894 151.689C80.8212 151.828 80.6036 151.868 80.4119 151.786C80.2203 151.704 80.0988 151.518 80.0793 151.299C79.878 149.219 81.0619 147.727 82.5555 146.764C82.0585 146.832 81.5744 147.011 81.0676 147.226C80.9549 147.273 80.8408 147.323 80.7251 147.373C80.0391 147.671 79.2992 147.993 78.4796 148.079C78.2948 148.1 78.1469 148.005 78.0581 147.903C77.9696 147.802 77.9092 147.663 77.9088 147.519C77.8989 146.355 78.5 145.607 79.3099 145.098C79.7371 144.829 80.2293 144.622 80.7284 144.447C80.602 144.442 80.4752 144.436 80.3479 144.431L80.3427 144.43C79.7762 144.406 79.2005 144.381 78.6251 144.321L78.6236 144.321L78.6221 144.321C78.3579 144.29 78.1176 144.093 78.1067 143.768L78.1067 143.767L78.1066 143.765C78.0892 142.936 78.4954 142.294 79.0584 141.854C79.6166 141.418 80.3377 141.172 80.9967 141.116L80.9973 141.116L80.9979 141.116C81.4346 141.081 81.8624 141.097 82.2834 141.151C81.8297 140.704 81.3982 140.242 81.0115 139.763C80.912 139.642 80.8617 139.479 80.8705 139.325C80.8796 139.165 80.9575 138.98 81.1533 138.889C81.8385 138.563 82.4724 138.591 83.0545 138.821ZM81.3672 139.334C81.3661 139.338 81.3647 139.344 81.3642 139.353C81.3633 139.368 81.3655 139.387 81.3717 139.406C81.3779 139.426 81.3865 139.441 81.3937 139.449L81.3946 139.45L81.3954 139.451C81.929 140.112 82.5561 140.746 83.2191 141.36L83.9017 141.992L82.9953 141.782C82.3451 141.632 81.698 141.555 81.038 141.608C80.4611 141.658 79.8351 141.875 79.3628 142.244C78.8957 142.609 78.5881 143.112 78.6009 143.753C78.6023 143.786 78.6125 143.799 78.619 143.806C78.6277 143.814 78.6458 143.826 78.6777 143.83C79.2372 143.887 79.7994 143.912 80.3694 143.937L80.3714 143.937C80.9389 143.961 81.5142 143.986 82.0877 144.046L83.3325 144.175L82.1321 144.529C82.1013 144.538 82.0705 144.547 82.0396 144.556C81.1757 144.81 80.2718 145.076 79.5733 145.516C78.8661 145.961 78.3949 146.567 78.4033 147.516L78.4033 147.517V147.518C78.4033 147.521 78.4042 147.53 78.4094 147.543C78.4146 147.556 78.4221 147.568 78.4302 147.578C78.4335 147.581 78.4364 147.584 78.4386 147.586C79.1721 147.507 79.831 147.221 80.5166 146.924C80.6351 146.873 80.7544 146.821 80.875 146.77C81.6811 146.429 82.5373 146.124 83.5116 146.285L84.2674 146.41L83.5813 146.75C81.8154 147.627 80.3636 149.109 80.5715 151.252L80.5716 151.253L80.5717 151.254C80.5746 151.288 80.5838 151.307 80.5903 151.316C80.5968 151.326 80.6029 151.33 80.6067 151.331C80.6106 151.333 80.6167 151.334 80.6263 151.333C80.6357 151.331 80.6524 151.326 80.6738 151.308C81.9662 150.208 83.5328 149.147 85.3886 149.538C85.5582 149.573 85.7342 149.616 85.9096 149.658C85.9306 149.663 85.9515 149.668 85.9724 149.673C86.1704 149.72 86.3683 149.767 86.5659 149.806C86.9633 149.883 87.3419 149.925 87.6858 149.881L87.6864 149.881L87.687 149.881C88.7682 149.746 89.6505 149.264 90.1738 148.246L90.1742 148.245L90.1746 148.244C90.6529 147.329 90.7931 146.34 90.5661 145.54C90.3432 144.755 89.7615 144.128 88.7292 143.909L88.7281 143.909L88.7269 143.909C88.7268 143.909 88.7266 143.909 88.7265 143.909C88.7248 143.909 88.7224 143.91 88.719 143.911L88.6298 143.945L88.5413 143.91C87.693 143.574 86.9022 143.143 86.2008 142.383L86.2003 142.382L86.1998 142.382C85.9726 142.133 85.7559 141.881 85.5415 141.632C85.1301 141.154 84.7269 140.685 84.2734 140.264L84.273 140.263C83.8111 139.832 83.3524 139.47 82.873 139.28C82.4069 139.096 81.9169 139.074 81.3672 139.334Z" fill="#2C2C2C"/>
<path fill-rule="evenodd" clip-rule="evenodd" d="M148.671 150.42C148.671 150.297 148.771 150.196 148.895 150.196H156.269C156.393 150.196 156.493 150.297 156.493 150.42C156.493 150.544 156.393 150.644 156.269 150.644H148.895C148.771 150.644 148.671 150.544 148.671 150.42Z" fill="#2C2C2C"/>
<path fill-rule="evenodd" clip-rule="evenodd" d="M9.60498 150.42C9.60498 150.297 9.70518 150.196 9.82878 150.196H146.437C146.56 150.196 146.661 150.297 146.661 150.42C146.661 150.544 146.56 150.644 146.437 150.644H9.82878C9.70518 150.644 9.60498 150.544 9.60498 150.42Z" fill="#2C2C2C"/>
<path fill-rule="evenodd" clip-rule="evenodd" d="M0 150.42C0 150.297 0.1002 150.196 0.223804 150.196H5.2632C5.3868 150.196 5.48701 150.297 5.48701 150.42C5.48701 150.544 5.3868 150.644 5.2632 150.644H0.223804C0.1002 150.644 0 150.544 0 150.42Z" fill="#2C2C2C"/>
<path d="M47.6207 126.246H101.085C101.724 126.246 102.338 126.5 102.79 126.952C103.242 127.404 103.496 128.018 103.496 128.657V158.693H45.209V128.657C45.209 128.018 45.4631 127.404 45.9154 126.952C46.3677 126.5 46.9811 126.246 47.6207 126.246Z" fill="white"/>
<path fill-rule="evenodd" clip-rule="evenodd" d="M47.621 126.552C47.0629 126.552 46.5277 126.774 46.133 127.169C45.7384 127.563 45.5167 128.099 45.5167 128.657V158.385H103.189V128.657C103.189 128.099 102.968 127.563 102.573 127.169C102.178 126.774 101.643 126.552 101.085 126.552H47.621ZM45.6983 126.734C46.2082 126.224 46.8998 125.938 47.621 125.938H101.085C101.806 125.938 102.498 126.224 103.008 126.734C103.518 127.244 103.804 127.936 103.804 128.657V158.693C103.804 158.862 103.666 159 103.497 159H45.2093C45.0395 159 44.9019 158.862 44.9019 158.693V128.657C44.9019 127.936 45.1883 127.244 45.6983 126.734Z" fill="#2C2C2C"/>
<path d="M103.496 137.04C96.1742 138.897 88.6592 143.624 74.6565 150.28C61.1507 156.705 50.0952 156.594 45.209 156.098V158.693H103.496V137.04Z" fill="#2C2C2C"/>
<path fill-rule="evenodd" clip-rule="evenodd" d="M103.685 136.798C103.76 136.856 103.804 136.946 103.804 137.041V158.693C103.804 158.863 103.666 159.001 103.497 159.001H45.2093C45.0395 159.001 44.9019 158.863 44.9019 158.693V156.098C44.9019 156.011 44.9387 155.929 45.0032 155.87C45.0677 155.812 45.1539 155.784 45.2404 155.793C50.0847 156.285 61.0811 156.399 74.5248 150.004L74.5248 150.004C79.1368 147.811 83.039 145.831 86.4675 144.091C88.243 143.19 89.8915 142.354 91.4457 141.586C95.9925 139.338 99.7264 137.68 103.421 136.743C103.513 136.719 103.611 136.74 103.685 136.798ZM74.7888 150.559C61.5231 156.87 50.6027 156.907 45.5167 156.437V158.386H103.189V137.438C99.6845 138.374 96.1003 139.971 91.7181 142.137C90.1744 142.9 88.5308 143.734 86.7579 144.633C83.3247 146.375 79.4066 148.364 74.7888 150.559Z" fill="#2C2C2C"/>
<path fill-rule="evenodd" clip-rule="evenodd" d="M44.9019 156.894C44.9019 156.724 45.0395 156.586 45.2093 156.586H103.497C103.666 156.586 103.804 156.724 103.804 156.894V158.698C103.804 158.867 103.666 159.005 103.497 159.005H45.2093C45.0395 159.005 44.9019 158.867 44.9019 158.698V156.894ZM45.5167 157.201V158.39H103.189V157.201H45.5167Z" fill="#2C2C2C"/>
<path d="M77.4586 93.3953C77.4586 94.7009 76.1025 95.7594 74.4296 95.7594C72.7568 95.7594 71.4006 94.7009 71.4006 93.3953C71.4006 92.0897 72.7568 91.0312 74.4296 91.0312C76.1025 91.0312 77.4586 92.0897 77.4586 93.3953Z" fill="white"/>
<path fill-rule="evenodd" clip-rule="evenodd" d="M74.4296 95.1683C75.9208 95.1683 76.8676 94.2465 76.8676 93.3953C76.8676 92.5441 75.9208 91.6222 74.4296 91.6222C72.9384 91.6222 71.9917 92.5441 71.9917 93.3953C71.9917 94.2465 72.9384 95.1683 74.4296 95.1683ZM74.4296 95.7594C76.1025 95.7594 77.4586 94.7009 77.4586 93.3953C77.4586 92.0897 76.1025 91.0312 74.4296 91.0312C72.7568 91.0312 71.4006 92.0897 71.4006 93.3953C71.4006 94.7009 72.7568 95.7594 74.4296 95.7594Z" fill="#454545"/>
<path d="M103.855 157.255H44.2126V159.101H103.855V157.255Z" fill="white"/>
<path fill-rule="evenodd" clip-rule="evenodd" d="M43.8984 157.256C43.8984 157.082 44.0393 156.941 44.213 156.941H103.856C104.029 156.941 104.17 157.082 104.17 157.256V159.102C104.17 159.275 104.029 159.416 103.856 159.416H44.213C44.0393 159.416 43.8984 159.275 43.8984 159.102V157.256ZM44.5275 157.57V158.787H103.541V157.57H44.5275Z" fill="#2C2C2C"/>
<path opacity="0.15" d="M66.2764 93.3901C65.652 93.0062 65.074 92.6054 64.5214 92.2046C64.7619 91.7827 65.8334 89.9644 65.9516 88.9476C66.0697 87.9309 65.9516 86.7032 65.188 85.9944C65.017 85.8202 64.8115 85.6839 64.5845 85.5942C64.3575 85.5046 64.1143 85.4636 63.8705 85.4739C63.6267 85.4843 63.3877 85.5457 63.1692 85.6542C62.9506 85.7628 62.7573 85.9161 62.6018 86.1041C61.6989 87.2643 62.4879 89.7914 63.2262 90.8756C63.2641 90.9347 63.7409 91.4916 64.07 91.8882C63.821 91.7025 63.5637 91.5169 63.3316 91.3355C62.4541 90.652 61.6947 89.9728 61.0281 89.3653C60.6484 89.0193 60.3151 88.6945 60.0072 88.3907C60.0367 87.876 60.1295 85.8003 59.7751 84.8595C59.4207 83.9187 58.7288 82.8766 57.7332 82.5855C57.5029 82.5088 57.2591 82.4813 57.0174 82.5045C56.7758 82.5278 56.5417 82.6014 56.3303 82.7206C56.1189 82.8399 55.9347 83.0021 55.7898 83.1968C55.6449 83.3915 55.5423 83.6144 55.4887 83.8512C55.223 85.294 57.0877 87.1757 58.2395 87.8001C58.3407 87.8549 59.9945 88.5131 59.9987 88.4878V88.4582C60.2941 88.7578 60.6105 89.0742 60.9606 89.4159C61.6188 90.0361 62.3655 90.7322 63.2304 91.4367C64.1528 92.2085 65.1207 92.9241 66.1288 93.5799L66.7616 93.9723H67.2805C66.9514 93.7909 66.6055 93.5926 66.2764 93.3901Z" fill="black"/>
<path opacity="0.15" d="M64.2427 92.2421C64.2427 92.221 62.5551 91.643 62.4581 91.6219C61.1924 91.3435 58.5387 91.5586 57.8173 92.8285C57.616 93.1782 57.5528 93.5906 57.6401 93.9845H62.7787C63.3012 93.4335 63.79 92.8517 64.2427 92.2421Z" fill="black"/>
<path opacity="0.15" d="M87.0242 86.5166C86.6909 86.2044 86.3661 85.8879 86.0412 85.5757C86.21 85.4703 88.2393 84.213 88.851 83.2975C89.3952 82.4833 89.8635 81.2978 89.526 80.3148C89.4537 80.0818 89.3331 79.8667 89.1722 79.6834C89.0113 79.5001 88.8135 79.3527 88.5919 79.2508C88.3702 79.1489 88.1296 79.0948 87.8857 79.0921C87.6418 79.0893 87.4 79.1379 87.1761 79.2348C85.8429 79.8507 85.3915 82.4622 85.5518 83.7616C85.5518 83.8587 85.8809 85.1834 85.9737 85.5167C85.2523 84.829 84.5435 84.1329 83.8643 83.4072C82.9572 82.4447 82.1117 81.426 81.333 80.357C81.4131 80.3106 83.5352 79.0069 84.1638 78.0703C84.7081 77.2561 85.1764 76.0664 84.8346 75.0876C84.7627 74.8548 84.6426 74.6397 84.4821 74.4563C84.3217 74.2729 84.1244 74.1253 83.9032 74.0231C83.6821 73.9208 83.4418 73.8662 83.1982 73.8628C82.9545 73.8594 82.7129 73.9073 82.4889 74.0033C81.1558 74.6235 80.7001 77.235 80.8604 78.5344C80.8604 78.6357 81.219 80.0617 81.2823 80.3148L81.1389 80.1292C80.3856 79.0345 79.7305 77.8755 79.1813 76.6655C78.8691 76.0031 78.6118 75.3492 78.3713 74.7079C78.7932 74.5054 80.7001 73.5646 81.3583 72.7841C82.0164 72.0036 82.586 70.9025 82.3581 69.8941C82.312 69.6542 82.2158 69.4267 82.076 69.2263C81.9362 69.0259 81.7558 68.8572 81.5465 68.7311C81.3372 68.605 81.1038 68.5243 80.8613 68.4942C80.6188 68.4642 80.3727 68.4855 80.139 68.5568C78.7468 69.0251 78.0296 71.569 78.0296 72.8811C78.0296 72.9528 78.1182 73.6743 78.1899 74.2016C78.0886 73.9105 77.9747 73.6152 77.8819 73.3325C77.5275 72.282 77.266 71.2948 77.0381 70.4215C76.9158 69.9195 76.8145 69.468 76.7217 69.0419C77.0297 68.62 78.2574 66.9325 78.4768 65.9706C78.6962 65.0087 78.7004 63.7388 78.0296 62.9456C77.8784 62.754 77.6886 62.5964 77.4725 62.4829C77.2564 62.3695 77.0189 62.3029 76.7753 62.2873C76.5317 62.2718 76.2876 62.3078 76.0589 62.3928C75.8301 62.4779 75.6218 62.6102 75.4476 62.7811C74.4266 63.8401 74.9456 66.4389 75.5657 67.5949C75.6164 67.6919 76.6331 69.1601 76.65 69.139V69.1137C76.7259 69.5355 76.8145 69.9574 76.9242 70.4426C77.1267 71.3243 77.3672 72.3158 77.7005 73.3958C78.0467 74.5433 78.458 75.6702 78.9324 76.7709C79.4636 78.0069 80.1016 79.1941 80.8393 80.319L80.8689 80.357C80.5356 80.087 79.5737 79.3655 79.4935 79.3191C78.3629 78.6526 75.7851 78.0535 74.6882 79.0112C74.5113 79.1789 74.3715 79.3819 74.2779 79.6071C74.1843 79.8322 74.1391 80.0746 74.1451 80.3183C74.151 80.5621 74.2081 80.8019 74.3125 81.0222C74.417 81.2425 74.5665 81.4384 74.7515 81.5973C75.5151 82.2977 76.7934 82.3399 77.7553 82.1627C78.8438 81.9644 80.8056 80.5932 80.9617 80.4751C81.7427 81.6012 82.5983 82.6738 83.5226 83.6857C84.0584 84.2805 84.6152 84.8585 85.1806 85.4323C84.8853 85.2087 84.6152 85.0104 84.5773 84.9893C83.4424 84.3227 80.8689 83.7236 79.772 84.6813C79.595 84.8491 79.4552 85.0521 79.3617 85.2773C79.2681 85.5024 79.2228 85.7447 79.2288 85.9885C79.2348 86.2323 79.2918 86.472 79.3963 86.6924C79.5008 86.9127 79.6503 87.1086 79.8353 87.2675C80.5989 87.9678 81.8772 88.01 82.8391 87.8328C83.801 87.6556 85.5139 86.5208 85.9611 86.2128L86.6192 86.8709C87.6739 87.913 88.7287 88.9466 89.7412 89.9971C90.0956 90.3642 90.4331 90.7397 90.7706 91.1194C90.5048 90.9168 90.2812 90.7523 90.2432 90.7312C89.1126 90.0688 86.5391 89.4655 85.4421 90.4275C85.2646 90.5949 85.1243 90.7978 85.0303 91.023C84.9364 91.2482 84.8909 91.4907 84.8969 91.7347C84.9029 91.9786 84.9601 92.2186 85.065 92.4389C85.1698 92.6593 85.3199 92.8551 85.5054 93.0136C86.269 93.714 87.5431 93.7562 88.5093 93.579C89.4754 93.4018 91.0195 92.3724 91.5511 92.0138C91.8844 92.4061 92.2177 92.8027 92.5257 93.1993C92.7113 93.4566 92.9096 93.6929 93.0868 93.9544H93.9812L93.728 93.6001C93.5382 93.3216 93.3061 93.0516 93.0825 92.7563C92.5721 92.1192 92.0236 91.4906 91.4541 90.8831C91.935 90.5836 93.6141 89.4909 94.1626 88.6724C94.711 87.8539 95.1751 86.6684 94.8376 85.6897C94.7652 85.4567 94.6446 85.2415 94.4837 85.0581C94.3229 84.8747 94.1253 84.7271 93.9038 84.6249C93.6823 84.5227 93.4417 84.4681 93.1978 84.4648C92.9539 84.4614 92.7119 84.5093 92.4877 84.6054C91.1545 85.2256 90.6989 87.8371 90.8634 89.1365C90.8634 89.2166 91.0912 90.1406 91.222 90.6426C90.8803 90.2756 90.5386 89.9085 90.1757 89.5499C89.1801 88.5627 88.0958 87.546 87.0242 86.5166Z" fill="black"/>
<path opacity="0.15" d="M77.9791 93.5835C77.9791 92.6048 77.7176 91.356 76.8949 90.7231C76.706 90.5691 76.4868 90.4564 76.2516 90.3923C76.0164 90.3282 75.7703 90.3142 75.5294 90.3512C75.2884 90.3882 75.0579 90.4753 74.8527 90.607C74.6475 90.7386 74.4723 90.9119 74.3382 91.1155C73.891 91.8454 74.064 92.9718 74.4564 93.9843H77.9412C77.9633 93.8518 77.976 93.7179 77.9791 93.5835Z" fill="black"/>
<path opacity="0.15" d="M74.5624 75.3996C75.7057 75.4967 78.1315 74.6149 78.1315 74.6149C78.1315 74.6149 77.0642 73.1932 76.9882 73.113C76.0727 72.1722 73.7523 70.8939 72.4361 71.5478C72.2174 71.6619 72.0256 71.8212 71.8732 72.0151C71.7209 72.209 71.6116 72.4331 71.5525 72.6725C71.4935 72.912 71.486 73.1612 71.5307 73.4037C71.5754 73.6462 71.6712 73.8765 71.8117 74.0791C72.3643 74.9356 73.5836 75.3153 74.5624 75.3996Z" fill="black"/>
<path opacity="0.15" d="M84.346 92.2794C84.1573 92.1247 83.9382 92.0114 83.7029 91.947C83.4676 91.8826 83.2213 91.8684 82.9802 91.9054C82.739 91.9424 82.5083 92.0298 82.3032 92.1618C82.098 92.2939 81.9229 92.4676 81.7893 92.6718C81.5722 93.0727 81.4838 93.5309 81.5362 93.9838H85.3121C85.1983 93.3205 84.8567 92.7177 84.346 92.2794Z" fill="black"/>
<path opacity="0.15" d="M71.1916 91.8194C71.1916 90.8406 70.93 89.5918 70.1074 88.9632C69.919 88.8078 69.6999 88.694 69.4645 88.6292C69.229 88.5644 68.9826 88.5501 68.7412 88.5871C68.4999 88.6242 68.269 88.7118 68.0639 88.8442C67.8587 88.9766 67.6839 89.1509 67.5507 89.3556C66.7913 90.5875 67.8123 92.9627 68.6603 93.9963H70.6389C70.9329 93.303 71.1193 92.5689 71.1916 91.8194Z" fill="black"/>
<path d="M80.6965 58.3522V54.7071H81.5994C81.7813 54.6976 81.9623 54.7385 82.1225 54.8252C82.2544 54.9049 82.3555 55.0268 82.4094 55.1711C82.473 55.3453 82.5031 55.53 82.498 55.7154C82.5022 55.8868 82.4675 56.057 82.3967 56.2132C82.3333 56.3502 82.2286 56.4638 82.0972 56.5381C81.9468 56.6225 81.7759 56.6634 81.6036 56.6562H81.1817V58.3437L80.6965 58.3522ZM81.2028 56.2891H81.4348C81.5533 56.2927 81.6716 56.277 81.785 56.2427C81.8646 56.2107 81.9283 56.1486 81.9622 56.0698C82.004 55.958 82.0227 55.8388 82.017 55.7196C82.0211 55.5849 82.0083 55.4503 81.9791 55.3188C81.9689 55.2764 81.9491 55.2369 81.9213 55.2032C81.8936 55.1696 81.8585 55.1428 81.8188 55.1247C81.6981 55.0831 81.5708 55.0645 81.4433 55.0699H81.2028V56.2891Z" fill="#CCCCCC"/>
<path d="M82.4976 58.3517L83.2696 54.7065H83.759L84.5395 58.3517H84.0712L83.9024 57.4319H83.1599L82.9869 58.3517H82.4976ZM83.2148 57.086H83.8223L83.5185 55.4448L83.2148 57.086Z" fill="#CCCCCC"/>
<path d="M85.7591 58.3892C85.5753 58.3956 85.3937 58.3487 85.2359 58.2542C85.0962 58.1643 84.9861 58.0351 84.9195 57.8829C84.8421 57.7071 84.7992 57.518 84.793 57.326L85.2402 57.2079C85.2482 57.3335 85.2694 57.458 85.3035 57.5791C85.3271 57.6893 85.3795 57.7912 85.4553 57.8745C85.5394 57.9464 85.6464 57.9859 85.757 57.9859C85.8676 57.9859 85.9746 57.9464 86.0586 57.8745C86.1318 57.7859 86.168 57.6726 86.1599 57.5581C86.1673 57.4168 86.1272 57.2772 86.046 57.1615C85.9622 57.051 85.8675 56.9492 85.7633 56.8577L85.1516 56.3177C85.0402 56.2218 84.9497 56.1041 84.8858 55.9718C84.826 55.826 84.7973 55.6694 84.8014 55.5119C84.7957 55.3985 84.8129 55.2851 84.8521 55.1786C84.8912 55.072 84.9515 54.9744 85.0292 54.8917C85.1131 54.815 85.2117 54.756 85.319 54.7183C85.4263 54.6806 85.5401 54.6649 85.6536 54.6723C85.7824 54.6694 85.9107 54.688 86.0333 54.7272C86.1381 54.7602 86.2326 54.8198 86.3075 54.9002C86.3876 54.9843 86.4481 55.0852 86.4847 55.1955C86.5309 55.3321 86.5606 55.4737 86.5733 55.6174L86.1514 55.7355C86.1441 55.6245 86.1272 55.5144 86.1008 55.4064C86.0765 55.3132 86.0268 55.2285 85.9574 55.1617C85.8753 55.0955 85.7715 55.0624 85.6663 55.0689C85.6086 55.0584 85.5492 55.0621 85.4932 55.0796C85.4372 55.097 85.3863 55.1278 85.3448 55.1693C85.3033 55.2108 85.2725 55.2617 85.255 55.3177C85.2375 55.3737 85.2339 55.4331 85.2444 55.4908C85.2416 55.5856 85.2619 55.6797 85.3035 55.765C85.3496 55.8489 85.4111 55.9234 85.4849 55.9844L86.1008 56.5244C86.2408 56.6475 86.3629 56.7895 86.4636 56.9463C86.5727 57.1237 86.6284 57.3288 86.624 57.537C86.6285 57.7004 86.5892 57.8621 86.5101 58.0053C86.4374 58.1319 86.3307 58.2357 86.2021 58.3048C86.063 58.3672 85.9113 58.3961 85.7591 58.3892Z" fill="#CCCCCC"/>
<path d="M87.8934 58.3896C87.7096 58.3959 87.5279 58.3491 87.3702 58.2546C87.2305 58.1646 87.1204 58.0355 87.0538 57.8833C86.9784 57.7068 86.9355 57.5181 86.9272 57.3264L87.3744 57.2083C87.3845 57.3336 87.4057 57.4579 87.4377 57.5795C87.4628 57.69 87.5166 57.7919 87.5938 57.8749C87.6768 57.9473 87.7832 57.9872 87.8934 57.9872C88.0035 57.9872 88.1099 57.9473 88.1929 57.8749C88.266 57.7863 88.3023 57.673 88.2942 57.5584C88.3016 57.4172 88.2615 57.2776 88.1802 57.1619C88.0965 57.0514 88.0018 56.9496 87.8976 56.8581L87.2858 56.3181C87.1745 56.2222 87.084 56.1045 87.0201 55.9721C86.9603 55.8264 86.9316 55.6698 86.9357 55.5123C86.93 55.3989 86.9472 55.2855 86.9864 55.179C87.0255 55.0724 87.0858 54.9748 87.1635 54.8921C87.3359 54.7388 87.5618 54.66 87.7921 54.6727C87.9209 54.6698 88.0492 54.6883 88.1718 54.7276C88.2761 54.7616 88.3704 54.8211 88.446 54.9005C88.5233 54.9861 88.5821 55.0866 88.619 55.1959C88.6672 55.3319 88.697 55.4738 88.7076 55.6177L88.2857 55.7359C88.2771 55.6248 88.2587 55.5147 88.2309 55.4068C88.2065 55.3136 88.1569 55.2289 88.0874 55.1621C88.0065 55.0969 87.9043 55.0638 87.8006 55.0693C87.6928 55.064 87.5871 55.1003 87.5052 55.1705C87.4677 55.2104 87.439 55.2576 87.4208 55.3092C87.4027 55.3608 87.3955 55.4156 87.3998 55.4701C87.3957 55.5646 87.4145 55.6587 87.4546 55.7443C87.5007 55.8282 87.5623 55.9027 87.636 55.9637L88.252 56.5037C88.3933 56.6267 88.5168 56.7686 88.619 56.9256C88.7247 57.1043 88.7787 57.3087 88.7751 57.5162C88.7797 57.6797 88.7403 57.8414 88.6612 57.9845C88.5886 58.1112 88.4819 58.215 88.3532 58.2841C88.2111 58.3569 88.053 58.3931 87.8934 58.3896Z" fill="#CCCCCC"/>
<path d="M58.7037 117.259C58.7037 117.259 53.2081 143.891 50.7047 145.358C48.69 146.54 51.3731 147.92 45.5076 145.945L45.5075 141.807L44.3254 139.739L45.9356 134.631C45.9356 134.631 51.4907 107.569 55.4803 107.238C59.4765 106.902 58.7037 117.259 58.7037 117.259Z" fill="#2C2C2C"/>
<path d="M96.2165 115.112C96.2165 115.112 102.974 141.453 101.369 143.87C100.078 145.817 103.094 145.878 96.9575 146.679L95.1406 142.962L93.1702 141.623L92.3738 136.327C92.3738 136.327 85.481 109.574 88.9204 107.525C92.3628 105.468 96.2165 115.112 96.2165 115.112Z" fill="#2C2C2C"/>
<path d="M98.9701 115.337C98.9701 119.551 96.2091 122.16 91.9949 122.16C87.7807 122.16 84.3657 118.745 84.3657 114.531C84.3657 110.317 87.5495 105.666 91.5655 106.928C95.9911 108.309 98.9701 111.122 98.9701 115.337Z" fill="white"/>
<path fill-rule="evenodd" clip-rule="evenodd" d="M86.6605 108.848C85.4048 110.329 84.6293 112.484 84.6293 114.532C84.6293 118.6 87.9259 121.897 91.9942 121.897C94.0466 121.897 95.7197 121.262 96.8783 120.14C98.0358 119.018 98.7052 117.385 98.7052 115.338C98.7052 111.284 95.8518 108.543 91.4862 107.181L91.4857 107.181C89.6085 106.591 87.9122 107.371 86.6605 108.848ZM91.6437 106.677C89.5049 106.005 87.6015 106.92 86.2574 108.506C84.9171 110.088 84.1008 112.365 84.1008 114.532C84.1008 118.892 87.6341 122.425 91.9942 122.425C94.156 122.425 95.9705 121.755 97.246 120.519C98.5225 119.283 99.2336 117.504 99.2336 115.338C99.2336 110.963 96.1292 108.076 91.6437 106.677Z" fill="#2C2C2C"/>
<path d="M95.5409 114.108C95.5409 117.225 93.4999 119.154 90.3822 119.154C87.2644 119.154 84.7412 116.631 84.7412 113.513C84.7412 110.396 87.0927 106.954 90.0717 107.886C93.3347 108.916 95.5409 110.997 95.5409 114.108Z" fill="#2C2C2C"/>
<path d="M47.7786 115.336C47.7786 119.551 50.5396 122.16 54.7538 122.16C58.968 122.16 62.3763 118.738 62.3763 114.531C62.3763 110.323 59.1926 105.666 55.1765 106.928C50.7576 108.308 47.7786 111.122 47.7786 115.336Z" fill="white"/>
<path fill-rule="evenodd" clip-rule="evenodd" d="M60.4841 108.508C61.8243 110.091 62.6406 112.368 62.6406 114.531C62.6406 118.885 59.1144 122.425 54.7538 122.425C52.5921 122.425 50.7776 121.755 49.5021 120.519C48.2255 119.282 47.5144 117.504 47.5144 115.337C47.5144 110.962 50.6188 108.076 55.0976 106.677C57.2366 106.005 59.1401 106.922 60.4841 108.508ZM60.0809 108.85C58.8291 107.372 57.1327 106.591 55.2558 107.181L55.2554 107.181C50.8964 108.543 48.0428 111.284 48.0428 115.337C48.0428 117.385 48.7122 119.018 49.8697 120.14C51.0283 121.262 52.7014 121.896 54.7538 121.896C58.8217 121.896 62.1122 118.594 62.1122 114.531C62.1122 112.487 61.3366 110.333 60.0809 108.85Z" fill="#2C2C2C"/>
<path d="M51.2126 114.108C51.2126 117.225 53.2537 119.154 56.3714 119.154C59.4891 119.154 62.0124 116.631 62.0124 113.513C62.0124 110.396 59.6609 106.954 56.6885 107.886C53.4122 108.916 51.2126 110.997 51.2126 114.108Z" fill="#2C2C2C"/>
<path d="M82.9775 149.15C78.2085 148.714 73.4989 148.535 73.4989 148.535C71.7683 148.588 68.0825 148.74 64.2778 149.15C65.3875 152.941 69.1526 155.735 73.6244 155.735C78.1028 155.742 81.8678 152.935 82.9775 149.15Z" fill="#50BFD7"/>
<path d="M82.589 149.546C82.9986 147.934 91.1958 106.862 91.1958 106.862C91.1958 106.862 69.3189 100.402 55.3289 106.862L64.2989 149.903L82.589 149.546Z" fill="white"/>
<path fill-rule="evenodd" clip-rule="evenodd" d="M91.2695 106.609C91.2697 106.609 91.2699 106.609 91.1951 106.863C91.4542 106.914 91.4541 106.915 91.4541 106.915L91.4538 106.916L91.362 107.376C91.3019 107.677 91.2136 108.119 91.1011 108.682C90.8762 109.809 90.5544 111.419 90.1669 113.357C89.392 117.233 88.3546 122.417 87.3043 127.652C85.2053 138.114 83.0514 148.797 82.8444 149.611L82.7948 149.807L64.0842 150.171L55.0266 106.711L55.2174 106.623C62.2802 103.362 71.3071 103.369 78.5373 104.178C82.1578 104.583 85.3392 105.19 87.6156 105.696C88.7539 105.95 89.6664 106.177 90.2947 106.342C90.6089 106.425 90.8521 106.491 91.0171 106.537C91.0995 106.56 91.1625 106.578 91.2049 106.59C91.2261 106.597 91.2422 106.601 91.2531 106.604L91.2654 106.608L91.2687 106.609L91.2695 106.609ZM91.1951 106.863L91.4542 106.914L91.5014 106.678L91.2699 106.609L91.1951 106.863ZM90.8883 107.05C90.8838 107.049 90.8794 107.048 90.8748 107.046C90.7125 107.001 90.472 106.935 90.1607 106.853C89.538 106.69 88.6321 106.464 87.5009 106.212C85.2381 105.709 82.0759 105.105 78.4785 104.703C71.3387 103.904 62.5293 103.904 55.6299 107.015L64.5121 149.635L82.3776 149.286C82.7519 147.607 84.7904 137.496 86.7862 127.548C87.8364 122.314 88.8739 117.129 89.6488 113.254C90.0362 111.316 90.358 109.705 90.5829 108.579C90.6954 108.016 90.7837 107.574 90.8438 107.273L90.8883 107.05Z" fill="black"/>
<path d="M82.589 149.546C82.9986 147.934 91.1958 106.862 91.1958 106.862C91.1958 106.862 69.3189 100.402 55.3289 106.862L64.2989 149.903L82.589 149.546Z" fill="white"/>
<path fill-rule="evenodd" clip-rule="evenodd" d="M91.2695 106.609C91.2697 106.609 91.2699 106.609 91.1951 106.863C91.4542 106.914 91.4541 106.915 91.4541 106.915L91.4538 106.916L91.362 107.376C91.3019 107.677 91.2136 108.119 91.1011 108.682C90.8762 109.809 90.5544 111.419 90.1669 113.357C89.392 117.233 88.3546 122.417 87.3043 127.652C85.2053 138.114 83.0514 148.797 82.8444 149.611L82.7948 149.807L64.0842 150.171L55.0266 106.711L55.2174 106.623C62.2802 103.362 71.3071 103.369 78.5373 104.178C82.1578 104.583 85.3392 105.19 87.6156 105.696C88.7539 105.95 89.6664 106.177 90.2947 106.342C90.6089 106.425 90.8521 106.491 91.0171 106.537C91.0995 106.56 91.1625 106.578 91.2049 106.59C91.2261 106.597 91.2422 106.601 91.2531 106.604L91.2654 106.608L91.2687 106.609L91.2695 106.609ZM91.1951 106.863L91.4542 106.914L91.5014 106.678L91.2699 106.609L91.1951 106.863ZM90.8883 107.05C90.8838 107.049 90.8794 107.048 90.8748 107.046C90.7125 107.001 90.472 106.935 90.1607 106.853C89.538 106.69 88.6321 106.464 87.5009 106.212C85.2381 105.709 82.0759 105.105 78.4785 104.703C71.3387 103.904 62.5293 103.904 55.6299 107.015L64.5121 149.635L82.3776 149.286C82.7519 147.607 84.7904 137.496 86.7862 127.548C87.8364 122.314 88.8739 117.129 89.6488 113.254C90.0362 111.316 90.358 109.705 90.5829 108.579C90.6954 108.016 90.7837 107.574 90.8438 107.273L90.8883 107.05Z" fill="#2C2C2C"/>
<path d="M85.8849 105.601C79.7749 104.372 69.4442 102.972 60.5667 105.085C61.6169 111.711 62.6671 118.342 63.7174 124.967C64.5629 129.459 68.8233 132.451 73.2687 132.478C77.7141 132.451 81.9745 129.466 82.82 124.967C83.8372 118.507 84.861 112.054 85.8849 105.601Z" fill="#50BFD7"/>
<path fill-rule="evenodd" clip-rule="evenodd" d="M60.5044 104.828C69.4401 102.701 79.8178 104.111 85.9359 105.342L86.1845 105.392L86.1441 105.646C85.1205 112.098 84.0969 118.55 83.08 125.009L83.0794 125.012L83.0786 125.016C82.206 129.659 77.8197 132.715 73.2692 132.742L73.2677 132.742L73.2661 132.742C68.7154 132.715 64.3293 129.652 63.4567 125.016L63.456 125.013L63.4554 125.009C62.9303 121.697 62.4053 118.383 61.8802 115.069L61.88 115.068C61.3549 111.754 60.8298 108.439 60.3047 105.127L60.2664 104.885L60.5044 104.828ZM60.865 105.287C61.3773 108.518 61.8895 111.751 62.4018 114.984L62.402 114.985C62.9269 118.298 63.4518 121.611 63.9767 124.922C64.7966 129.267 68.9294 132.187 73.2677 132.214C77.6061 132.187 81.7386 129.274 82.5586 124.923C83.5625 118.547 84.5728 112.179 85.5831 105.81C79.5093 104.607 69.5118 103.295 60.865 105.287Z" fill="#2C2C2C"/>
<path d="M72.5092 107.946C74.5965 107.946 77.8397 107.312 77.8397 105.232L77.3047 98.2827L76.8357 92.2058C76.8357 90.1185 75.1447 88.4342 73.064 88.4342C72.0204 88.4342 71.0824 88.8569 70.3955 89.5372C69.7151 90.2176 69.2858 91.1622 69.2858 92.2058L68.8234 98.2893L68.3809 104.122C67.7864 107.642 72.5092 107.946 72.5092 107.946Z" fill="#2C2C2C"/>
<path d="M57.4345 87.8852C59.7875 87.8852 61.6949 85.9778 61.6949 83.6248C61.6949 81.2718 59.7875 79.3644 57.4345 79.3644C55.0815 79.3644 53.1741 81.2718 53.1741 83.6248C53.1741 85.9778 55.0815 87.8852 57.4345 87.8852Z" fill="white"/>
<path fill-rule="evenodd" clip-rule="evenodd" d="M57.4338 79.6291C55.2268 79.6291 53.4376 81.4182 53.4376 83.6253C53.4376 85.8323 55.2268 87.6215 57.4338 87.6215C59.6409 87.6215 61.43 85.8323 61.43 83.6253C61.43 81.4182 59.6409 79.6291 57.4338 79.6291ZM52.9092 83.6253C52.9092 81.1264 54.9349 79.1006 57.4338 79.1006C59.9327 79.1006 61.9585 81.1264 61.9585 83.6253C61.9585 86.1242 59.9327 88.1499 57.4338 88.1499C54.9349 88.1499 52.9092 86.1242 52.9092 83.6253Z" fill="#2C2C2C"/>
<path d="M87.4369 87.8852C89.7899 87.8852 91.6974 85.9778 91.6974 83.6248C91.6974 81.2718 89.7899 79.3644 87.4369 79.3644C85.084 79.3644 83.1765 81.2718 83.1765 83.6248C83.1765 85.9778 85.084 87.8852 87.4369 87.8852Z" fill="white"/>
<path fill-rule="evenodd" clip-rule="evenodd" d="M87.4368 79.6291C85.2297 79.6291 83.4405 81.4182 83.4405 83.6253C83.4405 85.8323 85.2297 87.6215 87.4368 87.6215C89.6438 87.6215 91.433 85.8323 91.433 83.6253C91.433 81.4182 89.6438 79.6291 87.4368 79.6291ZM82.9121 83.6253C82.9121 81.1264 84.9379 79.1006 87.4368 79.1006C89.9357 79.1006 91.9614 81.1264 91.9614 83.6253C91.9614 86.1242 89.9357 88.1499 87.4368 88.1499C84.9379 88.1499 82.9121 86.1242 82.9121 83.6253Z" fill="#2C2C2C"/>
<path d="M72.8389 101.4C81.9844 101.4 89.3984 90.9043 89.3984 77.9575C89.3984 65.0106 81.9844 54.5152 72.8389 54.5152C63.6933 54.5152 56.2793 65.0106 56.2793 77.9575C56.2793 90.9043 63.6933 101.4 72.8389 101.4Z" fill="white"/>
<path fill-rule="evenodd" clip-rule="evenodd" d="M61.3451 61.5338C58.3835 65.7263 56.5433 71.5322 56.5433 77.9575C56.5433 84.3829 58.3835 90.1887 61.3451 94.3813C64.3072 98.5746 68.3747 101.136 72.8387 101.136C77.3027 101.136 81.3701 98.5746 84.3322 94.3813C87.2939 90.1887 89.134 84.3829 89.134 77.9575C89.134 71.5322 87.2939 65.7263 84.3322 61.5338C81.3701 57.3405 77.3027 54.7794 72.8387 54.7794C68.3747 54.7794 64.3072 57.3405 61.3451 61.5338ZM60.9135 61.2289C63.9448 56.9377 68.1571 54.251 72.8387 54.251C77.5202 54.251 81.7326 56.9377 84.7638 61.2289C87.7956 65.5207 89.6624 71.436 89.6624 77.9575C89.6624 84.479 87.7956 90.3943 84.7638 94.6862C81.7326 98.9774 77.5202 101.664 72.8387 101.664C68.1571 101.664 63.9448 98.9774 60.9135 94.6862C57.8817 90.3943 56.0149 84.479 56.0149 77.9575C56.0149 71.436 57.8817 65.5207 60.9135 61.2289Z" fill="#2C2C2C"/>
<path d="M53.8618 72.7589C53.8618 72.7589 67.9576 73.4459 72.654 64.9646C72.654 64.9646 82.8526 73.7893 92.5889 73.1024L91.6707 69.2052L87.8925 61.7544L85.6004 59.0066L80.904 54.0791L74.6025 51.4435L67.0394 52.474L56.9531 59.3501L55.6915 63.9342L53.8618 72.7589Z" fill="#2C2C2C"/>
<path d="M73.2482 87.1189C73.2548 87.1585 73.169 87.2312 72.9774 87.2312C72.7925 87.2378 72.5084 87.1519 72.2574 86.9141C72.1319 86.7952 72.0196 86.6499 71.9338 86.465C71.9206 86.4385 71.9139 86.4121 71.9007 86.3857L71.8875 86.3461L71.8743 86.313L71.8545 86.2536C71.8479 86.2272 71.8413 86.1941 71.8281 86.1677C71.8017 86.0686 71.7818 85.963 71.7752 85.8507C71.7356 85.4147 71.8215 84.9722 71.9272 84.5494C72.3367 82.8585 72.8189 81.5308 72.9972 81.5704C73.1756 81.6167 72.9906 83.017 72.5811 84.7079C72.4754 85.1241 72.3961 85.5006 72.3961 85.8176C72.3961 85.8969 72.4027 85.9762 72.4093 86.0488L72.4159 86.0752V86.0885V86.0951V86.1017C72.4159 86.1017 72.4093 86.0819 72.4159 86.0885L72.4292 86.1545L72.4358 86.1875L72.4424 86.2074L72.4556 86.247C72.4952 86.3725 72.5547 86.4914 72.6207 86.5839C72.7528 86.7754 72.9113 86.8943 73.0369 86.9604C73.1491 87.0462 73.2416 87.0727 73.2482 87.1189Z" fill="#2C2C2C"/>
<path d="M54.9382 80.6456C54.7532 79.9124 54.6145 79.166 54.5022 78.413C54.3966 77.66 54.3239 76.907 54.2843 76.1474C54.2182 74.6281 54.2777 73.0957 54.4824 71.5831C54.6872 70.0639 55.0373 68.5645 55.5327 67.1113C55.5591 67.0188 55.5921 66.9263 55.6251 66.8405L55.7242 66.5696L55.9224 66.028L56.147 65.493L56.2593 65.2288C56.2989 65.1429 56.3319 65.0504 56.3782 64.9645C56.7018 64.2644 57.0519 63.5708 57.4482 62.9103C58.2343 61.576 59.1524 60.321 60.2092 59.1783C61.2727 58.0422 62.4683 57.0249 63.7761 56.1729C63.9346 56.0606 64.1064 55.9615 64.2715 55.8624C64.4367 55.7633 64.6084 55.6576 64.7735 55.5652L65.2953 55.2877L65.553 55.149C65.6388 55.1028 65.7313 55.0632 65.8172 55.0235L66.3522 54.7791C66.3984 54.7593 66.4381 54.7395 66.4843 54.7197L66.623 54.6668L66.8938 54.5612L67.1647 54.4555C67.2571 54.4224 67.343 54.3828 67.4421 54.3498L68.0035 54.1648C69.4963 53.6827 71.0684 53.4383 72.6405 53.4052C73.4265 53.3788 74.2125 53.4383 74.992 53.5241C75.1901 53.5505 75.3817 53.5836 75.5732 53.61L75.8639 53.6562C75.9101 53.6628 75.9629 53.6694 76.0092 53.6827L76.1545 53.7157L76.7292 53.8412C76.9207 53.8808 77.1123 53.9337 77.2972 53.9865C78.8098 54.4092 80.2696 55.0235 81.6039 55.8426L82.0993 56.153C82.1852 56.2059 82.2644 56.2587 82.3437 56.3182L82.5815 56.4833L82.8193 56.6484C82.8985 56.7013 82.9778 56.7607 83.0571 56.8202L83.5194 57.1769L83.7506 57.3552L83.9752 57.5468L84.4178 57.9299C84.5631 58.0554 84.7018 58.1941 84.8405 58.3328L85.0519 58.5376C85.1245 58.6036 85.1906 58.6697 85.2566 58.7423L85.6596 59.1651L85.8577 59.3764L86.0493 59.5944L86.4324 60.037C86.4984 60.1096 86.5579 60.1889 86.6173 60.2616L86.7957 60.4927C86.9146 60.6447 87.0335 60.7966 87.1524 60.9551L87.4892 61.4307C87.7204 61.7411 87.9186 62.078 88.13 62.4017C88.949 63.7161 89.6161 65.1165 90.1446 66.5564C90.673 68.003 91.0495 69.4958 91.2873 71.0084L91.3335 71.2924L91.3533 71.4312L91.3666 71.5765L91.4326 72.1445C91.4855 72.521 91.4987 72.9042 91.5317 73.2873C91.5779 74.0469 91.5911 74.8131 91.5713 75.5727L91.5647 75.8567L91.5515 76.1408C91.5383 76.3323 91.5317 76.5173 91.5119 76.7088C91.4855 77.0853 91.4458 77.4684 91.3996 77.8449C91.3005 78.5979 91.175 79.3443 91.0099 80.0841C91.1023 79.3311 91.175 78.5847 91.2014 77.8317C91.2345 77.0787 91.2411 76.3257 91.208 75.5793C91.175 74.8329 91.1222 74.0799 91.0297 73.3401C90.9768 72.9702 90.9372 72.6003 90.8646 72.2304L90.7655 71.6822L90.7391 71.5435L90.706 71.4047L90.6466 71.1339C90.3361 69.6741 89.8936 68.2474 89.3321 66.8801L89.2264 66.6225L89.1141 66.3715L88.883 65.8629C88.8103 65.6911 88.7244 65.5326 88.6386 65.3675L88.3876 64.8721C88.3017 64.7069 88.2092 64.5484 88.1167 64.3899C88.0243 64.2314 87.9384 64.0662 87.8393 63.9077L87.5487 63.4387C87.4496 63.2802 87.3571 63.1217 87.2514 62.9763C87.0401 62.6725 86.8419 62.3621 86.6173 62.0714L86.2871 61.6289C86.1748 61.4835 86.0559 61.3448 85.937 61.1995L85.7586 60.9881C85.6992 60.9155 85.6397 60.8428 85.5803 60.7768L85.2104 60.3672L85.0255 60.1625L84.8339 59.9643L84.4442 59.5746C83.3939 58.5574 82.2248 57.6657 80.9632 56.9259C79.7082 56.1861 78.3541 55.6246 76.9537 55.2481C76.6037 55.1424 76.247 55.083 75.8969 55.0037L75.7648 54.9773C75.7185 54.9707 75.6723 54.9641 75.6327 54.9575L75.3619 54.9178C75.1835 54.8914 75.0052 54.8584 74.8268 54.8386C74.1068 54.7659 73.3803 54.7131 72.6603 54.7329C71.2137 54.7593 69.7671 54.9773 68.3866 55.4199L67.8714 55.585C67.7856 55.6114 67.6997 55.6444 67.6138 55.6775L67.3628 55.7765L67.1118 55.8756L66.9863 55.9219C66.9467 55.9351 66.9004 55.9615 66.8608 55.9747L66.3654 56.1993C66.2861 56.2389 66.2003 56.2719 66.1144 56.3116L65.87 56.4371L65.3878 56.6881C65.2293 56.7806 65.0708 56.873 64.9122 56.9589C64.7537 57.0514 64.5952 57.1372 64.4433 57.2429C63.2081 58.0224 62.0719 58.9537 61.0415 59.9973L60.665 60.4003L60.4801 60.605C60.447 60.6381 60.414 60.6711 60.3876 60.7041L60.3017 60.8098L59.945 61.2325C59.8856 61.3052 59.8261 61.3713 59.7667 61.4439L59.595 61.6619L59.2581 62.0978C59.1986 62.1705 59.1524 62.2432 59.0929 62.3224L58.9344 62.547C58.8287 62.6989 58.723 62.8442 58.6174 63.0028L58.3201 63.4717C57.5341 64.7202 56.8603 66.0478 56.3319 67.4283C55.7969 68.8088 55.3874 70.2488 55.1099 71.7152L55.0043 72.2634C54.9712 72.4484 54.9514 72.6333 54.9184 72.8183L54.8391 73.3731C54.8193 73.5581 54.7995 73.743 54.7797 73.928L54.7202 74.4894L54.6872 75.0509L54.6542 75.6123C54.6476 75.7973 54.641 75.9888 54.6343 76.1738C54.6211 76.9268 54.6343 77.6732 54.6872 78.4262C54.7466 79.1462 54.8325 79.8926 54.9382 80.6456Z" fill="#50BFD7"/>
<path d="M68.532 79.199C68.532 81.0815 66.9005 82.6073 64.8925 82.6073C62.8778 82.6073 61.2529 81.0815 61.2529 79.199C61.2529 77.3164 62.8844 75.7906 64.8925 75.7906C66.9005 75.7906 68.532 77.3164 68.532 79.199Z" fill="white"/>
<path fill-rule="evenodd" clip-rule="evenodd" d="M64.8925 76.054C63.0137 76.054 61.5172 77.4777 61.5172 79.1982C61.5172 80.9189 63.0074 82.3423 64.8925 82.3423C66.7713 82.3423 68.2678 80.9186 68.2678 79.1982C68.2678 77.4777 66.7713 76.054 64.8925 76.054ZM60.9888 79.1982C60.9888 77.1536 62.7553 75.5256 64.8925 75.5256C67.0297 75.5256 68.7963 77.1536 68.7963 79.1982C68.7963 81.2428 67.0297 82.8707 64.8925 82.8707C62.7484 82.8707 60.9888 81.2425 60.9888 79.1982Z" fill="#2C2C2C"/>
<path d="M63.1101 78.9876C63.1101 80.5399 64.1207 81.8015 65.3625 81.8015C66.6043 81.8015 67.6149 80.5399 67.6149 78.9876C67.6149 77.4354 66.6043 76.1738 65.3625 76.1738C64.1141 76.1672 63.1101 77.4288 63.1101 78.9876Z" fill="#50BFD7"/>
<path d="M63.7566 78.9876C63.7566 80.0907 64.47 80.9824 65.3551 80.9824C66.2402 80.9824 66.9536 80.0907 66.9536 78.9876C66.9536 77.8845 66.2402 76.9862 65.3551 76.9862C64.4766 76.9862 63.7566 77.8779 63.7566 78.9876Z" fill="#2C2C2C"/>
<path d="M63.6577 77.0921C63.6577 77.3959 64.0276 77.6337 64.4834 77.6337C64.9391 77.6337 65.309 77.3893 65.309 77.0921C65.309 76.7882 64.9391 76.5505 64.4834 76.5505C64.0276 76.5438 63.6577 76.7882 63.6577 77.0921Z" fill="white"/>
<path d="M65.13 75.2953C62.8776 75.0707 61.147 77.1051 61.147 79.2056C61.147 79.4236 61.4178 79.4632 61.5301 79.3113C62.4482 78.0497 62.7455 76.8079 64.4232 76.3257C66.9002 75.6123 68.2609 78.1554 68.3996 80.1502C68.4194 80.3417 68.5846 80.17 68.6044 79.9718C68.829 77.5873 67.64 75.5463 65.13 75.2953Z" fill="#2C2C2C"/>
<path d="M69.5763 73.9871C69.5763 73.9871 64.662 69.086 59.3777 74.9052C59.3711 74.9052 63.942 71.9791 69.5763 73.9871Z" fill="#2C2C2C"/>
<path d="M84.3653 79.199C84.3653 81.0815 82.7337 82.6073 80.7257 82.6073C78.7111 82.6073 77.0862 81.0815 77.0862 79.199C77.0862 77.3164 78.7177 75.7906 80.7257 75.7906C82.7337 75.7906 84.3653 77.3164 84.3653 79.199Z" fill="white"/>
<path fill-rule="evenodd" clip-rule="evenodd" d="M80.7253 76.054C78.8465 76.054 77.35 77.4777 77.35 79.1982C77.35 80.9189 78.8402 82.3423 80.7253 82.3423C82.6041 82.3423 84.1006 80.9186 84.1006 79.1982C84.1006 77.4777 82.6041 76.054 80.7253 76.054ZM76.8215 79.1982C76.8215 77.1536 78.5881 75.5256 80.7253 75.5256C82.8625 75.5256 84.629 77.1536 84.629 79.1982C84.629 81.2428 82.8625 82.8707 80.7253 82.8707C78.5811 82.8707 76.8215 81.2425 76.8215 79.1982Z" fill="#2C2C2C"/>
<path d="M78.9426 78.9876C78.9426 80.5399 79.9532 81.8015 81.195 81.8015C82.4368 81.8015 83.4475 80.5399 83.4475 78.9876C83.4475 77.4354 82.4368 76.1738 81.195 76.1738C79.9532 76.1672 78.9426 77.4288 78.9426 78.9876Z" fill="#50BFD7"/>
<path d="M79.5957 78.9876C79.5957 80.0907 80.3091 80.9824 81.1942 80.9824C82.0793 80.9824 82.7927 80.0907 82.7927 78.9876C82.7927 77.8845 82.0793 76.9862 81.1942 76.9862C80.3091 76.9862 79.5957 77.8779 79.5957 78.9876Z" fill="#2C2C2C"/>
<path d="M79.4905 77.0921C79.4905 77.3959 79.8604 77.6337 80.3161 77.6337C80.7719 77.6337 81.1418 77.3893 81.1418 77.0921C81.1418 76.7882 80.7719 76.5505 80.3161 76.5505C79.867 76.5438 79.4905 76.7882 79.4905 77.0921Z" fill="white"/>
<path d="M80.964 75.2953C78.7116 75.0707 76.981 77.1051 76.981 79.2056C76.981 79.4236 77.2518 79.4632 77.3641 79.3113C78.2822 78.0497 78.5794 76.8079 80.2572 76.3257C82.7342 75.6123 84.0949 78.1554 84.2336 80.1502C84.2534 80.3417 84.4186 80.17 84.4384 79.9718C84.663 77.5873 83.4806 75.5463 80.964 75.2953Z" fill="#2C2C2C"/>
<path d="M85.4088 73.4523C85.4088 73.4523 80.4945 68.5511 75.2102 74.3704C75.2102 74.3704 79.7811 71.4442 85.4088 73.4523Z" fill="#2C2C2C"/>
<path d="M77.7992 152.01C77.7992 152.175 77.9445 152.367 78.1163 152.347C80.0648 152.142 81.5576 150.636 83.4798 150.953C81.551 151.911 79.8799 153.575 80.1177 156.026C80.1441 156.33 80.4347 156.449 80.6593 156.264C82.0398 155.088 83.6251 154.038 85.4746 154.427C86.2672 154.593 87.1986 154.903 88.0176 154.797C89.2396 154.645 90.2701 154.091 90.8777 152.908C91.9478 150.861 91.5515 148.403 89.1538 147.895C89.0943 147.882 89.0481 147.888 88.9952 147.908C88.1101 147.558 87.3043 147.115 86.5909 146.343C85.9039 145.59 85.2632 144.757 84.5168 144.064C83.5194 143.132 82.4361 142.399 81.1151 143.027C80.9169 143.119 80.9301 143.403 81.0556 143.555C81.6369 144.275 82.3172 144.962 83.0306 145.623C82.3172 145.457 81.5973 145.372 80.8575 145.431C79.5364 145.543 77.9775 146.422 78.0106 147.994C78.0172 148.192 78.1559 148.311 78.3276 148.331C79.543 148.456 80.765 148.436 81.9738 148.562C80.0912 149.117 77.7794 149.751 77.7992 152.01Z" fill="white"/>
<path fill-rule="evenodd" clip-rule="evenodd" d="M83.0341 142.714C83.643 142.954 84.193 143.399 84.6967 143.87C85.2016 144.339 85.6677 144.88 86.12 145.405C86.3442 145.665 86.565 145.922 86.7854 146.163C87.4415 146.874 88.1816 147.294 89.0126 147.63C89.0728 147.62 89.1375 147.62 89.2095 147.636C90.5033 147.911 91.2784 148.723 91.5702 149.752C91.8576 150.764 91.6706 151.96 91.1121 153.029C90.4561 154.305 89.3386 154.898 88.0508 155.059C87.5994 155.117 87.129 155.059 86.6852 154.973C86.4621 154.929 86.241 154.877 86.0294 154.826C86.007 154.821 85.9847 154.815 85.9625 154.81C85.7736 154.765 85.5935 154.721 85.4205 154.685L85.4199 154.685C83.7054 154.324 82.2099 155.289 80.8304 156.464L80.8288 156.466L80.8271 156.467C80.6473 156.615 80.4148 156.658 80.2099 156.57C80.0051 156.482 79.8753 156.285 79.8544 156.05C79.6392 153.827 80.9045 152.232 82.5008 151.204C81.9696 151.276 81.4523 151.468 80.9107 151.697C80.7902 151.748 80.6682 151.801 80.5446 151.854C79.8114 152.173 79.0208 152.516 78.1448 152.609C77.9473 152.631 77.7893 152.53 77.6943 152.421C77.5998 152.313 77.5352 152.164 77.5348 152.011C77.5242 150.766 78.1666 149.967 79.0322 149.423C79.4887 149.135 80.0147 148.914 80.5481 148.728C80.4131 148.721 80.2775 148.715 80.1415 148.71L80.136 148.709C79.5305 148.683 78.9152 148.656 78.3003 148.593L78.2987 148.593L78.2971 148.592C78.0147 148.56 77.7579 148.349 77.7463 148.002L77.7463 148L77.7462 147.999C77.7276 147.112 78.1616 146.426 78.7634 145.956C79.36 145.49 80.1306 145.227 80.8349 145.167L80.8355 145.167L80.8361 145.167C81.3028 145.129 81.7601 145.147 82.21 145.205C81.7251 144.727 81.264 144.233 80.8507 143.721C80.7444 143.592 80.6906 143.417 80.7 143.253C80.7097 143.082 80.793 142.885 81.0022 142.787C81.7345 142.439 82.412 142.469 83.0341 142.714ZM81.2308 143.263C81.2297 143.267 81.2281 143.273 81.2276 143.283C81.2266 143.299 81.229 143.32 81.2356 143.34C81.2423 143.361 81.2515 143.377 81.2591 143.386L81.2601 143.387L81.261 143.388C81.8312 144.095 82.5014 144.772 83.2099 145.428L83.9395 146.103L82.9708 145.879C82.2759 145.718 81.5843 145.637 80.879 145.694C80.2625 145.746 79.5934 145.978 79.0887 146.373C78.5895 146.762 78.2607 147.301 78.2745 147.986C78.2759 148.02 78.2868 148.035 78.2938 148.042C78.303 148.051 78.3224 148.063 78.3565 148.067C78.9544 148.129 79.5553 148.155 80.1644 148.182L80.1666 148.182C80.7731 148.208 81.388 148.235 82.0009 148.298L83.3312 148.437L82.0483 148.815C82.0154 148.824 81.9824 148.834 81.9494 148.844C81.0261 149.116 80.0602 149.4 79.3136 149.87C78.5578 150.345 78.0543 150.993 78.0632 152.007L78.0632 152.008V152.009C78.0632 152.013 78.0642 152.022 78.0698 152.036C78.0753 152.05 78.0833 152.063 78.092 152.073C78.0955 152.077 78.0986 152.08 78.101 152.082C78.8848 151.997 79.589 151.692 80.3218 151.375C80.4484 151.32 80.5759 151.265 80.7048 151.21C81.5663 150.846 82.4813 150.52 83.5226 150.692L84.3303 150.825L83.5971 151.189C81.7099 152.126 80.1583 153.71 80.3805 156L80.3806 156.001L80.3807 156.002C80.3838 156.038 80.3936 156.058 80.4006 156.069C80.4075 156.079 80.414 156.083 80.4181 156.085C80.4222 156.086 80.4287 156.088 80.439 156.086C80.4491 156.084 80.4669 156.079 80.4898 156.06C81.871 154.884 83.5452 153.75 85.5286 154.168C85.7098 154.206 85.8979 154.251 86.0854 154.296C86.1078 154.301 86.1302 154.307 86.1525 154.312C86.3641 154.363 86.5756 154.413 86.7868 154.454C87.2114 154.537 87.6161 154.582 87.9836 154.535L87.9842 154.535L87.9849 154.534C89.1404 154.391 90.0833 153.875 90.6426 152.787L90.643 152.786L90.6434 152.785C91.1546 151.807 91.3044 150.751 91.0618 149.896C90.8236 149.056 90.202 148.387 89.0987 148.153L89.0975 148.152L89.0963 148.152C89.0961 148.152 89.096 148.152 89.0958 148.152C89.0941 148.152 89.0914 148.153 89.0878 148.155L88.9925 148.19L88.8979 148.153C87.9913 147.794 87.1462 147.333 86.3966 146.521L86.396 146.52L86.3955 146.52C86.1527 146.254 85.9211 145.985 85.692 145.718C85.2523 145.208 84.8214 144.707 84.3368 144.257L84.3363 144.256C83.8426 143.795 83.3524 143.408 82.8401 143.206C82.342 143.009 81.8183 142.985 81.2308 143.263Z" fill="#2C2C2C"/>
<path fill-rule="evenodd" clip-rule="evenodd" d="M55.9491 76.7151V76.8472H55.4207V76.7151H55.9491Z" fill="#2C2C2C"/>
<path fill-rule="evenodd" clip-rule="evenodd" d="M58.723 78.1688V78.3009H58.1946V78.1688H58.723Z" fill="#2C2C2C"/>
<path d="M73.7507 77.3897C74.6556 77.5813 74.3188 78.1692 74.3188 78.255C74.3188 78.3409 74.6556 83.2288 79.0217 84.5169C83.3879 85.8049 86.0036 83.2751 86.7632 82.0068C87.5228 80.7386 88.1569 77.7266 88.3419 77.4954C88.5334 77.2642 89.4383 76.8613 89.4383 76.8613L89.544 75.6789L88.4079 75.3421C88.4079 75.3421 85.5412 74.0342 81.3204 73.9748C77.1062 73.9087 74.7217 76.3395 74.7217 76.3395C73.5327 75.963 72.0597 75.9101 70.7122 76.3395C70.7122 76.3395 68.3277 73.9153 64.1135 73.9748C59.8993 74.0408 57.026 75.3421 57.026 75.3421L55.8899 75.6789L55.9956 76.8613C55.9956 76.8613 56.9005 77.2642 57.0921 77.4954C57.2836 77.7266 57.9111 80.7452 58.6707 82.0068C59.4303 83.2751 62.0461 85.8049 66.4122 84.5169C70.7783 83.2288 71.1152 78.3409 71.1152 78.255C71.1152 78.1692 70.7783 77.5813 71.6832 77.3897C72.4693 77.2246 72.9647 77.2246 73.7507 77.3897ZM84.2267 83.5063C80.8977 85.5077 76.908 83.4864 75.7059 80.8509C74.5037 78.2154 75.5143 76.8217 75.5143 76.8217C77.5289 73.5454 85.6337 73.4067 87.0274 76.9472C87.2652 77.5416 87.5624 81.5048 84.2267 83.5063ZM58.3999 76.9472C59.7936 73.4001 67.905 73.5454 69.913 76.8217C69.913 76.8217 70.9236 78.2154 69.7214 80.8509C68.5193 83.4864 64.5363 85.5077 61.2006 83.5063C57.8715 81.5048 58.1687 77.5416 58.3999 76.9472Z" fill="#2C2C2C"/>
<path d="M75.7913 112.859H70.7184C69.3709 112.859 68.2744 113.956 68.2744 115.303V120.376C68.2744 121.724 69.3709 122.82 70.7184 122.82H75.7913C77.1388 122.82 78.2353 121.724 78.2353 120.376V115.303C78.2353 113.956 77.1454 112.859 75.7913 112.859ZM66.9269 110.7C66.1541 110.7 65.5266 111.327 65.5266 112.1C65.5266 112.873 66.1541 113.5 66.9269 113.5C67.6998 113.5 68.3273 112.873 68.3273 112.1C68.3273 111.327 67.6998 110.7 66.9269 110.7Z" fill="white"/>
<path d="M75.4346 115.885C75.111 115.019 74.2853 114.445 73.3605 114.445H71.9866L74.7014 121.328H77.6144L75.4346 115.885ZM69.8861 119.353L69.0935 121.328H71.9866L73.3341 117.913H71.9602C71.0355 117.913 70.2098 118.487 69.8861 119.353ZM70.3353 116.156C70.8109 116.156 71.2006 115.766 71.2006 115.29C71.2006 114.815 70.8109 114.425 70.3353 114.425C69.8597 114.425 69.47 114.815 69.47 115.29C69.47 115.766 69.8597 116.156 70.3353 116.156Z" fill="#50BFD7"/>
<path d="M86.6037 137.724C82.0375 137.306 77.5282 137.136 77.5282 137.136C75.8713 137.186 72.3423 137.332 68.6995 137.724C69.762 141.354 73.3668 144.029 77.6484 144.029C81.9363 144.036 85.5412 141.348 86.6037 137.724Z" fill="#50BFD7"/>
<path d="M81.3937 144.32C81.3937 144.478 81.5328 144.661 81.6972 144.642C83.5629 144.446 84.9922 143.004 86.8326 143.308C84.9859 144.225 83.3858 145.819 83.6135 148.165C83.6388 148.456 83.9171 148.57 84.1321 148.393C85.4539 147.267 86.9717 146.261 88.7426 146.635C89.5015 146.793 90.3932 147.09 91.1774 146.989C92.3474 146.843 93.334 146.312 93.9159 145.18C94.9404 143.219 94.561 140.867 92.2652 140.38C92.2083 140.367 92.164 140.373 92.1134 140.392C91.266 140.057 90.4944 139.634 89.8114 138.894C89.1536 138.173 88.5402 137.376 87.8255 136.712C86.8706 135.82 85.8334 135.118 84.5685 135.719C84.3788 135.807 84.3914 136.079 84.5116 136.225C85.0681 136.914 85.7195 137.572 86.4026 138.204C85.7195 138.046 85.0302 137.964 84.3218 138.021C83.057 138.128 81.5644 138.969 81.5961 140.475C81.6024 140.664 81.7352 140.778 81.8996 140.797C83.0633 140.917 84.2333 140.898 85.3907 141.019C83.5882 141.55 81.3747 142.157 81.3937 144.32Z" fill="#C4C4C4"/>
<path fill-rule="evenodd" clip-rule="evenodd" d="M86.4049 135.42C86.9879 135.65 87.5145 136.076 87.9968 136.526C88.4802 136.976 88.9265 137.494 89.3595 137.996C89.5742 138.246 89.7856 138.491 89.9966 138.722C90.6248 139.403 91.3334 139.805 92.1291 140.127C92.1867 140.117 92.2487 140.117 92.3176 140.132C93.5564 140.396 94.2985 141.174 94.5778 142.158C94.853 143.128 94.674 144.273 94.1393 145.296C93.5111 146.518 92.4412 147.086 91.2082 147.24C90.776 147.295 90.3256 147.24 89.9007 147.157C89.6871 147.115 89.4754 147.065 89.2728 147.017C89.2513 147.012 89.2299 147.006 89.2087 147.001C89.0279 146.958 88.8555 146.917 88.6898 146.882L88.6892 146.882C87.0476 146.536 85.6157 147.46 84.295 148.585L84.2934 148.587L84.2918 148.588C84.1197 148.73 83.897 148.771 83.7008 148.687C83.5047 148.603 83.3804 148.413 83.3604 148.188C83.1545 146.06 84.3659 144.533 85.8943 143.548C85.3857 143.618 84.8903 143.801 84.3718 144.021C84.2564 144.069 84.1397 144.12 84.0213 144.172C83.3193 144.477 82.5623 144.805 81.7236 144.894C81.5345 144.915 81.3832 144.818 81.2922 144.714C81.2017 144.611 81.1399 144.468 81.1395 144.321C81.1294 143.13 81.7445 142.365 82.5732 141.843C83.0103 141.568 83.514 141.356 84.0247 141.178C83.8954 141.172 83.7656 141.166 83.6354 141.16L83.63 141.16C83.0504 141.135 82.4612 141.109 81.8725 141.049L81.871 141.049L81.8695 141.048C81.599 141.017 81.3531 140.816 81.342 140.483L81.342 140.481L81.342 140.48C81.3241 139.631 81.7397 138.974 82.3159 138.524C82.887 138.078 83.6249 137.826 84.2992 137.769L84.2998 137.769L84.3004 137.768C84.7473 137.733 85.1851 137.75 85.6158 137.805C85.1515 137.347 84.7101 136.875 84.3143 136.384C84.2126 136.261 84.1611 136.093 84.1701 135.936C84.1794 135.773 84.2591 135.584 84.4595 135.49C85.1606 135.157 85.8092 135.185 86.4049 135.42ZM84.6783 135.946C84.6772 135.949 84.6757 135.955 84.6752 135.965C84.6743 135.98 84.6765 136 84.6829 136.02C84.6893 136.04 84.6981 136.055 84.7054 136.063L84.7063 136.065L84.7072 136.066C85.2532 136.742 85.8949 137.39 86.5732 138.018L87.2717 138.665L86.3443 138.451C85.679 138.297 85.0168 138.219 84.3415 138.273C83.7512 138.323 83.1106 138.545 82.6273 138.923C82.1493 139.296 81.8346 139.812 81.8478 140.467C81.8491 140.501 81.8596 140.514 81.8662 140.521C81.8751 140.53 81.8936 140.542 81.9263 140.546C82.4988 140.605 83.074 140.63 83.6573 140.655L83.6593 140.655C84.2401 140.68 84.8288 140.706 85.4156 140.767L86.6893 140.899L85.461 141.261C85.4295 141.27 85.398 141.28 85.3664 141.289C84.4823 141.549 83.5575 141.821 82.8427 142.271C82.119 142.727 81.6369 143.347 81.6455 144.317L81.6455 144.319V144.32C81.6455 144.323 81.6464 144.332 81.6518 144.346C81.657 144.359 81.6647 144.371 81.673 144.381C81.6764 144.385 81.6794 144.387 81.6816 144.389C82.4321 144.308 83.1064 144.016 83.8079 143.712C83.9292 143.66 84.0513 143.607 84.1747 143.555C84.9996 143.206 85.8756 142.894 86.8726 143.058L87.646 143.186L86.9439 143.534C85.137 144.432 83.6514 145.948 83.8641 148.14L83.8643 148.142L83.8644 148.143C83.8673 148.177 83.8767 148.197 83.8834 148.206C83.89 148.216 83.8962 148.22 83.9001 148.222C83.9041 148.223 83.9104 148.225 83.9202 148.223C83.9298 148.222 83.9469 148.216 83.9688 148.198C85.2912 147.072 86.8943 145.987 88.7933 146.387C88.9668 146.423 89.1469 146.466 89.3264 146.509C89.3478 146.514 89.3692 146.52 89.3906 146.525C89.5932 146.573 89.7957 146.621 89.9979 146.66C90.4045 146.74 90.792 146.783 91.1439 146.738L91.1445 146.738L91.145 146.738C92.2514 146.6 93.1542 146.106 93.6897 145.064L93.6901 145.063L93.6905 145.063C94.18 144.126 94.3234 143.115 94.0911 142.296C93.863 141.493 93.2679 140.851 92.2116 140.627L92.2104 140.627L92.2092 140.627C92.209 140.627 92.2089 140.627 92.2088 140.626C92.2071 140.627 92.2045 140.628 92.2011 140.629L92.1098 140.663L92.0192 140.628C91.1512 140.284 90.3421 139.843 89.6243 139.065L89.6238 139.064L89.6233 139.064C89.3908 138.809 89.1691 138.551 88.9497 138.297C88.5287 137.807 88.1162 137.328 87.6522 136.897L87.6517 136.896C87.179 136.455 86.7097 136.084 86.2192 135.891C85.7422 135.702 85.2408 135.68 84.6783 135.946Z" fill="#2C2C2C"/>
<path d="M46.6805 125.894H101.388C102.042 125.894 102.67 126.154 103.133 126.617C103.595 127.079 103.855 127.707 103.855 128.362V159.096H44.2126V128.362C44.2126 127.707 44.4727 127.079 44.9355 126.617C45.3983 126.154 46.026 125.894 46.6805 125.894Z" fill="white"/>
<path fill-rule="evenodd" clip-rule="evenodd" d="M46.6808 126.208C46.1097 126.208 45.562 126.435 45.1582 126.839C44.7544 127.243 44.5275 127.79 44.5275 128.361V158.781H103.541V128.361C103.541 127.79 103.314 127.243 102.91 126.839C102.507 126.435 101.959 126.208 101.388 126.208H46.6808ZM44.7134 126.394C45.2352 125.872 45.9429 125.579 46.6808 125.579H101.388C102.126 125.579 102.834 125.872 103.355 126.394C103.877 126.916 104.17 127.623 104.17 128.361V159.096C104.17 159.269 104.029 159.41 103.856 159.41H44.213C44.0393 159.41 43.8984 159.269 43.8984 159.096V128.361C43.8984 127.623 44.1916 126.916 44.7134 126.394Z" fill="#2C2C2C"/>
<path d="M103.855 136.939C96.363 138.839 88.6732 143.676 74.3449 150.487C60.5251 157.062 49.2125 156.948 44.2126 156.44V159.095H103.855V136.939Z" fill="#2C2C2C"/>
<path fill-rule="evenodd" clip-rule="evenodd" d="M104.049 136.691C104.125 136.75 104.17 136.842 104.17 136.939V159.095C104.17 159.269 104.029 159.41 103.856 159.41H44.213C44.0393 159.41 43.8984 159.269 43.8984 159.095V156.44C43.8984 156.351 43.9361 156.266 44.0021 156.207C44.0681 156.147 44.1563 156.118 44.2448 156.127C49.2018 156.631 60.4539 156.748 74.2102 150.203L74.2102 150.203C78.9294 147.96 82.9224 145.934 86.4306 144.154C88.2474 143.232 89.9342 142.376 91.5246 141.59C96.1771 139.29 99.9978 137.593 103.778 136.634C103.872 136.61 103.972 136.631 104.049 136.691ZM74.4803 150.772C60.9061 157.229 49.7318 157.267 44.5275 156.786V158.781H103.541V137.346C99.9549 138.304 96.2874 139.937 91.8033 142.154C90.2237 142.934 88.5419 143.788 86.7278 144.708C83.2148 146.491 79.2055 148.525 74.4803 150.772Z" fill="#2C2C2C"/>
<path d="M75.0125 92.4843C75.0125 93.479 73.9793 94.2855 72.7047 94.2855C71.4302 94.2855 70.397 93.479 70.397 92.4843C70.397 91.4895 71.4302 90.6831 72.7047 90.6831C73.9793 90.6831 75.0125 91.4895 75.0125 92.4843Z" fill="white"/>
<path fill-rule="evenodd" clip-rule="evenodd" d="M72.7164 94.0629C74.1008 94.0629 74.9797 93.2072 74.9797 92.4169C74.9797 91.6267 74.1008 90.7709 72.7164 90.7709C71.3321 90.7709 70.4532 91.6267 70.4532 92.4169C70.4532 93.2072 71.3321 94.0629 72.7164 94.0629ZM72.7164 94.6116C74.2694 94.6116 75.5283 93.629 75.5283 92.4169C75.5283 91.2048 74.2694 90.2223 72.7164 90.2223C71.1635 90.2223 69.9045 91.2048 69.9045 92.4169C69.9045 93.629 71.1635 94.6116 72.7164 94.6116Z" fill="#454545"/>
<path d="M103.351 156.894H44.4915V158.698H103.351V156.894Z" fill="white"/>
<path d="M133.423 50.4589V68.0338C133.423 68.6353 133.212 69.1468 132.79 69.5685C132.369 69.9901 131.857 70.2009 131.256 70.2009H110.547C109.946 70.2009 109.434 69.9901 109.013 69.5685C108.591 69.1468 108.38 68.6353 108.38 68.0338V47.3256C108.38 46.7241 108.591 46.2126 109.013 45.7909C109.434 45.3693 109.946 45.1585 110.547 45.1585H128.122L133.423 50.4589ZM120.885 64.6777C121.668 64.6777 122.339 64.4037 122.898 63.8555C123.457 63.3074 123.737 62.6418 123.737 61.8587C123.737 61.0756 123.463 60.4046 122.915 59.8456C122.367 59.2866 121.701 59.0071 120.918 59.0071C120.135 59.0071 119.464 59.2811 118.905 59.8293C118.346 60.3774 118.066 61.043 118.066 61.8261C118.066 62.6092 118.34 63.2802 118.888 63.8392C119.437 64.3982 120.102 64.6777 120.885 64.6777ZM112.591 53.7608H124.161V49.3693H112.591V53.7608Z" fill="#50BFD7"/>
<path d="M83.6113 55.421C80.8613 52.0394 77.0193 50 72.0851 50C60.9143 50 50 60.3025 50 73.1443C50 85.9862 59.0525 96.4005 70.2233 96.4005C71.2957 96.4005 72.3351 96.3018 73.3417 96.1242C73.447 96.69 73.5062 97.2689 73.5062 97.8676C73.5062 97.9729 73.4996 98.0847 73.4996 98.19C104.282 90.7164 99.2426 53.5197 83.6113 55.421Z" fill="#2C2C2C"/>
<path d="M57.7036 88.5322C60.0471 88.5322 61.9469 86.6324 61.9469 84.2888C61.9469 81.9453 60.0471 80.0455 57.7036 80.0455C55.36 80.0455 53.4602 81.9453 53.4602 84.2888C53.4602 86.6324 55.36 88.5322 57.7036 88.5322Z" fill="white"/>
<path fill-rule="evenodd" clip-rule="evenodd" d="M57.7038 80.3087C55.5056 80.3087 53.7236 82.0907 53.7236 84.2889C53.7236 86.4871 55.5056 88.2691 57.7038 88.2691C59.902 88.2691 61.684 86.4871 61.684 84.2889C61.684 82.0907 59.902 80.3087 57.7038 80.3087ZM53.1973 84.2889C53.1973 81.8 55.2149 79.7824 57.7038 79.7824C60.1926 79.7824 62.2103 81.8 62.2103 84.2889C62.2103 86.7777 60.1926 88.7954 57.7038 88.7954C55.2149 88.7954 53.1973 86.7777 53.1973 84.2889Z" fill="#2C2C2C"/>
<path d="M87.5847 88.5322C89.9282 88.5322 91.828 86.6324 91.828 84.2888C91.828 81.9453 89.9282 80.0455 87.5847 80.0455C85.2411 80.0455 83.3413 81.9453 83.3413 84.2888C83.3413 86.6324 85.2411 88.5322 87.5847 88.5322Z" fill="white"/>
<path fill-rule="evenodd" clip-rule="evenodd" d="M87.5849 80.3087C85.3867 80.3087 83.6047 82.0907 83.6047 84.2889C83.6047 86.4871 85.3867 88.2691 87.5849 88.2691C89.7831 88.2691 91.5651 86.4871 91.5651 84.2889C91.5651 82.0907 89.7831 80.3087 87.5849 80.3087ZM83.0784 84.2889C83.0784 81.8 85.096 79.7824 87.5849 79.7824C90.0737 79.7824 92.0914 81.8 92.0914 84.2889C92.0914 86.7777 90.0737 88.7954 87.5849 88.7954C85.096 88.7954 83.0784 86.7777 83.0784 84.2889Z" fill="#2C2C2C"/>
<path d="M73.0454 101.992C82.1543 101.992 89.5385 91.5391 89.5385 78.6442C89.5385 65.7493 82.1543 55.2959 73.0454 55.2959C63.9365 55.2959 56.5522 65.7493 56.5522 78.6442C56.5522 91.5391 63.9365 101.992 73.0454 101.992Z" fill="white"/>
<path fill-rule="evenodd" clip-rule="evenodd" d="M61.5984 62.2863C58.6486 66.4621 56.8159 72.2446 56.8159 78.6442C56.8159 85.0438 58.6486 90.8263 61.5984 95.0021C64.5486 99.1785 68.5998 101.729 73.0459 101.729C77.4919 101.729 81.5431 99.1785 84.4933 95.0021C87.4431 90.8263 89.2758 85.0438 89.2758 78.6442C89.2758 72.2446 87.4431 66.4621 84.4933 62.2863C81.5431 58.1098 77.4919 55.5591 73.0459 55.5591C68.5998 55.5591 64.5486 58.1098 61.5984 62.2863ZM61.1685 61.9826C64.1876 57.7087 68.383 55.0328 73.0459 55.0328C77.7087 55.0328 81.9041 57.7087 84.9232 61.9826C87.9428 66.2573 89.8021 72.1489 89.8021 78.6442C89.8021 85.1395 87.9428 91.0311 84.9232 95.3058C81.9041 99.5797 77.7087 102.256 73.0459 102.256C68.383 102.256 64.1876 99.5797 61.1685 95.3058C58.1489 91.0311 56.2896 85.1395 56.2896 78.6442C56.2896 72.1489 58.1489 66.2573 61.1685 61.9826Z" fill="#2C2C2C"/>
<path d="M54.145 73.4667C54.145 73.4667 68.1843 74.1509 72.8618 65.7037C72.8618 65.7037 83.0195 74.493 92.7167 73.8088L91.8023 69.9273L88.0392 62.5064L85.7563 59.7696L81.0788 54.8618L74.8026 52.2368L67.2698 53.2631L57.2239 60.1117L55.9674 64.6774L54.145 73.4667Z" fill="#2C2C2C"/>
<path d="M73.4466 87.769C73.4532 87.8085 73.3677 87.8809 73.1769 87.8809C72.9927 87.8874 72.7098 87.8019 72.4598 87.5651C72.3348 87.4467 72.223 87.3019 72.1374 87.1177C72.1243 87.0914 72.1177 87.0651 72.1045 87.0388L72.0914 86.9993L72.0782 86.9664L72.0585 86.9072C72.0519 86.8809 72.0453 86.848 72.0322 86.8217C72.0059 86.723 71.9861 86.6177 71.9795 86.5059C71.9401 86.0717 72.0256 85.6309 72.1309 85.2099C72.5387 83.5257 73.019 82.2033 73.1966 82.2428C73.3743 82.2889 73.1901 83.6836 72.7822 85.3678C72.6769 85.7822 72.598 86.1572 72.598 86.473C72.598 86.5519 72.6045 86.6309 72.6111 86.7033L72.6177 86.7296V86.7427V86.7493V86.7559C72.6177 86.7559 72.6111 86.7361 72.6177 86.7427L72.6309 86.8085L72.6374 86.8414L72.644 86.8611L72.6572 86.9006C72.6966 87.0256 72.7558 87.144 72.8216 87.2361C72.9532 87.4269 73.1111 87.5453 73.2361 87.6111C73.3545 87.6967 73.44 87.723 73.4466 87.769Z" fill="#2C2C2C"/>
<path d="M68.7562 79.8811C68.7562 81.756 67.1313 83.2757 65.1313 83.2757C63.1247 83.2757 61.5063 81.756 61.5063 79.8811C61.5063 78.0061 63.1313 76.4864 65.1313 76.4864C67.1247 76.4864 68.7562 78.0061 68.7562 79.8811Z" fill="white"/>
<path fill-rule="evenodd" clip-rule="evenodd" d="M65.1315 76.7495C63.2602 76.7495 61.7697 78.1675 61.7697 79.881C61.7697 81.5948 63.254 83.0125 65.1315 83.0125C67.0028 83.0125 68.4933 81.5945 68.4933 79.881C68.4933 78.1678 66.9965 76.7495 65.1315 76.7495ZM61.2434 79.881C61.2434 77.8446 63.0028 76.2232 65.1315 76.2232C67.2533 76.2232 69.0196 77.8443 69.0196 79.881C69.0196 81.9174 67.2602 83.5388 65.1315 83.5388C62.9959 83.5388 61.2434 81.9171 61.2434 79.881Z" fill="#2C2C2C"/>
<path d="M63.3484 79.6705C63.3484 81.2166 64.355 82.4731 65.5918 82.4731C66.8286 82.4731 67.8351 81.2166 67.8351 79.6705C67.8351 78.1245 66.8286 76.868 65.5918 76.868C64.355 76.8614 63.3484 78.1179 63.3484 79.6705Z" fill="#50BFD7"/>
<path d="M63.9998 79.6706C63.9998 80.7693 64.7103 81.6574 65.5918 81.6574C66.4734 81.6574 67.1839 80.7693 67.1839 79.6706C67.1839 78.5719 66.4734 77.6772 65.5918 77.6772C64.7103 77.6772 63.9998 78.5653 63.9998 79.6706Z" fill="#2C2C2C"/>
<path d="M63.9009 77.7824C63.9009 78.0851 64.2693 78.3219 64.7232 78.3219C65.1772 78.3219 65.5456 78.0785 65.5456 77.7824C65.5456 77.4798 65.1772 77.243 64.7232 77.243C64.2693 77.2364 63.9009 77.4798 63.9009 77.7824Z" fill="white"/>
<path d="M69.7891 74.6903C69.7891 74.6903 64.8944 69.8088 59.6313 75.6048C59.6313 75.6048 64.1839 72.6904 69.7891 74.6903Z" fill="#2C2C2C"/>
<path d="M84.5258 79.8811C84.5258 81.756 82.9008 83.2757 80.9008 83.2757C78.8943 83.2757 77.2759 81.756 77.2759 79.8811C77.2759 78.0061 78.9009 76.4864 80.9008 76.4864C82.9008 76.4864 84.5258 78.0061 84.5258 79.8811Z" fill="white"/>
<path fill-rule="evenodd" clip-rule="evenodd" d="M80.9005 76.7495C79.0293 76.7495 77.5388 78.1675 77.5388 79.881C77.5388 81.5948 79.023 83.0125 80.9005 83.0125C82.7718 83.0125 84.2623 81.5945 84.2623 79.881C84.2623 78.1675 82.7718 76.7495 80.9005 76.7495ZM77.0125 79.881C77.0125 77.8446 78.7719 76.2232 80.9005 76.2232C83.0292 76.2232 84.7886 77.8446 84.7886 79.881C84.7886 81.9174 83.0292 83.5388 80.9005 83.5388C78.765 83.5388 77.0125 81.9171 77.0125 79.881Z" fill="#2C2C2C"/>
<path d="M79.1245 79.6705C79.1245 81.2166 80.1311 82.4731 81.3679 82.4731C82.6047 82.4731 83.6113 81.2166 83.6113 79.6705C83.6113 78.1245 82.6047 76.868 81.3679 76.868C80.1245 76.8614 79.1245 78.1179 79.1245 79.6705Z" fill="#50BFD7"/>
<path d="M79.769 79.6706C79.769 80.7693 80.4796 81.6574 81.3611 81.6574C82.2427 81.6574 82.9532 80.7693 82.9532 79.6706C82.9532 78.5719 82.2427 77.6772 81.3611 77.6772C80.4861 77.6772 79.769 78.5653 79.769 79.6706Z" fill="#2C2C2C"/>
<path d="M79.6707 77.7824C79.6707 78.0851 80.0391 78.3219 80.493 78.3219C80.9469 78.3219 81.3154 78.0785 81.3154 77.7824C81.3154 77.4798 80.9469 77.243 80.493 77.243C80.0391 77.2364 79.6707 77.4798 79.6707 77.7824Z" fill="white"/>
<path d="M85.5649 74.1574C85.5649 74.1574 80.6703 69.2759 75.4072 75.0718C75.4007 75.0718 79.9532 72.1574 85.5649 74.1574Z" fill="#2C2C2C"/>
<path d="M67.6907 91.4993C67.8551 92.7756 68.4736 93.9532 69.4407 94.8084C70.4077 95.6637 71.6511 96.1308 72.9406 96.1308C74.23 96.1308 75.4734 95.6637 76.4405 94.8084C77.4076 93.9532 78.0326 92.7821 78.1905 91.4993H67.6907Z" fill="white"/>
<path fill-rule="evenodd" clip-rule="evenodd" d="M67.3914 91.2361H78.4879L78.4516 91.5314C78.2857 92.8791 77.6292 94.1084 76.6148 95.0055C75.5992 95.9036 74.2937 96.3939 72.9405 96.3939C71.5873 96.3939 70.2818 95.9036 69.2662 95.0055C68.2509 94.1076 67.6021 92.8717 67.4296 91.5329L67.3914 91.2361ZM67.9988 91.7624C68.2067 92.861 68.7714 93.8653 69.6149 94.6113C70.5335 95.4236 71.7148 95.8676 72.9405 95.8676C74.1662 95.8676 75.3475 95.4236 76.2661 94.6113C77.111 93.8641 77.6805 92.8643 77.8839 91.7624H67.9988Z" fill="#2C2C2C"/>
<path fill-rule="evenodd" clip-rule="evenodd" d="M56.2236 77.4074V77.539H55.6973V77.4074H56.2236Z" fill="#2C2C2C"/>
<path fill-rule="evenodd" clip-rule="evenodd" d="M58.9865 78.8547V78.9863H58.4602V78.8547H58.9865Z" fill="#2C2C2C"/>
<path d="M73.9471 78.0784C74.8484 78.2692 74.5129 78.8547 74.5129 78.9402C74.5129 79.0258 74.8484 83.8941 79.197 85.177C83.5457 86.4598 86.1509 83.9402 86.9074 82.677C87.664 81.4139 88.2956 78.4139 88.4798 78.1837C88.6706 77.9534 89.5719 77.5521 89.5719 77.5521L89.6771 76.3745L88.5456 76.039C88.5456 76.039 85.6903 74.7364 81.4865 74.6772C77.2892 74.6114 74.9142 77.0324 74.9142 77.0324C73.73 76.6574 72.263 76.6048 70.9209 77.0324C70.9209 77.0324 68.5459 74.6179 64.3486 74.6772C60.1513 74.7429 57.2895 76.039 57.2895 76.039L56.158 76.3745L56.2632 77.5521C56.2632 77.5521 57.1645 77.9534 57.3553 78.1837C57.5461 78.4139 58.1711 81.4205 58.9277 82.677C59.6842 83.9402 62.2894 86.4598 66.638 85.177C70.9867 83.8941 71.3222 79.0258 71.3222 78.9402C71.3222 78.8547 70.9867 78.2692 71.888 78.0784C72.6774 77.9139 73.1643 77.9139 73.9471 78.0784ZM84.3877 84.1704C81.072 86.1638 77.0984 84.1507 75.901 81.5257C74.7037 78.9008 75.7103 77.5126 75.7103 77.5126C77.7102 74.2495 85.789 74.1114 87.1772 77.6376C87.414 78.2297 87.7035 82.177 84.3877 84.1704ZM58.6579 77.6376C60.046 74.1048 68.1249 74.2495 70.1248 77.5126C70.1248 77.5126 71.1314 78.9008 69.934 81.5257C68.7367 84.1507 64.7697 86.1638 61.4474 84.1704C58.1382 82.177 58.4277 78.2297 58.6579 77.6376Z" fill="#2C2C2C"/>
</svg>
