<svg width="176" height="160" viewBox="0 0 176 160" fill="none" xmlns="http://www.w3.org/2000/svg">
<path d="M167.232 48.426C167.232 48.426 160.647 22.9236 120.783 6.84046C80.9188 -9.2427 45.2546 5.65316 37.1241 24.4991C28.9936 43.3451 37.5144 53.522 32.0889 69.6164C26.6633 85.7109 -1.20996 106.095 10.0393 130.813C21.2885 155.532 73.928 162.591 116.524 157.491C159.121 152.392 192.4 95.8953 167.232 48.426Z" fill="#50BFD7"/>
<path opacity="0.7" d="M167.232 48.426C167.232 48.426 160.647 22.9236 120.783 6.84046C80.9188 -9.2427 45.2546 5.65316 37.1241 24.4991C28.9936 43.3451 37.5144 53.522 32.0889 69.6164C26.6633 85.7109 -1.20996 106.095 10.0393 130.813C21.2885 155.532 73.928 162.591 116.524 157.491C159.121 152.392 192.4 95.8953 167.232 48.426Z" fill="white"/>
<path fill-rule="evenodd" clip-rule="evenodd" d="M134.993 127.256C135.101 127.245 135.197 127.323 135.208 127.43L136.747 141.873C136.758 141.98 136.68 142.077 136.573 142.088C136.465 142.099 136.369 142.022 136.357 141.914L134.819 127.472C134.808 127.364 134.885 127.268 134.993 127.256Z" fill="#263238"/>
<path d="M135.005 127.857C135.005 127.857 132.242 125.706 132.242 120.789C132.242 115.871 135.927 111.88 135.927 111.88C135.927 111.88 139.922 116.797 139 121.711C138.078 126.625 135.005 127.857 135.005 127.857Z" fill="#50BFD7"/>
<path fill-rule="evenodd" clip-rule="evenodd" d="M136.079 111.756L135.927 111.88L135.783 111.747C135.822 111.705 135.877 111.682 135.934 111.684C135.99 111.686 136.044 111.712 136.079 111.756ZM135.005 127.857C134.885 128.011 134.885 128.011 134.885 128.011L134.884 128.011L134.884 128.01L134.881 128.009L134.874 128.003C134.868 127.998 134.859 127.991 134.848 127.982C134.826 127.963 134.795 127.936 134.755 127.9C134.676 127.828 134.564 127.721 134.43 127.577C134.163 127.29 133.809 126.857 133.456 126.267C132.748 125.088 132.046 123.286 132.046 120.789C132.046 118.283 132.985 116.021 133.915 114.393C134.381 113.578 134.846 112.918 135.196 112.461C135.371 112.233 135.517 112.055 135.62 111.934C135.671 111.874 135.712 111.827 135.739 111.796C135.753 111.78 135.764 111.768 135.772 111.76L135.78 111.751L135.782 111.748L135.783 111.747L135.783 111.747C135.783 111.747 135.783 111.747 135.927 111.88C136.079 111.756 136.079 111.756 136.079 111.757L136.08 111.757L136.08 111.758L136.083 111.761L136.092 111.772C136.1 111.782 136.111 111.797 136.126 111.816C136.156 111.854 136.2 111.911 136.254 111.984C136.363 112.13 136.518 112.344 136.7 112.616C137.064 113.16 137.54 113.936 137.986 114.868C138.877 116.727 139.665 119.231 139.193 121.747C138.724 124.242 137.707 125.813 136.798 126.762C136.344 127.236 135.919 127.553 135.605 127.753C135.448 127.853 135.318 127.923 135.227 127.969C135.182 127.992 135.145 128.009 135.12 128.02C135.108 128.026 135.098 128.03 135.09 128.033L135.082 128.037L135.079 128.038L135.079 128.038L135.078 128.038C135.078 128.039 135.078 128.039 135.005 127.857ZM135.005 127.857L134.885 128.011C134.94 128.054 135.013 128.064 135.078 128.039L135.005 127.857ZM135.037 127.626C135.041 127.624 135.046 127.622 135.051 127.619C135.131 127.579 135.249 127.515 135.395 127.422C135.685 127.237 136.086 126.939 136.515 126.491C137.373 125.595 138.354 124.093 138.808 121.675C139.258 119.278 138.509 116.865 137.633 115.038C137.196 114.126 136.731 113.366 136.374 112.834C136.196 112.568 136.046 112.36 135.94 112.218C135.933 112.208 135.925 112.198 135.918 112.188C135.819 112.305 135.677 112.477 135.507 112.699C135.166 113.145 134.71 113.79 134.255 114.587C133.343 116.184 132.438 118.377 132.438 120.789C132.438 123.209 133.117 124.941 133.792 126.066C134.129 126.629 134.466 127.041 134.717 127.311C134.842 127.445 134.946 127.545 135.018 127.61C135.024 127.615 135.031 127.621 135.037 127.626Z" fill="#263238"/>
<path fill-rule="evenodd" clip-rule="evenodd" d="M135.73 116.402C135.838 116.409 135.92 116.502 135.913 116.61L135.209 127.463C135.202 127.571 135.109 127.653 135.001 127.646C134.893 127.639 134.811 127.546 134.818 127.438L135.522 116.585C135.529 116.477 135.622 116.395 135.73 116.402Z" fill="#263238"/>
<path fill-rule="evenodd" clip-rule="evenodd" d="M142.966 130.694C143.058 130.749 143.088 130.87 143.032 130.962C141.123 134.128 139.491 137.452 138.154 140.898C138.114 140.999 138.001 141.049 137.9 141.01C137.799 140.971 137.749 140.857 137.788 140.757C139.134 137.289 140.776 133.945 142.697 130.76C142.753 130.668 142.873 130.638 142.966 130.694Z" fill="#263238"/>
<path d="M141.418 133.473C141.418 133.473 139.884 130.321 142.054 125.92C144.225 121.519 149.298 119.56 149.298 119.56C149.298 119.56 150.709 125.733 147.707 129.736C144.706 133.74 141.418 133.473 141.418 133.473Z" fill="#50BFD7"/>
<path fill-rule="evenodd" clip-rule="evenodd" d="M149.488 119.517L149.297 119.56L149.226 119.378C149.279 119.357 149.338 119.361 149.389 119.388C149.439 119.414 149.475 119.461 149.488 119.517ZM141.418 133.474C141.242 133.56 141.241 133.56 141.241 133.56L141.241 133.558L141.24 133.556L141.236 133.548C141.232 133.54 141.228 133.53 141.222 133.517C141.21 133.491 141.194 133.452 141.174 133.402C141.134 133.303 141.081 133.157 141.024 132.969C140.911 132.594 140.784 132.049 140.727 131.364C140.612 129.994 140.776 128.07 141.878 125.834C142.984 123.592 144.825 121.978 146.38 120.928C147.158 120.402 147.868 120.016 148.383 119.76C148.641 119.632 148.851 119.537 148.996 119.474C149.069 119.442 149.126 119.418 149.165 119.402C149.184 119.394 149.199 119.388 149.21 119.384L149.222 119.38L149.225 119.378L149.226 119.378L149.226 119.378C149.226 119.378 149.226 119.378 149.297 119.56C149.488 119.517 149.488 119.517 149.488 119.517L149.488 119.518L149.489 119.522L149.492 119.536C149.495 119.549 149.499 119.567 149.504 119.591C149.513 119.638 149.527 119.708 149.544 119.798C149.577 119.977 149.621 120.238 149.664 120.562C149.751 121.21 149.834 122.116 149.823 123.15C149.8 125.211 149.4 127.805 147.863 129.855C146.339 131.887 144.736 132.844 143.503 133.291C142.888 133.514 142.368 133.609 141.999 133.648C141.814 133.667 141.668 133.673 141.566 133.674C141.515 133.674 141.475 133.673 141.448 133.672C141.434 133.671 141.423 133.671 141.415 133.67L141.406 133.67L141.403 133.669L141.402 133.669C141.402 133.669 141.402 133.669 141.418 133.474ZM141.418 133.474L141.241 133.56C141.272 133.622 141.333 133.664 141.402 133.669L141.418 133.474ZM141.548 133.282C141.553 133.282 141.558 133.282 141.564 133.282C141.653 133.281 141.787 133.276 141.958 133.258C142.299 133.222 142.788 133.134 143.37 132.923C144.532 132.502 146.072 131.59 147.55 129.62C149.014 127.667 149.409 125.172 149.431 123.146C149.442 122.135 149.361 121.248 149.276 120.614C149.234 120.296 149.191 120.043 149.159 119.869C149.157 119.857 149.154 119.845 149.152 119.833C149.012 119.894 148.808 119.986 148.557 120.111C148.054 120.36 147.36 120.739 146.599 121.253C145.074 122.283 143.294 123.85 142.229 126.008C141.161 128.173 141.007 130.025 141.117 131.331C141.172 131.985 141.293 132.503 141.399 132.856C141.453 133.033 141.502 133.168 141.538 133.258C141.541 133.266 141.545 133.274 141.548 133.282Z" fill="#263238"/>
<path fill-rule="evenodd" clip-rule="evenodd" d="M147.113 124.111C147.205 124.168 147.234 124.288 147.178 124.381L141.585 133.576C141.529 133.668 141.408 133.697 141.316 133.641C141.223 133.585 141.194 133.464 141.25 133.372L146.843 124.177C146.9 124.085 147.02 124.055 147.113 124.111Z" fill="#263238"/>
<path fill-rule="evenodd" clip-rule="evenodd" d="M128.431 130.256C128.524 130.202 128.644 130.234 128.699 130.327L130.851 134.035C132.27 136.579 133.409 139.27 134.247 142.061C134.278 142.164 134.219 142.273 134.115 142.305C134.012 142.336 133.902 142.277 133.871 142.173C133.042 139.411 131.915 136.746 130.51 134.227L128.36 130.524C128.306 130.43 128.337 130.31 128.431 130.256Z" fill="#263238"/>
<path d="M130.259 133.29C128.562 133.811 126.76 133.894 125.022 133.531C123.285 133.168 121.667 132.372 120.32 131.215C115.55 127.208 115.816 119.03 115.816 119.03C115.816 119.03 125.063 117.711 128.796 122.95C129.878 124.417 130.578 126.13 130.834 127.935C131.089 129.74 130.891 131.58 130.259 133.29Z" fill="#50BFD7"/>
<path fill-rule="evenodd" clip-rule="evenodd" d="M115.817 119.031C115.621 119.025 115.621 119.025 115.621 119.025L115.621 119.027L115.621 119.032L115.62 119.05C115.62 119.067 115.619 119.091 115.619 119.122C115.618 119.184 115.618 119.275 115.619 119.392C115.621 119.627 115.629 119.965 115.654 120.383C115.704 121.22 115.821 122.377 116.088 123.661C116.621 126.222 117.76 129.32 120.194 131.365C121.565 132.543 123.213 133.354 124.983 133.724C126.753 134.094 128.588 134.009 130.316 133.478L130.259 133.291L130.443 133.359C131.087 131.619 131.288 129.746 131.028 127.909C130.768 126.072 130.055 124.329 128.955 122.836C127.039 120.148 123.724 119.159 120.929 118.832C119.527 118.668 118.243 118.669 117.311 118.711C116.844 118.732 116.465 118.764 116.202 118.79C116.07 118.803 115.968 118.815 115.898 118.823C115.863 118.828 115.836 118.831 115.817 118.834L115.797 118.836L115.791 118.837L115.789 118.837C115.789 118.837 115.789 118.837 115.817 119.031ZM116.01 119.204C116.01 119.255 116.01 119.317 116.01 119.389C116.012 119.617 116.02 119.949 116.045 120.36C116.094 121.182 116.209 122.32 116.471 123.581C116.998 126.109 118.111 129.104 120.447 131.066L120.448 131.067C121.77 132.202 123.357 132.984 125.063 133.341C126.737 133.69 128.47 133.618 130.109 133.132C130.704 131.478 130.886 129.704 130.64 127.964C130.389 126.191 129.701 124.508 128.638 123.067L128.636 123.065C126.819 120.514 123.645 119.544 120.884 119.221C119.508 119.06 118.246 119.061 117.329 119.103C116.87 119.123 116.498 119.154 116.241 119.18C116.148 119.189 116.071 119.197 116.01 119.204ZM115.817 119.031L115.789 118.837C115.695 118.851 115.624 118.93 115.621 119.025L115.817 119.031Z" fill="#263238"/>
<path fill-rule="evenodd" clip-rule="evenodd" d="M119.163 121.729C119.241 121.654 119.365 121.657 119.44 121.735L130.4 133.156C130.475 133.234 130.472 133.358 130.394 133.433C130.316 133.508 130.192 133.505 130.117 133.427L119.157 122.006C119.082 121.928 119.085 121.804 119.163 121.729Z" fill="#263238"/>
<path d="M141.608 138.801H129.909V150.274H141.608V138.801Z" fill="#263238"/>
<path fill-rule="evenodd" clip-rule="evenodd" d="M129.713 138.8C129.713 138.692 129.801 138.604 129.909 138.604H141.608C141.717 138.604 141.804 138.692 141.804 138.8V150.273C141.804 150.381 141.717 150.468 141.608 150.468H129.909C129.801 150.468 129.713 150.381 129.713 150.273V138.8ZM130.105 138.996V150.077H141.413V138.996H130.105Z" fill="#263238"/>
<path opacity="0.3" d="M160.464 29.2462H77.5906V87.8535H160.464V29.2462Z" fill="black"/>
<path d="M162.544 26.2513H79.6708V84.8587H162.544V26.2513Z" fill="white"/>
<path fill-rule="evenodd" clip-rule="evenodd" d="M79.1866 26.2514C79.1866 26.0372 79.4033 25.8635 79.6707 25.8635H162.544C162.811 25.8635 163.028 26.0372 163.028 26.2514V84.8588C163.028 85.0731 162.811 85.2467 162.544 85.2467H79.6707C79.4033 85.2467 79.1866 85.0731 79.1866 84.8588V26.2514ZM80.1547 26.6394V84.4709H162.06V26.6394H80.1547Z" fill="#263238"/>
<path d="M162.544 26.2513H79.6708V30.4398H162.544V26.2513Z" fill="#263238"/>
<path fill-rule="evenodd" clip-rule="evenodd" d="M79.1866 26.2514C79.1866 26.0372 79.4033 25.8635 79.6707 25.8635H162.544C162.811 25.8635 163.028 26.0372 163.028 26.2514V30.4399C163.028 30.6542 162.811 30.8278 162.544 30.8278H79.6707C79.4033 30.8278 79.1866 30.6542 79.1866 30.4399V26.2514ZM80.1547 26.6394V30.052H162.06V26.6394H80.1547Z" fill="#263238"/>
<path d="M115.927 51.3514V45.1729C115.927 44.0496 116.483 42.9723 117.474 42.178C118.465 41.3837 119.809 40.9375 121.211 40.9375C122.612 40.9375 123.957 41.3837 124.948 42.178C125.939 42.9723 126.495 44.0496 126.495 45.1729V48.7831H128.601V45.1729C128.601 43.6019 127.823 42.0953 126.437 40.9845C125.051 39.8737 123.171 39.2496 121.211 39.2496C119.251 39.2496 117.371 39.8737 115.985 40.9845C114.599 42.0953 113.821 43.6019 113.821 45.1729V51.3514H115.927Z" fill="white"/>
<path d="M149.999 65.8071H92.2088C90.7729 65.8071 89.6089 66.7401 89.6089 67.8909V72.8348C89.6089 73.9857 90.7729 74.9186 92.2088 74.9186H149.999C151.435 74.9186 152.599 73.9857 152.599 72.8348V67.8909C152.599 66.7401 151.435 65.8071 149.999 65.8071Z" fill="white"/>
<path d="M83.2487 141.071C78.7863 140.663 74.3795 140.496 74.3795 140.496C72.7602 140.546 69.3114 140.688 65.7513 141.071C66.7897 144.619 70.3126 147.233 74.4969 147.233C78.6874 147.239 82.2103 144.613 83.2487 141.071Z" fill="#50BFD7"/>
<path d="M78.1565 147.519C78.1565 147.673 78.2925 147.853 78.4532 147.834C80.2764 147.642 81.6733 146.233 83.4718 146.53C81.6671 147.426 80.1034 148.984 80.3259 151.277C80.3506 151.561 80.6226 151.672 80.8327 151.499C82.1245 150.399 83.6078 149.416 85.3384 149.781C86.08 149.936 86.9515 150.226 87.7179 150.127C88.8613 149.985 89.8255 149.466 90.3941 148.359C91.3954 146.443 91.0246 144.144 88.781 143.668C88.7254 143.656 88.6821 143.662 88.6327 143.681C87.8044 143.353 87.0504 142.939 86.3829 142.216C85.7401 141.511 85.1406 140.733 84.4422 140.084C83.5089 139.212 82.4953 138.526 81.2592 139.113C81.0737 139.2 81.0861 139.466 81.2035 139.608C81.7474 140.281 82.384 140.924 83.0515 141.542C82.384 141.388 81.7104 141.307 81.0181 141.363C79.782 141.468 78.3234 142.29 78.3543 143.761C78.3604 143.946 78.4902 144.058 78.6509 144.076C79.7882 144.194 80.9316 144.175 82.0626 144.293C80.3012 144.812 78.1379 145.405 78.1565 147.519Z" fill="#C4C4C4"/>
<path fill-rule="evenodd" clip-rule="evenodd" d="M83.0545 138.821C83.6242 139.045 84.1389 139.462 84.6102 139.902C85.0827 140.341 85.5188 140.847 85.942 141.338C86.1518 141.582 86.3584 141.822 86.5646 142.048C87.1785 142.713 87.8711 143.106 88.6486 143.42C88.7049 143.411 88.7655 143.411 88.8329 143.426C90.0435 143.683 90.7687 144.444 91.0417 145.405C91.3107 146.353 91.1358 147.472 90.6131 148.472C89.9993 149.666 88.9537 150.221 87.7487 150.371C87.3263 150.426 86.8862 150.372 86.4709 150.291C86.2621 150.25 86.0553 150.201 85.8573 150.154C85.8363 150.149 85.8154 150.144 85.7946 150.139C85.6179 150.096 85.4494 150.056 85.2875 150.022L85.2869 150.022C83.6827 149.684 82.2833 150.587 80.9925 151.687L80.991 151.688L80.9894 151.689C80.8212 151.828 80.6036 151.868 80.4119 151.786C80.2203 151.704 80.0988 151.518 80.0793 151.299C79.878 149.219 81.0619 147.727 82.5555 146.764C82.0585 146.832 81.5744 147.011 81.0676 147.226C80.9549 147.273 80.8408 147.323 80.7251 147.373C80.0391 147.671 79.2992 147.993 78.4796 148.079C78.2948 148.1 78.1469 148.005 78.0581 147.903C77.9696 147.802 77.9092 147.663 77.9088 147.519C77.8989 146.355 78.5 145.607 79.3099 145.098C79.7371 144.829 80.2293 144.622 80.7284 144.447C80.602 144.442 80.4752 144.436 80.3479 144.431L80.3427 144.43C79.7762 144.406 79.2005 144.381 78.6251 144.321L78.6236 144.321L78.6221 144.321C78.3579 144.29 78.1176 144.093 78.1067 143.768L78.1067 143.767L78.1066 143.765C78.0892 142.936 78.4954 142.294 79.0584 141.854C79.6166 141.418 80.3377 141.172 80.9967 141.116L80.9973 141.116L80.9979 141.116C81.4346 141.081 81.8624 141.097 82.2834 141.151C81.8297 140.704 81.3982 140.242 81.0115 139.763C80.912 139.642 80.8617 139.479 80.8705 139.325C80.8796 139.165 80.9575 138.98 81.1533 138.889C81.8385 138.563 82.4724 138.591 83.0545 138.821ZM81.3672 139.334C81.3661 139.338 81.3647 139.344 81.3642 139.353C81.3633 139.368 81.3655 139.387 81.3717 139.406C81.3779 139.426 81.3865 139.441 81.3937 139.449L81.3946 139.45L81.3954 139.451C81.929 140.112 82.5561 140.746 83.2191 141.36L83.9017 141.992L82.9953 141.782C82.3451 141.632 81.698 141.555 81.038 141.608C80.4611 141.658 79.8351 141.875 79.3628 142.244C78.8957 142.609 78.5881 143.112 78.6009 143.753C78.6023 143.786 78.6125 143.799 78.619 143.806C78.6277 143.814 78.6458 143.826 78.6777 143.83C79.2372 143.887 79.7994 143.912 80.3694 143.937L80.3714 143.937C80.9389 143.961 81.5142 143.986 82.0877 144.046L83.3325 144.175L82.1321 144.529C82.1013 144.538 82.0705 144.547 82.0396 144.556C81.1757 144.81 80.2718 145.076 79.5733 145.516C78.8661 145.961 78.3949 146.567 78.4033 147.516L78.4033 147.517V147.518C78.4033 147.521 78.4042 147.53 78.4094 147.543C78.4146 147.556 78.4221 147.568 78.4302 147.578C78.4335 147.581 78.4364 147.584 78.4386 147.586C79.1721 147.507 79.831 147.221 80.5166 146.924C80.6351 146.873 80.7544 146.821 80.875 146.77C81.6811 146.429 82.5373 146.124 83.5116 146.285L84.2674 146.41L83.5813 146.75C81.8154 147.627 80.3636 149.109 80.5715 151.252L80.5716 151.253L80.5717 151.254C80.5746 151.288 80.5838 151.307 80.5903 151.316C80.5968 151.326 80.6029 151.33 80.6067 151.331C80.6106 151.333 80.6167 151.334 80.6263 151.333C80.6357 151.331 80.6524 151.326 80.6738 151.308C81.9662 150.208 83.5328 149.147 85.3886 149.538C85.5582 149.573 85.7342 149.616 85.9096 149.658C85.9306 149.663 85.9515 149.668 85.9724 149.673C86.1704 149.72 86.3683 149.767 86.5659 149.806C86.9633 149.883 87.3419 149.925 87.6858 149.881L87.6864 149.881L87.687 149.881C88.7682 149.746 89.6505 149.264 90.1738 148.246L90.1742 148.245L90.1746 148.244C90.6529 147.329 90.7931 146.34 90.5661 145.54C90.3432 144.755 89.7615 144.128 88.7292 143.909L88.7281 143.909L88.7269 143.909C88.7268 143.909 88.7266 143.909 88.7265 143.909C88.7248 143.909 88.7224 143.91 88.719 143.911L88.6298 143.945L88.5413 143.91C87.693 143.574 86.9022 143.143 86.2008 142.383L86.2003 142.382L86.1998 142.382C85.9726 142.133 85.7559 141.881 85.5415 141.632C85.1301 141.154 84.7269 140.685 84.2734 140.264L84.273 140.263C83.8111 139.832 83.3524 139.47 82.873 139.28C82.4069 139.096 81.9169 139.074 81.3672 139.334Z" fill="#2C2C2C"/>
<path fill-rule="evenodd" clip-rule="evenodd" d="M148.671 150.42C148.671 150.297 148.771 150.196 148.895 150.196H156.269C156.393 150.196 156.493 150.297 156.493 150.42C156.493 150.544 156.393 150.644 156.269 150.644H148.895C148.771 150.644 148.671 150.544 148.671 150.42Z" fill="#2C2C2C"/>
<path fill-rule="evenodd" clip-rule="evenodd" d="M9.60486 150.42C9.60486 150.297 9.70506 150.196 9.82866 150.196H146.437C146.56 150.196 146.661 150.297 146.661 150.42C146.661 150.544 146.56 150.644 146.437 150.644H9.82866C9.70506 150.644 9.60486 150.544 9.60486 150.42Z" fill="#2C2C2C"/>
<path fill-rule="evenodd" clip-rule="evenodd" d="M0 150.42C0 150.297 0.1002 150.196 0.223804 150.196H5.2632C5.3868 150.196 5.48701 150.297 5.48701 150.42C5.48701 150.544 5.3868 150.644 5.2632 150.644H0.223804C0.1002 150.644 0 150.544 0 150.42Z" fill="#2C2C2C"/>
<path d="M47.621 126.246H101.085C101.724 126.246 102.338 126.5 102.79 126.952C103.242 127.404 103.497 128.018 103.497 128.657V158.693H45.2092V128.657C45.2092 128.018 45.4633 127.404 45.9156 126.952C46.3679 126.5 46.9813 126.246 47.621 126.246Z" fill="white"/>
<path fill-rule="evenodd" clip-rule="evenodd" d="M47.6211 126.552C47.063 126.552 46.5278 126.774 46.1331 127.169C45.7385 127.563 45.5168 128.099 45.5168 128.657V158.385H103.189V128.657C103.189 128.099 102.968 127.563 102.573 127.169C102.178 126.774 101.643 126.552 101.085 126.552H47.6211ZM45.6984 126.734C46.2083 126.224 46.9 125.938 47.6211 125.938H101.085C101.806 125.938 102.498 126.224 103.008 126.734C103.518 127.244 103.804 127.936 103.804 128.657V158.693C103.804 158.862 103.667 159 103.497 159H45.2094C45.0396 159 44.902 158.862 44.902 158.693V128.657C44.902 127.936 45.1885 127.244 45.6984 126.734Z" fill="#2C2C2C"/>
<path d="M103.497 137.04C96.1745 138.897 88.6594 143.624 74.6568 150.28C61.1509 156.705 50.0954 156.594 45.2092 156.098V158.693H103.497V137.04Z" fill="#2C2C2C"/>
<path fill-rule="evenodd" clip-rule="evenodd" d="M103.686 136.798C103.76 136.856 103.804 136.946 103.804 137.041V158.693C103.804 158.863 103.667 159.001 103.497 159.001H45.2094C45.0396 159.001 44.902 158.863 44.902 158.693V156.098C44.902 156.011 44.9388 155.929 45.0033 155.87C45.0678 155.812 45.154 155.784 45.2405 155.793C50.0848 156.285 61.0812 156.399 74.5249 150.004L74.525 150.004C79.1369 147.811 83.0391 145.831 86.4676 144.091C88.2432 143.19 89.8916 142.354 91.4458 141.586C95.9926 139.338 99.7265 137.68 103.421 136.743C103.513 136.719 103.611 136.74 103.686 136.798ZM74.7889 150.559C61.5232 156.87 50.6028 156.907 45.5168 156.437V158.386H103.189V137.438C99.6846 138.374 96.1004 139.971 91.7183 142.137C90.1745 142.9 88.5309 143.734 86.7581 144.633C83.3249 146.375 79.4067 148.364 74.7889 150.559Z" fill="#2C2C2C"/>
<path fill-rule="evenodd" clip-rule="evenodd" d="M44.902 156.894C44.902 156.724 45.0396 156.586 45.2094 156.586H103.497C103.667 156.586 103.804 156.724 103.804 156.894V158.698C103.804 158.867 103.667 159.005 103.497 159.005H45.2094C45.0396 159.005 44.902 158.867 44.902 158.698V156.894ZM45.5168 157.201V158.39H103.189V157.201H45.5168Z" fill="#2C2C2C"/>
<path d="M77.4586 93.3953C77.4586 94.7009 76.1025 95.7594 74.4296 95.7594C72.7568 95.7594 71.4006 94.7009 71.4006 93.3953C71.4006 92.0897 72.7568 91.0312 74.4296 91.0312C76.1025 91.0312 77.4586 92.0897 77.4586 93.3953Z" fill="white"/>
<path fill-rule="evenodd" clip-rule="evenodd" d="M74.4296 95.1683C75.9208 95.1683 76.8676 94.2465 76.8676 93.3953C76.8676 92.5441 75.9208 91.6222 74.4296 91.6222C72.9384 91.6222 71.9917 92.5441 71.9917 93.3953C71.9917 94.2465 72.9384 95.1683 74.4296 95.1683ZM74.4296 95.7594C76.1025 95.7594 77.4586 94.7009 77.4586 93.3953C77.4586 92.0897 76.1025 91.0312 74.4296 91.0312C72.7568 91.0312 71.4006 92.0897 71.4006 93.3953C71.4006 94.7009 72.7568 95.7594 74.4296 95.7594Z" fill="#454545"/>
<path d="M103.855 157.255H44.2126V159.101H103.855V157.255Z" fill="white"/>
<path fill-rule="evenodd" clip-rule="evenodd" d="M43.8983 157.256C43.8983 157.082 44.0391 156.941 44.2129 156.941H103.856C104.029 156.941 104.17 157.082 104.17 157.256V159.102C104.17 159.275 104.029 159.416 103.856 159.416H44.2129C44.0391 159.416 43.8983 159.275 43.8983 159.102V157.256ZM44.5274 157.57V158.787H103.541V157.57H44.5274Z" fill="#2C2C2C"/>
<path opacity="0.15" d="M66.2764 93.3901C65.652 93.0062 65.074 92.6054 64.5214 92.2046C64.7619 91.7827 65.8334 89.9644 65.9516 88.9476C66.0697 87.9309 65.9516 86.7032 65.188 85.9944C65.017 85.8202 64.8115 85.6839 64.5845 85.5942C64.3575 85.5046 64.1143 85.4636 63.8705 85.4739C63.6267 85.4843 63.3877 85.5457 63.1692 85.6542C62.9506 85.7628 62.7573 85.9161 62.6018 86.1041C61.6989 87.2643 62.4879 89.7914 63.2262 90.8756C63.2641 90.9347 63.7409 91.4916 64.07 91.8882C63.821 91.7025 63.5637 91.5169 63.3316 91.3355C62.4541 90.652 61.6947 89.9728 61.0281 89.3653C60.6484 89.0193 60.3151 88.6945 60.0072 88.3907C60.0367 87.876 60.1295 85.8003 59.7751 84.8595C59.4207 83.9187 58.7288 82.8766 57.7332 82.5855C57.5029 82.5088 57.2591 82.4813 57.0174 82.5045C56.7758 82.5278 56.5417 82.6014 56.3303 82.7206C56.1189 82.8399 55.9347 83.0021 55.7898 83.1968C55.6449 83.3915 55.5423 83.6144 55.4887 83.8512C55.223 85.294 57.0877 87.1757 58.2395 87.8001C58.3407 87.8549 59.9945 88.5131 59.9987 88.4878V88.4582C60.2941 88.7578 60.6105 89.0742 60.9606 89.4159C61.6188 90.0361 62.3655 90.7322 63.2304 91.4367C64.1528 92.2085 65.1207 92.9241 66.1288 93.5799L66.7616 93.9723H67.2805C66.9514 93.7909 66.6055 93.5926 66.2764 93.3901Z" fill="black"/>
<path opacity="0.15" d="M64.2427 92.2421C64.2427 92.221 62.5551 91.643 62.4581 91.6219C61.1924 91.3435 58.5387 91.5586 57.8173 92.8285C57.616 93.1782 57.5528 93.5906 57.6401 93.9845H62.7787C63.3012 93.4335 63.79 92.8517 64.2427 92.2421Z" fill="black"/>
<path opacity="0.15" d="M87.0242 86.5166C86.6909 86.2044 86.3661 85.8879 86.0412 85.5757C86.21 85.4703 88.2393 84.213 88.851 83.2975C89.3952 82.4833 89.8635 81.2978 89.526 80.3148C89.4537 80.0818 89.3331 79.8667 89.1722 79.6834C89.0113 79.5001 88.8135 79.3527 88.5919 79.2508C88.3702 79.1489 88.1296 79.0948 87.8857 79.0921C87.6418 79.0893 87.4 79.1379 87.1761 79.2348C85.8429 79.8507 85.3915 82.4622 85.5518 83.7616C85.5518 83.8587 85.8809 85.1834 85.9737 85.5167C85.2523 84.829 84.5435 84.1329 83.8643 83.4072C82.9572 82.4447 82.1117 81.426 81.333 80.357C81.4131 80.3106 83.5352 79.0069 84.1638 78.0703C84.7081 77.2561 85.1764 76.0664 84.8346 75.0876C84.7627 74.8548 84.6426 74.6397 84.4821 74.4563C84.3217 74.2729 84.1244 74.1253 83.9032 74.0231C83.6821 73.9208 83.4418 73.8662 83.1982 73.8628C82.9545 73.8594 82.7129 73.9073 82.4889 74.0033C81.1558 74.6235 80.7001 77.235 80.8604 78.5344C80.8604 78.6357 81.219 80.0617 81.2823 80.3148L81.1389 80.1292C80.3856 79.0345 79.7305 77.8755 79.1813 76.6655C78.8691 76.0031 78.6118 75.3492 78.3713 74.7079C78.7932 74.5054 80.7001 73.5646 81.3583 72.7841C82.0164 72.0036 82.586 70.9025 82.3581 69.8941C82.312 69.6542 82.2158 69.4267 82.076 69.2263C81.9362 69.0259 81.7558 68.8572 81.5465 68.7311C81.3372 68.605 81.1038 68.5243 80.8613 68.4942C80.6188 68.4642 80.3727 68.4855 80.139 68.5568C78.7468 69.0251 78.0296 71.569 78.0296 72.8811C78.0296 72.9528 78.1182 73.6743 78.1899 74.2016C78.0886 73.9105 77.9747 73.6152 77.8819 73.3325C77.5275 72.282 77.266 71.2948 77.0381 70.4215C76.9158 69.9195 76.8145 69.468 76.7217 69.0419C77.0297 68.62 78.2574 66.9325 78.4768 65.9706C78.6962 65.0087 78.7004 63.7388 78.0296 62.9456C77.8784 62.754 77.6886 62.5964 77.4725 62.4829C77.2564 62.3695 77.0189 62.3029 76.7753 62.2873C76.5317 62.2718 76.2876 62.3078 76.0589 62.3928C75.8301 62.4779 75.6218 62.6102 75.4476 62.7811C74.4266 63.8401 74.9456 66.4389 75.5657 67.5949C75.6164 67.6919 76.6331 69.1601 76.65 69.139V69.1137C76.7259 69.5355 76.8145 69.9574 76.9242 70.4426C77.1267 71.3243 77.3672 72.3158 77.7005 73.3958C78.0467 74.5433 78.458 75.6702 78.9324 76.7709C79.4636 78.0069 80.1016 79.1941 80.8393 80.319L80.8689 80.357C80.5356 80.087 79.5737 79.3655 79.4935 79.3191C78.3629 78.6526 75.7851 78.0535 74.6882 79.0112C74.5113 79.1789 74.3715 79.3819 74.2779 79.6071C74.1843 79.8322 74.1391 80.0746 74.1451 80.3183C74.151 80.5621 74.2081 80.8019 74.3125 81.0222C74.417 81.2425 74.5665 81.4384 74.7515 81.5973C75.5151 82.2977 76.7934 82.3399 77.7553 82.1627C78.8438 81.9644 80.8056 80.5932 80.9617 80.4751C81.7427 81.6012 82.5983 82.6738 83.5226 83.6857C84.0584 84.2805 84.6152 84.8585 85.1806 85.4323C84.8853 85.2087 84.6152 85.0104 84.5773 84.9893C83.4424 84.3227 80.8689 83.7236 79.772 84.6813C79.595 84.8491 79.4552 85.0521 79.3617 85.2773C79.2681 85.5024 79.2228 85.7447 79.2288 85.9885C79.2348 86.2323 79.2918 86.472 79.3963 86.6924C79.5008 86.9127 79.6503 87.1086 79.8353 87.2675C80.5989 87.9678 81.8772 88.01 82.8391 87.8328C83.801 87.6556 85.5139 86.5208 85.9611 86.2128L86.6192 86.8709C87.6739 87.913 88.7287 88.9466 89.7412 89.9971C90.0956 90.3642 90.4331 90.7397 90.7706 91.1194C90.5048 90.9168 90.2812 90.7523 90.2432 90.7312C89.1126 90.0688 86.5391 89.4655 85.4421 90.4275C85.2646 90.5949 85.1243 90.7978 85.0303 91.023C84.9364 91.2482 84.8909 91.4907 84.8969 91.7347C84.9029 91.9786 84.9601 92.2186 85.065 92.4389C85.1698 92.6593 85.3199 92.8551 85.5054 93.0136C86.269 93.714 87.5431 93.7562 88.5093 93.579C89.4754 93.4018 91.0195 92.3724 91.5511 92.0138C91.8844 92.4061 92.2177 92.8027 92.5257 93.1993C92.7113 93.4566 92.9096 93.6929 93.0868 93.9544H93.9812L93.728 93.6001C93.5382 93.3216 93.3061 93.0516 93.0825 92.7563C92.5721 92.1192 92.0236 91.4906 91.4541 90.8831C91.935 90.5836 93.6141 89.4909 94.1626 88.6724C94.711 87.8539 95.1751 86.6684 94.8376 85.6897C94.7652 85.4567 94.6446 85.2415 94.4837 85.0581C94.3229 84.8747 94.1253 84.7271 93.9038 84.6249C93.6823 84.5227 93.4417 84.4681 93.1978 84.4648C92.9539 84.4614 92.7119 84.5093 92.4877 84.6054C91.1545 85.2256 90.6989 87.8371 90.8634 89.1365C90.8634 89.2166 91.0912 90.1406 91.222 90.6426C90.8803 90.2756 90.5386 89.9085 90.1757 89.5499C89.1801 88.5627 88.0958 87.546 87.0242 86.5166Z" fill="black"/>
<path opacity="0.15" d="M77.979 93.5835C77.979 92.6048 77.7174 91.356 76.8948 90.7231C76.7058 90.5691 76.4867 90.4564 76.2515 90.3923C76.0162 90.3282 75.7702 90.3142 75.5292 90.3512C75.2883 90.3882 75.0578 90.4753 74.8526 90.607C74.6474 90.7386 74.4721 90.9119 74.3381 91.1155C73.8909 91.8454 74.0639 92.9718 74.4562 93.9843H77.941C77.9632 93.8518 77.9758 93.7179 77.979 93.5835Z" fill="black"/>
<path opacity="0.15" d="M74.5622 75.3996C75.7056 75.4967 78.1314 74.6149 78.1314 74.6149C78.1314 74.6149 77.064 73.1932 76.9881 73.113C76.0726 72.1722 73.7522 70.8939 72.4359 71.5478C72.2173 71.6619 72.0255 71.8212 71.8731 72.0151C71.7208 72.209 71.6115 72.4331 71.5524 72.6725C71.4934 72.912 71.4859 73.1612 71.5306 73.4037C71.5753 73.6462 71.671 73.8765 71.8115 74.0791C72.3642 74.9356 73.5835 75.3153 74.5622 75.3996Z" fill="black"/>
<path opacity="0.15" d="M84.3459 92.2794C84.1572 92.1247 83.9381 92.0114 83.7028 91.947C83.4674 91.8826 83.2212 91.8684 82.98 91.9054C82.7389 91.9424 82.5082 92.0298 82.303 92.1618C82.0979 92.2939 81.9228 92.4676 81.7892 92.6718C81.572 93.0727 81.4837 93.5309 81.5361 93.9838H85.312C85.1982 93.3205 84.8565 92.7177 84.3459 92.2794Z" fill="black"/>
<path opacity="0.15" d="M71.1915 91.8194C71.1915 90.8406 70.9299 89.5918 70.1072 88.9632C69.9188 88.8078 69.6998 88.694 69.4643 88.6292C69.2289 88.5644 68.9825 88.5501 68.7411 88.5871C68.4997 88.6242 68.2689 88.7118 68.0638 88.8442C67.8586 88.9766 67.6837 89.1509 67.5506 89.3556C66.7912 90.5875 67.8122 92.9627 68.6602 93.9963H70.6388C70.9328 93.303 71.1192 92.5689 71.1915 91.8194Z" fill="black"/>
<path d="M80.6965 58.3522V54.7071H81.5994C81.7813 54.6976 81.9623 54.7385 82.1225 54.8252C82.2544 54.9049 82.3555 55.0268 82.4094 55.1711C82.473 55.3453 82.5031 55.53 82.498 55.7154C82.5022 55.8868 82.4675 56.057 82.3967 56.2132C82.3333 56.3502 82.2286 56.4638 82.0972 56.5381C81.9468 56.6225 81.7759 56.6634 81.6036 56.6562H81.1817V58.3437L80.6965 58.3522ZM81.2028 56.2891H81.4348C81.5533 56.2927 81.6716 56.277 81.785 56.2427C81.8646 56.2107 81.9283 56.1486 81.9622 56.0698C82.004 55.958 82.0227 55.8388 82.017 55.7196C82.0211 55.5849 82.0083 55.4503 81.9791 55.3188C81.9689 55.2764 81.9491 55.2369 81.9213 55.2032C81.8936 55.1696 81.8585 55.1428 81.8188 55.1247C81.6981 55.0831 81.5708 55.0645 81.4433 55.0699H81.2028V56.2891Z" fill="#CCCCCC"/>
<path d="M82.4974 58.3517L83.2695 54.7065H83.7589L84.5394 58.3517H84.0711L83.9023 57.4319H83.1598L82.9868 58.3517H82.4974ZM83.2146 57.086H83.8222L83.5184 55.4448L83.2146 57.086Z" fill="#CCCCCC"/>
<path d="M85.7591 58.3892C85.5753 58.3956 85.3937 58.3487 85.2359 58.2542C85.0962 58.1643 84.9861 58.0351 84.9195 57.8829C84.8421 57.7071 84.7992 57.518 84.793 57.326L85.2402 57.2079C85.2482 57.3335 85.2694 57.458 85.3035 57.5791C85.3271 57.6893 85.3795 57.7912 85.4553 57.8745C85.5394 57.9464 85.6464 57.9859 85.757 57.9859C85.8676 57.9859 85.9746 57.9464 86.0586 57.8745C86.1318 57.7859 86.168 57.6726 86.1599 57.5581C86.1673 57.4168 86.1272 57.2772 86.046 57.1615C85.9622 57.051 85.8675 56.9492 85.7633 56.8577L85.1516 56.3177C85.0402 56.2218 84.9497 56.1041 84.8858 55.9718C84.826 55.826 84.7973 55.6694 84.8014 55.5119C84.7957 55.3985 84.8129 55.2851 84.8521 55.1786C84.8912 55.072 84.9515 54.9744 85.0292 54.8917C85.1131 54.815 85.2117 54.756 85.319 54.7183C85.4263 54.6806 85.5401 54.6649 85.6536 54.6723C85.7824 54.6694 85.9107 54.688 86.0333 54.7272C86.1381 54.7602 86.2326 54.8198 86.3075 54.9002C86.3876 54.9843 86.4481 55.0852 86.4847 55.1955C86.5309 55.3321 86.5606 55.4737 86.5733 55.6174L86.1514 55.7355C86.1441 55.6245 86.1272 55.5144 86.1008 55.4064C86.0765 55.3132 86.0268 55.2285 85.9574 55.1617C85.8753 55.0955 85.7715 55.0624 85.6663 55.0689C85.6086 55.0584 85.5492 55.0621 85.4932 55.0796C85.4372 55.097 85.3863 55.1278 85.3448 55.1693C85.3033 55.2108 85.2725 55.2617 85.255 55.3177C85.2375 55.3737 85.2339 55.4331 85.2444 55.4908C85.2416 55.5856 85.2619 55.6797 85.3035 55.765C85.3496 55.8489 85.4111 55.9234 85.4849 55.9844L86.1008 56.5244C86.2408 56.6475 86.3629 56.7895 86.4636 56.9463C86.5727 57.1237 86.6284 57.3288 86.624 57.537C86.6285 57.7004 86.5892 57.8621 86.5101 58.0053C86.4374 58.1319 86.3307 58.2357 86.2021 58.3048C86.063 58.3672 85.9113 58.3961 85.7591 58.3892Z" fill="#CCCCCC"/>
<path d="M87.8934 58.3896C87.7096 58.3959 87.5279 58.3491 87.3702 58.2546C87.2305 58.1646 87.1204 58.0355 87.0538 57.8833C86.9784 57.7068 86.9355 57.5181 86.9272 57.3264L87.3744 57.2083C87.3845 57.3336 87.4057 57.4579 87.4377 57.5795C87.4628 57.69 87.5166 57.7919 87.5938 57.8749C87.6768 57.9473 87.7832 57.9872 87.8934 57.9872C88.0035 57.9872 88.1099 57.9473 88.1929 57.8749C88.266 57.7863 88.3023 57.673 88.2942 57.5584C88.3016 57.4172 88.2615 57.2776 88.1802 57.1619C88.0965 57.0514 88.0018 56.9496 87.8976 56.8581L87.2858 56.3181C87.1745 56.2222 87.084 56.1045 87.0201 55.9721C86.9603 55.8264 86.9316 55.6698 86.9357 55.5123C86.93 55.3989 86.9472 55.2855 86.9864 55.179C87.0255 55.0724 87.0858 54.9748 87.1635 54.8921C87.3359 54.7388 87.5618 54.66 87.7921 54.6727C87.9209 54.6698 88.0492 54.6883 88.1718 54.7276C88.2761 54.7616 88.3704 54.8211 88.446 54.9005C88.5233 54.9861 88.5821 55.0866 88.619 55.1959C88.6672 55.3319 88.697 55.4738 88.7076 55.6177L88.2857 55.7359C88.2771 55.6248 88.2587 55.5147 88.2309 55.4068C88.2065 55.3136 88.1569 55.2289 88.0874 55.1621C88.0065 55.0969 87.9043 55.0638 87.8006 55.0693C87.6928 55.064 87.5871 55.1003 87.5052 55.1705C87.4677 55.2104 87.439 55.2576 87.4208 55.3092C87.4027 55.3608 87.3955 55.4156 87.3998 55.4701C87.3957 55.5646 87.4145 55.6587 87.4546 55.7443C87.5007 55.8282 87.5623 55.9027 87.636 55.9637L88.252 56.5037C88.3933 56.6267 88.5168 56.7686 88.619 56.9256C88.7247 57.1043 88.7787 57.3087 88.7751 57.5162C88.7797 57.6797 88.7403 57.8414 88.6612 57.9845C88.5886 58.1112 88.4819 58.215 88.3532 58.2841C88.2111 58.3569 88.053 58.3931 87.8934 58.3896Z" fill="#CCCCCC"/>
<path d="M46.661 70.9423C45.6042 75.3018 47.9821 91.1546 51.8792 97.1522C51.8792 97.1522 63.1743 104.484 98.4534 100.323C98.4534 100.323 92.7464 98.4997 98.0901 77.5938C98.2024 77.1447 98.3213 76.6955 98.4468 76.2265C99.1734 73.5183 93.8561 68.8748 92.8983 67.2433C85.9957 55.532 46.661 70.9423 46.661 70.9423Z" fill="#2C2C2C"/>
<path d="M58.7037 117.259C58.7037 117.259 53.2081 143.891 50.7047 145.358C48.69 146.54 51.3731 147.92 45.5076 145.945L45.5075 141.807L44.3254 139.739L45.9356 134.631C45.9356 134.631 51.4907 107.569 55.4803 107.238C59.4765 106.902 58.7037 117.259 58.7037 117.259Z" fill="#2C2C2C"/>
<path d="M96.2165 115.112C96.2165 115.112 102.974 141.453 101.369 143.87C100.078 145.817 103.094 145.878 96.9575 146.679L95.1406 142.962L93.1702 141.623L92.3738 136.327C92.3738 136.327 85.481 109.574 88.9204 107.525C92.3628 105.468 96.2165 115.112 96.2165 115.112Z" fill="#2C2C2C"/>
<path d="M98.9701 115.337C98.9701 119.551 96.2091 122.16 91.9949 122.16C87.7807 122.16 84.3657 118.745 84.3657 114.531C84.3657 110.317 87.5495 105.666 91.5655 106.928C95.9911 108.309 98.9701 111.122 98.9701 115.337Z" fill="white"/>
<path fill-rule="evenodd" clip-rule="evenodd" d="M86.6605 108.848C85.4048 110.329 84.6293 112.484 84.6293 114.532C84.6293 118.6 87.9259 121.897 91.9942 121.897C94.0466 121.897 95.7197 121.262 96.8783 120.14C98.0358 119.018 98.7052 117.385 98.7052 115.338C98.7052 111.284 95.8518 108.543 91.4862 107.181L91.4857 107.181C89.6085 106.591 87.9122 107.371 86.6605 108.848ZM91.6437 106.677C89.5049 106.005 87.6015 106.92 86.2574 108.506C84.9171 110.088 84.1008 112.365 84.1008 114.532C84.1008 118.892 87.6341 122.425 91.9942 122.425C94.156 122.425 95.9705 121.755 97.246 120.519C98.5225 119.283 99.2336 117.504 99.2336 115.338C99.2336 110.963 96.1292 108.076 91.6437 106.677Z" fill="#2C2C2C"/>
<path d="M95.5408 114.108C95.5408 117.225 93.4998 119.154 90.382 119.154C87.2643 119.154 84.7411 116.631 84.7411 113.513C84.7411 110.396 87.0926 106.954 90.0716 107.886C93.3346 108.916 95.5408 110.997 95.5408 114.108Z" fill="#2C2C2C"/>
<path d="M47.7786 115.336C47.7786 119.551 50.5396 122.16 54.7538 122.16C58.968 122.16 62.3763 118.738 62.3763 114.531C62.3763 110.323 59.1926 105.666 55.1765 106.928C50.7576 108.308 47.7786 111.122 47.7786 115.336Z" fill="white"/>
<path fill-rule="evenodd" clip-rule="evenodd" d="M60.484 108.508C61.8241 110.091 62.6405 112.368 62.6405 114.531C62.6405 118.885 59.1143 122.425 54.7537 122.425C52.5919 122.425 50.7774 121.755 49.5019 120.519C48.2254 119.282 47.5143 117.504 47.5143 115.337C47.5143 110.962 50.6186 108.076 55.0975 106.677C57.2365 106.005 59.14 106.922 60.484 108.508ZM60.0808 108.85C58.8289 107.372 57.1326 106.591 55.2556 107.181L55.2552 107.181C50.8963 108.543 48.0427 111.284 48.0427 115.337C48.0427 117.385 48.7121 119.018 49.8696 120.14C51.0282 121.262 52.7013 121.896 54.7537 121.896C58.8215 121.896 62.1121 118.594 62.1121 114.531C62.1121 112.487 61.3365 110.333 60.0808 108.85Z" fill="#2C2C2C"/>
<path d="M51.2126 114.108C51.2126 117.225 53.2537 119.154 56.3714 119.154C59.4891 119.154 62.0124 116.631 62.0124 113.513C62.0124 110.396 59.6609 106.954 56.6885 107.886C53.4122 108.916 51.2126 110.997 51.2126 114.108Z" fill="#2C2C2C"/>
<path d="M82.9774 149.15C78.2083 148.714 73.4987 148.535 73.4987 148.535C71.7682 148.588 68.0824 148.74 64.2777 149.15C65.3874 152.941 69.1524 155.735 73.6242 155.735C78.1027 155.742 81.8677 152.935 82.9774 149.15Z" fill="#50BFD7"/>
<path d="M82.5889 149.546C82.9984 147.934 91.1957 106.862 91.1957 106.862C91.1957 106.862 69.3188 100.402 55.3287 106.862L64.2988 149.903L82.5889 149.546Z" fill="white"/>
<path fill-rule="evenodd" clip-rule="evenodd" d="M91.2695 106.609C91.2697 106.609 91.2699 106.609 91.1951 106.863C91.4542 106.914 91.4541 106.915 91.4541 106.915L91.4538 106.916L91.362 107.376C91.3019 107.677 91.2136 108.119 91.1011 108.682C90.8762 109.809 90.5544 111.419 90.1669 113.357C89.392 117.233 88.3546 122.417 87.3043 127.652C85.2053 138.114 83.0514 148.797 82.8444 149.611L82.7948 149.807L64.0842 150.171L55.0266 106.711L55.2174 106.623C62.2802 103.362 71.3071 103.369 78.5373 104.178C82.1578 104.583 85.3392 105.19 87.6156 105.696C88.7539 105.95 89.6664 106.177 90.2947 106.342C90.6089 106.425 90.8521 106.491 91.0171 106.537C91.0995 106.56 91.1625 106.578 91.2049 106.59C91.2261 106.597 91.2422 106.601 91.2531 106.604L91.2654 106.608L91.2687 106.609L91.2695 106.609ZM91.1951 106.863L91.4542 106.914L91.5014 106.678L91.2699 106.609L91.1951 106.863ZM90.8883 107.05C90.8838 107.049 90.8794 107.048 90.8748 107.046C90.7125 107.001 90.472 106.935 90.1607 106.853C89.538 106.69 88.6321 106.464 87.5009 106.212C85.2381 105.709 82.0759 105.105 78.4785 104.703C71.3387 103.904 62.5293 103.904 55.6299 107.015L64.5121 149.635L82.3776 149.286C82.7519 147.607 84.7904 137.496 86.7862 127.548C87.8364 122.314 88.8739 117.129 89.6488 113.254C90.0362 111.316 90.358 109.705 90.5829 108.579C90.6954 108.016 90.7837 107.574 90.8438 107.273L90.8883 107.05Z" fill="black"/>
<path d="M82.5889 149.546C82.9984 147.934 91.1957 106.862 91.1957 106.862C91.1957 106.862 69.3188 100.402 55.3287 106.862L64.2988 149.903L82.5889 149.546Z" fill="white"/>
<path fill-rule="evenodd" clip-rule="evenodd" d="M91.2695 106.609C91.2697 106.609 91.2699 106.609 91.1951 106.863C91.4542 106.914 91.4541 106.915 91.4541 106.915L91.4538 106.916L91.362 107.376C91.3019 107.677 91.2136 108.119 91.1011 108.682C90.8762 109.809 90.5544 111.419 90.1669 113.357C89.392 117.233 88.3546 122.417 87.3043 127.652C85.2053 138.114 83.0514 148.797 82.8444 149.611L82.7948 149.807L64.0842 150.171L55.0266 106.711L55.2174 106.623C62.2802 103.362 71.3071 103.369 78.5373 104.178C82.1578 104.583 85.3392 105.19 87.6156 105.696C88.7539 105.95 89.6664 106.177 90.2947 106.342C90.6089 106.425 90.8521 106.491 91.0171 106.537C91.0995 106.56 91.1625 106.578 91.2049 106.59C91.2261 106.597 91.2422 106.601 91.2531 106.604L91.2654 106.608L91.2687 106.609L91.2695 106.609ZM91.1951 106.863L91.4542 106.914L91.5014 106.678L91.2699 106.609L91.1951 106.863ZM90.8883 107.05C90.8838 107.049 90.8794 107.048 90.8748 107.046C90.7125 107.001 90.472 106.935 90.1607 106.853C89.538 106.69 88.6321 106.464 87.5009 106.212C85.2381 105.709 82.0759 105.105 78.4785 104.703C71.3387 103.904 62.5293 103.904 55.6299 107.015L64.5121 149.635L82.3776 149.286C82.7519 147.607 84.7904 137.496 86.7862 127.548C87.8364 122.314 88.8739 117.129 89.6488 113.254C90.0362 111.316 90.358 109.705 90.5829 108.579C90.6954 108.016 90.7837 107.574 90.8438 107.273L90.8883 107.05Z" fill="#2C2C2C"/>
<path d="M85.8847 105.601C79.7748 104.372 69.4441 102.972 60.5665 105.085C61.6168 111.711 62.667 118.342 63.7173 124.967C64.5628 129.459 68.8232 132.451 73.2686 132.478C77.714 132.451 81.9744 129.466 82.8199 124.967C83.8371 118.507 84.8609 112.054 85.8847 105.601Z" fill="#50BFD7"/>
<path fill-rule="evenodd" clip-rule="evenodd" d="M60.5043 104.828C69.44 102.701 79.8177 104.111 85.9358 105.342L86.1844 105.392L86.144 105.646C85.1204 112.098 84.0968 118.55 83.0798 125.009L83.0792 125.012L83.0785 125.016C82.2059 129.659 77.8196 132.715 73.2691 132.742L73.2676 132.742L73.266 132.742C68.7153 132.715 64.3292 129.652 63.4566 125.016L63.4559 125.013L63.4553 125.009C62.9302 121.697 62.4051 118.383 61.8801 115.069L61.8799 115.068C61.3548 111.754 60.8297 108.439 60.3046 105.127L60.2662 104.885L60.5043 104.828ZM60.8649 105.287C61.3772 108.518 61.8894 111.751 62.4017 114.984L62.4018 114.985C62.9268 118.298 63.4517 121.611 63.9766 124.922C64.7965 129.267 68.9293 132.187 73.2676 132.214C77.606 132.187 81.7385 129.274 82.5585 124.923C83.5623 118.547 84.5726 112.179 85.583 105.81C79.5092 104.607 69.5117 103.295 60.8649 105.287Z" fill="#2C2C2C"/>
<path d="M72.5091 107.946C74.5963 107.946 77.8396 107.312 77.8396 105.232L77.3045 98.2827L76.8356 92.2058C76.8356 90.1185 75.1446 88.4342 73.0639 88.4342C72.0203 88.4342 71.0823 88.8569 70.3954 89.5372C69.715 90.2176 69.2857 91.1622 69.2857 92.2058L68.8233 98.2893L68.3807 104.122C67.7863 107.642 72.5091 107.946 72.5091 107.946Z" fill="#2C2C2C"/>
<path d="M84.7152 53.0221C81.5909 49.1778 77.2247 46.8593 71.6234 46.8593C58.9346 46.8593 46.5298 58.5574 46.5298 73.1485C46.5298 87.7397 56.8143 99.5698 69.5031 99.5698C70.7251 99.5698 71.9075 99.4642 73.0436 99.2528C73.1625 99.8935 73.2285 100.554 73.2285 101.228C73.2285 101.353 73.2219 101.472 73.2219 101.591C108.204 93.123 102.477 50.8622 84.7152 53.0221Z" fill="#2C2C2C"/>
<path d="M57.4345 87.8852C59.7875 87.8852 61.6949 85.9778 61.6949 83.6248C61.6949 81.2718 59.7875 79.3644 57.4345 79.3644C55.0815 79.3644 53.1741 81.2718 53.1741 83.6248C53.1741 85.9778 55.0815 87.8852 57.4345 87.8852Z" fill="white"/>
<path fill-rule="evenodd" clip-rule="evenodd" d="M57.4338 79.6291C55.2268 79.6291 53.4376 81.4182 53.4376 83.6253C53.4376 85.8323 55.2268 87.6215 57.4338 87.6215C59.6409 87.6215 61.43 85.8323 61.43 83.6253C61.43 81.4182 59.6409 79.6291 57.4338 79.6291ZM52.9092 83.6253C52.9092 81.1264 54.9349 79.1006 57.4338 79.1006C59.9327 79.1006 61.9585 81.1264 61.9585 83.6253C61.9585 86.1242 59.9327 88.1499 57.4338 88.1499C54.9349 88.1499 52.9092 86.1242 52.9092 83.6253Z" fill="#2C2C2C"/>
<path d="M87.4369 87.8852C89.7899 87.8852 91.6974 85.9778 91.6974 83.6248C91.6974 81.2718 89.7899 79.3644 87.4369 79.3644C85.084 79.3644 83.1765 81.2718 83.1765 83.6248C83.1765 85.9778 85.084 87.8852 87.4369 87.8852Z" fill="white"/>
<path fill-rule="evenodd" clip-rule="evenodd" d="M87.4366 79.6291C85.2296 79.6291 83.4404 81.4182 83.4404 83.6253C83.4404 85.8323 85.2296 87.6215 87.4366 87.6215C89.6437 87.6215 91.4329 85.8323 91.4329 83.6253C91.4329 81.4182 89.6437 79.6291 87.4366 79.6291ZM82.912 83.6253C82.912 81.1264 84.9377 79.1006 87.4366 79.1006C89.9355 79.1006 91.9613 81.1264 91.9613 83.6253C91.9613 86.1242 89.9355 88.1499 87.4366 88.1499C84.9377 88.1499 82.912 86.1242 82.912 83.6253Z" fill="#2C2C2C"/>
<path d="M72.8387 101.4C81.9843 101.4 89.3983 90.9043 89.3983 77.9575C89.3983 65.0106 81.9843 54.5152 72.8387 54.5152C63.6931 54.5152 56.2792 65.0106 56.2792 77.9575C56.2792 90.9043 63.6931 101.4 72.8387 101.4Z" fill="white"/>
<path fill-rule="evenodd" clip-rule="evenodd" d="M61.3451 61.5338C58.3835 65.7263 56.5433 71.5322 56.5433 77.9575C56.5433 84.3829 58.3835 90.1887 61.3451 94.3813C64.3072 98.5746 68.3747 101.136 72.8387 101.136C77.3027 101.136 81.3701 98.5746 84.3322 94.3813C87.2939 90.1887 89.134 84.3829 89.134 77.9575C89.134 71.5322 87.2939 65.7263 84.3322 61.5338C81.3701 57.3405 77.3027 54.7794 72.8387 54.7794C68.3747 54.7794 64.3072 57.3405 61.3451 61.5338ZM60.9135 61.2289C63.9448 56.9377 68.1571 54.251 72.8387 54.251C77.5202 54.251 81.7326 56.9377 84.7638 61.2289C87.7956 65.5207 89.6624 71.436 89.6624 77.9575C89.6624 84.479 87.7956 90.3943 84.7638 94.6862C81.7326 98.9774 77.5202 101.664 72.8387 101.664C68.1571 101.664 63.9448 98.9774 60.9135 94.6862C57.8817 90.3943 56.0149 84.479 56.0149 77.9575C56.0149 71.436 57.8817 65.5207 60.9135 61.2289Z" fill="#2C2C2C"/>
<path d="M53.8618 72.7589C53.8618 72.7589 67.9576 73.4459 72.654 64.9646C72.654 64.9646 82.8526 73.7893 92.5889 73.1024L91.6707 69.2052L87.8925 61.7544L85.6004 59.0066L80.904 54.0791L74.6025 51.4435L67.0394 52.474L56.9531 59.3501L55.6915 63.9342L53.8618 72.7589Z" fill="#2C2C2C"/>
<path d="M73.2481 87.1189C73.2547 87.1585 73.1688 87.2312 72.9773 87.2312C72.7923 87.2378 72.5083 87.1519 72.2573 86.9141C72.1318 86.7952 72.0195 86.6499 71.9336 86.465C71.9204 86.4385 71.9138 86.4121 71.9006 86.3857L71.8874 86.3461L71.8742 86.313L71.8544 86.2536C71.8478 86.2272 71.8412 86.1941 71.828 86.1677C71.8015 86.0686 71.7817 85.963 71.7751 85.8507C71.7355 85.4147 71.8213 84.9722 71.927 84.5494C72.3366 82.8585 72.8188 81.5308 72.9971 81.5704C73.1754 81.6167 72.9905 83.017 72.581 84.7079C72.4753 85.1241 72.396 85.5006 72.396 85.8176C72.396 85.8969 72.4026 85.9762 72.4092 86.0488L72.4158 86.0752V86.0885V86.0951V86.1017C72.4158 86.1017 72.4092 86.0819 72.4158 86.0885L72.429 86.1545L72.4356 86.1875L72.4422 86.2074L72.4555 86.247C72.4951 86.3725 72.5545 86.4914 72.6206 86.5839C72.7527 86.7754 72.9112 86.8943 73.0367 86.9604C73.149 87.0462 73.2415 87.0727 73.2481 87.1189Z" fill="#2C2C2C"/>
<path d="M54.9381 80.6456C54.7531 79.9124 54.6144 79.166 54.5021 78.413C54.3964 77.66 54.3238 76.907 54.2841 76.1474C54.2181 74.6281 54.2775 73.0957 54.4823 71.5831C54.6871 70.0639 55.0372 68.5645 55.5326 67.1113C55.559 67.0188 55.592 66.9263 55.625 66.8405L55.7241 66.5696L55.9223 66.028L56.1468 65.493L56.2591 65.2288C56.2988 65.1429 56.3318 65.0504 56.378 64.9645C56.7017 64.2644 57.0518 63.5708 57.4481 62.9103C58.2341 61.576 59.1523 60.321 60.2091 59.1783C61.2726 58.0422 62.4681 57.0249 63.776 56.1729C63.9345 56.0606 64.1063 55.9615 64.2714 55.8624C64.4365 55.7633 64.6083 55.6576 64.7734 55.5652L65.2952 55.2877L65.5528 55.149C65.6387 55.1028 65.7312 55.0632 65.817 55.0235L66.3521 54.7791C66.3983 54.7593 66.4379 54.7395 66.4842 54.7197L66.6229 54.6668L66.8937 54.5612L67.1645 54.4555C67.257 54.4224 67.3429 54.3828 67.442 54.3498L68.0034 54.1648C69.4962 53.6827 71.0683 53.4383 72.6403 53.4052C73.4264 53.3788 74.2124 53.4383 74.9918 53.5241C75.19 53.5505 75.3816 53.5836 75.5731 53.61L75.8637 53.6562C75.91 53.6628 75.9628 53.6694 76.0091 53.6827L76.1544 53.7157L76.729 53.8412C76.9206 53.8808 77.1122 53.9337 77.2971 53.9865C78.8097 54.4092 80.2695 55.0235 81.6038 55.8426L82.0992 56.153C82.185 56.2059 82.2643 56.2587 82.3436 56.3182L82.5814 56.4833L82.8191 56.6484C82.8984 56.7013 82.9777 56.7607 83.0569 56.8202L83.5193 57.1769L83.7505 57.3552L83.9751 57.5468L84.4176 57.9299C84.563 58.0554 84.7017 58.1941 84.8404 58.3328L85.0518 58.5376C85.1244 58.6036 85.1905 58.6697 85.2565 58.7423L85.6594 59.1651L85.8576 59.3764L86.0492 59.5944L86.4323 60.037C86.4983 60.1096 86.5578 60.1889 86.6172 60.2616L86.7956 60.4927C86.9144 60.6447 87.0333 60.7966 87.1522 60.9551L87.4891 61.4307C87.7203 61.7411 87.9185 62.078 88.1298 62.4017C88.9489 63.7161 89.616 65.1165 90.1445 66.5564C90.6729 68.003 91.0494 69.4958 91.2872 71.0084L91.3334 71.2924L91.3532 71.4312L91.3664 71.5765L91.4325 72.1445C91.4853 72.521 91.4985 72.9042 91.5316 73.2873C91.5778 74.0469 91.591 74.8131 91.5712 75.5727L91.5646 75.8567L91.5514 76.1408C91.5382 76.3323 91.5316 76.5173 91.5118 76.7088C91.4853 77.0853 91.4457 77.4684 91.3995 77.8449C91.3004 78.5979 91.1749 79.3443 91.0098 80.0841C91.1022 79.3311 91.1749 78.5847 91.2013 77.8317C91.2343 77.0787 91.2409 76.3257 91.2079 75.5793C91.1749 74.8329 91.122 74.0799 91.0296 73.3401C90.9767 72.9702 90.9371 72.6003 90.8644 72.2304L90.7654 71.6822L90.7389 71.5435L90.7059 71.4047L90.6465 71.1339C90.336 69.6741 89.8934 68.2474 89.332 66.8801L89.2263 66.6225L89.114 66.3715L88.8828 65.8629C88.8102 65.6911 88.7243 65.5326 88.6384 65.3675L88.3874 64.8721C88.3016 64.7069 88.2091 64.5484 88.1166 64.3899C88.0241 64.2314 87.9383 64.0662 87.8392 63.9077L87.5486 63.4387C87.4495 63.2802 87.357 63.1217 87.2513 62.9763C87.0399 62.6725 86.8418 62.3621 86.6172 62.0714L86.2869 61.6289C86.1747 61.4835 86.0558 61.3448 85.9369 61.1995L85.7585 60.9881C85.6991 60.9155 85.6396 60.8428 85.5802 60.7768L85.2103 60.3672L85.0253 60.1625L84.8338 59.9643L84.4441 59.5746C83.3938 58.5574 82.2247 57.6657 80.9631 56.9259C79.708 56.1861 78.354 55.6246 76.9536 55.2481C76.6035 55.1424 76.2469 55.083 75.8968 55.0037L75.7647 54.9773C75.7184 54.9707 75.6722 54.9641 75.6326 54.9575L75.3617 54.9178C75.1834 54.8914 75.0051 54.8584 74.8267 54.8386C74.1067 54.7659 73.3801 54.7131 72.6602 54.7329C71.2136 54.7593 69.767 54.9773 68.3865 55.4199L67.8713 55.585C67.7854 55.6114 67.6996 55.6444 67.6137 55.6775L67.3627 55.7765L67.1117 55.8756L66.9862 55.9219C66.9466 55.9351 66.9003 55.9615 66.8607 55.9747L66.3653 56.1993C66.286 56.2389 66.2002 56.2719 66.1143 56.3116L65.8699 56.4371L65.3877 56.6881C65.2292 56.7806 65.0706 56.873 64.9121 56.9589C64.7536 57.0514 64.5951 57.1372 64.4431 57.2429C63.2079 58.0224 62.0718 58.9537 61.0414 59.9973L60.6649 60.4003L60.4799 60.605C60.4469 60.6381 60.4139 60.6711 60.3875 60.7041L60.3016 60.8098L59.9449 61.2325C59.8855 61.3052 59.826 61.3713 59.7666 61.4439L59.5948 61.6619L59.258 62.0978C59.1985 62.1705 59.1523 62.2432 59.0928 62.3224L58.9343 62.547C58.8286 62.6989 58.7229 62.8442 58.6172 63.0028L58.32 63.4717C57.534 64.7202 56.8602 66.0478 56.3318 67.4283C55.7968 68.8088 55.3872 70.2488 55.1098 71.7152L55.0041 72.2634C54.9711 72.4484 54.9513 72.6333 54.9183 72.8183L54.839 73.3731C54.8192 73.5581 54.7994 73.743 54.7795 73.928L54.7201 74.4894L54.6871 75.0509L54.654 75.6123C54.6474 75.7973 54.6408 75.9888 54.6342 76.1738C54.621 76.9268 54.6342 77.6732 54.6871 78.4262C54.7465 79.1462 54.8324 79.8926 54.9381 80.6456Z" fill="#50BFD7"/>
<path d="M68.5319 79.199C68.5319 81.0815 66.9004 82.6073 64.8923 82.6073C62.8777 82.6073 61.2528 81.0815 61.2528 79.199C61.2528 77.3164 62.8843 75.7906 64.8923 75.7906C66.9004 75.7906 68.5319 77.3164 68.5319 79.199Z" fill="white"/>
<path fill-rule="evenodd" clip-rule="evenodd" d="M64.8923 76.054C63.0135 76.054 61.517 77.4777 61.517 79.1982C61.517 80.9189 63.0072 82.3423 64.8923 82.3423C66.7711 82.3423 68.2676 80.9186 68.2676 79.1982C68.2676 77.4777 66.7711 76.054 64.8923 76.054ZM60.9885 79.1982C60.9885 77.1536 62.755 75.5256 64.8923 75.5256C67.0295 75.5256 68.796 77.1536 68.796 79.1982C68.796 81.2428 67.0295 82.8707 64.8923 82.8707C62.7481 82.8707 60.9885 81.2425 60.9885 79.1982Z" fill="#2C2C2C"/>
<path d="M63.1101 78.9876C63.1101 80.5399 64.1207 81.8015 65.3625 81.8015C66.6043 81.8015 67.6149 80.5399 67.6149 78.9876C67.6149 77.4354 66.6043 76.1738 65.3625 76.1738C64.1141 76.1672 63.1101 77.4288 63.1101 78.9876Z" fill="#50BFD7"/>
<path d="M63.7566 78.9876C63.7566 80.0907 64.47 80.9824 65.3551 80.9824C66.2402 80.9824 66.9536 80.0907 66.9536 78.9876C66.9536 77.8845 66.2402 76.9862 65.3551 76.9862C64.4766 76.9862 63.7566 77.8779 63.7566 78.9876Z" fill="#2C2C2C"/>
<path d="M63.6576 77.0921C63.6576 77.3959 64.0275 77.6337 64.4833 77.6337C64.939 77.6337 65.3089 77.3893 65.3089 77.0921C65.3089 76.7882 64.939 76.5505 64.4833 76.5505C64.0275 76.5438 63.6576 76.7882 63.6576 77.0921Z" fill="white"/>
<path d="M65.13 75.2953C62.8776 75.0707 61.147 77.1051 61.147 79.2056C61.147 79.4236 61.4178 79.4632 61.5301 79.3113C62.4482 78.0497 62.7455 76.8079 64.4232 76.3257C66.9002 75.6123 68.2609 78.1554 68.3996 80.1502C68.4194 80.3417 68.5846 80.17 68.6044 79.9718C68.829 77.5873 67.64 75.5463 65.13 75.2953Z" fill="#2C2C2C"/>
<path d="M69.5762 73.9871C69.5762 73.9871 64.6618 69.086 59.3776 74.9052C59.371 74.9052 63.9419 71.9791 69.5762 73.9871Z" fill="#2C2C2C"/>
<path d="M84.3651 79.199C84.3651 81.0815 82.7336 82.6073 80.7256 82.6073C78.711 82.6073 77.0861 81.0815 77.0861 79.199C77.0861 77.3164 78.7176 75.7906 80.7256 75.7906C82.7336 75.7906 84.3651 77.3164 84.3651 79.199Z" fill="white"/>
<path fill-rule="evenodd" clip-rule="evenodd" d="M80.7252 76.054C78.8464 76.054 77.3498 77.4777 77.3498 79.1982C77.3498 80.9189 78.8401 82.3423 80.7252 82.3423C82.604 82.3423 84.1005 80.9186 84.1005 79.1982C84.1005 77.4777 82.604 76.054 80.7252 76.054ZM76.8214 79.1982C76.8214 77.1536 78.5879 75.5256 80.7252 75.5256C82.8624 75.5256 84.6289 77.1536 84.6289 79.1982C84.6289 81.2428 82.8624 82.8707 80.7252 82.8707C78.581 82.8707 76.8214 81.2425 76.8214 79.1982Z" fill="#2C2C2C"/>
<path d="M78.9425 78.9876C78.9425 80.5399 79.9531 81.8015 81.1949 81.8015C82.4367 81.8015 83.4473 80.5399 83.4473 78.9876C83.4473 77.4354 82.4367 76.1738 81.1949 76.1738C79.9531 76.1672 78.9425 77.4288 78.9425 78.9876Z" fill="#50BFD7"/>
<path d="M79.5956 78.9876C79.5956 80.0907 80.309 80.9824 81.1941 80.9824C82.0792 80.9824 82.7926 80.0907 82.7926 78.9876C82.7926 77.8845 82.0792 76.9862 81.1941 76.9862C80.309 76.9862 79.5956 77.8779 79.5956 78.9876Z" fill="#2C2C2C"/>
<path d="M79.4904 77.0921C79.4904 77.3959 79.8603 77.6337 80.316 77.6337C80.7718 77.6337 81.1417 77.3893 81.1417 77.0921C81.1417 76.7882 80.7718 76.5505 80.316 76.5505C79.8669 76.5438 79.4904 76.7882 79.4904 77.0921Z" fill="white"/>
<path d="M80.964 75.2953C78.7116 75.0707 76.981 77.1051 76.981 79.2056C76.981 79.4236 77.2518 79.4632 77.3641 79.3113C78.2822 78.0497 78.5794 76.8079 80.2572 76.3257C82.7342 75.6123 84.0949 78.1554 84.2336 80.1502C84.2534 80.3417 84.4186 80.17 84.4384 79.9718C84.663 77.5873 83.4806 75.5463 80.964 75.2953Z" fill="#2C2C2C"/>
<path d="M85.4087 73.4523C85.4087 73.4523 80.4943 68.5511 75.2101 74.3704C75.2101 74.3704 79.781 71.4442 85.4087 73.4523Z" fill="#2C2C2C"/>
<path d="M77.7991 152.01C77.7991 152.175 77.9444 152.367 78.1161 152.347C80.0647 152.142 81.5575 150.636 83.4797 150.953C81.5509 151.911 79.8798 153.575 80.1175 156.026C80.144 156.33 80.4346 156.449 80.6592 156.264C82.0397 155.088 83.625 154.038 85.4745 154.427C86.2671 154.593 87.1985 154.903 88.0175 154.797C89.2395 154.645 90.2699 154.091 90.8776 152.908C91.9477 150.861 91.5514 148.403 89.1536 147.895C89.0942 147.882 89.0479 147.888 88.9951 147.908C88.11 147.558 87.3041 147.115 86.5908 146.343C85.9038 145.59 85.2631 144.757 84.5167 144.064C83.5193 143.132 82.436 142.399 81.1149 143.027C80.9168 143.119 80.93 143.403 81.0555 143.555C81.6368 144.275 82.3171 144.962 83.0305 145.623C82.3171 145.457 81.5971 145.372 80.8573 145.431C79.5363 145.543 77.9774 146.422 78.0104 147.994C78.017 148.192 78.1558 148.311 78.3275 148.331C79.5429 148.456 80.7649 148.436 81.9736 148.562C80.0911 149.117 77.7793 149.751 77.7991 152.01Z" fill="white"/>
<path fill-rule="evenodd" clip-rule="evenodd" d="M83.0341 142.714C83.643 142.954 84.193 143.399 84.6967 143.87C85.2016 144.339 85.6677 144.88 86.12 145.405C86.3442 145.665 86.565 145.922 86.7854 146.163C87.4415 146.874 88.1816 147.294 89.0126 147.63C89.0728 147.62 89.1375 147.62 89.2095 147.636C90.5033 147.911 91.2784 148.723 91.5702 149.752C91.8576 150.764 91.6706 151.96 91.1121 153.029C90.4561 154.305 89.3386 154.898 88.0508 155.059C87.5994 155.117 87.129 155.059 86.6852 154.973C86.4621 154.929 86.241 154.877 86.0294 154.826C86.007 154.821 85.9847 154.815 85.9625 154.81C85.7736 154.765 85.5935 154.721 85.4205 154.685L85.4199 154.685C83.7054 154.324 82.2099 155.289 80.8304 156.464L80.8288 156.466L80.8271 156.467C80.6473 156.615 80.4148 156.658 80.2099 156.57C80.0051 156.482 79.8753 156.285 79.8544 156.05C79.6392 153.827 80.9045 152.232 82.5008 151.204C81.9696 151.276 81.4523 151.468 80.9107 151.697C80.7902 151.748 80.6682 151.801 80.5446 151.854C79.8114 152.173 79.0208 152.516 78.1448 152.609C77.9473 152.631 77.7893 152.53 77.6943 152.421C77.5998 152.313 77.5352 152.164 77.5348 152.011C77.5242 150.766 78.1666 149.967 79.0322 149.423C79.4887 149.135 80.0147 148.914 80.5481 148.728C80.4131 148.721 80.2775 148.715 80.1415 148.71L80.136 148.709C79.5305 148.683 78.9152 148.656 78.3003 148.593L78.2987 148.593L78.2971 148.592C78.0147 148.56 77.7579 148.349 77.7463 148.002L77.7463 148L77.7462 147.999C77.7276 147.112 78.1616 146.426 78.7634 145.956C79.36 145.49 80.1306 145.227 80.8349 145.167L80.8355 145.167L80.8361 145.167C81.3028 145.129 81.7601 145.147 82.21 145.205C81.7251 144.727 81.264 144.233 80.8507 143.721C80.7444 143.592 80.6906 143.417 80.7 143.253C80.7097 143.082 80.793 142.885 81.0022 142.787C81.7345 142.439 82.412 142.469 83.0341 142.714ZM81.2308 143.263C81.2297 143.267 81.2281 143.273 81.2276 143.283C81.2266 143.299 81.229 143.32 81.2356 143.34C81.2423 143.361 81.2515 143.377 81.2591 143.386L81.2601 143.387L81.261 143.388C81.8312 144.095 82.5014 144.772 83.2099 145.428L83.9395 146.103L82.9708 145.879C82.2759 145.718 81.5843 145.637 80.879 145.694C80.2625 145.746 79.5934 145.978 79.0887 146.373C78.5895 146.762 78.2607 147.301 78.2745 147.986C78.2759 148.02 78.2868 148.035 78.2938 148.042C78.303 148.051 78.3224 148.063 78.3565 148.067C78.9544 148.129 79.5553 148.155 80.1644 148.182L80.1666 148.182C80.7731 148.208 81.388 148.235 82.0009 148.298L83.3312 148.437L82.0483 148.815C82.0154 148.824 81.9824 148.834 81.9494 148.844C81.0261 149.116 80.0602 149.4 79.3136 149.87C78.5578 150.345 78.0543 150.993 78.0632 152.007L78.0632 152.008V152.009C78.0632 152.013 78.0642 152.022 78.0698 152.036C78.0753 152.05 78.0833 152.063 78.092 152.073C78.0955 152.077 78.0986 152.08 78.101 152.082C78.8848 151.997 79.589 151.692 80.3218 151.375C80.4484 151.32 80.5759 151.265 80.7048 151.21C81.5663 150.846 82.4813 150.52 83.5226 150.692L84.3303 150.825L83.5971 151.189C81.7099 152.126 80.1583 153.71 80.3805 156L80.3806 156.001L80.3807 156.002C80.3838 156.038 80.3936 156.058 80.4006 156.069C80.4075 156.079 80.414 156.083 80.4181 156.085C80.4222 156.086 80.4287 156.088 80.439 156.086C80.4491 156.084 80.4669 156.079 80.4898 156.06C81.871 154.884 83.5452 153.75 85.5286 154.168C85.7098 154.206 85.8979 154.251 86.0854 154.296C86.1078 154.301 86.1302 154.307 86.1525 154.312C86.3641 154.363 86.5756 154.413 86.7868 154.454C87.2114 154.537 87.6161 154.582 87.9836 154.535L87.9842 154.535L87.9849 154.534C89.1404 154.391 90.0833 153.875 90.6426 152.787L90.643 152.786L90.6434 152.785C91.1546 151.807 91.3044 150.751 91.0618 149.896C90.8236 149.056 90.202 148.387 89.0987 148.153L89.0975 148.152L89.0963 148.152C89.0961 148.152 89.096 148.152 89.0958 148.152C89.0941 148.152 89.0914 148.153 89.0878 148.155L88.9925 148.19L88.8979 148.153C87.9913 147.794 87.1462 147.333 86.3966 146.521L86.396 146.52L86.3955 146.52C86.1527 146.254 85.9211 145.985 85.692 145.718C85.2523 145.208 84.8214 144.707 84.3368 144.257L84.3363 144.256C83.8426 143.795 83.3524 143.408 82.8401 143.206C82.342 143.009 81.8183 142.985 81.2308 143.263Z" fill="#2C2C2C"/>
<path fill-rule="evenodd" clip-rule="evenodd" d="M55.9491 76.7151V76.8472H55.4207V76.7151H55.9491Z" fill="#2C2C2C"/>
<path fill-rule="evenodd" clip-rule="evenodd" d="M58.7229 78.1688V78.3009H58.1945V78.1688H58.7229Z" fill="#2C2C2C"/>
<path d="M73.7507 77.3897C74.6556 77.5813 74.3188 78.1692 74.3188 78.255C74.3188 78.3409 74.6556 83.2288 79.0217 84.5169C83.3879 85.8049 86.0036 83.2751 86.7632 82.0068C87.5228 80.7386 88.1569 77.7266 88.3419 77.4954C88.5334 77.2642 89.4383 76.8613 89.4383 76.8613L89.544 75.6789L88.4079 75.3421C88.4079 75.3421 85.5412 74.0342 81.3204 73.9748C77.1062 73.9087 74.7217 76.3395 74.7217 76.3395C73.5327 75.963 72.0597 75.9101 70.7122 76.3395C70.7122 76.3395 68.3277 73.9153 64.1135 73.9748C59.8993 74.0408 57.026 75.3421 57.026 75.3421L55.8899 75.6789L55.9956 76.8613C55.9956 76.8613 56.9005 77.2642 57.0921 77.4954C57.2836 77.7266 57.9111 80.7452 58.6707 82.0068C59.4303 83.2751 62.0461 85.8049 66.4122 84.5169C70.7783 83.2288 71.1152 78.3409 71.1152 78.255C71.1152 78.1692 70.7783 77.5813 71.6832 77.3897C72.4693 77.2246 72.9647 77.2246 73.7507 77.3897ZM84.2267 83.5063C80.8977 85.5077 76.908 83.4864 75.7059 80.8509C74.5037 78.2154 75.5143 76.8217 75.5143 76.8217C77.5289 73.5454 85.6337 73.4067 87.0274 76.9472C87.2652 77.5416 87.5624 81.5048 84.2267 83.5063ZM58.3999 76.9472C59.7936 73.4001 67.905 73.5454 69.913 76.8217C69.913 76.8217 70.9236 78.2154 69.7214 80.8509C68.5193 83.4864 64.5363 85.5077 61.2006 83.5063C57.8715 81.5048 58.1687 77.5416 58.3999 76.9472Z" fill="#2C2C2C"/>
<path d="M75.7913 112.859H70.7184C69.3709 112.859 68.2744 113.956 68.2744 115.303V120.376C68.2744 121.724 69.3709 122.82 70.7184 122.82H75.7913C77.1388 122.82 78.2353 121.724 78.2353 120.376V115.303C78.2353 113.956 77.1454 112.859 75.7913 112.859ZM66.9269 110.7C66.1541 110.7 65.5266 111.327 65.5266 112.1C65.5266 112.873 66.1541 113.5 66.9269 113.5C67.6998 113.5 68.3273 112.873 68.3273 112.1C68.3273 111.327 67.6998 110.7 66.9269 110.7Z" fill="white"/>
<path d="M75.4346 115.885C75.111 115.019 74.2853 114.445 73.3605 114.445H71.9866L74.7014 121.328H77.6144L75.4346 115.885ZM69.8861 119.353L69.0935 121.328H71.9866L73.3341 117.913H71.9602C71.0355 117.913 70.2098 118.487 69.8861 119.353ZM70.3353 116.156C70.8109 116.156 71.2006 115.766 71.2006 115.29C71.2006 114.815 70.8109 114.425 70.3353 114.425C69.8597 114.425 69.47 114.815 69.47 115.29C69.47 115.766 69.8597 116.156 70.3353 116.156Z" fill="#50BFD7"/>
<path d="M86.6036 137.724C82.0374 137.306 77.5281 137.136 77.5281 137.136C75.8711 137.186 72.3422 137.332 68.6993 137.724C69.7618 141.354 73.3667 144.029 77.6483 144.029C81.9362 144.036 85.5411 141.348 86.6036 137.724Z" fill="#50BFD7"/>
<path d="M81.3937 144.32C81.3937 144.478 81.5328 144.661 81.6972 144.642C83.5629 144.446 84.9922 143.004 86.8326 143.308C84.9859 144.225 83.3858 145.819 83.6135 148.165C83.6388 148.456 83.9171 148.57 84.1321 148.393C85.4539 147.267 86.9717 146.261 88.7426 146.635C89.5015 146.793 90.3932 147.09 91.1774 146.989C92.3474 146.843 93.334 146.312 93.9159 145.18C94.9404 143.219 94.561 140.867 92.2652 140.38C92.2083 140.367 92.164 140.373 92.1134 140.392C91.266 140.057 90.4944 139.634 89.8114 138.894C89.1536 138.173 88.5402 137.376 87.8255 136.712C86.8706 135.82 85.8334 135.118 84.5685 135.719C84.3788 135.807 84.3914 136.079 84.5116 136.225C85.0681 136.914 85.7195 137.572 86.4026 138.204C85.7195 138.046 85.0302 137.964 84.3218 138.021C83.057 138.128 81.5644 138.969 81.5961 140.475C81.6024 140.664 81.7352 140.778 81.8996 140.797C83.0633 140.917 84.2333 140.898 85.3907 141.019C83.5882 141.55 81.3747 142.157 81.3937 144.32Z" fill="#C4C4C4"/>
<path fill-rule="evenodd" clip-rule="evenodd" d="M86.4048 135.42C86.9877 135.65 87.5144 136.076 87.9966 136.526C88.4801 136.976 88.9264 137.494 89.3594 137.996C89.574 138.246 89.7854 138.491 89.9965 138.722C90.6247 139.403 91.3333 139.805 92.1289 140.127C92.1866 140.117 92.2485 140.117 92.3175 140.132C93.5563 140.396 94.2984 141.174 94.5777 142.158C94.8529 143.128 94.6739 144.273 94.1392 145.296C93.511 146.518 92.4411 147.086 91.2081 147.24C90.7758 147.295 90.3255 147.24 89.9006 147.157C89.687 147.115 89.4753 147.065 89.2727 147.017C89.2512 147.012 89.2298 147.006 89.2086 147.001C89.0277 146.958 88.8553 146.917 88.6897 146.882L88.6891 146.882C87.0475 146.536 85.6156 147.46 84.2948 148.585L84.2933 148.587L84.2916 148.588C84.1195 148.73 83.8969 148.771 83.7007 148.687C83.5046 148.603 83.3803 148.413 83.3603 148.188C83.1543 146.06 84.3658 144.533 85.8942 143.548C85.3856 143.618 84.8902 143.801 84.3717 144.021C84.2563 144.069 84.1395 144.12 84.0212 144.172C83.3192 144.477 82.5622 144.805 81.7235 144.894C81.5344 144.915 81.383 144.818 81.2921 144.714C81.2016 144.611 81.1398 144.468 81.1394 144.321C81.1293 143.13 81.7444 142.365 82.5731 141.843C83.0102 141.568 83.5138 141.356 84.0246 141.178C83.8952 141.172 83.7655 141.166 83.6352 141.16L83.6299 141.16C83.0503 141.135 82.4611 141.109 81.8723 141.049L81.8708 141.049L81.8693 141.048C81.5989 141.017 81.353 140.816 81.3419 140.483L81.3419 140.481L81.3418 140.48C81.324 139.631 81.7396 138.974 82.3157 138.524C82.8869 138.078 83.6248 137.826 84.2991 137.769L84.2997 137.769L84.3003 137.768C84.7471 137.733 85.185 137.75 85.6157 137.805C85.1514 137.347 84.71 136.875 84.3142 136.384C84.2125 136.261 84.161 136.093 84.17 135.936C84.1793 135.773 84.259 135.584 84.4593 135.49C85.1605 135.157 85.8091 135.185 86.4048 135.42ZM84.6782 135.946C84.6771 135.949 84.6756 135.955 84.6751 135.965C84.6742 135.98 84.6764 136 84.6828 136.02C84.6892 136.04 84.698 136.055 84.7053 136.063L84.7062 136.065L84.7071 136.066C85.253 136.742 85.8948 137.39 86.5731 138.018L87.2716 138.665L86.3442 138.451C85.6789 138.297 85.0167 138.219 84.3414 138.273C83.751 138.323 83.1104 138.545 82.6272 138.923C82.1492 139.296 81.8345 139.812 81.8476 140.467C81.849 140.501 81.8595 140.514 81.8661 140.521C81.875 140.53 81.8935 140.542 81.9261 140.546C82.4986 140.605 83.0739 140.63 83.6572 140.655L83.6592 140.655C84.2399 140.68 84.8287 140.706 85.4155 140.767L86.6892 140.899L85.4609 141.261C85.4294 141.27 85.3979 141.28 85.3663 141.289C84.4822 141.549 83.5574 141.821 82.8426 142.271C82.1189 142.727 81.6368 143.347 81.6453 144.317L81.6454 144.319V144.32C81.6454 144.323 81.6463 144.332 81.6516 144.346C81.6569 144.359 81.6646 144.371 81.6729 144.381C81.6763 144.385 81.6792 144.387 81.6815 144.389C82.432 144.308 83.1063 144.016 83.8078 143.712C83.9291 143.66 84.0512 143.607 84.1746 143.555C84.9994 143.206 85.8755 142.894 86.8725 143.058L87.6459 143.186L86.9438 143.534C85.1369 144.432 83.6513 145.948 83.864 148.14L83.8641 148.142L83.8642 148.143C83.8672 148.177 83.8766 148.197 83.8833 148.206C83.8899 148.216 83.8961 148.22 83.9 148.222C83.904 148.223 83.9102 148.225 83.9201 148.223C83.9297 148.222 83.9468 148.216 83.9687 148.198C85.2911 147.072 86.8942 145.987 88.7931 146.387C88.9667 146.423 89.1467 146.466 89.3263 146.509C89.3477 146.514 89.3691 146.52 89.3905 146.525C89.5931 146.573 89.7956 146.621 89.9978 146.66C90.4044 146.74 90.7919 146.783 91.1438 146.738L91.1443 146.738L91.1449 146.738C92.2513 146.6 93.1541 146.106 93.6896 145.064L93.69 145.063L93.6904 145.063C94.1799 144.126 94.3233 143.115 94.091 142.296C93.8629 141.493 93.2677 140.851 92.2114 140.627L92.2102 140.627L92.209 140.627C92.2089 140.627 92.2088 140.627 92.2087 140.626C92.2069 140.627 92.2044 140.628 92.201 140.629L92.1097 140.663L92.0191 140.628C91.1511 140.284 90.3419 139.843 89.6242 139.065L89.6237 139.064L89.6232 139.064C89.3907 138.809 89.169 138.551 88.9496 138.297C88.5286 137.807 88.1161 137.328 87.652 136.897L87.6516 136.896C87.1789 136.455 86.7096 136.084 86.219 135.891C85.7421 135.702 85.2407 135.68 84.6782 135.946Z" fill="#2C2C2C"/>
<path d="M46.6805 125.894H101.388C102.042 125.894 102.67 126.154 103.133 126.617C103.595 127.079 103.855 127.707 103.855 128.362V159.096H44.2126V128.362C44.2126 127.707 44.4727 127.079 44.9355 126.617C45.3983 126.154 46.026 125.894 46.6805 125.894Z" fill="white"/>
<path fill-rule="evenodd" clip-rule="evenodd" d="M46.6807 126.208C46.1096 126.208 45.5619 126.435 45.1581 126.839C44.7543 127.243 44.5274 127.79 44.5274 128.361V158.781H103.541V128.361C103.541 127.79 103.314 127.243 102.91 126.839C102.507 126.435 101.959 126.208 101.388 126.208H46.6807ZM44.7133 126.394C45.2351 125.872 45.9428 125.579 46.6807 125.579H101.388C102.126 125.579 102.833 125.872 103.355 126.394C103.877 126.916 104.17 127.623 104.17 128.361V159.096C104.17 159.269 104.029 159.41 103.856 159.41H44.2129C44.0391 159.41 43.8983 159.269 43.8983 159.096V128.361C43.8983 127.623 44.1915 126.916 44.7133 126.394Z" fill="#2C2C2C"/>
<path d="M103.855 136.939C96.363 138.839 88.6732 143.676 74.3449 150.487C60.5251 157.062 49.2125 156.948 44.2126 156.44V159.095H103.855V136.939Z" fill="#2C2C2C"/>
<path fill-rule="evenodd" clip-rule="evenodd" d="M104.049 136.691C104.125 136.75 104.17 136.842 104.17 136.939V159.095C104.17 159.269 104.029 159.41 103.856 159.41H44.2129C44.0391 159.41 43.8983 159.269 43.8983 159.095V156.44C43.8983 156.351 43.936 156.266 44.002 156.207C44.068 156.147 44.1562 156.118 44.2447 156.127C49.2016 156.631 60.4538 156.748 74.21 150.203L74.2101 150.203C78.9293 147.96 82.9223 145.934 86.4305 144.154C88.2473 143.232 89.9341 142.376 91.5245 141.59C96.177 139.29 99.9977 137.593 103.778 136.634C103.872 136.61 103.972 136.631 104.049 136.691ZM74.4802 150.772C60.906 157.229 49.7317 157.267 44.5274 156.786V158.781H103.541V137.346C99.9548 138.304 96.2873 139.937 91.8032 142.154C90.2235 142.934 88.5418 143.788 86.7277 144.708C83.2146 146.491 79.2054 148.525 74.4802 150.772Z" fill="#2C2C2C"/>
<path d="M75.0125 92.4843C75.0125 93.479 73.9793 94.2855 72.7047 94.2855C71.4302 94.2855 70.397 93.479 70.397 92.4843C70.397 91.4895 71.4302 90.6831 72.7047 90.6831C73.9793 90.6831 75.0125 91.4895 75.0125 92.4843Z" fill="white"/>
<path fill-rule="evenodd" clip-rule="evenodd" d="M72.7163 94.0629C74.1006 94.0629 74.9796 93.2072 74.9796 92.4169C74.9796 91.6267 74.1006 90.7709 72.7163 90.7709C71.332 90.7709 70.4531 91.6267 70.4531 92.4169C70.4531 93.2072 71.332 94.0629 72.7163 94.0629ZM72.7163 94.6116C74.2693 94.6116 75.5282 93.629 75.5282 92.4169C75.5282 91.2048 74.2693 90.2223 72.7163 90.2223C71.1634 90.2223 69.9044 91.2048 69.9044 92.4169C69.9044 93.629 71.1634 94.6116 72.7163 94.6116Z" fill="#454545"/>
<path d="M103.351 156.894H44.4915V158.698H103.351V156.894Z" fill="white"/>
<path d="M46.6391 71.4786C45.5922 75.7972 47.9478 91.5012 51.8084 97.4425C51.8084 97.4425 62.9974 104.706 97.9453 100.583C97.9453 100.583 92.2919 98.7774 97.5854 78.0678C97.6967 77.6228 97.8145 77.1779 97.9388 76.7133C98.6586 74.0305 93.3912 69.4306 92.4424 67.8144C85.6046 56.2131 46.6391 71.4786 46.6391 71.4786Z" fill="#2C2C2C"/>
<path d="M84.3351 53.7266C81.2401 49.9184 76.915 47.6217 71.3663 47.6217C58.7965 47.6217 46.5082 59.2099 46.5082 73.6641C46.5082 88.1183 56.6961 99.8374 69.2659 99.8374C70.4764 99.8374 71.6476 99.7327 72.7731 99.5233C72.8909 100.158 72.9563 100.812 72.9563 101.48C72.9563 101.604 72.9498 101.722 72.9498 101.84C107.603 93.4511 101.93 51.5869 84.3351 53.7266Z" fill="#2C2C2C"/>
<path d="M57.3113 88.2622C59.6422 88.2622 61.5317 86.3727 61.5317 84.0418C61.5317 81.7109 59.6422 79.8213 57.3113 79.8213C54.9804 79.8213 53.0908 81.7109 53.0908 84.0418C53.0908 86.3727 54.9804 88.2622 57.3113 88.2622Z" fill="#E0E0E0"/>
<path fill-rule="evenodd" clip-rule="evenodd" d="M57.3113 80.0831C55.1249 80.0831 53.3526 81.8555 53.3526 84.0418C53.3526 86.2281 55.1249 88.0005 57.3113 88.0005C59.4976 88.0005 61.27 86.2281 61.27 84.0418C61.27 81.8555 59.4976 80.0831 57.3113 80.0831ZM52.8291 84.0418C52.8291 81.5664 54.8358 79.5596 57.3113 79.5596C59.7867 79.5596 61.7935 81.5664 61.7935 84.0418C61.7935 86.5172 59.7867 88.524 57.3113 88.524C54.8358 88.524 52.8291 86.5172 52.8291 84.0418Z" fill="#2C2C2C"/>
<path d="M87.031 88.2622C89.3619 88.2622 91.2514 86.3727 91.2514 84.0418C91.2514 81.7109 89.3619 79.8213 87.031 79.8213C84.7001 79.8213 82.8105 81.7109 82.8105 84.0418C82.8105 86.3727 84.7001 88.2622 87.031 88.2622Z" fill="#E0E0E0"/>
<path fill-rule="evenodd" clip-rule="evenodd" d="M87.031 80.0831C84.8447 80.0831 83.0723 81.8555 83.0723 84.0418C83.0723 86.2281 84.8447 88.0005 87.031 88.0005C89.2173 88.0005 90.9897 86.2281 90.9897 84.0418C90.9897 81.8555 89.2173 80.0831 87.031 80.0831ZM82.5488 84.0418C82.5488 81.5664 84.5556 79.5596 87.031 79.5596C89.5064 79.5596 91.5132 81.5664 91.5132 84.0418C91.5132 86.5172 89.5064 88.524 87.031 88.524C84.5556 88.524 82.5488 86.5172 82.5488 84.0418Z" fill="#2C2C2C"/>
<path d="M72.5703 101.65C81.63 101.65 88.9744 91.2529 88.9744 78.4276C88.9744 65.6023 81.63 55.2054 72.5703 55.2054C63.5105 55.2054 56.1661 65.6023 56.1661 78.4276C56.1661 91.2529 63.5105 101.65 72.5703 101.65Z" fill="#E0E0E0"/>
<path fill-rule="evenodd" clip-rule="evenodd" d="M61.1846 62.158C58.2508 66.3113 56.4279 72.0626 56.4279 78.4276C56.4279 84.7926 58.2508 90.544 61.1846 94.6972C64.1189 98.8511 68.1482 101.388 72.5703 101.388C76.9924 101.388 81.0216 98.8511 83.9559 94.6972C86.8898 90.544 88.7126 84.7926 88.7126 78.4276C88.7126 72.0626 86.8898 66.3113 83.9559 62.158C81.0216 58.0041 76.9924 55.4671 72.5703 55.4671C68.1482 55.4671 64.1189 58.0041 61.1846 62.158ZM60.757 61.856C63.7598 57.6051 67.9326 54.9436 72.5703 54.9436C77.2079 54.9436 81.3807 57.6051 84.3835 61.856C87.3868 66.1076 89.2361 71.9673 89.2361 78.4276C89.2361 84.8879 87.3868 90.7477 84.3835 94.9992C81.3807 99.2501 77.2079 101.912 72.5703 101.912C67.9326 101.912 63.7598 99.2501 60.757 94.9992C57.7537 90.7477 55.9044 84.8879 55.9044 78.4276C55.9044 71.9673 57.7537 66.1076 60.757 61.856Z" fill="#2C2C2C"/>
<path d="M53.7714 73.2781C53.7714 73.2781 67.7348 73.9586 72.3871 65.557C72.3871 65.557 82.49 74.2989 92.1349 73.6184L91.2253 69.7578L87.4826 62.3769L85.212 59.6549L80.5597 54.7736L74.3174 52.1628L66.8253 53.1836L56.8336 59.9952L55.5839 64.5362L53.7714 73.2781Z" fill="#2C2C2C"/>
<path d="M72.9759 87.5031C72.9824 87.5424 72.8974 87.6144 72.7076 87.6144C72.5244 87.6209 72.243 87.5359 71.9944 87.3003C71.8701 87.1825 71.7588 87.0386 71.6738 86.8553C71.6607 86.8292 71.6541 86.803 71.641 86.7768L71.628 86.7376L71.6149 86.7049L71.5952 86.646C71.5887 86.6198 71.5821 86.5871 71.5691 86.5609C71.5429 86.4627 71.5233 86.3581 71.5167 86.2468C71.4775 85.815 71.5625 85.3766 71.6672 84.9578C72.0729 83.2827 72.5506 81.9675 72.7272 82.0067C72.9039 82.0525 72.7207 83.4397 72.315 85.1148C72.2103 85.5271 72.1318 85.9 72.1318 86.2141C72.1318 86.2926 72.1383 86.3711 72.1449 86.4431L72.1514 86.4693V86.4824V86.4889V86.4955C72.1514 86.4955 72.1449 86.4758 72.1514 86.4824L72.1645 86.5478L72.171 86.5805L72.1776 86.6002L72.1907 86.6394C72.2299 86.7637 72.2888 86.8815 72.3543 86.9731C72.4851 87.1629 72.6422 87.2807 72.7665 87.3461C72.8777 87.4312 72.9693 87.4573 72.9759 87.5031Z" fill="#2C2C2C"/>
<path d="M54.8378 81.0908C54.6546 80.3645 54.5172 79.6251 54.406 78.8791C54.3013 78.1332 54.2293 77.3872 54.19 76.6348C54.1246 75.1298 54.1835 73.6117 54.3863 72.1133C54.5892 70.6084 54.936 69.123 55.4267 67.6835C55.4529 67.5919 55.4856 67.5003 55.5183 67.4152L55.6165 67.1469L55.8128 66.6104L56.0353 66.0804L56.1465 65.8186C56.1857 65.7336 56.2185 65.642 56.2643 65.5569C56.5849 64.8633 56.9317 64.1763 57.3243 63.5219C58.1029 62.2002 59.0125 60.957 60.0594 59.825C61.1129 58.6995 62.2972 57.6918 63.5928 56.8477C63.7498 56.7365 63.92 56.6384 64.0835 56.5402C64.2471 56.4421 64.4172 56.3374 64.5808 56.2458L65.0978 55.9709L65.3529 55.8335C65.438 55.7877 65.5296 55.7485 65.6147 55.7092L66.1447 55.4671C66.1905 55.4475 66.2297 55.4278 66.2756 55.4082L66.413 55.3559L66.6812 55.2512L66.9495 55.1465C67.0411 55.1138 67.1262 55.0745 67.2243 55.0418L67.7805 54.8586C69.2593 54.3809 70.8166 54.1388 72.3739 54.1061C73.1526 54.0799 73.9312 54.1388 74.7034 54.2239C74.8996 54.25 75.0894 54.2828 75.2792 54.3089L75.5671 54.3547C75.6129 54.3613 75.6652 54.3678 75.711 54.3809L75.855 54.4136L76.4242 54.538C76.614 54.5772 76.8038 54.6296 76.987 54.6819C78.4854 55.1007 79.9315 55.7092 81.2532 56.5206L81.744 56.8281C81.829 56.8805 81.9076 56.9328 81.9861 56.9917L82.2216 57.1553L82.4572 57.3189C82.5357 57.3712 82.6142 57.4301 82.6927 57.489L83.1508 57.8423L83.3798 58.019L83.6023 58.2088L84.0407 58.5883C84.1846 58.7126 84.322 58.85 84.4594 58.9874L84.6688 59.1903C84.7408 59.2557 84.8062 59.3211 84.8717 59.3931L85.2708 59.8119L85.4671 60.0213L85.6569 60.2372L86.0364 60.6756C86.1018 60.7476 86.1607 60.8261 86.2196 60.8981L86.3963 61.1271C86.514 61.2776 86.6318 61.4281 86.7496 61.5851L87.0833 62.0562C87.3123 62.3638 87.5086 62.6975 87.718 63.0181C88.5294 64.3202 89.1903 65.7074 89.7137 67.1339C90.2372 68.5668 90.6102 70.0456 90.8457 71.5441L90.8915 71.8254L90.9112 71.9628L90.9242 72.1068L90.9897 72.6695C91.042 73.0425 91.0551 73.422 91.0878 73.8015C91.1336 74.554 91.1467 75.313 91.1271 76.0655L91.1205 76.3469L91.1075 76.6282C91.0944 76.818 91.0878 77.0012 91.0682 77.1909C91.042 77.5639 91.0028 77.9434 90.957 78.3164C90.8588 79.0623 90.7345 79.8017 90.5709 80.5346C90.6625 79.7886 90.7345 79.0492 90.7607 78.3033C90.7934 77.5574 90.7999 76.8114 90.7672 76.072C90.7345 75.3326 90.6821 74.5867 90.5905 73.8538C90.5382 73.4874 90.4989 73.121 90.427 72.7546L90.3288 72.2115L90.3026 72.0741L90.2699 71.9367L90.211 71.6684C89.9035 70.2223 89.4651 68.8089 88.9089 67.4545L88.8042 67.1993L88.693 66.9506L88.464 66.4468C88.392 66.2767 88.3069 66.1196 88.2219 65.9561L87.9732 65.4653C87.8881 65.3017 87.7965 65.1447 87.7049 64.9876C87.6133 64.8306 87.5283 64.667 87.4301 64.51L87.1422 64.0454C87.0441 63.8884 86.9524 63.7313 86.8478 63.5874C86.6384 63.2864 86.4421 62.9788 86.2196 62.6909L85.8924 62.2525C85.7812 62.1086 85.6634 61.9712 85.5456 61.8272L85.369 61.6178C85.3101 61.5459 85.2512 61.4739 85.1923 61.4084L84.8259 61.0028L84.6427 60.7999L84.4529 60.6036L84.0668 60.2176C83.0265 59.2099 81.8683 58.3265 80.6185 57.5937C79.3753 56.8608 78.0339 56.3047 76.6467 55.9317C76.2999 55.827 75.9466 55.7681 75.5998 55.6896L75.4689 55.6634C75.4231 55.6569 75.3773 55.6503 75.3381 55.6438L75.0698 55.6045C74.8931 55.5783 74.7164 55.5456 74.5398 55.526C73.8265 55.454 73.1068 55.4017 72.3936 55.4213C70.9606 55.4475 69.5276 55.6634 68.16 56.1018L67.6496 56.2654C67.5646 56.2916 67.4795 56.3243 67.3945 56.357L67.1458 56.4551L66.8972 56.5533L66.7728 56.5991C66.7336 56.6122 66.6878 56.6384 66.6485 56.6514L66.1578 56.8739C66.0793 56.9132 65.9942 56.9459 65.9091 56.9852L65.667 57.1095L65.1894 57.3581C65.0323 57.4497 64.8753 57.5413 64.7182 57.6264C64.5612 57.718 64.4042 57.8031 64.2537 57.9078C63.0301 58.6799 61.9046 59.6025 60.8839 60.6363L60.5109 61.0355L60.3277 61.2383C60.295 61.271 60.2622 61.3038 60.2361 61.3365L60.151 61.4412L59.7977 61.8599C59.7388 61.9319 59.6799 61.9973 59.621 62.0693L59.4509 62.2853L59.1172 62.7171C59.0583 62.7891 59.0125 62.8611 58.9536 62.9396L58.7965 63.1621C58.6918 63.3126 58.5871 63.4565 58.4825 63.6135L58.188 64.0781C57.4093 65.3148 56.7419 66.63 56.2185 67.9976C55.6885 69.3651 55.2828 70.7916 55.0079 72.2442L54.9033 72.7873C54.8705 72.9705 54.8509 73.1537 54.8182 73.3369L54.7397 73.8866C54.72 74.0698 54.7004 74.253 54.6808 74.4362L54.6219 74.9924L54.5892 75.5486L54.5565 76.1047C54.5499 76.288 54.5434 76.4777 54.5368 76.6609C54.5237 77.4069 54.5368 78.1463 54.5892 78.8922C54.6481 79.6054 54.7331 80.3448 54.8378 81.0908Z" fill="#50BFD7"/>
<path d="M68.304 79.6578C68.304 81.5227 66.6878 83.0342 64.6986 83.0342C62.7029 83.0342 61.0933 81.5227 61.0933 79.6578C61.0933 77.793 62.7095 76.2815 64.6986 76.2815C66.6878 76.2815 68.304 77.793 68.304 79.6578Z" fill="white"/>
<path fill-rule="evenodd" clip-rule="evenodd" d="M64.6986 76.5432C62.8375 76.5432 61.355 77.9535 61.355 79.6578C61.355 81.3624 62.8313 82.7724 64.6986 82.7724C66.5598 82.7724 68.0423 81.3621 68.0423 79.6578C68.0423 77.9535 66.5598 76.5432 64.6986 76.5432ZM60.8315 79.6578C60.8315 77.6324 62.5815 76.0197 64.6986 76.0197C66.8158 76.0197 68.5658 77.6324 68.5658 79.6578C68.5658 81.6832 66.8158 83.2959 64.6986 83.2959C62.5746 83.2959 60.8315 81.6829 60.8315 79.6578Z" fill="#2C2C2C"/>
<path d="M62.9319 79.4484C62.9319 80.9861 63.933 82.2359 65.1632 82.2359C66.3933 82.2359 67.3944 80.9861 67.3944 79.4484C67.3944 77.9107 66.3933 76.6609 65.1632 76.6609C63.9265 76.6544 62.9319 77.9042 62.9319 79.4484Z" fill="#50BFD7"/>
<path d="M63.5732 79.4484C63.5732 80.5412 64.2799 81.4245 65.1567 81.4245C66.0335 81.4245 66.7402 80.5412 66.7402 79.4484C66.7402 78.3557 66.0335 77.4658 65.1567 77.4658C64.2865 77.4658 63.5732 78.3491 63.5732 79.4484Z" fill="#2C2C2C"/>
<path d="M63.475 77.5705C63.475 77.8715 63.8414 78.107 64.2929 78.107C64.7444 78.107 65.1108 77.8649 65.1108 77.5705C65.1108 77.2695 64.7444 77.0339 64.2929 77.0339C63.8414 77.0274 63.475 77.2695 63.475 77.5705Z" fill="white"/>
<path d="M64.9341 75.7907C62.7029 75.5682 60.9885 77.5836 60.9885 79.6643C60.9885 79.8803 61.2568 79.9195 61.368 79.769C62.2776 78.5193 62.572 77.2891 64.234 76.8115C66.6878 76.1048 68.0357 78.624 68.1731 80.6C68.1927 80.7898 68.3563 80.6197 68.3759 80.4234C68.5984 78.0612 67.4206 76.0393 64.9341 75.7907Z" fill="#2C2C2C"/>
<path d="M69.3378 74.495C69.3378 74.495 64.4695 69.6399 59.2349 75.4045C59.2283 75.4045 63.7563 72.5058 69.3378 74.495Z" fill="#2C2C2C"/>
<path d="M83.9883 79.6578C83.9883 81.5226 82.3721 83.0341 80.383 83.0341C78.3872 83.0341 76.7776 81.5226 76.7776 79.6578C76.7776 77.7929 78.3938 76.2814 80.383 76.2814C82.3721 76.2814 83.9883 77.7929 83.9883 79.6578Z" fill="white"/>
<path fill-rule="evenodd" clip-rule="evenodd" d="M80.383 76.5431C78.5218 76.5431 77.0393 77.9534 77.0393 79.6577C77.0393 81.3623 78.5156 82.7723 80.383 82.7723C82.2441 82.7723 83.7266 81.362 83.7266 79.6577C83.7266 77.9534 82.2441 76.5431 80.383 76.5431ZM76.5159 79.6577C76.5159 77.6323 78.2658 76.0196 80.383 76.0196C82.5001 76.0196 84.2501 77.6323 84.2501 79.6577C84.2501 81.6831 82.5001 83.2958 80.383 83.2958C78.2589 83.2958 76.5159 81.6828 76.5159 79.6577Z" fill="#2C2C2C"/>
<path d="M78.6163 79.4483C78.6163 80.986 79.6175 82.2358 80.8476 82.2358C82.0777 82.2358 83.0789 80.986 83.0789 79.4483C83.0789 77.9107 82.0777 76.6609 80.8476 76.6609C79.6175 76.6543 78.6163 77.9041 78.6163 79.4483Z" fill="#50BFD7"/>
<path d="M79.2642 79.4483C79.2642 80.5411 79.9708 81.4244 80.8476 81.4244C81.7245 81.4244 82.4311 80.5411 82.4311 79.4483C82.4311 78.3556 81.7245 77.4657 80.8476 77.4657C79.9708 77.4657 79.2642 78.349 79.2642 79.4483Z" fill="#2C2C2C"/>
<path d="M79.1593 77.5704C79.1593 77.8714 79.5257 78.1069 79.9772 78.1069C80.4287 78.1069 80.7951 77.8648 80.7951 77.5704C80.7951 77.2694 80.4287 77.0338 79.9772 77.0338C79.5323 77.0273 79.1593 77.2694 79.1593 77.5704Z" fill="white"/>
<path d="M80.6185 75.7906C78.3872 75.5681 76.6729 77.5835 76.6729 79.6642C76.6729 79.8802 76.9411 79.9194 77.0524 79.7689C77.9619 78.5192 78.2563 77.289 79.9183 76.8114C82.3721 76.1047 83.72 78.6239 83.8574 80.5999C83.8771 80.7897 84.0406 80.6196 84.0603 80.4233C84.2827 78.0611 83.1115 76.0392 80.6185 75.7906Z" fill="#2C2C2C"/>
<path d="M85.0222 73.9651C85.0222 73.9651 80.154 69.11 74.9193 74.8746C74.9193 74.8746 79.4473 71.9759 85.0222 73.9651Z" fill="#2C2C2C"/>
<path d="M67.2439 91.2133C67.4075 92.4827 68.0226 93.6539 68.9844 94.5046C69.9463 95.3552 71.183 95.8198 72.4655 95.8198C73.748 95.8198 74.9846 95.3552 75.9465 94.5046C76.9084 93.6539 77.53 92.4892 77.687 91.2133H67.2439Z" fill="white"/>
<path fill-rule="evenodd" clip-rule="evenodd" d="M66.9464 90.9515H77.9831L77.947 91.2452C77.782 92.5856 77.129 93.8084 76.12 94.7006C75.11 95.5939 73.8115 96.0815 72.4656 96.0815C71.1197 96.0815 69.8213 95.5939 68.8112 94.7006C67.8013 93.8076 67.156 92.5783 66.9845 91.2467L66.9464 90.9515ZM67.5505 91.475C67.7574 92.5676 68.319 93.5666 69.1579 94.3085C70.0716 95.1165 71.2465 95.558 72.4656 95.558C73.6847 95.558 74.8596 95.1165 75.7733 94.3085C76.6136 93.5653 77.18 92.571 77.3823 91.475H67.5505Z" fill="#2C2C2C"/>
<path fill-rule="evenodd" clip-rule="evenodd" d="M55.839 77.1975V77.3283H55.3156V77.1975H55.839Z" fill="#2C2C2C"/>
<path fill-rule="evenodd" clip-rule="evenodd" d="M58.5872 78.637V78.7678H58.0637V78.637H58.5872Z" fill="#2C2C2C"/>
<path d="M73.4733 77.8649C74.3697 78.0547 74.036 78.637 74.036 78.7221C74.036 78.8072 74.3697 83.6492 78.6949 84.9252C83.02 86.2011 85.6112 83.695 86.3636 82.4387C87.1161 81.1824 87.7443 78.1986 87.9275 77.9696C88.1173 77.7406 89.0137 77.3415 89.0137 77.3415L89.1184 76.1702L87.9929 75.8365C87.9929 75.8365 85.1531 74.5409 80.972 74.482C76.7973 74.4166 74.4352 76.8245 74.4352 76.8245C73.2574 76.4516 71.7982 76.3992 70.4634 76.8245C70.4634 76.8245 68.1012 74.4231 63.9266 74.482C59.7519 74.5475 56.9056 75.8365 56.9056 75.8365L55.7802 76.1702L55.8848 77.3415C55.8848 77.3415 56.7813 77.7406 56.971 77.9696C57.1608 78.1986 57.7824 81.1889 58.5349 82.4387C59.2874 83.695 61.8785 86.2011 66.2037 84.9252C70.5288 83.6492 70.8625 78.8072 70.8625 78.7221C70.8625 78.637 70.5288 78.0547 71.4252 77.8649C72.2039 77.7014 72.6946 77.7014 73.4733 77.8649ZM83.851 83.9241C80.5532 85.9067 76.601 83.9044 75.4101 81.2936C74.2192 78.6828 75.2204 77.3022 75.2204 77.3022C77.2161 74.0567 85.2447 73.9193 86.6254 77.4265C86.8609 78.0154 87.1554 81.9414 83.851 83.9241ZM58.2666 77.4265C59.6473 73.9128 67.6825 74.0567 69.6716 77.3022C69.6716 77.3022 70.6728 78.6828 69.4819 81.2936C68.291 83.9044 64.3454 85.9067 61.041 83.9241C57.7431 81.9414 58.0376 78.0154 58.2666 77.4265Z" fill="#2C2C2C"/>
<path d="M133.423 50.4589V68.0338C133.423 68.6353 133.212 69.1468 132.79 69.5685C132.369 69.9901 131.857 70.2009 131.256 70.2009H110.547C109.946 70.2009 109.434 69.9901 109.013 69.5685C108.591 69.1468 108.38 68.6353 108.38 68.0338V47.3256C108.38 46.7241 108.591 46.2126 109.013 45.7909C109.434 45.3693 109.946 45.1585 110.547 45.1585H128.122L133.423 50.4589ZM120.885 64.6777C121.668 64.6777 122.339 64.4037 122.898 63.8555C123.457 63.3074 123.737 62.6418 123.737 61.8587C123.737 61.0756 123.463 60.4046 122.915 59.8456C122.367 59.2866 121.701 59.0071 120.918 59.0071C120.135 59.0071 119.464 59.2811 118.905 59.8293C118.346 60.3774 118.066 61.043 118.066 61.8261C118.066 62.6092 118.34 63.2802 118.888 63.8392C119.437 64.3982 120.102 64.6777 120.885 64.6777ZM112.591 53.7608H124.161V49.3693H112.591V53.7608Z" fill="#50BFD7"/>
</svg>
