<svg width="176" height="160" viewBox="0 0 176 160" fill="none" xmlns="http://www.w3.org/2000/svg">
<path d="M167.232 48.426C167.232 48.426 160.647 22.9236 120.783 6.84046C80.9188 -9.2427 45.2546 5.65316 37.1241 24.4991C28.9936 43.3451 37.5144 53.522 32.0889 69.6164C26.6633 85.7109 -1.20996 106.095 10.0393 130.813C21.2885 155.532 73.928 162.591 116.524 157.491C159.121 152.392 192.4 95.8953 167.232 48.426Z" fill="#50BFD7"/>
<path opacity="0.7" d="M167.232 48.426C167.232 48.426 160.647 22.9236 120.783 6.84046C80.9188 -9.24271 45.2546 5.65316 37.1241 24.4991C28.9936 43.3451 37.5144 53.522 32.0889 69.6164C26.6633 85.7109 -1.20996 106.095 10.0393 130.813C21.2885 155.531 73.928 162.591 116.524 157.491C159.121 152.392 192.4 95.8953 167.232 48.426Z" fill="white"/>
<path fill-rule="evenodd" clip-rule="evenodd" d="M134.993 127.256C135.1 127.245 135.197 127.323 135.208 127.43L136.747 141.873C136.758 141.98 136.68 142.077 136.573 142.088C136.465 142.099 136.369 142.022 136.357 141.914L134.819 127.472C134.807 127.364 134.885 127.268 134.993 127.256Z" fill="#263238"/>
<path d="M135.005 127.857C135.005 127.857 132.242 125.706 132.242 120.789C132.242 115.871 135.927 111.88 135.927 111.88C135.927 111.88 139.922 116.797 139 121.711C138.077 126.625 135.005 127.857 135.005 127.857Z" fill="#50BFD7"/>
<path fill-rule="evenodd" clip-rule="evenodd" d="M136.079 111.756L135.927 111.88L135.783 111.747C135.822 111.705 135.877 111.682 135.933 111.684C135.99 111.686 136.043 111.712 136.079 111.756ZM135.005 127.857C134.885 128.011 134.884 128.011 134.884 128.011L134.884 128.011L134.883 128.01L134.881 128.009L134.874 128.003C134.868 127.998 134.859 127.991 134.848 127.982C134.826 127.963 134.794 127.936 134.755 127.9C134.675 127.828 134.563 127.721 134.43 127.577C134.163 127.29 133.809 126.857 133.455 126.267C132.748 125.088 132.046 123.286 132.046 120.789C132.046 118.283 132.984 116.021 133.915 114.393C134.38 113.578 134.846 112.918 135.196 112.461C135.371 112.233 135.517 112.055 135.619 111.934C135.671 111.874 135.711 111.827 135.739 111.796C135.753 111.78 135.764 111.768 135.771 111.76L135.78 111.751L135.782 111.748L135.783 111.747L135.783 111.747C135.783 111.747 135.783 111.747 135.927 111.88C136.079 111.756 136.079 111.756 136.079 111.757L136.079 111.757L136.08 111.758L136.083 111.761L136.092 111.772C136.1 111.782 136.111 111.797 136.126 111.816C136.156 111.854 136.199 111.911 136.254 111.984C136.363 112.13 136.518 112.344 136.7 112.616C137.064 113.16 137.539 113.936 137.986 114.868C138.877 116.727 139.665 119.231 139.193 121.747C138.724 124.242 137.707 125.813 136.798 126.762C136.344 127.236 135.919 127.553 135.604 127.753C135.447 127.853 135.318 127.923 135.227 127.969C135.181 127.992 135.145 128.009 135.12 128.02C135.107 128.026 135.097 128.03 135.09 128.033L135.082 128.037L135.079 128.038L135.078 128.038L135.078 128.038C135.078 128.039 135.078 128.039 135.005 127.857ZM135.005 127.857L134.885 128.011C134.94 128.054 135.013 128.064 135.078 128.039L135.005 127.857ZM135.036 127.626C135.041 127.624 135.046 127.622 135.05 127.619C135.131 127.579 135.249 127.515 135.394 127.422C135.685 127.237 136.086 126.939 136.515 126.491C137.373 125.595 138.354 124.093 138.808 121.675C139.258 119.278 138.509 116.865 137.633 115.038C137.196 114.126 136.73 113.366 136.374 112.834C136.196 112.568 136.046 112.36 135.94 112.218C135.932 112.208 135.925 112.198 135.918 112.188C135.819 112.305 135.677 112.477 135.507 112.699C135.166 113.145 134.71 113.79 134.255 114.587C133.342 116.184 132.438 118.377 132.438 120.789C132.438 123.209 133.117 124.941 133.791 126.066C134.129 126.629 134.466 127.041 134.717 127.311C134.842 127.445 134.946 127.545 135.018 127.61C135.024 127.615 135.03 127.621 135.036 127.626Z" fill="#263238"/>
<path fill-rule="evenodd" clip-rule="evenodd" d="M135.73 116.402C135.838 116.409 135.92 116.502 135.913 116.61L135.209 127.463C135.202 127.571 135.109 127.653 135.001 127.646C134.893 127.639 134.811 127.546 134.818 127.438L135.522 116.585C135.529 116.477 135.622 116.395 135.73 116.402Z" fill="#263238"/>
<path fill-rule="evenodd" clip-rule="evenodd" d="M142.966 130.694C143.058 130.749 143.088 130.87 143.032 130.962C141.123 134.128 139.49 137.452 138.153 140.898C138.114 140.999 138.001 141.049 137.9 141.01C137.799 140.971 137.749 140.857 137.788 140.757C139.133 137.289 140.776 133.945 142.697 130.76C142.753 130.668 142.873 130.638 142.966 130.694Z" fill="#263238"/>
<path d="M141.418 133.473C141.418 133.473 139.884 130.321 142.054 125.92C144.225 121.519 149.297 119.56 149.297 119.56C149.297 119.56 150.709 125.733 147.707 129.736C144.706 133.74 141.418 133.473 141.418 133.473Z" fill="#50BFD7"/>
<path fill-rule="evenodd" clip-rule="evenodd" d="M149.487 119.517L149.296 119.56L149.226 119.378C149.279 119.357 149.338 119.361 149.388 119.388C149.439 119.414 149.475 119.461 149.487 119.517ZM141.417 133.474C141.241 133.56 141.241 133.56 141.241 133.56L141.241 133.558L141.239 133.556L141.235 133.548C141.232 133.54 141.227 133.53 141.222 133.517C141.21 133.491 141.194 133.452 141.174 133.402C141.134 133.303 141.081 133.157 141.024 132.969C140.911 132.594 140.784 132.049 140.726 131.364C140.611 129.994 140.775 128.07 141.878 125.834C142.984 123.592 144.825 121.978 146.379 120.928C147.158 120.402 147.867 120.016 148.383 119.76C148.641 119.632 148.851 119.537 148.996 119.474C149.069 119.442 149.126 119.418 149.165 119.402C149.184 119.394 149.199 119.388 149.209 119.384L149.221 119.38L149.225 119.378L149.225 119.378L149.226 119.378C149.226 119.378 149.226 119.378 149.296 119.56C149.487 119.517 149.487 119.517 149.487 119.517L149.488 119.518L149.489 119.522L149.492 119.536C149.494 119.549 149.498 119.567 149.503 119.591C149.513 119.638 149.527 119.708 149.544 119.798C149.577 119.977 149.621 120.238 149.664 120.562C149.751 121.21 149.834 122.116 149.823 123.15C149.8 125.211 149.4 127.805 147.863 129.855C146.339 131.887 144.735 132.844 143.503 133.291C142.888 133.514 142.368 133.609 141.999 133.648C141.814 133.667 141.667 133.673 141.566 133.674C141.515 133.674 141.475 133.673 141.447 133.672C141.434 133.671 141.423 133.671 141.415 133.67L141.406 133.67L141.403 133.669L141.402 133.669C141.402 133.669 141.402 133.669 141.417 133.474ZM141.417 133.474L141.241 133.56C141.271 133.622 141.333 133.664 141.402 133.669L141.417 133.474ZM141.547 133.282C141.553 133.282 141.558 133.282 141.563 133.282C141.653 133.281 141.787 133.276 141.957 133.258C142.299 133.222 142.788 133.134 143.37 132.923C144.532 132.502 146.072 131.59 147.55 129.62C149.014 127.667 149.409 125.172 149.431 123.146C149.442 122.135 149.36 121.248 149.276 120.614C149.234 120.296 149.191 120.043 149.159 119.869C149.156 119.857 149.154 119.845 149.152 119.833C149.012 119.894 148.808 119.986 148.557 120.111C148.054 120.36 147.36 120.739 146.599 121.253C145.074 122.283 143.293 123.85 142.229 126.008C141.161 128.173 141.007 130.025 141.117 131.331C141.171 131.985 141.293 132.503 141.399 132.856C141.452 133.033 141.502 133.168 141.538 133.258C141.541 133.266 141.544 133.274 141.547 133.282Z" fill="#263238"/>
<path fill-rule="evenodd" clip-rule="evenodd" d="M147.112 124.111C147.205 124.168 147.234 124.288 147.178 124.381L141.585 133.576C141.528 133.668 141.408 133.697 141.316 133.641C141.223 133.585 141.194 133.464 141.25 133.372L146.843 124.177C146.899 124.085 147.02 124.055 147.112 124.111Z" fill="#263238"/>
<path fill-rule="evenodd" clip-rule="evenodd" d="M128.431 130.256C128.524 130.202 128.644 130.234 128.699 130.327L130.851 134.035C132.27 136.579 133.409 139.27 134.246 142.061C134.277 142.164 134.219 142.273 134.115 142.305C134.012 142.336 133.902 142.277 133.871 142.173C133.042 139.411 131.915 136.746 130.51 134.227L128.36 130.524C128.305 130.43 128.337 130.31 128.431 130.256Z" fill="#263238"/>
<path d="M130.259 133.29C128.561 133.811 126.76 133.894 125.022 133.531C123.285 133.168 121.667 132.372 120.32 131.215C115.55 127.208 115.816 119.03 115.816 119.03C115.816 119.03 125.063 117.711 128.796 122.95C129.878 124.417 130.578 126.13 130.833 127.935C131.089 129.74 130.891 131.58 130.259 133.29Z" fill="#50BFD7"/>
<path fill-rule="evenodd" clip-rule="evenodd" d="M115.816 119.031C115.621 119.025 115.621 119.025 115.621 119.025L115.621 119.027L115.621 119.032L115.62 119.05C115.62 119.067 115.619 119.091 115.619 119.122C115.618 119.184 115.617 119.275 115.618 119.392C115.621 119.627 115.629 119.965 115.654 120.383C115.704 121.22 115.821 122.377 116.088 123.661C116.621 126.222 117.759 129.32 120.194 131.365C121.565 132.543 123.213 133.354 124.983 133.724C126.753 134.094 128.588 134.009 130.316 133.478L130.259 133.291L130.442 133.359C131.086 131.619 131.288 129.746 131.028 127.909C130.768 126.072 130.055 124.329 128.954 122.836C127.039 120.148 123.724 119.159 120.929 118.832C119.527 118.668 118.243 118.669 117.311 118.711C116.844 118.732 116.465 118.764 116.202 118.79C116.07 118.803 115.967 118.815 115.897 118.823C115.862 118.828 115.836 118.831 115.817 118.834L115.796 118.836L115.791 118.837L115.789 118.837C115.789 118.837 115.789 118.837 115.816 119.031ZM116.01 119.204C116.01 119.255 116.01 119.317 116.01 119.389C116.012 119.617 116.02 119.949 116.045 120.36C116.094 121.182 116.209 122.32 116.471 123.581C116.998 126.109 118.111 129.104 120.446 131.066L120.448 131.067C121.77 132.202 123.357 132.984 125.063 133.341C126.736 133.69 128.47 133.618 130.108 133.132C130.703 131.478 130.886 129.704 130.64 127.964C130.389 126.191 129.701 124.508 128.638 123.067L128.636 123.065C126.819 120.514 123.645 119.544 120.884 119.221C119.508 119.06 118.246 119.061 117.328 119.103C116.87 119.123 116.498 119.154 116.24 119.18C116.148 119.189 116.071 119.197 116.01 119.204ZM115.816 119.031L115.789 118.837C115.695 118.851 115.624 118.93 115.621 119.025L115.816 119.031Z" fill="#263238"/>
<path fill-rule="evenodd" clip-rule="evenodd" d="M119.163 121.729C119.241 121.654 119.365 121.657 119.44 121.735L130.4 133.156C130.475 133.234 130.472 133.358 130.394 133.433C130.316 133.508 130.192 133.505 130.117 133.427L119.157 122.006C119.082 121.928 119.085 121.804 119.163 121.729Z" fill="#263238"/>
<path d="M141.608 138.801H129.908V150.274H141.608V138.801Z" fill="#263238"/>
<path fill-rule="evenodd" clip-rule="evenodd" d="M129.713 138.8C129.713 138.692 129.801 138.604 129.909 138.604H141.608C141.716 138.604 141.804 138.692 141.804 138.8V150.273C141.804 150.381 141.716 150.468 141.608 150.468H129.909C129.801 150.468 129.713 150.381 129.713 150.273V138.8ZM130.105 138.996V150.077H141.412V138.996H130.105Z" fill="#263238"/>
<path opacity="0.3" d="M160.464 29.2462H77.5906V87.8535H160.464V29.2462Z" fill="black"/>
<path d="M162.544 26.2513H79.6707V84.8587H162.544V26.2513Z" fill="white"/>
<path fill-rule="evenodd" clip-rule="evenodd" d="M79.1865 26.2514C79.1865 26.0372 79.4032 25.8635 79.6705 25.8635H162.544C162.811 25.8635 163.028 26.0372 163.028 26.2514V84.8588C163.028 85.0731 162.811 85.2467 162.544 85.2467H79.6705C79.4032 85.2467 79.1865 85.0731 79.1865 84.8588V26.2514ZM80.1546 26.6394V84.4709H162.059V26.6394H80.1546Z" fill="#263238"/>
<path d="M162.544 26.2513H79.6707V30.4398H162.544V26.2513Z" fill="#263238"/>
<path fill-rule="evenodd" clip-rule="evenodd" d="M79.1865 26.2514C79.1865 26.0372 79.4032 25.8635 79.6705 25.8635H162.544C162.811 25.8635 163.028 26.0372 163.028 26.2514V30.4399C163.028 30.6542 162.811 30.8278 162.544 30.8278H79.6705C79.4032 30.8278 79.1865 30.6542 79.1865 30.4399V26.2514ZM80.1546 26.6394V30.052H162.059V26.6394H80.1546Z" fill="#263238"/>
<path d="M115.926 51.3514V45.1729C115.926 44.0496 116.483 42.9723 117.474 42.178C118.465 41.3837 119.809 40.9375 121.211 40.9375C122.612 40.9375 123.956 41.3837 124.947 42.178C125.938 42.9723 126.495 44.0496 126.495 45.1729V48.7831H128.601V45.1729C128.601 43.6019 127.823 42.0953 126.437 40.9845C125.051 39.8737 123.171 39.2496 121.211 39.2496C119.251 39.2496 117.371 39.8737 115.985 40.9845C114.599 42.0953 113.821 43.6019 113.821 45.1729V51.3514H115.926Z" fill="white"/>
<path d="M149.999 65.8071H92.2088C90.7729 65.8071 89.6089 66.7401 89.6089 67.8909V72.8348C89.6089 73.9857 90.7729 74.9186 92.2088 74.9186H149.999C151.435 74.9186 152.599 73.9857 152.599 72.8348V67.8909C152.599 66.7401 151.435 65.8071 149.999 65.8071Z" fill="white"/>
<path d="M83.2488 141.071C78.7864 140.663 74.3796 140.496 74.3796 140.496C72.7603 140.546 69.3115 140.688 65.7515 141.071C66.7898 144.619 70.3128 147.233 74.497 147.233C78.6875 147.239 82.2105 144.613 83.2488 141.071Z" fill="#50BFD7"/>
<path d="M78.1566 147.519C78.1566 147.673 78.2926 147.853 78.4533 147.834C80.2766 147.642 81.6734 146.233 83.472 146.53C81.6672 147.426 80.1035 148.984 80.326 151.277C80.3507 151.561 80.6227 151.672 80.8328 151.499C82.1246 150.399 83.6079 149.416 85.3385 149.781C86.0802 149.936 86.9516 150.226 87.718 150.127C88.8615 149.985 89.8256 149.466 90.3943 148.359C91.3955 146.443 91.0247 144.144 88.7811 143.668C88.7255 143.656 88.6822 143.662 88.6328 143.681C87.8046 143.353 87.0505 142.939 86.383 142.216C85.7402 141.511 85.1407 140.733 84.4423 140.084C83.509 139.212 82.4954 138.526 81.2593 139.113C81.0739 139.2 81.0862 139.466 81.2037 139.608C81.7476 140.281 82.3842 140.924 83.0517 141.542C82.3842 141.388 81.7105 141.307 81.0182 141.363C79.7821 141.468 78.3235 142.29 78.3544 143.761C78.3606 143.946 78.4904 144.058 78.6511 144.076C79.7883 144.194 80.9317 144.175 82.0628 144.293C80.3013 144.812 78.1381 145.405 78.1566 147.519Z" fill="#C4C4C4"/>
<path fill-rule="evenodd" clip-rule="evenodd" d="M83.0545 138.821C83.6242 139.045 84.1389 139.462 84.6102 139.902C85.0827 140.341 85.5188 140.847 85.942 141.338C86.1518 141.582 86.3584 141.822 86.5646 142.048C87.1785 142.713 87.8711 143.106 88.6486 143.42C88.7049 143.411 88.7655 143.411 88.8329 143.426C90.0435 143.683 90.7687 144.444 91.0417 145.405C91.3107 146.353 91.1358 147.472 90.6131 148.472C89.9993 149.666 88.9537 150.221 87.7487 150.371C87.3263 150.426 86.8862 150.372 86.4709 150.291C86.2621 150.25 86.0553 150.201 85.8573 150.154C85.8363 150.149 85.8154 150.144 85.7946 150.139C85.6179 150.096 85.4494 150.056 85.2875 150.022L85.2869 150.022C83.6827 149.684 82.2833 150.587 80.9925 151.687L80.991 151.688L80.9894 151.689C80.8212 151.828 80.6036 151.868 80.4119 151.786C80.2203 151.704 80.0988 151.518 80.0793 151.299C79.878 149.219 81.0619 147.727 82.5555 146.764C82.0585 146.832 81.5744 147.011 81.0676 147.226C80.9549 147.273 80.8408 147.323 80.7251 147.373C80.0391 147.671 79.2992 147.993 78.4796 148.079C78.2948 148.1 78.1469 148.005 78.0581 147.903C77.9696 147.802 77.9092 147.663 77.9088 147.519C77.8989 146.355 78.5 145.607 79.3099 145.098C79.7371 144.829 80.2293 144.622 80.7284 144.447C80.602 144.442 80.4752 144.436 80.3479 144.431L80.3427 144.43C79.7762 144.406 79.2005 144.381 78.6251 144.321L78.6236 144.321L78.6221 144.321C78.3579 144.29 78.1176 144.093 78.1067 143.768L78.1067 143.767L78.1066 143.765C78.0892 142.936 78.4954 142.294 79.0584 141.854C79.6166 141.418 80.3377 141.172 80.9967 141.116L80.9973 141.116L80.9979 141.116C81.4346 141.081 81.8624 141.097 82.2834 141.151C81.8297 140.704 81.3982 140.242 81.0115 139.763C80.912 139.642 80.8617 139.479 80.8705 139.325C80.8796 139.165 80.9575 138.98 81.1533 138.889C81.8385 138.563 82.4724 138.591 83.0545 138.821ZM81.3672 139.334C81.3661 139.338 81.3647 139.344 81.3642 139.353C81.3633 139.368 81.3655 139.387 81.3717 139.406C81.3779 139.426 81.3865 139.441 81.3937 139.449L81.3946 139.45L81.3954 139.451C81.929 140.112 82.5561 140.746 83.2191 141.36L83.9017 141.992L82.9953 141.782C82.3451 141.632 81.698 141.555 81.038 141.608C80.4611 141.658 79.8351 141.875 79.3628 142.244C78.8957 142.609 78.5881 143.112 78.6009 143.753C78.6023 143.786 78.6125 143.799 78.619 143.806C78.6277 143.814 78.6458 143.826 78.6777 143.83C79.2372 143.887 79.7994 143.912 80.3694 143.937L80.3714 143.937C80.9389 143.961 81.5142 143.986 82.0877 144.046L83.3325 144.175L82.1321 144.529C82.1013 144.538 82.0705 144.547 82.0396 144.556C81.1757 144.81 80.2718 145.076 79.5733 145.516C78.8661 145.961 78.3949 146.567 78.4033 147.516L78.4033 147.517V147.518C78.4033 147.521 78.4042 147.53 78.4094 147.543C78.4146 147.556 78.4221 147.568 78.4302 147.578C78.4335 147.581 78.4364 147.584 78.4386 147.586C79.1721 147.507 79.831 147.221 80.5166 146.924C80.6351 146.873 80.7544 146.821 80.875 146.77C81.6811 146.429 82.5373 146.124 83.5116 146.285L84.2674 146.41L83.5813 146.75C81.8154 147.627 80.3636 149.109 80.5715 151.252L80.5716 151.253L80.5717 151.254C80.5746 151.288 80.5838 151.307 80.5903 151.316C80.5968 151.326 80.6029 151.33 80.6067 151.331C80.6106 151.333 80.6167 151.334 80.6263 151.333C80.6357 151.331 80.6524 151.326 80.6738 151.308C81.9662 150.208 83.5328 149.147 85.3886 149.538C85.5582 149.573 85.7342 149.616 85.9096 149.658C85.9306 149.663 85.9515 149.668 85.9724 149.673C86.1704 149.72 86.3683 149.767 86.5659 149.806C86.9633 149.883 87.3419 149.925 87.6858 149.881L87.6864 149.881L87.687 149.881C88.7682 149.746 89.6505 149.264 90.1738 148.246L90.1742 148.245L90.1746 148.244C90.6529 147.329 90.7931 146.34 90.5661 145.54C90.3432 144.755 89.7615 144.128 88.7292 143.909L88.7281 143.909L88.7269 143.909C88.7268 143.909 88.7266 143.909 88.7265 143.909C88.7248 143.909 88.7224 143.91 88.719 143.911L88.6298 143.945L88.5413 143.91C87.693 143.574 86.9022 143.143 86.2008 142.383L86.2003 142.382L86.1998 142.382C85.9726 142.133 85.7559 141.881 85.5415 141.632C85.1301 141.154 84.7269 140.685 84.2734 140.264L84.273 140.263C83.8111 139.832 83.3524 139.47 82.873 139.28C82.4069 139.096 81.9169 139.074 81.3672 139.334Z" fill="#2C2C2C"/>
<path fill-rule="evenodd" clip-rule="evenodd" d="M148.671 150.42C148.671 150.297 148.771 150.196 148.895 150.196H156.269C156.393 150.196 156.493 150.297 156.493 150.42C156.493 150.544 156.393 150.644 156.269 150.644H148.895C148.771 150.644 148.671 150.544 148.671 150.42Z" fill="#2C2C2C"/>
<path fill-rule="evenodd" clip-rule="evenodd" d="M9.60498 150.42C9.60498 150.297 9.70518 150.196 9.82878 150.196H146.437C146.56 150.196 146.661 150.297 146.661 150.42C146.661 150.544 146.56 150.644 146.437 150.644H9.82878C9.70518 150.644 9.60498 150.544 9.60498 150.42Z" fill="#2C2C2C"/>
<path fill-rule="evenodd" clip-rule="evenodd" d="M0 150.42C0 150.297 0.1002 150.196 0.223804 150.196H5.2632C5.3868 150.196 5.48701 150.297 5.48701 150.42C5.48701 150.544 5.3868 150.644 5.2632 150.644H0.223804C0.1002 150.644 0 150.544 0 150.42Z" fill="#2C2C2C"/>
<path d="M47.6207 126.246H101.085C101.724 126.246 102.338 126.5 102.79 126.952C103.242 127.404 103.496 128.018 103.496 128.657V158.693H45.209V128.657C45.209 128.018 45.4631 127.404 45.9154 126.952C46.3677 126.5 46.9811 126.246 47.6207 126.246Z" fill="white"/>
<path fill-rule="evenodd" clip-rule="evenodd" d="M47.621 126.552C47.0629 126.552 46.5277 126.774 46.133 127.169C45.7384 127.563 45.5167 128.099 45.5167 128.657V158.385H103.189V128.657C103.189 128.099 102.968 127.563 102.573 127.169C102.178 126.774 101.643 126.552 101.085 126.552H47.621ZM45.6983 126.734C46.2082 126.224 46.8998 125.938 47.621 125.938H101.085C101.806 125.938 102.498 126.224 103.008 126.734C103.518 127.244 103.804 127.936 103.804 128.657V158.693C103.804 158.862 103.666 159 103.497 159H45.2093C45.0395 159 44.9019 158.862 44.9019 158.693V128.657C44.9019 127.936 45.1883 127.244 45.6983 126.734Z" fill="#2C2C2C"/>
<path d="M103.496 137.04C96.1742 138.897 88.6592 143.624 74.6565 150.28C61.1507 156.705 50.0952 156.594 45.209 156.098V158.693H103.496V137.04Z" fill="#2C2C2C"/>
<path fill-rule="evenodd" clip-rule="evenodd" d="M103.685 136.798C103.76 136.856 103.804 136.946 103.804 137.041V158.693C103.804 158.863 103.666 159.001 103.497 159.001H45.2093C45.0395 159.001 44.9019 158.863 44.9019 158.693V156.098C44.9019 156.011 44.9387 155.929 45.0032 155.87C45.0677 155.812 45.1539 155.784 45.2404 155.793C50.0847 156.285 61.0811 156.399 74.5248 150.004L74.5248 150.004C79.1368 147.811 83.039 145.831 86.4675 144.091C88.243 143.19 89.8915 142.354 91.4457 141.586C95.9925 139.338 99.7264 137.68 103.421 136.743C103.513 136.719 103.611 136.74 103.685 136.798ZM74.7888 150.559C61.5231 156.87 50.6027 156.907 45.5167 156.437V158.386H103.189V137.438C99.6845 138.374 96.1003 139.971 91.7181 142.137C90.1744 142.9 88.5308 143.734 86.7579 144.633C83.3247 146.375 79.4066 148.364 74.7888 150.559Z" fill="#2C2C2C"/>
<path fill-rule="evenodd" clip-rule="evenodd" d="M44.9019 156.894C44.9019 156.724 45.0395 156.586 45.2093 156.586H103.497C103.666 156.586 103.804 156.724 103.804 156.894V158.698C103.804 158.867 103.666 159.005 103.497 159.005H45.2093C45.0395 159.005 44.9019 158.867 44.9019 158.698V156.894ZM45.5167 157.201V158.39H103.189V157.201H45.5167Z" fill="#2C2C2C"/>
<path d="M103.351 156.894H44.4912V158.698H103.351V156.894Z" fill="white"/>
<path d="M133.423 50.4589V68.0338C133.423 68.6352 133.212 69.1468 132.79 69.5684C132.369 69.9901 131.857 70.2009 131.256 70.2009H110.547C109.946 70.2009 109.434 69.9901 109.013 69.5684C108.591 69.1468 108.38 68.6352 108.38 68.0338V47.3256C108.38 46.7241 108.591 46.2125 109.013 45.7909C109.434 45.3693 109.946 45.1584 110.547 45.1584H128.122L133.423 50.4589ZM120.885 64.6777C121.668 64.6777 122.339 64.4036 122.898 63.8555C123.457 63.3073 123.737 62.6417 123.737 61.8587C123.737 61.0756 123.463 60.4046 122.915 59.8456C122.367 59.2865 121.701 59.007 120.918 59.007C120.135 59.007 119.464 59.2811 118.905 59.8292C118.346 60.3774 118.066 61.043 118.066 61.8261C118.066 62.6091 118.34 63.2802 118.888 63.8392C119.437 64.3982 120.102 64.6777 120.885 64.6777ZM112.591 53.7608H124.161V49.3693H112.591V53.7608Z" fill="#50BFD7"/>
<path d="M71.8884 109.945C74.0903 109.945 77.5222 109.489 77.5222 107.994L76.9582 103.006L76.4621 98.643C76.4621 97.1479 74.6748 95.9314 72.4729 95.9314C71.372 95.9314 70.373 96.2372 69.6526 96.7265C68.9322 97.2158 68.4837 97.8954 68.4837 98.643L68.0012 103.013L67.5323 107.199C66.8935 109.727 71.8884 109.945 71.8884 109.945Z" fill="#2C2C2C"/>
<path d="M77.5557 101.912H67.4502C65.9959 101.912 64.7998 100.723 64.7998 99.2615C64.7998 97.8071 65.9891 96.6111 67.4502 96.6111H77.5557C79.01 96.6111 80.2061 97.8003 80.2061 99.2615C80.1993 100.723 79.01 101.912 77.5557 101.912Z" fill="#50BFD7"/>
<path d="M77.5563 102.184H67.4508C65.8402 102.184 64.5286 100.872 64.5286 99.2614C64.5286 97.6508 65.8402 96.3392 67.4508 96.3392H77.5563C79.1669 96.3392 80.4785 97.6508 80.4785 99.2614C80.4785 100.872 79.1601 102.184 77.5563 102.184ZM67.4508 96.8896C66.1392 96.8896 65.0722 97.9566 65.0722 99.2682C65.0722 100.58 66.1392 101.647 67.4508 101.647H77.5563C78.8679 101.647 79.9349 100.58 79.9349 99.2682C79.9349 97.9566 78.8679 96.8896 77.5563 96.8896H67.4508Z" fill="#2C2C2C"/>
<path d="M73.0651 48.0747H71.937V55.4686H73.0651V48.0747Z" fill="#2C2C2C"/>
<path d="M77.1222 57.0249H67.8798C67.7099 57.0249 67.574 56.889 67.574 56.7191V52.4785C67.574 52.3086 67.7099 52.1726 67.8798 52.1726H77.1222C77.2921 52.1726 77.428 52.3086 77.428 52.4785V56.7259C77.428 56.889 77.2921 57.0249 77.1222 57.0249Z" fill="#50BFD7"/>
<path d="M77.1223 57.2967H67.8799C67.5605 57.2967 67.3022 57.0385 67.3022 56.7191V52.4784C67.3022 52.159 67.5605 51.9008 67.8799 51.9008H77.1223C77.4417 51.9008 77.7 52.159 77.7 52.4784V56.7259C77.7 57.0385 77.4417 57.2967 77.1223 57.2967ZM67.8799 52.4376C67.8595 52.4376 67.8459 52.4512 67.8459 52.4716V56.7191C67.8459 56.7395 67.8595 56.753 67.8799 56.753H77.1223C77.1427 56.753 77.1563 56.7395 77.1563 56.7191V52.4784C77.1563 52.458 77.1427 52.4444 77.1223 52.4444H67.8799V52.4376Z" fill="#2C2C2C"/>
<path d="M73.9488 47.5786C73.9488 48.3737 73.3032 49.0193 72.5081 49.0193C71.713 49.0193 71.0674 48.3737 71.0674 47.5786C71.0674 46.7835 71.713 46.1379 72.5081 46.1379C73.2964 46.1379 73.9488 46.7835 73.9488 47.5786Z" fill="#2C2C2C"/>
<path d="M73.507 47.0213C73.507 47.266 73.3099 47.4631 73.0653 47.4631C72.8206 47.4631 72.6235 47.266 72.6235 47.0213C72.6235 46.7767 72.8206 46.5796 73.0653 46.5796C73.3099 46.5796 73.507 46.7767 73.507 47.0213Z" fill="#2C2C2C"/>
<path d="M80.9543 87.321C84.7826 87.321 87.8861 84.2175 87.8861 80.3892C87.8861 76.5608 84.7826 73.4573 80.9543 73.4573C77.1259 73.4573 74.0225 76.5608 74.0225 80.3892C74.0225 84.2175 77.1259 87.321 80.9543 87.321Z" fill="#002731"/>
<path d="M72.5 93.1043C89.3447 93.1043 103 86.9734 103 79.4105C103 71.8477 89.3447 65.7168 72.5 65.7168C55.6553 65.7168 42 71.8477 42 79.4105C42 86.9734 55.6553 93.1043 72.5 93.1043Z" fill="#2C2C2C"/>
<path d="M45.5606 85.8397C46.1043 86.295 46.6955 86.7368 47.3479 87.1581C45.7713 82.6117 45.0849 77.5691 45.248 73.2537C44.7519 73.6954 44.3034 74.1576 43.916 74.6265C43.9296 78.1875 44.4665 82.1156 45.5606 85.8397Z" fill="#50BFD7"/>
<path d="M101.077 74.6194C100.682 74.1505 100.234 73.6883 99.7378 73.2466C99.9961 77.6028 99.1194 82.7337 97.3796 87.3413C98.0524 86.9132 98.6776 86.4714 99.2417 86.0093C100.458 82.2036 101.097 78.2144 101.077 74.6194Z" fill="#50BFD7"/>
<path d="M78.7249 99.3091H66.2816C56.2169 99.3091 48.0618 91.154 48.0618 81.0893V78.3234C48.0618 65.4111 58.5275 54.9523 71.4329 54.9523H73.56C86.4722 54.9523 96.9311 65.4179 96.9311 78.3234V81.0893C96.9379 91.154 88.7828 99.3091 78.7249 99.3091Z" fill="white"/>
<path d="M78.725 99.5808H66.2817C61.3411 99.5808 56.6995 97.6576 53.2064 94.1645C49.7133 90.6714 47.79 86.0298 47.79 81.0892V78.3233C47.79 72.0099 50.2502 66.0703 54.7151 61.6054C59.18 57.1404 65.1196 54.6803 71.433 54.6803H73.5601C79.8735 54.6803 85.8131 57.1404 90.278 61.6054C94.7429 66.0703 97.203 72.0099 97.203 78.3233V81.0892C97.203 86.0298 95.2798 90.6714 91.7867 94.1645C88.3004 97.6576 83.6588 99.5808 78.725 99.5808ZM71.4398 55.224C65.2691 55.224 59.4654 57.6297 55.1024 61.9927C50.7395 66.3557 48.3337 72.1594 48.3337 78.3301V81.096C48.3337 85.8871 50.2026 90.3928 53.5869 93.7839C56.9781 97.1751 61.4838 99.0372 66.2749 99.0372H78.7182C83.5093 99.0372 88.015 97.1683 91.4061 93.7839C94.7973 90.3928 96.6594 85.8871 96.6594 81.096V78.3301C96.6594 72.1594 94.2536 66.3557 89.8906 61.9927C85.5277 57.6297 79.724 55.224 73.5533 55.224H71.4398Z" fill="#2C2C2C"/>
<path d="M67.4641 88.9656C67.6204 90.1888 68.2185 91.317 69.1427 92.1325C70.0669 92.948 71.263 93.4033 72.4999 93.4033C73.7367 93.4033 74.926 92.9548 75.857 92.1325C76.7813 91.317 77.3793 90.1888 77.5356 88.9656H67.4641Z" fill="white"/>
<path d="M72.4995 93.6751C71.1947 93.6751 69.9443 93.1994 68.9657 92.3363C67.9871 91.4733 67.3618 90.2908 67.1987 88.9996L67.158 88.6937H77.8411L77.8003 88.9996C77.6372 90.2908 77.0052 91.4801 76.0334 92.3363C75.0616 93.1994 73.8043 93.6751 72.4995 93.6751ZM67.7832 89.2374C67.9871 90.2772 68.5239 91.2286 69.3259 91.9286C70.2025 92.7033 71.3306 93.1315 72.4995 93.1315C73.6684 93.1315 74.7966 92.7033 75.6732 91.9286C76.4751 91.2218 77.012 90.2772 77.2159 89.2374H67.7832Z" fill="#2C2C2C"/>
<path d="M72.5001 69.543C79.9824 69.543 86.7647 67.2868 91.7393 63.6306C87.4511 58.3366 80.9067 54.9522 73.5603 54.9522H71.4332C64.0936 54.9522 57.5424 58.3366 53.2542 63.6306C58.2355 67.2868 65.0179 69.543 72.5001 69.543Z" fill="#2C2C2C"/>
<path d="M72.5004 58.418C65.0181 58.418 58.2358 60.6743 53.2612 64.3305C57.5494 69.6245 64.0939 73.0088 71.4403 73.0088H73.5674C80.907 73.0088 87.4582 69.6245 91.7464 64.3305C86.765 60.6743 79.9827 58.418 72.5004 58.418Z" fill="#50BFD7"/>
<path d="M73.5671 73.2876H71.4399C64.2703 73.2876 57.5695 70.0867 53.0502 64.5072L52.8735 64.283L53.1046 64.1131C58.3306 60.2666 65.2217 58.1463 72.5069 58.1463C79.7853 58.1463 86.6763 60.2666 91.9092 64.1131L92.1402 64.283L91.9636 64.5072C87.4375 70.0867 80.7367 73.2876 73.5671 73.2876ZM53.6551 64.3849C58.0656 69.6993 64.5285 72.7439 71.4399 72.7439H73.5671C80.4785 72.7439 86.9414 69.6993 91.3519 64.3849C86.2414 60.7083 79.561 58.69 72.5069 58.69C65.4392 58.69 58.7588 60.7083 53.6551 64.3849Z" fill="#2C2C2C"/>
<path d="M89.4968 84.4192C88.8512 84.8066 88.124 85.0105 87.3833 85.0105H57.624C56.8833 85.0105 56.1561 84.8066 55.5105 84.4192C53.9203 83.4678 53.0164 81.5378 53.2407 79.5602L53.2543 79.4174C54.0154 72.7235 59.024 67.579 65.1607 67.1916C67.7567 67.0285 70.4819 66.9402 73.3226 66.9606C75.5516 66.9741 77.6991 67.0557 79.7719 67.1848C85.9357 67.5722 90.9783 72.6963 91.7395 79.4174C91.7462 79.465 91.753 79.5126 91.753 79.5602C91.9909 81.5378 91.087 83.4678 89.4968 84.4192Z" fill="white"/>
<path d="M87.3761 85.2823H57.6236C56.8353 85.2823 56.0606 85.0648 55.3674 84.6503C53.6684 83.6377 52.7306 81.6261 52.9684 79.5261L52.982 79.3834C53.7567 72.5536 58.8741 67.3071 65.1399 66.913C67.8514 66.7431 70.6038 66.6683 73.3221 66.6819C75.4696 66.6955 77.6443 66.7702 79.785 66.9062C86.0916 67.3003 91.2293 72.5468 92.0041 79.3766L92.0177 79.5193C92.2555 81.6125 91.3177 83.6241 89.6187 84.6435C88.9459 85.0648 88.1644 85.2823 87.3761 85.2823ZM72.5134 67.2324C70.0737 67.2324 67.6136 67.3071 65.1806 67.4634C59.1799 67.844 54.2732 72.8866 53.5257 79.4514L53.5121 79.5941C53.2946 81.4766 54.1373 83.2843 55.6528 84.1881C56.2576 84.5483 56.944 84.7386 57.6304 84.7386H87.3897C88.076 84.7386 88.7624 84.5483 89.3673 84.1881C90.8827 83.2843 91.7186 81.4766 91.508 79.5941L91.4944 79.4514C90.7468 72.8798 85.8198 67.8372 79.7782 67.4634C77.6443 67.3275 75.4764 67.2527 73.3425 67.2392C73.0503 67.2324 72.7853 67.2324 72.5134 67.2324Z" fill="#2C2C2C"/>
<path d="M67.7094 76.3932C67.7094 78.9621 65.4735 81.0552 62.728 81.0552C59.9756 81.0552 57.7466 78.9689 57.7466 76.3932C57.7466 73.8176 59.9756 71.7312 62.728 71.7312C65.4803 71.7312 67.7094 73.8176 67.7094 76.3932Z" fill="white"/>
<path d="M62.7278 81.327C59.8328 81.327 57.4746 79.1116 57.4746 76.3932C57.4746 73.6748 59.8328 71.4594 62.7278 71.4594C65.6229 71.4594 67.9811 73.6748 67.9811 76.3932C67.9811 79.1116 65.6297 81.327 62.7278 81.327ZM62.7278 72.0031C60.1318 72.0031 58.0183 73.9739 58.0183 76.3932C58.0183 78.8125 60.1318 80.7834 62.7278 80.7834C65.3239 80.7834 67.4374 78.8125 67.4374 76.3932C67.4374 73.9739 65.3239 72.0031 62.7278 72.0031Z" fill="#2C2C2C"/>
<path d="M60.2881 76.1011C60.2881 78.2282 61.6677 79.9475 63.3666 79.9475C65.0724 79.9475 66.452 78.2214 66.452 76.1011C66.452 73.9739 65.0724 72.2478 63.3666 72.2478C61.6677 72.2478 60.2881 73.9739 60.2881 76.1011Z" fill="#50BFD7"/>
<path d="M61.1777 76.101C61.1777 77.6096 62.1563 78.8329 63.366 78.8329C64.5757 78.8329 65.5543 77.6096 65.5543 76.101C65.5543 74.5855 64.5757 73.3622 63.366 73.3622C62.1563 73.3622 61.1777 74.5855 61.1777 76.101Z" fill="#2C2C2C"/>
<path d="M61.0425 73.5117C61.0425 73.9263 61.5522 74.2593 62.1706 74.2593C62.7958 74.2593 63.2987 73.9263 63.2987 73.5117C63.2987 73.0972 62.7958 72.7642 62.1706 72.7642C61.5454 72.7642 61.0425 73.0972 61.0425 73.5117Z" fill="white"/>
<path d="M86.7374 76.3932C86.7374 78.9621 84.5016 81.0552 81.7561 81.0552C79.0037 81.0552 76.7747 78.9689 76.7747 76.3932C76.7747 73.8176 79.0037 71.7312 81.7561 71.7312C84.5016 71.7312 86.7374 73.8176 86.7374 76.3932Z" fill="white"/>
<path d="M81.7562 81.327C78.8611 81.327 76.5029 79.1116 76.5029 76.3932C76.5029 73.6748 78.8611 71.4594 81.7562 71.4594C84.6512 71.4594 87.0094 73.6748 87.0094 76.3932C87.0094 79.1116 84.6512 81.327 81.7562 81.327ZM81.7562 72.0031C79.1601 72.0031 77.0466 73.9739 77.0466 76.3932C77.0466 78.8125 79.1601 80.7834 81.7562 80.7834C84.3522 80.7834 86.4657 78.8125 86.4657 76.3932C86.4657 73.9739 84.3522 72.0031 81.7562 72.0031Z" fill="#2C2C2C"/>
<path d="M79.3167 76.1011C79.3167 78.2282 80.6962 79.9475 82.3952 79.9475C84.101 79.9475 85.4805 78.2214 85.4805 76.1011C85.4805 73.9739 84.101 72.2478 82.3952 72.2478C80.6962 72.2478 79.3167 73.9739 79.3167 76.1011Z" fill="#50BFD7"/>
<path d="M80.2068 76.101C80.2068 77.6096 81.1854 78.8329 82.3951 78.8329C83.6047 78.8329 84.5833 77.6096 84.5833 76.101C84.5833 74.5855 83.6047 73.3622 82.3951 73.3622C81.1854 73.3622 80.2068 74.5855 80.2068 76.101Z" fill="#2C2C2C"/>
<path d="M80.0635 73.5117C80.0635 73.9263 80.5732 74.2593 81.1916 74.2593C81.8168 74.2593 82.3197 73.9263 82.3197 73.5117C82.3197 73.0972 81.8168 72.7642 81.1916 72.7642C80.5732 72.7642 80.0635 73.0972 80.0635 73.5117Z" fill="white"/>
<path d="M103.855 157.255H44.2126V159.101H103.855V157.255Z" fill="white"/>
<path fill-rule="evenodd" clip-rule="evenodd" d="M43.8984 157.256C43.8984 157.082 44.0393 156.941 44.213 156.941H103.856C104.029 156.941 104.17 157.082 104.17 157.256V159.102C104.17 159.275 104.029 159.416 103.856 159.416H44.213C44.0393 159.416 43.8984 159.275 43.8984 159.102V157.256ZM44.5275 157.57V158.787H103.541V157.57H44.5275Z" fill="#2C2C2C"/>
<path d="M58.7037 117.259C58.7037 117.259 53.2081 143.891 50.7047 145.358C48.69 146.54 51.3731 147.92 45.5076 145.945L45.5075 141.808L44.3254 139.739L45.9356 134.631C45.9356 134.631 51.4907 107.569 55.4803 107.239C59.4765 106.902 58.7037 117.259 58.7037 117.259Z" fill="#2C2C2C"/>
<path d="M96.2165 115.112C96.2165 115.112 102.974 141.453 101.369 143.87C100.078 145.817 103.094 145.878 96.9575 146.679L95.1406 142.962L93.1702 141.623L92.3738 136.327C92.3738 136.327 85.481 109.574 88.9204 107.525C92.3628 105.468 96.2165 115.112 96.2165 115.112Z" fill="#2C2C2C"/>
<path d="M98.9701 115.337C98.9701 119.551 96.2091 122.16 91.9949 122.16C87.7807 122.16 84.3657 118.745 84.3657 114.531C84.3657 110.317 87.5495 105.666 91.5655 106.928C95.9911 108.309 98.9701 111.122 98.9701 115.337Z" fill="white"/>
<path fill-rule="evenodd" clip-rule="evenodd" d="M86.6605 108.848C85.4048 110.329 84.6293 112.484 84.6293 114.532C84.6293 118.6 87.9259 121.897 91.9942 121.897C94.0466 121.897 95.7197 121.262 96.8783 120.14C98.0358 119.018 98.7052 117.385 98.7052 115.338C98.7052 111.284 95.8518 108.543 91.4862 107.181L91.4857 107.181C89.6085 106.591 87.9122 107.371 86.6605 108.848ZM91.6437 106.677C89.5049 106.005 87.6015 106.92 86.2574 108.506C84.9171 110.088 84.1008 112.365 84.1008 114.532C84.1008 118.892 87.6341 122.425 91.9942 122.425C94.156 122.425 95.9705 121.755 97.246 120.519C98.5225 119.283 99.2336 117.504 99.2336 115.338C99.2336 110.963 96.1292 108.076 91.6437 106.677Z" fill="#2C2C2C"/>
<path d="M95.5409 114.108C95.5409 117.225 93.4999 119.154 90.3822 119.154C87.2644 119.154 84.7412 116.631 84.7412 113.513C84.7412 110.396 87.0927 106.954 90.0717 107.886C93.3347 108.916 95.5409 110.997 95.5409 114.108Z" fill="#2C2C2C"/>
<path d="M47.7786 115.336C47.7786 119.551 50.5396 122.16 54.7538 122.16C58.968 122.16 62.3763 118.738 62.3763 114.531C62.3763 110.323 59.1926 105.666 55.1765 106.928C50.7576 108.308 47.7786 111.122 47.7786 115.336Z" fill="white"/>
<path fill-rule="evenodd" clip-rule="evenodd" d="M60.4841 108.508C61.8243 110.091 62.6406 112.368 62.6406 114.532C62.6406 118.885 59.1144 122.425 54.7538 122.425C52.5921 122.425 50.7776 121.755 49.5021 120.519C48.2255 119.282 47.5144 117.504 47.5144 115.337C47.5144 110.962 50.6188 108.076 55.0976 106.677C57.2366 106.005 59.1401 106.922 60.4841 108.508ZM60.0809 108.85C58.8291 107.372 57.1327 106.591 55.2558 107.181L55.2554 107.181C50.8964 108.543 48.0428 111.284 48.0428 115.337C48.0428 117.385 48.7122 119.018 49.8697 120.14C51.0283 121.262 52.7014 121.896 54.7538 121.896C58.8217 121.896 62.1122 118.594 62.1122 114.532C62.1122 112.487 61.3366 110.333 60.0809 108.85Z" fill="#2C2C2C"/>
<path d="M51.2126 114.108C51.2126 117.225 53.2537 119.154 56.3714 119.154C59.4891 119.154 62.0124 116.631 62.0124 113.513C62.0124 110.396 59.6609 106.954 56.6885 107.886C53.4122 108.916 51.2126 110.997 51.2126 114.108Z" fill="#2C2C2C"/>
<path d="M82.9775 149.15C78.2085 148.714 73.4989 148.535 73.4989 148.535C71.7683 148.588 68.0825 148.74 64.2778 149.15C65.3875 152.941 69.1526 155.735 73.6244 155.735C78.1028 155.742 81.8678 152.935 82.9775 149.15Z" fill="#50BFD7"/>
<path d="M82.589 149.546C82.9986 147.934 91.1958 106.862 91.1958 106.862C91.1958 106.862 69.3189 100.402 55.3289 106.862L64.2989 149.903L82.589 149.546Z" fill="white"/>
<path fill-rule="evenodd" clip-rule="evenodd" d="M91.2695 106.609C91.2697 106.609 91.2699 106.609 91.1951 106.863C91.4542 106.915 91.4541 106.915 91.4541 106.915L91.4538 106.916L91.362 107.376C91.3019 107.677 91.2136 108.119 91.1011 108.683C90.8762 109.809 90.5544 111.419 90.1669 113.357C89.392 117.233 88.3546 122.417 87.3043 127.652C85.2053 138.114 83.0514 148.797 82.8444 149.611L82.7948 149.807L64.0842 150.172L55.0266 106.711L55.2174 106.623C62.2802 103.362 71.3071 103.369 78.5373 104.178C82.1578 104.583 85.3392 105.19 87.6156 105.696C88.7539 105.95 89.6664 106.177 90.2947 106.342C90.6089 106.425 90.8521 106.491 91.0171 106.537C91.0995 106.56 91.1625 106.578 91.2049 106.591C91.2261 106.597 91.2422 106.601 91.2531 106.604L91.2654 106.608L91.2687 106.609L91.2695 106.609ZM91.1951 106.863L91.4542 106.915L91.5014 106.678L91.2699 106.609L91.1951 106.863ZM90.8883 107.05C90.8838 107.049 90.8794 107.048 90.8748 107.046C90.7125 107.001 90.472 106.935 90.1607 106.853C89.538 106.69 88.6321 106.464 87.5009 106.212C85.2381 105.709 82.0759 105.105 78.4785 104.703C71.3387 103.904 62.5293 103.904 55.6299 107.016L64.5121 149.635L82.3776 149.286C82.7519 147.607 84.7904 137.496 86.7862 127.548C87.8364 122.314 88.8739 117.129 89.6488 113.254C90.0362 111.316 90.358 109.705 90.5829 108.579C90.6954 108.016 90.7837 107.574 90.8438 107.273L90.8883 107.05Z" fill="black"/>
<path d="M82.589 149.546C82.9986 147.934 91.1958 106.862 91.1958 106.862C91.1958 106.862 69.3189 100.402 55.3289 106.862L64.2989 149.903L82.589 149.546Z" fill="white"/>
<path d="M85.8849 105.601C79.7749 104.372 69.4442 102.972 60.5667 105.085C61.6169 111.711 62.6671 118.342 63.7174 124.967C64.5629 129.459 68.8233 132.451 73.2687 132.478C77.7141 132.451 81.9745 129.466 82.82 124.967C83.8372 118.507 84.861 112.054 85.8849 105.601Z" fill="#50BFD7"/>
<path fill-rule="evenodd" clip-rule="evenodd" d="M60.5044 104.828C69.4401 102.701 79.8178 104.111 85.9359 105.342L86.1845 105.392L86.1441 105.646C85.1205 112.098 84.0969 118.55 83.08 125.009L83.0794 125.012L83.0786 125.016C82.206 129.659 77.8197 132.715 73.2692 132.742L73.2677 132.742L73.2661 132.742C68.7154 132.715 64.3293 129.652 63.4567 125.016L63.456 125.013L63.4554 125.009C62.9303 121.697 62.4053 118.383 61.8802 115.069L61.88 115.068C61.3549 111.754 60.8298 108.439 60.3047 105.127L60.2664 104.885L60.5044 104.828ZM60.865 105.287C61.3773 108.518 61.8895 111.751 62.4018 114.984L62.402 114.985C62.9269 118.298 63.4518 121.611 63.9767 124.922C64.7966 129.267 68.9294 132.187 73.2677 132.214C77.6061 132.187 81.7386 129.274 82.5586 124.923C83.5625 118.547 84.5728 112.179 85.5831 105.81C79.5093 104.607 69.5118 103.295 60.865 105.287Z" fill="#2C2C2C"/>
<path d="M77.7992 152.01C77.7992 152.175 77.9445 152.367 78.1163 152.347C80.0648 152.142 81.5576 150.636 83.4798 150.953C81.551 151.911 79.8799 153.575 80.1177 156.026C80.1441 156.33 80.4347 156.449 80.6593 156.264C82.0398 155.088 83.6251 154.038 85.4746 154.428C86.2672 154.593 87.1986 154.903 88.0176 154.797C89.2396 154.646 90.2701 154.091 90.8777 152.908C91.9478 150.861 91.5515 148.403 89.1538 147.895C89.0943 147.882 89.0481 147.888 88.9952 147.908C88.1101 147.558 87.3043 147.115 86.5909 146.343C85.9039 145.59 85.2632 144.757 84.5168 144.064C83.5194 143.132 82.4361 142.399 81.1151 143.027C80.9169 143.119 80.9301 143.403 81.0556 143.555C81.6369 144.275 82.3172 144.962 83.0306 145.623C82.3172 145.457 81.5973 145.372 80.8575 145.431C79.5364 145.543 77.9775 146.422 78.0106 147.994C78.0172 148.192 78.1559 148.311 78.3276 148.331C79.543 148.456 80.765 148.436 81.9738 148.562C80.0912 149.117 77.7794 149.751 77.7992 152.01Z" fill="white"/>
<path fill-rule="evenodd" clip-rule="evenodd" d="M83.0341 142.714C83.643 142.954 84.193 143.399 84.6967 143.87C85.2016 144.339 85.6677 144.88 86.12 145.405C86.3442 145.665 86.565 145.922 86.7854 146.163C87.4415 146.874 88.1816 147.294 89.0126 147.63C89.0728 147.62 89.1375 147.62 89.2095 147.636C90.5033 147.911 91.2784 148.724 91.5702 149.752C91.8576 150.764 91.6706 151.96 91.1121 153.029C90.4561 154.305 89.3386 154.899 88.0508 155.059C87.5994 155.117 87.129 155.059 86.6852 154.973C86.4621 154.929 86.241 154.877 86.0294 154.826C86.007 154.821 85.9847 154.815 85.9625 154.81C85.7736 154.765 85.5935 154.721 85.4205 154.685L85.4199 154.685C83.7054 154.324 82.2099 155.289 80.8304 156.464L80.8288 156.466L80.8271 156.467C80.6473 156.615 80.4148 156.658 80.2099 156.57C80.0051 156.483 79.8753 156.285 79.8544 156.05C79.6392 153.827 80.9045 152.232 82.5008 151.204C81.9696 151.276 81.4523 151.468 80.9107 151.697C80.7902 151.748 80.6682 151.801 80.5446 151.855C79.8114 152.173 79.0208 152.516 78.1448 152.609C77.9473 152.631 77.7893 152.53 77.6943 152.421C77.5998 152.313 77.5352 152.164 77.5348 152.011C77.5242 150.766 78.1666 149.967 79.0322 149.423C79.4887 149.135 80.0147 148.914 80.5481 148.728C80.4131 148.721 80.2775 148.716 80.1415 148.71L80.136 148.709C79.5305 148.683 78.9152 148.656 78.3003 148.593L78.2987 148.593L78.2971 148.593C78.0147 148.56 77.7579 148.349 77.7463 148.002L77.7463 148L77.7462 147.999C77.7276 147.113 78.1616 146.426 78.7634 145.956C79.36 145.49 80.1306 145.227 80.8349 145.167L80.8355 145.167L80.8361 145.167C81.3028 145.129 81.7601 145.147 82.21 145.205C81.7251 144.727 81.264 144.233 80.8507 143.721C80.7444 143.592 80.6906 143.417 80.7 143.253C80.7097 143.082 80.793 142.885 81.0022 142.787C81.7345 142.439 82.412 142.469 83.0341 142.714ZM81.2308 143.263C81.2297 143.267 81.2281 143.273 81.2276 143.283C81.2266 143.299 81.229 143.32 81.2356 143.34C81.2423 143.361 81.2515 143.377 81.2591 143.386L81.2601 143.387L81.261 143.388C81.8312 144.095 82.5014 144.772 83.2099 145.428L83.9395 146.104L82.9708 145.879C82.2759 145.718 81.5843 145.637 80.879 145.694C80.2625 145.746 79.5934 145.978 79.0887 146.373C78.5895 146.763 78.2607 147.301 78.2745 147.986C78.2759 148.02 78.2868 148.035 78.2938 148.042C78.303 148.051 78.3224 148.063 78.3565 148.067C78.9544 148.129 79.5553 148.155 80.1644 148.182L80.1666 148.182C80.7731 148.208 81.388 148.235 82.0009 148.298L83.3312 148.437L82.0483 148.815C82.0154 148.824 81.9824 148.834 81.9494 148.844C81.0261 149.116 80.0602 149.4 79.3136 149.87C78.5578 150.345 78.0543 150.993 78.0632 152.007L78.0632 152.008V152.009C78.0632 152.013 78.0642 152.022 78.0698 152.036C78.0753 152.05 78.0833 152.063 78.092 152.073C78.0955 152.077 78.0986 152.08 78.101 152.082C78.8848 151.997 79.589 151.692 80.3218 151.375C80.4484 151.32 80.5759 151.265 80.7048 151.21C81.5663 150.846 82.4813 150.52 83.5226 150.692L84.3303 150.825L83.5971 151.189C81.7099 152.126 80.1583 153.71 80.3805 156L80.3806 156.001L80.3807 156.002C80.3838 156.038 80.3936 156.058 80.4006 156.069C80.4075 156.079 80.414 156.083 80.4181 156.085C80.4222 156.086 80.4287 156.088 80.439 156.086C80.4491 156.085 80.4669 156.079 80.4898 156.06C81.871 154.884 83.5452 153.75 85.5286 154.168C85.7098 154.206 85.8979 154.251 86.0854 154.296C86.1078 154.301 86.1302 154.307 86.1525 154.312C86.3641 154.363 86.5756 154.413 86.7868 154.454C87.2114 154.537 87.6161 154.582 87.9836 154.535L87.9842 154.535L87.9849 154.534C89.1404 154.391 90.0833 153.875 90.6426 152.787L90.643 152.786L90.6434 152.785C91.1546 151.807 91.3044 150.751 91.0618 149.896C90.8236 149.057 90.202 148.387 89.0987 148.153L89.0975 148.152L89.0963 148.152C89.0961 148.152 89.096 148.152 89.0958 148.152C89.0941 148.152 89.0914 148.153 89.0878 148.155L88.9925 148.19L88.8979 148.153C87.9913 147.794 87.1462 147.333 86.3966 146.521L86.396 146.521L86.3955 146.52C86.1527 146.254 85.9211 145.985 85.692 145.718C85.2523 145.208 84.8214 144.707 84.3368 144.257L84.3363 144.256C83.8426 143.795 83.3524 143.408 82.8401 143.206C82.342 143.009 81.8183 142.985 81.2308 143.263Z" fill="#2C2C2C"/>
<path fill-rule="evenodd" clip-rule="evenodd" d="M55.9491 76.7151V76.8473H55.4207V76.7151H55.9491Z" fill="#2C2C2C"/>
<path fill-rule="evenodd" clip-rule="evenodd" d="M58.723 78.1688V78.3009H58.1946V78.1688H58.723Z" fill="#2C2C2C"/>
<path d="M75.7913 112.86H70.7184C69.3709 112.86 68.2744 113.956 68.2744 115.303V120.376C68.2744 121.724 69.3709 122.82 70.7184 122.82H75.7913C77.1388 122.82 78.2353 121.724 78.2353 120.376V115.303C78.2353 113.956 77.1454 112.86 75.7913 112.86ZM66.9269 110.7C66.1541 110.7 65.5266 111.327 65.5266 112.1C65.5266 112.873 66.1541 113.5 66.9269 113.5C67.6998 113.5 68.3273 112.873 68.3273 112.1C68.3273 111.327 67.6998 110.7 66.9269 110.7Z" fill="white"/>
<path d="M75.4346 115.885C75.111 115.02 74.2853 114.445 73.3605 114.445H71.9866L74.7014 121.328H77.6144L75.4346 115.885ZM69.8861 119.353L69.0935 121.328H71.9866L73.3341 117.913H71.9602C71.0355 117.913 70.2098 118.487 69.8861 119.353ZM70.3353 116.156C70.8109 116.156 71.2006 115.766 71.2006 115.29C71.2006 114.815 70.8109 114.425 70.3353 114.425C69.8597 114.425 69.47 114.815 69.47 115.29C69.47 115.766 69.8597 116.156 70.3353 116.156Z" fill="#50BFD7"/>
<path d="M86.6037 137.724C82.0375 137.306 77.5282 137.136 77.5282 137.136C75.8713 137.186 72.3423 137.332 68.6995 137.724C69.762 141.354 73.3668 144.029 77.6484 144.029C81.9363 144.036 85.5412 141.348 86.6037 137.724Z" fill="#50BFD7"/>
<path d="M81.3937 144.32C81.3937 144.478 81.5328 144.661 81.6972 144.642C83.5629 144.446 84.9922 143.004 86.8326 143.308C84.9859 144.225 83.3858 145.819 83.6135 148.165C83.6388 148.456 83.9171 148.57 84.1321 148.393C85.4539 147.267 86.9717 146.261 88.7426 146.635C89.5015 146.793 90.3932 147.09 91.1774 146.989C92.3474 146.843 93.334 146.312 93.9159 145.18C94.9404 143.219 94.561 140.867 92.2652 140.38C92.2083 140.367 92.164 140.374 92.1134 140.392C91.266 140.057 90.4944 139.634 89.8114 138.894C89.1536 138.173 88.5402 137.376 87.8255 136.712C86.8706 135.82 85.8334 135.118 84.5685 135.719C84.3788 135.807 84.3914 136.079 84.5116 136.225C85.0681 136.914 85.7195 137.572 86.4026 138.204C85.7195 138.046 85.0302 137.964 84.3218 138.021C83.057 138.128 81.5644 138.97 81.5961 140.475C81.6024 140.664 81.7352 140.778 81.8996 140.797C83.0633 140.917 84.2333 140.898 85.3907 141.019C83.5882 141.55 81.3747 142.157 81.3937 144.32Z" fill="#C4C4C4"/>
<path fill-rule="evenodd" clip-rule="evenodd" d="M86.4049 135.42C86.9879 135.65 87.5145 136.076 87.9968 136.526C88.4802 136.976 88.9265 137.494 89.3595 137.996C89.5742 138.246 89.7856 138.491 89.9966 138.722C90.6248 139.403 91.3334 139.805 92.1291 140.127C92.1867 140.117 92.2487 140.117 92.3176 140.132C93.5564 140.396 94.2985 141.174 94.5778 142.158C94.853 143.128 94.674 144.273 94.1393 145.296C93.5111 146.518 92.4412 147.086 91.2082 147.24C90.776 147.295 90.3256 147.24 89.9007 147.157C89.6871 147.115 89.4754 147.065 89.2728 147.017C89.2513 147.012 89.2299 147.006 89.2087 147.001C89.0279 146.958 88.8555 146.917 88.6898 146.882L88.6892 146.882C87.0476 146.536 85.6157 147.46 84.295 148.585L84.2934 148.587L84.2918 148.588C84.1197 148.73 83.897 148.771 83.7008 148.687C83.5047 148.603 83.3804 148.413 83.3604 148.188C83.1545 146.061 84.3659 144.533 85.8943 143.548C85.3857 143.618 84.8903 143.801 84.3718 144.021C84.2564 144.069 84.1397 144.12 84.0213 144.172C83.3193 144.477 82.5623 144.805 81.7236 144.894C81.5345 144.915 81.3832 144.818 81.2922 144.714C81.2017 144.611 81.1399 144.468 81.1395 144.321C81.1294 143.13 81.7445 142.365 82.5732 141.843C83.0103 141.568 83.514 141.356 84.0247 141.178C83.8954 141.172 83.7656 141.166 83.6354 141.16L83.63 141.16C83.0504 141.135 82.4612 141.11 81.8725 141.049L81.871 141.049L81.8695 141.048C81.599 141.017 81.3531 140.816 81.342 140.483L81.342 140.481L81.342 140.48C81.3241 139.631 81.7397 138.974 82.3159 138.524C82.887 138.078 83.6249 137.826 84.2992 137.769L84.2998 137.769L84.3004 137.769C84.7473 137.733 85.1851 137.75 85.6158 137.805C85.1515 137.347 84.7101 136.875 84.3143 136.384C84.2126 136.261 84.1611 136.093 84.1701 135.936C84.1794 135.773 84.2591 135.584 84.4595 135.49C85.1606 135.157 85.8092 135.185 86.4049 135.42ZM84.6783 135.946C84.6772 135.949 84.6757 135.955 84.6752 135.965C84.6743 135.98 84.6765 136 84.6829 136.02C84.6893 136.04 84.6981 136.055 84.7054 136.063L84.7063 136.065L84.7072 136.066C85.2532 136.742 85.8949 137.39 86.5732 138.018L87.2717 138.665L86.3443 138.451C85.679 138.297 85.0168 138.219 84.3415 138.273C83.7512 138.323 83.1106 138.545 82.6273 138.923C82.1493 139.296 81.8346 139.812 81.8478 140.467C81.8491 140.501 81.8596 140.514 81.8662 140.521C81.8751 140.53 81.8936 140.542 81.9263 140.546C82.4988 140.605 83.074 140.63 83.6573 140.655L83.6593 140.655C84.2401 140.68 84.8288 140.706 85.4156 140.767L86.6893 140.899L85.461 141.261C85.4295 141.27 85.398 141.28 85.3664 141.289C84.4823 141.549 83.5575 141.821 82.8427 142.271C82.119 142.727 81.6369 143.347 81.6455 144.318L81.6455 144.319V144.32C81.6455 144.323 81.6464 144.332 81.6518 144.346C81.657 144.359 81.6647 144.371 81.673 144.381C81.6764 144.385 81.6794 144.387 81.6816 144.389C82.4321 144.308 83.1064 144.016 83.8079 143.712C83.9292 143.66 84.0513 143.607 84.1747 143.555C84.9996 143.206 85.8756 142.894 86.8726 143.058L87.646 143.186L86.9439 143.534C85.137 144.432 83.6514 145.948 83.8641 148.141L83.8643 148.142L83.8644 148.143C83.8673 148.177 83.8767 148.197 83.8834 148.206C83.89 148.216 83.8962 148.22 83.9001 148.222C83.9041 148.223 83.9104 148.225 83.9202 148.223C83.9298 148.222 83.9469 148.216 83.9688 148.198C85.2912 147.072 86.8943 145.987 88.7933 146.387C88.9668 146.423 89.1469 146.466 89.3264 146.509C89.3478 146.514 89.3692 146.52 89.3906 146.525C89.5932 146.573 89.7957 146.621 89.9979 146.661C90.4045 146.74 90.792 146.783 91.1439 146.738L91.1445 146.738L91.145 146.738C92.2514 146.6 93.1542 146.106 93.6897 145.064L93.6901 145.063L93.6905 145.063C94.18 144.126 94.3234 143.115 94.0911 142.296C93.863 141.493 93.2679 140.851 92.2116 140.627L92.2104 140.627L92.2092 140.627C92.209 140.627 92.2089 140.627 92.2088 140.627C92.2071 140.627 92.2045 140.628 92.2011 140.629L92.1098 140.663L92.0192 140.628C91.1512 140.284 90.3421 139.843 89.6243 139.065L89.6238 139.065L89.6233 139.064C89.3908 138.809 89.1691 138.552 88.9497 138.297C88.5287 137.807 88.1162 137.328 87.6522 136.897L87.6517 136.896C87.179 136.455 86.7097 136.084 86.2192 135.891C85.7422 135.702 85.2408 135.68 84.6783 135.946Z" fill="#2C2C2C"/>
<path d="M46.6805 125.894H101.388C102.042 125.894 102.67 126.154 103.133 126.617C103.595 127.079 103.855 127.707 103.855 128.362V159.096H44.2126V128.362C44.2126 127.707 44.4727 127.079 44.9355 126.617C45.3983 126.154 46.026 125.894 46.6805 125.894Z" fill="white"/>
<path fill-rule="evenodd" clip-rule="evenodd" d="M46.6808 126.208C46.1097 126.208 45.562 126.435 45.1582 126.839C44.7544 127.243 44.5275 127.79 44.5275 128.361V158.781H103.541V128.361C103.541 127.79 103.314 127.243 102.91 126.839C102.507 126.435 101.959 126.208 101.388 126.208H46.6808ZM44.7134 126.394C45.2352 125.872 45.9429 125.579 46.6808 125.579H101.388C102.126 125.579 102.834 125.872 103.355 126.394C103.877 126.916 104.17 127.623 104.17 128.361V159.096C104.17 159.27 104.029 159.41 103.856 159.41H44.213C44.0393 159.41 43.8984 159.27 43.8984 159.096V128.361C43.8984 127.623 44.1916 126.916 44.7134 126.394Z" fill="#2C2C2C"/>
<path d="M103.855 136.939C96.363 138.839 88.6732 143.676 74.3449 150.487C60.5251 157.062 49.2125 156.948 44.2126 156.44V159.095H103.855V136.939Z" fill="#2C2C2C"/>
<path fill-rule="evenodd" clip-rule="evenodd" d="M104.049 136.691C104.125 136.75 104.17 136.842 104.17 136.939V159.095C104.17 159.269 104.029 159.41 103.856 159.41H44.213C44.0393 159.41 43.8984 159.269 43.8984 159.095V156.44C43.8984 156.351 43.9361 156.266 44.0021 156.207C44.0681 156.147 44.1563 156.118 44.2448 156.127C49.2018 156.631 60.4539 156.748 74.2102 150.204L74.2102 150.203C78.9294 147.96 82.9224 145.934 86.4306 144.154C88.2474 143.232 89.9342 142.376 91.5246 141.59C96.1771 139.29 99.9978 137.593 103.778 136.634C103.872 136.61 103.972 136.631 104.049 136.691ZM74.4803 150.772C60.9061 157.229 49.7318 157.267 44.5275 156.787V158.781H103.541V137.346C99.9549 138.304 96.2874 139.938 91.8033 142.154C90.2237 142.934 88.5419 143.788 86.7278 144.708C83.2148 146.491 79.2055 148.525 74.4803 150.772Z" fill="#2C2C2C"/>
</svg>
